<svg xmlns="http://www.w3.org/2000/svg" width="3000" height="3000"><path d="M328 2803h2344c-118.785-721.214-240.618-1442.068-360.03-2163.199-7.528-45.17-15.046-90.339-22.588-135.492-1.756-10.718-3.574-21.44-5.367-32.15-1.463-5.102-.632-13.609-5.65-15.42-82.419-27.818-165.08-54.96-247.546-82.639-144.35-48.044-288.615-96.253-432.954-144.3-27.19-9.095-54.376-18.14-81.566-27.195-6.024-1.707-14.13-5.746-19.294-4.368-99.967 33.09-199.81 66.647-299.74 99.834a5130220 5130220 0 0 1-448.968 149.67c-9.274 3.513-19.03 5.778-28.13 9.725-3.665 1.962-2.298 9.57-3.876 12.727-22.54 135.51-45.194 271.003-67.739 406.508C542.266 1518.848 433.622 2160.802 328 2803m666-1508.625c2.271 2.349 5.487 3.786 7.344 6.625 24.3-14.362 46.467-32.764 68.577-50.282 10.986-9.147 22.055-18.23 32.181-28.32 5.043-5.156 10.743-9.597 15.768-14.768 2.474-2.52 5.034-4.934 7.394-7.557 2.073-2.12 3.9-5.714 7.736-6.073-.855 60.42-1.52 121.147-9.059 181.166a349 349 0 0 1-8.068 44.297c-3.103 10.118-6.089 20.51-11.805 29.534-3.734 6.908-11.64 10.323-19.118 10.829-12.606.718-25.222.1-37.737-1.415-11.635-1.8-25.608-1.526-36.213-3.411v13c22.002 4.313 44.395 23.144 51.33 42.553 6.401 21.209 7.238 43.784 7.67 65.76.149 5.027-.294 10.16.436 15.13 1.232 4.302 9.46 1.349 12.315 2.012 33.067-1.935 68.837-6.372 96.322-26.775 19.272-15.455 30.316-38.425 39.703-60.687 14.139-35.886 20.746-74.103 25.595-112.164 5.358-40.03 7.322-80.424 8.56-120.735.23-111.764-2.769-224.927-28.483-334.29-6.309-25.88-14.388-51.334-24.512-75.973-2.908-8.92-8.942-18.435-11.241-26.716-1.004-3.822 4.777-7.768 6.259-10.795 19.58-24.234 38.335-49.18 56.048-74.8 9.01-12.328 16.951-25.336 25.35-38.05 4.534-6.983 16.1-3.07 22.937-5.609 6.498-1.845 16.654-7.813 17.711-13.861-51.377-23.639-102.27-49.025-153.5-73-6.34 19.9-10.386 40.7-17.35 60.458-2.944 10.188-6.714 20.135-9.89 30.245-1.66 5.06-3.353 10.113-5.069 15.141-1.791 3.94-2.888 10.65-7.191 11.156-28.007-34.78-63.732-64.3-99.5-91-2.992 2.722-6.596 4.668-9.5 7.5 18.514 26.04 33.048 54.792 47.283 83.296 10.002 22.183 19.362 44.702 26.783 67.904 1.266 4.481 3.245 9.728 3.684 14.002-.157 7.586-6.272 16.45-9.378 24.626-12.288 27.793-26.23 54.837-41.256 81.222-7.453 12.726-15.003 25.382-23.22 37.621-4.121 6.099-8.112 12.292-12.293 18.347-1.916 2.816-5.018 6.188-4.981 9.19 2.084 2.894 3.948 6.044 6.878 8.292 18.67-12.73 37.387-25.462 54.907-39.804 8.878-7.226 17.48-14.815 26.286-22.12 4.558-3.504 8.399-7.776 12.545-11.726 4.42-2.975 9.309-9.493 13.762-10.35 1.228 17.411 6.728 34.649 6.224 52.196-7.698 60.173-24.293 119.216-46.697 175.518-20.716 53.96-47.908 105.696-81.527 152.661m23 835.125c1.13 4.712 2.869 9.27 3.999 13.988 1.137 3.39 1.8 7.565 3.123 10.57.733 2.762 4.472 2.893 6.876 2.929 8.987.038 17.99-.007 26.966.013H1423v270.6c-.322 11.288.664 22.73-1.026 33.933-1.469 10.296-11.033 13.783-20.13 13.464-33.352.526-66.59-1.96-99.824-3.973-32.985-1.654-66.093-2.315-99.02-5.024v11c59.615 10.295 144.457 33.604 159.164 111.176 2.955 13.392 5.463 26.97 7.227 40.575.376 3.218.28 6.576 1.354 9.65 1.573 2.45 6.475.523 8.7.836 48.214-5.39 98.363-12.276 141.096-37.04 14.855-9.318 28.02-21.004 37.444-35.657 16.093-27.08 21.473-64.85 22.014-93.203.002-105.437 0-210.901.001-316.337h364.8c15.368.076 36.068.186 41.2-15.539-48.882-41.963-101.445-79.633-152-119.461-27.983 35.35-57.094 70.956-84 107h-170v-142c13.084-3.263 33.15-6.84 35-27-5.365.108-10.687-.407-16-1v-3c14.165-4.237 27.307-12.085 40.846-17.94 47.964-22.219 94.724-46.973 140.822-72.786a3014 3014 0 0 0 65.17-37.62c10.793-5.059 23.82-16.543 33.959-17.798 12.148-1.831 29.036-4.912 35.203-14.356-44.998-40.046-91.324-78.65-136.5-118.5-19.473 17.013-37.504 35.69-56.37 53.37-8.297 7.822-16.876 15.36-24.725 23.66-4.01 4.11-11.316 2.75-16.46 2.97-185.586.76-371.433-.926-556.945.5 3.473 8.845 5.705 18.523 9 27.5h554v2.5c-31.818 45.803-65.903 90.033-102.496 132.148-9.296 11.045-19.622 21.144-28.979 32.1-3.53 4.641-10.64 2.638-15.61 2.315-38.943-3.758-78.003-6.113-116.915-10.063v185h-406zm259-564.5c30.37 1.348 61.55-2.238 88.124-18.186 10.444-6.816 26.988-14.67 25.872-31.127.011-16.56-.002-33.137.004-49.687h34v53c31.575 1.207 63.112-5.083 91.806-18.538 5.73-2.704 15.33-6.97 16.035-12.849.453-25.55-.082-51.116.159-76.67V1203c4.903-.454 9.485-2.483 14.02-4.21 4.689-1.458 9.89-6.337 13.98-6.79v282c15.36.424 30.819.416 45.874-3.065 19.124-4.714 42.132-14.6 54.499-28.314 3.275-5.099 2.555-11.463 2.627-17.185V882h33v717c35.614.737 73.547.488 104.788-19.376 6.634-4.332 16.296-9.238 17.87-16.508.975-29.085-.177-58.249.342-87.35V1357c20.214 6.771 23.59 34.876 26.008 48.945 3.325 21.172 1.901 42.829 3.492 64.055 17.765-3.095 36.542-4.382 53.634-11.207 14.669-4.964 29.295-12.514 39.586-24.431 18.072-21.07 21.363-49.896 23.484-76.396 1.978-46.388-.12-92.886.796-139.288V894c11.323-.433 22.884-8.636 30-15.5-29.875-22.057-59.482-44.903-89.285-67.133-3.632-2.794-7.276-5.593-11.003-8.239-3.971-3.364-7.075.847-9.412 3.911-9.781 10.739-18.825 22.127-28.622 32.85-2.448 2.785-4.73 5.724-7.274 8.422-1.678 2.074-3.28 4.24-5.558 5.69-8.151 2.203-17.433.128-25.846.999V727h149.4c12.662-.477 31.676 2.235 38.6-15.543-36.28-33.7-75.905-63.577-114.5-94.457-18.292 23.51-36.342 47.247-54.427 70.915-3.437 4.446-6.922 10.982-12.191 11.002-96.957.236-193.927-.043-290.882.083 1.916 8.536 4.669 17.045 7.236 25.407 1.7 4.268 10.157 1.718 13.33 2.593H1696v128c-13.184.282-26.66 1.284-38.724-4.698-32.529-13.139-64.544-27.75-97.276-40.302v376c-5.022-.28-9.269-5.171-12.977-7.472-27.799-20.887-56.002-41.283-83.523-62.528-9.154 11.818-21.563 21.233-31.475 32.475-5.51 5.05-11.202 11.922-16.754 15.97-8.335 1.164-16.893.131-25.271.555v-122h34v26c31.621.762 63.292-5.15 92.194-18.27 6.668-3.217 16.008-5.926 15.766-13.684.113-25.39-.02-50.801.04-76.182V810c10.119-1.988 23.203-6.71 28-14.5-31.77-24.664-64.824-47.714-96.5-72.5-10.26 12.97-23.857 23.481-34.87 35.87-5.53 5.14-10.977 13.93-20.845 13.13-4.73-.143-9.473.254-14.179-.332-4.037-.66-7.627-2.824-11.606-3.668 1.066-6.489 10.682-10.462 14.87-16.37 21.338-18.629 41.3-38.826 60.268-59.832 6.994-8.036 14.405-15.736 20.964-24.152 3.139-3.209 5.86-7.902 8.948-10.613 3.632-2.392 8.814-1.983 12.848-3.556 7.793-2.251 15.718-6.042 20.385-13.003 1.735-2.485 4.474-6.933 1.958-9.034-54.363-6.465-108.892-12.738-163.241-19.44-.94 46.82-5.86 93.508-11 140-24.843-6.916-47.282-21.779-72-29zm114-550h34V800h-34zm0 423h34v-245h-34zm429-100h16.2c7.07.576 16.218.29 17.309-9.764 1.057-8.14.089-16.446.491-24.619V882h-34z" style="fill:#fedda9;fill-rule:evenodd;stroke:none"/><path d="M1001.656 1303c23.37-15.273 46.07-32.18 67.683-49.927 20.787-17.96 45.648-38.935 62.161-58.073 1.601 30.498-1.615 61.535-1.607 92.128-2.365 44.137-4.64 88.756-15.16 131.861-3.097 9.935-6.02 20.134-11.665 29.008-8.407 14.36-31.05 11.274-44.447 10.383-16.187-1.713-32.446-2.662-48.621-4.38v15c22.222 4.321 44.729 23.47 51.525 43.11 6.279 21.25 7.095 43.808 7.475 65.794.053 5.006-.22 10.041.5 14.982 2.022 3.852 9.78.873 12.923 1.645 33.833-1.865 70.51-6.326 98.483-27.48 18.96-15.854 29.99-38.782 39.274-61.163 14.096-35.867 20.452-74.072 25.346-112.079 5.253-40.287 7.342-80.9 8.436-121.464.557-76.625-1.25-153.41-10.356-229.559-7.846-71.668-23.433-143.025-54.606-208.4 21.697-24.986 40.897-52.12 60.313-78.877 9.415-13.208 18.194-26.815 26.975-40.429 4.722-8.935 15.975-4.907 23.475-7.103 7.477-1.59 16.785-8.39 19.237-14.305-51.02-27.112-104.975-49.45-156.5-75.672-11.475 39.356-21.001 80.16-37 118-29.21-35.006-64.546-64.786-101-92-2.15 2.154-4.654 3.8-7.014 5.689-1.558 1.236-3.445 3.05-2.897 4.817 3.282 4.885 6.223 10.172 9.477 15.104 16.07 25.193 29.998 51.654 42.113 78.963 8.975 20.88 17.403 42.064 23.937 63.84 3.612 8.957-1.056 15.981-4.801 23.894C1061.746 890.101 1032.609 941.45 999 989.5c3.125 3.553 5.93 7.353 9.5 10.5 8.669-7.383 19.068-12.539 27.948-19.675 27.344-20.124 53.71-41.652 78.052-65.325 1.971 8.727 3.007 18.018 4.366 26.922.942 8.35 2.963 17.894 2.107 25.498-8.033 61.736-25.427 122.113-49 179.655-10.807 28.447-24.245 55.9-38.829 82.566-7.356 13.087-14.712 26.19-23.031 38.693-4.147 6.18-8.254 12.404-12.396 18.571-1.553 2.877-5.093 6.207-3.666 8.982 2.387 1.711 4.83 4.965 7.605 7.113M1015 2128.25c2.934 6.025 3.423 13.314 5.96 19.57.967 4.654 1.651 10.628 8.475 10.159 17.176.06 34.323-.011 51.49.021H1422v270c-.332 11.199.75 22.563-1.258 33.644-2.132 10.215-12.141 12.668-21.078 12.356-33.239.694-66.305-2.583-99.433-4.013-32.736-1.654-65.544-2.561-98.231-4.987v13c59.878 10.256 144.782 33.855 159.321 111.723 2.805 13.438 5.486 26.963 7.12 40.593.493 3.01.139 6.898 1.517 9.435 4.606 2.508 13.805-.704 18.801-.352 47.13-6.298 97.01-12.977 137.807-39.561 14.146-9.617 26.486-21.78 35.286-36.84 14.227-28.129 19.493-65.47 19.148-94.055V2158h366.6c13.838.338 33.444.146 40.4-16.5-24.322-21.977-50.81-41.476-76.549-61.712-25.916-20.008-52.032-39.807-77.951-59.788-27.737 36.144-57.632 71.39-84.5 108h-168v-140c14.775-3 33.433-7.917 36-29-5.665-.076-11.499.17-17-1.5 55.376-23.983 109.197-51.663 162.154-80.48 25.96-13.54 50.92-28.872 76.317-43.407 12.474-6.394 25.848-16.299 37.438-21.8 7.584-1.638 15.565-1.69 22.894-4.65 3.665-1.246 7.253-2.739 10.668-4.549 2.88-1.492 5.985-4.836 8.529-5.614v-2c-47.115-38.613-92.949-80.39-139.5-120-19.369 17.15-37.536 35.638-56.37 53.37-8.189 7.966-16.857 15.415-24.736 23.725-3.673 4.758-10.943 4.123-16.255 3.905H1123c1.705 10.332 6.455 19.911 9 30 184.568.76 369.55-.926 554 .5-31.746 45.658-65.697 89.81-102.2 131.784-9.102 10.948-19.39 20.792-28.554 31.652-3.841 5.451-9.569 3.427-15.327 3.042-39.307-3.341-78.618-6.573-117.919-9.978v185h-407zM1275 1566c16.276.163 32.688.225 48.749-2.838 21.2-4.196 41.41-13.338 58.247-26.956 11.027-8.121 9.386-20.184 9.004-32.114V1467h32v53c32.265 1.35 64.508-4.587 93.806-18.538 6.119-3.133 15.63-6.744 16.093-13.428.288-26.157-.053-52.337.101-78.489V1204c9.35-1.267 17.924-5.667 25.5-11 1.426 93.875-.26 188.06.5 282 15.665.343 31.412.544 46.808-2.86 10.61-2.25 20.935-6.055 30.62-10.872 7.053-3.47 13.69-7.717 19.894-12.512 5.972-4.146 8.015-9.78 7.669-16.357.026-20.969-.005-41.952.009-62.917V883h31v717c36.379.756 75.241.825 107.16-19.586 6.824-4.398 16.888-9.678 17.664-17.473.502-29.31-.092-58.657.176-87.97.76-38.9-.926-78.183.5-116.971 16.352 11.283 22.123 31.443 23.65 50.195 2.438 20.824 2.674 41.86 2.85 62.805 20.068-2.4 40.245-4.972 59.274-12.264 13.49-5.06 26.91-12.257 36.446-23.374 14.676-16.467 19.713-38.545 21.966-59.829 2.797-24.095 2.586-48.327 2.314-72.525V895c11.85-.412 23.721-9.236 31-16.5-36.174-25.471-69.96-54.94-106.656-79.5-10.34 11.822-20.654 23.694-30.84 35.648-5.393 5.61-9.949 12-15.464 17.484-2.933 2.531-8.293 1.705-12.554 1.868H1820V728h149.4c14.043.256 33.146.386 37.78-14.242 1.866-5.098-6.527-9.01-8.938-12.029-26.952-24.081-55.227-46.59-83.465-69.12-4.729-3.489-9.343-7.107-14.087-10.568-3.619-2.519-7.994-8.162-11.841-2.723-11.047 14.066-21.563 28.563-32.717 42.541-5.259 7.257-10.858 14.238-16.27 21.366-2.727 3.566-5.348 7.187-8.095 10.723-2.955 4.62-7.633 4.182-12.265 4.052H1534c.604 8.559 4.554 16.56 6.283 24.886 1.001 5.733 6.915 5.372 11.292 5.114H1695v126c-6.826-.005-13.624.006-20.44-.004-10.748-.499-20.07-7.49-30.194-10.465C1615.8 832.009 1587.623 819.284 1559 808v377h-1.5c-15.307-12.684-31.974-23.67-47.67-35.848-7.99-6.012-16.01-11.987-24-18-3.974-3.053-7.986-6.014-12-9-3.503-2.52-8.116-6.777-11.83-7.152-.793 3.215-4.835 5.806-7.233 8.733l-27.742 27.742c-4.609 3.481-9.627 11.576-14.727 12.265-7.075.641-14.22-.035-21.298.26v-120h32v26c32.282.979 64.69-4.851 94.194-18.27 7.001-3.149 16.385-6.203 15.786-14.28.056-26.001-.01-52 .02-77.986V811c10.613-1.997 24.194-7.205 29-15.5-15.845-13.39-33.383-24.674-49.666-37.497-8.426-6.315-16.816-12.634-25.25-18.93-4.2-3.028-8.213-6.298-12.427-9.292-3.793-2.621-8.68-7.361-12.657-7.781-.894 3.494-5.424 6.248-7.975 9.475l-30.758 30.758c-2.683 2.463-5.003 5.406-8.018 7.466-9.955 3.84-23.865.614-32.249-3.199 24.95-22.553 48.643-46.316 72.194-70.254 11.225-12.286 22.026-24.953 32.463-37.901 2.65-2.68 8.334-2.054 12.243-3.571 12.127-2.65 23.594-10.933 26.1-23.774-55.919-6.896-112.019-13.482-168-20-.332 23.756-1.958 47.52-4.003 71.171-3.001 22.793-2.678 46.347-7.497 68.829-23.908-9.589-47.343-21.097-71.5-30zm116-552h32V801h-32zm0 423h32v-243h-32zm429-100h15.6c6.773.58 15-.45 15.909-9.764 1.017-7.539.129-15.248.491-22.82V883h-32z" style="fill:#000;fill-rule:evenodd;stroke:none"/></svg>