<svg xmlns="http://www.w3.org/2000/svg" width="3000" height="3000"><path d="M1066 2270c-2.722 42.11-8.59 85.385-28.688 123.316-6.872 12.62-16.167 23.802-21.95 37.035-10.852 21.388-8.228 57.263 21.013 67.172 9.694 3.743 22.305 2.743 31.245.269 37.677-13.315 44.566-58.254 44.38-89.133 1.058-35.99-6.746-71.574-18.741-105.363-3.791-10.373-7.479-22.97-12.163-31.996-4.027-2.556-10.679-.476-15.096-1.3m4-22c26.347.086 53.676 1.243 78.773-8.511 10.534-4.257 22.242-11.116 30.282-17.73 5.78-4.622 5.244-10.798 4.945-17.038V2185h172c-3.296 24.105-2.87 48.958-6.5 73-20.549-20.785-48.776-31.318-76.677-37.505-7.29-1.554-14.584-3.002-21.979-3.955-5.445-.789-9.78 3.483-13.173 7.232-1.197 3.518 4.178 6.352 6.074 8.442 8.72 7.561 17.318 18.105 24.506 25.869 11.864 15.769 23.369 32.233 30.83 50.636 1.8 4.635 3.854 9.22 5.283 13.988 1.743 15.566 22.012 19.09 34.636 18.293-2.635 21.653-7.798 42.906-13.017 64.04-4.276 15.495-8.915 30.938-15.468 45.645-4.73 10.452-11.066 20.58-20.054 27.897-15.672 11.626-36.52 8.355-54.558 8.214-19.276-1.34-38.56-2.817-57.903-2.796-.598 5.316-1.108 10.644-1 16 21.924 4.472 45.287 13.529 58.683 32.615 7.03 9.484 10.214 21.341 11.534 32.918 1.645 12.427 1.835 24.96 1.783 37.467 28.508-1.648 58.028-3.197 84.27-16.05 17.783-7.665 36.923-21.497 48.36-35.04 19.415-23.184 32.24-51.548 40.695-80.392 9.79-30.422 16.012-61.881 21.152-93.375 5.524-33.001 9.28-66.25 12.364-99.545 1.37-17.171 2.994-34.321 4.21-51.501.269-4.546.43-9.1.658-13.646.03-3.31.272-6.641.862-9.865 2.625-3.067 8.222-2.711 12.604-4.132 4.354-.86 8.554-2.342 12.825-3.454v243c27.708.919 56.127-2.02 81.257-14.902 5.727-2.366 11.871-6.438 16.369-9.844 5.427-3.44 5.742-8.84 5.374-14.24V2350h54v66c30.418 1.174 61.066-3.593 88.88-16.476 5.606-3.038 15.42-5.4 15.1-14.074.056-24.6-.01-49.198.02-73.784v-105.579c.278-4.308-1.215-11.797 3.39-13.017 7.632-2.799 17.754-5.309 22.887-11.334 3.405-3.218-1.027-6.866-3.588-8.695-21.82-16.602-43.916-32.834-65.911-49.177-5.535-4.1-10.997-8.284-16.51-12.396-1.881-1.042-3.997-3.614-6.89-2.744-7.387 5.344-12.543 13.078-18.98 19.378l-19.13 19.13c-2.393 2.103-4.502 5.077-7.51 6.3-7.054.96-14.269.132-21.351.468-6.37-.142-12.759.19-19.114-.14-36.991-10.998-71.418-30.559-108.293-41.86-.737 18.897.904 38.215-.5 57-24.48-20.71-49.185-41.146-73.683-61.824-3.144-2.09-6.297-6.601-9.797-6.676-3.328-.221-6.054 5.021-8.495 6.475l-26.258 26.258c-4.102 4.599-8.894 8.458-13.495 12.51-4.128 4.539-7.975 9.39-15.772 8.257v-101.4c-.53-4.208-.182-9.033 5.827-8.557 29.045-.123 58.127.022 87.173-.043.102 10.385 5.63 19.858 7 30h336.6c2.482.122 5.572-.179 7.725.717 3.362 3.372.543 11.82 1.675 15.865v343.975c-.278 10.627 3.153 29.284-13.858 31.306-19.938 2.058-39.94-2.283-59.879-2.128-10.01-.518-20.038-.835-30.013-1.708-9.45-.403-20.65-1.588-29.25-.027-.11 4.561.125 10.437.25 14 15.134 1.935 32.793 6.762 45.766 11.944 21.237 7.953 39.029 29.42 46.733 47.985 4.354 11.469 6.476 23.635 8.102 35.741.641 6.037 1.41 12.06 1.701 18.115 1.032 5.238-.534 13.33 1.948 17.215 24.522-3.074 49.382-5.325 73.103-12.755 33.774-8.948 65.586-31.27 77.303-65.435 13.144-36.944 11.303-76.653 11.094-115.121v-327.921c.022-4.764-1.368-11.914 5.789-11.712 10.5-.159 21.025.028 31.52-.056 9.04-.486 20.26 1.125 28.216-1.922 7.2-2.889 15.7-12.09 9.528-18.464-21.104-22.274-43.504-43.144-65.923-63.984-8.407-7.701-16.731-15.513-24.826-23.562-3.9-3.188-7.755-6.53-10.666-10.673-1.451-9.736-.548-20.076-4.5-29.433-10.172-30.694-38.524-51.825-67.32-63.407-31.455-13.132-65.727-19.991-99.818-19.555 1.412-6.033 4.158-11.71 5.66-17.733.75-2.838 1.407-5.666 2.253-8.467.846-2.305 1.214-6.691 3.493-7.344 51.127-1.3 102.461.236 153.624-.456h58.061c7.965.166 16.332-.192 23.416-4.326 5.994-2.916 11.093-11.312 5.94-16.568-19.081-17.219-38.967-33.506-59.115-49.469-14.613-12.312-29.891-23.768-44.758-35.756-2.84-2.18-5.537-4.542-8.422-6.66-1.415-.694-3.16-2.276-4.515-1.488-16.583 19.517-31.377 40.99-47.264 61.143-4.099 5.147-8.125 10.34-12.013 15.641-2.83 4.998-6.159 8.084-11.643 7.478-16.508-.698-33.284.876-49.717-.495 5.202-28.245 7.425-57.73 9-86.5 13.648-2.273 33.193-7.985 32-29-56.446-1.936-112.562-10.197-169-12-.255 21.698-.954 43.372-1.636 65.05-1.263 20.964-.734 42.089-3.364 62.95h-167c.174 10.369 5.928 19.77 7 30h156c-5.677 41.566-20.295 82.544-45.596 116.316-24.207 33.688-57.372 59.895-92.904 80.684-19.137-18.94-40.174-35.836-60.473-53.49-6.772-6.848-11.176.603-14.86 6.268-11.53 15.957-23.416 31.653-35.033 47.533-2.415 3.359-4.985 8.098-10.134 7.689v-113h112.8c9.111.342 22.312-.612 27.51-11.989 3.473-7.178-6.285-12.785-10.412-17.613-17.027-16.55-34.976-32.113-52.707-47.882-7.417-5.473-15.468-13.77-22.628-18.016-5.746 2.61-9.411 11.45-13.624 15.92-6.417 8.728-13.12 17.227-19.332 26.096-3.232 4.305-6.462 8.593-9.653 12.916-2.959 3.15-6.562 10.83-10.954 10.068-1.731-3.188-.54-8.381-1-12.479v-88.63c.125-3.293-.499-9.085 3.545-9.037 30.38-1.01 60.94.184 91.344-.354 13.364-.005 26.716.007 40.076-.004 10.834.775 24.407-5.376 24.557-17.178-28.16-28.714-61.836-51.897-92.888-77.36-5.486-4.029-12.796-12.67-17.783-5.828-17.438 22.132-34.315 44.687-51.583 66.945-3.446 4.827-11.254 3.096-16.353 3.425h-69.524c-17.385-.227-34.808.277-52.179-.15-43.617-12.456-84.626-34.375-128.212-46.85zm50 13c.683 15.234 5.7 30.017 6.971 45.226 3.475 27.292 6.948 54.738 6.968 82.29-.707 10.743-.253 21.576-1.72 32.256-.629 4.67-.791 9.403-1.372 14.079-1.04 4.175 1.211 7.364 4.388 9.884 9.964 11.604 26.718 17.711 41.436 11.746 21.062-9.677 30.176-33.966 30.657-55.657 2.623-22.565-6.28-48.539-14.24-67.122-12.226-28.235-32.91-51.606-54.712-72.767-4.697-5.063-12.723.148-18.376.065m377-1102h2c4.22 16.445 1.223 33.687-6.424 48.648-13.686 24.586-34.396 44.404-53.446 64.722-15.414 14.772-30.185 30.124-44.126 46.25-10.39 12.121-21.23 23.975-29.199 37.92-22.87 44.386-33.105 94.7-31.805 144.46h510c.883-68.286-2.754-136.51-11.222-204.269-6.33-49.141-14.15-98.362-26.923-146.288-18.71-68.484-51.171-133.378-96.345-188.247C1665.014 908.643 1606.133 864.005 1538 846c1.238-30.363-9.52-59.946-25.834-85.075-8.45-11.598-20.582-23.705-31.63-30.89-7.022-5.575-13.903-5.74-21.866-5.035H1434c2.746 17.652 2.024 35.812 1.69 53.617-.854 8.49-1.297 17.051-2.542 25.494-.725 4.25-1.323 8.51-2.358 12.69-.96 3.38-2.14 8.365-6.79 8.199-7.372-41.294-46.61-74.947-88.8-71h-1.2c7.155 40.765 12.02 83.628-1.523 123.928-5.672 5.802-14.653 8.183-20.795 13.628-13.972 8.726-26.74 19.853-35.39 34.05-16.772 27.121-20.27 59.808-32.092 88.87-4.694 12.912-10.438 25.548-18.415 36.792-32.295 42.57-42.752 96.634-64.435 144.399-.994 4.03-4.943 8.713-4.852 12.16.205 4.745 4.093 8.33 6.21 12.25 8.966 14.344 18.273 28.492 27.185 42.867 8.002 13.034 15.737 27.415 29.172 35.75 12.511 7.794 30.242 9.348 43.285 10.204 12.882 1.175 26.212-1.274 36.316-9.9 17.09-12.776 29.268-30.339 42.491-46.773 9.982-12.337 21.14-23.749 33.514-33.68 2.165-1.946 4.734-3.335 7.028-5.068 23.35-3.398 47.559-3.735 70.096-11.62 19.376-6.718 39.175-24.732 45.205-42.857m-317 1085c19.098 47.407 43.752 94.773 46.725 147.102-.061 3.416.474 6.767.736 10.135 7.312 8.705 20.61 14.806 31.024 14.376 18.282-.734 31.903-16.626 34.534-34.028 3.415-18.616-.375-37.939-8.355-54.834-17.77-37.465-50.625-64.71-85.729-85.078-6.392-4.636-12.992 1.275-18.935 2.327m3-88.5c9.446 1.349 19.672-.182 29.282.5 4.9-.189 9.848.266 14.732-.23 5.147.084 3.783-8.41 3.986-11.53v-66.33c-.647-11.577.814-23.412-.5-34.91-2.864 1.621-7.542.62-11.255 1H1184v99c-.181 4.181.463 9.616-1 12.5m1-284.5h45v-111h-45zm0 143h45v-113h-45zm70.5-797c7.263-25.637 22.595-48.97 44.5-64.5-3.773-6.21-14.602-2.135-19.883-1.423-13.843 2.754-26.393 9.925-35.938 20.36-4.676 4.903-8.345 10.639-10.72 16.99-1.144 2.944-2.549 6.63-1.256 9.291 1.571 2.952 4.395 5.83 6.313 8.185 4.749 5.053 11.046 7.945 16.984 11.097M1414 981c.032-2.48-.06-6.936-2.454-7.6-2.568-.938-5.157-1.83-7.82-2.48-14.044-4.067-28.142-9.424-43.033-8.92-12.223.268-31.784 3.963-34.894 20.114-1.237 3.689-.76 10.012 1.788 12.266 6.34 4.439 15.838 5.08 22.598 5.57 11.7 1.388 22.659-2.857 31.421-10.417 8.964-7.075 20.94-11.563 32.394-8.533m49 1062.25c7.05 1.975 14.071-.225 21.434.75H1812c5.717-11.369 14.57-21.447 21-32.5-8.499-1.034-17.391.435-25.68-2.673-6.52-1.393-14.972-3.447-17.693-9.481-22.756-43.258-55.856-80.014-90.127-114.346-22.626 37.595-57.097 66.816-94.95 88.373-38.537 23.732-82.394 37.2-124.55 52.127 2.269 10.679-8.533 16.177-17 17.75m126 140c1.944 4.407.39 11.4 1 16.982V2320h42c4.45.501 10.03-.807 13.5 1 1.426-32.344-.26-65.028.5-97.43v-24.506c-.02-3.195.027-6.383-.022-9.569.63-7.161-5.714-6.898-10.495-6.495H1589zm3-1236.75c1.629 4.111 7.858 6.845 11.08 10.753 28.922 26.69 54.41 58.146 71.848 93.583 27.507 56.564 35.972 119.997 39.414 182.013 2.351 33.579 1.485 67.295 1.626 100.907-1.52 32.408-1.577 65.175-6.968 97.244h65c-2.234-93.101-7.84-187.134-32.854-277.366-10.422-42.587-28.653-83.164-53.489-119.175-24.52-35.407-53.498-69.18-90.157-92.459-1.67 1.557-3.368 3.131-5.5 4z" style="fill:#fff;fill-rule:evenodd;stroke:none"/><path d="M364 2760.5v1.5h2272v-1.5c-68.931-409.09-136.257-818.54-204.874-1227.691-51.076-306.848-102.33-613.661-153.4-920.497-4.868-28.824-9.564-57.688-14.431-86.508-1.116-7.008-2.365-13.985-3.488-20.978-1.2-6.774-.246-15.245-9.425-16.859-109.868-36.632-219.702-73.24-329.563-109.867-95.996-32.013-192.02-63.992-288-96-41.993-13.978-83.98-28.011-125.966-41.994-5.663-2.605-10.407-1.693-15.513.621-156.173 52.06-312.354 104.114-468.521 156.173-58.68 19.531-117.334 39.097-175.992 58.657-25.668 8.506-51.298 17.139-76.962 25.643-6.176 2.075-12.369 4.11-18.537 6.195-3.02 1.124-6.483 1.813-8.8 4.255-62.934 375.423-125.132 751.075-187.889 1126.544C490.857 1998.664 428.048 2380.37 364 2760.5m703-489.5c-2.656 41.961-8.582 85.002-28.436 122.842-12.934 22.987-38.326 50.028-24.109 81.597 11.446 23.635 38.517 29.293 59.13 18.408 34.19-18.469 37.632-60.55 37.415-91.51.798-35.189-9.295-69.487-20.21-102.5-3.532-8.956-6.691-20.162-11.012-27.865-3.948-1.739-8.63-.519-12.778-.972m4-24c25.812.1 52.599 1.039 77.137-8.66 10.425-4.207 21.94-11.065 29.918-17.58 5.78-4.623 5.244-10.799 4.945-17.039V2184h174v1.5c-1.766 12.374-1.64 25.01-3.147 37.425-.849 12.354-2.549 24.688-2.853 37.075h-1.5c-14.034-14.828-32.592-24.332-51.496-31.132-10.232-3.414-20.615-6.363-31.204-8.413-5.496-1.093-11.011-2.207-16.589-2.735-4.49-.222-10.167 4.896-12.211 7.78 20.625 16.808 37.445 37.944 51.315 60.55 6.693 11.964 12.873 24.4 16.62 37.644 1.143 14.528 23.876 16.426 34.065 16.306-1.91 22.372-7.996 44.155-12.995 65.953-4.275 15.538-8.93 30.984-15.49 45.732-4.73 10.452-11.066 20.58-20.054 27.897-15.569 11.736-36.28 8.241-54.227 8.325-19.406-1.217-38.775-2.806-58.234-2.907-.46 4.657-1.027 9.323-1 14 21.924 4.472 45.287 13.529 58.683 32.615 7.03 9.484 10.214 21.341 11.534 32.918 1.645 12.427 1.835 24.96 1.783 37.467 15.351-1.185 30.828-1.261 45.93-4.694 24.494-4.634 47.793-14.703 67.513-29.99 29.035-22.024 44.015-57.24 55.991-90.311 11.76-36.78 19.492-74.745 25.053-112.915 4.553-31.283 8.44-62.7 10.921-94.217 1.3-16.4 2.898-32.776 3.923-49.182.207-4.34.394-8.694.589-13.03-.635-8.197 6.403-8.134 11.76-8.815 5.63-.976 10.962-3.044 16.32-4.846v244c27.446 1.024 55.355-2.695 80.191-15.277 5.851-2.595 11.184-6.211 16.237-10.07 4.953-3.504 4.738-8.823 4.572-14.235V2349h56v66c29.748 1.073 59.674-3.997 86.88-16.476 6.434-3.254 15.429-5.85 15.08-13.477.113-24.191-.02-48.401.04-72.581v-77.985c.448-12.921-.55-25.947.303-38.833-.02-3.155 4.063-4.018 6.548-4.747 7.409-2.73 17.701-6.18 21.149-12.401-30.128-24.024-61.819-46.204-92.5-69.5-12.43 12.967-24.482 26.278-37.602 38.602-2.285 2.417-4.645 4.72-7.362 6.64-13.92 1.902-28.48-.105-42.521.675-9.736-1.453-18.374-7.226-27.734-9.995-26.237-10.667-52.759-20.843-78.781-31.922-1.403 19.198.236 38.742-.5 58h-1.5c-28.083-23.077-55.492-47.59-84-70l-30.37 30.37c-4.92 5.39-10.36 10.185-15.882 14.91-2.58 2.33-4.77 5.09-7.582 7.152-2.527 2.056-7.066 1.416-10.666 1.568v-102.6c.354-2.755-.571-7.374 1.867-8.78 25.062-1.77 50.512.323 75.642-.62h37.655c10.652.33 22.598-2.234 26.836-15.5l-3-3c43.457-13.557 87.165-28.836 126.568-52.164 38.86-21.304 72.463-51.726 95.932-89.336 23.23 22.683 45.339 46.585 64.427 72.915 9.903 12.397 17.91 26.02 25.332 39.975 3.727 8.754 11.21 10.374 19.411 12.043 8.571 2.491 17.517 2.204 26.33 2.067v1.5c-7.33 10.991-15.674 21.969-22 33.5h-380v1.5c1.475 9.041 5.512 17.488 7 26.5h337.8c2.313.149 6.54-.138 7.58 1.867 1.77 88.064-.323 176.477.62 264.609v66.518c-.882 15.871 1.157 34.755-.824 49.235-2.277 12.892-17.58 13.186-27.466 11.92-17.722-.36-35.368-1.732-53.041-2.723-16.814-1.71-36.83-1.18-52.169-3.426-1.735 2.365-1.44 5.987-1.427 8.533-.42 3.958 1.182 5.349 4.692 5.573 10.559 2.057 21.121 4.198 31.377 7.449 23.402 6.974 45.046 23.202 55.534 45.776 6.136 11.722 8.426 24.915 10.5 37.813 1.028 6.957 1.647 13.98 2.265 20.969 1.26 5.712-.538 14.61 2.059 18.887 31.318-4.078 63.66-7.27 92.8-20.684 20.15-9.36 39.075-23.644 49.468-43.815 17.385-33.043 16.943-71.724 17.232-107.83v-324.923c.202-10.368-.248-20.76.137-31.118.122-4.917 4.61-4.683 8.013-4.629 13.495-.003 26.987.001 40.467-.001 11.251.584 24.667-.807 29.383-15.5-34.253-35.17-70.474-68.224-106-102 4.023-18.121-6.319-40.365-16.086-53.108-17.1-22.122-42.664-35.377-68.478-44.412a249.7 249.7 0 0 0-43.16-10.775c-7.077-1.055-14.196-2.082-21.322-2.637-3.858-.292-7.74-.56-11.598-.56-3.38-.154-7.735.413-10.356-1.508 4.033-7.121 5.802-17.14 8.191-24.193 1.363-3.281 1.454-9.867 5.345-9.947 71.699-1.047 143.581.212 215.31-.373 8.02-.152 17.082-1.605 22.985-7.641 2.247-2.32 3.894-5.377 3.693-8.676-17.663-18.148-38.728-32.978-57.953-49.423-19.437-16.056-39.536-31.334-59.071-47.247-15.561 20.807-31.85 41.085-47.237 62.03-4.078 5.14-8.109 10.324-11.995 15.602-3.274 5.882-6.536 8.07-12.362 7.368H1734c4.41-29.477 7.917-59.198 9-89 12.977-2.41 31.786-7.039 32-27-55.773-2.09-111.234-9.91-167-12-.255 21.698-.954 43.372-1.636 65.05-1.263 20.964-.734 42.089-3.364 62.95h-167c.898 9.604 5.945 18.415 7 28h157c-5.73 28.477-12.22 57.176-25.199 83.4-19.178 38.27-48.21 70.754-83.035 95.388-8.46 5.899-16.803 11.976-25.866 16.948-8.279 6.774-13.145-3.633-19.22-7.97-9.265-7.967-17.973-16.57-27.481-24.261-8.848-6.49-17.68-16.61-26.527-21.505-8.767 11.56-17.348 23.38-26.035 35.017-4.1 5.918-8.715 11.444-12.856 17.326-4.059 5.048-7.39 13.646-15.781 12.657v-115h112.2c9.373.092 22.465-.31 27.703-11.162.557-1.685 1.638-4.013.774-5.2-19.28-20.902-42.663-40.96-64.427-59.914-6.782-6.073-14.345-11.25-20.75-17.724-14.391 17.389-26.666 36.502-40.636 54.222-2.628 3.19-5.178 7.433-8.022 9.971-1.305 1.21-3.63 1.948-5.27 1.047-2.859-2.708-.772-9.49-1.572-12.792v-87.834c.128-4.334-1.03-11.188 4.116-11.394 32.423-.628 64.871.114 97.3-.22 11.774-.035 23.516.043 35.275-.023 10.253.629 20.335-5.453 23.309-15.508-33.632-30.726-69.695-59.02-106-86.469-17.974 22.1-34.903 45.346-52.544 67.773-1.78 1.99-3.195 4.777-5.552 5.767-24.03 1.311-48.257-.238-72.325.46h-54.54c-12.356 1.052-23.496-4.244-34.69-8.733-33.882-12.414-67.443-26.021-101.349-38.267zm60 191.5c8.476 9.328 18.687 18.904 32.215 19.223 13.516.175 25.162-8.55 32.028-19.638 13.5-20.73 13.003-51.816 7.582-72.78-5.49-21.297-14.626-41.781-27.217-59.82-6.353-9.326-13.737-17.786-21.104-26.286-3.797-4.186-7.948-8.014-11.874-12.069-3.64-3.812-7.407-9.077-13.428-6.674-2.71.661-5.41 1.416-8.202 1.544 9.083 57.872 19.634 117.999 10 176.5M1496 1158h4c4.108 16.517 1.749 33.984-5.721 49.182-13.209 24.888-33.97 44.722-53.012 65.05-15.203 14.99-30.44 29.976-44.226 46.26-10.615 11.995-21.178 24.102-29.538 37.824-23.04 43.987-33.558 94.19-32.503 143.684h508c.865-67.983-2.902-135.933-11.336-203.385-6.46-48.925-14.118-97.977-26.955-145.686-18.792-68.437-51.268-133.326-96.532-188.112C1663.753 909.422 1604.954 864.983 1537 847c1.285-30.071-9.343-59.27-25.281-84.277-8.319-11.62-20.345-23.782-31.262-31.08-2.897-1.773-6.292-4.02-9.248-5.028-5.969-1.25-12.237-.186-18.276-.615-5.753.52-12.739-.687-17.933.5 2.992 8.172.985 19.314 2.019 27.091.523 13.193-.113 26.323-1.535 39.578-.461 6.658-1.384 13.23-2.636 19.777-1.286 5.471-1.787 13.86-9.848 13.054-7.358-40.783-46.067-74.79-88-71 8.283 40.595 11.258 83.481-1.414 123.486-1.31 3.35-6.888 4.735-9.99 7.2-14.464 8.365-28.495 18.234-39.107 31.274-10.598 11.576-16.201 26.602-21.043 41.2-10.103 28.378-15.414 58.967-31.08 85.16-6.09 11.08-15.019 20.41-20.508 31.861-12.857 21.479-20.6 45.4-29.21 68.716-7.536 20.89-15.177 41.804-24.421 62.007-1.76 3.67 2.368 8.123 4.639 11.851 9.274 14.3 18.149 28.837 27.38 43.155 8.074 12.869 15.599 27.308 28.61 36.007 12.177 8.23 29.867 9.949 42.816 10.895 28.01 3.041 45.577-15.948 61.775-35.638 11.247-14.015 21.973-28.52 34.923-41.044 4.891-4.737 9.92-9.41 15.3-13.585 2.166-1.946 4.735-3.335 7.03-5.068 23.35-3.398 47.558-3.735 70.095-11.62 19.376-6.718 39.175-24.732 45.205-42.857m-315 1087.146c12.671 27.503 25.73 55.39 34.63 84.532 7.536 22.811 11.54 46.64 12.83 70.559 9.534 11.28 29.703 20.327 45.888 9.14 21.663-16.15 22.68-47.988 13.557-71.16-8.491-23.582-24.366-43.705-42.152-60.928-15.84-14.13-33.379-26.304-51.716-36.913l-.537-.376c-3.156 2.082-8.254 3.571-12.5 5zm2-373.146h47v-113h-47zm0 143h47v-115h-47zm0 140h47v-112h-47zm45-959.5c5.705 10.086 16.968 20.85 28 22.5 5.853-26.705 23.7-49.249 45-65.5-5.341-8.21-20.122-2.696-27.32-1.255-11.212 2.365-20.548 9.071-28.86 16.58-3.915 3.74-7.971 8.822-10.321 13.192-2.86 4.172-4.29 11.24-6.499 14.483M1415 982c-.315-3.01.724-8.515-2.43-9.583-3.428-1.309-6.977-2.27-10.503-3.257-14.253-4.579-28.76-9.177-43.97-8.155-12.602.306-31.079 5.277-33.682 21.417-.364 3.653-.923 8.518 1.567 12.357 6.02 4.99 15.903 5.51 22.628 6.153 6.357.16 12.909.427 19.012-1.708 8.19-2.677 14.437-9.05 21.82-13.196 7.592-5.113 16.882-5.709 25.558-4.028m174-35.625c30.525 27.033 59.16 57.176 78.843 93.377 30.979 57.147 40.852 122.68 45.157 186.577 2.197 34.942 2.172 69.934 1.984 104.92-.98 33.652-2.18 67.39-6.984 100.751h67c-1.904-95.816-8.142-192.567-34.325-285.306-11.62-43.31-30.329-84.504-57.162-120.503-13.106-17.966-27.163-35.316-42.883-51.061-7.681-7.645-17.412-15.845-25.105-22.105-4.146-3.414-8.58-6.448-13.044-9.405-5.238-4.512-9.39.545-13.481 2.755M1589 2321h56v-137h-56z" style="fill:#000;fill-rule:evenodd;stroke:none"/></svg>