<svg xmlns="http://www.w3.org/2000/svg" width="3000" height="3000"><path d="M364 2760.5v1.5h2272v-1.5c-68.931-409.09-136.257-818.54-204.874-1227.691-51.076-306.848-102.33-613.661-153.4-920.497-4.868-28.824-9.564-57.688-14.431-86.508-1.116-7.008-2.365-13.985-3.488-20.978-1.2-6.774-.246-15.245-9.425-16.859-109.868-36.632-219.702-73.24-329.563-109.867-95.996-32.013-192.02-63.992-288-96-41.993-13.978-83.98-28.011-125.966-41.994-5.663-2.605-10.407-1.693-15.513.621-156.173 52.06-312.354 104.114-468.521 156.173-58.68 19.531-117.334 39.097-175.992 58.657-25.668 8.506-51.298 17.139-76.962 25.643-6.176 2.075-12.369 4.11-18.537 6.195-3.02 1.124-6.483 1.813-8.8 4.255-62.934 375.423-125.132 751.075-187.889 1126.544C490.857 1998.664 428.048 2380.37 364 2760.5m656-1173.125c1.347 1.586 4.009 2.776 6.002 4.138 2.65-.16 4.908-1.786 7.1-3.076 34.983-20.33 68.063-43.961 98.363-70.79 30.513-27.997 57.35-59.654 80.794-93.733 38.104-59.552 64.593-126.503 78.201-195.886 14.733-73.311 19.678-148.352 19.54-223.028h62c11.468 66.888 26.725 133.538 51.02 197.044 17.74 45.939 39.574 90.609 66.814 131.683 2.443 3.935 5.288 7.59 7.598 11.607 2.337 3.934-1.618 8.206-4.336 11.022-46.461 49.576-99.076 93.555-156.708 129.704-57.702 36.588-119.72 66.355-183.388 90.94.341 2.773 2.248 4.716 3.932 6.727 1.895 1.764 5.87.538 7.825.431 83.613-15.29 166.6-36.431 245.036-69.66 39.383-15.702 76.998-35.327 113.099-57.498 13.183-8.017 26.047-16.547 38.89-25.09 5.965-6.476 12.124.23 16.842 5.158 38.753 35.362 82.506 64.586 128.946 88.819 47.643 24.664 97.382 45.568 148.43 62.113 10.393-31.954 25.676-63.568 49.975-87.475 23.134-24.555 54.74-41.207 88.025-46.525.446-3.659.98-7.317 1-11-112.166-19.253-224.12-47.456-327-97 .047-4.67 4.356-7.5 7.053-10.835 44.073-47.938 83.005-100.965 114.025-158.326 16.26-29.053 30.02-59.402 42.996-90.034 7.27-15.25 11.44-31.866 18.579-47.115 2.522-2.838 9.246-1.207 12.393-2.636 12.326-1.696 24.42-6.236 31.954-16.554-44.797-41.574-90.706-81.929-135.5-123.5-25.94 25.915-52.802 50.827-78.733 76.733-5.281 6.684-12.555 5.433-20.228 5.267H1310V774h567c13.616-.007 27.221.008 40.832-.004 10.955.025 24.15-.938 30.168-14.496-21.543-19.244-44.33-37.027-67.007-54.912-22.35-16.753-47.609-37.763-68.493-52.588-17.562 20.665-33.314 42.881-50.444 63.905-7.429 9.324-14.568 18.86-22.084 28.109-3.954 5.47-11.19 3.71-16.516 3.986h-371.82c-9.057.452-18.219.596-26.617-3.2-53.7-21.162-107.27-42.878-161.019-63.8v249c-.767 118.93-.59 238.822-20.009 356.525-9.828 54.845-23.569 109.157-44.054 161.055-20.5 49.704-47.118 97.205-79.937 139.795M1032 2413h388v192c22.812-.189 45.904.302 68.395-4.091 15.484-3.498 30.975-7.655 45.626-13.852 10.507-4.244 20.99-8.876 29.99-15.892 8.073-5.625 5.771-18.334 5.989-26.621V2413h364.8c15 .083 35.913 1.255 41.2-14.531-46.792-37.583-94.474-74.954-143.5-109.469-15.54 17.793-29.65 36.806-44.825 54.906-11.352 13.313-21.39 27.923-33.336 40.674-6.24 2.999-15.993.314-22.684 1.42H1570v-123h142v37c22.262-.104 44.872-.028 66.639-5.398 15.345-3.5 30.237-8.55 44.941-14.065 10.164-4.778 20.922-8.605 30.171-15.081 7.772-4.947 4.46-17.318 5.249-25.236V1964c14.922-1.248 28.631-8.967 39-19.5-43.73-33.58-87.673-67.076-131.5-100.5-11.015 13.865-24.416 25.644-35.609 39.351-9.358 9.54-17.646 20.124-27.29 29.369-4.167 3.493-11.26 1.814-16.216 2.28H1570v-106h339c12.715.114 31.379 1.043 38-14.5-22.65-19.43-46.763-37.118-70.517-55.14-12.202-9.2-24.709-18.011-37.032-27.03-5.982-4.536-12.031-8.939-18.125-13.318-6.072-3.53-12.114-9.97-18.326-12.012-11.77 17.465-27.244 33.124-39.81 50.203-10.374 12.404-20.386 25.134-30.637 37.623-1.979 2.302-3.636 5.037-6.196 6.777-6.08 2.877-12.613.383-19.128 1.397H1570v-89c8.017-1.28 17.569-3.887 23.95-7.782 8.112-4.828 10.518-11.978 13.05-19.718-62.252-5.369-124.65-12.64-187-17.5v134c-120.264.76-240.81-.926-361 .5 2.221 3.671 2.582 9.8 4.57 14.482 1.553 3.216 1.586 10.167 5.448 10.568 34.802 1.283 69.838-.233 104.676.45H1420v106h-109.8c-8.143-.154-16.743.957-24.39-2.472-48.907-19.262-98.446-37.28-147.31-56.528-1.426 159.538.26 319.402-.5 479 31.42 1.073 63.142-1.552 92.728-13.08 13.824-4.595 27.084-10.792 39.294-18.73 5.65-3.842 12.754-9.36 12.89-16.143.228-8.023-.022-16.028.088-24.047h137v123h-395c1.076 9.274 5.732 17.776 7 27m251-341h137v-131h-137zm0 164h137v-137h-137zm399-1231h-294c.286 8.466 4.757 17.727 6.559 25.176 19.06 59.63 46.91 116.92 86.433 165.789 19.216 24.898 40.873 47.76 64.541 68.43 2.995 2.571 5.843 5.346 9.1 7.589 3.295 2.739 5.704.628 7.34-2.474 13.335-19.043 25.806-38.63 37.276-58.837 18.571-31.39 33.62-64.7 48.005-98.141 7.432-17.249 13.735-34.936 19.658-52.75 2.866-9.139 5.85-18.265 8.55-27.444 2.457-8.714 6.443-18.898 6.538-27.338m-112 1067h142v-131h-142zm0 164h142v-137h-142z" style="fill:#fda;fill-rule:evenodd;stroke:none"/><path d="M1018 1587.5c2.488 2.588 5.8 4.183 8.5 6.5 48.283-27.56 93.73-60.612 132.102-101.102 58.744-61.072 100.088-137.402 122.267-219.04 23.675-87.114 30.065-177.965 30.131-267.858h60c10.687 61.428 24.081 122.792 45.321 181.544 20.155 56.885 47.422 111.278 81.679 160.956-46.924 51.227-100.246 96.972-159.06 134.237-59.08 37.363-122.385 69.052-187.94 93.263.75 4.013 4.467 8.497 6.5 11 74.108-14.507 148.752-31.114 219.583-58.17 67.25-24.962 132.062-58.058 190.417-99.83 39.95 37.71 85.136 69.31 133.654 94.984 49.226 27.528 102.546 46.891 155.346 66.016 10.589-31.931 25.41-63.701 49.733-87.733 23.329-24.85 55.036-41.994 88.767-47.267.574-4.357.943-8.724 2-13-112.554-18.765-224.783-47.574-328-97v-1.5c46.556-48.203 85.89-103.013 118.903-161.279 16.091-30.409 31.61-61.103 44.599-93.014 7.428-15.738 11.933-32.745 19.15-48.517 2.676-2.895 9.647-1.192 12.942-2.73 6.253-1.293 12.574-2.781 18.377-5.486 6.1-2.24 10.024-7.224 14.029-11.974-45.403-42.293-92.1-83.21-137.5-125.5-26.098 25.832-52.78 51.046-78.87 76.87-5.299 7.014-12.112 6.871-19.687 6.13H1311V775h532.8c26.805-.241 53.609.295 80.407-.16 8.815.006 17.797-3.1 22.8-10.818 1.26-1.437 1.092-3.508 1.527-5.246-20.615-20.368-44.933-37.175-67.215-55.73-22.997-17.61-45.61-35.75-68.819-53.046h-1.5c-15.045 21.992-33.546 42.415-49.317 64.074-7.398 9.343-14.626 18.86-22.081 28.145-3.691 6.06-10.976 4.846-16.546 4.781h-373.019c-17.35 1.227-33.1-6.435-48.756-13.078-45.764-18.683-92.15-36.004-137.781-54.922-2.754 163.794 3.809 328.217-7.164 491.852-4.558 76.16-17.293 151.967-39.715 224.938-10.026 35.28-24.386 69.08-41.296 101.544-16.14 31.73-35.497 62.13-57.325 90.166m5 798c2.629 9.433 5.877 18.926 8 28.5h388v192c22.947.05 46.063.167 68.744-3.728 15.72-3.438 31.373-7.539 46.252-13.762 10.8-4.476 21.758-9.011 31.016-16.345 8.072-5.625 5.77-18.334 5.988-26.621V2414h367.2c13.294.333 33.993 1.003 39.8-16.5-48.124-37.096-95.728-75.648-145.5-110.5-15.968 17.566-29.718 37.07-45.157 55.082-11.12 13.593-21.724 27.649-33.226 40.906-2.966 2.567-7.19 1.873-10.865 2.012H1571v-121h140v37c22.566-.113 45.446.095 67.56-5.124 15.722-3.562 30.952-8.696 46.02-14.34 10.164-4.777 20.922-8.604 30.171-15.08 7.875-5.087 4.363-17.781 5.249-25.835V1965c15.4-1.313 29.464-9.503 40-20.5-44.002-34.77-89.388-67.87-133.5-102.5-11.373 13.52-24.012 25.919-35.638 39.202-9.013 9.841-17.772 19.919-27.08 29.48-3.659 4.226-10.621 3.346-15.603 3.318H1571v-104h337.2c10.366.122 21.374.814 30.874-4.273 3.322-2.185 6.711-4.907 7.861-8.704 1.638-3.845-2.61-6.638-5.309-8.908C1897.273 1751.8 1850.48 1718.441 1804 1685c-14.026 16.204-27.062 33.532-40.813 50.022-10.455 12.302-20.233 25.165-30.595 37.532-3.673 5.216-7.295 10.711-15.595 9.446H1571v-87c8.506-1.363 18.752-4.037 25.25-8.705 7.135-4.796 10.816-13.047 11.75-21.295-62.745-5.217-126.004-11.551-188.5-18-1.426 44.88.26 90.058-.5 135h-361v1.5c1.787 5.323 3.138 10.794 4.77 16.16 1.4 4.071 1.72 9.928 6.31 10.11 13.921.653 27.928-.116 41.864.23H1419v104h-109.8c-16.076 1.184-30.957-4.967-45.512-11.306-41.909-16.523-84.594-31.527-126.188-48.694-1.426 160.538.26 321.402-.5 482 31.72 1.058 63.826-1.039 93.727-12.755 14.031-4.558 27.408-10.921 39.883-18.756 5.503-3.92 12.781-9.17 13.245-15.829.368-8.22-.03-16.448.145-24.66h135v121h-396zm261-314.5h135v-129h-135zm0 164h135v-135h-135zm273.5-962c28.205-39.294 52.574-81.518 72.766-125.456 10.686-22.19 19.891-45.129 28.46-68.192 7.306-24.411 17.705-48.182 22.274-73.352h-292c13.018 52.306 36.047 102.102 63.762 148.12 28.93 44.483 63.836 85.037 104.738 118.88m13.5 798h140v-129h-140zm0 164h140v-135h-140z" style="fill:#000;fill-rule:evenodd;stroke:none"/></svg>