<svg xmlns="http://www.w3.org/2000/svg" width="3000" height="3000"><path d="M1715 2207v-256c58.528-1.093 117.291 1.333 175.743-.72 6.492-1.1 12.962-3.896 16.58-9.685 3.238-5.856-1.765-10.132-6.212-13.507-29.265-25.334-60.642-48.034-91.13-71.815-4.969-3.727-9.937-7.466-14.916-11.162-4.984-3.205-10.175-9.257-16.065-9.111-18.813 27.238-42.057 52.177-61.52 79.152-1.94 2.655-4.152 5.105-6.353 7.525-6.886 2.7-13.825.388-21.1 1.323H1372v-127c102.797-4.413 205.245-16.507 306.742-33.117 12.169-2.013 24.305-4.23 36.405-6.568 5.934-.756 11.72-2.506 17.668-3.088 8.597.12 19.227 6.1 29.453 6.848 9.028 1.086 19.973 1.538 28.136-.494 3.898-.874 7.293-2.966 10.285-5.47 2.712-2.67-1.946-6.87-3.724-8.472-38.43-36.618-78.07-71.953-115.965-109.139 27.74-9.99 57.266-18.712 80.92-37.434 17.926-12.855 32.52-32.628 34.977-55.034 1.465-17.761-2.047-35.79-12.348-50.675-3.5-5.33-7.308-10.528-11.788-15.089-3.652-3.954-10.176-6.716-8.873-12.406 9.05-39.619-7.069-80.53-33.019-110.252-8.256-9.694-17.155-18.885-28.022-25.752-5.443-2.933-5.937-8.557-6.448-14.078-4.45-19.92-17.35-38.321-35.9-47.544-3.63-1.914-7.556-3.09-11.432-4.327-6.075-2.821-9.821-11.568-14.056-16.37-29.495-43.804-35.632-98.108-38.011-149.539 19.79-4.346 38.138-14.832 52.794-28.619 15.326-15.572 22.322-37.964 18.042-59.531-3.536-25.244-24.552-43.375-47.836-50.35 25.008-30.427 34.339-71 31.646-109.698-1.929-38.597-17.159-76.64-45.121-103.777-58.692-57.193-166.292-54.42-220.437 7.863-24.524 27.753-37.3 64.545-37.987 101.357-1.636 36.981 8.192 75.282 31.899 104.255-11.1 4.492-22.878 9.071-31.232 18.233-13.728 13.249-19.534 33.263-17.294 51.977 1.337 19.05 12.803 35.93 27.688 47.136 12.508 9.556 29.656 18.157 43.838 21.154-.741 22.068-2.935 44.079-6.474 65.874-3.114 19.617-7.517 39.332-16.548 57.176-3.873 8.12-8.155 16.04-13.064 23.569-5.202 6.33-9.534 16.202-16.042 19.3-16.392 4.545-29.719 16.08-38.54 30.294-3.92 7.047-6.937 14.665-8.738 22.536-1.08 3.512-.702 8.688-3.432 10.783-24.976 16.97-43.822 41.628-56.334 68.86-5.822 12.75-9.93 26.624-9.826 40.74.065 7.04-.29 14.138.674 21.132.828 5.336 4.028 11.295-2.305 15.453-17.704 13.955-30.102 40.015-29.371 60.674-2.772 45.602 41.666 71.95 73.598 86.496 59.389 25.672 124.677 31.666 188.498 34.547 65.49 2.845 131.623-2.376 195.904-13.934-67.532 35.17-138.626 62.786-210.431 87.784-17.874 6.198-35.725 12.51-53.743 18.273-6.66 2.19-13.297 4.483-19.957 6.649-5.847 1.911-11.909 3.464-17.745 5.294-40.618-12.177-80.124-29.599-121.124-40.5v488h-183c1.706 8.342 5.085 18.008 7.269 25.493 1.784 4.181 10.164 1.613 13.325 2.507h832.961c8.914-.1 18.349.58 26.631-3.387 6.261-3.053 12.599-11.562 6.247-16.248-18.8-16.883-39.306-31.72-59.098-47.365-19.85-15.468-39.558-31.15-59.542-46.424-2.379-1.853-4.904-3.998-8.091-4.09-4.66 1.468-8.126 9.988-11.804 12.918-12.582 15.978-25.06 32.063-37.652 48.025-6.168 8.049-12.528 15.966-18.789 23.935-3.48 5.452-9.069 4.822-14.39 4.636zm-385 32c-14.3 28.805-34.376 54.846-53.626 80.516-35.773 45.273-75.607 87.452-119.789 124.632-16.148 13.842-33.025 26.855-50.232 39.335-7.451 5.594-15.158 10.79-22.941 15.9-6.347 5.027-14.983 8.286-19.968 13.507.03 3.186 2.417 7.001 4.767 9.99 2.477 3.765 9.573-.3 12.796-.383 60.538-15.075 119.848-35.073 176.326-61.664 55.38-25.637 108.451-56.838 156.542-94.512 8.507-6.252 16.327-13.285 24.25-20.226 6.082-6.492 18.759-.624 27.926-4.632 5.746-1.269 18.144-9.754 7.955-15.359-46.802-28.853-93.657-57.627-140.426-86.497a13 13 0 0 0-3.58-.607m-46.643-803.527c.237 7.678 5.076 11.636 10.573 14.822 5.276 3.672 10.8 6.864 16.525 9.78 30.901 14.781 64.375 23.828 98.251 28.531 62.217 8.784 125.755 8.5 187.9-.751 22.511-3.454 44.806-8.82 66.278-16.411 17.432-6.683 35.164-14.101 49.748-26.049 6.274-6.81 4.523-15.67-1.29-21.257-6.136-6.715-15.867-3.935-21.677-.025-53.513 33.156-118.777 36.286-179.694 38.619-31.662.665-63.417-1.553-94.85-5.074-30.249-4.232-60.984-10.23-88.422-24.317-9.63-3.751-19.582-13.869-29.676-13.166-7.297.724-13.28 8.079-13.666 15.298m10.838 109.016c.437 12.328 13.6 16.394 21.921 19.738 25.885 10.874 53.418 17.025 80.83 22.441 21.178 3.55 42.453 6.44 63.91 7.422 6.881.674 15.934 2.208 22.563-4.155 5.344-4.208 6.976-12.268 2.607-17.768-8.166-10.595-23.12-7.701-33.521-9.506-36.653-3.383-73.078-9.912-108.183-21.053-6.259-2.101-12.483-4.264-18.61-6.722-6.001-2.402-12.26-5.522-18.935-4.575-6.96.756-12.732 7.007-12.582 14.178m56.943-221.484c-.12 8.721 10.058 14.103 17.054 15.542 50.723 14.657 103.868 14.98 156.13 14.453 25.635-.311 51.25-3.078 76.547-6.974 12.501-2.408 25.178-4.942 37.08-9.56 5.149-2.164 11.32-6.772 10.876-14.186-.183-5.877-3.459-11.578-8.841-14.092-10.604-4.048-21.85 2.02-32.413 3.19-19.6 3.475-39.274 6.578-59.106 8.295-31.318 1.84-62.869 1.603-94.197.287-15.103-1.364-30.138-3.08-45.091-5.591-7.36-1.23-14.665-2.799-21.981-4.247-6.925-.873-14.952-4.05-21.427-3.482-9.125.807-14.701 7.964-14.63 16.365M1372 2207h206v-256h-206zm12.094-1185.529c-.252 12.49 10.398 15.668 18.566 17.91 36.775 12.296 75.835 20.161 114.809 16.944 19.671-1.412 38.985-5.707 58.047-10.467 9.174-2.553 18.338-5.139 27.316-8.318 10.188-2.438 15.5-11.814 12.2-21.102-3.618-10.007-14.2-12.19-22.251-7.965-31.265 11.528-64.686 17.065-98.004 16.363-17.07-.83-34.263-1.912-50.942-5.878-7.967-1.705-15.869-3.556-23.619-6.059-7.155-1.545-15.047-6.146-21.77-6.565-7.862.322-14.635 7.083-14.352 15.137m42.969-166.716c-.279 8.76 7.747 16.574 16.248 15.97 8.934-.756 13.11-9.708 15.393-16.318 4.45-18.365 16.915-28.112 33.016-33.29 7.058-2.763 15.911-7.166 15.127-17.837-.452-9.228-8.302-14.655-16.457-14.145-32.093 5.34-59.898 32.595-63.327 65.62M1564 2274c-1.329 3.892-7.573 7.038-1.71 11.094 3.91 2.858 8.37 4.887 12.33 7.664 40.028 26.255 77.264 56.581 112.43 88.953 25.847 25.728 52.57 50.758 75.149 79.568 8.638 10.179 16.548 20.98 24.249 31.873a1836 1836 0 0 0 10.126 15.183c2.42 5.52 8.139 8.329 13.035 9.025 20.328 7.176 47.901 6.656 64.78-4.522 13.27-8.039 22.635-21.661 27.024-36.367 7.793-22.813 1.179-51.88-8.177-70.98-10.48-20.98-27.055-37.998-44.788-52.85-38.262-29.948-84.482-48.155-131.11-60.312-50.113-12.065-101.84-17.722-153.338-18.329" style="fill:#fff;fill-rule:evenodd;stroke:none"/><path d="M449 2668h2102c-110.242-665.144-221.837-1330.12-332.532-1995.186-3.476-20.835-6.96-41.682-10.42-62.51-1.682-10.253-3.434-20.498-5.126-30.74-1.284-4.301-.763-13.077-5.037-14.575-157.034-52.902-314.464-104.735-471.586-157.384-59.003-19.668-117.989-39.359-177-59-12.991-4.38-26.002-8.647-38.997-13.002-3.112-1.025-6.191-2.224-9.42-2.795-5.85.042-13.257 4.126-19.018 5.393-97.504 32.546-195.061 65-292.567 97.54-73.178 24.36-146.325 48.77-219.478 73.159-54.841 18.294-109.718 36.516-164.531 54.86-6.415 1.276-7.163 6.488-7.57 12-26.516 158.994-52.99 317.976-79.524 476.964A2145928 2145928 0 0 0 449 2668m607-459.75c2.317 4.456 3.074 11.572 5.283 17.17.739 4.388 1.859 9.273 8.107 8.555 14.608.07 29.2-.013 43.796.025h789.376c13.372.043 34.574 2.87 41.438-14.5-20.624-18.163-42.322-35.06-64.213-51.663-10.674-8.676-21.765-16.855-32.421-25.547-11.043-7.202-22.011-19.092-33.022-24.29-14.24 18.362-28.737 36.543-42.985 54.895-7.11 9.286-14.55 18.306-21.673 27.581-1.765 2.298-3.394 4.735-5.764 6.453-9.46 2.528-20.171-.03-29.922 1.071v-258c58.38-.937 116.929 1.143 175.255-.617 6.43-1.12 13.095-3.657 16.731-9.445 3.751-4.774-3.539-10.046-6.947-12.715-29.12-25.346-60.55-47.845-90.906-71.606-4.554-3.421-9.127-6.807-13.666-10.228-4.691-2.609-9.867-8.777-14.467-9.389-18.941 27.354-42.255 52.462-61.843 79.55-2.02 2.659-4.165 5.235-6.52 7.573-6.822 1.64-14.24.407-21.21.877H1371v-129c73.062-2.922 145.947-10.582 218.457-19.856 35.879-4.38 71.525-10.58 107.157-16.544 9.189-1.805 18.443-3.386 27.626-5.167 6.39-2.033 12.853-2.543 18.891.454 9.433 3.159 19.209 5.508 29.154 6.005 9.834.516 21.448-.226 28.715-7.892-40.185-39.493-83.088-76.613-123-116.5 27.305-8.094 55.131-17.834 78.712-34.363 17.499-12.039 32.748-29.238 37.86-50.347 4.569-17.251.252-35.485-7.745-50.855-5.625-10.515-13.266-19.694-22.416-27.28-3.578-3.31-1.265-8.981-.437-12.973 2.425-16.96 1.605-34.671-4.194-50.855-4.815-15.026-12.894-28.75-21.741-41.699-7.507-10.677-18.084-21.704-27.074-29.49-3.735-3.359-9.625-6.65-13.61-10.641-2.161-10.693-3.944-21.66-9.976-31.104-4.703-8.014-12.347-16.278-19.176-21.372-6.305-5.517-14.683-7.502-22.07-10.553-19.078-20.551-33.277-51.88-39.066-76.67-6.421-29.661-9.936-59.988-11.067-90.298 19.79-4.346 38.138-14.832 52.794-28.619 15.052-15.438 22.54-37.712 17.723-59.077-4.301-23.876-24.957-43.526-48.517-48.304v-1.5c24.269-28.482 34.267-66.948 32.937-103.833-1.116-36.882-13.594-73.7-38.519-101.409-54.068-61.693-160.645-64.254-218.52-6.656C1338.523 802.834 1334.347 899.921 1382 961c-13.883 2.749-26.459 11.232-35.814 21.568-9.569 11.234-14.417 26.048-14.101 40.77.324 17.739 8.22 34.793 21.39 46.637 12.169 11.853 27.855 19.66 43.715 25.26 2.217.75 4.485 1.503 6.81 1.765-.541 22.382-2.841 44.734-6.301 66.845-3.045 19.649-7.48 39.345-16.274 57.301-3.785 8.127-8.118 15.96-12.892 23.537-5.335 6.573-9.731 16.507-16.194 20.058-16.556 4.552-30.105 16.078-39.007 30.472-3.92 7.047-6.937 14.665-8.738 22.536-.959 3.775-.854 8.95-3.787 11.096-25.074 16.917-43.687 41.85-56.225 69.05-5.862 12.996-9.907 27.078-9.582 41.438-.055 6.997-.227 14.075 1.176 20.974.701 2.956 1.54 5.909 1.335 8.97-2.212 5.549-8.617 7.69-11.935 12.728-15.865 17.355-24.302 41.078-21.09 64.501 3.602 19.853 15.864 37.194 31.676 49.34 27.825 21.833 62.049 33.107 95.699 42.123 55.78 12.596 113.276 17.07 170.373 17.031 55.964 1.053 112.106-6.291 166.766-16.5-67.842 36.325-139.782 64.495-212.315 89.825-18.047 6.941-36.51 12.67-54.82 18.875-13.888 4.32-27.527 9.731-41.656 13.18-4.715.363-10.531-3.388-15.918-4.443-35.216-11.609-69.896-24.914-105.291-35.937v488h-183zm8 305.25c1.352 3.608 4.829 7.828 6.5 10.5 74.744-17.738 147.491-43.499 215.84-78.681 32.803-17.415 65.434-35.419 95.599-57.215 15.494-10.643 30.566-21.921 44.955-34.019 6.717-6.184 13.567-14.816 25.023-12.307 9.792 1.174 20.363-2.452 26.083-10.778-47.151-32.008-98.24-59.003-145.5-91h-1.5c-14.077 28.53-34.02 54.224-52.951 79.678-60.166 75.25-131.027 143.579-214.049 193.322zm218.2-1078.061c-.039 8.366 5.104 12.723 11.135 16.135 5.64 3.633 11.296 7.242 17.386 10.085 30.958 14.81 64.64 23.447 98.543 28.176 62.4 8.473 126.06 8.28 188.356-.983 22.186-3.353 44.103-8.702 65.305-16.037 17.577-6.546 34.976-14.215 49.957-25.671 7.09-6.832 5.798-16.68.3-23.075-13.75-14.33-28.59 3.669-41.013 8.35-53.3 25.853-114.032 27.34-171.87 29.553-57.408-2.136-117.645-3.594-170.721-28.695-10.874-4.46-21.838-14.821-32.237-14.534-8.117.722-15.121 8.345-15.141 16.696m10.902 108.822c-.226 12.844 12.915 17.548 21.575 20.799 25.732 10.749 53 17.107 80.26 22.414 20.756 3.587 41.65 6.328 62.682 7.535 7.692.343 16.107 2.22 23.313-1.616 6.036-2.974 10-9.837 8.577-16.584-3.452-14.554-18.815-13.347-29.095-14.614-36.434-2.777-72.697-8.689-107.703-19.271-7.631-2.129-15.014-4.988-22.442-7.695-7.346-2.626-14.653-6.824-22.753-6.098-7.953.021-14.758 6.912-14.414 15.13m56.963-221.489c-.31 10.412 10.221 15.206 17.724 16.925 49.693 14.076 101.656 14.896 152.791 14.303 25.264-.325 50.588-2.497 75.591-6.037 12.181-1.937 24.215-4.688 36.028-8.173 5.488-1.438 12.123-4.224 15.238-8.662 4.071-4.696 2.417-13.616.23-17.568-7.55-12.84-20.193-7.27-31.323-5.33-82.336 19.09-168.006 13.241-249.943-2.83-10.147.316-16.594 7.858-16.336 17.372M1371 2208h208v-258h-208zm12.039-1186.756c-.745 13.735 9.828 16.555 20.146 19.656 36.899 12.126 75.968 19.686 114.994 16.446 19.764-1.379 39.188-5.716 58.337-10.488 9.174-2.553 18.338-5.139 27.316-8.318 10.698-2.576 15.04-11.953 12.687-21.517-2.755-10.553-13.792-14.088-22.517-10.434-31.358 12.021-65.09 17.807-98.664 17.24-16.906-.854-33.935-1.909-50.462-5.857-8.128-1.739-16.22-3.658-24.131-6.217-7.331-1.718-15.496-6.341-22.464-6.563-8.505.044-15.76 7.303-15.242 16.052m42.455-166.86c0 14.916 16.564 23.01 26.918 13.555 7.835-7.155 7.683-19.165 13.832-27.348 6.115-9.931 17.067-14.96 27.472-18.88 8.622-2.273 15.532-9.956 14.153-19.239-1.463-16.17-17.41-16.235-28.465-11.767-12.224 3.887-23.433 10.88-32.5 19.902-11.747 11.666-18.838 27.49-21.41 43.777M1560 2281.47c50.435 32.892 99.019 69.718 141.619 112.527 33.787 30.902 63.354 66.564 89.676 103.934 4.634 6.97 8.549 15.59 17.214 17.745 15.714 5.557 36.417 7.75 51.208 2.577 28.468-8.5 44.98-38.283 44.178-66.716-2.127-43.506-30.795-80.9-65.604-104.802-34.029-24.262-73.548-39.896-113.529-51.241-51.29-13.494-104.434-19.41-157.37-20.493H1565c-.454 2.944-3.474 4.223-5 6.469m110-644.031c.342.41.631.299 1 .062-.32-.203-.644-.43-1-.062" style="fill:#000;fill-rule:evenodd;stroke:none"/></svg>