<svg xmlns="http://www.w3.org/2000/svg" width="3000" height="3000"><path d="M1140 1206v26c-15.484 4.905-24.66 24.572-24.943 38.253-.736 9.533-.183 19.368 4.984 27.745 3.994 7.587 9.811 14.034 16.397 19.426 3.782 3.25 1.462 8.074.502 11.804a1928 1928 0 0 0-42.52 191.243c-5.319 31.846-9.87 63.891-11.386 96.164 0 8.407-1.478 16.89-.407 25.263.714 6.172 1.793 13.034 6.703 17.47 7.214 6.118 18.81 4.066 25.061-2.297 7.612-6.016 8.728-13.828 13.109-21.071 3.043 12.3 10.464 25.08 22.59 30.401 12.976 5.15 28.922 1.088 37.624-9.854 4.484-5.662 8.446-12.207 9.286-19.547h2c2.701 12.963 15.384 30.035 32.105 25.165 12.926-4.964 11.793-20.942 11.895-30.857.063-16.07-1.655-32.065-3.006-48.038-6.891-55.29-16.677-110.782-29.994-164.77 56.66 36.54 119.209 67.095 185.999 80.727 106.041 23.052 219.872 12.586 319.056-32.19 46.467-20.222 88.636-49.015 126.134-82.875 6.765-4.86 6.365-11.56 5.811-18.613V1214c52.873-28.035 104.296-59.551 156.886-88.25 26.072-14.897 52.275-29.607 78.393-44.418 3.339-2.008 7.5-4.068 10.419-6.134 2.894-2.423 2.21-7.675 2.302-10.484V984c-50.325-27.155-99.15-57.693-149.11-85.628-43.55-24.876-86.727-50.38-130.25-75.295-75.565-43.935-151.37-87.436-226.949-131.323-28.54-16.573-57.11-33.177-85.777-49.486-4.24-1.922-7.48.738-10.954 2.84-49.158 28.26-98.06 56.968-147.269 85.138-73.282 42.695-146.953 84.747-220.24 127.422C1051.047 899.181 978.696 943.188 905 984v46.504c.528 13.375-.646 26.88.355 40.223.145 4.726 8.744 6.48 11.331 9.113 65.179 36.896 130.206 74.052 195.32 111.058 9.326 4.29 19.185 11.834 27.994 15.102m-.5-36c.792-2.768.288-6.633.749-9.995.464-2.628.258-5.248.257-7.866-4.75-5.595-12.088-7.055-17.941-11.504C1058.485 1105.016 995.5 1066.65 931 1032c.527 6.166-.872 12.934 1.032 18.859 13.595 9.778 29.33 16.44 43.403 25.506 54.59 31.345 109.52 62.235 164.065 93.635M952 1005.707c31.907 19.777 66.5 37.416 98.87 56.922a4789 4789 0 0 0 50.133 28.499c16.957 8.624 32.676 20.086 49.997 27.872 5.593-12.148 20.416-20.752 29.986-27.353 38.31-24.496 77.022-48.341 115.321-72.845 39.249-23.563 77.216-49.818 116.693-72.802-1.187-14.723 3.648-30.287 16.389-39.131 18.592-17.26 44.632-26.072 69.775-23.44 17.748 2.405 36.211 14.665 39.093 33.702 2.899 14.64-3.561 29.215-14.627 38.74-13.857 14.438-36.853 24.343-55.03 25.458-5.583.748-11.203.183-16.743-.59-3.709-.508-8.001-2.489-12.096-.152-9.284 5.137-17.57 11.885-26.881 16.979-36.81 23.71-73.849 47.037-110.62 70.784-18.424 11.844-37.015 23.401-55.351 35.361-9.33 5.97-18.6 11.992-27.929 17.962-9.033 6.19-19.23 13.399-22.98 24.327 51.066 27.442 100.913 57.754 151.687 85.84 50.23 28.754 100.577 57.47 150.813 86.16 45.525-26.017 91.444-51.812 137.102-77.684 68.672-38.678 137.183-77.651 205.788-116.424 34.36-19.395 68.662-38.918 103.045-58.257 34.159-19.12 68.24-39.029 102.565-57.635v-2c-46.016-25.424-91.263-53.178-137.116-79.077-68.386-39.767-136.936-79.202-205.276-119.032-68.348-39.618-136.81-79.254-205.108-118.891-45.394 26.488-91.14 52.676-136.616 79.077-68.517 39.548-136.918 79.262-205.429 118.797C1088.675 925.57 1021.085 967.037 952 1005zM1544 2517c-.079-5.42-7.233-7.946-10.727-10.834-4.48-2.866-8.846-5.947-13.3-8.845a86814 86814 0 0 0-86.147-57.43c-10.889-7.178-21.662-14.548-32.565-21.696-5.96-4.354-9.724 2.12-13.508 5.516-31.399 28.375-67.065 51.405-103.437 72.753-37.637 21.617-76.745 40.675-116.526 57.99-36.459 16.538-74.982 27.9-112.79 40.546.03 3.943 1.395 8.433 2.463 11.83 1.712 3.633 8.798.715 11.648 1.368 66.703-1.407 133.107-9.1 198.815-20.329 47.432-8.824 94.907-18.844 140.81-33.94 22.78-7.089 44.887-16.047 66.447-26.196 5.332-3.157 11.165-1.458 17.029-.568 9.462.705 19.044 1.459 28.469-.04 4.346-.839 9.38-2.318 13.053-4.022 3.728-1.104 7.373-5.088 10.266-6.103m-463-422c27.052.462 54.46.419 80.622-7.463 11.28-3.777 23.716-10.54 32.627-16.773 4.782-3.324 10.387-8.073 9.75-15.535.002-7.078 0-14.163.001-21.229h8v437c20.42.397 40.947.696 61.07-3.34 16.167-3.162 31.871-8.418 47.12-14.543 11.977-5.511 26.939-12.24 35.117-21.525 3.805-5.152-2.48-13.825 2.574-17.979 52.693-1.748 105.73.318 158.493-.613 52.455.76 105.278-.926 157.626.5-.376 11.015.376 23.228 0 34.5 22.611.333 45.399.933 67.655-3.83 15.479-3.466 30.879-7.456 46.003-12.225 10.99-4.028 22.873-7.147 32.45-14.176 3.067-2.954 1.3-9.347 1.892-13.867V2127c7.164-1.456 14.176-3.65 20.553-7.325 5.776-3.424 14.158-8.232 14.447-14.675-42.13-30.067-83.037-63.179-125.043-93.691-4.482-3.93-8.33 1.65-11.56 4.793-12.98 14.293-26.969 27.63-39.527 42.291-2.924 3.32-6.162 6.32-9.24 9.477-3.228 2.537-6.043 7.277-9.016 8.376-17.8 2.093-36.07-.334-53.96.754h-188.807c-15.805-.01-31.575.013-47.365-.007-10.463-.333-19.84-6.285-29.681-9.205-29.341-10.888-58.486-22.376-87.801-33.288 42.48-1.426 85.125.26 127.633-.5 42.396.76 85.052-.926 127.367.5-10.034 3.993-19.814 8.966-30 12.5.015 5.281 3.524 9.817 4 15 9.853-.132 19.444-3.162 29.068-4.928 35.464-7.54 70.668-17.073 104.746-29.512 24.798-8.724 49.09-18.907 72.552-30.737 4.48-2.385 9.193-4.39 13.513-7.067 3.353-1.899 8.179-5.19 12.42-3.307 51.217 43.384 111.77 75.849 174.701 98.551 6.073-28.907 17.25-57.533 36.135-80.584 13.641-16.863 32.213-30.097 52.596-37.496 3.502-1.646 9.675-2.076 9.919-6.376.605-2.83.785-10.073-2.586-10.152-29.055-5.328-58.477-9.095-87.224-16.113-28.598-7.298-58.498-12.58-85.84-23.779 41.494-40.598 76.377-88.921 99-142.5 9.586-.26 21.026-3.281 28.637-7.73 3.524-2.17 9.316-5.92 7.444-10.054-2.824-3.584-6.73-6.2-10.116-9.24-9.03-7.623-18.07-15.244-27.148-22.8-16.053-13.834-32.489-27.217-48.58-40.992-8.43-6.568-16.224-13.894-24.588-20.512-5.463-3.501-9.724 3.211-13.251 6.43l-11.268 11.268c-12.4 11.746-24.973 23.295-36.732 35.732-4.848 5.502-11.14 11.072-20.085 9.898h-214.2c-6.56-.51-15.386 1.362-20.022-2.61-15.715-13.726-32.57-26.094-49.332-38.481-8.544-6.109-16.86-12.541-25.285-18.803-4.15-3.111-8.344-6.162-12.435-9.334-4.026-2.763-7.813-6.883-13.039-6.772-17.305 23.406-37.992 45.306-56.138 68.29-4.24 4.224-12.279 2.09-17.608 2.71h-71.979c-18.012-.021-35.986.026-53.99-.014-12.53-.705-23.646-8.21-35.6-11.313-17.806-6.918-35.781-13.367-53.664-20.066-8.933-3.212-17.784-6.637-26.66-9.977-8.606-2.314-18.068-8.14-26.361-8.63zm104-774.734c3.305 10.234 5.485 20.993 8.826 31.242 1.432 3.724 6.173 6.139 9.377 9.308 53.247 42.807 115.24 75.063 181.57 92.263 91.859 24.972 191.913 21.042 281.384-11.638 42.5-14.852 82.057-37.018 117.68-64.399 4.602-3.325 8.649-7.338 13.023-10.926 3.838-3.21 8.897-6.872 9.044-11.332-.486-38.866.876-78-.404-116.784-50.373 29.074-101.408 57.198-151.89 86.108-37.981 21.417-75.89 42.943-113.813 64.45-7.337 4-14.587 8.141-21.803 12.34-3.331 1.778-6.533 3.752-9.854 5.538-3.012 1.072-6.502 4.59-9.4 3.822-50.251-26.881-99.23-56.526-149.1-84.177-49.751-28.274-99.611-56.461-149.14-85.081-.235.488-.42.967-.5 1.5 10.415 11.23 11.975 30.799 10.014 43.792-2.066 14.668-11.12 28.119-25.014 33.708zM1498.5 1375c46.936-27.627 94.937-53.71 142.187-80.84 71.33-40.272 142.544-80.762 213.864-121.037 35.522-20.081 71.01-40.21 106.53-60.291 17.783-10.304 35.744-20.213 53.52-30.515 9.068-4.678 17.717-10.143 26.678-14.985 3.985-3.108 10.893-4.566 12.253-9.001.985-5.708.107-11.585.468-17.331-36.556 18.99-71.748 41.102-108.085 60.623-63.102 36.075-126.573 71.51-189.689 107.55-47.426 26.74-94.757 53.633-142.126 80.469-35.58 20.255-71.297 40.271-106.87 60.528-3.166 1.926-6.982 4.136-10.854 3.126-51.855-27.93-102.292-58.772-153.92-87.17-51.288-28.63-101.94-59.125-153.456-87.126.637 5.747-.997 13.655-.31 18.263 6.592 5.876 15.85 8.797 23.086 13.912 7.372 4.309 14.898 8.359 22.23 12.723 44.092 25.255 88.272 50.336 132.429 75.467 43.85 25.464 88.461 49.796 132.065 75.635M1204 1798h53v-53h-53zm0 99h198v-69h-198zm0 107h53v-77h-53zm152.5 276h307.061c3.024-.455 8.168.799 9.802-1.825 1.854-23.828-.368-49.034.637-72.675-52.882-1.426-106.269.26-159.246-.5H1375c-5.933.37-14.332-.702-19.001 1 .759 24.567-.925 49.56.5 74m0 105h308.261c2.902-.09 8.639.372 8.798-3.029 1.29-24.121-.261-49.621.441-73.471-52.882-1.426-106.269.26-159.246-.5H1375c-5.933.37-14.332-.702-19.001 1 .76 25.237-.926 50.88.5 76m1.5-208h289.2c7.856-.328 17.185.468 24.331-.422 2.653-.566 2.143-5.247 2.467-7.173.006-20.813-.001-41.605.002-62.405h-316zm12-379c6.222-.08 12.417.1 18.626-.06 5.512-.194 8.877-5.144 12.607-8.673 13.709-13.382 25.757-28.597 40.499-40.933 2.57-2.78 7.192 1.926 9.247 3.136 21.361 15.566 42.291 31.705 63.653 47.262 9.626 8.363 23.112 15.888 31.275 24.28 2.322 2.599-3.314 5.903-4.617 7.256-7.599 5.715-16.762 9.787-26.29 10.732-.339 25.381.414 50.8-.223 76.161-.043 5.56-8.936 7.97-12.531 10.106-15.642 7.421-32.717 10.804-49.246 15.233 32.14 23.596 64.238 47.525 94.5 73.5 42.376-23.924 83.148-51.816 116.5-87.667-37.892-53.018-61.54-115.131-76-178.333h-64c-.473-2.357-1.552-5.026-2.5-7-4.858 3.06-12.488 1.33-17.782 2H1370zm0 206c6.944 1.11 10.8-2.352 14.136-7.584a3511 3511 0 0 0 32-38.61c2.61-4.305 8.55-8.815 9.864-12.806h-24v-18h-32zm150 444c-.33 2.925-1.312 5.678-1.85 8.564-.241 1.703-1.298 3.486-.01 5.376 5.647 2.592 11.894 3.96 17.836 5.775 44.387 13.688 88.57 29.512 129.4 51.936 29.379 15.544 57.766 32.924 85.142 51.747 10.056 7.29 19.856 14.984 30.666 21.133 21.092 11.975 46.135 15.262 69.925 11.626 16.817-2.625 33.568-8.128 47.603-18.02 9.977-6.965 18.495-16.802 22.468-28.463 5.037-18.758-4.816-38.432-20.12-49.21-14.46-11.443-31.53-18.904-48.532-25.64-51.35-18.166-106.097-24.145-159.908-29.666-57.418-4.77-115.028-5.547-172.62-5.158m91-697.5c22.07 47.78 60.198 86.795 104.5 114.5 22.301-35.82 42.04-74.17 53.5-115h-158z" style="fill:#fff;fill-rule:evenodd;stroke:none"/><path d="M364 2760.5v1.5h2272v-1.5c-68.931-409.09-136.257-818.54-204.874-1227.691-51.076-306.848-102.33-613.661-153.4-920.497-4.868-28.824-9.564-57.688-14.431-86.508-1.116-7.008-2.365-13.985-3.488-20.978-1.2-6.774-.246-15.245-9.425-16.859-109.868-36.632-219.702-73.24-329.563-109.867-95.996-32.013-192.02-63.992-288-96-41.993-13.978-83.98-28.011-125.966-41.994-5.663-2.605-10.407-1.693-15.513.621-156.173 52.06-312.354 104.114-468.521 156.173-58.68 19.531-117.334 39.097-175.992 58.657-25.668 8.506-51.298 17.139-76.962 25.643-6.176 2.075-12.369 4.11-18.537 6.195-3.02 1.124-6.483 1.813-8.8 4.255-62.934 375.423-125.132 751.075-187.889 1126.544C490.857 1998.664 428.048 2380.37 364 2760.5M1141 1205v28c-15.481 4.898-24.656 24.57-24.942 38.245-2.125 21.846 10.041 35.595 24.214 48.064-16.294 64.849-33.62 130.693-44.023 197.116-5.416 33.405-10.654 66.953-12.17 100.791.802 11.723-5.828 38.132 12.095 44.31 18.985 3.652 26.578-18.603 31.326-31.526 2.324 12.514 7.977 25.58 18.987 32.95 11.184 7.413 27.44 5.273 36.966-3.937 8.103-7.218 12.21-17.637 14.047-28.013 4.646 10.566 8.214 24.292 20.41 29.4 6.11 3.025 14.132 1.717 18.532-3.582 4.238-4.855 5.433-12.68 5.54-18.31-.022-12.78-.361-25.598-1.671-38.314-3.54-40.668-10.584-81.068-18.21-121.139-4.693-21.081-8.222-42.858-14.101-63.555 27.79 17.644 56.541 35.797 87.183 48.772 56.94 26.059 118.297 41.08 180.683 45.359 94.26 4.162 190.168-14.42 273.025-60.889 18.69-10.787 37.241-21.874 54.45-34.959 13.365-10.007 25.867-21.083 38.408-32.065 5.841-4.858 4.006-12.812 4.251-18.966V1213c52.704-27.964 103.963-59.347 156.398-87.955 25.972-14.841 52.024-29.5 78.039-44.246 3.495-1.987 7.055-3.85 10.458-5.98 5.135-4.178 2.11-14.392 3.105-21.287V985c-50.325-27.155-99.15-57.693-149.11-85.628-43.55-24.876-86.727-50.38-130.25-75.295-75.565-43.935-151.37-87.436-226.949-131.323-28.515-16.479-56.973-33.198-85.638-49.356-3.12-1.594-6.581 1.443-9.362 2.848-49.05 28.255-97.898 56.841-147 85-73.282 42.695-146.953 84.747-220.24 127.422C1052.047 900.181 979.696 944.188 906 985v45.107c.593 13.295-.728 26.695.404 39.946.348 4.32 8.374 6.088 10.843 8.54 63.689 36.085 127.21 72.42 190.89 108.495 10.047 4.659 21.67 13.455 32.863 17.912m0-33c-.037-3.918.06-7.837.35-11.736-.214-3.112 1.109-6.571-.268-10.002-16.732-11.352-35.322-19.987-52.517-30.627-52.72-30.425-106.044-59.948-158.565-90.635 1.036 7.517-1.496 17.36 1.38 23.187 16.76 11.375 35.474 19.919 52.626 30.71 52.523 29.2 104.365 60.309 156.994 89.103m-191-166.479c1.697 3.63 8.212 4.804 11.609 7.828 62.907 35.957 126.03 71.671 188.891 107.651 15.238-22.534 41.861-33.2 63.215-48.46 33.252-20.831 66.366-41.824 99.58-62.704 33.777-20.435 66.677-43.003 100.705-62.836-3.422-31.485 27.164-50.608 50.43-58.898 20.25-7.065 45.683-6.446 61.798 9.64 11.777 10.56 15.135 29.219 7.336 43.1-11.632 20.422-34.117 33.056-56.314 38.335-5.903.958-13.046 1.602-18.5 1.161-4.628-.229-9.135-1.038-13.582-2.274-5.269-1.329-11.013 5.199-16.242 7.648-5.05 3.304-10.304 6.249-15.205 9.781-37.466 23.706-74.77 47.663-112.063 71.63-18.737 11.927-37.51 23.769-56.148 35.85-9.543 5.995-18.89 12.284-28.41 18.3-8.973 6.374-21.295 15.374-22.1 25.727 51.22 27.522 101.193 57.944 152.137 86.088 50.225 29.315 101.395 57.23 151.363 86.912 45.29-26.999 92.006-52.016 137.685-78.428 68.941-38.914 137.791-77.957 206.68-116.95 69.356-38.22 137.522-78.99 207.135-116.622v-2c-46.71-25.475-92.228-53.78-138.688-79.842-68.725-39.866-137.507-79.603-206.18-119.537-68.35-40.129-137.608-79.03-205.632-119.621-45.218 27.598-92.053 52.97-137.616 80.077-68.812 39.702-137.51 79.61-206.32 119.288C1086.997 925.788 1018.713 965.904 950 1005zM1543 2516c-.944-3.077-5.41-4.84-8.172-7.104-46.227-30.344-91.972-61.897-138.328-91.896-22.214 22.8-48.783 40.696-75.04 58.343-40.54 26.349-83.572 48.687-127.338 69.104-22.01 10.17-44.549 19.103-67.19 27.714-23.078 9.541-47.41 15.754-70.932 23.839.516 3.518 1.528 7.006 2.683 10.351 2.107 2.912 8.326-.156 11.118.711 107.062-2.695 213.876-19.252 317.075-47.596 26.453-7.466 52.303-17.053 77.424-28.148 5.602-2.288 13.162-7.112 18.379-6.742 20.211 4.587 43.201 4.153 60.321-8.576m-461-422c26.736.531 53.805.2 79.61-7.77 11.055-3.89 23.302-10.486 32.017-16.745 4.941-3.331 10.214-8.296 9.373-15.825V2033h10v437c28.932 1.107 58.159-.365 85.672-10.339 12.939-3.726 25.185-9.477 37.116-15.601 5.863-2.896 11.25-6.586 16.173-10.862 5.98-5.065 4.91-12.271 5.039-19.198h318v33c22.322.43 44.825.871 66.77-4.047 15.255-3.518 30.434-7.384 45.352-12.159 10.83-3.983 22.57-7.063 31.985-14.025 3.068-2.954 1.301-9.347 1.893-13.867V2126c12.783-3.077 29.612-9.397 35-20-42.739-31.097-85.24-63.998-127.5-96-14.297 14.052-27.178 29.42-41.468 43.477-5.764 6.623-11.659 13.095-18.07 19.116-5.153 7.418-16.49 5.158-24.544 5.407h-263.133c-6.466-.122-13.171.622-19.396-1.559-37.65-14.273-75.293-28.56-112.889-42.941 44.163-1.426 88.601.26 132.82-.5 44.342.76 88.923-.926 133.18.5-11.2 5.028-22.54 10.168-34 14.5.837 4.446 3.646 8.42 4 13 74.779-12.339 148.258-36.144 215.651-70.932 3.828-1.995 8.12-4.998 12.024-5.956 3.68-1.957 7.648 4.99 10.406 6.141 48.839 41.8 107.549 69.566 166.419 93.747 6.644-26.036 15.218-52.177 31.504-74.031 11.197-15.73 28.803-30.885 44.888-38.423 6.36-4.055 16.48-6.401 21.814-9.455 1.845-2.478 1.289-7.759.327-9.853-5.759-2.614-12.1-2.088-18.342-3.64-44.569-6.937-88.71-16.363-132.092-28.705-8.922-2.548-17.895-5.274-26.599-8.393 42.292-41.124 78.19-89.893 101-144.5 13.184-.644 30.792-5.434 37-15.5-18.834-16.622-38.5-32.32-57.57-48.665-9.464-8.274-19.34-16.04-28.795-24.326-4.882-3.926-9.624-8.004-14.44-12-4.484-3.277-8.997-8.71-13.86-10.509-12.27 13.53-26.047 25.506-39.068 38.233-5.75 5.747-11.493 11.496-17.242 17.241-2.764 2.74-5.746 5.246-8.826 7.608-3.26 2.48-7.573 1.805-11.486 1.918h-214.2c-6.411-.465-14.547.98-20.077-1.547-15.785-13.738-32.678-26.132-49.407-38.664-8.49-5.887-16.59-12.298-24.905-18.416-4.122-3.156-8.278-6.235-12.434-9.332-3.9-2.548-8.735-7.475-12.69-8.041-7.934 12.271-19.457 22.868-28.158 34.776a4800 4800 0 0 1-25 30c-2.105 1.985-3.639 5.379-6.353 5.75-25.057 1.35-50.322-.245-75.417.474h-56.984c-6.645-.148-13.664.744-19.957-1.941-43.545-15.443-86.464-33.16-130.131-48.059zm102-862.283c28.691 13.318 34.945 58.334 11.563 80.105-4.563 4.156-13.765 5.965-10.053 14.39a639 639 0 0 0 5.424 19.508c.527 2.879 1.82 6.735 2.61 8.949 37.402 32.156 80.453 58.54 126.214 77.231 73.476 31.602 154.71 44.062 234.156 36.046 76.336-7.688 151.318-33.459 214.342-77.636 10.717-7.468 20.943-15.545 30.769-24.124 3.71-3.106 8.521-6.409 7.962-12.172-.721-39.279.918-78.817-.487-118.014-51.23 29.06-102.608 58.11-153.89 87.108-50.957 29.068-102.32 57.57-153.11 86.892-52.218-30.206-104.99-59.814-157.44-89.676-52.879-29.288-104.882-60.79-158.06-89.324zM2055 1039c-72.78 39.785-144.762 81.828-217.184 122.426-54.36 30.615-108.576 61.49-162.89 92.183-40.608 22.761-80.881 46.104-121.54 68.762a6845 6845 0 0 0-46.286 26.27c-3.117 1.626-7.252 4.74-10.35 3.353-51.862-28.17-102.476-58.86-154.185-87.36-50.783-29.594-102.399-57.906-153.065-87.634-2.405 3.62-.82 10.029-2.291 14.894-.163 2.527-.239 6.053 1.608 7.716 2.017 1.078 3.856 2.56 5.944 3.554 79.317 44.77 158.198 90.34 237.424 135.264 13.375 7.41 26.469 15.267 39.818 22.7 6.205 3.636 12.435 7.167 18.685 10.714 2.786 1.15 6.232 4.45 9.002 3.286 47.969-26.07 95.07-54.117 142.919-80.477 71.676-40.37 143.109-81.176 214.758-121.574 35.585-20.282 71.329-40.295 106.905-60.571 17.88-9.956 35.587-20.157 53.35-30.292 9.112-4.805 17.816-10.38 26.97-15.113 4.084-2.481 10.44-4.459 10.35-10.583.154-5.836-.018-11.692.058-17.518m-852 760h55v-55h-55zm0 99h200v-71h-200zm0 107h55v-79h-55zm154 173h292.8c7.634-.554 17.165.874 23.954-.96 2.511-5.792.396-11.767 1.246-17.908V2106h-318zm0 103h307.2c3.197-.353 7.644.606 9.9-1.307 2.266-12.112-.166-24.946.9-37.22V2206h-318zm0 105h309c2.828-.077 8.409.311 8.546-3.003 1.295-24.58-.236-49.377.454-73.997h-318zm12-587h13.8c3.424-.428 9.082.773 11.436-1.293 17.955-15.058 31.752-35.35 50.264-49.707 33.139 26.336 68.496 50.003 101.5 76.5-8.661 8.25-19.993 14.25-32 15.5-.716 25.909.873 51.97-.471 77.833-2.55 4.718-9.713 7.103-14.303 9.261-15.752 6.707-32.53 11.086-49.226 14.406 31.49 25.993 67.44 47.737 96.5 76.5 43.86-23.871 85.013-53.177 119.5-89.5-38.787-53.129-62.235-115.887-77-179.5h-64c-.434-2.407-1.56-4.597-2-7-12.395 2.704-25.176 1.963-37.814 2H1369zm0 206c3.694-.018 8.32.415 11.016-1.86 16.175-18.173 31.068-37.58 46.875-56.085.64-.91 1.371-1.736 2.109-2.555-8.47-1.319-17.428.152-26-.5v-18h-34zm149 455.625c16.65 6.259 34.471 9.866 51.145 16.268 61.543 20.171 119.206 50.476 172.581 86.94 19.575 13.106 37.576 29.853 60.932 36.189 21.589 6.74 49.05 4.446 68.473-1.735 17.506-5.825 34.51-15.788 44.485-31.796 9.284-13.995 6.553-32.563-3.706-45.271-17.337-21.527-49.169-33.311-72.051-41.429-88.48-25.808-181.526-29.148-272.958-30.791H1521c-.43 4.058-2.064 8.76-3 11.625m91-711.125c21.964 49.442 61.56 88.63 106.5 117.5 24.512-35.585 41.487-75.892 55.5-116.5-4.755-3.077-13.173-.423-19.495-1.5H1609z" style="fill:#000;fill-rule:evenodd;stroke:none"/></svg>