<svg xmlns="http://www.w3.org/2000/svg" width="3000" height="3000"><path d="M364 2760.5v1.5h2272v-1.5c-68.931-409.09-136.257-818.54-204.874-1227.691-51.076-306.848-102.33-613.661-153.4-920.497-4.868-28.824-9.564-57.688-14.431-86.508-1.116-7.008-2.365-13.985-3.488-20.978-1.2-6.774-.246-15.245-9.425-16.859-109.868-36.632-219.702-73.24-329.563-109.867-95.996-32.013-192.02-63.992-288-96-41.993-13.978-83.98-28.011-125.966-41.994-5.663-2.605-10.407-1.693-15.513.621-156.173 52.06-312.354 104.114-468.521 156.173-58.68 19.531-117.334 39.097-175.992 58.657-25.668 8.506-51.298 17.139-76.962 25.643-6.176 2.075-12.369 4.11-18.537 6.195-3.02 1.124-6.483 1.813-8.8 4.255-62.934 375.423-125.132 751.075-187.889 1126.544C490.857 1998.664 428.048 2380.37 364 2760.5m664-663.5c4.183-8.108 11.286-12.336 15.72-19.627 42.139-50.559 71.858-110.288 90.408-173.247 31.369-101.412 35.547-208.58 38.175-313.755 1.444-112.445.183-224.925.697-337.371h213v138h-2.5c-13.488-15.174-26.154-31.085-41-45-3.822 6.495-7.794 12.986-11.524 19.559-2.169 3.47-4.135 7.042-6.304 10.502-1.97 3.263-3.607 7.692-7.672 7.939v-74c10.31-.722 21.464-7.488 24-18-36.637-3.635-73.334-7.67-110-11v113c-16.937.718-34.144-.885-51 .5 2.591 5.026 2.313 11.233 4.513 16.464.892 3.558 1.251 8.741 6.113 8.877 13.456.453 26.924-.082 40.374.159v98c-17.597.721-35.489-.888-53 .5 3.283 8.391 4.185 17.887 7 26.5h46v88c13.27.004 26.74.738 39.779-2.268 9.048-1.626 17.833-4.48 26.325-7.976 6.236-2.699 12.912-5.112 17.865-10.015 3.229-3.755 1.452-11.152 2.031-15.884V1545c23.012-.001 46.02.335 69-1v397.2c-.614 9.89 1.914 23.25-7.246 28.288-6.428 2.58-16.09.982-24.101 1.408-23.592-.937-47.107-2.714-70.653-3.896v13c12.2 2.124 26.412 6.138 36.734 10.895 17.171 8.198 29.415 24.315 35.335 42.033 3.123 9.821 4.846 20.027 6.17 30.213 2.654 9.377.23 21.518 3.261 29.859 24.877-4.09 51.13-6.157 74.468-17.057 22.511-9.827 41.922-30.006 46.032-54.943 5.574.778 10.403 7.884 16.749 9.824 21.88 10.674 51.786 4.644 65.216-16.294 13.52-20.014 18.645-48.778 19.988-70.383 4.022-42.759-8.027-84.757-19.953-125.147l-14-1c.76 25.675-5.797 51.08-17.018 74.073-5.127 11.187-11.018 22.048-17.681 32.418-3.373 5.052-7.053 9.92-11.238 14.325-4.606 3.822-8.721 8.147-13.063 12.184h-2v-660.6c.119-5.786-.151-11.594.097-17.366-.062-4.727 4.192-5.547 7.636-6.141 10.467-3.251 20.619-8.393 28.267-16.393-34.537-26.646-68.699-54.342-103.5-80.5-10.485 10.856-19.496 23.02-29.753 34.08-4.045 5.076-8.6 9.7-12.631 14.78-1.777 2.535-4.088 4.602-6.577 6.384-13.443 2.005-27.517-.241-41.088.756-47.881-.155-95.758.189-143.633-.102-10.67-1.683-20.333-7.572-30.716-10.36-30.826-10.784-61.175-23.1-92.102-33.538-.007 159.83.304 319.67-.89 479.486-.557 76.473-2.148 153.134-10.92 229.162-3.473 36.819-8.753 73.427-16.534 109.58-3.643 17.756-8.228 35.307-13.088 52.758-2.33 8.98-5.494 17.724-8.024 26.64-.647 2.262-1.443 4.473-2.128 6.716-2.435 5.8 5.65 9.375 10.584 10.658m162-133c19.19-.138 39.268-1.32 56.153-11.594 3.724-2.29 8.135-5.24 10.787-8.282 3.727-6.296 1.08-16.147 2.06-23.008V1898h29v39c20.007 1.17 39.833-3.186 57.363-13.184 4.038-2.173 9.006-5.119 11.306-8.78 2.533-6.362.573-15.92 1.331-23.817V1708c6.816-2.021 16.993-5.376 21-10-20.7-17.513-43.888-32.305-64.5-50-8.107 8.84-17.127 16.728-25.87 24.87-5.854 7.627-16.367 9.623-25.187 4.949-24.397-10.405-49.172-20.191-73.443-30.819zm69-93h29v-165h-29zm58-357h2c10.174-14.099 18.14-30.291 27.5-45 13.291 13.226 24.7 28.378 37.5 42h2v-93h-1.5c-10.666 3.248-22.13 1.419-33.088 2H1317zm226 285c24.29.243 48.766.098 72.586-5.21 11.323-3.162 22.65-6.922 32.946-12.707 6.596-3.205 7.26-9.026 6.468-15.119V1747h197a3975 3975 0 0 1-5 69c-4.925-.548-8.448-7.11-12.987-10.168-14.717-11.983-32.163-20.077-50.421-24.937-9.916-3.086-20.14-4.909-30.37-6.542-7.699-1.437-19.343-5.459-24.222 5.647 22.68 12.868 41.737 38.83 55.458 57.715 7.21 11.256 12.892 23.445 17.01 36.12 2.002 7.436 10.228 9.104 16.071 10.816 6.688 1.97 13.666 1.01 20.461.349-.948 18.34-6.736 39.405-10.768 55.653-3.96 11.939-8.354 27.02-16.864 35.422-17.882 14.744-38.918 8.734-59.805 8.57-21.167-1.46-42.384-2.362-63.563-3.645v12c24.04 4.756 48.094 14.404 66.045 31.592 17.853 20.102 16.48 49.48 16.955 74.408 25.64-.849 51.535-3.075 75.727-12.288 16.658-6.499 32.635-15.319 45.889-27.448 19.606-18.96 31.389-44.32 39.073-70.14 8.075-26.877 12.759-54.58 17.14-82.234 4.06-30.401 7.313-60.92 9.366-91.52 1.912-15.789 2.001-31.753 3.089-47.587-.179-4.038 6.144-3.856 8.83-4.585 10.743-2.776 21.995-6.391 29.886-14.698-17.013-13.747-33.566-28.086-50.527-41.895-8.448-7.01-16.843-14.083-25.285-21.084-4.211-3.611-8.571-7.053-12.772-10.659-3.723-2.794-8.311-7.678-12.08-8.862-13.95 14.737-29.194 28.175-43.438 42.602-5.112 5.474-10.523 12.735-19.553 11.398H1655v-76h293.4c13.963-.01 32.812.59 37.776-13.569 1.325-2.845-3.947-5.147-5.13-6.964-17.263-15.264-35.627-29.214-53.828-43.304-6.858-5.247-13.621-10.597-20.584-15.693-3.111-2.158-5.978-4.634-9.095-6.78-2.088-1.874-7.338-4.713-5.495-7.565 5.022-3.589 11.136-5.833 16.222-9.455 6.564-4.001 6.197-10.375 5.734-16.758V1314c13.01-1.041 27.67-7.817 36-16.5-34.252-27.918-70.824-53.1-105.5-80.5-8.788 8.63-17.8 19.957-25.87 27.87-6.247 6.949-13.658 15.003-19.453 21.312-5.575 7.335-13.297 6.083-21.001 5.818H1706c1.02-5.85 10.02-9.308 14.435-14.05 19-14.538 37.705-29.441 56.47-44.275a1744 1744 0 0 1 13.947-11.106c3.622-3.055 8.518-2.882 12.997-3.655 11.641-2.505 27.648-9.747 29.151-24.914-59.88-8.81-119.149-21.981-179-31 .078 40.04-3.441 79.991-4 120-8.044-.4-17.873-5.827-26.819-8.727-26.804-9.818-53.327-20.708-80.181-30.273zm67 23.458c4.888 30.203 6.966 66.771 6.777 94.878-.376 11.973-.857 23.96-2.3 35.852-.427 9.462-5.504 22.13 1.398 28.179 5.697 5.908 12.142 11.723 20.338 13.8 15.305 3.89 31-4.11 39.472-16.813 29.038-41.58 3.817-92.955-20.109-124.559-9.79-12.224-21.334-22.911-32.315-34.034l-.761-.761c-2.959 1.447-8.653 1.761-12.5 3zM1655 1390h148v-92h-148zm0 117h148v-91h-148zm0 110h167c5.728-10.012 15.34-18.103 21.679-27.875 3.772-4.672 7.6-9.294 11.396-13.947 2.996-4.294 8.77-9.576 8.925-14.178-4.929.062-9.514 2.122-14.286 3.055-15.322 3.603-31.053 4.19-46.714 3.945v-35h-148zm15 187.688c24.391 37.193 41.717 81.155 40 126.312 7.231 3.156 12.791 10.502 21.178 11.755 30.446 7.275 49.774-23.835 46.483-50.118-2.488-24.916-22.662-48.774-40.03-62.132-9.733-7.611-20.345-13.989-31.433-19.419-5.995-3.106-12.136-5.819-18.322-8.504-2.98-1.24-6.295-2.776-9.604-1.878-2.79.739-5.664 2.833-8.272 3.296z" style="fill:#fda;fill-rule:evenodd;stroke:none"/><path d="M1014 2091.5c3.895 2.971 9.78 4.931 13.5 7.5 21.924-25.17 42.203-51.806 59.176-80.599 62.702-108.369 80.132-235.82 84.518-358.731 3.044-67.317 2.841-134.743 2.806-202.113V1254h211c-.76 45.246.926 90.876-.5 136-13.768-15.548-26.835-31.732-42-46-9.197 12.165-14.542 27.02-24 39-1.424-23.84.258-48.087-.5-72 9.796-1.018 23.394-7.516 24-20-37.344-3.3-74.615-8.3-112-11v113h-51v1.5c1.608 5.462 2.787 11.038 4.267 16.52 1.195 3.949 1.321 9.594 5.79 9.734 13.422.699 26.894-.125 40.326.246h.617v96h-53v1.5c2.615 9.083 4.554 18.379 7 27.5h46v88c13.569-.194 27.409.884 40.775-2.072 9.225-1.622 18.212-4.343 26.845-7.98 6.27-2.674 12.928-5.077 17.98-9.866 4.038-3.096 1.488-11.937 2.4-16.225V1546c22.336-.17 44.707.504 67-1v396c-.51 9.738 1.737 23.166-7.696 27.701-7.417 2.428-16.994.672-23.981 1.09-23.091-2.186-47.026-.981-69.823-4.791-1.18 5.21.014 10.734-.5 16 12.2 2.124 26.412 6.138 36.734 10.895 17.171 8.198 29.415 24.315 35.335 42.033 3.123 9.821 4.846 20.027 6.17 30.213 2.095 9.536.942 21.146 2.761 29.859 25.878-3.382 52.374-6.19 76.544-16.87 23.464-9.574 41.521-30.355 46.956-55.13 21.129 20.756 63.155 20.7 80.565-5.226 21.15-32.25 22.556-73.215 20.474-110.28-1.77-30.43-11.392-59.448-19.539-88.494-5.674-.344-11.325-.94-17-1 3.979 24.663-7.052 53.488-15.819 73.639-5.1 11.186-10.985 22.001-17.573 32.402-3.457 5.212-7.278 10.209-11.545 14.775-4.224 4.05-8.918 7.615-12.563 12.184-1.426-121.08.26-242.666-.5-363.843v-296.353c.262-5.563-.367-12.149.314-17.22-.188-3.691 6.098-3.866 8.416-5.002 10.649-3.253 20.654-8.916 28.27-17.082-34.85-27.827-70.314-55.103-105.5-82.5-10.626 10.832-19.593 23.13-29.976 34.176-4.25 4.988-8.537 9.916-12.777 14.905-1.933 2.336-3.797 4.859-6.375 6.524-6.54 2.878-13.416.376-20.377 1.395H1202.2c-12.583.809-24.17-4.322-35.705-8.807-32.676-11.956-65.441-24.023-97.996-36.193-1.465 157.265.577 314.853-1.337 472.185-.203 76.011-2.134 152.096-9.986 227.718-6.628 71.532-19.292 143.95-43.177 211.597m175-126.5c19.362-.056 39.655-.93 56.896-10.897 3.958-2.213 8.431-5.228 11.383-8.183 4.758-5.903 1.591-16.419 2.721-23.209V1899h27v39c10.796.242 21.707.567 32.164-2.54 7.355-1.859 14.386-4.783 21.344-7.75 4.98-2.333 9.979-4.783 14.225-8.31 6.663-5.756 3.29-17.864 4.267-25.385V1709c7.438-2.622 18.432-5.262 22-11.5-14.606-11.648-29.756-22.691-44.517-34.139-5.687-4.208-11.33-8.437-16.852-12.855-5.818-6.153-10.812.922-14.364 4.727-6.995 6.208-15.639 15.435-24.168 22.556-8.627 4.193-17.674-1.478-24.822-4.264-22.604-8.559-44.482-19.715-67.277-27.525zm71-95h27v-163h-27zm58.5-357c9.733-14.98 18.219-31.022 28-46 13.192 13.82 25.723 28.38 38 43 1.389-14.881-.222-30.27.5-45.246-.7-15.188.866-30.64-.5-45.754-4.293 2.802-11.104 1.424-15.826 2H1318c.76 30.568-.926 61.549.5 92m223.5 287c24.88.187 50 .29 74.418-5.185 11.222-3.013 22.335-6.847 32.578-12.412 2.752-1.371 4.755-3.668 6.444-6.142 1.277-9.335.03-18.877.56-28.261h195c-2.766 22.174-1.94 44.962-5.5 67-14.516-15.58-33.275-26.813-53.657-32.897-10.865-3.911-22.17-6.2-33.519-8.067-10.076-1.956-23.943-6.54-31.324 4.964 21.838 16.141 40.856 36.237 55.941 58.888 7.295 11.337 13.151 23.565 17.322 36.361 1.756 7.599 9.693 9.682 15.718 11.258 6.85 2.111 14.067 1.59 21.019.493-1.694 18.336-6.287 36.383-10.922 54.136-3.933 11.949-8.445 27.018-17.083 35.297-18.075 14.156-38.847 8.566-59.72 8.003-21.107-.988-42.17-2.61-63.275-3.436v14c24.04 4.756 48.094 14.404 66.045 31.592 17.853 20.102 16.48 49.48 16.955 74.408 25.398-.378 50.827-2.945 74.976-11.214 16.304-6.196 32.29-14.173 45.5-25.76 20.61-17.18 32.037-42.408 40.417-67.178 8.198-26.523 13.831-53.804 17.841-81.252 5.248-31.583 7.644-63.536 10.294-95.39 1.567-16.607 2.477-33.245 3.156-49.904.23-4.715 5.587-4.283 8.93-5.104 11.26-2.783 22.836-6.878 30.886-15.698-17.05-14.219-34.103-28.475-51.194-42.637-8.585-7.05-17.049-14.282-25.618-21.342-8.5-6.245-17.375-15.661-25.688-20.521-14.077 14.63-29.004 28.297-43.475 42.475-5.5 5.216-10.559 12.945-18.88 12.524-60.055.003-120.1 0-180.145.001v-74h258.6c14.428-.199 28.883.253 43.299-.163 11.655-.226 25.845-.995 31.101-16.337-30.64-27.721-64.56-51.536-97-77 6.329-5.06 15.315-6.44 20.719-12.901 2.862-3.252 2.215-7.814 2.281-11.886V1315c7.252-.523 14.38-2.693 20.839-5.933 5.544-3.569 14.343-7.188 16.161-13.067-18.48-12.198-35.863-27.236-53.961-40.228-17.672-13.8-36.018-26.798-53.539-40.772-18.312 17.503-33.332 38.39-52.11 55.362-14.279 1.724-28.961-.235-43.322.638-13.925-.684-28.254.85-42.068-.5 20.923-16.696 42.373-32.844 63.213-49.663 5.4-4.245 10.674-8.65 16.087-12.86 3.891-3.309 7.826-6.969 13.1-7.29 15.868-.642 31.487-10.052 35.6-26.085-2.53-2.12-7.225-1.978-10.899-2.913-28.63-4.762-57.08-10.352-85.702-15.122-14.29-2.59-28.563-5.17-42.867-7.617-14.187-2.122-28.24-5.704-42.532-6.95.078 40.04-3.441 79.991-4 120-36.47-10.162-70.482-29.062-107-39zm67 21c4.332 28.497 6.338 57.307 6.959 86.11.006 21.984-1.872 43.947-5.335 65.635-.657 6.821 7.876 13.227 13.397 17.907 11.046 8.842 29.598 7.767 40.004.953 17.482-11.523 24.631-32.763 25.667-52.703 1.18-20.41-7.409-43.588-15.734-59.884-12.223-22.785-30.045-41.942-49.02-59.208-3.758-3.207-10.794 1.267-15.938 1.19m47-432h146v-90h-146zm0 117h146v-89h-146zm0 110h165c11.79-19.069 30.195-34.924 42-54-19.79 5.852-40.37 8.046-61 7v-35h-146zm12 187.5c24.23 38.113 43.14 82.313 41 128.5 7.507 3.36 13.447 10.957 22.264 12 13.724 3.336 28.18-1.885 36.871-12.791 9.322-10.581 12.029-25.21 10.593-38.827-2.166-25.787-23.316-50.198-41.277-63.742-10.05-7.968-21.358-14.151-32.81-19.815a556 556 0 0 0-18.38-8.303c-6.855-4.321-12.52 1.358-18.261 2.478z" style="fill:#000;fill-rule:evenodd;stroke:none"/></svg>