<svg xmlns="http://www.w3.org/2000/svg" width="3000" height="3000"><path d="M364 2760.5v1.5h2272v-1.5c-68.931-409.09-136.257-818.54-204.874-1227.691-51.076-306.848-102.33-613.661-153.4-920.497-4.868-28.824-9.564-57.688-14.431-86.508-1.116-7.008-2.365-13.985-3.488-20.978-1.2-6.774-.246-15.245-9.425-16.859-109.868-36.632-219.702-73.24-329.563-109.867-95.996-32.013-192.02-63.992-288-96-41.993-13.978-83.98-28.011-125.966-41.994-5.663-2.605-10.407-1.693-15.513.621-156.173 52.06-312.354 104.114-468.521 156.173-58.68 19.531-117.334 39.097-175.992 58.657-25.668 8.506-51.298 17.139-76.962 25.643-6.176 2.075-12.369 4.11-18.537 6.195-3.02 1.124-6.483 1.813-8.8 4.255-62.934 375.423-125.132 751.075-187.889 1126.544C490.857 1998.664 428.048 2380.37 364 2760.5m654-612.783c1.037 2.159 3.019 4.84 4.5 7.283 76.32-23.406 152.43-50.825 222.616-89.638 34.878-18.735 67.777-40.875 99.571-64.385 15.616-11.656 30.432-24.274 45.338-36.791 7.69-6.032 15.521-14.37 22.177-20.323 3.814-3.14 7.14-6.799 10.668-10.233 3.213-2.962 7.253-8.234 11.13-8.63v133c-53.264.76-106.81-.926-160 .5 3.61 7.696 4.049 18.4 7.946 25.24 6.463 2.544 15.972.396 22.789 1.26H1434v140c38.83 1.143 78.162-2.6 114.57-17.23 4.038-1.682 8.923-3.607 12.072-6.175 5.572-5.478 2.263-17.2 3.358-25.529V2085h145.8c14.255.615 34.782.086 37.2-16-28.63-23.758-56.915-50.337-87.5-72-15.18 20.645-33.009 40.016-47.5 61h-48v-102c12.307-.741 30.472-6.9 32-23-52.401-3.355-104.569-10.263-157-13 .015-4.3 3.736-7.013 6.266-10.09 19.52-22.233 37.919-45.405 54.63-69.849 2.113-2.826 4.265-6.554 6.817-8.613 2.215-2.479 7.797-.781 10.544-1.448H1594c14.47 31.663 32.93 61.723 51.673 91.02 29.314 44.291 63.338 85.445 103.276 120.509 38.858 35.722 84.09 64.76 132.051 86.471 4.113-31.634 17.801-61.956 39.394-85.532 10.638-11.89 22.286-22.923 35.132-32.362 6.284-4.654 12.427-9.56 19.22-13.463 2.91-2.15 7.592-3.957 8.79-7.013.404-3.875.844-7.78 1.464-11.63-68.486-8.897-137.476-19.879-202.301-44.887-31.745-10.745-61.877-25.863-90.96-42.281-13.361-8.15-26.944-16.076-38.954-26.224-6.306-5.294-12.84-10.365-18.76-16.083-4.825-6.079-13.94-11.542-15.025-18.525h276.6c11.618-.036 23.234.044 34.836-.024 8.69-.13 18.525-2.331 24.268-9.492.864-1.432 1.973-3.482 1.708-4.97-43.27-39.705-88.633-77.329-134.912-113.514-13.09 16.595-25.402 33.84-38.043 50.773-12.055 17.252-26.371 33.446-37.457 51.227h-221v-2c10.92-21.251 24.066-41.394 32.841-63.747 2.365-5.712 4.926-11.352 7.28-17.064 1.047-1.871 1.931-4.606 3.641-5.512 7.325-1.41 16.109.62 24.376-3.373 7.22-2.528 12.674-7.98 15.862-14.804-2.656-2.138-7.303-2.784-11.075-4.092-60.073-16.733-119.78-35.067-179.925-51.408-14.91 55.835-36.13 109.932-61 162-99.264.76-198.81-.926-298 .5 3.003 7.537 5.734 18.908 7 25.5h275c-.38 4.832-3.85 8.759-5.898 13.006-37.22 64.55-83.307 124.157-137.704 175.096-53.322 50.865-114.109 94.84-179.398 128.898zm3-557.217c1.6 3.987 8.508 5.588 10.454 3.236 9.447-7.197 18.04-15.37 27.011-23.09 45.32-41.084 84.223-89.404 111.47-144.43 45.443-85.966 65.997-183.01 75.22-279.117 9.069-103.69 7.701-207.922 7.845-311.914V732h379v1.5c-3.24 7.142-9.87 12.218-14.023 18.8-9.058 10.936-17.549 22.337-26.727 33.17-3.94 4.812-7.706 9.747-11.66 14.537-3.905 6.549-9.826 6.698-16.333 5.993-100.685.76-201.655-.926-302.257.5 3.658 7.797 4.362 18.716 8.296 25.594 7.413 1.79 15.45.324 23.03.906H1429c-.409 26.987-.024 54.084-2 81-10.612-.15-23.22-8.228-35.018-11.794-33.927-12.193-66.937-27.54-100.982-39.206v500c12.929-.292 28.276-.102 40-2 3.206 14.746 4.02 29.938 4 44.989.773 26.919-.124 53.918-6.81 80.157-.945 4.947-2.67 9.706-3.637 14.636-.556 4.673 3.241 8.122 6.073 11.49 10.396 12.334 25.914 21.058 42.46 19.574 25.23-.765 45.843-21.228 51.849-44.64 7.24-23.99-2.695-49.289-16.363-68.877-8.52-12.556-19.446-23.234-31.292-32.584-5.826-4.845-12.001-9.227-18.142-13.651-3.064-1.972-6.013-4.132-9.126-6.022-3.007-1.653-6.791-3.896-7.012-7.072 16.136-3.068 31.718-8.862 46.619-15.637 7.503-3.147 14.25-7.812 20.738-12.636 8.23-5.458 6.914-14.162 6.643-22.727h240c-1.489 40.99-3.236 82.417-11.049 122.779-2.48 7.942-4.002 19.689-13.669 24.988-6.993 3.506-15.063 3.213-22.624 3.233-23.155-.69-50.506.028-71.658-2 .51-6.74 5.164-13.377 4.93-21.532 1.853-27.935-17.795-51.827-38.948-67.406-21.747-14.748-46.688-25.253-72.184-31.51-3.432-.297-7.64 2.444-9.798 3.948 16.626 24.925 26.15 59.786 29.627 86.712.394 6.16.33 12.344 1.074 18.474.296 5.752-1.61 11.605-.25 17.337 11.106 16.04 35.206 23.972 53.723 17.411 7.268-1.995 13.592-6.11 19.39-10.786 5.21-4.41 13.485-.089 19.042 1.399 20.316 7.341 41.548 18.102 53.037 37.315 10.882 20.98 9.528 49.775 10.357 70.638 42.78 0 90.503-8.522 121.897-40.35 15.365-15.003 23.695-35.59 28.945-55.98 5.476-21.412 8.618-43.4 10.632-65.391 1.196-9.403 1.213-18.897 2.526-28.279h3c10.725 52.077 31.14 103.056 62.832 146.013 16.453 20.986 36.626 40.758 62.905 48.742 13.032 4.906 27.464 5.42 40.746 1.213 11.518-3.141 25.4-7.732 32.484-21.105 14.21-28.679 8.734-62.24 3.192-92.152-1.711-7.792-3.464-15.544-5.576-23.228-1.51-5.593-3.834-12.086-4.398-17.391-.388-18.328 1.606-36.672 2.458-54.945 3.218-47.009 4.457-94.903 8.357-141.647-2.089-1.739-5.86-1.446-8-1.5-6.878 31.234-15.295 62.26-25.077 92.721-2.48 6.891-5.087 13.77-7.703 20.596-2.428 5.348-5.785 13.735-14.006 10.898-4.919-2-7.844-9.365-10.766-14.392-10.526-23.697-15.887-49.217-20.089-74.656-15.758-92.533-16.897-186.564-19.073-280.088-.46-48.52 1.586-97.066 3.356-145.522 1.254-23.243 2.483-46.493 4.513-69.683.74-5.533.228-12.389 2.05-17.252 1.517-3.775 9.34-2.952 12.233-4.745 11.419-3.223 23.152-7.587 31.562-16.377-21.66-18.296-43.338-36.576-65.194-54.637-10.763-9.187-21.653-18.24-32.454-27.36-5.43-4.608-10.933-9.093-16.352-13.696-5.53-3.525-11.506-10.9-16.668-12.807-18.141 21.68-37.458 42.325-55.722 63.89-4.185 4.226-8.124 10.127-12.321 13.66-6.058 3.093-12.995.29-19.573 1.45h-423.848c-15.373.623-31.608-8.573-44.587-13.078-42.546-16.154-84.548-34.465-127.281-49.922-1.037 167.086 2.049 334.256-3.035 501.27-2.382 78.007-8.52 156.017-22.485 232.895-12.615 73.66-33.505 147.324-66.48 214.335m14 692c1.926 8.584 5.998 18.463 7 26.5h197c-1.24 62.245-15.361 126.668-52.487 177.809-17.42 24.91-39.673 46.044-64.103 63.944-12.4 8.385-24.81 16.777-37.756 24.309-6.6 3.638-13.181 7.287-19.947 10.592-6.53 4.372-16.039 6.55-20.707 11.346.885 2.256 3.237 3.921 4.603 5.538 2.896.033 5.744-.437 8.552-1.063 52.13-11.118 103.712-26.303 151.957-49.146 46.612-23.159 91.341-53.313 121.486-96.652 30.609-40.606 46.972-100.474 47.402-146.677h224v296c42.668.573 86.665-2.799 126.21-20.454 9.088-3.22 20.534-9.325 18.79-21.557V2309h174.6c17.211.012 40.55 2.958 47.4-14.656-39.458-35.248-80.403-69.406-122.5-101.344-14.653 18.026-28.232 36.967-42.509 55.284-7.277 9.071-14.058 18.52-21.222 27.675-3.761 6.63-9.936 6.633-16.308 6.041H1747v-74.4c.2-6.077-.431-13.435.695-18.888 2.657-2.944 9.711-2.27 12.963-4.185 11.13-3.013 21.534-12.364 22.342-24.527-60.363-3.964-120.761-9.948-181-15v137h-223v-92c7.173-1.642 14.969-2.434 21.018-7.098 5.933-4.223 9.488-10.954 10.982-17.902-28.665-1.326-57.109-5.74-85.736-7.574-28.694-3.254-57.649-4.688-86.264-8.426v133h-204zm238-933.5h-12c1.467 22.133-6.794 43.471-20.647 60.52-10.698 15.556-24.84 28.125-40.99 37.578-13.076 8.887-24.78 20.693-31 35.533-11.769 26.59 1.14 60.116 27.2 72.631 19.241 9.757 44.226 10.973 63.08-.713 27.297-19.944 37.74-55.036 39.595-87.281 2.995-33.968-7.783-67.391-18.052-99.117-2.127-6.477-5.462-12.538-7.186-19.151m144-341h155v-67h-155zm0 95h155v-68h-155zm0 91h183c3.626-.19 8.14.509 10.642-1.555 8.221-7.596 13.964-17.61 21.73-25.659 3.4-4.538 7.161-8.75 10.708-13.153 2.931-4.236 8.342-8.65 8.92-13.633-12.996 2.657-25.479 7.833-38.824 9.06-13.62 1.894-27.465 1.698-41.176 1.94v-21h-155zm0 88h218.4c4.485-.362 9.571.674 13.402-.957 20.332-17.454 38.139-37.821 58.698-55.043 6.976 6.598 14.852 12.172 22.168 18.363 3.721 3.22 7.597 6.201 11.414 9.294 3.8 2.779 7.689 7.334 11.918 7.343-1.624-13.622-2.86-27.328-4-41h-332zm82-369.5v1.5h39.6c9.732-.516 22.604 2.806 30.77-6.87 12.232-12.675 24.034-25.736 36.863-37.863 4.84-3.93 8.955-13.272 14.754-8.967 36.186 26.158 71.795 53.103 108.013 79.2-5.866 5.756-12.767 10.533-20.464 13.447-2.875 1.668-9.051 1.595-10.114 4.52-1.204 32.005.22 64.182-.422 96.224v47.945c-.245 6.85 2.23 15.697-6.452 20.102-5.865 3.122-12.67 7.485-18.548 9.262.417 3.887 5.391 5.943 7.829 8.445 10.837 8.482 21.962 16.559 32.8 25.031 5.315 4.42 11.014 8.33 16.344 12.711 5.026 3.212 10.866 10.12 16.027 10.813-8.36-118.8-8.788-237.931-8-357-27.365 3.092-55.043 1.575-82.57 2H1572c-21.082 28.482-48.819 53.92-73 79.5m23 414.875c15.293 15.204 27.547 33.578 36.092 53.391 3.093 7.682 5.722 15.59 7.311 23.717 1.742 6.732-.225 16.238 7.61 20.177 10.692 6.805 23.901 10.731 36.524 8.08 19.019-3.294 34.03-19.725 37.018-38.51 2.852-21.821-9.492-37.534-25.557-47.988-13.808-10.074-30.406-15.274-46.973-18.532-8.857-1.714-17.774-3.343-26.769-4.06-7.874-.913-16.739-2.414-24.509 3.186-.293.114-.524.339-.747.539M1641 733.5c2.21 3.95 8.345 6.249 12.033 9.938a4225 4225 0 0 0 43.021 32.23c7.26 5.29 14.21 11 21.35 16.434 3.425 2.847 7.024 5.515 10.423 8.388 3.2 2.697 7.112 6.435 11.173 6.51-.008-25.014-.325-50.018 1-75h-99z" style="fill:#fedda9;fill-rule:evenodd;stroke:none"/><path d="M1016 2147.267c1.397 2.41 3.383 5.482 5.3 7.872 2.747 1.312 7.658-1.93 10.442-2.067 60.736-17.584 120.036-40.37 177.127-67.509 56.06-27.374 109.48-60.443 157.781-100.05 23.344-18.284 45.116-38.352 65.85-59.513 1.426 43.497-.26 87.415.5 131h-160c1.755 8.47 4.756 18.318 7.038 25.905 1.372 4.784 10.24 2.331 13.522 3.095H1433v140c39.487 1.191 79.537-2.244 116.57-17.23 4.153-1.744 9.274-3.699 12.414-6.494 3.6-2.85 3.068-8.59 3.016-12.661V2086h147c13.046.025 30.882 1.319 37-16.5-28.81-25.835-58.567-51.294-89.5-74.5-8.839 9.805-16.07 20.979-24.687 30.973-6.6 9.889-16.535 19.222-23.813 31.027h-46v-100c13.75-1.045 30.146-6.682 33-25-52.744-3.094-105.236-10.407-158-13v-1.5c21.117-22.282 39.881-46.77 57.58-71.807 4.674-6.018 8.378-15.092 16.494-14.685 26.32-.022 52.615.004 78.926-.008 14.47 31.663 32.93 61.723 51.673 91.02 29.57 44.549 63.805 86.018 104.085 121.252 38.952 36.165 84.83 64.313 132.742 86.728 5.068-31.742 17.46-62.817 39.894-86.532 10.825-12.202 22.807-23.387 35.972-32.998 6.3-4.536 12.339-9.513 19.164-13.272 2.773-1.846 7.887-4.443 8.104-7.558.786-4.168.741-8.45 1.366-12.64-68.053-8.997-136.775-19.615-201.228-44.485-31.497-10.54-61.348-25.413-90.257-41.544-27.055-16.58-54.235-34.548-74.515-59.471 92.468-1.426 185.441.26 278.005-.5 11.608-.097 23.245.12 34.838-.068 8.524-.327 18.166-2.882 23.419-10.224 3.307-4.37.928-7.76-2.888-10.188-42.456-38.58-86.889-74.94-131.874-110.52-13.608 16.554-25.75 34.337-38.745 51.375-12.137 17.398-26.577 33.701-37.755 51.625-72.929-.76-146.151.926-219-.5 11.806-21.367 24.47-42.525 33.684-65.249 2.411-5.64 4.777-11.336 7.293-16.926 2.294-5.565 7.612-3.966 11.717-4.016 13.796.35 27.047-6.808 32.306-19.809-63.843-20.47-129.516-36.491-193.5-56.5-15.522 56.007-36.12 110.726-61.5 163h-298v1.5c2.05 7.832 5.854 17.714 7 26.5h275v1.5c-19.361 32.502-39.575 64.874-62.646 95.007-35.807 45.653-76.082 87.75-120.484 125.049-43.67 36.043-91.147 67.49-140.87 94.444zm3-555.642c3.01 2.361 6.473 4.06 9.5 6.375 56.545-44.555 105.34-99.448 138.77-163.54 53.962-101.253 75.977-216.694 81.976-330.372 7.129-123.525 3.964-247.416 4.754-371.088 125.607.76 251.478-.926 377 .5-18.74 23.31-37.074 47.314-56.542 70.01-2.106 1.87-6.13 1.3-9.203 1.49H1260c1.876 8.794 4.546 17.593 7.313 26.145.113 2.702 4.268 2.788 6.111 2.835 7.574.057 15.138-.01 22.697.02H1428c-.385 26.334-.1 52.742-2 79-6.269-.163-12.818-4.162-18.144-5.868-39.392-15.07-78.401-31.285-117.856-46.132v503c6.739.06 13.501-.002 20.228-.323 6.264-1.223 14.349.78 19.272-1.677 5.248 18.006 3.895 37.492 4.5 56.032.505 16.465-.488 32.872-3.187 49.118-1.344 7.034-2.672 14.094-4.367 21.046-.838 5.597-4.574 12.894-2.874 17.266 6.03 9.233 16.032 18.206 25.024 22.802 19.14 9.49 42.911 4.46 58.565-9.195 11.487-9.95 18.085-24.504 20.69-39.203 3.933-23.527-7.182-46.775-20.291-65.388-13.113-17.585-33.239-33.946-49.88-45.035-4.23-3.187-9.848-5.976-13.68-8.943 15.96-4.368 32.223-8.814 47.118-16.355 7.314-3.113 13.9-7.717 20.239-12.418 8.23-5.458 6.914-14.162 6.643-22.727h238c-1.68 40.51-3.331 81.441-11.163 121.322-2.524 7.776-4.018 19.29-13.555 24.445-6.992 3.504-15.03 3.211-22.595 3.233-22.511-.687-49.127-.023-69.687-2 4.43-12.075 7.31-25.078 3.925-37.978-10.357-35.756-44.086-59.165-77.06-71.666-7.517-3.194-15.282-5.74-23.047-8.243-3.874-.976-8.382-2.809-12.097-2.781-3.79.243-7.655 2.767-10.721 4.168 16.266 26.021 26.372 56.017 30.355 86.398.864 6.152.452 12.392 1.154 18.541.34 5.824-1.123 11.639-.418 17.475.302 4.971 5.976 8.264 9.522 11.143 15.452 12.505 37.439 14.545 54.964 5.031 5.848-2.184 11.983-10.282 17.322-9.155 23.233 5.751 45.848 17.017 60.944 35.948 7.215 10.242 10.049 22.864 11.232 35.103 1.362 13.295 1.793 26.667 1.925 40.016 43.424.343 91.974-8.09 123.897-40.35 15.556-15.275 24.086-36.275 29.198-57.055 5.793-21.727 8.333-44.152 10.631-66.447 1.281-8.388.603-18.627 2.774-26.148 15.556 62.416 38.87 127.217 87.427 172.264 12.59 10.845 27.209 19.391 43.263 23.893 22.788 6.487 54.675-.462 68.605-17.978 6.948-9.88 9.51-24.39 10.565-35.115.997-13.234.717-26.593-1.42-39.708-1.608-14.048-4.686-27.823-8.22-41.488-2.808-10.08-6.7-20.145-5.592-30.82 2.04-32.865 3.635-65.714 5.561-98.576 2.224-29.604 2.422-59.452 5.311-88.972-2.882-2.012-6.684-1.253-10-1.5-6.878 31.234-15.295 62.26-25.077 92.721-2.48 6.891-5.087 13.77-7.703 20.596-2.293 4.922-5.733 13.99-13.537 10.261-8.992-8.594-12.924-23.47-16.88-33.674-14.166-47.68-18.706-97.666-23.753-146.911-6.303-79.211-8.817-158.813-7.05-238.267-.116-39.701 1.58-79.39 4.02-118.995 1.288-19.464 2.443-38.974 4.35-58.375.391-5.635 6.67-5.791 10.963-6.935 12.672-3.198 25.554-8.138 34.667-17.921-21.856-18.768-44.072-37.193-66.194-55.637-11.05-9.384-22.126-18.697-33.223-28.005-11.052-8.106-22.532-20.166-33.083-26.858-18.662 21.404-37.554 42.668-56.165 64.109-4.353 4.592-8.068 9.804-12.673 14.16-1.995 2.042-6.01 1.616-9.155 1.731h-431.04c-16.148.648-30.793-7.244-45.612-12.868C1198.478 674.35 1155.52 656.347 1112 640c-1.003 167.785 2.025 335.68-3.065 503.4-2.437 78.375-8.636 156.79-22.858 234-12.932 73.638-33.85 147.232-67.077 214.225m14 689.625c2.96 8.62 6.589 21.295 8 28.75h197c-1.58 62.04-15.818 126.323-53.363 177.017-35.702 49.128-87.785 83.688-142.637 107.983.482 3.751 4.342 6.719 5 10 78.372-16.168 157.306-39.959 223.088-87.298 32.208-22.893 59.22-52.789 78.23-87.502 19.06-35.632 30.14-83.229 30.682-120.2h222v296c43.33.615 88.036-2.452 128.21-20.454 9.163-3.663 20.397-8.637 18.79-22.156V2310c67.035-.85 134.215 1.038 201.21-.56 7.3-.897 14.753-3.87 18.827-10.301 4.524-6.872-4.186-10.572-7.987-14.664-32.671-29.973-67.904-56.945-102.272-84.874-3.861-2.226-7.86-7.208-11.278-8.601-14.838 17.669-28.079 36.647-42.35 54.77-7.125 9.334-14.303 18.602-21.416 27.939-1.707 2.326-3.424 4.711-5.89 6.292-9.132 2.323-19.446.008-28.844.999v-84c.181-2.473-.207-5.697.962-7.756 7.898-3.155 17.514-3.533 24.393-9.415 6.748-4.985 10.143-12.863 11.645-20.829-61.416-3.621-122.654-10.374-184-15v137h-221v-90c7.38-1.62 15.295-2.554 21.448-7.4 5.958-4.717 10.152-11.931 10.552-19.6-58.076-4.15-115.99-11.054-174-16v133h-205zM1274 1348h-14c1.516 22.314-6.962 43.772-20.934 60.919-10.632 15.671-25.031 27.912-41.109 37.468-13.049 9.092-24.895 21.03-30.912 36.11-11.385 26.842.92 60.693 27.136 73.57 18.864 10.32 46.89 10.657 63.96.353 28.427-18.965 38.72-54.954 41.057-87.097 3.2-34.043-6.546-67.706-17.115-99.534-2.21-7.435-6.077-14.303-8.083-21.789m144-341h153v-65h-153zm0 95h153v-66h-153zm0 91h180c3.293-.404 7.542.689 10.833-.969 8.458-7.05 13.717-17.32 21.527-25.036 6.668-8.65 14.192-16.695 20.64-25.495-12.441 2.617-25.07 7.69-38.024 8.73-13.898 1.893-28 1.492-41.976 1.77v-21h-153zm0 88h219c3.496.197 7.008-.037 10.436-.572 17.233-15.673 33.962-32.04 50.799-48.16 4.012-3.837 8.734-9.407 14.014-3.844 13.499 9.979 25.902 22.328 39.751 31.576-2.369-12.829-2.323-26.077-4-39h-330zm82-368.656c11.401 1.789 23.99-.258 35.634.656h18.537c6.654.929 10.569-2.315 14.304-6.975 15.334-16.31 33.944-34.906 47.838-50.025 10.746 5.09 19.164 14.381 29.22 20.611 28.411 21.046 57.236 41.635 85.467 62.889-5.93 6.098-12.981 11.102-20.886 14.24-3.11 2.048-8.9 1.454-10.593 4.336-1.486 32.094.27 64.477-.521 96.614v48.544c-.002 6.93 2.015 15.68-6.948 19.797-5.731 3.664-12.086 6.299-18.052 9.469 23.588 18.011 47.32 35.968 70.5 54.5 1.12-6.655-1.204-13.885-.783-20.668-7.64-111.264-6.972-222.857-6.717-334.332-13.08 2.23-26.327 2.435-39.585 2H1573c-1.15 3.589-5.797 6.779-8.17 10.564-20.988 23.047-41.14 47.416-64.83 67.78m20 415.031c15.37 15.077 27.711 33.203 36.488 52.898 3.108 7.855 6.092 15.826 7.691 24.136 2.113 7.306.09 16.64 6.896 20.641 10.647 6.917 23.914 11.215 36.695 9.169 19.354-2.132 35.258-17.805 39.31-36.493 2.107-9.902.685-20.473-3.561-29.593-4.146-8.109-12.204-15.816-18.716-20.903-13.765-10.695-30.483-16.488-47.337-20.047-9.029-1.73-18.073-3.559-27.232-4.377-8.587-.108-19.392-3.11-25.7 1.471-1.325 1.104-3.575 2.059-4.534 3.098m122-594c32.555 23.144 63.808 49.235 96 72.625.141-24.351-.475-48.691 1-73-32.252.57-64.854-.694-97 .375" style="fill:#000;fill-rule:evenodd;stroke:none"/></svg>