<svg xmlns="http://www.w3.org/2000/svg" width="3000" height="3000"><path d="M364 2760.5v1.5h2272v-1.5c-68.931-409.09-136.257-818.54-204.874-1227.691-51.076-306.848-102.33-613.661-153.4-920.497-4.868-28.824-9.564-57.688-14.431-86.508-1.116-7.008-2.365-13.985-3.488-20.978-1.2-6.774-.246-15.245-9.425-16.859-109.868-36.632-219.702-73.24-329.563-109.867-95.996-32.013-192.02-63.992-288-96-41.993-13.978-83.98-28.011-125.966-41.994-5.663-2.605-10.407-1.693-15.513.621-156.173 52.06-312.354 104.114-468.521 156.173-58.68 19.531-117.334 39.097-175.992 58.657-25.668 8.506-51.298 17.139-76.962 25.643-6.176 2.075-12.369 4.11-18.537 6.195-3.02 1.124-6.483 1.813-8.8 4.255-62.934 375.423-125.132 751.075-187.889 1126.544C490.857 1998.664 428.048 2380.37 364 2760.5m649-630.25c1.412 3.012 3.632 6.302 5.5 8.75 9.754-5.444 21.047-8.305 31.176-13.068 36.275-15.728 72.388-32.075 107-51.265 17.104-8.522 33.408-18.498 50.063-27.823 8.222-4.705 16.188-9.814 24.27-14.748 4.006-2.454 7.945-5.018 11.993-7.4 4.183-2.077 8.58-6.21 12.998-6.696.691 8.266 5.314 15.766 6 24h148v147h-317c1.53 7.814 4.104 15.48 6.287 23.128 1.031 4.387 9.247 2.17 12.097 2.872H1410v325h-369c2.027 8.445 5.732 18.111 7 26h870.6c16.926-.065 41.158 3.704 47.4-14.539-46.071-41.032-96.444-76.882-144.5-115.461-13.99 17.007-26.726 35.105-40.508 52.284-6.805 8.562-13.196 17.438-20 26-5.861 8.76-13.872 16.581-18.992 25.716h-181v-325h315.6c9.716.113 19.795.712 28.984-3.112 6.706-2.754 14.012-10.813 5.33-16.528-41.147-34.555-83.088-68.286-125.414-101.36h-1.5c-4.789 9.086-13.107 16.538-18.53 25.366-11.03 14.578-22.184 29.046-33.05 43.75-4.252 5.45-8.526 10.857-12.58 16.457-3.401 5.13-6.488 10.695-14.537 9.427H1561v-147h139.8c12.265-.167 29.235 2.148 36.2-14.375-38.942-33.674-80.36-64.428-120.5-96.625-18.3 23.581-36.955 46.91-55.474 70.326-3.454 4.198-7.132 9.466-10.672 12.99-1.599 2.37-6.512 1.173-8.74 1.684H1260v-2c55.139-37.803 109.182-78.051 158.228-123.743 24.596-23.601 49.389-47.015 71.247-73.232 21.74-24.937 42.554-51.701 59.525-80.025h3c24.043 80.292 69.912 153.63 128.102 213.602 56.661 59.775 125.99 105.712 196.398 147.398 7.517-34.674 21.563-68.887 44.483-96.483 10.785-14.08 23.685-26.478 38.554-36.172 7.64-4.2 15.174-8.756 23.314-11.946 3.69-1.677 9.424-2.166 11.519-5.252.708-4.321.773-8.817 1.63-13.147-81.555-16.155-161.816-39.319-238.907-70.455-36.928-15.383-72.298-34.098-105.59-56.245-16.563-11.625-32.74-23.881-47.478-37.775-7.208-7.238-14.612-14.284-21.194-22.09-3.61-3.56-6.991-7.34-10.02-11.408-2.752-3.898-7.52-7.7-7.811-12.027 10.343-.572 22.473-3.077 31.659-5.397 8.488-2.78 20.651-7.137 22.341-18.603-36.164-7.867-71.777-18.853-107.737-27.69-35.85-9.346-71.76-18.603-107.501-28.31-3.43 4.238-3.468 12.432-6.106 18.208-16.267 49.216-40.83 95.313-68.94 138.712-41.551 63.995-89.846 123.424-142.586 178.45-27.332 27.191-53.897 55.241-83.588 79.977-28.487 24.813-58.151 48.643-89.542 69.653zm5-1165.75c2.08 8.514 5.272 16.897 7 25.5h451.2c20.382-.358 41.463 2.025 60.8-5v428.4c.41 33.38-1.814 67.199 4.222 100.241 2.68 12.72 6.362 25.575 14.358 36.089 15.207 20.47 41.576 28.062 65.643 30.935 47.669 5.628 95.884 2.154 143.757 3.335 35.444.371 70.915-1.28 106.113-5.367 24.345-3.5 48.905-7.747 71.332-18.38 16.046-7.214 30.55-19.52 36.816-36.43 5.39-12.768 6.034-27.607 1.214-40.666-3.539-9.625-10.329-17.747-18.826-23.33-6.186-4.513-13.18-7.638-19.996-11.02-6.736-2.476-5.816-8.81-6.147-14.974-1.081-18.01-2.488-36.028-3.441-54.043-.035-1.271-.043-2.53-.045-3.79 7.859-1.494 18.805-4.22 22-14.687-34.299-29.722-70.38-57.96-106.5-85.313-9.677 11.88-18.967 24.102-28.41 36.175-8.827 12.516-20.18 23.817-28.09 36.825h-119v-81h195.6c10.728-.271 21.463.352 32.165-.243 8.577-.61 19.397-3.815 23.235-14.257-31.301-28.472-64.564-55.341-98.5-80.5-19.11 21.213-34.166 46.05-53.582 66.932-7.717 2.314-16.664.178-24.658 1.068H1672v-77h206.4c20.514-.724 47.765 5.234 57.6-14.5-13.784-13.814-29.283-25.774-44.222-38.275-7.612-5.897-15.115-11.902-22.673-17.865a498 498 0 0 1-11.395-8.997c-3.18-2.828-8.44-5.33-8.71-9.363 21.02-3.164 41.826-8.507 61.872-15.579 5.26-1.734 10.259-4.444 9.126-11.595.005-17.92 0-35.846.002-53.752.065-18.724-.079-37.437.043-56.145-.292-5.535 3.678-6.86 8.033-7.199 12.207-2.627 23.384-9.175 31.924-18.23-41.064-29.653-81.81-60.309-122.5-90.5-9.21 11.41-19.755 21.73-29.517 32.649-6.939 8.81-15.278 16.344-22.357 25.017-5.454 7.494-17.491 4.95-25.456 5.334H1676v-78h264.6c10.039.104 22.942-1.265 27.4-14.543-39.419-36.03-80.686-70.032-121.5-104.457-19.795 27.346-39.342 55.134-59.295 82.41-2.64 3.274-4.591 7.392-8.02 9.938-34.234 1.859-68.87-.337-103.185.652V678c7.845-.72 17.138-3.236 23.366-6.952 7.686-4.452 9.696-11.52 12.634-18.548-5.949-2.469-15.157-1.151-22.613-2.55-50.825-3.536-101.517-9.118-152.387-11.95v331h-1.5c-34.368-28.012-66.98-59.44-102-87-14.62 20.35-29.865 40.27-44.36 60.712-3.692 5.22-7.747 10.139-11.296 15.449-1.492 1.758-2.965 4.206-4.675 5.196-18.568 1.817-37.525-.317-56.169.643-.119-4.993 4.818-7.256 7.59-10.13 23.222-23.633 47.474-46.346 69.363-71.194 11.454-11.839 22.324-24.219 32.875-36.858 5.844-6.47 15.874-4 23.3-7.385 7.574-2.462 14.739-8.506 16.872-16.433-40.794-8.65-81.209-19.358-122-28v-3h136.2c12.292.032 28.966 2.007 35.8-14.5-34.282-33.897-72.185-63.853-108.5-95.5-19.755 28.114-41.662 55.374-60.5 84-4.61-.035-9.194.044-13.79-.027-1.71-.222-4.4-.274-5.383-1.409-1.616-7.188-.313-14.918-.827-22.25V675c12.33-2.068 30.445-7.587 32-24-27.646-3.604-55.765-3.889-83.497-6.894-28.211-1.417-56.291-4.963-84.503-6.106v127h-163c2.027 8.445 5.732 18.111 7 26h36c10.579.282 21.19-.347 31.752.196 4.203.228 5.538 5.702 7.1 8.947 5.785 14.488 10.901 29.365 14.192 44.636 6.415 23.377 9.14 47.592 7.815 71.808.087 6.067-1.059 13.234-.363 18.768-.01 3.687 6.29 6.298 8.088 8.782 9.13 7.936 22.107 15.772 33.416 16.863v3h-156zm57 627.5c37.21 1.254 75.385-4.286 108.15-23.218 6.991-4.21 15.577-9.44 19.741-15.942 3.505-6.946 1.416-15.327 2.109-22.76V1335h119c-.102 37.194.124 74.407-.067 111.596-.103 11.639-8.203 15.306-17.123 14.402-26.67.643-53.201-2.33-79.81-2.998v10c13.187 1.733 28.358 7.155 38.797 13.38 17.861 10.736 29.007 30.164 33.712 49.83 4.63 21.615 5.721 43.777 6.491 65.79 24.35-3.355 49.18-5.187 72.757-12.757 17.446-4.798 34.426-12.574 48.163-24.524 21.757-17.19 28.722-46.068 31.895-72.107 3.404-29.668 1.694-59.663 2.185-89.44V1118c14.84-1.463 28.944-8.575 39-19.5-31.068-24.865-63.447-48.106-94.8-72.608-6.202-4.388-12.066-9.249-18.118-13.823-5.543-3.787-11.913-11.495-16.918-5.66-17.294 20.183-35.453 39.59-52.808 59.709-4.006 4.74-9.364 3.947-14.998 3.882h-64.027c-7.984-.088-15.965.111-23.94-.07-6.409-.394-12.17-3.698-18.109-5.813-40.32-16.245-81.002-31.9-121.282-48.117zm55-799.5v1.5c39.59 11.989 79.834 32.03 104.034 67.05 12.535 17.482 17.348 42.08 8.746 62.292-7.75 18.669-28.147 35.446-46.78 37.658v3h73.8c5.721-.16 12.53.299 17.727-.419 2.205-.55 2.48-4.086 3.098-6.4 6.23-34.307 10.612-68.917 15.34-103.44 2.483-20.83 5.757-41.731 6.035-62.741h-182zm55 1465.5c10.287 34.35 20.638 69.024 25.176 104.8 5.022 28.121 6.759 56.571 5.824 85.1.31 5.166-.784 10.818-.26 15.812 12.502 12.677 26.802 24.283 43.944 30.015 26.301 9.919 56.311 1.33 75.909-17.859 20.433-19.28 29.348-49.395 24.112-76.784-7.102-37.565-32.495-68.876-62.392-91.42-29.487-23.519-64.48-38.7-99.813-51.05-4.73-2.42-8.588-.852-12.5 1.386m20-1071h119v-91h-119zm0 121h119v-95h-119zm335-343.5v1.5c40.072 12.982 79.127 29.59 119.02 43.218 9.331 3.036 21.763 9.088 29.962 9.731 34.02.145 68.005-.026 102.018.051V911h-115c-.912 6.351 1.524 16.504-1.835 21.05-7.21 8-19.999 11.543-28.695 15.27-33.788 12.138-69.753 16.502-105.47 15.68zm64 1532.5c3.526-.027 6.958 6.1 10.063 3.914 23.46-15.295 45.366-32.99 67.39-50.26 27.896-23.412 55.284-47.416 81.28-72.887 13.53-12.763 26.008-26.5 38.87-39.87 6.532-8.482 17.761-4.688 26.024-7.661 8.383-2.352 18.535-9.111 19.373-17.236-61.866-20.707-123.019-44.496-185-65-16.344 83.535-37.684 166.489-58 249m68-1360h94.2c3.616-.012 8.18.402 10.824-1.851 8.182-8.613 14.345-18.977 22.173-27.905 3.63-4.616 7.056-9.395 10.888-13.851 3.015-4.323 8.603-9.874 8.915-14.393h-28v-33h-119zm248 239h-248v38.278c.618 9.083-.98 20.12 1.087 28.292 4.706 15.046 23.313 12.116 34.994 12.43h99.934c14.012.015 28.05.205 42.037-.66 9.368-.31 18.964-2.342 26.85-7.658 10.89-8.242 18.265-23.276 25.158-33.311 3.475-5.737 6.711-11.619 9.596-17.666 2.583-6.113 8.007-14.049 8.344-19.705" style="fill:#fedca9;fill-rule:evenodd;stroke:none"/><path d="M1011 2130.5c3.153 2.446 3.965 9.029 8.162 8.93 4.538-1.63 9.066-3.518 13.555-5.313 39.623-15.3 77.78-33.922 115.52-53.287 36.162-19.285 71.924-39.446 106.263-61.83 1.914 7.453 5.567 17.682 6.5 24h148v145h-318c3.302 8.832 4.751 20.197 8.42 27.16 10.377 2.002 21.415-.042 31.935.84H1409v323h-369c.898 9.604 5.945 18.415 7 28h861.6c12.009-.184 24.03.229 36.027-.134 7.725-.913 18.772-3.571 21.553-13.104 1.823-3.903-4.32-7.12-6.306-9.4-44.069-39.312-92.809-72.921-138.374-110.362-14.424 16.8-26.848 35.29-40.839 52.445-6.887 8.725-13.439 17.685-20.326 26.41-5.806 8.653-14.819 17.804-19.335 26.145h-179v-323h321.6c12.014.5 30.571-.657 34.4-16.75-43.93-36.148-87.742-72.762-133-107.25-13.324 15.906-25.206 33.303-38.159 49.573-9.265 12.68-18.91 25.056-28.42 37.543-1.773 2.188-3.512 5.027-5.377 6.822-3.948 3.663-12.146 1.148-17.903 2.062H1562v-145h141c11.144-.42 28.806 2.097 34.324-14.138.992-2.33-2.505-4.49-3.763-5.894-27.267-23.63-56.087-45.41-84.168-68.053-10.398-8.68-23.777-17.46-32.893-25.915-18.723 23.079-36.61 46.813-55.367 69.859-3.465 4.472-6.837 9.034-10.59 13.263-3.49 4.222-11.36 2.466-17.12 2.878-90.722-.76-181.821.926-272.423-.5 55.946-37.021 109.143-78.27 158.601-123.607 49.31-45.57 94.597-96.297 130.899-152.893 25.432 80.148 69.862 154.104 128.975 213.975 57.25 59.906 126.789 106.562 198.025 148.025 6.966-35.032 21.38-69.23 44.157-97.082 10.98-14.296 24.052-27.055 39.27-36.799 7.604-4.112 16.412-9.431 23.941-12.05 3.532-1.524 10.452-2.452 10.783-6.512.733-4.469.645-9.076 1.349-13.557-81.263-16.023-161.154-39.205-238.014-70.062-73.703-30-143.803-73.776-192.986-137.438 19.917-3.29 46.29-4.288 55-24.562-2.28-2.519-6.123-2.294-9.148-3.471-43.764-11.038-87.23-23.25-130.99-34.255-21.73-6.206-43.78-11.21-65.545-17.26-4.244-1.05-12.723-4.721-14.222.392-5.089 15.925-9.869 31.935-16.383 47.375-18.65 44.997-43.88 86.884-70.991 127.187-40.715 59.937-87.91 115.278-138.197 167.27-50.636 51.372-104.59 100.294-164.524 140.824zm5-1167.25c3.112 8.576 5.835 19.615 8 27.75h483c9.628.285 20.115.757 28.5-5 1.426 104.148-.26 208.655.5 312.865v117.474c.516 33.349-2.045 67.274 4.668 100.221 2.821 12.718 6.763 25.604 15.234 35.836 16.201 19.786 42.612 26.886 66.942 29.59 23.778 3.25 47.802 2.993 71.731 3.014 42.587-.066 85.206.455 127.76-1.168 29.96-1.917 60.152-3.95 89.322-11.589 19.89-5.266 41.252-12.392 55.615-27.847 23.275-21.448 24.357-65.543-2.946-84.382-6.321-4.585-13.22-8.285-20.306-11.54-2.114-1.558-6.03-2.317-6.572-4.792-1.79-22.151-3.385-44.466-4.448-66.682 6.421-1.308 13.424-2.731 18.024-7.942 2.105-2.238 3.938-5.345 3.386-8.533-2.078-2.69-4.414-5.058-7.211-7.02-8.21-7.568-16.86-14.624-25.566-21.585-24.659-19.35-49.182-38.98-74.133-57.92-10.234 11.807-19.244 24.623-29.079 36.759-8.947 12.642-20.4 24.085-28.421 37.241h-117v-79h205.8c15.273-.715 37.672 3.014 44.114-12.755 1.785-5.821-5.73-9.514-9.131-13.021-14.108-13.484-29.774-25.211-44.79-37.633-7.704-5.804-15.113-11.945-22.713-17.867-8.25-4.874-15.657-13.872-23.28-16.724-6.963 12.15-17.936 22.332-25.756 34.055-6.42 8.581-13.187 16.87-19.786 25.31-2.357 3.193-5.297 6.869-8.203 9.052-31.953 1.662-64.232-.302-96.255.583v-75h202.8c15.693-.712 34.718 1.557 48.736-2.534 4.86-1.891 9.978-6.528 11.456-11.183 1.959-4.297-5.779-8.442-7.79-11.118-25.082-22.4-51.817-42.864-78.202-63.665 18.901-4.193 38.398-7.47 56.7-14.244 6.756-1.782 15.674-4.964 14.3-14.025V942.514c.124-2.612-.196-5.423.747-7.904 2.115-2.61 7.47-2.236 10.896-3.793 5.649-1.72 12.027-4.66 16.553-7.596 4.276-3.485 11.28-6.973 11.804-12.221-42.534-27.61-81.455-62.34-124-90-9.955 10.74-19.722 21.928-29.896 32.516-6.918 8.678-15.168 16.178-22.155 24.775-5.927 8.077-16.619 5.235-24.58 5.709H1677v-76h245.4c9.92-.481 21.724.75 30.733-.806 6.55-1.723 15.283-6.784 15.397-15.306-18.424-19.706-40.783-35.975-60.814-54.088-20.376-17.305-40.86-34.507-61.216-51.8-20.233 27.067-39.333 54.947-59.347 82.17-2.62 3.235-5.09 7.53-7.837 10.205-2.57 2.849-9.097.895-12.267 1.625H1677V679c8.118-.81 17.876-3.338 24.172-7.504 6.812-4.32 10.94-13.454 11.828-20.496-29.007-3.35-58.372-4.579-87.466-7.336-29.87-1.785-59.63-5.722-89.534-6.664-.76 110.264.926 220.81-.5 331-33.313-29.978-67.647-59.16-102-88-15.075 19.938-29.668 40.307-44.464 60.462-3.68 5.22-7.65 10.213-11.32 15.437-2.46 4.416-5.536 8.14-11.865 7.1-15.962.004-31.906-.001-47.851.001v-1.5c26.306-23.19 49.42-49.765 74.17-74.485 11.491-13.212 24.07-25.475 34.88-39.304 6.31-7.849 16.18-4.603 24.572-8.453 7.782-2.41 16.112-10.352 16.378-18.258-40.658-9.378-81.486-18.495-122-28.5 28.053-1.426 56.302.259 84.392-.5 21.174-.032 42.337.039 63.501-.021 7.243-.082 15.02-2.135 20.007-7.728 1.993-1.997 3.352-4.675 3.5-7.937-2.346-4.879-7.961-8.916-11.602-12.451-28.148-27.14-58.877-51.406-88.37-77.028-2.91-2.7-6.123-5.034-8.928-7.835-11.283 13.227-20.093 28.422-30.97 41.979-9.613 14.608-21.618 28.078-30.53 43.021-4.399-.104-8.806.145-13.187-.124-4.816.024-5.21-4.56-4.811-8.04-.005-26.608 0-53.23-.002-79.836 7.274-1.125 15.585-4.209 21.466-7.443 7.494-4.339 9.022-11.02 11.534-18.057-56.244-7.078-114.222-7.921-170.5-14.5-1.426 42.546.26 85.398-.5 128h-163c.898 9.604 5.945 18.415 7 28h36.6c10.542.407 21.18-.504 31.695.291 4.104.059 5.262 7.237 6.948 9.872 5.754 14.507 10.787 29.402 14.023 44.686 6.404 23.319 8.964 47.566 7.504 71.706.106 5.36-1.011 12.26-.826 18.3 10.177 12.7 27.802 22.268 42.056 25.645-52.277 1.426-104.693-.26-157 .5zm58 629.75c37.843 1.32 76.798-3.842 110.15-23.218 7.069-4.298 15.914-9.6 19.973-16.336 3.228-7.101 1.152-15.457 1.877-22.964V1336h117c-.25 37 .305 74.038-.164 111.03-.287 10.925-8.644 13.467-17.606 12.97-26.473.66-52.811-2.592-79.23-3v12c13.187 1.733 28.358 7.155 38.797 13.38 17.861 10.736 29.007 30.164 33.712 49.83 4.63 21.615 5.721 43.777 6.491 65.79 44.155-4.506 93.172-10.03 127.678-41.307 15.563-15.861 22.982-37.435 25.884-59.1 3.796-24.03 3.383-48.404 3.438-72.634V1119c15.419-1.406 29.723-9.12 40-20.5-20.792-17.344-43.157-32.812-64.402-49.597-10.726-8.42-21.857-16.328-32.513-24.83-10.956-6.992-20.082-17.226-31.741-23.073-18.57 19.934-36.047 40.888-54.26 61.14-3.588 5.259-7.888 7.596-13.745 6.86h-65.303c-8.185-.08-16.367.1-24.55-.062-6.445-.373-12.236-3.706-18.204-5.82-40.915-16.742-82.525-32.14-123.282-49.118zm57-800.625c39.023 13.616 80.582 31.876 104.314 68.116 12.626 17.98 17.1 43.221 8.464 63.856-8.332 19.342-26.336 33.696-46.778 38.153 29.274 1.035 58.777.217 88.054.243 3.656.03 4.327-4.373 4.718-7.434 4.327-23.243 7.61-46.672 10.827-70.09 3.425-31.053 9.548-61.927 10.401-93.219-59.923.57-120.173-.694-180 .375m52 1465.033c12.636 37.209 22.314 75.696 27.371 114.757 2.48 15.401 4.163 30.915 4.52 46.51.149 13.892.32 27.84-.533 41.704-.771 5.594 5.614 8.97 9.015 12.488 14.4 13.752 32.966 24.117 53.157 25.585 31.337 3.26 62.51-15.553 76.359-43.466 14.244-27.845 11-61.786-2.956-89.042-14.557-28.256-42.795-53.693-66.298-70.113-27.146-17.805-57.257-30.57-87.81-41.249-5.036-2.324-8.318 1.33-12.825 2.418zM1206 1186h117v-89h-117zm0 121h117v-93h-117zm335-342.625c38.969 14.419 78.426 29.005 117.542 43.328 9.67 2.913 20.444 8.702 29.645 10.143 33.94.44 67.875-.08 101.813.154V912h-113c-.912 6.351 1.524 16.504-1.835 21.05-7.372 8.09-20.388 11.749-29.26 15.472-33.551 12.537-69.56 15.622-104.905 15.853m308 1349.531c-6.314-4.925-16.723-5.931-23.094-9.433-54.765-19.521-109.812-38.622-164.406-58.473-16.097 72.769-31.314 145.878-50.494 217.94-2.351 8.961-4.992 17.82-7.344 26.768-.376 1.548-.83 3.274-1.162 4.955.657 2.85 6.03 4.88 8.11 6.338 5.94 1.665 11.938-6.312 17.756-9.169 40.313-28.212 77.697-60.346 113.867-93.565 16.83-16.42 34.375-32.119 49.87-49.87 4.272-4.236 8.485-8.53 12.77-12.746 5.59-5.706 17.49-2.044 25.653-6.01 8.34-2.447 15.194-8.73 18.474-16.735M1673 1136h91.8c3.61-.125 8.267.516 10.985-1.664 7.973-8.19 13.916-18.271 21.427-26.885 5.609-8.403 15.342-17.976 20.788-27.451h-28v-33h-117zm246 241h-246v37.636c.567 8.66-.93 19.145 1.087 26.934 4.58 14.846 22.844 12.184 34.396 12.43h98.134c13.782-.023 27.572.224 41.331-.602 9.385-.226 18.977-2.03 27.039-7.109 11.283-8.11 17.61-21.468 25.265-32.615 6.536-11.993 13.727-23.962 18.748-36.674" style="fill:#000;fill-rule:evenodd;stroke:none"/></svg>