<svg xmlns="http://www.w3.org/2000/svg" width="3000" height="3000"><path d="M1102 2211c-1.353 39.724-6.906 82.359-30.746 115.626-3.805 6.194-9.861 11.113-14.635 16.182-14.052 19.204-28.496 51.2-2.19 74.326 16.533 13.75 42.871 12.75 59.319-.725 25.047-21.76 29.565-57.512 29.04-88.55-1.284-32.449-8.798-64.3-19-95.023-1.45-4.456-2.954-8.894-4.716-13.225-.704-2.204-1.535-4.367-2.53-6.438-.82-2.343-5.084-1.798-6.93-2.167-2.537-.014-5.08 0-7.612-.006m-6-19c24.21.342 49.136 1.305 72.3-7.274 10.286-3.763 19.695-9.818 28.49-16.22 5.86-4.444 5.568-10.593 5.21-16.747V2133h156c-.035 19.617-2.036 39.186-3 58.75-23.872-17.12-53.204-26.134-82.194-29.985-3.602-.77-7.452 2.28-9.556 4.344-6.937 5.004 4.173 10.054 6.876 13.53 13.224 12.879 25.689 26.807 34.927 42.903 9.198 14.206 16.296 30.48 17.947 47.458 7.82 2.845 15.035 8.738 24 8-1.131 19.08-4.87 37.92-8.04 56.724-2.707 14.275-6.197 28.422-11.11 42.09-3.633 9.643-8.33 19.477-16.57 26.081-14.434 9.834-32.99 6.931-49.363 6.451-17.003-.658-33.942-2.3-50.917-3.346.312 5.31-1.939 13.857 5.265 15.62 5.412 1.818 10.889 3.449 16.171 5.62 16.606 6.827 33.486 18.37 40.188 35.884 3.445 9.419 5.145 21.22 5.794 30.348 1.235 9.825-.215 21.619 1.582 30.528 44.15.682 92.264-11.212 122.478-45.814 28.647-33.921 36.93-79.49 44.93-121.611 4.033-26.394 7.997-52.904 9.592-79.575h475.8c10.135-.148 33.932 2.49 33.663-16.382-4.582-7.386-14.079-14.82-20.391-22.999-10.605-11.051-22.136-21.163-32.942-31.989-5.491-5.167-11.28-10.007-16.544-15.427-5.676-4.175-11.137-11.877-17.586-12.203-8.763 15.954-20.61 30.66-30.5 46-1.426-120.468.26-241.44-.5-362.004v-33.591c.275-2.844-.559-8.042 2.43-8.961 26.31-1.266 52.839.23 79.186-.444 8.227-.356 19.521 1.937 27.438-5.654 2.681-2.625 4.991-6.335 4.523-10.26-1.917-6.136-10.434-10.902-14.051-16.061-8.653-9.087-17.806-17.628-26.628-26.627-7.059-6.456-14.292-12.665-20.787-19.72-2.645-2.388-5.554-4.478-8.006-7.073-2.177-2.229-4.36-4.499-7.04-6.114-5.353-.632-7.824 6.407-10.642 9.804-8.89 12.387-16.925 25.41-25.923 37.705-1.423-22.682.256-45.838-.5-68.615.101-5.702-.244-11.458.427-17.118 1.6-3.407 8.566-2.46 11.241-4.209 10.986-2.58 20.222-12.301 19.332-24.058-48.47-1.774-96.53-10.41-145-12v143h-99v-77.4c.005-6.617-.006-13.22.003-19.832.163-2.108-.026-4.816.98-6.548 6.236-2.946 14.479-2.95 19.984-8.04 6.086-4.436 9.578-11.678 9.033-19.18-48.14-1.855-95.868-10.238-144-12v108c-.006 9.195.007 18.406-.004 27.597 1.25 9.201-7.899 7.557-14.118 7.403H1447c1.045 9.245 5.035 17.958 7 27 20.783.206 41.609-.251 62.376.136 5.245.021 4.63 5.937 4.624 9.855V2249h-61c.816-24.41 3.684-48.704 4.318-73.12.276-6.427.446-12.826.71-19.237-.222-5.38 4.096-6.426 8.538-6.848 6.183-1.233 12.314-2.894 17.84-6.001 4.729-2.574 11.94-5.736 11.594-12.794-28.198-20.907-54.149-46.108-81.984-67.785a255 255 0 0 0-10.18-8.693c-1.506-.831-3.014-2.598-5.028-3.022-6.672 2.935-10.234 9.753-16.04 14.233-7.895 7.862-15.74 15.78-23.646 23.624-4.073 3.605-8.34 6.945-11.992 11.013-4.16 5.137-9.407 5.045-15.13 4.63v-93c.27-2.645-.317-6.296 1.307-8.1 10.952-2.173 22.617.073 33.733-.9h59.114c11.982-.63 30.589 4.267 36.222-12.797 1.049-4.755-4.392-8.48-7.27-11.528-12.768-10.938-24.496-23.073-37.588-33.655-6.295-5.404-12.542-10.887-18.935-16.162-6.067-4.167-13.156-13.207-19.583-13.858-5.739 10.918-15.225 20.047-21.776 30.567-3.738 5.248-7.727 10.32-11.536 15.509-4.199 4.722-7.4 11.702-11.688 14.924a8.8 8.8 0 0 1-1.5-1c-1.426-34.54.26-69.39-.5-104h103.2c8.604.171 20.811-1.054 26.277-11.237 4.36-7.362-6.405-12.482-10.08-16.865-15.385-15.162-32.116-28.872-48.372-43.066-6.821-4.766-13.706-12.88-20.436-16.348-6.009-.258-9.382 9.157-13.665 13.547-5.897 8.203-12.217 16.106-17.991 24.391-3.042 3.982-5.984 8.009-8.98 12.01-2.855 3.553-5.507 9.324-9.953 9.568v-102h124.8c10.158.09 26.927 1.023 31.393-12.646 1.24-4.284-3.018-7.875-5.983-10.49-22.97-19.554-46.03-39.067-69.965-57.439-3.758-3.045-7.576-6.035-11.327-9.082-3.026-2.056-6.222-5.546-10.352-6.843-5.896 2.718-9.803 11.644-14.409 16.05-6.795 8.743-13.718 17.376-20.434 26.17-5.838 9.142-14.76 16.663-19.723 26.28h-119.4c-11.742.61-22.399-4.919-33.104-8.955-31.749-10.743-62.484-25.34-94.496-35.045zm48 12c7.427 30.792 13.512 62.239 13.96 94.095.54 23.76.596 47.612-3.364 71.17-.384 4.271-1.352 9.642 1.133 12.64 4.722 5.836 12.156 11.378 18.804 13.321 14.15 3.492 29.91-1.99 38.194-14.247 13.653-17.033 15.172-39.956 14.072-60.747-1.569-21.07-9.392-41.063-18.99-59.612-11.738-21.967-28.476-40.856-46.641-57.663-4.695-4.312-12.174.998-17.168 1.043m353-1020h2c8.15 33.406-11.672 58.4-32.597 81.306-7.293 8.838-16.045 16.345-23.878 24.67-13.684 14.427-27.626 28.622-40.77 43.543-9.424 10.915-19.312 21.844-26.292 34.545-21.193 40.681-29.946 87.38-29.463 132.936h473c-.86-39.924-1.221-79.844-4.174-119.674-5.389-64.96-12.889-130.053-28.833-193.38-23.11-91.88-72.26-179.57-146.97-239.42-17.67-14.298-36.982-26.663-57.378-36.682-8.2-3.51-16.365-7.21-24.712-10.356-6.755-3.241-16.479-4.127-21.27-8.275-1.061-27.432-8.405-54.967-24.83-77.494-7.517-11.21-17.615-20.477-28.666-28.09-6.644-5.625-13.648-4.935-21.236-4.629H1439c2.618 15.186 2.1 33.507 1.528 47.547-.857 14.949-2.054 30.084-6.528 44.453h-4c-4.381-18.572-13.757-36.314-29.216-48.11-7.194-5.874-15.048-10.87-23.671-14.359-9.72-4.212-20.877-1.694-31.113-2.531 3.299 19.104 7.985 38.158 7 57.753.826 19.785-2.976 39.277-8 58.247-17.364 7.82-36.226 21.63-47.05 35.438-18.533 24.553-22.431 56.221-32.704 84.288-4.9 13.905-11 27.67-19.408 39.84-8.9 11.503-15.98 24.25-22.256 37.33-15.336 33.42-24.136 69.539-40.255 102.617-3.467 5.806 2.489 11.72 5.009 16.471 13.591 19.71 24.667 41.078 38.908 60.338 12.376 15.86 33.274 21.175 52.525 20.675 32.93 3.807 52.318-25.858 68.364-46.193 8.749-11.455 18.784-21.763 29.25-31.649 4.842-4.522 11.163-9.901 17.392-10.869 7.746-.768 15.492-1.523 23.226-2.407 16.327-2.25 33.21-4.352 47.936-12.362 13.143-7.437 27.505-21.7 31.063-35.517m-295 659h33v-102h-33zm0 133c10.123-.898 22.684 1.218 31.753-.96 2.485-4.416.425-11.39 1.247-16.16V1871h-33zm0 129h33v-67.2c-.973-10.697 1.292-23.959-.958-33.551-4.874-2.58-10.544-.335-15.868-1.249H1202zm44 233c3.247.955 6.099 5.076 9.742 6.858 11.86 8.123 29.356 6.586 39.657-3.162 9.92-10.561 13.93-25.373 13.595-39.587-.108-28.267-14.637-54.33-32.77-75.071-9.668-10.994-23.23-21.66-34.1-29.433-5.814-4.296-11.98-8.108-18.117-11.896-3.253-1.66-6.978-4.56-10.4-4.052-4.04.58-8.197 3.083-11.607 4.343 22.84 47.29 44.096 98.217 44 152m-22-1114.5c6.04 10.492 11.249 21.764 17.684 32.102 4.447 7.542 9.758 16.818 15.97 22.082 5.75 4.377 14.402 5.58 20.774 6.129 11.23 1.107 23.207-.327 32.277-7.692 8.35-6.318 13.446-15.846 19.692-23.997 9.573-12.448 20.237-24.022 31.205-35.226 4.142-4.364 8.632-8.367 13.34-12.09 3.559-2.788 9.779-2.918 14.94-3.94 18.592-3.632 37.04-8.07 55.292-13.098 16.127-4.708 32.447-17.2 35.826-34.77h46c4.09 13.987 7.686 28.184 11.793 42.18 3.75 12.543 1.072 25.835-2.182 38.208-3.036 10.428-7.11 20.948-14.537 29.115-25.186 28.52-51.75 55.797-75.889 85.26-11.547 14.282-22.925 28.825-31.96 44.858-9.07 17.302-13.745 36.817-13.225 56.379h349.2c3.184-.078 8.526.296 8.444-3.525 1.914-104.56-8.11-211.049-45.198-309.613-24.58-65.704-64.657-127.18-121.122-169.85-28.16-20.952-59.407-37.85-93.066-48.097-4.231-1.058-9.155-2.372-8.002-8.414 1.722-16.1 3.156-35.602-.683-50.185-3.425-14.35-12.442-29.885-22.073-39.316-1.306 12.37.511 25.21-1.65 37.614-2.72 16.538-6.022 33.368-13.447 48.542-4.184 11.1-12.892 9.238-22.166 8.844H1403c.066-12.443-.034-25.039-3.303-37.139-2.696-11.168-9.92-20.256-18.197-27.861.79 18.567 3.062 37.908.443 56.67-2.216 15.085-4.39 30.705-11.582 44.408-3.572 5.714-9.723 9.178-14.727 13.464-9.035 7.193-20.278 17.848-25.992 25.285-12.159 18.312-17.987 39.904-25.521 60.285-4.52 15.259-9.69 30.575-19.811 43.143-30.145 37.794-37.957 88.665-60.31 130.245m51 16.5c3.266-13.396 9.923-25.82 17.777-37.045 4.142-5.65 9.167-10.56 14.228-15.379 2.438-2.44 5.547-4.114 7.95-6.583 3.265-2.77-.112-4.87-.955-7.993-17.682.584-36.338 4.29-49.947 16.523-6.237 5.908-11.054 13.304-14.136 21.29-4.078 9.402 1.613 16.846 8.851 21.726 4.697 3.594 10.02 7.468 16.232 7.461m147-218v-11c-14.897-3.357-29.288-9.648-44.68-10.475-10.942-1.045-24.65 1.05-33.125 6.886-8.301 5.535-7.77 14.11-7.113 22.405-.242 6.95 10.248 8.366 15.132 8.8 9.872.595 22.364 1.408 30.647-2.938 7.889-3.901 14.241-10.765 22.775-13.38 4.727-1.642 9.812-1.428 14.653-.58.56.091 1.151.189 1.711.282m293 1332c-23.542-11.972-46.499-25.896-69.917-38.264-11.904-6.161-23.42-13.046-35.247-19.34-6.024-3.14-11.777-6.74-17.795-9.884-5.784-2.804-11.27-7.495-18.041-7.512-18.817 46.911-47.421 89.477-77.576 129.755-23.73 29.59-48.663 58.533-77.35 83.509-5.268 4.709-10.716 9.169-16.295 13.503-2.703 2.114-5.364 4.324-8.057 6.433-6.83 4.597.039 11.019 3.161 14.49 1.928 2.342 6.947-1.273 9.202-.989 89.444-25.4 174.058-69.527 244.437-130.606 5.224-4.29 9.979-9.116 15.144-13.469 3.853-3.36 7.2-7.233 10.957-10.672 5.175-4.423 15.334.205 22.88-3.087 6.804-1.654 14.913-7.231 14.497-13.867m-42-916h63c.355-88.947-6.717-178.843-29.87-265.028-11.41-39.717-27.691-78.675-52.602-111.95-12.5-16.573-25.6-32.803-40.398-47.392-7.233-7.198-16.49-14.84-23.813-20.647-4.174-3.11-8.365-6.201-12.797-8.934-5.341-4.056-8.647.606-13.52 1.951.154 4.622 5.819 7.659 8.515 10.896 27.643 24.392 51.872 53.464 68.645 86.432 26.21 52.068 33.871 110.8 37.575 168.147 2.81 62.17 2.14 124.672-4.735 186.525m-38 500h99v-119h-99zm0 162h99v-134h-99zm0 149h99v-121h-99zm84.493 49.015c2.612 6.918 9.07 10.733 12.821 17.059 33.629 41.504 60.683 88.298 80.197 137.988 4.632 13.221 9.026 26.56 12.336 40.192.791 5.696 1.914 9.92 6.877 12.217 25.24 18.582 72.82 23.796 96.518-10.934 15.357-21.49 17.092-50.818 8.674-75.27-12.15-35.918-40.474-63.56-72.194-82.44-32.599-20.355-69.743-31.986-107.07-39.898-5.631-1.394-11.36-2.312-17.045-3.357-4.977-.789-12.045-2.895-15.998-1.023-2.026 1.397-5.289 3.34-5.116 5.466" style="fill:#fff;fill-rule:evenodd;stroke:none"/><path d="M449 2668h2102c-110.242-665.144-221.837-1330.12-332.532-1995.186-3.476-20.835-6.96-41.682-10.42-62.51-1.682-10.253-3.434-20.498-5.126-30.74-1.284-4.301-.763-13.077-5.037-14.575-157.034-52.902-314.464-104.735-471.586-157.384-59.003-19.668-117.989-39.359-177-59-12.991-4.38-26.002-8.647-38.997-13.002-3.112-1.025-6.191-2.224-9.42-2.795-5.85.042-13.257 4.126-19.018 5.393-97.504 32.546-195.061 65-292.567 97.54-73.178 24.36-146.325 48.77-219.478 73.159-54.841 18.294-109.718 36.516-164.531 54.86-6.415 1.276-7.163 6.488-7.57 12-26.516 158.994-52.99 317.976-79.524 476.964A2145928 2145928 0 0 0 449 2668m654-456c-1.364 39.564-6.86 81.981-30.426 115.207-3.914 6.112-9.708 11.334-14.672 16.253-14.279 18.907-28.663 50.96-1.679 73.321 16.746 13.666 42.98 11.64 58.477-3.075 23.233-22.835 28.489-58.11 26.832-89.216-1.444-32.02-9.62-63.368-19.737-93.618-1.235-3.995-2.747-7.863-4.254-11.757-.7-1.988-1.369-4.049-2.478-5.846-1.468-1.393-4.753-.933-6.38-1.263-1.88-.014-3.805 0-5.683-.006m-6-21c24.098.374 48.898 1.047 71.845-7.81 9.608-3.933 20.275-10.378 27.684-16.34 5.358-4.41 4.567-10.507 4.471-16.69V2132h140.4c5.678.724 14.426-1.224 18.6 1.5-3.454 19.57-.794 40.795-4.5 60.5-24.23-19.327-55.454-26.438-85-32-2.91 2.621-6.796 5.135-9.5 7.5 15.117 13.236 29.326 27.45 40.298 44.436 10.819 16.64 20.95 34.845 22.702 55.064 7.82 2.845 15.035 8.738 24 8-.726 20.106-5.005 39.917-8.23 59.698-2.73 14.288-6.236 28.425-11.281 42.076-3.673 9.44-8.411 19.057-16.61 25.428-14.505 9.399-32.878 6.63-49.185 6.233-16.91-1.076-33.835-1.9-50.694-3.435.291 4.46-1.562 11.699 4.43 13.33 4.57 1.57 9.202 2.971 13.745 4.604 17.146 6.781 34.952 17.477 42.698 35.25 3.832 9.584 5.852 21.699 6.481 31.1 1.321 10.187-.157 22.472 1.646 31.716 43.375.29 90.307-11.6 120.124-45.394 28.325-33.454 37.065-78.334 44.951-120.013 4.128-27.072 8.374-54.23 9.925-81.593h328.2c54.692-.47 109.448.573 164.124-.31 5.738-.614 12.314-3.9 15.279-8.41 3.218-4.892.65-8.977-2.992-12.143-25.874-25.892-51.26-52.303-79.111-76.137h-1.5c-8.185 16.99-22.576 31.165-31 48h-2v-369c.312-11.958-.382-23.988.21-35.921.01-5.546 9.42-3.742 12.737-4.079h58.518c13.978-.78 31.149 3.378 39.649-7.964 1.561-2.064 2.482-4.585 2.408-7.156-11.165-14.25-25.552-25.805-37.997-38.855-6.37-6.395-13.356-12.121-19.627-18.627-3.133-3.46-6.778-6.293-10.279-9.326-3.008-2.49-6.364-7.193-9.619-8.072-6.397 7.205-11.872 17.575-17.343 24.54-5.09 8.663-12.55 16.288-16.657 25.46h-2v-69c.072-5.8-.09-11.591.054-17.381-.224-5.807 4.989-6.002 8.949-6.861 9.786-1.827 22.017-9.453 21.997-22.758-47.804-1.942-95.204-10.062-143-12v143h-101v-96.6c-.083-4.092-.719-9.907 4.676-10.772 10.92-2.244 25.039-7.83 25.324-23.628-47.457-2.085-94.545-9.83-142-12v108c-.006 9.195.007 18.406-.004 27.597 1.25 9.201-7.899 7.557-14.118 7.403H1448c2.007 8.404 4.812 16.665 7 25 20.783.206 41.609-.251 62.376.136 5.245.021 4.63 5.937 4.624 9.856V2250h-63c.549-24.428 3.671-48.764 4.248-73.202.225-6.438.499-12.892.695-19.316.157-1.955.148-4.792 1.008-6.226 6.342-3.368 14.803-2.929 21.304-6.437 5.671-3.101 14.92-6.414 15.745-12.819-33.112-24.898-63.805-54.28-96.5-80l-31.102 31.102c-4.973 5.587-10.737 10.344-16.293 15.293-2.569 2.514-5.005 5.349-8.148 7.139-3.95.523-7.97.563-11.957.466v-92.4c-.476-5.23-.974-12.36 6.985-11.586 21.506-.039 43.034.007 64.53-.014h24.5c11.613-.319 29.687 3.652 34.488-13.259-3.215-7.6-13.895-13.348-18.978-19.716-10.177-9.365-20.76-18.318-31.19-27.398-5.179-4.56-10.513-8.935-15.726-13.453-5.153-3.286-10.66-10.618-15.609-12.174-6.997 12.217-17.19 23.091-24.957 34.948-6.978 7.757-12.835 19.045-19.836 25.566-4.938.798-4.237-7.085-4.207-10.072V1870h103.2c8.501.153 20.413-.982 26.058-10.826 3.638-6.495-7.972-11.97-10.99-16.407-15.358-15.165-32.176-28.77-48.462-42.904-3.358-2.946-6.719-5.9-10.197-8.689-3.04-1.658-6.412-6.527-9.434-6.678-4.99 3.2-8.637 10.945-12.576 15.374-6.1 7.996-12.018 16.113-17.94 24.234-2.908 4.056-6.008 7.955-8.95 11.983-2.541 3.572-4.795 8.277-10.709 7.913v-104h124.8c11.724.314 28.092.02 31.189-12.619 1.15-3.682-4.918-6.876-7.363-9.874-22.838-19.413-45.811-38.755-69.57-57.043-6.294-5.447-13.148-10.182-19.556-15.464-9.531 10.957-17.902 22.884-27.087 34.124-8.06 12.022-19.183 22.425-26.413 34.876h-118.8c-11.94 1.083-22.911-3.425-33.613-8.15A42146 42146 0 0 0 1097 1670zm48 14.458c9.698 32.713 13.42 67.236 14.162 101.264 1.023 6.432.043 12.847-.16 19.291.138 12.35-.771 24.67-2.37 36.905-.695 5.305-1.883 10.667-1.168 16.013 4.738 7.534 14.523 14.33 22.569 15.8 17.321 2.64 33.219-8.95 39.855-24.477 11.72-22.316 8.878-53.077 3.087-74.329-6.693-23.12-18.543-44.562-33.608-63.21-9.04-10.587-18.343-21.329-29.071-30.26-4.356-.21-9.804 2.04-13.296 2.545zM1496 1183h4c3.681 15.804 1.727 32.64-5.657 47.103-12.33 23.097-31.578 41.36-49.713 59.767-13.77 14.357-27.51 28.728-40.864 43.45-9.417 11.038-19.405 21.866-26.663 34.507-21.1 40.423-30.497 86.786-30.103 132.173h471c-1.095-39.823-1.094-79.683-4.334-119.42-5.242-64.549-13.025-129.221-28.802-192.144-23.082-91.371-71.88-178.544-146.058-238.239-17.39-14.357-36.577-26.516-56.696-36.65-8.064-3.722-16.296-7.116-24.506-10.468-6.985-2.768-15.693-4.772-21.92-7.758-2.756-2.023-1.003-7.958-1.749-10.645-1.374-25.56-11.295-50.191-26.107-70.818-7.514-10.242-16.96-18.824-27.503-25.836-6.302-4.931-12.757-4.25-19.786-4.022-6.791.597-13.83-.764-20.539.5 1.748 2.926.92 7.8 1.508 11.67 1.018 25.824.262 56.9-6.508 79.83h-6c-7.618-37.808-42.883-68.765-82-65 9.08 38.008 9.92 78.261-1 116-17.364 7.82-36.226 21.63-47.05 35.438-18.533 24.553-22.431 56.221-32.704 84.288-4.9 13.905-11 27.67-19.408 39.84-8.9 11.503-15.98 24.25-22.256 37.33-15.276 33.278-24.048 69.246-40.073 102.19-2.864 5.522 3.224 11.502 5.671 16.244 13.49 19.536 24.458 40.8 38.729 59.804 12.607 15.406 33.369 20.344 52.427 19.865 7.489.27 15.249.223 22.115-3.27 22.67-11.11 35.576-33.848 51.373-52.164 8.002-8.99 17.924-19.262 26.316-26.452 10.017-8.88 24.515-7.461 37-9.365 16.138-2.33 32.803-4.443 47.31-12.507 12.871-7.52 27.07-21.551 30.55-35.241m-295 661h35v-104h-35zm0 133c10.77-.973 24.105 1.294 33.757-.963 2.541-5.395.359-11.03 1.243-16.768V1870h-35zm0 129h35v-86.4c-.129-4.384.18-8.77-.155-13.143-.158-6.63-11.674-3.732-15.723-4.457H1201zm2 81.363c13.354 21.969 22.21 46.575 30.487 70.807 8.123 25.48 13.511 51.983 13.513 78.83 3.114.9 5.87 4.795 9.321 6.575 11.483 8.566 28.602 6.853 38.43-3.236 9.339-10.263 13.432-24.344 13.233-38.042-.35-27.394-14.189-52.688-31.698-72.929-9.53-11.388-23.418-22.162-34.33-30.144-5.964-4.41-12.204-8.382-18.514-12.25-3.075-1.372-7-4.72-9.678-4.05-3.758.559-7.592 2.925-10.764 4.076zM1482 1154h44c4.088 13.98 7.676 28.148 11.78 42.138 3.841 12.49.244 27.938-3.026 39.078-5.55 21.557-22.865 36.183-36.884 52.177-22.43 23.485-43.613 48.1-63.937 73.425-9.203 12.594-18.807 25.322-24.829 39.811-7.002 15.426-9.298 32.583-9.104 49.371h350.4c2.937-.12 8.927.486 9.146-2.992 2.323-105.36-7.884-212.791-45.1-312.146-24.98-66.132-65.274-128.608-122.813-171.03-28.365-21.374-60.42-37.457-94.315-47.925-5.73-1.402-5.712-6.029-4.433-10.565 1.81-16.323 1.907-36.009-2.24-50.59-4.044-14.763-13.325-28.124-23.645-38.752.733 23.419-.014 48.918-7.926 71.697-1.514 5.495-3.493 10.904-5.97 16.037-1.7 3.646-3.675 7.42-7.003 9.808-13.965 1.232-28.103-.164-42.101.458.762-21.482-.346-51.745-25-66.75 6.069 31.973 3.348 72.173-8.123 99.883-2.846 6.697-8.94 10.98-14.597 15.144-10.12 7.983-21.205 18.138-28.253 27.394-13.463 21.015-20.841 49.842-28.77 71.026-3.03 10.42-7.533 20.362-14.12 29.015-26.444 32.08-36.217 73.447-52.022 110.896-2.907 7.073-6.391 13.919-9.154 21.048-1.842 2.582 2.077 7.324 2.721 9.682 6.507 12.137 13.17 24.288 20.487 35.948 3.278 4.948 6.738 10.035 11.996 13.08 10.585 5.229 25.223 5.188 35.686 4.093 22.29-3.918 29.437-23.65 42.543-38.988 10.143-10.966 20.026-22.145 30.495-32.794 4.124-3.613 8.806-8.331 13.785-9.276 20.2-3.062 39.963-8.143 59.713-13.252 17.939-4.1 36.954-16.486 40.613-36.149m-208 85c5.847-24.676 21.83-45.767 42-60.5-1.32-1.315-2.607-2.645-3-4.5-17.43 1.127-36.126 4.694-49.086 17.615-5.856 5.974-10.588 13.202-13.312 21.133-3.708 8.245 5.28 16.123 11.204 20.352 3.567 2.476 8.11 5.489 12.194 5.9m146.5-218c.804-2.917.308-6.016.5-9-14.878-3.45-29.284-9.55-44.663-10.47-11.017-1-25.163 1.738-33.063 8.456-5.573 5.052-7.037 16.965-3.92 23.163 5.355 4.1 12.586 4.542 19.068 4.805 9.489.931 19.214.426 27.195-5.393 7.33-4.917 14.362-11.364 23.608-12.322 3.297-.09 7.426-.579 10.373.297.268.2.646.38.902.464M1392 2516.563c1.453 3.293 5.244 6.798 7.5 10.437 58.527-16.643 115.91-39.623 167.57-72.335 25.598-15.773 50.298-33.017 73.59-52.036 11.351-10.043 23.133-19.62 33.71-30.499 5.51-7.11 14.647-3.205 21.852-4.564 6.846-1.357 16.948-5.643 17.778-12.566-23.252-11.746-45.819-25.648-69.003-37.704a4424 4424 0 0 1-34.872-19.246c-11.686-4.906-23.75-15.204-35.125-18.05-18.723 46.767-47.22 89.168-77.24 129.327-30.732 39.647-65.763 76.312-105.76 106.673zM1564 987.75c27.77 25.414 55.346 52.696 73.095 86.624 28.028 52.099 37.447 111.83 41.094 170.078 2.853 32.38 1.372 64.957 1.811 97.398.154 31.814-2.292 63.59-6 95.15h61c.336-88.295-6.97-177.477-29.87-263.028-11.334-39.411-27.441-78.045-52-111.169-12.499-16.537-25.428-32.847-40.232-47.405a314 314 0 0 0-23.295-20.426 167 167 0 0 0-12.803-9.11c-5.183-4.295-8.2-.421-12.8 1.138zm70 951.25h101v-121h-101zm0 162h101v-136h-101zm0 149h101v-123h-101zm86 47.5c47.269 57.129 88.144 122.418 105.992 195.372.915 10.1 8.975 13.464 17.337 17.802 15.296 7.789 33.362 11.47 50.248 6.563 24.31-6.25 42.145-28.849 45.91-53.152 4.674-24.836-3.11-50.713-16.978-71.36-17.88-30.101-53.066-53.42-81.381-67.163-34.327-16.615-71.855-25.755-109.24-32.351-5.286-1.518-7.998 1.394-11.888 3.789z" style="fill:#000;fill-rule:evenodd;stroke:none"/></svg>