<svg xmlns="http://www.w3.org/2000/svg" width="3000" height="3000"><path d="M406 2716h2188c-.452-13.213-4.171-26.125-5.71-39.208C2468.846 1960.196 2349.431 1243.585 2230 527c-109.325-35.987-218.457-72.878-327.734-109.071-95.467-31.86-190.966-63.65-286.44-95.486-21.006-7.01-42.008-13.98-63-21l-30.529-10.183c-9.47-3.025-21.252-8.92-30.35-5.086-156.884 52.344-313.79 104.58-470.681 156.897-58.813 19.64-117.642 39.186-176.447 58.829-13.016 4.296-26.007 8.68-39 13-6.335 2.066-12.631 4.23-18.954 6.3-3.19 1.104-6.385 2.128-9.576 3.212-7.976 1.527-8.94 7.943-9.29 14.656-63.894 383.21-127.754 766.408-191.617 1149.624-28.466 171.167-57.103 342.324-85.568 513.49-14.29 85.674-28.582 171.345-42.844 257.017-7.145 42.829-14.299 85.67-21.418 128.502-3.57 21.335-7.128 42.665-10.66 64.002-1.808 10.66-3.57 21.336-5.34 31.998-1.36 10.463-4.53 22.595-4.552 32.299m626.344-1389c30.408-15.3 59.296-34.05 87.117-53.649 14.473-9.686 27.823-20.908 41.363-31.802 7.014-5.546 13.318-11.909 20.316-17.464 3.348-2.825 6.217-6.186 9.556-9.017 3.144-2.338 6.928-6.692 10.304-7.068-1.84 25.774-.302 51.704-2.228 77.49-2.117 36.773-4.137 73.73-12.37 109.795-3.905 15.937-9.96 35.186-20.05 46.798-5.553 6.47-15.465 10.125-23.157 9.91-4.776.018-9.537-.002-14.3.007-3.926-.68-10.608 1.27-11.895-2h-1.5c-4.039 3.563-11.635.499-17.446.973-18.667-1.34-37.326-2.967-56.054-2.973.12 3.245-.593 8.984 2.955 9.728 3.257 1.447 6.827 1.982 10.117 3.324 24.28 8.067 48.535 23.68 59.266 47.882 9.739 26.47 9.646 55.324 10.662 83.066 26.59.017 53.699-2.038 79.18-10.226 17.416-4.934 36.584-15.467 48.552-27.014 38.193-42.12 53.95-98.953 62.743-153.646 10.359-62.761 12.655-126.741 11.02-190.258-3.16-91.132-12.753-183.884-46.754-269.336-7.796-19.957-16.869-39.449-27.971-57.792-1.852-3.522-4.869-7.348-5.855-10.895-1.731-3.394 4.532-6.73 5.796-9.08 19.166-21.361 39.809-41.37 57.414-64.144 9.687-10.265 17.212-22.42 26.82-32.687 2.659-2.228 7.108-.718 10.866-.966 9.988.113 23.676-3.12 26.189-13.956-50.361-26.012-98.766-56.786-149-83-2.243 11.861-7.377 23.052-11.167 34.443-7.198 20.182-15.684 39.836-24.3 59.423-3.438 7-6.123 14.318-9.692 21.254-.95 1.356-1.813 3.567-3.577 3.38-19.915-16.367-39.994-34.009-62.089-47.862-10.602-7.207-21.69-13.644-32.667-20.245-5.553-3.149-10.976-6.582-16.665-9.474-2.732-1.612-6.203-2.947-8.677-4.426-3.02-.014-6.143 4.127-7.166 6.007 30.999 33.61 60.184 69.457 81.732 110.031 4.14 7.759 8.692 17.043 12.19 24.307 4.356 7.655-3.922 16.554-6.885 23.125-29.435 52.294-61.81 103.194-101.65 148.322-3.127 2.69-.963 7.204 2.294 9.228 2.4 2.772 7.258-1.944 9.465-2.598 22.46-13.04 45.062-25.982 66.227-41.091 10.96-7.25 21.544-15.054 31.97-23.043 5.211-4.191 10.564-8.175 15.809-12.3 4.81-3.38 10.644-10.238 15.848-10.481 3.828 18.227 10.938 36.865 5.585 55.558-12.243 62.299-33.34 122.554-59.67 180.175-13.016 28.09-28.129 55.142-44.39 81.456-8.389 12.575-16.617 25.259-25.525 37.477-4.508 6.091-9.14 12.126-13.677 18.18-2.48 2.97-5.058 5.83-7.3 8.982-2.604 2.968-.044 6.032 2.32 8.172m1.656 495.47c.65 3.163 2.635 6.54 3 9.53 54.94-5.986 109.243-16.788 163.221-28.355 3.35-.65 7.207-2.123 10.37-2.011 2.792-.753 4.413 4.05 5.58 5.713 10.926 21.535 20.824 44.636 21.611 69.21.46 6.06-.74 14.145 3.597 17.991 13.498 11.548 30.945 17.574 48.621 16.452v2c-1.17 1.6-3.096 2.032-5 2-1.137 5.217-8.533 8.48-12.63 12.726-35.982 28.345-73.3 55.213-112.287 79.29-39.71 24.027-80.273 48.041-123.083 65.984.406 4.035 3.372 8.113 5.5 11 47.305-9.545 94.783-19.284 140.77-34.213 17.268-4.703 34.029-10.945 50.94-16.703 7.576-2.673 15.076-5.551 22.575-8.397 3.266-1.34 6.536-2.622 9.862-3.785 2.674-.72 7.084-2.961 8.726-.043.606 5.61-6.525 11-9.767 16.359-31.615 38.842-67.264 74.204-104.255 107.799-36.736 32.113-75.78 61.537-118.351 85.483 1.381 1.886 2.46 4.436 3 6.5 93.844-19.02 183.19-56.109 270-95 .318 3.98 1.467 8.933-.711 12.096-36.332 50.036-81.459 93.079-128.22 133.167-45.696 39.321-95.812 73.19-149.069 101.237 1.795 2.322 2.534 5.245 4.5 7.5 48.47-11.07 96.744-23.466 143.632-40.206 23.45-8.002 46.568-16.916 69.51-26.26 10.868-5.038 22.142-9.097 32.912-14.317 5.774-2.484 11.444-5.152 17.175-7.721 5.261-1.981 10.933-6.314 16.271-6.496-1.113 30.55-5.443 61.318-13.752 90.737-2.235 7.035-4.453 14.098-7.941 20.625-2.305 4.668-5.506 10-8.966 13.357-6.226 5.208-16.215 5.983-23.253 6.252-8.073-.146-19.461.881-25.588-1.971-3.234 3.08-8.972 1.244-13.023 1.297-32.884-1.065-65.658-4.258-98.477-6.297-.956 8.187 4.765 9.159 10.746 10.418 25.931 9.055 54.687 18.905 71.804 41.897 17.6 23.917 18.865 54.442 20.45 82.685 30.087.26 60.308-1.553 89.863-7.468 21.049-4.183 42.241-11.265 59.082-25.068 24.226-18.836 39.383-52.971 47.595-78.836 10.396-32.43 13.318-66.414 14.97-100.172.683-47.204-7.042-95.93-19.81-141.596-19.053-64.116-50.319-125.252-94.072-176.074-5.5-6.746-12.154-12.443-18.103-18.761-2.376-2.236-7.06-6.758-3.232-8.78 25.105-11.488 50.14-23.227 74.537-36.173 12.016-6.456 26.041-14.233 36.728-20.728 5.864-3.493 11.77-6.94 17.487-10.663 5.528-2.537 11.878-8.855 16.955-9.681-.29 5.343-3.89 9.776-5.502 14.726-14.637 31.047-31.988 60.99-50.498 89.774 2.47 2.22 5.237 4.04 7.5 6.5 74.666-44.053 141.74-104.149 190.5-176h188c-3.676 99.21-7.81 198.447-16.343 297.377-3.91 47.73-9.215 95.412-17.78 142.552-4.818 23.655-9.406 47.766-19.314 69.94-4.707 10.211-10.406 20.377-20.048 26.724-4.818 3.327-10.01 6.191-15.63 7.889-4.999 1.103-12.855 3.324-16.385.518-4.438 4.11-12.91 1.192-17 0-2.908 2.8-8.488 1.556-12.947 1.572-6.948-.327-13.916-.643-20.863-.92-3.472-.142-6.93-.287-10.393-.428-2.99-.13-6.232-.021-7.797-2.224-2.932 2.669-7.16 1.427-10.906 1.278-26.56-1.237-53.081-3.268-79.594-5.278v9c36.885 6.628 73.9 19.56 103.666 42.999 15.462 11.379 25.177 28.831 29.27 47.328 5.3 19.773 6.355 40.326 6.064 60.673 32.25.471 64.87-2.27 95.76-12.105 41.914-14.425 79.076-44.644 98.689-84.78 20.15-42.364 28.978-88.987 36.99-134.821 12.87-79.74 18.154-160.405 23.426-240.874 2.18-42.048 4.3-84.12 6.135-126.18.895-21.2 1.75-42.399 2.326-63.6.237-4.565-.403-11.245 5.742-11.956 7.277-1.43 14.559-3.208 21.296-6.398 3.358-1.552 6.557-3.403 9.534-5.581 2.676-1.661 5.591-4.98 8.102-5.705v-1.5c-38.498-36.91-80.608-69.977-118.5-107.5-13.866 14.205-32.475 28.966-42.738 44.246-4.93 5.958-10.863 10.983-16.132 16.624-4.9 4.419-9.875 10.576-14.791 14.133-6.205 1.927-13.41.4-19.873.997H1617c.296-4.046 3.399-7.074 5.192-10.475 14.17-24.502 27.699-49.419 39.305-75.236 3.17-6.304 6.113-12.709 8.57-19.323 2.432-4.881 3.967-10.218 6.666-14.959 2.086-3.856 7.805-2.763 11.448-3.21 12.324-.278 23.085-7.569 28.819-18.297-47.47-14.736-95.593-27.777-143.159-42.272-6.326-1.579-12.475-3.696-18.733-5.473q-4.132-1.22-8.283-2.362c-2.212-.637-5.104-1.372-6.394.377-5.953 37.598-12.97 75.218-22.812 112.037-11.674 43.835-26.03 87.013-42.619 129.193-5.15-.097-8.93-4.191-12.992-6.751-26.676-18.388-52.696-38.202-79.508-56.249-6.213 6.895-11.485 14.609-18.14 21.126-6.63 6.103-11.662 16.447-21.36 15.874-.719-39.901-41.403-59.597-70.944-68.634-2.139-.52-4.03-1.473-4.056-4.366 30.684-7.734 60.752-18.237 90.504-28.968 7.629-2.777 15.096-5.926 22.641-8.9 4.896-2.12 10.569-5.087 16.956-2.881 17.124 4.968 38.044 6.313 52.899-5.751-43.417-33.102-88.603-64.039-132.5-96.5-40.894 38.138-87.313 69.894-134.323 99.881-48.134 29.616-97.624 58.033-150.177 79.119zm40 16.53c2.653 10.58 10.14 19.616 13.862 29.834 7.264 17.15 14.987 34.249 19.69 52.337 3.724 13.853 6.936 27.845 7.89 42.206-.03 6.37 4.158 9.346 8.873 12.173 14.973 11.66 34.927 15.407 52.944 9.452 17.253-5.257 32.171-18.073 37.457-35.678 11.828-33.751-15.118-63.361-38.232-78.948-26.358-17.563-57.152-26.872-87.914-33.195-5.569-1.728-10.023-.948-14.57 1.819m206-308.5c2.08 8.514 5.272 16.897 7 25.5h616.8c14.62-.015 29.233.018 43.837-.01 12.163-.612 28.306 1.178 35.363-14.49-22.583-33.084-49.659-62.98-75.5-93.5-4.858 9.742-10.623 19.203-15.492 28.974-2.329 4.36-4.942 8.559-7.027 13.053-1.08 1.83-2.436 4.793-4.179 5.476-5.265-.392-3.258-9.086-3.802-12.2V1253c11.57-2.506 24.073-3.836 34.014-11.058 2.432-1.469 4.407-3.461 6.388-5.427.672-3.918-6.614-5.905-8.395-8.26-3.241-2.453-6.648-4.7-10.025-6.932-10.55-7.545-21.438-14.592-31.92-22.219-22.706-15.672-45.53-31.213-68.062-47.104-11.766 13.78-22.155 29.02-33.727 43.018-5.197 5.869-10.043 13.88-15.1 18.99-3.4 2.735-8.09 1.764-12.18 1.992h-201.246c-16.769-.18-33.546.219-50.301-.118-10.974-1.899-20.946-7.899-31.545-11.103-30.237-12.366-61.395-22.988-91.401-35.779-1.426 120.21.26 240.72-.5 361h-83zm52-573.5h229v85.8c-.402 6.111 1.065 14.248-2.334 18.688-3.606 5.003-10.102 4.468-15.066 4.512-39.597-.005-79.036-4.766-118.6-6 .447 3.214-.97 9.361 2.43 10.573 3.37.687 6.817 1.43 10.223 2.056 13.65 2.983 29.7 7.388 41.13 13.31 17.782 9.368 33.387 23.672 41.306 42.447 8.398 20.876 8.113 43.921 12.411 65.614 27.797-3.656 56.729-5.892 83.674-14.899 19.565-6.133 38.717-15.522 52.922-30.708 10.78-11.117 16.406-26.017 20.204-40.686 12.358-49.397.442-102.132 7.2-151.707 11.508 1.656 23.193.678 34.771 1h184.007c10.1.147 20.226-.164 30.304-.827 8.802-.244 18.064-4.727 21.418-13.267-38.744-32.871-78.865-64.408-119.5-94.906-11.896 13.178-21.82 28.056-33.343 41.55-10.044 14.16-22.7 27.043-32.157 41.45h-87v-57c12.296-1.962 28.673-4.697 32-22-2.296-.615-4.628-.993-7-1v-3c7.97-1.187 15.43-4.574 22.995-7.121 26.656-8.783 52.6-19.502 78.188-30.975 12.981-6.074 25.912-12.237 38.691-18.739 12.525-4.642 30.175-1.727 38.126-13.665-20.726-17.23-41.501-34.38-62.194-51.637-21.148-16.318-40.593-35.455-62.306-50.863-19.863 22.175-41.24 43.026-62.048 64.067-1.64 2.496-3.549 4.89-6.08 6.538-6.125 2.868-12.651.387-19.2 1.395H1396c2.28 7.693 4.657 17.077 7.918 23.714 3.706 2.374 9.782.62 13.859 1.286H1703c-1.404 7.146-7.816 13.883-10.148 20.03-6.345 10.856-12.61 21.73-19.623 32.163-2.824 4.042-5.393 8.216-8.212 12.26-2.88 3.008-4.759 8.376-8.562 9.085-31.783-1.877-63.686-4.91-95.455-7.538v93h-236c1.37 8.866 5.072 17.272 7 26m127 1151.25c2.084 8.252 4.82 16.514 7 24.75h227.4c12.628-.081 25.247.1 37.863-.055 9.796-.372 23.964-2.26 27.737-14.484-37.79-40.434-77.076-79.675-117.5-117.461-20.515 30.686-39.414 62.506-59.473 93.49-2.484 3.51-4.525 8.4-7.635 10.987-3.031 2.91-9.688.626-14.086 1.523h-76.763c-8.092 1.014-17.998-1.347-24.543 1zm17-578.25h33v-288h-33zm120 0h39v-288h-39zm129 0h34v-288h-34z" style="fill:#fda;fill-rule:evenodd;stroke:none"/><path d="M291 2812.5c402.66 1.426 806.125-.26 1208.95.5 402.946-.76 806.184.926 1209.05-.5-66.691-393.12-131.048-787.321-197.186-1180.681C2447.104 1239.148 2380.056 846.747 2316 454c-136.143-44.935-272.089-90.768-408.181-135.9-102.008-33.974-204.008-68.03-306-102-19.182-6.399-38.38-12.77-57.553-19.171-8.997-3.033-18.01-5.99-27-9-7.928-3.04-16.863-7.25-26.38-2.738-134.51 44.908-269.079 89.643-403.589 134.55C952.797 364.27 818.541 409.675 684 454c-64.117 393.376-131.371 786.397-196.109 1179.703C421.811 2026.161 357.548 2420.573 291 2812.5m116-97.5h2186c-120.11-729.14-243.257-1457.94-364-2187-109.157-35.927-218.092-72.748-327.181-108.9-95.331-31.722-190.626-63.585-285.954-95.3q-31.498-10.534-63-21l-30.566-10.195c-9.852-3-21.422-9.034-30-5.21-156.482 52.2-313.005 104.314-469.48 156.505-58.858 19.6-117.69 39.211-176.522 58.84-12.832 4.262-25.65 8.528-38.47 12.817-6.336 2.128-12.684 4.227-19.008 6.343-5.33 2.846-14.097 3.151-17.405 7.24-66.013 385.799-128.474 772.546-193.688 1158.548C521.372 2030.17 462.67 2372.459 407 2715" style="fill:gray;fill-rule:evenodd;stroke:none"/><path d="M1112 1451.375c1.598 1.335 5.25.284 7 .125-.576-.726-.932-1.572-1-2.5-2.258-.224-4.602.48-6 2.375m127 980c2.087 1.202 6.248.423 8 .125-2.313-3.215-5.867-3.048-8-.125M1275 2023c3.184-.304 4.158-3.32 4-6-2.065-.066-4.023.55-6 1 .221 1.822 1.776 3.187 2 5m7-108.75c.474.629 1.383.896 2 1.25-.97.963-1.822 2.113-2 3.5 2.306-.245 3.68-2.74 6-3v-2c-1.92.157-4.279-.234-6 .25m61-51.25c3.12.128 6.672-3.59 7-6-2.288.708-4.783 1.206-7 0zm102.5 487c2.369-2.479 2.152-6.023 1.973-9.144-.424-2.835-.088-7.365-2.473-8.856.594 5.922-.76 12.179.5 18m162.5 55.375c1.313 1.294 4.548.31 6 .125-.576-.726-.932-1.572-1-2.5-1.935-.116-3.8.866-5 2.375m52 2c2.087 1.202 6.248.423 8 .125-2.313-3.215-5.867-3.048-8-.125m17 0c1.57 1.227 5.3.398 7 .125-2.051-2.971-5.085-2.827-7-.125M1710.5 740c3.095-1.31 6.58-5.532 7.5-8-3.43.372-8.352 4.895-7.5 8m24-25c2.763-1.046 5.864-4.757 6.5-7-3.137.42-7.508 3.894-6.5 7m23-24c2.763-1.046 5.864-4.757 6.5-7-3.137.42-7.508 3.894-6.5 7m48.5 1110.25c.047.678.167 1.205.75 1.75 8.304-6.29 14.84-15.105 22.725-21.975l11.258-11.258c3.73-3.598 7.601-9.074 12.267-7.767v-1.5a11.3 11.3 0 0 1-2.5-3.5c-15.672 12.76-32.548 30.21-44.5 44.25m70-299.25h3c.565-2.416 2.72-4.469 3-7.5-4.89-.629-3.876-7.383-4-11.316.76-76.59-.926-153.768.5-230.184h-2.5z" style="fill:#f2d3a5;fill-rule:evenodd;stroke:none"/><path d="M1724 1530h2v-287h30v-2c-10.18 1-22.897-1.333-32 1z" style="fill:#7f6e55;fill-rule:evenodd;stroke:none"/><path d="M1026 1321.5c.941 2.706 4.43 4.921 6.5 7.5 29.908-16.422 59.527-33.879 87.117-54.057 29.067-18.727 54.214-43.776 80.383-65.615-1.967 16.027-.23 32.278-1.408 48.367-.574 27.196-2.326 54.355-4.667 81.444-2.25 19.02-4.673 38.11-8.916 56.806-3.356 13.69-7.836 27.297-15.261 39.364-5.28 9.019-15.086 15.533-25.764 15.651-34.398.886-68.644-3.313-102.984-3.96.208 4.556-1.095 10.912 3.774 12.089 4.26 1.365 8.59 2.538 12.737 4.228 23.699 7.27 48.526 27.023 56.612 48.676 8.94 25.949 8.847 53.971 9.877 81.007 27.095.057 54.733-1.808 80.741-10.085 17.56-4.996 36.916-15.458 48.991-27.155 38.705-42.697 54.448-100.382 63.106-155.831 14.929-92.544 13.177-187.19 4.98-280.262-8.968-86.405-28.88-173.795-75.818-248.167 33.22-33.04 62.918-69.256 92.5-105.5 12.237 3.824 27.667.012 35.138-10.67.57-.83.987-1.743 1.362-2.662-49.38-29.657-100.973-56.182-150.5-85.668-14.492 40.303-28.97 81.892-49 120-36.25-33.69-78.258-61.427-122.176-84-2.39 2.972-5.293 5.338-8.324 7.5 21.69 23.418 42.913 47.325 60.684 73.988 12.923 19.695 24.96 39.887 34.748 61.361 2.982 4.42 2.074 8.923-.973 12.346-16.163 28.576-32.627 57.012-50.802 84.346-9.218 13.824-19.117 27.196-29.129 40.436-5.058 6.752-10.371 13.265-15.725 19.777-3.953 6.375-12.405 13.169-14.803 18.912 2.308 2.316 4.792 5.798 7.313 8.334 49.376-24.726 94.336-58.372 137.687-92 3.647 17.682 10.67 35.691 5.533 53.798-12.026 60.905-32.385 119.928-58.053 176.323-25.215 54.754-56.957 107.012-95.48 153.379m10 511.5c58.963-6.554 117.654-17.47 175.396-31 12.653 20.865 23.658 48.842 25.132 71.434.91 6.427-.4 14.786 2.221 20.288 12.892 14.035 32.399 18.123 50.251 18.778-38.288 31.894-78.742 61.063-120.746 87.857-42.513 27.744-87.6 51.177-133.254 73.143.973 3.742 3.871 7.427 5.892 10.193 2.37 2.535 8.238-.95 10.929-.58 77.447-13.609 153.143-36.317 226.179-65.113v1.5c-33.045 42.116-69.37 81.709-109.451 117.224-39.038 34.608-80.496 67.523-126.549 92.276.465 3.538 2.639 7.392 4.5 10 45.817-12.246 92.585-24.01 137.207-40.746 44.443-16.165 88.83-33.32 130.793-55.254 3.09 7.961-1.78 13.217-6.497 18.666-33.658 43.807-73.157 82.671-114.96 118.622-30.623 26.837-63.225 51.252-97.406 73.32-12.64 7.997-25.482 15.698-38.593 22.869-5.7 3.385-11.722 6.21-17.443 9.536-3.307 1.512-1.32 6.151.39 8.37 1.376 2.996 5.39 2.107 8.037 1.373 94.434-19.958 185.793-52.784 272.972-93.756-.759 24.171-4.46 48.179-9.203 71.833-4.536 16.77-8.62 34.61-19.457 48.669-8.36 10.417-26.37 7.84-37.67 8.498-41.675.046-83.091-5.159-124.67-7 .459 3.095-.863 8.934 2.704 9.776 3.547 1.525 7.411 2.186 10.992 3.624 25.134 9.348 53.632 18.9 69.644 42.14 16.99 23.699 18.06 53.709 19.66 81.46 30.315.33 60.742-1.308 90.542-7.199 21.205-4.051 42.528-11.078 59.633-24.71 24.708-18.782 40.066-53.355 48.365-79.463 9.756-32.997 14.493-67.443 14.46-101.843.987-65.057-11.804-130.329-36.127-190.614-23.059-56.631-56.4-109.436-100.873-151.671 24.537-12.4 50.516-22.731 74.562-36.286 24.691-12.285 48.208-27.357 71.438-41.964-16.07 35.8-35.21 70.579-57 103.25 3.117 2.731 8.042 7.844 11.618 6.367 4.432-1.717 8.201-4.799 12.408-6.952C1491.164 1986.648 1553.397 1929.81 1599 1862h186c-5.239 123.722-9.556 247.734-24.037 370.827-3.997 30.198-7.946 60.469-14.86 90.174-4.952 21.63-10.738 43.828-23.305 62.468-9.69 13.935-26.63 21.04-43.118 21.425-53.33.446-106.514-4.826-159.68-7.894v11c37.287 6.63 74.545 19.875 104.509 43.647 15.532 11.714 24.671 29.484 28.826 48.122 2.235 9.865 3.755 19.931 4.831 29.988.287 5.231.566 10.495.77 15.73.598 4.764-.912 10.962 1.564 14.513 6.72-1.87 13.905-.43 20.747-1.098 24.742-1.34 49.617-4.102 73.418-11.37 38.488-12.772 73.732-38.509 94.5-73.8 15.623-26.716 24.014-56.872 31.57-86.618 21.126-94.476 27.572-191.452 34.25-287.731 3.513-44.578 4.268-89.272 6.915-133.89.76-22.565 1.892-45.087 2.351-67.652.205-5.654-.257-12.646 5.817-13.157 14.692-2.34 30.259-8.7 39.932-20.184-19.652-18.46-40.26-35.878-60.08-54.147-9.739-9.398-20.24-17.902-30.15-27.094-10.236-8.435-19.559-18.544-30.27-26.259l-43.475 43.475-16.5 16.5c-4.802 4.28-9.624 10.35-14.426 13.813-6.227 2.426-12.573.402-19.149 1.212-45.923-.76-92.113.926-137.95-.5 16.785-24.823 29.312-52.163 42.639-78.852 3.056-6.959 6.47-13.755 9.242-20.829 2.206-5.378 4.58-10.688 6.864-16.031 2.02-5.205 6.763-4.981 11.329-4.909 10.906-.567 26.665-6.35 29.926-20.879-59.475-16.633-118.596-35.019-178-52-12.74 83.457-34.53 165.626-66 244-31.609-19.246-60.471-43.687-91.5-64-12.572 14.093-24.099 29.126-38 42-.359-19.18-8.512-38.23-24.695-49.508-7.253-5.641-15.254-10.258-23.469-14.331-4.514-2.157-9.207-3.834-13.806-5.758-4.116-1.89-10.504-2.668-13.53-4.903 31.052-9.361 62.443-18.476 92.734-30.273 7.731-2.843 15.305-6.141 22.98-9.106 9.73-4.99 23.686 2.466 36.006 1.86 6.012-.04 12.082-.71 17.83-2.49 4.904-2.236 13.153-4.243 14.45-9.491-23.037-14.795-44.746-32.705-67.448-48.237-22.292-16.329-44.949-32.207-67.052-48.763-40.83 38.425-87.4 70.158-134.443 100.322-48.41 29.796-98.188 58.531-151.057 79.678.015 4.207 2.243 7.949 3 12m36 6.367c10.193 21.25 21.488 42.262 28.898 64.799 5.387 16.323 10.966 35.893 12.685 51.623.674 6.431-.128 14.716 6.814 18.722 9.149 6.793 19.544 12.23 30.977 13.857 17.296 2.457 35.657-3.17 48.819-14.502 12.788-10.404 20.303-30.74 18.056-45.622-2.74-29.285-25.941-51.493-50.321-64.775-24.824-14.48-53.173-21.915-81.057-27.797-5.61-1.934-10.533-.144-14.871 3.328zM1286 1557h637.8c16.17-.93 36.508 2.125 50.659-3.793 5.4-2.376 10.475-9.423 8.154-14.466-22.263-32.966-49.52-62.407-75.113-92.741-11.174 17.588-19.353 37.103-30 55l-.5-1.708V1254c8.318-1.203 16.721-2.671 24.554-5.819 6.64-2.885 16.014-7.056 18.446-13.869-40.22-28.477-81.23-55.928-121.5-84.312-11.472 14.347-22.343 29.226-33.86 43.548-5.17 5.96-10.169 13.847-15.093 19.143-3.24 2.912-7.877 2.231-11.955 2.309h-202.441c-16.919-.807-34.029 1.002-50.895-.582-41.16-14.143-81.13-32.341-122.256-46.418v361h-83c.685 9.653 5.751 18.463 7 28m37-625.75c3.42 8.47 4.96 18.073 8 26.75h229v85.2c-.185 6.063.92 13.983-2.997 18.071-3.576 4.303-10.664 3.736-15.58 3.729-39.224.064-78.228-5.212-117.423-6 .69 3.744-1.385 10.93 2.408 12.56 4.228.84 8.53 1.759 12.772 2.575 26.816 5.14 53.517 16.52 70.54 38.858 8.71 10.792 12.873 24.28 15.245 37.685 2.566 14.69 4.787 29.463 6.035 44.322 27.976-2.896 56.133-5.778 83.213-13.937 19.138-6.066 38.316-14.369 52.889-28.665 22.515-22.06 27.05-55.848 28.86-85.628.126-34.287-.04-68.549.049-102.828.034-2.406.046-4.943 1.489-6.942 8.721 2.058 17.945.275 26.786 1 67.178-.007 134.323.009 201.49-.005 14.521-.765 35.723 2.055 41.375-13.122 1.706-5.073-7.605-8.877-9.905-12.07-29.12-24.07-58.54-47.805-88.653-70.607-6.93-5.536-14.126-10.733-21.093-16.196h-1.5c-19.622 28.965-45.196 55.155-65 84h-85v-55c12.392-1.933 30.77-5.263 32-24-1.814-.46-3.634-.893-5.5-1l-1.5-.5c30.848-9.359 60.833-21.443 90.563-33.817 14.935-6.695 29.774-13.593 44.31-21.121 12.366-7.846 33.936-2.044 44.127-17.062-42.286-34.543-83.708-70.723-126.5-104.5-20.742 23.18-43.048 44.942-64.475 67.475-4.668 6.1-10.623 6.16-17.273 5.525-99.189.76-198.636-.926-297.752.5 2.79 4.721 2.907 10.648 5.198 15.61 1.488 4.06 2.448 10.41 6.88 10.646 35.677.696 71.435-.127 107.125.244 62.872.76 126.011-.926 188.797.5-7.652 12.106-13.806 25.15-21.753 37.101-5.819 8.85-11.2 17.96-17.4 26.555-2.33 3.244-5.052 7.664-8.79 7.423-31.378-2.142-62.702-5.17-94.057-7.579v93h-208.8c-9.236 1.013-19.172-1.346-28.2 1zM1465 2134h249c10.06-.114 20.282.63 30.174-1.573 6.931-1.168 18.339-8.42 14.43-15.78-17.507-21.71-38.56-40.291-57.837-60.38-19.886-19.181-38.807-40.676-60.767-57.267-3.218 8.746-10.138 15.742-14.336 23.984-9.112 13.637-17.17 27.928-26.306 41.54-6.153 10.486-13.198 20.411-19.48 30.818-2.857 3.288-4.512 9.649-8.731 10.211-18.855 1.275-37.92-.232-56.819.447h-43.179c-4.335.016-9.407-.294-13.149 1 .96 9.256 5.126 17.957 7 27m12-605h31v-286h-31zm120 0h37v-286h-37zm128 0h33v-286c-5.467-1.097-11.03-1.104-16.566-1-5.191.13-12.353-.462-16.434 1z" style="fill:#000;fill-rule:evenodd;stroke:none"/></svg>