<svg xmlns="http://www.w3.org/2000/svg" width="3000" height="3000"><path d="M363 2763h2274c-116.777-706.336-235.544-1412.426-352.792-2118.701-7.351-44.171-14.733-88.332-22.082-132.49-.76-5.347-1.88-10.63-2.64-15.97-.062-6.502-4.856-8.386-10.16-9.572-81.497-27.15-162.975-54.317-244.46-81.467-142.336-47.478-284.708-94.881-427.04-142.357-13.532-4.49-27.037-9.017-40.56-13.514-6.477-2.17-12.972-4.309-19.44-6.486-6.235-1.594-13.427-5.493-19.495-5.034-100.387 32.434-200.209 66.92-300.466 99.791-150.35 50.002-300.828 99.614-451.039 150.05-5.982 1.452-6.275 6.662-6.798 11.742-24.43 146.388-48.84 292.799-73.214 439.189C565.92 1546.494 463.462 2154.662 363 2763m793-1657h251v25c27.823.43 55.658-4.668 80.954-16.51 5.472-2.75 14.02-6.42 14.791-11.809.727-22.705-.132-45.45.255-68.154V929c10.239-.941 19.947-6.288 27-13.5-29.055-21.844-58.153-44.173-87.5-65.5l-29.602 29.602c-5.317 4.288-10.176 11.737-15.52 13.926-7.378 1.1-14.965.002-22.378.472v-66c8.496-.296 14.878-7.397 18-14.5-32.115-4.912-65.48-5.462-97.5-10.5-1.426 30.207.26 60.729-.5 91h-29v-66c7.391-.318 16.938-5.75 17-15-31.98-3.784-64.727-5.587-96.5-10-1.426 30.207.26 60.729-.5 91h-30v-97h331.2c12.518-.02 29.728 2.413 36.8-14.5-32.108-29.502-67.228-55.62-101.5-82.5-10.295 13.066-20.525 26.21-30.885 39.218-5.032 6.742-10.473 13.198-15.502 19.93-2.65 3.162-5.04 6.52-7.833 9.56-2.92 3.11-8.408 2.086-12.28 2.292v-89c9.15-2.133 19.515-3.631 26.264-10.987 2.443-3.048 6.589-8.228 4.753-11.794-3.986-2.208-10.289-.675-14.59-1.846a875 875 0 0 0-22.068-1.743c-13.629-1.283-27.27-2.102-40.888-3.454-26.2-1.62-52.261-4.767-78.471-6.176v125h-48c-11.495.67-22.063-4.287-32.539-8.328-31.357-10.471-61.883-24.038-93.461-33.672-.189 116.755.274 233.505-.255 350.245-.769 86.098.772 172.321-5 258.273-4.547 59.845-11.341 120.1-29.303 177.644-2.89 10.668-6.803 20.973-10.344 31.408-1.35 4.25 4.254 7.217 8.09 8.93 4.826-1.036 6.825-6.39 10.787-8.975 53.625-54.008 86.127-125.424 103.317-198.716 8.692-38.483 14.045-77.692 17.228-116.993 1.191-20.671 2.126-41.352 2.86-62.034.73-20.941.354-41.879 1.62-62.782m-134.312 1460c27.002-27.147 51.163-57.518 69.066-91.49 28.467-52.527 44.606-110.668 53.46-169.462 4.428-30.673 7.857-61.525 8.807-92.508 2.568-32.135.897-64.413 2.979-96.54h251v24c15.124.319 30.464.667 45.182-3.548 11.27-3.03 24.498-7.093 34.204-11.621 4.774-2.26 10.117-3.869 13.884-7.828 3.917-3.725 2.393-10.787 2.73-15.592.91-9.956-1.243-22.32 1-31.217 27.972-14.648 56.612-29.082 83.373-46.13 12.975-8.469 26.202-16.592 38.566-25.96 6.413-4.558 12.682-9.311 18.964-14.044 6.138-3.643 12.955-12.381 19.097-13.06v117c-10.883-.811-23.204-5.446-33.063-7.02-30.969-7.381-61.917-14.911-92.937-21.98-4.972 59.214-17.279 117.548-32 175-4.373-.05-8.324-4.855-12.184-7.822-10.504-9.16-21.199-18.212-31.816-27.178-13.466 15.103-25.1 32.262-39 47h-2v-57c.374-4.12-1.24-11.08 3.583-11.855 10.6-2.471 24.111-8.88 26.417-23.145-40.293-4.042-80.801-7.354-121-12v116h-2.5c-11.769-13.243-22.224-27.668-35-40-4.072 4.516-6.325 10.34-9.608 15.392-2.579 5.51-7.185 11.269-8.892 16.608h-3v-76c13.805.308 22.763-8.337 27-19.5-38.802-5.41-78.793-6.963-117.5-12.5-1.426 100.54.26 201.401-.5 302-21.285 4.163-42.583 8.616-64 12 19.642 41.357 46.048 79.816 66 121 8.737-2.273 15.831-9.018 19.535-17.063 1.85-3.588 2.968-7.648 5.767-10.664 20.632-20.847 41.492-41.452 62.173-62.248 5.593-4.966 10.274-10.747 15.26-16.26 8.012-7.46 15.102-15.738 22.622-23.643 3.536-4.112 7.024-8.251 10.907-12.049 3.527-3.63 7.006-9.607 11.736-10.073-.033 15.957-.337 31.966 1.36 47.852 2.386 19.244 5.876 43.72 31.834 50.627 22.613 6.796 46.71 3.75 69.877 4.521 15.5-.095 31.145-.899 46.365-4.001 7.488-1.524 15.085-2.957 22.18-5.89 3.438-1.533 7.014-2.834 10.264-4.755 2.835-1.786 5.655-4.058 9.12-4.354-.596 4.507-5.474 8.933-8.076 13.448a367 367 0 0 1-36.794 41.922c-6.551 6.618-13.042 13.316-20.24 19.22-2.488 2.941-8.93 5.755-8.228 9.725 1.395 3.638 3.673 7.83 5.838 10.685 33.556-19.497 67.062-40.123 95.233-67.233 42.984-41.113 78.406-90.096 102.765-144.478 25.547-55.87 41.065-115.957 51.502-176.289 3.98-.518 7.986-1.036 12-1v209h-67c2.027 8.445 5.732 18.111 7 26h162v154c14.952.288 30.002.387 44.66-3.013 10.154-2.607 20.182-5.861 29.875-9.85 7.161-2.796 14.115-6.116 20.127-10.999 5.579-3.488 4.296-12.007 4.338-17.458V2450h37.2c9.336-.272 18.7.373 28.021-.301 5.869-.586 12.616-4.015 15.559-8.664 1.068-1.876 2.09-4.525 1.626-6.514-10.095-12.17-21.526-23.258-32.82-34.318-9.425-7.971-17.594-17.32-27.086-25.203-7.986 8.73-12.432 20.414-20.5 29h-2v-199h36c8.85-.258 17.762.415 26.578-.47 5.755-.54 12.339-3.906 15.202-8.495 1.067-1.865 2.091-4.534 1.625-6.52-8.562-12.653-20.584-22.583-31.007-33.617-8.284-8.352-17.622-15.553-25.898-23.898-2.782 4.472-7.302 9.996-10.474 15.46-3.85 4.39-6.531 12.748-12.026 13.54v-56c5.447-1.291 11.168-2.2 16.01-5.213 5.271-3.013 6.348-7.844 8.99-12.287-3.752-2.47-10.378-1.056-15.445-2.312-36.196-3.135-72.327-7.51-108.555-10.188v103h-94.8c-3.893.148-7.814.033-11.637-.572-18.968-14.35-36.248-30.886-55.063-45.428-8.248 8.513-17.06 16.498-24.69 25.58-4.112 4.37-8.495 8.493-12.68 12.79-4.236 5.424-8.55 8.577-15.13 7.63 6.38-22.99 17.787-44.573 23-68 7.535-.504 15.156-2.034 22.063-5.143a29 29 0 0 0 9.067-6.65c1.958-2.226 5.431-6.998 6.87-3.207 35.414 1.276 71.265-3.315 103.685-18.485 6.731-2.72 16.104-6.983 15.299-16.525.047-28.15-.009-56.27.016-84.414V1877h3c17.99 72.332 53.716 143.464 114.5 189 3.226-4.689 2.88-13.011 5.709-19.109 6.21-21.57 15.245-42.82 29.741-60.221 6.886-8.58 14.713-16.381 24.41-21.809 4.628-2.74 9.237-5.52 14.327-7.327 2.444-1.154 5.792-1.997 7.462-3.939 1.168-2.682.688-5.767.851-8.595-30.264-4.905-60.19-12.937-88.695-24.28-13.985-5.266-27.28-11.985-40.514-18.817a367 367 0 0 1-19.12-11.083c-4.87-4.574-14.618-7.551-15.671-13.82h130.2c10.992.141 28.06-.326 32.8-14.547-29.41-27.217-62.052-50.724-93.5-75.453h-1.5c-11.722 17.209-26.69 33.01-38.998 50-3.294 3.876-6.694 8.926-10.207 12.027-8.682 2.237-18.653.034-27.622.973H1783v-160c14.664-3.012 33.195-6.187 37-27-52.12-2.691-103.908-10.019-156-13v200c-62.607.76-125.478-.926-188 .5 3.658 7.797 4.362 18.716 8.296 25.594 7.408 1.79 15.435.324 23.01.906H1610c-4.754 16.646-14.703 31.574-21.675 47.334-11.146 21.501-23.967 42.134-37.19 62.375-7.237 10.258-14.706 20.366-22.592 30.132-4.04 4.768-7.946 9.651-12.14 14.267-4.304 3.951-7.92 11.271-13.403 11.892v-104c10.198-1.333 20.02-5.884 27-13.5-28.614-22.826-58.817-43.779-87.5-66.5-8.942 10.714-19.47 20.032-29.102 30.102-5.034 4.583-10.192 10.977-15.428 14.427-7.583.948-15.352.15-22.97.471v-66c8.496-.296 14.878-7.397 18-14.5-32.432-4.599-65.503-6.074-98-10.5v91h-29v-66c7.87-.63 16.938-7.403 17-15-32.299-3.455-64.752-6.195-97-10v91h-30v-97h331.8c12.508-.085 28.814 1.566 36.2-14.5-32.37-29.182-66.975-55.924-101.5-82.5-10.373 13.088-20.868 26.118-31.042 39.366-5.117 6.684-10.657 13.047-15.621 19.847-2.588 3.154-5.023 6.44-7.786 9.438-2.421 3.054-7.953 2.206-12.051 2.349v-76.2c.763-4.02-1.32-10.72 1.832-13.172 7.681-2.126 15.876-3.753 22.347-8.836 5.201-3.281 10.852-14.054 2.801-14.702-50.764-2.82-101.212-9.552-151.98-12.09v125h-48c-11.35.347-21.892-4.622-32.35-8.539-30.991-11.563-62.377-22.456-93.15-34.461-1.4 144.313.448 288.99-1.148 433.365.003 70.124-.836 140.301-7.482 210.14-2.987 33.22-7.607 66.298-14.742 98.878-3.543 15.891-7.402 31.768-12.501 47.24-2.362 7.843-4.626 15.722-7.74 23.304-.902 3.092-3.451 8.137-.847 9.794 2.523 2.082 5.757 4.392 8.648 5.279M1115 1446.25c22.356 40.062 45.392 80.318 67 120.75 8.693-.918 16.722-11.067 19.822-16.7 5.055-15.361 20.296-23.212 29.955-35.262 16.257-17.216 33.622-33.385 50.067-50.422 8.012-8.576 15.907-17.25 23.89-25.85 4.313-3.904 7.81-8.509 11.74-12.741 4.136-3.565 7.38-10.524 12.526-11.025-.066 15.964-.28 31.959 1.217 47.877 1.353 10.936 2.884 22.107 8.219 31.976 5.712 15.381 26.218 20.623 40.347 22.184 17.85 1.614 35.824.633 53.72.963 16.986.282 34-.944 50.614-4.521 19.773-3.82 46.833-14.88 51.504-41.655 1.704-11.79-.258-25.165-9.733-33.42-3.817-3.692-9.444-6.555-13.692-8.83-6.48-2.239-5.211-9.603-5.745-15.158-1.02-16.465-1.105-32.98-2.451-49.416-3.746-.004-8.594-.665-10.363 3.696-1.706 3.637-2.793 7.53-4.386 11.213-3.458 9.3-6.9 18.606-10.54 27.82-2.807 7.064-6.674 15.593-12.267 20.038-6.517 4.62-15.182 2.837-22.591 3.233-6.385-.595-15.198 1.447-19.642-2.62-3.96-3.98-2.892-11.361-3.211-16.396V1284c20.559-4.854 41.333-8.965 61.736-14.445 10.272-1.504 21.791-7.664 31.423-7.11 9.642 1.833 23.646 5.746 28.841-3.945-27.124-23.17-54.17-46.616-81.5-69.5-5.853 8.408-12.952 16.08-19.193 24.223-3.515 4.164-6.782 8.484-10.347 12.59-3.18 3.346-6.87 9.675-10.96 10.187v-68c11.463-1.913 27.738-7.963 30-24-40.434-2.206-80.558-8.94-121-11v116h-3c-9.31-14.273-24.113-29.276-34.5-41-4.012 4.46-6.448 11.318-9.656 15.74-2.343 5.298-7.527 11.643-8.844 16.26h-3v-58.8c.088-4.904-.23-9.88.425-14.737.837-2.967 6.406-2.54 8.534-3.705 10.28-2.33 14.62-9.974 18.041-18.258-39.324-3.318-78.6-8.842-118-11.5v301c-21.678 3.746-43.155 9.255-65 12zm41-366.25h30V921h-30zm0 1010h30v-160h-30zm110-1010h29V921h-29zm0 1010h29v-160h-29zm5-676c17.833-2.168 35.008-8.268 52.699-11.276 1.837-.53 4.99-1.044 5.706-2.649 1.664-16.702-.276-33.744.595-50.51V1287h-59zm0 1010c19.798-3.52 39.37-8.7 59-13v-115h-1.5c-9.292 2.122-19.118.211-28.539 1H1271zm104-1344h32V921h-32zm0 1010h32v-160h-32zm129 284c.493 10.644 1.578 21.27 1.584 31.941.296 8.054.799 16.096 1.258 24.135.303 2.602.146 6.137 2.097 7.573 8.217 3.961 16.746 8.53 21.922 16.446 5.77 8.575 5.524 19.088 5.139 28.905h3c16.225-32.195 33.245-65.01 43-100-9.286.613-18.786.013-26.95-4.986-5.993-3.018-12.495-7.753-16.672-12.303-3.665-3.763-.976-9.992-.01-14.32 2.546-15.472 1.918-34.268-.368-48.391h-3c-18.065 30.117-43.701 55.397-68.5 80-3.87-3.184-10.123-4.27-13.5-7.5 8.553-14.94 14.612-31.414 21.634-47.124 5.14-16.935 14.133-32.897 17.366-50.376-12.103.824-23.625 5.77-35.509 7.893-11.736 3.091-23.7 5.299-35.491 8.107.74 45.806-.903 91.708.487 137.468.866 13.098 19.174 8.931 27.262 9.532 7.123.235 16.927.052 22.075-7.994 6.004-9.594 9.726-20.36 13.727-30.885 2.331-5.779 4.3-11.71 6.588-17.497 1.682-5.007 2.6-11.56 10.232-10.622q1.321-.003 2.629-.002m-50-781c58.051-14.667 113.268-41.666 163.454-73.98 25.157-15.389 48.144-33.998 70.762-52.796 11.21-10.2 22.124-20.668 32.661-31.585 4.715-4.954 14.521-1.513 21.984-3.376 6.71-.768 15.79-6.566 17.139-12.263-48.569-23.376-95.009-52.681-144-75-16.053 48.59-43.104 93.181-71.788 135.234-14.66 20.82-30.465 40.978-47.687 59.74-9.025 9.222-18.045 18.467-27.415 27.349-4.838 4.326-10.005 8.234-14.803 12.601-2.004 1.874-5.257 3.826-4.736 6.37 1.513 2.383 3.666 5.549 4.429 7.706m21-288.75c2.317 4.456 3.074 11.572 5.283 17.17.739 4.388 1.859 9.273 8.106 8.555 14.605.07 29.195-.012 43.788.025h299.854c50.158-.323 100.35.394 150.489-.213 5.68-.694 12.03-4.272 15.115-8.53 3.95-5.422-.171-9.57-3.22-13.004-21.32-25.619-45.287-48.776-68.915-72.253-9.689 12.089-15.426 27.276-25.5 39h-2V835h44.4c10.924-.305 21.888.402 32.796-.292 6.395-.676 14.943-2.314 19.076-9.575 3.505-6.094-1.422-9.74-4.806-14.077-10.261-12.328-21.414-23.895-32.441-35.531L1926.5 745c-9.81 12.898-16.498 28.333-26.5 41h-2V685c6.955-1.633 15.429-3.513 20.923-7.331 6.934-3.812 8.558-9.927 11.077-16.169-6.233-2.434-13.471-1.272-20.001-2.437-46.32-4.264-92.668-7.959-138.999-12.063v161h-80V685c7.242-1.025 14.78-2.185 21.054-6.239 6.204-4.024 10.393-10.604 11.946-17.761-52.212-5.264-104.723-9.14-157-14v161c-26.264.76-52.81-.926-79 .5 3.607 8.357 4.897 17.919 8 26.5h71v469h-92zm31 381.035c13.751 23.705 23.33 49.88 29.418 76.6 2.426 10.445 3.302 21.119 3.934 31.775.828 4.791.102 9.58-.236 14.358-.531 7.921 11.744 12.537 16.534 16.694 12.738 7.306 31.141 11.89 44.45 7.822 21.502-4.614 38.964-21.912 44.211-43.212 5.163-22.059-6.588-44.929-21.684-60.19-29.56-27.63-69.543-41.225-108.76-47.639-2.627.748-5.869 2.533-7.867 3.507zM1562 2265c7.654 2.4 15.936 7.421 22.232 11.132a188 188 0 0 1 10.098 7.12c3.22 2.163 6.448 6.934 9.67 7.748 2.665-2.28 1.932-7.532 2.993-11.226 3.952-24.028 9.153-52.41 10.007-74.774h-27c-3.584 10.76-9.773 20.573-14.438 30.873-3.52 9.392-13.149 20.633-13.562 29.127m129-1299h80V849c-.536-4.916 1.005-11.326-1.5-15-12.795 2.08-25.941.254-38.824 1H1691zm0 167h80V992h-80zm0 171h80v-144h-80zm63 60.25c39.05 51.832 77.264 106.525 99.68 168.296 2.874 8.337 5.935 16.586 8.235 25.105.868 3.537 2.117 7.88 4.745 10.144 22.044 16.597 54.178 21.72 78.24 5.91 24.814-14.425 36.657-45.156 30.945-72.836-8.106-44.267-43.279-77.951-81.151-98.473-39.289-22.382-84.02-33.429-128.142-41.21-2.318-.45-4.691-.853-7.03-.61-1.53 1.299-4.135 2.55-5.522 3.424zM1791 2424h26v-219h-26zm8-600.5c1.534 1.428 4.27 2.349 6.465 2.927 2.847.402 5.674-1.998 7.814-3.028 26.988-15.243 52.975-32.11 79.273-48.453 13.124-8.561 26.071-17.376 38.712-26.633 6.631-5.278 15.763-3.176 23.526-5.52 7.513-1.937 13.994-6.853 18.21-13.293-22.296-10.085-46.14-17.599-68.734-27.192-23.26-8.18-45.812-18.843-69.266-26.308-10.243 49.243-21.264 99.675-36 147.5" style="fill:#fda;fill-rule:evenodd;stroke:none"/><path d="M244 2863.5c418.26 1.426 837.325-.26 1255.75.5 418.681-.76 837.643.926 1256.25-.5-137.483-816.352-271.828-1633.965-409-2450.5-141.513-45.746-282.358-94.352-423.703-140.74-105.839-35.248-211.646-70.575-317.47-105.817l-60-20a8496 8496 0 0 1-28.008-9.343c-4.68-1.543-9.347-3.083-13.982-4.729-5.086-2.015-9.193.742-14.014 2.193-139.528 46.49-279.049 93.006-418.557 139.507C931.703 319.858 792.72 367.853 653 413c-137.126 816.275-271.612 1634.71-409 2450.5m120-103v1.5h2272v-1.5c-68.931-409.09-136.257-818.54-204.874-1227.691-51.028-306.678-102.288-613.313-153.312-919.99-4.869-28.835-9.565-57.678-14.432-86.51-1.133-7.012-2.351-14.007-3.495-21.008-1.484-6.504-.056-15.285-8.94-17.157-109.703-36.573-219.416-73.135-329.12-109.701-96.009-31.978-191.992-64.023-288-96-41.971-14.027-84.002-27.963-125.969-41.994-9.552-4.304-21.398 2.4-30.56 4.946-155.047 51.948-310.255 103.285-465.433 154.805-58.187 19.4-116.394 38.801-174.566 58.195-25.476 8.525-51.019 16.959-76.48 25.505-5.454 2.642-13.186 3.29-17.14 6.618-2.1 1.795-1.737 5.77-2.555 8.884-62.19 372.917-124.31 745.877-186.485 1118.792C490.857 1998.664 428.048 2380.37 364 2760.5" style="fill:gray;fill-rule:evenodd;stroke:none"/><path d="M1009 1550.5c4.058 2.204 8.543 6.154 12.688 7.5 57.128-53.697 93.31-126.024 111.684-201.503 10.005-39.515 15.13-80.143 18.772-120.66 1.688-21.39 2.269-42.876 3.2-64.295.774-21.515.377-43.063 1.656-64.542h249v25c28.498.71 57.045-4.371 82.954-16.51 5.806-3.174 14.296-6.227 14.863-12.355.522-23.126-.095-46.286.183-69.405V930c10.81-.897 20.718-6.837 28-14.5-29.266-23.15-59.872-44.823-89.5-67.5l-29.233 29.233c-5.062 4.508-10.128 10.886-15.168 14.556-6.236 2.471-15.514.355-22.099 1.211v-64c8.911-.156 17.346-9.267 18-17-33.324-3.324-66.733-6.23-100-10v91h-27v-64c10.557-.327 16.588-7.94 18-17-33.324-3.324-66.733-6.23-100-10v91h-28v-95h333c7.98.03 16.333.701 23.847-2.624 4.979-2.187 11.076-7.625 10.337-13.987-31.215-30.874-68.05-55.411-101.684-83.389-10.47 12.81-20.43 26.038-30.825 38.906-5.147 6.649-10.368 13.235-15.528 19.868-4.587 6.43-9.537 14.783-19.147 13.226v-87c13.254-2.645 30.174-5.965 33-25-53.229-4.676-106.663-9.274-160-13v125h-48c-11.431.441-21.644-5.521-32.201-8.912C1118.35 750.25 1087.618 737.296 1056 727c.018 142.438.19 284.872-.622 427.302.036 69.273-.704 138.592-6.644 207.624-5.749 63.778-16.194 128.946-39.734 188.574m12.5 1017.5c27.29-26.893 51.393-57.335 69.572-91.148 28.714-52.54 44.981-110.805 53.988-169.687 4.52-30.838 7.93-61.869 8.952-93.027 2.51-32.34.958-64.807 2.988-97.138h249v24c15.238.234 30.66.757 45.56-3.131 11.217-3.129 24.583-6.747 34.292-11.304 4.863-2.326 10.114-4.021 14.311-7.533 4.898-3.76 3.746-9.346 3.837-14.826.533-10.168-.685-22.234.458-31.511.637-3.706 7.204-4.688 9.654-6.366 26.726-12.933 52.57-27.668 77.654-43.511 12.12-7.954 24.452-15.565 36.043-24.305 12.509-7.584 23.045-18.733 35.191-26.513v115c-42.221-8.225-83.695-21.243-126-29-4.972 59.214-17.279 117.548-32 175h-1.5c-13.597-12.274-27.972-24.377-42-36-12.775 16.156-25.901 32.113-39 48-1.41-18.868.243-38.243-.5-57.206-.405-4.702-.49-9.703 5.856-10.356 10.207-2.454 23.777-10.137 24.144-24.438-41-3.875-82.037-7.777-123-12-.76 38.568.926 77.55-.5 116-6.249-6.695-11.463-14.254-17.67-20.984-6.547-6.453-12.605-16.735-19.83-20.016-5.25 11.304-13.045 21.713-18.5 33-1.426-24.53.259-49.407-.5-74 12.83.563 25.539-9.024 27-22-39.998-3.818-80.064-7.738-120-12v302a2140 2140 0 0 1-66 12.5c12.197 19.484 22.37 40.575 34.025 60.458 10.747 20.907 23.856 40.886 33.975 62.042 9.128-.398 17.44-8.92 20.886-15.8 6.404-14.418 19.264-24.283 29.984-35.57 33.18-32.64 65.539-66.06 96.63-100.63 1.6 21.95-.802 44.683 4.92 66.335 2.085 7.406 4.816 14.97 9.754 21.001 10.069 10.359 24.756 13.489 38.538 14.742 22.771 1.6 45.755.722 68.55.409 20.82-.787 45.59-5.122 62.621-14.132 2.202-1.466 4.489-2.81 6.617-4.355-19.314 31.112-47.195 57.121-74.5 81.328 1.585 5.28 5.404 9.62 7.5 14.672 34.148-19.352 67.726-40.439 96.475-67.475 43.114-41.22 78.79-90.2 103.292-144.709 25.71-56.011 41.221-116.303 51.733-176.816 3.334-.383 6.644-.91 10-1v207h-67c.898 9.604 5.945 18.415 7 28h162v154c15.258.2 30.652.577 45.634-2.809 10.368-2.424 20.51-5.901 30.39-9.832 7.352-2.858 14.468-6.231 20.638-11.22 5.706-3.639 4.217-12.463 4.338-18.057V2451h37.8c12.442-.532 41.102 5.223 45.442-15.201-1.103-3.76-4.443-6.33-7.056-9.367-7.935-9.44-17.319-17.574-25.81-26.5-9.807-8.798-19.04-18.18-28.876-26.932-8.218 9.049-13.388 20.497-21 30-1.426-65.461.26-131.434-.5-197h36c11.947-.693 39.74 4.85 44.01-14.72 1.016-3.31-4.207-6.499-5.94-9.789-7.491-9.12-16.422-16.943-24.545-25.466-8.931-9.122-19.103-16.912-28.025-26.025-7.757 9.433-13.252 20.575-21 30-1.4-17.835.233-36.079-.5-54 7.271-1.65 15.62-3.022 20.47-9.385 1.819-2.524 4.332-6.113 3.812-9.961-2.242-2.758-8.56-1.038-11.456-2.17-6.334-.567-12.651-1.302-18.97-1.895-13.631-1.165-27.2-2.67-40.822-3.867-18.01-1.432-35.978-4.134-54.034-4.722v103h-94.2c-3.444-.247-8.784.587-11.187-1.326-18.828-14.62-36.574-30.702-55.113-45.674-8.06 8.602-17.103 16.307-24.63 25.393-4.006 4.472-8.442 8.53-12.603 12.84-4.18 3.861-8.5 10.387-14.267 8.267 8.506-20.699 17.51-45.686 23-65.5 13.822-.193 27.509-5.351 35.5-17 2.311 3.158 8.071 1.426 12.483 2 4.708-.028 9.393.066 14.093-.12 29.187-1.008 58.171-8.075 84.51-20.702 2.942-1.504 6.34-3.534 8.26-5.941 3.612-5.236 1.41-13.791 2.154-19.626V1879.5l.5-1.5c11.124 36.858 23.657 73.692 43.143 107.133 18.241 32.459 43.725 61.094 73.857 82.867 7.432-25.072 13.596-51.502 29.797-72.908a97.1 97.1 0 0 1 27.78-27.764c5.208-3.5 10.78-6.481 16.61-8.794 2.652-1.381 7.675-2.363 7.862-5.494.647-2.982.551-6.096 1.451-9.04-30.148-4.223-59.735-12.843-88.147-23.648-26.835-11.234-53.822-23.768-76.853-41.852 26.096-1.426 52.608.26 78.778-.5 19.79-.231 39.555.283 59.33-.154 6.692-.23 13.514-1.683 18.895-5.926 4.329-3.039 8.124-9.24 2.37-14.014-29.286-25.695-60.417-49.317-91.373-72.906-14.015 15.943-26.499 33.46-40.074 49.82-3.401 4.012-6.398 8.427-10.03 12.237-2.886 2.867-8.77 1.587-13.163 1.943H1784v-158c14.887-2.936 35.18-6.77 37-29-52.792-2.383-105.21-10.62-158-13v200h-188c1.876 8.794 4.545 17.593 7.313 26.146.114 2.701 4.268 2.786 6.108 2.834 7.567.057 15.125-.01 22.678.02 32.565.76 65.42-.926 97.901.5-26.425 59.079-59.338 116.544-104.5 163.5-1.426-33.82.26-68.097-.5-102 10.761-1.29 20.805-6.448 28-14.5-24.974-20.345-51.531-38.715-76.974-58.475-3.287-2.316-6.915-5.312-9.999-7.337-3.377-2.8-6.02 1.462-8.222 3.898-8.71 9.02-17.763 17.707-26.538 26.647-4.819 3.707-9.08 10.776-14.076 12.322-6.665 1.01-13.494.028-20.191.445v-64c8.911-.156 17.346-9.267 18-17-33.36-2.853-66.662-6.899-100-10v91h-27v-64c9.387-.808 16.812-7.992 18-17-33.36-2.853-66.662-6.899-100-10v91h-28v-95h333.6c7.702.062 15.742.335 22.956-2.878 4.11-1.827 12.306-7.653 10.548-13.882-31.462-30.372-67.751-55.638-101.604-83.24-10.724 12.508-20.349 25.973-30.776 38.72-5.115 6.691-10.53 13.112-15.627 19.814-4.592 6.323-9.532 14.876-19.097 13.466v-69c.152-5.62-.324-11.366.516-16.915 1.631-3.074 8.022-2.232 10.535-3.976 12.365-2.84 19.855-10.559 21.949-22.109-26.357-3.387-53.115-3.842-79.537-6.915-26.847-1.476-53.588-5.205-80.463-6.085v125h-48c-10.953.266-22.655-6.224-31.994-9.129-31.559-10.5-62.243-24.163-94.006-33.871.03 144.778.188 289.563-.653 434.338.014 70.509-.86 141.086-7.696 211.291-3.057 33.2-7.649 66.298-14.987 98.824-3.421 15.956-7.648 31.752-12.704 47.258-2.104 7.899-4.909 15.562-7.772 23.199-1.14 3.291-3.41 7.794.036 9.907 2.766 2.102 6.632 5.08 9.276 6.183m161-999c8.168-3.498 16.074-8.796 20.056-17.197 5.178-15.274 19.785-23.49 29.797-35.27 15.953-17.06 33.167-32.96 49.378-49.768 15.484-17.028 31.346-33.695 46.769-50.765 1.93 22.33-1.276 45.71 5.265 67.647 2.307 7.225 5.527 16.014 10.523 21.085 10.076 9.66 24.69 12.363 37.996 13.634 22.798 1.06 45.764.531 68.573.3 21.426-1.121 43.578-4.167 62.685-14.524 11.448-6.274 20.75-17.053 22.908-30.26 1.432-9.863 1.025-20.56-3.814-29.464-3.47-6.347-9.673-10.607-15.822-13.954-2.433-1.268-4.934-2.462-7.134-4.094-1.99-1.34-1.337-5.192-1.79-7.044-1.305-18.42-1.565-36.906-2.89-55.326-4.61-.066-10.919-1.073-12.823 4.65-1.78 4.532-3.352 9.161-5.157 13.683-3.395 8.781-6.56 17.643-10.094 26.361-3.003 6.942-6.183 14.48-12.654 18.916-6.697 3.599-14.763 1.945-21.995 2.39-6.508-.322-14.716 1.483-18.327-4.17-2.584-4.923-1.694-11.256-1.95-16.643V1285c20.724-4.853 41.63-9.06 62.184-14.559 9.776-1.431 22.848-8.136 31.174-6.557 10.213 2.419 24.562 4.503 29.642-5.384-27.552-24.138-55.72-47.63-83.5-71.5-12.598 16.307-25.846 32.152-39 48-1.417-21.842.25-44.086-.5-66 12.302-2.161 29.918-9.148 30-26-41.124-2.04-81.856-9.39-123-11v114.5l-.5 1.5c-4.88-7.653-12.64-15.424-17.788-21.956-2.964-3.813-6.342-7.233-9.644-10.74-2.868-3.078-6.47-8.396-10.068-9.304-5.408 11.188-12.58 22.021-18.5 33l-.5-1.733v-57.6c.505-4.422-.834-10.054 1.02-13.49 5.408-2.556 12.445-2.3 17.022-6.901 4.735-3.91 8.362-10.659 8.958-16.276-40.129-1.699-79.855-9.563-120-11v301c-21.675 3.745-43.158 9.256-65 12 .819 4.879 5.325 10.411 7.738 15.68 20.615 35.86 39.715 72.755 60.762 108.32m-25.5-490h28V922h-28zm0 1010h28v-158h-28zm110-1010h27V922h-27zm0 1010h27v-158h-27zm5-676c17.847-3.326 35.398-8.225 53.173-11.889 5.107-.762 3.556-9.039 3.827-12.477V1288h-57zm0 1010c18.893-4.666 38.156-8.15 57-13-.76-37.607.926-75.478-.5-113-3.462 1.945-9.225.364-13.717 1H1272zm104-1344h30V922h-30zm0 1010h30v-158h-30zm129 284c1.765 20.68 1.128 41.846 3.756 62.394 2.536 2.865 8.274 3.832 11.704 6.885 5.795 3.938 11.16 8.972 13.837 15.57 3.189 7.134 2.849 15.054 2.703 22.651l.5 1.5c18.315-30.663 30.926-64.275 43.5-97.5-4.77-1.226-9.886.223-14.685-1.013-7.6-1.562-15.955-5.954-21.552-10.269-4.196-3.729-10.922-7.623-9.742-12.866 3.947-17.647 6.096-40.043 1.479-56.352-10.854 15.41-22.157 30.906-34.881 44.903-9.562 10.803-19.852 20.896-30.095 31.063-4.227 5.3-9.194 2.827-13.885-.157-1.773-1.245-5.044-2.428-5.144-4.539 14.03-31.459 28.997-62.962 38.505-96.27-23.133 4.431-45.774 11.877-69 16 .889 45.303-1.084 90.771.585 136.022 1.271 12.609 19.291 8.161 27.166 8.975 6.797.25 15.865-.735 20.387-8.482 5.863-9.45 9.426-20.075 13.413-30.394 2.271-5.6 4.136-11.354 6.39-16.954 1.794-5.037 2.567-11.978 10.348-11.161 1.584-.012 3.137-.002 4.711-.006m-50.5-778c57.699-16.921 113.47-41.177 163.523-74.681 25.287-15.498 48.468-34.164 71.193-53.095a732 732 0 0 0 33.031-31.93c2.803-3.167 6.692-2.683 10.563-2.318 11.1.837 23.428-2.525 29.19-12.976-4.854-5.176-12.467-6.902-18.282-10.67-42.205-22.591-84.627-44.807-126.861-67.33-3.635 3.903-4.543 11.701-7.418 17.171-17.503 43.112-41.004 83.586-67.866 121.498-13.36 19.1-28.18 37.123-43.473 54.683-16.256 16.662-32.613 33.486-51.1 47.648.97 3.88 5.072 7.989 7.5 12m547.5-279.5c-11.242-15.102-25.18-27.871-37.294-42.199-6.611-6.876-13.51-13.467-20.181-20.276l-10.127-10.127c-3.246-2.703-6.9-7.896-10.398-8.898-2.55 7.326-8.441 13.111-11.747 20.093-4.598 6.4-7.96 13.663-12.753 19.907-1.426-145.804.26-292.101-.5-438h44.4c11.086-.357 22.255.476 33.321-.356 6.348-.748 14.885-2.482 18.8-9.898 3.694-5.657.182-9.829-3.654-13.942-10.364-12.532-21.366-24.551-32.737-36.174L1926.5 743c-10.127 13.17-17.41 28.474-27 42-1.426-32.831.26-66.092-.5-99 13.196-2.685 30.14-6.995 32-26-53.543-5.106-107.373-9.537-161-14v161h-78V686c13.61-1.639 31.433-6.27 33-26-52.901-4.996-106.011-9.65-159-14v161h-79v1.5c2.87 9.098 5.3 18.366 8 27.5h71v467h-92c1.706 8.342 5.085 18.008 7.269 25.493 1.785 4.181 10.16 1.613 13.32 2.507h455.591c14.453-1.069 45.03 6.221 51.82-15.5m-498 369.175c12.892 22.232 22.844 46.463 28.82 71.556 2.335 9.474 4.204 20.835 4.91 29.75.061 4.409.779 9.522.906 13.554-.18 4.299-1.181 8.703-.172 12.985 18.45 22.741 55.554 29.412 80.624 13.833 12.47-7.88 21.76-20.357 25.794-34.514 4.33-14.287.738-29.92-5.892-42.853-11.051-21.558-32.101-35.638-52.74-46.81-22.444-10.08-46.159-17.593-70.432-21.718-4.12-.635-8.67 2.97-11.818 3.542zM1563 2264c15.039 5.633 29.242 14.468 40.5 26 2.034-2.962 1.463-6.85 2.334-10.243 4.025-24.442 8.76-48.991 10.166-73.757h-25c-3.45 10.396-9.378 19.901-13.928 29.835-3.47 9.852-11.606 18.003-14.072 28.165m129-1299h78V849.8c-.54-4.887 1.017-11.217-1.5-14.8-4.792 2.388-12.674-.055-18.763 1H1692zm0 167h78V993h-78zm0 171h78v-142h-78zm60 61.625c21.17 27.984 43.057 56.121 60.392 86.853 13.892 23.298 26.394 47.516 36.488 72.698 3.73 9.688 7.54 19.429 10.55 29.373 1.678 4.353 2.222 10.282 4.885 13.782 26.108 22.387 68.668 22.636 93.547-1.718 25.307-24.89 25.386-66.501 8.475-95.915-17.27-35.66-51.153-59.03-85.458-76.22-36.497-16.873-75.801-26.952-115.315-33.689-5.87-1.974-9.432 1.107-13.564 4.211zM1792 2423h24v-217h-24zm6-598c4.065 1.25 7.19 5.235 12.075 1.812 29.063-16.278 57.012-34.38 85.256-51.992 14.257-8.728 27.57-19.724 41.689-28.38 8.467-1.78 17.79-.566 25.553-5.336 3.682-1.974 7.5-5.23 9.667-8.396 3.299-4.64-2.607-6.792-5.778-7.683-43.535-16.605-86.758-34.037-130.363-50.452A19 19 0 0 0 1834 1674c-8.948 50.963-22.963 101.016-36 151" style="fill:#000;fill-rule:evenodd;stroke:none"/></svg>