<svg xmlns="http://www.w3.org/2000/svg" width="3000" height="3000"><path d="M326 2802.5v1.5h2347c-.373-12.822-4.058-25.348-5.508-38.051-117.27-703.542-234.496-1407.1-351.766-2110.637-7.344-43.997-14.655-88.002-22-132-3.6-21.02-6.91-42.124-10.625-63.12-1.141-5.243-8.647-5.77-12.81-7.59-158.488-52.846-316.994-105.666-475.472-158.502-59.502-19.835-119.024-39.669-178.52-59.495-26.013-8.653-52-17.351-78-26-12.476-3.645-24.567-8.834-37.16-12.04-6.368-.025-12.224 3.635-18.313 4.993-92.992 31.026-186.022 61.963-279 93A1893485 1893485 0 0 0 785.82 433.9c-17.522 5.819-35.005 11.685-52.52 17.495-3.82 1.309-7.668 2.508-11.462 3.872-7.078 2.018-5.509 14.447-7.54 19.93a1026382 1026382 0 0 1-55.17 330.994C547.67 1471.398 438 2137.571 326 2802.5" style="fill:#fda;fill-rule:evenodd;stroke:none"/><path d="M204 2906.5c431.66 1.426 864.125-.26 1295.95.5 431.946-.76 864.184.926 1296.05-.5-71.347-421.454-140.17-844.031-211.186-1265.681C2515.49 1219.807 2443.894 799.05 2375 378c-18.825-4.147-36.622-12.377-55.173-17.557-141.343-47.107-282.688-94.208-424.008-141.343-105.996-35.346-212.02-70.658-318-106l-60-20c-4.743-1.483-9.392-3.202-14.133-4.67-4.689-1.596-9.296.594-13.846 2.121-144.162 48.092-288.385 96.1-432.543 144.19-72.152 24.045-144.327 48.113-216.478 72.159-35.996 12.013-72.02 23.992-108 36-18 6.028-36 11.971-54 18-9.01 3.004-18.013 5.972-27 9-8.742 2.234-18.56 7.118-26.819 8.1-68.995 421.677-140.705 843.07-210.109 1264.703C344.003 2063.481 275.132 2486.22 204 2906.5m123-104c781.355 1.426 1563.485-.26 2345 .5-118.785-721.214-240.618-1442.068-360.03-2163.199-7.528-45.17-15.046-90.339-22.588-135.492-1.756-10.718-3.574-21.44-5.367-32.15-1.463-5.102-.632-13.609-5.65-15.42-82.419-27.818-165.08-54.96-247.546-82.639-144.35-48.044-288.615-96.253-432.954-144.3-27.19-9.095-54.376-18.14-81.566-27.195-6.024-1.707-14.13-5.746-19.294-4.368-99.967 33.09-199.81 66.647-299.74 99.834a5130220 5130220 0 0 1-448.968 149.67c-9.274 3.513-19.03 5.778-28.13 9.725-3.665 1.962-2.298 9.57-3.876 12.727-22.54 135.51-45.194 271.003-67.739 406.508C540.73 1518.187 435.508 2161.522 327 2802.5" style="fill:gray;fill-rule:evenodd;stroke:none"/></svg>