<svg xmlns="http://www.w3.org/2000/svg" width="3000" height="3000"><path d="M328 2803h2344c-118.785-721.214-240.618-1442.068-360.03-2163.199-7.528-45.17-15.046-90.339-22.588-135.492-1.756-10.718-3.574-21.44-5.367-32.15-1.463-5.102-.632-13.609-5.65-15.42-82.419-27.818-165.08-54.96-247.546-82.639-144.35-48.044-288.615-96.253-432.954-144.3-27.19-9.095-54.376-18.14-81.566-27.195-6.024-1.707-14.13-5.746-19.294-4.368-99.967 33.09-199.81 66.647-299.74 99.834a5130220 5130220 0 0 1-448.968 149.67c-9.274 3.513-19.03 5.778-28.13 9.725-3.665 1.962-2.298 9.57-3.876 12.727-22.54 135.51-45.194 271.003-67.739 406.508C542.266 1518.848 433.622 2160.802 328 2803m664-533.625c2.223 2.762 5.177 4.935 7.5 7.625 12.94-8.59 27.629-14.317 40.804-22.523 19.451-11.391 39.124-22.438 57.735-35.158 9.762-5.774 18.938-12.478 28.268-18.9 4.728-3.375 9.48-6.704 14.23-10.037 4.557-2.563 10.014-8.084 14.463-8.382v459c22.986.253 46.157 1.038 68.762-3.875 15.943-2.612 31.287-7.624 46.447-13.041 10.396-3.646 22.031-9.694 30.23-15.52 4.224-3.447 3.46-8.442 3.561-13.309V2117.97c.02-3.79-.67-9.089 4.09-10.352 11.277-2.78 21.864-8.097 27.91-18.117-15.893-4.552-30.91-12.579-47-16.5.452-7.524 10.607-11.584 14.475-16.975 18.299-18.534 38.241-35.503 55.546-55.055 4.141-5.103 9.214-9.368 13.629-14.208 2.9-3.125 5.946-7.95 10.43-10.223 13.453.311 29.207 2.589 39.92-12.039-27.907-17.383-56.919-33.209-85.075-50.226-29.244-16.117-57.345-34.945-86.925-50.274-15.572 38.113-35.443 74.516-55.215 110.574-28.805 52.487-59.965 103.714-93.776 153.1-33.272 49.73-70.323 97.035-110.009 141.701m13-681.031c.806 2.097 2.598 3.367 4.24 4.75 1.816 1.225 5.08-1.208 6.913-1.34 58.148-23.8 115.735-52.778 162.324-95.721 37.416-33.082 69.453-73.231 89.898-119.037 7.662-17.667 15-35.546 20.23-54.118 1.236-4.038 2.707-8.016 3.72-12.114 1.03-3.698 1.193-9.401 6.324-9.603 143.103-.459 286.245.083 429.351-.161v82.2c-.003 10.42.004 20.83-.002 31.238.079 6.53-1.6 16-9.669 19.5-7.003 2.928-14.8 1.864-22.157 2.062-52.418-1.305-104.815-4.214-157.172-7v12c38.109 4.983 78.06 16.107 105.894 44.325 15.456 12.083 23.37 30.858 28.608 49.07 4.243 20.668 9.405 41.434 10.498 62.605 28.619-2.853 57.275-6.076 85.12-13.588 19.906-5.254 39.483-12.533 56.713-24.032 12.912-8.569 24.105-19.525 32.117-32.828 23.952-45.916 18.946-99.32 19.05-149.007V958.622c.653-3.878-1.364-11.557 2.392-13.23 11.683-3.705 25.606-7.782 32.608-18.892-43.547-32.925-86.478-67.362-130.5-99.5-20.558 23.328-43.07 45.956-62.5 70h-206v-3c38.814-15.327 74.384-38.037 110.772-58.176 17.777-10.486 35.353-21.304 52.4-32.928 4.331-3.005 8.543-6.192 12.998-9.006 6.88-4.473 15.835-3.193 23.392-5.806 7.735-1.357 15.177-4.549 20.438-10.584-42.879-37.16-86.567-73.424-129.5-110.5-25.503 24.314-49.245 50.695-75.23 74.446-39.663 1.58-79.557-.287-119.27.554.173-4.942 6.118-9.188 9.255-13.72 12.044-14.556 24.098-29.156 34.82-44.728 2.935-3.755 5.844-9.13 10.242-9.395 14.203-.316 33.895.916 38.683-14.157-67.826-14.119-134.2-35.91-202-50-12.618 40.095-32.494 77.664-51.916 114.749-29.874 53.502-63.603 105.043-102.86 152.214-39.758 48.633-84.4 93.255-134.224 131.537l6.5 6.5c24.905-10.028 50.332-19.344 74.397-31.454 12.437-6.511 25.304-12.219 37.48-19.197 5.827-3.25 11.762-6.277 17.537-9.613 5.522-2.318 12.21-7.76 17.086-8.736v186a1203 1203 0 0 1-5.405 134.219c-3.131 31.187-6.651 62.408-14.122 92.912-11.47 44.252-27.556 87.63-51.336 126.816-23.56 38.379-54.029 72.891-88.137 102.053zm15 367.114c2.3 2.94 4.874 5.707 7.313 8.542 67.19-26.149 132.137-58.338 193.78-95.73 30.273-18.427 59.49-38.54 87.884-59.742 13.982-10.798 28.315-21.188 41.836-32.568 3.17-2.403 6.914-6.514 11.444-6.55 12.017.613 28.64 2.962 36.743-12.41-27.805-15.131-53.728-34.213-81.046-50.318-13.657-8.237-26.782-17.306-40.477-25.478-6.77-3.884-13.107-8.44-19.781-12.455-7.137-3.408-14.097-10.375-20.696-11.749-25.9 55.873-61.562 106.91-96.766 157.207-36.21 50.146-76.021 98.07-120.234 141.251M1267 874.5v1.5c16.181 4.062 31.771 10.72 47.759 15.502 5.739 2.051 12.519 4.955 18.159 5.401 49.351.277 98.73-.05 148.082.097 18.102-41.546 37.412-83.294 50-127h-142.8c-8.01-.774-11.922 5.241-17.07 10.37-16.135 17.28-33.584 33.105-51 49-8.366 8.04-17.591 15.144-26.324 22.767-8.857 6.728-17.02 15.658-26.806 20.863v1.688zm33 398v1.5h145v-164h-135c.584 54.087.287 109.386-10 162.5m10-189.5h135V925h-135zm82 948h281v412.2c-.318 8.796 2.193 20.238-8.392 26.83-7.523 4.19-16.606 2.614-24.787 2.97-30.471-.22-60.787-3.545-91.217-4.306-29.832-2.183-59.782-2.258-89.604-4.694v11c41.83 4.974 83.964 16.86 117.793 42.817 17.072 11.868 27.88 30.537 34.499 49.773 6.384 20.616 9.232 41.95 10.708 63.41 37.806-3.484 76.284-7.011 112.293-20.271 24.958-9.41 47.976-24.69 64.204-46.141 24.081-35.934 26.772-81.058 26.503-122.77V2031h76.2c18.999-.089 38.003.109 56.996-.059 11.29-.7 27.74.428 34.754-12.56 1.73-4.524-4.47-7.908-7.107-10.845-24.57-21.297-48.983-42.838-74.493-63.024-7.815-6.217-15.465-12.6-23.316-18.749-8.3-5.454-16.161-14.688-24.378-18.763-24.064 30.916-47.002 62.834-71.17 93.658-3.16 2.973-7.799 2.248-11.835 2.342H1385c1.004 9.3 6.369 19.42 7 28m52-268.75c3.126 8.938 4.974 18.71 8 27.75h445.2c11.22-.014 22.432.017 33.637-.01 8.81-.114 18.542-.517 25.885-6.128 2.571-1.803 4.924-4.968 5.79-8.507-3.486-5.592-10.128-9.716-14.864-14.464-17.846-16.077-36.514-31.194-54.842-46.695-8.954-7.855-18.525-14.968-27.672-22.58a252 252 0 0 0-14.309-11.526c-4.446-2.853-9.562-8.777-13.825-10.09-18.15 27.044-40.043 52.306-58.992 78.965-3.764 3.962-7.862 12.155-12.827 12.798-107.037.677-214.132-.123-321.181.237zM1584 1083h144V925h-144zm0 191h144v-164h-144z" style="fill:#feddaa;fill-rule:evenodd;stroke:none"/><path d="M990 2269.5c3.259 2.128 6.25 8.006 9.907 7.882 4.146-1.408 7.808-3.948 11.772-5.787 49.902-25.233 96.614-56.865 142.321-88.595v459c23.335.163 46.843 1.07 69.834-3.696 15.883-2.61 31.21-7.462 46.322-12.863 10.73-3.736 22.814-9.875 31.282-15.878 4.397-3.482 3.433-9.393 3.562-13.907v-425.721c.005-17.796-.007-35.582.004-53.374.161-2.062.023-4.678.992-6.359 5.842-3.098 13.43-4.04 19.103-7.987 5.003-3.353 11.163-8.558 11.901-14.215-16.238-3.271-30.761-12.742-47-16v-1.5c21.765-20.193 43.489-40.409 63.975-61.975 5.233-5.539 9.95-11.504 15.627-16.627 4.1-3.644 7.818-8.969 11.497-12.367 3.368-3 7.979-1.386 12.383-1.537 10.52.264 25.68-2.3 31.518-14.994-58.361-32.405-115.5-67.863-173.5-101-18.2 36.976-34.927 75.197-56.238 110.68-28.845 52.854-60.37 104.266-94.253 153.993-33.52 50.13-70.942 97.885-111.009 142.827m13-681.047c1.79 2.763 4.22 5.02 6.313 7.547 61.462-25.053 123.2-54.813 172.1-100.797 36.72-33.127 68.7-72.904 88.527-118.554 7.77-17.485 14.612-35.459 19.994-53.831 1.279-4.042 2.728-8.028 3.677-12.164.705-3.86 1.58-8.75 6.618-8.555 142.245-.282 284.528.05 426.771-.099v81.6c-.01 10.201.012 20.402-.006 30.592-.079 7-2.447 16.973-11.13 19.32-7.214 2.346-15.026 1.126-22.455 1.487-51.838-1.286-103.634-4.396-155.409-6.999v14c38.109 4.983 78.06 16.107 105.894 44.325 15.456 12.083 23.37 30.858 28.608 49.07 4.243 20.668 9.405 41.434 10.498 62.605 28.194-2.262 56.273-6.127 83.783-12.712 37.475-9.013 77.822-27.703 95.475-64.44 8.503-18.882 12.27-39.496 14.726-59.894 1.589-22.638.782-45.36 1.016-68.025V959.022c.358-4.074-1.278-12.015 3.346-12.95 13.05-2.882 24.89-9.427 33.654-19.572-45.042-32.845-88.421-68.75-133.5-101.5-11.443 11.201-21.039 24.07-32.344 35.384-5.574 5.877-10.606 12.232-16.161 18.117-2.974 2.733-5.49 5.854-8.056 8.94-2.204 2.645-6.19 5.704-6.939 8.559-67.929-.76-136.151.926-204-.5 38.552-16.68 74.869-37.964 111.174-58.93 17.79-10.444 35.308-21.307 52.362-32.907 4.326-3.024 8.547-6.217 13.02-9.014 5.844-3.942 15.84-3.129 23.54-5.685 3.972-.93 7.956-1.915 11.548-3.897 3.304-1.364 6.54-5.303 9.356-6.067v-1.5c-43.276-38.133-88.17-74.45-131.5-112.5-25.343 24.546-49.468 50.44-75.13 74.605-3.44 2.506-9.746.742-14.38 1.395H1410v-1.5c14.982-15.424 27.397-33.156 40.611-50.033 3.13-4.175 5.922-8.675 9.477-12.51 2.876-2.885 8.716-1.59 13.103-1.985 11.14-.312 24.321-.996 30.809-14.472-.458-.45-.911-.96-1.25-1.5-67.63-15.645-134.696-34.29-202.084-51-5.499 9.1-7.384 20.245-12.178 29.75-15.485 37.16-33.554 73.122-53.838 107.859-29.734 51.167-64.424 99.524-102.533 144.765-10.185 11.17-19.744 22.886-29.987 33.996-16.464 15.907-31.962 32.876-49.104 48.032-8.702 7.385-17.266 14.941-26.357 21.842-4.27 3.493-8.764 6.745-13.009 10.263-6.543 4.143.24 8.281 2.84 12.493 50.044-19.87 100.346-41.008 146-70 1.426 61.471-.26 123.447.5 185.013.626 45-1.084 89.938-5.59 134.697-3.239 31.164-6.61 62.438-14.314 92.89-11.38 44.358-27.93 87.62-51.804 126.793-23.634 38.496-54.781 72.197-88.292 102.06m15 367.005c2.823 3.303 6.405 7.136 8.5 10.542 67.555-27.025 133.555-58.536 195.594-96.73 30.41-18.562 59.797-38.73 88.313-60.074 14.16-10.873 28.561-21.421 42.225-32.909 7.903-7.998 16.77-5.205 26.466-5.471 8.732-.477 17.678-6.77 21.902-13.316-27.316-17.21-54.776-34.483-82.046-51.818-27.106-17.275-54.64-33.99-81.454-51.682-13.933 27.984-29.208 55.485-45.956 81.926-50.362 78.545-106.597 154.26-173.544 219.532m250-1081.083c15.13 5.459 31.083 10.196 46.347 15.611 5.728 1.956 12.342 4.889 17.859 5.771 49.24.693 98.548-.126 147.794.243 18.873-40.466 35.51-82.253 50-124.5-26.972-1.426-54.285.26-81.316-.5-20.344.02-40.655-.024-60.99.013-6.9-.419-11.877 7.067-16.427 11.22-32.81 32.278-66.052 64.96-103.267 92.142m33 398.125c47.356 1.426 95.484-.26 143 .5v-162h-133c.408 53.546.503 109.144-10 161.5m10-190.5h133V926h-133zm72 920.25c2.599 9.404 6.359 20.897 8 29.75h281v411c-.236 8.595 1.954 19.667-8.392 26.03-7.51 4.184-16.582 2.618-24.752 2.97-60.297-2.627-120.57-6.085-180.856-9v13c41.83 4.974 83.964 16.86 117.793 42.817 17.072 11.868 27.88 30.537 34.499 49.773 6.384 20.616 9.232 41.95 10.708 63.41 31.958-2.537 64.085-5.126 95.033-14.279 43.262-10.343 85.393-38.957 98.711-83.418 15.607-47.868 10.657-98.991 11.256-148.434V2032h91.8c15.305-.3 30.636.395 45.92-.285 11.501-.655 28.065-.677 32.28-17.381-43.67-36.83-86.158-75.895-132.5-109.334-24.265 31.121-47.455 63.11-71.633 94.29-2.966 3.198-7.575 2.743-11.616 2.71H1383zm68-211.25h460.8c19.5-.137 46.064 3.74 53.2-16.5-40.717-37.318-84.075-71.825-127-106.5-20.628 25.807-40.015 52.947-60.314 79.072-4.18 4.14-7.556 11.747-12.387 13.451-107.344 1.36-214.913-.247-322.299.477 1.773 10.172 5.617 19.98 8 30m134-709h142V926h-142zm0 191h142v-162h-142z" style="fill:#000;fill-rule:evenodd;stroke:none"/></svg>