<svg xmlns="http://www.w3.org/2000/svg" width="3000" height="3000"><path d="M328 2803h2344c-118.785-721.214-240.618-1442.068-360.03-2163.199-7.528-45.17-15.046-90.339-22.588-135.492-1.756-10.718-3.574-21.44-5.367-32.15-1.463-5.102-.632-13.609-5.65-15.42-82.419-27.818-165.08-54.96-247.546-82.639-144.35-48.044-288.615-96.253-432.954-144.3-27.19-9.095-54.376-18.14-81.566-27.195-6.024-1.707-14.13-5.746-19.294-4.368-99.967 33.09-199.81 66.647-299.74 99.834a5130220 5130220 0 0 1-448.968 149.67c-9.274 3.513-19.03 5.778-28.13 9.725-3.665 1.962-2.298 9.57-3.876 12.727-22.54 135.51-45.194 271.003-67.739 406.508C542.266 1518.848 433.622 2160.802 328 2803m663-1367.5c15.642 49.121 31.561 98.305 47 147.5 9.045-2.463 17.284-8.144 22.579-15.921 2.663-3.088 4.353-7.764 6.896-10.481 13.962-8.427 30.104-13.268 44.45-21.069 52.903-24.549 105.365-49.896 157.409-76.204 26.335-12.788 51.834-27.126 77.867-40.475 12.348-6.907 24.83-13.539 37.316-20.17 6.413-3.428 12.65-7.132 19.053-10.567 3.145-1.847 6.907-3.89 9.713-5.698 2.846-1.97.154-7.761.717-10.415-42.755 5.71-85.083 15.572-128 20v-201h77v3c-8.542 2.756-16.476 7.689-25 10.5 29.519 43.546 58.13 87.854 87.5 131.5 6.24-3.943 12.14-9.017 14.907-16.094 3.177-6.035 2.871-14.145 4.717-19.907 21.547-41.307 45.469-81.637 64.876-123.999h3c-5.013 82.273-20.37 165.79-58.984 239.458C1417.47 1485.86 1361.279 1545.854 1295 1589v1.5c2.608 3.024 5.221 8.163 10.492 6.423 4.65-1.516 9.183-3.44 13.795-5.037 64.857-25.088 127.763-58.388 179.188-105.868 51.31-48.118 90.68-108.77 111.049-176.327 15.063-48.65 23.676-99.204 26.607-150.014 3.078-40.889 1.279-81.99 1.869-122.938V665c8.172-1.098 16.332-3.185 23.471-7.38 8.19-4.606 11.094-11.628 14.529-19.12-26.465-4.508-53.834-4.472-80.458-8.262-27.24-1.702-54.282-5.925-81.542-7.238v263h-2.5c-15.724-19.828-34.323-37.206-56.04-50.344-10.374-6.925-21.299-12.99-32.408-18.63-5.898-2.878-11.689-6.04-17.763-8.523-5.538-3.297-12.37-3.77-17.289.997 20.277 45.616 30.994 95.51 37.318 144.884 2.29 13.379 1.31 26.952 2.09 40.4-.006 5.101-.959 10.29-.177 15.393.503 4.297 4.563 6.657 7.579 9.307 10.858 9.212 23.996 17.485 38.613 18.575 6.852.497 15.071-.05 21.109-2.094 6.553-1.34 13.958-7.475 19.468-7.965v92c-17.9 7.275-34.583 17.65-52.001 25.997-12.944 6.78-26.215 12.86-39.382 19.157-5.598 3.482-9.569-2.646-12.747-6.546-24.455-27.499-49.825-54.138-75.37-80.608a3972 3972 0 0 0-23.117 37.499c-3.862 6.465-8.066 12.702-11.74 19.28-1.838 3.255-4.087 6.221-5.87 9.507-2.05 3.179-3.753 7.487-7.773 7.714v-149.998c-.035-3.468-.24-7.824 4.497-7.85 25.684-2.036 50.873-9.388 74.4-19.632 3.84-2.093 9.122-3.931 11.688-7.19 2.609-3.333.678-9.723 1.415-14.278V729c9.564-2.484 23.072-4.722 30-15.5-33.815-25.92-68.494-50.858-102.5-76.5-15.924 16.807-32.294 33.314-48.292 50.03-3.263 2.759-9.18 1.759-13.895 1.97h-55.8c-6.45-.116-13.277.697-19.374-1.946-40.058-15.692-80.733-30.09-120.639-46.054-1.426 122.539.26 245.402-.5 368 22.586-.025 45.612.798 67.58-5.438 10.258-3.02 20.227-7.165 29.324-12.857 4.272-2.874 8.673-5.62 12.577-8.98 4.409-3.99 3.363-9.425 3.519-14.725h15v443c-12.675.988-27.323 4.716-39 5v-318c.338-3.545-.585-8.023.976-10.772 4.02-2.923 9.956-3.044 13.708-6.647 3.569-2.989 6.286-7.03 7.316-11.581-38.693-2.64-77.342-6.854-116-10v371c-17.091.904-33.879 5.247-51 6zm151 869.5c.273 15.696.278 31.793-5.404 46.708-8.888 25.613-25.083 48.936-45.995 66.197-17.886 15.212-40.887 23.322-57.83 39.837-15.328 14.005-26.866 33.823-24.987 55.209.466 17.631 7.94 38.256 18.822 50.353 22.04 24.88 60.934 33.48 91.657 20.938 45.238-19.611 68.21-69.736 71.634-116.293 5.078-50.429-10.281-100.34-30.436-145.758-1.823-4.102-3.945-8.038-5.92-12.056-2.081-5.33-6.724-5.57-11.541-5.135m13 0c31.412.143 63.485-.11 93.702-9.74 13.825-4.28 27.376-9.736 39.412-17.855 5.774-3.612 12.542-8.577 15.418-14.277.964-7.987.129-16.112.468-24.128h496c-4.014 37.266-7.449 74.678-13.602 111.686-4.214 27.865-9.716 55.62-17.25 82.776-5.62 18.416-12.333 41.318-24.767 54.638-12.007 13.61-27.248 14.462-42.824 13.9-49.257-.072-98.593-3.281-147.557-8 .316-5.143 5.28-10.624 6.922-16.438 8.348-22.185 5.456-47.219-4.813-68.293-14.053-30.373-41.005-52.631-68.634-70.074-14.015-7.82-31.054-16.23-44.816-21.534-7.936-3.082-15.834-6.169-23.888-8.89-6.952-2.603-15.94-7.037-22.771-.271 23.585 47.586 40.853 98.98 46.449 152.028.915 7.25.888 14.604 1.263 21.885.51 5.214-1.13 12.433 4.282 16.755 15.376 12.794 34.388 23.28 55.15 21.69 9.77-.737 21.22-3.937 28.837-8.783 4.112-2.266 7.596-5.45 11.298-8.274 3.607-2.468 6.863-8.457 10.721-8.801v9c33.353 6.152 73.013 18.436 98.115 37.579 13.69 10.094 25.295 24.248 28.846 41.265 4.914 18.307 5.082 37.381 5.039 56.156 34.844-.078 70.107-1.825 104.01-10.435 23.204-5.888 44.565-17.235 62.986-32.36 27.176-24.56 43.547-58.829 54.183-93.27 11.82-35.61 17.927-72.807 24.44-109.625 6.442-42.59 12.015-85.369 15.381-128.31 15.445-1.532 31.071-6.99 42-18.5-41.634-34.186-82.549-69.874-124.5-103.5-16.292 15.971-33.856 30.532-49.945 46.723-6.598 5.669-12.583 12.022-19.307 17.557-5.238 6.464-15.76 4.543-23.066 4.72H1596v-127h245.4c10.027-.274 20.445.907 30.209-2.069 3.942-1.156 7.858-2.84 10.731-5.877 2.295-2.1 5.339-6.601 3.027-8.636-40.608-35.202-84.495-66.77-127.867-98.418-20.104 24.486-39.748 49.407-59.95 73.824-4.69 6.09-9.566 14.581-19.096 13.176H1596v-128h226.2c12.469-.108 24.953.287 37.4-.537 9.712-.595 23.549-3.079 27.4-15.002-41.118-35.52-85.46-67.87-129.5-99.461-20.42 24.168-39.783 49.3-59.988 73.65-4.63 5.615-9.235 14.35-18.807 13.35H1596v-127h264.6c11.13-.44 22.347.578 33.441-.412 7.78-1.485 17.843-5.69 19.967-12.608 1.519-3.315-4.564-6.083-6.098-8.244-41.828-34.14-85.206-66.426-128.41-98.736-23.793 31.608-51.31 61.121-74.5 93h-361.2c-8.717-.548-19.228.876-27.091-.982-54.004-19.301-107.935-39.21-161.709-59.018zm5-1366h103V716h-78c-8.138 1.08-17.097-1.413-25 1zm96 1372.5c5.575 25.685 5.997 52.77 6 79.046.513 23.041-1.111 46.003-4.42 68.794-2.098 19.276-7.549 38.343-12.12 56.97 13.895 28.55 50.524 46.16 81.245 36.547 22.928-7.416 39.915-26.45 48.826-48.252 14.337-36.334 4.73-77.626-15.728-109.346-18.794-31.15-46.576-55.554-76.264-75.908-3.931-2.564-7.72-5.361-11.847-7.605-2.163-.98-4.67-3.39-6.556-3.19-2.374.336-4.705 1.023-7.024 1.628-.773.315-1.427.864-2.112 1.316m48-410.5h146v-127h-146zm0 156h146v-128h-146zm0 155h146v-127h-146zm237 82.438c26.622 22.414 48.429 50.198 65.92 80.19 6.548 11.485 12.16 23.533 17.376 35.661 2.221 5.35 3.492 11.011 5.447 16.458 2.038 4.854 1.575 12.556 5.78 15.258 17.55 10.536 39.762 16.63 59.7 9.079 30.092-9.032 48.99-42.28 42.753-72.877-5.91-29.69-30.045-51.81-56.219-64.323-20.321-10.657-42.769-16.609-65.326-20.04-11.485-1.738-23.03-2.874-34.593-3.847-5.98-.331-11.982-.463-17.959-.729-5.094.568-11.774-1.564-17.454.998-1.892 1.153-4.126 2.598-5.425 4.171M1947 1340c-5.666 18.43-11.532 36.936-18.164 55.057-5.974 14.814-12.253 34.122-23.805 44.046-13.415 8.721-33.287 4.985-46.888 5.897-12.768-.265-31.76 3.178-35.595-11.115-2.772-12.345-.84-25.257-1.548-37.77V1129h3c10.311 23.501 21.05 47.088 28.734 71.675 6.34 19.275 10.763 39.082 14.688 58.954 1.757 6.498.045 15.567 6.667 20.6 19.72 15.63 46.839 25.227 71.408 15.082 24.35-8.626 40.792-32.315 43.746-57.489 3.447-26.871-8.067-53.696-23.561-74.899-15.342-21.162-36.535-37.202-58.24-51.28-17.312-10.687-36.016-18.874-54.922-26.24-10.5-3.446-20.945-7.252-31.52-10.403v-74c32.971-18.245 63.712-41.15 94.877-62.395 15.636-11.317 31.179-22.76 46.33-34.713 3.816-2.685 7.893-6.448 11.556-8.656 2.89-2.262 7.519-.035 10.437.658 10.823 2.985 23.346.033 31.8-7.394-23.735-17.58-47.91-34.57-71.615-52.182-12.153-8.677-24.077-17.686-36.19-26.41-6.115-4.418-12.231-8.779-18.298-13.25-5.854-3.092-12.432-10.515-17.897-11.658-11.497 58.712-32.273 115.405-48 173h-3V668c14.609-.798 35.041-8.158 37-27-57.05-5.117-113.94-13.122-171-18v754.034c.004 31.377-.22 62.744.646 94.102 1.178 25.22 1.89 52.646 14.95 75.183 11.823 19.08 34.178 27.21 55.427 29.485 20.616 3.246 41.588 1.878 62.349 2.196 35.271.203 70.917.782 105.62-6.7 22.53-4.307 49.72-14.908 62.783-32.518 11.538-14.73 15.703-34.294 12.39-52.604-2.57-13.811-11.026-25.838-22.386-33.953a131 131 0 0 0-12.303-8.428c-8.805-4.033-5.814-17.293-6.874-24.99-.897-14.444-1.251-28.895-2.275-43.316-.507-7.417-.733-14.823-1.071-22.247-.02-3.642-.29-7.283-.672-10.882-.907-3.038-6.416-1.953-8.584-2.362" style="fill:#feddaa;fill-rule:evenodd;stroke:none"/><path d="M989 1434.25c16.553 49.5 31.908 99.995 48 149.75 9.446-.604 18.524-8.333 23.658-14.63 2.545-3.226 4.464-6.821 6.566-10.311 5.289-5.833 15.399-7.324 21.22-11.251 56.017-25.384 111.652-51.842 166.447-79.759 54.397-28.007 109.452-55.47 162.109-86.549-1.646-2.597-1.428-6.97-2-10.5-42.8 5.504-85.134 14.942-128 20v-199c24.929.76 50.151-.926 75 .5-7.47 2.778-16.495 8.522-25 10.5.919 5.642 7.186 11.242 10.109 17.174 25.024 39.205 52.28 77.492 76.891 116.826 11.634-2.511 18.563-15.25 20.238-25.947 1.166-12.582 9.649-22.845 14.879-34.017 18.113-32.992 35.731-66.286 52.383-100.036-3.914 82.307-21.079 166.116-59.696 239.546-17.817 34.896-41.257 66.81-67.712 95.58-26.985 29.693-59.366 53.754-91.092 77.874 1.58 3.527 6.365 6.757 7 10 49.131-16.603 96.644-39.076 140.282-67.167 65.213-42.138 119.578-102.419 151.61-173.435 33.5-75.9 45.972-159.623 46.812-242.07.845-150.442-.154-300.884.296-451.328 15.354-2.448 34.612-7.594 38-29-54.68-4.355-109.239-11.691-164-15-.76 87.568.926 175.55-.5 263-23.84-29.891-54.894-53.056-89.37-69.434-4.663-2.253-9.2-4.747-13.926-6.849-4.039-1.301-8.426-4.537-12.162-4.132-3.226.695-7.915 1.699-9.45 4.326 2.9 12.668 10.252 24.466 13.305 37.245 3.92 12.411 7.262 25.017 10.541 37.6 6.791 28.376 12.056 57.292 14.204 86.424.695 11.872.157 25.674.358 36.487-1.106 8.774 8.539 14.72 14.682 19.183 10.369 7.99 22.897 13.032 36.005 13.622a59 59 0 0 0 34.756-10.069c.532-.121 1.059-.213 1.557-.403v90c-15.622 6.801-33.519 16.47-47.406 23.663-15.33 8.483-31.696 15.127-47.094 23.337-27.734-30.26-54.886-61.026-84-90-17.103 24.022-29.901 51.016-47 75-1.426-41.455.26-83.334-.5-124.878.014-8.002-.017-15.976.01-23.967-1.004-9.153 8.693-6.935 14.787-8.007 24.323-3.84 48.508-10.55 70.497-21.826 5.685-2.151 7.068-5.864 6.706-11.102V730c11.407-2.34 24.18-6.063 31-16.5-34.007-27.188-70.28-51.573-104.5-78.5-8.055 8.444-16.877 16.205-24.338 25.19-6.759 7.65-14.837 14.101-21.3 22.012-5.533 8.192-18.51 5.336-26.907 5.798-17.764-.01-35.51.013-53.259-.007-11.731-.428-24.025-8.18-34.199-10.948-33.372-11.626-65.842-26.388-99.497-37.045v370c23.052-.05 46.57.957 69.038-5.275 10.458-2.998 20.612-7.24 29.866-13.02 4.272-2.874 8.673-5.62 12.577-8.98 4.409-3.99 3.363-9.425 3.519-14.725h13v441c-12.399 1.005-24.595 4.177-37 5v-318c.454-3.038-.84-8.537 2.373-9.597 8.099-3.546 19.259-6.455 19.627-19.403-39.399-2.312-78.622-7.417-118-10v371c-17.435.826-34.53 5.475-52 6zM1151.5 2303c-3.427 2.195-8.322-.305-11.5 2.5 4.739 30.364-7.933 61.959-26.084 85.951-15.397 21.119-36.636 36.934-59.928 48.267-18.609 12.03-36.771 28.11-44.273 49.71-12.05 37.912 9.603 84.772 48.428 96.46 15.272 5.229 32.056 6.993 47.946 3.405 25.646-5.64 47.194-23.89 60.866-45.75 22.428-34.963 27.446-77.774 23.483-118.275-4.221-40.315-17.591-79.469-35.623-115.639-1.177-2.188-2.18-4.43-3.315-6.629m2.5 3c31.74.173 64.095.073 94.697-9.4 13.984-4.45 27.823-9.711 40.04-17.97 5.918-3.627 12.82-8.754 15.795-14.502.964-7.987.129-16.112.468-24.128h494c-9.143 73.263-14.305 148.605-39.496 218.731-5.82 15.738-14.861 32.639-31.524 39.056-14.108 5.036-29.527 2.463-44.196 3.208-42.95-1.447-86.072-3.498-128.784-7.995 9.778-17.111 14.94-37.373 10.649-57.14-4.42-28.609-21.243-53.477-42.739-72.127-20.457-18.785-44.602-32.934-70.216-43.414-9.58-4.476-19.769-7.489-29.567-11.405-4.948-1.65-9.862-3.42-14.863-4.86-5.816-2.245-9.598 1.105-14.264 2.946 23.35 48.034 41.714 99.457 47.263 152.969.971 7.196 1.113 14.46 1.38 21.705.572 5.953-.756 13.704 3.225 17.47 15.154 13.276 34.176 23.705 54.961 22.836 20.005-.057 39.73-9.838 51.671-25.98.832 2.43.282 5.999.5 9 33.353 6.152 73.013 18.436 98.115 37.579 13.69 10.094 25.295 24.248 28.846 41.265 4.914 18.307 5.082 37.381 5.039 56.156 35.42-.107 71.311-1.63 105.797-10.381 23.598-5.995 45.396-17.536 64.005-33.106 27.115-24.938 43.242-59.461 53.896-94.096 11.596-36 17.86-73.457 24.332-110.607 6.15-41.774 11.775-83.695 14.97-125.81 15.95-1.536 31.969-7.413 43-19.5-42.026-35.287-84.084-70.71-126.5-105.5-16.028 16.155-33.78 30.429-49.738 46.65-6.626 5.667-12.738 11.866-19.343 17.54-6.28 7.342-14.175 6.117-22.441 5.81H1597v-125h227.4c12.55-.26 25.136.335 37.663-.225 10.082-.162 22.351-4.266 26.937-16.275-41.794-36.385-87.078-68.525-131.5-101.5-20.22 24.269-39.63 49.24-59.867 73.493-5.047 6.304-10.665 15.391-18.411 14.507H1597v-126h228c12.473-.025 24.953.242 37.388-.65 11.306.204 21.97-5.497 26.612-15.85-41.317-36.802-87.196-68.63-131.5-101.5-20.822 23.803-39.697 49.362-60.125 73.516-4.977 6.173-10.433 15.19-17.903 14.484H1597v-125h249.6c13.807-.003 27.63.004 41.435-.002 10.35.14 24.557-3.74 28.965-16.53-44.297-37.428-91.529-71.21-137.5-106.468-12.827 15.674-25.541 31.48-38.31 47.203-11.844 15.841-26.253 30.462-37.19 46.797h-361.8c-8.569-.357-19.012.903-26.6-1.64-54.163-18.482-107.29-40.506-161.6-58.36zm7-1368h101V717h-76.8c-7.982.919-17.743-1.252-24.2 1zm94 1372.5c6.876 43.184 7.9 87.497 3.67 131.034-1.713 15.704-3.827 31.409-7.525 46.787-1.526 7.05-3.194 14.053-5.227 20.97-.453 2.514-1.617 5.651-1.368 8.397 9.853 20.779 35.991 36.741 56.454 38.611 18.376 2.797 36.751-4.314 50.789-15.793 20.751-17.992 32.515-45.481 31.207-72.932.911-27.665-9.872-54.339-24.655-77.133-22.216-34.145-54.726-60.703-89.127-81.812-4.116-2.402-11.128-.005-14.218 1.871m50-410.5h144v-125h-144zm0 156h144v-126h-144zm0 155h144v-125h-144zm234 82.75c39.395 37.527 76.015 82.662 90.507 136.637.949 3.521 1.276 7.255 3.003 10.516 20.7 16.51 52.661 19.155 75.67 5.964 24.196-12.793 35.63-42.216 31.034-68.367-6.87-36.116-39.471-60.515-71.908-72.565-36.273-14.177-75.749-17.161-114.284-17.934-2.74-.008-5.54.04-7.9 1.435-2.131 1.097-3.843 2.88-6.122 3.564zM1946 1339c-5.602 18.25-11.409 36.563-17.966 54.511-5.86 14.758-12.16 33.707-23.19 43.943-12.793 9.38-32.603 5.751-45.904 6.546-12.933-.054-32.107 3.047-35.552-11.658-2.516-12.407-.722-25.279-1.388-37.826.76-88.111-.926-176.492.5-264.516 13.504 27.665 25.002 56.527 33.528 86.112 3.259 11.447 6.119 23.02 8.426 34.69 1.03 5.255 2.227 10.494 2.89 15.805.513 4.597.676 9.843 4.237 13.266 13.56 11.221 30.36 19.59 48.21 20.296 26.72 2.178 53.04-13.786 63.76-38.346 12.124-25.039 8.528-55.209-4.226-79.159-18.026-38.112-59.969-68.1-93.659-84.339-15.041-7.623-30.896-13.518-46.838-18.882-5.653-1.656-11.12-4.002-16.828-5.443v-72c33.094-18.363 64.014-41.287 95.27-62.687 15.873-11.284 31.413-23.046 46.748-35.04 3.944-3.017 7.732-6.283 12.013-8.786 6.658.535 13.706 4.318 21.793 2.5 7.141-1.19 15.417-4.779 20.176-9.487-48.051-36.065-97.422-70.48-145.5-106.5-15.01 58.611-31.276 117.374-50 175-1.426-95.916.26-192.048-.5-288 14.606-1.467 36.084-7.423 37-29-28.568-2.76-57.114-6.15-85.668-9.106-29.15-2.388-58.131-7.378-87.332-8.894v758c-.045 31.676-.193 63.33.714 94.995.397 13.053 1.482 28.429 3.844 40.196 2.247 11.418 4.85 23.272 11.62 33.026 12.323 19.022 35.067 26.622 56.477 28.81 20.866 3.14 42.113 1.465 63.114 1.973 35.676.2 71.73.75 106.794-7.013 22.984-5.253 47.834-14.01 62.472-33.842 11.117-15.425 14.66-35.348 10.947-53.91-2.826-13.638-11.367-25.317-22.606-33.339-3.916-3.063-8.846-6.255-12.752-8.59-8.224-3.913-4.558-18.713-6.086-25.636-.942-14.625-1.346-29.281-2.327-43.905-.462-7.437-.683-14.885-1.029-22.318-.454-3.383.332-7.673-1.192-10.257-2.632-1.896-7.043-.763-9.99-1.19" style="fill:#000;fill-rule:evenodd;stroke:none"/></svg>