<svg xmlns="http://www.w3.org/2000/svg" width="3000" height="3000"><path d="M328 2803h2344c-118.785-721.214-240.618-1442.068-360.03-2163.199-7.528-45.17-15.046-90.339-22.588-135.492-1.756-10.718-3.574-21.44-5.367-32.15-1.463-5.102-.632-13.609-5.65-15.42-82.419-27.818-165.08-54.96-247.546-82.639-144.35-48.044-288.615-96.253-432.954-144.3-27.19-9.095-54.376-18.14-81.566-27.195-6.024-1.707-14.13-5.746-19.294-4.368-99.967 33.09-199.81 66.647-299.74 99.834a5130220 5130220 0 0 1-448.968 149.67c-9.274 3.513-19.03 5.778-28.13 9.725-3.665 1.962-2.298 9.57-3.876 12.727-22.54 135.51-45.194 271.003-67.739 406.508C542.266 1518.848 433.622 2160.802 328 2803m672-1229.625c1.928 3.014 4.39 5.704 6.5 8.625 53.396-21.595 106.524-45.284 154.04-78.343 23.938-15.639 45.764-34.152 67.126-53.031 10.462-9.999 20.488-20.439 30.758-30.631 4.77-5.358 9.47-10.712 14.206-16.085 4.61-4.344 9.493-13.645 15.37-13.91 10 17.362 21.883 34.185 31 52.193 6.971 13.268 12.727 27.134 18.789 40.814 2 5.556 3.856 11.151 6.065 16.615 1.887 4.484 8.265 5.968 12.012 8.313 16.473 7.903 35.532 13.291 53.787 8.12 16.707-4.584 31.493-14.702 40.19-29.777 13.41-20.62 15.069-46.692 10.077-70.175-5.389-22.744-15.999-43.947-30.165-62.478-10.852-14.83-23.742-28.018-37.712-39.913-6.986-5.775-14.245-11.222-21.625-16.458-3.685-2.306-7.128-4.981-10.948-7.056-3.316-2.07-8.995-5.01-7.381-8.796 25.18-55.118 45.739-112.693 57.426-172.326 12.84-60.396 23.361-121.503 28.485-183.076 14.867-2.941 35.838-4.35 40-20-41.345-32.663-80.371-69.774-121.5-103-16.146 16.022-31.066 33.161-47.15 49.238-3.722 4.526-7.634 8.894-11.952 12.864-2.993 2.777-6.025 6.489-8.732 9.053-6.629 1.665-14.268.307-21.139.845H1246c12.767-68.317 29.07-136.15 39-205 7.87-1.516 17.13-.405 25.8-4.997 7.553-3.307 14.295-9.749 16.2-18.003-55.765-11.866-112.004-23.25-167.5-36-10.304 88.592-27.899 176.397-44.5 264h-113c1.355 9.326 5.84 17.89 8 27h99c-12.998 67.473-28.304 134.595-43.383 201.641-15.847 66.366-31.7 132.858-52.617 197.859 24.694 8.957 56.907 12.373 80.935 10.885 12.8-.668 25.517-3.181 37.636-7.303 5.296-2.815 13.553-4.762 16.13-9.58 2.673-5.878 3.58-12.404 5.723-18.461 1.434-4.827 2.813-9.666 3.955-14.559 1.687-3.528 1.3-11.11 5.364-11.982 15.072 9.667 26.83 24.636 39.99 36.733l8.637 8.637c2.266 2.982 6.347 5.189 7.161 8.724.547 6.483-5.238 14.008-7.432 21.034-23.08 49.501-51.667 96.463-86.742 138.453-18.16 21.323-38.503 40.624-58.997 59.64-20.858 17.578-42.492 34.415-65.36 49.279zm0 607.875c3.339 8.914 5.75 18.697 9 27.75h48c-1.065 76.29.977 152.938-6.3 228.979-3.651 35.186-8.014 70.568-17.625 104.692-4.712 16.81-10.413 33.321-16.953 49.497-3.372 7.776-6.658 15.6-10.322 23.238-1.705 3.334-4.656 7.732-1.842 11.62 2.476 3.31 5.77 5.944 8.542 8.974 31.634-22.264 61.2-48.32 84.638-79.225 35.34-47.105 56.864-103.537 69.538-160.655 6.13-30.461 10.28-61.343 13.216-92.266 2.592-31.556 6.072-63.15 6.108-94.854h35v431c20.662.246 41.658 1.184 61.805-4.448 14.096-3.372 27.438-9.021 40.65-14.817 9.252-4.566 18.167-9.95 26.344-16.235 2.892-2.556 6.166-5.797 7.911-8.895 2.678-6.585.332-16.351 1.29-23.303V2139c2.96-.037 4.945 2.869 6.5 5 121.852-21.65 243.814-55.171 351.068-118.893 51.26-30.49 99.567-65.997 143.756-106.06 22.056-21.451 44.007-42.99 63.773-66.662 4.973-5.684 9.429-11.828 14.288-17.603 3.327-3.081 6.58-10.645 11.32-12.386 15.975-2.534 37.345-4.104 48.295-15.896-44.404-35.05-87.867-71.885-132.5-106.5l-37.102 37.102c-9.397 9.372-18.735 18.765-28.136 28.12-3.919 4.539-9.031 3.865-14.516 3.778H1670c.323-4.736 6.125-7.48 8.95-10.53 11.688-11.226 25.91-23.825 36.42-34.34 5.677-7.332 17.36-4.552 25.34-5.384 7.883-.424 15.854-3.942 20.29-10.746-2.2-2.802-7.444-2.89-11.076-4.532-58.449-16.166-116.358-34.93-174.924-50.468-19.843 54.096-54.037 101.917-87.737 148.03-35.213 46.544-75.363 89.172-120.263 126.47 3.178 3.878 5.68 5.546 10.14 3.934 4.025-1.31 8.021-2.658 12.033-3.991 9.664-2.89 19.06-6.552 28.363-10.416 8.293-2.389 17.671-9.86 23.431-2.55 20.54 22.733 34.9 57.234 38.284 84.918 1 7.633-.899 18.214 5.676 21.906 9.086 6.168 21.162 11.728 31.23 13.188 12.008 2.507 23.616-1.017 34.843-4.489-.584 4.624-6.998 6.572-9.957 9.327-28.876 17.911-57.91 35.772-88.41 50.85-15.45 8.165-30.88 16.325-46.906 23.31-7.88 3.402-15.44 7.532-23.46 10.602-7.58 2.522-15.865 8.124-23.267 8.911v-435c8.743-.774 17.49-2.877 25.199-7.157 7.961-3.625 10.515-12.266 13.801-19.343-58.345-7.869-118.186-10.915-176.5-18.5-1.426 114.21.26 228.72-.5 343h-52v-240c7.34-.626 16.05-3.361 22.016-6.462 7.742-4.182 9.36-11.134 11.984-18.038-54.166-4.829-108.723-9.188-163-13.5v367.2c.015 4.614-.019 9.236.01 13.843-1.042 9.987 13.106 6.306 18.95 6.538 27.44-.366 54.627-6.22 80.102-16.42 6.14-2.46 12.216-5.083 17.989-8.329 3.957-2.208 8.098-4.597 10.556-8.573 2.73-7.743.52-16.459 1.393-24.464V2023h26.4c7.457.294 16.337-.434 23.131.421 3.028.749 2.085 6.222 2.469 8.359V2181h-221zM1169 1221c12.57 2.676 25.315 4.579 37.76 7.848 12.584 1.964 26.695 7.562 38.24 9.152 32.11-109.058 48.116-222.542 54-336h-49.8c-2.925.572-9.316-1.02-9.807 2.73-5.818 24.184-10.545 48.672-16.021 72.938-8.71 41.276-18.317 82.352-27.415 123.53-4.634 20.73-9.326 41.44-14.261 62.098-2.326 9.81-4.63 19.645-6.878 29.467-1.704 9.144-5.408 19.702-5.818 28.237m205 960.25c3.161 8.933 5.266 18.61 8 27.75h324v256.2c-.28 7.057 1.734 15.812-6.081 21.646-5.86 3.66-13.08 3.116-19.649 3.146-48.18-.61-96.18-5.027-144.27-6.992.447 3.214-.97 9.361 2.43 10.573 3.365.673 6.823 1.453 10.223 2.032 17.16 2.821 34.048 7.523 50.027 14.352 21.825 11.508 42.515 27.78 53.325 50.613 11.133 23.946 11.62 50.936 15.995 76.43 28.103-3.38 56.489-6.131 83.73-14.36 19.268-5.58 38.495-13.114 54.445-25.55 25.834-18.514 35.888-50.272 39.504-80.303 4.131-33.63 1.285-67.714 2.321-101.492V2209h128.4c11.125.065 26.946.03 33.522-12.654 1.803-4.288-3.08-8.371-5.162-11.673-20.053-24.228-40.734-47.961-61.595-71.472-9.165-11.435-21.987-22.969-30.665-33.201h-1.5c-16.602 34.568-39.078 66.58-56 101h-7v-76.8c.232-6.36-.303-12.785.212-19.125.191-4.365 6.124-4.334 9.452-5.234 10.481-2.08 24.285-9.428 25.336-23.841-59.089-3.672-117.945-10.905-177-15v140h-332zm49-1473c3.308 8.282 6.415 18.92 9 26.75h355v260h-111c-8.42-.371-18.44.52-26.125-.444C1596.51 976.66 1544.355 954.91 1491 937v439.2c.449 33.847-1.402 68.023 3.645 101.646 2.98 26.567 15.585 53.825 40.854 65.922 21.492 11.205 46.133 13.914 69.835 16.186 46.093 3.143 92.42 1.711 138.565 1.806 65.8-1.326 133.176.526 197.276-17.32 25.577-7.023 58.415-23.212 63.263-58.27 2.407-15.811.015-33.34-11.262-45.542-8.949-10.898-25.332-18.277-37.176-22.628-3.933-54.497-.242-109.462-4-164-9.606-1.326-10.446 5.89-12.766 12.93-9.636 29.018-20.102 57.743-30.401 86.514-4.535 12.846-9.749 25.398-15.162 37.88-4.75 10.6-11.739 23.257-20.957 29.198-10.426 6.74-23.548 6.245-35.39 7.155-50.002.92-100.02-.167-150.022.323-9.184.115-18.377.103-27.506-.93-7.304-.765-15.647-3.32-19.32-10.308-3.713-7.316-2.039-15.94-2.476-23.779V1023h149v104c22.365.373 44.981.558 66.91-4.695 15.086-2.91 32.389-8.073 45.784-12.373 10.143-4.005 22.826-7.746 31.07-13.613 3.89-2.746 3.292-8.723 3.236-12.86V759c14.24-3.987 30.412-9.875 40-21.5-43.5-34.177-88.18-67.548-132.5-100.5-10.567 13.264-23.298 24.659-33.99 37.807-10.444 10.465-19.754 22.216-30.275 32.517-117.908 1.928-236.238-.35-354.235.676zm6 1526.125c24.31 31.195 42.6 66.963 55.387 104.299 4.972 14.62 8.828 29.668 11.218 44.916 1.564 7.312 2.116 14.735 2.918 22.132.782 5.89 7.727 9.653 12.214 12.629 19.3 13.162 44.357 17.975 66.418 8.726 33.644-12.27 52.74-52.13 43.055-86.186-8.541-33.904-35.851-58.373-65.31-74.514-17.589-10.606-37.082-17.442-56.637-23.309-10.354-3.11-20.912-5.406-31.433-7.81-10.315-.95-22.778-6.197-32.345-4.23-1.965.608-3.74 2.338-5.485 2.972zm23-330.875v1.5c35.679 1.427 73.118 7.375 103.54 27.34 14.317 9.514 25.973 24.51 28.223 42.04 1.024 9.33-.926 18.801-5.146 27.178-1.886 3.682-4.156 7.18-6.645 10.463-2.234 3.21-6.573 6.184-6.972 9.979 5.644-.902 10.933-7.5 16.803-10.48 41.09-29.16 79.552-61.915 114.93-97.753 17.912-18.067 34.475-37.378 50.666-56.989 7.725-9.89 15.229-19.934 22.692-30.019 3.576-5.062 6.797-10.347 10.527-15.295 2.88-4.647 8.187-10.717 8.382-15.464h-103.8c-17.311.706-34.768-.863-52.034.472-6.621 3.29-12.174 8.915-18.566 12.724-3.066 2.13-6.158 4.178-9.136 6.422-2.377 1.789-6.06 3.551-6.464 7.382 33.92-.949 84.951 2.447 99.969 45.026 9.426 29.159-13.133 61.396-42.284 66.546-11.36 2.873-23.206 1.203-34.151-2.288-10.892-2.454-11.288-13.64-16.42-21.843-7.938-14.036-17.057-27.48-28.15-39.252-3.992-4.986-8.648-9.377-13.202-13.839-4.14-3.681-8.778-8.797-13.893-6.114-32.266 17.897-64.174 37.906-98.869 50.764z" style="fill:#feddaa;fill-rule:evenodd;stroke:none"/><path d="M998 1572.75c1.045 2.71 4.045 5.513 6.183 8.132 2.053 3.399 7.513.222 9.961-.734 41.165-16.199 81.694-34.463 119.385-57.78 28.988-17.079 56.274-37.033 81.844-58.861 13.233-11.048 25.166-23.57 37.36-35.74 6.06-6.103 11.821-12.443 17.534-18.857 2.647-3.245 5.486-6.307 8.098-9.582 2.565-2.673 5.448-7.537 8.635-8.328 10 17.362 21.883 34.185 31 52.193 7.02 13.423 12.904 27.383 18.945 41.258 2.234 5.641 3.823 11.53 6.357 17.048 1.977 3.89 8.576 5.281 12.593 7.92 16.516 7.767 35.53 12.648 53.771 7.899 16.732-4.32 31.739-14.323 40.616-29.216 13.992-20.605 15.475-46.959 11.093-70.713-4.947-23.058-15.445-44.748-29.7-63.47-20.683-29.507-49.594-51.417-79.675-70.419 26.549-54.43 45.843-112.93 58.239-172.259 13.026-60.77 23.591-122.26 28.761-184.241 13.762-2.656 33.916-3.54 41-20.375-41.371-34.935-82.09-70.733-123.5-105.625h-1.5c-1.308 4.596-7.812 8.023-10.975 12.475-13.41 14.596-27.555 28.53-40.555 43.474-3.377 3.608-7.002 6.947-10.399 10.517-2.348 2.426-4.343 6.193-8.606 6.401-12.483.378-24.985-.068-37.465.133 13.727-67.456 28.642-134.909 39-203 8.207-1.554 17.918-.383 26.867-5.482 7.961-3.628 13.998-11.087 16.133-19.518-57.217-10.754-113.879-24.72-171-36-8.897 88.838-28.164 176.278-44 264h-114c2.381 9.82 6.207 19.304 9 29h99c-28.44 133.907-55.718 268.855-97 399.5 28.48 9.243 59.057 12.776 88.929 10.6 14.596-1.657 29.415-4.626 42.541-11.495 7.355-3.47 8.426-9.982 10.032-16.812 1.79-6.726 3.938-13.367 5.58-20.12 1.349-4.274 2.092-10.665 4.418-13.673 13.854 11.828 27.028 24.388 39.602 37.602l8.63 8.63c1.961 2.593 6.828 5.69 6.77 8.739-20.751 54.147-52.652 104.26-88.318 149.821-36.973 45.258-81.79 85.188-131.184 116.208zm10 637.25h48c-1 76.561.947 153.457-6.578 229.759-3.421 35.542-8.472 71.04-18.33 105.404-4.724 16.796-10.74 33.225-17.359 49.345-3.498 7.816-6.811 15.708-10.673 23.338-5.96 8.184 4.813 15.281 9.44 20.154 31.42-22.786 61.619-48.136 85.034-79.37 35.604-47.142 57.195-103.728 70.014-160.97 6.165-30.441 10.37-61.293 13.294-92.207 2.584-31.76 6.157-63.552 6.158-95.453h33v431c20.8.132 41.958 1.219 62.302-4.08 14.489-3.31 28.175-9.099 41.737-15.003a155.6 155.6 0 0 0 26.76-16.417c2.892-2.556 6.166-5.797 7.911-8.895 2.7-6.766.31-16.77 1.29-23.903v-71.993c.76-120.143-.926-240.677.5-360.709 1.683 1.21 3.264 4.52 5.119 4.53 7.442-.079 14.685-2.717 22.046-3.478 118.066-21.891 235.424-57.364 338.617-120.207 49.462-30.517 96.726-65.061 139.193-104.82 21.405-20.882 42.544-41.961 61.695-65.009 4.505-5.852 9.38-11.426 13.804-17.342 3.533-4.345 6.92-10.398 11.92-10.752 15.985-1.526 36.555-5.007 47.106-16.422-44.664-36.197-89.607-72.738-134.5-108.5l-37.102 37.102-28.13 28.13c-3.842 4.874-8.622 5.279-14.098 4.768-38.286-.76-76.999.926-115.17-.5 13.869-13.142 28.757-25.15 41.975-38.975 3.343-3.36 7.184-8.18 11.841-8.412 12.135-.992 31.056 3.18 38.184-14.113-62.273-18.76-125.406-35.927-187.5-55-22.563 53.351-53.535 102.867-88.943 148.646-36.226 45.552-74.791 91.316-121.557 126.354v1.5c3.274 3.647 6.852 7.848 12.889 5.04 5.09-1.702 10.202-3.395 15.284-5.097 14.053-5.366 28.77-10.057 42.327-16.443 11.263 10.704 19.713 23.923 26.426 37.829 5.76 11.346 10.518 23.26 13.445 35.669 2.433 9.454 3.577 19.238 3.64 28.992-.633 6.548 6.72 10.302 11.63 12.962 17.491 11.138 40.446 12.41 59.359 5.048-29.2 20.137-60.263 37.536-91.506 54.261-32.381 16.26-64.624 33.234-98.494 46.239v-433c16.09-1.562 36.013-6.744 39-29-59.628-6.147-119.39-11.749-179-18v343h-50v-238c7.476-.46 17.564-3.9 22.86-7.012 6.816-4.395 10.379-12.166 11.14-19.988-55.082-3.126-109.916-10.014-165-13v370.2c.077 4.815-.102 9.612.075 14.414-.323 5.33 4.478 6.036 8.313 5.373 15.32-.385 30.75-.696 45.87-3.35 20.736-4.128 41.22-10.237 60.294-19.426 4.506-2.39 9.95-5.235 13.243-8.618 5.08-5.697 2.396-16.862 3.205-25.019V2024h25.8c7.222.356 15.985-.588 22.489.696 2.545 1.657 1.164 6.925 1.711 9.28V2180H999c1.686 10.301 6.51 19.92 9 30m162-990c24.878 4.684 49.598 10.243 74 17 32.124-108.407 47.732-221.222 54-334h-47.4c-3.319.286-8.012-.626-10.14 1.73-5.204 23.829-10.467 47.748-15.535 71.622-17.07 81.467-36.855 162.464-54.925 243.648m211 990h324v255c-.226 6.973 1.57 16.13-6.864 21.313-5.943 3.237-12.972 2.65-19.46 2.654-24.178-.552-48.3-2.05-72.445-3.087-23.7-1.773-47.477-3.184-71.231-3.88.69 3.744-1.385 10.93 2.408 12.56 4.233.817 8.528 1.812 12.808 2.49 16.956 2.96 33.793 7.57 49.392 14.884 21.276 11.778 41.58 27.94 51.847 50.685 10.753 23.683 11.195 50.251 15.545 75.381 26.737-2.663 53.594-5.639 79.619-12.652 35.667-8.497 73.752-26.937 88.65-63.115 16.48-38.75 13.928-81.612 13.731-122.563V2210h129c11.185.105 26.951-.313 33.287-13.203 2.193-3.963-1.552-7.986-4.091-11.204-19.846-24.75-41.001-48.425-62.01-72.16-10.571-12.195-21.79-24.076-33.186-35.433-11.223 15.928-19.091 34.567-29.608 51.068-9.01 17.178-19.88 33.548-28.392 50.932h-5v-76.2c.33-6.13-.484-13.44.46-19.006.632-3.816 8.48-2.682 10.876-4.381 11.985-2.301 23.903-12.343 23.664-25.413-59.777-3.34-119.236-11.515-179-15v140h-332c1.7 10.2 5.941 19.875 8 30m50-1474h355v258h-111.6c-8.476-.484-18.752.875-26.364-1.174-52.454-19.365-105.158-38.376-157.536-57.826-1.426 160.29.26 320.939-.5 481.292.22 19.385.626 38.85 2.95 58.107 2.364 16.061 6.057 32.35 14.796 46.262 14.438 23.446 42.557 32.653 68.064 36.973 44.239 6.548 89.243 4.617 133.801 5.366 45.327-.391 90.666-.346 135.924-2.787 24.48-1.927 49.07-4.366 73.191-9.084 16.78-3.445 36.724-8.771 50.477-16.675 24.58-10.937 39.574-37.333 36.865-63.914-.226-13.194-6.363-26.412-15.97-35.164-9.142-8.192-22.602-14.63-33.098-18.376-3.933-54.497-.242-109.462-4-164-3.894.202-9.589-1.06-11.309 3.751-1.564 4.142-2.994 8.304-4.589 12.422-9.772 28.734-19.994 57.314-30.254 85.867-4.58 12.698-9.855 25.126-15.167 37.526-5.149 10.644-11.14 21.878-21.712 28.021-10.93 6.01-23.963 5.275-35.973 6.2-49.43.608-98.87-.11-148.29.213-16.136-.7-39.591 2.45-45.617-14.418-1.961-7.878-.58-16.194-1.089-24.198V1024h147v104c22.71.332 45.641.782 67.928-4.49 15.382-2.99 33.1-8.15 46.766-12.578 10.24-4.061 23.17-7.816 31.403-13.895 3.687-2.989 2.843-9.002 2.903-13.177V760c14.426-4.342 34.25-10.913 41-24-45.286-32.392-89.21-68.448-134.5-101-10.875 13.027-23.001 24.902-34.081 37.739-10.051 10.81-19.846 21.836-30.015 32.526-2.051 2.773-7.88 1.115-10.592 1.735H1422c1.72 9.967 6.85 19.127 9 29m-4 1497.219c20.18 28.608 39.209 58.645 51.162 91.85 10.353 26.29 16.81 54.027 19.44 82.125 2.099 8.286 14.423 12.812 22.145 17.688 16.25 8.277 35.362 10.535 52.933 5.027 25.37-7.13 45.317-29.925 49.604-55.844 5.26-25.957-4.51-53.482-21.643-73.069-19.234-22.89-46.353-37.937-73.416-49.494-14.498-5.692-29.485-9.996-44.556-13.839-7.902-1.995-15.925-3.51-23.877-5.204-7.478-1.065-16.374-3.735-23.364-3.009-3.068.503-5.419 2.912-8.428 3.55zm26-329.844c35.096 3.17 73.034 6.98 103.174 27.731 14.441 9.359 26.01 24.287 28.527 41.725 2.17 17.865-5.364 35.8-18.701 47.669 51.537-33.738 98.54-75.646 141.65-119.738 29.886-31.559 56.164-66.232 80.35-102.262v-1.5h-101.4c-16.975.362-34.019-.442-50.97.239-3.77.446-7.068 3.774-9.827 5.63-8.275 6.644-17.722 11.755-25.803 18.631 33.904-.205 86.137 2.973 100.246 46.51 8.793 29.034-12.074 61.61-41.499 67.305-11.513 2.838-23.754 1.989-35.008-1.391-4.425-1.054-10.173-2.45-12.013-8.133-6.475-16.086-15.729-30.873-26.701-44.266-8.444-10.476-17.545-20.65-28.268-28.845-3.38-3.325-9.35 2.74-12.389 3.76-29.314 17.628-59.707 34.04-91.368 46.935" style="fill:#000;fill-rule:evenodd;stroke:none"/></svg>