<svg xmlns="http://www.w3.org/2000/svg" width="3000" height="3000"><path d="M448 2669h2104c-108.019-653.996-218.137-1307.761-326.618-1961.691-6.813-40.83-13.621-81.671-20.41-122.502-.9-5.185-1.732-10.375-2.627-15.558-.693-5.948-7.25-6.546-11.566-8.162a2264805 2264805 0 0 1-451.953-150.644c-56.522-18.824-113.032-37.715-169.56-56.514-12.477-4.17-24.972-8.31-37.44-12.486-6.015-1.98-11.998-4.026-18-6-5.943-1.873-12.256-5.247-18.565-3.023-92.812 30.91-185.585 61.892-278.396 92.78-138.737 46.826-278.12 92.047-416.698 139.266-3.665 1.962-2.298 9.57-3.876 12.727-22.4 134.514-44.811 269.006-67.243 403.502C635.746 1543.503 540.855 2106.166 448 2669m1044-1015c-.275 3.723-4.36 6.485-6.6 9.102-4.676 5.24-9.109 10.682-14.375 15.373-4.297 4.332-7.778 9.46-12.534 13.346-10.206 6.64-22.82-.215-31.72-3.048-29.701-11.652-59.754-22.757-89.271-34.773-1.426 82.197.26 164.734-.5 247 20.508.384 41.271-.548 60.84-7.177 8.526-3.152 16.69-7.422 24.023-12.802 9.526-6.039 7.08-16.302 7.137-26.021h36c-.217 8.593.27 17.212-.16 25.783-.742 6.068-9.145 10.297-12.624 16.206-8.614 9.235-19.03 19.734-26.865 28.25-2.04 2.1-3.549 4.853-6.116 6.384-48.584 1.075-99.999-.195-149.184.377h-37.712c-8.688.421-16.538-3.745-24.506-6.56-12.41-4.526-24.763-9.196-37.148-13.767-6.154-2.494-12.445-4.575-18.602-7.034-4.543-2.446-14.193-3.692-15.083-8.639 10.606-1.082 20.065-7.064 28.97-12.355 4.262-2.731 9.772-6.623 10.688-11.527.686-5.669.112-11.429.342-17.118h32c.353 11.313-.686 24.716 1 35 26.726-.033 53.55-4.807 78.206-15.485 6.03-2.466 13.818-5.142 13.723-11.876.202-21.781-.037-43.586.071-65.368V1730c9.626-2.452 22.331-6.692 28-14.5-28.34-22.432-58.295-42.907-86.5-65.5-9.881 11.116-22.425 23.276-31.609 33.351-3.608 3.948-8.729 10.01-13.362 10.507-10.692 1.103-20.619-3.534-30.251-7.555-27.835-10.542-55.388-21.996-83.278-32.303v247h13v374c24.975.234 50.697 1.471 74.696-7.065 10.492-3.587 22.35-9.583 30.66-15.453 4.335-3.136 9.783-6.105 9.594-13.24.126-6.421-.01-12.825.05-19.242h45v92h-200c.938 4.213 2.651 8.233 3.569 12.453.9 2.915 1.504 5.904 2.744 8.693 1.225 4.65 10.217 1.94 13.26 2.854H1258v166c36.281.657 74.775 1.227 107.34-17.681 7.024-3.672 17.79-7.873 16.66-18.199V2336h194.4c7.65.292 15.383.27 22.678-2.365 5.26-1.82 13.28-8.205 8.655-13.199-15.817-14.303-32.907-27.185-49.552-40.505-8.504-6.501-16.928-13.15-25.393-19.69-4.242-3.274-8.463-6.584-12.683-9.882-3.5-3.216-9.674-5.891-10.105-10.359 11.524-3.735 25.199-9.606 33.976-16.553 5.45-4.343 3.883-13.21 4.024-19.273V1973c19.63-3.072 42.558-8.903 61-9 5.107 51.892 10.766 103.867 20.127 155.193 6.785 38.305 16.08 76.123 26.949 113.45 2.158 7.179 4.198 14.409 6.54 21.53 1.466 6.179 5.289 13.153 5.11 19.115-1.016 6.233-6.254 10.846-9.069 16.253-50.723 76.374-114.308 144.253-188.657 197.959 2.292 2.988 4.7 5.823 7.344 8.5 40.872-18.37 81.38-38.63 118.683-63.68 18.507-12.147 36.037-25.666 53.507-39.223 8.89-7.023 17.217-14.71 25.85-22.022 4.235-3.74 8.667-7.259 12.486-11.445 4.034-3.516 8.31-9.064 13.13-9.63 10.296 24.653 24.874 47.465 38.774 70.197 10.666 16.705 21.625 33.144 34.937 47.853 20.76 21.303 45.53 38.798 73.405 49.393 14.91 5.366 31.18 7.75 46.995 6.024 14.528-2.153 31.998-8.486 41.416-18.559 12.668-14.379 7.97-34.29 5.447-49.612-4.555-25.251-16.175-48.489-23.835-72.67-.131-13.066 3.4-25.94 4.554-38.912 1.91-13.64 3.932-27.224 5.834-40.854 3.48-30.359 9.657-60.449 12.473-90.86-6.377-1.953-8.723 3.286-10.691 8.757-9.487 21.043-20.432 41.333-30.729 61.953-9.944 16.439-17.582 34.298-28.567 50.12-6.608 9.22-16.244 4.767-21.602-2.333-19.963-24.526-37.441-50.964-51.04-79.566-1.293-2.873-3.089-5.802-2.902-9.08 1.072-5.893 6.43-9.876 9.195-14.907 24.447-34.717 46.172-71.224 66.859-108.268 10.25-19.39 20.65-38.739 29.161-58.982a135 135 0 0 0 6.804-15.382c1.855-2.823 3.22-9.445 6.49-9.857 6.399-.829 13.12.16 19.192-2.765 4.734-1.988 10.243-6.763 13.83-11.69-1.799-2.282-5.869-2.86-8.853-4.33-45.55-15.626-90.507-33.476-136.147-48.67-11.315 48.594-28.505 95.773-47 142h-3c-9.082-53.889-18.27-108.234-20-163 36.202-4.768 72.413-10.019 108.597-14.929 18.115-2.376 36.154-5.38 54.294-7.561 17.327-2.884 42.015-1.292 47.109-20.01-34.814-21.16-69.542-43.238-106-61.5v-3c18.58 3.259 38.379.456 53.073-12.32 14.885-11.37 23.231-31.056 22.038-49.57-.297-17.432-10.479-32.546-21.726-44.778-11.793-11.445-25.676-20.647-40.66-27.382-27.759-13.52-59.414-17.04-89.225-21.95-1.647 1.745-3.602 3.077-5.5 4.5 2.138 4.791 7.627 9.733 10.976 14.975 13.682 18.039 22.397 39.22 29.723 60.444 6.951 17.937 8.622 37.105 9.85 56.006 1.836 6.643 10.934 7.764 13.966 13.344-.615 5.735-5.416 10.155-7.732 15.263-10.008 16.976-20.315 33.76-30.534 50.599-4.9 7.233-8.302 19.185-19.907 19.748-10.116 1.359-20.208 2.937-30.342 4.121-4.426-81.215-4.023-162.717-2-244 13.196-1.028 31.653-8.326 34-25-45.455-2.856-90.532-10.467-136-13v-3c102.76-27.632 194.48-92.571 257.147-178.155 31.353-43.443 55.348-92.392 70.927-143.602 16.871-55.12 21.786-113.576 17.909-170.925-7.961-123.171-68.98-240.379-161.621-321.038-93.768-82.98-222.165-125.729-347.039-114.563-122.766 8.266-240.109 69.083-320.53 161.575-40.24 45.201-69.96 98.762-90.548 155.45-21.683 61.35-28.695 127.207-24.26 191.893 8.446 115.083 61.104 226.992 145.714 305.66C1258.155 1605.261 1374.507 1652.38 1492 1654m-431-473.82c.92 59.44 10.484 119.37 35.332 173.541 33.185 77.139 88.839 144.19 158.34 191.269 72.243 48.953 159.692 76.114 247.175 74.01 115.321 2.092 228.948-47.796 309.628-128.975 39.217-39.578 70.676-86.482 92.795-137.616 24.267-54.802 34.575-114.892 34.695-174.56-.56-59.73-11.698-119.53-36.983-173.922-34.164-76.503-90.013-143.57-160.078-189.673-71.996-48.018-158.82-73.996-245.473-72.254-114.53-1.26-227.023 48.157-307.533 128.602-38.682 39.785-70.955 85.746-92.64 136.99-11.433 26.894-20.638 54.69-26.45 83.329-5.47 29.338-9.24 59.09-8.807 89.259m57 .017c-1.857 100.927 40.86 199.783 111.398 270.695 71.39 70.783 170.329 113.428 271.422 112.108 51.503-.049 102.93-10.9 150.236-31.095 66.595-29.07 124.874-76.906 165.6-137.144 42.542-62.995 66.34-138.726 65.344-214.924 1.245-99.656-40.889-198.112-110.975-268.312-70.827-71.502-171.014-114.958-272.26-112.525-100.525-1.814-199.936 41.707-270.135 112.87-70.177 70.228-111.612 168.547-110.63 268.327m35-16.197h279v-3c-60.097-33.305-119.295-69.143-179.14-103.082-14.741-8.794-29.645-17.258-44.547-25.758-5.585-2.542-11.733-7.716-17.322-8.606-7.797 8.457-10.852 23.141-15.722 32.27-13.382 34.454-21.192 71.244-22.269 108.176m37 175c6.027-.282 11.788-5.156 16.442-7.572 37.96-21.324 75.254-43.79 113.103-65.302 36.677-22.306 75.23-42.33 111.455-65.126v-2h-278c1.767 48.735 15.854 96.409 37 140m-13 492h33c-1.813-18.506-.52-37.138-1-55.693V1719h-32zm31-837c21.084 9.983 40.527 23.801 61.248 34.594 30.16 17.75 60.737 34.755 90.892 52.488 15.096 8.916 30.459 17.435 45.603 26.266a1165 1165 0 0 0 22.72 13.037c7.11 3.33 15.989 10.701 22.537 11.615-.545-4.387-3.832-7.887-5.75-11.711-30.753-53.563-61.704-107.006-92.661-160.444-7.723-13.36-15.459-26.715-23.163-40.08-6.05-9.796-11.116-20.327-17.635-29.796-3.86-1.77-8.688 4.72-11.81 5.71-26.198 17.827-49.098 40.044-69.232 64.404-4.212 5.424-8.46 10.821-12.544 16.327-3.13 5.613-9.738 12.3-10.205 17.59m105 478c21.29-41.128 47.102-80.211 69.148-121.027 11.879-20.005 23.416-40.173 34.96-60.363 5.82-10.026 11.578-20.104 17.478-30.081 2.89-5.112 5.848-10.186 8.762-15.272 2.262-4.96 6.923-10.176 7.652-15.257-5.404.737-11.102 6.19-16.915 8.648-37.412 21.718-74.933 43.22-112.333 64.946-37.875 20.784-74.482 44.526-112.752 64.406-.042 5.448 5.378 11.002 8.585 16.291 12.964 17.942 27.678 34.423 43.785 49.58 7.802 7.767 16.556 14.528 25.179 21.341 4.15 3.35 8.412 6.586 12.764 9.648 4.204 2.604 8.968 6.88 13.687 7.14m-100 590h45v-105h-45zm0 134h45v-109h-45zm270-1086V834c-38.888.593-77.454 9.893-113.409 24.23-8.488 3.94-17.605 6.863-25.46 12.065-3.328 1.438-.755 6.47.473 8.74 11.755 19.675 22.775 39.78 34.42 59.517 17.03 29.244 34.07 58.457 50.9 87.808 8.505 14.326 16.597 28.887 25.103 43.203 4.143 7.452 8.534 14.757 12.801 22.12 2.171 3.65 4.194 7.39 6.329 11.056 2 3.338 3.547 7.703 8.843 7.261m-141 381c43.915 21.18 91.914 35.542 141 37v-279h-2c-24.793 39.08-46.391 80.869-70.586 120.471-11.792 20.312-23.62 40.624-35.206 61.049-5.97 10.059-11.496 20.366-17.587 30.347-2.818 5.124-5.933 10.062-8.766 15.17-2.407 4.558-6.765 10.581-6.855 14.963m86 572v-106h-46v94.823c.08 4.208-.908 10.786 4.072 10.934 13.953.69 27.972-.124 41.928.243m-46 133h46v-110h-23.4c-6.986.686-17.065-1.019-22.6 1zm0 116h39.6c9.058-.401 21.634 2.133 26.532-5.196 7.904-10.153 15.93-20.204 23.936-30.261 3.917-5.06 7.907-10.054 11.915-15.026 3.165-4.706 9.37-10.654 10.017-15.517-10.557 1.431-20.775 5.169-31.47 6.033-11.461 1.374-23.016.883-34.53.967v-33h-46zm47-481h36v-84c-.433-9.025.766-19.833-1-28h-35zm29.02-650.593c-.122 11.777 4.486 23.298 13.122 31.14 8.147 8.235 19.664 12.14 31.12 11 22.966-.048 42.024-21.68 39.494-44.46.302-23.292-22.07-41.732-44.674-39.066-21.808-.163-39.669 20.031-39.063 41.386M1607 1939c-7.049-97.805-8.396-195.957-9-294-14.398.901-28.488 4.642-42.871 5.739-14.97 1.823-30.03 3.174-45.129 3.261v2c25.84 20.788 54.185 39.187 80 60-6.934 8.72-20.118 14.122-30 15v107.4c-.482 8.666.631 18.97-.446 26.866-1.784 5.812-9.777 6.953-14.38 9.465-16.455 5.37-36.165 12.331-52.174 13.269-.13 4.453 5.169 6.921 8.104 9.341 10.506 7.819 20.921 15.742 31.422 23.553 11.022 6.827 21.81 18.462 32.58 23.623 14.01-1.138 27.95-3.754 41.894-5.517m-89-829.5c3.112.835 5.131-2.91 6.44-5.132 22.791-38.926 45.35-77.934 67.915-116.978 11.485-19.175 22.373-38.682 33.672-57.953 5.63-9.8 11.254-19.599 16.98-29.33 3.171-4.882 5.952-10.003 8.708-15.114 2.763-4.6 6.34-9.357 6.285-14.993-44.262-19.824-91.74-35.93-141-36v259.831c.618 5.141-.945 11.608 1 15.669m-1 418.5c49.08-1.559 97.094-15.755 141-37-.43-6.1-5.268-10.85-7.594-16.249-43.674-75.148-86.722-150.793-130.656-225.751H1517zm170-56c5.459-.353 11.031-5.983 16.424-9.066 17.963-12.727 34.303-27.387 49.446-43.304 7.43-7.543 15.38-17.138 21.443-24.708 3.102-4.493 6.824-8.516 9.791-13.096 2.409-4.01 6.978-7.92 6.896-13.826-20.776-10.185-40.298-23.293-60.643-34.367-30.016-17.087-59.69-34.743-89.666-51.88-15.536-9.026-30.993-18.189-46.622-27.032a506 506 0 0 0-21.976-12.742c-3.793-2.244-7.543-4.548-11.4-6.659-3.918-1.737-7.262-5.14-11.693-5.32.652 5.291 6 10.805 8.387 16.471 21.768 37.437 43.262 75.057 65.057 112.473 21.127 37.808 44.348 74.831 64.556 113.056m-137-341c5.844-.663 11.253-5.66 15.938-7.836 37.928-21.488 75.51-43.588 113.422-65.087 37.8-20.762 74.44-44.232 112.64-64.077-.568-5.753-6.963-11.504-10.066-17.423-14.314-19.091-29.8-37.328-47.502-53.391-8.933-7.801-17.918-15.516-27.439-22.592-4.717-3.546-9.708-6.695-14.534-10.083-5.327-2.94-8.38 6.429-10.63 9.763-20.828 35.914-41.69 71.844-62.445 107.8-11.89 20.393-23.688 40.839-35.502 61.267-5.859 10.36-11.886 20.58-17.965 30.799-2.962 5.169-5.86 10.34-8.944 15.423-2.53 4.82-6.801 10.274-6.973 15.437m18 68.5c2.659 4.33 10.291 5.887 14.738 9.656 38.006 21.776 75.744 44.015 113.652 65.952 18.886 10.863 37.663 21.929 56.547 32.78 9.513 5.495 18.9 11.203 28.526 16.497 4.577 2.973 9.427 5.474 14.09 8.285 4.581 2.425 9.004 6.148 14.447 6.33 20.955-43.565 35.769-91.207 37-140-93.015-.353-185.989-1.02-279-1zm1-38v1.5c46.14 1.681 92.349.652 138.505 1H1847c-.686-39.296-10.14-77.824-24.56-114.17-3.412-8.315-7.563-18.229-12.066-25.156-2.241-3.126-7.737.845-9.93 1.76-19.378 11.68-39.141 22.647-58.635 34.104-57.674 32.838-115.016 67.063-172.809 99.462v1.729z" style="fill:#ffe;fill-rule:evenodd;stroke:none"/><path d="M1491 1655.5c-10.255 10.31-21.336 23.281-30.735 32.735-7.875 9.394-23.16 3.245-32.006-.288-30.409-12.307-61.688-22.948-91.759-35.947-1.426 83.197.26 166.734-.5 250 20.776.287 41.843-.25 61.738-6.814 8.827-3.022 17.173-7.444 24.731-12.891 9.922-5.372 7.621-18.524 7.531-26.295h34c-.43 8.088.562 17.71-.397 25.089-2.033 5.69-9.848 10.151-12.848 15.43-8.54 9.145-18.836 19.597-26.651 27.997-1.794 2.002-3.278 4.322-5.521 5.878-11.398 1.89-23.74-.476-35.87.606h-129.6c-9.937-.751-22.21 1.277-31.05-1.578-27.763-11.08-56.703-20.097-84.063-31.922 10.344-2.382 20.19-6.858 28.97-12.855 4.262-2.731 9.772-6.623 10.688-11.527.686-5.669.112-11.429.342-17.118h30c.353 11.313-.686 24.716 1 35 27.398.285 54.95-4.512 80.206-15.485 5.306-2.287 13.859-4.721 13.754-12.468.113-22.189-.02-44.397.04-66.575V1731c10.66-2.303 20.99-6.855 29-14.5-2.293-4.836-9.509-7.502-13.03-11.237-15.983-12.002-32.016-23.998-48-36-8.033-5.943-15.95-12.065-24.014-17.954-4.433-3.882-8.386 1.553-11.432 4.868-3.183 3.989-6.69 7.69-10.394 11.193-4.658 4.835-9.727 9.323-13.907 14.59-3.677 3.692-8.578 10.17-13.105 10.809-10.657 1.112-20.498-4.604-30.25-8.004-27.622-11.29-55.871-21.25-83.368-32.765-1.426 83.197.26 166.734-.5 250h13v374c25.295.193 51.348 1.663 75.73-6.755 10.674-3.576 22.76-9.51 31.223-15.466 4.394-3.251 10.164-6.188 9.997-13.537.126-6.421-.01-12.825.05-19.242h43v90h-200c.84 7.345 4.313 15.56 5.853 22.12 1.237 4.863 7.141 3.688 10.723 3.88H1257v166c37.367.803 76.882 1.391 110.375-18.186 7.64-3.432 17.244-8.45 15.625-18.89V2337h179.4c13.58-1.108 42.539 5.602 49.6-14.543-32.058-28.878-67.422-53.936-101-80.957 7.793-3.784 16.51-6.093 23.915-10.766 6.071-3.563 14.837-6.557 14.083-16.58.005-60.085 0-120.17.002-180.242V1974c18.994-3.072 41.157-8.549 59-9 5.107 51.892 10.766 103.867 20.127 155.193 6.785 38.305 16.08 76.123 26.949 113.45 2.158 7.179 4.198 14.409 6.54 21.53 1.277 6.175 5.715 13.348 4.655 19.306-51.17 83.114-120.296 154.787-198.271 213.021 3.876 3.408 6.572 11.108 13.513 8.162 5.596-2.496 11.133-5.131 16.752-7.566 74.231-33.996 142.66-80.163 201.235-137.096 16.123 32.727 34.245 64.724 55.484 94.484 15.545 23.134 37.025 41.778 60.055 57.197 16.785 10.56 38.854 19.894 57.12 21.61 16.36 1.841 33.313.65 48.266-6.858 10.683-4.195 20.922-12.3 23.703-23.977 4.516-18.34-.648-37.413-5.185-55.151-5.135-17.425-11.721-34.395-18.407-51.256-2.757-6.65-.8-14.055.088-20.844 7.956-51.13 13.859-102.661 22.376-153.663-2.42-1.854-6.61-2.838-9-3.542-9.097 21.563-20.506 42.262-30.675 63.334-8.833 17.861-18.684 35.203-28.673 52.418-3.2 6.776-10.848 17.221-19.99 9.285-21.332-24.014-38.76-51.477-53.294-80.061-2.532-4.807-6.971-11.375-2.42-16.849 26.198-36.265 49.606-74.58 71.367-113.636 11.378-20.267 21.834-41.098 31.164-62.385 2.77-5.24 5.094-10.686 7.194-16.216 1.857-3.691 3.37-9.351 7.338-9.649 6.777-.395 13.915.1 20.106-3.413 5.084-2.865 11.413-9.175 12.883-13.828-48.84-17.34-97.935-35.015-146.5-53-2.987 4.335-3.33 11.93-5.673 17.698-12.02 42.494-25.48 84.874-43.327 125.302-5.94-26.309-9.63-53.223-13.114-79.96-2.543-26.99-6.795-53.9-7.386-81.04 36.736-4.717 73.391-10.285 110.118-15.1 18.49-2.793 37.02-5.23 55.535-7.773 12.709-2.495 42.646-.523 44.347-22.127-35.002-20.65-69.818-42.687-106-61.5 13.168 1.119 27.162 1.627 39.49-4.359 18.836-7.864 31.608-25.596 35.108-45.36 3.04-19.23-3.26-39.563-16.368-53.995-25.606-29.489-64.5-42.69-101.6-49.575a398 398 0 0 0-22.074-3.524c-6.913-1.008-13.77-3.002-19.556 3.813 6.74 10.923 16.917 19.977 22.224 31.977 9.533 17.02 18.285 38.5 22.841 55.816 2.883 10.886 5.173 21.992 5.777 33.258.56 5.246-1.027 11.784 3.3 15.376 3.58 3.36 8.046 5.54 11.858 8.573-10.567 19.177-22.922 37.524-33.908 56.49-2.792 4.712-5.554 9.425-8.427 14.08-2.248 3.349-4.314 7.684-6.65 10.551-1.884 2.501-6.187 2.69-8.664 3.114-9.443 1.781-20.728 2.526-29.351 4.265-4.37-80.534-3.99-161.403-2-242 13.542-.912 33.507-9.119 34-27-45.379-3.61-90.694-9.556-136-13.5 70.925-20.103 137.544-55.792 191.8-105.996 82.174-75.431 139.412-179.96 151.846-291.677 7.514-59.845 3.479-121.142-10.85-179.637-14.16-53.6-37.818-104.73-69.265-150.33-34.517-50.018-78.924-93.209-129.495-126.773-79.012-53.125-174.116-79.622-269.077-77.863-48.565 1.416-97.176 8.065-143.244 24.049-42.367 14.311-82.115 35.392-119.229 60.119-50.428 34.659-93.02 79.91-126.955 130.571-51.62 78.713-79.938 172.985-76.531 267.393-.25 93.836 30.859 186.73 84.198 263.436 41.11 60.052 97.127 109.268 160.407 144.89 33.314 17.497 68.093 32.453 104.527 42.216 37.587 11.2 77.052 14.407 115.868 16.602m-428.998-475.105c1.047 59.123 10.687 118.83 35.535 172.756 33.312 77.112 88.946 144.128 158.551 191.147 72.192 48.677 159.423 75.855 246.747 73.702 115.034 1.657 228.124-48.645 308.398-129.733 39.103-39.731 70.508-86.632 92.509-137.859 23.862-54.613 34.184-114.356 34.18-173.717-.834-59.325-12.119-118.74-37.386-172.696-34.192-76.342-90.21-143.128-160.16-189.082-71.877-47.797-158.502-73.65-244.933-71.913-114.075-.652-225.795 48.747-305.917 128.975-38.543 39.687-70.62 85.558-92.268 136.617-11.34 26.714-20.52 54.325-26.327 82.763-5.5 29.291-9.28 59.01-8.929 89.04m54.998-.099c-.855 51.39 9.823 102.477 29.478 149.593 14.782 33.885 33.686 66.035 57.275 94.54 71.234 88.458 183.975 140.707 297.256 139.571 51.786.087 103.478-10.832 151.047-31.095 66.763-29.128 125.119-77.146 165.9-137.56 42.547-63.278 66.259-139.268 65.044-215.707 1.42-100.099-40.805-199.096-111.37-269.508-71.007-71.943-171.512-114.294-272.838-112.411-100.686-1.275-200.323 41.193-270.767 112.756-70.77 70.55-112.236 169.49-111.025 269.821m37-17.296h275.5l1.5-.5c-39.964-23.133-80.108-46.135-120.01-69.4-39.718-23.189-79.835-45.892-119.49-69.1-23.91 42.127-34.486 91.157-37.5 139m37 175c10.75-4.207 20.119-11.762 30.52-16.792 69.285-40.526 139.393-79.902 208.48-120.708-91.825-1.426-184.088.26-276-.5 2.221 48.045 16.043 95.022 37 138m-13 492h31c-2.344-18.183.011-36.71-1-54.961V1720h-30zm31-838.375c.008.5.115.95.375 1.375 40.696 21.889 80.109 46.596 120.556 69.029 20.13 11.637 40.22 23.334 60.401 34.878 10.155 5.697 20.138 11.73 30.277 17.442 10.058 4.545 20.682 13.616 29.391 16.151-23.884-39.468-45.965-80.1-69.574-119.736-23.31-40.223-46.431-80.687-69.926-120.764-40.513 26.247-74.433 61.991-101.5 101.625M1310.5 1471h1.5c4.36-10.947 11.973-20.597 17.332-31.07 19.96-35.124 40.24-70.073 60.643-104.929 19.035-34.84 40.999-69.186 59.525-104.001-39.176 24.014-79.988 45.587-119.341 69.35-40.533 21.892-79.325 47.512-120.159 68.65 3.733 10.853 14.744 20.756 20.244 29.526 11.886 13.919 24.237 27.435 37.763 39.816 13.423 11.854 27.912 22.343 42.493 32.658m-96.5 590h43v-103h-43zm0 134h43v-107h-43zm129-1322.707c21.035 40.201 45.8 78.802 67.878 118.499 23.724 38.868 45.061 79.698 69.122 118.208h2V835c-48.331 1.232-96.257 14.83-139 37zm0 616.457c8.573 6.727 22.423 10.36 31.367 14.802 34.38 13.484 70.631 21.903 107.633 23.448-.76-92.246.926-184.876-.5-277-23.544 39.327-45.893 79.57-69.225 119.068-22.954 39.814-46.212 80.114-69.275 119.682m84 573.25v-104h-44v92.264c.414 3.745-1.255 11.118 3.535 11.38 13.433 1.002 27.01-.172 40.465.356m-44 133h44v-108h-22.2c-6.75.592-16.447-.925-21.8 1zm0 116h39c8.999-.465 20.17 2.348 25.488-5.65 15.28-19.196 30.476-38.48 45.512-57.85-10.447 1.227-21.093 5.27-31.818 5.796-11.368 1.089-22.793.554-34.182.704v-33h-44zm47-481h34v-83.4c-.402-8.572.736-18.865-1-26.6h-33zm29.059-649.7c-.328 23.252 20.182 43.002 43.131 41.098 22.163-.214 40.832-21.575 38.467-43.532-.172-22.428-22.21-40.288-43.974-37.799-20.88.636-37.55 19.744-37.624 40.233M1494 1889.75c15.936 13.592 34.329 25.229 50.708 38.516 8.717 5.96 17.832 16.65 27.414 14.473 11.3-1.574 22.625-2.903 33.878-4.739-7.156-97.139-8.365-194.62-9-292-14.214 1.595-28.221 4.78-42.505 5.935-14.336 2.502-29.16 2.029-43.495 3.565 27.031 19.9 54.188 39.825 81 60-6.278 9.868-20.946 15.353-31 16.5v107.4c-.482 8.666.631 18.97-.446 26.866-1.784 5.812-9.777 6.953-14.38 9.465-16.453 5.368-36.166 12.333-52.174 13.269zm25.5-780.75c13.136-18.736 23.094-39.658 35.07-59.133 17.47-29.727 34.38-59.793 52.055-89.404 8.088-15.074 17.321-29.478 25.523-44.49 4.37-7.444 8.68-14.889 13.1-22.303 2.376-3.648 4.126-7.642 6.478-11.303 1.911-3.555 4.978-7.537 5.274-11.367-43.666-19.712-90.42-35.362-139-36v258.611c.598 5.07-1.082 11.65 1.5 15.389m-1.5 418c48.389-2.12 95.695-15.886 139-37-21.822-40.609-46.348-80.063-68.907-120.332-11.45-20.032-23.087-39.958-34.667-59.904-5.704-10.261-11.725-20.34-17.584-30.507-2.829-5.018-5.771-9.97-8.67-14.94-3.378-4.473-5.263-11.499-9.172-14.317zm32-295.75c23.34 39.639 46.473 79.653 69.262 119.651 22.785 40.006 46.943 79.642 68.738 120.099h1.5c19.666-13.717 39.081-28.071 55.602-45.602 9.127-8.263 17.084-17.575 24.822-27.091 3.598-4.754 7.218-9.5 10.91-14.182 2.653-4.8 8.426-10.534 9.166-15.125-20.595-10.099-39.965-23.102-60.14-34.082-60.107-34.226-119.785-69.892-179.86-103.918zm1-102.5c.155.526.338.91 1 .75 39.822-22.537 79.447-45.872 119.328-68.404 40.138-22.097 79.092-46.967 119.672-68.096v-1.5c-27.305-39.56-60.876-75.287-101.5-101.5-23.244 39.693-46.403 79.686-69.393 119.568-22.825 39.694-46.317 79.65-69.107 119.182m18 70.625c39.477 23.669 80.074 46.265 119.743 69.783 20.095 11.391 39.86 23.288 59.946 34.684 10.029 5.897 19.978 11.933 30.176 17.536 10.044 4.71 20.525 13.228 30.135 16.622 20.86-42.938 35.262-89.89 37-138-92.25.224-184.855-1.71-277-.625m1-38c22.228 2.856 45.627.935 68.112 1.625H1846c-2.634-47.989-14.013-96.763-37.5-139-40.606 21.726-79.666 46.703-120.068 68.893-39.455 22.741-78.99 45.882-118.432 68.482" style="fill:#666;fill-rule:evenodd;stroke:none"/><path d="M338 2761.5c387.06 1.426 774.925-.26 1162.15.5 387.224-.76 774.71.926 1161.85-.5-77.265-456.459-152.125-914.01-228.874-1370.691-28.417-170.851-56.988-341.657-85.4-512.497-12.491-74.824-24.942-149.684-37.431-224.508-5.828-35.176-11.741-70.32-17.569-105.492-3.54-17.097-4.968-34.714-9.072-51.664-1.3-3.941-8.915-3.966-11.797-5.85-133.175-44.44-266.372-88.79-399.558-133.193-116.482-38.867-233.005-77.647-349.48-116.505-6.56-1.974-12.94-4.527-19.527-6.382-6.558-1.31-12.878 2.396-19.017 4.029-100.339 33.452-200.674 66.889-301.01 100.324-87.802 29.33-175.659 58.504-263.446 87.829-38.52 12.817-77.015 25.657-115.52 38.495-18.005 5.974-35.995 12.026-54 18-8.822 2.95-17.652 5.903-26.471 8.83-4.346 1.012-8.371 2.451-8.57 8.208-90.761 544.76-181.624 1089.514-272.367 1634.27-35.423 208.458-69 418.87-104.891 626.797m111-93.5h2102c1.499-10.311-3.289-24.036-4.354-36.168C2431.722 1942.565 2316.9 1253.266 2202 564c-117.363-37.65-233.969-78.28-351.174-116.557-87.853-29.254-175.674-58.585-263.527-87.838-16.482-5.533-33.005-10.98-49.48-16.505-7.855-2.623-15.68-5.222-23.522-7.84-6.528-2.588-14.264-5.896-22.35-2.086-115.695 38.63-231.436 77.09-347.128 115.726C1029.064 486.693 913.908 526.826 798 564c-58.434 350.72-116.946 701.47-175.36 1052.194a5309189 5309189 0 0 1-87.67 526.005c-14.632 87.669-29.212 175.324-43.844 262.992-7.29 43.832-14.628 87.679-21.918 131.51-3.65 22.002-7.31 44.017-11 66-1.77 11.016-3.712 21.976-5.482 32.987-1.254 10.11-5.104 23.862-3.726 32.312" style="fill:#70706f;fill-rule:evenodd;stroke:none"/><path d="M447 2666a5 5 0 0 0 2-.5c79.015-467.127 155.682-935.322 234.186-1402.681 29.212-175.012 58.322-350.007 87.52-525.015 6.375-38.331 12.755-76.675 19.168-114.995 1.517-9.346 3.103-18.669 4.658-27.995 2.431-9.079 2.292-21.046 5.774-28.913 72.384-25.592 146.203-48.431 218.867-73.458 136.855-45.575 273.684-91.274 410.528-136.838a26982 26982 0 0 1 45-15c7.586-2.36 15.035-5.2 22.646-7.454 6.33-1.515 14.495 4.106 21.827 5.407 116.014 38.645 232 77.359 348 116 101.53 33.826 203.04 67.68 304.56 101.513 5.652 1.95 11.321 3.736 16.969 5.67 5.04 1.68 12.29 2.59 12.804 9.387a6803998 6803998 0 0 1 174.679 1048.053c29.143 174.664 58.238 349.336 87.345 524.005 14.527 87.34 29.129 174.657 43.655 261.995 7.265 43.68 14.576 87.346 21.844 131.018 3.61 21.835 7.31 43.665 10.922 65.496 1.814 11.003 3.697 22.012 5.496 33.006.931 5.485 1.843 10.985 2.745 16.473 1.833 4.456.255 13.044 4.807 14.826-115.438-701.138-233.93-1401.94-350-2103-117.532-37.732-234.34-78.365-351.703-116.74-87.84-29.249-175.644-58.574-263.47-87.817-16.523-5.49-33.033-11.048-49.561-16.514-7.803-2.663-15.66-5.17-23.447-7.829-6.666-2.554-14.662-5.957-22.973-2.211-115.85 38.637-231.71 77.22-347.549 115.851C1028.376 485.573 913.072 525.78 797 563c-116.066 701.042-234.568 1401.905-350 2103" style="fill:gray;fill-rule:evenodd;stroke:none"/><path d="M1481.5 1113c.479-1.29.527-2.648.5-4h-2c-.029 1.458 1.113 2.786 1.5 4m37-1c1.125-.908 1.668-2.52 2.5-3.5-.932-.083-1.984.142-3-.5.02 1.308-.161 2.934.5 4" style="fill:#e1e1d5;fill-rule:evenodd;stroke:none"/></svg>