<svg xmlns="http://www.w3.org/2000/svg" width="3000" height="3000"><path d="M327 2801c12.216 1.862 24.708.471 36.999 1h2273.92c11.329-.358 24.784.691 35.081-1-120.491-728.663-243.044-1457.087-363.952-2185.695-7.562-45.508-15.166-91.007-22.753-136.501-.926-5.676-1.91-11.338-2.846-17.012-.592-6.574-7.834-7.318-12.592-8.995-84.008-27.993-167.988-56.006-251.992-83.997-146.987-49.033-294.011-98.01-441-147-13.864-4.623-27.735-9.249-41.6-13.871-6.65-2.27-13.333-4.393-19.968-6.67-6.695-1.935-14.522-6.052-20.509-4.007-103.326 34.432-206.65 68.874-309.962 103.305-154.934 51.793-310.034 103.15-464.917 155.076-4.947 1.7-4.473 8.74-5.53 13.061-24.977 150.002-49.989 300.01-74.997 449.997C536.324 1546.17 430.626 2173.498 327 2801m1095-1135c-7.995 42.215-20.784 83.573-32.007 125.019-6.09 20.777-12.112 41.593-18.879 62.158-3.01 10.315-6.5 20.496-9.923 30.67-1.637 5.118-4.157 10.012-5.281 15.28-1.876 4.708 7.731 7.244 9.59 9.873 66.833-47.69 128.934-104.244 180.5-168 15.49.284 37.652-2.64 41-19-42.308-14.38-83.693-31.62-126-46v-5c25.52.796 51.12 1.916 76.596-.557 12.207-.686 24.329-2.022 36.445-3.557 11.395-.952 24.488-4.56 34.959-4.886.858 34.168.642 67.585 1.105 101.295.17 4.332.403 8.65.598 12.97.049 13.614.444 29.266.9 42.408-.61 6.68.326 13.823.397 20.03-1.091 6.144 2.076 15.524-1 19.797 3.376 4.27 1.196 11.65 2.068 16.48.998 38.385 3.845 76.687 5.932 115.02-22.044 2.605-43.964 6.38-66 9 2.575 8.882 7.425 17.129 10 26 19.67-2.567 39.33-5.523 59-8 8.34 115.617 28.126 231.086 64.89 341.21 2.522 6.48-3.871 12.93-6.999 17.964-57.051 86.899-129.436 163.507-212.891 225.326 2.75 7.303 7.93 10.256 14.305 6.813 27.418-12.412 54.437-25.672 80.584-40.572 29.227-16.21 56.746-35.176 83.723-54.81 13.541-10.079 26.496-20.899 39.413-31.745 6.385-5.865 13.166-11.254 19.476-17.191 3.001-2.943 5.868-6.052 9.127-8.708 3.069-2.007 5.692-6.202 10.372-6.287 12.006 27.069 27.684 52.686 43.377 77.772 11.726 18.38 23.608 36.988 38.725 52.83 23.484 24.176 51.803 44.1 83.443 56.007 16.793 5.202 34.714 8.875 52.384 6.54 15.547-2.683 34.308-9.337 44.532-20.123 6.995-7.056 9.612-17.413 9.537-27.116.527-33.764-13.245-65.753-24.728-96.733-1.179-4.081-3.263-7.826-4.524-11.854-1.486-7.48 1.307-15.118 1.789-22.561 3.22-22.525 6.415-45.049 9.645-67.56 5.186-33.69 9.573-67.548 14.82-101.202-2.912-.31-7.238-2.945-8.731.273-1.653 2.95-2.882 6.13-4.46 9.118-11.6 23.32-22.317 47.156-34.95 69.952-10.533 18.98-19.921 38.945-32.688 56.562-3.218 3.464-8.723 4.967-13.207 3.216-8.153-4.37-13.395-14.827-19.047-20.729-10.201-13.016-19.582-26.676-27.94-40.935-7.572-13.29-15.526-26.45-21.734-40.453-2.866-6.517 4.012-12.804 7.439-17.62 27.423-39.677 53.134-80.583 76.205-122.954 12.447-21.593 22.896-44.24 33.312-66.835 3.07-5.602 5.046-11.702 7.748-17.466 2.03-4.01 3.452-10.616 8.06-10.883 7.418-.446 15.284.423 22.11-3.418 6.256-2.634 10.44-7.846 13.883-13.328-26.12-11.015-53.969-19.215-80.434-29.662-27.432-8.793-53.913-20.865-81.566-28.838-6.377 27.093-15.048 53.691-23.557 80.173-4.303 13.542-9.068 26.9-14.18 40.145-2.539 6.623-4.95 13.303-7.727 19.826-3.451 5.904-4.451 14.669-8.536 18.856h-2c-9.003-60.285-20.783-120.781-22-182 41.11-6.496 82.558-11.04 123.687-17.457 20.213-2.63 40.35-5.742 60.579-8.264 13.216-3.241 47.459-.863 48.734-24.279-19.132-10.251-37.156-23.417-56.609-33.35-9.45-5.567-19.22-10.569-28.663-16.144-4.707-2.71-9.413-5.399-14.23-7.907-4.485-3.346-12.061-4.75-12.498-10.599 11.283.128 22.835-.13 33.583-4.032 30.246-9.62 50.39-43.15 44.448-74.401-3.439-19.53-15.474-36.037-29.958-48.83-14.501-12.123-31.268-21.388-48.683-28.578-14.338-5.408-29.235-9.062-44.075-12.792-14.923-3.83-31.001-3.894-45.815-7.367-2.005 2.045-4.4 3.576-6.5 5.5 17.98 23.11 34.302 48.26 42.941 76.707 5.933 14.556 9.307 29.963 11.853 45.405 1.423 7.723.871 17.05 2.033 24.131.633 3.85 4.044 6.06 7.112 8.153 2.783 1.855 5.98 4.435 9.061 5.104-.327 5.448-5.372 11.438-8.32 16.938-11.563 18.974-22.952 38.06-34.542 57.005-2.904 4.883-5.768 9.763-8.768 14.588-3.432 9.141-13.91 8.435-22.098 9.635-8.708 1.284-17.431 2.853-26.272 2.834-3.748-90.278-3.585-180.67-2-271 14.364-2.732 35.47-6.234 38-28-24.202-2.772-48.52-4.949-72.741-7.47-12.377-1.241-24.749-2.435-37.105-3.766-11.24-2.196-27.26-1.57-36.154-4.764.082-4.478 7.155-5.027 10.216-6.237 60.824-18.605 117.676-48.947 167.75-88 87.952-68.305 154.888-164.73 184.414-272.558 24.222-86.3 26.055-178.59 6.13-265.943-14.292-60.439-39.752-118.177-73.876-169.993-51.465-77.544-123.561-141.17-207-182.446-43.515-21.427-89.84-37.61-137.785-45.702-24.606-4.087-49.318-7.352-74.213-7.957-6.04-.529-11.446-1.985-17.132-.428-4.64.826-9.27 0-13.721-1.238-6.862 1.022-13.669 2.636-20.745 2-3.797.165-7.592.221-11.376.445-2.836.098-6.743 1.26-9.162-.943-5.256 3.874-14.961 2.347-22.234 4.333-59.526 7.912-117.491 26.367-170.633 54.362-44.076 23.832-86.647 52.754-122.388 87.88-31.507 30.094-58.92 64.392-82.276 101.356-88.62 138.111-104.56 318.358-44.89 470.79 28.115 72.531 72.504 138.278 128.896 191.754 56.616 53.522 124.312 95.522 198.758 119.281 28.322 9.216 57.608 16.86 87.267 20.244m-406 754h214v209c40.645.572 83.462-.126 119.786-20.936 8.364-4.804 19.702-9.636 19.19-19.58.069-32.891-.013-65.756.024-98.638V2420h190.2c10.61-.141 21.254.178 31.85-.11 9.002-.11 19.521-6.287 21.95-14.429-30.448-27.594-62.154-53.9-94.007-79.87a582 582 0 0 0-18.254-14.276c-2.762-2.189-6.224-4.48-8.537-6.754-7.22-7.026 7.187-9.319 11.454-11.284 12.757-4.615 25.457-9.835 37.249-16.572 6.37-3.04 9.936-7.46 9.095-14.125V1966c11.863-2.077 23.07-7.188 31-16.5-37.88-29.91-77.444-57.809-115.5-87.5-5.876 4.322-10.935 13.207-17.733 18.733-3.06 2.924-5.959 5.968-8.599 9.26-11.94 9.469-19.983 23.239-32.185 32.545-62.583 1.317-125.376-.239-187.992.462-7.572-.302-16.74.752-23.477-1.348-47.243-16.963-94.181-35.001-141.514-51.652v463c28.636.206 57.913.532 85.511-8.425 12.742-3.799 24.484-10.422 35.395-17.875 5.416-3.695 10.538-8.888 11.777-15.555.712-7.021-.285-14.202 1.317-21.145 13.55-.55 29.666.884 42-1v124h-221c1.3 9.202 5.895 17.729 7 27m-5-1276.287c-2.994 129.573 52.76 256.51 143.476 347.254 44.422 43.287 96.054 79.211 153.25 103.508 29.715 12.623 60.306 23.054 92.066 29.129 33.588 6.845 67.043 10.185 100.816 9.396 32.644.68 64.86-2.898 97.375-9.087 54.7-11.108 107.155-31.999 155.007-60.62 69.666-42.354 128.77-101.78 169.58-172.425 44.294-74.206 67.9-161.04 66.43-247.535 2.505-128.51-52.135-255.686-142.975-345.808-43.622-44.207-96.117-79.458-153.08-104.056-29.216-13.487-60.353-21.965-91.612-29.103-33.259-7.21-67.138-9.957-101.092-10.282-33.971.373-67.877 2.926-101.177 9.982-107.87 22.858-207.636 83.392-277.365 168.88-71.651 86.437-112.737 198.015-110.699 310.767m20 543.6c12.747 27.503 23.725 56.099 32.424 85.197 6.656 22.363 12.903 45.085 14.416 68.5.462 4.352.323 9.63 1.52 13.506 3.49 6.031 12.793 10.425 18.182 14.683 23.714 14.976 56.58 13.873 77.443-5.984 21.297-18.998 26.906-51.07 16.864-77.03-10.879-29.585-35.473-51.966-62.22-67.312-27.22-16.453-57.688-26.486-88.337-34.186-4.118-.883-6.957.995-10.292 2.313zm41-552.813c2.866 4.337 2.182 13.505.487 16.997 2.719 11.783 1.232 24.327 3.276 36.258 8.688 85.695 44.065 168.308 100.345 233.597 41.57 47.98 93.498 86.952 151.627 112.542 92.66 42.08 200.872 46.975 297.961 17.707 91.014-28.42 172.119-87.845 226.06-166.603 65.299-94.023 89.163-214.375 66.449-326.482-21.606-107.969-87.105-205.71-178.28-267.227-32.123-20.915-66.02-39.595-102.594-51.675-18.867-6.382-38.273-11.121-57.79-14.985-9.919-1.925-19.94-3.304-29.94-4.614-9.047-1.689-22.102-.88-29.101-4.015-2.751 2.639-8.09 1.281-11.036 1.317-7.75-.623-15.523-.31-23.242.292-6.61-.49-13.156.028-20.82.319-25.72 3.737-53.903 6.46-79.283 14.474-86.436 24.03-164.538 76.44-220.193 146.42-27.986 35.021-50.122 74.507-65.841 116.462a407.4 407.4 0 0 0-19.126 67.9c-2.04 11.852-4.215 23.673-5.105 35.685-.835 6.167-1.263 12.33-1.42 18.537-1.336 5.398.94 12.95-2.434 16.594zm41-9.5h311v-3c-45.113-24.987-89.502-52.174-134.609-77.35a67845 67845 0 0 1-67.583-39.19c-11.341-6.283-22.47-12.958-33.744-19.346-5.664-3.248-11.274-6.587-16.967-9.762-5.2-2.802-12.077-7.975-17.097-8.352-5 12.414-12.214 24.087-16.37 36.934-14.694 38.375-23.653 78.918-24.63 120.066m311 42v-3h-311c1.876 43.02 11.486 85.924 27.707 125.786 4.217 9.2 7.945 18.66 12.631 27.624.867 1.38 2.026 3.968 4.336 2.867 23.701-13.41 47.239-27.41 70.9-40.945 65.366-36.93 129.788-76.036 195.426-112.332m21-78c-.498-4.018-4.076-8.53-6.159-12.745-34.31-59.36-68.852-118.579-103.016-178.023-8.712-14.632-16.91-29.57-25.662-44.173-6.41-9.695-12.505-23.532-20.015-33.722-1.785-1.965-5.442.833-7.084 1.601-31.305 21.02-59.233 46.732-83.115 75.897-4.773 6.144-9.644 12.178-14.168 18.508-2.277 2.897-4.297 5.942-6.36 8.986-1.45 2.49-4.322 5.423-3.869 8.672 4.325 4.747 11.008 7.068 16.319 10.628 42.21 24.079 84.102 48.71 126.299 72.8 21.005 12.273 42.087 24.349 63.162 36.478 10.624 5.99 21.117 12.187 31.705 18.238 5.191 3.106 10.554 5.9 15.731 9.03 4.916 2.66 11.393 7.627 16.232 7.825m-154 380c24.113-45.864 52.571-89.796 77.51-135.285 13.039-22.26 25.727-44.753 38.736-67.024 6.637-11.312 13.105-22.714 19.677-34.051 3.303-5.533 6.654-11.065 9.715-16.734 2.59-5.418 7.773-11.191 8.362-16.906-16.69 6.485-31.305 18.506-47.435 26.365-54.427 31.642-109.023 62.981-163.51 94.496-13.561 8.23-27.608 15.578-41.204 23.727-5.006 3.395-10.55 5.95-15.592 9.23-4.602 3.462 2.918 10.018 4.443 13.235 21.941 30.904 47.817 59.182 78.018 82.223 5.042 3.893 10.009 7.934 15.215 11.613 4.884 2.928 11.165 8.552 16.065 9.111m-105 609.5v1.5h44v-130c-13.873 2.011-28.047.322-42 1-1.71 10.626-.623 21.487-1 32.182v73.15c-.19 7.103.523 16.592-1 22.168m0 163.5h44v-136h-42c-2.349 22.678.015 45.635-1 68.373-1.023 21.807 1.356 47.752-1 67.627m13-578.75c14.56 33.788 21.05 70.524 27.808 106.472 2.905 14.127 2.912 28.513 3.557 42.822 1.016 6.115-.072 12.218-.259 18.322-.109 5.457 5.827 9.123 9.502 12.218 15.72 13.799 36.322 22.452 57.518 19.502 30.559-3.984 55.041-30.727 58.508-60.888 3.084-31.533-14.336-61.054-36.388-81.892-8.207-7.071-16.233-14.467-25.268-20.493-13.14-9.026-27.615-15.718-41.832-22.713-7.589-3.43-15.382-6.268-23.088-9.37-4.044-1.515-8.115-2.99-12.27-4.168-3.74-1.009-7.489-3.071-11.432-2.153-2.204.464-4.175 1.606-6.356 2.091zM1479 1069h2V757c-28.249-.2-56.103 5.493-83.344 12.25-13.08 3.586-26 7.77-38.593 12.79-12.089 4.136-25.019 12.252-36.063 15.96.503 5.61 5.87 11.682 8.67 17.577 24.53 42.241 48.987 84.522 73.438 126.815 25.14 41.753 48.374 85.223 73.892 126.608m-155 421c21.83 9.38 43.572 19.613 66.606 26.013 18.024 5.323 36.49 9.071 55.065 11.857 7.048.978 14.146 1.677 21.245 1.944 5.586 1.116 13.643 1.547 13.928-5.462.445-46.086-.08-92.216.156-138.308V1220c-4.29.141-6.127 5.511-7.898 8.592-2.099 3.745-4.327 7.426-6.451 11.153-24.092 41.575-47.993 83.242-72.237 124.726-11.843 21.118-24.305 41.895-36.34 62.894a2325 2325 0 0 0-18.222 31.662c-3.06 5.088-6.076 10.18-8.96 15.365-2.476 5.192-6.911 9.735-6.892 15.608m45 589h47c2.398-14.377-.064-29.231 1-43.707v-66.446c-.118-5.473.255-11.046-.414-16.48-1.254-3.605-8.014-1.7-10.68-2.367H1369zm0 163h48v-135h-48zm0 151c15.221-.03 30.43.036 45.636-.02 5.702.609 9.268-5.006 11.678-8.456 10.33-13.778 20.991-27.28 31.325-41.04 5.062-6.99 10.37-13.773 15.676-20.562 4.319-6.876 12.066-13.793 13.685-21.297-4.03-3.459-11.942 1.37-16.217 1.316-17.586 4.363-35.823 4.098-53.783 4.059-1.082-11.722 1.401-26.22-.957-36.751-5.775-2.586-12.274-.329-18.523-1.249H1369zm176-1249.5c4.44-7.209-2.239-19.366-4.917-25.029-11.716-19.178-38.703-27.581-59.352-17.782-10.297 5.02-20.506 15.064-24.208 25.006-5.078 11.26-4.213 24.334-.149 35.696 8.407 22.917 36.506 34.932 59.158 26.59 16.96-4.946 29.614-21.093 30.738-38.592.275-1.852.018-4.214-1.27-5.889m-26-75.5h2c27.68-43.773 52.024-90.258 78.842-134.688 12.962-22.651 26.22-45.106 39.266-67.704 6.308-11.37 13.198-22.37 19.52-33.718 3.06-5.676 6.47-11.165 9.718-16.728 2.467-5.42 7.944-12.16 8.654-17.162-49.142-23.404-103.05-40.16-158-41zm157 422c-.075-5.837-5.366-12.212-8.411-18.155-24.054-42.083-48.67-83.874-72.675-125.985-24.682-42.146-48.706-84.758-73.414-126.86h-2.5v245.005c.448 20.458-.547 41.019.295 61.444-.225 3.975 5.879 4.62 8.525 4.53 51.891-1.288 101.488-19.159 148.18-39.979m-121-401h2.5c55.038-32.793 111.414-63.942 166.809-96.246 21.078-12.154 42.229-24.196 63.264-36.422 9.172-5.1 18.2-10.49 27.294-15.71 3.402-2.27 10.701-4.79 9.324-9.191-20.683-34.12-49.047-63.427-79.569-88.916-5.863-4.48-11.572-9.199-17.604-13.448-3.043-2.102-6.023-4.29-9.042-6.427-2.18-1.539-6.792-4.554-8.453-1.747-26.55 42.762-50.493 87.38-76.315 130.627-24.983 43.364-50.196 86.586-75.31 129.873-.838 1.713-2.156 3.973-2.552 5.502-.19.673-.293 1.478-.346 2.105m3 113c.52 8.369 8.014 16.216 10.9 23.01 30.93 53.174 61.271 106.64 92.274 159.767 15.126 26.804 31.111 53.15 46.258 79.929 2.498 4.375 6.219 2.88 9.588.609 23.225-15.473 44.379-33.773 63.85-53.685 11.682-11.757 21.871-24.915 31.925-38.04 3.902-5.802 8.779-11.487 11.705-17.771.355-3.085-4.96-4.56-6.69-5.971-43.339-24.852-86.345-50.271-129.646-75.193-21.615-12.4-43.126-24.965-64.684-37.447-10.847-6.282-21.728-12.525-32.554-18.824-5.4-3.198-10.81-6.417-16.27-9.503-4.92-2.435-9.895-7.06-16.656-6.881m19-79.5v1.5c12.953.777 25.934 1.218 38.896 1 5.543-.223 12.126.347 17.17-.373 9.405-3.736 20.025-1.645 30.02-1.644 74.582 2.755 149.248 1.951 223.914 2.017-.983-28.368-5.652-56.592-12.737-84.026a384 384 0 0 0-12.733-38.15c-4.168-11.945-11.433-25.037-15.53-35.824-12.078 3.983-22.243 13.257-33.865 18.433-39.386 22.653-78.562 45.647-118.006 68.196-39.1 22.151-77.87 45.781-117.129 67.371v1.75zm3 43v1.5c9.553 7.173 21.377 13.577 31.94 19.837 38.88 22.33 77.488 45.099 116.369 67.409 19.298 11.456 38.955 22.316 58.25 33.778 9.706 5.83 19.593 11.309 29.372 17.005 4.952 2.957 10.002 5.693 14.972 8.62 4.654 2.772 9.406 6.41 15.097 6.351 22.355-48.946 40.494-101.328 41-156h-146.4c-24.555-.03-49.092.099-73.635-.205l-54.702-.621c-5.06.733-13.046-1.607-15.763 1.826-4.274-2.071-11.105-.26-16.5-1z" style="fill:#ffe;fill-rule:evenodd;stroke:none"/><path d="M1421 1667c-8.664 39.716-19.388 79.012-30.591 118.074-11.62 38.997-22.509 78.576-37.409 116.426 3.45 3.344 8.215 6.788 12.476 8 5.094-1.547 8.91-5.68 13.37-8.44 30.85-22.884 60.924-47.194 88.527-73.927 14.085-12.963 30.228-28.708 41.881-41.856 11.197-12.563 27.166-28.381 37.746-43.277 14.294.287 35.767-1.472 42-19.5-4.465-3.49-11.357-4.597-15.974-6.703-19.306-7.21-38.62-14.398-58-21.392-9.554-3.875-19.393-6.917-28.943-10.765-9.22-2.733-20.362-7.667-27.083-11.14l1.5-.5c25.253.926 50.518 1.733 75.742-.331 24.173-.876 47.891-5.57 71.758-8.669 1.23 55.192.616 110.39 2.465 165.512 1.34 53.604 3.766 107.02 7.535 160.488-22.39 2.38-44.59 6.782-67 9v-31c12.427-2.064 23.85-7.728 32-17.5-17.6-15.319-37.56-27.807-55.666-42.499-15.996-12.581-32.598-24.421-48.741-36.805-3.526-2.473-7.383-5.826-10.845-7.75-3.406-2.984-8.438 2.532-9.989 5.018-10.2 13.372-23.64 23.551-34.153 36.43-5.686 4.966-10.36 10.86-15.57 16.24-3.03 2.42-7.185 1.714-10.85 1.866h-183.987c-14.334.868-27.54-5.05-40.657-10.175-39.857-14.527-79.603-29.605-119.542-43.825v466c28.727.12 58.125.798 85.892-7.975 13.034-3.58 25.06-10.193 36.177-17.731 5.176-3.488 11.262-8.911 11.733-14.963.431-7.434.03-14.892.198-22.331h21c6.738-.892 15.101 1.225 20.5-1 1.426 40.546-.26 81.398.5 122-73.922.76-148.158-.926-222 .5 3.086 8.963 6.036 20.016 8 28.5h214v209c41.262.5 84.858.225 121.786-20.936 8.672-4.799 20.058-9.925 19.201-20.177.036-33.48-.006-66.965.013-100.434V2421c73.628-.088 147.26.107 220.873-.058 7.84-.154 17.706-4.286 21.402-10.787 4.289-6.696-6.349-12.832-10.14-16.526-18.585-15.984-37.023-32.149-55.91-47.787-9.353-7.68-18.727-15.343-28.222-22.836-8.777-7.616-20.402-15.015-28.003-22.506 4.433-3.336 12.155-4.603 18.041-7.384 11.244-4.323 22.466-8.928 32.976-14.838 3.693-2.562 9.457-5.148 9.879-11.12 1.057-88.975-.98-178.26.604-267.158 3.714 8.53 7.364 17.268 10.5 26 19.684-2.408 39.4-5.072 59-8 8.305 115.625 28.168 231.067 64.862 341.203 1.617 5.826-4.958 11.975-8.141 17.702-29.005 42.804-60.68 84.142-96.444 121.54-17.053 20.287-37.707 37.029-56.722 55.278-10.125 8.25-20.017 16.803-30.193 24.99-5.09 3.878-10.068 7.899-15.227 11.666-4.337 4.303-11.815 7.314-14.135 12.121 2.54 3.2 6.928 7.254 8 10.5 46.082-19.707 91.34-42.637 133.027-70.68 20.526-13.81 40.723-28.148 60.046-43.592 10.041-7.535 19.124-16.187 28.728-24.224 8.784-6.527 18.042-18.344 28.199-24.504 12.006 27.069 27.684 52.686 43.377 77.772 11.726 18.38 23.608 36.988 38.725 52.83 23.484 24.176 51.803 44.1 83.443 56.007 31.663 11.327 71.96 11.41 98.19-12.843 7.055-6.676 10.176-16.622 10.249-26.17 1.183-34.289-11.94-66.834-23.846-98.247-2.791-7.163-7.249-14.808-5.198-23.417 3.758-26.26 7.522-52.523 11.246-78.776 4.966-34.39 10.216-68.727 14.814-103.156-3.348-.502-6.905-2.601-10-3-9.495 24.791-23.319 47.806-34.447 71.88-10.504 19.542-20.621 39.293-32.275 58.177-2.537 4.05-5.397 9.38-9.532 11.433-8.944 5.027-17.85-8.526-22.06-13.966-21.325-27.108-40.152-56.505-54.544-87.893-1.755-5.754 5.383-11.174 8.522-16.687 27.935-39.746 53.072-81.399 76.601-123.86 12.363-21.684 22.627-44.361 33.173-66.939 2.736-5.655 4.753-11.598 7.535-17.229 1.633-4.457 3.36-9.574 9.845-8.9 13.942 1.433 29.12-5.145 34.182-19.016-55.24-18.828-109.668-40.397-165-59-5.59 27.4-15.305 53.984-23.395 80.7-9.285 26.602-18.297 53.738-30.105 79.3-5.559-29.538-11.244-59.322-14.279-89.316-2.769-30.201-7.783-60.306-8.221-90.684 41.287-6.5 82.89-11.112 124.2-17.524 20.224-2.695 40.39-5.697 60.617-8.288 14.546-2.847 46.06-1.34 49.183-24.688-18.034-12.18-37.104-22.86-55.865-33.878-9.587-5.27-18.975-10.833-28.61-16.01-8.804-6.142-21.203-10.416-28.525-17.112 15.06-.942 31.214-.763 44.588-9.385 18.9-10.508 31.688-30.107 34.076-51.589 2.214-21.893-6.584-44.017-21.562-59.919-31.021-32.816-76.667-46.738-119.859-53.381-6.837-.792-13.64-2.068-20.474-2.854-3.04.494-6.821-1.918-9.763-.293-2.46 1.678-6.05 3.656-7.006 6.421 19.833 21.875 34.148 48.366 43.758 76.19 5.962 14.735 9.528 30.284 12.036 45.922 1.423 7.723.871 17.05 2.033 24.131.633 3.85 4.044 6.06 7.112 8.153 2.783 1.855 5.98 4.435 9.061 5.104-11.136 22.085-26.21 42.286-38.099 64.03-3.14 5.213-6.29 10.403-9.36 15.65-2.61 3.752-4.845 8.71-7.525 11.941-2.082 2.768-7.02 2.696-9.674 3.258-11.123 1.372-22.14 3.602-33.342 4.121-3.742-89.615-3.592-179.332-2-269 8.614-1.931 18-2.739 25.393-8.153 7.444-5.121 12.078-13.088 13.607-21.847-24.696-2.516-49.403-5.135-74.113-7.514-12.23-1.207-24.44-2.41-36.65-3.712a1495 1495 0 0 1-18.74-1.992c-5.956-.587-12.297-.129-17.497-3.282 47.388-15.86 94.891-34.61 136.917-62.517 72.973-46.985 134.931-110.821 177.258-186.751 68.821-120.04 85.573-267.79 49.73-401.05-16.94-62.875-46.422-122.062-85.053-174.335-39.738-52.14-87.735-98.882-143.91-133.22-58.547-37.5-124.99-63.393-193.81-73.926-53.655-8.827-108.379-9.88-162.23-2.33-77.624 10.451-152.9 38.65-217.878 82.53-63.453 41.236-116.555 96.768-156.82 160.622-36.703 58.592-62.268 124.376-73.392 192.695-17.163 106.436-3.411 218.729 43.852 316.089 42.435 91.832 113.6 168.715 198.824 222.363 60.833 37.408 129.281 64.677 200.512 73.33m-409-523.088c-2.694 129.102 53.062 255.572 143.476 346.055 44.219 42.984 95.453 78.845 152.298 103.127 29.646 12.603 60.157 23.084 91.828 29.256 16.797 3.215 33.7 6.062 50.727 7.763 16.631.604 33.158 1.75 49.95 1.887 32.992.393 65.848-2.812 98.258-9.425 108.776-21.313 207-83.021 277.633-167.559 72.158-86.356 114.218-198.49 111.83-311.485 2.287-128.04-52.165-254.757-142.602-344.633-43.51-44.002-95.737-79.484-152.549-103.978-29.12-13.646-60.262-22.143-91.491-29.31-33.356-7.382-67.355-10.055-101.418-10.5-33.749.451-67.395 3.042-100.466 10.074-107.654 22.954-207.166 83.428-276.775 168.763-71.53 86.248-112.538 197.546-110.699 309.965m17 542.463c13.12 27.713 24.17 56.65 33.108 86.028 6.77 22.748 13.17 45.793 14.732 69.608.462 4.351.323 9.63 1.52 13.505 3.49 6.031 12.793 10.425 18.182 14.683 24.046 14.941 57.621 14.327 78.987-5.593 22.042-19.276 27.473-52.375 17.48-78.956-10.81-29.97-35.76-52.568-62.782-68.008-27.7-16.364-58.538-27-89.74-34.235-3.91-.826-8.557 1.82-11.487 2.593zm43.128-552.13c-.816 61.273 10.429 123.153 35.044 179.147 33.765 78.661 91.44 146.482 164.137 191.86 36.923 23.494 77.734 41.377 120.017 52.59 45.24 11.612 92.338 15.43 138.929 12.423 111.341-6.36 217.508-60.981 291.031-143.97 35.875-40.633 63.63-88.373 81.983-139.324 20.125-55.627 26.679-115.227 23.084-174.052-7.106-111.394-60.845-219.659-145.939-292.102-41.266-35.9-89.589-63.606-141.108-81.878-26.826-9.187-54.664-15.357-82.727-19.12-28.205-3.715-61.665-4.527-87.774-2.86-104.087 7.713-205.611 54.546-277.423 130.556-74.158 76.178-116.526 180.51-119.254 286.73M1114 1124h307.5l1.5-.5c-44.392-26.019-89.08-51.68-133.687-77.34-44.857-25.387-89.115-52.578-134.313-77.16-4.932 12.276-12.094 23.791-16.185 36.497-14.81 37.856-23.338 77.881-24.815 118.503m42.5 196c43.634-27.131 89.353-51.082 133.377-77.632 44.32-25.72 88.73-51.29 133.123-76.868-102.863-1.426-206.07.26-309-.5 2.618 53.834 17.421 107.43 42.5 155m19.5-387.5c1.012 2.667 5.033 4.054 7.62 5.851 43.505 24.874 86.753 50.152 130.245 75.027 21.579 12.537 43.277 24.873 64.818 37.45a2085 2085 0 0 1 32.553 18.746c5.635 3.143 11.159 6.435 16.79 9.574 5.498 2.029 10.96 8.147 15.974 8.352-26.165-44.338-51.62-89.156-77.57-133.633-26.309-44.397-51.291-89.705-77.93-133.867-44.526 29.408-82.635 68.42-112.5 112.5m0 422.849c29.754 44.508 68.36 83.625 113.5 112.651 25.042-45.023 51.964-89.092 77.216-134.007 25.995-44.333 51.3-89.196 77.284-133.493-44.812 24.77-89.468 51.61-134.074 77.11A22793 22793 0 0 0 1176 1355zm11 723.151c13.796 1.38 28.111-.214 42 .5-.76-42.607.926-85.478-.5-128-2.547 1.511-6.742.71-10.119 1H1187zm0 162.5h42v-134h-21c-5.191.135-10.411-.184-15.591.146-5.105-.01-5.708 3.293-5.397 7.408-.034 11.592.006 23.18-.012 34.767zm11-579c3.678 14.219 10.86 27.593 13.545 42.194 7 25.9 12.318 52.384 15.988 78.954 1.841 10.28 1.085 20.733 1.88 31.072 1.51 8.514-3.517 18.975 3.487 25.102 10.342 9.5 22.045 17.7 35.565 21.927 21.3 6.84 46.142 2.03 63.075-12.648 16.95-14.009 26.742-35.972 25.413-57.972-1.78-35.684-25.752-65.265-53.15-85.762-27.21-20.417-59.31-33.965-91.42-44.564-5.56-2.463-9.598.3-14.383 1.697m126-862.458c25.713 44.606 51.716 89.343 77.586 133.93 25.819 44.893 52.043 89.694 77.914 134.528 1.426-103.148-.26-206.762.5-310-27.774.202-55.2 5.64-81.998 12.43-12.861 3.544-25.55 7.671-37.94 12.61-12.108 4.116-24.997 12.271-36.062 15.96zm1 689.458c48.104 21.915 100.426 40.566 154 40 2.259-12.6.074-25.66 1-38.368-.76-89.783.926-179.967-.5-269.632-26.785 44.169-51.697 89.777-78.094 134.249-13.048 22.16-25.594 44.628-38.698 66.748-6.582 11.307-13.092 22.68-19.606 34.01-3.154 5.672-6.545 11.22-9.734 16.87-2.417 5.165-7.57 11.49-8.368 16.123m45 589h45c2.383-14.18-.05-28.828 1-43.107v-65.246c-.165-5.146.312-11.254-.44-15.923-.584-3.873-7.726-2.19-10.189-2.724H1370zm0 163h46v-133h-46zm0 151c15.002-.14 30.011.171 45.008-.093 4.818-.013 7.941-5.393 10.632-8.802 19.161-27.479 42.254-52.468 60.36-80.605-.458-.45-.911-.96-1.25-1.5-22.388 6.289-45.551 8.09-68.75 7-1.082-11.722 1.401-26.22-.957-36.751-5.774-2.586-12.273-.329-18.522-1.249H1370zm84.058-1248.684c.336 12.448 5.09 24.79 14.084 33.231a44.2 44.2 0 0 0 34.082 12.453c25.025.817 45.948-24.144 42.943-48.199.942-25.185-24.394-45.188-48.429-42.635-23.157.787-42.073 22.623-42.68 45.15M1520.5 1067c26.42-43.886 51.295-88.897 77.4-133.01 26.2-44.722 51.726-89.877 78.1-134.49-48.108-24.49-101.923-39.534-156-41.5.76 102.914-.926 206.211.5 309m.5 462c53.89.166 105.614-18.517 154-40-1.003-5.36-6.359-11.116-8.9-17.01-24.237-42.042-48.626-83.991-72.735-126.1-25.03-41.479-47.86-84.888-73.365-125.89v271.667c.76 12.005-1.094 26.442 1 37.333m35-441.375c44.735-25.013 89.412-51.334 134.037-76.77 44.56-25.932 89.709-50.962 133.963-77.355-28.816-45.1-68.22-83.602-112.5-113.5-27.102 44-51.716 89.68-78.225 134.068-12.93 22.374-26.04 44.628-38.846 67.065-12.663 22.071-26.12 44.435-38.429 66.492m268 267.875c-43.619-26.476-88.5-51.398-132.539-77.307-22.167-12.65-44.127-25.62-66.23-38.368-11.005-6.444-22.126-12.715-33.098-19.204-5.538-3.108-10.98-6.405-16.498-9.547-5.061-2.721-11.738-7.746-16.635-8.074 1.141 7.381 8.82 15.067 12.077 23.116 32.348 56.275 65.138 112.294 97.303 168.668 8.281 14.184 16.517 28.384 24.608 42.672 3.165 5.307 6.343 10.618 9.38 15.986 3.063 4.107 4.874 10.388 8.512 12.96 4.02.295 8.503-5.493 11.982-6.793 28.013-19.28 53.043-42.618 74.724-68.771 9.687-11.109 17.693-23.527 26.414-35.338m-246-233.125c24.692 3.12 50.506.86 75.469.667 77.513 1.047 155.016 1.189 232.531.958-1.389-54.507-17.38-107.542-41.5-156-43.912 26.146-88.855 51.203-132.955 77.158A52934 52934 0 0 0 1578 1122.375m3 43c9.12 8.991 22.002 13.33 32.355 20.69 38.584 22.233 76.98 44.759 115.577 66.964 19.02 11.227 38.264 22.089 57.34 33.196 9.633 6.06 19.716 11.296 29.471 17.123 4.79 2.737 9.505 5.6 14.33 8.268 4.81 2.247 9.892 6.878 14.927 7.384 22.157-48.36 39.92-100.02 41-154h-153c-50.679.582-101.371-1.24-152 0z" style="fill:#666;fill-rule:evenodd;stroke:none"/><path d="M204 2906.5c431.66 1.426 864.125-.26 1295.95.5 431.946-.76 864.184.926 1296.05-.5-71.347-421.454-140.17-844.031-211.186-1265.681C2515.49 1219.807 2443.894 799.05 2375 378c-18.825-4.147-36.622-12.377-55.173-17.557-141.343-47.107-282.688-94.208-424.008-141.343-105.996-35.346-212.02-70.658-318-106l-60-20c-4.743-1.483-9.392-3.202-14.133-4.67-4.689-1.596-9.296.594-13.846 2.121-144.162 48.092-288.385 96.1-432.543 144.19-72.152 24.045-144.327 48.113-216.478 72.159-35.996 12.013-72.02 23.992-108 36-18 6.028-36 11.971-54 18-9.01 3.004-18.013 5.972-27 9-8.742 2.234-18.56 7.118-26.819 8.1-68.995 421.677-140.705 843.07-210.109 1264.703C344.003 2063.481 275.132 2486.22 204 2906.5M327.5 2803c4.595-2.336 12.155.002 17.997-1H2674c-130.3-781.989-260.7-1564.016-391-2346-130.855-42.2-261.028-87.28-391.734-130.071-97.989-32.698-196.012-65.302-294-98-18.48-6.166-36.97-12.313-55.44-18.486-8.648-2.881-17.309-5.793-25.96-8.643-7.268-3.026-15.901-6.58-24.892-2.294-129.057 43.003-258.096 86.044-387.148 129.051C974.746 369.814 846.233 414.354 717 456c-65.274 391.379-130.446 782.818-195.705 1174.196-32.58 195.67-65.246 391.32-97.826 586.99-16.291 97.836-32.63 195.688-48.917 293.515-8.185 48.826-16.245 97.672-24.426 146.49-4.018 24.519-8.219 49.007-12.235 73.512-2.033 12.167-4.046 24.324-6.077 36.478-1.068 6.16-2.057 12.334-3.099 18.497-.634 3.192-1.097 6.392-1.525 9.603-.287 2.372-1.502 5.242.31 7.719" style="fill:#70706f;fill-rule:evenodd;stroke:none"/><path d="M327 2804c1.215-.084 2.33-.724 3-1.5-2.451-2.841-.969-7.923-.436-11.877l260.141-1560.82c32.465-195.004 65.017-389.985 97.481-584.984 7.148-42.664 14.233-85.336 21.346-128.005 1.734-10.341 3.41-20.687 5.173-31.01.879-5.33 1.76-10.667 2.674-15.988.953-4.92.474-12.045 6.797-13.705 81.325-27.109 162.632-54.22 243.959-81.311 152.512-50.874 305.066-101.67 457.568-152.54 16.841-5.56 33.64-11.23 50.47-16.817 8.325-2.514 16.478-5.886 24.895-7.944 130.557 42.608 260.657 87.059 391.106 130.058 113.99 38.023 228.008 75.978 342 114 12.519 4.174 25.035 8.364 37.56 12.516 3.056 1.077 6.2 1.946 9.1 3.393 2.799 1.124 2.25 6.459 3.193 8.732 64.928 389.329 129.738 778.675 194.678 1167.998 32.427 194.664 64.882 389.343 97.325 584.003 16.226 97.324 32.434 194.677 48.675 291.997 8.078 48.685 16.268 97.33 24.325 146.003 4.015 24.34 8.138 48.649 12.156 72.982 2.043 12.162 4.047 24.358 6.088 36.507 1.093 12.052 5.834 26.172 4.726 37.312h4c-129.502-782.758-261.048-1565.3-391-2348-130.994-42.255-261.291-87.36-392.135-130.2-98.003-32.674-195.996-65.327-294-98-18.534-6.187-37.045-12.357-55.568-18.54-8.676-2.864-17.335-5.777-25.998-8.655-7.36-2.873-16.18-6.693-25.345-2.434A1569534 1569534 0 0 1 1103.3 326.395C974.06 368.717 845.395 413.31 716 455c-65.307 391.536-130.49 783.157-195.792 1174.701-32.626 195.843-65.29 391.666-97.913 587.495-16.273 97.844-32.604 195.66-48.913 293.495-8.135 49.004-16.386 98.007-24.49 147.012-4.096 24.495-8.151 48.998-12.253 73.491-2.017 12.175-4.07 24.332-6.087 36.507-1.092 6.131-1.98 12.324-3.106 18.444-.635 3.198-.976 6.433-1.499 9.642-.656 2.855-1.289 6.576 1.053 8.213" style="fill:gray;fill-rule:evenodd;stroke:none"/><path d="M327 2802.5c781.355 1.426 1563.485-.26 2345 .5v-3c-12.216 1.862-24.709.471-36.999 1H362.881c-11.276-.349-24.632.682-34.881-1 .022.935-.325 1.723-1 2.5M1072.5 1139c.73-2.96.57-6.038 0-9-.095 1.454-1.056 2.884-1.252 4.171-.033 1.69.992 3.194 1.252 4.829m0 18c.542-2.509.782-5.742 0-8-2.932 2.42-.54 5.224 0 8m37.5-372.375c2.26-.391 3.875-3.702 6-5.125-2.646-.48-4.924 3.496-6 5.125m25-25c3.489-1.319 4.94-5.068 8-7.125-3.652.703-6.237 4.55-8 7.125M1186 2078h2v-63.6c1.026-20.144-1.36-44.016 1-62.4q19.516.196 39-.5c-14.007-.502-27.99-.632-42-.5zm.5 163c2.362-5.112 1.13-12.002 1.5-16.95v-59.192c.646-18.696-.98-40.779 1-57.858h-1.5c-.4.393-.863.807-1.5 1 .76 44.274-.926 88.816.5 133m0 55c3.065-7.881.102-16.916 2.5-25 13.003-.036 26-.366 39-.5-13.996-.16-28.01-.498-42-.5.585 8.602-.752 17.474.5 26M1205 833.625c2.26-.391 3.875-3.702 6-5.125-2.646-.48-4.924 3.496-6 5.125m223 1064.75c1.035.303 2.039-1.181 2.976-1.851l4.024-4.024c-3.002-.38-5.308 4.31-7 5.875m19-1282.125c.793 1.224 3.366.598 4.476.532l.524-.282c-1.39-1.814-3.594-1.743-5-.25m6 1055.125c2.25 2.222 6.148 1.559 8.5 3.625.883-.977 1.198-2.509 1.5-3.5-2.428-.456-7.044-.836-10-.125m3 198c1.21.324 2.239-1.53 3.366-2.24l5.634-5.635c-2.932-.25-5.677 4.248-7.338 5.92-.462.739-1.113 1.33-1.662 1.955m5-1152.125c.793 1.224 3.366.598 4.476.532l.524-.282c-1.39-1.814-3.594-1.743-5-.25m12 914c2.025 1.576 6.763.34 9 .25-2.395-1.318-6.118-2.46-9-.25m2-102c.901 1.368 3.75.382 5 .75.03-1.028-.118-2.055-.5-3-1.22 1.155-2.884 1.72-4.5 2zm1-813c1.474 1.544 5.314.37 7 .25-2.02-1.117-4.601-2.388-7-.25m9-102.125c2.16 1.794 7.536.415 10 .375-3.074-1.908-6.764-1.753-10-.375m0 1687.25c.426.61.966 1.107 1.5 1.625 1.171-1.58 3.846-2.26 4.25-4-1.911.703-4.572.956-5.75 2.375m.5 3.625c.295-.643.485-1.298.5-2-.884.058-1.065.773-.833 1.481zm4.5-3.547c.423.608 1.336 1.44 2 1.047-.604-.599-1.177-1.255-2-1.5zm16-1687.203c1.718 1.41 6.096.507 8 .25-1.93-2.103-6.146-1.803-8-.25m12 102c.964 1.428 4.009.386 5.31.56a6 6 0 0 0 .69-.31c-1.707-1.944-4.305-1.842-6-.25m0 914.875c1.864 1.647 6.858.562 9 .375-2.23-2.41-6.414-1.276-9-.375m2-101.125c1.664-.03 3.426.153 5-.5-1.732-.734-3.31-1.696-5-2.5zm14-812.875c.648 1.278 2.926.717 4 .875l-.25-2c-1.262.322-2.468.768-3.75 1zM1545.5 1147c.824-2.195.478-4.984 0-7-.214.764-.51 1.729-1.5 2-.113 1.8.724 3.456 1.5 5m2.5-530.875c.648 1.278 2.926.717 4 .875l-.25-2c-1.262.322-2.468.768-3.75 1zm8 584.063c.859 1.593 1.807 3.135 2.5 4.812.421-1.348 1.303-2.056 2.5-2.5-1.305-1.458-3.094-2.214-5-2.5zm21-35.813c1.845 1.722 5.162 3.777 7 4.125-.798-1.174-1.48-2.413-3-3 5.371-1.047 11.838-.761 15 1.5 1.096-.686 1.825-1.708 2-3-6.91.485-14.187-.61-21 .375M1608.5 1727c.61-3.98.723-9.749 0-13-.73.6-1.56.935-2.5 1 .754 4.01 1.543 8.035 2.5 12m1 62c.755-2.09.579-5.294 0-7-2.608 2.062-1.115 4.681 0 7m1 40c.542-2.509.782-5.742 0-8-2.932 2.42-.54 5.224 0 8m1 33c.655-1.86.66-4.314 0-6-2.553 1.826-1.03 3.906 0 6m1 27c.525-1.603.721-3.425 0-5-2.082 1.332-1.185 2.865-.186 4.499zm1 26c.699-1.212.599-2.771 0-4-1.956 1.243-1.5 2.813 0 4m1 21c.699-1.212.599-2.771 0-4-1.956 1.243-1.5 2.813 0 4m19.5-812.75c9.711 2.012 20.881-.262 30.901.75 10.37-.17 20.76.336 31.099-.5-10.696-1.222-21.445-1.755-32.2-1.544-5.197-.134-10.386-.38-15.58-.563-4.723-.114-10.074-.988-14.22 1.857m7 531c2.28 1.285 6.034.298 9 1.25-2.624-2.7-5.992-2.44-9-1.25m6-1.812c.342.41.631.299 1 .062-.32-.203-.644-.43-1-.062m228 226.812c1.414 1.626 4.671 1.94 6.5 3.75.222-.68-.1-1.076-.5-1.5.895-.599 1.96-.799 3-1-2.995-.479-6.005-1.023-9-1.5z" style="fill:#f0f0e1;fill-rule:evenodd;stroke:none"/></svg>