<svg xmlns="http://www.w3.org/2000/svg" width="3000" height="3000"><path d="M284 2851h2432c-134.149-810.763-270.401-1621.295-405-2432-121.342-39.954-242.44-80.911-363.734-121.071l-318.4-106.13c-23.338-7.841-46.698-15.545-70.04-23.356-11.341-3.774-22.687-7.54-34.007-11.343-10.608-3.396-23.708-9.945-33.842-5.595-87.231 29.065-174.458 58.147-261.68 87.235-152.357 50.752-304.678 101.596-457.031 152.331-14.33 4.77-28.642 9.546-42.967 14.324-6.996 2.317-13.996 4.71-21 7-3.5 1.192-7.003 2.291-10.485 3.517-3.155 1.196-7.913 2.055-8.741 5.189-72.745 429.113-142.918 858.853-215.103 1288.098C411.037 2089.84 346.517 2470.336 284 2851m1567.5-363c-16.147 19.018-30.707 39.38-46.586 58.61-11.684 14.772-23.283 29.608-34.909 44.42-2.216 2.542-4.43 6.928-7.512 7.495-60.423 1.354-121.032-.246-181.493.475v-332h287.4c11.664-.612 25.531.843 36.158-.692 8.504-1.623 20.87-5.65 21.953-14.44-3.93-7.001-11.478-10.354-16.969-16.215-21.483-17.656-43.146-35.11-65.148-52.113-22.133-16.291-43.267-34.828-66.394-49.54-22.475 31.223-48.25 60.956-71.394 91.881-3.064 3.668-6.262 8.312-9.284 11.49-3.042 3.056-10.436.734-14.072 1.629H1581v-278h347.4c14.782.314 33.913-.53 38.6-15.543-49.898-41.592-101.84-81.235-153.5-120.457-18.324 23.244-36.217 46.871-54.825 69.906-7.894 10.343-15.871 20.629-24.011 30.781-1.822 2.382-3.661 4.811-6.143 6.542-13.602 2.056-27.916-.257-41.668.771H1061c2.55 9.336 5.461 18.67 8 28h341v278h-301v1.5c1.942 7.864 5.717 17.752 7 26.5h294v332H990c1.75 8.808 5.064 17.42 7.28 26.117 1.25 4.677 10.229 1.974 13.314 2.883h906.113c24.43-.79 49.113 1.367 73.41-1.732 7.664-1.223 16.268-5.634 18.386-13.814-7.774-10.6-22.803-19.084-31.5-27.448-32.39-26.37-65.961-51.236-99.021-76.733-8.814-6.787-17.911-13.195-26.482-20.273m-351-1903c-4.134 1.18-7.562 6.302-11.485 9.17-58.668 50.021-132.215 78.272-205.566 98.482-38.584 11.233-78.238 17.919-117.76 24.732-39.814 7.102-80.78 8.658-120.689 13.616-1.543 130.099 7.458 260.824 36.971 387.86 20.212 91.076 50.542 179.984 94.22 262.52 31.495 58.47 69.318 113.967 115.542 161.853 35.41 36.235 74.735 68.967 119.003 93.922 16.482 9.524 33.255 18.51 50.887 25.742 7.55 3.771 15.438 6.687 23.367 9.496 6.784 2.403 14.397 6.917 21.96 2.834 54.628-19.033 105.461-48.625 150.272-85.002 46.049-36.342 84.156-81.679 118.178-129.096 33.481-49.325 62.495-101.761 84.782-157.132 36.459-88.463 60.513-181.725 75.349-276.14 7.726-47.697 12.686-95.86 15.726-144.039 1.858-25.285 2.268-50.64 3.502-75.959.411-13.123.151-26.247.241-39.367v-19.681c-.965-5.782 1.428-13.65-1.39-17.999-40.968-4.945-83.235-6.46-124.063-14.089-60.753-9.64-120.94-23.25-178.605-44.887-54.665-19.992-107.46-46.928-150.442-86.836M1915 767c-37.686-1.437-74.93-8.04-112.12-13.708-64.276-10.86-127.623-28.093-188.062-52.564-21.327-9.23-42.659-18.606-62.829-30.18-18.084-9.017-33.773-21.915-50.58-32.877-8.014.962-15.279 10.206-22.243 13.7-56.664 38.346-121.47 62.276-186.912 80.7-67.82 17.391-137.255 30.585-207.254 34.929-.752 118.85 11.542 237.817 37.705 353.74 19.913 82.65 46.73 163.858 86.742 239.14 29.382 53.957 63.354 106.086 105.786 150.853 31.678 33.106 66.312 63.452 105.832 86.961a478 478 0 0 0 45.31 24.492c7.057 3.45 14.478 6.032 21.721 9.048 3.542 1.38 6.912 3.35 10.67 4.082 6.144.539 13.492-5.316 20.372-6.96 94.956-39.787 173.104-112.975 229.158-198.251 15.522-22.02 29.096-45.438 41.36-69.4 46.95-87.717 75.616-184.183 96.125-281.103C1906.1 976.745 1915.258 871.81 1915 767m-90 77c-59.372-5.538-118.46-16.625-175.838-32.825-40.762-11.87-80.312-28.46-116.356-50.932-6.934-4.217-13.962-8.293-20.533-13.077-5.75-3.772-11.56-10.797-18.502-4.088-45.333 32.526-97.015 55.396-150.674 70.166-55.037 14.71-111.333 25.61-168.097 30.756 1.968 93.159 10.359 186.627 34.022 277.065 14.724 65.279 38.716 128.387 68.95 187.936 22.289 42.406 47.967 83.365 80.35 118.887 24.243 27.782 52.428 52.3 83.266 72.495 11.23 7.093 22.713 13.814 34.592 19.75 5.615 2.803 11.222 5.711 17.004 8.137 6.003 3.713 11.106 1.94 16.415-1.161 76.883-34.389 138.084-96.116 183.089-166.138 46.902-74.072 79.473-156.746 99.56-241.985 22.53-89.877 31.395-182.535 32.752-274.986m-324 649V782h-1.5c-86.42 55.083-188.125 79.35-288.5 93 4.055 122.805 23.658 246.472 70.473 360.715 21.539 53.67 50.465 104.492 86.035 150.092 36.203 44.197 80.57 84.279 133.492 107.193m-195 179.58c14.827 14.422 31.099 28.455 44.234 44.74 23.934 27.012 45.296 56.262 64.477 86.771 14.713 22.933 27.422 47.095 37.49 72.433 2.03 4.864 3.486 9.944 5.582 14.767 3.775 7.253 15.96 9.112 24.23 13.315 32.34 13.97 72.756 4.935 95.832-21.99 23.968-25.637 28.526-66.482 14.244-97.899-9.496-22.978-29.04-45.395-46.779-59.367-31.307-22.299-67.712-36.712-104.985-45.275-40.026-9.331-81.16-11.744-122.104-12.85-5.222-.803-9.82 1.266-12.221 5.355" style="fill:#ffe;fill-rule:evenodd;stroke:none"/><path d="M157 2957.5c447.26 1.426 895.325-.26 1342.75.5 447.681-.76 895.643.926 1343.25-.5-89.24-527.6-175.768-1056.319-264.274-1584.188-32.881-197.178-65.724-394.337-98.6-591.504-14.975-86.916-28.91-174.043-43.658-260.994l-20.26-121.515c-4.237-19.837-5.613-40.387-10.571-60.035-2.23-3.666-9.156-3.713-13.331-6.001-153.686-51.195-307.327-102.464-461.007-153.658-134.313-44.829-268.697-89.519-403.002-134.345-7.496-2.464-14.948-4.998-22.428-7.466-7.106-3.118-15.85 1.66-22.572 3.602-115.69 38.56-231.359 77.11-347.031 115.675-101.317 33.788-202.65 67.568-303.967 101.324-44.313 14.829-88.697 29.519-133.002 44.345-20.83 6.934-41.652 13.855-62.47 20.817l-30.53 10.183c-4.798 1.638-11.417 2.822-12.665 7.456C487.841 971.739 383.296 1602.542 278.126 2233.19 237.363 2474.168 198.262 2717.071 157 2957.5M285 2850h2430c1.438-9.785-2.95-22.854-4.06-34.37-111.015-666.287-222.139-1332.53-333.126-1998.811-13.906-83.343-27.779-166.675-41.688-250.01-6.078-36.515-12.159-73.011-18.235-109.512-1.488-8.65-2.835-17.34-4.36-25.984-1.37-4.127-.5-10.103-3.298-12.882-133.092-44.85-266.755-88.856-399.967-133.502l-300-100c-18.813-6.306-37.642-12.52-56.447-18.829-17.904-4.793-34.967-13.089-53.095-16.916-8.848.43-16.92 5.192-25.426 7.211-127.675 42.545-255.362 85.122-383.032 127.676-127.475 42.52-254.959 84.991-382.44 127.486-6.786 1.812-14.445 5.42-20.826 6.443-68.04 405.46-135.124 811.182-202.952 1216.695-33.727 202.494-67.523 404.995-101.234 607.486-16.895 101.338-33.797 202.673-50.688 304.01-8.386 50.673-16.93 101.318-25.312 151.99-4.255 25.328-8.437 50.683-12.688 76.01-2.062 12.668-4.247 25.33-6.312 37.99-1.202 11.873-6.019 27.928-4.814 37.819" style="fill:#70706f;fill-rule:evenodd;stroke:none"/><path d="M988 2598.5c1.365 5.292 3.356 10.43 4.79 15.723 1.255 4.11 2.365 8.293 3.566 12.403 1.062 3.112 6.744 1.941 9.041 2.374h957.235c18.278.173 42.053.954 48.368-17.5-50.626-44.96-106.807-83.165-159.5-125.5-16.478 18.684-30.653 39.322-46.62 58.427-11.76 14.713-23.332 29.562-34.949 44.391-2.169 2.715-4.392 6.226-7.01 8.11-6.924 2.212-15.053.289-22.266 1.072H1582v-330h314.997c11.23-.312 28.44-3.356 32.003-17.668-48.307-41.487-99.192-80.052-150-118.332-24.644 29.84-47.844 61.15-72.171 91.294-3.068 3.894-5.993 7.87-9.167 11.676-2.785 3.883-8.848 2.953-13.02 3.03H1582v-276h348.6c12.947.767 31.237-.242 38.4-16.5-50.164-42.836-103.47-82.008-155.5-122.5-18.837 22.973-36.264 47.149-55.157 70.082-8.047 10.238-15.883 20.63-24.022 30.793-1.914 2.185-3.82 5.12-5.982 6.705-6.446 2.988-13.39.325-20.288 1.42-216.288.76-432.841-.926-649.051.5 4.057 9.328 5.665 19.882 9 29.5h341v276c-100.607.76-201.478-.926-302 .5 2.942 9.303 6.393 20.68 8 29.5h294v330H988zM1499.5 583c-57.987 54.514-133.339 84.993-208.666 106.48-40.142 11.347-80.899 19.778-122.093 26.24-41.102 7.769-83.495 8.997-124.741 14.28-1.567 130.37 7.127 261.434 36.715 388.752 20.218 91.458 50.649 180.76 94.476 263.628 31.571 58.621 69.524 114.259 115.911 162.222 35.491 36.385 75.035 69.095 119.47 94.065 16.521 9.375 33.272 18.456 50.914 25.593 7.557 3.799 15.451 6.71 23.412 9.498 7.09 2.282 14 7.173 22.664 2.61 54.614-18.988 105.443-48.495 150.262-84.819 46.186-36.46 84.491-81.798 118.576-129.42 33.625-49.481 62.648-102.1 85-157.66 36.54-88.826 60.512-182.495 75.4-277.26 7.64-47.952 12.686-96.335 15.661-144.775 1.607-25.293 2.352-50.624 3.373-75.957.339-13.134.049-26.25.166-39.376v-19.685c-1.036-5.669 1.599-13.83-1.687-17.91-82.48-6.466-165.017-16.93-244.829-39.645-38.55-11.592-76.629-24.881-113.053-42.148-17.343-9.144-34.794-18.189-51.1-29.14-8.252-5.345-16.081-11.26-23.7-17.453-7.637-5.172-15.006-13.716-22.131-18.12M1914 768c-37.522-1.388-74.59-8.03-111.627-13.619-54.98-9.341-109.284-23.185-161.662-42.346-49.847-17.843-98.582-40.889-140.211-74.035-57.579 43.645-125.07 71.55-194.145 91.168-35.254 10.446-71.216 18.793-107.467 24.896-37.447 5.734-74.986 12.238-112.888 13.936-.623 118.54 11.65 237.175 37.945 352.75 19.927 82.475 46.774 163.515 86.75 238.617 29.393 53.734 63.186 105.766 105.538 150.366 31.678 33.106 66.312 63.452 105.832 86.961a478 478 0 0 0 45.31 24.492c7.057 3.45 14.478 6.032 21.721 9.048 3.313 1.514 6.684 2.971 10.174 3.997 51.008-17.574 99.112-47.622 140.481-82.451 41.947-34.938 77.337-77.418 107.545-122.675 15.522-22.02 29.096-45.438 41.36-69.4 46.868-87.524 75.477-183.817 96.005-280.51C1904.993 976.796 1914.17 872.36 1914 768m-88 75c-59.043-5.461-117.745-16.538-174.839-32.522-53.865-15.71-105.591-39.926-150.661-73.478-46.122 33.202-98.01 59.162-153.184 73.736C1290.703 826.564 1232.54 837.588 1174 843c1.653 94.012 10.352 188.298 34.137 279.56 14.814 65.44 38.954 128.688 69.318 188.359 22.31 42.581 48.339 83.521 80.886 119.088 24.523 27.78 52.877 52.315 83.953 72.504 11.513 7.044 23.056 13.948 35.209 19.829 5.47 3.023 11.324 5.323 16.982 7.937 5.762 3.598 10.332.574 15.627-1.948 77.084-34.377 138.513-96.135 183.576-166.358 47.048-74.222 79.573-157.114 99.702-242.535 22.502-90.362 31.53-183.494 32.61-276.436m-326.5 649c1.426-117.973-.26-236.305.5-354.341-.76-118.16.926-236.587-.5-354.659-85.458 56.184-187.869 78.583-287.5 93 4.324 121.913 23.817 244.683 70.234 358.126 21.406 53.577 50.125 104.302 85.575 149.833 18.836 22.135 38.189 44.043 60.945 62.238 21.373 18.558 46.067 32.342 70.746 45.803M1304 1672.586c6.144 8.061 15.742 13.516 22.37 21.284 52.163 55.01 98.943 117.524 126.695 188.712 2.33 3.91 2.627 10.398 6.42 13.364 15.529 9.308 36.393 15.727 52.953 16.015 27.443.987 54.424-12.304 71.136-33.925 16.832-22.572 22.076-53.373 14.315-80.48-6.557-26.444-24.514-48.34-43.68-66.692-14.777-12.96-32.179-22.51-49.994-30.569-57.612-27.275-122.343-32.532-185.033-34.051-2.931.383-6.692-.877-9.055.79-2.189 1.26-4.385 3.892-6.127 4.966z" style="fill:#666;fill-rule:evenodd;stroke:none"/><path d="M283 2848a5 5 0 0 0 2-.5c113.597-674.455 224.76-1350.008 337.874-2024.691 13.999-84.348 28.157-168.66 42.156-253.008 6.145-36.845 12.258-73.67 18.418-110.502 1.514-8.655 2.82-17.348 4.375-25.996 1.115-4.44.766-10.498 3.6-13.521 66.905-23.487 135.128-44.827 202.311-67.853 117.994-39.366 236.017-78.637 354-118 44.33-14.77 88.642-29.546 132.967-44.324 38.851-12.751 77.532-26.12 116.434-38.672 4.486-.984 8.802 1.438 13.039 2.624 133.344 44.46 266.685 88.855 400.007 133.343C2043.532 331.039 2176.605 376.057 2310 420c67.47 404.894 134.955 809.8 202.448 1214.7 33.758 202.506 67.48 404.997 101.257 607.496 16.873 101.163 33.698 202.329 50.569 303.492 8.506 50.655 16.851 101.35 25.344 152.003 4.227 25.336 8.443 50.663 12.656 75.997 2.145 12.669 4.2 25.337 6.344 38.003 1.06 6.343 2.072 12.681 3.174 19.01.522 3.291 1.193 6.53 1.633 9.828.526 2.947.608 6.73 3.575 7.471-111.19-675.89-225.518-1351.391-337.36-2027.194-14.115-84.493-28.144-169.007-42.258-253.497-6.172-37.004-12.348-74.006-18.49-111.012-1.49-8.65-2.836-17.34-4.36-25.984-1.372-4.127-.501-10.103-3.299-12.882-135.1-45.527-270.747-90.18-405.967-135.502-101.47-33.838-202.963-67.673-304.44-101.486-19.008-6.314-38.006-12.678-57-19-9.008-2.98-18.006-6.01-27-9-7.79-3.131-17.184-6.756-26.879-2.27-133.694 44.601-267.438 89.122-401.128 133.727C955.067 327.708 821.904 373.81 688 417c-135.016 810.274-270.656 1620.643-405 2431" style="fill:gray;fill-rule:evenodd;stroke:none"/></svg>