<svg xmlns="http://www.w3.org/2000/svg" width="3000" height="3000"><path d="M448 2669h2104c-108.019-653.996-218.137-1307.761-326.618-1961.691-6.813-40.83-13.621-81.671-20.41-122.502-.9-5.185-1.732-10.375-2.627-15.558-.693-5.948-7.25-6.546-11.566-8.162a2264805 2264805 0 0 1-451.953-150.644c-56.522-18.824-113.032-37.715-169.56-56.514-12.477-4.17-24.972-8.31-37.44-12.486-6.015-1.98-11.998-4.026-18-6-5.943-1.873-12.256-5.247-18.565-3.023-92.812 30.91-185.585 61.892-278.396 92.78-138.737 46.826-278.12 92.047-416.698 139.266-3.665 1.962-2.298 9.57-3.876 12.727-22.4 134.514-44.811 269.006-67.243 403.502C635.746 1543.503 540.855 2106.166 448 2669m613-1448c-3.33 41.964-21.15 81.323-25.809 123.086-3.646 31.499.255 64.023 14.664 92.553 10.44 19.65 24.649 37.636 43.636 49.675 28.748 19.658 66.621 24.9 99.648 13.795 32.125-9.717 57.538-37.877 65.614-70.208 5.763-23.557 5.33-49.411-4.396-71.934-6.504-15.66-20.602-33.3-36.883-36.206-6.998-1.648-14.069-.687-20.594 2.123-5.093 1.737-10.917 5.11-17.4 2.756-2.284-5.934.083-10.715 2.18-15.816 6.478-16.649 18.983-30.043 29.537-44.106 10.866-13.257 20.804-27.367 31.192-40.942 2.036-2.544 4.239-1.005 6.235.388 7.016 5.179 16.798 9.186 24.682 10.468 9.883 1.05 19.827-.146 29.694-.632-1.721 16.475-6.416 32.541-7.526 49.122-1.408 14.908-2.805 33.17.848 46.597 2.931 13.024 10.575 24.412 18.075 35.157 3.582 5.102 7.813 9.644 11.803 14.408 3.293 4.103 9.837 7.938 7.53 14.717-7.754 23.205-14.042 46.91-21.85 70.08-12.279 40.725-27.649 82.343-23.19 125.72 2.014 15.259 7.742 30.816 19.18 41.569 20.378 21.128 52.355 22.92 79.524 19.387 20.284-2.39 40.655-9.829 54.082-25.934 19.753-23.938 25.057-55.505 32.462-84.529 7.408-29.944 16.313-59.547 27.232-88.378 5.944-16.047 12.27-32 20.014-47.272 2.085-3.749 4.148-7.479 6.244-11.208 2.96-5.025 11.832-1.285 17.739-1.794 6.952.402 13.887.997 20.833 1.358v98.4c.142 23.1-6.25 45.775-5.992 68.894-.424 8.211 1.183 17.07 7.647 22.81 11.641 10.451 28.71 8.968 42.997 8.793 11.133-.605 22.714-2.24 32.436-8.154 13.992-9.04 15.103-30.58 14.912-45.138-.136-17.085 1.178-34.152 2.966-51.119 1.568-15.204 4.76-30.162 8.405-44.97 1.808-7.507 4.01-14.878 6.274-22.253.95-3.716 2.19-7.353 3.427-10.968 1.265-3.49 2.09-8.08 5.928-8.295 12.964 27.887 26.183 56.024 34.665 85.767 5.904 23.058 10.826 46.485 19.384 68.76 6.296 15.228 13.34 31.477 27.359 41.275 23.405 17.742 52.982 4.561 73.1-6.201 20.835-13.603 40.138-31.337 49.43-55.056 10.168-28.995-2.1-59.862-12.61-86.66-12.305-26.135-23.241-53.305-28.42-81.858-3.633-22.366-.521-45.033 2.628-67.228 2.912-21.366 10.81-41.509 17.464-61.799h3c3.431 8.685 13.042 15.737 18.475 21.975 5.036 6.652 14.807 10.94 18.361 16.847 3.335 29.372 25.843 51.774 50.263 66.133 12.556 7.151 25.865 13.149 40.07 16.188 7.649 1.994 15.523 2.152 23.372 1.844 6.697.153 14.785-.108 20.459-6.3-1.346-5.879-5.91-10.092-9.896-14.203-7.538-8.603-15.815-16.73-21.127-27.027-11.298-18.49-21.23-41.118-42.881-49.773-10.698-4.775-22.457-4.564-33.773-5.83-4.372-.9-7.962-6.726-11.709-10.085-13.269-15-26.255-30.313-36.957-47.309-5.974-8.645-3.775-20.095-5.448-30.026-6.457-74.439-38.957-146.984-94.833-197.502-20.08-18.114-42.05-34.062-66.035-46.653-5.393-3.019-11.121-5.46-16.52-8.464-5.72-3.076-3.079-12-4.073-17.225-2.385-22.837-11.165-44.512-19.688-65.592-16.087-35.335-35.673-70.228-64.067-97.34-11.178-9.462-22.356-19.425-36.119-25.077-26.059-11.252-55.22-6.374-82.604-6.458-39.696 1.172-81.99 4.185-116.183 26.937-8.129 5.466-15.632 11.79-22.457 18.81-2.673 2.515-5.08 5.337-7.943 7.644-5.263 3.884-14.223 1.853-20.207 2.486-21.169-.19-42.327.297-63.48 1-3.526-15.525-12.675-29.965-25.044-40-12.905-10.712-29.65-15.297-46.123-15.889-17.32-.235-34.712.94-51.859 3.23-12.514 2.322-25.377 3.177-37.476 7.35-15.819 6.204-31.571 19.18-42.6 29.911-11.958 12.77-24.172 26.547-29.471 43.613-2.956 11.511-.555 25.848-.884 36.561 1.21 20.663 3.407 41.271 4.92 61.902 1.059 15.813 3.06 31.73 2.176 47.6-4.197 46.23-23.627 90.734-21.639 137.722-14.448-.774-34.314-7.027-48.065 7.639-12.49 12.243-14.4 31.147-7.913 46.806 9.773 26.488 32.683 45.015 54.385 61.359 14.423 9.806 28.518 21.207 44.593 28.196m0-35c-.177-21.668-.084-43.41-2-65-10.271-3.789-20.618-7.673-31.324-10.24-7.909-2.276-15.827-4.638-24.042-5.52-5.256-.352-13.37-1.647-16.02 5.02-7.023 18.37 12.786 35.284 22.375 43.523 11.516 10.175 24.52 18.458 37.78 26.102 4.155 2.123 8.794 5.733 13.231 6.115m-6 689.25c2.12 4.158 2.945 10.754 4.926 16.006.747 2.071 1.096 4.692 2.009 6.472 6.43 2.632 16.016.336 22.82 1.272H1151c-7.307 69.073-16.755 138.227-32.659 205.908-7.734 33.12-16.365 66.058-27.256 98.299a574 574 0 0 1-19.055 47.694c-3.5 7.716-6.896 15.49-10.958 22.934-1.836 4-4.27 7.784-5.405 12.048-.723 3.527 5.515 6.504 6.833 9.117 18.793-16.38 37.79-32.927 54.086-51.91 8.577-9.194 17.244-18.293 25.19-28.052 4.03-4.772 7.989-9.62 11.684-14.644 4.132-3.95 7.216-11.704 12.54-12.394v334c18.8.577 37.626.53 56.109-3.342 13.334-2.303 26.127-6.773 38.707-11.59 8.736-3.49 17.354-7.747 24.58-13.834 6.546-4.67 4.161-15.366 4.604-22.129V2001h3c8.003 21.919 17.199 43.614 21.826 66.628 4.438 17.888 6.638 36.163 7.01 54.563.391 3.118-.354 8.052 1.521 10.145 7.476 8.483 20.065 14.646 29.742 17.694 17.646 4.304 37.106-1.724 48.918-15.679 12.167-14 17.152-33.771 13.95-51.866-9.418-42.631-46.6-72.346-84.36-89.657-8.713-4.005-17.502-7.877-26.57-11.016-4.843-1.54-10.426-4.049-15.037-4.812v-78h80v2.5c-6.895 7.146-15.12 12.855-22 20 1.385 1.647 2.75 3.475 4.25 5.5 11.32-3.707 22.4-8.451 33.331-13.19 5.484-2.215 10.663-5.082 16.13-7.307 5.264-1.98 10.945-6.317 16.289-6.503v155c27.533.463 55.77.006 81.81-10.155 10.937-4.898 23.885-11.628 31.49-19.75 2.3-2.155 3.22-6.734 6.223-6.736 10.447-.988 21.01.15 31.477-.359-.315 4.982-6.206 9.596-9.615 14.098-57.16 63.651-126.782 115.616-203.385 153.402.921 3.045 3.169 5.408 4.77 8.064 2.487 2.488 7.875-.78 10.557-.931 34.321-9.433 68.357-20.005 101.801-32.18a946 946 0 0 0 51.594-20.15c7.736-3.419 15.547-6.722 23.215-10.282 7.109-2.783 14.236-8.053 23.063-10.021-.676 5.31-7.264 9.65-10.724 14.451a734 734 0 0 1-99.45 91.459c-34.506 26.512-70.701 51.336-109.826 70.59 1.652 2.431 3.368 6.155 4 8.5 44.392-9.56 87.488-25.761 130.096-41.24 20.912-8.193 41.613-16.848 62.096-26.029a839 839 0 0 0 30.642-14.659c5.325-2.687 10.677-5.314 16.001-8 4.874-1.859 10.836-6.437 15.165-7.072-.611 6.433-9.35 11.398-13.19 17.58-37.913 39.454-77.855 77.006-122.217 109.224-43.229 31.947-88.367 62.217-137.593 84.196.447 3.526 2.66 7.378 4.5 10 51.652-11.579 102.4-27.29 151.213-47.88 24.035-9.717 47.623-20.405 70.653-32.297 12.02-5.702 23.729-11.952 35.185-18.7 5.187-2.934 10.439-5.743 15.518-8.85 5.13-2.782 11.896-8.024 16.931-8.273-.18 18.605-1.212 37.317-4.457 55.66-3.09 11.983-4.64 28.94-14.134 35.491-9.442 4.535-22.421 2.037-31.558 2.826-31.695-.238-63.193-4.29-94.851-4.977v7c12.891 3.74 25.647 8.363 37.864 13.95 8.784 4.209 17.695 8.44 25.121 14.841 10.766 9.981 17.828 23.376 21.797 37.354 4.676 14.563 4.815 29.825 6.218 44.855 25.293-.108 50.741-1.376 75.693-5.86 17.201-3.213 34.782-7.371 49.502-17.339 21.423-15.443 33.255-40.522 39.483-65.476 7.273-27.121 8.32-55.466 6.904-83.344-4.277-69.489-29.312-138.199-71.054-193.958-10.36-13.784-21.473-26.94-33.898-38.893-4.41-4.758-9.41-8.844-14.25-13.126-3.054-2.762-11.478-7.66-5.048-12.117 16.258-9.686 31.772-20.615 46.74-32.2 7.83-5.758 15.293-11.98 22.566-18.407 3.946-2.952 7.092-6.802 10.807-10.003 3.617-2.551 7.752-7.78 11.555-8.277 7.325 75.817 16.443 152.085 37.433 225.545 20.136 70.558 54.405 137.246 103.067 192.455 8.461-23.945 20.755-46.856 38.644-65.188 18.151-17.917 41.324-31.832 66.856-35.812-.058-2.552.185-5.072 1-7.5-31.146-19.175-62.026-39.393-89.573-63.665-14.254-12.077-27.752-24.996-40.563-38.626-6.045-7.225-12.555-14.104-18.178-21.685-4.584-7.593-13.188-14.959-14.686-22.524 26.484-5.153 52.283-14.015 78.307-21.08 12.834-3.8 25.387-8.457 37.988-12.891 6.876-3.386 12.64.26 19.479 1.525 6.385 1.18 13.515-.373 18.226-5.054-34.802-31.201-69.785-62.202-104.5-93.5-20.441 36.36-39.47 74.466-64.5 108-3.129-.806-4.178-5.142-5.951-7.384-23.401-41.625-41.002-87.479-49.049-134.616 19.594-1.885 39.35-.448 59-1v26c36.534.987 72.873-5.986 107.162-18.487 4.018-1.724 8.84-3.611 12.393-5.462 4.067-1.846 5.082-6.567 4.444-9.988.003-30.165 0-60.309.001-90.469.744-11.206-.988-24.8.732-34.951 3.78-3.18 9.866-3 13.886-6.067 4.286-2.484 8.919-6.17 12.382-9.076-2.458-4.165-9.158-6.898-13.261-10.71-31.743-22.387-62.164-47.277-94.395-68.79-8.768 9.87-17.913 19.362-27.34 28.619-6.301 7.897-14.087 14.454-20.82 21.946-4.717 6.699-15.889 3.65-22.873 4.435h-37.778c-11.8-.398-25.8.731-36.533-1-.268-4.151 4.567-5.995 7.792-7.372 25.885-11.442 49.855-26.812 74.279-40.963 12.19-7.459 24.42-14.842 36.404-22.624 11.849-7.34 28.992-2.879 39.525-13.541-.728-2.424-3.77-4.267-5.865-6.192-32.926-29.097-66.864-57.061-99.635-86.308-15.412 14.616-29.76 30.223-44.475 45.475l-11.627 11.627c-5.404 6.762-16.406 4.661-24.004 4.898H1632c1.145-6.624 9.673-12.182 13.384-18.867 3.527-4.678 6.994-9.4 10.543-14.048 2.65-2.852 5.32-8.314 8.439-9.617 11.079-1.535 28.068.898 34.634-12.968-55.631-13.865-112.695-23.123-168.5-36.5-3.78 5.375-4.373 14.699-7.56 21.698-18.333 54.346-45.732 105.246-78.049 152.476-7.85 11.67-15.997 23.178-24.652 34.258-3.4 4.198-6.97 8.279-10.241 12.571-2.282 2.906-6.437 9.584-9.722 6.26-22.793-22.956-43.65-49.457-68.276-70.263-10.669 23.125-28.323 42.869-39 66h-3v-181c13.432-.316 31.23-7.45 34-25-52.782-3.156-105.204-11.18-158-14v235h-111zM1346 1183c4.242-.051 8.384-4.483 10.95-6.523 9.13-8.789 15.913-19.842 21.313-31.23 13.168-28.277 15.028-60.023 14.737-90.612V954h33c.528 56.999 3.029 115.624 21.65 170.064 4.565 10.05 10.692 25.866 23.282 30.596 24.74 6.08 31.149-21.568 40.792-35.092 4.96-8.014 12.57-16.937 20.604-20.63 9.164-3.744 18.286-7.533 27.051-12.129 12.43-6.279 22.183-16.93 29.062-28.788 10.69-18.245 10.132-42.878 26.792-57.754 15.112-13.994 31.469-27.724 40.163-47.049 7.51-14.61 10.09-34.607 9.174-49.483-2.4-23.644-14.164-49.597-23.245-69.069-10.212-21.267-22.712-41.421-38.386-59.106-9.807-10.58-20.063-21.339-33.483-27.346-10.987-6.177-23.78-6.479-35.984-6.214-36.1 1.004-73.522-1.535-108.613 8.892-12.418 3.852-25.935 11.494-34.892 19.324-7.51 6.471-15.631 14.92-21.803 21.584-5.27 8.086-13.935 6.237-22.33 6.32-25.476 1.105-51.08-.338-76.51 1.473-42.211 3.154-85.388 15.547-117.299 44.882-15.015 14.178-27.531 31.152-34.51 50.73-4.274 9.996-6.287 20.699-7.707 31.408-1.06 5.724-.655 11.531-.982 17.294-.652 5.09-5.044 8.52-7.704 12.632-8.765 11.51-12.501 25.37-12.519 39.6 1.083 52.96 3.11 106.045 6.513 158.958.09 26.805 2.834 54.025-1.702 80.629-4.199 24.942-11.674 49.23-17.324 73.855-8.745 37.232-14.024 79.742 4.827 115.226 7.068 14.497 18.277 26.984 32.217 35.164 13.849 8.35 29.88 11.951 45.953 11.029 14.464.51 31.533-4.199 42.168-12.24 24.358-16.68 30.245-49.086 25.679-76.276-2.613-11.253-7.262-27.086-19.637-27.432-12.728-1.264-18.01 12.119-23.595 19.841-5.576 9.318-16.71 15.644-27.73 12.34-22.798-6.258-21.951-35.04-18.84-52.486 8.013-33.463 30.313-60.852 51.637-86.74 8.016-9.978 16.034-19.968 23.818-30.13 3.377-4.62 6.957-9.107 10.09-13.894 4.115-4.733 3.183-9.574 1.361-14.706-2.141-9.86-2.125-20.373.81-30.111 5.493-16.63 15.596-31.32 28.566-42.963 9.468-8.054 20.413-15.238 32.814-17.671 19.753-3.727 39.412 7.63 47.416 25.744 9.515 17.85 14.443 38.466 12.356 58.724m-92.91-7.24c.335 8.611 2.936 17.606 9.178 23.574 6.442 6.63 15.277 9.774 24.436 8.596 17.375-.623 30.456-17.066 29.096-33.92a83.7 83.7 0 0 0-4.127-26.14c-2.645-7.744-5.657-17.415-13.796-19.976-11.467-3.775-24.565 8.989-30.6 15.552-7.628 9.042-14.124 19.845-14.187 32.314m15.397-149.34c.61 10.727 5.698 20.784 15.413 25.935 9.515 6.167 22.108 3.833 30.282-3.512 11.603-9.068 14.335-28.75 2.944-39.21-11.126-13.454-29.335-13.095-40.02-1.238-5.296 4.505-7.478 11.397-8.62 18.024M1508 1354c20.783 2.546 41.464 6.57 62.51 6.607 20.86.778 41.77.247 62.628.07 9.955-.203 19.906-.393 29.857-.6 9.5.187 19.024-1.648 28.505-.793 3.799.242 6.63 4.85 9.2 7.986 18.692 25.597 30.903 55.459 42.655 84.642 10.895 27.43 15.255 56.808 23.617 84.987 3.521 11.295 6.495 24.22 16.037 32.281 9.232 7.824 24.043 1.56 32.828-3.112 9.767-4.693 17.818-12.12 26.145-18.857 6.908-6.427 14.364-15.758 15.847-24.558 3.273-19.04-5.522-40.895-11.956-56.496-13.945-30.619-27.274-62.293-32.484-95.77-4.096-26.188.158-52.782 4.728-78.52 3.873-18.612 8.59-37.054 15.381-54.827 2.715-6.542 4.953-13.269 7.79-19.76 1.933-5.6 6.236-11.66 6.403-17.269-.89-22.7-1.521-45.675-7.395-67.81-4.864-20.781-11.869-41.086-21.733-60.07-17.355-34.574-43.643-64.622-74.345-87.968-10.867-7.877-24.086-16.595-34.862-22.55-2.905-1.597-5.684-3.436-8.718-4.795-2.315-.88-5.877-3.23-7.746-1.504-5.16 10.394-9.544 21.34-16.87 30.548-12.854 16.25-29.978 29.073-41.218 46.68-7.598 13.57-8.902 29.968-17.622 43.01-11.17 20.138-30.196 34.732-50.573 44.638-10.792 5.326-22.34 9.951-30.453 19.194-7.625 8.303-12.215 18.861-19.161 27.648-5.796 8.7-12.893 16.952-23.193 20.352-16.416 5.687-35.283 1.753-48.947-8.558-11.828-8.983-22.404-24.604-25.855-37.826h-4c-8.434 32.408-36.5 67.645-67 76-.01 4.109 2.645 7.431 4.437 10.89 13.482 27.6 30.45 53.79 43.065 81.72-.426 6.92-3.812 13.324-5.273 20.041-16.094 52.582-32.921 104.944-48.855 157.56-6.07 19.281-12.887 38.49-16.334 58.484-2.856 16.999-5.692 39.006 1.327 54.038 6.307 16.658 24.846 19.604 38.793 19.39 12.741 1.2 30.787-.834 40.566-5.014 10.745-4.798 17.161-15.582 20.803-26.23 12.037-39.767 18.64-81.223 34.021-120.013 13.85-37.95 28.936-75.54 46.829-111.79.327-.66.51-1.353.621-2.076m143 491c11.061-30.194 22.529-60.63 30-92h-52.2c-6.339.225-13.893-.384-19.657.479-27.937 27.017-55.964 56.127-88.143 78.521.42 4.213 6.718 5.265 10.59 6.996 4.43 1.667 8.83 3.342 13.295 4.903 8.612 2.221 17.778.348 26.539 1.101zm-116 149h70v-125h-71v94.533c.544 9.802-.877 21.594 1 30.467m180 0h73v-125h-73z" style="fill:#ffe;fill-rule:evenodd;stroke:none"/><path d="M338 2761.5c387.06 1.426 774.925-.26 1162.15.5 387.224-.76 774.71.926 1161.85-.5-77.265-456.459-152.125-914.01-228.874-1370.691-28.417-170.851-56.988-341.657-85.4-512.497-12.491-74.824-24.942-149.684-37.431-224.508-5.828-35.176-11.741-70.32-17.569-105.492-3.54-17.097-4.968-34.714-9.072-51.664-1.3-3.941-8.915-3.966-11.797-5.85-133.175-44.44-266.372-88.79-399.558-133.193-116.482-38.867-233.005-77.647-349.48-116.505-6.56-1.974-12.94-4.527-19.527-6.382-6.558-1.31-12.878 2.396-19.017 4.029-100.339 33.452-200.674 66.889-301.01 100.324-87.802 29.33-175.659 58.504-263.446 87.829-38.52 12.817-77.015 25.657-115.52 38.495-18.005 5.974-35.995 12.026-54 18-8.822 2.95-17.652 5.903-26.471 8.83-4.346 1.012-8.371 2.451-8.57 8.208-90.761 544.76-181.624 1089.514-272.367 1634.27-35.423 208.458-69 418.87-104.891 626.797m110-99.125c1.338 1.806 1.523 3.492 1 5.625h2102c-.276-4.665-1.263-9.121-1.99-13.73-1.191-4.556-1.014-9.343-2.49-13.697.186-4.413-1.988-9.518-2.027-13.6-.735-4.304-1.461-9.11-2.168-13.042-.845-4.516-1.48-8.987-2.27-13.52-.77-4.338-1.33-8.464-2.143-12.781-.88-4.333-1.492-9.281-2.26-13.535-.285-4.182-1.817-8.848-2.095-12.742-.809-4.425-1.509-9.444-2.226-13.423-.784-4.42-1.43-8.713-2.239-13.197-.785-4.473-1.378-8.801-2.176-13.176-1.213-4.168-1.132-8.906-2.324-13.147-.128-4.384-1.767-8.709-1.984-12.736-.491-4.143-1.68-8.884-2.115-12.7-.674-4.154-1.442-8.785-2.086-12.584-.796-4.331-1.434-8.62-2.177-12.972-.663-3.765-1.332-8.364-2.08-12.453-.795-4.363-1.437-8.669-2.173-13.059-.843-3.47-1.075-8.154-2.065-12.276-1.211-4.189-.992-8.96-2.39-13.085.013-3.792-1.778-9.075-1.863-12.271-.222-3.978-1.867-8.332-2.08-12.928-.42-3.92-1.628-8.333-2.022-11.994-.645-4.12-1.51-8.764-2.06-12.465-.607-3.925-1.448-8.4-2.036-12.057-.712-4.116-1.418-8.745-2.048-12.433-.695-3.926-1.372-8.43-2.045-12.089-.728-4.082-1.38-8.719-2.037-12.378-.7-3.934-1.376-8.444-2.049-12.111-.75-4.217-1.297-8.268-2.04-12.39-.639-3.627-1.328-8.125-2.053-12.14-.637-3.583-1.283-8.2-2.033-12.345-.598-3.474-1.289-7.811-1.967-11.656-.71-4.04-1.241-7.917-1.947-11.858-.685-3.883-1.245-7.668-1.96-11.611-.722-4.052-1.24-7.923-1.951-11.889-.679-3.783-1.307-8.095-1.963-11.622-.685-3.945-1.344-8.376-1.955-11.91-.525-3.585-1.283-7.303-1.952-11.568-.61-3.96-1.437-8.399-1.965-11.943-.422-3.772-1.538-8.013-1.939-11.535-.347-3.856-1.785-8.885-1.979-12.006-1.69-7.501-2.164-15.254-4.056-22.801-.62-7.57-2.705-15.007-3.544-22.639-.845-3.437-1.073-8.112-1.828-10.941-.706-3.857-1.258-7.668-1.92-11.547-.623-3.65-1.234-7.683-1.823-11.028-.565-3.722-1.44-7.98-1.914-11.417-1.309-7.37-2.384-14.596-3.752-22.136-.534-3.825-1.279-7.547-1.825-11.28-1.052-3.844-.815-7.206-1.824-10.824-.642-3.684-1.124-7.213-1.761-10.803-.44-3.462-1.356-7.343-1.774-10.578-1.427-7.101-2.577-15.198-3.645-21.722-.895-3.665-.99-7.53-1.856-11.22-.554-3.186-1.112-7.017-1.731-10.479-1.607-7.1-1.906-14.4-3.804-21.358-.532-7.143-2.525-14.07-3.279-21.143-1.543-6.86-1.884-13.998-3.72-20.885-.362-6.912-2.566-13.639-3.204-20.61-1.175-6.887-2.222-13.594-3.486-20.645-.715-3.748-.934-6.703-1.676-10.346-1.4-5.95-1.843-13.87-3.634-20.4-.238-6.335-2.789-14.786-3.118-20.101-1.193-6.185-2.49-14.42-3.312-19.71-1.22-6.574-1.912-12.991-3.275-19.557-.584-3.354-1.1-6.897-1.674-10.264-1.058-6.007-1.964-12.396-3.31-19.622-.696-3.138-.966-7.353-1.59-9.86-1.156-6.497-2.14-12.891-3.265-19.524-1.061-5.978-2.122-13.445-3.237-19.069-.474-3.362-1.06-6.639-1.585-9.893-1.16-6.324-2.008-12.586-3.178-19.038-1.068-6.013-1.948-12.445-3.146-18.616-1.105-6.218-1.807-12.45-3.228-18.614-.605-6.207-2.127-12.597-2.952-18.581-.917-6.06-2.172-12.442-3.04-18.414-.9-6.097-2.17-12.07-3.032-18.207-.924-6.098-2.124-12.08-3.023-18.122-.966-6.011-2.104-12.222-2.988-18.04-.98-5.9-2.162-12.138-2.99-17.966-.95-5.969-2.122-11.85-2.999-17.872-1.009-5.778-1.858-11.482-2.92-17.2-1.232-5.916-1.566-11.989-3.14-17.701-.285-5.684-2.202-12.33-2.72-17.564-.756-5.413-1.885-11.168-2.79-16.74-1.161-5.643-1.597-11.165-2.774-16.828-.98-5.783-2.036-11.334-2.823-17.044-.895-5.655-2.011-11.222-2.833-16.923-.967-5.507-1.732-10.81-2.763-16.298-.831-5.415-1.937-11.806-2.747-16.719-1.246-5.41-1.605-10.964-2.752-16.522-.88-5.42-1.809-10.758-2.708-16.119-.881-5.359-1.869-11.437-2.694-16.26-.91-5.171-1.762-10.831-2.686-16.138-.84-5.25-1.77-10.406-2.62-15.602-.884-5.381-1.725-10.57-2.62-15.858-1.245-4.846-1.493-10.949-2.586-15.515-.91-5.163-1.621-10.122-2.587-15.267-.786-5.103-1.817-11.122-2.575-15.746-1.03-5-1.493-9.993-2.65-15.02-.465-5.096-1.658-9.902-2.356-14.97-.942-5.018-1.693-10.413-2.585-15.346-.707-4.982-1.641-9.78-2.462-14.805-1.182-4.901-1.182-10.009-2.668-14.716-.104-4.888-1.775-9.724-2.203-14.638-.847-4.85-1.528-9.467-2.406-14.305-.69-4.762-1.97-10.412-2.416-14.743-.758-4.362-1.477-8.979-2.404-14.154-1.187-4.71-1.084-9.643-2.571-14.16-.012-4.725-1.802-9.375-2.117-14.13-.825-4.724-1.478-9.246-2.342-13.956-1.262-4.553-1.062-9.469-2.54-13.942.302-4.297-2.037-9.18-1.965-13.193-.835-4.577-1.568-9.803-2.315-13.922-.784-4.568-1.522-9.014-2.308-13.65-1.116-4.467-1.353-9.374-2.282-13.685-.414-4.29-1.77-9.168-2.16-13.122-.734-4.303-1.46-9.11-2.168-13.042-.844-4.516-1.478-8.987-2.268-13.52-.771-4.338-1.332-8.464-2.144-12.781-1.233-4.188-.976-8.98-2.39-13.097-.912-8.279-3.07-16.43-4.058-24.68-.015-4.56-2.211-8.895-2.041-13.448-1.38-4.23-1.273-9.538-2.414-13.46-1.575-8.752-2.77-17.303-4.358-26.043-1.083-8.738-3.293-17.254-4.298-25.997-.541-3.945-1.54-9.746-2.156-12.987-1.427-8.312-2.77-16.673-4.189-24.973-1.632-8.11-2.649-17.596-4.173-25.026-1.492-8.23-2.601-16.278-4.093-24.508-1.373-8.079-2.627-15.921-4-24-1.383-7.649-2.64-16.48-3.908-23.492-1.479-7.79-2.426-15.685-3.905-23.474-1.274-7.668-2.578-15.372-3.833-23.038-1.26-6.86-1.696-15.272-4.599-21.038-116.922-39.067-234.213-78.033-351.2-117.11-87.833-29.245-175.637-58.57-263.47-87.816-16.523-5.49-33.033-11.048-49.561-16.514-7.795-2.66-15.653-5.168-23.447-7.829-3.802-1.15-7.54-2.932-11.597-2.869-15.39 2.919-29.764 10.263-44.923 14.164l-330.473 110.162a728329 728329 0 0 0-165 55c-27.532 9.157-55.037 18.35-82.56 27.514-13.816 4.63-27.646 9.203-41.447 13.829-6.847 2.277-13.7 4.535-20.522 6.84-3.53 1.115-7.02 2.39-10.544 3.518-1.618.358-3.515 1.505-4.77 1.98-.552.046-.527 1.012-1.118 1.68-.296.75-1.44.717-1.865 1.582.88 1.023 1.404 2.194.95 3.157.106 1.718-.586 2.317-1.95 2.843.88 1.023 1.404 2.194.95 3.157.106 1.718-.586 2.317-1.95 2.843.88 1.023 1.404 2.194.95 3.157.106 1.718-.586 2.317-1.95 2.843.88 1.023 1.404 2.194.95 3.157.106 1.718-.586 2.317-1.95 2.843.88 1.023 1.404 2.194.95 3.157.106 1.718-.586 2.317-1.95 2.843.88 1.023 1.404 2.194.95 3.157.106 1.718-.586 2.317-1.95 2.843.88 1.023 1.404 2.194.95 3.157.106 1.718-.586 2.317-1.95 2.843.88 1.023 1.404 2.194.95 3.157.106 1.718-.586 2.317-1.95 2.843.88 1.023 1.404 2.194.95 3.157.106 1.718-.586 2.317-1.95 2.843.88 1.023 1.404 2.194.95 3.157.106 1.718-.586 2.317-1.95 2.843.88 1.023 1.404 2.194.95 3.157.106 1.718-.586 2.317-1.95 2.843.88 1.023 1.404 2.194.95 3.157.106 1.718-.586 2.317-1.95 2.843.88 1.023 1.404 2.194.95 3.157.106 1.718-.586 2.317-1.95 2.843.88 1.023 1.404 2.194.95 3.157.106 1.718-.586 2.317-1.95 2.843.88 1.023 1.404 2.194.95 3.157.106 1.718-.586 2.317-1.95 2.843.88 1.023 1.404 2.194.95 3.157.106 1.718-.586 2.317-1.95 2.843.88 1.023 1.404 2.194.95 3.157.106 1.718-.586 2.317-1.95 2.843.88 1.023 1.404 2.194.95 3.157.106 1.718-.586 2.317-1.95 2.843.88 1.023 1.404 2.194.95 3.157.106 1.718-.586 2.317-1.95 2.843.88 1.023 1.404 2.194.95 3.157.106 1.718-.586 2.317-1.95 2.843.88 1.023 1.404 2.194.95 3.157.106 1.718-.586 2.317-1.95 2.843.88 1.023 1.404 2.194.95 3.157.106 1.718-.586 2.317-1.95 2.843.88 1.023 1.404 2.194.95 3.157.106 1.718-.586 2.317-1.95 2.843.88 1.023 1.404 2.194.95 3.157.106 1.718-.586 2.317-1.95 2.843.88 1.023 1.404 2.194.95 3.157.106 1.718-.586 2.317-1.95 2.843.88 1.023 1.404 2.194.95 3.157.106 1.718-.586 2.317-1.95 2.843.88 1.023 1.404 2.194.95 3.157.106 1.718-.586 2.317-1.95 2.843.88 1.023 1.404 2.194.95 3.157.106 1.718-.586 2.317-1.95 2.843.88 1.023 1.404 2.194.95 3.157.106 1.718-.586 2.317-1.95 2.843.88 1.023 1.404 2.194.95 3.157.106 1.718-.586 2.317-1.95 2.843.88 1.023 1.404 2.194.95 3.157.106 1.718-.586 2.317-1.95 2.843.88 1.023 1.404 2.194.95 3.157.106 1.718-.586 2.317-1.95 2.843.88 1.023 1.404 2.194.95 3.157.106 1.718-.586 2.317-1.95 2.843.88 1.023 1.404 2.194.95 3.157.106 1.718-.586 2.317-1.95 2.843.88 1.023 1.404 2.194.95 3.157.106 1.718-.586 2.317-1.95 2.843.88 1.023 1.404 2.194.95 3.157.106 1.718-.586 2.317-1.95 2.843.88 1.023 1.404 2.194.95 3.157.106 1.718-.586 2.317-1.95 2.843.88 1.023 1.404 2.194.95 3.157.106 1.718-.586 2.317-1.95 2.843.88 1.023 1.404 2.194.95 3.157.106 1.718-.586 2.317-1.95 2.843.88 1.023 1.404 2.194.95 3.157.106 1.718-.586 2.317-1.95 2.843.88 1.023 1.404 2.194.95 3.157.106 1.718-.586 2.317-1.95 2.843.88 1.023 1.404 2.194.95 3.157.106 1.718-.586 2.317-1.95 2.843.88 1.023 1.404 2.194.95 3.157.106 1.718-.586 2.317-1.95 2.843.88 1.023 1.404 2.194.95 3.157.106 1.718-.586 2.317-1.95 2.843.88 1.023 1.404 2.194.95 3.157.106 1.718-.586 2.317-1.95 2.843.88 1.023 1.404 2.194.95 3.157.106 1.718-.586 2.317-1.95 2.843.88 1.023 1.404 2.194.95 3.157.106 1.718-.586 2.317-1.95 2.843.88 1.023 1.404 2.194.95 3.157.106 1.718-.586 2.317-1.95 2.843.88 1.023 1.404 2.194.95 3.157.106 1.718-.586 2.317-1.95 2.843.88 1.023 1.404 2.194.95 3.157.106 1.718-.586 2.317-1.95 2.843.88 1.023 1.404 2.194.95 3.157.106 1.718-.586 2.317-1.95 2.843.88 1.023 1.404 2.194.95 3.157.106 1.718-.586 2.317-1.95 2.843.88 1.023 1.404 2.194.95 3.157.106 1.718-.586 2.317-1.95 2.843.88 1.023 1.404 2.194.95 3.157.106 1.718-.586 2.317-1.95 2.843.88 1.023 1.404 2.194.95 3.157.106 1.718-.586 2.317-1.95 2.843.88 1.023 1.404 2.194.95 3.157.106 1.718-.586 2.317-1.95 2.843.88 1.023 1.404 2.194.95 3.157.106 1.718-.586 2.317-1.95 2.843.88 1.023 1.404 2.194.95 3.157.106 1.718-.586 2.317-1.95 2.843.88 1.023 1.404 2.194.95 3.157.106 1.718-.586 2.317-1.95 2.843.88 1.023 1.404 2.194.95 3.157.106 1.718-.586 2.317-1.95 2.843.88 1.023 1.404 2.194.95 3.157.106 1.718-.586 2.317-1.95 2.843.88 1.023 1.404 2.194.95 3.157.106 1.718-.586 2.317-1.95 2.843.88 1.023 1.404 2.194.95 3.157.106 1.718-.586 2.317-1.95 2.843.88 1.023 1.404 2.194.95 3.157.106 1.718-.586 2.317-1.95 2.843.88 1.023 1.404 2.194.95 3.157.106 1.718-.586 2.317-1.95 2.843.88 1.023 1.404 2.194.95 3.157.106 1.718-.586 2.317-1.95 2.843.88 1.023 1.404 2.194.95 3.157.106 1.718-.586 2.317-1.95 2.843.88 1.023 1.404 2.194.95 3.157.106 1.718-.586 2.317-1.95 2.843.88 1.023 1.404 2.194.95 3.157.106 1.718-.586 2.317-1.95 2.843.88 1.023 1.404 2.194.95 3.157.106 1.718-.586 2.317-1.95 2.843.88 1.023 1.404 2.194.95 3.157.106 1.718-.586 2.317-1.95 2.843.88 1.023 1.404 2.194.95 3.157.106 1.718-.586 2.317-1.95 2.843.88 1.023 1.404 2.194.95 3.157.106 1.718-.586 2.317-1.95 2.843.88 1.023 1.404 2.194.95 3.157.106 1.718-.586 2.317-1.95 2.843.88 1.023 1.404 2.194.95 3.157.106 1.718-.586 2.317-1.95 2.843.88 1.023 1.404 2.194.95 3.157.106 1.718-.586 2.317-1.95 2.843.88 1.023 1.404 2.195.95 3.157.106 1.718-.586 2.317-1.95 2.843.88 1.023 1.404 2.195.95 3.157.106 1.718-.586 2.317-1.95 2.843.88 1.023 1.404 2.195.95 3.157.106 1.718-.586 2.317-1.95 2.843.88 1.023 1.404 2.195.95 3.157.106 1.718-.586 2.317-1.95 2.843.88 1.023 1.404 2.195.95 3.157.106 1.718-.586 2.317-1.95 2.843.88 1.023 1.404 2.195.95 3.157.106 1.718-.586 2.317-1.95 2.843.88 1.023 1.404 2.195.95 3.157.106 1.718-.586 2.317-1.95 2.843.88 1.023 1.404 2.195.95 3.157.106 1.718-.586 2.317-1.95 2.843.88 1.023 1.404 2.195.95 3.157.106 1.718-.586 2.317-1.95 2.843.88 1.023 1.404 2.195.95 3.157.106 1.718-.586 2.317-1.95 2.843.88 1.023 1.404 2.195.95 3.157.106 1.718-.586 2.317-1.95 2.843.88 1.023 1.404 2.195.95 3.157.106 1.718-.586 2.317-1.95 2.843.88 1.023 1.404 2.195.95 3.157.106 1.718-.586 2.317-1.95 2.843.88 1.023 1.404 2.195.95 3.157.106 1.718-.586 2.317-1.95 2.843.88 1.023 1.404 2.195.95 3.157.106 1.718-.586 2.317-1.95 2.843.88 1.023 1.404 2.195.95 3.157.106 1.718-.586 2.317-1.95 2.843.88 1.023 1.404 2.195.95 3.157.106 1.718-.586 2.317-1.95 2.843.88 1.023 1.404 2.195.95 3.157.106 1.718-.586 2.317-1.95 2.843.88 1.023 1.404 2.195.95 3.157.106 1.718-.586 2.317-1.95 2.843.88 1.023 1.404 2.195.95 3.157.106 1.718-.586 2.317-1.95 2.843.88 1.023 1.404 2.195.95 3.157.106 1.718-.586 2.317-1.95 2.843.88 1.023 1.404 2.195.95 3.157.106 1.718-.586 2.317-1.95 2.843.88 1.023 1.404 2.195.95 3.157.106 1.718-.586 2.317-1.95 2.843.88 1.023 1.404 2.195.95 3.157.106 1.718-.586 2.317-1.95 2.843.88 1.023 1.404 2.195.95 3.157.106 1.718-.586 2.317-1.95 2.843.88 1.023 1.404 2.195.95 3.157.106 1.718-.586 2.317-1.95 2.843.88 1.023 1.404 2.195.95 3.157.106 1.718-.586 2.317-1.95 2.843.88 1.023 1.404 2.195.95 3.157.106 1.718-.586 2.317-1.95 2.843.88 1.023 1.404 2.195.95 3.157.106 1.718-.586 2.317-1.95 2.843.88 1.023 1.404 2.195.95 3.157.106 1.718-.586 2.317-1.95 2.843.88 1.023 1.404 2.195.95 3.157.106 1.718-.586 2.317-1.95 2.843.88 1.023 1.404 2.195.95 3.157.106 1.718-.586 2.317-1.95 2.843.88 1.023 1.404 2.195.95 3.157.106 1.718-.586 2.317-1.95 2.843.88 1.023 1.404 2.195.95 3.157.106 1.718-.586 2.317-1.95 2.843.88 1.023 1.404 2.195.95 3.157.106 1.718-.586 2.317-1.95 2.843.88 1.023 1.404 2.195.95 3.157.106 1.718-.586 2.317-1.95 2.843.88 1.023 1.404 2.195.95 3.157.106 1.718-.586 2.317-1.95 2.843.88 1.023 1.404 2.195.95 3.157.106 1.718-.586 2.317-1.95 2.843.88 1.023 1.404 2.195.95 3.157.106 1.718-.586 2.317-1.95 2.843.88 1.023 1.404 2.195.95 3.157.106 1.718-.586 2.317-1.95 2.843.88 1.023 1.404 2.195.95 3.157.106 1.718-.586 2.317-1.95 2.843.88 1.023 1.404 2.195.95 3.157.106 1.718-.586 2.317-1.95 2.843.88 1.023 1.404 2.195.95 3.157.106 1.718-.586 2.317-1.95 2.843.88 1.023 1.404 2.195.95 3.157.106 1.718-.586 2.317-1.95 2.843.88 1.023 1.404 2.195.95 3.157.106 1.718-.586 2.317-1.95 2.843.88 1.023 1.404 2.195.95 3.157.106 1.718-.586 2.317-1.95 2.843.88 1.023 1.404 2.195.95 3.157.106 1.718-.586 2.317-1.95 2.843.88 1.023 1.404 2.195.95 3.157.106 1.718-.586 2.317-1.95 2.843.88 1.023 1.404 2.195.95 3.157.106 1.718-.586 2.317-1.95 2.843.88 1.023 1.404 2.195.95 3.157.106 1.718-.586 2.317-1.95 2.843.88 1.023 1.404 2.195.95 3.157.106 1.718-.586 2.317-1.95 2.843.88 1.023 1.404 2.195.95 3.157.106 1.718-.586 2.317-1.95 2.843.88 1.023 1.404 2.195.95 3.157.106 1.718-.586 2.317-1.95 2.843.88 1.023 1.404 2.195.95 3.157.106 1.718-.586 2.317-1.95 2.843.88 1.023 1.404 2.195.95 3.157.106 1.718-.586 2.317-1.95 2.843.88 1.023 1.404 2.195.95 3.157.106 1.718-.586 2.317-1.95 2.843.88 1.023 1.404 2.195.95 3.157.106 1.718-.586 2.317-1.95 2.843.88 1.023 1.404 2.195.95 3.157.106 1.718-.586 2.317-1.95 2.843.88 1.023 1.404 2.195.95 3.157.106 1.718-.586 2.317-1.95 2.843.88 1.023 1.404 2.195.95 3.157.106 1.718-.586 2.317-1.95 2.843.88 1.023 1.404 2.195.95 3.157.106 1.718-.586 2.317-1.95 2.843.88 1.023 1.404 2.195.95 3.157.106 1.718-.586 2.317-1.95 2.843.88 1.023 1.404 2.195.95 3.157.106 1.718-.586 2.317-1.95 2.843.88 1.023 1.404 2.195.95 3.157.106 1.718-.586 2.317-1.95 2.843.88 1.023 1.404 2.195.95 3.157.106 1.718-.586 2.317-1.95 2.843.88 1.023 1.404 2.195.95 3.157.106 1.718-.586 2.317-1.95 2.843.88 1.023 1.404 2.195.95 3.157.106 1.718-.586 2.317-1.95 2.843.88 1.023 1.404 2.195.95 3.157.106 1.718-.586 2.317-1.95 2.843.88 1.023 1.404 2.195.95 3.157.106 1.718-.586 2.317-1.95 2.843.88 1.023 1.404 2.195.95 3.157.106 1.718-.586 2.317-1.95 2.843.88 1.023 1.404 2.195.95 3.157.106 1.718-.586 2.317-1.95 2.843.88 1.023 1.404 2.195.95 3.157.106 1.718-.586 2.317-1.95 2.843.88 1.023 1.404 2.195.95 3.157.106 1.718-.586 2.317-1.95 2.843.88 1.023 1.404 2.195.95 3.157.106 1.718-.586 2.317-1.95 2.843.88 1.023 1.404 2.195.95 3.157.106 1.718-.586 2.317-1.95 2.843.88 1.023 1.404 2.195.95 3.157.106 1.718-.586 2.317-1.95 2.843.88 1.023 1.404 2.195.95 3.157.106 1.718-.586 2.317-1.95 2.843.88 1.023 1.404 2.195.95 3.157.106 1.718-.586 2.317-1.95 2.843.88 1.023 1.404 2.195.95 3.157.106 1.718-.586 2.317-1.95 2.843.88 1.023 1.404 2.195.95 3.157.106 1.718-.586 2.317-1.95 2.843.88 1.023 1.404 2.195.95 3.157.106 1.718-.586 2.317-1.95 2.843.88 1.023 1.404 2.195.95 3.157.106 1.718-.586 2.317-1.95 2.843.88 1.023 1.404 2.195.95 3.157.106 1.718-.586 2.317-1.95 2.843.88 1.023 1.404 2.195.95 3.157.106 1.718-.586 2.317-1.95 2.843.88 1.023 1.404 2.195.95 3.157.106 1.718-.586 2.317-1.95 2.843.88 1.023 1.404 2.195.95 3.157.106 1.718-.586 2.317-1.95 2.843.88 1.023 1.404 2.195.95 3.157.106 1.718-.586 2.317-1.95 2.843.88 1.023 1.404 2.195.95 3.157.106 1.718-.586 2.317-1.95 2.843.88 1.023 1.404 2.195.95 3.157.106 1.718-.586 2.317-1.95 2.843.88 1.023 1.404 2.195.95 3.157.106 1.718-.586 2.317-1.95 2.843.88 1.023 1.404 2.195.95 3.157.106 1.718-.586 2.317-1.95 2.843.88 1.023 1.404 2.195.95 3.157.106 1.718-.586 2.317-1.95 2.843.88 1.023 1.404 2.195.95 3.157.106 1.718-.586 2.317-1.95 2.843.88 1.023 1.404 2.195.95 3.157.106 1.718-.586 2.317-1.95 2.843.88 1.023 1.404 2.195.95 3.157.106 1.718-.586 2.317-1.95 2.843.88 1.023 1.404 2.195.95 3.157.106 1.718-.586 2.317-1.95 2.843.88 1.023 1.404 2.195.95 3.157.106 1.718-.586 2.317-1.95 2.843.88 1.023 1.404 2.195.95 3.157.106 1.718-.586 2.317-1.95 2.843.88 1.023 1.404 2.195.95 3.157.106 1.718-.586 2.317-1.95 2.843.88 1.023 1.404 2.195.95 3.157.106 1.718-.586 2.317-1.95 2.843.88 1.023 1.404 2.195.95 3.157.106 1.718-.586 2.317-1.95 2.843.88 1.023 1.404 2.195.95 3.157.106 1.718-.586 2.317-1.95 2.843.88 1.023 1.404 2.195.95 3.157.106 1.718-.586 2.317-1.95 2.843.88 1.023 1.404 2.195.95 3.157.106 1.718-.586 2.317-1.95 2.843.88 1.023 1.404 2.195.95 3.157.106 1.718-.586 2.317-1.95 2.843.88 1.023 1.404 2.195.95 3.157.106 1.718-.586 2.317-1.95 2.843.88 1.023 1.404 2.195.95 3.157.106 1.718-.586 2.317-1.95 2.843.88 1.023 1.404 2.195.95 3.157.106 1.718-.586 2.317-1.95 2.843.88 1.023 1.404 2.195.95 3.157.106 1.718-.586 2.317-1.95 2.843.88 1.023 1.404 2.195.95 3.157.106 1.718-.586 2.317-1.95 2.843.88 1.023 1.404 2.195.95 3.157.106 1.718-.586 2.317-1.95 2.843.88 1.023 1.404 2.195.95 3.157.106 1.718-.586 2.317-1.95 2.843.88 1.023 1.404 2.195.95 3.157.106 1.718-.586 2.317-1.95 2.843.88 1.023 1.404 2.195.95 3.157.106 1.718-.586 2.317-1.95 2.843.88 1.023 1.404 2.195.95 3.157.106 1.718-.586 2.317-1.95 2.843.88 1.023 1.404 2.195.95 3.157.106 1.718-.586 2.317-1.95 2.843.88 1.023 1.404 2.195.95 3.157.106 1.718-.586 2.317-1.95 2.843.88 1.023 1.404 2.195.95 3.157.106 1.718-.586 2.317-1.95 2.843.88 1.023 1.404 2.195.95 3.157.106 1.718-.586 2.317-1.95 2.843.88 1.023 1.404 2.195.95 3.157.106 1.718-.586 2.317-1.95 2.843.88 1.023 1.404 2.195.95 3.157.106 1.718-.586 2.317-1.95 2.843.88 1.023 1.404 2.195.95 3.157.106 1.718-.586 2.317-1.95 2.843.88 1.023 1.404 2.195.95 3.157.106 1.718-.586 2.317-1.95 2.843.88 1.023 1.404 2.195.95 3.157.106 1.718-.586 2.317-1.95 2.843.88 1.023 1.404 2.195.95 3.157.106 1.718-.586 2.317-1.95 2.843.88 1.023 1.404 2.195.95 3.157.106 1.718-.586 2.317-1.95 2.843.88 1.023 1.404 2.195.95 3.157.106 1.718-.586 2.317-1.95 2.843.88 1.023 1.404 2.195.95 3.157.106 1.718-.586 2.317-1.95 2.843.88 1.023 1.404 2.195.95 3.157.106 1.718-.586 2.317-1.95 2.843.88 1.023 1.404 2.195.95 3.157.106 1.718-.586 2.317-1.95 2.843.88 1.023 1.404 2.195.95 3.157.106 1.718-.586 2.317-1.95 2.843.88 1.023 1.404 2.195.95 3.157.106 1.718-.586 2.317-1.95 2.843.88 1.023 1.404 2.195.95 3.157.106 1.718-.586 2.317-1.95 2.843.88 1.023 1.404 2.195.95 3.157.106 1.718-.586 2.317-1.95 2.843.88 1.023 1.404 2.195.95 3.157.106 1.718-.586 2.317-1.95 2.843.88 1.023 1.404 2.195.95 3.157.106 1.718-.586 2.317-1.95 2.843.88 1.023 1.404 2.195.95 3.157.106 1.718-.586 2.317-1.95 2.843.88 1.023 1.404 2.195.95 3.157.106 1.718-.586 2.317-1.95 2.843.88 1.023 1.404 2.195.95 3.157.106 1.718-.586 2.317-1.95 2.843.88 1.023 1.404 2.195.95 3.157.106 1.718-.586 2.317-1.95 2.843.88 1.023 1.404 2.195.95 3.157.106 1.718-.586 2.317-1.95 2.843.88 1.023 1.404 2.195.95 3.157.106 1.718-.586 2.317-1.95 2.843.88 1.023 1.404 2.195.95 3.157.106 1.718-.586 2.317-1.95 2.843.88 1.023 1.404 2.195.95 3.157.106 1.718-.586 2.317-1.95 2.843.88 1.023 1.404 2.195.95 3.157.106 1.718-.586 2.317-1.95 2.843.88 1.023 1.404 2.195.95 3.157.106 1.718-.586 2.317-1.95 2.843.88 1.023 1.404 2.195.95 3.157.106 1.718-.586 2.317-1.95 2.843.88 1.023 1.404 2.195.95 3.157.106 1.718-.586 2.317-1.95 2.843.88 1.023 1.404 2.195.95 3.157.106 1.718-.586 2.317-1.95 2.843.88 1.023 1.404 2.195.95 3.157.106 1.718-.586 2.317-1.95 2.843.88 1.023 1.404 2.195.95 3.157.106 1.718-.586 2.317-1.95 2.843.88 1.023 1.404 2.195.95 3.157.106 1.718-.586 2.317-1.95 2.843.88 1.023 1.404 2.195.95 3.157.106 1.718-.586 2.317-1.95 2.843.88 1.023 1.404 2.195.95 3.157.106 1.718-.586 2.317-1.95 2.843.88 1.023 1.404 2.195.95 3.157.106 1.718-.586 2.317-1.95 2.843.88 1.023 1.404 2.195.95 3.157.106 1.718-.586 2.317-1.95 2.843.88 1.023 1.404 2.195.95 3.157.106 1.718-.586 2.317-1.95 2.843.88 1.023 1.404 2.195.95 3.157.106 1.718-.586 2.317-1.95 2.843.88 1.023 1.404 2.195.95 3.157.106 1.718-.586 2.317-1.95 2.843.88 1.023 1.404 2.195.95 3.157.106 1.718-.586 2.317-1.95 2.843.88 1.023 1.404 2.195.95 3.157.106 1.718-.586 2.317-1.95 2.843.88 1.023 1.404 2.195.95 3.157.106 1.718-.586 2.317-1.95 2.843.88 1.023 1.404 2.195.95 3.157.106 1.718-.586 2.317-1.95 2.843.88 1.023 1.404 2.195.95 3.157.106 1.718-.586 2.317-1.95 2.843.88 1.023 1.404 2.195.95 3.157.106 1.718-.586 2.317-1.95 2.843.88 1.023 1.404 2.195.95 3.157.106 1.718-.586 2.317-1.95 2.843.88 1.023 1.404 2.195.95 3.157.106 1.718-.586 2.317-1.95 2.843.88 1.023 1.404 2.195.95 3.157.106 1.718-.586 2.317-1.95 2.843.88 1.023 1.404 2.195.95 3.157.106 1.718-.586 2.317-1.95 2.843.88 1.023 1.404 2.195.95 3.157.106 1.718-.586 2.317-1.95 2.843.88 1.023 1.404 2.195.95 3.157.106 1.718-.586 2.317-1.95 2.843.88 1.023 1.404 2.195.95 3.157.106 1.718-.586 2.317-1.95 2.843.88 1.023 1.404 2.195.95 3.157.106 1.718-.586 2.317-1.95 2.843.88 1.023 1.404 2.195.95 3.157.106 1.718-.586 2.317-1.95 2.843.88 1.023 1.404 2.195.95 3.157.106 1.718-.586 2.317-1.95 2.843.88 1.023 1.404 2.195.95 3.157.106 1.718-.586 2.317-1.95 2.843.88 1.023 1.404 2.195.95 3.157.106 1.718-.586 2.317-1.95 2.843.88 1.023 1.404 2.195.95 3.157.106 1.718-.586 2.317-1.95 2.843.88 1.023 1.404 2.195.95 3.157.106 1.718-.586 2.317-1.95 2.843.88 1.023 1.404 2.195.95 3.157.106 1.718-.586 2.317-1.95 2.843.88 1.023 1.404 2.195.95 3.157.106 1.718-.586 2.317-1.95 2.843.88 1.023 1.404 2.195.95 3.157.106 1.718-.586 2.317-1.95 2.843.88 1.023 1.404 2.195.95 3.157.106 1.718-.586 2.317-1.95 2.843.88 1.023 1.404 2.195.95 3.157.106 1.718-.586 2.317-1.95 2.843.88 1.023 1.404 2.195.95 3.157.106 1.718-.586 2.317-1.95 2.843.88 1.023 1.404 2.195.95 3.157.106 1.718-.586 2.317-1.95 2.843.88 1.023 1.404 2.195.95 3.157.106 1.718-.586 2.317-1.95 2.843.88 1.023 1.404 2.195.95 3.157.106 1.718-.586 2.317-1.95 2.843.88 1.023 1.404 2.195.95 3.157.106 1.718-.586 2.317-1.95 2.843.88 1.023 1.404 2.195.95 3.157.106 1.718-.586 2.317-1.95 2.843.88 1.023 1.404 2.195.95 3.157.106 1.718-.586 2.317-1.95 2.843.88 1.023 1.404 2.195.95 3.157.106 1.718-.586 2.317-1.95 2.843.88 1.023 1.404 2.195.95 3.157.106 1.718-.586 2.317-1.95 2.843.88 1.023 1.404 2.195.95 3.157.106 1.718-.586 2.317-1.95 2.843.88 1.023 1.404 2.195.95 3.157.106 1.718-.586 2.317-1.95 2.843.88 1.023 1.404 2.195.95 3.157.106 1.718-.586 2.317-1.95 2.843.88 1.023 1.404 2.195.95 3.157.106 1.718-.586 2.317-1.95 2.843.88 1.023 1.404 2.195.95 3.157.106 1.718-.586 2.317-1.95 2.843.88 1.023 1.404 2.195.95 3.157.106 1.718-.586 2.317-1.95 2.843.88 1.023 1.404 2.195.95 3.157.106 1.718-.586 2.317-1.95 2.843.88 1.023 1.404 2.195.95 3.157.106 1.718-.586 2.317-1.95 2.843.88 1.023 1.404 2.195.95 3.157.106 1.718-.586 2.317-1.95 2.843.88 1.023 1.404 2.195.95 3.157.106 1.718-.586 2.317-1.95 2.843.88 1.023 1.404 2.195.95 3.157.106 1.718-.586 2.317-1.95 2.843.88 1.023 1.404 2.195.95 3.157.106 1.718-.586 2.317-1.95 2.843.88 1.023 1.404 2.195.95 3.157.106 1.718-.586 2.317-1.95 2.843.88 1.023 1.404 2.195.95 3.157.106 1.718-.586 2.317-1.95 2.843.88 1.023 1.404 2.195.95 3.157.106 1.718-.586 2.317-1.95 2.843.88 1.023 1.404 2.195.95 3.157.106 1.718-.586 2.317-1.95 2.843.88 1.023 1.404 2.195.95 3.157.106 1.718-.586 2.317-1.95 2.843.88 1.023 1.404 2.195.95 3.157.106 1.718-.585 2.317-1.95 2.843.88 1.023 1.404 2.195.95 3.157.106 1.718-.585 2.317-1.95 2.843.88 1.023 1.404 2.195.95 3.157.106 1.718-.585 2.317-1.95 2.843.88 1.023 1.404 2.195.95 3.157.106 1.718-.585 2.317-1.95 2.843.88 1.023 1.404 2.195.95 3.157.106 1.718-.585 2.317-1.95 2.843.88 1.023 1.404 2.195.95 3.157.106 1.718-.585 2.317-1.95 2.843.88 1.023 1.404 2.195.95 3.157.106 1.718-.585 2.317-1.95 2.843.88 1.023 1.404 2.195.95 3.157.106 1.718-.585 2.317-1.95 2.843.88 1.023 1.404 2.195.95 3.157.106 1.718-.585 2.317-1.95 2.843.88 1.023 1.404 2.195.95 3.157.106 1.718-.585 2.317-1.95 2.843.88 1.023 1.404 2.195.95 3.157.106 1.718-.585 2.317-1.95 2.843.88 1.023 1.404 2.195.95 3.157.106 1.718-.585 2.317-1.95 2.843.88 1.023 1.404 2.195.95 3.157.106 1.718-.585 2.317-1.95 2.843.88 1.023 1.404 2.195.95 3.157.106 1.718-.585 2.317-1.95 2.843.88 1.023 1.404 2.195.95 3.157.106 1.718-.585 2.317-1.95 2.843.88 1.023 1.404 2.195.95 3.157.106 1.718-.585 2.317-1.95 2.843.88 1.023 1.404 2.195.95 3.157.106 1.718-.585 2.317-1.95 2.843.88 1.023 1.404 2.195.95 3.157.106 1.718-.585 2.317-1.95 2.843.88 1.023 1.404 2.195.95 3.157.106 1.718-.585 2.317-1.95 2.843.88 1.023 1.404 2.195.95 3.157.106 1.718-.585 2.317-1.95 2.843.88 1.023 1.404 2.195.95 3.157.106 1.718-.585 2.317-1.95 2.843.88 1.023 1.404 2.195.95 3.157.106 1.718-.585 2.317-1.95 2.843.88 1.023 1.404 2.195.95 3.157.106 1.718-.585 2.317-1.95 2.843.88 1.023 1.404 2.195.95 3.157.106 1.718-.585 2.317-1.95 2.843.88 1.023 1.404 2.195.95 3.157.106 1.718-.585 2.317-1.95 2.843.88 1.023 1.404 2.195.95 3.157.106 1.718-.585 2.317-1.95 2.843.88 1.023 1.404 2.195.95 3.157.106 1.718-.585 2.317-1.95 2.843.88 1.023 1.404 2.195.95 3.157.106 1.718-.585 2.317-1.95 2.843.88 1.023 1.404 2.195.95 3.157.106 1.718-.585 2.317-1.95 2.843.88 1.023 1.404 2.195.95 3.157.106 1.718-.585 2.317-1.95 2.843.88 1.023 1.404 2.195.95 3.157.106 1.718-.585 2.317-1.95 2.843.88 1.023 1.404 2.195.95 3.157.106 1.718-.585 2.317-1.95 2.843.88 1.023 1.404 2.195.95 3.157.106 1.718-.585 2.317-1.95 2.843.88 1.023 1.404 2.195.95 3.157.106 1.718-.585 2.317-1.95 2.843.88 1.023 1.404 2.195.95 3.157.106 1.718-.585 2.317-1.95 2.843.88 1.023 1.404 2.195.95 3.157.106 1.718-.585 2.317-1.95 2.843.88 1.023 1.404 2.195.95 3.157.106 1.718-.585 2.317-1.95 2.843.88 1.023 1.404 2.195.95 3.157.106 1.718-.585 2.317-1.95 2.843.88 1.023 1.404 2.195.95 3.157.106 1.718-.585 2.317-1.95 2.843.88 1.023 1.404 2.195.95 3.157.106 1.718-.585 2.317-1.95 2.843.88 1.023 1.404 2.195.95 3.157.106 1.718-.585 2.317-1.95 2.843.88 1.023 1.404 2.195.95 3.157.106 1.718-.585 2.317-1.95 2.843.88 1.023 1.404 2.195.95 3.157.106 1.718-.585 2.317-1.95 2.843.88 1.023 1.404 2.195.95 3.157.106 1.718-.585 2.317-1.95 2.843.88 1.023 1.404 2.195.95 3.157.106 1.718-.585 2.317-1.95 2.843.88 1.023 1.404 2.195.95 3.157.106 1.718-.585 2.317-1.95 2.843.88 1.023 1.404 2.195.95 3.157.106 1.718-.585 2.317-1.95 2.843.88 1.023 1.404 2.195.95 3.157.106 1.718-.585 2.317-1.95 2.843.88 1.023 1.404 2.195.95 3.157.106 1.718-.585 2.317-1.95 2.843.88 1.023 1.404 2.195.95 3.157.106 1.718-.585 2.317-1.95 2.843.88 1.023 1.404 2.195.95 3.157.106 1.718-.585 2.317-1.95 2.843.88 1.023 1.404 2.195.95 3.157.106 1.718-.585 2.317-1.95 2.843.88 1.023 1.404 2.195.95 3.157.106 1.718-.585 2.317-1.95 2.843.88 1.023 1.404 2.195.95 3.157.106 1.718-.585 2.317-1.95 2.843.88 1.023 1.404 2.195.95 3.157.106 1.718-.585 2.317-1.95 2.843.88 1.023 1.404 2.195.95 3.157.106 1.718-.585 2.317-1.95 2.843.88 1.023 1.404 2.195.95 3.157.106 1.718-.585 2.317-1.95 2.843.88 1.023 1.404 2.195.95 3.157.106 1.718-.585 2.317-1.95 2.843.88 1.023 1.404 2.195.95 3.157.106 1.718-.585 2.317-1.95 2.843.88 1.023 1.404 2.195.95 3.157.106 1.718-.585 2.317-1.95 2.843.88 1.023 1.404 2.195.95 3.157.106 1.718-.585 2.317-1.95 2.843.88 1.023 1.404 2.195.95 3.157.106 1.718-.585 2.317-1.95 2.843.877 1.023 1.4 2.185.943 3.142.19 1.9-.228 2.148-1.943 2.358zm612-764.875c2.184 4.079 10.067 1.677 13.528 2.5H1150v-3h-45.6c-14.803-.206-29.661.54-44.4-1zm26 377c.05.544.222 1.035.5 1.5l14.5-14.5c-2.381-.72-4.158 1.425-5.92 2.78-1.856 1.548-3.813 2.982-5.444 4.773-1.204 1.492-2.93 3.361-3.636 5.447m2-1247c.554-.48 1.357-.494 2-.5v-11c-2.756.13-3.167 2.654-2.906 4.524.196 2.344.592 4.652.906 6.976m3 26.5v-6c-2.485.01-3.471 2-2.745 4.038A3.03 3.03 0 0 0 1091 1054m1 20v-6c-2.485.01-3.471 2-2.745 4.038A3.03 3.03 0 0 0 1092 1074m1 19v-6c-2.485.01-3.471 2-2.745 4.038A3.03 3.03 0 0 0 1093 1093m2 38v-6c-2.485.01-3.471 2-2.745 4.038A3.03 3.03 0 0 0 1095 1131m1 20v-6c-2.485.01-3.471 2-2.745 4.038A3.03 3.03 0 0 0 1096 1151m-1 29h2v-9c-2.561.085-3.194 2.169-2.808 4.168.213 1.612.638 3.224.808 4.832m49.5-326 6.5-6.5c-2.666-1.114-6.668 1.752-6.772 3.969-.2.865-.143 1.734.272 2.531m16.5 653c-.23-2.697-2.708-3.047-4.844-2.966-1.728-.152-3.82 1.596-1.995 2.661 2.21.603 4.587.109 6.839.305m33 1014.25c.416 1.78 3.095 1.753 4.418 1.75H1204v-2c-3.301-1.29-6.68-.758-10 0zm93-1722.844c.863 2.217 4.749 1.283 6.573 1.594H1300c-.408-3.012-4.24-4.01-6.674-3.525-1.97.495-4.948.908-6.326 1.931m5 1061.094c-1.555-2.717-.668-7.154-1-10.69v-149.226c.862-6.604-1.196-14.797 1-20.084-.972-.384-1.963-.51-3-.5-1.497 7.118-.836 14.346-1 21.744v142.272c.008 3.385-.011 6.74.01 10.111-.06 2.518-.167 7.188 3.99 6.373m-1 116.5v-76h59.4c6.27.88 14.115-1.214 19.1 1 .447-1.292.517-2.65.5-4h-71.4c-3.503-.3-7.1-.107-10.173 2.378-1.088 13.195.092 26.6-.427 39.821v19.743c.014 3.406-.018 6.78.013 10.181.129 2.378-.12 6.073 2.987 6.877m-1.5 515c2.517-3.522.95-9.777 1.5-14.545v-463.023c.582-4.07-1.131-9.909 2-10.932v-1.5c-1.03-1.49-2.386-1.919-4-2-2.086 8.013-.248 19.687-1 29.571v434.571c.993 9.163-1.493 20.549 1.5 27.858m63.5-837.75c.459 1.8 2.888 1.771 4.403 1.75H1362c-.305-2.685-3.261-3.214-5.224-2.852-1.283.166-2.525.588-3.776.852zm26.5-452.25 9.5-9.5c-3.341-1.283-6.873 3.3-8.455 5.272-1.028 1.218-1.554 2.72-1.045 4.228m37.5 853.5v1.5h27v-2c-8.847-1.868-18.056-.466-27-1zm9-1058c.554-.48 1.357-.494 2-.5v-8c-2.695.064-3.27 2.205-2.805 4.274.217 1.415.54 2.834.805 4.226m63-252.5c-.23-2.697-2.708-3.047-4.844-2.966-1.728-.152-3.82 1.596-1.995 2.661 2.21.603 4.587.108 6.839.305m35-2.75c.92 2.14 4.383 1.527 6.854 1.75H1546c-.623-3.039-4.314-2.863-6.7-2.992-5.064.25-10.325.265-15.3 1.242m34 653c.047.678.167 1.205.75 1.75h6.25v98h2v-82.8c-.181-4.444.277-9.696-.29-13.739-.009-4.604-6.033-4.964-8.71-3.211m20 390.25c.05.544.222 1.035.5 1.5l14.5-14.5c-3.898-1.597-8.393 3.831-10.612 6.022-1.506 2.245-3.794 4.579-4.388 6.978m14 734.75c.43 1.802 3.1 1.735 4.43 1.75h6.57c-.322-2.684-3.301-3.111-5.254-2.886-1.934.13-3.834.674-5.746.886zm65-965.25h2v-16h-2c-.134 4.879-2.045 10.29 0 16m129 441v-2h-70v-123h-2v98c.321 8.015-.484 17.569.489 24.865 1.058 2.713 6.163 1.675 8.258 2.135zm1 48.5v1.5h13.2c2.41-.006 4.805.007 7.201-.004 1.81-.224 4.704.339 5.599-.996-2.547-3.27-9.384-1.31-12.749-2H1787zm64 392.875c1.316 1.713 3.076 3.002 4.5 4.625 1.333-1.305 2.204-3.348 2.5-5-2.345.794-4.642.367-7 0zm8-859.125c.047.678.167 1.205.75 1.75 4.777-2.842 7.9-8.084 12.25-11.5-3.63-1.013-7.279 3.964-10.172 6.434-.766 1.085-1.812 2.34-2.828 3.316m84 575.75c-.343-2.799-3.508-3.118-5.505-3-1.578-.1-3.097.356-4.495 1 .184 1.778 2.422 2.07 3.877 2zm7-3c2.055-.342 3.695-2.249 5-3.5-1.638-1.432-3.224-3.56-5-4.5.464 2.69.985 5.345 0 8" style="fill:#747472;fill-rule:evenodd;stroke:none"/><path d="M1060 1222c-3.962 40.491-20.561 78.61-25.496 118.934-4.146 31.128-1.115 63.456 12.164 92.166 18.103 40.187 57.2 71.054 102.152 73.455 11.007-.226 21.87.09 33.299-2.292 32.446-5.75 60-29.041 72.801-59.093 9.312-22.624 11.155-52.688 5.283-74.352-4.823-17.467-14.286-34.82-29.521-45.325-12.336-8.043-27.637-6.297-40.333-.655-3.266 1.834-11.864 3.631-10.655-3.494 3.75-17.61 15.826-31.985 26.39-45.952 11.116-13.614 21.747-27.573 32.148-41.735 2.205-2.682 4.087-6.342 6.268-8.657 7.62 5.263 15.712 10.62 25.222 12.181 10.353 1.891 22.77.332 32.278-.181-4.59 28.388-11.292 57.073-8.715 86.056 3.727 26.405 23.793 51.954 40.715 68.444-8.977 27.853-17.82 56.049-26.202 84.139a556 556 0 0 0-17.67 64.193c-3.429 16.877-4.027 37.346-2.43 53.051 2.579 23.948 16.94 47.446 40.613 55.766 5.921 2.57 12.206 4.297 18.609 5.063 18.32 1.784 36.63 2.32 55.313-2.551 16.272-3.233 31.279-11.97 41.586-24.969 15.738-19.995 21.833-45.264 27.727-69.366 6.335-24.637 12.526-49.394 20.524-73.556 10.411-30.982 21.807-62.054 38.43-90.27 5.291 1.484 10.833 1.431 16.298 1.757 5.124.193 9.977.874 14.713-.26 5.984-.593 4.036 9.15 4.489 12.197-.718 39.646 2.02 79.656-3.902 119.017-1.962 14.428-3.76 29.026-2.868 43.61.57 13.346 10.008 21.376 21.481 23.842 10.99 2.607 24.53 1.803 34.784 1.467 16.518-1.214 37.604-5.694 41.436-28.562 1.236-53.997 5.524-111.253 26.569-162.068 18.463 35.804 32.756 73.911 42.037 113.129 3.874 14.919 8.018 29.853 13.66 44.215 8.147 20.589 24.047 49.452 53.456 46.656 19.471.863 41.185-9.094 55.155-19.486 6.068-3.981 11.405-8.826 15.892-14.501 2.07-2.141 4.596-4.267 6.8-5.91 17.857-16.212 26.764-41.72 22.66-65.599-3.505-24.197-12.963-46.984-23.342-68.909-9.954-24.256-19.655-49.116-22.178-75.47-2.242-27.082 3.487-54.222 9.445-80.396 3.424-12.466 7.211-24.881 12.415-36.729 7.144 11.455 19.308 22.329 28.476 30.479 4.558 3.675 10.234 6.436 10.094 14.135 2.789 23.03 20.807 39.958 38.195 53.068 13.364 10.172 28.746 17.076 44.76 21.82 12.785 4.094 26.51 4.186 39.761 3.01 4.851.037 9.324-2.132 11.726-6.414.125-8.262-9.207-14.561-13.465-20.422-17.457-16.833-25.195-40.949-41.093-58.959-12.14-14.361-31.772-17.763-49.408-18.393-8.74-.293-13.935-11.033-19.782-16.057-5.923-6.116-11.047-12.962-16.298-19.637-6.342-9.115-14.214-17.807-19.013-27.82-2.137-13.059-1.531-26.464-3.915-39.517-6.618-45.367-21.614-89.65-47.092-128.043-18.822-27.647-41.328-53.143-68.475-72.987-9.697-6.995-21.166-15.194-30.68-20.671-9.264-5.59-18.878-10.505-28.582-15.277-5.67-2.064-4.77-8.396-4.736-13.295-.799-18.535-6.878-36.433-13.336-53.629-19.32-49.28-46.986-98.908-91.219-130.137-11.224-7.946-24.32-12.926-37.879-14.964-13.076-1.842-26.294-.94-39.449-.678-43.59 1.157-89.88.956-129.608 21.81-8.89 5.127-17.46 10.801-25.046 17.75-6.004 4.57-11.255 12.975-17.604 15.884-12.898 2.305-26.331-.103-39.34.944-13.184.064-26.322.721-39.492 1-3.526-15.525-12.675-29.965-25.044-40-12.907-10.712-29.647-15.297-46.124-15.889-17.367-.27-34.776.837-52.004 2.944-12.593 2.294-25.514 3.303-37.788 7.114-16.388 5.781-32.466 19.224-43.773 30.064-12.127 12.84-24.442 26.787-29.84 43.982-1.966 5.803-1.316 12.027-1.427 18.02-.265 22.592 2.595 45.072 4.098 67.56 1.545 16.77 2.875 33.548 3.746 50.366-.446 49.937-25.012 97.432-21.844 147.839-15.18-1.29-35.472-6.591-48.424 8.014-11.776 11.91-13.702 29.653-8.683 44.999 8.726 27.02 31.52 46.175 53.025 62.917 15.228 10.46 30.005 22.715 47.082 30.07m-.5-37c1.255-20.88-.422-42.14-1.5-63-10.091-3.71-20.227-7.585-30.746-10.07-7.739-2.293-15.5-4.535-23.524-5.567-4.998-.606-12.696-1.533-15.116 4.899-7.118 15.523 13.09 33.85 22.781 41.862 10.91 9.63 23.214 17.438 35.68 24.803 3.551 2.33 8.527 4.619 12.425 7.073m105 1004c1.426 111.152-.26 222.76.5 334 19.179-.135 37.787.32 56.269-3.042 13.423-2.087 26.23-6.642 38.919-11.242 8.824-3.481 17.555-7.567 25.019-13.485 6.102-3.97 3.424-13.925 3.793-21.725v-450.349c.752-7.625-1.252-17.117 1.5-23.157 13.023 28.684 22.805 59.51 27.62 90.787 2.08 12.225 2.425 24.664 2.873 37.018-.153 5.903 3.977 8.594 8.08 11.506 14.724 12.446 35.39 16.768 53.57 10.124 27.878-10.715 40.955-44.55 33.37-72.291-7.364-27.373-26.83-49.743-49.629-65.826-16.5-11.625-34.734-20.566-53.466-27.945-6.341-2.585-12.874-4.602-19.262-7.035-6.488-1.573-4.275-12.203-4.656-16.766v-48.351c.79-3.731-1.13-8.654 1.265-11.28 1.953-2.394 6.049-1.728 8.82-1.941H1369c-.527 5.483-7.63 8.527-10.73 12.246-4.185 3.663-8.526 7.122-12.27 11.254 2.308 2.392 4.1 5.186 6.5 7.5 10.334-5.458 22.299-7.988 32.674-13.554 10.902-4.124 20.907-10.458 31.826-14.446v153c7.148.245 15.6-.344 22.138.298 11.125 2.517 24.817-.292 35.078-1.164 16.918-2.613 33.006-8.919 47.334-18.187 3.683-2.227 7.145-4.856 10.03-8.06 2.554-1.573 3.447-5.894 5.227-7.236 10.256-1.55 20.854.032 31.193-.651v1.5c-59.904 67.169-131.823 125.78-214 163.5.68 4.658 5.543 8.656 6 13 36.42-9.488 72.28-20.779 107.807-33.147 17.917-6.643 35.795-13.359 53.41-20.745 16.582-5.81 32.853-15.164 48.783-21.608-31.399 35.89-66.135 68.712-103.55 98.343-36.685 27.865-74.202 56.178-116.45 75.157.533 4.12 3.663 9.205 5.5 12 43.82-11.854 87.356-25.172 129.595-41.89 41.556-16.777 83.395-33.875 122.405-56.11.235.488.42.968.5 1.5-39.478 42.757-82.182 82.606-128.37 118.034-22.704 16.99-45.435 34.03-69.676 48.784-24.282 15.901-50.437 28.575-75.954 42.182.784 3.329 3.421 6.54 4.89 9.192 2.247 2.582 7.89-1.033 10.438-.664 66.994-15.158 131.925-39.238 194.077-68.227 14.701-7.745 29.998-14.451 44.425-22.697 6.976-3.722 13.73-7.837 20.71-11.536 6.751-3.396 13.96-9.139 20.46-11.568-.366 18.349-1.39 36.82-4.7 54.903-3.008 11.79-4.701 29.022-14.818 34.747-9.79 3.778-22.617 1.703-31.918 2.25-31.253-.373-62.335-4.434-93.564-4.9v9c12.891 3.74 25.647 8.363 37.864 13.95 8.784 4.209 17.695 8.44 25.121 14.841 10.766 9.981 17.828 23.376 21.797 37.354 4.676 14.563 4.815 29.825 6.218 44.855 11.014-.424 24.884-.97 37.48-1.195 21.986-1.35 44.03-4.114 65.153-10.572 15.34-4.039 28.913-12.842 39.263-24.749 15.193-17.77 22.643-40.63 27.31-63.051 4.855-24.541 5.845-49.63 4.372-74.563-5.204-97.255-52.512-191.314-127.578-253.37 33.016-20.779 64.498-44.226 92.5-71.5 11.34 100.862 22.054 204.953 64.585 298.735 10.176 22.471 22.009 44.17 35.538 64.763 9.564 15.654 21.03 30.124 32.376 44.503 2.326 2.266 4.692 6.564 7.332 7.07 4.147 1.787 5.278-3.021 6.545-5.764 15.883-44.872 53.579-84.459 102.124-92.307-.335-2.988 1.16-6.39.148-9.666-7.13-5.478-15.558-9.395-23.082-14.353-52.986-35.117-103.064-76.46-139.066-129.481 22.53-5.306 44.955-11.774 67.203-18.282 11.446-3.181 22.709-6.94 33.939-10.77 5.668-1.703 11.165-3.963 16.722-5.958 2.744-1.422 4.98-1.237 7.485.037 2.611.98 6.007 1.079 8.151 2.473 3.372-3.957 7.616-.028 10.643-.724 2.66-.197 6.182-1.615 7.477-4.299 2.617-4.252-3.593-7.177-5.716-9.59-3.132-3.076-6.7-5.676-9.799-8.781-25.166-22.043-49.639-44.876-74.804-66.9-4.553-3.112-8.135-9.266-14.301-11.706-8.087 19.328-19.565 37.299-29.748 55.585-11.012 17.939-21.722 36.145-33.752 53.415-26.043-42.867-43.786-90.846-53.5-140 18.943-1.842 38.014-.492 57-1v24h15.6c4.209-.614 8.75 1.061 12.605 1.34 16.586-.87 32.931-3.922 48.99-8.158 11.751-3.124 23.524-6.467 34.876-10.834 3.855-1.82 8.926-3.312 11.8-6.117 2.838-2.892 1.95-8.098 2.129-11.766v-108.439c-.153-4.339-.013-8.628.5-12.91.99-2.143 4.701-2.35 6.941-3.492 6.587-3.156 15.599-6.486 20.559-14.124-36.279-26.947-72.892-54.137-109.5-80.5-9.097 9.532-17.833 19.4-27.428 28.466-6.524 7.724-13.764 14.77-20.869 21.948-4.426 7.223-14.716 5.773-22.093 5.586h-37.777c-11.733-.391-25.663.724-36.333-1 1-3.14 6.113-4.074 9.116-5.984 25.912-11.527 49.844-27.044 74.348-41.184 12.167-7.324 24.256-14.818 36.17-22.522 10.836-7.246 30.525-1.255 39.366-14.81-35.119-31.963-72.426-61.494-107.5-93.5-15.372 14.576-29.692 30.155-44.37 45.37-7.683 7.505-15.912 18.87-25.969 17.63-11.63-.646-23.658.812-35.161-.5 10.147-11.47 19.065-23.962 28.261-36.175 4.302-6.206 15.281-3.466 23.007-5.694 8.639-1.21 13.313-6.325 16.732-13.131-46.855-10.874-94.375-19.857-141.354-30.354-6.05-1.375-12.139-2.417-18.12-4.044-4.925-1.145-12.176-3.326-13.832 1.675-10.343 34.355-23.935 67.702-40.884 99.342-24.138 44.486-51.617 87.152-84.31 125.881-22.178-25.165-45.636-49.48-69.5-73-8.213 9.97-13.278 22.514-20.903 32.972-5.727 11.398-15.644 23.202-20.097 34.028a5 5 0 0 1-2-.5c-1.555-2.717-.668-7.154-1-10.69v-127.049c.866-13.113-1.2-28.848 1-40.761 14.333-.844 33.665-6.816 35-27-53.079-4.494-106.639-9.693-159.5-15-1.426 78.54.26 157.4-.5 236h-111v1.5c3.174 6.935 3.61 16.593 7.5 22.5 28.556-.037 58.621.037 87.5 0 1.064 6.244-.64 12.588-.898 18.888-9.953 91.713-25.773 183.034-53.302 271.211-7.144 21.545-14.987 42.88-24.584 63.455-3.49 7.878-7.098 15.676-11.144 23.281-1.507 3.385-3.833 7.14-4.917 10.363-1.29 2.72 2.075 5.39 4.235 7.64 5.1 5.618 10.716-1.846 14.742-5.384 34.239-29.074 63.187-63.553 91.368-98.454M1347 1182h1.5c30.036-23.958 41.335-64.195 43.052-100.992 1.27-42.652-.225-85.345.448-128.008h35c.276 56.29 3.172 113.665 20.872 168.15 4.67 11.446 11.303 26.192 22.093 31.71 22.072 9.871 33.129-22.568 41.055-34.795 5.1-8.112 12.932-17.037 21.218-20.536 9.215-3.667 18.36-7.49 27.083-12.217 12.092-6.426 21.686-16.92 28.342-28.701 10.52-18.159 9.96-42.598 26.57-57.344 15.024-13.873 31.147-27.491 39.923-46.576 7.454-14.402 10.458-34.164 9.32-48.904-2.642-23.477-14.333-49.276-23.404-68.623-10.073-20.925-22.407-40.765-37.783-58.214-9.962-10.894-20.514-21.798-34.225-27.929-5.515-3.162-11.712-4.58-17.941-5.488-5.155-1.496-10.269-3.392-15.814-2.387-9.426 1.636-18.893 2.514-28.469 1.854-6.655-.254-14.545 1.154-20.348-.502-19.156 4.138-40.36 1.795-59.132 9.228-12.585 3.888-26.339 11.513-35.393 19.49-7.51 6.471-15.631 14.92-21.803 21.584-5.282 8.112-13.962 6.238-22.367 6.2-12.791-.113-25.595.268-38.36.73-2.884-.239-7.424.718-9.551-.7-3.933-2.287-8.077-.734-12.182.559-4.515.722-9.134.151-13.653.711-22.016 2.276-44.54 4.64-65.309 12.941-29.01 9.912-54.49 28.024-72.718 52.255-9.051 12.659-16.46 26.668-20.356 41.842-2.152 7.843-3.497 15.882-4.301 23.972-.532 8.08 1.458 16.204-6.097 23.332-4.95 6.1-8.348 13.181-11.196 20.432-5.157 12.61-2.31 26.392-3.332 39.427-2.186 6.467-.257 12.475.253 18.174-.197 6.178.926 14.281-.995 18.825 2.437 2.739 1.841 6.666 2.027 10.102.515 3.484.367 7.053-1.027 9.898 2.442 2.745 1.8 6.646 2.132 10.075.735 3.827.267 5.718-1.132 8.925 3.634 4.5 1.606 13.06 2.755 19.505.144 6.116 1.145 14.018-.755 18.495 2.554 2.892 1.754 7.082 2.106 10.667.726 3.924.343 5.977-1.106 9.333 2.973 3.277 1.592 9.537 2.064 14.299.957 18.703 1.376 37.195.488 56.474-2.725 34.1-14.656 66.59-21.377 99.934-6.543 27.99-8.074 62.633-.218 88.04 6.974 22.947 23.044 44.304 44.997 54.727 19.969 10.063 47.71 10.279 66.718 3.149 18.176-6.42 31.86-22.586 37.057-40.854 4.51-16.277 4.54-37.424-1.018-52.007-2.416-5.614-5.512-13.981-13.568-15.92-15.57-2.843-19.865 16.931-28.762 24.758-7.916 9.753-25.86 10.295-34.102 2.599-17.499-14.144-12.519-43.98-6.713-61.848 10.826-28.93 30.29-53.392 49.847-76.86 9.476-12.12 19.376-23.926 28.382-36.401 2.487-3.06 4.382-6.652 6.515-9.884.24-5.516-2.692-11.263-2.586-16.917-.816-6.067.05-12.186.871-18.203 3.59-17.751 14.506-33.374 27.138-45.818 9.02-8.976 22.264-16.852 33.532-19.847 9.777-2.014 22.143-.745 30.304 3.368 13.837 6.655 21.794 21.168 26.991 34.88 5.225 14.49 8.344 30.377 6.44 45.831m-92.838-5.994c-.187 17.373 15.123 33.23 32.859 30.846 16.395-1.483 28.725-16.726 27.722-32.923-.037-8.737-1.55-17.328-4.226-25.628-2.257-7.44-6.182-17.053-13.142-19.252-10.954-3.574-23.262 9.458-29.097 15.397-7.399 8.89-13.988 19.445-14.116 31.56m13.307-149.519c.627 17.084 16.728 37.45 39.252 28.385 15.036-5.24 22.715-23.013 17.03-37.618-5.16-14.878-23.875-23.202-38.023-16.487-10.528 3.994-17.502 14.62-18.259 25.72M1508.5 1352c32.273 7.696 66.472 8.236 99.618 8 15.574-.003 31.113-.538 46.673-.787 7.396-.087 14.756-.38 22.128-.809 6.248-.09 15.752-1.655 19.922 2.1 14.871 17.184 26.61 41.709 35.23 60.5 8.799 19.248 16.007 39.182 22.025 59.447 4.544 18.322 8.048 36.89 13.73 54.914 3.825 13.87 10.356 35.326 25.442 36.326 13.918-.042 27.88-10.299 37.71-17.163 9.593-7.168 18.513-15.752 23.953-26.566 4.404-9.874 1.599-22.861-.056-32.063-3.518-18.56-13.936-34.7-20.228-52.222-11.22-26.467-20.824-54.137-23.525-82.925-1.15-29.68 2.582-59.318 10.188-88.01 3.48-13.046 7.761-28.425 12.524-39.89 2.128-5.916 4.484-11.755 6.863-17.573 1.807-5.415 5.832-10.34 5.928-16.26-.803-44.473-8.914-89.43-30.562-128.864-19.554-37.631-49.421-69.836-84.662-93.247-11.63-8.378-24.249-15.312-36.901-21.908-7.26 15.3-14.754 30.997-27.11 43.094-10.57 11.109-22.058 21.604-30.883 34.216-6.722 11.444-8.563 24.977-14.362 36.808-9.78 20.84-27.045 37.626-47.329 48.305-15.155 8.105-33.224 13.866-42.723 29.436-6.918 10.572-13.652 21.306-21.787 31-14.234 15.586-39.201 16.645-57.267 7.616-16.978-8.623-29.835-25.274-35.039-43.475h-2c-1.548 9.101-6.948 17.065-10.69 25.321-3.011 5.697-6.391 11.236-10.311 16.345-2.817 4.55-6.795 7.997-10.896 11.276-8.902 10.767-21.172 19.572-35.103 23.058 13.651 27.907 29.633 54.879 43.814 82.56 1.802 2.775 3.822 6.79 4.686 9.33-16.569 54.148-33.466 108.38-50.325 162.47-5.597 20.23-12.87 39.976-18.098 60.292-4.49 17.873-7.523 39.803-4.707 56.59 1.775 16.197 16.598 28.598 32.674 28.613 14.238.51 28.74 1.119 42.664-2.807 11.734-3.128 19.689-13.139 24.145-23.862 8.02-20.626 11.003-42.78 17.207-63.918 7.705-31.006 17.984-61.325 29.817-90.977 11.828-28.32 22.722-57.432 37.623-84.291m13.5 481.375c3.769 2.932 9.919 3.628 13.768 5.76 4.317 1.475 9.27 3.83 13.407 4.588 33.576.79 67.238-.144 100.825.277 11.879-29.11 20.721-59.523 30-89.5-17.349-1.392-34.999.225-52.417-.5-5.719.987-13.164-1.44-18.916 1.36-3.796 3.166-6.394 7.615-10.27 10.742-5.63 5.333-13.873 8.906-18.521 17.224-16.64 17.722-40.106 36.424-57.876 50.049M1536 1993h68v-123h-69v92.824c.509 9.716-.842 21.377 1 30.176m251 0v-123h-36.6c-11.291 1.07-25.277-1.403-35.4 1v97.08c.423 7.777-.655 17.197.697 24.21 1.508 2.417 6.443 1.23 8.652 1.71h32.174c9.81-.543 21.597.877 30.477-1" style="fill:#666;fill-rule:evenodd;stroke:none"/><path d="M450 2665v-4h-3c-.021 1.773.535 4.08 3 4m1-6v-4h-3c-.021 1.773.535 4.08 3 4m1-6v-4h-3c-.021 1.773.535 4.08 3 4m1-6v-4h-3c-.021 1.773.535 4.08 3 4m1-6v-4h-3c-.021 1.773.535 4.08 3 4m1-6v-4h-3c-.021 1.773.535 4.08 3 4m1-6v-4h-3c-.021 1.773.535 4.08 3 4m1-6v-4h-3c-.021 1.773.535 4.08 3 4m1-6v-4h-3c-.021 1.773.535 4.08 3 4m1-6v-4h-3c-.021 1.773.535 4.08 3 4m1-6v-4h-3c-.021 1.773.535 4.08 3 4m1-6v-4h-3c-.021 1.773.535 4.08 3 4m1-6v-4h-3c-.021 1.773.535 4.08 3 4m1-6v-4h-3c-.021 1.773.535 4.08 3 4m1-6v-4h-3c-.021 1.773.535 4.08 3 4m1-6v-4h-3c-.021 1.773.535 4.08 3 4m1-6v-4h-3c-.021 1.773.535 4.08 3 4m1-6v-4h-3c-.021 1.773.535 4.08 3 4m1-6v-4h-3c-.021 1.773.535 4.08 3 4m1-6v-4h-3c-.021 1.773.535 4.08 3 4m1-6v-4h-3c-.021 1.773.535 4.08 3 4m1-6v-4h-3c-.021 1.773.535 4.08 3 4m1-6v-4h-3c-.021 1.773.535 4.08 3 4m1-6v-4h-3c-.021 1.773.535 4.08 3 4m1-6v-4h-3c-.021 1.773.535 4.08 3 4m1-6v-4h-3c-.021 1.773.535 4.08 3 4m1-6v-4h-3c-.021 1.773.535 4.08 3 4m1-6v-4h-3c-.021 1.773.535 4.08 3 4m1-6v-4h-3c-.021 1.773.535 4.08 3 4m1-6v-4h-3c-.021 1.773.535 4.08 3 4m1-6v-4h-3c-.021 1.773.535 4.08 3 4m1-6v-4h-3c-.021 1.773.535 4.08 3 4m1-6v-4h-3c-.021 1.773.535 4.08 3 4m1-6v-4h-3c-.021 1.773.535 4.08 3 4m1-6v-4h-3c-.021 1.773.535 4.08 3 4m1-6v-4h-3c-.021 1.773.535 4.08 3 4m1-6v-4h-3c-.021 1.773.535 4.08 3 4m1-6v-4h-3c-.021 1.773.535 4.08 3 4m1-6v-4h-3c-.021 1.773.535 4.08 3 4m1-6v-4h-3c-.021 1.773.535 4.08 3 4m1-6v-4h-3c-.021 1.773.535 4.08 3 4m1-6v-4h-3c-.021 1.773.535 4.08 3 4m1-6v-4h-3c-.021 1.773.535 4.08 3 4m1-6v-4h-3c-.021 1.773.535 4.08 3 4m1-6v-4h-3c-.021 1.773.535 4.08 3 4m1-6v-4h-3c-.021 1.773.535 4.08 3 4m1-6v-4h-3c-.021 1.773.535 4.08 3 4m1-6v-4h-3c-.021 1.773.535 4.08 3 4m1-6v-4h-3c-.021 1.773.535 4.08 3 4m1-6v-4h-3c-.021 1.773.535 4.08 3 4m1-6v-4h-3c-.021 1.773.535 4.08 3 4m1-6v-4h-3c-.021 1.773.535 4.08 3 4m1-6v-4h-3c-.021 1.773.535 4.08 3 4m1-6v-4h-3c-.021 1.773.535 4.08 3 4m1-6v-4h-3c-.021 1.773.535 4.08 3 4m1-6v-4h-3c-.021 1.773.535 4.08 3 4m1-6v-4h-3c-.021 1.773.535 4.08 3 4m1-6v-4h-3c-.021 1.773.535 4.08 3 4m1-6v-4h-3c-.021 1.773.535 4.08 3 4m1-6v-4h-3c-.021 1.773.535 4.08 3 4m1-6v-4h-3c-.021 1.773.535 4.08 3 4m1-6v-4h-3c-.021 1.773.535 4.08 3 4m1-6v-4h-3c-.021 1.773.535 4.08 3 4m1-6v-4h-3c-.021 1.773.535 4.08 3 4m1-6v-4h-3c-.021 1.773.535 4.08 3 4m1-6v-4h-3c-.021 1.773.535 4.08 3 4m1-6v-4h-3c-.021 1.773.535 4.08 3 4m1-6v-4h-3c-.021 1.773.535 4.08 3 4m1-6v-4h-3c-.021 1.773.535 4.08 3 4m1-6v-4h-3c-.021 1.773.535 4.08 3 4m1-6v-4h-3c-.021 1.773.535 4.08 3 4m1-6v-4h-3c-.021 1.773.535 4.08 3 4m1-6v-4h-3c-.021 1.773.535 4.08 3 4m1-6v-4h-3c-.021 1.773.535 4.08 3 4m1-6v-4h-3c-.021 1.773.535 4.08 3 4m1-6v-4h-3c-.021 1.773.535 4.08 3 4m1-6v-4h-3c-.021 1.773.535 4.08 3 4m1-6v-4h-3c-.021 1.773.535 4.08 3 4m1-6v-4h-3c-.021 1.773.535 4.08 3 4m1-6v-4h-3c-.021 1.773.535 4.08 3 4m1-6v-4h-3c-.021 1.773.535 4.08 3 4m1-6v-4h-3c-.021 1.773.535 4.08 3 4m1-6v-4h-3c-.021 1.773.535 4.08 3 4m1-6v-4h-3c-.021 1.773.535 4.08 3 4m1-6v-4h-3c-.021 1.773.535 4.08 3 4m1-6v-4h-3c-.021 1.773.535 4.08 3 4m1-6v-4h-3c-.021 1.773.535 4.08 3 4m1-6v-4h-3c-.021 1.773.535 4.08 3 4m1-6v-4h-3c-.021 1.773.535 4.08 3 4m1-6v-4h-3c-.021 1.773.535 4.08 3 4m1-6v-4h-3c-.021 1.773.535 4.08 3 4m1-6v-4h-3c-.021 1.773.535 4.08 3 4m1-6v-4h-3c-.021 1.773.535 4.08 3 4m1-6v-4h-3c-.021 1.773.535 4.08 3 4m1-6v-4h-3c-.021 1.773.535 4.08 3 4m1-6v-4h-3c-.021 1.773.535 4.08 3 4m1-6v-4h-3c-.021 1.773.535 4.08 3 4m1-6v-4h-3c-.021 1.773.535 4.08 3 4m1-6v-4h-3c-.021 1.773.535 4.08 3 4m1-6v-4h-3c-.021 1.773.535 4.08 3 4m1-6v-4h-3c-.021 1.773.535 4.08 3 4m1-6v-4h-3c-.021 1.773.535 4.08 3 4m1-6v-4h-3c-.021 1.773.535 4.08 3 4m1-6v-4h-3c-.021 1.773.535 4.08 3 4m1-6v-4h-3c-.021 1.773.535 4.08 3 4m1-6v-4h-3c-.021 1.773.535 4.08 3 4m1-6v-4h-3c-.021 1.773.535 4.08 3 4m1-6v-4h-3c-.021 1.773.535 4.08 3 4m1-6v-4h-3c-.021 1.773.535 4.08 3 4m1-6v-4h-3c-.021 1.773.535 4.08 3 4m1-6v-4h-3c-.021 1.773.535 4.08 3 4m1-6v-4h-3c-.021 1.773.535 4.08 3 4m1-6v-4h-3c-.021 1.773.535 4.08 3 4m1-6v-4h-3c-.021 1.773.535 4.08 3 4m1-6v-4h-3c-.021 1.773.535 4.08 3 4m1-6v-4h-3c-.021 1.773.535 4.08 3 4m1-6v-4h-3c-.021 1.773.535 4.08 3 4m1-6v-4h-3c-.021 1.773.535 4.08 3 4m1-6v-4h-3c-.021 1.773.535 4.08 3 4m1-6v-4h-3c-.021 1.773.535 4.08 3 4m1-6v-4h-3c-.021 1.773.535 4.08 3 4m1-6v-4h-3c-.021 1.773.535 4.08 3 4m1-6v-4h-3c-.021 1.773.535 4.08 3 4m1-6v-4h-3c-.021 1.773.535 4.08 3 4m1-6v-4h-3c-.021 1.773.535 4.08 3 4m1-6v-4h-3c-.021 1.773.535 4.08 3 4m1-6v-4h-3c-.021 1.773.535 4.08 3 4m1-6v-4h-3c-.021 1.773.535 4.08 3 4m1-6v-4h-3c-.021 1.773.535 4.08 3 4m1-6v-4h-3c-.021 1.773.535 4.08 3 4m1-6v-4h-3c-.021 1.773.535 4.08 3 4m1-6v-4h-3c-.021 1.773.535 4.08 3 4m1-6v-4h-3c-.021 1.773.535 4.08 3 4m1-6v-4h-3c-.021 1.773.535 4.08 3 4m1-6v-4h-3c-.021 1.773.535 4.08 3 4m1-6v-4h-3c-.021 1.773.535 4.08 3 4m1-6v-4h-3c-.021 1.773.535 4.08 3 4m1-6v-4h-3c-.021 1.773.535 4.08 3 4m1-6v-4h-3c-.021 1.773.535 4.08 3 4m1-6v-4h-3c-.021 1.773.535 4.08 3 4m1-6v-4h-3c-.021 1.773.535 4.08 3 4m1-6v-4h-3c-.021 1.773.535 4.08 3 4m1-6v-4h-3c-.021 1.773.535 4.08 3 4m1-6v-4h-3c-.021 1.773.535 4.08 3 4m1-6v-4h-3c-.021 1.773.535 4.08 3 4m1-6v-4h-3c-.021 1.773.535 4.08 3 4m1-6v-4h-3c-.021 1.773.535 4.08 3 4m1-6v-4h-3c-.021 1.773.535 4.08 3 4m1-6v-4h-3c-.021 1.773.535 4.08 3 4m1-6v-4h-3c-.021 1.773.535 4.08 3 4m1-6v-4h-3c-.021 1.773.535 4.08 3 4m1-6v-4h-3c-.021 1.773.535 4.08 3 4m1-6v-4h-3c-.021 1.773.535 4.08 3 4m1-6v-4h-3c-.021 1.773.535 4.08 3 4m1-6v-4h-3c-.021 1.773.535 4.08 3 4m1-6v-4h-3c-.021 1.773.535 4.08 3 4m1-6v-4h-3c-.021 1.773.535 4.08 3 4m1-6v-4h-3c-.021 1.773.535 4.08 3 4m1-6v-4h-3c-.021 1.773.535 4.08 3 4m1-6v-4h-3c-.021 1.773.535 4.08 3 4m1-6v-4h-3c-.021 1.773.535 4.08 3 4m1-6v-4h-3c-.021 1.773.535 4.08 3 4m1-6v-4h-3c-.021 1.773.535 4.08 3 4m1-6v-4h-3c-.021 1.773.535 4.08 3 4m1-6v-4h-3c-.021 1.773.535 4.08 3 4m1-6v-4h-3c-.021 1.773.535 4.08 3 4m1-6v-4h-3c-.021 1.773.535 4.08 3 4m1-6v-4h-3c-.021 1.773.535 4.08 3 4m1-6v-4h-3c-.021 1.773.535 4.08 3 4m1-6v-4h-3c-.021 1.773.535 4.08 3 4m1-6v-4h-3c-.021 1.773.535 4.08 3 4m1-6v-4h-3c-.021 1.773.535 4.08 3 4m1-6v-4h-3c-.021 1.773.535 4.08 3 4m1-6v-4h-3c-.021 1.773.535 4.08 3 4m1-6v-4h-3c-.021 1.773.535 4.08 3 4m1-6v-4h-3c-.021 1.773.535 4.08 3 4m1-6v-4h-3c-.021 1.773.535 4.08 3 4m1-6v-4h-3c-.021 1.773.535 4.08 3 4m1-6v-4h-3c-.021 1.773.535 4.08 3 4m1-6v-4h-3c-.021 1.773.535 4.08 3 4m1-6v-4h-3c-.021 1.773.535 4.08 3 4m1-6v-4h-3c-.021 1.773.535 4.08 3 4m1-6v-4h-3c-.021 1.773.535 4.08 3 4m1-6v-4h-3c-.021 1.773.535 4.08 3 4m1-6v-4h-3c-.021 1.773.535 4.08 3 4m1-6v-4h-3c-.021 1.773.535 4.08 3 4m1-6v-4h-3c-.021 1.773.535 4.08 3 4m1-6v-4h-3c-.021 1.773.535 4.08 3 4m1-6v-4h-3c-.021 1.773.535 4.08 3 4m1-6v-4h-3c-.021 1.773.535 4.08 3 4m1-6v-4h-3c-.021 1.773.535 4.08 3 4m1-6v-4h-3c-.021 1.773.535 4.08 3 4m1-6v-4h-3c-.021 1.773.535 4.08 3 4m1-6v-4h-3c-.021 1.773.535 4.08 3 4m1-6v-4h-3c-.021 1.773.535 4.08 3 4m1-6v-4h-3c-.021 1.773.535 4.08 3 4m1-6v-4h-3c-.021 1.773.535 4.08 3 4m1-6v-4h-3c-.021 1.773.535 4.08 3 4m1-6v-4h-3c-.021 1.773.535 4.08 3 4m1-6v-4h-3c-.021 1.773.535 4.08 3 4m1-6v-4h-3c-.021 1.773.535 4.08 3 4m1-6v-4h-3c-.021 1.773.535 4.08 3 4m1-6v-4h-3c-.021 1.773.535 4.08 3 4m1-6v-4h-3c-.021 1.773.535 4.08 3 4m1-6v-4h-3c-.021 1.773.535 4.08 3 4m1-6v-4h-3c-.021 1.773.535 4.08 3 4m1-6v-4h-3c-.021 1.773.535 4.08 3 4m1-6v-4h-3c-.021 1.773.535 4.08 3 4m1-6v-4h-3c-.021 1.773.535 4.08 3 4m1-6v-4h-3c-.021 1.773.535 4.08 3 4m1-6v-4h-3c-.021 1.773.535 4.08 3 4m1-6v-4h-3c-.021 1.773.535 4.08 3 4m1-6v-4h-3c-.021 1.773.535 4.08 3 4m1-6v-4h-3c-.021 1.773.535 4.08 3 4m1-6v-4h-3c-.021 1.773.535 4.08 3 4m1-6v-4h-3c-.021 1.773.535 4.08 3 4m1-6v-4h-3c-.021 1.773.535 4.08 3 4m1-6v-4h-3c-.021 1.773.535 4.08 3 4m1-6v-4h-3c-.021 1.773.535 4.08 3 4m1-6v-4h-3c-.021 1.773.535 4.08 3 4m1-6v-4h-3c-.021 1.773.535 4.08 3 4m1-6v-4h-3c-.021 1.773.535 4.08 3 4m1-6v-4h-3c-.021 1.773.535 4.08 3 4m1-6v-4h-3c-.021 1.773.535 4.08 3 4m1-6v-4h-3c-.021 1.773.535 4.08 3 4m1-6v-4h-3c-.021 1.773.535 4.08 3 4m1-6v-4h-3c-.021 1.773.535 4.08 3 4m1-6v-4h-3c-.021 1.773.535 4.08 3 4m1-6v-4h-3c-.021 1.773.535 4.08 3 4m1-6v-4h-3c-.021 1.773.535 4.08 3 4m1-6v-4h-3c-.021 1.773.535 4.08 3 4m1-6v-4h-3c-.021 1.773.535 4.08 3 4m1-6v-4h-3c-.021 1.773.535 4.08 3 4m1-6v-4h-3c-.021 1.773.535 4.08 3 4m1-6v-4h-3c-.021 1.773.535 4.08 3 4m1-6v-4h-3c-.021 1.773.535 4.08 3 4m1-6v-4h-3c-.021 1.773.535 4.08 3 4m1-6v-4h-3c-.021 1.773.535 4.08 3 4m1-6v-4h-3c-.021 1.773.535 4.08 3 4m1-6v-4h-3c-.021 1.773.535 4.08 3 4m1-6v-4h-3c-.021 1.773.535 4.08 3 4m1-6v-4h-3c-.021 1.773.535 4.08 3 4m1-6v-4h-3c-.021 1.773.535 4.08 3 4m1-6v-4h-3c-.021 1.773.535 4.08 3 4m1-6v-4h-3c-.021 1.773.535 4.08 3 4m1-6v-4h-3c-.021 1.773.535 4.08 3 4m1-6v-4h-3c-.021 1.773.535 4.08 3 4m1-6v-4h-3c-.021 1.773.535 4.08 3 4m1-6v-4h-3c-.021 1.773.535 4.08 3 4m1-6v-4h-3c-.021 1.773.535 4.08 3 4m1-6v-4h-3c-.021 1.773.535 4.08 3 4m1-6v-4h-3c-.021 1.773.535 4.08 3 4m1-6v-4h-3c-.021 1.773.535 4.08 3 4m1-6v-4h-3c-.021 1.773.535 4.08 3 4m1-6v-4h-3c-.021 1.773.535 4.08 3 4m1-6v-4h-3c-.021 1.773.535 4.08 3 4m1-6v-4h-3c-.021 1.773.535 4.08 3 4m1-6v-4h-3c-.021 1.773.535 4.08 3 4m1-6v-4h-3c-.021 1.773.535 4.08 3 4m1-6v-4h-3c-.021 1.773.535 4.08 3 4m1-6v-4h-3c-.021 1.773.535 4.08 3 4m1-6v-4h-3c-.021 1.773.535 4.08 3 4m1-6v-4h-3c-.021 1.773.535 4.08 3 4m1-6v-4h-3c-.021 1.773.535 4.08 3 4m1-6v-4h-3c-.021 1.773.535 4.08 3 4m1-6v-4h-3c-.021 1.773.535 4.08 3 4m1-6v-4h-3c-.021 1.773.535 4.08 3 4m1-6v-4h-3c-.021 1.773.535 4.08 3 4m1-6v-4h-3c-.021 1.773.535 4.08 3 4m1-6v-4h-3c-.021 1.773.535 4.08 3 4m1-6v-4h-3c-.021 1.773.535 4.08 3 4m1-6v-4h-3c-.021 1.773.535 4.08 3 4m1-6v-4h-3c-.021 1.773.535 4.08 3 4m1-6v-4h-3c-.021 1.773.535 4.08 3 4m1-6v-4h-3c-.021 1.773.535 4.08 3 4m1-6v-4h-3c-.021 1.773.535 4.08 3 4m1-6v-4h-3c-.021 1.773.535 4.08 3 4m1-6v-4h-3c-.021 1.773.535 4.08 3 4m1-6v-4h-3c-.021 1.773.535 4.08 3 4m1-6v-4h-3c-.021 1.773.535 4.08 3 4m1-6v-4h-3c-.021 1.773.535 4.08 3 4m1-6v-4h-3c-.021 1.773.535 4.08 3 4m1-6v-4h-3c-.021 1.773.535 4.08 3 4m1-6v-4h-3c-.021 1.773.535 4.08 3 4m1-6v-4h-3c-.021 1.773.535 4.08 3 4m1-6v-4h-3c-.021 1.773.535 4.08 3 4m1-6v-4h-3c-.021 1.773.535 4.08 3 4m1-6v-4h-3c-.021 1.773.535 4.08 3 4m1-6v-4h-3c-.021 1.773.535 4.08 3 4m1-6v-4h-3c-.021 1.773.535 4.08 3 4m1-6v-4h-3c-.021 1.773.535 4.08 3 4m1-6v-4h-3c-.021 1.773.535 4.08 3 4m1-6v-4h-3c-.021 1.773.535 4.08 3 4m1-6v-4h-3c-.021 1.773.535 4.08 3 4m1-6v-4h-3c-.021 1.773.535 4.08 3 4m1-6v-4h-3c-.021 1.773.535 4.08 3 4m1-6v-4h-3c-.021 1.773.535 4.08 3 4m1-6v-4h-3c-.021 1.773.535 4.08 3 4m1-6v-4h-3c-.021 1.773.535 4.08 3 4m1-6v-4h-3c-.021 1.773.535 4.08 3 4m1-6v-4h-3c-.021 1.773.535 4.08 3 4m1-6v-4h-3c-.021 1.773.535 4.08 3 4m1-6v-4h-3c-.021 1.773.535 4.08 3 4m1-6v-4h-3c-.021 1.773.535 4.08 3 4m1-6v-4h-3c-.021 1.773.535 4.08 3 4m1-6v-4h-3c-.021 1.773.535 4.08 3 4m1-6v-4h-3c-.021 1.773.535 4.08 3 4m1-6v-4h-3c-.021 1.773.535 4.08 3 4m1-6v-4h-3c-.021 1.773.535 4.08 3 4m1-6v-4h-3c-.021 1.773.535 4.08 3 4m1-6v-4h-3c-.021 1.773.535 4.08 3 4m1-6v-4h-3c-.021 1.773.535 4.08 3 4m1-6v-4h-3c-.021 1.773.535 4.08 3 4m1-6v-4h-3c-.021 1.773.535 4.08 3 4m1-6v-4h-3c-.021 1.773.535 4.08 3 4m1-6v-4h-3c-.021 1.773.535 4.08 3 4m1-6v-4h-3c-.021 1.773.535 4.08 3 4m1-6v-4h-3c-.021 1.773.535 4.08 3 4m1-6v-4h-3c-.021 1.773.535 4.08 3 4m1-6v-4h-3c-.021 1.773.535 4.08 3 4m1-6v-4h-3c-.021 1.773.535 4.08 3 4m1-6v-4h-3c-.021 1.773.535 4.08 3 4m1-6v-4h-3c-.021 1.773.535 4.08 3 4m1-6v-4h-3c-.021 1.773.535 4.08 3 4m1-6v-4h-3c-.021 1.773.535 4.08 3 4m1-6v-4h-3c-.021 1.773.535 4.08 3 4m1-6v-4h-3c-.021 1.773.535 4.08 3 4m1-6v-4h-3c-.021 1.773.535 4.08 3 4m1-6v-4h-3c-.021 1.773.535 4.08 3 4m1-6v-4h-3c-.021 1.773.535 4.08 3 4m1-6v-4h-3c-.021 1.773.535 4.08 3 4m1-6v-4h-3c-.021 1.773.535 4.08 3 4m1-6v-4h-3c-.021 1.773.535 4.08 3 4m1-6v-4h-3c-.021 1.773.535 4.08 3 4m1-6v-4h-3c-.021 1.773.535 4.08 3 4m1-6v-4h-3c-.021 1.773.535 4.08 3 4m1-6v-4h-3c-.021 1.773.535 4.08 3 4m1-6v-4h-3c-.021 1.773.535 4.08 3 4m1-6v-4h-3c-.021 1.773.535 4.08 3 4m1-6v-4h-3c-.021 1.773.535 4.08 3 4m1-6v-4h-3c-.021 1.773.535 4.08 3 4m1-6v-4h-3c-.021 1.773.535 4.08 3 4m1-6v-4h-3c-.021 1.773.535 4.08 3 4m1-6v-4h-3c-.021 1.773.535 4.08 3 4m1-6v-4h-3c-.021 1.773.535 4.08 3 4m1-6v-4h-3c-.021 1.773.535 4.08 3 4m1-6v-4h-3c-.021 1.773.535 4.08 3 4m1-6v-4h-3c-.021 1.773.535 4.08 3 4m1-6v-4h-3c-.021 1.773.535 4.08 3 4m-2-8.5c.618 1.456 1.555 2.24 3 2.5-.745-5.19 3.384-7.082 7.177-7.564 116.532-38.812 233.028-77.715 349.557-116.507 87.32-29.133 174.646-58.224 261.967-87.324 16.482-5.533 33.005-10.98 49.48-16.505 7.665-2.544 15.308-5.112 22.96-7.651 3.468-.8 8.401-3.507 11.346-2.524 117.238 38.32 234.083 78.142 351.216 116.815 58.477 19.475 116.956 38.994 175.432 58.46a78363 78363 0 0 0 87.566 29.195c14.676 4.915 29.357 9.794 44.033 14.676 7.32 2.466 14.646 4.89 21.967 7.324 3.685 1.217 7.366 2.45 11.041 3.69 3.048.874 7.008 2.74 9.258 1.415-116.448-40.723-234.846-77.948-351.7-117.895-88.165-29.36-176.31-58.803-264.474-88.162-16.522-5.49-33.032-11.048-49.56-16.514-7.795-2.66-15.653-5.168-23.447-7.829-3.784-1.174-7.484-2.751-11.436-3.265-8.095.212-14.553 4.702-22.516 6.365-114.185 38.08-228.385 76.115-342.568 114.195-57.164 19.035-114.32 38.138-171.472 57.162-28.524 9.52-57.032 19.019-85.561 28.514-14.33 4.77-28.642 9.546-42.967 14.324-7.164 2.369-14.32 4.804-21.472 7.162-3.506 1.147-7.011 2.34-10.508 3.511-2.028.393-3.72 1.607-5.595 2.299-.676.475-1.007.887-1.04 1.424.008.739-.955.76-1.684 1.209zm1405 2.5c1.975.26 2.412-1.192 2.673-2.694L2204 567h-3zm1.5 6c.986-1.012 2.469-2.16 2.5-4h-3c.02 1.31-.161 2.939.5 4m1 6c.986-1.012 2.469-2.16 2.5-4h-3c.02 1.31-.161 2.939.5 4m1 6c.986-1.012 2.469-2.16 2.5-4h-3c.02 1.31-.161 2.939.5 4m1 6c.986-1.012 2.469-2.16 2.5-4h-3c.02 1.31-.161 2.939.5 4m1 6c.986-1.012 2.469-2.16 2.5-4h-3c.02 1.31-.161 2.939.5 4m1 6c.986-1.012 2.469-2.16 2.5-4h-3c.02 1.31-.161 2.939.5 4m1 6c.986-1.012 2.469-2.16 2.5-4h-3c.02 1.31-.161 2.939.5 4m1 6c.986-1.012 2.469-2.16 2.5-4h-3c.02 1.31-.161 2.939.5 4m1 6c.986-1.012 2.469-2.16 2.5-4h-3c.02 1.31-.161 2.939.5 4m1 6c.986-1.012 2.469-2.16 2.5-4h-3c.02 1.31-.161 2.939.5 4m1 6c.986-1.012 2.469-2.16 2.5-4h-3c.02 1.31-.161 2.939.5 4m1 6c.986-1.012 2.469-2.16 2.5-4h-3c.02 1.31-.161 2.939.5 4m1 6c.986-1.012 2.469-2.16 2.5-4h-3c.02 1.31-.161 2.939.5 4m1 6c.986-1.012 2.469-2.16 2.5-4h-3c.02 1.31-.161 2.939.5 4m1 6c.986-1.012 2.469-2.16 2.5-4h-3c.02 1.31-.161 2.939.5 4m1 6c.986-1.012 2.469-2.16 2.5-4h-3c.02 1.31-.161 2.939.5 4m1 6c.986-1.012 2.469-2.16 2.5-4h-3c.02 1.31-.161 2.939.5 4m1 6c.986-1.012 2.469-2.16 2.5-4h-3c.02 1.31-.161 2.939.5 4m1 6c.986-1.012 2.469-2.16 2.5-4h-3c.02 1.31-.161 2.939.5 4m1 6c.986-1.012 2.469-2.16 2.5-4h-3c.02 1.31-.161 2.939.5 4m1 6c.986-1.012 2.469-2.16 2.5-4h-3c.02 1.31-.161 2.939.5 4m1 6c.986-1.012 2.469-2.16 2.5-4h-3c.02 1.31-.161 2.939.5 4m1 6c.986-1.012 2.469-2.16 2.5-4h-3c.02 1.31-.161 2.939.5 4m1 6c.986-1.012 2.469-2.16 2.5-4h-3c.02 1.31-.161 2.939.5 4m1 6c.986-1.012 2.469-2.16 2.5-4h-3c.02 1.31-.161 2.939.5 4m1 6c.986-1.012 2.469-2.16 2.5-4h-3c.02 1.31-.161 2.939.5 4m1 6c.986-1.012 2.469-2.16 2.5-4h-3c.02 1.31-.161 2.939.5 4m1 6c.986-1.012 2.469-2.16 2.5-4h-3c.02 1.31-.161 2.939.5 4m1 6c.986-1.012 2.469-2.16 2.5-4h-3c.02 1.31-.161 2.939.5 4m1 6c.986-1.012 2.469-2.16 2.5-4h-3c.02 1.31-.161 2.939.5 4m1 6c.986-1.012 2.469-2.16 2.5-4h-3c.02 1.31-.161 2.939.5 4m1 6c.986-1.012 2.469-2.16 2.5-4h-3c.02 1.31-.161 2.939.5 4m1 6c.986-1.012 2.469-2.16 2.5-4h-3c.02 1.31-.161 2.939.5 4m1 6c.986-1.012 2.469-2.16 2.5-4h-3c.02 1.31-.161 2.939.5 4m1 6c.986-1.012 2.469-2.16 2.5-4h-3c.02 1.31-.161 2.939.5 4m1 6c.986-1.012 2.469-2.16 2.5-4h-3c.02 1.31-.161 2.939.5 4m1 6c.986-1.012 2.469-2.16 2.5-4h-3c.02 1.31-.161 2.939.5 4m1 6c.986-1.012 2.469-2.16 2.5-4h-3c.02 1.31-.161 2.939.5 4m1 6c.986-1.012 2.469-2.16 2.5-4h-3c.02 1.31-.161 2.939.5 4m1 6c.986-1.012 2.469-2.16 2.5-4h-3c.02 1.31-.161 2.939.5 4m1 6c.986-1.012 2.469-2.16 2.5-4h-3c.02 1.31-.161 2.939.5 4m1 6c.986-1.012 2.469-2.16 2.5-4h-3c.02 1.31-.161 2.939.5 4m1 6c.986-1.012 2.469-2.16 2.5-4h-3c.02 1.31-.161 2.939.5 4m1 6c.986-1.012 2.469-2.16 2.5-4h-3c.02 1.31-.161 2.939.5 4m1 6c.986-1.012 2.469-2.16 2.5-4h-3c.02 1.31-.161 2.939.5 4m1 6c.986-1.012 2.469-2.16 2.5-4h-3c.02 1.31-.161 2.939.5 4m1 6c.986-1.012 2.469-2.16 2.5-4h-3c.02 1.31-.161 2.939.5 4m1 6c.986-1.012 2.469-2.16 2.5-4h-3c.02 1.31-.161 2.939.5 4m1 6c.986-1.012 2.469-2.16 2.5-4h-3c.02 1.31-.161 2.939.5 4m.5 6c1.975.26 2.412-1.192 2.673-2.694L2254 867h-3zm1 6c1.975.26 2.412-1.192 2.673-2.694L2255 873h-3zm1 6c1.975.26 2.412-1.192 2.673-2.694L2256 879h-3zm1 6c1.975.26 2.412-1.192 2.673-2.694L2257 885h-3zm1 6c1.975.26 2.412-1.192 2.673-2.694L2258 891h-3zm1 6c1.975.26 2.412-1.192 2.673-2.694L2259 897h-3zm1 6c1.975.26 2.412-1.192 2.673-2.694L2260 903h-3zm1 6c1.975.26 2.412-1.192 2.673-2.694L2261 909h-3zm1 6c1.975.26 2.412-1.192 2.673-2.694L2262 915h-3zm1 6c1.975.26 2.412-1.192 2.673-2.694L2263 921h-3zm1 6c1.975.26 2.412-1.192 2.673-2.694L2264 927h-3zm1 6c1.975.26 2.412-1.192 2.673-2.694L2265 933h-3zm1 6c1.975.26 2.412-1.192 2.673-2.694L2266 939h-3zm1 6c1.975.26 2.412-1.192 2.673-2.694L2267 945h-3zm1 6c1.975.26 2.412-1.192 2.673-2.694L2268 951h-3zm1 6c1.975.26 2.412-1.192 2.673-2.694L2269 957h-3zm1 6c1.975.26 2.412-1.192 2.673-2.694L2270 963h-3zm1 6c1.975.26 2.412-1.192 2.673-2.694L2271 969h-3zm1 6c1.975.26 2.412-1.192 2.673-2.694L2272 975h-3zm1 6c1.975.26 2.412-1.192 2.673-2.694L2273 981h-3zm1 6c1.975.26 2.412-1.192 2.673-2.694L2274 987h-3zm1 6c1.975.26 2.412-1.192 2.673-2.694L2275 993h-3zm1 6c1.975.26 2.412-1.192 2.673-2.694L2276 999h-3zm1 6c1.975.26 2.412-1.192 2.673-2.694L2277 1005h-3zm1 6c1.975.26 2.412-1.192 2.673-2.694L2278 1011h-3zm1 6c1.975.26 2.412-1.192 2.673-2.694L2279 1017h-3zm1 6c1.975.26 2.412-1.192 2.673-2.694L2280 1023h-3zm1 6c1.975.26 2.412-1.192 2.673-2.694L2281 1029h-3zm1 6c1.975.26 2.412-1.192 2.673-2.694L2282 1035h-3zm1 6c1.975.26 2.412-1.192 2.673-2.694L2283 1041h-3zm1 6c1.975.26 2.412-1.192 2.673-2.694L2284 1047h-3zm1 6c1.975.26 2.412-1.192 2.673-2.694L2285 1053h-3zm1 6c1.975.26 2.412-1.192 2.673-2.694L2286 1059h-3zm1 6c1.975.26 2.412-1.192 2.673-2.694L2287 1065h-3zm1 6c1.975.26 2.412-1.192 2.673-2.694L2288 1071h-3zm1 6c1.975.26 2.412-1.192 2.673-2.694L2289 1077h-3zm1 6c1.975.26 2.412-1.192 2.673-2.694L2290 1083h-3zm1 6c1.975.26 2.412-1.192 2.673-2.694L2291 1089h-3zm1 6c1.975.26 2.412-1.192 2.673-2.694L2292 1095h-3zm1 6c1.975.26 2.412-1.192 2.673-2.694L2293 1101h-3zm1 6c1.975.26 2.412-1.192 2.673-2.694L2294 1107h-3zm1 6c1.975.26 2.412-1.192 2.673-2.694L2295 1113h-3zm1 6c1.975.26 2.412-1.192 2.673-2.694L2296 1119h-3zm1 6c1.975.26 2.412-1.192 2.673-2.694L2297 1125h-3zm1 6c1.975.26 2.412-1.192 2.673-2.694L2298 1131h-3zm1 6c1.975.26 2.412-1.192 2.673-2.694L2299 1137h-3zm1 6c1.975.26 2.412-1.192 2.673-2.694L2300 1143h-3zm1 6c1.975.26 2.412-1.192 2.673-2.694L2301 1149h-3zm1 6c1.975.26 2.412-1.192 2.673-2.694L2302 1155h-3zm1 6c1.975.26 2.412-1.192 2.673-2.694L2303 1161h-3zm1 6c1.975.26 2.412-1.192 2.673-2.694L2304 1167h-3zm1 6c1.975.26 2.412-1.192 2.673-2.694L2305 1173h-3zm1 6c1.975.26 2.412-1.192 2.673-2.694L2306 1179h-3zm1 6c1.975.26 2.412-1.192 2.673-2.694L2307 1185h-3zm1 6c1.975.26 2.412-1.192 2.673-2.694L2308 1191h-3zm1 6c1.975.26 2.412-1.192 2.673-2.694L2309 1197h-3zm1 6c1.975.26 2.412-1.192 2.673-2.694L2310 1203h-3zm1 6c1.975.26 2.412-1.192 2.673-2.694L2311 1209h-3zm1 6c1.975.26 2.412-1.192 2.673-2.694L2312 1215h-3zm1 6c1.975.26 2.412-1.192 2.673-2.694L2313 1221h-3zm1 6c1.975.26 2.412-1.192 2.673-2.694L2314 1227h-3zm1 6c1.975.26 2.412-1.192 2.673-2.694L2315 1233h-3zm1 6c1.975.26 2.412-1.192 2.673-2.694L2316 1239h-3zm1 6c1.975.26 2.412-1.192 2.673-2.694L2317 1245h-3zm1 6c1.975.26 2.412-1.192 2.673-2.694L2318 1251h-3zm1 6c1.975.26 2.412-1.192 2.673-2.694L2319 1257h-3zm1 6c1.975.26 2.412-1.192 2.673-2.694L2320 1263h-3zm1 6c1.975.26 2.412-1.192 2.673-2.694L2321 1269h-3zm1 6c1.975.26 2.412-1.192 2.673-2.694L2322 1275h-3zm1 6c1.975.26 2.412-1.192 2.673-2.694L2323 1281h-3zm1 6c1.975.26 2.412-1.192 2.673-2.694L2324 1287h-3zm1 6c1.975.26 2.412-1.192 2.673-2.694L2325 1293h-3zm1 6c1.975.26 2.412-1.192 2.673-2.694L2326 1299h-3zm1 6c1.975.26 2.412-1.192 2.673-2.694L2327 1305h-3zm1 6c1.975.26 2.412-1.192 2.673-2.694L2328 1311h-3zm1 6c1.975.26 2.412-1.192 2.673-2.694L2329 1317h-3zm1 6c1.975.26 2.412-1.192 2.673-2.694L2330 1323h-3zm1 6c1.975.26 2.412-1.192 2.673-2.694L2331 1329h-3zm1 6c1.975.26 2.412-1.192 2.673-2.694L2332 1335h-3zm1 6c1.975.26 2.412-1.192 2.673-2.694L2333 1341h-3zm1 6c1.975.26 2.412-1.192 2.673-2.694L2334 1347h-3zm1 6c1.975.26 2.412-1.192 2.673-2.694L2335 1353h-3zm1 6c1.975.26 2.412-1.192 2.673-2.694L2336 1359h-3zm1 6c1.975.26 2.412-1.192 2.673-2.694L2337 1365h-3zm1 6c1.975.26 2.412-1.192 2.673-2.694L2338 1371h-3zm1 6c1.975.26 2.412-1.192 2.673-2.694L2339 1377h-3zm1 6c1.975.26 2.412-1.192 2.673-2.694L2340 1383h-3zm1 6c1.975.26 2.412-1.192 2.673-2.694L2341 1389h-3zm1 6c1.975.26 2.412-1.192 2.673-2.694L2342 1395h-3zm1 6c1.975.26 2.412-1.192 2.673-2.694L2343 1401h-3zm1 6c1.975.26 2.412-1.192 2.673-2.694L2344 1407h-3zm1 6c1.975.26 2.412-1.192 2.673-2.694L2345 1413h-3zm1 6c1.975.26 2.412-1.192 2.673-2.694L2346 1419h-3zm1 6c1.975.26 2.412-1.192 2.673-2.694L2347 1425h-3zm1 6c1.975.26 2.412-1.192 2.673-2.694L2348 1431h-3zm1 6c1.975.26 2.412-1.192 2.673-2.694L2349 1437h-3zm1 6c1.975.26 2.412-1.192 2.673-2.694L2350 1443h-3zm1 6c1.975.26 2.412-1.192 2.673-2.694L2351 1449h-3zm1 6c1.975.26 2.412-1.192 2.673-2.694L2352 1455h-3zm1 6c1.975.26 2.412-1.192 2.673-2.694L2353 1461h-3zm1 6c1.975.26 2.412-1.192 2.673-2.694L2354 1467h-3zm1 6c1.975.26 2.412-1.192 2.673-2.694L2355 1473h-3zm1 6c1.975.26 2.412-1.192 2.673-2.694L2356 1479h-3zm1 6c1.975.26 2.412-1.192 2.673-2.694L2357 1485h-3zm1 6c1.975.26 2.412-1.192 2.673-2.694L2358 1491h-3zm1 6c1.975.26 2.412-1.192 2.673-2.694L2359 1497h-3zm1 6c1.975.26 2.412-1.192 2.673-2.694L2360 1503h-3zm1 6c1.975.26 2.412-1.192 2.673-2.694L2361 1509h-3zm1 6c1.975.26 2.412-1.192 2.673-2.694L2362 1515h-3zm1 6c1.975.26 2.412-1.192 2.673-2.694L2363 1521h-3zm1 6c1.975.26 2.412-1.192 2.673-2.694L2364 1527h-3zm1 6c1.975.26 2.412-1.192 2.673-2.694L2365 1533h-3zm1 6c1.975.26 2.412-1.192 2.673-2.694L2366 1539h-3zm1 6c1.975.26 2.412-1.192 2.673-2.694L2367 1545h-3zm1 6c1.975.26 2.412-1.192 2.673-2.694L2368 1551h-3zm1 6c1.975.26 2.412-1.192 2.673-2.694L2369 1557h-3zm1 6c1.975.26 2.412-1.192 2.673-2.694L2370 1563h-3zm1 6c1.975.26 2.412-1.192 2.673-2.694L2371 1569h-3zm1 6c1.975.26 2.412-1.192 2.673-2.694L2372 1575h-3zm1 6c1.975.26 2.412-1.192 2.673-2.694L2373 1581h-3zm1 6c1.975.26 2.412-1.192 2.673-2.694L2374 1587h-3zm1 6c1.975.26 2.412-1.192 2.673-2.694L2375 1593h-3zm1 6c1.975.26 2.412-1.192 2.673-2.694L2376 1599h-3zm1 6c1.975.26 2.412-1.192 2.673-2.694L2377 1605h-3zm1 6c1.975.26 2.412-1.192 2.673-2.694L2378 1611h-3zm1 6c1.975.26 2.412-1.192 2.673-2.694L2379 1617h-3zm1 6c1.975.26 2.412-1.192 2.673-2.694L2380 1623h-3zm1 6c1.975.26 2.412-1.192 2.673-2.694L2381 1629h-3zm1 6c1.975.26 2.412-1.192 2.673-2.694L2382 1635h-3zm1 6c1.975.26 2.412-1.192 2.673-2.694L2383 1641h-3zm1 6c1.975.26 2.412-1.192 2.673-2.694L2384 1647h-3zm1 6c1.975.26 2.412-1.192 2.673-2.694L2385 1653h-3zm1 6c1.975.26 2.412-1.192 2.673-2.694L2386 1659h-3zm1 6c1.975.26 2.412-1.192 2.673-2.694L2387 1665h-3zm1 6c1.975.26 2.412-1.192 2.673-2.694L2388 1671h-3zm1 6c1.975.26 2.412-1.192 2.673-2.694L2389 1677h-3zm1 6c1.975.26 2.412-1.192 2.673-2.694L2390 1683h-3zm1 6c1.975.26 2.412-1.192 2.673-2.694L2391 1689h-3zm1 6c1.975.26 2.412-1.192 2.673-2.694L2392 1695h-3zm1 6c1.975.26 2.412-1.192 2.673-2.694L2393 1701h-3zm1 6c1.975.26 2.412-1.192 2.673-2.694L2394 1707h-3zm1 6c1.975.26 2.412-1.192 2.673-2.694L2395 1713h-3zm1 6c1.975.26 2.412-1.192 2.673-2.694L2396 1719h-3zm1 6c1.975.26 2.412-1.192 2.673-2.694L2397 1725h-3zm1 6c1.975.26 2.412-1.192 2.673-2.694L2398 1731h-3zm1 6c1.975.26 2.412-1.192 2.673-2.694L2399 1737h-3zm1 6c1.975.26 2.412-1.192 2.673-2.694L2400 1743h-3zm1 6c1.975.26 2.412-1.192 2.673-2.694L2401 1749h-3zm1 6c1.975.26 2.412-1.192 2.673-2.694L2402 1755h-3zm1 6c1.975.26 2.412-1.192 2.673-2.694L2403 1761h-3zm1 6c1.975.26 2.412-1.192 2.673-2.694L2404 1767h-3zm1 6c1.975.26 2.412-1.192 2.673-2.694L2405 1773h-3zm1 6c1.975.26 2.412-1.192 2.673-2.694L2406 1779h-3zm1 6c1.975.26 2.412-1.192 2.673-2.694L2407 1785h-3zm1 6c1.975.26 2.412-1.192 2.673-2.694L2408 1791h-3zm1 6c1.975.26 2.412-1.192 2.673-2.694L2409 1797h-3zm1 6c1.975.26 2.412-1.192 2.673-2.694L2410 1803h-3zm1 6c1.975.26 2.412-1.192 2.673-2.694L2411 1809h-3zm1 6c1.975.26 2.412-1.192 2.673-2.694L2412 1815h-3zm1 6c1.975.26 2.412-1.192 2.673-2.694L2413 1821h-3zm1 6c1.975.26 2.412-1.192 2.673-2.694L2414 1827h-3zm1 6c1.975.26 2.412-1.192 2.673-2.694L2415 1833h-3zm1 6c1.975.26 2.412-1.192 2.673-2.694L2416 1839h-3zm1 6c1.975.26 2.412-1.192 2.673-2.694L2417 1845h-3zm1 6c1.975.26 2.412-1.192 2.673-2.694L2418 1851h-3zm1 6c1.975.26 2.412-1.192 2.673-2.694L2419 1857h-3zm1 6c1.975.26 2.412-1.192 2.673-2.694L2420 1863h-3zm1 6c1.975.26 2.412-1.192 2.673-2.694L2421 1869h-3zm1 6c1.975.26 2.412-1.192 2.673-2.694L2422 1875h-3zm1 6c1.975.26 2.412-1.192 2.673-2.694L2423 1881h-3zm1 6c1.975.26 2.412-1.192 2.673-2.694L2424 1887h-3zm1 6c1.975.26 2.412-1.192 2.673-2.694L2425 1893h-3zm1 6c1.975.26 2.412-1.192 2.673-2.694L2426 1899h-3zm1 6c1.975.26 2.412-1.192 2.673-2.694L2427 1905h-3zm1 6c1.975.26 2.412-1.192 2.673-2.694L2428 1911h-3zm1 6c1.975.26 2.412-1.192 2.673-2.694L2429 1917h-3zm1 6c1.975.26 2.412-1.192 2.673-2.694L2430 1923h-3zm1 6c1.975.26 2.412-1.192 2.673-2.694L2431 1929h-3zm1 6c1.975.26 2.412-1.192 2.673-2.694L2432 1935h-3zm1 6c1.975.26 2.412-1.192 2.673-2.694L2433 1941h-3zm1 6c1.975.26 2.412-1.192 2.673-2.694L2434 1947h-3zm1 6c1.975.26 2.412-1.192 2.673-2.694L2435 1953h-3zm1 6c1.975.26 2.412-1.192 2.673-2.694L2436 1959h-3zm1 6c1.975.26 2.412-1.192 2.673-2.694L2437 1965h-3zm1 6c1.975.26 2.412-1.192 2.673-2.694L2438 1971h-3zm1 6c1.975.26 2.412-1.192 2.673-2.694L2439 1977h-3zm1 6c1.975.26 2.412-1.192 2.673-2.694L2440 1983h-3zm1 6c1.975.26 2.412-1.192 2.673-2.694L2441 1989h-3zm1 6c1.975.26 2.412-1.192 2.673-2.694L2442 1995h-3zm1 6c1.975.26 2.412-1.192 2.673-2.694L2443 2001h-3zm1 6c1.975.26 2.412-1.192 2.673-2.694L2444 2007h-3zm1 6c1.975.26 2.412-1.192 2.673-2.694L2445 2013h-3zm1 6c1.975.26 2.412-1.192 2.673-2.694L2446 2019h-3zm1 6c1.975.26 2.412-1.192 2.673-2.694L2447 2025h-3zm1 6c1.975.26 2.412-1.192 2.673-2.694L2448 2031h-3zm1 6c1.975.26 2.412-1.192 2.673-2.694L2449 2037h-3zm1 6c1.975.26 2.412-1.192 2.673-2.694L2450 2043h-3zm1 6c1.975.26 2.412-1.192 2.673-2.694L2451 2049h-3zm1 6c1.975.26 2.412-1.192 2.673-2.694L2452 2055h-3zm1 6c1.975.26 2.412-1.192 2.673-2.694L2453 2061h-3zm1 6c1.975.26 2.412-1.192 2.673-2.694L2454 2067h-3zm1 6c1.975.26 2.412-1.192 2.673-2.694L2455 2073h-3zm1 6c1.975.26 2.412-1.192 2.673-2.694L2456 2079h-3zm1 6c1.975.26 2.412-1.192 2.673-2.694L2457 2085h-3zm1 6c1.975.26 2.412-1.192 2.673-2.694L2458 2091h-3zm1 6c1.975.26 2.412-1.192 2.673-2.694L2459 2097h-3zm1 6c1.975.26 2.412-1.192 2.673-2.694L2460 2103h-3zm1 6c1.975.26 2.412-1.192 2.673-2.694L2461 2109h-3zm1 6c1.975.26 2.412-1.192 2.673-2.694L2462 2115h-3zm1 6c1.975.26 2.412-1.192 2.673-2.694L2463 2121h-3zm1 6c1.975.26 2.412-1.192 2.673-2.694L2464 2127h-3zm1 6c1.975.26 2.412-1.192 2.673-2.694L2465 2133h-3zm1 6c1.975.26 2.412-1.192 2.673-2.694L2466 2139h-3zm1 6c1.975.26 2.412-1.192 2.673-2.694L2467 2145h-3zm1 6c1.975.26 2.412-1.192 2.673-2.694L2468 2151h-3zm1 6c1.975.26 2.412-1.192 2.673-2.694L2469 2157h-3zm1 6c1.975.26 2.412-1.192 2.673-2.694L2470 2163h-3zm1 6c1.975.26 2.412-1.192 2.673-2.694L2471 2169h-3zm1 6c1.975.26 2.412-1.192 2.673-2.694L2472 2175h-3zm1 6c1.975.26 2.412-1.192 2.673-2.694L2473 2181h-3zm1 6c1.975.26 2.412-1.192 2.673-2.694L2474 2187h-3zm1 6c1.975.26 2.412-1.192 2.673-2.694L2475 2193h-3zm1 6c1.975.26 2.412-1.192 2.673-2.694L2476 2199h-3zm1 6c1.975.26 2.412-1.192 2.673-2.694L2477 2205h-3zm1 6c1.975.26 2.412-1.192 2.673-2.694L2478 2211h-3zm1 6c1.975.26 2.412-1.192 2.673-2.694L2479 2217h-3zm1 6c1.975.26 2.412-1.192 2.673-2.694L2480 2223h-3zm1 6c1.975.26 2.412-1.192 2.673-2.694L2481 2229h-3zm1 6c1.975.26 2.412-1.192 2.673-2.694L2482 2235h-3zm1 6c1.975.26 2.412-1.192 2.673-2.694L2483 2241h-3zm1 6c1.975.26 2.412-1.192 2.673-2.694L2484 2247h-3zm1 6c1.975.26 2.412-1.192 2.673-2.694L2485 2253h-3zm1 6c1.975.26 2.412-1.192 2.673-2.694L2486 2259h-3zm1 6c1.975.26 2.412-1.192 2.673-2.694L2487 2265h-3zm1 6c1.975.26 2.412-1.192 2.673-2.694L2488 2271h-3zm1 6c1.975.26 2.412-1.192 2.673-2.694L2489 2277h-3zm1 6c1.975.26 2.412-1.192 2.673-2.694L2490 2283h-3zm1 6c1.975.26 2.412-1.192 2.673-2.694L2491 2289h-3zm1 6c1.975.26 2.412-1.192 2.673-2.694L2492 2295h-3zm1 6c1.975.26 2.412-1.192 2.673-2.694L2493 2301h-3zm1 6c1.975.26 2.412-1.192 2.673-2.694L2494 2307h-3zm1 6c1.975.26 2.412-1.192 2.673-2.694L2495 2313h-3zm1 6c1.975.26 2.412-1.192 2.673-2.694L2496 2319h-3zm1 6c1.975.26 2.412-1.192 2.673-2.694L2497 2325h-3zm1 6c1.975.26 2.412-1.192 2.673-2.694L2498 2331h-3zm1 6c1.975.26 2.412-1.192 2.673-2.694L2499 2337h-3zm1 6c1.975.26 2.412-1.192 2.673-2.694L2500 2343h-3zm1 6c1.975.26 2.412-1.192 2.673-2.694L2501 2349h-3zm1 6c1.975.26 2.412-1.192 2.673-2.694L2502 2355h-3zm1 6c1.975.26 2.412-1.192 2.673-2.694L2503 2361h-3zm1 6c1.975.26 2.412-1.192 2.673-2.694L2504 2367h-3zm1 6c1.975.26 2.412-1.192 2.673-2.694L2505 2373h-3zm1 6c1.975.26 2.412-1.192 2.673-2.694L2506 2379h-3zm1 6c1.975.26 2.412-1.192 2.673-2.694L2507 2385h-3zm1 6c1.975.26 2.412-1.192 2.673-2.694L2508 2391h-3zm1 6c1.975.26 2.412-1.192 2.673-2.694L2509 2397h-3zm1 6c1.975.26 2.412-1.192 2.673-2.694L2510 2403h-3zm1 6c1.975.26 2.412-1.192 2.673-2.694L2511 2409h-3zm1 6c1.975.26 2.412-1.192 2.673-2.694L2512 2415h-3zm1 6c1.975.26 2.412-1.192 2.673-2.694L2513 2421h-3zm1 6c1.975.26 2.412-1.192 2.673-2.694L2514 2427h-3zm1 6c1.975.26 2.412-1.192 2.673-2.694L2515 2433h-3zm1 6c1.975.26 2.412-1.192 2.673-2.694L2516 2439h-3zm1 6c1.975.26 2.412-1.192 2.673-2.694L2517 2445h-3zm1 6c1.975.26 2.412-1.192 2.673-2.694L2518 2451h-3zm1 6c1.975.26 2.412-1.192 2.673-2.694L2519 2457h-3zm1 6c1.975.26 2.412-1.192 2.673-2.694L2520 2463h-3zm1 6c1.975.26 2.412-1.192 2.673-2.694L2521 2469h-3zm1 6c1.975.26 2.412-1.192 2.673-2.694L2522 2475h-3zm1 6c1.975.26 2.412-1.192 2.673-2.694L2523 2481h-3zm1 6c1.975.26 2.412-1.192 2.673-2.694L2524 2487h-3zm1 6c1.975.26 2.412-1.192 2.673-2.694L2525 2493h-3zm1 6c1.975.26 2.412-1.192 2.673-2.694L2526 2499h-3zm1 6c1.975.26 2.412-1.192 2.673-2.694L2527 2505h-3zm1 6c1.975.26 2.412-1.192 2.673-2.694L2528 2511h-3zm1 6c1.975.26 2.412-1.192 2.673-2.694L2529 2517h-3zm1 6c1.975.26 2.412-1.192 2.673-2.694L2530 2523h-3zm1 6c1.975.26 2.412-1.192 2.673-2.694L2531 2529h-3zm1 6c1.975.26 2.412-1.192 2.673-2.694L2532 2535h-3zm1 6c1.975.26 2.412-1.192 2.673-2.694L2533 2541h-3zm1 6c1.975.26 2.412-1.192 2.673-2.694L2534 2547h-3zm1 6c1.975.26 2.412-1.192 2.673-2.694L2535 2553h-3zm1 6c1.975.26 2.412-1.192 2.673-2.694L2536 2559h-3zm1 6c1.975.26 2.412-1.192 2.673-2.694L2537 2565h-3zm1 6c1.975.26 2.412-1.192 2.673-2.694L2538 2571h-3zm1 6c1.975.26 2.412-1.192 2.673-2.694L2539 2577h-3zm1 6c1.975.26 2.412-1.192 2.673-2.694L2540 2583h-3zm1 6c1.975.26 2.412-1.192 2.673-2.694L2541 2589h-3zm1 6c1.975.26 2.412-1.192 2.673-2.694L2542 2595h-3zm1 6c1.975.26 2.412-1.192 2.673-2.694L2543 2601h-3zm1 6c1.975.26 2.412-1.192 2.673-2.694L2544 2607h-3zm1 6c1.975.26 2.412-1.192 2.673-2.694L2545 2613h-3zm1 6c1.975.26 2.412-1.192 2.673-2.694L2546 2619h-3zm1 6c1.975.26 2.412-1.192 2.673-2.694L2547 2625h-3zm1 6c1.975.26 2.412-1.192 2.673-2.694L2548 2631h-3zm1 6c1.975.26 2.412-1.192 2.673-2.694L2549 2637h-3zm1 6c1.975.26 2.412-1.192 2.673-2.694L2550 2643h-3zm1 6c1.975.26 2.412-1.192 2.673-2.694L2551 2649h-3zm1 6c1.975.26 2.412-1.192 2.673-2.694L2552 2655h-3zm1 6c1.975.26 2.412-1.192 2.673-2.694L2553 2661h-3z" style="fill:gray;fill-rule:evenodd;stroke:none"/><path d="M1682 1843.25c1.795 1.736 5.961.106 8 .25-1.788-.122-3.03-.915-3.5-2.5-1.214 1.188-3.153 1.6-4.5 2.25" style="fill:#e1e1d5;fill-rule:evenodd;stroke:none"/></svg>