<svg xmlns="http://www.w3.org/2000/svg" width="3000" height="3000"><path d="M449 2666.5v1.5h2102v-1.5c-63.81-378.768-126.215-757.87-189.705-1136.696-47.349-283.998-94.654-568.016-142-852-4.398-26.67-8.911-53.338-13.325-80.003-1.118-6.656-2.232-13.342-3.35-19.985-.571-3.586-1.119-7.183-2.096-10.662-1.288-2.958-6.82-3.128-9.193-4.54-101.51-33.828-203.017-67.663-304.512-101.514a746151 746151 0 0 1-266.522-88.84c-39.072-12.89-78.06-26.135-117.144-38.98-4.713-1.335-9.273 1.032-13.839 2.453-144.507 48.104-288.95 96.378-433.449 144.467-54.18 18.08-108.385 36.116-162.566 54.195-23.808 7.923-47.625 15.882-71.434 23.805-5.676 1.96-11.407 3.738-17.06 5.726-6.564 1.113-6.72 8.744-7.34 13.268C740.08 921.349 682.77 1265.54 625.383 1609.692 566.339 1961.663 508.308 2314.864 449 2666.5M1492 1654c-.275 3.723-4.36 6.485-6.6 9.102-4.676 5.24-9.109 10.682-14.375 15.373-4.297 4.332-7.778 9.46-12.534 13.346-10.571 6.662-23.691-.24-32.869-3.379-29.314-11.541-59.037-22.444-88.122-34.442-1.426 82.197.26 164.734-.5 247 19.922.175 40.25-.159 59.308-6.627 8.793-3.047 17.075-7.502 24.733-12.762 10.282-5.907 8.2-16.465 7.959-26.611h36c-.209 8.392.27 16.81-.181 25.194-1.11 6.966-8.495 10.582-12.053 16.126-8.527 9.163-18.916 19.549-26.61 28.064-1.91 1.852-3.645 4.497-5.56 6.008-4.188 3.277-13.004.475-17.718 1.608H1263.92c-11.59-.05-23.164.061-34.75-.033-7.769-.388-14.857-4.315-22.099-6.724-23.17-7.867-45.791-17.875-69.071-25.243v-4c10.174-1.666 19.342-7.058 27.981-12.335 4.313-2.678 9.515-6.411 10.53-10.883.99-5.858.151-11.885.489-17.782h32c1.52 11.514.737 23.622 1 35 26.739-.017 53.525-4.85 78.183-15.476 6.041-2.479 13.836-5.135 13.746-11.885.202-21.781-.037-43.586.071-65.368v-50.984c.147-4.36-.214-8.756.201-13.1.186-3.802 3.072-4.392 6.176-4.897 7.647-2.343 16.627-6.768 21.623-12.29-18.389-15.281-38.608-28.637-57.366-43.53-7.381-5.398-14.56-11.044-21.944-16.43-2.896-2.2-6.902-5.868-9.576-3.272-10.963 10.352-20.5 22.222-31.22 32.833-8.652 10.745-20.601 10.083-31.612 4.702-31.192-11.786-62.066-24.675-93.282-36.303v247h13v374c25.203.565 50.853.991 75.128-6.95 10.547-3.856 20.544-9.218 29.899-15.397 13.782-7.418 9.463-21.575 9.973-32.653h45v92h-200c2.722 7.455 3.408 16.36 7.456 23.183 8.991 1.836 18.56.07 27.694.817H1258v166c36.281.657 74.775 1.227 107.34-17.681 7.142-3.565 17.882-7.809 16.66-18.267V2336h178.8c18.074-.31 41.873 4.175 50.2-13.5-17.088-13.576-33.64-28.198-51.261-41.187-8.78-6.718-17.424-13.631-26.143-20.415-4.235-3.577-8.807-6.678-13.142-10.109-3.485-3.5-9.958-6.177-10.454-10.789 11.673-3.507 25.038-9.802 33.936-16.613 5.542-4.183 3.887-13.074 4.064-19.075V1973c5.328-.057 10.263-2.625 15.469-3.377 14.738-1.662 31.93-5.046 45.531-5.623 9.04 103.686 24.647 207.499 58.862 306.202 1.714 5.77-4.495 11.207-6.97 15.972-51.089 77.516-115.372 145.893-189.892 201.201 1.028 3.572 4.048 6.037 6.5 8.625 41.202-18.126 81.306-39.262 118.984-63.985 18.512-12.305 36.42-25.5 53.737-39.413 8.637-6.965 17.093-14.134 25.282-21.6 4.177-3.749 8.6-7.187 12.367-11.372 4.034-3.516 8.31-9.064 13.13-9.63 10.713 24.344 24.38 47.679 38.711 70.091 10.075 16.734 21.771 32.439 34.398 47.26 20.574 21.498 45.6 39.417 73.594 49.87 28.56 10.611 65.506 10.448 88.76-12.25 12.234-14.484 8.437-31.816 5.493-48.64-4.08-25.473-15.642-48.801-23.623-72.99-.56-13.139 3.495-26.123 4.44-39.18 1.975-13.8 3.953-27.59 5.916-41.379 3.253-30.354 9.877-60.366 12.311-90.782-6.377-1.953-8.723 3.286-10.691 8.757-9.051 21.032-19.984 41.164-30.479 61.48-9.467 16.26-18.663 36.536-28.817 50.592-6.524 9.146-16.284 4.87-21.421-2.383-20.361-24.383-37.541-51.168-51.484-79.666-1.075-2.857-2.819-5.651-2.756-8.817.241-5.102 6.524-9.616 9.13-14.768 24.603-34.901 46.442-71.636 67.257-108.882 10.316-19.554 20.741-39.072 29.34-59.462 2.554-5.083 4.514-10.44 6.884-15.6 1.729-3.626 3.315-8.72 7.079-9.032 6.28-.616 13.019.25 18.876-2.728 5.258-2.55 9.86-6.628 13.082-11.491-1.905-2.434-6.284-2.936-9.454-4.385-45.274-15.906-90.102-33.248-135.546-48.615-10.696 48.737-29.148 95.587-47 142h-3c-4.742-27.015-10.316-53.944-12.798-81.312-2.637-26.37-6.906-57.352-7.202-81.688 36.127-4.362 72.048-10.35 108.16-14.81 18.315-2.69 36.653-5.144 54.979-7.715 17.212-2.942 40.627-1.312 46.861-18.975-16-12.596-34.303-21.9-51.573-32.531-18.315-9.56-35.813-21.08-54.427-29.969v-3c9.528.841 21.108 1.977 29.705-.467 26.981-6.433 47.585-33.598 45.38-61.418-2.755-37.34-32.726-56.726-62.44-72.27-27.897-13.075-59.242-17.241-89.145-21.845-1.628 1.803-4.1 3.316-5.5 5 15.353 18.816 28.146 39.656 36.379 62.645 6.918 18.418 12.145 37.763 13.495 57.45.276 3.663-.13 7.446.867 11.017 1.615 6.61 10.978 7.538 13.774 13.157-.54 5.535-4.967 9.913-7.241 14.8-10.364 17.117-20.894 34.126-31.014 51.388-2.737 4.34-5.625 8.584-8.069 13.093-3.348 6.917-13.498 6.3-20.049 7.502-7.386.872-14.726 2.384-22.142 2.948-4.44-81.185-4.158-162.734-2-244 13.165-1.352 31.703-8.021 34-25-45.427-3.05-90.523-10.559-136-13v-3c104.72-28.197 198.272-94.899 260.687-183.27 31.285-44.765 55.527-94.686 70.07-147.399 15.61-56.632 20.009-116.126 14.138-174.535-11.64-122.453-74.358-238.07-169.312-315.938-46.114-38.508-99.76-67.614-156.772-86.427-62.415-19.954-128.642-26.25-193.74-19.81-122.176 11.975-237.42 74.368-315.438 168.87-38.25 47.015-69.061 100.592-87.187 158.666-19.531 62.087-26.13 128.111-19.255 192.82 10.935 113.582 66.444 221.218 149.784 298.498 84.038 78.883 198.052 123.72 313.025 125.525m-431-473.683c.27 59.728 10.871 119.461 35.554 173.857 33.43 76.73 88.588 144.037 158.088 190.91 71.94 48.47 158.645 75.871 245.715 73.916 115.357 2.21 229.662-46.458 310.376-128.233 39.288-39.694 71.353-86.569 93.343-137.948 24.505-54.397 34.773-114.072 34.91-173.442-.297-58.957-11.302-117.843-35.28-171.884-33.905-77.174-89.093-145.149-159.606-191.766-72.063-48.589-158.847-75.62-246.034-73.727-114.882-1.905-227.72 47.406-308.541 127.975-38.639 39.715-71.08 85.447-92.795 136.615-24.571 54.436-35.3 114.071-35.73 173.727m57 .628c-1.475 100.332 41.12 198.85 111.107 269.654 71.155 71.327 170.387 113.172 271.367 112.401 100.308.408 198.93-40.92 269.746-111.75 70.629-71.127 113.444-170.154 111.78-271 1.127-100.573-41.287-200.357-112.87-270.62-70.608-70.173-169.69-112.985-269.885-110.63-100.415-2.013-199.496 41.42-269.847 112.102-71.08 70.368-112.382 169.618-111.398 269.843m35-16.945h279v-3c-59.785-33.384-118.93-68.884-178.52-102.792-14.935-8.78-30.155-17.078-45-26-5.486-2.954-11.81-7.544-17.44-8.675-4.119 3.087-5.922 10.699-8.971 15.783-17.582 39.114-27.637 81.861-29.069 124.684m37 175c6.027-.282 11.788-5.156 16.442-7.572C1280.869 1287.448 1357.13 1245.65 1431 1201v-2h-278c1.343 48.802 15.661 96.451 37 140m-13 492h32c1.056-18.36-1.193-39.941.411-56.762-1.75-17.827 1.864-38.946-.411-55.238h-32zm31-837c21.082 9.99 40.523 23.784 61.249 34.594 29.99 17.69 60.45 34.558 90.434 52.234 15.157 8.88 30.477 17.457 45.658 26.29 7.54 4.39 15.045 8.837 22.686 13.03 7.445 3.506 15.439 10.373 22.973 11.852-.545-4.387-3.832-7.887-5.75-11.711a85718 85718 0 0 0-92.92-160.866c-7.593-13.448-15.562-26.681-23.17-40.11-2.801-5.041-5.736-9.965-8.609-14.956-2.823-4.462-5.037-9.332-8.13-13.61-2.947-3.547-8.879 3.602-11.577 4.405-26.542 17.933-49.8 40.248-70.097 64.929-4.343 5.314-8.469 10.822-12.542 16.33-3.228 5.39-9.445 12.29-10.205 17.589m105 478c21.824-40.737 46.549-80.341 69.158-120.743 11.505-20.223 23.263-40.267 34.924-60.397 5.928-10.106 11.701-20.291 17.586-30.409 2.871-5.04 5.896-9.987 8.687-15.061 2.291-4.986 7.081-10.206 7.645-15.39-5.136.653-10.615 5.713-16.115 8.077-37.743 21.99-75.648 43.679-113.433 65.591-37.711 20.858-74.45 44.213-112.452 64.332.144 5.44 5.328 11.183 8.69 16.255 12.831 17.95 27.681 34.209 43.543 49.478 7.891 7.712 16.38 14.819 25.141 21.511 4.364 3.331 8.752 6.663 13.244 9.813 4.113 2.544 8.75 6.743 13.382 6.943m-100 590h45v-105h-45zm0 134h45v-109h-45zm268-1083h2V834c-49.566.279-97.894 15.684-142 37 .652 5.291 6 10.805 8.387 16.471 21.766 37.749 43.754 75.356 65.506 113.097 22.856 36.856 42.335 76.287 66.107 112.432m-139 378c43.912 21.252 91.919 35.41 141 37v-279h-2c-24.87 39.27-46.59 81.152-70.837 120.94-11.603 20.224-23.228 40.43-34.955 60.58-5.97 10.059-11.496 20.367-17.587 30.347-2.818 5.124-5.933 10.062-8.766 15.17-2.407 4.558-6.765 10.581-6.855 14.963m40 571h46v-105h-46zm0 134h46v-109h-46zm0 116h39.6c9.014-.436 21.67 2.171 26.507-5.207 7.845-10.035 15.845-19.962 23.654-30.005 4.122-4.822 7.8-9.994 11.758-14.94 3.276-4.816 9.913-10.77 10.481-15.848-10.436 1.613-20.559 5.241-31.18 6.017-11.554 1.383-23.212.91-34.82.983v-33h-46zm47-481c11.08-1.005 24.807 1.325 34.753-.96 2.514-5.603.395-11.402 1.247-17.359V1719h-36zm29.043-650.557c-.092 11.7 4.302 23.136 12.97 30.981 8.4 8.389 20.4 12.443 32.209 11.14 23.306-.555 41.095-22.763 38.614-45.45-.857-11-5.713-22.014-14.607-28.913-8.618-7.73-20.201-10.055-31.444-9.157-21.163.973-38.399 20.231-37.742 41.4M1493 1892c18.08 11.454 34.414 26.627 52.261 38.686 4.417 3.337 8.876 6.576 13.25 9.952 7.058 6.164 15.19 2.65 23.599 1.987 8.284-1.313 16.607-2.348 24.89-3.625-7.033-97.81-8.265-195.961-9-294-14.535.88-28.754 4.991-43.31 5.892-14.859 1.607-29.731 3.114-44.69 3.108v2c12.588 10.703 26.944 19.621 39.913 29.925 13.644 9.117 26.227 20.499 40.087 29.075v1.5c-7.592 7.796-19.903 14.126-30 14.5v106.8c-.401 8.943.509 18.003-.322 26.922-.331 5.837-10.426 7.644-14.055 9.833-16.518 5.691-36.379 12.865-52.623 13.445zm24-779h2c33.845-54.987 64.665-112.504 98.03-167.932 8.392-13.984 16.244-28.279 24.544-42.304 3.02-5.288 6.027-10.605 9.15-15.832 2.91-4.428 5.043-9.33 7.777-13.816-.204-4.476-8.698-5.226-11.185-7.459-31.71-15.025-65.892-24.808-100.657-29.468-9.853-1.165-19.725-2.356-29.659-2.189zm0 415c49.097-1.62 97.08-15.707 141-37-.43-6.1-5.268-10.85-7.594-16.249-43.978-75.025-86.422-151.061-130.906-225.751h-2.5zm170-56c5.459-.353 11.031-5.983 16.424-9.066 17.902-12.695 34.197-27.303 49.309-43.167 7.744-7.867 14.78-16.41 21.532-25.125 3.304-4.156 6.589-8.302 9.668-12.624 2.808-4.17 6.961-9.147 7.067-14.018-40.691-21.651-80.065-46.518-120.355-69.066-40.404-22.298-79.465-47.207-120.145-68.934h-1.5c.655 5.276 5.982 10.791 8.368 16.443C1599.98 1321.878 1645.233 1396.2 1687 1472m-137-341c5.08-.634 10.628-5.406 16.006-7.898 75.74-42.174 149.852-87.836 225.994-129.102-.967-5.985-7.222-12.242-10.71-18.283-14.881-19.863-31.09-39.11-50.097-55.207-9.084-8.061-18.506-15.753-28.454-22.72-2.442-1.77-4.858-3.617-7.408-5.216-1.9-1.063-4.39-3.06-6.197-3.08-5.065 3.953-6.458 11.367-10.48 16.248-21.581 36.82-42.727 73.872-64.24 110.73-10.964 19.019-21.862 38.091-33 57-5.402 9.835-11.322 19.338-16.77 29.138-2.707 4.799-5.61 9.45-8.276 14.267-2.377 4.256-6.293 10.001-6.368 14.123m18 68.5v1.5c40.414 22.362 80.225 46.735 120.471 69.586 20.335 11.446 40.384 23.397 60.603 35.03 10.048 5.78 19.958 11.748 30.042 17.461 5.091 2.913 10.125 5.941 15.216 8.83 4.83 2.6 10.447 6.827 15.668 7.093 20.942-43.567 36.054-91.18 37-140-93-.408-186.002-1.047-279-1zm1-38v1.5c46.223 2.142 92.547.191 138.789 1H1847c-.977-49.498-15.37-97.896-37-142-4.86.795-10.058 5.564-15.333 7.907-37.673 21.589-75.11 43.605-112.783 65.17-37.72 21.436-74.938 43.94-112.884 64.923z" style="fill:#feffee;fill-rule:evenodd;stroke:none"/><path d="M1491 1655.5c-10.255 10.31-21.336 23.281-30.735 32.735-8.026 9.467-23.772 3.208-32.764-.427-30.766-10.735-60.534-24.8-91.501-34.808v249c20.402.143 41.23.01 60.811-6.457 8.994-3.02 17.425-7.59 25.23-12.932 10.282-5.907 8.2-16.465 7.959-26.611h34c-.453 8.094.638 17.755-.556 25.123-6.148 12.082-19.166 19.33-26.797 30.342-3.87 4.645-8.496 8.586-12.543 13.05-1.733 2.127-3.443 4.297-5.752 5.831-48.648 1.865-97.704-.339-146.445.654h-37.135c-8.245.755-15.884-2.265-23.297-5.411-24.302-8.336-48.052-18.768-72.475-26.589v-2c10.174-1.666 19.342-7.058 27.981-12.335 4.313-2.678 9.515-6.411 10.53-10.883.99-5.858.151-11.885.489-17.782h30c.127 6.03.653 12.03.595 18.089.15 5.48-.694 11.974.405 16.911 27.402.318 54.935-4.545 80.183-15.476 5.306-2.296 13.888-4.718 13.777-12.477.113-22.189-.02-44.397.04-66.575v-51.584c-.092-4.272-.072-8.56.495-12.765 1.162-2.382 5.569-2.131 8.061-3.493 7.202-3.057 16.99-7.144 20.444-13.13-14.666-11.734-30.127-22.473-44.977-33.972-7.65-5.64-15.159-11.436-22.797-17.073-7.27-4.607-14.637-12.226-21.882-15.455-9.79 11.251-22.442 23.38-31.533 33.58-4.104 3.976-8.441 9.924-13.588 10.305-10.432.837-19.887-4.592-29.443-7.97-13.97-5.498-27.973-10.889-41.94-16.377-7.033-2.834-14.059-5.695-21.173-8.272-6.722-2.07-14.169-6.607-20.667-7.266v249h13v374c25.526.54 51.446 1.159 76.112-6.62 10.533-3.523 22.02-9.887 30.499-15.44 4.667-3.156 10.559-6.195 10.346-13.794.113-6.386-.012-12.772.043-19.146h43v90c-66.929.76-134.151-.926-201 .5 2.221 3.671 2.582 9.8 4.57 14.482 1.422 3.543 1.786 10.494 5.962 10.695 34.854.922 69.799-.168 104.672.323H1257v166c37.367.803 76.882 1.391 110.375-18.186 7.806-3.919 17.338-7.727 15.625-18.961V2337h180.6c12.993-.862 43.806 5.453 48.4-16-8.96-4.899-17.273-15.01-25.197-20.135-25.04-20.057-50.728-39.373-75.803-59.365 7.929-3.864 16.806-6.19 24.3-11.012 6.092-3.19 14.616-7.312 13.7-16.206V1974c5.136.007 9.84-2.457 14.83-3.256 14.726-1.79 29.4-4.491 44.17-5.744 9.454 104.347 24.413 209.487 60 308.5-53.709 82.1-120.215 156.491-200 214 2.771 3.383 6.274 7.186 8.5 10.5 41.057-18.317 81.516-38.625 118.988-63.67 37.774-23.772 71.39-53.16 104.012-83.33 16.064 32.762 34.21 64.753 55.484 94.484 15.524 22.897 36.476 42.055 59.751 56.874 31.018 20.352 82.754 36.51 121.238 5.146 15.668-14.771 9.236-42.648 5.21-60.308-5.159-20.626-12.386-40.63-20.591-60.218-2.655-6.745-.775-14.102.216-20.962 7.648-51.108 14.18-102.498 22.192-153.516-2.449-1.786-6.61-2.82-9-3.5-9.029 21.409-20.333 41.952-30.434 62.865-8.908 18.024-18.799 35.534-28.913 52.885-3.18 6.766-10.863 17.23-19.98 9.279-21.675-23.983-38.548-51.784-53.635-80.172-2.401-4.972-6.743-11.477-2.076-16.805 26.637-36.43 50.06-75.184 71.925-114.622 11.332-20.188 21.652-40.962 30.992-62.133 2.662-5.39 4.803-11.015 7.276-16.488 1.762-3.496 3-8.826 7.986-8.43 12.756.167 28.031-4.123 31.859-17.379-24.747-7.861-48.868-17.867-73.48-26.178-24.116-9.33-49.168-17.036-73.02-26.822-5.063 11.146-6.23 24.21-10.592 35.727-11.288 36.222-23.173 72.507-38.408 107.273-5.953-26.19-9.967-53.036-13.098-79.739-2.69-27.036-6.726-54.062-7.402-81.261 58.915-7.69 117.725-16.511 176.622-24.323 7.389-1.23 15.183-1.566 22.104-4.713 5.231-2.695 10.21-7.356 10.704-13.531-1.137-4.044-8.795-6.842-11.604-9.542-30.26-19.8-62.559-36.35-93.826-54.391 13.331 1.19 27.459 1.645 39.942-4.548 17.83-8.09 30.788-25.081 34.528-44.209 3.281-19.544-2.805-40.276-16.224-54.975-25.575-29.575-64.473-42.83-101.64-49.555-7.127-1.36-14.306-2.492-21.487-3.456-6.678-1.275-14.537-2.853-20.119 3.743 15.997 20.737 30.966 42.986 38.961 68.386 5.06 13.454 8.403 27.524 10.81 41.655 1.538 7.068.748 15.615 1.835 22.098 1.697 6.257 10.264 8.728 14.394 12.861-10.505 19.042-22.843 37.158-33.46 56.18-3.024 4.763-5.696 9.701-8.859 14.365-2.34 3.457-4.424 7.95-6.922 10.869-1.748 2.454-6.3 2.236-8.477 2.828-9.754 1.51-19.526 2.793-29.282 4.258-4.393-80.53-4.131-161.4-2-242 13.519-1.238 33.552-8.815 34-27-45.36-3.806-90.677-9.647-136-13.5 69.346-20.1 135.153-54.226 188.629-103.213 82.727-72.56 138.102-175.617 153.875-284.425 16.745-112.834-7.517-231.588-70.302-327.083-32.758-51.059-75.598-95.611-125.048-130.72-36.945-25.856-77.55-46.853-120.162-61.666-135.467-47.008-291.588-27.962-411.515 50.403-50.942 32.642-94.922 75.611-130.087 124.735-54.611 75.762-85.048 168.45-86.39 261.71-3.375 95.17 23.072 190.849 75.43 270.428 41.266 63.036 97.457 116.68 162.903 154.238 68.63 40.004 147.626 60.368 226.667 62.593m-429-475.314c.436 59.642 11.063 119.265 35.797 173.511 33.564 76.629 88.651 143.942 158.256 190.68 72.076 48.325 158.767 75.707 245.896 73.623 115.133 1.511 229.164-47.609 309.284-129.733 81.626-81.34 128.2-195.572 126.726-310.746-.605-58.843-11.993-117.573-36.33-171.313-34.093-76.658-89.474-144.167-159.803-190.317-71.966-48.168-158.484-74.846-245.341-72.891-114.204-1.115-226.033 48.278-306.355 128.37-38.489 39.59-70.74 85.246-92.4 136.22-24.615 54.063-34.953 113.292-35.73 172.596m55 .56c-1.708 100.79 40.796 199.79 111.107 270.853 71.305 71.454 170.784 113.35 271.968 112.401 100.765.832 200.002-40.639 271.145-111.75 70.794-71.28 113.583-170.55 111.78-271.608 1.494-100.9-40.806-200.998-112.475-271.617-70.703-71.186-170.196-112.67-270.668-111.46-100.719-1.142-200.41 40.602-271.09 112.168-71.533 70.545-112.884 170.298-111.767 271.014m37-17.746h275.5l1.5-.5c-39.756-23.293-79.851-46.134-119.683-69.328-40.03-22.867-79.808-46.327-119.817-69.172-23.802 42.121-34.579 91.144-37.5 139m37 175c10.75-4.207 20.119-11.762 30.52-16.792 69.212-40.685 139.298-80.046 208.48-120.708-91.801-1.426-184.112.26-276-.5 1.786 48.115 15.886 95.054 37 138m-13 492h30c.588-18.58-.65-36.97.188-55.552-1.054-17.879 1.529-36.418-.188-54.448h-30zm31-837.375c40.477 22.2 80.172 46.577 120.52 69.167 20.092 11.652 40.212 23.299 60.357 34.84 10.12 5.747 20.163 11.632 30.238 17.442 10.084 4.812 19.545 12.597 29.885 16.426-23.864-39.434-45.971-80.11-69.574-119.736-23.31-40.223-46.431-80.687-69.926-120.764-39.757 27.212-76.056 61.559-101.5 102.625m1 376.832c11.623 20.952 28.65 38.912 45.102 56.145 16.358 17.605 35.713 31.847 55.398 45.398h1.5c21.663-40.433 46.224-79.763 68.632-119.877 23.234-39.782 46.034-79.93 69.368-119.623-40.254 21.486-79.683 46.41-119.74 68.656-40.265 22.468-79.668 47.16-120.26 68.844zm4 691.543h43v-103h-43zm0 134h43v-107h-43zm128-1322.75c23.672 39.591 46.25 80.05 69.628 119.86 23.72 39.692 45.752 80.475 69.872 119.89 1.426-92.14-.26-184.76.5-277-48.903.775-96.459 15.887-140 37zm1 616.5c19.132 12.075 46.333 20.085 66.056 26.395 23.79 6.664 48.325 10.29 72.944 11.855-.76-92.246.926-184.876-.5-277-23.54 39.33-45.898 79.567-69.225 119.068-22.954 39.815-46.213 80.114-69.275 119.682m40 572.25h44v-103h-44zm0 134h44v-107h-44zm0 116h39c8.95-.498 20.214 2.387 25.455-5.667 14.952-19.449 30.634-38.368 45.545-57.833-10.271 1.404-20.79 5.415-31.411 5.77-11.508 1.086-23.061.618-34.589.73v-33h-44zm47-481c10.442-.974 23.42 1.297 32.765-.97 2.487-5.408.394-11.018 1.235-16.763V1720h-34zm29.076-649.692c-.567 23.604 20.633 42.993 43.583 41.174 22.23-.672 40.003-21.744 38.14-43.62-.908-22.492-21.95-40.34-44.215-37.808-20.841 1.03-37.377 19.562-37.508 40.254M1494 1889.5c15.752 13.999 34.472 25.926 51.03 39.237 4.334 3.41 8.861 6.593 13.231 9.949 7.108 6.463 14.774 4.2 23.085 2.913 8.204-1.334 16.451-2.29 24.654-3.599-7.144-97.132-8.254-194.617-9-292-14.348 1.487-28.46 5.083-42.884 6.046-14.216 2.32-28.912 2.02-43.116 3.454 26.593 20.594 54.984 39.24 81 60.5-7.06 8.954-20.684 15.363-31 16v106.8c-.401 8.943.509 18.003-.322 26.922-.331 5.837-10.426 7.644-14.055 9.833-16.521 5.684-36.375 12.873-52.623 13.445zm24.5-777.5c23.404-39.62 46.236-79.83 69.527-119.562 23.511-39.835 45.965-80.453 69.973-119.938-42.994-22.305-91.454-35.76-140-37.5.76 92.24-.926 184.878.5 277m-.5 415c48.388-2.19 95.686-15.843 139-37-21.824-40.608-46.35-80.062-68.907-120.332-11.45-20.032-23.087-39.958-34.667-59.904-5.605-10.132-11.597-20.05-17.333-30.096-6.63-9.359-10.715-20.96-18.093-29.668zm32-295.729c23.527 39.525 45.928 79.933 69.346 119.567 21.888 40.526 47.415 79.379 68.654 120.162h1.5c19.721-13.563 39.095-27.85 55.475-45.475 8.956-8.412 17.131-17.53 24.727-27.163 6.283-9.542 16.619-19.349 20.298-29.362-40.56-21.565-79.794-46.377-119.94-68.837-40.23-22.64-79.717-46.81-120.06-69.163zm1-102.521c.155.526.338.91 1 .75 39.961-22.69 79.787-45.963 119.768-68.675 39.78-22.718 79.214-46.034 119.232-68.325-25.78-41.242-61.634-75.171-101.5-102.5-23.3 39.882-46.61 79.958-69.648 120.027-23.046 39.362-45.879 79.505-68.852 118.723m18 70.5c39.035 23.757 79.71 46.017 119.068 69.475 40.787 22.104 79.783 48.014 120.932 69.275 20.798-42.953 35.545-89.872 37-138-92.298-.02-184.753-1.505-277-.75m1-37.858c22.149 3.026 45.485.726 67.905 1.608H1846c-2.117-48.62-14.792-96.945-37.5-140-39.177 24.135-80.084 45.96-119.61 69.628-39.59 22.923-79.331 45.894-118.89 68.764" style="fill:#676767;fill-rule:evenodd;stroke:none"/></svg>