<svg xmlns="http://www.w3.org/2000/svg" width="3000" height="3000"><path d="M1277 1340c1.878 11.604 8.694 21.608 14.586 31.471 4.995 9.34 11.665 19.937 15.334 28.953 8.26 20.657 5.037 43.462-.838 64.18-4.395 18.438-10.98 36.326-15.073 54.826-1.597 7.596-3.006 17.284-.109 24.097 5.823 13.332 21.352 22.83 33.067 27.587 13.17 4.735 27.233 6.934 41.196 6.885 12.692-.152 25.528.721 38.044-1.7 4.748-.152 10.692-3.095 14.583-1.307 4.047 8.27 7.18 17.649 14.163 24.336 24.113 23.489 59.634 29.804 91.664 32.96 34.74 1.78 70.882 1.719 103.888-10.9 12.22-4.409 24.24-10.566 33.47-19.863 19.393-17.499 13.508-44.696 12.715-65.43-.659-8.985-1.244-17.98-2.047-26.944-.962-7.658-2.27-15.37 3.29-21.133 30.142-43.682 41.533-97.796 37.067-150.018 7.75-1.602 15.787-1.76 23.548-3.43 7.901-1.053 15.554-3.627 23.452-4.57 2.099 10.147 2.576 20.63 3.142 30.939-.088 9.207 1.21 20.07.402 28.49-2.18 13.963-13.315 27.133-19.712 37.852-10.617 14.839-27.053 42.165-2.063 57.052 19.468 11.848 46.9 14.641 67.231 14.667 1.86 11.492 4.092 23.196 11.082 32.9 9.845 14.653 26.246 22.837 42.788 27.496 17.692 5.648 36.34 6.945 54.773 6.604 35.854.73 73.228-7.195 102.675-28.605 13.733-9.867 24.063-24.175 27.758-40.765 4.903-17.757.79-36.205-3.278-53.553-3.082-14.009-6.162-28.052-8.302-42.241-2.775-24.16 1.094-48.445 1.514-72.66 3.883-73.307 7.924-146.617 11.702-219.918 1.843-28.995 2.376-58.272-2.354-87.033-15.154-91.906-67.23-178.797-142.806-233.462-19.149-13.255-40.365-24.278-63.237-29.389-18.133-4.01-37.035-4.607-55.239-.836-25.746 5.765-48.292 20.5-69.982 34.741-18.153 12.88-43.292 31.112-70.811 18.641-25.845-10.005-49.29-26.597-76.803-32.29-14.347-2.863-31.967-1.895-44.873 1.233-13.423 2.096-25.41 9.614-38.607 12.137-2.254-11.056-9.998-22.72-17.104-29.913-8.681-8.265-21.508-11.127-33.161-9.412-25.383 4.216-40.663 29.134-47.954 51.509-2.263 7.243-5.063 15.864-5.781 22.816-18.209-5.771-37.169-6.094-56-5-.753-23.555-13.767-49.115-26.314-66.07-6.909-9.135-16.34-19.2-25.626-24.319-12.798-7.23-26.19-3.517-33.039 8.084-8.182 12.49-8.427 27.861-8.002 42.143.382 14.417 3.966 28.647 9.484 41.89 3.416 9.032 9 16.91 13.497 25.335-11.491 9.554-24.245 18.24-33.367 30.428-7.093 8.28-12.894 17.493-17.551 27.314-16.315 28.216-37.761 53.314-54.582 81.195-5.346-9.03-12.08-17.337-16.963-26.688-4.36-7.146-8.116-14.617-12.295-21.854-2.979-5.143-6.951-11.302-11.391-14.618-11.264-6.248-16.003 5.938-17.083 14.825-1.755 9.048-2.78 18.188-3.714 27.343-.966 16.952-2.019 34.101.76 50.96a118 118 0 0 0 4.884 22.953c1.08 5.602 4.144 11.654 5.433 16.675.648 3.756-3.016 7.395-5.116 10.888-7.03 9.467-13.995 21.704-21.515 29.516-23.521-25.351-39.09-56.977-50.746-89.17-9.517-24.487-17.21-49.59-23.97-74.955-3.132-9.349-5.944-20.889-11.162-28.452-2.256-3.719-6.145-6.584-10.719-6.164-8.142.347-10.429 13.656-12.57 19.124-14.842 58.496-15.521 120.343-7.573 179.925 4.445 31.473 12.806 62.528 26.125 91.41 2.4 4.637 6.618 9.094 3.24 15.432-17.528 39.604-23.378 86.53-8.814 128.115 7.112 18.838 19.214 37.106 37.505 46.66 9.547 5.349 20.125 8.227 30.972 9.305 5.21.74 11.674.377 16.068 2.719 4.597 2.207 9.046 4.706 13.823 6.509 34.991 14.509 76.292 9.576 108.285-9.891 15.944-7.977 29.874-19.25 45.132-28.307 15.76-8.284 32.201-17.017 49.904-20.26m208-279c12.727.18 25.286 2.842 38 3-2.583 39.969-9.51 80.054-24.891 117.208-15.359 33.237-34.708 65.455-61.109 91.292 17.02 2.139 34.098 5.331 50.42 10.871 14.203 4.857 28.61 14.355 32.773 29.786 8.738 59.165-12.04 130.596-43.822 174.245-11.46 18.432-22.293 38.703-23.345 60.93-2.975 20.888 20.575 35.872 37.633 39.996 17.691 5.15 36.22 5.707 54.45 6.444a250.5 250.5 0 0 0 49.425-3.583c12.593-2.899 26.462-6.099 36.106-15.451 8.609-8.48 4.136-24.132 4.383-34.531-.595-10.751-1.555-21.44-2.06-32.189-.115-9.514-1.317-19.027-1.501-28.525-.09-3.442 4.208-6.114 6.47-9.189 18.78-21.349 29.187-48.424 33.522-76.253 4.789-30.564 1.968-61.437-.454-92.051 29.877-2.86 59.979-6.023 88.598-15.72 20.115-6.726 39.468-16.902 54.668-31.95 5.651-5.257 11.903-11.908 16.502-17.329 4.133-5.5 9.283-10.68 12.216-16.951 6.105-24.455 14.404-48.276 26.706-70.371 5.735-10.392 11.659-20.732 18.408-30.504a535 535 0 0 0 10.342-14.696c3.01-5.148 9.063-9.594 10.56-14.479 5.662.26 10.265 6.001 14.366 8.542 4.208 3.293 8.41 6.606 12.695 9.779 6.287 3.938 1.389 7.83-2.196 11.882-26.554 31.625-46.369 69.835-52.57 110.997-6.707 39.966 3.53 80.586.081 120.66-2.746 33.233-15.988 64.466-26.69 95.663-8.495 22.982-19.124 63.66 17.958 74.187 24.837 6.982 56.118 6.032 79.075 1.588 20.461-4.995 42.362-13.53 54.806-31.49 6.164-9.808 4.747-19.17 2.337-29.034-4.172-18.096-8.732-36.16-11.19-54.6-2.925-16.59-1.29-33.408-.576-50.06 3.37-58.613 6.477-117.272 9.468-175.906 1.44-29.4 3.372-58.742 4.735-88.133 1.827-28.898.285-58.05-6.871-86.198-13.889-54.981-40.66-107.09-78.424-149.496-14.354-16.734-31.408-31.305-49.551-43.73-27.269-18.902-64.016-29.905-96.048-16.455-29.411 12.39-53.008 35.726-82.55 47.853-19.87 8.232-46.206 7.302-64.59 1.007-14.053-4.854-26.719-12.848-39.939-19.456-9.724-5.558-21.538-11.743-31.537-14.314-17.238-3.98-34.903-.456-50.541 7.397-7.707 3.44-15.277 7.253-22.674 11.285-7.076 3.226-16.106 9.933-22.574 11.032-2.734-15.44-3.681-32.512-14.144-45.39-4.838-6.085-13.562-11.337-20.922-3.627-5.616 5.621-8.521 13.242-10.94 20.614-3.912 13.535-6.552 27.498-7.582 41.563 1.906 17.408-22.385 14.056-32.714 12.454-11.776-2.477-22.903-7.771-34.924-9.241-21.438-2.306-42.495 5.023-60.665 15.884-12.414 7.18-25.452 18.4-33.644 28.682-7.8 8.22-11.15 19.159-16.81 28.627-19.26 27.042-37.453 54.867-56.655 81.934 5.52 2.5 7.18 11.099 7.79 17.456 1.41 12.94-.894 26.458-9.085 36.943-6.09 8.682-14.686 15.465-24.261 19.842-8.943 4.889-19.351 4.583-28.965 5.952-5.88 5.463-9.267 13.105-14.231 19.307-2.19 2.813-3.997 5.926-6.429 8.547-1.782 2.618-6.682 4.532-6.253 7.634 9.449 24.385 5.41 53.567-11.812 73.347-14.49 15.956-41.251 32.8-68.254 24.472-8.719 21.075-10.651 48.553-8.981 69.143 1.16 11.683 4.447 23.349 11.08 33.16 6.472 9.544 16.56 16.13 27.708 18.763 6.332 2.463 14.469 1.342 20.325 2.916 20.561 12.158 44.78 19.838 68.97 15.024 22.413-4.67 41.375-18.351 59.882-30.99 25.838-19.533 55.757-34.686 88.566-37.399 24.002-3.066 53.486-4.323 73.764-14.538 63.924-34.429 108.728-100.329 122.35-170.852 3.208-17.549 5.568-35.367 5.836-53.227m-333 1087v207c-31.3 11.053-60.999 26.777-93 36 2.84 11.481 11.112 23.398 15.177 33.365 15.902 33.19 32.336 66.294 47.823 99.635 12.303-1.493 16.232-12.263 17.702-22.597 9.555-14.427 22.696-26.612 32.638-40.861 32.077-40.33 62.01-82.427 90.16-125.542 19.435 42.043 43.89 83.585 79.695 113.802 27.167 22.9 61.172 35.418 95.396 43.04 57.093 12.026 115.642 11.582 173.628 11.158H1876c1.289-22.607 10.864-48.193 22.708-65.07 13.06-18.529 33.87-32.034 56.292-35.93v-14c-109.425 4.548-219.089 4.127-328.6 4-54.702.283-109.429.549-164.05-2.745-25.208-1.183-50.214-4.625-74.902-9.709-24.041-5.395-46.987-14.684-68.448-26.546 1.89-4.814 8.893-7.41 11.848-11.432 66.485-56.799 105.412-139.718 118.534-225.059 15.744-93.612 10.381-189.092 11.618-283.509h320v27c14.918-.593 30.282 1.18 45-2v1.5c-10.867 13.005-19.909 27.457-30.245 40.875-2.744 3.341-4.873 7.135-7.78 10.341-2.048 2.807-7.17 2.132-9.886 2.284H1746c.46 9.59 4.925 18.515 6 28 26.264.76 52.81-.926 79 .5-12.403 18.753-27.204 36.465-39 55.5h-46c.46 9.59 4.925 18.515 6 28 47.379-.445 94.803.543 142.16-.293 7.505-.35 23.89-9.381 14.567-20.063-21.692-22.53-46.041-42.902-69.727-63.144l1.672-.5h28.8c12.889.312 31.332 1.397 35.14-12.735.838-6.053-5.957-11.222-9.347-15.5-4.585-4.354-8.763-9.197-13.73-13.119-13.594-12.558-27.808-24.428-41.542-36.838-2.108-1.652-4.152-3.37-5.993-5.308 16.684-3.712 34.036-6.39 50.208-12.399 5.947-1.745 11.864-3.74 17.195-6.97 5.267-3.3 3.084-11.831 3.597-17.023v-65.364c.005-2.792-.006-5.583.004-8.363.211-2.023.055-5.399 1.465-6.584 11.293-4.67 27.875-7.874 35.531-21.797-18.55-15.023-38.655-28.542-57.687-43.023-14.295-10.797-28.773-21.338-43.117-32.068-2.892-1.986-5.722-4.05-8.534-6.143-2.157-1.525-6.291-4.728-8.615-2.694-16.377 16.89-31.325 35.246-47.644 52.234-4.106 6.485-10.253 6.262-16.74 5.694h-254.705c-8.189-.319-16.426.438-24.586-.358-23.988-7.126-47.3-16.517-71.13-24.144-11.751-4.276-23.696-8.069-35.42-12.397-11.726-3.12-22.727-9.392-34.822-11.101-.101 119.828.123 239.645-.066 359.469-1.065 57.941-.78 116.067-7.216 173.733-5.194 53.812-15.121 107.775-36.218 157.798-4.946-4.732-10.49-8.82-15.45-13.53-6.207-4.358-6.855-10.075-6.05-16.724V2164c12.962-.987 25.85-4.776 36.91-11.637 2.54-1.743 5.134-3.472 7.463-5.5 1.752-1.568 3.312-3.441 3.138-5.783-3.566-5.2-10.728-9.249-14.937-13.2-12.193-9.61-24.174-19.497-36.261-29.216-17.546-13.893-34.904-28.036-52.32-42.073-4.418-3.557-8.856-7.083-13.293-10.614-3.167-2.577-7.096-6.145-9.896-2.736-7.89 9.701-14.962 20.07-22.652 29.93-6.52 8.469-12.742 17.161-19.26 25.63-5.014 5.922-9.668 14.08-14.848 18.984-6.483 2.479-13.406.356-20.33 1.215H1056c.28 8.775 2.334 17.501 4.305 26.028.786 4.338 8.707 2.357 11.446 2.972zm-73.505-288.229c.159 4.11 6.834 6.334 8.83 10.123 22.961 25.291 46.166 50.71 63.28 80.578 9.047 14.55 17.21 29.638 23.295 45.693 1.864 4.912 6.027 6.495 10.294 8.091 12.549 5.148 26.498 7.651 40.047 6.321 19.223-2.249 36.471-13.802 45.735-30.716 14.646-25.088 8.198-58.58-11.468-78.83-18.258-20.931-45.581-31.935-71.728-39.315-33.212-8.05-67.803-10.259-101.829-8.25-2.558.838-5.201 3.392-6.499 5.054 0 .303.016.692.043 1.251M1104 1273.938c-.02 7.628.822 16.977 4.755 22.872 4.113 6.375 14.866 6.193 20.66 2.688 7.378-5.142 9.452-18.019 16.279-25.765 7.613-11.758 23.333-18.34 32.018-27.2 12.085-14.466-3.54-27.93-16.93-30.723-15.63-3.31-33.25.58-43.146 14.043-10.145 12.041-13.688 28.583-13.636 44.085m4 390.062c.005 5.157 5.912 8.822 8.87 12.37 26.52 26.595 49.856 56.711 68.593 89.304 4.633 8.181 9.553 18.165 13.012 26.052 2.63 5.694 3.679 13.962 11.037 16.282 20.309 9.702 45.096 11.05 64.992-.31 18.56-9.492 31.121-33.278 30.493-52.078 2.084-32.656-22.969-59.413-50.16-73.006-28.502-14.691-60.18-21.383-92.035-22.696-9.61-.151-19.238-.959-28.838-.765-8.727.095-18.058-.142-25.964 4.847m174-537.692c-.369 11.039 4.117 23.822 10.93 31.086 7.171 8.214 18.666 11.099 29.219 9.144 18.549-4.392 30.816-22.899 34.48-40.534 3.512-19.476-2.46-46.499-23.756-51.376-31.559-6.667-51.82 26.512-50.873 51.68M1426 2268h193v114c17.803.389 35.641.239 53.249-2.699 12.699-2.202 25.218-5.617 37.529-9.384 8.111-2.99 18.345-5.772 24.68-10.822 3.184-2.197 2.377-7.293 2.542-10.65V2268c62.028-.187 124.048.228 186.06-.123 6.534-.342 13.509-1.994 18.181-6.918 5.31-5.426 4.002-11.195-.761-14.855-30.832-27.274-63.325-53.006-95.48-78.604l1.688-.5h29.4c11.345-.659 28.424 3.167 34.943-12.663 2.307-6.031-8.01-11.158-10.838-14.827a709 709 0 0 0-14.004-12.546c-13.277-11.035-26.54-22.098-40.04-32.847-5.81-4.584-11.714-9.069-17.439-13.754-5.341-3.692-11.98-11.06-17.71-11.363-9.156 14.854-21.852 28.104-31.545 42.774-5.453 7.124-11.001 14.158-16.303 21.396-5.052 8.333-17.889 5.27-26.152 5.83.633-16.901-.773-33.955.418-50.806-.013-3.968 7.476-3.324 9.69-4.784 11.159-2.111 20.717-11.333 19.892-23.41-49.478-1.767-98.529-10.297-148-12v91c-20.27-.74-40.804.907-61-.5 6.804-10.825 15.487-20.965 21-32.5 9.266.329 19.227-.861 26.686-7.002 3.359-2.69 6.328-7.19 7.324-11.002 1.76-4.972-5.832-6.126-9.377-7.092-8.303-2.518-16.683-4.788-25.055-7.019-15.226-4.41-30.543-8.414-45.771-12.803-15.995-4.091-31.744-9.332-47.807-13.082-7.917 57.651-15.964 116.1-35.566 171.18-3.5 7.231 4.825 11.88 10.896 13.32 5.29.37 10.428-5.502 15.516-8.44 17.482-12.798 33.15-27.88 47.969-43.628 3.626-3.768 7.245-8.864 10.853-12.012 3.035-2.459 8.878-.813 13.076-1.42H1619c-.206 22.783.251 45.609-.136 68.376.056 5.022-5.427 4.705-9.247 4.624H1419c.698 9.626 5.407 18.535 7 28m4-957.75c1.866 4.552.629 11.769 2.133 17.47 4.4 40.075 23.839 76.344 32.367 115.28 8.696-27.82 18.54-55.888 20.579-85.184.063-7.82 1.508-17.21.006-24.302-1.888-10.418-14.659-15.19-23.24-17.72-10.03-2.917-22.306-4.988-31.845-5.794zm31 495.75h320v-86h-320zm7 219h115.2c9.628-.172 23.214 1.278 28.722-11.7 2.374-7.136-8.336-14.181-12.133-18.672-17.85-16.198-36.065-31.984-54.482-47.552-1.674-1.322-3.406-2.577-5.264-3.578-3.801-.398-5.92 6.11-8.119 7.95-8.49 11.043-16.63 22.33-24.899 33.526-3.785 5.255-7.682 12.98-15.911 12.025-7.914.004-15.834-.001-23.742.001H1462c.447 9.569 4.949 18.525 6 28m2-84h114.6c9.925-.118 22.947.968 28.993-11.686 2.856-7.14-8.077-14.301-11.968-18.808-17.887-16.006-35.101-32.8-53.839-47.878-2.941-2.838-6.653-6.235-10.144-1.365-9.058 12.013-17.63 24.367-26.644 36.4-4.716 5.587-8.807 15.292-15.853 15.297-8.509.113-17.008-.02-25.514.04H1464c.431 9.553 4.302 18.663 6 28m149 90c35.263.815 70.95-2.878 104.138-15.66 3.822-1.588 7.817-2.958 11.246-5.337 3.456-1.63 2.309-7.66 2.616-10.591v-106.656c-.011-4.879-.155-9.815.499-14.638 1.222-2.803 6.738-2.178 8.908-3.492 9.665-1.98 17.365-10.4 16.593-20.626-48.013-3.58-95.978-8.703-144-12zm118 209h39.6c4.03-.293 9.608 1.143 12.982-2.974 16.948-23.583 36.34-45.979 52.418-70.026h-105z" style="fill:#fff;fill-rule:evenodd;stroke:none"/><path d="M449 2668h2102c-110.242-665.144-221.837-1330.12-332.532-1995.186-3.476-20.835-6.96-41.682-10.42-62.51-1.682-10.253-3.434-20.498-5.126-30.74-1.284-4.301-.763-13.077-5.037-14.575-157.034-52.902-314.464-104.735-471.586-157.384-59.003-19.668-117.989-39.359-177-59-12.991-4.38-26.002-8.647-38.997-13.002-3.112-1.025-6.191-2.224-9.42-2.795-5.85.042-13.257 4.126-19.018 5.393-97.504 32.546-195.061 65-292.567 97.54-73.178 24.36-146.325 48.77-219.478 73.159-54.841 18.294-109.718 36.516-164.531 54.86-6.415 1.276-7.163 6.488-7.57 12-26.516 158.994-52.99 317.976-79.524 476.964A2145928 2145928 0 0 0 449 2668m829-1330c4.826 27.855 31.328 48.193 33.87 77.054 3.807 22.613-3.422 45.189-9.236 66.692-4.069 16.167-10.18 32.022-12.167 48.653-2.402 13.738 8.506 23.444 17.166 30.305 15.127 11.454 34.725 15.174 53.183 16.23 10.346-.02 20.721.227 31.05-.095 9.112-1.108 18.186-2.851 27.134-4.839 8.567 38.101 50.235 49.97 80.097 56.107 40.736 6.044 83.729 6.315 123.369-6.137 18.17-6.437 37.335-15.842 46.777-33.787 4.577-9.383 5.131-19.947 4.35-30.148-.225-10.354-.867-20.653-1.635-30.975-.707-8.665-1.415-17.317-1.977-25.982-1.958-8.302 2.984-13.007 7.27-18.982 13.106-20.633 21.962-43.546 28.244-67.078 7.606-25.38 7.232-51.907 5.505-78.018 16.367-2.692 33.039-4.014 49-9 2.619 20.827 4.662 42.157 3.428 63.181-2.518 13.922-13.726 27.108-20.14 37.893-5.431 8.414-12.352 18.613-13.868 27.898-3.56 19.285 13.002 28.898 28.688 33.906 16.347 5.534 33.748 7.206 50.892 7.122 1.86 11.492 4.092 23.196 11.082 32.9 9.845 14.653 26.246 22.837 42.788 27.496 17.685 5.645 36.337 6.947 54.761 6.604 35.542.51 72.437-7.963 101.51-29.179 13.253-9.951 23.391-23.834 26.935-40.19 4.891-17.695.37-36.05-3.691-53.299-2.893-13.463-5.849-26.918-7.893-40.533-2.6-23.268.823-50.762 1.46-72.151 3.828-73.213 7.772-146.397 11.545-219.607 10.72-108.828-32.53-220.726-112.699-295.178-19.089-17.97-40.674-33.374-64.33-44.701-18.84-8.793-39.292-14.087-60.179-14.147-30.973-.486-59.844 13.987-84.773 30.97-21.864 13.96-49.17 39.009-80.207 25.715-26.2-9.667-49.59-26.908-77.302-32.707-28.675-7.118-57.283 3.597-83.491 14.007-8.16-15.169-13.534-37.26-37.979-40.025-20.454-3.968-39.039 10.545-48.653 27.197-8.452 13.743-14.746 32.217-16.884 46.828-9.577-1.111-18.76-5.083-28.549-4.986-9.536-1.15-20.676-.313-29.451-.014-.753-23.737-13.944-49.47-26.646-66.507-6.931-9.047-16.333-19.123-25.683-24.078-5.537-2.682-12.195-4.234-18.219-2.334-5.899 1.933-10.172 6.778-13.288 11.94-13.002 25.045-6.74 60.07 3.103 82.44 4.428 8.55 8.151 17.824 14.733 25.039-12.8 7.97-24.15 18.441-34.266 29.59-7.076 8.562-13.477 17.671-18.168 27.755-7.836 14.898-19.148 27.674-27.84 42.055A3610 3610 0 0 1 1148.5 990c-6.916-9.471-13.038-19.542-19.127-29.543-4.444-7.957-8.727-15.978-13.329-23.832-3.952-5.365-8.191-12.978-14.983-12.19-4.94-.142-6.75 8.367-8.114 11.39-3.991 15.806-4.802 32.255-5.614 48.443-.763 17.583.68 35.466 5.44 52.45 2.64 7.526 4.018 15.907 8.227 22.782-4.983 7.098-9.994 14.268-14.896 21.439-5.148 6.226-9.165 16.55-16.104 19.061-.914-3.149-4.77-5.89-6.7-9.27-34.84-45.519-52.252-101.381-67.515-155.855-2.12-7.35-4.323-14.691-7.368-21.72-2.357-5.518-6.782-12.41-12.454-12.67-5.914-.738-8.845 8.175-10.588 12.09C953.4 951.643 951.204 993.006 951 1033.52c-.468 32.692 4.14 65.229 11.133 97.053 2.93 12.983 6.61 25.769 11.378 38.201 3.663 8.807 7.565 19.417 12.199 26.889 3.514 6.055-2.776 13.539-4.4 19.584-8.78 21.46-13.047 44.44-13.257 67.585-.285 36.571 13.633 87.632 60.358 102.234 5.553 1.553 11.264 2.494 16.97 3.238 4.55.708 10.171.357 14.135 2.025 14.484 7.312 29.794 13.8 46.21 15.062 16.74 1.606 33.752-.663 49.69-5.759 21.349-8.267 40.995-20.293 59.6-33.501 19.347-12.561 40.463-22.733 62.984-28.131m208-276c12.033.483 23.951 2.822 36 3-3.015 39.587-9.734 79.373-25.252 116.139-15.513 33.346-35.028 65.603-61.748 91.361 3.11 2.128 8.564 1.558 12.768 2.777 16.768 2.866 33.902 6.244 49.288 13.787 13.809 6.752 24.327 20.872 23.928 36.708.58 31.345-1.85 63.246-12.74 92.957-4.096 12.235-8.69 24.29-12.827 36.5-3.269 9.763-13.93 19.457-19.447 30.27-11.788 18.635-22.771 39.31-23.945 61.847-2.995 22.736 18.41 36.323 35.658 41.375 17.705 5.453 36.388 6.274 54.733 6.971 15.755.592 34.303-.5 48.588-2.676 12.93-2.29 26.206-5.67 37.188-13.217 11.652-7.768 8.932-22.42 8.157-33.231-1.254-21.777-2.825-43.561-3.753-65.35-.341-3.335 4.416-5.86 6.336-8.914 18.78-21.35 29.187-48.424 33.522-76.253 4.44-30.56 2.433-61.452-.454-92.051 29.877-2.86 59.979-6.023 88.598-15.72 20.115-6.726 39.468-16.902 54.668-31.95 5.651-5.257 11.903-11.908 16.502-17.329 4.133-5.5 9.283-10.68 12.216-16.951 6.105-24.455 14.404-48.276 26.706-70.371 5.735-10.392 11.659-20.732 18.408-30.504a535 535 0 0 0 10.342-14.696c3.01-5.148 9.063-9.594 10.56-14.479h1.5c8.814 7.603 18.649 13.973 27.5 21.5-27.744 29.624-47.37 66.707-56.62 106.154-7.711 32.737-3.305 66.243-1.813 99.299 1.588 24.908-.264 50.137-8.112 73.968-5.198 16.723-11.15 33.178-16.906 49.699-9.56 23.88-18.746 57.793 4.023 75.528 10.599 7.65 26.55 8.628 37.899 9.938 13.916 1.061 27.902 1.473 41.75-.612 16.613-1.555 32.777-6.679 47.277-14.869 9.733-6.166 22.408-14.404 25.023-29.186 1.68-12.091-2.917-23.88-5.233-35.531-4.569-21.519-9.825-43.289-9.222-65.466 3.246-66.847 7.218-133.648 10.671-200.475.916-23.05 2.724-46.042 3.547-69.083 1.682-24.198 2.908-48.705-.159-72.852-7.787-62.458-36.158-121.493-74.62-170.656-15.906-19.758-34.216-37.63-55.087-52.102-15.537-11.054-32.911-19.433-51.647-23.306-15.133-3.553-31.142-2.4-45.784 2.394-19.947 7.204-36.756 20.365-54.517 31.46-17.346 11.784-36.34 23.09-57.94 24.095-18.361 1.248-36.814-2.57-52.93-11.614-24.322-11.414-47.97-30.527-76.434-28.681-27.417 2.801-50.878 19.201-74.666 31.398-2.267-4.383-1.17-9.798-2.514-14.44-3.935-14.927-8.713-37.14-25.463-38.45-9.297-.117-14.2 9.087-17.215 15.638-3.316 7.626-5.42 15.677-7.127 23.794-1.418 7.87-2.818 15.755-3.544 23.71-.306 3.777-.447 7.63-1.092 11.351-2.787 5.765-14.094 4.696-18.958 5.17-12.882-.1-24.755-5.22-36.915-8.62-21.89-6.107-45.187-.312-64.55 10.295-14.18 6.937-26.75 16.884-37.386 28.479-8.106 8.575-13.162 19.095-18.144 29.593-20.151 28.447-39.086 57.8-59.592 85.98 9.023 5.33 9.283 18.987 8.908 28.01-1.567 29.642-33.79 54.735-62.908 49.49-2.87 7.012-9.062 12.552-12.577 19.295-3.815 6.954-9.262 12.38-15.423 17.205 11.836 23.878 6.852 54.228-10.246 74.028-16.205 18.564-43.59 31.867-68.754 24.472-5.461 17.148-9.57 35.019-9 53.147-.773 23.935 3.88 57.486 32.967 67.842 6.253 2.522 12.983 3.848 19.71 3.993 8.549-.146 17.627 7.849 26.914 10.85 9.35 3.781 19.447 5.59 29.482 6.108 21.86 2.923 43.029-6.963 60.997-18.275 13.588-8.18 25.995-18.163 39.396-26.627 20.666-12.966 44.193-21.586 68.483-24.283 23.732-2.99 52.57-4.429 72.883-13.694 19.763-9.419 39.711-26.065 53.77-40.163 50.111-47.493 75.823-116.583 76.398-184.898m-333 1085v209c-15.586 5.113-30.206 13.091-45.715 18.473-15.558 6.524-31.623 11.843-47.285 18.027 21.409 43.302 42.37 87.036 63.5 130.5 3.896-2.38 8.856-4.271 11.423-9.46 3.111-3.789 2.692-9.66 3.96-13.619 21.287-27.374 44.393-53.758 64.594-82.068A2502 2502 0 0 0 1262.5 2333c22.83 46.511 49.532 94.822 93.82 124.557 33.349 22.648 73.244 33.185 112.75 38.383 66.516 8.502 133.77 5.638 200.645 6.06H1875c1.289-22.607 10.864-48.193 22.708-65.07 13.06-18.529 33.87-32.034 56.292-35.93v-12c-110.046 4.798-220.372 3.987-330.505 4-54.961.116-110.007.67-164.88-2.91-25.057-1.904-50.268-4.272-74.729-10.261-23.854-5.64-46.856-14.74-67.886-27.329 34.047-27.663 63.867-60.417 85.03-99.072 34.843-60.02 49.025-129.503 54.887-197.911 5.232-74.39 4.295-148.99 4.083-223.517h322v27c8.244-.086 16.491.12 24.721-.104 7.38.583 15.04-2.2 22.279-1.396-10.78 13.938-20.88 28.432-31.341 42.603-2.75 3.571-5.212 7.387-8.023 10.892-4.175 4.89-13.908 2.122-20.633 3.005H1747c1.206 8.8 4.81 17.194 6 26h80v1.5c-7.122 8.976-13.277 18.723-20.168 27.866-6.028 9.82-14.437 18.54-19.832 28.634h-46v1.5c2.082 8.13 4.383 16.274 6 24.5 47.227-.81 94.6.988 141.78-.533 9.526-1.177 21.602-10.917 10.69-20.416-22.007-22.088-46.067-41.997-69.47-62.551 11.684-1.344 23.755.178 35.526-.5 8.172-.278 17.406.938 24.759-3.642 4.544-2.812 10.507-8.54 5.18-14.356-10.832-13.941-24.978-24.676-37.771-36.599-10.55-9.367-23.26-20.06-32.694-28.903 16.759-2.893 33.991-6.061 50.176-11.726 5.954-1.852 12.023-3.52 17.48-6.644 6.682-2.822 5.412-9.567 5.344-15.623v-65.965c.446-5.323-.772-11.208.979-16.319 6.583-3.036 14.114-4.448 20.426-8.29 6.126-2.906 11.098-7.438 15.595-12.433-19.382-14.241-38.646-28.705-58.103-42.841-9.623-7.287-19.331-14.436-29.094-21.528-9.409-6.082-19.123-15.734-28.46-20.131-13.04 15.3-27.28 29.523-40.255 44.888-2.77 3.613-6.33 6.545-9.112 10.133-3.27 4.525-8 4.132-12.725 3.979h-225.566c-18.81-.208-37.608.254-56.407-.137-47.871-13.213-93.703-33.61-141.278-47.863-.113 120.019.138 240.041-.074 360.06-1.066 58.091-.82 116.382-7.334 174.19-5.853 53.539-14.577 108.403-37.092 157.75-5.04-4.82-10.58-9.089-15.69-13.838-2.443-1.994-4.432-4.362-6.257-6.89-1.578-51.327.287-102.898-.553-154.272 16.765-1.295 38.617-8.382 48-21.5-40.85-33.527-82.472-66.195-123.5-99.5-17.3 22.132-33.669 45.02-50.719 67.343-2.258 2.789-4.155 5.853-6.606 8.478-4.477 4.061-13.75 1.023-20.262 2.179H1057c.423 7.924 2.652 15.692 4.098 23.463.534 4.57 8.034 3.272 11.048 3.537zm-74-287.437c35.516 35.628 68.56 76.141 90.085 122.173 3.09 5.341 5.185 14.03 8.686 17.837 20.466 11.872 47.49 14.262 68.41 2.294 20.35-11 32.412-34.94 30.42-57.8-1.082-18.205-10.955-34.388-23.63-46.882-18.48-18.036-48.413-29.895-71.133-35.31-29.127-7.44-59.292-8.312-89.148-7.875-5.967-.896-9.581 1.68-13.69 5zm26-585.71c.003 7.242.995 15.906 4.453 21.531 4.185 6.497 13.917 7.031 19.822 2.505 6.55-5.164 8.533-16.982 14.8-24.337 7.839-11.825 21.248-17.82 31.564-26.877 5.257-4.557 7.068-12.903 2.393-18.55-4.111-5.543-11.639-9.784-17.702-11.206-15.383-3.502-32.412 1.222-42.005 14.291-9.763 11.247-13.435 29.236-13.325 42.643m4 391.897c34.962 36.367 68.702 75.758 89.474 122.485 3.188 5.204 3.893 13.518 8.073 16.778 20.403 11.216 46.342 13.495 66.957 1.685 20.905-11.245 32.23-35.489 30.43-58.62-1.08-18.129-11.628-34.716-24.5-46.892-20.227-17.637-45.938-27.87-71.71-34.248-28.596-5.748-57.918-7.947-87.057-6.127-1.956.485-4.32-.15-6.366 1.052-1.763 1.15-3.365 2.467-5.301 3.137zm174.002-539.52c-.239 19.263 12.853 44.24 39.336 39.043 17.724-4.846 29.306-22.553 33.142-39.517 3.508-18.971-2.567-44.837-22.963-49.977-30.718-6.68-49.625 26.706-49.515 50.452M1427 2267h193v114c17.604.32 35.247.143 52.645-2.921 12.361-2.289 24.544-5.536 36.523-9.29 8.128-3.016 18.485-5.807 24.711-11.061 3.115-1.933 1.614-8.038 2.121-10.88V2267c61.624-.104 123.262.126 184.88-.068 6.584-.19 13.586-1.623 18.587-6.211 2.15-1.953 3.808-4.699 4.041-7.626-.09-5.054-8.707-8.418-10.984-12.07-28.916-25.215-59.172-48.96-89.024-73.025-13.172 18.51-27.749 36.13-40.976 54.63-3.76 4.511-7.16 9.274-10.7 13.947-2.857 4.554-7.077 4.815-11.797 4.423H1736v-75h139.8c11.976-.106 29.298 2.455 35.2-14.531-30.385-29.565-64.776-54.648-97.5-81.469h-1.5c-9.269 14.989-22.046 28.365-31.848 43.17-5.609 7.224-11.206 14.45-16.624 21.807-3.027 4.97-7.314 5.612-12.176 5.023H1736c.148-16.985-.18-33.994.097-50.967-.237-4.934 5.235-5.569 8.52-6.193 5.338-1.575 10.986-3.364 15.036-7.41 3.596-3.741 6.16-9.68 6.347-14.43-48.804-1.948-97.215-9.944-146-12v91c-21.575-.752-43.543.919-65-.5 8.48-10.734 16.376-22.637 23-34.5 13.007 1.242 29.685-3.384 35-19.5-41.224-14.128-85.05-22.81-126.5-36.5-7.828 47.642-13.044 96.282-26.883 142.811-1.88 6.012-3.537 12.094-5.445 18.085-.881 4.57-4.991 9.676-4.105 15.06 2.888 2.785 7.07 5.253 10.61 6.332 3.364.905 7.222-4.181 9.994-5.278 22.19-15.232 41.25-34.443 59.052-54.456 4.69-7.271 12.49-5.542 20.02-5.554H1620c-.063 23.012.077 46.026-.042 69.029.352 6.003-3.63 6.623-8.143 5.97-63.95.004-127.873-.001-191.815.001 1.428 8.854 5.407 17.159 7 26m37.5-819c8.495-29.551 19.9-59.017 21.67-90.068.69-13.331 5.21-31.684-13.243-39.442-13.461-5.455-30.62-8.952-43.927-9.49 1.555 12.3 2.037 24.783 5.065 36.883 7.262 34.69 22.908 67.79 30.435 102.117m-4.5 359h322v-88h-322zm9 217c42.521-1.105 85.296 1.347 127.748-.728 8.08-1.625 19.749-10.088 10.668-19.02-19.518-20.322-42.294-37.238-63.109-56.176-1.638-1.33-3.333-2.563-4.807-4.076-10.685 12.545-19.34 26.734-29.66 39.575-4.697 6.112-9.077 15.706-18.917 14.425H1463c1.063 8.839 4.937 17.153 6 26m2-84h114.6c10.689.434 23.55-.689 28.4-14.5-21.533-24.81-48.404-44.374-72.5-66.5-10.787 12.67-19.467 27.06-29.818 40.077-4.709 6.039-8.726 16.04-18.5 14.923H1465c.955 8.842 4.44 17.267 6 26m149 90c34.615.778 69.577-3.217 102.138-15.66 3.822-1.588 7.817-2.958 11.246-5.337 3.456-1.63 2.309-7.66 2.616-10.591v-104.858c.2-4.777-.298-10.476.294-14.834-.223-3.555 5.26-4.01 7.731-4.727 9.383-1.604 17.894-8.866 17.975-18.993-47.325-3.772-94.67-8.337-142-12z" style="fill:#000;fill-rule:evenodd;stroke:none"/></svg>