<svg xmlns="http://www.w3.org/2000/svg" width="3000" height="3000"><path d="M1434 2405v119c37.982.706 77.094-1.88 112.339-17.658 8.128-2.921 17.37-6.974 15.661-18.761v-91.736c.758-24.192-.925-48.771.5-72.845 16.193 24.877 33.237 49.402 54.081 70.739 64.19 66.528 151.139 107.903 240.419 128.261 4.556-27.677 14.297-55.165 32.163-77.207 8.68-10.613 18.771-20.206 30.477-27.494 5.722-3.517 11.682-6.611 17.989-8.934 2.776-1.504 8.645-1.974 8.914-5.339.761-3.62.305-7.369.457-11.026-59.884-1.56-119.81-6.854-178.77-17.67-56.088-10.433-111.794-25.788-163.23-50.83 63.152-1.426 126.598.26 189.808-.5h103.114c9.027.066 19.242.93 26.94-5.006 2.979-2.151 5.228-6.3 5.347-9.67 1.14-3.561-5.34-6.702-6.777-9.139-22.401-19.907-44.339-40.393-67.626-59.322-8.341-7.386-16.93-14.45-25.325-21.764-3.17-3.023-7.58-6.921-10.83-1.541a11089 11089 0 0 0-32.4 44.432c-8.59 10.736-15.792 22.626-24.62 33.137-11.35 2.192-23.417-.155-34.92.873H1619.5l-1.5-.5c25.834-9.186 51.774-18.083 77.137-28.554 18.862-7.369 37.187-16.005 55.238-25.132 11.47-7.628 30.442 1.388 43.072-11.83 1.719-1.664 4.332-4.416 2.09-6.242-37.084-17.375-75.121-33.514-112.537-50.242 57.58-2.101 115.661 1.079 173.006-6.345 22.167-3.998 56.155-7.768 64.741-36.284 2.788-12.816 2.102-27.468-5.983-38.32-8.194-9.604-20.02-15.574-31.764-19.551-1.641-15.583-2.468-31.522-4.5-47-1.408.546-1.36-.48-1.5-2-3.117-.462-7.166.684-9.5 0-10.723 16.2-19.935 33.846-34.913 46.798-11.64 10.453-31.178 8.894-44.155 9.202h-76.127c-10.872-.832-27.822 2.661-34.113-6.299-2.157-5.923-.625-12.566-1.192-18.698V2036c23.882-2.196 47.858-3.362 71.654-6.457 17.22-1.973 34.328-4.731 51.335-8 6.615-.956 12.79 2.706 19.204 3.73 10.898 2.58 22.693 4.26 33.599.556 12.05-3.78-.483-13.622-5.176-17.673-9.43-8.22-18.175-17.145-26.986-26.026-8.926-8.503-18.242-16.56-26.63-25.63 11.143-3.277 23.122-4.683 34.223-8.424 8.217-2.491 16.617-4.746 24.378-8.502 6.337-2.598 3.89-13.34 4.399-18.445V1857c9.684-1.782 19.271-4.878 26.798-11.499 3.2-2.827 8.1-6.787 3.167-10.65-3.724-3.03-7.678-5.772-11.532-8.627-10.822-7.882-21.648-15.745-32.41-23.696-17.036-12.795-34.563-24.894-51.599-37.689-3.85-2.466-7.886-6.78-13.072-8.34-6.666 3.609-11.803 12.51-17.222 16.871-5.52 5.895-10.574 12.193-16.604 17.605-3.367 3.402-6.152 7.325-9.628 10.627-2.703 3.246-7.896 6.9-8.898 10.398h-70v-64h210c15.405-.91 35.052 3.092 43.84-10.08 4.982-7.232-1.596-10.766-6.44-15.025-17.534-16.098-36.681-30.317-54.795-45.727-13.642-11.093-26.722-22.936-41.066-33.132-2.493-1.628-5.372-4.769-8.78-4.546-4.904 1.399-8.306 10.379-11.987 13.471-12.822 17.264-26.199 34.11-38.989 51.38-3.501 4.244-6.426 8.936-10.042 13.073-3.045 3.353-8.831 2.478-12.871 2.586h-152.71c-4.358.102-8.707.058-13.012-.482-3.202-1.394-1.534-7.564-2.149-10.02v-19.574c.836-3.956-1.576-11.751 2.452-13.515 6.34-1.807 13.187-3.142 18.564-7.253 5.528-3.1 7.252-11.138 9.484-15.156 27.366 6.435 66.09-.058 83.082-21.54 12.098-15.646 10.812-36.487 13.634-55.088.823-15.3 5.678-29.653 12.042-43.556 15.65-40.924 31.068-82.444 38.242-125.816 6.5 15.13 16.68 32.803 17.433 48.323.409 28.442-.378 57.03-5.71 85.033-2.664 13.182-6.505 26.098-10.2 38.997-4.547 12.766-3.476 26.799-.023 39.647 22.587 4.478 50.638 4.263 70.95-2.282 5.13-2.078 5.84-9.518 6.978-14.21 2.946-18.134 2.16-36.631 2.79-54.916-.185-21.512.481-42.997 2.408-64.416 1.22-15.538 2.897-31.04 3.8-46.59 1.104-11.218-4.044-21.4-9.947-30.491-7.671-13.524-17.659-29.028-23.047-42.282-7.436-16.502-6.373-34.695-5.932-52.313l.5-1.5c6.908 12.303 17.186 22.208 26.199 32.867 4.412 4.47 9.552 8.203 13.674 13 4.048 4.31 9.484 7.213 13.168 11.864 5.874 21.58 14.07 42.55 19.33 64.317 2.629 8.157 3.922 16.638 5.433 25.03 1.612 7.375 2.042 17.153 7.347 21.698 12.121 7.855 20.48-12.534 23.597-19.95 7.93-18.866 11.003-39.33 11.6-59.626-.464-18.4-3.943-37.946-16.561-52.252-4.959-5.466-11.082-9.933-17.829-12.932-5.318-2.378-10.997-3.852-16.704-4.887-7.198-1.295-11.723-11.145-17.196-16.954a597 597 0 0 1-14.286-20.579c-7.106-11.617-13.894-23.483-19.44-35.925-7.92-15.465-15.194-34.578-18.937-50.003-13.07-49.642-51.736-95.239-103.65-105.61-14.766-3.32-29.608-6.417-44.606-8.46-13.332-1.674-26.78-2.443-40.208-2.635-5.634-.24-11.14-1.6-16.613-2.795-4.882-.764-6.764-5.707-9.18-10.59-4.891-7.981-9.927-15.863-15.986-23.034-5.37-6.442-12.91-10.507-19.677-15.228-11.443-8.373-23.403-15.947-34.914-24.212-8.34-6.316-19.246-11.888-25.47-19.007-9.54-11.714-18.358-27.263-24.781-39.488-7.08-15.077-15.865-29.61-20.81-45.609 21.546-8.428 40.07-24.025 53.974-42.326 6.954-9.157 12.409-19.372 16.58-30.058 2.188-5.794 3.64-11.81 4.461-17.939 1.904-6.862-.677-11.623-5.261-16.205-23.178-30.249-68.506-45.406-101.985-46.215-6.274-.457-12.522.584-18.769.743.49-12.996-3.47-28.12-2.535-40.023 2.27-3.431 6.318-5.915 7.805-9.981 3.203-7.49.73-17.276-6.32-21.642-9.608-6.795-27.36-3.724-32.341 6.003-2.335 5.325-2.046 13.01.585 17.603 4.406 4.803 2.67 10.287.067 15.74-3.175 6.895-4.214 15.944-7.761 21.3-5.873-3.758-14.4-5.315-20.267-7.665-6.96-2.377-14.238-3.04-21.49-3.623-3.537-.15-3.993-3.374-4.76-5.807-1.45-5.204-3.01-10.358-4.26-15.602-1.59-5.138 2.892-7.688 4.756-11.957 7.61-21.281-24.69-24.942-33.338-12.635-2.587 3.49-2.424 9.26-1.437 12.89 1.121 2.973 3.647 5.186 5.961 7.254 2.68 3.114-.688 10.392.156 13.967-.248 4.737-.644 9.447-.821 14.178-21.792 4.876-44.25 21.06-57.353 36.465-5.866 6.645-11.273 13.657-16.036 21.13-4.412 5.473-6.925 13.638-10.986 18.58-23.472 11.47-48.518 23.534-64.46 45.382-17.32 21.738-21.598 52.472-11.927 78.482 9.524 24.15 35.136 37.52 59.736 40.184 27.367 2.837 54.755-.896 82.026-2.223 11.847 36.86 29.762 71.707 45.076 107.18 6.94 15.552 14.297 30.906 21.01 46.55 3.094 7.447 6.91 14.565 10 22 1.216 3.159 3.353 6.62 3.865 9.72.468 7.836-2.111 15.146-2.418 23.207-2.5 15.663-1.838 31.414-1.533 47.129.49 62.302-.737 124.633.743 186.917 2.058 45.472 1.583 90.975-3.98 136.197-.993 8.163-2.198 16.286-3.929 24.318-3.182 13.785-14.304 25.32-14.58 40.127-.295 7.888 8.963 9.264 14.636 10.15 13.13 2.222 26.524 1.29 39.77 1.505 10.794-.247 22.402-.134 32.329-5.13 9.934-5.093 6.404-17.83 7.011-26.729.894-70.06 2.731-140.203 6.5-210.141 10.403 42.575 19.47 85.516 24.397 129.116 1.493 22.726 1.054 45.781-2.978 68.267-.843 5.615-1.799 11.211-3.187 16.714-.43 3.78-2.949 8.444-1.899 11.643 2.501 10.377 10.573 20.259 21.167 25.76-1.484.611-3.163.326-4.5-.5-1.387 16.565.22 33.434-.5 50.07v22.02c-.098 3.162.355 7.559-4.114 7.695-26.66.613-53.367-.111-80.028.215-19.929-.015-39.861.018-59.78-.01-6.898-.067-13.297-3.102-19.785-5.052-43.694-13.769-86.414-30.895-130.293-43.938-.491 73.514.628 147.015-.411 220.509-1.694 101.29-5.283 207.215-49.26 300.812-5.125 11.013-11.026 21.621-17.252 32.039-2.488 4.3-5.212 8.46-7.97 12.584-.958 2.043-2.597 4.31-2.619 6.365 2.914 3.246 6.029 8.455 10.764 6.719 30.672-16.864 60.568-36.421 85.48-61.26 25.822-23.988 45.015-53.724 62.768-83.768 11.657 24.623 24.396 49.13 35.5 74-6.003.872-15.692-.502-19.927 2.692-2.012 1.654-5.338 5.25-2.84 7.417 1.641 2.653 4.428 4.198 6.587 6.337 6.116 6.18 11.537 12.96 16.71 19.92 15.968 21.569 27.839 46.877 31.47 73.634 4.334.92 7.88 4.032 12 5.5-72.221 1.426-144.728-.26-217 .5.694 9.63 5.38 18.534 7 28h249v1.5c-37.403 42.863-80.402 80.882-128.366 111.643-47.85 30.726-99.212 56.392-152.634 75.857.006 3.727 1.382 7.326 3.285 10.478 1.124 3.577 7.142 1.472 9.646 1.392 27.434-5.263 55.024-9.69 82.249-15.998 98.609-21.998 196.392-53.53 284.82-102.872M1268 936c15.401 43.938 34.491 86.597 53.532 129.055 8.368 18.334 16.334 36.868 24.905 55.109 3.613 8.606 7.557 17.061 11.444 25.54 1.714 4.135 4.813 8.974 4.583 13.225-3.435 18.799-6.448 37.876-6.442 57.043.278 16.712 4.347 33.519 13.432 47.667a267.6 267.6 0 0 0 29.006 36.344c4.547 5.712 10.741 11.654 15.134 16.673 7.368 12.628 10.787 27.084 14.809 40.96 14.245 54.899 27.32 110.673 31.45 167.395 1.047 22.255.448 44.569-3.92 66.47-.605 4.425-2.18 9.526-2.236 13.642 1.244 7.369 15.172 10.375 20.993 11.437 8.34.728 18.518.885 25.92-1.333 6.056-2.313 16.556-6.36 17.236-12.507-1.046-30.263-4.597-60.44-6.342-90.67-4.252-46.096-6.778-92.6-2.618-138.846.788-11.01 2.022-22.047 3.77-32.937 1.011-3.991 1.575-8.817 2.674-12.417.37-3.508 5.877-3.803 8.321-4.18 12.232-1.718 24.465-3.606 36.573-6.031 6.187-1.38 12.376-2.662 18.489-4.32 5.934-1.25 12.664-4.206 18.287-4.319 5.799 25.147 12.318 50.198 16.418 75.726 3.292 19.754 6.898 39.661 6.557 59.763-.339 7.004-3.175 13.642-4.802 20.397-13.768 47.146-31.466 93.315-40.173 141.864 9.237 7.627 21.572 10.252 33.245 10.244 6.139.066 12.454.34 18.338-1.742 5.613-.62 11.316-5.76 15.417-7.252 2.21-20.306 4.495-40.711 7.365-60.927 13.044-34.771 27.665-69.058 38.039-104.779 4.887-15.58 8.087-31.667 10.304-47.811 1.085-8.007 2.06-16.011 2.233-24.088.602-7.258-.317-17.987 3.074-23.27 17.92-19.716 38.09-45.33 44.782-69.386 6.68-24.875 2.699-56.215-6.735-77.571-8.859-19.597-22.684-36.94-40.936-48.562-15.715-10.809-34.656-14.832-53.127-17.946-17.92-4.457-36.29-4.396-54.573-5.12-14.211-2.124-31.439-4.591-43.823-9.275-7.355-9.416-10.823-21.798-18.53-31.152-5.495-9.392-14.465-15.547-23.557-21.097-15.569-10.411-30.638-21.498-46.243-31.847-12.423-7.062-20.832-18.67-28.24-30.62-11.6-17.577-21.682-36.254-30.103-55.554-4.574-9.578-8.32-19.494-12.075-29.397-3.546-10.213-7.747-22.59-7.855-32.598 21.423-3.722 40.022-16.229 56.516-29.626 8.113-6.475 16.593-15.695 20.91-24.24 1.393-2.4 2.434-4.941 3.075-7.618.201-3.621-6.04-6.27-7.715-8.855-3.397-2.414-6.724-4.956-10.323-7.055-21.32-13.342-47.882-16.824-72.175-11.057-5.562 1.31-10.766 3.59-15.784 6.25-4.601 3.36-9.176-3.39-11.98-5.774-22.275-24.413-63.051-33.169-91.588-15.29-12.398 7.922-24.698 20.632-31.805 32.063-6.55 8.19-10.016 22.75-19.702 26.644-15.537 7.167-30.806 15.443-43.867 26.618-11.294 10.423-26.814 25.341-22.962 45.744 2.33 11.215 10.792 20.824 22.099 23.54 18.087 4.377 37.148 1.5 55.501 1.216 18.607-1.095 37.192-2.583 55.8-3.56m-99.858-39.032c-.322 5.602 3.667 8.477 8.463 7.857 6.437-.187 12.14-4.118 15.794-9.182 2.436-3.462 4.303-7.938 2.853-12.199-1.396-4.943-7.792-4.53-11.61-4.077-7.948 1.616-15.67 9.886-15.5 17.601M1221 2093.625c13.128.49 29.094-1.657 41.237-1.64 7.182-.317 14.358-.785 21.536-.971 9.69.858 6.928-9.606 7.227-15.971V1939h-33c-2.916 52.743-13.935 107.009-37 154.625M1261 850c.003 14.135 9.78 31.592 29.122 27.54 14.79-2.938 20.058-16.502 18.795-29.023.168-12.984-11.052-24.44-24.045-24.208-8.397.51-16.677 2.165-25.025 3.089-4.196.233-9.03 1.245-12.847 1.602-.347 8.054 1.829 20.17 14 21m-1 896.25c1.89 4.22.44 10.951 1 16.313V1812h59.4c6.27.88 14.115-1.214 19.1 1 1.392-17.34-.225-34.976.5-52.384.019-4.217.17-8.518-.573-12.655-1.296-2.721-6.593-1.439-8.784-1.961H1260zm0 164.75h78v-71h-77c.305 23.732.028 47.37-1 71m31 267.248c15.814 2.125 33.131 3.378 48.164 10.22 10.809 4.218 21.181 9.965 29.61 18.005 12.617 12.703 19.796 31.113 14.83 48.99-4.036 16.504-15.348 31.357-30.604 39.037 26.86 1.426 54.075-.26 81 .5v-132h1.5c53.455 4.757 107.002 9.72 160.5 14 .784 19.22-19.546 27.608-34 28v90c8.463-.598 20.245 2.118 24.9-4.558 13.956-18.601 26.059-38.476 37.96-58.418 10.22-19.249 24.203-41.216 31.14-60.024-25.838-2.821-53.787-.584-77.458-13.82-25.617-13.414-28.193-45.047-28.542-68.18-85.283 32.125-171.646 62.195-259 88.248m17.282-1232.261c.268 6.28 3.946 12.76 6.726 17.453 3.875 6.933 11.175 7.727 17.706 5.695 12.861-3.262 11.564-15.976 7.618-24.075-1.748-3.952-5.276-7.91-8.51-10.142-3.952-2.48-9.26-1.371-13.123-.137-2.305.995-5.698 1.978-7.42 4.202-1.71 1.892-3.133 4.808-2.997 7.004m12.172 59.072c.77 10.922 5.403 21.125 11.242 30.003 6.214 11.006 18.665 12.957 28.443 6.639 13.465-9.313.06-29.233-5.11-38.17-2.568-3.798-5.064-7.933-9.106-10.37-4.162-2.652-10.399-1.983-14.356-.25-3.597 1.984-10.44 6.556-11.113 12.148m19.671-101.07c.365 8.64 10.214 18.928 19.806 17.908 8.2-.05 6.19-14.456 5.067-19.252-1.428-6.47-5.59-14.236-14.307-10.595-4.593 1.674-10.575 5.38-10.566 11.94m11.89-62.557c-.74 12.134 8.902 18.155 19.046 18.394 19.588 1.65 37.585-8.507 52.602-19.829 3.33-2.195 13.502-8.672 5.61-12.822-16.729-10.763-38.128-12.554-56.883-6.973-9.006 3.06-21.22 7.365-20.376 21.23m5.197 242.003c-.184 15.508 15.841 35.963 34.021 31.905 8.251-1.003 15.906-4.946 22.402-9.833 5.168-6.384 3.2-17.124.098-23.966-3.443-6.934-7.163-14.224-13.351-19.18-6.909-5.52-18.117-1.998-24.963 1.553-7.614 4.52-18.453 10.752-18.207 19.52m4.915-105.188c.664 12.313 9.697 24.265 15.245 33.227 3.703 4.624 7.657 10.935 12.619 13.528 2.308 1.514 6.576.854 9.516.322 2.9-1.424 4.434-3.903 4.843-7.044 1.501-14.7-10.047-29.73-16.011-40.704-3.412-4.668-7.89-12.542-15.468-10.733-5.452 1.082-10.945 5.264-10.744 11.404M1440.5 1221c-8.555-8.134-20.049-16.394-29.593-21.492-15.403-6.774-21.116 11.354-24.792 21.687-2.103 7.903-4.582 17.75-3.697 25.31 2.257 7.533 13.064 10.604 18.73 14.567 12.757 6.257 26.006 12 39.926 15.08 14.645 3.259 30.803-6.591 39.818-15.688 10.425-10.56 13.334-26.682 7.9-40.522-2.373-9.336-10.725-18.84-22.797-12.922-9.332 3.024-17.351 8.919-25.495 13.98m-46.441-67.229c-.64 11.681 14.667 19.653 22.63 21.878 14.98 2.543 25.019 21.292 44.923 15.237 7.654-2.735 14.244-8.066 19.021-14.592 5.243-8.512 2.593-16.907-1.66-24.262-11.112-18.157-31.745-39.152-58.838-25.551-10.843 5.795-26.097 14.972-26.076 27.29M1412 2009h2.5c10.188-12.638 19.099-26.305 29.075-39.118 3.491-4.9 7.01-9.779 10.588-14.6 1.672-2.297 3.246-4.644 5.014-6.86 3.585-5.938 7.737-3.467 11.524.512 26.075 22.51 53.26 43.864 77.799 68.066 1.426-25.82-.26-52.087.5-78h-137zm0 73c23.134-.571 46.17-3.317 69.255-4.62 11.407-.832 22.795-1.863 34.21-2.549 10.97-.924 23.99-2.476 34.035-.831 2.1-2.824 1.23-7.819 1.5-11.72-.481-12.4.648-24.918-.5-37.28-1.495 12.075-20.841 12.178-28.78 12H1412zm17.297-778.98c.53 11.64 10.092 17.025 17.728 23.794 5.485 5.27 12.427 9.48 16.35 16.208 6.011 9.654-8.077 22.92 3.366 33.534 4.272 3.985 12.5 4.716 16.272.707 3.691-4.1 5.896-10.441 7.212-15.201 2.798-11.212 2.33-25.35-1.185-35.292-3.927-10.315-12.058-18.619-21.364-24.284-9.45-6.007-20.748-7.473-31.674-6.309-3.806.159-6.763 2.888-6.705 6.843m.758-245.17c.297 7.209 5.328 14.303 8.287 19.705 5.81 8.933 12.797 17.129 21.05 23.906 8.21 6.59 18.21 10.419 28.598 11.742 5.842.526 20.672 5.407 20.897-6.256.344-7.28-4.712-11.448-9.506-15.943-14.282-10.957-27.28-23.623-42.107-33.845-5.844-3.802-13.978-7.004-20.478-6.763-4.623.25-7.043 3.186-6.74 7.454M1453 1812h87v-64h-87zm0 99h87v-71h-87zm47.104-761.606c-.3 6.686 5.028 9.489 8.195 14.24 6.386 8.714-2.716 18.045-5.756 25.594-3.013 6.761 1.234 15.32 3.552 21.515 2.07 4.467 4.893 9.878 8.463 12.753 8.923 4.594 14.774-4.285 19.339-9.397 4.878-6.2 8.51-13.277 11.635-20.495 5.597-13.9 2.958-32.206-1.445-44.736-1.686-7.013-6.904-9.666-13.207-9.959-6.474-.78-14.377-1.492-20.296-.305-4.592 1.27-10.72 4.954-10.48 10.79m8.934 127.866c-.13 12.698 10.817 27.692 26.518 25.674 17.414-1.495 28.217-17.737 41.068-27.038 5.832-5.425 15.093-8.493 20.272-13.62 4.25-4.434 7.078-10.904 4.874-17.076-8.518-17.692-34.399-21.82-50.37-12.31-8.964 5.33-17.561 11.398-24.77 18.98-7.062 7.327-17.95 15.496-17.592 25.39M1528 1646.336c7.426 1.787 14.216.834 21.307 2.045 7.252-.26 15.67 2.083 21.693 1.119-4.223-2.035-8.515-3.914-12.287-6.756-4.253-2.599-7.28-8.168-11.213-9.744-5.656 5.517-12.486 9.856-19.5 13.336M1552.5 1535c7.761-28.796 18.563-56.72 27.027-85.308 4.696-14.42-.423-32.289-2.023-45.58-2.151-15.34-6.737-33.036-8.504-47.112-6.741-.128-13.292 1.873-20 2-6.263 58.384-4.23 117.853 3.5 176m14.533-342.709c-.403 12.39 12.42 17.345 20.847 20.352 7.731 1.996 18.093 3.891 25.211.998 7.113-4.239 6.309-15.527 5.274-22.315-2.364-12.898-9.196-24.552-17.011-34.833-3.131-4.38-8.462-9.099-13.68-9.293-8.585-.433-11.494 13.931-14.612 19.254-2.991 8.23-5.872 16.722-6.029 25.837m55.991 73.453c.732 14.255 2.76 30.843 6.802 43.095 1.022 3.48 3.186 6.351 5.86 8.677 10.324 2.112 19.944-8.003 27.165-13.4a57.8 57.8 0 0 0 13.79-15.812c2.836-7.332.534-16.9.45-23.792-1.006-7.738-2.093-15.482-3.514-23.14-1.752-7.109-2.476-16.476-6.482-22.131-3.901-5.025-13.546-.354-17.752 1.179-16.184 8.568-26.763 26.732-26.319 45.324m11.02-98.482c.215 6.673 1.798 13.742 6.72 18.287 5.164 4.466 12.116 6.024 18.769 6.206 6.4.15 14.457-2.06 18.396-6.703 4.668-6.532 1.449-14.337-4.254-18.631-8.558-6.43-21.61-8.258-31.096-8.253-6.002-.315-9.151 3.502-8.534 9.094m3.33 192.217c-.031 7.81 9.787 14.573 6.044 23.254-7.286 10.52-4.672 29.167 6.455 33.803 14.609 2.918 19.43-14.871 21.729-25.163 2.549-10.9 2.984-22.119 3.3-33.252.146-6.294-.33-13.812-1.807-19.415-1.145-7.589-11.531-3.956-15.125-1.582-4.484 2.736-8.626 6.04-12.34 9.746-3.458 3.567-8.465 7.769-8.257 12.609M1656 1911h78v-71h-78zm21 83c6.376-2.043 12.18-7.963 17.59-10.696 8.95-5.221 17.017-11.857 25.671-17.514 3.83-3.211 9.282-6.002 12.293-9.504 3.053-5.238.321-11.515 1.446-17.286h-57zm7.013-778.764c.353 14.343 5.584 30.381 10.67 42.065 2.874 5.637 6.524 14.92 15.458 11.858 6.704-2.646 10.271-9.633 13.852-15.367 7.06-12.193 6.755-28.16-2.068-39.402-5.091-7.66-11.443-16.088-23.557-14.26-7.342.11-15.503 5.641-14.355 15.105" style="fill:#fff;fill-rule:evenodd;stroke:none"/><path d="M449 2668h2102c-110.242-665.144-221.837-1330.12-332.532-1995.186-3.476-20.835-6.96-41.682-10.42-62.51-1.682-10.253-3.434-20.498-5.126-30.74-1.284-4.301-.763-13.077-5.037-14.575-157.034-52.902-314.464-104.735-471.586-157.384-59.003-19.668-117.989-39.359-177-59-12.991-4.38-26.002-8.647-38.997-13.002-3.112-1.025-6.191-2.224-9.42-2.795-5.85.042-13.257 4.126-19.018 5.393-97.504 32.546-195.061 65-292.567 97.54-73.178 24.36-146.325 48.77-219.478 73.159-54.841 18.294-109.718 36.516-164.531 54.86-6.415 1.276-7.163 6.488-7.57 12-26.516 158.994-52.99 317.976-79.524 476.964A2145928 2145928 0 0 0 449 2668m610.5-144c129.721-22.225 259.848-56.576 375.5-121v120c37.195.705 75.377-2.209 109.908-17.459 7.788-3.045 17.596-6.622 16.092-18.36V2322c3.753.009 5.654 4.315 7.337 6.99 30.525 50.09 72.781 92.324 122.252 123.706 50.662 32.148 107.447 53.647 165.411 68.304 4.6-27.463 14.099-54.862 31.85-76.77 8.438-10.706 18.504-20.151 30.055-27.47 5.616-3.62 11.586-6.569 17.79-8.997 2.964-1.814 8.021-1.917 9.69-4.642.681-3.306.72-6.743.615-10.121-60.358-1.6-120.755-6.924-180.167-17.942-56.515-11.12-113.52-25.782-164.833-52.558l1.716-.5h295.2c11.393.164 26.84 1.102 32.084-14.5-34.305-32.475-70.455-62.964-106.5-93.5-11.985 15.31-22.981 31.426-34.576 47.03-4.381 5.905-8.63 11.881-13.015 17.774-3.736 4.968-7.72 11.129-11.502 15.393-1.527 2.495-6.517 1.358-8.784 1.803H1612.5l-1.5-.5c31.986-10.624 63.451-22.634 94.716-35.197 15.279-6.16 30.023-13.445 44.651-20.998 7.375-4.959 16.02-3.288 24.695-3.475 8.52-.246 15.619-5.06 20.938-11.33-38.617-18.837-79.112-34.565-118-53l1.467-.5c57.755-.658 115.816.822 173.313-5.586 25.102-3.44 56.962-8.978 66.307-34.373 3.802-12.674 2.65-27.66-5.324-38.495-8.193-9.59-20.018-15.576-31.763-19.546-.963-15.014-3.039-29.95-3.903-44.963-.288-1.552-.332-3.54-1.07-4.804-7.428-3.99-11.33 3.378-13.35 8.335-2.979 5.053-6.678 10.884-9.79 15.262-7.612 10.255-15.027 21.724-26.44 28.268-14.408 6.423-30.565 4.821-45.808 4.902h-74.33c-6.103-.104-12.238.236-18.313-.401-3.912-.454-8.233-1.431-10.936-4.574-3.518-5.31-1.285-14.1-2.06-20.03V2035c30.982-2.84 62.13-4.374 92.895-9.342 7.637-1.104 15.276-2.237 22.843-3.71 19.85-7.823 44.23 16.76 66.262-1.448-21.887-22.146-45.115-42.856-67-65 11.448-2.274 23.27-4.624 34.558-7.933 8.488-2.46 17.033-4.88 25.104-8.517 7.467-3.13 4.905-12.465 5.338-18.322V1856c12.79-1.828 24.62-7.472 33-17.5-35.907-28.327-74.215-53.664-110.5-81.5-8.509 8.816-17.945 19.648-25.754 27.723-4.63 4.573-9.258 9.115-13.332 14.188-3.386 5.216-10.84 8.92-12.414 14.089h-72v-66h210c15.407-.911 35.05 3.091 43.835-10.075 4.548-6.792-4.371-10.048-7.947-14.51-17.736-15.56-36.332-30.138-54.448-45.236-13.689-11.049-26.781-22.876-41.144-33.055-2.705-1.937-5.826-5.158-8.14-2.179-15.594 18.96-29.445 39.388-44.773 58.576-3.733 4.885-7.385 9.83-11.069 14.74-1.35 1.988-2.936 3.783-4.961 5.085-18.3 1.844-37.007-.318-55.399.654h-94.023c-9.458-.844-21.253 1.168-29.698-.971-2.48-6.42-.397-15.83-1.233-22.592.098-5.729-.126-11.473.082-17.194-.088-5.333 4.715-5.494 8.34-6.513 5.416-1.449 10.95-3.455 14.89-7.653 3.966-3.111 5.18-9.81 7.188-13.077 23.909 4.525 50.49 2.344 71.522-10.81 9.37-6.614 17.067-16.239 20.366-27.363 2.38-11.94 2.797-24.199 4.563-36.223 1.217-7.696 1.254-17.107 3.94-23.813 19.195-48.653 37.379-98.628 47.609-149.791 6.8 15.295 16.947 33.498 18.378 49.138.461 28.47-.17 57.126-5.096 85.23-2.477 13.521-6.573 26.7-10.146 39.943-4.825 12.761-4.606 26.715-.636 39.689 22.058 4.39 49.586 4.38 69.357-2.476 4.802-2.24 5.392-9.476 6.57-14.016 2.896-17.563 2.178-35.438 2.758-53.145-.135-21.965.405-43.874 2.414-65.742 1.181-15.68 2.955-31.327 3.823-47.032.669-11.357-5.497-21.372-11.22-30.588-8.064-14.315-17.225-28.222-23.07-43.641-3.353-8.518-4.973-17.597-4.632-26.75.657-9.118-.823-18.609.5-27.61 10.406 13.275 19.625 27.837 32.498 38.995 5.756 4.881 10.658 10.725 16.755 15.203 6.958 4.416 7.41 11.07 9.175 17.964 8.54 25.401 17.208 50.918 21.483 77.466.977 5.484 1.613 11.09 3.822 16.262 1.62 4.25 5.662 8.301 11.204 5.553 7.033-4.15 10.61-13.68 13.64-20.177 11.76-28.622 15.842-67.443 5.102-94.292-5.402-13.74-16.648-25.18-30.639-30.144-6.375-2.932-16.716-3.057-20.67-7.624-4.604-5.587-9.063-11.33-13.426-17.095-7.044-9.614-13.526-19.589-19.273-30.036-10.262-19.14-19.813-38.73-27.048-59.263-8.796-43.09-33.768-84.81-73.054-106.642-20.559-11.179-44.277-14.084-66.804-18.794-11.762-1.957-23.622-3.263-35.532-3.84-11.703-.355-23.723.024-34.94-4.049-4.136-1.519-5.243-7.892-8.409-11.844-4.803-7.75-9.871-15.326-15.758-22.302-5.64-6.205-13.294-10.027-19.949-14.938-11.433-8.375-23.369-15.987-34.91-24.191-8.29-6.057-18.76-11.82-24.793-18.823-19.8-25.502-32.5-55.947-45.974-84.889 30.555-15.07 58.259-38.753 70.635-71.611 3.453-8.37 5.613-17.48 5.791-26.535-13.991-22.007-37.328-36.705-61.432-45.485-20.752-8.131-43.063-9.613-64.994-7.869.153-13.109-2.733-26.066-2.795-39.15-.125-4.862 4.673-7.114 6.8-10.56 4.402-6.554 2.654-16.262-3.678-20.965-8.623-6.65-27.069-6.537-32.271 6.349-2.29 5.954-.87 12.5 3.145 17.259 3.602 4.133-1.99 11.948-2.4 16.194-2.7 6.846-4.247 14.175-7.301 20.873-13.456-7.695-29.144-10.673-44.29-12.414-2.699.293-3.618-3.808-4.227-5.681-1.505-5.004-2.807-10.06-4.192-15.087-.48-2.122-1.173-4.345-1.199-6.49 5.737-5.427 11.176-15.702 1.474-22.197-9.218-7.228-32.867-3.155-28.374 14.373 1.082 3.045 3.647 5.267 5.984 7.368 2.764 3.38-.462 11.05.266 14.879-.3 5.084-.818 10.167-.942 15.249-21.792 4.876-44.25 21.06-57.353 36.465a170 170 0 0 0-15.81 20.763c-4.313 5.513-7.067 13.405-10.814 18.542-23.164 11.91-48.662 23.36-64.54 45.383-17.442 21.58-22.266 52.503-11.63 78.333 9.98 23.505 35.558 36.2 59.71 38.797 27.18 2.867 54.352-1.333 81.437-2.283 11.877 37.029 29.912 71.982 45.28 107.616 6.852 15.599 14.384 30.882 20.994 46.583 3.093 7.449 6.912 14.564 10 22 1.421 3.461 3.518 6.733 4.047 10.493-1.21 15.87-4.664 31.823-4.606 47.875 1.345 64.092-.797 128.386.637 192.501 1.907 47.135 3.274 94.43-2.383 141.393-1.977 15.905-2.656 35.58-10.05 48.697-3.037 6.328-5.616 12.903-7.963 19.502-.902 2.965-2.078 6.762-1.223 9.62 1.455 6.609 12.85 6.483 17.43 7.734 13.236 1.625 26.622.686 39.91.955 10.122-.407 23.334-1.331 30.681-7.9 3.802-3.54 3.36-8.953 3.246-13.748-.265-38.113 1.785-76.187 2.134-114.287.486-18.728 1.523-37.415 1.879-56.134.207-9.318 1.146-18.619 1.363-27.928.993-8.658-.226-19.267 2.124-26.972 10.12 42.717 19.686 85.686 24.787 129.355 2.808 22.949 1.779 46.334-1.348 69.182-1.027 5.575-1.822 11.196-2.893 16.76-1.515 7.069-5.415 15.236-.226 22.866 3.653 7.21 9.308 12.913 15.18 18.337-2.934 2.138-1.576 7.177-2 11.081v61.09c-.278 2.827.536 7.994-2.437 8.889-26.559 1.255-53.33-.228-79.92.44h-60.416c-13.553-.108-26.017-7.069-38.93-10.403-36.962-13.63-74.876-24.983-111.797-38.597-2.05 101.804 1.953 204.051-3.71 305.83-4.118 92-22.136 187.2-74.79 264.67 2.4 2.563 5.052 4.842 7.334 7.5 31.599-16.918 62.237-37.197 87.768-62.602 26.236-24.384 45.58-54.744 63.398-85.398 12.31 25.955 25.738 51.785 37.5 78-9.22.328-21.048-1.015-25 7.5 29.216 24.305 51.176 66.302 56 100.5 6.056 1.365 10.913 6.152 17 7.5-73.923 1.426-148.052-.26-222 .5 1.519 8.846 5.319 17.178 7 26 83.568.76 167.55-.926 251 .5-36.44 44.615-81.127 81.873-128.895 113.741-48.385 30.969-100.046 57.256-154.105 76.759.59 3.66 3.03 8.348 4.5 11M1267 937c21.075 60.934 49.337 119.07 75.48 177.893 5.241 10.76 9.58 21.913 14.807 32.676 2.938 5.07 5.028 10.505 3.093 16.104-3.993 22.8-7.294 46.388-3.835 69.483 2.879 18.901 12.867 35.593 25.238 49.83 5.461 6.265 10.63 12.797 16.41 18.768 4.443 5.853 12.112 12.481 15.421 17.597 6.977 13.273 10.857 27.902 14.558 42.317 13.618 52.039 25.462 104.913 30.343 158.571 2.476 28.004-.147 56.07-6.018 83.441-.946 6.555 7.198 10.033 12.102 11.86 9.633 2.866 19.643 2.856 29.422 2.286 9.877-.179 17.64-6.989 25.979-10.826-3.609-30.092-4.125-60.627-7.102-90.804-3.726-46.293-7.813-92.869-3.208-139.34a378 378 0 0 1 3.559-33.316c1.459-7.753 1.467-18.617 10.296-18.716 24.611-2.566 48.678-8.33 72.455-14.824 7.634 31.796 15.272 63.691 19.829 96.133 1.739 12.057 3.467 24.193 3.164 36.41-.5 10.274-5.133 19.9-7.255 29.87-10.677 34.328-22.222 68.389-30.798 103.322-2.412 8.633-4.48 17.386-6.112 26.195-2 7.45 5.805 10.82 11.303 12.603 18.599 6.898 40.114 4.31 56.869-5.533 2.21-20.306 4.495-40.711 7.365-60.927 13.044-34.771 27.665-69.058 38.039-104.779 4.887-15.58 8.087-31.667 10.304-47.811 1.085-8.007 2.06-16.011 2.233-24.088.602-7.258-.317-17.987 3.074-23.27 17.92-19.716 38.09-45.33 44.782-69.386 6.686-24.808 2.797-55.79-5.71-77.37-8.697-19.413-21.738-37.252-39.649-49.147-15.415-11.804-34.773-15.753-53.369-19.217-17.894-4.17-36.138-5.216-54.435-5.27a270 270 0 0 1-44.19-8.602c-5.123-2.052-6.561-10.37-10.157-15.14-5.903-9.494-10.783-20.18-19.224-27.821-16.515-11.369-32.882-22.969-49.516-34.155a791 791 0 0 0-18.546-12.77c-10.35-7.638-17.324-21.73-24.384-30.835-10.274-16.75-19.743-34.052-27.494-52.132-7.397-18.214-17.805-39.957-19.123-58.28 17.898-3.104 34.004-12.572 48.348-23.225 14.485-10.5 28.448-23.743 33.652-41.48-11.68-10.027-24.126-19.285-39.12-23.821-13.467-4.219-30.294-5.397-43.14-4.045-6.056.935-12.107 1.997-17.864 4.13-5.323 1.37-10.478 6.862-14.85 2.847-7.012-7.271-14.139-14.59-23.388-19.057-16.126-8.363-34.819-12.752-52.817-9.528-25.836 5.59-45.871 26.392-58.194 48.629-3.688 5.106-6.205 12.536-10.515 16.515-17.195 8.813-35.336 16.809-49.705 30.167-11.82 10.596-23.714 24.262-22.38 41.453.061 12.015 8.125 23.923 19.62 27.774 18.4 6.08 38.193 2.416 57.062 2.457 19.082-1.473 38.2-2.459 57.291-3.816m-97.727-40.087c-.064 4.952 3.664 7.379 7.835 6.724 5.713-.522 10.64-4.185 13.997-8.606 2.241-3.083 4.424-7.279 2.878-11.148-1.083-4.474-8.674-4.104-11.62-2.854-6.329 2.412-13.12 9.1-13.09 15.884M1220 2095c23.139-1.065 46.384-1.914 69.48-3.428 2.707-.466 2.197-5.281 2.518-7.186.006-20.913-.001-41.842.002-62.75V1938h-35c-1.576 54.17-15.804 107.534-37 157m42-1246c-.052 13.478 9.732 32.156 28.84 27.14 13.816-2.944 18.4-17.834 16.916-28.91-.854-12.117-12.125-22.714-24.419-21.681-7.493.715-14.91 1.743-22.345 2.836-4.253.23-9.123 1.256-12.992 1.615-.475 7.66 3.78 18.85 14 19m-3 1063h80v-73h-79c.617 24.402-.283 48.689-1 73m1-99h79v-66h-79zm28 365.439c.036.574.222 1.108.562 1.561 16.263-.309 35.215 3.954 49.081 9.258 11.104 4.358 21.91 10.154 30.476 18.573 12.943 13.052 19.89 32.253 13.52 50.261-5.047 16.745-17.691 30.473-33.639 37.408 28.885 1.426 58.059-.26 87 .5v-132c53.24 4.833 106.69 9.698 160 14-1.405 17.973-18.486 24.929-34 26v92h15c9.463 1.174 13.47-5.632 17.649-12.461 12.428-17.765 24.141-36.04 34.719-54.981 10.465-18.827 21.774-37.453 29.632-57.558-26.338-2.633-54.873-.632-78.938-14.09-11.258-6.017-19.382-16.543-22.832-28.751-4.06-12.969-5.312-26.659-5.23-40.159-86.126 34.093-174.893 62.195-263 90.439m21.464-1232.375c1.375 11.083 9.635 28.005 24.55 21.23 10.83-4.471 8.577-15.007 4.212-23.375-2.188-2.834-4.704-7.05-8.78-8.695-3.892-1.47-8.796.18-12.105 1.509-1.978.883-4.393 2.19-5.36 3.619-1.183 1.697-2.677 3.698-2.517 5.712m11.995 58.44c1.043 10.747 5.34 20.82 11.237 29.558 6.053 11.191 19.034 13.2 28.059 5.366 10.339-9.74-2.957-28.755-8.096-36.968-2.565-3.695-5.457-7.67-9.862-9.313-4.25-2.048-10.756.794-13.612 2.61-3.082 1.892-5.425 5.292-7.726 8.746m19.81-100.567c.562 9.132 12.367 18.18 19.395 16.732 3.685.213 4.278-5.721 4.31-8.116.162-3.608-.23-7.23-1.516-10.62-1.295-6.062-6.215-12.513-13.987-7.979-3.493 1.69-8.237 5.207-8.203 9.983M1432 831.5c-8.93-10.077-28.821-13.002-39.05-13.455-7.132-.142-15.425 1.72-21.575 3.846-8.97 2.992-20.007 8.078-18.261 21.422.193 12.357 13.928 16.142 22.956 15.646 21.529-.958 40.006-14.317 55.93-27.459m-73.656 252.272c1.364 15.635 15.906 35.362 35.06 30.039 7.218-1.802 17.06-6.062 20.524-11.36 4.54-6.511-.15-17.615-2.717-23.003-3.513-6.868-8.976-15.64-15.961-18.22-7.739-2.425-17.831 3.13-22.998 6.118-6.128 3.226-14.157 10.125-13.908 16.426m4.856-105.297c1.13 11.977 10.1 23.64 15.551 32.517 3.59 4.477 7.416 10.528 12.24 13.01 2.351 1.67 6.68.625 8.635-.365 2.63-1.255 3.599-4.995 3.806-7.43-.271-13.903-10.702-27.97-16.66-38.509-3.349-4.155-7.249-11.492-14.143-9.463-4.718 1.247-9.451 4.93-9.429 10.24M1440.5 1223c-8.639-8.459-20.33-16.985-30.086-22.248-13.828-7.354-21.025 13.838-23.61 22.48-1.504 7.406-4.75 17.005-2.847 23.941 3.758 6.463 13.591 9.744 19.532 13.581 12.147 5.936 24.8 11.228 37.997 14.287 13.111 3.82 29.68-7.33 37.69-14.838 4.515-4.602 8.56-11.305 10.14-17.018 1.39-6.804.726-15.211-1.214-21.227-2.142-9.303-10.162-19.814-22.344-13.45-9.159 3.413-17.378 8.869-25.258 14.492m-45.366-69.04c.075 11.274 15.34 18.59 23.09 20.847 14.628 1.932 25.137 22.486 44.62 14.19 7.135-3.45 15.22-9.795 18.235-16.64 3.348-8.474-.761-15.752-5.183-22.784-6.445-9.606-14.82-17.907-25.03-23.466-11.06-5.705-24.31-2.492-34.316 3.88-8.992 5.37-21.468 13.642-21.416 23.973M1411 2010c5.74.62 9.126-5.976 12.108-9.8 3.403-4.56 6.646-9.23 10.053-13.775 10.108-13.806 20.069-27.747 30.339-41.425 29.986 22.94 57.694 50.023 86.5 74v-81h-139zm0 73c23.448-.324 46.797-3.449 70.21-4.52 22.913-2.121 45.917-2.953 68.79-5.48v-45.5l-.5-1.5c-6.267 10.912-20.375 9.936-29.974 10H1411zm19.482-779.945c.686 11.838 12.477 17.514 19.09 24.11 5.59 5.146 13.592 10.6 15.97 17.552 2.171 6.202-.96 12.416-2.137 18.461-2.334 9.281 8.79 19.337 16.883 14.474 7.087-5.206 9.331-17.725 10.377-24.19 1.39-11.328.258-23.413-6.388-33.085-5.028-9.03-15.432-16.382-23.908-20.014-8.005-3.062-16.966-4.545-25.49-2.783-2.345.625-4.466 3.245-4.397 5.475m.671-245.244c.358 6.246 5.127 13.254 8.538 19.252 5.683 8.753 12.657 16.73 20.701 23.398 8.243 6.594 18.286 10.464 28.71 11.785 4.068.386 8.11 1.14 12.195 1.248 10.267-1.011 6.42-12.907 1.58-17.082-7.523-7.452-16.275-13.576-24.16-20.612-7.601-6.81-15.417-13.423-24.16-18.741-5.13-2.974-12.195-5.702-17.726-5.45-3.351.376-5.852 2.7-5.678 6.202M1452 1813h89v-66h-89zm0 99h89v-73h-89zm49.225-762.663c-.005 6.416 5.657 8.885 8.377 13.706 5.845 9.01-1.672 18.475-5.271 25.462-3.854 6.443.33 15.114 2.751 21.202 2.044 4.277 4.676 9.56 8.03 12.426 7.44 5.215 14.925-5.9 18.735-10.296 4.648-6.167 8.041-13.236 11.091-20.297 5.166-13.562 2.082-31.183-2.436-43.184-2.199-6.443-7.696-8.078-13.524-8.584-6.054-.616-13.601-1.525-19.004.37-3.61 1.533-8.66 4.356-8.75 9.195m8.88 127.894c.337 11.614 10.479 26.365 25.22 24.657 16.256-1.924 26.676-16.573 38.646-25.65 5.788-5.573 14.588-9.215 20.426-13.508 4.73-4.067 8.393-10.618 6.179-16.891-8.49-17.349-33.64-21.338-49.094-11.43-8.591 5.28-16.903 11.098-23.852 18.461-6.622 7.221-17.424 14.872-17.524 24.361M1524 1646.75c1.8 2.452 7.156.352 10.257 1.54 15.175.982 30.613 2.986 45.743 3.21-6.112-2.108-12.13-4.517-17.643-7.951-5.901-2.923-9.214-9.475-14.857-12.549-6.41 6.85-15.307 11.932-23.5 15.75m27-106.25.5 1.5c9.074-29.85 18.501-59.579 28.386-89.179 5.387-15.659 1.33-32.287-1.092-48.167-2.214-15.85-6.958-34.116-8.794-48.654-7.424-.35-14.643 1.732-22 2-7.86 60.71-2.36 121.882 3 182.5m17.091-348.013c.159 11.347 12.109 15.797 19.865 18.828 7.316 2.266 17.17 4.21 24 1.421 7.24-4.094 6.505-15.28 5.13-21.972-2.815-12.23-9.074-23.443-16.732-33.27-3.028-4.07-8.053-8.921-13.028-9.095-4.058-.285-6.788 5.413-8.394 8.027-4.962 11.44-10.265 23.236-10.84 36.06m55.95 73.447c.856 13.81 2.82 29.988 6.797 41.943 1.023 3.47 3.182 6.31 5.845 8.637 10.13 1.236 19.02-9.38 26.339-14.328 5.036-4.524 9.942-9.637 13.005-15.759 2.157-7.12.144-16.054-.124-22.643-1.124-7.5-1.935-15.059-3.557-22.473-1.703-6.88-2.383-16.165-6.61-21.446-3.948-4.67-13.342 1.185-17.186 2.512-14.874 8.938-24.76 25.91-24.51 43.557m11.079-98.674c.036 6.283 2.42 13.568 6.642 17.287 4.93 4.252 11.524 5.898 17.884 6.121 6.56-.057 13.667-2.192 17.99-7.363 3.621-7.818-.885-13.192-6.614-17.098-8.14-5.053-19.571-7.058-28.224-6.953-5.117-.086-8.082 3.081-7.678 8.006m3.355 192.558c1.43 8.158 11.192 15.326 5.114 25.622-8.443 10.916 1.306 35.763 15.106 28.824 11.138-9.066 12.401-27.392 14.289-39.137.571-9.658 1.39-19.406.3-29.036-.398-3.357-.865-7.914-3.765-10.39-5.497-1.674-12.546 3.529-16.186 6.3-4.414 3.421-9.143 8.067-12.447 11.982-1.14 1.7-2.44 4.12-2.411 5.835M1655 1912h80v-73h-80zm21.5 85c11.692-8.29 24.281-15.648 35.977-23.993 6.09-4.317 12.188-8.573 18.183-13.01 6.574-4.435 3.553-15.344 4.34-21.997h-59c.734 19.56-.9 39.558.5 59m8.534-781.567c.635 13.997 5.694 29.795 10.845 41.27 2 4.76 7.117 15.052 14.71 10.85 6.097-3.214 10.068-10.887 13.09-16.065 2.804-5.954 4.654-12.605 4.069-19.217-.707-6.657-3.865-12.796-7.71-18.142-4.223-6.843-11.51-14.79-22.013-12.863-6.568.614-13.937 5.644-12.99 14.167" style="fill:#000;fill-rule:evenodd;stroke:none"/></svg>