<svg xmlns="http://www.w3.org/2000/svg" width="3000" height="3000"><path d="M204 2906.5c431.66 1.426 864.125-.26 1295.95.5 431.946-.76 864.184.926 1296.05-.5-71.347-421.454-140.17-844.031-211.186-1265.681C2515.49 1219.807 2443.894 799.05 2375 378c-18.825-4.147-36.622-12.377-55.173-17.557-141.343-47.107-282.688-94.208-424.008-141.343-105.996-35.346-212.02-70.658-318-106l-60-20c-4.743-1.483-9.392-3.202-14.133-4.67-4.689-1.596-9.296.594-13.846 2.121-144.162 48.092-288.385 96.1-432.543 144.19-72.152 24.045-144.327 48.113-216.478 72.159-35.996 12.013-72.02 23.992-108 36-18 6.028-36 11.971-54 18-9.01 3.004-18.013 5.972-27 9-8.742 2.234-18.56 7.118-26.819 8.1-68.995 421.677-140.705 843.07-210.109 1264.703C344.003 2063.481 275.132 2486.22 204 2906.5M329 2802h2342c-123.036-740.941-247.019-1481.777-370.274-2222.688-3.869-23.172-7.715-46.335-11.6-69.503-1.87-11.315-3.782-22.648-5.658-33.952-.522-3.125-1.046-6.23-1.573-9.342-.7-2.603-.642-7.073-3.071-8.13-87.426-29.928-175.45-58.357-262.998-87.942-153.344-51.126-306.685-102.189-460.007-153.343-14.539-4.787-28.996-9.687-43.52-14.495-6.115-2.813-13.363-4.96-20.864-1.257a4101622 4101622 0 0 0-329.17 109.723c-82.137 27.354-164.262 54.776-246.4 82.13C854.18 413.77 792.493 434.326 730.82 454.9c-5.645 1.806-12.378 2.56-12.51 10.243-29.845 179.014-59.658 358.033-89.495 537.038C529.059 1602.139 428.546 2202.041 329 2802" style="fill:#747474;fill-rule:evenodd;stroke:none"/><path d="M1009 2624c6.595.029 11.587-5.092 16.89-8.236 80.852-50.378 147.866-123.12 187.376-210.22 26.67-57.208 41.673-119.323 51.794-181.392 8.529-64.972 11.47-130.67 11.94-196.152h684c8.24-.051 16.9.672 24.67-2.678 6.295-2.657 13.624-9.616 11.315-16.15-38.99-34.047-81.577-63.789-122.59-95.26-5.078-4.173-10.664-7.634-15.802-11.716-2.108-1.133-5.362-4.66-7.404-3.255-14.06 15.72-26.504 32.98-40.183 49.056-12.217 16.758-27.583 31.858-39.006 49.003h-495v-155c116.55-1.503 233.018-6.85 349.036-18.034 41.84-3.584 83.49-8.733 125.08-14.48 18.936-2.442 37.732-5.81 56.582-8.765 8.605-1.37 17.189-2.824 25.693-4.707 3.904-.71 8.625-2.116 12.264-1.155 15.564 5.115 31.664 9.685 48.285 8.895 7.406-.39 14.87-1.551 21.673-4.659 2.497-.783 8.648-4.024 4.81-7.753-9.22-10.222-21.071-21.355-30.373-29.867-37.624-37.22-76.608-72.972-113.814-110.65-3.966-4.328-9.235-1.034-13.074 1.105-70.082 33.64-143.631 59.184-217.304 83.621-74.433 23.268-149.392 45.17-225.378 62.828-4.448 1.106-8.903 2.263-13.48 2.621-1.39-4.21-9.164-3.439-13.134-5.889-56.712-16.984-112.944-35.988-169.866-52.111-1.191 157.762 3.47 315.84-6.836 473.372-5.316 73.522-16.197 146.81-35.7 217.976-9.753 34.122-20.836 68.137-36.638 100.01-7.084 15.305-16.076 32.85-23.762 46.28a527 527 0 0 1-13.245 21.812c-1.89 3.657-5.567 7.993-5.33 11.404 1.337 3.414 5.854 7.078 6.511 10.146m188-1662c28.231 85.92 56.634 171.861 85.07 257.734 2.992 8.224 5.322 16.643 7.998 24.96 3.88 7.993 2.33 18.104 1.932 25.926.066 35.956-.785 71.864-1.193 107.806-.458 31.351-.907 62.725-.807 94.073-1.08 14.281 6.58 24.104 17.313 31.061 19.275 12.436 42.048 17.54 64.202 21.833 21.06 4.13 42.437 6.756 63.785 8.633 37.276 2.932 81.171 2.682 115.372 1.3 27.565-1.485 55.161-4.284 82.255-9.611 19.598-3.724 39.073-9.326 56.566-19.109 6.237-3.903 12.033-8.694 16.103-14.898 4.162-5.776 4.813-12.9 4.404-19.734.033-50.32-1.06-100.644-1.639-150.955-.356-17.258-.442-34.539-.372-51.788.183-6.655-1.755-14.784.581-20.634 30.978-95.682 63.346-190.957 94.43-286.597 20.586 3.587 43.444.975 60.447-12.075 16.473-11.808 26.692-31.547 28.033-51.648 2.041-18.785-2.361-38.895-15-53.428-11.352-15.322-33.67-25.007-50.83-24.845-10.017-.3-20.247-.488-29.844 2.935-27.361 8.402-47.348 35.205-47.662 63.773-.575 12.45 1.913 25.187 7.413 36.383 5.08 9.819 12.633 22.734 22.443 26.905-.695 4.55-5.043 9.411-7.434 14.212-20.598 35.169-41.637 70.074-62.29 105.205-20.673 34.806-41.351 69.65-61.776 104.583-.997-11.987 2.78-24.316 2.821-36.364 8.361-86.572 17.389-173.06 25.679-259.636 39.126 1.24 74.064-35.126 71.993-73.906.017-18.996-7.568-38.193-21.595-51.196-13.265-14.714-33.26-20.97-52.59-19.878-19.257.142-37.315 9.287-50.8 22.615-13.005 14.258-20.62 33.68-18.59 53.183.613 14.92 5.417 29.925 14.926 41.621 4.66 5.604 10.01 10.623 16.139 14.553a41 41 0 0 0 9.19 5.123c4.978 1.713 4.4 5.016 2.548 8.704-5.187 15.04-9.876 30.233-14.778 45.354-26.964 79.04-51.607 158.95-78.943 237.827-12.901-106.556-26.126-213.347-38.5-320 31.903-4.354 57.002-35.184 57.88-66.651 3.517-38.364-29.418-75.818-68.457-75.347-38.588-3.738-74.995 29.328-75.365 67.99-2.334 33.968 23.015 69.538 57.942 74.008-12.106 106.693-25.85 213.39-38.5 320-10.715-28.517-18.963-57.925-28.896-86.703-16.884-50.064-33.2-100.294-49.804-150.432-3.344-9.617-6.429-19.322-9.37-29.06-1.489-4.512-3.03-9.023-4.503-13.539-1.263-3.978-4.205-9.757.315-11.577 15.854-7.067 29.239-20.312 35.836-36.424 12.509-28.482 5.463-65.66-20.085-84.674-17.687-15.126-42.908-20.27-65.361-14.48-16.957 4.196-31.25 15.507-40.805 29.843-14.664 22.26-15.88 53.09-2.679 76.26 12.418 22.36 37.383 37.044 62.852 36.786 8.548 98.639 20.93 197.393 28.5 296-21.379-36.998-43.646-73.503-65.208-110.393-21.746-37.586-44.871-74.558-66.292-112.274 34.187-23.856 40.815-78.807 11.606-109.227-12.488-13.706-30.594-22.795-49.428-22.106-19.55-1.203-39.717 4.27-54.04 18.387-29.074 25.605-28.957 75.653-2.887 103.334 17.403 19.511 45.005 24.712 69.749 20.279m-60.664-80.517c.753 13.71 13.143 26.542 27.18 25.293 13.492-1.305 23.89-14.254 22.329-27.65-.96-13.515-14.642-24.233-27.985-21.673-11.724 1.895-20.957 12.019-21.524 24.03m145.92-84.502c.594 13.76 12.846 26.136 26.756 24.977 13.544-.071 24.472-14.136 22.8-27.144-1.245-15.371-14.815-23.336-28.025-21.64-11.854 1.088-20.934 12.2-21.53 23.807M1310 2642c37.033.127 75.21 1.541 110.725-11.079 7.812-3.085 16.833-7.312 23.65-10.869 4.677-3.289 11.668-6.921 11.588-14.088.106-21.988-.02-43.981.037-65.964h277v92c45.34.084 93.18.874 134.908-19.952 5.132-2.276 10.331-4.467 14.902-7.807 4.89-3.229 4.26-8.486 4.19-13.653V2247c10.912-1.774 21.92-4.963 31.222-11.13 2.45-1.572 4.803-3.347 6.581-5.679.866-1.486 2.663-3.485 2.7-5.066-3.11-4.662-9.719-8.422-13.558-11.881a4279 4279 0 0 1-33.77-25.686c-18.388-14.313-37.077-28.206-55.582-42.362-4.709-3.492-9.43-6.968-13.962-10.69-3.556-2.49-7.317-6.356-11.218-6.04-9.89 8.13-17.196 19.747-26.736 28.424-12.187 14.549-25.755 27.851-37.807 42.503-5.25 7.602-16.97 5.474-24.89 5.607h-211.41c-16.712.607-33.617 1.326-49.048-5.8-46.648-16.501-92.681-35.432-139.522-51.2zm16-1202c27.714-8.448 56.868-12.263 85.693-14.377 45.242-3.515 90.634-4.902 135.993-2.612 42.615 3.038 86.224 3.644 127.314 16.989-.267-5.237 1.41-13.483-3.736-15.464-5.386-1.967-11.016-3.182-16.548-4.614a877 877 0 0 0-83.934-11.117c-43.955-4.682-88.27-5.149-132.267-.769-21.017 2.23-42.117 3.773-62.998 7.124-10.3 1.844-22.5 3.509-31.89 5.443-4.983 1.465-11.158 2.509-15.456 4.637-3.697 2.558-1.357 9.995-2.171 14.76m1-61c56.189-15.366 114.838-19.85 172.911-20 58.49.6 117.28 5.648 174.089 20v-16c-26.757-8.59-59.962-11.867-85.434-14.831-44.35-5.156-89.168-7.236-133.774-3.956-42.65 4.616-86.418 6.536-127.792 18.787zm1-62c56.076-16.562 115.237-19.86 173.35-20 29.675-.323 59.292 1.322 88.819 4.093 28.006 2.47 56.084 7.245 82.831 15.907-.29-6.063 1.692-15.588-4.325-17.704-5.971-1.97-12.073-3.515-18.232-4.695-56.154-8.943-113.172-15.748-170.146-14.146-28.78.95-57.49 3.797-86.06 7.268-13.954 1.582-27.777 3.95-41.593 6.324-6.85 1.318-13.604 3.196-20.278 5.201-6.643 1.634-3.535 12.845-4.366 17.752m128.258-553.034c.574 13.629 13.107 26.227 26.911 24.84 13.333-.749 23.986-13.828 22.634-26.979-.56-13.768-14.417-24.008-27.585-21.94-12.135 1.083-21.465 12.165-21.96 24.08M1456 2509h277v-272h-277zm175.465-1711.503c.47 16.716 18.03 29.02 33.546 23.266 12.573-4.589 19.044-19.844 14.541-32.135-4.248-12.926-20.09-19.314-32.48-14.015-9.234 3.648-14.897 13.064-15.607 22.884m144.68 84.512c.623 13.354 13.016 25.332 26.288 24.847 13.086-.635 24.438-13.177 23.414-26.39-.259-13.46-13.151-24.714-26.52-23.208-12.256.993-22.99 12.362-23.181 24.751" style="fill:#fff;fill-rule:evenodd;stroke:none"/><path d="M328 2803h2344c-118.785-721.214-240.618-1442.068-360.03-2163.199-7.528-45.17-15.046-90.339-22.588-135.492-1.756-10.718-3.574-21.44-5.367-32.15-1.463-5.102-.632-13.609-5.65-15.42-82.419-27.818-165.08-54.96-247.546-82.639-144.35-48.044-288.615-96.253-432.954-144.3-27.19-9.095-54.376-18.14-81.566-27.195-6.024-1.707-14.13-5.746-19.294-4.368-99.967 33.09-199.81 66.647-299.74 99.834a5130220 5130220 0 0 1-448.968 149.67c-9.274 3.513-19.03 5.778-28.13 9.725-3.665 1.962-2.298 9.57-3.876 12.727-22.54 135.51-45.194 271.003-67.739 406.508C542.266 1518.848 433.622 2160.802 328 2803m675-190.5c1.178 3.97 6.538 6.499 7 10.5 6.598-1.205 13.4-8.326 20.47-11.646 50.124-32.85 96.139-72.677 131.232-121.633 35.613-48.774 63.542-103.353 79.194-161.853 28.357-97.46 35.507-199.796 35.104-300.868h686.4c11.974-.065 29.444.803 34.6-16.332-46.264-39.614-96.072-74.873-144.5-111.668-25.91 33.267-54.31 65.404-79.5 99h-497v-157c110.426-1.524 220.753-6.38 330.722-16.36 52.978-4.458 105.782-10.54 158.395-18.165 13.705-2.155 27.401-4.304 41.07-6.665 9.841-1.62 19.688-3.263 29.406-5.456 8.415-2.514 14.805.392 22.084 2.981 20.404 5.016 47.065 10.769 63.323-3.835-48.45-49.221-100.005-95.178-148.333-144.5-73.657 35.354-150.702 63.205-228.37 88.4-79.093 24.095-158.427 48.088-239.297 65.6.1-.93.422-1.769 1-2.5-59.684-19.948-120.687-36.974-180.5-56.5-2.59 154.457 3.5 309.512-6.731 463.835-4.206 72.79-15.36 145.1-33.175 215.78-17.303 66.453-43.924 131.55-82.594 188.385zM1198 961c28.263 86.051 56.741 172.127 85.2 258.135 2.975 8.293 5.365 16.74 8.056 25.118 3.894 8.02 2.167 18.184 1.745 25.99.087 35.731-.744 71.466-1.172 107.192-.431 31.473-.913 62.958-.829 94.426-1.004 14.346 7.017 24.045 17.726 30.978 19.373 12.297 42.12 17.369 64.303 21.66 42.484 9.067 85.95 10.149 129.12 10.936 32.173-.825 64.493-.434 96.435-5.4 23.12-2.843 46.282-7.128 68.39-14.625 15.131-5.863 32.66-13.029 39.861-29.024 2.92-6.314 2.038-13.449 2.165-20.166-.014-49.39-1.194-98.74-1.693-148.116-.533-17.21-.129-34.43-.46-51.629-1.892-13.537 3.134-28.602 7.547-40.171 29.631-88.687 58.475-177.628 88.106-266.304 22.262 6.783 48.502-.43 65.581-15.645 27.233-24.894 30.988-72.86 5.784-100.548-24.786-27.718-72.527-30.962-100.713-6.375-13.416 12.116-22.814 29.097-23.81 47.449-1.73 18.907 5.337 37.91 16.662 52.784 3.493 5.507 8.822 9.163 13.996 12.835-21.863 38.45-45.112 76.242-67.449 114.444-22.784 38.28-45.512 76.66-68.051 115.056 8.562-100.847 20.37-202.075 29.5-303 39.065 1.24 74.104-35.106 71.966-73.873-.486-18.773-8.346-37.314-22.336-49.997-13.188-14.126-32.82-20.204-51.722-19.06-18.779 1.008-36.723 9.838-49.655 23.402-12.476 14.134-19.861 33.255-17.694 52.306.817 26.822 19.458 53.23 45.441 61.222-32.322 98.687-64.57 197.501-97.5 296-8.108-54.04-12.902-108.702-20.338-162.863-5.607-54.447-14.285-108.64-19.162-163.137 31.903-4.352 57.002-35.186 57.88-66.65 2.583-37.469-29.994-73.366-67.858-73.345-37.92-3.204-73.172 29.747-73.942 67.393-1.852 33.511 23.61 68.191 57.92 72.602-4.85 54.123-13.424 107.95-19.046 162.004-7.378 54.558-12.373 109.59-20.454 163.996-32.726-98.571-65.373-197.249-97.5-296 29.503-8.765 47.065-39.882 45.711-69.316-.234-38.152-36.71-69.933-74.203-67.652-38.19.207-69.931 36.721-67.436 74.222.536 35.392 32.804 68.03 68.342 68.64 1.195.075 2.4.097 3.586.106 9.132 100.945 20.932 202.113 29.5 303-22.022-38.228-45.07-75.875-67.363-113.947-11.461-19.17-22.657-38.483-34.16-57.612-5.885-9.668-11.599-19.438-17.327-29.183-4.838-9.692-13.193-19.929-16.65-29.258 18.799-9.805 29.35-35.626 30.778-53.958 1.411-18.539-4.362-37.94-17.036-51.766-12.473-13.83-30.255-23.78-49.362-23.273-19.286-1.15-39.128 4.564-53.242 18.384-13.92 11.98-21.504 29.593-22.118 47.79-.295 18.873 5.412 38.142 18.149 52.387 12.487 13.783 30.875 22.688 49.682 22.434 7.07.179 14.12-.274 21.149-.998m-62.808-79.553c.342 14.555 13.234 27.7 27.97 26.457 14.53-.542 25.38-14.334 23.773-28.414-.133-14.569-14.524-25.434-28.451-23.281-12.862 1.213-22.956 12.322-23.292 25.238m145.956-84.435c.165 14.493 12.94 27.326 27.511 25.976 14.571.665 26.042-14.087 24.234-27.919-.54-16.491-14.909-24.679-28.79-22.983-12.725.376-22.9 12.519-22.955 24.926M1311 2641c36.758.157 74.682 1.405 109.845-11.46 7.563-3.098 16.356-7.187 22.936-10.751 4.68-3.028 11.368-7.01 11.2-14.416.053-21.788-.009-43.596.019-65.373h279v92c44.912.212 92.176.525 133.409-20.183 5.078-2.354 10.34-4.483 14.828-7.909 4.7-3.324 3.704-9.324 3.763-13.92V2246c15.299-2.262 31.248-7.788 41-20.5-20.525-17.05-42.652-32.165-63.369-48.994-21.62-15.072-41.633-33.176-63.631-47.506-13.885 15.118-27.575 30.666-41.394 45.895-6.304 6.412-11.709 13.59-17.987 20.008-2.921 2.926-5.133 6.56-8.411 9.127-3.172 2.666-8.88 1.824-13.443 1.97h-215.007c-16.74-.342-37.07 1.809-51.484-4.403-46.9-17.964-94.477-34.506-141.274-52.597zm14.5-1199c13.535-5.593 28.583-7.559 42.898-10.392 51.507-7.272 103.66-9.127 155.626-8.403 26.347 1.02 52.672 2.359 78.955 4.553 24.314 3.047 49.533 5.153 72.521 14.242.772-4.097.528-9.988.092-14.908-.563-4.62-9.37-4.615-12.306-6.258-41.378-9.657-84.054-12.08-126.21-15.891-39.328-1.904-78.694-.605-117.793 3.96-18.56 1.702-37.126 3.768-55.504 6.855-9.328 1.551-18.72 2.742-27.793 5.517-4.432 1.624-10.678 1.795-10.806 6.707-.11 4.356-.47 10.486.32 14.018m.5-61c56.23-16.841 115.417-20.188 173.715-21 58.803 1.214 118.375 5.036 175.285 21v-19c-26.914-8.66-60.317-11.893-85.939-14.875-44.852-5.206-90.165-7.121-135.265-3.912-42.652 4.618-86.42 6.534-127.796 18.787zm1.5-62c26.927-9.827 56.08-13.538 84.421-16.913 44.916-4.75 90.202-5.109 135.302-3.11 42.237 3.518 86.166 4.593 126.277 20.023 1.067-5.29.252-12.919.042-17.297-1.24-4.622-10.48-4.304-13.684-6.247-44.323-8.708-89.529-13.58-134.615-15.826-37.398-1.79-74.78.642-111.917 4.835a837 837 0 0 0-52.773 6.957c-8.796 1.577-17.567 3.117-26.087 5.881-5.722.837-8 3.036-7.453 7.987.234 4.276-.418 10.246.487 13.71m127.644-555.005c.17 14.44 13.255 27.399 27.755 25.897 14.343-.048 25.516-13.916 23.987-27.839.017-14.785-14.566-25.57-28.633-23.378-12.849.855-23.128 12.537-23.109 25.32M1455 2510h279v-274h-279zm175.326-1712.223c.415 15.57 14.602 27.347 29.638 25.135 14.56-.606 24.058-16.19 21.8-29.56-1.485-16.621-16.507-23.32-30.246-21.136-12.45 1.363-20.738 13.65-21.192 25.56m144.74 83.948c.052 14.281 13.041 26.802 26.966 26.223 14.005.156 26.054-13.17 24.899-27.082.41-14.574-13.237-26.465-27.562-24.711-12.87.6-24.366 12.384-24.302 25.57" style="fill:#000;fill-rule:evenodd;stroke:none"/></svg>