<svg xmlns="http://www.w3.org/2000/svg" width="3000" height="3000"><path d="M1100 2212c-1.31 38.932-8.311 78.662-25.925 113.758-12.173 21.426-35.967 47.1-22.63 76.78 9.298 23.185 36.973 27.456 57.19 17.611 14.13-7.327 22.985-21.724 28.346-36.207 7.54-24.389 7.061-55.12 4.35-78.143-3.25-24.336-10.603-47.801-18.537-70.93-1.481-4.598-3.25-9.119-4.936-13.64-1.427-4.628-3.095-9.98-9.76-9.217-2.684-.026-5.419-.002-8.098-.012m4-20c25.806-.227 53.485 2.059 77.522-9.773 8.16-3.973 16.392-8.178 23.203-14.299 6.9-5.437 3.075-16.67 4.275-24.168.501-3.135-.879-8.747 2.094-10.25 29.297-1.455 58.865.265 88.213-.51h66.53c6.548.96 15.134-1.46 20.163 1.5-4.526 25.126-2.678 51.543-8.5 76.5-12.142-17.573-31.717-28.624-51.109-36.345-10.95-3.872-22.102-7.132-33.53-9.19-5.683-1.077-11.388-2.557-17.183-2.84-4.748.71-10.708 6.432-10.678 10.375 20.938 14.21 38.182 40.36 50.171 59.796 3.41 5.7 6.087 11.776 8.525 17.932 3.97 8.544 2.964 20.833 15.498 24.532 8.742 3.468 21.566 3.898 29.306-.26-2.658 19.309-7.761 38.869-12.877 57.776-3.855 13.023-9.324 28.194-15.302 39.153-4.887 8.695-10.928 17.617-20.34 21.995-15.608 7.324-33.03 4.685-49.506 3.802-17.172-.669-34.324-1.89-51.475-2.726v15c20.444 4.618 42.631 12.558 54.934 30.982 13.797 18.973 11.603 44.114 12.066 66.018 24.01.398 52.699-2.27 73.275-10.914 32.841-11.403 58.78-36.651 73.922-67.53 16.201-31.697 25.297-66.556 32.448-101.245 12.025-58.429 16.896-117.945 21.355-177.311 9.865-.928 19.685-3.516 28.5-8 1.426 101.54-.26 203.401.5 305h-93c.19 7.73 3.98 16.296 5.5 23.13.816 5.358 6.794 5.175 10.492 4.87h429.756c23.168-.005 46.338.006 69.497-.003 10.272.422 23.553-6.268 21.292-17.147-6.034-7.933-14.158-14.156-20.77-21.583-19.684-19.932-40.257-38.891-61.65-56.948-6.645-6.818-10.61 2.28-13.95 7.405-11.076 16.83-23.078 33.15-33.667 50.276-1.426-143.245.26-286.717-.5-430h90.6c8.886.565 20.098-3.176 22.771-11.04 3.571-6.637-5.483-11.004-8.741-14.83-13.673-12.882-28.56-24.384-42.796-36.62-10.345-8.235-20.534-16.672-31.047-24.673-5.382-4.141-10.868-8.127-16.153-12.38-2.645-2.025-5.154-4.562-8.595-4.965-2.913 1.606-4.66 5.025-6.606 7.31-14.145 18.342-27.947 36.922-42.013 55.314-3.578 4.123-7.047 9.646-10.737 13.03-10.799 2.125-22.734-.132-33.769.854H1641v-184c43.146-3.608 86.276-7.71 129.208-13.405 16.399-1.97 32.721-4.585 49.028-7.132 7.137-1.274 14.272-2.585 21.396-3.88 6.138-1.12 13.024-3.629 18.521-2.21 12.305 3.732 25.146 5.536 38.011 4.44 5.214-.53 10.438-1.653 15.15-3.979 3.427-1.468 11.62-5.865 7.928-9.482-27.52-23.073-56.49-44.527-84.24-67.346-14.233-11.04-28.179-22.464-42.368-33.548-2.82-1.667-7.552-7.848-11.982-4.119-10.745 7.912-21.355 16.065-32.326 23.649-35.806 24.754-72.558 48.108-110.267 69.85-7.434 4.559-15.705 11.347-24.958 5.817-9.556-3.51-19.336-6.366-28.91-9.8-14.218-5.194-28.695-9.685-42.901-14.916-5.461-1.893-10.97-3.603-16.41-5.534-4.602-1.687-7.5-5.986-11.255-8.899-24.978-22.809-52.639-42.434-78.625-64.006 4.093-1.19 10.02.025 15-.5.64-8.2-.96-18.447.96-25.754 6.2-2.507 12.503-.4 19.047-1.246 9.882.117 19.79-.143 29.663.078 5.886-.362 5.56 5.924 5.33 10.316V1647h152v-24h54v27h118v-114h-41c-1.954-6.099-6.435-11.12-8.964-16.965-3.438-5.302-6.827-13.408-10.036-17.535 16.13-1.397 32.771.23 49-.5-.86-39.924-1.221-79.844-4.174-119.674-5.389-64.96-12.889-130.053-28.833-193.38-23.11-91.88-72.26-179.57-146.97-239.42-17.67-14.298-36.982-26.663-57.378-36.682-8.2-3.51-16.365-7.21-24.712-10.356-6.755-3.241-16.479-4.127-21.27-8.275-1.061-27.432-8.405-54.967-24.83-77.494-7.517-11.21-17.615-20.477-28.666-28.09-6.644-5.625-13.648-4.935-21.236-4.629H1439c2.618 15.186 2.1 33.507 1.528 47.547-.857 14.949-2.054 30.084-6.528 44.453h-4c-4.381-18.572-13.757-36.314-29.216-48.11-7.194-5.874-15.048-10.87-23.671-14.359-9.72-4.212-20.877-1.694-31.113-2.531 3.299 19.104 7.985 38.158 7 57.753.826 19.785-2.976 39.277-8 58.247-17.364 7.82-36.226 21.63-47.05 35.438-18.533 24.553-22.431 56.221-32.704 84.288-4.9 13.905-11 27.67-19.408 39.84-8.9 11.503-15.98 24.25-22.256 37.33-15.38 33.544-24.219 69.78-40.403 102.985-2.75 6.048 3.193 12.58 6.001 17.45 13.49 19.535 24.458 40.799 38.729 59.803 12.616 15.409 33.382 20.35 52.443 19.865 32.689 3.63 51.774-26.18 67.781-46.195 8.749-11.455 18.784-21.763 29.25-31.649 4.842-4.522 11.163-9.901 17.392-10.869 7.746-.768 15.492-1.523 23.226-2.407 16.327-2.25 33.21-4.352 47.936-12.362 13.143-7.437 27.505-21.7 31.063-35.517h2c8.15 33.406-11.672 58.4-32.597 81.306-7.293 8.838-16.045 16.345-23.878 24.67-13.684 14.427-27.626 28.622-40.77 43.543-9.424 10.915-19.312 21.844-26.292 34.545-21.193 40.681-29.946 87.38-29.463 132.936h46v1.5c-7.384 9.374-10.662 21.628-17.99 31.087-1.958 2.737-6.295 2.319-9.308 2.413H1334v114c28.607.76 57.478-.926 86 .5-8.19 11.035-16.84 21.849-25.171 32.794-7.915 9.027-14.012 19.787-22.49 28.286-5.59 2.94-11.842.373-17.884 1.42h-120.566c-12.413.991-23.8-3.908-35.067-8.568-31.738-11.3-62.856-24.969-94.822-35.432zm49 12c.933 14.886 5.728 29.38 6.836 44.29 3.26 24.947 6.083 50.064 6.136 75.255-.584 9.596-.387 19.292-1.552 28.834-.895 7.902-3.252 17.241 3.047 22.55 9.58 10.063 24.418 15.4 37.907 10.048 19.889-8.441 27.684-32.223 28.576-51.958 1.042-21.543-4.347-42.707-13.38-62.17-10.984-25.158-32.488-50.357-50.9-67.118-4.753-3.309-11.716-.107-16.67.269m105-361v-102h-49v93.998c.16 2.169-.05 4.957.956 6.752 6.77 2.602 16.695.315 23.82 1.25zm0 133v-105h-49v95.848c-.199 2.36.183 4.694.483 7.005 1.663 3.452 8.48 1.415 11.222 2.147zm-49 129h49v-102h-24.6c-7.515.83-18.432-1.164-24.4 1zm3 83c.008 5.81 3.637 10.782 5.933 15.858 16.75 37.484 32.468 76.505 36.425 117.755-2.89 22.305 31.105 32.395 45.85 20.178 18.222-14.034 18.7-35.906 15.066-56.533-10.122-44.203-47.013-75.724-83.846-97.937-2.694-1.663-5.567-3.35-8.788-2.74-3.74.496-6.933 2.856-10.64 3.419m12-964.5c6.04 10.492 11.249 21.764 17.684 32.102 4.447 7.542 9.758 16.818 15.97 22.082 5.75 4.377 14.402 5.58 20.774 6.129 11.23 1.107 23.207-.327 32.277-7.692 8.35-6.318 13.446-15.846 19.692-23.997 9.573-12.448 20.237-24.022 31.205-35.226 4.142-4.364 8.632-8.367 13.34-12.09 3.559-2.788 9.779-2.918 14.94-3.94 18.592-3.632 37.04-8.07 55.292-13.098 16.127-4.708 32.447-17.2 35.826-34.77h46c4.09 13.987 7.686 28.184 11.793 42.18 3.75 12.543 1.072 25.835-2.182 38.208-3.036 10.428-7.11 20.948-14.537 29.115-25.186 28.52-51.75 55.797-75.889 85.26-11.547 14.282-22.925 28.825-31.96 44.858-9.07 17.302-13.745 36.817-13.225 56.379h349.2c3.184-.078 8.526.296 8.444-3.525 1.914-104.56-8.11-211.049-45.198-309.613-24.58-65.704-64.657-127.18-121.122-169.85-28.16-20.952-59.407-37.85-93.066-48.097-4.231-1.058-9.155-2.372-8.002-8.414 1.722-16.1 3.156-35.602-.683-50.185-3.425-14.35-12.442-29.885-22.073-39.316-1.306 12.37.511 25.21-1.65 37.614-2.72 16.538-6.022 33.368-13.447 48.542-4.184 11.1-12.892 9.238-22.166 8.844H1403c.066-12.443-.034-25.039-3.303-37.139-2.696-11.168-9.92-20.256-18.197-27.861.79 18.567 3.062 37.908.443 56.67-2.216 15.085-4.39 30.705-11.582 44.408-3.572 5.714-9.723 9.178-14.727 13.464-9.035 7.193-20.278 17.848-25.992 25.285-12.159 18.312-17.987 39.904-25.521 60.285-4.52 15.259-9.69 30.575-19.811 43.143-30.145 37.794-37.957 88.665-60.31 130.245m51 16.5c3.266-13.396 9.923-25.82 17.777-37.045 4.142-5.65 9.167-10.56 14.228-15.379 2.438-2.44 5.547-4.114 7.95-6.583 3.265-2.77-.112-4.87-.955-7.993-17.682.584-36.338 4.29-49.947 16.523-6.237 5.908-11.054 13.304-14.136 21.29-4.078 9.402 1.613 16.846 8.851 21.726 4.697 3.594 10.02 7.468 16.232 7.461m147-218v-11c-14.897-3.357-29.288-9.648-44.68-10.475-10.942-1.045-24.65 1.05-33.125 6.886-8.301 5.535-7.77 14.11-7.113 22.405-.242 6.95 10.248 8.366 15.132 8.8 9.872.595 22.364 1.408 30.647-2.938 7.889-3.901 14.241-10.765 22.775-13.38 4.727-1.642 9.812-1.428 14.653-.58.56.091 1.151.189 1.711.282m-59 821c10.143 1.447 14.046-6.667 19.211-13.971 4.8-6.95 10.038-13.562 15.008-20.372 3.453-4.577 6.605-9.395 10.198-13.864 3.752-3.504 5.827-10.218 10.352-11.301 5.043.762 8.639 5.224 12.495 8.19 14.262 12.124 28.513 24.264 42.181 37.04 5.553 4.437 10.375 9.678 15.425 14.648 3.927 4.457 11.508 8.441 10.518 14.173-2.63 12.076-17.01 13.518-25.91 13.452-36.498.014-72.993-.002-109.478.005v105c9.863 1.369 13.665-6.58 18.732-13.632 4.853-6.609 9.728-13.228 14.578-19.829 6.002-9.447 14.247-17.866 19.69-27.539 4.55.103 8.706 5.163 12.803 8.181 14.116 11.93 28.156 23.944 41.648 36.543 5.719 4.365 10.32 9.984 15.76 14.648 3.672 3.777 9.807 7.579 12.307 13.385-.967 14.696-15.296 15.255-26.207 15.243H1363v102c4.76.079 9.511.075 14.212-.463 12.591-8.832 21.764-21.748 33.868-31.184 4.204-4.04 8.24-8.249 12.395-12.328 3.291-3.752 7.88-8.723 11.995-4.753 26.43 22.852 53.908 44.535 80.03 67.728 1.426-64.08-.26-128.602.5-192.763-.76-64.355.926-128.968-.5-193.237-11.55 4.968-25.112 2.032-37.31 3H1363zm13-225h49v-27h107v23h100v-23h106v27h50v-27c-.032-6.806.039-13.63-.02-20.434.494-6.87-4.312-7.253-9.37-6.566H1376zm43-86.5c108.02 1.426 216.825-.26 325 .5-3.539-9.535-9.784-18.045-14.184-27.209-2.802-5.232-10.666-3.52-15.593-3.791H1437c-5.103 10.272-12.216 20.735-18 30.5m254-93.5h63c.355-88.947-6.717-178.843-29.87-265.028-11.41-39.717-27.691-78.675-52.602-111.95-12.5-16.573-25.6-32.803-40.398-47.392-7.233-7.198-16.49-14.84-23.813-20.647-4.174-3.11-8.365-6.201-12.797-8.934-5.341-4.056-8.647.606-13.52 1.951.154 4.622 5.819 7.659 8.515 10.896 27.643 24.392 51.872 53.464 68.645 86.432 26.21 52.068 33.871 110.8 37.575 168.147 2.81 62.17 2.14 124.672-4.735 186.525m-32 1009h64v-409.2c-.017-7.993.021-16.008-.012-23.995.687-8.107-6.19-7.003-12.28-6.805H1641z" style="fill:#fff;fill-rule:evenodd;stroke:none"/><path d="M449 2668h2102c-110.242-665.144-221.837-1330.12-332.532-1995.186-3.476-20.835-6.96-41.682-10.42-62.51-1.682-10.253-3.434-20.498-5.126-30.74-1.284-4.301-.763-13.077-5.037-14.575-157.034-52.902-314.464-104.735-471.586-157.384-59.003-19.668-117.989-39.359-177-59-12.991-4.38-26.002-8.647-38.997-13.002-3.112-1.025-6.191-2.224-9.42-2.795-5.85.042-13.257 4.126-19.018 5.393-97.504 32.546-195.061 65-292.567 97.54-73.178 24.36-146.325 48.77-219.478 73.159-54.841 18.294-109.718 36.516-164.531 54.86-6.415 1.276-7.163 6.488-7.57 12-26.516 158.994-52.99 317.976-79.524 476.964A2145928 2145928 0 0 0 449 2668m652-455c-1.31 38.932-8.311 78.662-25.925 113.758-12.14 21.393-36.618 47.685-21.593 77.109 9.647 20.604 38.19 26.05 56.456 14.042 13.666-8.085 21.77-22.801 26.852-37.31 6.87-24.543 6.044-55.09 2.94-78.027-3.789-23.929-11.051-47.03-18.995-69.849-1.871-5.015-3.71-10.034-5.688-14.995-1.916-6.11-9.078-4.615-14.047-4.728m4-22c17.115-.056 34.375.848 51.278-2.387a93.2 93.2 0 0 0 37.946-14.743c4.499-3.24 10.372-6.422 12.79-10.925 1.869-5.734.431-12.442.986-18.409.2-4.837-1.614-12.595 5.786-12.49 43.57-.132 87.118.024 130.674-.046h32.966c3.131-.048 9.58-.291 9.042 3.543-2.491 26.086-3.723 52.63-7.968 78.457-12.586-16.823-30.018-29.508-49.649-36.999-10.58-4.09-21.518-7.384-32.617-9.666-5.704-1.05-11.343-2.449-17.083-3.219-5.042-1.258-10.116 3.546-13.151 6.384v1.5c20.938 14.21 38.182 40.36 50.171 59.796 3.41 5.7 6.087 11.776 8.525 17.932 3.97 8.544 2.964 20.833 15.498 24.532 8.876 3.978 21.767 3.64 29.306-1.26.808 9.31-4.005 20.334-4.754 28.782-3.945 16.5-7.62 33.154-13.684 49.053-8.21 20.893-17.78 48.047-49.39 48.813-27.226.362-54.47-2.8-81.672-3.648v13c20.444 4.618 42.631 12.558 54.934 30.982 13.797 18.973 11.603 44.114 12.066 66.018 46.406 2.25 95.903-12.612 126.367-49.491 29.2-36.597 40.902-83.425 50.833-128.072 12.454-59.086 17.22-119.365 21.8-179.437 10.545-1.118 21.24-3.743 30.5-9 1.426 102.54-.26 205.401.5 308h-93c.84 7.345 4.313 15.56 5.853 22.12 1.235 4.864 7.148 3.689 10.738 3.88h490.292c7.544.071 17.742.86 24.254-6.795 2.225-2.235 3.642-4.973 3.38-8.053-5.788-8.572-15.068-14.931-21.75-22.885-7.007-7.706-14.856-14.49-22.5-21.5-13.478-13.222-27.728-25.779-42.267-37.767-15.456 20.44-29.083 42.788-43.5 64-1.426-144.902.26-290.05-.5-435h61.8c10.415-.021 20.834.026 31.244-.014 11.131.59 18.588-5.31 21.956-14.486-34.161-31.434-70.446-60.57-107.5-88.5-11.224 13.85-21.528 28.471-32.568 42.457-8.05 10.748-16.04 21.534-24.41 32.02-3.528 3.728-10.859 2.132-16.416 2.523H1640v-186c47.647-4.192 95.382-8.502 142.752-15.286 24.09-2.673 47.855-7.503 71.608-12.065 19.451 2.624 46.11 13.24 66.64-5.149-38.164-30.887-77.007-60.957-115.282-91.697-3.615-2.826-7.119-5.794-10.773-8.56-3.535-2.495-6.738-6.159-11.186-6.765-26.95 20.487-54.995 39.627-83.505 57.879-21.717 13.718-43.672 27.073-65.997 39.801-4.118 2.124-8.92 6.036-13.1 5.134-17.857-5.28-35.138-12.446-52.892-18.043-13.166-4.422-26.197-9.257-39.437-13.474-8.669-2.45-16.358-12.289-24.627-18.61-23.064-20.031-48.069-37.744-71.201-57.665 5.499-1.288 11.41.122 17-.5 1.01-8.517-1.446-19.391 1.307-26.1 6.392-1.605 13.344-.496 19.895-.9 9.895.043 19.764-.053 29.653.029 6.668-.505 6.525 5.317 6.145 9.807V1646h150v-24h56v27h116v-112h-41c-2.19-6.604-7.037-12.097-9.77-18.467-3.339-5.8-6.88-12.9-10.23-18.033 16.53-1.387 33.407.22 50-.5-1.095-39.823-1.094-79.683-4.334-119.42-5.242-64.549-13.025-129.221-28.802-192.144-23.082-91.371-71.88-178.544-146.058-238.239-17.39-14.357-36.577-26.516-56.696-36.65-8.064-3.722-16.296-7.116-24.506-10.468-6.985-2.768-15.693-4.772-21.92-7.758-2.756-2.023-1.003-7.958-1.749-10.645-1.374-25.56-11.295-50.191-26.107-70.818-7.514-10.242-16.96-18.824-27.503-25.836-6.302-4.931-12.757-4.25-19.786-4.022-6.791.597-13.83-.764-20.539.5 1.748 2.926.92 7.8 1.508 11.67 1.018 25.824.262 56.9-6.508 79.83h-6c-7.618-37.808-42.883-68.765-82-65 9.08 38.008 9.92 78.261-1 116-17.364 7.82-36.226 21.63-47.05 35.438-18.533 24.553-22.431 56.221-32.704 84.288-4.9 13.905-11 27.67-19.408 39.84-8.9 11.503-15.98 24.25-22.256 37.33-15.233 33.198-24.007 69.07-39.963 101.958-2.938 5.908 3.479 12.431 6.176 17.364 13.476 19.511 24.416 40.81 38.791 59.698 12.805 14.99 33.468 19.531 52.33 19.084 7.464.284 15.201.11 21.975-3.49 22.555-11.26 35.344-34.092 51.248-52.3 7.967-9.026 18.03-19.228 26.401-26.421 4.409-4.284 10.01-7.01 16.24-6.896 6.813-.603 13.563-1.461 20.36-2.145 16.138-2.33 32.803-4.443 47.31-12.507 12.871-7.52 27.07-21.551 30.55-35.241h4c3.681 15.804 1.727 32.64-5.657 47.103-12.33 23.097-31.578 41.36-49.713 59.767-13.77 14.357-27.51 28.728-40.864 43.45-9.417 11.038-19.405 21.866-26.663 34.507-21.1 40.423-30.497 86.786-30.103 132.173h47c-1.965 6.105-6.44 11.142-8.982 16.998-4.373 8.09-8.896 20.852-18.135 20-10.638.005-21.254 0-31.883.002v112h87v1.5c-8.744 10.845-16.827 22.218-25.617 33.021-7.581 9.34-14.324 19.442-22.266 28.467-4.012 3.4-11.77 1.295-17.463 2.012h-121.766c-6.314-.098-12.963.68-18.937-1.81-37.07-13.76-74.003-28.243-110.951-42.19zm49 14c4.517 28.576 10.035 57.152 11.736 86.134 1.655 22.671 1.945 45.59-1.01 68.176-.157 3.562-1.403 8.625 1.22 11.855 8.923 11.333 24.605 18.366 38.682 12.717 21.044-9.47 28.688-35.535 28.372-56.664.287-22.562-7.727-44.38-17.61-64.278-11.81-21.269-30.19-43.876-47.053-58.483-4.607-2.432-9.646.155-14.337.543m105-361v-104h-51v77.291c.015 6.563-.018 13.092.01 19.647.221 1.945.103 5.617 1.811 6.422 16.227 1.79 32.869-.297 49.179.64m0 133v-107h-51v98.6c.17 2.293-.114 5.26.96 7.154 7.13 2.605 17.499.303 24.973 1.246zm-51 129h51v-104h-25.8c-8.332.965-18.436-1.299-25.2 1zm5 83c18.339 43.497 40.202 88.096 42.641 136.38-.866 12.181 16.576 19.564 25.277 20.318 18.018 3.004 32.593-17.217 34.367-32.6 2.782-17.797-1.944-36.004-10.184-51.69-16.577-32.87-45.95-56.242-77.033-74.383-5.536-3.365-9.793 1.161-15.068 1.975m269-1035h44c4.088 13.98 7.676 28.148 11.78 42.138 3.841 12.49.244 27.938-3.026 39.078-5.55 21.557-22.865 36.183-36.884 52.177-22.43 23.485-43.613 48.1-63.937 73.425-9.203 12.594-18.807 25.322-24.829 39.811-7.002 15.426-9.298 32.583-9.104 49.371h350.4c2.937-.12 8.927.486 9.146-2.992 2.323-105.36-7.884-212.791-45.1-312.146-24.98-66.132-65.274-128.608-122.813-171.03-28.365-21.374-60.42-37.457-94.315-47.925-5.73-1.402-5.712-6.029-4.433-10.565 1.81-16.323 1.907-36.009-2.24-50.59-4.044-14.763-13.325-28.124-23.645-38.752.733 23.419-.014 48.918-7.926 71.697-1.514 5.495-3.493 10.904-5.97 16.037-1.7 3.646-3.675 7.42-7.003 9.808-13.965 1.232-28.103-.164-42.101.458.762-21.482-.346-51.745-25-66.75 6.069 31.973 3.348 72.173-8.123 99.883-2.846 6.697-8.94 10.98-14.597 15.144-10.12 7.983-21.205 18.138-28.253 27.394-13.463 21.015-20.841 49.842-28.77 71.026-3.03 10.42-7.533 20.362-14.12 29.015-26.444 32.08-36.217 73.447-52.022 110.896-2.907 7.073-6.391 13.919-9.154 21.048-1.842 2.582 2.077 7.324 2.721 9.682 6.507 12.137 13.17 24.288 20.487 35.948 3.278 4.948 6.738 10.035 11.996 13.08 10.585 5.229 25.223 5.188 35.686 4.093 22.29-3.918 29.437-23.65 42.543-38.988 10.143-10.966 20.026-22.145 30.495-32.794 4.124-3.613 8.806-8.331 13.785-9.276 20.2-3.062 39.963-8.143 59.713-13.252 17.939-4.1 36.954-16.486 40.613-36.149m-208 85c5.847-24.676 21.83-45.767 42-60.5-1.32-1.315-2.607-2.645-3-4.5-17.43 1.127-36.126 4.694-49.086 17.615-5.856 5.974-10.588 13.202-13.312 21.133-3.708 8.245 5.28 16.123 11.204 20.352 3.567 2.476 8.11 5.489 12.194 5.9m146.5-218c.804-2.917.308-6.016.5-9-14.878-3.45-29.284-9.55-44.663-10.47-11.017-1-25.163 1.738-33.063 8.456-5.573 5.052-7.037 16.965-3.92 23.163 5.355 4.1 12.586 4.542 19.068 4.805 9.489.931 19.214.426 27.195-5.393 7.33-4.917 14.362-11.364 23.608-12.322 3.297-.09 7.426-.579 10.373.297.268.2.646.38.902.464m-58.5 823c5.232.102 10.895 1.068 14.393-4.877 8.802-12.335 18.126-24.299 26.975-36.592 4.646-6.169 9.205-12.402 13.882-18.531 7.803 3.389 15.467 12.807 23.71 18.516 12.803 11.71 26.156 22.822 38.773 34.717 4.713 4.515 9.061 9.413 14.069 13.607 5.987 3.554 3.028 10.382-1.248 13.624-8.48 6.738-20.07 5.383-30.085 5.536H1362v107c5.175.143 10.629.966 14.109-4.817 9.009-11.97 17.84-24.098 26.78-36.118 3.913-7.114 10.783-12.7 14.111-20.065h1.5c14.502 12.924 29.65 25.16 44.065 38.17 10.445 10.5 22.037 19.716 32.367 30.325 4.529 3.753.78 10.9-3.498 13.556-9.344 5.837-21.118 3.372-31.498 3.949H1362v104c7.427.102 15.966 1.456 22.022-4.814 15.409-14.915 33.314-32.547 47.478-46.186 28.737 23.074 56.26 47.908 85 71 1.426-64.974-.26-130.304.5-195.34-.76-64.817.926-129.919-.5-194.66-11.16 6.151-24.93 3.18-37.046 4H1362zm13-225h51v-27h105v23h102v-23h104v27h52v-27.6c-.006-6.995.007-14.006-.004-20.997-.168-2.102-.075-5.895-1.874-6.79-17.949-1.727-36.241.297-54.257-.613H1375zm42-86.5c109.356 1.426 219.485-.26 329 .5-3.737-10.09-10.123-19.198-14.936-28.797-2.794-5.743-11.202-3.979-16.44-4.203H1436c-5.34 11.028-13.117 21.857-19 32.5m147-544.75c27.77 25.414 55.346 52.696 73.095 86.624 28.028 52.099 37.447 111.83 41.094 170.078 2.853 32.38 1.372 64.957 1.811 97.398.154 31.814-2.292 63.59-6 95.15h61c.336-88.295-6.97-177.477-29.87-263.028-11.334-39.411-27.441-78.045-52-111.169-12.499-16.537-25.428-32.847-40.232-47.405a314 314 0 0 0-23.295-20.426 167 167 0 0 0-12.803-9.11c-5.183-4.295-8.2-.421-12.8 1.138zM1640 2448h66v-412.8c-.113-8.006.14-16.021-.08-24.015-.054-6.932-8.6-4.891-13.41-5.185H1640z" style="fill:#000;fill-rule:evenodd;stroke:none"/></svg>