<?xml version="1.0" encoding="UTF-8"?>
<!-- Created with Inkscape (http://www.inkscape.org/) -->
<svg width="25.522mm" height="29.157mm" version="1.1" viewBox="0 0 25.522 29.157" xmlns="http://www.w3.org/2000/svg" xmlns:xlink="http://www.w3.org/1999/xlink">
 <g transform="translate(-92.239 -136.63)">
  <text x="58.264248" y="26.922001" font-family="TKaisho-GT01" font-size="7.7611px" stroke-width=".26458" writing-mode="tb-rl" style="line-height:1.25" xml:space="preserve"><tspan x="58.264248" y="26.922001" font-family="'mgen+ 1p'" font-size="7.7611px" font-weight="bold" stroke-width=".26458" writing-mode="lr-tb" style="font-variant-caps:normal;font-variant-east-asian:normal;font-variant-ligatures:normal;font-variant-numeric:normal"/></text>
  <g transform="translate(-25.16 141.45)">
   <path d="m130.16-4.4452 8.2339 2.8438 4.117 25.595h-24.702l4.117-25.595z" fill="#fda" stroke="#000" stroke-width=".69845"/>
   <g fill="#fff">
    <ellipse cx="130.13" cy="14.757" rx="4" ry="2.5" style="paint-order:markers fill stroke"/>
    <ellipse cx="130.16" cy="6.5548" rx="3" ry="2" style="paint-order:markers fill stroke"/>
    <ellipse cx="130.16" cy="3.0548" rx="2" ry="2.5" style="paint-order:markers fill stroke"/>
    <ellipse cx="130.16" cy="16.805" rx="5.5" ry="4.75" style="paint-order:markers fill stroke"/>
   </g>
   <g transform="scale(.9824 1.0179)" stroke-width=".16063" aria-label="♟">
    <path d="m132.49 21.233q-1.264 0-2.3296-0.12536-1.0551-0.12536-1.8908-0.36562-0.82527-0.24027-1.3998-0.57455-0.57455-0.33428-0.87749-0.76259-0.2925-0.41786-0.2925-0.90884 0-0.40741 0.21937-0.81482t0.585-0.67902q-0.094-0.28205-0.094-0.69991 0-0.64768 0.45964-1.3998 0.47009-0.76259 1.1073-1.17 0.0522-0.54321 0.37607-0.94018 0.32384-0.39696 0.80437-0.51187 0.69991-0.8775 0.89839-1.8072 0.19848-0.92973 0.24027-2.0057-0.79393-0.24027-1.2222-0.67902-0.4283-0.44919-0.4283-1.0446 0-0.52232 0.30294-0.88794 0.30295-0.37607 0.84616-0.53277-0.76259-0.91928-0.76259-2.246 0-1.0342 0.43875-1.8386 0.43875-0.80437 1.2118-1.264 0.78348-0.47009 1.8072-0.47009 1.0237 0 1.7968 0.47009 0.78347 0.45964 1.2222 1.264 0.43875 0.80437 0.43875 1.8386 0 1.3267-0.76258 2.246 0.54321 0.1567 0.84615 0.53277 0.30295 0.36562 0.30295 0.88794 0 0.59544-0.4283 1.0446-0.41786 0.43875-1.2222 0.67902 0.0522 1.076 0.24027 2.0057 0.19848 0.92973 0.89838 1.8072 0.49098 0.11491 0.81482 0.51187t0.36563 0.94018q0.64767 0.40741 1.1073 1.17 0.45964 0.75214 0.45964 1.3998 0 0.41786-0.094 0.69991 0.36562 0.27161 0.58499 0.67902 0.21938 0.40741 0.21938 0.81482 0 0.49098-0.30295 0.90884-0.2925 0.4283-0.86705 0.76259-0.57455 0.33428-1.4103 0.57455-0.82526 0.24027-1.8908 0.36562-1.0551 0.12536-2.3191 0.12536zm-0.7208-1.358q0.20892 0.01045 0.34473-0.09402 0.14625-0.09402 0.14625-0.27161 0-0.16714-0.13581-0.27161-0.12535-0.10446-0.33428-0.11491-1.0028-0.06268-1.8699-0.25071-0.86705-0.18804-1.567-0.48053-0.18804-0.08357-0.34473-0.04179-0.1567 0.04179-0.22982 0.18803-0.0731 0.1567-0.0105 0.30295 0.0731 0.14625 0.24027 0.22982 0.74169 0.33428 1.6923 0.53277 0.95062 0.20893 2.0684 0.27161zm0.7208-2.2878q1.6192 0 2.8519-0.27161 1.2327-0.28205 1.9639-0.79392 0.1358-0.09402 0.16714-0.24027 0.0313-0.1567-0.0627-0.2925-0.10447-0.1567-0.26116-0.16714-0.1567-0.02089-0.33429 0.09402-0.67901 0.44919-1.755 0.66857-1.0655 0.21937-2.5698 0.21937t-2.5803-0.21937q-1.0655-0.21937-1.7446-0.66857-0.17759-0.11491-0.33428-0.09402-0.14625 0.01045-0.26116 0.16714-0.094 0.1358-0.0627 0.2925 0.0313 0.14625 0.16714 0.24027 0.73125 0.51187 1.9639 0.79392 1.2431 0.27161 2.8519 0.27161zm0-3.2384q0.98196 0 1.7341-0.08357 0.76258-0.08357 1.3998-0.28205 0.17759-0.05223 0.26116-0.18804 0.0836-0.1358 0.0209-0.31339-0.0522-0.1567-0.19849-0.21937-0.14624-0.07312-0.34473-0.02089-0.60589 0.14625-1.3058 0.24027-0.68947 0.08357-1.567 0.08357-0.8775 0-1.567-0.08357-0.68946-0.09402-1.3058-0.24027-0.19848-0.05223-0.34473 0.02089-0.14625 0.06268-0.19848 0.21937-0.0627 0.17759 0.0209 0.31339t0.26116 0.18804q0.63723 0.18804 1.3894 0.28205 0.76259 0.08357 1.7446 0.08357zm0-6.7902q0.5641 0 1.1386-0.11491 0.585-0.11491 1.2849-0.34473 0.16714-0.052232 0.22982-0.19848 0.0627-0.14625 0.0104-0.31339-0.0522-0.1567-0.20893-0.20893-0.14625-0.062678-0.32384 0.010446-0.52232 0.19848-1.0551 0.2925-0.52232 0.094018-1.076 0.094018-1.0969 0-2.1311-0.38652-0.17758-0.073125-0.33428-0.010446-0.14625 0.052232-0.19848 0.20893-0.0522 0.16714 0.0104 0.31339 0.0627 0.14625 0.22982 0.19848 0.6999 0.24027 1.2744 0.35518 0.585 0.10446 1.1491 0.10446zm-1.3789-4.2621q0.34474 0.052232 0.45965-0.39696 0.0836-0.30295 0.28205-0.48053 0.19848-0.17759 0.52232-0.28205 0.34473-0.12536 0.30294-0.43875-0.0209-0.18804-0.17759-0.27161-0.15669-0.094017-0.33428-0.041786-0.52232 0.1358-0.88794 0.50143-0.35518 0.35518-0.48054 0.90884-0.0418 0.16714 0.0418 0.32384 0.0836 0.1567 0.2716 0.17759z"/>
   </g>
  </g>
 </g>
</svg>
