<svg xmlns="http://www.w3.org/2000/svg" width="3000" height="3000"><path d="M244 2863.5c418.26 1.426 837.325-.26 1255.75.5 418.681-.76 837.643.926 1256.25-.5-137.483-816.352-271.828-1633.965-409-2450.5-141.513-45.746-282.358-94.352-423.703-140.74-105.839-35.248-211.646-70.575-317.47-105.817l-60-20a8496 8496 0 0 1-28.008-9.343c-4.68-1.543-9.347-3.083-13.982-4.729-5.086-2.015-9.193.742-14.014 2.193-139.528 46.49-279.049 93.006-418.557 139.507C931.703 319.858 792.72 367.853 653 413c-137.126 816.275-271.612 1634.71-409 2450.5m121-103c378.06 1.426 756.925-.26 1135.15.5 378.224-.76 756.71.926 1134.85-.5-76.741-453.454-151.165-908.013-227.36-1361.694-28.318-169.825-56.636-339.67-84.914-509.494-12.404-74.351-24.806-148.667-37.174-223.013-5.808-34.835-11.586-69.67-17.426-104.49-2.806-17.009-5.655-34.009-8.487-51.003-2.061-8.097-.64-19.437-9.177-21.482-131.865-43.994-263.778-87.9-395.636-131.881-115.321-38.443-230.674-76.858-345.973-115.337-10.828-4.817-25.392 3.12-38.034 6.794-99.317 33.105-198.64 66.201-297.954 99.3-86.85 29.002-173.745 57.9-260.6 86.871-37.993 12.7-76.016 25.304-114 38-17.528 6.855-36.304 10.872-53.484 18.502-3.065 2.546-1.722 9.059-3.405 13.135-91.308 547.827-182.596 1095.656-273.907 1643.478C432.872 2351.82 400.057 2557.407 365 2760.5m977-424.5h6v-5c-2.748-.27-6.459.965-6 5" style="fill:#757575;fill-rule:evenodd;stroke:none"/><path d="M1179 1322.5c-13.36 13.808-25.752 28.566-38.346 43.051-1.107 4.448 5.65 8.418 7.821 11.424l30.758 30.758c6.836 8.035 17.342 15.81 22.767 23.767-5.724 6.428-11.322 12.951-17.733 18.733-4.596 4.646-9.284 9.223-13.847 13.88-1.713 1.728-3.12 3.682-2.942 6.07 4.913 6.793 11.911 11.811 17.245 18.262 2.482 3.441 5.438 6.364 8.8 8.896 3.438.854 6.517-4.833 8.952-6.316L1232.5 1461l44.975 44.975 10.895 10.895c3.387 3.454 7.57 8.491 11.941 5.409 15.049-10.934 28.415-24.129 43.03-35.57 8.75-.364 18.983 4.675 26.927 5.61 137.87 35.878 275.837 71.333 413.768 106.956 34.49 9.504 69.416 17.48 103.907 26.947 12.905 3.258 25.995 6.373 38.698 10.144 9.562 13.231 30.936 42.233 53.855 29.235 17.463-9.858 10.82-33.438 7.15-48.312-17.639-50.436-33.416-102.43-33.26-156.415-2.061-53.825 6.11-107.387 6.615-161.115 4.844-78.507-7.293-157.944-37.446-230.643-28.693-66.226-67.827-128.916-120.157-179.218-1.834-1.912-4.563-4.356-5.398-6.398 6.21-5.757 11.857-11.986 17.389-18.362 2.962-2.414 5.813-6.85 9.067-7.638 6.224 2.625 12.239 7.186 18.832 9.41 27.858 10.494 58.268 11.352 87.621 12.748 3.161.093 6.302.218 9.452.281 2.312-.187 6.44.09 7.246-2.124C1966.234 798.927 1986.227 720.087 2004 641c-80.2 18.466-159.785 40.537-240 59 .506 23.07.683 46.32 4.04 69.19 2.961 21.42 10.297 42.942 24.96 59.31l-27.5 27.5c-58.36-50.043-129.435-85.094-203.676-104.187-60.172-15.452-123.175-17.087-184.624-9.819-44.913 3.895-89.643 10.47-134.711 12.469-35.08 2.197-70.494 2.572-105.402-2.068-24.722-3.254-48.612-11.426-71.815-20.281-17.036-6.612-34.061-16.96-53.085-14.84-15.563 3.199-17.47 21.615-15.524 32.984 1.399 10.17 7.604 20.87 13.385 28.028 5.064 5.479 12.051 10.92 17.336 15.224 9.786 5.466 10.395 20.206 13.803 29.655 3.053 11.012 6.13 22.032 9.118 33.054 21.358 77.862 43.03 155.647 64.356 233.515 21.52 77.478 42.27 155.551 64.339 232.766M1347 2332c-1.748 11.017-.585 22.293-1 33.378v58.753c-.031 7.277.169 14.555-.42 21.814-.35 5.694-.804 12.423-5.734 16.248-8.934 5.737-20.546 3.166-30.527 3.73-31.096-2.247-62.253-3.381-93.319-5.923.674 5.413-1.997 15.82 4.049 17.048 5.74 1.211 11.492 2.196 17.096 3.98 26.01 5.699 50.44 21.039 64.054 44.513 6.98 12.102 9.719 25.901 11.617 39.56 1.784 14.244 3.591 28.553 4.184 42.899 43.183-4.814 90.956-9.751 125.18-39.825 16.98-14.877 24.504-37.062 27.747-58.668 4.03-23.517 4.14-47.432 4.073-71.21v-160.63c.068-26.973-.082-53.943.045-80.906.101-6.124 5.032-10.419 8.265-15.221 10.226-13.508 19.497-27.684 29.19-41.54 12.708 3.845 28.15-.044 37-10 .478.482.96.927 1.5 1.328 1.573 20.02 5.898 39.884 5 60.097.076 8.11-.016 16.182-.361 24.277.481 6.754-1.538 14.492.457 20.316 13.95 16.183 33.96 28.259 55.162 31.501 21.541 2.571 44.721-3.948 59.844-20.121 31.254-30.817 32.325-81.108 14.203-118.727-13.68-29.245-36.438-53.336-61.511-73.089-23.06-17.545-48.899-31.253-75.384-42.852-5.385-2.547-11.036-4.412-16.474-6.81-5.434-2.997-11.66-.436-15.936 2.58 13.404 37.326 26.638 75.138 33 114.5-23.047-10.291-45.453-22.567-68.379-33.197-5.852-2.17-6.17-7.123-5.621-12.384V1842c8.056-.571 17.072-4.163 23.62-7.366 6.146-3.81 16.883-9.911 17.38-16.634-10.74-5.768-19.444-15.608-29.72-22.277-16.99-13.221-33.948-26.511-50.945-39.723-12.962-9.54-25.117-20.668-38.49-29.52-6.12-.484-9.635 7.586-13.64 10.926-14.4 16.288-28.662 32.702-43.076 48.964-4.336 5.307-9.853 5.01-15.75 4.63-17.692-.721-35.812.888-53.379-.5 19.746-15.879 38.78-32.706 58.13-49.056 7.125-6.19 14.661-11.916 21.49-18.44 6.682-5.434 12.61-11.753 19.422-17.011 5.605-2.746 14.659-2.925 21.39-6.446 5.806-2.522 11.622-7.484 15.086-12.088 1.51-2.386 2.846-4.939 3.525-7.695 2.207-7.176-4.607-7.277-9.384-7.435-39.476-5.677-78.964-11.255-118.427-16.946-20.829-2.137-45.027-7.508-64.232-8.383-1.117 44.11-5.765 88.113-10 132-36.079-11.587-70.878-27.649-107-39v439c-27.01-.025-53.985 2.405-81 2 .37 10.597 5.434 20.469 7.646 30.732 10.18 34.864 20.531 69.67 30.701 104.525a279 279 0 0 0 3.994 13.401c1.059 3.574 1.854 8.651 5.857 7.561 6.704-1.01 13.84-5.159 18.994-8.42 4.16-2.909 7.286-6.923 9.732-11.294 3.972-5.259 13.738-6.562 20.218-10.356 7.221-2.829 14.363-5.787 21.57-8.622 26.291-10.489 52.297-21.672 78.477-32.413 25.072-9.59 49.877-22.418 74.811-31.614-69.633 102.514-151.904 197.877-252.407 271.304-6.142 4.611-12.524 8.907-18.68 13.488-3.395 1.937-6.077 4.06-5.443 7.838 1.941 2.896 4.229 5.657 6.826 8.006 2.635 1.481 7.343-1.588 9.84-2.19 49.439-19.255 97.577-41.973 143.038-69.376 44.35-26.482 86.081-57.016 126.111-89.613 15.8-13.181 32.647-27.623 46.715-41.957m-135-1044c6.314-2.028 11.654-10.243 18.434-14.05 21.11-16.168 44.1-30.98 70.028-38.036 26.982-6.922 58.248-4.309 81.038 13.086 105.938-109.531 213.65-218.057 319.5-327.5-38.688-31.919-83.19-56.395-130.013-74.107-37.463-13.907-77.132-21.932-117.057-23.741-62.455-2.253-124.823 5.054-187.184 6.702-60.815 3.559-123.602 9.192-182.746-9.354 19.695 78.235 43.56 155.612 64.053 233.685 20.785 77.865 44.032 155.28 63.947 233.315m-15 77.469c11.773 11.87 23.7 23.676 35.5 35.531 38.427-41.494 79.632-80.41 118.5-121.5-23.303-13.134-49.64-1.383-68.38 9.65-32.547 18.55-62.854 51.312-85.62 76.319M1223 1917h122v-96h-122zm0 129h122v-99h-122zm1 126c34.201-.638 68.268-4.72 102.449-5.852 8.025.662 11.266-9.232 14.72-14.92 6.811-10.76 4.46-24.115 4.831-36.253V2076h-122zm38-741.542a8420 8420 0 0 0 33.39 33.38c1.392 1.246 3.402 2.767 4.917 2.673 10.621-8.126 20.268-17.489 29.668-26.986 13.91-14.203 27.794-28.798 38.578-45.61 10.938-17.842 20.443-38.225 19.168-59.765-.107-8.457-3.97-16.1-5.721-24.15h-1.5c-39.838 39.779-78.677 80.75-118.5 120.458m116 19.128c.004.505.133.998.414 1.414 173.743 45.195 347.662 90.531 521.586 135-3.75-13.41-9.557-26.397-12.589-40.079-27.719-108.208 5.804-221.462-12.334-330.384-8.027-51.71-26.437-101.696-51.543-147.447-24.585-43.047-53.853-85.054-91.034-118.09-106.267 110.336-214.877 218.502-321.5 328.5 9.555 12.032 14.925 29.849 17.449 43.41 4.764 47.69-18.215 93.789-50.449 127.676M1716 1938v333c-.932 55.379 1.137 110.908-.614 166.227-2.267 15.302-23.933 11.333-33.646 11.702-39.859-2.586-79.955-2.666-119.74-5.929.016 2.82-.023 5.627.02 8.434.279 1.801.09 4.385 1.293 5.672 5.645 1.911 11.661 2.898 17.45 4.328 15.687 4.28 31.643 8.855 45.462 17.696 19.975 12.413 36.789 30.699 43.798 53.51 7.604 24.135 8.547 49.548 11.977 74.36 26.41-2.666 52.903-5.817 78.606-12.669 35.756-8.532 74.385-28.177 88.09-65.054 14.301-38.648 13.192-80.564 13.304-121.045V1938h112.2c9.506.083 23.426-.42 28.472-11.853 2.382-4.59.677-7.485-2.386-10.785-16.721-21.815-35.339-42.14-53.52-62.682-7.679-9.59-17.011-17.682-24.897-27.073-3.156-3.565-6.65-6.798-9.971-10.206-2.055-2.846-6.757-6.59-9.272-1.336-13.839 22.69-26.055 46.426-40.126 68.935-1.426-61.155.26-122.756-.5-184 15.138-3.46 35.444-7.575 37-30-30.346-3.884-61.06-5.664-91.489-9.043-30.541-2.173-60.91-6.83-91.511-7.957v256h-233c.98 8.77 4.733 17.073 6.67 25.63 1.567 5.752 8.386 4.156 12.706 4.37H1716m199-1101c10.697-46.565 22.876-93.589 33.5-140-46.547 13.12-94.835 23.016-141.5 36 .355 14.538 3.13 28.988 5.822 43.22 6.117 19.246 20.399 34.947 37.126 45.81 18.337 11.312 40.608 13.127 61.532 14.855 1.17.08 2.36.102 3.52.115" style="fill:#fff;fill-rule:evenodd;stroke:none"/><path d="M1222 2075.375c3.676 2.924 10.292.845 14.532 1.625H1345c.758 22.572-.925 45.545.5 68 2.82-4.15.68-11.515 1.5-17.09V2075c-41.588.57-83.514-.694-125 .375" style="fill:gray;fill-rule:evenodd;stroke:none"/><path d="M364 2760.5v1.5h2272v-1.5c-68.931-409.09-136.257-818.54-204.874-1227.691-51.076-306.848-102.33-613.661-153.4-920.497-4.868-28.824-9.564-57.688-14.431-86.508-1.116-7.008-2.365-13.985-3.488-20.978-1.2-6.774-.246-15.245-9.425-16.859-109.868-36.632-219.702-73.24-329.563-109.867-95.996-32.013-192.02-63.992-288-96-41.993-13.978-83.98-28.011-125.966-41.994-5.663-2.605-10.407-1.693-15.513.621-156.173 52.06-312.354 104.114-468.521 156.173-58.68 19.531-117.334 39.097-175.992 58.657-25.668 8.506-51.298 17.139-76.962 25.643-6.176 2.075-12.369 4.11-18.537 6.195-3.02 1.124-6.483 1.813-8.8 4.255-62.934 375.423-125.132 751.075-187.889 1126.544C490.857 1998.664 428.048 2380.37 364 2760.5m777-1393c20.315 21.834 43.472 41.62 63 64-5.92 6.494-11.514 13.24-18.102 19.102-5.459 6.615-13.222 11.732-17.898 18.898 9.418 8.622 17.777 18.24 26.5 27.5l38-38c22.224 20.705 42.162 44.014 65 64 12.383-9.694 24.414-19.875 36.247-30.214 2.828-2.237 5.919-5.161 8.574-7.116 2.414-2.37 7.206.92 10.823 1.125 120.242 30.793 240.263 62.296 360.488 93.122 45.275 11.384 90.35 23.459 135.584 35.002 19.758 5.183 39.596 10.017 59.343 15.231 4.662 1.382 9.333 2.659 14.06 3.77 4.713.694 7.193 4.155 9.823 7.905 10.369 13.364 25.763 30.433 43.69 24.393 7.554-2.828 13.62-9.772 14.67-17.922 1.747-16.958-5.489-32.737-10.135-48.48-10.246-29.482-19.873-65.163-24.266-93.463-6.941-57.89-.992-116.282 2.264-174.154 2.978-43.642 3.245-87.577-1.876-131.067-7.21-61.816-26.57-122.25-56.033-177.011-13.533-25.574-28.428-50.66-46.29-73.491-8.436-12.355-18.364-23.468-28.25-34.618-8.837-11.846-21.272-20.954-30.216-32.512 9.445-9.204 18.372-18.872 27.333-28.5 33.588 21.22 74.685 22.869 113.207 23.816 4.666.227 10.282 1.055 11.05-5.209 8.283-32.665 15.313-65.643 23.585-98.308 10.1-44.544 21.728-88.762 31.825-133.299-79.306 19.688-158.544 39.973-238 59 .651 23.105.686 46.416 4.385 69.3 3.127 21.084 10.777 42.394 25.615 58.2l-16.87 16.87c-2.772 2.732-5.458 5.51-8.244 8.21-1.363.913-3.076 2.862-4.465 2.92-23.615-17.026-46.67-36.812-72.963-50.259-50.971-29.922-107.511-50.176-165.587-60.686-52.705-8.923-106.327-8.047-159.217-1.531-45.515 4.666-90.981 10.015-136.688 12.133-40.063 1.057-88.159 1.753-123.925-8.58-16.374-4.637-32.426-10.318-48.21-16.641-14.618-5.78-29.439-14.56-45.81-12.646-16.343 3.888-17.585 24.12-14.373 35.883 3.277 13.766 12.391 24.727 23.264 33.19 4.21 4.604 12.14 7.458 13.986 12.732 27.059 96.791 53.395 193.777 80.277 290.616 13.415 48.475 26.448 97.045 40.015 145.463 6.553 24.223 13.28 48.371 19.985 72.537 1.214 6.39 5.55 13.272.78 17.777-12.214 13.319-24.522 27.153-35.955 41.012M1022.25 2535c60.045-23.057 118.671-50.774 172.664-85.962 26.797-16.455 51.83-35.569 77.045-54.269 12.583-9.953 25.134-19.937 37.409-30.263 6.37-5.139 12.418-10.672 18.582-16.035 6.007-4.558 12.176-11.739 18.05-15.221 2.2 10.958.134 22.415 1 33.489v58.178c-.04 7.293.172 14.572-.405 21.84-.32 5.784-.795 12.57-5.775 16.468-8.78 5.683-20.14 3.125-29.953 3.755-31.262-2.377-62.658-3.091-93.867-5.98.028 3.039-.042 6.005.04 9.03.057 1.86.463 4.43 1.653 5.463 5.625 1.276 11.407 2.345 16.992 3.856 26.558 5.474 51.533 20.28 65.831 43.983 7.354 12.208 10.31 26.284 12.217 40.22 1.828 14.427 3.669 28.911 4.267 43.448 24.076-2.987 48.31-5.485 71.669-12.454 32.306-8.729 64.864-29.871 74.038-64.182 11.093-36.538 9.115-75.213 9.293-112.845v-217.57c-.887-11.05 10.908-21.557 17.363-31.966 7.075-9.41 13.52-19.274 20.137-28.983 12.349 2.916 29.71 1.417 38.5-12.5-21.53-14.002-46.496-22.419-68.88-34.947-2.142-1.13-4.423-2.137-6.197-3.823-2.144-9.986-.01-20.714-.923-30.866V1841c7.734-.525 16.366-3.961 22.707-6.905 6.272-4.237 15.776-8.835 18.293-15.095-39.993-28.477-77.664-61.487-117.47-90.49-2.088-2.484-5.613 1.192-7.125 2.8-15.287 18.287-31.547 35.722-47.072 53.799-2.024 2.127-4.052 4.256-6.494 5.894-5.405 1.815-11.78.512-17.44.997-17.037-.727-34.48.894-51.399-.5 23.471-19.869 46.881-39.816 70.389-59.631 5.838-5.265 12.01-10.135 17.737-15.506 4.405-3.669 9.287-8.317 13.299-11.695 8.346-3.31 18.353-2.958 25.815-8.805 7.737-4.399 13.055-11.658 14.76-20.363-30.768-6.455-63.24-8.646-94.367-14.205-32.296-3.707-64.282-10.266-96.633-13.295-1.024 44.455-5.984 88.757-10 133-35.452-13.242-71.308-26.09-106.5-40-1.426 146.209.26 292.72-.5 439-27.01-.025-53.985 2.405-81 2 1.62 13.595 8.056 26.282 10.77 39.661 6.035 19.272 11.129 38.844 17.174 58.107 6.44 18.765 10.146 38.933 17.556 57.232 9.483-3.5 19.972-7.161 26.392-15.71 5.134-9.555 13.924-11.207 22.736-14.926 59.946-24.256 120.017-48.654 178.872-75.364.235.488.42.968.5 1.5-37.589 55.978-79.322 109.227-125.138 158.702-46.663 49.111-97.028 95.451-153.862 132.798.44 3.865 5.029 7.177 7.25 11m190.25-1244c19.75-17.173 40.468-33.742 64.359-44.933 21.907-10.184 47.217-16.317 71.303-10.355 10.438 2.03 20.215 6.437 29.339 11.737 5.038 4.157 7.979-.673 10.793-4.15 53.36-53.043 105.216-107.417 157.939-161.032 13.806-13.01 26.524-26.987 39.637-40.637 38.83-40.09 79.08-79.488 117.13-120.13-38.53-32.54-83.602-56.878-130.529-74.91-37.797-14.084-77.853-22.23-118.17-23.962-62.733-2.25-125.376 4.975-188.01 6.683-61.402 3.982-124.777 9.214-184.291-10.311 20.63 78.924 43.811 157.335 64.91 236.167 22.493 78.395 42.836 157.59 65.59 235.833m-17.5 74.453c12.418 12.559 25.046 25.015 37.5 37.547 39.419-41.88 80.636-82.038 120.5-123.5-22.79-15.096-50.505-2.793-69.45 7.486-34.435 19.84-61.912 49.754-88.55 78.467M1222 1918h124v-98h-124zm0 129h124v-101h-124zm1 126c34.16-.354 68.163-4.64 102.299-5.739 3.785-.13 8.454.134 10.517-3.979 2.93-5.776 7.498-12.062 9.51-17.679 1.918-23.07-.346-46.468.674-69.603h-123zm37-742.542c12.605 12.974 25.805 25.478 38.333 38.542 13.735-7.354 25.4-22.684 36.037-31.87 16.638-16.27 31.632-34.459 42.589-55.044 12.02-21.349 16.414-48.06 6.157-71.03A4.95 4.95 0 0 0 1381 1308c-21.195 19.333-40.525 40.887-60.733 61.233-20.666 19.806-40.31 40.85-60.267 61.225m115 20.917c87.577 23.096 175.922 45.587 263.67 68.533 44.211 10.954 88.07 23.15 132.282 34.087 21.887 6.546 44.328 11.036 66.275 17.311 22.04 4.304 43.673 12.901 65.773 16.194-23.299-53.17-27.797-112.494-25.396-169.818.93-45.443 3.808-90.833 4.178-136.274-.687-64.797-15.418-129.071-43.464-187.548-26.457-53.892-60.885-105.7-105.818-145.86-75.036 78.527-152.774 154.613-227.975 232.975-19.307 19.218-37.916 39.086-57.258 58.258-7.337 7.122-14.502 14.4-21.17 22.122-3.182 3.295-6.493 6.492-9.7 9.747-2.55 2.635-7.34 6.415-4.978 9.63 8.096 13.392 14.113 28.23 16.247 43.798 4.125 47.999-21.07 92.766-52.666 126.845m109 458.125c3.694 8.763 4.033 19.559 8.804 26.847 10.548 1.606 21.494-.082 32.12.653H1717v334.2c-.929 55.649 1.133 111.43-.612 167.018-2.128 15.143-23.376 11.374-32.945 11.764-39.805-2.458-80.368-2.61-119.943-5.982-.651 2.617-.57 6.39-.167 9.558-.197 3.57 6.076 3.708 8.296 4.575 32.803 6.081 66.273 19.735 86.373 47.903 10.928 13.587 15.09 31.023 18.23 47.73 3.84 17.198 3.893 34.947 6.768 52.234 28.321-3.2 56.702-6.787 84.19-14.613 19.613-5.982 38.99-13.956 54.81-27.387 24.98-20.308 33.685-53.106 36.593-83.748 3.124-34.03 1.967-68.286 2.407-102.41V1937h112.2c9.493.073 23.416-.403 28.456-11.844 2.19-6.389-6.415-12.636-10.05-18.685-14.9-18.41-30.767-35.946-46.514-53.598a2291 2291 0 0 0-19.449-20.751c-6.474-6.726-12.199-14.397-19.643-20.122-15.931 24.384-29.162 51.132-44.5 76-1.426-63.21.26-126.733-.5-190 14.55-3.537 33.337-6.878 37-27.5-29.606-5.205-60.507-5.327-90.389-9.451-30.235-2.272-60.333-6.5-90.611-8.049v256h-233zm32 99.75c18.064 44.1 30.66 90.83 36.99 138.108 3.052 18.835 3.311 37.93 3.005 56.936-.047 8.573-.624 17.115-.803 25.67-.445 7.22 8.1 11.807 12.583 16.192 20.253 17.977 49.27 26.52 75.34 16.772 39.619-14.364 58.13-61.536 50.225-100.681-6.604-40.691-33.796-74.031-64.259-99.818-30.665-24.853-66.476-42.993-103.252-56.898-3.559.067-6.453 2.75-9.829 3.469zM1916 838c10.873-47.4 23.144-94.599 34-142a11982 11982 0 0 0-144 36c.141 14.185 2.64 28.296 5.151 42.21 4.758 20.814 20.661 37.281 37.797 48.82 18.148 11.578 44.054 13.576 63.101 14.905 1.328.052 2.637.066 3.951.065" style="fill:#000;fill-rule:evenodd;stroke:none"/></svg>