<svg xmlns="http://www.w3.org/2000/svg" width="3000" height="3000"><path d="M448 2669h2104c-108.019-653.996-218.137-1307.761-326.618-1961.691-6.813-40.83-13.621-81.671-20.41-122.502-.9-5.185-1.732-10.375-2.627-15.558-.693-5.948-7.25-6.546-11.566-8.162a2264805 2264805 0 0 1-451.953-150.644c-56.522-18.824-113.032-37.715-169.56-56.514-12.477-4.17-24.972-8.31-37.44-12.486-6.015-1.98-11.998-4.026-18-6-5.943-1.873-12.256-5.247-18.565-3.023-92.812 30.91-185.585 61.892-278.396 92.78-138.737 46.826-278.12 92.047-416.698 139.266-3.665 1.962-2.298 9.57-3.876 12.727-22.4 134.514-44.811 269.006-67.243 403.502C635.746 1543.503 540.855 2106.166 448 2669m608-575.735c12.295 20.467 26.848 39.73 39.054 60.287 12.61 20.268 27.019 39.881 38.946 60.448 13.53-2.215 17.5-16.814 20.663-26.48 31.666-29.995 64.473-58.844 94.707-90.39 15.999-15.206 30.932-31.39 46.23-47.232 7.459-7.904 14.552-16.108 22.015-23.996 4.038-3.679 7.399-7.934 10.998-12 3-3.214 8.194-7.706 3.887-12.902-46.198 14.592-91.374 32.653-137.635 47.2-46.162 15.264-92.67 29.79-138.865 44.8zM1066 2302h361v218c21.221.467 42.5.326 63.476-3.25 15.134-2.742 30.113-6.375 44.862-10.73 9.454-3.72 22.225-7.05 28.992-13.795 1.911-36.665-.348-73.757.67-110.51v-71.762c.142-2.05-.044-4.3.697-6.25 2.236-2.971 8.748-.933 11.69-1.703h329.574c12.044-.584 28.99 3.237 37.039-12.5-19.932-18.908-43.073-34.085-64.517-51.14-10.894-8.357-22.011-16.39-33.056-24.52-5.455-4.22-11.096-8.19-16.543-12.42-5.235-3.674-10.734-9.18-16.259-11.42a3985 3985 0 0 1-41.508 51.85c-5.239 6.56-10.504 13.107-15.742 19.666-4.401 5.032-9.69 13.36-14.635 16.015-58.83 1.338-117.874-.244-176.74.469v-58c11.579-1.075 28.176-3.798 30-21-55.867-5.316-112.049-9.222-168-14v93h-367c.955 8.211 5.05 15.784 6 24m26-537.75c3.152 7.452 4.465 16.009 7 23.75h337c-7.493 32.853-19.592 64.68-29 97-6.809-.978-15.024-6.185-23.174-7.565-11.857-3.78-24.08-6.143-36.302-8.356-6.243-.918-12.49-1.993-18.76-2.599-5.805-.763-11.817-1.632-15.764 3.02 13.558 19.148 26.04 39.609 34.561 61.668 7.43 17.567 13.733 35.778 16.038 54.801.954 3.265-.411 7.678 1.443 10.92 18.276 18.037 48.85 23.599 71.7 11.55 22.531-12.51 36-40.949 27.49-66.09-1.782-5.886-5.022-12.387-8.083-17.108-2.335-5.284-9.257-10.534-10.149-15.241 23.912-11.566 47.124-25.366 69.746-39.351 11.476-6.95 22.256-15.015 33.51-22.28 6.636-3.138 15.054.456 21.81-2.91 6.198-2.123 12.143-6.027 15.934-11.459-2.318-3.06-7.643-4.28-11.485-6.26-27.974-11.378-55.303-25.155-83.515-35.74v-4h373.2c13.94-.347 34.9 4.245 43.8-12.5-42.29-33.105-85.034-66.008-128.5-97.5-12.863 15.067-25.174 30.667-37.884 45.866-9.563 11.448-18.684 23.263-28.366 34.604-3.826 6.173-9.652 6.079-15.797 5.53H1565v-67.8c.06-5.812-.074-11.624.045-17.434.092-1.867.411-4.174 1.718-5.33 11.454-2.583 25.382-5.255 28.237-21.436-55.976-4.028-112.136-8.016-168-13v125h-335zm33 57.25c15.121 24.414 27.26 50.79 37.226 77.712 7.32 21.503 13.885 43.47 16.221 66.17.557 4.28-.093 9.867 2.8 12.842 11.279 9.381 27.21 17.803 40.667 19.808 23.263 3.852 47.6-7.475 61.152-26.258 14.87-19.61 15.23-47.244 4.847-68.826-12.168-27.448-38.406-44.788-63.723-58.356-27.867-13.815-58.555-21.055-88.94-26.666-3.383-1.402-7.09.773-9.488 1.864l-.762.21v1.745zM1518.5 799c-4.817 3.456-12.65.475-17.938 1.109-5.97-.751-13.823 2.363-18.062-1.109-3.432 2.7-9.776 2.008-14.56 2.86-75.838 6.855-147.902 40.75-203.542 92.242-41.04 38.353-71.912 86.61-90.44 139.518-29.085 82.953-23.507 176.947 13.992 256.29 35.286 76.208 99.112 138.59 176.602 171.353 85.34 37.943 186.231 38.205 271.614.047 80.763-35.202 147.143-101.345 181.023-182.908 37.694-86.906 36.638-189.476-3.661-275.331-36.432-80.681-105.007-146.555-187.677-178.623-16.528-7.438-34.213-11.363-51.585-16.102-9.547-2-19.227-3.452-28.83-5.173-4.942-.403-9.905-.922-14.835-1.436-4.113-.801-10.122.086-12.101-2.737m-318.495 345.77c.233 41.017 7.756 81.754 24.415 119.066 23.264 52.63 61.432 99.215 109.607 130.843 49.847 33.903 109.726 50.866 169.777 50.242 78.782-.555 156.663-33.77 211.232-90.731 26.548-27.25 47.165-59.566 62.222-94.378 15.66-37.604 23.523-78.315 22.561-119.104-.083-79.042-34.604-156.717-91.264-211.43-56.434-54.866-134.435-86.097-213.222-84.176-78.01.22-154.427 33.784-209.066 89.13-54.84 55.536-86.628 132.24-86.262 210.537M1259 1167h482v-44h-482zm26 916.375c21.832 39.69 40.374 81.49 61.5 121.625 5.022-2.193 10.886-2.882 14.917-7.16 3.976-3.534 7.818-7.625 10.095-12.491 37.747-13.776 77.256-23.291 115.19-36.745 19.034-6.187 38.121-12.103 57.032-18.675 9.32-3.222 18.741-6.137 28.025-9.431 8.743-2.742 20.61-8.039 28.241-8.498.948 12.32 3.608 24.56 3 36.997.224 7.265-2.17 20.917 5.838 26.037 10.18 7.781 21.154 15.123 33.823 18.121 12.797 3.366 28.825 1.427 39.97-3.068 31.313-11.853 49.862-49.947 37.983-81.728-8.763-28.768-32.929-48.997-57.965-63.442-20.976-11.243-43.245-20.023-66.334-25.847-9.648-1.977-21.068-7.008-29.315-3.07.535 4.774 4.606 10.148 6.675 15.333 3.793 7.736 7.239 15.645 10.2 23.736 2.434 7.631 6.7 16.484 7.125 23.931-46.277.852-91.649 1.902-138 3 .658-4.948 8.274-7.479 12.445-10.746 36.07-22.46 70.927-46.869 105.187-71.986 17.576-12.616 34.296-26.323 51.024-40.016 7.81-5.578 15.036-16.55 27.361-14.687 9.55.665 23.921-.332 28.983-11.565-42.203-19.954-83.882-42.68-125.5-64-30.224 52.555-63.237 103.642-99.972 151.977-9.216 12.506-18.26 25.108-28.047 37.175-3.633 4.626-7.037 9.427-10.955 13.825-3.475 3.886-6.712 9.774-11.556 9.922-9.982.349-19.982.333-29.957.642-7.28-.12-15.908.716-22.567.088-11.424-3.744-20.478.097-31.104.37-11.105.002-22.237 0-33.342.001zm379-91.047c50.73 43.717 101.636 89.792 142.008 143.956 5.044 6.334 10.022 14.51 14.233 20.611 1.843 3.055 3.615 6.148 5.721 9.019 3.364 6.81 8.762 9.131 15.574 10.463 12.314 3.834 25.425 4.395 37.759.5 16.583-4.696 32.212-19.978 37.219-34.96 7.006-17.74 4.607-37.6-3.417-54.544-18.802-40.177-59.658-64.29-99.832-78.126-44.541-16.065-92.27-19.688-139.137-21.568-.988-.265-1.874-1.182-2.628-1.679-2.656 1.908-5.252 3.969-7.5 6.328m18-25.703c2.42 2.119 5.314 3.793 7.313 6.375 36.687-13.079 72.61-28.628 107.522-45.928 18.233-8.811 36.137-18.187 54.075-27.538 4.264-2.133 8.172-5.051 12.723-6.587 7.473-1.417 15.598 1.73 23.1-.894 6.217-2.029 14.548-6.252 16.267-12.053-50.065-24.589-97.932-54.454-148-79-9.696 28.465-23.591 55.681-34.655 83.679-11.749 27.567-24.543 55.593-38.345 81.946" style="fill:#fd7;fill-rule:evenodd;stroke:none"/><path d="M338 2761.5c387.06 1.426 774.925-.26 1162.15.5 387.224-.76 774.71.926 1161.85-.5-77.265-456.459-152.125-914.01-228.874-1370.691-28.417-170.851-56.988-341.657-85.4-512.497-12.491-74.824-24.942-149.684-37.431-224.508-5.828-35.176-11.741-70.32-17.569-105.492-3.54-17.097-4.968-34.714-9.072-51.664-1.3-3.941-8.915-3.966-11.797-5.85-133.175-44.44-266.372-88.79-399.558-133.193-116.482-38.867-233.005-77.647-349.48-116.505-6.56-1.974-12.94-4.527-19.527-6.382-6.558-1.31-12.878 2.396-19.017 4.029-100.339 33.452-200.674 66.889-301.01 100.324-87.802 29.33-175.659 58.504-263.446 87.829-38.52 12.817-77.015 25.657-115.52 38.495-18.005 5.974-35.995 12.026-54 18-8.822 2.95-17.652 5.903-26.471 8.83-4.346 1.012-8.371 2.451-8.57 8.208-90.761 544.76-181.624 1089.514-272.367 1634.27-35.423 208.458-69 418.87-104.891 626.797m111-95v1.5h2102v-1.5c-63.81-378.768-126.215-757.87-189.705-1136.696-47.349-283.998-94.654-568.016-142-852-4.398-26.67-8.911-53.338-13.325-80.003-1.118-6.656-2.232-13.342-3.35-19.985-.571-3.586-1.119-7.183-2.096-10.662-1.288-2.958-6.82-3.128-9.193-4.54-101.51-33.828-203.017-67.663-304.512-101.514a746151 746151 0 0 1-266.522-88.84c-39.072-12.89-78.06-26.135-117.144-38.98-4.713-1.335-9.273 1.032-13.839 2.453-144.507 48.104-288.95 96.378-433.449 144.467-54.18 18.08-108.385 36.116-162.566 54.195-23.808 7.923-47.625 15.882-71.434 23.805-5.676 1.96-11.407 3.738-17.06 5.726-6.564 1.113-6.72 8.744-7.34 13.268C740.08 921.349 682.77 1265.54 625.383 1609.692 566.339 1961.663 508.308 2314.864 449 2666.5" style="fill:gray;fill-rule:evenodd;stroke:none"/><path d="M1054 2092.64c25.989 41.517 53.835 82.226 80.5 123.36 5.819-1.838 11.482-6.858 14.645-11.341 3.832-4.625 4.66-10.698 6.518-16.139 31.925-30.231 64.96-59.311 95.44-91.122 15.987-15.227 30.977-31.403 46.254-47.276 7.616-7.993 14.777-16.35 22.378-24.357 3.974-3.729 7.25-8.069 10.978-12.014 2.006-1.693 3.783-4.682 4.803-6.537.259-2.796-.898-5.812-1.516-8.214-92.881 32.196-185.791 64.802-280 93zm4 184.86c2.491 8.104 5.443 17.866 7 25.5h361v218c21.558.46 43.145.421 64.476-3.086 15.481-2.719 30.79-6.473 45.862-10.894 9.697-4.116 23.55-7.093 29.197-14.403 1.326-37.15-.241-74.509.465-111.697v-61.026c.011-3.179-.014-6.393.008-9.57-.93-8.445 5.98-7.711 12.379-7.324h320.586c9.845-.481 21.603.776 30.535-.884 3.752-.913 7.573-2.27 10.512-4.858 2.196-1.834 5.948-7.312 3.604-9.49-9.019-10.344-21.367-17.536-31.653-26.505-33.157-23.83-64.708-50.433-98.471-73.263-13.93 17.338-27.678 34.868-41.772 52.073-5.21 6.565-10.48 13.053-15.682 19.607-4.665 5.233-9.139 12.57-14.351 16.44-6.929 1.788-14.646.265-21.763.88H1566v-56c6.953-.675 15.427-2.145 20.865-5.781 5.76-4.004 8.895-10.503 10.135-17.219-56.95-4.814-113.986-9.843-171-14v93h-368zm40-488.5h337c-8.886 31.878-18.956 63.48-29 95-15.221-6.191-31.087-11.08-47.311-13.974-8.246-1.683-16.535-3.09-24.887-4.137-4.266-.468-8.52-.762-12.78-1.189-3.775-.94-6.893 2.28-10.022 3.3 24.31 38.203 49.093 80.215 52.188 126.944.48 4.976 7.117 8.197 11.639 10.953 17.741 10.308 40.166 14.046 59.426 5.185 18.372-8.305 31.26-26.904 33.434-46.835 1.912-19.542-6.966-39.166-20.687-52.747 23.75-12.82 47.833-25.584 70.545-40.305 11.7-6.973 22.435-15.524 34.019-22.618 6.858-1.217 14.892.615 22.61-2.878 5.944-2.533 13.151-7.642 14.826-13.699-32.212-12.726-63.719-28.572-96-41v-2h385.8c8.758.241 18.65.754 25.795-5.44 2.058-2.523 5.752-6.011 4.549-9.159-41.414-34.52-85.862-65.636-128.644-98.401-13.293 14.87-25.233 30.908-38.192 46.057-9.453 11.296-18.423 22.976-28 34.166-1.743 2.199-3.48 4.435-5.815 6.02-11.596 1.925-23.896-.159-35.632.757H1566v-67.2c.11-5.592-.141-11.186.094-16.77-.092-4.752 4.144-5.704 7.725-6.09 10.313-2.18 21.678-7.739 22.181-21.94-56.685-3.92-113.382-8.327-170-13v125h-335c1.428 8.854 5.407 17.159 7 26m25 31.25c27.274 47.977 51.705 100.365 55.468 156.527 18.774 20.911 51.518 28.755 77.61 18.095 26.771-10.39 43.557-39.261 39.846-67.585-3.287-35.265-31.104-62.083-60.552-77.991-29.995-17.967-64.74-25.718-98.602-32.366-5.602-1.72-9.556.281-13.77 3.07zm31.052-675.407c.3 93.858 39.85 186.608 108.323 250.65 68.405 65.69 164.693 100.646 259.215 94.486 89.262-4.905 176.049-47.225 235.248-114.168 62.041-67.764 94.458-161.152 88.12-252.687-4.91-89.816-47.813-176.828-115.339-236.052-67.39-61.993-160.934-93.044-251.754-87.392-86.206 6.281-170.295 45.006-229.45 108.432-59.907 63.47-94.226 149.264-94.363 236.73m46.956.097c-.707 79.641 32.922 157.333 89.365 212.927 57.03 55.86 136.02 87.866 215.901 85.932 78.153-1.605 155.458-35.133 209.08-92.264 54.701-56.41 85.662-134.56 83.334-213.204-1.015-78.026-35.487-154.384-91.498-208.367-56.711-54.962-135.235-86.183-214.294-83.737-76.934 1.319-152.082 34.623-205.998 89.375-54.372 55.355-86.139 131.56-85.89 209.338M1258 1168h484v-46h-484zm25 914.25c11.418 19.495 20.153 40.693 30.928 60.585 9.854 21.26 21.787 41.694 31.072 63.165 11.55-1.051 21.218-8.439 26.866-18.286.883-1.907 3.714-2.496 5.837-3.452 37.121-11.862 74.525-22.801 111.477-35.162 37.019-10.546 72.956-25.39 109.82-36.1.948 12.32 3.608 24.56 3 36.997.224 7.265-2.17 20.917 5.838 26.037 10.18 7.781 21.154 15.123 33.823 18.121 13.39 3.265 27.635 1.826 40.585-2.483 31.979-11.546 51.336-49.695 39.982-82.324-8.205-29.72-33.008-50.672-58.579-65.431-21.536-11.386-44.304-20.53-68.03-26.258-10.084-2.161-23.257-7.888-30.619-1.159 9.23 19.97 20.27 39.739 25 61.5-45.3-.383-90.836 2.894-136 2.5 37.5-24.55 75.744-48.258 111.422-75.567 18.55-13.59 36.865-27.496 54.402-42.384 9.147-6.49 18.198-18.687 28.51-16.95 11.75 1.804 24.708-1.274 31.666-11.599-9.826-6.958-21.846-11.233-32.366-17.178-31.775-17.096-64.258-32.94-96.134-49.822-29.147 53.552-63.675 104.043-99.972 152.977-9.088 12.382-18.079 24.82-27.725 36.779-3.657 4.598-7.03 9.444-10.94 13.828-3.605 3.776-6.683 9.873-11.463 10.26-19.598.268-39.196 1.499-58.751.265-19.89.507-39.752 1.251-59.649.891zm379-89.668c50.819 43.333 101.191 89.359 141.744 143.044 5.216 6.554 9.795 13.591 14.397 20.575 3.868 5.623 6.87 11.922 11.355 17.106 23.356 11.337 55.208 10.405 74.106-9.41 19.545-17.88 22.187-48.236 12.887-71.671-8.043-21.258-23.891-38.663-41.372-52.62-57.275-42.273-131.104-50.453-199.772-52.989-5.674-1.428-10.41 1.432-13.345 5.965M1905 1881c-5.021-5.463-13.091-6.93-18.913-11.263-43.365-23.84-87.275-46.854-130.587-70.737-19.745 43.51-36.255 88.85-57.36 131.83-4.582 11.496-11.235 22.036-16.057 33.402-2.81 4.032 4.718 7.18 6.607 9.219 6.838-.301 15.493-4.812 23.145-7.337 21.944-8.62 43.691-17.833 64.976-27.965 18.235-7.952 35.536-17.922 53.555-26.326 8.594-4.414 17.148-8.851 25.597-13.51 8.105-6.39 19.956-4.125 28.761-4.676 8.094-1.177 15.548-6.107 20.276-12.637" style="fill:#b10;fill-rule:evenodd;stroke:none"/><path d="M1326 2081.125c2.621 2.124 8.702-.085 11.72.875h9.78l1.5-.5c-7.175-2.554-16.304-1.211-23-.375m153-1282c.823 1.418 3.64.66 4.87.764.418-.012.779-.184 1.13-.389-1.82-2.18-4.114-.883-6-.5zm21 1280c1.9 1.788 6.797.42 9 .375-3.082-1.897-5.999-1.595-9-.375m15-1280c.84 1.48 3.735.562 5 .875v-2c-1.737.025-3.33.654-5 1zm34 1279c1.9 1.788 6.797.42 9 .375-3.068-1.839-5.984-1.248-9-.375m119-92c.823 1.418 3.64.66 4.87.764.418-.012.779-.184 1.13-.389-1.82-2.18-4.114-.883-6-.5z" style="fill:#f9cc6d;fill-rule:evenodd;stroke:none"/></svg>