<svg xmlns="http://www.w3.org/2000/svg" width="3000" height="3000"><path d="M406 2714.5c364.26 1.426 729.325-.26 1093.75.5 364.681-.76 729.643.926 1094.25-.5-73.994-436.794-145.573-874.671-219.03-1311.7-27.248-163.499-54.522-327.01-81.762-490.501-11.929-71.676-23.9-143.328-35.826-214.99-5.562-33.677-11.261-67.341-16.83-101.01-2.694-16.33-5.476-32.661-8.17-48.99-1.953-7.97-.635-19.163-9.005-21.35-126.851-42.33-253.712-84.515-380.558-126.859-111.014-36.972-222.009-74.004-333-111-3.216-.906-6.33-2.47-9.718-2.603-97.308 30.455-193.716 64.901-290.804 96.243-84.686 28.162-169.325 56.479-253.998 84.655-36.996 12.317-73.996 24.71-111 37-17.492 5.842-35.002 11.641-52.48 17.505-4.352 1.373-8.66 2.934-12.991 4.325-10.393 1.716-9.742 13.382-11.117 21.543a21438635 21438635 0 0 0-262.985 1577.92C471.424 2320.828 439.764 2518.89 406 2714.5" style="fill:#fd7;fill-rule:evenodd;stroke:none"/></svg>