<svg xmlns="http://www.w3.org/2000/svg" width="3000" height="3000"><path d="M284 2851h2432c-134.149-810.763-270.401-1621.295-405-2432-121.342-39.954-242.44-80.911-363.734-121.071l-318.4-106.13c-23.338-7.841-46.698-15.545-70.04-23.356-11.341-3.774-22.687-7.54-34.007-11.343-10.608-3.396-23.708-9.945-33.842-5.595-87.231 29.065-174.458 58.147-261.68 87.235-152.357 50.752-304.678 101.596-457.031 152.331-14.33 4.77-28.642 9.546-42.967 14.324-6.996 2.317-13.996 4.71-21 7-3.5 1.192-7.003 2.291-10.485 3.517-3.155 1.196-7.913 2.055-8.741 5.189-72.745 429.113-142.918 858.853-215.103 1288.098C411.037 2089.84 346.517 2470.336 284 2851" style="fill:#fd7;fill-rule:evenodd;stroke:none"/><path d="M157 2957.5c447.26 1.426 895.325-.26 1342.75.5 447.681-.76 895.643.926 1343.25-.5-89.24-527.6-175.768-1056.319-264.274-1584.188-32.881-197.178-65.724-394.337-98.6-591.504-14.975-86.916-28.91-174.043-43.658-260.994l-20.26-121.515c-4.237-19.837-5.613-40.387-10.571-60.035-2.23-3.666-9.156-3.713-13.331-6.001-153.686-51.195-307.327-102.464-461.007-153.658-134.313-44.829-268.697-89.519-403.002-134.345-7.496-2.464-14.948-4.998-22.428-7.466-7.106-3.118-15.85 1.66-22.572 3.602-115.69 38.56-231.359 77.11-347.031 115.675-101.317 33.788-202.65 67.568-303.967 101.324-44.313 14.829-88.697 29.519-133.002 44.345-20.83 6.934-41.652 13.855-62.47 20.817l-30.53 10.183c-4.798 1.638-11.417 2.822-12.665 7.456C487.841 971.739 383.296 1602.542 278.126 2233.19 237.363 2474.168 198.262 2717.071 157 2957.5m128-109v1.5h2430v-1.5c-135.626-809.364-269.706-1619.074-405-2428.5-121.342-39.954-242.44-80.911-363.734-121.071-105.997-35.348-212.014-70.655-318-106-23.146-7.696-46.251-15.464-69.4-23.13-11.349-3.816-22.687-7.57-34.04-11.356-11.04-3.422-23.963-10.053-33.529-5.703a606540 606540 0 0 0-261 87C1078.145 290.453 925.97 341.187 773.819 391.9c-14.35 4.71-28.615 9.586-42.954 14.3-6.987 2.367-14.011 4.677-21 7-3.503 1.223-7.08 2.327-10.57 3.55-2.671 1.224-8.358 2.025-9.01 4.902-73.08 428.648-142.702 858.22-215.077 1287.05C411.568 2088.343 348.904 2469.203 285 2848.5" style="fill:gray;fill-rule:evenodd;stroke:none"/></svg>