<svg xmlns="http://www.w3.org/2000/svg" width="3000" height="3000"><path d="M406 2716h2188c-.452-13.213-4.171-26.125-5.71-39.208C2468.846 1960.196 2349.431 1243.585 2230 527c-109.325-35.987-218.457-72.878-327.734-109.071-95.467-31.86-190.966-63.65-286.44-95.486-21.006-7.01-42.008-13.98-63-21l-30.529-10.183c-9.47-3.025-21.252-8.92-30.35-5.086-156.884 52.344-313.79 104.58-470.681 156.897-58.813 19.64-117.642 39.186-176.447 58.829-13.016 4.296-26.007 8.68-39 13-6.335 2.066-12.631 4.23-18.954 6.3-3.19 1.104-6.385 2.128-9.576 3.212-7.976 1.527-8.94 7.943-9.29 14.656-63.894 383.21-127.754 766.408-191.617 1149.624-28.466 171.167-57.103 342.324-85.568 513.49-14.29 85.674-28.582 171.345-42.844 257.017-7.145 42.829-14.299 85.67-21.418 128.502-3.57 21.335-7.128 42.665-10.66 64.002-1.808 10.66-3.57 21.336-5.34 31.998-1.36 10.463-4.53 22.595-4.552 32.299m729-1339.625c12.034 31.546 24.018 63.88 42.357 92.602 13.638 21.704 33.81 38.302 57.483 47.889 39.193 14.859 82.075 15.978 123.424 14.47 40.107-2.02 79.857-9.397 118.948-18.16 17.07-4.03 34.15-8.185 50.901-13.374 3.898-1.183 8.861-3.241 12.324-2.024 37.904 49.705 75.908 99.875 118.15 146.133 3.903 3.907 10.046 10.358 4.694 14.623-11.912 1.288-23.693-3.256-35.44-4.398-44.924-7.673-90.353-12.42-135.91-13.072-67.83-2.478-137.027 9.864-196.112 44.53-27.667 14.877-55.275 40.565-71.668 64.088-9.372 12.753-17.22 29.753-21.693 43.458-2.367 8.125-4.557 16.352-5.816 24.724-.597 4.163-1.29 8.346-1.534 12.545-.308 4.115.503 9.351-2.108 12.091 2.902 2.249 1.65 7.295 2.496 11.454 2.675 31.201 14.446 61.934 34.697 86.046 34.235 42.799 86.715 66.128 137.988 80.78 42.067 11.276 85.55 17.307 129.132 17.22 33.857.377 67.753.614 101.437-3.331 24.038-3.295 48.75-5.906 71.385-15.35 15.993-6.408 30.89-15.698 41.862-29.167 14.657-22.293 8.96-55.126-10.993-72.303-10.08-7.748-22.178-12.226-34.149-16.016-6.787-2.19-13.854-3.339-20.854-4.516-5.916-1.712-15.297-.071-19.501-3.317-1.48 1.515-3.425 2.089-5.5 2v-2c-13.306 2.956-27.304 2.213-40.79 4.725-20.334 2.143-40.567 5.741-60.99 6.815-10.37.615-20.72 1.507-31.102 1.46h-16.758c-2.786-.006-5.593.008-8.374-.004-2.563-.15-5.331.196-5.986-1.996-9.062 1.796-19.791 1.562-28.463.544-35.414-3.493-73.128-9.036-102.624-30.836-12.935-8.66-25.552-22.78-31.355-35.89-12.819-30.482-5.525-67.289 12.895-93.73 17.619-24.449 44.942-40.455 73.489-48.822 29.682-9.128 61.127-9.25 91.826-7.907 27.401 1.2 54.805 6.004 80.93 14.375 47.98 13.348 90.78 39.762 130.975 68.257 16.887 10.817 35.055 26.79 52.441 33.447 19.118 7.182 43.53 6.756 58.256-9.309 13.516-13.485 21.71-34.975 25.43-51.64 4.1-17.944 6.504-40.37 1.785-56.96-4.345-15.854-17.325-30.787-27.687-41.131-10.976-11.586-22.66-22.383-34.268-33.268-42.468-40.564-85.395-81.34-119.721-129.37-3.33-4.54-6.523-9.187-9.31-14.073-3.374-5.64 5.433-7.579 8.994-9.43 37.776-16.51 75.108-34.332 110.041-56.326 22.196-15.309 55.668-35.496 52.579-70.287-.514-23.47-23.573-44.072-43.395-48.445-8.6-1.967-18.856-3.72-26.928-4.432-8.32-.533-16.871-1.437-25.027.887-12.812 4.092-22.277 14.293-32.544 22.299-15.74 11.69-31.185 23.894-47.943 34.134a237 237 0 0 1-24.331 14.384c-9.577 3.596-19.368 11.413-28.045 12.529-8.745-23.872-17.503-47.868-24.128-72.478-2.707-9.032-5.105-18.131-7.64-27.201-3.529-18.004-15.396-27.342-29.62-34.98-22.562-11.974-48.222-16.498-73.472-17.331-25.242-1.83-51.617 1.473-74.5 13.166-10.17 5.46-20.73 10.282-30.367 16.656-4.311 3.049-9.626 6.23-13.629 8.935-4.543 2.41-9.601 7.873-13.644 9.233.443 4.02 2.138 7.89 2 12 17.921.69 35.503 5.121 52.975 8.672 26.386 5.795 54.855 16.99 68.328 42.324 11.016 17.473 21.787 35.075 32.146 52.948 3.804 6.875 8.362 13.322 12.008 20.28 2.521 4.529-.414 6.171-4.338 6.895-25.12 7.636-50.601 14.224-76.5 18.668-13.557 2.612-27.252 4.334-40.901 6.307-7.203.99-14.448 1.773-21.7 2.206-6.583.25-13.468 1.498-19.518-1.3-3.014 2.904-8.37 1.559-12.22 1.628-31.903-.985-64.75-4.592-93.124-20.564-12.805-6.654-25.005-14.523-36.689-22.95-6.189-4.138-11.925-8.823-17.798-13.364-2.447-2.044-5.366-5.134-9.13-3.212-3.157 1.306-5.533 3.951-8.539 5.462z" style="fill:#fda;fill-rule:evenodd;stroke:none"/><path d="M291 2812.5c402.66 1.426 806.125-.26 1208.95.5 402.946-.76 806.184.926 1209.05-.5-66.691-393.12-131.048-787.321-197.186-1180.681C2447.104 1239.148 2380.056 846.747 2316 454c-136.143-44.935-272.089-90.768-408.181-135.9-102.008-33.974-204.008-68.03-306-102-19.182-6.399-38.38-12.77-57.553-19.171-8.997-3.033-18.01-5.99-27-9-7.928-3.04-16.863-7.25-26.38-2.738-134.51 44.908-269.079 89.643-403.589 134.55C952.797 364.27 818.541 409.675 684 454c-64.117 393.376-131.371 786.397-196.109 1179.703C421.811 2026.161 357.548 2420.573 291 2812.5m116-97.5h2186c-120.11-729.14-243.257-1457.94-364-2187-109.157-35.927-218.092-72.748-327.181-108.9-95.331-31.722-190.626-63.585-285.954-95.3q-31.498-10.534-63-21l-30.566-10.195c-9.852-3-21.422-9.034-30-5.21-156.482 52.2-313.005 104.314-469.48 156.505-58.858 19.6-117.69 39.211-176.522 58.84-12.832 4.262-25.65 8.528-38.47 12.817-6.336 2.128-12.684 4.227-19.008 6.343-5.33 2.846-14.097 3.151-17.405 7.24-66.013 385.799-128.474 772.546-193.688 1158.548C521.372 2030.17 462.67 2372.459 407 2715" style="fill:gray;fill-rule:evenodd;stroke:none"/><path d="M1191 1842.438c.967 1.118 2.35 1.672 3.5 2.562.64-1.812.676-4.55 0-6-1.026 1.175-2.676 2.467-3.5 3.438m118-412.063c2.087 1.202 6.248.423 8 .125-2.313-3.215-5.867-3.047-8-.125m103-219c1.297 1.194 4.581.421 6 .125-1.79-2.713-4.333-2.645-6-.125m38 695c2.174 1.383 6.689.242 9 .125-1.767-3.369-5.282-3.512-7.73-1.258-.472.327-.93.674-1.27 1.133m44 0c1.297 1.194 4.581.421 6 .125-1.79-2.713-4.333-2.645-6-.125m120-11c1.878 1.338 5.49.054 8.025.625 2.51-.094 6.004.165 7.975-.5-2.603-3.46-4.966-1.71-8-.5-.248-2.138-2.203-1.934-4.12-1.545-1.365.41-2.92.778-3.88 1.92" style="fill:#f2d3a5;fill-rule:evenodd;stroke:none"/><path d="M1133 1375.25c12.4 31.714 24.064 64.343 42.451 93.392 13.69 21.766 33.458 39.21 57.428 48.77 39.4 15.367 82.821 16.373 124.512 14.996 40.742-1.782 81.113-9.47 120.821-18.231 11.018-2.291 21.881-5.252 32.728-8.171 4.879-1.21 9.706-2.593 14.52-4.025 4.431-1.724 8.961-2.932 13.648-3.507 20.93 26.001 39.756 54.009 61.571 79.4 10.73 12.963 21.19 26.13 32.245 38.819 5.316 6.613 11.053 12.862 16.606 19.256 5.027 6.2 12.68 12.707 15.47 19.593-4.048 4.053-11.378 1.7-16.212 1.11-45.102-7.87-90.643-14.636-136.468-16.06-41.407-1.361-83.354-1.013-123.994 8.112-65.73 14.165-130.838 48.155-168.884 105.406-28.709 43.923-34.362 102.376-12.535 150.534 14.972 34.515 42.226 62.165 74.214 81.324 49.818 29.28 107.23 44.448 164.422 50.108 30.841 3.812 61.863 3.004 92.802 2.924 30.434-.14 60.921-2.552 90.939-7.547 24.558-3.748 49.32-11.214 69.381-26.457 9.74-6.773 17.552-16.197 20.796-27.671 6.116-22.415-1.588-50.399-21.635-63.437-39.513-24.478-88.085-20.87-131.8-14.52-40.195 5.61-80.836 8.422-121.434 6.073-33.8-1.333-68.277-6.35-99.316-20.417-24.465-12.285-47.866-32.238-54.087-60.237-5.196-25.066.151-52.69 14.301-74.062 24.287-37.323 69.503-56.097 112.313-60.452 68.858-6.862 139.169 7.33 200.07 40.178 28.325 15.084 54.796 33.262 80.774 52.032 12.778 9.054 25.415 19.094 40.518 23.984 15.573 4.36 33.795 5.832 48.302-2.918 19.603-13.215 30.407-40.302 34.622-60.511 3.527-12.497 4.517-25.34 3.911-38.253.375-12.303-2.905-24.657-9.506-35.059-9.083-15.451-22.746-27.394-35.227-39.959-12.884-13.066-26.994-24.812-39.87-37.87-11.222-10.685-22.794-20.998-33.372-32.372-11.183-10.84-20.887-22.997-31.42-34.42-17.094-18.317-31.596-38.95-45.605-59.605 15.26-8.145 32.103-13.905 47.576-21.79 27.905-14.36 56.61-27.852 82.294-46.091 18.327-12.705 38.936-28.245 42.988-51.863 1.502-8.898.264-19.565-2.098-27.464-5.16-13.986-19.336-26.553-31.639-31.764-10.47-4.931-24.273-6.384-34.638-7.687-9.104-.479-18.364-1.492-27.378.459-12.5 3.293-21.533 13.202-31.405 20.723-9.624 8.158-20.004 15.27-30.236 22.595-22.234 15.392-45.25 30.276-70.464 40.382-8.662-23.704-17.424-47.54-23.995-71.984a1257 1257 0 0 1-7.607-27.153c-3.506-18.05-14.986-27.645-29.376-35.3-22.293-11.909-47.69-16.575-72.678-17.517-25.751-1.775-52.776.462-76.216 12.394-10.56 5.544-21.523 10.52-31.466 17.132-4.44 3.127-9.891 6.43-14.018 9.195-4.543 2.41-9.601 7.873-13.644 9.233-.002 4.743 2.005 9.255 2 14 20.482 1.259 40.754 5.955 60.667 10.63 13.187 3.612 26.438 8.015 37.89 15.713 17.09 11.396 26.358 30.382 36.891 47.315 10.352 17.694 20.98 35.308 31.552 52.842-12.384 6.28-27.193 7.536-40.217 12.295-51.174 11.967-104.037 21.475-156.734 16.3-26.01-1.369-51.536-8.197-74.37-20.785-20.762-11.327-39.863-25.415-58.179-40.31-4.982 1.297-8.737 7.254-13.5 8z" style="fill:#000;fill-rule:evenodd;stroke:none"/></svg>