<svg xmlns="http://www.w3.org/2000/svg" width="3000" height="3000"><path d="M1078 1071c16.725-.415 33.344-6.725 50-6.5-21.084 27.127-30.408 61.523-37.34 94.5-7.14 35.788-8.992 72.824-4.66 109 4.523-.11 8.738-5.155 11.581-7.189 9.2-7.46 19.653-19.494 30.419-26.561-5.15 28.767-5.197 63.716-.956 90.167 2.923 14.455 8.803 28.113 12.62 42.324 4.38 14.182 3.084 28.893 1.336 43.259 14.565.065 27.73-9.12 35.5-21 17.58 56.611 53.72 111.026 107.5 139 2.178-1.748 2.09-5.773 2.844-8.777.944-4.412 1.808-8.865 2.518-13.315.974-3.732 1.218-9.27 3.138-11.908 10.619 21.999 22.665 43.732 38.648 62.412 8.643 9.254 17.667 18.267 27.719 25.972 9.69 7.191 20.23 15.975 33.133 15.616.618-10.235-.784-20.888.5-31 16.847 15.816 37.835 26.31 55.636 40.908 13.914 11.37 26.018 24.713 37.272 38.646 2.059 2.39 4.167 5.503 6.523 7.221 2.656 2.617 5.438-1.067 7.038-2.755 28.522-35.882 66.745-62.079 106.423-84.128 4.629-2.773 9.357-5.318 14.16-7.772 4.945-1.766 9.419-6.707 14.448-6.62-9.037 11.98-12.15 30.533-4 43.5 4.289-.25 7.144-3.878 10.212-6.372 23.242-19.62 45.36-40.494 66.763-62.103 10.51-10.683 20.444-22.007 29.713-33.786 7.722-11.36 19.672-24.627 21.312-37.739h2c6.29 14.994 15.717 28.999 22 44h3c32.457-54.807 48.368-118.27 61.5-180 3.059 4.935 8.845 10.375 12.86 16.005 2.202 2.783 4.552 5.44 6.773 8.19 2.31 2.665 4.708 6.469 7.867 6.805 8.643-30.843 16.088-62.447 14.88-94.79-1.164-31.858-5.328-63.507-10.88-94.877 12.18 10.213 26.806 21.052 44 19.667-.418-6.046-4.758-11.024-6.488-16.681-16.688-36.416-25.666-76.877-49.512-109.819 9.573-1.595 21.144.538 29.773 1.965 8.415.838 19.282 5.124 26.227 5.535.872-34.71-4.862-70.351-21.99-101.027-14.249-29.105-39.265-55.36-71.01-64.473 10.807-10.762 21.796-25.625 26.223-38.989 4.937-16.877 2.209-34.442.777-51.511-6.037.426-12.495 6.309-18.811 9.19-18.1 9.47-36.552 18.917-56.189 24.81v-1.5c7.958-10.647 14.725-22.298 20.664-34.19 4.965-12.64 12.963-27.49 13.336-40.31-11.581 1.912-21.606 9.414-32.685 12.921-31.453 12.975-62.886 28.178-94.315 40.579 5.606-16.76 10.66-34.346 19.695-49.865 3.934-7.702 8.413-15.108 12.747-22.586 3.362-7.124 11.914-15.308 12.558-22.049-30.418-7.475-62.57-8.924-92.703 1.198-27.494 9.618-52.615 25.966-73.797 45.802-.967-9.897 5.16-21.852 8.261-30.919 2.107-4.89 4.548-9.613 6.516-14.566 2.03-4.574 5.572-9.76 5.723-14.515-20.47 1.481-40.576 10.033-56.282 23.046-13.834 13.302-29.081 31.45-35.718 47.954-3.571-1.231-5.535-6.769-8.543-9.773-20.105-28.26-55.55-38.082-88.67-38.747-16.775-1.82-36.728-2.726-51.88-6.104-7.957-2.045-15.525-5.171-22.612-9.276-6.726-2.66-14.096-10.695-20.295-11.1-1.71 12.774-3.699 28.51.228 40.095 3.995 12.369 11.64 23.275 20.772 32.405-36.15.536-72.647-8.381-106.713-19.973-3.926-1.769-7.918-3.285-12.129-4.04-3.205 1.549-2.83 8.152-4.073 10.962-6.308 29.15 16.318 51.128 31.915 69.051-17.4 1.628-35.208-1.442-52.577-2.553-8.762-1.05-17.482-2.36-26.106-4.17-7.994-1.284-16.856-5.591-24.317-5.777-5.464 15.998-4.327 33.676 3.477 48.889 7.08 14.149 16.358 27.385 27.523 38.611-29.237 11.458-54.607 33.803-67.27 63.022-13.719 30.888-15.932 65.258-15.73 98.478m14 1426c25.781.108 52.315.786 77.1-7.704 8.202-2.941 17.212-7.79 23.862-12.208 5.937-3.779 15.093-9.768 16.67-15.79 1.027-15.927-.169-31.978.368-47.917-.116-5.22-1.436-12.86 6.407-12.36 10.32-.059 20.636.01 30.942-.021h23.236c2.3.245 6.476-.167 7.69 1.646 2.056 19.57-.364 39.676.725 59.354 17.972.256 36.06.82 53.692-3.23 12.177-2.523 24.13-6.05 35.964-9.823 8.456-3.342 19.266-6.336 25.985-11.495 2.788-2.761 2.326-6.949 2.359-10.6V2194c6.442-.91 13.798-3.65 19.05-6.407 5.132-3.476 13.365-6.99 14.95-12.593-34.285-26.914-69.792-52.743-104.435-79.278-5.55-5.148-8.806 2.04-12.463 5.67-13.526 14.3-27.333 28.365-40.348 43.126-3.667 4.985-8.753 4.791-14.041 4.482H1210v-97.83c.445-7.85-.595-17.2.45-24.352.068-3.162 5.762-2.567 7.709-2.817 10.532-.004 21.063.001 31.58-.001 10.186-1.043 22.466 1.377 30.761-1 1.384 16.201-.217 32.742.5 49 17.92.067 36.047 2.28 53.623-2.225 12.645-2.272 24.966-5.975 37.076-10.173 8.21-3.169 18.589-6.366 24.982-11.481 2.7-6.636.378-16.456 1.319-23.471V1841c9.06-2.09 18.204-4.991 25.804-10.602 3.25-2.521 10.12-6.67 6.15-10.382-3.379-3.216-7.53-5.574-11.07-8.596-10.131-7.398-20.037-15.074-29.961-22.733-16.236-12.015-32.263-24.273-48.33-36.491-4.139-3.09-8.31-6.145-12.398-9.282-6.853-6.318-12.622 5.463-16.937 9.314-5.694 5.116-10.598 10.966-15.653 16.667-7.332 7.786-14.452 15.725-22.086 23.237-3.43 4.935-10.802 3.946-16.097 3.868-5.712-.572-11.827.739-17.422-.5 16.916-19.448 32.974-39.667 49.416-59.507 12.398-14.57 23.198-30.556 35.646-45.027 5.28-2.906 14.498-2.31 20.798-6.444 5.791-2.553 10.88-6.883 13.539-12.748.77-2.399 2.674-6.286 1.756-8.352-4.816-3.164-11-1.941-16.454-3.803-35.51-5.734-70.938-11.904-106.39-17.893-14.366-1.824-31.038-5.974-44.311-6.726 1.038 49.695-1.28 99.338-2 149-16.872-5.61-33.323-12.67-50.116-18.533-16.448-4.485-34.424-14.766-49.884-17.467zm62.166-1516.01c2.106 34.647 23.61 63.477 46.072 87.742 4.257 4.87 13.357 8.158 10.968 17.374-7.535 28.92-6.62 59.67.817 88.451 13.477 48.14 42.68 90.852 78.347 125.313 13.074 13.196 27.673 24.727 42.296 36.129 6.6 4.74 13.24 9.447 19.948 14.03 5.74 3.969 13.074 7.921 18.083 11.87 2.576 6.998.759 15.555 3.106 22.814 7.754 53.192 52.783 99.681 106.603 106.314 54.576 7.417 108.99-29.774 127.053-80.711 4.35-10.472 6.947-23.678 8.01-33.969 1.24-4.866-.923-12.82 3.218-15.478 66.497-40.62 126.768-98.243 153.55-173.211 6.607-20.243 10.687-41.277 9.757-62.653-.1-8.297-.779-16.561-2.113-24.735-.933-6.85-3.564-13.504-3.409-20.468 3.462-4.585 8.392-7.781 12.26-12.037 13.16-14.13 25.55-29.303 33.846-46.908 9.276-17.546 14.803-38.873 8.053-58.278-9.258-27.646-39.242-44.052-67.378-41.494-24.02 2.44-50.46 15.104-67.68 28.667-4.379 3.183-8.654 6.46-12.312 10.472-3.923 4.88-8.834 2.592-13.714.065-39.633-16.31-84.875-16.12-124.82-1.021-14.129 4.882-27.612 11.874-39.327 21.2-4.72 3.952-9.914 12.167-15.34 6.972-16.964-18.099-40.78-27.187-64.084-33.688-37.786-10.686-78.346-6.605-114.087 8.93-4.763.984-8.515-3.784-11.513-6.75-24.88-20.464-56.695-37.087-89.923-34.596-30.033 3.239-55.46 29.168-56.287 59.655M1197 993.306c-.758 13.852 6.757 25.706 14.694 35.962 4.002 4.885 7.55 10.474 12.79 14.173 2.906 3.318 5.363-2.112 6.483-3.872 1.679-2.639 2.976-5.522 4.703-8.123 8.376-13.894 20.403-29.248 31.863-38.84 1.837-1.658 4.191-3.765 3.972-6.007-.64-3.863-7.582-6.13-9.953-8.548-11.104-7.11-23.507-13.173-37.099-12.744-13.303 1.057-29.104 9.478-27.453 28M1210 1996h69v-172h-34.8c-10.894 1.044-24.442-1.377-34.2 1zm0 182v185.409c.254 3.524-.905 10.136 3.54 10.236 15.967 1.01 32.116-.181 48.108.355 3.186-.004 6.363.005 9.532-.003 2.304-.138 6.433-.054 7.31-2.093 1.454-41.698-.264-83.636.51-125.387v-52.751c-.004-3.007.005-6-.003-8.994-.32-2.167.208-5.95-1.81-7.128-11.09-1.587-22.545.085-33.708-.644h-17.257c-5.13.109-12.203-.437-16.222 1m128.468-1099.514c.191 11.32 4.664 22.307 13.95 29.01 8.941 7.478 21.006 9.395 32.228 6.802 9.278-2.03 17.077-8.607 22.227-16.314 5.639-8.107 6.334-20.164 4.515-28.826-2.295-8.594-9.066-17.888-16.14-21.995-8.807-5.198-19.406-6.627-29.44-4.35-16.232 3.7-27.102 19.457-27.34 35.673M1410 1337c15.702-.566 31.602-1.26 46.672-6.186 7.05-2.217 14.732-6.547 20.552-9.944 6.716-3.337 11.125-10.01 17.276-13.87 10.007 10.448 22.272 19.106 36.23 23.409 15.125 5.59 31.434 5.599 47.27 6.591v-29c-12.442-.694-25.094-.962-37.11-4.596-11.262-3.25-20.789-10.671-28.89-18.904 21.314-13.918 37.204-35.135 46.623-58.58 2.554-6.329 4.603-14.222 5.254-20.462.02-5.122.598-11.439-.892-15.976-3.26-7.341-10.57-8.865-17.706-9.821-7.793-1.12-15.663-1.74-23.531-1.661h-48.245c-8.027-.105-16.067-.13-24.049.841-7.052.804-15.022 1.01-20.66 6.025-7.289 6.094-4.36 20.719-3.355 27.817 7.047 27.03 23.465 52.062 46.268 68.41A14.2 14.2 0 0 0 1476 1283v1.5c-7.948 8.006-17.197 15.372-28.144 18.67-12.264 3.545-25.155 4.354-37.856 4.83zm196 423v108.6c-.078 4.408.106 8.82-.082 13.212.21 5.39-4.306 5.524-8.034 5.187-7.507-.029-14.99.039-22.49-.02-5.9-.197-11.287-3.03-16.773-4.891-20.413-7.217-40.53-15.198-60.936-22.417-20.345-6.591-40.02-16.267-60.685-21.671v564c18.863-.428 37.911.97 56.668-1.624 12.804-2.08 25.628-5.236 37.17-11.311 8.008-4.091 17.344-9.443 23.517-14.978 6.204-4.96 4.535-15.116 4.645-21.94V1915h47v606c36.444.189 76.073 1.986 108.518-18.237 6.882-4.352 18.513-9.378 17.739-17.412-.732-30.112.132-60.294-.257-90.407v-467.4c.532-4.24-1.631-13.632 3.568-14.22 8.21-.843 16.556.087 24.786-.324 7.787.568 15.973-.735 23.646.5v319.064c.468 10.194 2.296 26.231-13.624 25.843-11.702-1.111-23.63-.696-35.376-1.407v15c11.176 1.213 21.695 6.888 28.072 16.232 9.569 14.174 12.994 34.466 14.42 49.675 1.983 18.634 1.413 37.401 1.508 56.093 18.52-.92 36.799-4.651 54.717-9.186 24.471-6.545 49.662-19.57 60.821-43.888 11.184-24.47 12.147-56.802 12.462-80.885v-316.798c-.226-3.35.092-6.677.448-9.978 1.061-2.616 5.54-2.62 7.337-3.513 5.201-1.814 10.363-3.952 14.988-6.976 3.208-2.862 10.04-5.851 9.65-10.257-28.583-24.262-60.028-45.375-89.384-68.747-3.89-2.844-7.733-5.76-11.564-8.667-3.332-1.847-5.722-5.709-10.184-6.606-3.243-.24-5.28 4.52-7.907 6.6-8.623 9.24-16.288 19.319-25.18 28.314-4.154 4.712-8.23 9.44-12.373 14.152-4.157 4.672-7.388 10.546-15.522 9.435h-17.977c-5.526.693-12.454-1.025-16.832 1-1.42-22.18.254-44.692-.5-66.931.227-19.503-.276-39.027.15-58.511-.054-4.985 5.474-4.619 9.232-4.558h99.357c24.73.024 49.468-.03 74.187.016 7.446.345 16.982 2.699 24.46-3.795 3.049-1.646 5.148-6.432 5.26-9.144-.248-5.774-8.397-9.983-12.452-14.567-16.834-15.825-35.049-30.1-52.387-45.339-8.752-7.478-17.598-14.877-26.415-22.257a1771 1771 0 0 1-13.393-11.107c-4.446-3.205-8.934-8.793-13.999-8.807-18.446 27.385-39.609 53.757-58.834 80.778-1.867 2.617-3.797 5.272-6.356 7.239-6.654 1.94-14.252.353-21.14.983H1424c.19 7.73 3.98 16.296 5.5 23.13.813 5.356 6.78 5.173 10.476 4.87zm-29.999-681.674c-1.436 20.385 17.457 38.397 37.357 36.673 20.5 1.396 36.838-18.072 36.3-37.375-.061-19.998-18.16-37.7-38.413-35.616-18.967-.868-36.508 17.08-35.244 36.318m140.494-91.415c-.28 3.464 5.287 5.619 6.717 7.86 8.986 8.72 17.1 18.351 24.101 28.72 3.421 4.888 6.616 9.889 9.464 15.127 1.455 2.208 3.012 6.65 5.864 5.662 2.184-1.912 4.607-3.578 6.427-5.904 11.2-12.96 26.107-30.621 21.48-52.682-1.434-13.45-18.875-21.459-30.486-20.287-13.64 1.208-26.205 7.612-37.4 15.164-2.101 1.661-6.371 3.675-6.167 6.34" style="fill:#fff;fill-rule:evenodd;stroke:none"/><path d="M449 2668h2102c-110.242-665.144-221.837-1330.12-332.532-1995.186-3.476-20.835-6.96-41.682-10.42-62.51-1.682-10.253-3.434-20.498-5.126-30.74-1.284-4.301-.763-13.077-5.037-14.575-157.034-52.902-314.464-104.735-471.586-157.384-59.003-19.668-117.989-39.359-177-59-12.991-4.38-26.002-8.647-38.997-13.002-3.112-1.025-6.191-2.224-9.42-2.795-5.85.042-13.257 4.126-19.018 5.393-97.504 32.546-195.061 65-292.567 97.54-73.178 24.36-146.325 48.77-219.478 73.159-54.841 18.294-109.718 36.516-164.531 54.86-6.415 1.276-7.163 6.488-7.57 12-26.516 158.994-52.99 317.976-79.524 476.964A2145928 2145928 0 0 0 449 2668m630-1598h1.5c16.76-2.328 33.738-5.907 50.5-7.5-21.327 27.36-31.987 61.404-38.91 94.907-7.172 35.99-9.797 73.162-5.09 109.593h1.5c13.115-12.246 26.888-23.769 40-36-1.735 29.968-7.378 61.11-.66 91.245 2.759 14.902 8.933 28.898 12.824 43.495 3.873 14.16 3.57 28.94 1.336 43.26 14.482-.817 26.443-10.534 34.5-22 3.563 5.493 4.644 14.75 8.244 21.672 18.888 48.89 53.017 92.031 98.756 118.328 4.608-11.857 4.219-25.83 8-38 10.985 22.3 22.729 44.81 38.77 64.072 8.013 9.711 19.161 19.625 27.938 27.038 9.774 7.117 20.028 16.211 32.792 16.89.666-10.901-.832-22.21.5-33 15.858 16.323 36.758 26.311 54.365 40.38 9.442 6.971 17.682 15.422 25.784 23.858 3.861 4.428 7.68 8.917 11.506 13.363 4.192 3.641 6.951 10.422 11.345 12.399 37.577-47.135 90.021-79.317 143.176-106-8.165 13.824-17.832 33.114-6.176 47 25.444-20.49 49.316-42.946 72.233-66.233 11.511-11.677 22.556-23.86 32.583-36.846 9.382-12.374 18.967-25.443 22.184-40.921 8.715 15.756 16.3 32.255 25 48 16.8-26.397 28.681-55.893 37.98-85.716 10.993-31.27 18.003-63.834 24.02-96.284 8.864 11.096 18.258 21.82 27 33 9.796-30.982 16.481-63.742 15.229-96.462-.841-32.018-6.49-64.119-11.229-95.538 12.68 10.594 26.703 22.573 44.5 22-9.436-21.104-18.996-42.345-26.155-64.41-7.783-21.444-16.884-42.842-30.845-61.09v-1.5c10.29-.078 20.715-.22 30.819 2.074 8.995.778 17.412 4.413 26.181 5.926.708-34.52-5.496-69.982-22.688-100.354-14.114-29.926-40.247-53.614-71.312-64.146 10.783-10.673 21.773-25.282 26.719-38.355 5.56-16.644 2.763-34.21 1.281-51.145-25.099 12.874-50.356 28.71-78 35.5 16.048-23.582 31.85-48.878 37-77.5-42.34 17.703-84.542 36.431-126.5 55-.614-8.307 5.462-17.904 6.969-25.856 9.347-24.385 22.47-47.392 37.531-68.644V724c-15.556-2.927-31.052-7.242-47.124-5.993-22.998.405-45.849 6.333-66.31 16.73-9.604 5.06-18.952 10.722-27.833 16.956-4.381 3.389-8.99 6.463-13.103 10.185-4.289 2.638-8.702 8.72-12.63 10.122.002-22.143 13.453-41.189 21-61-20.79 2.488-41.086 10.972-56.593 25.132-7.08 6.947-14.522 15.96-20.094 23.141-2.716 3.885-5.478 7.769-7.888 11.848-2.72 3.423-4.652 10.052-7.925 11.879-10.186-13.533-20.483-27.917-36.113-35.772-24.595-12.891-52.816-13.472-79.715-15.32-13.556-1.692-27.423-2.34-40.375-6.98-6.324-1.936-12.137-5.1-17.838-8.36-5.128-2.467-10.917-8.203-15.459-9.568-2.07 13.003-3.631 29.046 1.103 40.643 4.396 12.306 12.64 22.826 21.897 31.857-10.242 1.503-22.642-1.212-32.035-1.583-30.63-3.195-61.242-10.722-89.465-22.917-9.16 20.457-2.515 39.967 9.378 55.705 6.63 8.598 13.47 17.093 21.122 24.795-35.26 2.2-71.036-3.889-105-12.5-13.658 35.042 14.538 65.36 32 88-21.801 5.991-40.392 21.343-54.097 38.85-14.1 18.103-22.034 40.438-25.754 62.884-3.583 18.91-4.07 38.144-4.149 57.266m14 1426c25.668.177 52.119.589 76.672-8.293 8.17-2.83 16.748-8.177 23.442-12.301 6.276-4.273 15.272-9.682 15.76-16.876.358-15.782-.064-31.579.126-47.348-.19-2.926.09-5.827.411-8.709.491-2.454 4.729-2.203 6.56-2.46 20.546.617 41.213-.791 61.717.419 2.343.67 2.01 4.725 2.303 6.56.025 18.006-.004 36.008.009 54.008 17.652.405 35.406.725 52.7-3.434 11.996-2.508 23.76-6.095 35.432-9.773 8.198-3.148 18.438-6.252 25.084-10.953 4.68-4.712 1.816-14.705 2.784-21.787V2193c12.73-2.078 25.012-8.211 34-17.5-35.694-27.3-72.05-53.904-107.5-81.5-14.26 16.33-29.527 31.75-44.396 47.516-3.47 4.314-6.571 9.348-13.822 8.484H1209v-99c.476-8.037-.62-17.631.432-24.948-.234-3.145 5.256-2.87 7.163-3.05 21.15-.006 42.264.001 63.405-.002v24.6c.017 6.193-.021 12.409.012 18.595.175 1.955.199 5.413 1.877 6.2 14.658 1.762 32.365-.56 45.663-2.404 15.741-2.796 31.121-6.986 46.151-12.394 6.728-2.697 16.39-6.12 21.165-9.865 3.496-2.335 1.41-9.444 2.132-12.707V1840c12.56-2.732 25.015-7.903 34-17.5-35.559-27.492-71.89-54.079-107.5-81.5-12.335 12.794-24.407 25.805-36.412 38.888-2.831 3.615-6.27 6.707-9.458 9.982-2.377 1.83-4.63 5.75-6.997 6.66-10.793 1.183-21.806-.086-32.633.47v-1.5c20.38-22.96 39.322-47.171 58.753-70.929 4.77-6.071 9.531-12.127 14.246-18.236 3.438-4.698 7.096-9.238 10.655-13.84 2.735-4.175 6.847-4.46 11.046-5.01 6.375-1.311 12.7-3.597 18.027-7.387 6.484-3.889 7.344-9.994 10.273-15.598-.458-.45-.911-.96-1.25-1.5-55.055-7.906-109.659-19.371-164.75-27 1.038 49.695-1.28 99.338-2 149-8.262-.977-17.086-6.189-24.387-8.143-25.334-8.837-50.192-19.372-75.613-27.857zm585.5-1533c-30.387-14.778-66.14-19.341-99.453-13.94-31.685 4.637-62.387 17.88-85.547 39.94-22.066-24.645-60.725-36.67-89.691-40.702-26.274-3.804-53.53-.46-78.515 8.106-4.361 1.072-9.744 3.982-13.284 5.019-4.458.945-7.84-4.048-10.764-6.617-25.401-21.19-58.094-37.235-91.993-34.45-32.508 3.34-61.328 35.176-55.343 68.67 3.166 22.732 14.862 43.422 28.628 61.335 5.301 6.684 10.924 13.098 16.7 19.37 4.597 5.129 13.684 8.385 10.518 17.332-13.618 53.323 1.598 109.748 31.133 154.783 16.925 26.376 37.775 50.102 60.999 71.066 18.051 15.027 36.202 30.231 56.455 42.278 3.134 2.472 7.375 4.55 10.238 6.796 3.252 2.362 2.123 8.218 2.767 12.364 2.5 30.731 15.623 60.964 38.022 82.52 21.892 22.993 53.18 36.071 84.81 36.082 65.262.338 121.838-58.392 122.773-122.97.206-1.867-.053-4.49.814-6.407 11.567-8.803 25.025-15.52 36.31-24.893 36.31-26.508 68.53-59.081 93.032-96.856 26.537-39.457 40.55-87.477 34.9-135.071-.656-6.115-1.979-12.098-3.33-18.071-.808-2.468-.834-5.03-1.159-7.555 24.903-25.464 52.39-55.606 56.88-93.232 2.607-17.639-4.237-35.663-16.43-48.307-9.393-9.026-20.855-15.867-33.81-18.285-20.154-4.21-40.971 1.126-59.301 9.378-17.309 7.789-33.29 18.497-46.359 32.317m-452 81c6.5-9.97 11.6-21.023 19.41-30.175 3.97-4.922 8.117-9.65 12.28-14.406 3.415-5.09 10.572-8.288 12.81-12.919-11.157-9.005-26.61-17.724-39.798-19.538-14.58-3.257-31.815 7.323-33.112 22.55-1.363 19.745 11.476 36.828 24.31 50.388zm-17.5 953h71v-174h-36c-11.139 1.041-25.018-1.374-35 1zm0 180c1.058 65.336-1.29 131.071.697 196.29 2.212 2.98 8.717.939 11.632 1.71h46.48c5.178.135 12.747 1.358 12.17-6.429.06-40.288-.011-80.55.021-120.828v-63.428c-.338-2.428.314-6.485-1.818-7.674-11.49-1.608-23.335.112-34.906-.641-10.904 1.07-24.53-1.403-34.276 1m130.492-1098.614c.549 13.395 7.838 26.283 20.194 32.034 12.232 6.84 28.416 3.88 38.768-4.771 15.127-12.133 16.995-36.232 3.847-50.525-12.01-15.204-37.14-15.996-50.887-3.002-7.847 6.529-11.384 16.29-11.922 26.264M1411 1336c15.761-.686 31.591-1.593 46.64-6.776 6.9-2.603 14.616-6.836 20.259-10.52 6.488-3.306 10.582-10.014 16.601-13.704 9.91 10.432 21.778 19.441 35.67 23.903 14.972 5.858 31.065 6.084 46.83 7.097v-27c-21.433-.678-51.501-1.83-67-26 8.253-2.427 14.822-10.882 20.37-15.87 9.102-8.898 16.296-19.64 22.038-30.94 6.391-12.06 11.218-25.4 10.577-39.26.272-17.878-20.555-16.002-32.028-17.672-15.307-.649-30.631.047-45.937-.258-10.027.206-20.086-.346-30.094.42-11.91.669-31.404 1.321-29.913 20.037-.017 13.327 6.207 28.1 11.652 38.707 5.178 9.03 10.736 17.934 17.767 25.682 3.821 3.863 7.531 7.88 11.773 11.29 3.027 3.682 9.778 6.05 11.795 9.364-8.166 8.193-17.417 16.097-28.69 19.531-12.402 3.677-25.437 4.498-38.31 4.969zm196 423v109.2c-.026 4.415.033 8.822-.02 13.234-.32 1.623-.002 4.235-1.287 5.666-7.34 1.723-15.256.377-22.748.9-13.041.802-25.102-4.39-37.023-9.174-35.98-13.24-71.9-26.748-107.922-39.826v562c18.538-.445 37.32 1.046 55.719-1.805 12.678-1.994 25.234-5.458 36.651-11.38 7.804-4.078 16.949-9.286 22.985-14.728 6.454-5.737 4.255-13.746 4.645-21.341V1914h49v606c36.203.272 75.443 1.45 107.505-18.784 7.251-4.12 17.694-9.73 18.37-17.687.357-29.985-.066-60.006.125-89.978V1914h52v319.8c.527 10.185 2.206 26.189-13.776 25.61-11.715-.58-23.5-1.033-35.224-1.41v13c11.176 1.213 21.695 6.888 28.072 16.232 9.569 14.174 12.994 34.466 14.42 49.675 1.983 18.634 1.413 37.401 1.508 56.093 18.63-1.751 37.195-4.751 55.205-9.934 24.866-6.748 49.746-21.27 59.869-46.418 10.132-26.361 10.771-55.211 10.926-83.007v-274.199c.388-15.145-.474-30.375.256-45.5-.001-3.707 4.528-4.428 7.53-5.19 9.425-3.052 18.329-8.03 25.214-15.252-36.58-28.725-74.3-56.758-111.5-84.5-12.43 14.665-25.386 28.934-38.213 43.249-3.178 3.718-6.306 7.459-9.763 10.928-4.465 6.793-15.042 4.46-22.002 4.823H1733v-129c63.567-.94 127.27 1.147 190.786-.619 6.852-.747 14.032-2.886 17.998-8.83 4.562-5.74-2.402-10.898-6.3-14.447-31.443-28.246-64.31-54.895-96.485-82.297-4.188-2.622-7.804-7.758-11.999-8.807-18.446 27.385-39.609 53.757-58.834 80.778-1.867 2.617-3.797 5.272-6.356 7.239-6.654 1.94-14.252.353-21.14.983H1425c.8 6.576 3.983 15.09 6.079 22.642.715 4.433 8.138 3.063 11.097 3.358zm-29.995-680.763c-.956 19.777 17.5 37.177 36.738 35.759 19.597.623 35.298-18.242 34.755-36.782-.559-19.099-18.24-36.039-37.602-34.182-17.976-.13-34.538 16.871-33.89 35.205M1717 986.625c.875 2.603 4.474 4.29 6.564 6.545 15.832 14.344 27.479 32.477 37.936 50.83 11.457-11.778 24.892-27.765 28.08-42.978 1.037-7.566 1.26-16.974-4.865-24.503-5.762-6.845-14.802-10.666-23.69-10.052-16.554 1.072-30.769 10.572-44.025 19.533z" style="fill:#000;fill-rule:evenodd;stroke:none"/></svg>