<svg xmlns="http://www.w3.org/2000/svg" width="3000" height="3000"><path d="M1046 2183c80.607.76 161.478-.926 242 .5-16.988 28.891-34.166 57.842-52.592 85.847-12.723 20.716-26.599 40.7-40.005 60.976-9.958 15.598-22.17 29.96-32.276 45.34-1.977 3.367 3.474 5.657 5.893 6.54 24.422 12.258 50.925 20.239 78.105 23.186 14.339 1.879 28.813 1.638 43.17.49 6.215-1.591 14.839-.475 18.838-4.42 4.232-4.74 7.254-10.415 11.262-15.336 9.284-14.409 20.474-28.097 28.605-43.123 10.45.867 21.938 6.243 31.155 8.553 31.096 10.128 62.975 19.752 92.845 32.947-57.461 48.914-127.498 80.356-197.839 105.6-73.288 27.31-150.485 43.294-226.161 61.4.538 3.303 2.202 7.638 3.915 11.211 2.729 2.654 9.202.207 12.374.68 74.846-5.362 149.535-13.735 223.662-25.316 73.685-11.842 147.148-28.883 216.156-57.748 29.286-12.32 57.83-26.858 84.393-44.327 39.556 20.378 78.85 41.898 116.414 65.927 13.16 9.153 27.16 17.007 40.174 26.37 11.824 8.464 23.388 17.313 36.382 23.918 24.274 11.936 53.282 15.985 79.67 8.472 18.583-4.715 36.016-15.743 46.484-32.017 19.107-28.172 1.754-61.563-16.462-80.86-9.816-10.431-21.505-18.943-33.333-26.914-11.716-7.664-23.886-14.774-36.726-20.377-44.632-22.033-93.021-35.388-141.103-47.019 38.469-47.522 64.629-103.57 86.972-160.032.94-2.833 1.973-5.645 3.45-8.244 1.158-2.986 6.688-1.771 8.958-2.224h152.585c8.608.099 18.361-.187 25.19-6.335 2.545-2.34 5.194-6.172 4.373-10.008-2.795-6.325-12.018-10.739-16.528-15.85-21.418-17.916-44.052-34.262-65.86-51.675-8.245-6.409-16.57-12.736-24.75-19.218-3.57-2.937-7.226-5.765-10.9-8.557-8.426-8.668-13.89 2.464-18.76 8.719-18.227 23.653-37.117 46.79-55.386 70.4-4.787 5.759-16.178 2.464-24.017 3.524H1468c9.792-20.663 23.628-39.436 33.61-60.06 3.828-4.541 5.028-12.93 10.262-14.524 15.412-1.261 38.204-3.508 42.128-26.416-34.336-6.378-68.629-13.312-103-19.5 83.085-1.537 166.327.278 249.435-.14l187.433.527c11.763.03 23.53.071 35.283.097 9.457.034 21.655-1.027 28.412-7.195 2.999-2.616 6.307-8.925 3.614-11.621-25.84-22.593-53.758-42.849-80.652-64.143-10.218-7.802-20.596-15.424-30.986-22.99-2.296-1.603-4.508-3.531-7.252-4.25-2.38-1.082-4.606 3.049-6.063 4.223-13.22 16.395-26.216 32.959-39.343 49.418-4.919 6.146-9.815 12.307-14.748 18.433-2.065 2.707-4.346 6.206-7.033 7.926-6.217 2.486-15.523.349-22.11 1.215H1589.5l-1.5-.5c37.82-23.058 72.214-51.371 106.194-79.637 16.967-15.149 33.935-30.26 49.908-46.465 4.044-4.134 8.324-8.073 12.032-12.515 2.698-3.578 8.256-2.754 12.247-3.205 11.072-1.069 25.864-8.353 25.619-22.678-52.058-10.767-103.968-22.642-156-33.5 57.088-1.426 114.287.26 171.405-.5h92.965c8.157.086 17.132-.093 23.954-5.282 2.782-2.123 5.548-4.812 6.1-8.406.716-6.191-8.247-10.363-12.62-15.114-19.714-16.674-40.218-32.367-60.92-47.778-7.8-5.708-15.405-11.678-23.194-17.38-3.389-2.59-6.803-5.14-10.337-7.523-2.757-1.931-6.105-5.289-9.97-5.048-5.593 3.51-9.897 12.022-14.799 16.538-8.198 10.324-16.712 20.373-24.947 30.66-6.465 7.635-12.57 15.548-18.962 23.239-2.263 2.448-4.598 6.62-7.812 6.73-29.267 1.04-58.679-.19-87.97.364H1569v-83.4c.03-4.28-1.13-10.924 4.768-11.708 7.906-1.583 17.826-4.354 22.827-10.2a28.2 28.2 0 0 0 5.76-9.674c1.294-2.46 1.927-8.726-1.303-8.588-55.969-4.26-112.035-8.049-168.031-12.009-2.324-.189-4.69-.385-7.021-.421v136h-355v1.5c2.87 9.098 5.3 18.366 8 27.5h178c18.6 34.684 33.013 71.822 40.43 110.624 2.243 10.1 3.482 20.341 4.428 30.613.744 8.116 1.153 16.273 1.147 24.416-.825 5.748 4.656 10.153 8.99 13.066 12.748 9.427 30.072 18.963 45.005 19.781-104.314 1.426-208.675-.26-313 .5 1.873 9.835 6.07 19.164 8 29 105.607.76 211.478-.926 317 .5-13.285 27.996-28.245 55.374-42.986 82.657-5.522 10.012-11.238 19.927-16.912 29.85-1.13 2.229-2.407 4.377-4.309 6.02-4.959 1.691-11.034.58-16.284.973H1038c1.85 9.809 5.815 19.258 8 29m172-1185c23.467 77.333 50.897 153.65 75.395 230.7 2.443 7.333 4.888 14.683 7.345 22.003 1.724 6.863 5.736 14.596 6.017 21.16-1.482 15.743-.238 31.651-.896 47.434-.406 30.06-.806 60.12-1.24 90.176-.187 13.271-.38 26.527-.566 39.786.711 11.516-1.152 25.41.882 35.84 6.457 18.93 31.589 27.18 48.204 32.454 75.16 18.81 154 19.216 230.736 12.472 18.967-1.924 37.904-4.822 56.369-9.582 18.84-5.738 59.376-16.506 55.754-47.23.062-29.983-.66-59.944-1.047-89.91-1.237-36.144-.078-72.363-1.47-108.482-.668-10.397 6.632-23.251 9.417-35.002 13.269-40.355 26.334-80.78 40-121 6.557-20.2 12.892-40.456 19.84-60.522 5.58-19.672 15.235-41.962 19.26-60.297 20.047 3.387 42.126 1.177 58.377-12.145 7.468-6.4 14.26-13.864 18.521-22.822 4.177-9.376 6.401-19.607 6.102-29.855.94-17.85-4.557-36.58-18.233-48.91-12.472-13.381-31.027-19.275-48.926-19.147-17.828.232-35.81 6.522-48.198 19.757-12.767 12.894-19.117 31.096-18.223 49.098 1.438 19.934 10.192 41.912 27.58 53.024-.387 4.35-4.22 9.122-6.618 13.498-19.53 32.572-38.483 65.456-58.124 97.954-18.949 32.67-38.814 64.92-57.758 97.548 6.957-91.913 18.871-184.013 26.5-276 37.007.605 70.454-33.49 66.998-70.725.176-18.41-8.688-36.196-21.892-48.6-5.898-5.58-14.393-10.096-21.294-12.701-8.894-3.499-18.559-3.135-27.895-2.96-17.871.232-35.026 9.35-46.726 22.543-11.812 13.745-17.795 32.24-15.55 50.352.753 24.874 17.923 48.035 41.359 56.091-1.84 11.763-7.704 22.652-10.557 34.173-26.244 78.528-51.702 157.316-77.943 235.827-7.94-49.3-11.55-99.474-18.745-148.935-5.24-49.763-12.702-99.3-17.755-149.065 28.102-3.642 51.13-30.213 53.68-57.819 1.64-17.641-2.398-36.482-14.26-50.112-10.839-13.613-27.074-23-44.639-23.962-17.764-1.356-36.588 1.72-50.364 14.034-13.904 10.525-22.771 27.087-24.063 44.421-1.637 16.751 1.83 34.567 12.377 48.055C1456 873.04 1470.236 884.597 1487 886c-5.325 49.663-12.2 99.176-17.73 148.812-7.078 49.562-10.934 99.81-18.77 149.188-15.208-44.933-29.903-90.072-44.7-135.135-7.818-22.557-14.955-45.357-22.357-68.036-3.728-11.175-7.428-22.372-11.183-33.532-2.793-10.886-8.773-23.07-10.26-33.297 12.584-4.038 23.08-13.162 30.657-23.724 7.878-11.812 11.174-25.818 11.168-39.881.868-36.139-32.443-68.41-68.788-65.395-36.346-1.862-67.95 33.944-65.037 69.39-.917 34.356 30.841 64.906 64.627 65.49.779.074 1.591.092 2.373.12 8.332 91.567 18.446 182.987 27 274.541l-.5 1.459c-20.523-34.579-40.988-69.296-61.5-103.893-10.335-17.509-20.799-34.945-31.12-52.45a2617 2617 0 0 1-15.55-26.209c-4.022-9.18-12.642-18.046-14.33-26.448 8.059-2.762 14.82-13.444 18.108-19.043 4.383-7.678 7.82-17.673 8.584-25.746 2.718-17.855-.955-36.93-12.281-51.339-10.447-14.595-27.587-23.682-45.32-25.177-18.02-2.145-37.398 2.4-51.457 14.185-13.707 10.345-23.28 27.21-23.634 44.563-.848 17.833 1.749 36.882 14.072 50.875 11.304 13.638 27.718 23.515 45.912 23.644 7.69.212 15.401.168 23.016-.962m-56.935-75.271c-.191 13.142 11.796 24.538 24.616 23.824 12.392-.956 22.38-12.69 21.253-25.067-.036-12.636-12.85-22.638-25.111-20.807-10.502 1.575-20.656 10.624-20.758 22.05m136.037-78.498c.163 12.82 11.761 24.174 24.294 23.634 12.537-.45 22.527-12.169 21.515-24.488.059-13.127-12.394-22.938-24.92-21.282-10.942.52-20.68 11.04-20.889 22.136m3.898 962.144c47.565 13.254 98.766 34.225 127.1 77.662 14.351 22.279 17.751 51.08 7.423 75.582-9.981 24.132-33.44 42.257-59.523 44.881 61.633 1.426 123.355-.26 185 .5 9.748-32.959 17.555-66.618 23.738-100.456 5.364-32.764 12.748-65.379 15.262-98.544-99.588.57-199.514-.695-299 .375M1338.5 1444c25.614-7.744 52.887-11.239 79.58-13.405 42.176-4.252 84.649-3.925 126.951-2.626 39.189 3.275 79.646 4.142 117.469 16.031 1.139-3.766.174-8.444-.013-11.908-1.573-3.338-6.741-3.467-9.676-4.468-36.578-9.463-74.678-10.933-112.06-14.793-37.005-2.12-74.078-.956-110.986 2.58-17.776 1.636-35.43 4.08-53.125 6.388-8.983 1.317-17.906 3.08-26.686 5.347-3.908.95-8.1 1.59-11.33 4.108-.591 3.823-1.006 9.576-.124 12.746m.5-57c52.646-13.813 107.473-18.629 161.845-18 54.158-.314 108.576 5.124 161.155 18v-15c-25.536-7.48-52.285-10.676-78.707-13.585-41.616-4.565-83.69-6.766-125.478-3.474-39.714 3.776-80.214 6.388-118.815 17.059zm1-58h1.5c51.666-15.258 106.018-18.215 159.538-18 53.532.513 108.359 2.158 159.962 18v-15c-25.542-8.016-52.503-10.497-78.917-14.052-41.158-4.548-82.709-6.417-124.046-3.305-39.547 2.736-79.848 6.151-118.037 17.357zm27 986.375c34.073 2.973 69.206 3.491 103.41 7.17 17.057 1.213 34 3.275 50.995 4.988 9.493 2.041 13.413-5.733 18.064-12.672 4.432-6.466 9.589-12.466 13.333-19.391 10.602-16.505 21.8-36.734 29.092-53.205 8.432-18.551 18.055-40.956 22.106-59.265h-85.2c-21.219.043-42.421-.052-63.624.028-7.193-.295-10.34 9.102-13.747 14.112-24.427 39.567-48.836 79.526-74.429 118.235m92.194-1501.944c.52 12.963 12.324 24.4 25.332 23.31 12.205-1.115 22.57-13.278 21.053-25.596-1.198-13.04-14.156-22.261-26.74-19.858-10.803 1.35-19.336 11.287-19.645 22.144m163.843 30.83c-.378 13.117 11.739 24.811 24.623 23.599 12.301-.771 22.14-12.864 21.154-24.937-.814-12.484-12.574-22.29-24.885-20.837-11.146.233-21.364 11.975-20.892 22.175m135 79c-.156 12.685 12.05 24.072 24.398 23.356 12.226-1.06 22.262-12.56 21.433-24.8-.17-12.726-12.47-22.806-24.913-21.209-11.067 1.113-21.208 11.012-20.918 22.654" style="fill:#fff;fill-rule:evenodd;stroke:none"/><path d="M407 2715h2186c-110.539-672.045-224.255-1343.735-335.448-2015.7-7.021-42-13.992-84.001-21-126-1.697-9.995-3.31-20.009-5.015-29.99-1.448-5.044-.832-12.003-3.96-15.528-76.243-26.577-153.757-51.077-230.278-77.177-134.483-44.879-269.004-89.635-403.48-134.505-25.332-8.389-50.626-16.918-75.954-25.3-5.917-1.536-12.636-4.925-18.277-5.3-93.44 29.594-186.049 62.334-279.322 92.571-139.474 46.507-278.96 93.003-418.44 139.486-8.804 3.003-17.696 5.81-26.461 8.89-4.891 1.307-5.283 6.555-5.858 10.493-21.164 127.083-42.351 254.18-63.537 381.259C606.88 1517.176 505.406 2115.971 407 2715m632-559.75c3.42 8.47 4.96 18.073 8 26.75 80.929.76 162.151-.926 243 .5-19.011 34.217-40.518 67.106-61.427 100.169-20.55 32.485-42.367 64.214-65.573 94.831 29.287 15.507 62.079 26.299 95.527 27.602 9.17.978 18.296 1.104 27.454-.011 6.52-.566 13.164-1.006 19.458-2.907 3.848-1.129 5.872-6.558 8.96-10.055 7.66-10.773 15.248-21.592 22.575-32.589 4.285-6.097 8.109-12.555 12.526-18.54 42.993 11.347 84.556 27.686 126.5 42v2c-29.21 21.714-59.148 44.411-92.406 60.206-51.33 27.679-107.004 46.555-162.469 63.922-28.66 9.071-57.846 16.25-86.91 23.824-14.006 3.031-27.865 6.764-41.88 9.744-7.382 1.469-14.683 3.168-22.032 4.745-3.546.632-7.034 1.473-10.52 2.345-3.187.809-7.31.867-9.783 2.714 1.595 2.521 2.061 6.442 3.928 9.223 5.313 2.703 11.407-.534 17.163.224 5.851-.464 11.673-.952 17.53-1.319 103.664-9.5 207.828-20.111 308.947-45.995 37.217-9.275 73.914-21.48 109.21-36.489 14.564-6.112 31.449-13.96 44.087-21.053 6.711-3.338 13.2-7.122 19.665-10.891 6.264-2.99 13.924-9.417 19.537-10.702 51.007 23.649 98.678 54.095 145.992 84.239 17.703 11.257 33.547 25.76 53.015 34.093 34.61 15.41 80.033 12.476 108.66-14.067 10.15-9.576 17.272-22.688 17.843-36.797-.332-25.502-15.1-48.43-34.706-63.872-27.513-23.733-60.81-39.352-94.248-52.652-35.08-12.758-70.733-25.053-107.623-31.442v-1.5c27.758-33.988 49.35-72.731 67.533-112.556 7.466-15.282 13.179-31.36 19.874-46.974 1.186-3.504 2.434-6.984 4.244-10.22 2.226-3.026 8.777-.985 11.72-1.75h129.249c10.445-.4 20.931.535 31.343-.404 6.864-1.16 15.653-3.742 18.197-11.9 1.262-3.291-2.23-6.27-4.525-8.187-39.044-31.986-79.158-62.744-119.135-93.509-20.055 23.724-38.122 49.057-57.912 73.008-3.715 4.17-7.256 9.824-11.042 13.277-50.362 2.04-101.375-.371-151.857.715-50.468-.76-101.325.926-151.689-.5 12.264-19.25 23.165-39.733 34.547-59.563 3.181-4.749 6.088-12.362 9.44-15.743 4.372-2.306 9.558-.396 14.33-1.866 13.076-1.474 25.936-10.311 29.683-23.328-36.465-7.754-73.735-13.075-110-21.5 87.264-1.545 174.85.26 262.179-.13l131.076.372 65.888.187c10.74-.13 21.561.53 32.235-.83 10.82-.269 17.589-5.921 21.622-14.599-38.961-32.64-79.407-63.634-120.5-93.5-14.244 16.659-27.263 34.336-41.137 51.29-5.111 6.415-10.239 12.784-15.346 19.193-4.217 5.682-7.712 12.873-17.237 11.517H1585.5l-1.5-.5c38.103-23.198 72.946-51.51 107.166-79.99 17.41-14.876 34.197-30.472 50.436-46.612 4.046-4.185 8.34-8.12 12.214-12.463 4.51-6.481 16.532-3.112 24.172-7.503 7.582-2.973 14.289-9.377 15.012-17.932-55.064-11.44-110.016-23.673-165-35.5 58.63-1.426 117.406.26 176.053-.5h95.922c8.039-.077 16.961.354 23.997-4.365 2.917-1.958 6.35-4.887 7.113-8.147 1.185-3.716-2.837-6.24-5.415-8.438-20.646-17.828-42.244-34.526-64.077-50.854-8.245-6.23-16.559-12.393-24.8-18.613-3.622-2.632-7.154-5.366-10.81-7.946-3.283-1.663-7.153-6.37-10.44-6.07-20.68 23.948-40.053 49.164-60.362 73.448-5.069 6.085-16.702 3.213-24.978 3.985H1568v-75c.381-6.111-.53-13.435.447-18.977.24-3.944 7.995-2.906 10.279-4.487 5.742-1.748 12.019-3.377 16.164-8.064 4.437-4.316 6.645-10.117 8.11-15.972-2.568-2.014-7.123-1.243-10.786-1.706-55.077-3.997-110.15-7.677-165.214-11.794v136c-118.264.76-236.81-.926-355 .5 3.607 8.357 4.897 17.919 8 26.5h178c13.583 27.24 27.263 55.204 34.291 85.118 6.688 22.55 10.259 45.942 11.484 69.383.503 4.832-.076 9.723.473 14.54.397 3.42 4.496 6.079 7.39 8.662 11.874 9.284 25.462 16.549 40.175 20.125 22.755 3.678 47.454-1.866 64.396-18.287 16.409-15.066 25.631-37.44 24.123-59.707-2.392-35.11-27.618-63.198-55.667-81.408-27.942-18.824-60.264-29.665-92.665-37.926 102.93-1.426 206.038.26 309-.5-2.006 34.627-10.333 68.547-15.656 102.728-6.161 33.111-13.768 66.02-23.344 98.272-172.264.76-344.81-.926-517 .5 3.643 8.36 5.232 17.802 8 26.5 105.929.76 212.151-.926 318 .5-13.279 28.3-28.348 55.918-43.261 83.406-5.538 10.01-11.13 19.959-16.895 29.833-2.144 4.538-4.494 9.193-11.14 8.256-86.905.014-173.812-.003-260.704.005zM1219 997c23.408 77.142 50.762 153.275 75.2 230.135 3.75 14.145 11.276 30.048 13.626 43.274-1.887 31.631-.092 63.461-1.573 95.127-.37 27.998-.797 55.976-1.194 83.962.914 11.647-1.596 26.078 1.572 36.466 9.06 18.624 30.997 25.34 49.016 31.048 74.906 18.147 153.246 18.963 229.63 11.798 18.684-2.008 37.292-4.935 55.467-9.752 19.154-5.642 58.685-17.174 54.256-48.02.069-29.957-.774-59.922-1.096-89.87-1.375-36.227.148-72.54-1.617-108.738.113-10.272 7.188-22.873 9.913-34.565 13.238-40.219 26.256-80.508 39.87-120.6 6.557-20.163 12.902-40.404 19.83-60.446 5.528-19.52 15.11-41.632 19.1-59.819 20.987 3.011 44.558 1.457 60.724-14.258 16.638-13.868 23.995-35.197 22.263-56.47.1-17.765-9.652-34.14-22.797-45.308-13.775-11.304-32.437-16.393-50.113-14.292-17.417 1.484-34.32 10.18-44.804 24.35-11.417 14.076-15.665 32.827-12.932 50.555 2.522 18.222 13.046 35.103 27.659 45.923-19.757 36.568-42.802 71.545-63.228 107.79-21.024 35.569-42.251 71.179-63.272 106.71 8.073-94.231 19.085-188.704 27.5-283 36.964.603 70.472-33.468 66.977-70.69-.409-17.905-9.221-35.033-22.244-46.98-6.174-5.56-13.61-9.57-21.316-12.503-8.79-3.26-18.271-3.075-27.466-2.765-35.982 1.54-65.845 37.22-60.12 72.947 1.005 12.627 5.963 25.09 14.05 34.843 6.854 10.055 18.142 14.757 28.119 20.648-31.106 91.581-60.003 184.068-91.5 275.5-11.834-101.6-25.511-203.279-36.5-305 28.102-3.644 51.13-30.211 53.68-57.82 4.514-34.854-23.416-70.01-58.896-72.073-17.503-1.352-35.867 2.53-49.178 14.727-13.506 10.458-21.96 26.79-23.252 43.73-4.304 32.504 20.171 67.505 53.646 71.436-10.957 101.715-24.713 203.44-36.5 305-31.526-91.14-60.215-183.89-91.5-275.25 3.963-3.743 11.578-5.606 16.494-9.9 20.03-14.075 29.456-40.347 25.396-64.154-3.67-23.212-21.11-43.553-43.275-51.243-16.64-6.108-38.783-4.264-52.828 3.695-14.835 8.093-26.4 22.099-31.683 38.096-5.733 16.696-3.833 38.908 4.625 52.791 7.742 14.387 23.673 26.678 37.673 31.444 6.978 2.298 14.264 3.41 21.598 3.521 8.136 94.34 19.711 188.719 27.5 283-20.987-35.487-42.08-71.01-63.107-106.491-20.69-36.145-43.18-71.325-63.393-107.717 18.65-12.368 28.077-34.62 28.507-56.454.077-22.882-11.958-44.776-31.95-56.283-30.385-18.122-73.944-7.67-91.515 23.42-18.15 30.387-6.533 74.202 24.093 91.496 15.32 9.39 33.732 9.147 50.865 7.029m-58.98-74.115c-.644 13.954 12.1 25.73 25.63 24.822 13.218-.548 23.629-12.79 22.328-25.86.607-14.536-12.528-23.068-25.62-22.439-11.629 1.078-22.783 11.024-22.337 23.477m136.017-78.624c-.306 13.757 12.17 25.675 25.55 24.674 13.505.084 23.688-12.871 22.548-25.633-.331-15.09-13.077-23.71-25.985-22.393-11.887.266-22.311 11.269-22.113 23.352M1337 1445h1.5c25.812-7.067 52.405-11.473 79.131-13.264 42.553-4.29 85.416-4.177 128.105-2.705 39.712 2.39 79.735 5.436 118.264 15.969-.245-5.736 1.495-14.37-3.932-16.67-5.62-1.746-12.441-3.243-17.669-4.547-53.637-9.18-108.314-14.46-162.712-12.783-26.917.548-53.716 3.779-80.433 6.715-12.996 1.52-25.936 3.41-38.795 5.75-6.367 1.522-12.838 2.708-19.083 4.68-6.326 1.744-3.844 12.013-4.376 16.855m1-56c53.062-15.443 108.866-19.013 163.834-19 27.995-.467 55.855 2.092 83.69 4.45 26.195 2.513 52.273 6.988 77.476 14.55v-18c-25.536-7.48-52.285-10.676-78.707-13.585-42.118-4.598-84.679-6.85-126.977-3.492-39.886 3.724-80.55 6.41-119.316 17.077zm1.5-58c51.6-15.921 106.463-19.01 160.138-19 28.107-.415 56.168.665 84.121 3.586 25.426 2.577 55.817 6.708 77.741 15.414 1.247-5.875-.08-12.068.5-18-25.723-8.06-52.861-10.563-79.454-14.102-41.634-4.632-83.66-6.353-125.472-3.257-39.556 2.736-79.872 6.15-118.074 17.359.549 5.765-.716 12.795.5 18m25.5 985.625c41.986 2.59 84.507 4.126 126.422 8.916 10.66.825 21.25 2.21 31.886 3.275 8.41 2.162 12.282-6.29 16.36-11.87 13.152-17.022 23.778-35.669 34.064-54.476 12.951-25.817 24.49-52.613 32.268-80.47h-86.4c-21.61.02-43.23-.023-64.827.013-7.526-.637-11.003 8.79-14.344 14.127-12.43 20.624-25.25 41.009-38.071 61.383-12.375 19.563-25.152 39.653-37.358 59.102m93.104-1503.38c-.036 14.176 12.81 25.993 26.62 24.602 13.104-.786 23.508-13.604 22.02-26.533-.609-13.625-14.503-24.036-27.649-21.246-11.426 1.034-21.103 11.309-20.99 23.177m163.382 31.177c.852 8.805 4.79 17.672 13.022 21.75 8.323 4.634 19.264 3.421 26.636-2.372 10-8.15 11.966-24.68 3.352-34.613-7.885-10.408-26.468-10.865-34.566-2.55-6.16 4.767-7.52 10.954-8.444 17.785m135.524 79.01c-.596 13.527 12.366 25.307 25.484 24.315 12.989-.693 23.386-12.707 22.446-25.562.03-14.9-12.65-23.764-25.58-22.782-12.222.586-23.15 11.429-22.35 24.029" style="fill:#000;fill-rule:evenodd;stroke:none"/></svg>