<svg xmlns="http://www.w3.org/2000/svg" width="3000" height="3000"><path d="M291 2812.5c402.66 1.426 806.125-.26 1208.95.5 402.946-.76 806.184.926 1209.05-.5-66.691-393.12-131.048-787.321-197.186-1180.681C2447.104 1239.148 2380.056 846.747 2316 454c-136.143-44.935-272.089-90.768-408.181-135.9-102.008-33.974-204.008-68.03-306-102-19.182-6.399-38.38-12.77-57.553-19.171-8.997-3.033-18.01-5.99-27-9-7.928-3.04-16.863-7.25-26.38-2.738-134.51 44.908-269.079 89.643-403.589 134.55C952.797 364.27 818.541 409.675 684 454c-64.117 393.376-131.371 786.397-196.109 1179.703C421.811 2026.161 357.548 2420.573 291 2812.5m117-98.5h2184c-120.904-728.388-242.893-1456.649-364-2185-108.993-35.853-217.766-72.652-326.703-108.74-95.375-31.738-190.672-63.587-286.031-95.331-20.826-6.932-41.63-13.894-62.447-20.829l-30.553-10.171c-9.81-2.753-20.919-8.956-29.255-5.435-156.394 52.155-312.802 104.26-469.192 156.406-58.68 19.531-117.334 39.097-175.992 58.657-12.848 4.31-25.692 8.54-38.528 12.838-6.322 2.14-12.689 4.207-19.002 6.345-5.556 2.468-13.269 3.5-17.773 6.924-66.022 385.45-128.35 771.876-193.554 1157.535C522.178 2029.474 464.56 2371.715 408 2714" style="fill:#757575;fill-rule:evenodd;stroke:none"/><path d="M1051 1238c-15.5 5.926-31.196 18.28-43.402 27.097-40.704 31.94-74.455 79.2-74.598 132.903 6.424-.83 9.817-9.566 14.475-12.975 14.297-12.983 28.59-26.912 44.525-37.775-10.496 26.063-13.52 55.03-9 82.75h3c10.272-24.286 28.86-49.828 44.131-68.389 9.212-10.624 18.864-20.853 29.899-29.632 5.336-4.484 10.774-8.82 16.552-12.725 5.298-3 12.227-8.635 17.418-9.254 7.351 12.695 22.48 27.484 31.195 35.844 16.877 16.632 36.684 30.158 57.451 41.355 22.498 10.885 47.333 15.855 72.265 14.801 30.427.707 59.895-8.536 88.12-18.608 26.627-10.626 52.786-23.11 76.469-39.392 7.957 25.492 15.325 51.436 24.5 76.5-4.993 2.35-11.07 1.239-16.197 3.327-19.978 3.505-36.892 15.787-49.157 31.638-10.102 10.885-17.975 23.533-27.272 35.05-7.067 8.411-14.226 17.061-23.202 23.548-15.265 9.774-34.513 10.597-51.91 8.162-8.902-1.21-17.742-2.593-26.458-4.809-8.21-1.278-17.242-5.577-24.804-6.416.483 5.42 6.605 9.446 9.733 13.232 11.615 11.276 28.887 20.16 42.438 25.832 7.57 3.601 15.9 5.042 23.829 7.436-23.09 10.915-48.702 15.455-74 17.5v3c20.497 13.018 44.973 18.42 69.226 18.756 18.401.69 37.326-1.675 54.524-8.46 23.474-9.528 45.298-30.624 59.61-48.301 15.747-20.566 34.49-41.996 61.14-46.995 18.415 42.147 46.838 81.31 86.019 106.398 39.44 26.219 85.852 39.113 131.481 49.602-10.305 71.133-26.538 141.381-44 211-36.497 1.113-73.004 1.22-109.5 1l-1.5-.5c19.622-5.34 36.337-19.205 45.447-37.398 9.808-18.97 11.085-41.635 4.356-61.785-7.545-25.31-25.564-45.705-46.237-61.368-20.71-15.815-44.086-28.405-68.973-36.314-9.752-4.149-20.128-6.465-30.192-9.637-8.928-2.246-19.378-5.319-27.707-6.725-3.968-.505-7.565 1.408-10.107 4.258.91 6.674 6.404 13.776 8.082 19.75 20.774 47.281 38.278 96.904 43.487 148.602.656 5.431-.208 13.571 2.79 17.275 11.741 11.154 26.277 19.563 42.054 23.342l-1.48.5c-54.167-.39-108.353-1.038-162.52-1-.014 10.383 6.434 19.7 7 30h208v170h-194v1.5c2.87 9.098 5.3 18.366 8 27.5h186v179h-232v1.5c2.87 9.098 5.3 18.366 8 27.5h224v268c42.233.681 87.538 2.103 125.278-20.664 4.513-2.266 8.595-5.255 12.728-8.101 8.202-5.078 5.561-17.885 5.994-25.918V2297h238.8c9.291.089 19.447 1.041 27.794-4.111 6.066-3.315 11.8-11.536 3.931-17.863-19.003-18.703-39.485-35.843-59.719-53.163-10.009-8.514-20.04-16.968-30.273-25.216-4.984-4.35-10.053-8.547-15.117-12.784-5.225-3.865-10.44-10.787-16.416-10.863-17.08 25.709-36.763 50.523-54.47 75.979-4.853 5.795-8.989 14.145-14.43 18.563-26.616 1.306-53.453-.237-80.1.458v-179c71.82-.157 143.61.191 215.411-.104 6.896-.85 15.6-2.944 19.768-10.496 5.458-7.632-2.034-10.918-7.05-15.77-35.686-31.59-71.151-63.864-108.799-93.13-1.015-.142-2.1-.561-3.33-.5-13.772 21.68-30.763 41.997-45.196 63.4-3.885 5.26-7.673 10.586-11.506 15.879-2.901 3.859-5.304 8.31-9.197 11.263-16.632 1.28-33.438-.212-50.101.458v-170h208.2c15.011-.681 36.466 2.509 42.616-12.862 2.884-6.004-6.217-11.13-9.545-14.453-17.968-15.461-36.703-30.022-54.703-45.442-13.656-11.094-27.397-22.106-40.997-33.255-4.736-3.68-11.147-10.315-16.466-10.511-4.778 3.145-7.66 8.926-11.43 13.199-12.406 15.571-23.984 31.802-36.443 47.32-6.529 7.567-11.718 16.28-18.544 23.585-3.958 3.652-11.018 1.964-15.891 2.419H1676.5l-1.5-.5c35.737-24.205 69.327-51.642 102.374-79.383 17.075-14.124 33.67-28.816 50.35-43.371 3.85-4.065 8.057-7.741 12.39-11.256 3.447-3.157 8.336-2.351 12.676-2.766 10.639-.859 26.307-4.648 28.21-18.724-43.592-14.934-87.34-29.745-131-44.5 28.41 1.353 62.87 5.71 88.679-1.186 46.645-11.863 81.176-48.896 106.835-87.393 18.733-29.174 34.715-60.145 46.888-92.642 10.645-26.317 16.56-54.472 15.598-82.89.225-5.471-1.315-12.193 3.642-15.246 31.523-20.205 51.003-55.362 56.824-91.8 6.455-38.596-2.125-79.055-22.052-112.503-22.326-37.486-60.266-65.716-103.414-73.84-6.26-22.057-18.961-46.304-27.675-65.333-14.658-31.123-35.517-61.548-68.229-75.634-33.668-15.693-71.436-19.715-108.003-21.797-19.247-.46-38.53-.125-57.767-.133-9.057.506-18.025 1.701-27.025 2.695-9.121.303-18.204 4.122-27.301 3.702 8.718-31.86 16.783-67.238 3.85-99.313-10.962-28.647-34.024-57.04-53.72-76.557-48.651-48.038-113.978-77.5-180.495-90.372-36.419-6.582-73.68-7.548-110.473-4.179-35.394 3.002-71.108 8.796-104.265 22.018-21.198 7.995-41.055 20.464-54.392 39.272-23.697 30.905-42.22 73.406-53.773 106.92-2.917 7.342-5.237 14.834-7.467 22.407-1.15 3.567-2.46 7.088-3.382 10.721-1.287 2.886-1.462 7.826-4.051 9.205-12.098 5.235-25.532 7.446-37.142 14.087-40.427 20.368-71.634 57.317-85.177 100.463-14.047 44.862-7.322 97.7 23.165 134.674 16.098 18.51 36.328 33.727 60.065 40.909 5.506 2.308 13.754 2.784 15.075 8.194 2.157 9.34 4.457 18.65 7.568 27.72 1.848 8.776 7.323 18.253 8.614 26.331m-24.5-114c1.056-27.045-.053-54.431 3.8-81.384 2.117-26.08 7.163-51.754 10.7-77.616-20.92 6.2-38.258 21.037-50.615 38.536-12.622 17.628-19.672 40.21-15.951 61.81 2.287 13.72 9.018 26.071 18.053 36.457 8.729 11.011 21.732 16.57 34.013 22.197m-2.5 1060c2.935.582 5.707 3.745 9.013 4.975 5.062 2.398 11.008-6.064 14.588-8.13 13.9-10.845 26.551-23.137 39.754-34.749 19.628-18.525 37.939-38.26 56.145-58.096 1.426 158.827-.26 318.085.5 477 22.2.254 44.519.881 66.386-3.406a215.5 215.5 0 0 0 43.424-14.133c9.545-4.667 19.55-8.986 27.87-15.732 7.418-5.597 4.994-17.54 5.32-25.596v-554.862c.082-5.592-.106-11.205.07-16.792-.201-5.118 3.384-6.334 7.37-6.598 9.97-2.732 22.033-8.766 22.56-19.881-12.706-5.28-26.56-8.653-39-14.5 19.003-35.8 37.38-72.062 53.384-109.329 8.166-18.48 16.148-37.057 23.497-55.882 1.748-4.28 2.969-10.431 8.88-10.497 12.856-1.324 31.915-3.951 35.239-22.792-32.15-8.935-64.1-19.068-96.217-28.246-16.13-4.954-32.405-9.325-48.463-14.49-8.096-2.583-16.317-4.812-24.473-7.189-7.409-1.752-15.854-5.537-22.847-6.075-17.42 95.007-42.909 188.685-73.9 280.181-15.243 46.512-32.884 92.129-51.168 137.496-9.14 21.42-17.868 42.989-28.11 63.896-4.762 10.788-10.473 21.132-15.098 31.97-2.743 5.303-5.898 10.377-8.402 15.802-2.142 5.003-6.123 10.54-6.322 15.655m42-1069.604c-1.923 65.561 23.08 129.469 64.486 179.407 20.244 24.178 44.856 45.544 73.75 58.667 31.856 13.53 68.572 11.559 100.92.974 55.574-17.676 109.035-46.1 150.077-88.177 41.285-41.97 68.169-95.7 86.523-151.004 12.99-36.969 21.918-75.09 30.908-113.17 6.726-28.7 13.037-57.485 19.09-86.317 1.867-10.72 4.676-23.474 3.863-33.535-1.27-18.648-11.64-34.88-22.32-49.527-31.72-44.426-78.698-76.47-129.366-95.59-53.234-20.808-111.663-25.653-168.114-18.707-21.773 2.354-43.558 6.072-64.554 12.335-16.844 5.062-33.35 12.064-46.444 24.073-21.233 21.28-33.873 49.577-45.304 76.857-17.5 44.417-28.976 90.976-37.89 137.797-7.88 48.173-15.897 96.788-15.625 145.917m37.02-44.986c.302 48.521 20.05 96.186 54.85 129.96 34.306 36.256 84.04 55.573 133.693 52.63 50.675-.997 100.72-19.446 141.215-49.55 14.714-11.281 28.59-24.656 37.173-41.334 3.806-7.507 7.097-15.503 7.722-23.982.224-4 .657-8.829-.142-12.45-3.181-9.343-14.834-2.235-19.571.464-24.183 14.624-51.603 22.513-79.046 28.315-42.668 8.248-89.174 10.964-129.775-7.897-18.927-9.142-37.38-19.572-53.27-33.473-15.926-13.441-31.001-27.983-44.851-43.568-7.715-7.776-15.536-18.858-25.111-23.017-5.53-2.44-14.172-2.299-18.504 4.143-3.664 5.823-4.505 12.895-4.384 19.76M1141 939c10.596 2.627 20.832-3.747 31.2-4.941 19.62-3.902 40.465-2.342 59.272 4.35 12.661 5.092 24.145 12.565 34.435 21.49 3.675 2.49 8.18 7.519 13.944 5.077 3.66-2.995 2.996-9.131 3.149-13.317 1.897-32.232-23.46-63.275-55.896-66.364-15.72-1.481-31.919-.918-46.563 5.544-13.66 5.917-26.41 14.68-34.795 27.264-4.493 6.08-5.17 13.666-4.746 20.897m219.008 37.863c-.794 6.708 3.002 8.728 8.449 8.11 32.737-7.12 69.309-1.267 95.265 21.281 6.296 5.273 12.42 10.787 17.533 17.249 3.679 4.386 10.717 9.996 14.576 4.395 8.467-17.663 3.755-39.317-5.839-55.338-9.333-14.714-24.421-25.13-41.112-29.72-9.612-3.24-19.82-2.975-29.79-2.84-9.417-.337-18.86.27-27.831 3.363-8.001 1.97-15.083 6.526-20.629 12.507-5.85 5.393-10.821 12.51-10.622 20.993M1454 1319.328c18.08 54.207 33.028 110.416 56.97 162.592 17.326 38.31 44.568 73.275 82.574 92.866 29.091 15.127 60.643 24.757 92.501 32.125 24.595 5.995 49.546 10.246 74.567 13.955 19.04 1.932 38.35 3.987 57.446 1.913 26.822-3.114 51.936-17.525 68.6-38.864 16.295-20.022 29.512-42.34 41.858-64.934 14.578-29.655 30.038-59.683 36.557-92.403 5.09-25.697 2.904-52.002-.602-77.744-10.386-73.714-28.92-146.09-52.393-216.628-9.981-28.207-20.673-56.298-34.484-82.886-10.4-19.772-23.594-39.267-44.184-49.6-32.393-16.97-70.13-19.042-105.81-20.704-19.22.024-38.47-.369-57.64.907-17.832 1.861-35.533 4.935-52.96 9.077-14.306 61.67-30.676 123.608-55.394 182.05-23.718 56.936-59.96 108.954-107.606 148.278m86.357-35.854c.11 12.434 16.66 20.422 25.02 23.418 32.053 10.302 70.02-1.366 90.285-27.943 12.822-18.129 17.456-41.078 16.071-62.988-.643-8.554-1.756-17.083-3.86-25.405-1.338-5.205-4.291-16.349-13.126-15.338-6.797.56-8.666 8.123-11.172 12.618-8.966 19.76-23.232 36.696-40.548 49.636-16.198 13.15-33.854 24.282-52.034 34.426-4.404 2.536-10.783 6.358-10.636 11.576m64.733 215.273c.19 4.947 1.032 10.7 3.309 14.438 2.912 4.248 9.082 4.189 13.019 1.346 5.465-4.478 8.904-10.96 13.383-16.324 23.91-33.538 50.719-68.402 90.202-84.336 30.767-11.313 70.326-12.238 99.714-8.068 23.884 3.196 45.868 13.993 65.633 27.28 3.733 2.222 7.91 4.23 12.384 3.743 5.79-.303 5.321-6.022 5.243-9.817-.997-31.913-25.857-57.877-51.947-72.864-28.48-16.098-61.561-23.203-94.195-20.775-41.845 1.891-79.75 24.84-107.566 54.865-27.74 30.03-47.451 68.965-49.18 110.512m120.195-333.838c.854 43.723 43.809 80.668 86.288 79.064 17.343-.553 37.44-8.844 48.902-19.956 8.168-7.769 17.757-22.23 11.897-36.44-4.003-4.132-9.452-3.297-14.606-3.717-36.125-1.459-74.3-2.464-106.982-20.025-5.434-2.821-11.474-7.868-17.44-7.724-5.36-.38-8.67 3.712-8.059 8.798M2000.5 1315c15.485-18.607 27.924-41.908 26.42-66.969-1.047-24.768-16.605-47.491-37.898-59.437-5.894-2.63-12.983-6.23-19.022-6.594 5.603 21.457 11.615 42.93 16.38 64.633 5.99 22.48 8.747 45.84 14.12 68.367" style="fill:#fff;fill-rule:evenodd;stroke:none"/><path d="M1503 1861.313c6.368 1.653 15.395-.533 22 .187-7.293.236-14.773-.854-22-.187" style="fill:#616161;fill-rule:evenodd;stroke:none"/><path d="M1737 1656.375c1.256 1.508 4.707 1.768 6 1.125-1.722-1.879-3.872-1.52-6-1.5z" style="fill:#6b6b6b;fill-rule:evenodd;stroke:none"/><path d="M407 2715h2186c-120.11-729.14-243.257-1457.94-364-2187-109.157-35.927-218.092-72.748-327.181-108.9-95.331-31.722-190.626-63.585-285.954-95.3q-31.498-10.534-63-21l-30.566-10.195c-9.852-3-21.422-9.034-30-5.21-156.482 52.2-313.005 104.314-469.48 156.505-58.858 19.6-117.69 39.211-176.522 58.84-12.832 4.262-25.65 8.528-38.47 12.817-6.336 2.128-12.684 4.227-19.008 6.343-5.33 2.846-14.097 3.151-17.405 7.24-66.013 385.799-128.474 772.546-193.688 1158.548C521.372 2030.17 462.67 2372.459 407 2715m646-1477.516c-30.023 16.49-59.419 36.64-80.446 64.343-22.473 26.226-38.877 60.03-38.054 95.173 18.348-19.765 38.08-38.156 60-54-9.274 26.868-17.26 57.183-10 86 24.982-48.12 59.213-95.536 108.707-121 18.23 24.01 39.586 45.976 64.865 62.703 18.805 13.226 39.856 23.7 62.717 27.744 35.822 6.687 72.952.573 107.057-10.908 31.889-11.888 63.95-25.36 91.654-45.539 5.687 12.748 8.004 27.11 13.052 40.164 3.623 13.415 9.069 26.386 12.448 39.836-10.413 1.967-21.143 2.873-31.039 7.117-35.024 15.063-49.926 53.87-76.063 78.485-13.89 15.398-35.575 17.259-54.817 16.37-19.319-1.408-38.333-6.195-56.742-11.972 5.699 10.167 18.094 18.932 26.908 24.599 15.912 9.454 33.4 17.194 51.753 19.901-23.073 14.029-51.101 15.781-77 20 8.438 5.059 16.987 10.415 26.609 13.112 35.477 8.562 76.065 10.348 108.67-9.12 14.21-8.81 29.508-21.878 39.49-33.49 10.845-14.08 22.407-27.592 35.47-39.651 9.517-8.964 21.94-13.76 34.761-15.351 17.209 42.565 47.023 81.088 85.519 106.398 39.44 26.219 85.852 39.113 131.481 49.602-9.577 71.91-26.74 142.672-44 213-40.59.42-81.477 2.08-122 .5 5.772-2.1 12.894-1.99 19.347-5.722 20.695-8.486 36.922-31.055 41.28-50.556 6.06-22.967-.813-46.882-12.527-66.753-14.766-22.934-36.725-40.164-59.873-53.943-24.666-14.684-52.288-23.123-79.682-30.886-10.104-2.178-24.184-8.72-31.545-1.14 19.324 36.533 32.587 76.248 43.372 116.022 5.856 20.728 8.309 42.13 9.695 63.532.656 4.766 6.285 7.717 9.55 10.605 5.98 4.293 12.125 8.41 18.798 11.528 3.609 1.778 7.486 2.937 11.288 4.174 3.281 1.281 7.666 1.213 10.297 3.139-56.378 1.152-113.475-1.248-170-.5.668 9.641 6.49 18.311 7 28h208v172c-64.607.76-129.478-.926-194 .5 3.607 8.357 4.897 17.919 8 26.5h186v181c-77.264.76-154.81-.926-232 .5 3.607 8.357 4.897 17.919 8 26.5h224v268c41.296.692 85.458 1.747 122.437-20.201 8.415-4.859 19.492-9.97 19.468-20.147.272-33.952-.05-67.883.095-101.835V2296h237c9.478.099 19.488.953 28.302-3.344 6.417-3.305 13.148-10.873 4.828-17.026-18.767-18.423-38.965-35.326-58.893-52.445a2162 2162 0 0 0-29.869-24.898c-5.095-4.214-10.013-8.651-15.18-12.766-4.85-3.395-10.388-10.07-15.188-11.521-17.193 25.87-36.94 50.826-54.795 76.41-5.074 5.647-9.066 15.02-14.686 18.125-27.085 1.326-54.398-.24-81.519.465v-181h186.6c16.396-.515 42.242 5.468 51.4-15.5-38.349-35.436-78.155-69.332-118.5-102.5h-1.5c-13.976 21.962-31.177 42.542-45.793 64.232-3.986 5.414-7.984 10.836-11.848 16.333-2.633 3.486-5.963 9.727-9.94 10.167-16.78.763-33.627-.138-50.419.268v-172h195.6c10.899-.307 21.865.416 32.748-.328 9.363-.938 20.231-3.12 23.652-15.274-18.954-18.481-40.79-33.678-60.566-51.212-10.17-8.36-20.397-16.67-30.724-24.823-5-4.203-10.068-8.282-15.14-12.376-4.806-3.599-9.969-9.024-15.226-10.987-18.445 23.657-36.636 47.558-55.03 71.261-4.553 5.04-9.67 14.807-15.77 15.597-26.017.405-52.023-.073-78.044.142l-1.5-.5c35.997-24.064 69.668-51.653 102.984-79.285 16.796-14.468 33.764-28.721 50.409-43.345 4.082-3.858 7.983-7.903 12.414-11.36 6.495-6.402 16.684-3.645 24.895-6.461 9.347-1.668 14.59-7.086 18.298-14.549-45.655-17.553-93.175-30.842-139-48 31.774.944 65.023 8.447 96.679-.186 52.308-13.243 89.265-57.214 115.634-101.354 19.621-34.246 37.436-70.123 47.79-108.411 3.908-15.877 6.52-32.028 5.897-48.42.442-6.918-1.788-16.81 4.072-20.281 42.604-27.144 61.253-80.357 57.878-128.645-3.278-48.904-29.929-95.118-69.932-123.136-16.959-12.12-36.638-20.08-57.018-24.067-6.26-22.057-18.961-46.304-27.675-65.333-14.658-31.123-35.517-61.548-68.229-75.634-33.668-15.693-71.436-19.715-108.003-21.797-19.525-.218-39.107-.43-58.627.055-17.617 1.949-35.858 2.955-52.966 7.709-.745-7.003 3.265-14.057 3.602-21.055 3.066-13.626 6.223-27.25 6.483-41.285 2.197-24.58-11.3-51.472-23.077-69.612-46.3-72.149-126.404-116.716-208.633-133.985-45.086-9.601-91.655-9.93-137.225-4.007-22.07 2.487-43.977 6.718-65.267 13.103-19.854 6.409-39.906 14.316-56.167 27.673-17.604 14.793-29.74 34.734-40.886 54.492-9.766 18.605-18.395 37.71-25.788 57.355-6.83 17.307-12.014 35.203-17.577 52.928-.956 3.994-6.183 4.878-9.496 5.82-57.984 15.334-105.002 64.872-118.099 123.28-7.852 31.512-3.894 65.153 9.546 94.58 11.95 25.848 37.227 50.281 60.943 61.118 6.872 3.325 14.04 5.936 21.33 8.168 2.733.613 5.714 1.882 8.122 2.7 3.782 9.185 4.529 20.098 8.434 29.427 2.828 9.82 6.668 19.25 10.255 28.784M1028 1125c-.986-54.378 4.779-108.63 15-162-21.329 5.84-39.449 20.408-52.381 37.868-13.17 17.775-20.823 40.69-17.597 62.867 3.855 29.105 26.635 54.167 54.978 61.265m-3 1056.5c1.187 2.274 4.812 3.682 7.2 5.538 2.4 1.8 4.938 1.23 7.075-.96a1120 1120 0 0 0 35.049-30.031c24.317-23.007 48.724-46.399 70.176-72.047l.5 1.668V2564c21.772.272 43.693.918 65.107-3.57 14.707-3.176 28.978-7.826 42.703-13.97 9.437-4.527 19.163-8.907 27.462-15.383 8.032-6.041 5.324-16.707 5.728-24.744v-569.858c-1.676-10.021 8.512-9.351 15.25-12.234 6.443-2.66 13.23-8.843 14.75-15.241-13.382-4.342-26.467-10.059-40-14 18.07-36.216 37.881-72.005 53.317-109.562 8.47-18.471 16.28-37.24 23.752-56.133 1.927-3.938 3.42-11.49 7.567-12.133 13.592-1.765 30.708-2.637 37.364-20.672-63.121-19.248-126.793-37.577-190-56.5-17.363 94.278-42.481 187.306-73.2 278.135-15.247 46.123-32.498 91.547-50.68 136.58a1344 1344 0 0 1-27.878 63.795c-9.332 21.306-20.353 42.709-31.242 62.99m40-1067.302c-2.098 66.664 23.258 131.836 65.877 182.172 20.535 24.098 45.532 45.462 74.802 58.087 30.82 13.125 71.662 9.609 100.025.142 55.862-17.767 109.73-46.278 150.898-88.701 41.514-42.238 68.171-96.44 86.596-152.02 12.983-37.254 22.002-75.684 30.928-114.05 6.764-28.639 13.057-57.371 19.029-86.172 2.194-10.883 4.368-24.014 3.385-34.229-1.456-18.502-11.96-34.556-22.531-49.1-31.977-44.638-79.419-76.606-130.409-95.678-53.452-20.81-112.187-25.133-168.78-18.232-21.91 2.403-43.877 6.073-64.994 12.482-16.89 5.06-33.323 12.195-46.39 24.272-21.058 21.438-33.688 49.634-45.105 76.939-17.412 44.478-28.962 91.037-37.813 137.91-7.917 48.237-15.83 96.89-15.518 146.178m39.029-44.858c.771 48.82 20.846 96.944 56.341 130.53 16.325 16.69 36.31 29.809 57.777 38.778 23.875 10.977 50.318 13.175 76.161 12.327 50.279-1.956 99.558-20.886 139.492-51.085 14.346-11.377 27.966-24.676 35.986-41.434 3.985-7.612 6.635-15.953 7.059-24.545.21-3.912.637-8.95-2.182-11.208-6.118-4.955-14.7 4.186-19.912 5.89-23.664 14.237-55.644 21.921-80.132 26.812-42.559 7.707-88.944 9.064-128.952-10.08-37.656-17.719-69.454-45.896-96.763-76.932-7.111-7.404-14.628-17.588-23.49-21.64-5.748-3.1-13.467-1.679-17.011 3.898-3.433 5.305-4.523 12.817-4.374 18.689M1142 938c9.032 2.294 20.79-4.418 31.405-5.366 19.628-3.225 40.3-2.004 59.067 4.775 12.456 5.077 23.942 12.331 34.055 21.201 3.193 2.024 9.39 8.433 12.807 4.87 3.6-2.52 2.102-9.835 2.66-13.31.734-31.569-24.87-61.101-56.455-63.932-15.385-1.429-31.279-.675-45.411 6.235-13.482 5.976-25.897 14.905-33.948 27.507-3.535 5.349-4.44 11.79-4.18 18.02m350.656 92c7.54-8.594 6.89-23.413 5.489-32.858-2.018-10.914-6.755-21.263-13.737-29.893-11.216-13.362-27.312-22.275-44.467-25.334-17.842-2.395-40.025-1.699-55.255 5.252-7.3 3.537-13.321 9.243-18.396 15.51-4.076 5.356-6.094 12.143-4.765 18.672 3.745 5.11 13.04 1.332 17.72.572 21.586-3.301 48.11 1.552 65.816 10.49 9.323 4.478 17.628 10.617 25.264 17.542 7.385 6.117 13.746 16.819 22.331 20.047M1616 988c-21.931 96.91-49.152 196.745-110.737 277.03-11.325 14.674-24.083 28.318-37.891 40.683-3.467 2.852-6.64 6.029-10.178 8.783-1.227 1.495-3.763 3.252-3.705 4.847 8.663 33.369 20.961 65.996 31.135 98.97 10.105 28.54 20.134 57.245 35.106 83.721 12.85 22.403 28.775 43.446 49.82 58.808 36.98 28.09 83.36 39.358 127.613 49.893 35.624 7.432 71.65 13.86 108.134 14.192 13.512-.608 27.09-2.681 39.743-7.58 20.715-8.829 37.419-24.557 50.543-42.473 19.423-26.747 35.337-55.98 49.087-85.982 15.242-31.403 26.198-65.477 24.33-100.78-1.07-35.728-8.287-71.018-14.88-106.011-11.057-51.147-24.09-101.949-41.226-151.41-7.987-23.848-17.315-47.197-28.161-69.875-10.593-22.266-23.413-45.477-44.932-58.953-32.401-19.184-71.373-22.112-108.042-23.786-20.227-.026-40.455-.415-60.652.707-18.596 1.446-36.939 5.24-55.107 9.216m-74.527 295.477c.91 8.71 8.531 14.118 15.183 18.236 7.644 4.047 16.123 6.66 24.767 7.19 18.668.905 38.121-2.23 53.946-12.847 14.646-9.402 25.608-24.016 30.637-40.654 6.49-20.084 6.225-41.688 1.31-62.06-1.484-6.438-4.604-17.25-11.848-16.964-6.914.381-8.417 8.817-11.382 13.425-9.344 21.024-25.225 38.244-43.762 51.523-16.694 14.201-36.614 23.774-54.741 35.746-1.606 1.696-4.19 4.199-4.11 6.405m64.683 215.517c.246 4.453 1.178 9.66 3.201 13.08 3.153 4.86 8.196 3.632 12.019.728 4.777-4.407 8.004-10.22 12.13-15.18 24.175-34.003 51.427-69.43 91.63-85.158 15.8-5.646 32.449-8.631 49.202-9.447 29.67-2.05 60.563.023 87.972 12.67 9.462 4.48 18.609 9.54 27.31 15.352 3.596 2.209 8.301 4.873 12.308 4.67 5.614.229 5.206-6.618 4.959-10.48-2.664-32.426-28.987-58.057-56.18-72.373-29.847-16.286-64.95-21.49-98.469-17.543-39.405 5.507-73.982 28.336-100.17 57.383-25.78 29.415-44.357 66.556-45.912 106.298m120.296-333.982c.326 21.267 11.05 40.567 26.404 54.569 14.86 14.703 35.314 23.416 56.224 23.396 17.444.087 37.475-8.206 49.276-18.881 9.233-8.7 19-23.422 12.78-35.76-4.301-3.944-9.64-3.099-14.946-3.496-36.285-1.402-74.652-2.541-107.333-20.505-4.807-2.4-10.052-6.979-15.258-7.094-4.431-.31-7.875 3.34-7.147 7.77M1968 1180.359c13.234 45.129 23.297 91.395 31.5 137.641 15.34-17.311 28.19-39.147 28.493-63.082 1.317-24.231-10.413-48.72-30.529-62.532-8.444-6.029-20.101-10.775-29.464-12.386z" style="fill:#000;fill-rule:evenodd;stroke:none"/></svg>