<svg xmlns="http://www.w3.org/2000/svg" width="3000" height="3000"><path d="M407 2715h2186c-120.11-729.14-243.257-1457.94-364-2187-121.653-40.09-243.099-81.112-364.7-121.395-91.164-30.407-182.32-60.766-273.474-91.162a32206 32206 0 0 1-51.529-17.183c-8.003-2.659-16.01-5.346-24-8-7.038-2.654-14.998-6.446-23.453-2.372-120.19 40.07-240.392 80.12-360.578 120.183C1011.124 447.878 891.186 488.387 771 528c-120.737 729.033-243.897 1457.913-364 2187m634-1497c28.57-6.165 55.958-17.432 83.5-26.959 13.883-5.08 27.41-11.064 41.217-16.329 12.698-4.127 26.304-13.005 38.283-15.712v431c29.591 1.117 59.508-.829 87.357-11.993 12.627-5.103 25.691-9.79 36.969-17.602 5.547-3.553 11.508-8.13 12.361-15.177.67-7.384.06-14.832.313-22.228h313v67c41.152.938 82.364-6.023 120.645-21.444 8.535-3.622 20.86-6.474 19.354-19.372.003-33.15 0-66.3.001-99.436V1250c13.465-1.94 29.06-9.413 36-20-31.827-25.141-64.978-49.077-97.17-73.848-8.188-5.995-16.168-12.317-24.417-18.208-3.647-3.129-6.539.952-8.9 3.859-9.02 9.992-18.393 19.672-27.094 29.936-4.769 4.957-9.314 10.127-13.88 15.244-2.346 2.348-4.275 5.066-6.544 7.478-2.009 2.381-5.248 4.688-5.995 7.539h-282c-6.605-.2-14.647.657-20.476-1.393-41.7-14.905-82.703-32.215-124.524-46.607.502-5.182 9.467-6.852 12.797-9.283 18.19-8.265 35.443-18.595 52.982-28.094 25.024-14.652 50.253-29.126 73.532-46.489 12.165-8.351 23.75-17.486 35.118-26.887 9.615-8.62 23.014-17.825 32.571-29.247h3v154c39.73.092 82.38-.171 117.67-21.407 8.006-4.712 19.11-9.14 18.324-18.839.017-31.968-.003-63.915.006-95.879V931c5.196.182 10.397-.24 15.572.176 5.251.265 5.724 6.218 7.457 9.703 25.224 61.253 63.523 116.648 111.578 162.217 47.803 44.239 103.35 80.559 162.393 107.904 6.55-27.28 16.132-54.626 33.168-77.366 15.945-22.09 38.93-39.515 65.832-45.634.383-3.334.91-6.644 1-10-65.572-10.9-131.146-24.965-193.546-48.328-30.83-11.04-61.053-24.093-89.23-40.847-13.367-7.432-25.951-16.164-38.3-25.137-6.488-4.744-12.466-10.156-18.728-15.18-3.01-2.697-5.79-5.666-8.671-8.483-2.561-2.73-6.252-5.663-6.525-9.025h268.8c14.995-.092 29.983.114 44.97-.064 11.125-.582 28.344-.272 33.23-14.624-38.788-32.394-79.223-63.578-120.672-92.312-14.987 18.057-29.664 36.378-44.466 54.587-5.56 6.786-11.016 13.662-16.63 20.404-5.294 8.265-15.562 5.746-23.39 6.009H1565v-99c45.823-3.869 91.674-7.791 137.358-13.068 11.545-1.24 23.023-2.833 34.567-4.056 8.455-1.02 16.861-2.421 25.316-3.394 12.739-1.588 24.497 5.583 36.915 7.286 12.582 2.615 26.356 1.698 37.844-4.268-18.937-19.718-37.852-39.404-57.475-58.475-16.73-17.267-33.084-34.88-50.5-51.5-3.48-2.77-7.723-9.385-11.902-8.94-158.18 53.763-322.381 88.133-486.317 118.931C1192.32 795.393 1153.597 800.94 1115 807c-.082 4.36.409 8.693 1 13 104.405 1.048 208.72-1.703 313-6v91h-381c.84 7.345 4.313 15.56 5.853 22.12 1.236 4.864 7.144 3.689 10.73 3.88H1327c-1.62 8.041-10.217 16.464-12.976 22.445-36.073 52.77-78.309 101.06-125.054 144.576-46.418 42.31-96.78 80.772-151.97 110.979.178 3.467 3.307 5.721 4 9m9 1161h373v184c22.283.237 44.733.922 66.697-3.475 14.85-3.625 29.636-7.792 43.824-13.537 9.98-4.483 20.513-8.582 28.938-15.811 3.719-2.7 4.73-7.1 4.536-11.762.014-33.318-.002-66.632.005-99.948V2379h351c14.751.032 35.036.791 40-14.547-44.5-36.866-91.688-70.31-137.5-105.453-15.134 17.224-28.758 35.76-43.523 53.3-11.061 13.017-20.91 27.145-32.34 39.823-7.216 1.7-15.019.347-22.38.877H1567v-119h137v36c21.336.114 42.956.005 63.79-5.19 14.73-3.497 29.197-7.98 43.29-13.484 10.004-4.176 20.24-8.145 29.178-14.415 7.16-5.377 3.904-17.567 4.742-25.178V1947c13.29-3.006 28.954-7.29 37-19.5-41.341-32.738-84.044-63.905-125.5-96.5-10.144 13.346-23.497 24.378-33.794 37.699-9.17 8.908-16.767 19.303-26.105 28.021-4.004 3.401-10.82 1.888-15.617 2.28H1567v-101h279.6c15.609-.02 31.227.024 46.836-.013 12.279-.5 30.293.297 36.564-14.487-44.097-36.43-90.553-70.21-137-103.5-13.564 15.755-26.316 32.515-39.759 48.433-9.664 12.313-19.855 24.2-29.566 36.473-1.735 2.226-3.421 4.54-5.83 6.094-5.772 1.886-12.612.447-18.641 1H1567v-86c14.42.204 31.994-7.707 36-25.5-59.873-5.868-120.082-11.434-180-17.5v129h-347v1.5c2.67 8.066 4.744 16.332 7 24.5h340v101h-105.6c-7.739-.173-17.212.83-23.932-1.972-46.94-18.082-94.055-36.013-140.968-54.028-1.426 153.538.26 307.402-.5 461 30.13.987 60.515-1.942 88.876-12.818 13.145-4.58 25.874-10.277 37.541-17.936 5.802-3.53 12.072-8.601 12.475-15.977.287-7.765-.035-15.509.108-23.269h132v119h-380c1.37 8.865 5.072 17.272 7 26m241-328h132v-126h-132zm0 157h132v-132h-132zm50-863h313v-117h-313zm0 153h313v-127h-313zm226 553h137v-126h-137zm0 157h137v-132h-137z" style="fill:#fda;fill-rule:evenodd;stroke:none"/><path d="M1041.5 1220c54.873-16.409 109.068-35.695 161-60 1.426 143.538-.26 287.402.5 431 15.558-.403 31.284.889 46.724-1.456 21.166-2.609 41.535-9.43 60.955-18.028 9.286-4.104 18.507-8.833 26.01-15.82 8.009-7.498 4.372-22.218 5.311-31.696h311v67c41.834 1.15 83.739-5.706 122.645-21.444 8.927-3.564 21.14-6.737 19.355-19.97V1251c14.12-2.472 29.21-8.989 37-21.5-20.723-16.51-42.318-31.932-63.361-48.038-10.462-8.17-21.147-16.066-31.755-24.042-5.343-4.1-10.8-8.01-16.145-12.106-5.423-3.386-10.865-9.182-16.395-11.314-18.873 22.883-41.435 43.556-59.344 67h-280.8c-6.516-.135-14.437.643-20.146-1.58-41.39-15.498-82.743-31.329-124.054-46.92 36.599-19.547 74.352-37.703 109.028-60.848 34.46-22.846 69.142-47.644 98.472-76.652 1.426 51.256-.26 102.71.5 154 40.356.122 83.776.148 119.67-21.407 6.937-4.316 19.03-8.43 18.329-19.439.003-32.564 0-65.114.001-97.676V932c4.985.136 10.898-.292 15.423.467 3.942.966 4.16 8.315 6.276 10.868 25.257 61.472 64.122 116.692 112.433 162.21 48.149 43.968 103.612 80.299 162.868 107.455 5.83-27.44 15.895-54.68 32.61-77.531 15.831-22.558 39.287-40.165 66.39-46.469.476-4.022.974-8.077 2-12-65.284-10.087-130.207-24.949-192.35-47.539-31.028-10.816-61.266-24.07-89.678-40.602-27.234-15.093-52.36-33.967-73.972-56.359 59.868-1.426 120.173.26 180.133-.5h90.533c14.913-.178 29.828.223 44.728-.135 11.726-.69 27.9-.48 32.606-16.865-10.82-6.38-19.625-16.793-30.221-23.767-29.654-24.858-62.178-46.021-92.279-70.233-13.922 18.465-29.672 35.833-43.699 54.279-5.721 6.615-10.981 13.61-16.617 20.277-2.54 2.604-5.384 7.863-8.716 8.1-66.106.98-132.335-.178-198.468.344v-97c45.823-3.869 91.674-7.791 137.358-13.068 11.545-1.24 23.023-2.833 34.567-4.056 8.456-1.021 16.86-2.421 25.317-3.394 6.868-1.465 13.358.927 19.604 3.432 17.219 5.677 41.426 8.357 56.154-1.414-19.378-20.012-38.534-40.233-58.602-59.602-16.936-17.473-33.508-35.304-51.13-52.13-3.587-2.744-8.008-9.942-12.089-8.755-78.956 27.77-160.03 48.905-241.348 68.49-83.596 19.622-167.693 37.107-252.25 52.073-36.794 6.29-73.656 12.019-110.581 17.424 1.15 4.928 1.21 10.018 2 15 104.391.796 208.74-1.427 313-6v89h-382c1.099 4.884 2.722 9.636 3.997 14.47 1.087 3.375 1.776 6.883 3.076 10.184.554 3.25 4.854 3.384 7.55 3.344 8.966.006 17.95-.002 26.913.002 79.438.76 159.107-.926 238.464.5-35.72 57.767-80.81 108.97-129.233 156.233-48.55 46.793-103.254 86.91-161.767 120.267.831 3.513 4.176 7.463 6.5 11m-.5 1132.5c2.995 9.002 5.175 18.429 8 27.5h373v184c22.56.222 45.205.849 67.474-3.212 15.15-3.495 30.137-7.87 44.588-13.623 10.166-4.483 20.826-8.68 29.397-15.988 3.922-2.815 4.789-7.534 4.54-12.36.003-33.717 0-67.43.001-101.146V2380h352.2c13.405-.456 31.766 1.989 39.8-15.5-22.605-19.001-46.356-36.699-69.708-54.766-23.19-18.1-46.752-35.794-70.792-52.734-13.676 18.194-28.937 35.397-42.842 53.46-11.072 12.97-20.824 27.069-32.216 39.758-2.028 2.813-7.888 1.178-10.618 1.782H1568v-117h135v36c21.81.092 43.898.155 65.23-5.06a329 329 0 0 0 43.85-13.614c10.004-4.176 20.24-8.145 29.178-14.415 4.477-2.67 5.337-7.285 4.742-11.392V1948c14.928-2.372 29.006-8.85 39-20.5-42.695-32.838-86.156-65.15-128.5-98.5-10.367 13.43-23.491 24.493-33.99 37.806-8.94 9.123-16.919 19.118-25.978 28.114-3.56 3.968-10.216 3.056-14.986 3.08H1568v-99h288c12.006-.001 24.03.002 36.034 0 9.515-.343 21.389-.29 29.422-4.275 3.204-1.33 6.786-4.118 8.214-7.865 1.95-4.253-1.022-6.788-4.203-9.1-43.117-34.688-87.849-67.862-132.967-99.76-13.078 16.07-26.087 32.225-39.262 48.213-9.728 12.264-19.899 24.17-29.574 36.474-1.855 2.158-3.418 4.61-5.624 6.444-4.228 3.303-12.175 1.058-18.039 1.869H1568v-84c15.168-.792 33.93-7.325 36-28-60.76-4.374-121.288-12.045-182-17v129c-115.929.76-232.151-.926-348 .5 3.432 8.847 5.075 18.474 8 27.5h340v99h-105c-8.155.136-16.484.708-24.129-2.547-46.922-18.57-94.548-35.788-141.371-54.453-1.426 154.538.26 309.402-.5 464 30.416 1.014 61.14-1.51 89.83-12.455 13.348-4.563 26.288-10.261 38.11-18.01 5.982-3.537 12.49-8.736 12.952-16.266.287-7.765-.035-15.509.108-23.269h130v117h-381zm251-302.5h130v-124h-130zm0 157h130v-130h-130zm50-863h311v-115h-311zm0 153h311v-125h-311zm226 553h135v-124h-135zm0 157h135v-130h-135z" style="fill:#000;fill-rule:evenodd;stroke:none"/></svg>