<svg xmlns="http://www.w3.org/2000/svg" width="3000" height="3000"><path d="M284 2851h2430c1.93-6.704.023-13.586-1.047-20.22C2579.037 2026.84 2444.933 1222.93 2311 419c-121.342-39.954-242.44-80.911-363.734-121.071l-318.4-106.13c-23.338-7.841-46.698-15.545-70.04-23.356-11.341-3.774-22.687-7.54-34.007-11.343-10.608-3.396-23.708-9.945-33.842-5.595-87.231 29.065-174.458 58.147-261.68 87.235-152.357 50.752-304.678 101.596-457.031 152.331-14.33 4.77-28.642 9.546-42.967 14.324-6.996 2.317-13.996 4.71-21 7-3.5 1.192-7.003 2.291-10.485 3.517-3.155 1.196-7.913 2.055-8.741 5.189-72.745 429.113-142.918 858.853-215.103 1288.098C411.037 2089.84 346.517 2470.336 284 2851m698-644.75c2.184 4.445 3.052 11.445 5.552 16.893 1.672 3.775 2.477 11.202 6.958 11.51 14.777.986 29.691-.176 44.49.347.22 4.765-.155 9.516-.464 14.257.382 3.995 3.23 7.825 2.399 12.735l-.529 54.734c.136 31.177-.95 61.733-1.478 92.514-4.184 87.073-13.52 177.215-55.928 255.26 3.811 4.23 7.153 8.923 11.664 12.5 56.976-36.933 103.14-91.15 129.462-153.841 29.739-65.595 40.258-137.642 45.944-208.782 2.337-26.404 4.055-52.878 4.93-79.377h35v447c21.353-.288 43.066.126 63.97-4.898 14.316-3.092 30.262-10.06 42.331-15.761 9.81-4.795 19.628-9.835 27.99-16.978 3.199-2.387 6.201-5.105 8.144-8.655 2.785-6.432.866-16.216 1.565-24.255V2162c3.99.582 6.12 5.761 10.83 4.307 126.006-21.53 251.207-58.145 361.938-123.482 52.248-32.167 102.978-67.558 147.707-109.8 23.624-20.649 44.696-44.059 65.015-67.854 4.996-6.054 9.94-12.125 14.83-18.244 3.708-3.614 6.385-9.98 11.33-12.677 15-4.598 36.438-1.582 50.35-16.75-45.05-37.36-91.65-72.916-136.5-110.5l-38.602 38.602c-9.643 9.602-19.223 19.273-28.88 28.854-3.495 4.339-10.311 3.69-15.26 3.544H1677c.38-4.811 6.252-7.744 9.181-10.823 12.545-11.974 25.386-23.551 37.794-35.651 6.077-7.153 18.363-3.305 26.414-4.835 7.158-.99 17.073-3.761 20.611-12.691-64.583-17.635-128.504-38.028-193-56-21.775 56.31-55.993 107.076-92.228 154.961-36.594 47.59-77.267 91.837-123.772 129.539.774 2.336 3.668 4.327 5.5 6.5 10.18-4.42 21.459-6.895 31.846-10.987 9.458-3.465 18.788-7.215 28.12-10.967 8.95-4.812 14.972 7.159 19.221 12.227 17.529 23.571 30.529 56.686 32.219 83.684.09 4.255-.02 8.504.542 12.707 8.105 9.586 23.573 14.257 34.012 17.56 13.456 3.612 26.834-.356 39.54-4.224-.528 4.384-6.794 6.628-10.336 9.574-29.423 19.018-59.874 36.594-91.03 52.603-16.165 8.27-32.009 17.151-48.818 24.09-8.167 3.753-16.1 8.022-24.516 11.222-7.853 2.812-16.576 8.592-24.3 9.511v-451c16.079-.906 35.735-6.518 40-28-61.314-5.937-122.667-12.262-184-18v355h-53v-226.2c.266-6.17-.362-13.476.286-19.109-.09-4.356 7.133-4.042 9.936-5.05 12.127-2.252 23.225-10.755 24.778-23.641-55.915-5.272-112.045-9.059-168-14v401c31.657 3.547 64.012-3.329 93.833-13.457 7.304-2.4 14.357-5.413 21.284-8.708 4.828-2.525 9.586-5.25 13.849-8.635 3.99-3.221 4.186-7.559 4.033-11.963.003-14.088 0-28.157.001-42.237h53v164H982zm27-660.25h934.2c12.778.141 25.526.115 38.27-.798 9.738-.685 21.59-4.003 25.53-13.26 1.603-3.67-5.811-6.757-7.23-9.327-24.833-20.497-49.757-40.885-75.525-60.19-12.476-9.905-25.28-19.414-37.877-29.157-6.482-4.786-12.59-10.076-19.224-14.655-6.457-3.883-12.544-11.28-19.144-13.613-13.861 20.008-30.908 38.665-45.342 58.46-11.597 14.483-23.026 29.115-34.417 43.752-2.294 2.709-4.28 5.675-6.887 8.104-2.033 2.699-7.846 1.054-10.527 1.684H1582v-411h306.6c11.478.643 26.914-1.861 33.4-15.5-48.011-41.287-99.193-79.28-149.5-117.5-23.607 29.319-47.14 58.768-70.427 88.341-5.994 5.91-10.187 17.93-20.905 15.79-32.715-.375-65.46.069-98.168-.131V715h339c12.458.467 30.345-.243 38-15.5-51.705-41.295-103.303-83.27-156.5-122.5-18.84 23.216-36.918 47.085-55.568 70.457-8.19 10.415-16.54 20.705-24.645 31.18-1.81 2.335-3.762 5.3-5.947 6.942-5.689 2.952-14.75.364-20.889 1.421H1044c1.916 8.535 4.669 17.045 7.236 25.407 1.707 4.269 10.18 1.719 13.35 2.593H1411v363h-329c1.409 9.514 5.755 18.448 7 28h322v411h-409c.793 9.962 6.405 18.998 7 29m369 689h336v222c-.75 17.825.988 38.921-.716 55.217-1.98 15.202-20.216 14.08-31.025 13.441-19.945-.541-39.91-.584-59.792-2.525-9.995-.376-20-1.085-29.988-1.555-5.06-.264-10.142-.518-15.194-.859-4.46-.609-10.586.172-12.785-2.719-3.02 2.827-8.342 1.116-12.19 1.24-4.54-.845-10.261.596-13.81-1.24-.751 2.71-.494 6.629-.076 8.875-.205 3.135 5.432 3.056 7.36 3.799 18.166 3.273 36.312 7.326 53.354 14.578 23.212 11.07 45.153 28.295 57.254 51.523 12.404 25.285 13.444 53.986 17.608 81.225 27.612-2.822 55.336-6.236 82.248-13.312 18.98-5.087 37.941-11.87 54.292-23.028 12.226-7.994 22.99-18.446 30.269-31.2 23.338-42.33 19.66-92.764 20.191-139.091V2235h90c14.945-.204 29.937.294 44.875-.267 11.893-.552 28.228.05 34.125-16.274-16.208-20.189-32.534-40.37-50.022-59.49-8.934-9.974-17.753-20.02-26.593-30.067-4.674-4.745-8.778-10.05-13.618-14.635-4.765-3.431-8.899-11.802-13.767-13.267-17.396 35.859-40.966 68.971-58 105h-7v-79.2c.127-6.598-.16-13.182.097-19.766-.133-5.268 5.486-5.287 9.567-6.193 12.424-1.94 24.813-10.391 26.336-23.841-60.924-5.437-121.994-11.211-183-16v145h-344c1.85 9.809 5.815 19.258 8 29m49 25.578c18.242 27.486 37.063 55.319 48.644 86.557 10.232 24.514 16.963 50.352 21.156 76.537.964 5.291.667 10.787 1.802 16.042 2.188 7.12 12.678 11.51 19.51 15.851 27.923 16.518 65.862 11.604 88.082-12.319 10.615-11.162 17.413-25.322 19.99-40.458 2.689-16.223-.347-33.218-7.713-47.832-13.807-31.007-47.446-55.86-75.228-67.86-33.237-16.185-70.02-24.106-106.228-30.15-3.437-.898-6.35 1.24-10.015 3.054zM1457 1920c33.884 2.297 69.23 8.14 98.441 26.633 14.143 8.587 25.477 21.989 29.934 38.11 2.591 8.283 1.903 18.875-.569 26.316-1.377 7.925-9.42 16.375-9.806 22.941 5.972.098 11.942-6.033 17.531-9.61 41.19-29.385 78.996-62.852 114.34-98.76 17.886-18.103 34.536-37.409 50.537-57.186 7.815-9.889 15.296-20.048 22.757-30.194 3.4-5.399 7.24-10.47 10.82-15.734 2.634-4.893 8.286-10.852 9.015-15.516h-105.6c-17.827.14-35.649-.172-53.46.093-6.676.401-12.957 7.776-19.401 11.556-6.547 3.405-11.707 9.577-18.539 12.351v3c22.313-.2 45.318 1.151 66.21 9.886 14.166 5.838 27.138 16.224 33.862 30.262 12.136 22.093 2.554 51.805-17.542 65.597-9.098 6.427-21.753 11.554-32.04 12.18-12.308.865-23.976-3.452-35.49-6.925-5.462-20.798-21.456-41.751-33.814-56.566-7.344-8.205-16.51-17.6-24.113-24.243-5.346-3.761-10.32 2.226-14.727 4.188-4.671 2.582-9.13 5.463-13.816 8.001-24.596 13.884-49.953 26.723-75.53 38.62.08 1.716.639 3.344 1 5" style="fill:#fda;fill-rule:evenodd;stroke:none"/><path d="M157 2957.5c447.26 1.426 895.325-.26 1342.75.5 447.681-.76 895.643.926 1343.25-.5-89.24-527.6-175.768-1056.319-264.274-1584.188-32.881-197.178-65.724-394.337-98.6-591.504-14.975-86.916-28.91-174.043-43.658-260.994l-20.26-121.515c-4.237-19.837-5.613-40.387-10.571-60.035-2.23-3.666-9.156-3.713-13.331-6.001-153.686-51.195-307.327-102.464-461.007-153.658-134.313-44.829-268.697-89.519-403.002-134.345-7.496-2.464-14.948-4.998-22.428-7.466-7.106-3.118-15.85 1.66-22.572 3.602-115.69 38.56-231.359 77.11-347.031 115.675-101.317 33.788-202.65 67.568-303.967 101.324-44.313 14.829-88.697 29.519-133.002 44.345-20.83 6.934-41.652 13.855-62.47 20.817l-30.53 10.183c-4.798 1.638-11.417 2.822-12.665 7.456C487.841 971.739 383.296 1602.542 278.126 2233.19 237.363 2474.168 198.262 2717.071 157 2957.5m128-109v1.5h2420.4c2.706-.114 8.003.158 8.156-2.948.466-11.336-3.892-22.509-4.665-33.772-113.706-682.153-227.412-1364.304-341.077-2046.461C2348.502 651.225 2329.316 535.589 2310 420c-121.342-39.954-242.44-80.911-363.734-121.071-105.997-35.348-212.014-70.655-318-106-23.146-7.696-46.251-15.464-69.4-23.13-11.349-3.816-22.687-7.57-34.04-11.356-11.04-3.422-23.963-10.053-33.529-5.703a606540 606540 0 0 0-261 87C1078.145 290.453 925.97 341.187 773.819 391.9c-14.35 4.71-28.615 9.586-42.954 14.3-6.987 2.367-14.011 4.677-21 7-3.503 1.223-7.08 2.327-10.57 3.55-2.671 1.224-8.358 2.025-9.01 4.902-73.08 428.648-142.702 858.22-215.077 1287.05C411.568 2088.343 348.904 2469.203 285 2848.5" style="fill:gray;fill-rule:evenodd;stroke:none"/><path d="M1002 1516.5c.03.55.186 1.057.5 1.5H1412v-412h-2v410c-135.832.76-272.36-.926-408 .5" style="fill:#40372b;fill-rule:evenodd;stroke:none"/><path d="m1175 2235.5.5 1.5c4.3-2.077 11.178-.255 16.603-1H1209v447h16.2c4.887-.54 11.217 1.017 14.8-1.5-9.459-1.33-19.438.163-29-.5v-447h-36z" style="fill:#7f6e55;fill-rule:evenodd;stroke:none"/><path d="M1582 1078c34.903-.76 70.209.926 105-.5-2.937-2.22-8.178-1.154-12.295-1.5H1584c.76-120.167-.926-241.02.5-361h-2.5z" style="fill:#bfa67f;fill-rule:evenodd;stroke:none"/><path d="M1037 2235.25c3.55 6.119-3.192 15.955 3.5 21.75 1.286-7.172-.12-14.745.5-22h-4zm2.5 141.75c.694-3.59.64-9.079 0-12-2.947 3.22-3.247 8.926 0 12m359.5-469.5c.03.55.186 1.057.5 1.5 5.329-2.765 8.585-8.816 13.37-12.37 3.483-4.89 10.556-8.648 12.13-13.63-6.155 1.454-9.543 7.826-14.102 11.602-4.275 3.915-8.453 8.482-11.898 12.898m51 12.5c2.894-.129 6.42.289 9-.5-.7-.991-1.253-2.044-2-3l2-2c-3.034-1.086-6.164 2.32-9 2.5zm111 599.375c1.313 1.294 4.548.31 6 .125-.576-.726-.932-1.572-1-2.5-1.935-.116-3.8.866-5 2.375m6-478.375c4.12-.502 9.963-4.735 11-8-1.46-.33-2.458-1.522-3.5-2-2.74 2.874-7.445 6.468-7.5 10m112.5-89c2.234-.424 4.256-3.304 4.5-5-2.458-.46-5.571 3.038-4.5 5M2715 2850c.041-1.039-.056-2.056-.5-3-1.632.847-2.2 3.077.5 3" style="fill:#f2d3a5;fill-rule:evenodd;stroke:none"/><path d="M1040 2236c-1.175 78.849 1.017 158.054-6.807 236.628-3.064 37.233-9.112 74.208-19.006 110.22a426.5 426.5 0 0 1-18.366 51.713c-3.27 8.335-7.088 16.407-11.264 24.316-.843 1.994-2.254 4.532-1.984 6.594 3.659 4.127 6.883 10.39 12.927 13.529 32.453-24.091 64.31-50.004 88.237-83.029 37.278-48.81 58.63-108.137 72.067-167.441 12.225-63.737 17.83-128.74 20.196-193.53h34v447c21.796-.133 43.994 1.459 65.335-3.977 14.184-3.098 29.989-10.04 41.966-15.682 9.983-4.858 19.891-10.039 28.38-17.295 3.179-2.371 6.117-5.162 7.961-8.73 2.642-7.78.527-16.441 1.358-24.463v-74.989c.76-124.524-.926-249.451.5-373.864 1.669 1.216 3.282 4.532 5.135 4.533 8.157.319 16.127-2.715 24.186-3.503 62.469-11.755 124.37-26.902 184.493-47.654 43.829-15.598 87.201-33.1 128.03-55.518 59.114-32.078 114.802-70.738 165.376-115.107 26.058-22.72 50.086-47.707 72.791-73.711 5.727-6.237 10.744-13.083 16.239-19.51 4.043-4.99 7.737-10.27 11.88-15.177 3.482-3.615 9.83-3.256 14.088-3.92 14.116-1.202 31.365-5.925 40.282-15.933-24.898-20.78-50.547-40.668-75.627-61.221-18.902-15.469-38.146-30.49-57-46-2.02-1.006-3.776-3.58-5.724-3.78-7.153 3.505-13.397 13.2-19.751 18.103l-33.768 33.768-12.732 12.732c-1.755 1.951-3.728 3.644-5.863 5.14-10.639 1.846-21.904-.077-32.677.758-32.193-.76-64.785.926-96.858-.5 13.91-13.432 29.21-25.354 42.475-39.475 3.259-3.145 7.448-8.371 11.421-8.795 13.885-.864 30.906 2.816 41.104-13.73-14.902-7.023-32.286-8.928-47.71-14.853-49.536-13.596-98.53-30.091-148.29-42.647-21.775 56.31-55.993 107.076-92.228 154.961-18.036 24.327-38.496 46.698-58.68 69.166-10.317 10.66-22.57 23.185-32.79 32.167-5.554 5.375-11.143 10.72-17.146 15.58-4.958 5.228-13.063 9.352-16.156 14.626 3.602 4.343 7.076 7.277 12.074 4.97 5.038-1.664 10.067-3.346 15.099-5.027 15.648-5.082 31.211-11.142 46.327-17.443 22.798 23.627 37.765 54.836 43.206 87.13.724 4.531 1.214 9.112 1.278 13.693.533 3.623-.895 8.966 1.52 11.416 9.724 8.272 21.92 13.19 34.12 16.25 12.714 2.59 26.586.254 38.376-3.989-30.172 20.841-62.218 38.955-94.506 56.261-33.74 16.878-67.284 34.577-102.494 48.239v-449c16.26-.855 37.745-7.124 40-30-62-5.668-123.959-12.766-186-18v355h-51v-226.2c.172-6.034-.345-13.246.518-18.718 1.796-3.399 8.785-2.113 11.622-4.016 11.79-2.594 22.907-12.053 22.86-25.066-56.6-4.989-113.34-9.552-170-14v403c31.91 3.629 64.598-2.948 94.717-13.076 7.554-2.383 14.788-5.574 21.953-8.876 4.872-2.432 10.397-5.733 14.296-8.848 3.99-3.221 4.186-7.559 4.033-11.963.003-14.088 0-28.157.001-42.237h51v162H981c1.733 9.06 5.76 19.395 8.5 27.366 1.779 5.027 10.062 3.305 13.974 3.634H1040m-40-719.75c2.212 9.966 6.855 21.41 8 30.75h951c18.787.06 44.128 1.731 51-17.5-51.893-44.336-106.984-84.909-161-126.5-16.284 18.628-30.563 39.18-46.398 58.22-11.477 14.58-23.061 29.09-34.38 43.786-4.264 5.71-7.898 12.408-17.198 10.994H1583v-409h287.4c11.206-.461 24.667.971 34.749-1.53 4.518-1.074 9.526-3.505 12.656-6.435 2.698-2.843 6.161-8.037 3.401-10.928-47.405-41.633-99.088-78.284-148.706-117.107-23.97 28.916-47 58.755-70.407 88.136-6.287 6.749-11.827 18.631-20.872 17.864H1583V716h310.8c12.995-.013 26.006.016 38.996-.009 10.004-.075 21.438-3.785 26.566-13.042 2.866-4.517-1.826-7.504-5.184-10.026-49.791-39.736-99.588-80.019-150.678-117.923-19.318 23.126-37.127 47.521-56.14 70.895-8.195 10.4-16.486 20.75-24.63 31.18-1.863 2.268-3.713 5.242-5.752 7.024-2.686 2.253-6.396 1.827-9.724 1.901H1042c3.337 9.086 5.346 20.886 9.09 28.884 5.51 2.152 10.907.452 16.694 1.116H1410v361h-330c2.481 10.01 6.194 19.831 8 30h323v410h-360.6c-16.274-.787-35.573 1.12-50.4-1zM1377 2236h336v263.4c-.1 7.728.237 17.338-6.59 21.882-5.573 3.886-13.917 3.591-19.75 3.496-49.89-2.094-99.892-3.72-149.66-7.778.02 2.593-.029 5.203.027 7.79.248 1.696.315 4.424 1.422 5.395 4.874 1.346 10.044 2.17 15.047 3.068 17.23 3.768 34.777 7.697 50.578 15.836 21.275 11.437 43.762 31.206 52.857 51.919 11.034 24.555 11.988 51.887 16.069 77.992 26.809-2.136 53.652-5.878 79.81-12.195 36.806-8.24 75.254-26.51 92.81-62.112 17.147-38.772 16.767-81.92 16.38-123.338V2236h76.2c18.991-.24 37.998.304 56.983-.193 11.659-.684 26.965 1.218 34.546-13.603 2.237-4.422-2.16-8.873-4.72-12.169-20.13-25.504-42.082-49.47-63.39-73.938-11.645-12.196-22.044-25.865-34.619-37.097-11.825 16.482-19.82 35.95-30.91 53.027-8.583 18.188-21.244 34.476-29.09 52.973h-5v-79.2c.27-6.501-.418-14.264.443-20.169 1.024-3.778 8.872-2.497 11.432-4.359 12.22-2.177 24.065-11.974 24.125-25.272-30.705-3.337-61.697-5.338-92.46-8.338-30.87-2.244-61.624-6.223-92.54-7.662v145h-344c.989 10.624 5.969 20.593 8 31m48 24.579c19.162 27.65 37.895 56.4 49.882 88.135 10.42 24.983 17.186 51.368 21.207 78.087.826 5.08.402 11.39 2.17 15.847 24.528 27.4 71.8 32.308 100.716 8.88 30.848-22.642 37.409-68.015 19.099-100.348-14.42-30.034-47.882-53.906-75.163-65.726-32.941-15.888-69.277-23.462-105.047-29.637-5.39-1.255-8.747 1.7-12.864 4.183zm26-342.329c35.966 2.853 75.153 7.227 106.328 27.929 15.115 9.671 27.34 25.012 30.302 43.109 2.665 18.931-5.325 37.812-19.63 50.212 35.825-23.321 70.057-51.527 102.102-80.102 49.59-44.186 92.253-95.64 128.898-150.898-34.677-1.426-69.858.26-104.63-.5-17.577.161-35.178-.197-52.744.106-6.688.59-12.906 8.11-19.488 11.8-6.361 3.735-11.72 9.016-18.138 12.594l1.625.5c22.437-.171 45.612 1.565 66.481 10.668 14.215 6.034 26.482 16.99 32.831 31.213 11.32 22.995 1.182 53.002-19.566 66.726-9.788 6.043-20.902 11.161-32.66 11.374-12.392.736-24.121-3.384-35.711-6.981-9.701-32.402-37.486-63.345-60.5-83-33.59 21.087-69.144 39.448-105.5 55.25" style="fill:#000;fill-rule:evenodd;stroke:none"/></svg>