<svg xmlns="http://www.w3.org/2000/svg" width="3000" height="3000"><path d="M284 2851h2432c-134.149-810.763-270.401-1621.295-405-2432-135.347-44.612-270.435-90.254-405.734-135.071-101.317-33.788-202.65-67.568-303.967-101.324-19.003-6.335-37.989-12.692-57-19-9.003-3.001-17.989-6.025-27-9-7.733-2.688-16.776-7.4-26.322-3.1-133.676 44.789-267.33 89.675-401.15 134.052C956.158 329.848 822.71 374.9 689 419c-134.595 810.684-270.855 1621.274-405 2432m698-644.5c1.37 4.961 3.507 9.698 4.899 14.676 1.359 3.59 2.413 8.087 4.162 11.152 1.12 2.866 5.843 2.532 8.073 2.67 9.498.005 19 0 28.484.002H1041c-1.006 75.398.479 151.008-5.643 226.217-5.577 69.96-18.392 140.947-52.357 203.283 3.811 4.23 7.153 8.923 11.664 12.5 57.497-37.006 103.321-91.772 129.991-154.68 29.15-65.668 39.989-137.323 45.477-208.375 2.194-26.272 4.074-52.587 4.868-78.945h35v437.4c-.014 4.115-.648 9.548 5.123 9.497 32.758 1.643 65.87-3.02 95.489-17.674 9.997-4.478 21.449-10.754 29.597-16.643 4.05-2.897 8.247-5.88 11.063-10.074 3.349-4.37 2.75-10.12 2.728-15.255V2162c3.963.515 6.1 5.75 10.798 4.464 125.603-22.243 251.139-57.672 361.567-123.39 52.562-31.962 103.084-67.989 148.112-110.042 23.873-20.624 44.795-44.437 65.332-68.236a353 353 0 0 0 14.733-18.162c3.692-3.525 7.273-11.277 11.528-12.54 16.763-3.451 36.776-3.014 49.93-16.094-44.245-38.188-92.044-72.92-136.5-111l-38.602 38.602c-9.643 9.602-19.223 19.273-28.88 28.854-3.495 4.339-10.311 3.69-15.26 3.544H1677c.362-4.912 6.52-7.714 9.38-10.928 12.293-11.554 26.957-24.807 37.855-35.803 6.14-6.925 18.428-2.918 26.402-4.623 7.107-.768 16.826-3.994 20.363-12.646-64.48-17.941-128.51-38.014-193-56-21.568 55.85-55.537 106.106-91.266 153.708-36.963 47.72-77.612 92.864-124.734 130.792 1.573 4.846 6.77 6.761 10.633 4.755 10.535-4.134 21.45-7.159 32.039-11.132 9.312-3.113 18.11-8.041 27.66-10.344 4.036-1.19 7.059 5.455 9.484 7.424 19.872 24.145 32.516 54.305 36.715 85.207 1.58 7.514-2.621 17.505 6.931 22.55 9.85 6.053 20.549 11.421 32.165 13.034 12.203 2.574 23.936-1.746 35.373-4.994-.528 4.384-6.794 6.628-10.336 9.574-29.668 18.602-59.619 37.008-91.02 52.598-16.31 8.12-32.213 17.151-49.1 24.094-7.964 3.976-15.97 7.937-24.24 11.226-7.648 2.68-17.502 8.832-24.304 9.508v-451c16.117-.932 35.749-6.518 40-28-61.32-5.944-122.661-12.255-184-18v355h-53v-226.8c.38-6.119-.525-13.487.432-19.039.044-4.214 7.916-3.258 10.329-4.673 12.058-2.337 22.554-10.778 24.239-23.488-55.874-5.316-112.038-9.217-168-14v402c31.848.808 63.809-2.879 93.704-14.403 7.105-2.416 14.107-5.204 20.87-8.438 4.699-2.68 10.475-5.598 14.325-8.75 3.894-3.274 4.302-7.437 4.1-11.881.004-14.191-.001-28.351.001-42.528h53v164H982zm27-660.5h935.4c12.849.097 25.728.193 38.54-.885 9.26-.61 21.634-5.304 24.23-13.69 1.066-1.976-2.012-3.913-3.127-5.186-25.359-21.246-51.125-42.008-77.45-62.043-12.978-10.028-25.896-20.142-39-30-6.67-4.787-12.793-10.336-19.587-14.942-6.776-4.032-13.125-11.769-20.006-14.254-13.555 20.177-31.128 38.347-45.238 58.325-11.678 14.453-22.92 29.225-34.56 43.707-2.337 2.69-4.298 5.745-6.828 8.258-2.006 2.73-7.874 1.08-10.547 1.71H1582v-411h307.2c11.053.439 26.745-1.947 32.8-15.5-47.996-41.292-99.198-79.285-149.5-117.5-24.081 29.014-46.768 59.224-70.62 88.426-5.953 6.381-10.639 17.764-21.569 16.574H1582V715h340.2c12.665.496 30.39-.062 37.8-15.5-51.638-41.343-103.098-83.602-156.5-122.5-18.722 23.286-37.06 46.961-55.598 70.402-8.43 10.234-16.194 20.998-24.624 31.226-1.858 2.247-3.854 5.11-5.884 6.853-2.12 2.181-6.63 1.144-9.893 1.519H1044c1.601 8.477 4.463 16.795 7.082 24.995 1.324 4.585 9.757 2.288 12.904 3.005H1411v363h-329c1.342 9.531 5.657 18.464 7 28h322v411h-409c.54 10.014 6.242 19.052 7 29m369 689h336v235.2c-.004 9.993.005 20.009-.003 29.995-.237 7.776.254 17.483-6.587 22.087-5.407 3.769-14.757 3.466-19.834 3.517-49.823-2.255-99.913-3.494-149.576-7.799.581 3.458-1.201 10.181 2.434 11.579 3.907.672 7.863 1.684 11.789 2.378 17.168 3.253 34.285 7.424 50.205 14.794 22.389 11.675 43.107 28.672 54.717 51.582 11.646 24.952 12.35 53.06 16.855 79.667 26.605-2.403 53.274-5.832 79.187-12.554 36.55-8.598 75.342-26.967 92.022-63.082 16.957-37.979 15.643-80.546 15.791-121.038V2235h76.2c19.166-.101 38.351.124 57.512-.068 11.41-.443 27.779.253 33.83-13.482 1.995-4.233-3.11-8.126-5.31-11.445-20.519-25.326-41.853-50.035-63.778-74.137-5.45-5.911-10.67-12.02-16.07-17.966-2.926-3.034-6.06-5.881-8.756-9.113-2.3-2.786-5.606-6.984-8.628-7.789-9.139 18.592-20.6 36.283-30.35 54.609-5.27 9.1-10.167 18.392-15.56 27.418a437 437 0 0 1-7.738 13.886c-2.39 4.398-4.373 9.998-11.352 9.087v-103c13.74-3.11 32.893-5.71 36-26-60.891-5.687-122.01-11.185-183-16v145h-344c1.85 9.809 5.815 19.258 8 29m49 25.25c35.853 51.73 65.737 110.767 70.95 174.825-.112 9.482 6.875 12.99 13.99 17.185 11.866 7.306 24.99 12.52 39.016 13.286 21.12.52 42.694-7.516 56.64-23.852 14.314-15.801 21.2-37.408 19.123-58.579-4.613-40.84-37.014-71.478-71.098-90.027-35.924-19.498-76.326-29.41-116.382-35.832-5.019-1.575-8.31.272-12.239 2.744zm23-341.75v1.5c18.694-.034 40.644 3.11 57.3 7.082 25.836 5.91 52.806 17.489 69.26 39.231 8.103 11.438 12.666 25.919 9.627 39.901-1.445 6.75-4.124 13.115-7.78 18.916-2.373 5.746-10.522 10.75-11.407 15.87 5.886-1.008 11.696-7.614 17.674-10.988 42.682-29.944 82.28-64.133 118.928-101.114 18.764-18.512 35.7-38.713 52.59-58.898 8.19-10.072 15.646-20.718 23.383-31.118 3.93-5.23 7.18-10.962 11.129-16.168 2.862-4.871 8.489-10.996 9.296-15.714h-106.2c-17.8.208-35.649-.253-53.443.137-6.57.726-12.693 8.132-19.219 11.77-6.415 3.28-11.413 9.512-18.138 12.093v3c22.675-.397 46.017 1.073 67.152 10.254 14.34 5.902 26.727 16.735 33.513 30.767 10.956 21.91 2.05 50.642-17.712 64.4-9.157 6.763-22.08 11.79-32.515 12.381-12.278 1.147-23.947-3.454-35.438-6.802-6.137-21.474-20.242-39.977-34.168-56.975-7.032-7.358-15.88-17.5-24.642-24.348-4.174-3.162-10.41 3.828-14.3 4.958-4.63 2.623-9.121 5.48-13.796 8.01-13.178 7.361-26.521 14.38-39.928 21.283-7.356 3.632-14.682 7.365-22.031 11.007-3.398 1.575-6.894 2.927-10.255 4.585-2.885 1.721-7.721 2.475-8.88 4.98" style="fill:#feddaa;fill-rule:evenodd;stroke:none"/><path d="M1040 2236c-1.292 78.904 1.005 158.142-6.916 236.762-3.201 37.263-9.1 74.378-19.024 110.444-5.269 17.388-10.766 34.761-18.238 51.352-3.366 8.289-7.205 16.354-11.264 24.315-.841 2.004-2.258 4.53-1.985 6.598 3.658 4.127 6.883 10.39 12.927 13.529 32.525-24.06 64.236-50.052 88.278-83.006 37.024-48.675 58.446-107.632 71.872-166.705 6.438-31.233 10.58-62.91 13.66-94.625 3.106-32.807 5.752-65.714 6.69-98.664h33v438c-.402 4.188-.352 9.282 5.703 8.94 32.47 1.364 65.465-2.402 94.982-16.861 10.002-4.559 21.525-10.575 29.881-16.241 8.14-5.631 17.16-11.705 15.434-24.787v-389.339c.759-24.15-.926-48.685.5-72.712 3.5 5.335 8.221 5.672 13.721 3.882 5.35-1.12 10.78-1.733 16.126-2.86 122.018-23.142 243.737-59.51 350.26-125.053 51.746-31.353 100.359-67.84 144.595-109.107 22.607-20.944 43.625-43.55 63.289-67.227 4.939-5.812 9.653-11.78 14.268-17.847 3.258-3.81 5.948-9.788 12.392-10.417 16.632-1.997 38.422-4.59 47.849-16.871-24.5-21.246-50.867-40.292-75.556-61.316a8521 8521 0 0 1-56.96-45.81c-1.738-1.041-3.343-2.984-5.544-3.877-3.99.015-7.092 6.568-10.173 8.236l-36 36-13.5 13.5c-4.034 3.612-8.077 8.703-12.168 11.555-5.155 2.395-10.645.433-16.148 1.212-37.898-.76-76.172.926-113.951-.5 14.26-13.495 29.484-25.915 43.102-40.102 3.567-3.49 6.962-8.174 12.321-8.335 12.912-.566 32.155 2.974 39.577-15.063-65.75-16.561-130.159-39.777-196-56-21.741 56.151-55.897 106.682-91.895 154.525-18.348 24.088-38.145 47.033-58.686 69.214-10.357 10.84-22.824 23.442-33.118 32.555-5.553 5.375-11.142 10.72-17.145 15.58-4.958 5.228-13.063 9.352-16.156 14.626 3.22 3.45 6.624 7.746 12.523 5.138 4.865-1.777 9.68-3.692 14.638-5.192 15.568-5.349 31.291-10.846 46.339-17.446 22.287 24.057 38.292 55.024 43.138 87.683.793 4.368 1.424 8.804 1.356 13.25.59 3.59-1.057 9.426 1.898 11.564 9.594 8.251 21.814 12.858 33.84 16.062 12.678 2.751 26.545.184 38.268-4.059-30.137 21.078-62.482 38.843-94.746 56.38-33.643 16.9-67.196 34.271-102.254 48.12v-449c16.295-.867 37.761-7.146 40-30-62.01-5.664-123.95-12.77-186-18v355h-51v-226.8c.247-5.958-.49-13.22.729-18.544 2.268-2.865 8.304-1.729 11.926-3.74 11.915-2.634 22.057-12.157 22.345-24.916-28.285-3.264-56.948-4.495-85.311-7.324-28.256-1.998-56.41-5.194-84.689-6.676v404c32.137.839 64.472-2.528 94.7-14.066 7.116-2.334 14.042-5.16 20.853-8.25 4.91-2.763 10.857-5.792 14.968-8.938 6.84-5.94 3.608-18.216 4.479-26V2043h51v162H981c1.078 8.932 5.657 17.178 7.837 25.846 1.503 5.867 7.738 5.403 12.263 5.154zm-40-719.5c2.115 9.915 6.606 21.301 8 30.5h951c18.798.086 44.12 1.713 51-17.5-51.71-44.553-107.176-84.689-161-126.5-16.005 18.766-30.727 38.909-46.315 58.073-11.581 14.561-22.91 29.284-34.568 43.778-2.29 2.762-4.439 5.613-6.698 8.379-2.218 2.97-6.638 2.867-9.797 2.77H1583v-409h287.4c11.206-.461 24.667.971 34.749-1.53 4.624-1.183 9.093-3.24 12.673-6.436 2.878-2.647 6.357-7.951 3.393-10.892-23.397-21.141-49.183-39.708-73.58-59.684-24.681-19.632-49.972-38.51-75.135-57.458-24.4 28.56-46.499 59.1-70.494 87.997-2.963 3.795-6.035 7.543-9.03 11.303-4.927 8.89-15.412 6.7-24.067 6.7H1583V716h312c13-.065 26.003.079 38.991-.043 9.872-.159 21.937-4.87 25.606-13.521 2.398-4.6-2.71-7.257-5.845-9.858-49.003-40.879-100.558-78.636-150.252-118.578-17.9 24.118-37.485 47.251-55.663 71.213-8.344 10.293-16.21 20.955-24.59 31.216-3.631 5.053-6.835 10.768-14.947 9.571H1042c3.387 9.13 4.938 21.384 9.4 29.145 10.984 2.093 22.626-.098 33.758.855H1410v361h-330c2.461 10.025 6.176 19.82 8 30h322v409h-410zm368 688.75c3.494 9.913 5.781 20.679 9 30.75h336v234c-.006 9.808.008 19.628-.004 29.436-.221 7.711.194 17.302-6.586 21.846-5.578 3.717-13.932 3.428-19.729 3.468-49.9-2.291-99.893-3.662-149.681-7.75.02 2.593-.029 5.203.027 7.79.248 1.696.315 4.424 1.422 5.395 4.923 1.31 10.129 2.138 15.137 3.238 17.1 3.508 34.342 7.685 50.076 15.45 21.624 11.982 41.862 28.784 52.945 51.42 11.263 24.728 11.91 52.436 16.393 78.707 26.847-1.7 53.66-5.896 79.807-12.194 36.46-8.209 74.58-26.1 92.34-61.144 17.225-37.196 16.837-79.174 16.853-119.142V2236h76.2c19.166-.101 38.351.124 57.512-.068 11.5-.398 27.717.193 33.909-13.493 2.542-4.523-1.824-9.184-4.623-12.442-20.197-25.472-41.82-49.764-63.458-73.98-11.634-12.142-21.964-25.833-34.54-37.017-6.86 7.858-11.248 20.05-16.648 27.913-7.769 13.37-15.069 27.007-22.846 40.358-3.732 6.824-7.787 13.443-11.405 20.32-1.997 3.486-4.013 6.938-6 10.419-1.627 3.113-3.662 7.254-8.101 6.99v-101c14.015-3.001 34.835-6.37 36-28-61.19-6.94-123.436-9.843-184.5-17-1.426 48.544.26 97.399-.5 146h-345zm57 55.375c19.092 27.113 37.182 55.555 49.3 86.677 10.468 24.962 17.416 51.273 21.59 77.971.778 5.25.776 10.598 1.708 15.819.705 4.35 4.855 6.41 8.451 8.942 13.672 9.803 29.895 16.15 46.766 16.702 26.046.21 51.253-12.785 64.427-35.651 13.529-22.3 13.95-50.905 3.542-74.422-14.472-32.679-44.447-55.755-76.06-70.713-33.571-15.708-69.906-24.385-106.371-30.042-5.68-1.658-9.31 1.258-13.353 4.092zm26-342.375c36.16 2.644 75.532 7.464 106.776 28.236 15.004 9.768 27.228 25.208 29.925 43.345 2.456 18.79-5.5 37.39-19.701 49.669 54.058-35.033 102.992-78.993 147.996-125.119 14.845-16.981 30.488-33.272 44.002-51.415 13.938-17.475 26.186-36.217 39.002-54.466-34.677-1.426-69.858.26-104.63-.5-17.577.161-35.178-.197-52.744.106-6.688.59-12.906 8.11-19.488 11.8-6.21 3.544-12.318 9.593-18.138 12.594 11.931 1.337 24.237-.471 36.087 2.36 18.651 2.635 37.342 8.723 51.572 21.514 10.466 9.597 17.409 23.193 17.772 37.453.27 21.154-10.756 41.966-30.234 51.498-21.655 12.108-41.695 7.98-62.197.675-10.03-32.208-37.55-63.274-60.5-83-33.566 20.983-69.154 39.544-105.5 55.25" style="fill:#000;fill-rule:evenodd;stroke:none"/></svg>