<svg xmlns="http://www.w3.org/2000/svg" width="3000" height="3000"><path d="M363 2763h2274c-116.777-706.336-235.544-1412.426-352.792-2118.701-7.351-44.171-14.733-88.332-22.082-132.49-.76-5.347-1.88-10.63-2.64-15.97-.062-6.502-4.856-8.386-10.16-9.572-81.497-27.15-162.975-54.317-244.46-81.467-142.336-47.478-284.708-94.881-427.04-142.357-13.532-4.49-27.037-9.017-40.56-13.514-6.477-2.17-12.972-4.309-19.44-6.486-6.235-1.594-13.427-5.493-19.495-5.034-100.387 32.434-200.209 66.92-300.466 99.791-150.35 50.002-300.828 99.614-451.039 150.05-5.982 1.452-6.275 6.662-6.798 11.742-24.43 146.388-48.84 292.799-73.214 439.189C565.92 1546.494 463.462 2154.662 363 2763m661-651.5c2.201 8.464 5.009 16.976 7 25.5h177c-2.57 85.68-9.832 172.322-35.37 254.603-11.231 39.302-27.073 77.235-47.798 112.475-9.783 17.204-21.527 33.207-33.309 49.069-5.766 8.334-12.89 15.613-19.105 23.595-5.805 7.674-14.83 15.258-19.418 22.758l5.5 5.5c42.594-21.469 85.095-44.296 121.957-75.068 55.893-45.445 100.092-104.937 127.24-171.658 13.594-34.999 23.682-71.349 30.493-108.261 5.323-37.494 9.212-75.161 10.81-113.013h310v293.4c.61 8.047-1.079 17.912-12.406 18.373-14.027.785-28.109-.426-42.128-.742-13.482-.855-27.033-.776-40.466-2.031.017 3.268-.613 10.03 2.86 10.852 3.796 1.652 8.017 2.061 11.872 3.56 13.39 3.932 26.108 10.54 35.285 21.237 13.858 16.085 21.466 36.765 23.655 57.694 3.343 21.717 3.33 43.848 4.828 65.657 42.792-5.917 91.044-9.825 125.581-39.645 26.014-22.719 31.874-58.742 34.873-91.205 2.524-56.085-.084-112.329 1.046-168.434V2137h142.8c12.407.148 32.477 2.059 38.2-14.543-39.622-36.084-79.492-72.096-121.5-105.457-8.783 13.476-19.166 25.987-28.37 39.197-10.154 12.525-18.59 26.66-29.13 38.803h-2v-245c16.162-2.748 31.738-10.475 43-22.5-43.24-35.915-88.952-68.956-132.5-104.5-14.995 16.625-29.485 33.708-44.425 50.384-5.877 6.323-11.293 13.06-17.11 19.427-4.379 7.077-15.108 5.007-22.111 5.189H1455v-3c8.64-3.306 16.121-9.559 24.471-13.586 28.839-16.39 56.597-34.55 85.026-51.61 7.002-3.677 13.26-8.575 20.033-12.606 5.174-3.182 10.114-6.713 15.195-10.022 6.987-3.908 18.464-3.646 26.994-8.266 9.191-3.199 14.353-11.917 17.281-20.41-.458-.45-.911-.96-1.25-1.5-17.37-1.104-34.482-5.117-51.75-7v-3h226.8c18.734-.655 37.584.937 56.262-.845 12.806-.99 24.178-7.178 32.295-17.033 6.147-6.405 10.15-14.481 14.65-22.013 14.013-22.972 27.034-46.646 40.993-69.609-.458-.45-.911-.96-1.25-1.5-83.665-4.978-167.158-12.993-250.75-19-1.527-11.31-5.68-22.191-7.852-33.388-2.248-7.862-3.795-16.102-7.784-23.341-7.976-12.29-20.38-13.565-32.732-14.354-12.357-1.438-24.678-2.924-37.056-4.097-25.215-2.134-50.307-6.516-75.576-7.82 3.069-21.187 2.198-42.787 5-64 107.359-.804 214.657-3.522 322-5-47.96-122.177-97.227-244.026-145.464-366.141-24.074-61.07-48.713-121.912-72.77-182.985-12.585-30.547-24.228-61.462-36.82-92.01-6.151-15.145-11.986-30.387-18.015-45.574-2.69-6.752-.203-16.77-.287-25.2.535-8.697 1.288-17.39 1.356-26.09-11.543-3.473-26.065-5.046-37-3-.42 5.626-.821 11.27-1.1 16.896.442 11.806-7.22 17.573-14.77 24.474-106.066 105.76-212.092 212.992-297.984 336.378-20.053 30.482-40.488 60.89-57.316 93.339-27.687 50.188-49.366 103.289-67.546 157.557-18.554 55.527-31.476 112.904-44.284 169.856 66.158-23.151 134.602-43.36 204.427-53.051 75.4-10.591 152.042-11.119 227.573-1.449-.833 20.348-3.359 40.634-4 61-47.81-3.655-95.24-12.92-143.23-10.802-12.697.757-25.409 1.192-38.123 1.493-8.837.794-19.84-.49-27.628 2.447-22.686 12.194-34.858 37.078-44.019 59.862-37.167-1.62-74.164-6.101-111.305-8.092-36.531-3.803-73.875-4.574-110.195-8.908 1.766 16.086 7.283 32.34 11.105 48.13 6.609 22.88 15.03 45.394 27.293 65.876 11.016 20.181 29.374 41.121 47.602 51.999 20.164 13.928 45.027 16.953 68.873 15.995H1427c-1.507 43.73-4.022 87.42-8 131h-30.6c-15.844 1.4-33.08-5.173-46.535-10.2-44.323-14.839-88.263-30.86-132.865-44.8v368h-185zm875-522.5c-271.07-19.44-541.914-42.855-813-62 1.327 13.18 9.156 27.44 13.723 38.422 8.466 18.48 19.46 36.063 35.6 48.817 7.39 6.011 16.124 10.593 25.317 13.168 10.913 2.496 22.247 1.221 33.322 1.593h668.397c5.098.027 11.176.814 15.444-3.506 5.11-5.122 8.041-12.095 12.075-18.049 2.713-5.783 8.62-13.034 9.122-18.445m-764-199c110.02-38.92 228.662-54.444 345-43-8.675-97.145-12.058-194.886-6.275-292.348 4.04-91.323 17.007-181.994 34.275-271.652-5.006.677-8.805 7.304-13.233 10.733-31.667 32.164-62.544 65.112-92.263 99.068-43.917 49.464-85.396 101.235-122.256 156.198-36.701 54.141-68.25 111.79-93.297 172.251-11.56 27.012-20.835 54.932-29.885 82.835-5.097 14.407-8.17 29.444-12.824 43.978-2.48 13.65-8.34 29.236-9.242 41.937m215 721h309v-287h-309c1.806 11.705.527 23.688 1 35.48-.174 83.838.507 167.698-1 251.52m45-239.75c9.823 13.563 20.88 26.73 27.759 42.254 13.848 27.456 22.925 57.067 27.73 87.397.96 6.255 1.303 12.611 1.497 18.915.025 3.21.008 6.4.014 9.596-.972 6.506 2.267 10.202 7.366 13.118 14.492 11.392 35.822 20.63 53.051 19.246 28.759-.832 56.738-19.03 68.08-45.774 11.576-26.839 5.69-59.529-14.195-81.214-17.838-22.698-48.713-38.56-72.848-47.733-30.007-8.978-60.945-17.323-92.42-18.645-2.27.15-3.815 2.11-6.034 2.59zm27 629.75c38.596 1 77.79-2.81 113.878-17.552 4.09-1.7 8.45-3.112 11.914-5.972 4.065-2.731 4.552-7.287 4.208-11.16V2209c9.126-2.138 19.185-4.224 25.869-11.408 2.645-3.072 8.047-8.587 4.374-12.155-5.105-.331-10.23-1.04-15.359-1.242-7.382-.633-14.744-1.508-22.136-2.017a6795 6795 0 0 1-46.566-3.97c-25.42-1.486-50.745-5.138-76.182-6.208zm33.002-1018.769c-1.233 12.933 10.664 25.263 23.653 23.547 11.878-1.1 20.024-12.547 19.18-24.086.178-11.538-8.829-22.246-20.654-22.489-12.344-1.06-23.202 10.85-22.18 23.028M1516 1337h4c13.369-205.03 28.108-409.993 42-615-1.702.073-3.434.469-4.577 1.78-.125 1.705-.925 3.279-1.084 4.999-19.117 97.048-35.315 194.847-42.294 293.61a1990 1990 0 0 0-4.936 158.02c.378 52.293 3.79 104.441 6.891 156.591m30.01 155.433c-.773 12.81 10.76 24.226 23.331 22.465 11.175-1.042 18.15-13.51 17.324-23.764-.182-10.578-8.692-21.497-19.9-21.128-11.677-.537-21.323 11.087-20.755 22.427M1556 1353c44.001-1.068 88.003-1.484 132.023-2.177 44.316-.752 88.653-1.688 132.977-1.823-35.631-94.57-74.851-188.387-111.473-282.712C1673.06 971.953 1633.775 878.563 1598 784h-3c-12.89 189.644-25.278 379.431-39 569m75.21 147.436c.105 10.398 7.217 24.102 21.917 20.75 10.442-2.857 14.968-12.838 14.364-22.24-1.194-8.793-6.296-18.704-18.283-18.615-11.264.422-17.835 10.192-17.997 20.105" style="fill:#ffe;fill-rule:evenodd;stroke:none"/><path d="M244 2863.5c418.26 1.426 837.325-.26 1255.75.5 418.681-.76 837.643.926 1256.25-.5-137.483-816.352-271.828-1633.965-409-2450.5-141.513-45.746-282.358-94.352-423.703-140.74-105.839-35.248-211.646-70.575-317.47-105.817l-60-20a8496 8496 0 0 1-28.008-9.343c-4.68-1.543-9.347-3.083-13.982-4.729-5.086-2.015-9.193.742-14.014 2.193-139.528 46.49-279.049 93.006-418.557 139.507C931.703 319.858 792.72 367.853 653 413c-137.126 816.275-271.612 1634.71-409 2450.5m2014-2374c-125.952-43.93-253.833-84.21-380.181-127.4-95.205-31.693-190.356-63.475-285.553-95.171-17.796-5.994-35.652-11.835-53.447-17.829-8.52-2.817-17.015-5.657-25.52-8.495-4.005-1.231-8.613-3.125-12.41-3.767-63.25 20.199-127.559 42.687-191.024 63.362-95.507 31.916-191.062 63.633-286.568 95.54-47.833 15.913-95.637 31.905-143.47 47.817-23.844 7.95-47.684 15.888-71.528 23.838-12.001 4.028-24.011 7.976-36 12-11.213 4.21-25.413 6.718-32.299 14.605-123.521 749.703-250.12 1499.052-374.284 2248.678-.418 5.827-2.715 12.663-2.316 18.006.871 6.983 13.32 4.9 17.447 5.316h2218.831c9.216-.067 18.404.082 27.605-.045 3.385-.083 8.257-1.042 9.136-4.947.92-7.845-2.296-15.705-2.828-23.483-17.165-103.086-34.354-206.148-51.543-309.22-105.598-632.472-211.056-1264.95-316.234-1897.486-1.231-7.003-2.3-14.019-3.528-21.008-.688-3.85-1.257-7.694-1.924-11.537-.508-1.542-.565-4.395-2-4.784-.031-1.344-1.034-2.612-.362-3.99" style="fill:#70706f;fill-rule:evenodd;stroke:none"/><path d="M1022 2110.25c2.956 8.606 5.786 19.642 8 27.75h177c-2.822 85.549-9.977 172.1-35.884 254.173-11.262 39.255-27.356 77.042-48.071 112.224-9.502 17.428-22.03 32.926-33.417 49.076-6.037 8.11-12.905 15.563-19.214 23.439-5.951 7.467-14.72 15.24-19.414 22.588 2.726 2.662 6.108 6.979 9.6 5.44 4.074-1.5 7.784-3.852 11.734-5.615 56.665-27.692 110.738-63.167 153.252-110.236 43.433-46.468 76.677-102.77 95.05-163.778 20.006-60.417 26.783-124.03 29.364-187.311h308v291.6c.126 4.452-.174 9.05-2.281 13.085-4.05 6.666-14.922 5.018-21.297 5.307-23.82-.806-47.637-1.515-71.422-2.992.3 4.231-1.207 11.752 3.265 13.036 4.718 1.712 9.776 2.427 14.434 4.365 13.122 3.777 25.119 11.168 33.68 21.832 13.172 16.01 20.314 36.182 22.36 56.645 2.574 21.599 4.161 43.36 4.261 65.122 25.262-3.302 50.949-5.129 75.407-12.848 35.07-8.326 69.53-32.144 78.764-68.835 11.926-39.023 9.732-80.264 9.829-120.447V2138h144c13.35.17 30.516 1.914 38-15.5-39.987-37.128-81.093-73.122-123.5-107.5-19.208 26.396-38.517 52.807-58 79-1.426-80.804.26-162.101-.5-243 16.747-2.733 32.474-11.069 44-23.5-43.441-37.14-90.751-69.732-134.5-106.5-15.183 16.467-29.419 33.768-44.473 50.352-5.926 6.286-11.226 13.12-17.146 19.412-5.043 7.907-13.117 6.49-21.403 6.236-58.427-.76-117.13.926-175.478-.5 40.263-22.63 79.28-47.537 118.838-71.386 9.691-5.88 18.944-12.447 28.535-18.457 14.165-4.428 37.517-4.574 40.882-27.422 1.03-3.107-2.31-3.217-4.224-3.306-15.96-2.786-32.205-3.946-48.031-7.429 75.806-1.426 151.782.26 227.623-.5 18.427-.574 40.223.934 57.042-1.078 6.156-1.164 12.407-2.662 17.875-5.825 18.493-11.879 27.137-33.238 38.32-51.073 10.038-18.029 20.944-35.613 31.14-53.524-83.81-8.663-168.932-12.619-253-20.5-1.527-11.31-5.68-22.191-7.852-33.388-2.248-7.862-3.795-16.102-7.784-23.341-7.976-12.29-20.38-13.565-32.732-14.354-12.357-1.438-24.678-2.924-37.056-4.097-25.215-2.134-50.307-6.516-75.576-7.82 3.556-20.427 1.993-41.496 5-62 107.676-.776 215.33-3.58 323-5-48.586-122.352-97.447-244.757-146.054-367.136-24.204-61.409-48.993-122.575-73.18-183.99-12.585-30.547-24.228-61.462-36.82-92.01-6.17-15.284-12.12-30.676-18.173-46.002-2.378-6.672.22-16.485.037-24.761.565-8.691 1.17-17.393 1.19-26.101-12.536-3.498-26.054-5.192-39-3-.42 5.626-.821 11.27-1.1 16.896.442 11.806-7.22 17.573-14.77 24.474-106.511 106.068-212.803 213.752-298.83 337.687-20.455 30.47-40.293 61.455-57.563 93.856-27.386 50.542-49.276 103.707-67.294 158.232-16.501 56.13-33.698 113.097-42.943 170.855 65.903-25.83 135.078-43.41 204.947-54.386 75.062-10.772 151.349-11.252 226.553-1.614-1.304 19.654-3.004 39.329-4 59-23.417-2.48-46.813-5.274-70.238-7.648-18.405-1.598-36.824-5.353-55.347-3.743-14.186.568-28.384.925-42.563 1.69-10.639.49-21.297.38-31.917 1.125-14.254.179-27.737 15.751-33.764 24.303-7.59 11.699-14.288 24.193-19.171 37.273-74.323-3.902-148.804-12.622-223-16.5 10.018 37.867 17.32 77.822 37.873 112.044 13.516 25.056 33.278 47.26 58.615 60.678 21.551 11.464 46.398 11.301 70.073 10.778H1426c-1.812 43.056-3.864 86.096-8 129h-30.6c-16.459.823-31.68-5.99-47.134-11.07-21.878-7.844-44.077-14.802-65.95-22.654-21.797-7.752-44.186-14.125-65.816-22.276-1.426 122.874.26 246.061-.5 369h-186zM1898 1590c-270.41-19.624-540.584-42.53-811-62 3.178 14.054 9.597 27.346 15.673 40.329 8.933 19.563 21.704 38.107 40.297 49.722 20.035 13.272 44.923 9.937 67.592 9.949h650.397c4.676-.094 10.437.88 15.005-2.814 4.684-3.86 8.386-11.335 12.14-17.36 2.585-6.27 7.616-11.488 9.896-17.826m-761.5-201c53.003-20.141 108.886-33.075 165.17-40.084 58.8-7.345 118.375-8.656 177.33-2.916-18.652-187.27-8.955-377.59 27.5-562-43.236 42.664-84.393 87.263-123.637 133.587-57.518 66.418-109.1 138.084-151.83 214.835-21.64 40.07-41.156 81.288-56.421 124.252a928 928 0 0 0-21.813 65.51c-5.01 22.172-13.954 44.224-16.299 66.816m214.5 436.25c1.992 4.573.341 11.823 1 17.608-.308 89.037.641 178.12-1 267.142h307v-285h-307zm42 46.125c24.526 29.149 41.225 64.084 50.545 100.975 3.553 14.756 6.423 29.774 7.355 44.916 1.159 6.92-1.366 15.042 1.42 20.927 16.01 16.114 42.953 26.828 63.776 24.38 35.653-1.802 66.788-30.695 70.895-66.169 3.152-18.063-3.042-36.412-11.977-51.854-8.266-14.6-23.56-28.07-36.39-36.143-19.146-13.182-40.9-22.206-63.307-28.075-12.615-3.247-25.168-7.11-38.16-8.555-12.248-.832-26.604-5.341-37.914-4.303-2.425.535-3.811 2.814-6.243 3.526zM1421 2502c39.427 1.123 79.498-2.51 116.341-17.737 4.268-1.73 8.784-3.29 12.231-6.472 5.544-5.508 2.455-17.117 3.428-25.465V2210c12.991-2.79 29.207-6.563 33-24.5-54.35-7.288-110.581-8.45-165-15.5zm35.01-1019.568c-1.204 12.08 11.948 24.308 22.884 22.152 10.95-1.74 18.655-12.346 17.792-23.314-.337-10.738-8.96-20.63-19.972-20.974-11.514-.452-21.364 11.01-20.704 22.136M1517 1336h2c13.623-204.329 27.648-408.72 42-613-3.425.714-3.223 6.57-4.1 9.114-18.973 97.01-35.296 194.786-41.963 293.516-8.591 103.353-4.887 207.032 2.063 310.37m30.038 156.26c-.762 10.586 10.14 23.578 22.093 21.56 10.265-1.5 16.92-12.809 16.422-22.483-.457-9.751-8.215-20.095-18.598-20.298-10.69-.891-20.018 11.361-19.917 21.221M1557 1350.5v1.5c43.782-1.406 87.635-1.225 131.445-2.203 43.85-.753 87.703-1.653 131.555-1.797-37.532-93.743-74.336-187.943-111.88-281.71-37.015-93.832-74.72-187.447-111.62-281.29-14.574 188.042-24.475 377.706-39.5 565.5m75.339 150.248c-.125 11.596 10.545 23.487 21.991 18.73 8.167-2.985 13.646-13.88 11.751-21.641-1.017-8.83-8.277-16.757-17.579-16.337-10.26 1.334-15.712 10.136-16.163 19.248" style="fill:#666;fill-rule:evenodd;stroke:none"/><path d="M2261 493c-.93-.1-1.769-.422-2.5-1-.963 6.836 2.468 13.936 2.62 20.786C2386.115 1262.51 2511.022 2012.278 2636 2762H364v-1.5c105.923-630.938 210.177-1262.203 315.792-1893.201l39.482-236.987c5.757-34.497 11.525-69.004 17.258-103.498 1.428-8.148 2.641-16.33 4.115-24.467 1.024-3.732.622-9.707 3.177-11.964 6.653-4.226 15.684-5.116 22.91-8.454 124.584-41.024 248.697-83.512 373.4-124.13 93.338-31.175 186.698-62.212 280.04-93.356 17.532-5.823 35.037-11.683 52.56-17.514 8.412-2.559 16.625-5.835 25.09-8.196 7.198-.78 16.157 4.767 24.311 6.468 122.86 40.958 245.735 81.942 368.6 122.87C2013.413 409.217 2136.418 449.665 2259 491c-.249-4.005-5.708-4.903-8.775-6.081-126.31-42.11-252.627-84.201-378.926-126.314-94.676-31.581-189.357-63.127-284.033-94.676-17.803-5.996-35.66-11.837-53.447-17.829q-12.495-4.149-24.981-8.312c-8.81-4.402-16.914-.077-24.036 2.778-124.839 41.583-249.672 83.255-374.503 124.83-62.485 20.856-125.002 41.656-187.48 62.504-31.195 10.357-62.366 20.81-93.553 31.171-15.652 5.283-31.321 10.403-46.969 15.67-7.84 2.581-15.644 5.24-23.47 7.816-3.88 1.314-7.777 2.57-11.645 3.904-1.844.888-4.65 1.64-5.507 3.305-.482 2.02-.862 2.76-2.675 3.234-123.737 750.515-250.27 1500.742-374.74 2251.166-.77 6.04-2.553 13.166-1.757 18.722 3.1 5.763 13.661 3.611 18.545 4.112h2221.964c9.179-.282 18.384.358 27.543-.227 10.043-.765 7.2-11.156 6.136-17.806-17.85-106.359-35.422-212.794-53.222-319.153-105.712-633.14-211.31-1266.303-316.578-1899.517-1.727-12.46-4.59-24.787-5.891-37.297m-674 1174.375c1.003 1.574 3.413 2.064 5 1.125-1.395-1.653-3.182-1.555-5-1.5z" style="fill:gray;fill-rule:evenodd;stroke:none"/><path d="M1559 723h2a44 44 0 0 0-.5-8c-.31 2.724-1.725 5.204-1.5 8" style="fill:#f5f5e5;fill-rule:evenodd;stroke:none"/><path d="M1518.5 1339c.63-.887.494-1.979.5-3h-2c-.127 1.378.583 2.218 1.5 3" style="fill:#cdcdc3;fill-rule:evenodd;stroke:none"/><path d="M1589 1668.313c.338.746 1.505.485 2.06.366l.94-.179c-.997-.171-1.99-.414-3-.5z" style="fill:#deded1;fill-rule:evenodd;stroke:none"/></svg>