<svg xmlns="http://www.w3.org/2000/svg" width="3000" height="3000"><path d="M448 2669h2104c-108.019-653.996-218.137-1307.761-326.618-1961.691-6.813-40.83-13.621-81.671-20.41-122.502-.9-5.185-1.732-10.375-2.627-15.558-.693-5.948-7.25-6.546-11.566-8.162a2264805 2264805 0 0 1-451.953-150.644c-56.522-18.824-113.032-37.715-169.56-56.514-12.477-4.17-24.972-8.31-37.44-12.486-6.015-1.98-11.998-4.026-18-6-5.943-1.873-12.256-5.247-18.565-3.023-92.812 30.91-185.585 61.892-278.396 92.78-138.737 46.826-278.12 92.047-416.698 139.266-3.665 1.962-2.298 9.57-3.876 12.727-22.4 134.514-44.811 269.006-67.243 403.502C635.746 1543.503 540.855 2106.166 448 2669m599-1622.625c1.483 1.958 4.62 3.388 6.5 5.625 15.525-9.604 31.213-19.149 45.916-30.06 7.683-5.383 15.156-11.04 22.486-16.879 3.78-2.767 7.266-5.892 10.862-8.877 3.574-2.628 7.194-6.963 11.236-7.184.826 2.84 1.861 7.103 3.305 9.102 3.65 1.487 7.79.588 11.595.898h46.1v116h-137c.938 4.214 2.651 8.233 3.569 12.453.9 2.915 1.504 5.904 2.744 8.693 1.218 4.65 10.2 1.939 13.246 2.854H1205v275.4c-.29 2.915.601 8.172-2.428 9.175-23.747 3.892-47.503 8.435-71.295 12.22-22.764 2.877-49.23 9.121-70.277 10.205.809 5.318 5.848 11.21 8.167 17.074 22.694 39.298 43.491 79.741 66.333 118.926 7.486-2.765 14.45-9.773 18.762-15.502 2.214-2.947 3.428-6.649 6.237-9.149 51.948-27.886 104.875-54.302 156.107-83.58 49.915-27.564 98.805-57.674 146.394-88.769-.169-3.014-.68-6.005-1-9-24.288 4.523-48.53 9.322-72.843 13.687-11.933 2.313-23.93 4.249-35.858 6.539-11.44 1.632-24.662 5.433-35.299 5.774v-263c44.364-.43 88.783.525 133.12-.284 4.598-.724 9.71-3.307 12.76-6.27 7.548-7.235-5.814-15.993-9.613-20.679-18.269-18.255-37.328-35.64-55.742-53.742-9.243-9.486-19.793-17.544-29.025-27.025-15.19 25.441-33.83 49.336-48.5 75h-3V999h96c8.868-.009 20.439-1.088 24.656-9.683 1.774-3.365-1.059-6.581-3.526-8.687-16.198-16.858-34.373-31.556-51.645-47.248-13.541-10.832-25.636-23.358-38.985-34.382-10.961 12.885-19.431 27.751-29.798 41.088-7.408 10.484-14.9 20.91-22.392 31.328-2.884 4.753-10.106 3.437-14.805 3.584H1160c.403-4.152 5.492-7.477 8.475-10.975C1217.615 915.137 1264.2 861.862 1298 801c4.825-.198 8.018 5.25 10.387 8.668 20.398 28.439 38.807 58.523 53.282 90.435 1.979 5.722 4.522 12.257 11.348 15.558 22.107 14.83 53.183 13.804 73.888-3.607 15.467-11.485 24.402-30.983 20.666-50.24-5.679-28.862-29.858-49.346-55.18-61.11-26.228-13.547-55.214-20.906-84.112-25.984-1.421-.234-2.858-.517-4.279-.72v-3c12.706-.01 24.593-7.105 30-18.5-52.317-16.474-104.355-34.575-156.5-51.5-12.636 63.5-34.754 124.89-59.754 184.468-24.583 56.43-52.507 112.334-90.746 160.907M1068 2495h823.8c9.193-.279 20.073.47 28.457-.572 6.694-1.418 15.346-3.995 17.787-10.613 1.454-2.853-3.067-5.861-4.56-7.711-18.166-15.694-37.007-30.529-55.732-45.525-18.06-14.855-36.349-29.942-55.252-43.579-13.958 17.354-27.117 35.39-40.894 52.881-5.096 6.657-10.303 13.233-15.271 19.975-2.41 2.839-4.519 5.93-6.944 8.75-2.684 2.816-6.8 2.387-10.474 2.394H1570c.685-4.938 7.91-7.933 11.869-11.544 33.548-25.21 65.254-52.763 95.233-82.058 15.473-14.51 29.757-30.082 43.794-45.914 3.472-3.909 6.696-8.021 10.165-11.923 5.433-6.406 15.001-3.71 22.153-6.882 6.856-2.53 14.147-8.942 15.786-15.679-46.61-9.812-92.434-23.894-139-34v-3h213c8.51-.461 18.848.907 26.454-1.337 3.344-1.074 6.78-2.458 9.1-5.22 5.809-6.386-.181-10.377-5.192-14.163-33.83-27.402-68.687-53.663-103.862-79.28-12.524 13.678-23.153 28.966-35.192 43.057-9.368 10.256-16.752 22.308-26.626 32.09-11.609 2.175-24.323-.184-36.17.853H1564v-59c12.634-1.325 31.881-6.868 33-24-53.61-4.5-107.389-7.453-161-12v95h-302c.565 8.269 5.066 15.802 6 24h98.4c14.345.443 28.767-.542 43.078.295 3.096.066 4.308 4.01 5.428 6.338 18.615 43.27 32.373 88.89 39.003 135.565 1.238 9.416 1.855 18.88 2.045 28.368-1.112 9.713 6.34 13.971 13.429 18.944 12.476 9.118 27.46 15.506 43.105 15.447 26.693.427 51.883-16.908 61.774-41.7 19.576-41.655-9.808-83.693-37.016-107.45-29.795-25.956-66.84-41.495-104.246-52.807v-3h298v1.5c-7.723 55.18-19.585 109.787-33.786 163.63-2.464 9.972-5.833 19.683-8.677 29.536-1.53 4.416-2.706 8.971-4.562 13.268-1.557 4.722-10.173 2.327-13.562 3.066H1062c.583 8.03 5.593 16.627 6 24m20-1313.75c9.14 39.277 12.878 80.503 13 120.898.235 15.643-.863 31.276-2.394 46.829-.666 6.295-3.02 14.37 1.413 18.481 7.783 8.305 18.392 17.295 28.68 20.193 20.374 6.415 41.752-4.212 53.327-21.048 19.239-26.615 16.497-62.948 4.484-91.599-11.491-28.438-31.649-52.648-55.203-71.928-6.625-5.475-13.302-10.874-20.336-15.813-3.518-2.597-7.091-5.21-10.902-7.364-3.06-2.05-7.133.233-11.002.977-.364.027-.708.073-1.067.124zM1111 2193c28.096.322 57.118 1.085 83.774-9.511 11.227-4.82 23.957-12.215 32.581-19.402 6.061-4.956 4.542-13.093 4.645-19.354V2123h283v2c-1.09 1.458-2.636 2.329-4 3.5 2.119 2.28 3.518 5.121 5.5 7.5 31.897-9.313 62.654-22.7 92.395-37.417 21.816-10.537 42.776-22.842 62.831-36.417 7.824-4.68 14.626-10.914 22.244-15.84 4.363-2.296 7.103 1.356 9.601 4.598 19.333 23.274 41.598 43.922 64.82 63.201 11.405 9.677 23.677 18.308 35.695 27.167 5.994 4.24 12.2 8.147 18.25 12.282 5.857 3.035 13.151 9.46 18.664 10.426 6.842-26.62 23.567-56.001 41.37-73.87 9.618-9.91 20.683-18.434 32.953-24.8 6.531-3.407 13.362-6.17 20.37-8.392 3.415-1.318 6.99-2.196 10.427-3.398 4.053-1.2 3.565-5.359 4.88-8.04-8.478-4.966-19.137-5.906-28.159-9.71-34.669-11.743-68.73-25.319-101.688-41.22-12.68-6.22-25.32-12.54-37.582-19.54-2.262-1.778-6.206-2.805-7.089-5.325 0-4.93 6.544-9.236 9.06-14.07 26.03-33.742 47.957-70.753 65.388-109.645 9.091-20.082 16.88-40.67 23.467-61.688 1.789-5.324 3.296-10.729 4.977-16.076 1.195-3.659 1.752-8.604 5.17-9.522 9.904-2.653 24.493-3.19 31.456-15.204-36.544-31.148-74.215-61.064-110.5-92.5-14.206 16.904-31.46 31.096-46.37 47.37-5.895 5.37-11.952 12.737-17.86 17.076-64.993 1.58-130.238-.287-195.27.554 1.393 8.2 5.61 15.762 7 24h23.4c3.056.088 8.024-.327 8.433 3.869 8.654 52.638 19.106 105.302 36.564 155.83 6.011 18.625 13.692 36.655 21.699 54.484 3.96 8.102 8.128 16.092 12.06 24.195 4.476 7.064-4.615 16.308-7.908 21.622-17.928 23.715-35.724 48.095-58.237 67.784-7.982 7.877-16.2 15.45-24.942 22.479-3.446 2.32-8.03 7.275-11.7 7.237-4.224.444-8.035-5.865-11.133-7.619-13.071-11.113-25.984-22.38-39.521-32.924-9.788-8.173-19.836-15.988-29.862-23.844-1.866-1.54-3.761-3.074-5.691-4.53-4.107-3.847-7.166-.417-9.475 3.492-9.326 12.414-18.589 24.863-27.906 37.268-4.747 6.147-9.251 12.485-14.01 18.618-2.346 3.024-4.843 6.779-7.333 9.27-2.212 2.922-8.523 1.099-11.438 1.769v-115h14v25c32.63 1.37 65.117-4.247 95.287-16.968 6.473-2.575 16.476-5.797 15.7-15.12.036-26.398-.006-52.776.013-79.162V1870c12.346-2.123 24.397-7.048 33-16.5-17.367-12.716-34.563-25.723-52.045-38.276-8.495-6.611-17.295-12.78-25.929-19.199-4.335-3.39-8.828-6.528-13.293-9.718-4.006-2.604-8.18-6.853-12.39-8.307-9.158 8.806-17.732 18.143-26.318 27.475-4.793 4.272-8.801 9.24-13.03 14.026-4.438 4.227-9.209 10.854-14.995 10.499v-88h117c11.205.101 26.474-.3 30.218-11.699 1.16-3.645-5.595-6.863-7.107-9.213-21.159-18.785-43.153-36.609-65.187-54.358-9.808-7.58-19.671-15.105-29.424-22.73-17.82 22.586-35.245 45.522-53.02 68.152-3.678 6.207-9.223 6.548-15.427 5.848h-70.778c-17.612-.031-35.186.038-52.79-.02-5.932-.161-11.347-3.03-16.864-4.892-40.719-14.498-80.85-30.846-121.621-45.088zm121-363h51v-88h-51zm0 130h178v-106h-178zm0 139h51v-115h-51zm97-737.5c.03.55.186 1.057.5 1.5 3.909 1.002 9.08 3.5 12 5 23.429-26.625 44.502-55.206 63.811-84.932 9.577-14.578 18.587-29.483 27.431-44.52 2.34-3.472 4.269-8.186 6.903-11.015 6.886-1.446 14.296-1.86 20.667-5.238 6.09-2.842 10.184-8.359 13.688-13.795-41.491-12.523-83.397-24.26-125-36.5-6.606 62.682-10.482 127.554-20 189.5m57 91.75c11.945 22.628 23.618 45.74 35.786 68.312 12.467 22.942 23.244 46.956 36.464 69.438 10.537-3.31 18.2-12.177 23.18-21.608 2.209-3.63 7.29-5.769 11.255-8.222 33.779-20.084 67.742-39.873 101.092-60.648 24.976-15.511 49.738-31.367 74.129-47.801 9.372-5.96 18.412-12.408 27.546-18.688 7.857-4.318 16.979-13.272 24.166-15.543 3.583 1.231 4.725 7.794 6.819 10.379 27.633 58.797 68.717 110.108 115.063 155.131 8.397-26.363 22.907-50.987 41.478-71.472 20.218-19.534 45.843-34.396 74.022-38.528.39-3.86 1.574-8.518-1.95-10.28-3.31-2.063-6.958-3.576-10.436-5.306-35.875-17.825-70.35-38.364-102.987-61.59-17.064-11.225-32.258-24.773-47.434-38.314-7.641-7.092-14.844-14.66-21.723-22.46-3.532-3.636-6.75-7.54-10.066-11.361-3.018-3.664-7.337-8.063-7.404-12.689 32.857-6.772 63.737-21.158 95.117-32.54 14.955-5.92 29.697-12.441 44.367-19.024 8.33-2.963 16.789 3.047 25.192 2.53 8.358.346 16.5-3.586 22.324-9.466-19.839-14.343-39.386-29.483-59.207-43.917-10.027-7.409-19.903-15.079-30.069-22.291-4.984-3.679-9.914-7.463-14.894-11.14-3.849-3.722-12.011-7.32-12.83-12.152 17.685-2.652 34.7-9.228 49.74-18.883 3.498-2.426 7.662-5.027 8.805-9.416 1.247-14.885-.185-29.95.455-44.868V809c6.949.141 15.04-1.885 20.85-4.429 5.235-2.974 13.613-6.005 15.15-11.571-20.5-12.67-39.117-29.272-59.205-42.772-19.396-14.463-39.109-28.51-58.295-43.228-18.294 20.691-32.789 44.875-51.258 65.32-23.883 1.94-48.217-.353-72.181.68h-54.403c-6.486-.326-14.279.528-20.156-.609-42.05-14.824-83.345-31.917-125.502-46.391v713c-31.085 3.914-61.919 10.077-93 14zM1593 937h168V798h-126c-13.58-.424-27.252.758-40.75-1-.301.49-.688.853-1.25 1zm0 167h168V961h-168zm0 315c39.84-5.509 79.246-14.842 119-21-31.782-86.67-48.719-178.168-57-270h-62zm156 321h-151c9.963 41.013 32.942 86.06 54.834 117.726 12.925 17.49 26.603 34.988 42.65 49.714 2.674 2.971 4.845-.92 5.55-3.112 8.245-17.668 14.695-36.06 20.866-54.512 11.529-35.827 22.073-72.432 27.1-109.816m67-574c-18.323 1.062-36.653 1.26-55 1v-39h-93c.465 10.713 5.401 22.673 7.488 32.165 10.127 35.048 23.942 68.982 41.839 100.765 4.831 7.143 8.557 15.03 13.785 21.9 2.08 2.16 3.877 6.973 6.948 6.607 14.787-16.14 27.544-39.291 39.32-55.49 13.056-22.344 28.584-44.076 38.62-67.947" style="fill:#fda;fill-rule:evenodd;stroke:none"/><path d="M338 2761.5c387.06 1.426 774.925-.26 1162.15.5 387.224-.76 774.71.926 1161.85-.5-77.265-456.459-152.125-914.01-228.874-1370.691-28.417-170.851-56.988-341.657-85.4-512.497-12.491-74.824-24.942-149.684-37.431-224.508-5.828-35.176-11.741-70.32-17.569-105.492-3.54-17.097-4.968-34.714-9.072-51.664-1.3-3.941-8.915-3.966-11.797-5.85-133.175-44.44-266.372-88.79-399.558-133.193-116.482-38.867-233.005-77.647-349.48-116.505-6.56-1.974-12.94-4.527-19.527-6.382-6.558-1.31-12.878 2.396-19.017 4.029-100.339 33.452-200.674 66.889-301.01 100.324-87.802 29.33-175.659 58.504-263.446 87.829-38.52 12.817-77.015 25.657-115.52 38.495-18.005 5.974-35.995 12.026-54 18-8.822 2.95-17.652 5.903-26.471 8.83-4.346 1.012-8.371 2.451-8.57 8.208-90.761 544.76-181.624 1089.514-272.367 1634.27-35.423 208.458-69 418.87-104.891 626.797m111-95v1.5h2102v-1.5c-63.81-378.768-126.215-757.87-189.705-1136.696-47.349-283.998-94.654-568.016-142-852-4.398-26.67-8.911-53.338-13.325-80.003-1.118-6.656-2.232-13.342-3.35-19.985-.571-3.586-1.119-7.183-2.096-10.662-1.288-2.958-6.82-3.128-9.193-4.54-101.51-33.828-203.017-67.663-304.512-101.514a746151 746151 0 0 1-266.522-88.84c-39.072-12.89-78.06-26.135-117.144-38.98-4.713-1.335-9.273 1.032-13.839 2.453-144.507 48.104-288.95 96.378-433.449 144.467-54.18 18.08-108.385 36.116-162.566 54.195-23.808 7.923-47.625 15.882-71.434 23.805-5.676 1.96-11.407 3.738-17.06 5.726-6.564 1.113-6.72 8.744-7.34 13.268C740.08 921.349 682.77 1265.54 625.383 1609.692 566.339 1961.663 508.308 2314.864 449 2666.5" style="fill:gray;fill-rule:evenodd;stroke:none"/><path d="M1045 1046.5c2.218 2.522 5.174 4.309 8.002 6.013 3.433-.444 6.83-2.99 9.501-4.52 28.219-17.083 54.893-36.6 79.997-57.993 2.338 3.958 1.758 10.396 8.315 9.957 16.216.123 32.43-.023 48.634.043H1204v114h-137c.84 7.346 4.313 15.56 5.853 22.12 1.246 4.862 7.114 3.687 10.712 3.88H1204v220.2c-.005 18.422.006 36.829-.003 55.24 1.333 8.805-8 8.125-13.217 8.9-43.551 8.523-88.331 14.376-131.78 22.16 23.319 46.598 52.011 90.776 75 137.5 8.219-2.16 14.546-8.507 19.919-14.694 2.568-2.834 3.884-6.528 6.189-9.518 5.584-5.432 13.75-7.374 20.226-11.463 48.834-26.069 98.338-50.949 146.275-78.675 46.882-25.887 92.65-54.522 137.391-83.65-.02-3.679-.552-7.357-1-11-48.16 7.561-95.775 18.844-144 26v-261c44.83-.85 89.858 1.037 134.637-.56 8.48-1.737 20.101-10.236 10.577-19.431-20.367-21.477-41.847-41.874-63.584-61.879-9.93-10.187-21.203-18.941-31.13-29.13-16.813 25.19-33.494 50.634-50 76-1.426-34.903.26-70.05-.5-105h66.6c11.201-.01 22.402.012 33.592-.006 9.838.583 20.061-4.828 22.808-14.603-15.845-15.681-32.273-30.727-49.031-45.413-8.61-7.32-16.786-15.101-25.343-22.471-4.228-3.627-8.226-7.543-12.576-11.032-3.587-3.069-8.058-8.473-12.05-9.475-8.551 14.322-19.889 27.561-28.99 41.671-7.31 10.342-14.756 20.61-22.078 30.935-2.997 5.226-8.315 4.496-13.628 4.394-39.012-.76-78.411.926-117.304-.5 52.135-51.515 102.512-106.857 138-171.5h1.5c17.698 21.759 32.04 46.196 45.901 70.502 5.452 9.707 10.278 19.828 14.848 29.955 3.148 10.087 9.728 14.999 18.687 18.522 30.948 16.389 75.945-.41 86.952-34.162 11.722-37.243-18.773-68.381-45.684-82.989-28.379-15.987-60.06-24.904-92.038-30.14A37 37 0 0 1 1325 772.5c11.298-2.534 26.78-5.344 30-21.5-53.673-14.186-105.353-36.607-159-51-11.276 63.777-34.995 124.755-59.254 184.468-24.957 56.72-52.771 113.454-91.746 162.032m15 1424c1.829 7.531 5.715 17.11 7 25.5h829.2c16.314.093 38.841 2.676 44.8-14.5-17.989-18.324-39.588-32.571-58.972-49.26-19.491-16.177-39.25-32.09-59.528-47.24-14.371 16.956-26.962 35.41-40.955 52.667-5.146 6.622-10.168 13.321-15.29 19.959-4.143 5.68-8.43 13.619-17.14 12.374-59.283-.76-118.956.926-178.115-.5 17.348-13.602 35.403-26.407 51.96-41.01 25.771-21.722 50.097-45.029 73.91-68.86 11.866-11.96 22.928-24.673 33.826-37.502 5.632-8.259 14.803-5.365 23.13-8.312 8.903-2.888 13.134-9.201 17.174-16.316-.458-.45-.911-.96-1.25-1.5-46.373-10.694-92.567-22.959-138.75-34.5 43.975-1.426 88.201.26 132.216-.5h66.548c11.008-.044 21.993.053 32.993-.029 9.499.423 18.665-5.197 21.243-14.502-36.765-31.23-75.872-59.642-114.5-88.469h-1.5c-3.805 8-12.708 15.11-17.002 22.003-10.036 12.721-20.3 25.22-30.455 37.838-3.77 4.64-7.42 9.363-11.346 13.866-3.572 4.71-11.356 2.92-16.492 3.293H1565v-57c7.48-.606 16.037-3.691 22.1-6.788 7.825-4.459 10.304-11.524 11.9-19.212-54.647-4.08-109.343-7.926-164-12v95h-303c1.794 8.789 5.38 17.184 7 26h99c14.311.618 28.733-.757 42.994.417 2.885-.063 3.893 4.8 5.076 6.586 18.53 43.559 32.597 89.368 38.97 136.353 1.23 9.402 1.699 18.879 1.934 28.357-1.085 8.51 8.179 14.209 14.269 18.38 24.7 18.831 62.095 20.956 86.32-.268 18.738-15.55 27.517-39.504 25.356-63.397-3.461-34.991-28.31-63.387-55.696-82.976-26.924-20.995-59.5-31.877-91.223-42.952 98.546-1.426 197.395.26 296-.5-7.923 55.141-19.597 109.775-33.908 163.597-2.517 9.993-5.807 19.746-8.72 29.617-1.52 4.225-2.828 9.427-4.634 13.134-1.734 4.544-10.676 1.6-13.925 2.652H1060zm27-1290.5c6.578 33.735 11.813 67.927 12.756 102.356 1.893 26.927-1.19 53.75-3.531 80.473.241 4.225 5.038 7.714 8.252 11.139 12.233 13.181 30.538 19.883 48.212 15.213 25.625-6.67 41.615-32.837 43.772-57.843 3.141-27.03-4.694-54.155-18.845-77.112-17.215-31.037-50.05-58.27-76.91-75.633-4.177-2.496-9.444 1.101-13.706 1.407m23 1014c28.4.165 57.78 1.389 84.814-9.151 11.449-4.707 24.316-12.19 33.137-19.38 6.413-4.947 5.082-13.261 5.049-19.736V2124c93.568.76 187.55-.926 281 .5-1.5 1.432-3.69 2.92-3.505 4.808.945 1.439 1.85 3.45 3.048 4.937a24.2 24.2 0 0 0 2.957 3.755c32.433-11.167 64.946-23.285 95.416-39.371 14.94-7.325 29.438-15.555 43.615-24.259 7.231-4.203 13.928-9.283 21.01-13.713 7.19-4.11 14.085-11.697 21.115-14.657 39.536 48.87 89.894 87.826 142.844 121 9.82-26.966 21.19-55.045 42.475-75.475 9.846-10.186 21.174-18.962 33.804-25.428 6.696-3.485 13.707-6.226 20.89-8.489 3.27-1.35 7.431-2.136 10.37-3.509 3.45-.927 2.966-7.108 3.961-9.599-59.289-21.438-121.5-40.977-175-75.5 28.242-35.565 53.46-73.918 71.893-115.607 10.188-21.003 18.14-42.987 25.502-65.093 2.08-5.594 3.593-11.375 5.365-17.062 2.034-2.714.994-9.537 4.858-11.141 11.202-3.806 25.418-2.78 33.382-16.597-37.8-30.712-74.677-63.738-113-93.5-14.906 16.178-31.332 31.227-46.602 47.102-5.922 5.372-11.967 12.757-17.863 17.14-16.23 2.095-33.112-.326-49.478.758H1544c2.316 8.735 6.067 17.138 8 26h19.8c3.156-.025 6.308-.12 9.406.46 2.828-.003 2.638 5.133 3.218 6.913 6.78 43.955 15.911 87.537 28.715 130.15 9.6 31.168 21.041 61.841 36.038 90.843 2.356 5.539 7.706 12.187 5.207 17.376-24.495 37.566-54.617 71.646-88.957 100.423-3.618 2.177-8.585 8.534-13.401 9.336-30.77-22.8-58.492-51.468-90.698-72.501-10.634 13.013-20.102 26.995-30.464 40.222-5.063 6.742-10.165 13.464-15.174 20.238-4.48 6.361-8.98 15.128-18.69 13.54v-113h12v25c17.322.425 34.757.575 51.74-3.44 11.714-2.255 23.146-5.67 34.426-9.46 8.445-3.233 17.706-5.707 24.935-11.404 3.483-5.89.947-15.165 1.899-21.585V1871c12.86-2.133 25.224-7.549 34-17.5-34.92-25.982-70.254-52.102-105.5-77.5-9.377 8.581-17.687 18.15-26.37 27.37-4.745 4.322-8.936 9.118-13.058 14.01-4.27 3.6-9.215 10.83-14.072 11.62v-86h119.4c10.72.066 24.412-.555 29.6-14.5-32.863-31.093-69.176-58.357-104.5-86.5-18.266 22.395-35.456 45.702-53.38 68.369-1.623 2.187-3.326 4.327-5.603 5.862-11.796 1.964-24.304-.17-36.256.769h-64.18c-14.754-.353-32.667 1.597-45.406-3.731-21.103-7.783-42.162-15.688-63.214-23.597-10.686-3.735-21.213-7.937-31.848-11.815-10.348-2.877-21.794-9.51-31.613-10.857zm123-365h49v-86h-49zm0 130h176v-104h-176zm0 139h49v-113h-49zm95-734c6.125.238 12.42 7.559 16.814 2.163 11.944-13.471 23.085-27.59 33.813-42.039 15.287-20.678 29.226-42.26 42.829-64.05 3.4-5.762 6.973-11.407 10.295-17.205 2.799-3.914 5.091-9.094 7.581-12.704 1.692-3.154 7.804-2.14 10.586-3.278 10.853-1.613 23.955-9.552 25.082-19.887-42.65-10.495-84.302-25.849-127-36-5.952 64.295-11.47 128.967-20 193m56 88.25c22.803 42.47 44.474 85.862 66.927 128.583 2.196 4.198 4.847 13.685 12.045 9.613 9.81-4.036 15.916-13.454 20.743-22.102 25.3-15.743 51.602-30.121 76.964-45.803 26.847-16.695 53.983-32.904 80.285-50.454 26.635-16.982 52.698-34.95 78.536-53.087 8.848 14.882 15.156 31.438 24.554 46.088 26.135 45.06 60.087 84.855 97.446 120.912 9.985-25.513 22.163-51.164 41.4-71.352 20.185-20.343 46.545-35.254 75.1-39.648.449-4.02 2.014-10.26-1.838-12.201-3.961-2.51-8.393-4.25-12.582-6.327-70.01-35.603-138.171-79.876-187.58-141.972v-1.5c33.21-6.784 64.327-21.468 96.052-32.874 15.214-5.808 29.904-12.986 44.95-19.114 4.138-1.124 8.992.9 12.685 1.688 11.525 2.743 29.855 1.535 33.313-10.7-39.51-27.589-77.83-58.176-117-86.5 19.313-5.207 44.944-11.723 57.669-26.463 2.808-8.312.298-17.676 1.331-26.231V810c13.227.193 29.424-6.39 37-16-39.642-30.121-80.428-59.38-120.5-89-16.694 22.082-33.443 44.455-50.757 66.066-11.747 2.327-24.303-.148-36.213.934h-87.279c-6.724-.278-14.695.407-20.822-.39-42.735-15.443-85.346-31.84-127.929-47.61-1.426 237.872.26 476.062-.5 714-31.442 3.709-62.536 10.453-94 14zM1594 936h166V799h-124.2c-13.04-.97-28.723 1.303-40.55-1-.301.49-.688.853-1.25 1zm0 167h166V962h-166zm0 315c38.945-7.189 78.22-13.503 117-21.5-33.601-85.18-47.534-176.891-57-267.5h-60zm5 323.5c18.806 62.288 50.894 121.384 98.5 166.5 12.775-25.767 21.64-53.808 30.418-81.194 8.201-28.213 15.345-56.794 20.082-85.806h-149zm138.5-452.5c28.769-38.502 55.103-79.394 77.25-122-18.23 1.187-36.498 1.147-54.75 1v-39h-91c5.726 29.389 16.078 57.894 27.059 85.658 11.272 26.003 24.227 51.721 41.441 74.342" style="fill:#000;fill-rule:evenodd;stroke:none"/></svg>