<svg xmlns="http://www.w3.org/2000/svg" width="3000" height="3000"><path d="M449 2666.5v1.5h2102v-1.5c-63.81-378.768-126.215-757.87-189.705-1136.696-47.349-283.998-94.654-568.016-142-852-4.398-26.67-8.911-53.338-13.325-80.003-1.118-6.656-2.232-13.342-3.35-19.985-.571-3.586-1.119-7.183-2.096-10.662-1.288-2.958-6.82-3.128-9.193-4.54-101.51-33.828-203.017-67.663-304.512-101.514a746151 746151 0 0 1-266.522-88.84c-39.072-12.89-78.06-26.135-117.144-38.98-4.713-1.335-9.273 1.032-13.839 2.453-144.507 48.104-288.95 96.378-433.449 144.467-54.18 18.08-108.385 36.116-162.566 54.195-23.808 7.923-47.625 15.882-71.434 23.805-5.676 1.96-11.407 3.738-17.06 5.726-6.564 1.113-6.72 8.744-7.34 13.268C740.08 921.349 682.77 1265.54 625.383 1609.692 566.339 1961.663 508.308 2314.864 449 2666.5m598-1620.125c1.639 2.403 4.53 3.562 6.5 5.625 15.525-9.649 31.327-19.019 45.948-30.076 7.612-5.52 15.271-10.962 22.55-16.92 3.678-2.842 7.232-5.811 10.867-8.696 3.435-2.793 7.105-7.072 11.135-7.308.826 2.84 1.861 7.103 3.305 9.102 3.65 1.487 7.79.588 11.595.898h46.1v116h-137c.938 4.214 2.651 8.233 3.569 12.453.9 2.915 1.504 5.904 2.744 8.693 1.218 4.65 10.2 1.939 13.246 2.854H1205v284c-23.66 4.41-47.492 8.123-71.187 12.36-11.573 2.04-23.205 3.805-34.809 5.641-12.291 1.508-26.628 4.784-38.004 4.999.748 5.692 5.995 11.941 8.703 17.998 22.418 39.03 43.08 79.174 65.797 118.002 7.486-2.765 14.45-9.773 18.762-15.502 2.214-2.947 3.428-6.649 6.237-9.149 51.873-27.858 104.731-54.21 155.888-83.454A2319 2319 0 0 0 1463 1385c-.169-3.014-.68-6.005-1-9-23.862 4.391-47.754 8.926-71.607 13.404-12.552 2.315-25.083 4.707-37.648 6.93-11.615 1.538-22.994 5.24-34.745 5.666v-263h118.8c10.947.275 24.624 1.459 31.2-12.5-30.839-33.77-65.688-63.756-98.5-95.5-8.057 12.266-16.297 24.612-24.173 37.02-4.233 6.276-8.377 12.613-12.606 18.886-3.433 6.338-9.647 12.745-11.721 19.094h-3V999h96.6c8.258-.114 20.028-.876 24.656-10.374 1.41-2.946-2.615-6.36-4.358-8.228-16.286-16.698-34.216-31.537-51.527-47.111-13.376-10.936-25.508-23.343-38.871-34.287-10.89 12.926-19.464 27.71-29.863 41.017-7.412 10.5-14.736 21.041-22.327 31.399-2.884 4.753-10.106 3.437-14.805 3.584H1160c.403-4.152 5.492-7.477 8.475-10.975 25.067-24.82 49.682-50.112 71.323-78.057 20.901-27.034 42.182-54.763 58.202-84.968 5.504-.108 7.71 5.575 10.401 8.87 20.745 28.5 39.062 59.023 53.66 91.134 4.476 13.341 17.734 20.127 30.717 23.693 23.993 5.759 50.165-4.434 65.162-23.727 11.06-14.11 13.381-33.846 6.347-50.211-9.608-25.643-33.336-41.865-57.129-52.695-24.868-11.88-51.765-18.906-78.87-23.344-1.432-.236-2.866-.51-4.288-.72v-3c12.73.31 24.545-7.357 30-18.5-52.468-16.543-104.46-35.14-157-51.5-11.637 63.7-34.639 124.848-59.254 184.468-24.582 56.428-52.522 112.329-90.746 160.907M1068 2495h823.8c9.446-.336 19.004.523 28.41-.56 6.772-1.084 16.522-4.325 17.96-11.03 1.23-2.91-3.835-5.745-5.064-7.735-36.591-29.765-73.004-60.32-110.606-88.675-13.792 17.543-27.359 35.292-40.972 52.977-5.175 6.613-10.26 13.247-15.396 19.882-2.267 2.952-4.377 6.046-6.837 8.83-2.737 2.797-6.885 2.259-10.588 2.311H1570c.685-4.938 7.91-7.933 11.869-11.544 33.522-25.398 65.576-52.797 95.501-82.326 15.582-14.626 29.984-30.33 44.106-46.307 3.574-3.975 6.823-8.211 10.428-12.155 4.712-5.237 15.132-2.767 22.205-6.354 6.377-2.883 14.003-8.619 14.891-15.314-46.61-9.812-92.434-23.894-139-34v-3h212.4c8.51-.506 18.85.893 26.494-1.159 3.435-1.016 6.833-2.516 9.302-5.19 6.418-6.385.31-10.714-4.992-14.485-33.398-27.764-68.643-53.694-103.704-79.166-12.46 13.89-23.426 29.106-35.523 43.3-9.084 10.31-16.702 22.014-26.296 31.847-11.602 2.172-24.327-.181-36.168.853H1564c.08-17.804-.097-35.585.053-53.384-.135-5.407 4.304-6.53 8.729-7.311 5.856-1.344 11.668-3.411 16.36-7.258 5.593-3.898 6.289-9.338 8.858-14.547-53.71-5.737-108.156-7.435-162-12.5v95h-302c.565 8.269 5.066 15.802 6 24h98.4c14.345.443 28.767-.542 43.078.295 3.088.072 4.318 4.004 5.423 6.335 17.948 43.592 33.187 89.009 38.944 136.03 1.256 9.402 1.921 18.833 2.092 28.312-1.334 9.253 7.99 14.715 13.446 18.537 12.476 9.12 27.46 15.507 43.105 15.448 27.33.483 52.758-17.678 62.372-43.126 8.746-18.462 5.738-43.303-1.952-59.881-11.672-27.748-35.338-48.208-59.865-64.277-23.854-15.268-55.114-27.672-80.043-34.673v-3h298c-7.237 55.312-19.413 110.03-33.547 163.955-2.845 9.793-5.498 19.627-8.667 29.317-1.447 4.785-2.637 9.675-4.638 14.277-1.52 5.011-10.041 2.93-13.735 3.451H1062c.955 8.211 5.05 15.784 6 24m20-1313.75c9.18 39.433 12.87 80.876 13 121.429.048 15.71-.868 31.43-2.483 47.053-.574 5.84-3.417 13.42 2.096 18.362 8.01 8.391 17.06 16.628 28.616 19.704 20.656 6.292 42.001-5.014 53.542-21.997 18.06-26.57 15.927-62.373 3.806-90.64-11.452-28.247-31.36-52.454-54.711-71.722-6.614-5.73-13.757-10.813-20.742-16.066-3.576-2.64-7.194-5.296-11.061-7.48-3.483-2.067-7.014.337-10.996.983-.364.027-.708.073-1.067.124zM1111 2193c28.096.322 57.118 1.085 83.774-9.511 11.227-4.82 23.957-12.215 32.581-19.402 6.061-4.956 4.542-13.093 4.645-19.354V2123h283v2c-1.09 1.458-2.636 2.329-4 3.5 2.394 2.464 3.827 5.569 5.5 8.5 61.286-21.865 122.172-48.406 174.168-88.387 8.114-7.628 13.167 2.595 17.917 8.302 37.128 43.245 83.421 77.31 130.915 108.085h1.5c2.028-14.033 10.818-28.786 16.164-40.321 9.958-19.053 24.268-35.667 41.27-48.73 8.514-6.325 17.824-11.663 27.678-15.584 5.146-1.982 10.38-3.79 15.675-5.33 2.434-.619 5.272-1.004 7.253-3.266 1.547-2.266 1.238-5.415 1.96-7.769-37.774-9.813-74.284-25.034-110.155-40.254-13.446-5.977-26.619-12.504-39.72-19.188-5.781-2.942-11.431-6.113-17.1-9.25-2.329-1.788-5.98-2.86-7.336-5.047-.983-5.044 6.773-10.148 8.636-14.167 25.622-33.526 47.546-70.043 64.867-108.539 9.167-20.09 17.03-40.69 23.708-61.737 1.842-5.284 3.553-10.619 5.024-16.016 1.696-2.723 1.112-8.888 4.488-10.628 10.61-4.053 24.836-2.296 32.588-15.674-36.711-30.963-73.853-61.48-110.5-92.5-14.965 16.174-30.583 31.707-46.233 47.233-5.913 5.38-11.974 12.755-17.875 17.13-64.957 1.816-130.354-.33-195.392.637 1.483 8.176 5.517 15.802 7 24h23.4c3.056.088 8.024-.327 8.433 3.869 8.494 53.053 19.121 106.012 36.91 156.828 6.478 18.52 13.426 37.02 21.974 54.703 3.467 7.96 7.42 15.66 11.576 23.26 4.166 6.703-4.267 15.536-7.59 20.428-17.66 23.874-35.543 48.264-57.994 67.962-8.08 7.991-16.24 15.831-25.265 22.765-3.597 2.327-8.103 7.757-11.958 7.685-4.276.45-8.17-5.777-11.24-7.694-13.05-11.2-26.191-22.262-39.66-32.948-9.744-8.138-19.75-15.918-29.733-23.745-1.866-1.54-3.761-3.074-5.691-4.53-4.107-3.847-7.166-.417-9.475 3.492-9.326 12.414-18.589 24.863-27.906 37.268-4.747 6.147-9.251 12.485-14.01 18.618-2.346 3.024-4.843 6.779-7.333 9.27-2.212 2.922-8.523 1.099-11.438 1.769v-115h14v25c32.562 1.408 64.945-4.275 95.097-16.847 6.123-2.78 16.317-5.561 15.879-14.64.068-26.602-.013-53.176.024-79.763V1870c12.346-2.123 24.397-7.048 33-16.5-34.784-24.673-68.236-51.894-103.656-75.5-9.2 8.833-17.832 18.229-26.446 27.602-4.704 4.256-8.82 9.048-12.903 13.859-4.39 4.288-9.237 10.868-14.995 10.539v-88h117.6c10.89-.181 26.236-.328 29.563-11.563 1.343-3.663-5.513-7.012-7.052-9.35-21.1-18.962-43.163-36.787-65.327-54.479-9.652-7.692-19.684-14.88-29.284-22.608-18.111 22.364-35.004 45.718-53.02 68.152-3.678 6.207-9.223 6.548-15.427 5.848h-70.778c-17.612-.031-35.186.038-52.79-.02-5.976-.15-11.428-3.082-16.982-4.933-40.603-14.669-80.838-30.656-121.503-45.047zm121-363h51v-88h-51zm0 130h178v-106h-178zm0 139h51v-115h-51zm109.5-731c37.43-43.155 69.99-91.055 97.5-141 12.428-.033 28.01-4.142 35-18.5-41.277-12.704-83.06-24.242-124.5-36.5-2.246 3.156-1.109 8.755-1.922 13.045-2.36 32.288-5.93 64.433-9.042 96.645-1.768 15.804-3.463 31.628-5.276 47.421-.73 8.058-2.095 16.063-2.779 24.12.172 3.438-2.089 9.093.923 10.112 3.073 1.942 7.446 2.664 10.096 4.657m44.5 85.25c11.97 22.294 23.066 45.408 35.396 67.567 11.026 23.786 25.158 46.185 35.604 70.183 10.974-1.776 19.81-12.963 24.215-21.22 2.121-3.868 7.34-6.135 11.47-8.61 34.45-20.103 68.771-40.381 102.64-61.423 24.542-15.455 48.904-31.178 73.01-47.32 9.523-6.068 18.699-12.595 27.984-18.984 4.216-2.676 8.222-5.63 12.3-8.502 3.675-2.257 7.651-6.061 11.403-6.384 5.914 6.323 8.2 15.995 12.906 23.278 26.904 53.758 65.828 100.404 108.572 142.165 8.69-26.43 22.867-51.215 41.754-71.723 20.175-19.486 45.662-34.075 73.746-38.277.39-3.86 1.574-8.518-1.95-10.28-3.306-2.096-6.977-3.503-10.383-5.395a737 737 0 0 1-103.864-62.194c-16.869-11.193-32.047-24.43-46.93-38.04-7.633-6.86-14.6-14.408-21.403-22.04-3.532-3.637-6.75-7.54-10.066-11.362-3.018-3.664-7.337-8.063-7.404-12.689 32.77-7.038 63.835-20.93 95.174-32.475 15.552-6.007 30.588-13.287 46.041-19.509 6.955-1.793 16.274 4.096 24.759 2.954 8.124.314 15.6-3.682 21.026-9.47-19.9-14.366-39.471-29.575-59.366-44.03-9.964-7.406-19.843-14.92-29.804-22.318-4.933-3.797-10.051-7.301-15.027-11.021-3.847-3.719-11.99-7.306-12.803-12.131 17.736-2.538 34.68-9.217 49.756-18.85 3.605-2.28 7.647-5.007 8.757-9.397 1.341-14.902-.205-30.02.487-44.964V809c6.914.173 14.909-1.91 20.73-4.295 5.345-2.847 13.623-6.27 15.27-11.705-20.396-12.72-39.114-29.093-59.03-42.737-19.49-14.39-39.25-28.52-58.47-43.263-18.926 20.248-32.486 45.916-51.88 65.534-24.175 1.329-48.544-.241-72.752.466h-54.4c-6.402-.247-14.104.582-19.838-1.005-41.76-14.697-82.812-31.55-124.63-45.995v713c-31.081 3.939-61.922 10.053-93 14zM1761 798h-168v121.8c.013 3.41-.016 6.84.01 10.243-.913 8.211 6.885 7.215 12.36 6.957h126.844c6.989-.004 13.968.005 20.942-.003 2.435-.044 6.82-.141 7.427-2.473 1.189-45.424-.216-91.067.417-136.524m-168 306h168V961h-168zm0 315c39.822-5.84 79.279-14.514 119-21-31.712-86.687-48.785-178.135-57-270h-62zm156 321h-151c10.95 41.935 30.823 81.794 54.834 117.726 12.83 17.5 26.587 34.806 42.476 49.627 2.843 3.03 5.004-.67 5.77-3.126 8.024-17.719 14.86-35.913 20.819-54.405 11.578-35.83 22.021-72.43 27.101-109.822m67-574c-18.323 1.062-36.653 1.26-55 1v-39h-93c.548 10.535 5.212 22.38 7.404 31.7 10.07 35.017 23.736 69 41.746 100.68 4.297 7.772 9.12 15.2 14.123 22.52 1.924 2.22 3.745 6.906 6.778 6.539 15.235-16.564 25.99-37.236 39.26-55.371 12.993-22.433 28.557-44.2 38.689-68.068" style="fill:#fedcaa;fill-rule:evenodd;stroke:none"/><path d="M1045 1046.5c1.907 2.559 4.78 4.042 7.33 5.746 3.048 1.066 7.231-2.994 9.748-3.989 28.29-17.249 55.284-36.665 80.422-58.257 2.338 3.958 1.758 10.396 8.315 9.957 16.216.123 32.43-.023 48.634.043H1204v114h-137c.84 7.346 4.313 15.56 5.853 22.12 1.246 4.862 7.114 3.687 10.712 3.88H1204v282c-48.415 8.658-97.071 17.029-145.75 24 12.46 22.602 25.166 45.492 37.717 68.13 12.096 23.522 26.727 46.005 38.033 69.87 8.219-2.16 14.546-8.507 19.919-14.694 2.568-2.834 3.884-6.528 6.189-9.518 5.584-5.432 13.75-7.374 20.226-11.463 48.703-25.58 97.602-50.82 145.352-78.165 47.101-26.206 93.37-54.701 138.314-84.16-.02-3.679-.552-7.357-1-11-48.143 7.45-95.813 18.792-144 26v-261c44.695-.686 89.489.836 134.138-.451 8.555-1.444 20.735-10.22 11.078-19.534-20.347-21.577-41.893-41.957-63.691-61.99-9.902-10.162-21.132-18.872-31.025-29.025-8.81 12.14-16.517 25.073-24.837 37.536-8.017 13.043-17.652 25.122-25.163 38.464-1.426-34.86.26-70.076-.5-105h96.6c7.975.04 19.605-.81 24.728-10.365 3.029-5.999-6.966-11.487-9.93-15.737-14.289-14.274-30.185-26.74-44.844-40.62-7.315-5.753-13.643-12.663-20.947-18.409-3.38-3.302-6.92-6.398-10.557-9.394-3.272-2.777-7.447-7.564-11.05-8.475-8.506 14.342-19.9 27.55-29.066 41.61-7.287 10.358-14.601 20.72-22.002 30.996-2.997 5.226-8.315 4.496-13.628 4.394-39.012-.76-78.411.926-117.304-.5 52.183-51.484 102.455-106.876 138-171.5h1.5c17.228 21.299 34.032 49.017 46.189 70.968 5.583 9.816 10.26 20.135 14.968 30.37 3.174 10.321 12.023 15.623 20.276 18.696 30.968 15.17 74.631-2.575 85.112-35.734 5.61-16.73 1.267-35.255-8.52-49.488-8.906-14.383-22.539-25.105-37.295-32.981-28.379-16.053-60.091-24.955-92.092-30.156-1.393-.313-2.79-.74-4.138-1.175l1.575-.5c10.661-.75 25.672-7.052 28.425-21-53.624-14.521-105.278-36.912-159-51-11.69 63.846-34.714 125.14-59.452 184.892-12.154 29.318-26.418 57.682-41.534 85.558-15.3 26.12-30.454 52.835-50.014 76.05m15 1424c2.491 8.104 5.443 17.866 7 25.5h828.6c16.478.013 39.383 2.872 45.4-14.5-18.018-17.928-39.04-32.542-58.453-48.846-19.74-16.198-39.523-32.483-60.047-47.654-14.104 17.228-27.335 35.232-41.044 52.773-5.269 6.548-10.19 13.33-15.407 19.905-4.038 5.863-8.298 13.714-17.143 12.322-59.196-.76-118.829.926-177.906-.5 17.548-13.664 35.61-26.69 52.391-41.326 25.78-21.865 50.188-45.255 74.084-69.149 11.874-12.128 23.095-24.88 34.027-37.846 5.52-7.097 15.67-4.37 23.21-7.7 7.646-2.538 12.861-8.666 16.288-15.979-45.737-13.947-93.898-22.659-140-36 43.975-1.426 88.201.26 132.216-.5h66.548c11.008-.044 21.993.053 32.993-.029 9.393.343 18.579-5.304 21.243-14.502-18.295-15.961-37.472-30.89-56.819-45.538-9.805-7.347-19.562-14.762-29.422-22.022-5.109-3.532-9.998-7.343-14.981-11.045-4.793-3.05-9.676-8.342-14.778-9.864-9.455 14.67-24.669 29.863-33.998 43-8.799 10.66-17.05 21.835-26.21 32.167-3.72 3.403-11.495.874-16.886 1.833H1565c.613-17.906-.748-35.974.404-53.832.178-4.275 8.077-4.131 10.664-5.453 11.909-2.214 21.867-11.23 22.932-23.715-54.65-4.11-109.335-8.011-164-12v95h-303c1.794 8.789 5.38 17.184 7 26h99c14.311.618 28.733-.757 42.994.417 2.878-.053 3.904 4.791 5.066 6.585 18.074 43.937 33.382 89.759 38.957 137.182 1.254 9.453 1.72 19.023 1.959 28.549-.534 8.15 9.08 13.348 14.669 17.64 25.233 19.027 63.577 20.549 87.455-1.992 17.546-15.576 26.698-39.6 23.76-62.898-3.993-34.787-28.645-62.904-56.057-82.352-27.043-20.215-59.038-32.215-90.803-42.631 98.563-1.426 197.387.26 296-.5-8.08 55.609-19.844 110.733-34.435 164.994-2.57 9.97-5.834 19.721-8.712 29.587-1.994 4.357-2.48 11.016-5.66 13.769-164.234 1.855-328.874-.338-493.193.65zm27-1290.5c6.843 34.286 11.858 69.086 12.8 104.1.447 13.894.235 27.787-.445 41.661-.282 11.51-2.069 22.878-3.227 34.297-.632 5.507 2.668 8.591 6.242 11.812 11.78 13.68 30 21.726 48.073 17.847 26.473-5.568 43.618-31.634 45.89-57.233 3.486-27.287-4.285-54.807-18.537-78.035-18.399-31.514-46.994-56.033-77.117-75.877-4.495-2.408-9.099 1.071-13.679 1.428m23 1014c28.4.165 57.78 1.389 84.814-9.151 11.449-4.707 24.316-12.19 33.137-19.38 6.413-4.947 5.082-13.261 5.049-19.736V2124c93.568.76 187.55-.926 281 .5-1.5 1.432-3.69 2.92-3.505 4.808 1.115 1.674 1.917 3.527 3.118 5.16.617 1.113 1.116 2.289 1.387 3.532 33.326-9.761 65.21-24.204 96.601-38.894 15.338-7.575 29.929-16.538 44.742-25.038 6.961-4.473 13.728-9.278 20.681-13.752 7.044-4.352 13.092-10.614 20.476-14.316 39.764 48.772 89.829 87.93 143 121 9.806-27.039 21.656-55.084 42.733-75.733 10.037-10.35 21.63-19.264 34.573-25.674 6.822-3.608 14.108-6.134 21.417-8.501 3.107-1.297 8.112-1.576 10.139-3.63 2.451-2.11 1.981-6.906 2.638-10.462-30.802-7.735-60.646-20.017-90.15-31.65-28.624-12.926-58.544-25.143-84.85-42.35 28.164-35.198 52.974-73.476 71.498-114.711 10.072-21.025 18.282-42.907 25.573-65.023 1.875-5.572 3.815-11.114 5.354-16.778 1.244-3.79 1.947-8.46 4.435-12.147 11.343-4.1 26.012-2.641 34.14-16.841-25.916-22.115-52.209-43.823-78.391-65.625-9.856-8.245-19.666-16.504-29.604-24.64-5.575-5.489-9.494.686-12.591 4.677-14.745 15.241-30.028 29.938-44.89 45.063-5.327 5.32-10.65 13.176-19.785 12.025H1544c2.463 8.682 5.934 17.196 8 26h19.8c3.156-.025 6.308-.12 9.406.46 2.828-.003 2.638 5.133 3.218 6.913 6.877 44.36 16.106 88.35 29.055 131.34 9.46 31.073 21.238 61.384 35.865 90.372 2.614 5.166 7.462 11.71 5.038 16.662-24.852 37.53-54.558 72.103-89.36 100.724-2.249 1.913-4.577 3.723-6.844 5.602-2.057 1.039-4.85 4.354-7.038 2.971-30.13-23.365-58.148-50.724-89.812-72.044-10.634 13.013-20.102 26.995-30.464 40.222-5.063 6.742-10.165 13.464-15.174 20.238-4.48 6.361-8.98 15.128-18.69 13.54v-113h12v25c17.455.36 35.068.565 52.18-3.533 11.888-2.306 23.48-5.848 34.947-9.672 7.94-2.918 17.849-6.109 23.974-11.099 3.482-5.889.948-15.166 1.899-21.585V1871c12.86-2.133 25.224-7.549 34-17.5-34.792-26.168-70.118-52.286-105.5-77.5-9.415 8.622-17.757 18.217-26.475 27.475-4.612 4.36-8.973 8.943-12.978 13.849-4.19 3.678-9.218 10.862-14.047 11.676v-86h120c10.334.67 24.44-1.506 29-14.5-32.864-31.09-69.174-58.36-104.5-86.5-18.45 22.236-35.277 45.85-53.38 68.369-1.623 2.187-3.326 4.327-5.603 5.862-11.796 1.964-24.304-.17-36.256.769h-64.18c-14.75-.358-32.672 1.602-45.403-3.734-21.11-7.893-42.253-15.639-63.317-23.636-10.567-4.042-21.197-7.917-31.818-11.805-10.333-2.868-21.745-9.485-31.543-10.825zm123-365h49v-86h-49zm0 130h176v-104h-176zm0 139h49v-113h-49zm95-734c4.71 1.02 9.004 3.732 13.745 4.51 10.677-8.625 18.363-21.72 27.567-31.984 25.926-34.432 50.15-70.701 70.688-108.526 12.42-1.191 30.74-3.357 35-21-42.074-12.17-84.675-24.151-126.5-37-2.837 7.739-.992 16.663-2.742 24.675-4.68 56.532-10.906 113.067-17.758 169.325m56 88.25c12.186 22.624 23.353 46.123 35.909 68.615 11.188 24.085 25.473 46.829 36.091 71.135 7.085.103 13.898-5.521 18.193-9.769 4.817-3.857 7.377-11.882 11.021-14.92 40.178-23.632 80.387-47.311 119.882-72.057 38.657-24.604 76.987-49.806 114.404-76.254 8.936 15.09 15.354 31.812 24.873 46.644 26.116 44.816 59.836 84.533 97.127 120.356 6.044-12.52 9.926-26.475 17.628-38.304 20.03-37.245 56.213-66.55 98.872-72.696.461-3.05.672-7.287 2-9.5-74.681-39.475-151.321-82.613-204-151v-1.5c33.104-7.164 64.521-21.14 96.166-32.878 15.637-5.864 30.556-13.642 46.21-19.38 8.488.645 17.36 4.86 26.288 3.128 6.835-.91 17.398-5.071 18.336-11.87-39.514-27.59-77.833-58.176-117-86.5 19.214-5.26 44.592-11.574 57.535-26.045 2.769-7.151.65-17.841 1.465-26.702V810c13.278.264 29.475-6.307 37-16-39.85-29.856-80.454-60.204-121-89-7.006 11.881-17.378 22.259-25.11 33.8-7.434 9.697-14.797 19.415-22.293 29.053-3.248 5.322-11.01 4.206-16.357 4.147h-122.013c-11.875.23-22.586-6.056-33.709-9.397C1547.061 749.616 1512.58 736.568 1478 724v714c-31.438 3.731-62.548 10.433-94 14zM1760 799h-166v119.646c.01 3.4-.014 6.785.009 10.172-.854 8.152 6.392 7.658 11.758 7.182h125.576c6.988-.005 13.956.006 20.932-.003 2.55-.016 7.303-.094 7.27-3.002 1.297-44.593-.235-89.359.455-133.995m-166 304h166V962h-166zm0 315h1.5c38.304-7.998 77.294-13.056 115.5-21.5-33.705-85.176-47.434-176.909-57-267.5h-60zm5 323.5c18.72 62.4 51.296 121.07 98.5 166.5 24.847-52.592 39.885-109.966 50.5-167h-149zm138.5-452.5c28.726-38.566 55.162-79.327 77.25-122-18.23 1.187-36.498 1.147-54.75 1v-39h-91c12.696 56.6 34.34 112.748 68.5 160" style="fill:#000;fill-rule:evenodd;stroke:none"/></svg>