<svg xmlns="http://www.w3.org/2000/svg" width="3000" height="3000"><path d="M364 2760.5v1.5h2272v-1.5c-68.931-409.09-136.257-818.54-204.874-1227.691-51.076-306.848-102.33-613.661-153.4-920.497-4.868-28.824-9.564-57.688-14.431-86.508-1.116-7.008-2.365-13.985-3.488-20.978-1.2-6.774-.246-15.245-9.425-16.859-109.868-36.632-219.702-73.24-329.563-109.867-95.996-32.013-192.02-63.992-288-96-41.993-13.978-83.98-28.011-125.966-41.994-5.663-2.605-10.407-1.693-15.513.621-156.173 52.06-312.354 104.114-468.521 156.173-58.68 19.531-117.334 39.097-175.992 58.657-25.668 8.506-51.298 17.139-76.962 25.643-6.176 2.075-12.369 4.11-18.537 6.195-3.02 1.124-6.483 1.813-8.8 4.255-62.934 375.423-125.132 751.075-187.889 1126.544C490.857 1998.664 428.048 2380.37 364 2760.5m646-449.875c2.642 2.139 5.436 5.412 8.5 6.375 21.626-16.375 44.757-30.996 65.114-49.097 10.356-9.18 21.19-17.843 31.28-27.297 4.85-4.792 9.565-9.705 14.571-14.326 4.412-3.44 9.337-11.714 14.535-12.28.051 58.592-1.098 117.332-8.3 175.537-1.782 14.023-3.95 27.998-7.743 41.632-4.55 17.717-11.198 42.564-36.88 39.831-11.152.29-22.293-.075-33.33-1.767-10.235-1.151-22.471-1.298-31.747-3.233.234 5.283-1.69 12.19 5.357 13.948 5.27 1.623 10.426 3.582 15.15 6.45 8.573 5.5 15.618 13.064 22.62 20.377 9.403 12.717 10.677 29.347 12.734 44.437 1.233 16.574 2.182 33.16 2.139 49.788 23.766-.898 47.922-2.425 70.739-9.753 15.567-4.271 29.956-11.917 41.617-23.153 16.803-17.932 26.534-41.211 35.36-63.737 8.46-23.766 13.213-48.595 17.147-73.432 10.43-65.892 12.694-132.761 11.995-199.362-3.167-97.729-7.587-197.149-35.044-291.733-6.495-22.342-14.988-44.137-24.568-65.32-1.61-3.686-4.59-8.674-1.365-12.742 19.718-24.468 38.91-49.366 56.768-75.23 8.889-12.61 17.386-25.438 25.639-38.458 1.765-3.229 4.191-6.408 8.607-5.561 11.288-.154 25.432-.622 32.105-14.519-25.856-10.018-49.825-24.655-75.456-35.266-24.908-11.232-49.036-25.084-74.544-34.734-7.491 38.675-22.465 75.507-34 113-4.558-1.038-7.95-7.64-12.17-10.986-25.706-29.637-56.349-54.265-87.33-78.014-2.83 2.91-6.573 4.715-9.5 7.5 17.659 24.598 31.472 51.845 45.067 78.803 9.49 21.095 18.736 42.33 25.684 64.432 2.818 8.27 6.999 17.532 2.598 25.934-24.295 54.394-52.193 107.621-87.349 155.831 2.49 2.893 4.612 6.152 7.688 8.5 18.71-11.389 36.171-25.045 53.517-38.424 8.679-7.165 17.18-14.529 25.726-21.839 9.31-5.908 15.053-17.6 25.069-20.737 1.244 16.727 6.616 36.118 5.893 51.614-7.51 57.733-23.41 114.367-44.767 168.441-10.244 26.978-22.712 53.044-36.058 78.596-12.684 24.16-27.818 47.61-43.068 69.974M1156 1106h251v25c27.646.482 55.266-4.998 80.505-16.288 5.582-2.833 14.415-6.498 15.24-12.03.727-22.706-.132-45.45.255-68.155V929c8.626-1.057 20.94-5.867 27-13.5-14.27-11.411-29.305-21.887-43.774-33.045-14.971-10.14-28.595-22.732-43.726-32.455l-29.602 29.602c-5.317 4.288-10.176 11.737-15.52 13.926-7.378 1.1-14.965.002-22.378.472v-66c9.42-.409 14.516-7.12 18-14.5-32.115-4.912-65.48-5.462-97.5-10.5-1.426 30.207.26 60.729-.5 91h-29v-66c7.391-.318 16.938-5.75 17-15-31.98-3.784-64.727-5.587-96.5-10-1.426 30.207.26 60.729-.5 91h-30v-97h331.2c12.518-.02 29.728 2.413 36.8-14.5-32.12-29.502-67.227-55.622-101.5-82.5-10.294 13.057-20.527 26.216-30.891 39.223-5 6.765-10.437 13.178-15.603 19.807-2.5 3.281-4.922 6.645-7.726 9.678-2.92 3.11-8.408 2.086-12.28 2.292v-89c9.15-2.133 19.515-3.631 26.264-10.987 2.443-3.048 6.589-8.228 4.753-11.794-3.985-2.208-10.29-.675-14.59-1.846-7.337-.66-14.703-1.25-22.045-1.834-13.423-1.313-26.882-1.855-40.29-3.336-26.386-1.797-52.697-4.597-79.092-6.203v125h-47.4c-11.515.76-22.14-3.937-32.593-8.13-30.961-12.066-62.828-22.202-93.507-34.87-1.556 116.442.489 233.22-.799 349.729-.598 86.34.646 172.76-4.853 258.955-4.479 60.408-11.53 120.98-29.602 179.041-2.797 10.7-6.958 20.994-10.271 31.505-.833 2.31.962 3.984 2.847 5.238 1.78 1.194 4.358 3.009 6.281 3.038 58.314-52.04 92.817-126.333 111.514-200.949 10.147-39.255 14.889-79.694 18.615-119.954 3.818-42.76 2.96-85.753 4.768-128.603m-41 340.25c22.301 40.09 45.338 80.346 67 120.75 8.706-.91 16.726-11.088 19.834-16.722 5.558-15.304 20.175-23.743 30.552-35.509 7.114-9.2 16.464-16.085 24.318-24.434 12.312-12.981 25.182-25.438 37.166-38.705 5.929-6.523 11.837-13.074 18.062-19.326 2.674-3.498 5.806-6.569 8.865-9.718 2.678-2.971 5.425-7.403 9.203-7.586-.053 15.963-.335 31.995 1.216 47.908 1.23 11.093 3.13 22.21 8.186 32.307 7.228 15.223 25.14 20.088 40.388 21.848 17.82 1.743 35.78.444 53.646.937 16.76.233 33.557-.817 49.956-4.38 19.653-3.752 46.844-14.346 52.073-40.823 1.936-11.842.22-25.557-9.206-34.023-3.817-4.04-8.686-6.697-13.666-8.984-6.784-2.166-5.773-9.559-6.06-15.345-.984-16.47-1.26-32.997-2.533-49.445-3.62.076-8.572-.722-10.451 3.5-1.638 3.73-2.627 7.718-4.317 11.425-3.137 8.984-6.716 17.776-10.072 26.67-2.924 7.384-6.902 16.326-12.643 21.113-6.446 4.661-15.052 2.923-22.423 3.292-6.452-.618-15.37 1.47-19.875-2.625-3.848-4.053-2.727-11.507-3.218-16.585-.003-42.604 0-85.196-.001-127.79 20.542-4.775 41.292-9.05 61.712-14.355 9.772-1.733 22.744-7.696 31.08-7.262 9.756 1.793 23.913 5.933 29.208-3.883-27.124-23.17-54.17-46.616-81.5-69.5-5.648 8.59-13.162 15.935-19.262 24.213-3.455 4.204-6.921 8.398-10.337 12.635-3.112 3.38-6.853 9.622-10.901 10.152v-68c11.463-1.913 27.738-7.963 30-24-40.432-2.219-80.555-8.93-121-11v116h-3c-9.31-14.273-24.113-29.276-34.5-41-4.012 4.46-6.448 11.318-9.656 15.74-2.343 5.298-7.527 11.643-8.844 16.26h-3v-58.2c.259-4.752-.405-10.457.437-14.756-.16-3.135 5.58-2.938 7.424-3.909 10.775-2.322 15.696-9.829 19.139-18.635-39.222-3.489-78.666-8.663-118-11.5v301c-21.66 3.884-43.158 9.153-65 12zm41-366.25h30V921h-30zm110 0h29V921h-29zm5 334c17.517-2.406 34.613-7.796 51.932-11.23 1.972-.694 5.559-.964 6.444-2.632 1.744-16.491-.288-33.367.624-49.935V1287h-59zm12 1159c29.043.302 59.672-2.019 85.012-17.939 10.354-6.418 26.526-14.393 24.988-30.404V2477h33v51c15.778.451 31.681.46 47.07-3.556 11.16-2.534 21.94-6.31 32.656-10.21 7.464-3.054 15.16-6.008 21.797-10.692 5.198-4.181 2.899-13.169 3.477-18.89V2222c4.908-1.108 9.787-2.58 14.348-4.709 4.29-1.383 9.05-5.612 12.652-6.291.036 89.21-.043 178.44.023 267.64-.556 7.177 5.444 6.569 10.927 6.36 19.126.124 38.465-3.11 56.083-10.643 11.606-6.026 27.49-13.289 32.192-24.048 1.842-11.503-.033-23.364.775-34.95V1911h32v695c34.562.781 70.973-.515 101.45-18.986 6.393-4.233 15.664-8.963 17.213-15.936.96-28.088-.174-56.263.337-84.375V2372c9.28.233 15.356 13.245 18.549 19.151 10.847 28.15 8.527 59.38 9.451 88.849 29.706-1.935 66.152-10.565 86.904-29.588 22.624-22.92 26.267-57.358 27.093-87.917.01-146.5-.002-292.998.003-439.495 10.4-2.17 24.691-7.375 29-16-29.188-20.141-57.163-43.287-85.961-64.228-3.65-2.537-7.056-5.425-10.733-7.901-3.352-2.863-7.134 1.13-9.359 3.963-8.88 10.847-18.604 20.937-27.443 31.814-5.081 4.232-9.19 13.146-15.199 14.093-7.413.642-14.89-.038-22.305.259v-124h144c13.654-.093 33.382.536 37.501-14.141.308-2.396-3.552-4.124-4.696-5.703-27.802-24.841-56.664-48.554-86.13-71.394-6.61-4.53-13.441-11.37-19.987-14.762-10.12 13.048-20.184 26.238-30.218 39.366-9.12 13.599-21.063 25.693-29.47 39.634h-286v1.5c1.712 5.146 3.052 10.406 4.6 15.59 1.348 3.503 1.668 9.443 5.908 9.57 13.467.963 27.047-.17 40.537.34H1690v124c-12.525.006-25.648 1.466-37.115-4.417-31.757-12.851-63.08-26.93-94.885-39.583v365h-2.5c-29.804-23.329-60.871-45.11-91-68-10.085 10.82-20.096 21.695-30.87 31.87-5.37 4.938-10.934 11.626-16.359 15.576-8.017 1.13-16.216.163-24.271.554v-119h33v25c31.008 1.318 61.813-4.928 90.14-17.683 5.63-2.835 15.178-5.341 14.84-13.867.056-24.601-.01-49.2.02-73.786V1841c10.162-.978 21.43-7.08 28-13.5-32.137-22.063-61.97-48.312-94.656-69.5-8.544 8.973-17.57 17.505-26.214 26.37-3.822 3.9-7.79 7.684-11.554 11.635-3.083 3.192-5.786 8.675-11.654 8.907-8.67-.19-21.375 2.267-28.426-6.12.2-3.567 6.687-5.94 8.106-8.894 23.133-20.317 44.627-42.338 65.568-64.883 4.84-5.91 10.482-11.146 15.028-17.302 3.589-4.292 6.92-8.818 10.554-13.07 2.463-3.377 7.237-3.63 10.985-4.354 10.334-2.553 25.124-8.413 26.263-22.289-53.121-4.361-105.898-13.383-159-18-2.685 44.979-5.253 90.216-11 135-6.35-.53-12.91-4.836-18.33-6.653-17.392-6.492-34.058-15.643-51.67-21.347zm92-1493h32V921h-32zm18 960h33v-209h-33zm0 410h33v-238h-33zm61-857c15.052-1.921 31.545-10.039 44.729-14.045 48.403-17.918 94.411-42.496 136.755-71.94 21.773-14.52 41.786-31.38 61.466-48.54 4.87-4.62 9.373-9.573 14.428-13.98 3.465-3.53 6.603-7.377 10.34-10.641 2.518-2.8 6.379-2.545 10.688-1.955 10.173.353 24.162-2.223 27.594-12.899-48.602-23.276-94.978-52.782-144-75-16.067 48.578-43.116 93.198-71.793 135.231-14.874 20.683-30.254 41.128-47.682 59.744-9.025 9.22-18.045 18.466-27.415 27.348-4.838 4.326-10.005 8.234-14.803 12.601-2.004 1.874-5.257 3.826-4.736 6.37 1.513 2.383 3.666 5.549 4.429 7.706m21-288.75c2.317 4.456 3.074 11.572 5.283 17.17.739 4.388 1.859 9.273 8.106 8.555 14.605.07 29.195-.012 43.788.025h299.854c50.158-.323 100.35.394 150.489-.213 5.68-.694 12.03-4.272 15.115-8.53 3.95-5.422-.171-9.57-3.22-13.004-21.32-25.619-45.287-48.776-68.915-72.253-9.689 12.089-15.426 27.276-25.5 39h-2V835h44.4c11.13-.32 22.307.448 33.416-.384 6.964-.39 14.798-3.02 18.457-9.483 3.356-5.937-1.246-9.737-4.657-14-10.45-12.242-21.43-24.015-32.591-35.608L1926.5 745c-9.81 12.898-16.498 28.333-26.5 41h-2V685c12.855-2.715 28.358-6.261 32-24-52.902-5.124-106.026-9.296-159-14v161h-80V685c7.173-.447 15.429-2.945 21.121-6.199 6.29-3.875 10.165-10.786 11.879-17.801-52.185-5.396-104.742-9.012-157-14v161c-26.264.76-52.81-.926-79 .5 3.607 8.357 4.897 17.919 8 26.5h71v469h-92zM1691 966h70.2c3-.122 9.14.542 9.365-3.044 1.24-25.748-.225-51.685.435-77.475V835h-80zm0 167h80V992h-80zm0 171h80v-144h-80zm63 60.25c38.971 52.24 77.51 107.127 99.945 169.212 2.93 8.6 5.972 17.146 8.437 25.886.665 3.536 2.111 7.588 4.88 9.106 11.15 6.727 25.457 13.59 37.61 14.419 20.567 2.336 41.883-6.63 55.604-22.05 14.271-16.266 18.9-38.954 15.532-59.916-8.22-43.889-42.885-77.491-80.442-98.031-39.428-22.741-84.44-33.641-128.772-41.765-2.164-.588-4.39-.473-6.583-.596-2.057.028-3.784 3.068-6.211 3.485zm55 987.75c8.114 1.277 18.3 1.288 25.746.306 9.026-2.782 6.954-13.945 7.254-21.045V1911h-33z" style="fill:#fedca9;fill-rule:evenodd;stroke:none"/><path d="M1008 2310.375c2.618 3.412 6.475 5.644 9.5 8.625 44.782-30.411 87.983-64.496 125-104 1.424 57.918-1.492 116.464-7.876 174.082-1.783 14.027-4.019 27.993-7.802 41.63-2.597 9.834-5.835 19.789-11.313 28.44-9.362 14.622-31.179 10.673-42.977 10.49-15.851-1.58-31.72-2.644-47.532-4.642.16 3.825-.295 8.375.404 11.832-.189 2.821 4.445 3.66 6.3 4.574a59.6 59.6 0 0 1 20.625 10.845c6.404 6.001 15.52 14.287 19.126 20.66 6.66 12.663 8.441 29.754 9.63 42.569 1.343 15.466 1.686 31.005 1.915 46.52 23.55-.542 47.338-2.279 70.075-8.893 15.836-4.2 30.723-11.268 42.729-22.599 17.639-16.72 28.386-43.937 36.516-64.038 8.617-23.911 13.46-48.888 17.432-73.9 10.083-62.442 12.651-125.8 12.248-188.946-1.718-93.224-6.678-187.237-27.945-278.384-5.219-21.59-11.815-42.861-19.969-63.522-3.034-7.862-6.271-15.65-9.57-23.397-2.642-6.034-8.063-12.263-1.499-18.348 31.121-36.806 57.679-77.065 84.483-116.973 5.894 1.269 14.37-.187 21.386-1.322 6.294-2.246 12.594-7.74 16.114-12.678-3.982-4.377-12.637-5.738-18.307-9.664-44.45-20.81-88.396-42.623-132.875-63.336-3.021 3.083-2.627 9.583-4.698 14.059-9.144 33.695-19.654 67.206-31.62 99.941-25.122-29.743-53.917-56.266-85.017-79.639-3.9-2.716-7.517-5.892-11.574-8.339-1.546-1.554-4.154.976-5.517 1.673-3.03 1.878-7.443 4.679-4.701 8.6 15.193 23.097 28.838 47.221 40.99 72.045 6.988 14.829 13.651 29.87 19.382 45.237 3.907 9.718 7.319 19.612 10.491 29.58.973 4.377 3.544 9.557 2.712 13.407-12.75 31.093-28.436 61.038-44.393 90.588-7.974 14.232-16.049 28.379-25.192 41.894-4.433 7.104-9.434 13.842-14.072 20.816-1.457 3.209-6.282 6.82-4.634 10.013 1.704 3.625 4.766 6.321 7.525 9.125 18.458-11.633 35.913-24.717 53.073-38.16A781 781 0 0 0 1126.5 1943c2.42 16.197 6.456 35.695 6.314 50.812-7.706 57.829-23.755 114.424-45.174 168.607-20.626 52.136-46.654 102.607-79.64 147.956m1-759.875c4.058 2.204 8.543 6.154 12.688 7.5 27.456-26.886 51.398-57.342 69.735-91.184 28.982-52.826 44.62-111.477 53.866-170.587 10.563-62.578 9.07-126.106 11.711-189.229h249v25c28.46.662 57-4.704 82.954-16.51 5.806-3.174 14.296-6.227 14.863-12.355.522-23.126-.095-46.286.183-69.405V930c10.191-1.045 22.17-7.11 28-14.5-14.318-12.08-30.108-22.405-44.774-34.045-15.189-10.682-29.492-22.965-44.726-33.455l-29.233 29.233c-5.062 4.508-10.128 10.886-15.168 14.556-6.236 2.471-15.514.355-22.099 1.211v-64c9.887-.508 16.608-7.942 18-17-33.324-3.324-66.733-6.23-100-10v91h-27v-64c10.557-.327 16.588-7.94 18-17-33.324-3.324-66.733-6.23-100-10v91h-28v-95h333c7.98.03 16.333.701 23.847-2.624 5.025-2.158 10.522-7.16 10.573-13.963-31.526-30.612-68.099-55.565-101.92-83.413-10.47 12.808-20.43 26.04-30.825 38.906-5.182 6.616-10.29 13.288-15.628 19.775-4.474 6.5-9.378 14.921-19.047 13.319v-87c13.254-2.645 30.174-5.965 33-25-53.236-4.596-106.658-9.429-160-13v125h-48c-11.431.441-21.644-5.521-32.201-8.912-31.407-10.821-62.254-23.82-93.799-34.088.067 142.2.149 284.357-.648 426.54.022 69.277-.627 138.566-6.567 207.601-5.898 64.034-15.94 129.498-39.785 189.359m173.5 18.5c8.164-3.49 16.078-8.802 20.057-17.202 5.639-15.087 19.44-23.912 30.167-35.25 7.051-8.757 17.05-17.357 24.33-24.473 23.559-25.592 48.847-49.615 71.446-76.075 1.764 22.166-1.26 45.322 5.098 67.113 2.37 7.317 4.69 15.164 10.04 20.958 9.717 9.946 24.227 12.707 37.391 14.24 22.611 1.424 45.352.238 67.985.526 21.211-1.345 43.268-3.641 62.436-13.594 11.686-5.686 21.39-16.074 24.478-28.885 2.191-9.796 1.449-22.33-2.615-30.625-3.146-6.483-10.068-11.99-15.78-14.946-4.997-2.193-10.475-4.17-9.626-11.456-1.13-18.434-1.686-36.904-2.907-55.331-4.311.145-10.747-1.207-12.804 4.209-1.675 4.716-3.312 9.433-5.156 14.072-3.323 8.465-6.363 17.005-9.728 25.45-2.766 6.97-6.842 15.359-12.559 19.543-6.633 4.027-14.95 2.285-22.251 2.726-6.088-.129-14.73 1.2-18.24-3.737-2.948-4.318-1.707-11.782-2.262-16.68V1285c21.02-4.995 42.361-9.142 63.223-14.796 9.578-1.614 22.526-7.993 30.716-6.208 10.037 2.429 24.142 4.141 29.061-5.496-27.552-24.138-55.72-47.63-83.5-71.5-12.691 16.236-25.95 32.064-39 48-1.417-21.842.25-44.086-.5-66 12.302-2.161 29.918-9.148 30-26-41.103-2.053-81.865-9.377-123-11v114.5l-.5 1.5c-4.88-7.653-12.64-15.424-17.788-21.956-2.964-3.813-6.342-7.233-9.644-10.74-2.868-3.078-6.47-8.396-10.068-9.304-5.408 11.188-12.58 22.021-18.5 33l-.5-1.733v-57c.205-4.54-.476-9.421.813-13.8 5.806-3.28 12.589-2.165 17.227-7.19 4.815-4.067 8.461-9.868 8.96-16.277-19.966-.922-39.787-4.144-59.716-5.585-19.73-2.843-40.274-3.001-59.784-6.415-1.426 100.54.26 201.401-.5 302-21.657 3.894-43.16 9.143-65 12 .819 4.879 5.325 10.411 7.738 15.68 20.614 35.861 39.714 72.756 60.762 108.32m-25.5-490h28V922h-28zm110 0h27V922h-27zm5 334h1.5c11.622-3.322 23.663-4.972 35.315-8.193a240 240 0 0 0 12.592-2.92c1.96-.516 4.025-.814 5.884-1.574 2.899-2.084.989-8.3 1.709-11.072V1288h-57zm10 1161c29.417.433 60.513-1.586 86.312-17.527 10.19-6.473 26.933-14.227 25.688-30.216V2478h31v51c16.069.387 32.238.586 47.951-3.289 11.303-2.638 22.327-6.292 33.205-10.269 7.642-2.979 16.72-6.72 22.784-11.26 4.896-4.615 2.244-13.815 3.06-19.73V2223c8.36-2.066 18.633-5.34 24.5-11 1.426 48.497-.26 97.416.5 145.988v109.679c.007 3.609-.008 7.194.005 10.792-.947 8.966 6.642 7.858 13.32 7.541 22.661.094 45.87-4.435 65.708-15.729 6.941-3.863 13.942-7.818 19.138-13.988 5.48-5.497 3.345-15.663 3.829-22.538V1912h30v695c35.194.749 72.363-.15 103.45-18.986 6.565-4.262 16.122-9.228 17.308-16.518.69-28.508-.125-57.08.242-85.59V2373h1.5c15.7 11.001 20.184 30.98 22.099 48.741 2.096 19.672 2.51 39.486 2.401 59.259 16.31-.505 32.52-4.19 48.237-8.22 21.427-5.76 42.956-18.154 53.64-38.387 11.143-20.809 13.255-49.19 14.117-70.297.017-146.702-.003-293.397.006-440.096 10.923-1.6 23.702-7.865 30-16-33.24-26.995-69.006-51.246-102.5-78-8.907 12.175-20.27 22.748-29.683 34.586-5.33 5.501-9.709 11.875-15.241 17.16-3.272 2.77-7.771 2.234-11.823 2.254H1810v-122h145.2c12.965-.26 31.379 1.337 37.8-16.5-36.6-32.076-74.094-64.02-113.5-92.5-19.703 26.833-41.752 52.635-60.5 80h-286c.624 8.287 4.313 16.096 6.093 24.154 1.188 5.29 6.772 5.063 10.877 4.846H1689v122c-12.548.633-25.3 1.044-36.624-5.037-15.854-6.536-31.633-13.263-47.427-19.926-8.079-3.285-16.093-6.783-24.15-10.114-7.83-2.327-16.274-8.047-23.799-8.923-.76 121.568.926 243.55-.5 365-30.008-23.834-61.822-45.383-92-69-10.157 10.75-20.024 21.764-30.87 31.87-5.432 4.987-10.17 10.74-15.834 15.456-2.757 2.248-7.708 1.501-11.637 1.674H1394v-117h31v25c16.295.198 32.75.317 48.658-3.705 11.246-2.489 22.266-5.952 33.116-9.806 7.559-3.269 15.767-5.71 22.48-10.666 4.382-4.333 2.025-13.394 2.746-19.97V1842c5.579-.367 11.703-3.262 16.345-5.181 4.594-2.46 11.22-5.744 11.655-10.819-32.63-21.556-62.732-48.522-95.5-70l-34.102 34.102c-6.174 5.683-10.521 14.721-18.837 13.894-8.393.447-17.739.467-24.561-5.496 25.235-20.832 47.524-44.772 70.232-68.233 11.091-11.61 21.329-24.352 31.208-36.896 13.765-3.54 31.618-5.342 36.56-24.84-2.82-1.995-6.645-1.35-9.89-2.02-50.773-5.063-101.297-13.116-152.11-17.511-2.685 44.979-5.253 90.216-11 135-23.738-8.439-46.164-20.84-70-29zm94-1495h30V922h-30zm18 960h31v-207h-31zm0 410h31v-236h-31zm60.5-854c57.807-16.575 113.357-41.524 163.54-74.68 25.26-15.597 48.618-34.177 71.316-53.226 11.212-10.18 22.067-20.654 32.596-31.53 4.94-4.868 15.04-.928 22.798-3.372 6.894-1.298 14.068-6.739 17.25-12.192-4.815-5.192-12.389-6.805-18.126-10.644-42.381-22.372-84.608-45.13-127.053-67.356-3.663 4.083-4.636 12.088-7.587 17.74-17.778 42.941-40.82 83.631-68.01 121.305-26.385 38.254-57.754 73.16-94.224 101.955.97 3.88 5.072 7.989 7.5 12m469.5-361c-2.55 7.326-8.441 13.111-11.747 20.093-4.598 6.4-7.96 13.663-12.753 19.907-1.426-145.804.26-292.101-.5-438h44.4c11.13-.32 22.307.448 33.416-.384 7.002-.376 14.753-3.038 18.478-9.466 3.928-5.654.711-10.2-3.322-14.42-10.611-12.33-21.354-24.572-32.842-36.1L1926.5 743c-10.127 13.17-17.41 28.474-27 42-1.426-32.831.26-66.092-.5-99 12.935-2.757 30.385-6.91 32-26-53.58-4.81-107.337-9.84-161-14v161h-78V686c13.74-1.286 31.458-6.505 33-26-52.89-5.068-106.03-9.573-159-14v161h-79v1.5c2.87 9.098 5.3 18.366 8 27.5h71v467h-92c1.706 8.342 5.085 18.008 7.269 25.493 1.785 4.181 10.16 1.613 13.32 2.507h466.98c11.516-.178 24.782 2.097 34.417-5.84 2.232-2.196 6.781-8.058 4.648-10.633-7.932-11.954-18.636-22.059-28.236-32.63-9.83-10.584-19.614-21.192-30.13-31.13-6.523-4.962-11.892-13.952-18.268-16.767m-232-269h68.4c2.944-.122 8.947.49 9.146-3.006 1.295-24.947-.236-50.08.454-75.066V836h-78zm0 167h78V993h-78zm0 171h78v-142h-78zm60 61.625c21.202 28.032 43.131 56.191 60.443 87.015 14.24 23.667 26.811 48.407 37.03 74.074 3.882 9.935 7.503 19.996 10.641 30.187 1.69 4.345 2.1 10.6 5.071 12.716 13.898 9.503 30.27 15.601 47.17 15.792 25.197-.468 49.66-15.707 59.55-39.214 10.786-24.129 6.67-52.908-5.576-75.509-17.114-35.071-50.309-58.52-84.14-75.608-36.764-17.408-76.559-27.274-116.436-34.34-2.366.148-6.023-1.204-7.693.321-2.19.939-4.178 2.93-6.06 3.941zM1810 2351c7.345 1.274 18.03 1.336 24.077.169 8.424-2.987 6.701-13.319 6.923-19.71V1912h-31z" style="fill:#000;fill-rule:evenodd;stroke:none"/></svg>