<svg xmlns="http://www.w3.org/2000/svg" width="3000" height="3000"><path d="M363 2763h2274c-116.777-706.336-235.544-1412.426-352.792-2118.701-7.351-44.171-14.733-88.332-22.082-132.49-.76-5.347-1.88-10.63-2.64-15.97-.062-6.502-4.856-8.386-10.16-9.572-81.497-27.15-162.975-54.317-244.46-81.467-142.336-47.478-284.708-94.881-427.04-142.357-13.532-4.49-27.037-9.017-40.56-13.514-6.477-2.17-12.972-4.309-19.44-6.486-6.235-1.594-13.427-5.493-19.495-5.034-100.387 32.434-200.209 66.92-300.466 99.791-150.35 50.002-300.828 99.614-451.039 150.05-5.982 1.452-6.275 6.662-6.798 11.742-24.43 146.388-48.84 292.799-73.214 439.189C565.92 1546.494 463.462 2154.662 363 2763m659-1653.5c1.25 4.629 3.271 9.013 4.557 13.657 1.23 3.244 1.771 7.446 3.53 10.162.52 2.196 4.918 2.216 7.316 2.595 8.971.217 17.963-.016 26.927.086h101.749c4.67-.115 11.788-.97 12.666 6.255-.321 83.72-7.673 168.256-31.304 248.916-22.59 75.25-64.43 145.186-123.441 197.497 1.666 5.417 5.584 6.665 9.715 4.624 22.103-9.37 44.106-19.244 64.973-31.18 70.898-39.836 130.496-101.42 164.993-175.452 37.147-77.875 49.985-165.106 51.319-250.66h84v459c20.612.206 41.425.394 61.598-4.45 14.536-3.116 28.438-8.323 42.091-14.037 9.733-4.159 18.996-9.33 27.453-15.692 3.03-2.264 6.526-5.52 7.363-9.033 1.41-31.893-.256-64.007.495-95.931v-302.592c.819-5.95-1.318-13.736 1.5-18.265 22.047 2.448 44.39-.115 66.5 1 6.618 67.864 15.635 136.26 35.634 201.684 14.096 46.587 35.642 91.075 64.235 130.513 21.21 29.326 47.87 54.711 78.13 74.555 22.262 15.278 46.881 26.993 71.196 38.508 20.05 8.169 41.192 14.925 63.098 14.562 15.819-.69 32.249-3.539 44.78-14.14 8.635-6.642 15.757-18.029 19.198-27.236 6.332-17.968-.902-36.557-9.682-52.158-4.263-7.3-9.262-14.189-14.17-21.048-2.195-3.048-6.147-6.47-5.741-10.663.388-4.506.314-9.032.467-13.535 1.47-35.35 4.137-70.665 4.855-106.042h-8c-9.767 29.985-20.015 60.13-34.186 88.375-2.378 5.083-5.08 10.727-12.55 11.286-11.11.713-23.229-5.63-32.155-9.616-34.49-15.594-61.812-43.862-80.83-76.102-19.442-32.957-32.992-69.64-41.279-106.943 4.43.03 7.183 4.005 10.532 6.394 23.83 21.941 46.669 45.236 65.06 72.089 6.629 9.958 13.143 20.126 18.026 31.087 1.691 6.575 4.345 9.282 10.515 10.63 19.306 7.303 43.155 6.517 59.192-8.153 11.395-9.66 19.027-23.79 18.787-39.016.806-22.05-11.274-44.34-28.479-58.11-17.178-13.741-37.918-23.923-59.633-27.921.655-4.501 7.602-6.518 11.518-9.237 16.173-8.931 31.96-18.528 47.808-28.014 3.914-2.531 7.802-5.098 11.864-7.363 7.054-2.979 14.659 1.185 22.154-1.07 6.9-.681 12.477-4.74 16.656-9.816-20.274-9.684-39.735-21.275-59.8-31.412-10.213-5.136-20.022-10.98-30.236-16.107-5.076-2.522-9.882-5.497-14.965-7.978-4.266-2.516-11.315-3.788-10.999-11.003 33.061 8.954 77.153 28.275 116.424 4.034 15.558-10.914 26.78-29.187 25.565-48.623-.664-19.316-13.106-35.653-24.485-50.055-2.577-4.205-8.182-6.826-9.028-11.04 1.285-36.384 3.691-72.879 4.524-109.316-2.652-.435-5.315-.918-8-1-9.05 28.016-18.515 56.388-33.105 82.126-2.392 4.816-6.109 9.658-11.588 11.092-10.638 2.072-22.572-4.468-31.62-6.845-33.834-12.466-63.493-35.944-83.754-65.795-20.145-28.991-36.74-68.585-41.933-100.578 5.415.6 10.25 6.925 15.323 10.235 16.891 14.655 32.554 30.83 47.156 47.741 13.374 16.42 25.977 34.109 33.521 54.024 10.769 1.98 21.537 7.099 32.837 5.247 16.387-1.226 31.83-10.518 41.123-23.926 9.436-13.463 12.223-30.95 7.034-46.645-9.872-29.92-39.664-47.663-68.477-55.1A159 159 0 0 0 1839 816v-3c17.937-4.919 35.128-12.806 52.708-18.877 8.813-3.607 17.53-9.204 27.255-6.78 8.374 1.73 19.104 1.7 26.037-6.843-18.252-14.24-37.827-26.818-56.366-40.668-9.553-6.67-19.044-13.434-28.51-20.227-4.732-3.548-9.673-6.752-14.394-10.292-4.537-2.963-10.301-8.107-14.73-9.313-2.766 13.528-9.001 26.168-13.464 39.16-7.517 19.623-15.295 39.128-23.814 58.329-2.474 3.553-3.958 11.727-8.15 12.246-8.194 1.101-16.523.709-24.734 1.423-8.272.634-16.538 1.816-24.838 1.842-1.486-15.91-5.641-31.541-6.313-47.577.187-1.64-.548-4.277.449-5.356 12.114-3.704 26.194-5.018 35.864-14.567V744c-40.612-26.254-78.976-57.503-119.5-84-7.269 7.87-15.788 17.106-22.453 24.324-6.734 7.84-14.18 15.01-21.068 22.706-3.082 3.93-6.948 7.14-10.15 10.956-1.327 1.992-3.046 3.59-4.942 5-167.226.041-336.283-.009-503.887.014 1.355 9.326 5.84 17.89 8 27h495.6c5.999-.05 15.009-1.971 14.535 7.161 5.62 49.422 14.637 98.739 30.421 146.01 21.766 66.39 61.384 128.532 117.412 171.063 13.59 9.9 27.718 19.163 42.572 27.037 5.876 2.76 11.449 6.121 17.36 8.766 4.49 2.487 12.572 3.89 11.707 10.778-2.894 21.129-9.12 41.616-13.44 62.451-2.502 10.317-5.208 20.57-7.703 30.887-1.421 5.163-2.976 10.276-4.141 15.497-.654 2.107-1.165 4.924-2.617 6.441-2.287 1.315-4.471.427-6.206-1.091-6.606 2.978-14.194 1.689-21.34 2H1744c-2.746-21.729-7.066-43.32-8.27-65.253-.438-6.044-.623-12.128-1.158-18.16-.02-2.016-.23-4.876 1.005-5.957 12.27-3.732 27.76-5.109 36.423-16.13-39.99-28.805-78.962-59.83-119.656-87.5-15.981 16.167-29.996 34.141-46.014 50.267-3.764 4.359-7.366 8.862-11.838 12.553-3.84 3.044-9.104 1.956-13.701 2.18H1538V813c12.988-.734 31.42-7.28 33-24-57.286-5.602-114.732-10.31-172-16v70h-2c-41.066-22.882-81.617-46.847-122.5-70-17.312 21.76-35.47 42.518-56.201 60.935-14.368 15.13-29.246 29.908-45.651 43.038-46.675 39.257-95.829 77.1-149.648 106.027.833 2.893 2.532 6.712 3.5 9 25.4-6.615 51.718-10.759 77.003-18.115 12.488-3.093 24.907-6.379 37.253-9.958 11.91-2.36 25.148-8.775 36.244-9.927v155h-155zm7 1098.5h390v397c22.73-.01 45.784.267 68.004-5.249 15.614-4.115 30.954-9.607 45.548-16.54 10.224-5.199 20.23-10.909 29.218-18.061 3.274-2.501 6.918-5.972 8.634-9.378 2.845-8.187.879-17.277 1.596-25.736V2208h367.2c14.746.21 34.706.803 40.8-14.656-47.595-40.257-97.713-78.025-147.5-115.344-15.24 18.433-29.817 37.459-44.663 56.213-11.265 13.862-21.944 28.166-33.235 42.006-4.008 6.457-13.766 4.651-20.135 4.781H1572v-246h282c11.76-.257 23.558.343 35.309-.26 8.958-.521 20.686-4.274 22.205-13.974-21.909-21.618-48.008-38.984-71.548-58.764-24.5-18.201-48.465-38.106-72.966-56.002-21.973 30.947-47.332 60.389-69.995 91.03-2.856 3.64-5.984 8.209-9.21 10.997-9.087 2.275-19.484-.005-28.86.973H1572v-215c8.064-1.976 18.115-3.607 24.477-8.166 7.75-4.934 10.053-11.78 12.523-19.334-63.33-5.163-126.608-12.73-190-17.5v260h-148c.42-5.34 5.947-10.896 8.605-16.472 23.255-38.949 44.214-79.538 61.395-121.528 14.11-1.48 34.53-2.753 41-20.5-65.057-20.918-131.501-38.507-196.5-59.5-7.275 38.189-13.923 77.005-23.689 114.776-13.81 55.098-31.071 109.246-51.063 162.408-20.636 52.333-42.974 104.44-72.748 152.316 2.789 1.55 7.1 6.046 9.883 4.523 3.696-1.807 6.929-4.374 10.412-6.533 58.905-35.857 109.424-83.826 155.198-134.865 11.106-13.356 22.204-26.709 32.215-40.9 1.952-2.215 4.039-6.054 6.324-7.183 55.529-1.545 111.379.28 166.968-.542v246h-397c1.3 9.202 5.895 17.729 7 27m221-1279.5v1.5c33.269 3.22 66.63 6.828 100 9-1.318 16.784-16.69 23.208-30.822 25.117-6.244.412-3.448 11.49-4.178 15.266V1109h84V874c-7.39.135-14.769.002-22.102-.871-11.92-2.488-21.776 5.843-31.958 10.947-30.405 16.744-62.634 30.418-94.94 42.924zm585 195.5v-3c-3.387-.79-6.635-3.57-11-3 .053 4.252 4.023 5.91 7.639 5.959 1.12.062 2.24.034 3.361.041" style="fill:#fda;fill-rule:evenodd;stroke:none"/><path d="M244 2863.5c418.26 1.426 837.325-.26 1255.75.5 418.681-.76 837.643.926 1256.25-.5-137.483-816.352-271.828-1633.965-409-2450.5-141.513-45.746-282.358-94.352-423.703-140.74-105.839-35.248-211.646-70.575-317.47-105.817l-60-20a8496 8496 0 0 1-28.008-9.343c-4.68-1.543-9.347-3.083-13.982-4.729-5.086-2.015-9.193.742-14.014 2.193-139.528 46.49-279.049 93.006-418.557 139.507C931.703 319.858 792.72 367.853 653 413c-137.126 816.275-271.612 1634.71-409 2450.5m120-103v1.5h2272v-1.5c-68.931-409.09-136.257-818.54-204.874-1227.691-51.028-306.678-102.288-613.313-153.312-919.99-4.869-28.835-9.565-57.678-14.432-86.51-1.133-7.012-2.351-14.007-3.495-21.008-1.484-6.504-.056-15.285-8.94-17.157-109.703-36.573-219.416-73.135-329.12-109.701-96.009-31.978-191.992-64.023-288-96-41.971-14.027-84.002-27.963-125.969-41.994-9.552-4.304-21.398 2.4-30.56 4.946-155.047 51.948-310.255 103.285-465.433 154.805-58.187 19.4-116.394 38.801-174.566 58.195-25.476 8.525-51.019 16.959-76.48 25.505-5.454 2.642-13.186 3.29-17.14 6.618-2.1 1.795-1.737 5.77-2.555 8.884-62.19 372.917-124.31 745.877-186.485 1118.792C490.857 1998.664 428.048 2380.37 364 2760.5" style="fill:gray;fill-rule:evenodd;stroke:none"/><path d="M1417 2208.25c1.495 3.83.78 8.153 1 12.234V2606h30v-2h-28v-396h-3z" style="fill:#40372b;fill-rule:evenodd;stroke:none"/><path d="M1174 1136.375c1.639 1.667 3.267 3.885 4.5 5.625.763-1.574.392-3.997.5-6h-5zm1-182.875c2.419 12.612-.085 25.906 1 38.658v88.097c-1.062 9.338 1.396 20.658-1 28.245 1.292.447 2.65.517 4 .5V953h-4zm37-115c.03.55.186 1.058.5 1.5 3.855-1.506 6.871-6.89 10.733-9.733 2.852-3.598 8.686-7.453 9.767-11.267-4.861 1.087-7.248 6.216-10.735 9.235-3.368 3.339-7.756 6.925-10.265 10.265m571 397.875c2.087 1.202 6.248.423 8 .125-2.313-3.215-5.867-3.047-8-.125m36-121c1.839 2.414 3.445 7.49 8 6.125l-2-2c.623-.364 1.286-.503 2-.5v-2c-2.785-.097-5.22-1.908-8-2zm11 8.375c.755 1.476 3.026 2.076 4.625 3.136 1.699.862 3.44 2.176 5.375 1.614-1.056-1.229-2.438-3.376-1.57-4.819-1.01-1.675-3.244-2.463-4.93-2.681-.222.68.1 1.076.5 1.5-1.257.575-2.647.448-4 .5z" style="fill:#f1d3a5;fill-rule:evenodd;stroke:none"/><path d="M1020 2180.5c2.833 9.067 6.296 19.932 8 28.5h391v396c22.955.435 46.224 2.07 68.715-4.183 15.476-3.932 30.59-9.488 45.06-16.21 10.336-5.237 20.497-10.941 29.586-18.145 3.431-2.582 7.25-6.142 9.043-9.69 2.88-8.392.844-17.673 1.596-26.336V2209h360c11.195-.283 22.725 1.019 33.599-2.207 8.447-1.786 18.605-11.506 10.294-18.072-46.853-39.139-95.839-75.775-144.393-112.721-15.597 17.91-29.436 37.32-44.501 55.668-11.073 14.108-22.168 28.209-33.324 42.238-4.656 7.428-11.937 6.515-19.222 6.094H1573v-244h307.2c11.924.008 27.793.38 33.8-15.5-46.978-41.051-97.633-77.819-146.5-116.5-23.548 30.244-47.06 60.546-70.569 90.819-3.008 3.737-5.618 7.854-9.034 11.239-3.021 2.97-9.212 1.504-13.781 1.942H1573v-213c8.396-2.062 18.986-3.72 25.402-8.863 6.944-4.928 10.818-12.85 11.598-21.137-64.155-3.402-127.85-13.599-192-17v260h-146v-1.5c27.982-42.058 50.37-88.074 70-134.5 15.191-1.84 34.585-2.318 42-22.5-66.708-19.545-133.182-40.423-200-59.5-12.41 78.075-31.235 155.06-57.395 229.7-12.364 37.137-26.704 73.606-42.563 109.386-7.772 18.077-16.871 35.52-25.707 53.079-4.577 8.233-8.713 16.705-13.714 24.702-2.293 4.067-4.761 8.04-6.714 12.274-1.786 4.04 6.94 6.607 8.593 8.859 60.21-37.416 115.803-82.8 161.895-136.895 11.966-12.483 24.062-28.954 33.983-41.295 4.097-4.988 7.744-13.314 13.802-13.714 53.93-.275 107.894.05 161.82-.096v244h-398zM1178 1137c-.706 85.009-7.296 170.76-31.399 252.697-11.5 37.995-27.888 74.376-48.477 108.277-10.297 16.915-22.227 32.825-34.909 48.01-6.56 7.668-13.423 15.033-20.22 22.477-6.277 7.559-15.7 12.712-20.995 21.039 2.215 2.42 4.156 5.089 6.375 7.5 43.902-17.88 86.82-39.325 124.1-68.975 56.552-43.847 99.408-103.56 125.153-170.107 13.78-34.716 23.234-71.088 28.463-108.048 6.155-37.308 9.145-75.1 9.909-112.87h82v459c20.791.163 41.777.577 62.16-4.128 14.842-3.067 29.054-8.308 42.984-14.126a132.8 132.8 0 0 0 28.355-16.178c8.967-5.972 8.115-14.962 7.501-23.82v-383.483c.819-5.95-1.318-13.736 1.5-18.265 10.481 2.253 21.527.08 32.138 1H1605c6.474 67.019 15.44 134.484 34.885 199.156 13.507 46.08 34.759 89.894 62.181 129.268 41.681 57.853 103.483 100.402 170.604 123.607 18.2 5.788 37.358 9.749 56.538 6.819 13.83-1.07 27.263-6.136 37.702-15.439 15.447-14.1 23.473-36.107 16.493-56.497-5.818-19.253-17.61-36.199-30.403-51.414 2.07-3.857.204-10.218 1.188-15.148 1.395-35.795 4.257-71.53 4.812-107.352h-10c-9.757 29.773-19.842 59.783-33.936 87.844-2.383 5.039-4.856 10.95-12.311 11.707-10.459.489-21.793-5.678-30.255-9.312-34.338-15.507-61.668-43.46-80.725-75.508-20.105-32.452-32.055-69.066-41.773-105.731h1.5c22.368 19.939 44.388 40.516 62.036 64.945 7.09 8.406 12.82 17.768 18.713 26.984 5.086 8.138 9.27 17.001 13.086 25.7 16.441 7.442 35.9 10.172 53.11 3.345 11.875-4.319 22.909-15.236 28.187-25.39 8.793-17.38 6.809-42.028-2.253-57.113-8.414-16.995-23.303-29.678-39.713-38.523-12.343-6.84-28.263-12.103-40.666-15.448 17.644-10.532 35.984-20.25 53.417-31.225 4.755-2.635 9.224-5.787 13.908-8.528 6.976-5.448 16.034-2.138 24.346-3.22 7.337-.231 17.79-5.932 18.329-12.527-22.618-10.195-44.086-23.346-66.28-34.496-21.712-12.416-44.72-22.832-66.22-35.504-5.834 26.954-11.232 54.367-18.52 81.072-1.814 6.89-3.346 13.84-5.341 20.669-1.506 4.665-2.125 9.642-4.058 14.151-1.826 3.348-8.47 1.401-11.271 2.108H1745c-2.754-21.529-6.963-42.935-8.232-64.662-.463-5.859-.615-11.71-1.011-17.568-.21-1.906-.335-4.355.951-5.275 13.235-2.955 27.193-6.02 37.292-15.995-2.575-5.383-10.626-8.066-14.549-12.17-35.705-25.903-71.036-52.881-106.951-78.33-16.055 15.923-29.857 33.92-45.857 49.878-3.829 4.313-7.393 8.887-11.755 12.7-6.055 5.67-18.337 2.314-27.29 3.422H1539V814c7.697-.536 16.684-3.745 22.769-7.224 7.49-4.333 8.59-11.519 11.231-18.276-58.1-6.649-116.78-10.51-175-16.5-.757 23.27.924 46.806-.5 70-41.453-23.497-82.8-48.115-124.5-71-15.05 23.136-36.168 42.597-55.102 62.602C1158.692 890.147 1093.894 942.442 1022 982c.152 3.852 2.214 7.288 3 11 51.512-10.677 102.85-23 153-39v154h-157c.769 7.175 5.13 16.184 7.105 24.494 1.277 4.56 7.073 4.51 11.28 4.497 4.797.023 9.578-.002 14.37.009zm-96-413.75c3.291 8.945 5.777 18.688 9 27.75h493.8c4.809.12 9.86-.36 14.552.724 11.263 68.267 20.462 140.821 53.276 203.587 21.646 44.952 52.664 86.064 92.193 116.761 28.796 22.837 61.94 39.117 95.765 52.905 28.234 10.02 58.837 18.505 89.096 12.6 21.388-3.33 40.536-18.35 47.654-39.155 5.995-15.567 2.521-33.072-5.27-47.263-5.367-10.222-13.994-21.04-21.168-28.761-1.702-1.412-3.136-3.524-4.421-5.04 1.274-36.791 3.838-73.552 4.523-110.358-3.353-.531-6.72-1.154-10-2-7.66 27.347-19.842 59.011-32.435 81.861-2.272 4.871-5.54 9.708-10.705 11.845-9.566 3.173-21.22-3.901-30.133-5.974-33.806-12.004-63.321-35.403-83.803-64.763-10.498-14.459-18.838-30.411-26.018-46.743-6.166-17.234-14.327-34.958-16.406-53.226 19.096 14.67 39.661 34.416 54.122 51.135 15.73 18.306 30.826 38.066 39.378 60.865 11.055 2.135 22.114 7.114 33.716 5.413 16.768-1.148 32.75-10.249 42.244-24.092 9.757-13.972 12.246-32.11 7.119-48.356-9.947-30.754-40.774-48.494-70.243-55.878-2.535-.82-5.69-1.394-7.836-2.587 18.117-6.36 36.297-12.932 54.183-19.975 4.361-1.798 8.685-3.706 13-5.592 5.859-2.6 14.626.955 22.085.063 6.803-.129 15.55-3.254 17.732-9.996-20.102-12.071-38.47-27.902-58.204-40.771-18.802-14.134-38.855-26.65-57.296-41.229-9.159 25.997-18.606 52.235-29.536 77.624-2.608 6.598-5.55 13.021-8.24 19.582-2.481 4.45-4.007 9.572-6.881 13.762-7.726 2.367-16.852.95-24.897 2.096-8.344.34-16.61 1.743-24.946 1.936-.513-8.302-2.95-16.439-3.612-24.745-1.923-8.202-1.705-18.26-3.388-25.755 12.303-4.917 28.975-4.56 38-16.5-19.448-15.457-40.757-28.983-60.712-43.863-20.398-14.164-40.24-29.219-60.788-43.137-15.256 16.253-30.28 32.751-45.408 49.126-3.168 3.741-6.98 6.906-10.004 10.762-2.866 4.81-7.59 4.859-12.375 4.112h-482.4c-4.675.122-10.264-.432-14.313 1zm169 205.125c7.324 2.796 16.174 1.361 23.858 2.984 25.373 2.075 50.72 5.318 76.142 6.641.74 17.077-16.522 25.412-29.293 26.825-7.465.247-5.41 7.881-5.707 13.161V1108h82V875c-7.402.123-14.788-.05-22.149-.83-6.48-1.772-11.139-.32-16.051 3.389-34.722 20.007-71.73 35.896-108.8 50.816" style="fill:#000;fill-rule:evenodd;stroke:none"/></svg>