<svg xmlns="http://www.w3.org/2000/svg" width="3000" height="3000"><path d="M326 2802.5v1.5h2347c-.373-12.822-4.058-25.348-5.508-38.051-117.27-703.542-234.496-1407.1-351.766-2110.637-7.344-43.997-14.655-88.002-22-132-3.6-21.02-6.91-42.124-10.625-63.12-1.141-5.243-8.647-5.77-12.81-7.59-158.488-52.846-316.994-105.666-475.472-158.502-59.502-19.835-119.024-39.669-178.52-59.495-26.013-8.653-52-17.351-78-26-12.476-3.645-24.567-8.834-37.16-12.04-6.368-.025-12.224 3.635-18.313 4.993-92.992 31.026-186.022 61.963-279 93A1893485 1893485 0 0 0 785.82 433.9c-17.522 5.819-35.005 11.685-52.52 17.495-3.82 1.309-7.668 2.508-11.462 3.872-7.078 2.018-5.509 14.447-7.54 19.93a1026382 1026382 0 0 1-55.17 330.994C547.67 1471.398 438 2137.571 326 2802.5M1015 1124h153c.903 88.373-7.162 177.505-31.638 262.69-23.236 78.248-66.715 150.827-128.362 204.81 1.236 4.266 6.795 7.076 10.665 4.808 27.399-10.591 53.675-23.908 78.976-38.76 70.165-41.97 126.758-105.742 161.037-179.884 36.209-79.206 49.189-167.179 50.322-253.664h87v474c21.804.532 43.808.926 65.132-4.565 14.418-3.689 28.524-8.613 42.032-14.866 9.859-4.371 21.068-10.61 28.997-16.5 3.04-2.575 6.725-5.996 7.47-9.748 1.051-32.88-.19-65.878.369-98.772V1124h34.8c10.664.555 23.403-.727 33.113.515 2.224.84 1.727 4.938 2.196 6.73 6.908 76.76 18.872 153.952 44.55 226.893 20.278 51.763 46.799 102.661 86.443 142.464 28.139 29.906 63.764 53.435 100.742 71.334 14.399 7.38 28.938 14.798 44.62 19.181 27.068 8.668 58.616 12.77 84.572-2.254 18.793-10.869 31.152-31.937 28.811-53.739-2.015-15.814-9.703-30.242-18.55-43.195-6.034-9.22-16.566-17.98-13.867-31.061 1.653-37.963 3.768-75.914 5.57-113.868-2.362-.516-5.43-1.255-7.54-.18-1.852 1.737-2.676 5.345-3.578 7.142-10.57 30.01-19.699 61.088-35.783 88.769-8.106 11.61-24.057 4.149-33.818.572-19.022-7.812-36.725-18.767-52-32.553-45.363-41.974-70.505-101.481-83.281-160.75 4.683.3 7.649 4.478 10.985 7.17 24.885 22.096 47.878 46.508 66.781 74.036 6.717 9.795 12.947 19.937 18.154 30.626 2.268 5.884 3.82 10.598 9.783 11.906 20.008 7.942 44.71 7.951 61.881-6.876 12.015-9.173 20.488-26.682 20.41-40.498 1.347-24.279-12.608-46.713-30.518-61.974-8.784-6.709-18.185-12.727-28.348-17.132-5.246-2.247-10.585-4.16-15.908-6.177-4.711-2.685-14.338-2.392-15.22-8.081 18.432-9.196 36.34-20.183 53.972-30.903 9.296-5.443 18.24-13.064 29.554-12.097 9.564.036 22.705 1.468 28.474-11-44.973-23.066-89.899-47.122-134.5-71-7.999 40.273-18.016 80.275-28.5 120-17.343.061-34.7-.395-52 1-4.258-30.862-9.853-61.707-10-93 13.52-1.653 29.488-7.153 39-15.5-8.588-8.936-22.257-16.342-30.899-23.783-31.078-22.187-61.24-46.033-92.601-67.717-16.266 16.868-31.487 34.704-47.284 51.989a230 230 0 0 0-11.992 13.155c-3.29 3.652-9.471 2.813-13.855 2.856H1540V791c7.372-.76 16.059-3.252 21.903-6.762 7.533-4.258 9.281-10.886 12.097-17.738-59.2-5.461-118.679-11.792-178-16.5v72h-2c-30.248-16.582-59.795-34.472-89.865-51.378-11.276-6.106-22.156-12.909-33.361-19.099-5.478-3.075-9.543 5.83-12.699 8.98-56.168 67.16-124.269 123.841-196.355 173.202-17.09 12.447-35.987 22.144-53.72 33.545.532 2.348 1.656 5.087 3.163 6.73 1.81 1.634 5.882-.492 7.883-.288 25.635-5.13 51.1-11.107 76.362-17.788 12.495-3.149 24.885-6.605 37.284-10.09 11.901-2.452 25.225-8.61 36.308-9.814v121.8c-.475 12.666.808 27.676-1 39.2h-161c1.18 9.34 6.814 17.66 8 27m13 938.458c3.767 3.122 8.55 10.34 13.107 9.971 5.707-1.57 11.187-3.995 16.736-6 31.913-13.974 63.409-29.548 91.677-50.076 14.45-10.286 27.901-21.82 40.213-34.586 2.976-2.726 6.14-7.06 10.42-6.035 12.854 2.98 28.375.61 36.847-10.732-9.114-7.68-23.023-12.6-32.11-18.634-5.455-2.966-10.835-6.022-16.27-9.022-4.441-3.123-12.743-5.121-13.62-10.344 11.253-2.137 23.424-8.572 32.839-12.935 5.351-2.15 11.244-7.951 16.116-8.026 6.193.02 12.426.095 18.545-1.039 2.899 4.494.6 12.393 1.5 18.316-.783 21.06 1.197 46.02-1.243 65.234-1.5 12.562-18.487 9.175-26.468 9.12-10.487.189-20.868-.984-31.289-1.67v13c14.65 1.338 29.699 6.62 39.462 18.154 9.73 11.832 9.767 30.825 11.538 43.846-13.962-1.891-28.239-12.073-41-14v377h-13c-4.065 21.456-20.351 37.87-38.892 48.015-15.773 10.079-33.159 17.341-51.25 22.028-15.284 4.282-30.955 15.015-40.833 25.432-21.779 19.92-20.429 57.431-1.522 78.888 14.424 16.368 41.456 23.686 60.728 22.33 32.475-3.45 60.238-26.16 76.1-53.766 16.763-29.4 23.081-64.448 18.669-97.927 23.094.633 45.76-3.356 68-9a191 191 0 0 1 2 34.768c.503 20.37-.815 40.783-5.637 60.647-.955 5.954-5.086 13.89.484 19.787 8.039 8.817 16.597 17.575 27.643 22.552 33.049 18.508 80.771 1.712 93.034-34.85 8.17-25.713-4.943-47.68-21.894-65.774-16.316-17.184-36.858-29.497-57.964-39.805-3.828-2.22-10.196-3.984-10.666-8.325 4.174-.475 9.079-3.736 13.421-5.968 4.049-2.26 8.196-4.398 11.772-7.403 7.183-4.611 19.467-1.523 29.104-2.629H1810c-1.382 12.135-4.602 24.031-7.944 35.744-3.299 9.524-7.375 21.419-14.325 27.93-7.19 6.705-17.513 7.336-26.746 7.313-9.044.129-18.106.045-27.132-.494-3.287-.833-7.361.657-10.782-1.623-13.75-21.579-36.88-35.587-60.754-43.61-12.882-4.32-26.176-7.314-39.569-9.464-12.743-1.95-28.452-5.619-39.748-.796 19.226 32.975 39.487 68.74 41.61 108.257-.476 9.31 13.384 14.146 19.727 17.893 26.834 13.488 62.287 3.251 77.036-23.011 2.907-5.819 6.206-13.087 6.627-19.139 4.963-.105 7.289 4.788 10.095 7.612 10.422 11.112 16.131 25.766 17.457 40.796 2.139 16.117 2.786 32.352 2.448 48.592 24.937.3 49.982-2.729 73.88-9.97 16.735-5.012 33.445-11.336 47.75-21.547 20.81-15.609 35.505-38.502 43.108-63.181 9.39-25.886 13.208-53.24 17.262-80.302 13.39-2.193 28.276-5.029 38-15.5-15.577-13.109-31.818-25.481-47.483-38.483-7.978-6.469-15.84-13.102-23.975-19.357-4.063-3.173-7.97-6.489-11.946-9.762-3.555-3.192-9.25-6.384-9.596-10.898h58.8c12.638-1.082 42.745 3.399 47.2-17-41.612-29.443-80.499-65.069-124-92-4.967 8.895-14.894 17.366-20.253 25.08-12.544 15.468-25.695 30.421-38.222 45.898-2.88 3.45-5.56 7.26-9.535 9.546-154.58 1.357-309.377-.246-463.99.476v-47h336v31c21.212.648 42.489.708 63.262-4.14 15.148-3.432 29.939-8.283 44.602-13.328 9.994-3.874 22.178-8.299 30.109-14.25 3.615-2.845 3.078-8.596 3.027-12.672v-96.856c.005-5.988-.005-11.964.003-17.937.179-2.195-.018-4.911.952-6.565 5.847-2.907 13.411-3.453 19.071-7.3 5.594-3.03 11.75-7.431 15.974-11.452-41.387-31.71-84.048-61.88-125.5-93.5-16.392 16.133-31.343 33.602-47.733 49.733-3.076 3.154-6.305 6.16-9.243 9.444-5.425 8.255-16.14 5.324-23.87 5.823H1450v-3c18.154-5.835 35.7-13.78 53.453-20.71 8.69-3.954 18.843-2.328 27.665-5.85 8.437-2.881 18.346-10.887 19.882-19.44-4.428.079-8.624-1.809-13-2v-3c68.056-29.135 133.13-77.39 167-145h3c.195 23.666-.388 47.331.58 70.977.884 15.764 1.577 32.263 7.946 46.994 10.924 24.223 39.65 27.856 60.755 29.31 26.233.911 52.512.867 78.758.418 34.413-1.8 72.098-1.64 102.423-20.68 14.861-9.833 21.228-28.16 19.335-45.209-1.04-17.094-15.074-30.717-30.797-35.81-.325-24.009-2.47-47.997-3-72h-10c-6.336 19.123-15.518 37.244-24.178 55.366-3.312 6.403-7.164 14.584-12.84 18.447-6.053 4.367-13.5 4.632-20.627 4.187h-38.833c-7.513-.242-20.29 2.127-21.333-9.676-.539-29.102.098-58.229-.189-87.324 11.3-2.183 27.706-7.651 29-23-36.982-2.976-73.986-6.434-111-9 .277-7.16 2.49-16.632 4-25h190.8c14.332-1.186 44.641 5.444 52.2-15.543-16.43-13.67-33.026-27.16-50.205-39.88-3.207-2.526-6.39-5.081-9.653-7.532-3.64-2.22-2.406-6.784-.826-9.938 5.133-14.286-.256-29.899-10.277-40.422-15.422-14.898-35.941-23.49-56.896-26.934-11.162-2.152-22.55-3.328-33.88-4.139-10.91.248-25.77-3.175-33.263 3.888 9.72 13.53 18.877 28.256 24.096 44.315 3.14 8.57 5.608 17.381 6.612 26.462.762 4.667 1.279 9.38 1.3 14.107-.248 4.432 2.405 8.915 6.992 9.616-.174 3.742-3.016 6.458-5.368 9.036-4.02 6.172-8.524 9.94-15.637 8.964H1742c3.134-31.608 7.097-63.215 8-95 12.774-2.752 29.75-5.67 33-24-53.842-5.66-108.113-8.495-162-14-.018 22.677-.494 45.335-.676 67.998-.192 11.378-.155 22.76-.57 34.128-.204 5.681-.428 11.363-.625 17.036-.675 4.877.842 11.194-1.629 14.838-17.25-2.134-34.767-.199-52.091-1H1513c1.099 4.884 2.722 9.637 3.997 14.47 1.087 3.375 1.775 6.882 3.077 10.184.544 3.247 4.832 3.38 7.528 3.344 8.947.006 17.871-.002 26.815.002H1616c-2.266 52.248-15.414 104.532-38.675 151.333-10.874 22.457-25.09 43.225-41.525 61.95-8.046 9.94-17.42 18.53-26.807 27.122-4.638 4.19-12.482-.127-17.89-.593-3.244-.768-6.51-1.422-9.775-2.054-2.844-.48-7.083-.865-7.328-4.758 24.6-1.969 45.728-25.787 46.22-50.04.797-13.403-6.09-28.838-14.955-37.195-9.757-9.766-22.754-15.6-35.786-19.47-17.71-5.285-36.576-6.358-54.909-4.469-8.868.81-17.734 1.639-26.511 3.156-4.352.667-8.636 1.775-13.013 2.283-4.365.13-8.747 1.109-11.408 4.796-1.244 1.393-2.267 3.087-2.638 4.939 17.952 8.238 34.092 26.036 46.87 38.37 7.046 7.395 13.516 15.507 18.939 24.17 4.722 8.686 11.162 19.265 12.191 28.46-17.596-1.522-34.518-7.728-52-10-3.848 28.17-13.01 55.323-19 83-10.975-.1-22.442 1.252-32.662-3.456-29.285-10.238-57.9-22.92-87.338-32.544v-3c28.444-3.434 59.764-5.505 83.965-22.808 11.693-9.651 16.116-24.892 17.99-39.277 2.62-15.617 2.093-31.491 2.045-47.24V1906h29v14c15.484.335 31.01.526 46.234-2.745 21.359-4.578 42.718-10.709 61.853-21.511 6.087-3.368 6.515-8.948 5.913-14.809V1826c6.407-1.5 14.517-4.744 18-10-24.395-19.608-51.615-36.377-76-56v-2h79.8c13.294-.166 26.588.292 39.86-.377 10.67-.209 26.108-1.633 30.34-15.166-33.398-28.013-69.65-52.379-104.5-78.457-17.29 22.623-38.662 43.16-55.5 66h-67v-22.2c.115-5.587-.148-11.192.097-16.766-.11-4.82 4.1-5.552 7.63-5.749 9.363-1.547 20.984-7.753 22.273-20.285-50.803-5.428-102.214-7.433-153-13v78h-202c1.88 8.25 4.48 18.162 7.301 25.39 1.597 4.38 10.122 1.65 13.216 2.61H1108v179h6c-8.293 23.325-25.873 47.652-37.834 66.726-14.115 21.014-30.168 40.975-48.166 58.732M1070 698.5c1.333 4.822 3.392 9.406 4.751 14.235 1.252 3.36 2.144 6.87 3.438 10.202.365 3.068 5.189 2.957 7.438 3.06 9.377.007 18.767 0 28.14.003H1605c4.73 53.907 15.547 107.611 32.061 159.135 24.496 73.288 69.698 142.002 134.87 185.16 31.786 21.35 67.086 37.761 103.615 49.137 33.605 8.956 85.125 16.407 109.746-22.35 10.717-14.39 12.096-33.628 5.288-49.808-4.305-12.1-13.5-24.342-20.94-33.28-2.453-4.349-8.46-7.861-9.272-12.116-1.295-18.606 2.053-37.274 1.744-55.881 1.342-18.988 1.349-38.04 2.888-56.997-3.013-.328-5.98-.824-9-1-8.72 29.375-19.763 58.138-34.173 85.231-2.427 4.943-6.34 9.535-11.902 10.861-10.509 2.45-23.01-4.289-32.654-7.137-35.102-12.81-65.369-37.432-86.575-68.047-10.614-14.933-19.098-31.237-26.15-48.119-6.853-17.083-14.636-37.892-16.546-54.789 7.78.814 13.844 9.887 20.05 13.711 22.601 20.552 43.606 42.906 61.089 68.057 6.222 9.456 11.864 19.22 16.548 29.54 1.86 4.163 7.549 5.414 12.474 6.708 18.83 6.01 40.439 1.958 55.403-11.19 10.785-9.56 18.493-23.098 19.303-37.7 1.642-21.525-9.795-42.645-26.681-55.604-15.36-13.318-38.517-20.953-56.186-25.522v-3c18.567-6.133 37.138-13.17 55.56-19.87 7.948-3.436 16.727-9.349 27.116-6.292 9.768 2.61 20.493.62 27.324-7.338-39.507-27.363-78.129-56.868-118-83.5-7.787 27.607-19.745 54.04-30.27 80.677-2.75 6.57-5.498 13.154-8.42 19.638-3.13 4.02-3.43 11.7-7.952 13.226-8.8 1.543-17.845.724-26.704 1.642-8.22.593-16.407 1.8-24.654 1.817-2.653-17.694-6.993-38.486-7-55 13.04-2.1 29.298-6.318 38-15.5-20.682-14.417-41.177-29.447-61.877-43.895-20.597-14.353-40.832-29.648-61.623-43.605-16.388 15.96-30.877 33.67-46.842 50.007-3.256 4.03-6.718 7.838-10.53 11.341-3.85 4.541-9.86 3.678-14.784 3.652H1070zm69 1061v1.5c21.532 7.133 42.637 16.344 64.038 24.018 7.78 2.692 15.294 6.194 23.176 8.553 34.205 1.223 68.564-.222 102.799.429h25.762c6.13-.206 13.42.362 18.995-.468 5.92-3.604 11.998-11.817 18.795-16.701 3.095-2.894 6.011-5.97 9.037-8.933 2.675-2.929 6.926-6.044 7.398-9.898h-270zm82 118.5h160v-57h-160zm20-967.5v1.5c34.762 1.72 69.242 7.28 104 9-.961 17.66-17.553 24.013-32.12 26.084-3.757.547-4.14 4.006-3.867 6.905-.038 47.669.008 95.35-.013 143.011h87V854c-7.553.17-15.12.115-22.6-1.075-7.078-1.696-12.495-1.029-17.944 2.949-36.96 19.985-74.934 38.751-114.456 53.126zm94 1279.5h336v-50h-336zm0 78h336v-51h-336zm0 148h444c8.206-.92 18.838 1.35 25.236-1.293 8.61-7.138 16.736-14.89 25.03-22.377 4.391-3.491 8.375-7.419 12.534-11.166 3.635-3.231 9.58-7.93 10.2-12.164h-517zm82 42.25c9.749 18.715 18.358 38.31 22.961 59.105 2.725 10.681 4.826 21.453 5.73 32.451.733 11.713-.012 23.482.309 35.194 3.011.837 5.67 4.527 8.865 6.387 22.005 18.278 55.042 21.322 78.878 4.73 11.108-7.392 19.692-18.49 23.721-31.268 4.268-13.088 1.302-29.55-3.954-40.738-14.27-28.523-49.431-46.965-75.493-56.107-10.164-3.668-20.676-6.484-31.103-9.254-8.901-1.507-20.056-7.323-29.914-.75z" style="fill:#fda;fill-rule:evenodd;stroke:none"/><path d="M204 2906.5c431.66 1.426 864.125-.26 1295.95.5 431.946-.76 864.184.926 1296.05-.5-71.347-421.454-140.17-844.031-211.186-1265.681C2515.49 1219.807 2443.894 799.05 2375 378c-18.825-4.147-36.622-12.377-55.173-17.557-141.343-47.107-282.688-94.208-424.008-141.343-105.996-35.346-212.02-70.658-318-106l-60-20c-4.743-1.483-9.392-3.202-14.133-4.67-4.689-1.596-9.296.594-13.846 2.121-144.162 48.092-288.385 96.1-432.543 144.19-72.152 24.045-144.327 48.113-216.478 72.159-35.996 12.013-72.02 23.992-108 36-18 6.028-36 11.971-54 18-9.01 3.004-18.013 5.972-27 9-8.742 2.234-18.56 7.118-26.819 8.1-68.995 421.677-140.705 843.07-210.109 1264.703C344.003 2063.481 275.132 2486.22 204 2906.5m123-104c781.355 1.426 1563.485-.26 2345 .5-118.785-721.214-240.618-1442.068-360.03-2163.199-7.528-45.17-15.046-90.339-22.588-135.492-1.756-10.718-3.574-21.44-5.367-32.15-1.463-5.102-.632-13.609-5.65-15.42-82.419-27.818-165.08-54.96-247.546-82.639-144.35-48.044-288.615-96.253-432.954-144.3-27.19-9.095-54.376-18.14-81.566-27.195-6.024-1.707-14.13-5.746-19.294-4.368-99.967 33.09-199.81 66.647-299.74 99.834a5130220 5130220 0 0 1-448.968 149.67c-9.274 3.513-19.03 5.778-28.13 9.725-3.665 1.962-2.298 9.57-3.876 12.727-22.54 135.51-45.194 271.003-67.739 406.508C540.73 1518.187 435.508 2161.522 327 2802.5" style="fill:gray;fill-rule:evenodd;stroke:none"/><path d="M1381 1879c.02-1.043-.107-2.032-.5-3-5.146 2.254-13.233.08-19.676 1H1222c.645-18.511-.811-37.67.5-56h-2.5v29.297c.016 7.268-.02 14.538.01 21.805.139 2.266.143 5.917 2.419 6.454 18.585 1.263 37.388-.227 56.007.444z" style="fill:#3f372a;fill-rule:evenodd;stroke:none"/><path d="M1883 2370.5c.603 1.87 2.479 3.324 3.75 4.5.802-.013 1.544-.14 2.25-.5l-3-3c13.057-1.369 26.568.202 39.723-.5h20.347c5.79-.724 14.663 1.224 18.93-1.5-27.13-1.426-54.767.26-82-.5z" style="fill:#bfa67f;fill-rule:evenodd;stroke:none"/><path d="M1731 2052.5c-.698-.826-1.645-1.651-3-1.5-.24 1.511.83 2.31 2.16 1.901.324-.032.594-.216.84-.401m-2-3.125c.573 1.036 1.953 1.643 3 1.625v-2h-3z" style="fill:#89775b;fill-rule:evenodd;stroke:none"/><path d="M1854 1237h3c-.05-1.254-.91-2.582 0-3.5-.923-.503-1.973-.502-3-.5z" style="fill:#4b4132;fill-rule:evenodd;stroke:none"/><path d="M1005 1096.25c2.742 9.16 7.018 20.148 9 28.75h153c.822 88.247-7.58 177.202-32.062 262.23-23.527 78.177-67.132 150.425-128.938 204.27 2.08 3.142 4.736 5.763 7.328 8.5 45.6-18.188 90.024-40.8 128.677-71.408 57.449-45.371 101.887-106.538 128.243-174.745a503.4 503.4 0 0 0 29.619-111.35c6.077-38.851 9.763-78.16 10.133-117.497h85v474c22.139.392 44.487 1.04 66.173-4.349a239.7 239.7 0 0 0 42.46-14.851c10.04-4.443 21.467-10.718 29.528-16.731 3.04-2.575 6.725-5.996 7.47-9.748 1.051-33.48-.19-67.078.369-100.572V1125h51.6c4.81 1.03 12.737-1.654 15.79 1.883 7.562 77.604 18.458 156.02 44.424 229.964 20.205 52.32 46.798 103.67 86.556 144.023 28.414 30.378 64.518 54.246 102.005 72.316 14.549 7.491 29.334 14.896 45.217 19.251 27.512 8.493 59.619 12.343 85.869-2.814 8.922-5.32 15.986-13.099 21.485-21.813 10.497-17.149 8.263-38.929.153-56.435-5.672-12.131-13.358-23.197-21.437-33.815-4.56-4.44-5.362-9.361-4.3-15.04 1.725-38.829 3.973-77.678 5.638-116.52-3.037-.667-6.424-1.442-9.437-.227-2.386 1.978-2.932 6.28-4.28 8.87-10.38 29.62-19.427 60.339-35.49 87.543-7.162 11.09-25.564 2.745-33.904-.858-18.287-8.452-36.116-18.62-50.758-32.698-44.253-41.202-68.88-99.875-81.631-157.63 25.972 21.533 49.396 46.341 69.674 73.372 7.334 9.747 13.883 19.97 19.734 30.659 2.747 4.669 4.811 9.643 7.024 14.566 1.693 4.3 7.824 5.477 12.803 7.058 19.597 6.27 43.135 4.65 59.04-9.813 24.035-19.907 24.797-58.07 7.253-82.312-15.994-24.927-43.466-39.233-71.151-47.139-2.547-1.062-5.451-1.409-7.877-1.891v-1.5c4.489-.688 9.557-4.769 14.397-6.955 16.332-8.963 32.25-18.637 48.095-28.403 3.713-1.99 8.384-5.482 11.601-6.837 12.947-2.716 30.051 4.356 39.907-12.305-45.048-25.715-92.27-48.052-137.5-73.5-7.547 40.707-18.169 80.908-28.5 121-16.666.352-33.403-.686-50 1-4.197-30.214-9.584-60.374-10-91 7.286-.57 15.552-3.369 21.81-5.565 6.41-3.31 14.816-5.525 18.19-11.935-41.418-31.353-83.693-61.692-125.5-92.5-16.437 16.571-31.063 34.79-47.213 51.628-3.866 4.591-8.303 8.68-12.002 13.414-3.36 4.272-7.854 4.17-12.527 3.958H1541V792c14.376-1.425 32.005-7.143 34-27-60.127-3.687-119.858-12.673-180-16-.759 23.936.925 48.144-.5 72-21.295-12.241-42.688-24.567-64.02-36.792-21.664-11.46-42.125-25.407-64.088-36.208-36.015 45.25-77.723 85.738-122.368 122.472-43.036 35.72-89.163 68.465-138.024 95.528.85 3.756 3.198 7.755 4.5 11 52.848-10.94 105.697-24.611 157.5-40v120c-.468 12.599.802 27.537-1 39h-162zm21 966.208c2.199 2.52 4.86 4.646 7.102 7.144 1.347 1.899 4.109 3.47 5.33 4.872 7.27-1.796 14.379-4.814 21.395-7.48 25.435-11.326 50.686-23.382 74.135-38.464 11.232-7.234 24.22-16.218 33.489-24.254 11.174-7.857 21.192-20.705 31.049-28.276 12.734 4.942 30.065 1.536 38.981-9.415.672-1.127 1.274-2.297 1.519-3.585-11.067-4.476-20.815-11.944-31.687-16.888-10.23-6.187-21.286-11.134-31.313-17.612 10.822-3.494 21.733-7.547 31.844-12.927 5.457-1.626 11.026-7.376 15.412-8.398 6.04-.747 12.336.67 18.244-1.175 2.899 4.494.6 12.39 1.5 18.314-1.04 20.864 1.59 45.8-1.651 64.77-2.586 11.4-19.053 6.965-26.56 7.512-10.32.175-20.527-1.14-30.789-1.596v15c14.32 1.322 29.02 6.364 38.794 17.405 10.393 11.668 9.686 28.29 12.206 42.595-13.839-4.337-27.085-10.889-41-15v378h-13c-4.101 21.585-20.56 38.102-39.269 48.227-15.967 10.214-33.647 17.361-51.948 22.123-15.466 5.015-29.405 14.148-40.516 25.883-11.532 10.102-16.433 25.331-15.258 40.264-.072 12.883 3.901 25.826 11.571 36.233 13.018 18.64 40.768 26.341 60.346 26.25 33.95-1.061 63.473-24.158 80.326-52.31 17.527-29.426 24.188-65.477 19.748-99.17 21.792-1.733 44.628-1.76 65.5-9.5 3.781 14.769 2.002 30.447 2.5 45.508-.035 13.19-1.41 26.418-3.9 39.377-.957 5.471-2.282 10.853-3.463 16.275-4.546 10.818 5.866 17.995 12.598 24.571 25.304 25.265 70.369 25.69 96.241 1.284 13.342-11.698 20.718-29.52 18.104-47.232-1.663-17.205-13.768-34.595-24.682-45.385-18.366-20.907-44.169-31.97-67.898-44.898 8.502-3.272 17.987-8.814 24.813-13.593 7.037-4.868 19.292-1.915 28.884-2.907H1809c-2.8 12.23-4.582 24.779-8.896 36.643-3.617 9.488-6.846 20.212-15.345 26.652-8.087 5.588-18.318 5.746-27.74 5.705-8.766.138-17.532-.167-26.271-.703-8.25.423-10.737-8.521-15.334-13.213-15.278-17.256-40.612-28.813-60.5-34.375-12.205-3.517-24.727-5.951-37.27-7.825-12.08-1.5-27.764-5.569-36.644 1.616 4.57 9.346 12.308 17.023 16.173 26.863 8.67 16.798 16.72 34.044 21.286 52.47 1.871 6.894 3.583 13.838 4.282 20.955 1.079 6.328-.202 13.947 5.36 17.583 17.383 13.616 40.59 18.419 61.739 11.758 19.866-6.444 36.551-23.837 39.16-45.129h1.5c11.73 11.705 21.023 25.922 23.265 42.68 2.853 17.975 3.478 36.165 3.235 54.32 25.224.324 50.628-2.37 74.846-9.68 16.984-4.932 33.863-11.345 48.405-21.558 21.016-15.617 35.825-38.621 43.487-63.46 9.39-25.886 13.208-53.24 17.262-80.302 13.978-2.052 29.131-5.463 39-16.5-31.479-26.563-64.403-51.582-96-78 19.646-1.41 39.744.243 59.488-.5 16.204-1.374 40.872 6.036 49.512-16.211-40.514-32.958-82.58-64.36-125-94.789-14.088 15.837-27.365 32.633-41.158 48.776-5.902 7.281-12.063 14.346-17.967 21.615-3.006 3.3-5.468 7.219-9.076 9.934-3.368 2.651-9.565 1.221-14.242 1.675H1336v-45h334v31c21.575.544 43.188.77 64.34-3.96 15.287-3.366 30.175-8.304 44.97-13.317 10.192-3.88 22.565-8.433 30.663-14.44 3.615-2.846 3.078-8.597 3.027-12.673v-98.65c.054-5.986-.068-11.965.04-17.937.126-2.015.26-4.765 1.956-5.656 6.934-1.662 13.925-3.83 20.095-7.533 4.583-3.618 13.42-7.757 14.909-12.834-44.123-29.04-85.012-64.722-129-94-1.372 4.739-8.124 8.257-11.37 12.87-15.17 15.192-29.339 31.286-44.427 46.544-5.56 8.505-14.329 6.776-23.35 6.586-63.567-.76-127.37.926-190.853-.5 17.776-7.089 35.868-13.607 53.453-21.21 8.89-3.965 19.22-2.319 28.205-6.04 9.505-2.999 16.455-10.93 20.342-19.75-3.383-2.552-9.502-1.949-14-4 68.336-30.096 132.704-77.612 167.5-145.5l.5 1.696c.168 23.27-.368 46.55.6 69.805.88 15.612 1.627 31.898 7.926 46.47 10.935 24.201 39.627 27.847 60.707 29.307 25.703.967 51.45.778 77.169.542 35.262-1.908 73.775-1.17 105.154-20.163 15.605-9.749 21.971-28.51 20.361-45.96-.201-17.901-14.41-32.534-30.917-37.697-.325-24.009-2.47-47.997-3-72h-12c-6.247 18.73-15.197 36.555-23.675 54.333-3.502 6.584-6.491 14.016-12.452 18.868-5.64 4.456-12.824 5.268-19.724 4.799h-38.827c-7.293-.358-19.697 2.148-21.07-9.18-.719-28.584.13-57.226-.252-85.82 12.731-2.54 27.352-7.6 30-25-37.332-2.79-74.644-6.484-112-9 .818-7.724 2.818-15.33 4-23h174.6c14.56-.302 29.136.383 43.68-.242 8.01-.684 19.344-3.106 23.622-13.013 1.824-4.156-1.421-6.51-4.508-8.906-18.572-15.803-38.369-30.136-57.394-45.339 9.141-16.912 3.297-39.256-11.366-50.991-14.499-12.377-32.613-20.024-51.3-23.343-20.498-4.155-41.584-5.602-62.458-4.985-3.57-.014-7.252 3.093-9.876 3.819 1.106 4.42 5.157 7.363 7.186 11.308 8.586 12.522 14.992 26.486 19.711 40.867 2.913 7.9 4.32 16.188 5.3 24.5.854 7.154-1.173 17.296 7.803 20.825-3.796 4.72-9.074 11.362-13.078 14.43-4.752 1.949-11.825.548-16.86 1.07H1743c3.656-30.884 6.77-61.91 8-93 12.883-2.758 31.806-6.282 33-26-54.532-5.489-109.407-8.833-164-14-.018 22.677-.494 45.335-.676 67.998-.192 11.378-.155 22.76-.57 34.128-.204 5.681-.428 11.363-.625 17.036-.675 4.877.842 11.194-1.629 14.838-8.52-2.035-17.534-.298-26.17-1H1512c1.221 8.92 4.609 17.509 6.9 26.174.919 5.228 9.455 3.491 13.046 3.826H1615c-2.943 51.549-15.331 103.164-38.675 149.333-10.832 21.867-24.399 42.457-40.578 60.748-7.755 9.942-17.372 18.061-26.225 26.894-4.04 5.274-11.732 2.051-17.38.836-5.19-1.94-13.277-1.741-17.142-4.311 18.37-2.716 35.204-15.351 42.44-32.652 7.82-18.337 4.07-41.03-9.698-55.572-21.995-22.375-55.75-26.857-85.373-26.189-11.227 1.002-22.47 1.979-33.612 3.621-5.839.941-11.603 2.316-17.492 2.879-5.547.347-9.758 4.677-12.265 9.413 7.523 6.712 17.631 10.508 24.612 18.095 22.907 19.692 45.444 43.21 54.388 72.905-17.546-1.91-34.424-8.33-52-10-3.848 28.17-13.01 55.323-19 83-11.078.48-22.365.887-32.506-4.195-28.548-10.633-56.993-21.576-85.494-32.305 19.477-3.267 39.504-4.52 58.438-10.622 13.318-3.825 26.418-10.824 34.054-22.706 11.55-18.581 10.907-45.493 11.508-64.55V1907h27v14c15.964.258 32.04.606 47.76-2.654 21.526-4.563 43.047-10.742 62.327-21.602 6.087-3.368 6.515-8.948 5.913-14.809V1827c7.049-1.822 16.323-5.354 19-11.5-25.419-18.95-51.414-37.284-77-56 26.076-1.426 52.654.26 78.825-.5 10.007-.008 19.978.01 29.977-.005 11.177-.525 37.996 2.186 40.715-16.528-2.416-5.079-8.737-7.67-12.197-11.42-15.14-12.305-30.99-23.67-46.663-35.266-7.912-5.788-15.94-11.385-23.796-17.25-3.994-2.71-7.833-5.66-11.793-8.418-3.701-2.32-8.306-6.754-12.068-7.113-16.206 23.02-38.768 42.964-55 66h-65v-22.2c.259-5.35-.386-11.714.382-16.584-.025-3.823 7.059-3.172 9.272-4.39 9.251-1.93 20.52-9.154 20.346-21.826-51.506-5.339-103.454-7.799-155-13v78h-203c3.379 9.17 4.95 21.217 9.296 29.096 11.121 2.205 22.948-.096 34.231.904H1107v179c2.026.04 4.05-.081 6 .5-23.393 44.549-50.617 88.675-87 123.958M1604 727c4.73 53.907 15.547 107.611 32.061 159.135 24.496 73.288 69.698 142.002 134.87 185.16 31.786 21.35 67.086 37.761 103.615 49.137 33.717 8.6 85.31 16.944 110.884-21.101 10.859-14.456 13.509-34.36 6.805-51.086-4.115-12.786-12.249-23.843-20.619-34.111-3.054-3.86-6.971-8.11-9.916-11.49-1.739-9.29.404-19.125.218-28.522 1.47-28.693 2.742-57.415 4.082-86.122-3.05-.461-7.287-.672-9.5-2-4.185 5.159-4.826 14.586-7.873 21.607-4.727 13.145-9.68 26.228-15.369 38.986-5.534 10.887-10.724 25.08-18.328 33.475-9.007 7.206-23.019.536-32.185-2.375-35.778-12.378-67.448-36.025-89.116-67.166-21.946-30.736-36.674-66.74-44.629-103.527h1.5c23.611 18.306 44.736 39.618 63.54 62.813 7.062 8.63 13.31 17.843 19.279 27.233 2.586 4.09 4.962 8.328 7.051 12.694 1.126 2.173 2.175 4.396 3.292 6.566 2.982 7.57 14.7 9.012 23.62 10.964 16.08 2.459 32.919-2.123 45.684-12.078 19.147-15.172 26.809-42.872 17.36-65.657-8.424-21.496-27.408-37.778-48.458-46.216-9.724-5.186-20.648-7.079-30.868-10.819 18.4-7.492 37.56-13.062 55.955-20.54 4.665-1.84 9.145-4.063 13.76-6.003 6.236-2.552 14.987 1.821 22.968.886 6.315-.718 15.568-3.97 17.317-9.843-19.197-15.04-40.014-28.46-59.61-43.067-10.085-7.032-19.91-14.433-30.059-21.36-5.124-3.636-10.251-7.263-15.348-10.936-4.958-2.83-9.853-8.138-14.983-9.637-2.287 13.831-10.512 28.711-13.879 41.052-7.562 19.857-15.773 39.462-24.194 58.96-2.296 4.393-4.32 9.892-6.812 13.676-7 2.947-17.95 1.025-25.456 2.355-8.581.25-17.083 1.758-25.659 1.957-2.559-17.59-6.478-35.144-7-53 13.755-2.493 28.969-5.854 39-16.5-20.87-15.337-42.243-30.058-63.27-45.187-10.633-7.497-21.114-15.184-31.758-22.658-5.537-3.618-10.711-7.726-16.176-11.426-5.21-3.048-10.446-8.528-15.796-10.229-1.29 4.799-8.222 8.108-11.17 12.985-15.124 16.146-30.03 32.535-45.065 48.746-3.946 4.74-8.882 4.607-14.226 4.269H1069c.898 8.723 5.616 16.658 7.51 25.149.952 5.702 7.145 4.924 11.68 4.851H1604m-464 1032.25c19.312 8.083 39.693 15.157 59.289 22.865 7.33 2.688 14.582 5.647 21.864 8.445 6.95 3.021 14.568 2.636 21.987 2.44h83.875c13.989-.047 27.964.057 41.938-.03 6.18.23 10.682-6.466 14.78-10.202 4.502-4.178 9.376-7.922 13.5-12.5L1408 1759.5c-89.106-1.046-178.84-.204-268-.25M1380 1878v-56h-159v28.296c.014 6.871-.018 13.745.01 20.602.232 1.964.092 5.623 1.8 6.457 17.909 1.823 36.223-.318 54.202.645zm-138-967.75c16.844 2.692 35.02 3.107 52.145 5.265 8.814.73 17.568 1.773 26.377 2.516 4.541.325 9.076.877 13.606 1.234 4.043.584 10.032.186 12.872 2.235-3.498 16.709-16.242 25.03-31.481 26.229-7.491.461-5.234 10.372-5.519 15.03V1096h85V855c-7.574.155-15.152.1-22.656-1.053-6.609-1.822-11.443-.534-16.402 3.211-36.704 20.21-74.806 38.133-113.942 53.092M1336 2189h334v-48h-334zm0 78h334v-49h-334zm0 148h440.4c8.26-.347 18.097.502 25.619-.466 16.57-14.166 32.976-29.131 48.981-44.034-171.485-1.426-343.425.26-515-.5zm79 42.344c4.287 9.616 10.441 18.572 13.634 28.765 6.14 15.535 10.293 31.744 13.812 48.026 3.056 17.138 2.903 34.517 2.554 51.865 3.154.905 5.884 4.782 9.274 6.695 22.36 18.04 55.848 20.912 80.034 4.713 11.331-7.386 20.076-18.603 24.156-31.56 4.207-13.864 1.94-28.966-3.65-42.11-6.845-14.569-21.347-27.263-33.128-35.598-13.382-9.8-28.75-16.105-44.182-21.743-10.25-3.438-20.689-6.427-31.178-9.013-5.411-.972-10.69-2.63-16.074-3.65-6.28-2.121-10.249 1.19-15.252 3.266z" style="fill:#000;fill-rule:evenodd;stroke:none"/></svg>