<svg xmlns="http://www.w3.org/2000/svg" width="3000" height="3000"><path d="M448 2669h2104c-108.019-653.996-218.137-1307.761-326.618-1961.691-6.813-40.83-13.621-81.671-20.41-122.502-.9-5.185-1.732-10.375-2.627-15.558-.693-5.948-7.25-6.546-11.566-8.162a2264805 2264805 0 0 1-451.953-150.644c-56.522-18.824-113.032-37.715-169.56-56.514-12.477-4.17-24.972-8.31-37.44-12.486-6.015-1.98-11.998-4.026-18-6-5.943-1.873-12.256-5.247-18.565-3.023-92.812 30.91-185.585 61.892-278.396 92.78-138.737 46.826-278.12 92.047-416.698 139.266-3.665 1.962-2.298 9.57-3.876 12.727-22.4 134.514-44.811 269.006-67.243 403.502C635.746 1543.503 540.855 2106.166 448 2669m696-1665h57v115h-128v1.5c1.493 4.645 2.834 9.344 4.149 14.033.958 3.092 1.996 8.088 5.377 8.11 11.859 1 23.836-.167 35.711.357H1201v286c-46.972 6.64-93.886 15.08-141 20.5 23.86 45.13 48.534 90.227 72 135.5 8.6-1.01 16.104-9.076 20.354-15.02 2.42-2.62 3.853-7.845 6.439-9.086 56.905-26.631 113.307-54.353 169.08-83.345 26.79-14.785 54.218-28.4 80.6-43.931 12.717-7.354 25.59-14.47 38.058-22.248 6.63-4.077 13.236-8.177 19.832-12.285 5.696-3.952 14.07-6.059 11.637-15.085-55.447 7.794-110.541 19.201-166 27v-268h70.8c22.114-.238 48.32 1.238 68.2-3 .692 5.466 2.987 10.607 4 16h146c-.641 22.173-6.021 44.003-9.464 65.819-7.957 38.002-18.487 75.564-33.233 111.513-21.23 51.44-52.124 98.772-89.778 139.643C1430.966 1512.99 1386.75 1547.55 1340 1576c.757 3.738 4.118 8.145 6.5 12 45.372-16.808 89.98-36.235 132.05-60.199 62.787-35.148 120.266-82.116 161.392-141.637 42.79-60.958 66.83-133.226 79.058-206.164h3c5.54 74.595 17.305 148.898 34.418 221.684 17.284 67.599 45.988 133.886 93.082 186.316 3.506-23.779 10.319-48.07 24.008-68.298 10.656-17.957 25.254-32.909 40.386-47.027 6.846-6.096 13.962-11.893 21.407-17.25 6.389-4.925 14.662-9.677 20.4-14.328 2.03-2.358 2.119-8.417 1.383-11.823-54.236-26.289-110.223-55.992-147.917-105.059-39.007-48.218-62.843-107.608-74.167-168.215h190.2c7.148.335 14.764-.592 20.455-5.401 2.424-1.95 4.703-4.603 4.859-7.831-7.054-8.84-16.736-15.347-24.676-23.354-25.797-21.618-51.45-43.545-77.838-64.414-15.866 19.395-29.801 40.658-45.237 60.448-3.822 5.121-7.353 10.513-11.65 15.242-4.395 2.588-11.414.469-16.186 1.31H1727c1.8-29.164 6.123-58.178 7.08-87.415 3.171-30.43 1.757-61.123 3.92-91.585h85.8c21.42-.004 42.831.005 64.238-.002 14.102-.362 34.94 1.567 39.478-13.662-13.481-15.26-31.002-28.033-46.164-41.832-15.941-13.478-32.09-26.652-48.218-39.888-1.803-1.641-3.802-3.022-5.634-4.616-10.315 11.682-18.49 25.097-28.186 37.261-8.143 12.54-20.848 25.721-27.314 37.739h-34c.546-38.287 1.226-76.554 1.442-114.833.279-19.252.24-38.502.605-57.741-.12-5.676 4.925-5.87 8.803-6.938 10.007-2.91 23.214-9.755 25.15-23.488-54.093-3.373-107.925-10.288-162-14v83c-11.177-.579-23.69-5.43-33.736-7.173-32.793-8.199-66.219-14.906-98.764-23.827-2.737 107.521-17.22 216.168-52.5 318.25 2.187 2.186 6.29 3.908 8.68 4.64 3.007 1.721 6.571-3.592 8.951-4.617 36.19-29.389 64.947-66.819 88.929-106.472 3.183-7.274 9.204-14.857 11.44-21.801h67c-.28 59.7-2.327 119.582-8 179h-147c-.417-5.755-7.111-9.881-10.37-13.87-28.81-27.328-55.276-57.59-85.63-83.13-8.33 10.208-14.327 22.49-22.104 33.171-6.383 11.2-14.893 21.526-20.896 32.829h-6v-97h64.2c10.797-.119 21.604.15 32.398-.093 8.138-.13 19.222-3.013 22.402-13.446-15.247-15.143-30.092-30.758-46.593-44.593-15.979-14.43-31.848-29.146-48.407-42.868-10.431 12.867-18.82 27.65-28.906 40.861-6.983 10.457-14.413 20.601-21.397 31.046-3.037 5.463-8.216 5.488-13.444 5.093H1157c1.063-5.96 9.417-10.354 13.37-15.87 37.813-36.84 70.764-78.435 99.592-122.595 5.092-8.266 10.213-16.522 15.155-24.874 2.402-3.538 4.46-8.249 6.752-11.391 3.303-4.538 7.524 2.362 9.422 4.817 20.257 28.42 37.139 59.298 49.472 91.97 17.664 21.416 52.252 22.403 74.252 8.217 16.892-10.318 29.469-29.263 27.786-49.738-1.804-14.527-10.95-29.87-20.695-38.86-16.448-14.354-36.24-24.453-56.725-31.718-10.897-3.86-22.056-6.848-33.384-9.05-5.878-1.289-11.82-2.278-17.756-3.2-4.487-1.656-12.36-.614-15.241-3.708v-2c13.288-.085 33.421-3.273 38-20-52-15.26-103.005-34.738-155-50-6.34 43.173-20.68 84.813-33.916 126.21-21.713 61.225-47.28 121.329-81.387 176.786-8.166 13.393-16.79 26.55-26.075 39.194-1.6 2.256-3.772 5.24-5.137 7.63-.299 2.656 3.063 4.514 4.746 5.277 3.95.502 9.426-5.01 12.822-6.477 14.941-9.423 29.366-19.617 43.456-30.267 7.368-5.45 14.434-11.291 21.475-17.138a87 87 0 0 1 10.232-8.312c4.297-1.831 4.816 6.974 5.784 9.097m-94 1079.625c.78 1.992 2.706 3.706 3 6.375 10.536-1.804 19.908-8.21 30.17-11.064 33.819-13.933 66.47-30.403 98.948-47.126 15.31-8.527 30.91-16.58 45.889-25.708 7.79-4.556 15.501-9.267 23.07-14.166 3.666-2.354 7.587-4.276 11.185-6.742 3.56-2.106 8.206-5.846 11.738-6.194 1.718 7.458 5.514 15.902 6 23h137v135c-97.929.76-196.151-.926-294 .5 4.317 6.787 3.08 17.935 7.85 22.867 26.922 1.806 54.224-.329 81.222.633H1417v301h-341c.422 8.356 5.769 17.308 6 25h804c16.561-.468 37.203 1.466 45-13.5-41.617-39.24-89.803-70.776-133.5-107.5-13.787 17.541-27.209 35.395-40.814 53.072-10.248 13.155-20.332 26.464-30.696 39.523-4.207 5.315-13.506 2.626-19.346 3.405H1556v-301h292.2c9.036-.075 18.512.935 27.048-2.764 3.399-1.381 6.16-3.872 8.273-6.798 2.042-3.81-.987-6.205-3.618-8.064-19.03-16.443-38.478-32.398-58.193-48.011-19.6-14.702-37.79-31.898-58.21-45.363-11.905 15.133-23.11 30.818-34.972 45.977-8.811 11.502-17.65 23.005-26.264 34.657-3.314 6.473-8.684 7.212-15.027 6.366H1556v-135h85.8c14.458-.1 28.902.123 43.345-.07 11.407-.927 26.6 1.078 33.855-13.43-36.117-31.084-73.875-60.305-111.5-89.5-16.696 21.749-34.155 43.115-50.946 64.827-3.321 3.624-6.39 8.722-9.898 11.592-3.854 3.156-12.11.533-16.467 1.581H1279c.195-4.046 5.171-6.177 7.93-8.295 50.115-32.824 96.795-70.955 141.02-111.23 5.619-5.361 10.924-11.02 16.516-16.403 39.895-34.798 71.066-78.36 101.534-121.072 4.398 1.246 4.291 9.677 6.405 12.711 24.413 71.204 66.31 135.641 118.965 189.16 51.915 52.501 113.724 93.999 177.13 131.129 5.897-30.026 18.269-58.963 36.505-83.665 17.91-24.897 42.704-45.733 72.995-53.335.076-4.17-.268-8.467 1-12.5-37.434-9.967-76.578-17.021-113.74-28.862-55.204-16.184-109.727-35.752-160.692-62.613-23.36-13.23-46.712-26.757-67.563-43.793-10.803-8.98-21.41-18.193-31.362-28.11-4.314-5.247-9.858-10.94-13.99-15.581-3.648-5.033-10.893-11.153-11.653-16.541 9.823-.359 19.442-2.91 28.983-5.013 8.462-2.212 17.687-6.697 21.017-15.362-65.471-20.183-133.745-34.028-199.5-53.625-13.31 47.29-35.222 91.539-61.226 133.075-38.114 62.301-85.202 118.652-134.508 172.245-50.079 53.116-104.627 102.174-164.766 143.68zm39-902.375c9.487 40.515 10.601 83.248 11 124.772.111 15.634-1.028 31.254-3.324 46.71-.922 6.02-3.292 12.492 3.059 17.503 8.103 8.48 17.306 16.985 29.3 19.228 21.479 5.155 43.282-9.352 53.298-27.535 15.95-28.041 11.684-62.646-1.25-90.72-12.472-28.299-31.974-52.661-56.173-71.838-5.285-4.65-10.856-8.955-16.485-13.154-2.934-1.49-5.327-4.684-8.995-6.022-2.524-1.373-6.444.972-9.761.744l-.669.062zm119 1020c14.507 38.988 22.45 80.597 27.515 121.861 1.695 16.488 2.766 33.074 2.055 49.642.384 6.455-1.863 16.308 1.66 20.8 16.49 17.793 40.854 31.478 65.79 29.038 37.278-2.802 67.058-38.23 66.673-75.017-.939-18.851-5.678-37.43-15.987-53.477-9.844-14.645-23.728-30.51-36.033-41.048-14.964-13.505-32.517-23.731-50.538-32.483-9.295-4.98-18.912-9.235-28.756-13-4.688-2.033-9.636-3.356-14.387-5.173-4.865-2.242-10.368-4.164-15.647-2.013-.739.35-1.542.516-2.345.62zM1335.5 1377c24.531-25.856 44.782-55.508 64.741-84.895 8.983-14.902 18.864-29.232 27.14-44.574 2.23-3.486 4.049-8.15 6.961-10.69 11.305-2.493 28.884-1.777 33.658-18.841-40.572-11.403-81.203-23.743-121.5-36-2.254 8.334-1.52 17.35-2.745 25.874-3.145 29.56-5.682 59.196-9.758 88.64-2.157 14.854-3.636 29.813-5.979 44.642-.88 7.498-1.948 14.967-3.105 22.412-2.875 8.943 5.516 10.343 10.587 13.432M1559 926.5v1.5h53V819c-5.202.204-12.72-.82-14.258 4.742-1.552 4.805-2.874 9.7-4.641 14.436-9.04 30.244-21.384 59.627-34.101 88.322m37 1495.5c2.797.821 5.787 3.35 8.5 5 37.951-26.81 74.807-55.46 108.941-87.061 17.32-16.416 34.563-32.854 51.161-50.041 4.162-4.32 8.623-8.36 12.568-12.883 5.697-9.172 15.414-6.615 24.581-8.731 8.03-2.213 18.208-8.617 19.249-16.284-57.342-18.675-113.662-41.208-171-60-15.832 77.03-33.777 154.058-54 230" style="fill:#fda;fill-rule:evenodd;stroke:none"/><path d="M338 2761.5c387.06 1.426 774.925-.26 1162.15.5 387.224-.76 774.71.926 1161.85-.5-77.265-456.459-152.125-914.01-228.874-1370.691-28.417-170.851-56.988-341.657-85.4-512.497-12.491-74.824-24.942-149.684-37.431-224.508-5.828-35.176-11.741-70.32-17.569-105.492-3.54-17.097-4.968-34.714-9.072-51.664-1.3-3.941-8.915-3.966-11.797-5.85-133.175-44.44-266.372-88.79-399.558-133.193-116.482-38.867-233.005-77.647-349.48-116.505-6.56-1.974-12.94-4.527-19.527-6.382-6.558-1.31-12.878 2.396-19.017 4.029-100.339 33.452-200.674 66.889-301.01 100.324-87.802 29.33-175.659 58.504-263.446 87.829-38.52 12.817-77.015 25.657-115.52 38.495-18.005 5.974-35.995 12.026-54 18-8.822 2.95-17.652 5.903-26.471 8.83-4.346 1.012-8.371 2.451-8.57 8.208-90.761 544.76-181.624 1089.514-272.367 1634.27-35.423 208.458-69 418.87-104.891 626.797m111-95v1.5h2102v-1.5c-63.81-378.768-126.215-757.87-189.705-1136.696-47.349-283.998-94.654-568.016-142-852-4.398-26.67-8.911-53.338-13.325-80.003-1.118-6.656-2.232-13.342-3.35-19.985-.571-3.586-1.119-7.183-2.096-10.662-1.288-2.958-6.82-3.128-9.193-4.54-101.51-33.828-203.017-67.663-304.512-101.514a746151 746151 0 0 1-266.522-88.84c-39.072-12.89-78.06-26.135-117.144-38.98-4.713-1.335-9.273 1.032-13.839 2.453-144.507 48.104-288.95 96.378-433.449 144.467-54.18 18.08-108.385 36.116-162.566 54.195-23.808 7.923-47.625 15.882-71.434 23.805-5.676 1.96-11.407 3.738-17.06 5.726-6.564 1.113-6.72 8.744-7.34 13.268C740.08 921.349 682.77 1265.54 625.383 1609.692 566.339 1961.663 508.308 2314.864 449 2666.5" style="fill:gray;fill-rule:evenodd;stroke:none"/><path d="M1099 1309h2c.12-1.868 2.03-3.273 1.865-5.24-.174-1.966-1.947-3.618-3.865-3.76zm64-337.5c.05.544.222 1.035.5 1.5l22.5-22.5c-3.762-1.16-6.852 4.436-10.266 6.53-4.11 4.007-9.946 8.207-12.734 14.47M1295 2424h10v-2c-3.36-.16-6.65-.841-10-1zm145-1280c-.212-2.267-2.336-3.215-4.216-2.692-.924.208-1.855.524-2.784.692.144 1.933 1.987 2.01 3.263 2zm10.438 400c2.878-.897 6.589-3.028 8.562-4.5-2.993-1.56-9.443 1.133-8.562 4.5m138.062-95 13.5-13.5a3.06 3.06 0 0 0-1.5-.5c-3.355 1.096-5.717 3.779-8.225 6.103-2.164 2.076-4.712 4.603-3.775 7.897m20.5-655.5c.03.55.186 1.058.5 1.5h1.5c4.208-2.676 2.534-10.633 3-14.49V736.15c.003-4.808-.003-9.593.002-14.39-.074-3.947-.072-9.636 3.998-9.761v-2h-7v83c-.643.05-1.412-.043-2 .5m1 25c2.09 8.842.243 18.278 1 27.258v42.528c-.865 13.106 1.198 28.814-1 40.714h3c2.357-18.381-.024-37.11 1-55.56-.889-17.875 1.222-39.132-1-55.44h-3zm128 51.5h2v-13h-2c-.064 2.385-1.187 4.654-1.547 6.917-.043 2.128 1.58 3.944 1.547 6.083m1-94h2v-15h-2c-.257 2.735-.64 5.448-1.388 8.085-.71 2.517 1.404 4.411 1.388 6.915m171.5 702 5.5-5.5c-2.9-1.347-4.72.73-5.631 2.975-.25.83-.375 1.605.131 2.525" style="fill:#0d0b08;fill-rule:evenodd;stroke:none"/><path d="M1312 1105c3.174.289 5.23-2.187 5-5-1.747.092-3.438-.214-5-1z" style="fill:#ebcb9c;fill-rule:evenodd;stroke:none"/><path d="M1308 776c1.31-.02 2.907.089 4-.5-.904-.743-1.813-2.107-1-3-.937-.48-1.967-.512-3-.5z" style="fill:#89775b;fill-rule:evenodd;stroke:none"/><path d="M1042 1053.25c2.388 2.662 6.042 4.002 8.5 6.75 31.62-18.688 61.491-40.635 89-65 1.892 2.387 2.556 6.571 3.5 10h57v113c-42.929.76-86.151-.926-129 .5 3.68 7.475 3.986 18.135 8.293 24.593 7.024 1.698 14.629.418 21.815.907H1200v284c-47.042 5.892-93.727 15.982-141 20 .789 6.504 6.324 12.567 8.471 17.956 22.319 39.961 42.237 81.41 65.029 121.044 7.967-3.386 16.027-7.72 20.564-15.61 2.755-2.248 3.043-7.014 6.296-9.18 28.035-13.297 55.877-27.34 84.045-40.409 42.278-21.06 84.427-42.391 125.902-64.928 20.34-10.797 40.209-22.438 60.26-33.766 9.884-5.544 19.354-11.768 29.078-17.546 4.992-2.83 9.632-6.166 14.509-9.153 2.42-1.146 4.336-2.915 6.12-4.838.791-2.85-.12-5.638-.274-8.57-29.002 2.338-57.409 10.06-86.248 13.714-26.54 4.718-53.237 8.55-79.752 13.286v-266h105c5.707-.075 11.502.371 17.105-.89 2.195-.474 4.772.135 6.882-.178 2.713-.135 5.621-1.457 8.013-1.932.692 5.466 2.987 10.607 4 16h146c-8.574 87.238-34.216 174.337-81.209 248.788-44.813 71.243-110.026 126.57-180.791 170.712 1.908 4.024 5.286 9.283 8.5 13.5 45.09-18.424 90.73-36.111 132.63-60.967 31.74-17.16 61.023-38.438 88.724-61.452 5.252-4.592 10.536-9.09 15.71-13.75 5.143-5.063 7.092-10.153 12.528-14.358 9.642-7.482 17.65-16.794 25.365-26.317 26.21-32.016 47.121-68.1 63.3-106.09 16.585-40.573 27.043-83.221 35.743-126.066 6.949 74.794 17.136 149.639 35.168 222.667 9.154 34.917 20.353 69.518 37.007 101.665 6.964 15.606 16.176 29.913 25.379 44.22 8.597 14.925 21.448 27.411 30.946 41.448h2c1.64-34.678 18.397-67.205 40.372-93.214 10.53-12.436 24.277-25.415 35.9-34.48 6.632-5.04 13.242-10.144 20.264-14.643 3.247-2.635 8.218-4.72 10.07-7.806 1.168-3.747.868-9.45 2.394-12.357-54.739-24.907-109.914-55.382-148.218-103.284-39.97-48.02-63.326-107.556-75.782-168.216h170.4c13.12-.501 40.247 5.044 46.6-14.543-16.477-16.23-34.243-31.076-52.008-45.87-18.121-14.036-35.15-29.977-53.492-43.587-15.542 19.608-29.54 40.415-44.878 60.19-3.653 5.037-7.77 11.1-11.54 15.396-2.946 4.077-11.37 1.539-15.367 2.414H1728c2.219-28.936 5.992-57.77 7.157-86.783 3.135-29.987 1.667-60.198 3.843-90.217h100.8c16.82-.011 33.631.014 50.438-.008 13.08-.826 32.472 2.688 39.762-15.492-33.958-29.655-67.617-60.972-104-87.5-16.05 26.444-38.922 49.576-55 76h-32c-.04-10.669.249-21.353.48-32.017l.35-16.517c.062-4.68.61-10.192-2.83-13.966 4.063-6.827 2.802-15.384 3.005-22.918.102-12.244.392-24.507.545-36.743l.292-18.373c.1-5.38.72-12.38-2.842-15.966 3.208-4.82 1.874-11.203 3.454-16.463.182-3.95 7.862-3.524 10.215-5.116 9.862-3.106 22.985-10.999 23.331-24.921-53.747-2.015-107.282-11.877-161-13-2.354 13.754.02 27.993-1 41.854v21.517c-.558 6.44 1.36 15.061-2.5 19.629-21.339-7.27-44.54-10.111-66.263-16.444-22.181-4.767-44.087-10.753-66.237-15.556.71 57.748-6.464 115.19-15.21 172.118-4.933 27.689-10.352 55.281-17.46 82.494-3.45 13.589-7.33 27.08-11.513 40.46-2.127 6.38-4.25 12.75-6.384 19.115-3.48 7.412 4.694 10.262 10.067 12.813 45.375-36.243 82.822-82.98 108.5-135h65c-.274 59.038-2.378 118.248-8 177-48.246-.76-96.876.926-145-.5.87-2.868-3.438-5.604-5.237-8.234-15.237-15.247-30.5-30.498-45.738-45.741-7.404-7.804-15.22-15.15-23.254-22.268-7.758-6.934-14.345-15.803-23.271-21.257-16.293 23.136-30.71 47.867-47 71-1.426-32.83.26-66.075-.5-99h65.4c10.95-.231 21.9.3 32.827-.205 4.772-.41 9.625-1.433 13.738-3.986 4.032-1.95 6.245-7.46 8.035-10.309-15.662-15.677-31.02-31.665-47.972-45.994-16.448-14.414-32.412-30.015-49.528-43.506-10.236 13.2-18.787 27.688-28.845 41.028-7.004 10.438-14.366 20.604-21.362 31.042-1.256 2.029-2.783 3.84-4.779 5.162-10.01 1.841-20.7-.05-30.853.768-30.46-.76-61.328.926-91.661-.5 6.014-6.32 10.961-14.623 19.23-20.886 24.28-20.908 44.497-48.361 64.7-73.532 19.962-25.04 35.96-52.923 52.57-80.082 17.425 20.921 30.186 45.364 42.686 69.375 4.602 9.282 8.46 18.94 12.084 28.636 3.539 7.674 14.29 11.45 21.168 14.913 29.691 11.931 68.117-3.44 79.866-33.797 13.969-33.466-13.361-64.102-38.01-77.533-27.229-16.433-58.28-24.665-89.452-29.337-4.561-.854-9.202-1.305-13.842-1.257v-2c15.669.174 38.05-4.964 39-22-26.364-7.127-52.062-17.049-78.135-25.2-25.61-8.923-52.074-16.126-77.365-25.8-.45.458-.96.911-1.5 1.25-10.565 64.421-33.34 126.292-57.068 186.786-12.119 30.044-26.347 59.14-41.84 87.57-14.87 26.897-30.968 53.58-50.092 77.644m6 1030.063c1.672 2.743 4.076 6.42 5.5 8.687 38.624-15.121 77.022-31.412 113.63-50.965 35.996-18.728 71.564-38.603 105.37-61.035 2.89 7.086 5.455 16.051 6.5 23h137v133h-294c1.53 7.814 4.104 15.48 6.287 23.128 1.031 4.387 9.246 2.17 12.096 2.872H1416v299h-342c1.626 8.86 6.127 18.764 7 27h796.8c11.103.095 22.243.202 33.292-1.077 7.516-1.23 17.945-2.658 20.342-13.325-2.347-5.994-10.85-10.954-15.294-15.482-38.158-33.108-79.906-61.776-118.64-94.116-14.12 17.201-27.044 35.426-40.88 52.865-10.264 13.165-20.447 26.388-30.687 39.57-4.216 6.395-12.45 4.21-18.493 4.565H1557v-299h297.6c11.336.002 26.637.746 32.4-14.5-40.082-34.796-82.342-67.057-123.5-100.5-10.899 15.827-23.382 30.787-34.719 46.343-8.916 11.648-17.843 23.284-26.585 35.064-1.49 2.258-3.305 4.283-5.083 6.283-5.58 2.654-11.5.403-17.45 1.31H1557v-133h73.8c18.65-.136 37.283.167 55.93-.092 11.957-.586 28.763-.295 32.352-13.083 1.762-4.01-6.214-7.207-7.729-9.845-23.832-20.306-48.657-39.324-73.033-58.934-10.244-8.064-20.752-15.762-30.82-24.046-16.96 21.514-34.031 42.976-50.908 64.556-3.378 3.863-6.239 8.188-9.776 11.906-3.883 3.756-10.98 2.13-15.829 2.538-83.572-.76-167.534.926-250.987-.5 50.664-34.707 100.254-71.406 144.986-113.67 45.748-42.05 87.71-88.47 121.514-140.83 13.815 36.148 27.578 73.22 48.858 106.011 30.787 49.808 69.784 94.849 114.62 132.464 43.21 36.392 90.656 67.433 139.522 95.525 5.357-30.293 18.183-59.349 36.21-84.283 17.941-25.069 42.837-46.085 73.29-53.717-.017-3.106-.014-6.243.303-9.33-.01-1.906.472-4.755-.746-5.906-6.282-1.956-13.378-2.818-19.812-4.6-71.327-16.197-142.212-35.546-209.424-64.819-64.254-27.627-125.364-66.635-168.321-122.845 18.889-3.614 44.269-4.177 51-23-33.29-10.289-67.634-17.688-101.227-27.05-33.948-8.67-67.684-18.427-101.773-26.45-12.054 47.796-35.642 91.716-61.024 133.557-38.263 62.403-85.496 118.836-134.884 172.57-25.965 26.603-52.1 53.177-80.285 77.386-27.097 23.657-55.51 45.691-84.807 66.487zm54-779.563c-4.574 7.48-2.461 20.074-4.129 30.028a328 328 0 0 1-2.998 23.096c-.396 2.844-.73 5.732-.397 8.59 9.639 15.936 29.222 28.443 48.497 26.002 27.316-3.516 46.181-29.025 49.31-54.99 3.405-23.752-.665-48.471-11.958-69.81-10.816-22.18-24.912-43.438-44.274-59.196-6.911-6.804-14.562-12.77-22.059-18.877-4.082-2.945-8.145-5.938-12.225-8.866-4.631-2.69-8.9.216-13.767.273 4.045 19.92 6.787 40.138 8.547 60.4.952 10.769 1.276 21.601 1.988 32.381.28 5.436.512 10.867.465 16.304.089 4.627-.94 10.359 3 14.665M1296 2422c17.467 3.958 35.716-3.602 48.991-14.786 13.594-11.154 22.403-26.952 26.055-44.01 4.612-22.19-1.026-45.416-11.488-65.053-10.232-18.773-28.342-36.655-42.79-49.53-15.608-13.035-33.151-23.13-51.603-31.549-9.345-4.528-18.939-8.63-28.628-12.371-9.389-2.96-19.13-9.18-29.537-4.701 13.399 42.373 24.66 85.822 28.084 130.381.862 11.26 2.041 24.51 1.688 34.884.118 8.63-1.148 18.854-.308 26.734 6.4 9.414 18.535 16.538 27.011 22.172 5.301 2.96 10.881 5.5 16.699 7.26 2.835.7 5.703 1.301 8.545 1.941 2.707.525 6.558.945 7.281-1.372m174-1203.5c-9.108-5.059-20.443-5.804-30.102-9.708-31.766-8.74-62.994-19.68-94.898-27.792-5.014 59.69-11.951 119.279-20.672 178.551-.282 3.186-1.446 7.497-.928 10.133-.22 3.36 5.425 4.786 7.418 6.225 6.51 4.122 11.018-3.476 14.767-7.82 27.5-32.208 51.606-67.215 73.347-103.495 3.127-5.173 6.225-10.385 9.213-15.633 2.29-3.63 4.231-8.454 7.197-11.12 6.817-1.54 14.825-.975 21.23-4.817 6.336-2.884 10.37-8.633 13.428-14.524m90-292c16.64 2.827 34.935-1.993 51.5 1.5 2.793-8.654.707-18.31 1.5-27.227v-62.788c-.378-6.026.824-13.753-1.5-18.985-3.964 2.365-11.107-.676-12.939 6.22-10.637 34.332-23.005 69.075-38.561 101.28m34 1495.125c3.718 2.3 8.492 6.895 12.474 5.232 4.722-2.332 8.64-6.203 13.146-8.915 35.67-25.27 69.166-53.693 101.27-83.265 16.836-14.577 31.477-31.559 47.712-46.78 4.023-3.937 8.04-7.876 11.529-12.289 4.822-6.325 16.311-3.925 24.387-6.798 7.895-2.554 15.13-8.172 18.482-15.892-2.308-2.661-7.414-3.032-10.972-4.909-53.936-19.89-108.697-37.968-162.528-58.009-8.33 39.433-16.926 78.91-26.299 118.12-8.961 37.754-17.495 76.775-29.201 113.505" style="fill:#000;fill-rule:evenodd;stroke:none"/></svg>