<svg xmlns="http://www.w3.org/2000/svg" width="3000" height="3000"><path d="M448 2669h2104c-108.019-653.996-218.137-1307.761-326.618-1961.691-6.813-40.83-13.621-81.671-20.41-122.502-.9-5.185-1.732-10.375-2.627-15.558-.693-5.948-7.25-6.546-11.566-8.162a2264805 2264805 0 0 1-451.953-150.644c-56.522-18.824-113.032-37.715-169.56-56.514-12.477-4.17-24.972-8.31-37.44-12.486-6.015-1.98-11.998-4.026-18-6-5.943-1.873-12.256-5.247-18.565-3.023-92.812 30.91-185.585 61.892-278.396 92.78-138.737 46.826-278.12 92.047-416.698 139.266-3.665 1.962-2.298 9.57-3.876 12.727-22.4 134.514-44.811 269.006-67.243 403.502C635.746 1543.503 540.855 2106.166 448 2669m605-579c10.536-1.804 19.908-8.21 30.17-11.064 33.83-13.93 66.471-30.41 98.95-47.126 15.306-8.527 30.908-16.58 45.887-25.708 7.79-4.556 15.501-9.267 23.07-14.166 3.666-2.354 7.587-4.276 11.185-6.742 3.56-2.106 8.206-5.846 11.738-6.194 1.718 7.458 5.514 15.902 6 23h137v135c-97.929.76-196.151-.926-294 .5 4.317 6.787 3.08 17.935 7.85 22.867 26.922 1.806 54.224-.329 81.222.633H1417v301h-341c.422 8.356 5.769 17.308 6 25h804c16.561-.468 37.203 1.466 45-13.5-41.593-39.276-89.779-70.812-133.5-107.5-13.924 17.431-27.04 35.527-40.908 53.005-10.129 13.251-20.24 26.535-30.602 39.59-4.207 5.315-13.506 2.626-19.346 3.405H1556v-301h291.6c9.054-.131 18.57.947 27.175-2.557 3.288-1.397 6.383-3.563 8.367-6.599 3.07-3.763.15-5.978-2.858-8.138-18.873-16.708-38.704-32.273-58.29-48.115-19.703-14.785-37.952-32.061-58.494-45.591-11.905 15.133-23.11 30.818-34.972 45.977-8.812 11.507-17.652 23.01-26.264 34.657-3.314 6.473-8.684 7.212-15.027 6.366H1556v-135h85.8c14.458-.1 28.902.123 43.345-.07 11.438-.974 26.618 1.07 33.855-13.43-35.996-31.217-73.758-60.461-111.5-89.5-16.696 21.749-34.155 43.115-50.946 64.827-3.321 3.624-6.39 8.722-9.898 11.592-3.854 3.156-12.11.533-16.467 1.581H1279c.195-4.046 5.171-6.177 7.93-8.295 50.26-32.944 97.076-71.175 141.44-111.585 22.371-21.236 43.87-43.208 64.28-66.358 9.488-11.678 19.33-23.12 28.126-35.329 4.396-6.245 9.252-12.143 13.333-18.607 2.053-3.144 4.225-6.208 6.234-9.367 2.104-2.94 4.276-7.192 7.657-7.459 12.49 36.38 27.467 72.276 47.763 105.117 30.436 49.688 69.244 94.372 113.628 132.008 43.026 36.555 90.49 67.473 139.109 95.875 5.897-30.026 18.269-58.963 36.505-83.665 17.91-24.897 42.704-45.733 72.995-53.335.076-4.17-.268-8.467 1-12.5-37.571-10.023-76.906-17.083-114.195-28.997-55.047-16.168-109.411-35.712-160.237-62.478-23.343-13.264-46.732-26.718-67.554-43.808-10.602-9.12-21.502-17.875-31.208-27.97-4.241-5.318-9.955-10.87-14.04-15.567-3.524-5.197-10.961-11.279-11.766-16.68 9.823-.359 19.442-2.91 28.983-5.013 8.462-2.212 17.687-6.697 21.017-15.362-65.463-20.233-133.736-34.078-199.5-53.625-13.369 47.457-35.406 91.883-61.524 133.557-38.367 62.083-85.034 118.801-134.689 172.071-49.688 53.215-104.47 101.815-164.287 143.372.335 2.633 2.35 4.523 3 7m1-1085.5c1.084 3.957 2.598 7.751 3.521 11.78.825 3.3 1.889 6.519 3.01 9.705.934 2.286 5.262 1.6 7.095 2.013 7.982.006 15.97-.001 23.945.002h420.186c4.28.08 8.61-.103 12.715-1.399 3.53-.895 7.168-3.456 10.528-3.601v396c.656 30.9-1.686 62.106 3.088 92.74 2.487 12.281 6.327 24.605 13.976 34.682 13.95 19.341 39.15 25.099 61.143 28.39 43.959 4.697 88.311 2.887 132.426 2.753 32.578-.367 65.188-1.076 97.573-4.961 22.59-3.533 45.96-7.155 66.63-17.532 14.913-6.673 27.854-18.487 33.884-33.97 4.414-12.054 4.47-28.01-.416-38.805-3.351-8.896-10.468-15.735-18.207-20.85-5.452-4.004-11.746-6.502-17.79-9.37-5.807-2.645-3.986-9.732-4.637-14.575-1.611-16.292-2.15-35.508-3.496-50.46-.087-.68-.14-1.37-.174-2.042 7.422-1.344 17.398-3.782 21-13.336-31.635-27.483-65.201-53.335-98.5-78.664-9.683 11.654-18.57 23.945-28.213 35.637-7.02 8.934-14.032 17.865-21.045 26.795-5.052 7.98-17.633 5.012-25.555 5.568H1659v-76h188.4c14.078-.626 31.903 3.065 41.454-8.716 4.299-5.388-2.76-8.562-5.95-11.894-26.62-23.116-54.03-46.32-82.904-66.39-17.1 20.042-32.179 42.122-49.373 62.129-7.38 1.715-15.38.318-22.916.871H1659v-72h190.8c10.63-.184 21.244.237 31.865-.161 7.827-.29 18.295-3.416 21.335-13.386-25.053-23.398-52.506-45.26-80-65.453v-3c19.618-3.826 42.917-8.792 59.81-16.151 6.35-1.996 6.821-8.357 6.19-13.173V975c13.398-2.78 26.763-7.91 36-18.5-37.533-27.74-75.17-55.516-112.5-83.5-9.413 9.94-18.524 20.178-27.561 30.441-7.214 7.401-13.55 15.582-20.81 22.929-5.34 6.516-16.166 4.285-23.544 4.63H1663v-72h209.4c11.617-.005 23.22.007 34.832-.004 10.255.538 23.305-4.23 25.768-13.543-36.56-33.164-74.499-64.93-112.5-96.453-17.753 25.478-36.433 50.55-54.425 75.913-2.392 3.13-4.484 6.588-7.413 9.244-7.627 1.792-16.29.175-24.149.843H1663v-73.2c.052-6.013.088-12.043-.44-18.028-.776-5.272 5.265-5.061 9.257-6.028 5.738-1.188 12.128-4.288 16.24-7.737 3.993-3.894 6.657-10.17 7.943-15.007-53.374-4.018-107.368-8.026-160.5-13-1.426 102.54.26 205.401-.5 308-4.546-.788-8.485-6.623-12.95-9.53-27.217-24.351-55.056-48.761-83.55-71.47-9.654 12.046-18.162 25.012-27.591 37.24-8.23 12.987-19.275 24.52-26.909 37.76h-54v-2.5c24.294-21.221 45.422-45.774 68.264-68.427 10.551-12.171 21.813-23.69 32.098-36.108 5.158-8.207 14.004-5.578 21.982-8.343 7.153-2.701 14.69-7.67 16.656-15.622-37.748-8.142-75.2-18.155-113-26v-3c47.457-.715 95.017.872 142.433-.471 4.957-.736 10.354-3.607 13.432-7.016 1.274-1.461 3.463-5.006 2.052-6.509-23.107-24.942-50.773-45.377-75.848-68.267-7.907-5.654-14.611-13.33-22.569-18.737-11.672 14.223-21.683 29.866-32.868 44.47-5.535 7.67-11.168 15.29-16.7 22.952-2.737 3.446-5.289 9.03-9.56 9.311-5.103.56-10.252.063-15.372.267v-64.2c.22-5.193-.318-11.349.29-16.088-.124-3.737 5.938-4.272 8.411-5.466 5.096-1.577 10.075-3.746 14.278-7.085 4.558-3.476 4.808-8.294 7.021-12.661-51.872-4.526-104.162-7.584-156-12.5v118c-50.264.76-100.81-.926-151 .5 3.328 7.354 4.397 15.845 7 23.5h66c10.527 28.21 20.433 57.029 22.919 87.345.596 8.324 1.216 16.682.933 25.027-.057 6.351-.88 12.638-1.283 18.957-.643 3.87 5.37 7.187 7.222 9.807 8.96 7.18 21.24 15.379 32.209 15.864v3h-145zm53 580.5c34.596 1.472 69.742-4.116 100.144-21.639 6.504-4.068 14.777-9.248 18.326-15.582 2.621-6.44.95-13.761 1.53-20.496V1347h110c-.006 34.195.007 68.406-.004 102.597.122 4.034-.709 8.389-3.724 11.329-4.698 4.59-14.175 2.557-21.123 3.074-21.429.355-42.777-2.054-64.149-3v9c12.34 3.236 25.411 5.903 36.238 13.134 15.71 10.612 26.436 27.687 30.299 46.023 5.868 19.471 3.832 40.022 6.463 59.843 19.761-.773 39.422-4.448 58.626-8.92 27.51-6.368 56.568-20.087 70.142-46.58 13.522-27.466 13.384-58.854 14.087-88.602.414-57.304-.075-114.63.145-171.932v-107.853c.283-5.14-.422-11.265.417-15.927-.023-3.733 7.2-3.332 9.29-4.936 10.042-2.757 19.325-7.91 26.293-15.75-38.688-29.987-78.27-58.967-116.5-89.5-17.194 21.588-37.856 41.193-54.5 63h-62.4c-14.703-.192-32.565 1.59-45.106-4.195-38.388-14.236-76.039-30.838-114.494-44.805zm50-739.5v1.5c36.707 11.055 74.029 29.364 96.778 61.61 11.024 16.427 16.658 38.324 8.23 57.188-6.95 17.547-26.104 34.069-44.008 35.202v3h69.6c5.435-.09 10.962.265 16.328-.523 3.248-1.845 1.98-8.79 3.568-11.592 5.194-30.194 8.899-60.622 13.283-90.928 3.058-18.377 3.797-37.033 6.221-55.457-2.89-2.003-6.668-1.247-9.983-1.5H1157zm51 1355.75c14.427 38.825 22.377 80.223 27.443 121.302 1.688 16.584 2.748 33.278 2.14 49.945.286 6.655-1.888 16.655 1.781 21.228 16.544 17.851 40.848 31.169 65.773 28.968 37.176-3.17 67.017-38.234 66.54-75.148-.771-18.686-5.72-37.017-15.675-52.99-9.842-14.719-23.617-30.779-35.991-41.338-15.617-13.442-33.186-24.613-51.91-33.186a272 272 0 0 0-28.674-12.862c-8.721-2.945-21.302-9.391-29.1-6.784-.725.359-1.606.515-2.327.615zm19-991.25h110v-84h-110zm0 112h110v-87h-110zm310-317.5v1.5c37.034 12.211 73.132 27.414 109.98 40.205 9.132 2.993 19.61 8.514 28.548 8.782 31.179.038 62.31-.008 93.472.013V955h-106c-.232 6.259.715 14.265-2.021 18.984-6.11 7.846-20.111 11.563-27.099 14.896-31.069 11.13-64.047 15.101-96.88 14.12zm59 1417.5c2.797.821 5.787 3.35 8.5 5 37.777-26.712 74.564-55.222 108.55-86.711 17.363-16.359 34.576-32.871 51.183-50.022 4.155-4.307 8.606-8.37 12.582-12.835 5.212-9.304 17.494-7.494 24.936-9.148 8.03-2.213 18.208-8.617 19.249-16.284-57.324-18.731-113.645-41.262-171-60-15.544 77.122-34.052 153.956-54 230m63-1257h87.6c3.17-.09 7.061.45 9.862-2.318 7.105-8.445 13.621-17.397 20.512-26.009 3.434-4.316 6.81-8.68 10.124-13.075 2.856-4.137 8.24-9.332 8.902-13.598h-27v-30h-110zm230 220h-230v36c.407 8.583-.82 18.961 1.236 26.662 5.136 13.141 22.431 10.643 33.122 11.338h92.671c13.085.131 26.143-.285 39.211-.874 20.125-.602 31.775-12.967 40.64-28.077 4.295-7.13 8.812-14.104 12.455-21.601 3.325-7.482 9.837-15.768 10.665-23.448" style="fill:#fda;fill-rule:evenodd;stroke:none"/><path d="M338 2761.5c387.06 1.426 774.925-.26 1162.15.5 387.224-.76 774.71.926 1161.85-.5-77.265-456.459-152.125-914.01-228.874-1370.691-28.417-170.851-56.988-341.657-85.4-512.497-12.491-74.824-24.942-149.684-37.431-224.508-5.828-35.176-11.741-70.32-17.569-105.492-3.54-17.097-4.968-34.714-9.072-51.664-1.3-3.941-8.915-3.966-11.797-5.85-133.175-44.44-266.372-88.79-399.558-133.193-116.482-38.867-233.005-77.647-349.48-116.505-6.56-1.974-12.94-4.527-19.527-6.382-6.558-1.31-12.878 2.396-19.017 4.029-100.339 33.452-200.674 66.889-301.01 100.324-87.802 29.33-175.659 58.504-263.446 87.829-38.52 12.817-77.015 25.657-115.52 38.495-18.005 5.974-35.995 12.026-54 18-8.822 2.95-17.652 5.903-26.471 8.83-4.346 1.012-8.371 2.451-8.57 8.208-90.761 544.76-181.624 1089.514-272.367 1634.27-35.423 208.458-69 418.87-104.891 626.797m111-95v1.5h2102v-1.5c-63.81-378.768-126.215-757.87-189.705-1136.696-47.349-283.998-94.654-568.016-142-852-4.398-26.67-8.911-53.338-13.325-80.003-1.118-6.656-2.232-13.342-3.35-19.985-.571-3.586-1.119-7.183-2.096-10.662-1.288-2.958-6.82-3.128-9.193-4.54-101.51-33.828-203.017-67.663-304.512-101.514a746151 746151 0 0 1-266.522-88.84c-39.072-12.89-78.06-26.135-117.144-38.98-4.713-1.335-9.273 1.032-13.839 2.453-144.507 48.104-288.95 96.378-433.449 144.467-54.18 18.08-108.385 36.116-162.566 54.195-23.808 7.923-47.625 15.882-71.434 23.805-5.676 1.96-11.407 3.738-17.06 5.726-6.564 1.113-6.72 8.744-7.34 13.268C740.08 921.349 682.77 1265.54 625.383 1609.692 566.339 1961.663 508.308 2314.864 449 2666.5" style="fill:gray;fill-rule:evenodd;stroke:none"/><path d="M1227 1209.5v1.5h111v-85h-2c-.004 26.96.004 55.679 0 83h-82.2c-8.735-1.075-18.3 1.408-26.8-1zm0 26 .5 1.5c3.356-1.79 8.78-.498 13.078-1H1336v85h-96c-4.12-.451-9.3.725-12.5-1-.384.972-.51 1.963-.5 3h111v-89h-111z" style="fill:#7f6e55;fill-rule:evenodd;stroke:none"/><path d="M1658 1261h2c.027-22.966-.027-47.676 0-71h224v-2h-198.6c-8.935 1.073-18.7-1.407-27.4 1z" style="fill:#40372b;fill-rule:evenodd;stroke:none"/><path d="M1048 2083.344c1.62 2.976 3.356 5.969 5.5 8.656 38.797-14.985 77.063-31.681 113.926-50.968 35.735-19.026 71.431-38.48 105.074-61.032 2.89 7.086 5.455 16.051 6.5 23h137v133h-294c1.53 7.814 4.104 15.48 6.287 23.128 1.031 4.387 9.246 2.17 12.096 2.872H1416v299h-342c1.626 8.86 6.127 18.764 7 27h796.8c11.103.095 22.243.202 33.292-1.077 7.516-1.23 17.945-2.658 20.342-13.325-2.347-5.994-10.85-10.954-15.294-15.482-38.157-33.11-79.906-61.778-118.64-94.116-14.212 17.136-26.94 35.515-40.942 52.825-10.315 13.134-20.259 26.522-30.625 39.61-4.216 6.395-12.45 4.21-18.493 4.565H1557v-299h297.6c11.336.002 26.637.746 32.4-14.5-39.916-34.973-82.513-66.858-123.5-100.5-10.899 15.827-23.382 30.787-34.719 46.343-8.923 11.648-17.85 23.284-26.585 35.064-1.49 2.258-3.305 4.283-5.083 6.283-5.58 2.654-11.5.403-17.45 1.31H1557v-133h73.8c18.46-.106 36.9.13 55.345-.07 12.144-.634 28.659-.105 32.838-12.628 2.072-4.173-5.178-7.606-7.206-9.995-23.9-20.464-49.032-39.434-73.388-59.332-10.267-8.022-20.882-15.644-30.889-23.975-16.96 21.514-34.031 42.976-50.908 64.556-3.378 3.863-6.239 8.188-9.776 11.906-3.883 3.756-10.98 2.13-15.829 2.538-83.572-.76-167.534.926-250.987-.5 50.872-34.404 99.96-71.706 145.033-113.522 45.512-42.357 87.82-88.421 121.467-140.978 13.808 36.078 27.42 72.859 48.573 105.585 30.714 49.864 69.725 94.883 114.511 132.553 43.316 36.541 90.91 67.673 139.916 95.862 5.357-30.293 18.183-59.349 36.21-84.283 17.941-25.069 42.837-46.085 73.29-53.717-.017-3.106-.014-6.243.303-9.33-.01-1.906.472-4.755-.746-5.906-6.303-1.766-13.277-2.928-19.698-4.691-71.43-15.894-142.258-35.598-209.537-64.728-64.253-27.626-125.356-66.628-168.322-122.845 18.889-3.614 44.269-4.177 51-23-33.245-10.336-67.571-17.592-101.095-27.079-34.035-8.51-67.743-18.481-101.905-26.421-12.122 47.958-35.795 92.02-61.3 134.003-38.479 62.243-85.385 118.964-135.053 172.462-25.817 26.705-52.054 53.15-80.206 77.355-13.74 11.8-27.473 23.558-41.901 34.522-13.255 11.799-29.228 20.397-42.54 32.002M1534 1024v396c.656 30.9-1.686 62.106 3.088 92.74 2.487 12.281 6.327 24.605 13.976 34.682 13.827 19.207 38.806 24.985 60.64 28.324 43.853 4.76 88.15 2.965 132.17 2.86 32.613-.258 65.26-.922 97.689-4.682 22.617-3.3 45.825-6.98 66.767-16.596 15.009-6.593 28.824-17.222 35.382-32.83 4.88-11.775 5.798-27.845 2.213-39.036-6.374-20.71-23.737-27.22-39.763-35.757-3.829-2.547-1.143-10.713-2.567-14.325-1.538-14.976-1.942-30.042-2.926-45.044-.186-1.453-.43-2.905-.669-4.336 6.204-1.112 12.775-2.546 17.089-7.635 2.036-1.988 4.547-5.722 2.898-8.196-2.353-2.013-4.428-4.302-6.74-6.363-7.873-7.011-16.14-13.513-24.255-20.219-22.435-17.6-44.695-35.496-67.492-52.587-10.037 11.292-18.485 23.925-28.257 35.432-6.965 8.958-14.042 17.831-21.004 26.78-5.124 9.06-15.993 6.744-24.755 6.788H1660v-74h190.8c14.24-.4 33.905 2.772 40.365-11.26 1.805-5.736-4.936-8.553-7.77-11.84-27.162-23.1-54.457-47.084-84.067-66.9-16.361 20.923-32.51 42.089-49.236 62.707-6.434 2.598-15.985.42-22.783 1.293H1659v-55.8c.107-4.003-.257-8.766.45-12.382.442-3.918 7.78-2.32 10.132-2.818h205.368c8.302.629 29.965 1.076 28.086-14.828-11.363-13.058-26.202-22.823-39.009-34.36-13.398-10.279-26.508-21.313-40.027-31.312 14.591-3.91 29.752-5.903 44.122-10.804 10.174-2.855 23.53-6.444 21.878-17.824V976c13.966-2.738 27.531-8.475 37-19.5-19.868-15.313-40.309-29.942-60.47-44.868-15.4-11.261-30.641-22.702-45.908-34.137-2.797-1.535-6.183-5.064-8.97-5.002-8.864 7.788-18.325 19.955-27.142 29.313-6.796 7.217-14.243 16.125-20.515 22.695-5.826 7.43-15.496 5.37-23.171 5.499H1664v-70h226.8c8.955-.367 19.704.748 27.783-1.144 6.067-1.934 15.18-4.89 14.867-14.262-35.79-34.562-75.39-65.006-112.95-97.594-18.343 25.083-36.28 50.495-54.5 75.666-2.506 2.924-4.764 6.914-7.207 9.466-2.358 2.458-7.152 1.683-10.887 1.868H1664v-70.2c-.415-7.17.748-15.861-1-22.3 3.132-2.33 8.776-1.908 13.005-3.547 11.127-2.667 20.605-11.993 20.995-23.953-54.348-3.862-108.72-8.454-163-13-.76 102.568.926 205.55-.5 308-30.963-28.07-62.308-55.941-95-82-10.219 11.754-18.237 25.258-28.005 37.379-8.354 13.311-19.693 25.091-27.495 38.621-17.246-.718-34.877.885-52-.5 24.59-21.814 46.503-46.485 69.494-69.875 10.778-12.184 22.148-23.82 32.393-36.478 5.334-6.657 15.703-3.174 22.54-7.399 7.242-2.996 13.706-8.857 15.573-16.748-38.083-8.334-76.052-17.537-114-26.5 28.217-1.423 56.6.257 84.852-.5h42.523c11.476.283 26.898 1.188 32.625-14.5-16.07-16.63-33.56-31.713-51.08-46.753-8.59-7.303-17.07-14.689-25.667-21.96-4.229-3.813-8.801-7.183-13.004-11.007-4.042-3.122-9.049-8.623-13.249-9.78-9.305 15.407-21.829 29.436-31.776 44.567-5.312 7.586-10.988 14.878-16.3 22.464-2.727 3.65-5.031 7.806-8.811 10.476-5.009.666-10.073.484-15.113.493v-64.2c.101-5.224-.274-10.56.519-15.72 1.345-2.724 6.86-2.624 9.07-4.116 5.009-1.753 10.17-3.848 14.144-7.497 3.848-3.81 5.47-9.281 6.267-14.467-52.716-3.014-105.337-8.19-158-12v118h-151v1.5c2.548 8.106 4.85 16.287 7 24.5h66c10.693 28.544 20.6 57.764 23.023 88.465.551 8.255 1.202 16.548.707 24.808.101 5.974-1.297 12.914-1.318 18.363 1.33 6.987 12.517 12.682 17.28 16.8 6.519 4.292 15.195 8.049 22.308 9.064-48.29 1.426-96.696-.26-145 .5.8 6.576 3.983 15.09 6.079 22.642.71 4.444 8.163 3.053 11.112 3.358h438.159c9.043 1.065 17.773-.733 25.65-5m-428 562c18.257.47 36.672.535 54.536-3.907 12.7-2.613 24.952-6.688 36.655-12.24 8.5-3.79 16.716-8.25 23.725-14.44 7.153-5.264 7.79-12.35 7.084-19.95V1348h108c-.054 34.016.066 68.02-.036 102.032-.02 3.918-1.37 8.013-4.451 10.598-5.502 3.962-14.718 1.565-20.944 2.37-21.24.398-42.386-2.362-63.569-3v11c12.34 3.236 25.411 5.903 36.238 13.134 15.71 10.612 26.436 27.687 30.299 46.023 5.868 19.471 3.832 40.022 6.463 59.843 19.533-.28 42.296-4.659 59.681-8.683 27.843-6.332 57.348-19.988 71.087-46.816 13.695-27.84 13.398-59.662 14.116-89.794.331-57.51-.06-115.04.116-172.538v-107.853c.135-5.197-.377-10.606.724-15.68 6.52-4.013 13.87-3.483 19.99-7.545 6.342-2.905 11.578-7.565 16.286-12.591-39.83-29.696-78.835-61.493-119-90.5-17.99 20.929-37.92 41.52-55 63h-62.4c-14.956-.133-30.54 1.71-44.424-4.731-38.571-14.552-76.663-30.696-115.176-45.269zm52-740.625c36.03 12.603 74.382 29.089 96.778 62.236 11.194 16.842 16.726 39.278 8.463 58.652-7.454 18.375-24.318 33.005-44.241 36.237 14.3 1.18 28.714-.013 43.032.5h32.194c3.194-.415 9.203.862 10.362-2.471 5.165-24.934 8.065-50.31 11.765-75.489 4.235-25.897 6.361-52.74 9.647-78.54-2.826-2.03-6.58-1.24-9.898-1.5-52.61.57-105.592-.694-158.102.375M1207 2200c9.964 32.346 19.903 65.036 24.107 98.818 3.66 25.545 6.881 51.29 5.327 77.157.063 4.864-.734 10.655-.028 15.089 3.04 8.16 12.41 12.073 17.824 17.315 11.774 8.446 28.161 15.622 41.709 15.613 22.448 1.13 44.537-9.23 58.671-26.516 15.27-17.713 20.397-41.723 16.89-64.357-5.745-35.503-30.088-65.335-57.761-86.808-27.988-21.856-61.32-35.816-94.454-47.701-4.25-1.975-8.694.41-12.285 1.39m21-990h109v-83h-109zm0 112h109v-87h-109zm310-317.625c35.662 13.483 72.034 26.729 107.867 40.092 9.238 2.62 19.413 8.553 28.27 9.447 31.275.245 62.587-.045 93.863.086v-98h-104c-.232 6.259.715 14.265-2.021 18.984-6.11 7.846-20.111 11.563-27.099 14.896-15.035 5.167-30.583 8.696-46.226 11.348-16.628 3.299-33.968 2.015-50.654 3.147m56 1417.25c3.718 2.3 8.492 6.895 12.474 5.232 4.722-2.332 8.64-6.203 13.146-8.915 35.615-25.057 68.877-53.412 100.846-82.87 16.961-14.738 31.794-31.773 48.136-47.174 4.023-3.938 8.04-7.878 11.529-12.29 4.822-6.325 16.311-3.925 24.387-6.798 7.895-2.554 15.13-8.172 18.482-15.892-56.29-23.603-116.528-40.537-173.5-62.918-17.566 77.112-32.85 156.043-55.5 231.625M1660 1164h85.8c3.016.04 7.125.23 9.54-2.21 13.912-16.175 25.825-34.05 39.66-50.29-8.848-1.3-18.072.134-27-.5v-30h-108zm228 222h-228v35.15c.34 8.25-.763 18.216 1.267 25.61 4.95 12.677 21.504 10.629 31.895 11.24h90.871c12.78.16 25.55-.214 38.313-.798 8.475-.237 18.585-2.945 24.988-7.484 9.92-8.088 16.698-19.177 23.263-29.966 5.727-11.232 13.098-21.841 17.403-33.752" style="fill:#000;fill-rule:evenodd;stroke:none"/></svg>