<svg xmlns="http://www.w3.org/2000/svg" width="3000" height="3000"><path d="M364 2760.5v1.5h2272v-1.5c-68.931-409.09-136.257-818.54-204.874-1227.691-51.076-306.848-102.33-613.661-153.4-920.497-4.868-28.824-9.564-57.688-14.431-86.508-1.116-7.008-2.365-13.985-3.488-20.978-1.2-6.774-.246-15.245-9.425-16.859-109.868-36.632-219.702-73.24-329.563-109.867-95.996-32.013-192.02-63.992-288-96-41.993-13.978-83.98-28.011-125.966-41.994-5.663-2.605-10.407-1.693-15.513.621-156.173 52.06-312.354 104.114-468.521 156.173-58.68 19.531-117.334 39.097-175.992 58.657-25.668 8.506-51.298 17.139-76.962 25.643-6.176 2.075-12.369 4.11-18.537 6.195-3.02 1.124-6.483 1.813-8.8 4.255-62.934 375.423-125.132 751.075-187.889 1126.544C490.857 1998.664 428.048 2380.37 364 2760.5m657-1170c1.6 3.987 8.508 5.588 10.454 3.236 9.447-7.197 18.04-15.37 27.011-23.09 45.32-41.084 84.223-89.404 111.47-144.43 45.443-85.966 65.997-183.01 75.22-279.117 9.069-103.69 7.701-207.922 7.845-311.914V732h379v1.5c-3.24 7.142-9.87 12.218-14.023 18.8-9.058 10.936-17.549 22.337-26.727 33.17-3.94 4.812-7.706 9.747-11.66 14.537-3.905 6.549-9.826 6.698-16.333 5.993-100.685.76-201.655-.926-302.257.5 3.658 7.797 4.362 18.716 8.296 25.594 7.413 1.79 15.45.324 23.03.906H1429c-.409 26.987-.024 54.084-2 81-10.612-.15-23.22-8.228-35.018-11.794-33.927-12.193-66.937-27.54-100.982-39.206v500c12.929-.292 28.276-.102 40-2 3.206 14.746 4.02 29.938 4 44.989.773 26.919-.124 53.918-6.81 80.157-.945 4.947-2.67 9.706-3.637 14.636-.556 4.673 3.241 8.122 6.073 11.49 10.396 12.334 25.914 21.058 42.46 19.574 25.23-.765 45.843-21.228 51.849-44.64 7.24-23.99-2.695-49.289-16.363-68.877-8.52-12.556-19.446-23.234-31.292-32.584-5.826-4.845-12.001-9.227-18.142-13.651-3.064-1.972-6.013-4.132-9.126-6.022-3.007-1.653-6.791-3.896-7.012-7.072 16.136-3.068 31.718-8.862 46.619-15.637 7.503-3.147 14.25-7.812 20.738-12.636 8.23-5.458 6.914-14.162 6.643-22.727h240c-1.489 40.99-3.236 82.417-11.049 122.779-2.48 7.942-4.002 19.689-13.669 24.988-6.993 3.506-15.063 3.213-22.624 3.233-23.155-.69-50.506.028-71.658-2 .51-6.74 5.164-13.377 4.93-21.532 1.853-27.935-17.795-51.827-38.948-67.406-21.747-14.748-46.688-25.253-72.184-31.51-3.432-.297-7.64 2.444-9.798 3.948 16.626 24.925 26.15 59.786 29.627 86.712.394 6.16.33 12.344 1.074 18.474.296 5.752-1.61 11.605-.25 17.337 11.106 16.04 35.206 23.972 53.723 17.411 7.268-1.995 13.592-6.11 19.39-10.786 5.21-4.41 13.485-.089 19.042 1.399 20.316 7.341 41.548 18.102 53.037 37.315 10.882 20.98 9.528 49.775 10.357 70.638 42.78 0 90.503-8.522 121.897-40.35 15.365-15.003 23.695-35.59 28.945-55.98 5.476-21.412 8.618-43.4 10.632-65.391 1.196-9.403 1.213-18.897 2.526-28.279h3c10.725 52.077 31.14 103.056 62.832 146.013 16.453 20.986 36.626 40.758 62.905 48.742 13.032 4.906 27.464 5.42 40.746 1.213 11.518-3.141 25.4-7.732 32.484-21.105 14.21-28.679 8.734-62.24 3.192-92.152-1.711-7.792-3.464-15.544-5.576-23.228-1.51-5.593-3.834-12.086-4.398-17.391-.388-18.328 1.606-36.672 2.458-54.945 3.218-47.009 4.457-94.903 8.357-141.647-2.089-1.739-5.86-1.446-8-1.5-6.878 31.234-15.295 62.26-25.077 92.721-2.48 6.891-5.087 13.77-7.703 20.596-2.428 5.348-5.785 13.735-14.006 10.898-4.919-2-7.844-9.365-10.766-14.392-10.526-23.697-15.887-49.217-20.089-74.656-15.758-92.533-16.897-186.564-19.073-280.088-.46-48.52 1.586-97.066 3.356-145.522 1.254-23.243 2.483-46.493 4.513-69.683.74-5.533.228-12.389 2.05-17.252 1.517-3.775 9.34-2.952 12.233-4.745 11.419-3.223 23.152-7.587 31.562-16.377-21.66-18.296-43.338-36.576-65.194-54.637-10.763-9.187-21.653-18.24-32.454-27.36-5.43-4.608-10.933-9.093-16.352-13.696-5.53-3.525-11.506-10.9-16.668-12.807-18.141 21.68-37.458 42.325-55.722 63.89-4.185 4.226-8.124 10.127-12.321 13.66-6.058 3.093-12.995.29-19.573 1.45h-423.848c-15.373.623-31.608-8.573-44.587-13.078-42.546-16.154-84.548-34.465-127.281-49.922-1.037 167.086 2.049 334.256-3.035 501.27-2.382 78.007-8.52 156.017-22.485 232.895-12.615 73.66-33.505 147.324-66.48 214.335m0 1007c1.012 2.273 4.585 3.283 6.5 5.5 64.643-46.8 116.436-111.038 150.709-183.038 37.392-75.253 56.546-158.153 66.67-241.147 14.791-145.072 8.724-291.275 10.121-436.815h320.4c53.49.645 107.121-.787 160.552.425 3.342-.211 2.842 5.56 2.816 7.614-1.939 24.583-.325 49.322-1.327 73.943-.21 24.665-.476 49.353-.441 74.018-5.832-.144-10.646-6.315-15.208-9.108-32.937-24.374-65.456-49.415-98.292-73.892-9.975 9.945-19.304 20.514-29.367 30.373-6.934 8.227-14.753 15.62-22.045 23.515-5.543 8.64-14.003 7.714-22.501 7.112H1469v-2c22.648-16.91 47.537-31.306 70.445-47.976 5.888-4.079 11.736-8.247 17.572-12.387 4.22-2.785 8.758-7.041 13.474-7.846 13.97-1.756 34.677-8.78 35.509-27.791-62.151-6.272-123.874-17.43-186-24 .185 39.691-1.493 79.405-4 119-5.779-.242-10.824-3.602-16.228-5.227-36.666-14.429-73.716-28.208-110.272-42.773-1.426 124.21.26 248.72-.5 373 27.046.727 54.381-1.8 79.843-11.46 12.141-4.17 24.001-9.198 34.75-16.29 15.263-7.945 11.302-23.092 11.407-35.25h151.2c4.05-.08 9.495-.39 9.585 4.102.605 12.279-.104 24.612.215 36.898 14.385.224 28.704-.945 43-2-1.115 6.115-8.776 11.518-12.336 17.687-4.223 5.215-8.605 10.301-12.687 15.613-3.806 4.244-8.19 12.015-13.34 12.535-108.135 1.23-216.571-1.011-324.637.665 2.615 7.735 5.843 18.83 7 25.5h163v110c-55.607.76-111.478-.926-167 .5 3.658 7.797 4.362 18.716 8.296 25.594 7.412 1.79 15.45.324 23.03.906H1426v128h-238c1.463 8.853 4.98 17.296 7 26h553.2c13.206-.004 26.43.005 39.634-.002 11.719 1.028 23.214-3.603 28.166-14.498-38.103-31.668-77.993-61.547-117.5-91.5-17.89 20.555-34.387 42.342-51.899 63.222-4.372 4.912-8.646 11.651-13.358 15.475-5.453 2.635-11.364.405-17.212 1.303H1563v-128h152.4c13.65-.236 34.986 2.552 42.6-14.5-15.89-15.694-33.878-29.124-51.445-42.839-17.85-12.839-34.615-27.79-53.055-39.661-12.94 14.91-24.978 30.635-37.652 45.771-6.776 6.974-12.78 17.165-19.602 22.927-5.27 2.624-10.947.414-16.595 1.302H1563v-110h143.4c7.917-.223 15.884.317 23.78-.282 3.612-.51 7.179-1.501 10.437-3.143 2.803-1.38 5.453-4.298 8.383-4.575 5.043 52.954 12.439 105.835 24.912 157.597 8.898 37.652 20.289 74.974 38.54 109.276 13.44 24.24 28.707 48.294 50.013 66.48 15.314 13.77 38.148 25.268 57.252 26.564 15.823.326 35.038-4.845 46.883-13.385 9.855-7.763 14.746-20 16.498-32.08 6.575-37.58-5.503-74.766-13.959-110.744.113-32.87 3.899-65.63 4.87-98.465 3.119-32.98 2.66-66.335 5.991-99.243h-8c-6.872 29.107-14.598 58.198-23.739 86.7-4.582 11.446-7.253 26.715-14.587 35.701-12.377 9.297-19.306-11.976-23.313-18.753-18.148-44.322-22.27-92.87-28.312-139.854-13.462-147.436-13.109-296.344-.049-443.794 8.082-.45 17.143-3.967 24.153-6.089 6.961-3.136 16.372-6.5 19.847-12.411-34.578-29.37-69.497-58.407-104.194-87.637-4.532-3.489-8.688-7.437-13.09-11.063-3.705-3.284-7.59-6.307-11.497-9.309-4.223-.41-6.945 6.563-9.745 8.46-19.591 23.6-41.854 45.893-60.474 70.049h-433.2c-8.584.176-17.474.782-25.422-3.039-50.824-20.874-102.291-40.687-152.878-61.961-2.425 166.74 2.36 333.92-3.808 500.655-2.457 77.624-9.298 155.117-23.024 231.597-12.994 73.625-34.166 147.421-67.668 214.248M1273 1349h-12c1.467 22.133-6.794 43.471-20.647 60.52-10.698 15.556-24.84 28.125-40.99 37.578-13.076 8.887-24.78 20.693-31 35.533-11.769 26.59 1.14 60.116 27.2 72.631 19.241 9.757 44.226 10.973 63.08-.713 27.297-19.944 37.74-55.036 39.595-87.281 2.995-33.968-7.783-67.391-18.052-99.117-2.127-6.477-5.462-12.538-7.186-19.151m142 642h124.8c10.39-.147 20.789.18 31.166-.097 5.025.149 5.566-4.459 5.033-8.071.004-26.942-.001-53.891.001-80.832h-161zm0 118h161v-92h-161zm2-1101h155v-67h-155zm0 95h155v-68h-155zm0 91h183c3.626-.19 8.14.509 10.642-1.555 8.221-7.596 13.964-17.61 21.73-25.659 3.4-4.538 7.161-8.75 10.708-13.153 2.931-4.236 8.342-8.65 8.92-13.633-12.996 2.657-25.479 7.833-38.824 9.06-13.62 1.894-27.465 1.698-41.176 1.94v-21h-155zm0 88h218.4c4.485-.362 9.571.674 13.402-.957 20.332-17.454 38.139-37.821 58.698-55.043 6.976 6.598 14.852 12.172 22.168 18.363 3.721 3.22 7.597 6.201 11.414 9.294 3.8 2.779 7.689 7.334 11.918 7.343-1.624-13.622-2.86-27.328-4-41h-332zm82-369.5v1.5h39.6c9.732-.516 22.604 2.806 30.77-6.87 12.232-12.675 24.034-25.736 36.863-37.863 4.84-3.93 8.955-13.272 14.754-8.967 36.186 26.158 71.795 53.103 108.013 79.2-5.866 5.756-12.767 10.533-20.464 13.447-2.875 1.668-9.051 1.595-10.114 4.52-1.204 32.005.22 64.182-.422 96.224v47.945c-.245 6.85 2.23 15.697-6.452 20.102-5.865 3.122-12.67 7.485-18.548 9.262.417 3.887 5.391 5.943 7.829 8.445 10.837 8.482 21.962 16.559 32.8 25.031 5.315 4.42 11.014 8.33 16.344 12.711 5.026 3.212 10.866 10.12 16.027 10.813-8.36-118.8-8.788-237.931-8-357-27.365 3.092-55.043 1.575-82.57 2H1572c-21.082 28.482-48.819 53.92-73 79.5m23 414.875c15.293 15.204 27.547 33.578 36.092 53.391 3.093 7.682 5.722 15.59 7.311 23.717 1.742 6.732-.225 16.238 7.61 20.177 10.692 6.805 23.901 10.731 36.524 8.08 19.019-3.294 34.03-19.725 37.018-38.51 2.852-21.821-9.492-37.534-25.557-47.988-13.808-10.074-30.406-15.274-46.973-18.532-8.857-1.714-17.774-3.343-26.769-4.06-7.874-.913-16.739-2.414-24.509 3.186-.293.114-.524.339-.747.539M1641 733.5c2.21 3.95 8.345 6.249 12.033 9.938a4225 4225 0 0 0 43.021 32.23c7.26 5.29 14.21 11 21.35 16.434 3.425 2.847 7.024 5.515 10.423 8.388 3.2 2.697 7.112 6.435 11.173 6.51-.008-25.014-.325-50.018 1-75h-99zm24 1431.5c7.6 3.577 13.72 10.54 20.819 15.069 10.433 7.922 21.046 15.63 31.179 23.927 5.13 4.054 10.224 8.164 15.216 12.376 4.931 3.257 10.593 10.353 15.786 10.628-10.227-106.284-10.758-213.292-11-320-5.054.273-10.059 5.728-15.66 7.618-5.572 2.353-11.31 4.579-17.34 5.382v204.6c-.228 5.575.466 11.538-.713 16.963-4.576 5.39-11.638 8.086-17.737 11.278-6.782 2.785-13.461 6.242-20.55 8.159z" style="fill:#fedca9;fill-rule:evenodd;stroke:none"/><path d="M1019 1591.625c3.01 2.361 6.473 4.06 9.5 6.375 56.545-44.555 105.34-99.448 138.77-163.54 53.962-101.253 75.977-216.694 81.976-330.372 7.129-123.525 3.964-247.416 4.754-371.088 125.607.76 251.478-.926 377 .5-18.74 23.31-37.074 47.314-56.542 70.01-2.106 1.87-6.13 1.3-9.203 1.49H1260c1.876 8.794 4.546 17.593 7.313 26.145.113 2.702 4.268 2.788 6.111 2.835 7.574.057 15.138-.01 22.697.02H1428c-.385 26.334-.1 52.742-2 79-6.269-.163-12.818-4.162-18.144-5.868-39.392-15.07-78.401-31.285-117.856-46.132v503c6.739.06 13.501-.002 20.228-.323 6.264-1.223 14.349.78 19.272-1.677 5.248 18.006 3.895 37.492 4.5 56.032.505 16.465-.488 32.872-3.187 49.118-1.344 7.034-2.672 14.094-4.367 21.046-.838 5.597-4.574 12.894-2.874 17.266 6.03 9.233 16.032 18.206 25.024 22.802 19.14 9.49 42.911 4.46 58.565-9.195 11.487-9.95 18.085-24.504 20.69-39.203 3.933-23.527-7.182-46.775-20.291-65.388-13.113-17.585-33.239-33.946-49.88-45.035-4.23-3.187-9.848-5.976-13.68-8.943 15.96-4.368 32.223-8.814 47.118-16.355 7.314-3.113 13.9-7.717 20.239-12.418 8.23-5.458 6.914-14.162 6.643-22.727h238c-1.68 40.51-3.331 81.441-11.163 121.322-2.524 7.776-4.018 19.29-13.555 24.445-6.992 3.504-15.03 3.211-22.595 3.233-22.511-.687-49.127-.023-69.687-2 4.43-12.075 7.31-25.078 3.925-37.978-10.357-35.756-44.086-59.165-77.06-71.666-7.517-3.194-15.282-5.74-23.047-8.243-3.874-.976-8.382-2.809-12.097-2.781-3.79.243-7.655 2.767-10.721 4.168 16.266 26.021 26.372 56.017 30.355 86.398.864 6.152.452 12.392 1.154 18.541.34 5.824-1.123 11.639-.418 17.475.302 4.971 5.976 8.264 9.522 11.143 15.452 12.505 37.439 14.545 54.964 5.031 5.848-2.184 11.983-10.282 17.322-9.155 23.233 5.751 45.848 17.017 60.944 35.948 7.215 10.242 10.049 22.864 11.232 35.103 1.362 13.295 1.793 26.667 1.925 40.016 43.424.343 91.974-8.09 123.897-40.35 15.556-15.275 24.086-36.275 29.198-57.055 5.793-21.727 8.333-44.152 10.631-66.447 1.281-8.388.603-18.627 2.774-26.148 15.556 62.416 38.87 127.217 87.427 172.264 12.59 10.845 27.209 19.391 43.263 23.893 22.788 6.487 54.675-.462 68.605-17.978 6.948-9.88 9.51-24.39 10.565-35.115.997-13.234.717-26.593-1.42-39.708-1.608-14.048-4.686-27.823-8.22-41.488-2.808-10.08-6.7-20.145-5.592-30.82 2.04-32.865 3.635-65.714 5.561-98.576 2.224-29.604 2.422-59.452 5.311-88.972-2.882-2.012-6.684-1.253-10-1.5-6.878 31.234-15.295 62.26-25.077 92.721-2.48 6.891-5.087 13.77-7.703 20.596-2.293 4.922-5.733 13.99-13.537 10.261-8.992-8.594-12.924-23.47-16.88-33.674-14.166-47.68-18.706-97.666-23.753-146.911-6.303-79.211-8.817-158.813-7.05-238.267-.116-39.701 1.58-79.39 4.02-118.995 1.288-19.464 2.443-38.974 4.35-58.375.391-5.635 6.67-5.791 10.963-6.935 12.672-3.198 25.554-8.138 34.667-17.921-21.856-18.768-44.072-37.193-66.194-55.637-11.05-9.384-22.126-18.697-33.223-28.005-11.052-8.106-22.532-20.166-33.083-26.858-18.662 21.404-37.554 42.668-56.165 64.109-4.353 4.592-8.068 9.804-12.673 14.16-1.995 2.042-6.01 1.616-9.155 1.731h-431.04c-16.148.648-30.793-7.244-45.612-12.868C1198.478 674.35 1155.52 656.347 1112 640c-1.003 167.785 2.025 335.68-3.065 503.4-2.437 78.375-8.636 156.79-22.858 234-12.932 73.638-33.85 147.232-67.077 214.225m0 1007c3.01 2.361 6.473 4.06 9.5 6.375 28.32-23.268 56.487-47.134 80.096-75.311 40.946-47.503 71.306-103.416 93.65-161.8 36.633-95.054 46.967-197.517 51.401-298.336 4.309-108.783 1.182-217.732 2.353-326.553h318c53.18.236 106.376-.288 159.543.155 7.056.22 2.968 11.936 3.446 15.98-.302 45.959-.94 91.916-.989 137.865h-1.5c-36.646-28.439-74.376-55.557-111-84-20.44 19.45-38.51 41.387-58.66 61.002-7.555 2.127-16.223.202-24.03.998-23.504-.758-47.429.925-70.81-.5 23.516-16.057 47.511-31.518 70.89-47.79 5.892-4.07 11.74-8.217 17.558-12.385 4.365-2.849 8.276-6.798 13.592-7.649 14.754-1.065 32.589-9.224 35.96-28.176-30.351-6.506-62.545-7.89-93.285-13.3-31.995-3.234-63.65-9.835-95.715-12.2.185 39.691-1.493 79.405-4 119-42.176-16.077-84.713-32.001-126.5-49-1.426 125.21.26 250.72-.5 376 27.503.703 55.337-1.386 81.274-11.264 12.219-4.072 24.042-9.26 34.894-16.205 5.366-3.188 11.652-8.345 11.71-14.152.3-7.118-.015-14.268.122-21.379h150c3.711.095 8.732-.553 8.839 4.622.457 12.116-.081 24.265.161 36.378 14.279.452 28.89-1.148 43-1.5-9.094 10.747-17.542 22.05-26.637 32.79-3.626 4.342-6.983 11.194-14.101 10.697-107.422.038-214.845-.007-322.262.013 1.076 9.593 6.098 18.395 7 28h163v108h-167c1.876 8.794 4.546 17.593 7.313 26.146.113 2.701 4.268 2.787 6.111 2.834 7.574.057 15.138-.01 22.697.02H1425v126h-239c2.55 9.336 5.461 18.67 8 28h556.8c13.22-.023 26.43.029 39.638-.015 9.899.387 24.32-3.615 26.562-16.985-39.638-30.258-78.692-63.817-120-92-.761 2.786-3.901 5.374-5.767 8.221-16.148 19.927-32.414 39.76-48.558 59.685-3.994 3.838-8.343 12.2-13.354 12.833-21.737.745-43.57-.136-65.321.261v-126h155.4c10.942-.02 36.855 1.799 39.12-16.252-6.448-8.046-16.678-15.124-23.555-21.546-24.86-19.849-50.18-39.125-75.575-58.268-1.858-1.285-4.239-3.134-5.89-3.934-13.374 14.713-25.057 30.887-37.972 45.977-6.739 7.277-12.082 15.783-19.057 22.838-3.744 3.184-10.633 1.885-16.027 2.185H1564v-108h141.6c14.326-.53 31.59 3.047 41.9-8 7.183 62.485 15.154 125.528 32.8 186.201 12.132 43.086 29.474 85.367 56.85 121.204 20.516 25.884 48.935 50.965 83.96 52.578 23.235.018 55.174-8.959 61.233-37.682 9.99-40.09-2.536-81.245-12.155-119.813.557-41.254 4.875-82.464 6.413-123.679 2.182-24.885 1.987-49.95 4.399-74.809-2.883.04-5.75-.1-8.5-1-3.675 5.402-3.721 14.905-6.511 22.017-6.82 27.943-15.225 55.449-24.392 82.686-2 5.764-4.311 12.74-7.685 17.283-1.647 2.676-4.592 3.81-7.647 3.54-9.274-4.79-14.179-20.556-17.995-28.349-15.963-44.564-20.376-92.288-25.857-138.949-12.297-144.643-12.574-290.602.587-435.228 8.417-.54 17.887-4.175 25.17-6.483 7.335-2.887 15.023-6.472 19.83-13.017-21.958-18.847-44.212-37.382-66.368-55.993-11.15-9.284-22.129-18.735-33.28-28.003-5.541-4.728-11.218-9.27-16.663-14.1-5.483-3.633-10.682-10.135-16.353-12.404-22.651 26.827-47.528 52.7-69.336 80h-433.8c-16.527 1.206-31.457-6.166-46.373-12.475-21.823-9.239-44.044-17.588-65.964-26.579-22.12-8.069-43.444-18.84-65.863-25.946v253.2c-.044 122.977.55 246.253-11.067 368.813-6.464 57.075-14.201 114.221-27.476 170.166-13.06 53.821-32.048 106.97-56.457 156.446M1274 1348h-14c1.516 22.314-6.962 43.772-20.934 60.919-10.632 15.671-25.031 27.912-41.109 37.468-13.049 9.092-24.895 21.03-30.912 36.11-11.385 26.842.92 60.693 27.136 73.57 18.864 10.32 46.89 10.657 63.96.353 28.427-18.965 38.72-54.954 41.057-87.097 3.2-34.043-6.546-67.706-17.115-99.534-2.21-7.435-6.077-14.303-8.083-21.789m142 642h123c10.394-.182 20.81.224 31.187-.123 4.816.023 5.21-4.56 4.811-8.04.005-26.274 0-52.571.002-78.837h-159zm0 118h159v-90h-159zm2-1101h153v-65h-153zm0 95h153v-66h-153zm0 91h180c3.293-.404 7.542.689 10.833-.969 8.458-7.05 13.717-17.32 21.527-25.036 6.668-8.65 14.192-16.695 20.64-25.495-12.441 2.617-25.07 7.69-38.024 8.73-13.898 1.893-28 1.492-41.976 1.77v-21h-153zm0 88h219c3.496.197 7.008-.037 10.436-.572 17.233-15.673 33.962-32.04 50.799-48.16 4.012-3.837 8.734-9.407 14.014-3.844 13.499 9.979 25.902 22.328 39.751 31.576-2.369-12.829-2.323-26.077-4-39h-330zm82-368.656c11.401 1.789 23.99-.258 35.634.656h18.537c6.654.929 10.569-2.315 14.304-6.975 15.334-16.31 33.944-34.906 47.838-50.025 10.746 5.09 19.164 14.381 29.22 20.611 28.411 21.046 57.236 41.635 85.467 62.889-5.93 6.098-12.981 11.102-20.886 14.24-3.11 2.048-8.9 1.454-10.593 4.336-1.486 32.094.27 64.477-.521 96.614v48.544c-.002 6.93 2.015 15.68-6.948 19.797-5.731 3.664-12.086 6.299-18.052 9.469 23.588 18.011 47.32 35.968 70.5 54.5 1.12-6.655-1.204-13.885-.783-20.668-7.64-111.264-6.972-222.857-6.717-334.332-13.08 2.23-26.327 2.435-39.585 2H1573c-1.15 3.589-5.797 6.779-8.17 10.564-20.988 23.047-41.14 47.416-64.83 67.78m20 415.031c15.37 15.077 27.711 33.203 36.488 52.898 3.108 7.855 6.092 15.826 7.691 24.136 2.113 7.306.09 16.64 6.896 20.641 10.647 6.917 23.914 11.215 36.695 9.169 19.354-2.132 35.258-17.805 39.31-36.493 2.107-9.902.685-20.473-3.561-29.593-4.146-8.109-12.204-15.816-18.716-20.903-13.765-10.695-30.483-16.488-47.337-20.047-9.029-1.73-18.073-3.559-27.232-4.377-8.587-.108-19.392-3.11-25.7 1.471-1.325 1.104-3.575 2.059-4.534 3.098m122-594c32.555 23.144 63.808 49.235 96 72.625.141-24.351-.475-48.691 1-73-32.252.57-64.854-.694-97 .375m24 1428.877c5.528 6.801 13.623 9.733 19.9 16.067 10.32 7.997 21.02 15.532 31.073 23.868 10.532 7.043 19.327 17.27 30.027 23.813-10.53-105.544-10.563-211.987-11-318h-1.5c-7.84 7.095-20.226 11.177-29.5 13v204.6c-.228 5.575.466 11.538-.713 16.963-4.576 5.39-11.638 8.086-17.737 11.278-6.556 2.78-14.226 6.465-20.55 8.159z" style="fill:#000;fill-rule:evenodd;stroke:none"/></svg>