<svg xmlns="http://www.w3.org/2000/svg" width="3000" height="3000"><path d="M1007 2627h944.4c13.074-.591 28.646.944 40.534-1.06 10.107-1.188 24.708-13.82 14.251-21.44-31.38-26.913-64.147-52.163-97.04-77.165-12.215-9.442-24.663-18.55-36.68-28.237-5.581-4.013-10.915-8.304-16.346-12.492-2.51-1.774-5.376-4.441-8.102-4.063-8.74 8.443-15.288 19.379-23.332 28.53-13.29 16.91-26.654 33.75-39.961 50.647-4.844 6.47-10.151 12.548-15 19-4.206 4.88-9.172 13.705-14.944 14.182-56.932.28-113.86-.05-170.78.098v-407h277.8c11.21-.057 22.427.07 33.634-.038 9.148-.409 19.918-2.65 25.6-10.664 6.763-9.342-2.907-14.223-9.389-19.4-24.213-19.987-49.054-39.16-73.64-58.666-18.473-14.478-37.344-28.45-55.982-42.704-3.52-1.679-7.296-7.208-10.9-5.553-21.72 24.205-40.464 51.38-61.515 76.241-5.055 6.517-10.102 13.042-15.334 19.415-3.487 5.23-7.103 10.595-15.221 9.369H1584v-359h342.6c10.139.023 21.884-.46 29.782-7.93 2.928-3.13 6.899-7.977 4.563-11.957-27.008-23.016-55.43-44.418-83.097-66.632-21.754-15.811-42.498-32.942-63.824-49.272-3.496-2.342-9.084-9.062-12.708-5.507-23.914 28.762-46.284 58.975-69.758 88.123-3.043 3.688-5.96 7.47-8.873 11.248-2.414 3.164-5.265 6.942-8.168 9.158-16.2 2.13-33.107-.336-49.464.769H1041c1.928 9.658 5.223 19.082 7.89 28.552 1.322 5.418 11.343 2.562 14.897 3.448H1409v359h-330v1.5c2.202 10.254 6.335 20.148 8 30.5h304.8c6.136-.793 13.806 1.126 18.7-1 1.426 136.539-.26 273.402.5 410h-386.43c-8.12.942-17.977-1.276-24.57 1 .502 9.994 5.971 19.084 7 29m560.5-1697c.832-25.266 4.022-51.254 3.319-76.733-1.384-28.028-31.292-37.842-51.819-41.267v-30c-1.054-9.758 1.387-21.561-1-29.5 14.543-1.369 29.396.202 44-.5v-12.6c.464-4.254-.753-9.591 1-12.9-14.543-1.369-29.396.202-44-.5v-40h-38v40c-14.607.694-29.478-.86-44 .5 1.727 3.171.542 8.33 1 12.407V752c14.607.694 29.478-.86 44 .5-1.893 3.667-.42 9.578-1 14.255V812c-14.807 2.77-30.847 6.612-41.6 18.102-13.685 12.11-10.51 31.24-9.84 45.909 1.679 17.347 1.765 37.85 3.44 53.739-24.122-23.319-54.999-40.128-88.147-46.45-25.153-4.668-56.027-3.753-78.546 3.128-35.92 10.022-63.65 39.296-76.652 73.525-13.122 36.394-14.003 83.08-5.085 117.22 9.027 35.52 26.234 67.939 46.658 98.132 15.761 22.325 32.333 44.174 50.874 64.297 3.922 3.535 7.123 7.73 10.638 11.625 4.766 3.678 4.357 8.228 3.383 13.395-2.279 38.64-5.397 77.232-7.853 115.86-1.342 19.468-2.49 38.932-3.945 58.39-.745 9.87-1.48 19.75-1.951 29.636-1.064 9.02.535 18.614 6.983 25.506 14.082 15.141 38.092 23.36 55.965 27.6 78.177 18.073 159.478 19.281 239.066 12.493 36.536-3.173 80.267-10.388 110.294-26.503 7.743-4.202 15.841-11.388 19.71-18.55 6.1-13.573 1.947-29.124 1.664-43.373-.568-15.088-2.284-30.116-3.068-45.184-2.423-35.399-4.841-70.778-7.184-106.176a305 305 0 0 1-1.416-20.497c-.17-3.284-.323-6.572-.614-9.845-2.526-11.616 11.302-19.795 17.247-28.009 25.167-28.693 48.967-58.918 67.649-92.294 19.332-35.58 32.648-74.681 33.16-115.523-.896-30.478-4.916-61.912-21.358-88.464-10.654-18.81-26.965-34.408-45.846-44.784-30.962-16.036-67.441-17.096-101.132-11.44-32.276 6.798-63.313 22.06-85.994 46.535m-91.5 286c-.315-21.422.715-42.892-1.199-64.242-6.126-65.443-29.85-131.066-74.175-180.424-22.086-24.01-52.958-44.175-86.9-43.334-32.924-2.305-64.51 20.01-75.03 50.839-8.223 20.554-10.943 46.998-9.003 67.094 4.255 32.882 17.485 64.25 34.453 92.498a487.5 487.5 0 0 0 56.456 77.671c4.771 4.111 8.931 10.34 13.352 14.02 3.71 3.05 10.508-.809 15.688-.9 41.657-7.816 83.938-12.962 126.358-13.222m-144.861 256.036c.035 9.398 12.91 15.135 19.016 17.624 27.243 9.905 56.539 10.885 85.06 13.17 45.954 1.486 92.109 1.844 138.03-.632 21.292-.868 42.567-3.586 63.336-8.357 9.496-2.906 19.861-5.368 27.37-12.368 3.999-3.213 6.428-8.874 4.082-13.428-2.061-4.417-6-7.474-10.133-9.774-23.205-10.893-49.535-12.89-74.621-15.741-41.168-3.533-82.591-3.575-123.858-2.604-38.674 1.938-79.38 2.101-115.535 18.233-5.76 2.945-12.827 7.784-12.747 13.877M1337.5 1425c52.174-17.154 108.164-17.527 162.411-18.995 54.354 1.236 110.316 2.065 162.589 18.995 1.16-9.197-1.55-18.866-.964-28.178-.247-9.622-1.077-19.22-1.536-28.822-104.155-27.997-215.794-28.003-320 0-.421 9.79-1.662 19.546-1.549 29.362.716 8.934-1.991 19.58-.951 27.638m5.5-95c51.655-13.195 105.37-15.265 158.361-16.879 27.001.922 54.017 1.547 80.863 4.825 24.042 3.103 53.151 5.828 74.276 13.054 1.495-9.855-1.604-19.935-1.624-29.791-1.17-10.058-1.344-20.208-2.876-30.209-50.368-12.47-102.38-18.595-154.27-18-50.354-.287-100.922 5.557-149.73 18-1.572 9.861-1.655 19.906-2.958 29.795-.39 9.5-1.802 20.533-2.042 29.205m156-291h2c3.77-16.385 13.423-33.99 19.94-47.788 3.628-6.435 8.805-12.523 8.06-20.301-.008-32.346.01-64.699-.005-97.033.172-10.856-3.66-22.638-13.31-28.493-16.117-10.474-40.99-1.365-43.378 18.509-1.857 7.245-1.193 14.787-1.307 22.214v82.301c-.725 12.435 8.346 22.215 12.704 33.376 4.946 10.98 9.982 21.916 14.098 33.244.48 1.301.862 2.633 1.198 3.971m25 177c36.79.865 73.495 5.598 109.892 10.777 6.77.926 13.504 2.097 20.205 3.361 2.898.44 6.3 1.289 9 1.15 2.52.571 4.714-3.322 6.719-5.052 30.33-33.183 57.733-69.816 78.102-110.048 10.427-20.536 18.241-42.563 21.789-65.346 3.24-24.352.152-49.612-8.636-72.51-7.027-17.449-18.711-33.584-35.947-42.186-30.901-15.371-68.373-8.827-96.182 9.59-40.61 26.963-66.963 70.634-83.29 115.661-9.293 23.644-15.033 48.494-18.873 73.56-3.78 26.839-2.704 53.993-2.779 81.043" style="fill:#fff;fill-rule:evenodd;stroke:none"/><path d="M285 2848.5v1.5h2430v-1.5c-73.642-437.603-145.813-875.53-219.109-1313.203-54.671-328.176-109.408-656.315-164.077-984.478-5.21-30.83-10.248-61.686-15.432-92.51-1.251-7.505-2.488-15.003-3.754-22.495-.919-4.17-1.145-8.46-2.247-12.58-1.025-4.117-5.42-5.18-9.156-6.315-117.305-39.137-234.617-78.213-351.926-117.314-102.68-34.233-205.353-68.476-308.033-102.676-44.992-15.018-89.985-29.992-134.966-44.995-6.062-2.742-11.046-.84-16.431 1.266-83.52 27.892-167.058 55.657-250.572 83.54-146.168 48.728-292.31 97.432-438.478 146.16-27.522 9.152-55.005 18.352-82.52 27.495-6.482 2.208-13.017 4.306-19.485 6.517-2.679 1.235-7.197 1.778-8.4 4.228-68.611 401.467-133.703 803.887-201.523 1205.563C420.651 2033.674 353.5 2441.873 285 2848.5m715-252c2.428 9.543 6.352 20.6 8 29.5h951c16.686-1.388 41.609 5.75 51-16.5-51.873-44.384-107.025-84.794-161-126.5-16.164 18.72-30.442 39.271-46.398 58.22-11.397 14.65-22.973 29.153-34.38 43.786-4.264 5.71-7.898 12.408-17.198 10.994H1583v-409h286.2c11.426-.346 25.043.818 35.361-1.416 4.73-.988 9.989-3.504 13.244-6.549 2.698-2.843 6.161-8.036 3.401-10.929-47.659-41.299-98.867-78.529-148.706-117.106-23.938 28.883-46.938 58.634-70.278 88.006-6.227 6.593-11.802 18.43-20.555 17.99-32.896.012-65.778-.003-98.667.004v-361h311.4c13.038-.131 26.05.162 39.074-.093 9.715-.428 20.908-3.84 25.886-12.967 2.705-4.385-2.035-7.34-5.171-9.978-49.888-39.639-99.765-79.83-150.689-117.962-19.318 23.127-37.127 47.521-56.14 70.895-7.992 10.594-16.559 20.72-24.523 31.318-1.978 2.33-3.735 4.89-5.968 6.984-2.467 2.206-7.08 1.736-9.617 1.803-221.696.76-443.639-.926-665.252.5 4.26 8.624 4.657 21.215 9.413 28.655 8.209 1.782 17.014.19 25.356.845H1410v361c-109.929.76-220.151-.926-330 .5 1.946 3.681 2.194 9.642 4.194 14.23 1.172 4.94 3.463 10.603 3.806 15.27h322v409h-410zM1566.5 933c-.45-25.5 4.293-51.616 3.408-77.292-.339-28.82-30.953-39.38-51.908-42.708v-60h45v-26h-45v-40h-36v40h-45v26h45v60c-14.633 2.76-30.508 6.468-41.232 17.733-13.992 11.937-11.007 31.03-10.123 45.73.245 18.784 3.353 37.835 2.855 56.537-29.916-32.111-73.555-50.667-117.167-51.468-21.226-1.573-46.208 3.753-63.976 11.379-19.293 8.54-35.14 23.023-47.22 40.1-20.97 32.309-28.444 72.198-25.101 110.19 2.874 38.043 17.81 73.926 36.842 106.478 20.768 35.874 47.155 68.171 75.075 98.644 2.881 2.913 6.188 5.763 5.843 10.062-4.836 65.712-8.665 131.496-13.582 197.197-.179 7.91-1.779 17.389-.378 24.588 3.324 12.923 14.794 21.858 26.275 27.395 18.47 9.89 39.129 14.234 59.497 18.024 21.288 3.683 42.66 6.815 64.195 8.508 48.52 4.135 97.344 3.694 145.83-.553 34.244-3.746 69.31-7.628 101.501-20.795 11.321-4.9 22.87-10.98 30.188-21.346 7.965-10.698 5.32-21.654 4.655-32.93-2.867-40.904-5.599-81.816-8.402-122.715-1.469-20.224-2.818-40.462-4.186-60.69-.242-5.165-.68-10.3-1.06-15.453-.569-6.334 6.502-12.306 11.146-17.59a475 475 0 0 0 14.107-15.768c34.267-39.465 65.588-83.186 81.973-133.414 9.19-26.802 12.545-55.012 10.242-83.18-1.827-27.378-10.558-54.233-25.352-77.298-12.268-16.911-28.21-31.439-47.572-39.784-60.605-25.174-136.174-7.58-180.373 40.419m-89.5 284c-.423-21.31.754-42.724-.991-63.978-5.754-66.207-29.656-132.736-74.383-182.688-22.2-24.175-53.355-44.396-87.506-43.334-16.715-.622-33.79 3.43-47.59 13.202-13.122 9.382-22.846 22.651-28.835 37.637-8.358 20.78-10.85 47.56-9.125 67.879 4.057 33.318 17.397 65.117 34.576 93.713a487.5 487.5 0 0 0 56.456 77.671c4.845 4.22 9.122 10.585 13.669 14.312 2.362 2.023 6.193.835 9.046.442 44.364-8.764 89.406-14.707 134.683-14.856m-147.542 254.505c.654 11.343 14.079 17.28 22.8 20.358 29.117 9.237 59.928 10.63 90.145 12.382 47.53 1.62 95.158.949 142.65-1.665 21.944-2.044 44.242-4.51 65.2-11.675 9.495-3.612 22.276-10.872 19.656-21.582-2.61-9.873-15.237-14.386-23.609-17.062-23.805-7.462-48.968-9.406-73.668-11.694-39.885-2.484-79.859-3.117-119.785-1.49-36.362 1.506-80.744 3.67-111.44 18.83-4.952 2.616-10.503 6.72-11.949 13.598M1336 1426c52.81-15.58 108.263-18.502 162.974-18.99 55.46.133 111.457 3.529 165.026 18.99-.384-19.694-2.43-39.32-3-59-104.81-28.53-217.14-28.538-322 0-.206 19.722-2.938 39.314-3 59m5-95.25c.778 1.53 2.954.678 4.212.39 51.498-14.071 105.509-15.02 158.412-16.94 52.072 2.115 104.676 4.731 155.376 17.8-3.586-20.456-2.58-41.516-6-62-99.872-24.173-206.157-24.92-306 0-3.62 19.702-2.232 41.476-6 60.75M1499 1043h2c3.977-17.38 13.977-36.157 20.94-50.788 3.564-6.216 9.042-12.635 8.06-21.5-.054-33.167.066-66.323-.036-99.48.2-11.17-4.684-22.198-14.55-27.743-15.797-7.117-41.355-3.639-44.45 20.896-1.859 7.493-.39 15.487-.964 23.112v84.66c-.605 6.435 2.71 11.969 6.095 17.217 8.583 16.13 15.395 33.135 22.06 50.11.53 1.104.789 2.3.845 3.516m24 174c37.152.888 74.191 5.692 110.94 10.925 6.725.924 13.426 2.138 20.094 3.383 3.398.67 6.843 1.396 10.315 1.15 5.743-2.37 8.215-8.838 13.236-12.57 28.924-33.088 55.04-69.134 74.35-108.753 9.547-20.339 17.205-41.749 19.399-64.278 2.201-23.453-.78-47.548-9.263-69.525-7.073-17.589-18.9-33.915-36.398-42.393-31.618-15.26-69.88-8.688-98.223 10.114-40.61 27.24-66.747 71.152-83.18 116.272-8.982 23.762-14.939 48.58-18.643 73.693-3.558 27.177-2.572 54.601-2.627 81.982" style="fill:#000;fill-rule:evenodd;stroke:none"/></svg>