<svg xmlns="http://www.w3.org/2000/svg" width="3000" height="3000"><path d="M326 2802.5v1.5h2347c-.373-12.822-4.058-25.348-5.508-38.051-117.27-703.542-234.496-1407.1-351.766-2110.637-7.344-43.997-14.655-88.002-22-132-3.6-21.02-6.91-42.124-10.625-63.12-1.141-5.243-8.647-5.77-12.81-7.59-158.488-52.846-316.994-105.666-475.472-158.502-59.502-19.835-119.024-39.669-178.52-59.495-26.013-8.653-52-17.351-78-26-12.476-3.645-24.567-8.834-37.16-12.04-6.368-.025-12.224 3.635-18.313 4.993-92.992 31.026-186.022 61.963-279 93A1893485 1893485 0 0 0 785.82 433.9c-17.522 5.819-35.005 11.685-52.52 17.495-3.82 1.309-7.668 2.508-11.462 3.872-7.078 2.018-5.509 14.447-7.54 19.93a1026382 1026382 0 0 1-55.17 330.994C547.67 1471.398 438 2137.571 326 2802.5m676-1856.25c3.161 8.933 5.266 18.61 8 27.75h465.6c20.806-.414 42.938 2.414 62.4-6v417c-.165 32.952-.153 65.908.957 98.844.619 13.778 2.68 27.439 6.201 40.748 5.626 23.165 22.602 43.72 46.079 50.638 43.838 14.072 90.774 11.012 136.073 11.77 67.625-1.016 136.89 2.193 202.968-15.225 14.6-3.974 31.484-10.705 42.5-19.323 19.471-13.62 30.002-39.362 25.162-62.667-4.953-23.166-26.737-37.923-47.94-44.785-.15-24.386-4.077-48.614-4-73 6.478-1.269 13.368-2.8 18.102-7.887 6.588-6.627.979-11.777-4.494-15.244-8.213-7.41-16.832-14.366-25.432-21.32-12.507-9.995-25.173-19.783-37.784-29.632-12.605-8.746-25.969-21.565-37.892-28.917-10.871 12.92-20.703 26.675-31.332 39.784-7.806 10.064-15.725 20.066-23.562 30.097-1.332 1.968-2.871 3.753-4.796 5.136-9.8 2.349-20.644-.055-30.677.983H1677v-85h210c15.686-.954 35.562 3.86 46.643-8.739 4.375-5.56-1.797-10.259-5.775-13.807-14.953-13.165-30.19-25.952-45.68-38.494a1343 1343 0 0 0-23.7-18.61c-8-5.214-16.102-13.745-24.144-17.35-19.391 22.21-35.355 47.585-55.157 69.347-33.902 1.862-68.2-.338-102.187.653v-80h212.4c11.839-.074 23.65.09 35.473-.049 9.42.16 20.169-4.109 25.127-14.451-26.387-28.536-61.549-48.64-89-75.5 2.342-2.578 7.667-2.077 11.334-3.532 14.493-2.767 28.653-6.821 42.754-11.066 5.206-1.764 11.682-3.507 15.914-6.35 4.192-3.315 2.694-10.385 2.998-14.97V914c14.481-1.647 31.555-9.458 40-20-20.366-16.816-42.889-31.303-63.632-47.731a20642 20642 0 0 1-47.8-35.315c-5.261-3.694-13.162-12.374-17.746-6.655-18.364 18.91-34.847 39.55-53.22 58.421-5.096 3.926-14.497 1.393-21.578 2.28H1681v-80h235.2c13.22-.022 26.431.027 39.638-.014 10.966.626 22.728-3.881 27.162-14.486-19.48-19.814-41.21-37.18-62.193-55.329-21.074-17.73-42.13-35.605-63.307-53.171-20.108 28.796-41.143 57.052-61.511 85.695-2.826 3.109-4.865 8.42-8.366 9.838-35.443 1.332-71.14-.243-106.623.467v-82.2c.292-6.955-.375-13.968.25-20.895.014-4.891 8.403-4.073 11.445-5.354 6.295-1.387 13.583-4.433 17.746-8.8 5.453-4.768 6.251-10.41 8.559-16.251-60.2-4.9-120.733-9.586-181-14.5v342h-2.5c-33.946-30.788-68.883-60.53-104-90-15.377 20.814-30.623 41.765-45.887 62.668-3.974 5.28-7.725 10.704-11.638 16.02-3.075 5.358-7.969 5.842-13.276 5.312H1311c.386-3.933 5.03-7.36 8.32-10.234 24.603-24.012 49.21-48.194 72.21-73.715 11.788-12.17 22.47-25.3 33.64-38.015 3.045-4.593 7.582-4.085 12.241-4.25 10.73-.862 24.854-6.08 28.589-19.786-41.597-7.654-82.517-19.76-124-28v-3h92.4c15.647-.126 31.285.157 46.93-.093 11.96-.793 29.398 1.361 35.67-15.45-35.03-35.13-73.527-66.635-111.5-98.457-12.463 16.228-24.09 33.126-36.276 49.567-6.166 8.53-12.304 17.076-18.565 25.536-2.906 3.75-6.378 10.26-10.624 10.694-5.67.465-11.357.009-17.035.203v-93c13.185-1.877 30.277-6.753 33-25-58.058-3.241-116.012-8.8-174-13v131h-168v1.5c1.787 5.323 3.138 10.794 4.77 16.16 1.405 4.063 1.714 9.922 6.3 10.11 13.858.654 27.8-.117 41.657.23H1095c12.427 30.874 22.459 63.25 25.365 96.608.67 8.961.766 17.952.635 26.922.073 6.742-.42 13.472-.73 20.2-.631 4.929 2.9 8.381 6.47 11.494 8.985 8.297 21.791 17.223 33.26 18.776v3h-158zm17 1613c2.462 5.107 2.804 11.16 4.79 16.491 1.236 3.4 1.747 9.81 5.741 9.917 13.9.971 27.932-.173 41.848.342h866.581c11.78-.416 23.795.893 35.435-1.428 4.58-.829 8.336-3.881 12.24-5.935 1.713-3.148 6.15-6.564 1.686-10.45-48.914-40.339-99.578-79.444-150.321-117.187-15.459 17.922-29.32 37.428-44.488 55.65-10.96 14.018-22.194 27.852-33.158 41.858-2.07 2.559-4.36 5.761-6.614 7.78-2.39 2.194-6.95 1.55-10.488 1.712H1580v-396h296.4c10.838.212 26.707-2.394 30.6-16-47.27-37.347-94.756-77.093-144-112-23.197 27.443-44.887 56.423-67.637 84.29-5.462 6.385-10.392 16.882-20.91 15.71H1580v-307.2c-.574-13.814.908-30.223-1-42.8h297.6c12.608-.006 25.228.008 37.835-.004 8.787.406 20.176-.47 26.62-9.98 2.979-3.802-.341-7.209-3.705-9.504-46.81-39.27-96.45-75.013-143.85-113.512-19.086 22.11-35.77 46.228-54.453 68.68-7.616 10.207-15.67 20.099-23.49 30.145-1.849 2.45-3.741 4.863-6.303 6.592-216.546 2.421-433.722-1.228-650.254 1.083 2.23 3.464 2.736 9.207 4.502 13.711 1.098 4.465 3.267 9.541 3.498 13.789h347v350c-105.929.76-212.151-.926-318 .5 3.171 8.592 5.004 17.818 8 26.5h310v397h-395zm42-964.25c38.976 1.333 78.877-4.736 113.034-24.73 7.412-4.625 15.5-9.422 20.23-17.092 3.087-7.264.963-15.68 1.736-23.296V1329h123c-.873 38.236 1.065 76.576-.577 114.779-.438 4.216-1.135 8.81-4.055 12.135-5.217 5.863-15.65 3.55-22.43 4.086-24.347-.021-48.591-3.126-72.938-3v10c14.363 2.52 28.402 7.415 41.015 14.726 17.105 11.96 28.976 30.744 33.186 51.185 5.297 21.988 5.234 44.705 6.799 67.089 24.707-3.174 49.658-5.546 73.638-12.77 16.864-5.334 34.21-11.408 47.994-22.958 10.374-7.936 18.735-18.212 24.209-30.055 17.565-40.61 12.858-85.874 13.159-128.701V1106c15.363-2.653 30.54-8.398 41-20.5-43.214-33.28-86.77-66.248-130-99.5-20.094 23.175-41.802 46.288-61 70h-69.6c-16.13-.34-35.796 1.83-49.568-4.472-43.083-16.32-85.572-34.925-128.832-50.528zm58-824.5v1.5c40.65 11.035 80.344 32.938 105.793 67.234 12.26 17.744 18.932 41.884 10.706 62.745-6.909 19.29-26.985 37.29-45.499 41.021v3h93c4.856-29.535 9.863-59.085 13.467-88.807 3.054-29.378 9.096-58.586 9.533-88.193h-187zm77 406.5h123v-94h-123zm0 125h123v-98h-123zm346-354.5v1.5c41.329 13.705 81.72 30.815 122.94 44.985 10.084 3.103 21.517 9.313 31.32 9.976 34.585.11 69.16-.02 103.74.039V893h-58.8c-18.96-.807-41.394 1.14-58.7-1-4.146 6.3 1.019 15.037-2.62 21.56-2.726 4.836-9.622 6.96-13.712 9.376-18.541 8.914-38.657 14.363-58.86 17.907-10.58 2.138-21.305 3.502-32.073 4.011-10.686.992-23.563-.985-33.235 1.146zm135 178.5h108c5.736-10.238 16.386-20.402 22.314-29.476 4.03-4.956 7.817-10.115 11.77-15.132 3.286-4.549 9.434-10.466 9.916-15.392h-29v-35h-123zm257 246h-257v40.005c.255 9.758-.8 19.83 1.723 29.394 3.333 13.982 25.78 12.515 35.727 12.601h103.472c14.361.221 28.695-.02 43.023-.881 9.99-.565 20.427-2.448 28.6-8.57 10.448-9.115 18.868-23.479 25.375-34.175 3.371-5.836 6.769-11.655 9.75-17.695 2.597-6.798 8.152-14.026 9.33-20.679" style="fill:#fda;fill-rule:evenodd;stroke:none"/><path d="M204 2906.5c431.66 1.426 864.125-.26 1295.95.5 431.946-.76 864.184.926 1296.05-.5-71.347-421.454-140.17-844.031-211.186-1265.681C2515.49 1219.807 2443.894 799.05 2375 378c-18.825-4.147-36.622-12.377-55.173-17.557-141.343-47.107-282.688-94.208-424.008-141.343-105.996-35.346-212.02-70.658-318-106l-60-20c-4.743-1.483-9.392-3.202-14.133-4.67-4.689-1.596-9.296.594-13.846 2.121-144.162 48.092-288.385 96.1-432.543 144.19-72.152 24.045-144.327 48.113-216.478 72.159-35.996 12.013-72.02 23.992-108 36-18 6.028-36 11.971-54 18-9.01 3.004-18.013 5.972-27 9-8.742 2.234-18.56 7.118-26.819 8.1-68.995 421.677-140.705 843.07-210.109 1264.703C344.003 2063.481 275.132 2486.22 204 2906.5m123-104c781.355 1.426 1563.485-.26 2345 .5-118.785-721.214-240.618-1442.068-360.03-2163.199-7.528-45.17-15.046-90.339-22.588-135.492-1.756-10.718-3.574-21.44-5.367-32.15-1.463-5.102-.632-13.609-5.65-15.42-82.419-27.818-165.08-54.96-247.546-82.639-144.35-48.044-288.615-96.253-432.954-144.3-27.19-9.095-54.376-18.14-81.566-27.195-6.024-1.707-14.13-5.746-19.294-4.368-99.967 33.09-199.81 66.647-299.74 99.834a5130220 5130220 0 0 1-448.968 149.67c-9.274 3.513-19.03 5.778-28.13 9.725-3.665 1.962-2.298 9.57-3.876 12.727-22.54 135.51-45.194 271.003-67.739 406.508C540.73 1518.187 435.508 2161.522 327 2802.5" style="fill:gray;fill-rule:evenodd;stroke:none"/><path d="M1579 2135h103v-2h-101v-327.6c-1.025-6.614 1.525-15.322-1.5-20.4-1.426 116.31.26 233.5-.5 350m0 424h173v-2h-171c.76-131.503-.926-263.679.5-395h-2.5z" style="fill:#bfa67f;fill-rule:evenodd;stroke:none"/><path d="M1066 1784.5c.03.55.186 1.057.5 1.5H1413v327.6c-.984 6.858 1.317 15.423-1 20.9.972.384 1.963.51 3 .5v-351c-116.173.76-232.997-.926-349 .5m120-839v1.5h94v-2c-29.568-.76-59.55.926-89-.5.376-.427.665-.865.5-1.5-1.917-.02-3.667.586-5.5 1zm158-174c-.674-1.09-.122-2.31 0-3.5h-6c-.335 2.698 1.742 3.882 4.091 3.812a2.8 2.8 0 0 0 1.909-.312" style="fill:#7f6e55;fill-rule:evenodd;stroke:none"/><path d="M1009 975h498c9.754-.247 21.311.7 29.5-6 1.426 101.077-.26 202.66.5 303.832v114.574c-.149 33.13-.197 66.226 1.038 99.331 2.632 25.087 5.35 54.183 24.937 72.738 16.746 16.992 41.645 21.718 64.208 25.046 43.202 4.827 86.816 2.78 130.175 3.479 32.618-.226 65.297-.58 97.831-2.88 22.88-2.034 45.856-4.409 68.14-10.202 27.773-6.324 63.636-19.45 74.461-55.324 4.632-16.587 3.239-35.819-7.393-49.905-9.33-12.395-26.435-20.987-39.397-25.689-.213-23.711-3.928-47.281-4-71 8.896-1.305 19.888-5.157 23-16.602-17.413-16.608-36.842-30.93-55.43-46.151-19.118-13.754-36.763-29.883-56.07-43.247-11.055 12.61-20.563 26.521-31.254 39.429-7.813 9.808-15.448 19.785-23.244 29.605-2.782 3.844-5.308 8.406-11.551 7.946-38.154.057-76.308-.01-114.451.02v-83h212.4c15.663-.787 37.595 4.22 45.443-11.056 3.018-5.535-4.616-11.3-8.02-14.42-30.042-25.92-60.85-51.806-93.323-74.524-19.566 22.034-35.576 47.132-55.059 69.219-2.45 3.101-9.237 1.003-12.39 1.781H1678v-78h235.2c13.742.188 32.489.236 36.865-14.125 1.35-2.207-1.988-4.873-3.17-6.476-26.969-24.825-56.089-47.272-84.895-69.899 13.867-4.746 31.896-6.629 44.684-11.277 5.825-1.784 11.671-3.382 17.395-5.461 4.569-1.785 10.926-3.227 10.86-10.31.173-40.488-.03-80.975.061-121.452 14.793-1.796 33.176-9.892 41-21.5-20.925-16.585-43.14-31.519-64.207-47.917-10.936-7.834-21.664-15.95-32.46-23.97-10.904-6.386-21.386-17.878-32.02-22.613-9.663 11.626-20.035 22.567-30.245 33.696-7.242 8.755-15.458 16.637-22.715 25.384-6.457 8.28-17.44 5.528-25.925 5.92H1682v-78h254.4c10.044-.296 22.007.69 31.095-1.18 6.49-1.623 15.149-6.047 16.01-14.258-2.713-5.7-10.163-11.049-14.632-15.47-36.258-32.669-74.151-63.554-111.373-95.092-20.652 28.37-40.897 57.07-61.567 85.422-2.552 3.485-4.903 7.149-7.855 10.297-7.55 2.762-18.468.227-26.37 1.281H1682v-81.6c.284-6.699-.43-14.654.437-20.756.124-2.41 4.15-2.533 5.778-3.03 7.758-1.109 15.59-3.39 21.754-8.457 5.912-5.058 9.2-12.543 10.031-20.157-61.075-3.3-121.947-10.247-183-14-.76 113.903.926 228.209-.5 342-34.111-31.312-69.793-60.922-105-91-16.01 20.276-30.215 41.926-46.005 62.379-3.726 5.444-7.803 10.63-11.562 16.043-3.055 5.665-6.654 7.202-12.442 6.578-16.408-.723-33.21.89-49.491-.5 26.802-24.802 52.03-51.255 77.266-77.59 11.98-13.672 24.854-26.58 36.094-40.915 4.73-7 17.283-3.882 25.632-8.09 7.704-3.217 15.574-9.84 16.008-18.905-21.962-3.382-43.302-10.489-65.157-14.537-20.768-5.537-42.217-9.154-62.843-14.963 29.838 1.25 60.224-.084 90.17.5 22.612-.185 45.252.46 67.83-.826 7.398-.398 15.986-4.939 19.264-10.997 4.032-6.025-5.19-12.344-8.634-16.047-32.143-31.792-68.082-59.476-102.13-89.13-12.975 15.746-23.888 33.174-36.366 49.31-6 8.652-12.506 16.936-18.535 25.56-3.395 3.614-6.092 9.872-9.913 11.68-5.51.815-11.147.235-16.686.45v-91c13.502-1.806 32.099-7.493 33-27-58.747-3.074-117.305-9.171-176-13v131h-168c.604 8.559 4.554 16.56 6.283 24.886 1.01 5.72 6.889 5.381 11.263 5.114H1094c12.446 31.042 22.651 63.611 25.397 97.176.634 8.961.75 17.93.582 26.9-.066 6.82-.646 13.63-.758 20.436.293 7.723 10.638 13.642 16.861 19.176 6.84 4.394 15.606 9.06 22.918 10.812-52.605 1.426-105.364-.26-158 .5 1.7 10.2 5.941 19.875 8 30m983 1595.453c-24.79-21.789-51.192-41.668-77.124-62.04a3922 3922 0 0 0-39.41-30.315c-6.779-4.85-12.985-10.5-19.888-15.166-6.512-3.984-12.73-11.244-19.25-13.932-14.375 18.14-28.623 36.373-43.086 54.432-7.203 9.156-14.484 18.273-21.699 27.41-5.837 8.514-14.674 16.577-20.543 27.158h-171v-395h256.8c14.22-.003 28.43.004 42.638-.002 10.375.118 27.257-3.766 28.562-17.998-47.926-37.608-95.573-78.063-145.672-113-22.554 28.354-45.305 56.556-67.737 85.007-5.75 6.877-11.724 17.745-20.388 16.991-31.409.006-62.8-.001-94.203.002v-349h329.4c12.4.28 29.364 1.563 35.6-15.5-49.445-41.8-101.886-81.032-153-120.5-7.4 12.197-18.338 22.79-26.455 34.666-16.616 21.585-33.766 42.726-50.323 64.34-1.941 2.224-3.902 5.213-6.154 6.769-5.457 2.434-13.785.424-19.612 1.225H1058c1.525 9.912 6.48 19.078 8 29h348v349h-319c1.652 9.897 5.638 19.292 8 29h310v395h-395c1.68 8.49 4.86 18.374 7.078 25.984 1.405 4.728 10.273 2.214 13.516 3.016h906.164c15.158-.225 39.827 3.562 47.242-16.547M1060 1596c39.6 1.385 80.297-4.266 115.034-24.73 7.37-4.45 16.528-10.268 20.436-17.491 2.815-7.405.755-15.798 1.53-23.495V1330h121c-.955 37.763 1.167 75.635-.636 113.358-.433 4.385-1.421 9.082-4.701 12.285-5.683 5.224-16.06 2.559-22.89 3.352-12.042-.413-24.093-.872-36.09-1.82-11.174-1.837-25.166.432-35.183-2.175-1.033 4.23-.12 8.709-.5 13 14.363 2.52 28.402 7.415 41.015 14.726 17.105 11.96 28.976 30.744 33.186 51.185 5.297 21.988 5.234 44.705 6.799 67.089 23.487-2.479 47.098-5.044 69.966-11.242 16.409-4.316 32.776-10.189 47.095-19.454 9.86-7 20.219-17.192 26.062-26.64 20.857-35.113 17.373-77.923 17.877-116.76V1107c15.971-2.553 31.302-8.97 42-21.5-43.86-34.163-88.38-67.679-132.5-101.5-19.765 24.073-42.424 46.603-61.5 71h-69.6c-16.936-.02-34.452 1.845-50.123-5.475-42.81-16.66-85.324-34.352-128.277-50.525zm60-825.625c40.448 12.784 81.75 33.072 106.672 69.106 12.353 18.954 18.713 44.656 8.676 66.187-8.016 20.545-27.774 34.458-48.348 39.832 15.774 1.38 31.895-.213 47.725.5 15.253-.686 33.378 1.02 47.275-1 4.817-29.361 9.803-58.704 13.392-88.259 3.096-28.888 8.827-57.636 9.608-86.741-61.588.57-123.514-.694-185 .375M1197 1176h121v-92h-121zm0 125h121v-96h-121zm346-353.875c40.062 15.712 81.483 30.327 121.95 45.462 9.868 3.143 21.075 8.785 30.5 10.28 34.516.378 69.04-.068 103.55.133V894h-87.6c-8.953-.639-19.827.972-27.9-1-3.98 6.16.776 14.607-2.39 21.057-2.006 5.161-9.449 7.017-13.543 9.68-18.48 8.987-38.56 14.464-58.73 18.005-10.588 2.11-21.276 3.556-32.054 4.084-10.842 1.192-23.994-1.16-33.783 1.299M1678 1125h106c13.092-19.941 30.453-37.691 44-57.5-9.545-1.283-19.387.117-29-.5v-35h-121zm255 248.5c-84.874-1.426-170.064.26-255-.5v39.526c.203 9.262-.72 18.816 1.723 27.873 3.24 13.792 25.289 12.56 35.129 12.601h101.672c14.333.222 28.668-.007 42.971-.86 9.787-.63 20.123-2.217 28.273-8.06 10.93-9.053 18.178-21.907 25.606-33.734 7.417-11.799 12.964-24.657 19.626-36.846" style="fill:#000;fill-rule:evenodd;stroke:none"/></svg>