<svg xmlns="http://www.w3.org/2000/svg" width="3000" height="3000"><path d="M1334.5 2090c1.426 34.14-.26 68.76.5 103 20.428-.526 40.865 1.7 61.184-.518 14.057-1.367 27.755-5.17 40.894-10.155 8.282-4.122 21.303-8.415 26.153-14.81 1.702-8.409.092-17.5.769-26.064V1758h45c13.579-.305 31.025 2.279 40.5-6 1.426 139.804-.26 280.101.5 420 32.404.436 66.255 2.045 96.727-11.502 6.653-2.857 12.917-6.53 19.167-10.148 4.687-2.982 9.468-5.981 13.284-10.064 5.847-5.99 3.07-18.097 3.822-26.986V2085h99v53c20.97.31 42.088.904 62.687-3.714 14.327-3.252 28.654-6.706 42.533-11.587 9.166-4.22 21.355-7.084 28.712-12.999 3.44-2.353 1.31-9.442 2.068-12.68V1819c10.8-2.992 21.768-6.892 30.769-13.822 3.7-2.472 11.957-8.018 7.007-12.07-4.084-3.603-8.66-6.613-12.946-9.956-12.125-9.124-24.241-18.24-36.403-27.311-18.728-14.121-37.569-28.116-56.292-42.22-4.707-3.453-9.307-7.057-14.046-10.455-4.074-3.428-7.713.677-10.553 3.99-8.608 10.24-17.96 19.825-26.93 29.738-7.397 7.246-14.785 16.936-21.572 23.582-5.712 8.54-18.09 6.645-27.352 6.524h-28.08c-7.878-.385-17.25.584-24.42-.598-49.391-16.696-97.788-36.89-147.182-53.402-.57 7.28.736 14.795-.5 22-35.573-28.678-71.652-56.924-108.13-84.475-7.366-7.938-14.225 5.327-18.324 10.155-10.07 12.547-20.319 24.938-30.243 37.602a2486 2486 0 0 0-13.14 16.405c-4.404 4.779-8.397 12.823-14.51 13.201-114.371.32-228.786-.058-343.153.112.102 10.385 5.63 19.858 7 30h83v304c-30.674-.045-61.324 2.464-92 2 .362 7.392 6.104 16.107 9.08 24.15 12.455 27.862 25.252 55.563 37.662 83.443 3.186 6.996 6.357 13.964 9.453 21 1.174 2.426 2.46 6.92 5.502 5.613 9.762-1.843 19.046-7.846 24.528-16.103 1.698-1.315 2.193-5.506 3.992-5.732 6.814-3.026 14.04-5.19 21.07-7.638 67.852-25.545 137.156-48.892 203.213-78.733M1031 2575h899.4c12.755-.713 44.085 5.367 44.6-19-21.926-16.065-42.549-35.285-64.516-51.626-10.75-8.509-21.556-16.93-32.39-25.318-5.328-4.412-10.87-8.569-16.288-12.857-5.164-4.01-10.855-10.327-16.806-10.199-9.921 16.052-23.877 30.072-34.579 45.759-5.973 7.538-11.643 15.27-17.631 22.787-3.076 3.754-5.888 7.698-8.975 11.429-1.476 1.921-2.923 3.863-4.385 5.781-1.248 1.673-2.818 2.993-2.43 4.744-54.856 1.426-110.149-.26-165.084.5h-20.974c-5.786-.52-12.179.852-17.731-.993-2.378-4.266-.447-10.968-1.211-15.554.76-36.421-.926-73.118.5-109.453 3.356 1.789 8.79.499 13.092 1h262.613c10.546-.26 24.591 1.822 34.698-7.584 2.53-2.993 5.584-8.45 2.823-11.644-9.64-11.12-22.536-19.081-33.094-29.265-11.35-9.245-22.956-18.158-34.577-27.042-8.753-6.962-17.682-13.691-26.512-20.533-7.945-5.612-15.457-11.97-23.468-17.445-3.93-.316-6.725 4.854-9.418 7.974-20.073 24.605-38.994 50.493-59.735 74.468-8.702 2.45-18.672.05-27.662 1.071H1574v-116h309.6c9.722-.259 21.54.979 30.105-2.16 7.884-2.423 16.244-12.574 8.827-18.555-24.175-19.593-48.513-39.036-73.31-57.833-9.167-7.232-18.54-14.162-27.854-21.183a6046 6046 0 0 1-12.565-9.138c-2.892-1.965-8.207-7.37-12.248-2.665-11.688 13.61-22.35 28.058-33.927 41.748a3508 3508 0 0 0-25.35 31.413c-2.955 3.65-6.067 8.615-11.662 8.35-40.594.066-81.19-.012-121.78.023H1095c1.401 10.235 5.918 19.91 8 30h320v116h-288c.221 10.374 6.21 19.745 7 30h265.8c5.486-.736 12.37 1.07 16.7-1 1.419 21.772-.252 43.898.5 65.727-.639 19.197.78 38.546-.421 57.688-1.063 3.979-8.73 1.845-11.366 2.585h-366.108c-7.147-.724-17.444 1.058-23.105-1 .38 10.023 5.719 19.157 7 29m118-1025h27c4.84-31.655 38.588-41.094 63.27-42.606 45.725-1.124 91.534.205 137.27-.394 22.966-.027 45.939.033 68.895-.018 10.872-.18 21.622-2.58 31.787-6.287 4.728-1.962 9.163-4.633 13.154-7.84 3.794-2.685 6.655-8.52 9.624-10.855 17.26 26.369 50.744 25.179 75.82 25H1714.9c22.425.117 45.213-1.382 67.23 3.794 9.533 2.46 20.6 6.944 27.43 13.024 8.315 6.275 12.338 16.366 14.441 26.182h27v-87.6c.257-6.21 1.283-13.03-6.151-16.848-36.917-26.23-83.844-29.405-127.322-28.552h-92.149c-15.248-.36-30.51.486-45.73-.375-12.207-.577-31.367-2.043-30.648-20.625 32.555-3.471 67.422-4.466 96.753-21.196 6.304-3.905 13.062-10.112 15.87-16.449 6.3-12.818.683-24.228-4.098-36.08-4.49-11.085-8.498-22.35-12.987-33.435-6.15-15.035-11.662-30.308-17.538-45.431 46.245-31.589 72.991-86.21 75.507-141.553 4.212-56.147-19.207-111.209-56.632-152.247-31.737-38.084-72.658-66.95-114.875-92.109 12.644-7.402 22.116-20.398 25.065-34.708 3.18-15.465 1.383-32.359-7.38-45.683-16.18-26.406-54.695-34.879-80.297-17.034-26.333 15.892-34.338 54.698-17.297 80.323 4.833 6.297 11.517 13.502 17.909 17.102-33.147 20.635-66.896 41.867-94.233 70.233-43.485 40.854-77.022 97.136-77.596 158.3-1.756 60.564 25.396 122.514 75.829 157.342-6.914 18.484-14.294 36.88-21.288 55.353-2.877 6.946-5.556 13.962-8.185 20.995-4.435 11.872-12.441 24.397-4.755 39.493 9.528 17.541 33.664 24.591 49.9 28.399 20.43 5.156 41.428 6.626 62.328 8.385.345 21.746-24.786 19.841-38.95 20.984-32.17.045-64.332-.008-96.502.016-45.149.282-92.633-3.54-135.201 15.058-9.53 3.62-18.473 8.453-26.653 14.53-7.129 4.53-3.824 16.195-4.694 23.313zm91 286.5c22.084 1.42 44.644-.254 66.823.5h16.78c3.306-.518 9.685 1.067 10.95-2.423 1.186-12.357-.143-24.92.447-37.307-.682-12.996.849-26.401-.5-39.27-15.092.217-31.387-.217-46.73 0h-24.562c-7.164.74-17.528-1.073-23.208 1-.015 25.601.015 52.17 0 77.5m0 108c22.084 1.42 44.644-.254 66.823.5h16.78c3.3-.506 9.691 1.056 10.95-2.423 1.186-12.358-.143-24.923.447-37.31-.707-13.332.873-27.041-.5-40.267-15.092.217-31.387-.217-46.73 0h-24.562c-7.164.74-17.528-1.073-23.208 1-.013 25.899.013 52.916 0 78.5m93 106.5v-78h-70.8c-6.871.623-16.737-.956-22.2 1 1.092 26.675-1.332 53.78.72 80.33 1.567 2.657 6.751.537 9.068.871 22.752-.952 45.422-3.217 68.197-3.828 5.014-.244 10.008-.417 15.015-.373m61-705.5c3.883 5.303 11.679 7.577 17.194 9.053 19.387 4.473 42.907 5.665 61.05 6.639 23.372.844 46.767 1.047 70.11-.633 11.307-1.181 22.682-1.718 33.919-3.43 10.197-2.119 24.077-3.77 29.727-11.629-3.971-5.284-11.727-7.652-17.21-9.418-24.233-7.29-49.768-6.611-74.734-7.652-25.507-.274-51.191.248-76.602 2.464-7.753.676-15.398 2.256-22.907 4.239-7.342 2.03-16.696 4.914-20.547 10.367m9-320.5c26.607.76 53.478-.926 80 .5-1.555 2.717-.668 7.154-1 10.69V1206h36v-159c-1.019-7.057 1.352-15.856-1-21.5 26.53-1.426 53.401.26 80-.5v-31h-81v-81h-32v81h-81zm1 277.625c30.916-6.688 63.378-9.216 95.177-8.625 32.412-.829 65.233 1.966 96.823 8.5-5.217-10.804-9.414-22.398-14-33.5-54.066 10.604-109.925 10.553-164 0-4.464 11.022-8.998 23.029-14 33.625M1683 2055h86.4c3.54-.495 11.54 1.304 12.146-3.007 1.295-31.988-.236-64.158.454-96.185V1797h-99z" style="fill:#fff;fill-rule:evenodd;stroke:none"/><path d="M364 2760.5v1.5h2272v-1.5c-68.931-409.09-136.257-818.54-204.874-1227.691-51.076-306.848-102.33-613.661-153.4-920.497-4.868-28.824-9.564-57.688-14.431-86.508-1.116-7.008-2.365-13.985-3.488-20.978-1.2-6.774-.246-15.245-9.425-16.859-109.868-36.632-219.702-73.24-329.563-109.867-95.996-32.013-192.02-63.992-288-96-41.993-13.978-83.98-28.011-125.966-41.994-5.663-2.605-10.407-1.693-15.513.621-156.173 52.06-312.354 104.114-468.521 156.173-58.68 19.531-117.334 39.097-175.992 58.657-25.668 8.506-51.298 17.139-76.962 25.643-6.176 2.075-12.369 4.11-18.537 6.195-3.02 1.124-6.483 1.813-8.8 4.255-62.934 375.423-125.132 751.075-187.889 1126.544C490.857 1998.664 428.048 2380.37 364 2760.5m716.5-562.5c10.126-3.826 21.29-8.617 26.178-19.35 2.31-4.525 7.648-4.995 12.255-7.019 72.593-24.764 143.84-53.328 215.067-81.631.73 33.921-.89 67.985.48 101.849 1.758 3.534 8.861 1.356 11.69 2.151 27.669-.191 56.064-1.174 82.578-9.917 8.399-3.074 16.667-6.577 24.57-10.77 2.787-1.452 6.137-3.28 7.971-5.575 3.357-4.424.635-12.846 1.711-18.886V1757h46.2c13.061.27 28.566 2.03 41.8-7v421c32.068.473 65.588 1.818 95.633-11.902a184 184 0 0 0 19.12-10.295c4.556-2.87 9.121-5.883 12.772-9.892 5.552-6.178 2.557-18.296 3.475-27.207V2084h101v53c20.465.338 41.104.865 61.178-3.827 14.163-3.222 28.317-6.653 42.042-11.474 9.086-4.108 20.968-7.057 28.369-12.691 3.272-2.352 2.148-8.255 2.411-12.389V1818c14.466-4.139 29.962-10.115 40-22-40.736-32.127-83.51-62.114-124.5-94-17.394 18.386-34.323 37.19-51.147 56.08-3.49 2.996-6.84 8.097-10.203 9.328-19.843 1.67-39.999-.289-59.907.592-14.393 1.15-27.645-4.43-40.725-9.802-39.41-15.377-79.747-28.56-119.018-44.198-1.269 7.537.102 15.402-.5 23h-1.5c-37.314-30.373-75.599-60.162-114-89-21.9 25.273-41.763 52.315-63.203 77.977-4.454 4.583-13.673 2.467-20.498 3.023H1023c.741 9.642 5.691 18.486 7 28h83v306c-30.679-.045-61.32 2.464-92 2 3.125 11.51 9.957 21.988 14.076 33.181 15.58 33.005 29.36 67.12 45.424 99.819m-48.5 376h895.8c12.484-.21 43.4 4.982 46.2-17-21.65-15.831-42.018-34.805-63.68-50.954-10.697-8.323-21.25-16.793-31.985-25.046-5.392-4.049-10.475-8.507-15.935-12.467-5.1-3.44-11.14-10.654-16.4-11.533-12.849 20.101-30.053 37.945-43.744 57.626-5.637 7.142-11.064 14.452-16.775 21.526-2.415 2.92-4.81 6.803-7.671 8.865-8.028 2.14-17.058.153-25.32.983H1573v-125h283.2c8.207.217 16.868-.884 23.712-5.837 2.952-2.004 4.856-5.058 5.588-8.496.304-2.992-3.152-5.645-5.394-7.992-36.567-31.374-74.956-61.054-113.606-89.675-11.31 14.006-22.342 28.294-33.67 42.294-8.26 10.705-16.86 21.114-25.24 31.713-3.353 3.985-5.91 9.672-11.364 9.876-41.078.335-82.153-.061-123.226.117v-118h308.4c9.357-.378 20.63.845 29.03-1.4 3.849-1.068 7.456-3.062 10.238-5.947 2.092-2.292 5.18-6.837 2.8-9.147-19.176-17.781-41.051-32.721-61.26-49.322-10.58-7.956-20.909-16.242-31.518-24.143-10.454-6.535-21.041-17.32-31.378-22.041-17.154 21.63-34.687 42.999-52.07 64.433-3.772 4.673-7.393 9.448-11.273 14.019-4.137 6.345-10.05 6.128-16.566 5.548H1096c2.55 9.336 5.461 18.67 8 28h320v118h-288c1.076 9.593 6.098 18.395 7 28h281v125h-399c.685 9.653 5.751 18.463 7 28m118-1025h25c4.906-31.856 39.021-41.225 63.83-42.65 45.957-.997 91.944.18 137.908-.35 23.188-.097 46.354.118 69.53-.064 17.774-1.045 42.515-5.896 52.732-26.936h2c8.265 17.989 26.286 23.169 44.185 26.18 25.45 2.062 51.107-.15 76.596.82h116.298c18.192-.286 36.832.094 54.128 6.587 8.204 2.796 15.892 7.26 21.942 13.482 5.79 6.42 9.11 14.538 10.851 22.931h25v-86.4a62 62 0 0 0-.465-10.616c-2.98-4.4-8.202-6.913-12.496-9.896-35.437-21.423-77.794-25.066-118.119-24.088h-94.542c-15.63-.373-31.3.528-46.905-.464-7.057-.697-15.776-1.494-21.557-4.799-6.81-4.164-8.362-10.803-7.916-17.737 32.443-3.408 67.06-4.497 96.374-20.948 12.616-7.603 25.005-22.447 15.94-40.774-5.464-14.95-11.538-29.66-17.21-44.525-6.53-15.21-11.522-31.102-18.104-46.253 71.96-47.328 95.438-150.224 61.503-227.21-15.357-34.877-39.187-64.997-66.736-91.023-13.29-13.706-28.958-24.718-44.077-36.226-15.227-9.948-30.006-21.636-46.69-29.041.79-2.873 4.909-4.409 7.185-6.83 21.495-17.282 26.973-50.776 11.5-74.061-14.135-22.645-44.215-32.622-68.897-22.023-13.538 5.188-24.497 16.397-30.5 29.416-3.71 7.247-4.721 15.336-4.288 23.344-.25 7.643.672 15.399 3.779 22.477 2.358 5.73 5.876 10.962 10.327 15.278 2.252 2.243 4.43 4.54 6.891 6.554 2.151 1.84 5.322 3.43 6.003 5.845-47.867 24.925-90.742 60.609-124.832 102.395-16.734 21.105-30.33 44.644-38.88 70.265-8.684 28.013-11.74 58.129-6.927 87.203 7.176 48.617 32.283 96.71 74.639 123.637-12.206 30.432-23.734 61.284-35.742 91.814-3.649 8.357-2.914 18.56 1.844 26.28 6.775 10.287 18.116 16.194 29.29 20.327 12.495 4.355 25.437 7.499 38.513 9.552 14.265 2.53 28.691 3.34 43.095 4.527 1.046 8.447-3.22 17.197-11.884 19.626-16.206 4.586-33.261 3.128-49.843 3.374h-90.507c-22.108.164-44.336-.679-66.36 1.664-28.205 3.075-61.879 13.817-82.004 30.886-2.67 2.26-.546 8.551-1.402 11.407zm89 287h95v-79h-72c-7.098.699-17.363-1.032-23 1zm0 108h95v-80h-72c-7.098.699-17.363-1.032-23 1zm95 108v-80h-72c-7.098.699-17.363-1.032-23 1 1.054 27.34-1.286 55.074.694 82.288 1.54 2.691 6.746.887 9.082 1.132 23.244-1.328 46.46-3.09 69.725-4.025 5.166-.248 10.34-.44 15.499-.395m59.49-706.24c2.264 6.804 13.254 8.39 18.174 10.16 7.26 1.831 14.683 2.814 22.118 3.552 31.066 3.307 62.358 3.801 93.554 2.784 22.047-.873 48.256-2.728 67.826-8.208 3.578-1.592 8.661-3.298 10.477-6.216 2.303-4.256-1.316-6.636-4.612-8.313-27.868-13.047-59.801-10.443-89.543-12.205-15.779-.57-31.553.51-47.316.658-14.652.395-29.364 1.523-43.733 4.469-8.866 2.413-20.753 4.346-26.042 10.712-.535.852-1.136 1.327-.904 2.608M1402 1026h81v179h34v-179h81v-33h-81v-81h-34v81h-81zm0 278.625c31.386-7.824 64.585-9.83 96.98-9.625 33.124-.483 66.883 1.865 99.02 9.5-5.15-12.043-10.327-24.265-15-36.5-13.42 1.526-26.67 4.492-40.167 5.517-42.027 4.841-84.282 1.084-125.833-5.517-4.57 12.06-10.084 24.964-15 36.625M1682 2056h88.2c3.611-.494 11.73 1.341 12.365-3.045 1.24-32.583-.225-65.353.435-97.978V1796h-101z" style="fill:#000;fill-rule:evenodd;stroke:none"/></svg>