<svg xmlns="http://www.w3.org/2000/svg" width="3000" height="3000"><path d="M406 2716h2188c-.452-13.213-4.171-26.125-5.71-39.208C2468.846 1960.196 2349.431 1243.585 2230 527c-109.325-35.987-218.457-72.878-327.734-109.071-95.467-31.86-190.966-63.65-286.44-95.486-21.006-7.01-42.008-13.98-63-21l-30.529-10.183c-9.47-3.025-21.252-8.92-30.35-5.086-156.884 52.344-313.79 104.58-470.681 156.897-58.813 19.64-117.642 39.186-176.447 58.829-13.016 4.296-26.007 8.68-39 13-6.335 2.066-12.631 4.23-18.954 6.3-3.19 1.104-6.385 2.128-9.576 3.212-7.976 1.527-8.94 7.943-9.29 14.656-63.894 383.21-127.754 766.408-191.617 1149.624-28.466 171.167-57.103 342.324-85.568 513.49-14.29 85.674-28.582 171.345-42.844 257.017-7.145 42.829-14.299 85.67-21.418 128.502-3.57 21.335-7.128 42.665-10.66 64.002-1.808 10.66-3.57 21.336-5.34 31.998-1.36 10.463-4.53 22.595-4.552 32.299m632.5-1346c78.402-44.87 146.62-106.138 202.575-176.821 27.97-34.599 52.426-71.92 75.63-109.808 11.905-19.408 22.819-39.378 33.766-59.326 2.657-5.314 5.321-10.605 7.97-15.92 1.84-3.204 3.103-8.45 8.044-8.964 13.061.401 25.964-4.945 32.515-16.661-62.237-23.703-123.643-50.049-186-73.5-14.885 83.733-38.17 166.17-68.084 245.744-14.698 38.976-31.88 76.948-51.324 113.767-9.73 17.716-19.702 35.299-30.509 52.381-5.704 8.32-11.011 16.914-16.979 25.047-2.87 3.954-5.658 7.978-8.514 11.936-.942 1.886-3.442 3.986-2.958 6.24.694 2.32 2.028 4.302 3.868 5.885m-.5 1184.375c1.168 1.78 3.445 3.045 4 5.625 61.275-23.85 121.534-55.04 168.975-101.476 48.674-45.868 83.192-107.021 97.025-172.524h405v90c-.809 11.818 4.25 30.856-12.998 35.892-7.08 1.632-14.396.723-21.562.651l-11.089-.33c-3.141-.184-7.633.188-8.851-2.213-2.136 3.437-8.704.643-12.865 1.314-4.268-.547-10.076.469-12.135-2.314-4.583 3.507-12.995-.12-19.47.739l-10.845-.43c-3.224-.198-6.901.09-8.685-2.309-3.339 3.251-9.22.947-13.35 1.034-14.74-.49-29.43-1.389-44.15-2.034v11c35.78 4.51 73.077 15.43 99.233 41.733 13.686 12.354 22.312 29.256 25.984 47.198 4.826 18.4 7.476 37.23 9.783 56.069 26.107-1.587 51.917-6.013 77.364-11.855 34.582-8.58 70.944-25.953 87.422-59.69 17.054-36.836 15.215-78.522 15.214-117.962v-402.439c-.033-4.672-.141-9.38.522-13.98 1.159-2.525 5.569-2.347 8.221-3.563 8.803-2.633 16.533-7.929 23.257-14.011-2.676-5.394-10.784-8.18-14.608-12.583-35.574-27.366-70.997-54.985-106.892-81.917-13.815 16.416-28.665 31.98-42.96 47.983-5.641 5.348-10.707 13.254-16.454 17.534-63.626 1.377-127.43-.25-191.086.483v-3c36.1-15.144 69.922-35.608 103.94-54.837 16.591-9.68 32.606-20.323 48.667-30.832 4.183-2.816 8.304-5.727 12.57-8.402 5.494-3.335 14.536-2.976 21.739-5.005 8.23-1.049 12.926-5.52 19.084-9.424-40.468-34.277-81.607-68.467-121.5-103.5-24.052 22.525-45.878 47.74-70.535 69.53-36.9 1.341-74.025-.245-110.965.47.332-4.901 5.766-8.537 8.198-12.287 11.22-13.612 22.693-27.049 32.551-41.703 3.223-2.973 4.962-8.717 8.924-9.544 12.298-1.621 28.111 3.46 37.327-11.966-62.047-17.326-125.54-31.058-187.5-48.5-13.506 36.924-30.161 72.495-48.692 107.12-28.216 50.352-59.927 98.877-96.933 143.271-36.734 45.508-78.216 86.411-124.875 122.109 2.606 2.953 5.61 5.854 9.51 4.393 3.992-1.39 7.927-3.005 11.895-4.453 42.436-15.144 81.554-38.69 121.595-58.44v174c-2.597 79.427-1.869 162.892-26.616 240.17-11.402 36.044-26.91 70.951-47.868 102.476-20.325 30.085-49.14 61.66-74.516 82.729M1236 1436c20.38 4.177 41.116 7.925 60.66 15.381 26.603 9.678 56.03 29.003 70.33 51.101 16.306 26.006 18.952 57.952 23.01 87.518 28.016-2.396 55.98-6.51 83.298-13.238 37.658-9.327 77.168-28.328 94.891-65.152 18.026-41.062 15.331-87.27 15.811-130.93V727c13.64-2.048 31.901-6.86 35-26-60.039-4.688-119.942-11.573-180-16v625.2c-.245 34.822.299 69.652-.161 104.465-.618 6.56-1.508 14.961-10.298 17.549-11.575 2.907-23.73 1.344-35.49 1.201a799 799 0 0 1-18.463-.94c-5.33-1.2-13.277.867-16.088-2.475-3.69 3.488-10.181.805-14.669 1.068-18.275-.347-36.508-1.227-54.75-2.172-8.621-.135-18.67-.398-26.62-1.17-8.54-.62-18.761-.071-26.461-1.726zm47 452.5v1.5c14.937 4.244 29.446 10.063 44.183 14.9 5.363 1.553 11.498 4.296 16.62 4.917 46.063.522 92.14-.095 138.197.183 17.155-38.841 35.119-78.093 47-119h-133.2c-7.377-.704-11.06 4.692-15.775 9.475-15.444 15.78-31.041 31.371-47.758 45.761-7.499 7.825-16.377 14.1-24.402 21.327-8.402 6.033-15.867 14.483-24.865 19.437v1.688zm31 372.5h134v-152h-125c-.155 26.225.672 52.544-1.582 78.7-1.29 24.538-4.566 48.95-7.418 73.3m9-178h125v-147h-125zm255 0h135v-147h-135zm0 178h135v-152h-135zm71-1332.687c7.072 13.914 19.364 28.332 26.123 41.03 33.695 53.385 62.108 110.045 86.346 168.29 19.345 44.997 34.247 91.802 45.21 139.51 1.678 8.812 3.06 17.708 4.894 26.482 1.11 4.054 5.009 6.143 8.134 8.64 12.885 9.715 27.574 17.406 43.192 21.608 28.842 7.72 59.837-7.733 74.18-33.009 11.859-19.014 16.38-41.827 15.921-63.986.602-32.416-9.185-64.482-23.675-93.21-13.277-28.654-32.366-53.987-53.494-77.233-59.403-63.65-135.307-109.499-216.083-140.852-3.904-1.912-6.892 1.31-10.748 2.417z" style="fill:#fda;fill-rule:evenodd;stroke:none"/><path d="M291 2812.5c402.66 1.426 806.125-.26 1208.95.5 402.946-.76 806.184.926 1209.05-.5-66.691-393.12-131.048-787.321-197.186-1180.681C2447.104 1239.148 2380.056 846.747 2316 454c-136.143-44.935-272.089-90.768-408.181-135.9-102.008-33.974-204.008-68.03-306-102-19.182-6.399-38.38-12.77-57.553-19.171-8.997-3.033-18.01-5.99-27-9-7.928-3.04-16.863-7.25-26.38-2.738-134.51 44.908-269.079 89.643-403.589 134.55C952.797 364.27 818.541 409.675 684 454c-64.117 393.376-131.371 786.397-196.109 1179.703C421.811 2026.161 357.548 2420.573 291 2812.5m116-97.5h2186c-120.11-729.14-243.257-1457.94-364-2187-109.157-35.927-218.092-72.748-327.181-108.9-95.331-31.722-190.626-63.585-285.954-95.3q-31.498-10.534-63-21l-30.566-10.195c-9.852-3-21.422-9.034-30-5.21-156.482 52.2-313.005 104.314-469.48 156.505-58.858 19.6-117.69 39.211-176.522 58.84-12.832 4.262-25.65 8.528-38.47 12.817-6.336 2.128-12.684 4.227-19.008 6.343-5.33 2.846-14.097 3.151-17.405 7.24-66.013 385.799-128.474 772.546-193.688 1158.548C521.372 2030.17 462.67 2372.459 407 2715" style="fill:gray;fill-rule:evenodd;stroke:none"/><path d="m1323 1936.5.5 1.5c3.837-1.947 9.998-.375 14.877-1H1447v127.8c-.801 5.812 1.134 13.088-1 17.7.972.384 1.963.51 3 .5v-148h-126zm0 173 .5 1.5c3.837-1.947 9.998-.375 14.877-1H1447v132.6c-.812 5.881 1.146 13.24-1 17.9.972.384 1.963.51 3 .5v-153h-126z" style="fill:#7f6e55;fill-rule:evenodd;stroke:none"/><path d="M1577 2084h136v-2h-134v-111c.726-11.591-1.06-25.497 1-36h-3z" style="fill:#40372b;fill-rule:evenodd;stroke:none"/><path d="M1060.5 2533c3.354-1.609 7.377-6.289 8.5-9-3.691.593-9.232 5.616-8.5 9m43-571c2.234-.424 4.256-3.304 4.5-5-2.458-.46-5.571 3.038-4.5 5m11.5-13.75c.047.678.167 1.205.75 1.75 2.22-.89 4.074-3.734 6.227-5.477 1.805-1.96 4.444-4.058 5.023-6.523-6.433.941-8.264 6.492-12 10.25m71.5 206.75c.724-2.968.61-7.598 0-10-2.301 2.603-3.673 7.102 0 10m95.5-726.625c1.313 1.294 4.548.31 6 .125-.576-.726-.932-1.572-1-2.5-1.737.376-3.948 1.02-5 2.375m73 3c1.313 1.294 4.548.31 6 .125-.576-.726-.932-1.572-1-2.5-1.935-.116-3.8.866-5 2.375m59 1.89c1.732 1.38 6.087.501 8 .235-2.364-2.781-5.69-2.467-8-.234m177 975.11c1.313 1.294 4.548.31 6 .125-.576-.726-.932-1.572-1-2.5-1.935-.116-3.8.866-5 2.375m39 2c1.313 1.294 4.548.31 6 .125-.576-.726-.932-1.572-1-2.5-1.935-.116-3.8.866-5 2.375m26 1.125c1.174.895 3.473.426 5 0-.558-.728-.977-1.561-1-2.5h-3c.041 1.08-.352 1.778-1 2.5" style="fill:#f2d3a5;fill-rule:evenodd;stroke:none"/><path d="M1038.5 1372c19.378-11.944 38.99-23.793 57.406-37.279 64.513-46.57 120.564-104.024 167.624-168.087 23.117-31.185 43.153-64.529 63.355-97.616 9.985-17.43 19.72-35.022 29.022-52.814 2.52-4.489 4.703-10.251 7.47-14.091 1.922-3.333 8.623-1.365 11.491-2.496 9.524-1.445 22.956-6.559 25.132-18.617-63.15-22.963-125-50.5-188-74-7.19 42.555-17.38 84.716-28.674 126.36-17.015 61.241-37.908 121.412-63.865 179.45-13.388 28.565-27.221 57.011-43.462 84.083-7.582 13.23-15.665 26.114-24.342 38.648a1027 1027 0 0 1-13.332 18.907c-2.174 2.4-3.845 5.764-5.843 8.817-.078 3.271 4.377 6.431 6.018 8.735m-2.5 1182.5c1.656 2.173 4.406 3.677 5 6.5 8.36-.975 17.032-6.733 24.25-9.05 57.303-24.054 111.898-56.074 155.352-101.052 44.042-44.643 75.25-102.529 88.398-163.898h403v76.2c-.076 9.617.095 19.209-.057 28.82.162 7.338-3.2 15.332-10.522 18.069-13.223 3.825-27.406.05-40.901.845-41.53-1.473-83.004-4.332-124.52-5.934v13c35.78 4.51 73.077 15.43 99.233 41.733 13.686 12.354 22.312 29.256 25.984 47.198 4.826 18.4 7.476 37.23 9.783 56.069 25.984-1.171 51.725-5.796 77.067-11.33 34.873-8.19 71.518-25.161 88.884-58.554 17.821-36.305 15.771-78.094 16.049-117.224v-406.637c.636-4.388-1.166-10.75 1.705-13.763 12.155-2.93 23.656-8.717 32.295-17.992-41.516-31.637-83.038-63.727-124.5-95.5-13.784 16.403-28.834 31.735-42.894 47.895-5.603 5.393-10.763 13.113-16.274 17.685-2.588 2.211-7.62.99-11.28 1.42-59.62-.76-119.52.926-179.052-.5 35.846-16.42 70.397-35.589 104.355-55.566 16.644-9.953 32.983-20.432 49.109-31.177 4.045-2.73 8.762-5.977 12.568-8.328 6.688-3.31 14.945-2.42 21.982-4.75 7.137-1.643 13.556-5.329 18.986-10.179-22.638-19.03-45.083-38.357-67.693-57.424-16.866-14.269-33.622-28.658-50.5-42.905-1.76-1.038-3.387-3.498-5.174-3.671-6.478 3.07-12.184 11.783-17.866 16.233l-30.742 30.742c-7.853 6.61-15.348 16.994-23.268 22.057-18.234 1.328-36.687-.236-54.95.468-17.833-.723-36.087.89-53.807-.5 12.563-15.27 25.472-30.294 37.091-46.304 2.903-4.094 5.75-8.218 8.917-12.111 5.016-5.598 16.203-1.464 23.962-3.495 8.736-.774 13.44-6.033 18.03-12.09v-1.5c-63.89-14.702-127.149-33.013-191-48-12.186 37.227-30.376 72.352-48.192 107.12-28.216 50.352-59.927 98.877-96.933 143.271-36.599 46.243-79.25 87.152-125.875 123.109l7.5 7.5c46.766-17.968 93.049-38.95 136-65 1.426 57.52-.26 115.39.5 172.97.448 41.69-1.679 83.309-5.472 124.798-4.974 58.239-16.68 116.55-42.431 169.496-23.131 51.013-59.928 94.998-102.097 131.236M1235 1437c20.38 4.177 41.116 7.925 60.66 15.381 26.603 9.678 56.03 29.003 70.33 51.101 16.306 26.006 18.952 57.952 23.01 87.518 27.915-1.692 55.639-6.456 82.898-12.575 37.18-9.398 77.024-26.69 95.77-62.742 19.133-39.644 16.648-85.35 17.332-128.008V728c13.88-2.022 33.798-7.587 35-28-30.339-3.05-60.767-5.31-91.125-8.194-30.322-2.14-60.503-6.596-90.875-7.806v718.8c-.275 8.495.74 20.268-5.41 25.612-6.379 4.917-15.01 4.452-22.576 4.584-58.279-3.186-116.793-4.12-175.014-7.996zm49 451.375c13.92 5.675 29.073 9.634 43.172 15.182 5.37 1.552 11.476 4.187 16.528 5.128 45.736.898 91.55-.163 137.3.315 17.87-37.798 33.243-77.027 47-116.5-24.975-1.424-50.284.258-75.318-.5-18.925.015-37.86-.018-56.783.01-6.512-.637-11.358 5.977-15.501 10.092-30.571 30.301-62.048 60.386-96.398 86.273M1315 2260h133v-151h-124c.007 26.084.461 52.228-1.414 78.254-1.834 24.286-3.774 48.703-7.586 72.746m9-178h124v-146h-124zm254 1h134v-146h-101.4c-10.374-1.008-23.32 1.341-32.6-1zm1 177h133v-150h-133zm68-1331.41c19.323 29.786 39.25 59.532 56.193 90.845 30.988 57.582 59.561 116.965 79.886 179.292 8.983 23.984 14.81 48.988 21.28 73.699 2.504 10.304 3.823 20.858 5.961 31.225.989 5.055 5.888 7.598 9.638 10.578 15.864 11.743 34.617 20.726 54.437 22.6 17.496 1.093 34.903-5.542 48.418-16.333 22.902-20.912 32.174-53.038 31.187-83.22 1.716-45.448-18.36-88.252-41.068-126.19-25.117-36.604-56.336-68.74-90.939-96.502-48.938-38.46-105.066-67.254-162.57-90.483-4.832-1.637-8.59 2.4-12.423 3.899z" style="fill:#000;fill-rule:evenodd;stroke:none"/></svg>