<svg xmlns="http://www.w3.org/2000/svg" width="3000" height="3000"><path d="M363 2763h2274c-116.777-706.336-235.544-1412.426-352.792-2118.701-7.351-44.171-14.733-88.332-22.082-132.49-.76-5.347-1.88-10.63-2.64-15.97-.062-6.502-4.856-8.386-10.16-9.572-81.497-27.15-162.975-54.317-244.46-81.467-142.336-47.478-284.708-94.881-427.04-142.357-13.532-4.49-27.037-9.017-40.56-13.514-6.477-2.17-12.972-4.309-19.44-6.486-6.235-1.594-13.427-5.493-19.495-5.034-100.387 32.434-200.209 66.92-300.466 99.791-150.35 50.002-300.828 99.614-451.039 150.05-5.982 1.452-6.275 6.662-6.798 11.742-24.43 146.388-48.84 292.799-73.214 439.189C565.92 1546.494 463.462 2154.662 363 2763m646-438.562c1.55 2.05 3.828 3.456 5.336 5.562 34.491-16.93 66.73-38.438 97.86-60.87 15.567-11.643 30.897-23.642 45.562-36.401 7.09-6.51 15.882-13.566 21.975-19.962 3.341-3.62 7.31-6.502 10.868-9.874 3.297-3.024 7.437-8.462 11.399-8.893-.623 66.91-1.072 134.788-15.854 200.387-4.148 15.15-8.934 30.52-17.842 43.675-6.684 10.25-19.471 14.852-31.237 14.916-19.248.31-38.495-.056-57.653-1.927-18.408-1.672-37.13-1.398-55.414-4.051.23 3.48-.852 9.839 2.978 10.757 3.664 1.523 7.581 2.257 11.318 3.524 13.61 4.618 26.987 10.375 38.32 19.402 8.402 6.283 18.59 14.209 23.632 22.626 9.187 14.725 12.519 32.14 14.866 49.063 2.605 17.74 2.811 35.75 2.886 53.628 29.475-.598 59.152-3.089 87.457-11.85 19.322-5.426 40.927-16.809 53.913-30.02 22.3-21.478 36.021-50.205 47.523-78.421 11.977-30.673 17.966-63.217 23.885-95.44 7.778-46.39 8.245-93.428 10.222-140.269 32.633-11.09 63.151-28.33 95-41v395c30.722.332 62.109.277 91.63-9.53 13.463-4.827 26.14-11.647 37.625-20.16 7.843-4.641 8.446-12.11 7.745-19.73V2531h190v68c41.069 1.124 82.38-5.715 120.43-21.574 7.424-3.437 20.303-6.918 19.564-18.118.016-33.612-.002-67.182.006-100.785v-255.511c.314-2.32-.197-5.781 1.468-7.214 6.962-2.733 14.414-4.431 20.975-8.172 6.193-3.506 11.81-7.821 16.557-13.126-27.745-20.86-55.095-42.288-82.977-62.972-10.228-8.12-20.884-15.66-31.097-23.796-2.264-1.787-4.616-3.453-6.903-5.204-2.179-1.461-5.178-4.261-7.467-3.968-15.161 15.595-28.78 32.66-43.879 48.33-5.788 5.44-11.011 13.504-16.727 18.029-6.908 2.297-16.827.226-24.037 1.081h-127.8c-7.118-.071-14.53.698-21.304-1.938-5.838-1.642-12.301-5.16-17.809-6.062.296-4.665 6.206-7.072 9.309-9.554 29.942-19.973 58.372-42.126 86.512-64.52 21.1-16.952 41.838-34.37 61.687-52.745 3.923-3.248 11.132-1.825 16.744-2.181h197.179c10.93-.299 21.905.402 32.819-.31 8.906-.692 18.842-5.08 21.75-14.23-18.013-17.794-37.562-33.923-56.615-50.557-19.323-15.477-37.223-33.733-57.385-47.903-13.976 22.037-31.577 42.4-46.318 64.077-4.03 5.382-8.077 10.745-11.907 16.271-1.467 2.064-3.067 4.015-4.972 5.672-9.272 2.31-19.863-.023-29.428.98H1752c1.116-6.087 9.707-10.57 13.733-16.233 37.447-37.38 71.705-77.828 104.61-119.227 16.306-20.169 31.034-41.55 45.822-62.82 3.42-5.32 7.204-10.398 10.407-15.847 2.541-3.85 5.266-8.761 8.384-11.66 7.11-2.96 16.316.446 23.772-2.16 6.368-2.096 15.429-6.612 16.272-13.053-25.982-11.817-50.835-26.578-76.872-38.438-26.376-11.9-51.083-28.321-78.128-38.562-12.389 31.657-29.162 61.543-44.908 91.605-2.02 3.616-4.191 7.155-6.2 10.774-3.81 10.118-11.79.368-16.307-3.527-8.234-7.027-16.561-13.946-24.779-20.989-4.16-3.603-8.238-7.285-12.671-10.554-4.153-2.796-8.907-8.642-13.135-9.309-8.351 14.128-19.948 26.845-29.002 40.664-10.22 12.603-20.248 29.153-29.998 40.336h-2v-104.4c.03-4.28-1.13-10.924 4.768-11.708 11.556-2.371 26.902-7.2 28.232-23.892-56.11-2.688-111.914-10.041-168-13v156c-49.929.76-100.151-.926-150 .5 2.615 7.735 5.843 18.83 7 25.5h143v150h-178c2.027 8.445 5.732 18.111 7 26h258v2.5c-22.65 25.154-45.747 50.013-69.985 73.67-3.51 2.655-6.544 5.874-9.663 8.937-2.284 2.273-5.713 4.032-7.679 6.239-3.148 3.943-8.535 11.506-13.466 11.072-9.336-2.036-18.008-6.668-27.148-9.403-9.304-4.134-19.536-6.31-28.559-11.015-1.423 24.2.256 48.737-.5 73-31.543 21.448-60.774 49.55-95 67-1.49-13.339-.711-26.788-1.397-40.149-5.658-91.076-16.175-184.269-53.884-268.468-8.485-20.32-19.618-39.374-31.17-58.04-1.89-3.314-5.284-6.858-5.87-10.437-1.058-3.461 4.297-6.666 5.923-9.008 20.775-20.19 40.002-41.795 59.111-63.527 9.841-10.361 17.788-22.464 27.61-32.784 2.627-2.3 7.53-1.036 11.4-1.038 10.601 1.372 22.423-2.522 28.277-12.049-51.452-28.777-101.909-59.65-153.33-88.5-6.259 11.77-8.971 25.674-14.959 37.714-8.495 20.822-17.4 41.477-27.386 61.62-3.95 7.302-6.329 15.528-11.187 22.34-2.643 2.512-6.526-3.14-8.665-4.069-20.374-17.104-42.275-32.355-64.945-46.21-11.362-7.08-23.147-13.37-34.81-19.89-6.092-3.335-12.395-6.23-18.553-9.433-3.297-1.598-6.486-3.48-10.047-4.405-2.734-.675-5.945 4.065-7.118 5.833 24.687 24.252 48.942 49.168 68.69 77.756 14.243 20.72 29.51 41.81 38.818 65.314.391 4.48-3.88 9.175-6.1 13.587-18.266 30.097-36.617 60.216-57.571 88.561-10.478 14.713-21.606 28.988-33.232 42.81-5.9 6.989-11.97 13.801-17.977 20.684-2.499 3.709-6.801 6.93-9.081 10.306-3.5 3.327 3.303 8.38 4.797 10.482 46.017-21.774 88.602-50.697 129.23-81.16 7.59-5.103 15.587-13.555 22.934-17.341 7.949 6.598 4.72 18.338 3.852 26.307-10.663 69.826-31.796 137.98-59.636 202.738-14.319 31.365-29.462 62.538-47.507 91.943-17.705 28.326-36.37 56.658-58.217 81.95m9-1186.188c1.033 2.071 2.941 4.482 4.5 6.75 77.557-23.417 154.131-51.33 225.106-90.907 34.057-18.462 66.117-40.447 97.414-63.19 15.406-11.905 30.645-24.053 45.34-36.806 7.29-6.877 14.986-13.296 22.241-20.204 3.511-3.496 6.996-6.999 10.501-10.495 3.441-2.995 6.788-7.945 10.898-8.398v133h-160c3.019 7.947 5.047 19.892 8.298 26.098 9.79 2.06 20.257.044 30.2.902H1434v140c38.944.798 78.873-1.921 115.239-17.497 3.952-1.643 8.753-3.593 11.746-6.227 5.231-5.742 1.804-17.41 3.015-25.807V1075h145.2c12.542-.362 30.873 2.76 37.8-14.687-13.738-13.502-28.263-26.194-43.433-38.072-15.069-11.243-28.901-25.02-44.567-35.241-10.65 16.327-25.022 30.884-36.394 46.881a629 629 0 0 1-9.606 12.058c-2.21 3.173-6.208 2.685-10.564 2.154-12.815-.255-25.631.037-38.436-.093v-93c-.166-2.333.177-4.592.496-6.876 1.47-3.08 7.729-2.211 10.13-3.884 11.989-2.79 18.424-10.533 22.374-20.74-52.918-3.91-106-9.81-159-13.5.953-5.446 8.518-9.57 11.693-15.06 15.628-18.745 31.524-37.345 45.17-57.652 3.19-4.38 6.25-8.886 9.526-13.194 3.556-4.656 11.486-2.533 16.536-3.094 23.261.283 46.534-.345 69.778.186 4.657.24 6.312 6.252 8.224 9.646 30.876 61.093 69.59 118.377 116.204 168.561 23.772 24.961 50.18 47.309 77.84 67.818 27.47 19.875 56.875 37.438 88.029 50.789 3.877-31.598 17.835-61.365 39.023-85.035 10.513-12.076 22.424-23.03 35.278-32.54 6.188-4.57 12.267-9.286 18.89-13.2 2.943-2.355 6.825-3.939 9.133-6.99.817-4.001.635-8.245 1.676-12.235-68.073-8.306-136.412-19.8-200.883-44.166-31.611-10.979-62.202-24.823-91.02-41.854-14.234-8.318-28.266-17.096-40.972-27.66-6.483-4.95-12.818-10.05-18.358-16.053l-9-9c-2.629-2.825-6.484-5.8-6.767-9.267 29.115 2.196 58.429.137 87.59 1h197.371c10.69.06 21.418.277 32.03-1.184 8.924-1.203 20.59-4.908 22.009-14.816-22.974-17.927-44.337-39.4-67.204-57.809-22.375-18.86-45.458-36.917-68.296-55.191-16.096 21.072-31.686 42.6-47.608 63.8-6.02 7.987-11.98 16.014-18 24-2.758 3.514-5.16 7.29-7.905 10.793-2.485 3.906-8.075 3.573-12.168 3.407H1525c2.897-11.68 12.14-20.93 16.516-32.02 8.597-16.314 16.54-32.928 23.45-50.027.976-2.109 1.705-4.442 3.386-6.113 7.678-1.099 16.741.96 24.217-3.086 7.637-2.26 13.146-8.27 16.431-15.254-30.94-11.264-64.223-17.748-95.597-28.207-31.785-9.17-63.632-18.159-95.403-27.293-9.732 35.399-20.554 70.607-35.3 104.303-4.896 12.695-10.814 24.942-16.198 37.408-2.532 5.134-4.95 10.312-7.203 15.567-2.881 6.475-10.818 4.4-16.076 4.722-94.687.76-189.626-.926-284.223.5 2.398 3.888 2.567 10.429 4.691 15.381 1.448 4.613 1.904 10.825 6.946 10.964 35.517.442 71.06-.08 106.584.155H1341c-.539 4.154-4.272 8.783-6.412 13.156-37.59 63.863-82.738 124.152-137.563 174.32-26.26 26.5-55.96 49.323-86.02 71.271-29.389 21.855-61.292 40.156-93.005 58.253zm17 135c2.823 7.965 5.342 18.14 7 25.75h197c-.744 62.882-15.467 127.8-53.298 179.088-34.56 50.336-88.64 82.173-141.702 108.912 1.088 2.215 3.427 4.5 4.5 7 55.148-12.981 111.205-27.07 162.347-52.43 37.407-18.538 72.783-42.053 101.495-72.577 20.008-23.655 38.016-49.498 48.18-79.083 8.823-23.107 13.205-47.52 16.332-71.922.953-4.623.825-10.23 1.61-14.467 1.543-5.092 6.79-4.411 11.085-4.521H1602v296c42.89.753 86.88-3.055 126.7-20.49 8.166-3.766 19.52-7.783 18.3-20.594V1299h175.2c16.9-.184 40.446 2.942 46.8-14.687-39.185-35.473-80.905-68.14-122-101.313-14.967 17.843-28.498 37.175-42.895 55.525-7.11 9.342-14.36 18.571-21.448 27.922-2.023 1.975-3.696 5.226-6.018 6.081-9.794 1.136-19.801-.035-29.639.472v-95c14.199-2.967 33.982-6.825 36-28-60.44-3.046-120.573-10.805-181-14v137h-223v-93c6.849-1.076 15.01-3.082 20.458-6.484 6.8-4.428 8.835-10.513 11.542-17.016-6.657-2.56-14.366-1.299-21.31-2.697-49.919-4.313-99.756-9.794-149.69-13.803-2.086 10.805-.247 22.03-1 32.936V1273h-204zM1573 2322h190v-149h-190zm0 183h189c1.77-11.225.564-22.69 1-33.985-.21-39.38.255-78.772-.138-118.131.05-5.684-6.233-4.95-10.448-4.884H1573zm68-554h2.5c15.633-18.54 29.896-38.27 44.36-57.712 7.037-9.776 13.992-19.635 20.738-29.61 3.535-5.003 7.1-9.96 10.376-15.138 2.914-4.747 7.833-10.132 8.026-15.54h-86z" style="fill:#fda;fill-rule:evenodd;stroke:none"/><path d="M244 2863.5c418.26 1.426 837.325-.26 1255.75.5 418.681-.76 837.643.926 1256.25-.5-137.483-816.352-271.828-1633.965-409-2450.5-141.513-45.746-282.358-94.352-423.703-140.74-105.839-35.248-211.646-70.575-317.47-105.817l-60-20a8496 8496 0 0 1-28.008-9.343c-4.68-1.543-9.347-3.083-13.982-4.729-5.086-2.015-9.193.742-14.014 2.193-139.528 46.49-279.049 93.006-418.557 139.507C931.703 319.858 792.72 367.853 653 413c-137.126 816.275-271.612 1634.71-409 2450.5m120-103v1.5h2272v-1.5c-68.931-409.09-136.257-818.54-204.874-1227.691-51.028-306.678-102.288-613.313-153.312-919.99-4.869-28.835-9.565-57.678-14.432-86.51-1.133-7.012-2.351-14.007-3.495-21.008-1.484-6.504-.056-15.285-8.94-17.157-109.703-36.573-219.416-73.135-329.12-109.701-96.009-31.978-191.992-64.023-288-96-41.971-14.027-84.002-27.963-125.969-41.994-9.552-4.304-21.398 2.4-30.56 4.946-155.047 51.948-310.255 103.285-465.433 154.805-58.187 19.4-116.394 38.801-174.566 58.195-25.476 8.525-51.019 16.959-76.48 25.505-5.454 2.642-13.186 3.29-17.14 6.618-2.1 1.795-1.737 5.77-2.555 8.884-62.19 372.917-124.31 745.877-186.485 1118.792C490.857 1998.664 428.048 2380.37 364 2760.5" style="fill:gray;fill-rule:evenodd;stroke:none"/><path d="M1429 917.5c.05.544.222 1.035.5 1.5l3-3c1.42 22.113-.253 44.679.5 66.884v33.56c-.61 10.483.944 23.06-1 32.556h3V913h-2.5c-1.173 1.233-2.867 2.646-3.5 4.5" style="fill:#40372b;fill-rule:evenodd;stroke:none"/><path d="m1378.5 1304 4.5-4.5c-1.571-.693-3.336-.44-5-.5.069 1.668-.197 3.44.5 5m125 799c2.763-1.046 5.864-4.757 6.5-7-3.137.421-7.508 3.894-6.5 7" style="fill:#f1d3a5;fill-rule:evenodd;stroke:none"/><path d="M1014.5 2332c33.735-18.12 66.666-38.008 97.42-60.934 31.28-23.215 61.213-48.344 88.58-76.066 1.156 33.967-1.002 68.431-2.359 102.424-1.493 24.733-3.843 49.461-8.338 73.838-3.277 17.387-7.18 34.858-14.498 51.066-4.594 10.8-11.28 23.607-25.702 27.576-10.46 3.283-21.69 1.605-32.434 2.095-31.382-1.585-62.873-3.068-94.169-5.999.29 4.83-1.346 11.851 3.894 13.133 4.511 1.59 9.233 2.515 13.674 4.31 25.623 8.7 54.212 28.31 64.436 51.717 10.989 29.204 11.737 61.079 11.996 91.84 29.945-.37 60.128-2.95 88.913-11.694 19.521-5.393 41.348-16.859 54.457-30.176 22.399-21.598 36.182-50.477 47.681-78.868 11.989-30.709 17.887-63.288 23.802-95.536 7.743-46.228 8.134-93.065 10.147-139.726 31.382-12.172 62.437-25.908 92.5-41 1.426 131.539-.26 263.402.5 395 30.998.273 62.665.463 92.54-9.18 13.729-4.702 26.626-11.626 38.315-20.207 7.809-4.556 8.982-11.707 8.145-19.443V2532h188v68c41.914 1.248 84.11-5.36 122.902-21.766 8.167-3.892 20.438-6.723 19.098-19.13v-337.128c.04-6.594-.05-13.167.027-19.756-.57-6.136 4.51-6.856 8.677-7.975 12.116-3.472 22.825-10.487 31.296-19.745-21.517-17.11-44.028-32.961-65.521-50.117-10.99-8.143-21.866-16.44-32.686-24.8-11.298-7.043-20.576-17.522-32.45-23.583-14.167 16.461-29.032 32.357-43.439 48.607-5.683 5.644-11.225 13.32-16.587 18.343-3.176 2.584-7.53 1.97-11.396 2.05h-137.268c-7.151-.233-15.83.685-22.173-1.356-6.498-2.35-13.011-4.8-19.48-7.144 40.019-29.115 81.128-57.21 118.311-90.096a592 592 0 0 0 21.135-18.127c6.957-5.207 13.68-13.012 20.162-17.64 75.23-1.817 150.892.33 226.207-.637 8.975-.189 18.353.847 27.012-2.183 5.883-1.94 15.603-8.718 11.777-15.17-35.49-34.937-75.252-65.744-112.604-98.647-16.497 20.597-31.392 42.806-47.389 63.857-4.172 5.255-7.944 10.832-11.93 16.22-2.93 5.143-6.27 8.518-11.965 7.918-16.807-.7-34.028.878-50.716-.495 39.816-39.965 78.1-81.543 112.843-126.05 17.53-21.467 33.428-44.172 49.333-66.823 3.954-5.664 7.673-11.49 11.52-17.216 2.53-4.178 4.995-8.452 8.138-12.196 2.919-3.146 8.57-1.895 12.436-2.215 9.926.37 24.178-2.046 29.73-14.336-24.902-14.64-51.737-26.418-77.366-39.84-26.264-13.287-52.22-27.16-78.8-39.824-3.23 2.998-4.433 9.25-7.035 13.634-14.979 32.468-30.776 64.79-49.299 95.366-21.037-16.317-40.037-35.755-61.828-51-20.51 26.948-39.795 54.937-60.172 82-1.426-27.474.26-55.451-.5-83.02V1699c-.266-4.52-.633-9.922 5.736-10.307 6.475-1.259 14.211-3.784 18.828-7.874 2.533-2.245 4.895-4.812 6.378-7.874 1.452-2.595 1.743-6.124 3.058-8.445-.458-.45-.911-.96-1.25-1.5-56.712-2.452-113.046-10.586-169.75-13v156h-150c1.076 9.593 6.098 18.395 7 28h143v148h-178c.898 9.604 5.945 18.415 7 28 85.903.76 172.209-.926 258 .5-22.472 25.065-45.546 49.705-69.568 73.314-6.598 5.3-12.185 11.741-18.302 17.556-4.374 3.983-9.489 10.176-14.638 8.17-18.272-6.09-36.122-13.903-54.492-19.54v73c-30.51 22.227-60.38 47.329-93 66.75-2.507-67.708-6.924-135.585-20.978-202.087-12.163-62.614-37.923-121.845-72.022-175.35 21.954-21.582 42.944-44.19 63.347-67.227 10.12-11.277 19.311-23.412 29.19-34.873 3.1-2.77 7.386-1.76 11.38-1.583 11.774 1.824 23.502-3.175 30.083-13.13-52.42-29.723-104.15-61.655-157-90.5-15.026 42.31-32.447 84.332-53.5 124-40.67-36.03-88.248-63.752-137.083-87-2.155 2.765-6.374 5.706-7.417 8.5 25.023 24.586 49.665 49.796 69.693 78.767 7.24 10.334 15.879 22.436 21.721 32.443 5.426 9.642 11.214 19.098 15.939 29.111 2.575 4.666-1.595 10.02-4.058 13.807-18.663 31.175-37.86 62.081-59.371 91.403-10.85 15.14-22.444 29.687-34.4 43.947-6.179 7.256-12.529 14.353-18.713 21.603-3.022 3.305-6.774 6.112-8.24 10.458 1.725 3.95 4.726 6.922 7.929 9.961 54.01-27.553 105.69-60.695 152-100 6.393 9.428 4.201 18.958 2.253 28.46-11.925 70.877-32.546 140.752-62.245 206.243-14.04 32.212-30.964 63.053-49.302 92.95-8.876 14.34-18.449 28.269-28.272 41.957-4.828 7.096-10.347 13.684-15.521 20.514-2.48 3.482-5.457 6.598-7.839 10.133-3.413 2.886 3.372 7.745 4.926 9.743m1.5-1194.808c1.101 2.942 3.429 5.819 5.35 7.924 2.87 1.538 7.514-1.388 10.221-1.813 56.034-16.627 111.118-36.587 164.166-61.198 51.113-24.446 100.609-52.37 145.673-86.9 32.454-24.815 64.948-50.481 92.09-81.205 1.42 22.054-.254 44.588.5 66.725-.75 22.358.917 45.001-.5 67.275-5.146-2.254-13.233-.08-19.677-1H1273c1.205 8.53 4.963 16.605 6.66 25.043 1.456 4.868 8.024 3.963 12.105 3.957H1433v140c39.594.853 80.252-1.567 117.239-17.497 4.08-1.716 9.116-3.718 12.105-6.58 3.262-3.209 2.639-8.085 2.656-12.308V1076c54.695-.686 109.489.836 164.138-.451 6.076-1.088 12.443-3.302 15.935-8.766 1.562-1.97 2.602-4.355 2.454-6.91-12.3-14.99-28.852-26.225-43.349-38.948-14.849-12.02-29.479-24.374-44.678-35.925-16.445 21.085-33.29 41.93-49.75 63-7.197-1.761-14.772-.572-22.082-1H1565v-74.4c.036-6.41-.043-12.84.023-19.24-.489-6.196 3.526-6.953 8.14-7.403 11.987-2.354 23.369-11.03 24.837-23.957-53.01-3.232-106.144-9.18-159-13.5 18.164-17.637 32.94-38.284 48.399-58.189 6.447-8.631 12.05-17.93 18.917-26.247 1.42-2.083 5.147-1.923 7.851-2.063 23.477-.004 46.951.001 70.413-.001 4.565-.375 9.207-.24 11.141 5.424 30.815 62.365 70.327 120.618 117.417 171.778C1761.134 1049.228 1818.223 1092.3 1882 1120c3.37-32.454 18.191-62.785 39.777-86.962 10.947-12.05 22.808-23.499 36.222-32.789 5.93-4.908 12.366-9.086 18.86-13.156 3.227-2.156 7.568-4.486 7.891-8.019.48-4.014.545-8.08 1.25-12.074-67.71-8.319-135.707-19.642-199.872-43.816-31.727-10.91-62.33-24.812-91.274-41.772-27.7-16.169-54.91-35.916-75.52-60.412 14.589 1.869 29.424.465 44.084 1h231.295c12.606-.085 25.228.347 37.784-.787 10.886-.777 25.894-5.07 25.503-17.213-23.121-18.01-44.594-39.615-67.588-58.137-22.466-19.228-46.169-37.021-68.912-55.863-16.532 20.653-31.493 42.627-47.66 63.573-5.982 8.007-12.016 15.994-18 24-2.824 3.487-5.288 7.223-7.918 10.846-2.662 4.46-6.696 4.991-11.307 4.581-70.142-.76-140.556.926-210.615-.5 11.862-20.879 23.821-41.935 33.27-64.09 2.573-5.643 4.896-11.403 7.39-17.072 1.79-5.99 6.437-5.243 11.144-4.598 7.211-.275 14.447-1.756 20.83-5.232 6.854-3.527 8.92-9.312 12.366-15.008-31.883-10.728-65.013-18.11-97.091-28.366-32.423-8.44-64.338-19.438-96.909-27.134-9.732 35.399-20.554 70.607-35.3 104.303-4.896 12.695-10.814 24.942-16.198 37.408-2.532 5.134-4.95 10.312-7.203 15.567-2.881 6.475-10.818 4.4-16.076 4.722H1058c1.78 8.753 4.565 17.395 7.187 25.927 1.19 4.822 10.223 2.247 13.39 3.073h15.57c81.892.76 164.039-.926 245.853.5-37.545 66.48-83.965 128.093-139.32 180.734-27.532 26.981-57.25 51.572-88.579 74.05-30.612 21.928-62.716 42.386-96.101 59.716zM1041 1300h197c-1.207 62.537-15.768 127.125-53.896 177.939-9.044 12.124-18.778 23.906-29.413 34.655-33.278 29.843-71.437 55.013-112.691 72.406.482 3.751 4.342 6.719 5 10 78.566-15.789 157.583-40.308 223.514-87.392 32.388-22.81 59.543-52.654 78.043-87.818 18.792-35.553 30.005-82.96 30.443-119.79h222v296c43.386.887 87.876-2.61 128.193-20.27 8.6-4.04 20.31-8.051 18.807-20.814V1300c67.045-.875 134.229 1.067 201.234-.576 7.035-1.009 14.828-3.34 18.686-9.891 4.819-6.71-3.552-10.284-7.293-14.4-33.302-29.44-67.862-57.521-102.763-85.04-3.654-3.208-7.506-6.177-11.364-9.093-14.36 18.26-28.44 36.79-42.46 55.31-7.119 9.33-14.337 18.584-21.464 27.895-1.596 2.377-3.616 4.395-5.492 6.507-3.985 2.446-10.466.556-14.828 1.288H1748v-93c8.386-1.95 17.346-3.488 24.62-8.465 7.182-5.055 10.918-13.124 12.38-21.535-61.475-2.497-122.54-11.423-184-14v137h-221v-91c7.178-1.168 15.902-3.194 21.39-7.187A27.5 27.5 0 0 0 1412 1155c-28.704-3.432-57.72-5.225-86.487-8.34-28.87-2.001-57.62-6.167-86.513-7.66-2.086 10.805-.247 22.03-1 32.936V1272h-204c1.352 9.51 5.814 18.443 7 28m533 1021h188v-147h-188zm0 183h187c1.748-11.017.585-22.298 1-33.385-.2-38.966.243-77.936-.131-116.888-.117-5.752-6.84-4.644-11.024-4.727H1574zm68.5-554c15.402-18.218 29.362-37.637 43.663-56.718 6.902-9.729 13.973-19.345 20.52-29.307 5.724-9.921 15.425-20.136 19.317-29.975h-84c.76 38.567-.926 77.551.5 116" style="fill:#000;fill-rule:evenodd;stroke:none"/></svg>