<svg xmlns="http://www.w3.org/2000/svg" width="3000" height="3000"><path d="M364 2760.5v1.5h2272v-1.5c-68.931-409.09-136.257-818.54-204.874-1227.691-51.076-306.848-102.33-613.661-153.4-920.497-4.868-28.824-9.564-57.688-14.431-86.508-1.116-7.008-2.365-13.985-3.488-20.978-1.2-6.774-.246-15.245-9.425-16.859-109.868-36.632-219.702-73.24-329.563-109.867-95.996-32.013-192.02-63.992-288-96-41.993-13.978-83.98-28.011-125.966-41.994-5.663-2.605-10.407-1.693-15.513.621-156.173 52.06-312.354 104.114-468.521 156.173-58.68 19.531-117.334 39.097-175.992 58.657-25.668 8.506-51.298 17.139-76.962 25.643-6.176 2.075-12.369 4.11-18.537 6.195-3.02 1.124-6.483 1.813-8.8 4.255-62.934 375.423-125.132 751.075-187.889 1126.544C490.857 1998.664 428.048 2380.37 364 2760.5m657-1181c2.497 2.991 6.13 7.344 7 10.5 9.878-2.07 18.658-7.965 28.195-11.074 67.51-28.347 132.598-62.556 192.96-104.078 29.494-21.643 59.314-43.21 85.447-68.95 26.85-24.703 52.366-52.177 73.398-81.898 3.6.184 5.218 4.651 6.676 7.335 22.969 50.488 38.525 105.215 39.324 161.066.134 5.36-.977 12.267 2.791 15.534 14.533 12.2 30.67 23.373 49.177 28.55 33.952 10.554 73.576-2.62 94.478-31.311 16.066-20.505 22.744-48.363 17.52-73.81-3.733-18.599-12.568-35.837-23.93-50.825-37.308-45.019-92.962-68.998-148.357-82.614-4.843-1.131-9.655-2.815-14.679-2.925.553-5.994 6.432-12.374 9.67-18.497 57.139-94.572 85.537-204.368 96.33-313.503 4.265-.034 4.103 6.376 4.425 9.297 14.459 120.928 37.978 242.317 88.722 353.894 24.573 52.89 54.018 103.802 90.038 149.784 35.632 46.068 79.63 84.85 127.315 118.025 5.753-34.143 16.323-68.869 39.501-95.668 22.366-26.626 56.036-43.049 89.999-48.332a56.2 56.2 0 0 1 1-12c-51.534-20.008-101.685-44.609-148.48-74.192-69.867-44.593-132.168-101.43-179.453-169.79C1603.04 1124.54 1568.307 1045.24 1555 962h381.6c15.819-.074 36.632 1.08 42.4-14.656-47.306-41.78-99.423-77.8-148.5-117.344-15.696 20.575-32.204 40.831-48.137 61.29a1103 1103 0 0 1-18.13 22.931c-5.652 6.011-10.498 14.8-16.315 19.71-8.108 2.367-17.478.127-25.863 1.069H1541c7.366-82.086 7.867-164.803 12-247 9.933-1.711 20.667-4.294 28.093-11.619 3.391-3.341 6.744-8.429 7.108-12.918 1.19-3.5-3.433-3.468-5.155-3.496a225 225 0 0 1-7.89-.632c-8.789-.71-17.5-1.847-26.296-2.365-13.922-1.475-27.9-2.351-41.812-3.78-38.69-3.363-77.36-6.972-116.048-10.19-.273 54.532-.494 109.086-1.41 163.604-.445 40.15-1.597 80.255-4.486 120.302-.078 3.112.03 7.732-4.178 7.866-118.947.65-237.972-.118-356.926.228 1.12 9.234 6.3 17.678 7 27h351c-9.947 125.234-42.235 250.614-108.055 358.62-31.884 51.942-69.687 100.402-113.178 143.113-41.942 43.89-91.056 80.056-139.767 115.767m11 531c2.491 8.104 5.443 17.866 7 25.5h386v263.4c-.611 10.564.84 23.153-.685 32.771-1.889 9.609-10.865 12.569-19.464 12.782-32.384.163-64.69-2.623-97.004-3.974-31.897-2.408-64.002-1.707-95.847-4.979.554 3.334-1.073 9.324 2.395 10.606a207 207 0 0 0 10.895 2.371c38.823 7.16 78.362 19.537 107.91 47.16 15.265 12.434 25.944 29.706 30.753 48.733 2.797 10.196 5.138 20.508 6.688 30.963.758 4.847 1.701 9.653 2.382 14.51.875 4.654.288 10.728 2.477 14.657 46.598-6.608 96.881-10.486 139.047-34.2 14.907-7.688 30.32-20.618 38.77-33.295 17.387-26.209 22.689-58.538 24.094-89.375 1.679-104.028-.305-208.1.589-312.13h354c12.67.06 32.919 1.961 39-14.687-47.698-40.248-97.867-77.553-147.5-115.313-13.853 17.117-27.376 34.487-40.942 51.825-13.013 17.6-28.343 34.176-40.558 52.175h-164v-139c15.013-.415 31.329-9.268 34-25-5.355-.113-10.664-.698-16-1v-3c53.454-21.67 104.273-49.514 155.122-76.576 24.711-13.63 49.345-27.382 73.62-41.774 12.552-7.02 24.425-15.28 37.165-21.93 13.81-3.888 30.599-3.458 41.093-15.22a39230 39230 0 0 1-132.656-114.5c-8.882 5.602-17.98 17.29-27.845 25.005-16.45 16.645-34.144 31.95-50.611 48.573-3.719 4.393-10.847 3.44-15.951 3.422H1136c1.905 9.173 6.167 17.836 8 27h537v1.5c-29.295 45.456-64.5 87.197-98.903 128.86-9.248 10.34-18.295 20.798-27.843 30.86-4.096 4.877-9.192 3.387-14.458 2.795-38.215-3.737-76.673-5.632-114.796-10.015v180h-393z" style="fill:#fda;fill-rule:evenodd;stroke:none"/><path d="M1019 1578.25c3.083 4.362 6.592 9.773 9.5 13.75 36.859-15.203 73.385-31.499 109.017-49.409 51.984-26.27 101.881-56.795 147.777-92.762 46.682-35.824 89.204-77.516 124.206-124.829 21.803 40.492 33.897 86.125 40.676 131.395 1.04 9.049 1.954 18.13 2.65 27.2 1.319 7.767-1.843 20.191 2.965 25.34 22.557 20.33 51.867 34.899 83.012 31.778 46.426-2.713 83.735-46.727 82.155-92.545-.47-22.216-10.157-47.407-22.274-63.645-12.784-18.21-30.414-32.451-48.625-44.843-32.173-20.955-68.628-34.095-105.727-43.356-4.06-.996-8.124-2.246-12.332-2.324v-1.5c31.862-46.948 54.479-99.697 71.554-153.657 17.595-56.888 28.256-115.814 34.946-174.843 2.048 2.815 1.335 7.796 2.199 11.736 14.617 120.904 38.448 242.176 89.472 353.6 24.38 52.855 54.428 103.254 90.189 149.212 36.154 45.628 79.656 85.197 128.14 117.452 5.276-34.648 16.367-69.52 39.501-96.668 22.366-26.626 56.036-43.049 89.999-48.332-.024-4.683.54-9.354 1-14-51.534-20.008-101.685-44.609-148.48-74.192-69.867-44.593-132.168-101.43-179.453-169.79-47.218-68.85-80.594-147.6-95.067-230.018h383.4c13.83.03 36.002 1.341 41.6-17-25.121-19.214-49.65-40.762-75.261-59.687-12.832-9.591-25.419-19.463-38.066-29.287-6.348-5.032-12.804-9.937-19.305-14.757-3.223-2.314-6.366-4.757-9.516-7.157-3.031-2.184-6.329-5.663-9.852-6.112-14.484 20.844-32.116 40.387-47.325 60.906-5.951 7.735-12.008 15.349-18.132 22.935-5.64 6.009-10.53 14.713-16.207 19.74-2.876 2.38-8.468.872-12.484 1.419H1542c7.637-81.387 7.754-163.48 12-245 7.977-1.24 17.423-3.799 23.692-7.91 7.367-4.702 11.59-12.747 13.308-21.09-66.894-6.403-133.997-12.48-201-18-.273 54.532-.494 109.086-1.41 163.604-.445 40.15-1.597 80.255-4.486 120.302-.078 3.112.03 7.732-4.178 7.866-119.283.65-238.632-.118-357.926.228 2.067 9.453 7.026 20.116 8 29h351c-10.665 124.49-42.254 249.232-108.055 356.62-31.884 51.942-69.687 100.402-113.178 143.113-42.85 42.776-90.449 81.814-140.767 115.267zm19 558.75h386v262.8c-.746 10.45 1.079 23.089-.996 32.537-1.991 9.098-11.911 11.526-19.14 11.615-32.3.03-64.495-2.973-96.744-4.027-32.004-2.254-64.143-2.032-96.12-4.925.8 3.914-1.484 10.832 2.374 12.59 4.386 1.076 8.866 1.965 13.297 2.847 38.198 7.135 76.826 19.825 105.861 46.957 15.05 12.459 25.67 29.562 30.42 48.476 5.913 19.629 7.763 40.032 11.048 60.13 31.907-3.883 64.156-6.933 95.172-15.905 43.516-9.985 88.225-37.437 100.027-83.226 14.453-48.978 8.4-101.05 9.801-151.257V2137h352.2c10.596-.038 21.889 1.077 31.735-3.82 3.54-1.93 7.1-5.615 8.192-9.226 1.521-4.01-3.335-6.832-5.878-9.176-45.817-38.738-94.467-73.922-141.749-110.778-14.349 17.136-27.798 35.065-41.71 52.546-13.11 17.692-28.484 34.34-40.79 52.454h-162v-137c13.58-.487 32.84-8.579 34-27-4.663-.512-11.066-.082-16-1.5 53.22-22.959 104.821-49.548 155.64-77.356 24.808-13.66 49.479-27.54 73.869-41.931 12.676-6.84 24.359-15.6 37.339-21.854 12.775-3.346 29.899-3.03 41.152-15.859-45.406-38.494-89.798-78.376-135.5-116.5-18.83 16.59-36.517 34.473-54.733 51.733-7.95 7.696-16.327 14.93-23.984 22.95-3.831 4.338-11.086 3.274-16.238 3.317-180.115.76-360.514-.926-540.545.5 2.409 3.696 2.994 9.848 4.922 14.638 1.14 4.522 3.628 9.572 4.078 13.862 178.929.76 358.151-.926 537 .5-30.591 44.363-63.898 86.875-98.903 127.86-9.25 10.343-18.293 20.796-27.84 30.856-4.151 4.861-9.679 2.811-15.428 2.606-37.93-3.455-75.951-5.95-113.829-9.822v180h-393c.868 9.619 5.964 18.392 7 28" style="fill:#000;fill-rule:evenodd;stroke:none"/></svg>