<svg xmlns="http://www.w3.org/2000/svg" width="3000" height="3000"><path d="M326 2802.5v1.5h2347c-.373-12.822-4.058-25.348-5.508-38.051-117.27-703.542-234.496-1407.1-351.766-2110.637-7.344-43.997-14.655-88.002-22-132-3.6-21.02-6.91-42.124-10.625-63.12-1.141-5.243-8.647-5.77-12.81-7.59-158.488-52.846-316.994-105.666-475.472-158.502-59.502-19.835-119.024-39.669-178.52-59.495-26.013-8.653-52-17.351-78-26-12.476-3.645-24.567-8.834-37.16-12.04-6.368-.025-12.224 3.635-18.313 4.993-92.992 31.026-186.022 61.963-279 93A1893485 1893485 0 0 0 785.82 433.9c-17.522 5.819-35.005 11.685-52.52 17.495-3.82 1.309-7.668 2.508-11.462 3.872-7.078 2.018-5.509 14.447-7.54 19.93a1026382 1026382 0 0 1-55.17 330.994C547.67 1471.398 438 2137.571 326 2802.5m674-177.875c2.676 2.363 5.715 4.194 8.5 6.375 46.47-37.047 88.581-80.515 118.605-132.161 47.443-78.106 71.805-167.758 81.923-258.018 4.799-48.557 7.335-97.355 8.139-146.144l.457-37.981c.11-9.52.234-19.028.341-28.542.257-2.848-.344-7.5 2.197-8.828 9.678-5.64 20.508-9.237 30.172-15 5.332-2.676 10.67-5.321 15.987-8.016 4.726-2.297 9.152-6.147 14.679-6.31v155h15v339h41c.277 23.733-.148 47.649-5.206 70.952-1.61 8.609-3.217 17.193-5.7 25.61-1.132 6.586-6.273 15.823-2.606 20.665 7.476 9.726 16.487 18.707 27.576 24.31 16.551 9.367 40.496 9.657 56.213 2.546 16.543-6.887 30.71-21.043 35.945-38.408 6.869-21.415-.864-43.98-12.96-61.739-11.488-18.073-27.488-32.31-45.065-44.223-1.329-.844-2.784-1.809-3.197-3.713 2.661-2.807 8.636-2.437 12.688-4.173 6.053-1.612 12.114-3.372 17.925-5.732 7.986-2.622 6.41-9.224 6.387-16.095h421v1.5c-2.171 12.713-4.596 25.403-8.884 37.607-3.114 8.756-7.477 20.761-19.072 24.368-9.854 3.409-20.525 2.318-30.722 2.52-9.192-.073-18.369-.499-27.55-.708-3.885-.252-8.128.215-11.73-1.602-17.894-19.398-41.202-33.841-67.1-40.267-14.063-3.84-28.476-6.17-42.901-8.056-7.102-.906-14.272-1.158-21.397-1.648-3.534-.103-7.706-.704-10.932-.201-2.63-.035-5.187 3.487-7.712 4.987 30.713 33.241 56.34 75.976 58 122.5 10.376 5.169 20.496 12.23 32.306 14.294 17.73 3.346 36.593-1.649 50.22-13.541 12.635-11.671 20.418-28.473 20.474-45.753 15.706 6.388 23.133 24.656 26.793 38.427 3.868 16.916 4.435 34.319 4.207 51.573 24.11.392 48.311-1.969 71.583-8.437 16.724-5.195 33.746-10.748 48.328-20.84 21.54-13.967 35.15-36.912 43.205-60.69 8.99-24.862 13.029-51.039 16.884-77.033 13.106-.273 28.055-6.72 37-14.5-13.11-12.97-29.44-23.225-43.3-35.523-14.972-10.58-28.21-24.341-43.7-33.977v-3h49.2c12.697-.328 30.19 2.294 37.8-14.5-16.972-16.718-36.21-30.971-54.516-46.126-9.258-7.26-18.335-14.748-27.478-22.143-4.514-3.691-9.149-7.242-13.562-11.047-4.484-3.163-9.963-8.898-14.444-10.184-3.545 7.583-9.748 11.757-13.643 18.52-2.222 3.25-4.836 6.232-7.225 9.34-2.203 2.948-4.727 6.958-8.132 7.14v-114c13.941-3.445 31.212-10.83 40-21-16.681-13.973-35.511-25.596-52.573-39.16-8.824-6.526-17.688-12.987-26.456-19.577-4.385-3.251-8.944-6.232-13.178-9.68-3.615-2.933-10.336-6.332-10.793-10.583h96c16.231-.088 32.454.108 48.682-.06 12.156-.708 29.95 1.69 36.318-15.483-9.767-9.914-20.68-18.556-31.035-27.819-5.309-4.485-10.493-9.129-15.95-13.421-4.053-4.496-13.136-8.823-14.015-14.217 11.505.103 26.837 1.321 33-14.086-22.526-18.975-47.119-36.354-72-51.914v-3h29.4c12.7.245 31.38 1.474 35.087-12.634.515-3.06-4.03-5.322-5.7-7.125-7.32-5.854-14.949-11.315-22.717-16.536-11.398-9.031-24.778-15.707-36.07-24.705v-2h36.6c8.758-.354 19.156.528 27.138-.522 6.128-.93 12.29-3.787 15.454-9.384 3.476-5.052-.835-8.082-4.057-10.46-9.649-8.897-20.213-16.713-30.353-25.02-13.9-10.333-27.287-21.437-41.282-31.614-7.62 10.103-16.372 19.343-24.304 29.194-3.142 3.714-6.181 7.49-9.32 11.197-2.671 3.163-5.123 6.543-8.489 8.991-32.972 1.762-66.338-.32-99.387.618v-3c15.193-6.364 29.142-15.86 43.341-24.122 7.489-4.543 17.014-2.354 24.84-6.126 8.249-2.52 14.17-8.736 17.819-16.252-17.756-5.715-36.656-8.111-54.604-13.319-18.632-3.16-36.681-9.642-55.396-12.181v-3h231c8.992.019 18.547.715 26.868-3.479 6.03-2.528 13.868-10.478 5.502-16.239-36.52-35.406-76.323-67.153-114.87-100.282-15.534 19.02-28.81 39.855-43.917 59.207-5.426 7.548-10.96 15.014-16.444 22.505-2.384 3.148-4.93 7.162-7.594 9.636-2.65 2.642-8.276 1.128-12.237 1.652H1590v-64.8c-.072-4.86-1.095-10.97 5.592-11.636 12.595-2.134 27.323-9.378 31.408-25.064-58.572-7.24-118.888-7.857-177.5-14.5-1.426 38.54.26 77.39-.5 116h-201c-7.917.852-15.183-1.877-22.166-5.247-48.666-19.818-97.782-38.765-146.334-58.753-2.513 160.894 2.01 322.201-2.49 483.136-1.624 76.554-5.038 153.383-17.546 229.067-10.563 71.338-28.171 143.351-59.464 208.422m5-1036.312c.787 2.13 2.589 3.378 4.24 4.78 1.674 1.184 4.758-1.076 6.475-1.172 51.798-21.25 102.97-46.285 146.679-81.752 39.938-32.534 75.354-71.809 98.58-118.117 9.35-18.092 17.095-36.945 23.591-56.228 2.626-8.61 5.394-17.21 7.714-25.896.742-3.917 1.808-8.998 6.946-8.83 142.917-.278 285.857.05 428.775-.098v82.2c-.003 10.42.004 20.83-.002 31.238.252 7.365-2.238 16.011-9.39 19.547-6.965 2.986-14.888 1.655-22.201 2.015-26.554-.01-53.056-1.585-79.536-2.953-25.95-1.407-51.939-2.502-77.871-4.047v12c38.6 4.918 79.122 16.494 107.09 45.266 15.571 12.258 22.774 31.618 27.939 49.894 3.988 19.516 9.02 42.53 9.971 60.84 28.429-2.974 56.95-6.222 84.686-13.458 20.1-5.375 39.97-12.606 57.355-24.308 12.822-8.524 23.946-19.462 31.9-32.691 24.336-45.755 18.583-99.452 19.059-148.984V945c11.392-1.395 27.773-7.488 35-18.5-43.675-32.798-86.326-67.471-130.5-99.5-20.533 23.354-42.974 46.045-62.5 70h-206v-3c39.03-15.763 75.149-38.146 111.684-58.83 17.61-10.432 34.89-21.39 51.963-32.654 4.206-3.11 8.55-6.006 12.892-8.918 5.68-3.76 15.504-3.014 23.172-5.642 7.727-1.182 15.052-4.528 20.289-10.456-43.146-36.821-86.584-73.426-129.5-110.5l-37.87 37.87-28.5 28.5c-3.625 3.417-6.893 8.188-12.207 8.542-38.984.25-77.943-.046-116.923.088.686-4.602 6.666-8.308 9.478-12.815 12.155-14.41 23.754-29.246 34.747-44.533 3.547-3.051 5.311-9.512 9.627-10.207 13.016-2.036 30.105 2.941 40.148-12.945-16.28-6.365-34.603-8.718-51.425-13.86-25.322-6.334-50.497-13.101-75.805-19.459q-18.963-4.73-37.91-9.469c-11.972-2.443-25.634-7.76-36.86-8.712-12.61 40.657-32.92 78.632-52.643 116.124-30.844 54.343-64.85 107.248-105.55 154.876-20.09 24.946-42.123 48.138-64.91 70.602-11.053 11.693-22.821 22.631-35.47 32.563-5.848 5.311-12.278 9.944-18.458 14.83-3.142 2.41-6.447 4.66-9.155 7.563-3.452 2.184 2.261 6.847 3.686 8.442 24.908-9.737 49.915-19.629 74.052-31.28 12.386-6.543 25.282-12.154 37.408-19.15 12.011-5.258 22.685-14.308 35.04-18.57v185.4c.512 44.849-.763 89.705-5.358 134.334-3.017 31.94-6.98 63.849-14.597 95.058-20.868 87.722-68.468 170.151-139.045 227.208zM1274 2441h-13c-.182 22.149-14.441 40.83-29.733 55.233-12.513 13.191-28.61 22.065-44.852 29.59-14.07 7.61-27.418 17.489-36.082 31.194-15.965 23.88-6.87 60.316 17.871 74.542 19.429 10.237 43.672 12.074 63.816 3.232 29.1-13.515 46.065-44.625 53.442-74.448 9.086-33.032 3.507-67.826-5.532-100.09-1.598-6.521-4.155-12.796-5.93-19.253m-56-466h2.5c22.265-27.268 42.855-55.946 61.402-85.873 9.554-14.185 17.445-29.4 26.076-44.127 4.36-8.05 8.873-16.008 12.697-24.333 3.108-8.4 10.256-17.373 11.325-25.667h-114zm49-1099c16.235 4.141 31.711 10.82 47.703 15.74 5.872 1.694 12.599 4.798 18.26 5.164 49.35.274 98.684-.05 148.037.096 18.576-41.344 37.417-83.305 50-127h-142.8c-8.01-.774-11.922 5.241-17.07 10.37l-25.105 25.105C1320.474 828.728 1295.419 853.21 1267 873zm34 397h143v-162h-133c.141 27.955-1.179 55.85-2.204 83.754-1.285 13.54-2.037 27.103-3.354 40.641-1.228 12.188-4.143 26.371-4.442 37.605m9-190h135V925h-135zm60 1046.5v1.5c21.862 6.047 42.125 17.793 64.243 22.86 24.25.4 48.504-.072 72.757.14 1.972-9.476 1.3-19.389 2-29h-30v-150c-6.216.419-13.201 5.786-19.872 8.438-9.763 5.018-19.609 9.893-29.854 13.85-4.91 1.663-10.306 4.995-15.05 5.734-4.359 1.8-6.944-7.62-12.224-7.022v77.4c-.337 11.95 2.415 27.905-6.234 35.331-7.502 7.458-15.878 15.23-25.766 19.269v1.656zm8-333v1.5c35.835 14.616 70.237 33.218 106 48-2.208 8.963-15.776 14.136-22.681 15.422-7.283 1.57-17.106-1.27-21.89 3.727-7.149 8.007-14.519 15.813-22.3 23.221-3.793 3.664-7.332 7.576-11.34 11.002-3.577 3.007-9.274 7.515-9.789 11.628 6.87.997 13.036 4.795 19.745 6.427 3.2 1.095 6.297 2.433 9.493 3.502 2.78 1.037 6.719 1.985 7.762 4.571-7.827 9.387-18.746 15.336-31 16.5v52h2.5c25.364-27.292 45.314-59.21 63.4-91.593 9.893-17.019 17.511-35.23 25.842-53 3.857-8.899 7.144-18.004 10.876-26.95 2.63-8.829 7.913-18.873 8.382-27.457h-135zm41 426.5h318v-41h-318zm0 67h318c-.607-14.207.94-31.062-1-44h-317zm0 69h405c9.705 1.194 14.498-8.033 19.138-14.225 2.346-3.254 5.348-6.887 7.589-9.793 2.123-3.047 5.892-6.844 6.273-9.982-5.034-.032-9.41 2.894-14.126 4.196-33.861 12.811-69.84 18.108-105.874 16.804-.27-9.648.603-19.438-1-29h-317zm0 67h392.4c7.295-.25 15.981.405 22.619-.466 8.015-5.35 14.177-13.328 21.892-19.12 3.502-3.522 7.188-6.814 11.038-9.944 2.917-3.208 8.608-6.674 9.051-10.47h-457zm37 44.39c10.26 21.662 19.55 44.061 25.666 67.353 5.854 18.715 7.765 38.123 7.538 57.63.181 6.794 7.534 11.325 12.414 14.692 9.401 6.543 20.293 11.149 31.716 12.319 17.807 1.445 35.948-6.11 48.337-18.655 11.97-13.063 17.495-31.591 14.133-49.019-6.6-26.32-27.951-46.236-50.497-59.536-24.157-13.365-50.714-21.744-77.532-27.895-4.283-1.383-8.15 1.816-11.775 2.721zm118-673.89v1.5c15.692 3.838 30.539 10.919 46.135 15.2 7.935 2.463 15.706 5.456 23.54 8.184 7.215 3.349 16.705 4.41 22.325 8.116-5.814 11.481-18.224 18.872-31.123 18.473-3.053.118-7.344-.441-9.857 2.026-3.46 3.448-6.028 7.672-9.14 11.39-2.766 3.353-6.793 7.36-6.88 11.611h82c3.493-26.109 9.948-51.789 13-78h-130zm10-713.5h144V925h-144zm0 191h144v-164h-144zm13 666h83v-40h-83zm0 68h83v-45h-83zm0 67h83v-43h-83zm0 77.5v1.5h103.2c8.445-.34 18.503.522 26.194-.546 8.424-7.487 15.306-16.673 22.954-24.913 3.82-4.089 7.659-8.137 11.177-12.491 3.53-4.012 9.096-8.138 9.475-13.05h-169v3c10.881 1.137 21.431 4.744 32.21 6.527 5.018 1.044 10.074 1.908 15.028 3.226 4.527 1.365 11.416 1.558 14.762 3.747-4.52 12.072-17.878 18.911-30.163 19.164-12.817.646-23.53 9.631-35.837 12.336zm199-212.5h24c5.14.453 11.142.562 15.102-4.602 5.977-5.31 10.984-11.53 16.373-17.373 2.933-2.846 5.808-5.757 8.302-8.986 2.313-2.894 5.988-5.715 6.223-9.039h-70zm0 68h28.2c5.86-.154 13.5 1.494 18.533-4.236 6.09-6.758 12.326-13.38 18.398-20.157 2.974-3.45 6.5-6.39 9.217-10.066 2.445-3.376 7.183-6.486 7.652-10.541h-82zm0 67h52c3.7-7.92 11.35-13.901 16.023-21.3 4.573-7.358 13.537-14.257 14.977-21.7h-83z" style="fill:#fda;fill-rule:evenodd;stroke:none"/><path d="M204 2906.5c431.66 1.426 864.125-.26 1295.95.5 431.946-.76 864.184.926 1296.05-.5-71.347-421.454-140.17-844.031-211.186-1265.681C2515.49 1219.807 2443.894 799.05 2375 378c-18.825-4.147-36.622-12.377-55.173-17.557-141.343-47.107-282.688-94.208-424.008-141.343-105.996-35.346-212.02-70.658-318-106l-60-20c-4.743-1.483-9.392-3.202-14.133-4.67-4.689-1.596-9.296.594-13.846 2.121-144.162 48.092-288.385 96.1-432.543 144.19-72.152 24.045-144.327 48.113-216.478 72.159-35.996 12.013-72.02 23.992-108 36-18 6.028-36 11.971-54 18-9.01 3.004-18.013 5.972-27 9-8.742 2.234-18.56 7.118-26.819 8.1-68.995 421.677-140.705 843.07-210.109 1264.703C344.003 2063.481 275.132 2486.22 204 2906.5m123-104c781.355 1.426 1563.485-.26 2345 .5-118.785-721.214-240.618-1442.068-360.03-2163.199-7.528-45.17-15.046-90.339-22.588-135.492-1.756-10.718-3.574-21.44-5.367-32.15-1.463-5.102-.632-13.609-5.65-15.42-82.419-27.818-165.08-54.96-247.546-82.639-144.35-48.044-288.615-96.253-432.954-144.3-27.19-9.095-54.376-18.14-81.566-27.195-6.024-1.707-14.13-5.746-19.294-4.368-99.967 33.09-199.81 66.647-299.74 99.834a5130220 5130220 0 0 1-448.968 149.67c-9.274 3.513-19.03 5.778-28.13 9.725-3.665 1.962-2.298 9.57-3.876 12.727-22.54 135.51-45.194 271.003-67.739 406.508C540.73 1518.187 435.508 2161.522 327 2802.5" style="fill:gray;fill-rule:evenodd;stroke:none"/><path d="M1736 2224v-2h-316v-39h316v-2h-299.4c-5.817.316-13.999-.65-18.6 1v20.669c.081 5.266-.104 10.547.07 15.801-.205 5.477 3.411 6.073 7.554 5.528 11.571.006 23.15-.001 34.717.002zm-318 243h2v-12h394.8c8.136 1.001 18.126-1.335 24.7 1 .384-.972.51-1.963.5-3h-396.6c-8.38.93-18.609-1.263-25.4 1zm165-1541.5v1.5c11.793-2.187 24.04-.147 35.935-1H1727v138c-.845 6.07 1.178 13.683-1 18.5.972.384 1.963.51 3 .5V924h-146z" style="fill:#3f372a;fill-rule:evenodd;stroke:none"/><path d="M1300 1272v2h145v-164h-135c.658 12.232-.825 24.89.5 37 2.82-4.143.68-11.5 1.5-17.08V1112h131v160h-134.4c-2.559-.137-5.801.34-6.6-2h-2z" style="fill:#bfa67f;fill-rule:evenodd;stroke:none"/><path d="M1280 1991v155h15v339h41c.125 23.65-.177 47.568-5.597 70.738-1.345 8.64-3.521 17.088-5.721 25.535-1.341 6.902-6.458 15.404-2.295 20.822 7.355 9.66 16.25 18.584 27.203 24.185 16.854 9.485 41.346 9.984 57.535 3.275 16.605-6.461 30.851-20.178 36.59-37.231 7.344-21.242 1.304-44.63-10.841-62.699-10.657-18.413-26.76-32.677-43.845-44.836-1.912-1.442-4.327-2.923-6.029-4.289 11.697-5.164 26.384-4.745 37-13-.781-3.91-1.844-9.604.276-12.571 8.174-1.967 17.148-.201 25.514-.929H1839c-1.885 12.58-4.562 25.067-8.563 37.152-2.803 9.733-8.77 21.936-18.36 24.954-9.933 3.71-20.749 2.794-31.112 2.884-9.37-.127-18.697-.54-28.05-.757-3.737-.15-7.983.103-11.102-2.368-17.646-20.476-42.788-33.391-68.67-40.23-14.119-3.431-28.435-6.065-42.883-7.59-7.462-.757-14.932-1.224-22.422-1.553-3.41-.057-7.122-.667-10.432.22-2.595 1.72-5.305 3.415-7.406 5.788 31.132 33.456 57.39 76.417 59 123.5 10.389 5.173 20.495 12.232 32.31 14.295 18.145 3.427 37.712-1.048 51.85-13.226 13.654-11.522 19.855-28.875 21.34-46.069 5.555 5.648 11.798 10.758 16.117 17.506 12.24 21.93 11.97 48.194 12.383 72.494 24.586.454 49.343-1.634 73.089-8.291 16.745-5.166 33.724-10.718 48.38-20.68 21.597-13.832 35.355-36.722 43.46-60.455 9.113-25.024 13.162-51.409 17.071-77.574 7.067-.273 15.164-2.823 21.235-4.906 5.832-2.994 14.09-6.382 16.765-11.594-29.476-23.061-58.222-47.419-88-70l1.625-.5h38.4c12.456-.956 41.194 4.93 46.374-15.053.418-3.682-5.958-6.743-7.69-9.155-9.407-8.465-19.033-16.633-28.999-24.43-16.214-13.154-32.525-26.189-48.71-39.36-8.092-6.165-15.586-13.306-24-19.002-10.295 11.233-18.568 24.422-28.5 36-1.426-37.18.26-74.741-.5-112 7.684-1.075 16.028-5.283 22.375-8.186 6.479-3.521 15.364-7.99 18.625-14.314-34.181-26.27-69.848-50.71-104-77 47.661-1.477 95.727.322 143.46-.534 10.556-.424 22.495.465 31.332-6.487 3.007-2.475 5.994-6.506 5.724-10.016-2.814-5.898-10.58-10.263-14.406-14.786-15.08-13.402-30.564-26.336-46.11-39.177 9.76-1.88 21.854 1.757 30-9.345 1.428-2.092 3.189-5.426 2.22-7.598-5.229-5.168-12.44-10.353-17.677-14.625-11.642-8.964-23.806-17.227-35.83-25.636-5.572-3.39-11.218-7.82-17.713-11.796l1.625-.5h29.4c11.387-.593 28.714 2.518 33.978-13.246.9-2.963-2.58-5.592-4.464-7.097-7.175-5.825-14.646-11.281-22.263-16.49-12.133-8.43-24.326-16.797-36.895-24.549-.465-.36-.93-.764-1.381-1.118 15.682-1.394 31.84.227 47.617-.5 12.2.285 29.963 1.313 34.383-16.656-25.71-22.064-52.514-42.87-79.5-63.344-8.011 9.736-16.203 19.318-24.283 28.985-6.454 6.555-12.17 16.145-18.83 21.397-16.081 1.713-32.541-.27-48.691.618-16.168-.709-32.608.876-48.696-.5 14.988-7.553 29.52-15.967 43.738-24.844 7.25-4.221 17.156-2.043 25.95-6.533 7.62-3.049 15.124-9.539 16.312-18.123-36.547-8.876-73.361-17.012-110-25.5 46.54-1.426 93.23.26 139.785-.5h70.187c11.753-.242 23.514.31 35.245-.205 5.212-.371 10.343-1.804 14.863-4.436 5.042-1.907 7.227-8.41 8.92-11.859-39.587-36.856-80.262-72.68-122.5-106.5-14.126 19.966-28.964 39.574-43.304 59.407-5.368 7.594-11.033 14.97-16.48 22.492-2.428 3.3-4.74 6.696-7.42 9.79-3.072 3.034-7.752 2.154-11.789 2.311H1591v-64.8c.166-2.54-.235-5.865.978-7.976 13.547-5.014 33.81-7.649 36.022-29.224-59.864-5.67-120.124-8.433-180-14v116h-200.997c-8.083.382-15.446-3.252-22.717-6.289-24.502-9.717-48.923-19.65-73.418-29.355-12.192-4.862-24.383-9.79-36.578-14.644-11.912-3.838-25.07-11.188-36.29-13.712-.47 150.294.807 300.564-1.008 450.835-1.728 54.5-1.883 109.144-7.063 163.463-7.186 89.572-21.22 179.565-52.908 264.02-3.02 7.823-6.206 15.616-9.309 23.399-1.583 6.813-7.387 12.77-8.018 20.742 2.362 2.86 5.298 5.241 8.982 6.048 47.55-34.528 87.872-80.356 118.691-130.347 47.494-77.806 72.134-167.18 82.41-257.192 4.93-48.469 7.302-97.21 8.361-145.918.934-25.132-.162-50.418 1.323-75.497 1.606-4.606 10.354-5.393 13.595-8.087 16.066-6.95 30.959-16.54 46.944-23.466m-277-402.531c1.81 2.737 4.214 5.025 6.313 7.531 60.736-25.111 121.941-54.014 170.565-99.357 37.49-32.922 68.988-73.171 89.39-118.827 8.375-17.7 14.738-36.308 20.618-54.944a118 118 0 0 0 3.534-12.509c.691-3.816 1.905-8.476 6.805-8.266 142.26-.277 284.524.05 426.775-.097v81c-.003 10.192.004 20.41-.002 30.594.123 6.8-1.906 16.33-10.294 19.803-7.006 2.422-14.639 1.288-21.88 1.603-52.313-1.313-104.576-4.326-156.824-7v14c38.6 4.918 79.122 16.494 107.09 45.266 15.571 12.258 22.774 31.618 27.939 49.894 3.988 19.516 9.02 42.53 9.971 60.84 28.123-2.329 56.15-6.208 83.632-12.677 37.294-9.07 77.793-27.492 95.385-64.178 18.713-40.099 16.46-85.282 15.983-128.202V946c13.195-1.318 29.243-9.164 36-19.5-43.861-34.041-88.14-68.228-132.5-101.5-11.475 11.236-21.099 24.13-32.396 35.516-5.45 5.914-10.702 11.985-16.086 17.959-2.956 2.762-5.332 6.002-8.023 8.986-2.266 2.591-6.232 5.683-6.995 8.539-67.929-.76-136.151.926-204-.5 38.496-16.896 75.045-37.79 111.236-59.074 17.755-10.527 35.197-21.548 52.41-32.91 4.207-3.11 8.55-6.006 12.893-8.918 5.802-3.776 15.812-3.033 23.627-5.734 3.888-.801 7.79-1.781 11.285-3.7 3.39-1.353 6.689-5.365 9.549-6.164v-1.5c-43.556-37.79-88.174-74.458-131.5-112.5-25.557 24.57-49.626 50.83-75.58 74.93-9.511 2.52-20.277-.022-30.063 1.07-29.515-.76-59.457.926-88.857-.5 7.83-7.675 14.524-16.403 21.342-24.96 10.606-12.19 19.498-25.713 29.483-38.361 2.837-2.98 8.544-1.974 13.034-2.2 10.683.342 25.011-1.609 31.141-14.479-67.283-18.926-135.889-34.008-203.336-52.5-5.373 9.45-7.392 20.928-12.55 30.608-14.926 36.13-32.12 71.248-52.222 104.782-28.492 50.231-62.58 97.344-99.381 141.776-37.605 45.11-79.739 86.57-126.511 122.084 1.41 5.448 7.09 10.31 12.813 6.817 28.58-10.81 56.702-22.89 84.06-36.505 18.596-9.97 37.948-19.039 55.627-30.562 1.426 61.471-.26 123.447.5 185.013.474 44.687-.808 89.371-5.482 133.825-3.077 31.896-6.987 63.81-14.717 94.96-11.459 43.902-27.73 86.902-51.543 125.653-23.442 38.563-54.958 72.06-88.258 102.018M1275 2440h-15c-.168 22.361-14.681 41.09-30.102 55.602-12.617 13.444-29.116 21.967-45.451 29.729-13.993 7.768-27.207 17.769-35.7 31.594-15.318 24.336-6.47 60.736 18.088 75.43 19.057 10.766 46.672 12.037 64.867 3.962 29.756-12.728 46.715-44.267 54.534-73.96 9.301-33.072 4.354-67.934-4.512-100.384-1.84-7.438-4.57-14.65-6.724-21.973m-55.5-466c44.051-54.526 82.05-114.395 111.5-178h-112c.76 59.245-.926 118.87.5 178M1268 874.375c15.082 5.455 30.981 10.214 46.134 15.825 5.862 1.724 12.566 4.592 18.104 5.558 49.24.69 98.515-.125 147.762.242 19.3-40.285 35.505-82.273 50-124.5-26.972-1.426-54.285.26-81.316-.5-20.344.02-40.655-.024-60.99.013-6.9-.419-11.877 7.067-16.427 11.22-32.788 32.37-66.033 64.825-103.267 92.142m33 397.125c.03.55.186 1.057.5 1.5H1444v-162h-133c.135 53.205.73 108.47-10 160.5m10-189.5h133V926h-133zm60 1047.375c9.79 4.791 20.85 7.647 30.917 11.986 8.147 3.115 16.367 5.98 24.464 9.193 12.71 4.375 26.74 1.333 39.88 2.446H1506c1.921-8.828 1.233-18.048 2-27h-30v-150c-13.267 4.91-25.162 13.288-38.45 18.263-6.503 2.95-13.124 5.58-19.677 8.394-7.91 4.324-12.001-.44-16.373-5.657-1.426 25.65.26 51.748-.5 77.492-.324 11.924 2.402 27.83-6.234 35.24-7.334 7.989-16.206 14.692-25.766 19.643m8-333c17.285 8.574 35.53 16.183 53.01 24.555 9.183 3.962 18.049 8.597 27.235 12.545 8.794 4.461 18.392 7.811 26.755 13.025-4.571 7.983-12.8 13.931-21.964 15.637-6.807 2.11-17.632-.807-22.48 2.996-13.932 15.713-29.423 29.867-44.556 44.367 12.651 4.17 25.39 9.138 38 13.5-4.85 13.625-20.82 17.63-32 20 .713 16.572-.88 33.545.5 50 25.137-27 44.908-58.586 62.87-90.614 17.893-34.059 34.878-69.343 45.63-106.386-44.252.57-88.854-.695-133 .375M1419 2183v19.927c.088 4.967-.116 9.91.083 14.872.1 7.766 13.542 4.357 18.293 5.201h264.211c10.124-.337 20.318.415 30.415-.234 4.95.107 3.923-7.716 3.998-10.835-.131-8.278.162-16.553-.093-24.822-.086-7.555-13.048-4.341-17.684-5.109H1455.2c-11.535 1.059-25.847-1.392-36.2 1m1 106h316c-.55-13.55.884-29.666-1-42h-315zm0 69h400.8c3.933-.103 9.062.818 12.447-2.98 8.126-9.062 14.334-19.708 22.753-28.52-3.861-.765-8.615 3.599-13.142 4.048-34.173 12.971-70.547 17.758-106.858 16.452-.27-9.648.603-19.438-1-29h-315zm0 67h388.2c7.602-.25 15.216.317 22.795-.2 4.334-.34 7.655-5.542 11.52-8.418 11.094-9.33 21.16-19.816 32.485-28.882-151.515-1.426-303.413.26-455-.5zm34 45.29c12.955 24.422 22.408 51.014 29.04 77.89 2.83 11.21 4.327 22.673 4.74 34.193.257 8.968-2.045 19.44 8.654 25.678 12.711 9.499 28.613 17.157 44.984 15.4 23.695-1.222 46.688-16.868 53.614-40.135 8.343-24.2-2.236-50.76-20.507-67.291-27.79-29.438-75.354-43.064-110.19-50.528-3.395.655-6.695 2.847-10.335 4.503zm121-673.915c30.66 10.986 62.349 20.845 93 32.125-5.486 11.727-16.948 20.26-30.216 20.403-3.277.71-7.141-.788-10.655 1.139-3.578 3.024-5.997 7.189-8.982 10.732-2.363 3.607-7.29 7.604-8.147 11.226h80c1.306-12.555 4.926-24.783 6.386-37.333 2.814-12.534 3.503-25.79 6.614-38.167-21.377-1.416-43.105.25-64.54-.5-21.073.568-42.483-.693-63.46.375m9-871.125c2.13 5.055.203 13.023 1 19.382V1082h143V925h-144zm1 347.75h142v-162h-142zm13 666h81v-38h-81zm0 68h81v-43h-81zm0 67h81v-41h-81zm0 78.139c2.683 2.12 8.856-.136 11.92.861h95.063c6.939-.794 17.738 1.552 22.542-2.277 13.237-15.912 28.291-30.27 41.475-46.223-27.682-1.426-55.868.26-83.646-.5-27.752.756-55.638-.922-83.354.5 20.764 5.41 42.4 8.238 63 14-4.47 12.36-16.784 20.962-29.993 21.076-13.246.615-24.429 9.233-37.007 12.563M1797 1939h22.8c6.132.675 10.83-.088 14.433-4.733 10.73-10.487 20.044-22.287 30.767-32.767-22.488-1.422-45.422.255-68-.5zm0 68h27c5.927-.04 13.184 1.322 17.73-4.233 12.373-12.183 22.742-26.228 35.27-38.267-26.486-1.426-53.42.26-80-.5zm0 67h50c8.654-14.341 21.714-26.437 31-40.5-26.867-1.426-54.065.26-81-.5z" style="fill:#000;fill-rule:evenodd;stroke:none"/></svg>