<svg xmlns="http://www.w3.org/2000/svg" width="3000" height="3000"><path d="M449 2666.5v1.5h2102v-1.5c-63.81-378.768-126.215-757.87-189.705-1136.696-47.349-283.998-94.654-568.016-142-852-4.398-26.67-8.911-53.338-13.325-80.003-1.118-6.656-2.232-13.342-3.35-19.985-.571-3.586-1.119-7.183-2.096-10.662-1.288-2.958-6.82-3.128-9.193-4.54-101.51-33.828-203.017-67.663-304.512-101.514a746151 746151 0 0 1-266.522-88.84c-39.072-12.89-78.06-26.135-117.144-38.98-4.713-1.335-9.273 1.032-13.839 2.453-144.507 48.104-288.95 96.378-433.449 144.467-54.18 18.08-108.385 36.116-162.566 54.195-23.808 7.923-47.625 15.882-71.434 23.805-5.676 1.96-11.407 3.738-17.06 5.726-6.564 1.113-6.72 8.744-7.34 13.268C740.08 921.349 682.77 1265.54 625.383 1609.692 566.339 1961.663 508.308 2314.864 449 2666.5m600-470.017c12.232 26.167 26.922 51.318 39.438 77.39 12.983 26.24 27.09 51.885 40.062 78.127 15.04-7.08 16.797-24.319 21.866-36.538 21.538-38.202 43.599-76.466 61.634-116.462h3v323c19.503.318 39.335 1.009 58.342-4.339 13.068-3.126 28.037-8.318 39.063-13.86 8.666-4.268 17.109-9.138 24.511-15.387 2.69-2.449 5.885-5.452 7.458-8.436 2.707-5.945 1.087-15.048 1.626-22.53V1678c13.62-.716 31.99-7.8 34-25-55.07-4.017-109.902-11.406-165-15v243h-3c-5.298-14.205-17.914-27.832-27.233-37.733-16.072-17.028-35.26-30.67-55.785-41.768-10.605-5.439-21.24-10.761-32.216-15.386-10.72-3.625-23.687-12.358-32.766-6.613 21.932 52.097 31.857 108.956 33.835 165.22-.402 7.547-1.053 15.065-.835 22.628-.892 7.28 3.896 10.665 8.607 14.748 15.022 13.666 35.71 24 56.581 21.264 20.13-2.249 39.91-14.669 49.812-32.36h3v136.2c-.21 3.738.913 8.959-3.251 11.287-53.892 26.445-107.459 54.188-162.749 77.513zm2-843.9c.786 2.233 2.998 3.525 4.344 5.417 36.049-18.622 71.612-39.097 104.46-63.091 17.034-11.974 33.596-24.59 49.826-37.635 7.983-6.556 15.545-13.594 23.56-20.104a137 137 0 0 1 11.658-10.602c3.697-3.331 7.481-8.636 12.152-8.568v369c33.328.037 68.14.327 99.273-13.488 6.945-2.925 13.367-6.966 19.779-10.884 4.696-3.126 9.985-6.074 12.996-11.057 3.581-7.551.974-19.372 1.952-28.916V1494h328v88c40.108 1.332 80.41-5.31 117.337-21.656 7.891-3.799 20.033-6.168 18.663-18.364v-338.183c.034-6.799-.042-13.6.023-20.396.193-2.265.057-5.43 2.43-6 13.977-4.416 28.258-9.873 38.547-20.901-41.4-33.022-84.17-64.396-125.5-97.5-11.444 12.132-23.963 27.183-34.404 38.355-4.739 5.527-10.572 11.793-15.004 16.772-4.62 4.25-9.726 12.882-15.233 13.69-59.976.52-119.963-.094-179.946.183h-90c-14.091-.191-31.216 1.499-43.309-3.922-12.646-4.021-24.878-9.353-37.604-13.078.256-5.816 6.982-11.026 10.36-16.548 28.787-38.255 55.423-78.435 78.21-120.561 23.535-43.877 45.496-89.288 60.43-136.891h393c16.376-.579 39.141 2.675 46-13.668-37.574-32.587-78.305-61.329-117.708-91.598a639 639 0 0 0-15.194-11.674c-2.081-.911-4.865-4.743-7.028-3.005-13.622 14.85-25.004 31.882-38.044 47.272-11.58 16.282-26.14 31.07-37.026 47.673h-657c1.472 7.344 4.111 15.912 6.255 22.427 1.34 3.866 8.743 1.935 11.528 2.573H1337c-18.51 99.669-57.897 194.949-107.488 282.96-48.115 85.2-107.219 164.852-178.512 232.04zM1366 2125h319v241.2c.054 7.161.725 16.522-4.377 20.977-5.089 4.048-12.082 3.808-18.183 3.823-45.59-.032-90.926-5.57-136.44-7v9c16.476 3.304 33.04 6.531 48.836 12.457 21.88 8.217 45.961 25.171 56.481 44.34 13.537 22.33 12.097 50.099 18.183 74.203 38.917-5.647 81.054-9.075 115.75-30.161 12.376-7.207 22.912-17.318 30.456-29.49 13.238-23.781 15.953-51.674 17.213-78.3.23-87.02-.042-174.031.081-261.049h112.8c9.394-.1 23.223.496 28.89-10.513 2.627-2.98-2.853-7.533-4.33-9.613-18.945-20.301-39.498-38.841-59.73-57.744-8.138-7.603-16.63-14.839-24.13-23.13-8.277 13.105-17.29 25.898-25.779 38.905-8.947 12.347-15.853 26.478-25.721 38.095h-2v-68c11.917-.35 29.554-6.38 31-22-37.937-3.806-76.037-6.418-114-10 .703-4.696 7.687-7.136 11.54-10.343 32.38-22.25 63.537-46.294 92.906-72.38 15.195-12.847 29.385-26.783 43.53-40.752 3.56-3.66 7.355-7.125 10.643-11.037 4.31-6.272 14.61-3.855 20.994-5.728 7.104-1.132 13.458-5.28 17.387-11.26-23.202-12.89-47.366-24.546-70.88-36.947-11.925-6.543-24.103-12.593-36.238-18.743-5.722-3.44-11.837-6.194-17.755-9.248-5.917-2.129-13.032-7.52-18.127-8.562-18.045 50.943-45.052 98.557-71.708 145.393-26.665 45.227-56.673 88.58-91.292 128.107 2.28 2.325 4.401 4.83 6.25 7.5 9.597-3.853 20.313-10.088 28.737-14.439 9.696-3.853 19.672-12.3 29.013-14.561v73h-325c.955 8.211 5.05 15.784 6 24m2-299.65c16.52 30.549 27.539 63.978 37.076 97.294 3.804 12.954 6.361 26.361 8.076 39.742.728 6.198 1.096 12.451 1.745 18.655.424 5.29 6.355 8.753 10.186 11.647 16.068 12.273 37.998 17.237 57.133 8.992 28.714-11.447 43.62-45.665 34-74.809-7.523-29.34-30.196-51.711-54.367-68.319-25.48-16.536-59.132-31.06-86.385-37.01-2.952-.182-4.979 2.491-7.464 3.458zm9-35.85c47.648-1.654 96.104.688 143.901-1.104 68.702-1.604 137.449-5.61 205.764-12.98 32.112-3.666 64.27-7.31 96.09-13.05 8.443-1.199 16.762-3.013 25.14-4.556 12.53-1.648 24.423 5.732 36.958 5.88 11.94 1.125 25.276.601 35.147-7.19-44.246-39.686-87.788-80.219-131.5-120.5-63.683 34.627-132.637 58.982-200.541 83.852-69.557 23.183-139.963 44.883-211.959 59.148-.012 3.526.49 7.033 1 10.5m14-319.5h328v-317h-328zm38 684.25c15.694 27.664 30.775 56.091 42.235 85.885 9.659 22.855 14.839 47.659 19.71 71.64 11.858 12.826 33.09 19.523 48.566 19.222 27.465.62 52.324-21.021 58.216-47.234 6.787-26.683-6.203-54.19-24.46-72.995-16.84-17.362-41.905-31.996-62.4-40.003-12.267-5.07-24.95-9.082-37.825-12.256-6.178-1.633-12.374-3.143-18.65-4.343-6.22-.826-13.565-3.615-19.401-2.637-2.123.359-4.25 1.703-5.991 2.471zM1564 1958c3.01.84 5.673 4.524 8.864 6.388 10.683 8.189 23.256 14.763 36.846 16.178 20.343 2.562 40.517-8.02 52.674-23.823 5.748-7.927 10.728-18.755 12.08-27.693 1.688-10.724.26-21.583-2.981-31.844-11.443-33.329-40.291-57.717-70.262-74.11-11.16-5.963-22.596-11.307-34.366-15.929-11.924-3.402-26.16-12.423-36.855-8.167 19.233 50.726 34.223 104.22 34 159" style="fill:#fda;fill-rule:evenodd;stroke:none"/><path d="M1047 2196.259c13.321 26.17 27.22 52.33 40.438 78.613 13.794 26.286 26.787 53.151 41.062 79.128 15.473-8.814 17.908-23.276 22.866-37.538 22.202-38.01 42.888-76.881 62.134-116.462 1.426 107.549-.26 215.392.5 323 19.728.225 39.715 1.071 59.003-4.011 13.664-3.41 27.245-7.662 39.888-13.943 8.982-4.428 17.835-9.417 25.436-15.999 2.69-2.468 5.865-5.5 7.295-8.577 2.553-7.178.663-15.196 1.378-22.622V1679c13.737-1.314 32.994-7.211 34-27-55.762-3.687-111.192-12-167-15-.76 80.929.926 162.151-.5 243-13.494-27.471-41.025-52.448-63.945-67.745-13.496-8.724-27.61-16.496-42.34-22.96-7.133-3.04-14.138-6.31-21.36-9.128-4.103-1.32-8.01-3.23-12.18-4.324-4.116-1.273-7.449 1.385-10.675 2.157 20.177 53.993 33.352 111.053 33.722 168.972-.815 7.739-.784 15.5-.807 23.267-.84 5.41 5.414 9.496 9.709 13.829 15.502 13.821 36.56 23.365 57.732 20.271 20.721-2.013 39.204-15.117 50.144-32.339l.5 1.625v120.6c-.583 8.321 2.391 21.066-5.424 24.496-53.463 26.567-107.168 52.782-161.576 77.279zm2-843.926c1.542 2.998 4.235 5.212 6.5 7.667 35.358-19.735 71.522-38.767 104.075-63.16 16.776-12.021 33.436-24.194 49.432-37.252 8.176-6.345 15.548-13.65 23.641-20.084 3.953-3.445 7.453-7.38 11.643-10.554 3.94-2.673 7.74-8.893 11.709-9.95v369c33.772-.031 69.154.7 100.768-13.272 6.997-2.85 13.433-6.866 19.85-10.814 4.709-3.195 10.005-6.083 13.212-10.962 3.842-7.412 1.221-19.236 2.17-28.702V1495h326v88c21.172.35 42.657 1.028 63.343-4.538 14.45-3.06 28.72-7.072 42.678-11.879 9.467-3.996 21.522-7.694 29.123-13.469 3.378-2.703 2.892-8.086 2.856-11.933v-337.583c.108-6.792-.136-13.585.082-20.369-.296-5.108 5.143-5.8 9.046-7.118 12.274-3.862 23.958-10.167 32.872-19.611-36.525-29.344-74.186-57.352-111.055-86.256-3.559-2.732-7.062-5.509-10.61-8.243-1.743-1.202-3.447-2.583-5.328-3.505-4.06-.216-6.84 6.378-9.497 8.31-11 12.4-22.199 24.61-33.096 37.104-4.949 5.508-10.068 10.866-14.907 16.464-4.628 7.605-11.769 7.32-19.188 6.626h-260.864c-13.781.026-28.04 1.407-40.916-4.298-12.29-3.885-24.175-9.114-36.539-12.702v-1.5c32.356-39.149 59.157-82.429 84.771-126.116 24.767-46.373 48.637-94.01 64.229-144.384h394.8c16.662.083 40.095 1.852 45.2-16-46.396-36.726-94.222-73.107-141.5-109-24.28 33.292-52.654 64.505-76.5 98h-658c3.247 8.484 4.497 19.695 8.456 26.183 9.986 1.93 20.574-.024 30.703.817H1336c-9.56 50.214-24.747 99.193-43.15 146.8-13.822 35.028-29.692 69.147-47.027 102.566-25.726 48.781-54.927 95.665-87.306 140.281-32.615 44.632-69.118 86.682-109.517 124.353zm309 748.167c2.491 8.104 5.443 17.866 7 25.5h319v240.6c-.261 6.095 1.133 14.435-4.725 19.942-9.569 5.775-25.374 2.456-37.838 2.974-38.861-1.148-77.562-5.771-116.437-6.516v11c16.476 3.304 33.04 6.531 48.836 12.457 21.88 8.217 45.961 25.171 56.481 44.34 13.527 22.387 12.1 49.996 18.183 74.203 27.864-3.368 55.991-6.47 82.936-14.852 18.953-5.491 36.878-14.727 51.552-27.932 22.432-21.963 28.933-54.81 30.451-85.008 1.418-34.097-.109-68.274.561-102.38V2126h116.4c10.034.857 22.972-2.243 27.6-14.5-7.004-8.112-14.534-15.76-22.233-23.233-11.377-11.533-22.899-22.882-34.978-33.639-6.463-4.971-11.42-11.61-17.916-16.536-3.083-2.652-5.85-5.625-8.743-8.462-2.76-2.623-5.725-6.336-9.13-6.63-7.148 13.518-17.403 25.712-25.279 38.905-8.48 12.642-16.229 25.808-25.221 38.095-1.42-21.797.252-44.11-.5-66 7.468.068 14.794-2.212 21.042-6.232 7.277-4.122 8.628-10.64 10.958-17.268-37.897-5.803-77.087-5.337-115-11 34.452-23.318 68.16-48.011 99.352-75.609 15.764-14.308 31.832-28.28 46.75-43.493 3.81-3.936 7.836-7.641 11.495-11.704 5.229-7.788 13.985-5.082 22.016-6.934 8.03-1.122 14.628-6.317 18.387-13.26-48.274-24.456-96.25-49.726-144.354-74.5-22.106 51.911-46.392 103.384-76.37 151.417-14.025 23.37-28.829 46.282-44.826 68.361-8.06 11.425-16.657 22.423-25.337 33.37-4.37 5.331-8.866 10.537-13.28 15.827-1.58 2.085-5.654 6.307-3.47 8.28 1.552 2.817 4.15 5.6 6.137 7.745 18.594-9.93 37.782-19.293 56-30 1.422 23.537-.255 47.396.5 71h-326zm9.493-275.023c19.87 44.305 38.488 90.486 44.766 139.01.957 6.322.89 13.937 2.094 19.678.97 4.344 8.196 7.504 10.968 10.402 15.381 11.028 35.45 15.812 53.816 9.512 17.331-5.032 31.211-19.154 36.985-36.048 6.405-16.99 4.457-36.093-2.352-52.601-9.786-24.402-30.048-42.874-50.921-57.878-21.227-14.555-45.301-24.352-69.54-32.616-6.54-1.948-16.278-5.945-21.88-3.48-1.48.978-4.01 2.413-3.936 4.02M1376 1790c94.931.421 189.981.625 284.646-7.38 43.858-3.13 87.54-8.244 131.106-14.087 10.633-1.928 21.408-3.042 32.003-5.167 8.594-1.236 17.083-3.089 25.625-4.592 6.35-1.274 12.452 1.44 18.47 2.947 17.965 5.325 37.428 5.179 54.15-3.721v-1.5c-37.545-34.123-75.027-68.346-112.32-102.734-7.872-5.319-13.5-15.295-21.794-18.204-64.576 32.913-132.535 59.333-200.927 83.29-69.557 23.183-139.963 44.883-211.959 59.148a54.7 54.7 0 0 0 1 12m16-321h326v-315h-326zm35 685.461c19.692 32.075 36.315 66.547 48.796 102.097 4.94 14.046 8.363 28.507 11.57 43.012 1.494 5.971-.097 13.16 6.97 17.418 18.563 13.94 43.88 20.512 66.157 11.325 15.963-5.847 29.09-18.94 35.407-34.673 9.846-24.51 3.443-53.342-12.893-73.605-15.344-20.28-37.467-34.296-59.876-45.478-28.08-12.477-58.169-20.78-88.579-25.076-1.947 1.905-5.607 2.215-7.552 4.98m101-355.211c21.134 50.413 34.388 104.919 35 159.75 3.148.915 5.89 4.77 9.27 6.701 20.943 17.963 53.452 22.673 76.647 5.845 11.144-7.591 19.442-18.685 23.819-31.397 5.371-13.521 3.361-30.978-.09-43.394-11.461-34.129-41.19-58.979-71.917-75.397-11.534-5.927-23.106-11.834-35.386-16.1-12.187-3.977-27.185-12.624-37.343-6.258z" style="fill:#000;fill-rule:evenodd;stroke:none"/></svg>