<svg xmlns="http://www.w3.org/2000/svg" width="3000" height="3000"><path d="M448 2669h2104c-108.019-653.996-218.137-1307.761-326.618-1961.691-6.813-40.83-13.621-81.671-20.41-122.502-.9-5.185-1.732-10.375-2.627-15.558-.693-5.948-7.25-6.546-11.566-8.162a2264805 2264805 0 0 1-451.953-150.644c-56.522-18.824-113.032-37.715-169.56-56.514-12.477-4.17-24.972-8.31-37.44-12.486-6.015-1.98-11.998-4.026-18-6-5.943-1.873-12.256-5.247-18.565-3.023-92.812 30.91-185.585 61.892-278.396 92.78-138.737 46.826-278.12 92.047-416.698 139.266-3.665 1.962-2.298 9.57-3.876 12.727-22.4 134.514-44.811 269.006-67.243 403.502C635.746 1543.503 540.855 2106.166 448 2669m598-1340.5c1.31 1.05 3.443 3.782 5.443 4.003 2.523-.278 4.81-1.75 7.06-2.814 29.14-15.573 56.754-33.772 83.57-53.009 13.275-10.368 27.038-20.12 39.493-31.494 6.813-5.33 12.9-11.456 19.225-17.322 3.263-2.657 6.456-5.362 9.311-8.466 2.929-2.675 6.044-6.926 9.898-7.398-1.942 60.702-1.756 122.21-14.964 181.84-3.247 13.77-7.7 27.413-15.044 39.598-5.644 9.03-15.722 15.575-26.6 15.538-34.528.063-69.014-2.736-103.392-5.976.17 3.116-.616 9.08 2.819 9.843 3.325 1.706 7.097 2.191 10.558 3.518 12.545 4.705 24.737 10.576 35.33 18.904 8.111 5.732 15.738 12.401 20.486 21.272 7.48 13.462 9.813 28.906 12.352 43.853 1.826 16.131 2.527 32.378 2.455 48.61 27.331-.9 54.865-3.172 81.123-11.308 17.963-5.588 35.277-14.745 48.744-28.065 39.457-43.453 53.77-102.946 62.715-159.106 7.979-55.58 10.578-111.984 8.874-168.115-2.918-81.367-10.476-164.37-39.388-241.221a462 462 0 0 0-23.273-51.597c-5.774-13.057-14.609-24.36-21.751-36.581-2.45-4.662 6.174-9.587 8.15-12.76 24.78-28.062 51.951-55.071 72.806-86.247 11.753-.585 30.298 3.249 36-13-48.618-24.135-94.246-55.098-143-79-10.835 37.93-27.78 73.809-43 110-5.597.202-10.6-6.155-15.56-9.82-33.141-25.216-68.145-48.625-106.024-66.18-1.748 1.901-3.62 3.654-5.416 5.5 21.91 21.83 42.45 45.15 60.4 70.371 12.365 18.8 26.06 37.55 34.176 58.705.355 7.636-7.748 15.815-10.784 23.877-28.237 51.637-61.699 100.227-99.792 145.047 2.011 2.358 3.681 5.74 6 7.5 40.884-22.756 80.713-47.724 116.924-77.571 3.393-2.975 7.012-5.667 10.468-8.553 2.71-2.108 7.918-7.647 10.282-3.657 2.3 7.584 6.117 18.496 5.66 25.164-9.925 63.73-29.002 126.073-54.61 185.16-13.272 29.409-27.502 58.525-44.507 85.972-16.204 25.983-33.408 51.61-53.217 74.985m30 1180.957c2.563 3.11 4.968 6.4 7.5 9.543 38.07-17.915 74.821-38.844 109.866-62.143 52.376-34.444 101.451-74.871 142.057-122.862 40.908-46.565 74.63-100.463 97.577-157.995 4.45.054 8.591 4.827 12.628 7.721 28.984 24.043 61.109 43.897 93.482 62.914 24.68 14.718 50.83 26.78 77.04 38.444 5.102 2.53 10.424 4.556 15.621 6.844 6.774 1.98 4.864 7.74 3.061 12.168-5.172 17.993-14.493 39.389-27.668 50.964-11.49 10.585-26.994 13.935-42.163 12.945-47.114.244-94.002-5.13-141.001-7-.435 2.652-.918 5.315-1 8 35.154 6.34 75.777 22.64 99.869 45.37 13.872 12.387 21.856 29.545 25.913 47.357 4.315 19.832 4.72 40.08 4.218 60.273 32.886-.161 66.265-3.846 97.502-14.406 43.555-15.627 80.052-49.135 99.672-90.957 10.171-21.301 16.994-44.182 23.12-66.902.556-2.554.991-6.685 4.113-6.236 20.363 4.295 40.109 11.643 60.593 15.501 5.702-30.612 23.87-63.972 42.602-85.102 10.984-11.634 22.949-22.884 38.088-28.966 7.564-3.294 14.942-7.198 23.036-9.1 3.746-1.177 8.376-1.882 11.727-3.204 3.725-1.08 2.995-7.877 3.547-10.628-53.366-4.592-106.165-13.69-159-22 6.937-64.261 11.03-128.751 14.521-193.261 3.268-65.882 7.038-131.778 8.479-197.739 16.076-1.55 32.357-8.133 44-19.5-39.112-35.883-78.391-71.62-117.5-107.5-17.596 18.133-34.816 36.613-53.102 54.102l-12 12c-4.149 3.126-7.781 9.39-12.212 10.453-185.933 2.027-372.298-1.156-558.186.945 2.026 3.379 2.373 8.968 4.407 13.217 1.6 3.028 1.943 9.431 5.574 9.818 31.986 1.327 64.174-.242 96.197.465H1356c-3.165 74.95-.532 150.506-11 225-4.537-.478-8.686-5.676-11.37-7.87-25.267-23.225-47.977-49.508-67.714-77.581-5-6.753-9.488-13.87-13.736-21.101-2.69-5.423-7.823-11.261-8.685-16.873 9.013-15.994 25.124-28.76 34.505-44.575-16.003-3.641-31.098-10.93-47-15-2.029 17.143-3.917 34.357-5.852 51.517-.262 6.24-7.806 9.461-12.025 12.878-33.964 23.842-68.984 47.083-106.123 65.605v1.5c22.354 30.48 42.614 62.693 64.5 93.5 4.75-4.517 8.634-10.963 7.554-17.745-.33-3.133-1.839-6.11-1.611-9.3 18.176-40.85 41.081-80.216 57.557-121.955 3.992.191 5.165 5.457 6.657 8.34 21.51 53.397 48.77 104.797 83.302 150.97 3.328 4.358 6.275 9.04 9.57 13.391.072 11.585-4.353 22.71-6.238 33.997-18.129 79.247-50.582 154.772-93.933 223.399-21.855 33.063-44.877 65.531-71.848 94.71-26.554 30.152-56.59 57.1-86.51 83.65M1336 853.5c2.641 8.022 4.742 16.348 7 24.5h118v136c37.747.739 76.25-2.05 111.836-15.938 4.08-1.632 8.35-3.278 11.602-6.353 3.105-3.014 2.542-7.625 2.562-11.631V878h91v132c32.282 3.104 65.346-2.359 96.404-10.845 7.643-2.206 16.377-5.637 22.916-8.843 7.585-3.185 7.064-9.073 6.68-15.258V878h120c11.495.066 26.675.057 31.104-11.22 1.73-3.806-3.863-7.532-5.498-10.312-19.852-21.684-38.787-44.151-59.581-64.943L1866.5 768c-8.8 13.909-17.312 28.208-26.007 42.22-8.03 14.457-18.366 27.883-25.493 42.78-3.613-.025-10.885 1.043-10.865-4.673-.386-33.44.07-66.883-.135-100.327 13.22-1.67 29.648-7.13 35-23.5-6.449-2.142-13.649-1.331-20.316-2.443-46.887-4.2-93.796-7.964-140.684-12.057v127.2c-.713 5.471 1.206 12.678-1.5 16.8-14.704-2.247-29.79-.086-44.58-1H1587V748c12.609-2.94 30.684-7.26 34-24-53.244-5.295-106.72-9.019-160-14v143h-125zm50 731.5c28.886.856 58.319-1.775 85.099-13.67 11.906-5.141 23.952-10.572 33.94-19.033 6.813-5.05 7.648-11.795 6.961-19.116V1511h257c1.102 21.664-1.344 43.804.726 65.34 3.22 3.35 11.353.438 15.235 1.334 15.478-.345 31.098-1.141 46.15-5.217 17.097-4.214 34.421-8.758 50.255-16.634 7.656-4.185 19.136-7.054 18.618-16.44.045-9.808-.008-19.588.016-29.39v-390.986c.754-4.015-1.559-11.422 2.865-12.861 11.819-4.535 24.257-9.04 33.135-18.646-19.227-15.553-39.139-30.364-58.575-45.66-19.884-14.46-38.589-31.164-58.925-44.84-13.28 12.76-24.401 27.492-37.428 40.466-5.49 5.97-10.72 12.166-16.204 18.128-5.624 7.288-15.046 5.286-22.513 5.406h-192.386c-15.366.399-31.033 1.422-45.11-5.464-39.758-14.962-78.914-32.284-118.859-46.536zm274 582c12.157-127.664 18.8-255.835 23-384h-182c-3.994 89.241-9.88 178.805-28.052 266.457-2.156 10.834-5.513 21.407-7.826 32.197-1.202 3.914-1.848 8.393 3.285 10.504 60.535 32.432 125.894 55.552 191.593 74.842m-148-904h66c1.65-10.027.683-20.29 1-30.388v-134.336c-.134-3.322.263-6.726-.391-10.01.172-3.493-3.783-3.02-6.078-3.248-20.184-.052-40.359.01-60.531-.018zm0 224h67v-200h-67zm187-224h70v-178h-70zm0 224h70v-200h-70z" style="fill:#fda;fill-rule:evenodd;stroke:none"/><path d="M338 2761.5c387.06 1.426 774.925-.26 1162.15.5 387.224-.76 774.71.926 1161.85-.5-77.265-456.459-152.125-914.01-228.874-1370.691-28.417-170.851-56.988-341.657-85.4-512.497-12.491-74.824-24.942-149.684-37.431-224.508-5.828-35.176-11.741-70.32-17.569-105.492-3.54-17.097-4.968-34.714-9.072-51.664-1.3-3.941-8.915-3.966-11.797-5.85-133.175-44.44-266.372-88.79-399.558-133.193-116.482-38.867-233.005-77.647-349.48-116.505-6.56-1.974-12.94-4.527-19.527-6.382-6.558-1.31-12.878 2.396-19.017 4.029-100.339 33.452-200.674 66.889-301.01 100.324-87.802 29.33-175.659 58.504-263.446 87.829-38.52 12.817-77.015 25.657-115.52 38.495-18.005 5.974-35.995 12.026-54 18-8.822 2.95-17.652 5.903-26.471 8.83-4.346 1.012-8.371 2.451-8.57 8.208-90.761 544.76-181.624 1089.514-272.367 1634.27-35.423 208.458-69 418.87-104.891 626.797m111-95v1.5h2102v-1.5c-63.81-378.768-126.215-757.87-189.705-1136.696-47.349-283.998-94.654-568.016-142-852-4.398-26.67-8.911-53.338-13.325-80.003-1.118-6.656-2.232-13.342-3.35-19.985-.571-3.586-1.119-7.183-2.096-10.662-1.288-2.958-6.82-3.128-9.193-4.54-101.51-33.828-203.017-67.663-304.512-101.514a746151 746151 0 0 1-266.522-88.84c-39.072-12.89-78.06-26.135-117.144-38.98-4.713-1.335-9.273 1.032-13.839 2.453-144.507 48.104-288.95 96.378-433.449 144.467-54.18 18.08-108.385 36.116-162.566 54.195-23.808 7.923-47.625 15.882-71.434 23.805-5.676 1.96-11.407 3.738-17.06 5.726-6.564 1.113-6.72 8.744-7.34 13.268C740.08 921.349 682.77 1265.54 625.383 1609.692 566.339 1961.663 508.308 2314.864 449 2666.5" style="fill:gray;fill-rule:evenodd;stroke:none"/><path d="M1345 1272h2v-36h-3c.04 12.013 1.292 23.987 1 36m218 1251c-.185-2.448-2.592-3.168-4.641-2.79-1.142.203-2.23.552-3.359.79.137 1.886 1.802 1.96 3.274 2zm26-1670.5c-1.731-3.188-.54-8.38-1-12.478V749c1.215-.085 2.33-.724 3-1.5-1.899-1.05-4.546.07-6 .5v95.232c.058 3.437-.425 10.043 4 9.268m-2.5 139.5c2.358-3.213 1.07-8.937 1.5-13.33v-76.072c1.007-7.928-1.34-17.693 1-24.098a6.6 6.6 0 0 0-2.5-.5c-.4.393-.863.807-1.5 1v85.245c.987 9.124-1.487 20.482 1.5 27.755" style="fill:#100e0b;fill-rule:evenodd;stroke:none"/><path d="M1050.344 1335c62.265-30.8 118.462-73.76 168.156-122-.68 59.831-2.02 121.129-14.512 180.022-3.405 13.983-7.774 28.054-15.587 40.278-5.843 8.721-15.88 14.89-26.604 14.687-34.373.342-68.55-3.541-102.797-5.987.238 4.563-1.087 10.794 3.617 12.256 4.346 1.652 8.98 2.456 13.207 4.468 12.003 4.143 24.742 12.157 33.946 19.125 7.715 5.599 14.889 12.259 19.12 20.971 13.945 27.137 13.425 64.197 14.11 91.18 27.223-.667 54.708-2.782 80.922-10.7 18.297-4.985 35.587-14.233 49.47-27.197 40.476-43.236 54.94-103.494 64.092-160.011 3.729-25.481 6.555-51.192 7.846-76.917.005-13.376 1.186-26.7 1.452-40.04-.508-6.765-1.056-13.53-1.145-20.307l-.375-10.466c.009-2.815-.555-6.752 1.738-7.362-1.703-62.666-5.789-125.52-19.211-186.938C1315.49 993.469 1293.49 938.5 1261 890.5c14.97-15.024 29.256-30.681 42.973-46.852 7.1-7.79 13.545-16.186 20.422-24.175 5.878-8.228 13.653-15.729 18.605-24.473 12.307-.098 29.197 2.916 37-13.336-23.755-14.682-49.028-27.225-73.03-41.576-12.373-6.527-24.215-13.94-36.584-20.459-11.94-5.904-25.022-15.168-36.386-19.629-10.031 38.467-28.09 74.398-43 111-5.186-.928-9.462-7.793-14.771-10.8-32.762-25.775-68.663-47.34-105.729-66.2l-7.5 7.5c21.992 21.889 42.72 45.19 60.75 70.49 12.812 18.575 25.755 37.583 34.509 58.472 1.185 4.246-2.952 8.625-4.476 12.117-29.895 55.96-65.455 108.773-106.783 156.921 2.722 2.981 4.661 6.614 7.5 9.5 47.934-26.936 94.25-56.994 136-93 2.257 2.952 2.726 8.135 4.294 12.193 5.06 16.945-1.676 34.322-4.375 51.21-12.745 57.996-32.02 114.352-57.18 168.1-12.99 27.021-27.251 53.393-43.558 78.544-7.334 12.289-16.242 23.554-24.12 35.474a2473 2473 0 0 1-13.414 17.253c-2.393 2.559-4.286 5.742-6.479 8.372-1.022 2.895 3.354 5.85 4.676 7.854M1074 2509.459c3.424 3.61 6.11 7.885 9.5 11.541 37.555-19.199 75.379-38.483 110.09-62.696 52.551-34.353 101.774-74.897 142.478-122.928 41.128-46.614 74.862-100.718 97.932-158.376h1.5c29.243 25.271 61.666 46.667 94.957 66.159 33.54 20.573 69.697 36.464 105.543 52.341-4.945 18.488-13.214 40.372-24.908 53.855-10.294 12.013-25.583 17.752-41.06 17.541-49.13 1.018-98.01-5.505-147.032-6.896-.595 3.313-1.036 6.639-1 10 35.154 6.34 75.777 22.64 99.869 45.37 13.872 12.387 21.856 29.545 25.913 47.357 4.315 19.832 4.72 40.08 4.218 60.273 7.108-1.176 13.583-.181 20.627-.407 25.782-1.304 51.626-4.552 76.116-13.02 34.607-11.858 65.159-35.284 86.635-64.763 21.303-29.962 31.375-66.06 41.122-100.81 10.319 3.605 21.013 6.225 31.638 8.788 9.974 2.195 21.465 6.498 30.862 7.212 5.834-30.893 24.066-64.8 43.37-85.87 11.114-11.688 23.306-22.992 38.73-28.795 7.628-3.523 15.36-7.005 23.562-9.012 3.762-1.363 8.815-1.533 11.52-3.706 1.715-3.498 1.698-7.87 2.818-11.617-53.721-4.311-106.834-13.773-160-22 7.416-63.726 10.86-127.822 14.567-191.823 3.244-65.695 7-131.391 8.433-197.177 16.559-1.544 33.275-8.511 45-20.5-39.695-36.656-79.808-72.848-119.5-109.5-17.556 18.093-34.736 36.533-52.975 53.975-7.969 7.185-16.07 17.08-23.826 23.145-11.288 2.219-23.474-.165-34.957.88H1111c1.498 7.714 4.579 16.682 7.263 23.35 1.413 4.124 9.187 1.897 12.113 2.65H1355c-1.33 37.978-1.184 75.996-2.889 113.956-.46 18.619-1.314 37.222-2.846 55.774-2.023 17.606-1.664 36.026-5.765 53.27-39.717-34.819-74.655-75.81-99.5-122.667 12.55-14.065 23.906-29.38 36-43.833-15.568-7.516-33.697-10.335-49.5-17.5-3.023 17.237-3.918 35.068-6.34 52.444-.197 6.09-7.409 9.384-11.608 12.632-33.852 25.564-70.937 46.367-107.552 67.424 22.65 31.762 43.69 64.83 66.5 96.5 5.006-4.658 9.479-11.089 8.966-18.32-1.18-5.935-3.596-11.32.991-17.56 20.325-37.025 36.885-76.084 55.043-114.12 23.553 53.206 47.85 107.186 83.425 153.913 3.513 4.476 6.764 9.143 10.078 13.75 6.267 7.37.286 20.484-1.318 30.705-17.542 80.638-50.15 157.747-94.036 227.478-21.816 33.877-45.59 66.716-72.78 96.547-13.952 15.17-28.3 29.971-43.102 44.34-14.034 14.503-30.433 26.608-44.767 40.726M1342 879h118v136c38.112.865 76.883-1.711 112.893-15.557 4.1-1.65 8.399-3.163 11.754-6.142 2.791-2.403 1.214-7.333 1.363-11.43-.029-31.053.006-62.102-.01-93.14.097-3.02-.755-9.512 4.113-9.516 28.93-.613 57.945.111 86.887-.215v132c32.566 3.171 65.932-2.206 97.338-10.534 7.831-2.251 16.831-5.651 23.536-8.917 7.91-3.145 7.66-9.023 7.126-15.495V879h120.6c10.139-.01 25.804.592 31.09-12.086 1.797-3.916-2.85-7.51-4.86-9.9-19.632-22.06-38.909-44.41-59.7-65.384L1866.5 766c-9.671 13.751-17.622 28.664-26.723 42.793-8.172 14.573-18.495 28.191-25.777 43.207-2.252.19-4.845-.164-6.865-.489-3.569-1.781-1.293-9.008-2.135-11.855V749c13.565-2.79 31.984-6.58 35-26-54.275-4.898-108.675-9.48-163-14v127.2c-.559 5.15 1.059 13.057-1.5 16.8-3.774-2.086-10.088-.24-14.942-1h-57.959c-3.776-.066-7.566.093-11.336-.081-7.221.163-4.973-11.266-5.263-15.846v-71.029c.002-2.995-.002-5.973.001-8.955.17-2.206-.083-5.1 1.007-6.897 12.447-4.151 32.987-5.74 34.992-26.192-53.927-4.967-108.02-9.558-162-14v143h-125c1.032 9.249 5.44 17.852 7 27m43 707c29.22.946 58.995-1.366 86.167-13.267 12.045-5.233 24.317-10.572 34.483-19.094 6.832-4.924 8.085-11.505 7.35-18.867V1512h255c1.1 21.676-1.342 43.792.725 65.339 3.237 3.365 11.4.515 15.293 1.402 15.544-.163 31.145-.947 46.287-4.826 16.648-4.217 36.462-9.166 50.604-16.369 7.513-4.062 20.119-7.696 20.057-16.567.096-10-.017-19.987.034-29.985v-393.986c-.192-4.53-.632-9.612 5.357-10.956 11.337-4.266 26.785-10.245 31.643-20.052-40.973-28.16-78.705-62.434-119.5-91-13.387 12.68-24.533 27.391-37.467 40.477-5.379 5.975-10.652 12.053-16.094 17.964-5.742 7.877-13.54 7.177-21.786 6.559h-217.556c-11.128-.062-24.361-8.428-36.7-12.226-34.854-12.935-68.904-28.303-103.897-40.774zm273.5 580c13.616-126.78 18.27-254.612 23.5-382h-180c-4.088 88.453-9.69 177.275-27.675 264.165-1.823 10.82-5.295 21.302-7.624 32.001-1.1 3.778-2.905 8.299 2.23 10.733 59.632 33.206 125.135 53.94 189.569 75.101M1513 1262h64c2.457-19.978-.124-40.325 1-60.373v-90.557c-.293-7.268.433-15.897-.422-22.52-.27-2.538-4.428-2.337-6.267-2.536-19.443-.04-38.877.007-58.311-.014zm0 224h65v-198h-65zm187-224h68v-176h-68zm0 224h68v-198h-68z" style="fill:#000;fill-rule:evenodd;stroke:none"/></svg>