<svg xmlns="http://www.w3.org/2000/svg" width="3000" height="3000"><path d="M449 2666.5v1.5h2102v-1.5c-63.81-378.768-126.215-757.87-189.705-1136.696-47.349-283.998-94.654-568.016-142-852-4.398-26.67-8.911-53.338-13.325-80.003-1.118-6.656-2.232-13.342-3.35-19.985-.571-3.586-1.119-7.183-2.096-10.662-1.288-2.958-6.82-3.128-9.193-4.54-101.51-33.828-203.017-67.663-304.512-101.514a746151 746151 0 0 1-266.522-88.84c-39.072-12.89-78.06-26.135-117.144-38.98-4.713-1.335-9.273 1.032-13.839 2.453-144.507 48.104-288.95 96.378-433.449 144.467-54.18 18.08-108.385 36.116-162.566 54.195-23.808 7.923-47.625 15.882-71.434 23.805-5.676 1.96-11.407 3.738-17.06 5.726-6.564 1.113-6.72 8.744-7.34 13.268C740.08 921.349 682.77 1265.54 625.383 1609.692 566.339 1961.663 508.308 2314.864 449 2666.5m597-1338c1.696 1.976 3.786 3.525 5.5 5.5 29.693-16.875 59.61-33.985 86.948-54.675 14.245-10.409 28.173-21.26 41.553-32.768 6.8-5.843 13.504-11.789 20.035-17.919 3.43-2.755 6.703-5.638 9.697-8.87 3.055-2.743 6.278-7.271 10.267-7.768-1.777 60.604-2.063 121.825-14.866 181.402-3.185 13.78-7.665 27.376-14.86 39.612-5.606 8.99-15.63 15.731-26.427 15.95-34.7.26-69.283-3.109-103.847-5.964.17 3.116-.616 9.08 2.819 9.843 3.34 1.711 7.127 2.2 10.6 3.528 12.678 4.613 24.736 10.759 35.44 19.02 8.149 5.733 15.703 12.569 20.495 21.445 13.93 27.508 14.227 64.744 14.646 92.164 27.363-.591 54.828-3.274 81.126-11.217 17.88-5.835 35.308-14.706 48.744-28.153 39.475-43.194 53.33-102.453 62.724-158.255 7.86-55.842 10.74-112.42 8.894-168.81-2.64-81.443-10.816-164.304-39.259-241.295-7.007-17.99-14.55-35.847-23.959-52.704-5.73-12.564-14.098-23.608-21.046-35.43-3.038-4.56 6.17-9.804 7.97-12.89C1293.89 852.121 1321.229 825.24 1342 794c11.753-.585 30.298 3.249 36-13-24.33-11.782-47.285-26.924-71.272-39.494-23.459-13.942-48.094-26.104-71.228-40.506-11.276 38.123-27.92 74.552-43.5 111-5.913-.07-10.761-6.397-15.16-9.482-32.887-25.875-68.512-48.76-106.424-66.518-1.748 1.901-3.62 3.654-5.416 5.5 21.892 22.033 42.826 45.256 60.58 70.807 12.297 18.776 26.344 37.512 34.057 58.785-.054 7.442-7.965 15.24-10.807 23.238-14.722 25.513-29.547 51.065-46.448 75.206-8.215 12.567-17.092 24.646-26.357 36.438-4.603 6.03-9.306 11.984-14.177 17.797-3.786 5.647-10.463 11.056-12.848 16.893 2.349 1.67 3.982 4.719 6 6.336 41.005-22.644 80.726-47.94 117.082-77.657a555 555 0 0 0 10.31-8.468c2.713-2.109 7.916-7.645 10.282-3.656 1.987 7.256 6.077 17.09 5.569 25.506-10.066 63.988-29.094 126.733-55.122 185.993-12.944 28.905-27.017 57.456-43.69 84.407-16.167 26.183-33.918 51.626-53.431 75.375m7 761.5c10.73-1.824 20.316-8.265 30.71-11.288 33.793-13.61 66.015-30.623 98.528-46.882 15.444-8.543 30.958-16.94 46.218-25.818 7.558-4.553 15.122-9.127 22.52-13.913 3.888-2.377 7.742-4.794 11.614-7.173 3.582-2.037 7.592-5.368 11.41-5.926 1.565 7.485 5.538 15.91 6 23h137v135c-97.929.76-196.151-.926-294 .5 3.344 6.995 3.444 15.301 6.953 22.245 6.701 2.525 13.365.403 20.416 1.255H1417v301h-341c.422 8.356 5.769 17.308 6 25h804.6c16.096-.453 37.177 1.745 44.4-13.5-41.593-39.276-89.779-70.812-133.5-107.5-13.863 17.206-26.88 35.11-40.568 52.457-9.87 13.393-20.384 26.285-30.434 39.522-3.99 5.786-13.262 3.58-19.281 4.021H1556v-301h292.2c9.036-.075 18.512.935 27.048-2.764 3.399-1.381 6.16-3.872 8.273-6.798 2.057-3.816-1.006-6.194-3.608-8.078-18.903-16.601-38.63-32.207-58.203-47.997-19.6-14.702-37.79-31.898-58.21-45.363-21.627 28.948-44.62 57.68-65.5 87h-142v-135h85.8c14.408-.059 28.83.072 43.23-.04 11.378-.778 27.016 1.4 33.97-13.46-35.834-31.398-73.917-60.281-111.5-89.5-16.907 21.724-34.035 43.314-51.14 64.895-3.246 3.736-6.356 8.927-10.002 11.708-5.234 2.882-11.086.377-16.756 1.397H1278v-3c26.33-15.453 50.797-34.856 75.294-53.171 37.37-28.432 72.03-60.185 105.417-93.076 15.55-17.766 32.879-33.98 47.05-52.965 7.566-8.885 14.357-18.335 21.214-27.762 3.573-4.664 6.702-9.657 10.092-14.449 3.789-3.859 5.753-11.858 10.933-12.577 22.879 74.098 65.273 140.9 118.394 196.894 52.867 54.934 116.551 97.985 182.106 136.106 5.904-30.03 18.276-58.967 36.505-83.665 18.039-24.716 42.85-45.574 72.995-53.335-.088-4.202.06-8.399 1-12.5-3.322-2.159-9.024-2.248-13.44-3.691-72.714-15.655-144.565-36.122-213.278-64.755-33.171-14.206-64.994-31.533-94.896-51.73-15.278-10.026-28.812-22.245-42.568-34.147-6.769-5.807-13.272-13.938-18.914-19.784-3.076-3.306-5.879-6.873-8.819-10.288-2.53-3.376-6.751-6.988-7.085-11.105 9.839-.589 19.694-2.57 29.232-4.948 8.522-2.185 17.574-6.468 20.768-15.427-2.874-2.57-8.387-2.803-12.532-4.273-62.5-16.445-124.985-32.878-187.468-49.352-12.103 47.795-35.62 91.782-61.056 133.621-38.382 61.976-84.977 118.65-134.562 171.894-49.754 53.213-104.588 101.821-164.382 143.485.335 2.633 2.35 4.523 3 7m155 111.21c14.168 38.273 22.192 79.032 27.156 119.542 1.746 16.203 2.633 32.625 2.5 48.905-.008 6.907-.974 15.108-.19 21.4 14.223 18.69 41.809 32.801 63.436 31.902 37.137-.762 68.877-34.153 70.566-70.763 1.406-18.703-4.583-37.228-13.155-53.514-8.677-15.828-21.222-29.147-33.937-41.75-14.986-13.705-32.092-24.593-49.926-34.131-18.75-9.872-38.945-16.79-58.526-24.53l-.424-.271c-2.123 1.57-5.177 2.381-7.5 3zM1336 853.5c2.641 8.022 4.742 16.348 7 24.5h118v136c37.915.746 76.556-2.05 112.273-16.111 4.064-1.654 8.372-3.321 11.506-6.537 2.88-3.213 2.092-7.854 2.221-11.873V878h90c.32 42.968-.39 85.978.21 128.923-.019 5.442 9.016 3.84 12.306 3.978 34.686-.922 70.17-4.242 102.503-17.976 3.768-1.845 8.59-3.827 11.063-6.943 3.605-6.76.87-17.82 1.918-26.497V878h118.8c9.91-.228 25.024 1.038 31.123-10.655 1.882-4.106-2.853-7.598-5.06-10.545-19.732-21.645-38.584-44.083-59.338-64.775L1866.5 768c-8.76 13.818-17.153 28.034-25.822 41.944-8.112 14.536-18.464 28.087-25.678 43.056h-10V748c13.08-3.128 28.928-5.897 34-23.5-5.538-2.385-14.185-1.231-21.141-2.571-46.964-3.742-93.883-8.313-140.859-11.929v143h-90V748c12.76-2.674 30.615-7.448 34-24-53.177-5.515-106.73-9.082-160-14v143h-125zm50 731.5c28.786 1.012 58.015-1.707 84.713-13.47 12.125-4.99 24.126-10.913 34.326-19.233 7.164-4.967 7.846-11.692 6.961-19.187V1511h257v67c38.346 1.354 76.644-5.732 111.703-21.506 7.858-4.34 19.6-7.676 19.281-17.112.045-30.995-.008-61.964.016-92.954v-289.642c.625-16.067-.766-32.292.422-48.306.875-3.08 6.432-3.352 8.736-4.71 9.982-3.326 19.398-8.751 26.842-16.27-19.104-15.999-39.496-30.454-58.945-46.035a4086 4086 0 0 0-29.832-23.013c-4.79-3.883-9.742-7.542-14.591-11.332-4.525-3.03-10.033-8.529-14.304-10.12-13.074 13.164-24.681 27.646-37.653 40.894-5.368 6.074-10.838 11.997-16.205 18.055-5.69 7.141-15.373 4.63-22.722 5.051h-192.38c-15.126.445-30.622 1.377-44.514-5.464-39.761-14.968-78.917-32.284-118.854-46.536zm126-322h66v-178h-66zm0 224h66v-200h-66zm84 935c2.797.821 5.787 3.35 8.5 5 38.352-26.648 74.942-56.051 109.472-87.494 17.293-16.587 34.664-32.985 51.26-50.239 4.187-4.293 8.56-8.411 12.664-12.783 2.986-4.394 6.129-7.034 11.264-6.492 12.548-.353 29.07-4.843 31.84-17.992-57.344-18.674-113.614-41.33-171-60-15.556 77.148-34.034 153.905-54 230m103-1159h70v-178h-70zm0 224h70v-200h-70z" style="fill:#feddaa;fill-rule:evenodd;stroke:none"/><path d="M1044 1328.438c2.028 1.961 5.033 5.55 7.392 6.063 2.624-.085 5.405-3.08 8.417-3.917 57.782-31.815 112.161-70.638 158.691-117.584-.624 60.245-2.249 121.783-14.762 181.086-3.364 13.62-7.725 27.302-15.337 39.214-6.015 8.916-16.45 15.037-27.351 14.695-34.125.467-68.044-3.917-102.05-5.995.238 4.563-1.087 10.794 3.617 12.256 4.301 1.641 8.91 2.447 13.098 4.428 12.127 4.608 23.563 10.99 33.797 18.97 7.776 5.78 15.23 12.472 19.493 21.397 13.014 28.278 13.544 60.47 13.995 90.949 27.718-.336 55.527-3.141 82.205-10.94 17.946-5.62 35.33-14.388 48.897-27.662 40.08-43.144 53.983-102.945 63.492-159.023 12.82-88.537 11.487-178.747 2.326-267.53-8.74-82.515-31.31-165.334-78.92-234.345 14.97-15.024 29.256-30.681 42.973-46.852 7.324-7.685 13.722-16.147 20.644-24.167 4.878-7.543 13.936-15.771 18.383-24.481 12.307-.098 29.197 2.916 37-13.336-23.573-14.408-48.419-27.148-72.272-41.158-12.447-6.907-24.782-14.007-37.227-20.901-12.293-5.966-23.725-14.876-36.501-19.605-9.974 38.484-28.132 74.374-43 111-4.955-1.336-9.473-7.196-14.37-10.483-32.608-26.293-68.931-47.576-106.13-66.517l-7.5 7.5c21.92 21.967 42.836 45.131 60.707 70.57 12.937 18.306 25.44 37.289 34.432 57.893 1.449 4.218-2.486 8.589-4.122 12.038-29.738 56.27-65.718 109.11-107.017 157.499 2.525 3.147 4.737 6.53 7.5 9.5 47.934-26.873 94.449-56.75 136-93 4.626 6.58 4.696 18.535 6.974 24.425-9.898 64.139-29.129 127.377-55.144 186.85-25.02 57.877-58.125 112.643-98.33 161.162m4 754.062c.88 3.355 3.942 7.188 5.5 9.5 38.805-14.996 77.057-31.67 113.926-50.968 35.785-18.913 71.396-38.587 105.074-61.032 2.466 6.476 5.43 15.437 6.5 23h137v133h-294c1.626 7.701 3.976 15.393 6.189 22.935 1.02 4.533 9.204 2.42 12.192 3.065H1416v299h-342c1.626 8.86 6.127 18.764 7 27h808.8c14.138-.306 35.597 1.945 43.2-15.5-43.128-38.473-90.892-71.78-135.5-108.5-14.268 16.848-26.804 35.131-40.671 52.294-9.886 13.352-20.385 26.227-30.38 39.483-3.768 6.815-11.869 5.235-18.434 5.223H1557v-299h297.6c11.336.002 26.637.746 32.4-14.5-39.918-34.987-82.496-66.857-123.5-100.5-21.135 30.168-45.64 58.759-66.5 89h-140v-133h73.8c18.614-.082 37.21.1 55.823-.054 10.763-1.271 27.327 1.587 32.543-12.94 1.299-4.336-5.577-7.428-7.78-10.103-23.477-20.552-48.584-39.078-72.78-58.734-10.177-8.294-20.916-15.902-31.106-24.169-17.203 21.208-33.55 43.115-50.885 64.218-3.158 4.083-6.157 8.337-9.68 12.118-3.714 3.786-10.59 2.359-15.338 2.664H1280.5l-1.5-.5c52.08-32.735 99.799-72.396 145.64-113.221 45.71-42.342 88.1-88.67 121.86-141.279 14.278 36.206 27.305 73.704 49.129 106.422 30.612 49.604 69.445 94.411 114.092 131.833 43.107 36.7 90.914 67.45 139.779 95.745 5.37-30.28 18.21-59.355 36.21-84.283 18.073-24.88 42.992-45.903 73.29-53.717-.774-5.073 2.871-14.783-2.854-15.978-5.617-1.492-11.342-2.514-16.975-3.885-70.901-15.81-141.217-35.468-208.094-64.103-64.908-27.609-126.561-67.101-170.077-123.534 18.86-3.57 45.088-4.043 51-23.5-67.77-16.995-135.127-36.51-203-53-12.103 47.795-35.62 91.782-61.056 133.621-38.447 62.139-85.208 118.87-134.856 172.267-50.351 52.444-104.33 102.94-165.088 143.112zm187 309c16.443 17.053 38.224 32.74 63.102 32.5 24.42.802 47.833-12.554 61.154-32.693 23.502-34.55 13.482-82.015-12.453-112.063-28.376-36.619-69.67-59.927-112.55-75.327-4.517-1.66-8.985-3.442-13.566-4.896-5.312-2.717-9.146-.36-13.687.979 3.755 15.167 10.414 29.7 13.27 45.168 10.8 47.518 19.914 97.643 14.73 146.332M1342 879h118v136c38.57.778 77.929-1.722 114.273-16.111 4.064-1.654 8.372-3.321 11.506-6.537 2.983-3.385 2.043-8.281 2.221-12.47V879h88c.472 43.13-.576 86.346.31 129.447.173 5.178 9.804 2.97 12.711 3.494 34.735-.767 70.154-4.053 102.65-17.421 3.932-1.859 8.855-3.896 11.734-6.739 3.192-3.5 2.486-8.668 2.595-12.965V879h120c10.037-.007 25.485.442 30.69-12.086 1.67-3.791-2.227-6.9-4.505-9.482-19.614-21.978-38.732-44.446-59.555-65.302L1866.5 766c-9.666 13.349-17.144 28.317-26.238 42.062-8.401 14.769-18.788 28.716-26.262 43.938h-8V749c13.246-3.217 31.417-6.404 34-26-26.972-3.207-54.29-4.548-81.34-7.245-27.566-1.955-55.068-5.35-82.66-6.755v143h-88V749c12.91-2.607 32.716-8.041 34-26-53.885-5.231-108.02-9.59-162-14v143h-125c1.032 9.249 5.44 17.852 7 27m43 707c29.1 1.033 58.659-1.291 85.734-13.08 12.292-5.044 24.517-10.894 34.916-19.281 2.436-2.196 5.461-4.88 6.534-7.77 2.007-11.1-.104-22.672.816-33.869h255v67c20.129-.085 40.5-.235 60.244-4.592 13.803-3.326 27.707-6.708 40.952-11.89 9.656-3.891 19.717-7.478 28.187-13.718 5.7-4.917 2.74-16.142 3.617-24.014v-394.585c.098-5.993-.124-11.986.08-17.974.01-4.943 4.204-5.966 8.167-7.157 5.897-1.77 11.527-4.323 16.663-7.707 4.076-3.43 10.852-6.589 12.09-11.363-40.801-28.34-78.793-62.409-119.5-91-13.3 12.761-24.62 27.31-37.468 40.477-5.066 5.93-11.401 12.585-16.162 17.916-5.612 7.99-13.527 7.177-21.724 6.607h-192.978c-8.2-.01-16.384.012-24.581-.006-12.996-.668-24.466-8.621-36.711-12.227-34.69-13.343-69.026-27.943-103.876-40.767zm128-324h64v-176h-64zm0 224h64v-198h-64zm81 935.625c3.718 2.3 8.492 6.895 12.474 5.232 4.677-2.409 9.496-6.634 13.614-9.155 35.588-25.75 69.842-53.518 101.722-83.738 8.74-7.235 16.15-15.96 24.423-23.697 11.512-12.227 24.234-23.317 35.364-35.966 3.093-3.953 7.535-3.182 12.03-3.447 12.21-.604 24.676-6.137 29.373-17.932-4.84-4.604-14.739-5.075-21.534-8.744-50.533-18.328-101.435-35.98-151.966-54.178-17.53 77.1-32.89 156.063-55.5 231.625M1700 1262h68v-176h-68zm0 224h68v-198h-68z" style="fill:#000;fill-rule:evenodd;stroke:none"/></svg>