<svg xmlns="http://www.w3.org/2000/svg" width="3000" height="3000"><path d="M448 2669h2104c-108.019-653.996-218.137-1307.761-326.618-1961.691-6.813-40.83-13.621-81.671-20.41-122.502-.9-5.185-1.732-10.375-2.627-15.558-.693-5.948-7.25-6.546-11.566-8.162a2264805 2264805 0 0 1-451.953-150.644c-56.522-18.824-113.032-37.715-169.56-56.514-12.477-4.17-24.972-8.31-37.44-12.486-6.015-1.98-11.998-4.026-18-6-5.943-1.873-12.256-5.247-18.565-3.023-92.812 30.91-185.585 61.892-278.396 92.78-138.737 46.826-278.12 92.047-416.698 139.266-3.665 1.962-2.298 9.57-3.876 12.727-22.4 134.514-44.811 269.006-67.243 403.502C635.746 1543.503 540.855 2106.166 448 2669m598-1340.5c1.31 1.05 3.443 3.782 5.443 4.003 2.523-.278 4.81-1.75 7.06-2.814 29.004-15.775 56.873-33.6 83.572-53.001 13.408-10.194 26.887-20.309 39.491-31.502 6.813-5.33 12.9-11.456 19.225-17.322 3.263-2.657 6.456-5.362 9.311-8.466 2.929-2.675 6.044-6.926 9.898-7.398-1.927 60.49-1.677 121.764-14.824 181.213-3.274 13.978-7.717 27.864-15.184 40.225-5.718 8.995-15.888 15.546-26.742 15.54-34.47-.093-68.923-2.807-103.25-5.978.17 3.116-.616 9.08 2.819 9.843 3.325 1.706 7.097 2.191 10.558 3.518 12.545 4.705 24.737 10.576 35.33 18.904 7.986 5.638 15.49 12.2 20.26 20.868 7.602 13.792 10.33 29.642 12.551 45.038 1.83 15.878 2.634 31.851 2.482 47.829 27.354-.792 54.856-3.31 81.175-11.23 17.759-5.987 35.4-14.555 48.695-28.14 39.731-43.474 53.574-103.18 62.9-159.361 7.612-55.78 10.61-112.168 8.672-168.464-2.81-80.825-10.6-163.259-38.986-239.65-6.71-18.374-14.788-36.204-24.085-53.395-5.759-12.626-14.159-23.735-21.147-35.624-3.038-4.56 6.17-9.804 7.97-12.89 24.703-28.116 52.028-55.015 72.806-86.246 11.753-.585 30.298 3.249 36-13-48.708-23.968-94.156-55.265-143-79-10.827 37.932-27.79 73.807-43 110-5.913-.07-10.761-6.397-15.16-9.482-33.162-25.475-68.372-48.939-106.424-66.518-1.748 1.901-3.62 3.654-5.416 5.5 21.906 21.823 42.463 45.142 60.395 70.377 12.379 18.784 26.058 37.552 34.18 58.699.636 4.703-2.425 8.738-4.56 12.584-15.45 27.615-31.352 55.016-48.982 81.292-8.943 13.375-18.5 26.313-28.194 39.123-4.975 6.42-9.577 13.165-15.058 19.175-4.112 5.658-11.594 12.464-13.781 17.914 2.349 1.67 3.982 4.719 6 6.336 40.966-22.61 80.621-47.863 116.924-77.571 3.393-2.975 7.012-5.667 10.468-8.553 2.71-2.108 7.918-7.647 10.282-3.657 2.3 7.584 6.117 18.496 5.66 25.164-10.14 63.924-28.974 126.684-55.003 185.898-13.009 29.058-27.15 57.755-43.9 84.844-16.024 26.288-33.768 51.721-53.431 75.375m7 761.5c10.536-1.804 19.908-8.21 30.17-11.064 33.83-13.93 66.471-30.41 98.95-47.126 15.306-8.527 30.908-16.58 45.887-25.708 7.79-4.556 15.501-9.267 23.07-14.166 3.666-2.354 7.587-4.276 11.185-6.742 3.56-2.106 8.206-5.846 11.738-6.194 1.718 7.458 5.514 15.902 6 23h137v135c-97.929.76-196.151-.926-294 .5 4.317 6.787 3.08 17.935 7.85 22.867 26.922 1.806 54.224-.329 81.222.633H1417v301h-341c.422 8.356 5.769 17.308 6 25h804c16.561-.468 37.203 1.466 45-13.5-41.593-39.276-89.779-70.812-133.5-107.5-13.924 17.431-27.04 35.527-40.908 53.005-10.129 13.251-20.24 26.535-30.602 39.59-4.207 5.315-13.506 2.626-19.346 3.405H1556v-301h291.6c9.054-.131 18.57.947 27.175-2.557 3.288-1.397 6.383-3.563 8.367-6.599 3.07-3.763.15-5.978-2.858-8.138-18.873-16.708-38.704-32.273-58.29-48.115-19.703-14.785-37.952-32.061-58.494-45.591-11.905 15.133-23.11 30.818-34.972 45.977-8.812 11.507-17.652 23.01-26.264 34.657-3.314 6.473-8.684 7.212-15.027 6.366H1556v-135h85.8c14.458-.1 28.902.123 43.345-.07 11.438-.974 26.618 1.07 33.855-13.43-35.996-31.217-73.758-60.461-111.5-89.5-16.696 21.749-34.155 43.115-50.946 64.827-3.321 3.624-6.39 8.722-9.898 11.592-3.854 3.156-12.11.533-16.467 1.581H1279c.195-4.046 5.171-6.177 7.93-8.295 50.26-32.944 97.076-71.175 141.44-111.585 22.371-21.236 43.87-43.208 64.28-66.358 9.488-11.678 19.33-23.12 28.126-35.329 4.396-6.245 9.252-12.143 13.333-18.607 2.053-3.144 4.225-6.208 6.234-9.367 2.104-2.94 4.276-7.192 7.657-7.459 12.49 36.38 27.467 72.276 47.763 105.117 30.436 49.688 69.244 94.372 113.628 132.008 43.026 36.555 90.49 67.473 139.109 95.875 5.897-30.026 18.269-58.963 36.505-83.665 17.91-24.897 42.704-45.733 72.995-53.335.076-4.17-.268-8.467 1-12.5-37.571-10.023-76.906-17.083-114.195-28.997-55.047-16.168-109.411-35.712-160.237-62.478-23.343-13.264-46.732-26.718-67.554-43.808-10.602-9.12-21.502-17.875-31.208-27.97-4.241-5.318-9.955-10.87-14.04-15.567-3.524-5.197-10.961-11.279-11.766-16.68 9.823-.359 19.442-2.91 28.983-5.013 8.462-2.212 17.687-6.697 21.017-15.362-65.463-20.233-133.736-34.078-199.5-53.625-13.369 47.457-35.406 91.883-61.524 133.557-38.367 62.083-85.034 118.801-134.689 172.071-49.688 53.215-104.47 101.815-164.287 143.372.335 2.633 2.35 4.523 3 7m155 111.25c14.427 38.825 22.377 80.223 27.443 121.302 1.688 16.584 2.748 33.278 2.14 49.945.286 6.655-1.888 16.655 1.781 21.228 16.544 17.851 40.848 31.169 65.773 28.968 37.176-3.17 67.017-38.234 66.54-75.148-.771-18.686-5.72-37.017-15.675-52.99-9.842-14.719-23.617-30.779-35.991-41.338-15.617-13.442-33.186-24.613-51.91-33.186a272 272 0 0 0-28.674-12.862c-8.721-2.945-21.302-9.391-29.1-6.784-.725.359-1.606.515-2.327.615zM1336 853.5c2.641 8.022 4.742 16.348 7 24.5h118v136c37.768.731 76.224-2.033 111.833-15.937 4.086-1.634 8.351-3.278 11.605-6.354 3.105-3.014 2.542-7.625 2.562-11.631V878h91v133c37.736-.184 76.386-2.48 111.768-17.141 4.08-1.851 9.218-3.91 12.26-6.763 2.898-3.177 2.726-7.86 2.95-11.905.063-30.661-.012-61.316.022-91.976V878h118.8c9.91-.228 25.024 1.038 31.123-10.655 1.882-4.106-2.853-7.598-5.06-10.545-19.734-21.655-38.582-44.073-59.338-64.775L1866.5 768c-9.732 15.07-18.552 30.89-28.387 45.933-4.617 7.726-9.506 15.302-14.033 23.082-2.393 3.875-4.782 7.74-7.182 11.595-2.693 4.755-7.301 4.642-11.898 4.39V748c7.104-1.603 14.3-3.448 20.753-6.922 7.772-3.481 10.217-9.961 13.247-16.578-6.484-2.063-13.704-1.544-20.424-2.51-46.857-3.968-93.711-8.166-140.576-11.99v143h-91V748c12.574-3.564 29.758-6 34-24-53.2-5.22-106.738-9.059-160-14v143h-125zm50 731.5c28.755.965 58.018-1.657 84.67-13.484 12.041-5.21 24.273-10.645 34.37-19.219 7.163-4.967 7.845-11.692 6.96-19.187V1511h257v67c38.385.755 77.3-5.168 112.208-21.963 7.667-4.288 19.223-7.307 18.776-16.655.045-30.995-.008-61.964.016-92.954v-290.841c1.017-15.41-1.262-33.95.734-47.94 5.798-4.056 13.003-4.408 19.143-8.413 5.848-3.203 11.471-6.912 16.123-11.734-19.14-15.668-39.051-30.479-58.575-45.66-19.871-14.477-38.576-31.182-58.925-44.84-13.25 12.813-24.453 27.462-37.446 40.49-5.437 5.934-10.63 12.044-16.06 17.97-5.62 7.396-15.104 5.478-22.623 5.54h-192.208c-15.42.383-31.16 1.438-45.304-5.464-39.758-14.962-78.914-32.284-118.859-46.536zm126-322h66c2.09-14.795.244-29.916 1-44.78v-67.167c-.818-21.335 1.15-46.556-1-66.053h-66zm0 224h67v-200h-67zm84 935c2.797.821 5.787 3.35 8.5 5 37.777-26.712 74.564-55.222 108.55-86.711 17.363-16.359 34.576-32.871 51.183-50.022 4.155-4.307 8.606-8.37 12.582-12.835 5.212-9.304 17.494-7.494 24.936-9.148 8.03-2.213 18.208-8.617 19.249-16.284-57.324-18.731-113.645-41.262-171-60-15.544 77.122-34.052 153.956-54 230m103-1159h70v-178h-70zm0 224h70v-200h-70z" style="fill:#fda;fill-rule:evenodd;stroke:none"/><path d="M338 2761.5c387.06 1.426 774.925-.26 1162.15.5 387.224-.76 774.71.926 1161.85-.5-77.265-456.459-152.125-914.01-228.874-1370.691-28.417-170.851-56.988-341.657-85.4-512.497-12.491-74.824-24.942-149.684-37.431-224.508-5.828-35.176-11.741-70.32-17.569-105.492-3.54-17.097-4.968-34.714-9.072-51.664-1.3-3.941-8.915-3.966-11.797-5.85-133.175-44.44-266.372-88.79-399.558-133.193-116.482-38.867-233.005-77.647-349.48-116.505-6.56-1.974-12.94-4.527-19.527-6.382-6.558-1.31-12.878 2.396-19.017 4.029-100.339 33.452-200.674 66.889-301.01 100.324-87.802 29.33-175.659 58.504-263.446 87.829-38.52 12.817-77.015 25.657-115.52 38.495-18.005 5.974-35.995 12.026-54 18-8.822 2.95-17.652 5.903-26.471 8.83-4.346 1.012-8.371 2.451-8.57 8.208-90.761 544.76-181.624 1089.514-272.367 1634.27-35.423 208.458-69 418.87-104.891 626.797m111-95v1.5h2102v-1.5c-63.81-378.768-126.215-757.87-189.705-1136.696-47.349-283.998-94.654-568.016-142-852-4.398-26.67-8.911-53.338-13.325-80.003-1.118-6.656-2.232-13.342-3.35-19.985-.571-3.586-1.119-7.183-2.096-10.662-1.288-2.958-6.82-3.128-9.193-4.54-101.51-33.828-203.017-67.663-304.512-101.514a746151 746151 0 0 1-266.522-88.84c-39.072-12.89-78.06-26.135-117.144-38.98-4.713-1.335-9.273 1.032-13.839 2.453-144.507 48.104-288.95 96.378-433.449 144.467-54.18 18.08-108.385 36.116-162.566 54.195-23.808 7.923-47.625 15.882-71.434 23.805-5.676 1.96-11.407 3.738-17.06 5.726-6.564 1.113-6.72 8.744-7.34 13.268C740.08 921.349 682.77 1265.54 625.383 1609.692 566.339 1961.663 508.308 2314.864 449 2666.5" style="fill:gray;fill-rule:evenodd;stroke:none"/><path d="M1345 1272h2v-37h-1.5c-.4.393-.863.807-1.5 1 .041 12.006 1.292 23.995 1 36m244-419.5c-1.731-3.188-.54-8.38-1-12.478V749c1.215-.085 2.33-.724 3-1.5-1.899-1.05-4.546.07-6 .5v95.232c.058 3.437-.425 10.043 4 9.268m-2.5 139.5c2.358-3.213 1.07-8.937 1.5-13.33v-76.072c1.007-7.928-1.34-17.693 1-24.098a6.6 6.6 0 0 0-2.5-.5c-.4.393-.863.807-1.5 1v85.245c.987 9.124-1.487 20.482 1.5 27.755" style="fill:#100e0b;fill-rule:evenodd;stroke:none"/><path d="M1804 854c3.66-.298 8.782.69 11-2-.02-.668-.123-1.32-.5-2-2.287 2.095-5.524 2.014-8.5 2v-91.8c.571-3.626-1.122-10.015 2-11.2v-2h-2.5c-.4.393-.863.807-1.5 1z" style="fill:#7f6e55;fill-rule:evenodd;stroke:none"/><path d="M1050.344 1335c62.273-30.791 118.47-73.751 168.156-122-.742 59.952-1.894 121.317-14.582 180.325-3.316 13.747-7.711 27.472-15.232 39.565-5.87 8.937-16.163 15.277-27.036 15.099-34.31.27-68.468-3.544-102.65-5.989.238 4.563-1.087 10.794 3.617 12.256 4.346 1.652 8.98 2.456 13.207 4.468 12.106 4.355 23.296 11.145 33.537 18.813 7.766 5.551 14.918 12.195 19.282 20.824 7.296 13.632 9.68 29.255 11.947 44.334 1.727 15.703 2.604 31.506 2.41 47.305 27.338-.427 54.75-3.088 81.118-10.599 17.898-5.658 35.696-13.891 49.252-27.271 40.63-43.094 54.658-103.35 64.2-159.704 5.413-44.227 11.176-88.992 8.223-133.661-.492-8.508-1.1-17.206.914-25.347-1.295-61.457-5.95-123.1-18.918-183.33-12.286-56.61-34.3-111.578-66.789-159.588 14.97-15.024 29.256-30.681 42.973-46.852 7.279-7.644 13.72-16.037 20.422-24.175 5.771-8.316 13.76-15.64 18.605-24.473 12.307-.098 29.197 2.916 37-13.336-23.755-14.682-49.028-27.225-73.03-41.576-12.198-6.47-23.916-13.762-36.122-20.214-12.412-6.24-23.847-14.883-36.848-19.874-10.024 38.468-28.097 74.397-43 111-4.955-1.336-9.473-7.196-14.37-10.483-32.82-26.015-68.803-47.742-106.13-66.517l-7.5 7.5c21.88 21.807 42.538 44.955 60.483 70.147 12.971 18.478 25.582 37.616 34.653 58.353 1.434 4.207-2.427 8.738-4.121 12.16-29.904 56.142-65.632 109.05-107.015 157.34 2.525 3.147 4.737 6.53 7.5 9.5 47.989-26.82 94.183-57.101 136-93 2.257 2.952 2.726 8.135 4.294 12.193 5.092 17.13-1.818 34.71-4.488 51.776-12.914 58.098-32.12 114.626-57.505 168.437-12.793 26.55-26.818 52.462-42.833 77.202-7.446 12.246-16.076 23.734-24.28 35.467-4.253 5.89-8.755 11.583-13.325 17.215-2.048 2.797-4.392 5.428-6.131 8.437-2.876 2.701 3.287 6.183 4.112 8.273M1048 2083.344c1.62 2.976 3.356 5.969 5.5 8.656 38.797-14.985 77.063-31.681 113.926-50.968 35.735-19.026 71.431-38.48 105.074-61.032 2.89 7.086 5.455 16.051 6.5 23h137v133h-294c1.53 7.814 4.104 15.48 6.287 23.128 1.031 4.387 9.246 2.17 12.096 2.872H1416v299h-342c1.626 8.86 6.127 18.764 7 27h796.8c11.103.095 22.243.202 33.292-1.077 7.516-1.23 17.945-2.658 20.342-13.325-2.347-5.994-10.85-10.954-15.294-15.482-38.157-33.11-79.906-61.778-118.64-94.116-14.212 17.136-26.94 35.515-40.942 52.825-10.315 13.134-20.259 26.522-30.625 39.61-4.216 6.395-12.45 4.21-18.493 4.565H1557v-299h297.6c11.336.002 26.637.746 32.4-14.5-39.916-34.973-82.513-66.858-123.5-100.5-10.899 15.827-23.382 30.787-34.719 46.343-8.923 11.648-17.85 23.284-26.585 35.064-1.49 2.258-3.305 4.283-5.083 6.283-5.58 2.654-11.5.403-17.45 1.31H1557v-133h73.8c18.46-.106 36.9.13 55.345-.07 12.144-.634 28.659-.105 32.838-12.628 2.072-4.173-5.178-7.606-7.206-9.995-23.9-20.464-49.032-39.434-73.388-59.332-10.267-8.022-20.882-15.644-30.889-23.975-16.96 21.514-34.031 42.976-50.908 64.556-3.378 3.863-6.239 8.188-9.776 11.906-3.883 3.756-10.98 2.13-15.829 2.538-83.572-.76-167.534.926-250.987-.5 50.872-34.404 99.96-71.706 145.033-113.522 45.512-42.357 87.82-88.421 121.467-140.978 13.808 36.078 27.42 72.859 48.573 105.585 30.714 49.864 69.725 94.883 114.511 132.553 43.316 36.541 90.91 67.673 139.916 95.862 5.357-30.293 18.183-59.349 36.21-84.283 17.941-25.069 42.837-46.085 73.29-53.717-.017-3.106-.014-6.243.303-9.33-.01-1.906.472-4.755-.746-5.906-6.303-1.766-13.277-2.928-19.698-4.691-71.43-15.894-142.258-35.598-209.537-64.728-64.253-27.626-125.356-66.628-168.322-122.845 18.889-3.614 44.269-4.177 51-23-33.245-10.336-67.571-17.592-101.095-27.079-34.035-8.51-67.743-18.481-101.905-26.421-12.122 47.958-35.795 92.02-61.3 134.003-38.479 62.243-85.385 118.964-135.053 172.462-25.817 26.705-52.054 53.15-80.206 77.355-13.74 11.8-27.473 23.558-41.901 34.522-13.255 11.799-29.228 20.397-42.54 32.002M1207 2200c9.964 32.346 19.903 65.036 24.107 98.818 3.66 25.545 6.881 51.29 5.327 77.157.063 4.864-.734 10.655-.028 15.089 3.04 8.16 12.41 12.073 17.824 17.315 11.774 8.446 28.161 15.622 41.709 15.613 22.448 1.13 44.537-9.23 58.671-26.516 15.27-17.713 20.397-41.723 16.89-64.357-5.745-35.503-30.088-65.335-57.761-86.808-27.988-21.856-61.32-35.816-94.454-47.701-4.25-1.975-8.694.41-12.285 1.39m135-1321h118v136c38.254.846 77.239-1.697 113.348-15.74 4.027-1.69 8.41-3.126 11.598-6.272 2.653-2.512.579-7.692 1.057-11.747-.009-30.844.002-61.668-.003-92.51.097-3.02-.755-9.512 4.113-9.516 28.93-.613 57.945.111 86.887-.215v133c38.21-.079 77.414-2.187 113.283-16.964 4.139-1.794 9.202-3.921 12.406-6.596 3.065-2.994 3.103-7.625 3.277-11.651.098-31.376-.018-62.778.034-94.15V879h120c10.037-.007 25.485.442 30.69-12.086 1.67-3.791-2.227-6.9-4.505-9.482-19.583-22.024-38.763-44.4-59.555-65.302L1866.5 766c-10.73 14.62-18.476 31.323-28.915 46.176-4.76 7.826-9.562 15.622-14.29 23.455-2.239 3.897-4.775 7.585-7.03 11.464-1.25 1.722-2.633 4.562-4.292 5.36-2.292.501-4.623.653-6.973.545v-93c.15-3.79-.513-9.361 1.5-12 10.427.16 24.805-6.552 29.932-15.018 1.708-3.091 3.222-6.422 3.568-9.982-54.25-5.214-108.684-9.41-163-14v143h-61.8c-7.804-.07-15.634.085-23.432-.047-7.914.533-5.395-10.46-5.768-15.291V756.63c.156-2.376-.145-5.417.964-7.39 12.445-4.238 33.088-5.63 35.036-26.24-53.904-4.875-108.022-9.617-162-14v143h-125c1.032 9.249 5.44 17.852 7 27m43 707c29.258 1.003 58.992-1.304 86.167-13.267 12.045-5.233 24.317-10.572 34.483-19.094 2.436-2.196 5.461-4.88 6.534-7.77 2.007-11.1-.104-22.672.816-33.869h255v67c38.882 1.082 78.273-4.842 113.676-21.71 7.8-4.37 19.67-7.464 19.308-16.908.045-31.595-.008-63.163.016-94.753v-316.027c.216-6.16-.284-12.35.203-18.491.168-4.19 5.64-5.137 8.952-6.337 9.993-4.148 23.68-9.984 27.845-18.774-40.973-28.16-78.705-62.434-119.5-91-13.3 12.761-24.62 27.31-37.468 40.477-5.378 5.974-10.65 12.054-16.093 17.964-5.742 7.877-13.54 7.177-21.786 6.559h-217.556c-11.128-.056-24.386-8.444-36.721-12.233-34.75-13.216-68.97-28.066-103.876-40.767zm128-324h64c2.074-14.602.26-29.508 1-44.18v-66.567c-.802-21.076 1.136-45.993-1-65.253h-64zm0 224h65v-198h-65zm81 935.625c3.718 2.3 8.492 6.895 12.474 5.232 4.722-2.332 8.64-6.203 13.146-8.915 35.615-25.057 68.877-53.412 100.846-82.87 16.961-14.738 31.794-31.773 48.136-47.174 4.023-3.938 8.04-7.878 11.529-12.29 4.822-6.325 16.311-3.925 24.387-6.798 7.895-2.554 15.13-8.172 18.482-15.892-56.29-23.603-116.528-40.537-173.5-62.918-17.566 77.112-32.85 156.043-55.5 231.625M1700 1262h68v-176h-68zm0 224h68v-198h-68z" style="fill:#000;fill-rule:evenodd;stroke:none"/></svg>