<svg xmlns="http://www.w3.org/2000/svg" width="3000" height="3000"><path d="M449 2666.5v1.5h2102v-1.5c-63.81-378.768-126.215-757.87-189.705-1136.696-47.349-283.998-94.654-568.016-142-852-4.398-26.67-8.911-53.338-13.325-80.003-1.118-6.656-2.232-13.342-3.35-19.985-.571-3.586-1.119-7.183-2.096-10.662-1.288-2.958-6.82-3.128-9.193-4.54-101.51-33.828-203.017-67.663-304.512-101.514a746151 746151 0 0 1-266.522-88.84c-39.072-12.89-78.06-26.135-117.144-38.98-4.713-1.335-9.273 1.032-13.839 2.453-144.507 48.104-288.95 96.378-433.449 144.467-54.18 18.08-108.385 36.116-162.566 54.195-23.808 7.923-47.625 15.882-71.434 23.805-5.676 1.96-11.407 3.738-17.06 5.726-6.564 1.113-6.72 8.744-7.34 13.268C740.08 921.349 682.77 1265.54 625.383 1609.692 566.339 1961.663 508.308 2314.864 449 2666.5m597-1338c1.696 1.976 3.786 3.525 5.5 5.5 28.235-15.986 56.676-32.173 82.759-51.684 13.842-9.488 26.804-20.09 39.748-30.732 6.665-5.17 12.755-10.985 19.182-16.422 3.127-2.809 5.878-6.014 9.27-8.51 3.112-2.366 6.033-6.353 9.541-6.652-.572 59.374-1.488 119.422-13.067 177.869-2.993 13.047-7.905 28.279-14.117 38.919-11.287 22.754-39.283 17.478-57.877 16.755-22.316-.93-44.585-3.447-66.939-3.543v9c24.192 5.24 47.574 17.79 62.777 37.785 12.506 18.704 14.662 45.938 15.915 65.806.343 5.512.338 11.033.308 16.546-.137 2.54.076 5.503.51 7.768.795 2.302 4.846 1.59 6.745 1.846 36.572-1.52 75.438-6.28 106.284-27.965 21.166-16.466 33.998-40.942 45.311-64.592 16.585-39.356 23.867-81.89 29.617-123.955 5.031-44.271 7.076-88.973 6.25-133.53-.71-42.581-3.379-85.143-9.046-127.36-7.104-60.469-21.94-120.271-48.205-175.406-3.15-6.912-6.93-13.467-10.549-20.116-2.82-5.869-6.755-11.13-9.672-16.933-2.664-5.356 5.392-10.445 8.23-13.87 26.554-29.44 55.053-58.308 77.525-91.024 11.753-.585 30.298 3.249 36-13-24.33-11.782-47.285-26.924-71.272-39.494-23.459-13.942-48.094-26.104-71.228-40.506-7.362 22.012-14.768 44.311-24.135 65.626-3.127 8.137-6.834 16.01-10.266 24.002-3.318 6.918-6.026 14.122-9.56 20.93-2.081 4.223-5.17 3.409-7.793.655-18.413-16.124-37.407-31.609-58.082-44.801-9.642-6.463-19.606-12.368-29.6-18.248-5.225-3.21-10.666-5.98-16.059-8.865-2.525-1.875-5.403-2.91-8.354-3.795-2.559-.087-4.744 3.852-6.651 4.996 20.47 22.971 41.574 45.553 58.13 71.701 12.45 18.768 23.887 38.377 32.96 59.003 4.063 6.994-5.517 16.36-7.498 22.592-14.676 25.518-29.618 51.005-46.488 75.143-8.106 12.433-16.934 24.366-26.079 36.035-4.603 6.03-9.306 11.984-14.177 17.797-3.786 5.647-10.463 11.056-12.848 16.893 2.349 1.67 3.982 4.719 6 6.336 22.541-12.747 45.351-25.36 66.519-40.398 10.887-7.726 21.997-15.111 32.51-23.339 5.366-4.036 10.78-8 15.969-12.259 5.724-3.39 10.604-10.208 16.002-12.004 2.902 2.596 2.955 8.434 4.436 12.537 1.711 8.115 4.414 17.53 5.182 25.111-10.154 61.502-30.06 121.598-55.3 178.489-24.444 54.983-56.184 106.891-94.318 153.363m12 803c2.828 6.99 3.655 16.825 7.408 22.651 9.001 1.888 18.614.092 27.758.849H1425v367c20.947.203 42.282.975 62.738-4.619 27.292-7.209 54.845-18.599 75.878-37.834 3.59-7.275 1.973-16.043 2.384-23.925V2155h339c12.418-.047 32.35 2.325 39-13.668-43.744-37.973-91.14-71.414-136.5-107.332-13.295 17.539-27.334 34.82-40.891 52.223-10.155 13.29-20.583 26.352-30.955 39.467-3.981 6.83-12.938 5.442-18.61 5.31H1566v-228h244.8c13.545-.227 27.115.306 40.644-.237 11.101-.406 28.483-1.701 29.556-14.763-43.802-35.249-88.658-70.746-133.5-105-21.083 28.404-43.518 56.027-65.02 84.152-2.724 3.325-5.438 7.739-8.773 9.969-8.66 1.974-18.235.077-27.102.879H1566v-199c13.18-1.287 32.037-5.908 34-25-58.395-4.446-116.595-11.687-175-16v240h-137v-1.5c23.982-40.752 48.172-82.084 65-126.5 13.271.765 30.916-2.575 38-18.5-60.662-18.364-121.937-35.902-182.5-54.5-11.24 70.78-28.344 140.88-51.571 208.735-21.458 65.79-50.084 129.081-83.929 189.265 3.843 1.01 6.61 5.342 11.064 1.885 24.723-14.936 47.69-32.543 70.226-50.522 42.567-36.39 83.245-76.928 114.71-123.363h156v228h-367zm237-578.5h634.8c6.996-.206 15.46.654 21.671-1.343 5.976-1.484 10.224-6.082 12.034-11.768-9.462-16.663-22.607-31.231-34.642-46.083-12.369-14.69-24.722-29.36-37.363-43.806-4.402 8.503-8.986 17.095-13.413 25.614-3.995 8.277-10.09 17.534-13.087 25.386h-3v-216c.122-5.985-.154-11.994.097-17.966-.237-5.142 5.164-5.33 9.159-5.955 11.567-1.993 22.893-6.596 30.744-15.579-18.467-14.438-38.864-26.42-57.711-40.366-9.579-6.794-19.377-13.288-29-20-4.826-3.501-9.806-6.829-14.713-10.2-4.605-2.96-9.705-7.447-14.576-8.934-9.217 14.481-21.741 27.522-31.575 41.755-4.918 5.883-9.135 12.338-14.35 17.966-7.02 2.666-17.253.318-24.633 1.279h-212.025c-6.594-.376-14.554.631-20.503-.766-38.064-14.875-76.53-28.985-114.414-44.234-1.426 115.54.26 231.402-.5 347h-79c.718 8.264 4.936 15.816 6 24m36-599.75c3.002 7.808 4.967 16.58 7 24.75h221v82.8c-.093 5.974.76 12.673-2.757 17.95-3.432 4.86-9.812 4.111-14.572 4.25-37.993.531-75.773-4.58-113.671-6v10c14.45 2.942 28.992 5.801 42.804 11.149 19.523 7.028 39.091 24.236 46.973 41.517 10.244 20.657 8.6 44.57 13.723 66.334 26.786-3.56 54.632-5.908 80.594-14.535 18.277-5.926 36.303-14.753 49.773-28.838 21.06-22.983 24.2-56.387 25.84-85.916.826-32.897-.143-65.816.293-98.711h203.4c11.327-.259 22.66.342 33.977-.25 8.75-.098 18.938-3.381 23.623-13.25-37.686-31.502-76.09-62.195-115.5-91.5-17.366 22.895-35.936 45.083-53.567 67.818-4.063 5.822-8.56 13.51-17.292 12.182H1688v-55c11.364-1.247 28.209-6.014 30-21h-5v-4c7.61-.553 15.671-5.162 22.308-6.938 24.896-8.123 48.927-18.666 72.875-29.158 12.097-5.74 24.26-11.315 36.13-17.516 12.172-5.431 30.12-1.624 37.687-13.888-39.446-32.85-78.936-65.82-118.5-98.5-21.092 21.164-41.284 43.138-62.224 64.442-3.497 5.834-10.546 4.562-16.374 4.558H1400c1.527 7.933 5.705 16.713 7 24h288v2c-11.378 24.472-27.574 46.532-42 69-31.387-1.165-62.696-4.665-94-7v89h-228zM1477 1529h31v-277h-31zm115 0h38v-277h-38zm124 0h32c.785-92.293-.785-184.66 0-277h-32z" style="fill:#feddaa;fill-rule:evenodd;stroke:none"/><path d="M1044 1328.438c2.028 1.961 5.033 5.55 7.392 6.063 2.624-.085 5.405-3.08 8.417-3.917 54.754-29.683 105.655-66.557 150.691-109.584 1.496 30.169-1.26 60.767-2.108 90.971-.844 21.778-3.574 43.404-6.729 64.938-2.26 15.81-5.915 31.487-11.774 46.37-3.776 9.777-10.156 21.643-19.065 26.236-8.605 4.572-18.564 3.508-27.91 3.484-28.025-.244-55.887-3.925-83.914-3.999v11c24.399 5.24 47.88 17.99 63.072 38.225 12.483 18.998 14.392 46.506 15.682 66.569.31 5.5.25 11.025.246 16.52.148 2.394-.163 5.452.961 7.442 3.451 2.569 11.07-.063 14.975.65 36.105-1.872 75.424-7.962 104.454-31.537 19.502-17.793 32.143-41.675 42.488-65.58 15.504-39.233 22.741-81.155 28.064-122.83 4.505-43.6 6.89-87.506 5.785-131.372-1.91-117.412-16.67-240.256-78.727-342.754 16.174-15.556 30.834-32.572 45.873-49.177 13.756-16.784 29.482-32.868 41.127-51.156 12.307-.098 29.197 2.916 37-13.336-23.573-14.408-48.419-27.148-72.272-41.158-12.447-6.907-24.782-14.007-37.227-20.901-12.293-5.966-23.725-14.876-36.501-19.605-4.936 19.938-13.202 39.045-20.48 58.203-3.844 9.591-7.929 19.08-12.178 28.486-2.028 4.543-4.057 9.054-6.026 13.613-2.512 4.092-4.117 11.094-7.316 13.698-34.85-31.968-74.715-58.085-116.5-80a53 53 0 0 0-8.5 7.5c20.687 22.735 41.484 45.496 58.288 71.415 12.274 18.887 24.203 38.273 33.188 58.975 4.078 7.482-4.933 15.783-7.374 22.819-28.599 51.366-61.882 100.093-100.102 144.791 2.525 3.147 4.737 6.53 7.5 9.5 45.878-26.083 91.084-54.134 131-89 2.229 3.121 2.68 8.518 3.988 12.784 1.645 7.716 4.223 16.68 4.918 23.899-10.1 61.478-30.361 121.473-55.489 178.356-24.896 54.837-56.175 107.224-94.917 153.399m12 801.812c2.317 4.456 3.074 11.572 5.283 17.17.739 4.388 1.86 9.273 8.105 8.555 14.602.07 29.19-.013 43.78.025H1424v367c21.415.143 43.262 1.155 64.204-4.503 13.977-3.082 29.668-9.534 41.577-14.894 9.317-4.64 20.035-10.63 27.486-16.634 2.906-2.758 6.991-5.956 8.42-8.744 2.662-7.816.402-16.548 1.313-24.6V2156h333.6c9.924-.365 22.04.956 30.884-1.86 6.017-1.523 18.884-10.52 9.146-17.632-21.698-18.392-44.098-35.917-66.648-53.235-11.509-8.543-22.758-17.401-34.243-25.959-5.6-4.242-11.104-8.57-16.716-12.786-5.394-3.328-11.618-10.682-17.023-11.528-12.128 17.927-27.381 34.515-40.27 52.076-10.03 13.09-20.279 25.976-30.497 38.916-4.383 7.045-10.95 6.595-17.997 6.008H1567v-226h245.4c13.55-.231 27.096.32 40.637-.27 10.509-.75 25.407-.414 29.963-15.23-43.835-37.469-90.455-71.555-135.5-107.5-21.573 28.284-43.636 56.211-65.38 84.369-2.87 3.194-5.422 7.773-8.617 10.157-3.014 2.438-8.73.95-12.914 1.474H1567v-197c7.7-.39 18.21-3.799 23.526-7.29 6.568-4.704 10.25-11.902 11.474-19.71-59.043-5.406-118.72-10.465-177.5-17-1.426 80.197.26 160.733-.5 241-44.929-.76-90.151.926-135-.5 25.155-39.766 47.53-81.785 65-125.5 13.555.481 34.587-2.99 38-21-62.075-16.271-122.903-37.814-185-54-9.857 71-28.586 140.772-51.071 208.735-22.298 65.694-49.39 130.115-84.929 189.765 2.799 2.495 6.828 4.36 9.5 6.5 73.116-46.264 140.466-105.183 189.5-177h154v226h-368zm231-601.75c2.354 8.416 4.978 16.992 7 25.5h639.6c7.061.001 14.418.655 21.099-2.135 5.136-1.896 10.132-7.765 9.821-12.991-9.691-16.987-23.01-31.742-35.303-46.858-12.719-14.543-24.698-29.753-37.717-44.016-9.307 16.592-19.593 36.68-28 52-1.426-47.957.26-96.2-.5-144.206v-72.524c.179-6.045-.347-12.18.503-18.16 1.691-3.286 8.49-1.944 11.174-3.548 11.103-2.942 24.406-7.067 29.323-17.562-39.666-25.184-77.586-54.244-117-80-11.544 13.38-21.792 28.142-32.939 41.901-4.896 5.95-9.248 12.395-14.397 18.12-2.204 3.06-8.455 1.404-11.447 1.979h-195.251c-15.763-.99-34.623 1.24-48.984-.752-39.29-13.808-77.482-31.212-116.982-44.248v347h-80zm50-549.5h221v82.2c-.023 5.786.682 12.58-3.427 17.352-3.449 4.1-10.347 3.365-15.074 3.448-37.609.447-74.96-5.062-112.499-6v12c14.45 2.942 28.992 5.801 42.804 11.149 19.523 7.028 39.091 24.236 46.973 41.517 9.469 20.826 9.513 44.22 13.223 66.334 27.244-3.221 54.847-5.62 81.176-13.924 17.854-5.803 35.87-13.672 49.426-27.178 21.91-21.556 26.264-54.535 27.884-83.607 1.29-32.516-.09-65.111.514-97.626V979h222c8.893-.07 18.086.58 26.638-2.423 3.27-.998 6.646-3.291 8.697-5.643 1.897-2.021 4.199-6.58 2.112-8.33-36.782-32.358-76.331-61.53-114.947-91.604a24756 24756 0 0 1-53.267 67.221c-4.931 5.424-8.434 14.075-16.21 13.765-25.005.04-50.02-.007-75.023.014v-53c11.882-1.024 29.979-6.79 30-23h-5v-2c7.802-.547 15.995-5.333 22.804-7.091 25-8.29 49.219-18.75 73.253-29.443 12.415-5.657 24.619-11.748 36.872-17.744 12.492-4.242 29.817-1.92 37.071-14.222-39.829-33.874-80.543-66.788-120.5-100.5-21.243 21.17-41.34 43.371-62.496 64.619-4.204 6.128-9.838 5.98-15.902 5.381-95.637.76-191.552-.926-287.102.5 2.159 3.31 2.631 8.828 4.377 13.123 1.178 3.99 3.182 8.563 3.623 12.377 95.929.76 192.151-.926 288 .5-6.546 11.707-12.897 23.67-20.054 35.057-3.552 5.513-7.38 10.833-10.683 16.502-2.89 6.107-8.873 10.636-11.263 16.941-31.404-1.093-62.653-5.128-94-7v89h-228c1.3 9.202 5.895 17.728 7 27m141 549h29v-275h-29zm115 0h36v-275h-36zm124 0h30c.42-91.65-.42-183.24 0-275h-30z" style="fill:#000;fill-rule:evenodd;stroke:none"/></svg>