<svg xmlns="http://www.w3.org/2000/svg" width="3000" height="3000"><path d="M449 2666.5v1.5h2102v-1.5c-63.81-378.768-126.215-757.87-189.705-1136.696-47.349-283.998-94.654-568.016-142-852-4.398-26.67-8.911-53.338-13.325-80.003-1.118-6.656-2.232-13.342-3.35-19.985-.571-3.586-1.119-7.183-2.096-10.662-1.288-2.958-6.82-3.128-9.193-4.54-101.51-33.828-203.017-67.663-304.512-101.514a746151 746151 0 0 1-266.522-88.84c-39.072-12.89-78.06-26.135-117.144-38.98-4.713-1.335-9.273 1.032-13.839 2.453-144.507 48.104-288.95 96.378-433.449 144.467-54.18 18.08-108.385 36.116-162.566 54.195-23.808 7.923-47.625 15.882-71.434 23.805-5.676 1.96-11.407 3.738-17.06 5.726-6.564 1.113-6.72 8.744-7.34 13.268C740.08 921.349 682.77 1265.54 625.383 1609.692 566.339 1961.663 508.308 2314.864 449 2666.5m598-396.922c.608 1.86 2.475 3.154 3 5.422 4.326-.526 9.42-3.914 13.913-6.264 32.364-17.055 63.958-35.788 94.026-56.632 15.324-10.38 30.074-21.575 44.544-33.087 7.37-5.854 14.46-12.038 21.474-18.305 3.638-2.915 7.1-6.023 10.276-9.445 3.08-2.894 7.028-7.907 10.767-8.267-1.178 61.103-1.487 123.203-16.002 182.972-3.696 13.567-8.878 26.771-16.512 38.634-13.25 22.532-40.665 18.77-60.526 17.478-11.517-.544-23.025-1.276-34.538-1.867-10.879-1.514-24.074.013-33.922-2.217-2.208 2.771-1.587 8.097 2.125 9.239 25.863 8.61 52.326 22.771 66.91 47.003 12.841 27.418 10.142 58.54 12.465 87.758 27.147-.278 54.544-3.379 80.643-11.072 18.371-5.47 35.74-14.564 49.451-28.121 40.18-42.555 56.184-101.398 66.313-157.243 9.431-60.003 11.202-120.994 8.89-181.627-4.747-85.975-15.966-174.054-53.224-252.76-8.881-18.766-19.034-36.908-30.575-54.136 2.46-7.542 9.64-11.631 14.604-17.643 18.539-19.719 36.156-40.31 53.345-61.224 8.598-9.945 15.921-20.945 24.475-30.892 2.18-2.575 7.914.216 10.542-.534 10.368.657 19.529-4.226 25.536-12.248-24.761-12.233-49.088-25.697-73.876-37.942-24.166-13.469-49.869-24.476-73.624-38.558-14.21 40.617-32.014 80.19-50.5 119-6.492-.355-12.379-8.095-18.483-11.983-19.701-15.588-41.124-28.753-62.83-41.264-11.336-6.75-23.302-12.4-35.027-18.433-6.095-2.745-12.217-5.44-18.292-8.223-2.751-1.37-5.465-2.754-8.451-3.507-2.65-.513-4.987 3.834-6.917 4.91 25.875 22.69 51.307 46.158 72.474 73.477 15.624 19.418 29.828 40.18 41.634 62.135 3.113 4.555.35 9.12-2.13 12.431-18.08 30.32-36.261 60.636-56.919 89.303-10.25 14.515-21.108 28.609-32.256 42.436-5.704 6.966-11.372 13.926-17.325 20.668-5.17 6.91-13.6 13.697-17.478 20.55 2.126 1.932 3.756 4.253 5.5 6.5 13.195-8.27 28.08-13.954 41.009-22.787 20.698-12.054 40.681-25.298 60.156-39.216 9.545-7.023 19.007-14.166 28.259-21.568 4.601-3.978 9.399-7.74 13.997-11.71 4.677-3.168 9.114-9.012 14.079-9.719 1.369 8.645 4.98 16.84 6.417 25.48 2.463 8.359-1.21 16.649-3.445 24.632-16.55 59.656-40.528 117.279-69.9 171.718-29.108 52.117-62.221 103.31-104.072 146.17zM1066 1241h796.8c19.956-.34 39.94.414 59.878-.225 7.45-1.058 16.796-4.196 18.725-11.968-.028-2.99-5.524-5.18-6.92-7.424-20.884-17.463-43.106-33.25-64.342-50.25-8.276-6.176-16.51-12.406-24.787-18.576-3.531-2.641-7.151-5.165-10.694-7.774-3.014-2.457-7.164-6.08-10.243-1.866-19.99 24.059-39.054 48.969-59.317 72.783-7.697 2.815-18.906.218-26.973 1.3H1658v-115h61v41c20.386.48 40.863.306 60.815-4.463a521 521 0 0 0 40.472-10.467c8.81-3.674 20.246-5.498 26.593-11.503 2.365-8.197.248-17.141 1.12-25.512V958c13.47-3.214 26.74-8.8 36-19.5-40.082-28.108-78.492-59.34-118.5-87.5-15.012 15.276-28.405 32.053-43.37 47.37-3.93 3.69-6.806 8.422-11.064 11.776-3.005 2.487-8.366 1.715-12.68 1.854H1658V805h203.4c11.398-.123 22.803.154 34.198-.093 9.273-.333 19.912-3.92 23.402-13.282-25.866-21.321-52.611-41.639-79.207-62.042-6.023-4.321-11.817-8.98-17.822-13.32-5.844-3.627-11.366-9.186-17.6-11.764-5.488 3-9.594 10.693-13.568 14.783-8.512 10.391-16.999 20.8-25.298 31.362-8.559 9.192-15.204 20.16-24.172 28.936-6.219 2.983-13.003.33-19.682 1.42-209.49.76-419.238-.926-628.651.5 3.328 7.354 4.397 15.845 7 23.5h241v107h-27c-7.575-.396-16.676.66-23.533-.792-44.255-16.396-88.231-33.853-132.467-50.208v307c27.95 1.008 56.12-1.702 82.398-12.005 11.924-4.572 24.07-9.053 34.827-16.125 2.767-1.731 5.38-3.763 7.31-6.416 2.152-4.928 1.24-10.49 1.465-15.693V1102h57v115h-281c.955 8.211 5.05 15.784 6 24m-.992 219.757c.037 18.08 7.179 36.024 20.362 48.113 12.702 12.93 31.328 17.773 48.671 19.306 20.394.68 40.477-8.307 55.395-22 15.304-12.392 25.683-29.88 34.02-47.373 10.571-24.835 14.919-52.03 14.544-78.916.733-28.345-5.252-56.326-13.621-83.241-1.958-5.297-3.517-11.935-6.286-16.348-1.922-1.64-6.215-1.16-7.864-.322-2.685 4.692-1.649 10.128-3.84 15.173-10.372 36.596-38.444 65.768-68.875 86.849-15.185 10.317-33.728 15.714-47.08 28.816-14.297 12.238-25.477 30.37-25.426 49.943M1284 1078h57V937h-57zm421 267c-9.115-1.771-11.57 7.615-14.255 14.424-7.792 17.767-16.281 35.224-25.196 52.45-3.691 6.9-7.863 13.53-12.55 19.79-4.232 6.021-9.23 12.39-16.636 14.638-15.738 4.307-32.407 1.985-48.466 2.698h-86.274c-21.578-.016-43.139.02-64.716-.01-6.28-.023-15.63-.08-18.812-7.705-1.943-6.752-.611-14.014-1.095-20.91v-92.653c.061-4.199-.727-9.974 3.83-10.698 9.956-1.797 23.053-8.402 24.17-22.024-51.974-3.216-104.156-6.7-156-11v136.24c.704 33.237-3.356 67.998 7.977 100.065 6.715 22.375 28.261 34.997 49.792 39.303 35.94 8.264 73.029 6.383 109.54 6.392 38.276-.428 76.531.524 114.793-.29 32.366-1.51 65.014-2.574 96.943-8.56 22.466-4.18 46.216-9.762 64.483-24.396 27.37-21.77 24.605-72.32-8.525-86.714-4.045-1.906-8.224-3.562-12.323-5.33-4.868-1.323-5.012-5.481-4.68-9.743-.232-28.682-2.226-57.291-2-85.967m-344 1034.25c19.42 48.106 40.735 95.758 60.5 143.75 4.66-2.617 11.11-3.254 15.402-8.518 4.376-3.92 6.954-9.196 9.556-14.31 7.226-7.78 18.797-10.471 27.144-16.856 35.155-20.168 70.418-40.281 104.93-61.533 25.891-15.755 51.297-32.289 76.642-48.892 9.71-6.53 19.518-12.91 29.06-19.68 3.611-2.135 9.22-7.816 12.923-4.851 35.856 67.229 92.458 120.777 155.343 162.64 7.187-26.966 19.314-52.955 37.546-74.283 18.44-21.033 43.401-36.187 70.954-41.717.169-3.014.68-6.005 1-9-39.452-11.803-78.785-25.655-115.835-43.862-18.684-7.765-36.174-18.06-53.492-28.388-8.201-5.477-16.239-11.174-24.248-16.911-4.04-2.988-8.027-6.006-11.79-9.33-3.277-2.949-9.151-6.644-9.635-10.509 34.617-9.827 68.114-23.797 101.607-36.885 16.513-6.759 32.945-13.674 49.117-21.2 9.477-5.274 17.595-.865 26.715-.019 9.63 1.352 19.272-1.724 25.561-9.396-16.683-13.8-34.945-25.613-51.977-38.972-8.957-6.454-17.822-12.984-26.596-19.687-4.374-3.35-8.802-6.573-13.273-9.782-3.93-3.058-10.122-6.311-10.154-11.059 8.985-1.745 18.18-8.157 25.525-11.835 5.263-2.324 7.31-7.19 6.473-12.597.005-5.587 0-11.184.002-16.766V1822c13.04-2.08 28.272-9.446 36-19-38.574-30.983-79.684-59.266-118.5-90-13.129 12.99-24.367 27.706-37.568 40.624-5.9 5.73-12.152 14.316-18.725 20.404-3.406 2.81-9.588 1.732-14.45 1.972H1712v-101c6.598-.052 14.263-2.505 19.492-5.46 6.725-3.835 7.79-9.915 10.508-16.04-53.424-5.46-107.523-7.203-161-12.5v135c-7.374-.147-15.106.776-22.152-1.925-45.746-16.286-91.032-34.043-136.848-50.075v648c-20.264 2.821-40.703 4.558-61 7zm74-1119.5c36.147 38.413 66.098 84.884 81.056 135.926 1.305 7.378 7.634 9.388 13.746 12.17 11.165 4.835 25.644 8.675 36.947 7.369 17.65-1.78 34.675-10.833 44.946-25.483 10.33-14.228 15.488-33.074 11.607-50.417-8.067-33.738-38.785-55.524-69.522-66.804-34.066-13.909-71.35-16.236-107.637-17.402-4.286-1.138-8.315 2.474-11.143 3.891zM1467 912h63V805h-63zm0 166h63V937h-63zm0 139h63v-115h-63zm85 708h196v-124h-196zm0 160h196v-136h-196zm0 269c45.832-5.264 91.254-14.038 137-20-.209-4.984-3.496-9.158-5.086-13.725-28.864-66.978-44.576-139.226-53.914-211.275h-78zm250-209c-17.841 3.225-35.909 3.71-54 3v-39h-106c7.52 36.387 28.352 75.726 46.167 104.282 5.218 8.118 10.97 15.846 17.2 23.211 4.558 5.813 9.569 11.176 14.463 16.679 1.667 1.82 4.51 4.279 6.68 3.014 11.556-13.284 22.437-31.335 32.236-44.179 7.82-10.774 15.111-21.878 22.533-32.912 3.615-5.59 7.46-11.054 11.064-16.635 3.11-5.496 8.747-11.518 9.657-17.46m-144-1067h30.6c7.622-.005 15.23.006 22.84-.003 2.336-.008 6.561-.144 7.116-2.427 1.264-19.575-.227-39.362.444-58.973V937h-61zm34 210.75c54.705 60.94 101.565 133.225 119.351 214.417 1.253 4.631 5.856 6.607 9.963 9.087 16.88 10.382 37.592 16.396 57.208 11.529 29.363-6.525 50.183-33.793 52.796-63.095 3.857-29.766-9.365-58.712-26.908-81.817-23.766-29.136-56.337-49.253-90.183-64.572-36.287-14.808-74.745-24.319-113.603-29.16-3.136-.458-6.393 1.92-8.624 2.861z" style="fill:#feddaa;fill-rule:evenodd;stroke:none"/><path d="M1045 2269.336c1.355 2.427 3.758 5.166 5.5 7.664 69.47-35.523 137.273-77.725 193-133 1.346 30.894-1.607 62.427-2.72 93.383-1.628 22.244-4.011 44.469-8.075 66.402-3.031 16.075-6.952 32.189-14.095 46.99-4.977 10.226-11.061 20.913-21.44 26.557-8.035 4.203-18.938 4.832-27.045 4.502-29.172-2.032-58.537-1.712-87.625-4.834-2.636 3.443-1.785 10.276 2.794 11.532 25.793 8.509 52.2 23.034 66.502 47.245 12.544 27.329 9.937 58.179 12.204 87.223 27.662-.112 55.58-3.124 82.187-10.936 18.677-5.508 36.38-14.724 50.229-28.596 40.545-43.318 56.585-103.075 66.473-159.788 6.587-42.614 9.353-85.781 9.111-128.89.928-64.402-4.763-128.782-17.13-191.996-12.243-58.592-32.919-117.178-67.87-166.294 20.54-23.132 42.794-44.747 61.816-69.264 9.776-11.834 19.343-23.854 28.582-36.095 2.375-3.916 6.188-4.475 10.104-3.413 13.262 1.46 22.208-4.125 29.498-13.228-24.548-13.555-50.022-25.883-74.876-38.942-25.508-12.3-50.35-27.097-76.124-38.558-12.96 41.058-32.2 79.986-50 119-5.648-1.836-10.987-8.666-16.906-12.325-38.508-30.141-82.223-52.76-126.594-72.675l-7.5 7.5c25.839 23.16 51.973 46.335 73.136 74.084 15.7 19.329 29.781 40.138 41.701 61.99 3.001 3.963-.193 8.696-2.72 12.394-18.136 30.202-36.303 60.444-56.893 89.077-10.273 14.517-21.197 28.545-32.343 42.381-9.976 14.316-25.841 28.033-34.881 41.074 3.38 3.075 6.02 8.167 10.23 6.118 3.936-2.074 7.802-4.335 11.865-6.175 50.973-26.445 97.914-60.12 141.405-97.443 2.549 8.08 5.114 17.974 6.937 25.556 1.966 7.817-1.657 15.41-3.577 22.971-16.698 60.074-40.965 117.978-70.534 172.8-29.328 51.897-62.321 103.027-104.326 145.673zm13-1052.836c2.491 8.104 5.443 17.866 7 25.5h834c12.788-.345 38.856 4.471 45-14.5-18.973-16.134-38.905-31.056-58.55-46.342-9.76-7.598-19.622-15.058-29.526-22.47-9.871-6.12-19.862-16.278-29.611-20.688-19.715 24.971-39.995 49.504-59.972 74.25-5.006 6.025-16.786 2.725-25.032 3.75H1659v-113h59v41c20.222.448 40.548.527 60.386-3.985a543 543 0 0 0 41.952-10.628c9.13-3.78 20.923-5.64 27.542-11.82 2.395-8.396.218-17.54 1.12-26.11V959c14.059-3.165 27.507-9.351 37-20.5-40.398-29.502-80.157-59.933-120.5-89.5-14.58 15.408-28.562 31.421-42.994 46.972-4.01 3.67-7.217 8.063-10.974 11.948-5.828 5.141-17.278 2.045-25.736 3.08H1659V806h221.4c8.957-.212 18.282.84 26.958-2.02 3.62-.71 6.206-3.56 9.17-5.309 1.147-2.693 4.747-6.185 2.113-8.835-36.895-31.4-76.499-59.67-115.141-88.836-16.86 21.566-34.783 42.692-51.697 64.282-3.92 4.316-7.707 10.295-11.91 13.66-5.66 2.092-13.902.376-19.842 1.058H1092c1.568 8.833 5.284 17.188 7 26h241v105h-27c-7.254-.377-16.061.739-22.551-1.086-44.14-17.374-88.975-33.227-132.949-50.914-1.426 103.21.26 206.72-.5 310 28.42 1.048 57.129-1.313 83.884-11.822 11.947-4.495 24.081-9.045 34.872-16.028 2.737-1.704 5.465-3.638 7.394-6.254 2.792-4.796 1.487-10.872 1.85-16.135V1103h55v113h-282zm6.002 244.352c-.168 18.34 6.975 36.713 20.368 49.018 12.7 13.072 31.41 17.634 48.743 19.423 20.752 1.125 41.216-7.622 56.499-21.388 15.605-12.593 26.455-30.173 34.845-48.102 11.001-25.338 14.812-53.153 14.623-80.557.67-27.934-5.18-55.964-13.37-82.624-2.067-5.257-3.472-11.903-6.027-16.447-1.316-2.496-5.896-2.034-7.934-1.893-5.418.088-3.9 10.298-5.683 13.415-8.635 36.9-40.993 70.08-68.736 88.732-15.325 10.733-34.314 16.03-47.897 29.385-14.635 12.457-25.916 31.061-25.431 51.038M1285 1077h55V938h-55zm421 267c-4.924-.23-10.34-.792-12.3 5.541-1.991 4.143-3.669 8.448-5.671 12.572-7.592 17.537-16.293 34.561-24.987 51.567-7.792 13.166-17.948 30.535-32.063 32.785-15.739 2.56-31.825 1.021-47.677 1.535h-85.073c-21.16-.138-42.337.168-63.487-.091-6.16-.27-14.872-1.124-16.327-10.124-1.184-27.614.215-55.33-.415-82.963v-20.92c.52-4.837-.854-10.903 1.011-14.715 6.008-2.438 13.201-3.042 18.26-7.777 6.337-3.97 6.849-10.35 9.729-15.91-.458-.45-.911-.96-1.25-1.5-52.591-3.165-105.236-6.927-157.75-11v137.32c.763 33.383-3.362 68.235 7.8 100.487 7.948 24.562 28.31 34.627 49.969 39.801 36.324 8.332 73.833 6.37 110.738 6.392 38.436-.416 76.904.509 115.32-.28 32.667-1.511 65.606-2.603 97.84-8.67 22.378-4.266 46.169-9.824 64.25-24.636 14.355-11.848 19.443-30.88 18-48.726-.45-12.93-6.341-25.713-16.767-33.508-7.532-5.765-16.474-8.983-25.086-12.632-3.283-1.74-1.382-8.16-2.07-10.966-.405-27.863-2.126-55.716-1.994-83.582m-347 1034.25c19.313 48.883 42.076 96.688 61 145.75 12.485-1.356 22.364-10.506 26.89-21.827 2.364-4.687 8.828-6.685 12.486-9.275 36.728-20.326 72.958-41.558 108.95-63.149 26.644-16.704 53.625-32.857 79.7-50.428 10.003-6.677 20.01-13.33 29.998-20.005 4.327-3.013 8.532-6.14 12.95-9 5.27-4.269 7.295 2.323 9.439 6.367 18.009 32.24 40.414 61.931 67.19 87.42 13.085 13.398 27.393 25.51 41.944 37.257 7.097 5.735 14.523 11.044 21.863 16.435 3.826 2.732 7.779 5.278 11.529 8.1 3.479 2.084 7.254 5.645 11.061 6.105 5.823-27.251 19.578-52.81 37.046-74.283 18.44-21.033 43.401-36.187 70.954-41.717.308-3.672.817-7.321 1-11-39.131-11.68-78.132-25.406-114.895-43.418-36.403-15.712-70.196-37.118-100.105-63.082 34.881-11.401 69.623-23.966 103.5-38.231 16.9-6.636 33.327-14.29 49.965-21.511 4.648-2.373 8.813-1.382 13.195-.098 11.836 2.238 29.075 4.503 37.34-10.66-9.486-4.799-17.449-13.004-26.407-18.804-13.036-9.642-26.08-19.216-39.114-28.843-6.496-4.835-12.992-9.681-19.44-14.581-3.235-2.495-6.607-4.798-9.915-7.168-2.567-2.298-7.225-4.73-8.124-7.604 8.985-1.745 18.18-8.157 25.525-11.835 5.263-2.324 7.31-7.19 6.473-12.597.005-5.587 0-11.184.002-16.766V1823c12.228-2.677 27.939-7.864 37-20.5-33.977-26.41-68.804-51.77-103.076-77.812-4.523-3.181-8.75-6.738-13.275-9.898-4.678-4.37-8.354.098-11.246 3.517-10.66 12.778-22.694 24.304-33.67 36.783-5.62 5.795-11.717 13.266-17.067 18.34-3.182 2.487-9.007 1.13-13.407 1.57H1713v-99c6.901-.148 15.06-2.645 20.37-6.085 5.755-4.071 8.603-11 9.63-17.915-54.333-3.902-108.694-7.787-163-12v135c-7.325.196-14.828.527-21.699-2.482-22.976-8.352-45.819-17.07-68.82-25.33-11.334-4.31-22.815-8.186-34.11-12.56-11.24-3.176-23.7-10.098-34.371-11.628v648c-20.614 2.652-41.332 4.849-62 7zm74-1118.75c35.17 37.873 65.645 82.798 80.843 132.891 1.14 2.761 1.313 6.466 3.165 9.43 19.976 15.257 49.28 19.024 72.146 8.47 22.998-10.607 36.896-35.528 36.695-60.427-.358-18.807-10.22-35.691-22.745-48.959-19.434-18.35-44.228-29.847-69.849-36.682-27.99-7.285-56.986-9.194-85.769-10.097-2.54.226-5.466-.577-8.196.744-2.021 1.227-4.462 3.409-6.29 4.13zm35-348.5h61V806h-61zm0 166h61V938h-61zm0 139h61v-113h-61zm85 708h194v-122h-194zm0 160h194v-134h-194zm0 269c45.094-5.965 89.952-13.714 135-20-31.588-70.368-49.6-146.606-59-223h-76zm90-242.5c15.678 53.659 41.758 105.97 82 145.5 26.89-35.197 51.805-72.358 76-109.5-17.693 2.543-36.015 3.284-54 2.5v-39h-104zm16-1033.5h29.4c7.395-.006 14.806.007 22.197-.004 2.392-.174 6.354-.035 6.97-2.446 1.23-18.775-.22-37.75.433-56.558V938h-59zm31 211.5c52.873 59.125 99.09 128.617 118.31 206.81 1.506 3.83 1.267 11.106 4.405 12.923 14.42 11.141 35.626 18.794 52.376 18.683 14.086-.883 28.258-5.32 39.575-13.918 17.465-13.028 26.899-34.57 28.085-55.9 1.867-21.828-4.84-43.45-16.009-61.99-20.097-35.472-55.222-59.472-91.075-76.783-38.591-18.869-81.314-27.84-123.462-34.295-5.441-1.353-8.443 1.632-12.205 3.97z" style="fill:#000;fill-rule:evenodd;stroke:none"/></svg>