<svg xmlns="http://www.w3.org/2000/svg" width="3000" height="3000"><path d="M448 2669h2104c-108.019-653.996-218.137-1307.761-326.618-1961.691-6.813-40.83-13.621-81.671-20.41-122.502-.9-5.185-1.732-10.375-2.627-15.558-.693-5.948-7.25-6.546-11.566-8.162a2264805 2264805 0 0 1-451.953-150.644c-56.522-18.824-113.032-37.715-169.56-56.514-12.477-4.17-24.972-8.31-37.44-12.486-6.015-1.98-11.998-4.026-18-6-5.943-1.873-12.256-5.247-18.565-3.023-92.812 30.91-185.585 61.892-278.396 92.78-138.737 46.826-278.12 92.047-416.698 139.266-3.665 1.962-2.298 9.57-3.876 12.727-22.4 134.514-44.811 269.006-67.243 403.502C635.746 1543.503 540.855 2106.166 448 2669m599-1333.687c.913 1.911 2.665 3.717 3 5.687 35.274-16.09 68.701-37.494 101.308-58.554 16.293-11.164 32.363-22.732 47.774-35.103 8.07-6.125 15.56-12.918 23.27-19.452 3.747-3.35 7.7-6.432 11.25-9.993 3.294-3.037 7.437-8.46 11.398-8.898-1.156 61.105-1.491 123.21-16.002 182.972-6.36 24.353-20.018 59.181-53.799 56.886-31.071-1.445-62.197-2.229-93.199-4.858.174 2.8-.411 8.191 2.77 8.782 2.946 1.386 6.22 1.825 9.222 3.082 12.771 4.26 24.753 10.468 35.205 19.005 7.582 6 15.746 14.145 21.06 21.234 15.7 26.924 12.43 64.85 14.743 91.897 47.47-2.028 112.503-6.524 146.405-59.51 30.978-45.164 45.106-99.585 52.35-153.206 8.252-58.412 8.092-117.683 6.183-176.509-5.818-83.508-17.375-169.082-54.613-245.109-4.47-9.457-9.41-18.642-14.43-27.795-4.062-7.483-9.578-14.105-13.42-21.707-.525-7.557 8.943-12.85 12.895-18.034 18.064-19.97 36.245-39.897 53.077-60.957 8.535-10.066 16.124-20.945 24.51-31.112 4.554-4.45 14.27-.17 20.729-2.63 6.643-1.455 11.773-6.238 16.314-10.931-23.919-13.74-49.458-24.822-73.562-38.286A8102 8102 0 0 1 1267.5 704c-14.45 40.597-32.056 80.118-50.5 119-6.341-.301-11.735-7.979-17.755-11.574-38.181-30.91-82.674-52.625-126.745-73.426-1.864 1.96-4.66 4.405-5.5 6.5 26.2 22.433 51.084 46.61 72.769 73.494a393 393 0 0 1 41.669 62.295c2.677 5.02-1.1 9.894-3.369 13.707-17.697 30.06-36.052 59.715-56.367 88.092-10.177 14.791-21.634 28.634-32.495 42.909-5.721 7.101-11.793 13.883-17.703 20.804-3.224 3.302-6.076 6.904-9.144 10.325-2.641 2.799-6.433 5.946-7.36 9.54 1.918 1.655 3.622 3.488 5.344 5.334 28.806-13.221 55.599-30.74 82.116-47.974 13.08-8.75 25.768-18.09 38.295-27.602 6.268-4.9 12.637-9.699 18.549-15.03 5.97-3.744 12.699-12.288 18.696-13.394 1.52 8.907 5.11 17.352 6.585 26.267 2.262 8.326-1.89 16.462-3.766 24.451-16.688 60.17-41.112 118.063-70.751 172.933-28.974 51.468-61.663 101.902-103.068 144.349zm6 754.687c10.536-1.804 19.908-8.21 30.17-11.064 33.83-13.93 66.471-30.41 98.95-47.126 15.306-8.527 30.908-16.58 45.887-25.708 7.79-4.556 15.501-9.267 23.07-14.166 3.666-2.354 7.587-4.276 11.185-6.742 3.56-2.106 8.206-5.846 11.738-6.194 1.718 7.458 5.514 15.902 6 23h137v135c-97.929.76-196.151-.926-294 .5 4.317 6.787 3.08 17.935 7.85 22.867 26.922 1.806 54.224-.329 81.222.633H1417v301h-341c.422 8.356 5.769 17.308 6 25h804c16.561-.468 37.203 1.466 45-13.5-41.593-39.276-89.779-70.812-133.5-107.5-13.924 17.431-27.04 35.527-40.908 53.005-10.129 13.251-20.24 26.535-30.602 39.59-4.207 5.315-13.506 2.626-19.346 3.405H1556v-301h291.6c9.054-.131 18.57.947 27.175-2.557 3.288-1.397 6.383-3.563 8.367-6.599 3.07-3.763.15-5.978-2.858-8.138-18.873-16.708-38.704-32.273-58.29-48.115-19.703-14.785-37.952-32.061-58.494-45.591-11.905 15.133-23.11 30.818-34.972 45.977-8.812 11.507-17.652 23.01-26.264 34.657-3.314 6.473-8.684 7.212-15.027 6.366H1556v-135h85.8c14.458-.1 28.902.123 43.345-.07 11.438-.974 26.618 1.07 33.855-13.43-35.996-31.217-73.758-60.461-111.5-89.5-16.696 21.749-34.155 43.115-50.946 64.827-3.321 3.624-6.39 8.722-9.898 11.592-3.854 3.156-12.11.533-16.467 1.581H1279c.195-4.046 5.171-6.177 7.93-8.295 50.26-32.944 97.076-71.175 141.44-111.585 22.371-21.236 43.87-43.208 64.28-66.358 9.488-11.678 19.33-23.12 28.126-35.329 4.396-6.245 9.252-12.143 13.333-18.607 2.053-3.144 4.225-6.208 6.234-9.367 2.104-2.94 4.276-7.192 7.657-7.459 12.49 36.38 27.467 72.276 47.763 105.117 30.436 49.688 69.244 94.372 113.628 132.008 43.026 36.555 90.49 67.473 139.109 95.875 5.897-30.026 18.269-58.963 36.505-83.665 17.91-24.897 42.704-45.733 72.995-53.335.076-4.17-.268-8.467 1-12.5-37.571-10.023-76.906-17.083-114.195-28.997-55.047-16.168-109.411-35.712-160.237-62.478-23.343-13.264-46.732-26.718-67.554-43.808-10.602-9.12-21.502-17.875-31.208-27.97-4.241-5.318-9.955-10.87-14.04-15.567-3.524-5.197-10.961-11.279-11.766-16.68 9.823-.359 19.442-2.91 28.983-5.013 8.462-2.212 17.687-6.697 21.017-15.362-65.463-20.233-133.736-34.078-199.5-53.625-13.369 47.457-35.406 91.883-61.524 133.557-38.367 62.083-85.034 118.801-134.689 172.071-49.688 53.215-104.47 101.815-164.287 143.372.335 2.633 2.35 4.523 3 7m155 111.25c14.427 38.825 22.377 80.223 27.443 121.302 1.688 16.584 2.748 33.278 2.14 49.945.286 6.655-1.888 16.655 1.781 21.228 16.544 17.851 40.848 31.169 65.773 28.968 37.176-3.17 67.017-38.234 66.54-75.148-.771-18.686-5.72-37.017-15.675-52.99-9.842-14.719-23.617-30.779-35.991-41.338-15.617-13.442-33.186-24.613-51.91-33.186a272 272 0 0 0-28.674-12.862c-8.721-2.945-21.302-9.391-29.1-6.784-.725.359-1.606.515-2.327.615zm153-756c19.218 47.788 40.886 94.903 60 142.75 7.184-.12 14.415-5.363 18.369-10.213 4.395-4.87 6.177-13.077 11.399-15.648 42.463-23.335 84.26-47.886 125.639-73.07 20.386-12.103 40.064-25.273 60.123-37.871 10.203-6.47 20.057-13.473 30.196-20.032 5.098-3.217 9.993-6.723 14.894-10.225 4.815-2.631 10.696-8.38 15.38-8.941 33.416 68.815 92.24 121.675 154.5 164h1.5c6.592-27.38 22.343-58.4 40.475-76.975 9.968-10.206 20.833-19.906 33.834-26.182 6.508-3.404 13.382-6.017 20.36-8.235 3.287-1.382 7.467-2.11 10.396-3.546 3.339-.825 3.161-6.663 3.935-9.062-39.732-11.703-78.857-26.5-116.359-44.174-18.216-8.6-36.403-17.258-53.324-28.293-8.322-5.348-16.399-11.06-24.294-17.005-4.066-2.938-8.025-6.032-11.786-9.344-3.196-2.84-8.81-6.424-9.237-10.184 34.736-11.043 69.08-23.619 102.724-37.698 16.545-6.913 33.21-13.513 49.386-21.272 8.719-4.608 18.195.54 27.427.888 8.925.915 17.489-2.918 23.463-9.418-16.386-13.16-33.8-25.144-50.516-37.892-17.312-12.111-33.974-26.041-51.484-37.608v-4c9.432-2.943 21.854-9.212 28.415-14.071 4.7-3.666 3.528-11.219 3.585-16.404V888c12.945-3.34 27.533-8.54 36-19.5-39.151-30.27-79.162-59.485-118.5-89.5-13.25 12.813-24.453 27.462-37.446 40.49-6.592 6.56-12.117 14.136-18.848 20.542-3.413 2.806-9.575 1.727-14.438 1.968H1712V741c11.534-1.38 27.685-5.213 29-22-53.28-4.433-106.724-7.56-160-12v135c-7.374-.147-15.106.776-22.152-1.925-45.037-16.828-90.485-32.876-135.348-50.075-2.444 6.104-1.02 13.119-1.5 19.493V1438c-20.26 2.867-40.693 4.57-61 7zM1552 991h197V867h-197zm0 160h196c2.105-10.997.228-22.439 1-33.536V1015h-197zm0 269c45.769-5.664 91.305-13.941 137-20-1-7.86-7.448-17.108-10.35-25.948-25.22-63.631-39.993-131.33-48.65-199.052h-78zm44 1002c2.797.821 5.787 3.35 8.5 5 37.777-26.712 74.564-55.222 108.55-86.711 17.363-16.359 34.576-32.871 51.183-50.022 4.155-4.307 8.606-8.37 12.582-12.835 5.212-9.304 17.494-7.494 24.936-9.148 8.03-2.213 18.208-8.617 19.249-16.284-57.324-18.731-113.645-41.262-171-60-15.544 77.122-34.052 153.956-54 230m206-1211c-8.623.581-17.066 2.905-25.766 2.803-9.078.398-18.156.062-27.234.197v-39h-107c7.697 36.6 28.502 76.424 46.708 105.07 5.132 7.872 10.838 15.316 16.78 22.58 4.345 5.68 9.331 10.772 14.005 16.153 1.755 1.94 4.228 4.124 6.523 3.641 12.55-13.067 21.218-29.875 32.594-43.975a1183 1183 0 0 0 22.364-32.929c3.747-5.727 7.632-11.358 11.369-17.08 3.206-5.267 9.108-12.147 9.657-17.46" style="fill:#fda;fill-rule:evenodd;stroke:none"/><path d="M338 2761.5c387.06 1.426 774.925-.26 1162.15.5 387.224-.76 774.71.926 1161.85-.5-77.265-456.459-152.125-914.01-228.874-1370.691-28.417-170.851-56.988-341.657-85.4-512.497-12.491-74.824-24.942-149.684-37.431-224.508-5.828-35.176-11.741-70.32-17.569-105.492-3.54-17.097-4.968-34.714-9.072-51.664-1.3-3.941-8.915-3.966-11.797-5.85-133.175-44.44-266.372-88.79-399.558-133.193-116.482-38.867-233.005-77.647-349.48-116.505-6.56-1.974-12.94-4.527-19.527-6.382-6.558-1.31-12.878 2.396-19.017 4.029-100.339 33.452-200.674 66.889-301.01 100.324-87.802 29.33-175.659 58.504-263.446 87.829-38.52 12.817-77.015 25.657-115.52 38.495-18.005 5.974-35.995 12.026-54 18-8.822 2.95-17.652 5.903-26.471 8.83-4.346 1.012-8.371 2.451-8.57 8.208-90.761 544.76-181.624 1089.514-272.367 1634.27-35.423 208.458-69 418.87-104.891 626.797m111-95v1.5h2102v-1.5c-63.81-378.768-126.215-757.87-189.705-1136.696-47.349-283.998-94.654-568.016-142-852-4.398-26.67-8.911-53.338-13.325-80.003-1.118-6.656-2.232-13.342-3.35-19.985-.571-3.586-1.119-7.183-2.096-10.662-1.288-2.958-6.82-3.128-9.193-4.54-101.51-33.828-203.017-67.663-304.512-101.514a746151 746151 0 0 1-266.522-88.84c-39.072-12.89-78.06-26.135-117.144-38.98-4.713-1.335-9.273 1.032-13.839 2.453-144.507 48.104-288.95 96.378-433.449 144.467-54.18 18.08-108.385 36.116-162.566 54.195-23.808 7.923-47.625 15.882-71.434 23.805-5.676 1.96-11.407 3.738-17.06 5.726-6.564 1.113-6.72 8.744-7.34 13.268C740.08 921.349 682.77 1265.54 625.383 1609.692 566.339 1961.663 508.308 2314.864 449 2666.5" style="fill:gray;fill-rule:evenodd;stroke:none"/><path d="M1045 1335.469c1.869 2.365 3.877 5.283 5.5 7.531 69.522-35.635 136.773-78.251 193-133 1.431 31.061-1.595 62.791-2.744 93.917-1.498 22.428-3.902 44.81-8.236 66.874-3.001 15.663-6.889 31.366-13.828 45.816-5.238 10.435-11.54 21.645-22.394 27.168-8.128 4.027-18.975 4.43-27.05 3.671-29.45-1.007-58.842-2.671-88.248-4.446.084 3.821-.683 9.901 3.164 11.01 4.042 1.52 8.352 2.356 12.293 4.164 12.616 4.14 23.965 11.18 34.168 19.57 7.095 6.018 15.017 13.978 19.711 21.108 14.21 27.76 11.435 60.172 13.664 90.148 27.864-.745 55.909-3.222 82.698-11.401 18.613-5.967 36.882-14.967 50.535-29.332 41.71-45.04 57.22-107.42 66.672-166.123 8.851-59.005 8.988-118.981 7.22-178.478-5.294-84.586-16.61-171.232-53.562-248.535-4.675-9.605-9.527-19.096-14.69-28.434-3.966-7.555-9.364-14.29-13.394-21.809-2.703-3.88 1.803-7.623 4.023-9.891 20.624-20.531 39.16-43.008 57.987-65.163 9.112-11.01 17.787-22.325 26.447-33.674 4.531-5.583 15.024-1.568 22.194-3.828 6.133-1.71 15.021-7.674 15.87-13.332-24.549-12.531-49.495-25.218-74.001-37.997-12.857-6.07-25.283-12.862-37.864-19.437-6.525-3.352-13.207-6.459-19.646-9.974-5.594-2.887-13.277-7.694-18.489-8.592-13.163 40.997-32.265 79.933-50 119h-1.5c-21.822-18.678-45.727-34.828-70.497-49.292-12.962-7.658-26.317-14.611-39.875-21.146-6.675-3.635-13.673-6.623-20.573-9.754-3.506-1.799-7.217-3.055-10.92-4.3-2.98.147-6.146 4.986-7.635 6.992 26.176 22.565 51.209 46.648 73.022 73.535 15.782 19.504 30.174 40.19 41.899 62.39 2.948 3.95-.565 8.982-2.846 12.551-17.777 30.238-36.27 60.034-56.693 88.56-10.208 14.754-21.61 28.616-32.502 42.854-5.772 7.049-11.716 13.956-17.718 20.8-5.028 6.861-13.386 13.545-17.162 20.31l7.5 7.5c56.117-28.283 108.289-64.142 156-105 2.584 8.126 5.177 18.098 6.972 25.742 2.034 7.986-2.062 15.655-3.76 23.394-16.771 60.354-41.372 118.348-71.125 173.379-28.915 51.923-62.375 101.925-103.587 144.954m3 747.875c1.62 2.976 3.356 5.969 5.5 8.656 38.797-14.985 77.063-31.681 113.926-50.968 35.735-19.026 71.431-38.48 105.074-61.032 2.89 7.086 5.455 16.051 6.5 23h137v133h-294c1.53 7.814 4.104 15.48 6.287 23.128 1.031 4.387 9.246 2.17 12.096 2.872H1416v299h-342c1.626 8.86 6.127 18.764 7 27h796.8c11.103.095 22.243.202 33.292-1.077 7.516-1.23 17.945-2.658 20.342-13.325-2.347-5.994-10.85-10.954-15.294-15.482-38.157-33.11-79.906-61.778-118.64-94.116-14.212 17.136-26.94 35.515-40.942 52.825-10.315 13.134-20.259 26.522-30.625 39.61-4.216 6.395-12.45 4.21-18.493 4.565H1557v-299h297.6c11.336.002 26.637.746 32.4-14.5-39.916-34.973-82.513-66.858-123.5-100.5-10.899 15.827-23.382 30.787-34.719 46.343-8.923 11.648-17.85 23.284-26.585 35.064-1.49 2.258-3.305 4.283-5.083 6.283-5.58 2.654-11.5.403-17.45 1.31H1557v-133h73.8c18.46-.106 36.9.13 55.345-.07 12.144-.634 28.659-.105 32.838-12.628 2.072-4.173-5.178-7.606-7.206-9.995-23.9-20.464-49.032-39.434-73.388-59.332-10.267-8.022-20.882-15.644-30.889-23.975-16.96 21.514-34.031 42.976-50.908 64.556-3.378 3.863-6.239 8.188-9.776 11.906-3.883 3.756-10.98 2.13-15.829 2.538-83.572-.76-167.534.926-250.987-.5 50.872-34.404 99.96-71.706 145.033-113.522 45.512-42.357 87.82-88.421 121.467-140.978 13.808 36.078 27.42 72.859 48.573 105.585 30.714 49.864 69.725 94.883 114.511 132.553 43.316 36.541 90.91 67.673 139.916 95.862 5.357-30.293 18.183-59.349 36.21-84.283 17.941-25.069 42.837-46.085 73.29-53.717-.017-3.106-.014-6.243.303-9.33-.01-1.906.472-4.755-.746-5.906-6.303-1.766-13.277-2.928-19.698-4.691-71.43-15.894-142.258-35.598-209.537-64.728-64.253-27.626-125.356-66.628-168.322-122.845 18.889-3.614 44.269-4.177 51-23-33.245-10.336-67.571-17.592-101.095-27.079-34.035-8.51-67.743-18.481-101.905-26.421-12.122 47.958-35.795 92.02-61.3 134.003-38.479 62.243-85.385 118.964-135.053 172.462-25.817 26.705-52.054 53.15-80.206 77.355-13.74 11.8-27.473 23.558-41.901 34.522-13.255 11.799-29.228 20.397-42.54 32.002M1207 2200c9.964 32.346 19.903 65.036 24.107 98.818 3.66 25.545 6.881 51.29 5.327 77.157.063 4.864-.734 10.655-.028 15.089 3.04 8.16 12.41 12.073 17.824 17.315 11.774 8.446 28.161 15.622 41.709 15.613 22.448 1.13 44.537-9.23 58.671-26.516 15.27-17.713 20.397-41.723 16.89-64.357-5.745-35.503-30.088-65.335-57.761-86.808-27.988-21.856-61.32-35.816-94.454-47.701-4.25-1.975-8.694.41-12.285 1.39m152-755.875c19.762 48.356 41.457 96.371 61 144.875 7.41.174 14.478-3.573 19.341-9.017 4.802-4.136 6.945-13.184 11.192-16.12 42.059-23.531 84.004-47.392 125.02-72.684 40.837-24.708 80.694-51.05 119.947-78.179 35.166 68.77 92.899 123.294 157 165 10.373-26.866 19.727-56.344 41.233-77.233 10.188-10.488 21.21-20.534 34.576-26.924 6.66-3.504 13.703-6.122 20.852-8.405 3.62-1.293 7.382-2.189 10.881-3.75 2.642-2.1 2.463-7.057 2.958-10.688-39.38-11.531-78.073-26.325-115.295-43.656-18.185-8.496-36.288-17.137-53.162-28.084-16.528-10.191-31.762-22.246-46.543-34.76 34.82-12.358 70.24-23.885 104.178-38.772 17.008-6.957 33.895-14.092 50.573-21.787 8.22-2.557 17.34 3.325 27.62 2.037 7.181-.34 17.733-3.368 21.629-11.978-35.221-23.05-67.925-51.739-103-75v-2c9.432-2.943 21.854-9.212 28.415-14.071 4.7-3.666 3.528-11.219 3.585-16.404V889c13.362-3.472 28.47-8.912 37-20.5-39.314-31.55-80.991-60.212-120.5-91.5-13.262 12.737-24.571 27.225-37.367 40.373-6.29 6.651-12.075 13.72-18.398 20.33-3.131 3.853-9.15 3.464-13.595 3.297H1713v-99c7.053-.434 14.043-2.515 20.042-6.232 6.796-4.35 8.418-10.946 9.958-17.768-54.325-4.05-108.676-8.008-163-12v135c-7.325.196-14.828.527-21.699-2.482-45.613-15.871-90.49-34.37-136.301-49.518-1.97 13.408-.363 27.114-1 40.596V1437c-20.615 2.693-41.322 4.889-62 7zM1553 990h195V868h-195zm0 160h194c2.086-10.805.247-22.03 1-32.936V1016h-195zm0 269h1.5c22.05-4.123 44.53-6.293 66.636-10.07 22.33-2.907 44.471-7.597 66.864-9.93-31.505-70.405-49.694-146.564-59-223h-76zm41 1002.625c3.718 2.3 8.492 6.895 12.474 5.232 4.722-2.332 8.64-6.203 13.146-8.915 35.615-25.057 68.877-53.412 100.846-82.87 16.961-14.738 31.794-31.773 48.136-47.174 4.023-3.938 8.04-7.878 11.529-12.29 4.822-6.325 16.311-3.925 24.387-6.798 7.895-2.554 15.13-8.172 18.482-15.892-56.29-23.603-116.528-40.537-173.5-62.918-17.566 77.112-32.85 156.043-55.5 231.625m49-1245.125c15.69 53.627 41.797 105.983 82 145.5 27.169-34.976 51.628-72.51 76-109.5-3.795-1.029-8.734 1.628-12.58 1.41-13.417 1.533-26.954 1.01-40.42 1.09v-39h-105z" style="fill:#000;fill-rule:evenodd;stroke:none"/></svg>