<svg xmlns="http://www.w3.org/2000/svg" width="3000" height="3000"><path d="M448 2669h2104c-108.019-653.996-218.137-1307.761-326.618-1961.691-6.813-40.83-13.621-81.671-20.41-122.502-.9-5.185-1.732-10.375-2.627-15.558-.693-5.948-7.25-6.546-11.566-8.162a2264805 2264805 0 0 1-451.953-150.644c-56.522-18.824-113.032-37.715-169.56-56.514-12.477-4.17-24.972-8.31-37.44-12.486-6.015-1.98-11.998-4.026-18-6-5.943-1.873-12.256-5.247-18.565-3.023-92.812 30.91-185.585 61.892-278.396 92.78-138.737 46.826-278.12 92.047-416.698 139.266-3.665 1.962-2.298 9.57-3.876 12.727-22.4 134.514-44.811 269.006-67.243 403.502C635.746 1543.503 540.855 2106.166 448 2669m599-399.414c.61 1.855 2.475 3.145 3 5.414 35.72-15.111 68.432-37.805 101.192-58.38 16.561-11.138 32.781-22.743 48.237-35.373 7.938-6.1 15.67-12.468 23.032-19.243 3.826-3.43 7.92-6.576 11.41-10.374 3.212-2.962 7.252-8.234 11.129-8.63-.84 60.995-1.685 122.967-15.92 182.626-3.322 13.81-9.871 29.597-17.47 40.24-13.889 21.81-41.23 17.298-60.946 16.284-22.903-.57-45.722-3.495-68.664-3.15-1.077 8.195 4.994 9.166 11.176 10.901 23.714 8.125 50.446 26.244 60.901 47.429 10.667 26.871 9.511 56.394 10.923 84.67 26.76-.162 58.165-4.2 81.667-11.467 18.515-5.462 36.17-14.926 49.435-29.135 40.026-42.69 55.354-102.043 65.62-157.811 9.095-59.692 10.68-120.302 8.497-180.58-4.698-85.269-16.098-172.345-52.5-250.559-9.114-18.51-18.742-36.832-30.426-53.865-2.853-3.255 2.261-7.633 4.31-9.685 20.408-20.303 38.972-42.305 57.522-64.29 9.354-10.827 17.79-22.395 26.616-33.631 4.706-7.33 14.073-4.194 20.787-5.19 7.673-.704 13.582-5.883 18.472-11.287-24.395-12.075-48.41-25.31-72.835-37.428-25.01-12.252-49.291-25.917-74.332-38.072-3.273 3.306-3.523 10.246-6.2 14.927-12.563 35.316-28.977 69.16-44.633 103.073-6.533-.106-12.163-8.213-18.534-11.902-19.719-15.428-40.79-28.946-62.606-41.18-10.91-5.983-23.884-12.696-34.167-17.603-6.149-2.89-12.076-6.258-18.378-8.8-2.936-1.196-6.201-3.24-9.16-3.538-2.54-1.061-4.928 2.869-7.155 4.523 26.02 22.476 51.054 46.304 72.447 73.326 15.823 19.696 30.024 40.728 42.217 62.863 2.374 5.175-1.177 9.236-3.583 13.661-18.217 29.692-35.834 59.759-56.257 88.023-10.394 14.35-21.159 28.433-32.187 42.295-6.047 6.783-11.376 14.212-17.613 20.81-5.09 6.702-13.268 13.318-17.024 20.022 1.61 1.646 3.362 3.271 4 5.5 6.816-1.322 14.88-7.085 22.283-10.5 24.238-13.088 47.562-27.827 70.2-43.484 11.655-7.71 22.582-16.426 33.664-24.903 5.55-4.4 10.845-9.1 16.38-13.508 5.091-3.523 11.145-10.796 16.473-11.605 1.477 8.982 5.16 17.476 6.781 26.427 1.898 8.48-2.001 16.828-4.023 24.906-17.007 59.827-40.702 117.714-70.564 172.262-28.85 51.556-61.721 102.028-103.194 144.405zM1066 1241h791.4c21.854-.577 43.791.71 65.625-.401 6.872-.819 14.666-3.866 17.866-10.515 2.204-2.343-3.381-5.472-4.398-7.006-17.992-14.762-36.643-28.73-54.968-43.053-8.996-7.136-18.443-13.692-27.384-20.893-4.619-3.476-9.41-6.666-13.942-10.24-4.452-2.665-9.807-8.217-14.199-8.892-8.273 13.166-20.338 24.481-29.421 37.248-7.453 9.487-15.278 18.666-22.698 28.178a134 134 0 0 1-8.713 10.226c-3.332 2.42-9.022.7-12.748 1.348H1658v-115h61v41c19.733.383 39.618.31 58.976-4.106 13.525-2.621 26.736-6.469 39.977-10.15 9.285-3.614 21.563-5.711 27.846-11.715 2.638-6.998.165-17.693 1.201-25.122V958c12.489-3.318 29.176-9.032 36-19.5a12148 12148 0 0 0-117.5-87.5c-15.127 15.333-28.518 32.228-43.596 47.607-3.688 3.943-6.843 8.404-11.02 11.888-3.32 3.062-8.068 2.517-12.3 2.505H1658V805h202.8c11.413-.147 22.85.184 34.25-.11 8.306-.38 19.806-2.826 23.95-13.226-25.689-21.284-52.407-41.352-78.915-61.591-12.01-8.08-22.95-18.519-35.506-25.573-5.367 2.492-9.319 10.751-13.714 14.697-8.257 10.45-16.678 20.74-25.062 31.085-8.501 9.242-15.312 20.03-24.03 29.035-4.657 3.343-13.317.584-19.585 1.683H1094c.565 8.269 5.066 15.802 6 24h241v108h-27c-7.279-.457-16.246.892-22.69-1.306-44.5-16.717-88.868-33.93-133.31-50.694v307c27.635.96 55.498-1.724 81.502-11.806 12.058-4.56 24.368-8.938 35.254-16.043 2.737-1.705 5.465-3.638 7.394-6.255 2.792-4.796 1.487-10.872 1.85-16.135V1102h57v115h-281c.735 7.993 5.812 16.56 6 24m153 39h-10c-1.829 26.34-16.628 49.905-33.614 69.1-14.222 16.249-34.494 32.485-52.278 41.354-17.903 8.413-35.514 19.151-46.523 36.083-21.514 28.439-11.21 74.097 20.394 90.904 22.91 13.386 53.03 14.623 75.837.36 34.486-19.398 54.279-57.117 61.468-94.79 8.181-41.626 3.363-84.864-9.54-124.964-1.622-6.103-4.2-11.942-5.744-18.047m65-202h57V936h-28.8c-9.236 1.013-19.172-1.346-28.2 1zm421 267h-8c-6.986 18.348-16.64 35.732-24.509 53.714-7.618 14.594-15.19 29.73-26.694 41.753-12.329 10.642-30.243 7.982-45.207 9.208-29.576.796-59.16-.037-88.736.325-22.288-.354-44.614.46-66.886-.32-7.348-.59-16.926.239-22.935-3.579-6.466-4.489-4.793-13.063-5.033-19.16v-95.728c.601-4.284-1.025-10.224 1.346-13.352 10.443-3.371 25.038-7.004 26.654-22.861-26.122-.428-52.07-3.892-78.146-5.046-25.743-3.138-52.288-2.493-77.854-5.954v136.4c.665 32.523-3.024 66.343 7.266 97.88 3.324 10.456 10.647 21.704 18.897 27.567 16.26 12.441 37.481 15.03 57.036 17.679 32.749 3.601 65.768 2.172 98.643 2.474 33.453-.444 66.926.579 100.37-.404 32.556-1.383 65.32-2.73 97.437-8.636 21.82-3.716 47.971-11.342 64.043-24.355 13.641-11.436 19.458-29.746 18.215-47.046-.613-13.044-6.704-26.178-17.526-33.749-7.272-5.901-16.501-8.216-24.634-12.469-3.139-2.053-.872-8.678-1.76-11.589-.626-27.585-2.125-55.161-1.987-82.752m-344 1034.25c19.67 48.026 40.768 95.711 60.5 143.75 6.374-2.904 13.75-4.756 17.869-11.213 4.395-4.87 6.177-13.077 11.399-15.648 42.13-23.054 83.45-47.511 124.523-72.367 20.535-12.7 41.025-25.45 61.175-38.734 10.196-6.164 19.859-13.166 29.87-19.612 5.207-3.255 10.064-6.999 15.148-10.41 4.968-2.801 10.062-8.355 15.516-9.016 16.136 34.314 40.376 64.946 66.602 92.102 27.245 26.566 56.658 52.397 89.398 71.898 5.888-26.072 21.049-54.565 36.824-73.18 18.672-20.942 43.415-36.377 71.176-41.82.012-3.03.485-6.023 1-9-39.556-11.376-78.473-25.874-115.711-43.498-18.5-8.396-36.37-18.037-53.616-28.752-8.427-5.266-16.507-10.988-24.381-17.016-4.058-2.963-8.04-6.028-11.81-9.351-3.241-2.915-9.015-6.547-9.482-10.383 34.753-10.085 68.595-23.765 102.163-37.243 16.732-6.58 33.07-14.046 49.529-21.245 9.121-5.16 17.313.134 26.694.44 9.332 1.125 18.515-2.115 24.614-9.452-17.179-13.327-34.954-25.952-52.301-39.073-9.022-6.38-17.653-13.297-26.565-19.805-4.418-3.145-8.844-6.243-13.108-9.597-3.876-3.11-9.967-6.272-10.026-11.025 8.61-1.509 18.785-8.57 25.063-11.738 5.323-2.756 7.576-6.844 6.936-12.283.002-5.602 0-11.194.001-16.794V1822c12.808-2.62 28.223-9.564 36-19-38.74-30.768-79.85-59.05-118.5-90-12.855 13.144-24.28 27.618-37.396 40.516-6.366 6.707-12.351 13.795-18.7 20.515-3.472 3.776-9.843 2.966-14.455 2.969H1712v-102c11.506-.79 28.186-4.986 29-22-53.013-4.033-106.68-7.373-159.5-12-1.426 44.88.26 90.058-.5 135-13.966 3.483-27.337-4.143-40.13-8.536-38.977-14.83-78.601-28.205-117.37-43.464-1.426 215.873.26 432.062-.5 648-20.614 2.652-41.332 4.849-62 7zm74-1119.5c36.195 38.158 65.992 84.584 80.915 135.438 1.349 7.601 7.328 9.913 13.387 12.432 22.184 10.554 49.872 10.719 69.892-5.026 18.461-14.503 29.127-40.076 24.084-63.36-8.347-34.495-40.033-56.25-71.416-67.47-33.644-13.446-70.368-15.22-106.047-16.591-4.146-1.06-8.04 2.486-10.815 3.827zM1530 913V805h-63v85.04c.29 6.81-.513 15.078.667 21.195 3.074 3.468 11.387.645 15.213 1.765zm-63 304h63v-115h-63zm1-140h62V936h-62zm84 848h197v-124h-197zm0 160h197v-135h-196v68.4c-.758 21.512 1.092 46.96-1 66.6m0 269c45.819-5.227 91.332-13.64 137-20-.23-5.166-3.69-9.441-5.275-14.193-28.542-66.927-44.633-138.838-53.725-210.807h-78zm250-209c-8.428.732-16.705 3.07-25.233 2.918-9.258.194-18.521-.002-27.767.082v-39h-107c7.23 35.633 27.583 74.314 44.7 102.491 10.583 15.378 21.892 30.307 35.09 43.53 4.094 4.328 8.134-2.648 10.259-5.458 8.045-11.013 16.015-22.096 23.814-33.275 8.511-11.305 15.944-23.399 24.115-34.927 4.025-5.994 7.594-12.251 11.854-18.085 3.114-5.671 9.78-12.696 10.168-18.276m-144-1067h61V950.8c-.175-5.814 1.693-14.58-5.133-14.71-18.624-.256-37.25.046-55.867-.09zm34 210.75c54.05 60.347 100.52 131.675 118.806 211.765 1.267 8.653 13.422 13.343 21.958 17.586 17.064 8.921 37.248 10.132 55.039 2.746 26.522-10.092 42.917-37.627 43.988-65.282 1.76-28.3-11.169-55.293-27.952-77.14-23.619-28.926-56.191-49.132-89.942-64.094-36.07-15.238-74.746-23.86-113.408-29.12-3.076-.506-6.27 1.9-8.489 2.789z" style="fill:#fda;fill-rule:evenodd;stroke:none"/><path d="M338 2761.5c387.06 1.426 774.925-.26 1162.15.5 387.224-.76 774.71.926 1161.85-.5-77.265-456.459-152.125-914.01-228.874-1370.691-28.417-170.851-56.988-341.657-85.4-512.497-12.491-74.824-24.942-149.684-37.431-224.508-5.828-35.176-11.741-70.32-17.569-105.492-3.54-17.097-4.968-34.714-9.072-51.664-1.3-3.941-8.915-3.966-11.797-5.85-133.175-44.44-266.372-88.79-399.558-133.193-116.482-38.867-233.005-77.647-349.48-116.505-6.56-1.974-12.94-4.527-19.527-6.382-6.558-1.31-12.878 2.396-19.017 4.029-100.339 33.452-200.674 66.889-301.01 100.324-87.802 29.33-175.659 58.504-263.446 87.829-38.52 12.817-77.015 25.657-115.52 38.495-18.005 5.974-35.995 12.026-54 18-8.822 2.95-17.652 5.903-26.471 8.83-4.346 1.012-8.371 2.451-8.57 8.208-90.761 544.76-181.624 1089.514-272.367 1634.27-35.423 208.458-69 418.87-104.891 626.797m111-95v1.5h2102v-1.5c-63.81-378.768-126.215-757.87-189.705-1136.696-47.349-283.998-94.654-568.016-142-852-4.398-26.67-8.911-53.338-13.325-80.003-1.118-6.656-2.232-13.342-3.35-19.985-.571-3.586-1.119-7.183-2.096-10.662-1.288-2.958-6.82-3.128-9.193-4.54-101.51-33.828-203.017-67.663-304.512-101.514a746151 746151 0 0 1-266.522-88.84c-39.072-12.89-78.06-26.135-117.144-38.98-4.713-1.335-9.273 1.032-13.839 2.453-144.507 48.104-288.95 96.378-433.449 144.467-54.18 18.08-108.385 36.116-162.566 54.195-23.808 7.923-47.625 15.882-71.434 23.805-5.676 1.96-11.407 3.738-17.06 5.726-6.564 1.113-6.72 8.744-7.34 13.268C740.08 921.349 682.77 1265.54 625.383 1609.692 566.339 1961.663 508.308 2314.864 449 2666.5" style="fill:gray;fill-rule:evenodd;stroke:none"/><path d="M1467 1078h63v-2c-19.637-.079-40.998.079-61 0 .76-46.503-.926-93.679.5-140h-2.5zm85.5 1004c2.69-3.846.806-10.681 1.5-15.895V1951h171.6c7.536.986 16.83-1.319 22.9 1 .384-.972.51-1.963.5-3h-197c.76 44.24-.926 88.88.5 133" style="fill:#bfa67f;fill-rule:evenodd;stroke:none"/><path d="M1045 2269.332c1.36 2.442 3.746 5.152 5.5 7.668 69.497-35.537 136.913-78.156 193-133 1.456 30.711-1.478 61.828-2.589 92.553-1.631 22.216-3.76 44.42-7.981 66.318-3.365 16.516-6.684 33.396-14.605 48.463-5.09 10.397-11.555 21.47-22.517 26.665-8.638 3.955-18.346 4.322-27.652 3.857-28.34-2.132-57.586-1.732-85.656-4.856-2.434 2.838-2.024 10.24 2.665 11.494 25.36 7.664 54.19 24.957 66.476 46.869 12.389 27.374 10.696 58.43 12.359 87.637 27.824-.286 55.837-3.319 82.609-11.157 18.675-5.46 36.693-14.756 50.124-29.076 20.164-20.248 33.09-46.863 43.82-72.916 10.777-27.628 16.705-56.8 22.254-85.798a817 817 0 0 0 9.193-129.368c.877-64.637-5.032-129.248-17.344-192.702-11.623-59.03-34.022-116.554-67.656-166.483 21.575-21.623 41.834-44.495 61.493-67.868 9.786-11.598 18.978-23.662 28.248-35.655 4.477-7.496 15.652-3.934 22.712-5.518 6.618-1.913 15.583-7.013 16.547-13.459-50.986-23.044-99.012-52.97-150-76-12.648 41.181-32.473 79.87-50 119-3.7-.4-5.954-3.862-8.86-5.883-40.697-32.826-87.07-58.018-134.64-79.117l-7.5 7.5c25.927 22.75 51.358 46.292 72.769 73.494 15.911 19.894 30.517 40.935 42.67 63.353 2.144 4.114-1.98 9.393-3.613 12.418-18.379 29.807-36.018 60.095-56.62 88.466-10.56 14.44-21.31 28.752-32.59 42.635-5.987 6.85-11.354 14.212-17.684 20.758-5.299 6.82-12.476 12.491-16.932 19.876 2.495 2.243 4.497 4.844 6.5 7.5 57.441-26.527 108.764-64.563 157-105 2.63 8.428 5.388 18.745 7.29 26.649 1.45 8.339-2.708 16.327-4.517 24.36-17.127 59.696-40.907 117.435-70.74 171.9-29.093 51.387-61.876 101.897-103.533 144.091zm13-1053.082c2.458 7.773 5.901 19.043 7 25.75h834.6c14.12-.148 36.704 3.847 44.4-14.5-18.81-15.777-38.205-30.831-57.8-45.61-19.763-14.638-38.822-30.626-59.513-43.89-20.191 24.505-40 49.441-60.096 74.031-5.074 6.185-16.916 3.076-25.353 3.969H1659v-113h59v41c20.187.384 40.538.493 60.355-3.992 13.721-2.624 27.163-6.517 40.598-10.265 9.363-3.735 22.043-5.705 28.208-12.087 1.857-8.215.101-17.494.839-25.949V959c14.306-3.126 28.075-9.573 38-20.5-40.342-29.438-80.258-59.878-120.5-89.5-14.368 14.938-30.172 33.424-43.243 47.229-3.888 3.886-7.107 8.367-11.13 12.12-5.53 5.614-16.933 2.906-25.374 3.651H1659V806h220.8c8.814.016 17.796.554 26.39-1.82 5.796-1.353 15.007-8.138 12.78-14.031-17.97-16.172-37.978-30.032-56.871-45.088-9.437-7.543-19.33-14.515-28.87-21.91-9.783-6.511-20.198-16.357-29.885-21.151-17.822 21.343-35.01 43.22-52.68 64.687-4.066 4.065-7.524 11.138-12.232 12.834-215.395 1.366-430.992-.248-646.432.479 1.794 8.789 5.38 17.184 7 26h241v106h-27c-7.379-.034-16.345.725-22.707-2.077-44.134-17.23-88.946-33.036-132.793-50.923-1.426 103.21.26 206.72-.5 310 14.437-.211 29.053.792 43.346-1.751 19.872-3.099 39.33-8.914 57.774-16.922 8.273-4.134 18.985-8.439 24.727-15.009 3.145-4.602 1.812-10.777 2.153-15.969V1103h55v113h-282zm162 62.75c-3.521.001-7.114.095-10.5-1-7.372 41.517-35.074 77.77-69.959 100.977-12.742 9.37-27.931 14.61-40.864 23.62-10.688 7.541-21.547 19.03-27.344 29.723-12.995 21.375-7.318 53.492 6.475 70.646 23.502 28.901 69.544 34.329 99.833 13.583 31.07-19.422 49.515-53.915 56.916-88.928 10.264-46.85 3.562-95.541-11.963-140.318-.802-2.696-2.068-5.785-2.594-8.303m65-202h55V937h-27.6c-8.935 1.073-18.7-1.406-27.4 1zm421 267h-10c-6.913 18.178-16.483 35.382-24.278 53.196-7.29 14.647-15.244 29.304-26.195 41.577-10.864 11.038-30.934 8.882-44.783 9.865-29.352.833-58.744.012-88.091.362-22.076-.345-44.177.445-66.237-.3-7.435-.485-16.71.06-22.973-3.244-6.653-4.322-5.392-12.732-5.443-18.915v-95.127c.763-3.827-1.497-11.349 2.452-13.005 13.931-2.46 23.008-10.255 26.548-22.909-.458-.45-.911-.96-1.25-1.5-52.595-2.847-105.245-7.08-157.75-11v137.43c.705 32.845-3.08 66.994 7.266 98.85 3.324 10.456 10.647 21.704 18.897 27.567 16.409 12.57 37.849 15.057 57.562 17.75 32.975 3.56 66.213 2.048 99.316 2.403 33.619-.449 67.222.58 100.819-.392 32.865-1.376 65.918-2.751 98.328-8.749 21.936-3.753 48.316-11.52 64.253-24.92 13.844-11.859 18.694-30.637 17.482-48.127-.571-12.923-6.447-26.047-17.104-33.679-7.211-6.037-16.463-8.398-24.643-12.587-3.513-1.59-1.431-8.408-2.184-11.207-.585-27.779-2.158-55.55-1.992-83.339m-347 1034.25c19.735 48.652 42.06 96.808 61 145.75 7.094-.694 14.769-5.084 19.128-9.789 4.884-4.053 7.053-12.948 11.022-16.101 41.912-23.281 83.376-47.343 124.314-72.278 40.956-25.292 81.578-51.258 121.036-78.832 34.664 68.983 93.187 122.702 156.5 165 2.588-2.01 3.03-6.683 4.352-10.088 8.366-24.45 19.456-48.736 37.75-67.514 18.016-19.386 41.983-32.949 67.898-38.398.174-3.683.7-7.334 1-11-38.995-11.404-77.602-25.356-114.316-42.927-36.4-16.294-70.709-37.196-100.684-63.573 34.723-11.482 69.444-23.796 103.15-38.151 16.722-6.552 33.014-14.086 49.47-21.242 8.888-4.056 18.66 1.887 27.853.893 9.22.827 17.658-3.556 23.527-10.5-16.778-13.76-34.888-25.904-52.054-39.168-8.862-6.292-17.363-13.107-26.168-19.468-4.352-3.302-8.906-6.281-13.185-9.668-3.487-3.63-10.076-5.973-11.593-10.196 8.61-1.509 18.785-8.57 25.063-11.738 5.323-2.756 7.576-6.844 6.936-12.283.002-5.602 0-11.194.001-16.794V1823c13.083-2.832 29.871-9.983 37-20.5-34.15-26.19-68.977-51.549-103.076-77.812-4.523-3.181-8.75-6.738-13.275-9.898-4.677-4.379-8.365.072-11.142 3.583-10.714 12.916-23.21 24.243-33.901 37.16-5.812 5.729-11.995 13.104-17.25 18.395-3.715 2.87-8.735 1.862-13.155 2.072H1713v-100c7.007-.423 15.593-2.498 20.785-6.516 5.691-4.159 8.123-10.829 9.215-17.484-54.328-3.7-108.712-7.849-163-12v135c-14.106 3.341-27.284-5.646-40.366-9.292-39.354-13.732-78.102-29.664-117.634-42.708v648c-20.96 2.527-41.984 5.095-63 7zm74-1118.75c34.907 37.6 65.235 82.148 80.525 131.8 1.384 6.084 2.338 12.411 10.015 14.97 21.24 11.453 48.728 13.972 70.227 1.556 20.428-11.483 32.043-35.109 32.033-58.025-.678-17.894-11.116-37.336-22.902-48.403-17.96-19.218-47.6-31.067-70.265-37.25-27.913-7.35-56.824-9.041-85.53-9.95-2.502.34-6.292-.725-8.033.858-2.136 1.155-3.816 3.035-6.07 3.944zm96-347.5V806h-61v83.122c.175 6.705-.335 14.62.48 20.727.77 2.197 4.702 1.837 6.486 2.137 18.02.04 36.016-.007 54.034.014m-61 165h61V937h-61zm0 139h61v-113h-61zm85 708h195v-122h-195zm0 160h195v-134h-195zm0 269c45.074-5.962 90.042-13.272 135-20-31.57-70.37-49.63-146.598-59-223h-76zm172-97c27.972-34.112 50.488-72.602 76-108.5v-1.5c-17.432 3.656-35.297 3.319-53 3v-39h-105c15.329 53.865 41.793 106.357 82 146m-66-1179h59V952.8c-.533-4.873 1.817-15.09-4.033-15.596-18.312-.582-36.651.106-54.967-.204zm31 211.5c26.133 28.918 50.997 60.074 70.443 94.14 15.356 25.402 28.106 52.399 38.497 80.194 3.856 11.12 6.87 22.54 9.786 33.918 1 4.39 1.413 10.367 5.781 12.94 15.433 10.12 33.465 17.672 52.251 17.143 13.663-1.37 27.437-5.486 38.315-14.153 16.96-13.375 26.262-34.992 27.718-56.117 1.513-21.593-5.176-43.043-16.048-61.455-20.485-35.125-55.14-59.473-91.076-76.785-38.734-18.702-81.327-28.001-123.624-34.172-5.361-1.425-8.199 1.416-12.043 3.847z" style="fill:#000;fill-rule:evenodd;stroke:none"/></svg>