<svg xmlns="http://www.w3.org/2000/svg" width="3000" height="3000"><path d="m1363 1766.5 1.656-.5h114c10.278.313 22.825 1.301 33.344-5.75-15.625 38.886-34.456 76.828-56.613 112.415-2.266 4.54 5.039 8.924 8.254 11.093 3.52 2.572 9.598-3.403 12.653-4.271 27.555-14.872 53.22-32.975 78.28-51.646 18.472-14.582 37.017-29.17 53.796-45.711l9-9c2.835-2.595 5.9-6.705 9.63-7.13 7.986 16.87 17.126 33.573 22.384 51.672 5.18 14.347 6.97 29.46 8.23 44.506.749 4.373 6.077 7.61 10.505 10.394 30.234 20.794 79.693 12.204 96.646-22.072 8.7-16.626 6.205-37.462-4.576-52.522-10.152-14.452-28.668-25.295-43.189-31.478 42.637-1.426 85.603.26 128.298-.5h48.597c13.197-.449 29.87 2.156 39.42-5.152 4.247-3.308 8.437-9.308 4.422-13.417-29.532-26.587-61.585-50.31-92.632-75.072-4.019-2.985-7.806-6.276-11.916-9.134-4.936-3.745-7.845-.545-10.214 3.462-17.661 24.122-37.998 46.872-54.975 71.313-39.568-.76-79.55.926-119-.5 9.115-9.769 17.828-22.918 25.292-32.586 2.612-3.964 5.218-9.139 10.986-9.095 9.12-.87 19.77-4.994 25.593-11.221 4.115-3.834 9.464-13.452-.25-14.446-20.87-5.197-41.723-10.466-62.594-15.647-15.434-3.84-30.856-7.716-46.282-11.567-15.22-2.936-32.602-9.28-46.745-10.938-10.687 39.601-23.298 78.707-38 117h-1.5c-17.627-17.633-36.506-33.92-55.535-50.023-7.256-6.083-14.251-12.447-21.463-18.575-6.37-4.54-12.514-11.609-18.614-15.387-3.29-2.301-6.302 3.39-7.967 5.216-15.597 21.207-30.96 42.576-46.397 63.892-4.132 5.997-14.278 3.048-20.413 3.877-22.626-.755-45.604.921-68.111-.5 3.826-4.553 6.597-9.894 10.109-14.674 2.927-4.39 5.727-8.89 9.153-12.888 8.288-2.307 18.95-.34 27.753-6.66 2.982-1.761 5.424-4.213 7.208-7.171 1.288-2.092 3.27-6.358.835-7.548-19.439-8.367-39.924-14.383-59.674-22.01-15.916-6.25-32.24-11.4-48.165-17.6-8.219-2.873-16.308-6.047-24.52-8.892-7.65-2.117-16.255-7.019-23.699-7.057-14.613 62.533-37.433 123.272-64.28 181.55-10.644 21.955-21.635 43.761-34.607 64.432-5.143 8.976-11.102 17.418-16.797 26.043-.964 2.221-3.761 4.428-3.817 6.31-.1 2.152 3.207 3.725 4.365 5.049 6.835 7.048 18.953-1.88 25.28-5.36 61.471-34.504 116.58-80.449 161.671-134.58 2.781-3.298 5.68-7.552 8.93-9.861 4.552-.806 9.257-.554 13.872-.582 9.461-1.48 11.618 8.806 14.227 15.617 5.025 13.233 8.747 27.03 10.792 41.028 2.533 10.755.468 23.822 1.909 33.737 20.431 22.512 58.405 28.955 84.21 11.72 18.038-11.39 29.18-34.055 23.447-55.204-5.04-21.586-24.106-36.02-42.202-46.399M1078 1071c16.73-.26 33.418-6.527 50-6.5-21.299 27.082-30.137 61.551-37.474 94.461-6.757 35.848-9.066 72.825-4.526 109.039 4.42-.082 8.682-4.79 11.352-6.9 9.711-9.418 20.103-18.075 30.148-27.1-3.891 28.859-5.288 64.231-.463 90.783 2.841 14.143 8.874 27.357 12.262 41.355 4.828 14.227 3.055 29.356 1.701 43.862 14.576.364 27.694-9.402 35.5-21 17.591 56.613 53.726 111.048 107.5 139 2.178-1.748 2.09-5.772 2.844-8.777.8-4.105 1.698-8.187 2.473-12.292 1.074-4.023 1.046-10.08 3.183-12.931 10.635 22.011 22.656 43.733 38.648 62.412 8.75 9.377 17.893 18.507 28.113 26.276 9.593 7.191 20.026 15.612 32.739 15.312.618-10.235-.784-20.888.5-31 16.847 15.816 37.835 26.31 55.636 40.908 13.996 11.248 25.847 24.763 37.205 38.555 2.049 2.27 4.021 5.44 6.319 7.087 2.847 2.887 5.826-.75 7.507-2.538 28.315-36.124 67.132-61.806 106.576-84.17 8.755-5.236 17.945-9.746 26.757-14.842-3.351 12.926-13.844 29.752-3.206 41.844 2.555 4.173 6.848-.37 8.458-2.038 8.069-7.183 16.65-13.792 24.38-21.352 12.678-10.341 24.088-22.092 35.6-33.687 12.222-12.27 24.1-24.836 35.122-38.186 5.42-6.46 10.179-13.454 15.014-20.333 4.036-6.679 9.683-14.822 10.132-22.248h2c2.68 7.834 8.155 14.614 11.171 22.355 2.011 4.004 4.002 8.02 6.006 12.011 2.024 3.593 3.748 9.284 7.823 9.634 32.928-54.6 48.524-118.265 61.5-180 3.025 5.21 9.077 10.814 13.321 16.56 4.448 4.182 8.841 13.294 14.179 14.44 8.742-30.452 16.21-61.67 14.912-93.68-1.167-32.198-4.934-64.36-10.912-96.004 12.212 10.285 26.805 20.991 44 19.684-.361-5.165-4.464-11.172-6.466-16.863-16.737-36.341-25.762-76.728-49.534-109.637 9.182-1.546 20.31.435 28.604 1.735 9.02 1.05 19.064 5.444 27.396 5.765 1.087-35.193-4.867-71.276-22.557-102.205-14.335-28.545-38.763-54.72-70.443-63.295 10.758-10.71 21.614-25.457 26.147-38.682 4.914-16.426 2.41-36.55.853-51.818-5.953.28-12.19 6.2-18.33 9.051-18.328 9.406-36.846 19.052-56.67 24.949v-1.5c8.27-9.753 14.749-23.62 20.559-33.69 4.974-12.812 12.982-27.866 13.441-40.81-5.907.42-11.984 4.36-17.005 6.064-36.676 15.27-73.394 32.62-109.995 47.436 5.606-16.76 10.66-34.346 19.695-49.865a465 465 0 0 1 12.849-22.5c3.397-7.095 11.618-15.521 12.456-22.135-30.37-7.778-62.634-8.621-92.707 1.198-26.746 9.134-55.315 27.726-73.793 45.802-.966-10.416 5.492-22.425 8.382-31.186 2.057-4.802 4.47-9.436 6.395-14.299 2.03-4.574 5.572-9.76 5.723-14.515-20.46 1.473-40.546 10.064-56.327 22.953-13.66 13.514-29.139 31.418-35.673 48.047h-2c-2.631-6.963-10.8-14.248-14.475-18.975-16.438-18.017-41.119-25.662-64.765-28.232-19.71-1.726-39.458-2.955-59.057-5.799-9.401-1.049-19.868-5.044-27.541-8.93-8.233-2.635-16.93-12.338-24.162-13.064-1.71 12.774-3.699 28.51.228 40.095 3.995 12.369 11.64 23.275 20.772 32.405-36.018.588-72.312-8.313-106.266-19.811-3.77-1.396-8.094-3.602-11.795-4-2.684-.973-2.885 2.533-3.296 3.914-4.631 14.405-2.729 30.242 4.808 43.271 6.495 11.806 17.461 23.46 25.549 32.626-17.046 1.588-37.512-1.751-53.13-2.609-8.746-1.103-17.473-2.347-26.081-4.235-7.8-1.303-16.49-5.521-23.789-5.656-5.547 15.823-4.279 33.334 3.275 48.49 6.999 14.381 16.329 27.778 27.725 39.01-29.287 11.46-54.57 33.82-67.293 63.022-13.69 30.869-15.88 65.276-15.707 98.478m30 1447c27.967.975 56.716.097 82.691-11.814 11.874-5.055 23.78-10.82 33.564-19.34 6.35-5.449 6.283-12.194 5.745-19.333V2445h68v51c35.347 1.46 70.635-3.939 103.554-17.224 3.989-1.673 8.077-3.061 11.9-5.076 4.234-1.596 5.2-6.282 4.546-9.799V2291c8.524-.831 18.048-5.329 24.45-9.677 2.92-2.366 8.246-5.029 8.054-8.789-.593-3.69-6.869-6.233-9.077-8.693-8.891-6.837-17.924-13.438-27.002-20.002a25195 25195 0 0 1-46.34-34.766c-8.003-5.657-15.464-12.082-23.69-17.405-4.689-1.198-8.65 4.094-11.448 7.167-3.018 3.89-6.552 7.327-10.049 10.767-5.633 6.354-11.205 12.747-17.444 18.53-4.173 4.992-8.52 9.82-13.327 14.216-3.817 4.36-8.797 3.72-14.106 3.652H1230v-99h65v39c40.448 1.46 80.923-4.221 119-18v-151c8.69-.341 18.176-4.737 25.183-8.133 2.934-1.924 9.613-4.843 7.864-8.715-2.632-3.441-5.848-6.45-8.917-9.522-8.982-9.187-17.406-18.87-26.732-27.732-12.913-12.711-24.47-26.672-37.373-39.373-1.644-1.604-3.216-3.293-4.93-4.821-1.043-.723-3.37-3.37-4.96-1.743-5.194 4.287-8.968 10.178-13.72 14.953-4.41 5.07-9.63 10.975-13.672 15.626-4.32 5.17-9.003 10.041-13.327 15.2-3.62 5.071-9.048 4.37-14.62 4.26-16.83-.714-34.088.88-50.796-.5 18.002-14.314 37.101-27.303 54.841-41.957 4.667-3.622 9.01-7.727 13.855-11.113 7.887-3.574 17.466-2.984 24.7-8.42 7.139-4.455 12.754-12.381 12.604-21.01-53.69-6.721-106.351-21.039-160-28-.178 32.933 2.257 66.176-.5 99-15.05-7.754-31.723-12.392-46.998-19.729-8.19-3.449-16.513-6.558-24.644-10.122-7.73-2.39-16.321-7.78-23.858-8.149zm46.268-1537.072c1.875 35.09 24.063 64.074 46.744 88.495 5.154 4.202 13.073 9.238 9.971 17.675-15.206 58.67 5.301 120.56 40.41 167.763 25.383 35.146 57.57 65.13 93.276 89.565 6.664 4.663 13.424 9.2 20.32 13.502 9.045 3.854 6.998 12.674 7.818 19.664 4.895 58.086 54.702 109.973 113.414 113.746 29.73 2.85 59.634-8.529 82.41-27.066 21.268-18.207 37.817-42.832 43.915-70.437 1.448-5.93 2.402-11.958 2.97-18.033.68-5.37-.603-12.735 3.803-15.545 68.44-41.955 131.558-102.25 155.538-181.355 6.284-21.103 8.734-43.348 6.538-65.276a149 149 0 0 0-3.944-24.855c-.466-2.945-2.016-8.04-.065-10.093 17.751-17 34.862-35.748 45.457-58.333 6.079-11.752 10.075-24.651 10.951-37.884.637-13.16-4.323-26.03-12.185-36.32-8.264-11.343-21.184-18.78-34.35-22.81-25.805-6.95-53.057 2.738-75.236 15.589-9.266 5.478-19.84 12.69-26.998 19.555-2.076 1.593-4.142 4.74-6.475 5.028-20.35-7.278-41.042-15.223-63.153-15.332-36.538-2.048-80.077 10.053-107.148 30.129-5.14 2.696-10.571 11.828-15.825 10.996-4.97-3.998-9.14-9.038-14.514-12.59-40.604-27.515-93.843-35.25-140.861-22.711-5.82 1.638-11.53 3.655-17.146 5.852-4.057 1.326-9.127 5.778-13.45 1.917-12.597-12.618-27.756-22.385-43.84-29.936-17.196-7.758-36.407-12.968-55.345-9.928-28.56 4.425-52.182 29.918-53 59.028M1227 1045c4.893-4.222 6.167-11.304 10.132-16.224 5.336-7.763 10.567-15.675 17.065-22.53 3.199-3.689 6.2-7.596 9.935-10.792 3.279-3.15 8.62-6.144 8.868-10.454-15.947-8.596-36.251-26.742-60.043-17.17-24.067 10.76-16.784 41.673-5.105 56.325 6.247 6.771 11.645 17.713 19.148 20.845m3 1073h65v-123h-65zm0 298h68v-141h-68zm109-1337.61c-1.666 19.751 16.95 38.221 36.51 36.61 19.794 1.668 38.255-17.151 36.49-36.801 1.675-20.17-17.6-37.927-37.314-36.198-19.216-1.295-37.226 17.174-35.686 36.39m71 258.61c16.111-.506 32.536-1.105 47.938-6.494 6.935-2.404 14.378-6.85 20.207-10.12 6.482-3.082 10.407-9.835 16.355-13.386 10.15 10.437 22.426 19.53 36.626 23.603 15.054 5.282 31.126 5.726 46.874 6.397v-30c-12.787.253-25.847.179-38.149-3.925-10.846-3.334-19.976-10.693-27.851-18.575 21.525-13.456 36.439-35.14 46.532-57.895 2.42-6.46 4.544-13.118 5.226-20.01.826-8.7 2.47-21.102-9.97-25.304-10.095-2.583-20.667-3.12-31.022-3.291a1062 1062 0 0 0-47.487 0c-7.995.108-16.047-.303-24 .584-6.948 1.07-16.106 1.082-21.448 5.298-7.883 5.693-6.046 20.48-4.677 27.786 5.296 27.065 25.762 54.413 45.855 68.962 1.493 1.079 3.179 1.97 4.991 2.37v1.5c-18.633 20.718-41.527 23.635-66 22.5zm205 609v90c-14.252-.19-31.576 1.549-43.718-4.078a33200 33200 0 0 0-56.414-22.566c-9.525-3.834-19.074-7.592-28.587-11.434-9.138-2.992-19.414-8.886-28.281-9.922v448c17.816.316 35.771.757 53.25-3.349 12.117-2.944 24.24-6.33 35.583-11.588 8.511-3.788 16.794-8.194 24.095-14.036 7.223-4.744 6.262-13.65 6.072-20.394V2064h38v460c37.563.276 77.486.807 111.37-18.185 7.285-3.611 17.873-8.289 16.63-18.83V2314c22.365 5.497 30.525 25.79 34.739 46.163 4.013 22.673 2.67 45.936 3.261 68.837 17.446-.006 34.762-3.41 51.654-7.411 23.497-5.605 47.08-18.094 59.129-40.12 12.406-22.968 13.777-54.55 14.217-77.77V2084c12.535-3.183 30.039-7.051 39-21-32.637-25.852-67.224-49.628-100.076-75.312-4.387-2.644-8.76-7.233-13.233-8.855-4.264-1.646-8.28 4.815-10.713 7.198-10.46 12.307-21.73 23.922-32.087 36.32-5.25 5.155-9.77 14.34-18.947 13.648-8.987.002-17.961 0-26.944.001v-90c63.544-1.009 127.271 1.23 190.754-.664 6.79-1.104 14.47-3.388 18.261-9.715 4.284-6.78-2.356-10.817-6.389-14.114-32.547-27.201-66.12-53.092-100.152-78.401-3.228-1.922-9.124-8.397-12.072-5.367-11.141 12.84-21.08 26.788-31.89 39.911-9.563 13.414-21.539 25.7-30.512 39.35h-323.4c-6.394.48-15.54-.813-20.6 1 1.474 8.071 4.694 17.355 6.83 24.542 1.359 4.676 9.023 3.144 12.54 3.458H1615m-39-867.143c-1.39 19.57 17.118 37.31 36.178 36.139 20.18 1.695 37.801-16.562 37.546-36.313.27-19.664-16.899-38.392-37.324-36.681-19.661-1.448-37.982 16.902-36.4 36.855m140.495-91.946c-.28 3.464 5.287 5.619 6.717 7.86 8.838 8.723 16.907 18.294 23.953 28.509 3.628 4.825 6.522 10.059 9.5 15.281 1.373 2.168 3.342 6.663 5.976 5.72 2.185-1.914 4.605-3.578 6.427-5.905 6.22-7.046 11.894-14.63 16.595-22.765 5.322-8.985 6.517-19.65 4.89-29.854-2.265-13.788-17.731-21.788-30.597-20.448-13.623.96-26.025 7.366-37.01 15.06-2.592 1.162-4.637 3.668-6.496 4.982.015.462.025.927.045 1.56M1743 2299c6.595.363 13.152.951 19.747.994 8-.145 21.384 3.014 22.783-9.625 1.031-9.838.065-19.794.47-29.65V2064h-43z" style="fill:#fff;fill-rule:evenodd;stroke:none"/><path d="M338 2761.5c387.06 1.426 774.925-.26 1162.15.5 387.224-.76 774.71.926 1161.85-.5-77.265-456.459-152.125-914.01-228.874-1370.691-28.417-170.851-56.988-341.657-85.4-512.497-12.491-74.824-24.942-149.684-37.431-224.508-5.828-35.176-11.741-70.32-17.569-105.492-3.54-17.097-4.968-34.714-9.072-51.664-1.3-3.941-8.915-3.966-11.797-5.85-133.175-44.44-266.372-88.79-399.558-133.193-116.482-38.867-233.005-77.647-349.48-116.505-6.56-1.974-12.94-4.527-19.527-6.382-6.558-1.31-12.878 2.396-19.017 4.029-100.339 33.452-200.674 66.889-301.01 100.324-87.802 29.33-175.659 58.504-263.446 87.829-38.52 12.817-77.015 25.657-115.52 38.495-18.005 5.974-35.995 12.026-54 18-8.822 2.95-17.652 5.903-26.471 8.83-4.346 1.012-8.371 2.451-8.57 8.208-90.761 544.76-181.624 1089.514-272.367 1634.27-35.423 208.458-69 418.87-104.891 626.797m112-95c349.66 1.426 700.125-.26 1049.95.5 349.946-.76 700.184.926 1050.05-.5-71.115-419.63-139.844-840.338-210.448-1260.2-26.214-157.169-52.393-314.328-78.582-471.499a856355 856355 0 0 0-34.418-206.502c-5.388-32.32-10.783-64.67-16.17-96.99-2.588-15.664-5.232-31.299-7.827-46.958-.793-4.36-1.427-8.742-2.21-13.102-.428-4.863-4.85-6.193-8.474-7.135-122.028-40.638-244.03-81.373-366.052-122.014-106.682-35.522-213.343-71.109-320.006-106.667-6.525-2.525-11.758-.06-17.468 1.947-92.703 30.905-185.37 61.816-278.08 92.691-81.01 26.99-161.996 54.033-243 81-35.467 11.86-70.965 23.65-106.438 35.486-16.678 5.533-33.31 11.15-49.99 16.655-3.243 1.458-10.117 2.375-10.586 5.954-85.805 510.194-170.013 1020.748-255.437 1531.015-32.076 188.3-62.276 378.547-94.814 566.319" style="fill:#747474;fill-rule:evenodd;stroke:none"/><path d="M449 2666.5v1.5h2102v-1.5c-63.81-378.768-126.215-757.87-189.705-1136.696-47.349-283.998-94.654-568.016-142-852-4.398-26.67-8.911-53.338-13.325-80.003-1.118-6.656-2.232-13.342-3.35-19.985-.571-3.586-1.119-7.183-2.096-10.662-1.288-2.958-6.82-3.128-9.193-4.54-101.51-33.828-203.017-67.663-304.512-101.514a746151 746151 0 0 1-266.522-88.84c-39.072-12.89-78.06-26.135-117.144-38.98-4.713-1.335-9.273 1.032-13.839 2.453-144.507 48.104-288.95 96.378-433.449 144.467-54.18 18.08-108.385 36.116-162.566 54.195-23.808 7.923-47.625 15.882-71.434 23.805-5.676 1.96-11.407 3.738-17.06 5.726-6.564 1.113-6.72 8.744-7.34 13.268C740.08 921.349 682.77 1265.54 625.383 1609.692 566.339 1961.663 508.308 2314.864 449 2666.5m608-755c3.314 2.568 6.773 5.899 10.465 7.003 4.455-1.131 8.624-3.607 12.744-5.658 40.577-22.207 78.07-49.65 112.42-80.558 6.963-5.772 12.89-12.718 19.473-18.89 11.823-11.73 23.166-23.903 33.724-36.788 4.463-5.408 7.807-12.83 17.26-11.609 6.294.226 15.982-2.143 18.85 6.021 10.738 24.6 16.859 51.24 16.065 78.107-.74 9.505 11.172 15.294 18.063 19.409 28.545 17.696 72.156 6.604 85.353-25.426 7.406-15.37 4.315-34.474-5.71-48.009-9.713-12.923-23.47-22.358-37.707-29.602 27.564-1.426 55.419.26 83.034-.5h41.908c11.292.048 27.043 1.21 32.058-14.602-30.695-30.219-64.362-57.391-97-85.398-17.63 21.765-32.751 45.796-49.933 67.982-3.917 8.017-13.382 5.93-20.757 6.018-24.034-.758-48.363.925-72.31-.5 3.72-5.544 7.374-11.132 11.109-16.674 2.787-3.902 5.553-8.881 8.552-12.114 6.95-4.068 15.571-.511 22.894-4.63 8.135-2.626 11.792-8.069 15.445-14.582-25.082-11.248-52.234-18.52-77.75-28.92-13.165-4.593-26.117-9.714-39.309-14.208-6.551-2.414-13.159-4.68-19.679-7.141-6.268-1.729-13.255-5.7-19.262-6.231-11.328 49.697-28.67 98.089-48.064 145.17-19.84 46.007-42.09 91.951-71.936 132.33m22-841.5h1.5c16.752-2.194 33.8-5.882 50.5-7.5-21.554 27.445-31.926 61.725-39.079 95.342-6.886 35.91-9.715 72.846-4.921 109.158h1.5c13.129-12.233 26.885-23.757 40-36-2.062 30.22-7.073 61.707-.595 92.104 2.718 14.243 8.844 27.53 12.271 41.58 4.468 14.355 3.678 29.693 1.824 44.316 14.507-.487 26.399-10.844 34.5-22 3.563 5.493 4.644 14.75 8.244 21.672 18.747 48.98 53.129 92.003 98.756 118.328 4.69-11.864 4.338-25.744 8-38 11.105 22.348 22.648 44.832 38.772 64.073 8.016 9.716 19.154 19.618 27.936 27.037 9.371 7.28 21.308 16.603 32.792 16.89.666-10.901-.832-22.21.5-33 16.002 16.41 37.05 26.468 54.761 40.686 9.307 7.132 17.771 15.366 25.671 24.01 3.821 4.419 7.697 8.736 11.43 13.216 4.134 3.534 6.811 10.174 11.138 12.088 37.453-47.196 90.03-79.149 143-106-7.588 13.331-18.258 34.098-5.5 47 24.756-21.14 49.319-42.777 71.87-66.37 11.496-11.591 22.503-23.738 32.446-36.709 9.382-12.374 18.967-25.443 22.184-40.921 8.846 15.681 16.178 32.35 25 48 17.547-26.442 28.426-56.797 38.536-86.689 10.296-31.105 17.756-63.136 23.464-95.311 8.903 11.071 18.212 21.848 27 33 9.909-30.342 16.398-62.438 15.313-94.561-.6-32.454-6.219-64.428-10.813-96.439h1.5c11.123 11.5 26.056 20.895 42.5 21-19.49-41.775-31.255-87.797-57-126.5 19.403-3.065 38.358 3.75 57 7.5.879-34.943-5.465-70.843-23.194-101.436-14.325-29.232-39.722-53.144-70.806-63.064 10.784-10.68 21.756-25.264 26.714-38.322 5.424-16.115 2.91-36.106 1.286-51.178-6.534 2.13-11.74 7.235-18.003 9.973-19.02 10.397-39.172 18.78-59.497 26.027 2.31-6.304 8.89-12.713 11.459-18.463 10.724-17.852 21.787-40.518 25.041-59.537-21.58 8.091-42.292 18.62-63.684 27.232-20.772 9.575-42.225 17.87-62.816 27.768-.614-8.307 5.462-17.904 6.969-25.856 9.347-24.364 22.471-47.409 37.531-68.644V724c-15.543-3.124-31.16-7.056-47.227-6-45.657-.093-86.538 24.402-119.273 54-1.7-10.67 4.39-22.845 7.386-31.732 3.38-10.17 9.533-19.235 13.114-29.268-20.455 2.663-40.905 10.65-56.228 24.741a203 203 0 0 0-20.048 22.98c-2.788 3.938-5.58 7.893-8.082 12.018-2.684 3.619-4.836 9.783-7.642 12.261-10.854-12.923-20.79-28.341-36.746-35.888-24.683-12.895-52.872-13.242-79.809-15.332-13.266-1.828-26.943-2.202-39.656-6.696-6.257-2.067-12.106-5.205-17.913-8.269-5.42-2.632-10.573-8.137-15.876-9.815-2.07 13.003-3.631 29.046 1.103 40.643 4.396 12.306 12.64 22.826 21.897 31.857-10.242 1.503-22.642-1.212-32.035-1.583-30.622-3.214-61.227-10.735-89.465-22.917-8.741 18.082-3.368 40.456 9.183 55.44 6.591 8.769 13.55 17.31 21.317 25.06-35.25 2.206-71.054-3.884-105-12.5-14.093 34.906 14.95 65.46 32 88-21.578 5.912-39.933 21.123-53.76 38.214-14.49 18.306-22.503 40.944-26.241 63.77-3.33 18.877-4.257 37.943-3.999 57.016m30 1447c27.764.882 56.345-.25 82.015-12.38 11.346-4.664 24.324-11.513 32.641-19.176 6.115-5.648 5.794-12.4 5.344-19.523V2444h70v51c34.842 1.36 69.615-4.363 102.031-17.416 4.022-1.673 8.164-3.082 11.979-5.196 4.14-2.104 4.126-6.173 3.99-10.086V2290c10.648-1.473 25.88-7.62 33-17.5-34.475-26.814-70.16-52.248-104.894-78.734-4.296-3.659-9.678 5.035-12.243 7.435-13.302 14.22-26.462 28.573-40.08 42.482-3.505 4.104-10.135 3.407-14.955 3.317H1229v-101h67v39c39.787 1.436 79.562-4.545 117-18v-151c11.958-.95 25.918-7.105 34-14.5-28.207-27.208-53.937-56.716-81.5-84.5-14.292 15.652-27.811 32.03-42.011 47.765-3.75 4.509-11.356 2.967-16.466 3.235-17.578-.72-35.562.887-53.023-.5 18.6-14.087 37.523-27.8 55.784-42.332 4.743-3.618 9.196-7.544 13.844-11.265 5.86-4.619 16.82-3.881 24.327-8.478 7.541-4.024 14.46-11.491 15.045-20.425-52.976-7.142-105.12-20.11-158-28 .632 33.014 1.369 66.008 0 99-32.517-10.708-63.448-27.418-96-38zm569.5-1554c-29.978-14.67-65.193-19.11-98.104-14.123-32.178 4.299-63.39 17.857-86.896 40.123-22.102-23.706-54.498-34.684-85.616-40.098-33.173-5.493-68.123-.026-98.45 14.098-19.223-21.16-50.264-36.936-75.794-41.875-29.216-6.152-63.691 7.795-75.493 36.69-8.61 19.511-4.186 41.9 4.538 60.493 8.143 18.808 21.312 34.433 34.805 49.499 3.625 4.386 9.063 7.078 12.17 11.93 1.796 1.667.253 5.383-.053 7.885-9.937 41.84-3.644 86.839 15.323 125.217 17.136 37.18 43.897 68.67 73.202 96.707 16.495 14.391 33.498 28.186 51.825 40.187 4.108 2.85 8.415 5.347 12.506 8.226 3.262 2.128 8.125 3.882 8.458 9.015.982 37.356 18.136 73.919 47.05 97.787 21.176 18.407 48.77 28.091 76.689 28.102 42.42.308 81.882-24.36 103.309-60.338 10.846-17.65 17.644-37.778 18.776-58.543.286-5.05-.883-10.838 5.276-13.89 12.53-7.77 24.785-16.02 36.611-24.824 53.582-40.761 101.184-95.49 118.98-161.926 4.693-18.084 6.627-36.681 5.178-55.324-.39-7.089-1.106-14.163-2.335-21.148-.297-5.767-4.04-12.2-2.38-16.859 13.745-13.769 27.988-27.39 37.887-44.476 10.446-16.761 18.728-35.814 18.956-55.899-.269-35.098-34.968-62.804-69.077-59.636-16.714-.13-35.25 7.994-48.69 14.443-14.212 7.548-27.467 16.973-38.651 28.557m-452 81c6.528-10.111 11.537-21.264 19.627-30.417 7.284-10.336 16.547-18.731 25.873-27.083-14.055-9.303-28.815-19.772-46.483-20.11-8.653.112-18.756 4.951-23.337 11.631-4.619 7.044-5.289 17.457-3.317 24.849 4.51 15.703 17.455 30.643 27.637 41.13m2.5 1075h67v-125h-67zm0 298h70v-143h-70zm111-1338.691c-1.209 19.155 17.048 37.002 35.901 35.691 18.992 1.018 36.537-17.448 35.099-36.193.996-19.38-17.863-36.21-36.702-34.804-18.148-.535-35.295 17.039-34.298 35.306M1411 1336c15.862-.785 32.083-1.307 47.188-6.941 6.9-2.722 13.354-6.41 19.727-10.155 6.523-3.325 10.505-10.24 16.585-13.904 10 10.497 21.925 19.682 35.956 24.093 14.959 5.377 30.834 6.252 46.544 6.907v-28c-21.449.838-51.555-1.037-67-25 7.825-2.154 14.092-10.204 19.37-14.87 8.422-8.169 16.722-19.39 21.581-29.014 5.916-11.523 11.746-23.75 12.009-37.022.437-6.727.622-14.485-7.545-18.672-9.868-4.05-22.927-3.777-32.457-4.422-11.33.657-24.603-.628-34.943-.088-18.35 1.356-38.658-2.744-56.076 5.155-8.128 4.792-7.972 17.081-6.118 25.091 1.841 8.546 4.593 16.92 8.62 24.718 4.752 10.209 11.134 19.508 18.344 28.11 4.024 4.415 8.25 8.689 12.73 12.631 3.239 3.84 10.269 6.479 12.485 9.883-8.166 8.193-17.417 16.097-28.69 19.531-12.348 4.214-25.43 4.29-38.31 3.969zm17 583.25c1.77 3.992 2.741 10.023 4.505 14.974 1.422 3.186 1.71 9.886 5.477 10.311 13.417 1.305 27.036-.22 40.492.465H1616v92c-14.252-.702-31.85 1.857-44.141-3.464-37.824-14.295-74.802-30.934-112.859-44.536v446c17.426.359 35.025.717 52.073-3.55 12.03-2.954 24.012-6.385 35.281-11.616 8.34-3.717 16.408-8.096 23.574-13.807 7.056-4.584 6.313-13.2 6.072-19.795V2063h40v460c36.941.323 76.1.484 109.37-18.185 6.91-3.654 17.608-8.003 16.63-18.231V2313c23.468 2.472 32.917 27.168 36.533 45.128 4.307 23.005 2.809 46.627 3.467 69.872 17.11-.167 34.066-3.821 50.645-7.66 23.111-5.777 46.27-18.114 58.138-39.872 6.13-10.614 9.028-22.731 10.932-34.727 2.504-13.609 3.531-27.405 3.285-41.245V2083c14.713-2.346 28.546-8.736 39-19.5-18.854-14.326-37.971-28.36-56.974-42.475-19.645-13.273-37.395-29.828-57.682-42.025-12.471 13.091-23.726 27.27-36.138 40.406-2.87 3.587-5.957 6.976-9.138 10.29-2.335 2.384-4.312 6.097-7.525 6.834-11.44 1.248-23.072-.151-34.543.47v-92c63.544-1.009 127.271 1.23 190.754-.664 6.785-1.115 14.515-3.387 18.264-9.748 3.84-5.17-4.576-10.393-8.007-13.371-32.424-27.09-65.901-52.842-99.79-78.05-2.603-1.87-5.582-4.163-7.721-6.167-20.43 27.375-43.77 53.29-63.5 81h-323.4c-6.394.48-15.54-.813-20.6 1zm27-43.625c3.549 2.733 7.087 5.47 10.5 8.375 29.568-15.965 58.113-34.133 84.761-54.686 13.524-10.114 26.434-21 39.387-31.81 6.096-5.666 13.26-12.276 18.827-17.48 5.744-4.894 12.643-14.99 19.525-15.024 7.883 16.725 17.003 33.21 22.201 51.138 4.999 14.203 7.295 29.12 8.242 44.056.486 4.716 4.799 7.747 9.519 10.715 30.134 21.61 79.76 12.806 96.178-22.22 8.925-17.244 4.74-38.616-7.491-53.145-11.639-14.28-28.408-22.455-44.649-30.044 39.347-1.426 78.971.26 118.38-.5h59.95c17.515.037 42.251 4.377 48.67-14.543-17.367-16.151-36.26-30.555-54.61-45.543-18.84-13.887-36.515-29.915-55.89-42.914-19.226 25.948-41.027 50.661-59.5 77h-122v-1.5c11.1-11.841 20.18-25.465 29.711-38.53 2.49-4.134 6.512-4.098 10.953-4.604 12.417-1.44 24.07-8.937 28.336-20.866-25.763-8.53-53.594-13.045-79.798-20.692-26.809-6.288-53.344-13.834-80.202-19.808-11.985 43.003-25.12 85.797-42.407 127.03-16.39 39.735-35.305 79.623-58.593 115.595m122-796.866c-.922 18.994 17.171 36.084 35.574 35.23 19.45 1.17 36.236-17.088 36.031-35.902-.38-18.762-17.09-36.483-36.567-35.075-18.63-.742-36.042 16.777-35.038 35.747m140-92.134c.875 2.603 4.474 4.29 6.564 6.545 15.947 14.287 27.377 32.544 37.936 50.83 11.353-11.566 24.59-27.17 27.95-42.119 1.462-8.86 1.081-19.129-5.301-26.067-5.743-6.402-14.53-9.956-23.105-9.5-16.59 1.13-30.815 10.582-44.044 19.686zM1742 2300c6.98.405 13.953 1.005 20.94.999 8.103-.33 22.047 3.249 23.59-9.63 1.056-10.434.04-20.996.47-31.448V2063h-45z" style="fill:#000;fill-rule:evenodd;stroke:none"/></svg>