<svg xmlns="http://www.w3.org/2000/svg" width="3000" height="3000"><path d="M338 2761.5c387.06 1.426 774.925-.26 1162.15.5 387.224-.76 774.71.926 1161.85-.5-77.265-456.459-152.125-914.01-228.874-1370.691-28.417-170.851-56.988-341.657-85.4-512.497-12.491-74.824-24.942-149.684-37.431-224.508-5.828-35.176-11.741-70.32-17.569-105.492-3.54-17.097-4.968-34.714-9.072-51.664-1.3-3.941-8.915-3.966-11.797-5.85-133.175-44.44-266.372-88.79-399.558-133.193-116.482-38.867-233.005-77.647-349.48-116.505-6.56-1.974-12.94-4.527-19.527-6.382-6.558-1.31-12.878 2.396-19.017 4.029-100.339 33.452-200.674 66.889-301.01 100.324-87.802 29.33-175.659 58.504-263.446 87.829-38.52 12.817-77.015 25.657-115.52 38.495-18.005 5.974-35.995 12.026-54 18-8.822 2.95-17.652 5.903-26.471 8.83-4.346 1.012-8.371 2.451-8.57 8.208-90.761 544.76-181.624 1089.514-272.367 1634.27-35.423 208.458-69 418.87-104.891 626.797m112-95c349.66 1.426 700.125-.26 1049.95.5 349.946-.76 700.184.926 1050.05-.5-71.115-419.63-139.844-840.338-210.448-1260.2-26.214-157.169-52.393-314.328-78.582-471.499a856355 856355 0 0 0-34.418-206.502c-5.388-32.32-10.783-64.67-16.17-96.99-2.588-15.664-5.232-31.299-7.827-46.958-.793-4.36-1.427-8.742-2.21-13.102-.428-4.863-4.85-6.193-8.474-7.135-122.028-40.638-244.03-81.373-366.052-122.014-106.682-35.522-213.343-71.109-320.006-106.667-6.525-2.525-11.758-.06-17.468 1.947-92.703 30.905-185.37 61.816-278.08 92.691-81.01 26.99-161.996 54.033-243 81-35.467 11.86-70.965 23.65-106.438 35.486-16.678 5.533-33.31 11.15-49.99 16.655-3.243 1.458-10.117 2.375-10.586 5.954-85.805 510.194-170.013 1020.748-255.437 1531.015-32.076 188.3-62.276 378.547-94.814 566.319" style="fill:#747474;fill-rule:evenodd;stroke:none"/><path d="M1136 1179.332c-2 5.47-6.886 9.454-9.084 14.876-10.514 17.77-12.268 44.612-2.98 61.633 7.913 18.552 28.83 36.366 48.064 36.159-.343-18.01 4.164-36.809 18.5-49 40.543 27.66 66.417 71.48 87.677 114.366 4.976 11.057 11.39 23.739 16.09 33.818 1.716 4.25 4.442 8.233 5.24 12.766-19.884 23.148-46.803 47.484-46.507 81.05-12.426.283-25.196-.916-37.409 2.122-16.441 4.298-32.607 12.307-42.853 26.383-4.854 6.438-7.501 16.95-4.631 24.085 3.766 7.897 15.02 9.753 22.614 10.124 12.105 1.086 24.562-1.023 36.46 2.102 11.062 2.736 20.208 10.38 26.371 19.72 4.997 7.207 6.368 17.504 9.24 24.786 2.578 7.034 8.748 9.917 15.381 8.207 9.628-1.5 15.4-14.739 18.698-21.383 4.132-9.157 6.043-19.154 6.129-29.146 20.306.99 39.21-7.74 56.785-16.931 16.227-9.805 32.006-20.914 45.715-34.069 3.2 13.398 6.09 27.55 13.5 39.5-12.438 4.29-25.897 13.784-31.946 24.44-5.53 8.876-12.72 33.545 7.242 34.812 15.158.867 36.118-4.043 49.665 11.739 5.409 5.863 8.695 13.466 10.687 21.085 2.099 7.346 3.32 17.625 11.484 22.08 20.11 5.98 28.238-12.847 34.806-27.112 5.523-15.928 6.94-37.03 3.015-52.082-.689-2.827-2.37-5.873-2.953-8.462 4.117-.483 7.595-3.102 11.334-4.68 3.497-1.425 7.646-5.005 10.51-2.715 11.163 8.5 23.469 17.16 38.357 16.376 6.197.436 12.311-.44 18.191-2.373 4.43-1.035 9.216-3.707 13.383-4.164 8.01.618 15.353 5.524 23.602 5.269 13.312 1.32 27.316.331 39.174-6.574 10.51-5.658 18.868-15.266 21.449-27.139 16.126.761 35.456-5.63 45.894-16.394 5.836-5.562 11.073-11.99 13.725-19.717 2.964-7.679 5.23-18.514.231-24.268-18.093-19.225-39.017-35.58-60.366-51.014-27.036-19.62-55.019-38.386-84.484-54.107 38.845-18.839 71.3-49.311 94.906-85.361 18.122-27.393 32.19-57.158 43.938-87.756 2.2-6.036 4.298-12.087 6.562-18.088 2.214-9.844 15.127-15.317 24.342-22.149 33.263-23.29 63.505-50.617 90.646-80.68 12.42-14.533 25.963-32.798 33.166-48.906 7.438-16.316 10.43-44.007-10.56-55.06 13.293-1.063 27.701-2.057 38.537-11.17 16.021-12.5 23.321-32.171 32.101-49.684 7.358-17.986 21.78-40.997 6.633-56.215-12.7-10.587-33.53-11.156-47.662-12.62-18.807-1.68-37.75-1.628-56.61-1.811-54.301-.294-108.692.566-162.7 6.588-31.56 2.836-62.74 8.327-93.437 16.045-42.702 11.05-87.186 30.214-112.544 68.392-26.305 38.726-27.164 87.675-41.704 130.644-5.868 17.87-12.599 35.54-21.114 52.331-1.141-40.857-3.158-83.072-19.722-121.352-6.837-14.896-14.733-29.323-25.122-42.088-9.969-11.631-20.113-23.643-25.508-38.195-10.514-28.693-14.493-64.691-18.344-92.224-1.92-13.586-3.703-27.202-6.253-40.678-1.641-5.766-2.94-14.971-9.683-15.236-11.284-.085-21.83 10.87-30.704 16.232-17.032 13.348-33.777 27.107-51.141 40.013-3.765 2.931-7.634 5.708-11.672 8.239-3.535 1.738-7.809 5.052-12.273 2.965-7.05-5.84.243-19.95 1.66-26.313 5.558-15.846 15.433-29.594 23.906-43.903 6.932-12.494 16.323-27.145 18.91-40.225.87-6.645 1.258-15.466-3.242-19.725-5.574-3.473-12.475-2.394-18.61-1.892-22.522 2.364-43.576 12.236-62.312 24.442-55.919 38.098-96.181 97.573-115.647 161.892-15.195 52.47-12.183 109.45 6.011 160.774 17.033 47.097 44.579 90.525 79.246 126.606m-86.528 681.784c25.096 44.162 48.113 92.607 50.076 144.595-.353 7.773 4.85 11.334 10.618 14.696 18.544 12.516 43.488 17.434 64.653 8.147 20.192-8.957 34.8-30 36.63-51.943 1.863-17.366-3.956-34.8-12.76-49.504-13.09-19.827-36.408-36.315-55.753-45.646-22.64-11.516-47.36-18.558-72.071-23.988-5.699-1.224-12.98-4.194-19.255.462-1.486.812-2.418 1.63-2.138 3.18M1061 2247c18.27-.061 37.163 5.615 50.665 18.294 10.46 13.428 11.36 31.555 13.486 47.665 3.227 33.823 1.4 68.078-2.057 101.793-1.29 14.046-3.626 27.948-5.695 41.881-6.866 25.087 9.697 51.735 33.107 61.046 21.22 8.756 49.377 3.053 66.95-7.052 16.204-9.58 28.677-24.763 34.891-42.515 6.453-18.104 4.403-37.696 4.646-56.49-.048-30.737-11.646-59.565-23.481-87.311-10.526-20.903-17.218-43.834-16.511-67.412-.238-17.55 3.111-34.864 5.381-52.177 8.286-50.535 21.554-100.1 32.694-150.032 7.227-32.243 15.011-64.332 22.382-96.532 3.871-16.828 8.211-33.544 12.117-50.352 2.879-15.62 9.68-33.33 11.425-47.806-7.066-.575-16.51-5.413-19.077 5.201-2.906 7.058-5.93 14.063-8.976 21.049-27.312 65.378-55.5 130.383-83.453 195.488-14.158 32.236-27.115 65.03-42.672 96.625-4.035 8.285-8.19 16.463-12.718 24.47-4.845 10.814-13.006 24.721-28.835 24.729-14.729.968-29.535.054-44.269.438zm30-603c.254 6.197 5.946 11.68 8.195 16.53 21.784 39.984 42.606 81.546 52.859 126.242 2.162 5.822 1.51 14.045 4.208 18.043 15.129 13.811 35.859 19.62 55.89 18.074 20.097-1.282 38.676-13.441 48.098-31.205 10.934-18.067 11.292-41.739 3.078-60.797-11.614-28.03-36.466-47.073-62.228-61.265-27.172-13.995-57.219-21.942-87.146-27.301-4.064-.611-8.101-1.568-12.201-1.907-3.963-.936-7.885 2.752-10.753 3.586m163-460c.753 8.472-7.705 15.473-13.177 20.476-5.982 5.37-12.752 9.796-18.823 15.024 18.18 13.914 32.739 31.64 45.165 50.78 11.915 18.377 23.476 37.17 33.335 56.72 3.37-4.659 3.549-12.958 6.102-19.16 1.744-6.422 3.795-13.949 5.398-19.84 16.659 4.73 32.467 12.806 49 18-2.431-19.94-3.575-40.063-6-60 17.143 1.425 32.93 10.2 50 12-6.866-26.585-15.77-52.75-23.2-79.198-2.802-8.81-5.027-22.388-11.755-27.015-27.507-19.575-54.324-40.152-82.51-58.749-14.665-8.768-30.523-17.34-47.938-18.751-17.512-1.387-35.708 1.083-51.085 10.103-24.104 13.612-46.901 50.36-28.643 83.164 9.097 16.676 26.27 19.27 43.255 20.358 17.062.136 33.885-3.53 50.876-3.912m-45.942-32.228c-.26 9.264 8.175 16.598 16.886 16.14 10.69.125 19.51-8.065 23.684-17.241 4.343-9.578 3.992-28.65-12.07-29.588-7.134-.602-14.871 6.509-18.728 10.901-4.626 5.619-9.938 11.741-9.772 19.788M1514.5 2162c1.426 27.812-.26 56.091.5 84 13.044-.398 26.184.61 39.18-.632 17.9-2.159 35.06-7.925 51.421-15.26 7.431-3.493 14.62-7.765 20.828-13.16 3.344-2.952 7.013-6.32 7.416-11.046.314-4.634.048-9.27.155-13.902h167c-2.083 12.153-.635 24.723-2.115 36.963-.673 6.183-1.291 12.35-1.364 18.574-.788 5.735.37 13.037-2.021 17.463-16.594-20.049-44.153-26.959-68.71-29.441-14.296-.73-28.686-.679-42.99-.244-6.448-.07-12.474.46-17.05 7.05-1.118 2.606 3.898 5.043 5.223 6.606 2.544 1.868 5.067 3.791 7.38 5.93 20.187 19.127 38.51 40.916 48.978 67.022 2.168 4.611 2.481 11.95 8.852 14.333 16 8.246 35.83 7.738 50.817-2.006-1.207 11-4.605 23.742-7.398 33.452-2.47 7.454-5.068 15.076-9.826 21.457-8.083 8.721-23.486 9.697-33.43 9.608-12.672-1.266-25.807-.499-38.346-2.267 21.676-21.926 18.56-59.729-.76-81.932-14.23-17.991-33.643-31.368-54.84-39.766-11.106-4.41-22.456-8.24-34.095-10.986-5.72-1.505-12.494-3.214-17.822-4.214-3.071-.412-6.27-.814-9.274.16-2.496.843-4.58 2.733-7.209 3.238.386 6.33 7.754 12.095 10.976 18.458 14.082 20.771 26.097 48.18 31.993 70.4 2.939 10.49 4.686 21.261 4.945 32.144.254 3.873-.76 9.67 2.749 12.775 12.261 10.056 28.51 16.753 44.619 14.253 6.28-1.35 12.226 1.043 17.895 3.63 19.477 7.018 36.616 21.471 44.44 40.918 7.532 21.556 6.891 44.958 7.383 67.422 45.492.602 95.695-8.888 128.731-43.235 16.097-16.684 24.457-38.75 30.924-60.501 6.014-22.78 10.118-45.975 13.267-69.313 5.203-45.824 8.957-91.833 10.078-137.951 9.919-1.496 19.739-4.443 28.493-9.394 3.051-2.2 10.536-6.904 7.116-10.814-3.304-3.77-7.774-6.327-11.46-9.676-10.028-8.157-20.022-16.307-30.055-24.441-15.321-12.457-30.526-25.049-45.969-37.354-7.06-5.102-15.075-17.084-24.305-7.499-6.95 7.335-14.457 14.015-21.922 20.78-5.34 5.611-11.403 10.416-16.873 15.873-4.941 4.7-9.813 9.607-15.327 13.645-6.334 1.691-13.428.362-19.952.88H1634v-63h288c12.302.53 30.069-1.52 31.512-15.299.16-4.074-5.335-7.388-8.208-10.633-24.132-22.223-48.887-43.793-74.304-64.568 4.803-3.377 13.32-3.882 19.058-8.129 6.964-3.51 6.301-10.35 5.942-16.582V1798c7.87-1.102 15.614-4.085 21.913-8.93 2.092-1.88 8.653-5.37 5.722-8.264-2.401-2.764-5.547-4.777-8.355-7.083-8.168-6.062-16.235-12.243-24.396-18.303-16.105-12.142-32.305-24.172-48.41-36.314-8.342-5.748-15.944-12.595-24.498-18.017-4.217-2.56-9.113 5.27-11.594 7.426-3.123 4.04-6.947 7.436-10.484 11.087-7.952 8.77-15.999 17.437-24.495 25.704-2.938 3.407-5.656 7.132-9.483 9.624-8.125 2.354-17.46.142-25.863 1.07-25.924-.76-52.262.926-78.057-.5 19.851-13.19 39.886-26.309 59.231-40.293 7.286-5.179 14.556-10.39 21.747-15.677 6.665-4.184 13.57-10.402 19.592-14.325 11.773-3.866 29.263-3.233 33.793-21.183 1.538-6.476-8.85-5.092-12.488-6.201-37.363-5.856-74.805-11.22-112.205-16.785-12.536-1.357-27.082-4.832-38.67-5.036-1.486 37.992-3.514 76.017-5 114-18.366-6.763-36.425-14.665-54.714-21.697-9.04-3.6-18.069-7.155-27.014-10.98-8.896-2.604-18.59-8.95-27.272-9.323-.733 17.897.9 36.215-.5 54-12.216-11.435-23.23-24.207-35.82-35.234-6.415-5.497-11.981-11.946-18.146-17.695-3.177-2.854-6.619-5.39-9.51-8.546-2.642-2.968-5.843-5.828-10.024-5.525-7.588 13.73-19.331 28.772-26.557 41.32-7.037 10.046-13.458 20.495-20.147 30.752-3.3 3.225-4.76 9.86-9.176 10.508-37.964 1.198-76.118-.218-114.12.42 1.063 8.515 4.746 16.579 6.629 24.917 1.354 5.347 7.94 3.777 12.087 4.083H1332v366c-34.556 4.417-68.445 13.583-103 18 1.393 8.626 8.816 16.767 11.543 24.087 13.924 28.098 29.717 55.184 43.637 83.277 3.802 6.879 7.57 13.744 11.008 20.818 2.586 6.068 11.158.55 14.372-2.366 3.087-2.888 6.711-6.396 8.903-9.606 2.784-5.305 5.573-11.43 12.457-14.467 5.218-3.07 10.242-6.477 15.254-9.852 56.89-39.122 114.506-77.565 168.326-120.891m-81.5-724c.05 13.82 1.804 27.603 3.87 41.238 3.383 18.376 7.067 40.25 23.753 51.778 16.614 10.204 40.633-1.827 51.413-14.827 19.678-21.779 29.76-50.578 33.157-79.314 1.158-13.57 1.273-29.658-.837-41.987-.98-6.788-2.585-13.457-4.571-20.013-1.497-5.69-5.459-12.948-5.785-17.875 45.568-11.488 84.52-41.745 112.378-78.866 20.596-27.726 36.328-58.849 48.25-91.203 5.116-12.279 8.763-25.31 13.727-37.579 39.27-22.31 73.826-52.927 105.62-84.827 8.205-8.232 15.363-17.399 22.792-26.312 7.45-9.864 25.327-31.942 5.359-43.423-14.01-5.7-39.343-7.635-34.617-31.109 2.602-13.18 16.774-17.471 26.752-20.48 17.384-5.634 40.09-3.591 55.32-11.158 8.048-4.83 11.483-13.9 15.347-21.879 3.147-7.99 8.32-16.825 11.072-24.164-28.85-3.54-58.054-.813-87.026-.986-50.06 1.262-100.144 3.547-149.911 9.227-35.149 4.527-70.612 9.606-104.217 21.317-25.202 7.804-49.448 21.447-63.787 44.33-11.112 16.26-15.615 35.583-20.51 54.297-7.04 29.31-12.233 59.327-23.303 87.502-5.283 13.428-10.48 27.107-18.484 39.213-6.685 12.252-15.687 23.434-27.762 30.6 6.067 20.256 11.143 40.898 17.056 61.213 3.028 10.29 5.525 20.752 8.605 31.023 2.033 9.83 6.779 20.993 7.339 30.264-20.939-2.65-41.139-9.86-62-13 2.728 22.901 3.684 46.042 6 69-10.073-1.23-19.2-6.66-29.122-8.606-9.033-3.298-18.56-5.613-27.378-9.394-2.724 13.245-4.589 26.893-7.244 40.19-1.095 5.886-3.2 13.102-.582 17.892 2.517 4.537 5.094 9.024 7.256 13.746.972 2.334 2.836 5.19 2.499 7.638-5.233 6.239-14.704 12.276-21.509 19.18-11.7 11.409-23.247 23.688-30.059 38.803-4.81 11.07-3.44 27 2.94 36.102 6.102 9.044 17.845 8.199 26.299 6.558 27.5-6.328 51.693-22.07 73.103-39.918 6.325-5.761 13.008-11.135 19.167-17.06l9.363-9.364c3.055-2.742 6.278-7.27 10.267-7.767m-4 814c-3.81 23.352-8.31 47.196-19.68 68.295-9.711 17.68-22.046 34.03-37.016 47.637-6.841 5.888-14.003 11.379-21.752 16.018-14.228 7.48-21.73 26.563-26.633 39.403-3.745 14.624-2.29 30.704 5.807 43.662 15.703 22.841 47.019 29.852 72.531 22.02 18.87-5.4 33.947-18.84 44.15-35.2 16.258-25.387 19.88-56.448 19.593-85.885-.306-30.596-7.371-60.76-15.598-90.038-2.896-7.975-4.672-18.259-8.689-24.996-4.006-1.538-8.55-.588-12.713-.916m-14-1130.562c.342.41.631.299 1 .062-.32-.203-.644-.43-1-.062M1447 2149c11.667-2.61 23.408-5.087 35.117-7.526 8.876-1.702 17.631-4.029 26.508-5.71 8.304-.458 6.365-10.915 6.375-16.142V1807h-68zm44 117c-.065 7.66 2.968 14.879 4.057 22.349 5.533 28.93 8.022 58.436 7.943 87.853a222 222 0 0 1-1.685 33.674c-.7 9.428-2.797 18.695-3.838 28.069-.46 7.021 8.345 12.827 13.737 17.816 10.56 9.16 25.073 13.299 38.81 10.527 20.47-3.07 36.216-19.971 42.607-38.884 7.003-20.29 5.161-46.397-1.547-64.61-14.124-41.666-46.774-73.665-82.604-97.41-5.486-4.561-11.614-1.977-17.48.616m143-404h136v-78h-136zm0 107h136v-78h-136zm0 103h152.4c6.488-.156 15.462 1.884 19.563-5.461 10.841-16.043 23.423-31.28 33.787-47.539-22.74 6.284-46.354 6.768-69.75 6v-28h-136z" style="fill:#fff;fill-rule:evenodd;stroke:none"/><path d="M449 2666.5v1.5h2102v-1.5c-63.81-378.768-126.215-757.87-189.705-1136.696-47.349-283.998-94.654-568.016-142-852-4.398-26.67-8.911-53.338-13.325-80.003-1.118-6.656-2.232-13.342-3.35-19.985-.571-3.586-1.119-7.183-2.096-10.662-1.288-2.958-6.82-3.128-9.193-4.54-101.51-33.828-203.017-67.663-304.512-101.514a746151 746151 0 0 1-266.522-88.84c-39.072-12.89-78.06-26.135-117.144-38.98-4.713-1.335-9.273 1.032-13.839 2.453-144.507 48.104-288.95 96.378-433.449 144.467-54.18 18.08-108.385 36.116-162.566 54.195-23.808 7.923-47.625 15.882-71.434 23.805-5.676 1.96-11.407 3.738-17.06 5.726-6.564 1.113-6.72 8.744-7.34 13.268C740.08 921.349 682.77 1265.54 625.383 1609.692 566.339 1961.663 508.308 2314.864 449 2666.5m689-1486.832c-6.01 9.562-13.69 18.737-16.638 30.035-5.694 17.591-2.125 36.91 7.36 52.314 9.254 14.466 24.43 27.676 42.278 28.983.094-11.29.987-22.883 6.267-33.128 4.031-6.64 10.43-18.852 18.22-13.185 52.73 39.479 79.891 102.132 106.513 159.898-11.29 10.856-23.338 24.82-31.893 36.353-10.101 12.862-16.322 28.597-16.107 45.062-12.426.283-25.196-.916-37.409 2.122-16.441 4.298-32.607 12.307-42.853 26.383-4.755 6.475-7.89 17.252-3.827 23.47 4.749 7.336 15.866 8.442 23.564 8.856 11.72.767 23.728-1.022 35.2 2.118 10.67 2.815 19.536 10.127 25.577 19.155 5.163 7.21 6.32 16.106 9.115 24.25 2.14 5.495 6.952 11.4 14.76 8.945 9.498-2.412 14.947-15.397 17.967-21.69 3.992-9.018 5.864-18.788 5.906-28.609 20.698 1.03 39.83-8.07 57.712-17.411 17.049-9.491 31.782-22.335 46.788-34.589 1.599 7.27 2.685 14.82 5.35 21.862 1.453 7.02 6.999 15.407 8.15 21.138-20.144 5.274-39.957 25.456-37.32 47.647 2.884 9.482 12.222 9.366 19.038 9.351 8.248.462 18.197-.783 25.638.98 11.186 2.458 19.99 11.007 24.628 21.216 3.977 8.018 4.484 17.319 8.404 25.353 7.938 14.915 24.44 6.85 31.18-3.868 7.16-10.481 11.536-22.776 12.996-35.34.577-7.329.526-14.765.18-22.095.003-6.377-4.335-14.103-4.744-19.244 7.88-.851 14.875-8.17 21.677-10 7.668 7.988 19.391 14.793 29.051 17.652 8.964 2.226 18.403 1.641 27.182-.905 6.467-1.46 13.346-6.284 18.865-4.192 18.585 7.166 40.9 8.005 58.736-1.952 10.057-5.713 17.972-15.11 20.489-26.603 16.126.761 35.456-5.63 45.894-16.394 5.836-5.562 11.073-11.99 13.725-19.717 2.819-7.538 5.372-17.113-.449-23.075-17.93-18.691-38.353-34.826-59.324-49.96-27.896-19.911-56.354-39.617-86.846-55.354 39.528-18.78 72.705-49.394 96.649-85.961 18.45-27.75 32.635-57.995 44.537-89.035 2.213-6.054 4.294-12.176 6.561-18.194 1.153-6.05 5.32-9.767 10.808-12.129 36.319-24.68 70.726-52.746 100.156-85.428 13.858-16.26 27.741-33.125 36.664-52.757 8.009-17.354 11.258-44.805-14.375-55.496l1.438-.5c11.219.365 22.835-.447 33.024-5.769 14.042-6.571 23.237-20.09 29.705-33.564 7.283-14.295 14.553-28.62 20.215-43.64 3.033-8.02 6.11-18.827-.138-28.02-8.588-11.387-24.654-12.872-37.547-15.059-15.141-2.04-30.45-2.233-45.69-2.747-42.48-.664-85.026-.417-127.448 1.857-56.7 3.521-114.014 9.092-168.58 25.793-25.378 8.363-50.848 19.12-71.195 36.925-20.55 16.943-34.371 40.587-41.85 65.923-8.364 25.464-12.801 51.965-19.372 77.878-6.96 24.641-16.6 48.578-28.062 71.423 1.708-42.063-2.248-85.672-17.843-125.315-6.94-15.855-15.372-31.07-26.334-44.531-10.729-12.097-20.937-25.074-26.245-40.549-10.568-31.325-13.502-64.538-18.351-97.004-2.567-13.877-3.589-30.821-8.197-43.03-3.269-8.117-10.984-5.189-16.563-1.845-20.318 12.268-37.85 28.544-56.834 42.657-8.552 6.27-16.557 13.36-25.674 18.816-3.555 1.981-8.455 4.983-13.37 2.493-7.384-6.545.18-21.808 1.824-28.826 6.275-17.15 17.221-32.006 26.276-47.682 7.856-13.193 17.488-29.954 16.76-44.6.177-9.475-7.227-12.13-14.73-11.41-26.496 1.439-51.333 13.284-72.733 28.218-63.552 46.26-107.982 119.693-118.767 197.635-11.028 91.959 31.52 182.782 94.281 247.641m-88 680.634c2.014 5.677 7.45 11.003 9.57 16.143 12.307 21.835 22.745 44.672 29.987 68.727 6.287 19.044 9.65 39.012 10.952 58.967-.376 8.484 5.379 12.47 11.823 15.979 20.575 14.046 49.257 16.686 70.56 2.568 20.274-14.478 32.244-40.375 26.494-65.248-2.974-15.539-10.762-29.896-21.158-41.65-32.811-34.328-79.916-49.698-125.12-58.777-5.24-1.572-8.963.86-13.108 2.989zM1062 2246c18.147-.112 36.755 5.58 50.317 17.931 10.787 12.682 11.852 33.283 13.78 47.488 3.237 33.662 1.692 67.786-1.687 101.372a766 766 0 0 1-5.623 42.466c-6.617 24.496 7.771 50.922 31.135 60.703 20.903 8.913 45.581 4.742 65.133-5.555 16.467-9.174 29.24-24.312 35.762-41.95 7.106-17.808 4.966-37.409 5.175-56.04-.102-30.66-11.666-59.422-23.48-87.104-10.526-20.896-17.222-43.852-16.511-67.429-.385-17.725 2.823-35.208 5.151-52.697 8.19-50.29 21.256-99.64 32.378-149.311 14.747-65.13 30.122-130.144 46.47-194.874-6.387-.463-14.637-4.657-16.876 4.697-2.417 6.06-5.153 11.974-7.622 18.011-27.493 65.717-55.785 131.084-83.956 196.502-14.017 32.683-27.705 65.54-42.976 97.637-4.278 8.408-8.275 16.978-13.009 25.14-5.405 11.084-13.148 25.682-28.756 25.53-14.911 1.035-29.885.092-44.805.483zm30-600.5c5.797 11.697 14.072 22.327 19.424 34.353 11.557 21.63 21.104 44.157 30.242 66.873 6.659 17.792 11.312 36.265 14.453 54.97.63 2.952 4.434 4.597 7.047 6.71 21.412 14.905 51.113 19.383 74.326 5.2 22.285-13.836 34.81-41.411 29.485-67.355-7.45-33.651-34.903-58.106-63.897-73.875-30.298-16.833-64.824-24.621-98.628-30.466-4.56-1.957-9.263 1.603-12.452 3.09zm161-460.5c-.404 8.201-9.65 14.668-14.8 19.835-6.404 4.827-12.37 10.452-19.2 14.665 19.782 13.598 34.581 32.772 47.711 52.574 12.833 18.9 23.745 39 34.789 58.926 4.273-13.87 7.144-28.349 12-42 15.377 7.51 32.505 11.686 48 19 .815-9.961-2.202-20.346-2.264-30.386-1.267-10.185-1.823-20.455-3.236-30.614 17.22 3.238 33.726 9.978 51 13-7.978-28.947-17.131-57.563-25.4-86.424-1.57-5.422-3.052-10.862-4.868-16.203-1.815-4.63-7.29-7.547-10.67-10.265-15.07-10.71-29.791-21.92-44.932-32.51-22.166-16.285-45.109-33.321-72.307-40.08-28.028-5.796-59.632 1.578-79.087 23.409-9.259 10.794-16.204 24.31-16.71 38.8-4.268 21.622 9.037 46.206 31.796 49.978 22.53 5.082 45.58-1.134 68.178-1.705m-43.868-33.037c.215 8.627 8.563 15.478 16.764 14.84 10.08-.769 18.072-8.817 21.948-17.604 4.304-9.212 2.332-27.881-13.36-26.954-6.658 1-13.307 8.026-16.619 11.958-4.12 5.051-8.734 10.696-8.733 17.76M1230 2192.25c10.804 21.644 22.89 42.958 33.908 64.548 11.733 21.59 22.814 43.69 34.592 65.202 10.437-5.055 18.763-13.395 23.73-23.99 2.959-4.05 7.807-6.046 11.83-8.747 30.937-20.618 61.62-41.604 91.985-63.039 30.26-21.465 60.208-43.397 89.455-66.224 1.426 28.208-.26 56.729.5 85 12.781-.354 25.646.613 38.367-.777 17.455-2.4 34.254-7.856 50.234-15.115 7.431-3.493 14.62-7.765 20.828-13.16 3.344-2.952 7.013-6.32 7.416-11.046.314-4.634.048-9.27.155-13.902h169c-2.931 25.467-.973 51.34-5 76.734-15.234-16.341-36.97-26.398-59.115-29.606-12.307-2.388-24.895-2.253-37.35-2.128-11.668.02-24.794-1.306-33.535 7.5 23.434 16.495 41.899 39.241 56.1 63.894 3.158 6.232 6.33 13.81 8.49 19.829 1.275 6.21 5.751 8.331 11.054 9.94 8.14 2.96 16.897 4.677 25.562 3.548 8.088-.911 15.107-5.432 21.794-9.461-2.173 11.307-3.838 22.821-7.206 33.867-2.582 8.217-5.173 16.596-10.113 23.773-7.114 9.95-23.85 10.784-34.57 10.96-13.949-1.268-28.274-.708-42.111-2.35 11.764-10.658 17.871-26.508 16.977-42.221-.26-15.533-7.495-30.111-17.325-41.735-14.405-17.014-33.012-30.023-53.808-37.975-10.783-4.183-21.709-7.985-32.988-10.614-5.555-1.463-11.13-2.916-16.755-4.086-2.856-.475-5.895-.948-8.737-.149-2.6.738-4.663 2.785-7.364 3.28 6.188 11.779 16.527 21.663 21.658 34.26 12.538 21.561 20.555 45.61 25.073 70.024.725 5.076.91 10.198 1.204 15.308.25 3.962-.841 9.22 3.116 12.544 12.473 10.155 28.66 16.475 44.855 13.501 6.271-.916 12.165 1.94 17.801 4.24 19.447 7.043 36.36 21.692 44.068 41.104 7.333 21.472 6.767 44.675 7.225 67.019 44.832.223 94.204-9.363 126.731-43.235 15.877-16.397 24.118-38.083 30.607-59.45 6.098-22.391 10.136-45.274 13.303-68.247 5.327-46.507 9.208-93.249 10.359-140.068 13.22-2.388 30.711-6.924 37-17.5-22.745-18.878-46.007-37.158-68.826-55.947a2430 2430 0 0 0-26.001-21.043c-3.154-2.298-8.58-8.583-11.859-6-14.58 11.196-26.55 25.593-40.684 37.36-4.804 5.245-10.138 9.882-15.554 14.448-4.399 4.024-12.86 2.229-19.333 2.682H1633v-65h288.6c11.727.905 30.884-2.27 30.527-15.745-12.436-14.127-27.727-25.644-41.567-38.316-6.837-6.527-14.399-12.26-21.52-18.455-3.522-2.967-6.996-5.979-10.567-8.879-2.886-2.958-8.507-6.103-9.473-9.605 7.695-2.247 17.338-5.037 23.11-9.865 3.668-2.978 2.828-8.996 2.89-13.148V1797c11.086-1.255 21.03-6.939 29-14.5-35.686-27.658-72.315-54.613-108.5-81.5-9.593 10.131-20.696 22.173-29.505 31.46-3.796 3.95-7.777 7.718-11.58 11.652-3.246 3.463-5.977 7.452-9.667 10.498-3.568 3.107-8.58 2.295-12.998 2.39-32.499-.76-65.369.926-97.75-.5 20.152-13.69 40.986-26.512 60.536-41.118 7.464-5.236 14.89-10.53 22.237-15.925 6.66-4.667 13.08-9.635 19.564-14.526 5.942-3.426 14.411-1.795 21.41-6.315 4.9-2.07 10.323-6.697 12.628-12.519 3.314-7.113-5.529-6.35-10.312-7.113-38.663-6.018-77.413-11.608-116.109-17.333-11-1.319-23.804-4.088-33.954-4.651-1.486 37.992-3.514 76.017-5 114-37.293-10.701-71.864-30.814-109-42-.726 18.264.893 36.81-.5 55-13.304-10.269-23.44-24.233-36.31-35.036-6.637-5.348-12.252-11.848-18.425-17.695-2.955-2.982-6.399-5.426-9.366-8.376-2.75-2.537-5.77-6.492-9.399-6.893-7.588 13.73-19.331 28.772-26.557 41.32-7.037 10.046-13.458 20.495-20.147 30.752-3.3 3.225-4.76 9.86-9.176 10.508-37.964 1.198-76.118-.218-114.12.42 3.247 8.484 4.498 19.695 8.456 26.184 9.93 1.926 20.47-.022 30.54.816H1333v368c-34.556 4.417-68.445 13.583-103 18zM1431.5 1439c1.818 16.867 2.453 34.149 6.159 50.83 2.394 11.748 5.714 23.771 12.773 33.686 12.515 16.868 33.604 14.335 49.583 4.758 15.074-9.704 24.754-25.466 32.432-41.158 12.947-27.368 17.081-59.036 13.58-88.95-1.374-13.969-5.912-27.24-11.027-40.166 45.568-11.488 84.52-41.745 112.378-78.866 20.596-27.726 36.328-58.849 48.25-91.203 6.022-12.147 8.372-27.222 14.365-37.622 38.996-23.103 73.697-52.943 105.377-85.18 8.09-8.3 15.404-17.362 22.695-26.356 7.984-11.216 24.103-30.425 6.396-44.281-11.19-5.49-40.744-8.317-36.004-29.637 2.551-13.277 16.744-17.645 26.804-20.654 17.597-5.825 40.93-3.346 56.163-11.673 7.814-5.46 11.161-14.714 15.257-22.868 3.28-8.416 8.06-16.289 11.319-24.66-35.241-3.313-70.804-.838-106.15-.557-58.504 1.962-117.222 5.062-175.041 14.683-21.165 3.59-42.234 8.142-62.508 15.275-17.214 5.404-36.192 15.31-48.83 25.993-24.112 22.222-32.394 54.878-38.985 85.645-10.478 46.259-21.17 95.297-52.189 133-3.691 4.692-9.1 7.66-13.495 11.471 7.37 41.128 23.715 81.388 32.198 122.49-20.347-4.865-41.406-8.427-61.5-14 .724 22.454 4.16 49.335 5.5 70-19.234-5.035-37.774-13.037-57-18-1.565 14.065-4.913 27.94-7.075 41.917-1.723 6.858-3.11 14.68 1.255 20.873 3.511 5.255 5.31 11.495 8.82 16.71-20.04 18.442-44.884 35.496-53.896 62.857-3.895 12.9-.397 32.571 11.395 38.797 13.067 5.706 30.76-1.314 42.85-5.81 20.926-8.525 41.95-25.263 57.832-38.169 10.429-9.396 20.628-18.991 30.319-29.175m-1.5 814c-3.8 23.53-8.41 47.542-19.926 68.762-9.758 17.632-22.143 33.982-37.164 47.505-6.87 5.86-14.037 11.333-21.801 15.969-7.387 3.49-13.19 11.159-16.558 17.736-8.482 13.39-13.764 29.215-10.76 45.16 5.04 29.616 37.395 46.572 65.378 42.457 20.272-2.794 39.277-13.905 51.145-30.667 19.989-25.347 24.793-58.778 24.686-90.033-.207-32.338-7.85-64.216-16.884-95.044-2.304-6.738-4.002-15.307-7.403-20.929-3.343-1.442-7.2-.64-10.713-.916m16-103c21.397-3.253 42.314-9.491 63.625-13.236 7.417-.634 6.506-6.677 6.375-12.548V1806h-70zm46 117c5.64 31.2 12.338 62.57 12 94.536.874 24.62-.641 49.121-4.936 73.384-2.133 8.329 7.397 14.901 12.875 19.616 11.27 10.083 27.214 14.108 41.751 9.775 21.568-6.033 36.556-26.218 40.625-47.637 4.734-22.874.193-46.964-10.284-67.594-15.6-35.52-45.32-61.975-76.97-82.97-4.343-3.721-10.557-1.124-15.061.89m141-404h138v-80h-138zm0 107h138v-80h-138zm0 103h156c6.881.249 14.455 1.632 18.776-6.566 11.664-16.365 23.543-32.595 35.224-48.934-11.214 1.403-22.73 5.213-34.235 5.77-12.56 1.106-25.186.597-37.765.73v-28h-138z" style="fill:#000;fill-rule:evenodd;stroke:none"/></svg>