<svg xmlns="http://www.w3.org/2000/svg" width="3000" height="3000"><path d="M1277 1340c1.878 11.604 8.694 21.608 14.586 31.471 4.995 9.34 11.665 19.937 15.334 28.953 8.26 20.657 5.037 43.462-.838 64.18-4.395 18.438-10.98 36.326-15.073 54.826-1.597 7.596-3.006 17.284-.109 24.097 5.823 13.332 21.352 22.83 33.067 27.587 13.17 4.735 27.233 6.934 41.196 6.885 12.692-.152 25.528.721 38.044-1.7 4.748-.152 10.692-3.095 14.583-1.307 4.047 8.27 7.18 17.649 14.163 24.336 24.113 23.489 59.634 29.804 91.664 32.96 34.74 1.78 70.882 1.719 103.888-10.9 12.22-4.409 24.24-10.566 33.47-19.863 19.393-17.499 13.508-44.696 12.715-65.43-.659-8.985-1.244-17.98-2.047-26.944-.962-7.658-2.27-15.37 3.29-21.133 30.142-43.682 41.533-97.796 37.067-150.018 7.75-1.602 15.787-1.76 23.548-3.43 7.901-1.053 15.554-3.627 23.452-4.57 2.099 10.147 2.576 20.63 3.142 30.939-.088 9.207 1.21 20.07.402 28.49-2.18 13.963-13.315 27.133-19.712 37.852-10.617 14.839-27.053 42.165-2.063 57.052 19.468 11.848 46.9 14.641 67.231 14.667 1.86 11.492 4.092 23.196 11.082 32.9 9.845 14.653 26.246 22.837 42.788 27.496 17.692 5.648 36.34 6.945 54.773 6.604 35.854.73 73.228-7.195 102.675-28.605 13.733-9.867 24.063-24.175 27.758-40.765 4.903-17.757.79-36.205-3.278-53.553-3.082-14.009-6.162-28.052-8.302-42.241-2.775-24.16 1.094-48.445 1.514-72.66 3.883-73.307 7.924-146.617 11.702-219.918 1.843-28.995 2.376-58.272-2.354-87.033-15.154-91.906-67.23-178.797-142.806-233.462-19.149-13.255-40.365-24.278-63.237-29.389-18.133-4.01-37.035-4.607-55.239-.836-25.746 5.765-48.292 20.5-69.982 34.741-18.153 12.88-43.292 31.112-70.811 18.641-25.845-10.005-49.29-26.597-76.803-32.29-14.347-2.863-31.967-1.895-44.873 1.233-13.423 2.096-25.41 9.614-38.607 12.137-2.254-11.056-9.998-22.72-17.104-29.913-8.681-8.265-21.508-11.127-33.161-9.412-25.383 4.216-40.663 29.134-47.954 51.509-2.263 7.243-5.063 15.864-5.781 22.816-18.209-5.771-37.169-6.094-56-5-.753-23.555-13.767-49.115-26.314-66.07-6.909-9.135-16.34-19.2-25.626-24.319-12.798-7.23-26.19-3.517-33.039 8.084-8.182 12.49-8.427 27.861-8.002 42.143.382 14.417 3.966 28.647 9.484 41.89 3.416 9.032 9 16.91 13.497 25.335-11.491 9.554-24.245 18.24-33.367 30.428-7.093 8.28-12.894 17.493-17.551 27.314-16.315 28.216-37.761 53.314-54.582 81.195-5.346-9.03-12.08-17.337-16.963-26.688-4.36-7.146-8.116-14.617-12.295-21.854-2.979-5.143-6.951-11.302-11.391-14.618-11.264-6.248-16.003 5.938-17.083 14.825-1.755 9.048-2.78 18.188-3.714 27.343-.966 16.952-2.019 34.101.76 50.96a118 118 0 0 0 4.884 22.953c1.08 5.602 4.144 11.654 5.433 16.675.648 3.756-3.016 7.395-5.116 10.888-7.03 9.467-13.995 21.704-21.515 29.516-23.521-25.351-39.09-56.977-50.746-89.17-9.517-24.487-17.21-49.59-23.97-74.955-3.132-9.349-5.944-20.889-11.162-28.452-2.256-3.719-6.145-6.584-10.719-6.164-8.142.347-10.429 13.656-12.57 19.124-14.842 58.496-15.521 120.343-7.573 179.925 4.445 31.473 12.806 62.528 26.125 91.41 2.4 4.637 6.618 9.094 3.24 15.432-17.528 39.604-23.378 86.53-8.814 128.115 7.112 18.838 19.214 37.106 37.505 46.66 9.547 5.349 20.125 8.227 30.972 9.305 5.21.74 11.674.377 16.068 2.719 4.597 2.207 9.046 4.706 13.823 6.509 34.991 14.509 76.292 9.576 108.285-9.891 15.944-7.977 29.874-19.25 45.132-28.307 15.76-8.284 32.201-17.017 49.904-20.26m208-279c12.727.18 25.286 2.842 38 3-2.583 39.969-9.51 80.054-24.891 117.208-15.359 33.237-34.708 65.455-61.109 91.292 17.02 2.139 34.098 5.331 50.42 10.871 14.203 4.857 28.61 14.355 32.773 29.786 8.738 59.165-12.04 130.596-43.822 174.245-11.46 18.432-22.293 38.703-23.345 60.93-2.975 20.888 20.575 35.872 37.633 39.996 17.691 5.15 36.22 5.707 54.45 6.444a250.5 250.5 0 0 0 49.425-3.583c12.593-2.899 26.462-6.099 36.106-15.451 8.609-8.48 4.136-24.132 4.383-34.531-.595-10.751-1.555-21.44-2.06-32.189-.115-9.514-1.317-19.027-1.501-28.525-.09-3.442 4.208-6.114 6.47-9.189 18.78-21.349 29.187-48.424 33.522-76.253 4.789-30.564 1.968-61.437-.454-92.051 29.877-2.86 59.979-6.023 88.598-15.72 20.115-6.726 39.468-16.902 54.668-31.95 5.651-5.257 11.903-11.908 16.502-17.329 4.133-5.5 9.283-10.68 12.216-16.951 6.105-24.455 14.404-48.276 26.706-70.371 5.735-10.392 11.659-20.732 18.408-30.504a535 535 0 0 0 10.342-14.696c3.01-5.148 9.063-9.594 10.56-14.479 5.662.26 10.265 6.001 14.366 8.542 4.208 3.293 8.41 6.606 12.695 9.779 6.287 3.938 1.389 7.83-2.196 11.882-26.554 31.625-46.369 69.835-52.57 110.997-6.707 39.966 3.53 80.586.081 120.66-2.746 33.233-15.988 64.466-26.69 95.663-8.495 22.982-19.124 63.66 17.958 74.187 24.837 6.982 56.118 6.032 79.075 1.588 20.461-4.995 42.362-13.53 54.806-31.49 6.164-9.808 4.747-19.17 2.337-29.034-4.172-18.096-8.732-36.16-11.19-54.6-2.925-16.59-1.29-33.408-.576-50.06 3.37-58.613 6.477-117.272 9.468-175.906 1.44-29.4 3.372-58.742 4.735-88.133 1.827-28.898.285-58.05-6.871-86.198-13.889-54.981-40.66-107.09-78.424-149.496-14.354-16.734-31.408-31.305-49.551-43.73-27.269-18.902-64.016-29.905-96.048-16.455-29.411 12.39-53.008 35.726-82.55 47.853-19.87 8.232-46.206 7.302-64.59 1.007-14.053-4.854-26.719-12.848-39.939-19.456-9.724-5.558-21.538-11.743-31.537-14.314-17.238-3.98-34.903-.456-50.541 7.397-7.707 3.44-15.277 7.253-22.674 11.285-7.076 3.226-16.106 9.933-22.574 11.032-2.734-15.44-3.681-32.512-14.144-45.39-4.838-6.085-13.562-11.337-20.922-3.627-5.616 5.621-8.521 13.242-10.94 20.614-3.912 13.535-6.552 27.498-7.582 41.563 1.906 17.408-22.385 14.056-32.714 12.454-11.776-2.477-22.903-7.771-34.924-9.241-21.438-2.306-42.495 5.023-60.665 15.884-12.414 7.18-25.452 18.4-33.644 28.682-7.8 8.22-11.15 19.159-16.81 28.627-19.26 27.042-37.453 54.867-56.655 81.934 5.52 2.5 7.18 11.099 7.79 17.456 1.41 12.94-.894 26.458-9.085 36.943-6.09 8.682-14.686 15.465-24.261 19.842-8.943 4.889-19.351 4.583-28.965 5.952-5.88 5.463-9.267 13.105-14.231 19.307-2.19 2.813-3.997 5.926-6.429 8.547-1.782 2.618-6.682 4.532-6.253 7.634 9.449 24.385 5.41 53.567-11.812 73.347-14.49 15.956-41.251 32.8-68.254 24.472-8.719 21.075-10.651 48.553-8.981 69.143 1.16 11.683 4.447 23.349 11.08 33.16 6.472 9.544 16.56 16.13 27.708 18.763 6.332 2.463 14.469 1.342 20.325 2.916 20.561 12.158 44.78 19.838 68.97 15.024 22.413-4.67 41.375-18.351 59.882-30.99 25.838-19.533 55.757-34.686 88.566-37.399 24.002-3.066 53.486-4.323 73.764-14.538 63.924-34.429 108.728-100.329 122.35-170.852 3.208-17.549 5.568-35.367 5.836-53.227m-429 1456c3.277.215 5.868 5.334 9.156 4.285 5.953-1.793 11.245-7.316 16.078-10.073 15.329-10.424 29.809-22.079 43.982-33.988 79.325-69.381 131.175-165.893 152.927-268.452 25.608-110.978 22.16-225.784 22.857-338.772h432c.36 4.996-.372 11.347.222 17.022.055 4.107-.636 9.013.088 13.247-.104 3.848 4.436 3.72 7.235 3.727 10.515.175 21.018-.014 31.482-1.063 3.862-.816 9.547-.456 12.473-1.933-4.627 8.484-12.932 15.748-18.54 23.813-4.915 6.24-10.096 12.239-15.003 18.473-2.009 2.167-3.732 4.647-5.848 6.702-3.73 3.231-10.908 1.45-16.25 2.012H1677c.702 8.073 3.854 15.826 5.694 23.683.943 4.81 6.865 4.553 10.882 4.317h162.139c12.181-.736 29.018 3.399 39.003-8.482 5.953-7.128.476-11.78-4.91-15.354-4.77-4.133-9.588-8.203-14.42-12.25-20.291-16.77-41.397-32.566-62.388-48.414 16.762-4.81 37.675-10.123 51.388-18.867 5.65-4.621 2.777-14.691 3.612-20.936v-101.129c.15-2.351-.138-5.393.977-7.343 6.388-3.717 14.79-4.614 21.06-8.955 5.921-3.55 14.363-8.44 13.963-15.27-13.332-7.711-25.133-18.825-37.977-27.472-23.518-17.392-46.912-34.94-70.43-52.332-4.774-2.938-10.854-10.607-15.904-6.11-17.291 18.31-34.379 36.847-51.5 55.32-3.706 5.733-11.344 4.778-16.373 4.594h-363.73c-9.16-.344-18.4.453-27.528-.327-53.299-15.49-105.145-36.78-158.558-51.673v234.6c-.7 113.063-.156 226.579-13.076 339.074-7.221 54.07-16.537 108.17-32.248 160.51-7.435 24.367-16.634 48.14-26.996 71.384-5.692 11.4-10.351 23.357-16.924 34.311-3 5.582-5.773 11.284-9.091 16.69-2.333 5.008-7.048 10.248-7.665 15.431m48-1243.062c-.02 7.628.822 16.977 4.755 22.872 4.113 6.375 14.866 6.193 20.66 2.688 7.378-5.142 9.452-18.019 16.279-25.765 7.613-11.758 23.333-18.34 32.018-27.2 12.085-14.466-3.54-27.93-16.93-30.723-15.63-3.31-33.25.58-43.146 14.043-10.145 12.041-13.688 28.583-13.636 44.085M1256 2364h274v160c39.04 1.04 79.02-2.18 115.113-18.672 8.011-3.524 18.436-7.29 16.887-19.537V2364h253.2c12.105.296 28.68.167 32.197-12.737 1.425-5.249-5-8.997-8.004-12.359-28.522-26.359-58.465-51.078-88.12-76.145-3.588-2.378-7.883-8.12-11.65-8.271-5.296 4.775-10.272 13.189-15.489 19.823-14.074 20.876-30.872 40.4-44.134 61.689h-118v-98h214.8c8.326-.232 18.356.713 25.795-1.441 7.02-1.512 12.574-7.14 12.904-14.455-6.422-9.348-18.139-17.846-25.532-25.126-13.224-11.587-26.477-23.159-39.927-34.487-6.742-5.691-13.259-11.598-20-17.268-3.37-3.177-6.885-6.18-10.424-9.148-2.778-2.448-5.905-5.995-10.616-6.075-16.738 27.78-40.232 52.217-57 80h-90v-59c12.368-1.82 30.172-6.367 30-25-26.942-3.107-54.123-4.746-81.128-7.305-26.976-2.072-53.852-5.323-80.872-6.695v98c-28.903-.76-58.209.926-87-.5 5.84-6.24 11.64-14.509 16.477-20.647 4.512-7.376 11.27-13.786 14.523-21.853 13.64-.084 35.898-.376 38-21-31.403-9.323-61.937-21.969-93.184-31.9-11.678-3.975-23.256-8.303-35.024-12.015-5.172-1.79-10.216-3.943-15.479-5.48-2.05-.44-5.725-1.785-6.691.236-8.66 38.835-17.589 77.69-30.235 115.496-6.118 18.626-12.196 37.258-19.677 55.386-3.653 8.856-7.276 17.744-11.263 26.455-2.753 8.656-10.625 19.221-11.447 26.822 5.22 1.046 8.88 8.302 15.93 4.826 34.987-20.61 67.668-45.058 97.44-72.696 3.626-3.62 7.242-7.25 10.865-10.86 3.422-4.18 7.591-4.68 12.413-4.27H1530v98h-281c.579 9.349 5.369 19.66 7 28m26-1237.692c-.369 11.039 4.117 23.822 10.93 31.086 7.171 8.214 18.666 11.099 29.219 9.144 18.549-4.392 30.816-22.899 34.48-40.534 3.512-19.476-2.46-46.499-23.756-51.376-31.559-6.667-51.82 26.512-50.873 51.68M1301 1842h432v-117h-432zm9 138h162c12.25-.732 27.01 1.16 38.074-1.284 9.128-1.737 19.631-12.43 8.307-20.712-25.603-22.172-52.664-42.591-79.691-62.963-3.479-2.523-6.975-5.038-10.385-7.643-3.501-1.935-6.831 1.233-8.8 4.246-8.439 10.029-16.637 20.218-24.92 30.363-7.064 10.448-17.267 19.196-23.585 29.993h-68c.685 9.653 5.751 18.463 7 28m0 104h168.6c9.42-.022 18.831.027 28.238-.014 8.143.097 16.953-1.697 22.662-7.986 1.304 6.49-.137 13.426.5 20 20.27.133 40.622.643 60.741-2.33 14.13-2.245 30.588-5.708 43.19-9.374 5.245-1.315 10.27-3.258 15.235-5.364 4.005-1.975 9.802-3.875 11.687-7.457 2.56-8.62.116-18.133 1.147-26.96V1921c6.135-.19 13.693-1.873 18.006-5.744 4.704-4.148 7.242-10.153 7.994-16.256-52.622-4.383-105.294-9.63-158-13-.76 59.237.926 118.885-.5 178-26.078-22.375-53.233-43.466-80.81-63.96-5.498-3.989-14.928-14.985-20.9-4.494-8.047 10.038-16.083 20.105-24.126 30.141-7.257 10.412-17.314 19.425-23.664 30.313h-77c.685 9.653 5.751 18.463 7 28m120-773.75c1.866 4.552.629 11.769 2.133 17.47 4.4 40.075 23.839 76.344 32.367 115.28 8.696-27.82 18.54-55.888 20.579-85.184.063-7.82 1.508-17.21.006-24.302-1.888-10.418-14.659-15.19-23.24-17.72-10.03-2.917-22.306-4.988-31.845-5.794zM1684 2084h179.4c11.613-.673 27.57 2.98 38.97-7.332 9.56-9.601-7.256-19.094-13.134-24.484-14.27-12.175-29.393-23.287-44.028-35-11.362-8.39-22.514-17.027-33.915-25.34-4.962-4.347-9.45 3.545-12.05 6.588-11.506 14.273-23.135 28.43-34.44 42.85-2.873 3.574-5.736 7.185-8.622 10.733-4.697 5.929-14.84 3.366-21.349 3.985H1677c.682 9.603 5.075 18.652 7 28" style="fill:#fff;fill-rule:evenodd;stroke:none"/><path d="M449 2668h2102c-110.242-665.144-221.837-1330.12-332.532-1995.186-3.476-20.835-6.96-41.682-10.42-62.51-1.682-10.253-3.434-20.498-5.126-30.74-1.284-4.301-.763-13.077-5.037-14.575-157.034-52.902-314.464-104.735-471.586-157.384-59.003-19.668-117.989-39.359-177-59-12.991-4.38-26.002-8.647-38.997-13.002-3.112-1.025-6.191-2.224-9.42-2.795-5.85.042-13.257 4.126-19.018 5.393-97.504 32.546-195.061 65-292.567 97.54-73.178 24.36-146.325 48.77-219.478 73.159-54.841 18.294-109.718 36.516-164.531 54.86-6.415 1.276-7.163 6.488-7.57 12-26.516 158.994-52.99 317.976-79.524 476.964A2145928 2145928 0 0 0 449 2668m829-1330c4.826 27.855 31.328 48.193 33.87 77.054 3.807 22.613-3.422 45.189-9.236 66.692-4.069 16.167-10.18 32.022-12.167 48.653-2.402 13.738 8.506 23.444 17.166 30.305 15.127 11.454 34.725 15.174 53.183 16.23 10.346-.02 20.721.227 31.05-.095 9.112-1.108 18.186-2.851 27.134-4.839 8.567 38.101 50.235 49.97 80.097 56.107 40.736 6.044 83.729 6.315 123.369-6.137 18.17-6.437 37.335-15.842 46.777-33.787 4.577-9.383 5.131-19.947 4.35-30.148-.225-10.354-.867-20.653-1.635-30.975-.707-8.665-1.415-17.317-1.977-25.982-1.958-8.302 2.984-13.007 7.27-18.982 13.106-20.633 21.962-43.546 28.244-67.078 7.606-25.38 7.232-51.907 5.505-78.018 16.367-2.692 33.039-4.014 49-9 2.619 20.827 4.662 42.157 3.428 63.181-2.518 13.922-13.726 27.108-20.14 37.893-5.431 8.414-12.352 18.613-13.868 27.898-3.56 19.285 13.002 28.898 28.688 33.906 16.347 5.534 33.748 7.206 50.892 7.122 1.86 11.492 4.092 23.196 11.082 32.9 9.845 14.653 26.246 22.837 42.788 27.496 17.685 5.645 36.337 6.947 54.761 6.604 35.542.51 72.437-7.963 101.51-29.179 13.253-9.951 23.391-23.834 26.935-40.19 4.891-17.695.37-36.05-3.691-53.299-2.893-13.463-5.849-26.918-7.893-40.533-2.6-23.268.823-50.762 1.46-72.151 3.828-73.213 7.772-146.397 11.545-219.607 10.72-108.828-32.53-220.726-112.699-295.178-19.089-17.97-40.674-33.374-64.33-44.701-18.84-8.793-39.292-14.087-60.179-14.147-30.973-.486-59.844 13.987-84.773 30.97-21.864 13.96-49.17 39.009-80.207 25.715-26.2-9.667-49.59-26.908-77.302-32.707-28.675-7.118-57.283 3.597-83.491 14.007-8.16-15.169-13.534-37.26-37.979-40.025-20.454-3.968-39.039 10.545-48.653 27.197-8.452 13.743-14.746 32.217-16.884 46.828-9.577-1.111-18.76-5.083-28.549-4.986-9.536-1.15-20.676-.313-29.451-.014-.753-23.737-13.944-49.47-26.646-66.507-6.931-9.047-16.333-19.123-25.683-24.078-5.537-2.682-12.195-4.234-18.219-2.334-5.899 1.933-10.172 6.778-13.288 11.94-13.002 25.045-6.74 60.07 3.103 82.44 4.428 8.55 8.151 17.824 14.733 25.039-12.8 7.97-24.15 18.441-34.266 29.59-7.076 8.562-13.477 17.671-18.168 27.755-7.836 14.898-19.148 27.674-27.84 42.055A3610 3610 0 0 1 1148.5 990c-6.916-9.471-13.038-19.542-19.127-29.543-4.444-7.957-8.727-15.978-13.329-23.832-3.952-5.365-8.191-12.978-14.983-12.19-4.94-.142-6.75 8.367-8.114 11.39-3.991 15.806-4.802 32.255-5.614 48.443-.763 17.583.68 35.466 5.44 52.45 2.64 7.526 4.018 15.907 8.227 22.782-4.983 7.098-9.994 14.268-14.896 21.439-5.148 6.226-9.165 16.55-16.104 19.061-.914-3.149-4.77-5.89-6.7-9.27-34.84-45.519-52.252-101.381-67.515-155.855-2.12-7.35-4.323-14.691-7.368-21.72-2.357-5.518-6.782-12.41-12.454-12.67-5.914-.738-8.845 8.175-10.588 12.09C953.4 951.643 951.204 993.006 951 1033.52c-.468 32.692 4.14 65.229 11.133 97.053 2.93 12.983 6.61 25.769 11.378 38.201 3.663 8.807 7.565 19.417 12.199 26.889 3.514 6.055-2.776 13.539-4.4 19.584-8.78 21.46-13.047 44.44-13.257 67.585-.285 36.571 13.633 87.632 60.358 102.234 5.553 1.553 11.264 2.494 16.97 3.238 4.55.708 10.171.357 14.135 2.025 14.484 7.312 29.794 13.8 46.21 15.062 16.74 1.606 33.752-.663 49.69-5.759 21.349-8.267 40.995-20.293 59.6-33.501 19.347-12.561 40.463-22.733 62.984-28.131m208-276c12.033.483 23.951 2.822 36 3-3.015 39.587-9.734 79.373-25.252 116.139-15.513 33.346-35.028 65.603-61.748 91.361 3.11 2.128 8.564 1.558 12.768 2.777 16.768 2.866 33.902 6.244 49.288 13.787 13.809 6.752 24.327 20.872 23.928 36.708.58 31.345-1.85 63.246-12.74 92.957-4.096 12.235-8.69 24.29-12.827 36.5-3.269 9.763-13.93 19.457-19.447 30.27-11.788 18.635-22.771 39.31-23.945 61.847-2.995 22.736 18.41 36.323 35.658 41.375 17.705 5.453 36.388 6.274 54.733 6.971 15.755.592 34.303-.5 48.588-2.676 12.93-2.29 26.206-5.67 37.188-13.217 11.652-7.768 8.932-22.42 8.157-33.231-1.254-21.777-2.825-43.561-3.753-65.35-.341-3.335 4.416-5.86 6.336-8.914 18.78-21.35 29.187-48.424 33.522-76.253 4.44-30.56 2.433-61.452-.454-92.051 29.877-2.86 59.979-6.023 88.598-15.72 20.115-6.726 39.468-16.902 54.668-31.95 5.651-5.257 11.903-11.908 16.502-17.329 4.133-5.5 9.283-10.68 12.216-16.951 6.105-24.455 14.404-48.276 26.706-70.371 5.735-10.392 11.659-20.732 18.408-30.504a535 535 0 0 0 10.342-14.696c3.01-5.148 9.063-9.594 10.56-14.479h1.5c8.814 7.603 18.649 13.973 27.5 21.5-27.744 29.624-47.37 66.707-56.62 106.154-7.711 32.737-3.305 66.243-1.813 99.299 1.588 24.908-.264 50.137-8.112 73.968-5.198 16.723-11.15 33.178-16.906 49.699-9.56 23.88-18.746 57.793 4.023 75.528 10.599 7.65 26.55 8.628 37.899 9.938 13.916 1.061 27.902 1.473 41.75-.612 16.613-1.555 32.777-6.679 47.277-14.869 9.733-6.166 22.408-14.404 25.023-29.186 1.68-12.091-2.917-23.88-5.233-35.531-4.569-21.519-9.825-43.289-9.222-65.466 3.246-66.847 7.218-133.648 10.671-200.475.916-23.05 2.724-46.042 3.547-69.083 1.682-24.198 2.908-48.705-.159-72.852-7.787-62.458-36.158-121.493-74.62-170.656-15.906-19.758-34.216-37.63-55.087-52.102-15.537-11.054-32.911-19.433-51.647-23.306-15.133-3.553-31.142-2.4-45.784 2.394-19.947 7.204-36.756 20.365-54.517 31.46-17.346 11.784-36.34 23.09-57.94 24.095-18.361 1.248-36.814-2.57-52.93-11.614-24.322-11.414-47.97-30.527-76.434-28.681-27.417 2.801-50.878 19.201-74.666 31.398-2.267-4.383-1.17-9.798-2.514-14.44-3.935-14.927-8.713-37.14-25.463-38.45-9.297-.117-14.2 9.087-17.215 15.638-3.316 7.626-5.42 15.677-7.127 23.794-1.418 7.87-2.818 15.755-3.544 23.71-.306 3.777-.447 7.63-1.092 11.351-2.787 5.765-14.094 4.696-18.958 5.17-12.882-.1-24.755-5.22-36.915-8.62-21.89-6.107-45.187-.312-64.55 10.295-14.18 6.937-26.75 16.884-37.386 28.479-8.106 8.575-13.162 19.095-18.144 29.593-20.151 28.447-39.086 57.8-59.592 85.98 9.023 5.33 9.283 18.987 8.908 28.01-1.567 29.642-33.79 54.735-62.908 49.49-2.87 7.012-9.062 12.552-12.577 19.295-3.815 6.954-9.262 12.38-15.423 17.205 11.836 23.878 6.852 54.228-10.246 74.028-16.205 18.564-43.59 31.867-68.754 24.472-5.461 17.148-9.57 35.019-9 53.147-.773 23.935 3.88 57.486 32.967 67.842 6.253 2.522 12.983 3.848 19.71 3.993 8.549-.146 17.627 7.849 26.914 10.85 9.35 3.781 19.447 5.59 29.482 6.108 21.86 2.923 43.029-6.963 60.997-18.275 13.588-8.18 25.995-18.163 39.396-26.627 20.666-12.966 44.193-21.586 68.483-24.283 23.732-2.99 52.57-4.429 72.883-13.694 19.763-9.419 39.711-26.065 53.77-40.163 50.111-47.493 75.823-116.583 76.398-184.898m-429 1453.5c2.295 2.044 5.371 3.086 7.5 5.5 48.344-31.943 93.302-70.331 126.97-117.979 25.637-35.484 46.282-74.342 62.079-115.143 49.461-133.791 46.47-278.68 46.451-418.878h434c1.55 10.839-.609 22.163.5 33 17.385 4.132 36.126-2.008 53.5-1.5-13.898 15.694-26.348 32.648-40.026 48.526-3.905 5.406-11.034 3.72-16.316 3.974H1678c1.688 7.851 4.02 15.737 6.37 23.41 1.366 4.257 9.697 1.68 12.6 2.59h161.559c13.162-.342 32.199 3.505 38.471-14.543-27.141-24.814-57.064-46.366-86-68.957 16.595-6.942 36.123-9.072 51.562-19.288 6.365-3.978 3.966-14.132 4.438-20.318v-100.532c-.127-4.584-.726-9.891 5.362-11.305 6.164-2.003 12.496-3.855 17.914-7.559 4.727-3.254 12.065-7.088 12.724-12.498-41.573-26.777-79.077-61.139-120.656-88-8.73 9.22-16.981 18.86-25.818 27.975-8.471 8.49-15.929 17.917-24.396 26.395-1.997 1.922-3.764 4.028-5.755 5.933-1.6 2.373-6.521 1.2-8.765 1.697h-366.13c-9.2-.023-18.39.028-27.58-.015-7.194-.1-13.82-3.435-20.605-5.381-46.816-15.366-93.425-31.466-140.295-46.604v233.4c-.68 112.785-.13 226.052-12.848 338.277-7.137 53.786-16.128 107.661-31.709 159.747-14.612 48.193-35.348 95.193-61.443 138.076m48-1241.647c.003 7.242.995 15.906 4.453 21.531 4.185 6.497 13.917 7.031 19.822 2.505 6.55-5.164 8.533-16.982 14.8-24.337 7.839-11.825 21.248-17.82 31.564-26.877 5.257-4.557 7.068-12.903 2.393-18.55-4.111-5.543-11.639-9.784-17.702-11.206-15.383-3.502-32.412 1.222-42.005 14.291-9.763 11.247-13.435 29.236-13.325 42.643M1257 2363h274v160c38.38.984 77.646-2.554 113.113-18.672 7.623-3.585 18.195-7.01 16.887-18.938V2363h258c7.655.204 15.973-.314 22.285-5.268 2.812-1.9 4.47-4.83 5.216-8.049.286-2.738-3.297-4.763-5.221-6.933-32.35-30.634-67.386-58.3-100.78-87.75-11.018 12.77-19.622 27.476-30.182 40.615-9.1 14.144-20.951 26.882-29.318 41.385h-120v-100h198.6c11.008-.061 22.04.075 33.047-.04 11.178.48 18.956-5.03 22.353-14.46-32.769-32.376-69.297-60.713-103.5-91.5h-1.5c-16.738 27.78-40.232 52.217-57 80h-92v-61c11.807-1.961 28.584-5.54 30-23-53.273-4.975-106.661-9.556-160-14v98h-90v-1.5c6.237-6.476 11.515-13.848 16.967-20.964 4.68-7.59 11.633-14.225 15.033-22.536 13.282.14 32.738.205 38-19-49.143-16.534-98.712-33.467-147.5-51-2.324 3.58-2.303 9.769-3.917 14.564-15.594 71.96-37.34 143.13-69.583 209.436 4.878.718 8.172 7.892 14.523 4.51 33.57-19.553 64.583-43.029 93.427-69.033 3.835-3.664 7.496-7.498 11.283-11.21 3.015-3.077 6.306-7.41 11.823-7.234 36.65-.095 73.3.018 109.944-.033v100h-281c1.37 8.852 5.046 17.285 7 26m26.002-1236.77c-.239 19.263 12.853 44.24 39.336 39.043 17.724-4.846 29.306-22.553 33.142-39.517 3.508-18.971-2.567-44.837-22.963-49.977-30.718-6.68-49.625 26.706-49.515 50.452M1300 1843h434c.965-38.899-1.299-79.167 1-117.5-3.092-2.303-8.603-1.102-12.899-1.5H1300zm4 110.5c2.08 8.514 5.272 16.897 7 25.5h183c7.16.176 14.796.064 21.14-3.803 4.247-2.82 10.301-8.413 4.825-13.683-29.845-26.788-62.444-50.473-94.465-74.514-9.69 10.335-17.738 22.11-27.213 32.632-7.3 10.644-18.366 20.552-26.287 33.368h-68zm0 104c2.08 8.514 5.272 16.897 7 25.5h170.4c17.364-.879 39.435 4.248 49.1-11 1.315 7.466-.148 15.432.5 23 38.677.818 78.263-1.47 114.695-16.068 4.39-1.713 8.92-3.418 12.582-6.476 3.453-2.65 2.516-8.508 2.723-12.151V1920c5.971-.305 12.322-1.48 17.24-5.093 5.442-3.884 6.404-9.167 8.76-14.407-6.262-2.08-13.273-1.396-19.77-2.382-45.424-3.433-90.777-8.089-136.23-11.118-.76 59.903.926 120.209-.5 180-31.001-26.779-63.492-52.573-97-76-9.371 10.499-17.414 22.133-26.569 32.817-7.968 11.393-18.88 21.293-25.931 33.183h-77zm160.5-609.5c8.495-29.551 19.9-59.017 21.67-90.068.69-13.331 5.21-31.684-13.243-39.442-13.461-5.455-30.62-8.952-43.927-9.49 1.555 12.3 2.037 24.783 5.065 36.883 7.262 34.69 22.908 67.79 30.435 102.117m220.5 635h187.2c7.545.21 15.384.402 22.39-2.897 4.92-2.043 11.814-7.672 9.379-12.968-14.906-14.138-31.43-26.588-47.515-39.345-16.252-12.231-32.238-25.297-48.954-36.79-16.591 18.838-31.456 39.17-47.483 58.483-1.875 2.625-3.961 5.033-6.608 6.892-24.986 1.783-50.353-.325-75.409.625 1.37 8.865 5.072 17.272 7 26" style="fill:#000;fill-rule:evenodd;stroke:none"/></svg>