<svg xmlns="http://www.w3.org/2000/svg" width="3000" height="3000"><path d="M157 2957.5c447.26 1.426 895.325-.26 1342.75.5 447.681-.76 895.643.926 1343.25-.5-89.24-527.6-175.768-1056.319-264.274-1584.188-32.881-197.178-65.724-394.337-98.6-591.504-14.975-86.916-28.91-174.043-43.658-260.994l-20.26-121.515c-4.237-19.837-5.613-40.387-10.571-60.035-2.23-3.666-9.156-3.713-13.331-6.001-153.686-51.195-307.327-102.464-461.007-153.658-134.313-44.829-268.697-89.519-403.002-134.345-7.496-2.464-14.948-4.998-22.428-7.466-7.106-3.118-15.85 1.66-22.572 3.602-115.69 38.56-231.359 77.11-347.031 115.675-101.317 33.788-202.65 67.568-303.967 101.324-44.313 14.829-88.697 29.519-133.002 44.345-20.83 6.934-41.652 13.855-62.47 20.817l-30.53 10.183c-4.798 1.638-11.417 2.822-12.665 7.456C487.841 971.739 383.296 1602.542 278.126 2233.19 237.363 2474.168 198.262 2717.071 157 2957.5m129-109c404.26 1.426 809.325-.26 1213.75.5 404.681-.76 809.643.926 1214.25-.5-136.001-808.723-269.532-1618.554-405-2427.5-121.158-39.902-242.091-80.773-363.181-120.9-105.831-35.292-211.691-70.548-317.522-105.84-23.178-7.695-46.325-15.437-69.478-23.16-11.32-3.747-22.638-7.56-33.954-11.3-11.001-3.155-23.527-10.094-32.865-5.96-87.061 29.024-174.142 58.01-261.181 87.06-152 50.638-304 101.362-456 152-14.35 4.71-28.615 9.586-42.954 14.3-6.987 2.367-14.011 4.677-21 7-3.503 1.223-7.08 2.327-10.57 3.55-2.671 1.224-8.358 2.025-9.01 4.902-72.98 428.144-142.541 857.209-214.816 1285.534C412.567 2087.831 350.362 2469.393 286 2848.5" style="fill:#757575;fill-rule:evenodd;stroke:none"/><path d="M1007 2628h943.8c13.549-.291 27.304.482 40.733-1.808 10.185-1.058 25.147-14.08 14.652-21.692-31.304-27.077-64.327-52.066-97.044-77.368-12.39-9.129-24.348-18.867-36.627-28.117-5.607-4.032-10.98-8.366-16.46-12.55-2.126-1.573-5-4.318-8.069-3.909-16.78 17.688-30.045 38.84-46.06 57.265-11.312 14.515-22.914 28.784-34.088 43.392-4.117 5.317-8.297 12.922-16.617 11.787H1584v-407h278.4c11.215-.029 22.434.036 33.644-.02 8.708-.078 19.841-3.475 24.704-10.284 7.225-9.206-1.922-14.421-8.71-19.472-24.072-19.975-48.73-39.222-73.368-58.467-18.104-14.973-37.442-28.369-55.996-42.73-3.484-2.39-7.264-6.677-11.15-6.453-21.9 24.084-40.45 51.43-61.593 76.243-4.962 6.605-10.236 12.924-15.356 19.387-3.5 5.016-6.907 10.772-14.923 9.796H1584v-359h342.6c10.12.316 23.226-1.173 30.146-8.288 2.74-2.647 7.034-9.007 3.75-12.05-27-23.02-55.355-44.622-83.161-66.662-21.359-15.948-42.212-32.527-63.304-48.793-3.497-2.332-9.09-9.06-12.715-5.505-24.12 28.547-45.981 59.116-69.77 87.964-2.943 3.82-5.891 7.628-8.958 11.341-2.629 3.131-4.713 6.798-8.068 9.222-16.196 2.134-33.118-.336-49.467.771H1041c1.378 9.57 5.635 18.648 7.69 28.079 1.04 5.302 9.605 3.63 13.3 3.921H1409v359h-330c1.256 10.93 6.73 21.054 8 32h323v408h-360.6c-16.792-.359-33.684.692-50.4-1 .884 11.006 7.371 22.863 8 33m560.5-1698c.941-25.744 4.099-52.235 3.321-78.198-2.748-26.86-31.482-36.6-51.821-39.802v-59h44v-27h-44v-40h-38v40h-44v27h44v59c-14.544 2.674-30.488 6.419-41.102 17.602-14.081 12.047-11.188 31.38-10.407 46.244 1.693 17.393 1.76 37.945 3.509 53.873-24.407-23.65-55.756-41.286-89.707-46.775-26.59-4.284-54.091-3.477-79.982 4.249-36.762 11.678-64.517 43.112-75.902 79.342-12.696 38.703-12.287 81.478-.05 120.193 10.556 35.813 29.736 68.602 51.124 98.919 15.755 23.273 35.048 43.678 53.445 64.734 1.466 1.91 4.686 4.242 4.606 6.407-2.538 43.973-6.155 87.97-8.735 131.967-2.137 21.885-2.356 43.907-4.636 65.78-.73 10.523-2.542 23.605 1.798 32.703 4.124 8.72 13.676 15.748 21.247 19.846 19.314 10.72 40.966 15.53 62.445 19.558 81.082 14.227 164.584 14.584 246.114 4.024 19.602-2.648 38.89-7.466 57.792-13.092 13.057-5.184 26.72-10.69 36.509-21.198 9.034-8.97 9.704-19.629 8.484-30.644-2.06-34.196-5.128-68.31-7.031-102.506-2.332-33.592-4.6-67.173-6.88-100.76-1.68-7.082 2.746-10.734 6.94-15.205 29.75-30.814 55.892-65.26 77.392-102.264 20.934-39.834 37.707-84.544 33.159-130.558-1.097-29.397-9.647-58.6-25.784-83.253-12.384-17.064-28.34-31.826-48.091-39.868-60.124-24.505-135.141-8.252-179.757 38.682m-91.5 286c-.275-21.076.668-42.205-1.18-63.214-5.901-65.503-29.483-131.602-73.957-180.987-21.61-24.157-52.417-44.053-85.96-43.799-16.763-.634-33.673 3.816-47.576 13.362-13.251 9.342-22.61 22.795-28.664 37.572-8.223 21.232-11.164 48.39-8.735 69.101 4.311 32.578 18.241 63.013 34.64 91.09 15.998 27.484 35.005 53.119 56.049 76.974 4.83 4.045 9.079 10.207 13.336 14.023 3.847 3.146 11.063-1.022 16.41-1.095 41.436-7.613 83.47-12.817 125.637-13.027m-144.846 255.784c.064 9.683 11.868 14.995 18.891 17.834 26.81 9.656 55.644 11.028 83.73 13.016 45.415 1.88 91.022 1.858 136.412-.283 21.337-1.038 42.638-3.382 63.547-7.819 9.636-2.495 19.704-5.121 27.957-10.953 3.508-2.787 7.813-6.854 7.079-12.69-.341-4.585-5.224-9.094-8.218-10.966-22.576-12.245-49.113-13.935-74.021-17.017-41.692-3.98-83.626-2.82-125.445-2.852-20.244.433-40.54.574-60.573 3.824-18.818 2.196-40.887 7.317-56.795 14.42-5.315 3.04-12.645 7.267-12.564 13.486M1337.5 1425c51.648-16.96 107.272-17.531 161.046-18.998 54.796 1.088 111.257 2.024 163.954 18.998 1.134-9.203-1.515-18.843-.96-28.153-.262-9.623-1.232-19.235-1.54-28.847-104.223-28.332-215.734-27.668-320 0-.3 9.8-1.617 19.527-1.552 29.35-.293 5.002-.242 10.03-.686 15.012-.423 4.012-1.418 8.968-.262 12.638m5.5-95c51.082-13.194 104.13-15.002 156.534-16.915 26.936.813 53.92 1.425 80.714 4.578 24.688 3.283 54.567 5.782 76.252 13.337 1.455-9.758-1.77-19.91-1.677-29.724-1.316-10.054-1.25-20.263-2.823-30.276-50.25-12.368-102.143-18.643-153.919-18-50.45-.101-101.143 5.633-150.081 18-1.591 9.85-1.429 19.911-2.863 29.792-.377 9.489-1.78 20.549-2.137 29.208m156.5-290c8.029-18.6 14.132-38.77 25.542-55.944 5.134-7.014 4.055-15.97 3.958-24.14-.545-30.535.664-61.165-.359-91.669-1.21-6.382-3.244-14.358-7.67-18.664-7.424-7.314-18.739-9.932-28.715-7.326-10.309 2.012-18.185 10.401-19.726 20.675-3.002 12.883-.568 30.87-1.53 46.457V945.9c.084 9.212-.103 18.427.056 27.628.192 6.516 4.807 11.667 7.368 17.325 7.97 15.898 15.401 32.298 21.076 49.147m24.5 176c37.108.588 74.092 5.594 110.767 10.897 6.65 1.05 13.31 2.03 19.933 3.151 3.008.852 6.114 1.061 9.168 1.438 32.823-31.636 59.348-71.035 81.774-110.757 10.98-21.315 20.02-43.964 23.705-67.786 4.145-24.302-.222-53.696-8.269-74.602-7.011-16.883-17.919-32.657-34.499-41.402-30.494-15.954-68.705-10.274-96.48 8.3-40.539 26.616-67.67 70.37-84.077 115.092-9.495 24.23-15.192 49.73-19.303 75.351-3.78 26.593-2.565 53.512-2.719 80.318" style="fill:#fff;fill-rule:evenodd;stroke:none"/><path d="M1002 2595.375c2.48 2.393 7.306 1.186 10.346 1.625H1411v-410h-2v408c-135.588.57-271.514-.694-407 .375M1436 754h46v-2h-44c.273-8.518-.44-17.663.5-26h-2.5zm82-1.5c.03.55.186 1.058.5 1.5h45.5v-28h-2c-.433 8.568.433 17.053 0 26-14.524.725-29.658-.891-44 .5" style="fill:#bfbfbf;fill-rule:evenodd;stroke:none"/><path d="m1436 726.5.5 1.5c2.864-1.621 7.541-.62 11.254-1H1482v-40h36v40h22.8c7.457 1.077 16.72-1.41 22.7 1 .384-.972.51-1.963.5-3h-44v-40h-40v40h-44zM1583 2157h94.2c3.736-.12 9.208.47 11.8-1.5-34.462-1.426-69.433.26-104-.5v-359h-2z" style="fill:#404040;fill-rule:evenodd;stroke:none"/><path d="M1501 1044v-2h-2c-.227 1.438.704 2.21 2 2" style="fill:#b0b0b0;fill-rule:evenodd;stroke:none"/><path d="M285 2848.5v1.5h2430v-1.5c-135.626-809.364-269.706-1619.074-405-2428.5-121.342-39.954-242.44-80.911-363.734-121.071-105.997-35.348-212.014-70.655-318-106-23.146-7.696-46.251-15.464-69.4-23.13-11.349-3.816-22.687-7.57-34.04-11.356-11.04-3.422-23.963-10.053-33.529-5.703a606540 606540 0 0 0-261 87C1078.145 290.453 925.97 341.187 773.819 391.9c-14.35 4.71-28.615 9.586-42.954 14.3-6.987 2.367-14.011 4.677-21 7-3.503 1.223-7.08 2.327-10.57 3.55-2.671 1.224-8.358 2.025-9.01 4.902-73.08 428.648-142.702 858.22-215.077 1287.05C411.568 2088.343 348.904 2469.203 285 2848.5m715-252c2.385 9.852 6.77 21.248 8 30.5h951c18.787.06 44.128 1.731 51-17.5-51.893-44.336-106.984-84.91-161-126.5-16.284 18.628-30.563 39.179-46.398 58.22-11.477 14.58-23.061 29.09-34.38 43.786-4.264 5.71-7.898 12.408-17.198 10.994H1583v-409h287.4c11.206-.461 24.667.971 34.749-1.53 4.518-1.074 9.526-3.505 12.656-6.435 2.698-2.843 6.161-8.036 3.401-10.929-47.405-41.632-99.088-78.283-148.706-117.106-23.873 28.785-46.797 58.482-70.086 87.747-6.552 6.885-11.05 18.147-21.11 17.253H1584v-360h310.2c13.023-.028 26.028.034 39.04-.018 9.966-.166 21.584-4.01 26.346-13.535 2.409-4.647-3.157-7.683-5.808-9.848-49.67-39.62-99.323-79.784-150.278-117.599-19.318 23.127-37.127 47.521-56.14 70.895-8.195 10.4-16.486 20.75-24.63 31.18-1.863 2.268-3.713 5.241-5.752 7.024-2.686 2.253-6.396 1.827-9.724 1.901H1042c3.337 9.086 5.346 20.886 9.09 28.883 5.51 2.153 10.907.453 16.694 1.117H1410v361h-330c2.481 10.01 6.194 19.831 8 30h322v409h-410zM1566.5 933c-.389-25.858 4.36-52.348 3.43-78.384-1.301-27.888-31.205-38.491-51.93-41.616v-60h45v-27h-44v-40h-38v40h-44v27h45v60c-14.544 2.674-30.488 6.419-41.102 17.602-14.1 11.968-11.18 31.19-10.305 45.976.223 18.74 3.344 37.774 2.907 56.422-29.296-32.112-72.212-50.673-115.485-51.414-21.703-1.88-47.533 3.277-65.647 11.317-19.654 8.324-35.28 23.295-47.512 40.429-20.336 32.028-28.245 71.37-24.905 108.962 2.608 38.723 18.177 75.155 37.385 108.276 20.768 35.873 47.253 67.963 75.194 98.38 2.94 2.713 5.81 5.762 5.247 9.94-4.93 66.108-8.712 132.289-13.732 198.389-.359 8.134-1.883 18 .423 25.286 4.402 12.714 16.456 20.564 27.965 26.171 18.47 9.561 38.998 13.525 59.225 17.293 21.224 3.63 42.626 6.805 64.123 8.257 48.564 3.734 97.464 3.797 145.97-.979 33.658-2.943 73.564-9.406 102.206-21.817 10.94-5.13 22.25-11.431 28.745-22.142 6.53-11.308 3.67-21.91 3.172-33.276-2.645-40.498-5.624-80.998-8.411-121.482-1.331-20.376-2.781-40.763-4.124-61.14-.193-5.208-.898-10.371-1.062-15.567-.285-3.662 2.867-6.608 5.064-8.89 6.836-8.119 14.904-15.166 21.24-23.736 34.465-39.664 65.469-83.976 81.631-134.524 16.77-51.868 14.232-113.406-16.772-159.704-12.358-16.903-28.573-31.252-48.175-39.113-60.283-24.217-134.98-6.397-178.765 41.084m-89.5 284c1.013-40.673.322-81.705-10.596-121.243-7.09-28.128-17.916-55.44-32.34-80.605-20.404-35.155-49.176-69.939-89.186-83.35-20.855-7.483-47.636-5.845-66.234 1.566-19.177 8.616-33.313 25.354-40.981 44.566-8.316 21.516-11.121 49.016-8.862 70.002 4.136 32.978 18.156 63.807 34.768 92.19 15.997 27.483 35.004 53.118 56.048 76.973 4.924 4.138 9.263 10.455 13.653 14.315 2.14 1.863 5.896 1.01 9.042.446 44.272-9.206 89.495-14.275 134.688-14.86m-147.556 254.538c1.313 12.98 15.134 17.485 24.262 20.797 30.832 9.29 63.365 10.467 95.24 12.123 49.975 1.187 100.229 1.34 150.033-3.247 21.125-2.856 47.956-5.502 64.467-17.282 3.891-3.139 8.26-8.234 6.463-14.607-2.52-8.661-10.383-11.793-17.824-15.057-8.04-2.881-16.287-5.132-24.622-6.884-47.897-9.108-96.76-8.753-145.284-8.381-24.608.149-49.253.193-73.742 2.687-22.362 3.02-49.493 6.835-67.991 16.965-4.782 2.372-9.724 6.387-11.002 12.886M1336 1426h1.5c52.883-16.575 108.931-18.036 163.794-18.998 54.622.504 109.969 3.606 162.706 18.998-.24-19.706-2.555-39.307-3-59-104.869-28.338-217.076-27.662-322 0-.076 19.158-3.14 41.466-3 59m5-95.25c.88 1.71 2.943.577 4.252.268 51.16-13.871 104.726-14.799 157.26-16.859 52.445 1.903 105.427 4.8 156.488 17.841-3.684-20.432-2.631-41.517-6-62-50.651-12.499-102.944-18.65-155.117-18-50.71-.142-101.69 5.549-150.883 18-3.61 19.703-2.07 41.484-6 60.75M1499 1043h2c3.901-17.218 13.868-35.817 20.69-50.322 3.355-6.237 9.061-12.724 8.31-21.614-.016-32.85.02-65.68-.01-98.528-.047-10.748-3.995-22.606-13.642-28.24-14.796-7.985-40.634-5.246-44.928 18.122-1.906 7.41-1.408 15.081-1.42 22.691v84.67c-.907 7.732 1.901 12.963 5.734 18.756 8.465 16.444 16.139 33.367 22.209 50.853.443 1.194.811 2.375 1.057 3.612m24 174c37.298.575 74.44 5.666 111.3 10.967 6.864 1.116 13.728 2.065 20.563 3.304 3.187.849 6.425 1.354 9.714 1.242 33.288-31.385 59.695-71.484 82.306-111.253 11.17-21.695 20.16-44.786 23.76-69.045 3.665-24.424-.393-53.89-8.565-74.874-7.09-16.959-18.064-32.987-34.9-41.591-30.87-15.74-69.45-10.114-97.653 8.21-40.792 25.304-70.866 75.852-84.85 116.36-9.566 24.47-15.06 50.264-19.253 76.111-3.21 26.72-2.442 53.676-2.422 80.569" style="fill:#000;fill-rule:evenodd;stroke:none"/></svg>