<svg xmlns="http://www.w3.org/2000/svg" width="3000" height="3000"><path d="M448 2669h2104c-108.019-653.996-218.137-1307.761-326.618-1961.691-6.813-40.83-13.621-81.671-20.41-122.502-.9-5.185-1.732-10.375-2.627-15.558-.693-5.948-7.25-6.546-11.566-8.162a2264805 2264805 0 0 1-451.953-150.644c-56.522-18.824-113.032-37.715-169.56-56.514-12.477-4.17-24.972-8.31-37.44-12.486-6.015-1.98-11.998-4.026-18-6-5.943-1.873-12.256-5.247-18.565-3.023-92.812 30.91-185.585 61.892-278.396 92.78-138.737 46.826-278.12 92.047-416.698 139.266-3.665 1.962-2.298 9.57-3.876 12.727-22.4 134.514-44.811 269.006-67.243 403.502C635.746 1543.503 540.855 2106.166 448 2669m598-379.5c1.552 3.323 6.783 5.201 9.5 8.5 49.215-41.017 94.422-87.121 132.5-139h2v364c19.418.118 39.028.337 58.15-3.586 13.65-2.582 26.86-6.703 39.568-12.295 8.689-3.66 18.945-8.496 25.637-14.093 7.493-5.67 5.555-15.433 5.645-22.885V2005h3c8.821 22.121 17.135 44.53 22.705 67.768 4.512 17.445 8.37 35.136 9.597 53.172.356 3.583.247 7.225.96 10.76 13.737 20.628 45.66 29.428 68.286 19.124 23.417-9.425 37.593-35.753 35.094-60.471-2.81-24.356-16.775-46.69-35.516-62.05-17.36-16.15-38.18-27.896-60.036-36.762-9.457-3.897-19.152-7.218-28.794-10.58-6.868-2.077-16.736-2.581-15.296-12.717V1899h63.6c15.993-.002 32.008.002 47.996-.001 10.18-.12 23.83-.837 28.213-11.117 1.597-3.768-2.776-7.724-4.632-10.065-17.559-20.524-36.117-40.145-55.152-59.292-8.709-8.014-16.41-16.974-24.525-25.525-9.557 12.704-16.614 27.243-25.625 40.336-7.55 14.263-18.223 26.968-24.875 41.664h-5v-195c7.242-.755 15.683-3.206 21.698-6.08 6.62-4.124 10.653-11.57 12.302-18.92-54.02-5.363-108.694-10.029-162.5-16-1.426 78.54.26 157.4-.5 236-40.264.76-80.81-.926-121 .5 3.007 7.53 4.34 15.841 7 23.5h103c-10.082 70.065-27.449 139.242-48.74 206.701-10.788 32.428-22.527 64.577-36.527 95.76-13.674 30.364-29.447 60.402-47.733 88.039m44-1144.569c-.367 107.273 43.126 214.915 120.233 289.802 75.037 77.162 182.79 120.84 290.121 120.267 107.227.322 214.886-43.343 289.748-120.602 77.087-75.127 120.647-183.016 119.898-290.345.094-107.189-43.604-214.777-120.975-289.528-75.122-76.835-182.789-120.297-289.972-119.525-106.982-.055-214.472 43.409-289.155 120.602-77.108 74.807-120.023 182.328-119.898 289.329m35.058-.157c1.13 27.086 2.354 54.065 8.464 80.328 18.67 86.2 68.763 165.125 139.144 218.353 71.808 55.57 164.763 82.364 255.144 75.324 97.263-6.368 190.557-52.917 254.384-126.533 66.383-74.437 99.79-176.322 91.54-275.64-6.12-97.022-53.339-189.937-126.358-253.674-74.58-66.452-176.976-100.32-276.531-91.417-93.343 5.004-181.42 50.314-245.202 117.363-64.48 68.625-100.802 161.578-100.585 255.896M1464 2516c17.251-.222 34.817 1.07 51.811-2.684 22.628-3.827 47.902-15.16 64.384-28.16 4.034-3.83 8.864-8.376 11.72-12.62 3.85-7.346 1.014-19.246 2.085-28.655V2415h169v96c19.982.095 40.192-.335 59.684-5.19 13.704-3.792 27.336-7.841 40.49-13.285 9.448-3.913 18.462-8.865 27.072-14.347 8.747-4.497 6.892-14.67 6.754-22.197V1769c12.351-3.654 29.3-8.711 36-19.5-33.15-27.162-66.739-53.824-100.073-80.772-3.217-2.546-6.39-5.148-9.607-7.682-3.067-2.29-6.454-5.998-9.342-3.186-11.388 10.34-20.388 23.002-31.214 33.873-9.363 9.598-17.821 20.083-27.168 29.66-2.118 1.937-6.174 1.468-9.329 1.607h-136.506c-13.511.668-25.625-6.056-37.93-10.879-35.74-15.112-72.1-29.118-107.831-44.121zm130-574h169v-195h-169zm0 219h169v-195h-169zm0 229h169v-204h-169z" style="fill:#fd7;fill-rule:evenodd;stroke:none"/><path d="M338 2761.5c387.06 1.426 774.925-.26 1162.15.5 387.224-.76 774.71.926 1161.85-.5-77.265-456.459-152.125-914.01-228.874-1370.691-28.417-170.851-56.988-341.657-85.4-512.497-12.491-74.824-24.942-149.684-37.431-224.508-5.828-35.176-11.741-70.32-17.569-105.492-3.54-17.097-4.968-34.714-9.072-51.664-1.3-3.941-8.915-3.966-11.797-5.85-133.175-44.44-266.372-88.79-399.558-133.193-116.482-38.867-233.005-77.647-349.48-116.505-6.56-1.974-12.94-4.527-19.527-6.382-6.558-1.31-12.878 2.396-19.017 4.029-100.339 33.452-200.674 66.889-301.01 100.324-87.802 29.33-175.659 58.504-263.446 87.829-38.52 12.817-77.015 25.657-115.52 38.495-18.005 5.974-35.995 12.026-54 18-8.822 2.95-17.652 5.903-26.471 8.83-4.346 1.012-8.371 2.451-8.57 8.208-90.761 544.76-181.624 1089.514-272.367 1634.27-35.423 208.458-69 418.87-104.891 626.797m111-95v1.5h2102v-1.5c-63.81-378.768-126.215-757.87-189.705-1136.696-47.349-283.998-94.654-568.016-142-852-4.398-26.67-8.911-53.338-13.325-80.003-1.118-6.656-2.232-13.342-3.35-19.985-.571-3.586-1.119-7.183-2.096-10.662-1.288-2.958-6.82-3.128-9.193-4.54-101.51-33.828-203.017-67.663-304.512-101.514a746151 746151 0 0 1-266.522-88.84c-39.072-12.89-78.06-26.135-117.144-38.98-4.713-1.335-9.273 1.032-13.839 2.453-144.507 48.104-288.95 96.378-433.449 144.467-54.18 18.08-108.385 36.116-162.566 54.195-23.808 7.923-47.625 15.882-71.434 23.805-5.676 1.96-11.407 3.738-17.06 5.726-6.564 1.113-6.72 8.744-7.34 13.268C740.08 921.349 682.77 1265.54 625.383 1609.692 566.339 1961.663 508.308 2314.864 449 2666.5" style="fill:gray;fill-rule:evenodd;stroke:none"/><path d="M1044 2289.5c2.265 4.509 8.9 6.73 11.5 10.5 48.871-41.826 95.603-86.982 133-140 1.426 121.14-.26 242.76.5 364 19.939.167 40.051.432 59.706-3.483 13.79-2.605 27.176-6.721 40.012-12.398 8.689-3.66 18.945-8.496 25.637-14.093 7.613-5.834 5.464-15.878 5.645-23.485v-77.936c.76-128.801-.926-257.876.5-386.605 11.732 25.115 20.141 56.662 26.63 81.144 2.412 10.743 4.335 21.571 5.466 32.525.7 5.039.828 10.125 1.232 15.18.003 5.326 3.473 7.825 7.147 10.622 12.758 11.47 29.715 16.88 46.6 15.448 26.021-1.02 46.782-22.595 51.373-47.312 4.41-24.304-6.994-53.029-22.597-68.845-21.97-26.329-53.68-42.648-85.23-54.234-7.715-2.973-15.516-5.65-23.492-7.83-9.4-1.665-7.985-9.82-7.629-16.413V1900h76.2c12.816-.057 25.646.07 38.454-.038 5.58-.231 12.265-.98 17.025-3.014 5.909-2.217 7.515-6.952 10.321-11.448-13.182-16.951-28.18-32.654-43.102-48.102-7.41-8.002-14.53-16.27-22.63-23.63-8.461-6.71-15.078-18.678-23.268-22.768-14.607 28.582-35.81 54.127-50 83h-3v-193c7.632-.964 16.853-3.29 22.977-6.89 6.34-4.766 10.561-12.23 11.023-20.11a31190 31190 0 0 1-165-16v236h-121c1.463 8.853 4.98 17.296 7 26h103c-11.026 69.81-27.37 138.907-49.2 206.137-21.049 63.956-47.245 127.234-84.8 183.363m45-1144.753c-.674 107.743 42.879 215.844 120.233 290.986 75.318 77.444 183.583 121.193 291.32 120.267 107.682.542 215.847-43.303 290.922-120.975 77.122-75.403 120.63-183.585 119.525-291.17.371-107.472-43.44-215.393-120.975-290.33-75.403-77.122-183.585-120.63-291.17-119.525-107.252-.332-215.089 43.256-289.957 120.602-77.296 74.975-120.213 182.798-119.898 290.145m37.068.205c1.637 27.34 2.096 54.882 9.02 81.442 19.123 86.165 69.605 164.916 140.588 217.594 72.455 55.497 165.958 81.575 256.67 73.283 96.874-7.713 189.225-55.328 251.888-129.59 65.085-74.926 97.49-176.874 87.969-275.65-7.417-96.637-55.783-188.585-129.405-251.168-75.121-65.411-177.463-97.69-276.513-87.843-91.916 6.736-179.06 51.663-241.42 118.77-63.147 68.3-98.822 160.06-98.797 253.162M1463 2517c17.486-.43 35.32 1.227 52.577-2.43 23.358-4.414 46.213-13.708 65.23-28.078 4.173-3.905 9.15-8.603 12.109-12.956 3.85-7.346 1.013-19.246 2.084-28.655V2416h167v96c20.278.077 40.79-.213 60.627-4.919 13.684-3.639 29.543-8.537 41.547-13.556 9.588-3.977 18.76-9.002 27.462-14.623 8.542-4.359 6.222-14.74 6.364-22.521V1770c13.29-4.012 28.629-8.303 37-20.5-19.598-16.6-40.02-32.21-59.82-48.574-9.92-8.106-20.121-15.87-29.951-24.078-5-4.201-10.23-8.074-15.236-12.257-4.83-3.2-9.633-8.679-14.665-10.591-10.614 11.497-21.482 22.782-31.622 34.699-9.312 10.036-18.606 20.055-27.614 30.35-4.397 4.607-12.995 2.271-18.608 2.951h-76.034c-18.966-.005-37.923.007-56.885-.004-6.337.047-13.125-3.465-18.452-5.444-41.262-15.792-81.601-34.619-123.113-49.552zm132-576h167v-193h-167zm0 219h167v-193h-167zm0 229h167v-202h-167z" style="fill:#b10;fill-rule:evenodd;stroke:none"/><path d="M1595 1747.25c6.62 1.973 13.286-.223 20.217.75H1762l.5 193c.164-64.668.34-129.336.5-194-55.955.38-112.093-.463-168 .25m0 413c6.834 1.974 13.671-.224 20.817.75H1763c-.16-64.659-.336-129.343-.5-194l-.5 193c-55.62.38-111.434-.463-167 .25m0 255c6.62 1.973 13.286-.223 20.217.75H1762l.5 96c.16-32.33.347-64.679.5-97-55.955.38-112.093-.463-168 .25" style="fill:#dc763b;fill-rule:evenodd;stroke:none"/><path d="M1319.5 1980c.475-26.674.648-53.338.5-80 38.68-.006 77.333-.357 116-.5-39.011-.148-78.001-.496-117-.5-.15 27.017.017 53.994.5 81" style="fill:#cc441e;fill-rule:evenodd;stroke:none"/></svg>