<svg xmlns="http://www.w3.org/2000/svg" width="3000" height="3000"><path d="M327 2804h2346c-.373-12.822-4.058-25.348-5.508-38.051-117.27-703.542-234.496-1407.1-351.766-2110.637-7.344-43.997-14.655-88.002-22-132-3.6-21.02-6.91-42.124-10.625-63.12-1.141-5.243-8.647-5.77-12.81-7.59-158.488-52.846-316.994-105.666-475.472-158.502-59.502-19.835-119.024-39.669-178.52-59.495-26.013-8.653-52-17.351-78-26-12.476-3.645-24.567-8.834-37.16-12.04-6.368-.025-12.224 3.635-18.313 4.993-92.992 31.026-186.022 61.963-279 93A1893485 1893485 0 0 0 785.82 433.9c-17.522 5.819-35.005 11.685-52.52 17.495-3.82 1.309-7.668 2.508-11.462 3.872-7.078 2.018-5.509 14.447-7.54 19.93a1026382 1026382 0 0 1-55.17 330.994c-55.422 332.845-110.964 665.656-166.4 998.497-27.81 166.497-55.474 333.005-83.258 499.498-13.883 83.328-27.773 166.668-41.655 249.995-6.951 41.667-13.92 83.355-20.844 125.018-3.461 20.84-6.942 41.674-10.418 62.502-1.749 10.326-3.414 20.672-5.17 30.99-1.284 10.13-4.397 21.905-4.382 31.309m690-447h441v281c46.126.704 94.94.697 136.242-23.177 8.157-4.912 21.856-9.93 20.757-22.637.003-37.126 0-74.254.001-111.367V2357h343.231c13.023-.137 33.082.855 39.769-15.5-25.145-19.29-50.203-38.96-75.974-57.475-25.804-18.282-50.533-38.93-77.026-56.025-14.443 16.27-27.473 33.998-41.75 50.47-12.95 17.624-29.08 33.52-41.25 51.53h-147v-178h226.2c12.607-.003 25.23.004 37.834-.002 10.698.651 22.656-4.015 26.966-14.498-22.053-19.735-45.038-38.38-68.282-56.697-23.282-17.981-45.266-38.578-69.718-54.803-20.24 24.383-38.301 50.833-58.16 75.575-4.88 6.274-9.666 12.62-14.489 18.93-4.116 6.237-12.258 4.152-18.039 4.495H1616v-158c14.796-3.059 32.832-6.36 38-26.5-64.502-8.076-130.29-11.913-195-19.5v204h-137c.766-7.614 7.204-16.526 9.187-22.373 26.002-54.414 50.801-109.366 74.896-164.666 9.572-20.532 18.116-41.527 27.847-61.97 2.434-3.92 3.45-10.895 7.515-12.555 88.603-1.243 177.418.226 266.06-.436h199.728c10.789.036 21.613.222 32.36-.778 8.063-.663 19.506-4.425 22.407-14.972-24.65-19.492-49.433-38.84-74.708-57.516-25.76-17.46-49.341-38.706-75.98-54.734-19.751 23.781-39.39 47.633-59.062 71.47-7.595 8.894-14.853 18.131-22.451 27.006-4.041 3.846-11.414 2.02-16.412 2.524H1453c.36-5.45 4.024-10.063 5.682-15.137 13.961-32.81 29.715-64.938 43.318-97.863 9.564-.133 19.725 1.082 28.722-2.982 7.588-3.624 14.282-11.177 18.278-17.518-50.737-15.754-102.67-28.3-153.577-43.649-12.853-2.656-27.351-8.77-39.303-10.363-3.715 2.207-3.703 9.953-5.886 13.27-11.386 32.974-23.895 65.531-36.707 97.966-9.434 23.357-18.891 46.7-28.826 69.84-1.102 1.85-2.065 5.093-3.766 5.91-81.861 1.501-164.016-.274-245.935.526 1.151 8.946 6.593 18.651 7 27h227c-.445 6.322-4.172 11.863-6.246 17.712-19.647 44.403-39.512 88.722-61.192 132.16-10.674 22.569-21.737 44.888-33.47 66.926-2.667 5.578-5.703 10.941-8.757 16.297-4.206 6.183-14.65 9.216-21.222 14.832-7.174 4.985-14.92 9.316-21.113 15.573 24.18 14.57 47.842 30.247 71.963 44.97a4340 4340 0 0 0 34.84 22.036c5.708 4.041 11.959 7.214 17.71 11.166 5.764 3.065 11.81 8.346 17.487 10.328 16.224-21.998 38.92-40.84 55-63h144v178h-448c1.066 8.956 6.673 18.628 7 27m859-1455c-31.778-17.48-62.069-38.397-93.64-56.443-47.307-28.88-94.531-57.928-141.945-86.63-46.993-28.519-93.906-57.54-140.915-85.927-30.648 20.186-62.97 38.223-94.054 57.82-46.832 28.496-93.393 57.415-140.396 85.622-47.157 28.055-93.578 58.315-141.05 85.558v413.412c.383 8.333-.486 16.734.309 25.03.067 3.19 4.637 5.213 6.623 6.584 46.023 28.118 91.954 56.383 138.08 84.332 34.387 21.31 69.227 41.846 103.528 63.286 26.16 15.59 51.901 31.875 77.992 47.573 9.737 5.752 19.287 11.854 29.03 17.59 4.285 2.729 8.531 5.554 12.988 8.004 4.815 3.5 8.178 4.474 12.41 1.49 29.811-17.747 59.117-36.274 88.828-54.167 29.586-18.428 59.623-36.18 89.282-54.475 43.007-26.403 86.3-52.34 129.216-78.886 16.31-9.798 32.42-19.908 48.729-29.693 3.623-2.06 7.021-4.482 10.632-6.546 4.594-2.616 4.616-6.991 4.353-11.526zm-702 220.844V1294.6c.174 5.377-.236 10.803.188 16.165.301 4.38 5.934 6.34 9.084 8.465 29.892 18.265 59.83 36.408 89.718 54.678 44.354 27.365 89.24 53.883 133.542 81.31 22.311 13.3 44.393 26.998 66.562 40.513 5.706 3.245 11.206 6.826 16.779 10.264 4.174 2.338 9.185 6.592 13.464 3.889 12.464-6.667 23.942-15.064 36.277-21.94 35.784-21.502 71.216-43.489 106.971-65.017 53.567-32.485 106.883-65.361 160.532-97.69 3.399-2.281 6.878-4.407 10.415-6.454 2.464-2.105 7.758-3.577 8.007-6.777 1.314-63.21-.239-126.644.461-189.89V949.42c-.324-7.05 2.275-17.143-5.965-21.34-46.995-28.359-93.693-57.15-140.68-85.52-46.782-28.881-94.081-56.947-140.887-85.778-10.5-6.338-20.918-12.842-31.471-19.082-2.268-1.223-5.098-3.32-7.965-3.207-39.169 22.382-77.303 47.321-116.226 70.265-29.398 17.533-58.413 35.636-87.74 53.26-21.664 13.673-43.829 26.56-65.623 40.005-16.52 9.92-32.853 20.105-49.377 29.996-8.178 3.583-5.897 13.187-6.066 20.494z" style="fill:#fff;fill-rule:evenodd;stroke:none"/><path d="M1008 2329.25c2.725 9.037 6.62 20.134 8 28.75h441v281c46.948.72 96.7.992 138.715-23.43 8.422-4.839 21.7-10.12 20.285-22.981V2358h296.4c16.42-.015 32.832.018 49.237-.01 14.542.215 35.544-1.455 37.363-17.99-13.411-8.16-25.084-19.975-38.17-28.848-39.083-27.877-76.407-58.842-116.486-85.152-27.071 34.7-57.108 67.872-83.344 103h-145v-176h255c9.824.21 20.81.907 29.092-5.623 3.204-2.357 6.057-5.597 6.248-9.718.64-3.432-5.918-5.7-7.186-8.09-21.056-18.645-43.147-36.064-65.151-53.564-11.16-8.867-22.036-18.051-33.178-26.915-5.437-4.441-10.925-8.82-16.493-13.09-5.712-3.472-11.152-9.848-16.988-12-19.625 24.928-38.203 50.658-57.771 75.622-4.798 6.253-9.557 12.553-14.377 18.785-4.058 6.694-10.668 5.951-17.113 5.593H1617v-156c14.917-3.125 35.4-6.889 38-29-65.588-6.508-131.363-12.644-197-19v204h-135c25.577-56.524 53.111-112.366 77.27-169.591 9.168-21.722 19.21-43.075 28.806-64.59 2.06-4.89 4.276-9.729 6.584-14.506 1.936-4.133 3.893-10.755 8.4-11.09 88.531-.636 177.112.116 265.644-.223h199.729c19.757-.283 46.663 3.565 54.567-16.5-24.292-20.48-50.062-39.195-75.31-58.46-25.944-18.24-50.594-38.865-77.19-56.04-20.226 23.318-39.299 47.621-59.193 71.223a1996 1996 0 0 0-22.424 27.112c-3.901 4.978-10.627 3.421-15.697 3.665H1454c15.641-37.182 33.528-73.728 49-111 9.7-.134 20.063 1.137 29.136-3.179 8.222-4.206 14.415-11.497 18.864-19.321-65.509-18.74-131.383-37.073-197-55.5-10.93 33.77-23.833 66.975-36.627 100.08-8.984 24.903-19.924 49.042-29.842 73.553-1.972 4.39-3.62 8.954-5.966 13.16-.754 2.254-4.742 1.89-6.55 2.197-80.607.788-161.482-.931-242.015.51 2.917 9.27 6.298 18.894 8 28.5h227c-18.532 47.708-42.18 93.369-63.439 139.87-11.655 24.005-23.08 48.091-35.768 71.565-2.748 5.96-5.976 11.636-9.177 17.338-4.37 8.34-14.735 10.878-21.642 16.575-8.243 4.216-15.03 11.253-22.974 15.652 1.005 3.28 6.12 4.733 8.927 7.254 44.88 27.918 89.591 56.247 134.073 84.746 18.598-21.332 39.58-41.87 57-64h142v176h-449zM1500.5 1574c29.091-18.425 58.946-36.126 88.316-54.189 51.11-31.389 102.482-62.354 153.59-93.743 38.285-23.583 76.863-46.685 115.126-70.285 3.592-2.123 7.175-4.258 10.66-6.54 3.363-2.391 8.257-3.939 8.566-8.319.69-146.606-.126-293.308.242-439.924-31.918-17.56-62.39-38.56-94.075-56.726-55.058-33.742-110.32-67.183-165.328-101.003-20.862-12.466-41.393-25.467-62.226-37.976-18.324-10.294-35.567-22.493-53.937-32.64-3.712-.734-7.923 3.11-11.629 5.102-30.755 18.434-61.1 37.568-91.867 55.98-45.774 28.016-91.534 56.046-137.397 83.916-46.072 27.168-91.235 56.852-137.541 83.347v419.253c.006 5.788-.007 11.55.004 17.326-.559 6.027 3.08 8.912 7.64 10.874 30.947 19.136 62.05 38.016 93.135 56.904 46.138 28.048 92.069 56.472 138.283 84.38 46.217 27.886 92.037 56.804 138.438 84.263m-1-839c-36.314 22.723-73.357 44.795-109.96 67.157-32.072 19.64-64.389 38.946-96.368 58.733-28.24 16.959-56.283 34.271-84.446 51.334a702 702 0 0 1-19.133 11.708c-5.43 3.73-14.343 6.612-14.519 13.027.41 124.616-.72 249.381.336 373.951.067 3.182 5.543 4.743 7.38 6.474 44.57 27.529 89.67 54.205 134.24 81.715 44.333 27.202 88.871 54.024 133.256 81.128 11.072 6.59 21.986 13.396 33.023 20.02 4.985 3.166 10.987 7.017 15.864 9.27 4.833-.034 9.913-5.235 14.895-7.565 38.522-23.483 77.102-46.844 115.577-70.391 28.969-17.805 58.063-35.397 87.126-53.038 21.875-13.227 43.651-26.607 65.555-39.774 8.014-5.398 16.58-9.878 24.685-15.107 6.24-4.935 17.983-8.167 17.965-16.03.07-67.173-.013-134.326.024-201.486V952.02c.292-9.283 1.975-20.094-7.082-23.571-53.336-32.068-106.296-64.759-159.458-97.093-26.835-15.81-53.178-32.389-79.829-48.485-26.479-15.714-52.467-32.552-79.131-47.871" style="fill:#028902;fill-rule:evenodd;stroke:none"/></svg>