<svg xmlns="http://www.w3.org/2000/svg" width="3000" height="3000"><path d="M328 2803h2344c-118.785-721.214-240.618-1442.068-360.03-2163.199-7.528-45.17-15.046-90.339-22.588-135.492-1.756-10.718-3.574-21.44-5.367-32.15-1.463-5.102-.632-13.609-5.65-15.42-82.419-27.818-165.08-54.96-247.546-82.639-144.35-48.044-288.615-96.253-432.954-144.3-27.19-9.095-54.376-18.14-81.566-27.195-6.024-1.707-14.13-5.746-19.294-4.368-99.967 33.09-199.81 66.647-299.74 99.834a5130220 5130220 0 0 1-448.968 149.67c-9.274 3.513-19.03 5.778-28.13 9.725-3.665 1.962-2.298 9.57-3.876 12.727-22.54 135.51-45.194 271.003-67.739 406.508C542.266 1518.848 433.622 2160.802 328 2803m686.5-558c9.54-3.567 20.201-7.249 26.347-16.171 2.753-3.885 5.457-9.075 11.464-10.186 5.124-1.559 10.246-3.628 15.689-3.643-1.155 73.315-2.91 146.79-12.45 219.573-8.767 68.479-23.68 137.506-56.55 198.927 4.81 2.705 9.33 8.822 14.841 2.998 4.404-3.925 9.294-7.307 13.555-11.393 21.993-18.943 45.177-44.166 61.363-65.317 26.286-36.107 47.388-76.31 61.717-118.665 15.648-45.09 23.258-92.52 28.978-139.707 3.956-41.034 5.673-82.207 6.546-123.416 20.989-5.266 41.42-12.936 62.131-19.2 10.013-3.335 19.995-6.666 30.004-10 9.708-2.458 20.638-8.046 29.865-8.8v299.4c-.537 14.913.681 29.915-.434 44.795-1.115 13.01-13.294 15.307-22.334 14.1-32.113-.884-64.129-3.546-96.232-4.295.55 3.352-1.069 9.318 2.4 10.618 3.543 1.786 7.599 2.073 11.373 3.102 26.532 5.875 52.63 21.788 65.144 46.855 6.236 12.493 8.9 26.364 10.682 40.088 1.916 14.383 3.863 28.825 4.401 43.337 22.568-2.942 45.46-4.94 67.21-12.238 15.62-4.839 30.83-11.423 43.696-21.71 20.629-15.899 30.31-40.814 33.707-65.834 4.418-26.764 3.48-53.957 3.387-80.956V2096c16.802-4.261 35.27-14.323 51-17-.183 7.113-3.99 13.49-5.908 20.173-6.216 20.12-16.41 38.978-23.092 58.827 5.096 1.382 9.33 8.725 15.096 2.433a878 878 0 0 0 21.552-17.93c3.547-3.074 6.726-6.576 10.479-9.411 3.605-2.698 6.79-7.732 10.873-8.092v511c27.353-.35 55.164.87 82.11-4.94 18.106-3.562 36.089-9.968 51.405-20.45 7.828-4.748 6.885-12.367 6.485-20.018.63-13.788-.772-27.718.427-41.462-.374-3.143 4.136-2.972 5.994-3.109 38.866-.06 77.715.011 116.579-.021v83c43.197.088 89.039.229 128.355-20.642 4.737-2.374 9.584-4.634 14.116-7.384 5.031-2.783 4.778-7.647 4.529-12.473V2214c7.816-1.754 15.698-3.428 23.07-6.652 6.03-3.519 15.84-7.691 16.93-14.348-34.313-24.079-66.761-52.006-100.876-76.627-4.283-3.232-8.367-6.702-12.746-9.8-3.574-2.582-8.145-7.725-11.56-4.594-21.543 24.424-44.475 48.784-64.818 74.021h-70.2c-16.3-.424-36.09 1.797-50.141-4.118-45.679-16.243-90.969-33.755-136.659-49.882.406-4.209 5.302-7.196 7.733-10.233 45.897-47.489 82.476-103.652 109.737-163.691 28.943-61.636 48.975-126.922 64.53-193.076 8.283.089 16.958.705 24.678-2.96 7.073-3.129 12.293-9.155 16.322-15.54-62.205-19.022-124.69-37.756-187-56.5-1.668 132.989-23.82 265.352-64 392h-3l-1-6c-16.904 2.087-34.037 2.605-51 4v-194.4c.228-5.182-.328-11.336.301-16.061-.113-3.843 6.366-4.558 8.911-5.6 9.277-2.796 21.79-9.53 26.788-15.939-36.977-30.241-76.23-58.05-113.5-88-18.01 18.999-34.468 39.364-52.096 58.701-4.743 5.272-14.515 2.424-20.684 3.299H1214c.302-4.247 5.507-6.775 8.22-9.388 24.797-19.079 48.82-39.145 72.994-58.984 6.235-5.011 12.228-10.295 18.342-15.443 4.619-3.813 8.846-8.051 13.659-11.623 3.282-2.753 9.321-2.116 13.952-3.38 12.866-2.06 26.048-9.186 29.833-22.682-30.003-8.336-62.117-11.96-92.597-19.117-31.822-5.965-63.523-12.806-95.403-18.383.233 49.384-4.312 98.641-5 148-9.488-1.158-18.098-6.397-27.328-8.628-27.279-9.115-54.14-20.163-81.672-28.372v330c-23.307.949-46.644 2.383-70 2 5.13 49.623 10.183 99.42 15.5 149m73.5-1123h824c-1.579-63.238-14.06-126.73-43.207-183.414-40.426-80.33-107.583-146.409-188.093-186.245-86.515-42.512-187.978-51.8-281.327-28.892-87.783 20.914-166.002 73.604-222.286 143.446-27.354 34.567-49.387 73.334-64.377 114.828-8.214 22.262-14.103 45.46-18.126 68.816-2.357 11.856-3.5 23.841-4.567 35.861-1.264 11.865-.764 23.792-2.017 35.6m98 742c3.432.083 6.326-1.919 9.469-2.89 2.515-1.268 5.984 1.527 8.884 2.528 20.277 8.805 39.148 20.644 56.971 33.6 16.862 13.682 35.841 33.12 43.676 51.762h3v-110h-122zm0 223c20.342-.608 40.656-2.573 60.963-3.765 20.334-1.436 40.717-2.582 61.037-4.235v-49h-2c-7.427 8.322-14.316 17.869-24.542 23.199-17.464 10.904-41.095 10.52-56.787-3.45-5.403-4.59-10.433-11.454-13.906-16.901.948-53.076 1.7-111.702-21.765-161.848h-3zm19 353c22.076 1.11 44.426-2.184 63.846-13.439 4.478-2.26 9.447-5.145 11.685-9.82 1.33-17.65-.235-35.499.469-53.187v-137.295c.234-5.148-2.154-15.643 6.014-17.148 6.17-1.795 12.606-7.904 12.986-14.111-31.595-3.562-63.398-5.585-95-9zm446 79h123v-316h-93c-9.829 1.027-20.379-1.36-30 1zm100-844.5c9.173 82.523 16.265 166.263 36.906 247.077 18.603 77.702 52.315 152.952 106.594 212.423 8.198-31.142 20.348-61.717 39.294-87.977 18.876-26.575 46.629-46.683 78.206-55.023.355-3.933 3.327-9.275-1.72-11.388-4.192-2.125-8.446-4.137-12.613-6.287-59.16-29.466-111.307-72.944-151.598-125.244-40.618-51.943-69.988-112.484-87.069-176.081-2.72.123-5.599 1.557-8 2z" style="fill:#cc2323;fill-rule:evenodd;stroke:none"/><path d="M1013 2246c10.262-1.494 21.751-7.662 27.904-14.936 3.054-3.895 6.052-9.631 10.77-10.916 5.072-1.471 10.06-3.474 15.326-4.148-1.272 72.842-2.925 145.83-12.519 218.139-4.385 35.567-10.733 70.938-20.14 105.506-4.43 16.733-10.468 32.965-16.493 49.157-2.88 7.784-6.247 15.4-9.691 22.943-2.367 7.85-8.726 15.85-10.157 23.255 4.471.69 7.496 6.148 11.5 7 32.384-25.937 62.555-54.89 86.096-89.315 36.492-51.597 60.323-111.389 72.605-173.184 14.333-65.847 17.31-133.352 18.799-200.501 40.705-10.077 79.675-26.722 120-38v298.2c-.621 14.811.796 29.779-.524 44.55-1.569 12.666-12.03 14.167-22.3 13.333-15.917-.33-31.81-1.6-47.717-2.039-15.584-1.103-31.529-.448-46.959-3.044-1.737 2.365-1.437 5.985-1.43 8.535-.25 4.046 1.39 5.512 4.7 6.1 14.839 3.197 29.7 7.152 42.67 15.373 18.312 11.519 32.433 29.05 37.716 50.18 4.95 21.916 7.547 44.404 8.844 66.812 21.766-2.415 43.841-4.503 64.898-10.972 28.936-7.745 58.365-23.776 71.306-52.439 13.97-30.842 13.503-65.736 13.796-98.733V2097c16.536-4.975 32.394-12.25 49-17-7.627 26.542-19.377 52.096-30 77.5 3.823 3.302 8.574 5.344 12.5 8.5 15.651-12.936 31.674-25.57 46-40 1.426 170.162-.26 340.755.5 511 27.307-.315 55.007.932 81.958-4.498 18.434-3.698 37.09-9.522 52.73-20.348 7.95-4.136 8.125-11.177 7.312-18.773.201-13.893-.245-27.8.132-41.675-.145-5.812 8.323-4.769 12.222-4.706H1773v83c43.848.066 90.4.534 130.355-20.642 4.737-2.374 9.584-4.634 14.116-7.384 5.031-2.783 4.778-7.647 4.529-12.473V2215c14.912-3.874 33.654-7.07 41-21.328-20.736-16.449-42.146-32.145-63.006-48.45-21.114-15.25-40.912-33.043-62.666-47.222-22.386 25.44-45.991 50.93-67.328 77h-69.6c-16.19-.2-35.849 1.705-49.705-4.516-45.197-16.682-90.733-32.766-135.695-49.984 48.741-47.304 86.634-105.121 115.071-166.51 30.426-62.967 50.796-130.132 66.929-197.99 14.432.392 35.378-.252 41-21-62.816-18.638-126.032-37.301-188.5-57-3.627 132.972-22.653 266.443-65 393-.763-1.86-1.292-4.177-1.5-6a2347 2347 0 0 1-51 4v-193.8c.051-5.359-.215-10.758.491-16.066 1.503-3.267 7.677-3.22 10.38-4.68 8.188-3.364 20.636-8.421 26.129-16.954-37.846-30.633-77.723-58.785-115.5-89.5-18.148 18.732-34.146 39.391-52.004 58.386-4.027 6.296-13.708 4.423-19.981 4.614-22.085-.754-44.547.921-66.515-.5 25.962-21.111 52.48-41.612 78.057-63.192 6.509-5.485 13.106-10.877 19.53-16.445 4.989-4.2 9.832-8.528 14.834-12.696 3.918-3.36 9.385-2.776 14.141-3.856 7.329-1.492 14.773-3.623 20.634-8.46 6.473-4.304 7.753-10.408 10.804-16.351-62.831-14.832-127.575-24.17-190.5-38.5-1.17 49.584-4.012 99.364-5.5 149-36.624-11.694-72.371-26.318-109-38v331c-23.317.949-46.633 2.383-70 2 3.816 50.398 11.352 100.575 15 151m74-1123h826c-2.427-31.468-1.953-63.534-10.82-94.217-22.037-99.837-84.094-189.584-168.52-247.013-42-28.154-88.72-50.407-138.437-60.954-53.447-11.704-109.625-14.048-163.71-5.07-95.293 15.022-183.684 65.655-246.094 138.993-30.374 35.504-54.857 76.308-71.339 120.054-8.983 22.528-16.297 50.328-20.07 72.224-2.572 12.687-3.889 25.521-4.993 38.383-.828 12.563-1.208 25.083-2.017 37.6m100 740c3.018-.667 5.787-2.862 9.4-3.5 11.847 2.218 21.831 10.59 32.765 15.165 31.083 17.335 60.66 41.075 77.335 73.335l.5-1.418V1840h-120zm0 223c39.994-2.458 80.027-5.1 120-8-.704-15.578.87-31.54-.5-47-12.468 19.191-34.776 33.97-58.657 30.474-16.99-1.976-31.75-14.71-39-29.715 1.828-27.603 2.44-55.993-1.212-83.679-3.367-25.973-8.177-52.541-20.131-76.08-1.426 70.987.26 142.838-.5 214m17 355c22.706 1.16 45.844-1.735 65.846-13.439 4.305-2.489 10.876-5.736 11.71-10.39 1.264-18.065-.228-36.32.444-54.416v-137.894c-.018-3.743-.13-7.494.455-11.183.046-2.322 4.055-2.778 5.559-3.567 7.429-2.119 12.589-8.686 13.986-16.111-32.638-3.048-65.353-6.236-98-9zm448 77h121v-314h-91.2c-9.737 1.093-20.297-1.427-29.8 1zm242.5-382c10.154-30.575 19.904-62.43 39.945-88.526 18.97-26.733 46.73-47.122 78.555-55.474.256-4.172 2.205-7.97 3-12-64.068-26.92-119.75-72.431-163.474-125.977-42.955-54.006-75.722-116.926-92.526-184.023-3.391.49-6.887 2.598-10 3 8.464 83.574 16.566 167.836 36.906 249.577 18.783 78.087 52.62 153.935 107.594 213.423" style="fill:#fff;fill-rule:evenodd;stroke:none"/></svg>