<svg xmlns="http://www.w3.org/2000/svg" width="3000" height="3000"><path d="M327 2804h2346c-.373-12.822-4.058-25.348-5.508-38.051-117.27-703.542-234.496-1407.1-351.766-2110.637-7.344-43.997-14.655-88.002-22-132-3.6-21.02-6.91-42.124-10.625-63.12-1.141-5.243-8.647-5.77-12.81-7.59-158.488-52.846-316.994-105.666-475.472-158.502-59.502-19.835-119.024-39.669-178.52-59.495-26.013-8.653-52-17.351-78-26-12.476-3.645-24.567-8.834-37.16-12.04-6.368-.025-12.224 3.635-18.313 4.993-92.992 31.026-186.022 61.963-279 93A1893485 1893485 0 0 0 785.82 433.9c-17.522 5.819-35.005 11.685-52.52 17.495-3.82 1.309-7.668 2.508-11.462 3.872-7.078 2.018-5.509 14.447-7.54 19.93a1026382 1026382 0 0 1-55.17 330.994c-55.422 332.845-110.964 665.656-166.4 998.497-27.81 166.497-55.474 333.005-83.258 499.498-13.883 83.328-27.773 166.668-41.655 249.995-6.951 41.667-13.92 83.355-20.844 125.018-3.461 20.84-6.942 41.674-10.418 62.502-1.749 10.326-3.414 20.672-5.17 30.99-1.284 10.13-4.397 21.905-4.382 31.309m687-559c10.25-2.548 21.896-8.897 27.678-16.922 2.767-4.156 4.873-8.645 11.198-9.611 4.834-1.286 10.48-3.377 15.124-3.467-1.503 73.577-2.856 147.302-12.678 220.342-8.521 68.32-23.633 136.902-56.322 198.158 4.601 2.427 8.616 8.513 14.134 3.59 4.57-3.742 9.223-7.384 13.597-11.338 43.284-37.391 79.648-82.802 103.446-135.117 26.585-54.548 40.157-114.672 47.621-174.608 5.7-45.77 6.748-91.977 8.202-138.027 20.958-4.867 41.054-13.172 61.735-19.071l30.4-10.13c9.708-2.457 20.638-8.045 29.865-8.799v298.8c-.509 14.866.66 29.817-.456 44.657-.513 4.875-2.512 10.245-7.166 12.637-8.468 3.378-19.738 1.16-27.822 1.633-27.77-2.246-55.915-1.231-83.556-4.727v12c15.403 2.095 30.46 7.034 44.212 14.148 19.307 10.906 34.38 29.235 40.446 50.56 5.436 22.336 7.594 45.426 9.342 68.292 23.472-2.825 47.118-5.433 69.732-12.789 15.973-5.29 31.541-12.806 44.349-23.856 9.472-8.196 16.822-18.337 21.646-29.88 15.805-39.208 11.876-82.438 12.273-123.56V2096c16.901-3.902 35.275-14.363 51-17-.193 6.153-4.155 13.686-6.089 20.634-3.909 9.803-7.432 19.762-11.38 29.537-2.95 9.576-9.422 19.889-11.531 28.829 5.096 1.382 9.33 8.725 15.096 2.433 7.282-5.912 14.647-11.755 21.71-17.923 3.365-3.318 6.817-6.53 10.518-9.463 3.451-2.812 6.636-7.669 10.676-8.047v511c34.344.21 69.59 1.007 102.639-10.117 7.221-2.74 14.29-5.882 21.2-9.32 5.133-2.716 11.002-6.47 14.72-10.317 2.976-8.08.386-20.108 1.441-30.074V2546h123v83c43.672.654 89.335-.17 129.135-20.684 4.643-2.3 9.18-4.92 13.641-7.549 4.8-2.687 4.32-7.596 4.224-12.458V2214c15.167-2.422 30.553-7.582 41-19.5-32.756-25.157-65.373-50.548-98.31-75.46-6.043-4.897-12.336-9.433-18.446-14.236-2.73-2.278-6.592-5.54-9.13-3.036-20.005 20.625-37.718 43.557-57.486 64.444-3.377 4.285-7.788 9.544-12.702 9.7-22.958.25-45.948-.045-68.893.088-16.526-.027-33.685 1.75-49.114-5.17-44.753-15.952-89.008-33.418-133.919-48.83.406-4.209 5.302-7.196 7.733-10.233 45.884-46.962 82.275-102.704 109.16-162.502 29.156-61.626 49.14-127.146 65.107-193.265 8.426-.825 17.341-.382 25.144-4.171 6.856-3.166 11.91-9.11 15.856-15.329-62.132-19.263-124.678-37.812-187-56.5-2.441 132.469-23.294 264.88-64 391h-3c.393-4.13-1.877-5.105-5.265-4.41-15.59 1.066-31.14 2.563-46.735 3.41v-195.6c.113-5.45-.289-10.96.526-16.335 1.567-3.185 7.768-2.954 10.425-4.562 8.949-3.761 20.719-8.605 25.049-16.003-37.63-29.411-75.812-58.16-113.5-87.5-17.937 18.67-33.906 39.099-51.7 57.895-4.327 4.888-13.96 2.357-20.888 3.105H1215c.321-4.299 5.87-6.553 8.549-9.213 24.76-19.803 49.594-39.505 73.842-59.912 6.17-5.033 12.13-10.314 18.257-15.371 4.212-3.098 8.275-7.869 13.425-11.087 14.605-3.725 37.736-3.303 41.927-26.417-62.983-9.847-125.068-25.903-188-36 .201 49.382-4.419 98.631-5 148-9.546-1.54-18.436-6.466-27.786-8.92-27.138-9.886-54.681-19.024-81.714-29.08-1.426 110.21.26 220.72-.5 331-22.996.885-45.954 2.352-69 2 4.316 49.705 10.82 99.287 15 149m74-1123h824c-.774-16.212-1.085-32.45-3.135-48.59-11.361-110.363-72.474-211.995-159.76-279.05-43.169-32.323-92.16-56.874-144.524-70.228-55.868-13.724-114.877-16.887-171.774-7.595-95.629 14.59-183.457 65.96-246.3 138.838-30.87 35.766-55.338 77.042-71.888 121.285-8.8 22.791-15.246 46.515-19.659 70.529-2.29 12.524-3.837 25.147-4.894 37.815-.868 12.371-1.28 24.676-2.066 36.996m98 742c3.432.083 6.326-1.919 9.469-2.89 2.476-1.266 5.885 1.516 8.804 2.378 20.397 9.121 39.69 20.878 57.583 34.177 18.266 13.298 31.984 31.839 44.144 50.335h2v-109h-122zm0 223c40.677-2.168 81.34-5.435 122-8v-49h-3c-10.752 19.13-34.384 33.264-56.777 30.505-17.147-2.241-31.374-14.828-38.696-29.965 4.784-53.315.13-109.643-20.527-159.54h-3zm19 353c11.253.08 22.617.531 33.664-2.043 7.766-1.824 15.412-4.304 22.66-7.65 5.278-2.755 12.014-5.44 16.04-9.233 4.114-3.615 3.78-8.186 3.636-12.909v-181.968c.224-5.13-2.144-15.596 6.015-17.086 6.167-1.794 12.605-7.905 12.985-14.111-31.597-3.564-63.363-5.912-95-9zm446 79h123v-316h-123zm100-844.5c8.39 82.664 16.803 166.09 36.653 247.055 19.245 77.388 52.207 153.213 106.847 212.445 8.611-31.26 20.64-62.465 40.05-88.778 18.84-26.123 46.338-45.753 77.45-54.222.558-4.309 3.815-9.64-2.272-11.854-4.094-1.783-8.081-3.814-12.06-5.82-58.811-29.355-110.696-72.603-150.984-124.405-40.886-52.199-70.54-112.939-87.684-176.921-2.72.123-5.599 1.557-8 2z" style="fill:#c22;fill-rule:evenodd;stroke:none"/><path d="M204 2906.5c431.66 1.426 864.125-.26 1295.95.5 431.946-.76 864.184.926 1296.05-.5-71.347-421.454-140.17-844.031-211.186-1265.681C2515.49 1219.807 2443.894 799.05 2375 378c-18.825-4.147-36.622-12.377-55.173-17.557-141.343-47.107-282.688-94.208-424.008-141.343-105.996-35.346-212.02-70.658-318-106l-60-20c-4.743-1.483-9.392-3.202-14.133-4.67-4.689-1.596-9.296.594-13.846 2.121-144.162 48.092-288.385 96.1-432.543 144.19-72.152 24.045-144.327 48.113-216.478 72.159-35.996 12.013-72.02 23.992-108 36-18 6.028-36 11.971-54 18-9.01 3.004-18.013 5.972-27 9-8.742 2.234-18.56 7.118-26.819 8.1-68.995 421.677-140.705 843.07-210.109 1264.703C344.003 2063.481 275.132 2486.22 204 2906.5M328 2803h2344c-118.785-721.214-240.618-1442.068-360.03-2163.199-7.528-45.17-15.046-90.339-22.588-135.492-1.756-10.718-3.574-21.44-5.367-32.15-1.463-5.102-.632-13.609-5.65-15.42-82.419-27.818-165.08-54.96-247.546-82.639-144.35-48.044-288.615-96.253-432.954-144.3-27.19-9.095-54.376-18.14-81.566-27.195-6.024-1.707-14.13-5.746-19.294-4.368-99.967 33.09-199.81 66.647-299.74 99.834a5130220 5130220 0 0 1-448.968 149.67c-9.274 3.513-19.03 5.778-28.13 9.725-3.665 1.962-2.298 9.57-3.876 12.727-22.54 135.51-45.194 271.003-67.739 406.508C542.266 1518.848 433.622 2160.802 328 2803" style="fill:#7a7474;fill-rule:evenodd;stroke:none"/><path d="M1014.5 2246c10.168-2.078 21.501-8.617 27.514-16.035 2.676-3.418 4.739-8.666 10.199-9.991 4.79-1.157 10.308-3.322 14.787-3.974-1.61 73.625-2.94 147.426-12.945 220.499-4.24 34.578-10.509 68.878-19.618 102.492-4.688 16.657-9.94 33.138-16.492 49.151-3.197 7.897-6.212 15.865-9.823 23.578-2.516 7.785-8.483 15.97-10.122 23.28 4.954 1.117 8.646 8.804 14.825 3.987 14.26-11.052 27.694-23.214 40.545-35.857 51.178-52.128 87.968-118.168 106.776-188.737 9.599-38.004 16.946-76.669 20.771-115.696A1654 1654 0 0 0 1187 2179c40.696-10.053 79.672-26.734 120-38 1.957 9.622.377 19.649 1 29.378v279.953c-.439 12.974 1.434 26.817-3.445 39.253-4.83 10.01-18.037 6.948-26.573 7.334-29.957-2.02-60.105-1.778-89.982-4.918v14c24.745 3.427 49.695 12.854 66.546 32.132 15.16 15.632 20.595 37.115 23.127 58.068 1.217 9.755 2.5 19.506 3.341 29.302 1.251 4.093-.56 11.055 3.232 13.033 34.665-2.619 70.581-8.816 100.98-26.665 22.58-13.117 37.095-36.59 41.458-62.022 4.362-20.586 6.004-41.542 5.316-62.571V2097c16.639-4.602 32.44-12.172 49-17-8.194 26.226-18.749 52.044-30 77.139 2.857 3.341 8.606 5.494 12.5 8.861 15.73-12.845 31.754-25.479 46-40 1.426 170.157-.26 340.757.5 511 34.632.046 70.107.982 103.596-9.753 7.443-2.672 14.636-6.03 21.752-9.428 5.127-2.736 11.096-6.329 14.832-10.2 2.62-4.38 1.57-10.024 1.82-14.888V2547h121v83c44.313.606 90.707.13 131.135-20.684 4.643-2.3 9.18-4.92 13.641-7.549 4.8-2.687 4.32-7.596 4.224-12.458V2215c11.5-2.342 23.55-4.937 33.076-12.325 2.364-1.779 5.146-4.034 6.539-6.416 2.398-1.91-.442-4.327-1.72-5.256-5.344-4.1-10.726-8.095-15.972-12.316-12.797-9.7-25.564-19.42-38.208-29.32a6866 6866 0 0 1-33.582-25.75c-12.173-7.597-22.087-18.952-34.79-25.617-19.695 21.011-38.049 43.274-57.392 64.591-3.63 4.03-6.786 8.647-11.415 11.652-11.224 1.889-23.08-.122-34.44.757h-60.316c-14.35.494-27.445-6.446-40.72-10.985-39.116-15.102-78.955-28.511-118.06-43.515 48.896-46.742 85.972-104.47 114.705-165.285 30.14-63.161 50.982-130.311 67.295-198.215 14.379-1.003 35.34-1.126 41-22-62.692-18.945-126.054-37.37-188.5-57-4.393 132.44-22.127 265.99-65 392-.681-1.582-.946-4.144-2.64-4.574-1.682-.03-3.366-.223-5.04.1-14.931 1.27-29.883 2.35-44.82 3.474v-195c.401-5.153-.73-10.85.986-15.785 11.72-5.956 28.476-7.972 36.014-20.715-37.838-30.624-77.605-58.947-115.5-89.5-17.888 18.627-33.953 38.941-51.634 57.758-4.34 5.926-13.749 3.962-20.162 4.242-21.806-.754-44.02.92-65.704-.5 26.36-20.824 52.608-41.864 78.42-63.354 6.486-5.512 13.212-10.747 19.536-16.434 4.805-4.046 9.485-8.234 14.35-12.202 3.188-2.768 9.303-2.09 13.876-3.234 7.094-1.223 14.114-3.619 19.827-8.098 6.677-4.39 8.125-10.47 10.991-16.678-.458-.45-.911-.96-1.25-1.5-15.988-1.768-31.591-6.183-47.425-8.852-47.147-9.676-94.82-18.254-141.825-28.148-1.188 49.579-4.121 99.367-5.5 149-18.549-5.834-36.568-13.4-55.122-19.254-18.318-6.012-36.28-13.705-54.878-18.746v331c-22.993.885-45.957 2.352-69 2 1.52 25.016 5.483 49.865 7.38 74.855 1.336 12.951 2.754 25.87 3.96 38.824.705 6.349 1.437 12.69 2.047 19.035 1.265 5.958.204 13.804 3.113 18.286m72.5-1123h826c-1.716-30.607-2.359-61.533-9.99-91.453-21.185-98.132-80.367-187.182-162.529-244.945-40.157-29.174-85.893-50.457-133.813-63.2-51.681-13.697-105.58-15.988-158.591-10.369-98.897 11.683-191.885 61.39-257.601 135.917-67.897 74.133-103.221 174.274-103.476 274.05m100 740c3.018-.667 5.787-2.862 9.4-3.5 44.543 15.464 85.858 46.748 110.1 87.5 2.467-4.153.966-10.628 1.5-15.133v-81.592c-.025-4.062.56-9.962-4.074-10.048-4.342-.462-8.75-.068-13.1-.227H1187zm0 223c39.988-2.547 80.03-5.198 120-8 2.149-15.536.185-31.388 1-47h-2c-10.897 19.687-34.916 33.169-57.592 30.655-17.229-1.894-32.289-14.194-39.482-29.646 2.813-53.23 1.368-110.543-21.426-160.009-1.426 70.987.26 142.838-.5 214m17 355c11.718-.012 23.62.63 35.152-1.937 7.952-1.785 15.772-4.37 23.171-7.755 5.44-2.799 12.324-5.568 16.382-9.566 3.878-3.192 3.452-9.276 3.295-13.774v-183.165c-.033-3.721-.114-7.487.452-11.16.102-2.296 4.056-2.739 5.563-3.532 7.431-2.124 12.593-8.691 13.985-16.111-32.64-3.05-65.322-6.571-98-9zm448 77h121v-314h-121zm244-384c7.239-30.548 22.542-65.106 39.87-88.197 18.77-25.961 46.225-45.354 77.13-53.803.541-4.091 2.31-7.931 3-12-63.604-26.927-119.298-71.94-162.803-125.194-43.33-54.18-76.27-117.339-93.197-184.806-3.391.49-6.887 2.598-10 3 7.607 83.478 17.092 167.297 36.507 248.994 10.692 39.566 22.61 79.243 41.421 115.842 8.786 17.955 18.538 35.43 29.904 51.888 5.542 8.333 11.615 16.292 17.703 24.221 3.243 3.847 6.172 7.955 9.59 11.653 3.154 2.874 5.55 8.362 10.875 8.402" style="fill:#fff;fill-rule:evenodd;stroke:none"/><path d="M1007 2640.375c.603 1.077 2.22 1.951 3.42.705l.58-.58c-1.213-.683-2.68-.46-4-.5zm9-394.875c-.698-.826-1.645-1.651-3-1.5-.24 1.511.83 2.31 2.16 1.901.324-.032.594-.216.84-.401m170.5-59.5c.655-1.86.66-4.314 0-6-2.553 1.825-1.03 3.906 0 6m61.5 345.375c1.935 2.414 4.478 4.29 6.5 6.625-.194-2.973-4.356-6.048-6.5-7zm37 107.125c-.698-.826-1.645-1.651-3-1.5-.24 1.511.83 2.31 2.16 1.901.324-.032.594-.216.84-.401m21-691c.554.48 1.357.494 2 .5 1.864-8.82.47-18.02 1-26.936v-62.827c-.781-5.854 1.281-14.921-1.5-19.237-1.406 18.082.24 36.67-.5 54.846v41.359c-.175 4.118.456 9.446-1 12.295m0 82.75c2.432 6.774-.099 16.344 1 23.369v23.881l.5 1.5c2.457-7.733 1.043-16.102 1.5-24.055V2030h-3zm0 110c3.611 111.997-1.445 225.612 1.5 337.75 2.03-2.826 1.241-6.58 1.5-9.899v-287.962c-.839-12.924 1.172-28.408-1-40.139h-2zm234 495.875c2.02 1.732 7.138.412 9.483.567l.517-.192c-3.108-2.999-6.72-1.59-10-.375m351-503.75c.839 1.178 2.366 2.36 3.5 3.625.827-.802 1.42-1.843 1.5-3-1.762.176-3.47-.13-5-1zM1911.5 1099c.525-1.603.721-3.425 0-5-2.082 1.332-1.185 2.865-.186 4.499z" style="fill:#fcf2f2;fill-rule:evenodd;stroke:none"/><path d="M1188.5 2495c.346-1.934 1.872-2.367 3.5-2.5-1.32-.247-2.66-.473-4-.5a9.4 9.4 0 0 0 .5 3" style="fill:#eaa2a2;fill-rule:evenodd;stroke:none"/></svg>