<svg xmlns="http://www.w3.org/2000/svg" width="3000" height="3000"><path d="M448 2669h2104c-108.019-653.996-218.137-1307.761-326.618-1961.691-6.813-40.83-13.621-81.671-20.41-122.502-.9-5.185-1.732-10.375-2.627-15.558-.693-5.948-7.25-6.546-11.566-8.162a2264805 2264805 0 0 1-451.953-150.644c-56.522-18.824-113.032-37.715-169.56-56.514-12.477-4.17-24.972-8.31-37.44-12.486-6.015-1.98-11.998-4.026-18-6-5.943-1.873-12.256-5.247-18.565-3.023-92.812 30.91-185.585 61.892-278.396 92.78-138.737 46.826-278.12 92.047-416.698 139.266-3.665 1.962-2.298 9.57-3.876 12.727-22.4 134.514-44.811 269.006-67.243 403.502C635.746 1543.503 540.855 2106.166 448 2669M1956.5 707c-48.417 5.647-97.792 15.47-142.201 36.882-37.214 16.27-71.385 39.88-99.67 68.988l-154.862 154.863c-19.864 18.758-38.038 39.387-58.352 57.623-5.75 1.04-9.98-6.18-13.89-9.331-63.99-66.842-131.22-130.702-195.895-196.895C1227.894 750.873 1134.85 714.49 1043 708c4.95 66.521 24.738 132.762 61.493 188.787 16.142 25.783 36.897 47.977 58.74 68.946l126.37 126.37 59.267 59.267 7.5 7.5c1.613 2.34 6.348 5.229 4.669 7.996-37.025 38.723-76.062 75.753-113.514 114.11l-13.5 13.5c-4.279 3.863-9.065 11.583-13.964 6.966-17.942-16.379-36.82-31.738-56.258-46.311-16.68-11.943-39.668-31.038-64.49-13.098-11.143 7.939-14.44 18.967-13.222 31.11 1.003 11.052 8.164 22.555 14.412 30.222 13.768 17.23 27.862 34.203 42.519 50.666 7.208 8.18 14.375 16.41 21.848 24.34 3.793 3.798 7.061 8.079 10.482 12.182.053 4.95-6.09 9.203-8.541 13.028-27.704 31.081-54.44 63.047-82.082 94.177-6.527 6.799-12.759 18.557-21.977 16.636-10.195-.92-21.15-1.216-30.364 3.983-17.375 9.432-23.679 32.113-16.298 49.775 6.515 16.861 17.935 31.459 30.643 44.08 12.185 12.621 25.102 24.664 40.256 33.66 7.562 3.948 17.29 7.812 25.218 7.973 16.721.215 35.112-8.551 40.662-25.426 2.125-8.462.71-18.843.006-26.65-1.19-7.234 9.518-11.618 14.366-17.44 23.939-20.776 47.905-41.524 71.95-62.179 11.371-9.795 22.547-19.945 34.194-29.382 3.06-1.302 6.275 4.255 8.542 5.476 21.514 18.873 43.306 37.451 65.53 55.516 18.765 14.134 44.324 40.502 71.485 17.692 9.435-8.713 14.051-22.287 10.902-34.847-2.498-12.228-10.431-22.291-17.648-32.032-14.352-18.791-29.043-37.497-45.553-54.471-2.137-1.774-3.471-4.155-4.888-6.443-1.126-2.166 2.41-4.856 3.478-6.41 31.252-31.258 62.495-62.494 93.742-93.744l20.627-20.627 10.13-10.13c3.425-2.36 6.363-8.037 10.21-8.268 4.095-.072 7.295 6.67 10.428 8.37l75.732 75.732 33 33c5.252 5.26 10.52 10.508 15.765 15.77 7.471 5.791-.376 11.533-4.813 16.118-17.78 19.947-34.826 40.585-50.406 62.31-6.635 9.977-12.238 22.046-10.163 34.44 2.04 11.122 8.953 21.374 19.43 26.184 19.613 10.859 43.48-6.215 58.004-17.358 14.543-10.621 28.405-22.123 42.042-33.843 6.164-4.735 12.544-11.277 17.913-15.92 5.852-4.732 10.318-11.176 16.852-15.054 2.664-2.512 6.677 1.74 8.73 3.1 19.871 18.195 40.995 34.99 61.01 53.005a7406 7406 0 0 1 45.523 39.429c2.983 2.318 5.706 4.872 8.295 7.566-.304 12.519-5.375 30.16 6.992 42.406 16.55 18.433 39.93 16.577 58.353 6.336 18.283-10.854 33.78-25.672 47.865-41.466 16.675-18.055 39.073-51.105 17.34-77.414-9.59-13.099-24.432-13.833-39.068-12.943-3.256.196-7.306 1.03-9.66-1-34.788-38.86-68.214-79.082-103.036-117.944-4.801-4.816 3.954-10.068 6.354-13.33 14.764-17.261 30.648-33.528 44.948-51.207 12.115-15.855 29.899-33.334 35.357-51.363 6.793-19.916-8.577-44.028-30.434-44.345-19.404-1.456-35.31 11.865-49.702 22.725-13.769 10.331-27.194 21.058-40.16 32.367-2.937 3.01-6.185 5.649-9.383 8.353-2.572 2.368-5.884 6.61-9.41 3.402-22.303-22.809-45.905-44.565-67.375-68.161l-59.635-59.635c-4.25-3.734-10.593-8.808-3.989-14.256 66.97-67.012 133.99-133.982 200.961-200.976 68.28-64.983 109.142-157.78 112.898-251.898m-912.207 844.972c.414 8.995 6.205 16.353 11.643 22.724 8.228 10.302 17.582 19.596 27.07 28.728 9.89 8.117 20.439 19.011 33.568 17.35 10.751-1.521 8.101-13.267 7.397-20.428-.652-5.283-8.065-7.755-12.419-11.422-13.923-10.451-26.24-23.27-35.637-37.94-2.224-3.93-4.591-7.43-8.647-7.872-4.62-.447-10.139-.961-14.39-.705-4.763.33-8.762 4.716-8.585 9.565M1088.5 769h-1.5c8.438 40.275 25 78.815 47.704 113.072 20.073 30.095 47.513 54.132 72.666 79.798l135 135 25.5 25.5 12 12c1.829 1.569 3.583 3.983 6.217 5.132 5.338-1.263 7.582-7.198 12.015-10.104 7.307-7.443 14.835-14.67 22.074-22.164 4.55-4.439-.414-8.01-3.409-10.967L1100.63 780.13c-4.304-3.357-7.905-9.184-12.13-11.13m75.5 775c-9.864-2.236-18.434-11.069-24.733-17.233-2.733-2.762-5.494-5.452-8.196-8.233-2.492-2.194-4.586-6.561-7.605-7.07-5.568-1.62-12.035 3.68-12.268 8.94-.916 8.67 6.829 18.6 11.19 23.458 5.523 5.78 13.032 11.704 19.776 14.662 4.932 2.549 8.97-.051 12.21-3.409 2.696-2.869 7.24-5.032 9.297-9.362.144-.572.229-1.186.329-1.753m-52-788.5c98.828 101.68 201.275 200.756 300.87 301.87l19.105 19.105c3.138 2.504 6.077 7.153 9.469 8.025 6.333-3.118 11.974-11.558 17.531-15.975 5.032-5.291 11.57-11.015 15.53-16.418.116-3.013-3.934-5.431-5.875-7.977-39.118-38.321-77.185-77.648-115.605-116.605l-58.127-58.127c-19.298-19.333-38.223-39.124-59.305-56.5-35.38-28.216-77.24-47.141-120.83-58.572-.724-.174-1.46-.248-2.2-.281L1112 754zm2.202 513.945c.463 9.323 7.72 15.881 12.986 22.528 42.477 51.693 87.37 101.31 134.787 148.502 23.53 23.828 47.868 46.848 73.837 68.004 12.624 10.897 25.8 21.128 38.869 31.474 6.7 4.721 14.14 12.48 21.712 11.91 5.93-.026 6.008-5.564 5.472-9.51-.346-4.308-2.747-8.076-5.047-11.576-36.202-50.387-78.952-95.35-123.188-138.647-43.639-44.122-90.237-85.183-139.173-123.352-3.996-3.55-9.157-6.222-14.666-5.645-3.493.007-5.842 2.653-5.59 6.312M1142 2525c31.938.203 65.112.192 95.063-12.618 14.313-4.914 27.086-12.984 38.092-23.238 6.842-5.819 5.973-13.695 5.845-21.738V2442h587.4c14.02-.001 28.032.002 42.038-.001 11.615.081 27.144-1.677 31.562-13.663-43.42-36.901-89.586-70.501-134.672-105.317-5.02-4.738-9.264.163-11.687 4.528-12.818 16.419-25.874 32.647-38.592 49.13-5.632 7.164-11.082 14.452-16.81 21.535-2.754 3.347-5.215 6.903-7.992 10.217-2.719 2.862-4.937 8.021-8.657 8.27-147.505.858-295.077-.156-442.59.301v-223h366v90c40.84 1.298 81.497-5.978 119.78-20.133 4.652-1.65 9.445-3.058 13.652-5.73 4.775-2.565 4.84-7.167 4.568-11.686V1975c16.326-2.549 31.66-10.474 43-22.5-42.858-33.226-86.6-65.342-129.5-98.5-11.609 12.406-22.618 25.359-34.024 37.95-4.962 5.65-10.159 11.082-15.057 16.788-4.69 4.417-10.179 12.042-14.679 14.793-117.844 1.338-235.86-.244-353.74.469v-176h553.8c13.215-.068 26.421.083 39.635-.047 10.588-.463 24.869-1.466 30.565-13.453-21.371-18.842-45.255-34.655-67.774-52.045-22.542-16.784-44.703-34.461-67.726-50.455-17.438 19.35-32.726 40.584-49.624 60.392-7.424 8.78-14.627 17.738-21.907 26.624-3.785 5.342-10.731 3.793-15.913 3.984H1325.23c-8.995-.013-17.972.016-26.952-.008-7.082.184-13.452-3.246-19.976-5.396-45.515-15.91-90.735-32.96-136.302-48.596zm5.465-1037.504c.392 12.935 10.264 22.004 18.77 30.235 4.183 3.815 9.392 8.086 13.86 10.758 2.547 1.855 5.217.081 7.142-1.578 2.444-1.61 4.727-3.432 7.136-5.087 1.803-1.102 3.31-2.53 4.738-4.052 1.595-3.33-5.986-6.017-7.48-8.012-9.566-6.944-17.244-16.038-24.28-25.436-2.526-3.837-5.74-9.048-12.118-7.807-4.815 1.031-7.09 6.503-7.768 10.979m29.536-33.56c-1.104 11.393 11.468 21.982 18.139 27.675 4.243 3.588 8.463 7.205 12.768 10.715 4.112 3.187 8.657 7.792 13.141 4.883 4.34-2.988 9.672-6.572 12.858-10.22 2.367-3.378-5.091-6.778-6.71-8.47-9.953-6.726-20.112-16.594-27.123-25.022-3.741-4.123-6.393-11.114-11.565-12.044-8.558-1.725-11.794 5.52-11.508 12.484M1888 754c-34.584 6.6-72.245 25.216-99.549 41.803-28.818 18.075-52.403 42.912-76.426 66.672-90.361 90.898-180.344 182.14-271.395 272.395l-102 102c-29.284 29.995-59.81 58.943-88.752 89.22-1.657 3.397 5.298 7.755 6.855 10.143l19.5 19.5c2.699 2.992 6.091 6.712 9.974 2.471 195-194.747 389.726-389.772 584.663-584.574l9.363-9.363c2.742-3.055 7.27-6.278 7.767-10.267m-607 1416h366v-222h-367c2.406 18.255-.073 36.924 1 55.265zm632-1401c-3.719.274-6.498 4.368-9.102 6.602l-508.873 508.873-63.758 63.758c-9.241 9.482-18.891 18.597-28.02 28.176-4.606 4.457 4.698 10.264 7.11 13.47 8.01 8.241 16.628 18.915 25.082 25.353 4.852 1.435 9.285-6.666 12.663-8.834l366.373-366.373 121.5-121.5c39.144-41.159 64.628-94.47 77.025-149.525m-387.502 509.469c3.898 6.973 11.434 11.893 16.477 18.006l60.758 60.758 30.37 30.37 15.372 15.372c4.857 3.635 10.242 12.542 15.779 12.544 12.196-10.308 22.884-22.545 33.497-34.384 2.339-2.111-2.29-5.701-3.353-7.237l-96-96-18.373-18.373-9.395-9.395c-3.23-2.335-6.255-7.911-10.098-7.556-12.081 11.038-23.697 23.18-35.054 34.882.01.308.017.613.02 1.013m55-55.055c3.756 6.918 11.195 11.68 16.104 17.688l60.768 60.768 30.363 30.363 15 15 7.5 7.5c2.514 2.012 5.162 6.11 8.235 5.693 6.219-5 11.429-11.233 17.265-16.659 4.686-4.906 10.691-10.243 14.489-15.172 1.245-2.623-3.264-5.537-4.454-7.327l-98.243-98.243-16.895-16.895-8.605-8.605c-2.962-2.13-5.655-7.04-9.098-7.03-11.55 9.366-21.654 21.606-32.451 31.77.011.34.019.676.022 1.15m17.556 321.36c-.495 5.726 2.918 7.624 7.521 7.084 5.916-.346 10.22-4.93 14.772-8.08 34.047-25.243 66.233-52.842 97.128-81.753a1766 1766 0 0 0 130.123-141.523c10.337-12.335 20.805-24.56 31.666-36.429 3.838-4.099 8.015-9.976 6.374-17.02-.607-6.004-10.507-3.69-13.653-2.244-30.906 19.329-57.277 45.086-84.833 68.623-34.371 33.087-69.552 65.64-101.885 100.8-16.502 17.09-32.143 35.034-47.75 52.929-7.318 9.22-14.84 18.283-21.897 27.704-5.915 8.849-17.385 20.208-17.566 29.909m167.441-59.402c.806 3.532 5.442 5.635 7.727 7.764 4.152 3.383 8.895 7.783 14.2 2.796 4.742-3.298 9.155-6.977 13.54-10.708 7.236-6.177 15.058-12.275 19.757-20.772 3.546-5.826 2.926-16.642-1.394-20.433-9.75-8.974-19.083 8.26-24.334 13.448-7.61 7.492-14.789 15.554-23.452 21.844-2.317 1.222-4.17 3.695-6.072 4.999.013.298.022.595.028 1.062M1800 1516.5c2.544 4.094 8.963 6.922 13.16 10.64 4.803 4.552 9.8-.74 14.116-3.848 6.022-4.683 12.23-11.284 16.989-16.386 5.123-5.406 9.58-12.849 7.415-21.945-.636-5.216-7.091-10.75-13.215-7.433-5.807 4.93-10.135 14.838-17.197 20.704-6.504 5.967-12.54 13.873-21.268 16.768zm36 27.5c.368 4.711 6.103 7.52 8.96 10.516 2.882 2.82 7.074 6.584 12.097 4.329 10.737-4.627 21.247-14.331 27.012-23.244 3.04-5.733 7.938-12.885 2.386-20.226-3.225-4.824-10.42-5.947-13.758-1.085-8.397 12.87-23.587 24.764-36.697 29.71m39.153 66.003c-.354 7.51 5.178 11.562 11.666 10.956 9.187-.193 18.012-7.52 24.158-12.43 12.445-10.488 23.569-22.604 34.125-34.936 4.8-6.065 10-12.884 10.548-20.922.003-11.755-11.03-11.025-19.135-10.036-9.434-.262-11.738 8.867-16.908 15.226-7.215 9.442-16.926 19.73-25.43 26.59-4.493 3.8-9.138 7.373-14.123 10.494-4.783 2.64-4.35 10.087-4.9 15.058" style="fill:#ffe;fill-rule:evenodd;stroke:none"/><path d="M338 2761.5c387.06 1.426 774.925-.26 1162.15.5 387.224-.76 774.71.926 1161.85-.5-77.265-456.459-152.125-914.01-228.874-1370.691-28.417-170.851-56.988-341.657-85.4-512.497-12.491-74.824-24.942-149.684-37.431-224.508-5.828-35.176-11.741-70.32-17.569-105.492-3.54-17.097-4.968-34.714-9.072-51.664-1.3-3.941-8.915-3.966-11.797-5.85-133.175-44.44-266.372-88.79-399.558-133.193-116.482-38.867-233.005-77.647-349.48-116.505-6.56-1.974-12.94-4.527-19.527-6.382-6.558-1.31-12.878 2.396-19.017 4.029-100.339 33.452-200.674 66.889-301.01 100.324-87.802 29.33-175.659 58.504-263.446 87.829-38.52 12.817-77.015 25.657-115.52 38.495-18.005 5.974-35.995 12.026-54 18-8.822 2.95-17.652 5.903-26.471 8.83-4.346 1.012-8.371 2.451-8.57 8.208-90.761 544.76-181.624 1089.514-272.367 1634.27-35.423 208.458-69 418.87-104.891 626.797m111-93.5h2102c1.499-10.311-3.289-24.036-4.354-36.168C2431.722 1942.565 2316.9 1253.266 2202 564c-117.363-37.65-233.969-78.28-351.174-116.557-87.853-29.254-175.674-58.585-263.527-87.838-16.482-5.533-33.005-10.98-49.48-16.505-7.855-2.623-15.68-5.222-23.522-7.84-6.528-2.588-14.264-5.896-22.35-2.086-115.695 38.63-231.436 77.09-347.128 115.726C1029.064 486.693 913.908 526.826 798 564c-58.434 350.72-116.946 701.47-175.36 1052.194a5309189 5309189 0 0 1-87.67 526.005c-14.632 87.669-29.212 175.324-43.844 262.992-7.29 43.832-14.628 87.679-21.918 131.51-3.65 22.002-7.31 44.017-11 66-1.77 11.016-3.712 21.976-5.482 32.987-1.254 10.11-5.104 23.862-3.726 32.312" style="fill:#727270;fill-rule:evenodd;stroke:none"/><path d="M1153 1598.5c40.329-35.334 81.36-69.967 121.5-105.5 15.803 15.883 33.512 29.655 50.5 44.193 12.712 10.766 25.793 21.084 39.007 31.213 9.827 8.198 22.255 13.378 35.213 12.548 19.815-.731 35.47-20.626 32.486-40.115-2.275-18.822-15.996-33.332-26.554-48.01-13.106-17.879-29.034-33.352-43.152-50.329 46.667-45.148 91.29-93.142 138.5-137.5l137.5 137.5c-12.068 14.527-25.712 27.757-36.983 42.983-14.527 19.58-42.656 45.18-29.47 75.495 6.202 13.431 21.448 21.824 36.07 19.675 14.592-1.724 26.692-10.878 38.238-19.04 23.377-16.581 44.656-35.716 65.878-54.85 4.747-4.293 8.918-9.885 14.767-12.763 39.959 35.065 80.424 69.58 120.5 104.5-2.1 3.377-.921 9.247-1.824 13.723-.282 6.53-.612 13.46 2.238 19.538 2.51 5.944 6.928 10.782 11.976 14.71 8.971 6.85 20.705 9.407 31.826 8.249 11.046-1.555 21.125-6.522 30.291-12.561 14.574-10.433 27.705-22.795 39.663-36.145 10.948-13.056 22.033-27.252 25.899-44.3 4.852-19.355-6.292-42.848-26.697-47.459-5.38-1.657-11.068-1.227-16.61-1.252-3.858.034-7.727.318-11.556.458-4.862-2.549-7.479-7.674-11.459-11.542-3.527-4.116-7.227-8.119-10.672-12.303-28.011-32.882-57.534-64.987-85.075-98.116 16.073-16.479 31.007-34.04 46.244-51.278 10.992-12.767 21.656-25.818 31.888-39.194 7.474-10.321 13.685-22.58 11.997-35.793-.451-9.63-5.654-18.7-13.564-24.286-11.386-9.752-32.298-7.941-42.438-2.473-12.124 6.063-24.441 16.401-34.421 23.695-16.598 12.941-33.339 25.89-48.206 40.829-22.32-23.636-46.885-45.236-68.505-69.501-21.968-23.499-46.81-44.955-67.995-68.999l203.233-203.233c33.813-32.065 62.283-70.014 80.617-113.077 18.883-44.947 31.752-93.313 34.15-142.19-95.001 7.8-190.247 44.8-255.233 116.733l-151.87 151.87-28.5 28.5-13.5 13.5c-3.817 3.42-8.223 10.965-13.614 5.143-65.29-68.037-133.701-133.201-199.653-200.616C1231.057 749.582 1135.954 714.34 1042 706c4.586 96.165 45.559 190.652 116.102 256.602L1361 1165.5 1223.5 1303c-12.943-12.799-27.225-24.211-41.445-35.536-19.905-14.47-42.72-39.499-72.875-32.193-11.771 3.669-24.463 16.669-24.266 30.82-1.032 13.285 4.847 27.012 13.608 37.062 18.624 23.049 37.612 45.81 57.672 67.6 6.464 6.742 12.344 14.012 18.806 20.747-25.128 30.112-51.865 59.095-77.183 89.086-10.185 10.003-19.595 24.335-29.488 32.914-13.409-.565-28.515-2.646-40.182 5.913-9.512 6.442-14.766 17.517-16.021 28.57-1.255 20.51 10.653 39.238 23.433 54.149 18.085 21.358 43.65 45.34 69.189 52.052 15.212 3.12 31.552-2.124 42.374-13.016 4.91-5.206 7.742-12.25 7.82-19.365.138-4.027.004-8.042-.26-12.048-.47-3.548-.099-8.697-1.682-11.255m-107.54-46.435c.591 9.429 7.31 16.512 12.775 23.258 8.917 10.126 18.005 20.218 28.14 29.17 5.21 4.138 10.02 8.893 16.071 11.827 5.53 3.372 13.884 5.773 18.713.638 2.89-3.006 2.696-7.351 2.216-11.232-.379-2.928-.066-6.544-2.736-8.976-18.633-11.963-35.371-27.748-47-46.768-3.547-7.134-15.223-6.945-21.126-6.4-3.556 1.349-7.51 4.252-7.052 8.483M1088 770.333c9.867 38.416 24.22 76.57 46.927 109.554 16.036 25.555 38.143 46.182 59.548 67.088L1386.5 1139l35.5-35.5c-111.593-110.834-222.118-223.044-334-333.5zm75 775.167c-17.451-5.227-26.914-22.964-40.503-33.026-5.097-1.02-7.913 3.672-10.088 6.958-1.68 13.124 12.334 24.753 20.744 32.089a39.2 39.2 0 0 0 7.443 4.766c7.712 5.604 17.162-6.26 22.404-10.787m-50-790.164C1222.257 865.06 1332.12 974.371 1441.5 1084l32.5-32.5c-56.62-55.824-112.174-112.637-168.102-169.102-28.328-27.402-54.471-57.712-87.132-80.186C1186.752 779.99 1150.498 765.065 1113 755zm2.372 514.147c.768 9.195 8.295 15.479 13.355 22.148 42.193 51.326 86.793 100.588 133.875 147.471 23.492 23.592 47.536 46.67 73.382 67.681 12.539 10.78 25.56 20.924 38.5 31.2 6.077 4.263 14.07 12.11 20.513 12.757 6.143.567 6.766-5.042 5.653-9.038-.817-4.044-3.559-8.169-5.73-11.164-36.262-50.354-79.287-95.107-123.395-138.513-43.657-44.087-90.37-85.028-139.27-123.216-3.406-2.697-7.733-5.025-12.225-4.544-2.75.022-4.72 2.422-4.658 5.218M1141 2526c32.22.166 65.67.479 96.005-12.184 14.464-5.058 27.592-12.948 38.794-23.335 7.192-6.12 6.452-14.166 6.201-22.075V2443h549.6c27.607-.044 55.23.054 82.834-.029 9.112-.26 19.538-1.685 25.905-9.01 6.457-6.968-5.667-13.694-9.866-17.356-20.825-17.494-42.699-33.614-64.023-50.447-10.793-8.336-21.59-16.659-32.566-24.738-5.335-4.121-10.577-8.352-16.054-12.268-5.317-3.538-10.961-9.086-16.517-11.152-12.865 17.052-26.6 33.425-39.557 50.374-11.055 14.748-22.743 28.994-33.995 43.58-2.798 4.43-7.192 4.223-11.66 4.046H1282v-221h364v90c41.513 1.425 82.868-5.56 121.78-20.133 4.652-1.65 9.445-3.058 13.652-5.73 4.964-2.71 4.8-7.627 4.568-12.286V1976c16.849-2.559 32.495-10.969 44-23.5-37.039-28.397-74.24-56.65-111.46-84.81-3.564-2.737-7.239-5.343-10.692-8.21-3.422-1.731-7.175-7.154-10.72-5.503-6.192 5.075-11.6 13.172-16.951 18.205-10.44 11.755-20.85 23.51-31.411 35.137-4.633 4.648-10.289 11.736-14.506 15.122-117.312 1.595-234.897-.29-352.26.559v-174h523.2c26.005-.854 52.127 1.066 78.084-.637 7.403-1.099 18.168-2.566 21.563-11.582 1.744-3.726-2.432-6.731-5.147-8.804-21.43-17.11-43.509-33.347-65.576-49.604-10.996-8.356-21.857-16.852-33-25-5.388-4.207-11.076-7.998-16.567-12.056-5.485-3.328-10.744-9.62-16.557-11.317-14.903 20.93-33.23 40.33-48.783 60.986-7.446 8.785-14.656 17.775-21.969 26.668-3.554 5.541-10.409 4.342-15.592 4.346H1324.83c-8.988-.065-17.998.08-26.984-.045-7.236-.298-13.722-4.068-20.534-6.024-45.447-16.23-90.904-32.732-136.312-48.931zm41.5-997c4.911-4.893 11.513-7.698 16.5-12.5-7.773-5.168-15.54-10.531-21.65-17.738-4.736-5.32-9.204-10.891-13.216-16.753-2.615-3.88-8.733-6.977-12.725-1.314-9.912 13.754 10.61 31.093 18.897 38.902 3.867 3.41 8.378 5.956 12.194 9.403m35-31c5.416-3.907 12.118-8.146 16.5-12.5-8.258-6.331-16.9-12.129-24.352-19.473-5.447-5.182-11.213-11.983-15.075-17.696-2.606-4.785-9.027-9.132-14.082-2.969-11.282 16.895 13.978 32.857 23.156 41.659 4.161 3.947 9.885 7.562 13.853 10.979m32.5-170.542c10.754 10.884 21.71 21.678 32.5 32.542 200.707-201.973 404.232-402.69 604.167-605-34.69 8.985-67.848 23.268-98.124 42.337-26.513 16.754-48.644 39.183-70.645 61.265-155.861 156.335-311.357 313.23-467.898 468.856m31 621.792c1.48 3.556.818 8.884 1 13.417V2169h364v-220h-365zm21-569.792c12.103 11.34 22.12 25.64 35.5 35.542l309.37-309.37 154.863-154.863c25.61-24.69 51.783-49.518 69.602-80.738 18.822-30.573 32.837-65.04 40.165-100.029-203.158 203.094-406.357 406.434-609.5 609.458m224-101c22.8 22.92 45.769 45.747 68.602 68.644 23.462 21.943 44.893 46.745 68.898 67.898 12.086-11.303 23.102-23.578 34.5-35.5L1561.5 1243c-11.828 11.79-23.666 23.717-35.5 35.458m55-55c45.428 45.547 91.035 91.014 136.5 136.542l32.5-32.5-136.5-136.5c-10.82 10.79-21.673 21.717-32.5 32.458m18.143 321.508c-.122 4.783 2.917 6.258 6.784 5.717 5.125-.826 8.915-4.81 12.992-7.613 83.555-62.998 157.315-138.075 223.572-218.874 8.654-9.757 16.502-20.215 25.468-29.688 6.32-8.45 20.758-18.312 15.57-28.773-3.298-4.253-11.052.507-14.064 2.06-61.22 43.772-114.097 97.76-167.335 150.575-19.234 19.724-37.656 40.23-55.952 60.814-9.138 10.136-17.46 20.945-25.819 31.711-4.141 5.512-8.267 11.032-12.405 16.537-3.885 5.152-8.85 10.523-8.811 17.534M1766 1485.5c4.943 4.807 10.998 8.408 16.5 12.5 7.72-5.858 15.49-11.641 22.694-18.137 7.864-6.176 27.466-25.56 10.513-36.65-6.617-3.022-12.507 7.785-16.21 11.174-4.682 5.798-10.366 10.687-15.472 16.088-4.53 4.769-9.743 8.771-15.103 12.54-.932.79-2.347 1.686-2.922 2.485m35 30.844c4.933 4.84 11.545 7.805 16.5 12.656 6.979-5.578 14.654-10.316 20.37-17.37 7.148-6.159 22.564-24.387 6.622-33.476-6.07-3.014-10.565 7.522-13.223 10.464-3.84 5.397-8.344 10.208-13.14 14.752a67.3 67.3 0 0 1-14.312 11.556c-.867.575-2.07.851-2.817 1.418m36 29.031c4.27 4.018 9.545 8.932 13.96 12.034 2.534 1.711 5.777.362 8.188-1.001 2.88-1.46 5.52-3.298 8.046-5.277 6.216-4.744 12.113-10.202 16.142-16.983 3.755-5.807 7.875-14.145-.325-20.284-4.911-4.547-9.18.291-11.364 4.492-8.174 11.947-22.996 21.478-34.647 27.019m39.277 64.61c-.05 6.96 5.498 10.634 11.42 9.852 8.666-.936 16.825-7.931 22.694-12.663 12.533-10.411 25.494-24.734 35.017-36.183 4.362-6.584 11.087-14.377 8.437-21.724-2.808-8.377-16.703-5.9-22.763-4.749-5.82 5.636-7.96 12.582-13.294 18.03-6.878 8.488-16.057 17.527-23.795 23.868-4.1 3.473-8.383 6.688-12.94 9.529-4.598 2.41-4.401 9.264-4.776 14.04" style="fill:#666;fill-rule:evenodd;stroke:none"/><path d="M447 2666a5 5 0 0 0 2-.5c79.015-467.127 155.682-935.322 234.186-1402.681 29.212-175.012 58.322-350.007 87.52-525.015 6.375-38.331 12.755-76.675 19.168-114.995 1.517-9.346 3.103-18.669 4.658-27.995 2.431-9.079 2.292-21.046 5.774-28.913 72.384-25.592 146.203-48.431 218.867-73.458 136.855-45.575 273.684-91.274 410.528-136.838a26982 26982 0 0 1 45-15c7.586-2.36 15.035-5.2 22.646-7.454 6.33-1.515 14.495 4.106 21.827 5.407 116.014 38.645 232 77.359 348 116 101.53 33.826 203.04 67.68 304.56 101.513 5.652 1.95 11.321 3.736 16.969 5.67 5.04 1.68 12.29 2.59 12.804 9.387a6803998 6803998 0 0 1 174.679 1048.053c29.143 174.664 58.238 349.336 87.345 524.005 14.527 87.34 29.129 174.657 43.655 261.995 7.265 43.68 14.576 87.346 21.844 131.018 3.61 21.835 7.31 43.665 10.922 65.496 1.814 11.003 3.697 22.012 5.496 33.006.931 5.485 1.843 10.985 2.745 16.473 1.833 4.456.255 13.044 4.807 14.826-115.438-701.138-233.93-1401.94-350-2103-117.532-37.732-234.34-78.365-351.703-116.74-87.84-29.249-175.644-58.574-263.47-87.817-16.523-5.49-33.033-11.048-49.561-16.514-7.803-2.663-15.66-5.17-23.447-7.829-6.666-2.554-14.662-5.957-22.973-2.211-115.85 38.637-231.71 77.22-347.549 115.851C1028.376 485.573 913.072 525.78 797 563c-116.066 701.042-234.568 1401.905-350 2103" style="fill:gray;fill-rule:evenodd;stroke:none"/><path d="M1281.5 1922c.489-57.663.658-115.338.5-173 199.338-.07 398.676-.38 598-.5-199.67-.12-399.336-.433-599-.5-.158 58.016.008 115.99.5 174m-.5 495c147.655-.164 295.345-.335 443-.5l-442-.5c-.76-73.517.926-147.665-.5-221-1.426 73.666.26 148.157-.5 222m.5 65a875 875 0 0 0 .5-39c211.666-.148 423.35-.342 635-.5-212.004-.157-424.011-.354-636-.5a894 894 0 0 0 .5 40" style="fill:#b2b2aa;fill-rule:evenodd;stroke:none"/></svg>