<svg xmlns="http://www.w3.org/2000/svg" width="3000" height="3000"><path d="M448 2669h1112.4c24.481.81 47.749-8.051 70.755-15.558 10.737-3.877 21.539-7.528 32.286-11.357 2.457-.605 6.91-1.665 8.572.103 3.94 2.602 2.786 8.864 2.987 12.82V2669h877c-106.564-645.134-215.209-1290.084-322.186-1935.181l-20.175-121.013c-1.604-9.5-3.179-19-4.745-28.498-.895-5.006-1.668-10.059-2.548-15.059-.615-5.773-6.816-6.476-11.035-7.984-146.162-48.727-292.336-97.44-438.492-146.165-54.846-18.272-109.702-36.54-164.522-54.84-24.011-8-48.001-16.005-72-24-5.564-1.34-11.885-4.827-17.25-4.711-88.84 28.46-177.05 59.231-265.75 88.191-132.831 44.262-265.65 88.528-398.47 132.817-8.334 2.798-16.672 5.552-25.008 8.343-3.721 1.592-8.761 2.295-11.294 4.762-20.913 120.145-39.968 240.778-60.477 361.033C641.761 1507.473 543.87 2088.232 448 2669m1150-1268h4c-.033 13.464-.853 26.896-1.12 40.34-.25 10.352-.623 20.722-.835 31.062-1.257 9.166 5.184 12.367 12.757 10.483 20.44-4.212 41.054-7.23 61.789-9.463 14.507-2.069 29.105-2.851 43.7-3.863 5.287-.567 11.683-.183 14.82-4.75 2.507-3.816 2.185-9.37-1.06-12.551-6.294-4.848-17.152-2.508-24.39-3.832-11.038-.534-25.377-3.588-32.24-11.75-6.772-10.062-6.098-25.532-7.585-35.998-.98-21.903-.97-43.835-.836-65.748.007-60.126-.008-120.245.004-180.355.08-29.633 1.311-59.244 1.994-88.856-.161-3.566.49-8.055-1.678-10.415-4.193-5.28-11.323-2.146-16.006-1.131-17.245 4.371-34.617 8.364-52.1 11.608-17.295 3.168-34.519 6.753-51.983 8.947-6.676.555-16.216 2.593-16.148 12.723-.265 3.46.7 7.013 3.565 9.11 13.628 4.184 28.767-3.562 42.473 1.114 24.671 10.1 22.46 41.742 24.026 61.188 1.057 39.378.934 78.79.853 118.174.118 19.536-.178 39.075-1.01 58.592-.683 9.132-1.963 18.357-5.092 27.014-3.051 7.602-7.248 14.698-11.67 21.548-4.29 6.135-8.855 12.094-13.751 17.758-17.335 19.164-40.162 33.868-66.175 37.458-24.326 3.552-51.355.585-71.207-15.353-17.75-14.097-29.517-34.781-32.341-57.306-4.6-22.724-3.898-46.043-4.629-69.078-.347-44.831.709-89.644.78-134.473.074-19.464.658-38.911 1.145-58.364.205-9.381.403-18.722.606-28.09-.685-7.616 2.66-19.308-3.711-23.457-6.972-2.867-16.092 2.224-22.93 2.961a1388 1388 0 0 1-92.88 18.225c-5.604.875-13.511.995-17.711 7.31-3.357 4.597-1.092 14.029 3.993 15.52 12.79 1.895 25.973-2.926 38.73-.053 11.232 2.63 18.407 13.483 21.353 23.94 5.63 22.555 3.982 46.31 5.49 69.31-.173 42.125-.526 84.224-.738 126.338-.308 30.075-2.255 61.017 7.563 90.015 13.53 39.553 50.557 67.727 91.269 74.45 42.376 7.308 88.176-.807 122.893-27.096 17.713-14.147 36.887-34.311 46.023-53.206m-192 668h-3c-.099-25.735 1.93-51.544 1.531-77.236-1.608-6.813-8.863-5.802-13.601-3.6-16.155 6.161-32.34 12.285-48.781 17.651-13.554 4.677-27.538 8.124-41.334 11.991-10.042 3.784-23.605 3.942-32.053 9.286-6.513 5.167-4.801 13.953.806 18.447 13.237 1.09 26.626-1.243 39.893-.422 11.985 1.297 20.174 12.348 23.62 22.872 5.703 20.504 5.488 42.167 5.919 63.246v111.998c.032 27.722.294 55.442-.979 83.129-2.351 18.399-.528 42.745-18.671 50.055-6.414 2.741-13.138 4.792-20.024 5.873-5.645 1.645-13.781 1.503-18.347 3.1-4.883 2.708-6.002 8.828-3.624 13.682 2.885 4.979 8.529 3.808 13.515 3.887 35.978-1.296 71.983-2.239 107.98-1.616 18.575.186 37.153.71 55.7 1.597 3.38-.471 9.347.984 11.597-1.263 5.14-3.481 3.867-14.87-2.88-16.775-12.863-2.822-29.113-1.599-40.438-6.783-5.479-1.962-9.904-6.058-13.343-10.654-4.416-10.46-3.53-24.274-4.973-34.322-2.401-42.501-1.129-85.165-1.513-127.705.302-21.441-.502-42.911.6-64.325.606-19.523 5.456-39.243 15.895-55.904 3.884-5.806 8.23-11.231 12.653-16.621 17.76-19.909 40.557-37.351 68.035-40.706 25.94-3.905 54.77-.88 76.048 15.911 19.072 14.466 29.926 38.004 33.259 61.116 2.79 25.22.734 50.747 1.51 76.057-.336 47.732.726 95.5-1.168 143.196-.52 9.71-1 19.455-2.853 29.015-.851 8.925-4.523 17.929-12.996 22.253-8.303 4.787-17.89 6.393-27.163 8.055-7.418.502-20.636-.781-19.59 11.824.71 10.665 15.555 7.307 22.138 7.396 35.233-1.425 70.51-1.757 105.76-1.275 15.369.249 30.732.441 46.07 1.271 6.299.01 15.236 1.723 19.14-3.064 3.77-6.085.733-13.53-5.757-14.691-12.079-2.64-24.892-2.735-36.313-8.04-4.97-2.184-10.469-4.661-13.421-9.5-5.306-10.242-4.956-22.238-6.24-33.347-2.929-46.001-.921-92.185-1.306-138.228l.39-52.612c.624-28.782 2.856-58.965-9.735-85.937-6.774-19.156-20.368-34.688-35.791-47.337-49.041-36.886-121.977-34.851-171.488-.347-22.412 15.25-40.893 36.413-54.677 59.402" style="fill:#ffe;fill-rule:evenodd;stroke:none"/><path d="M338 2761.5c421.294 2.944 844.29-2.111 1265.5 1.5 1.381-14.35-.64-31.992-4.442-44.629-2.52-6.275-6.297-12.274-12.245-15.78-6.026-4.22-13.363-5.044-20.48-4.345-8.093.207-16.145.455-24.234.651-2.935.375-5.708-.29-8.444-1.177-5.713-8.804.93-19.214 10.31-20.925 10.144-1.7 20.095-4.35 30.035-6.795v-2H449c77.862-467.037 155.689-934.14 233.532-1401.186 29.169-175.181 58.402-350.34 87.577-525.517 6.414-38.336 12.787-76.651 19.165-114.985 3.25-19.03 6.25-38.12 9.625-57.12.996-4.967 7.805-5.658 11.81-7.255 145.478-48.53 290.989-96.991 436.465-145.494 63.657-21.191 127.307-42.454 190.96-63.643q22.5-7.533 45-15c7.414-2.224 15.049-6.598 22.66-3.716 116.448 38.849 232.937 77.626 349.38 116.473 101.996 34.028 204.003 67.972 306 102 11.176 3.733 22.382 7.423 33.538 11.202 6.798 1.45 7.151 7.253 7.739 12.963C2318.655 1273.806 2434.821 1970.935 2551 2668h-875v-8h-2c.444 34.132-1.566 68.876-.5 103 328.984-3.611 659.36 1.444 988.5-1.5-77.265-456.459-152.125-914.01-228.874-1370.691-28.417-170.851-56.988-341.657-85.4-512.497-12.491-74.824-24.942-149.684-37.431-224.508-5.828-35.176-11.741-70.32-17.569-105.492-3.54-17.097-4.968-34.714-9.072-51.664-1.3-3.941-8.915-3.966-11.797-5.85-133.175-44.44-266.372-88.79-399.558-133.193-116.482-38.867-233.005-77.647-349.48-116.505-6.56-1.974-12.94-4.527-19.527-6.382-6.558-1.31-12.878 2.396-19.017 4.029-100.339 33.452-200.674 66.889-301.01 100.324-87.802 29.33-175.659 58.504-263.446 87.829-38.52 12.817-77.015 25.657-115.52 38.495-18.005 5.974-35.995 12.026-54 18-8.822 2.95-17.652 5.903-26.471 8.83-4.346 1.012-8.371 2.451-8.57 8.208-90.761 544.76-181.624 1089.514-272.367 1634.27-35.423 208.458-69 418.87-104.891 626.797m948-359.25c.69 2.08 4.023 1.605 5.618 1.75H1299v-2c-4.277-1.55-8.702-.903-13 0zm41-1c.43 1.802 3.1 1.735 4.43 1.75h6.57v-2c-3.623-1.37-7.356-.81-11 0zM1396 1201h2v-20h-2c-.38 6.144-1.65 12.777 0 20m0 122h2v-8c-2.622.087-3.204 2.202-2.678 4.196.269 1.258.6 2.522.678 3.804m1-203h2v-12h-2c-.87 4.016-1.48 7.947 0 12m6 922h2v-11h-2c-.685 3.715-1.261 7.276 0 11m2 274v-7c-2.68-.017-3.238 2.077-2.678 4.196.208 1.296.812 2.945 2.678 2.804m4 85.25c.416 1.78 3.095 1.753 4.418 1.75H1419c-.286-2.617-3.196-3.209-5.132-2.798-1.633.196-3.24.61-4.868.798zm39 1c.43 1.802 3.1 1.735 4.43 1.75h6.57v-2c-3.59-1.002-7.504-1.552-11 0zm10-917.25c-.212-2.267-2.336-3.215-4.216-2.692-.924.208-1.855.524-2.784.692.144 1.933 1.987 2.01 3.263 2zm10 0c.116-2.173-2.21-2.785-3.793-2.8-1.323-.598-3.754 1.203-2.38 2.298 1.57.872 4.159.3 6.173.502m90 917.25c.69 2.08 4.023 1.605 5.618 1.75H1571v-2c-4.277-1.55-8.702-.903-13 0zm42-1c.43 1.802 3.1 1.735 4.43 1.75h6.57v-2c-3.624-1.319-7.383-1.14-11 0zM1666 1363h2v-166h-2c-.537 27.583-1.796 55.1-1 82.76.873 26.902-1.206 58.624 1 83.24m1-245h2v-11h-2c-.993 4.11-.909 7.16 0 11m10 1041.5c.554-.481 1.357-.494 2-.5v-16h-2c-.497 5.077-1.693 10.53 0 16.5m15 243.5v-2c-3.25-.942-6.827-1.56-10 0 .184 1.778 2.422 2.07 3.877 2zm28-.75c.43 1.802 3.1 1.735 4.43 1.75h6.57v-2c-3.59-1.002-7.504-1.552-11 0z" style="fill:#767676;fill-rule:evenodd;stroke:none"/><path d="M1599 1402h2c-.037 13.674-1.043 27.344-1.225 41.015-.219 10.185-.556 20.387-.736 30.57-.964 8.208 5.04 12.746 12.174 10.734 20.773-4.134 41.7-7.469 62.77-9.686 14.627-2.188 29.405-2.964 44.13-3.978 5.302-.517 12.177-.304 15.38-4.042 3.176-3.33 2.783-10.594 1.012-13.47-4.562-7.007-16.263-4.432-23-5.56-11.184-.702-25.998-2.541-33.697-10.332-4.547-4.482-5.9-10.913-6.767-16.968-.885-6.254-1.67-12.565-2.13-18.86-.399-11.05-.861-22.108-.928-33.16.086-5.32-1.635-10.478-1.912-15.756-.154-5.598-.012-11.162-.071-16.757v-92.155c-.524-22.502 1.994-44.928 2-67.404-.133-33.926.959-67.246 1.721-100.8-.723-7.392 2.451-18.226-3.119-22.716-5.14-3.287-12.576-.267-17.787.872-16.873 4.446-33.992 8.095-51.134 11.323-17.273 3.257-34.56 6.702-52.008 8.932-6.847.539-15.993 3.124-15.632 13.245-.136 3.496.068 7.571 3 9.948 5.612 3.571 14.673.43 20.826 1.129 11.67-.586 25.184-3.356 34.744 9.432 6.715 8.414 8.967 19.022 9.761 29.477 4.204 42.443 1.907 85.251 2.628 127.805.221 21.352.034 42.722-.803 64.056.578 19.89-5.61 39.257-17.544 55.133-4.317 6.266-9.918 13.305-14.631 18.445-17.466 19.226-40.887 32.932-66.864 36.28-24.104 3.183-50.671-1.076-69.485-17.705-17.152-14.877-28.192-35.836-30.464-58.507-3.626-22.856-3.54-45.316-4.209-67.81-.652-44.58.354-88.65 1-132.903.158-9.814-.23-19.625.217-29.419.097-4.45 1.022-8.997.122-13.415-1.708-4.798-.32-8.51.557-12.901.584-9.256.36-18.514.749-27.765.094-4.524.2-9.032.288-13.55-.011-3.42.679-8.376-2.228-11.177-5.851-5.141-15.885-.45-22.2.514-30.092 7.426-60.615 13.017-91.122 18.335-6.417 1.358-14.549 1.405-19.906 4.49-6.128 3.464-6.364 10.606-4.703 16.785 1.75 7.141 11.857 4.664 16.556 4.706 10.584-.063 24.22-4.177 35.484 3.738 17.8 14.147 16.36 43.99 17.32 63.823 1.693 43.23-.093 86.53.242 129.778.903 31.856-2.695 64.294 3.068 95.848 4.607 21.19 14.124 41.896 29.962 57.177 23.28 22.606 54.875 35 87.196 35.605 2.058.364 3.991-.824 6.005-.814 3.2 2.58 7.119-.249 10.195.388 26.706 1.082 53.68-8.17 76.515-21.54 23.282-14.977 43.84-35.817 56.683-60.433m-194.5 666-.5-1.625c-.641-25.232 2.426-50.35 1.516-75.889-2.447-6.713-9.732-5.807-15.053-3.51-16.192 6.09-32.305 12.375-48.779 17.652-13.57 4.683-27.524 8.223-41.352 12.043-10.101 3.717-23.493 4.126-32.141 9.088-6.247 4.254-6.57 14.373-.924 19.52 2.219 2.16 6.629 1.373 8.984 1.52 11.14.262 24.303-1.33 34.484-.38 10.147 2.507 17.053 11.216 20.598 20.515 6.85 20.712 6.116 46.825 6.667 66.498v114.991c-.563 28.256 1.171 56.708-1.824 84.86-.633 9.95-1.172 19.96-4.76 29.4-2.98 7.97-10.867 12.536-18.537 14.85-6.874 2.512-14.032 3.926-21.254 4.981-5.274.977-13.65-.666-16.038 7.306-1.4 5.081-.246 13.303 5.581 13.804 4.969.977 9.953-2.434 14.921-.89 4.319 1.383 8.788.542 13.21.312 32.426.065 64.726-2.666 97.485-.563 3.7.18 7.799-2.079 11.902.034 8.048.689 18.463.244 27.241 1.074 3.527-.464 7.192-2.372 11.198-.561 3.512 1.122 8.324 1.486 10.845-1.016 4.762-4.392 2.931-16.511-4.224-18.285-13.09-2.437-29.424-1.842-40.869-6.975-4.6-2.173-10.476-6.486-13.01-11.647-5.533-22.98-4.335-46.216-5.867-69.042V2184.71c-.613-34.112-1.988-71.309 18.167-100.992 4.668-6.34 9.48-12.644 14.935-18.32 18.474-20.11 43.276-35.357 71.12-37.38 26.274-3.437 54.327 3.736 73.645 22.355 17.14 17.617 27.096 41.443 27.658 66.038 1.355 51.593-.246 103.262.475 154.866.129 22.036-.715 44.08-2.073 66.056-1.146 9.295-2.03 20.886-6.126 28.638-5.241 8.195-14.59 11.927-23.599 14.092-4.611 1.099-9.309 1.854-13.977 2.643-4.589.493-9.57-.261-13.741 2.227-7.339 3.831-5.762 20.233 5.004 18.943 4.17-.272 8.327-2.452 12.561-1.158 4.129 1.362 8.404.646 12.648.347 4.603-.128 9.212-.023 13.802-.07 16.637-1.236 33.176-.773 50.2-.995 8.392.015 16.785-.019 25.168.01 13.794.48 28.526.025 45.138 1.386 3.685.899 6.282-.304 9.68-1.042 5.533.151 14.07 4.957 17.504-3.475 1.683-5.256 1.218-13.025-6.229-15.017-12.25-2.417-25.536-2.736-37.163-8.144-4.951-2.234-10.474-4.791-13.217-9.788-5.145-10.523-4.731-22.665-6.085-33.967-2.717-46.903-.771-93.983-1.495-140.932-.591-33.483 3.274-72.856-.459-103.783-5.668-45.534-39.783-86.498-84.346-98.699-45.828-13.889-98.744-6.08-137.283 22.749-21.46 14.565-37.43 35.412-51.412 56.702m-79.5 930.5c.03.55.186 1.058.5 1.5h60.6c4.962.044 11.187 1.072 14.452-4.13 10.486-15.412 23.476-29.256 39.583-38.841 25.307-14.29 56.844-18.01 84.54-8.638 25.948 8.965 49.172 28.296 63.325 51.609h85c.142-70.894-.297-141.762.465-212.639.229-26.298.48-52.573 1.16-78.86.512-11.703.292-23.387.473-35.076-.222-8.94 1.561-18.536.446-29.518-5.438-8.856-18.188-.008-24.667 1.29-32.616 11.464-65.396 22.473-99.436 28.819-5.986 1.22-12.861 1.82-17.307 6.589-3.836 3.95-4.543 12.11-2.496 16.096 1.676 5.742 11.425 2.857 15.301 3.145 10.93.374 24.45-2.26 34.104 1.267 19.505 7.495 20.147 30.049 21.8 45.697 2.304 61.396.395 122.873 1.157 184.284-.662 9.547.828 19.466-.5 28.906-15.22-15.28-33.437-27.82-53.636-35.536-63.629-22.883-139.502-8.449-190.457 35.668-12.674 11.445-24.682 24.488-34.407 38.368" style="fill:#666;fill-rule:evenodd;stroke:none"/></svg>