<svg xmlns="http://www.w3.org/2000/svg" width="3000" height="3000"><path d="M406 2716h2188c-.452-13.213-4.171-26.125-5.71-39.208C2468.846 1960.196 2349.431 1243.585 2230 527c-109.325-35.987-218.457-72.878-327.734-109.071-95.467-31.86-190.966-63.65-286.44-95.486-21.006-7.01-42.008-13.98-63-21l-30.529-10.183c-9.47-3.025-21.252-8.92-30.35-5.086-156.884 52.344-313.79 104.58-470.681 156.897-58.813 19.64-117.642 39.186-176.447 58.829-13.016 4.296-26.007 8.68-39 13-6.335 2.066-12.631 4.23-18.954 6.3-3.19 1.104-6.385 2.128-9.576 3.212-7.976 1.527-8.94 7.943-9.29 14.656-63.894 383.21-127.754 766.408-191.617 1149.624-28.466 171.167-57.103 342.324-85.568 513.49-14.29 85.674-28.582 171.345-42.844 257.017-7.145 42.829-14.299 85.67-21.418 128.502-3.57 21.335-7.128 42.665-10.66 64.002-1.808 10.66-3.57 21.336-5.34 31.998-1.36 10.463-4.53 22.595-4.552 32.299m826-1503c5.302-.046 8.998 4.527 13.783 6.391 7.545 3.814 15.692 6.71 24.17 7.415 8.213 1.243 17.622-1.501 25.047-1.806-1.982 16.942-6.593 33.545-7.923 50.606-1.425 15.932-3.69 32.3.687 48 3.423 13.218 10.093 25.385 18.013 36.439 4.02 5.193 8.338 10.158 12.354 15.345 3.932 4.631 10.631 8.78 9.11 15.313-14.032 49.345-32.064 97.674-43.795 147.658-5.855 33.178-11.57 81.354 23.592 106.657 23.727 17.412 55.871 17.293 83.59 12.702 20.813-3.03 41.203-13.43 52.873-31.549 17.913-25.907 22.76-57.64 30.692-87.348 7.76-30.213 16.533-60.17 27.95-89.21 6.16-16.246 12.691-32.396 20.537-47.908 2.142-3.545 4.318-7.928 6.345-11.14 1.499-3.092 5.864-1.99 8.655-1.693 10.426.89 20.95.57 31.32 2.128-.044 34.209.054 68.43-.03 102.627-1.148 23.87-6.33 47.372-6.812 71.312-.26 8.734 1.409 18.387 8.618 24.19 12.722 9.953 29.874 8.978 44.99 8.84 11.19-.647 24.867-3.325 33.538-9.081 15.463-11.967 14.478-29.62 14.814-47.02.413-17.588 1.036-35.172 3.482-52.61 2.74-31.056 12.776-60.596 21.4-90.258 3.61.19 5.203 4.637 6.67 7.328 12.207 24.276 22.14 49.623 30.724 75.37 7.183 22.899 10.514 46.96 19.167 69.462 5.954 18.252 16.23 39.56 30.359 50.7 6.978 5.205 15.367 8.556 24.017 9.731 33.134 1.509 68.882-21.329 87.147-44.2 7.575-8.98 15.422-20.583 18.623-31.056 7.243-21.964 1.134-44.854-5.79-65.913-5.399-15.563-12.45-30.388-18.984-45.456-9.51-22.375-18.044-50.055-20.232-72.3-2.376-25.382 3.132-55.404 8.132-77.956 1.941-7.848 3.969-15.669 6.536-23.333 1.298-3.807 2.475-7.645 4.02-11.35 1.723-3.266 2.11-9.01 5.611-10.027 6.248 6.583 11.154 14.588 18.102 20.602 5.802 6.297 13.132 10.85 19.369 16.609 4.375 5.346 2.49 15.895 6.942 22.9 5.444 13.552 17.51 26.2 27.698 34.479 19.694 16.68 43.917 28.68 69.576 32.437 10.466.854 21.366 1.938 31.543-1.5 11.054-4.113-.211-15.108-4.424-19.28-9.868-10.634-19.646-21.48-26.02-34.713-10.03-18.89-22.431-39.231-43.888-46.645-5.5-1.487-12.09-2.908-17.263-3.518-4.518-.64-9.952-.041-14.055-.836-5.733-2.302-9.103-8.186-13.182-11.637-4.506-4.176-8.53-8.802-12.335-13.595-6.217-8.205-12.785-16.18-18.829-24.51-3.593-5.542-7.541-10.896-10.764-16.655-2.34-48.47-11.753-97.326-33.893-140.979C1831.809 976.791 1774.209 924.053 1707 895c1.136-29.926-9.307-58.61-21.058-85.648-16.32-38.905-39.896-75.055-70.408-104.28-15.745-14.32-34.786-25.789-56.203-28.799-23.542-2.207-47.316.22-70.924.174-28.9 1.146-58.306 3.766-85.753 13.544-22.657 8.286-41.603 23.534-58.04 40.842-3.775 4.213-10.942 3.07-15.98 3.167-22.853.426-45.815-.117-68.617 1.528-4.725.673-4.819-8.128-6.707-10.66-5.864-15.39-18.973-30.576-32.379-37.593-28.642-15.142-62.984-10.076-93.616-6.469-11.49 2.037-23.204 3.098-34.488 6.14-18.208 5.977-35.941 20.84-48.197 32.924-9.645 9.864-19.97 22.692-25.609 34.066-6.976 11.707-6.637 22.435-6.016 34.597.788 35.755 6.22 71.194 7.77 106.888 3.323 55.742-25.816 108.754-21.775 164.579-9.263.147-18.366-3.62-27.676-2.401-13.59.666-25.896 9.046-30.965 21.673-6.547 11.995-4.1 26.226.201 38.365 11.236 27.398 34.602 46.873 57.806 63.893 12.735 9.581 26.432 17.716 39.927 26.101 7.6 3.206 2.964 15.553 2.507 21.39-5.108 31.669-16.865 61.912-22.055 93.57-4.943 27.205-5.724 55.8 2.048 82.588 10.612 43.74 44.21 82.836 87.915 95.882 32.692 11.14 76.4 2.945 101.266-16.037 43.45-31.82 56.33-97.973 28.558-144.193-6.487-10.176-16.617-21.22-27.354-24.87-9.535-3.385-20.028-2.359-29.049 1.781-4.443 2.141-17.458 6.587-16.757-3.956 3.756-20.417 21.1-39.1 31.953-53.692 11.36-15.654 25.409-30.102 34.675-47.094m-188-39c-.232-13.235-1.204-26.45-1.377-39.683-1.349-9.218 1.163-21.375-2.874-28.362-11.45-6.535-25.242-8.03-37.484-12.61-6.991-1.86-13.995-3.816-21.254-4.196-3.164.031-8.208-.667-10.35 1.212-2.45 1.7-4.193 4.196-4.458 7.072-3.267 19.844 16.341 36.734 30.01 47.33 6.979 5.438 15.46 11.482 22.403 15.678 8.478 4.36 17.4 11.89 25.384 13.559m296-4c4.524-.393 8.998-5.165 12.888-8.407 10.589-10.67 17.843-24.326 23.44-38.132 6.381-16.858 10.2-34.519 11.446-52.512.687-28.897-.16-57.8.226-86.763v-44.34c.104-3.197-.309-8.565 3.525-8.49 10.439-.981 21.017.15 31.475-.356.379 58.925 3.18 119.248 21.691 175.687 5.009 12.055 12.334 27.774 23.807 33.39 11.417 4.739 21.54-.563 27.71-9.2 8.494-12.26 15.49-28.886 25.187-38.772 10.86-11.637 27.397-14.617 40.788-22.238 13.139-6.6 23.11-17.669 30.016-30.409 5.597-9.891 9.038-20.725 11.629-31.706 3.14-17.03 16.588-28.395 28.542-39.622 11.82-10.88 22.571-22.963 29.663-37.527 8.383-16.108 9.853-34.347 8.924-52.136-2.382-24.232-14.72-50.806-23.669-70.86-10.778-22.022-23.761-43.147-40.172-61.467-9.829-11.588-21.705-21.745-35.449-28.307-11.185-6.063-24.169-7.071-36.586-6.83-19.42.428-38.871.601-58.255 1.625-18.332.9-36.92 2.194-54.538 7.784-12.654 4.084-26.815 11.454-35.9 19.683-7.964 7.14-15.947 14.345-23.006 22.42-2.333 3.012-5.46 6.754-9.087 7.225-30.792.86-61.741-.721-92.502 1.664-43.496 2.803-88.2 15.28-121.584 44.736-16.291 13.135-30.127 34.385-37.08 52.02-4.457 10.423-7.425 21.393-8.91 32.64-.737 5.942-1.123 11.926-1.216 17.906.419 5.628-2.952 10.24-6.577 14.263-8.896 11.49-14.153 25.924-14.404 40.43-.661 55.6 4.466 111.033 6.608 166.525 1.118 27.917 2.683 56.142-1.361 83.879-4.177 25.232-11.639 49.834-17.399 74.723-4.808 20.494-9.112 41.434-8.87 62.588-.217 18.802 3.12 41.41 11.044 56.971 7.086 15.505 17.968 29.2 32.49 38.328 13.496 9.786 30.64 13.76 47.052 13.587 15.678.328 31.977-2.609 45.262-11.407 11.599-7.618 20.797-18.978 25.474-32.14 4.702-13.76 5.468-28.634 4.22-43.01-1.217-12.091-5.741-27.593-15.607-32.762-13.99-6.12-21.204 5.185-27.291 15.292-3.119 4.412-6.664 9.865-10.522 13.04-8.68 6.326-21.36 5.84-29.75-.554-8.106-6.31-12.031-16.668-12.31-26.655-2.605-37.958 21.01-71.799 43.736-99.836 8.76-10.722 17.202-21.676 25.955-32.397 7.574-9.693 15.077-19.428 22.115-29.517 3.536-4.742.187-11.699-.714-16.745-4.013-20.63 4.747-41.366 17.166-57.382 15.762-20.376 48.307-46.207 78.228-28.26 12.673 6.97 21.206 22.702 25.43 34.662 6.93 14.984 7.64 31.52 7.022 47.671m-96 526c-10.347 21.367-22.677 47.297-26.018 69.147-2.803 18.912 3.415 38.287 12.915 54.432 12.897 23.548 32.965 41.931 54.147 57.838 10.509 7.037 24.124 14.96 35.91 16.392 13.82 1.072 27.808-1.717 40.233-7.909 18.53-8.876 33.902-22.805 50.215-34.998 16.215-12.46 31.996-25.554 49.05-36.87 16.728-11.127 33.476-22.824 52.615-29.544 4.911-1.75 9.955-3.48 15.246-3.393 6.01-.644 9.49 3.615 8.067 8.99-2.214 9.406-9.317 16.871-14.276 24.854-45.46 64.599-102.803 119.19-158.843 174.285-27.501 24.743-54.47 50.091-83.475 73.148-27.434 21.275-54.933 43.505-86.571 58.334-15.863 7.168-32.393 12.657-48.918 18.034-15.926 5.645-35.264 11.762-48.22 20.572-14.32 9.776-19.36 27.967-18.817 44.339 2.686 32.009 26.95 66.043 52.614 79.792 15.181 8.574 34.217 6.51 49.224-1.105 13.128-7.507 26.264-19.73 36.286-29.183 45.412-41.193 100.436-70.529 156.738-93.794 13.953-5.962 28.478-10.304 43.021-14.517 3.75-1.11 7.658-.865 11.45-.41 3.66.985 1.609 7.299.31 9.126-4.066 5.997-9.974 10.46-14.77 15.813-18.069 20.932-37.807 41.058-51.038 65.651-28.629 49.264-36.05 110.902-16.472 165.011 17.729 48.046 57.79 85.146 103.21 106.892 22.608 12.164 47.514 19.18 72.765 23.084 24.762 4.696 49.816 7.779 75.01 8.473 24.467.884 49.532 1.654 73.428-4.763 10.582-3.138 21.85-6.02 30.395-13.478 17.263-14.108 20.119-39.571 16.624-59.993-5.19-20.005-18.217-37.232-34.562-49.515-17.05-13.415-39.175-14.613-59.897-15.26-21.753-.65-43.589 2.228-65.337-.542-38.646-3.32-77.978-12.376-111.161-33.226-14.84-9.299-26.878-22.664-32.558-39.44-5.614-16.97-5.204-38.53-3.776-54.658 3.017-34.006 19.881-65.757 44.838-88.711 22.566-20.773 49.87-36.41 79.123-45.645 60.51-17.407 124.36-21.696 187.047-19.565 28.68.235 57.49 2.543 86.15.65 20.314-1.437 48.5-14.174 50.216-42.228 2.59-26.492-14.23-43.496-34.072-54.53-18.6-10.702-38.982-17.85-60.067-21.874-41.204-9.472-83.865-2.94-123.158 10.854-32.828 12.022-66.33 22.005-99.538 32.835-58.86 19.848-118.235 37.999-177.989 54.955-10.553 2.232-24.92 7.908-34.038 7.207-5.975-3.606 3.204-9.965 5.097-12.424 30.34-26.884 63.082-50.919 95.335-75.399 47.765-35.477 96.2-70.03 146.242-102.195 25.317-15.798 50.096-32.737 76.922-45.977 13.645-7.518 29.307-11.311 42.142-20.368 12.727-8.48 19.208-24.985 14.322-39.843-6.804-22.31-22.805-40.31-38.938-56.453-13.69-14.392-29.876-25.895-46.463-36.592-15.282-9.397-31.601-17.764-49.592-20.113-8.067-.685-16.622-.584-23.82 3.572-12.75 6.812-22.936 17.747-36.263 23.605-23.96 11.077-50.165 16.561-75.145 24.743-38.377 10.661-77.47 19.885-117.245 23.385-9.85 1.228-20.235-.78-27.77-7.439-10.159-8.516-17.968-22.515-23.995-32.813-3.21-6.218-6.85-12.2-9.77-18.569-2.765-6.102-4.962-14.025-14.335-12.677m-.889-533.487c.307 8.952 3.153 18.005 9.417 24.436 6.325 7.215 16.104 9.683 25.26 9.022 18.177-.22 31.772-17.71 30.208-35.095.057-9.31-1.273-18.662-4.078-27.55-2.329-7.001-5.134-16.634-14.24-20.175-11.826-4.364-25.972 8.965-31.813 16.046-8.31 9.122-14.899 20.41-14.754 33.316m15.953-154.74c-.238 16.455 16.936 32.107 31.622 30.097 15.419-1.384 27.605-16.515 26.518-31.59-.849-15.202-16.173-28.592-31.45-27.096-13.62 1.424-26.712 15.86-26.69 28.589M1508 1348c21.698 2.503 43.206 7.051 65.187 6.813 22.171.386 44.337.104 66.499.026 20.492.336 41.037-1.244 61.46-1.38 6.66 5.04 10.509 13.06 15.535 19.58 16.862 28.24 30.388 58.549 41.054 89.65 9.45 28.508 13.697 58.535 23.482 86.977 4.344 11.838 11.49 26.963 24.655 26.272 11.884-.541 24.568-7.814 33.454-13.534 16.892-11.755 37.933-29.767 33.093-55.11-2.25-19.684-10.085-38.093-18.611-55.739-13.244-31.683-26.794-64.368-29.003-99.119-1.665-53.483 12.871-106.977 34.178-155.569 3.431-6.104 3.075-13.01 2.237-19.715-.463-46.274-12.638-92.213-35.206-132.602-19.421-35.214-48.124-64.19-80.513-87.514-12.008-7.638-23.88-15.466-36.538-22.034-2.347-1.066-6.906-3.78-8.378-1.124-5.833 11.064-10.593 23.002-18.723 32.707-7.63 8.445-15.43 16.74-23.095 25.148-6.894 6.768-13.838 13.694-18.596 22.192-4.665 7.384-6.549 15.89-9.04 24.12-4.572 14.02-12.443 26.754-21.841 38.002-14.774 16.531-34.865 26.63-54.452 36.032-20.527 9.532-29.132 31.891-42.489 48.433-12.982 17.772-39.284 21.718-58.56 12.024-9.849-3.822-19.11-12.567-24.762-20.176-2.95-4.217-5.978-9.483-8.17-13.654-2.977-4.043-4.095-11.903-8.857-12.706-10.467 34.442-34.804 67.976-70 80 1.257 7.96 8.014 15.514 10.611 22.218 6.979 14.145 14.996 27.721 22.338 41.664 3.527 6.57 7.233 13.062 10.452 19.795 3.459 6.029 8.458 11.994 4.429 20.353-17.206 55.55-34.605 111.004-51.832 166.543-6.195 21.057-13.62 41.745-18.413 63.192-4.23 18.696-6.968 38.291-2.664 57.317 4.488 18.317 19.846 27.374 36.66 26.9 14.868.097 30.15.618 44.552-3.902 11.97-3.34 20.044-14.298 24.162-25.374 7.922-20.74 11.098-42.976 17.093-64.261 15.434-63.35 42.094-123.278 68.612-182.445m228 491c-.966 4.125-6.84 7.512-2.635 11.706 9.889 9.982 19.998 19.783 28.314 31.17 10.814 12.209 17.86 26.86 24.52 41.529 7.04 13.92 13.899 27.932 20.97 41.833 5.827 10.713 13.17 21.758 24.75 27.083 21.374 10.304 49.188-4.772 53.36-27.855 9.307-37.873-22.15-67.446-47.385-84.725-29.067-17.403-60.805-29.815-93.47-38.633-2.823-.658-5.54-1.82-8.424-2.108m70-60.625c25.401 20.811 48.19 44.905 65.574 72.96 13.718 19.516 22.983 42.84 41.41 58.833 7.206 5.698 17.982 10.072 26.497 9.7 15.938-1.38 31.201-12.53 36.002-27.988 3.054-12.235 1.931-28.194-2.872-38.655-7.738-16.36-21.405-29.173-36.013-39.344-15.148-9.496-31.073-18.038-48.268-23.267-23.902-7.976-48.323-14.495-73.088-19.202A26 26 0 0 0 1811 1771c-.534 2.596-3.317 4.863-5 7.375" style="fill:#dcf;fill-rule:evenodd;stroke:none"/><path d="M291 2812.5c402.66 1.426 806.125-.26 1208.95.5 402.946-.76 806.184.926 1209.05-.5-66.691-393.12-131.048-787.321-197.186-1180.681C2447.104 1239.148 2380.056 846.747 2316 454c-136.143-44.935-272.089-90.768-408.181-135.9-102.008-33.974-204.008-68.03-306-102-19.182-6.399-38.38-12.77-57.553-19.171-8.997-3.033-18.01-5.99-27-9-7.928-3.04-16.863-7.25-26.38-2.738-134.51 44.908-269.079 89.643-403.589 134.55C952.797 364.27 818.541 409.675 684 454c-64.117 393.376-131.371 786.397-196.109 1179.703C421.811 2026.161 357.548 2420.573 291 2812.5m116-97.5h2186c-120.11-729.14-243.257-1457.94-364-2187-109.157-35.927-218.092-72.748-327.181-108.9-95.331-31.722-190.626-63.585-285.954-95.3q-31.498-10.534-63-21l-30.566-10.195c-9.852-3-21.422-9.034-30-5.21-156.482 52.2-313.005 104.314-469.48 156.505-58.858 19.6-117.69 39.211-176.522 58.84-12.832 4.262-25.65 8.528-38.47 12.817-6.336 2.128-12.684 4.227-19.008 6.343-5.33 2.846-14.097 3.151-17.405 7.24-66.013 385.799-128.474 772.546-193.688 1158.548C521.372 2030.17 462.67 2372.459 407 2715" style="fill:#76747b;fill-rule:evenodd;stroke:none"/><path d="M1233 1214c4.127.836 8.174 5.679 13.173 7.06 7.464 3.66 15.524 6.35 23.878 6.824 8.137 1.162 15.989-.94 23.949-1.884-2.835 15.786-5.962 31.56-7.823 47.51-1.262 15.016-3.543 32.92-.454 46.613 2.47 13.339 8.695 25.543 16.166 36.722 6.3 11.11 16.785 19.273 23.891 29.586 1.332 2.555-.577 6.268-1.376 9.326-7.14 24.002-14.893 47.792-22.128 71.758-12.512 41.189-27.967 83.627-23.48 127.547 1.508 15.53 7.46 30.433 17.55 42.376 8.883 10.008 21.104 16.629 33.776 20.334 23.884 5.927 53.484 3.378 75.05-2.1 16.697-5.176 31.592-16.192 41-30.948 14.79-22.72 20.351-49.478 26.51-75.4 6.763-25.561 13.722-51.115 22.132-76.182 7.521-19.747 14.073-39.908 23.449-58.895a138 138 0 0 1 6.67-13.897c1.969-3.355 3.79-6.786 5.923-10.02 1.864-1.921 6.203.451 9.02-.17 9.403.38 18.805.557 28.124 1.84-.175 34.435.214 68.851-.115 103.277-1.52 23.785-6.61 47.276-6.759 71.18-.134 8.76 1.601 18.34 9.03 23.997 13.143 9.79 30.425 8.62 45.815 8.528 10.808-.48 23.821-3.048 32.544-7.885 16.42-10.908 16.464-29.02 16.553-46.483.353-17.62 1.043-35.274 3.32-52.766 3.446-31.387 11.97-62.135 22.112-91.848 21.1 37.695 34.659 79.448 45 121.196 4.087 15.608 8.349 31.263 14.958 46.021 5.14 12.488 11.986 24.56 22.058 33.68 20.695 17.947 46.225 12.679 69.112 3.202 15.602-7.341 32.142-19.643 42.848-31.276 8.79-9.937 16.944-20.579 21.45-33.252 7.244-20.236 3.665-42.446-2.683-62.327-5.457-19.791-15.013-38.072-22.892-56.91-9.9-27.071-20.874-55.594-18.867-85.04 1.224-29.357 6.54-58.615 16.07-86.438 2.506-5.434 4.307-13.676 6.946-17.856 9.91 14.666 23.199 26.362 36.97 37.21 4.315 5.02 2.422 15.062 6.474 21.786 11.072 26.135 39.593 46.538 62.224 57.25 20.3 8.938 43.129 15.004 65.49 10.291 3.702-.802 8.245-2.013 8.822-7.206-.388-7.455-8.765-13.072-12.617-18.532-18.437-17.233-28.761-46.013-44.338-62.774-8.82-10.363-21.31-15.847-34.502-17.939-6.802-2.221-15.996.198-21.286-2.376-5.188-3.575-8.925-8.617-13.607-13.08-9.258-8.94-16.246-19.844-24.398-29.704-4.051-5.225-7.622-10.78-11.306-16.261-5.765-7.39-4.342-20.34-5.762-30.905-.507-10.617-2.412-21.006-4.277-31.428-8.936-51.193-30.318-100.16-62.929-140.698C1797.341 946.55 1755.033 914.542 1708 894c1.136-29.926-9.307-58.61-21.058-85.648-16.32-38.905-39.896-75.055-70.408-104.28-15.745-14.32-34.786-25.789-56.203-28.799-23.578-2.207-47.396.123-71.04.1-28.588 1.261-57.734 3.385-85.022 12.707-22.823 7.755-42.375 22.47-58.744 39.895-4.052 5.219-9.103 5.594-14.912 5.025-23.068.289-46.174-.04-69.209 1.296-4.75 1.21-5.319-7.162-6.912-9.992-5.853-15.35-18.77-30.677-32.137-37.753-13.198-8.13-31.833-10.523-45.695-10.55a407 407 0 0 0-84.278 9.779c-18.277 5.781-36.086 20.654-48.357 32.695-9.8 9.956-20.28 22.96-26.004 34.46-6.99 11.725-6.625 22.445-6.02 34.625.387 35.83 6.144 71.329 7.685 107.077C1023.292 950.28 993.727 1003.281 998 1059c-8.957-.384-17.786-3.709-26.846-2.508-12.694.717-25.138 7.6-30.589 19.39-6.613 11.68-6.48 26.047-2.32 38.489 8.967 28.171 32.588 48.354 55.387 65.36 12.74 9.664 26.229 18.198 39.826 26.542 2.337 2.047 8.23 3.75 8.072 6.899-.278 14.948-5.354 32.104-8.626 45.278-7.487 29.557-16.458 58.999-18.342 89.616-4.426 49.762 13.851 103.967 55.305 134.317 14.683 11.548 32.217 19.469 50.559 23 32.935 5.272 69.122-1.12 95.197-22.867 39.266-32.95 50.16-95.098 25.516-140.056-6.02-9.633-14.785-20.938-24.432-25.587-8.343-4.055-20.054-4.905-28.267-2.819-6.566 1.495-13.723 6.592-19.403 4.876-4.53-3.112-1.676-9.626.048-13.657 5.64-13.75 14.6-25.681 23.693-37.28 13.21-17.95 29.328-34.536 40.222-53.993m-190.5-41c.804-16.404-1.807-33.298-1.213-49.813-.07-7.535 1.34-17.013-8.778-19.371-7.347-2.485-14.814-4.668-22.21-6.99-6.892-1.8-13.71-3.905-20.682-5.4-5.558-.816-14.601-2.768-18.596.398-8.39 6.568-2.52 22.151 1.892 27.922 17.724 23.881 44.856 38.198 69.587 53.254m299-4c18.435-12.859 29.645-33.539 36.634-54.446 11.674-34.865 9.042-71.91 8.866-107.993v-56.922c.082-4.785-.11-9.584.08-14.364-.132-7.353 11.676-4.902 16.305-5.275H1424c.313 58.771 3.254 118.835 21.483 175.166 4.887 12.116 12.174 27.35 23.163 33.533 22.962 10.52 34.642-23.465 42.96-36.191 4.979-8.753 13.865-17.31 22.123-21.379 9.703-4.232 19.754-7.658 28.925-13.05 12.697-6.894 22.43-17.762 29.009-30.468 5.562-9.983 8.83-20.925 11.446-31.951 3.4-16.682 17.052-27.653 28.624-38.893 11.807-10.874 22.502-23.001 29.506-37.59 8.096-16 9.774-34.07 8.62-51.695-3.662-24.423-13.826-47.575-24.029-69.823-10.678-21.902-23.813-42.706-40.03-60.943-9.851-11.345-21.493-21.441-35.133-27.883-11.006-5.923-23.758-7.07-35.98-6.823-19.351.456-38.717.613-58.041 1.686-18.105.9-36.46 2.305-53.84 7.878-12.63 4.114-26.75 11.64-35.805 19.867-7.858 7.002-15.644 14.17-22.619 22.074-2.333 3.012-5.46 6.754-9.087 7.225-30.451.737-60.994-.558-91.415 1.541-43.314 2.882-87.947 14.678-121.492 43.814-16.21 13.148-30.606 33.938-37.668 51.6-4.446 10.402-7.783 21.26-9.263 32.507-2.154 11.01.715 23.666-7.07 32.58-9.238 10.727-14.856 27.055-15.32 39.86-.691 55.905 4.486 111.621 6.638 167.424.91 28.02 2.77 56.34-1.362 84.178-4.124 25.449-11.684 50.206-17.473 75.282-4.815 20.51-9.113 41.46-8.87 62.633-1.441 37.814 15.105 77.518 49.024 96.83 28.927 14.87 68.005 14.169 93.326-7.888 21.175-20.112 26.175-53.422 18.448-80.712-2.894-9.93-11.76-26.187-26.22-18.016-8.413 5.295-12.615 19.003-21.27 26.665-8.53 7.056-21.672 7.037-30.907 1.768-8.731-5.439-13.386-15.865-14.2-25.767-4.356-39.105 19.22-73.839 42.425-102.555 16.424-22.284 36.947-43.355 50.88-66.998-2.33-11.035-5.163-22.217-2.477-33.575 2.646-18.723 14.435-34.591 26.72-48.131 9.63-9.148 22.956-18.325 34.88-21.525 9.935-2.712 24.836-1.262 32.43 2.387 13.767 6.956 22.817 20.304 28.11 34.44 3.1 7.692 5.814 15.552 6.876 23.825 1.972 8.558.086 17.543 1.455 26.093m-15.5 930c4.608-9.123 16.943-15.837 23.813-23.04 65.091-53.173 133.725-101.83 203.076-149.196 25.97-16.497 51.54-33.652 78.172-49.091 11.957-6.788 26.295-14.267 38.043-18.909 11.892-5.356 25.106-10.138 33.685-20.57 16.94-22.84.52-50.628-12.797-67.478-26.393-32.953-61.046-60.315-100.414-75.96-16.232-5.066-35.32-6.459-49.503 4.553-10.916 8.487-21.946 16.964-34.992 22.02-23.865 9.077-48.595 15.72-73.058 22.941-37.714 10.425-76.328 19.103-115.403 22.319-9.733.524-19.14-2.247-25.949-9.542-9.194-9.16-17.066-22.556-22.637-32.95-3.346-6.075-6.804-12.073-9.69-18.391-1.526-3.28-3.185-6.475-5.259-9.416-2.58-2.025-7.14-.856-10.087-1.29-10.459 21.53-22.792 47.676-26.114 69.705-2.66 19.198 2.85 38.994 12.75 55.406 12.877 23.767 33.086 42.297 54.408 58.306 10.66 7.11 24.456 15.183 36.442 16.437 14.144 1.033 28.521-1.256 41.248-7.75 16.188-7.664 30.152-19.13 44.087-30.177 27.958-21.882 55.81-44.17 86.796-61.698 7.877-4.237 15.97-8.15 24.532-10.786 4.172-1.35 8.592-2.724 13.043-2.08 11.103 2.436 1.444 15.748-1.246 20.195-38.28 56.82-86.145 106.21-134.421 154.417-46.297 44.326-93.085 88.564-144.73 126.796-23.273 17.747-48.059 34.01-76.053 43.326-26.203 11.455-61.243 17.273-82.303 34.078-21.426 21.107-18.274 56.666-3.453 80.275 6.48 11.871 14.794 22.607 24.768 31.744 10.431 9.519 23.642 16.749 38.022 16.768 29.606 1.01 47.516-19.362 67.53-37.559 37.769-33.765 82.233-59.623 128.139-80.595 22.36-10.47 45.372-19.346 69.197-25.83 4.376-1.99 15.256-1.798 10.573 6.078-5.965 8.073-16.46 16.886-23.949 26.181-30.153 32.651-56.67 71.161-65.456 115.657-8.348 44.187-4.503 92.883 18.777 132.252 19.375 35.03 51.459 61.612 86.734 79.525 35.467 19.613 75.848 26.318 115.528 31.168 36.91 2.567 81.64 6.831 114.888-2.906 15.908-3.466 31.812-11.521 39.083-26.957 6.87-14.701 8.094-34.806 4.866-49.172-7.637-28.451-35.647-57.294-63.37-60.587-31.504-5.975-63.716-.495-95.391-3.236-28.72-2.501-57.422-7.87-84.124-19.056-22.44-9.272-45.944-22.959-56.8-45.894-5.854-10.801-8.087-25.237-7.996-36.349-.802-24.551 2.755-49.612 14.44-71.564 19.507-38.908 57.087-66.473 96.727-82.178 37.592-13.613 77.596-19.48 117.257-22.679 18.295-.594 36.555-2.178 54.862-2.261 35.08.583 70.135 2.505 105.225 1.96 23.985-.852 57.655-9.473 59.878-44.479 2.01-27.906-15.748-45.779-37.367-56.513-18.585-10.652-39.637-16.843-60.558-20.887-37.821-7.904-77.28-3.199-113.63 8.847-52.258 17.989-104.796 35.213-157.493 51.84-26.813 8.829-53.91 16.847-80.946 24.942-13.589 4.122-27.27 7.994-40.922 11.877-6.676 2.047-13.434 3.647-20.162 5.467-3.435 1.11-6.97 1.747-10.479 2.539-3.237.778-7.83 2.01-9.837-.593m-81.808-936.561c.444 9.056 3.577 18.018 10.075 24.273 6.409 6.771 16.041 9.162 24.997 8.115 17.059-1.92 29.107-18.272 27.731-34.923.049-8.785-1.987-19.036-4.437-26.67-2.255-6.804-5.314-16.112-14.305-19.217-11.388-2.897-23.135 9.223-29.661 16.537-8.15 8.697-14.04 19.562-14.4 31.885m13.824-154.554c-.114 16.844 15.535 32.636 32.364 31.054 16.449-.544 29.06-16.686 28.061-32.419-.625-16.103-16.11-29.968-32.306-28.448-14.77.596-28.614 16.404-28.12 29.813M1508.5 1346c34.09 8.088 70.123 8.506 105.11 8 16.186.067 32.369-.244 48.548-.554 7.712-.157 15.408-.237 23.112-.417 6.587.13 15.13-2.734 19.65 1.542 15.263 18.34 27.74 43.937 36.75 63.71 8.608 20.516 17.41 41.176 22.855 62.808 4.772 19.45 9.078 39.025 14.842 58.22 4.595 14.923 11.444 37.784 29.371 35.33 14.433-2.371 28.815-12.387 39.108-20.317 9.354-8.7 20.302-18.089 23.28-31.2 3.463-23.272-7.706-45.504-16.208-66.16-13.863-30.725-26.209-62.841-30.602-96.461-3.07-35.098 3.181-70.553 11.916-104.426 3.492-14.896 9.26-29.087 14.505-43.406 2.324-5.867 4.91-11.596 7.484-17.34 3.214-5.81 2.623-12.305 1.866-18.639-.465-46.506-13.127-92.74-36.237-133.07-22.163-37.577-53.513-70.106-90.797-92.936-9.78-6.549-20.469-11.736-30.553-17.684-7.835 15.962-15.543 32.883-29.102 45.102-5.798 5.644-10.86 11.965-16.63 17.63-10.732 9.905-19.267 22.333-22.611 36.71-6.463 25.532-22.63 47.975-44.721 62.2-7.633 5.304-15.821 9.854-24.13 14.002-7.52 3.379-16.585 7.502-22.167 12.733-19.515 17.318-28.198 56.667-62.895 57.177-15.673 1.255-31.113-4.466-42.77-14.799-11.53-9.606-17.222-23.942-23.974-36.755-6.64 16.9-14.239 34.032-26.02 48.152-11.264 15.082-27.483 25.171-44.48 32.348 15.388 28.628 30.651 57.47 46.19 86.039 1.793 3.263 3.793 6.778 3.458 10.647-16.098 56.05-35.34 111.256-51.729 167.23-6.291 21.08-13.415 41.906-18.837 63.222-4.634 18.136-8 40.471-4.907 57.571 1.687 16.7 16.558 30.288 33.298 30.608 15.414.574 31.244.726 46.221-3.6 11.96-3.228 20.255-13.947 24.41-25.034 8.13-21.067 11.317-43.684 17.432-65.336 16.769-63.081 40.976-124.5 69.964-182.847m228 491c-2.484 2.868-4.796 7.11-7.004 10.722 1.903 4.282 6.025 6.619 8.98 10.253 13.817 13.963 26.777 29.07 36.817 46.025 7.117 13.597 12.94 27.876 20.382 41.334 9.683 17.802 17.557 44.657 42.583 50.496 22.767 5.901 46.447-11.94 48.907-34.62 2.614-17.85-2.458-36.528-13.809-50.73-15.465-20.833-38.062-35.791-61.497-46.162-11.852-6.04-24.379-10.383-36.774-15.078-12.484-5.053-26.168-7.246-38.585-12.24m75-68c-1.786 2.886-4.9 5.568-6 9.225.296 3.368 6.18 5.824 7.811 8.371 29.1 24.846 53.399 54.986 71.615 88.77 9.327 15.183 21.168 35.302 37.213 41.868 17.914 8.832 41.682.268 51.215-17.068 5.563-9.159 4.954-20.071 4.625-30.298-.582-17.336-11.857-32.21-23.775-43.688-38.965-35.478-93.586-45.33-142.704-57.18" style="fill:#666;fill-rule:evenodd;stroke:none"/><path d="M1387.5 1052q.732-60.508.5-121c12.01-.15 23.995-.34 36-.5l-18.629-.262c-5.781.268-13.846-.886-18.371.762-.155 40.34.012 80.677.5 121" style="fill:#a59db5;fill-rule:evenodd;stroke:none"/></svg>