<svg xmlns="http://www.w3.org/2000/svg" width="3000" height="3000"><path d="M363 2763h2274c-116.777-706.336-235.544-1412.426-352.792-2118.701-7.351-44.171-14.733-88.332-22.082-132.49-.76-5.347-1.88-10.63-2.64-15.97-.062-6.502-4.856-8.386-10.16-9.572-81.497-27.15-162.975-54.317-244.46-81.467-142.336-47.478-284.708-94.881-427.04-142.357-13.532-4.49-27.037-9.017-40.56-13.514-6.477-2.17-12.972-4.309-19.44-6.486-6.235-1.594-13.427-5.493-19.495-5.034-100.387 32.434-200.209 66.92-300.466 99.791-150.35 50.002-300.828 99.614-451.039 150.05-5.982 1.452-6.275 6.662-6.798 11.742-24.43 146.388-48.84 292.799-73.214 439.189C565.92 1546.494 463.462 2154.662 363 2763m653-1236.5c1.32 4.534 8.015 6.826 10.573 4.666 10.739-6.995 21.537-13.89 32.04-21.234 63.86-43.98 120.032-98.08 168.506-158.358 23.709-29.627 46.023-60.417 66.184-92.57 19.783-33.242 39.857-66.669 55.697-102.004h145v364h-294c.73 9.315 5.872 17.775 7 27h677.4c16.18-.107 32.351.132 48.519-.075 12.935-.432 30.527.37 38.081-14.425-46.618-40.074-97.177-75.565-145.5-113.5-22.225 27.65-44.395 55.36-66.668 82.975-2.838 3.502-5.66 7.019-8.457 10.54-2.186 2.787-4.962 6.994-9.022 7.331-31.44.44-62.914-.08-94.353.154v-364c78.217-.902 156.573 1.1 234.752-.594 8.512-.516 17.703-3.06 22.56-10.786 2.74-3.99-1.161-6.35-3.791-8.592-21.084-18.217-43.147-35.262-65.25-52.202-11.229-8.068-22.067-16.633-33.253-24.759-5.72-4.027-11.306-8.23-16.883-12.447-5.411-3.699-11.034-9.595-16.822-11.62-20.87 26.482-42.174 52.614-63.11 79.032-4.073 4.5-7.897 10.856-12.508 14.089-6.535 1.72-13.85.33-20.573.879H1363c31.152-74.672 59.807-151.16 79-230h477c11.384-.168 22.77.214 34.146-.139 9.302-.324 19.743-5.092 22.854-14.548-47.736-39.068-96.545-76.845-145.5-114.313-20.01 25.44-40.073 50.863-60.001 76.364-3.821 4.907-7.676 9.736-11.495 14.634-3.559 4.144-7.8 11.358-12.658 11.848-98.775.439-197.568-.08-296.346.154-.062-7.895 3.033-15.385 4.32-23.08 12.853-53.57 23.05-107.704 32.68-161.92 13.913-1.56 35.22-6.379 38-25-67.306-8.997-134.649-18.391-202-27-4.724 79.421-15.13 158.384-27 237h-261c2.027 8.445 5.732 18.111 7 26h249c-20.126 116.14-52.001 230.606-96.697 339.72-22.93 52.54-47.62 104.399-77.752 153.224-28.632 48.023-63.54 91.9-100.551 133.556m3 775.625c16.52 43.838 34.032 87.78 50 131.875 12.116-.352 21.39-10.257 27.116-19.893 2.744-3.862 7.929-4.12 12.072-5.673 30.58-7.955 60.192-19.905 90.812-27.434v49.2c-.614 11.9.782 26.028-.503 36.887-2.544 10.031-14.707 7.865-22.104 7.913-26.116.938-52.385-3.327-78.393-3v11c13.489.948 28.722 6.535 39.5 12.392 16.891 10.941 30.254 27.624 34.88 47.425 6.528 20.421 5.211 42.32 8.12 63.183 21.675-3.785 44.372-5.043 65.653-11.606 17.789-4.81 38.43-13.776 50.716-25.764 12.197-10.91 20.338-25.488 24.063-41.398 8.805-30.278 7.263-62.05 7.068-93.138v-86.767c.128-3.796-.808-9.074 3.8-10.65 53.332-18.46 106.41-37.821 159.2-57.677-.446-3.659-.98-7.317-1-11-54.12 1.917-107.879 10.434-162 12v-28c12.854-.84 30.877-7.635 33-24-3.683-.175-7.334-.7-11-1v-3c23.945-8.475 46.68-20.234 69.896-30.454 5.79-3.17 11.815-5.789 17.84-8.44 8.93-5.176 18.132-9.864 28.678-9.644 9.48-.742 19.74-2.764 26.586-9.962-20.936-17.878-41.322-36.4-62.031-54.522-7.819-6.796-15.53-13.69-23.21-20.63-3.423-2.949-7.166-5.645-9.732-9.418-2.286-4.465 7.257-4.979 9.332-6.182 7.838-2.334 15.663-4.769 23.322-7.625 3.162-1.306 6.445-2.44 9.293-4.36 4.888-4.003 2.172-13.626 3.026-20.257v-97.165c.687-3.775-1.4-10.772 2.728-12.112 11.281-4.437 27.543-8.868 32.272-19.229-29.165-19.774-56.974-42.69-85.974-62.975-5.488-3.96-10.757-8.208-16.267-12.116-4.557-2.776-10.273-10.077-15.51-4.622-17.492 16.604-32.204 35.814-49.648 52.433-4.024 3.216-9.58 2.027-14.399 2.28h-57.273c-6.741-.222-14.871.613-20.886-1.172-43.439-16.407-87.228-32.208-130.543-48.828-1.426 88.197.26 176.734-.5 265 25.958.608 52.166.051 77.187-7.636 10.974-3.605 20.891-9.566 30.749-15.4 4.264-2.983 11.17-7.952 11.802-12.619.436-6.107.25-12.272 1.262-18.345h111v37c11.228.124 22.44.101 33.643-.702 10.014.113 21.263-3.942 30.357-4.298-.458 6.443-7.429 11.416-11.233 15.733-8.853 8.353-17.091 17.258-25.243 26.242-4.1 3.25-7.846 9.233-12.155 10.553-89.642 2.105-179.767-1.17-269.369.972 2.674 4.652 3.124 10.343 5.4 15.197 1.82 3.428 1.95 10.731 6.135 10.945 35.633 1.02 71.38-.185 107.037.358H1331c-.392 5.529-5.576 11.516-8.25 17.311-5.896 9.783-11.426 19.815-17.81 29.302-2.53 3.555-4.699 7.359-7.401 10.79-3.015 3.31-7.888 2.557-12.062 2.47-28.82-2.409-57.687-4.23-86.477-6.873v76c-59.972 3.631-120.03 7.562-180 11zm12-510.625c2.491 8.104 5.443 17.866 7 25.5h423c18.337.154 42.523 4.222 50-14.5-33.303-30.546-68.96-58.582-104.5-86.5-11.735 14.248-22.18 29.542-33.685 43.975-5.647 7.422-11.173 14.905-16.824 22.31-2.796 3.02-4.832 8.264-10.134 8.613-4.95.247-9.907-.01-14.857.102v-103c7.772-1.816 16.052-2.512 23.094-6.65 6.984-4.279 12.432-12 12.906-20.35-56.787-2.259-113.227-9.66-170-12v142h-166zm175 232.5h113v-109h-113zm302 299c1.047 22.252-3.796 44.348-13.913 64.285-7.244 16.068-16.614 31.303-27.589 45.08-4.65 6.575-11.48 10.97-17.447 16.158-18.84 18.59-36.054 52.92-9.454 80.192 16.29 15.67 43.129 18.57 63.212 9.354 15.773-6.783 24.66-22.586 30.834-37.745 18.153-51.577 8.558-107.686-6.705-158.555-1.448-4.803-2.945-9.61-4.75-14.287-1.585-5.047-10.376-3.562-14.188-4.482m9-13c26.943-.103 54.436.488 80.695-6.67 11.674-3.186 22.665-8.552 33.431-13.996 6.717-3.337 4.503-11.928 4.874-17.868V2251h203c-1.706 23.303-3.564 46.681-5 70h-4c-5.512-11.438-21.931-20.617-30.427-25.731-12.104-6.429-24.97-11.527-38.565-13.767-10.105-2.054-20.276-4.03-30.586-4.69-9.418-.665-21.027-3.267-28.422 5.688 24.38 15.942 45.115 37.606 61.682 61.525 8.74 11.72 13.493 25.568 19.291 38.743 5.552 4.48 14.293 6.628 20.658 7.153 7.593 1.531 16.527-4.17 22.369-4.921-1.9 19.464-6.405 38.583-11.138 57.508-4.34 13.14-8.821 30.336-18.588 39.379-9.06 7.058-20.593 8.8-31.7 8.113-35.614.594-71.021-3.921-106.574-5-.408 3.685-.677 7.334 0 11 25.027 5.334 55.256 14.584 73.109 30.667 18.662 16.194 22.948 41.9 21.891 65.357.326 2.613-.361 6.457 1.429 8.144 10.382 1.921 21.407-.663 31.88-.805 19.014-1.465 37.996-4.632 56.002-10.99 14.886-5.81 30.122-12.7 41.79-23.975 21.035-19.309 33.33-45.998 40.681-73.147 12.443-42.296 17.37-86.347 22.016-130.032 2.074-22.578 4.051-45.146 5.33-67.778.373-6.011.524-12.015.904-18.015-.225-5.218 4.374-6.017 8.16-6.247 11.484-2.56 23.076-6.5 31.808-14.679-35.398-27.62-68.61-58.681-104.5-85.5-7.525 7.64-16.021 14.131-23.94 21.265-4.944 7.39-12.816 14.017-18.795 19.466-2.61 3.004-6.102 4.945-9.06 7.513-2.569 2.189-3.71 6.953-7.407 7.28-64.35 1.357-128.907-.246-193.298.476v-77h305.4c12.97-.732 34.235 4.72 40.118-14.095-17.103-17.585-37.91-31.594-56.975-46.973-7.49-5.544-14.921-11.13-22.208-16.93-5.654-5.21-15.109-9.628-17.854-15.649-.577-3.513 2.985-5.737 5.801-7.003 5.345-2.94 12.503-5.907 15.84-10.644 1.672-6.29.377-13.42.878-19.92V1813c6.398-.915 13.822-2.964 19.148-5.575 5.284-3.543 14.003-6.802 15.852-12.425-37.866-26.512-74.11-56.589-111.5-84-18.618 17.721-36.884 42.273-55.108 57.363-29.636 1.816-59.68-.33-89.392.637.828-5.49 9.05-8.772 13.208-13.108 17.719-13.357 34.763-27.565 52.338-41.102 4.243-2.947 9.4-8.839 13.825-9.582 14.119-1.936 34.668-7.547 37.629-26.208-59.883-8.685-119.216-21.585-179-31-.639 36.354-2.796 72.665-4 109-8.663-.978-16.424-5.92-24.766-8.133-26.201-9.213-51.922-20.089-78.234-28.867zm52 17c3.79 29.029 5.724 58.355 5.943 87.637-.584 11.336-.486 22.755-1.754 34.039-.499 9.706-2.085 19.291-3.61 28.86-.965 6.823 7.522 12.807 12.811 17.935 11.011 8.802 26.94 11.054 39.487 4.073 19.13-9.46 28.721-31.187 29.989-51.452 1.57-21.715-5.957-42.66-16.057-61.472-12.67-23.268-34.809-45.997-53.99-60.632-4.088-2.167-9.442.65-12.819 1.012m67-439h150v-92h-150zm0 119h150v-93h-150zm0 115h171c4.03.133 8.459.289 11.247-2.98 8.297-9.772 16.177-19.887 24.243-29.847 4.101-4.866 8.081-9.818 11.998-14.823 3.26-5.207 9.625-10.039 10.512-15.35-12.633 1.832-24.51 7.689-37.366 8.703-13.78 1.9-27.739 1.958-41.634 2.297v-37h-150zm0 187.606c27.018 36.623 45.871 81.272 46 127.394 7.652 3.61 14.031 10.899 23.136 11.763 13.947 3.506 28.663-2.554 37.761-13.278 9.836-10.724 12.88-25.752 10.667-39.798-4.176-26.209-23.746-46.993-44.12-62.274-11.111-7.316-22.72-13.779-35.127-18.645-6.463-2.547-12.942-5.04-19.495-7.328-3.168-1.228-7.145-2.344-10.125-2.943-3.375 1.319-5.935 2.526-8.697 4.503z" style="fill:#fda;fill-rule:evenodd;stroke:none"/><path d="M244 2863.5c418.26 1.426 837.325-.26 1255.75.5 418.681-.76 837.643.926 1256.25-.5-137.483-816.352-271.828-1633.965-409-2450.5-141.513-45.746-282.358-94.352-423.703-140.74-105.839-35.248-211.646-70.575-317.47-105.817l-60-20a8496 8496 0 0 1-28.008-9.343c-4.68-1.543-9.347-3.083-13.982-4.729-5.086-2.015-9.193.742-14.014 2.193-139.528 46.49-279.049 93.006-418.557 139.507C931.703 319.858 792.72 367.853 653 413c-137.126 816.275-271.612 1634.71-409 2450.5m120-103v1.5h2272v-1.5c-68.931-409.09-136.257-818.54-204.874-1227.691-51.028-306.678-102.288-613.313-153.312-919.99-4.869-28.835-9.565-57.678-14.432-86.51-1.133-7.012-2.351-14.007-3.495-21.008-1.484-6.504-.056-15.285-8.94-17.157-109.703-36.573-219.416-73.135-329.12-109.701-96.009-31.978-191.992-64.023-288-96-41.971-14.027-84.002-27.963-125.969-41.994-9.552-4.304-21.398 2.4-30.56 4.946-155.047 51.948-310.255 103.285-465.433 154.805-58.187 19.4-116.394 38.801-174.566 58.195-25.476 8.525-51.019 16.959-76.48 25.505-5.454 2.642-13.186 3.29-17.14 6.618-2.1 1.795-1.737 5.77-2.555 8.884-62.19 372.917-124.31 745.877-186.485 1118.792C490.857 1998.664 428.048 2380.37 364 2760.5" style="fill:gray;fill-rule:evenodd;stroke:none"/><path d="M1100 2471.375c1.313 1.294 4.548.31 6 .125-.576-.726-.932-1.572-1-2.5-1.737.376-3.948 1.02-5 2.375M1206.5 2073c2.411-3.015 1.035-8.105 1.559-11.61-.225-3.758.974-7.25 1.441-11.39h-3.5c.625 7.577-.792 15.537.5 23m143.5 44.333c.046.637.243 1.2.667 1.667.504-.01.954-.167 1.333-.5l18.37-18.37 9.363-9.363c2.633-2.883 6.819-5.975 7.267-9.767-2.127-.05-4.316.122-6 1.5 1.035 3.05-3.417 6.414-5.25 9.218-8.602 8.505-17.033 17.26-25.75 25.615M1833.5 2221c3.095-1.31 6.58-5.532 7.5-8-3.324.837-8.28 4.702-7.5 8m28-27c3.354-1.609 7.377-6.289 8.5-9-3.586.778-9.218 5.666-8.5 9m24.5-138.5c-1.43-1.835-.482-3.778 1-5-1.666-.681-3.332.312-5 .5-.319 2.182.716 5.769 4 4.5" style="fill:#f1d3a5;fill-rule:evenodd;stroke:none"/><path d="M1318 2088h24v-2h-22v-35h-2z" style="fill:#40372b;fill-rule:evenodd;stroke:none"/><path d="M1014 1526.625c1.038 3.398 5.997 5.248 8.375 8.375 72.338-43.637 136.953-100.275 191.155-164.95 27.666-31.635 51.755-66.255 75.158-101.08 22.152-35.913 44.061-72.416 61.312-110.97h143v362h-295c1.978 9.827 6.115 19.175 8 29h714c11.37-.195 22.884.188 34.141-1.731 4.518-.912 9.893-2.864 12.88-5.966 2.425-2.663 6.175-6.999 2.902-10.644-46.283-39.759-96.773-74.614-144.423-112.659-22.484 27.363-44.303 55.304-66.652 82.771-2.927 3.44-5.626 7.042-8.485 10.519-2.807 2.447-4.92 7.787-8.346 8.246-31.258 1.323-62.726-.24-94.017.464v-362h203.4c11.187-.242 22.441.533 33.562-.872 9.73-.585 19.946-5.69 23.038-15.669-44.658-37.955-91.703-73.73-139.5-107.459-21.59 25.902-41.986 52.792-63.383 78.85-4.009 4.568-7.958 10.695-12.169 14.376-4.768 3.438-13.59.702-20.027 1.774-102.923-.76-206.08.926-308.921-.5 33.392-72.967 58.536-149.986 79-227.5h478.2c20.625-.205 47.806 5.031 56.8-15.5-47.839-40.5-98.299-77.738-147.5-116.5-20.29 25.132-39.961 50.837-60.02 76.152-3.972 4.798-7.628 9.844-11.55 14.666-1.784 2.284-3.64 4.55-5.416 6.83-1.817 1.806-3.822 5.165-5.906 5.89-98.779 1.317-197.785-.239-296.608.462 1.774-15.26 7.37-29.863 9.891-44.998 9.913-45.826 19.03-91.818 27.109-138.002 15.138-2.024 34.972-5.901 39-27-34.04-4.641-68.1-9.191-102.163-13.671-34.365-3.624-68.425-10.38-102.837-13.329-4.724 79.421-15.13 158.384-27 237h-261c.898 9.604 5.945 18.415 7 28h249v1.5c-21.913 115.402-52.007 229.644-97.486 338.18-22.959 52.174-47.473 103.71-77.514 152.212-29.217 47.467-63.084 92.353-101 133.108zM1069.5 2436c11.6-2.327 21.59-9.496 27.105-20.12 2.391-4.316 6.829-4.551 11.094-5.962 30.232-8.915 60.143-18.803 90.301-27.918v48.6c-.89 11.725 1.166 25.846-.828 36.473-3.446 9.451-15.573 6.436-22.943 6.927-25.775.286-51.454-3.114-77.229-3v13c13.489.948 28.722 6.535 39.5 12.392 16.891 10.941 30.254 27.624 34.88 47.425 5.792 20.535 6.097 42.076 7.62 63.183 22.65-3.069 45.59-5.161 67.675-11.465 16.881-4.375 33.074-11.408 46.95-22.058 9.81-7.87 17.799-17.775 22.774-29.331 16.363-38.614 12.358-81.523 12.601-122.217v-69.413c.078-4.258-.315-8.704.715-12.838 6.017-4.102 13.298-4.821 19.993-8.072 47.88-15.921 94.996-34.18 142.292-51.606-.291-4.33-.818-8.674-1-13-54.135 1.703-107.866 10.347-162 12v-26c7.497-.417 16.196-3.61 22.03-7.146 7.534-4.587 9.388-11.269 11.97-18.354-3.692-1.403-8.72-.356-12-2 23.792-9.976 47.558-20.226 70.822-31.425 5.911-3.239 12.112-5.827 18.234-8.608 4.652-2.226 9.179-4.713 13.85-6.87 12.129-4.247 29.964.405 41.094-13.097-32.26-28.726-65.26-56.7-97-86 8.138-4.495 16.336-4.225 24.13-8.047 6.456-2.526 15.002-4.508 19.982-8.687 2.419-2.16 1.708-6.742 1.888-10.263V1949.34c.702-4.656-1.164-11.152 1.42-14.553 12.057-4.726 26.473-8.394 34.58-19.787-18.67-15.464-39.391-28.704-58.407-43.804-9.735-7.398-19.594-14.623-29.469-21.823-9.516-6.167-19.346-15.894-28.78-20.373-17.473 17.198-33.418 35.753-50.32 53.475-6.391 7.915-19.631 4.976-28.557 5.525h-54.88c-12.062.08-24.86-7.343-35.226-10.37-35.78-13.888-72.362-26.178-107.861-40.63-1.426 89.197.26 178.734-.5 268 26.035.451 52.37.307 77.553-7.158 11.004-3.183 22.645-10.098 31.573-15.412 4.521-2.648 11.105-7.688 11.644-12.33.552-6.347-.015-12.753.23-19.1h73.8c11.717.837 25.929-1.078 36.535.723 2.337 1.527 1.165 6.387 1.665 8.578V2087c11.191-.624 24.283.886 34.477.183 10.947-.321 21.556-3.179 32.242-5.183-7.862 10.027-18.686 18.344-27.194 27.975-8.377 7.049-16.368 18.1-24.768 23.557-89.83 1.334-179.891-.242-269.757.468 1.676 8.722 5.732 16.934 7.998 25.508 1.015 4.984 9.625 2.976 12.98 3.492H1330v1.5c-7.111 10.078-12.076 21.788-19.04 32.018-2.668 4.284-5.27 8.602-8.127 12.764-2.497 3.205-4.634 7.67-7.438 10.18-2.517 2.863-8.879.703-11.997 1.218-28.478-2.119-56.907-4.781-85.398-6.68v76c-59.972 3.631-120.03 7.562-180 11 2.714 11.508 8.679 22.206 12.19 33.494 13.707 33.51 24.823 68.411 39.31 101.506m-32.5-618h434.4c11.205-.348 39.064 3.773 39.575-16.844-32.361-31.835-69.674-58.172-104.475-87.156-12.057 13.898-22.095 29.489-33.697 43.756-5.756 7.293-11.076 14.89-16.795 22.209-3.208 2.893-5.493 9.216-9.486 9.676-4.79.73-9.704.107-14.522.359v-101c7.958-1.846 16.472-2.578 23.602-6.959 8.686-4.827 10.5-12.7 13.398-20.541-.458-.45-.911-.96-1.25-1.5-57.37-2.103-114.39-9.967-171.75-12v142h-166c.866 9.619 5.966 18.392 7 28m170 205h111v-107h-111zm300 299c1.047 22.252-3.796 44.348-13.913 64.285-7.244 16.068-16.614 31.303-27.589 45.08-4.65 6.575-11.48 10.97-17.447 16.158-18.673 18.82-36.227 53.471-10.132 81.363 15.937 16.57 42.926 18.927 63.468 11.306 15.94-6.27 26.4-20.876 32.27-36.532 19.333-51.617 9.805-108.714-4.878-159.914-1.642-5.66-3.298-11.33-5.41-16.837-1.754-5.792-11.916-4.057-16.369-4.909m9-11c27.278-.195 55.14.71 81.768-6.442 11.872-2.997 22.98-8.516 33.88-13.955 7.182-3.156 5.115-12.011 5.352-18.137V2252h201c-1.786 11.154-1.104 22.567-2.684 33.752-.693 11.419-2.156 22.8-2.316 34.248h-2c-5.512-11.438-21.931-20.617-30.427-25.731-12.104-6.429-24.97-11.527-38.565-13.767-10.695-2.155-21.46-4.26-32.379-4.801-10.153-.524-21.138-3.57-29.629 6.799 24.325 16.615 45.775 37.585 62.339 62.038 8.907 11.85 13.762 25.869 19.634 39.23 12.392 9.967 29.694 8.423 43.027 2.232-2.898 19.199-6.16 38.392-11.591 57.078-4.528 12.806-8.864 30.004-18.975 38.47-9.418 6.622-20.827 8.29-32.049 7.452-35.22.606-70.223-4.266-105.385-5-.59 4.358-.897 8.67 0 13 25.184 5.36 55.612 14.69 73.467 31.009 18.594 16.343 22.577 42.134 21.534 65.602.327 2.484-.288 6.577 1.877 7.776 10.349 1.5 22.854-.64 32.367-.912 19.184-1.607 38.4-4.49 56.599-10.94 15.071-5.786 30.464-12.747 42.258-24.137 21.187-19.454 33.505-46.376 40.853-73.738 12.365-42.455 17.381-86.633 21.934-130.478 2.065-22.615 4.065-45.257 5.301-67.923.465-5.967.39-11.986.98-17.93.271-4.677 5.617-4.44 8.98-5.365 11.613-2.614 23.332-6.798 31.85-15.464-35.772-28.68-70.214-59.601-106.5-87.5-14.877 14.736-30.502 28.643-45.37 43.37-5.778 5.19-11.55 13.86-18.787 13.614-62.455.045-124.897-.008-187.343.016v-75h312.6c12.327.537 28.396 1.303 34.4-15.5-16.273-14.393-32.793-28.542-50.407-41.304-8.449-6.762-17.246-13.031-25.745-19.715-4.323-3.437-8.883-6.59-13.21-10.019-3.474-3.724-9.98-6.35-11.638-10.462 7.333-2.535 15.506-7.386 21.426-11.246 4.269-3.197 3.526-8.015 3.574-12.774V1814c13.173-2.16 27.216-7.383 36-18-37.082-29.778-76.344-57.237-113.5-87-18.988 18.436-35.126 39.708-54.832 57.43-2.483 2.025-6.96 1.421-10.506 1.57-25.96-.76-52.317.926-78.162-.5 19.376-15.946 39.755-30.73 59.076-46.77 5.156-3.752 10.035-7.834 14.937-11.896 3.864-3.135 8.978-3.104 13.663-4.042 6.771-1.632 13.67-3.904 19.176-8.358 6.648-4.555 7.967-10.805 11.148-16.934-.458-.45-.911-.96-1.25-1.5-60.492-8.459-120.275-22.375-180.75-31-.639 36.354-2.796 72.665-4 109-34.594-11.709-68.581-25.858-103-38zm52 15c3.214 28.661 5.821 57.476 5.966 86.356-.078 21.567-1.91 43.023-5.426 64.286-1.668 8.432 6.254 13.413 11.079 18.355 9.941 9.02 24.295 12.046 37.028 8.06 18.975-5.931 31.225-24.534 34.704-43.257 4.46-20.349.417-41.528-7.775-60.33-12.78-29.488-34.654-53.797-59.503-73.727-4.227-4.072-11.23-.347-16.073.257m66-17.5c26.619 37.715 47.496 82.205 47 129.5 7.772 3.73 14.33 11.063 23.623 11.867 14.22 3.459 29.522-1.898 38.923-13 10.542-10.99 13.089-26.636 11.154-41.161-4.009-26.875-24.005-48.635-45.241-63.896-11.417-7.539-23.526-13.904-36.27-18.914-6.544-2.635-13.205-5.006-19.865-7.287-3.166-.907-7.045-2.825-9.905-1.867-3.315.577-6.813 3.61-9.419 4.258zm3-421.5h148v-90h-148zm0 119h148v-91h-148zm0 115h168c3.509-.063 8.413.562 11.403-2.177 16.493-18.885 31.176-39.376 47.597-58.323-12.593 1.836-25.134 7.888-38.16 8.594-13.507 1.765-27.251 1.398-40.84 1.906v-37h-148z" style="fill:#000;fill-rule:evenodd;stroke:none"/></svg>