<svg xmlns="http://www.w3.org/2000/svg" width="3000" height="3000"><path d="M364 2760.5v1.5h2272v-1.5c-68.931-409.09-136.257-818.54-204.874-1227.691-51.076-306.848-102.33-613.661-153.4-920.497-4.868-28.824-9.564-57.688-14.431-86.508-1.116-7.008-2.365-13.985-3.488-20.978-1.2-6.774-.246-15.245-9.425-16.859-109.868-36.632-219.702-73.24-329.563-109.867-95.996-32.013-192.02-63.992-288-96-41.993-13.978-83.98-28.011-125.966-41.994-5.663-2.605-10.407-1.693-15.513.621-156.173 52.06-312.354 104.114-468.521 156.173-58.68 19.531-117.334 39.097-175.992 58.657-25.668 8.506-51.298 17.139-76.962 25.643-6.176 2.075-12.369 4.11-18.537 6.195-3.02 1.124-6.483 1.813-8.8 4.255-62.934 375.423-125.132 751.075-187.889 1126.544C490.857 1998.664 428.048 2380.37 364 2760.5m659.5-669.5c44.847-35.739 85.743-77.417 114.752-127.326 21.991-37.422 40.381-77.186 52.956-118.811 20.178-65.824 29.476-134.46 32.23-203.067 2.09-36.368 2.743-72.816 2.562-109.242.033-9.346-.04-18.669.021-28.003-.353-7.026 7.609-8.547 12.302-11.174 8.505-3.662 16.75-7.903 25.017-12.058 8.034-3.217 16.463-10.618 24.66-11.319v150h14v328h40c.28 22.76-.026 45.686-4.849 68.05-1.196 8.438-3.296 16.678-5.392 24.91-.998 6.899-6.439 15.99-2.496 21.504 7.24 9.394 15.854 17.95 26.531 23.408 16.907 8.438 37.532 9.867 54.961 2.027 15.916-6.762 29.28-20.624 34.318-37.333 6.021-20.997-.58-43.467-13.35-60.47-11-17.535-26.996-31.01-43.874-42.552-.59-.265-1.253-.324-1.849-.544v-4c7.554-.676 16.068-3.871 22.696-5.743 3.73-1.326 8.666-2.372 11.116-5.253 2.325-3.883.44-8.684 1.188-13.004h408c-.501 11.449-4.27 24.66-7.065 34.696-2.583 7.804-5.224 15.948-10.922 22.118-10.218 8.668-25.185 7.858-37.667 7.961-13.47-.098-26.894-1.386-40.346-1.775-5.165-11.89-21.81-20.994-30.179-26.42-12.16-6.898-25.566-11.214-38.972-14.87-12.336-3.21-24.983-4.75-37.596-6.32-6.864-.865-13.81-1.042-20.7-1.442-3.285-.47-6.574-.373-9.846-.47-2.149 1.59-4.807 2.986-6.707 5.022 15.915 14.9 27.044 33.78 37.83 52.43 7.998 15.23 14.058 31.775 16.81 48.789 1.334 5.81.388 14.954 4.415 18.427 17.792 13.42 43.178 19.261 63.818 8.411 20.15-9.005 32.895-30.833 33.127-52.557 7.398.93 13.33 11.176 17.52 15.383 14.06 21.12 10.496 47.916 13.48 71.617 25.953.068 56.587-4.239 79.15-11.895 17.874-5.497 34.832-14.135 48.8-26.628 20.706-20.374 30.635-48.3 37.037-75.95 3.482-14.445 5.945-29.12 8.084-43.798.634-3.67 5.203-4.325 8.21-4.873 9.627-2.237 22.047-6.227 27.719-13.856-13.189-11.66-27.725-22.027-41.216-33.392-14.257-10.206-27.173-23.154-41.784-32.608v-3h37.2c9.138.072 18.306.103 27.378-1.115 6.002-.897 12.24-3.375 15.955-8.422.899-1.787 2.697-5.194 1.262-6.518-11.366-10.837-23.793-20.583-35.789-30.714-15.684-12.57-31.16-25.4-46.881-37.91-7.13-5.278-13.914-11.235-21.125-16.321-5.103 4.877-8.632 11.31-13.36 16.548-3.47 6.204-9.798 10.967-12.64 17.452h-4v-110c14.754-3.88 29.594-9.87 40-21.5-33.781-24.425-67.756-49.393-101-74.5v-2h140.4c11.845.24 30.25.705 35.6-14.687-18.795-18.725-40.144-34.834-60-52.313v-2c11.25.021 26.788 2.37 33-13.086-21.1-19.279-46.411-33.721-69-50.914v-2c11.949-.21 23.911.288 35.844-.232 10.164-.15 21.5-.908 27.156-13.268-9.544-9.443-21.118-16.515-32.027-24.18-5.659-3.736-11.262-7.534-16.937-11.233-4.58-3.167-13.231-7.023-14.036-12.087h45c11.553-.023 27.613 1.5 33-14.531-23.666-21.709-49.856-40.587-75-60.469-8.13 8.955-15.707 18.69-23.571 27.92-2.95 3.668-6.033 7.193-9.15 10.718-2.411 3.177-5.13 6.085-7.953 8.87-32.036 1.401-64.263-.254-96.326.492v-3c14.138-5.743 29.588-15.676 41.481-22.981 5.92-4.152 16.333-2.266 24.142-5.761 7.422-2.533 15.681-9.15 16.377-16.258-35.006-7.644-69.832-17.254-105-24v-3h223.2c8.628-.059 17.822.745 25.862-3.149 5.97-2.822 13.2-9.764 5.544-15.745-36.195-33.455-73.068-66.324-111.606-97.106-15.117 18.263-27.76 38.77-42.68 57.264-5.133 7.289-10.587 14.31-15.709 21.593-2.403 2.88-4.673 6.899-7.538 8.915-7.098 2.69-17.539.175-25 1.228H1587v-72c13.136-2.803 31.971-7.879 36-26-28.627-3.462-57.693-3.867-86.395-6.926-28.913-1.34-57.68-5.135-86.605-6.074v111h-194.4c-15.176.304-28.668-8.392-42.736-13.054-40.275-15.976-80.447-32.454-120.864-47.946-1.098 158.71 1.779 317.511-2.04 476.171-1.545 74.16-5.84 148.407-18 221.677-5.274 35.887-12.905 71.391-23.24 106.166-5.31 16.829-10.302 33.811-16.972 50.17-3.475 8.306-6.55 16.744-10.179 24.969-1.295 3.676-3.812 7.663-4.572 11.18-2.031 3.026 5.22 5.92 6.503 7.667m257.5-184h-12c-2.184 20.304-12.382 38.738-27.74 52.224-12.497 11.499-26.299 21.942-42.119 28.397-23.814 11.76-53.399 36.687-44.42 70.145 2.562 11.257 8.37 21.786 17.07 29.372 15.875 13.003 42.148 15.372 59.641 10.73 28.817-8.192 47.284-35.099 56.7-61.873 11.334-29.95 10.494-62.683 3.002-93.361-2.414-11.237-5.535-22.286-9.441-33.084-.302-.832-.56-1.676-.693-2.55m-55-451h2.5c22.123-26.15 41.216-54.718 59.993-83.28 8.753-14.666 18.12-29.007 25.842-44.272 4.632-7.731 8.214-16.039 12.634-23.874 2.403-3.619 3.801-7.75 5.603-11.66 1.71-3.848 4.295-7.575 4.428-11.914h-111zm149 151c21.056 5.593 40.442 16.825 61.665 21.807 23.449.55 46.894-.1 70.335.193.98-9.317 1.394-18.666 2-28h-29v-146c-5.893.51-12.38 6.135-18.884 8.447-9.516 4.663-19.217 8.888-28.867 13.238-4.82 1.824-10.38 4.38-14.922 5.654-4.483 1.12-7.052-7.673-12.327-7.339v73.8c-.672 11.572 2.139 26.382-4.399 34.648-6.816 7.697-17.072 15.713-25.601 19.552zm7-324.5v1.5c9.129 2.907 17.426 8.118 26.328 11.628 12.988 5.515 25.636 11.761 38.441 17.642 12.612 6.225 26.123 11.099 38.231 18.23-5.781 6.902-13.053 12.429-22.163 13.898-7.054 1.731-16.496-1.308-21.218 3.547-7.364 7.037-13.79 14.938-21.094 22.03-3.57 3.618-7.733 6.592-11.258 10.258-3.1 3.43-8.795 7.675-9.267 11.767 11.967 2.98 23.044 9.133 35 12-3.198 11.5-21.1 16.905-30 18v51h2.5c24.447-27.14 44.436-57.916 61.924-89.865 8.889-16.569 17.655-33.19 24.477-50.762 4.07-8.475 7.12-17.364 10.575-26.089 2.496-7.735 7.447-17.384 8.524-26.284h-131zm39 413.5h308v-40h-308zm0 64h308v-42h-308zm0 67h402c5.056-12.18 18.86-20.326 23-33-4.916.37-9.242 3.285-13.866 4.742-32.961 12.458-68.082 17.356-103.134 16.258v-28h-308zm0 66h379.8c6.956-.412 15.575.652 21.781-.72 6.863-4.013 13.634-12.715 21.306-18.191 3.762-2.876 6.769-6.628 10.578-9.442 3.182-2.818 8.141-6.897 8.535-10.647h-442zm37 42c.467 4.706 4.638 9.904 6.272 15.183 8.112 18.3 14.5 37.343 19.539 56.685 4.045 15.553 5.614 31.723 6.176 47.728-.914 6.88 2.885 10.602 8.089 13.721 15.298 12.612 36.6 18.345 55.667 11.582 18.188-5.064 33.483-20.208 38.176-38.58 8.583-32.773-13.637-57.515-37.728-75.424-24.633-16.528-53.355-25.554-81.902-32.597-2.293-.55-4.636-1.105-7.003-.94-2.945.074-5.016 2.087-7.286 2.642m114-652.5v1.5c15.154 3.83 29.587 10.61 44.696 14.743 7.498 2.574 14.896 5.497 22.48 7.816 7.06 3.256 16.342 4.323 21.824 7.941-6.155 11.593-18.39 18.17-31.363 17.883-2.918.449-7.594.072-8.842 2.273-3.098 3.305-5.544 7.185-8.562 10.565-2.357 3.31-6.776 7.322-7.233 10.779h80c2.577-25.15 10.954-49.633 12-75h-125zm21 345v1.5h100.8c8.236-.312 18.088.491 25.574-.537 7.716-7.732 14.874-16.1 22.122-24.264 3.991-3.942 7.591-8.196 11.247-12.428 3.162-3.69 8.627-8.593 9.257-12.771h-166v3c10.66.874 20.877 4.66 31.435 6.169 8.982 3.248 20.348 2.812 30.565 7.331-5.17 11.52-16.901 18.22-29.499 18.356-10.863.095-23.174 9.4-35.501 12.144zm1-206.5h81v-38h-81zm0 67h62.4c4.964-.267 10.896.405 15.397-.412 4.029.089 2.87-7.213 3.203-9.485V1444h-81zm0 64h81v-42h-81zm193-131h23.4c4.893-.034 11.17 1.08 14.57-3.98 5.112-5.564 10.502-10.884 15.284-16.743 4.443-5.661 12.685-10.835 13.746-17.277h-67zm0 67h27c5.927-.04 13.184 1.322 17.73-4.233 6.188-6.512 11.84-13.497 18.046-19.985a97 97 0 0 0 8.81-9.693c2.511-3.122 6.991-6.167 7.414-10.089h-79zm0 64h28.2c6.727-.18 14.691.332 20.802-.46 6.787-5.38 10.888-13.84 16.841-20.09 2.837-3.49 5.61-7.026 8.43-10.524 2.404-3.347 6.374-6.934 6.727-10.926h-81z" style="fill:#fda;fill-rule:evenodd;stroke:none"/><path d="M1014 2085.625c3.022 2.634 6.504 4.714 9.5 7.375 44.644-35.93 85.76-77.158 114.972-126.957 22.039-37.396 40.755-77.058 53.268-118.734 20.177-65.537 29.899-133.84 32.53-202.209 2.411-36.333 2.656-72.77 2.73-109.163v-28c-.011-3.207-.156-7.754 2.835-8.814 9.413-4.777 19.211-8.765 28.498-13.798 9.818-4.165 18.618-10.76 28.667-14.325v150h14v328h40c1.018 37.37-3.752 75.13-16 110.5 12.989 18.172 32.023 33.526 55.376 34.504 22.717 2.43 45.812-8.75 58.57-27.48 9.672-14.392 11.452-33.093 7.234-49.733-4.7-15.914-13.788-30.215-24.994-42.357-4.52-6.083-10.379-10.874-16.186-15.627-5.648-3.493-10.716-9.827-18-12.807v-2c7.554-.676 16.068-3.871 22.696-5.743 3.73-1.326 8.666-2.372 11.116-5.253 2.325-3.883.44-8.684 1.188-13.004h406c-.964 11.133-4.479 23.943-7.401 33.699-2.447 7.488-5.152 15.208-10.586 21.115-9.178 8.254-24.87 8.02-35.318 7.99-13.575-.203-27.141-1.404-40.695-1.804-5.165-11.89-21.81-20.994-30.179-26.42-12.16-6.898-25.566-11.214-38.972-14.87-12.838-3.35-26.025-4.824-39.146-6.523-7.062-.782-14.196-.891-21.273-1.433-3.436.373-7.903-1.509-10.4.319-2.627 1.407-4.929 3.337-7.03 5.427 16.092 14.894 27.464 33.72 38.294 52.504 8.298 14.737 14.776 33.895 17.257 49.171 1.456 5.944.42 15.374 4.504 18.97 18.092 13.523 43.632 19.135 64.746 8.929 21.46-8.737 33.157-31.019 34.699-53.074 12.579 8.665 21.35 22.603 23.926 37.603 3.884 16.218 3.028 32.954 4.574 49.397 27.328-.19 55.117-3.316 81.15-11.894 18.024-5.562 35.191-14.3 49.202-27.006 20.738-20.777 30.67-49.057 36.951-77.066 3.847-14.325 5.435-29.148 8.124-43.65 1.018-3.244 6.98-2.71 9.407-3.873 9.92-2.475 22.798-6.872 27.166-15.011-28.003-22.21-55.774-45.175-84-67l1.688-.5c15.409-.018 30.826.022 46.235-.012 12.663-.367 30.096.82 36.077-16.488-34.901-30.123-70.888-59.591-107.5-87.5-8.523 11.718-19.07 22.645-26.5 35h-2v-108c15.354-3.82 30.378-10.387 41-22.5-34.209-24.67-67.8-50.317-102-75 46.268-1.426 93.04.26 139.402-.5 10.531.018 22.714.874 31.3-6.642 2.687-2.395 4.973-5.742 4.825-9.485-8.028-10.117-20.828-19.199-29.348-27.374-9.91-8.514-19.932-16.924-30.179-24.999 9.822-1.825 23.229 2.93 30.892-9.664 4.083-6.113-1.807-9.737-5.767-12.515-4.014-3.214-7.993-6.455-12.103-9.538-12.372-8.868-24.569-18.023-37.33-26.337-3.823-2.736-7.974-5.075-11.692-7.946 11.072-1.482 22.658.356 33.83-.623 7.596-.407 16.01-.139 22.427-4.963 3.922-3.265 9.044-9.036 3.307-13.705-12.576-10.578-26.386-19.568-40.104-28.553-6.325-4.611-13.67-7.809-19.46-13.156 13.478-1.367 27.383.2 40.933-.5 9.649-.255 20.377 1.25 29.16-3.871 5.242-3.496 10.108-10.817 4.974-15.424-14.902-13.042-30.222-25.588-46.073-37.483-9.17-7.054-18.347-14.16-27.494-21.222a4894 4894 0 0 0-23.283 27.984c-6.055 6.397-12.043 14.951-17.89 20.526-15.65 1.345-31.513-.202-47.201.49-15.635-.705-31.566.871-47.126-.5 14.29-7.3 28.594-14.778 41.918-23.774 6.752-4.079 16.29-1.665 24.75-5.843 7.945-2.847 14.63-9.471 16.332-17.883-35.367-7.862-70.64-16.6-106-24.5 74.87-1.426 149.875.26 224.773-.5 8.799.01 18.349.58 26.233-4.211 2.915-1.944 6.05-5.021 7.19-8.05 1.823-6.096-7.592-11.656-10.935-15.32-34.036-31.79-69.5-62.182-105.761-91.419-14.726 18.72-27.977 38.592-42.546 57.432-5.177 7.228-10.5 14.358-15.701 21.564-2.476 3.04-4.485 6.515-7.376 9.193-2.777 2.463-7.958 1.628-12.017 1.811H1588v-70c13.826-3.057 34.637-8.77 36-28-29.024-3.427-58.485-4.034-87.594-6.98-29.169-1.409-58.22-5.269-87.406-6.02v111h-195c-7.731.56-14.817-2.633-21.714-5.697-46.758-19.152-94.059-37.174-140.786-56.303-2.606 156.87 2.098 314.154-2.477 471.052-1.313 73.758-4.997 147.709-16.976 220.613-9.97 69.623-28.268 139.27-58.047 202.96M1282 1906h-14c-2.175 20.513-12.61 39.021-28.112 52.584-12.68 11.652-26.703 22.079-42.789 28.534-23.66 10.972-51.697 36.63-43.504 71.073 2.487 11.288 8.188 21.91 16.818 29.607 15.7 13.198 41.807 15.446 59.33 11.74 29.574-6.872 48.986-33.682 58.7-60.652 11.537-29.49 11-61.875 4.752-92.381-2.473-12.61-6.12-24.94-10.22-37.087-.37-1.131-.776-2.245-.975-3.418m-54.5-451c21.807-25.988 40.98-54.112 59.473-82.49 17.993-29.18 35.111-59.217 49.027-90.51h-109c.76 57.57-.926 115.55.5 173m148.5 149.75c1.561 2.567 6.551 2.54 9.405 4.404 13.082 4.937 26.188 9.826 39.323 14.611 13.447 5.845 28.406 4.036 42.738 4.235H1506c.892-8.659 1.206-17.345 2-26h-29v-146c-20.588 10.614-42.004 20.372-63.5 29l-9-9c-1.426 24.656.259 49.747-.5 74.495-.356 11.779 2.066 26.758-5.128 34.855-6.63 8.256-16.549 13.508-24.872 19.4m7-322.375c34.238 16.579 69.755 31.362 104 48.125-4.654 7.838-12.611 13.086-21.22 15.394-6.665 3.162-16.503-1.13-21.544 2.751-7.95 6.389-13.911 14.816-21.211 21.83-7.435 6.91-15.213 13.442-22.025 21.025 11.16 6.16 25.516 7.158 36 14.5-6.484 10.67-18.715 16.99-31 18 .709 16.236-.876 32.887.5 49 48.06-55.264 82.484-121.792 105.5-191-42.923.57-86.173-.695-129 .375M1422 1695h306v-38h-306zm0 64h306v-40h-306zm0 67h400c1.598-5.133 8.102-9.831 11.098-15.402 4.09-4.707 7.946-10.967 11.902-15.098-17.899 6.059-36.656 13.475-55.804 16.16-20.087 4.762-40.72 4.83-61.196 4.34v-28h-306zm0 66h375.6c7.178-.237 14.401.308 21.566-.212 4.93-.54 8.129-4.93 11.588-7.982 10.518-9.328 21.284-18.384 31.246-28.306-146.504-1.426-293.41.26-440-.5zm34 43.25c9.529 21.25 19.392 42.873 24.99 65.675 4.931 17.812 7.884 36.154 7.997 54.671-.843 8.159 4.8 11.892 10.62 15.583 8.927 6.62 19.498 11.136 30.572 12.445 16.664 2.097 36.462-5.224 47.414-15.756 12.516-11.591 19.107-29.33 16.96-46.31-3.593-27.307-25.379-48.73-48.025-62.144-23.145-13.979-49.583-21.062-75.507-27.667-6.283-2.393-10.463.14-15.021 3.253zm117-652.875c26.187 8.976 52.833 18.314 79.174 27.19 2.802 1.329 8.187 1.977 9.34 4.652-2.451 12.307-18.49 18.542-29.104 19.03-3.296-.05-7.04.725-9.983 1.135-4.819 6.641-11.242 14.565-16.427 20.118 25.825 1.426 52.084-.26 78 .5 2.819-24.472 10.275-48.353 12-73-40.923.57-82.173-.695-123 .375m21 344.754c2.515 2.092 8.418-.088 11.33.871h104.605c2.83-.277 7.494.509 9.28-1.373 14.056-15.218 27.836-30.802 41.785-46.127-27.063-1.426-54.579.26-81.724-.5-27.398.755-54.928-.922-82.276.5a3575 3575 0 0 1 35.369 7.579c8.093 2.108 16.487 3.043 24.506 5.414 3.344 1.29-.168 6.754-1.085 8.52-6.718 10.114-19.522 12.845-30.77 13.145-10.783 2.479-20.161 9.495-31.02 11.97m1-207.129h79v-36h-79zm0 67h60.6c4.946-.273 10.866.418 15.348-.432 3.71.022 2.753-6.72 3.052-8.884V1445h-79zm0 64h79v-40h-79zm193-131h22.2c4.81.125 10.793.822 13.943-4.215 9.386-10.664 19.286-20.798 28.857-31.285-21.48-1.418-43.422.25-65-.5zm0 67h25.8c5.804.117 12.736 1.135 17.069-4.37 11.643-12.135 22.015-25.439 34.131-37.13-25.5-1.426-51.41.26-77-.5zm0 64h27c6.708-.148 13.523.299 20.187-.452 11.632-12.027 20.602-26.613 31.813-39.048-26.123-1.426-52.777.26-79-.5z" style="fill:#000;fill-rule:evenodd;stroke:none"/></svg>