<svg xmlns="http://www.w3.org/2000/svg" width="3000" height="3000"><path d="M326 2802.5v1.5h2347c-.373-12.822-4.058-25.348-5.508-38.051-117.27-703.542-234.496-1407.1-351.766-2110.637-7.344-43.997-14.655-88.002-22-132-3.6-21.02-6.91-42.124-10.625-63.12-1.141-5.243-8.647-5.77-12.81-7.59-158.488-52.846-316.994-105.666-475.472-158.502-59.502-19.835-119.024-39.669-178.52-59.495-26.013-8.653-52-17.351-78-26-12.476-3.645-24.567-8.834-37.16-12.04-6.368-.025-12.224 3.635-18.313 4.993-92.992 31.026-186.022 61.963-279 93A1893485 1893485 0 0 0 785.82 433.9c-17.522 5.819-35.005 11.685-52.52 17.495-3.82 1.309-7.668 2.508-11.462 3.872-7.078 2.018-5.509 14.447-7.54 19.93a1026382 1026382 0 0 1-55.17 330.994C547.67 1471.398 438 2137.571 326 2802.5m674-1229.125c1.87 2.935 4.614 6.029 6.5 8.625 53.036-21.924 106.457-44.755 153.674-78.109 23.898-15.78 46.098-34.063 67.285-53.239 10.693-9.97 20.841-20.586 31.138-30.958 4.806-5.394 9.682-10.687 14.362-16.186 4.858-4.493 8.634-13.321 15.041-13.508 21.09 33.743 42.543 68.375 54.775 106.75 1.334 5.89 5.767 7.884 10.56 9.93 16.591 8.562 36.008 14.242 54.72 9.717 17.141-4.332 32.686-14.66 41.786-30.123 13.369-20.663 15.25-46.974 9.794-70.512-4.897-22.712-16.046-43.626-29.86-62.11-10.763-14.673-23.47-27.813-37.324-39.58-6.941-5.83-14.232-11.254-21.602-16.52-3.485-2.484-7.163-4.644-10.792-6.873-3.325-2.445-9.978-4.695-8.002-9.205 24.932-55.57 46.342-113.14 57.601-173.259 12.93-60.084 23.113-120.938 28.344-182.215 12.76-2.763 31.897-2.399 40-18.5-39.953-35.432-80.936-69.765-121.5-104.5-16.08 16.158-31.295 33.143-47.223 49.445-3.648 4.605-7.827 8.685-12.01 12.788-3.002 2.767-5.808 6.745-8.774 9.01-13.88 2.032-28.465-.265-42.493.757 12.635-68.663 29.49-136.762 39-206 14.986 1.01 36-2.68 42-22-28.165-5.301-56.144-12.052-84.248-17.765-27.611-6.402-55.843-11.332-83.252-18.235-10.16 88.592-28.068 176.414-44.5 264h-113v1.5c2.407 8.572 5.4 17.003 8 25.5h99c-13.017 67.695-28.105 135.184-43.55 202.401-15.619 66.005-31.661 132.123-52.45 196.73 37.776 13.695 90.074 16.457 124.68 1.375 4.112-1.907 9.178-4.516 10.754-8.513 3.912-14.595 9.005-29.085 11.566-43.993 4.414-.01 8.815 4.959 11.72 7.25 13.195 11.961 25.73 24.56 38.255 37.225 2.63 2.856 6.196 5.832 8.3 8.713 2.8 2.73-1.232 8.063-1.949 10.924-22.512 52.2-52.563 100.995-88.08 145.317-36.511 44.25-80.334 82.227-128.246 113.571zm0 607.875c3.399 8.895 5.83 18.672 9 27.75h48c-.923 75.976.896 152.245-6.19 227.978-3.293 35.38-8.152 70.76-17.402 105.11-4.77 17.019-10.672 33.695-17.286 50.08-3.314 7.783-6.576 15.581-10.29 23.166-1.692 3.371-4.716 7.759-1.874 11.691 2.472 3.307 5.765 5.94 8.542 8.975 31.883-22.48 61.711-48.76 85.237-80.029 35.751-47.545 56.678-104.516 69.389-162.102 5.995-29.841 9.458-60.146 12.82-90.37 2.473-31.455 5.986-62.915 6.054-94.499h35v431c20.66.247 41.66 1.183 61.804-4.447 14.054-3.289 27.303-8.995 40.406-14.837 8.95-4.264 18.807-10.605 26.112-15.96 3.014-2.465 6.374-5.694 8.186-8.797 1.98-3.37 1.346-7.487 1.492-11.251V2138h2c2.425 1.549 3.42 6.382 7.198 5.261 22.11-3.561 44.054-8.245 65.974-12.796 55.659-12.024 110.518-27.887 163.633-48.4 38.937-15.189 76.864-32.937 113.108-53.713 52.356-30.767 102.033-66.368 146.975-107.264 22.93-21.26 44.797-43.72 65.126-67.52 5.183-5.925 10.023-12.118 14.939-18.249 3.368-4.442 6.637-9.013 10.675-12.865 16.235-2.774 38.176-3.947 49.372-15.954-44.418-35.034-87.857-71.885-132.5-106.5l-37.102 37.102c-9.397 9.372-18.735 18.765-28.136 28.12-3.919 4.539-9.031 3.865-14.516 3.778H1670c.64-5.762 8.27-8.918 11.466-12.936 6.853-5.619 12.942-12.004 19.344-18.1 3.535-2.732 6.697-5.87 9.792-9.066 2.578-3.086 7.5-6.561 8.398-9.898 13.384-.223 32.006 3.105 42-11-2.227-2.777-7.466-2.96-11.157-4.484-57.794-16.803-115.501-33.882-173.343-50.516-12.98 25.394-23.884 52.277-39.653 76.279-46.236 73.955-102.845 142.209-169.847 198.221 3.178 3.878 5.68 5.546 10.14 3.934 4.023-1.305 8.004-2.655 12.016-3.992 9.583-3.293 19.094-6.824 28.531-10.507 3.976-1.652 8.058-3.023 12.04-4.626 8.557-4.469 14.134 5.462 18.41 10.916 17.203 23.277 28.48 51.326 31.584 80.099.43 6.857-1.766 14.928 6.867 19.059 8.504 5.524 19.74 10.42 28.944 12.019 5.513.736 12.099.757 17.173.248 5.134-.587 10.089-2.592 15.295-2.65-.528 4.458-6.611 6.392-9.49 9.006-28.571 17.55-57.35 34.909-87.354 49.93-15.306 8.052-30.524 16.247-46.471 22.991-7.678 3.334-15.043 7.381-22.877 10.342-7.398 2.58-15.526 8.074-22.808 8.731v-435c14.383-2.087 35.591-5.596 38-27-58.29-6.674-117.372-11.072-175.5-18-1.426 114.21.26 228.72-.5 343h-52v-240c7.454-.408 15.957-3.67 22.03-6.616 7.834-3.992 9.31-11.078 11.97-17.884-54.17-4.908-108.73-9.11-163-13.5v379.8c-.511 4.066-.2 8.62 5.577 8.094 15.335-.13 30.655-.766 45.813-3.136 21.063-3.957 41.781-10.349 61.146-19.54 4.684-2.268 9.565-4.573 13.122-8.503 5.209-5.692 2.589-16.907 3.342-25.152V2023h52v158h-221zM1169 1221c12.65 2.902 25.642 4.568 38.17 8.036 12.468 1.77 26.38 7.677 37.83 8.964 15.995-54.677 30.16-110.15 36.905-166.898 7.78-56.107 14.858-112.46 17.095-169.102h-49.2c-3.174.425-9.17-.913-10.37 2.412-6.052 24.266-10.292 49.007-16.064 73.345-9.047 41.13-17.94 82.313-27.477 123.328-4.715 20.554-8.95 41.2-14.07 61.65-2.427 9.825-4.479 19.725-6.884 29.542-1.928 9.26-5.716 19.993-5.935 28.723m205 960.25c3.112 8.576 5.835 19.615 8 27.75h324v256.2c-.28 7.057 1.734 15.812-6.081 21.646-5.861 3.667-13.105 3.111-19.664 3.15-48.185-.668-96.16-4.975-144.255-6.996.447 3.214-.97 9.361 2.43 10.573 3.365.673 6.823 1.453 10.223 2.032 16.802 2.77 33.344 7.377 49.054 13.902 21.681 11.135 42.278 27.092 53.534 49.323 11.846 24.398 12.259 52.055 16.759 78.17 27.37-3.516 55.042-6.173 81.701-13.77 19.352-5.419 38.718-12.754 54.931-24.963 26.457-18.025 37.276-50.15 40.876-80.398 4.34-33.997 1.475-68.483 2.492-102.635V2209h128.4c11.125.065 26.946.03 33.522-12.654 1.806-4.306-3.037-8.385-5.316-11.564-19.79-24.45-40.65-48.008-61.441-71.58-9.165-11.436-21.987-22.97-30.665-33.202h-1.5c-3.486 9.804-10.45 18.157-14.873 27.545-7.406 13.197-14.985 26.294-22.295 39.535-3.907 6.605-7.63 13.332-11.441 19.994-3.818 6.504-6.38 15.912-14.391 14.926v-101c13.713.151 33.782-7.032 35-25-59.082-3.685-117.94-10.907-177-15v140h-332zM1432 735h355v260h-110.4c-8.73-.355-17.546.473-26.245-.356C1596.8 976.766 1544.512 955.024 1491 937v444.6c.694 34.193-1.318 68.921 4.867 102.762 2.653 13.787 7.173 27.305 15.235 38.934 15.699 21.323 42.381 29.672 67.27 33.573 24.146 3.702 48.593 4.355 72.97 4.713 43.955 1.019 87.952.117 131.9-.321 31.393-.325 62.822-1.479 94.021-5.068 22.249-2.528 44.402-6.067 65.893-12.413 15.019-4.936 32.53-12.771 43.254-22.81 17.58-17.718 25.052-46.504 13.646-69.804-4.951-10.774-16.096-20.1-25.555-24.934-5.264-2.982-10.911-5.184-16.32-7.832-2.49-1.27-3.238-4.533-3.157-7.741-.053-3.368-.003-6.699-.024-10.066-1.075-48.87-1.335-97.756-3-146.593-9.402-1.325-10.566 5.562-12.405 12.711-10.19 29.172-20.514 58.272-30.84 87.382-4.917 12.673-9.696 25.411-15.246 37.824-5.287 10.755-10.965 22.179-21.199 29.038-10.857 6.368-24.082 5.891-36.177 6.853-49.854.548-99.76-.1-149.612.192-16.439-1.053-39.982 2.967-47.11-13.494-2.384-7.698-.908-16.018-1.411-23.922V1023h149v104c22.116.27 44.451.398 66.161-4.543 15.536-3.221 30.896-7.425 45.973-12.368 10.89-4.5 22.959-7.358 32.506-14.633 3.351-3.292 2.054-9.41 2.36-13.605V759c14.747-3.871 29.605-9.82 40-21.5-43.399-34.221-87.951-67.127-132-100.5-11.163 12.704-23.388 24.713-34.294 37.699-10.502 10.443-19.81 22.105-30.276 32.527-14.365 2.106-29.323-.3-43.807.774H1424c.926 9.382 6.26 17.806 8 27m-3 1499.375c25.071 32.52 44.376 69.709 56.9 108.809 5.14 15.472 8.152 31.538 10.922 47.557 1.456 6.27.208 16.296 4.213 20.47 19.526 17.703 47.928 25.688 73.187 16.844 38.26-11.713 58.606-58.446 43.472-94.814-12.912-36.226-46.398-60.29-79.937-75.714-16.469-7.526-33.78-12.864-51.205-17.627-8.871-2.105-17.741-4.101-26.644-6.008-8.215-.765-20.354-5.023-26.96-2.12-1.25.799-3.13 1.684-3.948 2.603m23-330.875v1.5c35.479 1.29 72.444 7.382 102.842 26.888 14.443 9.108 25.69 23.77 28.708 40.86 1.678 9.337-.454 18.717-4.195 27.258-1.757 3.672-4.281 7.746-6.446 10.775-2.156 3.344-6.428 6.422-6.909 10.219 5.847-.83 11.561-7.418 17.448-10.675 40.99-28.858 78.857-61.943 114.154-97.427 17.785-17.862 34.17-37.047 50.124-56.53 7.61-9.74 15.004-19.68 22.365-29.609 3.505-5.031 6.976-10.044 10.466-15.078 2.792-4.79 8.271-10.858 8.443-15.681h-103.8c-17.311.706-34.768-.863-52.034.472-6.551 3.352-12.204 8.872-18.617 12.612-2.997 2.215-6.088 4.306-9.08 6.526-2.37 1.789-6.07 3.562-6.469 7.39 34.198-.74 87.274 2.494 100.535 47.235 7.898 29.705-15.939 60.188-45.032 64.745-11.149 2.292-22.55.645-33.175-3.065-6.381-1.161-8.232-4.793-9.813-10.12-6.591-15.943-16.685-30.256-27.4-43.646-8.193-9.727-18.316-20.971-27.973-27.679-4.986-.298-9.162 2.758-13.205 5.251-29.346 16.946-59.127 34.44-90.937 46.279z" style="fill:#fda;fill-rule:evenodd;stroke:none"/><path d="M204 2906.5c431.66 1.426 864.125-.26 1295.95.5 431.946-.76 864.184.926 1296.05-.5-71.347-421.454-140.17-844.031-211.186-1265.681C2515.49 1219.807 2443.894 799.05 2375 378c-18.825-4.147-36.622-12.377-55.173-17.557-141.343-47.107-282.688-94.208-424.008-141.343-105.996-35.346-212.02-70.658-318-106l-60-20c-4.743-1.483-9.392-3.202-14.133-4.67-4.689-1.596-9.296.594-13.846 2.121-144.162 48.092-288.385 96.1-432.543 144.19-72.152 24.045-144.327 48.113-216.478 72.159-35.996 12.013-72.02 23.992-108 36-18 6.028-36 11.971-54 18-9.01 3.004-18.013 5.972-27 9-8.742 2.234-18.56 7.118-26.819 8.1-68.995 421.677-140.705 843.07-210.109 1264.703C344.003 2063.481 275.132 2486.22 204 2906.5m123-104c781.355 1.426 1563.485-.26 2345 .5-118.785-721.214-240.618-1442.068-360.03-2163.199-7.528-45.17-15.046-90.339-22.588-135.492-1.756-10.718-3.574-21.44-5.367-32.15-1.463-5.102-.632-13.609-5.65-15.42-82.419-27.818-165.08-54.96-247.546-82.639-144.35-48.044-288.615-96.253-432.954-144.3-27.19-9.095-54.376-18.14-81.566-27.195-6.024-1.707-14.13-5.746-19.294-4.368-99.967 33.09-199.81 66.647-299.74 99.834a5130220 5130220 0 0 1-448.968 149.67c-9.274 3.513-19.03 5.778-28.13 9.725-3.665 1.962-2.298 9.57-3.876 12.727-22.54 135.51-45.194 271.003-67.739 406.508C540.73 1518.187 435.508 2161.522 327 2802.5" style="fill:gray;fill-rule:evenodd;stroke:none"/><path d="M1651 994.5c.03.55.186 1.058.5 1.5H1788V735h-2v259c-44.832.76-90.36-.926-135 .5" style="fill:#7f6e55;fill-rule:evenodd;stroke:none"/><path d="M1551 2030c-1.754-.02-3.314.7-5 1-.026 1.73 1.843 3.8 3.908 2.254.935-.812 1.115-2.094 1.092-3.254m14-8h3c.094-1.73-1.27-3.14-3-3z" style="fill:#ccb188;fill-rule:evenodd;stroke:none"/><path d="M998 1572.75c1.249 3.114 4.81 6.376 6.548 8.433 1.862 3.163 7.494-.784 9.81-1.134 43.76-17.28 86.632-36.942 126.534-62.05 27.409-16.783 53.067-36.365 77.523-57.147 12.283-11.081 24.203-22.527 35.687-34.454 5.38-5.937 11.784-12.877 16.675-18.359 2.74-3.026 5.55-5.987 7.998-9.26 2.53-2.768 4.912-7.018 8.225-7.779 9.663 16.997 21.534 33.218 30.26 50.908 7.482 13.433 13.182 27.732 19.392 41.759 2.265 5.564 4.11 11.271 6.178 16.896 1.634 4.186 7.792 5.98 12.036 8.372 16.579 8.087 35.654 13.04 54.097 8.49 16.778-4.3 32.294-14.194 41.33-29.343 13.767-20.626 15.818-47.273 10.803-71.043-4.592-23.003-15.38-44.463-29.414-63.116-20.524-29.713-49.778-51.228-79.682-70.423 26.469-54.788 46.185-113.253 58.39-172.95C1423.343 1050 1433.836 988.755 1439 927c13.796-3.006 34.964-2.945 41-21-41.952-33.418-81.743-71-123.5-105-16.146 16.022-31.066 33.161-47.15 49.238-3.722 4.526-7.634 8.894-11.952 12.864-3.148 2.663-5.962 6.635-8.677 9.204-2.256 2.06-6.5 1.583-9.862 1.694H1247c13.599-67.805 29.053-135.52 39-204 9.275.214 18.9-.319 27.3-4.702 7.826-3.966 13.436-11.176 15.7-19.298-57.225-10.536-113.846-24.988-171-36-3.95 43.946-11.804 87.521-19.175 130.993-7.901 44.394-16.411 88.741-24.825 133.007h-114c2.404 9.807 6.197 19.311 9 29h99c-14.134 67.419-27.95 134.986-43.9 202.019-15.955 66.18-31.517 132.898-53.1 197.481 28.182 8.68 58.309 13.142 87.869 10.544 14.68-1.35 29.49-4.286 42.736-10.974 7.649-3.136 9.263-9.359 10.638-16.39 2.014-6.822 3.836-13.696 5.709-20.546 1.07-4.683 2.716-9.312 3.048-14.134h1.5c19.869 17.028 37.916 36.09 56.5 54.5-23.417 53.225-52.508 104.317-89.163 149.713-37.389 45.24-82.089 85.766-131.837 116.787zm10 637.25h48c-.921 76.073.918 152.464-6.422 228.275-3.46 35.919-8.4 71.886-18.279 106.654-4.882 16.838-10.926 33.363-17.566 49.579-3.305 7.886-6.615 15.793-10.668 23.332-5.97 8.182 4.803 15.287 9.435 20.16 31.73-23.209 62.473-48.735 85.927-80.622 35.78-47.5 56.865-104.396 69.602-161.989 6.016-29.845 9.492-60.116 12.879-90.337 2.456-31.65 6.046-63.268 6.092-95.052h33v431c20.8.132 41.958 1.219 62.302-4.08 14.601-3.259 28.322-9.175 41.908-15.204 9.122-4.33 19.134-10.788 26.536-16.302 3.024-2.597 6.03-5.396 7.998-8.892 2.62-6.9.31-16.798 1.256-24.003v-71.94c.76-120.43-.926-241.254.5-361.579 1.328 1.485 2.169 3.323 3.505 4.823 2.211 2.305 7.676-.597 10.163-.328 3.689-.684 7.408-1.196 11.057-2.043 60.803-11.26 121.08-25.88 179.621-45.913 42.39-15.29 84.633-31.783 124.19-53.558 57.575-30.815 111.293-68.715 160.612-111.477 12.25-11.536 24.806-22.706 36.826-34.48 16.902-18.568 34.8-36.287 49.868-56.484 3.962-4.684 7.37-9.842 11.505-14.378 2.943-2.969 8.863-2.424 13.514-3.292 13.66-2.045 28.785-4.778 38.639-15.37-44.741-36.254-89.472-72.614-134.5-108.5l-37.102 37.102-28.13 28.13c-3.842 4.874-8.622 5.279-14.098 4.768-38.286-.76-76.999.926-115.17-.5 8.06-8.127 17.359-14.922 25.233-23.233 6.473-7.884 17.855-13.61 23.767-24.267 15.49.044 37.374 2.415 43-14-62.32-18.61-125.342-36.077-187.5-55-22.704 53.227-53.099 102.777-88.719 148.343-36.283 45.674-74.901 91.555-121.781 126.657v1.5c3.274 3.647 6.852 7.848 12.889 5.04 5.152-1.729 10.292-3.41 15.421-5.163 13.905-5.693 28.78-9.636 42.19-16.377 11.162 10.616 19.61 23.716 26.27 37.514 5.678 11.292 10.536 23.07 13.452 35.415 2.446 9.414 3.78 19.131 3.782 28.85-.951 7.24 6.77 11.025 11.266 13.45 17.704 11.047 40.532 12.995 59.73 5.271-29.33 19.771-59.957 37.757-91.295 54.156-32.516 16.168-64.7 33.442-98.705 46.344v-433c8.904-.75 17.81-3.15 25.657-7.403 7.97-4.348 11.58-13.306 13.343-21.597-59.631-6.142-119.387-11.754-179-18v343h-50v-238c7.8-.49 16.778-3.887 23.026-7.222 6.787-4.279 10.169-12.093 10.974-19.778-55.074-3.18-109.923-9.962-165-13v381.6c-.375 3.904-.243 8.598 5.377 8.306 15.416-.054 30.841-.738 46.104-2.868 21.633-3.601 42.71-10.49 62.606-19.59 4.826-2.36 9.88-4.682 13.571-8.733 5.209-5.692 2.589-16.907 3.342-25.152V2024h50v156H999c1.81 10.269 6.632 19.868 9 30m162-990c24.839 4.8 49.6 10.349 74 17 32.259-108.323 47.58-221.304 54-334h-48c-3.15.121-9.162-.606-9.646 3.02-5.969 23.253-9.916 47.03-15.446 70.387-17.393 81.38-36.86 162.413-54.908 243.593m211 990h324v255c-.225 6.966 1.57 16.136-6.867 21.314-5.942 3.213-12.966 2.645-19.442 2.665-47.979-.697-95.787-5.153-143.691-6.979.69 3.744-1.385 10.93 2.408 12.56 4.233.817 8.528 1.812 12.808 2.49 16.64 2.827 33.02 7.506 48.425 14.372 21.116 11.366 41.189 27.216 51.977 49.236 11.588 24.171 11.864 51.55 16.382 77.342 26.431-2.88 53.024-5.77 78.836-12.456 35.721-8.552 74.107-26.845 89.26-62.937 16.634-38.851 14.035-81.936 13.904-123.017V2210h129.6c11.063.085 27.072-.565 32.882-13.711 1.795-4.072-2.585-8.372-4.678-11.045-19.849-24.54-40.555-48.328-61.619-71.812-10.57-12.194-21.789-24.075-33.185-35.432-11.332 16.673-20.008 35.636-30.629 52.871-5.089 8.745-9.812 17.675-14.965 26.377-2.466 4.407-5.045 8.722-7.504 13.13-2.435 4.36-4.263 10.775-9.902 10.622v-99c14.25.376 35.453-7.945 35-27-59.779-3.432-119.231-11.429-179-15v140h-332c1.582 10.206 6.42 19.795 8 30m41-1502.5c2.511 9.606 6.276 18.951 9 28.5h356v259h-112.2c-8.284-.45-18.495 1.042-25.744-1.775-26.413-9.394-52.626-19.32-78.94-28.974-13.534-4.83-27.02-9.729-40.465-14.79-6.718-2.496-13.501-4.76-20.2-7.287-6.057-1.953-14.175-5.63-19.451-6.174v421.8c.183 33.274-.635 66.588 1.357 99.822 2.136 25.725 5.976 54.29 24.908 73.836 16.613 16.06 39.255 23.158 61.62 26.48 43.202 6.17 87.128 4.162 130.618 5.062 64.444-.564 129.308.975 193.204-8.953 28.734-4.727 59-10.92 82.623-29.3 22.623-19.599 30.083-56.776 12.238-82.262-5.167-6.345-11.362-11.981-18.547-15.926-6.053-3.515-12.608-6.037-18.84-9.16-2.683-1.38-3.289-4.96-3.169-8.33-.87-52.013-1.32-104.088-3.012-156.069-3.902.186-9.638-1.053-11.319 3.8-1.496 3.773-2.568 7.681-3.953 11.494-10.374 28.671-20.216 57.557-30.552 86.238-4.91 12.633-9.649 25.36-15.284 37.68-5.244 10.863-11.21 22.28-21.989 28.6-11.077 5.535-23.867 5.23-35.897 6.047-49.502.402-98.985-.073-148.484.141-16.097-.679-39.443 2.394-45.433-14.418-1.961-7.878-.58-16.194-1.089-24.198V1024h147v104c22.452.315 45.091.529 67.164-4.332 15.426-3.112 33.273-8.012 46.97-12.579 10.917-4.687 23.43-7.279 32.836-14.984 2.931-3.137 1.727-9.213 2.03-13.853V760c13.119-4.49 31.785-8.792 41-24-22.45-14.732-46.979-35.902-67.078-50.315-22.507-16.735-44.788-34.269-67.422-50.685-10.567 13.264-23.298 24.659-33.99 37.807-10.265 10.618-19.834 21.857-30.106 32.458-2.051 2.773-7.88 1.115-10.592 1.735H1422zm5 1525.719c19.994 28.705 39.486 58.663 51.25 91.954 9.88 26.017 16.961 53.338 19.088 81.152 1.556 8.51 13.859 13.428 21.587 18.148 31.87 17.72 75.454 6.216 93.931-25.416 9.084-15.893 13.219-34.888 9.636-53.016-3.135-17.341-11.657-33.515-23.206-46.673-18.957-22.02-49.798-38.694-74.061-48.504-14.591-5.704-29.647-10.217-44.91-13.702-14.426-2.45-31.352-8.114-44.932-7.7-2.946.539-5.688 3.055-8.383 3.538zm26-329.844c34.862 3.023 72.35 6.967 102.441 27.258 14.74 9.181 26.36 24.191 29.189 41.655 2.394 18.017-5.178 36.225-18.63 48.212 51.454-33.674 98.376-75.49 141.424-119.505 29.968-31.617 56.332-66.374 80.576-102.495v-1.5h-101.4c-16.975.362-34.019-.442-50.97.239-7.585 2.06-11.792 8.548-18.813 11.935-5.293 4.178-12.181 8.226-16.817 12.326 10.668 1.437 21.77-.56 32.475 1.37 17.831 2.686 37.148 7.09 50.753 19.872 12.793 10.829 20.608 26.873 18.626 43.86-1.803 28.762-28.937 51.101-57.089 50.376a52.7 52.7 0 0 1-16.487-1.92c-4.622-1.223-10.387-2.366-14.014-5-3.029-3.468-3.653-8.488-5.967-12.395-7.345-15.035-17.067-28.843-27.807-41.622-4.105-4.957-8.339-9.797-13.092-14.143-3.627-3.27-7.677-7.768-12.748-10.402-8.593 2.687-17.15 10.058-24.677 13.414-25.164 13.594-50.457 27.686-76.973 38.465" style="fill:#000;fill-rule:evenodd;stroke:none"/></svg>