<svg xmlns="http://www.w3.org/2000/svg" width="3000" height="3000"><path d="M338 2761.5c387.06 1.426 774.925-.26 1162.15.5 387.224-.76 774.71.926 1161.85-.5-77.265-456.459-152.125-914.01-228.874-1370.691-28.417-170.851-56.988-341.657-85.4-512.497-12.491-74.824-24.942-149.684-37.431-224.508-5.828-35.176-11.741-70.32-17.569-105.492-3.54-17.097-4.968-34.714-9.072-51.664-1.3-3.941-8.915-3.966-11.797-5.85-133.175-44.44-266.372-88.79-399.558-133.193-116.482-38.867-233.005-77.647-349.48-116.505-6.56-1.974-12.94-4.527-19.527-6.382-6.558-1.31-12.878 2.396-19.017 4.029-100.339 33.452-200.674 66.889-301.01 100.324-87.802 29.33-175.659 58.504-263.446 87.829-38.52 12.817-77.015 25.657-115.52 38.495-18.005 5.974-35.995 12.026-54 18-8.822 2.95-17.652 5.903-26.471 8.83-4.346 1.012-8.371 2.451-8.57 8.208-90.761 544.76-181.624 1089.514-272.367 1634.27-35.423 208.458-69 418.87-104.891 626.797m112-95c349.66 1.426 700.125-.26 1049.95.5 349.946-.76 700.184.926 1050.05-.5-71.115-419.63-139.844-840.338-210.448-1260.2-26.214-157.169-52.393-314.328-78.582-471.499a856355 856355 0 0 0-34.418-206.502c-5.388-32.32-10.783-64.67-16.17-96.99-2.588-15.664-5.232-31.299-7.827-46.958-.793-4.36-1.427-8.742-2.21-13.102-.428-4.863-4.85-6.193-8.474-7.135-122.028-40.638-244.03-81.373-366.052-122.014-106.682-35.522-213.343-71.109-320.006-106.667-6.525-2.525-11.758-.06-17.468 1.947-92.703 30.905-185.37 61.816-278.08 92.691-81.01 26.99-161.996 54.033-243 81-35.467 11.86-70.965 23.65-106.438 35.486-16.678 5.533-33.31 11.15-49.99 16.655-3.243 1.458-10.117 2.375-10.586 5.954-85.805 510.194-170.013 1020.748-255.437 1531.015-32.076 188.3-62.276 378.547-94.814 566.319" style="fill:#747474;fill-rule:evenodd;stroke:none"/><path d="M1115 2212h-15c-1.452 39.456-8.525 79.501-26.675 114.94-11.615 22.218-36.475 45.166-21.021 77.661 9.362 20.416 38.076 26.298 56.625 15.422 14.139-6.932 22.708-21.442 28.048-35.584 4.29-12.287 6.014-25.381 6.023-38.344 1.472-37.792-5.936-75.288-19.897-110.425-2.066-7.832-6.583-16.428-8.103-23.67m-11-20c25.863.482 52.714 1.454 77.07-9.102 7.817-3.743 15.24-8.388 22.11-13.647 8.214-5.895 5.321-15.495 5.82-24.251.424-3.581-.745-8.478 1.272-11.067 6.792-1.783 14.33-.394 21.307-.933H1386c-4.593 25.26-2.527 52.054-8.5 77-13.703-16.835-32.693-29.02-53.106-36.038-10.518-3.556-21.161-6.739-32.068-8.805-5.444-.809-11.812-2.478-16.885-2.582-2.551-.322-4.98 2.748-6.64 3.801-2.104 1.461-4.033 3.52-3.801 6.624 20.614 14.349 38.468 40.089 49.91 59.786 3.395 5.869 6.647 11.801 8.713 18.296 3.625 8.48 3.796 21.063 15.19 24.023 9.166 4.502 21.835 3.063 30.187.395-4.316 19.25-7.567 39.345-13.796 58.265-8.363 25.14-17.587 58.053-45.915 63.607-7.137 1.637-14.415 1.538-21.606.715-22.947.001-45.796-2.074-68.683-3.087v15c20.9 4.128 41.132 13.518 54.58 30.523 13.36 19.384 12.382 44.138 12.42 66.477 24.713.371 49.849-1.681 73.139-10.66 15.45-6.233 33.056-16.084 43.963-26.942 18.99-17.801 31.552-41.12 41.132-65.012 9.703-25.043 16.311-51.135 21.681-77.412 11.177-58.425 17.465-117.628 21.085-176.974 9.778-.787 19.887-3.274 28.5-8 1.426 101.54-.26 203.401.5 305h-93c.228 8.102 3.575 15.75 5.49 23.525.97 5.028 6.413 4.569 10.505 4.475h498.259c10.51.679 24.606-5.785 22.28-17.114-5.96-7.948-14.177-14.176-20.767-21.619-19.35-19.957-40.134-38.301-60.98-56.635-2.204-1.774-6.056-5.286-8.63-1.385-13.674 19.224-26.751 39.034-39.657 58.753-1.426-143.245.26-286.717-.5-430h52.2c13.208-.018 26.428.022 39.635-.012 7.38.077 17.714-1.897 21.592-10.972 3.464-7.348-4.37-9.793-8.321-14.41-13.603-13.327-28.785-24.852-43.299-37.118-10.275-8.679-20.885-16.88-31.444-25.2-5.352-4.072-10.814-8.015-16.04-12.24-2.48-2.004-5.159-4.268-8.464-4.574-2.572 1.912-4.581 4.688-6.593 7.189-13.872 18.626-28.273 36.865-42.113 55.507-3.458 4.222-6.828 9.798-10.607 13.115-44.605 2.04-89.82-.371-134.546.715v-184c41.83-3.468 83.677-7.182 125.29-12.78 16.015-2.037 31.98-4.34 47.911-6.926 13.73-1.274 27.013-5.373 40.624-7.095 6.51.31 12.699 2.889 19.142 3.693 11.088 1.458 24.943 1.968 34.773-1.423 4.151-1.86 9.268-4.164 12.036-7.4 2.843-3.718-5.524-7.244-6.996-9.457-25.63-20.104-51.076-40.457-76.6-60.686-12.654-10.204-25.423-20.285-38.187-30.335-5.648-4.008-12.386-13.277-20.318-6.353-6.302 5.251-13.045 9.858-19.623 14.719-38.7 27.164-78.403 52.983-119.487 76.408-4.961 3.48-11.784 6.058-16.065 9.635-17.105-6.396-35.047-11.673-52.236-18.072-13.064-4.713-26.232-9.134-39.38-13.582-9.97-3.074-18.539-11.757-25.441-18.155-11.636-9.805-23.316-19.516-35.318-28.87-5.787-4.863-11.854-9.345-17.753-14.043-2.952-2.32-5.832-4.74-8.88-6.924-2.473-2.13-6.548-4.757-7.492-7.354h14c.032-6.81-.039-13.626.02-20.434-.412-7.008 4.783-7.105 9.897-6.566H1505c.3 7.747-.633 17.02 1 24h152v-23h54v27c38.589-.777 77.383.948 115.907-.512 3.814-2.257 1.032-10.35 2.093-13.638V1536h-41c-4.099-12.011-14.764-23.725-18-35h48c-.646-63.078-2.975-126.16-10.875-188.792-10.53-89.096-28.748-179.99-76.888-257.325C1686.831 982.56 1620.297 917.302 1536 895c-1.277-7.394-.79-15.007-2.055-22.402-4.036-23.852-14.143-46.831-29.637-65.463-7.655-8.716-16.373-16.731-26.576-22.362-5.66-3.793-12.834-2.621-19.233-2.773H1439c3.752 29.965 1.968 66.179-5 93h-4c-7.703-38.61-44.09-69.828-84-66 .488 9.684 4.211 18.958 4.859 28.656 4.98 29.57 1.88 59.655-5.859 88.344-17.088 7.619-35.504 21.223-46.36 34.553-19.586 24.604-22.931 57.368-33.643 85.837-5.054 13.918-10.937 27.58-19.68 39.634-8.687 11.607-15.849 24.197-21.997 37.316-15.074 33.286-24.024 69.08-39.93 102.03-3.096 6.018 2.311 12.853 5.572 17.544 13.142 19.965 24.997 40.85 38.969 60.247 12.759 15.518 33.739 20.423 52.986 19.839 7.466.182 15.203.579 22.15-2.667 23.25-10.508 36.355-33.627 52.219-52.039 8.241-9.011 17.807-19.858 26.653-26.83 9.767-8.953 23.793-7.881 36.151-9.583 16.207-2.133 32.943-4.126 47.52-12.188 7.45-3.69 13.913-9.138 19.322-15.389 4.563-6.189 10.993-12.211 12.068-20.304h2c3.285 15.482 1.511 31.996-6.442 45.876-11.815 23.423-32.163 41.086-49.79 59.857-13.323 13.662-28.56 30.082-40.481 42.895-9.086 11.266-19.78 21.659-26.445 34.694-21.38 40.9-30.397 87.828-29.842 133.678 15.267.701 30.807-.868 46 .5-6.398 10.371-11.134 21.827-17.983 31.95-1.47 2.895-6.363 2.422-8.776 2.55H1334v114c28.054 3.583 56.909-1.417 85 1.5-7.863 11.172-16.867 21.571-24.847 32.67-7.151 7.768-13.903 19.986-22.343 27.847-5.668 1.792-12.22.502-18.12.983h-119.733c-12.172 1.122-23.248-3.785-34.271-8.327-32.056-11.272-63.359-25.35-95.686-35.673zm49 12c.542 14.575 5.788 28.655 6.659 43.247 3.034 25.326 6.407 50.783 6.247 76.344-.654 9.71-.322 19.519-1.683 29.16-.813 7.514-3.403 17.364 4.183 23.043 9.747 9.554 24.692 15.021 37.946 8.974 18.496-9.158 26.692-30.972 27.591-50.378 1.202-21.65-3.375-43.146-12.853-62.684-11.783-26.062-30.625-48.584-51.3-68.039-4.536-3.787-11.928.45-16.79.333m105-228v-105h-49v95.848c-.199 2.36.183 4.694.483 7.005 1.663 3.452 8.48 1.415 11.222 2.147zm-49 129h49v-102h-24.6c-7.515.83-18.432-1.164-24.4 1zm1-262h48v-102h-48zm2 345c-.08 5.644 3.489 10.402 5.64 15.351 16.716 37.72 33.032 76.814 36.641 118.413-2.597 22.352 31.251 32.081 46.051 20.114 17.82-13.696 18.6-35.738 15.129-56.074-10.047-44.337-46.768-76.329-83.934-98.408-7.66-5.8-12.787-1.744-19.527.604m12-964.5c6.206 10.572 11.457 22.002 17.928 32.49 4.434 7.538 9.668 16.907 16.345 21.682 6.061 4.609 13.787 5.742 21.147 6.115 11.02 1.344 22.385-.786 31.337-7.702 8.442-6.299 13.325-16 19.715-24.062 9.358-12.334 19.99-23.665 30.76-34.756 4.184-4.267 8.328-8.556 13.136-12.115 4.053-3.117 10.306-3.38 14.761-4.33 18.845-3.494 37.576-7.831 55.996-13.131 16.082-3.946 33.056-19.058 35.875-34.691h27.6c4.392.033 8.81-.043 13.19.027 1.982.034 4.703.475 5.781 1.747 3.728 13.957 8.016 27.874 11.61 41.882 3.977 12.345-.25 27.765-3.029 38.769-5.08 21.563-22.372 36.176-36.283 51.968-22.003 23.55-43.601 47.549-63.562 72.877-9.19 12.437-19.062 24.755-25.128 39.147-7.362 14.556-10.033 33.858-10.179 48.583h358c-.264-56.849-1.882-113.853-9.812-170.218-6.019-40.655-14.647-81.062-28.089-119.966-18.035-55.439-45.365-108.421-84.983-151.676-19.232-21.573-41.715-40.38-66.424-55.394-24.444-14.655-50.761-28.224-78.692-34.746.31-17.79 4.995-36.013.055-53.715-3.541-15.737-11.17-30.755-22.555-42.285-1.49 12.212.678 24.93-1.566 37.163-2.68 16.7-5.765 33.715-13.513 48.963-4.199 11.128-12.888 9.279-22.184 8.874H1403c-.193-12.424-.276-25.032-3.303-37.14-2.899-10.98-10.146-20.11-18.197-27.86.78 18.548 3.04 37.881.537 56.65-2.122 15.483-4.587 31.559-12.221 45.444-3.461 5.53-9.588 8.548-14.441 12.65-9.227 7.478-19.569 17.062-26.058 25.87-12.098 17.757-17.212 39.256-24.712 59.086-4.933 15.135-9.683 30.98-20.127 43.453-30.322 37.777-37.658 88.885-60.478 130.347m51 16.5c3.241-13.215 9.756-25.54 17.518-36.633a107 107 0 0 1 14.101-15.363c2.592-2.373 5.549-4.295 8.077-6.72 3.121-2.617.62-5.69-.696-8.284-17.4.619-35.895 4.221-49.454 15.986-6.709 6.011-11.857 13.587-14.727 22.144-4 9.242 1.583 16.238 8.408 21.217 4.951 3.52 10.374 7.655 16.773 7.653m148-218c.008-3.984.578-9.724-3.142-11.257-3.79-1.754-8-2.412-11.93-3.763-13.617-4.207-27.68-8.04-42.122-6.777-12.057 1.517-27.94 5.212-29.535 22.204-.254 3.946-.487 9.5 2.295 11.954 6.369 4.718 14.71 4.226 22.115 5.092 11.524 1.59 23.043-2.431 31.776-9.76 9.338-8.4 19.445-9.886 30.543-7.693m93 1101c-.76-128.264.926-256.81-.5-385-11.559 4.971-25.158 2.029-37.36 3H1363v102c10.239 1.313 13.967-6.471 18.639-13.515 4.852-6.7 10.036-13.153 14.729-19.954 6.142-9.337 14.385-17.71 19.632-27.531 4.482.293 8.63 5.149 12.588 8.137 14.21 12.284 28.72 24.214 42.306 37.188 5.517 4.634 10.79 9.504 15.708 14.777 3.614 4.667 12.27 8.258 11.928 14.127-.915 12.848-16.56 14.892-26.093 14.771H1363v104h10c5.923-10.829 16.45-21.97 22.611-31.533 6.75-9.053 13.26-18.362 20.295-27.17 3.767-2.948 9.044 4.431 11.865 5.855 14.347 12.107 28.428 24.507 42.319 37.114 5.718 4.356 10.165 10.184 15.899 14.518 4.304 3.976 9.488 8.801 12.534 13.217.827 13.575-15.44 16.805-25.174 16.926-36.204.209-72.391-.038-108.588.073H1362v93.411c.007 3.632-.428 8.374 4.598 8.45 3.201.48 6.4-.038 9.552-.322 8.513-6.012 15.581-13.857 22.952-21.141 7.347-7.33 15.291-14.015 22.5-21.5 3.579-2.88 7.574-9.575 11.993-7.696 28.533 20.803 53.75 47.313 82.405 67.798m-140-505h49v-19.8c.148-2.313-.137-6.541 1.867-7.58 21.266-1.767 42.913.32 64.246-.62h32.256c2.534.254 6.029-.256 7.74 1.316 1.744 7.305.335 15.22.891 22.684h100v-23c8.63-1.84 17.611-.493 26.337-1H1738v28h50v-53h-412zm43-86.5c108.02 1.426 216.825-.26 325 .5-3.486-9.525-9.944-17.859-14.136-27.087-2.687-5.391-10.728-3.636-15.64-3.913H1437c-5.103 10.272-12.216 20.735-18 30.5m254-92.5h31.8c10.05-.569 22.11.902 31.2-1 .116-89.439-6.537-179.974-30.158-266.612-11.23-39.803-27.964-78.569-53.22-111.578-12.096-16.875-25.889-32.473-40.492-47.18-6.96-7.076-16.038-14.365-23.208-19.943-4.218-3.058-8.359-6.261-12.85-8.905-4.454-3.73-9.876.829-13.072 2.218-.068 4.813 5.762 7.818 8.62 10.996 27.887 24.224 51.545 53.614 68.57 86.395 25.616 52.48 34.1 111.136 37.416 168.794 3.217 62.25 2 124.868-4.606 186.815m-32 1008h63v-218.562c.006-73.504-.006-147.783 0-221.438h-63z" style="fill:#fff;fill-rule:evenodd;stroke:none"/><path d="M1259 1977v-2h-49v-105h-2v98.6c.17 2.293-.114 5.26.96 7.154 7.13 2.605 17.499.303 24.973 1.246zm-51 129h2v-102h49v-2h-25.8c-8.332.965-18.436-1.299-25.2 1zm0 57h2v-29h133.8c13.91.93 30.57-1.264 43.2 1v-3h-157.8c-6.568.533-15.997-.867-21.2 1zm227-512.75c1.779 1.644 6.021.03 8.106.75 2.616-.267 6.207.292 7.99-1.304 1.535-5.737.574-12.023.904-17.918V1624h54v-2h-41.4c-5.372-.188-15.76-1.998-14.595 7.5-.015 6.504.003 13.006-.005 19.5-4.671.247-11.495-.646-15 1.25" style="fill:gray;fill-rule:evenodd;stroke:none"/><path d="M1379 2105.5c-5.14-1.3-10.766.133-16-.5v-102h-2v92.259c-.087 4.814-.912 11.45 4.579 11.58 4.182.094 10.462.722 13.421-1.339" style="fill:silver;fill-rule:evenodd;stroke:none"/><path d="M449 2666.5v1.5h2102v-1.5c-63.81-378.768-126.215-757.87-189.705-1136.696-47.349-283.998-94.654-568.016-142-852-4.398-26.67-8.911-53.338-13.325-80.003-1.118-6.656-2.232-13.342-3.35-19.985-.571-3.586-1.119-7.183-2.096-10.662-1.288-2.958-6.82-3.128-9.193-4.54-101.51-33.828-203.017-67.663-304.512-101.514a746151 746151 0 0 1-266.522-88.84c-39.072-12.89-78.06-26.135-117.144-38.98-4.713-1.335-9.273 1.032-13.839 2.453-144.507 48.104-288.95 96.378-433.449 144.467-54.18 18.08-108.385 36.116-162.566 54.195-23.808 7.923-47.625 15.882-71.434 23.805-5.676 1.96-11.407 3.738-17.06 5.726-6.564 1.113-6.72 8.744-7.34 13.268C740.08 921.349 682.77 1265.54 625.383 1609.692 566.339 1961.663 508.308 2314.864 449 2666.5m665-453.5h-13c-1.434 39.3-8.504 79.098-26.388 114.475-11.101 21.915-36.678 44.627-21.066 76.589 9.436 20.275 37.736 25.616 55.76 14.252 13.808-7.554 22.131-22.15 27.223-36.451 14.098-49.449 1.451-101.998-15.637-148.708-1.808-6.647-5.826-13.908-6.892-20.157m-9-22c23.759.476 48.191 1.236 70.843-7.46 9.737-3.596 20.131-10.466 27.549-16.318 5.957-4.016 6.145-9.758 5.608-15.902V2133h157.2c6.746 1.002 15.601-1.502 20.8 1.5-4.024 26.216-3.463 53.434-8.5 79.5-11.93-17.008-32.72-30.863-50.433-37.37-10.541-3.875-21.336-7.146-32.29-9.585-5.36-1.108-10.717-2.218-16.14-2.869-5.025-1.353-9.361 1.901-13.637 6.324v1.5c20.687 14.498 38.828 40.365 50.164 60.321 3.504 5.814 6.537 11.83 8.678 18.293 3.782 8.604 3.124 20.26 15.448 23.683 8.876 3.966 21.684 3.555 29.21-1.297-1.095 19.28-8.353 41.858-12.501 59.027-8.467 25.409-16.876 59.226-45.169 65.994-15.06 2.892-30.537.35-45.77.403-15.375-.406-30.7-1.767-46.06-2.424v13c20.9 4.128 41.132 13.518 54.58 30.523 13.36 19.384 12.382 44.138 12.42 66.477 46.495 2.431 95.944-12.445 126.367-49.491 29.717-36.432 40.765-83.546 51.061-128.129 11.623-59.175 17.803-119.235 21.572-179.38 10.311-.588 22.37-4.178 30.5-9 1.426 102.54-.26 205.401.5 308h-93v1.5c.82 4.405 2.2 8.664 3.411 12.962.878 3.27 1.898 6.488 3.06 9.639 2.996 3.6 11.14.819 14.92 1.899h336.967c53.694-.825 107.57 1.007 161.213-.544 5.253-1.257 12.246-4.026 14.594-10.716 1.77-5.12-4.48-9.2-7.398-12.473-25.58-25.11-50.976-50.613-78.767-73.267-15.962 19.77-27.963 42.868-43.5 63-1.426-144.511.26-289.402-.5-434h62.4c10.606-.098 21.255.121 31.857-.072 9.39.33 18.32-5.308 20.743-14.53-34.335-31.21-70.343-60.615-107.5-88.398-11.216 13.988-21.736 28.58-32.766 42.708-8.234 10.537-16.133 21.358-24.344 31.899-3.602 3.625-10.94 1.94-16.45 2.393H1640v-186c47.649-4.164 95.398-8.277 142.76-15.187 23.76-2.668 47.125-7.626 70.608-11.85 5.105-.805 11.573 2.39 17.64 3.137 16.761 3.927 36.494 3.449 49.992-8.6-37.837-30.56-76.202-60.554-114.218-90.894-7.128-4.517-15.192-13.763-21.965-15.983-6.957 2.464-14.098 10.967-20.848 14.453-25.433 19.441-52.845 35.985-79.698 53.275-10.357 6.188-20.522 12.63-30.92 18.722-9.163 5-17.978 10.598-27.242 15.397-3.594 2.177-8.875-.794-13.288-2.03-16.886-5.785-33.692-11.757-50.667-17.249-12.416-4.639-25.13-8.441-37.499-13.207-5.001-1.852-8.137-6.406-12.17-9.602-24.93-22.77-52.716-42.152-78.485-63.882 6.282-1.589 17.058 2.259 16.944-6.253.154-7.073-.023-14.174.056-21.247h55c.262 7.42-.595 16.322 1 23h150v-23h56v27c37.92-.729 75.987.889 113.848-.48 3.786-2.066 1.188-9.926 2.152-13.072V1537h-41c-1.905-6.291-7.21-12.44-9.453-18.012-3.635-5.593-7.194-14.116-10.547-18.488 16.467-1.398 33.43.232 50-.5-.852-62.943-3.066-125.883-11.056-188.384-10.638-88.893-28.886-179.63-77.302-256.627C1685.428 982.921 1618.824 918.273 1535 896c-1.277-7.394-.79-15.007-2.055-22.402-3.917-23.53-13.84-46.112-28.945-64.599-7.378-8.88-16.183-16.681-26.114-22.576-6.097-4.235-12.047-3.573-18.599-3.423H1440c4.2 29.898 1.522 66.221-5 93h-6c-7.628-37.356-42.726-69.449-82-66 8.668 38.387 10.332 78.897-1 117-17.088 7.619-35.504 21.223-46.36 34.553-19.586 24.604-22.931 57.368-33.643 85.837-5.054 13.918-10.937 27.58-19.68 39.634-8.687 11.607-15.849 24.197-21.997 37.316-14.94 32.955-23.846 68.39-39.49 101.064-3.557 6.225 3.136 13.041 6.143 18.086 13.153 19.6 24.519 40.484 38.613 59.426 12.93 15.16 33.85 19.656 52.9 19.084 7.626.484 15.466.135 22.225-3.907 22.173-11.686 34.98-34.243 50.968-52.355 7.862-9.15 17.965-19.193 26.471-26.259 4.391-4.34 10.063-6.71 16.264-6.555 6.58-.495 13.14-1.353 19.685-2.169 16.075-2.083 32.62-4.229 47.01-12.325 7.43-3.701 13.808-9.24 19.158-15.52 4.428-6.07 10.739-11.975 11.733-19.91h4c2.958 15.274 2.2 31.918-5.438 45.873-10.934 23.311-33.756 43.996-49.664 60.73-13.871 13.987-26.906 28.714-40.62 42.842-9.046 11.31-19.712 21.592-26.713 34.437-21.273 40.707-31.1 87.348-30.565 133.118h47v1.5c-7.305 9.905-11.268 22.197-18.466 32.248-1.636 3.104-5.69 3.458-8.694 3.251-10.614.003-21.227 0-31.84.001v112c28.693 3.589 58.31-1.422 87 1.5-8.899 10.489-16.676 21.883-25.313 32.577-7.263 9.487-14.452 19.039-21.946 28.336-4.163 4.017-11.899 2.005-17.059 2.587-45.87-.728-91.862.888-137.685-.48-38.457-14.044-76.74-29.025-114.997-43.52zm49 14c3.801 28.454 10.58 56.647 11.452 85.514 1.957 22.374 2.176 45.106-.71 67.412.235 4.072-1.582 8.861.31 11.992 8.365 11.738 24.13 19.274 38.335 14.628 20.341-8.474 29.197-32.48 29.596-52.924.934-22.75-5.855-44.95-15.79-65.201-11.986-23.36-29.373-43.856-48.399-61.736-3.95-3.454-10.501.456-14.794.315m55-361h50v-104h-50zm0 132h50v-106h-50zm0 130h50v-103h-50zm4 83c18.477 43.67 40.277 88.413 42.628 136.93-.578 11.812 16.634 18.918 25.04 19.872 19.43 2.594 31.641-16.562 34.42-31.522 3.133-18.055-1.356-36.79-9.85-52.732-17.048-32.399-45.69-56.975-77.282-74.582-5.183-3.588-10.247 1.182-14.956 2.034m269-1035h27.6c4.387.142 8.793-.206 13.165.192 3.89.05 4.856 4.473 5.499 7.82 3.77 13.896 7.973 27.713 11.418 41.685.945 24.567-8.764 49.733-26.526 66.687-23.827 27.2-49.224 53.007-71.882 81.247-11.06 13.518-21.384 27.715-29.515 43.198-8.092 16.84-12.086 35.486-11.759 54.171h360c-.19-56.993-1.868-114.103-9.59-170.629-6.002-40.838-14.6-81.432-27.967-120.543-18.004-55.634-45.385-108.877-85.04-152.326-19.094-21.752-41.703-40.397-66.34-55.538-24.577-14.747-50.984-28.385-79.063-34.964.634-18.276 4.802-37.089-.307-55.221-3.806-16.153-12.194-31.28-24.193-42.779-1.562 12.18.665 24.87-1.31 37.088-2.27 16.973-5.721 34.044-13.074 49.63-1.711 3.657-3.674 7.422-7.015 9.824-13.965 1.232-28.103-.164-42.101.458.678-21.45-.258-51.764-25-66.75 6.125 31.887 3.464 71.911-7.932 99.564-2.917 7.32-7.882 10.914-13.84 14.729-10.219 7.826-21.503 18.16-28.607 27.646-7.415 10.02-11.607 21.908-15.986 33.436-8.912 21.801-13.137 45.896-26.303 65.792-26.937 32.15-36.917 73.77-52.823 111.57-2.98 6.906-6.11 13.697-9.174 20.556-2.467 5.403 4.336 12.815 6.635 18.589 6.443 11.494 12.46 23.333 20.351 33.93 8.127 10.817 20.397 11.666 32.722 11.929 10.674.641 21.549-2.39 29.758-9.493 12.358-12.82 20.482-29.3 33.674-41.473 9.215-9.247 18.768-21.482 28.684-28.446 3.593-2.818 10.226-2.61 15.242-3.989 18.611-3.545 37.073-7.77 55.261-13.057 15.844-4.056 32.515-19.121 35.338-34.533m-208 85c5.723-24.806 21.951-45.605 42-60.5-1.32-1.315-2.607-2.645-3-4.5-16.859 1.08-34.934 4.523-47.861 16.377-6.536 5.919-11.5 13.381-14.32 21.752-4.025 8.884 4.132 16.242 10.202 20.523 3.823 2.61 8.629 5.864 12.979 6.348m148-218c-.117-2.975.295-7.8-2.573-8.921-2.972-1.77-6.535-2.201-9.759-3.321-13.436-4.082-27.134-8.32-41.385-7.653-11.426.955-29.04 5.073-30.613 20.399-.775 3.694-.839 9.229 1.665 11.625 6.254 4.995 14.833 4.42 22.262 5.286 11.15 1.439 21.918-3.054 30.275-10.038 8.152-7.102 19.537-10.412 30.128-7.377m-60 823c5.23.1 10.898 1.07 14.392-4.878 8.938-12.221 17.973-24.375 26.918-36.583 4.581-6.622 9.82-12.796 14.19-19.539 15.496 11.943 29.9 25.362 44.701 38.137 10.974 9.52 23.087 21.498 32.88 30.521 4.498 3.791 1.045 10.602-3.051 13.439-8.981 6.292-20.515 4.846-30.753 4.903H1362v106h12c5.855-10.71 15.074-19.903 21.68-30.264 7.542-9.758 14.403-20.35 22.32-29.736 15.283 11.853 29.387 25.362 44.182 37.823 10.595 10.517 22.184 19.915 32.647 30.56 4.673 3.725.976 11.009-3.394 13.667-9.209 5.854-20.689 4.776-31.04 4.95H1362v103c7.497.166 16.066 1.457 22.035-5.023 8.509-7.242 15.73-15.886 23.97-23.4 8.275-7.048 15.814-14.898 23.495-22.577 28.782 23.042 56.272 47.852 85 71 1.426-64.682-.26-129.869.5-194.647-.76-65.051.926-130.382-.5-195.353-11.16 6.151-24.93 3.18-37.046 4H1362zm13-225h51v-19.8c.148-2.313-.137-6.541 1.867-7.58 21.065-1.767 42.51.32 63.643-.62 10.56.004 21.111-.005 31.656.003 2.14.242 6.003-.042 7.11 1.643 1.43 7.261.259 14.978.724 22.354h102v-23c8.43-1.816 17.212-.517 25.738-1H1737v28h52v-42.6c-.25-4.19.68-10.432-1.5-13.4-3.176 1.802-8.444.48-12.59 1H1375zm42-86.5c109.356 1.426 219.485-.26 329 .5-3.76-10.214-10.57-19.212-15.136-29.086-2.942-5.647-11.664-3.445-16.839-3.914H1436c-5.34 11.028-13.117 21.857-19 32.5m147-544.75c27.804 25.513 55.484 52.948 73.172 87.027 28.065 52.457 37.59 112.568 41.001 171.21 3.616 63.915 2.647 128.38-4.173 192.013h30.6c9.798-.517 21.524.85 30.4-1 .05-88.566-6.736-178.22-30.001-264.027-11.088-39.741-27.764-78.346-52.794-111.383-11.993-16.668-25.522-32.241-39.938-46.823-7.04-7.01-15.905-14.626-23.148-20.161a170 170 0 0 0-12.31-8.746c-1.799-.826-4.95-3.246-6.632-1.92-1.98.954-4.459 2.581-6.177 3.06zM1640 2448h65c.198-147.273-.198-294.687 0-442h-65z" style="fill:#000;fill-rule:evenodd;stroke:none"/></svg>