<svg xmlns="http://www.w3.org/2000/svg" width="3000" height="3000"><path d="M338 2761.5c387.06 1.426 774.925-.26 1162.15.5 387.224-.76 774.71.926 1161.85-.5-77.265-456.459-152.125-914.01-228.874-1370.691-28.417-170.851-56.988-341.657-85.4-512.497-12.491-74.824-24.942-149.684-37.431-224.508-5.828-35.176-11.741-70.32-17.569-105.492-3.54-17.097-4.968-34.714-9.072-51.664-1.3-3.941-8.915-3.966-11.797-5.85-133.175-44.44-266.372-88.79-399.558-133.193-116.482-38.867-233.005-77.647-349.48-116.505-6.56-1.974-12.94-4.527-19.527-6.382-6.558-1.31-12.878 2.396-19.017 4.029-100.339 33.452-200.674 66.889-301.01 100.324-87.802 29.33-175.659 58.504-263.446 87.829-38.52 12.817-77.015 25.657-115.52 38.495-18.005 5.974-35.995 12.026-54 18-8.822 2.95-17.652 5.903-26.471 8.83-4.346 1.012-8.371 2.451-8.57 8.208-90.761 544.76-181.624 1089.514-272.367 1634.27-35.423 208.458-69 418.87-104.891 626.797m112-95c349.66 1.426 700.125-.26 1049.95.5 349.946-.76 700.184.926 1050.05-.5-71.115-419.63-139.844-840.338-210.448-1260.2-26.214-157.169-52.393-314.328-78.582-471.499a856355 856355 0 0 0-34.418-206.502c-5.388-32.32-10.783-64.67-16.17-96.99-2.588-15.664-5.232-31.299-7.827-46.958-.793-4.36-1.427-8.742-2.21-13.102-.428-4.863-4.85-6.193-8.474-7.135-122.028-40.638-244.03-81.373-366.052-122.014-106.682-35.522-213.343-71.109-320.006-106.667-6.525-2.525-11.758-.06-17.468 1.947-92.703 30.905-185.37 61.816-278.08 92.691-81.01 26.99-161.996 54.033-243 81-35.467 11.86-70.965 23.65-106.438 35.486-16.678 5.533-33.31 11.15-49.99 16.655-3.243 1.458-10.117 2.375-10.586 5.954-85.805 510.194-170.013 1020.748-255.437 1531.015-32.076 188.3-62.276 378.547-94.814 566.319" style="fill:#747474;fill-rule:evenodd;stroke:none"/><path d="M1115 2212h-15c-1.452 39.456-8.525 79.501-26.675 114.94-11.615 22.218-36.475 45.166-21.021 77.661 9.362 20.416 38.076 26.298 56.625 15.422 14.139-6.932 22.708-21.442 28.048-35.584 4.29-12.287 6.014-25.381 6.023-38.344 1.472-37.792-5.936-75.288-19.897-110.425-2.066-7.832-6.583-16.428-8.103-23.67m-11-20c26.164.446 53.424 1.496 77.966-9.519 7.878-4.035 15.56-8.656 22.43-14.247 7.038-5.38 3.702-17.55 4.604-25.024.359-3.07-.71-8.732 2.476-9.793 29.794-1.189 59.806.216 89.633-.417 29.56.76 59.412-.926 88.891.5-5.004 26.492-2.948 55.131-9.5 81.5-11.38-18.9-34.477-32.997-52.893-39.92-11.077-3.767-22.29-7.394-33.793-9.623-5.78-1.058-11.571-2.335-17.43-2.891-2.61-.28-4.871 1.317-7.191 3.473-2.15 1.597-4.384 3.683-4.193 6.961 20.929 14.73 39.367 40.925 50.658 61.26 3.581 5.926 6.51 12.149 8.728 18.713 2.151 4.928 3.227 10.203 4.852 15.28 3.055 6.13 14.488 8.428 19.81 9.563 4.126.233 8.287.315 12.382-.29 3.596-.035 7.715-3.219 10.57-3.026-4.368 17.202-7.568 35.246-13.538 52.14-7.635 21.846-16.726 55.043-47.915 56.437-14.049 1.573-28.227-.337-42.31-.624-14.426-.587-28.83-1.64-43.237-2.453v14c21.775 5.194 43.79 15.127 56.673 34.477 12.555 20.327 11.84 45.629 12.327 68.523 25.821-.805 52.094-2.647 76.536-11.812 34.164-12.106 62.095-38.482 76.657-71.58 16.294-34.215 24.967-71.572 31.721-108.67 8.488-50.91 14.592-102.372 17.086-153.938 9.93-.739 21.478-4.122 29.5-8.392 3.385-2.3 11.5-6.35 8.181-10.844-2.842-4.114-7.542-6.483-11.07-9.895-9.568-8.262-19.518-16.114-29.165-24.277-13.684-11.082-26.972-22.652-40.728-33.638-3.352-3.012-6.763-5.95-10.354-8.663-6.303-6.188-10.637 2.156-15.371 6.05-5.25 4.257-10.017 9.065-14.726 13.892-8.315 8.962-19.027 18.446-27.143 26.133-3.682 4.134-8.113 4.804-13.045 4.623-4.226.024-10.046.808-9.984-5.211-.272-32.26.05-64.515-.095-96.778 41.246.76 82.876-.926 124 .5-6.794 6.55-17.718 10.619-23.496 17.142.032 4.479 4.753 10.28 8.616 9.891 4.872-.474 9.362-2.86 14.05-4.09 5.74-1.73 11.334-3.88 16.936-5.97 13.495-4.68 26.679-10.237 39.93-15.542 65.368-27.61 127.492-63.235 183.464-106.931 13.419 16.172 28.305 31.572 40.43 48.918 9.886 12.504 18.148 26.102 26.412 39.679 18.397 15.91 48.902 19.027 71.006 8.694 22.356-10.255 36.006-35.27 34.652-59.504 1.254-22.03-7.284-42.99-18.804-61.328-11.083-18.553-26.968-33.37-43.007-47.495-5.325-3.884-11.008-9.352-16.189-12.464 18.551-18.932 35.841-39.059 52.415-59.75 3.835-5.318 7.982-10.382 11.871-15.65 2.972-3.99 5.748-8.15 8.97-11.944 2.106-3.358 8.774-1.53 11.83-2.165 10.132.208 25.82-5.582 25.914-15.991-47.206-22.07-92.878-47.817-139.871-70.44-2.743-1.357-6.169-3.374-9.103-3.017-4.078 2.92-4.847 10.75-7.989 15.512-16.832 37.323-36.107 73.684-58.537 107.945-47.607-19.188-97.878-32.188-148.119-42.682-12.857-2.785-25.857-4.912-38.76-7.393-3.923-.978-7.626-5.356-11.4-8.169-12.35-10.254-24.804-20.351-37.303-30.413-6.153-5.146-12.602-9.893-18.842-14.914-5.721-4.037-13.059-11.798-19.076-12.429-7.588 12.32-18.577 23.131-26.76 35.212-8.16 9.993-15.765 20.404-23.954 30.369-3.785 5.011-12.152 2.937-17.573 3.419h-146.274c-10.915-.3-22.447-7.474-31.97-9.973-30.659-10.717-60.605-24.09-91.469-34.027zm49 12c.542 14.575 5.788 28.655 6.659 43.247 3.034 25.326 6.407 50.783 6.247 76.344-.654 9.71-.322 19.519-1.683 29.16-.813 7.514-3.403 17.364 4.183 23.043 9.747 9.554 24.692 15.021 37.946 8.974 18.496-9.158 26.692-30.972 27.591-50.378 1.202-21.65-3.375-43.146-12.853-62.684-11.783-26.062-30.625-48.584-51.3-68.039-4.536-3.787-11.928.45-16.79.333m344-1020h2c3.285 15.482 1.511 31.996-6.442 45.876-11.815 23.423-32.163 41.086-49.79 59.857-13.323 13.662-28.56 30.082-40.481 42.895-9.086 11.266-19.78 21.659-26.445 34.694-21.38 40.9-30.397 87.828-29.842 133.678h191c-.534 8.346.944 18.513-1.23 25.981-2.8 8.41-10.108 10.515-17.469 11.446-30.937 3.078-62.214.593-93.243 1.573-44.468.472-90.787-4.35-133.391 11.634-9.327 3.403-18.282 7.903-26.684 13.178-2.751 2.287-7.455 4.844-7.617 8.326-1.044 30.226.19 60.606-.366 90.862 7.477-.427 16.404.58 23.205-.46 3.143-.26 3.19-6.273 4.543-8.198 7.642-24.668 41.312-31.874 63.078-31.341 41.712-.003 83.417 0 125.126-.001 20.772.036 41.511.231 62.253-.801 18.56.174 36.66-7.809 47.295-23.199 8.371 14.687 26.034 21.166 41.916 22.813 18.658 1.55 37.42 1.203 56.11 1.187h114.954c18.222.102 37.209-1.447 54.743 4.92 16.02 4.555 29.65 18.21 31.777 35.08 7.567-.586 17.055.91 23.765-.97 2.563-7.012.319-17.165 1.235-24.512V1570c-20.224-14.115-44.186-24.09-68.896-27.475-20.181-3.395-40.714-2.497-61.09-2.525h-92.654c-14.687-.088-29.66.612-44.05-2.948-16.67-3.737-13.243-23.868-13.31-36.052h192c-.646-63.078-2.975-126.16-10.875-188.792-10.53-89.096-28.748-179.99-76.888-257.325C1686.831 982.56 1620.297 917.302 1536 895c-1.277-7.394-.79-15.007-2.055-22.402-4.036-23.852-14.143-46.831-29.637-65.463-7.655-8.716-16.373-16.731-26.576-22.362-5.66-3.793-12.834-2.621-19.233-2.773H1439c3.752 29.965 1.968 66.179-5 93h-4c-7.703-38.61-44.09-69.828-84-66 .488 9.684 4.211 18.958 4.859 28.656 4.98 29.57 1.88 59.655-5.859 88.344-17.088 7.619-35.504 21.223-46.36 34.553-19.586 24.604-22.931 57.368-33.643 85.837-5.054 13.918-10.937 27.58-19.68 39.634-8.687 11.607-15.849 24.197-21.997 37.316-15.094 33.354-24.065 69.202-40.008 102.211-3.164 5.46 2.168 12.168 5.068 16.502 13.173 19.944 25.076 40.757 38.872 60.277 12.516 15.974 33.646 21.277 53.08 20.67 32.572 3.536 52.03-26.157 67.918-46.329 8.966-11.238 18.587-21.914 29.266-31.567 5.032-4.414 11.34-9.916 17.668-10.74 7.642-.78 15.305-1.424 22.906-2.483 16.207-2.133 32.943-4.126 47.52-12.188 7.45-3.69 13.913-9.138 19.322-15.389 4.563-6.189 10.993-12.211 12.068-20.304m-239 792v-105h-49v95.848c-.199 2.36.183 4.694.483 7.005 1.663 3.452 8.48 1.415 11.222 2.147zm-49 129h49v-102h-24.6c-7.515.83-18.432-1.164-24.4 1zm1-262h48v-102h-48zm2 345c-.08 5.644 3.489 10.402 5.64 15.351 16.716 37.72 33.032 76.814 36.641 118.413-2.597 22.352 31.251 32.081 46.051 20.114 17.82-13.696 18.6-35.738 15.129-56.074-10.047-44.337-46.768-76.329-83.934-98.408-7.66-5.8-12.787-1.744-19.527.604m12-964.5c6.206 10.572 11.457 22.002 17.928 32.49 4.434 7.538 9.668 16.907 16.345 21.682 6.061 4.609 13.787 5.742 21.147 6.115 11.02 1.344 22.385-.786 31.337-7.702 8.442-6.299 13.325-16 19.715-24.062 9.358-12.334 19.99-23.665 30.76-34.756 4.184-4.267 8.328-8.556 13.136-12.115 4.053-3.117 10.306-3.38 14.761-4.33 18.845-3.494 37.576-7.831 55.996-13.131 16.082-3.946 33.056-19.058 35.875-34.691h27.6c4.392.033 8.81-.043 13.19.027 1.982.034 4.703.475 5.781 1.747 3.728 13.957 8.016 27.874 11.61 41.882 3.977 12.345-.25 27.765-3.029 38.769-5.08 21.563-22.372 36.176-36.283 51.968-22.003 23.55-43.601 47.549-63.562 72.877-9.19 12.437-19.062 24.755-25.128 39.147-7.362 14.556-10.033 33.858-10.179 48.583h358c-.264-56.849-1.882-113.853-9.812-170.218-6.019-40.655-14.647-81.062-28.089-119.966-18.035-55.439-45.365-108.421-84.983-151.676-19.232-21.573-41.715-40.38-66.424-55.394-24.444-14.655-50.761-28.224-78.692-34.746.31-17.79 4.995-36.013.055-53.715-3.541-15.737-11.17-30.755-22.555-42.285-1.49 12.212.678 24.93-1.566 37.163-2.68 16.7-5.765 33.715-13.513 48.963-4.199 11.128-12.888 9.279-22.184 8.874H1403c-.193-12.424-.276-25.032-3.303-37.14-2.899-10.98-10.146-20.11-18.197-27.86.78 18.548 3.04 37.881.537 56.65-2.122 15.483-4.587 31.559-12.221 45.444-3.461 5.53-9.588 8.548-14.441 12.65-9.227 7.478-19.569 17.062-26.058 25.87-12.098 17.757-17.212 39.256-24.712 59.086-4.933 15.135-9.683 30.98-20.127 43.453-30.322 37.777-37.658 88.885-60.478 130.347m51 16.5c3.241-13.215 9.756-25.54 17.518-36.633a107 107 0 0 1 14.101-15.363c2.592-2.373 5.549-4.295 8.077-6.72 3.121-2.617.62-5.69-.696-8.284-17.4.619-35.895 4.221-49.454 15.986-6.709 6.011-11.857 13.587-14.727 22.144-4 9.242 1.583 16.238 8.408 21.217 4.951 3.52 10.374 7.655 16.773 7.653m9.5 376c20.693-19.337 51.145-20.71 77.717-21.748 45.625-.718 91.263.13 136.882-.252 11.388-.192 22.79.252 34.16-.18 14.117-.713 31.028-5.029 34.77-24.042 3.924-15.631 4.375-31.778 4.971-47.778h-14c.178 13.237-3.63 26.973-14.266 35.67-8.717 7.707-20.722 10.54-32.018 11.252-44.694.223-89.418-.041-134.108.078-21.49.175-43.422.045-64.35 5.689-9.145 2.199-19.397 7.153-25.593 13.22-4.526 3.73-3.49 8.772-3.977 14.003-.395 4.01-1.37 9.746-.188 14.088m138.5-594c.008-3.984.578-9.724-3.142-11.257-3.79-1.754-8-2.412-11.93-3.763-13.617-4.207-27.68-8.04-42.122-6.777-12.057 1.517-27.94 5.212-29.535 22.204-.254 3.946-.487 9.5 2.295 11.954 6.369 4.718 14.71 4.226 22.115 5.092 11.524 1.59 23.043-2.431 31.776-9.76 9.338-8.4 19.445-9.886 30.543-7.693m-60 821c6.795-.412 16.36 2.149 20.959-5.31 7.948-10.63 15.809-21.313 23.726-31.951 3.603-4.7 6.91-9.588 10.476-14.315 3.194-4.11 6.7-11.292 11.461-7.254 15.984 12.481 30.845 26.307 46.327 39.36 5.882 4.986 11.517 10.267 17.036 15.64 5.033 4.223 10.717 9.677 14.383 14.451 3.245 14.31-17.05 18.025-25.933 17.379H1363v104c4.994-.178 10.025.245 14.993-.2 4.049-.163 6.226-4.867 8.415-7.686 8.881-11.705 17.586-23.543 26.278-35.375 3.446-4.413 6.477-9.103 9.945-13.48 3.88-4.956 8.022-.637 11.268 2.06 13.027 10.428 25.255 21.778 38.062 32.458 6.702 5.377 12.622 11.611 19.072 17.245 3.324 2.629 6.192 5.754 9.2 8.71 2.475 2.815 6.905 6.162 7.767 9.268h1.5c25.885-20.237 51.034-41.455 74.475-64.475 17.597-17.612 34.557-35.848 50.705-54.787 6.13-7.112 12.1-14.325 18.135-21.502 2.738-3.099 5.073-6.496 7.544-9.762.899-3.41-4.59-6.228-6.32-8.25-20.622-19.412-43.268-36.457-65.573-53.815-11.364-8.248-22.648-16.531-34.327-24.315-5.532-3.843-11.19-7.52-16.987-10.939-3.032-2.383-6.849-1.147-9.783-.005-3.76.871-7.65.845-11.468.85H1363zm323.5 539c32.16 47.185 74.79 86.627 120.722 120.136 5.766 4.148 11.627 8.222 17.447 12.29 2.54 1.756 5.135 3.403 7.666 5.148 2.336 1.202 5.235 3.954 7.498 3.938 4.024-2.555 3.715-10.472 6.82-14.846 13.72-35.153 37.652-67.095 71.656-84.823 13.952-7.57 29.31-11.603 44.691-14.843.291-4.33.818-8.674 1-13-35.55-10.938-70.035-25.987-103.847-41.43-32.382-15.575-64.535-32.033-93.153-54.07 6.166-11.418 16.04-20.612 22.687-31.77 26.637-38.01 48.422-79.22 66.562-121.911 9.275-22.001 17.966-44.234 25.302-66.961 1.877-5.67 3.36-11.469 5.385-17.078 1.85-9.098 16.998-6.125 22.968-9.823 7.318-3.03 14.71-9.336 15.096-17.957-31.32-7.913-62.376-16.99-93.659-25.036-23.597-5.859-46.934-13.12-70.589-18.606-5.548-.462-4.958 6.434-5.84 10.342-11.345 68.056-31.097 134.702-58.565 197.977-3.823 8.472-7.898 16.946-11.847 25.323-50.132-59.149-82.56-131.41-99.217-206.773-.598-2.409-1.237-4.812-1.747-7.23-.651-2.054-.843-5.575-3.33-5.511-3.682 1.75-9.86 2.38-11.76 5.622 6.838 70.157 19.877 140.062 40.188 207.575 5.254 18.591 12.483 36.546 19.145 54.634a521 521 0 0 0 9.436 22.084c3.446 6.397-5.526 14.247-8.428 19.148-33.01 44.638-72.872 83.64-117.905 116.026-44.557 30.902-92.303 57.78-142.882 77.425-.103 3.858 1.733 8.126 3.708 10.99 1.809 3.602 6.564 2.383 9.908 1.594 21.723-4.496 43.245-9.867 64.62-15.8 44.507-12.484 87.932-29.01 129.13-49.961 39.09-20.872 76.947-44.52 111.134-72.823m-13.5-943h31.8c10.05-.569 22.11.902 31.2-1 .116-89.439-6.537-179.974-30.158-266.612-11.23-39.803-27.964-78.569-53.22-111.578-12.096-16.875-25.889-32.473-40.492-47.18-6.96-7.076-16.038-14.365-23.208-19.943-4.218-3.058-8.359-6.261-12.85-8.905-4.454-3.73-9.876.829-13.072 2.218-.068 4.813 5.762 7.818 8.62 10.996 27.887 24.224 51.545 53.614 68.57 86.395 25.616 52.48 34.1 111.136 37.416 168.794 3.217 62.25 2 124.868-4.606 186.815m207.5 178c.625-3.816-1.212-9.12-.524-13.758 1.502-15.463-12.914-23.294-24.652-26.967-28.064-8.895-57.987-7.002-86.94-7.275h-91.67c-16.697-.023-34.8 2.117-49.998-6.672-15.185-7.013-21.81-24.559-20.716-40.328h-14c-.086 10.922-.128 21.883 1.602 32.696 1.94 13.898 4.072 30.947 22.437 36.41 15.631 4.582 32.313 2.171 48.329 2.894h114.527c18.839-.018 37.742.115 56.397 2.799 16.225 2.427 36.936 7.863 45.208 20.201" style="fill:#fff;fill-rule:evenodd;stroke:none"/><path d="M1259 1977v-2h-49v-105h-2v98.6c.17 2.293-.114 5.26.96 7.154 7.13 2.605 17.499.303 24.973 1.246zm-51 129h2v-102h49v-2h-25.8c-8.332.965-18.436-1.299-25.2 1zm0 57h2v-29h170.4c3.257-.018 7.513-.298 9.1 2l1.5-1.5v-2.5h-161.4c-6.694.57-16.282-.904-21.6 1z" style="fill:gray;fill-rule:evenodd;stroke:none"/><path d="M1381 2105.5c-5.794-1.305-12.1.138-18-.5v-102h-2v93.452c-.116 4.567-.9 10.813 5.719 10.49 4.433-.182 11.12.778 14.281-1.442" style="fill:silver;fill-rule:evenodd;stroke:none"/><path d="M449 2666.5v1.5h2102v-1.5c-63.81-378.768-126.215-757.87-189.705-1136.696-47.349-283.998-94.654-568.016-142-852-4.398-26.67-8.911-53.338-13.325-80.003-1.118-6.656-2.232-13.342-3.35-19.985-.571-3.586-1.119-7.183-2.096-10.662-1.288-2.958-6.82-3.128-9.193-4.54-101.51-33.828-203.017-67.663-304.512-101.514a746151 746151 0 0 1-266.522-88.84c-39.072-12.89-78.06-26.135-117.144-38.98-4.713-1.335-9.273 1.032-13.839 2.453-144.507 48.104-288.95 96.378-433.449 144.467-54.18 18.08-108.385 36.116-162.566 54.195-23.808 7.923-47.625 15.882-71.434 23.805-5.676 1.96-11.407 3.738-17.06 5.726-6.564 1.113-6.72 8.744-7.34 13.268C740.08 921.349 682.77 1265.54 625.383 1609.692 566.339 1961.663 508.308 2314.864 449 2666.5m665-453.5h-13c-1.434 39.3-8.504 79.098-26.388 114.475-11.101 21.915-36.678 44.627-21.066 76.589 9.436 20.275 37.736 25.616 55.76 14.252 13.808-7.554 22.131-22.15 27.223-36.451 14.098-49.449 1.451-101.998-15.637-148.708-1.808-6.647-5.826-13.908-6.892-20.157m-9-22c23.759.476 48.191 1.236 70.843-7.46 9.737-3.596 20.131-10.466 27.549-16.318 5.957-4.016 6.145-9.758 5.608-15.902V2133h181c-.164 14.615-2.128 29.158-3.334 43.693-2.1 13.983-2.268 28.504-5.166 42.307-11.359-19.089-30.43-32.774-50.677-41.25-10.852-4.4-22.186-7.625-33.546-10.387-5.679-1.177-11.357-2.347-17.104-3.112-5.561-1.738-10.556 2.448-14.173 6.249v1.5c21.185 14.942 39.868 41.49 51.146 62.191 3.572 5.933 6.324 12.237 8.626 18.767 1.895 5.039 3.347 10.217 4.755 15.392 10.933 11.071 30.246 10.756 42.473 2.9-2.287 18.684-7.99 36.879-13.073 54.922-7.809 21.682-16.134 55.73-47.325 57.786-14.289 1.74-28.73.136-43.053-.356-14.521-.782-29.066-1.451-43.549-2.602v12c21.775 5.194 43.79 15.127 56.673 34.477 12.555 20.327 11.84 45.629 12.327 68.523 26.215-1.277 53.148-2.777 77.726-13.09 34.815-12.737 61.246-41.317 75.69-74.8 15.804-35.19 23.774-73.27 30.73-110.992 7.414-48.757 13.733-97.81 15.854-147.118 13.804-1.425 32.053-6.119 39-16.5-31.737-27.311-64.588-53.398-96.5-80.5-11.474 10.937-23.27 21.474-34.102 33.102-5.804 5.376-11.941 10.362-17.27 16.247-5.771 5.815-16.85 2.704-24.128 3.651v-103c43.245-.758 86.861.925 130-.5-9.566 6.71-19.672 12.954-29 20 2.511 3.184 4.58 8.999 9.898 7.562 4.694-1.182 9.165-3.09 13.802-4.46 43.93-15.452 87.148-33.44 127.972-55.942 19.508-10.25 38.134-21.96 56.659-33.84 9.359-6.204 18.666-12.492 27.822-18.968 4.571-3.307 9.215-6.469 13.648-9.96 4.452-2.665 9.807-8.217 14.199-8.892 20.668 25.579 44.098 50.618 60.782 79.486 1.862 3.927 4.813 7.308 6.721 11.167 13.111 7.63 28.097 13.35 43.612 12.347 15.313-.053 30.66-6.957 41.242-17.878 16.53-17.044 21.356-42.66 16.301-65.4-4.561-21.28-17.806-43.742-30.346-58.94-13.549-16.652-30.357-30.341-47.312-43.282 18.742-18.702 35.676-39.025 52.416-59.507 3.898-5.236 7.927-10.38 11.889-15.563 3.03-3.995 5.808-8.159 8.907-12.095 4.306-5.734 14.986-1.687 22.08-4.417 6.386-2.108 15.842-6.393 16.708-12.918-49.679-23.17-97.65-50.381-147.167-74-2.937 2.808-4.032 8.626-6.34 12.738-13.446 32.443-30.74 63.013-48.52 93.197-3.672 5.265-7.033 12.172-10.79 16.709-1.93 2.277-6.687-1-8.847-1.115-46.524-18.143-95.072-30.477-143.873-40.65-12.376-2.76-24.942-4.562-37.347-7.09-7.844-3.851-13.765-11.732-21.173-16.481-20.172-16.831-40.96-32.88-61.443-49.308h-1.5c-7.463 12.214-18.383 22.847-26.442 34.825-8.202 9.959-15.733 20.44-23.96 30.375-3.54 5.28-11.876 3.522-17.286 3.8h-146.274c-11.427.248-21.773-5.664-32.425-9.143-30.467-11.733-61.188-23.13-91.613-34.857zm49 14c3.801 28.454 10.58 56.647 11.452 85.514 1.957 22.374 2.176 45.106-.71 67.412.235 4.072-1.582 8.861.31 11.992 8.365 11.738 24.13 19.274 38.335 14.628 20.341-8.474 29.197-32.48 29.596-52.924.934-22.75-5.855-44.95-15.79-65.201-11.986-23.36-29.373-43.856-48.399-61.736-3.95-3.454-10.501.456-14.794.315m342-1022h4c2.958 15.274 2.2 31.918-5.438 45.873-10.934 23.311-33.756 43.996-49.664 60.73-13.871 13.987-26.906 28.714-40.62 42.842-9.046 11.31-19.712 21.592-26.713 34.437-21.273 40.707-31.1 87.348-30.565 133.118h191c-.52 8.7.828 19.182-.925 27.04-2.286 8.503-9.316 11.361-16.757 12.186-30.63 3.513-61.718.626-92.46 1.774-44.502.7-90.803-4.392-133.577 11.079-9.565 3.197-18.574 7.847-27.207 13.002-3.188 1.964-6.144 4.326-8.322 7.372-2.05 14.993.295 30.62-.752 45.738V1663c7.256-.518 16.352.845 22.778-.981 2.765-5.58 3.682-12.353 7.93-17.275 6.806-9.928 18.34-14.983 29.463-18.23 22.417-5.57 45.94-2.63 68.768-3.514h105.369c17.026-.379 34.25.615 51.173-1.75 14.596-1.943 31.05-8.969 37.519-23.25 2.755.733 4.248 4.59 6.505 6.808 20.063 20.6 46.396 17.304 72.466 18.192h125.732c20.268.353 41.006-1.495 60.889 3.428 17.698 4.137 34.213 17.504 36.408 36.572 6.922-.51 15.633.83 21.757-.963 2.538-6.267.362-15.52 1.243-22.129V1571c-20.388-14.224-44.524-24.188-69.437-27.564-20.207-3.332-40.757-2.352-61.146-2.436h-93.253c-14.78-.156-29.909.615-44.32-3.372-15.946-5.078-10.999-25.545-11.844-37.628h192c-.852-62.943-3.066-125.883-11.056-188.384-10.638-88.893-28.886-179.63-77.302-256.627C1685.428 982.921 1618.824 918.273 1535 896c-1.277-7.394-.79-15.007-2.055-22.402-3.917-23.53-13.84-46.112-28.945-64.599-7.378-8.88-16.183-16.681-26.114-22.576-6.097-4.235-12.047-3.573-18.599-3.423H1440c4.2 29.898 1.522 66.221-5 93h-6c-7.628-37.356-42.726-69.449-82-66 8.668 38.387 10.332 78.897-1 117-17.088 7.619-35.504 21.223-46.36 34.553-19.586 24.604-22.931 57.368-33.643 85.837-5.054 13.918-10.937 27.58-19.68 39.634-8.687 11.607-15.849 24.197-21.997 37.316-15.01 33.078-23.888 68.644-39.66 101.412-3.105 5.445 2.437 11.632 5.302 16.162 13.015 19.84 24.872 40.499 38.63 59.838 12.561 15.658 33.484 20.816 52.726 20.248 7.683.402 15.64.372 22.573-3.49 22.532-11.371 35.472-34.17 51.452-52.396 7.957-9.04 17.828-19.33 26.41-26.312 9.952-8.507 24.124-6.968 36.346-9.047 16.075-2.083 32.62-4.229 47.01-12.325 7.43-3.701 13.808-9.24 19.158-15.52 4.428-6.07 10.739-11.975 11.733-19.91m-287 661h50v-104h-50zm0 132h50v-106h-50zm0 130h50v-103h-50zm4 83c18.477 43.67 40.277 88.413 42.628 136.93-.578 11.812 16.634 18.918 25.04 19.872 19.43 2.594 31.641-16.562 34.42-31.522 3.133-18.055-1.356-36.79-9.85-52.732-17.048-32.399-45.69-56.975-77.282-74.582-5.183-3.588-10.247 1.182-14.956 2.034m269-1035h27.6c4.387.142 8.793-.206 13.165.192 3.89.05 4.856 4.473 5.499 7.82 3.77 13.896 7.973 27.713 11.418 41.685.945 24.567-8.764 49.733-26.526 66.687-23.827 27.2-49.224 53.007-71.882 81.247-11.06 13.518-21.384 27.715-29.515 43.198-8.092 16.84-12.086 35.486-11.759 54.171h360c-.19-56.993-1.868-114.103-9.59-170.629-6.002-40.838-14.6-81.432-27.967-120.543-18.004-55.634-45.385-108.877-85.04-152.326-19.094-21.752-41.703-40.397-66.34-55.538-24.577-14.747-50.984-28.385-79.063-34.964.634-18.276 4.802-37.089-.307-55.221-3.806-16.153-12.194-31.28-24.193-42.779-1.562 12.18.665 24.87-1.31 37.088-2.27 16.973-5.721 34.044-13.074 49.63-1.711 3.657-3.674 7.422-7.015 9.824-13.965 1.232-28.103-.164-42.101.458.678-21.45-.258-51.764-25-66.75 6.125 31.887 3.464 71.911-7.932 99.564-2.917 7.32-7.882 10.914-13.84 14.729-10.219 7.826-21.503 18.16-28.607 27.646-7.415 10.02-11.607 21.908-15.986 33.436-8.912 21.801-13.137 45.896-26.303 65.792-26.937 32.15-36.917 73.77-52.823 111.57-2.98 6.906-6.11 13.697-9.174 20.556-2.467 5.403 4.336 12.815 6.635 18.589 6.443 11.494 12.46 23.333 20.351 33.93 8.127 10.817 20.397 11.666 32.722 11.929 10.674.641 21.549-2.39 29.758-9.493 12.358-12.82 20.482-29.3 33.674-41.473 9.215-9.247 18.768-21.482 28.684-28.446 3.593-2.818 10.226-2.61 15.242-3.989 18.611-3.545 37.073-7.77 55.261-13.057 15.844-4.056 32.515-19.121 35.338-34.533m-208 85c5.723-24.806 21.951-45.605 42-60.5-1.32-1.315-2.607-2.645-3-4.5-16.859 1.08-34.934 4.523-47.861 16.377-6.536 5.919-11.5 13.381-14.32 21.752-4.025 8.884 4.132 16.242 10.202 20.523 3.823 2.61 8.629 5.864 12.979 6.348m8 380.625c20.595-19.586 50.723-24.355 78.29-24.273 46.397-.996 92.81.175 139.21-.352 11.773-.23 23.532.303 35.285-.22 7.837-.552 15.95-1.889 22.663-6.265 10.884-7.883 12.356-19.265 14.077-30.709 1.77-12.192 2.043-24.526 2.475-36.806h-16c.178 13.237-3.63 26.973-14.266 35.67-8.717 7.707-20.722 10.54-32.018 11.252-45.292.223-90.616-.041-135.904.078-21.734-.063-43.825.45-64.91 6.31-9.31 2.913-18.872 7.17-25.258 14.848-5.151 8.638.38 21.714-3.644 30.467M1422 1021c-.117-2.975.295-7.8-2.573-8.921-2.972-1.77-6.535-2.201-9.759-3.321-13.436-4.082-27.134-8.32-41.385-7.653-11.426.955-29.04 5.073-30.613 20.399-.775 3.694-.839 9.229 1.665 11.625 6.254 4.995 14.833 4.42 22.262 5.286 11.15 1.439 21.918-3.054 30.275-10.038 8.152-7.102 19.537-10.412 30.128-7.377m-60 823c6.503-.164 19.152 2.057 23.266-5.708 14.137-18.138 26.9-37.317 41.234-55.292 15.18 13.278 30.914 25.934 45.966 39.353 5.87 5.077 11.567 10.338 17.158 15.715 5.139 4.505 10.433 8.848 14.883 14.08 4.955 4.72-1.185 11.816-5.04 13.975-10.214 5.5-22.326 3.518-33.38 3.877H1362v106c8.04-.293 19.3 1.93 23.297-4.911 14.009-18.141 26.7-37.356 41.203-55.089 13.909 11.972 28.419 23.309 41.946 35.723 7.512 5.824 13.976 12.852 21.194 18.998 3.766 2.9 6.94 6.455 10.335 9.754 2.699 2.901 7.572 6.102 6.025 11.275 59.067-43.974 113.21-97.163 157-156.422-38.58-34.915-79.468-67.604-123.55-95.376-6.018-4.823-12.963-.162-19.148-.035-52.77.236-105.536-.043-158.302.083zm12.5 677c57.48-12.117 114.566-27.911 168.271-52.102 51.471-23.096 100.31-52.867 143.729-88.898 40.13 58.015 94.72 104.169 153 143 10.569-26.854 22.568-54.713 44.102-75.102 20.829-21.617 49.025-34.955 78.398-39.898.174-3.683.7-7.334 1-11-35.687-11.041-70.377-26.041-104.307-41.664-32.43-15.965-65.313-32.01-93.693-54.836 14.228-21.031 31.08-40.743 43.439-63.145 21.42-34.141 37.77-71.288 53.71-108.153 7.415-19.179 14.836-38.42 20.824-58.102 2.16-4.59 2.55-12.145 6.264-14.753 6.182-2.412 14.106-1.017 21.053-5.045 6.379-2.837 12.071-8.277 13.71-15.302-31.134-7.904-62.027-16.863-93.125-24.89-23.195-6.034-46.257-12.664-69.501-18.478-4.886-1.353-4.807 7.121-5.46 10.052-11.26 67.326-30.557 133.33-57.701 195.958-4.573 9.05-8.725 20.524-13.713 28.358-25.585-30.64-48.024-64.358-64.434-100.83-8.862-18.733-15.854-38.261-22.465-57.873-3.37-10.028-5.881-20.264-8.77-30.417-3.895-10.201-3.876-22.007-8.331-31.88-2.777 2.383-8.113 2.734-11.5 5.5 6.765 55.59 15.467 111.086 29.008 165.482 10.507 39.515 22.774 78.726 39.634 116.046 1.499 3.046 3.593 6.888 1.252 9.934-33.66 47.139-74.369 89.353-120.808 123.963-46.002 33.323-96.41 60.99-149.086 82.075.539 4.121 3.66 9.188 5.5 12M1564 987.75c27.804 25.513 55.484 52.948 73.172 87.027 28.065 52.457 37.59 112.568 41.001 171.21 3.616 63.915 2.647 128.38-4.173 192.013h30.6c9.798-.517 21.524.85 30.4-1 .05-88.566-6.736-178.22-30.001-264.027-11.088-39.741-27.764-78.346-52.794-111.383-11.993-16.668-25.522-32.241-39.938-46.823-7.04-7.01-15.905-14.626-23.148-20.161a170 170 0 0 0-12.31-8.746c-1.799-.826-4.95-3.246-6.632-1.92-1.98.954-4.459 2.581-6.177 3.06zM1881.5 1620c.594-7.972-.991-16.519-.977-24.594-.184-7.203-9.04-13.044-14.112-15.686-30.743-15.02-66.537-10.64-99.423-11.72h-99.46c-15.156.714-30.95-.246-43.966-9.008-12.541-8.094-17.251-23.87-16.562-37.992h-16c-.102 11.395-.23 22.86 1.524 34.156 1.918 14.253 4.082 31.752 23.043 37.126 16.077 4.444 33.17 1.899 49.6 2.718h115.127c18.897-.13 37.803.375 56.5 3.143 16.402 2.648 34.264 7.841 44.706 21.857" style="fill:#000;fill-rule:evenodd;stroke:none"/></svg>