<svg xmlns="http://www.w3.org/2000/svg" width="3000" height="3000"><path d="M1070 2284h-16c-1.892 43.694-9.27 88.128-29.395 127.477-12.804 24.963-39.842 49.863-24.434 86.188 10.347 23.164 40.803 29.65 62.253 19.075 36.428-19.024 39.214-64.546 39.576-96.936-.305-37.446-10.063-74.259-22.59-109.286-2.726-8.984-6.692-17.56-9.41-26.518m-12-26c26.658-.113 54.436.617 79.755-9.301 11.178-4.477 21.427-11.06 30.997-18.292 6.762-4.398 8.127-10.48 7.248-17.565V2192h197c-4.455 30.047-3.162 61.275-9.5 91-14.93-22.411-44.529-37.002-67.21-44.041-13.979-4.076-28.132-7.816-42.596-9.708-3.593-.557-7.312.188-10.063 2.638-1.603 1.715-4.832 3.3-5.142 5.425-.268 3.53 4.579 5.874 7.003 8.644 2.89 2.546 6.028 4.885 8.3 8.04 18.794 19.376 34.972 41.473 46.622 65.89 2.283 4.766 3.96 9.78 5.76 14.723 1.438 3.929 2.298 8.028 3.673 11.966 1.788 5.571 11.48 7.286 15.778 9.445 5.764 1.713 13.038 2.242 18.473 1.383 3.144-.696 6.95-1.718 9.402-3.405 1.242 5.714-1.838 12.738-2.191 17.912-4.374 22.173-9.27 44.29-15.76 65.95-4.846 15.395-10.107 30.696-17.98 44.854-5.504 9.837-12.769 19.454-23.132 24.546-17.561 8.946-38.206 4.897-56.97 4.373-19.165-1-38.313-2.75-57.467-3.635v17c23.538 3.71 48.198 14.694 61.688 35.265 7.508 9.937 10.016 22.54 11.918 34.531 1.84 13.326 2.54 26.761 2.394 40.204 27.59-.048 55.235-3.655 81.255-13.096 17.957-7.506 35.636-16.96 49.847-30.506 21.318-20.284 36.1-46.464 47.078-73.504 11.284-28.312 18.306-58.03 24.882-87.7 13.599-72.338 21.904-145.712 25.938-219.194 10.316-1.586 20.203-4.565 30-8v429c30.253.39 61.492.862 90.113-10.681 12.185-5.844 26.582-13.547 35.457-22.399 5.97-5.122 4.295-15.107 4.43-21.965V2553h325.2c10.208-.027 22.848 1.171 31.445-3.436 7.564-3.62 13.787-14.3 3.49-20.256-24.87-21.883-50.11-43.343-75.746-64.333-9.562-8.033-19.174-16.007-29.023-23.683-4.567-3.139-8.563-7.024-13.057-10.23-5.357-4.037-8.309 2.538-11.178 6.135-11.158 15.052-22.55 29.907-33.868 44.832-8.349 11.44-17.117 22.546-25.642 33.836-1.65 2.122-3.178 4.486-5.521 5.92-5.336 2.412-11.006.423-16.713 1.215H1645v-45c.122-2.945-.334-7.394 1.355-9.372 29.557-32.461 58.04-66.073 81.479-103.354 23.305-36.79 45.484-74.663 63.666-114.274 12.77 28.11 20.117 58.94 28.185 88.7 2.77 11.569 5.45 23.188 7.728 34.862 1.218 8.48 13.267 13.11 20.611 19.106 14.895 9.028 32.811 15.663 50.55 12.27 28.576-4.788 42.44-28.24 50.006-53.645 6.624-26.678 4.922-59.534.724-84.126-7.262-38.976-23.299-75.748-42.274-110.299-14.508-26.366-32.34-50.852-51.03-74.368 14.014-40.553 24.36-82.776 35.44-124.272a2466 2466 0 0 0 15.14-64.401c1.407-5.025 1.414-13.197 6.865-13.69 13.327-1.241 34.696-3.493 36.555-24.137-58.359-12.985-115.53-32.594-174-45-2.373 57.88-10.118 115.447-16 173h-1.5c-17.505-15.617-36.66-29.503-55.683-43.174-19.09-12.665-37.617-27.063-57.817-37.826v-134h310.2c9.417-.19 20.73.748 29.146-1.692 7.172-1.993 13.809-7.61 14.163-15.291-2.041-6.655-9.441-9.278-13.666-14.48-17.62-15.228-35.532-30.13-53.84-44.531-9.032-7.054-17.777-14.456-26.884-21.4-4.557-3.436-8.888-7.159-13.445-10.58-4.484-3.278-8.707-8.164-14.674-8.026-.787 3.826-5.957 6.692-7.5 11l-.5-1.625V1541h-24.6c-5.935-.376-13.031.525-18.414-.449-3.485-.256-4.898-6.569-6.9-8.602-6.114-9.869-10.45-20.936-17.086-30.449 17.805-1.405 36.102.238 54-.5.692-86.354-4.581-172.795-18.08-258.139-9.296-62.073-23.263-123.88-48.812-181.463-35.99-81.169-93.04-154.65-169.08-201.733-19.224-11.978-40.063-21.202-61.18-29.2-4.227-1.531-8.505-2.832-12.827-4.04-8.58-1.737-5.196-15.74-6.822-21.746-3.58-27.328-14.537-53.702-31.683-75.302-8.777-9.96-18.471-19.417-30.003-26.162-6.412-4.355-14.505-3.106-21.817-3.215H1432c2.794 17.458 1.945 35.416 1.773 53.01-1.28 16.768-1.992 34.027-7.773 49.99-6.065.266-6.245-9.848-8.11-13.635-6.791-17.436-18.017-33.707-33.918-44.136-7.195-5.553-16.835-10.214-24.436-13.47-8.44-3.279-21.062-.825-31.536-1.759 4.1 21.221 9.088 42.537 8 64.38.32 20.346-2.06 40.77-7.828 60.325-2.718 7.409-14.034 10.466-20.695 15.937-15.086 8.703-28.139 20.955-37.787 35.398-17.41 28.098-21.232 61.927-33.171 92.155-5.307 13.374-11.025 26.725-19.385 38.516-33.234 43.649-44.08 99.045-66.085 148.153-1.892 4.564-5.799 9.753-5.558 14.507 2.244 7.759 10.096 16.059 14.41 24.502 9.577 14.127 17.963 29.03 27.479 43.18 4.23 6.316 8.104 13.05 13.63 18.368 11.35 10.381 26.491 14.753 41.443 16.572 14.038 1.41 29.067 2.638 41.868-4.68 20.393-10.672 33.343-30.492 47.437-47.745 10.89-13.231 22.029-26.575 35.445-37.385 10.787-10.924 23.409-9.495 36.675-10.918 19.25-2.703 39.575-4.384 57.08-13.7 8.645-4.168 16.091-10.395 22.384-17.572 3.143-3.613 6.032-7.41 8.608-11.442 2.6-2.951 3.654-9.482 7.05-10.551 4.43 16.745 1.161 34.902-6.584 50.133-13.937 25.873-35.825 46.171-55.518 67.47-15.966 15.604-31.722 31.407-46.28 48.3-10.394 11.611-22.04 25.852-29.15 38.281-24.6 45.43-33.09 97.826-33.468 148.816 17.263.72 34.812-.886 52 .5-6.437 11.365-13.805 24.943-19.585 35.449-1.968 4.024-5.675 4.285-9.508 4.05-11.975.002-23.933 0-35.907.001v127h84v1.5c-13.952 17.381-28.233 35.385-41 53.5-55.605-.217-111.223.264-166.811-.143-23.03-7.481-44.232-20.38-66.805-29.137a2956 2956 0 0 1-33.548-15.157c-5.524-2.476-11.01-5.045-16.557-7.441-5.055-1.928-11.73-5.837-16.279-6.122zm55 17c-.074 8.223 2.368 16.19 3.715 24.232 4.735 29.913 8.85 60.005 10.109 90.285.187 11.854.296 23.719-.042 35.57-.1 10.133-1.59 20.169-2.488 30.227-.784 8.15 9.95 14.43 14.756 17.999 12.133 7.8 29.079 7.552 40.641-1.34 17.54-13.409 23.763-37.142 23.309-58.157.9-21.993-5.452-43.407-14.29-63.323-13.843-28.528-33.284-54.724-57.33-75.55-4.707-4.924-12.657.219-18.38.057m63-407h54v-114h-54zm0 148h54v-117h-54zm0 145h54v-114h-54zm51 260c3.65 1.112 6.785 5.91 11.053 7.686 12.946 8.92 31.557 7.811 42.896-3.213 11.778-11.02 15.454-28.204 14.992-43.657-1.33-29.92-17.668-56.722-36.718-78.778-11.194-12.38-24.295-22.884-37.76-32.656-6.496-4.58-13.193-8.807-19.934-12.987-3.22-1.857-6.972-4.94-11.722-3.896-4.078.73-8.341 3.172-11.807 4.501 22.511 51.586 47.996 105.253 49 163m19.5-1213c7.429-26.424 23.187-50.231 45.5-66.375-.447-1.735-1.37-3.269-2.5-4.625-5.478 1.528-11.325.865-16.82 2.377-18.149 3.733-34.368 14.735-44.458 30.234-4.104 6.507-9.5 15.515-2.982 22.625 5.426 7.22 13.28 12.03 21.26 15.764M1411 964c.032-2.48-.06-6.936-2.454-7.6-2.568-.938-5.157-1.83-7.82-2.48-14.424-4.109-28.89-9.44-44.088-8.92-14.214-.484-33.52 4.566-36.416 19.968.68 3.532-1.888 11.422 2.282 13.963 6.703 4.352 16.513 4.579 23.498 5.024 12.044 1.33 23.282-3.39 32.37-11.13 9.16-7.267 20.89-11.057 32.628-8.825m-64 904h11c14.127-23.16 33.83-43.832 48-67 5.45-.302 9.99 5.183 13.975 8.168 16.018 13.349 31.855 26.9 47.115 41.099 6.227 4.845 11.14 11.2 17.43 15.978 4.498 5.039 11.735 10.141 13.989 15.346-.906 14.996-18.351 18.004-28.842 17.409H1347v117h11c14.127-23.16 33.83-43.832 48-67 5.45-.302 9.99 5.183 13.975 8.168 16.018 13.349 31.855 26.9 47.115 41.099 6.227 4.845 11.14 11.2 17.43 15.978 4.498 5.039 11.735 10.141 13.989 15.346-.906 14.996-18.351 18.004-28.842 17.409H1347v114c4.972-.237 10.936.395 15.443-.475 6.873-3.4 12.69-12.587 18.79-17.258 10.363-11.11 21.688-21.175 32.637-31.637 3.657-2.946 8.315-10.671 12.955-7.08 29.335 24.606 58.905 49.185 87.675 74.45 1.426-142.157-.26-284.757.5-427-13.43 3.478-27.693 1.188-41.39 2H1347zm1-281h475.8c4.344-.16 10.976 1.313 11.1-5.155.235-4.937-.002-9.912.1-14.845h-487zm51-61.5c127.677 1.426 256.158-.26 384 .5v-1.5c-2.97-3.502-5.325-9.343-8.357-13.895-3.097-5.886-10.042-4.597-15.228-4.605H1410c-2.76 6.626-7.626 13.338-11 19.5m47 142.5c23.386 15.67 48.288 38.854 68.5 55 1.405-17.805-.238-36.102.5-54 6.736 1.07 14.347 7.136 21.835 9.928 27.898 13.638 55.89 27.08 83.53 41.249 10.156 5.409 20.648 10.03 30.996 14.999 9.736 5.475 21.371 3.448 32.095 3.824h115.436c4.525-.182 10.726.886 13.347-2.557 9.25-11.085 17.688-22.884 26.761-34.108 7.97-11.815 18.87-22.076 26-34.335h-128c-.856-9.475 1.179-21.307-.97-29.765-4.06-2.377-10.513-.502-14.918-1.235h-15.475c-8.737.381-19.144-.52-27.105.42-4.158 1.329-1.631 9.515-2.532 12.345V1663h-170v-26h-60zm148-738.625c32.436 26.433 60.574 59.496 80.879 96.182 31.913 59.387 42.229 127.485 46.071 193.884 1.735 35.91 2.813 71.874 1.734 107.823-.244 18.013-.777 36.002-2.05 53.963-2.13 15.759-1.554 35.232-5.634 49.273 14.362 1.366 29.035-.2 43.467.5 7.055-.313 15.422.412 21.866-.299 3.857.266 3.677-5.717 3.667-8.26-.523-2.604.748-7.757-1.5-7.441-2.033-95.28-9.867-191.834-36.472-283.899-6.153-21.613-14.186-42.588-23.51-62.999-14.314-29.744-33.543-56.778-54.327-82.305-10.79-13.003-22.472-25.262-34.887-36.73-6.366-5.386-12.468-11.083-19.359-15.823-5.757-4.477-12.99-11.576-19.945-3.869M1645.5 2420c35.272-76.939 59.552-158.52 79.205-240.685 2.45-10.955 4.805-21.957 7.312-32.896.955-4.98 2.011-9.922 2.986-14.887.753-4.265 2.355-8.76.667-12.975-13.729-29.45-28.472-58.418-43.891-87.006-15.891-26.85-28.974-55.976-46.779-81.551.76 156.604-.926 313.478.5 470" style="fill:#fff;fill-rule:evenodd;stroke:none"/><path d="M327 2802.5c390.66 1.426 782.125-.26 1172.95.5 390.946-.76 782.184.926 1173.05-.5-79.284-468.283-156.02-937.69-234.792-1406.201-29.222-176.024-58.731-352.018-88.16-527.994-12.796-76.829-25.59-153.676-38.409-230.5-5.977-36.02-12.025-71.992-18-108-2.928-17.508-5.855-34.99-8.745-52.497-.795-4.678-1.595-9.35-2.358-14.018-.403-5.813-4.632-7.44-9.23-8.351-136.155-45.374-272.297-90.765-408.44-136.14-118.995-39.696-238.006-79.344-356.998-119.005-7.36-3.594-13.268-1.406-20.008 1.408-103.34 34.51-206.696 68.878-310.033 103.355a1093431 1093431 0 0 1-271.561 90.514c-39.662 13.232-79.311 26.454-118.969 39.67-18.676 6.196-37.335 12.443-55.998 18.654-3.991 1.804-9.7 2.485-12.774 5.267-95.938 570.136-190.308 1140.76-285.634 1711.041-35.77 210.46-69.684 422.872-105.891 632.797m742-517.5h-14c-1.876 43.537-9.222 87.789-29.155 127.045-13.442 23.894-40.596 53.395-23.93 86.11 11.012 22.55 41.623 28.23 62.23 16.206 15.437-8.46 26.079-27.158 30.582-42.045 8.155-26.68 7.268-60.098 3.676-85.091-4.235-26.916-11.683-53.405-21.14-78.925-2.33-7.898-6.112-15.367-8.263-23.3m-10-28c26.342-.062 53.834.44 78.743-9.702 10.967-4.505 21.046-11.037 30.418-18.23 6.737-4.528 7.652-10.785 6.839-17.818V2191h199c-3.631 31.914-4.098 64.3-9.5 96-12.153-19.652-36.334-34.799-55.635-42.233-11.62-4.826-23.906-7.633-36.022-10.8-11.06-2.223-25.536-8.452-33.843 4.533 23.032 18.64 41.458 42.312 56.116 67.933 3.586 6.622 6.877 13.389 9.614 20.39 2.053 5.451 3.975 10.953 5.402 16.597 1.938 8.207 15.257 11.007 21.26 12.736 9.623 2.373 16.569-.962 24.608-4.156-3.818 23.945-8.943 47.668-15.039 71.131-4.619 17.046-10.066 34-17.12 50.188-5.548 11.256-11.304 23.263-21.804 30.888-16.917 12.705-39.07 10.206-58.747 8.853-20.802-.835-41.493-3.238-62.29-4.06v15c23.538 3.71 48.198 14.694 61.688 35.265 7.508 9.937 10.016 22.54 11.918 34.531 1.84 13.326 2.54 26.761 2.394 40.204 27.543-.626 55.446-3.746 81.276-13.913 17.542-7.883 35.203-17.003 48.957-30.82 21.184-20.184 35.424-46.534 46.3-73.353 11.343-28.104 17.99-57.789 24.632-87.247 13.517-72.173 21.832-145.369 25.835-218.667 11.045-1.66 21.69-4.872 32-9v430c29.925.42 60.872.661 89.06-11.094 11.968-5.932 26.198-13.487 34.872-22.361 5.63-5.132 3.806-14.923 4.068-21.59V2552h319.2c9.876-.669 21.772.96 30.72-.875 7.054-1.848 17.74-8.347 15.022-16.059-40.137-36.742-82.88-71.154-125.442-105.066-13.372 17.263-26.298 34.926-39.636 52.222-10.151 13.038-19.522 26.747-30.176 39.36-4.617 3.93-13.456 1.713-20.1 2.418H1644v-45.6c-.199-3.203.064-6.97.572-9.836 29.775-32.79 58.608-66.657 82.262-104.29 11.905-18.139 23.139-36.744 33.567-55.776 10.764-19.804 22.264-39.52 30.599-60.498h2c7.07 21.874 15.412 43.574 21.244 65.902 4.862 16.727 8.572 33.745 12.206 50.756 1.718 5.927 1.277 13.238 7.37 17.416 17.052 13.253 37.807 25.257 60.318 23.382 22.808-2.027 40.71-19.396 48.504-40.106 9.379-21.37 10.351-45.166 9.072-68.092-.986-22.912-6.662-45.257-13.482-67.015-12.896-36.088-30.144-70.723-51.3-102.666-7.373-10.23-14.116-20.952-22.2-30.651-2.471-4.11-7.293-8.25-9.238-13.45 12.088-41.213 24.637-82.44 34.69-124.25a2403 2403 0 0 0 15.055-63.906c.616-2.815 1.352-5.623 1.919-8.447.62-1.989.83-5.227 2.7-6.245 13.755-2.315 34.543-1.994 39.142-22.628-57.62-13.476-114.393-31.358-172-45-1.05 29.578-4.345 59.057-6.88 88.522-1.276 14.593-2.897 29.144-4.645 43.681-.775 7.22-1.72 14.426-2.492 21.637-.337 3.626-1.04 7.203-1.432 10.81-.468 3.085-.343 6.983-2.051 9.35-36.908-29.127-74.579-58.71-115.5-82v-136h309c9.33-.21 20.467.635 28.883-1.274 6.687-1.798 13.93-6.186 15.138-13.436 1.032-2.728-3.062-5.33-5.028-7.631-18.877-16.315-37.756-32.664-57.45-48-9.375-7.682-18.974-15.075-28.36-22.726-5.001-3.712-9.86-7.652-14.704-11.55-4.908-2.917-9.466-8.756-14.479-9.383-18.567 26.33-40.375 51.278-59.542 77.366-1.946 2.274-3.982 5.423-6.27 6.981-27.082 1.861-54.587-.338-81.743.653h-61.614c-7.338 1.01-14.117-1.128-20.19-5.175-22.053-10.707-44.19-21.243-65.975-32.5-21.706-10.789-43.87-20.742-65.166-32.325-2.14 18.444 1.14 37.597-1 56-23.037-20.427-47.187-39.619-71.5-58.5 2.146-3.898.184-10.424 1-15.43V1636h62v26h168v-15c.295-3.651-1.015-10.479 3.572-10.677 14.975-.918 30.066.164 45.063-.323 3.595.133 7.888-.276 11.13.431 3.457-.24 2.985 3.79 3.211 5.928.068 8.21-.012 16.434.024 24.641h129v-125h-25.2c-6.065-.17-13.279.351-18.77-.542-10.344-11.75-14.548-28.444-24.03-40.958 18.205-1.398 36.736.231 55-.5.668-85.87-4.794-171.814-18.154-256.688-9.317-61.888-23.253-123.5-48.738-180.914-35.904-80.75-92.512-154.124-168.163-201.135-19.114-12.048-39.911-21.295-60.926-29.375-7.527-3.46-20.376-3.384-20.004-12.71-.149-29.708-11.259-58.932-28.144-83.003-8.57-11.506-19.03-21.784-30.912-29.856-6.904-5.691-13.726-6.105-21.688-5.319-8.027.569-16.324-.736-24.271.5 1.883 3.18.9 8.5 1.615 12.684.878 29.016.906 64.23-7.615 89.816-7.654.951-7.902-6.693-9.518-11.806-6.191-17.823-17.52-34.241-33.21-45.075-7.375-5.306-16.685-10.63-24.405-13.798-9.653-4.037-20.726-1.378-30.867-2.321 5.501 21.045 8.428 42.813 8 64.578.235 20.45-2.065 41.058-8.036 60.682-3.098 7.1-14.318 10.128-20.94 15.641-15.028 8.797-28.09 21.024-37.63 35.58-17.275 28.2-21.052 62.034-33.095 92.257-5.244 13.375-11.13 26.64-19.451 38.418-33.225 43.636-43.809 99.16-66.008 148.164-1.622 4.503-6.308 9.8-4.762 14.06 9.275 15.898 19.642 31.284 29.415 46.9 8.533 12.694 17.125 29.214 27.504 38.871 12.01 9.446 27.289 14.021 42.437 15.072 7.08.165 14.222 1.13 21.284.289 24.915-4.373 41.767-25.775 56.227-44.418 11.11-14.39 23.026-28.12 36.167-40.678 4.87-4.355 10.774-9.445 15.935-12.52 11.663-3.39 24.91-2.192 36.872-4.957 18.032-2.322 36.372-5.714 52.185-15.168 7.417-4.84 14.306-10.605 19.657-17.742 2.681-3.353 5.346-6.771 7.428-10.538 1.928-3.127 2.946-8.592 7.811-8.491 4.423 16.9 1.56 35.162-5.886 50.718-13.34 26.282-35.618 46.272-55.09 67.757-15.725 15.814-31.954 31.21-46.303 48.277-10.508 11.553-22.194 25.884-29.551 38.179-24.786 45.113-33.502 97.27-34.17 148.069 17.597.721 35.489-.888 53 .5-6.686 12.339-13.579 24.677-20.326 37.005-3.291 6.984-15.886 3.504-21.752 4.495H1316v125c28.568.76 57.55-.926 86 .5-14.141 18.796-29.79 37.194-43 56.5-55.59-.037-111.212.045-166.794-.024-6.045-.238-12.342-4.091-17.39-6.055-38.714-16.932-77.095-35.16-115.816-51.921zm68.5 16c-3.516 1.56-9.02 2.089-13.5 3 .205 7.896 2.879 15.488 3.89 23.278 4.76 29.943 8.712 60.128 9.98 90.43.12 11.962.248 23.948-.062 35.906-.007 10.277-1.776 20.411-2.41 30.616.907 7.841 10.896 13.093 16.46 17.14 12.708 7.639 29.441 5.06 40.055-4.957 17.098-15.565 21.07-39.775 20.078-61.603-.367-21.13-9.175-44.995-17.65-62.111-12.401-25.812-34.861-51.525-54.134-68.993zm47.5-404h56v-116h-56zm0 148h56v-119h-56zm0 145h56v-116h-56zm4 97.349c13.064 24.305 22.961 50.466 32.41 76.392 9.255 27.132 15.995 55.469 16.59 84.259 3.529 1.017 6.482 5.64 10.567 7.362 12.544 9.247 30.908 7.94 41.787-3.268 11.084-10.758 14.979-27.173 14.553-42.09-1.548-29.028-17.191-55.109-35.62-76.636-10.813-12.497-23.94-22.926-37.144-32.754-6.48-4.495-12.993-9.03-19.77-13.057-3.516-1.798-7.474-5.369-11.06-4.99-4.285.437-8.728 3.092-12.313 4.433zM1248 1209c5.75-27.932 24.692-50.232 46-67.625-.505-1.688-2.275-3.268-3.591-4.81-2.12-.113-4.25.052-6.372.265-21.315.893-42.279 11.173-54.7 28.79-5.816 7.611-11.985 19.667-5.732 26.698 5.73 7.681 15.594 15.2 24.395 16.682m164-244c-.315-3.01.724-8.515-2.43-9.583-3.428-1.309-6.977-2.27-10.503-3.257-14.361-4.569-29.316-9.385-44.512-8.262-14.897.006-34.572 5.89-35.477 21.657-.23 4.716-.364 9.717 1.445 14.107 7.321 4.018 16.166 5.19 24.484 5.293 6.315-.006 13.023.558 18.982-2.028 8.26-3.332 15.133-8.984 22.457-13.854 7.666-4.855 16.986-4.549 25.554-4.073m-66 904h13c14.127-23.16 33.83-43.832 48-67 4.788.617 8.82 6.502 13.467 9.353 16.001 13.204 31.38 27.111 46.853 40.881 5.88 5.266 11.194 11.144 17.379 16.06 2.575 2.404 5.025 4.974 7.534 7.439 13.196 10.81-5.472 22.144-15.598 22.117-43.55.428-87.095-.078-130.635.15v119h13c14.127-23.16 33.83-43.832 48-67 4.788.617 8.82 6.502 13.467 9.353 16.001 13.204 31.38 27.111 46.853 40.881 5.88 5.266 11.194 11.144 17.379 16.06 2.575 2.404 5.025 4.974 7.534 7.439 13.196 10.81-5.472 22.144-15.598 22.117-43.55.428-87.095-.078-130.635.15v116c8.325.033 18.476 1.971 24.602-6.102 17.912-17.188 34.803-36.187 53.898-51.898 30.313 25.645 60.532 51.583 91 77 1.426-143.209-.26-286.72.5-430-13.617 2.392-27.457 2.274-41.305 2H1346zm1-281h478.8c2.73.193 5.383-.124 8.066-.49 3.282-1.481 1.46-7.92 2.134-10.465V1566h-489zm50-61.5c129.02 1.426 258.825-.26 388 .5-2.502-6.44-7.98-14.544-10.87-19.436-2.478-3.498-8.27-2.268-11.918-2.564H1409c-3.215 7.214-8.34 14.645-12 21.5m195-597.75c31.329 27.685 61.033 58.997 81.032 96.229 32.217 59.082 42.688 126.937 46.81 193.173 3.896 70.568 2.762 141.59-4.842 211.848h68c.34-98.988-8.409-198.915-34.466-294.688-12.05-44.395-30.982-86.843-58.71-123.685-13.433-18.768-28.066-36.711-44.557-52.86-8.175-8.202-16.719-16.086-25.943-23.093-4.274-3.562-8.826-6.777-13.493-9.783-5.897-4.79-8.964.501-13.831 2.109zM1644.5 2425c36.716-78.286 61.236-161.835 81.44-245.702 2.38-11.301 5.111-22.538 7.463-33.828 1.116-8.857 6.05-21.703 2.825-28.93-13.567-29.883-29.13-58.745-44.383-87.752A2049 2049 0 0 0 1644.5 1945c-1.426 79.54.26 159.928-.5 239.65.76 80.049-.926 160.376.5 240.35" style="fill:#000;fill-rule:evenodd;stroke:none"/></svg>