<svg xmlns="http://www.w3.org/2000/svg" width="3000" height="3000"><path d="M327 2801c12.216 1.862 24.708.471 36.999 1h2273.92c11.329-.358 24.784.691 35.081-1-120.491-728.663-243.044-1457.087-363.952-2185.695-7.562-45.508-15.166-91.007-22.753-136.501-.926-5.676-1.91-11.338-2.846-17.012-.592-6.574-7.834-7.318-12.592-8.995-84.008-27.993-167.988-56.006-251.992-83.997-146.987-49.033-294.011-98.01-441-147-13.864-4.623-27.735-9.249-41.6-13.871-6.65-2.27-13.333-4.393-19.968-6.67-6.695-1.935-14.522-6.052-20.509-4.007-103.326 34.432-206.65 68.874-309.962 103.305-154.934 51.793-310.034 103.15-464.917 155.076-4.947 1.7-4.473 8.74-5.53 13.061-24.977 150.002-49.989 300.01-74.997 449.997C536.324 1546.17 430.626 2173.498 327 2801" style="fill:#ffe;fill-rule:evenodd;stroke:none"/><path d="M204 2906.5c431.66 1.426 864.125-.26 1295.95.5 431.946-.76 864.184.926 1296.05-.5-71.347-421.454-140.17-844.031-211.186-1265.681C2515.49 1219.807 2443.894 799.05 2375 378c-18.825-4.147-36.622-12.377-55.173-17.557-141.343-47.107-282.688-94.208-424.008-141.343-105.996-35.346-212.02-70.658-318-106l-60-20c-4.743-1.483-9.392-3.202-14.133-4.67-4.689-1.596-9.296.594-13.846 2.121-144.162 48.092-288.385 96.1-432.543 144.19-72.152 24.045-144.327 48.113-216.478 72.159-35.996 12.013-72.02 23.992-108 36-18 6.028-36 11.971-54 18-9.01 3.004-18.013 5.972-27 9-8.742 2.234-18.56 7.118-26.819 8.1-68.995 421.677-140.705 843.07-210.109 1264.703C344.003 2063.481 275.132 2486.22 204 2906.5M329 2802h2342c1.418-8.982-3.238-21.033-3.949-31.658-104.061-624.695-208.246-1249.348-312.325-1874.03-13.035-78.177-26.091-156.33-39.087-234.506-5.684-34.176-11.427-68.333-17.087-102.507-5.484-32.512-10.775-65.09-16.322-97.584-.35-4.318-5.246-5.84-8.924-6.776-119.14-39.73-238.294-79.434-357.44-119.14-89.345-29.794-178.69-59.592-268.04-89.356-33.532-11.156-67.037-22.35-100.56-33.514-14.725-4.83-29.376-9.897-44.113-14.649-6.084-1.587-13.879 3.175-20.888 4.791-106.32 35.437-212.65 70.878-318.966 106.324-106.162 35.386-212.323 70.781-318.472 106.162-22.66 7.555-45.298 15.12-67.962 22.643q-16.499 5.534-33 11c-5.508 1.924-11.075 3.626-16.57 5.55-2.638.754-5.168 1.76-7.62 2.94-1.92 1.324-1.738 4.998-2.54 7.473A41206364 41206364 0 0 1 378.47 2497.186c-8.46 50.843-16.934 101.676-25.42 152.51-4.23 25.507-8.5 51.006-12.754 76.5-2.099 12.678-4.247 25.336-6.325 38.003-1.033 6.327-2.146 12.648-3.163 18.975-.702 6.08-2.813 13.274-1.807 18.826" style="fill:gray;fill-rule:evenodd;stroke:none"/><path d="M327 2802.5c781.355 1.426 1563.485-.26 2345 .5v-3c-12.216 1.862-24.709.471-36.999 1H362.881c-11.276-.349-24.632.682-34.881-1 .022.935-.325 1.723-1 2.5" style="fill:#f0f0e1;fill-rule:evenodd;stroke:none"/></svg>