<svg xmlns="http://www.w3.org/2000/svg" width="3000" height="3000"><path d="M326 2802.5v1.5h2347c-.373-12.822-4.058-25.348-5.508-38.051-117.27-703.542-234.496-1407.1-351.766-2110.637-7.344-43.997-14.655-88.002-22-132-3.6-21.02-6.91-42.124-10.625-63.12-1.141-5.243-8.647-5.77-12.81-7.59-158.488-52.846-316.994-105.666-475.472-158.502-59.502-19.835-119.024-39.669-178.52-59.495-26.013-8.653-52-17.351-78-26-12.476-3.645-24.567-8.834-37.16-12.04-6.368-.025-12.224 3.635-18.313 4.993-92.992 31.026-186.022 61.963-279 93A1893485 1893485 0 0 0 785.82 433.9c-17.522 5.819-35.005 11.685-52.52 17.495-3.82 1.309-7.668 2.508-11.462 3.872-7.078 2.018-5.509 14.447-7.54 19.93a1026382 1026382 0 0 1-55.17 330.994C547.67 1471.398 438 2137.571 326 2802.5m660-606.875c2.678 2.663 6.702 4.487 9.5 6.375 20.71-16.28 42.797-30.996 62.196-48.932 10.378-8.953 20.507-18.21 30.406-27.67 4.729-4.967 10.175-9.154 15-14 4.637-3.682 9.747-11.535 14.898-12.398v541c22.881.236 46.043 1.022 68.536-4.145 15.51-3.982 31.04-8.009 45.654-14.737 10.049-4.425 21.376-10.856 29.435-16.864 8.986-5.968 5.847-17.851 6.375-26.124V1990c12.113-3.091 27.248-7.21 31-20-21.973-5.01-42.033-16.97-64-22 3.553-11.205 12.946-20.153 17.651-30.909 21.073-36.725 41.293-74.079 58.434-112.825 8.974-19.563 17.261-39.437 25.173-59.448 2.412-4.641 2.99-10.437 6.324-14.051 13.824-.586 34.915-2.728 40.418-20.767-65.821-18.626-130.993-40.091-197-58-17.665 96.805-43.715 192.205-77.821 284.533-16.062 45.457-35.446 89.686-55.06 133.672-10.116 21.879-20.851 43.503-32.363 64.674-10.475 20.705-22.567 41.23-34.756 60.746m57-1092.326c-1.013 61.67 12.272 123.024 35.51 179.658 18.061 39.944 40.08 78.476 68.492 112.046 84.613 104.393 219.032 168.172 353.596 165.997 120.43 2.249 238.709-49.604 323.598-133.756 84.578-84.92 135.77-203.876 132.804-324.43 2.371-120.036-49.036-238.106-133.233-322.547-85.086-85.125-204.528-136.212-325.493-133.267-119.818-2.228-237.743 49.072-322.007 133.233-40.49 41.365-73.818 89.395-96.72 142.662-24.168 56.686-37.928 118.352-36.547 180.404m39.007.525c.587 57.212 10.673 114.34 34.145 166.508 31.585 74.45 86.585 137.86 153.329 182.86 33.871 21.742 70.578 39.78 109.263 51.223 40.906 13.345 84.506 17.216 127.243 17.28 109.36-.492 217.194-46.458 293.115-125.297 77.506-78.588 121.542-188.212 118.719-298.7-.851-109.85-47.137-218.074-126.691-294.068-78.161-77.335-188.186-119.831-297.85-117.465-108.529 1.38-216.287 45.916-291.65 124.705-76.578 76.894-120.314 184.303-119.623 292.954M1299 2423.25c3.267 8.54 6.087 19.533 8 27.75h246v190c22.18.336 44.637 1.238 66.258-4.73 15.4-3.594 30.037-9.891 44.477-16.164a166 166 0 0 0 28.777-17.76c3.342-2.396 6.878-5.954 8.37-9.459 2.288-8.243.321-17.147 1.118-25.561V2451h262.2c10.263-.165 22.603-.36 31.674-3.215 6.937-2.087 17.473-9.635 8.37-16.98-21.85-19.15-44.173-37.757-66.83-55.942-11.078-9.221-22.503-17.986-33.696-27.06-5.49-4.612-11.192-8.939-16.925-13.22-2.94-2.126-5.765-4.387-8.704-6.508-2.584-1.881-5.844-4.216-6.089-7.075 18.793-4.106 40.144-12.948 55.608-21.342 4.012-2.436 9.76-5.792 10.124-10.238.764-16.731-.139-33.565.268-50.307V1998c14.441-2.917 30.853-7.848 40-20.5-43.673-35.195-89.416-67.838-133.5-102.5-18.932 19.906-37.398 40.25-56.235 60.235-5.011 4.755-9.75 12.298-16.163 11.755-23.368.03-46.744-.006-70.102.01v-102h229.2c12.81-.102 25.604.126 38.406-.073 11.203.488 21.956-4.363 27.394-14.427-20.987-20.111-44.762-37.118-66.638-56.203-11.512-8.855-22.7-18.154-34.257-26.938-11.982-7.788-21.806-19.26-34.105-26.359-1.415 5.086-7.78 9.627-10.727 15.018-13.9 18.49-28.376 36.556-42.12 55.152-5.321 6.752-10.532 13.543-15.627 20.457-4.627 8.318-14.335 6.496-22.424 6.373h-45.924c-5.64-.141-11.344.316-16.935-.544-6.033-.653-5.29-6.297-5.243-10.428v-52.017c-.494-16.493.828-35.956-1-51.011 15.08-1.415 35.732-6.481 38-28-62.341-5.477-124.637-11.928-187-17v159c-77.929.76-156.151-.926-234 .5 3.183 8.588 5.302 17.73 8 26.5h226v102c-21.618-.007-43.234.009-64.836-.005-7.43.378-14.06-3.264-20.818-5.729-46.226-16.976-91.788-36.38-138.346-52.266v462c16.094-.303 32.227-.641 48.217-2.539 21.838-3.726 43.306-9.91 63.603-18.852 9.47-4.315 20.325-10.164 27.825-16.105 5.289-3.64 6.737-8.562 6.343-14.347.034-6.054-.006-12.104.012-18.157h78v142h-254zM1475 2099h78v-125h-78zm0 154h78v-126h-78zm227 0h87v-126h-87zm0 170h81.6c2.895-.31 7.7.545 9.592-1.32 13.62-15.441 25.036-33.023 38.225-48.887 6.18-8.348 12.8-16.316 18.966-24.66 3.012-4.154 6.227-8.146 9.373-12.188 2.615-3.996 7.655-8.897 8.244-12.945-6.274.428-12.21 2.85-18.34 3.97-19.984 3.754-40.391 4.145-60.66 4.03v-50h-87zm1-324h85v-124h-85z" style="fill:#fd7;fill-rule:evenodd;stroke:none"/><path d="M204 2906.5c431.66 1.426 864.125-.26 1295.95.5 431.946-.76 864.184.926 1296.05-.5-71.347-421.454-140.17-844.031-211.186-1265.681C2515.49 1219.807 2443.894 799.05 2375 378c-18.825-4.147-36.622-12.377-55.173-17.557-141.343-47.107-282.688-94.208-424.008-141.343-105.996-35.346-212.02-70.658-318-106l-60-20c-4.743-1.483-9.392-3.202-14.133-4.67-4.689-1.596-9.296.594-13.846 2.121-144.162 48.092-288.385 96.1-432.543 144.19-72.152 24.045-144.327 48.113-216.478 72.159-35.996 12.013-72.02 23.992-108 36-18 6.028-36 11.971-54 18-9.01 3.004-18.013 5.972-27 9-8.742 2.234-18.56 7.118-26.819 8.1-68.995 421.677-140.705 843.07-210.109 1264.703C344.003 2063.481 275.132 2486.22 204 2906.5m123-104c781.355 1.426 1563.485-.26 2345 .5-118.785-721.214-240.618-1442.068-360.03-2163.199-7.528-45.17-15.046-90.339-22.588-135.492-1.756-10.718-3.574-21.44-5.367-32.15-1.463-5.102-.632-13.609-5.65-15.42-82.419-27.818-165.08-54.96-247.546-82.639-144.35-48.044-288.615-96.253-432.954-144.3-27.19-9.095-54.376-18.14-81.566-27.195-6.024-1.707-14.13-5.746-19.294-4.368-99.967 33.09-199.81 66.647-299.74 99.834a5130220 5130220 0 0 1-448.968 149.67c-9.274 3.513-19.03 5.778-28.13 9.725-3.665 1.962-2.298 9.57-3.876 12.727-22.54 135.51-45.194 271.003-67.739 406.508C540.73 1518.187 435.508 2161.522 327 2802.5" style="fill:gray;fill-rule:evenodd;stroke:none"/><path d="M984 2195.25c2.096 4.894 11.345 8.075 14.874 5.727 13.268-9.629 26.299-19.597 39.158-29.775 27.56-22.142 53.408-46.303 78.468-71.202 1.426 180.159-.26 360.756.5 541 23.192.324 46.568.92 69.41-3.868 15.772-3.9 31.447-8.183 46.319-14.829 10.209-4.426 21.734-10.957 29.896-17.049 8.61-5.294 6.223-18.374 6.375-26.724V1991c12.935-2.257 25.73-7.862 32-20-2.077-2.483-5.661-2.722-8.476-4.034-18.808-6.857-37.647-13.932-56.524-20.466 21.124-33.398 41.552-67.762 58.267-103.684 18.403-36.328 33.59-74.33 49.233-111.816 16.003 2.976 36.335-5.56 41.5-22-66.872-18.68-133.151-40.159-200-59-17.138 97.24-43.917 192.842-77.821 285.533-16.1 45.658-35.635 90.009-55.264 134.197-21.193 42.447-41.485 86.053-67.915 125.52m58-1091.852c-1.097 61.783 12.035 123.283 35.289 180.109 18.13 39.912 39.917 78.632 68.459 112.15 84.819 104.923 219.96 168.862 355.049 166.343 120.268 2.551 238.15-49.119 323.294-132.62 85.577-85.297 137.155-205.276 133.909-326.764 2.547-120.125-48.735-238.375-132.87-322.986-85.376-85.677-205.533-136.856-327.056-133.63-119.923-2.43-238.002 48.759-322.444 132.87-40.619 41.467-74.107 89.607-97.083 143.025-24.403 57.021-37.967 119.133-36.547 181.503m41.01.345c.738 57.107 10.843 114.06 34.361 166.049 31.701 74.384 86.711 137.844 153.592 182.677 33.82 21.802 70.592 39.654 109.24 51.101 41.034 12.978 84.691 17.479 127.527 17 108.967-1.044 216.055-47.674 291.503-126.303 76.964-78.735 120.7-188.146 117.493-298.392-1.38-109.486-48.477-216.801-127.701-292.35-78.335-76.678-187.94-119.047-297.382-116.265-108.055 1.775-214.858 47.017-289.745 125.342-75.808 76.614-119.33 183.128-118.889 291.141M1306 2452h246v190c22.626.178 45.61 1.358 67.693-4.61 15.621-3.541 30.409-9.964 45.042-16.284a166 166 0 0 0 28.777-17.76c3.342-2.396 6.878-5.954 8.37-9.459 2.312-8.439.297-17.549 1.118-26.159V2452h261.6c10.258-.158 22.593-.324 31.699-3.024 5.839-1.697 18.827-9.62 10.41-17.728-43.32-37.684-88.067-73.917-133.709-108.748 11.902-3.525 24.244-6.722 35.502-12.231 9.221-4.029 19.085-7.543 26.827-14.243 4.341-3.658 3.752-8.472 3.671-13.314V1999c15.16-2.774 31.468-8.514 41-21.5-43.907-36.377-91.185-68.64-135.5-104.5-9.394 10.099-19.277 19.785-28.338 30.19-7.002 7.31-15.1 15.968-21.485 22.7-4.887 6.026-10.484 11.376-15.713 17.082-4.102 4.707-12.554 2.357-18.052 3.028H1703v-100h254.4c9.678-.27 20.138.97 29.191-3.39 5.27-2.532 15.324-10.887 7-17.479-42.22-36.942-86.921-71.007-130.591-106.131-20.559 25.303-39.628 52.112-59.95 77.678-5.105 6.492-9.68 13.501-15.412 19.445-6.807 1.638-14.146.408-21.109.877-20.823-.623-41.775.956-62.529-1v-84c-.417-8.71.75-19.138-1-27 9.063-.62 18.174-3.019 26.008-7.721 8.985-5.066 10.25-13.696 12.992-21.779-31.157-4.228-62.9-5.5-94.172-9.12-31.992-2.154-63.807-6.87-95.828-8.38v159h-234c1.652 9.895 6.005 19.172 8 29h226v100c-21.827-.096-43.646.117-65.469-.063-7.088-.407-13.371-4.39-20.056-6.348-46.172-17.444-92.02-35.982-138.475-52.589v465c16.44-.205 32.879-.64 49.21-2.405 21.887-3.343 43.236-9.926 63.605-18.52 9.59-4.513 20.836-10.159 28.465-16.274 5.497-3.662 7.164-8.66 6.708-14.644.034-6.054-.006-12.104.012-18.157h76v140h-254c1.675 10.189 6.662 19.711 8 30m170-354h76v-123h-76zm0 154h76v-124h-76zm227 0h85v-124h-85zm0 170h80.4c2.7-.22 7.065.396 8.819-1.316 26.118-30.971 48.96-64.923 74.781-96.184-6.738-.106-11.925 3.25-18.172 3.827-20.08 3.448-40.512 3.848-60.828 3.673v-50h-85zm1-324h83v-122h-83z" style="fill:#b10;fill-rule:evenodd;stroke:none"/><path d="M1114 2101.438c1.074.283 1.759-1.073 3-1.126l.5 540.688c-.595-180.911 1.265-362.206 0-543-.982 1.21-2.743 2.446-3.5 3.438" style="fill:#dc763b;fill-rule:evenodd;stroke:none"/><path d="M1703.5 2098c.484-40.676.654-81.325.5-122h83l.5 122c.162-40.995.344-82.018.5-123h-85c-.155 41.02.011 81.995.5 123" style="fill:#eeaa59;fill-rule:evenodd;stroke:none"/><path d="M1703 1817c2.01-.005 4.022-.201 6-.5-5.52-.262-5.132-6.358-5-10.473-.76-32.863.926-66.337-.5-99.027-1.426 36.314.26 73.513-.5 110" style="fill:#f6c267;fill-rule:evenodd;stroke:none"/></svg>