<svg xmlns="http://www.w3.org/2000/svg" width="3000" height="3000"><path d="M449 2666.5v1.5h2102v-1.5c-63.81-378.768-126.215-757.87-189.705-1136.696-47.349-283.998-94.654-568.016-142-852-4.398-26.67-8.911-53.338-13.325-80.003-1.118-6.656-2.232-13.342-3.35-19.985-.571-3.586-1.119-7.183-2.096-10.662-1.288-2.958-6.82-3.128-9.193-4.54-101.51-33.828-203.017-67.663-304.512-101.514a746151 746151 0 0 1-266.522-88.84c-39.072-12.89-78.06-26.135-117.144-38.98-4.713-1.335-9.273 1.032-13.839 2.453-144.507 48.104-288.95 96.378-433.449 144.467-54.18 18.08-108.385 36.116-162.566 54.195-23.808 7.923-47.625 15.882-71.434 23.805-5.676 1.96-11.407 3.738-17.06 5.726-6.564 1.113-6.72 8.744-7.34 13.268C740.08 921.349 682.77 1265.54 625.383 1609.692 566.339 1961.663 508.308 2314.864 449 2666.5m609.5-537.5c17.952-12.815 35.815-25.953 52.501-40.443 8.536-7.303 17.043-14.614 25.227-22.3 4.042-3.951 7.964-8.032 12.02-11.968 3.906-2.914 8.682-8.51 12.752-9.289v475c20.32.164 40.854.692 60.796-3.963 13.478-3.27 29.093-7.96 40.817-12.924 9.29-3.934 18.523-8.246 26.635-14.352 8.062-5.564 5.286-16.298 5.752-23.832V1934c11.17-1.34 22.166-6.616 28-16.5-16.21-5.078-31.812-12.33-48-17.5.3-4.49 3.993-8.576 5.918-11.968 35.063-57.33 64.345-118.203 88.082-181.032 7.519-.12 15.18-.962 22.15-3.886 8.121-2.65 11.27-8.845 15.85-14.614-58.898-17.619-118.1-34.815-177-52.5-16.007 88.585-39.823 175.7-71.79 259.863-14.57 41.114-32.054 81.113-50.113 120.77-9.541 19.914-18.934 39.905-29.957 59.06-5.065 9.592-10.28 19.093-15.727 28.47-2.84 4.613-5.935 9.089-8.49 13.866-.906 1.891-3.218 4.979-1.571 6.17 1.768 1.96 4.19 3.067 6.148 4.801m31.5-984.249c-.72 107.966 43.576 215.447 120.706 290.805 75.444 76.314 182.355 120.328 289.634 119.444 107.455.642 214.544-43.531 289.853-120.313 76.53-75.477 120.699-182.572 119.807-290.027.642-107.455-43.531-214.544-120.313-289.853-75.477-76.53-182.572-120.699-290.027-119.807-107.455-.642-214.544 43.531-289.853 120.313-76.659 75.206-120.18 182.105-119.807 289.438m35.058-.007c1.301 27.02 2.168 54.012 8.431 80.198 18.506 86.152 68.683 164.898 138.805 218.229 71.804 55.528 164.567 82.637 254.987 75.647 97.444-6.204 190.955-52.842 254.913-126.572 66.17-74.399 99.703-175.895 91.583-275.085-6.373-97.36-53.038-190.735-126.782-254.585-74.606-65.95-176.318-99.942-275.652-91.106-47.132 2.96-93.417 15.28-135.736 36.242-61.193 30.136-114.396 76.857-151.18 134.415-39.642 59.72-58.634 131.192-59.37 202.617M1319 1967.25c3.152 7.452 4.465 16.009 7 23.75h212v457h-192c.422 8.356 5.769 17.308 6 25h491.4c24.32-.608 48.737.928 73.007-.96 7.513-.896 16.883-4.013 18.97-12.22.627-3.333-5.328-5.789-6.73-7.928-38.911-34.383-80.057-66.221-121.147-97.892-16.809 21.795-33.36 43.875-50.232 65.632-4.025 5.616-8.36 10.99-12.583 16.446-3.34 3.783-5.876 9.219-9.972 11.458-17.823 1.322-35.858-.24-53.713.464v-457h234c8.983-.164 18.756 1.046 26.96-3.545 3.434-1.788 6.72-4.292 7.545-7.864.273-3.051-3.312-5.742-5.828-7.826-39.08-33.4-79.521-65.33-120.177-96.765-18.226 23.421-35.89 47.305-54.044 70.773-4.715 5.92-8.909 12.25-13.708 18.088-3.933 4.844-12.423 2.475-17.837 3.139H1681v-273c13.036-1.357 32.275-8.588 33-26-58.641-5.143-117.456-10.092-176-16v315h-219z" style="fill:#fd7;fill-rule:evenodd;stroke:none"/><path d="M1049 2123.5c1 2.197 4.434 3.356 5.973 4.495 2.572 1.844 5.395 1.923 7.566-.199 15.76-11.136 31.133-22.738 45.914-35.142A881 881 0 0 0 1159.5 2046c1.426 158.157-.26 316.758.5 475 20.763.198 41.763.778 62.162-3.82 14.066-3.483 28.08-7.45 41.45-13.067 9.44-3.996 18.812-8.392 27.01-14.636 7.367-5.036 5.126-16.698 5.378-24.147V1935c11.153-1.992 25.749-6.997 28-19-16.364-4.448-32.057-11.782-48-17.5 37.976-59.878 68.605-124.406 94-190.5 13.78.123 33.441-3.81 38-21-59.98-15.6-118.992-36.477-179-52-16.193 87.176-38.803 173.361-70.492 256.268-14.102 40.446-31.345 79.71-48.954 118.693-9.057 20.014-19.4 39.46-29.26 59.042-9.734 18.386-20.229 37.098-31.294 54.497m40-978.65c-.964 108.243 43.361 216.11 120.706 291.706 75.583 76.437 182.763 120.516 290.243 119.444 107.92 1.036 215.595-43.252 291.244-120.313 76.782-75.775 121.044-183.353 119.807-291.22.886-107.725-43.385-215.152-120.313-290.66-75.775-76.782-183.353-121.044-291.22-119.807-107.725-.886-215.152 43.385-290.66 120.313-76.924 75.486-120.46 182.877-119.807 290.537m37.068.073c1.664 27.031 2.01 54.274 8.811 80.527 18.881 86.357 69.458 165.327 140.39 218.243 72.538 55.342 165.764 81.997 256.594 73.625 96.885-7.548 189.206-55.11 252.049-129.206 65.025-74.95 97.854-176.674 88.352-275.529-7.694-96.782-55.312-189.067-129.466-251.72-75.009-65.161-177.03-97.693-275.901-87.905-91.955 6.95-179.227 51.042-241.694 118.456-63.387 68.298-99.137 160.266-99.135 253.509M1325 1992h212v455h-193c1.626 8.86 6.127 18.764 7 27h524.4c12.274-.18 24.54.35 36.778-.513 9.579.016 22.164-2.9 25.822-15.034-41.309-38.076-86.533-71.609-130.5-106.453-17.177 21.476-33.353 43.76-50.304 65.407-4.06 5.596-8.325 11.017-12.579 16.46-3.225 3.72-6.098 8.981-9.573 11.918-7.364 2.709-18.51.127-26.316 1.215H1682v-455h236.4c9.124.178 19.069.61 26.904-4.97 2.814-1.67 5.18-5.001 5.973-8.696-2.935-5.916-9.916-9.552-14.692-14.482-36.83-31.34-75.228-60.791-113.085-90.852-18.789 22.896-35.538 47.469-54.139 70.517-4.467 6.111-9.088 12.112-13.622 18.158-3.372 5.57-11.456 4.395-17.038 4.325H1682v-271c14.581-1.743 31.71-8.326 34-28-59.7-4.74-119.361-10.626-179-16v315h-219c1.428 8.854 5.407 17.159 7 26" style="fill:#bc1201;fill-rule:evenodd;stroke:none"/></svg>