<svg xmlns="http://www.w3.org/2000/svg" width="3000" height="3000"><path d="M448 2669h2104c-108.019-653.996-218.137-1307.761-326.618-1961.691-6.813-40.83-13.621-81.671-20.41-122.502-.9-5.185-1.732-10.375-2.627-15.558-.693-5.948-7.25-6.546-11.566-8.162a2264805 2264805 0 0 1-451.953-150.644c-56.522-18.824-113.032-37.715-169.56-56.514-12.477-4.17-24.972-8.31-37.44-12.486-6.015-1.98-11.998-4.026-18-6-5.943-1.873-12.256-5.247-18.565-3.023-92.812 30.91-185.585 61.892-278.396 92.78-138.737 46.826-278.12 92.047-416.698 139.266-3.665 1.962-2.298 9.57-3.876 12.727-22.4 134.514-44.811 269.006-67.243 403.502C635.746 1543.503 540.855 2106.166 448 2669m610.5-540c17.827-12.799 35.581-25.892 52.247-40.214 8.741-7.262 17.1-14.889 25.47-22.562 4.098-3.901 7.953-8.024 12.03-11.935 3.907-2.914 8.683-8.51 12.753-9.289v475c20.468.198 41.215.783 61.29-4.075 13.461-3.3 29.082-7.995 40.764-13.019 9.092-4.005 18.287-7.987 26.194-14.146 8.062-5.564 5.286-16.297 5.752-23.83V1934c11.235-1.322 22.179-6.6 28-16.5-16.21-5.078-31.812-12.33-48-17.5 1.391-8.708 9.085-14.887 12.412-22.707 32.332-54.11 59.273-111.41 81.588-170.293 7.501-.307 15.176-.923 22.154-3.882 8.033-2.817 11.278-8.834 15.846-14.618-58.887-17.616-118.111-34.819-177-52.5-15.885 88.814-40.07 176.018-71.93 260.418-14.965 41.075-31.996 81.382-50.336 121.038-9.684 19.74-18.746 39.846-29.86 58.851-5.233 9.62-10.334 19.34-16.128 28.619-2.622 4.327-5.201 8.694-7.784 13.042-.869 1.896-3.246 5.048-1.61 6.235 1.744 1.98 4.213 3.038 6.148 4.797m31.5-984.069c-.367 107.273 43.126 214.915 120.233 289.802 75.037 77.162 182.79 120.84 290.121 120.267 107.227.322 214.886-43.343 289.748-120.602 77.087-75.127 120.647-183.016 119.898-290.345.094-107.189-43.604-214.777-120.975-289.528-75.122-76.835-182.789-120.297-289.972-119.525-106.982-.055-214.472 43.409-289.155 120.602-77.108 74.807-120.023 182.328-119.898 289.329m35.058-.157c1.13 27.086 2.354 54.065 8.464 80.328 18.67 86.2 68.763 165.125 139.144 218.353 71.808 55.57 164.763 82.364 255.144 75.324 97.263-6.368 190.557-52.917 254.384-126.533 66.383-74.437 99.79-176.322 91.54-275.64-6.12-97.022-53.339-189.937-126.358-253.674-74.58-66.452-176.976-100.32-276.531-91.417-93.343 5.004-181.42 50.314-245.202 117.363-64.48 68.625-100.802 161.578-100.585 255.896M1319 1967.25c3.234 7.168 4.845 16.857 7 23.75h212v457h-192c.643 8.576 5.682 16.33 6 25h490.8c24.374-.406 48.8.708 73.134-.907 7.638-.785 17.89-4.963 19.408-12.193.769-3.354-5.315-5.87-6.695-8.008-38.771-34.543-80.165-66.083-121.147-97.892-16.607 21.825-33.353 43.593-50.034 65.37-4.131 5.522-8.243 11.064-12.535 16.448-3.206 3.95-5.832 8.53-9.83 11.724-17.627 1.29-35.443-.222-53.101.458v-456h208.2c11.465-.16 22.958.342 34.396-.546 10.562-.042 21.167-3.41 26.404-12.954-40.656-36.605-84.537-69.717-127.5-103.5-18.25 23.378-35.848 47.322-53.942 70.825-4.89 5.808-8.954 12.216-13.81 18.036-3.933 4.844-12.423 2.475-17.837 3.139H1681v-273c12.985-1.588 32.211-8.66 33-26-58.378-5.157-117.341-10.053-175.5-16-1.426 104.875.26 210.06-.5 315h-219z" style="fill:#fd7;fill-rule:evenodd;stroke:none"/><path d="M338 2761.5c387.06 1.426 774.925-.26 1162.15.5 387.224-.76 774.71.926 1161.85-.5-77.265-456.459-152.125-914.01-228.874-1370.691-28.417-170.851-56.988-341.657-85.4-512.497-12.491-74.824-24.942-149.684-37.431-224.508-5.828-35.176-11.741-70.32-17.569-105.492-3.54-17.097-4.968-34.714-9.072-51.664-1.3-3.941-8.915-3.966-11.797-5.85-133.175-44.44-266.372-88.79-399.558-133.193-116.482-38.867-233.005-77.647-349.48-116.505-6.56-1.974-12.94-4.527-19.527-6.382-6.558-1.31-12.878 2.396-19.017 4.029-100.339 33.452-200.674 66.889-301.01 100.324-87.802 29.33-175.659 58.504-263.446 87.829-38.52 12.817-77.015 25.657-115.52 38.495-18.005 5.974-35.995 12.026-54 18-8.822 2.95-17.652 5.903-26.471 8.83-4.346 1.012-8.371 2.451-8.57 8.208-90.761 544.76-181.624 1089.514-272.367 1634.27-35.423 208.458-69 418.87-104.891 626.797m111-95v1.5h2102v-1.5c-63.81-378.768-126.215-757.87-189.705-1136.696-47.349-283.998-94.654-568.016-142-852-4.398-26.67-8.911-53.338-13.325-80.003-1.118-6.656-2.232-13.342-3.35-19.985-.571-3.586-1.119-7.183-2.096-10.662-1.288-2.958-6.82-3.128-9.193-4.54-101.51-33.828-203.017-67.663-304.512-101.514a746151 746151 0 0 1-266.522-88.84c-39.072-12.89-78.06-26.135-117.144-38.98-4.713-1.335-9.273 1.032-13.839 2.453-144.507 48.104-288.95 96.378-433.449 144.467-54.18 18.08-108.385 36.116-162.566 54.195-23.808 7.923-47.625 15.882-71.434 23.805-5.676 1.96-11.407 3.738-17.06 5.726-6.564 1.113-6.72 8.744-7.34 13.268C740.08 921.349 682.77 1265.54 625.383 1609.692 566.339 1961.663 508.308 2314.864 449 2666.5" style="fill:gray;fill-rule:evenodd;stroke:none"/><path d="M1049 2123.5c1 2.197 4.434 3.356 5.973 4.495 2.572 1.844 5.395 1.923 7.566-.199 15.77-11.244 31.201-22.917 46.105-35.292 17.457-14.977 34.408-30.443 50.856-46.504 1.426 158.157-.26 316.758.5 475 20.947.218 42.172.885 62.74-3.952 13.648-3.322 29.466-8.041 41.314-13.142 9.233-4.069 18.569-8.125 26.568-14.428 7.367-5.037 5.126-16.699 5.378-24.148V1935c11.287-1.946 25.693-6.96 28-19-16.364-4.448-32.057-11.782-48-17.5 37.922-59.898 68.66-124.386 94-190.5 13.696-.765 32.34-2.432 38-21-59.988-15.601-119-36.479-179-52-15.928 87.377-39.19 173.455-70.45 256.62-14.79 40.582-31.313 80.54-49.605 119.657-8.63 19.945-19.123 39.005-28.877 58.374-9.783 18.125-20.038 36.637-31.068 53.849m40-978.753c-.674 107.743 42.879 215.844 120.233 290.986 75.318 77.444 183.583 121.193 291.32 120.267 107.682.542 215.847-43.303 290.922-120.975 77.122-75.403 120.63-183.585 119.525-291.17.371-107.472-43.44-215.393-120.975-290.33-75.403-77.122-183.585-120.63-291.17-119.525-107.252-.332-215.089 43.256-289.957 120.602-77.296 74.975-120.213 182.798-119.898 290.145m37.068.205c1.637 27.34 2.096 54.882 9.02 81.442 19.123 86.165 69.605 164.916 140.588 217.594 72.455 55.497 165.958 81.575 256.67 73.283 96.874-7.713 189.225-55.328 251.888-129.59 65.085-74.926 97.49-176.874 87.969-275.65-7.417-96.637-55.783-188.585-129.405-251.168-75.121-65.411-177.463-97.69-276.513-87.843-91.916 6.736-179.06 51.663-241.42 118.77-63.147 68.3-98.822 160.06-98.797 253.162M1325 1992h212v455h-193c1.88 9.094 6.037 17.703 7 27h523.2c12.333-.093 24.668.263 36.98-.51 9.408-.065 22.796-2.868 26.82-15.033-41.186-38.227-86.431-71.724-130.5-106.457-17.18 21.329-33.132 43.624-50.087 65.124-4.236 5.442-8.16 11.128-12.496 16.484-3.395 3.62-6.153 8.98-9.63 11.945-2.82 2.798-9.548.553-12.898 1.447H1683v-454c78.569-.133 157.15.163 235.707-.088 9.2-.57 19.314-.61 27.13-6.256 2.918-2.04 5.364-5.515 5.68-8.788-8.655-11.001-21.6-18.256-31.517-28.06-31.79-26.062-64.22-51.38-96.5-76.808-18.671 22.995-35.7 47.322-53.976 70.63-4.752 5.89-9.174 12.052-13.785 18.045-3.372 5.57-11.456 4.395-17.038 4.325H1682v-271c8.065-.623 15.658-4.192 22.62-7.974 7.794-4.793 8.945-12.313 11.38-19.526-59.466-6.105-119.477-10.444-179-16.5v315h-219c1.527 8.824 5.471 17.152 7 26" style="fill:#b10;fill-rule:evenodd;stroke:none"/><path d="M1318 1966.25c7.72 1.988 18.785-.238 26.817.75H1538c-.163-104.335-.335-208.671-.5-313l-.5 312c-72.955.38-146.093-.463-219 .25m28 481c7.902 1.986 15.604-.236 23.817.75H1538c-.164-151.999-.335-304.013-.5-456l-.5 455c-63.62.38-127.434-.463-191 .25" style="fill:#cc441e;fill-rule:evenodd;stroke:none"/><path d="M1682.5 2447c.496-151.33.663-302.671.5-454 80.673.14 161.33-.054 242-.5-81.014-.45-162.001-.642-243-.5-.164 151.677.003 303.337.5 455" style="fill:#eeaa59;fill-rule:evenodd;stroke:none"/></svg>