<svg xmlns="http://www.w3.org/2000/svg" width="3000" height="3000"><path d="M364 2760.5v1.5h2272v-1.5c-68.931-409.09-136.257-818.54-204.874-1227.691-51.076-306.848-102.33-613.661-153.4-920.497-4.868-28.824-9.564-57.688-14.431-86.508-1.116-7.008-2.365-13.985-3.488-20.978-1.2-6.774-.246-15.245-9.425-16.859-109.868-36.632-219.702-73.24-329.563-109.867-95.996-32.013-192.02-63.992-288-96-41.993-13.978-83.98-28.011-125.966-41.994-5.663-2.605-10.407-1.693-15.513.621-156.173 52.06-312.354 104.114-468.521 156.173-58.68 19.531-117.334 39.097-175.992 58.657-25.668 8.506-51.298 17.139-76.962 25.643-6.176 2.075-12.369 4.11-18.537 6.195-3.02 1.124-6.483 1.813-8.8 4.255-62.934 375.423-125.132 751.075-187.889 1126.544C490.857 1998.664 428.048 2380.37 364 2760.5m657-776c1.204 5.049 5.576 6.872 9.574 4.856 28.344-10.01 55.677-22.554 82.928-35.117 7.448-3.721 14.901-7.423 22.333-11.167 7.205-2.874 14.811-9.494 22.165-10.072v178c28.281-.04 57.274.54 84.65-7.907 12.704-3.479 25.003-8.519 36.254-15.388 5.44-3.401 10.563-7.365 14.9-12.105 4.66-4.842 2.743-13.677 3.196-19.6h73v2c-44.456 41.349-95.037 75.98-147.47 106.38-27.318 15.11-55.029 29.61-83.693 42.051-14.328 6.192-28.808 12.047-43.334 17.756-7.376 2.934-14.974 5.218-22.348 8.135-3.547 1.393-7.314 2.319-10.563 4.336-2.864 2.361 1.941 7.615 1.408 10.342 121.192-18.741 241.333-49.395 354-98-.347 4.635-5.939 7.558-8.806 10.49-51.53 47.97-110.257 87.498-170.112 124.137-60.78 36.387-124.954 66.611-191.082 91.873 1.862 3.125 2.94 7.374 4 10.5 72.352-11.65 143.294-30.613 213.232-52.242 34.15-11.31 68.16-23.079 101.483-36.638 16.448-6.64 32.899-13.27 48.964-20.773 16.21-5.948 30.913-16.12 47.321-21.347-.688 4.576-6.094 8.785-9.37 12.87-57.555 59.383-124.355 109.261-195.612 151.015-36.485 21.418-73.863 41.444-112.752 58.2-19.209 8.723-38.865 16.47-58.599 23.896-19.585 8.686-41.092 13.188-60.667 21.519 1.719 2.94 2.668 7.635 4 11.5 79.092-11.064 157.3-28.248 233.672-51.63a1341 1341 0 0 0 114.047-40.448c17.962-6.954 35.456-14.962 53.015-22.816 8.905-4.191 17.916-8.145 26.6-12.78 9.1-3.331 18.728-11.083 27.666-12.326-.42 17.683-4.01 38.44-7.902 54.15-2.02 6.72-3.711 13.702-7.296 19.81-8.364 11.142-23.995 7.26-34.619 8.04-37.809.31-75.42-4.073-113.183-5v7c25.97 6.597 56.911 20.328 72.707 39.979 17.963 25.105 22.508 56.999 22.293 87.021 29.793-.04 59.578-1.752 89.024-6.356 20.706-2.971 41.308-9.004 59.033-20.383 26.18-17.847 39.027-49.419 46.61-78.891 8.79-31.694 9.96-64.781 8.123-97.364-3.9-55.581-20.515-110.013-46.455-159.171-12.903-23.202-27.621-45.486-44.696-65.84-8.464-10.653-18.186-20.193-27.886-29.706-5.056-4.572-10.283-8.88-15.322-13.452-4.093-4.556-12.27-8.039-12.431-13.837 17.315-8.273 33.425-19.499 49.366-30.168 8.213-5.692 16.098-11.819 23.928-18.003 4.102-2.888 7.738-6.332 11.578-9.525 3.05-2.929 6.669-6.715 12.128-6.304 6.122 50.487 17.238 100.446 30.424 149.51 19.127 68.657 48.392 135.364 92.847 191.562 43.716 56.196 100.9 100.508 162.229 135.928 10.097-29.317 22.827-58.545 44.478-81.472 21.226-22.513 49.496-38.733 80.022-44.528l1-10c-53.917-15.469-107.175-34.729-157.836-58.928a534.5 534.5 0 0 1-70.188-40.756c-10.985-7.688-21.69-15.758-32.188-24.077-5.008-4.278-11.046-9.136-15.39-13.341-4.259-4.724-12.343-8.719-12.398-14.898 39.499-8.36 78.512-19.534 117.476-30.124 19.24-5.635 38.341-11.702 57.262-18.289 4.829-1.481 9.507-3.263 14.217-5.05 12.447-4.335 32.41 6.693 42.045-11.537-23.221-14.373-45.285-31.664-68.32-46.557-11.37-7.859-22.794-15.608-34.053-23.619-5.78-3.845-11.436-7.834-17.11-11.808-4.452-3.854-13.57-7.774-14.517-13.016 16.93-3.18 36.053-11.09 50.308-17.666 4.178-1.888 8.502-3.984 11.074-7.947 1.684-14.698-.242-29.765.618-44.532v-67.678c.134-5.778-.175-11.57.122-17.339-.105-4.46 4.135-5.57 7.542-6.575 10.702-3.064 20.814-8.395 28.336-16.763-42.153-30.727-84.166-62.134-126.5-92.5-15.594 15.926-29.76 33.152-45.733 48.733-6.235 5.167-11.053 15.504-18.65 16.164-66.047.294-132.082-.054-198.117.103v-3c33.568-10.353 65.484-25.59 97.341-40.17 16.403-8.713 33.498-16.11 49.649-25.268 13.354-8.874 35.22-3.214 49.01-18.062-39.204-31.311-76.236-66.329-115.5-97.5-11.55 11.86-22.597 24.166-34.602 35.602-8.766 8.9-16.891 18.399-26.01 26.976-3.247 4.03-9.515 3.62-14.142 3.422H1394c.627-4.871 7.015-8.594 10.37-12.87 13.795-13.453 26.151-28.365 39.662-42.045 14.846-5.592 42.186-.718 49.968-22.085-55.452-9.284-110.414-21.897-165.798-31.668-5.126-1.033-10.255-1.986-15.359-3.078-4.237-.356-11.517-3.703-13.842.325-32.384 64.753-73.398 125.02-119.354 180.888C1132.524 1887.01 1081.07 1941.025 1021 1984zM1036 749h120v148c-9.374-1.443-17.616-7.382-26.585-10.192-25.66-10.095-50.616-22.144-76.415-31.808v737c28.847.787 58.925-2.441 84.29-17.511 5.85-3.42 11.592-7.194 16.407-12 8.44-7.717 6.225-21.978 6.303-32.211V1495h195v85c17.015.31 34.12-.392 50.699-4.513 11.971-3.147 23.634-7.387 35.021-12.184 8.134-3.285 16.143-6.9 23.546-11.628 7.647-4.56 7.454-11.719 6.734-19.122V1178c59.945-39.989 109.026-97.687 143-161h4c4.389 11.965 9.622 23.785 12.086 36.41 2.544 9.798 4.033 19.86 3.908 30 .18 4.006-.285 8.808.363 12.45.707 5.213 9.688 8.416 12.949 11.39 8.107 5.027 17.595 7.967 27.09 8.647 9.497 1.275 17.881-3.747 26.604-5.897-.68 5.451-6.04 11.243-8.902 16.873-10.775 15.923-21.039 32.39-34.098 46.627 3.168 1.935 5.63 4.876 9.072 6.472 2.035 1.757 6.048-1.625 7.982-1.996 7.449-3.492 14.505-7.712 21.61-11.802 28.685-16.353 55.76-36.007 79.569-58.907 12.574-11.729 24.866-23.722 35.682-37.162 9.612-12.655 22.483-27.115 29.085-40.105h4c8.637 19.457 20.145 37.873 26.562 58.409 6.074 15.85 10.805 32.195 13.198 49.03 1.164 6.252.315 14.72 5.003 18.484 16.365 13.46 39.143 20.644 59.572 12.342 19.316-6.926 33.38-25.628 36.781-45.52 4.428-23.442-7.724-50.201-21.826-65.792-15.585-16.464-33.879-30.594-54.354-40.492-14.397-7.272-29.655-12.8-45.13-17.226-.6-.108-1.21-.156-1.806-.235.244-8.82 7.893-16.987 10.473-24.244 11.154-24.153 21.941-48.565 30.527-73.756 15.055.45 34.887-4.895 38-21-51.77-11.933-102.971-26.955-154.5-40-2.398 3.504-1.314 9.696-2.447 14.473-7.764 69.894-26.568 138.338-55.053 202.527h-3c-1.892-17.748-15.187-31.665-28.34-42.207-13.696-10.807-29.884-17.702-46.392-22.863-6.172-2.724-13.356-3.326-19.347-6.213-1.842-5.108 3.454-10.93 4.773-15.475 7.725-18.098 15.556-36.202 21.693-54.916 1.64-4.785 2.993-9.73 5.592-14.098 6.642-2.745 15.471-2.004 21.936-6.212 6.43-2.985 12.68-9.293 15.085-15.391-4.589-3.433-13.007-3.082-19.214-5.448C1637.527 863.433 1592.305 852.45 1547 842c-6.652 102.461-31.842 204.132-73 298h-3V944c12.975-.094 26.986-8.238 35-16.5-26.589-20.713-52.882-41.83-79.457-62.568-6.817-5.227-13.387-10.736-20.211-15.933-2.587-1.168-5.725-5.797-8.28-3.939-15.683 15.81-30.428 33.04-46.052 48.94h-2V749h130.2c11.853-.148 26.607.036 33.8-14.5-17.358-17.616-36.195-33.656-54.93-49.763-18.626-15.305-36.841-31.734-55.57-46.737-19.002 24.295-35.929 50.251-54.276 75.045-1.823 2.246-3.492 5.288-5.44 7.113-2.204 2.275-6.66 1.7-9.083 1.842H1029c1.3 9.202 5.895 17.728 7 27m124 421h3c22.054-78.237 18.226-160.68 19-241h-22zm0 129h195v-114c-14.207-.06-28.407.075-42.607-.041-10.88-.408-24.394-2.117-32.776-8.143-7.705-5.756-10.69-15.21-12.014-24.3-2.9-18.329-.84-37.08-1.603-55.536V929h-26c-.084 65.459-1.315 132.34-21.9 195.178-8.945 29.092-23.649 56.285-43.253 79.594-2.412 3.014-4.89 5.97-7.717 8.598-2.106 2.201-5.113 4.758-6.692 7.504-1.25 26.29.227 52.804-.438 79.126m0 170h184.2c3.562-.292 10.32.97 10.442-3.544 1.02-31.758-.185-63.695.358-95.477v-23.906c-.32-5.706.446-12.533-.378-17.72-.087-4.709-8.764-2.84-11.385-3.353H1160zm80-567h26V749h-26zm30 962c11.7 3.46 23.04 8.313 34.557 12.33 10.778 3.989 22.593 2.242 33.847 2.67h107.674c5.107-.23 12.779.917 16.149-2.113 10.687-12.903 18.79-27.705 27.342-42.014 4.42-7.284 8.653-14.664 12.572-22.215 3.117-7.733 10.144-17.635 10.859-24.658-48.609.008-97.227-.01-145.836.005-9.402-.013-17.1 11.953-25.812 17.491-11.864 10.282-24.186 20.02-36.565 29.667-6.182 4.955-12.608 9.61-18.903 14.417-4.639 4.608-14.907 8.585-15.884 14.42m27 165h135v-124h-135zm58-918V929h-29v156.2c.566 7.756-1.386 18.901 4.21 23.912 3.651 2.593 8.093 1.606 12.318 1.888zm118-309.75c2.225 4.988 2.792 10.765 4.777 15.91 1.374 3.416 1.736 10.342 5.768 10.485 13.874 1.007 27.92-.179 41.813.355h400.412c9.998-.036 19.998.045 29.994-.026 7.678-.474 17.121-.16 23.778-2.85 5.562-1.812 13.868-9.305 9.38-14.47-33.24-32.337-69.235-62.126-104.922-91.654-10.551 12.891-19.62 27.294-29.776 40.567-9.24 14.017-20.615 27.131-29.224 41.433h-48V683c6.772-1.608 13.977-2.548 20.047-6.246 6.93-4.025 8.992-9.974 11.953-16.254-6.325-2.453-13.67-1.183-20.295-2.367-47.23-3.689-94.448-7.95-141.705-11.133v154h-174zm3 489c2.317 4.456 3.074 11.572 5.283 17.17.75 4.381 1.846 9.264 8.101 8.555 14.59.07 29.166-.013 43.744.025H1647v280c20.416.295 40.925.637 61.089-3.154 13.9-2.522 27.715-5.625 41.035-10.392 9.249-3.598 21.724-6.717 28.19-13.672 2.516-3.032 1.337-8.695 1.686-12.986V1316c64.21-.115 128.429.14 192.627-.076 7.086-.366 14.943-2.831 19.172-8.94 4.29-6.115-3.473-10.792-7.17-14.854-15.438-15.31-32.462-28.876-48.543-43.477-16.678-12.737-31.037-28.963-48.422-40.653-14.283 19.055-27.896 38.708-42.065 57.87-3.66 4.837-7.15 9.808-10.668 14.743-2.662 3.048-5.19 8.78-9.165 9.029-15.198 1.016-30.54-.18-45.766.358v-66c14.316-.364 32.29-7.708 37-25.5-56.042-6.677-112.825-9.334-169-15.5v107h-171zm91 738.75h144v-124h-144zm214 59c-22.9 5.596-46.52 6.508-70 6v-38h-127c3.973 21.206 14.007 45.036 21.473 63.243 12.19 30.605 29.656 58.708 49.235 85.033 5.05 6.284 9.919 12.741 15.151 18.857 5.759 6.199 10.092-2.587 13.733-6.236 11.97-13.627 23.586-27.558 34.898-41.724 11.722-13.785 22.377-28.405 33.56-42.608 5.377-7.364 10.75-14.741 16.019-22.178 4.048-6.84 12.413-15.454 12.931-22.387" style="fill:#fedca9;fill-rule:evenodd;stroke:none"/><path d="M1019 1984.625c1.214 3.112 4.934 6.185 6.5 8.375 44.938-16.815 88.947-36.935 131.5-59v178c28.558-.1 57.838.724 85.543-7.593a144.3 144.3 0 0 0 36.903-15.405c5.574-3.508 10.92-7.519 15.359-12.402 4.658-4.842 2.742-13.677 3.195-19.6 23.568.76 47.55-.926 71 .5-44.085 39.595-92.52 74.254-143.842 103.85-52.693 30.458-108.674 54.862-166.158 74.65.578 4.091 3.692 8.213 4 12 61.843-8.81 123.09-22.669 183.577-38.15 57.94-15.42 115.89-35.089 170.423-59.35-52.271 49.75-111.943 91.112-173.286 128.727-62.693 37.066-128.128 69.976-196.714 94.773.379 4.583 3.165 8.54 4 13 72.434-10.782 143.387-30.426 213.348-51.667 34.289-11.182 68.356-23.01 101.778-36.567 32.297-12.708 64.727-27.767 95.874-42.266-57.42 62.407-125.905 114.11-198.557 157.524-37.118 22.722-75.8 42.83-115.563 60.495-19.756 8.761-39.678 17.183-59.962 24.648-20.404 8.872-42.544 13.694-62.918 22.333.552 4.694 3.29 8.84 4 13.5 79.368-10.16 157.55-28.244 234.125-51.176 76.426-22.152 149.638-53.897 220.875-88.824-.859 17.558-4.206 38.221-8.376 53.79-1.995 6.416-4.034 14.38-7.74 19.442-9.766 9.644-22.712 5.932-34.86 6.768-37.412.128-74.658-4.166-112.024-5v9c25.97 6.597 56.911 20.328 72.707 39.979 17.963 25.105 22.508 56.999 22.293 87.021 30.32.118 60.669-1.623 90.638-6.297 20.694-2.916 41.23-8.916 59-20.157 26.598-17.912 39.574-49.9 47.171-79.719 8.843-32.138 9.859-65.682 8.005-98.708-7.562-107.774-61.272-212.186-146.814-278.619v-1.5c16.565-7.786 34.615-20.266 48.531-29.61 8.019-5.659 15.933-11.478 23.545-17.66 8.25-4.573 14.91-15.025 22.924-16.73 6.116 50.69 17.355 100.843 30.594 150.095 19.164 69.014 48.771 135.86 93.603 192.187 44.3 55.962 101.77 101.104 163.803 135.718 7.856-30.148 23.082-58.664 43.61-82.094 21.315-22.657 49.669-39.108 80.39-44.906.422-3.35.505-8.106 2-10.5-52.326-18.167-106.545-33.953-156.332-59.175-24.402-11.96-48.136-25.264-70.574-40.604-11.192-7.605-22.026-15.766-32.65-24.129-5.196-4.394-10.57-8.557-15.542-13.207-3.876-5.31-12.238-8.79-13.902-14.385 39.792-8.419 79.077-19.695 118.333-30.365 19.474-5.582 38.668-12.013 57.821-18.534 5.093-1.381 9.871-3.7 14.91-5.176 7.764-1.397 15.847 1.338 23.677-.154 7.19-.844 13.383-5.383 17.259-11.271-44.51-31.95-90.734-61.714-135-94a365 365 0 0 0 41.17-13.764c8.38-3.903 22.246-7.778 20.83-20.347v-106.608c.283-5.346-.417-11.712.402-16.574-.082-3.629 6.513-4.127 8.693-5.403 9.843-3.587 22.984-9.164 26.905-17.804-41.666-32.21-85.395-62.286-127.5-94-15.69 15.608-29.588 32.851-45.37 48.37-6.389 5.128-11.36 15.229-18.307 17.267-33.026 1.036-66.19-.189-99.24.363-32.796-.76-65.87.926-98.583-.5a938 938 0 0 0 97.847-40.93c16.541-8.719 33.746-16.269 50.018-25.479 13.635-8.364 35.693-2.832 49.135-18.591-39.728-32.322-77.763-67.364-117.5-99.5-11.698 11.812-22.786 24.159-34.733 35.733-8.897 8.868-17.13 18.381-26.14 27.134-3.805 4.5-8.54 4.443-13.682 4.133-36.56-.76-73.509.926-109.945-.5 15.952-15.174 30.821-31.31 45.476-47.677 5.686-8.406 20.478-6.362 30.828-9.567 10.891-1.36 20.003-8.058 24.696-17.756-.458-.45-.911-.96-1.25-1.5-55.689-9.428-110.924-21.98-166.547-31.876-5.199-.98-10.368-2.08-15.556-3.095-4.274-.32-11.723-3.738-14.365.159-32.774 64.95-73.648 125.758-120.059 181.774-47.127 56.987-99.173 110.547-159.223 154.038zM1035 750h120v146c-34.548-13.602-68.528-29.194-103-43v740c29.382.915 59.957-2.044 85.903-17.263 5.797-3.44 11.572-7.12 16.42-11.858 8.785-7.705 6.743-22.183 6.677-32.601V1496h193v85c17.337.332 34.717-.248 51.648-4.24 12.167-3.112 23.976-7.439 35.554-12.245 8.31-3.333 16.496-7.045 24.064-11.84 7.82-4.725 7.395-12.164 6.734-19.722V1179c59.945-39.989 109.026-97.687 143-161h2c4.389 11.965 9.622 23.785 12.086 36.41 2.544 9.798 4.033 19.86 3.908 30 .18 4.006-.285 8.808.363 12.45.707 5.213 9.688 8.416 12.949 11.39 15.718 10.868 37.143 11.04 53.694 3.25-6.784 10.636-13.257 21.731-20.61 32.031-3.814 5.388-7.582 10.784-11.6 16.015-3.144 4.902-9.874 10.555-10.79 15.454 3.409 1.238 6.908 5.42 10.375 8 69.943-33.55 133.222-86.04 174.625-152h2c8.637 19.457 20.145 37.873 26.562 58.409 6.074 15.85 10.805 32.195 13.198 49.03 1.164 6.252.315 14.72 5.003 18.484 16.564 13.582 39.441 20.532 60.213 12.863 19.623-6.574 34.153-24.922 37.963-44.96 4.284-23.76-4.214-48.33-19.667-66.458-14.352-16.97-35.81-32.697-54.012-41.738-15.27-7.783-31.371-14.04-47.918-18.477A56 56 0 0 1 1864 998c1.187-8.363 8.606-16.03 10.89-23.226 11.115-23.779 21.54-47.96 30.11-72.774 15.834 1.152 33.282-5.297 39-21.219-2.724-2.585-8.262-2.562-12.28-4.101-31.841-8.906-64.05-16.273-95.873-25.22-15.994-3.093-31.443-9.48-47.54-11.805-4.539-.715-2.837 7.88-3.882 10.114-1.159 12.533-3.169 24.95-5.124 37.372-9.397 58.19-25.906 115.4-50.801 168.859-4.09-22.434-21.774-39.034-40.442-50.26-14.225-8.249-29.815-13.92-45.665-18.157-2.738-1.174-7.179-1.009-8.696-3.307.184-5.742 4.598-9.819 5.973-15.379 7.708-18.121 15.326-36.33 21.537-55.033 1.75-3.996 3.02-12.043 7.306-12.692 13.067-1.455 29.747-6.177 35.487-22.672-25.715-7.72-52.575-12.099-78.483-19.288-26.669-5.208-52.677-14.015-79.517-18.212-7.332 102.32-31.044 204.464-73.5 298-1.426-64.604.26-129.362-.5-194 13.53-.032 27.802-8.85 36-17.5-18.065-14.825-36.829-28.815-55-43.499-9.197-7.2-18.335-14.427-27.509-21.647-9.146-5.92-18.006-16.165-27.163-20.354-7.834 8.452-15.385 17.17-23.333 25.501-7.407 8.417-16.819 17.706-23.495 25.499-1.426-47.462.26-95.434-.5-143h129.6c10.909-.074 28.047.082 33.392-13.719 1.903-4.035-5.131-7.88-6.862-10.651-22.798-21.36-46.539-41.726-70.521-61.755-5.638-4.852-11.355-9.548-16.918-14.469-5.784-3.758-12.186-11.577-17.691-13.406-16.6 25.723-36.39 50.092-53.483 75.647-1.814 2.27-3.552 5.25-5.381 7.189-4.177 3.898-12.894 1.151-19.033 2.164H1028c.499 10.003 5.976 19.08 7 29m126 417.5.5 1.5c11.05-37.195 15.935-76.165 17.661-114.855 2.43-41.31 1.097-82.799 1.839-124.145h-20zm0 130.5h193v-112c-14.207-.06-28.407.075-42.607-.041-10.88-.408-24.394-2.117-32.776-8.143-7.705-5.756-10.69-15.21-12.014-24.3-2.9-18.329-.84-37.08-1.603-55.536V930h-24c-.059 65.12-1.328 131.605-21.558 194.175-8.738 29.034-23.311 56.004-42.577 79.409-4.712 5.94-10.23 11.353-15.426 16.783-1.251 25.806.227 51.79-.439 77.633m0 170h183c4.061.061 9.69.51 9.758-4.085.69-31.428-.125-62.954.242-94.393v-23.92c-.152-5.818.32-11.742-.506-17.498-1.81-3.54-8.991-1.255-11.849-2.104H1161zm80-567h24V750h-24zm30 961.5c7.72 3.55 16.52 5.553 24.356 9.045 7.547 2.531 14.955 6.486 23.107 6.442 29.722.037 59.415-.007 89.13.013h44.863c8.205 1.039 11.642-4.668 15.162-10.537 3.37-4.98 6.825-9.908 9.838-15.102 12.566-20.43 25.042-41.337 34.544-63.361h-143.4c-9.272-.22-17.1 11.134-25.46 16.884-22.842 20.315-48.012 38.02-72.14 56.616m27 165.5h133v-122h-133zm56-918V930h-27v153.433c.442 7.808-1.12 17.967 3.134 23.697 2.936 3.201 7.592 2.885 11.597 2.87zm639-297.5c-17.307-17.37-35.77-33.504-54.352-49.473-9.067-8.189-18.587-15.867-27.831-23.85-9.186-7.172-17.733-15.652-27.317-22.177-19.513 27.71-40.899 54.783-59.5 83h-46V684c7.058-1.768 14.769-2.6 20.945-6.852 5.748-4.36 10.208-10.843 11.055-18.148-54.543-4.568-109.342-9.411-164-13v154h-174c1.775 8.807 4.645 17.568 7.313 26.144 1.228 4.663 10.224 1.93 13.276 2.856h450.765c18.41.172 43.564 2.94 49.646-16.5M1646 1317v280c20.708.227 41.545.713 62.023-2.977 14.276-2.456 28.437-5.697 42.101-10.57 9.249-3.597 21.724-6.716 28.19-13.671 2.516-3.032 1.337-8.695 1.686-12.986V1317h169.2c15.143-1.101 38.318 5.563 45.8-15.5-16.776-17.608-35.36-33.235-53.629-49.213-9.344-8.036-18.558-16.202-27.92-24.216-9.07-6.557-18.05-16.991-26.951-22.071-14.44 18.77-27.62 38.551-41.868 57.47-3.666 4.94-7.377 9.842-10.828 14.93-2.57 3.513-4.877 7.366-8.45 9.946-14.935 1.79-30.327-.263-45.354.654v-64c14.787-1.519 34.458-7.237 37-28-56.967-5.134-114.018-10.009-171-15v107h-171c1.707 8.342 5.084 18.008 7.269 25.493 1.778 4.18 10.137 1.612 13.299 2.507H1646m-78 711h142v-122h-142zm17 29.5c17.466 60.724 45.688 121.344 89.5 167.5 19.354-21.664 37.956-44.033 55.957-66.841 8.808-11.423 17.735-22.782 26.236-34.426 4.364-5.774 8.447-11.76 12.702-17.61a163 163 0 0 0 5.943-8.658c1.507-2.464 4.51-5.937 4.162-8.465-22.243 6.898-46.487 5.499-69.5 6v-38h-125z" style="fill:#000;fill-rule:evenodd;stroke:none"/></svg>