<svg xmlns="http://www.w3.org/2000/svg" width="3000" height="3000"><path d="M363 2763h2274c-116.777-706.336-235.544-1412.426-352.792-2118.701-7.351-44.171-14.733-88.332-22.082-132.49-.76-5.347-1.88-10.63-2.64-15.97-.062-6.502-4.856-8.386-10.16-9.572-81.497-27.15-162.975-54.317-244.46-81.467-142.336-47.478-284.708-94.881-427.04-142.357-13.532-4.49-27.037-9.017-40.56-13.514-6.477-2.17-12.972-4.309-19.44-6.486-6.235-1.594-13.427-5.493-19.495-5.034-100.387 32.434-200.209 66.92-300.466 99.791-150.35 50.002-300.828 99.614-451.039 150.05-5.982 1.452-6.275 6.662-6.798 11.742-24.43 146.388-48.84 292.799-73.214 439.189C565.92 1546.494 463.462 2154.662 363 2763m650-1642.75c1.171 2.847 3.579 5.81 4 8.75 42.295-16.514 84.303-34.637 124.343-56.141 19.66-9.763 38.953-20.21 57.725-31.584 9.777-5.53 19.464-11.175 28.947-17.195 4.738-2.797 9.227-5.998 14.06-8.62 4.51-2.047 9.8-6.856 13.925-7.46 1.395 7.623 3.99 15.083 6.363 22.436 1.23 3.938 8.69 1.855 11.406 2.564H1410v146h-317c1.53 7.814 4.104 15.48 6.287 23.128 1.031 4.387 9.247 2.17 12.097 2.872H1410v325h-369c2.007 9.032 5.944 17.753 7 27h871.2c17.107-.61 39.478 1.73 46.8-14.5-44.881-42.728-97.345-76.55-144.5-116.5-14.897 18.507-28.843 37.813-43.568 56.457-11.016 14.33-21.794 28.836-33.016 43-4.197 6.456-14.33 4.139-20.873 4.543H1561v-325h315c9.616-.033 19.664.956 28.745-2.905 7.106-2.379 15.12-10.196 6.122-16.64-41.08-34.688-83.314-67.999-125.367-101.455-13.206 16.043-25.33 33.018-37.943 49.526-10.035 12.141-18.862 25.188-28.742 37.449-1.88 2.411-3.575 4.986-5.914 6.963-5.209 2.03-13.03.447-18.556 1.062H1561v-146h92.4c15.622-.017 31.229.02 46.84-.011 12.777-.589 28.419.765 36.76-14.489-38.155-34.846-80.815-64.522-120.5-97.5-18.04 23.695-37.109 46.611-55.194 70.27-3.55 4.148-7.123 9.63-10.772 13.088-1.853 1.939-5.67 1.485-8.63 1.642H1260v-3c56.397-35.526 108.794-78.345 158.37-122.87 24.812-23.555 49.417-47.34 71.5-73.5 11.415-12.34 21.326-26.009 31.77-39.147a435 435 0 0 0 14.745-20.34c4.895-5.991 8.88-16.765 16.615-16.143 25.118 78.692 69.932 151.08 127.602 210.102 55.832 60.325 126.007 105.004 195.898 146.898 7.135-32.733 20.11-64.775 40.64-91.584 19.716-25.447 45.384-49.046 77.86-56.416-.114-5.027.007-10.056 1-15-81.92-15.375-162.306-39.618-239.683-70.486-36.813-15.407-72.315-33.854-105.333-56.326-16.337-11.92-33.074-23.605-47.354-38.058-7.082-7.385-14.67-14.278-21.562-21.826-3.254-3.86-6.608-7.61-9.706-11.595-2.676-3.503-7.05-7.37-7.362-11.709 10.616-.272 21.033-2.812 31.328-5.095 9.334-2.415 19.049-7.769 22.672-17.28-3.207-2.59-9.227-2.582-13.697-4.295-67.253-17.883-134.571-35.402-201.803-53.33-3.692 5.87-3.366 13.475-6.239 19.699-16.321 48.438-40.524 93.908-68.228 136.753-40.854 64.318-89.837 123.209-142.266 178.28-27.488 27.423-54.356 55.49-83.943 80.744-28.35 24.909-58.514 48.663-89.824 69.524zm3 1040.875c2.617 7.828 6.256 19.224 8 25.875h47c-.978 71.509.327 142.482-5.42 213.348-3.319 33.001-7.162 66.075-14.932 98.353-7.341 31.6-19.536 61.79-33.648 90.881 4.005 3.342 6.994 7.631 10.5 11.418 30.76-22.047 60.177-46.956 82.608-77.8 34.815-46.132 55.433-101.774 67.346-157.873 6.15-28.609 9.17-57.83 12.389-86.877 2.619-30.436 5.582-60.885 6.157-91.45h33v418c19.96-.176 40.31.581 59.805-4.447 13.602-3.595 26.96-8.407 39.542-14.723 9.256-4.703 18.792-9.346 26.602-16.359 2.635-2.52 5.854-5.503 7.425-8.494 2.75-6.114 1.044-15.439 1.626-23.119V2119h3c.349 1.805 1.62 3.206 2 5 118.294-20.776 236.507-53.835 340.768-115.175 49.512-29.703 96.666-63.509 139.12-102.737 21.882-20.161 42.39-41.86 61.794-64.352 4.8-5.615 9.192-11.596 13.935-17.257 3.45-4.087 6.444-9.385 10.52-12.026 15.878-2.978 37.46-3.397 46.863-15.453-41.964-34.706-84.955-69.082-127.5-103l-35.975 35.975c-9.052 8.958-17.933 18.047-27.017 26.955-3.393 3.859-9.771 3.094-14.361 3.07H1665c.407-4.581 6.331-7.113 8.87-10.37 11.992-11.061 24.48-21.55 35.583-33.579 5.76-6.342 17.143-2.973 24.604-4.463 7.556-.45 17.422-4.502 18.943-11.588-60.268-15.96-119.794-35.624-180-52-20.135 52.164-52.067 98.932-85.31 143.46-17.24 22.267-35.303 43.921-54.627 64.387-5.233 4.642-11.146 8.507-15.538 14.128-3.947 3.694-7.669 7.62-10.69 12.104-11.587 10.346-22.799 22.501-35.835 30.921v1.5c5.207 7.11 13.688 2.043 20.173-.057 13.127-4.352 26.052-9.281 38.87-14.472 10.922-5.844 17.594 7.008 22.818 14.204 18.443 25.863 28.277 57.124 28.139 88.825 4.357 1.278 8.872 6.128 14.019 7.974 8.03 4.08 16.757 6.832 25.753 7.489 4.523-.092 9.913-.558 14.014-1.057 4.346-.808 9.185-2.95 13.214-3.406v4c-29.67 16.66-57.728 37.113-88.869 51.436-15.753 8.521-31.715 16.582-48.026 23.982a1316 1316 0 0 1-23.214 10.551c-7.811 2.542-16.324 8.205-23.891 9.031v-421c14.664-3.012 33.195-6.187 37-27-57.485-3.428-114.514-12.582-172-16v332h-50v-233c13.167-.675 31.137-7.284 33-24-52.368-3.789-104.692-8.54-157-13v376c30.044 1.118 60.139-2.818 88.332-13.633 11.77-5.112 28.197-10.073 35.192-20.374 1.313-15.252-.202-30.698.476-45.993h50v153h-187.2c-8.33.343-18.284-.676-25.8 1zM1185 1248c10.283 33.597 20.059 67.637 24.887 102.614 5.015 28.257 7.183 56.81 6.113 85.502.418 5.332-.395 10.675-.38 15.973 3.007 8.258 13.541 12.934 19 18.575 13.106 9.34 28.471 17.01 44.97 17.325 24.308 1.29 47.49-10.81 62.779-29.203 15.68-19.18 21.69-45.091 17.388-69.287-7.47-37.633-32.755-69.385-62.839-92.156-29.671-23.158-64.751-38.173-99.91-50.724-4.516-2.088-8.195-.484-12.008 1.381m193 912.25c2.225 4.988 2.792 10.765 4.777 15.91 1.373 3.416 1.737 10.342 5.767 10.485 13.867 1.007 27.906-.179 41.792.355H1700v244.2c-.218 7.318.994 16.686-3.116 21.989-4.16 5.066-11.21 5.84-17.264 5.8-22.865-.264-45.705-1.42-68.616-2.391-11.32-1.07-22.712-1.054-34.036-1.895-5.766-.405-11.548-.807-17.317-1.11-4.988-.97-12.48.61-15.151-2.593-2.406 2.489-7.037 1.727-9.5 1 .497 3.193-.913 8.66 1.885 10.392 3.488.677 7.059 1.347 10.563 1.985 16.51 3.207 32.998 7.117 48.327 14.195 20.872 11.137 40.938 26.788 51.34 48.67 12.248 22.94 10.11 50.62 16.385 74.758 40.713-5.825 84.502-9.652 121.101-30.892 12.995-7.62 24.574-17.949 32.756-30.671 14.368-24.168 18.216-53.086 19.61-80.63.093-90.94-.016-181.876.033-272.807h124.8c10.245-.205 25.69.406 31.85-11.688 2.143-4.698-2.13-8.354-4.545-11.467-19.138-23.844-39.664-46.503-59.6-69.646-10.24-10.536-19.635-21.792-30.005-32.199-10.41 15.635-18.23 32.963-28.148 48.913-8.896 16.398-19.047 32.477-27.352 49.087h-7v-74.4c.227-6.162-.298-12.383.212-18.525.191-4.365 6.124-4.334 9.452-5.234 10.102-1.919 23.472-8.888 24.336-22.841-57.035-4.532-114.034-9.792-171-15v136h-322zm53 51.125c24.264 31.472 43.387 67.536 55.244 105.518 5.022 15.058 8.469 30.554 10.779 46.247 1.886 6.202-.474 15.741 4.137 19.733 19.206 16.688 46.473 24.81 70.96 16.186 37.131-11.562 57.112-57.323 41.465-92.602-13.053-34.598-44.96-57.79-77.38-72.74-16.593-7.246-33.708-13.33-51.364-17.433-9.18-2.122-18.323-4.365-27.607-5.95-7.842-1.198-17.257-4.891-25.487.502-.293.114-.524.339-.747.539m24-320.875v1.5c33.65 2.894 69.057 6.873 97.97 26.355 14.014 9.245 25.995 23.61 27.973 40.899 1.443 8.96-.707 18.077-4.66 26.112-1.689 3.868-4.123 7.348-6.755 10.609-2.152 3.092-6.161 6.803-6.528 10.025 5.443-.927 10.55-7.328 16.261-10.21 18.373-13.249 36.533-26.808 53.727-41.573 8.57-7.598 17.789-14.47 25.882-22.587 2.003-2.16 4.393-3.939 6.526-5.945 4.123-6.524 14.543-10.52 15.604-17.685-6.058.358-10.03 6.174-15.487 8.202-10.521 5.427-22.61 6.878-34.26 5.443-9.177-1.33-20.973-3.24-23.737-14.325-6.562-15.083-15.834-28.765-26.329-41.343-8.141-8.905-17.403-20.245-26.812-26.316-4.463-1.057-9.179 2.767-12.706 4.873-28.038 16.242-56.537 32.451-86.669 44.466zm141-79v1.5c14.706-.395 29.484-.424 43.862 3.06 19.855 3.647 39.5 13.978 49.337 32.388 5.106 9.144 7.007 20.083 4.761 30.362-1.056 5.338-3.042 10.425-5.542 15.234-2.116 4.161-6.398 8.415-6.418 12.956 5.675-.942 9.911-8.811 15.102-12.602 16.264-16.223 30.81-34.03 45.24-51.858a934 934 0 0 0 20.404-27.122c3.156-4.794 6.329-9.571 9.533-14.324 2.567-4.465 7.562-9.085 7.721-14.094h-100.2c-16.766.431-33.618-.526-50.351.284-7.149 2.157-11.166 8.482-17.868 11.777-4.236 4.47-12.199 6.519-15.581 12.439m8-324.5c3.703.525 7.154 5.893 10.585 3.742 23.516-14.86 45.013-32.93 66.868-50.088 27.69-23.462 55.186-47.144 81.022-72.63 13.514-12.717 25.946-26.408 38.758-39.757 2.808-3.31 6.43-6.8 11.837-6.26 13.332.396 31.075-4.833 33.93-19.007-30.907-9.825-61.35-21.804-92.116-32.202-30.637-11.277-61.798-21.526-92.384-32.798-17.985 83.232-37.066 166.613-58.5 249" style="fill:#fda;fill-rule:evenodd;stroke:none"/><path d="M244 2863.5c418.26 1.426 837.325-.26 1255.75.5 418.681-.76 837.643.926 1256.25-.5-137.483-816.352-271.828-1633.965-409-2450.5-141.513-45.746-282.358-94.352-423.703-140.74-105.839-35.248-211.646-70.575-317.47-105.817l-60-20a8496 8496 0 0 1-28.008-9.343c-4.68-1.543-9.347-3.083-13.982-4.729-5.086-2.015-9.193.742-14.014 2.193-139.528 46.49-279.049 93.006-418.557 139.507C931.703 319.858 792.72 367.853 653 413c-137.126 816.275-271.612 1634.71-409 2450.5m120-103v1.5h2272v-1.5c-68.931-409.09-136.257-818.54-204.874-1227.691-51.028-306.678-102.288-613.313-153.312-919.99-4.869-28.835-9.565-57.678-14.432-86.51-1.133-7.012-2.351-14.007-3.495-21.008-1.484-6.504-.056-15.285-8.94-17.157-109.703-36.573-219.416-73.135-329.12-109.701-96.009-31.978-191.992-64.023-288-96-41.971-14.027-84.002-27.963-125.969-41.994-9.552-4.304-21.398 2.4-30.56 4.946-155.047 51.948-310.255 103.285-465.433 154.805-58.187 19.4-116.394 38.801-174.566 58.195-25.476 8.525-51.019 16.959-76.48 25.505-5.454 2.642-13.186 3.29-17.14 6.618-2.1 1.795-1.737 5.77-2.555 8.884-62.19 372.917-124.31 745.877-186.485 1118.792C490.857 1998.664 428.048 2380.37 364 2760.5" style="fill:gray;fill-rule:evenodd;stroke:none"/><path d="M1547 2017c2.39-.352 5.228-1.613 5-5-2.23-.026-4.118.974-6 2 .33.91.88 1.852 1 3m13-838h2v-145h132.6c5.33-.616 13.51 1.116 17.4-1.5-50.468-1.426-101.435.26-152-.5z" style="fill:#7f6e55;fill-rule:evenodd;stroke:none"/><path d="M1069.5 2318c.693-3.249.64-8.375 0-11-2.631 2.625-3.41 7.856 0 11m336.5-437.75c.047.678.167 1.205.75 1.75 4.773-2.82 7.878-8.08 12.225-11.475 3.09-4.071 9.782-8.302 11.025-12.525-4.871.627-8.594 7.015-12.87 10.37-4.137 3.528-7.529 7.96-11.13 11.88m135 572.125c1.313 1.294 4.548.31 6 .125-.576-.726-.932-1.572-1-2.5-1.935-.116-3.8.866-5 2.375M1547.5 733c1.297-1 3.572-1.095 5 0 .578-1.676-.401-3.993-.5-6h-3c-.284 1.959-2.452 3.507-1.5 6M1658 2458.375c1.313 1.294 4.548.31 6 .125-.576-.726-.932-1.572-1-2.5-1.737.376-3.948 1.02-5 2.375m8.5-534.375c2.234-.424 4.256-3.304 4.5-5-2.458-.46-5.571 3.038-4.5 5m16.5-20c-2.73.06-6.172 4.127-3.102 5.34 3.816.809 4.1-2.889 3.102-5.34" style="fill:#f1d3a5;fill-rule:evenodd;stroke:none"/><path d="M1011 1120.375c2.608 3.093 4.219 7.715 6.5 10.625 40.998-18.292 83.745-34.028 123.04-56.19 38.963-20.06 77.198-42.008 113.96-65.81 1.827 4.489 2.338 9.615 4.123 14.174 1.697 3.09 1.72 9.914 5.388 10.374 30.945 1.29 62.102-.235 93.092.452H1409v144h-318c3.302 8.832 4.751 20.197 8.42 27.16 10.377 2.002 21.415-.042 31.935.84H1409v323h-369c.84 9.934 6.406 19.009 7 29h874.8c11.477-.246 25.501-.139 35.385-4.309 4.874-1.694 7.993-5.95 9.318-10.91-.438-4.31-7.453-7.942-9.896-10.911-28.95-25.306-59.57-48.586-89.954-72.092-11.361-9.02-23.235-17.394-34.35-26.712-4.679-3.59-10.72-10.421-14.618-4.555-14.184 18.7-28.795 37.08-42.923 55.814-10.86 13.767-20.944 28.12-32.098 41.644-4.33 5.031-14.488 2.041-21.416 3.031H1562v-323h321c12.121.426 29.66-.355 35-15.5-20.484-20.15-44.284-36.54-66.057-55.192-11.19-9.206-22.455-18.303-33.857-27.234-11.762-7.947-21.699-19.2-34.086-26.074-4.789 9.086-13.107 16.538-18.53 25.366-11.064 14.555-21.98 29.216-33.197 43.652-4.218 5.467-8.213 11.101-12.484 16.528-3.573 4.385-6.757 11.173-13.874 10.446-48.317.022-96.608-.003-144.915.008v-145c53.374-1.087 106.914 1.326 160.225-.716 5.803-.988 11.322-4.311 14.44-9.357 3.855-4.888-.588-8.974-4.694-11.948-26.84-22.71-54.575-44.372-82.184-66.142-10.03-8.86-23.407-17.37-32.287-25.837-18.446 23.32-36.985 46.593-55.256 70.055-3.475 4.476-6.98 8.932-10.6 13.292-4.013 4.166-11.771 2.013-16.937 2.653H1262.5l-1.5-.5c55.998-36.655 108.986-78.222 158.37-123.37 24.992-23.634 49.593-47.617 71.862-73.863 21.37-25.034 42.06-51.204 59.268-79.267 25.505 79.735 69.429 153.709 128.37 213.37 56.598 61.041 127.565 106.602 198.63 148.63 6.444-32.958 19.986-64.716 39.988-91.807 19.918-25.707 45.605-49.809 78.512-57.193-.138-5.687.336-11.362 1-17-81.606-15.26-161.608-39.473-238.715-70.083-73.138-30.48-143.75-73.305-192.285-137.417 20.59-3.371 48.592-4.163 55-25.5-72.022-18.147-143.683-38.293-215.688-56.375-4.024-.728-4.641 3.813-5.601 6.879-13.111 51.232-39.751 97.297-66.991 141.959-41.677 65.615-90.82 126.39-144.322 182.64-53.84 56.75-112.727 109.707-177.398 153.897zM1023 2188h47c-1.267 71.052.577 142.348-5.64 213.191-5.291 64.843-17.747 130.632-49.36 188.309 4.614 4.1 8.331 9.003 12.5 13.5 30.529-22.597 60.498-46.896 82.972-77.977 35.06-46.149 55.851-101.897 67.85-158.13 6.195-28.59 9.252-57.805 12.469-86.844 2.602-30.638 5.656-61.276 6.209-92.049h31v418c20.278-.202 40.954.727 60.807-4.202 13.795-3.51 27.296-8.353 40.031-14.728 9.445-4.722 19.16-9.473 27.111-16.599 2.769-2.642 6.157-5.767 7.673-9.001 2.59-7.369.625-15.597 1.378-23.21V2121.5l.5-1.5c.736 1.747 2.072 3.148 2.5 5 119.269-19.812 238.17-54.075 343.17-115.428 49.964-29.75 97.096-64.15 139.957-103.48 21.751-20.564 42.638-42.075 61.926-64.926 4.473-5.808 9.305-11.357 13.703-17.22 3.159-3.85 6.928-10.141 11.194-10.898 15.869-2.998 36.391-2.904 46.05-16.548-43.06-34.92-86.156-69.952-129.5-104.5l-35.975 35.975c-8.993 8.986-17.985 17.993-26.978 26.974-3.906 4.547-8.788 4.312-13.974 4.051-37.086-.76-74.6.926-111.573-.5 13.558-12.06 27.06-24.225 39.975-36.975 3.288-3.14 6.855-7.886 11.266-8.349 12.172-.58 29.966 2.231 37.759-12.176-2.345-2.532-7.494-2.813-11.122-4.471-57.437-15.796-114.27-34.615-171.878-49.529-20.207 52.33-52.265 99.219-85.627 143.876-34.281 45.374-73.505 86.986-117.373 123.124 1.147 2.742 4.511 4.206 6.181 6.116 1.958 1.226 5.89-1.669 7.982-1.67 14.054-4.1 27.65-9.498 41.256-14.806 4.801-1.152 10.261-5.653 14.519-3.572 6.038 4.692 11.73 13.724 16.86 21.1 16.099 24.575 24.233 53.58 24.202 82.832 10.403 5.425 20.454 13.14 32.703 14.57 12.842 2.965 26.726-.344 38.297-5.07-28.723 19.025-58.306 36.99-88.882 52.945-31.988 15.906-63.638 32.91-97.118 45.555v-419c14.887-2.936 35.18-6.77 37-29-58.181-3.048-115.811-13.174-174-16v332h-48v-231c13.35-1.22 32.142-6.715 33-26-53.046-3.64-105.983-8.944-159-13v378c30.313 1.06 60.793-2.294 89.293-13.275 12.068-5.012 28.426-10.162 35.959-20.205 2.049-15.25-.304-31.137.748-46.52h48v151h-187.2c-8.328.296-18.286-.63-25.8 1 1.15 9.671 6.463 18.433 8 28m160-940.613c12.52 36.968 22.168 75.117 27.244 113.9 5.27 30.806 5.596 62.228 4.319 93.333 13.157 15.479 34.56 29.007 52.867 32.799 31.91 7.606 67.015-9.523 82.822-37.749 17.3-28.689 14.374-66-1.131-94.679-7.395-14.172-17.338-26.932-28.723-38.093-33.747-35.644-79.947-56.432-125.496-72.22-4.018-1.304-8.905 1.531-11.902 2.322zM1699 2188v246.6c-.251 6.385.965 15.307-5.696 19.999-10.095 5.765-26.573 2.329-39.629 2.926-39.873-2.167-79.857-3.761-119.675-6.525.693 3.72-1.385 10.925 2.395 12.55 4.26.66 8.58 1.528 12.816 2.413 16.274 3.057 32.451 7.362 47.425 14.529 20.456 11.309 39.809 27.098 49.952 48.677 11.745 22.816 9.768 49.913 15.912 73.831 29.207-3.525 58.612-7.01 86.885-15.547 20.296-5.89 40.199-15.476 55.717-30.055 23.825-23.269 30.548-58.292 32.575-90.17.92-36.077-.167-72.233.323-108.307V2188h126c10.362-.065 25.81-.29 31.349-12.856 2.288-4.064-1.806-7.99-4.347-11.145-19.178-23.96-39.744-46.76-59.78-69.96-5.303-5.56-11.339-12.231-16.092-17.409-6.226-4.792-10.633-14.31-17.13-16.63-16.894 33.568-37.92 65.57-55 99h-5v-73.8c.31-5.94-.463-13.012.46-18.406.632-3.816 8.48-2.682 10.876-4.381 10.275-1.993 23.064-10.435 22.664-24.413-57.705-4.436-115.322-10.147-173-15v136h-322c1.775 8.807 4.645 17.568 7.313 26.144 1.228 4.663 10.22 1.93 13.27 2.856H1699m-269 23.5c18.176 25.205 34.426 52.207 46.199 81.1 9.19 23.243 16.434 47.31 19.906 72.13.78 4.768.707 9.599 1.503 14.346 1.848 6.855 12.019 11.036 18.454 15.458 13.872 7.6 29.585 11.39 45.298 8.405 21.722-3.443 41.705-17.555 51.036-37.721 10.804-20.692 9.532-45.658-.48-66.261-13.555-29.662-41.379-49.72-69.727-63.879-31.093-14.759-64.852-22.929-98.691-28.354-2.32.051-5.74-1.096-7.435.273-2.08.828-4.075 2.621-6.063 3.003v1.75zm26-321.125c3.312 2.561 9.224.97 12.978 1.873 31.62 2.52 64.645 9.453 90.462 29.098 12.225 9.945 21.744 24.073 22.95 40.214 1.284 16.254-7.064 31.918-18.39 42.94 58.623-38.794 111.85-86.929 158.386-139.731 9.84-12.151 20.07-23.97 29.241-36.645 9.916-12.309 17.75-26.126 27.373-38.624v-1.5h-97.8c-16.406.14-32.807-.171-49.208.092-6.149.606-11.863 7.476-18.023 10.984-5.553 4.253-11.774 7.712-16.969 12.424 32.969.893 84.245 2.525 97.411 46.143 7.89 28.448-12.886 58.81-41.189 64.252-10.696 2.174-23.803 1.242-33.339-1.504-3.808-1.284-9.251-2.025-11.218-6.925-6.136-15.609-15.202-29.897-25.64-42.941-8.015-9.811-16.441-19.519-26.242-27.62-4.22-4.4-9.272-.643-13.286 2.101-28.1 17.007-57.415 32.272-87.497 45.369M1612.5 1494c41.716-28.179 81.074-60.519 118.37-94.37 19.648-17.083 37.87-35.766 56.226-54.237 4.298-4.881 8.399-9.916 13.274-14.263 3.25-2.945 6.37-7.836 11.982-8.06 13.016.728 30.348-3.021 36.648-19.132-60.94-25.44-126.06-43.362-187.5-67.938-9.143 44.595-19.272 89.198-29.707 133.54-5.121 22.187-10.28 44.348-15.796 66.437-2.99 10.798-5.588 21.69-8.831 32.412-1.39 5.302-3.217 10.502-4.189 15.91-1.22 2.426 1.453 3.819 3.338 5.25 2.092 1.44 4.283 2.77 6.185 4.451" style="fill:#000;fill-rule:evenodd;stroke:none"/></svg>