<svg xmlns="http://www.w3.org/2000/svg" width="3000" height="3000"><path d="M363 2763h2274c-116.777-706.336-235.544-1412.426-352.792-2118.701-7.351-44.171-14.733-88.332-22.082-132.49-.76-5.347-1.88-10.63-2.64-15.97-.062-6.502-4.856-8.386-10.16-9.572-81.497-27.15-162.975-54.317-244.46-81.467-142.336-47.478-284.708-94.881-427.04-142.357-13.532-4.49-27.037-9.017-40.56-13.514-6.477-2.17-12.972-4.309-19.44-6.486-6.235-1.594-13.427-5.493-19.495-5.034-100.387 32.434-200.209 66.92-300.466 99.791-150.35 50.002-300.828 99.614-451.039 150.05-5.982 1.452-6.275 6.662-6.798 11.742-24.43 146.388-48.84 292.799-73.214 439.189C565.92 1546.494 463.462 2154.662 363 2763m639-1770.375c3.37 2.33 9.247 7.263 12.72 4.968 4.65-2.548 8.692-6.114 13.19-8.893 6.247-4.29 12.083-9.163 18.26-13.548 6.129-3.528 12.898-11.982 18.83-13.152v396c15.372.305 30.744-.151 46-2 1.163 24.37-2.911 48.966-15.186 70.375-8.726 16.54-20.843 35.858-34.4 46.763-6.506 5.666-14.597 9.358-20.642 15.603-11.262 10.65-23.06 26.273-24.453 40.998-1.398 14.822 3.717 30.051 12.932 41.59 16.55 20.026 46.699 24.84 70.003 15.913 17.337-7.046 29.892-21.724 38.516-37.859 13.003-27.173 17.445-57.927 15.923-87.794-1.78-28.68-9.89-56.573-20.08-83.266-2.445-7.887-6.741-15.056-9.364-22.85-.15-.803-.194-1.662-.249-2.473 14.394-1.562 27.228-9.401 38.91-17.3 5.72-3.948 12.765-8.024 12.084-17.306.016-8.086-.002-16.14.006-24.223V1293h181v42c31.769.275 64.1-3.139 93.43-16.258 5.988-3.089 16.174-5.709 15.562-14.89.023-26-.004-51.995.008-77.993V973.289c.609-4.304-1.03-10.261 1.336-13.417 11.985-3.716 24.72-7.923 33.664-17.371-31.167-25.955-60.805-54.331-92.5-79.5-3.862 5.551-8.755 9.859-14.238 13.69-3.21 4.492-6.607 8.805-10.846 12.422-3.493 3.696-6.356 8.075-10.54 11.096-6.83 3.668-9.78 15.251-19.737 14.78-29.716.034-59.432-.006-89.139.012v-3c28.713-18.506 55.188-41.413 82.16-62.483 13.701-11.035 27.091-22.44 40.616-33.675 12.487-12.537 33.775-6.749 47.224-18.342-34.018-33.06-70.484-63.442-104.5-96.5-8.848 5.178-14.045 14.48-21.37 21.37-11.012 10.475-22.368 20.572-32.732 31.732-2.79 2.632-5.293 5.667-8.478 7.828-5.283 2.024-12.979.472-18.542 1.07H1229c.127-5.268 3.756-9.507 5.973-13.99 3.658-7.756 7.755-15.25 11.904-22.737 2.601-5.528 4.873-11.198 7.787-16.58 2.318-4.172 3.8-10.061 8.834-10.538 13.708.006 28.93-5.894 34.502-19.53-5.127-3.702-14.427-3.965-21.184-7.118-47.35-13.238-94.471-27.3-141.816-40.507-12.21 64.007-30.234 127.005-52.58 188.197-10.883 29.951-23.068 59.437-36.312 88.41-12.695 28.854-28.24 57.07-44.108 84.018M1096 2363c3.967 25.083-.453 50.979-9.968 74.286-8.096 18.745-18.405 37.102-33.28 51.425-6.169 5.021-14.92 10.342-21.166 16.437-11.273 11.02-22.401 28.3-22.586 43.246-.61 15.391 5.364 30.865 16.477 41.573 19.07 18.823 50.641 21.092 72.97 7.035 16.526-10.499 27.53-28.282 33.59-46.49 10.375-29.062 12.406-60.58 7.69-90.92-4.962-29.026-13.876-57.224-25.995-84.053-1.886-3.554-3.031-7.537-5.359-10.82-2.476-3.007-9.214-.944-12.373-1.719m-81-349.5c3.155 2.06 6.8 4.386 10.192 6 3.409-.145 6.492-4.678 10.013-6.272 5.036-3.502 9.868-7.274 14.654-11.096 5.24-2.988 9.914-9.316 15.141-10.132v367c25.204.369 51.465 1.347 75.105-9.239 10.114-4.52 21.258-11.704 28.75-18.56 4.376-4.503 2.911-12.507 3.145-18.139V2294h158v38c17.05.204 34.164.578 51.031-2.365 11.434-2.085 22.837-4.724 33.697-8.923 7.606-3.54 17.915-6.062 23.753-11.352 2.313-2.204 1.061-7.067 1.519-10.459v-335.954c.693-3.974-1.425-11.807 2.4-13.565 5.763-2.254 12.713-3.025 18.966-7.077 5.864-1.797 11.668-8.804 16.634-9.305v298c24.072.258 48.23.05 72-4-2.87 72.778-13.3 146.793-43.742 213.593-27.555 65.067-77.704 117.362-135.258 156.907 1.666 2.406 3.337 6.15 4 8.5 85.573-26.21 168.851-71.222 225.769-141.994 58.506-71.553 83.287-163.839 92.533-254.11.789-7.947 1.504-15.92 1.698-23.896h15v286.2c-.134 21.888.369 43.884 4.456 65.452 2.46 17.192 12.041 34.176 28.334 41.619 30.74 12.988 65.14 10.034 97.604 10.729 25.418.323 50.82-1.158 75.96-4.789 29.431-4.19 68.658-17.729 78.093-56.402 4.236-17.108 3.007-36.029-5.017-51.919-3.63-8.014-10.548-13.53-17.663-18.25-2.794-2.81-8.297-3.66-9.326-7.151-.728-4.56-.265-9.227-.58-13.811-.292-14.988-1.301-29.918-2.03-44.868l-.643-22.961c-.005-3.851-.174-7.701-.612-11.51-.92-3.017-6.408-1.926-8.576-2.339-5.042 16.291-11.663 32.162-17.644 48.135-5.786 14.454-11.141 29.29-19.699 42.421-9.132 15.749-29.016 10.913-42.687 11.444-7.216-.707-16.301 1.102-22.688-1.185-5.935-3.052-4.737-14.096-5.277-19.331-.015-57.697.003-115.389-.005-173.084.529-10.55-.678-23.104.448-32.719.093-2.67 3.474-2.402 5.024-2.795 18.333-2.036 36.222-7.135 53.71-12.786 7.48-2.35 14.797-5.112 22.013-8.175 6.178-2.596 14.172-5.768 17.808-11.085 2.067-7.167.26-15.419.997-22.85V1830c12.878-1.687 28.062-6.476 34-18-40.113-28.623-78.653-60.738-118.5-90-15.986 19.066-34.66 35.7-50.894 54.533-3.648 4.711-8.462 10.268-16.026 9.467H1727c2.428 8.706 5.89 17.184 8 26h73v160h-78v1.5c2.254 8.336 6.571 17.697 8 25.5h70v160h-202v-160h58.2c13.987-.59 41.228 5.168 48.8-14.5-17.475-25.715-40.194-47.199-60.5-70.5-4.52 2.713-6.116 10.135-9.5 13.892-7.953 15.06-18.698 28.767-26 44.108h-11v-161c12.564-1.256 27.19-4.66 34-16.5-4.145-1.656-11.473-1.738-12-6.5 27.67-8.755 54.413-20.954 81.715-30.88 13.692-5.296 26.876-11.735 40.16-17.894 7.387-2.433 15.56 1.817 23.081-.114 8.303-.542 13.159-5.198 18.044-10.612-26.356-14.863-54.435-26.855-81.363-40.678-27.438-13.986-55.07-27.497-82.807-40.822-3.729 3.905-4.225 11.968-6.247 15.749-12.167 38.105-26.084 75.638-39.583 113.251-8.985-.284-17.331-4.4-26.012-6.28-25.337-7.993-51.299-14.42-76.488-22.72-1.426 61.543.26 123.4-.5 185-5.26-.374-9.04-6.398-13.031-9.022-27.06-23.83-55.225-46.964-81.969-70.978-2.566.594-3.878 4.13-5.864 6.212-6.638 6.907-13.886 15.66-21.082 20.744-4.511 5.626-9.892 12.115-14.767 16.672-3.297 4.077-7.401 9.61-14.136 9.36-19.068.034-38.099-.006-57.151.012v-2c22.513-17.144 45.338-34.44 66.238-53.65 11.22-9.34 21.554-19.684 32.82-28.957 4.726-4.553 13.94-4.551 21.243-6.097 6.92-1.13 14.394-2.804 19.699-7.796-2.033-5.063-8.828-8.139-12.126-12.138-29.434-26.152-59.01-52.155-88.374-78.362-12.369 11.064-22.712 24.126-35.339 35.012-4.527 6.21-11.885 12.967-17.167 19.488-2.953 4.036-8.098 5.263-12.21 4.5H1230c.462-4.309 3.96-9.211 5.935-13.839 7.668-15.721 14.358-31.88 21.185-47.973 1.04-1.86 1.94-4.61 3.637-5.508 13.211-2.328 31-2.309 37.243-20.68-53.942-14.046-107.056-31.962-161-46-9.746 65.99-25.453 131.275-46.066 194.7-9.499 31.257-21.737 61.609-33.82 91.912-12.118 29.345-26.548 58.472-42.114 85.888M1135 895c16.35 5.583 32.29 12.59 48.561 18.423 6.787 2.508 14.286 1.172 21.33 1.577h20.316c4.983-.98 12.678 1.534 16.092-1.673 10.505-34.73 17.12-70.613 25.706-105.859 1.037-6.218 3.116-12.235 3.995-18.468-17.803.022-35.633-.027-53.435.015-6.895-.777-9.785 6.944-12.492 10.872-10.773 16.456-21.703 32.81-33.759 48.374-5.84 8.185-12.503 15.718-18.765 23.563-3.128 3.95-6.424 7.743-9.68 11.568-3.004 3.636-7.734 7.313-7.869 11.608m23 1000c12.103 3.119 23.376 10.731 36.27 10h31.62c3.253-.168 9.057.626 9.82-2.924 7.353-24.024 11.902-48.917 17.44-73.393 1.794-8.89 4.636-19.319 4.85-27.683h-43c-7.273 15.957-18.916 33.363-27.319 47.046a486 486 0 0 1-15.672 23.627c-4.218 7.45-13.842 15.996-14.009 23.327m6 475c3.33 17.248 5.643 34.718 7.113 52.231.642 8.148.775 16.331 1.171 24.475 1.29 29.06.006 58.122-5.584 87.318-.715 5.406-2.294 10.673-2.981 16.064-.986 4.047 6.111 8.215 7.883 11.014 11.922 14.335 33.755 18.825 49.713 8.335 24.555-15.323 33.135-46.117 31.657-73.359-1.607-27.29-15.41-57.171-29.553-77.385-13.605-18.692-29.598-36.082-47.904-50.199-3.926-.264-7.647 1.295-11.515 1.506m8-293h37v-146h-37zm0 190h37v-163h-37zm3-1182h45V942h-45zm0 182h45v-156h-45zm2 94.25c9.262 38.32 9.536 78.8 8.883 118.097-.951 14.224-2.184 28.527-4.784 42.564-.72 5.873-3.633 14.13-.813 18.342 6.516 8.817 15.352 15.779 25.678 19.488 19.429 5.81 39.918-6.111 49.723-22.794 15.91-26.025 15.398-59.256 5.064-87.051-10.036-27.05-27.052-50.902-47.984-70.629-4.668-4.482-9.64-8.627-14.335-13.082-4.35-3.637-8.94-9.302-15.57-6.894-2.074.274-3.964 1.02-5.862 1.709zM1243 2362c21.61 48.757 40.916 101.13 39.075 155.606.324 5.587 7.354 9.704 12.002 13.685 9.345 7.193 21.655 10.093 33.064 7.362 39.16-9.62 44.211-58.367 31.202-86.003-18.535-44.14-60.11-73.966-102.709-92.274-4.83-2.292-8.314 1.032-12.634 1.624m20-1005.75c15.178 31.571 24.217 66.246 31.196 100.48 2.337 13.812 3.998 27.705 3.786 41.737.23 6.167-.344 12.444.484 18.563 12.309 17.232 37.715 26.181 57.135 15.666 32.64-16.238 33.388-58.45 22.719-84.807-12.451-28.155-33.197-52.262-58.859-69.227-8.595-6.175-17.6-11.671-26.853-16.77-4.576-2.672-9.146-5.302-13.936-7.568-5.447-3.279-9.956-.417-14.887 1.5l-.785.176zm26 720.75h41v-146h-41zm0 190h41v-163h-41zm19-1182h48V957.8c-.713-5.471 1.206-12.678-1.5-16.8-15.309 2.363-31.09-.03-46.5 1zm0 182h48v-102c-.611-16.91.746-33.96-.404-50.816-.069-4.346-7.953-2.743-10.465-3.184H1308zm35 1084.594c14.843 20.22 26.746 42.802 33.716 67.068 6.156 19.706 7.523 40.609 5.839 61.094-.221 6.203 9.33 9.831 14.087 13.954 11.18 6.855 24.845 9.358 37.461 5.222 18.158-5.289 32.151-21.389 36.319-39.69 4.394-18.865-1.068-39.191-13.07-54.15-25.165-32.265-64.721-49.242-103.778-57.557-3.972-.742-7.12 1.903-10.574 3.465zm18-1004.011c20.811 24.408 36.1 54.012 43.965 85.284 1.844 8.24 3.536 16.535 4.427 24.935.792 6.826.578 13.659.654 20.5-.485 4.745 4.11 8.042 7.786 10.205 10.736 8.066 23.803 12.396 37.168 12.493-3.002 12.882-13.304 22.989-19 34.5 2.628 1.981 5.447 8.608 8.967 6.435 3.785-1.705 7.287-4.028 10.85-6.124 78.494-48.919 140.294-121.097 186.515-200.386 1.284-2.43 3.05-4.697 3.668-7.425 5.998.356 11.96.088 18 0-.188 38.924.23 77.885-.124 116.805-.321 8.035-.706 19.74-12.514 20.481-27.213 2.899-54.271-3.965-81.362-3.286v11c13.254 1.35 29.03 5.802 39.455 12.278 16.386 11.093 27.477 28.798 31.365 47.96 3.806 20.645 4.744 41.832 5.18 62.762 40.827-3.936 86.474-11.127 115.71-43.247 14.367-15.494 21.133-36.263 24.19-56.749 4.272-22.156 3.803-44.897 4.1-67.338V1159h23v41c36.795.621 74.98.187 109.002-15.94 3.958-1.777 8.234-3.193 11.585-6.049 3.14-2.248 2.23-7.795 2.413-11.787V961c10.476-2.168 21.357-4.396 30.33-10.617 2.418-1.363 4.105-3.496 5.767-5.617 1.74-3.437-5.257-6.407-6.87-8.309-3.238-2.528-6.591-4.943-9.939-7.318-11.143-8.043-21.947-16.592-33.164-24.536-18.993-13.57-37.176-28.834-56.624-41.603-10.083 11.182-19.9 22.64-29.99 33.806-9.279 8.57-17.509 21.293-26.403 28.703-52.037 1.125-104.3.081-156.362.31-43.571-13.732-85.341-33.53-128.745-47.819v341c26.992.342 54.508 1.238 80.692-6.773 11.198-3.61 23.945-9.265 33.111-14.983 5.687-3.73 4.02-12.567 4.197-18.275V1159h22v145c-6.368-.19-11.914-4.176-17.806-6.111-37.69-17.045-76.192-32.53-113.694-49.889-7.816 55.193-20.358 109.927-37.5 163-5.324-.8-7.635-9.437-12.443-13.001-14.158-17.648-34.38-29.293-54.734-38.249-10.837-4.662-22.198-7.89-33.52-11.102-5.752-1.637-11.592-2.973-17.44-4.186-2.798-.538-6.277-1.415-8.83-.526-2.458.708-4.465 2.66-7.033 3.064zm99-546.083c1.189 4.484 2.916 8.816 3.97 13.367.943 3.776 2.234 7.438 3.404 11.122 1.436 2.341 5.798 1.729 7.821 2.01 8.998.003 17.992-.001 26.975.001h419.018c20.726-.592 41.67 1.093 62.28-1.503 6.22-1.83 14.322-6.142 15.702-12.076 1.215-2.73-3.456-5.49-4.686-7.317-16.82-14.998-33.113-30.544-50.294-45.14-8.63-7.07-16.672-14.823-25.383-21.793-8.661-6.405-16.439-14.938-25.807-20.171-17.178 27.8-39.594 53.334-57 81h-49V682c6.772-1.608 13.977-2.548 20.047-6.246 6.93-4.025 8.992-9.974 11.953-16.254-6.463-2.1-13.676-1.408-20.368-2.43-46.573-3.444-93.056-7.77-139.632-11.07.592 51.674.592 103.233 0 155h-199zm182 330.5h171V953h-171zm157 125.311c17.217 37.941 33.397 76.605 44.615 116.868 9.228 30.807 16.245 62.368 18.859 94.468.245 3.195.48 6.409.508 9.61.358 2.655-.48 7.04 1.211 8.779 14.844 14.862 35.415 25.893 56.845 25.752 16.49-1.206 32.478-8.404 43.508-20.92 17.255-19.326 23.403-46.79 19.28-72.037-4.205-24.52-15.131-47.471-30.05-67.179-35.542-47.522-88.24-77.965-142.923-98.252-4.69-1.921-8.001.852-11.853 2.6z" style="fill:#fda;fill-rule:evenodd;stroke:none"/><path d="M244 2863.5c418.26 1.426 837.325-.26 1255.75.5 418.681-.76 837.643.926 1256.25-.5-137.483-816.352-271.828-1633.965-409-2450.5-141.513-45.746-282.358-94.352-423.703-140.74-105.839-35.248-211.646-70.575-317.47-105.817l-60-20a8496 8496 0 0 1-28.008-9.343c-4.68-1.543-9.347-3.083-13.982-4.729-5.086-2.015-9.193.742-14.014 2.193-139.528 46.49-279.049 93.006-418.557 139.507C931.703 319.858 792.72 367.853 653 413c-137.126 816.275-271.612 1634.71-409 2450.5m120-103v1.5h2272v-1.5c-68.931-409.09-136.257-818.54-204.874-1227.691-51.028-306.678-102.288-613.313-153.312-919.99-4.869-28.835-9.565-57.678-14.432-86.51-1.133-7.012-2.351-14.007-3.495-21.008-1.484-6.504-.056-15.285-8.94-17.157-109.703-36.573-219.416-73.135-329.12-109.701-96.009-31.978-191.992-64.023-288-96-41.971-14.027-84.002-27.963-125.969-41.994-9.552-4.304-21.398 2.4-30.56 4.946-155.047 51.948-310.255 103.285-465.433 154.805-58.187 19.4-116.394 38.801-174.566 58.195-25.476 8.525-51.019 16.959-76.48 25.505-5.454 2.642-13.186 3.29-17.14 6.618-2.1 1.795-1.737 5.77-2.555 8.884-62.19 372.917-124.31 745.877-186.485 1118.792C490.857 1998.664 428.048 2380.37 364 2760.5" style="fill:gray;fill-rule:evenodd;stroke:none"/><path d="M1172.5 2475c.637-5.4.697-13.116 0-19-2.738 2.248-2.644 5.879-2.5 9.154-.082 3.38-.064 7.25 2.5 9.846m100-722c2.763-1.046 5.864-4.757 6.5-7-3.137.42-7.508 3.894-6.5 7m26-27c2.763-1.046 5.864-4.757 6.5-7-3.137.42-7.508 3.894-6.5 7M1314 712.375c.044.62.234 1.158.625 1.625 2.419-.902 4.426-3.99 6.744-5.869 1.946-2.184 4.946-4.441 5.631-7.131h-1.5c-4.531 3.064-8.114 7.212-11.5 11.375M1352.5 1883c2.763-1.046 5.864-4.757 6.5-7-3.137.42-7.508 3.894-6.5 7m12-976c2.763-1.046 5.864-4.757 6.5-7-3.137.42-7.508 3.894-6.5 7m14 949c2.465-1.138 4.168-3.415 7.5-2-.39-2.795-2.822-4.187-4.967-2.87-1.531 1.013-3.072 3.143-2.533 4.87m12-976c2.763-1.046 5.864-4.757 6.5-7-3.137.42-7.508 3.894-6.5 7m198.5 582.375c1.09 1.194 3.765.414 5 .125-.558-.728-.977-1.561-1-2.5-1.569.05-3.118 1.33-4 2.375" style="fill:#f1d3a5;fill-rule:evenodd;stroke:none"/><path d="M1000 992.375c2.857 2.906 7.263 5.42 10.465 7.275 1.231 1.005 3.48.297 5.087-.738 1.885-1.146 3.707-2.4 5.493-3.689 14.415-10.373 28.98-20.621 42.455-32.223 1.426 131.84-.26 264.083.5 396 15.31-.341 30.849.651 46-2 1.315 24.338-3.713 48.605-15.932 69.837-8.734 16.374-20.895 35.306-34.459 45.99-14.088 9.732-28.242 19.9-36.725 35.345-17.22 25.634-4.64 65.24 23.002 77.77 21.208 10.33 47.665 8.907 67.176-4.638 28.104-21.535 38.605-58.309 41.495-92.03 2.94-36.026-4.97-71.758-17.423-105.32-3.458-9.261-6.886-18.538-11.302-27.39-.42-.81-.7-1.677-.832-2.564 14.394-1.562 27.228-9.401 38.91-17.3 5.72-3.948 12.765-8.024 12.084-17.306.016-8.086-.002-16.14.006-24.223V1294h179v42c32.566.418 65.846-2.901 95.88-16.475 6.686-3.41 16.36-5.616 15.12-15.875V972.488c.44-3.677-1.254-11.34 3.06-12.137 11.999-3.58 24.21-8.441 32.94-17.851-31.686-26.798-62.288-55.488-94.5-81.5-8.434 9.677-17.607 18.678-26.694 27.754-6.303 7.354-13.084 14.228-20.04 20.977-5.03 6.007-15.111 3.944-21.98 4.269H1265.5l-1.5-.5c28.414-19.746 55.683-41.48 82.556-63.316 13.668-11.074 27.117-22.397 40.61-33.673 12.672-12.562 34.866-6.04 47.834-19.011V796c-35.876-31.203-71.402-64.575-106.5-97-13.827 14.623-28.635 28.172-43.102 42.102-7.715 6.226-14.593 16.606-21.99 20.417-11.06 1.272-22.313-.15-33.408.481 7.828-17.579 18.168-34.18 25.931-51.837 2.093-4.043 3.768-10.124 9.61-10.123 14.51.315 29.37-7.347 34.459-21.54-27.266-9.283-55.585-15.899-83.14-24.395-13.646-3.866-27.29-7.828-40.934-11.696-13.705-3.087-29.203-9.394-41.926-11.409-12.208 64.204-30.389 127.357-52.769 188.738-22.229 59.525-47.629 118.617-81.231 172.637M1095 2362c3.7 25.573-.302 51.62-10.346 75.316-8.352 18.621-18.578 36.979-33.66 51.108-7.04 5.505-14.865 9.972-21.176 16.413-11.146 11.288-22.27 28.533-21.818 43.728-1.785 34.407 25.367 57.35 55.562 58.416 22.864 1.618 44.937-10.574 56.908-29.778 19.116-29.446 23.081-65.859 22.41-100.04-2.96-33.597-12.41-66.301-25.82-97.165-2.25-4.823-4.105-9.824-6.525-14.56-2.82-5.038-10.816-2.92-15.535-3.438m-81-347c3.61 1.118 7.59 4.81 11.5 7 12.825-9.358 25.963-18.593 38-29 1.426 122.176-.26 244.743.5 367 25.477.276 52.096 1.643 76.096-8.847 10.674-4.576 20.641-11.042 29.42-18.597 4.662-4.274 3.367-12.318 3.484-17.9V2295h156v38c17.53.109 35.183.654 52.533-2.287 11.598-2.056 23.182-4.772 34.195-9 7.658-3.686 18.352-6.057 24.08-11.705 2.47-6.095.311-15.583 1.192-22.105v-322.757c.679-4.594-1.142-11.011 1.416-14.355 6.049-2.485 13.21-3.385 18.952-6.974 2.85-1.455 5.774-2.824 8.364-4.716 2.507-1.5 4.636-4.428 7.268-5.101v298c23.978-.405 48.367.925 72-4-3.103 74.606-14.418 150.27-46.685 218.308-15.236 32.356-35.064 62.587-59.896 88.43-12.493 13.391-26.146 25.727-40.268 37.36-6.93 5.597-13.879 11.2-21.13 16.372-3.41 2.734-7.613 4.807-10.346 8.288-.53 3.522 3.327 8.398 4.825 11.242 43.974-15.606 88.078-32.872 127.993-57.606 59.483-36.061 109.586-88.234 140.68-150.75 16.08-32.28 27.363-66.756 35.553-101.804 8.236-36.41 14.382-73.516 16.274-110.84h13v286.2c-.134 21.888.369 43.884 4.456 65.452 2.46 17.192 12.041 34.176 28.334 41.619 30.74 12.988 65.14 10.034 97.607 10.729 25.26.016 50.598-.734 75.6-4.497 29.462-3.778 69.077-16.68 79.878-54.702 4.923-17.153 4.015-36.026-2.833-52.513-3.134-8.212-9.137-14.765-16.39-19.524-3.118-2.551-6.75-4.366-10.038-6.657-3.803-2.369-2.143-8.596-2.641-12.298-.283-15.978-1.448-31.884-2.108-47.824-.235-8.244-.461-16.491-.694-24.735-.372-3.867.31-8.056-.97-11.764-2.134-2.4-7.55-.925-10.201-1.486-4.992 16.146-11.546 31.896-17.475 47.722-5.765 14.482-11.138 29.327-19.655 42.502-8.724 15.807-28.165 11.581-41.7 11.776-7.177-.634-16.236 1.114-22.516-1.44-5.339-4.307-4.066-13.756-4.651-19.675-.008-57.497 0-114.988-.003-172.484.73-10.193-.979-22.596.748-31.808 2.98-2.93 10.398-1.292 13.975-2.86 17.813-3.097 35.12-8.187 52.125-14.199 7.055-2.69 14.111-5.434 21.012-8.488 6.08-2.86 13.184-6.395 12.14-15.467V1831c13.445-.986 26.84-7.014 35-18-39.318-31.905-80.911-61.378-120.5-93-16.504 19.24-35.147 36.53-51.894 55.533-3.699 5.007-8.794 10.463-16.622 9.467-21.272.743-42.8-.91-63.984.5 3.919 8.718 6.05 18.397 9 27.5h73v158h-60.6c-5.626.682-14.272-1.182-18.4 1.5 3.345 8.495 6.886 19.352 9 27.5h70v158h-200v-158h48c12.207-.11 24.431.135 36.627-.076 7.68-.317 16.319-3.316 20.136-10.546 3.995-6.472-1.531-10.994-4.6-15.16-10.849-13.9-22.45-27.255-34.52-40.096-7.234-7.558-13.934-15.56-21.143-23.122-10.973 20.389-25.02 39.398-35.5 60h-9v-159c13.123-2.01 31.495-5.145 34-19-3.88-.418-9.276-1.81-12-3.5 27.775-10.274 55.586-21.087 83.174-31.975 13.56-4.926 28.457-13.082 40.694-17.976 13.575 1.317 30.255 4.193 40.132-12.049-27.545-14.126-55.527-27.566-83.332-41.175-28.202-13.747-55.994-28.686-84.668-41.325-13.91 43.66-29.508 86.883-45 130-34.854-7.273-68.23-21.334-103-29-.76 61.568.926 123.55-.5 185-31.723-26.046-61.838-54.63-94-80-7.878 7.153-14.79 15.182-21.975 22.975-5.731 5.786-11.53 11.463-17.236 17.272-4.02 4.094-7.268 9.646-12.53 12.285-10.048 1.156-20.272-.064-30.349.468-9.719-.645-19.808.811-29.41-.5 23.45-16.484 45.6-34.818 67.007-53.841 11.278-9.556 21.83-19.87 33.23-29.277 5.153-3.915 14.473-3.427 21.738-5.36 3.644-.613 7.275-1.459 10.668-2.934 3.29-.976 6.748-4.262 9.357-5.088v-2c-2.537-.524-4.64-3.411-6.893-5.325-32.2-28.567-64.852-56.629-96.607-85.675-12.38 11.583-23.684 24.147-35.37 36.37-6.347 5.844-12.086 12.262-17.745 18.728-5.097 5.994-16.716 5.608-25.385 4.402 9.447-17.405 17.027-35.908 24.877-54.076 2.154-4.402 3.225-10.631 8.467-11.3 7.384-.881 15.132-1.487 21.741-5.294 6.577-3.216 10.33-9.408 13.915-15.33-12.65-5.971-27.493-7.661-40.649-12.577-20.618-6.187-41.396-11.817-62-18-10.26-3.281-20.724-5.794-31-9-9.804-2.355-21.11-6.997-30.351-7.923-9.864 66.31-25.49 131.995-46.4 195.7-9.686 31.543-22.04 62.22-34.329 92.8-6.24 14.806-12.717 29.495-19.946 43.832-3.941 7.47-7.298 15.26-11.572 22.548-3.034 6.247-8.93 14.285-9.753 20.12m122-1121.625c8.34 4.477 18.179 6.72 26.832 10.74a2469 2469 0 0 1 20.335 7.812c9.83 3.691 24.3 1.146 36.462 2.073 6.088-.19 13.336.334 18.868-.434 2.409-.513 2.698-4.857 3.651-6.614.922-2.833 1.48-5.744 2.296-8.6 10.082-35.471 15.934-72.36 25.556-107.852-10.969-1.314-22.263.148-33.299-.5h-12.483c-3.19.24-7.402-.502-10.914.864-12.821 16.927-23.08 36.068-36.614 52.596-12.657 17.33-26.819 33.648-40.69 49.915M1159 1894c11.937 2.96 22.983 10.62 35.672 10h31.015c3.66-.06 8.514.377 9.268-3.467 6.868-23.381 11.597-47.415 16.872-71.188 1.609-8.834 4.648-19.089 5.173-27.345h-41c-7.522 16.232-17.78 31.322-27.032 46.608-4.896 7.88-10.073 15.632-15.36 23.254-2.685 3.705-5.204 7.553-8.077 11.116-2.223 3.452-6.123 7.671-6.531 11.022m4 475c5.73 33.989 9.502 68.404 8.934 102.95-.596 25.706-3.577 51.282-9.207 76.372-1.676 4.747 2.405 8.5 5.168 11.072 5.6 6.042 11.884 11.734 19.79 14.595 14.878 5.603 31.729.941 42.925-9.732 16.77-15.673 24.007-39.358 23.39-61.853.546-22.362-8.45-47.996-17.97-65.83-14.848-26.223-35.005-49.79-58.797-68.3-3.546-2.96-10.464 1.31-14.233.726m10-293h35v-144h-35zm0 190h35v-161h-35zm3-1182h43V943h-43zm0 182h43v-154h-43zm0 94c6.886 34.361 9.543 69.449 9 104.466.242 13.235-.659 26.43-2.39 39.527-.663 11.347-4.277 22.32-5.122 33.609 7.346 16.112 30.012 27.76 45.866 24.329 14.156-2.074 25.918-12.305 33.333-23.984 11.793-18.445 14.224-40.932 11.89-62.197-2.813-20.857-11.605-40.48-22.325-58.342-14.77-22.659-33.886-42.556-55.354-58.928-3.915-2.842-11.029.811-14.898 1.52m65 1002.25c12.648 26.309 23.997 53.603 30.852 82.131 5.904 22.28 9.603 45.239 9.148 68.357.052 3.582-.676 8.88 2.654 11.608 10.59 10.633 25.608 18.685 41.069 15.905 23.336-3.05 38.66-25.994 40.942-47.775 2.446-23.181-5.879-46.042-19.373-64.546-22.09-31.766-55.834-53.907-90.883-69.14-4.661-2.274-10.519 2.05-14.409 3.21zM1262 1355c9.812 25.112 20.266 50.516 25.812 77.159 4.98 21.319 8.754 42.949 9.125 64.884.868 7.388-1.577 18.82 2.63 23.879 9.594 9.158 21.8 17.03 35.508 17.303 20.366 1.349 38.873-12.909 45.65-31.706 7.92-18.937 6.16-40.562-1.251-59.273-18.581-44.379-59.104-73.855-100.826-94.392-6.046-3.69-10.928.747-16.648 2.146m28 721h39v-144h-39zm0 190h39v-161h-39zm19-1182h46V958.6c-.518-5.101 1.018-12.901-1.5-16.6-2.642 1.591-6.943.65-10.5 1h-34zm0 182h46v-99.6c-.307-16.759.374-33.586-.202-50.326-.073-4.656-5.644-3.944-9.09-4.074H1309zm32 1085.58c15.634 20.2 27.433 43.511 34.716 68.082 6.611 19.955 7.183 41.145 5.748 61.882 16.169 26.499 56.834 26.416 76.403 4.083 20.668-21.485 19.16-57.709 1.415-80.251-24.875-33.49-65.467-50.062-104.834-59.052-5.089-1.631-9.21 2.205-13.448 4.676zm18-1004.002c21.322 24.128 36.458 53.96 44.69 85.166 1.866 8.26 3.603 16.561 4.597 24.967.8 6.777.784 13.603.723 20.404-.502 5.671 3.023 8.559 7.363 11.062 10.745 8.922 24.25 11.904 37.627 13.323-3.773 7.422-7.675 14.84-12.572 21.627-1.434 3.746-5.755 7.145-5.928 10.631-.411 3.877 5.297 7.315 6.813 10.242 45.412-23.3 83.043-58.624 118.11-95.005 32.351-37.454 63.881-76.78 86.577-120.995 5.325.79 10.644.109 16 0-.23 38.432.28 76.854-.151 115.276-.492 7.468-.506 18.604-11.448 19.835-27.436 3.076-54.972-4.086-82.401-3.111v13c13.254 1.35 29.03 5.802 39.455 12.278 16.386 11.093 27.477 28.798 31.365 47.96 3.806 20.645 4.744 41.832 5.18 62.762 20.655-1.577 41.345-4.371 61.27-10.225 28.68-7.303 55.896-25 69.4-52.098 13.788-29.034 14.975-62.175 15.33-93.616V1160h21v41c37.256.549 75.988.603 110.5-15.73 4.125-1.848 8.587-3.282 12.087-6.259 3.14-2.248 2.23-7.795 2.413-11.787V962c13.671-3.454 31.861-5.994 38-19.664-36.147-27.442-73.16-54.265-109.5-81.336-10.153 10.989-19.767 22.516-29.894 33.533-9.05 9.395-17.159 19.754-26.269 29.048-6.017 2.95-12.61.362-19.082 1.419H1660.69c-12.564.194-23.932-6.53-35.603-10.356C1590.954 902.087 1557.19 888.34 1523 876v344c27.273.323 55.095 1.401 81.61-6.443 11.49-3.471 24.36-9.33 33.777-15.008 6.293-4.244 4.317-11.495 4.613-17.988V1160h20v143h-2c-43.435-18.238-86.211-38.828-130-56-7.127 55.286-19.778 110.15-37.5 163-13.877-21.607-34.52-37.845-57.867-48.183-12.22-5.87-25.328-9.656-38.241-13.563-6.66-1.957-13.433-3.516-20.22-4.954-7.267-2.556-12.712-.194-18.172 3.7zM2002 812.5c-35.162-32.361-70.59-64.716-108-94.5-10.784 13.056-19.828 27.825-30.21 41.261-9.153 13.766-20.34 26.635-28.79 40.739h-47V683c7.058-1.768 14.769-2.6 20.945-6.852 5.748-4.36 10.208-10.843 11.055-18.148-53.94-4.651-107.973-9.313-162-13 .334 25.402-.518 50.777.55 76.074-1.541 26.24.257 52.656-.55 78.926h-199c1.056 8.547 4.78 16.643 6.67 25 .896 5.018 8.51 3.947 12.123 4h471.263c19.204-.152 45.663 3.394 52.944-16.5M1643 1131h169V954h-169zm154 125.438c18.036 38.57 34.117 78.256 45.782 119.31 9.376 31.537 16.668 63.815 18.898 96.72.718 6.063-.989 14.15 3.467 17.786 16.361 14.042 37.556 25.873 59.992 23.208 16.134-1.769 31.331-9.692 41.792-22.158 17.194-20.333 22.207-48.81 17.52-74.518-4.507-24.638-15.814-47.64-31.255-67.193-36.111-46.454-88.075-77.082-142.767-96.697-5.083-2.086-9.215 2.344-13.429 3.104z" style="fill:#000;fill-rule:evenodd;stroke:none"/></svg>