<svg xmlns="http://www.w3.org/2000/svg" width="3000" height="3000"><path d="M448 2669h2104c-108.019-653.996-218.137-1307.761-326.618-1961.691-6.813-40.83-13.621-81.671-20.41-122.502-.9-5.185-1.732-10.375-2.627-15.558-.693-5.948-7.25-6.546-11.566-8.162a2264805 2264805 0 0 1-451.953-150.644c-56.522-18.824-113.032-37.715-169.56-56.514-12.477-4.17-24.972-8.31-37.44-12.486-6.015-1.98-11.998-4.026-18-6-5.943-1.873-12.256-5.247-18.565-3.023-92.812 30.91-185.585 61.892-278.396 92.78-138.737 46.826-278.12 92.047-416.698 139.266-3.665 1.962-2.298 9.57-3.876 12.727-22.4 134.514-44.811 269.006-67.243 403.502C635.746 1543.503 540.855 2106.166 448 2669m601-472.517c12.236 26.172 26.92 51.313 39.438 77.39 13.108 26.18 26.989 51.935 40.062 78.127 14.66-6.847 16.659-23.443 21.3-35.459 21.466-38.716 43.9-77.216 62.2-117.541h3v323c19.503.318 39.335 1.009 58.342-4.339 13.115-3.342 26.12-7.58 38.311-13.495 8.514-4.274 18.151-10.079 24.997-15.527 2.714-2.473 5.985-5.467 7.615-8.461 3-6.88 1.05-14.891 1.735-22.131V1678c13.399-1.72 31.121-6.226 34-25-55.07-4.017-109.902-11.406-165-15v243h-3c-5.586-14.771-18.935-28.775-28.602-39.102-16.34-17.265-36.281-30.557-57.105-41.764-11.14-5.71-22.325-11.313-34.012-15.83-5.86-2.127-11.486-4.839-17.398-6.798-2.986-1.447-5.406-1.381-7.757.865-2.676 1.063-.78 5.472-.212 7.407 14.097 38.531 24.358 78.542 28.612 119.425 1.987 19.74 2.543 39.547 1.536 59.337-1.875 9.31 8.005 18.15 14.334 22.489 6.875 5.529 14.473 10.043 22.862 12.834 14.607 5.296 31.018 5.592 45.444-.944 14.24-5.139 24.432-16.43 33.298-27.919h2v136.2c-.21 3.738.913 8.959-3.251 11.287-53.838 26.568-107.404 54.289-162.749 77.513zm2-844.15c1.013 2.201 2.868 3.814 4.375 5.667 36.33-18.816 72.043-39.452 105.156-63.61 16.77-11.918 33.105-24.47 49.253-37.222 7.902-6.558 15.454-13.506 23.407-19.998 3.743-3.694 7.477-7.418 11.615-10.66 3.762-3.24 7.526-8.6 12.194-8.51v369c33.126.032 67.767.36 98.709-13.33 6.864-3.082 13.491-6.698 19.848-10.724 4.583-3.069 9.715-5.909 12.838-10.624 4.502-7.007 1.577-18.99 2.605-28.241V1495h327v88c39.813.666 79.74-6.672 116.6-21.887 8.51-4.013 21.192-7.062 20.394-17.33.017-32.79-.003-65.556.006-98.341v-241.045c.015-6.808-.019-13.591.01-20.399.15-2.014.164-5.612 1.91-6.419 14.093-4.591 28.633-9.969 39.08-21.079-41.474-32.935-83.978-64.66-125.5-97.5-11.443 12.143-23.987 27.195-34.428 38.38-4.926 5.344-10.366 11.91-14.895 16.802-4.76 4.484-10.085 13.108-15.892 13.7-60.187.337-120.396-.061-180.572.118h-90c-14.435-.232-29.49 1.612-43.089-4.138-12.263-3.786-26.146-10.224-37.624-12.862.998-5.503 7.854-10.39 10.995-16.03 28.99-38.503 55.501-79.034 78.69-121.278 23.426-43.847 45.45-89.128 60.315-136.692h393c16.376-.579 39.141 2.675 46-13.668-27.54-23.697-56.7-45.437-85.666-67.33-12.679-9.57-25.269-19.196-37.96-28.746-2.98-2.292-5.825-4.728-8.883-6.902-2.811-2.25-5.864-5.7-9.2-1.629-18.04 22.3-35.663 44.957-53.424 67.471-3.945 4.94-7.938 9.851-11.861 14.801-3.604 4.195-7.674 11.822-12.684 11.327-217.432-.925-434.891.169-652.322-.324 1.472 7.344 4.111 15.912 6.255 22.427 1.34 3.866 8.743 1.935 11.528 2.573H1337c-18.506 99.458-57.73 194.596-107.207 282.452C1181.615 1204.843 1122.44 1284.688 1051 1352zM1366 2125h319v241.8c-.22 7.177.99 15.741-4.523 20.773-9.746 5.57-25.564 2.553-38.232 3.047-38.813-1.12-77.444-5.445-116.245-6.62v9c32.35 5.523 65.926 14.432 90.356 37.906 12.507 10.982 19.81 26.165 24.007 41.97 2.29 8.843 3.882 17.796 5.24 26.818.612 4.292 1.286 8.555 1.758 12.86.518 3.644.291 8.907 2.139 11.446 38.776-5.797 81.084-8.93 115.723-30.13 12.29-7.505 23.28-17.272 30.633-29.813 13.158-23.664 15.783-51.44 16.995-77.899.424-87.057-.077-174.113.149-261.158h112.8c9.383-.161 23.23.423 28.89-10.513 2.627-2.98-2.853-7.533-4.33-9.613-9.856-9.891-19.735-19.733-29.595-29.605-9.832-9.632-20.304-18.513-30.135-28.14-8.138-7.601-16.63-14.837-24.13-23.129-8.298 13.107-17.29 25.936-25.811 38.932-8.83 12.413-15.967 26.372-25.689 38.068h-2v-68c11.917-.35 29.554-6.38 31-22-37.962-3.722-76.03-6.27-114-10 .641-4.593 7.423-6.993 11.174-10.109 32.038-22.153 63.105-45.817 92.232-71.685 14.703-12.591 30.908-28.516 43.696-40.808 3.43-3.536 7.08-6.86 10.27-10.609 4.377-7.587 13.729-5.496 20.993-6.793 7.808-.746 14.217-5.27 18.635-11.496-23.23-12.899-47.342-24.54-70.873-36.938-24.38-11.438-47.49-25.778-72.127-36.562-18.7 52.166-46.174 101.152-73.887 148.982-13.57 23.28-28.496 45.733-44.115 67.681-8.122 11.014-16.012 22.221-24.752 32.766-4.143 5.445-8.585 10.617-13.055 15.775-1.663 2.439-4.719 4.785-5.691 8.223-.003 2.609 3.573 4.899 4.75 7.573 10.09-3.843 19.32-9.842 28.968-14.611 9.67-3.68 19.475-12.247 28.782-14.389v73h-325c.955 8.211 5.05 15.784 6 24m3-301c19.428 48.49 42.168 97.914 45.431 151.186-.798 13.052 14.425 20.362 24.406 25.239 17.843 9.137 40.526 5.32 56.218-6.129 15.756-10.54 24.61-33.301 23.881-50.088-1-16.655-6.644-33.13-16.331-46.726-28.923-39.82-75.89-61.703-121.77-74.968-4.51-1.94-8.52-.806-11.835 1.486m551-67.5c-44.289-39.622-87.81-80.2-131.5-120.5-62.9 34.414-131.223 58.12-198.222 83.07-70.346 23.428-141.479 45.525-214.278 59.93.196 2.777-.36 6.424.958 8.751 2.473 1.918 6.782.835 9.607 1.249 134.385.663 269.286-1.51 402.492-21.366 11.081-1.547 22.127-3.18 33.126-5.171a407 407 0 0 0 24.698-4.568c6.371-1.691 12.734-.093 18.747 1.99 17.167 5.232 40.336 6.87 54.372-3.385M1391 1470h328v-317h-328zm38 684.264c15.635 27.53 30.624 55.817 42.074 85.448 9.546 22.971 15.462 47.703 19.772 71.952 11.953 12.73 33.032 19.784 48.646 19.336 26.867.285 52.206-20.78 57.958-46.779 7.25-27.332-6.29-56.122-25.683-74.954-17.024-16.679-41.656-31.45-62.098-39.004-11.81-4.883-24.057-8.541-36.42-11.702-12.302-2.245-26.78-7.435-38.38-7.005-2.063.445-4.176 1.62-5.869 2.444zM1530 1799c3.708 12.698 10.218 24.74 13.4 37.706 7.18 23.014 13.102 46.434 16.924 70.248 1.455 8.981 2.46 18.071 2.93 27.151.18 4.33.363 8.651.54 12.97.268 3.297-.167 8.197 1.653 10.42 17.311 19.664 46.91 29.466 71.635 18.83 24.642-10.011 40.239-36.881 37.759-63.155-3.662-31.89-25.97-57.61-50.967-75.753-25.494-18.267-54.867-30.608-84.736-39.668-2.987-.854-6.836.651-9.138 1.251" style="fill:#fda;fill-rule:evenodd;stroke:none"/><path d="M338 2761.5c387.06 1.426 774.925-.26 1162.15.5 387.224-.76 774.71.926 1161.85-.5-77.265-456.459-152.125-914.01-228.874-1370.691-28.417-170.851-56.988-341.657-85.4-512.497-12.491-74.824-24.942-149.684-37.431-224.508-5.828-35.176-11.741-70.32-17.569-105.492-3.54-17.097-4.968-34.714-9.072-51.664-1.3-3.941-8.915-3.966-11.797-5.85-133.175-44.44-266.372-88.79-399.558-133.193-116.482-38.867-233.005-77.647-349.48-116.505-6.56-1.974-12.94-4.527-19.527-6.382-6.558-1.31-12.878 2.396-19.017 4.029-100.339 33.452-200.674 66.889-301.01 100.324-87.802 29.33-175.659 58.504-263.446 87.829-38.52 12.817-77.015 25.657-115.52 38.495-18.005 5.974-35.995 12.026-54 18-8.822 2.95-17.652 5.903-26.471 8.83-4.346 1.012-8.371 2.451-8.57 8.208-90.761 544.76-181.624 1089.514-272.367 1634.27-35.423 208.458-69 418.87-104.891 626.797m111-95v1.5h2102v-1.5c-63.81-378.768-126.215-757.87-189.705-1136.696-47.349-283.998-94.654-568.016-142-852-4.398-26.67-8.911-53.338-13.325-80.003-1.118-6.656-2.232-13.342-3.35-19.985-.571-3.586-1.119-7.183-2.096-10.662-1.288-2.958-6.82-3.128-9.193-4.54-101.51-33.828-203.017-67.663-304.512-101.514a746151 746151 0 0 1-266.522-88.84c-39.072-12.89-78.06-26.135-117.144-38.98-4.713-1.335-9.273 1.032-13.839 2.453-144.507 48.104-288.95 96.378-433.449 144.467-54.18 18.08-108.385 36.116-162.566 54.195-23.808 7.923-47.625 15.882-71.434 23.805-5.676 1.96-11.407 3.738-17.06 5.726-6.564 1.113-6.72 8.744-7.34 13.268C740.08 921.349 682.77 1265.54 625.383 1609.692 566.339 1961.663 508.308 2314.864 449 2666.5" style="fill:gray;fill-rule:evenodd;stroke:none"/><path d="M1254 1217.25c3.028 5.444 1.639 14.087 2 21.725V1588h27v-2h-25v-370h-2.5c-.4.393-.863.807-1.5 1zM1390 1471h329v-2h-327v-278.4c.799-12.428-1.132-27.33 1-38.6h-3z" style="fill:#40372b;fill-rule:evenodd;stroke:none"/><path d="m1391 1495.5.5 1.5c5.147-2.254 13.242-.08 19.688-1H1717v88h13.2c3.736-.12 9.208.47 11.8-1.5-7.466-1.315-15.432.148-23-.5v-88h-328z" style="fill:#bfa67f;fill-rule:evenodd;stroke:none"/><path d="M1047 2196.258c13.32 26.17 27.222 52.333 40.438 78.615 13.936 26.213 26.697 53.202 41.062 79.127 15.009-8.594 17.823-22.405 22.3-36.459 22.137-38.517 43.19-77.625 62.7-117.541 1.426 107.549-.26 215.392.5 323 19.917.248 40.142 1.082 59.587-4.144 13.356-3.422 26.644-7.63 39.066-13.69 8.62-4.389 18.504-10.241 25.386-15.869 2.706-2.459 5.904-5.49 7.43-8.518 2.78-7.227.793-15.42 1.531-22.932V1679c13.678-1.62 33.018-6.93 34-27-55.762-3.687-111.192-12-167-15-.76 80.929.926 162.151-.5 243-13.597-27.762-41.446-52.803-64.674-68.11-13.12-8.802-27.275-16.014-41.61-22.595-7.407-3.265-14.797-6.531-22.384-9.359-3.832-1.46-7.567-3.254-11.566-4.185-3.975-1.05-7.142 1.557-10.266 2.249 20.097 53.7 33.077 110.198 33.839 167.748-.285 7.839-.962 15.66-.826 23.496-.552 6.3 5.792 11.158 9.877 15.079 15.737 14.056 37.084 23.192 58.483 19.916 20.406-2.486 38.3-15.103 49.127-32.239 1.426 29.079-.26 58.66.5 87.834v47.964c1.784 9.701-8.295 12.578-15.334 15.877-50.18 24.882-100.721 49.137-151.666 72.325zm2-843.8c1.917 2.694 4.16 5.202 6.5 7.542 35.586-19.959 71.99-39.067 104.77-63.687 33.82-24.165 66.978-49.666 96.23-79.313 1.426 123.159-.26 246.756.5 370 33.328.53 68.15 2.31 99.366-12.175 6.972-3.14 13.739-6.744 20.19-10.879 4.746-3.134 9.981-6.084 13.109-11.017 4.171-7.187 1.277-19.116 2.335-28.448V1495h326v88c21.234.66 42.608.728 63.353-4.572 14.428-3.148 28.657-7.258 42.67-11.844 9.466-3.995 21.519-7.698 29.121-13.47 3.378-2.703 2.892-8.086 2.856-11.933v-337.583c.108-6.792-.136-13.585.082-20.369-.297-5.108 5.145-5.8 9.046-7.118 12.158-4.09 23.863-10.361 32.872-19.611-36.98-29.355-74.627-57.886-111.881-86.894-3.585-2.698-7.166-5.383-10.64-8.223-7.29-7.158-13.83 6.352-18.615 10.407-10.91 12.248-21.92 24.413-32.76 36.726-4.93 5.253-9.431 10.915-14.404 16.112-5.168 4.04-14.752 1.495-21.977 2.372h-257.267c-13.787.687-27.752 1.012-40.448-5.131-11.71-3.974-23.316-8.467-35.008-12.369 32.917-39.227 59.88-83.047 85.681-127.105 24.955-46.308 48.63-94.034 64.319-144.395h328.2c27.436-.125 54.839.153 82.265-.082 9.069-.511 19.698-1.368 25.879-8.974 6.466-6.883-5.656-13.396-9.735-17.069-20.896-17.32-42.469-33.772-64.182-50.034-10.917-8.173-21.702-16.521-32.654-24.623-5.25-4.207-10.794-8.051-16.057-12.227-5.082-3.311-10.183-8.907-15.388-10.991-26.106 32.513-51.716 65.499-77.828 98-2.614-1.525-6.816-.694-10.25-1H1069c3.247 8.484 4.497 19.695 8.456 26.183 9.986 1.93 20.574-.024 30.703.817H1336c-19.841 99.332-57.978 194.77-108.315 282.51-24.213 42.203-50.815 83.1-80.219 121.86-29.559 39.473-63.367 75.616-98.466 110.088m309 748.042c2.491 8.104 5.443 17.866 7 25.5h319v240.6c-.222 6.909.946 15.849-5.023 20.2-9.632 5.467-25.274 2.151-37.724 2.746-38.81-1.09-77.434-5.713-116.253-6.546v11c32.35 5.523 65.926 14.432 90.356 37.906 12.507 10.982 19.81 26.165 24.007 41.97 2.29 8.843 3.882 17.796 5.24 26.818.612 4.292 1.286 8.555 1.758 12.86.493 3.594.324 8.89 2.139 11.446 27.06-3.507 54.486-6.038 80.707-14.233 17.89-5.812 36.178-12.717 50.317-25.675 23.446-18.625 30.547-49.654 33.204-77.837 2.188-31.974.78-64.112 1.272-96.132V2126h77.4c13.02-.005 26.031.006 39.038-.003 10.431.132 22.574-1.533 27.562-14.497-13.636-15.699-31.727-32.328-45.475-45.482-7.727-7.715-16.017-14.78-23.627-22.618-3.968-3.7-8.334-6.974-12-11.002-3.504-3.114-7.752-8.924-11.898-9.398-7.162 13.507-17.405 25.753-25.311 38.932-8.364 12.7-16.34 25.702-25.189 38.068-1.42-21.797.252-44.11-.5-66 7.468.068 14.794-2.212 21.042-6.232 7.277-4.122 8.628-10.64 10.958-17.268-37.91-5.743-77.133-5.18-115-11 34.28-23.384 67.83-48.098 99.127-75.408 15.8-14.353 31.88-28.336 46.848-43.567 3.67-3.8 7.58-7.359 11.06-11.335 4.654-8.133 14.626-5.858 22.383-7.387 8.115-1.062 14.733-6.293 18.582-13.303-24.27-12.004-48.057-25.158-72.334-37.175-24.035-12.466-48.245-24.725-72.166-37.325-20.778 49.746-44.222 98.792-72.363 144.947-27.01 45.54-56.998 89.68-92.137 129.366 1.32 4.065 5.035 7.788 7.5 10.687 18.56-10.009 37.729-19.381 56-30 1.422 23.537-.255 47.396.5 71h-326zm9-276.125c5.408 13.197 12.564 25.815 17.292 39.36 9.201 23.959 17.43 48.44 23.25 73.46 2.386 9.803 3.861 19.784 4.962 29.789 1.485 7.293-.767 17.85 7.324 23.46 10.95 8.863 24.309 15.043 38.366 16.163 21.652 1.314 43.747-10.056 53.804-29.64 11.07-19.29 9.877-43.363 1.087-63.24-10.435-25.383-36.017-46.828-56.38-60.238-23.727-14.542-49.851-24.602-76.45-32.43-5.344-1.885-9.268.272-13.255 2.941zM1922 1758v-1.5c-37.677-34.245-75.28-68.599-112.739-103.081-3.785-3.14-6.965-6.945-10.776-10.037-3.812-1.714-7.088-8.682-11.099-7.574-63.784 32.668-131.105 58.434-198.598 82.418-70.18 23.387-141.152 45.39-213.788 59.774.32 3.522-.574 7.993.94 10.732 2.985 2.182 8.089.722 11.443 1.268 126.476.757 253.311-1.387 378.867-18.17 26.192-3.21 52.32-7.158 78.215-12.225 6.43-2.114 13.015-1.544 19.209 1.026 19.308 6.08 40.154 6.447 58.326-2.631m-531-288h327v-316h-307.8c-5.992-.366-14.456.7-19.2-1zm36 684.457c19.796 31.84 35.88 66.267 48.757 101.47 4.53 13.911 8.644 27.973 11.407 42.346 1.447 6.111.866 14.362 5.793 17.593 18.422 14.657 43.696 21.17 66.357 12.848 16.039-5.382 29.104-18.24 35.978-33.527 10.525-24.896 4.657-54.343-12.236-75.092-15.25-20.11-37.115-34.223-59.416-45.272-28.083-12.906-58.846-20.576-89.255-25.24-2.062 2.054-5.727 2.192-7.385 4.874m101-355.129c13.228 31.08 22.828 63.899 29.184 97.112 2.786 12.93 4.713 26.029 5.094 39.256.317 6.026.435 12.029.764 18.041.924 8.61 13.236 13.991 20.5 19.462 15.758 9.34 35.47 11.526 52.661 4.858 25.113-9.16 41.756-35.67 39.783-62.214-.97-26.776-17.158-50.72-36.786-67.679-28.769-26.336-65.885-40.585-102.144-52.839l-.556-.325c-2.43 1.534-5.444 2.513-8.5 4z" style="fill:#000;fill-rule:evenodd;stroke:none"/></svg>