<svg xmlns="http://www.w3.org/2000/svg" width="3000" height="3000"><path d="M448 2669h2104c-108.019-653.996-218.137-1307.761-326.618-1961.691-6.813-40.83-13.621-81.671-20.41-122.502-.9-5.185-1.732-10.375-2.627-15.558-.693-5.948-7.25-6.546-11.566-8.162a2264805 2264805 0 0 1-451.953-150.644c-56.522-18.824-113.032-37.715-169.56-56.514-12.477-4.17-24.972-8.31-37.44-12.486-6.015-1.98-11.998-4.026-18-6-5.943-1.873-12.256-5.247-18.565-3.023-92.812 30.91-185.585 61.892-278.396 92.78-138.737 46.826-278.12 92.047-416.698 139.266-3.665 1.962-2.298 9.57-3.876 12.727-22.4 134.514-44.811 269.006-67.243 403.502C635.746 1543.503 540.855 2106.166 448 2669m599-1662.5c1.012 2.273 4.585 3.283 6.5 5.5 6.778-6.423 14.89-11.264 22.046-17.21 3.87-2.897 7.37-6.229 11.102-9.286 3.5-2.567 7.203-6.968 11.352-7.504.543 2.76 4.52 2.76 6.55 2.935 18.159.185 36.298-.034 54.45.065v113c-35.929.76-72.151-.926-108 .5 2.738 7.67 5.155 17.267 7 24.5h101v154h-3c-7.098-23.312-21.667-44.203-38.733-61.233-8.492-8.915-17.513-17.297-27.537-24.468-4.83-3.667-9.82-7.134-14.755-10.653-4.4-3.687-10.687-4.097-14.975-.146 7.739 27.238 12.341 55.349 14.295 83.594 2.28 29.166 3.031 59.685-2.295 88.406 10.159 10.882 22.372 22.865 38.581 22.478 16.403.812 30.926-9.871 39.696-22.89 2.341-3.604 5.328-8.038 5.723-12.088h3v84c-34.286 5.353-68.443 12.62-103 16 15.068 44.906 33.348 88.985 48 134 7.91-.152 14.745-8.133 19.471-13.39 2.22-2.739 3.663-5.927 5.067-9.124 1.267-2.773 4.86-4.183 7.957-5.727 46.755-25.364 93.216-51.264 138.996-78.366 23.286-13.912 46.382-28.116 69.426-42.41 11.032-7.037 22.03-14.066 32.978-21.224 5.53-3.248 10.791-6.898 16.132-10.438 2.702-1.881 6.034-3.866 8.23-5.943 2.476-1.63.77-7.278.243-9.378-21.55 5.507-44.206 8.22-65.978 13.188-11.44 2.228-22.892 4.227-34.317 6.48-11.048 1.712-23.914 5.238-34.205 5.332v-38c3.673-.048 7.537.674 10.5 3 19.609-18.74 36.706-39.887 51.332-62.724 7.325-10.712 13.972-21.838 20.517-33.022 3.183-5.74 6.557-11.344 9.602-17.145 1.512-3.063 3.028-6.128 4.676-9.107 1.58-2.547 2.544-6.726 6.373-7.002.494 3.683 2.398 7.673 3 11h87v76c-31.607.76-63.478-.926-95 .5 3.007 7.53 4.34 15.841 7 23.5h88v72c-43.055 4.73-85.84 12.39-129 16 1.188 7.962 8.085 15.392 10.564 22.122 14.202 25.545 27.394 51.658 41.594 77.198 3.635 6.481 7.104 13.08 10.57 19.65 3.26 6.129 9.739 1.636 13.467-1.814 3.046-2.72 5.994-5.66 7.862-9.325 4.395-10.904 19.72-13.864 28.79-19.26 43.177-20.395 85.848-41.788 128.487-63.246 41.137-21.118 82.242-42.653 121.666-66.825-.822-2.434-1.046-4.95-1-7.5-40.505 4.046-80.553 12.366-121 17v-56h66c11.217-.077 22.42.095 33.63-.055 4.923-.214 9.962-.922 14.432-3.094 5.229-2.002 6.387-6.44 8.938-10.351-21.027-18.802-42.763-36.77-65.457-53.568-2.9-2.088-5.633-4.396-8.655-6.304-2.722-2.492-5.48.48-7.219 2.826a4826 4826 0 0 0-20.157 25.196c-3.355 4.086-6.575 8.273-9.921 12.357-3.17 3.799-6.08 9.15-11.591 8.993v-76h96c5.258.01 10.58.174 15.767-.824 4.486-.701 8.623-3.237 13.233-3.176 3.269 35.22 11.967 69.785 19.564 104.226 1.3 5.777 4.738 12.301.75 18.162-22.607 39.047-49.066 76.044-79.547 109.345-30.172 34.83-67.86 61.786-104.767 88.767 2.167 2.002 4.45 7.947 7.657 6.652 3.855-.993 7.35-3 11.055-4.397 58.105-25.12 113.553-57.83 160.273-100.926 8.928-7.627 18.581-17.503 26.49-24.795 1.916-2.056 5.078-5.01 7.087-2.265 19.164 38.929 37.66 80.344 70.229 110.367 12.271 10.586 25.22 20.578 40.085 27.275 13.827 5.712 31.556 10.671 45.387 8.925 12.826-1.962 24.693-8.726 34.185-17.339 9.611-8.986 8.948-20.653 8.392-32.636-2.195-19.592-8.868-38.376-15.766-56.679-2.093-6.49-7.119-15.038-6.527-20.849 6.04-52.264 11.896-104.651 18.453-156.833l-8-1c-13.938 40.665-30.808 80.506-51.007 118.437-1.94 3.603-5.87 6.357-9.872 4.724-6.505-3.073-10.043-12.253-14.265-17.522-7.293-12.217-13.856-24.899-19.537-37.945-2.94-6.172-4.823-12.778-7.456-19.073-1.773-5.522-4.602-11.969-5.311-17.26.589-5.405 4.982-9.736 7.042-14.61 42.326-73.63 70.133-154.825 91.406-236.751 7.246-.063 14.62-.255 21.64-2.232 6.49-2.095 11.977-8.351 15.36-13.268-46.205-13.334-91.728-29.483-138-42.5-2.097 22.37-5.721 44.552-9.623 66.663-1.717 11.789-4.39 23.357-6.807 35.006-1.241 5.823-2.243 11.7-3.613 17.492-2.13 4.617-1.892 12.775-4.957 15.839h-2c-3.767-68.593-5.643-137.277-5-206h132.6c12.814.31 29.558-.543 33.4-13.687-17.45-17.317-35.74-33.936-54-50.313 1.082-3.375 6.486-4.894 9.133-7.913 11.425-9.307 18.713-23.08 19.486-37.8.424-22.744-14.887-41.598-32.514-53.928-17.667-13.583-38.81-21.454-59.838-28.02-9.25-2.03-21.352-7.694-31.267-3.339 1.234 7.652 7.247 13.744 9.248 21.173 11.012 26.049 16.846 54.14 17.565 82.334.108 3.793.114 7.639.655 11.375 2.273 4.797 11.78 7.975 9.118 13.292-8.514 14.44-20.666 27.13-28.586 41.826h-24c-.258-59.016 2.178-118.005 3-177 9.192-.865 19.278-2.695 25.995-9.69 2.772-2.995 5.461-7.29 6.132-11.02 1.532-5.127-7.374-4.375-10.449-4.93-8.047-.884-16.087-1.8-24.15-2.54-12.104-1.392-24.227-2.678-36.331-4.052-26.008-3.45-52.209-5.312-78.197-8.768.7 33.334 1.188 66.662 1 100-5.673-.691-10.255-7.79-15.544-11.25-14.87-12.17-29.109-25.196-44.456-36.75-7.964 8.796-14.185 19.3-21.88 28.369-3.778 4.712-7.243 9.654-10.954 14.41-3.782 4.078-6.986 11.54-12.166 12.221v-67c11.464-1.941 26.803-5.62 29-22-23.452-2.851-47.247-3.75-70.758-6.274-23.773-1.618-47.457-4.347-71.242-5.726v101h-57.6c-7.146.123-14.304-.227-21.426.314-5.45.865-8.413-6.007-12.283-8.908C1342.336 779.37 1301.443 761.824 1269 753v-3c11.458-.868 29.172-4.909 32-20-54.043-8.384-107.911-19.066-162-27-5.746 53.712-19.916 106.317-34.555 158.158-14.289 50.006-32.663 99.803-57.445 145.342m2 1189.983c12.236 26.172 26.92 51.313 39.438 77.39 13.108 26.18 26.989 51.935 40.062 78.127 14.66-6.847 16.659-23.443 21.3-35.459 21.466-38.716 43.9-77.216 62.2-117.541h3v323c19.503.318 39.335 1.009 58.342-4.339 13.117-3.349 26.13-7.576 38.32-13.503 8.718-4.479 17.275-9.467 24.988-15.519 2.714-2.473 5.985-5.467 7.615-8.461 3-6.88 1.05-14.891 1.735-22.131V1678c13.399-1.72 31.121-6.226 34-25-55.07-4.017-109.902-11.406-165-15v243h-3c-5.636-14.894-19.108-28.946-28.87-39.37-16.41-17.225-36.372-30.58-57.277-41.702-10.98-5.686-22.05-11.146-33.572-15.624-5.86-2.127-11.486-4.839-17.398-6.798-2.986-1.447-5.406-1.381-7.757.865-2.676 1.063-.78 5.472-.212 7.407 14.175 38.557 24.312 78.657 28.63 119.583 1.916 19.812 2.617 39.699 1.554 59.556-.807 5.414.228 9.597 4.377 13.058 9.183 9.539 20.33 17.38 32.832 21.9 14.59 5.141 30.982 5.45 45.395-.956 14.196-5.185 24.441-16.46 33.298-27.919h2v136.2c-.21 3.738.913 8.959-3.251 11.287C1157.93 2145.1 1104.364 2172.82 1049 2196zM1122 954.5v1.5h111c7.567.305 17.242 1.896 21.28-6.918 7.278-11.013 14.677-21.97 21.961-32.977 4.639-8.427 10.913-15.871 15.592-24.25 2.445-6.517-8.146-11.313-10.096-18.123-2.535-23.432-1.337-47.52-6.832-70.694-1.423-7.438-3.283-14.762-5.18-22.078-1.073-3.582-2.27-7.111-3.471-10.647-1.148-3.429-2.317-7.99-6.254-8.313-15.729 36.286-38.16 69.368-61.168 101.366-11.404 16.195-24.376 31.186-36.99 46.41-6.336 7.975-13.478 15.242-20.136 22.923-6.242 7.32-14.968 13.446-19.706 21.801m146 139.5h4c6.156-11.488 16.073-24.005 21.985-34.484 8.015-10.809 14.192-22.962 22.515-33.516 10.61 10.126 21.58 19.838 31.602 30.602l15.768 15.768c5.087 3.944 10.592 12.57 16.13 13.63V975h-2c-16.175 8.57-35.508 5.095-53 6h-57zm0 242h3c10.706-55.428 15.855-111.78 20-168 39.364 10.275 78.493 22.399 118 32-1.992 11.462-14.464 18.35-25 19v3h170.4c3.437-.362 7.53.607 10.398-.956 7.684-6.464 12.692-17.839 19.006-24.45 3.132-4.112 6.03-8.392 9.13-12.513 2.73-3.909 6.982-8.435 7.066-13.081-15.474 3.257-31.272 3.5-47 3v-35h-68c-.165 5.757.324 12.626-.479 17.857-4.082 7.71-15.097 10.664-21.54 14.142-25.849 12.598-54.476 17.246-82.981 16.001v-69c-18.29 2.151-36.903.182-55.275 1H1268zm193-412v-86c-22.979-.76-46.085 1.093-69-1 1.263 10.002 1.954 20.424-1.716 30.05-11.259 25.99-41.775 41.279-69.284 34.95.354 5.135 7.462 8.799 10.87 13.37 4.2 4.464 7.944 9.613 15.788 8.63zm-95 1201h319v241.8c-.22 7.177.99 15.741-4.523 20.773-9.746 5.57-25.564 2.553-38.232 3.047-38.813-1.12-77.444-5.445-116.245-6.62v9c32.345 5.554 65.957 14.427 90.392 37.898 12.434 11.034 19.816 26.163 23.97 41.978 2.29 8.843 3.883 17.796 5.24 26.818.613 4.292 1.287 8.555 1.76 12.86.517 3.644.29 8.907 2.138 11.446 38.6-5.77 80.718-8.862 115.254-29.849 12.48-7.543 23.638-17.421 31.102-30.094 13.158-23.664 15.783-51.44 16.995-77.899.424-87.057-.077-174.113.149-261.158h112.8c9.383-.161 23.23.423 28.89-10.513 2.627-2.98-2.853-7.533-4.33-9.613-9.856-9.891-19.735-19.733-29.595-29.605-9.832-9.632-20.304-18.513-30.135-28.14-8.138-7.601-16.63-14.837-24.13-23.129-8.225 13.116-17.336 25.86-25.741 38.895-7.587 11.228-16.619 26.544-25.759 38.105h-2v-68c11.917-.35 29.554-6.38 31-22-37.963-3.644-76.03-6.358-114-10 .641-4.593 7.423-6.993 11.174-10.109 31.963-22.262 63.18-45.708 92.232-71.685 14.703-12.591 30.908-28.516 43.696-40.808 3.43-3.536 7.08-6.86 10.27-10.609 4.377-7.587 13.729-5.496 20.993-6.793 7.808-.746 14.217-5.27 18.635-11.496-23.23-12.899-47.342-24.54-70.873-36.938-24.398-11.405-47.508-25.746-72.127-36.562-18.7 52.166-46.174 101.152-73.887 148.982-13.706 23.19-28.363 45.833-44.113 67.684-8.134 11.014-16.004 22.214-24.754 32.763-4.143 5.445-8.585 10.617-13.055 15.775-1.663 2.439-4.719 4.785-5.691 8.223-.003 2.609 3.573 4.899 4.75 7.573 10.09-3.843 19.32-9.842 28.968-14.611 9.67-3.68 19.475-12.247 28.782-14.389v73h-325c.955 8.211 5.05 15.784 6 24m1-1174.5c5.852 10.117 16.117 16.633 26.818 20.23 31.31 11.397 62.027 24.388 93.396 35.594 11.082 1.644 22.473-.066 33.621.676h13.148c3.405-.041 8.37.353 10.65-1.549 4.792-3.387 8.006-8.425 12.007-12.577 11.924-11.949 22.875-24.828 34.693-36.874 30.985 18.228 57.523 45.339 88.667 63 .255-23.337.075-46.694-1-70h-312zm2 873.5c19.34 48.388 42.056 97.56 45.386 150.657-.941 13.493 14.51 21.07 24.914 26 18.349 9.22 41.255 4.744 57.019-7.262 15.812-11.32 24.162-34.88 22.43-52.087-2.918-33.334-25.439-60.675-51.946-79.177-25.659-18.756-55.82-30.322-85.956-39.613-4.507-1.946-8.531-.818-11.847 1.482m8-34.5c46.99-1.618 94.784.652 141.935-1.1 67.856-1.164 135.598-5.972 203.115-12.441 34.053-3.708 68.084-7.886 101.83-13.766 8.285-1.242 16.451-3.161 24.686-4.593 12.278-1.269 23.879 6.032 36.185 6.077 12.103 1.543 25.23.58 35.249-7.177-44.289-39.622-87.81-80.2-131.5-120.5-63.699 34.672-132.73 58.993-200.66 83.895-69.531 23.144-139.897 44.832-211.84 59.105-.014 3.526.483 7.023 1 10.5m52 364.764c15.635 27.53 30.624 55.817 42.074 85.448 8.972 22.878 15.727 46.708 19.384 71.015 3.87 6.622 14.15 10.343 20.368 14.192 15.184 7.449 33.278 7.998 49.076 2.251 22.39-8.12 37.38-30.226 39.496-53.448 2.248-23.744-12.702-49.852-27.63-64.455-16.905-16.55-41.354-31.254-61.612-38.81-12.13-4.935-24.618-8.886-37.333-12.011-12.16-2.199-26.484-7.319-37.953-6.89-2.064.445-4.177 1.62-5.87 2.444zM1485 1114h68v-83h-68zm45 685c3.708 12.698 10.218 24.74 13.4 37.706 6.978 22.72 13.045 45.75 16.813 69.244 1.347 9.067 2.657 18.18 3.003 27.358.187 4.354.367 8.68.55 13.02.51 3.334-.403 8.72 1.581 10.976 17.286 19.812 47.432 29.533 72.14 18.841 24.4-10.154 40.151-37.226 37.193-63.421-3.496-31.98-26.413-57.444-51.221-75.617-25.44-18.058-54.588-30.374-84.32-39.358-2.988-.854-6.837.651-9.139 1.251m44-875h105v-86h-105zm121 300c-8.205-60.69-10.807-121.928-14-183-5.01.645-11.198 4.111-17.097 5.392-3.43.198-2.635 6.241-2.903 8.377v74.067c-.011 5.388.014 10.752-.007 16.13.968 8.186-7.915 10.884-13.988 13.155-6.434 1.834-13.834 5.32-20.005 5.879.581 6.633 10.47 10.681 15.08 16.253 8.496 7.202 18.554 15.576 26.158 22.396 4.4 3.899 8.962 7.64 13.343 11.54 4.17 3.57 8.357 9.421 13.419 9.811" style="fill:#fda;fill-rule:evenodd;stroke:none"/><path d="M338 2761.5c387.06 1.426 774.925-.26 1162.15.5 387.224-.76 774.71.926 1161.85-.5-77.265-456.459-152.125-914.01-228.874-1370.691-28.417-170.851-56.988-341.657-85.4-512.497-12.491-74.824-24.942-149.684-37.431-224.508-5.828-35.176-11.741-70.32-17.569-105.492-3.54-17.097-4.968-34.714-9.072-51.664-1.3-3.941-8.915-3.966-11.797-5.85-133.175-44.44-266.372-88.79-399.558-133.193-116.482-38.867-233.005-77.647-349.48-116.505-6.56-1.974-12.94-4.527-19.527-6.382-6.558-1.31-12.878 2.396-19.017 4.029-100.339 33.452-200.674 66.889-301.01 100.324-87.802 29.33-175.659 58.504-263.446 87.829-38.52 12.817-77.015 25.657-115.52 38.495-18.005 5.974-35.995 12.026-54 18-8.822 2.95-17.652 5.903-26.471 8.83-4.346 1.012-8.371 2.451-8.57 8.208-90.761 544.76-181.624 1089.514-272.367 1634.27-35.423 208.458-69 418.87-104.891 626.797m111-95v1.5h2102v-1.5c-63.81-378.768-126.215-757.87-189.705-1136.696-47.349-283.998-94.654-568.016-142-852-4.398-26.67-8.911-53.338-13.325-80.003-1.118-6.656-2.232-13.342-3.35-19.985-.571-3.586-1.119-7.183-2.096-10.662-1.288-2.958-6.82-3.128-9.193-4.54-101.51-33.828-203.017-67.663-304.512-101.514a746151 746151 0 0 1-266.522-88.84c-39.072-12.89-78.06-26.135-117.144-38.98-4.713-1.335-9.273 1.032-13.839 2.453-144.507 48.104-288.95 96.378-433.449 144.467-54.18 18.08-108.385 36.116-162.566 54.195-23.808 7.923-47.625 15.882-71.434 23.805-5.676 1.96-11.407 3.738-17.06 5.726-6.564 1.113-6.72 8.744-7.34 13.268C740.08 921.349 682.77 1265.54 625.383 1609.692 566.339 1961.663 508.308 2314.864 449 2666.5" style="fill:gray;fill-rule:evenodd;stroke:none"/><path d="M1376 975.25c.047.678.167 1.205.75 1.75a5.7 5.7 0 0 0 1.75-1c1.426 35.87-.26 72.07.5 108h2V974c-1.734.037-3.559.188-5 1.25" style="fill:#7f6e55;fill-rule:evenodd;stroke:none"/><path d="M1379 1222c2.254-.126 5.029.292 7-.5-.535-.664-.657-1.239 0-2-2.224-.839-4.69-.328-7-.5z" style="fill:#6c5e48;fill-rule:evenodd;stroke:none"/><path d="M1796 1156h3c.008-1.003-.024-2.19-.5-3-.81.79-1.671.41-2.5 0z" style="fill:#a58f6e;fill-rule:evenodd;stroke:none"/><path d="M1045 1007.625c2.913 1.36 7.079 5.987 9.886 4.397a387 387 0 0 0 10.091-7.494c10.914-7.995 21.46-16.496 31.523-25.528 1.718 3.135 6.623 2.9 9.331 2.994 3.784.016 7.579-.002 11.36.006H1158v111h-108c1.181 9.25 5.624 17.81 7 27h101c-.76 50.607.926 101.478-.5 152-8.461-23.523-22.185-45.198-40.37-62.37-8.819-9.04-18.244-17.483-28.504-24.874-4.967-3.68-10.043-7.225-15.109-10.744-4.265-3.776-10.752-.81-15.517 1.488 7.644 22.563 11.025 46.542 13.904 70.113 1.868 18.613 3.38 37.317 3.096 56.048.166 13.933-1.237 27.807-2.893 41.612-1.664 6.098 1.271 9.55 5.495 12.83 11.244 13.026 29.473 19.865 46.317 14.362 15.026-4.944 28.839-19.984 33.581-33.465 1.424 27.256-.257 54.71.5 82-34.286 5.353-68.443 12.62-103 16 6.401 23.503 16.921 46.05 24.274 69.309 9.005 22.267 15.492 45.779 25.226 67.691 7.591-2.002 13.82-6.994 18.762-12.925 3.96-5.096 6.247-13.667 13.807-16.106 47.096-25.406 93.772-51.655 139.878-78.832 23.425-13.9 46.524-28.319 69.71-42.588 11.145-7.099 22.278-14.197 33.307-21.462 5.637-3.26 10.928-7.102 16.371-10.66 2.33-1.8 6.108-3.5 7.99-6.194.828-3.329.03-6.894-.325-10.233-45.04 7.679-89.774 18.625-135 25v-36c3.23.256 6.243 1.573 9.327 2.475 5.244-1.792 7.845-7.335 12.275-10.577 11.322-11.498 21.069-24.446 30.465-37.508 18.835-25.068 33.692-52.929 48.433-80.39 1.662 3.157 2.424 8.273 3.5 11h87v74h-95c1.463 8.853 4.98 17.296 7 26h88v70c-21.703 2.77-43.441 5.823-65.162 8.528-11.04 1.58-22.14 2.47-33.135 4.328-10.32 2.373-23.574 1.239-32.703 4.644 22.983 41.034 44.76 83.239 67.5 124.5 7.02-2.564 13.737-6.066 18.191-12.46 3.501-5.51 5.102-11.937 13.148-14.472 47.625-22.868 95.64-45.217 142.454-69.722 23.494-11.667 46.57-24.099 69.612-36.605 11.069-6.007 22.061-12.172 33.008-18.389 5.323-3.133 10.737-6.099 15.98-9.353 2.512-1.573 6.809-3.725 6.498-6.45.073-2.864-.42-6.354-1.891-8.549-39.601 6.981-79.84 11.28-119.5 18v-54h55.8c14.02-.022 28.031.027 42.038-.014 8.32-.148 20.061-1.469 23.793-11.477 1.767-3.423-.217-6.056-3.04-7.655-17.255-16.321-36.204-30.775-55.036-45.193-6.28-4.208-12.794-10.911-19.211-13.661-14.85 16.657-27.43 35.448-42.344 52h-2v-74h62.4c19.634-.304 43.318 1.637 60.6-4 3.268 35.216 11.968 69.789 19.563 104.224 2.281 6.949 3.963 12.274-.178 17.844-22.692 38.848-49.084 75.825-79.755 108.802-15.516 16.225-34.387 34.623-50.442 47.61-17.445 13.748-35.1 28.293-54.188 39.52v1.5c2.53 3.066 4.806 6.364 7.25 9.5 38.06-15.953 75.674-33.889 109.95-57.13 34.654-22.546 66.345-49.437 95.3-78.87 14.327 28.052 26.789 57.528 45.609 83.174 12.453 19.68 34.16 37 51.616 48.67 15.317 9.554 36.259 16.78 52.92 17.122 14.1.133 27.53-5.65 38.428-14.286 8.699-5.77 13.488-15.931 12.922-26.241.695-16.376-3.395-32.326-8.28-47.805-2.367-7.045-4.895-14.058-7.641-20.952-2.22-6.474-7.076-15.043-6.245-20.816 5.71-52.327 12.222-104.568 18.171-156.866-3.334-.383-6.644-.91-10-1-13.825 40.533-30.752 80.157-50.726 118.016-1.8 2.792-4.847 6.56-8.342 4.988-6.311-2.908-9.705-11.912-13.844-16.964-7.218-12.266-13.98-24.84-19.566-37.933-2.886-5.932-5.101-13.386-7.461-18.94-2.048-5.58-4.306-11.675-5.413-17.384 44.885-77.831 76.962-162.533 98.352-249.783 12.433-.16 32.138.437 37-18-47.042-12.633-93.144-29.555-140-43-5.326 45.989-12.762 92.236-24.5 137-5.063-68.041-5.462-136.712-5.5-205h130.8c9.886.208 20.557.515 29.19-5.23 2.966-2.038 5.045-5.307 5.515-8.836-1.982-6.05-8.47-8.903-12.107-14.036-13.732-12.498-27.327-25.293-41.398-37.398 14.923-8.68 26.982-23.834 28.379-41.577 2.14-17.759-6.562-35.48-19.249-47.293-13.792-13.94-31.26-23.915-49.3-31.19-9.716-3.54-19.462-7.155-29.515-9.617-9.841-2.852-20.828-7.097-28.315-.323 9.802 19.902 19.211 40.363 22.992 62.486 2.744 11.07 3.851 22.513 4.501 33.857.546 5.79.177 12.655.845 17.933.255 4.749 8.353 7.442 10.662 10.724-9.394 14.715-21.417 28.378-30 43.5h-22c-.226-58.348 2.232-116.682 3-175 7.933-.83 16.35-2.203 22.947-7.04 7.24-4.692 8.309-11.697 11.053-18.46-5.909-2.431-12.768-1.5-18.948-2.864-44.703-4.752-89.34-10.037-134.052-14.636-.151 33.231 2.07 66.878.5 100-19.692-16.143-38.477-33.998-59-49-14.94 18.159-27.698 38.143-43 56-1.417-21.488.25-43.42-.5-65 11.89-1.816 28.554-6.39 29-24-23.82-2.897-48.012-3.794-71.895-6.387-24.064-1.461-48.023-4.658-72.105-5.613v101h-61.2c-6.288 1.035-14.334-1.368-19.3 1-27.694-33.082-69.986-48.414-109.5-61.5 12.508-2.473 29.216-4.545 33-22.5-54.325-9.299-109.46-17.76-163.5-28-.45.458-.96.911-1.5 1.25-5.93 54.345-20.249 107.575-35.207 159.993-13.878 50.253-33.24 99.668-57.793 145.382m2 1188.633c13.32 26.17 27.222 52.333 40.438 78.615 13.936 26.213 26.697 53.202 41.062 79.127 15.009-8.594 17.823-22.405 22.3-36.459 22.137-38.517 43.19-77.625 62.7-117.541 1.426 107.549-.26 215.392.5 323 19.917.248 40.142 1.082 59.587-4.144 13.358-3.428 26.653-7.626 39.075-13.698 8.85-4.58 17.6-9.614 25.377-15.86 2.706-2.46 5.904-5.491 7.43-8.52 2.78-7.226.793-15.42 1.531-22.93V1679c13.678-1.62 33.018-6.93 34-27-55.762-3.687-111.192-12-167-15-.76 80.929.926 162.151-.5 243-13.596-27.758-41.457-52.816-64.674-68.11-13.12-8.802-27.275-16.014-41.61-22.595-7.407-3.265-14.797-6.531-22.384-9.359-3.832-1.46-7.567-3.254-11.566-4.185-3.975-1.05-7.142 1.557-10.266 2.249 20.165 53.813 33.108 110.45 33.848 168.123-.228 7.71-.892 15.382-.836 23.097-.585 6.251 5.676 11.069 9.742 14.974 15.588 14.07 36.723 23.093 57.974 20.067 20.606-2.206 38.785-15.106 49.772-32.261 1.426 29.079-.26 58.66.5 87.834v47.964c1.784 9.701-8.295 12.578-15.334 15.877C1148.54 2148.665 1098 2172.919 1047 2196zm76-1241.883c24.024 1.782 49.15-.324 73.411.625h37.142c5.081-.41 13.68 1.255 16.608-2.587 3.394-4.183 5.92-8.998 9.118-13.319 10.385-17.2 23.286-33.081 32.721-50.782-4.009-3.452-7.584-7.46-10.492-11.86-2.17-4.504-1.337-9.738-1.84-14.556-1.811-33.177-3.893-68.314-18.168-98.896-16.898 35.647-37.74 69.343-61.388 100.932-22.748 32.576-50.292 61.442-77.112 90.443M1269 1093h2c12.97-23.69 31.022-45.314 44-69h1.5c20.766 20.229 41.884 40.088 62 61 3.103-7.836.397-19.004 1.5-27.186V975h-1.5c-6.418 6.61-16.376 6.315-24.787 6.839-28.232.46-56.479-.084-84.713.161zm.5 242c12.123-55.225 15.585-111.878 20.5-168 20.327 3.943 39.92 11.456 60.118 16.039 20.01 6.473 41.233 10.185 60.882 17.461-4.96 14.559-17.606 20.103-31 20 42.281 1.424 84.636-.257 126.919.5h31.724c7.657-.444 16.793.6 23.761-.466 5.074-1.768 6.713-7.397 10.242-11.054 4.547-6.336 9.118-12.669 13.86-18.859a201 201 0 0 1 6.655-9.196c1.74-2.89 5.45-6.539 5.339-9.425-14.89 4.173-31.174 2.766-46.5 3v-35h-66c-.165 5.757.324 12.626-.479 17.857-4.179 7.85-15.416 10.787-21.971 14.34-26.338 12.897-55.548 17.118-84.55 15.803v-69c-8.873 1.847-18.123.487-27.116 1H1269c.76 71.627-.926 143.427.5 215m52.5-431.5c1.555 3.162 6.539 5.308 8.87 8.87 4.389 3.971 8.647 10.93 16.38 10.624 7.592.017 15.165-.003 22.752.006H1460v-84h-34.2c-10.908-.396-21.982.73-32.8-1 1.884 9.837 1.389 21.953-1.919 30.56-11.356 25.141-41.979 41.342-69.081 34.44zm36 1197c2.491 8.104 5.443 17.866 7 25.5h319v240.6c-.222 6.909.946 15.849-5.023 20.2-9.632 5.467-25.274 2.151-37.724 2.746-38.81-1.09-77.434-5.713-116.253-6.546v11c32.345 5.554 65.957 14.427 90.392 37.898 12.434 11.034 19.816 26.163 23.97 41.978 2.29 8.843 3.883 17.796 5.24 26.818.613 4.292 1.287 8.555 1.76 12.86.492 3.594.323 8.89 2.138 11.446 26.525-3.545 53.373-6.15 79.182-13.771 18.131-5.467 36.12-12.653 50.66-25.156 24.25-18.3 31.606-49.82 34.32-78.282 2.325-32.143.797-64.473 1.338-96.668V2126h77.4c13.02-.005 26.031.006 39.038-.003 10.431.132 22.574-1.533 27.562-14.497-13.636-15.699-31.727-32.328-45.475-45.482-7.727-7.715-16.017-14.78-23.627-22.618-3.968-3.7-8.334-6.974-12-11.002-3.504-3.114-7.752-8.924-11.898-9.398-7.1 13.536-17.446 25.672-25.241 38.895-8.048 12.93-16.764 25.479-25.259 38.105-1.42-21.797.252-44.11-.5-66 12.338-.158 31.37-7.197 31-24-37.812-4.41-76.364-5.437-114-10.5 34.28-23.384 67.83-48.098 99.127-75.408 15.8-14.353 31.88-28.336 46.848-43.567 3.67-3.8 7.58-7.359 11.06-11.335 4.654-8.133 14.626-5.858 22.383-7.387 8.115-1.062 14.733-6.293 18.582-13.303-24.27-12.004-48.057-25.158-72.334-37.175-24.06-12.407-48.27-24.666-72.166-37.325-20.81 49.939-44.414 99.114-72.647 145.433-26.882 45.404-56.758 89.39-91.853 128.88 1.32 4.065 5.035 7.788 7.5 10.687 18.56-10.009 37.729-19.381 56-30 1.422 23.537-.255 47.396.5 71h-326zm9-276.125c12.072 25.932 23.52 52.355 31.523 79.93 6.447 21.293 12.37 42.877 14.26 65.133.63 4.485.659 9.041 1.327 13.508.486 3.944 3.982 6.125 6.897 8.46 11.098 8.827 24.61 14.599 38.764 15.31 21.431.445 42.985-10.948 52.654-30.582 10.9-19.455 9.136-43.515.303-63.329-10.72-25.02-36.076-46.255-56.337-59.516-23.641-14.421-49.621-24.448-76.11-32.22-5.353-1.879-9.278.222-13.281 2.931zm1-874c5.777 5.801 12.377 13.727 19.582 16.46 28.119 10.924 56.354 21.594 84.514 32.405 6.861 2.448 14.805 6.608 21.634 6.743 13.156.049 26.303-.01 39.454.017 13.218 1.46 19.35-12.047 27.291-18.975 10.484-10.316 21.369-23.77 31.192-33.025 29.143 20.8 58.209 42.41 86.833 64 1.688-22.513-.195-45.428-.5-68h-310zm8 839.625c93.68.52 187.45.418 280.878-7.063 45.012-3.57 90.007-7.875 134.688-14.527 11.505-1.507 22.911-3.433 34.34-5.382 8.31-1.243 16.482-3.192 24.758-4.566 6.091-.689 11.862 2.149 17.667 3.378 18.008 5.337 37.01 4.37 53.669-3.84v-1.5c-37.768-34.37-75.504-68.854-113.182-103.323-3.649-3.277-6.848-7.049-10.706-10.089-3.646-1.907-7.195-8.762-11.219-7.123-64.375 33.105-132.383 59.099-200.618 83.104-69.343 23.091-139.522 44.685-211.275 58.931a54.8 54.8 0 0 0 1 12m51 364.457c19.813 31.828 35.864 66.291 48.771 101.473 4.716 13.54 8.133 27.455 11.21 41.429 1.471 5.696 1.198 14.538 5.178 17.87 18.34 14.86 43.733 21.881 66.592 13.667 16.285-5.254 29.594-18.266 36.541-33.71 10.525-24.895 4.657-54.342-12.236-75.091-15.265-20.097-37.13-34.21-59.416-45.272-28.084-12.907-58.845-20.588-89.255-25.24-2.062 2.054-5.727 2.192-7.385 4.874M1486 1113h66v-81h-66zm42 686.328c13.096 30.864 22.747 63.45 29.046 96.438 2.91 12.646 4.487 25.594 5.17 38.542.262 6.102.521 12.194.752 18.282-.367 5.348 4.159 9.676 8.053 12.137 14.817 11.827 33.924 19.96 53.274 16.448 28.222-4.116 51.357-30.317 51.682-58.88 1.259-29.065-15.419-55.892-36.777-74.13-28.769-26.337-65.885-40.586-102.144-52.84l-.556-.325c-2.43 1.534-5.444 2.513-8.5 4zM1575 923h103v-84h-103zm53 242.75c9.743 10.425 22.494 18.418 32.747 28.464 5.532 5.05 11.356 9.728 16.873 14.782 5.655 4.101 10.34 10.433 16.38 13.754-8.808-59.819-10.362-120.5-14-180.75-2.996.647-5.546 2.535-8.517 3.324-2.312.551-5.364 1.818-7.296 2.132-3.378 1.51-1.51 8.09-2.187 10.703v73.468c-.081 5.367.105 10.764-.07 16.118-.11 6.834-9.34 9.445-14.501 11.582-6.266 1.785-13.425 5.154-19.429 5.673z" style="fill:#000;fill-rule:evenodd;stroke:none"/></svg>