<svg xmlns="http://www.w3.org/2000/svg" width="3000" height="3000"><path d="M448 2669h2104c-108.019-653.996-218.137-1307.761-326.618-1961.691-6.813-40.83-13.621-81.671-20.41-122.502-.9-5.185-1.732-10.375-2.627-15.558-.693-5.948-7.25-6.546-11.566-8.162a2264805 2264805 0 0 1-451.953-150.644c-56.522-18.824-113.032-37.715-169.56-56.514-12.477-4.17-24.972-8.31-37.44-12.486-6.015-1.98-11.998-4.026-18-6-5.943-1.873-12.256-5.247-18.565-3.023-92.812 30.91-185.585 61.892-278.396 92.78-138.737 46.826-278.12 92.047-416.698 139.266-3.665 1.962-2.298 9.57-3.876 12.727-22.4 134.514-44.811 269.006-67.243 403.502C635.746 1543.503 540.855 2106.166 448 2669m605-579c10.536-1.804 19.908-8.21 30.17-11.064 33.83-13.93 66.471-30.41 98.95-47.126 15.306-8.527 30.908-16.58 45.887-25.708 7.79-4.556 15.501-9.267 23.07-14.166 3.666-2.354 7.587-4.276 11.185-6.742 3.56-2.106 8.206-5.846 11.738-6.194 1.718 7.458 5.514 15.902 6 23h137v135c-97.929.76-196.151-.926-294 .5 4.317 6.787 3.08 17.935 7.85 22.867 26.922 1.806 54.224-.329 81.222.633H1417v301h-341c.422 8.356 5.769 17.308 6 25h804c16.561-.468 37.203 1.466 45-13.5-41.593-39.276-89.779-70.812-133.5-107.5-13.924 17.431-27.04 35.527-40.908 53.005-10.129 13.251-20.24 26.535-30.602 39.59-4.207 5.315-13.506 2.626-19.346 3.405H1556v-301h291.6c9.054-.131 18.57.947 27.175-2.557 3.288-1.397 6.383-3.563 8.367-6.599 3.07-3.763.15-5.978-2.858-8.138-18.873-16.708-38.704-32.273-58.29-48.115-19.703-14.785-37.952-32.061-58.494-45.591-11.905 15.133-23.11 30.818-34.972 45.977-8.812 11.507-17.652 23.01-26.264 34.657-3.314 6.473-8.684 7.212-15.027 6.366H1556v-135h85.8c14.458-.1 28.902.123 43.345-.07 11.438-.974 26.618 1.07 33.855-13.43-35.996-31.217-73.758-60.461-111.5-89.5-16.696 21.749-34.155 43.115-50.946 64.827-3.321 3.624-6.39 8.722-9.898 11.592-3.854 3.156-12.11.533-16.467 1.581H1279c.195-4.046 5.171-6.177 7.93-8.295 50.26-32.944 97.076-71.175 141.44-111.585 22.371-21.236 43.87-43.208 64.28-66.358 9.488-11.678 19.33-23.12 28.126-35.329 4.396-6.245 9.252-12.143 13.333-18.607 2.053-3.144 4.225-6.208 6.234-9.367 2.104-2.94 4.276-7.192 7.657-7.459 12.49 36.38 27.467 72.276 47.763 105.117 30.436 49.688 69.244 94.372 113.628 132.008 43.026 36.555 90.49 67.473 139.109 95.875 5.897-30.026 18.269-58.963 36.505-83.665 17.91-24.897 42.704-45.733 72.995-53.335.076-4.17-.268-8.467 1-12.5-37.571-10.023-76.906-17.083-114.195-28.997-55.047-16.168-109.411-35.712-160.237-62.478-23.343-13.264-46.732-26.718-67.554-43.808-10.602-9.12-21.502-17.875-31.208-27.97-4.241-5.318-9.955-10.87-14.04-15.567-3.524-5.197-10.961-11.279-11.766-16.68 9.823-.359 19.442-2.91 28.983-5.013 8.462-2.212 17.687-6.697 21.017-15.362-65.463-20.233-133.736-34.078-199.5-53.625-13.369 47.457-35.406 91.883-61.524 133.557-38.367 62.083-85.034 118.801-134.689 172.071-49.688 53.215-104.47 101.815-164.287 143.372.335 2.633 2.35 4.523 3 7m34-664c30.392 1.27 61.547-2.935 88.025-19.147 6.156-3.592 12.39-7.64 16.606-13.554 3.344-5.503 2.141-12.312 2.369-18.396V1279h42v91c31.389 1.2 62.908-4.822 91.218-18.884 5.946-2.676 15.916-7.3 16.608-13.385.497-25.357-.09-50.722.174-76.077V881c11.55-1.242 25.09-7.863 32-16-21.633-18.148-44.738-34.837-66.755-52.575-8.317-6.75-16.903-13.137-25.319-19.742-1.905-1.442-3.763-2.935-5.782-4.188-7.995 2.562-13.667 13.846-20.014 18.875-5.735 5.694-10.784 11.998-16.604 17.605-4.972 4.896-8.74 11.133-14.687 15.028-6.358 1.95-13.718.376-20.329.997-11.558.83-21.872-4.766-32.237-9.093-29.24-11.476-57.82-25.085-87.273-35.907zm107-172h42V866h-42zm14 947.25c14.427 38.825 22.377 80.223 27.443 121.302 1.688 16.584 2.748 33.278 2.14 49.945.286 6.655-1.888 16.655 1.781 21.228 16.544 17.851 40.848 31.169 65.773 28.968 37.176-3.17 67.017-38.234 66.54-75.148-.771-18.686-5.72-37.017-15.675-52.99-9.842-14.719-23.617-30.779-35.991-41.338-15.617-13.442-33.186-24.613-51.91-33.186a272 272 0 0 0-28.674-12.862c-8.721-2.945-21.302-9.391-29.1-6.784-.725.359-1.606.515-2.327.615zm62-622c1.584 2.806 4.102 6.458 5.5 8.75 97.302-8.759 196.27-25.458 287.126-63.635 21.46-8.278 41.956-18.78 61.71-30.482 3.844-2.06 7.4-4.656 11.308-6.565 4.112-1.934 8.631-.13 12.84.356 7.633 1.021 16.414-.742 21.626-6.897 1.672-2.73-4.197-5.35-5.586-6.768-40.055-28.204-81.992-54.217-121.524-83.009v-2h362.4c13.62-.312 34.377 3.055 42.6-13.5-14.965-12.965-30.346-25.488-46.197-37.37a1226 1226 0 0 0-23.777-18.105c-4.043-2.943-7.972-6.04-12-9-3.528-3.066-9.612-5.626-10.026-10.025 7.257-1.432 16.505-6.053 24.331-9.938 4.743-2.552 5.047-6.899 4.669-11.55V1026c11.037-1.817 24.945-7.918 31-16.5-17.05-13.441-34.779-26.044-52.03-39.237-8.753-6.735-17.733-13.185-26.487-19.903-4.494-3.216-8.76-6.713-13.257-9.905-3.984-3.27-10.38-6.454-10.226-11.455 16.578.112 33.146-1.302 49.557-3.439 12.062-1.539 24.028-3.882 35.638-7.5 15.456-3.859 33.492-16.487 32.787-37.618 1.805-20.433-17.91-31.429-32.623-36.814-3.644-1.422-7.372-2.687-10.884-4.393-2.032-1.787-1.139-5.97-1.852-8.866-.69-8.821-2.029-17.551-2.623-26.37h-8c-6.206 13.136-19.38 25.416-29.457 33.782-10.66 9.304-25.193 11.577-38.822 11.27-52.068 2.339-104.268.906-156.356 1.948-26.234-.3-52.454.371-78.674-.21-11.009-.985-27.255 1.015-33.505-7.981-2.907-5.401-1.949-12.874-2.186-18.207V806c58.57-.34 117.2-2.075 175.576-6.648 28.29-1.903 56.517-4.755 84.566-8.88 7.182-1.112 14.376-1.954 21.541-3.098 10.844-2.456 21.04 3.42 31.643 4.982 10.14 1.976 20.404-1.243 28.674-6.856-23.218-20.667-47.102-40.631-70.498-61.098-4.456-3.7-8.758-7.608-13.121-11.398-3.696-2.477-9.074-9.567-13.163-7.878-79.115 31.77-161.73 55.79-245.218 72.874v-19.8c.276-4.792-.405-10.51.387-14.863-.215-3.455 5.612-3.726 7.833-4.658 9.792-1.991 17.427-8.928 20.78-18.179-44.764-5.006-90.103-7.286-135-11.5v108c.133 25.535-2.606 52.39 7.66 76.62 6.62 16.893 23.498 26.366 40.029 30.72 27.862 6.816 56.858 7.392 85.37 7.66h90.356c52.889.81 105.736-.948 158.585-2-.274 3.222-2.993 5.357-5.068 7.624-7.713 8.848-17.415 18.585-24.426 26.751-3.163 4.228-7.291 7.616-10.77 11.552-3.45 3.178-5.954 8.654-10.554 9.629-20.856 1.267-41.88-.23-62.773.444h-47.343c-10.725.12-20.299-5.882-30.19-9.233C1592.804 965.98 1564.25 953.073 1535 943v394c22.294.127 44.781-1.53 65.76-9.766 9.683-3.44 19.246-7.651 27.995-13.083 3.82-2.677 9.785-6.303 11.345-10.054 1.575-5.174.523-10.796.9-16.097h131v27c13.325-.027 26.844.545 40-2-.079 4.762-5.414 9.042-8.346 13.453-5.324 6.168-10.283 12.646-15.407 18.976-3.881 6.686-11.08 11.564-14.247 18.571h-284v-336c-1.42-9.976 7.637-10.322 13.974-12.696 5.985-2.746 11.314-8.491 12.026-15.304-44.664-3.885-89.37-7.837-134-12v451c12.07-.023 24.16.304 36.178-.844 16.414-2.235 32.605-6.503 47.925-12.826 6.986-3.286 14.677-5.794 20.332-11.325 5.553-5.408 2.765-16.731 3.565-25.005h49v1.5c-2.268 5.64-8.48 11.337-12.901 16.858-34.42 39.288-76.617 70.769-119.418 100.2-43.368 27.705-88.793 52.48-136.681 71.442zM1596 2422c2.797.821 5.787 3.35 8.5 5 37.777-26.712 74.564-55.222 108.55-86.711 17.363-16.359 34.576-32.871 51.183-50.022 4.155-4.307 8.606-8.37 12.582-12.835 5.212-9.304 17.494-7.494 24.936-9.148 8.03-2.213 18.208-8.617 19.249-16.284-57.324-18.731-113.645-41.262-171-60-15.544 77.122-34.052 153.956-54 230m45-1350h131v-61h-131zm0 94h131v-70h-131zm0 98h131v-73h-131zm55 151.328c46.326 39.607 92.823 81.502 130.542 130.038 4.62 5.987 9.094 12.073 13.289 18.361 3.917 4.845 6.979 11.767 10.875 15.925 21.627 11.465 50.148 9.14 69.26-6.46 19.003-15.33 25.782-42.072 18.796-65.043-12.805-41.878-53.378-67.307-92.395-80.521-44.326-16.026-91.979-18.096-138.56-17.627-4.972-.857-9.31 2.061-11.807 5.327" style="fill:#fda;fill-rule:evenodd;stroke:none"/><path d="M338 2761.5c387.06 1.426 774.925-.26 1162.15.5 387.224-.76 774.71.926 1161.85-.5-77.265-456.459-152.125-914.01-228.874-1370.691-28.417-170.851-56.988-341.657-85.4-512.497-12.491-74.824-24.942-149.684-37.431-224.508-5.828-35.176-11.741-70.32-17.569-105.492-3.54-17.097-4.968-34.714-9.072-51.664-1.3-3.941-8.915-3.966-11.797-5.85-133.175-44.44-266.372-88.79-399.558-133.193-116.482-38.867-233.005-77.647-349.48-116.505-6.56-1.974-12.94-4.527-19.527-6.382-6.558-1.31-12.878 2.396-19.017 4.029-100.339 33.452-200.674 66.889-301.01 100.324-87.802 29.33-175.659 58.504-263.446 87.829-38.52 12.817-77.015 25.657-115.52 38.495-18.005 5.974-35.995 12.026-54 18-8.822 2.95-17.652 5.903-26.471 8.83-4.346 1.012-8.371 2.451-8.57 8.208-90.761 544.76-181.624 1089.514-272.367 1634.27-35.423 208.458-69 418.87-104.891 626.797m111-95v1.5h2102v-1.5c-63.81-378.768-126.215-757.87-189.705-1136.696-47.349-283.998-94.654-568.016-142-852-4.398-26.67-8.911-53.338-13.325-80.003-1.118-6.656-2.232-13.342-3.35-19.985-.571-3.586-1.119-7.183-2.096-10.662-1.288-2.958-6.82-3.128-9.193-4.54-101.51-33.828-203.017-67.663-304.512-101.514a746151 746151 0 0 1-266.522-88.84c-39.072-12.89-78.06-26.135-117.144-38.98-4.713-1.335-9.273 1.032-13.839 2.453-144.507 48.104-288.95 96.378-433.449 144.467-54.18 18.08-108.385 36.116-162.566 54.195-23.808 7.923-47.625 15.882-71.434 23.805-5.676 1.96-11.407 3.738-17.06 5.726-6.564 1.113-6.72 8.744-7.34 13.268C740.08 921.349 682.77 1265.54 625.383 1609.692 566.339 1961.663 508.308 2314.864 449 2666.5" style="fill:gray;fill-rule:evenodd;stroke:none"/><path d="M1193 1254h2V867h40v-2h-21.6c-6.339.465-15.374-.799-20.4 1zm.5 138c2.385-3.239 1.05-9.016 1.5-13.495V1280h40v-2h-21.6c-6.339.465-15.374-.799-20.4 1 .76 37.582-.926 75.526.5 113" style="fill:#7f6e55;fill-rule:evenodd;stroke:none"/><path d="M1048 2083.344c1.62 2.976 3.356 5.969 5.5 8.656 38.797-14.985 77.063-31.681 113.926-50.968 35.735-19.026 71.431-38.48 105.074-61.032 2.89 7.086 5.455 16.051 6.5 23h137v133h-294c1.53 7.814 4.104 15.48 6.287 23.128 1.031 4.387 9.246 2.17 12.096 2.872H1416v299h-342c1.626 8.86 6.127 18.764 7 27h796.8c11.103.095 22.243.202 33.292-1.077 7.516-1.23 17.945-2.658 20.342-13.325-2.347-5.994-10.85-10.954-15.294-15.482-38.157-33.11-79.906-61.778-118.64-94.116-14.212 17.136-26.94 35.515-40.942 52.825-10.315 13.134-20.259 26.522-30.625 39.61-4.216 6.395-12.45 4.21-18.493 4.565H1557v-299h297.6c11.336.002 26.637.746 32.4-14.5-39.916-34.973-82.513-66.858-123.5-100.5-10.899 15.827-23.382 30.787-34.719 46.343-8.923 11.648-17.85 23.284-26.585 35.064-1.49 2.258-3.305 4.283-5.083 6.283-5.58 2.654-11.5.403-17.45 1.31H1557v-133h73.8c18.46-.106 36.9.13 55.345-.07 12.144-.634 28.659-.105 32.838-12.628 2.072-4.173-5.178-7.606-7.206-9.995-23.9-20.464-49.032-39.434-73.388-59.332-10.267-8.022-20.882-15.644-30.889-23.975-16.96 21.514-34.031 42.976-50.908 64.556-3.378 3.863-6.239 8.188-9.776 11.906-3.883 3.756-10.98 2.13-15.829 2.538-83.572-.76-167.534.926-250.987-.5 50.872-34.404 99.96-71.706 145.033-113.522 45.512-42.357 87.82-88.421 121.467-140.978 13.808 36.078 27.42 72.859 48.573 105.585 30.714 49.864 69.725 94.883 114.511 132.553 43.316 36.541 90.91 67.673 139.916 95.862 5.357-30.293 18.183-59.349 36.21-84.283 17.941-25.069 42.837-46.085 73.29-53.717-.017-3.106-.014-6.243.303-9.33-.01-1.906.472-4.755-.746-5.906-6.303-1.766-13.277-2.928-19.698-4.691-71.43-15.894-142.258-35.598-209.537-64.728-64.253-27.626-125.356-66.628-168.322-122.845 18.889-3.614 44.269-4.177 51-23-33.245-10.336-67.571-17.592-101.095-27.079-34.035-8.51-67.743-18.481-101.905-26.421-12.122 47.958-35.795 92.02-61.3 134.003-38.479 62.243-85.385 118.964-135.053 172.462-25.817 26.705-52.054 53.15-80.206 77.355-13.74 11.8-27.473 23.558-41.901 34.522-13.255 11.799-29.228 20.397-42.54 32.002M1086 1427c31.033 1.33 62.944-2.476 90.025-19.147 6.119-3.639 12.458-7.6 16.583-13.588 2.349-5.87.897-12.531 1.392-18.65v-87.764c.27-2.61-.302-6.202 1.329-7.973 10.659-2.075 22.015.022 32.82-.865 1.814.199 4.18.104 5.645.984 2.425 6.476.389 15.895 1.206 22.695V1371c16.68.462 33.511.53 49.736-3.952 11.35-2.811 22.588-6.13 33.44-10.516 7.843-3.102 15.568-6.656 22.627-11.287 5.93-4.068 3.829-13.616 4.197-19.654V882c10.61-1.47 26.128-7.35 33-17.5-16.682-13.634-34.026-26.456-50.867-39.883-8.663-6.593-16.963-13.65-25.739-20.077-8.666-5.783-17.07-14.863-25.066-18.54-12.894 13.297-25.196 27.156-38.125 40.414-4.383 4.555-9.836 12.708-15.49 13.423-13.085 1.191-26.38.943-38.221-5.104-32.953-13.205-65.379-28.024-98.492-40.733zm108-174h41V878c-.404-3.415 1.149-11.015-2.998-11.546-6.368-.992-12.895-.067-19.306-.454-5.862.338-14.083-.671-18.696 1zm13 947c9.964 32.346 19.903 65.036 24.107 98.818 3.66 25.545 6.881 51.29 5.327 77.157.063 4.864-.734 10.655-.028 15.089 3.04 8.16 12.41 12.073 17.824 17.315 11.774 8.446 28.161 15.622 41.709 15.613 22.448 1.13 44.537-9.23 58.671-26.516 15.27-17.713 20.397-41.723 16.89-64.357-5.745-35.503-30.088-65.335-57.761-86.808-27.988-21.856-61.32-35.816-94.454-47.701-4.25-1.975-8.694.41-12.285 1.39m466-721.687c-42.505-29.952-86.39-58.03-129-87.813 91.474-1.426 183.453.26 275.023-.5h68.98c16.407-.909 36.654 1.978 51.145-3.209 4.025-2.318 11.252-8.279 8.64-12.875-28.255-26.11-60.67-47.587-90.788-71.416 8.787-3.905 20.939-7.069 27.575-13.238 2.778-2.852.524-9.581 1.425-12.945V1027c11.457-1.919 25.892-8.363 32-17.5-33.524-27.005-69.31-51.21-103-78V930c16.578.112 33.146-1.302 49.557-3.439 23.019-3.083 53.483-8.527 63.972-27.76 5.523-10.398 6.134-26.31.744-35.823-6.191-10.138-17.133-15.825-27.807-19.945-3.728-1.43-7.507-2.716-11.142-4.36-2.797-.963-2.022-5.92-2.605-8.162-.677-9.195-2.083-18.322-2.719-27.511h-10c-6.16 12.91-19.043 25.179-29.007 33.416-10.427 9.167-24.62 11.953-38.098 11.612-51.66 2.246-103.452 1.014-155.14 1.972-25.799-.213-51.592.26-77.38-.143-11.39-1.054-27.038.986-34.44-6.925-3.564-4.881-2.757-12.42-2.935-17.544V807c59.136-.29 118.36-2.186 177.308-6.794a1089 1089 0 0 0 85.037-9.059c7.199-1 14.381-2.05 21.567-3.078 8.83-1.561 19.857 5.543 30.41 5.662 10.205 1.015 20.782-1.533 28.678-8.231-31.797-28.223-64.326-55.725-96.5-83.5-38.672 18.457-80.378 30.085-121.06 43.145-41.46 11.937-83.213 23.034-125.44 31.855v-20.4c.423-4.694-.75-9.898.982-14.38 5.581-2.917 13.11-3.098 18.22-7.424 5.219-3.687 9.212-9.295 9.798-15.796-45.683-3.32-91.285-8.083-137-11v108.6c.23 25.815-2.67 52.922 7.447 77.498 6.43 17.19 23.597 26.828 40.242 31.242 28.25 6.948 57.662 7.43 86.566 7.66h90.957c26.478-.043 52.979.145 79.45-.307 13.229-.209 26.448-.411 39.674-.621 12.46.379 25.315-2.102 37.664-.572-8.782 8.582-16.203 18.402-24.975 26.975-7.79 7.637-14.278 16.472-22.141 24.02-4.034 3.48-9.784 2.282-14.727 2.505h-60.456c-14.329-.692-31.342.884-44.426-.576C1607.88 970.834 1571.417 954.488 1534 941v397c22.585.227 45.45-1.058 66.74-9.415 9.91-3.41 19.644-7.637 28.579-13.153 3.916-2.81 9.344-5.887 11.578-9.859 1.892-5.268.68-11.13 1.103-16.573h129v27c12.924-.937 26.93 1.53 39.5-2 .235.488.42.967.5 1.5-6.989 7.532-12.9 16.042-19.637 23.79-5.238 8.407-13.711 15.078-18.363 23.71h-282v-288c.015-16.014-.019-32.036.01-48.043-.773-8.528 10.044-8.034 15.481-11.392 6.24-3.351 10.11-9.733 11.509-16.565-45.704-3.445-91.31-8.373-137-12v453c23.487.889 47.2.12 69.632-7.763 10.428-3.479 21.017-7.052 30.534-12.663 13.267-6.224 9.643-19.393 9.834-29.574 15.609.705 31.477-.871 47 .5-34.224 43.972-78.677 79.287-124.424 110.566-45.013 31.013-94.181 56.108-144.576 76.934.276 3.213 2.487 6.426 4.19 8.726 1.33 2.828 6.286.964 8.736 1.26 73.455-5.692 146.699-17.999 217.234-39.549 30.922-9.42 61.457-20.684 90.607-34.705 14.122-6.176 27.297-14.345 40.69-21.89 3.325-1.823 7.184-4.99 10.599-4.102 11.262 1.888 27.912 2.691 31.944-9.428m-79 943.312c3.718 2.3 8.492 6.895 12.474 5.232 4.722-2.332 8.64-6.203 13.146-8.915 35.615-25.057 68.877-53.412 100.846-82.87 16.961-14.738 31.794-31.773 48.136-47.174 4.023-3.938 8.04-7.878 11.529-12.29 4.822-6.325 16.311-3.925 24.387-6.798 7.895-2.554 15.13-8.172 18.482-15.892-56.29-23.603-116.528-40.537-173.5-62.918-17.566 77.112-32.85 156.043-55.5 231.625M1642 1071h129v-59h-129zm0 94h129v-68h-129zm0 98h129v-71h-129zm52 152.586c46.724 39.646 93.242 81.71 131.237 130.38 4.718 6.13 9.336 12.305 13.594 18.761 3.917 4.845 6.979 11.767 10.875 15.925 21.301 11.077 49.205 9.523 68.756-4.633 20.412-14.088 27.647-40.853 22.44-64.15-4.241-21.327-20.522-42.313-35.878-54.348-24.185-20.87-60.73-33.266-88.705-39.756-35.187-8.426-71.6-8.837-107.535-8.765-2.708.297-7.082-.457-8.87 1.19-1.945 1.55-4.764 3.702-5.914 5.396" style="fill:#000;fill-rule:evenodd;stroke:none"/></svg>