<svg xmlns="http://www.w3.org/2000/svg" width="3000" height="3000"><path d="M284 2851h2432c-134.149-810.763-270.401-1621.295-405-2432-135.347-44.612-270.435-90.254-405.734-135.071-101.317-33.788-202.65-67.568-303.967-101.324-19.003-6.335-37.989-12.692-57-19-9.003-3.001-17.989-6.025-27-9-7.811-3.03-16.897-7.258-26.474-2.705-133.674 44.544-267.33 89.12-400.999 133.657C956.16 329.848 822.71 374.9 689 419c-134.595 810.684-270.855 1621.274-405 2432M963 866c12.884 87.947 31.904 175.094 45 263-20.597-4.715-34.996 15.517-39.416 30.765-5.884 19.952-3.369 44.931-.9 63.446 3.717 19.095 9.548 39.034 22.293 54.264 5.557 6.376 11.984 12.319 20.043 15.312 8.878 3.976 18.615 3.317 27.98 2.213 14.774 90.226 31.775 180.15 46.966 270.32 1.966 11.33 3.836 22.64 5.896 33.942 1.138 4.707 1.726 11.433 3.26 15.152 1.683 3.532 8.591 4.037 11.518 5.956 65.463 24.199 134.516 36.898 203.36 46.63-.006 2.455-1.711 4.093-3 6 39.992 35.676 74.798 77.425 103.472 122.769 10.498 16.832 21.229 33.6 29.705 51.597 4.302 7.886 7.474 16.266 11.198 24.417 1.777 4.022 3.176 8.228 4.8 12.307 1.575 3.962 3.044 9.676 6.125 11.413 13.558 7.333 31.043 13.976 45.255 15.04 28.13 2.95 57.128-9.756 74.547-31.95 13.929-16.54 19.754-38.424 18.879-59.682-1.54-31.704-19.204-60.727-41.714-82.144-22.034-21.042-50.327-33.943-78.24-45.153-13.35-4.898-26.95-9.37-41.027-11.614v-3c134.796 4.46 271.361-4.232 402.109-39.29 15.511-4.622 31.033-9.13 46.236-14.697 3.31-1.321 6.648-2.528 9.981-3.765 2.63-1.432 7.19-1.983 8.346-4.506 11.212-53.008 18.474-107.204 28.779-160.467 8.562-53.177 19.407-106.05 27.549-159.275 8.899.97 18.076 1.793 26.646-1.563 11.854-4.319 21.54-13.25 27.399-24.39 6.947-11.07 11.275-23.546 14.22-36.198 4.474-21.064 6.743-47.033 2.864-66.606-2.692-17.728-17.589-42.356-41.129-37.243 13.109-87.892 32.141-175.073 45-263 43.874-10.914 76.75-53.768 78.911-98.218 3.412-56.532-45.26-109.77-102.11-110.746-56.657-3.817-109.687 45.277-110.755 101.833-.656 21.95 4.658 44.873 18.012 62.747 5.607 9.242 13.425 16.686 21.243 24.007 3.858 3.598-1.146 11.808-1.38 15.67-1.576 5.412-3.04 10.839-4.655 16.234-10.117 35.534-23.92 69.982-39.266 103.473-20.213-2.968-40.394-18.644-53.475-30.975-28.654-26.877-46.02-63.433-57.359-100.412-5.042-17.366-8.89-35.074-11.099-53.019-.863-8.453-1.945-16.889-2.447-25.363-.097-4.42-.69-8.85-.477-13.274-.279-4.64 4.75-5.55 7.785-6.557 27.845-11.707 50.587-37.738 54.469-68.374 3.483-27.041-4.874-55.902-25.5-74.628-16.356-17.07-40.094-25.66-63.466-24.397-41.074.014-78.515 36.096-82.947 76.25-1.816 15.51.623 31.489 7.035 45.715 5.502 11.889 14.018 22.019 23.787 30.63 4.058 3.506 8.655 6.324 12.811 9.674.844 5.386-2.035 11.43-2.792 16.4-9.457 39.734-22.923 78.928-44.379 113.887-10.652 16.169-24.093 35.063-38.128 46.266-7.218 7.003-15.16 13.193-23.378 18.956-7.372 4.167-16.178 12.163-25.44 14.221-2.417-20.71-10.935-40.758-11.527-61.719 4.836-7.093 14.12-11.261 18.875-18.74 23.289-24.818 32.328-61.206 24.42-94.159-10.874-49.901-62.3-87.03-112.934-81.862-50.754 3.66-95.495 48.687-96.954 99.923-2.702 28.664 9.013 57.292 28.291 78.121 4.67 5.433 10.451 9.685 15.78 14.393 3.642 3.506.352 10.795-.021 15.883-2.437 16.229-7.118 32.048-9.93 48.16-10.001-2.38-18.068-10.19-26.76-15.196-33.283-22.822-58.423-55.862-75.426-92.179-7.946-16.195-13.986-33.197-19.547-50.322-4.082-16.018-10.428-34.676-12.523-49.73-.63-3.592 5.558-5.448 8.052-8.137 12.085-8.867 21.994-20.789 28.57-34.218 12.229-27.316 9.93-61.438-8.43-85.64-15.008-20.122-38.232-35.734-64.252-36.532-44.843-4.566-88.419 31.422-92.418 76.398-1.94 17.369.895 34.864 9.267 50.264 6.84 12.695 16.789 23.375 28.543 31.586 5.109 3.502 10.737 6.2 16.339 8.816 2.42 1.568 6.646 1.496 7.964 3.76 1.7 11.978-1.546 26.35-1.904 37.315-4.563 39.99-16.285 79.415-35.727 114.702-9.26 16.328-22.432 34.779-35.736 45.897-7.132 6.264-15.804 13.46-23.586 17.492-8.443 4.15-18.505 10.307-27.426 10.724-9.706-21.717-19.818-43.495-27.226-66.211-3.893-11.457-7.715-22.962-11.198-34.545-2.707-11.04-7.88-23.775-8.576-34.244 22.658-16.283 38.065-44.306 40.516-72.198 6.947-55.848-38.077-111.005-93.893-116.255-28.408-3.376-57.214 5.5-79.187 23.628-20.579 17.157-36.016 42.3-38.422 69.385C877.498 800.73 913.743 853.91 963 866m-49-103.14c-2.324 41.621 36.192 79.292 77.358 77.136 40.947 1.58 78.548-36.425 75.642-77.506 2.438-41.753-36.397-77.726-77.08-76.438-20.196-.04-40 7.888-54.022 22.55-14.158 14.076-22.754 33.995-21.898 54.257M1851.5 2488c-16.126 18.97-30.63 39.291-46.483 58.483-11.647 14.665-23.122 29.457-34.74 44.145-2.027 2.901-4.43 5.453-6.948 7.88-60.676 1.402-121.606-.255-182.329.492v-332h288.6c11.671-.466 25.51.74 36.15-.822 8.615-2.177 20.844-5.786 20.7-15.176-10.846-11.433-24.134-20.725-36.13-30.956-37.29-28.642-73.374-59.84-112.32-86.046-25.375 35.632-55.789 69.234-81 105h-116v-278h347.4c12.629.023 32.749.951 38.6-15.543-49.841-41.772-102.08-80.714-153.5-120.457-18.64 23.287-36.615 47.148-55.257 70.432-7.963 10.448-16.051 20.775-24.226 31.052-2.136 2.13-3.705 5.609-6.523 6.041-222.081 1.355-444.37-.246-666.494.475 1.099 4.884 2.722 9.637 3.997 14.47 1.087 3.375 1.776 6.883 3.076 10.184.554 3.25 4.854 3.384 7.551 3.344 8.971.006 17.958-.001 26.925.002H1410v278h-301c1.409 9.514 5.755 18.448 7 28h294v332H990c1.118 8.412 4.916 16.366 6.696 24.647 1.346 5.377 7.38 4.317 11.5 4.353h925.96c17.32-.094 34.678.456 51.939-1.086 6.02-.693 12.25-2.19 16.972-6.214 3.225-2.899 7.942-7.824 2.819-11.723-26.307-22.377-53.731-43.423-80.915-64.714-24.423-18.836-49.422-36.969-73.471-56.263M1099 1413c127.539 47.274 264.565 64.751 400.036 64 136.102.964 273.852-16.557 401.964-64 30.217-181.547 65.254-362.38 95-544-3.46-.218-6.759-1.107-10.141-1.798-2.1-.424-5.204-.921-6.368.508-2.035 7.093-4.066 14.339-6.108 21.465-18.707 62.369-43.468 123.958-82.491 176.625-28.421 39.364-66.55 72.916-112.519 89.913-36.731 13.38-78.788 15.986-115.547 1.037-25.157-9.312-48.646-31.523-63.67-50.3-13.09-15.642-22.971-33.54-31.83-51.784-14.749-28.76-25.14-59.574-33.13-90.81-4.03-16.037-7.803-32.147-10.806-48.403-.531-1.824-.75-5.152-3.05-5.001-7.228.092-14.369 2.068-21.646 1.515-6.984.213-13.792-1.514-20.694-1.967-12.193 65.408-31.46 131.592-69.752 187-14.454 19.684-31.577 37.662-52.542 50.511-38.649 23.684-88.025 23.585-129.856 9.594-60.995-20.71-106.606-70.756-138.916-124.46-15.898-27.585-29.776-56.4-40.997-86.222-5.942-15.368-10.995-31.03-16.145-46.669a1076 1076 0 0 1-7.05-24.08c-1.081-3.187-1.524-8.446-6.099-8.375-4.289-.237-8.399 1.56-12.643 1.701 30.1 181.556 64.445 362.508 95 544m793 47c-31.164 8.145-61.741 19.493-93.485 25.791-114.93 26.37-233.6 35.47-351.31 31.216-58.01-1.951-115.906-7.086-173.172-16.662-28.613-5.136-57.213-10.378-85.37-17.677-13.685-3.178-27.217-6.928-40.674-10.948-13.465-3.252-26.324-9.367-39.989-11.72 2.497 22.882 8.37 45.374 11.525 68.174 2.666 17.27 6.476 34.33 9.08 51.6.378 8.72 7.23 9.114 13.62 11.139 42.654 14.13 86.789 23.258 131.068 30.464 122.352 18.368 247.176 21.284 370.416 10.455 59.926-6.038 119.853-14.734 178.11-30.299 14.35-3.464 28.326-8.306 42.374-12.735 7.015-1.35 7.053-6.642 7.693-12.266 6.44-38.875 14.436-77.548 20.114-116.532m-699.984-174.245c-.075 19.758 7.88 38.434 20.47 53.047 11.895 14.063 36.066 25.071 51.022 15.804 10.358-6.274 14.073-19.202 15.171-30.418 1.074-13.51-.21-27.103-2.796-40.356-4.248-18.276-13.236-43.581-36.93-47.575-13.298-1.913-26.42 3.873-34.75 14.157-8.316 9.565-12.384 22.43-12.187 35.341M1411 1301.85c-.425 26.529 8.72 53.267 26.897 72.543 17.999 21.003 45.907 30.533 72.971 27.225 23.1-2.49 43.79-16.43 57.546-34.626 14.262-18.546 20.84-42.235 20.585-65.413 1.91-46.015-31.855-93.69-79.31-99.014-26.77-3.464-54.222 7.415-72.05 27.471-17.24 19.496-27.633 45.334-26.639 71.814m12.004-496.416c-1.529 41.47 36.469 79.376 77.905 76.566 41.993 2.046 78.2-37.29 76.08-78.416.252-41.254-37.93-78.35-79.62-74.584-40.489-1.15-75.359 36.715-74.365 76.434M1721 1313.402c-.352 12.437 1.457 25.324 8.959 35.431 8.192 10.984 21.536 10.597 33.145 6.616 19.285-6.375 32.801-24.238 39.894-42.45 9.338-23.066 6.526-52.89-13.994-69.159-8.09-6.43-18.94-9.054-29.128-7.38-15.26 3.055-25.079 16.614-30.67 30.08-5.832 14.783-8.298 30.854-8.206 46.862m212-550.198c-2.86 41.664 36.32 78.945 76.946 76.795 40.901 1.455 78.509-36.301 76.054-77.306 2.333-41.701-35.955-77.796-76.751-76.643-40.383-.725-79.103 35.205-76.249 77.154" style="fill:#feffed;fill-rule:evenodd;stroke:none"/><path d="M962 867c12.642 87.192 31.897 173.92 44.5 261-7.876-3.525-19.818 3.42-24.942 7.58-20.246 19.704-17.931 45.6-17.009 71.21.995 21.465 8.189 46.371 18.382 63.212 4.946 8.769 13.806 17.495 21.903 21.891 9.85 5.573 21.325 5.765 32.166 4.107 14.774 90.226 31.775 180.15 46.966 270.32 1.966 11.33 3.836 22.64 5.896 33.942 1.138 4.707 1.726 11.433 3.26 15.152 1.683 3.532 8.591 4.037 11.518 5.956 65.26 24.947 134.946 36.03 203.36 47.13-1.465 1.511-3.31 3.192-4 5 43.388 37.712 79.769 83.41 110.089 132.138 11.453 18.063 22.062 36.817 30.58 56.465 4.235 8.83 7.89 17.915 11.058 27.177 2.4 8.749 13.882 11.555 21.412 14.956 16.495 7.382 34.84 9.269 52.642 6.797 28.818-5.697 55.15-25.38 65.263-53.678 8.668-21.604 7.307-50.242-.275-69.938-11.626-30.84-35.475-55.178-62.7-72.665-28.791-16.364-59.676-29.128-92.069-36.252 134.35 3.017 270.786-3.919 401.181-39.547 15.504-4.455 30.927-9.194 46.133-14.577 5.443-2.747 13.86-4.106 19.24-8.124 11.329-52.982 18.444-107.24 28.818-160.499 8.587-53.348 19.442-106.362 27.628-159.753 15.894 2.852 33.357-.549 44.547-13.142 10.573-11.819 17.577-26.364 21.874-41.53 5.83-22.33 8.59-49.926 5.667-71.046-2.428-22.073-18.862-48.168-41.588-42.282 12.596-86.997 31.92-173.855 44.5-261 43.874-10.916 76.75-53.765 78.911-98.22 1.654-28.802-8.543-58.147-28.933-78.811-18.88-19.926-45.314-33.445-73.182-33.934-57.479-4.571-112.017 44.697-112.763 102.417-.743 22.418 4.206 45.909 18.025 64.164 5.76 9.29 13.572 16.99 21.625 24.26 2.848 3.757-2.33 11.52-2.333 15.425-1.612 5.449-3.072 10.966-4.753 16.382C1924.663 913.49 1910.96 947.165 1896 980c-30.251-8.218-54.705-30.768-72.795-55.41-32.381-45.807-46.478-102.052-49.744-157.32-.105-4.666-2.12-12.06 4.22-13.697 18.59-6.456 34.197-19.599 45.07-35.78 20.607-29.45 16.195-76.417-4.461-101.076-15.661-20.675-40.788-34.23-66.952-33.829-39.35-2.486-77.943 26.455-87.689 64.67-4.868 19.788-3.284 41.273 5.109 59.89 8.097 16.644 21.649 30.325 37.242 40.052-10.25 41.699-21.692 84.329-44.167 121.563-20.567 36.354-51.173 66.614-88.333 85.937-3.584-12.923-5.84-26.329-8.825-39.417-1.26-6.033-2.47-12.151-3.103-18.287-.183-5.035 7.24-8.376 10.843-12.444 16.408-14.863 28.13-34.916 32.829-56.516 4.271-19.853 2.02-44.228-4.566-61.592-12.657-31.307-40.267-56.864-73.279-65.143-25.866-6.94-54.379-3.641-77.926 9.018-17.201 8.949-31.366 23.054-41.718 39.281-15.314 25.218-19.316 56.95-11.255 85.306 3.879 13.966 11.211 27.005 20.334 38.188 4.468 5.6 9.425 10.768 15.085 15.177 1.958 2.23 6.767 4.607 6.565 7.384.037 3.805-1.02 7.526-1.61 11.25-3.132 15.998-6.233 32.043-10.374 47.795-37.12-19.344-67.86-49.574-88.38-85.967-22.385-37.27-33.93-79.816-44.12-121.533 23.654-14.13 41.902-38.5 44.495-66.466 3.985-28.71-7.694-58.673-29.876-76.885-34.475-32.13-94.375-27.222-124.095 9.028-31.587 35.113-26.326 95.033 10.223 124.392 5.224 4.509 10.834 8.531 17.13 11.377 2.69 1.319 5.323 2.76 8.124 3.818 2.149.848 5.029 1.382 6.542 2.96.931 16.815-2.343 33.776-4.103 50.437-5.981 36.89-17.657 73.083-36.82 105.3-18.91 30.315-45.948 58.892-81.62 68.539-19.46-42.632-36.701-87.13-47-133 22.658-16.283 38.065-44.306 40.516-72.198 3.308-28.517-5.093-57.518-23.654-79.387-17-21.734-43.327-36.369-70.809-38.911-28.874-3.39-58.278 5.033-80.617 23.67-20.924 17.336-36.288 42.95-38.536 70.366-7.408 50.506 28.116 104.28 78.1 116.46m-47-104.238c-1.788 40.82 35.812 77.734 76.162 76.228 40.102 1.133 77.163-35.976 74.838-76.304 1.957-40.947-35.973-76.346-75.932-75.589-39.923-.307-76.535 34.88-75.068 75.665M988 2598.5c1.13 5.087 3.209 9.92 4.42 15 1.285 4.026 2.145 8.206 3.66 12.148.645 3.427 5.302 3.35 8.118 3.35 9.8.004 19.6 0 29.385.002h927.16c18.769.05 43.587 1.519 50.257-17.5-50.833-44.717-106.661-83.35-159.5-125.5-16.477 18.658-30.641 39.318-46.602 58.404-11.691 14.626-23.239 29.373-34.741 44.146-2.282 2.594-4.508 6.109-7.002 8.111-5.964 2.777-15.577.347-22.038 1.339H1582v-330h269.4c15.02-.005 30.031.006 45.038-.003 13.165.048 29.646-4.145 32.562-17.747-48.377-41.365-99.455-79.671-150-118.25-14.707 16.84-27.602 35.485-41.953 52.68-12.985 18.131-28.813 34.833-41.047 53.32h-114v-276h348.6c13.55-.012 30.774.78 38.4-16.5-50.082-42.962-103.794-81.588-155.5-122.5-19.051 22.887-36.479 47.105-55.261 70.212-8.118 10.34-16.056 20.82-24.263 31.089-1.907 2.312-3.632 4.827-6.054 6.629-5.861 2.103-14.322.394-20.47 1.07-216.09.76-432.442-.926-648.452.5 2.786 4.96 2.802 11.139 5.102 16.336 1.962 3.922 1.805 12.357 6.47 12.833 40.423.943 80.99-.171 121.437.331H1409v276h-302c2.481 10.01 6.194 19.831 8 30h294v330H988zM1100 1412c127.158 47.124 263.76 64.656 398.838 64 135.837.896 273.292-16.653 401.162-64 30.59-180.828 64.38-361.172 95-542-4.233-.645-10.345-1.365-13.5-3-18.278 61.67-39.227 124.3-74.928 178.672-25.944 39.86-59.31 76.343-101.349 99.5-33.503 17.923-72.4 26.126-110.225 21.192-26.796-3.027-52.04-14.801-71.948-32.89-31.219-26.424-51.638-63.117-67.16-100.28-8.782-19.264-14.846-39.57-20.548-59.9-2.49-10.313-5.337-20.535-7.554-30.902-3.523-10.083-3.05-21.637-7.288-31.392-13.59 2.871-27.91 2.41-41.5 0-12.169 65.229-31.336 131.185-69.398 186.519-14.408 19.774-31.521 37.822-52.497 50.722-38.525 23.797-87.841 23.768-129.837 10.688-61.302-19.817-107.332-69.558-139.994-122.992-16.107-27.366-29.771-56.092-41.325-85.675-5.828-15.308-11.154-30.793-16.155-46.393-2.642-8.149-4.944-16.409-7.294-24.638-1.423-3.382-1.631-8.096-3.868-10.407-4.57-1.4-8.956 1.264-13.632 1.176 30.972 180.761 64.069 361.238 95 542m791 49c-125.839 41.846-258.945 58.283-391.172 58-132.122.236-265.119-16.221-390.828-58 3.555 23.752 8.508 47.348 12.328 71.06 1.613 9.072 3.253 18.131 4.893 27.193 1.732 7.159 2.46 16.72 4.539 24.444 1.119 3.155 5.391 3.743 8.156 4.769 48.95 16.324 99.876 26.543 150.828 34.161 119.184 17.066 240.544 18.274 360.352 7.465 58.534-6.329 117.104-14.806 173.986-30.36 13.907-3.427 27.417-8.177 41.027-12.57 5.785-1.468 4.917-8.774 6.04-13.242 6.678-37.635 13.494-75.245 19.851-112.92m-699.994-175.154c-.293 19.67 7.35 38.441 19.788 53.15 10.788 12.231 31.835 26.17 52.247 17.4 11.028-5.863 15.429-19.074 16.584-30.657 1.204-13.692.093-27.526-2.371-40.99-4.143-18.757-12.915-45.263-37.303-49.492-13.705-2.073-27.633 2.896-36.375 13.748-8.892 9.863-12.905 23.448-12.57 36.841M1410 1301.933c-.621 26.946 8.59 54.278 27.236 73.8 18.193 20.929 46.374 30.402 73.496 26.999 23.378-2.091 44.42-16.06 58.372-34.356 14.633-18.742 21.24-42.882 20.896-66.413.298-23.346-6.479-47.303-20.947-65.87-13.755-18.885-35.604-32.128-58.95-34.582-27.233-3.467-55.29 6.87-73.465 27.525-17.577 19.763-27.838 46.094-26.638 72.897m14.01-496.597c-1.033 41.211 36.878 78.422 77.905 75.661 41.196.937 76.131-38.088 74.037-78.372-.922-40.529-38.523-76.308-79.551-72.624-39.278.122-72.739 36.59-72.39 75.335M1720 1313.205c-.402 12.87 1.174 26.22 8.959 36.628 8.596 11.169 22.567 10.555 34.63 6.79 20.078-6.389 33.848-25.125 40.959-44.007 8.856-23.72 5.893-54.16-15.37-70.411-8.298-6.374-19.174-8.138-29.36-6.93-15.847 2.758-26.221 16.77-31.82 30.76-5.775 14.887-8.085 31.016-7.998 47.17m214-549.804c-2.226 40.616 36.003 77.148 75.749 75.592 40.086.97 77.082-35.834 75.251-76.101 1.868-40.912-35.523-76.373-75.572-75.803-39.83-.331-77.847 35.063-75.428 76.312" style="fill:#676767;fill-rule:evenodd;stroke:none"/></svg>