<svg xmlns="http://www.w3.org/2000/svg" width="3000" height="3000"><path d="M328 2803h2344c-118.785-721.214-240.618-1442.068-360.03-2163.199-7.528-45.17-15.046-90.339-22.588-135.492-1.756-10.718-3.574-21.44-5.367-32.15-1.463-5.102-.632-13.609-5.65-15.42-82.419-27.818-165.08-54.96-247.546-82.639-144.35-48.044-288.615-96.253-432.954-144.3-27.19-9.095-54.376-18.14-81.566-27.195-6.024-1.707-14.13-5.746-19.294-4.368-99.967 33.09-199.81 66.647-299.74 99.834a5130220 5130220 0 0 1-448.968 149.67c-9.274 3.513-19.03 5.778-28.13 9.725-3.665 1.962-2.298 9.57-3.876 12.727-22.54 135.51-45.194 271.003-67.739 406.508C542.266 1518.848 433.622 2160.802 328 2803m682-1614c-3.239 47.077-23.969 91.136-28.64 137.983-4.22 35.554.116 72.807 17.525 104.578 11.69 21.839 28.293 41.307 49.342 54.601 32.148 21.04 74.54 26.27 110.905 13.632 35.98-11.734 63.563-43.611 72.441-79.944 6.444-27.08 4.788-57.093-7.34-82.357-8.055-17.238-22.63-33.932-42.385-36.982-7.757-1.58-15.284.786-22.312 3.791-5.7 1.862-14.946 5.156-18.082-.519-.17-11.227 7.175-23.006 12.255-31.394 17.745-27.728 41.704-51.28 59-79.284q.084-.58.291-1.105c4.774.26 9.445 5.406 14.6 7.46 7.852 3.82 16.256 6.797 25.038 7.399 9.27 1.389 18.264-.946 27.362-1.859-1.657 18.27-7.264 36.086-8.211 54.493-1.602 16.305-3.24 36.035.059 50.821 3.85 14.822 11.74 28.217 20.545 40.547 4.314 5.7 8.659 11.424 13.565 16.631 3.993 4.606 10.761 9.974 8.188 17.387-8.498 26.01-15.81 52.393-24.358 78.384-13.378 46.01-32.09 93.716-25.277 142.713 2.776 17.652 10.834 34.453 24.379 46.347 24.88 21.437 61.22 22.395 91.854 17.204 10.983-1.93 21.95-4.706 31.903-9.906 17.47-9.167 29.76-25.312 37.54-43.04 12.564-27.939 17.532-58.428 25.853-87.707 8-29.565 16.677-58.91 27.933-87.407 7.033-21.484 18.558-41.159 28.027-61.467 13.989 1.084 27.924 3.008 42 3-.15 36.774.184 73.521-.1 110.284-.87 26.032-7.285 51.672-6.9 77.759-.414 9.051 1.596 19.138 9.095 25.201 13.715 10.264 32.024 8.52 47.96 8.755 12.078.07 26.419-3.207 35.845-9.09 16.928-12.358 15.848-31.814 16.167-50.248.477-19.044 1.073-38.13 3.74-57.024 1.574-17.069 5.568-33.742 9.444-50.374 1.762-8.144 4.356-16.032 6.682-24.009 1.147-4.01 2.26-8.022 3.483-12.003 1.423-3.805 2.42-9.9 6.584-10.251 14.322 31.17 29.83 62.273 38.758 95.662 6.914 25.152 11.5 51.085 21.426 75.343 6.87 17.26 14.9 35.536 30.259 47.046 11.914 9.282 27.47 11.744 41.994 8.888 21.232-3.51 40.9-14.114 57.428-27.63 15.846-12.708 31.485-31.728 38.133-49.31 6.478-15.615 5.462-32.982 1.682-49.081-4.903-23.963-14.885-46.273-24.93-68.38-9.682-22.717-18.233-46.15-22.563-70.549-6.91-48.688 7.063-97.342 21.813-142.989 5.293.156 8.042 7.119 11.562 10.135 6.427 7.558 13.35 14.697 21.023 21 3.408 3.174 7.404 5.667 10.702 8.953 3.394 3.788 2.417 9.357 3.724 13.916 3.434 17.797 16.117 31.343 28.722 43.228 22.132 20.713 50.856 34.082 80.71 38.616 11.705.71 27.248 2.791 35.689-4.09 4.378-3.376-.658-10.58-3.06-13.104-5.59-7.348-13.908-14.387-19.1-21.05-9.957-12.176-16.3-26.662-24.743-39.795-6.577-10.218-14.12-20.352-24.88-26.521-8.241-4.805-17.408-8.019-26.976-8.75-6.571-1.352-16.566-.19-21.52-3.109-15.514-12.256-28.275-32.285-39.92-45.886-4.16-5.542-8.064-11.254-11.914-16.997-6.338-9.18-3.254-21.407-5.431-31.812-1.193-10.874-2.672-21.737-4.543-32.513-9.27-55.182-32.494-107.918-66.895-151.991-34.44-43.564-80.618-77.752-131.15-100.23 1.112-32.142-10.1-63.026-22.673-92.107-18.022-41.414-42.636-80.644-75.772-111.616-16.974-15.266-37.228-27.626-60.227-30.835-25.18-1.125-50.448-.148-75.676.28-42.25 1.83-87.228 6.067-123.127 30.974a175.5 175.5 0 0 0-24.258 20.537c-2.963 2.722-5.522 5.905-8.745 8.318-2.53 2.132-7.32 1.335-10.977 1.736-27.186.617-54.375.762-81.545 1.713-7.027-35.434-41.234-62.226-77.074-61.954-18.917-.855-37.789.158-56.683 2.685-14.322 2.196-28.776 4.183-42.84 7.71-18.139 5.73-35.597 21.049-48.005 32.661-13.797 13.566-27.196 28.539-33.929 47.038-5.024 12.77-2.959 26.535-2.398 39.769 1.423 23.26 3.706 46.456 5.386 69.687a433 433 0 0 1 2.54 54.41c-2.348 51.66-26.392 100.83-23.997 153.121V1028c-10.05-.001-20.01-4.038-30.124-2.22-14.152.865-26.532 9.878-32.122 22.81-5.824 12.274-4.646 28.974-.126 40.478 11.267 29.656 36.722 50.653 61.354 68.865 16.03 10.63 31.613 22.77 49.018 31.067m1-39c-.504-13.87-1.28-27.743-1.434-41.624-1.328-10.018 1.201-23.337-3.31-30.913-12.893-6.333-27.198-9.368-40.834-13.601-7.079-1.65-14.04-3.907-21.286-4.657-6.785-1.106-14.845-.113-16.715 9.21-3.47 20.635 17.822 38.76 31.587 49.996 8.114 6.392 16.587 12.291 25.351 17.735 9.048 4.203 18.076 12.68 26.641 13.854m0 1308.5c.646 3.215 2.656 6.546 3.927 9.221 2.154 2.398 7.721-.763 10.23-.236 102.416-13.433 202.505-41.448 298.565-78.96 26.904-10.903 53.633-22.26 79.632-35.163 13.543-5.477 26.057-13.091 39.081-19.57 6.506-3.238 12.96-6.573 19.108-10.456 5.818-2.682 13.04-8.651 18.457-9.336.18 30.165-.246 60.493-5.23 90.329-3.123 20.806-7.767 41.711-16.322 61.008-5.867 15.462-27.628 16.177-41 16.61-49.534-1.87-99.796-3.576-148.948-8.947-.728 2.58-.365 5.353-.5 8 35.262 9.202 72.434 21.274 99.017 47.649 25.12 30.147 30.893 70.675 32.983 108.351 32.935.005 66.084-2.838 98.23-10.137 21.953-4.813 43.475-12.762 61.678-26.166 27.738-20.85 43.824-53.686 53.995-85.886 11.145-34.801 15.475-71.653 16.097-108.044 1.779-91.96-19.481-184.671-61.25-266.657-20.165-38.308-43.867-75.08-72.134-107.978-14.198-17.169-30.514-32.395-46.235-48.128-8.432-6.984-16.547-14.355-25.287-20.949-4.33-3.389-8.627-6.799-13.059-10.047-3.75-3.258-9.967-6.29-10.035-11.008 34.973-17.274 68.567-37.818 100.673-59.991 14.388-9.525 27.79-20.296 41.014-31.345 6.27-5.46 12.622-10.844 18.686-16.531 6.024-4.607 12.325-11.89 17.97-15.636 3.941.699 2.05 8.512 3.118 11.072 10.91 126.697 28.247 254.012 68.605 375.131 19.75 57.61 44.134 114.05 77.253 165.346 30.932 51.848 72.053 96.357 113.181 139.954 14.234-29.668 33.338-58.137 60.108-78.085 26.977-22.316 60.868-33.907 95.392-36.915.644-3.325 1.839-7.96 3-10.5-59.098-34.592-116.607-72.902-167.754-118.694-26.653-23.23-50.026-49.913-73.33-76.414-10.919-13.383-21.48-27.063-31.397-41.195-5.044-6.816-9.65-13.924-14.389-20.951-3.291-6.807-10.95-14.97-12.13-21.246 50.784-13.65 99.43-34.449 148.785-52.313 24.117-9.5 48.324-18.819 72.107-29.14 5.986-2.558 11.953-5.162 17.95-7.674 4.31-1.781 8.462-4.502 13.283-4.66 12.524.653 28.927 6.103 38.875-9.713-25.94-19.467-52.19-38.593-78.116-58.08-12.986-9.906-26.169-19.514-39.29-29.224-6.544-4.802-12.944-9.755-19.459-14.575-6.58-4.156-13.273-11.271-20.135-13.621-21.014 34.745-46.522 67.296-70.868 99.86-12.497 16.154-25.164 32.21-38.172 47.953-6.764 7.966-13.43 15.974-20.18 23.938-3.335 3.876-6.587 7.812-9.928 11.664-3.298 3.06-6.944 9.072-10.852 9.585-31.625-60.793-56.668-125.37-72.293-192.254-6.147-26.369-11.729-52.833-15.889-79.596-1.385-5.43-1.328-13.312 7.022-13.107 98.255-.122 196.508.022 294.759-.043h37.15c9.598.176 20.22-.184 27.984-6.699 2.473-2.183 6.407-7.315 3.628-9.86-22.302-20.668-48.028-37.39-71.688-56.415-24.001-17.996-47.494-37.078-72.173-54.026-20.117 23.458-38.782 48.202-58.494 71.997-4.215 5.38-8.625 10.635-12.804 16.035-3.769 4.398-7.957 12.413-15.103 11.958-235.714.03-471.393-.006-707.099.01 1.181 9.25 5.624 17.81 7 27h347v1.5c-3.403 7.24-12.016 14.507-17.797 21.913-46.114 52.895-101.448 97.044-158.037 138.091-28.48 19.85-57.99 38.074-88.35 54.92-16.308 8.28-32.61 16.673-49.131 24.503-7.844 3.502-15.376 7.733-23.434 10.757-7.601 3.911-17.717 6.446-24.251 10.816.874 2.582 2.737 5.594 3.5 8.5 60.343-13.36 121.303-26.618 180.26-45.8 58.536-16.738 114.521-41.442 170.24-65.2 3.064 8.306 15.308 16.122 5.62 25.865-44.83 59.898-100.718 110.76-160.25 155.61-28.848 21.987-59.13 42.207-90.208 60.87-31.814 20.018-66.745 34.422-100.162 51.155.693 2.648 2.867 5.826 4.25 7.554 1.994 1.57 6.237-.298 8.387-.262 101.01-17.915 199.477-49.089 293.638-89.462 18.878-8.241 37.686-16.634 56.02-26.01 8.921-5.14 18.299-9.436 27.246-14.516 8.974-3.625 18.356-12.113 27.459-12.804 1.064 11.385 10.9 22.8.135 34.709-53.966 74.149-122.958 136.549-198.055 188.574-36.148 25.419-74.221 48.094-113.591 68.125-20.22 10.592-41.35 19.631-62.21 28.88-21.43 8.905-43.035 18.116-65.279 24.712zM1329 1146c10.377-2.406 18.19-14.89 24.167-22.513 6.072-9.476 11.319-19.505 15.178-30.096 10.931-28.253 12.39-58.686 11.655-88.565v-89.728c.23-6.943-.295-13.927.196-20.847.151-4.447 3.76-4.275 7.35-4.249 6.884-.006 13.754.002 20.636-.002 2.88.356 7.115-.546 8.999 1.446 2.16 49.81 1.557 100.682 13.314 149.685 4.163 19.306 10.73 42.079 20.354 57.622 4.713 7.973 11.627 15.52 21.366 16.687 21.122 2.852 28.966-20.965 37.536-34.571 4.705-7.354 8.815-15.438 15.427-21.34 13.321-10.713 30.953-13.86 45.141-23.097 13.043-7.946 23.719-19.645 30.246-33.543 7.782-13.07 9.824-31.053 14.911-43.744 6.499-12.526 18.567-20.847 27.894-31.015 19.04-17.675 35.033-39.955 38.818-66.282 1.638-12.02 2.166-24.16-.026-36.11-9.225-41.175-27.858-80.284-52.096-114.657-9.053-12.433-20.89-26.09-31.66-35.212-10.294-10.08-23.617-17.34-37.775-20.03-13.535-2.77-27.449-1.2-41.15-1.228-44.085 1.358-92.487-1.628-131.498 23.2-8.766 6.155-16.782 13.247-24.216 20.922-6.116 4.88-11.305 12.758-16.845 17.196-5.592 2.082-13.69.417-19.562 1.073-20.172.153-40.334.594-60.492.814-57.851-.167-119.42 14.736-161.343 57.159-19.944 20.192-33.814 46.072-38.83 74.074-1.714 7.596-2.694 15.362-2.684 23.16.82 12.181-7.224 19.162-13.255 28.705-5.552 9.194-8.475 19.77-9.378 30.39-3.174 85.162 11.874 170.276 7.483 255.429-4.153 52.544-27.636 102.11-29.861 154.96-1.203 26.63 1.14 54.046 15.147 77.518 12.294 21.648 32.904 39.652 57.538 45.47 32.724 9.301 73.485.654 92.554-29.574 16.172-24.498 15.84-63.26 3.87-86.707-6.83-13.878-25.235-12.58-32.064-.931-6.752 9.47-13.374 22.518-23.31 25.954-11.203 4.284-24.676.798-31.528-9.24-12.889-18.75-8.361-43.317-1.858-63.266 12.762-34.491 37.865-62.252 60.108-90.758 8.903-10.513 16.829-21.747 25.288-32.591 2.749-4.667 8.54-10.723 8.839-15.363-2.187-11.789-5.452-23.677-2.159-35.754 3.627-19.966 15.645-37.458 29.945-51.321 10.546-10.245 23.451-18.77 37.816-22.39 10.778-2.56 24.38-.86 33.262 4.263 14.473 7.686 22.676 22.85 28.493 37.468 6.477 16.396 8.715 34.002 8.059 51.529m-104-7.692c-1.655 19.947 16.226 37.583 35.797 35.674 18.629.31 34.651-17.865 33.203-36.13.223-9.642-.934-19.325-3.779-28.569-2.396-8.656-5.49-18.556-13.827-23.37-13.003-6.24-27.617 7.296-35.39 15.706-8.945 9.992-16.77 22.422-16.004 36.689m17.005-165.351c-.405 17.016 15.908 32.034 32.328 31.761 16.348-1.164 29.696-16.303 30.074-32.32-.917-16.155-15.17-30.768-31.644-31.07-16.127-.015-31.762 16.765-30.758 31.629M1509.5 1336c33.123 7.015 67.835 8.92 101.735 8.981 35.23-1.233 70.62-.01 105.765-2.981 23.146 30.073 39.748 65.716 53.527 101.092 11.584 27.847 16.333 57.75 24.145 86.672 2.844 10.78 5.921 21.58 10.232 31.863 3.81 8.475 11.002 18.887 19.786 19.274 16.882.838 32.248-8.83 45.166-18.567 9.408-7.561 19.858-17.586 25.402-27.28 9.063-17.528 2.132-38.183-2.676-55.771-6.585-17.175-14.807-33.72-21.56-50.833-7.173-19.328-15.075-38.552-19.111-58.867-4.765-21.29-4.764-43.48-2.7-65.117 4.468-40.924 15.455-81.139 31.02-119.15 1.957-4.623 4.118-9.141 6.005-13.783 3.049-7.414-.013-18.483.725-27.692-1.41-27.354-6.4-54.42-14.729-80.494-24.74-75.9-83.658-140.997-157.232-172.347-5.358 17.781-18.053 36.332-29.87 48.37-11.192 12.1-25.39 25.67-33.842 38.28-7.4 12.827-9.746 27.808-16.174 41.068-11.232 23.452-30.692 41.458-53.328 53.712-16.491 8.73-35.73 15.176-46.469 31.652-7.651 11.92-15.133 23.948-24.263 34.823-14.841 18.003-42.877 18.694-62.54 9.299-19.009-10.113-33.15-28.668-39.514-49.204h-3c-12.107 36.465-37.08 72.888-75 86 .072 4.904 3.334 8.884 5.46 13.028 7.633 15.517 16.457 30.36 24.41 45.695 6.698 14.024 16.876 29.362 22.411 42.509 1.275 6.376-3.394 14.676-4.844 21.96-18.107 58.062-36.063 116.168-54.27 174.191-6.665 21.832-14.046 43.503-18.527 65.913-3.568 19.036-6.028 43.132-.333 60.428 6.134 18.734 24.472 24.394 42.214 24.275 15.173-.029 33.761.175 46.828-5.589 12.035-4.946 19.306-16.603 23.18-28.516 7.77-22.372 12.177-45.672 18.149-68.537 16.986-66.107 42.902-129.634 72.218-191.138a62 62 0 0 1 1.604-3.219" style="fill:#feffed;fill-rule:evenodd;stroke:none"/><path d="M1009 1190c-4.103 45.751-23.273 88.729-28.42 134.3-4.42 34.886-1.038 71.416 14.707 103.27 21 45.048 66.305 79.033 116.946 79.952 25.544 1.45 51.55-4.947 73.048-18.823 19.997-13.68 35.982-33.472 43.812-56.472 9.978-26.566 8.28-61.425.482-85.783-6.92-17.739-18.088-36.487-36.566-44.21-7.32-2.763-15.416-4.038-23.194-2.63-6.711 1.293-12.735 5.1-19.543 6.07-3.085.67-5.764-.146-7.81-2.208.545-10.256 6.656-21.208 11.514-28.966 17.099-26.19 38.921-49.012 56.337-74.991 1.34-2.068 3.074-4.364 3.687-6.509h1.5c17.276 15.583 42.006 17.615 63.5 13-2.396 17.51-6.91 34.75-8.204 52.443-1.26 8.732-1.936 17.5-1.831 26.308-3.17 31.677 15.112 60.534 35.306 83.007 4.413 5.192 11.098 10.427 8.656 16.84-8.372 25.397-15.403 51.197-23.81 76.575-13.806 45.346-30.873 91.904-26.39 140.247 1.993 17.083 8.105 34.448 20.25 47.051 22.01 24.254 57.39 26.312 87.578 23.652 21.683-2.387 45.04-8.149 60.547-24.725 24.105-23.907 30.453-59.197 38.907-90.422 8.44-33.427 17.613-66.74 29.241-99.206 8.817-26.584 21.07-51.968 33.75-76.77 13.3 1.48 26.603 2.723 40 3-.3 36.745.367 73.527-.198 110.257-1.2 26.149-7.41 51.914-6.802 78.16-.372 9.088 1.874 19.301 9.555 25.194 13.94 9.975 32.143 8.166 48.134 8.389 12.032.103 26.472-2.737 36.05-8.381 17.586-10.766 17.253-32.975 17.292-49.147.316-19.06 1.126-38.104 3.542-57.025 1.65-17.111 5.26-33.871 9.343-50.515 1.634-8.189 4.193-16.14 6.572-24.123 2.725-7.091 3.474-16.02 8.012-23.809 20.702 39.53 37.146 81.506 46.559 125.22 4.264 16.162 8.81 32.322 14.978 47.87 8.691 24.08 26.071 55.72 59.12 54.887 22.883.885 43.892-9.244 62.313-21.623 25.574-18.073 49.486-44.828 52.153-77.558.239-33.696-13.082-65.459-26.713-95.53-11.298-27.121-22.49-55.167-25-84.756-3.171-29.268 5.008-63.352 10.561-89.236 3.224-13.69 8.642-26.85 12.529-40.274 4.008 1.457 6.249 7.8 10.14 10.79 6.23 7.58 13.38 14.348 20.837 20.683 3.297 3.087 7.859 5.957 10.662 9.022 2.962 3.212 2.056 9.512 3.506 14.089 3.52 17.139 15.618 30.365 27.83 41.891 21.569 20.151 49.43 34.212 78.632 38.922 11.794 1.875 26.535 2.521 37.004-1.368 12.9-5.262.182-18.255-4.564-23.354-12.342-11.558-22.412-25.017-30.15-40.054-5.688-10.575-13.276-22.635-20.673-30.837-13.412-15.86-34.517-20.114-54.108-20.42-9.497-.07-16.098-10.654-21.891-16.584-6.468-6.947-12.47-14.305-18.072-21.95-7.521-10.284-15.837-20.154-22.138-31.268-3.625-32.831-5.328-66.547-16.05-98.248-13.101-45.386-35.778-88.167-66.786-123.874-31.157-35.083-68.987-64.538-111.545-84.617-3.437-1.48-7.251-4.065-10.634-4.823 1.078-32.312-10.19-63.374-22.886-92.59-18.088-41.368-42.65-80.596-75.924-111.446-17.009-15.202-37.39-27.553-60.409-30.59-25.19-.946-50.488-.148-75.727.29-42.39 1.66-87.4 5.934-123.657 30.406-8.707 6.064-16.914 12.872-24.372 20.405-2.927 2.774-5.61 5.83-8.66 8.46-5.279 3.983-15.185 1.302-22.476 2.653-22.965.394-45.942.384-68.889 1.412-7.034-35.437-41.22-62.213-77.065-61.956-19.406-1.158-38.87.359-58.142 2.613-14.156 2.092-28.353 4.253-42.292 7.481-18.411 5.493-36.198 20.857-48.734 32.595-14.006 13.818-27.815 29.007-34.479 47.934-4.802 12.772-2.854 26.443-2.276 39.645 1.167 23.445 3.803 46.79 5.33 70.202 2.049 18.004 2.896 36.099 2.652 54.209C982.191 924.04 958.14 973.962 961 1027c-16.08-2.09-38.034-7.588-53.701 8.27-13.132 13.39-15.767 33.965-9.925 51.27 9.986 30.078 34.93 51.73 59.4 70.004 16.978 11.617 33.757 24.334 52.226 33.456m1-41c-.708-13.817-1.318-27.614-1.485-41.441-.161-5.306-.262-10.58-.446-15.884-.655-4.21-.126-9.925-2.505-12.904-12.738-6.775-27.505-9.462-41.142-13.91-9.538-1.582-32.878-12.632-36.18 6.034-.809 10.13 4.636 19.691 11.19 26.953 19.634 21.548 44.76 38.09 70.568 51.152m468.5 1166c1.591 29.406-.599 59.284-4.748 88.432-3.148 20.946-7.845 42.016-16.534 61.41-6.163 15.143-27.99 15.647-41.267 16.097-49.684-1.966-99.475-3.934-148.951-8.939v10c35.262 9.202 72.434 21.274 99.017 47.649 25.12 30.147 30.893 70.675 32.983 108.351 33.249.006 66.731-2.508 99.196-9.937 22.127-4.726 43.894-12.637 62.28-26.057 28.103-20.93 44.406-54.143 54.58-86.689 11.144-35.251 15.52-72.513 15.944-109.346 1.89-91.894-19.464-184.4-60.968-266.399-20.064-38.182-43.649-74.785-71.725-107.631-14.024-17.097-30.246-32.186-45.773-47.87-8.288-7.149-16.621-14.279-25.2-21.072-4.2-3.327-8.433-6.627-12.74-9.803-3.319-3.822-9.959-6.14-11.594-10.196 64.616-32.502 125.847-73.039 177.5-124 .478.482.96.927 1.5 1.333 9.41 128.634 27.984 257.713 67.558 380.839 20.109 58.603 44.248 116.34 77.92 168.605 31.345 52.76 73.171 97.946 115.022 142.223 15.436-29.072 32.876-58.733 60.327-78.446 27.104-22.694 61.331-34.51 96.173-37.554.546-4.412 2.701-8.519 3-13-59.258-33.195-115.775-72.691-166.983-117.46-51.47-45.887-95.829-99.297-132.017-158.04 50.456-14.968 99.585-34.226 148.785-52.813 24.117-9.5 48.324-18.819 72.107-29.14 5.986-2.558 11.953-5.162 17.95-7.674 4.476-1.86 8.871-4.78 13.93-4.561 13.047 1.833 29.216 4.662 39.228-10.812-52.561-39.216-105.15-78.703-158-117.5-45.94 67.352-95.349 132.868-149.5 194-25.373-46.433-45.11-96.087-60.538-146.697-11.362-39.289-20.751-79.164-27.182-119.574-.669-3.77-1.446-7.57-1.297-11.411 2.093-7.538 14.867-4.858 20.49-5.318h319.892c11.987.09 27.732-.466 33.135-16.531-23.366-20.936-49.3-38.723-73.895-58.11-12.48-9.53-24.78-19.297-37.432-28.599a523 523 0 0 0-18.572-14.043c-6.493-3.514-12.683-10.421-19.101-12.717-8.118 12.816-19.861 23.958-28.625 36.516-8.996 11.479-18.34 22.72-27.46 34.094-4.317 5.342-8.5 10.782-12.869 16.07-2.155 2.659-4.234 5.354-6.382 8.007-4.387 7.34-11.073 6.99-18.363 6.313H1029c2.292 9.717 6.05 19.197 8 29 115.607.76 231.478-.926 347 .5-47.35 57.69-104.44 107.301-164.773 151.043-29.918 22.151-61.782 41.443-94.092 59.835-33.236 18.426-67.916 34.538-103.135 48.622.65 3.872 3.866 6.966 4 11 60.424-12.265 120.615-26.32 179.454-44.849 58.413-17.986 116.041-39.586 171.046-66.151 2.419 4.286 5.499 8.14 8.059 12.34 3.772 4.532.83 8.935-2.363 12.067-44.901 60.012-101.092 110.645-160.598 155.69-28.852 21.989-59.174 42.118-90.283 60.734-32.05 19.577-66.368 34.84-100.315 50.669 1.692 3.504 3.967 8.465 5 11.5 73.075-12.913 144.889-32.065 214.981-56.395 34.547-12.441 68.837-25.632 102.181-41.036 16.144-7.768 32.75-14.756 48.496-23.289 7.942-4.036 15.899-8.013 23.645-12.407 7.875-3.192 15.958-10.345 23.697-11.873.469 6.328 3.4 12.186 4.833 18.297 2.131 6.382-2.19 10.662-5.585 15.702-54.199 73.695-122.943 136.019-197.975 187.832-36.028 25.383-74.038 47.855-113.276 67.876-20.123 10.371-41.007 19.463-61.717 28.581-21.433 8.905-43.035 18.116-65.28 24.712.14 3.601 1.675 7.68 3.292 10.521 1.279 3.783 7.764 1.425 10.405 1.39 38.291-5.528 76.444-12.028 114.112-20.876 60.933-14.08 120.55-33.125 178.963-55.346 55.523-22.263 110.225-47.206 161.728-77.689m-148-1170c22.302-16.135 34.688-42.135 41.75-68.027 7.654-27.155 7.4-55.404 6.75-83.316v-82.55c.223-6.286-.364-13.765.425-19.477.405-2.957 5.696-2.304 7.685-2.628 6.307-.005 12.62 0 18.913-.002 5.226.027 13.358-1.67 12.946 6.335-.293 45.84 2.479 91.829 10.795 136.973 3.86 18.36 8.009 36.86 15.92 53.993 6.74 13.487 17.452 34.61 38.366 26.34 7.555-3.615 12.085-10.969 15.875-18.004 8.237-12.533 15.757-29.828 27.123-38.29 12.37-8.647 27.618-11.9 40.45-19.742 12.31-6.717 22.231-16.685 29.018-28.937 6.533-11.687 10.9-24.431 14.172-37.365 2.21-12.115 9.064-22.956 18.874-30.476 16.517-15.612 33.781-31.452 43.433-52.533 9.626-18.48 10.836-43.802 7.897-62.223-7.433-34.46-22.88-66.477-40.68-96.596-13.865-21.782-30.09-42.579-50.784-58.263-17.276-13.975-39.79-16.388-61.074-14.761-32.159 1.098-64.732-.03-96.484 6.124-14.489 2.893-28.573 7.978-41.019 16.035-12.442 7.825-22.691 18.383-32.819 28.867-4.811 4.842-8.088 12.45-17.343 11.523-57.413.165-117.008-3.163-171.826 17.66-49.325 17.78-90.57 59.763-100.728 112.123-1.286 5.97-2.536 11.975-2.778 18.091-.584 5.706.063 11.605-1.419 17.195-3.525 8.717-11.677 14.975-14.88 23.96-8.115 16.814-7.686 35.76-6.865 53.91 1.335 55.75 5.989 111.333 7.675 167.072.818 24.81 2.442 49.79-1.59 74.447-5.037 34.94-17.282 68.406-23.48 103.115-7.366 33.558-7.587 76.165 6.542 105.108 7.805 16.864 19.876 31.957 35.684 41.985 29.821 18.647 72.626 19.934 101.305-1.917 11.69-9.61 20.323-22.793 24.266-37.436 3.686-14.438 4.015-29.508 1.322-44.127-2.78-12.52-7.65-29.237-21.321-29.677-14.12.475-19.126 15.999-26.083 24.3-7.302 11.712-19.88 13.956-31.665 11.51-25.146-7.978-24.762-40.087-21.068-58.642 7.97-38.116 33.516-68.876 57.305-98.284 8.925-11.084 17.887-22.157 26.332-33.6 3.852-5.147 8.004-10.1 11.437-15.54 1.054-2.27 3.877-4.994 3.594-7.141-2.473-11.71-5.012-23.616-2.205-35.61 3.361-20.171 15.408-37.95 29.732-51.977 10.022-10.311 24.84-19.514 37.686-22.66 11.548-2.685 24.148-1.69 34.879 3.612 14.79 7.558 23.365 22.59 29.215 37.468 3.225 8.122 5.364 16.587 6.764 25.19 2.167 8.775.578 18.118 1.981 26.865m-104.5-6.79c-1.159 19.262 16.202 36.414 35.113 34.731 17.804-.438 33.023-17.954 31.887-35.485a90.3 90.3 0 0 0-3.92-27.648c-2.364-8.502-5.498-18.199-13.695-22.887-12.035-6.425-27.196 9.405-34.108 16.524-8.268 9.578-15.727 21.241-15.277 34.765m14.49-165.803c.45 12.49 7 24.281 18.339 29.925 11.128 6.08 25.744 4.134 34.881-4.633 13.378-10.742 15.978-33.012 3.765-45.651-10.656-13.85-33.586-16.372-45.954-3.063-7.91 6.466-10.17 14.328-11.032 23.422M1508 1335c69.239 12.389 140.099 9.5 210 6 23.146 30.073 39.748 65.716 53.527 101.092 11.584 27.847 16.333 57.75 24.145 86.672 2.803 10.597 5.838 21.223 10.012 31.371 3.807 8.414 10.7 18.937 19.386 19.7 16.62 1.121 33.62-10.923 45.004-19.484 9.461-7.405 19.445-17.765 24.81-27.419 4.767-8.684 4.693-18.738 2.728-28.166-4.333-28.06-19.02-52.854-28.928-79.026-7.672-18.808-14.106-38.118-18.438-57.966-4.015-20.305-3.939-44.79-2.108-63.635 4.281-40.704 15.296-80.614 30.518-118.476 4.153-9.05 9.3-18.158 7.659-28.404-.569-31.09-5.263-62.15-14.747-91.803-11.596-38.433-33.135-73.275-59.739-103.024-27.202-29.043-59.765-52.706-95.329-70.432-7.201 18.034-16.928 35.512-31.102 49.102-11.276 12.202-25.774 25.835-33.839 38.877-7.28 13.09-9.417 28.386-16.386 41.611-11.644 23.376-31.639 41.027-54.492 53.018-8.034 4.802-18.108 9.167-25.696 13.112-15.024 8.378-23.008 23.836-31.961 37.725-7.023 10.263-14.64 21.285-26.62 26.18-18.262 6.906-40.243 4.222-56.306-6.863-16.117-9.394-26.277-29.832-32.598-44.762-13.359 36.049-36.858 73.117-75.5 86 15.37 31.242 32.946 61.716 49.202 92.558 1.437 3.23 4.607 7.682 3.957 10.677-16.978 60.354-37.849 119.67-55.45 179.853-6.907 22.14-13.89 44.253-20.1 66.585-4.65 20.212-8.83 41.055-5.883 61.877 1.334 8.923 4.838 18.101 11.746 24.198 13.707 11.907 33.212 10.779 49.956 10.027 14.327-.654 30.245-2.86 40.426-14.236 15.32-20.7 17.964-47.408 24.622-71.43 16.6-73.44 46.088-143.075 77.524-211.109" style="fill:#676767;fill-rule:evenodd;stroke:none"/></svg>