<svg xmlns="http://www.w3.org/2000/svg" width="3000" height="3000"><path d="M449 2666.5v1.5h2102v-1.5c-63.81-378.768-126.215-757.87-189.705-1136.696-47.349-283.998-94.654-568.016-142-852-4.398-26.67-8.911-53.338-13.325-80.003-1.118-6.656-2.232-13.342-3.35-19.985-.571-3.586-1.119-7.183-2.096-10.662-1.288-2.958-6.82-3.128-9.193-4.54-101.51-33.828-203.017-67.663-304.512-101.514a746151 746151 0 0 1-266.522-88.84c-39.072-12.89-78.06-26.135-117.144-38.98-4.713-1.335-9.273 1.032-13.839 2.453-144.507 48.104-288.95 96.378-433.449 144.467-54.18 18.08-108.385 36.116-162.566 54.195-23.808 7.923-47.625 15.882-71.434 23.805-5.676 1.96-11.407 3.738-17.06 5.726-6.564 1.113-6.72 8.744-7.34 13.268C740.08 921.349 682.77 1265.54 625.383 1609.692 566.339 1961.663 508.308 2314.864 449 2666.5m607-468c1.084 3.957 2.598 7.751 3.521 11.78.825 3.3 1.889 6.519 3.01 9.704.934 2.287 5.261 1.601 7.094 2.014 7.979.006 15.965-.001 23.938.002H1425v300c40.798.956 82.604-2.789 120.183-20.095 8.097-3.736 19.475-8.497 17.817-20.054V2222h329.4c10.628-.243 21.327.464 31.912-.662 4.2-.47 8.129-2.264 11.569-4.661 2.318-1.999 6.848-5.564 5.152-8.521-42.78-36.209-87.453-71.02-132.533-104.156-14.428 17.149-27.606 35.34-41.697 52.756-10.694 12.796-20.055 26.669-31.06 39.201-1.928 2.844-7.556 1.629-10.317 2.043H1563v-126c7.55-1.904 15.64-2.99 22.472-7.04 7.63-4.05 9.94-10.517 12.528-17.46-57.601-4.088-115.307-10.788-173-14.5v165h-369zm6.5-66.5c89.018-21.224 178.705-48.318 255.984-98.985 37.539-24.613 70.323-56.5 94.335-94.57 12.869-18.73 21.803-39.687 29.501-60.975 6.793-21.44 15.516-46.809 17.68-67.47h138v129.6c.531 30.963-1.737 62.765 6.74 92.97 5.475 21.888 25.204 36.42 46.763 39.773 34.432 7.025 69.941 3.841 104.796 4.657 34.455.198 69.11.03 103.126-6.173 28.618-5.362 60.89-16.697 73.93-45.386 6.351-14.247 5.826-30.913.576-45.359-5.505-13.005-20.074-23.19-31.931-27.082-2.195-28.263-2.134-56.699-4-85h-7c-9.308 25.285-21.193 50.216-35.179 73.327-12.09 22.405-40.314 18.073-59.567 18.673-17.763-.082-35.542.1-53.297-.054-5.831-.354-13.737-.553-16.924-5.033-2.671-4.715-1.74-10.9-2.033-16.112V1818c10.25-.622 23.488-5.373 29-13.5-35.522-27.123-69.604-56.925-105.5-83.5-11.573 11.5-22.012 24.043-33.496 35.619-3.877 4.863-8.242 9.264-12.653 13.62-3.525 4.24-7.112 8.417-11.224 12.11-3.821 4.369-8.837 3.715-14.151 3.651H1465c3.243-37.014 10.23-73.742 11-111 12.37-2.19 29.161-6.204 34-22.5-57.84-6.092-116.044-12.063-174-17.5.02 50.463-4.323 100.816-9 151-71.607.76-143.478-.926-215 .5 2.026 3.379 2.373 8.968 4.407 13.217 1.6 3.028 1.944 9.431 5.574 9.818 31.974 1.327 64.15-.242 96.16.465H1323c-5.133 36.87-16.371 72.774-31.387 106.772-21.837 48.651-58.875 88.615-99.042 122.348-41.22 32.935-87.957 58.708-135.571 80.88.539 4.121 3.66 9.188 5.5 12M1837 964c-28.409-15.889-56.011-34.113-84.094-50.73-49.164-30.166-98.433-60.145-147.694-90.136-18.401-11.408-37.045-22.433-55.403-33.89-16.486-9.19-31.874-20.567-48.66-29.15-1.737-1.032-4.334 1.165-5.7 1.583-55.408 33.719-110.672 67.635-166.063 101.379-27.957 16.71-55.428 34.187-83.401 50.864-27.678 16.417-55.03 34.4-82.985 50.08v370.66c.412 7.103-.544 15.536.394 22 .03 2.97 4.39 4.79 6.15 6.142 41.068 25.353 82.481 50.153 123.526 75.539 30.941 18.897 61.873 37.758 92.803 56.654 23.315 13.832 46.184 28.345 69.436 42.252 8.794 5.38 17.545 10.831 26.336 16.192 3.726 2.396 7.62 4.487 11.358 6.86 7.379 6.41 15.033-.472 21.766-4.658 49.703-30.41 99.478-60.67 149.157-91.097 38.786-23.306 77.094-47.444 115.89-70.733 14.566-8.602 28.803-17.728 43.337-26.382 6.107-4.084 15.085-6.58 13.847-16.221zm-630 369c49.184 28.178 97 59.6 146.003 88.3 36.594 22.45 73.264 44.79 110 67 7.033 4.153 13.775 8.777 20.927 12.729 6.636 3.329 13.275 10.77 20.13 7.33 47.936-29.332 96.022-58.457 144.01-87.7 48.627-28.564 96.139-59.567 144.93-87.659v-320.4c-.283-6.16.386-13.45-.309-19.072-.28-4.793-8.558-6.855-11.234-9.55-35.213-21.36-70.43-42.728-105.502-64.297-52.747-31.872-105.246-64.094-157.881-96.137-6.692-3.097-14.292-10.755-21.072-8.702-46.57 27.275-92.177 56.353-138.556 83.979-33.843 20.105-67.061 41.247-100.906 61.336-12.624 7.653-25.187 15.422-37.814 23.067-4.776 3.108-13.198 6.187-12.714 13.27-.035 112.173.007 224.34-.012 336.506" style="fill:#fff;fill-rule:evenodd;stroke:none"/><path d="M1055 2120.292c.899 3.386 3.566 7.453 5.625 11.031 2.371 3.25 8.977-.873 11.837-.685 63.609-15.48 127.362-33.703 186.372-62.566 51.286-24.116 99.475-56.535 135.002-101.264 18.013-21.302 32.323-45.728 42.84-71.482 10.402-27.229 20.935-55.149 24.324-84.326h136v129.6c.531 30.963-1.737 62.765 6.74 92.97 5.475 21.888 25.204 36.42 46.763 39.773 34.431 7.025 69.942 3.841 104.799 4.657 34.477.27 69.106.028 103.183-5.793 15.277-2.941 30.662-6.447 44.359-14.143 21.207-9.36 36.765-31.706 36.154-55.148 1.558-25.758-14.126-43.64-35.998-50.916-2.195-28.263-2.134-56.699-4-85h-9c-9.215 24.935-20.9 49.583-34.633 72.44-11.405 22.347-38.486 19.542-57.716 19.56-17.563-.043-35.13.052-52.683-.028-5.869-.405-13.605-.368-17.305-4.266-3.604-3.826-2.059-11.097-2.663-15.708V1819c11.275-.636 23.03-5.382 30-14.5-35.896-28.276-71.269-57.804-107.5-85.5-11.337 11.169-23.331 25.48-33.694 35.754-8.415 8.903-16.584 18.063-25.023 26.929-3.36 3.999-9.734 3.455-14.404 3.317H1466c3.93-36.28 9.87-72.457 11-109 12.753-3.222 31.492-5.718 34-25-58.772-4.349-117.216-12.956-176-17 .02 50.463-4.323 100.816-9 151h-215v1.5c1.696 5.23 3.028 10.577 4.925 15.73 1.092 2.69 1.8 8.34 6.15 8.526 12.71.692 25.497-.123 38.218.244H1322c-6.382 36.444-16.345 72.42-32.023 106.05-22.103 48.54-59.213 88.473-99.589 122.035-41.001 33.368-88.307 57.666-135.388 80.915zM1424 2223v300c41.29 1.02 83.652-2.391 121.735-19.894 8.18-3.785 19.89-8.522 18.265-20.255V2223h342c12.645-.257 30.578 2.655 38-14.5-45.009-35.994-89.305-74.302-137-106.5-11.751 18.495-27.883 34.725-40.442 52.825-10.63 12.857-20.229 26.574-31.014 39.298-4.174 4.848-14.052 1.865-20.695 2.877H1564v-124c7.506-1.857 16.84-3.357 22.935-7.345 6.957-4.184 11.251-11.678 12.065-19.655-58.493-2.302-116.528-11.568-175-14v165h-369c.727 6.448 3.933 14.75 5.9 22.172 1.036 4.825 6.994 3.584 10.689 3.828zm414-1260c-28.409-15.889-56.011-34.113-84.094-50.73-49.164-30.166-98.433-60.145-147.694-90.136-18.401-11.408-37.045-22.433-55.403-33.89-16.861-9.133-32.348-21.195-49.596-29.494-4.23-.978-8.61 3.618-12.063 5.168-54.611 33.24-109.06 66.722-163.704 99.903-27.254 16.498-54.356 33.234-81.6 49.75-27.281 16.25-54.232 34.01-81.846 49.429v372.436c.321 7.1-.424 15.52.309 22.007.086 2.861 3.933 4.887 5.828 6.126 41.345 25.56 83.105 50.458 124.403 76.075 31.016 18.979 62.098 37.831 93.105 56.795 23.317 14.156 46.573 28.436 69.876 42.602 8.805 5.498 17.767 10.776 26.55 16.3 7.274 3.591 16.176 12.417 22.868 7.768 53.512-32.233 106.533-65.243 159.987-97.565 38.945-23.38 77.355-47.602 116.296-70.99 14.563-8.606 28.799-17.723 43.34-26.361 6.41-4.015 14.986-6.727 13.438-16.584zm-630 369c48.998 28.125 96.728 59.4 145.557 88.024 36.428 22.387 72.951 44.564 109.518 66.702 7.004 4.314 13.919 8.78 21.065 12.845 6.326 3.007 13.39 10.574 19.414 7.501 47.913-29.347 96.04-58.415 143.986-87.716 48.457-28.469 95.848-59.352 144.46-87.356v-318.6c-.362-6.141.493-13.497-.393-19.086-.43-4.77-8.917-6.816-11.604-9.617-35.066-21.26-70.133-42.528-105.048-64.016-52.559-31.813-104.975-63.852-157.404-95.862-6.646-2.74-14.157-11.013-20.735-8.504-45.968 27.543-91.476 55.838-137.37 83.506-33.689 20.022-66.724 41.05-100.416 61.053-12.705 7.653-25.258 15.511-37.96 23.155-5.517 3.438-13.485 6.663-13.042 12.873-.08 111.7.015 223.4-.028 335.098" style="fill:#018801;fill-rule:evenodd;stroke:none"/></svg>