<svg xmlns="http://www.w3.org/2000/svg" width="3000" height="3000"><path d="M338 2761.5c387.06 1.426 774.925-.26 1162.15.5 387.224-.76 774.71.926 1161.85-.5-77.265-456.459-152.125-914.01-228.874-1370.691-28.417-170.851-56.988-341.657-85.4-512.497-12.491-74.824-24.942-149.684-37.431-224.508-5.828-35.176-11.741-70.32-17.569-105.492-3.54-17.097-4.968-34.714-9.072-51.664-1.3-3.941-8.915-3.966-11.797-5.85-133.175-44.44-266.372-88.79-399.558-133.193-116.482-38.867-233.005-77.647-349.48-116.505-6.56-1.974-12.94-4.527-19.527-6.382-6.558-1.31-12.878 2.396-19.017 4.029-100.339 33.452-200.674 66.889-301.01 100.324-87.802 29.33-175.659 58.504-263.446 87.829-38.52 12.817-77.015 25.657-115.52 38.495-18.005 5.974-35.995 12.026-54 18-8.822 2.95-17.652 5.903-26.471 8.83-4.346 1.012-8.371 2.451-8.57 8.208-90.761 544.76-181.624 1089.514-272.367 1634.27-35.423 208.458-69 418.87-104.891 626.797m112-95c349.66 1.426 700.125-.26 1049.95.5 349.946-.76 700.184.926 1050.05-.5-71.115-419.63-139.844-840.338-210.448-1260.2-26.214-157.169-52.393-314.328-78.582-471.499a856355 856355 0 0 0-34.418-206.502c-5.388-32.32-10.783-64.67-16.17-96.99-2.588-15.664-5.232-31.299-7.827-46.958-.793-4.36-1.427-8.742-2.21-13.102-.428-4.863-4.85-6.193-8.474-7.135-122.028-40.638-244.03-81.373-366.052-122.014-106.682-35.522-213.343-71.109-320.006-106.667-6.525-2.525-11.758-.06-17.468 1.947-92.703 30.905-185.37 61.816-278.08 92.691-81.01 26.99-161.996 54.033-243 81-35.467 11.86-70.965 23.65-106.438 35.486-16.678 5.533-33.31 11.15-49.99 16.655-3.243 1.458-10.117 2.375-10.586 5.954-85.805 510.194-170.013 1020.748-255.437 1531.015-32.076 188.3-62.276 378.547-94.814 566.319" style="fill:#747474;fill-rule:evenodd;stroke:none"/><path d="M1434 2405v119c37.972.873 76.819-2.085 112.136-17.422 4.163-1.706 8.33-3.571 11.865-6.404 3.975-2.914 4.259-6.872 3.999-11.189v-93.47c.759-24.08-.926-48.56.5-72.515 8.717 11.947 15.47 25.368 25.232 36.632 31.873 42.104 72.212 77.868 118.178 104.015 47.067 26.608 98.401 46.408 151.09 58.353 4.314-28.091 14.804-55.42 32.598-77.784 8.242-10.399 20.197-20.745 30.521-27.179 5.709-3.517 11.68-6.543 17.981-8.85 3.036-1.275 8.5-2.17 8.552-5.674.613-3.466.199-7.025.348-10.513-59.296-1.857-118.75-6.635-177.13-17.494-29.368-4.573-58.148-12.41-86.634-20.706-26.319-8.45-52.762-17.274-77.236-30.3 63.438-1.426 127.2.26 190.706-.5h103.189c8.581.168 18.202.47 25.354-5.277 3.039-2.437 4.764-6.196 5.098-10.005-2.618-7.367-11.044-10.61-15.824-16.686-21.69-19.014-42.909-38.607-65.286-56.847-8.214-6.36-16.741-15.337-24.773-20.504-4.344-1.034-6.908 7.054-9.464 8.985-10.522 14.36-20.883 28.843-31.401 43.204-4.026 5.233-7.672 10.698-11.69 15.934-1.79 2.42-3.437 4.914-5.237 7.315-3.263 6.426-8.93 6.495-15.039 5.881H1619.5l-1.5-.5c25.89-8.543 51.23-18.587 76.733-28.19 18.398-7.494 36.551-15.508 54.14-24.748 11.652-8.455 31.285.303 44.086-12.049 1.687-1.867 4.775-4.725 2.639-6.722-36.452-18.009-74.876-32.698-111.598-50.291 56.968-2.14 114.586 1.161 171.345-6.269 24.962-3.565 56.812-9.441 65.138-35.35 3.555-12.54 1.972-29.696-5.627-39.27-8.026-9.237-21.16-16.503-31.856-19.611-.813-14.949-3.142-29.785-3.82-44.737-.353-1.689-.505-4.328-1.51-5.386-2.717-1.15-7.344-1.016-9.479.126-5.26 6.983-8.982 15.165-14.295 22.168-7.389 10.69-15.194 21.915-26.197 29.28-14.1 7.158-30.418 5.462-45.544 5.549h-72.932c-6.085-.041-12.189.171-18.252-.41-4.092-.328-8.607-1.029-11.59-4.194-3.936-4.839-1.604-13.579-2.381-19.204V2036c23.664-2.07 47.433-3.19 71-6.39 17.234-1.784 34.247-4.947 51.308-7.835 6.765-1.223 13.138 2.214 19.638 3.433 10.965 2.675 22.866 4.472 33.856.618 12.056-3.818-.533-13.589-5.175-17.693-18.179-16.872-35.452-34.773-53.627-51.633 5.245-2.365 11.591-1.891 17.003-4.002 10-2.406 19.998-4.825 29.695-8.242 7.05-2.387 16.818-4.49 16.278-12.556.069-24.907-.013-49.805.024-74.7 8.911-1.205 17.821-4.277 24.899-9.942 2.439-2.482 8.732-6.503 7.142-9.91-2.728-3.255-6.382-5.555-9.707-8.145-9.197-6.873-18.611-13.444-27.795-20.313-16.173-11.967-32.52-23.666-48.736-35.56-7.922-5.015-16.624-13.378-24.466-16.63-4.411 2.048-7.667 6.711-10.69 9.965-3.303 3.97-7.184 7.404-10.715 11.159-5.514 6.704-12.934 13.692-18.062 19.77-4.633 4.714-9.897 10.702-14.904 14.135-22.579 1.343-45.353-.244-67.966.471v-64h208.8c15.098-.816 34.66 3.526 44.703-9.51 5.445-7.228-1.004-11.867-5.72-15.266-17.357-16.023-36.413-30.075-54.384-45.379-13.593-11.3-26.91-22.93-41.176-33.393-2.515-1.484-5.65-4.974-8.225-4.956-3.173-.493-5.322 2.973-7.021 5.19-13.836 18.441-27.923 36.697-41.814 55.096-3.514 4.696-7.061 9.369-10.543 14.083-1.324 1.695-2.636 3.555-4.521 4.677-17.025 1.284-34.236-.216-51.29.458H1557v-22.2c.21-5.557-.28-11.188.212-16.726.151-3.857 4.935-4.454 8.091-5.314 5.228-1.522 10.603-3.545 14.655-7.328 4.084-3.502 5.263-8.878 7.542-13.432 2.865 1.73 7.644 1.015 11.443 1.614 25.589 1.885 56.04-2.667 72.715-24.663 5.948-7.476 9.159-16.548 9.4-26.069 2.925-16.33 2.563-36.446 7.574-50.944 17.56-47.716 37.78-95.42 45.868-145.938 6.492 16.927 18.109 33.195 17.5 52.143.638 35.167-1.82 70.528-11.446 104.479-3.345 11.862-8.042 23.662-7.541 36.155.07 5.497 1.035 11.978 2.399 16.809 2.007 4.433 10.976 3.383 14.632 4.81 18.732 1.261 42.12 1.022 58.372-5.466 3.034-1.628 3.781-6.631 4.598-9.047 3.342-13.635 3.21-27.77 3.44-41.682.624-21.709.326-43.433 1.52-65.108 1.092-20.447 3.585-40.773 4.802-61.2 1.638-11.835-2.993-22.873-9.598-32.452-5.797-9.475-11.497-19.032-16.497-28.958-5.598-9.428-9.529-19.794-11.914-30.487-1.188-6.104-.598-12.379-.767-18.54.57-5.72-.737-11.855.5-17.456 10.628 12.878 19.599 27.604 32.938 38.06 5.315 5.336 10.607 10.693 16.75 15.083 5.42 4.678 4.908 12.812 7.706 19.015 8.609 25.198 16.495 50.716 20.994 77.007 1.018 6.77 3.067 24.208 15.71 19.603 7.358-4.054 11.029-12.641 14.262-19.937 11.548-27.974 15.993-65.516 7.123-92.286-4.13-13.719-13.97-25.409-26.512-32.122-6.611-3.57-13.937-5.188-21.215-6.64-3.553-.466-6.099-4.91-7.948-6.84-2.421-2.811-4.703-5.75-6.907-8.728-8.05-9.914-14.577-20.92-21.21-31.772-11.259-19.627-20.635-40.393-28.64-61.52-6.655-28.815-18.276-57.074-38.456-79.278-14.744-15.927-32.216-29.924-53.273-36.526-34.325-11.185-70.452-13.916-106.14-15.818-4.274-.856-9.455-1.493-13.203-2.92-2.848-1.183-4.138-4.9-5.814-7.913-6.098-10.226-13.535-22.597-21.897-29.847-9.815-7.418-20.295-13.849-30.286-21.019-19.941-14.537-43.386-26.216-56.193-48.211-12.65-21.559-26.446-47.824-34.289-69.391 21.298-8.607 40.429-23.707 53.96-42.31 6.646-9.03 13.342-20.608 16.762-30.353 3.016-9.888 8.575-23.5-.75-33.607-22.964-30.174-68.174-45.842-101.595-46.412-6.475-.56-12.938.279-19.377.682.25-12.31-2.217-24.427-2.749-36.667-.538-4.652 3.695-6.792 6.138-9.727 4.569-6.15 4.536-14.884.093-21.06-6.784-8.96-22.99-9.667-31.216-4.322-8.81 5.04-9.959 21.405-1.266 28.276-5.14 10.088-5.57 22.703-11.5 32.5-13.91-7.47-30-10.264-45.5-12-.53-4.538-2.174-8.856-3.217-13.272-1.28-3.842-2.17-7.795-2.307-11.832 3.917-4.955 8.537-10.939 4.772-18.811-4.176-9.664-21.82-9.917-28.624-5.636-4.852 2.783-7.33 8.058-6.536 13.565.028 2.706 1.005 5.315 2.872 7.258 1.222 1.896 4.7 3.64 4.448 5.601.069 8.714-1.419 17.403-1.408 26.127-22.16 4.709-44.456 21.373-57.836 36.8-5.705 6.527-11.082 13.34-15.547 20.789-4.424 5.48-6.921 13.634-10.992 18.587-23.457 11.477-48.504 23.541-64.46 45.38-17.698 21.538-21.592 52.45-11.974 78.357 9.375 24.056 34.708 37.355 59.11 40.28 27.562 2.93 55.235-.764 82.699-2.193 11.882 36.726 29.616 71.564 44.95 106.91 6.89 15.697 14.21 31.16 21.135 46.82 3.024 7.411 6.639 14.57 9.818 21.902 1.326 3.273 3.443 6.285 4.05 9.812.314 6.89-2.217 16.684-2.633 23.813-2.583 15.874-1.84 31.824-1.32 47.75.26 62.61-.494 125.232.704 187.824.217 22.87 1.744 45.73.78 68.592-.542 19.512-2.164 38.935-4.058 58.35-.877 16.858-3.952 33.553-11.9 48.462-2.486 6.577-5.725 13-6.991 19.98-2.254 8.598 4.854 12.1 11.029 12.793 12.723 1.952 28.087 2.68 39.84 2.18 11.104-.51 22.629.015 33.185-4.15 12.065-4.243 9.446-14.613 9.411-24.746.702-71.458 2.923-142.947 6.5-214.292 6.312 27.546 12.628 55.093 17.492 82.932 3.444 20.648 6.769 41.382 7.759 62.311.4 15.463-1.112 33.692-2.884 47.74-1.088 5.816-1.777 11.695-3.224 17.427-1.036 4.654-2.498 10.084-2.968 14.438.45 8.107 8.415 17.423 12.673 22.024 5.234 4.723 3.28 13.871 3.652 20.095V1719h-141.6c-13.72.163-26.59-5.832-39.452-10.015-37.748-12.202-74.978-26.58-112.948-37.985-.37 73.465.53 146.954-.477 220.407-1.349 101.466-5.448 207.337-49.284 301.095-5.288 10.71-10.88 21.231-17.075 31.437-2.39 4.516-5.259 8.747-8.056 13.004-.96 2.045-2.597 4.31-2.62 6.366 3.065 3.44 6.437 8.836 11.089 6.644 30.648-16.799 60.341-36.657 85.293-61.323 25.69-23.998 44.966-53.585 62.63-83.63 11.633 24.63 24.413 49.117 35.5 74-6.008.725-15.694-.566-19.914 2.692-7.241 5.204-1.507 10.118 3.695 13.817 6.193 6.016 11.425 12.87 16.645 19.701 15.52 21.904 28.078 46.832 31.574 73.79 4.334.92 7.88 4.032 12 5.5-72.221 1.426-144.728-.26-217 .5.696 9.62 5.044 18.653 7 28h249v1.5c-37.354 42.991-80.426 80.731-128.342 111.623-47.858 30.741-99.22 56.403-152.658 75.877-.003 3.597 1.401 7.754 3.151 10.533 1.262 3.458 7.203 1.475 9.728 1.341 27.106-4.83 54.264-9.332 81.055-15.764 99.085-21.92 197.194-53.59 286.066-103.11M1268 936c15.238 43.587 34.224 85.914 53.082 128.032 8.22 18.198 16.238 36.455 24.66 54.561 3.839 8.637 7.88 17.142 11.524 25.866 1.953 4.165 4.338 8.439 5.236 12.946-2.245 19.055-7.248 37.965-6.5 57.36-.427 17.608 4.829 34.821 13.996 49.682 8.66 12.887 18.475 25.065 29.196 36.307 4.259 5.592 11.444 12.014 14.882 16.691 7.238 12.766 10.814 27.145 14.657 41.155 13.78 54.518 27.481 109.723 31.137 166.062 1.054 22.096.39 44.227-3.742 65.983-.473 4.708-1.892 9.252-2.284 13.96-1.196 3.902 5.204 6.51 7.61 8.085 15.298 7 36.484 5.245 49.55-2.259 9.385-3.933 6.96-12.81 6.31-19.87-2.26-28.852-4.293-57.689-6.46-86.545-4.783-44.105-4.88-88.825-1.842-133.03.858-10.784 2.243-21.53 3.874-32.214.77-4.052 1.088-8.376 3.114-12.053 2.952-4.511 14.437-2.789 18.923-4.697 10.663-1.554 21.24-3.556 31.755-5.85 10.032-1.238 21.1-6.44 30.322-7.172 5.673 24.993 12.521 49.809 16.372 75.216 3.352 19.158 6.553 38.557 6.628 58.048.204 7.338-2.574 14.258-4.426 21.24-6.452 23.965-14.854 47.308-22.007 71.041-7.285 23.744-13.007 47.953-18.567 72.112 8.594 7.534 22.394 10.302 32.494 10.34 6.443.022 13.045.24 19.248-1.813 5.563-.59 11.184-5.733 15.258-7.184 2.186-20.332 4.534-40.73 7.346-60.974 13.167-34.852 27.79-69.323 38.138-105.188a282 282 0 0 0 10.51-49.64c1.033-8.136 1.826-16.317 1.971-24.512.33-7.1-.511-16.756 4.096-22.11 18.78-19.217 37.846-46.185 44.318-70.231 5.984-24.058 1.698-54.143-7.117-74.76-8.827-19.534-22.467-37.034-40.685-48.653-15.87-11.382-35.34-14.98-54.09-18.318-17.328-3.932-34.996-4.612-52.66-4.976-14.92-1.54-29.992-4.318-44.277-8.931-4.531-2.574-5.95-10.695-9.746-15.25-5.451-9.4-11.614-21.397-19.508-27.85-16.516-11.424-32.941-22.96-49.604-34.16a1279 1279 0 0 0-18.553-12.84c-10.574-8.045-16.34-20.698-24.12-31.066-10.51-16.858-19.543-34.719-27.688-52.822-7.207-18.294-17.79-40.274-18.331-58.719 21.599-4.015 40.422-16.83 57.279-30.2 8.329-7.052 16.09-15.2 20.881-25.12 1.176-2.38 2.556-4.9 2.306-7.636-4.887-5.668-12.567-10.904-18.305-14.628-21.402-12.917-48.097-16.945-72.349-10.764-5.586 1.307-10.745 3.745-15.794 6.358-4.187 2.608-9.019-3.566-11.493-5.985-22.804-24.623-63.578-33.426-92.43-14.73-12.903 7.979-24.712 21.558-32.064 33.18-3.024 4.77-5.445 9.896-8.443 14.68-2.373 5.861-4.416 8.706-10.256 10.495-15.943 6.96-31.359 15.722-44.548 27.126-11.2 10.506-26.931 26.191-21.76 46.652 2.775 11.208 11.942 19.926 23.171 22.36 18.127 3.499 36.898 1.022 55.195.623 18.214-.812 36.384-2.76 54.61-3.411m-99.907-39.722c-.328 6.861 4.1 9.294 9.35 8.584 6.521-.375 12.033-5.008 15.613-10.093 2.434-3.41 3.65-8.272 1.773-12.249-1.587-4.212-9.109-3.664-12.33-2.879-6.983 2.2-14.363 9.369-14.406 16.637M1222 2094c22.917-2.317 46.153-.97 69-4v-151h-18c-4.409.114-9.047-.351-13.343.717-2.34 1.486-1.213 6.29-1.989 8.52-.966 9.133-1.703 18.311-2.95 27.407-4.783 40.853-17.443 80.456-32.718 118.356m39-1244c-.003 14.368 9.758 31.268 29.12 27.708 14.898-1.825 19.814-17.785 18.854-29.146.293-12.751-11.193-24.589-23.973-24.317-8.33.63-16.563 2.215-24.872 3.038-4.313.16-9.242 1.135-13.129 1.717-.386 8.157 1.72 20.241 14 21m-1 1061h78v-71h-77c.054 23.713.28 47.372-1 71m1-99h77v-64h-77zm30 366.25c15.487 1.893 32.408 3.004 47.099 9.792 10.918 4.35 21.691 9.885 30.35 17.972 12.766 12.465 19.911 30.92 15.332 48.676-3.084 16.785-16.889 33.142-30.781 39.81 26.879 1.426 54.064-.26 81 .5v-132c53.984 4.545 107.98 9.776 162 14 .784 19.22-19.546 27.608-34 28v90c8.463-.598 20.245 2.118 24.9-4.558 13.83-18.688 25.933-38.563 37.96-58.418 10.148-19.282 24.132-41.25 31.14-60.024-26.017-2.652-54.163-.872-77.938-14.09-23.484-11.516-28.808-45.033-28.062-67.91-85.308 32.008-171.628 62.32-259 88.25m17.2-1231.806c.467 6.27 4.36 12.739 7.113 17.445 3.671 6.576 10.851 7.07 17.401 5.246 12.822-3.232 11.536-15.792 7.729-23.91-1.669-4.037-5.18-8.006-8.486-10.23-4.136-2.594-8.66-1.482-13.068-.357-5.75 1.68-10.922 5.752-10.69 11.806m12.15 59.048c.773 10.628 5.267 20.457 10.993 29.064 2.925 4.251 6.894 9.339 11.52 10.102 5.383.821 11.182.396 16.03-2.213 14.854-8.054 2.293-28.962-2.984-37.843-2.762-3.871-5.266-8.052-9.091-11.01-3.82-3.345-10.286-2.297-14.255-1.076-5.009 2.044-12.026 8.005-12.212 12.976m19.775-101.502c.305 9.941 12.945 19.063 20.249 17.877 4.389-.13 5.684-3.793 5.578-7.53.13-4.007.144-8.092-1.023-11.955-1.289-6.467-5.68-14.062-14.582-10.23-4.478 1.755-10.243 5.404-10.222 11.838m11.883-63.013c-1.048 13.47 8.616 18.264 19.397 18.886 19.696 1.679 37.667-8.694 52.668-20.183 4.015-2.47 12.842-8.561 4.834-12.802-16.921-10.769-38.325-12.31-57.153-6.527-8.559 2.993-20.559 7.515-19.746 20.626m5.2 242.472c1.001 15.486 14.566 36.017 34.025 31.89 8.072-1.067 17.17-5.194 22.543-10.384 5.586-5.358 2.634-18.005-.035-23.396-3.391-7.074-8.052-15.655-14.245-19.789-6.478-5.26-18.337-.553-23.969 2.013-7.55 4.246-18.284 11.158-18.32 19.666m4.92-105.202c.75 12.472 9.7 24.82 15.598 33.77 3.725 4.833 6.983 10.476 12.685 13.252 5.282 1.698 13.16 1.012 13.967-7.022 1.993-14.22-9.908-29.177-16.024-40.716-3.679-5.6-8.758-12.655-15.501-10.795-4.738 1.206-10.87 4.812-10.726 11.51M1440.5 1221c-8.5-8.194-20.097-16.324-29.593-21.492-15.317-6.739-21.186 11.311-24.802 21.653-2.204 7.836-4.382 17.614-3.765 25.13 2.146 7.7 12.991 10.85 18.808 14.781 12.767 6.104 25.913 12.245 39.854 15.171 14.612 2.8 30.916-6.337 39.926-15.71 10.727-10.375 12.801-26.509 8.116-40.245-2.348-8.93-10.567-19.243-22.528-13.492-9.522 3.07-17.829 8.837-26.016 14.204m-46.473-66.69c-.554 11.261 14.617 18.66 22.087 21.22 15.032 2.889 25.274 20.389 45 15.518 7.891-2.637 14.634-8.103 19.524-14.756 5.444-8.43 2.773-16.724-1.558-24.039-10.951-18.016-31.38-39.431-58.44-26.023-11.511 5.563-26.728 15.477-26.613 28.08M1412 2009h2.5c10.06-12.724 19.194-26.19 28.97-39.14 3.592-5.13 7.555-10.003 11.103-15.161 2.78-3.595 6.47-10.415 10.724-10.216 29.207 22.736 56.629 48.842 84.703 72.517v-78h-138zm0 73c45.703-2.587 91.362-6.488 137-10-.703-13.904.87-28.208-.5-42-8.805 8.222-19.387 6.96-30.395 7H1412zm17.204-778.532c.59 11.759 11.88 17.795 18.708 24.117 5.352 5.088 13.212 10.199 16.03 16.685 3.86 9.658-8.851 23.924 4.01 33.14 3.907 3.167 11.988 3.81 15.613-.76 3.554-4.262 5.549-10.63 7.078-15.35 2.365-11.008 1.773-24.718-1.563-34.425-3.628-10.217-13.132-19.639-21.58-24.572-9.48-5.767-20.63-7.349-31.496-6.126-3.986.16-6.974 3.195-6.8 7.29m.851-245.62c.297 7.066 5.168 14.084 8.074 19.374 10.871 17.817 27.869 33.75 49.555 35.96 7.522 1.492 20.218 4.533 21.152-5.306.868-7.268-3.897-11.748-8.726-16.199-14.33-11.185-27.568-23.774-42.417-34.241-5.934-4.16-12.854-7.232-20.241-7.154-4.83-.273-7.646 2.982-7.397 7.567M1453 1812h87v-64h-87zm0 99h87v-71h-87zm47.104-761.606c-.298 6.667 4.998 9.487 8.196 14.201 6.405 8.601-2.518 17.897-5.657 25.359-3.278 6.644.818 15.214 3.274 21.32 1.859 4.66 4.623 10.316 8.507 13.058 8.842 4.986 14.96-4.133 19.473-9.233 4.878-6.2 8.51-13.277 11.635-20.495 5.81-14.016 2.941-32.473-1.448-45.143-2.097-6.906-7.421-9.246-13.72-9.707-6.356-.748-14.1-1.216-19.902-.123-4.555 1.3-10.605 4.973-10.358 10.763m8.908 128.49c-.026 12.291 10.806 26.764 25.85 25.076 17.102-.55 29.61-18.357 41-26.349 5.783-5.269 14.254-8.998 19.966-13.193 4.687-3.953 7.438-10.187 6.632-16.344-1.951-9.024-14.158-15.848-20.6-17.626-9.494-2.506-20.118-1.998-28.887 2.626-9.474 5.207-18.29 11.778-25.948 19.401-7.23 7.984-18.248 15.048-18.013 26.41M1528 1646.336c7.426 1.787 14.216.834 21.307 2.045 7.252-.26 15.67 2.083 21.693 1.119-4.508-1.81-8.908-3.787-12.624-7.024-3.833-2.394-7.31-8.14-10.876-9.476-5.656 5.517-12.486 9.856-19.5 13.336M1552.5 1534c8.729-31.491 21.34-62.087 29.296-93.798-.136-17.27-4.601-34.14-6.922-51.141-1.736-8.512-3.301-17.041-5.086-25.546-.552-1.909-.885-4.417-2.124-5.664-6.29-1.088-12.17 1.41-18.664 1.149-1.514 14.656-3.211 29.33-3.003 44.1-2.067 22.134-.213 44.582.428 66.768.735 11.02 1.2 22.053 2.356 33.032.326 5.395 1.088 10.754 1.57 16.134.674 4.777.102 10.91 2.149 14.966m14.512-342.116c-.946 11.696 12.638 18.872 21.857 21.077 7.476 1.683 17.48 3.489 24.273.642 7.312-4.127 6.174-16.823 5.135-22.806-2.558-12.824-9.33-24.472-17.218-34.697-3.184-4.416-8.72-8.955-13.973-8.93-8.308-.138-10.777 14.102-14.01 19.255-2.82 8.165-5.963 16.515-6.064 25.459m56.004 73.453c.702 14.606 2.202 29.215 6.613 42.976 1.058 3.473 2.795 6.86 5.88 8.93 10.195 2.928 20.203-8.078 27.487-13.037 5.016-4.56 10.88-10.407 13.753-16.01 2.624-7.357.496-16.807.342-23.69-1.097-7.402-2.052-16.113-3.395-22.827-2.032-7.152-2.401-16.793-6.645-22.47-3.848-5.004-13.535-.276-17.643 1.181-16.244 7.81-27.285 28.481-26.392 44.947m11.017-97.447c-.082 6.555 1.754 13.287 6.706 17.646 5.063 4.31 11.768 6.04 18.277 6.323 6.229.141 14.07-1.857 18.268-5.95 5.155-5.53 2.55-14.808-2.83-18.833-8.741-7.265-20.637-8.615-31.475-8.96-6.995-.41-9.474 4.121-8.946 9.774m3.34 191.589c-.03 7.81 9.788 14.573 6.045 23.254-7.104 10.32-4.855 28.743 6.01 33.54 14.354 4.914 20.59-15.506 22.208-24.914 2.348-10.962 3.114-22.136 3.323-33.307-.007-6.06-.162-13.33-1.511-18.756-1.68-8.347-11.412-4.578-15.48-2.172-4.484 2.74-8.633 6.046-12.338 9.746-3.458 3.567-8.465 7.769-8.257 12.609M1656 1911h78v-71h-78zm21 83h1.5c10.92-7.918 22.945-14.592 33.78-22.702 5.588-4.085 11.537-7.666 16.909-12.052 6.427-4.1 4.764-13.666 4.811-20.246h-57zm7.009-778.767c.524 14.372 5.394 30.75 10.816 42.395 2.88 5.549 6.525 14.578 15.316 11.53 6.52-2.377 10.857-9.791 13.75-14.978 7.198-12.105 6.953-28.138-1.714-39.425-5.159-7.769-11.485-16.458-23.813-14.627-7.48.49-15.6 4.915-14.355 15.105" style="fill:#fff;fill-rule:evenodd;stroke:none"/><path d="M1411 2010h2v-70h138v-2h-140zm0 73h2v-45h115v-2h-117z" style="fill:#3e3e3e;fill-rule:evenodd;stroke:none"/><path d="M1395 1388h2c-.074-2.443.634-6.047-2-7z" style="fill:#8e8e8e;fill-rule:evenodd;stroke:none"/><path d="M1395 1391h3c.13-2.433-.707-4.753-1.5-7-.68 2.105-1.804 4.31-1.5 7" style="fill:#0a0a0a;fill-rule:evenodd;stroke:none"/><path d="M449 2666.5v1.5h2102v-1.5c-63.81-378.768-126.215-757.87-189.705-1136.696-47.349-283.998-94.654-568.016-142-852-4.398-26.67-8.911-53.338-13.325-80.003-1.118-6.656-2.232-13.342-3.35-19.985-.571-3.586-1.119-7.183-2.096-10.662-1.288-2.958-6.82-3.128-9.193-4.54-101.51-33.828-203.017-67.663-304.512-101.514a746151 746151 0 0 1-266.522-88.84c-39.072-12.89-78.06-26.135-117.144-38.98-4.713-1.335-9.273 1.032-13.839 2.453-144.507 48.104-288.95 96.378-433.449 144.467-54.18 18.08-108.385 36.116-162.566 54.195-23.808 7.923-47.625 15.882-71.434 23.805-5.676 1.96-11.407 3.738-17.06 5.726-6.564 1.113-6.72 8.744-7.34 13.268C740.08 921.349 682.77 1265.54 625.383 1609.692 566.339 1961.663 508.308 2314.864 449 2666.5m986-263.5v120c37.113.86 75.037-2.388 109.577-17.181 7.694-3.12 17.777-6.761 16.423-18.433V2322c3.753.007 5.62 4.294 7.323 6.949 30.619 50.432 73.494 92.955 123.265 124.434 50.33 31.976 106.766 53.243 164.412 67.617 4.344-27.707 14.498-54.766 31.97-76.936 8.3-10.713 18.58-19.9 29.935-27.304 5.616-3.62 11.586-6.569 17.79-8.997 2.964-1.814 8.021-1.917 9.69-4.642.681-3.306.72-6.743.615-10.121-60.211-1.872-120.543-6.906-179.825-17.907-56.645-11.182-113.614-25.833-165.175-52.593 56.345-1.426 112.985.26 169.386-.5h127.727c11.345.164 26.683 1.002 31.887-14.5-34.105-32.693-70.656-62.746-106.5-93.5-12.412 14.896-22.562 31.604-34.591 46.804-4.299 5.986-8.582 11.947-12.932 17.883-3.97 4.935-7.198 10.425-11.293 15.248-1.564 2.655-6.632 1.694-9.061 2.065H1612.5l-1.5-.5c31.47-10.866 62.918-22.017 93.676-34.77 15.505-6.093 30.418-13.538 45.205-21.177 7.261-4.984 17.258-3.567 25.207-3.725 9.416-.415 15.389-5.039 20.912-11.328-38.587-18.95-78.984-34.824-118-53 57.524-2.324 115.716 1.408 173.046-5.885 13.645-1.638 27.225-4.435 40.219-8.926 8.938-3.326 17.712-8.387 23.198-16.48 8.597-12.159 8.036-31.32 2.349-43.213-7.141-12.153-22.954-20.34-34.812-23.996-.813-14.949-3.142-29.785-3.82-44.737-.354-1.69-.507-4.331-1.51-5.386-7.417-2.99-10.636 3.503-12.9 8.395a241 241 0 0 1-9.737 15.18c-7.161 10.237-14.759 20.95-25.333 27.998-14.475 7.299-31.229 5.414-46.743 5.55h-74.131c-6.121-.023-12.253.165-18.345-.456-4.07-.36-8.61-1.219-11.423-4.52-3.513-5.308-1.286-14.099-2.058-20.029V2035c31.062-3.045 62.417-3.894 93.229-9.37 14.511-1.565 31.974-7.585 45.045-2.83 14.437 3.078 33.607 8.81 43.726-2.3-21.892-22.151-45.11-42.85-67-65 11.403-2.475 23.288-4.448 34.554-7.888 8.147-2.351 17.791-5.26 24.918-8.397 7.653-3.225 5.158-12.627 5.528-18.706V1856c12.878-1.412 24.573-7.71 33-17.5-35.882-28.368-74.221-53.643-110.5-81.5-16.52 16.254-30.959 34.465-47.602 50.602-4.628 6.018-10.554 6.007-17.12 5.398H1655v-66h208.8c15.099-.816 34.66 3.526 44.703-9.51 5.252-6.87-3.12-10.527-7.243-14.718-17.713-15.623-36.323-30.164-54.453-45.284-13.622-11.235-26.986-22.825-41.214-33.292-2.324-1.675-6.15-5.024-8.101-2.515-15.69 18.723-29.43 39.214-44.726 58.287-3.68 4.984-7.473 9.908-11.146 14.897-3.154 5.176-7.673 5.736-12.702 5.135H1556v-22.2c.054-5.62-.068-11.218.042-16.829-.366-5.65 3.14-6.436 7.384-6.96 5.363-1.518 10.878-3.43 15.122-7.205 3.867-3.457 6.35-9.287 7.452-13.806 25.052 4.873 52.543 2.231 74.191-12.2 9.174-7.206 17.535-19.315 19.043-30.097 1.806-12.429 2.775-24.967 4.37-37.409.978-14.67 6.661-28.128 12.132-41.612 16.106-40.985 30.637-83.555 38.764-126.682 7.22 16.753 19.151 36.664 18.5 54.143.627 36.36-1.611 73.033-11.924 108.08-3.877 12.435-8.704 25.107-6.728 38.39.91 5.024.417 12.826 7.06 14.14 11.292 2.588 22.98 2.584 34.485 2.058 9.693-.791 19.464-1.842 28.824-4.629 7.67-1.979 7.78-14.775 9.115-20.675 3.659-30.636.525-61.624 2.932-92.317.454-14.537 2.214-28.984 3.369-43.455 1.478-13.817 3.847-31.159-2.684-42.821-9.093-17.786-21.332-33.964-28.693-52.645-6.94-18.018-6.657-38.28-5.256-57.269 10.104 13.42 19.763 27.478 32.285 38.829 5.843 4.847 10.704 10.77 16.84 15.275 7.27 4.741 7.62 11.866 9.612 19.108 8.699 25.556 16.867 51.4 21.49 78.05.763 4.96 1.517 9.974 3.505 14.624 1.792 5.418 6.44 7.809 11.225 5.549 6.843-4.806 10.587-12.67 13.62-20.169 11.787-28.113 15.611-65.796 5.985-92.441-5.097-13.65-15.56-25.504-29.181-31.043-6.111-3.846-16.442-3.505-21.143-6.841-5.303-5.062-9.236-11.33-13.906-16.926-7.32-9.735-13.843-20.016-19.862-30.586-9.858-17.155-17.633-35.372-25.215-53.595-4.518-10.471-5.255-22.175-9.694-32.67-12.57-34.267-36.217-65.475-68.982-82.62-17.394-9.158-37.114-11.89-56.066-15.834-20.172-4.075-40.668-5.619-61.213-5.916-5.504-.683-12.004-1.674-16.861-3.21-4.01-1.51-5.352-7.404-8.202-11.474-4.696-7.863-9.88-15.534-15.789-22.538-11.81-11.236-26.917-18.446-39.568-28.63-20.022-12.955-41.462-25.757-52.823-47.57-13.608-21.005-22.754-44.505-33.557-66.872 14.659-8.329 30.59-15.657 41.87-28.87 18.613-17.316 33.658-45.562 34.65-69.074-14.073-22.095-37.382-37.16-61.733-45.784-20.687-8.041-42.888-9.771-64.787-7.772.346-12.874-2.8-27.814-2.795-39.572.168-4.64 5.288-6.547 7.217-10.468 4.248-6.91 2.033-16.668-4.794-21.12-9.361-7.349-26.75-4.51-31.572 6.834-2.3 5.957-.855 12.474 3.122 17.244 3.175 4-1.989 10.858-2.471 16.173-2.483 6.931-4.245 14.179-7.207 20.909-14.439-8.225-31.268-11.131-47.5-13-1.448-8.82-4.828-17.339-6.481-26.098 3.815-4.793 9.82-10.763 5.272-18.753-4.859-9.165-22.194-8.813-28.188-3.114-4.234 3.38-5.844 9.511-3.499 14.52 2.247 4.28 7.944 6.137 6.472 12.504-.644 7.967-1.218 15.968-1.576 23.941-22.16 4.709-44.456 21.373-57.836 36.8-5.705 6.527-11.082 13.34-15.547 20.789-4.424 5.48-6.921 13.634-10.992 18.587-23.457 11.477-48.504 23.541-64.46 45.38-17.572 21.384-21.833 52.42-11.288 77.977 9.97 23.526 35.475 35.998 59.551 38.795 27.228 2.797 54.447-1.244 81.572-2.328 11.882 36.726 29.616 71.564 44.95 106.91 6.89 15.697 14.21 31.16 21.135 46.82 3.024 7.411 6.639 14.57 9.818 21.902 1.465 3.494 3.66 6.737 4.339 10.521-.901 15.497-4.756 31.117-4.505 46.815 1.244 64.118-.743 128.5.599 192.668.23 23.867 1.06 47.731 1.653 71.587-.06 20.22-1.394 40.414-2.994 60.543-1.587 16.504-2.715 33.175-6.641 49.344-2.424 7.106-6.7 13.463-9.05 20.618-1.98 6.078-6.097 13.423-4.417 19.023 1.99 5.994 12.758 6.235 17.427 7.398 12.607 1.609 25.236 1.187 37.836.844 10.408-.403 21.913-.576 30.997-6.485 4.701-2.765 5.053-7.459 4.851-12.039-.484-74.387 3.869-148.666 6.002-222.969l.5-1.5c.301 1.015.57 2.034 1 3 .442-.969.717-1.978 1-3 8.3 37.207 17.388 74.33 22.033 112.242 5.588 37.87 3.82 77.43-6.533 114.258 2.636 3.937 3.611 9.415 7.507 13.685 3.218 4.617 7.696 8.215 11.493 12.315-2.934 2.138-1.576 7.178-2 11.081V1720h-141c-14.042.713-27.193-4.735-40.256-9.304-37.14-13.577-75.16-25.074-112.244-38.696-1.893 102.005 1.801 204.44-3.725 306.427-4.354 91.802-22.06 186.785-74.775 264.073 2.4 2.563 5.052 4.842 7.334 7.5 31.327-16.413 61.306-36.898 86.768-61.602 26.476-24.754 46.556-55.183 64.398-86.398 12.328 25.961 25.718 51.785 37.5 78-9.21.218-21.057-1.054-25 7.5 29.037 24.416 51.191 66.282 56 100.5 6.056 1.365 10.913 6.152 17 7.5-73.923 1.426-148.052-.26-222 .5 1.463 8.853 4.98 17.296 7 26 83.568.76 167.55-.926 251 .5-36.376 44.721-81.208 81.765-128.91 113.746-48.378 30.97-100.032 57.25-154.09 76.754.29 3.027 1.984 6.257 3.204 8.714 1.324 2.992 6.572.912 9.024.894 41.75-7.12 83.275-15.75 124.364-26.044C1276.09 2475.47 1358.946 2445.52 1435 2403M1267 937c15.301 43.756 34.348 86.195 53.274 128.478 8.235 18.21 16.259 36.516 24.696 54.631 3.82 8.604 7.846 17.118 11.51 25.784 1.478 3.869 4.651 8.256 4.816 12.755-2.97 19.38-6.762 38.82-6.285 58.55-.096 17.447 5.12 34.548 14.557 49.122 8.286 12.597 19.897 26.112 29.328 36.196 4.188 5.617 11.641 11.857 14.7 16.807 7.09 12.881 10.494 27.288 14.43 41.306 13.529 54.6 27.621 109.781 30.892 166.214 1.194 22.293-.13 44.475-4.32 66.387-.928 4.521-1.899 9.032-2.111 13.625 3.68 7.284 16.285 10.032 22.777 10.878 8.495.396 18.815.813 26.351-1.505 3.52-1.151 6.762-2.968 10.054-4.618 8.934-3.736 8.036-12.034 6.821-19.74-2.27-28.658-4.34-57.329-6.416-85.991-4.583-44.281-5.578-89.08-2.084-133.47.727-10.296 2.107-20.555 3.581-30.764.934-7.528 1.155-17.287 12.127-17.227 23.87-2.462 47.163-8.502 70.302-14.418 6.965 30.791 15.263 61.444 19.33 92.845 1.714 12.214 3.702 24.47 3.67 36.836.224 10.532-4.154 20.422-6.617 30.495-10.172 34.485-22.514 68.315-30.766 103.348-2.35 8.867-4.798 17.704-6.386 26.748-.518 2.915-1.623 6.542 1.153 9.055 9.067 7.461 23.53 8.647 33.66 8.673 6.022.03 12.205.08 17.984-1.904 5.457-.625 10.965-5.679 14.972-7.096 2.297-20.485 4.466-41.092 7.473-61.482 13.394-34.773 27.74-69.355 38.16-105.197 4.922-16.21 8.474-32.83 10.422-49.662 1.03-8.149 1.78-16.34 1.92-24.549.236-7.422-.351-17.049 4.45-21.946 9.795-9.894 18.435-20.879 26.13-32.473 31.763-43.324 25.57-108.882-11.53-147.166-13.603-14.518-31.304-25.36-50.915-29.42-17.834-3.396-35.585-8.077-53.835-8.643-16.224-.278-32.481-.915-48.214-5.35-5.937-2.213-14.938-2.117-18.745-6.231-6.268-10.138-10.926-21.29-18.024-30.95-5.68-9.055-14.824-14.802-23.611-20.488-15.33-10.239-30.376-20.891-45.543-31.349-12.292-6.915-20.618-18.29-27.817-30.12-11.843-17.38-21.554-36.164-30.248-55.29-7.72-18.978-18.425-41.674-20.073-60.684 17.856-3.13 33.992-12.598 48.34-23.217 14.46-10.496 28.474-23.745 33.66-41.49-11.363-9.818-23.478-18.868-38.088-23.283-13.49-4.717-28.002-5.694-42.19-4.8-5.842.663-11.726 1.627-17.308 3.504-5.092.494-10.81 5.708-14.896 5.71-7.734-6.477-14.087-14.944-23.434-19.443-15.986-9.824-35.717-13.698-54.219-11.368-26.437 5.301-47.07 26.505-59.5 49.27-3.627 4.51-5.384 11.472-9.811 16.042-17.355 8.814-35.723 16.628-50.147 30.207-11.58 10.471-23.485 23.918-22.393 40.874-.117 11.988 7.686 24.101 19.12 28.164 18.002 6.248 40.807 2.555 57.76 2.539 19.045-1.212 38.058-2.619 57.106-3.709m-97.81-40.514c-.16 5.164 3.63 7.856 8.034 7.251 5.737-.487 10.464-4.507 13.936-8.73 2.274-2.792 4.645-7.175 2.657-11.508-1.421-4.08-8.502-3.678-11.45-2.47-6.198 2.503-12.953 8.85-13.177 15.457M1220 2093.75c1.177 1.831 4.53.78 6.82.977 21.651-2.236 43.607-.732 65.18-3.727v-153h-19.2c-4.677.112-9.524-.343-14.085.693-2.651 1.676-1.18 7.266-2.164 9.765-1.02 9.42-1.692 18.887-3.156 28.243-5.513 40.078-16.776 80.365-33.395 117.049M1262 849c0 13.712 9.562 31.61 28.68 27.433 12.831-2.966 18.859-16.965 17.2-28.906-.709-11.797-11.86-22.8-23.888-22.08-7.609.763-15.165 1.894-22.746 2.83-4.49.155-8.842 1.069-13.246 1.723-.2 7.739 2.817 18.452 14 19m-3 1063h80v-73h-79c.488 24.4-.155 48.69-1 73m1-99h79v-66h-79zm28 365.25c.047.678.167 1.205.75 1.75 16.682-.269 33.314 3.222 48.82 9.23 11.043 4.488 22.053 10.075 30.622 18.538 12.772 12.927 19.644 31.816 13.676 49.665-4.679 17.118-17.947 30.937-33.868 38.067 28.875 1.426 58.068-.26 87 .5v-132a16105 16105 0 0 0 160 14c-1.405 17.973-18.486 24.929-34 26v92h15c9.463 1.174 13.47-5.632 17.649-12.461 12.247-17.891 24.322-35.912 34.719-54.981 10.092-18.31 22.614-39.696 29.632-57.558-25.555-1.857-57.213-1.771-78.458-13.82-24.162-11.567-29.423-45.855-28.542-69.18-86.322 33.588-174.564 62.721-263 90.25m21.358-1231.756c.687 6.052 4.603 12.256 7.242 16.809 3.662 6.026 10.298 6.676 16.022 4.552 12.03-3.663 10.34-15.42 6.206-22.972-1.744-3.666-5.272-7.035-8.217-9.195-3.837-1.714-8.322-.979-12.19.44-4.389 1.695-9.122 5.214-9.063 10.366m12.117 59.314c1.276 11.358 7.373 23.486 13.67 31.57 6.558 9.963 25.168 8.263 29.108-3.56 1.67-6.014-1.494-13.07-3.783-17.869-2.541-5.815-5.766-11.228-9.708-16.194-6.069-9.56-17.448-9.186-24.347-1.632-1.961 2.063-5.123 5.036-4.94 7.685m19.786-101.855c.162 4.884 3.535 8.488 6.713 11.522 2.793 3.309 7.222 6.589 12.673 5.165 3.665.204 4.334-5.415 4.324-7.879.172-3.683-.217-7.386-1.52-10.853-1.306-6.156-6.168-12.624-13.96-7.962-3.511 1.697-8.234 5.203-8.23 10.007M1432 831.5c-8.873-10.007-28.884-13.056-39.057-13.484-13.36.496-30.888 4.516-37.835 14.408-3.762 5.61-2.007 15.64 1.183 19.84 4.614 5.476 13.643 6.577 19.67 6.719 21.568-.65 40.045-14.607 56.039-27.483m-73.658 252.276c1.422 15.08 15.171 34.87 34.024 30.236 8-1.31 15.12-5.563 21.265-10.489 3.99-7.226 1.846-16.21-1.94-23.13-3.382-6.756-8.307-14.87-14.521-18.437-7.016-3.962-18.131 1.695-23.683 4.442-5.924 4.244-15.351 10.012-15.145 17.378m4.866-105.323c1.147 11.934 9.855 23.815 15.518 32.564 3.693 4.617 6.76 10.25 12.266 12.987 6.735 3.273 11.905-1.207 12.491-7.686.097-14.022-10.924-28.017-16.663-38.648-3.173-4.91-8.349-11.407-13.953-9.637-4.256 1.142-9.849 5.007-9.659 10.42M1440.5 1223c-8.61-8.488-20.339-16.958-30.086-22.248-13.804-7.343-20.984 13.77-23.613 22.37-1.609 4.092-2.346 8.399-2.773 12.74-1.025 5.504-2.493 12.255 4.34 16.297 4.664 3.146 10.625 6.09 15.121 8.595 12.15 5.833 24.737 11.404 37.935 14.4 13.802 2.667 29.086-6.44 37.796-14.902 11.43-10.933 13.13-24.846 8.98-38.404-2.129-9.081-10.432-19.865-22.35-13.394-9.285 3.293-17.558 8.71-25.35 14.546m-45.401-68.773c-.184 10.466 14.133 17.184 20.874 19.895 14.582 2.615 27.336 20.818 45.09 15.62 7.508-2.964 14.296-8.217 18.847-14.934 5.116-8.22 1.684-15.995-2.537-22.858-5.72-9.975-14.183-17.89-23.596-24.289-11.541-7.61-23.523-4.82-34.154.534-10.176 5.507-24.345 14.552-24.524 26.032M1412 2010c6.157-.295 9.789-9.233 14.076-14.03 4.124-5.594 8.307-11.148 12.313-16.827 8.652-10.703 17.205-24.768 25.611-34.143 29.444 24.199 58.33 49.345 86.5 75 1.378-13.484-.211-27.467.5-41.046-.68-13.595.847-27.433-.5-40.954-4.312 2.08-11.217.252-16.67 1H1412zm0 73c46.054-2.357 92.013-6.585 138-10v-45.5l-.5-1.5c-5.248 9.656-20.147 10.455-29.443 10.955-36.016.129-72.053-.024-108.057.045zm18.433-779.649c.313 10.174 11.53 17.157 17.956 22.78 5.295 5.002 11.8 9.118 15.736 15.423 6.535 9.198-6.596 24.104 2.93 33.29 3.25 3.232 9.73 6.234 14.441 1.903 3.833-3.806 5.947-10.048 7.578-14.565 3.08-10.627 2.32-24.242-.792-33.748-3.461-10.328-12.869-19.83-21.305-24.859-9.187-5.595-20.087-7.712-30.702-6.298-2.974.445-5.935 2.603-5.842 6.074m.72-245.525c.33 6.234 5.154 13.237 8.538 19.237 10.701 17.541 27.706 32.85 48.908 35.12 5.575.916 19.695 5.079 19.143-6.391-1.932-11.933-17.516-18.448-24.701-26.302-8.856-8.02-17.943-15.775-28.065-22.158-5.236-3.456-11.464-5.974-17.827-5.873-3.528.16-6.186 2.858-5.997 6.367M1452 1813h89v-66h-89zm0 99h89v-73h-89zm49.225-762.663c-.007 6.418 5.668 8.89 8.379 13.716 6.249 9.677-2.616 19.384-5.966 26.982-2.905 6.337 1.623 14.306 3.638 20.16 2.052 4.513 4.276 9.464 8.488 12.41 7.206 3.889 14.83-6.76 18.397-11.172 4.408-5.866 8.112-13.742 10.777-19.893 5.247-13.458 2.2-31.073-2.253-43.047-2.403-6.55-7.901-8.28-13.87-8.83-5.994-.606-13.498-1.314-18.846.471-3.596 1.57-8.673 4.349-8.744 9.203m8.835 128.433c.427 11.616 10.806 25.78 25.202 24.12 16.028-1.448 27.983-17.721 38.731-25.61 5.83-5.262 14-9.379 20.013-13.173 5.027-3.934 8.766-10.896 6.817-17.37-9.45-16.955-33.96-21.758-49.856-11.009-8.652 5.12-16.685 11.308-23.7 18.505-6.787 7.137-17.357 14.975-17.207 24.537m12.94 369.48c18.359 2.159 38.446 2.908 57 4.25-5.888-2.682-12.519-3.989-17.79-7.998-5.785-2.995-9.13-9.434-14.71-12.502-6.764 7.296-15.712 12.057-24.5 16.25m28.5-105.25c9.223-33.581 22.017-66.14 31.18-99.713.819-18.09-4.637-35.822-6.704-53.62-1.803-9.094-3.524-18.212-5.436-27.278-.784-5.705-5.456-5.88-9.836-4.733-4.24.432-8.45 1.228-12.704 1.344-7.398 61.15-2.73 122.982 3.5 184m16.558-350.227c-.502 10.892 12.205 17.508 20.655 19.869 7.195 1.796 16.808 3.98 23.4.982 7.195-4.254 6.32-15.625 4.87-22.365-2.952-12.196-9.236-23.357-16.924-33.159-3.08-4.048-8.272-8.88-13.317-8.71-3.642-.12-6.156 4.563-7.801 7.936-4.66 10.918-10.512 24.064-10.883 35.447m55.967 73.471c.786 14.537 2.284 28.995 6.79 42.609 1.022 3.305 2.789 6.427 5.695 8.39 9.777 1.982 19.146-9.134 26.292-13.73 4.767-4.552 10.529-10.215 13.138-15.78 2.287-7.21.238-16.313-.048-23.004-1.228-7.356-1.702-14.859-3.458-22.112-1.786-6.856-2.383-16.005-6.384-21.409-3.798-4.913-13.205.407-17.097 1.942-15.004 8.01-25.424 27.407-24.928 43.094m11.055-97.481c-.307 14.923 11.22 22.983 23.922 22.99 6.188.125 14.14-2.205 17.943-6.63 4.798-7.188.33-13.336-5.065-17.324-8.398-5.791-18.807-7.432-28.735-7.603-5.548-.381-8.564 3.507-8.065 8.567m3.395 192.055c1.312 8.07 10.998 15.022 5.317 25.214-4.051 5.984-4.912 13.812-1.534 20.372 1.964 4.165 4.683 10.237 10.72 10.344 8.402.5 13.212-9.953 15.346-16.289 2.518-7.855 3.552-16.094 4.652-24.235.72-9.707 1.429-19.516.424-29.215-.234-3.894-.993-7.933-4.09-10.526-6.038-.672-11.42 2.985-15.977 6.518-4.414 3.421-9.143 8.067-12.447 11.982-1.14 1.7-2.44 4.12-2.411 5.835M1655 1912h80v-73h-80zm21.5 85c11.355-8.554 24.175-15.118 35.49-23.75 5.973-4.471 12.425-8.274 18.199-13.004 6.779-4.578 4.441-15.188 4.811-22.246h-59c.734 19.56-.9 39.558.5 59m8.527-781.572c.783 14.166 5.663 30.387 11.157 41.941 2.635 5.192 6.789 14.335 14.864 9.952 5.768-3.217 9.655-10.334 12.487-15.384 7.153-11.884 5.57-26.909-3.224-37.403-4.191-6.75-11.26-14.989-21.752-13.326-6.85.79-14.547 4.814-13.532 14.22" style="fill:#000;fill-rule:evenodd;stroke:none"/><path d="M1551 1541.438c.342.41.631.299 1 .062-.32-.203-.644-.43-1-.062" style="fill:#6a6a6a;fill-rule:evenodd;stroke:none"/></svg>