<svg xmlns="http://www.w3.org/2000/svg" width="3000" height="3000"><path d="M1172 1292c-.103-15.88 2.528-37.38 19.5-49 39.415 28.697 65.75 71.186 86.677 114.366 5.48 11.494 11.045 22.935 16.527 34.419 1.47 4.121 4.178 7.907 4.81 12.27-20.362 22.948-46.382 47.48-46.514 80.945-12.57.115-25.43-.877-37.713 2.43-16.388 3.975-32.318 12.509-42.609 26.167-4.858 6.744-7.389 16.12-4.365 24.202 3.682 7.585 14.915 9.235 22.176 9.945 12.077 1.092 24.514-1.077 36.395 2.001 10.653 2.267 21.005 10.99 26.35 19.18 5.056 7.324 6.595 16.1 9.131 24.395 2.33 7.284 8.367 10.87 15.294 9.294 9.494-1.232 15.676-14.115 18.77-20.758 4.104-9.43 6.354-19.594 6.571-29.856 20.425.896 39.565-7.757 57.149-17.217 15.584-9.51 33.195-22.23 45.351-33.783 3.893 13.191 6.049 27.55 13.5 39.5-14.053 5.497-28.14 14.778-34.294 29.309-2.853 7.168-4.824 17.217-1.558 23.904 4.113 6.976 15.167 6.197 21.818 6.287 9.813-.029 20.294-1.07 29.336 3.704 13.044 6.439 18.937 20.828 21.667 34.107 1.95 6.691 4.402 15.588 11.764 17.418 6.821 2.055 14.023-.657 19.133-5.19 20.877-20.497 23.693-59.434 14.134-83.039 4.086-.495 7.587-3.067 11.29-4.674 2.972-1.189 7.365-5.292 10.109-3.042 11.552 8.235 23.83 17.615 39.032 16.702 5.754.234 11.471-.537 16.997-2.113 4.753-.966 9.879-3.878 14.298-4.423 8.307.752 16.008 5.58 24.611 5.272 21.603 2.865 52.319-5.188 59.663-33.722 16.824.369 34.48-5.032 46.602-17.107 6.07-5.57 10.57-12.627 13.335-20.362 2.632-7.36 4.639-17.518-.094-22.933-18.254-19.323-39.32-35.823-60.839-51.345-26.906-19.514-54.674-38.104-84.004-53.753 8.834-5.792 19.32-9.238 27.649-15.985 33.577-23.113 60.002-55.34 80.18-90.44 15.235-27.238 27.388-55.978 37.78-85.378 2.414-9.88 16.043-15.055 24.91-22.094 32.85-23.676 63.548-50.422 90.303-80.787 12.371-14.494 26.165-32.81 32.877-49.09 7.45-16.144 10.107-43.345-10.699-54.226 13.435-1.058 28.024-2.121 38.9-11.443 15.39-12.81 23.461-32.036 31.598-49.768 5.323-13.653 22.555-40.36 6.817-55.654-13.033-10.547-34.102-11.333-48.534-12.815-18.653-1.537-37.42-1.554-56.11-1.82-54.6-.44-109.249.878-163.56 6.711-31.585 3.38-62.997 8.384-93.729 16.447-42.606 11.207-86.705 30.718-111.789 69.008-25.862 39.261-26.175 88.566-41.664 131.567-5.836 17.92-12.832 35.5-21.429 52.267 2.3-38.279-3.709-84.482-16.494-117.491-5.916-15.612-14.236-30.138-24.102-43.529-9.273-12.15-20.296-23.338-26.608-37.476-11.633-28.553-14.763-59.8-19.735-89.962a1545 1545 0 0 0-5.7-40.434c-1.212-6.124-1.999-12.472-4.625-18.208-3.193-7.023-10.578-4.757-15.45-2.484-19.604 10.435-35.814 26.036-53.423 39.297-7.887 5.871-15.435 12.19-23.406 17.945-3.886 2.745-7.698 5.741-12.075 7.694-3.588 1.86-10.308 1.81-10.7-4.413-.57-17.191 10.871-35.245 17.841-48.491 7.618-12.885 16.232-25.181 22.64-38.75 2.938-5.93 6.146-13.168 7.006-19.23.178-6.245 1.607-15.19-3.357-18.699-5.293-3.84-12.302-2.395-18.296-2.015-42.731 4.593-85.17 36.782-109.92 65.601-28.85 31.401-50.899 69.14-64.851 109.382-17.73 52.928-17.585 111.45-.005 164.472 15.992 49.798 44.898 94.453 79.954 132.86 2.569 2.893-.022 4.996-1.561 7.572-6.418 9.114-12.012 19.205-13.95 30.343-2.657 17.577.74 36.528 11.707 50.883 9.677 13.56 24.507 24.432 41.61 25.133m-121 887c5.258.328 10.31 7.863 14.81 6.072 13.347-10.827 24.078-24.425 35.443-37.153 4.207-6.352 10.479-11.305 14.247-17.919l.5 1.688V2502c16.056-.12 32.323.962 48.11-2.524 11.25-2.038 22.091-5.816 32.614-10.173 7.056-2.913 14.953-7.427 20.451-11.766 5.4-4.01 3.437-12.993 3.825-18.633V2191c2.436.412 4.97 1.907 7.988 1.453 6.21-5.364 11.242-12.324 16.532-18.604 16.948-20.206 30.548-42.914 44.98-64.849 5.696 37.126 12.725 74.42 21.029 111.123 3.34 13.633 6.646 27.246 10.887 40.621 2.55 11.176 8.51 23.584 10.27 33.947-11.353 39.503-31.127 76.736-51.549 112.256-10.293 17.287-21.931 33.74-33.986 49.823-6.246 8.09-12.606 16.096-19.316 23.8-3.048 3.637-6.849 7.835-9.346 11.375-.708 5.22 7.004 7.665 7.511 12.055 4.395.02 7.801-3.073 11.162-5.457 50.145-33.847 93.521-76.965 129.338-125.543 9.86 16.48 19.129 33.58 31.05 48.779 5.993 7.74 11.852 15.608 18.374 22.914 3.03 3.988 6.793 7.357 9.988 11.195 2.892 3.646 6.82 8.16 11.088 8.112 3.248-22.589 12.335-48.77 24.106-66.174 12.808-19.817 33.81-32.731 55.394-40.826.235.488.42.968.5 1.5-4.586 5.03-7.696 11.33-12.867 15.873-7.819 8.505-18.065 14.777-24.318 24.928-10.137 14.595-14.15 34.89-4.964 51.239 8.609 16.63 27.557 23.867 45.452 22.354 14.954-1.15 28.707-9.034 37.697-20.939 8.73-11.062 14.122-24.363 17.951-37.817 5.23-18.846 7.485-38.388 7.049-57.909.277-20.293-3.789-40.292-8.418-59.91-2.27-8.361-4.635-16.715-7.297-24.945-1.66-3.397-2.245-10.37-6.254-10.915-4.282-.83-8.713-.241-13.031-.459-.013 17.553-2.954 35.116-8.741 51.692-5.38 13.213-10.144 30.186-21.259 43.058.747-2.795 1.623-7.148-.9-9.564-1.694-1.953-5.245-2.975-7.646-4.853-30.976-17.918-60.195-39.439-85.454-64.833 25.102-52.51 43.106-108.526 56.237-165.198 6.489-28.74 12.017-57.683 16.839-86.752 2.23-15.187 4.82-30.297 6.423-45.557.313-3.524.225-8.352 4.641-9.335 10.387-1.743 21.888-3.169 29.36-11.658 1.426 95.817-.26 192.1.5 288 23.451.018 47.185 1.295 70.234-3.94 10.555-2.384 20.52-6.824 30.082-11.745 6.791-2.453 7.535-8.103 6.684-14.052V2197h178c-.096 9.873-.541 19.778-1.46 29.604-1.72 9.01-.214 20.421-3.04 28.396-19.83-19.22-46.451-29.88-73.344-34.453-7.4-1.338-14.784-2.962-22.301-3.377-6.09-.87-9.76 2.468-13.347 6.462-.485 3.729 4.07 6.032 6.51 8.094 9.03 6.942 17.582 14.63 24.804 23.458 12.862 13.853 23.794 29.43 31.585 46.683 3.642 6.594 3.52 17.365 12.48 20.443 8.15 3.406 17.403 4.999 26.113 2.69-2.367 16.427-5.918 32.777-10.417 48.739-3.382 11.19-7.966 25.043-16.376 32.401-16.325 13.73-35.524 7.168-54.446 7.143-19.615-.569-39.15-2.694-58.761-3.283v15c22.147 4.823 45.228 12.837 61.224 29.74 8.418 8.28 12.177 19.973 13.735 31.33 1.792 12.218 1.991 24.617 2.041 36.93 43.466.008 91.959-9.272 122.65-43.238 14.037-16.416 22.769-36.538 29.234-56.934 6.67-21.812 11.055-44.22 14.59-66.722 4.354-30.375 7.893-60.917 10.067-91.528 2.252-16.035 1.33-32.507 3.697-48.486.125-3.842 7.325-3.041 9.52-4.108 5.545-1.333 10.979-3.31 16.034-5.927 4.507-2.36 10.314-6.2 10.208-11.057-22.867-16.633-43.924-37.017-66.368-54.493-8.462-6.622-16.299-14.065-24.883-20.519-5.052-3.651-8.488 1.334-11.482 4.245-12.536 12.917-25.869 24.99-38.637 37.637-2.235 2.455-4.673 4.653-7.36 6.576-56.663 1.58-113.557-.287-170.27.554v-67h230.4c19.232-.732 38.595.95 57.785-.654 6.253-.78 12.914-2.923 16.8-8.195 1.985-2.381 2.257-4.82 2.53-7.546-5.649-7.86-15.296-13.359-22.147-20.318-23.78-19.034-48.574-36.788-72.368-55.787 6.174-2.917 12.756-5.444 18.71-8.91 7.465-2.814 9.224-8.855 8.29-15.728V1797c9.14-1.011 18.045-3.956 25.555-9.342 2.025-1.39 4.077-2.774 5.725-4.602 5.902-5.752-6-10.697-9.099-14.125-9.338-7.107-18.825-14.039-28.142-21.16-14.405-10.968-28.775-21.998-43.35-32.73-3.727-2.792-7.395-5.615-11.146-8.367-6.637-6.392-12.034.494-15.565 5.358-4.28 5.345-9.768 9.607-13.886 15.095-6.105 6.048-11.903 12.402-17.567 18.848-2.419 2.24-4.521 4.88-7.276 6.724-5.924 2.62-12.149.415-18.452 1.301-18.842-.737-38.074.904-56.797-.5 19.624-15.198 39.346-30.374 58.65-45.988 4.924-3.938 9.826-7.95 14.78-11.835 6.133-5.62 18.251-4.732 26.786-9.45 8.342-4.196 15.194-12.658 15.784-22.227-28.151-4.142-56.049-10.188-84.172-14.546-14.433-2.66-28.913-5.194-43.365-7.68-13.726-2.11-29.728-6.02-42.463-6.774-.492 37.03-3.254 73.978-4 111-16.62-5.997-33.133-12.663-49.736-18.77-8.16-3.18-16.338-6.309-24.553-9.345-7.89-2.603-16.966-7.477-24.711-7.885-.737 19.571.904 39.546-.5 59-13.174-13.223-28.827-23.663-42.894-35.831-7.097-5.97-14.537-11.541-21.68-17.441-7.58-4.98-13.688-12.853-21.926-16.728-13.567 15.8-25.082 33.565-38.277 49.72-3.256 4.233-6.336 8.601-9.617 12.806-2.389 2.945-4.756 6.912-7.603 9-2.158 1.833-6.166 1.308-9.302 1.474H1356v-75.6c.18-6.116-.322-13.38.425-18.937 1.284-3.562 8.564-2.613 11.107-4.501 5.903-1.876 12.015-4.11 16.338-8.765 3.905-4.326 6.086-9.942 7.13-15.588-2.673-2.17-6.43-1.297-9.67-1.792-49.504-2.718-98.782-8.965-148.33-10.817v136h-172c.898 9.604 5.945 18.415 7 28h83c-6.667 66.387-21.158 131.85-37.13 196.527-8.216 31.832-17.383 63.428-27.764 94.62-5.151 15.534-11.317 30.743-17.34 45.95-3.223 7.256-6.139 14.649-9.701 21.734-2.372 6.352-7.46 14.572-8.065 20.169m203-995c.593 8.306-7.776 15.417-13.211 20.372-5.984 5.388-12.794 9.777-18.789 15.128 18.173 14.048 32.955 31.648 45.191 51.042 10.607 18.142 25.506 38.512 32.809 56.458h2c.728-7.784 4.298-15.022 5.666-22.679.652-2.725 1.569-5.384 2.294-8.079.86-2.11.943-5.537 2.814-6.572 7.304-.682 16.266 5.414 24.431 7.545 7.857 2.418 16.556 6.717 23.795 8.785-2.645-19.922-3.196-40.105-6-60 17.308 1.867 33.861 10.316 51 12.5-7.685-20.835-12.446-42.992-19.387-64.146-3.152-9.389-5.487-19.023-8.481-28.453-1.334-4.196-1.933-9.108-5.43-12.205-27.133-19.613-53.889-39.782-81.731-58.384-10.03-7-20.962-12.54-32.352-16.86-21.018-7.511-48.91-5.76-66.934 4.233-14.721 7.462-26.441 20.135-33.083 35.158-8.983 20.182-7.95 53.686 18.133 64.983 24.729 10.316 51.85 1.14 77.265 1.174m-97 616.375c43.044 10.677 88.144 17.735 131 29.125-2.57 16.677-20.947 22.513-34 22.5-10.88 36.19-24.291 72.112-40 106.5 5.632 2.559 11.684 4.275 17.454 6.526 5.703 1.771 12.126 5.075 17.546 5.974.85 12.658-18.696 19.493-28 20 .76 56.929-.926 114.151.5 171 27.869-79.972 43.998-163.729 57.206-247.196 3.246-20.596 5.728-41.298 8.413-61.955 2.135-15.762 3.45-31.626 4.96-47.45.365-7.022 12.256-2.284 16.131-2.066 39.93 7.256 79.86 14.442 119.79 21.667-.302 10.69-8.534 19.38-18.493 22.311-3.632 1.535-7.538 2.075-11.33 2.988-3.461.124-4.02 6.004-5.062 8.271-6.703 22.361-12.317 45.304-21.115 66.93 5.148 1.136 10.586.039 15.801.476 7.077.243 11.822-7.834 16.152-12.3 4.606-5.07 9.808-9.589 14.389-14.683 4.368-5.38 9.314-10.25 14.26-15.095 4.874-3.125 7.23-11.289 12.827-11.401 8.533 4.68 15.42 13.379 23.548 18.976 22.643 19.742 46.005 38.671 68.523 58.527 1.426-50.165-.26-100.753.5-151-15.704 1.87-31.627.464-47.394 1-111.12.57-222.586-.695-333.606.375m51.11-649.158c-.426 9.202 7.383 16.947 16.251 16.686 10.234.559 20.163-8.35 23.753-16.37 5.472-10.862 3.033-28.738-10.003-30.342-7.963-.772-15.869 5.69-20.28 10.785-4.505 5.504-9.653 11.43-9.72 19.24M1433 1438c.024 13.756 1.564 27.519 3.877 41.054 2.949 18.476 7.346 39.725 23.197 51.788 18.783 10.791 40.101-1.773 51.723-14.256 19.771-21.604 29.623-50.364 33.343-78.927 1.243-13.787 1.271-30.228-.664-42.786-1.028-6.598-2.2-13.211-4.518-19.496-1.514-5.854-5.588-13.329-5.958-18.377 57.507-14.418 103.627-57.998 131.92-108.627 10.838-19.053 19.856-39.116 28.101-59.42 3.493-9.34 7.018-18.671 10.192-28.122 1.818-3.902 2.483-10.444 5.705-12.13 29.65-17.34 56.75-38.935 81.722-62.422 19.207-17.712 37.78-36.756 52.476-58.452 4.528-7.233 11.128-18.732 4.28-27.726-5.812-6.676-15.212-8.335-23.113-11.504-5.93-2.099-14.692-4.33-17.212-12.465-4.43-14.902 5.007-26.563 18.01-30.263 9.65-3.28 19.506-5.84 29.687-6.758 14.369-1.925 32.541-1.519 41.207-13.83 7.043-12.661 13.489-25.929 19.025-39.281-29.178-3.884-58.834-.752-88.132-1.087-49.821 1.42-99.654 3.673-149.204 9.273-35.455 4.406-71.206 9.846-105.042 21.726-25.075 7.763-48.947 22.053-63.172 44.62-10.418 16.868-15.832 36.117-20.4 55.24-6.822 29.138-12.027 58.881-23.256 86.777-4.79 13.188-10.563 26.001-17.817 38.003-6.925 12.212-15.948 23.59-27.977 30.948a8347 8347 0 0 1 16.799 60.681c2.842 10.307 5.948 20.552 8.497 30.925 2.307 10.004 6.85 21.485 7.704 30.894-20.928-2.629-41.078-10.27-62-13 2.646 22.913 3.56 46.06 6 69-9.66-1.676-18.751-5.864-28.142-8.551-9.33-3.403-19.337-5.267-28.358-9.449-3.155 12.99-4.406 26.551-7.3 39.639-.773 5.682-2.988 12.732-.853 17.882 2.077 4.693 5.038 8.928 7.198 13.564 1.257 2.15 2.126 4.43 2.79 6.795.642 4.362-7.54 7.293-9.31 10.288-12.99 11-28.093 24.8-36.116 38.422-8.065 10.663-11.657 24.333-7.682 37.26 2.467 11.622 11.06 18.166 21.933 17.133 30.556-1.822 56.366-21.344 79.837-38.776 6.826-6.06 13.977-11.786 20.478-18.182l10.127-10.127c2.94-2.816 6.795-7.572 10.398-7.898m-70.5 763c7.575-27.69 13.788-56.695 18-85-9.268 1.486-19.227 1.823-27.931-2.254-5.903-2.808-12.75-6.826-16.602-11.542-3.058-3.781-1.48-10.634-2.072-15.948-1.042-15.27-2.962-30.84-8.395-45.256-2.549 7.065-6.583 13.535-9.677 20.366-2.275 6.165-6.9 11.816-8.44 17.477 1.011 11.5 7.084 22.024 10.159 33.005 11.528 31.187 26.406 61.545 44.958 89.152m-19.5-198.375c17.26 7.631 36.936 13.133 50.5 27.375 3.685-25.04 4.8-50.783 7.5-76h-39c-5.474 16.256-12.655 32.95-19 48.625M1600 2263c2.82 26.304 6.334 52.675 6 79.22.396 19.909-.946 39.789-4.356 59.413-1.746 8.073 3.947 13.906 9.188 17.828 20.664 18.76 49.681 5.087 59.103-17.48 9.896-23.534 7.179-50.699-2.787-73.617-10.123-25.049-31.33-50.024-50.052-65.855-4.598-3.935-11.705.484-17.096.491m45-400h133v-81h-133zm0 115h133v-87h-133zm0 96h118.8c9.622-.519 21.059.675 29.828-.47 5.113-2.711 8.828-10.267 13.085-14.162 6.03-7.531 11.982-15.12 18.096-22.57 5.318-7.485 12.939-14.54 16.691-21.798-19.856 8.838-42.274 8.401-63.5 8v-17h-133zm9 173c18.593 33.593 39.366 70.226 38 110.488-1.724 11.365 8.974 16.699 17.379 20.029 14.307 5.661 31.859.474 40.71-12.122 9.708-11.638 10.294-28.045 7.829-42.24-4.653-19.957-17.885-37.073-33.33-49.962-14.952-12.559-35.788-22.7-52.286-29.258-7.829-3.999-12.11 1.316-18.302 3.065" style="fill:#fff;fill-rule:evenodd;stroke:none"/><path d="M449 2668h2102c-110.242-665.144-221.837-1330.12-332.532-1995.186-3.476-20.835-6.96-41.682-10.42-62.51-1.682-10.253-3.434-20.498-5.126-30.74-1.284-4.301-.763-13.077-5.037-14.575-157.034-52.902-314.464-104.735-471.586-157.384-59.003-19.668-117.989-39.359-177-59-12.991-4.38-26.002-8.647-38.997-13.002-3.112-1.025-6.191-2.224-9.42-2.795-5.85.042-13.257 4.126-19.018 5.393-97.504 32.546-195.061 65-292.567 97.54-73.178 24.36-146.325 48.77-219.478 73.159-54.841 18.294-109.718 36.516-164.531 54.86-6.415 1.276-7.163 6.488-7.57 12-26.516 158.994-52.99 317.976-79.524 476.964A2145928 2145928 0 0 0 449 2668m689-1488.668c-2.181 5.51-6.82 9.739-9.516 15-11.087 18.139-13.008 41.737-3.31 61.005 8.402 18.223 25.685 33.114 45.826 35.663-.18-11.294 1.206-22.865 6.17-33.144 2.069-4.111 4.889-7.812 7.881-11.284 1.44-1.265 2.916-3.294 5.097-4.084 3.722-.202 7.16 4.048 10.728 6.14 24.225 19.217 42.514 44.62 58.873 70.812 15.84 27.475 28.855 56.476 42.251 85.14-11.283 10.866-23.335 24.812-31.893 36.358-9.906 12.987-16.108 28.617-16.107 45.062-12.57.115-25.43-.877-37.713 2.43-16.388 3.975-32.318 12.509-42.609 26.167-3.973 5.715-8.077 15.274-3.718 23.328 4.626 7.144 15.75 8.26 23.234 8.95 11.899.674 24.09-1.052 35.731 2.132 10.26 2.418 20.117 11.035 25.309 18.918 4.807 7.055 6.512 15.404 8.791 23.431 1.905 5.957 6.816 12.331 15.1 9.954 8.804-2.151 14.462-14.509 17.52-20.96A78.7 78.7 0 0 0 1302 1551c20.74.871 40.244-7.995 58.034-17.73 16.85-9.477 31.42-22.361 46.466-34.27 1.977 7.497 3.013 15.414 5.9 22.698 1.448 7.226 6.483 14.28 7.6 20.302-11.695 2.922-21.371 10.929-29.046 19.842-6.56 8.692-11.79 24.246-5.623 32.506 5.411 5.629 15.572 4.47 22.42 4.652 8.155.022 16.63-.716 24.408 2.305 10.952 4.22 18.28 14.543 21.987 25.215 3.106 8.242 3.236 18.45 9.975 24.986 11.56 10.957 27.091-5.903 31.1-14.99 6.303-11.47 10.072-26.729 9.779-38.741.1-5.816.153-11.674-1.2-17.362-.647-4.81-3.44-9.998-3.8-14.413 8.06-.906 14.003-7.767 21.536-10 9.146 8.363 22.09 16.842 33.588 18.485 10.697 1.58 21.629-.58 31.509-4.733 6.829-3.993 14.691.58 20.541 2.056 21.29 5.662 48.066 1.313 61.974-17.375 3.105-4.16 5.683-9.838 6.852-14.433 16.663.351 34.11-4.905 46.231-16.745 5.964-5.395 10.415-12.171 13.299-19.652 3.06-7.344 5.119-17.635-.36-22.79-17.931-18.69-38.352-34.825-59.324-49.96-27.87-20.017-56.377-39.519-86.846-55.353 8.944-5.84 19.517-9.234 28.043-15.887 34.006-23.015 60.8-55.34 81.25-90.613 15.402-27.377 27.726-56.283 38.173-85.892 2.299-9.982 15.634-15.361 24.69-22.26 33.232-23.97 64.382-50.968 91.355-81.808 12.339-14.717 26.271-33.161 32.758-49.716 7.569-16.89 9.171-42.897-15.269-52.824l1.438-.5c11.219.365 22.835-.447 33.024-5.769 14.242-6.596 23.346-20.384 29.908-33.971 6.608-14.296 14.229-28.213 19.703-43 3.434-8.73 5.916-19.102.55-27.709-7.975-12.056-27.371-13.413-37.94-15.486-15.19-2.07-30.515-2.356-45.813-2.746-42.665-1.243-85.371.056-127.983 1.775-56.522 3.87-113.645 9.123-168.08 25.845-25.137 8.561-50.42 18.614-70.647 36.486-20.527 17.692-35.215 41.321-42.547 67.426-8.036 25.163-12.675 51.202-19.019 76.792-6.717 24.708-16.471 48.597-28.094 71.357 1.967-41.008-2.992-90.63-18.191-125.708-6.744-16.06-15.615-31.271-26.652-44.753-10.621-12.312-20.964-25.237-25.952-40.999-10.829-31.154-13.074-64.412-18.235-96.708-2.38-13.87-3.072-28.29-7.679-41.688-2.847-7.993-10.012-6.408-15.354-3-21.35 11.613-38.583 29.328-58.262 43.298-8.328 6.406-18.008 14.157-26.188 19.252-3.59 2.217-9.628 4.721-13.789 1.335-3.914-3.148-1.47-11.403-1.329-15.41 4.047-18.638 14.652-34.884 24.358-50.905 8.193-14.122 17.98-27.98 22.08-44.062 1.215-7.265 1.894-16.553-4.945-20.206-7.286-2.145-16.36-.483-23.069.606-25.093 4.814-47.836 18.085-68.001 33.214-58.435 47.324-100.242 117.323-109.682 192.464-10.257 91.065 31.804 181.611 94.39 245.602m-86 997.418c3.058 4.42 9.07 4.049 12.5 8.25 18.836-17.967 35.939-37.551 52-58 1.426 124.512-.26 249.402.5 374 15.78.111 31.73.8 47.209-2.737 11.036-2.102 21.655-5.864 32.002-10.156 6.872-2.91 14.591-7.333 19.964-11.57 5.284-3.862 3.529-12.548 3.825-18.033V2189c2.491.551 5.546 2.264 8.5 3 23.478-26.488 43.736-55.749 62-86 3.078 8.291 2.487 17.86 4.903 26.419 6.276 33.83 12.224 67.787 20.734 101.14 3.249 12.627 6.86 25.162 10.757 37.598 2.941 10.319 9.603 22.378 5.368 31.173-13 35.56-28.668 70.131-48.27 102.563-17.837 32.138-41.803 60.51-64.992 88.607 2.498 2.93 7.147 6.3 8 9.5 54.927-33.623 101.732-81.203 139.5-133 9.655 16.629 18.958 33.787 30.818 49.077 5.908 7.813 11.759 15.707 18.238 23.053 3.126 3.936 6.528 7.594 10.04 11.176 3.01 3.142 6.643 8.771 10.404 9.694 3.226-22.758 12.462-49.033 24.34-66.54 12.606-19.31 36.532-34.825 56.66-40.46.451-4.036 1.972-9.198-3.27-11.58-3.569-2.057-7.12-4.188-10.671-6.257-15.875-9.08-30.528-20.18-45.32-30.849-6.426-5.011-12.59-10.382-18.774-15.676-2.999-2.434-5.947-4.899-8.567-7.74-2.016-2.634-6.943-5.783-6.898-8.89 23.727-54.045 43.991-109.806 56.2-167.714 6.448-29.065 12.191-58.293 16.851-87.707 1.974-15.195 4.865-30.277 6.229-45.546-.176-8.217 12.53-7.253 17.854-8.982 7.108-1.552 13.15-5.64 17.866-11.059 1.426 96.493-.26 193.416.5 290 23.287.223 46.84 1.187 69.68-4.248 10.338-2.659 20.174-6.906 29.55-11.925 6.299-2.741 6.233-8.615 5.77-14.163V2196h181c-3.4 20.771-1.294 42.296-5.5 63-11.385-15.36-33.365-24.91-49.163-30.738-10.144-3.507-20.621-5.998-31.23-7.576-9.573-2.204-21.233-5.371-29.107 3.814 8.578 9.173 20.606 15.514 28.476 25.677 12.017 13.948 24.362 28.022 32.102 44.966 2.312 4.384 4.459 8.834 5.838 13.597 2.74 15.29 23.196 17.684 35.584 15.26-1.42 16.501-6.52 35.505-10.229 50.171-3.445 11.209-7.826 25.177-16.208 32.651-16.344 14.122-35.905 7.6-55.02 7.545-19.548-.802-39.011-2.415-58.543-3.367v13c22.147 4.823 45.228 12.837 61.224 29.74 8.418 8.28 12.177 19.973 13.735 31.33 1.792 12.218 1.991 24.617 2.041 36.93 42.486-.433 89.714-9.464 119.928-42.466 14.152-16.085 22.963-36.058 29.474-56.245 6.742-21.436 11.187-43.494 14.66-65.656 4.435-30.473 8.152-61.07 10.26-91.796 2.04-16.166 1.947-32.509 3.414-48.71.23-4.848 3.95-5.639 7.946-5.76 9.98-2.452 24.23-6.865 28.318-15.367-32.671-23.427-61.69-53.616-94.5-77-12.95 13.745-26.894 26.431-40.475 39.475-5.02 4.808-9.69 11.792-17.308 11.522-55.587.008-111.14-.001-166.717.003v-69h240c13.407-.053 26.842.064 40.247-.035 10.193-.01 24.658-2.264 27.753-15.301-30.263-27.488-64.312-50.431-96-76.164 6.837-4.86 15.705-6.32 22.438-11.507 8.022-4.481 4.868-15.218 5.562-22.517V1796c12.714-1.626 25.199-6.855 34-16.5-32.657-25.752-66.498-50.214-99.5-75.5-16.181 15.396-31.803 36.909-47.661 50.003-6 1.898-12.985.428-19.24.997H1692.5l-1.5-.5c20.378-14.802 39.885-31.126 59.817-46.569 5-3.91 9.917-7.92 14.863-11.885 7.183-6.908 17.601-6.321 26.47-9.932 9.068-3.442 15.692-11.851 17.85-21.114-56.22-8.208-111.798-20.827-168-29-.492 37.03-3.254 73.978-4 111-33.715-9.265-65.287-26.617-99-36-.737 19.937.903 40.143-.5 60-28.508-24.155-58.287-47.039-87-71-12.87 16.834-25.62 33.832-38.499 50.666a1487 1487 0 0 1-9.64 12.851c-2.238 3.236-4.627 6.43-7.834 8.74-13.264 1.967-27.135-.233-40.527.743v-75.6c.213-6.378-.277-12.792.194-19.147.155-4.686 6.453-4.661 9.914-5.843 5.942-1.829 11.976-3.97 16.686-8.149 5.257-4.153 5.523-9.71 8.206-14.761-.458-.45-.911-.96-1.25-1.5-51.687-1.818-103.074-9.08-154.75-11v136h-172c2.027 8.445 5.732 18.111 7 26h441.6c9.183-.725 20.633 1.344 27.9-2 1.426 51.544-.26 103.4.5 155h-1.5c-30.665-26.532-61.75-53.325-93-79-11.069 11.041-21.034 23.062-32.102 34.102-5.756 5.173-11.319 12.345-16.38 17.27-5.854 4.62-16.83 1.511-25.018 2.628 5.268-19.917 13.539-39.091 18.307-59.216 1.37-4.968 2.639-10.017 4.32-14.879 1.115-3.922 6.126-4.184 9.595-4.97 11.353-2.191 22.02-9.82 23.778-21.935-44.157-7.918-88.356-15.964-132.5-24-15.153 123.195-31.884 249.15-74 367-1.426-59.585.26-119.376-.5-179 11.117-.637 26.408-7.59 28-18-12.062-2.522-22.942-9.38-35-12 13.358-36.105 30.357-71.513 40-109 14.213.7 29.117-6.622 34-20.5-.458-.45-.911-.96-1.25-1.5-44.82-7.815-88.95-20.045-133.75-28-6.65 65.87-20.927 130.855-36.774 195.035-8.02 31.697-17.23 63.081-27.437 94.128-10.04 29.42-21.857 58.985-35.789 86.587M1253 1185c-.456 7.933-9.376 14.424-14.465 19.353-6.529 4.976-12.753 10.581-19.535 15.147 19.72 13.598 34.629 32.665 47.519 52.583 12.82 18.911 23.756 39.09 34.981 58.917 5.041-13.169 6.466-28.049 12-41 16.287 4.902 32.008 12.347 48 18 1.07-9.46-1.977-21.027-2.086-29.744-.473-5.17-1.01-10.319-1.562-15.465-.974-5.033.055-11.33-1.852-15.291 17.19 1.607 33.715 10.566 51 12.5-7.466-26.95-15.792-53.811-23.636-80.68-1.415-5.204-2.972-10.355-4.556-15.495-1.946-10.776-9.676-15.17-17.677-20.369-26.256-18.53-51.54-38.642-79.073-55.293-27.698-17.658-66.044-21.61-95.075-4.441-14.056 8.417-25.17 21.361-30.897 36.744-7.129 20.466-5.816 52.745 20.096 63.544 24.621 9.83 51.579 1.556 76.818.99m-43.795-33.579c-.008 8.88 8.196 16.172 16.811 15.383 9.674-1.033 17.716-8.735 21.562-17.265 5.12-10.428.61-28.074-12.146-27.256-11.05 2.076-23.896 16.101-26.227 29.138M1431.5 1439c1.375 16.633 2.412 33.59 5.838 50.04 2.774 12.137 5.857 24.79 13.484 34.964 12.722 16.713 33.902 13.64 49.647 3.975 14.413-9.322 25.919-26.63 32.215-40.731 12.469-27.764 17.008-59.03 13.435-89.234-1.27-13.955-5.981-27.142-11.119-40.014 57.68-14.453 103.867-58.238 132.151-109.049 10.824-19.065 19.827-39.128 28.041-59.45 3.5-9.37 7.044-18.715 10.207-28.205 1.535-4.183 2.658-10.078 5.87-11.845 30.175-17.303 57.058-39.75 82.605-63.148 18.921-18.282 37.85-37.137 52.37-59.22 4.166-7.346 9.678-18.002 3.856-27.062-5.415-7.265-14.919-9.102-22.943-12.128-5.96-2.266-14.988-4.113-17.927-12.235-4.988-14.858 6.652-26.09 19.936-29.425 9.755-3.152 19.65-5.724 29.927-6.377 14.474-.848 33.39-3.048 39.952-15.225 6.576-13.035 13.64-26.047 18.955-39.631-35.215-3.787-70.881-.698-106.2-.678-59.268 2.014-118.667 5.175-177.223 15.086-20.807 4.283-41.994 7.955-61.955 15.504-17.117 5.547-36.04 15.67-48.468 26.52-23.184 22.728-31.86 54.972-37.98 85.776-10.458 46.177-21.31 95.03-52.546 132.453-3.552 4.365-8.461 7.195-12.767 10.655-1.164 5.224 2.035 10.118 2.888 15.295 9.338 35.897 20.293 71.42 29.251 107.389-20.382-4.803-41.261-8.824-61.5-14 .017 23.096 4.713 46.881 5 70-18.777-5.83-37.414-13.173-56.5-18-1.886 14.293-5.152 28.401-7.292 42.664-1.484 6.745-3.07 13.514.842 19.404 3.601 5.558 6.082 11.788 9.45 17.432-20.473 18.429-45.335 36.17-54.196 63.836-3.734 12.935.277 31.702 11.7 38.225 13.894 4.785 30.97-1.628 42.73-6.056 21.498-9.145 40.408-23.467 58.125-38.408 10.46-9.278 20.36-19.106 30.141-29.097m-69 765c.45-.458.96-.911 1.5-1.25 5.43-29.463 15.383-58.764 17.5-88.75-8.427 3.749-20.483 1.872-27.928-1.251-6.01-2.898-13.12-6.994-16.9-11.953-3.039-3.943-.807-11.297-1.834-16.676-1.448-14.902-3.183-33.647-9.338-46.12-5.774 12.836-12.163 25.596-18.879 37.99-1.9 4.359.92 10.173 2.275 15.18 11.128 35.198 26.862 68.747 45.771 100.38 2.358 4.34 5.316 8.263 7.833 12.45m-21.5-200.375c18.31 7.003 38.463 13.716 52.5 28.375.478-.481.96-.928 1.5-1.336 2.12-25.903 5.582-51.693 7-77.664h-41c-5.98 16.861-12.968 34.388-20 50.625M1549 2261c-.271 40.21-15.9 79.554-40.586 110.916-9.567 10.718-22.355 18.695-29.607 31.621-3.07 5.547-5.979 11.258-7.26 17.507-2.153 12.22.793 25.427 8.77 35.03 13.549 17.216 40.349 19.64 58.845 10.106 14.003-7.604 23.862-21.352 29.744-35.837 19.872-47.587 15.033-101.589.031-149.576a272 272 0 0 0-4.975-15.115c-2.322-6.332-10.082-4.341-14.962-4.652m64.5 0c-3.155 1.719-8.353 1.957-12.5 3 3.704 26.712 6.099 53.736 6 80.73.949 20.538-1.97 40.818-4.536 61.088-.044 3.654 2.943 6.067 5.15 8.854 9.06 10.25 23.436 15.491 36.646 10.329 19.941-7.158 30.091-29.213 30.652-49.117 1.22-20.591-4.53-40.966-14.52-58.924-11.202-19.776-28.715-40.64-44.776-53.94a53 53 0 0 1-2.116-2.02m30.5-397h135v-83h-135zm0 115h135v-89h-135zm0 96h138c4.484.067 9.024.123 13.43-.57 9.634-9.185 16.712-20.857 25.593-30.73 6.768-9.682 16.855-18.853 23.977-30.7-10.522 3.22-21.092 6.705-32.094 8.009-11.243 1.52-22.61.792-33.906.991v-17h-135zm11 173.375c15.175 20.877 25.641 45.076 32.873 69.765 3.041 10.557 5.03 21.476 5.106 32.477.01 4.813-.108 9.678.463 14.449 10.083 12.547 29.685 17.733 44.006 9.558 23.306-13.558 24.841-41.987 14.79-64.127-9.652-21.732-27.803-38.369-48.231-49.788-7.369-4.643-15.155-8.462-23.186-11.783-4.265-1.969-9.404-4.066-13.535-5.266-3.813-.552-7.774 3.394-11.304 4.126a6 6 0 0 0-.982.214z" style="fill:#000;fill-rule:evenodd;stroke:none"/></svg>