<svg xmlns="http://www.w3.org/2000/svg" width="3000" height="3000"><path d="M364 2760.5v1.5h2272v-1.5c-68.931-409.09-136.257-818.54-204.874-1227.691-51.076-306.848-102.33-613.661-153.4-920.497-4.868-28.824-9.564-57.688-14.431-86.508-1.116-7.008-2.365-13.985-3.488-20.978-1.2-6.774-.246-15.245-9.425-16.859-109.868-36.632-219.702-73.24-329.563-109.867-95.996-32.013-192.02-63.992-288-96-41.993-13.978-83.98-28.011-125.966-41.994-5.663-2.605-10.407-1.693-15.513.621-156.173 52.06-312.354 104.114-468.521 156.173-58.68 19.531-117.334 39.097-175.992 58.657-25.668 8.506-51.298 17.139-76.962 25.643-6.176 2.075-12.369 4.11-18.537 6.195-3.02 1.124-6.483 1.813-8.8 4.255-62.934 375.423-125.132 751.075-187.889 1126.544C490.857 1998.664 428.048 2380.37 364 2760.5M1070 1254c10.906 61.179 30.694 120.987 61.17 175.274 43.557 78.04 111.084 143.272 194.04 178.185 89.26 38.06 190.974 43.93 285.003 21.723 84.898-20.109 161.98-69.37 216.29-137.547 55.43-67.997 87.999-151.98 103.497-237.635 29.112 4.573 58.772-6.783 79.476-26.984 19.726-19.718 32.304-45.507 40.915-71.703 25.016-78.106 30.409-160.962 34.197-242.26.901-21.726.756-43.479 1.331-65.2 1.068-29.793-13.413-58.193-34.289-78.723-19.784-20.516-43.267-37.377-68.925-49.786-40.832-21.625-86.624-32.323-132.337-36.198-34.227.021-71.922-2.594-102.993 15.575-5.087 2.83-10.52 7.154-14.165 11.058-4.364 6.472-10.629 3.452-15.179.732-83.277-37.791-177.465-47.396-267.873-40.822-39.55 2.856-78.997 9.658-116.98 21.092-15.964 5.137-31.738 10.87-47.06 17.694-6.42 3.33-14.433 8.997-20.324.418-10.455-10.497-24.074-16.977-38.386-20.29-57.607-13.002-118.324-4.104-173.542 14.87-39.3 14.753-77.29 35.36-106.236 66.397-11.115 11.031-19.944 24.375-26.356 38.611-11.568 28.312-5.715 59.72-6.274 89.32.872 44.56 3.924 89.048 8.932 133.313 5.51 42.911 12.41 86.02 26.626 127.04 9.116 25.69 21.48 51.35 41.574 70.392 20.53 19.375 49.558 29.802 77.868 25.454m-19 554.625c39.08 32.985 70.851 78.581 76.397 130.602 4.126 99.001-15.082 198.871.218 297.548 9.839 67.081 37.643 132.169 82.522 183.419 33.062 37.066 74.893 68.175 123.313 81.902 19.669 5.531 40.816 6.966 60.688 1.681 15.504-4.864 30.754-13.713 39.556-27.842 8.965-13.348 9.307-29.7 8.184-45.027-1.165-13.204-8.09-25.016-11.606-37.605-11.927-46.468-3.233-94.951 4.623-141.193 4.131-22.412 9.581-44.523 14.554-66.751a1243 1243 0 0 1 8.71-34.032c.458-4.967 3.953-10.8 2.807-16.182-4.214-3.093-9.43-4.942-14.193-7.145-6.07 7.55-10.457 18.508-15.261 25.96-18.312 32.746-37.556 64.966-58.07 96.36-9.23 13.752-18.632 27.378-28.132 40.936-8.756 11.662-16.78 27.347-36.802 26.57-15.67.041-30.161-7.514-40.378-19.196-20.247-19.337-34.11-45.188-40.296-72.406-5.323-26.121-3.811-53.042-1.67-79.413 4.15-44.056 18.005-86.645 36.303-126.677 6.434-14.481 13.175-28.87 18.853-43.664 4.934-13.76 6.952-28.886 3.832-43.243-5.16-24.199-21.044-43.717-37.08-61.608-24.644-25.754-54.209-46.845-87.11-60.636-18.095-7.225-37.424-10.96-56.885-11.59-10.176-.594-20.387-.323-30.564-.393-5.067.025-10.167-.152-15.19.636-1.926.422-4.655.487-5.21 3.248-.72 2.057-1.314 4.09-2.113 5.741M1863 1196c-2.107 34.756-22.495 65.488-47.112 88.584-22.775 20.316-51.14 33.665-80.535 41.025-27 6.78-56.027 6.183-82.154-3.76-43.253-16.81-71.901-59.034-82.43-102.805-8.854-35.944-10.466-73.512-6.364-110.234 3.26-25.964 10.09-52.007 24.049-74.448 9.941-16.584 23.456-30.784 40.11-40.722 25.504-15.472 60.771-22.62 87.859-22.64 15.217-.807 30.69.313 44.496 7.494 6.502 3.048 12.651 6.872 18.364 11.216 6.011 3.348 10.728 11.274 16.717 12.29-.492-10.734-4.168-21.059-5.835-31.61-8.323-39.937-13.064-80.542-20.894-120.55-6.985-28.056-12.51-57.383-26.207-83.194-34.991-24.28-78.038-39.276-119.621-48.858-44.794-9.099-90.879-13.815-136.637-12.242-42.18.994-84.543 4.853-125.417 15.896-28.986 7.74-57.438 18.107-83.815 32.527-8.997 5.327-20.265 9.383-24.406 19.804-15.42 37.586-23.518 77.62-29.865 117.58-6.458 41.335-13.136 82.683-23.229 123.304-11.402 49.535-26.201 98.615-47.368 144.924-8.304 16.66-16.147 33.723-27.393 48.689-4.75 6.737-9.629 13.444-15.42 19.331-6.785 4.796-4.984 14.65-3.11 21.693 9.76 58.275 29.524 114.863 58.652 166.256 28.002 49.813 67.547 92.883 114.497 125.338 82.27 56.828 187.08 73.205 284.765 59.363 48.11-7.006 95.308-22.366 137.052-47.597 40.512-24.167 75.65-56.822 104.319-94.111 28.614-38.725 51.278-81.978 66.49-127.718a569 569 0 0 0 19.319-74.043c1.049-6.86 3.125-13.61 2.987-20.61.265-4.535-4.24-7.933-7-10.963-4.473-5.03-8.628-10.359-12.546-15.825-4.013-4.405-6.63-13.037-12.318-13.384m-614.993-16.67c-1.322 34.052 27.622 84.01 72.07 70.46 28.59-10.197 44.241-42.995 42.923-71.749.814-29.128-16.962-61.006-45.834-70.008-18.543-4.466-39.124 2.923-50.303 18.553-12.42 14.331-18.785 33.627-18.856 52.744M1334 1398.583c22.23 27.258 58.778 40.824 93.13 42.14l3.87.277c.512 27.736 3.972 62.53 19.88 83.705 18.293 23.301 54.13 27.005 79.95 15.218 16.677-8.225 26.618-25.096 31.076-42.563 4.82-18.384 6.613-37.424 7.094-56.36 35.544-1.285 74.027-13.595 97-42.5-3.98-4.454-8.636-8.19-13.098-12.115-4.83-3.68-8.73-10.173-13.402-12.385-17.506 20.23-43.9 30.746-70.465 29-13.495.012-28.593-2.455-38.736-12.27-9.115-9.003-12.18-24.545-12.299-35.73 16.187-3.255 30.282-12.7 41.194-24.754 11.607-11.668 16.077-31.1 5.968-45.165-15.417-19.656-42.071-25.656-65.988-25.081-14.15-.218-28.62 1.689-41.588 7.738-12.303 5.4-24.447 14.568-27.64 28.444-3.5 14.717 5.001 29.198 15.424 38.688 9.797 10.23 22.944 16.946 36.63 20.13-.228 13.4-3.783 28.2-14.178 37.477-15.863 12.565-41.597 11.911-58.701 9.038-9.783-1.666-19.216-5.046-27.644-10.303-4.041-2.44-7.9-5.23-11.61-8.12-3.838-2.553-6.697-7.654-10.367-9.092-8.217 8.244-16.451 16.738-25.5 24zm269-219.282c-1.203 29.092 7.71 58.956 28.171 79.98 10.064 9.524 20.991 18.598 34.396 23.052 13.57 5.161 31.048 5.977 44.185 3.84 23.109-4.408 43.23-19.285 56.826-38.088 14.123-19.96 19.687-44.795 19.422-68.947.418-23.948-5.627-48.39-19.368-68.152-13.782-18.854-34.144-34.243-57.589-38.205-14.986-1.897-30.714-1.377-44.86 4.216-19.207 8.63-35.997 22.85-46.879 41.01-11.134 18.261-14.81 40.035-14.304 61.294m0 725.699c43.486 19.484 81.018 51.79 108.649 90.461 24.616 34.472 42.694 73.364 52.6 114.568 10.969 38.299 16.093 77.737 18.29 117.409.446 16.968 3.11 33.604 8.28 49.775 7.916 30.428 41.15 48.098 71.328 43.101 13.64-.995 27.186-5.18 38.305-13.298 20.341-15.28 29.8-40.947 33.656-65.2 13.107-87.22-13.227-184.234-77.583-245.79-31.135-28.682-65.481-54.465-103.859-72.7-40.426-21.41-86.782-28.595-131.932-30.278-5.26-.088-10.487-.024-15.734-.048-.802 3.854-1.926 8.392-2 12m34-725.599c-2.564 34.153 26.97 83.098 70.836 70.75 29.123-9.69 44.275-42.472 44.142-71.109-.22-28.576-15.664-61.056-44.737-70.47-43.348-11.458-72.772 36.721-70.241 70.83" style="fill:#dcf;fill-rule:evenodd;stroke:none"/><path d="M1069 1255c20.175 119.345 78.592 236.002 177.674 308.987 103.051 75.75 240.378 95.856 363.452 66.483 85.034-20.109 162.632-69.04 217.062-137.443 55.6-68.084 88.31-152.186 103.812-238.027 25.721 3.983 53.035-4.726 72.776-21.16 19.464-15.564 31.905-38.104 41.33-60.658 14.752-36.315 22.038-75.192 28.18-113.7 8.694-58.717 12.269-118.086 13.085-177.382-.283-15.617 1.226-31.264.152-46.85-4.005-42.578-37.326-75.157-70.411-98.125-36.16-23.912-77.227-40.064-119.58-48.935-34.689-6.328-70.494-8.767-105.595-4.236-12.44 1.67-24.843 4.4-36.427 9.334-9.562 4.063-17.792 10.408-24.772 17.98-3.258 3.482-9.528-1.673-12.59-2.702-65.22-29.207-137.424-41.58-208.615-41.566-78.196-.818-158.477 9.907-229.844 43.634-7.953 4.465-11.42-2.427-16.575-6.972-21.025-17.348-54.358-21.05-78.21-21.66-50.105-1.952-100.726 7.13-146.922 26.792-32.68 13.555-63.7 32.76-88.457 58.181-19.526 18.334-32.741 43.436-35.414 70.082.042 85.087 3.695 170.629 18.9 254.512 7.929 38.525 17.323 77.97 38.146 111.893 10.079 16.22 23.462 31.167 40.41 40.431 16.937 9.548 40.806 13.968 58.433 11.107m395 879.5c-5.633-2.37-12.612-6.488-19-8.5-20.25 39.339-43.707 77.314-67.031 114.931-11.41 17.352-23.075 34.554-35.194 51.417-5.99 8.102-11.464 17.771-21.443 21.686-21.243 8.814-39.953-3.84-54.065-18.267-30.028-28.49-42.809-70.546-41.986-110.881.91-19.661.895-39.43 4.724-58.844 5.763-36.114 18.278-70.832 33.077-104.08 11.712-27.555 33.564-60.93 20.749-97.983-9.548-28.914-35.502-55.325-55.745-73.326-21.656-18.431-46.275-33.797-73.151-43.262-29.013-10.47-60.256-9.658-90.563-9.349-3.589-.126-7.059.622-10.502 1.37-2.525 1.94-2.537 5.68-3.381 8.407-.34 2.938 3.95 5.253 5.533 6.995 36.725 33.528 66.673 78.313 70.767 129.172 1.12 48.665-1.347 97.32-4.663 145.831-4.715 80.788-2.24 165.506 30.578 240.967 21.857 52.487 57.359 99.318 102.959 133.217 34.591 26.235 76.933 46.214 121.414 43.943 16.472-1.152 32.814-7.026 45.674-17.535 22.808-19.071 25.874-54.453 14.783-80.584-17.338-41.517-13.437-87.972-5.853-131.078 6.909-43.508 16.882-86.549 28.17-129.112 1.752-4.953 2.2-11.169 4.149-15.135m400-937.5c-2.109 34.934-22.72 65.752-47.466 88.928-22.892 20.18-51.259 33.548-80.7 40.792-27.296 6.593-56.734 6.057-83.181-3.711-43.397-16.505-72.059-58.78-82.754-102.427-8.829-36.1-10.708-73.856-6.714-110.763 2.965-26.543 9.986-53.163 24.067-76.128 9.942-16.73 23.561-31.041 40.312-41.051 25.49-15.466 60.746-22.612 87.814-22.64 15.198-.849 30.762-.263 44.757 6.68 12.887 5.783 24.332 14.455 34.365 24.32-.118-12.571-5.595-25.24-6.946-37.802-8.138-41.642-12.838-83.937-22.128-125.359-4.86-20.727-10.666-41.275-18.693-61.02-1.82-4.493-4.472-10.212-7.988-11.997-12.896-7.734-26.04-15.234-39.929-21.09-68.162-29.663-144.128-40.023-218.064-36.9-73.317 1.478-148.147 16.262-212.067 53.695-4.27 2.632-9.396 4.773-12.021 9.327-18.332 39.285-25.43 82.824-32.728 125.152-9.738 65.273-22.79 130.134-42.501 193.172-9.782 30.265-21.17 60.065-35.667 88.391-6.688 13.523-14.677 26.302-23.544 38.476-4.323 6.5-10.124 11.75-15.024 17.727-2.86 6.474 1.81 16.824 2.026 23.654 18.24 94.821 60.857 188.18 133.9 253.482 35.473 32.218 77.555 57.412 123.044 72.649 49.222 17.914 101.708 21.798 153.575 20.443 47.583-1.165 95.032-11.36 138.853-29.887 62.04-26.603 115.961-71.11 154.387-126.564 40.128-55.752 64.286-121.734 77.515-188.66.995-6.633 2.733-13.194 3.246-19.887.621-5.113-3.083-7.745-6.292-11.134-4.462-4.845-8.41-10.131-12.34-15.4-1.89-2.653-3.76-5.31-5.497-8.052-1.69-2.34-3.093-5.736-5.617-6.416m-616.998-17.572c-.015 19.755 6.142 39.844 19.358 54.577 12.275 15.815 34.036 23.502 53.215 17.257 29.706-9.575 45.937-43.437 44.425-72.837 1.274-29.712-16.702-62.689-46.406-71.527-18.567-4.12-39.52 2.077-51.084 17.929-13.038 14.747-19.749 34.814-19.508 54.601M1332 1398.583c22.76 28.298 60.18 42.12 95.608 43.246l2.392.171c1.326 28.488 2.749 60.027 20.174 84.14 18.79 23.115 54.472 26.265 80.637 15.264 17.12-7.89 27.389-24.896 31.97-42.55 4.901-18.553 6.745-37.73 7.219-56.854 36.16-1.11 74.84-14.114 98-43.5-4.335-4.857-9.357-8.973-14.228-13.243-5.088-3.996-9.383-10.774-14.272-13.257-17.206 19.823-42.646 31.531-69.081 30-13.222.133-27.62-2.23-37.982-11.172-9.48-8.859-12.727-22.381-13.437-34.828 16.187-3.255 30.282-12.7 41.194-24.754 11.481-11.843 15.976-31.15 6.89-45.77-14.95-21.15-42.381-26.524-66.699-26.808-27.155.45-63.387 7.7-71.439 36.514-3.62 15.09 4.033 30.436 15.03 40.293 9.875 10.408 23.126 17.33 37.024 20.525-.649 12.93-4.32 27.068-14.573 35.811-15.91 12.271-41.366 11.618-58.308 8.298-9.57-1.656-18.535-5.545-26.762-10.56-4.015-2.653-8.1-5.267-11.684-8.502-3.678-2.628-6.554-7.624-10.173-9.047-8.904 8.883-17.781 18.095-27.5 26zM1604 1892c-1.066 5.08-3.858 12.467.422 14.61 5.153 2.653 10.257 5.348 15.272 8.25 74.296 41.234 125.373 117.726 144.401 199.545 9.007 32.825 14.304 66.487 16.285 100.45 2.856 27.913 2.364 58.786 19.072 83.055 6.992 10.088 18.196 16.36 29.604 19.975 21.83 8.247 51.072 2.946 68.97-7.573 17.187-10.497 27.085-29.327 32.61-48.005 5.393-18.346 7.398-37.583 7.364-56.649 1.123-62.258-14.413-126.765-51.318-177.735-17.9-24.443-40.67-44.718-64.907-63.06-23.332-18.67-49.147-33.803-76.115-46.544-44.084-20.38-93.527-26.666-141.66-26.319m0-712.797c-1.136 28.829 8.029 58.3 28.171 79.077 9.913 9.418 20.672 18.3 33.828 22.848 13.354 5.21 30.633 6.423 43.599 3.88 22.759-4.618 42.548-19.347 55.98-37.923 13.88-19.615 19.451-43.97 19.42-67.715.321-23.698-5.788-47.845-19.366-67.384-13.556-18.627-33.496-33.668-56.47-38.032-14.663-2.167-30.127-1.47-43.978 4.043-19.042 8.542-35.714 22.578-46.578 40.54-11.105 17.997-15.078 39.557-14.606 60.666m32 .001c-3.006 35.422 27.317 85.018 72.345 72.104 29.86-9.614 45.17-43.297 44.647-72.48.075-29.145-15.84-62.5-45.743-71.582-44.138-11.714-74.08 37.199-71.249 71.958" style="fill:#666767;fill-rule:evenodd;stroke:none"/></svg>