<svg xmlns="http://www.w3.org/2000/svg" width="3000" height="3000"><path d="M407 2715h2186c-120.11-729.14-243.257-1457.94-364-2187-121.653-40.09-243.099-81.112-364.7-121.395-91.164-30.407-182.32-60.766-273.474-91.162a32206 32206 0 0 1-51.529-17.183c-8.003-2.659-16.01-5.346-24-8-7.038-2.654-14.998-6.446-23.453-2.372-120.19 40.07-240.392 80.12-360.578 120.183C1011.124 447.878 891.186 488.387 771 528c-120.737 729.033-243.897 1457.913-364 2187m622-1051c6.039-.658 13.2-5.533 19.91-7.95 50.323-22.801 98.908-49.648 145.358-79.54 69.239-42.928 131.97-95.584 191.247-151.128 29.802-28.758 57.66-59.597 84.708-90.942 25.018-31.497 50.122-63.704 68.777-99.44h3c13.176 42.27 29.246 83.963 51.378 122.458 31.276 55.932 72.626 105.654 118.088 150.47 46.58 43.655 98.135 82.012 152.034 116.072 7.993-27.504 18.973-54.932 37.427-77.341 17.898-23.197 42.445-41.404 71.073-48.659.105-4.684.68-9.341 1-14-81.417-24.403-160.599-56.769-235.381-97.149-35.561-19.76-69.23-42.66-100.47-68.735-16.075-13.367-31.455-27.615-44.581-43.964-7.337-7.478-13.494-15.983-19.883-24.23-5.428-8.94-14.677-18.115-16.685-26.922 18.31-3.372 44.082-4.405 50-23-65.106-16.298-130.745-32.412-195.5-50-13.913 52.952-37.827 102.892-65.85 149.743-41.39 69.315-90.265 134.135-144.11 194.24-27.48 31.31-57.062 60.682-87.57 89.038-15.506 13.612-30.48 27.796-46.601 40.706-7.811 6.597-15.905 12.79-23.92 19.115-4.084 3.203-8.336 6.181-12.412 9.39-1.714 1.29-4.283 3.602-3.336 5.338.651 2.1 1.817 4.476 2.299 6.43m146 45h455c-.803 7.023-6.069 15.455-8.659 23.339-22.929 54.383-46.301 108.58-71.04 162.15-23.803 54.958-51.474 108.659-77.301 162.511 23.492 8.344 47.006 17.494 71.895 20.876 13.362 1.516 26.767 2.428 40.212 2.103 13.235.383 25.937-3.466 38.893-4.979 6.159-17.091 16.388-32.568 23.488-49.273 26.588-54.55 52.198-109.564 77.442-164.737 12.514-27.515 24.927-55.08 37.16-82.723 3.015-6.995 5.953-13.984 9.11-20.9 2.447-5.187 4.28-10.659 6.98-15.717 1.41-3.774 8.027-3.5 11.004-4.709 11.65-3.21 24.043-7.107 32.816-15.941-20.261-19.238-43.45-35.849-64.467-54.353-21.984-17.383-42.74-36.808-65.033-53.647-14.12 15.152-27.69 30.861-41.453 46.324-6.43 6.651-12.032 14.02-18.5 20.625-5.837 6.178-18.12 3.274-27.186 4.051H1168c.46 8.729 6.109 16.37 7 25m409-270c-16.17 20.82-31.192 42.917-47.076 64.03-6.062 8.03-11.634 16.408-17.774 24.37-2.474 4.063-8.118 3.846-12.343 3.6H1283c1.26 7.533 4.74 16.047 6.448 22.806 1.797 3.63 9.044 1.393 11.94 2.194h257.098c40.762-.066 81.521.08 122.27-.043 8.884-.521 20.799-4.054 21.755-13.29-17.354-19.621-39.826-35.746-59.204-53.591-19.625-16.823-38.68-34.46-59.307-50.076" style="fill:#fda;fill-rule:evenodd;stroke:none"/><path d="M1024 1655.313c1.043 3.603 3.886 8.078 5.5 10.687 52.631-21.754 102.49-49.662 151.157-79.066 71.238-44.707 138.621-96.1 199.318-154.41 60.77-58.82 118.805-122.273 160.525-196.524 14.474 41.885 29.025 84.158 51.878 122.458 31.448 56.235 73.071 106.217 118.86 151.191 46.336 44.224 98.792 81.477 152.262 116.351h1.5c6.02-28.388 19.3-55.416 36.927-78.341 17.898-23.197 42.445-41.404 71.073-48.659l1-16c-81.136-24.317-160.081-56.512-234.624-96.722-71.368-39.716-138.76-91.512-182.376-161.778 16.47-4.52 42.017-3.158 51-24-15.696-6.206-33.47-8.44-49.696-13.436-49.656-13.033-99.599-25.328-149.304-38.064-12.517 52.655-37.466 101.662-64.43 148.174-40.224 68.766-89.148 132.059-141.408 192.015C1148.732 1549.797 1089.7 1606.655 1024 1655zm142 28.187c2.015 8.968 6.176 17.494 8 26.5h455c-23.358 58.297-49.192 115.726-74.93 173.01-26.324 58.345-53.288 116.515-83.07 173.204 46.863 23.53 102.592 30.922 154 19.786 6.159-17.091 16.388-32.568 23.488-49.273 26.67-54.976 52.696-110.264 77.949-165.89 12.64-27.553 24.932-55.265 37.243-82.968 3.034-7.078 6.069-14.12 9.228-21.135 2.245-5.216 4.289-10.536 7.054-15.49 7.488-3.973 17.155-3.768 24.776-7.937 7.231-2.872 15.13-7.856 20.262-12.807-44.747-35.44-87.878-73.97-132.5-109.5-14.47 15.243-28.044 31.283-42.086 46.91-6.375 6.726-12.101 14.016-18.52 20.688-3.426 4.277-7.67 4.84-12.55 4.402H1166zm115-153.25c2.225 4.987 2.792 10.765 4.777 15.91 1.374 3.416 1.736 10.342 5.767 10.485 13.872 1.007 27.915-.179 41.805.355h335.009c12.667-.419 31.997 2.508 36.642-15.668-20.31-17.374-39.35-36.249-60.309-52.926-20.351-17.138-39.633-35.724-61.191-51.406-15.952 21.355-31.402 43.148-47.276 64.567-5.912 8.132-11.731 16.345-17.726 24.412-2.856 4.64-8.21 4.205-12.691 4.021H1281z" style="fill:#000;fill-rule:evenodd;stroke:none"/></svg>