<svg xmlns="http://www.w3.org/2000/svg" width="3000" height="3000"><path d="M284 2851h2432c-134.149-810.763-270.401-1621.295-405-2432-121.342-39.954-242.44-80.911-363.734-121.071l-318.4-106.13c-23.338-7.841-46.698-15.545-70.04-23.356-11.341-3.774-22.687-7.54-34.007-11.343-10.608-3.396-23.708-9.945-33.842-5.595-87.231 29.065-174.458 58.147-261.68 87.235-152.357 50.752-304.678 101.596-457.031 152.331-14.33 4.77-28.642 9.546-42.967 14.324-6.996 2.317-13.996 4.71-21 7-3.5 1.192-7.003 2.291-10.485 3.517-3.155 1.196-7.913 2.055-8.741 5.189-72.745 429.113-142.918 858.853-215.103 1288.098C411.037 2089.84 346.517 2470.336 284 2851M963 866c13.136 87.574 31.467 174.49 45 262-25.5-2.495-39.317 23.198-42.135 42.584-2.766 23.934-.118 48.242 6.135 71.378 5.266 19.789 19.129 42.836 37.158 50.47 9.03 4.521 19.174 3.759 28.842 2.568 14.724 89.965 31.394 179.652 46.939 269.485 1.777 11.452 4.082 22.799 5.836 34.239 1.09 4.66 1.655 10.332 2.857 14.538.98 4.11 7.136 4.67 11.147 6.657 32.194 12.638 65.781 20.992 99.328 29.01 17.563 3.576 35.11 7.148 52.766 10.216 8.884 1.449 17.758 3.035 26.661 4.291 4.484.567 8.906 1.373 13.393 1.872 3.73.66 9.841.066 12.073 2.692-.283 2.05-2.025 3.277-3 5 39.988 36.343 75.64 78.297 104.253 124.309 11.108 16.668 21.038 34.126 29.924 52.056 3.986 8.11 7.624 16.389 11.015 24.76 1.397 3.943 2.966 7.82 4.538 11.697 2.15 9.167 8.421 12.352 16.027 14.87 14.639 6.54 30.297 11.377 46.505 10.194 26.955-.73 52.681-16.39 67.53-38.413 11.683-17.836 16.11-39.662 13.681-60.73-3.605-30.221-21.557-56.615-43.206-76.975-20.935-19.47-51.898-33.984-76.165-43.113-13.74-4.693-27.676-9.62-42.102-11.655v-3c134.998 4.382 271.791-4.105 402.702-39.426 15.462-4.267 30.822-9.034 45.916-14.428 6.289-3.256 15.645-4.073 19.276-8.76 19.365-106.213 37.862-212.945 56.106-319.386 8.705 1.126 17.666 1.692 26.097-1.37 22.778-8.84 35.363-33.038 40.87-55.483 5.46-22.43 7.88-46.068 4.884-69.083-2.24-18.51-16.89-45.272-41.851-40.064 13.036-87.908 32.168-175.07 45-263 53.767-12.84 89.532-73.02 76.418-126.165-5.258-26.085-25.583-52.394-45.953-65.173-23.405-16.302-53.765-21.382-81.446-15.334-25.867 5.618-52.136 24.879-64.905 45.404-17.096 22.936-22.083 54.496-15.42 82.007 5.304 22.91 19.058 45.596 38.306 59.261-9.084 46.829-28.01 91.563-47 135-20.084-3.322-40.45-18.221-53.37-30.87-28.533-27.028-46.466-63.54-57.392-100.79a374.5 374.5 0 0 1-11.075-52.673c-1.05-8.524-2.013-17.085-2.553-25.656-.135-4.348-.649-8.686-.493-13.031-.079-4.591 4.07-5.539 7.357-6.386 27.178-11.283 49.414-35.808 54.4-65.366 5.016-26.919-3.112-55.455-22.268-75.122-15.924-17.6-39.315-28.249-63.16-27.106-41.167-1.498-79.045 32.871-85.575 72.58-1.978 16.132-.74 33.077 6.031 48.047 5.218 12.19 13.656 22.637 23.666 31.188 4.072 3.571 8.47 6.713 12.86 9.841 2.194 1.56-.119 5.886-.103 7.996-9.233 41.31-21.905 82.654-44.15 119.03-10.119 17.054-24.209 36.126-37.974 48.153-7.854 6.758-15.374 13.99-24.07 19.709-8.025 4.96-18.874 14.156-27.131 14.456-1.819-10.633-5.037-21.037-6.843-31.675-.96-9.543-5.463-21.053-4.468-29.842 13.04-11.869 26.847-23.763 34.262-40.367 15.342-28.97 15.617-65.561.317-94.543-10.156-21.328-28.375-38.092-49.092-48.812-33.732-17.194-76.138-13.15-106.669 8.553-29.676 20.736-48.023 56.132-45.792 92.458.961 26.768 13.388 52.408 32.532 70.939 2.395 2.276 5.083 4.266 7.503 6.507 1.843 2.125 5.023 3.586 5.779 5.875-.967 20.695-8.43 40.56-11.529 60.907-7.516-.379-14.804-6.745-20.637-9.808-49.413-32.158-81.53-84.462-98.76-139.888-3.658-10.704-6.154-21.747-9.401-32.56-1.589-5.638-2.793-11.343-4.053-17.042-.994-2.736-1.26-6.082-1.654-8.657 14.935-11.75 30.965-24.502 37.936-43.208 14.52-32.77 5.394-73.62-21.906-96.812-19.195-19.624-48.252-26.48-74.77-22.048-37.662 7.177-69.62 42.636-69.746 81.594-3 39.35 25.218 77.227 62.991 87.429-1.09 47.377-10.253 95.34-30.67 138.321-9.532 20.55-22.437 39.24-38.173 55.446C1144.19 962.215 1122.84 978.744 1103 981c-11.824-27.082-24.563-54.199-32.756-82.745-4.197-12.496-7.674-25.214-11.27-37.884-1.985-5.6-4.567-12.724 1.42-17.265 17.566-15.635 30.401-36.035 34.66-59.336 4.977-21.167 1.336-43.363-6.828-63.082-14.415-33.126-46.327-57.033-81.646-62.765-27.473-3.851-55.876 2.584-78.116 19.414-32.91 23.412-51.244 65.916-42.412 105.855 7.126 38.841 38.83 72.776 76.948 82.808m-49-103.628c-2.517 41.802 36.034 79.954 77.52 77.627 40.652 1.08 78.258-36.649 75.48-77.653.872-20.116-7.417-40.182-22.102-53.948-13.841-15.35-34.71-22.403-54.929-22.363-19.8-.104-39.047 7.55-53.067 21.581-14.663 13.451-23.928 36.439-22.902 54.756M1851.5 2488c-16.147 19.018-30.707 39.38-46.586 58.61-11.658 14.659-23.134 29.482-34.746 44.174-2.27 2.567-4.316 6.012-7.268 7.758-60.55 1.307-121.304-.238-181.9.458v-332h287.4c11.664-.612 25.531.843 36.158-.692 8.82-2.088 20.939-4.894 21.958-14.559-4.297-6.972-11.651-10.552-17.388-16.444-21.36-17.523-42.867-34.89-64.734-51.765-22.133-16.291-43.267-34.828-66.394-49.54-22.47 31.199-48.24 60.961-71.383 91.867-3.073 3.676-6.269 8.325-9.295 11.504-3.042 3.056-10.436.734-14.072 1.629H1581v-278h347.4c14.782.314 33.913-.53 38.6-15.543-49.9-41.597-101.841-81.24-153.5-120.457-18.324 23.244-36.217 46.871-54.825 69.906-7.894 10.343-15.871 20.629-24.011 30.781-1.822 2.382-3.661 4.811-6.143 6.542-13.602 2.056-27.916-.257-41.668.771H1061c2.55 9.336 5.461 18.67 8 28h341v278h-301v1.5c1.942 7.864 5.717 17.752 7 26.5h294v332H990c1.75 8.808 5.064 17.42 7.28 26.117 1.25 4.677 10.229 1.974 13.314 2.883h906.113c24.43-.79 49.113 1.367 73.41-1.732 7.664-1.223 16.268-5.634 18.386-13.814-7.774-10.6-22.803-19.084-31.5-27.448-32.396-26.376-65.955-51.23-99.021-76.733-8.731-6.881-17.848-13.295-26.482-20.273M1099 1413c128.05 47.538 265.664 64.815 401.678 64 135.533.506 272.655-16.85 400.322-64 30.482-181.485 64.519-362.527 95-544-3.328-.35-6.637-.83-9.887-1.58-1.932-.403-5.711-1.433-6.507.437-2.34 6.588-4.018 13.416-6.03 20.103-18.251 63.522-44.043 125.736-83.445 179.237-29.682 39.31-68.238 74.235-115.858 89.875-36.446 11.815-77.494 14.81-113.395-1.12-51.297-22.37-82.702-73.075-103.535-122.29-11.519-26.412-19.072-54.373-26.243-82.212-1.696-6.977-2.974-14.054-4.754-21.006-1.236-5.081-1.903-10.279-3.042-15.377-.66-5.246-4.744-5.603-8.845-4.314-12.149 2.672-24.38.774-36.459-.753-11.909 63.566-29.97 127.664-66.348 182.028-13.505 20.024-30.722 37.42-50.185 51.583-36.57 26.066-85.436 27.946-127.278 16.173-61.41-17.799-109.069-65.372-141.885-118.373-16.868-26.279-30.41-54.55-41.97-83.513-13.165-29.558-20.317-61.538-30.834-91.898-5.218.66-10.166 2.976-15.5 3 30.5 181.468 64.494 362.528 95 544m31 174c119.233 39.67 246.243 50.293 371.138 51 124.202-.549 250.236-12.015 368.862-51 6.777-42.406 15.691-84.533 22-127-62.007 18.07-124.848 35.873-189.278 43.832-101.542 14.71-204.683 17.419-307 10.524-49.056-3.397-98.001-9.068-146.314-18.37-48.074-7.822-94.831-22.68-141.408-35.986 6.451 42.433 15.053 84.641 22 127m62.002-301.668c-.141 19.193 7.024 37.943 19.392 52.197 12.22 14.06 33.618 26.486 51.138 17.61 10.857-5.862 14.498-18.688 16.038-29.909 1.363-13.491.022-27.166-2.317-40.45-4.288-18.092-13.05-43.804-36.404-48.235-29.419-5.54-48.822 25.395-47.847 48.787m219 16.545c-.542 26.924 8.616 54.03 27.6 73.225 18.135 20.877 46.107 30.054 73.072 26.425 22.916-2.966 43.521-16.588 57.099-34.988 14.135-18.704 20.618-42.514 20.226-65.788 1.615-46.11-32.829-93.832-80.548-98.218-26.106-3.074-52.97 7.59-70.447 27.086-17.464 19.57-27.992 45.569-27.003 72.258m12.015-496.996c-1.85 42.511 37.285 80.682 79.551 77.119 41.95.882 77.324-38.746 74.37-79.922-.097-41.887-39.825-77.062-81.065-73.075-39.72-.52-73.432 37.078-72.856 75.878M1721 1313.37c-.226 12.545 1.386 25.804 9.246 35.86 8.387 10.666 21.275 10.017 32.853 6.395 19.114-6.76 32.584-23.957 39.869-42.205 9.322-23.087 7.037-52.782-13.542-69.233-7.73-6.521-20.005-9.17-29.044-7.828-15.384 3.102-26.179 16.778-31.277 30.87-6.056 14.02-8.196 32.079-8.105 46.14m212-550.435c-2.521 41.638 36.504 79.274 77.48 77.052 40.89 1.135 78.116-36.672 75.52-77.669 1.226-19.566-9.267-41.527-21.975-53.794-14.037-15.195-34.543-22.387-54.84-22.458-40.298-.676-78.927 35.053-76.185 76.869" style="fill:#ffe;fill-rule:evenodd;stroke:none"/><path d="M157 2957.5c447.26 1.426 895.325-.26 1342.75.5 447.681-.76 895.643.926 1343.25-.5-89.24-527.6-175.768-1056.319-264.274-1584.188-32.881-197.178-65.724-394.337-98.6-591.504-14.975-86.916-28.91-174.043-43.658-260.994l-20.26-121.515c-4.237-19.837-5.613-40.387-10.571-60.035-2.23-3.666-9.156-3.713-13.331-6.001-153.686-51.195-307.327-102.464-461.007-153.658-134.313-44.829-268.697-89.519-403.002-134.345-7.496-2.464-14.948-4.998-22.428-7.466-7.106-3.118-15.85 1.66-22.572 3.602-115.69 38.56-231.359 77.11-347.031 115.675-101.317 33.788-202.65 67.568-303.967 101.324-44.313 14.829-88.697 29.519-133.002 44.345-20.83 6.934-41.652 13.855-62.47 20.817l-30.53 10.183c-4.798 1.638-11.417 2.822-12.665 7.456C487.841 971.739 383.296 1602.542 278.126 2233.19 237.363 2474.168 198.262 2717.071 157 2957.5M285 2850h2430c1.438-9.785-2.95-22.854-4.06-34.37-111.015-666.287-222.139-1332.53-333.126-1998.811-13.906-83.343-27.779-166.675-41.688-250.01-6.078-36.515-12.159-73.011-18.235-109.512-1.488-8.65-2.835-17.34-4.36-25.984-1.37-4.127-.5-10.103-3.298-12.882-133.092-44.85-266.755-88.856-399.967-133.502l-300-100c-18.813-6.306-37.642-12.52-56.447-18.829-17.904-4.793-34.967-13.089-53.095-16.916-8.848.43-16.92 5.192-25.426 7.211-127.675 42.545-255.362 85.122-383.032 127.676-127.475 42.52-254.959 84.991-382.44 127.486-6.786 1.812-14.445 5.42-20.826 6.443-68.04 405.46-135.124 811.182-202.952 1216.695-33.727 202.494-67.523 404.995-101.234 607.486-16.895 101.338-33.797 202.673-50.688 304.01-8.386 50.673-16.93 101.318-25.312 151.99-4.255 25.328-8.437 50.683-12.688 76.01-2.062 12.668-4.247 25.33-6.312 37.99-1.202 11.873-6.019 27.928-4.814 37.819" style="fill:#70706f;fill-rule:evenodd;stroke:none"/><path d="M962 867c5.969 43.616 15.594 86.79 22.24 130.322 7.7 43.22 15.295 86.423 22.76 129.678-25.5-2.495-39.317 23.198-42.135 42.584-2.672 23.966-.506 48.34 5.671 71.568 5.028 20.426 19.13 44.376 37.622 52.28 9.015 4.267 19.21 4.06 28.842 2.568 14.724 89.965 31.394 179.652 46.939 269.485 1.777 11.452 4.082 22.799 5.836 34.239 1.09 4.66 1.655 10.332 2.857 14.538.98 4.11 7.136 4.67 11.147 6.657 65.284 25.454 135.694 36.86 204.221 47.581-1.492 1.561-3.153 3.023-4 5 43.925 37.802 79.667 84.383 110.679 133.072 11.329 18.482 22.556 37.203 30.778 57.334 3.74 8.84 7.325 17.731 10.648 26.74 2.394 7.17 13.001 9.937 20.61 13.395 16.71 7.427 35.005 9.9 53.141 6.985 14.304-2.95 27.94-9.318 39.522-18.172 20.417-17.186 32.8-43.201 31.622-70.12.286-39.805-25.275-75.64-55.569-99.04-31.668-22.715-68.762-36.502-106.431-45.194 134.886 2.962 271.85-3.835 402.702-39.926 15.462-4.267 30.822-9.034 45.916-14.428 6.289-3.256 15.645-4.073 19.276-8.76 19.365-106.213 37.862-212.945 56.106-319.386 15.762 3.277 32.383-.87 43.821-12.446 10.046-10.488 17.811-26.08 21.666-38.726 6.508-23.703 9.433-48.625 6.852-73.185-2.886-19.32-14.16-48.624-41.839-43.643 12.524-87.014 31.918-173.85 44.5-261 25.323-6.012 49.913-26.7 62.378-46.584 15.286-23.212 19.771-52.94 14.407-80.008-5.043-26.49-25.225-53.526-45.956-66.513-23.594-16.662-54.142-21.404-82.154-15.93-26.485 5.312-53.572 24.744-66.56 45.767-17.402 23.148-21.792 54.795-15.788 82.586 5.31 23.43 18.779 46.791 38.673 60.682-10.485 45.909-27.47 90.305-47 133-30.085-8.435-54.382-30.273-72.556-54.889-32.134-46.13-46.694-102.383-49.988-157.908-.198-5.18-1.816-12.15 3.764-13.488 18.007-6.022 35.825-20.957 45.24-35.43 19.98-28.16 16.884-74.508-2.275-98.838-14.777-21.55-40.314-36.214-66.58-36.437-39.55-3.405-78.274 23.815-89.258 61.928-6.024 19.512-3.828 44.64 3.927 61.54 8.032 17.08 21.809 31.117 37.726 41.022-10.44 41.164-21.142 83.795-43.726 120.562-10.204 18.172-22.803 35.13-37.688 49.735-7.95 6.998-15.76 14.127-24.39 20.294-4.352 2.976-8.477 6.307-13.069 8.904-4.445 2.345-9.368 6.508-14.127 7.005-1.819-10.633-5.037-21.037-6.843-31.675-.953-5.136-2.131-10.222-3.007-15.372-.115-4.05-3.208-10.827-.413-13.56 13.218-11.636 26.453-24.067 33.846-40.535 14.785-29.184 14.91-65.7-.055-94.785-10.147-21.526-28.453-38.523-49.352-49.312-33.61-16.754-76.094-13.611-106.93 7.414-14.378 9.738-26.723 23.035-35.014 38.324-9.246 16.18-13.21 34.555-12.924 53.058 1.007 13.267 3.005 29.144 8.628 40.26 4.402 9.007 9.31 17.935 15.898 25.577 4.534 6.05 10.081 11.087 15.916 15.824 2.124 1.615 3.903 3.542 5.79 5.377-1.676 20.11-8.133 39.58-11.54 59.405-38.586-16.388-67.86-50.378-89.066-85.356-22.553-37.071-33.53-79.638-43.934-121.144 23.529-14.053 41.87-38.164 44.388-66.037 1.539-14.565.605-29.516-5.13-43.133-4.706-13.613-14.288-24.572-24.642-34.174-34.5-32.211-94.645-27.177-124.092 9.02-31.379 34.937-26.662 95.571 10.47 124.544 9.531 7.523 20.05 14.263 32.006 17.28-1.399 46.545-10.395 93.62-30.445 135.882-9.64 19.986-21.711 38.909-37.37 54.683-14.946 15.646-33.87 29.15-55.185 34.435-11.824-27.082-24.563-54.199-32.756-82.745-4.222-12.507-7.66-25.256-11.296-37.93-.844-3.01-1.836-6.018-2.04-9.154-.91-2.448 2.709-4.747 4.327-6.906 17.967-15.89 30.142-37.166 34.356-60.774 4.078-21.755.927-44.315-8.06-64.355-15.137-32.707-47.086-56.566-82.705-61.404-27.566-3.558-56.048 2.655-78.362 19.605-15.624 11.024-29.805 29.468-36.407 45.671-12.099 28.211-10.329 62.257 3.28 89.548C908.527 837.72 932.823 859.372 962 867m-47-104.725c-1.93 41.192 35.953 78.743 76.895 76.716 39.887.267 76.542-36.745 74.105-77.042.716-20.066-8.29-39.766-22.87-53.319-13.56-14.771-33.915-21.439-53.477-21.554-19.47.285-38.44 7.931-52.128 21.907-13.983 13.191-23.385 35.424-22.525 53.292M988 2598.5c1.365 5.292 3.356 10.43 4.79 15.723 1.255 4.11 2.365 8.293 3.566 12.403 1.062 3.112 6.744 1.941 9.041 2.374h957.235c18.278.173 42.053.954 48.368-17.5-50.672-44.894-106.762-83.231-159.5-125.5-16.589 18.832-30.839 39.605-46.957 58.841-11.677 14.639-23.198 29.389-34.73 44.132-2.25 2.76-4.333 5.708-7.018 8.054-6.394 2.006-15.595.264-22.277.973H1582v-330h314.997c11.284-.303 28.479-3.308 32.003-17.666-48.301-41.489-99.186-80.047-150-118.334-24.617 29.815-47.8 61.091-72.108 91.208-3.078 3.926-6.038 7.927-9.23 11.762-2.785 3.883-8.848 2.953-13.02 3.03H1582v-276h348.6c12.947.767 31.237-.242 38.4-16.5-50.164-42.84-103.47-82.011-155.5-122.5-18.837 22.973-36.264 47.149-55.157 70.082-8.047 10.238-15.883 20.63-24.022 30.793-1.914 2.185-3.82 5.12-5.982 6.705-6.446 2.988-13.39.325-20.288 1.42-216.288.76-432.841-.926-649.051.5 4.057 9.328 5.665 19.882 9 29.5h341v276c-100.607.76-201.478-.926-302 .5 2.942 9.303 6.393 20.68 8 29.5h294v330H988zM1100 1412c127.673 47.391 264.857 64.723 400.48 64 135.264.438 272.1-16.954 399.52-64 30.845-180.762 63.74-361.293 95-542-4.225-.68-10.452-1.007-13.5-3-10.981 32.84-19.416 67.272-33.734 99.096-22.113 54.455-53.433 105.766-96.505 146.128-32.483 30.925-74.86 50.903-119.609 54.922-34.525 3.668-71.195-4.299-98.822-25.993-39.889-29.716-64.52-74.742-82.068-120.225-9.024-24.293-16.16-49.283-21.99-74.531-1.323-6.421-2.902-12.775-4.373-19.149-.912-4.43-1.574-9.738-2.81-13.696-.661-3.486-6.566-1.339-8.776-1.37-11.258 1.512-22.696.934-33.813-1.182-11.925 63.761-30.074 128.023-66.67 182.488-13.517 20.003-30.723 37.358-50.265 51.401-36.622 25.808-85.314 27.552-127.182 16.353-62.04-17.415-110.315-65.102-143.393-118.537-16.824-26.265-30.468-54.433-41.976-83.39-13.294-29.63-20.442-61.906-31.014-92.315-3.355 1.933-9.041 2.064-13.5 3 31.295 180.682 64.115 361.264 95 542m31 174c119.037 39.624 245.844 50.264 370.538 51 123.738-.66 249.298-12.13 367.462-51 7.17-41.7 14.818-83.312 22-125-125.583 41.199-258.224 58.37-390.16 58-131.739-.54-265.19-14.842-390.34-58h-1.5c7.359 41.639 14.627 83.355 22 125m60-300.614c-.362 19.458 6.8 38.62 19.394 53.143 10.755 12.445 31.462 26.422 52.058 18.155 11.539-5.533 15.573-18.869 17.118-30.453 1.358-13.808.196-27.761-2.12-41.378-4.124-18.65-13.247-45.534-37.586-49.47-29.84-4.458-49.47 22.926-48.864 50.003m219 16.547c-.727 27.021 8.255 54.355 27.236 73.8 8.92 9.66 19.767 17.36 32.022 22.162 13.115 5.713 27.727 5.924 41.72 4.803 23.266-2.15 44.23-16.086 58.126-34.322 14.632-18.815 21.279-43.032 20.896-66.66.588-23.738-6.686-47.811-21.58-66.476-13.776-18.418-35.332-31.471-58.377-33.661-26.763-3.368-54.594 6.448-72.692 26.66-18.002 19.88-28.574 46.526-27.35 73.694m14.032-497.156c-1.45 42.491 38.08 79.985 80.092 76.21 40.945-.933 75.025-39.707 71.692-80.298-.842-19.892-10.792-38.425-25.293-51.657-14.666-14.935-35.957-20.337-56.22-18.993-38.277.992-70.216 37.229-70.271 74.738M1720 1313.453c-.271 12.793 1.132 26.444 9.246 36.778 8.817 10.884 22.34 9.93 34.387 6.543 19.672-6.907 33.99-24.828 40.839-43.963 9.202-23.58 6.13-53.949-14.862-70.282-8.47-6.431-19.652-8.408-30.022-7.212-15.684 3.054-26.592 17.075-31.668 31.41-6.148 14.21-7.983 32.576-7.92 46.726m214-550.6c-1.934 40.757 36.108 77.794 76.285 76.122 40.116.67 76.645-36.21 74.715-76.461 1.086-19.302-9.552-40.866-21.975-52.99-13.765-14.858-33.773-22.116-53.668-22.41-39.749-.342-77.255 34.699-75.357 75.739" style="fill:#666;fill-rule:evenodd;stroke:none"/><path d="M283 2848a5 5 0 0 0 2-.5c113.597-674.455 224.76-1350.008 337.874-2024.691 13.999-84.348 28.157-168.66 42.156-253.008 6.145-36.845 12.258-73.67 18.418-110.502 1.514-8.655 2.82-17.348 4.375-25.996 1.115-4.44.766-10.498 3.6-13.521 66.905-23.487 135.128-44.827 202.311-67.853 117.994-39.366 236.017-78.637 354-118 44.33-14.77 88.642-29.546 132.967-44.324 38.851-12.751 77.532-26.12 116.434-38.672 4.486-.984 8.802 1.438 13.039 2.624 133.344 44.46 266.685 88.855 400.007 133.343C2043.532 331.039 2176.605 376.057 2310 420c67.47 404.894 134.955 809.8 202.448 1214.7 33.758 202.506 67.48 404.997 101.257 607.496 16.873 101.163 33.698 202.329 50.569 303.492 8.506 50.655 16.851 101.35 25.344 152.003 4.227 25.336 8.443 50.663 12.656 75.997 2.145 12.669 4.2 25.337 6.344 38.003 1.06 6.343 2.072 12.681 3.174 19.01.522 3.291 1.193 6.53 1.633 9.828.526 2.947.608 6.73 3.575 7.471-111.19-675.89-225.518-1351.391-337.36-2027.194-14.115-84.493-28.144-169.007-42.258-253.497-6.172-37.004-12.348-74.006-18.49-111.012-1.49-8.65-2.836-17.34-4.36-25.984-1.372-4.127-.501-10.103-3.299-12.882-135.1-45.527-270.747-90.18-405.967-135.502-101.47-33.838-202.963-67.673-304.44-101.486-19.008-6.314-38.006-12.678-57-19-9.008-2.98-18.006-6.01-27-9-7.79-3.131-17.184-6.756-26.879-2.27-133.694 44.601-267.438 89.122-401.128 133.727C955.067 327.708 821.904 373.81 688 417c-135.016 810.274-270.656 1620.643-405 2431" style="fill:gray;fill-rule:evenodd;stroke:none"/></svg>