<svg xmlns="http://www.w3.org/2000/svg" width="3000" height="3000"><path d="M284 2851h2432c-134.149-810.763-270.401-1621.295-405-2432-135.347-44.612-270.435-90.254-405.734-135.071-101.317-33.788-202.65-67.568-303.967-101.324-19.003-6.335-37.989-12.692-57-19-9.003-3.001-17.989-6.025-27-9-7.811-3.03-16.897-7.258-26.474-2.705-133.674 44.544-267.33 89.12-400.999 133.657C956.16 329.848 822.71 374.9 689 419c-134.595 810.684-270.855 1621.274-405 2432m1567.5-363c-16.126 18.97-30.63 39.291-46.483 58.483-11.647 14.665-23.122 29.457-34.74 44.145-2.027 2.901-4.43 5.453-6.948 7.88-60.676 1.402-121.606-.255-182.329.492v-332h288.6c11.671-.466 25.51.74 36.15-.822 8.615-2.177 20.844-5.786 20.7-15.176-10.846-11.433-24.134-20.725-36.13-30.956-37.29-28.642-73.374-59.84-112.32-86.046-25.375 35.632-55.789 69.234-81 105h-116v-278h347.4c12.629.023 32.749.951 38.6-15.543-49.841-41.772-102.08-80.714-153.5-120.457-18.64 23.287-36.615 47.148-55.257 70.432-7.963 10.448-16.051 20.775-24.226 31.052-2.136 2.13-3.705 5.609-6.523 6.041-222.081 1.355-444.37-.246-666.494.475 1.099 4.884 2.722 9.637 3.997 14.47 1.087 3.375 1.776 6.883 3.076 10.184.554 3.25 4.854 3.384 7.551 3.344 8.971.006 17.958-.001 26.925.002H1410v278h-301c1.409 9.514 5.755 18.448 7 28h294v332H990c1.118 8.412 4.916 16.366 6.696 24.647 1.346 5.377 7.38 4.317 11.5 4.353h925.96c17.32-.094 34.678.456 51.939-1.086 6.02-.693 12.25-2.19 16.972-6.214 3.225-2.899 7.942-7.824 2.819-11.723-26.307-22.377-53.731-43.423-80.915-64.714-24.423-18.836-49.422-36.969-73.471-56.263M1955 730c-82.214-4.74-164.266-17.003-243.766-38.704-76.145-20.94-151.796-52.262-210.734-106.296-4.134 1.18-7.562 6.302-11.485 9.17-58.608 50.329-132.69 78.168-206.014 98.684-77.641 20.923-157.83 32.46-238.001 37.146-1.45 130.372 7.457 261.445 36.854 388.802 19.963 91.156 51.126 179.843 94.337 262.578 31.43 58.434 69.325 113.801 115.411 161.722 35.123 35.859 73.872 68.645 117.836 93.265 16.291 9.646 33.075 18.499 50.6 25.716 7.603 3.762 15.472 6.89 23.446 9.72 7.01 2.646 15.24 7.567 23.834 3.46 54.772-19.397 105.768-49.306 150.847-85.751 45.676-36.59 83.864-81.543 117.614-129.072 33.991-49.577 62.737-102.696 85.184-158.49 74.113-180.671 96.5-378.205 94.037-571.95m-40 37c-75.297-5.709-150.546-18.269-223.063-39.586-51.59-14.63-101.816-34.907-148.333-61.57-8.208-4.98-16.318-10.142-24.352-15.393-3.698-2.822-7.415-5.587-11.248-8.198-8.94-8.353-15.988-.283-23.519 5.386-56.16 39.349-121.108 64-186.576 82.901C1228.46 749.735 1156.853 762.02 1085 767c-.613 118.562 11.213 237.468 37.527 353.118 19.48 82.183 46.664 162.796 85.915 237.758 28.588 54.53 63.352 106.134 105.293 151.359 31.945 33.41 66.722 64.234 106.574 88.017 14.743 9.023 29.972 17.19 45.535 24.685 7.153 3.42 14.601 6.17 21.862 9.345 3.212 1.17 6.776 3.054 9.799 3.889 6.192 1.094 13.782-4.145 20.529-6.238 95.678-39.704 173.849-113.203 230.453-198.743 29.792-45.754 56.12-94.064 76.21-144.907 66.839-163.817 90.09-342.46 90.303-518.283m-90 77c-58.982-5.484-117.696-16.428-174.66-32.63-40.786-11.465-80.136-28.262-116.302-50.28-6.636-3.88-13.172-7.983-19.502-12.333-5.682-3.395-13.194-11.348-18.65-7.143-44.989 32.742-96.523 56.017-149.978 70.927-55.822 15.35-113.22 26.242-170.908 31.459.809 47.446 3.93 94.845 9.096 142.017 9.835 79.153 26.907 157.583 54.267 232.592 20.255 53.153 44.276 105.435 76.21 152.726 24.417 35.146 51.601 69.084 84.4 96.854 24.046 20.315 49.762 38.915 78.31 52.48 5.486 2.856 11.008 5.662 16.74 7.97 6.099 3.456 11.208.809 16.48-1.93 37.137-17.891 72.73-40.124 102.367-69.08 30.481-28.123 57.153-61.726 79.817-96.675 46.627-73.928 78.929-156.31 99.5-241.128 22.58-90.177 31.703-183.04 32.813-275.826m-324 649V782h-1.5c-86.393 54.905-188.082 79.77-288.5 93 4.004 122.104 23.242 245.076 69.697 358.714 21.34 53.819 50.457 104.84 85.845 150.652 36.086 45.045 81.073 85.468 134.458 108.634m-195 179.586c30.106 28.33 59.348 58.74 82.886 93.147 16.816 23.843 35.834 52.515 47.77 76.562 5.585 10.64 10.471 21.567 15.102 32.64 2.014 5.26 3.927 10.57 5.966 15.82 3.35 7.752 16.044 9.583 24.226 14.018 16.152 5.853 37.305 8.66 52.736 3.828 24.513-6.263 45.364-22.751 56.435-45.575 12.284-23.636 11.045-56.855 1.004-78.718-10.487-23.044-26.839-43.375-46.925-58.784-31.489-22.422-68.346-37.276-105.943-45.695-39.773-9.518-80.83-11.204-121.502-12.597-4.912-.814-9.214 1.317-11.755 5.354" style="fill:#ffe;fill-rule:evenodd;stroke:none"/><path d="M988 2598.5c1.13 5.087 3.209 9.92 4.42 15 1.285 4.026 2.145 8.206 3.66 12.148.645 3.427 5.302 3.35 8.118 3.35 9.8.004 19.6 0 29.385.002h927.16c18.769.05 43.587 1.519 50.257-17.5-50.833-44.717-106.661-83.35-159.5-125.5-16.477 18.658-30.641 39.318-46.602 58.404-11.691 14.626-23.239 29.373-34.741 44.146-2.282 2.594-4.508 6.109-7.002 8.111-5.964 2.777-15.577.347-22.038 1.339H1582v-330h269.4c15.02-.005 30.031.006 45.038-.003 13.165.048 29.646-4.145 32.562-17.747-48.377-41.365-99.455-79.671-150-118.25-14.707 16.84-27.602 35.485-41.953 52.68-12.985 18.131-28.813 34.833-41.047 53.32h-114v-276h348.6c13.55-.012 30.774.78 38.4-16.5-50.082-42.962-103.794-81.588-155.5-122.5-19.051 22.887-36.479 47.105-55.261 70.212-8.118 10.34-16.056 20.82-24.263 31.089-1.907 2.312-3.632 4.827-6.054 6.629-5.861 2.103-14.322.394-20.47 1.07-216.09.76-432.442-.926-648.452.5 2.786 4.96 2.802 11.139 5.102 16.336 1.962 3.922 1.805 12.357 6.47 12.833 40.423.943 80.99-.171 121.437.331H1409v276h-302c2.481 10.01 6.194 19.831 8 30h294v330H988zM1956 729c-82.855-4.58-165.39-17.39-245.49-39.12-39.046-11.112-77.331-24.972-114.113-42.184-17.249-8.942-34.443-18.161-50.678-28.863-8.317-5.15-16.147-10.925-23.56-17.29-7.813-5.307-15.398-13.976-22.659-18.543-58.401 54.624-134.11 85.487-209.933 106.875C1209.44 711.562 1126.86 724.478 1044 729c-1.502 130.852 7.236 262.405 36.733 390.235 19.932 91.364 51.18 180.23 94.458 263.145 31.504 58.605 69.55 114.08 115.784 162.095 35.177 36.088 74.267 68.675 118.35 93.43 16.284 9.583 33.059 18.365 50.541 25.562 7.593 3.93 15.58 6.824 23.594 9.71 7.117 2.606 15.28 7.5 23.564 3.596 55.046-19.572 106.423-49.202 151.751-85.93 45.797-36.718 84.183-81.698 118.004-129.403 34.168-49.721 62.844-103.046 85.412-159.025 74.27-181.161 96.386-379.197 93.809-573.415m-42 39c-75.07-5.73-150.143-18.175-222.454-39.408-51.545-14.581-101.716-34.774-148.213-61.337-8.218-4.82-16.172-10.067-24.187-15.194-3.816-2.665-7.404-5.655-11.3-8.208-3.202-2.362-7.254-6.173-11.405-2.996-56.684 42.284-123.333 69.238-190.863 88.7C1234.162 750.36 1160.082 762.541 1086 768c-.401 118.258 11.298 236.9 37.814 352.204 19.376 82.224 46.88 162.684 86.122 237.64 28.695 54.251 63.183 105.796 105.166 150.758 31.831 33.286 66.512 63.946 106.207 87.65 14.743 9.023 29.972 17.19 45.535 24.685 7.153 3.42 14.601 6.17 21.862 9.345 3.27 1.215 6.935 3.179 10.092 3.813 6.02.24 13.303-5.114 19.114-6.556 95.332-39.717 173.113-113.111 229.575-198.349 29.792-45.754 56.12-94.064 76.21-144.907 66.607-163.188 89.947-341.12 90.303-516.283m-88 75c-58.982-5.484-117.696-16.428-174.66-32.63-54.147-15.104-105.743-39.81-150.84-73.37-45.716 32.909-97.069 58.676-151.683 73.325-27.863 8.22-56.228 15.142-84.87 20.006-29.799 5.157-59.748 10.514-89.947 12.669 1.503 94.237 10.503 188.603 34.034 280.118 15.673 65.274 39.097 128.698 69.733 188.375 44.243 85.513 108.649 164.9 196.153 208.975 5.651 2.923 11.23 5.991 17.143 8.358 2.582.916 5.365 2.612 7.835 3.155 2.271 1.553 6.116-2.396 8.375-2.469 38.475-16.783 73.828-40.684 104.702-68.987 31.387-29.134 58.416-62.361 81.712-98.571 46.794-74.078 79.001-156.708 99.673-241.692 22.524-90.669 31.782-183.996 32.64-277.262m-326.5 649c1.426-117.973-.26-236.305.5-354.341-.76-118.16.926-236.587-.5-354.659-85.458 55.97-187.798 79.018-287.5 93 4.154 122.17 23.71 245.128 70.473 358.713 21.33 53.05 50.142 103.386 85.069 148.653 35.088 45.832 80.528 82.668 131.958 108.634M1304 1672.585c58.832 54.266 109.215 120.388 142.454 193.626 4.403 8.154 7.642 20.962 12.495 29.502 16.037 9.083 34.164 15.437 52.66 16.213 27.55 1.21 55.213-11.873 71.804-33.936 8.558-10.676 13.47-23.637 16.417-36.84 2.07-14.508 1.684-29.39-1.942-43.584-6.551-26.29-24.371-48.324-43.584-66.498-14.868-12.803-31.936-22.981-50.015-30.565-57.49-27.65-122.168-32.953-184.903-34.222-2.969-.214-5.975-.192-8.89.298-2.1 1.62-4.782 4.085-6.496 5.421z" style="fill:#676767;fill-rule:evenodd;stroke:none"/></svg>