<svg xmlns="http://www.w3.org/2000/svg" width="3000" height="3000"><path d="M364 2760.5v1.5h2272v-1.5c-68.931-409.09-136.257-818.54-204.874-1227.691-51.076-306.848-102.33-613.661-153.4-920.497-4.868-28.824-9.564-57.688-14.431-86.508-1.116-7.008-2.365-13.985-3.488-20.978-1.2-6.774-.246-15.245-9.425-16.859-109.868-36.632-219.702-73.24-329.563-109.867-95.996-32.013-192.02-63.992-288-96-41.993-13.978-83.98-28.011-125.966-41.994-5.663-2.605-10.407-1.693-15.513.621-156.173 52.06-312.354 104.114-468.521 156.173-58.68 19.531-117.334 39.097-175.992 58.657-25.668 8.506-51.298 17.139-76.962 25.643-6.176 2.075-12.369 4.11-18.537 6.195-3.02 1.124-6.483 1.813-8.8 4.255-62.934 375.423-125.132 751.075-187.889 1126.544C490.857 1998.664 428.048 2380.37 364 2760.5m667-623.5h177c-2.84 85.53-9.582 172.109-35.081 254.303-11.528 39.485-27.23 77.729-48.284 113.132-9.654 17.307-21.74 33.095-33.305 49.114-5.944 8.162-12.857 15.533-19.115 23.435-5.718 7.599-14.663 15.128-19.215 22.516l5.5 5.5c21.466-11.183 43.732-21.338 64.181-34.468 71.017-43.062 132.554-103.694 169.507-178.91 41.02-78.352 53.11-167.546 56.812-254.622h310v293.4c.793 7.876-.733 18.4-12.464 18.468-14.061.592-28.148-.268-42.181-.853-13.431-1.048-26.972-.517-40.355-2.015.076 3.773-.753 10.175 3.356 10.925 3.754 1.218 7.667 2.009 11.345 3.474 13.57 3.965 26.457 10.712 35.66 21.637 13.31 15.851 21.162 36.021 23.095 56.59 3.798 21.9 3.59 44.339 5.044 66.374 42.829-6.04 91.252-9.718 125.69-39.83 26.432-23.084 31.896-59.878 34.894-92.731 2.31-55.842-.172-111.78.916-167.646V2137h143.4c12.29-.496 30.89 2.887 37.6-14.543-39.417-36.338-79.804-71.705-121.5-105.457-19.263 25.73-37.682 52.71-57.5 78h-2v-245c16.212-2.435 31.666-10.775 43-22.5-43.188-36.028-89.275-68.549-132.5-104.5-15.131 16.731-29.693 33.982-44.771 50.758-5.76 6.208-11.065 12.8-16.765 19.053-4.378 7.077-15.107 5.007-22.11 5.189H1456v-2c14.898-10.967 32.466-18.657 47.892-29 24.029-14.813 48.256-29.313 72.136-44.348 5.584-3.729 11.372-7.122 16.892-10.936 4.404-2.814 8.536-6.478 13.835-7.3 14.7-2.358 32.172-6.524 37.245-25.916-.458-.45-.911-.96-1.25-1.5-18.393-.873-36.32-6.369-54.75-7v-3h228.6c18.997-.36 38.025.618 56.98-.773 28.453-2.108 39.495-25.643 52.305-47.208 12.244-20.366 23.842-41.213 36.115-61.519-.458-.45-.911-.96-1.25-1.5-83.665-4.978-167.158-12.993-250.75-19-2.19-11.624-5.877-23-8.39-34.565-2.385-8.295-3.42-17.673-9.103-24.62-8.933-10.896-23.963-11.542-36.852-12.657-13.076-1.133-26.06-3.051-39.126-4.254-22.196-1.983-44.284-5.659-66.529-6.904.072-10.762.552-21.54 1.638-32.242.991-10.584.792-21.235 2.362-31.758 107.351-.832 214.656-3.558 322-5-49.628-128.311-102.154-255.648-152.473-383.712-25.563-63.745-50.655-127.66-76.17-191.42-12.602-32.027-25.838-63.825-38.231-95.922-2.19-7.435-8.043-17.111-7.745-23.72.753-13.556 2.493-27.244 2.279-40.813.272-3.419-5.45-3.625-7.707-4.319-9.503-2.21-19.335-2.6-28.953-1.094-.42 5.626-.821 11.27-1.1 16.896.442 11.806-7.22 17.573-14.77 24.474-106.03 106.234-212.937 213.252-298.556 337.3-42.157 61.714-78.783 127.634-105.308 197.664-14.402 35.732-25.63 72.702-35.867 109.804-10.556 37.052-19.118 75.342-26.899 112.862 66.932-24.776 136.324-44.323 207.268-54.003 74.325-10.333 149.822-10.43 224.232-.997-.837 20.345-3.405 40.634-4 61-21.259-1.247-42.343-4.837-63.55-6.69-17.744-1.1-38.425-5.45-54.774-5.178-16.855.784-33.73 1.353-50.577 2.189-7.626.217-15.244.46-22.863.658-28.025-1.661-43.69 24.826-53.527 44.602-2.282 4.19-4.177 8.551-5.965 12.955-1.552 5.38-7.398 4.566-11.968 4.177-70.242-6.058-141.238-10.256-211.276-16.713 4.94 31.778 14.755 63.854 27.708 93.414 12.725 28.481 31.5 55.787 58.129 72.71 20.179 13.33 44.737 16.65 68.359 15.876H1427c-1.581 43.742-3.92 87.424-8 131h-30.6c-8.436.175-17.164.724-25.042-2.858-51.456-17.322-102.777-35.233-154.358-52.142v368h-185c1.107 8.924 5.906 17.063 7 26m868-548c-271.06-19.434-541.923-43.028-813-62 .346 6.874 3.564 13.31 5.7 19.738 8.696 21.468 18.504 43.677 35.533 59.995 7.943 8.546 17.666 15.46 28.808 19.232 12.211 4.101 25.277 2.97 37.922 3.035h667.651c5.32.137 11.239.53 15.647-3.102 5.342-4.83 8.115-11.812 12.098-17.667 2.876-6.203 9.1-12.722 9.641-19.231m-764-199c110.048-39.088 228.646-54.293 345-43-8.525-96.28-11.976-193.17-6.447-289.772 4.026-92.189 17.18-183.714 34.447-274.228-5.006.677-8.805 7.304-13.233 10.733-62.9 62.95-121.58 130.168-175.835 200.724-25.771 35.053-51.064 70.574-72.58 108.445-23.048 37.73-42.089 77.728-59.401 118.348-21.833 54.495-41.004 111.021-51.951 168.75m215 721h309v-287h-308c.385 95.735-.052 191.367-1 287m45-239.75c9.654 13.274 20.6 26.092 27.296 41.359 13.448 26.572 24.091 60.316 28.066 87.343.88 6.208 1.47 12.503 1.615 18.775.16 5.88-.292 11.873.58 17.68 13.363 14.2 35.71 23.734 53.26 25.47 15.58.533 31.31-3.252 44.651-11.328 18.76-12.004 32.607-31.493 35.436-53.86 3.55-21.445-6.876-47.303-19.583-61.95-17.959-22.805-49.07-38.655-73.284-47.857-15.002-5.139-30.43-9.006-45.954-12.157-7.73-1.572-15.497-2.83-23.288-3.969-7.556-.563-16.684-3.405-23.649-1.942-1.837.516-3.345 1.692-5.146 2.186zm27 629.75c38.455.675 77.744-2.726 113.713-17.47 4.288-1.777 8.813-3.292 12.489-6.23 3.881-2.564 4.027-7.254 3.798-11.697V2209c11.803-2.951 28.742-5.801 32-23-53.864-5.197-108.057-9.626-162-14zm33.002-1018.769c-1.276 13.291 10.599 25.197 23.688 23.528 12.877-1.678 19.495-12.699 19.152-23.947.255-11.48-8.773-22.645-20.817-22.662-12.278-.643-23.006 10.664-22.023 23.081M1518 1339h2c12.681-208.393 29.318-416.609 42-625h-3c-19.058 100.577-37.994 201.62-44.599 304.002-4.414 53.564-5.458 107.256-5.357 160.912.432 27.117 1.172 54.197 2.552 81.267.485 13.392 1.456 26.764 2.369 40.132.26 6.718.832 13.424 1.208 20.126.193 3.288.39 6.574.575 9.858.26 3.023.038 6.992 2.252 8.703m28.01 153.433c-1.06 13.11 10.616 24.588 23.53 22.351 11.16-1.286 17.947-13.135 17.146-23.49-.066-10.608-8.52-21.338-19.738-21.244-11.745-.486-21.614 10.914-20.938 22.383M1556 1353c44.037-.921 88.095-1.584 132.144-2.168 44.27-.73 88.578-1.692 132.856-1.832-7.298-24.221-18.939-47.176-27.407-71.03C1728.94 1113.112 1662.165 949.027 1598 784h-3c-13.126 189.633-25.256 379.436-39 569m75.261 148.003c.252 10.3 7.35 23.25 21.674 20.2 10.431-2.275 14.908-12.367 14.6-22.03-1.137-8.785-6.228-19.02-18.331-18.754-11.966.409-17.746 10.404-17.943 20.584" style="fill:#ffe;fill-rule:evenodd;stroke:none"/><path d="M1022 2110.25c2.744 8.73 6 19.552 8 27.75h177c-3.06 85.457-9.81 172.006-35.592 254.07-11.52 39.373-27.598 77.376-48.564 112.67-9.624 17.329-21.97 32.961-33.411 49.063-6.177 7.984-12.872 15.568-19.258 23.378-6.061 7.601-13.81 14.273-19.175 22.319 2.726 2.662 6.108 6.979 9.6 5.44 4.074-1.5 7.784-3.852 11.734-5.615 56.95-27.942 111.496-63.581 154.037-111.19 43.51-46.227 75.796-102.637 94.51-163.236 20.4-60.175 25.86-123.93 29.119-186.899h308v292.2c.043 4.287.093 8.909-2.246 12.707-4.283 6.634-14.898 4.82-21.362 5.092-23.798-.872-47.64-1.495-71.392-2.999.036 4.7-1.075 12.013 3.82 13.105 4.675 1.298 9.329 2.612 13.88 4.296 26.408 7.558 45.714 31 51.756 57.4 6.895 28.095 7.768 57.423 8.544 86.199 25.598-2.983 51.414-5.375 76.214-12.922 35.48-8.457 69.027-33.398 78.329-70.016 11.571-38.771 9.321-79.695 9.457-119.56V2138h145.2c13.13.316 29.583 1.497 36.8-15.5-39.812-37.333-81.367-72.773-123.5-107.5-19.557 26.15-38.607 52.737-58 79-1.426-80.804.26-162.101-.5-243 8.67-1.044 18.424-5.422 25.449-8.986 6.674-4.644 15.58-8.505 18.551-16.014-29.262-20.356-56.541-44.713-85.327-65.974-10.805-8.236-21.26-16.907-32.108-25.076-4.757-3.684-9.416-7.507-14.307-11.007-4.791-4.329-10.006 5.845-12.88 8.192-13.835 16.327-28.461 31.938-42.303 48.249-2.802 2.932-5.246 6.168-8.034 9.108-2.781 2.672-4.725 6.894-8.673 7.242-62.667 0-125.802.788-188.368-.234 39.187-24.172 79.506-46.853 118.331-71.68 9.275-5.793 19.919-12.969 28.339-18.395 14.743-3.747 38.155-5.219 40.866-28.528-2.49-3.1-8.886-1.72-13.02-3.134-14.147-2.227-28.338-4.277-42.516-6.263 76.64-1.426 153.401.26 230.057-.5 19.055-.35 38.198.666 57.206-.945 28.487-3.224 38.797-27.287 51.758-48.986 11.623-20.82 24.924-41.032 35.979-62.069-84.21-7.284-168.747-12.847-253-20-2.19-11.624-5.877-23-8.39-34.565-2.385-8.295-3.42-17.673-9.103-24.62-8.933-10.896-23.963-11.542-36.852-12.657-13.076-1.133-26.06-3.051-39.126-4.254-22.196-1.983-44.284-5.659-66.529-6.904.116-10.466.765-20.932 1.754-31.342.821-10.225.762-20.493 2.246-30.658 107.68-.807 215.328-3.614 323-5-50.314-128.617-102.44-256.672-153.233-385.124-25.75-64.112-50.942-128.456-76.647-192.585-12.544-32.177-25.981-64.028-38.32-96.272-2.608-7.371-8.09-17.312-7.036-23.99.05-13.589 2.981-27.289 1.76-40.871-1.268-2.69-6.152-2.3-9.105-3.356-9.65-2.224-19.683-2.132-29.419-.802-.42 5.626-.821 11.27-1.1 16.896.442 11.806-7.22 17.573-14.77 24.474-106.421 106.565-213.643 213.972-299.413 338.55-42.468 61.712-78.603 128.087-105.179 198.24-14.425 35.82-25.428 72.909-35.75 110.066-5.204 18.735-9.692 37.647-14.468 56.473-2.187 9.432-4.441 18.833-6.408 28.3a264 264 0 0 0-3.298 15.374c-.7 4.194-2.907 10.06-2.114 13.627 66.84-25.8 136.71-44.423 207.688-54.817 74.194-10.342 149.523-10.799 223.812-1.183-1.223 19.671-3.147 39.302-4 59-20.621-1.822-41.187-4.59-61.77-6.717-17.824-1.187-38.62-5.417-55.046-5.19-16.978.606-33.92 1.421-50.89 2.199-7.629.211-15.258.444-22.885.647-28.38-2.089-44.712 23.886-54.493 44.23-2.243 4.184-4.2 8.51-5.965 12.903-1.754 5.473-6.591 5.317-11.36 4.57-70.835-5.851-141.784-10.77-212.591-16.642 8.542 49.436 24.196 99.568 54.992 139.964 15.481 18.924 35.864 34.817 60.227 40.5 27.856 5.9 56.753 2.35 84.97 3.536H1426c-1.872 43.046-3.76 86.111-8 129h-30.6c-16.32.966-31.38-5.633-46.582-10.9-44.06-15.08-88.448-29.609-132.318-45.1-1.426 122.874.26 246.061-.5 369h-186zM1898 1590c-270.391-19.65-540.592-42.625-811-62 3.258 14.023 9.677 27.313 15.673 40.329 9.26 19.264 21.77 38.252 40.384 49.788 19.996 13.255 44.923 9.795 67.502 9.883h649.055c5.311-.001 11.13.627 15.805-2.47 5.756-4.328 8.322-11.421 12.286-17.159 2.923-6.127 8.346-12.424 10.295-18.371m-761.5-201c108.605-40.363 227.394-53.404 342.5-43-17.814-187.188-9.976-377.369 28-561.736-43.912 41.172-84.077 87.152-123.585 132.648-29.455 33.544-56.81 68.868-82.885 105.067-38.961 53.883-72.108 111.624-100.235 171.806C1173 1256.341 1149.24 1321.934 1136.5 1389m214.5 721h307v-285h-306c-.033 95.049.367 190.047-1 285m42-238.625c24.477 28.853 40.946 63.657 50.168 100.27 4.295 14.476 6.65 29.536 7.696 44.563.441 6.827-.31 14.998.692 21.2 15.918 16.556 43.544 27.646 64.594 25.076 36.253-1.655 67.881-31.884 71.187-68.046 4.156-35.568-20.37-68.103-48.656-85.995-19.849-13.854-42.595-22.785-65.84-28.986-12.444-3.214-24.95-6.177-37.67-8.097-6.05-1.067-12.132-1.828-18.197-2.721-5.874-.571-13.276-2.392-18.572-.577-1.924.627-3.682 2.32-5.402 2.938zM1421 2502c39.124.737 79.103-2.362 115.713-17.47 4.44-1.824 9.108-3.403 12.857-6.52 3.758-2.75 3.535-7.584 3.43-12.009V2210c13.072-2.735 29.039-6.578 33-24.5-6.677-2.087-14.085-1.561-20.986-2.546-48.05-3.186-95.958-9.203-144.014-11.954zm35.01-1019.568c-.794 12.166 10.706 23.99 22.967 22.088 11.902-2.233 18.19-12.532 17.718-23.206-.32-10.64-8.897-20.845-20.043-21.058-11.467-.118-21.271 10.785-20.642 22.176M1518.5 1338c7.103-103.8 14.155-207.982 21.476-311.845 5.92-103.698 15.67-207.464 20.524-311.155-20.257 100.056-37.796 200.953-44.99 302.903-4.469 53.45-5.595 107.028-5.456 160.569.428 26.996 1.163 53.958 2.55 80.915.474 13.5 1.525 26.933 2.38 40.41.262 6.592.836 13.17 1.196 19.75 1.081 5.634-.333 14.319 2.32 18.453m28.538 154.26c-.614 12.019 10.11 23.335 22.16 21.444 10.341-1.584 17.002-12.618 16.351-22.414-.348-9.793-8.167-19.721-18.457-20.16-10.865-.205-20.165 10.5-20.054 21.13m9.962-141.51c1.384 2.013 5.373.744 7.95 1.171 84.907-3.108 170.19-1.262 255.05-4.421-37.187-93.7-74.605-187.447-111.697-281.216-37.647-93.596-74.065-187.767-111.803-281.284-14.779 187.947-24.46 378.175-39.5 565.75m75.42 150.314c-.027 11.336 9.996 22.47 21.191 18.671 8.513-2.719 13.728-12.182 12.651-20.802-.658-8.99-7.531-17.228-16.907-17.384-11.13.755-16.55 9.95-16.935 19.515" style="fill:#676767;fill-rule:evenodd;stroke:none"/></svg>