<svg xmlns="http://www.w3.org/2000/svg" width="3000" height="3000"><path d="M327 2801c12.216 1.862 24.708.471 36.999 1h2273.92c11.329-.358 24.784.691 35.081-1-120.491-728.663-243.044-1457.087-363.952-2185.695-7.562-45.508-15.166-91.007-22.753-136.501-.926-5.676-1.91-11.338-2.846-17.012-.592-6.574-7.834-7.318-12.592-8.995-84.008-27.993-167.988-56.006-251.992-83.997-146.987-49.033-294.011-98.01-441-147-13.864-4.623-27.735-9.249-41.6-13.871-6.65-2.27-13.333-4.393-19.968-6.67-6.695-1.935-14.522-6.052-20.509-4.007-103.326 34.432-206.65 68.874-309.962 103.305-154.934 51.793-310.034 103.15-464.917 155.076-4.947 1.7-4.473 8.74-5.53 13.061-24.977 150.002-49.989 300.01-74.997 449.997C536.324 1546.17 430.626 2173.498 327 2801m683-1612c-3.314 47.445-24.198 91.873-28.786 139.119-3.514 35.315.315 72.863 18.309 104.202 22.289 45.587 71.32 76.282 122.145 74.095 25.24-1.139 50.726-8.182 70.475-24.59 19.531-16.092 34.299-37.965 39.583-62.962 6.142-26.947 4.787-56.46-7.568-81.527-8.167-17.505-23.139-33.596-42.833-36.879-7.834-1.428-15.607 1.08-22.707 4.097-3.354 1.303-6.858 2.405-10.491 2.375-8.354.575-7.738-7.084-5.153-12.796 6.821-19.955 20.993-36.221 33.651-52.65 12.028-16.2 26.01-31.569 36.201-48.957l.174-.527c5.03.17 9.882 5.611 15.27 7.642 17.705 10.302 33.992 7.357 51.73 5.358-1.616 18.108-7.067 35.784-8.19 53.988-1.444 16.598-4.481 33.866.041 50.359 3.52 14.65 10.857 27.947 19.541 40.167 4.283 5.808 8.622 11.578 13.533 16.87 4.583 5.437 11.603 10.879 9.329 17.66-8.361 26.835-16.753 53.642-24.771 80.576-7.328 23-14.741 46.015-20.208 69.54-4.838 21.49-7.856 43.72-5.595 65.78 2.158 17.432 8.115 35.742 21.053 48.293 23.395 24.126 59.74 26.702 91.026 22.078 11.876-2.126 23.798-4.525 34.793-9.627 18.296-8.902 31.46-25.509 39.42-43.795 12.947-28.334 17.832-59.373 26.244-89.125 8.219-30.09 16.836-60.121 28.86-88.963 3.804-10.04 7.884-19.968 12.405-29.699 3.986-10.094 10.56-19.081 14.519-29.102 13.317 1.21 26.618 2.516 40 3v55.8c.17 16.212-.207 32.453.112 48.646 2.563 12.272.08 26.978-1.294 38.317-1.968 11.562-3.008 23.198-3.839 34.869-.956 4.463-1.573 9.45-1.022 13.294 2.303 7.487 2.68 18.037 11.753 23.489 14.21 8.905 31.686 7.674 47.644 7.549 12.008-.407 24.285-2.89 34.66-9.179 15.476-11.22 16.337-32.309 16.002-49.436.345-18.743 1.301-37.496 3.57-56.094 1.56-17.532 5.176-34.786 9.54-51.787 2.025-8.459 4.225-16.837 6.788-25.139 1.11-4.071 2.507-8.073 3.848-12.07 1.428-3.708 2.112-8.931 6.238-9.259 14.645 31.15 29.746 62.46 38.952 95.863 6.63 25.752 11.98 52.002 21.793 76.814 7.2 16.77 14.91 35.112 30.576 45.898 12.055 9.037 27.605 11.619 42.07 8.043 20.694-3.444 42.546-15.875 57.165-28.026 15.826-12.228 30.701-31.53 37.442-48.593 6.143-15.495 5.534-32.91 1.594-48.84-4.208-24.444-15.462-46.748-25.161-69.243-9.761-22.298-17.552-45.627-22.19-69.549-7.165-48.853 6.779-97.635 21.759-143.367 5.261.16 8.068 7.067 11.477 10.155 6.227 7.94 13.946 14.498 21.409 21.189 3.375 3.218 7.532 5.51 10.713 8.93 3.127 3.669 2.24 8.92 3.409 13.375 3.137 17.575 15.622 31.064 27.967 42.825 22.484 20.804 51.284 35.247 81.729 39.482 11.861.25 25.707 3.108 35.334-4.133 4.255-3.283-1.115-10.515-3.16-13.176-5.694-7.6-12.973-13.76-18.98-21.054-17.82-21.325-26.057-58.929-60.38-71.4-8.266-2.587-16.806-4.044-25.449-4.46-3.324-.314-6.712-.302-9.946-1.2-16.375-12.191-29.593-30.966-42.389-47.241-4.36-5.488-8.136-11.382-12.022-17.196-5.792-8.14-3.185-22.358-5.465-33.413-.928-11.373-2.65-22.658-4.753-33.854-9.758-53.302-32.08-104.437-65.374-147.197-24.138-31.134-54.252-57.597-87.835-78.091-12.114-7.972-25.014-14.562-37.983-20.976-6.358-2.93-6.421-12.003-6.312-17.775-1.685-24.845-11.184-48.433-20.25-71.283-14.093-33.513-32.272-65.286-55.42-93.382-11.403-14.51-25.47-26.8-40.373-37.502-7.135-4.86-14.785-8.91-22.844-11.979-4.424-1.55-8.98-2.764-13.528-3.84-4.218-1.477-10.028-1.18-12.075-3.804-2.664 2.53-7.385 1.819-10.742 2-3.755-.086-7.528.16-11.263-.22-2.878-.386-6.061-2.227-9.266-1.753-12.508 2.257-27.6 2.18-39.264 2.47-22.516 2.053-45.419 2.089-67.466 7.875-15.847 3.763-31.39 9.14-45.518 17.358-9.973 6.107-19.565 12.803-28.116 20.833-3.135 2.861-7.223 4.824-9.446 8.577-4.5 8.653-14.642 7.123-22.188 7.395-25.053.516-49.81.236-75.231 1.465-3.308-16.779-15.227-34.493-27.338-44.207-14.114-11.914-32.216-16.878-50.304-18.025-18.572.031-37.165-.254-56.044 2.982-14.349 2.017-28.713 4.198-42.828 7.508-18.398 6.231-36.239 21.641-49.59 32.765-11.516 15.406-26.868 28.656-32.623 47.842-1.84 5.2-2.73 10.693-3.017 16.187-.656 5.122 2 11.866-1.256 15.448 3.282 4.192 1.462 12.095 2.736 18.06 1.196 22.513 4.138 44.905 5.463 67.4 1.896 17.539 2.305 35.283 1.577 52.904C980.66 928.892 959.958 977.088 962 1028c-9.779-.038-19.424-4.098-29.318-2.226-14.492.16-27.042 9.911-32.894 22.714-6.289 12.632-3.838 30.043.155 41.714 11.989 29.645 37.54 50.484 62.583 68.692 15.35 10.568 30.716 21.917 47.474 30.106m-2-41c3.99-7.815 1.641-19.97 1.951-30.415-.362-8.246-.462-16.509-1.07-24.739-.963-4.948.826-12.031-2.667-15.427-14.82-7.572-31.777-10.324-47.544-15.261-9.046-2.201-29.76-8.798-31.507 8.308-1.643 20.7 16.78 34.204 28.878 45.534 14.676 10.921 29.387 22.099 45.789 30.369 1.92 1.018 4.002 1.615 6.17 1.631m3 1310.35c.497 3.7 3.427 7.294 4 10.65 82.928-11.448 165.098-29.25 244.162-57.212 38.944-12.244 76.778-27.717 114.049-44.243 18.507-8.457 36.793-17.372 55.11-26.231 8.663-4.745 17.415-9.277 26.08-13.998 8.849-3.75 17.533-11.766 25.599-13.316-.088 49.278-1.602 100.237-19.5 146.929-2.3 5.42-4.708 11.105-9.855 14.466-4.375 3.144-9.705 4.156-14.91 4.939-4.463.73-9.757.97-13.873 1.146-7.565-2.927-15.784 1.126-23.537-.24-6.125.462-12.057-.685-17.973-1.748-7.138 1.775-17.383-.29-26.2-.204-4.867-.44-9.787-.474-14.662-.766-3.9-.6-10.264.532-11.99-2.522-1.173 2.223-3.785 1.414-6.241 1.31-17.243-.749-37.428-2.762-53.259-3.31v7c35.44 9.557 72.826 21.145 99.424 48.005 24.715 30.267 30.774 70.318 32.576 107.995 32.62-.206 65.503-2.524 97.295-10.07 22.776-4.986 45.165-12.728 63.844-27.104 27.037-21.123 42.849-53.664 52.914-85.576 10.5-34.86 15.92-71.232 15.947-107.63 1.745-92.317-19.303-185.562-61.903-267.641-20.432-38.293-43.808-75.271-72.57-107.956-14.245-16.95-30.3-32.337-46.095-47.838-8.51-6.721-16.24-14.361-24.965-20.795-4.534-3.068-8.687-6.632-12.988-10.007-3.63-3.227-9.984-5.846-10.479-10.383 33.029-14.87 64.03-35.301 94.453-54.983 15.271-10.529 30.315-21.33 44.413-33.4 7.028-5.901 15.619-12.417 21.504-18.487 3.196-3.519 6.989-6.36 10.493-9.519 3.277-3.175 6.885-7.75 11.137-7.611 9.074 128.17 27.627 256.736 66.856 379.45 19.325 59.018 44.265 116.417 77.231 169.16 32.144 52.19 71.93 99.383 115.413 142.39 15.6-30.646 35.368-60.032 63.963-80.24 14.15-10.435 29.594-18.864 46.228-24.63 9.551-2.94 19.144-5.984 29.12-7.204 4.273-.63 9.53-.512 13.252-2.04 4.63-1.303 4.023-7.899 5.937-10.386-59.052-33.98-115.775-72.64-166.888-117.822-50.246-47.273-99.4-99.365-132.112-160.678 50.382-14.209 99.091-34.221 148.184-52.258 24.225-8.974 48.05-18.885 71.872-28.837 5.949-2.794 12.109-5.124 18.122-7.772 4.401-1.554 8.436-4.7 13.245-4.924 12.65.692 29.418 6.193 39.577-9.709-51.751-38.477-103.46-77.53-155.5-115.5-23.653 33.36-46.282 67.595-71.908 99.556-12.768 16.151-25.534 32.278-38.476 48.295-6.63 7.877-13.338 15.645-19.942 23.54-3.357 3.916-6.626 7.918-10.003 11.802-3.462 3.06-6.105 8.802-10.171 9.807-25.064-42.843-42.45-90.494-58.127-137.494-7.379-24.196-13.961-48.664-19.35-73.375-2.462-12.84-5.705-25.493-7.724-38.415-1.68-11.87-7.115-26.397-1.799-35.716h334.2c9.975.093 21.012.259 29.563-5.918 2.615-2.218 7.259-6.806 5.154-10.073-22.264-20.631-47.844-37.802-71.69-56.554-24.079-18.261-47.802-37.463-72.727-54.455-19.937 23.843-39.05 48.467-58.712 72.549-4.391 5.29-8.547 10.733-12.874 16.061-1.45 2.659-4.514 4.846-6.235 7.825-14.323 3.095-29.53.557-44.068 1.565-224.142.76-448.544-.926-672.611.5 3.086 8.963 6.036 20.016 8 28.5h347c-.09 4.399-4.878 8.517-7.905 12.399-23.891 27.32-49.374 53.125-76.896 77.097-40.383 36.113-83.99 69.024-129.983 97.659-46.026 29.967-96.147 52.84-146.216 75.345.874 2.582 2.737 5.594 3.5 8.5 14.48-4.482 32.773-6.784 46.3-10.25 104.379-23.398 206.988-56.22 304.2-100.75 1.696 7.238 15.413 16.409 6.841 24.573-45.404 59.898-100.862 111.747-161.184 156.646-28.887 22.087-59.17 42.525-90.403 61.13-32.128 19.837-66.717 34.627-100.254 51.151.636 2.382 2.453 5.248 4.219 7.535 2.066 1.518 6.465-.54 8.713-.35 112.458-19.948 221.89-56.165 325.473-103.884 25.447-11.942 50.157-25.383 74.767-38.897 3.13-1.927 4.463 4.169 5.075 6.022 1.379 5.924 4.69 12.807 4.444 18.5-2.86 10.484-14.154 19.855-19.588 28.923-54.205 68.996-121.482 127.141-193.587 176.635-34.766 24.174-71.875 44.5-109.191 64.35-39.568 19.543-80.447 36.756-122.325 50.666zM1121.5 1466c3.532 2.952 10.106.458 15.16.184 5.35-1.172 10.728-2.529 15.835-4.494 16.428-7.357 30.818-20.435 37.583-37.425 7.576-17.07 7.364-39.484 5.012-56.01-1.917-9.296-5.833-21.175-12.856-26.91-6.555-4.483-15.99-3.993-22.037 1.212-8.13 7.82-11.723 19.465-20.358 26.895-9.065 7.002-22.757 7.319-32.214 1.097-18.044-12.93-16.658-43.042-10.874-61.248 10.188-35.94 35.453-64.836 58.247-93.302 8.668-10.81 17.287-21.656 25.546-32.772 3.724-4.956 7.412-9.924 10.925-15.03 3.814-4.495 1.398-11.576.246-16.479-5.251-22.499 4.008-45.24 17.459-62.857 17.165-22.562 51.364-49.87 84.144-31.172 14.306 7.529 21.904 23.032 27.68 37.312 6.502 16.158 8.247 33.735 8.002 50.999 10.914-3.093 19.352-15.659 24.829-23.589 6.468-9.862 11.447-20.605 15.569-31.633 4.857-15.029 8.209-30.49 9.779-46.212 1.66-25.668.26-51.424.823-77.115V890h38c-.049 63.453 2.782 128.35 23.043 189.101 5.023 12.896 13.31 28.723 25.113 34.857 10.75 4.956 23.594-.378 29.67-9.957 9.234-14.173 16.573-29.683 27.467-42.701 11.98-11.615 29.624-14.448 43.577-22.75 13.94-6.961 24.81-18.741 32.027-32.377 5.962-10.652 9.652-22.242 12.35-34.065 3.513-17.182 18.001-31.878 29.853-41.727 12.977-11.858 24.625-25.095 32.52-40.946 7.66-16.114 11.046-37.516 9.944-53.806-3.279-27.115-14.23-52.85-25.49-77.45-11.648-23.635-25.456-46.587-43.337-66.106-9.954-12.325-24.711-24.23-37.515-30.968-11.862-5.83-25.326-7.435-38.343-6.942-40.658 1.665-82.36-.95-122.055 9.773-13.678 4.485-28.97 12.683-38.824 21.505-8.511 7.58-16.853 15.46-24.494 23.934-2.264 2.895-5.493 7.064-9.765 7.45-32.973 1.327-66.107-.475-99.034 1.956-47.142 2.772-95.945 16.482-131.567 49.103-17.041 14.999-30.823 34.222-39.03 55.406-4.632 11.218-7.607 22.904-9.173 34.935-.98 10.877.88 23.926-8.52 34.08-9.987 12.718-15.475 28.569-15.39 44.702-.172 59.588 5.1 118.997 7.324 178.493.612 29.441 3.436 59.28-1.557 88.526-4.118 27.432-12.874 53.95-18.805 80.991-9.54 39.846-14.596 83.547.497 122.87 7.997 17.957 19.962 34.431 36.688 45.227 8.134 5.25 17.232 9 26.465 11.789 5.146 1.324 10.369 2.271 15.674 2.495 4.743.035 10.902 1.537 14.187-1.398m103.5-328.722c-.607 10.512 2.92 20.841 10.637 27.786 6.781 7.354 16.743 9.82 26.367 8.899 19.213-.439 33.895-18.926 31.996-37.501.254-9.868-1.268-19.674-4.174-29.077-2.45-8.333-6.046-17.875-14.396-22.015-12.574-5.522-27.884 9.115-34.362 16.326-8.42 9.864-16.852 21.54-16.068 35.582m17.012-165.299c-.645 17.32 15.993 34.33 33.511 32.542 16.323-1.661 29.459-17.33 28.456-33.596.355-16.67-18.578-30.388-32.53-29.494-14.975.734-30.186 16.445-29.437 30.548M1509.5 1336c15.5 4.25 32.273 4.778 48.196 7.073 11.934.159 26.1 2.408 36.833.155 9.758-.58 19.539.044 29.295-.22 14.099 1.824 28.127 1.712 42.457.992a31 31 0 0 0 10.432-1.342c5.197.495 9.359 1.88 14.35.617 4.726-.725 11.083.563 14.437-2.275 2.526 2.015 5.973 1.58 8.997 1.64 5.338 1.394 8.332 8.591 11.972 12.338 13.474 18.652 22.948 39.773 32.723 60.467 8.211 19.193 15.904 38.684 21.726 58.75 4.7 17.765 8.499 35.776 13.266 53.528 4.049 14.907 7.715 30.389 16.146 43.543 9.08 14.41 26.845 10.052 38.324 4.262 10.386-4.822 21.536-12.818 29.24-19.923 7.368-6.946 14.759-14.196 19.004-23.593 4.177-8.886 3.299-18.992 1.722-28.324-5.171-31.817-23.107-59.629-33.176-89.846-12.831-31.297-19.506-64.954-17.185-98.759 3.245-38.327 11.386-76.56 25.295-112.46 3.068-8.953 6.56-17.717 10.646-26.256 3.866-6.481 4.4-13.71 3.103-21.03-.474-22.198-2.858-44.32-7.752-65.993C1859.991 1002.63 1796.843 926.035 1715 891c-5.581 17.684-18.083 36.323-29.87 48.37-6.192 5.98-11.632 12.68-17.732 18.732-12.409 10.67-20.792 24.79-24.801 40.604-6.85 27.138-24.588 50.063-47.568 65.505-15.69 12.3-39.638 18.495-52.921 31.325-10.115 11.432-16.954 25.237-26.218 37.264-15.107 22.496-41.76 26.598-64.004 16.783-21.485-8.614-35.815-29.35-42.886-50.583h-3c-12.088 36.44-37.085 72.893-75 86 .736 7.585 7.844 15.929 11.167 24.077 8.555 14.536 15.416 29.984 24.035 44.481 3.684 7.14 7.586 14.167 11.245 21.313 3.869 6.368 8.76 12.676 4.518 21.672-18.61 59.006-36.825 118.13-55.07 177.247-6.813 21.679-14.742 47.14-19.921 67.323-4.51 19.93-7.446 40.85-3.582 61.239 3.636 19.816 19.937 29.51 37.498 30.531 15.58-.128 34.35.267 48.236-3.649 14.692-3.59 21.74-14.144 26.852-26.333 9.678-22.333 11.833-47.002 19.052-70.059 17.036-66.883 43.478-131.047 72.768-193.369a41 41 0 0 1 1.702-3.473" style="fill:#ffe;fill-rule:evenodd;stroke:none"/><path d="M204 2906.5c431.66 1.426 864.125-.26 1295.95.5 431.946-.76 864.184.926 1296.05-.5-71.347-421.454-140.17-844.031-211.186-1265.681C2515.49 1219.807 2443.894 799.05 2375 378c-18.825-4.147-36.622-12.377-55.173-17.557-141.343-47.107-282.688-94.208-424.008-141.343-105.996-35.346-212.02-70.658-318-106l-60-20c-4.743-1.483-9.392-3.202-14.133-4.67-4.689-1.596-9.296.594-13.846 2.121-144.162 48.092-288.385 96.1-432.543 144.19-72.152 24.045-144.327 48.113-216.478 72.159-35.996 12.013-72.02 23.992-108 36-18 6.028-36 11.971-54 18-9.01 3.004-18.013 5.972-27 9-8.742 2.234-18.56 7.118-26.819 8.1-68.995 421.677-140.705 843.07-210.109 1264.703C344.003 2063.481 275.132 2486.22 204 2906.5M327.5 2803c4.595-2.336 12.155.002 17.997-1H2674c-130.3-781.989-260.7-1564.016-391-2346-130.855-42.2-261.028-87.28-391.734-130.071-97.989-32.698-196.012-65.302-294-98-18.48-6.166-36.97-12.313-55.44-18.486-8.648-2.881-17.309-5.793-25.96-8.643-7.268-3.026-15.901-6.58-24.892-2.294-129.057 43.003-258.096 86.044-387.148 129.051C974.746 369.814 846.233 414.354 717 456c-65.274 391.379-130.446 782.818-195.705 1174.196-32.58 195.67-65.246 391.32-97.826 586.99-16.291 97.836-32.63 195.688-48.917 293.515-8.185 48.826-16.245 97.672-24.426 146.49-4.018 24.519-8.219 49.007-12.235 73.512-2.033 12.167-4.046 24.324-6.077 36.478-1.068 6.16-2.057 12.334-3.099 18.497-.634 3.192-1.097 6.392-1.525 9.603-.287 2.372-1.502 5.242.31 7.719" style="fill:#70706f;fill-rule:evenodd;stroke:none"/><path d="M1009 1190c-4.13 46.703-24.032 90.526-28.786 137.119-3.699 34.91.071 71.39 16.395 102.94 21.762 44.528 67.272 77.273 117.733 77.562 25.178.323 51.156-5.39 72.127-19.823 19.993-14.061 36.342-34.216 43.42-57.874 4.708-13.537 6.482-27.833 6.111-42.09.687-23.967-5.962-48.69-20.949-67.74-10.367-14.169-27.836-24.408-45.997-20.33-6.747 1.204-13.904 5.632-20.24 6.051-8.225.644-6.914-7.197-4.454-11.707 6.502-18.729 19.774-34.1 31.623-49.591 11.974-15.293 24.36-30.332 35.279-46.408.947-1.401 2.209-3.217 2.738-5.109h1.5c17.287 15.505 41.845 17.665 63.5 13-2.508 17.334-6.666 34.5-8.19 51.989-1.671 16.83-4.634 34.053-.387 50.736 3.43 14.72 10.348 28.344 19.158 40.582 3.912 5.79 8.417 11.164 12.914 16.494 3.53 4.88 11.344 10.872 10.947 16.238-14.136 52.616-34.211 103.564-46.387 156.71-4.54 20.842-6.295 42.519-4.209 63.778 2.47 17.057 8.392 34.892 21.256 47.075 10.227 10.974 24.15 17.61 38.634 20.79 26.71 5.302 59.701 2.19 83.048-6.252 18.072-6.814 32.134-21.543 41.203-38.165 14.262-26.51 19.313-56.476 26.936-85.195 7.54-28.51 15.507-57.001 26-84.588 8.384-26.137 20.862-50.816 33.077-75.192 11.564 1.881 23.371 1.693 34.988 2.993 5.955.55 3.317 11.11 4.012 14.74v67.45c.227 18.693 1.667 37.487-1.844 56.018-2.057 16.244-4.529 32.469-5.072 48.85.049 11.438 4.367 26.539 18.82 30.917 11.693 4.789 24.594 3.97 36.908 4.032 18.496.162 44.606-3.219 52.356-25.651 5.407-15.854 3.338-32.927 4.411-49.334 1.864-46.773 9.325-94.46 26.921-138.015 20.694 39.64 36.837 81.75 46.845 125.39 4.139 16.71 9.146 33.192 15.167 49.31 5.695 12.522 10.96 25.734 20.617 35.89 8.261 9.087 21.788 16.193 33.08 17.259 23.081 1.77 45.351-7 64.232-19.482 13.822-8.734 25.889-19.934 35.77-32.909 7.365-9.212 13.284-19.806 16.692-31.118 5.053-18.816 1.37-41.925-3.583-58.708-4.923-18.226-12.614-35.374-20.446-52.473-11.475-25.612-22.14-57.474-24.872-83.189-2.734-30.546 3.619-61.268 10.456-90.798 1.82-6.703 3.69-13.421 5.727-20.062 2.08-6.496 5.862-13.885 6.815-20.11 3.99 1.459 6.26 7.74 10.04 10.813 6.115 7.81 13.792 14.152 21.094 20.748 3.342 3.16 7.497 5.425 10.587 8.85 3.037 3.707 2.085 8.942 3.32 13.404 3.18 17.498 15.633 30.947 27.934 42.659 21.883 20.3 49.744 34.381 79.265 39.214 11.89 1.405 24.324 2.21 35.91-1.483 13.111-4.971.147-18.514-4.281-23.594-5.798-6.264-12.354-11.912-17.11-19.074-16.15-22.861-25.852-54.517-54.216-66.2-7.043-2.918-16.02-4.248-22.88-5.094-5.315-1.09-13.494-.112-17.425-2.676-11.886-10.658-23.753-23.569-33.409-36.861-7.572-10.347-16.01-20.323-22.023-31.701-2.387-16.93-1.865-34.326-5.334-51.177-9.082-55.983-30.732-110.62-65.419-155.735-33.31-43.546-77.948-77.775-127.284-101.266-7.255-3.156-6.683-11.728-6.772-17.767-1.924-26.475-12.203-51.63-22.124-75.903-17.525-40.343-40.966-78.949-72.848-109.632-11.18-11.044-26.809-21.448-39.933-27.28-13.892-6.607-29.097-7.943-44.078-7.261-27.85-1.573-55.615.819-83.368 2.39-38.602 2.419-78.505 12.51-108.621 38.097-7.44 5.647-14.24 11.697-20.018 18.888-2.915 2.96-7.178 2.71-11.09 2.679-26.933 2.05-53.964-.411-80.917 1.962-3.35-16.94-15.417-34.853-27.766-44.538-14.049-11.86-32.09-16.373-49.988-17.81-19.404-.072-38.925-.152-58.247 3.15-13.885 1.938-27.767 4.082-41.432 7.202-18.886 5.66-36.624 21.696-50.335 32.626-11.638 15.534-27.118 28.89-32.959 48.235-4.149 12.504-3.535 26.039-2.353 38.92 1.288 23.632 3.795 47.145 5.53 70.736 1.963 18.14 2.92 36.351 2.542 54.594C982.012 924.293 958.245 974.117 961 1027c-15.957-1.611-37.598-7.746-53.306 7.924-6.341 6.417-10.876 14.645-12.409 23.518-1 9.974-.44 20.197 2.654 29.751 10.643 30.382 36.577 51.736 61.522 70.117 15.98 11.167 32.026 23.066 49.539 31.69m0-43c.832-12.2-.707-24.548-.325-36.81-.626-9.237-.504-18.537-1.664-27.698-.6-6.189-11.038-7.626-15.336-9.721-9.403-2.927-18.871-5.52-28.352-8.112-9.555-1.968-21.956-7.122-30.016-2.946-9.744 7.481-3.877 21.325.776 29.31 8.846 12.973 23.793 24.547 35.074 33.126 6.36 4.487 12.727 8.996 19.373 13.05 6.49 3.171 13.446 9.545 20.47 9.801m5 1323c83.174-10.686 165.428-29.184 244.703-56.74 76.2-25.381 150.49-57.588 219.797-98.26 1.862 29.732-.736 59.831-4.896 89.268-3.371 20.566-8.558 44.89-17.196 62.114-7.29 15.44-30.28 13.517-43.759 13.686-24.252 1.524-48.553-2.464-72.811-2.577-23.916-2.495-48.57-2.296-72.338-5.491-.807 2.772-.312 6.633-.5 10 35.44 9.557 72.826 21.145 99.424 48.005 24.715 30.267 30.774 70.318 32.576 107.995 33.269-.136 66.872-2.339 99.297-10.07 22.938-4.971 45.43-12.878 64.198-27.356 27.224-21.404 42.768-54.308 52.904-86.46 10.345-35.098 15.787-71.673 15.601-108.279 1.838-92.11-19.207-185.001-61.422-267.015-39.288-77.483-97.192-144.658-167.578-195.32 32.354-15.984 63.54-34.743 93.54-54.843 15.152-10.42 30.012-21.246 44.128-33.02 7.306-6.001 14.89-11.65 21.56-18.38 3.217-3.497 6.821-6.539 10.47-9.551 3.312-2.552 6.805-7.792 10.302-8.706 9.017 128.543 27.823 257.415 67.13 380.467 19.5 59.316 44.709 116.91 78.034 169.83 16.671 25.637 34.117 51.06 53.72 74.563 9.929 11.868 19.855 23.713 30.286 35.125 4.85 6.057 10.746 11.137 16.063 16.748 5.987 4.483 10.845 12.85 16.767 15.267 13.561-32.287 36.29-60.93 64.33-81.874 14.486-10.187 29.98-19.178 46.996-24.483 9.555-2.855 19.182-5.846 29.151-6.904 4.44-.55 9.371-.374 13.324-2.741 2.716-3.109 3.55-8.417 4.199-11.998-59.293-32.728-115.247-72.57-166.463-116.931-51.765-45.972-96.395-99.485-132.537-158.569 50.52-15.768 100.295-34.256 149.65-53.362 24.172-9.03 48.035-18.851 71.786-28.889 6.03-2.69 12.205-5.075 18.243-7.733 4.226-1.836 8.468-4.823 13.325-4.1 12.272 2.58 29.703 3.438 38.996-10.916-26.131-20.292-53.103-39.511-79.432-59.546-13.369-9.647-26.465-19.688-39.684-29.534-6.624-4.868-13.388-9.55-19.845-14.648-6.738-3.937-13.218-11.353-20.039-13.772-21.11 34.646-46.56 67.203-70.832 99.784-24.92 32.181-50.603 63.835-77.668 94.216-23.882-43.388-42.347-89.774-57.462-136.877-7.34-24.065-13.81-48.402-19.307-72.932-2.475-12.888-5.681-25.626-7.788-38.578-1.774-10.902-6.55-26.302-1.943-34.613h334.8c12.542.344 31.299-.46 36.2-16.602-23.43-20.732-48.96-38.953-73.774-57.943-12.196-9.818-24.833-19.057-37.2-28.64-6.357-4.709-12.614-9.583-19.043-14.178-6.355-3.636-12.5-10.508-18.983-12.637-17.458 25.39-39.537 48.274-57.91 73.175-4.38 5.281-8.549 10.719-12.857 16.046-3.624 4.971-7.8 11.326-15.73 10.76-236.069.813-472.546-.936-708.503.519 2.799 3.405 3.268 9.647 5.12 14.413 1.36 5.002 3.12 9.954 3.88 15.087h347v1.5c-48.979 56.63-104.626 107.475-166.017 150.863-29.722 21.678-61.25 40.815-93.056 59.246-33.403 17.78-67.396 34.795-102.927 48.391.65 3.872 3.866 6.966 4 11 60.773-12.23 121.24-26.504 180.364-45.291 57.905-18.418 115.538-38.96 170.136-65.709 3.422 5.148 7.645 11.978 11.5 17.5-23.055 30.394-48.28 59.358-76.164 85.218-40.261 40.485-86.168 75.601-133.07 108.07-46.374 32.236-96.466 57.866-147.766 80.712 2.083 3.695 3.223 7.876 5.5 11.5 72.909-14.035 145.69-31.932 215.846-56.987 67.027-24.735 133.796-52.151 195.154-89.013 3.04 4.473 3.548 12.245 6.102 18.11 2.653 6.651-1.118 11.227-4.71 16.064-53.799 74.027-123.052 136.01-197.781 188.116-35.995 25.585-74.314 47.74-113.391 68.206-41.06 21.09-84.086 38.628-127.72 53.504-.27 4.613 3.075 9.102 4 13m316.5-1325c16.638-12.134 28.156-29.578 35.354-48.777 13.524-31.556 13.931-66.215 13.146-99.806V889h40c-.069 63.292 2.797 127.968 22.848 188.606 4.942 12.838 13.127 28.273 24.401 34.898 11.566 5.886 23.249-1.132 29.472-10.924 9.183-14.095 16.406-29.758 27.645-42.402 12.649-10.738 29.814-14.034 43.866-22.35 13.33-7.422 24.255-18.716 31.048-32.418 5.947-10.573 9.352-22.157 12.13-33.862 4.001-17.449 17.059-30.236 30.066-41.533 12.833-11.743 24.328-24.891 32.144-40.58 7.486-16.11 11.354-37.529 9.723-53.798-3.645-26.39-14.22-51.46-25.268-75.458-11.65-23.635-25.457-46.587-43.338-66.106-9.876-12.164-24.418-24-37.059-30.74-11.773-5.86-25.16-7.66-38.133-7.156-40.21 1.652-81.482-.912-120.72 9.758-13.51 4.454-28.639 12.504-38.437 21.16-8.407 7.441-16.6 15.187-24.203 23.473-2.79 2.725-5.569 7.867-9.333 8.066-32.733 1.746-65.704-.46-98.425 2.007-47.124 2.814-96.234 15.853-132.12 48.283-17.011 13.958-32.125 35.892-39.497 54.57-4.835 10.955-7.697 22.487-9.468 34.288-2.483 10.527 1.347 24.52-7.74 34.907-9.975 12.734-16.318 28.287-16.53 44.567-.293 59.491 5.137 118.851 7.279 178.255.613 29.6 3.305 59.543-1.31 88.966-4.003 27.452-12.743 54.01-18.68 81.045-5.335 21.766-9.692 43.96-9.361 66.433-2.104 40.012 14.735 83.261 50.827 103.942 29.145 17.039 74.737 15.149 98.7-5.143 24.649-20.523 30.705-55.704 23.476-85.643-3.131-10.693-9.185-28.69-25.72-23.87-11.423 3.966-15.967 19.962-23.872 27.675-7.698 8.942-23.91 10.203-33.141 5.68-21.397-10.327-19.963-42.623-15.75-61.192 9.758-36.67 34.115-66.853 57.893-95.412 8.787-10.9 17.568-21.826 25.9-33.07a478 478 0 0 0 10.984-14.998c4.632-5.443 2.921-11.066 1.246-16.938-5.12-22.945 3.727-46.181 17.631-64.125 17.455-23.11 51.813-49.714 85.2-31.673 14.773 7.24 22.639 22.939 28.467 37.422 7.364 16.166 7.522 34.2 8.659 51.39m-104.497-7.51c-1.353 19.955 16.407 37.893 36.367 35.404 18.286-1.386 32.252-18.837 30.629-36.827.16-9.241-1.387-18.397-4.043-27.215-2.46-8.474-6.036-18.254-14.531-22.484-6.192-3.194-14.224 1.07-19.18 4.53-14.754 10.099-29.449 29.34-29.242 46.591m15-165.705c-1.2 18.339 16.037 35.75 34.313 33.886 17.155-1.11 30.937-17.473 29.679-34.414.465-17.227-16.88-31.258-33.094-30.973-15.867.093-31.999 16.507-30.898 31.501M1508 1335c45.403 9.276 92.027 9.265 138.021 8.233 19.969-.74 43.355-1.273 61.628-1.924 4.104.084 9.123-.86 12.414 3.329 21.416 25.99 37.21 62.895 48.988 91.1 11.994 29.338 18.978 60.22 26.133 90.985 3.529 12.76 7.483 28.052 13.248 38.819 3.013 5.005 6.461 10.29 11.917 12.996 11.223 4.662 25.522-3.193 35.122-7.918 9.657-6.048 18.671-13.101 26.631-21.222 7.261-6.934 14.797-16.985 16.211-26.37 2.443-19.988-6.794-42.92-13.464-59.36-14.79-32.442-28.42-65.754-35.362-100.867-4.973-28.048-2.38-56.754 2.244-84.605 3.325-20.334 8.453-40.378 15.005-59.89 4.368-13.903 9.764-27.516 15.534-40.896 6.178-11.7 3.985-22.183 3.597-34.052-2.138-34.213-8.728-68.569-22.564-100.084C1836.27 976.013 1780.606 923.706 1716.5 892c-7.376 17.756-16.792 35.178-30.733 48.733-6.132 6.05-11.561 12.738-17.742 18.742-12.44 10.667-20.507 24.963-24.591 40.701-6.845 27.361-25.176 50.148-48.227 65.625-15.788 12.347-40.364 18.198-53.139 31.896-17.357 20.486-30.05 59.986-66.673 57.301-15.597.88-33.848-6.466-43.79-16.892-11.408-10.306-17.943-24.4-24.105-38.106-13.342 36.055-36.867 73.1-75.5 86 14.694 31.503 33.444 61.279 48.966 92.423 1.111 3.25 5.22 7.442 4.147 10.47-17.384 60.568-37.77 120.376-55.734 180.791-6.419 22.591-14.435 44.697-20.177 67.467-5.112 20.187-8.363 41.414-5.2 62.222 2.765 19.89 17.958 30.706 35.686 32.316 8.537.735 17.117.205 25.63-.334 13.935-.313 29.853-2.521 40.037-13.285 8.273-9.526 12.09-21.97 15.426-33.796 6.48-21.894 10.408-44.495 16.811-66.409 16.446-63.45 43.857-123.295 70.408-182.865" style="fill:#666;fill-rule:evenodd;stroke:none"/><path d="M327 2804c1.215-.084 2.33-.724 3-1.5-2.451-2.841-.969-7.923-.436-11.877l260.141-1560.82c32.465-195.004 65.017-389.985 97.481-584.984 7.148-42.664 14.233-85.336 21.346-128.005 1.734-10.341 3.41-20.687 5.173-31.01.879-5.33 1.76-10.667 2.674-15.988.953-4.92.474-12.045 6.797-13.705 81.325-27.109 162.632-54.22 243.959-81.311 152.512-50.874 305.066-101.67 457.568-152.54 16.841-5.56 33.64-11.23 50.47-16.817 8.325-2.514 16.478-5.886 24.895-7.944 130.557 42.608 260.657 87.059 391.106 130.058 113.99 38.023 228.008 75.978 342 114 12.519 4.174 25.035 8.364 37.56 12.516 3.056 1.077 6.2 1.946 9.1 3.393 2.799 1.124 2.25 6.459 3.193 8.732 64.928 389.329 129.738 778.675 194.678 1167.998 32.427 194.664 64.882 389.343 97.325 584.003 16.226 97.324 32.434 194.677 48.675 291.997 8.078 48.685 16.268 97.33 24.325 146.003 4.015 24.34 8.138 48.649 12.156 72.982 2.043 12.162 4.047 24.358 6.088 36.507 1.093 12.052 5.834 26.172 4.726 37.312h4c-129.502-782.758-261.048-1565.3-391-2348-130.994-42.255-261.291-87.36-392.135-130.2-98.003-32.674-195.996-65.327-294-98-18.534-6.187-37.045-12.357-55.568-18.54-8.676-2.864-17.335-5.777-25.998-8.655-7.36-2.873-16.18-6.693-25.345-2.434A1569534 1569534 0 0 1 1103.3 326.395C974.06 368.717 845.395 413.31 716 455c-65.307 391.536-130.49 783.157-195.792 1174.701-32.626 195.843-65.29 391.666-97.913 587.495-16.273 97.844-32.604 195.66-48.913 293.495-8.135 49.004-16.386 98.007-24.49 147.012-4.096 24.495-8.151 48.998-12.253 73.491-2.017 12.175-4.07 24.332-6.087 36.507-1.092 6.131-1.98 12.324-3.106 18.444-.635 3.198-.976 6.433-1.499 9.642-.656 2.855-1.289 6.576 1.053 8.213" style="fill:gray;fill-rule:evenodd;stroke:none"/><path d="M327 2802.5c781.355 1.426 1563.485-.26 2345 .5v-3c-12.216 1.862-24.709.471-36.999 1H362.881c-11.276-.349-24.632.682-34.881-1 .022.935-.325 1.723-1 2.5M976.5 743c.892-1.422.409-3.807 0-5-2.048 1.382-1.686 3.682 0 5m31 349c.479-1.29.527-2.648.5-4h-2c-.029 1.458 1.113 2.786 1.5 4m-1.5 55.625c.909.809 2.673.949 4 1.375-.06-1.884.211-4.552-.5-6-1.337 1.343-2.672 3.116-3.5 4.625m4-485c3.489-1.319 4.94-5.068 8-7.125-3.652.703-6.237 4.55-8 7.125m18 1103.625c7.276 1.978 14.454-.228 22.042.75h675.344c6.073-.42 15.59 1.252 19.614-2.5-119.287 1.426-239.234-.26-358.659.5h-337.64c-6.36.722-15.83-1.139-20.701 1.25m33 467.2c2.16.194 4.59-2.35 7-2.95-2.671-.747-5.372.953-7 2.95m40-214.075c3.412-.019 5.73-3.054 9-3.875-2.931-.779-6.451 1.914-9 3.875m18-553.125c.793 1.224 3.366.598 4.476.532l.524-.282c-1.39-1.814-3.594-1.743-5-.25m18-850.062c1.985 1.713 6.763.349 9 .312-1.526-.798-3.134-1.439-4.5-2.5-1.211 1.186-3.141 1.58-4.5 2.188m21-.063c.648 1.278 2.926.717 4 .875l-.25-2c-1.262.322-2.468.768-3.75 1zm90 62.125c.936 1.357 3.982.468 5.246.524l.754-.274c-2.095-1.414-3.877-1.24-6-.5zm20.5 606.75c.679-1.95.553-4.038 0-6-.149.912-.675 1.802-1.5 2-.027 1.453 1.11 2.797 1.5 4m21.5-607.875c2.566 2.004 8.481.06 11.415.81a7.4 7.4 0 0 0 2.585-.435c-4.125-2.61-9.816-1.477-14-.375m20 1798c.648 1.278 2.926.717 4 .875l-.25-2c-1.262.322-2.468.768-3.75 1zm1-415.75c1.11.398 2.13-1.412 2.972-1.897 2.41-2.267 4.66-4.686 7.028-6.978-4.61 1.251-6.754 5.8-10 8.875M1329 2477v-2h-3c-.233 1.662.855 2.166 2.208 2zm6-1806.375c3.124-.99 4.314-4.406 7-6.125-2.925.176-5.798 4.21-7 6.125m5 1173.75c1.064.322 2.002-1.194 2.976-1.851l5.024-5.024c-2.888-.398-5.286 4.05-6.884 5.598-.364.404-.837.86-1.116 1.277m19 633.75c.648 1.278 2.926.717 4 .875l-.25-2c-1.262.322-2.468.768-3.75 1zm4-846.937c.763 1.269 3.359.692 4.486.592l.514-.28c-1.456-2.023-3.397-.822-5-.5zm14 848.062c2.025 1.576 6.763.34 9 .25-2.395-1.318-6.118-2.46-9-.25m31 1c1.508 1.374 4.728.271 6.914.75 2.214-.108 5.363.185 7.086-.5-2.233-2.444-4.17-1.802-6.921-1.635-2.596-.168-5.243-.493-7.079 1.385m77-1865c1.26 1.516 4.489.33 6 .25-1.938-.356-4.044-2.154-6-.25m34-1.094c1.435 1.497 4.796.356 6.978.844 2.573-.08 5.735.191 8.022-.5-5.15-3.096-9.937-1.733-15-.344m36 .094c.698 1.173 2.946.55 4 .75v-2c-1.431-.087-2.979.123-4 1.25m10.5 961.75c1.063-3.927.27-9.746 0-13-1.138 2.043-1.397 4.097-.876 6.29.302 2.104-1.03 4.833.876 6.71m7-82c1.426-36.54-.26-73.39.5-110h-2v83.38c.841 8.461-1.341 19.173 1.5 26.62m16.5-150.875c2.487 2.09 8.37-.08 11.254.875 10.855-.633 21.965.8 32.746-.5-5.442-2.74-13.852-.848-21.075-1.5-7.363.382-16.335-.757-22.925 1.125m40-403.5c3.124-.99 4.314-4.406 7-6.125-2.925.176-5.798 4.21-7 6.125m44 402.5c1.9 1.788 6.797.42 9 .375-3.082-1.897-5.999-1.595-9-.375m29-1c1.364 1.72 5.348.487 7 .375-2.42-1.725-4.558-1.38-7-.5zM1723 850c1.022.039 2.102.488 3 .5-2.226-1.367-1.315-5.545-3-6.5zm252 372.375c1.62 2.047 3.79 3.655 5.5 5.625-.01-2.651-3.766-5.083-5.5-6z" style="fill:#f0f0e1;fill-rule:evenodd;stroke:none"/></svg>