<svg xmlns="http://www.w3.org/2000/svg" width="3000" height="3000"><path d="M364 2760.5v1.5h2272v-1.5c-68.931-409.09-136.257-818.54-204.874-1227.691-51.076-306.848-102.33-613.661-153.4-920.497-4.868-28.824-9.564-57.688-14.431-86.508-1.116-7.008-2.365-13.985-3.488-20.978-1.2-6.774-.246-15.245-9.425-16.859-109.868-36.632-219.702-73.24-329.563-109.867-95.996-32.013-192.02-63.992-288-96-41.993-13.978-83.98-28.011-125.966-41.994-5.663-2.605-10.407-1.693-15.513.621-156.173 52.06-312.354 104.114-468.521 156.173-58.68 19.531-117.334 39.097-175.992 58.657-25.668 8.506-51.298 17.139-76.962 25.643-6.176 2.075-12.369 4.11-18.537 6.195-3.02 1.124-6.483 1.813-8.8 4.255-62.934 375.423-125.132 751.075-187.889 1126.544C490.857 1998.664 428.048 2380.37 364 2760.5m658-164.875c2.166 1.818 4.508 3.346 6.5 5.375 51.044-32.813 98.136-73.552 131.892-124.514 54.032-77.466 78.513-171.617 86.129-264.69 8.45-103.337 4.334-207.236 5.479-310.796h545c-7.662 40.397-15.964 80.977-28 120.33 6.434 7.066 12.325 2.922 18.968-.387 32.505-15.814 63.454-34.496 94.408-53.07 15.526-9.322 30.353-19.75 45.093-30.24 3.809-2.722 7.281-5.903 11.387-8.162 12.76-2.067 29.782-1.189 37.144-12.971-39.066-36.591-77.437-73.913-116.5-110.5l-52.475 52.475c-6.359 5.676-14.148 16.622-21.885 16.513-73.054.034-146.087-.006-219.14.012v-82h304.8c11.182-.157 27.78-.881 33.2-14.5-42.504-33.494-84.184-68.689-128-100.5-12.673 14.589-24.211 30.436-36.637 45.29-8.975 11.367-18.136 22.588-27.13 33.931-3.32 4.455-6.106 9.761-13.411 8.777-44.274.005-88.549 0-132.822.002v-66.6c.09-5.346-1.323-12.627 4.54-13.565 7.05-1.671 15.414-4.149 20.82-8.156 5.833-4.186 9.27-10.78 10.64-17.679-60.444-2.48-120.57-10.39-181-13v228h-85.2c-21.274-1.02-42.777 1.25-63.977-.687-53.595-16.704-106.127-37.067-159.823-53.313v207.6c-.099 100.563.98 201.48-10.517 301.555-5.575 47.539-13.447 95-26.423 141.125-12.309 43.346-30.687 85.55-53.06 124.345M1037 761.5c2.491 8.104 5.443 17.866 7 25.5h134v110.4c-.37 25.763-1.178 53.534 12.73 76.619 8.518 15.672 23.841 25.402 40.271 31.108 27.942 9.026 57.605 10.479 86.672 12.11 30.533 1.169 61.102.611 91.641.763 106.57-.945 213.21 1.625 319.722-2.042 37.761-1.786 75.853-3.378 112.82-11.93 14.8-3.556 29.669-9.586 40.594-20.443 9.196-10.976 13.986-26.197 11.582-40.522-1.911-13.551-13.431-25.931-24.298-31.221-11.407-6.559-24.117-10.354-36.824-13.37-13.775-4.778-24.72-1.326-37.205 1.888-47.01 10.23-95.075 12.9-143.142 12.878-76.11 1.156-152.238.622-228.348.762h-57.473c-13.044-.467-29.4.596-40.633-4.561-8.822-5.103-6.695-19.089-7.109-27.276V787h616.2c10.23.525 24.634-1.672 29.8-14.5-20.425-18.187-42.04-35.048-63.8-51.61-21.75-16.383-42.878-33.644-64.7-49.89-23.06 30.16-48.386 59.312-70.5 90h-200v-84c9.832-1.356 21.488-4.791 28.65-10.51 2.503-4.041 6.788-7.76 6.769-13.02.97-3.566-3.87-3.366-5.713-3.48-2.649-.067-5.28-.227-7.914-.431-8.568-.529-17.14-1.17-25.688-1.784-12.774-1.102-25.571-2.168-38.37-2.815-33.254-2.161-66.448-5.538-99.734-6.96v123h-387zm112 1832.75c1.171 2.847 3.579 5.81 4 8.75 47.028-9.259 93.203-23.699 137.761-41.265 64.984-25.717 125.958-67.243 163.145-127.598 19.348-30.022 30.89-64.212 39.006-98.77 4.464-18.301 6.9-36.963 9.708-55.536.67-5.396 6.795-4.896 10.976-5.977 12.694-2.065 24.773-10.608 27.404-23.854-64.006-6.74-128.065-13.655-192-21 1.788 40.538 4.181 81.436-1.908 121.793-7.763 54.678-29.621 107.906-66.655 149.342-35.564 41.187-81.804 72.099-131.437 93.865zM1213 1594c32.116.89 64.565-1.874 94.848-13.462 13.595-4.917 29.415-11.781 39.972-19.992 5.3-4.002 12.517-9.19 12.157-18.045.066-8.166-.012-16.337.023-24.501h302v70c43.232 1.47 86.597-5.588 126.467-22.84 9.635-4.539 23.01-8.759 21.533-20.11V1143c12.612-1.362 25.775-8.133 34-17.5-21.48-17.176-43.756-33.352-65.407-50.304-19.068-14.708-38.225-29.275-57.445-43.771-4.879-4.226-9.162 2.115-12.414 5.665-13.954 15.561-28.547 30.517-42.967 45.643-3.44 3.1-6.318 6.704-9.297 10.206-3.626 4.482-8.359 4.29-13.31 4.061h-262.351c-15.695.727-29.96-6.654-44.304-12.19-41.063-16.115-82.478-31.713-123.505-47.81zm58 457c47.08-2.417 93.889-9.262 141-11 .316 23.973-.602 47.978.857 71.91 1.333 16.178 5.003 32.452 13.062 46.66 13.574 21.387 39.801 29.078 63.342 32.275 25.804 3.755 51.938 4.145 77.97 4.155 78.86-.825 158.008 2.015 236.714-4.226 18.592-1.642 37.237-3.436 55.457-7.636 13.117-2.934 26.414-6.72 37.303-15.017 16.393-12.212 22.35-35.885 15.392-54.755-6.742-18.834-27.292-28.3-45.097-33.366-1.773-11.747-1.1-23.736-2.29-35.553-.929-11.792-1.53-23.618-1.71-35.447h-8c-5.798 13.545-15.456 28.419-22.348 40.026-7.467 10.527-16.14 23.325-24.848 31.455-10.027 8.23-23.33 8.95-35.607 9.517-47.49 1.633-95.009.705-142.511 1.002-23.463-.788-47.247 1.38-70.584-1.774-4.88-.865-9.912-3.807-11.46-8.891-1.792-17.316.294-34.959-.642-52.335 60.325-4.936 120.608-10.388 180.94-15.244 7.52-.488 15.306-1.037 22.043-4.803 2.899-1.45 5.386-3.61 7.459-6.08 1.415-1.862 4.087-6.192 2.36-7.926-16.638-13.249-35.013-24.603-52.786-36.283-8.495-5.764-17.451-10.77-25.903-16.59-8.805-5.029-17.022-11.717-26.113-16.074-5.159 10.438-13.702 19.392-19.649 29.461-4.856 7.354-9.93 14.578-14.928 21.834-3.938 5.339-7.497 10.954-11.317 16.371-2.835 4.247-9.542 3.32-14.041 4.014-15.982 1.946-32.115 2.297-48.065 4.32v-54c11.87-1.026 28.643-7.482 30-23-54.946-4.469-110.05-7.585-165-12v100c-49.574 5.126-99.41 8.019-149 13 1.094 9.044 6.904 16.944 8 26m89-825h302v-103h-302zm0 131h302v-104h-302zm0 135h302v-108h-302zm576 831h-8c-14.333 36.771-27.951 74.326-47.132 108.97-3.524 6.235-7.62 12.544-13.916 16.314-6.502 3.95-14.358 3.835-21.645 3.716h-88.99c-10.34-.327-23.541 2.24-29.086-7.06-3.751-8.751-1.453-18.863-2.231-28.047V2315.14c.646-16.837-.79-33.835.432-50.624.868-3.303 7.219-2.581 9.456-4.04 10.253-2.733 20.545-10.222 22.112-21.477-57.689-3.882-115.358-8.722-173-13v237.03c-.277 18.22.4 36.514 3.8 54.447 2.43 14.084 7.989 27.667 17.708 38.305 18.697 17.986 45.66 21.488 70.207 23.813 42.541 2.187 85.245 1.24 127.828.956 40.46-1.05 81.68-2.916 120.7-14.812 20.919-6.8 42.009-19.252 50.544-40.758 6.59-16.754 6.685-36.12-.51-52.755-4.695-12.121-16.778-18.952-27.51-24.658-2.304-.884-4.486-1.995-6.462-3.463-4.72-39.437-.611-81.213-4.305-121.105" style="fill:#fda;fill-rule:evenodd;stroke:none"/><path d="M1020 2595.375c2.43 2.896 6.053 4.708 8.5 7.625 50.86-33.394 98.552-73.407 132.363-124.712 54.31-77.45 78.922-171.763 86.604-264.96 8.547-103.52 4.363-207.593 5.533-311.328h543c-8.048 37.881-15.153 76.121-26.267 113.276-.654 2.08-1.464 4.693-1.184 6.716 6.452 9.16 14.2 2.782 22.186-.886 22.579-11.185 44.375-23.856 66.292-36.254 17.119-10.199 34.129-20.642 50.7-31.686a553 553 0 0 0 25.057-17.764c7.947-7.247 19.669-5.007 29.427-8.218 5.937-1.862 13.615-5.49 15.789-10.684-39.531-37.476-78.973-75.028-118.5-112.5l-52.475 52.475-10.127 10.127c-2.933 2.7-5.761 6.951-10.785 7.287-73.042.316-146.077-.057-219.113.111v-80h263.4c14.616-.017 29.233.02 43.844-.011 12.55-.104 29.568-3.515 30.756-16.989-43.429-32.62-84.86-69.767-129.5-101-12.228 14.956-24.148 30.182-36.267 45.221-9.067 11.384-18.238 22.668-27.256 34.08-3.31 3.855-6.1 9.987-12.4 9.679-44.198.057-88.383-.01-132.577.02v-67.2c-.203-2.939.105-5.792.496-8.677 1.922-3.343 9.185-2.352 11.992-4.458 12.21-2.739 22.985-12.496 23.512-25.665-61.114-2.319-121.885-10.813-183-13v228h-117.6c-9.33-.376-18.746.494-28.044-.354-54.803-17.059-108.61-37.425-163.356-54.646v208.2c-.108 100.852 1.009 202.125-10.582 302.487-9.916 92.194-31.194 185.91-80.418 265.688M1043 788h134v110.4c-.37 25.763-1.178 53.534 12.73 76.619 8.518 15.672 23.841 25.402 40.271 31.108 27.942 9.026 57.605 10.479 86.672 12.11 30.533 1.169 61.102.611 91.641.763 106.845-.953 213.772 1.626 320.575-2.02 37.946-1.632 76.247-3.363 113.408-11.822 14.839-3.528 29.73-9.478 40.823-20.208 9.414-10.836 13.843-25.828 12.336-40.11-3.454-30.999-37.113-41.03-59.857-46.935-12.101-4.347-24.78-3.354-36.763.593-47.148 10.703-95.447 13.46-143.714 13.69-75.896 1.18-151.822.714-227.713.812h-57.472c-13.334-.309-29.742.616-41.443-3.884-10.322-4.282-7.876-17.826-8.494-26.311V788h612c9.084.174 18.908.205 26.74-5.214 2.881-1.988 5.57-4.709 6.368-8.245 1.121-3.563-2.724-6.6-4.973-8.233-40.19-33.668-82.421-64.935-123.635-97.308-12.371 14.747-23.954 30.188-36.087 45.124C1789.278 729.75 1775.459 744.08 1765 760h-198v-82c8.113-1.305 17.766-3.686 24.39-7.414 7.273-4.484 11.005-12.41 12.61-20.586-59.85-5.877-120.767-7.97-180.5-14-1.426 41.203.26 82.73-.5 124h-387c.866 9.619 5.966 18.393 7 28m110.5 1817c46.66-11.68 94.215-23.433 138.734-42.467 65.285-25.922 126.5-67.797 163.525-128.731 19.263-30.348 30.671-64.794 38.663-99.614 4.857-18.113 6.155-36.955 9.817-55.221 1.14-4.21 9.628-2.64 12.492-4.654 12.278-2.382 24.358-12.039 25.269-25.313-65.006-5.627-130.055-15.386-195-20.5 9.068 76.12 2.449 158.216-35.936 226.349-36.078 63.603-97.035 109.348-163.064 138.151.545 4.115 3.65 9.219 5.5 12m58.5-1010c32.351.885 65.18-1.327 95.727-13.08 13.817-4.912 29.84-11.895 40.664-20.036 5.168-4.049 12.647-9.005 12.567-17.793.117-8.365-.019-16.728.042-25.091h300v70c22.66-.094 45.636.192 67.905-4.694 15.798-3.147 31.28-7.694 46.573-12.696 10.85-4.495 22.372-8.07 32.015-15.05 4.065-2.697 3.668-8.66 3.507-12.909V1144c13.07-1.27 27.569-9.235 35-18.5-20.943-17.36-43.335-32.996-64.622-49.927-10.978-8.413-21.92-16.822-32.898-25.216-11.166-6.99-20.38-17.359-32.136-23.357-14.564 15.865-30.042 30.919-44.167 47.182-3.226 3.508-6.727 6.773-10.044 10.191-3.302 3.124-5.641 7.243-9.334 9.952-3.368 2.65-9.56 1.221-14.233 1.675h-261.15c-8.189.635-15.85-2.325-23.138-5.697-47.625-17.374-94.453-37.686-142.278-54.303zm49 429.284c2.311 9.075 7.373 19.259 9 27.716 47.09-2.07 93.902-9.075 141-11 .316 23.962-.602 47.988.857 71.91 1.333 16.178 5.003 32.452 13.062 46.66 13.574 21.387 39.801 29.078 63.342 32.275 25.804 3.755 51.937 4.145 77.971 4.155 79.532-.831 159.331 2.061 238.71-4.225 18.98-1.676 38.042-3.51 56.62-7.9 13.04-2.967 26.176-6.96 36.936-15.304 16.125-12.86 21.48-36.542 14.803-55.652-6.573-19.15-27.288-28.844-45.301-33.919-1.773-11.747-1.1-23.736-2.29-35.553-.929-11.792-1.53-23.618-1.71-35.447h-10c-5.716 13.4-15.298 28.103-22.06 39.61-7.449 10.575-16.128 23.335-24.775 31.559-9.65 8.4-22.805 9.068-34.81 9.76-46.873 1.736-93.778.762-140.67 1.071-23.284-.448-46.728.923-69.938-1.425-5.216-.726-10.426-2.946-12.545-7.784-2.53-8.26-.274-17.323-1.202-25.792V2029c60.898-5.003 121.778-10.497 182.687-15.39 7.722-.435 15.703-1.481 22.338-5.832 4.444-2.639 11.683-11.073 7.174-15.478-33.506-25.008-69.827-46.32-104.699-69.3-13.543 19.095-26.547 38.63-39.987 57.81-3.573 4.372-6.586 11.367-10.7 13.733-18.492 3.144-37.982 2.05-56.313 5.457-1.391-17.207.224-34.735-.5-52 14.574-.415 28.813-9.782 31-25-55.985-4.033-111.997-8.068-168-12v100c-49.909 5.073-100.055 8.216-150 13zM1361 1225h300v-101h-300zm0 131h300v-102h-300zm0 135h300v-106h-300zm576 831h-10c-14.333 36.771-27.951 74.326-47.132 108.97-3.524 6.235-7.62 12.544-13.916 16.314-6.502 3.95-14.358 3.835-21.644 3.716h-88.387c-10.104-.086-23.46 1.947-28.108-7.892-3.142-9.054-1.089-19.061-1.813-28.41v-126.272c.04-6.387-.05-12.776.028-19.159-.44-6.12 3.551-6.854 8.122-7.3 9.982-2.423 23.563-9.867 23.85-23.967-58.356-3.758-116.661-9.108-175-13v238.631c-.301 18.123.383 36.313 3.667 54.17 2.38 14.319 7.967 28.17 17.841 38.98 18.987 18.287 46.4 21.549 71.28 23.943 43.012 1.909 86.13 1.221 129.162.819 40.32-1.056 81.411-2.964 120.294-14.804 21.035-6.836 42.371-19.448 50.711-41.236 6.45-16.91 6.523-36.37-.26-53.232-4.439-12.534-16.56-19.652-27.514-25.51-2.265-.945-4.49-1.914-6.46-3.376-1.95-1.305-1.403-4.97-1.716-6.634-.009-19.258-1.074-38.494-1.315-57.738-.555-19.012-.48-38.033-1.69-57.013" style="fill:#000;fill-rule:evenodd;stroke:none"/></svg>