<svg xmlns="http://www.w3.org/2000/svg" width="3000" height="3000"><path d="M449 2666.5v1.5h2102v-1.5c-63.81-378.768-126.215-757.87-189.705-1136.696-47.349-283.998-94.654-568.016-142-852-4.398-26.67-8.911-53.338-13.325-80.003-1.118-6.656-2.232-13.342-3.35-19.985-.571-3.586-1.119-7.183-2.096-10.662-1.288-2.958-6.82-3.128-9.193-4.54-101.51-33.828-203.017-67.663-304.512-101.514a746151 746151 0 0 1-266.522-88.84c-39.072-12.89-78.06-26.135-117.144-38.98-4.713-1.335-9.273 1.032-13.839 2.453-144.507 48.104-288.95 96.378-433.449 144.467-54.18 18.08-108.385 36.116-162.566 54.195-23.808 7.923-47.625 15.882-71.434 23.805-5.676 1.96-11.407 3.738-17.06 5.726-6.564 1.113-6.72 8.744-7.34 13.268C740.08 921.349 682.77 1265.54 625.383 1609.692 566.339 1961.663 508.308 2314.864 449 2666.5m592-1477c2.5 2.21 6.136 2.936 8.5 5.5 18.953-14.2 38.222-28.073 55.884-43.925 9.312-7.816 18.229-16.044 27.18-24.244 4.375-4.135 8.505-8.5 12.806-12.701 4.551-3.556 8.493-10.317 13.63-11.13v485c19.624-.143 39.573.273 58.83-4.201 13.38-3.1 26.465-7.325 39.013-12.926 9.033-3.853 17.718-8.536 25.657-14.304 7.564-5.305 5.16-15.295 5.5-22.44v-506.477c.015-5.211-.018-10.387.01-15.591.136-1.705.131-4.147.727-5.452 8.574-5.051 23.306-4.403 27.263-18.609-17.866-4.01-34.248-13.667-52-18-.188-5.672 3.778-10.131 6.679-14.572 21.707-34.675 40.771-70.963 57.806-108.113 8.716-18.893 16.668-38.142 24.383-57.46 2.123-4.91 3.75-10.04 6.137-14.83 1.25-3.941 7.757-2.706 10.762-3.11 10.98-.747 23.41-6.945 27.233-17.915-59.189-16.539-117.634-36.183-177-52-14.656 87.43-39.265 173.241-69.9 256.356-14.157 40.661-31.548 80.15-49.185 119.374-8.68 19.847-18.87 38.913-28.852 58.115-9.593 18.1-20.285 36.466-31.063 53.655m20 1320.25c1.387 3.032 4.932 6.279 6.55 8.446 1.908 3.085 7.26-1.059 9.39-1.668 34.998-16.241 68.978-34.62 102.07-54.427 49.446-30.337 97.053-64.751 138.223-105.834 63.18-60.236 110.3-135.878 142.328-216.653 16.075-42.82 28.636-86.945 36.43-132.06 6.992-45.878 14.7-92.076 16.009-138.554h4c7.106 128.46 22.944 258.754 69.38 379.66 22.159 56.162 53.523 108.88 93.11 154.506 19.844 23.314 43.064 43.475 67.23 62.11 23.725 18.32 49.823 32.97 75.78 47.724 9.031-42.741 29.595-85.68 65.147-112.686 15.702-11.174 33.429-19.71 52.271-24.074 2.177-.517 4.383-1.021 6.418-1.941 3.572-3.117 1.114-10.023-2.6-10.81-66.825-22.637-132.278-51.386-189.908-92.593-42.933-31.183-80.656-69.408-111.23-112.766-45.889-66.086-73.258-143.21-90.53-221.252-16.277-81.304-27.097-163.981-30.068-246.878 13.43.148 30.161-6.99 34-23.5-59.505-5.822-119.362-11.481-179-16.5-2.01 86.007.111 172.2-6.727 258.016-4.687 60.403-12.78 120.783-27.183 179.649-20.723 83.735-54.703 164.809-104.064 235.795-24.275 35.299-50.543 69.339-80.759 99.773-15.425 15.524-30.676 31.238-47.365 45.382-15.601 13.984-31.736 28.543-48.902 40.385zM1350 1312c15.888.423 31.799.334 47.482-2.437 21.047-3.499 41.261-11.37 60.203-20.962 7.878-4.962 20.282-10.345 20.263-22.345.149-12.092-.027-24.18.052-36.256h80v356c19.892.31 39.849.026 59.498-3.443 13.89-3.26 27.892-6.53 41.014-12.283 9.186-3.935 18.427-8.24 26.178-14.667 7.488-6.13 4.831-15.223 5.31-23.644V1230h83v65c20.45.353 41.102.93 61.15-3.933 13.992-3.102 27.912-6.757 41.553-11.14 8.516-3.645 20.999-6.236 28.995-12.828 2.801-7.55.237-18.534 1.302-26.461V958c13.574-2.204 27.506-8.177 36-19.5-40.535-29.51-80.022-60.855-120.5-90.5-17.3 18.17-33.181 37.646-50.412 55.888-1.872 2.374-4.298 5.054-6.575 6.644-4.902 3.027-13.006.399-18.35 1.468H1690V761c9.144-1.532 20.282-3.93 27.512-8.709 7.793-4.899 12.616-13.208 14.488-22.291-58.075-4.355-115.932-11.685-174-16v198h-60c-7.348.204-14.87.523-21.746-2.5-42.124-15.993-83.988-32.983-126.254-48.5zm128-106h80V937h-80zm212 0h83V937h-83z" style="fill:#fda;fill-rule:evenodd;stroke:none"/><path d="M1040 1191c2.958.97 6.417 3.636 8.9 4.502 6.1-1.261 9.57-6.892 15.13-9.578 14.722-10.785 28.857-22.355 42.728-34.195 17.867-14.866 34.56-31.037 50.742-47.729 1.426 161.494-.26 323.416.5 485 19.938-.097 40.142.362 59.74-3.952 13.54-3.163 26.885-7.174 39.558-12.96 9.237-3.862 18.09-8.662 26.202-14.52 7.684-5.469 5.065-15.744 5.5-23.04v-507.075c.055-5.206-.07-10.394.045-15.586.241-1.596.338-4.034 1.295-5 5.53-1.777 12.396-3.497 16.972-6.399 5.968-2.524 7.599-7.406 10.688-11.968-7.488-4.385-18.184-6.267-25.366-9.792-9.124-2.505-19.182-7.836-27.634-9.708.571-5.501 5.388-9.336 7.566-14.12 21.67-34.724 40.71-71.116 57.697-108.33 8.764-18.963 16.652-38.28 24.38-57.682 2.042-4.897 3.79-9.934 6.301-14.605 3.199-2.244 8.562-.578 12.11-1.535 11.103-1.433 22.59-8.615 25.946-19.728-29.998-7.602-59.31-18.085-89.185-26.196-29.657-9.049-59.902-17.275-89.315-26.804-.45.458-.96.911-1.5 1.25-14.695 87.923-39.628 174.086-70.447 257.642-14.455 40.707-31.636 80.428-49.456 119.74-9.018 19.74-18.86 39.047-29.029 58.205-4.977 9.317-10.598 18.288-15.47 27.664-2.67 4.496-5.402 8.94-8.047 13.443-2.001 4.247-6.065 8.683-6.551 13.056m19 1318.5c2.162 4.657 6.859 7.917 9.25 12.5 31.56-14.01 62.21-30.314 92.225-47.388 52.383-29.274 100.897-64.879 145.331-105.102 65.521-61.701 118.386-136.864 151.493-220.811 17.015-43.749 30.62-88.978 38.716-135.292 4.608-23.82 7.394-47.968 10.924-71.947 2.084-23.789 6.116-47.529 6.061-71.46h2c7.06 128.799 23.086 259.411 69.717 380.607 22.354 56.376 53.937 109.022 93.776 154.76 40.837 44.466 89.546 83.21 144.507 108.633 5.614-33.985 20.977-67.108 43.616-93.098 11.658-12.466 24.489-24.185 40.276-31.356 7.99-4.32 16.539-7.285 25.085-10.226 4.135-1.256 8.383-1.994 12.49-3.31 5.05-.709 2.572-8.663 4.533-11.51-67.151-23.02-133.84-50.693-191.861-92.406-43.38-30.585-81.282-68.787-112.302-111.812-46.622-66.145-74.78-143.522-92.246-222.049-16.641-81.39-27.33-164.2-30.591-247.233 14.208-.704 32.15-6.613 34-26-60.414-4.035-120.572-12.314-181-16-2.001 86.198.105 172.583-6.766 258.583-4.733 60.374-12.78 120.757-27.269 179.583-20.778 83.943-55.031 165.059-104.539 236.17-48.484 70.81-109.006 133.902-177.426 185.664zM1349 1313c15.92.124 31.928.6 47.664-2.198 21.016-2.691 44.333-12.352 61.523-20.938 8.01-5.004 20.693-10.48 20.76-22.608.15-12.092-.026-24.18.053-36.256h78v356c20.32.427 40.653.07 60.74-3.284 13.995-3.117 28.013-6.6 41.256-12.206 9.344-4.056 18.811-8.325 26.694-14.903 7.188-5.25 5.147-16.704 5.31-24.243V1231h81v65c20.782.22 41.782 1.023 62.197-3.74 14.339-3.103 28.528-6.917 42.506-11.333 8.516-3.645 20.999-6.236 28.995-12.828 2.801-7.55.237-18.534 1.302-26.461V959c14.357-2.001 28.025-8.994 37-20.5-40.862-30.779-81.728-61.61-122.5-92.5-17.733 17.805-33.05 37.782-50.536 55.81-4.055 6.354-8.867 10.042-16.007 9.19H1691V762c9.304-1.548 20.623-4.003 27.912-8.97 9.707-5.68 11.362-14.572 15.088-23.53-58.496-6.729-118.157-10.207-176.5-17.5-1.426 66.199.26 132.733-.5 199h-60.6c-13.797.875-26.453-5-38.93-10.2-36.194-13.713-72.342-28.087-108.47-41.8zm130-108h78V938h-78zm212 0h81V938h-81z" style="fill:#000;fill-rule:evenodd;stroke:none"/></svg>