<svg xmlns="http://www.w3.org/2000/svg" width="3000" height="3000"><path d="M407 2715h2186c-120.11-729.14-243.257-1457.94-364-2187-121.653-40.09-243.099-81.112-364.7-121.395-91.164-30.407-182.32-60.766-273.474-91.162a32206 32206 0 0 1-51.529-17.183c-8.003-2.659-16.01-5.346-24-8-7.038-2.654-14.998-6.446-23.453-2.372-120.19 40.07-240.392 80.12-360.578 120.183C1011.124 447.878 891.186 488.387 771 528c-120.737 729.033-243.897 1457.913-364 2187m859-665.5c3.15 4.73 1.85 12.459 5.5 16.5 97.08-11.151 196.721-26.822 286.463-68.447 64.83-28.937 124.091-74.185 161.756-135.21 29.234-47.275 42.204-102.595 45.123-157.56 1.279-42.747-1.232-86.414-16.4-126.94-18.62-56.404-64.004-104.242-121.196-121.776-30.716-9.832-63.445-11.82-95.312-9.314-31.18 2.561-61.177 11.62-90.628 21.644-41.783 13.559-82.03 31.94-124.472 43.409-11.411 2.948-23.186 3.574-34.899 3.15-16.586-1.101-30.02-18.005-38.042-29.132-4.335-6.262-8.314-12.747-11.767-19.54-2.16-3.317-3.082-8.295-5.69-10.508-3.665-1.095-7.718.122-11.436.224-8.653 23.596-18.646 51.971-20.35 75.255-3.395 19.955 2.788 40.043 12.723 57.204 13.536 24.258 31.78 46.529 54.961 62.125 11.94 7.737 25.89 13.78 40.371 13.416 14.826.34 28.703-7.062 39.864-16.168 26.5-23.645 51.08-49.382 76.897-73.76 26.185-22.5 52.13-46.996 84.705-60.136 15.797-6.579 33.5-9.55 50.553-7.27 15.485 2.263 30.411 9.69 40.174 22.236 18.112 22.966 25.017 57.563 28.772 83.32 7.223 54.463 4.004 110.73-11.411 163.483-21.316 74.508-74.573 135.4-137.826 178.071-63.024 44.429-135.525 72.448-208.433 95.724m20-864c9.277 32.801 30.036 61.816 58.368 80.67 14.055 10.1 29.855 17.424 46.323 22.57 16.9 4.958 33.817 10.735 51.309 13.26-.324 5.688-9.072 8.424-13.54 12.343-34.38 24.407-71.475 44.78-106.46 68.157 1.993 3.016 4.12 7.64 5 10.5 50.466-14.254 100.623-30.823 151.64-43.384 39.74-10.03 80.535-13.64 121.322-15.8 16.035-1.214 32.266-.159 48.2-2.365 12.582-1.607 24.876-7.352 31.799-18.47 14.502-21.35 1.994-44.628-13.694-60.213-24.203-22.567-55.423-37.935-88.371-42.262-16.788-2.617-33.41.544-49.29 6.33-17.016 5.286-34.921 6.25-52.582 6.904-28.464 1.172-56.92-1.224-85.143-4.503-26.718-2.938-53.361-9.85-76.76-23.483-4.895-2.517-9.71-5.163-14.146-8.43-2.135-1.95-4.991-2.897-7.208-4.619-2.42-.574-4.638 2.126-6.767 2.295z" style="fill:#fda;fill-rule:evenodd;stroke:none"/><path d="M1265 2048c1.256 5.939 3.031 14.593 5.5 19 76.32-8.696 153.233-19.06 226.2-44.395 52.032-16.22 101.627-40.373 145.276-73.082 32.056-24.677 60.27-54.56 80.665-89.65 32.884-54.787 44.61-119.925 43.359-183.052.18-31.014-5.775-67.557-14.74-94.525-9.27-28.472-23.508-56.256-44.97-77.543-28.37-33.625-71.67-52.086-114.412-57.744-34.193-4.177-69.464-2.88-102.938 5.77-49.484 12.612-96.604 32.686-144.64 49.614-11.939 3.854-23.908 7.914-36.32 9.953-9.584 1.46-21.299 2.564-30.14.972-13.344-4.127-22.924-15.262-31.145-25.887-7.151-10.422-15.183-23.309-18.695-34.431-4.584 1.19-9.316 1.527-14 2-8.864 24.616-18.096 49.734-20.521 76.066-1.162 9.967-.584 22.059 1.58 30.99 9.825 32.035 30.375 59.615 55.4 81.291 12.145 10.76 29.984 19.641 44.803 21.51 9.03.821 18.164.191 26.685-3.066 7.622-3.163 14.891-7.377 21.258-12.637 26.947-23.924 51.766-50.157 78.033-74.803 26.696-22.676 53.074-47.715 86.451-60.416 15.115-6.403 35.127-8.765 49.876-5.531 15.149 2.665 29.276 11.462 38.23 24.003 17.44 23.222 23.404 57.86 27.187 83.354 6.74 53.748 3.321 109.523-12.533 161.38-21.703 74.11-75.394 134.257-138.44 176.608-62.77 43.36-134.333 72.304-207.009 94.251m19-862.75c6.602 15.445 11.837 32.051 22.28 45.668 13.134 20.752 37.474 38.117 57.11 48.272 12.249 6.502 25.627 10.298 38.798 14.38 12.44 3.426 27.062 7.834 38.812 9.43-.756 2.782-4.734 4.235-7.242 6.138-37.064 25.475-75.437 48.908-113.758 72.362 3.106 3.943 4.361 10.061 7.5 13.5a2612 2612 0 0 1 161.158-46.381c42.64-9.56 86.369-12.972 129.945-14.488 16.12-.74 33.713.774 48.497-7.3 11.648-6.575 19.942-18.948 20.24-32.492.154-24.297-18.007-43.695-36.951-56.408-28.16-20.726-70.16-33.3-102.12-27.87-17.333 4.573-34.275 10.954-52.442 11.58-19.52 2-39.151 1.387-58.693.605-26.364-1.442-53.006-4.132-78.766-9.995-24.288-6.078-46.546-17.957-66.868-32.251-2.202 1.745-5.35 4.082-7.5 5z" style="fill:#000;fill-rule:evenodd;stroke:none"/></svg>