<svg xmlns="http://www.w3.org/2000/svg" width="3000" height="3000"><path d="M449 2666.5v1.5h2102v-1.5c-63.81-378.768-126.215-757.87-189.705-1136.696-47.349-283.998-94.654-568.016-142-852-4.398-26.67-8.911-53.338-13.325-80.003-1.118-6.656-2.232-13.342-3.35-19.985-.571-3.586-1.119-7.183-2.096-10.662-1.288-2.958-6.82-3.128-9.193-4.54-101.51-33.828-203.017-67.663-304.512-101.514a746151 746151 0 0 1-266.522-88.84c-39.072-12.89-78.06-26.135-117.144-38.98-4.713-1.335-9.273 1.032-13.839 2.453-144.507 48.104-288.95 96.378-433.449 144.467-54.18 18.08-108.385 36.116-162.566 54.195-23.808 7.923-47.625 15.882-71.434 23.805-5.676 1.96-11.407 3.738-17.06 5.726-6.564 1.113-6.72 8.744-7.34 13.268C740.08 921.349 682.77 1265.54 625.383 1609.692 566.339 1961.663 508.308 2314.864 449 2666.5m623-153.25c1.421 3.014 3.461 6.428 5.5 8.75 77.937-13.242 156.093-31.414 229.651-61.465 36.142-14.233 71.605-30.278 105.417-49.42 16.594-9.039 32.44-19.248 47.877-30.091 7.971-5.082 14.996-13.696 25.152-13.024 10.181 1.212 19.983-2.302 26.403-10.5-24.358-14.033-49.637-26.862-74.197-40.595-12.795-6.552-25.072-14.111-37.919-20.543-6.231-3.326-12.368-6.854-18.577-10.221-5.8-2.324-12.346-8.156-19.307-9.141-16.015 26.042-41.648 52.544-61.102 72.602-33.472 33.885-71.002 63.418-109.016 91.973-37.887 26.912-77.46 52.28-119.882 71.425zm34-1258.304v51.654c.504 14.304-.76 31.2.766 44.258 3.558 23.27 19.428 42.252 36.981 56.711 26.607 21.603 57.98 36.346 89.86 48.272 33.062 12.509 67.236 21.803 101.946 28.412 59.74 10.998 120.65 15.684 181.377 14.527 87.067-1.388 174.952-13.984 256.359-45.895 37.804-15.552 77.047-33.794 103.515-66.288 6.104-8.089 11.365-16.936 14.349-26.697 4.722-17.082 1.921-35.248 2.847-52.701v-101.217c.03-24.314 4.642-54.574-14.36-79.16-12.87-18.498-31.182-32.686-50.28-44.274-70.287-42.326-152.313-60.326-232.934-68.564-86.498-7.3-174.37-6.268-259.913 9.756-60.108 11.865-120.36 30.292-172.706 63.034-24.67 15.807-48.416 37.483-55.987 66.957-2.991 16.38-1.255 33.17-1.82 49.744zM1877 1200h-4c-7.771 13.058-24.463 23.103-35.68 30.752-51.976 31.23-111.025 48.13-169.746 61.228-47.71 9.605-96.5 14.74-145.186 15.02-72.39 1.133-145.021-4.086-215.657-20.833-33.709-8.078-67.266-17.44-99.052-31.494-29.092-13.447-60.812-28.683-80.679-54.673h-4c.165 4.307-.373 9.486.637 13.354 16.228 22.99 41.487 38.707 65.37 52.625 54.001 29.174 114.358 44.436 174.674 53.476 94.354 13.346 190.996 12.748 285.146-1.922 45.137-7.383 89.72-18.698 131.886-36.616 19.703-8.963 39.56-18.215 57.079-31.115 9.203-6.114 17.66-13.28 25.71-20.807 3.907-3.75 7.379-7.901 10.842-12.05 3.825-4.302 2.286-11.819 2.656-16.945m-672 201v-96c-5.98-1.116-13.26-5.539-19.998-8.053-6.409-2.818-13.31-8.78-20.002-8.947v71.926c.06 6.083-.209 12.218.445 18.25 5.054 5.832 12.732 8.633 18.95 12.923 6.675 2.938 13.783 8.94 20.605 9.901m-2.987-247.765c-.234 18.38 12.314 33.527 26.02 43.763 13.65 10.34 29.049 18.146 44.744 24.856 43.923 18.683 91.134 28.155 138.33 33.66 74.606 7.863 150.602 6.236 224.446-7.446 34.897-6.82 69.638-16.013 102.219-30.454 27.003-12.083 67.448-34.578 59.183-74.5-5.716-22.182-25.588-36.618-44.511-46.99-73.27-38.243-157.78-48.145-239.138-50.122-83.563-.601-169.805 6.832-247.23 40.964-14.344 6.168-30.445 15.284-41.44 24.536-12.536 9.913-22.868 24.88-22.623 41.733M1223 2306c29.374.905 59.28-1.37 86.584-13.23 12.402-4.774 24.429-10.766 35.082-18.771 5.435-3.841 11.05-9.199 11.265-16.315.185-7.554-.024-15.134.069-22.684h303v58c39.17 1.137 78.99-4.956 114.576-22.29 8.288-4.672 21.164-7.625 20.418-17.928.017-31.797-.003-63.568.006-95.359v-334.639c.003-18.59-.003-37.184.002-55.773.157-2.19-.029-4.969.96-6.767 6.112-3.15 14.077-3.543 20.09-7.4 4.934-3.888 13.33-7.21 14.948-12.844-40.734-29.242-79.025-63.147-119.5-93-14.424 14.606-27.099 30.828-41.467 45.476-6.551 6.253-11.567 13.981-18.371 19.953-3.208 2.505-9.096 1.116-13.537 1.571h-251.149c-7.74-.495-17.059.747-24.05-.756C1315.5 1695.57 1269.327 1676.82 1223 1659zm2.01-1152.57c-.035 13.395 9.856 24.132 19.598 31.654 9.97 7.732 21.17 13.832 32.707 18.847 41.224 17.861 85.479 28.076 130.036 32.869 69.783 8.01 140.569 6.983 210.039-3.377 33.383-5.537 66.729-13.214 98.256-25.685 14.791-5.915 29.378-12.992 41.88-22.982 10.965-9.542 24.3-23.099 16.17-41.94-8.755-18.824-31.82-30.136-47.561-38.25-70.55-34.248-150.68-39.318-227.672-39.566-76.745.369-155.368 9.03-226.579 39.674-20.326 10.01-46.216 24.258-46.874 48.756M1238 1416c13.349 3.328 26.333 8.926 40 11v-70.8c-.014-6.005.017-12.031-.009-18.034-.174-1.908-.068-4.379-.968-5.94-5.698-3.416-13.96-4.936-19.676-6.994-6.243-1.637-13.322-5.159-19.347-5.232zm126 29v-82.8c-.356-3.94.643-8.896-.975-11.97-4.999-2.638-10.586-1.952-16.022-3.712-5.493-.802-11.93-2.208-17.003-2.518v83.302c.114 3.98-.343 8.193.72 12.047 1.413 2.05 5.383 1.51 7.982 2.238 8.443.986 16.778 3.146 25.298 3.413m-8 435h303v-142h-303zm0 166h303v-142h-303zm0 165h303v-141h-303zm47.005-1062.023c-1.02 21.249 24.36 34.323 40.623 39.723 14.721 4.59 30.025 7.59 45.509 7.302 22.535 1.547 45.341-.69 66.99-7.22 17.738-5.496 43.028-17.821 40.838-42.537-.053-15.441-13.973-25.167-25.043-30.79-20.071-10.413-42.88-13.754-65.172-14.378-22.401-.496-45.24 1.504-66.407 9.388-17.14 6.481-38.075 18.437-37.338 38.512m22.124.003c.54 12.028 13.003 16.589 21.569 19.422 24.517 8.496 50.561 11.264 76.284 7.9 12.142-.98 23.939-4.287 34.981-9.362 8.91-3.9 24.443-13.522 14.73-26.229-7.264-8.017-19.992-11.48-28.916-14.605-34.044-9.712-72.677-8.905-104.651 7.345-6.244 3.21-14.15 8.728-13.997 15.53m118.37 1163.753c.051 1.646 3.052 2.602 3.785 3.757 50.123 30.22 96.636 66.063 141.7 103.293 34.132 29.178 66.554 60.389 95.67 94.636 29.36 16.601 74.717 2.652 89.66-27.864 12.749-23.032 9.202-51.614-3.046-73.982-15.963-32.791-52.984-57.806-82.451-70.845-35.152-15.884-72.789-25.867-110.995-30.818-42.756-5.673-86.328-6.255-129.303-3.477-2.254-.122-3.98 3.535-5.02 5.3M1592 1451c11.093.262 21.986-2.358 33-3v-96c-11.113-.387-21.97 2.511-33 3zm64-9c13.17-.563 25.857-5.213 39-6v-97h-1.5c-12.222 3.647-25.383 4.254-37.5 8zm64-14c16.683-1.594 31.611-11.185 48-14v-96c-8.322.97-15.99 5.256-24.162 6.934-7.743 2.968-16.108 4.272-23.838 7.066zm81-29h1.5c8.057-3.627 15.23-9.013 22.994-13.18 5.172-3.447 13.202-7.451 16.292-11.721 2.41-5.332.422-11 1.214-16.703V1281c-4.3.185-7.438 3.599-11.025 5.682-9.821 6.187-20.094 12.287-30.975 16.318z" style="fill:#cc2424;fill-rule:evenodd;stroke:none"/><path d="M1362.84 2275c-37.49 51.549-83.31 96.799-133.45 136.086-48.947 39.004-101.387 74.804-158.39 100.914.246 2.987 2.006 6.087 3.482 8.351 1.967 2.555 5.24 2.252 8.962 1.395 41.084-6.775 82.094-14.438 122.082-26.176 83.246-22.562 164.047-55.675 237.526-100.942 8.55-5.88 17.066-11.783 25.523-17.789 3.918-2.266 7.707-6.933 11.64-7.484 8.325-.845 18.763 1.528 27.1-5.508 2.595-1.918 7.14-6.589 3.458-8.557-49.199-26.863-98.445-53.93-147.934-80.29M1105 1254.746v51.854c.525 14.587-.776 31.832.752 45.16 3.59 23.444 19.61 42.641 37.388 57.127 26.66 21.518 57.962 36.217 89.859 48.11 33.285 12.56 67.69 21.888 102.63 28.45 59.831 11.022 120.823 15.398 181.628 14.352 87.47-1.399 175.77-13.92 257.528-46.112 37.747-15.606 76.992-33.897 103.324-66.485 6.103-8.116 11.267-17.073 14.22-26.856 4.516-17.142 1.716-35.26 2.671-52.747v-53.304c-1.036-31.725 1.264-63.606-.685-95.264-4.282-23.933-19.42-44.854-38.466-59.552-32.806-26.42-72.144-43.044-111.526-56.864-64.28-21.556-132.072-30.082-199.496-33.121-69.52-2.27-139.55-.123-208.033 13.016-60.442 11.695-120.893 30.322-173.576 62.981-24.803 15.882-48.776 37.583-56.398 67.24-2.991 16.38-1.255 33.171-1.82 49.746zM1876 1201h-2c-7.863 13.159-24.68 23.278-36.029 30.945-52.237 31.265-111.521 48.234-170.516 61.255-47.952 9.508-96.954 14.629-145.862 14.8-72.258 1.13-144.783-4.022-215.301-20.7-33.746-8.043-67.316-17.401-99.133-31.426-29.237-13.51-61.18-28.741-81.159-54.874h-2c.101 3.876-.346 8.622.863 12.047 15.757 20.9 38.155 36.42 60.607 49.333 53.177 29.914 112.824 45.639 172.695 55.134 95.102 14.111 192.54 14.064 287.57-.636 45.103-7.384 89.83-18.172 131.982-36.166 19.955-8.465 39.498-18.246 57.303-30.66 9.21-6.152 17.724-13.18 25.93-20.582 4.26-3.694 7.743-8.092 11.394-12.347 4.597-4.55 3.609-10.262 3.656-16.123m-672.5 199c1.426-31.207-.26-62.73.5-94-5.733-.962-12.618-5.332-19.099-7.59-6.112-2.42-13.38-8.678-18.901-9.41v69.617c.325 5.67-.48 12.474.466 17.619 2.167 6.02 13.323 9.319 17.745 13.195 6.193 3.94 12.982 6.864 19.289 10.569m-.47-246.577c.19 18.25 13.218 33.052 26.865 43.218 13.681 10.269 29.146 17.84 44.788 24.595 44.45 18.912 92.3 27.917 140.001 33.598 75.145 7.821 151.494 5.27 225.735-8.813 34.184-7.651 68.795-15.917 100.429-31.452 26.736-13.63 68.939-36.786 52.458-78.267-9.133-20.234-29.324-32.145-47.75-42.5-74.096-35.996-157.889-45.866-239.21-46.802-82.34-.413-167.1 8.657-243.035 42.658-13.973 6.015-26.964 14.33-38.84 23.736-11.7 9.842-21.557 23.97-21.442 40.029M1222 2307c29.65.852 59.948-.826 87.583-12.834 12.59-4.824 24.837-10.791 35.684-18.86 15.765-9.829 11.584-25.857 11.733-39.306h301v58c20.535.167 41.233.146 61.386-4.39 14.587-3.232 28.898-7.556 42.951-12.597 9.503-4.22 20.979-8.981 29-14.192 5.912-5.17 2.635-17.01 3.663-25.236v-415.001c.015-18.593-.018-37.16.01-55.74.07-2.112.367-5.148 1.694-6.35 12.998-3.257 26.965-8.05 35.296-19.494-40.059-32.375-81.147-63.916-121.5-96-14.49 14.819-27.526 30.973-41.894 45.895-6.432 6.357-11.678 13.828-18.264 20.027-3.894 2.992-9.212 1.787-13.823 2.078h-251.861c-7.616-.449-16.987.928-23.717-1.437-46.17-18.454-92.906-35.898-138.941-54.563zm2.002-1153.772c-.449 13.912 9.476 25.183 19.606 32.856 9.97 7.732 21.17 13.832 32.707 18.847 41.022 17.764 85.086 27.993 129.425 32.792 69.092 7.921 139.21 7.025 208.072-2.621 33.41-5.027 66.484-12.796 98.195-24.51 14.373-5.588 31.014-13.2 42.44-21.668 13.38-8.839 24.942-23.34 22.24-40.296-1.934-11.001-10.015-19.509-18.321-26.33-31.077-23.837-76.005-37.545-110.343-45.589-63.415-13.483-128.785-13.95-193.246-11.791-61.265 3.983-123.41 12.909-180.336 37.26a148.2 148.2 0 0 0-32.375 18.792c-9.728 7.654-18.517 18.913-18.064 32.258M1239 1415c12.549 3.939 25.27 7.673 38 11v-69c-.005-5.822.006-11.629-.003-17.44-.162-1.741.064-4.143-.734-5.918-5.334-3.945-13.127-4.75-18.807-7.074-6.066-1.39-12.772-4.855-18.456-5.568zm124 29v-79.8c.015-3.9.124-7.872-.419-11.727-.646-2.778-5.623-2.542-7.732-3.319-7.973-1.277-15.834-3.224-23.849-4.154v80.654c-.115 4.11-.046 8.164.493 12.218.852 2.34 5.093 1.957 7.036 2.576 8.187 1.001 16.253 2.809 24.471 3.552m-6 435h301v-140h-301zm0 166h301v-140h-301zm0 165h301v-139h-301zm47.02-1061.117c-.337 20.62 24.213 33.158 40.039 38.622 14.49 4.603 29.637 7.653 44.898 7.495 22.619 1.18 45.542-.416 67.198-7.562 17.543-5.446 42.564-18.199 39.664-42.695-1.952-14.237-14.595-23.745-26.707-29.196-20.194-9.929-42.836-13.119-65.062-13.512-22.068-.324-44.562 2.27-65.225 10.435-15.788 6.54-35.024 17.79-34.804 36.413m19.463-.448c1.42 12.196 10.728 17.508 20.684 20.468 10.753 3.484 21.723 6.425 32.91 8.047 29.067 3.958 66.057 1.382 89.488-13.295 5.887-3.815 12.341-8.93 10.018-18.202-2.377-10.352-17.83-15.197-25.203-18.162-11.043-3.871-22.507-6.515-34.139-7.76-29.995-1.819-64.378-.28-88.958 19.735-3.303 2.439-3.697 5.768-4.8 9.169M1540 2313.375c44.832 27.141 87.849 57.748 128.366 91.167 31.37 25.563 61.72 52.463 89.347 82.086 4.9 6.042 11.043 10.994 15.777 17.179 4.646 4.504 9.496 12.633 14.608 14.752 26.603 7.774 58.565 3.973 77.772-17.929 14.399-14.212 19.354-36.151 17.07-55.631-3.754-29.486-21.303-55.319-43.901-73.775-22.24-19.082-48.893-31.85-76.334-41.51-68.627-24.23-142.497-27.556-214.46-23.465-3.378.234-5.577 4.754-8.245 7.126M1593 1450c10.419.062 20.626-2.522 31-3v-94c-10.417-.135-20.642 2.632-31 3zm64-9h1.5c11.86-1.767 23.578-4.733 35.5-6-.76-31.607.926-63.478-.5-95-11.569 4.128-24.88 3.982-36.5 8zm64-14h1.5c14.996-4.032 29.48-10.172 44.5-14v-94c-15.212 4.824-30.704 9.63-46 14zm81.5-29c8.542-5.635 17.861-10.116 26.328-15.89 3.348-2.22 7.06-3.986 10.046-6.716 4.9-4.736 2.394-14.72 3.126-21.994V1282h-1.5c-11.377 9.353-25.007 16.403-38.5 22 .76 31.281-.926 62.799.5 94" style="fill:#fff;fill-rule:evenodd;stroke:none"/></svg>