<svg xmlns="http://www.w3.org/2000/svg" width="3000" height="3000"><path d="M284 2851h2432c-124.976-755.67-252.044-1511.092-377.448-2266.7-7.861-47.178-15.706-94.335-23.582-141.499-.984-5.839-1.997-11.667-2.899-17.512-.49-7.306-6.473-8.697-12.246-10.184-87.184-29.056-174.38-58.12-261.56-87.176-152.327-50.779-304.643-101.536-456.966-152.324-14.313-4.829-28.697-9.519-43.002-14.345a3928 3928 0 0 1-21-7c-6.46-1.712-14.17-5.911-20.49-4.561-107.266 35.355-214.304 71.493-321.51 107.041-160.61 53.648-321.364 106.958-481.932 160.707-5.96 1.902-5.358 9.016-6.366 13.62-26.08 156.214-52.04 312.423-78.108 468.636C500.963 1550.18 391.461 2200.487 284 2851m702-398.25c2.483 5.724 8.195 8.099 13.487 5.452 64.255-24.828 127.953-52.639 185.979-90.164 8.68-5.32 17.118-11.068 25.534-16.79 4.237-3.14 8.696-5.975 13-9 3.835-2.632 8.973-7.104 13-7.248v343c35.04.18 71.362 1.94 104.842-10.808 14.13-5.797 30.133-14.283 41.154-22.986 8.094-5.773 5.81-16.261 6.004-24.046V2593h331v73c46.621 1.518 92.892-6.856 136.307-23.772 5.001-2.079 10.006-4.164 14.717-6.842 5.958-2.411 6.748-8.219 5.976-13.004v-239.188c.12-6.373-.15-12.753.091-19.117-.188-5.303 5.696-5.368 9.617-6.828 11.802-3.12 22.23-9.632 30.292-18.749-46.11-35.3-93-69.75-139.5-104.5-12.456 15.008-26.74 28.409-39.67 42.985-5.102 5.662-11.931 12.645-17.305 18.99-5.682 5.663-9.674 13.436-20.024 12.025h-256.157c-12.802-.258-25.607.316-38.395-.175-33.033-10.21-64.948-24.395-97.949-34.825.406-4.209 5.302-7.196 7.733-10.233 23.05-22.962 43.515-48.412 63.162-74.292 7.066-9.603 13.396-19.728 20.388-29.395 2.942-4.27 5.753-8.614 8.253-13.151 2.34-3.919 4.144-9.145 10.362-8.89 85.697-.11 171.41.02 257.102-.039v61c45.39 1.524 90.73-6.758 132.66-24.448 8.699-3.456 22.684-7.502 21.339-20.363.003-36.514 0-73.03.001-109.53V1956h150c13.036.3 31.225-.123 38-15.5-38.292-37.95-78.502-74.01-119-109.5-12.426 14.765-21.769 32.212-33.649 47.461-10.165 16.151-22.735 31.166-32.351 47.539h-3v-117.6c.02-3.014-.027-6.037.023-9.041-.512-6.125 4.374-7.35 9.236-8.343 11.459-4.7 26.921-10.931 31.741-21.016-23.863-15.647-45.792-35.23-69.261-51.686-22.858-17.72-46.675-34.234-69.239-52.314-17.16 17.615-32.3 37.03-49.496 54.62-3.4 4.34-7.284 8.228-11.057 12.215-3.005 4.044-6.757 8.767-12.799 8.153-183.057.034-366.103-.006-549.148.012 1.57 9.564 6.828 18.312 8 28h234c-3.82 53.095-12.387 105.717-22 158h-319c1.978 9.827 6.115 19.175 8 29h304c-9.157 52.571-28.061 103.024-46 153h-178v1.5c2.187 8.644 7.072 18.32 8 26.5h156c-1.116 9.383-7.546 17.267-10.928 25.835-30.28 59.27-66.912 115.788-112.174 164.767-44.319 48.614-96.508 90.776-152.898 124.398zm9-968.5c.047.678.167 1.205.75 1.75H2005v-1.5c-21.724-35.86-42.1-72.899-63.355-109.11-36.878-63.788-73.671-127.611-110.543-191.397-27.482-47.8-55.213-95.453-82.696-143.24-41.313-71.638-82.88-143.098-124.022-214.827C1583.807 754.063 1540.65 683.284 1501 611h-2c-40.363 73.61-84.337 145.697-125.632 218.877-31.478 54.492-62.864 109.048-94.434 163.478-47.344 81.854-94.512 163.789-141.833 245.655a92778 92778 0 0 1-70.999 122.997c-24.14 40.393-46.501 82.244-71.102 122.243M1389 2565h331v-229h-331zm41-457.5v1.5h245v-153h-185c-14.045 52.47-36.57 102.848-60 151.5m70-180.5h175v-158h-145c-4.043 26.102-7.4 52.397-12.62 78.323-3.074 13.653-5.878 27.352-8.761 41.03-1.95 12.66-8.21 26.884-8.619 38.647" style="fill:#c22;fill-rule:evenodd;stroke:none"/><path d="M157 2957.5c447.26 1.426 895.325-.26 1342.75.5 447.681-.76 895.643.926 1343.25-.5-89.24-527.6-175.768-1056.319-264.274-1584.188-32.881-197.178-65.724-394.337-98.6-591.504-14.975-86.916-28.91-174.043-43.658-260.994l-20.26-121.515c-4.237-19.837-5.613-40.387-10.571-60.035-2.23-3.666-9.156-3.713-13.331-6.001-153.686-51.195-307.327-102.464-461.007-153.658-134.313-44.829-268.697-89.519-403.002-134.345-7.496-2.464-14.948-4.998-22.428-7.466-7.106-3.118-15.85 1.66-22.572 3.602-115.69 38.56-231.359 77.11-347.031 115.675-101.317 33.788-202.65 67.568-303.967 101.324-44.313 14.829-88.697 29.519-133.002 44.345-20.83 6.934-41.652 13.855-62.47 20.817l-30.53 10.183c-4.798 1.638-11.417 2.822-12.665 7.456C487.841 971.739 383.296 1602.542 278.126 2233.19 237.363 2474.168 198.262 2717.071 157 2957.5m128-109v1.5h2430v-1.5c-73.642-437.603-145.813-875.53-219.109-1313.203-54.671-328.176-109.408-656.315-164.077-984.478-5.21-30.83-10.248-61.686-15.432-92.51-1.251-7.505-2.488-15.003-3.754-22.495-.919-4.17-1.145-8.46-2.247-12.58-1.025-4.117-5.42-5.18-9.156-6.315-117.305-39.137-234.617-78.213-351.926-117.314-102.68-34.233-205.353-68.476-308.033-102.676-44.992-15.018-89.985-29.992-134.966-44.995-6.062-2.742-11.046-.84-16.431 1.266-83.52 27.892-167.058 55.657-250.572 83.54-146.168 48.728-292.31 97.432-438.478 146.16-27.522 9.152-55.005 18.352-82.52 27.495-6.482 2.208-13.017 4.306-19.485 6.517-2.679 1.235-7.197 1.778-8.4 4.228-68.611 401.467-133.703 803.887-201.523 1205.563C420.651 2033.674 353.5 2441.873 285 2848.5" style="fill:#797575;fill-rule:evenodd;stroke:none"/><path d="M984 2452.25c1.473 3.042 5.017 6.277 7.158 8.002 2.484 2.391 7.118-.645 10.568-1.55 42.284-16.208 84.371-33.158 124.153-54.946 38.918-18.664 74.572-43.775 110.121-67.756v343c35.348.099 71.981 2.131 105.84-10.459 14.396-5.595 30.502-14.409 41.76-23.008 8.459-5.727 6.347-16.402 6.4-24.373V2594h329v73c24.441.025 49.095-.44 73.137-5.327 16.667-3.307 33.173-7.55 49.326-12.865 11.02-4.497 25.444-7.791 34.027-15.022 3.576-3.554 2.202-10.093 2.51-14.6v-236.791c.33-6.114-.447-13.396.352-18.97.061-4.168 8.316-3.796 10.733-5.613 11.827-3.16 21.846-10.312 29.915-19.312-46.297-36.581-94.802-70.455-141.5-106.5-12.794 14.65-26.307 28.632-39.636 42.79-5.7 6.405-11.643 12.586-17.253 19.073-2.795 2.912-5.788 5.649-8.427 8.702-2.639 4.025-6.727 5.166-10.883 4.435h-256.157c-12.787-.29-25.597.356-38.37-.195-16.936-4.849-33.142-12.392-49.958-17.71-15.843-6.031-32.143-11.22-47.816-17.595 23.974-23.137 45.525-48.491 65.639-75.017 7.494-9.155 15.065-20.746 21.065-29.77 6.342-8.27 11.346-17.412 16.852-26.213 3.28-3.573 10.11-2.21 15.325-2.5H1674v61c23.695-.154 47.733.196 70.933-5.294 16.694-3.81 33.285-8.066 49.46-13.71 10.567-4.542 24.288-8.147 32.675-14.882 3.665-3.279 2.817-9.646 2.932-13.916V1957h151.8c13.699.138 30.038-.381 37.2-17.5-39.823-37.7-80.347-75.137-121.5-111.5-22.06 32.388-44.894 64.643-67 97l-.5-1.625v-115.8c.257-5.306-1.409-12.405 4.09-13.958 13.874-3.816 29.736-11.98 37.91-22.617-45.08-35.299-91.493-69.405-137.288-103.872-6.064-4.86-12.068 8.235-16.069 10.75-16.557 19.562-34.711 37.699-51.354 57.172-4.86 6.428-12.006 4.947-19.142 4.95h-65.383c-158.532.76-317.314-.926-475.764.5 3.261 9.632 6.775 19.542 9 29.5h234c-4.328 52.369-12.254 104.391-22 156-106.607.76-213.478-.926-320 .5 3.473 9.488 6.51 21.548 9 30.5h304v1.5c-11.305 50.994-27.253 100.83-46 149.5h-179c2.097 9.868 8.006 20.734 9 30h156c-28.56 65.068-68.236 125.527-114.493 179.368-46.636 53.068-102.21 98.047-162.507 134.632zm9-966.75c.03.55.186 1.057.5 1.5H2007c-40.876-73.825-84.781-146.328-126.346-219.838-31.298-55.015-63.517-109.513-94.9-164.471-47.582-82.33-95.12-164.67-142.66-247.023-23.74-41.148-47.478-82.28-71.25-123.407-24.55-40.6-46.749-83.145-71.844-123.261-22.4 35.784-42.46 73.675-64.148 110.027-36.89 63.895-73.807 127.774-110.694 191.66-27.66 48.174-55.649 96.174-83.306 144.34a222567 222567 0 0 0-124.52 215.521c-20.748 35.936-41.413 71.906-62.239 107.784-20.743 35.508-41.23 71.952-62.093 107.168M1390 2564h329v-227h-329zm41-456.5c80.677 1.426 162.158-.26 243 .5v-151h-183c-7.08 26.197-16.591 51.877-26.464 77.142-9.842 24.806-20.928 50.065-33.536 73.358m70-181.5h173v-156h-143c-3.971 25.954-7.396 52.04-12.508 77.82-2.978 13.463-5.912 26.942-8.632 40.447-1.873 12.414-7.812 26.285-8.86 37.733" style="fill:#fff;fill-rule:evenodd;stroke:none"/></svg>