<svg xmlns="http://www.w3.org/2000/svg" width="3000" height="3000"><path d="M284 2851h2432c-124.976-755.67-252.044-1511.092-377.448-2266.7-7.861-47.178-15.706-94.335-23.582-141.499-.984-5.839-1.997-11.667-2.899-17.512-.49-7.306-6.473-8.697-12.246-10.184-87.184-29.056-174.38-58.12-261.56-87.176-152.327-50.779-304.643-101.536-456.966-152.324-14.313-4.829-28.697-9.519-43.002-14.345a3928 3928 0 0 1-21-7c-6.46-1.712-14.17-5.911-20.49-4.561-107.266 35.355-214.304 71.493-321.51 107.041-160.61 53.648-321.364 106.958-481.932 160.707-5.96 1.902-5.358 9.016-6.366 13.62-26.08 156.214-52.04 312.423-78.108 468.636C500.963 1550.18 391.461 2200.487 284 2851m702-398.25c1.615 3.356 5.322 5.3 7.5 8.25 21.434-9.227 43.884-16.758 65.184-26.49 31.576-14.033 62.928-28.918 92.884-46.174 14.684-7.688 28.857-16.224 42.46-25.683 7.057-4.838 14.331-9.337 21.258-14.357 6.884-3.769 15.208-11.923 21.714-13.296v343c35.054.25 71.352 2.018 104.842-10.808 14.13-5.797 30.133-14.283 41.154-22.986 8.094-5.773 5.81-16.261 6.004-24.046V2593h331v73c46.621 1.518 92.892-6.856 136.307-23.772 5.001-2.079 10.006-4.164 14.717-6.842 5.958-2.411 6.748-8.219 5.976-13.004v-239.188c.12-6.373-.15-12.753.091-19.117-.188-5.303 5.696-5.368 9.617-6.828 11.802-3.12 22.23-9.632 30.292-18.749-46.11-35.3-93-69.75-139.5-104.5-12.456 15.008-26.74 28.409-39.67 42.985-5.102 5.662-11.931 12.645-17.305 18.99-5.682 5.663-9.674 13.436-20.024 12.025h-256.157c-12.802-.258-25.607.316-38.395-.175-33.033-10.21-64.948-24.395-97.949-34.825.406-4.209 5.302-7.196 7.733-10.233 23.05-22.962 43.515-48.412 63.162-74.292 7.04-9.599 13.407-19.707 20.378-29.375 2.947-4.281 5.755-8.623 8.263-13.171 2.34-3.919 4.144-9.145 10.362-8.89 85.697-.11 171.41.02 257.102-.039v61c45.39 1.524 90.73-6.758 132.66-24.448 8.699-3.456 22.684-7.502 21.339-20.363.003-36.514 0-73.03.001-109.53V1956h150c13.058.25 31.282-.094 38-15.5-38.48-37.747-78.314-74.214-119-109.5-12.426 14.765-21.769 32.212-33.649 47.461-10.165 16.151-22.735 31.166-32.351 47.539h-3v-117.6c.02-3.014-.027-6.037.023-9.041-.512-6.125 4.374-7.35 9.236-8.343 11.459-4.7 26.921-10.931 31.741-21.016-23.863-15.647-45.792-35.23-69.261-51.686-22.858-17.72-46.675-34.234-69.239-52.314-17.224 17.574-32.258 37.127-49.568 54.624-3.438 4.197-7.074 8.197-10.864 12.072-2.884 3.82-6.51 8.7-12.718 8.288-183.127.045-366.236-.008-549.35.016 1.57 9.564 6.828 18.312 8 28h234c-3.82 53.095-12.387 105.717-22 158h-319c1.978 9.827 6.115 19.175 8 29h304c-4.056 26.426-12.754 52.067-19.932 77.745-6.962 25.687-16.803 50.387-26.068 75.255h-178v1.5c2.187 8.644 7.072 18.32 8 26.5h156c-1.161 9.36-7.57 17.27-10.928 25.834-30.281 59.272-66.911 115.788-112.174 164.768-44.319 48.614-96.508 90.776-152.898 124.398zm9-968.5c.047.678.167 1.205.75 1.75H2005v-1.5c-22.12-35.778-41.91-73.294-63.632-109.377-36.654-63.743-73.54-127.36-110.254-191.06-27.479-47.827-55.279-95.469-82.708-143.31-41.346-71.606-82.903-143.102-124.022-214.827-20.902-35.589-41.246-71.493-61.978-107.175-21.21-35.211-40.394-72.169-62.406-106.751-22.804 35.445-42.122 73.689-64.158 109.743-36.81 63.587-73.334 127.351-110.209 190.9-27.34 47.901-55.248 95.44-82.662 143.288-41.197 71.62-82.803 143.012-123.998 214.632-20.58 35.915-41.526 71.606-62.05 107.553-21.355 34.86-40.15 71.654-61.923 106.134m71-40.75v1.5h868v-2c-35.75-62.602-72.15-124.869-108.118-187.341-27.19-46.791-54.142-93.696-81.26-140.526-40.51-70.17-80.99-140.32-121.527-210.46C1583.143 834.278 1541.183 764.746 1502 694h-4c-34.796 63.052-72.399 124.928-107.842 187.688-27.102 46.804-54.108 93.67-81.24 140.452-40.499 70.355-81.134 140.63-121.817 210.87-20.133 35.281-40.717 70.268-60.893 105.51-19.834 35.029-40.894 69.766-60.208 104.98M1389 2565h331v-229h-331zm41-457.5v1.5h245v-153h-185c-14.045 52.47-36.57 102.848-60 151.5m70-180.5h175v-158h-145c-4.043 26.102-7.4 52.398-12.62 78.323-2.761 13.286-5.64 26.562-8.494 39.82-1.896 13.077-8.46 27.732-8.886 39.857" style="fill:#c22;fill-rule:evenodd;stroke:none"/><path d="M157 2957.5c447.26 1.426 895.325-.26 1342.75.5 447.681-.76 895.643.926 1343.25-.5-89.24-527.6-175.768-1056.319-264.274-1584.188-32.881-197.178-65.724-394.337-98.6-591.504-14.975-86.916-28.91-174.043-43.658-260.994l-20.26-121.515c-4.237-19.837-5.613-40.387-10.571-60.035-2.23-3.666-9.156-3.713-13.331-6.001-153.686-51.195-307.327-102.464-461.007-153.658-134.313-44.829-268.697-89.519-403.002-134.345-7.496-2.464-14.948-4.998-22.428-7.466-7.106-3.118-15.85 1.66-22.572 3.602-115.69 38.56-231.359 77.11-347.031 115.675-101.317 33.788-202.65 67.568-303.967 101.324-44.313 14.829-88.697 29.519-133.002 44.345-20.83 6.934-41.652 13.855-62.47 20.817l-30.53 10.183c-4.798 1.638-11.417 2.822-12.665 7.456C487.841 971.739 383.296 1602.542 278.126 2233.19 237.363 2474.168 198.262 2717.071 157 2957.5m128-109v1.5h2430v-1.5c-73.642-437.603-145.813-875.53-219.109-1313.203-54.671-328.176-109.408-656.315-164.077-984.478-5.21-30.83-10.248-61.686-15.432-92.51-1.251-7.505-2.488-15.003-3.754-22.495-.919-4.17-1.145-8.46-2.247-12.58-1.025-4.117-5.42-5.18-9.156-6.315-117.305-39.137-234.617-78.213-351.926-117.314-102.68-34.233-205.353-68.476-308.033-102.676-44.992-15.018-89.985-29.992-134.966-44.995-6.062-2.742-11.046-.84-16.431 1.266-83.52 27.892-167.058 55.657-250.572 83.54-146.168 48.728-292.31 97.432-438.478 146.16-27.522 9.152-55.005 18.352-82.52 27.495-6.482 2.208-13.017 4.306-19.485 6.517-2.679 1.235-7.197 1.778-8.4 4.228-68.611 401.467-133.703 803.887-201.523 1205.563C420.651 2033.674 353.5 2441.873 285 2848.5" style="fill:#797575;fill-rule:evenodd;stroke:none"/><path d="M984 2452.25c1.472 3.038 5.037 6.304 7.185 8.022 2.587 2.682 7.732-.893 10.524-1.56 42.138-16.116 84.032-33.08 123.717-54.68 38.62-19.392 74.942-42.98 110.074-68.032 1.426 114.14-.26 228.76.5 343 35.348.187 71.98 2.22 105.84-10.459 14.396-5.595 30.502-14.409 41.76-23.008 8.459-5.727 6.347-16.402 6.4-24.373V2594h329v73c24.441.025 49.095-.44 73.137-5.327 16.667-3.307 33.173-7.55 49.326-12.865 11.02-4.497 25.444-7.791 34.027-15.022 3.576-3.554 2.202-10.093 2.51-14.6v-237.99c.168-6.3-.31-12.666.428-18.924 1.747-3.35 8.92-2.623 11.614-4.788 9.781-3.704 22.597-9.103 28.958-20.484-12.697-6.919-23.456-17.818-35.632-25.731-35.122-26.66-70.745-52.66-105.868-79.269-12.794 14.65-26.307 28.632-39.636 42.79-5.7 6.405-11.643 12.586-17.253 19.073-2.795 2.912-5.788 5.649-8.427 8.702-2.639 4.025-6.727 5.166-10.883 4.435h-256.157c-12.787-.29-25.597.356-38.37-.195-16.936-4.849-33.142-12.392-49.958-17.71-15.843-6.031-32.143-11.22-47.816-17.595 23.974-23.137 45.525-48.491 65.639-75.017 7.389-9.225 15.149-20.704 21.15-29.717 6.166-8.396 11.332-17.42 16.767-26.266 3.28-3.573 10.11-2.21 15.325-2.5H1674v61c23.695-.154 47.733.196 70.933-5.294 16.694-3.81 33.285-8.066 49.46-13.71 10.567-4.542 24.288-8.147 32.675-14.882 3.665-3.279 2.817-9.646 2.932-13.916V1957h151.8c7.647-.138 15.535-.335 22.83-2.899 8.108-2.256 11.085-8.2 14.37-14.601-39.907-37.61-80.264-75.227-121.5-111.5-22.06 32.388-44.894 64.643-67 97l-.5-1.625v-115.8c.257-5.306-1.409-12.405 4.09-13.958 13.874-3.816 29.736-11.98 37.91-22.617-45.08-35.299-91.493-69.405-137.288-103.872-6.064-4.86-12.068 8.235-16.069 10.75-16.528 19.516-34.607 37.611-51.23 57.033-4.8 6.502-11.898 5.164-19.063 5.089h-65.369c-158.593.76-317.47-.926-475.981.5 3.261 9.632 6.775 19.542 9 29.5h234c-4.328 52.369-12.254 104.391-22 156-106.607.76-213.478-.926-320 .5 3.473 9.488 6.51 21.548 9 30.5h304v1.5c-11.425 50.955-27.373 100.79-46 149.5h-179c2.097 9.868 8.006 20.734 9 30h156c-6.54 17.174-16.095 33.174-24.413 49.521-29.418 54.531-65.963 105.263-108.69 150.081-42.875 44.01-91.425 82.502-143.897 114.398zm9-966.75c.03.55.186 1.057.5 1.5H2007c-41.147-73.848-84.958-146.59-126.594-220.248-31.664-54.889-63.25-109.82-95.038-164.63-47.464-82.306-95.058-164.559-142.524-246.861-23.825-41.106-47.506-82.298-71.272-123.431-23.242-41.02-47.736-81.685-70.572-122.83h-2c-41.268 73.47-84.714 146.246-126.355 219.61-31.963 54.692-63.211 109.798-95.056 164.545-47.473 82.275-95.013 164.513-142.476 246.781-23.763 41.124-47.44 82.303-71.231 123.405-23.857 40.383-46.736 82.184-70.882 122.159m74-42c144.06 1.426 288.924-.26 433.15.5 144.225-.76 288.71.926 432.85-.5-36.332-62.248-72.06-124.953-108.348-187.243-27.097-46.658-54.003-93.434-81.03-140.124-40.51-70.17-80.99-140.32-121.527-210.46C1582.143 835.278 1540.183 765.746 1501 695h-2c-34.796 63.052-72.399 124.928-107.842 187.688-27.102 46.804-54.108 93.67-81.24 140.452-40.459 70.182-80.931 140.377-121.588 210.437-20.06 35.15-40.568 70.057-60.678 105.166-20.535 34.577-40.12 70.375-60.652 104.757M1390 2564h329v-227h-329zm41-456.5c80.677 1.426 162.158-.26 243 .5v-151h-183c-7.08 26.197-16.591 51.877-26.464 77.142-9.842 24.806-20.928 50.065-33.536 73.358m70-181.5h173v-156h-143c-3.894 25.758-7.382 51.634-12.381 77.226-2.668 13.323-5.68 26.57-8.524 39.842-1.786 12.832-8.094 27.112-9.095 38.932" style="fill:#fff;fill-rule:evenodd;stroke:none"/><path d="M1233 2337.438c1.074.283 1.759-1.073 3-1.126l.5 342.688c-.597-114.914 1.268-230.209 0-345-.982 1.21-2.743 2.446-3.5 3.438" style="fill:#e69191;fill-rule:evenodd;stroke:none"/></svg>