<svg xmlns="http://www.w3.org/2000/svg" width="3000" height="3000"><path d="M1054 1905h426v27c-36.3-3.912-72.713-6.938-109-11v17c-27.197-2.845-53.848-9.944-81-13-.85 19.44-1.81 38.876-4.665 58.138-1.983 19.285-7.515 37.983-11.335 56.862h-1.5c-9.998-10.774-24.424-15.05-36.5-22.5 6.149-15.949 10.298-32.613 15.252-48.924.83-3.041 6.38-2.98 8.68-4.056 5.877-1.47 11.792-3.797 16.118-8.187 3.713-3.436 6.494-8.158 6.42-13.277-2.039-3.588-9.561-2.132-12.708-3.817-16.62-3.187-33.23-6.434-49.885-9.413-7.856-1.292-15.619-3.391-23.544-4.23-4.835-1.156-4.27 5.758-4.59 8.773-.295 4.14-.533 8.256-.858 12.382-2.086 19.816-4.641 39.557-8.192 59.158a733 733 0 0 1-12.158 53.782c-1.03 3.435-1.962 6.898-3.035 10.309-1.425-25.69.258-51.613-.5-77.34.641-12.881-.79-25.928.447-38.766-.09-2.77 4.765-3.354 6.558-4.233 8.328-2.209 14.4-9.917 13.995-18.661-38.381-2.695-76.677-7.564-115-11v601c12.216-.203 24.568.624 36.674-1.263 16.245-2.664 31.632-8.797 45.98-16.659 3.398-2.027 7.293-4.745 9.697-7.473 2.868-5.969.978-13.27 1.649-19.635V2456h204v53c28.364.987 57.737-1.704 82.961-16.128 5.214-3.219 12.527-6.932 13.673-12.568 1.043-22.734-.19-45.579.366-68.327V2129h112c-5.167 26.601-14.617 52.353-23.015 78.052-7.139 19.376-13.903 38.887-21.22 58.196-5.446 14.516-11.412 28.847-17.669 43.019-2.094 4.548-6.402 10.66 1.081 12.627 39.08 12.325 83.87 18.32 122.823 2.106 8.73-26.215 18.31-52.328 27.676-78.315 2.143-2.795 8.255-1.008 11.066-1.685H1761c-6.834 45.524-9.911 93.48-29.934 135.83-4.257 10.83-13.02 19.738-24.875 21.358-36.982 3.482-74.182-3.053-111.191-3.188v13c24.51 5.943 50.805 13.732 68.378 33.232 17.686 21.207 17.438 50.75 17.622 76.768 26.256-.083 53.157-1.827 78.172-10.557 17.341-5.754 34.517-13.372 48.693-25.135 20.706-18.215 33.985-43.255 42.708-69.07 9.242-27.464 14.83-55.893 19.304-84.458 3.078-18.517 5.175-37.178 7.17-55.82.28-2.655.452-5.298.736-7.942.034-6.02 3.947-6.578 8.487-6.758 6.256-1.106 12.384-3.03 18.03-5.94 4.548-2.412 11.07-5.71 10.7-12.32-9.67-5.506-17.67-14.577-26.813-21.04-15.73-12.434-31.048-25.378-46.67-37.943-5.797-4.85-11.732-9.53-17.522-14.377-4.634-3.832-10.398-10.65-16.258-3.958-17.836 14.93-33.32 32.429-51.231 47.268-4.362 4.413-12.392 2.677-17.948 3.05H1680c7.483-28.908 19.734-56.712 26-86h201c14.766-.31 36.15 2.553 44.563-9.671 1.347-2.293 2.219-5.045 1.882-7.738-13.684-15.415-30.203-28.26-45.404-42.108-15.784-12.785-30.842-26.808-47.041-38.983l1.688-.5c11.784-.274 26.931 1.539 36.705-4.455 4.376-2.746 9.726-10.235 5.886-14.42-3.731-4.267-8.63-7.417-12.411-11.67-10.238-8.803-20.26-17.862-30.852-26.239-13.378-11.311-26.976-22.338-40.626-33.302-3.574-2.868-7.04-5.812-10.607-8.687-6.511-6.508-10.688 2.245-14.2 6.98-3.912 5.282-8.114 10.34-11.963 15.658-6.551 8.891-13.304 17.604-20.037 26.342-2.834 3.901-5.78 7.75-8.693 11.593-2.983 3.156-5.731 8.592-9.396 9.725-78.424 1.355-157.036-.246-235.494.475.239 7.729 3.915 16.308 5.375 23.17.863 5.083 6.066 5.095 10.015 4.83h13.78c101.507.76 203.44-.926 304.83.5a4020 4020 0 0 0-36.196 49.9c-2.568 3.768-5.445 7.313-8.041 11.048-2.493 3.28-5.584 8.949-9.355 9.285-78.048.761-156.17-.138-234.232.267h-80.909c-2.578-.21-7.09.226-7.821-2.425-1.272-47.441.231-95.105-.446-142.575 4.436-.75 10.02-1.586 13.5-4 .447 1.292.517 2.65.5 4 9.703-.582 19.457 1.21 29.13.598 15.825-2.368 31.607-6.887 45.628-14.768 4.28-2.772 10.92-5.369 11.153-11.862.253-11.762-.046-23.558.089-35.307.12-4.378-.17-8.762.15-13.12.04-4.694 4.056-4.72 7.329-4.536 3.342.007 6.647-.026 9.974.016 7.416-.586 6.81 5.427 6.547 11.153V1940c14.119.136 28.426.759 42.223-2.823 9.726-2.12 19.276-4.82 28.59-8.328 6.687-2.522 13.489-5.005 19.36-9.179 4.204-3.518 2.374-11.548 2.827-17.34V1730c7.934-.924 14.966-4.83 22-8v232c24.706.983 49.817-1.377 72.43-12.258 10.187-4.811 23.53-9.79 21.57-25.524V1877h22v63c29.095 1.094 58.578-2.806 85.137-15.682 5.553-2.427 13.57-5.512 12.856-13.405.02-23.158-.004-46.306.007-69.462V1730c6.096-1.2 12.139-2.78 17.582-5.902 4.742-3.15 12.385-6.56 12.418-12.098-19.942-12.708-38.187-29.091-57.755-42.576-6.989-5.607-14.254-10.892-21.415-16.272-3.164-2.3-6.193-4.855-9.54-6.882-3.042-2.794-7.361 2.44-9.265 4.205-9.634 10.273-19.067 20.74-29.348 30.415-3.276 3.284-6.016 8.912-12.003 9.853-9.502.768-18.078-4.973-26.811-7.797-12.987-5.323-25.941-10.694-39.007-15.814-6.542-2.617-12.999-5.487-19.573-8.015-6.101-2.266-13.181-6.005-19.283-6.117-.72 17.263.886 34.812-.5 52-17.784-12.866-35.326-26.182-53.11-39.067-6.723-4.76-13.19-9.83-19.794-14.731-2.401-1.624-7.207-5.445-9.697-2.988-5.574 4.213-9.25 10.54-14.632 15.019-8.668 7.952-17.277 18.831-25.315 25.999-9.031 5.315-19.353-2.036-27.048-4.466-12.675-5.645-25.775-10.252-38.43-15.933-12.98-4.374-25.108-11.662-38.474-14.833-.76 39.246.926 78.876-.5 118-13.207-13.575-27.689-25.712-41.657-38.464-7.433-6.249-14.634-12.718-22.019-19.012-7.684-5.092-13.457-13.577-21.824-17.524-15.265 18.343-27.617 39.29-42.5 58-1.426-27.462.26-55.433-.5-83 12.85-1.588 30.95-6.583 30-26-19.368-.651-38.686-3.065-58-4.5 15.243-4.327 30.138-10.198 44.573-16.679 6.453-2.772 12.758-5.896 18.938-9.23 11.919-8.663 26.767-6.638 40.65-6.826 46.036-.963 94.964-13.71 127.314-48.74 4.253-3.64 8.284-8.88 12.023-12.334 36.294-15.987 72.955-33.781 101.814-61.691 16.096 6.94 35.268 16.536 46.534 28.378 13.388 13.5 5.968 33.695-2.689 45.344-6.402 9.994-14.082 27.774 1.566 36.096 11.475 5.461 26.806 6.276 38.225 6 21.623-.943 45.682-4.423 61.654-20.92 11.611-11.067 17.589-26.571 22.043-41.583 6.444-25.577 6.458-52.141 6.355-78.322v-41.103c-.2-12.836 1.147-26.419-3.972-38.608-6.558-14.346-20.92-22.311-35.055-27.412-15.755-5.368-32.25-9.488-48.973-9.87 4.464-14.226 10.164-28.1 13.885-42.572 5.408-14.263 5.617-29.977 9.615-44.428 9.01 8.69 21.047 13.925 33.5 15-2.345 13.441-2.009 28.695 6.191 40.23 7.534 11.111 21.118 16.53 34.185 15.77 24.702 2.002 49.392-20.544 56.8-40.464 5.002-12.334 3.272-29.07-2.326-39.583-5.549-10.495-16.337-20.146-20.764-30.113-2.05-7.822.285-16.193-.239-24.143.24-28.022.644-56.362-4.697-84.013-5.323-23.98-17.354-51.566-33.625-67.66-8.44-9.377-19.159-16.021-30.323-21.584-5.492-3.015-1.954-13.724-3.267-18.435-3.958-93.856-53.467-183.958-129.178-239.098-38.036-27.715-82.533-47.38-129.243-54.309-48.452-6.626-99.717-3.995-145.232 15.281-45.622 18.752-83.214 52.781-111.441 92.694-12.094 16.548-21.95 34.56-33.518 51.445-11.574 16.324-27.806 28.633-45.13 38.308-16.092 8.945-32.817 17.185-47.166 28.861-13.993 10.522-25.256 28.604-21.008 46.805 4.493 16.789 26.033 24.134 40.622 27.24 31.6 5.694 70.563-1.158 96.421-14.845 49.407-24.012 83.832-69.133 129.434-98.41 17.533-12.187 38.8-18.026 60.045-16.955 18.268-.521 37.898 10.166 42.007 29.159 4.263 15.544 2.6 34.14-8.17 46.876-4.745 5.083-11.998 5.961-18.387 7.942-24.08 7.375-47.34 17.942-68.162 32.105-15.652 10.55-29.767 24.476-37.745 41.847-6.304 13.087-5.014 30.037-8.809 42.205-4.205 23.163.072 47.098 9.18 68.513 3.456 8.875 9.606 20.419-.459 29.793-6.725 6.457-15.952 17.753-6.683 28.238 5.984 6.249 17.585 5.633 25.355 6.27 9.265.388 18.27-1.635 27.332-2.97-5.62 18.697-11.294 37.514-17.5 56-27.194-10.194-57.026-16.664-86.244-14.433-14.05 1.187-27.994 6.057-39.07 14.937-10.293 9.071-18.866 20.24-23.66 33.216-6.074 14.136-9.344 29.418-16.458 43.118-4.781 10.354-12.937 18.808-22.577 24.778-6.979 4.354-14.857 6.688-22.352 9.849-4.943 2.28-12.108 5.016-13.623 12.235-2.633 11.098.827 19.937 9.132 26.318 6.803 5.769 16.958 9.49 24.352 12.482-12.469 10.285-31.377 15.193-45.597 17.407-25.37 1.545-59.412-.193-80.09 26.757-12.443 17.657-12.868 44.94-7.073 63.222 4.316 15.16 12.284 29.71 24.51 39.96 4.117 3.227 3.473 10.81 5.305 16.333 3.868 20.101 17.442 36.842 34.636 47.258 17.89 10.991 39.034 15.584 59.727 17.025 6.846.566 13.728.627 20.582.538v221h-38v-147c11.691-2.383 27.957-7.155 27-25-21.805-.594-43.435-3.95-65.188-5.2-10.485-1.108-20.976-1.942-31.48-2.805-10.058-.344-22.143-3.1-31.332-.995v117c-.014 19.605.017 39.231-.009 58.834-.224 1.97-.071 5.682-1.801 6.521-8.103 1.329-16.52.176-24.707.645-8.066-.987-17.971 1.32-24.483-1 1.336 9.21 5.151 17.899 7 27m293-401c26.78-9.946 53.132-24.23 82.388-25.93 5.826.154 13.15-.798 18.198 1.382 12.234 6.714 1.032 19.606-6.543 23.02-3.637 2.331-7.466 4.286-11.517 5.793-3.445 1.682-8.506 3.61-11.28 1.088-5.782-4.752-11.46-10.784-19.39-11.723-6.864-1.359-12.141 7.925-13.86 12.4-2.446 5.461-3.483 11.363-4.534 17.195-.418 5.572-6.43 8.039-10.038 9.999-31.026 16.783-61.84 35.487-95.424 46.776-.13-5.721-3.741-11.818-7.18-15.547-3.674-3.922-9.555-8.828-15.233-3.635-6.918 5.249-11.37 15.107-14.073 22.314A35 35 0 0 0 1237 1596c-12.649 3.81-25.96 3.128-39 3-1.83-9.295-4.157-18.984-10.845-26.205-7.467-9.867-16.522-3.531-22.886 3.44-2.036 2.043-4.076 4.159-5.24 6.836-1.839 7.386 8.805 16.927 13.217 21.295 5.075 3.738 10.926 6.342 16.936 8.134a111 111 0 0 0 12.65 2.812c8.828 1.178 17.709 2.21 26.615 2.467 56.667-.261 110.888-19.602 160.458-45.61 7.27-2.22 15.156-.415 22.6-1.455 24.584-1.067 49.589-2.885 72.989-11.11 22.684-7.53 40.892-23.495 55.436-41.922 6.171-5.317 17.273-8.094 25.703-12.584 25.775-12.391 51.147-26.962 71.367-47.598-8.64-8.592-14.829-20.151-15-32.5h37c1.139 10.124 16.296 14.756 22.862 17.74 22.408 7.606 51.324 10.331 72.467 4.923 11.28-2.697 22.512-6.487 32.23-13.006 8.39-6.1 20.709-15.026 18.849-28.346-2.061-9.813-10.542-13.802-18.887-17.253-28.809-9.796-59.68-8.287-89.521-7.058.24-5.263 3.72-9.636 5.637-14.349 16.357-34.651 29.407-71.187 34.12-109.374 4.008-40.112-1.345-80.397-4.757-120.277h38c-.621 17.658 4.092 38.778 13.187 52.386 10.844 14.247 32.508 17.664 47.734 8.278 10.121-6.5 12.258-16.46 13.963-26.722 1.608-11.437 1.265-23.072.309-34.538-2.679-20.057-7.536-40.445-17.925-58.044-10.185-19.074-27.329-36.123-49.268-40.36.369-80.527-29.891-160.875-86.904-218.355-28.126-26.859-60.443-49.729-97.62-62.315-40.167-14.685-84.054-17.733-126.187-11.538-30.959 4.286-60.703 16.593-86.165 34.605-18.802 13.766-34.643 31.222-48.54 49.81-19.693 27.494-34.039 59.422-60.191 81.889-12.555 11.489-26.81 21.185-42.048 28.747-7.89 3.69-15.446 7.999-23.12 12.088-6.34 4.072-16.401 7.979-17.225 15.069 16.08 5.663 34.074 4.363 50.407.647 28.963-6.6 53.516-24.977 76.063-43.397 19.797-16.902 39.029-34.526 59.756-50.314 18.077-13.005 37.612-24.94 59.225-31.032 33.947-8.067 85.858-9.628 111.986 29.787 8.188 12.283 12.431 29.506 12.539 42.92 1.856 26.76-6.258 54.913-27.786 72.425-8.377 6.432-19.85 6.611-29.366 10.86-16.271 5.316-32.307 11.793-46.984 20.69-10.832 6.599-21.102 14.55-28.906 24.649-6.357 7.719-9.429 19.398-3.439 28.236 8.755 11.733 26.058 18.025 38.988 18.469 15.4.755 30.302-4.046 45.517-4.94-3.107 20.023-12.988 38.517-17.57 58.195-11.815 35.657-23.21 71.434-34.953 107.11-9.873 31.573-20.404 62.951-30.55 94.43-1.15 3.37-2.15 6.803-3.814 9.954-2.446 2.334-6.315-2.733-8.443-3.563-11.234-7.84-23.526-14.772-37.174-17.302-13.148-2.437-26.902.284-37.709 8.355-9.374 6.593-18.5 16.654-23.613 25.765-5.37 10.12-7.673 21.559-8.847 32.83-.417 5.319.804 11.165-5.112 15.055-30.084 26.303-62.798 52.843-102.652 62.16-16.135 4.19-33 2.07-49.266 4.741-6.51 1.177-12.909 3.713-17.532 8.637-9.724 8.736-4.918 27.509-1.539 36.637 4.37 9.393 10.595 21.187 18.821 26.53 19.997 1.638 43.456-3.713 61.422-6.534 28.953-5.518 57.077-14.538 84.53-25.137 8.929-4.85 11.27 5.657 16.958 10.003 4.119 3.01 8.561 6.09 13.755 6.785 7.9 1.49 15-8.202 17.184-13.678 2.908-7.982 4.675-16.486 5.104-24.973m-197.894 8.242c-.439 8.39 5.936 13.086 13.15 12.512 8.072-.162 12.53-6.22 11.58-13.34.18-8.284-6.36-12.248-13.524-11.253-7.474-.192-11.72 5.125-11.206 12.081M1167 2151h204c-.624-9.944.79-20.136-.5-30-11.656 10.285-37.498 9.955-46.893-7.743.119-18.385-.257-37.569-6.107-55.257-12.84 23.037-27.486 45.59-46.951 63.724-5.133 4.399-9.939 9.148-15.398 13.16-4.526 4.633-8.097 5.679-12.683 2.308-3.182-1.726-6.133-3.86-8.6-6.48-1.214-4.56 5.623-10.766 7.04-14.673 2.775-4.11 5.484-10.366 8.092-13.539-3.842-3.243-9.862-5.228-12.665-9.146-3.947-7.531-1.163-17.411-4.087-25.42-1.658-8.159-3.56-17.95-6.748-24.934-8.547 18.883-17.76 37.668-29.427 54.887-5.702 8.734-12.13 16.946-18.889 24.876-3.11 3.977-7.268 7.267-9.766 11.656-.621 5.495-.354 11.065-.418 16.581m.5 193c11.752-47.754 17.238-96.898 18.5-146 22.205 2.263 44.059 7.604 66.186 10.532 5.613.875 11.185 1.929 16.785 2.814 2.131.359 4.72.583 6.516 1.438 4.454 5.92-4.958 15.596-9.018 18.498-5.892 4.504-13.398 5.623-20.469 6.718-4.7 17.826-8.559 36.232-15 53.5 6.897 3.65 14.151 6.794 20.892 10.758 3.212 1.893 6.438 3.776 9.315 6.169 2.926 1.846 5.986 5.807 8.793 6.573 7.716-38.475 14.633-77.523 14-117 15.217.907 30.11 5.045 45.21 6.876 13.875 2.66 27.965 4.225 41.79 7.124v-33h-180c-7.929.923-17.575-1.256-24 1 .76 54.622-.926 109.421.5 164m203.5 84v-26h-1.5c-7.203 6.155-21.115 5.4-27.885 3.309-6.101-2.102-12.436-7.042-15.866-11.788-1.345-5.56-.375-11.61-.83-17.296-1.027-16.006-4.495-31.757-8.419-47.225-12.324 25.928-26.756 51.272-46.975 71.975-5.272 5.158-10.286 10.659-16.044 15.27-2.121 1.512-4.27 4.426-6.66 4.256-4.536-.854-8.823-4.66-12.214-6.96-3.133-2.207-1.584-6.314.263-9.201 5.561-8.85 9.325-18.635 14.13-27.84-3.797-1.192-7.867-1.784-11.259-4.045-3.522-1.343-6.82-5.582-9.741-6.455.622-14.645-2.96-28.866-6-43h-2c-5.966 18.13-14.17 35.64-23.507 52.276-6.892 12.083-14.845 23.532-23.578 34.331-4.261 4.301-6.949 8.296-5.691 14.246-.053 5.448 8.794 3.93 12.167 4.147H1371m-165.984-910.115c-.661 8.513 5.904 13.504 13.308 12.856 3.095-.194 7.403-1.59 9.222-3.473 1.924-2.905 2.673-6.347 2.441-9.82.97-8.403-5.235-13.225-12.77-12.363-8.218-.4-13.006 5.234-12.201 12.8M1370.5 2329l.5-1.672c-.76-33.679.926-67.777-.5-101.328-6.575 7.046-16.132 10.224-25.5 11-3.873 18.579-8.556 37.405-14.535 55.33-.027 4.22 7.398 6.174 9.71 8.775 10.912 7.527 23.515 17.769 30.325 27.895m-37.5-307.25c12.341 10.984 28.936 19.137 37.5 34.25l.5-1.625V1959c-5.242 1.59-10.094 4.521-15.767 4.734-1.91.367-4.634.77-5.737 1.966-3.832 14.641-6.76 29.604-11.865 43.906-1.444 4.213-2.618 8.399-4.631 12.144m28-144.25c-1.236-2.965 3.207-6.063 4.732-9.132 8.415-11.394 17.355-22.378 25.955-33.629 6.235-8.365 12.846-16.446 19.083-24.799 5.546-9.094 12.91.076 18.235 4.42 9.333 7.455 18.574 14.997 27.846 22.524 8.248 6.06 16.799 14.307 25.149 22.116-.74-26.32.907-52.723-.5-79-1.884 12.682-17.66 11.981-26.719 12H1349v74.8c.646 3.529-1.156 9.589 1.888 11.594 3.246.568 7.567 1.101 10.112-.894m67.27-458.575c-.323 17.738 15.747 32.518 33.392 29.849 16.48-1.282 27.516-17.825 25.193-33.454-1.412-18.045-18.02-27.278-33.351-24.986-14.363 1.475-24.826 14.598-25.235 28.591M1476 810c6.237.031 13.075-6.312 20.537-6.655 12.855-2.049 20.891 5.576 30.111 11.413 1.993 1.81 4.91-.807 6.722-2.64 2.881-2.848 5.735-5.74 8.605-8.593 2.708-2.911 6.699-5.96 7.025-9.525-12.58-8.38-25.645-19.171-41.906-19.81-8.564-.962-17.077-.145-25.284 2.36-7.26 1.119-12.981 6.433-19.81 8.45 1.521 9.648 11.793 15.593 14 25m1 522c9.335-1.569 17.578-7.644 27-9-.617-11.403-7.176-22.753 1.608-35.299 2.23-3.94 5.296-7.348 8.698-10.298 8.424-5.432-.307-12.986-3.347-18.921-2.323-3.472-5.631-12.352-11.605-7.423-14.109 9.762-24.703 24.917-26.53 42.328-2.055 9.889-.134 21.936 1.975 30.766.527 2.58 1.707 5.494 2.201 7.847m50-151c4.819-.628 9.195-3.171 13.804-4.531 4.5-2.06 10.462-3.294 14.196-5.969-1.109-6.237-4.139-12.211-3.774-18.738.26-10.862 6.793-20.473 15.068-26.9 4.205-3.46 1.866-6.77-.802-10.15-3.322-5.23-7.458-12.823-11.32-16.235-4.507-.287-8.53 4.88-12.273 7.971-11.395 9.704-18.481 24.855-19.24 39.903-1.614 9.201.964 20.315 2.85 28.453.584 2.053 1.277 4.07 1.491 6.196m41 668h24v-130h-24zm1.151-841.754c.237 10.739 2.44 21.035 6.84 30.556.942 2.485 2.384 4.712 3.882 6.879 2.95 2.478 8.236-2.566 10.797-3.43 3.14-1.868 6.276-3.701 9.385-5.596 6.898-3.17 3.803-9.049 1.559-13.63-1.897-5.127-3.759-10.633-3.014-16.195 1.054-7.308 4.532-14.25 9.646-19.56.87-1.36 2.618-2.546 3.256-4.36.058-2.124-2.616-4.07-3.874-6.124a59 59 0 0 0-5.363-6.021c-2.17-2.048-4.095-4.315-5.987-6.602-4.478-5.524-8.932-.536-11.38 3.241-10.38 11.036-15.216 25.685-15.747 40.842M1586 1372c7.64-.053 14.502-4.216 21.648-6.383 1.888-.755 3.903-1.456 5.408-2.871 1.34-4.616-3.064-11.204-2.027-16.966-.977-11.39 5.725-21.304 14.14-28.245 5.054-3.688.325-9.546-2.05-13.358-2.437-4.65-6.642-9.566-8.119-14.177-4.447.065-7.685 3.494-11.002 6.002-9.426 7.806-16.882 18.523-20.097 30.393-4.077 15.17-1.677 30.792 2.099 45.605m49-473c9.503 1.843 19.336 2.627 29 3 .59-16.277-.042-33.584-9.82-47.509-8.57-12.756-22.197-22.81-37.18-26.491-1.679 6.841-4.642 13.352-6.528 20.143-.94 1.957-1.3 4.153-1.016 6.637 1.991 3.43 8.386 4.16 11.562 7.59 13.134 9.185 14.517 23.117 13.982 36.63m1 322c9.898-.55 18.53-6.764 28-9-.842-11.393-7.454-23.061 1.825-35.493 2.256-3.64 5.359-6.636 8.565-9.403 7.873-4.966-1.125-13.88-3.868-18.88-2.509-4.225-5.672-11.78-12.056-7.035-13.984 9.64-23.633 24.99-26.122 41.744-1.03 10.273-.435 20.76 2.088 30.748.553 2.436 1.272 4.838 1.568 7.319m38.062-182.128c.303 11.03 2.579 21.754 7.202 31.579 1.287 2.172 2.345 5.34 4.276 6.76 3.16 1.237 7.325-3.168 9.976-4.002 3.164-1.958 6.443-3.715 9.624-5.634 6.896-3.093 3.65-8.797 1.423-13.232-2.138-5.211-3.797-11.888-2.916-17.065.89-6.868 4.042-13.272 8.859-18.235 7.123-6.35-1.208-12.616-5.49-17.519-3.69-2.618-8.031-11.827-12.642-7.958-12.617 11.307-19.977 28.294-20.312 45.306M1801 1849h22v-130h-22z" style="fill:#fff;fill-rule:evenodd;stroke:none"/><path d="M449 2668h2102c-110.242-665.144-221.837-1330.12-332.532-1995.186-3.476-20.835-6.96-41.682-10.42-62.51-1.682-10.253-3.434-20.498-5.126-30.74-1.284-4.301-.763-13.077-5.037-14.575-157.034-52.902-314.464-104.735-471.586-157.384-59.003-19.668-117.989-39.359-177-59-12.991-4.38-26.002-8.647-38.997-13.002-3.112-1.025-6.191-2.224-9.42-2.795-5.85.042-13.257 4.126-19.018 5.393-97.504 32.546-195.061 65-292.567 97.54-73.178 24.36-146.325 48.77-219.478 73.159-54.841 18.294-109.718 36.516-164.531 54.86-6.415 1.276-7.163 6.488-7.57 12-26.516 158.994-52.99 317.976-79.524 476.964A2145928 2145928 0 0 0 449 2668m599-789.5c2.496 8.409 4.52 17.055 7 25.5h426v29c-36.295-3.579-72.8-6.684-109-11-.549 5.764.716 12.796-.5 18-26.431-5.42-53.884-8.829-80.5-14-.884 19.767-1.823 39.566-4.81 59.147-1.265 10.073-3.296 20.055-5.312 29.995-1.09 4.671-2.11 9.361-3.168 14.031-1.487 3.935-2.041 10.373-4.71 12.827-11.442-9.784-24.808-17.796-39-23 5.796-15.115 10.259-30.77 14.561-46.375.683-2.013 1.01-4.217 2.116-6.042 6.27-4.02 14.246-2.914 20.357-7.98 5.45-3.378 9.06-8.938 10.966-14.916-2.622-2.446-7.855-1.987-11.736-3.145-25.085-5.351-50.577-8.898-75.57-14.542-2.09 2.141-1.563 6.378-1.971 9.694-4.068 47.316-11.137 95.143-26.223 140.306-1.426-26.385.259-53.092-.5-79.532.042-13.399-.052-26.785.028-40.18-.229-7.868 7.411-6.69 12.55-10.232 4.896-2.94 7.785-8.5 8.422-14.056-18.768-.544-37.382-3.877-56.099-5.086-18.881-2.729-38.106-2.741-56.901-5.914v599c11.904-.154 23.947.64 35.728-1.46 16.054-2.74 31.237-8.883 45.396-16.725 3.212-2.019 6.945-4.564 9.227-7.21 2.868-5.969.978-13.27 1.649-19.635V2455h206v53c27.386 1.02 55.531-2.125 79.99-15.585 5.2-3.289 12.634-6.753 14.382-12.131 1.788-22.374-.322-45.065.628-67.507.76-95.56-.926-191.271.5-286.777 1.614 2.954 6.731 1.517 10.278 2H1582c-8.078 33.068-18.542 65.575-30.31 97.493-11.584 30.829-21.794 62.577-36.69 92.007 37.922 16.128 90.836 19.71 126 4.5 8.921-26.29 18.244-52.711 27.918-78.714 6.615-2.618 16.376-.383 23.352-1.286H1762c-2.859 23.61-5.2 47.327-9.951 70.672-3.097 17.309-7.632 34.39-13.13 51.055-4.083 11.577-10.317 25.672-19.458 32.792-18.155 10.477-43.798 4.385-61.585 4.68-20.663-.406-41.222-2.761-61.876-3.199v11c24.51 5.943 50.805 13.732 68.378 33.232 17.686 21.207 17.438 50.75 17.622 76.768 25.981-.061 52.474-2.287 77.183-10.9 17.018-5.655 33.773-13.288 47.682-24.792 20.451-17.95 33.633-42.602 42.354-68.034 9.15-26.978 14.895-54.913 19.235-83.005 3.192-18.625 5.39-37.41 7.373-56.188.838-4.851.34-10.221 2.138-14.84 11.632-5 31.418-4.159 36.035-18.241-35.193-24.53-66.347-56.324-101.5-81-17.823 15.977-37.842 35.685-54.257 50.269-4.362 5.046-12.787 3.606-18.686 3.731h-47.306c-4.412-.311-11.095.771-14.251-1.5 5.347-13.637 9.477-28.245 14.091-42.227 4.386-14.708 9.859-29.196 12.909-44.273h202.2c15.4-.9 35.986 3.197 44.029-10.931 2.94-4.871-2.706-9.255-6.107-12.426-28.472-25.665-56.983-51.365-87.122-75.143 14.942-2.465 34.432 3.781 44.891-9.209 6.645-7.61-3.318-12.257-7.985-16.9-5.168-5-11.81-10.212-16.642-14.698-15.682-13.335-31.603-26.385-47.486-39.468-8.637-6.47-16.649-13.78-25.278-20.225-15.32 19.538-30.05 39.581-45.186 59.261a293 293 0 0 1-8.519 11c-3.273 4.466-8.189 3.754-13.143 3.739H1512c.89 7.466 4.202 15.885 5.868 22.54.904 4.265 7.633 3.312 10.72 3.46H1847v1.5c-13.009 16.476-24.738 34.01-37.196 50.9-2.568 3.768-5.445 7.313-8.041 11.048-2.493 3.28-5.584 8.949-9.355 9.285-78.648.761-157.37-.138-236.032.267h-59.331c-7.391-.004-14.783.005-22.174-.003-2.58-.044-7.504-.081-7.44-3.05-1.229-47.9.223-96.014-.431-143.947 4.684-.253 9.798-2.457 14-3-.189 4.565 2.782 5.332 6.205 4.966 20.942.299 41.99-3.483 61.013-12.429 5.329-2.364 11.53-5.714 15.655-9.143 4.525-3.99 2.732-11.9 3.127-17.187v-32.927c.06-2.935-.607-9.085 4.046-9.04 6.552-.126 14.879-.746 20.684.697 2.488 4.218.474 10.956 1.27 15.537V1939c26.88 1.264 53.62-3.661 78.207-14.896 5.65-2.447 12.857-5.49 12.754-12 .11-21.552-.02-43.123.039-64.666V1729c8.753-1.006 16.22-5.479 24-9v233c24.528.926 49.443-1.869 71.734-12.896 5.196-2.37 10.213-5.09 14.765-8.533 7.964-5.695 4.863-18.844 5.501-27.03V1876h24v63c28.416 1.004 57.197-3.227 83.137-15.682 5.228-2.464 13.26-5.22 12.844-12.808.054-22.555-.01-45.109.019-67.664V1729c11.07-2.045 21.673-6.773 30-14.5v-1.5c-31.18-20.322-59.694-46.024-90.5-67-10.22 10.522-19.932 21.493-30.602 31.602-4.111 3.539-7.778 8.84-11.428 12.15-9.43 6.207-20.164-.814-28.187-3.635-13.666-5.521-27.247-11.265-40.995-16.59-13.199-4.434-27.77-12.73-40.288-15.527-.733 17.897.9 36.215-.5 54-13.25-10.748-27.566-20.204-41.049-30.67-6.814-5.15-13.674-10.23-20.62-15.177-6.7-4.363-13.644-11.394-20.518-14.153-8.94 10.718-19.334 20.123-28.667 30.465a155 155 0 0 1-11.156 11.356c-8.661 6.57-19.72-.766-27.207-3.109-25.458-10.844-51.395-20.776-76.783-31.712-2.185 39.768 1.185 80.295-1 120-27.08-27.39-57.088-51.62-86-77-14.754 20.207-29.444 40.714-44 61l-.5-1.625V1671c12.11-1.792 29.518-5.715 30-24-10.357.155-20.619-1.526-30.925-2.065-5.232-.379-10.41-1.12-15.644-1.403-4.595-.644-10.544-.008-14.431-2.032 15.318-4.822 30.927-9.645 45.446-16.693 6.656-2.992 13.336-5.906 19.719-9.472 13.374-9.562 26.408-7.487 40.862-7.513 24.225-1.481 48.755-4.376 71.828-12.29 15.87-5.702 30.74-14.237 43.9-24.728 5.293-4.109 9.927-8.917 14.615-13.674 4.033-3.634 8.518-9.802 12.65-11.732 36.348-15.142 71.699-34.16 100.48-61.398 22.524 13.024 65.486 25.083 51.987 63.767-4.227 10.422-13.582 18.802-14.572 30.62-2.314 13.021 9.233 17.225 19.078 20.013 30.73 6.004 76.76 3.63 98.36-32.145 18.554-33.197 17.6-72.537 17.647-109.236v-41.69c.04-10.005.304-20.267-2.764-29.924-4.362-12.867-15.841-22.005-27.987-27.087-13.183-5.864-27.183-9.7-41.43-11.866-5.233-.886-10.52-1.433-15.819-1.452.817-7.337 4.995-13.987 6.558-21.175A304.6 304.6 0 0 0 1776 1255h1.5c9.093 9.29 21.584 14.89 34.5 16-2.093 14.197-2.384 30.157 7.428 41.885 10.18 13.378 24.581 14.826 38.908 14.068 24.096-2.486 46.155-26.674 50.97-47.297 2.913-12.983-.158-26.612-8.52-36.923-6.699-9.864-18.509-20.453-17.585-31.549.767-33.42 2.393-67.283-4.03-100.402-6.83-30.056-21.01-60.58-46.659-79.132-4.992-4.064-10.876-6.726-16.5-9.73-6.285-2.989-3.043-14.254-4.099-19.55-4.352-100.95-61.795-196.846-146.808-250.611-44.005-27.442-94.89-44.8-147.133-45.215-27.2-1.326-54.581 2.369-80.966 8.721-23.822 6.754-46.143 17.665-66.788 31.226-41.157 26.986-70.668 67.313-95.93 108.6-10.3 18.884-25.233 34.862-43.75 45.897-16.363 10.723-34.748 18.191-50.583 29.79-15.097 10.658-30.382 27.18-28.526 47.283 2.5 18.869 26.446 27.347 41.854 30.302 33.55 6.154 74.462-2.91 100.898-18.957 51.386-26.658 86.282-77.554 138.239-103.223 20.607-9.477 49.284-11.317 68.632-3.051 19.805 9.95 23.797 31.689 20.876 51.649-1.47 7.938-5.166 17.218-10.682 22.397-5.932 4.996-14.385 5.22-21.425 8.058-27.298 9.266-54.4 21.167-76.34 40.381-17.253 13.827-29.948 34.138-30.96 56.552.332 8.878-3.407 16.991-4.279 25.798-1.193 15.78.449 31.785 5.822 46.728 2.935 10.563 9.367 20.495 9.715 31.72.027 9.494-8.542 13.178-13.076 20.182-3.627 4.66-3.303 13.724-.093 17.31 5.644 7.098 19.378 6.644 26.53 7.016 9.41-.21 18.77-1.492 27.86-3.923-5.535 19.756-12.485 39.235-18 59-28.24-7.98-57.367-17.922-87.347-14.376-21.883 1.346-42.117 13.39-53.683 31.99-8.786 13.508-13.31 29.043-18.475 44.142-4.315 11.19-8.982 22.837-17.972 31.211-6.143 6.2-13.75 10.73-21.809 13.942-6.248 2.468-12.83 4.52-18.587 8.033-9.117 5.19-8.75 20.13-2.94 27.447 6.118 7.88 15.211 12.392 24.19 16.145 2.388 1.15 5.57 1.637 7.623 2.966-12.543 9.414-30.31 15.837-44.419 17.907-24.798 3.146-58.659-1.365-80.527 24.083-14.125 16.024-15.858 39.781-11.152 59.6 3.486 15.341 10.883 29.415 21.626 40.854 1.939 2.18 4.418 3.777 6.262 6.016 3.23 9.78 3.338 21.552 9.14 30.771 14.498 29.688 47.9 43.638 78.903 46.757 9.986 1.539 20.115 1.465 30.167 1.512v223h-40v-149c11.075-2.468 26.493-6.275 27-23-21.425-.601-42.703-3.827-64.081-5.105-20.667-3.063-41.85-2.478-62.419-5.895-2.028 2.7-1.272 7.433-1.5 11.182V1878h-49zm99.5-318.5c39.531-2.839 79.968-9.107 117.67-22.556 9.48-3.117 18.982-6.193 28.2-9.994 4.44-2.244 7.414-2.403 9.767 1.601 6.682 9.956 21.685 20.1 31.637 11.79 10.083-8.311 12.389-24.77 13.226-35.841 26.23-9.857 51.991-23.505 80.548-25.833 5.637-.009 12.622-.79 17.566 1.063 12.591 6.283.483 18.857-7.028 21.789-6.729 3.822-16.876 10.025-22.198 4.372-5.385-5.057-12.083-9.97-19.827-10.033-6.715-.232-11.517 8.566-13.253 13.155-2.323 5.313-3.317 11.063-4.346 16.712-.418 5.572-6.43 8.039-10.038 9.999-29.887 17.61-61.048 33.246-92.924 46.776-1.597-7.223-4.916-14.294-11.17-18.701-7.244-6.358-14.952-1.212-18.725 4.405-5.488 7.425-10.383 17.683-10.605 26.296-11.996 3.679-24.617 3.203-37 3-1.83-9.295-4.157-18.984-10.845-26.205-7.536-9.964-17.293-4.484-24.05 2.6-3.728 3.708-9.05 8.403-5.35 15.024 2.387 5.695 6.186 10.637 10.893 14.599 5.428 4.772 12.301 7.553 19.098 9.65 4.695 1.283 9.431 2.357 14.263 2.972 9.176.875 19.982 2.378 28.455 2.027 55.114-.471 108.121-19.345 156.382-44.59 6.706-3.232 14.496-1.561 21.635-2.228 24.31-1.014 48.917-2.562 72.277-9.958 21.98-7.207 41.47-21.047 55.735-39.259 6.16-8.274 16.89-10.641 25.69-15.075 27.624-12.427 54.454-28.222 75.817-50.057-8.667-8.306-15.048-19.41-16-31.5h35c1.139 10.124 16.296 14.756 22.862 17.74 22.712 7.669 51.953 10.371 73.43 5.182 11.621-2.799 23.273-6.473 33.267-13.265 8.496-5.75 19.983-14.683 19.194-28.44-1.009-10.279-9.212-14.945-17.687-18.555-29.13-10.426-60.753-8.94-91.066-7.662 16.967-36.43 33.491-74.152 38.733-114.488 5.64-42.342.143-85.333-3.733-127.512h36c-.553 17.79 4.076 39.246 13.535 52.82 11.247 14.123 32.873 16.848 48.477 8.43 10.465-6.113 12.993-16.03 14.705-26.341 1.798-11.438 1.41-25.144.636-35.687-2.387-20.686-7.535-41.718-18.085-59.862-10.185-19.074-27.329-36.123-49.268-40.36.398-80.709-30.051-161.214-87.256-218.722-28.191-26.813-60.558-49.624-97.78-62.125-40.18-14.48-84.082-17.582-126.205-11.52-31.375 3.855-61.377 16.501-87.207 34.443-18.963 13.844-34.977 31.38-48.969 50.131-10.269 13.548-18.86 28.207-27.612 42.723-13.384 22.513-32.466 41.305-54.015 55.962-10.717 7.37-22.396 12.954-33.96 18.815-5.321 3.073-10.956 5.586-16.157 8.88-5.347 2.963-11.17 6.882-10.839 13.413 31.74 10.119 66.68-.331 93.758-17.199 46.297-28.97 81.153-74.479 131.076-98.224 19.69-10.109 42.17-13.685 64.098-13.432 18.356 1.412 37.964 4.82 52.598 17.094 26.68 20.54 33.796 58.655 25.84 89.877-3.054 11.69-8.575 22.714-16.2 32.07-3.715 4.009-7.574 7.927-12.002 11.13-9.22 4.804-20.417 5.351-29.899 9.754-16.191 5.21-31.797 12.294-46.25 21.265-10.471 7.116-21.06 15.033-28.071 25.819-5.486 8.188-6.984 20.009-.761 28.235 9.2 11.35 26.483 17.437 39.474 17.584 14.579.661 31.184-3.594 44.339-4.973-12.477 45.561-30.093 89.693-43.19 135.09-7.266 22.411-14.448 44.843-22.018 67.156-3.263 11.424-7.388 22.57-10.998 33.885-3.862 9.465-5.967 23.045-11.294 32.869-13.136-12.111-33.307-21.817-49.743-22.843-19.819-2.306-36.942 9.59-49.18 23.848-8.796 10.049-13.274 23.289-15.298 36.27-.536 3.451-.966 6.923-1.174 10.404-.227 2.962.155 6.763-1.659 8.945-16.193 15.03-33.763 28.775-51.932 41.374-13.555 9.325-28.48 16.57-44.189 21.387-12.894 4.264-26.624 5.494-40.114 5.638-15.831.374-43.658 1.871-42.207 27.125.071 19.02 9.988 37.04 23.496 49.852m2.703-47.544c-.12 7.325 5.675 11.487 12.067 11.117 7.143-.427 11.343-6.074 10.426-12.429-.37-7.27-6.298-10.77-12.677-9.831-6.579.272-10.188 5.09-9.816 11.143M1166 2152h206c-.639-11.238.805-22.884-.5-34-6.39 6.575-15.802 10.035-24.879 8.55-6.947-.622-12.76-4.756-18.062-8.895-5.333-3.59-3.858-8.772-3.565-14.14.616-16.458-3.524-32.443-5.994-48.515h-2c-15.77 33.04-40.183 62.182-69.5 84-4.148-3.62-9.654-5.442-13.5-9.5 6.187-8.605 11.809-19.819 17-28-4.676-2.642-10.906-5.494-13.97-9.578-3.41-8.102-1.07-18.083-4.066-26.488-2.288-7.63-2.779-17.15-7.464-25.434-9.104 19.225-17.957 38.889-30.17 56.487-5.802 9.071-12.572 17.462-19.467 25.707-3.053 4.208-8.31 7.504-9.51 12.262-.736 5.814-.088 11.71-.353 17.544m.5 200c13.698-49.708 18.81-101.616 20.5-153 21.274 3.08 42.456 7.13 63.7 10.448 5.393.87 10.75 1.835 16.13 2.732 2.9.444 10.56.548 8.242 5.923-4.72 13.441-17.574 17.092-30.072 18.897-3.928 18.91-10.199 37.345-15 56 14.538 5.62 28.592 13.777 39.5 25 10.725-38.473 14.778-79.107 15.5-119 29.135 3.595 57.898 10.2 87 14v-35h-181.2c-8.188.925-18.17-1.258-24.8 1 .76 57.602-.926 115.487.5 173m205.5 77c-.648-9.897.815-20.215-.5-30-7.454 6.586-18.622 8.323-27.988 5.588-6.444-2.026-13.196-7.04-16.763-12.067-1.345-5.56-.375-11.61-.83-17.296-1.762-16.49-4.045-33.506-9.419-49.225-8.658 17.162-17.228 34.735-28.56 50.416-11.023 16.72-25.805 30.053-40.268 43.584-5.09-1.993-11.087-6.837-14.672-9.5 5.772-11.138 14.153-24.197 17-35.5-9.484.442-13.967-6.81-21-10 .333-15.977-3.103-31.791-7.5-47-12.247 28.558-23.807 58.197-43.447 82.906-4.418 6.063-12.399 13.368-12.049 19.837.191 2.585-.226 7.088 2.432 7.817 23.392 1.256 46.99-.229 70.409.44zm-165.927-911.257c-.341 7.631 5.578 12.182 12.121 11.836 7.646-.087 11.507-5.742 10.757-12.544.481-7.454-5.62-11.539-12.118-10.836-6.992.121-11.167 4.99-10.76 11.544M1328 2294.625c15.724 10.947 33.393 21.37 43.5 38.375 1.381-18.275-.214-36.814.5-55.14-.725-18.184.892-36.796-.5-54.86-6.918 8.062-16.959 12.438-27.5 13-4.433 19.48-8.742 40.21-16 58.625M1371.5 2060c1.371-17.286-.205-34.804.5-52.14-.718-17.183.885-34.796-.5-51.86-3.921 3.602-9.267 4.987-14.31 6.188-2.527.747-5.787.658-7.94 1.767-3.634 8.07-4.036 18.028-7.112 26.477-1.847 6.43-3.864 12.82-5.859 19.195-1.046 4.3-3.999 9.78-3.718 13.401 4.764 5.245 11.89 8.185 17.024 13.11 5.504 4.61 10.97 9.309 15.583 14.85 2.087 2.882 4.921 6.072 6.332 9.012m-21.5-182c5.627.417 11.291.416 14.727-6.018 9.575-12.967 19.809-25.456 29.495-38.329 7.465-8.993 13.916-19.047 21.778-27.653 22.311 16.194 42.447 35.465 64.5 52 1.424-25.033-.258-50.399.5-75.5l-.5-1.5c-5.026 10.916-18.218 10.12-27.305 10H1350zm79.424-458.96c.027 16.287 14.85 30.618 31.258 28.729 15.422-1.22 27.197-16.538 25.156-31.667-.774-15.494-16.686-27.247-31.614-24.733-13.767 1.592-24.269 14.1-24.8 27.672M1463 786.25c3.741 7.707 11.46 15.233 14 22.75 3.986-.472 8.354-4.176 12.957-5.345 15.564-5.24 28.012 2.152 38.543 11.345l19.5-19.5c-11.825-9.059-24.773-18.544-40.263-20.136-17.83-2.818-30.29 4.27-44.737 10.636zm15.5 544.75c7.734-3.633 16.28-6.655 24.5-9-1.204-9.319-5.238-18.93-1.566-28.39 2.623-9.04 9.45-15.522 16.566-21.11-4.962-7.019-9.263-16.525-14.5-22.5-20.993 12.416-33.716 37.558-29.902 61.997.944 6.237 2.426 13.728 4.902 19.003m50-151c7.972-4.533 17.738-5.61 25.5-10.5-4.098-7.859-4.798-19.455-2.226-27.113 2.605-10.227 9.585-14.854 16.226-21.137-4.74-7.046-9.475-16.243-14.5-22.25-20.668 12.27-33.825 37.247-29.649 61.564.658 6.636 2.47 13.152 4.649 19.436m38.5 670h26v-132h-26zm14.5-805c7.252-4.72 15.499-8.317 22.5-13.5-3.202-8.502-7.995-17.41-6.394-26.887 1.087-9.28 6.685-17.04 13.394-23.113-6.654-5.44-11.22-14.753-19.5-20.5-10.882 10.727-19.531 24.57-20.596 40.161-2.535 14.677 3.511 32.683 10.596 43.839m5.5 326c4.487-.114 8.519-2.333 12.656-3.742 4.167-1.78 10.321-3.45 13.344-5.758-3.198-8.405-4.448-19.443-1.783-27.377 2.5-8.654 9.51-14.384 15.783-20.123-2.587-8.096-11.006-15.34-13-23-18.654 9.613-31.85 31.196-31 52.373-1.008 9.529 1.71 18.577 4 27.627m49-473c8.603 1.672 18.987 2.507 27 3 .615-15.813-.622-32.48-10.067-45.912-7.794-12.925-21.242-20.196-34.433-26.088-2.861 7.126-5.69 15.925-7.653 22.702-1.907 4.178 5.658 5.633 7.75 7.387 3.454 2.095 6.84 4.469 9.268 7.764 7.775 8.566 8.898 20.199 8.135 31.147m1 322c9.08-1.474 17.14-6.78 26-9-1.757-9.185-5.144-18.952-1.68-28.35 2.711-8.7 9.674-14.923 16.68-20.15-5.142-7.247-9.25-15.316-14.5-22.5-22.398 11.453-33.316 38.029-30.103 62.023.385 6.15 2.768 11.929 3.603 17.977m49.5-143c7.063-5.05 15.422-8.452 22.5-13.5-5.56-11.007-11.184-26.385-1.75-39.898 1.636-2.83 4.376-5.562 6.13-7.949 2.446-2.344.32-4.437-1.22-6.037-4.82-5.612-9.876-10.984-14.66-16.616-14.444 10.137-22.868 32.077-22.299 47.772 1.005 12.592 3.966 25.68 11.299 36.228m113.5 773h24v-132h-24z" style="fill:#000;fill-rule:evenodd;stroke:none"/></svg>