<svg xmlns="http://www.w3.org/2000/svg" width="3000" height="3000"><path d="M1172 1292c-.614-18.042 4.458-36.823 18.5-49 40.4 27.55 66.192 71.136 87.428 113.835 5.208 11.562 11.076 22.824 16.34 34.349 1.715 4.25 4.44 8.233 5.24 12.766-19.872 23.133-46.808 47.487-46.508 81.05-12.398-.022-24.96-.665-37.152 2.137-16.433 4.132-32.425 12.437-42.92 26.096-4.97 6.689-7.566 15.913-4.816 24.08 3.288 8.06 14.826 9.795 22.211 10.411 12.102 1.141 24.58-1.071 36.488 1.998 10.676 2.268 21.072 10.987 26.423 19.203 5.07 7.32 6.382 16.201 9.133 24.43 2.363 7.263 8.366 10.835 15.303 9.27 9.778-1.238 15.96-14.566 19.03-21.395 3.775-9.273 6.284-19.184 6.3-29.23 20.327.983 39.217-7.747 56.785-16.931 15.826-9.41 33.558-22.296 45.715-34.069 3.428 13.347 6.198 27.52 13.5 39.5-13.039 4.703-25.337 13.193-32.372 25.36-5.218 9.021-11.536 32.028 7.347 33.72 15.045 1.47 35.99-4.14 49.622 11.532 5.45 5.777 8.857 13.295 10.901 20.876 2.045 7.78 3.484 17.173 10.672 22.113 19.077 7.636 28.41-10.861 34.92-24.487 6.326-16.209 7.979-37.812 3.964-53.333-.507-3.162-2.374-6.47-3.054-9.281 4.086-.495 7.587-3.067 11.29-4.674 2.92-1.098 7.447-5.42 10.08-2.96 11.305 8.186 23.277 17.374 38.22 16.602 6.211.467 12.354-.292 18.26-2.205 4.475-.982 9.28-3.595 13.42-4.278 7.064.06 15.844 5.469 24.436 5.294 12.921.915 26.708.26 38.244-6.448 10.662-5.645 19.29-15.341 22.05-27.331 16.737.372 34.254-4.936 46.37-16.88 5.779-5.538 10.918-12.04 13.348-19.778 2.582-7.592 5.1-18.065.141-23.714-18.125-19.26-39.112-35.652-60.506-51.11-26.969-19.659-54.937-38.28-84.353-54.018 38.904-19.1 71.648-49.373 95.165-85.78 18.097-27.381 32.123-57.155 43.845-87.757 2.213-6.009 4.136-12.128 6.527-18.066 2.398-9.97 15.969-15.254 24.981-22.294 33.171-23.328 63.39-50.616 90.389-80.732 12.332-14.619 25.957-32.903 32.981-49.111 7.284-16.205 9.825-43.401-10.888-54.26 13.435-1.058 28.024-2.121 38.9-11.443 15.61-12.769 23.27-32.226 31.804-49.842 7.458-17.75 21.45-40.77 6.567-55.784-6.392-5.934-15.086-8.006-23.382-9.555-26.576-5.138-53.952-4.227-80.852-4.876-54.346-.515-108.687.847-162.747 6.578-32.094 3.075-63.886 8.492-95.098 16.515-42.338 11.524-86.763 30.405-111.57 68.96-25.615 38.618-26.59 87.02-41.008 129.616-5.976 18.63-13.152 36.943-22.114 54.331 2.31-38.849-3.9-85.741-17.148-119.144-6.072-15.144-14.05-29.63-23.933-42.616-9.458-11.884-20.144-23.171-26.35-37.248-11.85-29.067-14.619-60.87-19.77-91.511-1.496-13.352-3.507-26.637-5.7-39.878-1.066-6.117-1.965-12.537-5.118-18.02-4.199-6.235-12.598-2.6-17.522.148-18.896 11.08-35.028 26.186-52.416 39.337-7.742 6.074-15.574 11.993-23.455 17.868-3.45 2.476-7.573 5.4-11.217 6.843-5.731 2.518-9.675-.908-9.71-6.275.497-16.788 10.82-34.542 18.16-47.445 7.934-12.486 15.706-25.116 22.335-38.354 3.125-6.172 6.238-12.576 7.048-19.555.364-6.627 1.444-14.945-3.829-18.805-5.436-3.265-12.136-1.986-18.043-1.683-42.611 4.907-85.042 36.685-109.736 65.693-29.056 31.272-51.105 69.01-64.851 109.382-18.113 52.691-17.152 111.211-.163 164.039 15.695 50.176 45.231 94.757 80.184 133.443 2.685 2.461-.555 5.366-2.08 7.612-6.052 8.983-11.302 18.933-13.395 29.642-3.317 17.856.528 36.834 11.504 51.426 9.824 13.21 24.581 24.707 41.705 25.101m-123 567c.358 5.966 5.294 10.289 7.749 15.44 22.696 39.72 39.936 84.297 42.798 130.349-.585 11.307 13.553 17.422 21.956 21.924 16.097 7.182 34.815 8.671 51.6 2.554 15.092-5.877 28.168-20.864 33.8-34.318 7.494-17.855 6.105-37.782-1.669-55.248-10.692-24.872-32.958-42.511-56.126-55.14-24.812-12.935-51.619-21.722-79.03-27.255-3.744-.667-7.445-1.787-11.268-1.88-3.569-.332-7.218 2.924-9.81 3.574m12 388c17.838.038 36.358 5.33 49.824 17.44 10.895 11.808 12.19 31.766 14.093 45.368 3.517 33.423 1.926 67.254-1.253 100.622-1.598 14.58-3.57 29.136-5.834 43.629-.76 6.449-3.146 14.116-2.199 20.117 2.606 12.024 8.23 23.69 17.247 32.181 17.378 16.892 43.662 18.913 65.828 12.171 19.062-5.468 35.89-18.036 46.244-34.977 10-15.742 12.731-34.593 12.05-52.845.439-16.887.164-33.841-3.705-50.379-6.143-26.6-18.61-51.058-28.428-76.335-14.984-41.454-5.111-86.288 2.6-127.96 8.763-40.661 18.024-81.209 27.678-121.651 14.228-64.991 30.741-129.676 45.855-194.381-6.765-.293-16.23-5.475-18.893 4.743-2.819 7.048-5.978 13.956-8.81 20.994-27.632 65.281-55.445 130.493-83.606 195.543-14.392 32.31-27.076 65.415-42.867 97.082-4.029 8.268-8.193 16.47-12.72 24.47-5.7 11.055-11.79 24.349-28.426 24.8-14.87.917-29.8-.058-44.678.368zm30-603c.104 5.386 5.422 10.927 8.076 16.368 22.105 39.908 42.898 81.563 52.978 126.404 2.162 5.822 1.51 14.045 4.208 18.043 15.183 13.62 36.005 19.447 55.986 18.064 19.884-1.507 38.393-13.71 47.977-31.151 10.449-17.932 11.52-40.868 3.508-59.91-11.515-28.077-36.05-47.783-62.098-61.74-26.994-14.564-57.287-21.997-87.179-27.67-4.274-.62-8.46-1.659-12.762-2-3.97-.887-7.854 2.7-10.694 3.592m164-460c-1.117 8.483-8.034 14.758-13.986 20.17-6.09 5.422-12.735 10.171-19.014 15.33 18.2 13.726 32.435 31.495 44.896 50.439 6.256 9.207 11.88 18.82 17.68 28.3 4.685 9.398 12.352 19.573 15.424 28.761h2c1.868-13.304 7.398-25.845 10-39 16.647 4.753 32.472 12.775 49 18-2.342-19.955-3.57-40.062-6-60 17.266 1.857 34.037 10.054 51 12.5-7.436-19.767-11.68-41.13-18.631-61.175-2.654-9.604-5.805-19.03-8.449-28.631-1.433-4.12-2.568-9.201-4.293-12.806-12.033-11.435-27.49-19.314-40.203-30.049-23.555-16.569-46.348-35.02-73.112-46.289-21.428-8.466-50.502-7.269-69.182 2.9-14.462 7.38-26.563 19.654-33.06 34.558-9.786 19.444-8.703 52.595 17.255 65.62 25.228 10.466 52.726 1.385 78.675 1.372m-46.942-32.228c-.26 9.264 8.175 16.598 16.886 16.14 10.69.125 19.51-8.065 23.684-17.241 4.204-9.478 3.858-28.735-12.092-29.54-7.47-.134-14.568 6.003-18.706 10.853-4.626 5.619-9.938 11.741-9.772 19.788M1514.5 2162c1.426 27.847-.26 56.08.5 84 13.162-.242 26.378.485 39.494-.73 17.82-2.11 34.875-8.099 51.225-15.216 7.555-3.562 14.866-7.918 21.12-13.48 8.551-6.584 7.649-15.487 7.161-24.574h167c-1.663 12.139-.936 24.52-2.056 36.72-.513 6.133-1.276 12.242-1.357 18.4-.805 5.86.334 13.34-2.087 17.88-13.638-16.989-39.322-25.095-58.084-28.033-12.316-2.15-24.816-2.212-37.257-1.967-10.576.104-22.855-1.002-33.159 6 .168 6.324 9.236 9.883 13.474 14.97 17.94 15.586 32.006 35.326 43.478 55.94 2.622 5.464 4.86 11.12 6.822 16.845 2.063 8.784 16.208 10.599 22.553 12.437 9.25 1.899 18.94.808 27.475-3.19 2.554-.575 5.203-3.2 7.198-3.752-.873 10.977-4.641 23.466-7.122 33.187-2.275 7.401-5.985 15.919-10.106 21.735-7.444 8.44-22.56 9.535-32.802 9.666-12.892-.956-26.212-.536-38.97-2.338 21.645-21.926 18.531-59.767-.76-81.932-18.13-23.22-44.704-37.38-72.283-46.013-7.281-2.224-14.546-4.468-21.984-6.072-7.13-1.377-24.876-8.707-28.384 4.024 5.556 8.781 12.61 16.767 17.442 26.061 8.813 15.627 16.444 31.99 22.015 49.075 3.055 9.178 5.257 18.622 6.747 28.166.666 4.934 1.104 9.881 1.192 14.846.075 4.313-.872 9.941 3.703 12.796 7.664 6.02 16.583 10.913 26.18 12.953 9.962 2.025 22.163-1.361 30.79 2.343 5.71 1.938 11.182 4.489 16.425 7.437 16.496 8.691 29.922 23.756 34.713 42.025 5.051 19.804 4.896 40.52 5.204 60.791 45.732.782 95.943-9.29 129.068-43.624 15.287-16.637 24.384-37.75 30.188-59.328 6.507-22.914 10.396-46.523 13.532-70.094 5.53-45.78 8.692-91.876 10.212-137.954 10.222-1.734 20.554-4.604 29.465-10.02 3.188-2.16 9.62-7.026 5.833-10.58-3.325-3.521-7.548-6.081-11.149-9.284-10.028-8.157-20.022-16.307-30.055-24.441-15.321-12.457-30.526-25.049-45.969-37.354-3.932-3.055-7.677-6.284-11.533-9.41-6.452-6.126-13.372 2.725-17.962 6.959-5.114 5.595-11.059 10.281-16.5 15.5-5.35 5.846-11.538 10.775-17.232 16.232-2.867 2.835-5.623 5.796-8.786 8.31-2.169 2.23-6.65 4.976-6.112 7.588-28.473 1.426-57.388-.26-85.94.5h-37.744c-11.343-.549-24.817.71-35.17-.484-2.41-.872-1.783-5.22-2.144-7.108-.006-10.906.001-21.825-.002-32.727v-15.487c.055-3.622-1.115-11.043 4.646-11.035 76.234-.453 152.502.082 228.74-.159 19.157.013 38.32-.016 57.465.008 10.691.736 29.78 2.93 30.673-14.932-5.328-7.424-13.85-12.637-19.762-19.725-20.722-18.187-41.36-36.462-62.762-53.851 4.546-3.23 12.564-3.852 18.153-7.623 7.33-2.636 7.461-8.894 6.847-15.464V1798c7.873-.968 15.397-4.15 21.712-8.864 2.287-2.06 8.071-4.775 6.322-7.979-2.622-2.787-5.788-4.97-8.834-7.265-8.232-5.896-16.098-12.288-24.177-18.364-16.111-12.174-32.319-24.158-48.43-36.332-8.332-5.763-15.932-12.562-24.47-18-4.041-2.955-9.028 4.9-11.39 6.894-3.1 4.052-6.898 7.52-10.466 11.143-7.945 8.9-16.237 17.504-24.639 25.978-2.775 3.46-6.345 7.408-9.709 9.719-8.12 2.352-17.472.145-25.865 1.07-25.914-.76-52.255.926-78.054-.5 19.581-13.329 39.746-25.865 58.809-39.987 7.284-5.196 14.574-10.37 21.764-15.672 6.411-4.651 12.574-9.709 19.103-14.17 5.263-3.004 14.364-1.816 20.688-5.907 5.664-2.495 10.345-6.63 12.81-12.217 1.196-2.332 2.264-6.257.24-7.927-41.065-6.343-82.454-12.414-123.599-18.558-12.557-1.543-27.182-4.718-38.815-5.062-1.328 38.015-3.672 75.99-5 114-18.178-6.692-36.047-14.505-54.141-21.464-9.215-3.604-18.357-7.406-27.571-11.009-8.855-2.692-18.71-8.827-27.288-9.527-.733 17.897.9 36.215-.5 54-12.239-11.49-23.28-24.326-36.08-35.19-6.177-5.797-11.908-12.05-18.044-17.878-5.833-4.427-12.841-13.545-19.376-13.932-7.841 14.135-18.336 27.285-26.554 41.308-7.014 10.033-13.475 20.45-20.119 30.712-3.304 3.234-4.78 9.904-9.207 10.56-37.964 1.198-76.118-.218-114.12.42.898 9.604 5.945 18.415 7 28 17.347 1.056 35.124-1.296 52.346.72 2.778 2.14.958 8.27 1.654 11.065V2173c-34.476 4.904-68.484 13.295-103 18 1.414 8.56 8.816 16.597 11.454 23.91 14.012 28.136 29.725 55.337 43.732 83.464 3.798 6.876 7.573 13.749 11.002 20.808 2.586 6.068 11.158.55 14.372-2.366 3.087-2.888 6.711-6.396 8.903-9.606 5.61-11.818 17.004-17.79 27.8-24.422 56.905-39.044 114.411-77.496 168.237-120.788m-81.5-724c.094 13.723 1.825 27.424 3.829 40.976 3.374 18.324 6.974 40.04 23.373 51.763 18.572 11.131 40.097-1.903 51.595-14.153 19.584-21.766 29.845-50.269 33.348-78.994 1.365-13.81 1.18-30.22-.795-42.78-.935-6.4-2.54-13.862-4.408-19.495-1.514-5.83-5.572-13.276-5.942-18.317 45.85-11.348 84.716-41.707 112.47-78.978 20.562-27.687 36.255-58.791 48.158-91.09 5.412-12.178 9.024-25.216 13.735-37.588 39.436-22.38 74.083-53.197 106.007-85.214 8.109-8.202 15.417-17.189 22.628-26.164 8.33-10.79 24.118-31.061 5.128-43.176-13.974-5.715-39.216-7.727-34.618-31.129 2.71-13.528 17.291-17.626 27.522-20.523 17.53-6.04 37.5-2.773 54.398-11.015 8.005-4.652 11.462-13.549 15.23-21.42 3.018-7.445 8.362-16.483 11.342-24.703-28.82-3.713-58.027-.837-86.969-1.05-49.947 1.625-100.01 3.326-149.671 9.266-35.67 4.2-71.494 10.11-105.574 21.702-24.564 7.862-48.291 21.077-62.37 43.423-11.1 16.047-15.713 35.162-20.671 53.69-6.97 29.335-12.118 59.383-23.124 87.605-4.865 13.506-10.624 26.711-18.068 38.999-7.026 12.585-16.009 24.458-28.553 31.865 6.201 20.04 10.83 40.608 16.922 60.693 4.379 20.798 13.01 40.757 16.078 61.807-20.972-2.431-41.12-10.083-62-13 2.467 22.93 3.82 46.043 6 69-9.91-1.298-19.028-6.403-28.698-8.734-9.209-3.152-18.9-5.31-27.802-9.266-3.216 13.127-4.477 26.848-7.239 40.108-.969 5.465-3.02 12.329-.945 17.304 2.28 4.613 5.133 8.922 7.216 13.646 1.372 2.31 2.277 4.808 2.97 7.37-1.568 4.651-6.72 6.511-9.868 10.063-13.647 11.353-26.647 23.735-36.198 38.815-8.007 10.7-11.106 24.41-7.055 37.128 2.156 10.21 11.143 17.769 21.65 16.55 29.88-1.248 59.069-23.38 79.965-38.779 6.813-6.26 14.158-11.93 20.737-18.438l10.137-10.137c3.007-2.704 6.197-7.144 10.13-7.63m-4 814c-3.513 23.84-8.828 47.877-20.192 69.377-9.64 17.67-22.367 33.767-37.323 47.24-6.61 5.711-13.542 10.97-21.062 15.405-7.57 3.6-12.692 10.154-16.446 17.522-8.685 13.395-13.957 29.602-11.408 45.658 4.167 31.358 33.897 45.555 62.291 44.73 20.608-.476 42.471-13.14 53.959-27.74 20.93-24.521 26.876-57.409 27.13-88.617.805-33.037-6.411-65.647-15.401-97.192-2.87-8.315-4.498-17.218-8.479-25.107-3.476-2.297-9.237-.662-13.069-1.276m18-103c11.25-2.615 22.736-4.406 33.953-7.22 8.79-2.001 17.6-3.857 26.393-5.775 9.3-.533 7.925-7.967 7.654-15.188v-303.178c-.008-3.282.192-6.703-.669-9.869-1.198-2.329-5.768-1.311-7.817-1.77H1447zm44 117c1.487 15.842 7.18 31.134 8.022 47.13 3.734 27.913 5.464 56.218 3.526 84.355-1.056 10.164-1.806 20.385-3.553 30.446-.7 4.216-1.61 8.4-1.517 12.677 6.672 12.801 23.33 23.36 36.116 25.722 23.8 4.318 46.881-10.578 56.247-32.113 10.096-21.509 8.53-50.973 1.394-70.975-13.888-41.981-46.88-73.861-82.779-97.667-5.379-4.802-11.575-2.193-17.456.425m143-403h107.4c8.544-.407 18.732.578 26.507-.512 2.864-1.177 1.565-6.656 2.093-8.844V1784h-136zm0 106h136v-69.6c-.091-2.904.445-8.778-3.01-8.948-25.326-1.29-50.857.235-76.213-.452H1634zm0 104h152.4c6.67-.122 14.694 1.94 19.258-6.043 11.5-15.774 22.84-31.7 34.342-47.457-10.994 1.202-22.29 4.912-33.578 4.971-12.137.845-24.279.39-36.422.529v-28h-136z" style="fill:#fff;fill-rule:evenodd;stroke:none"/><path d="M449 2668h2102c-110.242-665.144-221.837-1330.12-332.532-1995.186-3.476-20.835-6.96-41.682-10.42-62.51-1.682-10.253-3.434-20.498-5.126-30.74-1.284-4.301-.763-13.077-5.037-14.575-157.034-52.902-314.464-104.735-471.586-157.384-59.003-19.668-117.989-39.359-177-59-12.991-4.38-26.002-8.647-38.997-13.002-3.112-1.025-6.191-2.224-9.42-2.795-5.85.042-13.257 4.126-19.018 5.393-97.504 32.546-195.061 65-292.567 97.54-73.178 24.36-146.325 48.77-219.478 73.159-54.841 18.294-109.718 36.516-164.531 54.86-6.415 1.276-7.163 6.488-7.57 12-26.516 158.994-52.99 317.976-79.524 476.964A2145928 2145928 0 0 0 449 2668m689-1488.666c-1.867 4.514-6.901 9.285-9.293 14.665-11.217 18.03-13.32 41.525-3.762 60.827 7.689 18.212 27.61 34.92 46.055 36.174-.064-11.145 1.496-22.47 5.99-32.728 2.02-4.256 4.913-8.04 7.963-11.599 6.872-8.897 14.561 1.84 20.691 5.823 22.192 20.032 40.523 43.89 55.69 69.58 15.08 26.714 27.741 54.755 40.666 82.51-11.29 10.855-23.338 24.82-31.893 36.352-9.967 12.953-16.469 28.525-16.107 45.062-12.398-.022-24.96-.665-37.152 2.137-16.433 4.132-32.425 12.437-42.92 26.096-4.869 6.456-7.62 15.491-4.392 23.323 5.43 7.457 15.402 8.805 23.95 9.33 11.771.645 23.877-1.043 35.405 2.108 10.43 2.449 20.4 11.272 25.602 19.318 4.845 7.273 6.174 15.946 8.874 24.043 2.141 5.495 6.951 11.398 14.76 8.944 9.516-2.478 15.189-15.566 17.953-22.04 3.602-8.969 5.896-18.57 5.92-28.259 20.868 1.042 40.162-8.224 58.144-17.639 16.8-9.56 31.506-22.194 46.356-34.361 1.687 7.405 3.214 14.884 5.562 22.133 1.266 6.98 6.841 15.2 7.938 20.867-20.086 5.245-39.886 25.418-37.17 47.59 2.204 8.734 12.357 9.468 18.962 9.403 8.272.464 18.25-.785 25.703 1.018 11.115 2.47 19.838 11.043 24.489 21.183 3.977 8.018 4.484 17.319 8.404 25.353 7.97 14.916 23.99 6.899 30.903-3.621 7.474-10.577 11.92-23.277 13.322-36.103.467-7.095.527-15.504.114-22-.313-6.38-4.137-13.114-4.727-18.823 8.06-.906 14.003-7.767 21.536-10 8.685 8.434 21.412 16.306 32.42 18.31 10.342 2.004 20.872.226 30.522-3.7 3.236-1.258 7.495-3.376 10.273-2.591 23.372 9.66 53.896 9.216 72.18-10.716 4.102-5.086 7.515-10.892 9.069-17.303 16.573.37 33.852-4.827 45.971-16.494 5.737-5.547 11.092-11.9 13.562-19.637 2.88-7.467 5.26-17.794-.363-23.055-17.969-18.718-38.41-34.884-59.431-50.024-13.876-10.373-28.318-19.952-42.785-29.477-7.333-4.56-14.67-9.11-22.02-13.642-3.703-2.11-7.43-4.148-11.035-6.41-2.992-2.274-8.933-3.947-9.899-7.261 40.447-16.927 72.157-50.068 96.43-85.67 18.184-27.533 32.188-57.539 43.956-88.304 2.08-6.105 4.194-12.205 6.528-18.21 1.593-6.894 6.344-9.338 11.422-12.39 36.143-23.85 69.487-52.197 98.76-84.033 13.914-15.968 27.163-32.925 36.645-51.983 8.369-17.472 12.603-45.818-13.741-56.91l1.438-.5c11.219.365 22.835-.447 33.024-5.769 14.242-6.596 23.346-20.384 29.908-33.971 6.796-14.2 14.427-28.138 19.703-43 2.933-7.788 6.444-17.973.795-27.255-7.23-12.156-26.112-14.088-38.357-16.045-15.15-1.899-30.414-2.517-45.667-2.702-42.502-.932-85.035-.251-127.483 1.846-57.252 3.558-115.117 9.058-170.113 26.321-25.087 8.517-50.266 19.066-70.218 37.066-20.536 16.697-33.676 40.696-41.239 65.649-8.191 25.356-12.648 51.677-19.228 77.435-6.752 24.74-16.368 48.658-28.063 71.425 2.05-41.508-3.223-91.697-18.752-127.14-6.8-15.976-15.79-30.885-26.798-44.295-10.527-12.405-21.1-25.15-25.663-41.183-10.252-31.64-13.359-64.95-18.067-97.66-2.266-13.325-3.43-29.711-8.243-41.25-3.901-7.659-12.826-2.798-16.913-.192-20.497 12.393-38.009 29.064-57.216 43.24-8.5 6.14-16.508 13.062-25.464 18.536-4.07 2.45-10.456 4.279-13.866.27-4.186-8.985 1.457-21.128 4.142-29.502 6.302-16.871 17.252-31.328 26.178-46.766 7.745-14.03 17.697-28.953 15.897-45.815-1.141-9.442-10.78-9.348-17.32-8.776-26.576 1.943-51.22 14.672-72.503 29.83-62.545 46.801-106.532 120.012-116.333 197.766-10.136 90.978 31.925 181.34 94.421 245.271m-88 681.416c15.221 24.429 28.727 50.287 37.386 77.92 7.711 21.68 12.428 44.4 13.302 67.411-.235 8.411 10.066 12.506 15.816 16.535 12.712 7.77 27.782 10.899 42.474 8.79 21.367-2.273 39.25-18.518 47.138-37.993 8.419-21.021 4.186-44.54-7.3-63.536-13.55-21.647-38.878-38.96-59.628-48.795-24.706-11.833-51.56-19.14-78.37-24.3-3.889-1.097-7.986 2.263-10.818 3.218zm12 385.25c17.838.038 36.358 5.33 49.824 17.44 10.895 11.808 12.19 31.766 14.093 45.368 3.512 33.234 2.062 66.888-.999 100.071-1.575 14.342-3.206 28.682-5.558 42.912-.75 6.559-2.884 14.188-2.815 20.264 1.67 11.732 8.542 24.61 16.19 32.18 16.75 17.713 43.33 20.243 65.408 13.16 18.874-5.555 35.528-18.017 45.807-34.844 10-15.748 12.73-34.575 12.05-52.84.355-16.528.032-33.197-3.938-49.354-6.223-26.63-18.912-51.078-28.59-76.455-14.58-40.806-4.796-84.63 2.247-125.65 8.46-40.82 18.232-81.35 27.706-121.931 15.138-65.19 29.844-130.533 46.575-195.321-6.387-.463-14.637-4.657-16.876 4.697-2.385 6.092-5.213 11.985-7.61 18.056-27.681 65.846-55.87 131.435-84.198 196.996-14.488 32.667-27.404 66.039-43.243 98.081-4.067 8.28-8.16 16.543-12.725 24.547-5.81 11.135-11.803 24.783-28.67 25.256-14.866.916-29.797-.06-44.678.367zm30-600.5c27.552 47.798 54.258 98.525 63.538 153.703.456 6.039 8.122 9.404 13.796 12.85 21.305 12.47 50.75 14.344 71.378-.916 20.195-13.617 30.726-40.554 26.181-64.291-6.601-33.684-34.398-58.218-63.033-73.928-30.208-17.213-64.89-24.974-98.758-30.909-2.13-.04-5.623-1.171-7.112.041-2.067.793-4.04 2.513-5.99 2.95zm162-460c-6.763 14.595-23.922 25.294-35 34 19.858 13.41 34.316 32.704 47.507 52.332 12.91 18.97 23.698 39.259 34.993 59.168 4.657-13.737 6.76-28.467 12-42 15.34 7.616 32.54 11.609 48 19 1.094-9.985-2.144-20.363-2.245-30.4-1.353-9.852-1.61-21.644-3.255-30.6 17.223 3.236 33.722 10 51 13-7.104-26.953-16.096-53.54-23.557-80.422-1.524-5.11-3.096-10.178-4.545-15.303-1.444-4.324-2.07-9.537-6.123-12.323-28.23-20.064-55.672-41.248-84.67-60.193-14.818-8.99-30.933-17.31-48.57-18.58-18.007-1.642-36.734.878-52.547 10.54-13.854 8.395-25.142 21.085-30.62 36.431-7.82 20.683-5.892 52.917 19.954 63.914 24.986 10.353 52.166.618 77.678 1.436m-44.868-33.537c.215 8.627 8.563 15.478 16.764 14.84 10.08-.769 18.072-8.817 21.948-17.604 4.235-9.002 2.283-28.032-13.29-26.817-6.547.86-13.097 7.584-16.387 11.414-4.172 5.21-9.075 10.889-9.035 18.167M1230 2192.25c10.988 21.565 23.043 42.863 33.917 64.557 11.907 21.493 22.668 43.75 34.583 65.193 10.437-5.055 18.763-13.395 23.73-23.99 6.392-7.43 16.39-10.646 23.815-16.787 57.715-38.672 114.55-78.654 169.455-121.223 1.426 28.208-.26 56.729.5 85 13.012-.181 26.097.483 39.057-.905 17.409-2.472 34.145-8.068 50.129-15.241 7.384-3.544 14.53-7.808 20.654-13.28 8.55-6.584 7.648-15.487 7.16-24.574h169c-3.269 24.672-.5 54.655-5.5 77-13.533-17.349-38.787-26.56-57.858-29.718-12.268-2.134-24.667-2.622-37.083-2.282-10.677.153-23.143-1.083-33.559 6v1.5c22.354 17.736 41.683 39.25 55.393 64.427 3.33 6.364 5.974 13.078 8.38 19.828 1.464 6.216 6.437 8.04 11.721 9.55 7.907 2.695 16.466 4.536 24.849 3.238 8.019-.903 15.029-5.305 21.657-9.293-2.144 11.587-4.018 23.311-7.405 34.622-2.344 8.186-5.492 16.324-10.223 23.463-7.542 9.775-24.371 10.418-35.314 10.506-13.602-.919-27.594-.714-41.058-2.341 11.518-10.487 17.773-26.089 16.952-41.618-.272-15.733-7.111-30.594-17.3-42.338-14.47-17.166-33.258-30.144-54.19-38.138-11.1-4.117-22.286-8.095-33.84-10.746-9.665-2.03-22.6-8.295-31.622.84 16.809 21.311 29.973 45.547 38.753 71.235 3.636 10.436 6.485 21.135 8.04 32.074.698 5.111 1.134 10.272 1.198 15.43.017 4.178-.72 9.513 3.697 12.212 6.166 4.991 13.29 8.72 20.692 11.456 7.244 2.564 15.134 2.33 22.683 1.771 11.558-1.419 25.703 7.717 33.728 11.701 15.641 9.115 27.476 24.798 31.666 42.423 4.381 19.033 4.188 38.815 4.543 58.198 44.96.443 94.045-9.665 126.71-43.247 15.292-16.393 24.345-37.306 30.262-58.651 6.46-22.541 10.484-45.76 13.517-68.983 5.771-46.476 8.888-93.325 10.511-140.119 13.36-3 29.562-5.871 37-17.5-22.745-18.878-46.007-37.158-68.826-55.947a2430 2430 0 0 0-26.001-21.043c-3.093-2.242-8.663-8.667-11.826-5.94-14.771 11.081-26.594 25.673-40.822 37.412a152 152 0 0 1-15.416 14.33c-4.411 4.007-12.856 2.26-19.351 2.688H1633v-65h231c19.398-.002 38.803.002 58.198-.001 12.003.385 29.336-2.335 30.19-15.643-12.758-13.987-27.885-25.905-41.969-38.545-6.783-6.497-14.326-12.152-21.38-18.324-3.519-2.978-6.997-5.975-10.566-8.882-2.886-2.958-8.507-6.103-9.473-9.605 7.8-2.418 17.519-5.398 23.586-9.981 3.835-2.032 1.578-9.9 2.414-13.205V1797c11.025-1.336 21.003-6.994 29-14.5-35.964-27.292-72.037-54.978-108.5-81.5-10.015 10.323-19.464 21.16-29.482 31.475-8.118 6.767-15.485 16.967-22.769 23.224-3.612 2.496-9.687.528-13.685 1.301-31.76-.76-63.92.926-95.564-.5 20.016-13.57 40.668-26.32 60.088-40.798 15.291-9.887 29.184-21.807 44.214-32.009 11.951-3.127 28.88-3.512 33.213-21.082-.046-2.496-4.34-2.466-6.04-2.937-40.583-5.8-81.09-12.34-121.676-18.046-11.254-1.563-22.477-3.76-33.799-4.628-1.328 38.015-3.672 75.99-5 114-37.117-11.127-72.025-30.383-109-42-.726 18.264.893 36.81-.5 55-13.337-9.898-22.905-24.224-36.033-34.394-6.383-5.619-12.054-11.976-18.2-17.838-2.895-3.045-6.33-5.498-9.365-8.383-2.848-2.76-6.132-6.612-9.902-7.385-7.841 14.135-18.336 27.285-26.554 41.308-7.014 10.033-13.475 20.45-20.119 30.712-3.304 3.234-4.78 9.904-9.207 10.56-37.964 1.198-76.118-.218-114.12.42 2.027 8.445 5.732 18.111 7 26 17.347 1.056 35.124-1.296 52.346.72 2.778 2.14.958 8.27 1.654 11.065V2174c-34.479 4.897-68.482 13.302-103 18zM1431.5 1439c1.62 16.83 2.43 34.043 6.127 50.66 3.802 21.673 14.541 52.861 46.044 45.328 23.696-5.217 39.347-27.195 49.013-47.74 12.273-27.646 17.164-58.843 13.375-88.892-1.267-14.069-5.76-27.418-11.059-40.356 45.85-11.348 84.716-41.707 112.47-78.978 20.562-27.687 36.255-58.791 48.158-91.09 5.412-12.178 9.024-25.216 13.735-37.588 39.436-22.38 74.083-53.197 106.007-85.214 8.109-8.202 15.417-17.189 22.628-26.164 8.17-11.27 24.024-30.754 6.463-44.474-11.237-5.493-40.512-8.358-36.005-29.628 2.616-13.644 17.272-17.839 27.574-20.726 17.761-6.272 38.427-2.488 55.344-11.592 7.725-5.318 11.07-14.377 15.062-22.414 3.328-8.288 8.66-17.51 11.564-25.132-17.208-2.287-34.59-2.456-51.921-1.732-64.81 1.022-129.774 2.47-194.153 10.671-45.232 6.085-91.934 13.463-132.373 36.06-14.003 8.254-25.402 20.282-33.02 34.672-14.243 26.444-18.052 57.075-25.517 85.738-5.083 22.032-11.783 43.725-20.506 64.576-6.124 15.06-14.72 29.019-24.482 41.95-3.614 5.168-8.864 8.666-13.827 12.345-2.746 1.307-1.438 4.794-.978 6.978 10.326 38.971 22.013 77.652 31.777 116.742-20.424-4.623-41.297-8.66-61.5-14-.822 11.424 2.485 23.214 2.428 34.725.787 11.788 2.063 23.517 3.072 35.275-19.138-5.351-37.677-13.353-57-18-2.06 13.885-4.773 27.719-7.018 41.583-1.5 6.699-3.151 14.21.626 20.48 3.661 5.509 5.924 11.86 9.392 17.437-20.468 18.427-45.34 36.17-54.2 63.844-2.447 12.258-1.55 30.705 12.22 38.303 13.711 4.7 30.513-1.821 42.213-6.142 20.863-8.77 42.1-25.283 57.958-38.335A549 549 0 0 0 1431.5 1439m-1.5 814c-3.513 23.84-8.828 47.877-20.192 69.377-9.64 17.67-22.367 33.767-37.323 47.24-6.61 5.711-13.542 10.97-21.062 15.405-7.57 3.6-12.692 10.154-16.446 17.522-8.502 13.394-14.3 29.72-11.048 45.747 4.737 28.981 36.491 46.054 63.917 42.336 20.41-2.256 39.668-13.366 51.84-29.89 20.426-25.081 25.166-58.435 25.308-89.633-.19-32.603-7.493-64.803-16.748-95.866-2.37-6.862-4.063-15.58-7.533-21.322-3.344-1.442-7.2-.64-10.713-.916m16-103c21.392-3.326 42.418-8.992 63.634-13.255 7.44-.604 6.498-6.684 6.366-12.532v-304.98c.103-5.977 1.92-15.17-7.288-14.228-20.91-.013-41.817.002-62.712-.005zm46 117c5.997 31.52 12.182 63.432 12 95.734.813 24.723-.613 49.388-5.165 73.727-1.09 7.669 8.732 13.873 14.602 19.293 11.664 9.654 27.854 12.802 42.207 8.016 20.444-6.907 35.069-26.343 38.574-47.332 4.977-22.784.14-46.79-10.187-67.358-15.706-35.66-45.65-62.165-77.488-83.142-4.093-3.732-10.8-.41-14.543 1.062m141-403h109.2c8.697-.553 19.294.793 27.147-.72 2.592-1.816 1.034-7.356 1.653-9.82V1783h-138zm0 106h138v-71.4c-.12-2.937.489-8.94-3.005-9.146-26.104-1.295-52.395.236-78.54-.454H1633zm0 104h156c3.964.005 7.956.155 11.857-.479 4.956-2.857 7.638-8.83 11.304-13.096 10.128-14.407 20.87-28.421 30.839-42.925-11.21 1.369-22.756 5.265-34.264 5.733-12.549 1.035-25.157.754-37.736.767v-28h-138z" style="fill:#000;fill-rule:evenodd;stroke:none"/></svg>