<svg xmlns="http://www.w3.org/2000/svg" width="3000" height="3000"><path d="M449 2668h2102c.055-1.81-.297-3.61-1.5-5-.465.944-.521 1.965-.5 3H451c.02-1.044-.107-2.032-.5-3-.4.393-.863.807-1.5 1z" style="fill:#2b5656;fill-rule:evenodd;stroke:none"/><path d="M450 2667h2100c-.038-10.673-2.933-21.092-4.265-31.62-104.794-628.52-209.47-1257.056-314.267-1885.566-6.55-39.33-13.103-78.665-19.654-117.995-3.102-18.575-6.224-37.121-9.306-55.699-.683-4.38-.777-10.287-6.173-11.816-141.466-47.235-283.002-94.31-424.47-141.504-53.188-17.776-106.379-35.458-159.566-53.195-23.327-7.817-46.687-15.514-70.002-23.345-11.004-3.662-22.012-7.298-32.993-11.003-5.888-2.656-10.587-3.481-16.03-.858-82.986 27.72-165.992 55.312-248.975 82.996-124.313 41.495-248.697 82.852-373.002 124.345-15.695 5.174-31.311 10.484-46.998 15.655-6.812 2.315-13.664 4.524-20.462 6.872-6.767 2.052-5.817 11.966-7.299 17.535-15.916 95.63-31.9 191.255-47.812 286.886q-74.87 449.262-149.756 898.511c-24.989 149.834-49.932 299.666-74.922 449.496-12.497 75.005-25.015 150.01-37.496 225.006-6.25 37.493-12.528 74.989-18.738 112.48a29906 29906 0 0 0-9.345 56.005c-2.012 18.441-8.01 39.773-8.469 56.814" style="fill:#000;fill-rule:evenodd;stroke:none"/></svg>