<svg xmlns="http://www.w3.org/2000/svg" width="3000" height="3000"><path d="M338 2761.5c387.06 1.426 774.925-.26 1162.15.5 387.224-.76 774.71.926 1161.85-.5-77.265-456.459-152.125-914.01-228.874-1370.691-28.417-170.851-56.988-341.657-85.4-512.497-12.491-74.824-24.942-149.684-37.431-224.508-5.828-35.176-11.741-70.32-17.569-105.492-3.54-17.097-4.968-34.714-9.072-51.664-1.3-3.941-8.915-3.966-11.797-5.85-133.175-44.44-266.372-88.79-399.558-133.193-116.482-38.867-233.005-77.647-349.48-116.505-6.56-1.974-12.94-4.527-19.527-6.382-6.558-1.31-12.878 2.396-19.017 4.029-100.339 33.452-200.674 66.889-301.01 100.324-87.802 29.33-175.659 58.504-263.446 87.829-38.52 12.817-77.015 25.657-115.52 38.495-18.005 5.974-35.995 12.026-54 18-8.822 2.95-17.652 5.903-26.471 8.83-4.346 1.012-8.371 2.451-8.57 8.208-90.761 544.76-181.624 1089.514-272.367 1634.27-35.423 208.458-69 418.87-104.891 626.797m112-96c.03.55.186 1.058.5 1.5 699.764-.76 1399.81.926 2099.5-.5-71.115-419.63-139.844-840.338-210.448-1260.2-26.214-157.169-52.393-314.328-78.582-471.499a856355 856355 0 0 0-34.418-206.502c-5.388-32.32-10.783-64.67-16.17-96.99-2.588-15.664-5.232-31.299-7.827-46.958-.793-4.36-1.427-8.742-2.21-13.102-.428-4.863-4.85-6.193-8.474-7.135-122.028-40.638-244.03-81.373-366.052-122.014-106.682-35.522-213.343-71.109-320.006-106.667-6.525-2.525-11.758-.06-17.468 1.947-92.703 30.905-185.37 61.816-278.08 92.691-81.01 26.99-161.996 54.033-243 81-35.467 11.86-70.965 23.65-106.438 35.486-16.678 5.533-33.31 11.15-49.99 16.655-3.243 1.458-10.117 2.375-10.586 5.954-85.805 510.194-170.013 1020.748-255.437 1531.015-32.26 188.006-61.86 377.824-94.814 565.319" style="fill:#747474;fill-rule:evenodd;stroke:none"/><path d="M1715 2207v-256c58.555-.997 117.293 1.216 175.8-.657 6.315-.815 12.486-3.848 16.124-9.238 4.193-6.09-1.555-10.686-5.44-13.723-29.638-24.926-60.427-48.514-91.258-71.927-4.923-3.77-9.963-7.394-14.858-11.187-4.986-3.45-10.345-9.481-16.368-9.268-19.005 27.102-41.862 52.346-61.587 79.124-1.856 2.718-4.097 5.136-6.286 7.553-6.886 2.7-13.825.388-21.1 1.323H1372v-127c102.8-4.214 205.194-16.682 306.721-33.009 11.706-1.825 23.275-4.407 34.967-6.27 9.841-2.333 21.003-5.662 32.413-.568 9.469 3.002 19.28 5.167 29.266 4.846 8.212.151 17.45-.234 24.087-5.91 4.265-2.79 1.519-6.146-1.332-8.437-39.126-36.625-78.62-72.858-117.122-110.152 27.752-9.992 57.254-18.71 80.92-37.434 17.926-12.855 32.52-32.628 34.977-55.034 1.465-17.774-2.047-35.779-12.35-50.67-3.449-5.385-7.157-10.651-11.78-15.095-3.524-4.08-10.104-6.78-8.876-12.414 9.056-39.634-7.085-80.506-33.022-110.243-6.616-8.022-13.702-15.694-22.306-21.66-1.93-1.441-3.868-2.88-5.78-4.34-4.908-2.395-5.911-7.098-5.94-12.152-3.58-18.162-14.072-35.135-29.699-45.375-3.2-2.077-6.544-3.97-10.08-5.428-3.727-1.704-8.777-2.284-11.52-4.968-19.226-23.586-32.954-51.684-38.819-81.59-4.32-23.875-8.036-47.897-9.162-72.159-.425-4.393-1.31-9.408 4.524-10.809 15.145-5.522 30.428-11.817 42.473-22.951 19.605-15.277 28.377-42.38 22.85-66.393-3.972-24.43-25.088-41.318-47.41-48.285 24.975-30.51 34.447-71.067 31.61-109.856-1.507-38.607-17.46-76.51-45.085-103.62-58.438-57.591-166.441-54.123-220.36 7.776-24.34 27.421-37.176 63.727-38.084 100.204-1.662 37.39 7.807 76.188 31.919 105.496-11.1 4.492-22.878 9.071-31.232 18.233-13.864 13.264-19.484 33.292-17.393 52.076 1.506 19.2 12.904 36.03 27.99 47.271 7.883 6.549 18.854 11.775 27.332 15.583 4.462 2.048 9.272 3.27 13.626 5.517 2.614.993 2.46 4.176 2.38 6.698-1.768 21.852-2.731 43.935-7.416 65.434-3.01 19.084-8.363 37.93-17.462 55.047-3.874 7.757-8.858 16.655-13.521 23.116-4.444 6.011-8.464 14.69-17.724 16.84-15.76 5.508-28.802 18.124-36.382 32.766-3.28 7.47-6.288 15.187-7.454 23.318-.65 6.494-9.286 10.295-14.73 15.386-21.402 19.896-40.144 44.095-49.212 72.338-5.281 13.183-5.288 27.452-4.77 41.37-.145 6.252 1.907 13.502 2.378 19.076-16.813 15.277-32.274 35.749-33.316 59.597-5.562 47.12 38.118 76.147 71.677 90.94 59.404 25.975 124.782 32.368 188.76 35.308 65.996 3.013 132.715-2.27 197.469-13.914-67.526 34.762-138.352 62.683-210.052 87.515-17.883 6.607-36.027 12.53-54.122 18.542-6.66 2.19-13.297 4.483-19.957 6.649-5.847 1.911-11.909 3.464-17.745 5.294-40.725-13.282-81.208-28.745-122.124-41.5v489h-182c1.706 8.342 5.085 18.008 7.269 25.493 1.784 4.181 10.164 1.613 13.325 2.507h831.763c9.168 0 18.788.799 27.378-3.117 6.872-2.643 13.187-11.83 6.685-16.689-19.089-16.738-39.53-31.854-59.426-47.602-19.918-15.01-38.802-31.36-59.067-45.912-2.44-1.817-4.945-4.08-8.15-4.188-4.735 1.13-8.105 9.622-11.555 12.514-12.485 16.012-25.051 31.934-37.616 47.875-6.244 8.073-12.782 15.883-18.843 24.085-3.47 5.751-9.145 5.354-14.696 5.034zm-235 122c-6.91-2.338-12.47-7.694-18.97-10.88-21.405-13.741-43.5-26.368-64.966-40.006-10.946-6.599-21.542-13.734-32.588-20.155-5.485-3.584-11.208-6.748-16.652-10.374-5.33-2.526-11.85-8.198-16.824-8.585-14.056 28.345-33.753 54.005-52.687 79.261-60.309 75.292-131.03 144.04-214.313 193.739.028 3.614 1.952 6.793 4.093 9.567 2.173 3.572 5.971 3.497 9.524 2.044 22.186-5.244 44.073-11.527 65.908-18.042 62.257-19.614 122.345-45.832 179.243-77.744 26.957-15.861 53.707-32.224 78.693-51.135 13.323-9.28 25.377-20.078 37.664-30.595 5.383-5.85 16.12-1.955 24.605-3.613 6.903-1.09 16.614-7.278 17.27-13.482m-196.643-893.527c.257 7.396 4.754 11.457 10.13 14.52a88.3 88.3 0 0 0 15.846 9.174c30.76 16.042 65.045 24.129 99.093 29.393 62.377 8.442 126.083 8.982 188.362-.851 22.595-3.59 45.053-8.518 66.554-16.45 9.099-3.32 17.992-7.118 26.527-11.696 7.763-4.083 17.282-8.8 23.107-14.534 5.947-7.033 3.99-15.836-2.012-21.26-6.634-6.369-14.973-3.622-21.573.57-25.606 16.436-55.414 25.14-85.107 30.327-47.538 8.315-96.083 9.01-144.161 7.028-45.277-2.73-92.15-8.131-133.43-28.358-9.627-3.743-19.57-13.866-29.67-13.161-7.297.724-13.28 8.079-13.666 15.298m10.831 109.06c.73 12.411 13.612 16.447 22.115 19.766 25.905 10.883 53.483 16.976 80.914 22.426 21.61 3.732 43.39 6.428 65.3 7.477 7.034.953 16.333 1.457 22.371-5.732 5.163-4.976 4.822-13.629-.577-18.253-9.318-8.161-22.759-5.991-34.037-7.685-35.884-3.526-71.582-9.722-105.926-20.913-6.266-2.107-12.508-4.272-18.636-6.733-6.001-2.402-12.26-5.522-18.935-4.575-6.954.759-12.777 7.033-12.589 14.222m56.95-221.528c-.12 8.721 10.058 14.103 17.054 15.542 50.714 14.654 103.852 14.978 156.102 14.452 25.6-.736 51.301-2.847 76.555-7.125 12.181-2.347 24.457-4.78 36.152-8.98 5.606-2.378 11.737-7.65 11.81-13.252.367-6.325-3.122-12.718-8.83-15.46-10.74-4.018-22.089 2.101-32.781 3.272-79.802 16.74-162.423 10.272-241.518-4.666-9.107.676-14.608 7.874-14.544 16.217M1372 2207h205v-256h-205zm12.11-1185.783c-.467 12.163 9.611 15.646 17.554 17.829 36.057 12.008 74.347 19.83 112.546 17.442 19.38-1.006 38.459-5.081 57.253-9.614 8.913-2.552 17.897-4.732 26.663-7.766 8.03-2.18 18.278-5.695 17.753-17.721.322-9.17-10.124-17.58-18.918-14.313-31.858 12.172-65.705 18.51-99.862 17.891-17.01-.61-34.042-1.899-50.715-5.381-8.327-1.581-16.46-3.894-24.598-6.211-7.65-1.578-16.013-6.413-23.188-7.009-7.571.007-14.665 7.903-14.487 14.853m42.948-166.445c-.266 8.971 8.134 16.903 16.823 15.9 8.886-1.205 12.73-10.137 15.012-16.807 4.625-18.775 18.034-28.193 34.35-33.37 7.135-2.803 15.41-8.49 13.388-18.935-1.418-8.7-10.546-14.25-19.02-12.064-30.8 6.864-57.278 32.9-60.553 65.276M1564 2274c-.697 2.12-2.442 4.016-4.122 6.09-1.787 2.975 4.017 5.992 5.868 7.267 3.156 1.748 6.028 3.918 9.171 5.66 40.132 26.693 77.767 57.022 113.133 89.694 26.267 25.823 52.954 51.372 75.711 80.501 8.368 10.734 16.84 21.425 24.514 32.69 3.349 4.987 6.61 10.054 10.027 14.989 2.932 4.557 10.456 6.21 14.39 7.739 21.152 5.601 45.751 5.621 64.343-7.394 27.378-19.154 33.65-56.838 23.553-86.85-8.865-30.374-31.418-55.085-55.556-74.382-38.315-28.95-84.27-46.584-130.482-58.354-49.145-12.135-100.06-16.803-150.55-17.65" style="fill:#fff;fill-rule:evenodd;stroke:none"/><path d="M449 2668h2102v-1.5c-63.81-378.768-126.215-757.87-189.705-1136.696-47.349-283.998-94.654-568.016-142-852-4.398-26.67-8.911-53.338-13.325-80.003-1.118-6.656-2.232-13.342-3.35-19.985-.571-3.586-1.119-7.183-2.096-10.662-1.288-2.958-6.82-3.128-9.193-4.54-101.51-33.828-203.017-67.663-304.512-101.514a746151 746151 0 0 1-266.522-88.84c-39.072-12.89-78.06-26.135-117.144-38.98-4.713-1.335-9.273 1.032-13.839 2.453-144.507 48.104-288.95 96.378-433.449 144.467-54.18 18.08-108.385 36.116-162.566 54.195-23.808 7.923-47.625 15.882-71.434 23.805-5.676 1.96-11.407 3.738-17.06 5.726-6.564 1.113-6.72 8.744-7.34 13.268C740.08 921.349 682.77 1265.54 625.383 1609.692 566.596 1962.439 507.762 2315.286 449 2668m607-459.75c2.317 4.456 3.074 11.572 5.283 17.17.739 4.388 1.859 9.273 8.107 8.555 14.608.07 29.2-.013 43.796.025h788.777c13.922-1.045 34.729 4.284 42.037-14.5-20.55-18.595-42.876-35.081-64.634-52.21-22.205-15.553-41.934-35.139-65.022-49.29-14.477 18.192-28.496 36.73-43.023 54.875-7.297 9.14-14.361 18.458-21.633 27.599-1.763 2.294-3.4 4.743-5.766 6.455-9.46 2.528-20.171-.03-29.922 1.071v-258c58.555-.997 117.293 1.216 175.8-.657 6.315-.833 12.519-3.831 16.1-9.273 3.897-5.305-3.642-10.004-6.86-12.847-29.426-25.039-60.352-48.224-91.017-71.695-4.54-3.43-9.162-6.767-13.655-10.26-4.899-2.882-9.371-8.668-14.368-9.268-19.11 27.248-42.085 52.596-61.903 79.534a61.3 61.3 0 0 1-6.46 7.589c-6.822 1.64-14.241.407-21.21.877H1371v-129c73.76-2.593 147.181-11.107 220.399-19.92 35.707-4.95 71.342-10.408 106.813-16.778 8.437-1.428 16.853-3.076 25.25-4.71 6.49-1.73 13.034-2.615 19.146.123 9.603 3.06 19.49 5.804 29.6 6.236 9.892.476 21.503-.104 28.792-7.951-40.222-39.446-83.035-76.658-123-116.5 27.494-8.127 55.436-17.983 79.153-34.648 17.48-12.115 32.587-29.418 37.553-50.576 4.03-16.987.357-35.318-7.907-50.4-5.632-10.475-12.968-19.937-22.358-27.307-3.644-3.227-1.253-8.956-.467-12.883 5.47-33.015-6.15-66.078-25.837-92.398-6.494-8.47-13.133-17.07-20.972-24.341-3.874-3.23-7.577-6.666-11.685-9.59-3.417-2.763-8.4-4.805-9.022-10.068-1.562-19.176-12.758-36.387-27.378-48.149-6.356-5.096-13.907-8.043-21.56-10.457-6.022-3.327-9.653-12.27-14.204-17.17-16.89-24.36-26.326-52.57-30.359-81.739-1.921-11.458-3.301-22.984-4.557-34.523-.8-10.31-2.516-20.773-1.896-31.132-.491-2.758 2.42-3.054 4.115-3.82 14.982-5.441 30.11-11.624 42.157-22.46 19.55-14.84 29.247-41.671 23.514-65.541-4.444-23.482-25.24-42.502-48.29-47.298v-1.5c24.17-28.49 34.369-66.916 32.9-103.798-.762-36.974-13.712-73.717-38.482-101.444-53.874-61.454-160.656-64.605-218.393-6.783C1338.335 802.624 1334.28 899.91 1382 961c-14.056 2.786-26.8 11.428-36.168 21.988-9.453 11.146-14.01 25.813-13.793 40.36.184 17.831 8.525 34.877 21.563 46.754 11.603 11.787 29.47 20.246 43.548 25.171 2.02.946 4.68 1.767 6.17 3.228 1.707 21.723-3.642 43.67-5.482 65.236-3.712 19.733-7.27 39.881-16.672 57.916-3.793 8.323-8.176 16.29-13.22 23.9-2.379 3.738-5.032 7.306-7.62 10.895-2.331 3.33-4.734 7.287-8.828 8.596-16.565 4.373-29.502 16.554-38.507 30.569-3.884 6.96-6.988 15.976-8.597 23.082-.677 3.604-.76 8.181-4.08 10.372-24.93 17.18-43.468 42.005-55.986 69.268-6.07 12.607-9.56 26.622-9.328 40.625-.033 6.957-.242 13.95 1.08 20.816.586 3.067 1.69 6.123 1.428 9.3.37 2.96-4.485 4.958-5.835 6.877-17.341 15.694-28.621 38.835-27.673 62.4 1.218 45.692 46.403 69.927 79.29 83.943 60.093 23.87 125.363 30.49 189.454 32.404 65.692 2.184 132.045-3.119 196.256-16.2-68.147 36.482-140.435 64.789-213.334 90.13-17.903 6.88-36.195 12.644-54.367 18.765-13.931 4.108-27.479 9.98-41.69 13.036-10.184-1.427-21.368-7.547-30.48-9.872-29.992-10.959-60.98-19.856-90.629-31.559-1.426 162.873.26 326.062-.5 489h-182zm8 305c.948 3.419 4.256 7.238 6.5 10.75 75.343-18.121 149.073-43.675 217.84-79.681 32.974-17.041 64.962-35.874 95.371-57.185 15.486-10.722 30.492-22.116 44.856-34.305 3.469-3.417 6.99-6.767 10.909-9.66 5.267-4.193 15.081.69 22.376-1.718 7.218-1.063 12.72-5.734 17.148-10.951-48.93-29.828-98.23-59.61-146.5-90.5h-1.5c-14.056 28.345-33.753 54.005-52.687 79.261-60.309 75.292-131.03 144.04-214.313 193.739zm218.2-1077.811c-.013 8.089 4.807 12.524 10.706 15.84 5.301 3.796 10.956 6.953 16.897 9.635 30.68 15.87 64.892 23.403 98.718 28.827 62.29 8.142 125.8 8.807 187.998-.819 22.67-3.562 45.18-8.45 66.809-16.256 17.112-7.012 38.054-15.6 50.934-26.979 5.899-7.784 3.811-17.23-2.489-23.113-6.08-6.023-16.865-3.584-22.894.492-53.235 32.686-117.886 36.483-178.476 38.671-31.691.973-63.337-1.819-94.796-5.032-29.41-4.139-59.167-10.2-86-23.417-11.016-4.533-22.087-15.179-32.787-14.19-7.995.462-14.556 8.379-14.62 16.341m10.89 108.822c-.061 13.174 13.366 17.735 22.213 21.038 25.905 10.883 53.483 16.976 80.914 22.426 21.32 3.658 42.771 6.348 64.385 7.465 7.055.529 16.145 2.21 23.208-3.721 5.23-3.995 7.565-11.453 4.8-17.601-5.973-12.386-21.391-10.893-31.53-11.803-35.845-3.175-71.455-9.12-105.921-19.585-7.303-2.071-14.368-4.87-21.48-7.462-7.293-2.766-14.655-6.738-22.739-5.845-7.75.277-14.149 7.112-13.85 15.088m56.975-221.489c-.31 10.412 10.221 15.206 17.724 16.925 49.557 14.182 101.464 14.742 152.52 14.303 25.43-.595 51.057-2.331 76.214-6.193 12.011-2.123 23.98-4.454 35.657-8.01 6.007-1.403 11.82-4.26 15.572-9.323 3.592-4.739 2.165-12.53-.086-16.932-7.663-12.741-20.308-7.414-31.47-5.124-82.378 18.458-168.077 13.389-250.011-2.884-10.075.3-16.416 7.788-16.12 17.238M1371 2208h207v-258h-207zm12.038-1186.74c-.744 13.732 9.84 16.532 20.147 19.64 37.088 12.137 76.352 19.556 115.538 16.383 19.613-1.563 39.093-5.546 58.05-10.657 9.078-2.534 18.164-5.095 27.1-8.101 10.71-2.589 15.067-12.047 12.621-21.618-2.281-9.366-13.4-14.575-22.002-10.29-31.56 11.733-65.077 18.084-98.842 17.279-17.026-.644-34.023-2.215-50.676-5.793-8.062-1.641-15.966-3.907-23.85-6.23-7.422-1.753-15.747-6.293-22.789-6.699-8.233.255-15.577 7.614-15.297 16.086m42.974-166.376c-.657 9.74 8.164 17.938 17.57 16.964 10.038-.48 14.362-10.752 16.643-18.037 4.859-19.188 19.355-27.437 35.524-32.934 9.5-3.32 13.84-11.647 11.834-20.62-2.232-9.754-11.203-13.41-19.728-11.979-31.564 6.408-59.318 33.385-61.843 66.606M1560 2281.469c50.081 33.063 98.648 69.44 141.102 112.13 8.766 7.598 17.07 15.582 24.513 24.5 15.463 15.318 29.334 32.102 43.077 48.958 12.374 13.903 21.448 30.333 32.524 45.149 28.484 16.824 71.7 11.203 90.236-17.847 15.588-21.52 14.54-49.833 6.823-73.858-12.984-34.782-40.668-62.654-71.814-81.84-31.314-19.612-66.113-33.06-101.551-43.2-51.433-13.495-104.645-19.691-157.75-20.461H1565c-.454 2.944-3.474 4.223-5 6.469" style="fill:#000;fill-rule:evenodd;stroke:none"/></svg>