<svg xmlns="http://www.w3.org/2000/svg" width="3000" height="3000"><path d="M1078 1071c16.73-.26 33.418-6.527 50-6.5-21.299 27.082-30.137 61.551-37.474 94.461-6.757 35.848-9.066 72.825-4.526 109.039 4.42-.082 8.682-4.79 11.352-6.9 9.711-9.418 20.103-18.075 30.148-27.1-3.891 28.859-5.288 64.231-.463 90.783 2.841 14.143 8.874 27.357 12.262 41.355 4.828 14.227 3.055 29.356 1.701 43.862 14.576.364 27.694-9.402 35.5-21 17.591 56.613 53.726 111.048 107.5 139 2.178-1.748 2.09-5.772 2.844-8.777.8-4.105 1.698-8.187 2.473-12.292 1.074-4.023 1.046-10.08 3.183-12.931 10.635 22.011 22.656 43.733 38.648 62.412 8.75 9.377 17.893 18.507 28.113 26.276 9.593 7.191 20.026 15.612 32.739 15.312.618-10.235-.784-20.888.5-31 16.847 15.816 37.835 26.31 55.636 40.908 13.996 11.248 25.847 24.763 37.205 38.555 2.049 2.27 4.021 5.44 6.319 7.087 2.847 2.887 5.826-.75 7.507-2.538 28.315-36.124 67.132-61.806 106.576-84.17 8.755-5.236 17.945-9.746 26.757-14.842-3.351 12.926-13.844 29.752-3.206 41.844 2.555 4.173 6.848-.37 8.458-2.038 8.069-7.183 16.65-13.792 24.38-21.352 12.678-10.341 24.088-22.092 35.6-33.687 12.222-12.27 24.1-24.836 35.122-38.186 5.42-6.46 10.179-13.454 15.014-20.333 4.036-6.679 9.683-14.822 10.132-22.248h2c2.68 7.834 8.155 14.614 11.171 22.355 2.011 4.004 4.002 8.02 6.006 12.011 2.024 3.593 3.748 9.284 7.823 9.634 32.928-54.6 48.524-118.265 61.5-180 3.025 5.21 9.077 10.814 13.321 16.56 4.448 4.182 8.841 13.294 14.179 14.44 8.742-30.452 16.21-61.67 14.912-93.68-1.167-32.198-4.934-64.36-10.912-96.004 12.212 10.285 26.805 20.991 44 19.684-.361-5.165-4.464-11.172-6.466-16.863-16.737-36.341-25.762-76.728-49.534-109.637 9.182-1.546 20.31.435 28.604 1.735 9.02 1.05 19.064 5.444 27.396 5.765 1.087-35.193-4.867-71.276-22.557-102.205-14.335-28.545-38.763-54.72-70.443-63.295 10.758-10.71 21.614-25.457 26.147-38.682 4.914-16.426 2.41-36.55.853-51.818-5.953.28-12.19 6.2-18.33 9.051-18.328 9.406-36.846 19.052-56.67 24.949v-1.5c8.27-9.753 14.749-23.62 20.559-33.69 4.974-12.812 12.982-27.866 13.441-40.81-5.907.42-11.984 4.36-17.005 6.064-36.676 15.27-73.394 32.62-109.995 47.436 5.606-16.76 10.66-34.346 19.695-49.865a465 465 0 0 1 12.849-22.5c3.397-7.095 11.618-15.521 12.456-22.135-30.37-7.778-62.634-8.621-92.707 1.198-26.746 9.134-55.315 27.726-73.793 45.802-.966-10.416 5.492-22.425 8.382-31.186 2.057-4.802 4.47-9.436 6.395-14.299 2.03-4.574 5.572-9.76 5.723-14.515-20.46 1.473-40.546 10.064-56.327 22.953-13.66 13.514-29.139 31.418-35.673 48.047h-2c-2.631-6.963-10.8-14.248-14.475-18.975-16.438-18.017-41.119-25.662-64.765-28.232-19.71-1.726-39.458-2.955-59.057-5.799-9.401-1.049-19.868-5.044-27.541-8.93-8.233-2.635-16.93-12.338-24.162-13.064-1.71 12.774-3.699 28.51.228 40.095 3.995 12.369 11.64 23.275 20.772 32.405-36.018.588-72.312-8.313-106.266-19.811-3.77-1.396-8.094-3.602-11.795-4-2.684-.973-2.885 2.533-3.296 3.914-4.631 14.405-2.729 30.242 4.808 43.271 6.495 11.806 17.461 23.46 25.549 32.626-17.046 1.588-37.512-1.751-53.13-2.609-8.746-1.103-17.473-2.347-26.081-4.235-7.8-1.303-16.49-5.521-23.789-5.656-5.547 15.823-4.279 33.334 3.275 48.49 6.999 14.381 16.329 27.778 27.725 39.01-29.287 11.46-54.57 33.82-67.293 63.022-13.69 30.869-15.88 65.276-15.707 98.478m14 1426c30.883-.526 64.828 1.655 92.664-14.828 11.085-6.6 28.103-14.727 26.336-31.469V2401h51.6c5.354.644 12.357-1.139 16.4 1.5-2.166 9.688-.168 19.921-1 29.738V2462c18.076.046 36.351.988 54.1-3.115 12.602-2.352 24.907-5.976 37.028-10.091 8.44-3.252 19.437-6.06 25.842-11.688 2.611-2.676 1.87-7.454 2.03-10.855V2194c6.6-.576 15.07-4.435 19.953-6.67 4.718-3.634 12.613-6.914 14.047-12.33-34.327-27.223-70.31-52.816-104.892-79.804-5.551-4.29-8.353 2.98-12.006 6.197-13.511 14.25-27.255 28.274-40.233 42.999-3.63 5.003-8.644 4.966-13.932 4.608H1210v-96.6c.326-8.16-.41-16.363.25-24.496.195-4.056 3.966-3.902 6.72-3.89 20.675-.04 41.362.007 62.03-.014v24.6c.017 6.193-.021 12.409.012 18.595.175 1.955.198 5.413 1.877 6.2 14.643 1.82 32.287-.43 45.61-2.014 16.433-2.85 32.508-7.18 48.204-12.784 6.823-2.83 15.383-5.686 21.039-9.464 3.264-2.83 1.88-8.596 2.258-12.43V1841c9.73-2.059 19.329-5.563 27.285-11.708 3.591-2.497 8.927-6.616 3.397-10.443-3.924-3.065-7.921-6.02-11.904-8.985-11.085-8.24-22.036-16.624-33-25-16.503-12.417-32.757-25.123-49.424-37.307-3.495-2.36-9.698-8.904-13.15-5.864-11.759 10.536-21.175 23.446-32.628 34.312-5.886 6.253-12.314 14.31-18.737 18.998-4.943 1.774-9.776.552-14.97.997-4.856-.608-10.128.775-14.869-.5 20.306-23.07 39.148-47.436 58.721-71.128 4.873-5.989 9.667-12.043 14.22-18.274 3.672-4.538 7.138-9.258 10.732-13.844 3.159-3.526 8.223-3.236 12.501-4.301 12.57-2.008 24.24-11.21 25.826-24.406-2.719-2.158-7.636-1.935-11.493-2.957-52.254-7.804-104.116-18.888-156.507-25.59-.034 25.089.169 50.179-.403 75.253-.283 12.753-.456 25.532-.908 38.275-.2 6.315-.462 12.652-.632 18.967-.799 5.419 1.164 12.468-1.557 16.505-16.054-6.89-32.991-12.233-49.235-18.764-8.359-3.06-16.6-6.42-25.014-9.321-7.926-2.157-16.647-7.25-24.251-7.915zm62.268-1516.072c1.875 35.09 24.063 64.074 46.744 88.495 5.154 4.202 13.073 9.238 9.971 17.675-15.206 58.67 5.301 120.56 40.41 167.763 25.383 35.146 57.57 65.13 93.276 89.565 6.664 4.663 13.424 9.2 20.32 13.502 9.045 3.854 6.998 12.674 7.818 19.664 4.895 58.086 54.702 109.973 113.414 113.746 29.73 2.85 59.634-8.529 82.41-27.066 21.268-18.207 37.817-42.832 43.915-70.437 1.448-5.93 2.402-11.958 2.97-18.033.68-5.37-.603-12.735 3.803-15.545 68.44-41.955 131.558-102.25 155.538-181.355 6.284-21.103 8.734-43.348 6.538-65.276a149 149 0 0 0-3.944-24.855c-.466-2.945-2.016-8.04-.065-10.093 17.751-17 34.862-35.748 45.457-58.333 6.079-11.752 10.075-24.651 10.951-37.884.637-13.16-4.323-26.03-12.185-36.32-8.264-11.343-21.184-18.78-34.35-22.81-25.805-6.95-53.057 2.738-75.236 15.589-9.266 5.478-19.84 12.69-26.998 19.555-2.076 1.593-4.142 4.74-6.475 5.028-20.35-7.278-41.042-15.223-63.153-15.332-36.538-2.048-80.077 10.053-107.148 30.129-5.14 2.696-10.571 11.828-15.825 10.996-4.97-3.998-9.14-9.038-14.514-12.59-40.604-27.515-93.843-35.25-140.861-22.711-5.82 1.638-11.53 3.655-17.146 5.852-4.057 1.326-9.127 5.778-13.45 1.917-12.597-12.618-27.756-22.385-43.84-29.936-17.196-7.758-36.407-12.968-55.345-9.928-28.56 4.425-52.182 29.918-53 59.028M1227 1045c4.893-4.222 6.167-11.304 10.132-16.224 5.336-7.763 10.567-15.675 17.065-22.53 3.199-3.689 6.2-7.596 9.935-10.792 3.279-3.15 8.62-6.144 8.868-10.454-15.947-8.596-36.251-26.742-60.043-17.17-24.067 10.76-16.784 41.673-5.105 56.325 6.247 6.771 11.645 17.713 19.148 20.845m-17 951h69v-172h-34.8c-10.894 1.044-24.442-1.377-34.2 1zm68 377c1.768-8.04.565-16.424 1-24.568v-86.264c-.908-27.526 1.241-59.982-1-85.168h-34.2c-10.76 1.022-24.165-1.356-33.8 1v163.662c.04 8.369-.05 16.745.027 25.107-.523 8.108 8.072 6.024 13.492 6.231zm61-1294.61c-1.666 19.751 16.95 38.221 36.51 36.61 19.794 1.668 38.255-17.151 36.49-36.801 1.675-20.17-17.6-37.927-37.314-36.198-19.216-1.295-37.226 17.174-35.686 36.39m71 258.61c16.111-.506 32.536-1.105 47.938-6.494 6.935-2.404 14.378-6.85 20.207-10.12 6.482-3.082 10.407-9.835 16.355-13.386 10.15 10.437 22.426 19.53 36.626 23.603 15.054 5.282 31.126 5.726 46.874 6.397v-30c-12.787.253-25.847.179-38.149-3.925-10.846-3.334-19.976-10.693-27.851-18.575 21.525-13.456 36.439-35.14 46.532-57.895 2.42-6.46 4.544-13.118 5.226-20.01.826-8.7 2.47-21.102-9.97-25.304-10.095-2.583-20.667-3.12-31.022-3.291a1062 1062 0 0 0-47.487 0c-7.995.108-16.047-.303-24 .584-6.948 1.07-16.106 1.082-21.448 5.298-7.883 5.693-6.046 20.48-4.677 27.786 5.296 27.065 25.762 54.413 45.855 68.962 1.493 1.079 3.179 1.97 4.991 2.37v1.5c-18.633 20.718-41.527 23.635-66 22.5zm195 423v127c-14.87-.365-30.378 1.74-44.352-4.124-20.784-7.462-41.313-15.624-62.154-22.918-10.065-4.064-20.38-7.409-30.473-11.35-10.15-2.875-21.379-9.246-31.021-10.608.015 186.014-.019 372.036.01 558.043-.817 7.754 6.038 7.49 11.181 6.879 21.594-.58 43.585-.37 64.49-6.698 15.506-5.202 34.243-13.625 44.381-25.175 3.481-6.327 1.041-16.732 1.938-24.895V1915h46v606c37.507.606 78.102 2.095 111.274-19.161 7.567-4.713 17.727-9.522 17.672-18.486.153-30.609-.027-61.205.054-91.802V1915h50v317.4c-.224 6.028.549 13.312-.978 18.712-2.792 9.503-14.9 6.456-22.033 6.7L1735 2257v15c11.162 1.396 21.854 7.15 28.262 16.505 9.636 14.191 12.697 34.458 14.265 49.658 1.888 18.551 1.262 37.243 1.473 55.837 18.52-.92 36.799-4.651 54.717-9.186 24.316-6.487 49.252-19.339 60.558-43.364 11.48-25.277 12.412-53.94 12.725-81.141v-317.017c-.215-3.349.092-6.636.43-9.932.876-2.397 5.017-2.39 7.424-3.508 5.089-1.722 10.002-4.064 14.586-6.86 3.27-2.94 10.388-5.935 9.98-10.476-13.429-12.883-30.01-22.337-44.086-34.515-11.395-8.396-22.62-17.05-33.851-25.64-8.37-6.346-16.935-12.485-25.117-19.07-2.968-2.027-6.662-5.653-9.904-4.599-9.297 9.78-19.767 21.819-27.952 31.114-4.452 5.41-9.368 10.402-13.904 15.727-4.354 4.548-8.595 11.994-16.698 11.467H1734v-127c63.455-.69 127.005.841 190.428-.454 7.307-.63 14.755-3.32 18.837-9.842 4.25-6.817-2.078-10.933-6.397-15.25-31.418-27.91-63.689-54.878-95.87-81.897-4.275-3.467-10.156-9.343-14.998-9.557-18.343 27.384-39.596 53.621-58.732 80.632-2.16 2.378-3.827 6.063-6.555 6.904-112.047 2.841-224.74-2.092-336.713 1.464.197 7.726 3.975 16.303 5.5 23.13.813 5.356 6.78 5.173 10.476 4.87H1605m-29-681.143c-1.39 19.57 17.118 37.31 36.178 36.139 20.18 1.695 37.801-16.562 37.546-36.313.27-19.664-16.899-38.392-37.324-36.681-19.661-1.448-37.982 16.902-36.4 36.855m140.495-91.946c-.28 3.464 5.287 5.619 6.717 7.86 8.838 8.723 16.907 18.294 23.953 28.509 3.628 4.825 6.522 10.059 9.5 15.281 1.373 2.168 3.342 6.663 5.976 5.72 2.185-1.914 4.605-3.578 6.427-5.905 6.22-7.046 11.894-14.63 16.595-22.765 5.322-8.985 6.517-19.65 4.89-29.854-2.265-13.788-17.731-21.788-30.597-20.448-13.623.96-26.025 7.366-37.01 15.06-2.592 1.162-4.637 3.668-6.496 4.982.015.462.025.927.045 1.56" style="fill:#fff;fill-rule:evenodd;stroke:none"/><path d="M338 2761.5c387.06 1.426 774.925-.26 1162.15.5 387.224-.76 774.71.926 1161.85-.5-77.265-456.459-152.125-914.01-228.874-1370.691-28.417-170.851-56.988-341.657-85.4-512.497-12.491-74.824-24.942-149.684-37.431-224.508-5.828-35.176-11.741-70.32-17.569-105.492-3.54-17.097-4.968-34.714-9.072-51.664-1.3-3.941-8.915-3.966-11.797-5.85-133.175-44.44-266.372-88.79-399.558-133.193-116.482-38.867-233.005-77.647-349.48-116.505-6.56-1.974-12.94-4.527-19.527-6.382-6.558-1.31-12.878 2.396-19.017 4.029-100.339 33.452-200.674 66.889-301.01 100.324-87.802 29.33-175.659 58.504-263.446 87.829-38.52 12.817-77.015 25.657-115.52 38.495-18.005 5.974-35.995 12.026-54 18-8.822 2.95-17.652 5.903-26.471 8.83-4.346 1.012-8.371 2.451-8.57 8.208-90.761 544.76-181.624 1089.514-272.367 1634.27-35.423 208.458-69 418.87-104.891 626.797m112-95c349.66 1.426 700.125-.26 1049.95.5 349.946-.76 700.184.926 1050.05-.5-71.115-419.63-139.844-840.338-210.448-1260.2-26.214-157.169-52.393-314.328-78.582-471.499a856355 856355 0 0 0-34.418-206.502c-5.388-32.32-10.783-64.67-16.17-96.99-2.588-15.664-5.232-31.299-7.827-46.958-.793-4.36-1.427-8.742-2.21-13.102-.428-4.863-4.85-6.193-8.474-7.135-122.028-40.638-244.03-81.373-366.052-122.014-106.682-35.522-213.343-71.109-320.006-106.667-6.525-2.525-11.758-.06-17.468 1.947-92.703 30.905-185.37 61.816-278.08 92.691-81.01 26.99-161.996 54.033-243 81-35.467 11.86-70.965 23.65-106.438 35.486-16.678 5.533-33.31 11.15-49.99 16.655-3.243 1.458-10.117 2.375-10.586 5.954-85.805 510.194-170.013 1020.748-255.437 1531.015-32.076 188.3-62.276 378.547-94.814 566.319" style="fill:#747474;fill-rule:evenodd;stroke:none"/><path d="M1210 2400.5c.03.55.186 1.058.5 1.5h67.5c-.032 1.24.071 2.744.5 4l1.5-1.5c-.005-4.121-2.75-4.65-5.786-4.445-21.258.599-43.138-.894-64.214.445" style="fill:gray;fill-rule:evenodd;stroke:none"/><path d="M449 2666.5v1.5h2102v-1.5c-63.81-378.768-126.215-757.87-189.705-1136.696-47.349-283.998-94.654-568.016-142-852-4.398-26.67-8.911-53.338-13.325-80.003-1.118-6.656-2.232-13.342-3.35-19.985-.571-3.586-1.119-7.183-2.096-10.662-1.288-2.958-6.82-3.128-9.193-4.54-101.51-33.828-203.017-67.663-304.512-101.514a746151 746151 0 0 1-266.522-88.84c-39.072-12.89-78.06-26.135-117.144-38.98-4.713-1.335-9.273 1.032-13.839 2.453-144.507 48.104-288.95 96.378-433.449 144.467-54.18 18.08-108.385 36.116-162.566 54.195-23.808 7.923-47.625 15.882-71.434 23.805-5.676 1.96-11.407 3.738-17.06 5.726-6.564 1.113-6.72 8.744-7.34 13.268C740.08 921.349 682.77 1265.54 625.383 1609.692 566.339 1961.663 508.308 2314.864 449 2666.5M1079 1070h1.5c16.752-2.194 33.8-5.882 50.5-7.5-21.554 27.445-31.926 61.725-39.079 95.342-6.886 35.91-9.715 72.846-4.921 109.158h1.5c13.129-12.233 26.885-23.757 40-36-2.062 30.22-7.073 61.707-.595 92.104 2.718 14.243 8.844 27.53 12.271 41.58 4.468 14.355 3.678 29.693 1.824 44.316 14.507-.487 26.399-10.844 34.5-22 3.563 5.493 4.644 14.75 8.244 21.672 18.747 48.98 53.129 92.003 98.756 118.328 4.69-11.864 4.338-25.744 8-38 11.105 22.348 22.648 44.832 38.772 64.073 8.016 9.716 19.154 19.618 27.936 27.037 9.371 7.28 21.308 16.603 32.792 16.89.666-10.901-.832-22.21.5-33 16.002 16.41 37.05 26.468 54.761 40.686 9.307 7.132 17.771 15.366 25.671 24.01 3.821 4.419 7.697 8.736 11.43 13.216 4.134 3.534 6.811 10.174 11.138 12.088 37.453-47.196 90.03-79.149 143-106-7.588 13.331-18.258 34.098-5.5 47 24.756-21.14 49.319-42.777 71.87-66.37 11.496-11.591 22.503-23.738 32.446-36.709 9.382-12.374 18.967-25.443 22.184-40.921 8.846 15.681 16.178 32.35 25 48 17.547-26.442 28.426-56.797 38.536-86.689 10.296-31.105 17.756-63.136 23.464-95.311 8.903 11.071 18.212 21.848 27 33 9.909-30.342 16.398-62.438 15.313-94.561-.6-32.454-6.219-64.428-10.813-96.439h1.5c11.123 11.5 26.056 20.895 42.5 21-19.49-41.775-31.255-87.797-57-126.5 19.403-3.065 38.358 3.75 57 7.5.879-34.943-5.465-70.843-23.194-101.436-14.325-29.232-39.722-53.144-70.806-63.064 10.784-10.68 21.756-25.264 26.714-38.322 5.424-16.115 2.91-36.106 1.286-51.178-6.534 2.13-11.74 7.235-18.003 9.973-19.02 10.397-39.172 18.78-59.497 26.027 2.31-6.304 8.89-12.713 11.459-18.463 10.724-17.852 21.787-40.518 25.041-59.537-21.58 8.091-42.292 18.62-63.684 27.232-20.772 9.575-42.225 17.87-62.816 27.768-.614-8.307 5.462-17.904 6.969-25.856 9.347-24.364 22.471-47.409 37.531-68.644V724c-15.543-3.124-31.16-7.056-47.227-6-45.657-.093-86.538 24.402-119.273 54-1.7-10.67 4.39-22.845 7.386-31.732 3.38-10.17 9.533-19.235 13.114-29.268-20.455 2.663-40.905 10.65-56.228 24.741a203 203 0 0 0-20.048 22.98c-2.788 3.938-5.58 7.893-8.082 12.018-2.684 3.619-4.836 9.783-7.642 12.261-10.854-12.923-20.79-28.341-36.746-35.888-24.683-12.895-52.872-13.242-79.809-15.332-13.266-1.828-26.943-2.202-39.656-6.696-6.257-2.067-12.106-5.205-17.913-8.269-5.42-2.632-10.573-8.137-15.876-9.815-2.07 13.003-3.631 29.046 1.103 40.643 4.396 12.306 12.64 22.826 21.897 31.857-10.242 1.503-22.642-1.212-32.035-1.583-30.622-3.214-61.227-10.735-89.465-22.917-8.741 18.082-3.368 40.456 9.183 55.44 6.591 8.769 13.55 17.31 21.317 25.06-35.25 2.206-71.054-3.884-105-12.5-14.093 34.906 14.95 65.46 32 88-21.578 5.912-39.933 21.123-53.76 38.214-14.49 18.306-22.503 40.944-26.241 63.77-3.33 18.877-4.257 37.943-3.999 57.016m14 1426c30.1-.496 63.097 1.296 90.246-14.594 13.03-7.25 28.827-16.06 26.754-31.106V2401h69v60c17.745.222 35.644.856 53.037-3.303 12.462-2.375 24.655-6.064 36.663-10.1 7.5-3.05 18.386-5.564 25.27-11.492 2.611-2.675 1.87-7.453 2.03-10.854V2193c12.92-1.466 25.028-8.329 34-17.5-35.713-27.305-72.033-53.882-107.5-81.5-14.332 16.43-29.743 31.885-44.636 47.79-3.33 4.155-6.367 8.971-13.335 8.206-18.516.012-37.028-.002-55.529.004v-99c.476-8.037-.62-17.631.432-24.948-.234-3.145 5.256-2.87 7.163-3.05 21.15-.006 42.264.001 63.405-.002v24.6c.017 6.193-.021 12.409.012 18.595.175 1.955.199 5.413 1.877 6.2 14.658 1.762 32.365-.56 45.663-2.404 15.741-2.796 31.121-6.986 46.151-12.394 6.887-2.985 15.842-5.701 21.409-9.83 2.858-2.696 1.452-8.47 1.888-12.665V1840c12.647-2.492 24.925-8.135 34-17.5-35.553-27.494-71.885-54.08-107.5-81.5-12.33 12.738-24.325 25.778-36.336 38.8-2.807 3.614-6.226 6.67-9.397 9.933-2.27 2.438-4.67 4.702-7.374 6.63-10.648 1.56-21.671-.073-32.393.637v-1.5c20.617-22.744 39.09-47.385 58.753-70.929 4.864-5.996 9.645-12.045 14.246-18.237 3.51-4.479 7.004-8.944 10.4-13.509 4.475-6.342 16.483-4.524 23.748-9.416 9.047-3.866 12.811-10.898 15.853-18.909-.458-.45-.911-.96-1.25-1.5-55.048-7.907-109.652-19.372-164.75-27-.034 25.089.169 50.179-.403 75.253-.283 12.54-.446 25.107-.886 37.642-.204 6.332-.457 12.68-.64 19.005-.844 5.573 1.174 12.882-1.571 17.1-33.166-10.793-65.29-25.324-98.5-36zm585.5-1533c-29.978-14.67-65.193-19.11-98.104-14.123-32.178 4.299-63.39 17.857-86.896 40.123-22.102-23.706-54.498-34.684-85.616-40.098-33.173-5.493-68.123-.026-98.45 14.098-19.223-21.16-50.264-36.936-75.794-41.875-29.216-6.152-63.691 7.795-75.493 36.69-8.61 19.511-4.186 41.9 4.538 60.493 8.143 18.808 21.312 34.433 34.805 49.499 3.625 4.386 9.063 7.078 12.17 11.93 1.796 1.667.253 5.383-.053 7.885-9.937 41.84-3.644 86.839 15.323 125.217 17.136 37.18 43.897 68.67 73.202 96.707 16.495 14.391 33.498 28.186 51.825 40.187 4.108 2.85 8.415 5.347 12.506 8.226 3.262 2.128 8.125 3.882 8.458 9.015.982 37.356 18.136 73.919 47.05 97.787 21.176 18.407 48.77 28.091 76.689 28.102 42.42.308 81.882-24.36 103.309-60.338 10.846-17.65 17.644-37.778 18.776-58.543.286-5.05-.883-10.838 5.276-13.89 12.53-7.77 24.785-16.02 36.611-24.824 53.582-40.761 101.184-95.49 118.98-161.926 4.693-18.084 6.627-36.681 5.178-55.324-.39-7.089-1.106-14.163-2.335-21.148-.297-5.767-4.04-12.2-2.38-16.859 13.745-13.769 27.988-27.39 37.887-44.476 10.446-16.761 18.728-35.814 18.956-55.899-.269-35.098-34.968-62.804-69.077-59.636-16.714-.13-35.25 7.994-48.69 14.443-14.212 7.548-27.467 16.973-38.651 28.557m-452 81c6.528-10.111 11.537-21.264 19.627-30.417 7.284-10.336 16.547-18.731 25.873-27.083-14.055-9.303-28.815-19.772-46.483-20.11-8.653.112-18.756 4.951-23.337 11.631-4.619 7.044-5.289 17.457-3.317 24.849 4.51 15.703 17.455 30.643 27.637 41.13m-17.5 953h71v-174h-36c-11.139 1.041-25.018-1.374-35 1zm70 377c1.768-8.04.565-16.425 1-24.568v-87.464c-.92-27.783 1.253-60.546-1-85.968h-53.4c-5.23.153-12.5-.487-16.6 1v166.4c.108 8.406-.133 16.821.075 25.214-.291 7.404 10.024 4.964 14.623 5.386zm61-1295.691c-1.209 19.155 17.048 37.002 35.901 35.691 18.992 1.018 36.537-17.448 35.099-36.193.996-19.38-17.863-36.21-36.702-34.804-18.148-.535-35.295 17.039-34.298 35.306M1411 1336c15.862-.785 32.083-1.307 47.188-6.941 6.9-2.722 13.354-6.41 19.727-10.155 6.523-3.325 10.505-10.24 16.585-13.904 10 10.497 21.925 19.682 35.956 24.093 14.959 5.377 30.834 6.252 46.544 6.907v-28c-21.449.838-51.555-1.037-67-25 7.825-2.154 14.092-10.204 19.37-14.87 8.422-8.169 16.722-19.39 21.581-29.014 5.916-11.523 11.746-23.75 12.009-37.022.437-6.727.622-14.485-7.545-18.672-9.868-4.05-22.927-3.777-32.457-4.422-11.33.657-24.603-.628-34.943-.088-18.35 1.356-38.658-2.744-56.076 5.155-8.128 4.792-7.972 17.081-6.118 25.091 1.841 8.546 4.593 16.92 8.62 24.718 4.752 10.209 11.134 19.508 18.344 28.11 4.024 4.415 8.25 8.689 12.73 12.631 3.239 3.84 10.269 6.479 12.485 9.883-8.166 8.193-17.417 16.097-28.69 19.531-12.348 4.214-25.43 4.29-38.31 3.969zm195 423v129c-14.57-.405-32.262 1.588-44.88-3.55-41.098-14.979-82.017-30.583-123.12-45.45.006 185.195-.007 370.406.004 555.597.193 2.545-.021 6.911 2.967 6.963 35.607.254 84.848 1.261 116.027-33.2 2.15-8.284.188-17.178 1.002-25.603V1914h48v606c36.88.583 76.69 1.655 109.274-19.161 7.19-4.088 17.471-9.824 17.642-17.895.239-29.998-.043-59.995.084-89.993V1914h52v319.2c.474 9.743 2.763 27.084-13.523 25.799-11.834.011-23.658-.653-35.477-.999v13c11.162 1.396 21.854 7.15 28.262 16.505 9.636 14.191 12.697 34.458 14.265 49.658 1.888 18.551 1.262 37.243 1.473 55.837 18.63-1.751 37.195-4.751 55.205-9.934 24.675-6.718 49.386-20.999 59.648-45.88 10.494-26.392 11.142-55.356 11.147-83.27v-275.068c.658-15.275-.805-30.693.44-45.909.068-3.184 6.103-3.046 8.012-4.28 9.205-3.037 17.741-8.278 24.548-15.159-17.92-14.861-37.16-28.132-55.432-42.546-19.04-13.367-36.727-29.157-56.068-41.954-12.508 14.602-25.504 28.829-38.213 43.25-3.178 3.717-6.307 7.458-9.763 10.927-4.465 6.793-15.042 4.46-22.002 4.823H1733v-129c63.455-.69 127.005.841 190.428-.454 7.28-.635 14.806-3.316 18.837-9.873 3.834-5.171-4.308-11.259-7.571-14.27-31.3-28.036-63.948-54.56-95.87-81.879-3.677-2.588-8.185-7.42-11.824-8.524-18.343 27.384-39.596 53.621-58.732 80.632-2.16 2.378-3.827 6.063-6.555 6.904-112.047 2.841-224.74-2.092-336.713 1.464.785 6.572 3.997 15.09 6.079 22.642.715 4.433 8.138 3.063 11.097 3.358H1606m-29-680.241c-.922 18.994 17.171 36.084 35.574 35.23 19.45 1.17 36.236-17.088 36.031-35.902-.38-18.762-17.09-36.483-36.567-35.075-18.63-.742-36.042 16.777-35.038 35.747m140-92.134c.875 2.603 4.474 4.29 6.564 6.545 15.947 14.287 27.377 32.544 37.936 50.83 11.353-11.566 24.59-27.17 27.95-42.119 1.462-8.86 1.081-19.129-5.301-26.067-5.743-6.402-14.53-9.956-23.105-9.5-16.59 1.13-30.815 10.582-44.044 19.686z" style="fill:#000;fill-rule:evenodd;stroke:none"/></svg>