<svg xmlns="http://www.w3.org/2000/svg" width="3000" height="3000"><path d="M1146 2138h256v25c25.97 1.056 52.063-2.065 76.274-12.112 5.663-2.114 11.257-4.448 16.572-7.327 3.568-2.412 9.347-4.279 9.78-8.643 1.058-14.917-.186-29.973.374-44.918 10.988-3.459 23.115-12.614 33-15.5-4.182 29.402-7.326 59.96-13.12 89.339-2.697 15.079-6.17 29.988-9.137 44.998-1.882 7.668-3.83 15.293-5.467 23.005-1.612 7.401-4.63 14.563-5.276 22.158h-1.5c-13.773-11.063-26.55-23.453-40.539-34.243-3.667-3.627-7.21 3.341-9.353 5.458-8.265 10.318-16.413 20.711-24.968 30.79-2.562 2.87-4.704 6.038-7.14 8.995-1.416-21.127.25-42.774-.5-64 14.956-.776 30.562-12.033 31-28-43.088-2.706-85.907-9.407-129-12-.76 39.247.926 78.876-.5 118-9.795-12.857-20.59-24.982-31.553-36.835-1.695-2.65-5.788-7.091-8.195-2.255-5.833 9.97-11.647 19.993-17.252 30.09-1.403-19.64.237-39.605-.5-59.3.373-3.997-1.201-11.531 3.191-12.71 11.143-2.721 25.828-8.166 24.809-24.99-41.763-2.721-83.243-9.347-125-12v311c-22.437 5.343-45.279 9.157-68 13 19.99 44.323 49.413 84.872 70 129 9.165-.564 16.994-6.905 21.859-14.088 3.461-6.712 6.103-14.755 13.243-20.514 40.863-38.722 79.158-79.965 117.398-121.398 1.45 22.756-1.745 46.431 5.188 68.742 2.85 15.827 14.564 28.824 30.529 32.054 25.845 6.505 52.916 3.306 79.211 4.202 24.112-.383 53.386-3.091 73.444-13.4 1.16-.497 2.726-1.562 4.128-1.098-20.51 27.603-44.273 52.544-70.472 74.717-3.917 3.782-.852 7.746 1.017 10.985 1.73 2.57 3.489 8.413 7.083 6.958 23.316-10.97 44.745-26.213 65.682-41.12 9.793-7.521 19.72-14.965 28.695-23.463 11.018-9.879 23.495-22.22 32.485-32.384 49.111-53.921 82.985-120.051 104.772-189.185 11.474-37.222 21.854-75.29 26.738-114.008 3.013-.328 5.98-.825 9-1v202.2c-.388 2.866.652 7.696-1.878 9.187-22.568 1.747-45.48-.317-68.122.613 2.159 9.096 5.366 19.837 8.048 27.975 1.755 4.957 11.158 2.063 14.712 3.025H1825v158c16.202.013 32.567.806 48.539-2.462 11.168-2.311 22.089-5.708 32.565-10.206 7.137-3.32 15.713-7.295 21.258-12.01 5.335-4.603 3.116-13.226 3.638-18.978V2483h39c12.686-1.003 41.886 4.905 47.167-15.23 1.08-4.913-3.077-8.175-5.898-11.005-8.765-9.357-17.219-19.036-26.837-27.58-10.608-7.711-19.484-21.007-29.518-27.664-3.116-2.354-5.586.948-7.194 3.4-5.207 8.145-11.464 15.672-16.22 24.079-1.426-33.276.26-66.813-.5-100.14v-89.391c.253-3.518-.873-10.015 3.534-10.124 16.385-.983 32.91.178 49.311-.345 9.832-.108 23.336 1.544 29.314-11.53 4.407-7.097-5.761-14.771-9.359-19.754-8.278-8.785-16.819-17.441-25.688-25.628-4.866-3.746-8.659-8.76-13.577-12.442-4.745-3.638-8.341-9.936-14.535-9.646-4.768 9.95-12.588 18.675-18.5 28-1.135-15.63-.088-31.815-.33-47.537.028-4.246 4.158-5.118 7.484-5.722 10.464-1.743 19.077-10.805 18.346-21.741-44.112-2.542-87.907-9.181-132-12v107h-95.4c-3.298-.332-8.578.636-10.854-1.27-19.435-14.494-36.652-31.9-56.22-46.226-2.098-2.463-5.61 1.248-7.257 2.73-7.432 7.987-14.522 16.293-22.64 23.636l-11.604 11.605c-3.535 2.655-7.824 9.659-12.025 9.025 6.407-15.486 12.187-31.512 17.427-47.475 2.609-6.477 3.482-18.13 10.593-18.962 6.527-.656 14.177-2.545 19.467-5.454 5.156-2.861 9.088-9.932 16.679-9.601 25.83.607 51.97-.672 76.762-8.708 8.913-2.573 17.724-5.594 26.27-9.18 6.212-3.024 15.695-6.993 17.405-13.131 1.132-62.1-.205-124.367.397-186.489l.5-1.5c11.137 37.177 24.592 74.055 44.526 107.555 9.336 16.625 21.045 31.865 33.687 46.074 6.4 7.267 13.396 14.146 20.68 20.501 7.423 5.123 14.645 14.79 22.607 15.87 5.786-26.749 14.989-53.434 30.777-76.045 7.688-10.859 18.987-21.975 29.242-28.622 5.547-3.713 11.526-6.677 17.742-9.06 8.546-1.814 7.246-10.036 7.239-16.273-30.346-3.8-59.934-13.092-88.609-23.363-27.417-11.026-55.045-23.765-78.391-42.137 29.853-1.426 60.158.26 90.093-.5 15.165-.062 30.346.076 45.506-.041 11.877-.509 29.845-2.578 30.401-19.959-17.194-12.483-32.878-28.377-50.429-40.754-12.625-10.131-25.6-19.799-38.396-29.688-4.527-3.78-10.472-9.69-14.538-4.302-13.22 16.322-26.214 32.817-39.39 49.173-3.383 4.04-6.473 8.34-9.966 12.278-2.939 3.127-8.448 2.073-12.351 2.293H1794v-162c8.941-2.015 18.664-2.94 26.303-8.6 7.36-4.828 11.896-13.601 11.697-22.4-48.817-5.413-98.227-8.313-147-13.5 7.483-7.27 14.01-18.33 15.837-27.763 3.336-19.95 3.455-40.473 7.525-60.264 19.822-55.254 44.109-110.03 53.138-168.473 8.603 17.862 20.233 39.737 19.5 58.553.567 38.484-.972 77.424-11.907 114.604-3.716 13.577-9.656 29.423-9.08 42.525.328 5.93.893 13.167 2.895 18.287 1.927 4.78 11.348 3.832 15.179 5.33 21.042 1.625 46.994.882 65.398-5.75 3.043-1.674 4.464-6.015 5.459-9.88 6.815-31.82 2.289-64.702 4.523-96.843.443-31.339 4.894-62.401 6.488-93.648 1.158-13.115-5.181-24.908-12.072-35.515-6.164-10.462-12.464-20.881-17.952-31.721-6.272-10.564-10.572-22.066-12.645-34.156-1.684-13.023-1.172-26.2-1.286-39.286l.5-1.5c8.018 13.667 19.143 25.21 29.522 37.033 8.622 11.14 21.425 18.14 30.542 28.732 6.802 24.015 15.59 47.498 21.797 71.69 2.698 9.474 4.607 19.106 6.163 28.81 1.682 7.797 2.288 18.14 7.762 22.979 13.985 9.34 23.346-14.535 26.555-22.854 7.787-20.626 12.548-42.632 12.159-64.75.681-21.432-4.227-44.413-19.387-60.502-5.55-6.355-12.732-10.79-20.437-14.003-6.163-2.823-12.907-3.683-19.373-5.36-4.345-1.125-6.972-6.784-9.902-9.623-8.055-10.52-16.356-20.999-23.125-32.417-7.835-12.644-14.888-25.74-21.456-39.075-7.904-18.042-16.573-36.015-20.516-55.413-14.567-53.84-55.405-105.183-112.245-117.245-16.712-3.226-33.276-7.274-50.093-9.926-15.345-2.641-30.954-2.742-46.46-3.197-6.567-.455-13-2.035-19.443-3.284-6.497-.866-7.914-6.614-10.825-11.497-5.238-8.957-11.008-17.62-17.581-25.648-5.367-7.042-14.931-11.836-21.185-16.795-13.189-8.71-25.935-18.091-39.146-26.764-8.861-6.79-22.472-14.367-28.795-21.209-22.34-28.57-36.927-62.555-52.031-95.182 32.249-14.36 60.154-39.174 75.065-71.668 4.064-8.627 6.987-17.8 8.873-27.128.724-3.887.836-7.818.596-11.727-11.745-19.553-30.73-33.688-51.086-43.34-13.213-6.687-27.532-11.265-42.013-14.255-15.563-3.424-31.648-2.128-47.435-2.382-.796-15.374-3.317-30.624-4-46 7.475-2.237 11.244-11.222 10.927-18.406-.02-10.723-10.502-18.94-20.644-19.492-9.75-1.1-23.846 4.079-25.383 17.316-.975 5.035.708 11.07 3.312 14.87 3.621 3.878 1.245 9.776-.282 14.349-2.226 8.293-6.5 17.614-7.93 25.363-16.656-6.531-33.799-12.985-52-13-3.1-8.972-4.622-20.535-8-28.5 9.26-5.152 11.207-19.941 2-26.392-7.276-5.405-18.972-5.023-26.011-1.256-10.879 5.583-11.095 19.425-2.274 25.889 1.174.836 2.232 1.79 3.285 2.759-3.363 9.51.292 20.808-3 30.5-24.613 5.905-46.737 21.379-63.234 40.32-6.298 7.324-12.685 14.698-17.51 23.125-4.71 6.328-8.707 16.436-12.568 21.663-25.868 12.654-53.193 25.619-71.279 49.205-19.947 24.059-25.532 59.092-14.292 88.376 10.467 26.99 39.006 42.237 66.503 45.204 30.43 2.981 61.058-1.092 91.38-2.893 14.124 40.82 32.828 80.018 50.276 119.483 7.977 17.14 15.606 34.44 23.406 51.655 3.753 7.914 6.987 16.063 10.85 23.916 1.704 3.846 3.85 8.303 4.987 11.995.574 9.187-2.618 18.308-2.966 27.455-2.67 17.695-1.586 35.518-1.553 53.26.4 69.625-.726 139.27.979 208.867 2.2 50.28 1.71 100.643-4.638 150.63-1.133 8.945-2.213 17.915-4.35 26.675-3.366 15.51-16.658 28.482-15.865 45.27-.21 7.989 12.045 9.344 17.384 10.231 14.715 2.438 29.768 1.209 44.604 1.563 11.543-.114 25.82-1.132 35.289-6.412 4.986-2.68 7.139-7.724 6.592-13.105.713-83.853 3.412-167.771 7.505-251.483 8.171 35.505 16.604 70.974 22.155 107.006 4.345 27.496 8.325 55.336 5.501 83.25-.683 20.513-4.928 40.493-9.502 60.385 5.918 31.954 41.252 43.595 66.379 47.178 30.532 4.67 61.652-4.801 84.967-24.819 12.52 15.811 32.375 22.906 51.732 25.105 19.728 2.479 44.26-.046 60.768-8.105 1.426 32.178-.26 64.703.5 96.941v86.766c-.307 3.28.976 10.415-3.006 10.838-63.574 1.297-127.384-.235-190.994.455 1.55 10.566 6.455 20.428 8 31h129v2c-26.535 59.414-59.99 116.165-104.5 164-1.426-33.845.26-68.081-.5-102 7.624-.591 16-4.842 21.891-8.314 2.817-2.09 6.831-4.979 6.626-8.305-1.231-3.209-5.84-4.9-8.042-7.275-8.025-5.97-15.976-12.03-24-18-13.472-9.921-26.731-20.163-40.05-30.267-6.605-4.059-14.368-12.083-20.52-14.194-3.8-.441-6.942 6.433-9.88 7.83-2.964 3.028-6.043 5.939-8.921 9.04-6.335 7.575-13.534 14.35-20.474 21.355-3.322 3.175-6.69 8.136-12.604 8.092-5.349.1-10.678-.012-16.026.038v-64c9.883-.934 18.78-9.862 18-20-35.101-1.958-69.932-7.661-105-10v94h-26v-64c10.348-.67 19.444-9.304 19-20-35.102-1.816-69.922-7.844-105-10v94h-27v-96h332.4c12.818-.417 26.893 1.91 38.649-4.626 4.493-2.366 8.032-7.808 8.458-12.407-.135-4.436-7.377-7.862-9.633-10.875-27.508-24.395-56.692-46.928-85.833-69.323-3.877-2.109-7.404-7.384-11.481-7.275-6.02 3.693-10.18 12.891-15.321 17.718-13.957 18.785-30.075 36.596-43.239 55.788h-8v-88c13.588-2.855 33.903-6.86 34-28-55.378-3.513-110.557-10.504-166-13v129c-16.818-.01-33.632.012-50.44-.006-11.823-.4-22.343-7.299-33.575-10.21-16.139-6.016-32.31-12.04-48.524-17.838-7.964-2.988-16.004-5.678-23.875-8.877-8.054-1.613-16.61-7.678-23.586-7.569-1.555 2.716-.668 7.158-1 10.696v360.449c-.522 88.619 1.759 177.456-5.27 265.883-4.326 61.727-12.708 123.586-31.94 182.616-1.806 5.613-3.137 11.386-5.561 16.786-1.416 4.765-4.2 10.108-3.781 14.63.74 2.363 4.229 3.808 5.567 5.11 4.921 4.68 9.165 3.298 13.087-1.272 27.73-27.11 50.589-59.004 69.102-92.962 13.805-26.61 24.445-54.731 33.834-83.13 27.766-91.955 31.009-189.06 30.962-284.306m95-1267c16.015 45.185 35.244 89.32 54.93 133.01 8.294 19.241 17.51 38.039 25.754 57.292 8 17.832 16.26 35.563 24.094 53.46 1.674 4.783-.738 9.805-1.182 14.614-2.61 18.691-6.096 37.553-5.303 56.515.612 17.411 4.956 34.874 14.494 49.62 7.804 13.947 18.865 25.542 29.05 37.678 9.916 10.75 21.31 20.837 26.617 34.713 10.244 27.207 16.25 55.838 23.28 83.977 11.618 50.397 21.374 101.45 23.15 153.258.243 19.654-2.268 39.159-5.342 58.495-1.713 7.313-5.532 16.645 4.591 21.333 13.276 7.254 32.44 7.316 45.474 3.826 6.248-2.178 12.366-4.925 17.575-9.059 3.893-3.735.832-11.86 1.381-17.952-6.23-98.6-22.771-199.572-1.563-297.78 15.275-.398 30.228-4.05 45.237-6.377 7.417-1.82 14.95-3.152 22.333-5.05 7.25-1.69 15.557-5.197 22.43-5.573 6.998 27.64 13.345 55.534 18.274 83.621 2.048 12.868 4.546 25.679 5.82 38.653 1.026 11.577 3.62 25.696.61 36.234-11.372 41.53-25.964 82.109-37.193 123.663-3.407 16.012-9.007 31.759-11.045 48.021-.46 3.816 3.658 5.222 6.28 6.696 12.65 6.89 27.453 8.104 41.541 6.81 11.369-1.408 27.067-6.78 26.901-18.067 1.243-10.536 2.49-21.06 3.81-31.578 1.683-9.18 2.06-20.226 3.593-28.623 23.284-59.444 49.225-119.589 55.574-183.82 1.176-11.294 1.528-22.638 1.952-33.977.856-6.862 10.402-11.705 14.367-18.442 14.34-17.452 27.865-36.139 36.045-57.332 16.984-50.628-2.178-111.446-44.718-143.238-21.004-16.545-47.376-22.137-73.192-25.85-27.676-5.044-56.463-1.832-83.729-9.569-6.46-1.907-16.536-2.604-20.525-6.95-6.54-11.72-11.94-24.12-19.919-35.005-6.818-10.192-17.538-16.335-27.445-23-16.732-12.068-34.25-23.023-50.94-35.143-13.502-8.027-22.469-21.067-30.742-34.143-12.182-19.718-23.925-39.873-33.001-61.261-5.18-11.016-9.42-22.494-13.543-33.927-3.474-11.029-8.404-24.031-8.775-34.773 11.457-.78 23.834-7.355 32.995-11.972 14.949-8.084 28.887-18.318 40.85-30.412 6.054-6.36 11.51-13.381 15.04-21.46 4.966-7.853-7.744-14.602-12.743-18.546-22.984-16.122-52.683-22.408-80.311-17.66a67.8 67.8 0 0 0-17.557 5.14c-4.397 1.593-9.856 6.27-13.424 2.979-22.656-27.285-62.89-42.61-97.043-29.434-14.83 6.683-30.153 18.665-39.192 30.583-7.621 9.705-13.256 20.767-19.4 31.404-4.237 9.738-14.163 10.778-22.557 15.553-23.837 13.308-50.668 28.832-61.167 55.868-4.589 13.487-.982 29.711 10.162 38.97 8.603 6.957 20.183 8.856 30.89 8.979 35.556.083 70.978-3.1 106.457-4.992m-110.933-44.231c-.687 6.603 3.728 10.027 9.38 9.087 7.02-.106 12.73-4.717 16.902-9.895 3.277-3.634 4.282-8.86 3.213-13.556-1.174-5.574-7.608-5.853-11.711-4.942-8.685 1.62-17.964 11.804-17.784 19.306M1147 2107c8.2-.64 18.447.96 25.753-.96 2.66-7.552.249-18.445 1.247-26.353V1946h-27zm71-1356c-.174 6.587-.092 15.354 6.739 20.664 2.296 1.528 4.801 2.683 7.358 3.678 2.826 2.79 1.376 9.188 4.08 13.07 2.506 6.341 6.85 12.25 12.96 15.491 6.644 3.208 15.921 2.309 22.038.15 19.923-9.079 20.974-41.327 3.583-53.348-8.667-6.357-17.856-4.24-27.572-2.973-9.468.818-20.463 3.121-29.186 3.268m68 1356v-161h-26v152c.267 2.644-.313 6.298 1.307 8.1 7.958 1.815 16.575.285 24.693.9m-21 344c17.678-3.043 35.08-8.012 52.657-11.61 6.027-.678 5.442-6.13 5.343-10.353V2324h-29.4c-9.34 1.077-19.495-1.41-28.6 1zm21.333-1568.512c1.738 12.756 10.136 31.47 27.48 24.975 4.99-1.632 10.094-5.407 10.92-10.905.608-5.518-1.265-10.961-3.275-15.989-2.086-4.074-4.675-8.145-8.624-10.67-4.921-2.814-10.266-1.644-15.412-.14-5.112 1.33-11.336 5.508-11.09 12.73m13.727 67.3c.614 11.48 7.248 23.61 12.803 31.924 2.965 4.43 6.534 9.169 11.966 10.519 5.474 1.158 13.197-.934 17.194-2.863 16.886-8.599 3.362-30.962-2.407-40.844-2.683-4.241-5.535-8.443-9.06-12.04-3.918-3.951-10-3.95-15.185-3.08-6.65 1.675-15.401 6.948-15.31 16.384m21.407-116.296c.255 7.278 4.68 12.987 9.946 17.306 4.11 4.341 13.277 7.587 17.907.767 3.198-7.354.61-17.643-2.113-24.024-4.416-10.902-16.593-5.871-21.917-.279-1.446 1.721-3.893 4.112-3.823 6.23M1426 752c-11.122-5.59-22.528-12.554-35.56-12.997-9.846-.883-19.928-.66-29.586 1.802-6.676 1.765-14.6 4.722-19.618 8.727-8.33 6.522-7.697 23.498-1.79 29.33 7.164 8.435 21.51 7.463 31.085 6.222 20.238-3.734 41.462-17.775 54.886-30.514.355-.815.435-1.71.583-2.57m-84.984 283.886c-.07 9.522 5.753 19.46 11.159 25.678 6.682 8.927 15.412 10.731 25.206 9.309 9.17-.741 17.845-4.809 25.057-10.32 7.445-5.716 4.068-19.804 1.696-26.203-3.382-7.833-8.565-17.042-14.813-21.994-7.958-5.465-18.301-3.384-26.44.5-9.85 4.28-22.435 12.624-21.865 23.03m5.045-118.032c.803 12.927 11.218 27.75 16.665 36.163 3.995 5.552 7.931 11.314 13.598 15.362 6.06 4.75 15.893 1.267 16.892-6.475 1.655-8.343-2.964-17.827-5.999-24.457-3.574-7.36-7.359-14.67-12.144-21.334-3.298-4.627-9.063-13.663-17.236-11.646-5.852 1.183-11.934 6.656-11.776 12.387M1433.5 1189c-9.226-9.232-22.097-17.897-32.517-23.667-17.057-8.87-24.138 12.801-28.077 24.126-2.598 8.78-4.663 19.742-3.481 28.135 1.122 4.755 5.753 7.184 9.485 9.651 3.543 2.212 7.156 4.336 10.9 6.163 14.068 7.142 28.797 13.234 44.2 16.826 16.6 3.168 33.069-6.129 44.226-17.717 13.245-12.813 14.478-28.888 9.406-44.57-1.875-4.957-4.864-10.8-8.624-14.001-8.033-5.823-17.659-.445-24.51 2.81-7.614 2.955-14.036 8.317-21.008 12.244m-60.5 918h29v-161h-29zm9.012-993.116c-.672 13.168 15.246 20.712 25.042 24.233 16.81 2.928 28.62 23.794 50.826 16.374 8.029-3.016 16.257-9.59 20.685-16.025 5.508-8.917 2.362-18.106-2.135-26.479-6.55-11.243-15.657-21.264-26.803-28.088-13.302-8.56-26.238-6.433-38.733-.229-12.395 5.862-29.081 16.749-28.882 30.214m39.2 166.6c.329 13.31 13.279 19.784 20.748 27.025 6.102 5.64 14.737 11.365 17.946 18.596 5.231 10.821-10.484 26.142 3.945 36.894 4.689 3.452 12.185 5.86 17.482-.315 3.942-4.85 6.132-10.881 7.702-16.848 3.142-12.469 2.582-28.325-1.474-39.365-4.517-10.86-14.391-21.525-23.872-26.721-10.023-6.016-24.37-8.462-34.906-7.425-4.374.494-7.866 4.15-7.57 8.159M1492 2401h14c2.381 20.974.986 42.484 3.738 63.37 7.714 5.252 18.018 8.311 23.334 16.861 6.37 8.16 6.23 19.116 6.428 28.769 16.765-30.952 30.892-63.278 42.5-96.5-4.77-1.226-9.886.223-14.685-1.013-7.99-1.395-15.283-5.244-21.582-10.18-4.393-3.57-10.589-8.037-10.467-13.326 3.06-18.73 6.071-37.968 2.234-56.981-10.383 16.213-22.793 31.189-35.424 45.693-9.43 11.564-20.13 22.004-31.202 31.944-4.487 5.543-9.555 3.393-14.23.184-2.24-1.01-4.339-2.261-6.324-3.694-1.63-1.383.282-4.544.634-6.133 14.289-30.976 28.432-62.166 38.046-94.994-22.475 5.787-45.246 11.481-68 16 .017 45.089-.02 90.165.011 135.238.161 4.407-.092 10.674 6.139 12.266 9.447.877 20.838.405 29.519.123 12.697-2.32 17.176-19.531 21.536-29.175 3.863-12.62 11.067-26.644 13.795-38.452m-69.933-1394.275c.127 8.37 5.08 15.3 9.273 21.815 6.256 9.151 14.338 19.713 22.426 25.998 9.057 7.973 20.529 11.97 32.295 13.775 8.498 2.123 23.011 4.29 23.775-6.637.9-8.064-5.867-13.384-10.626-17.812-16.017-12.09-30.239-26.514-46.933-37.707-6.6-4.243-14.276-8.095-22.387-7.776-1.677.757-5.605.538-6.497 2.621-.928 1.476-1.395 3.199-1.326 5.723m78.026 102.52c-.078 7.17 5.705 10.103 9.28 15.131 6.978 10.685-3.223 20.952-6.545 29.44-2.435 8.202 1.264 16.513 4.296 23.927 2.513 5.04 5.866 11.813 10.656 14.303 9.556 3.537 16.375-6.94 21.312-12.848 4.916-7.067 9.18-14.659 12.235-22.74 5.607-15.433 2.286-35.486-2.451-49.154-2.478-8.062-9.557-9.608-16.501-10.264-7.096-.987-14.493-1.725-21.495.253-4.912 1.257-10.928 4.99-10.787 11.953m4.375 582.194c.09 4.527 4.27 9.046 6.051 13.586 18.987 35.888 28.664 76.533 28.578 117.034.033 5.035 5.837 7.994 9.347 10.735 13.567 9.447 30.127 15.945 47.007 13.657 16.529-.986 32.478-8.335 42.895-21.334 22.166-25.422 16.657-66.803-8.216-88.487-22.508-24.199-54.275-36.561-85.29-45.173-5.87-1.446-11.686-2.986-17.578-4.314-5.741-.992-12.019-3.237-17.737-.82-1.858 1.12-5.234 2.422-5.086 4.325.01.183.02.398.029.791m5.552-439.553c-.199 15.278 14.223 31.28 29.727 28.36 18.999-3.13 31.523-19.5 45.82-30.406 6.948-5.81 15.867-9.001 22.375-15.349 5.418-4.906 7.461-12.691 5.452-19.76-11.011-20.863-39.961-21.067-56.517-12.54-10.073 6.018-19.089 13.571-27.827 21.332-7.962 7.953-19.498 17.562-19.03 28.363m28.98 821.489c9.652 4.32 21.102 4.939 31.198 8.178 32.382 6.803 64.268 16.575 96.802 22.447v-114h-1.5c-38.764 32.352-82.28 59.357-126.5 83.375M1558.5 1539c9.316-32.153 20.538-63.908 30.472-95.9 1.12-4.216 3.091-8.372 2.636-12.848-2.148-30.502-10.152-60.146-14.608-90.252-7.445.825-16.239 1.859-23 3-4.991 65.062-5.092 131.353 4.5 196m7.5 747.625c13.936 7.918 29.345 14.272 40.5 26.375 5.572-27.587 9.653-55.927 12.5-84-6.783.287-13.598-.373-20.36.26-4.181.221-5.673 6.14-7.664 9.794-5.824 11.863-12.406 25.904-18.389 36.46-2.252 3.737-4.203 7.661-6.587 11.111m9.003-1130.218c-.64 13.934 14.158 19.768 23.736 23.005 7.563 2.078 18.74 4.3 27.214 1.325 8.953-5.8 6.914-17.876 5.702-25.772-2.851-13.795-10.958-28.672-19.016-38.615-4.122-4.738-10.156-9.937-15.827-9.901-4.447-.547-7.52 6.1-9.455 8.913-6.21 12.272-11.888 28.115-12.354 41.045m62.337 80.046c1.443 17.003 1.703 34.29 7.81 50.345 1.503 3.854 3.42 8.399 7.737 9.612 5.83 1.723 13.069-3.652 17.177-6.111 5.023-3.442 9.672-7.41 13.919-11.76 5.59-5.188 12.815-11.67 14.576-18.845 1.149-8.526-1.32-18.562-1.75-26.316-1.18-8.628-2.336-17.294-3.999-25.838-2.055-7.606-2.77-19.4-9.114-23.086-13.283-1.777-25.582 7.455-33.265 17.297-8.858 9.38-12.494 22.015-13.09 34.702m12.666-107.124c-.31 7.635 1.79 15.454 7.623 20.461 5.235 4.475 13.523 6.03 19.618 6.183 7.062.2 16.25-1.663 20.723-6.84 5.078-6.18 3.332-15.74-2.966-20.289-9.848-7.775-22.73-9.905-34.885-9.836-2.586-.006-6.064-.1-8.126 1.943-2.2 1.867-1.945 5.807-1.987 8.378m3.34 214.145c-.018 8.616 11.578 16.401 6.685 26.049-7.971 11-5.296 32.617 7.23 36.77 15.844 5.006 21.842-17.752 24.306-27.853 2.4-12.125 3.11-24.48 3.387-36.793-.03-6.892.022-15.199-1.793-21.327-2.737-9.128-11.35-5.85-16.893-1.96-8.869 6.387-21.536 15.014-22.923 25.114m51.69-162.613c.85 17.1 5.62 33.621 12.45 49.015 3.165 6.72 8.16 16.57 18.117 12.014 6.642-3.863 11.764-11.919 14.907-17.963 7.575-14.379 5.814-31.908-4.574-44.36-5.862-8.244-13.907-17.418-27.172-13.435-6.432 1.138-14.461 5.786-13.729 14.73M1825 2452v-223c-7.1.699-17.36-1.032-23 1v213.996c.323 2.315-.202 5.726 1.436 7.177 6.965 1.589 14.457.341 21.564.827m165-718c-48.9-17.761-96.981-38.685-146-56-9.775 50.336-21.748 100.313-35.72 149.646-.62 2.534-1.655 5.275-.538 7.72 1.517 2.437 5.21 3.93 7.055 5.153 8.514-2.082 18.305-10.128 27.636-14.666a1756 1756 0 0 0 81.108-51.196c5.736-3.778 11.388-7.665 16.907-11.733 4.025-2.764 8.67-6.443 12.619-8.454 7.976-.78 16.481.346 23.8-3.948 5.857-2.733 13.598-7.822 13.133-16.522" style="fill:#fff;fill-rule:evenodd;stroke:none"/><path d="M327 2802.5c390.66 1.426 782.125-.26 1172.95.5 390.946-.76 782.184.926 1173.05-.5-79.284-468.283-156.02-937.69-234.792-1406.201-29.222-176.024-58.731-352.018-88.16-527.994-12.796-76.829-25.59-153.676-38.409-230.5-5.977-36.02-12.025-71.992-18-108-2.928-17.508-5.855-34.99-8.745-52.497-.795-4.678-1.595-9.35-2.358-14.018-.403-5.813-4.632-7.44-9.23-8.351-136.155-45.374-272.297-90.765-408.44-136.14-118.995-39.696-238.006-79.344-356.998-119.005-7.36-3.594-13.268-1.406-20.008 1.408-103.34 34.51-206.696 68.878-310.033 103.355a1093431 1093431 0 0 1-271.561 90.514c-39.662 13.232-79.311 26.454-118.969 39.67-18.676 6.196-37.335 12.443-55.998 18.654-3.991 1.804-9.7 2.485-12.774 5.267-95.938 570.136-190.308 1140.76-285.634 1711.041-35.77 210.46-69.684 422.872-105.891 632.797m818-665.5h258v25c25.62.943 51.364-2.557 75.196-12.481a122.5 122.5 0 0 0 16.093-7.19c3.847-2 9.163-4.783 9.445-8.96.759-14.758-.138-29.601.266-44.369 58.358-26.917 113.614-61.403 163.5-102 1.426 39.462-.26 79.434.5 119-42.617-10.797-86.118-19.696-128.5-31-.45.458-.96.911-1.5 1.25-5.276 61.016-17.15 121.866-33.5 180.75-14.1-13.313-29.824-24.791-44-38-13.38 16.273-26.176 33.103-40 49-1.422-22.483.256-45.426-.5-68 14.494-.807 28.983-11.013 31-26-42.392-3.097-84.618-8.807-127-12-.76 39.903.926 80.209-.5 120-11.824-14.637-26.124-31.474-38-44-3.961 5.344-6.42 11.709-10.094 17.248-2.637 5.903-7.771 12.016-9.406 17.752h-2v-60.6c.7-4.677-1.16-11.173 1.406-14.6 5.851-2.302 12.862-3.019 17.904-7.421 5.03-3.545 8.561-10.842 8.69-16.379-41.06-3.099-81.954-8.758-123-12v311c-11.177 2.38-22.46 4.51-33.609 7.012-10.994 2.615-24.505 3.31-34.391 6.488 12.159 20.986 23.59 42.49 35.608 63.568 10.752 21.302 24.477 41.267 34.392 62.932 8.782-2.088 16.575-7.89 20.836-15.748 2.174-3.693 3.604-7.75 5.569-11.532 20.44-22.18 42.808-42.441 63.697-64.322 21.896-21.121 41.734-44.146 62.398-66.398 1.517 23.43-1.87 47.817 5.207 70.8 2.858 16.186 15.157 29.245 31.46 32.231 26.131 6.193 53.44 3.08 79.986 3.931 24.974-1.093 51.146-3.032 73.528-15.358 2.355-1.26 4.996-2.975 6.819-4.604-9.394 15.337-24.245 32.247-35.446 44.49-12.491 14.805-27.811 26.825-42.054 39.823 2.064 4.834 5.92 11.219 8.5 14.687 35.252-19.689 69.532-41.954 99.306-69.49 44.947-41.975 80.345-93.195 106.261-148.813 25.56-58.075 43.789-119.89 52.933-182.697 3.659-.446 7.317-.98 11-1v141.6c-1.089 23.475 1.328 47.381-.717 70.726-1.402 2.215-5.984 1.211-8.036 1.674-20.346.74-40.982-.907-61.247.5 2.441 4.05 2.765 10.779 4.985 15.92 1.708 3.852 1.933 11.857 6.542 12.224 38.989 1.015 78.095-.184 117.1.356H1826v158c15.735.1 31.657.747 47.14-2.588 10.971-2.331 21.682-5.631 31.964-10.08 6.976-3.268 15.365-7.137 20.86-11.664 5.771-2.886 3.512-13.314 4.036-18.128V2482h39c12.422-1.028 42.372 4.974 46.992-15.416 1.134-3.963-5.267-7.1-6.938-10.074-8.54-9.316-17.117-18.703-26.57-27.128-10.765-8.604-18.977-20.066-29.984-28.382-8.497 9.468-13.827 21.324-22 31-1.233-66.235.024-132.893-.373-199.208-.19-4.958 5.34-5.076 8.616-4.792h47.004c9.357.414 22.854-.786 26.81-12.597 1.908-6.442-7.307-12.067-11.059-18.224-8.232-8.147-16.091-16.794-24.818-24.413-4.5-3.625-8.15-8.23-12.71-11.787-4.568-2.946-8.101-9.393-12.97-9.979-5.233 10.644-14.677 21.807-20.5 31-1.392-16.274.224-33.032-.497-49.412-1.294-9.645 9.117-8.202 15.041-11.663 6.336-3.129 10.772-9.81 10.956-16.925-43.42-2.867-86.616-8.64-130-12v107h-97.8c-3.93-.08-8.145.521-11.427-1.87A5106 5106 0 0 1 1660.5 2150c-8.551 8.94-16.644 18.292-25.733 26.733l-13.137 13.137c-4.325 3.938-8.702 10.739-14.63 8.63 7.614-17.44 13.992-35.817 19.714-53.998 1.606-4.413 2.805-10.174 5.575-13.591 12.391-2.76 27.903-2.856 35.211-18.911.363.976.517 1.967.5 3 36.975 1.19 74.689-2.723 108.698-18.493 6.761-3.176 17.055-7.407 16.302-17.225v-89.37c.76-33.242-.926-66.748.5-99.912 11.469 38.173 24.748 76.148 44.877 110.78 9.672 16.611 20.425 32.768 33.619 46.84 11.171 12.662 27.187 28.824 43.004 38.38 5.646-26.482 14.832-52.764 30.212-75.263 7.597-10.696 18.458-21.87 28.513-28.577 5.52-3.512 11.268-6.698 17.302-9.187 2.617-1.356 7.252-1.982 7.856-4.89 1.315-3.175 1.032-6.747 1.117-10.083-30.956-3.915-61.088-13.448-90.32-23.982-28.11-11.149-55.805-24.759-79.68-43.518 29.877-1.426 60.258.26 90.231-.5 15.18-.006 30.363.008 45.534-.004 11.856.396 30.586-1.729 33.235-17.996-16.758-11.908-31.742-27.593-48.825-39.442-16.271-13.218-33.15-25.7-49.675-38.558-14.159 16.728-27.332 34.305-41.267 51.221-3.58 4.341-6.977 8.823-10.587 13.124-2.916 3.458-8.651 2.542-12.717 2.655H1793v-164c15.056-2.917 36.07-6.273 38-29-49.534-5.092-99.489-8.824-149-13.5 7.833-7.635 14.596-16.958 17.426-27.694 3.576-20.234 3.813-41.023 7.592-61.208 20.995-56.13 43.858-112.408 54.482-171.598 8.691 18.33 21.03 40.686 20.5 59.963.607 39.52-.68 79.547-12.053 117.722-3.674 14.166-9.684 28.223-8.843 43.088 1.218 5.52.627 15.121 5.251 17.809 22.78 6.249 51.57 3.313 72.303-1.518 9.081-1.776 9.889-14.206 11.218-21.698 3.783-32.98.853-66.308 3.085-99.361.927-15.926 2.16-31.86 3.618-47.741.409-15.132 4.787-33.804.21-47.374-3.818-10.823-11.05-20.064-16.365-30.127-5.784-10.232-11.762-20.398-16.602-31.12-9.978-20.43-9.545-48.475-8.322-68.643 10.997 15.319 22.318 30.388 35.736 43.733 6.128 5.812 12.715 11.113 18.854 16.897 2.794 2.722 6.678 4.793 8.037 8.656 8.303 30.088 20.486 59.213 25.774 90.14 2.936 10.703 2.258 26.859 10.955 32.832 9.16 5.323 17.078-10.756 19.617-16.183 15.133-31.792 20.863-75.76 10.446-106.809-5.254-16.719-17.671-30.817-33.79-37.678-4.27-2-8.877-3.053-13.38-4.37-3.243-.822-6.802-.739-9.513-2.82-6.926-6.448-11.852-14.816-17.918-22.013-7.728-10.725-15.08-21.693-21.292-33.383-11.55-21.01-21.62-42.964-29.841-65.486-9.188-47.096-36.2-92.39-78.306-117.09-21.777-13.554-47.853-16.47-72.355-21.616-13.001-2.742-26.173-4.736-39.453-5.211-13.395-.166-26.818-.313-39.869-3.665-6.849-.438-9.432-5.103-11.634-10.475-5.38-9.083-10.978-18.086-17.764-26.215-5.628-7.41-14.031-11.876-21.424-17.303-13.428-8.917-26.46-18.43-39.92-27.284-9.086-6.795-22.841-14.615-29.09-21.747-10.975-13.972-19.934-29.48-28.036-45.233C1433.42 875.63 1423.14 859.174 1418 841c23.995-9.4 45.065-26.165 60.381-46.868 7.555-10.124 13.899-21.168 18.36-32.995 2.34-6.839 4.627-13.786 5.52-20.98 1.641-7.504-2.437-12.172-6.91-17.231-12.21-16.447-30.413-26.75-48.382-35.534-20.123-8.99-42.034-14.759-64.182-14.392H1362c-.7-16.048-3.566-31.93-4-48 7.323-2.214 11.325-11.132 10.815-18.27-1.072-9.921-11.077-16.99-20.523-17.624-9.4-1.208-22.717 6.188-23.31 17.429-1.665 6.345 2.734 12.77 7.018 16.965-5.8 12.077-6.9 26.71-13.5 38.5-16.01-8.493-34.468-13.018-52.5-14-1.435-10.23-7.652-22.386-6.924-30.926 6.81-4.975 9.58-14.906 3.803-21.304-7.855-9.04-24.311-8.9-32.016.273-4.013 4.482-4.44 11.323-.653 16.071 1.505 1.911 3.931 4.1 5.94 6.142 1.091 1.88-.813 5.966-.277 8.113-.622 7.957-.18 17.47-1.873 24.631-24.758 5.995-47.066 21.575-63.581 40.74-6.275 7.332-12.655 14.739-17.435 23.177-4.928 6.06-8.366 16.863-12.817 21.45-25.899 12.602-53.041 25.749-71.08 49.334-19.705 23.894-25.267 58.752-13.33 87.56 11.038 26.621 39.978 41.043 67.234 43.755 30.026 3.324 60.1-1.945 90.009-3.016 14.207 40.964 32.905 80.307 50.479 119.89 7.953 17.336 15.793 34.75 23.602 52.142 3.77 7.9 7.046 16.012 10.869 23.879 1.833 3.981 3.52 8.06 5.137 12.107-1.095 16.675-5.726 35.04-5.13 52.292.833 71.903-.893 144.012.525 215.939 1.68 52.643 3.24 105.467-2.614 157.918-.806 9.287-1.799 18.537-3.21 27.743-1.312 16.716-11.614 33.532-16.7 47.734-2.487 6.082-3.943 15.323 5.647 17.64 14.777 4.59 30.35 3.852 45.56 3.716 12.851-.078 26.298.324 38.514-4.512 13.67-4.98 10.049-17.035 10.321-28.604.623-41.035 1.737-82.042 2.797-123.051.654-19.984 1.598-39.963 2.116-59.953.01-9.953.77-19.847 1.303-29.78.201-5.074.408-10.14.606-15.211.486-4.317-.548-10.816 1.678-13.889 8.6 36.103 17.09 72.562 22.875 109.295 4.355 27.803 8.63 55.954 5.96 84.197-.628 20.726-4.497 41.017-9.266 61.102 4.54 31.743 41.489 43.816 65.964 47.226 15.855 2.414 32.077 1.19 47.192-4.403 7.157-2.305 13.786-5.892 20.43-9.339 6.24-3.05 10.82-8.857 16.845-12.078 12.01 16.501 32.29 23.576 51.643 26.023 21.06 3.64 42.141-1.403 61.857-8.023-.729 64.92.889 129.987-.48 194.848-1.667 3.47-8.56 1.412-11.296 2.152-60.688.76-121.615-.926-182.224.5 3.086 8.963 6.036 20.016 8 28.5h130c-25.369 62.25-61.912 120.552-107.5 170-1.426-35.166.26-70.752-.5-106 10.508-1.197 22.966-7.413 29-15-30.302-23.809-61.946-46.433-92.5-70-10.54 9.749-20.022 20.49-29.87 30.87-5.188 4.618-10.38 11.154-15.53 14.919-6.546 2.52-16.2.305-23.1 1.211v-66c8.99-.614 18.331-9.496 18-18-34.41-2.327-68.649-7.04-103-10v94h-28v-66c9.676-.66 18.207-8.162 19-18-34.408-2.23-68.637-7.172-103-10v94h-29v-98h343.2c12.748-.071 30.856 1.255 36.8-16.605-33.27-31.184-70.092-58.416-106-86.395-10.38 11.695-19.357 24.827-29.446 36.827-8.973 12.63-20.316 24.18-28.554 37.173h-10v-90c13.13-3.032 32.142-6.12 34-26-54.697-3.631-109.253-10.165-164-13v129h-50.4c-12.03.28-22.741-6.362-33.97-9.643-31.5-12.12-63.873-22.851-95.13-35.357-3.14 4.914-.36 13.6-1.5 20.098v326.97c-.914 81.084 1.684 162.332-2.312 243.351-3.13 56.284-7.694 112.814-18.705 168.167-4.62 20.371-9.17 40.82-15.9 60.633-2.582 8.902-5.455 17.697-8.842 26.313-.5 1.609-1.403 3.336-.474 4.885 2.626 3.187 6.651 4.828 9.964 7.087 3.423.137 6.095-4.539 9.002-6.737 21.037-21.042 39.265-44.957 54.91-70.221 49.345-80.115 66.781-174.892 73.235-267.2 2.408-40.062 3.188-80.217 3.122-120.346m95-1265c16.072 45.38 35.414 89.69 55.179 133.574 8.361 19.123 17.394 37.987 25.7 57.128 7.756 18.074 16.634 35.7 24.072 53.884-4.2 36.437-14.86 77.943 3.904 113.052 7.554 13.94 17.038 26.786 27.744 38.47 5.133 5.816 10.263 11.595 15.462 17.333 5.007 5.188 10.838 9.942 13.546 16.852 11.51 26.966 17.325 56.081 24.61 84.348 11.582 50.87 22.521 102.39 24.451 154.708 1.12 20.453-2.306 40.816-5.068 60.95-.993 7.655-5.707 17.065 1.458 21.67 13.045 8.867 33.255 9.541 46.949 6.788 6.517-1.601 13.694-5.032 18.857-8.314 6.745-3.608 4.414-10.21 4.054-16.668-6.004-99.609-23.53-201.549-1.918-300.775 30.046-1.197 59.13-9.706 88-17 6.998 27.64 13.345 55.534 18.274 83.621 2.048 12.868 4.546 25.679 5.82 38.653.964 11.829 3.789 24.283.11 35.946-11.372 41.513-26.133 82.04-37.157 123.647-3.2 16-9.182 31.661-10.77 47.953.068 3.503 2.973 5.48 5.999 6.824 12.689 7.244 27.513 8.11 41.721 7.247 10.967-1.342 28.101-5.554 29.001-16.566 1.35-10.542 2.471-21.109 3.813-31.637 1.403-9.519 2.224-19.088 3.389-28.616 22.606-59.747 49.403-119.561 55.86-183.918.965-11.43 1.84-22.88 1.974-34.35.099-7.183 9.442-12.251 13.742-18.765 14.51-16.987 29.57-38.889 36.753-58.18 17.187-51.355-1.672-113.396-45.144-145.542-21.442-16.693-48.338-22.115-74.573-25.85-28.045-4.516-57.1-1.503-84.6-9.89-6.719-1.814-16.22-2.5-19.099-8.401-6.144-11.801-12.013-23.86-19.938-34.608-6.936-9.863-17.987-15.363-27.461-22.272-16.587-11.633-33.572-22.739-50.087-34.472-13.125-7.94-21.917-20.63-30.005-33.408-12.03-19.65-23.883-39.591-32.886-60.87-9.407-20.93-19.418-46.658-22.736-67.546 19.631-1.92 39.686-15.509 54.073-25.32 16.184-11.91 31.418-26.71 37.927-46.18-31.679-31.353-85.435-43.262-125.5-20.5-17.6-21.055-43.607-35.24-71.28-36.662-27.181-.456-53.223 15.215-69.214 36.692-6.872 8.692-11.814 18.67-17.432 28.154-2.173 3.653-3.793 8.926-8.844 11.04-16.865 7.416-33.179 16.181-47.76 27.513-19.213 14.46-43.722 42.342-22.772 71.858 9.636 11.468 25.44 13.966 39.532 13.405 15.766-.406 31.578-.49 47.312-1.405 18.29-1.618 36.662-2.114 54.958-3.595m-108.857-45.02c-.325 5.497 3.623 8.522 8.398 7.757 6.24-.408 11.276-4.44 15.133-9.004 3.138-3.204 4.93-7.855 3.895-12.331-1.067-5.45-7.3-5.9-11.244-4.563-7.667 2.23-16.207 11.302-16.182 18.141M1146 2108c8.854-.733 19.861 1.054 27.757-.963 2.323-3.717.572-9.742 1.243-13.8V1945h-29zm73-1356c-.343 6.997 1.165 15.138 7.588 19.237 2.069 1.559 4.862 1.973 6.923 3.479 2.284 2.96 1.058 8.915 3.665 12.696 2.419 6.085 6.506 11.623 12.126 15.053 6.354 3.738 15.514 2.8 21.447.375 19.471-9.357 20.197-40 2.567-51.453-8.635-5.852-17.223-3.758-26.044-2.552-9.45.813-18.772 2.974-28.272 3.165m68 1356v-163h-28v154.635c.346 2.439-.323 6.512 1.81 7.72 8.6 1.385 17.516.12 26.19.645m-23 344c8.993-.443 17.667-3.624 26.505-5.122 6.53-1.66 13.15-2.904 19.693-4.46 2.66-.64 5.31-1.353 7.976-1.919 5.733-.494 6.64-4.706 5.826-9.268V2323h-30.6c-9.627 1.013-19.98-1.347-29.4 1zm23.472-1569.18c1.254 7.786 5.487 16.387 10.448 21.49 5.452 6.502 17.84 2.296 22.201-2.117 7.806-6.334.734-21.244-3.687-27.043-5.935-8.229-15.745-6.593-23.446-1.935-3.145 2.004-5.839 5.584-5.516 9.606m13.652 67.198c1.046 10.95 7.26 22.653 12.74 30.694 2.944 4.162 6.225 9.006 11.482 10.35 5.375 1.325 12.962-1.173 16.713-3.303 15.43-9.163 1.163-30.042-4.275-39.55-4.502-7.659-10.808-17.434-22.917-13.393-5.857 2.097-13.648 6.68-13.743 15.202m21.363-116.601c1.063 7.833 5.312 12.589 10.692 17.055 4.513 4.697 14.653 6.5 16.289-3.106 1.11-7.115-1.506-15.761-4.662-21.35-6.16-9.824-19.219 1.55-22.319 7.4M1425 753.5c-15.504-10.153-34.293-16.23-53.01-13.42-15.874 1.553-41.56 8.845-34.94 32.235 5.972 17.695 35.093 13.18 46.896 7.648 14.68-6.047 30.29-16.727 41.054-26.463m-82.934 282.27c.155 9.1 5.783 18.429 10.78 24.432 6.547 8.772 15.034 11.206 24.812 9.576 8.695-1.082 16.901-4.915 23.78-10.225 7.475-5.498 4.031-19.078 1.295-25.17-3.435-7.574-8.559-16.58-14.77-21.257-8.252-6.063-18.161-1.965-25.623 1.393-8.655 4.472-20.473 11.563-20.274 21.25m5.087-117.97c1.454 13.012 10.686 26.132 16.896 35.636 3.891 5.426 7.772 11.014 13.307 14.953 6.619 4.747 14.4-.22 14.914-7.234.707-8.146-3.329-15.956-6.715-23.037-3.471-7.229-7.42-14.2-11.983-20.786-3.873-5.309-8.945-12.529-15.882-10.573-4.984 1.276-10.517 6.587-10.537 11.042M1433.5 1191c-9.588-9.554-20.759-17.56-32.544-24.18-16.295-10.136-23.71 14.401-27.229 24.218-2.096 8.414-4.965 19.228-2.796 27.149 4.015 6.993 14.443 10.557 20.81 14.696 13.436 6.787 27.51 12.516 42.16 16.11 15.762 3.55 31.307-5.946 42.28-16.298 5.144-5.386 9.873-11.474 11.929-18.766 1.94-7.66.614-17.105-1.164-23.953-1.698-5.2-4.868-11.253-8.559-14.71-7.484-6.024-16.835-.338-23.308 2.703-7.863 3.168-14.552 8.596-21.579 13.031m-61.5 917h31v-163h-31zm11.06-994.23c-.226 12.467 14.836 19.277 23.887 22.979 16.197 2.78 30.673 23.95 50.554 16.511 7.982-3.308 16.444-9.87 20.549-16.681 4.893-8.792.89-17.182-3.442-25.078-6.864-10.907-15.915-20.896-27.236-27.29-13.19-8.147-25.812-4.788-37.696 1.485-11.109 5.85-26.319 15.768-26.616 28.074M1493 2402h12c.754 10.811 1.429 21.633 1.767 32.48.35 8.349.93 16.682 1.2 25.026-.7 6.97 4.735 8.82 9.996 11.042 7.195 3.859 13.934 9.328 17.212 17.038 3.51 7.96 2.993 16.606 2.825 24.914l.5 1.5c17.214-31.464 35.65-70.155 44.5-102-9.748.721-19.607-.266-28.23-5.279-5.874-3.556-11.511-7.677-16.176-12.728-3.917-3.785-1.333-10.334-.387-14.905 1.894-8.262 1.632-16.851 1.792-25.253.037-4.367-.165-8.741-.455-13.083-.4-3.53.007-8.08-2.044-10.752-20.823 30.279-44.923 58.209-72 83-4.468-3.597-11.6-4.856-15.5-8.5 16.43-31.993 29.363-65.995 41-100-5.158-.929-12.056 2.942-18.176 3.313-17.597 3.983-34.985 9.387-52.824 12.187.008 45.553-.01 91.095.006 136.635.046 4.32-.106 11.128 5.622 12.721 9.63 1.374 21.339.18 30.228.493 13.688-.929 18.963-18.876 23.169-28.922 3.935-12.756 11.191-26.994 13.975-38.927m-70.608-1121.285c.407 12.07 14.33 19.64 21.61 26.728 6.185 5.64 13.924 10.448 17.266 18.502 5.234 10.693-9.993 25.293 3.279 35.844 5.325 4.609 13.536 4.832 16.773-1.387 3.581-4.915 5.538-10.81 6.986-16.63 3.17-12.346 2.162-28.049-2.784-38.646-4.814-10.662-15.37-20.178-24.525-25.39-9.437-4.74-22.397-7.655-32.05-6.23-3.626.795-6.73 3.669-6.555 7.208m.752-273.706c.238 7.648 5.79 14.977 9.196 20.53 6.256 9.152 14.338 19.714 22.426 26 9.057 7.972 20.529 11.968 32.295 13.774 6.437 1.762 23.112 4.942 21.596-8.35-3.248-12.573-19.877-19.43-27.738-28.216-10.018-8.51-19.705-17.494-30.943-24.415-5.699-3.731-13.627-7.173-20.037-6.722-1.959-.161-4.104 1.538-5.568 1.726-.333 1.94-1.9 3.434-1.227 5.673m78.069 102.426c.155 6.725 7.16 9.891 9.873 15.172 5.885 11.099-3.264 21.15-7.093 29.727-2.543 7.834 1.66 15.846 4.376 22.97 2.386 4.818 6.342 12.28 10.873 13.887 8.528 2.403 16.188-10.066 20.32-15.084 4.72-6.995 9.148-16.018 11.652-23.333 4.303-15.305 1.456-32.092-4.224-46.543-2.857-6.918-11.038-7.385-16.808-8.358-6.578-.973-13.42-1.424-19.788.9-4.159 1.21-9.416 5.35-9.181 10.662M1505 1690c.463 4.73 4.895 9.782 6.945 14.875 10.223 19.511 17.522 40.423 22.484 61.846 4.088 16.393 5.552 33.374 5.57 50.218.004 2.864-.244 6.73 2.008 9.034a92 92 0 0 0 28.124 16.554c15.998 4.982 34.368 3.887 49.336-3.932 14.111-7.406 24.624-20.357 29.479-35.533 5.166-16.347 1.55-34.267-6.903-48.741-10.745-19.737-33.361-35.305-51.109-44.436-21.116-10.774-44.151-17.29-67.231-22.26-6.418-2.36-13.184-1.696-18.703 2.375m6.067-438.273c-.287 14.579 14.936 30.364 28.222 27.387 17.3-2.913 31.629-19.15 43.234-28.724 6.657-5.806 16.218-10.11 22.528-15.103 5.835-4.361 9.367-11.486 7.528-18.837-10.296-20.71-36.98-22.119-55.103-13.04-9.806 5.86-18.478 13.28-27.044 20.76-7.675 7.875-19.24 17.006-19.365 27.557M1557.5 1546c10.523-33.458 20.792-67.062 32.022-100.305 1.026-4.21 3.055-9.009 3.27-13.014-1.63-31.68-10.351-62.441-14.792-93.681-8.1.581-17.663 1.737-25 3-5.977 67.904-3.962 136.337 4.5 204m6.5 741.625c7.618 3.48 15.381 7.517 22.639 11.829 3.707 2.456 7.526 4.805 10.966 7.634 3.481 2.156 7.162 6.848 10.395 7.912 3.49-29.025 10.786-57.667 12-87-7.328.33-16.029-.438-22.712.326-4.721.135-5.76 8.905-8.218 11.512-6.727 13.14-12.852 26.617-20.234 39.428-1.487 3.016-3.442 5.496-4.836 8.359m12.029-1131.301c-.656 11.804 13.114 18.825 22.153 21.58 7.999 2.65 18.787 4.723 26.396 1.993 8.981-5.07 7.377-16.857 5.978-24.347-2.805-13.324-10.613-27.654-18.235-37.397-3.771-4.424-9.253-9.846-14.91-10.387-4.21-1.24-7.15 6.446-9.072 8.622-6.064 11.959-11.544 27.33-12.31 39.936m62.434 80.18c1.399 17.217 2.24 37.904 9.063 52.467 4.248 11.613 15.204 5.214 21.538.328 7.073-4.515 12.75-10.738 18.966-16.251 5.28-5.21 10.568-11.936 9.733-19.789-.591-8.478-1.607-16.876-2.83-25.277-1.187-8.8-2.48-17.565-4.524-26.213-1.409-7.691-3.588-19.648-15.08-15.848-21.82 5.352-36.572 31.35-36.866 50.583m12.556-107.063c-.137 7.222 2.117 14.575 7.61 19.349 5.078 4.301 13.121 5.98 19.035 6.15 6.927.09 15.962-2.228 19.927-7.63 4.836-7.381.797-15.216-5.634-18.952-9.437-6.461-21.046-8.437-32.231-8.334-6.723-.675-9.055 3.504-8.707 9.417m3.455 214.38c1.521 9.026 12.916 17.185 5.598 28.519-4.583 6.428-4.981 14.795-1.573 21.867 1.668 4.841 5.145 10.956 11.934 11.497 9.688.836 13.883-9.669 16.51-16.183 3.552-8.63 4.842-17.819 5.763-27.021.955-10.503 1.544-22.963.872-32.608-.479-4.435-.7-9.537-3.91-13.039-5.249-3.274-12.203 2.355-16.45 5.236-5.454 3.774-10.507 8.164-14.807 13.22-1.905 2.262-4.121 5.881-3.937 8.512m51.61-163.073c.965 16.478 5.504 32.354 11.976 47.215 2.981 7.28 8.809 16.967 16.873 12.785 6.272-3.94 11.288-11.469 14.331-17.344 3.673-6.872 5.357-14.622 4.648-22.368-.517-7.356-5.462-14.971-8.976-20.468-5.625-7.482-12.966-17.05-25.564-13.332-5.79 1.256-13.522 5.256-13.289 13.512M1826 2453v-225c-8.137 1.08-17.098-1.413-25 1v186.497c.036 10.381-.044 20.748.024 31.126-.66 6.828 5.194 6.847 9.819 6.377zm-10.5-613c29.647-16.901 58.835-34.794 87.484-53.336 14.492-9.34 28.62-19.176 42.663-29.147 7.708-6.993 17.123-2.931 26.222-6.364 7.425-2.852 16.582-7.735 17.131-16.153-23.987-8.885-47.81-18.578-71.729-27.696-23.676-9.938-48.35-17.917-71.771-28.304-6.646 27.192-11.15 55.119-18.545 82.19a1001 1001 0 0 1-10.514 42.063c-1.843 7.156-4.086 14.189-6.055 21.304-.787 2.99-1.898 6.344-1.913 9.102 1.046 2.867 5.2 4.152 7.027 6.341" style="fill:#000;fill-rule:evenodd;stroke:none"/></svg>