<svg xmlns="http://www.w3.org/2000/svg" width="3000" height="3000"><path d="M204 2906.5c431.66 1.426 864.125-.26 1295.95.5 431.946-.76 864.184.926 1296.05-.5-71.347-421.454-140.17-844.031-211.186-1265.681C2515.49 1219.807 2443.894 799.05 2375 378c-18.825-4.147-36.622-12.377-55.173-17.557-141.343-47.107-282.688-94.208-424.008-141.343-105.996-35.346-212.02-70.658-318-106l-60-20c-4.743-1.483-9.392-3.202-14.133-4.67-4.689-1.596-9.296.594-13.846 2.121-144.162 48.092-288.385 96.1-432.543 144.19-72.152 24.045-144.327 48.113-216.478 72.159-35.996 12.013-72.02 23.992-108 36-18 6.028-36 11.971-54 18-9.01 3.004-18.013 5.972-27 9-8.742 2.234-18.56 7.118-26.819 8.1-68.995 421.677-140.705 843.07-210.109 1264.703C344.003 2063.481 275.132 2486.22 204 2906.5M329 2802h2342c-123.036-740.941-247.019-1481.777-370.274-2222.688-3.869-23.172-7.715-46.335-11.6-69.503-1.87-11.315-3.782-22.648-5.658-33.952-.522-3.125-1.046-6.23-1.573-9.342-.7-2.603-.642-7.073-3.071-8.13-87.426-29.928-175.45-58.357-262.998-87.942-153.344-51.126-306.685-102.189-460.007-153.343-14.539-4.787-28.996-9.687-43.52-14.495-6.115-2.813-13.363-4.96-20.864-1.257a4101622 4101622 0 0 0-329.17 109.723c-82.137 27.354-164.262 54.776-246.4 82.13C854.18 413.77 792.493 434.326 730.82 454.9c-5.645 1.806-12.378 2.56-12.51 10.243-29.845 179.014-59.658 358.033-89.495 537.038C529.059 1602.139 428.546 2202.041 329 2802" style="fill:#747474;fill-rule:evenodd;stroke:none"/><path d="M1147 2138h255v25c13.36-.221 26.949.712 40.145-1.936 18.114-3.862 36.212-8.833 52.701-17.503 3.568-2.412 9.347-4.279 9.78-8.643 1.058-14.917-.186-29.973.374-44.918 10.988-3.459 23.115-12.614 33-15.5-4.145 29.568-7.363 60.308-13.207 89.847-4.77 30.265-13.494 59.761-19.793 89.653h-1.5c-13.79-11-26.431-23.503-40.413-34.247-3.843-3.505-7.255 3.144-9.488 5.47-8.444 10.248-16.637 20.701-25.082 30.938-2.514 2.816-4.628 5.94-7.017 8.839-1.416-21.127.25-42.774-.5-64 13.175-1.04 30.49-10.087 31-28-43.083-2.783-85.902-9.554-129-12-.76 39.247.926 78.876-.5 118-9.807-12.944-20.693-25.051-31.67-36.985-1.854-3.105-5.633-6.782-8.347-1.753-5.522 9.978-11.74 19.618-16.983 29.738l-.5-1.432v-58.8c.231-3.827-.97-10.715 3.199-11.803 11.174-2.678 25.876-8.155 24.801-24.965-41.722-3.077-83.256-9.243-125-12v311c-22.456 5.387-45.239 9.216-68 13 .574 5.44 5.63 11.31 8.157 17.059 20.17 37.46 42.508 74.112 61.843 111.941 9.075-.118 18.05-7.956 22.154-14.552 3.22-6.86 6.145-14.705 13.321-20.423 4.816-5.41 10.436-9.921 15.76-14.76 33.737-35.429 68.722-69.49 101.265-106.265 1.801 26-2.714 53.975 8.589 78.727 4.314 11.368 14.962 19.042 26.45 21.865 6.127 2.112 12.466 3.079 18.916 3.322 3.192.232 6.358.893 9.56.617 2.373.19 4.928-2.866 5.985.469h34.2c4.152.572 8.023-.92 12.005-1.548 12.617 2.908 28.451-.563 40.17-1.863 6.657-1.3 13.386-2.459 19.844-4.568 5.718-1.443 11.163-5.404 16.781-6.521-19.68 26.336-46.171 54.616-69.542 73.683-4.465 3.657-3.225 7.488-.544 11.162 2.274 2.572 3.117 7.724 6.569 8.16 6.239-1.733 11.578-6.072 17.384-8.884a415 415 0 0 0 47.765-31.352c10.128-7.646 20.352-15.218 29.609-23.92 12.018-8.738 22.002-23.016 32.132-31.651 46.042-51.114 79.96-112.357 101.546-177.482 13.643-41.375 25.339-83.954 31.081-127.216 3.013-.328 5.98-.825 9-1v211h-53.4c-5.407.67-12.516-1.164-16.6 1.5 2.133 10.258 6.374 20.112 8 30.5h167v158c16.192-.284 32.69 1.089 48.645-2.459 11.123-2.39 21.992-5.68 32.422-10.19 7.324-3.282 15.09-6.353 21.008-12.003 5.273-4.183 3.817-12.71 3.925-18.575V2483h39.6c12.66-.672 42.891 4.699 46.913-16.45.536-4.343-4.372-7.492-6.838-10.444-4.031-5.094-8.363-9.863-13.88-13.389-4.084-4.582-7.291-10.01-12.414-13.713-10.666-8.119-18.612-19.32-29.101-27.606-3.806-1.81-5.976.847-7.875 3.917-5.207 7.933-11.119 15.511-15.905 23.685-1.426-66.246.26-132.717-.5-199h37.8c12.62-.669 40.769 3.948 45.468-15.98.7-4.236-2.871-7.24-5.4-10.41-7.945-9.342-16.542-18.043-25.343-26.585-5.118-4.89-10.685-9.28-15.508-14.485-2.635-2.555-5.65-4.686-8.245-7.282-2.29-2.139-5.19-5.569-7.772-6.258-4.498 4.157-6.766 10.362-10.684 15.025-3.316 4.952-7.24 9.566-9.816 14.975-1.391-17.549.225-35.392-.5-53 11.358-.57 26.843-6.646 26-23-44.115-2.578-87.894-9.325-132-12v107h-94.8c-3.357-.37-7.64.651-11.002-.957-19.488-14.744-37.091-31.93-56.672-46.539-2.098-2.463-5.61 1.248-7.257 2.73-7.523 7.983-14.606 16.334-22.744 23.741l-11.627 11.627c-3.484 2.643-7.743 9.535-11.898 8.898 6.49-15.726 12.33-32.024 17.735-48.206 2.225-6.948 3.594-18.255 11.342-18.35 6.775-.635 14.645-2.962 19.982-6.186 5.03-3.995 8.481-10.039 16.932-8.758 26.572.813 53.389-1.13 78.742-9.75 8.732-2.745 17.438-5.66 25.745-9.524 6.98-3.23 15.238-6.94 12.747-16.739.117-62.924-.809-126.143.275-188.987 11.508 38.306 24.833 76.426 45.089 111.154 9.624 16.925 20.957 32.876 34.009 47.344 6.337 7.276 14.578 15.178 21.03 21.215 3.747 3.12 7.281 6.439 11.19 9.354 3.688 2.575 7.848 6.752 12.182 6.933 5.692-26.616 14.933-53.086 30.484-75.647 7.709-10.837 18.818-22.043 29.075-28.71 5.399-3.711 11.364-6.468 17.368-8.991 9.12-2.086 8.451-10.023 8.073-16.652-30.663-3.928-60.442-13.642-89.52-23.693-27.025-11.133-54.464-23.472-77.48-41.807 30.053-1.426 60.56.26 90.695-.5 15.395-.038 30.752.047 46.14-.025 11.151-.194 28.274-3.042 29.165-19.975-13.553-9.052-25.09-22.102-38.65-31.488-11.415-9.128-22.96-18.104-34.474-27.1-5.092-3.85-10.24-7.604-15.278-11.51-4.493-3.143-9.95-9.841-14.28-5.353-14.168 17.072-27.664 34.705-41.658 51.909-2.764 3.24-5.14 6.836-8.249 9.764-2.55 3.176-9.644.93-12.91 1.778h-25.573c-5.534-.588-17.796 2.841-16.92-7.02-.024-26.108.005-52.206-.008-78.3v-58.601c.649-5.524-1.149-14.013 1.5-18.079 3.86 2.115 10.223-1.998 15.014-2.145 5.422-1.066 9.95-4.041 13.535-8.109 6.396-4.379 10.504-11.488 9.951-19.746-48.801-5.322-98.21-8.5-147-13.5 7.194-7.25 14.007-18.03 15.847-27.326 3.14-20.077 3.462-40.673 7.471-60.586 19.853-55.291 44.241-110.083 53.182-168.588 8.468 18.176 20.338 40.158 19.5 59.19.452 38.585-.898 77.772-12.29 114.975-3.56 13.925-9.494 27.55-8.706 42.192.271 5.911.976 13.176 3.177 18.212.728 2.324 4.854 2.638 6.732 3.409 22.26 4.291 49.81 1.988 69.841-2.799 8.388-1.522 9.582-11.91 10.711-18.98 4.42-30.758 1.119-62.03 3.141-92.962.51-30.356 5.4-60.457 6.384-90.769 1.173-13.129-5.396-24.658-12.183-35.273-6.285-10.38-12.926-20.578-18.014-31.63-5.83-10.427-10.79-21.395-12.223-33.388-.934-6.626-.396-13.358-.57-20.014.642-6.307-.809-12.978.5-19.163 10.965 14.736 22 29.628 35.394 42.325 6.107 5.467 12.14 11.001 18.41 16.282 7.415 4.903 7.112 12.884 9.633 20.606 8.976 27.53 18.547 55.062 23.342 83.713 2.1 9.98 2.423 26.172 14.583 26.613 9.475-.92 14.26-12.826 17.758-19.855 13.068-31.635 19.32-68.058 10.779-101.825-4.284-15.613-13.579-30.332-27.9-38.556-7.656-4.268-15.913-7.555-24.647-8.826-7.79-.94-12.28-10.522-17.122-15.553-8.809-11.506-16.77-23.61-24.258-35.993-11.63-19.424-21.106-40.05-29.35-61.107-4.866-11.637-6.655-24.278-10.764-36.188-14.098-39.488-40.857-76.38-79.105-95.518-20.211-9.186-42.328-13.008-64.013-17.173-10.786-2.312-21.628-4.143-32.637-4.954-11.26-1.33-24.625-.55-34.924-1.687-5.87-1.169-13.05-2.199-18.203-3.998-3.262-2.93-5.482-8.516-8.279-12.834-5.318-8.95-11.435-17.368-17.986-25.452-5.328-5.481-14.533-10.492-21.695-16.004-13.043-8.744-25.82-17.846-38.839-26.614-9.104-6.953-21.026-13.05-27.703-21.012-21.687-28.373-36.111-61.747-50.974-93.89 32.405-14.43 60.353-39.398 75.29-72.08 3.871-8.01 6.852-18.147 8.54-26.097.496-3.603 1.318-7.282.85-10.932-9.657-21.136-31.83-34.221-51.252-45.084-13.55-5.99-27.524-11.293-42.158-13.959-15.514-3.397-31.547-2.076-47.27-2.348-1.027-15.353-3.171-30.621-4-46 7.475-2.237 11.244-11.222 10.927-18.406-.03-10.888-10.539-19.11-20.78-19.5-10.21-.903-24.487 4.46-25.444 17.626-.644 5.268 1.014 10.714 3.832 15.044 3.445 4.016.418 9.916-1.088 14.382-2.04 8.115-5.841 17.366-7.447 24.854-16.616-6.487-33.72-13.388-52-13-2.996-9.29-4.122-19.548-8-28.5 9.401-5.29 11.064-19.918 2.028-26.598-7.264-5.26-18.987-4.608-25.953-1.077-11.243 5.62-11.389 19.411-2.455 26.058 3.187 2.469 1.96 7.74 2.055 11.306-.157 4.245-.305 8.476-.464 12.715.073 3.107-.54 6.1-1.211 9.096-24.654 5.412-49.746 23.89-64.245 41.52-6.491 7.026-12.075 14.815-17.319 22.786-5.395 6.295-7.182 17.046-12.786 21.333-25.935 12.761-53.613 25.933-71.362 49.998-18.926 23.924-24.184 58.334-13.203 86.973 7.822 21.038 27.143 34.785 47.823 41.453 11.715 3.55 24.045 4.775 36.222 4.933 6.307.055 12.62-.213 18.914-.46 5.142-.519 13.012.478 16.456-2.536 4.414 3.551 12.662.361 18.839.793 6.587-.283 13.094-1.422 19.661-1.793 11.697 34.33 27.214 67.323 41.758 100.51 12.962 28.67 25.963 57.327 38.941 85.98 2.705 6.436 5.83 12.686 8.377 19.176 1.782 5.802-1.271 13.917-1.52 20.86-4.337 28.438-2.552 57.187-2.556 85.844v77.155c-.201 21.55-.103 44.34.914 65.49-1.756 9.316-.443 18.856-.209 28.23 1.164 36.329 1.68 72.7.355 109.013-1.887 25.753-3.666 51.581-8.023 77.057-2.488 17.236-19.183 34.754-16.656 51.69 1.833 7.193 11.622 7.327 17.232 8.622 6.616 1.296 13.342 1.38 20.045 1.46 11.33.838 22.657-.085 34.03-.176 7.681-.731 16.887-2.104 23.372-5.058 2.57-1.289 5.07-3.074 6.563-5.587 1.818-1.635.158-5.436.543-8.05-.109-5.212 2.02-10.258 1.822-15.49-.048-7.34.056-14.675.415-21.997-.46-6.58 1.943-15.248-1.403-20.229 2.714-2.954 1.716-8.211 2.067-11.826 2.137-60.948 2.636-121.853 6.433-182.674 8.011 34.866 16.364 69.688 21.835 105.062 4.625 28.07 8.562 56.493 5.72 85.003-.783 20.562-4.968 40.68-9.4 60.666 6.147 32.356 41.973 44.308 67.643 47.343 29.497 3.68 60.482-4.36 83.202-25.074h1.5c8.69 14.548 27.287 20.807 42.878 24.038 5.417.802 12.899 2.121 17.317.86 15.835 2.377 37.83-1.123 51.305-7.898 1.426 64.542-.26 129.4.5 194h-194c.709 11.026 6.606 21.108 8 32h129v2c-26.664 59.322-59.992 116.176-104.5 164-1.426-33.845.26-68.081-.5-102 10.836-1.261 27.098-8.16 28-19-27.286-18.159-52.769-40.086-79.573-59.16-3.312-2.449-6.538-5.046-9.965-7.326-3.28-1.984-6.606.721-8.697 3.22-9.595 8.872-18.162 18.699-27.135 28.136-4.603 4.276-9.431 10.002-14.113 13.38-6.617 1.433-13.765.317-20.517.75v-64c9.883-.934 18.78-9.862 18-20-35.092-1.922-69.915-7.98-105-10v94h-26v-64c10.397-.61 19.464-9.202 19-20-35.101-1.958-69.932-7.661-105-10v94h-27v-96h336c12.69-.092 27.476 1.92 38.142-6.858 3.37-3.181 7.115-9.665 4.027-13.153-28.735-27.498-61.096-51.285-92.317-75.877-3.775-3.103-7.693-6.147-11.882-8.621-3.802-.249-6.27 5.156-9.072 7.913-9.526 11.778-18.612 23.926-28.17 35.67-4.676 5.954-9.31 11.942-14.053 17.832-4.15 5.148-8.253 13.137-16.675 12.094v-88c13.331-2.59 34.16-7.148 34-28-55.358-3.531-110.573-10.492-166-13v129h-50.4c-6.11.536-11.622-2.132-17.11-4.317-19.066-6.785-37.872-14.184-56.971-20.863-9.479-3.563-19.05-6.902-28.53-10.426-9.077-2.771-19.362-8.075-27.989-9.394v433.2c-.075 4.337-.434 10.171 1.617 14.353-1.355 20.317-2.306 40.771-1.954 61.24-.859 74.896-3.746 150.045-15.982 224.088-3.834 26.507-10.85 52.457-17.977 78.212-3.433 11.324-7.314 22.514-11.2 33.67-1.16 2.318-1.426 4.514-1.056 6.797.74 2.364 4.229 3.807 5.567 5.11 10.917 8.873 15.482-7.516 22.848-11.879 53.759-55.199 85.975-128.307 103.088-202.558 8.947-39.533 14.242-79.925 17.46-120.293 1.864-21.253 2.102-42.59 2.808-63.9 1.501-20.375-.016-44.37 1.781-63.04m461-851a1158 1158 0 0 1 20.48 95.94c3.168 24.096 9.211 49.288 1.249 73.038-9.443 34.347-21.435 67.926-31.217 102.154-4.328 17.362-9.401 34.556-13.081 52.073-1.085 4.387-2.165 9.844 1.997 11.849 5.483 3.248 11.44 5.857 17.719 7.083 3.075.658 6.169 1.28 9.279 1.676 3.312.6 7.757.404 9.074 3.187 1.478-3.332 6.583-2.66 9.577-3.405 6.99-1.095 14.14-3.048 20.054-7.084 6.855-3.898 6.168-12.275 6.954-18.402 1.7-13.601 3.18-27.211 5.014-40.796.64-13.118 6.62-24.976 11.374-37.025a1315 1315 0 0 0 24.608-67.013c15.151-40.413 22.624-83.141 23.109-126.255.459-3.906 3.818-6.383 6.412-9.122 10.352-10.268 18.83-22.214 26.972-34.233 15.97-20.975 24.1-46.903 22.425-73.222.327-39.15-18.375-77.223-49.265-101.123-7.399-5.347-15.114-10.261-23.4-14.118-14.603-5.757-30.232-8.525-45.592-11.395-7.608-1.533-15.26-2.555-22.93-3.643-4.104-.46-8.222-.553-12.338-.792-3.279-.512-8.526.392-9.474-2.372-16.864 4.489-34.358-2.149-50.929-5.225-3.506-1.055-7.168-1.55-10.546-2.972-5.474-3.198-7.096-12.086-10.718-16.923-6.587-10.744-11.948-22.898-21.913-31.125-18.14-13.29-37.176-25.268-55.43-38.373-7.1-4.633-14.015-9.504-20.94-14.376-5.894-4.065-10.55-11.361-14.488-16.468-15.312-20.823-27.197-43.844-38.716-66.878-5.482-12.115-10.708-24.354-15.225-36.848-3.753-12.355-9.651-26.805-10.095-38.812 23.113-3.277 46.695-19.345 62.854-32.419 8.52-7.396 18.517-16.626 23.345-26.029 2.161-4.756 7.159-10.959 1.01-15.368-4.543-3.48-8.9-7.272-13.721-10.362-23.55-15.12-53.099-21.241-80.659-15.253-5.872 1.382-11.796 2.857-17.19 5.618-2.397.852-5.33 3.278-7.467 3.314-4.622.333-7.488-7.742-10.899-9.449-24.363-22.638-63.352-35.482-94.655-18.861-14.673 7.488-29.067 20.985-37.792 33.18-7.158 9.906-12.024 21.284-18.71 31.462-6.837 6.379-17.09 7.667-24.495 13.264-12.45 6.921-24.905 14.332-35.355 24.14-10.39 9.924-21.07 21.749-22.284 36.903-1.365 8.943 1.662 20.048 7.216 26.455 12.529 15.283 33.503 13.395 49.39 13.211 27.408-.621 54.714-2.6 82.067-4.285 3.098-.002 7.033-.788 9.768.243 3.582 4.573 3.716 10.399 6.542 15.522 6.163 15.82 11.789 31.854 18.687 47.382 25.594 60.707 53.915 120.2 80.269 180.55-2.004 33.353-14.001 69.619-.521 102.757 5.142 15.28 15.294 28.188 25.095 40.669 10.354 12.983 22.248 24.6 33.147 37.063 8.167 14.223 11.888 30.45 16.534 46.005 15.925 59.89 29.422 120.744 34.81 182.577 1.46 24.703.626 49.442-3.515 73.867-.41 8.823-7.964 20.85 3.472 26.7 16.951 9.883 41.269 6.739 56.438-.716 2.937-1.822 7.37-3.9 9.137-7.281-2.11-33.478-4.966-67.071-7.344-100.564-4.689-51.298-7.768-103.009-3.649-154.518 1.286-12.417 2.166-24.895 4.235-37.216.702-4.762 1.488-9.497 2.612-14.175.509-1.662.802-3.727 1.572-5.123 7.255-2.7 14.827-1.567 22.446-3.83 11.524-1.844 23.054-3.689 34.402-6.392 10.955-1.558 23.127-7.07 33.208-8.041m-477.972-459.69c-.573 6.03 3.502 9.072 8.71 8.573 6.915.122 12.729-4.086 16.936-9.15 3.514-3.48 4.844-8.5 4.19-13.32-.21-5.99-6.8-6.93-11.188-6.097-9.356 1.198-18.963 12.122-18.648 19.995M1147 2106h27v-160h-27zm86-1331c1.907 8.808 3.495 20.273 13.085 26.985 7.996 6.447 23.686 4.375 29.855-.604 11.536-8.705 14.026-27.356 8.563-39.032-2.765-5.93-8.928-12.003-14.4-14.342-6.637-2.747-13.818-1.764-20.626-.568-7.578.995-15.152 1.914-22.73 2.84-2.907.381-5.816.736-8.747.721-.477 9.243 1.224 22.5 15 24m27 1331h26v-160h-26zm6 345c9.779-2.148 19.648-4.114 29.375-6.541 7.183-1.564 14.292-3.436 21.498-4.887 7.701-.49 6.035-7.89 6.127-13.528V2324h-57c-1.583 10.25-.75 20.657-1 31.073v48.306c1.008 15.341-1.342 33.673 1 47.621m20.246-1568.067c.574 6.938 4.63 14.189 7.957 19.258 4.56 7.224 11.82 8.078 18.872 5.524 5.168-1.377 10.444-5 11.58-10.59.845-5.184-.634-11.422-2.584-15.736-1.904-4.198-4.767-8.03-8.361-10.934-3.832-3.596-10.838-2.377-15.204-1.104-5.677 1.847-12.56 5.108-12.26 13.582m13.814 66.855c.574 11.516 7.293 23.555 12.77 31.94 2.843 4.484 6.55 9.076 11.936 10.524 5.505 1.143 12.312-.601 16.854-2.68 17.137-8.193 4.176-31.063-1.871-40.88-2.728-4.102-5.336-8.359-8.715-11.975-3.562-4.238-10.646-4.187-15.563-3.325-6.68 1.617-15.494 6.932-15.41 16.396m22.001-114.932c-.171 5.876 3.478 10.486 7.414 14.119 3.491 3.999 8.465 7.608 14.151 6.562 8.924-1.454 7.7-15.531 6.1-21.434-1.445-6.841-5.591-15.582-15.417-12.443-5.87 1.822-12.386 7.093-12.248 13.197M1357.5 784c14.563 5.62 32.81-5.64 45.042-11.864 5.456-3.087 10.314-7.056 15.314-10.801 2.606-2.479 9.984-6.414 6.326-9.946-12.036-8.117-26.088-12.579-40.61-13.102-12.69-.373-25.652 1.98-36.954 7.907-10.975 4.483-13.332 15.552-10.918 25.915 1.939 7.83 9.727 12.84 17.39 13.222 1.85.463 3.242.016 4.41-1.331m-16.484 251.886c-.07 9.522 5.753 19.46 11.159 25.678 6.682 8.927 15.412 10.731 25.206 9.309 9.17-.741 17.845-4.809 25.057-10.32 7.445-5.716 4.068-19.804 1.696-26.203-3.433-7.792-8.47-17.083-14.779-21.955-7.754-5.74-19.456-3.192-26.62.59-9.688 4.524-22.531 12.116-21.72 22.901m5.047-117.964c.92 13.639 10.797 27.077 17.222 36.98 3.986 5.556 8.306 11.243 14.064 15.097 6.987 4.346 14.886.15 15.863-7.116 1.677-8.105-2.474-17.389-5.657-23.764-3.565-7.602-7.386-15.083-12.389-21.845-3.009-4.803-9.643-13.782-17.051-11.992-6.228.809-12.467 7.492-12.052 12.64M1433.5 1189c-9.696-9.253-22.77-18.707-33.656-24.435-17.041-6.797-22.574 14.002-27.093 24.9-2.717 8.822-4.603 19.814-3.427 28.267.043 4.47 6.986 7.14 9.578 9.554 3.461 2.42 7.19 4.357 10.99 6.168 14.13 7.124 28.884 13.292 44.362 16.823 16.2 3.372 34.449-7.262 44.235-17.681 12.633-13.192 14.533-28.885 9.136-44.716-1.94-4.964-4.757-11.041-8.754-14.063-7.895-5.706-17.216-.63-23.922 2.713-7.792 3.023-14.626 7.922-21.449 12.47m-60.5 917h29v-160h-29zm9.012-992.116c-1.036 13 16.317 21.361 24.901 24.192 16.802 3.287 28.131 22.805 50.313 16.846 8.223-2.906 16.523-9.787 21.123-16.172 5.894-9.176 2.79-18.441-1.76-26.461-6.443-11.338-15.581-21.358-26.725-28.256-13.05-8.579-25.852-6.966-38.289-.778-12.516 6.11-29.781 16.785-29.563 30.63m39.13 167.163c.58 13.125 13.636 19.34 20.949 26.582 6.008 5.888 14.823 11.827 18.089 19.13 4.266 10.97-11.006 26.377 4.367 36.762 4.843 3.26 12.028 5.218 17.01-1.1 3.614-4.774 6.383-11.437 7.62-16.76 2.723-12.415 2.638-27.945-1.5-38.901-4.245-11.157-14.289-21.446-23.562-26.99-10.43-5.992-22.847-8.615-34.812-7.522-2.137.133-4.278 1.426-5.936 2.249-.367.982-1.312 2.284-1.926 2.834.033 1.205-.319 2.36-.299 3.716M1506 2400c2.42 21.308 1.049 43.133 3.73 64.353 7.759 5.29 17.938 8.342 23.472 16.769 6.136 8.334 6.15 19.142 6.298 28.878 8.032-15.612 16.642-30.986 23.156-47.337 7.36-16.007 13.024-32.796 19.344-49.163-4.785-1.235-9.918.234-14.726-1.022-7.69-1.377-14.897-4.818-21.054-9.568-4.294-3.33-10.607-8.635-11.014-13.378-.204-4.765 1.744-9.301 2.544-13.906 1.66-13.967 1.75-30.888-.25-43.626-10.44 16.211-22.828 31.33-35.536 45.81-9.401 11.765-20.28 22.176-31.466 32.187-4.59 5.789-9.808 2.05-14.35-.432-2.14-1.125-4.433-2.146-6.215-3.819-1.638-3.659 3.094-9.034 3.902-12.4 7.099-14.153 13.244-28.731 19.186-43.393 4.617-14.983 12.34-29.683 15.479-44.953-22.078 6.041-45.018 11.364-67.5 16 .313 46.475-.382 92.961.206 139.426.163 6.853 4.874 8.832 10.528 8.553 9.37-.562 21.027 1.208 29.301-1.77 10.931-6.453 14.511-23.247 19.377-33.734 2.614-6.597 4.936-13.329 7.531-19.921 2.144-6.416 3.297-14.951 12.577-13.554zm-83.933-1393.275c.124 8.364 5.077 15.295 9.273 21.815 11.933 19.927 30.782 37.02 54.695 39.812 8.534 1.98 23.026 4.362 23.801-6.676.9-8.064-5.867-13.384-10.626-17.812-15.873-12.261-30.383-26.343-46.933-37.707-6.573-4.42-14.161-8-22.253-7.884-2.34-.127-5.033 1.434-6.621 2.2-.47 2.08-1.867 3.768-1.336 6.252m77.994 102.132c-.363 7.351 5.363 10.438 9.212 15.387 7.066 10.47-2.765 20.816-6.28 29.088-2.767 8.136.924 16.56 3.944 23.951 2.358 5.056 5.537 11.292 9.792 14.334 9.388 4.61 16.983-5.444 21.74-11.59 5.091-6.915 9.25-14.52 12.47-22.487 5.85-15.5 2.87-35.816-1.851-49.671-2.224-7.988-8.898-10.194-15.89-10.875-7.06-.866-15.738-1.733-22.101.172-4.84 1.427-11.178 4.778-11.036 11.69m4.407 582.582c17.545 37.5 34.613 77.361 34.438 119.75.363 5.125-.904 12.92 2.435 16.158 13.757 11.755 31.22 19.948 49.611 19.439 18.203.165 35.55-7.47 47.242-21.54 23.282-25.76 16.092-68.568-9.427-89.979-22.173-23.288-53.097-35.61-83.469-43.7-6.015-1.482-11.999-3.05-18.038-4.424-5.74-.992-12.016-3.237-17.735-.82-1.858 1.12-5.234 2.422-5.086 4.325.01.189.02.377.029.791m5.552-439.553c.355 13.734 12.974 32.045 29.775 28.356 19.001-3.21 31.579-19.58 45.99-30.46 6.849-5.86 15.7-8.983 22.186-15.278 5.534-4.798 7.25-12.652 5.483-19.639-10.32-18.969-38.876-22.927-56.487-12.74-10.043 6.206-19.446 13.443-28.065 21.49-7.864 7.992-19.391 17.47-18.882 28.27m28.98 821.489c19.758 6.633 44.84 10.598 63.36 15.708 21.6 4.604 42.852 11.3 64.64 14.917v-114h-1.5c-38.78 32.337-82.274 59.33-126.5 83.375M1558.5 1539c9.702-35.819 23.86-70.554 33.096-106.476-1.729-19.389-4.662-38.7-8.357-57.798-1.7-9.702-3.957-19.268-5.779-28.93-.682-1.772-.722-5.178-2.833-5.34-6.662.716-14.589 1.442-20.627 2.544-4.64 65.147-5.033 131.33 4.5 196m7.5 747.375c13.425 8.559 29.664 14.102 40.5 26.625 5.823-27.265 9.131-55.3 12.5-83h-24c-8.721 19.028-18.123 38.477-29 56.375m9.003-1129.96c-.638 13.929 14.156 19.755 23.736 22.997 8.143 2.587 20.862 3.902 27.63 1.138 8.598-5.85 6.644-17.41 5.4-25.217-2.888-13.88-10.912-28.828-19.015-38.86-4.058-4.763-9.193-9.923-15.966-10.007-4.612-.585-7.697 6.49-9.683 9.36-6.145 12.151-11.66 27.807-12.102 40.59m62.26 80.526c1.304 16.535 2.393 36.053 8.05 50.307 1.472 3.454 3.28 8.335 8.175 9.302 6.159.937 11.628-3.324 16.576-6.251 5.049-3.415 9.627-7.44 13.941-11.723 5.72-4.945 12.198-11.643 14.502-18.374.174-8.964-.122-17.864-1.569-26.77a294 294 0 0 0-4.157-26.016c-2.037-7.571-2.763-19.301-9.085-22.962-13.372-1.774-25.68 7.536-33.38 17.43-9.079 9.451-12.532 22.243-13.052 35.057m12.743-107.612c-.234 7.372 1.598 14.928 6.949 20.022 5.297 5.082 13.073 6.594 20.14 6.63 7.4.133 15.867-.964 21.015-6.988 4.918-6.216 3.143-15.626-3.106-20.149-9.848-7.775-22.73-9.905-34.885-9.836-2.586-.006-6.064-.1-8.126 1.943-2.2 1.867-1.945 5.807-1.987 8.378m3.28 213.65c-.174 8.774 11.705 16.907 6.509 26.624-7.59 11.124-5.27 31.957 6.994 36.538 15.972 5.614 22.47-17.4 24.774-27.631 1.403-11.81 4.557-26.325 2.365-37.228-1.535-4.132.081-6.428.74-10.047.046-4.976-.79-11.435-3.747-15.11-4.881-3.891-11.4-.09-15.273 2.49-8.178 6.603-21.075 14.67-22.361 24.365m51.75-162.118c.837 17.114 5.637 33.608 12.438 49.015 3.068 6.766 8.209 16.535 18.129 12.014 6.657-3.947 11.988-11.98 15.004-18.183 7.65-14.27 5.5-31.789-4.67-44.14-5.887-8.176-13.841-17.622-27.098-13.525-6.457 1.768-14.502 5.286-13.804 14.82M1802 2451h23v-221h-23zm188-717c-49.018-17.439-96.866-39.008-146-56-9.583 49.06-21.113 97.872-34.732 145.98-1.621 5.125-4.322 11.24 2.324 14.722 4.619 3.667 10.42-.738 14.568-3.293 31.038-17.993 61.564-36.83 91.38-56.752 6.14-4.186 12.442-8.123 18.399-12.553 4.536-3.215 9.025-6.477 13.562-9.677 6.214-4.462 17.52-.457 25.442-4.941 6.572-3.113 15.727-8.054 15.057-17.486" style="fill:#fff;fill-rule:evenodd;stroke:none"/><path d="M1014.75 2595c2.947-1.502 6.338-5.534 7.25-8-3.144.582-8.507 4.854-7.25 8m25.75-391c2.325-2.68 1.647-6.572 2.285-9.81.578-2.736 1.077-6.114-2.785-7.19.546 5.43-.713 12.13.5 17m105-22c.805-2.031.528-5.342 0-7-3.136 2.302-2.45 4.95 0 7M1170 917.375c1.57 1.227 5.3.398 7 .125-2.051-2.971-5.085-2.827-7-.125m91 1603c.044.62.234 1.158.625 1.625 2.137-.776 3.97-3.408 5.979-5.104 1.665-1.708 3.826-3.734 4.396-5.896-5.512.978-7.3 6.025-11 9.375M1297.5 1374c2.884-3.199 2.338-11.88-.5-14 .493 4.646-.66 10.212.5 14m53-526c.646-1.76.684-4.597 0-6-3.119 2.142-2.599 4.211 0 6m3.5-62.687c2.781 1.35 8.363.42 11 .187-2.85-2.662-9.023-2.51-11-.187M1377 1633c-.516-5.584.683-11.518-.5-17-2.339 2.723-1.958 6.63-2.614 9.933-.556 2.837-.026 6.431 3.114 7.067m.5-59c.775-2.33.559-6.127 0-8-3.138 2.279-2.666 5.77 0 8m1-43c.805-2.307.528-6.14 0-8-2.894 2.47-2.727 5.776 0 8m2-70c.805-2.031.528-5.342 0-7-3.136 2.302-2.45 4.95 0 7m1-29c.805-2.307.528-6.14 0-8-2.894 2.47-2.727 5.776 0 8m4.5 1130.375c1.888 1.321 5.992.304 8 .125a4.5 4.5 0 0 1-1-2.5c-2.547-.255-5.376.122-7 2.375m46 0c3.28 1.166 9.246.459 12 .125-3.392-3.962-8.68-3.245-12-.125m53-889c2.705 1.284 7.718.34 10 .125-2.773-3.32-7.34-2.832-10-.125m41 271.875c.963 1.11 2.481.085 3.407-.44 2.58-1.734 4.766-4.57 4.593-7.81h-2c-.783 3.006-4.533 5.965-6 8.25m24.5-493.25c.646-1.76.684-4.597 0-6-3.119 2.142-2.599 4.21 0 6m18 1103c3.095-1.31 6.58-5.532 7.5-8-3.43.372-8.352 4.894-7.5 8m41.5-1469.625c2.174 1.383 6.689.242 9 .125a4.5 4.5 0 0 1-1-2.5c-2.763-.047-5.72-.42-8 2.375m2 588c2.164 1.32 6.716.305 9 .125-1.351-1.615-2.77-2.3-4.527-2.962-1.54.725-3.523 1.446-4.473 2.837m6-42c1.048 1.493 3.906 1.522 4 3.625 2.193.141 4.072-1.985 6-3.5-2.697-1.027-6.685-.14-10-.5zM1694.5 1345c.805-3.825.528-9.868 0-13-.966.996-2.109 1.797-3.5 2 .516 4.096.782 8.058 3.5 11m4-85c.805-2.307.528-6.14 0-8-3.017 2.229-2.38 5.698 0 8m95.5 600v-154.2c.03-3.17-.287-6.584 2-8.3l-1.5-1.5h-2c-.4.393-.863.807-1.5 1v145.082c.004 3.392-.005 6.771.003 10.15.092 3.022-.123 7.031 2.997 7.768m-2 227h2v-172.8c1.087-7.749-1.42-17.52 1-23.7l-1.5-1.5c-.85.143-1.87.697-2.5 1v148.691c.717 15.585-1.05 34.108 1 48.309m26-397.5c1.265.99 3.236-.5 4.087-1.155 1.601-1.444 3.516-3.352 3.913-5.345-3.96.431-6.23 3.772-8 6.5m34.5-110.5c.823-2.636.51-6.855 0-9-2.845 2.789-2.643 6.589 0 9m147.5 867c-.728-3.032-4.677-6.38-7-7-.24 3.435 4.413 6.467 7 7" style="fill:#f2f2f2;fill-rule:evenodd;stroke:none"/><path d="M1161 1787.375c3.318 2.918 10.636.85 14.513 1.625H1222v-114.6c.002-2.8-.003-5.6.002-8.4.079-2.43-.192-5.32 1.998-6v-2h-2c-2.46 1.83-1.785 6.388-2 8.772V1787c-19.59.562-39.512-.687-59 .375M1259 1916h28v-2h-26v-64h-2z" style="fill:#484848;fill-rule:evenodd;stroke:none"/><path d="M1323.5 2282c.713-1.572.438-3.336.5-5h-4c.152 2.177 2.135 3.552 3.5 5" style="fill:#161616;fill-rule:evenodd;stroke:none"/><path d="M1383 1378h3l-1-8h-2z" style="fill:#0a0a0a;fill-rule:evenodd;stroke:none"/><path d="M1383.5 1374c.38-1.656 1.314-3.446 1.5-5h-2c-.033 1.68-.041 3.397.5 5" style="fill:gray;fill-rule:evenodd;stroke:none"/><path d="M1383 1370a4.9 4.9 0 0 0 2-.5c-.852-.81-.861-2.351-2-2.5z" style="fill:#919191;fill-rule:evenodd;stroke:none"/><path d="M328 2803h2344c-118.785-721.214-240.618-1442.068-360.03-2163.199-7.528-45.17-15.046-90.339-22.588-135.492-1.756-10.718-3.574-21.44-5.367-32.15-1.463-5.102-.632-13.609-5.65-15.42-82.419-27.818-165.08-54.96-247.546-82.639-144.35-48.044-288.615-96.253-432.954-144.3-27.19-9.095-54.376-18.14-81.566-27.195-6.024-1.707-14.13-5.746-19.294-4.368-99.967 33.09-199.81 66.647-299.74 99.834a5130220 5130220 0 0 1-448.968 149.67c-9.274 3.513-19.03 5.778-28.13 9.725-3.665 1.962-2.298 9.57-3.876 12.727-22.54 135.51-45.194 271.003-67.739 406.508C542.266 1518.848 433.622 2160.802 328 2803m818-666h257v25c25.68 1.198 51.406-2.293 75.195-12.481a122.5 122.5 0 0 0 16.094-7.19c3.847-2 9.163-4.783 9.445-8.96.759-14.758-.138-29.601.266-44.369 58.375-26.914 113.628-61.392 163.5-102 1.426 39.462-.26 79.434.5 119-42.614-10.772-86.09-19.783-128.5-31-.45.458-.96.911-1.5 1.25-5.164 61.024-17.272 121.838-33.5 180.75-14.314-13.05-29.553-25.103-44-38-13.493 16.186-26.3 33.005-40 49-1.422-22.483.256-45.426-.5-68 14.424-1.03 29.083-10.643 31-26-42.394-3.126-84.597-8.99-127-12v103.8c-.552 4.259 1.112 10.508-2 13.2-7.03-5.626-11.642-13.941-17.95-20.328-6.236-6.871-12.236-13.886-18.55-20.672-7.295 10.864-12.698 23.148-20 34-2.514-3.512-.953-9.743-1.5-14.501.004-17.566-.005-35.12.003-52.671-.375-3.788-.052-7.878 5.097-8.491 10.14-2.26 22.661-7.912 22.9-22.337-41.037-3.447-81.95-8.654-123-12v311c-11.349 2.408-22.785 4.57-34.098 7.14-10.864 2.42-24.116 3.527-33.902 6.36 22.749 42.358 48.045 83.781 70 126.5 8.784-1.213 17.18-9.235 20.944-15.939 6.198-15.51 19.42-25.62 31.288-36.794 34.313-34.181 68.01-69.141 100.268-105.267 1.207 23.314-1.477 47.32 4.892 70.243 2.206 7.791 5.189 15.763 10.996 21.615 10.294 10.495 25.763 12.829 39.617 14.314 23.685 1.298 47.566.788 71.27.366 21.75-1.026 43.943-4.715 63.416-14.796 2.28-1.397 4.979-3.118 6.809-4.742-20.646 31.89-48.9 59.418-77.5 84.344 1.836 4.905 6.013 11.17 8.5 14.656 35.36-19.635 69.516-42.097 99.45-69.53 44.574-41.834 79.784-92.592 105.73-147.81 13.032-28.848 23.857-58.683 32.591-89.095 8.255-31.112 17.125-62.484 20.729-94.565 3.659-.446 7.317-.98 11-1v213h-53.4c-5.101.518-12.901-1.018-16.6 1.5 3.513 8.661 5.879 20.163 8 28.5h167v158c15.867-.156 32.05 1.004 47.647-2.692 10.977-2.391 21.7-5.63 31.963-10.193 7.143-3.232 14.674-6.264 20.465-11.767 5.273-4.183 3.817-12.71 3.925-18.575V2482h39c12.769-.963 41.701 4.842 47.206-15.132.83-3.795-4.291-6.81-6.752-10-8.457-9.646-17.665-18.682-26.9-27.591-11.03-8.267-18.911-20.194-30.054-28.277-8.492 9.46-13.836 21.32-22 31-1.426-33.901.26-68.221-.5-102.198v-90.464c.212-3.647-.518-8.433 1.5-11.338 10.083 2.21 20.71.124 30.92 1 14.168-.677 32.424 1.704 44.031-5.482 5.103-4.12 9.76-11.076 3.27-16.627-4.085-5.057-9.172-10.728-13.323-14.993-13.668-14.358-28.857-27.029-42.938-40.938l-.96-.96c-7.881 10.254-13.904 21.934-22 32-1.407-18.825.24-38.082-.5-57 10.823-.193 26.08-6.835 26-21-43.404-2.948-86.61-8.773-130-12v107h-97.8c-3.47-.091-8.298.563-11.41-1.911-18.785-15.653-37.778-31.129-56.29-47.089-8.713 8.703-16.766 18.016-25.602 26.602l-13.13 13.13c-4.371 4.01-8.767 10.827-14.768 8.768 7.7-17.23 13.639-35.518 19.694-53.409 1.329-4.583 2.808-10.117 5.23-13.809 6.476-2.496 14.555-1.5 20.872-5.269 6.047-2.731 12.093-8.479 14.704-14.013.364.975.517 1.966.5 3 19.354.166 38.798.229 57.915-3.117 13.22-2.512 26.198-5.988 38.813-10.639 8.712-3.12 19.444-7.193 25.637-13.254 4.53-5.452 1.618-15.907 2.635-23.677v-74.4c.76-33.243-.926-66.75.5-99.913 11.421 38.032 24.646 75.854 44.649 110.381 9.538 16.706 20.468 32.684 33.447 46.93 12.696 14.373 27.07 28.637 43.404 38.689 5.587-26.345 14.742-52.453 29.961-74.871 7.516-10.747 18.358-21.92 28.351-28.69 5.41-3.583 11.203-6.568 17.122-9.156 2.65-1.607 7.763-2.073 8.413-5.134 1.383-3.19 1.039-6.782 1.153-10.149-31.25-3.853-61.406-14.137-91.045-24.221-27.723-11.432-55.419-24.362-78.955-43.279 30.078-1.426 60.659.26 90.832-.5 15.401-.002 30.778.002 46.168-.001 11.557-.048 28.68-1.138 32-17.999-16.65-11.988-31.706-27.506-48.666-39.455-16.463-13.044-33.11-25.866-49.834-38.545-18.553 21.858-35.642 44.988-54 67-3.383-1.835-8.89-.458-13.248-1H1793v-163c15.033-2.397 36.226-6.7 38-29-49.49-5.056-99.51-8.966-149-13.5 7.902-7.665 14.566-17.055 17.59-27.777 3.296-20.428 3.635-41.356 7.574-61.65 21.194-55.879 43.613-112.102 54.336-171.073 4.355 9.213 9.407 20.174 13.197 28.729 9.624 19.685 7.446 42.115 7.214 63.36-.261 36.998-6.933 73.47-18.662 108.517-2.243 6.907-2.518 14.253-2.15 21.438.17 3.15.874 6.234 1.458 9.32.615 7.514 6.674 9.05 12.907 9.598 11.78 1.265 25.858 1.33 36.69.518 9.616-1.384 21.39-1.901 29.681-5.531 6.57-3.432 6.613-14.664 8.31-22.387 3.33-32.768.67-65.89 2.841-98.715 1.158-15.505 2.232-31.027 3.587-46.515.592-15.172 4.698-33.775.474-47.476-4.306-10.534-10.77-20.08-16.418-29.895-6.467-9.938-11.377-20.814-16.806-31.326-12.02-20.365-5.901-48.335-8.823-68.385 3.987 2.255 6.057 8.7 9.363 11.767 11.326 16.172 25.542 29.83 39.62 43.443 5.918 5.342 14.516 9.99 15.9 20.009 9.252 31.694 21.437 62.633 26.167 95.529.948 6.29 1.783 12.942 5.439 18.377 9.865 11.769 19.95-6.178 22.964-13.263 8.85-18.879 13.726-39.526 15.388-60.245 1.48-26.353-1.357-62.922-31.787-80.807-6.998-3.894-14.494-6.929-22.438-8.275-6.61-.362-10.071-4.17-13.39-9.007-10.108-12.705-19.667-25.864-27.948-39.835-8.381-13.406-15.327-27.602-21.809-41.997-4.43-9.367-8.07-19.058-11.928-28.668-7.943-33.81-20.797-67.487-45.537-92.897-11.358-13.303-25.881-23.91-41.283-32.029-16.36-8.301-34.466-11.554-52.289-15.024-15.17-3.378-30.531-5.901-45.971-7.424-14.39-1.063-28.948-.222-43.097-3.351-5.469-.65-10.911-1.545-13.264-8.259-4.957-9.626-11.082-18.542-17.698-27.078-5.4-7.936-13.49-12.931-21.34-18.112-13.392-9.015-26.559-18.39-39.962-27.377-8.466-6.84-20.455-12.661-29.481-21.47-11.302-13.338-21.333-31.485-28.78-45.585-8.312-17.308-18.26-34.246-23.839-52.672 24.042-9.627 45.666-26.243 60.795-47.41 7.483-10.64 14.521-21.891 18.615-34.33 2.267-6.228 4.196-12.579 4.932-19.194 1.547-7.337-2.49-12.144-6.842-17.069-12.249-15.742-32.467-28.822-49.118-35.89-19.924-8.738-41.52-14.477-63.402-14.107H1362c-.895-16.023-3.462-31.944-4-48 7.323-2.214 11.325-11.132 10.815-18.27-1.031-9.923-10.737-16.919-20.103-17.592-10.257-1.102-22.51 5.663-23.771 16.667-1.168 7.33 2.222 13.214 7.059 17.695-5.932 11.627-7.64 28.039-13.5 38.5-15.965-8.474-34.394-13.45-52.5-14-1.823-9.486-5.872-20.309-7.305-29.047-.627-1.651 2.168-3.06 2.842-4.219 5.355-4.903 5.852-13.91 1.058-19.364-6.873-8.343-21.915-7.66-29.069-1.926-3.973 3.04-6.979 8.015-5.9 13.166.851 5.315 5.23 8.823 9.374 11.64-3.01 10.616-.053 22.113-3 32.75-24.654 5.412-49.746 23.89-64.245 41.52-6.491 7.026-12.075 14.815-17.319 22.786-5.395 6.295-7.182 17.046-12.786 21.333-25.776 12.69-53.294 25.736-71.04 49.584-19.301 23.757-24.587 58.308-12.973 86.777 10.861 26.594 39.38 41.133 66.587 43.941 30.25 3.207 60.628-1.536 90.776-2.941 14.08 40.992 33.036 80.243 50.466 119.864 7.73 17.149 15.733 34.188 23.217 51.437 3.888 8.006 7.205 16.276 11.059 24.292 1.405 3.827 3.782 8.043 4.81 11.63.774 9.124-2.563 18.211-2.715 27.339-3.046 17.552-1.897 35.294-1.837 52.924.467 69.575-.777 139.16.93 208.707 2.237 50.56 1.719 101.162-4.384 151.446-1.47 8.837-2.232 17.795-4.139 26.545-3.042 15.425-15.663 28.093-16.294 44.34-.273 8.489 9.852 9.767 15.948 10.827 13.887 2.377 30.436 1.705 43.227 1.656 11.894-.198 26.9-.841 36.536-6.77 5.347-3.41 6.634-8.41 6.175-13.995.736-83.79 3.55-167.578 7.501-251.242.278 1.358.495 2.712 1 4 .41-.986.652-1.993 1-3 15.813 70.75 34.97 143.359 25.257 216.5-1.619 9.268-2.885 18.581-5.32 27.68-.838 3.365-2.178 7.597-.916 11.323 4.856 13.437 15.003 24.27 27.458 30.937 20.001 9.345 42.784 14.76 64.97 11.854 21.389-2.707 40.775-12.525 57.051-26.294 12.496 15.83 31.988 24.165 51.733 26.059 21.214 3.44 42.402-1.197 62.267-8.059v196h-194v1.5c2.622 9.49 5.892 18.888 8 28.5h130c-25.43 62.206-61.962 120.534-107.5 170-1.426-35.166.26-70.752-.5-106 10.508-1.197 22.966-7.413 29-15-30.147-24.01-61.799-46.637-92.5-70-10.5 9.705-19.933 20.396-29.733 30.733-5.182 4.653-10.403 11.117-15.518 14.966-6.54 2.72-16.328.315-23.249 1.301v-66c8.99-.614 18.331-9.496 18-18-34.398-2.34-68.633-7.331-103-10v93h-27v-65c9.265-1.332 17.327-8.193 18-18-34.41-2.327-68.649-7.04-103-10v94h-29v-98h343.2c12.748-.071 30.856 1.255 36.8-16.605-33.157-31.312-70.204-58.274-106-86.395-11.304 12.688-21.014 26.986-31.996 39.998a1480 1480 0 0 0-16.028 20.303c-5.14 6.28-9.042 15.08-19.976 13.699v-90c13.124-2.005 33.227-7.76 34-26-54.262-5.234-109.493-8.21-163.5-14-2.616 3.695-.867 10.26-1.5 15.295V1788h-50.4c-11.425.432-21.873-4.942-32.483-8.552-32.475-11.507-64.613-24.057-97.117-35.448v362.4c-.563 89.18 1.695 178.573-4.758 267.581-4.273 62.013-11.96 124.17-30.335 183.77a589 589 0 0 1-10.971 32.725c-2.42 4.622 5.259 8.158 8.159 10.05 3.973 3.104 8.71-4.611 11.38-6.501 55.822-55.628 90.656-129.163 108.464-205.211 9.574-40.07 14.782-81.133 18.243-122.112 1.59-21.437 2.262-42.967 3.117-64.443 1.23-21.083.036-45.97 1.701-65.259m461-849c6.865 28.15 13.821 56.399 18.513 85.026 2.254 12.737 4.287 25.546 5.693 38.396 1.391 12.028 3.388 24.612-.434 36.399-11.142 41.426-25.785 81.825-37.022 123.208-2.005 7.994-3.994 15.998-5.998 23.985-1.648 7.372-3.995 14.724-4.499 22.29-.184 6.676 11.045 9.066 15.437 11.404 12.615 3.778 28.599 4.335 40.432 1.972 5.496-1.22 11.732-3.75 15.91-6.804 5.347-3.453 5.114-9.112 5.689-14.696a2069 2069 0 0 1 3.69-30.496c1.923-8.885 1.466-19.92 4.078-27.847 11.44-28.781 23.143-57.505 32.718-86.97 11.03-29.774 18.888-60.754 21.755-92.426.967-11.579 1.946-23.134 2.064-34.764.192-7.117 9.486-12.14 13.751-18.638 14.491-16.663 28.932-38.74 36.409-57.54 8.975-25.611 6.508-58.556.065-82.109-7.744-24.826-23.465-47.37-43.925-63.376-21.611-17.193-48.984-22.437-75.547-26.522-27.646-4.324-56.159-1.826-83.334-9.502-6.6-2.051-16.42-2.437-19.764-7.85-6.385-11.67-12.094-23.836-19.95-34.644-6.723-9.91-17.662-15.707-27.184-22.48-16.677-11.847-33.75-23.098-50.546-34.768-13.126-8.255-22.331-20.728-30.379-33.832-12.148-19.707-23.902-39.802-33.107-61.101-9.07-20.983-19.366-46.436-22.515-67.315 19.669-2.683 39.999-15.649 54.56-25.786 16.089-11.682 30.922-26.569 37.44-45.714-16.31-15.6-36.93-26.987-59.335-30.508-22.289-3.562-46.468-1.96-66.165 10.008-17.563-21.24-43.608-35.067-71.249-36.552-27.302-.586-53.346 15.155-69.36 36.76-6.85 8.622-11.717 18.57-17.317 27.976-4.25 10.405-12.575 13.354-21.75 16.905-15.052 8.168-30.517 16.452-42.926 28.513-9.503 9.206-19.505 19.792-21.524 33.577-1.755 9.78-.484 20.29 4.866 28.877 9.083 12.977 25.931 16.569 40.794 15.944 16.208-.516 32.473-.402 48.639-1.568 13.186-1.056 26.399-1.575 39.591-2.477 3.08-.178 6.149-.44 9.226-.61 7.1-.998 7.541 5.735 9.343 10.21 26.716 73.064 60.858 143.099 92.447 214.061 4.02 9.451 10.55 18.713 7.755 29.073-2.954 20.343-6.966 44.55-5.52 63.493.897 18.705 6.685 37.094 17.545 52.429 9.662 14.82 21.864 27.739 33.558 40.904 5.16 6.548 12.467 11.509 15.834 19.367 6.913 14.558 10.819 30.304 14.996 45.768 15.19 59.758 29.742 120.385 33.662 182.135 1.718 23.993-.443 48.05-4.335 71.713-.877 5.282-2.397 10.448-2.884 15.784-1.332 4.448 6.07 7.53 8.738 9.502 8.73 4.612 18.843 5.317 28.504 5.216 9.393.751 18.34-1.954 26.645-6.134 3.553-1.62 7.654-4.07 10.007-6.82-.258-66.552-12.925-134.982-11.785-202.077-.46-33.86 1.102-67.837 7.397-101.19 1.632-3.01.594-9.714 4.293-10.34 14.63-2.354 29.431-3.954 43.985-6.916 14.394-2.358 28.291-6.872 42.325-10.523m-475.903-460.756c-.339 5.576 3.71 8.125 8.38 7.489 6.264-.367 11.333-4.43 15.197-9 3.224-3.267 4.912-8.024 3.995-12.577.125-5.331-8.683-5.487-11.73-4.228-7.584 2.31-15.806 11.415-15.842 18.316M1146 2107h29v-162h-29zm88-1333c1.838 9.612 4.131 20.434 12.674 26.697 7.912 6.457 22.326 5.18 29.042-.996 10.544-8.929 13.25-24.927 7.33-37.36-3.059-5.541-8.22-10.671-13.943-13.334-6.388-2.647-13.27-1.45-19.814-.418-7.091.89-14.163 1.842-21.255 2.664-2.998.375-6.02.74-9.034.747-.293 8.802 2.357 20.72 15 22m25 1333h28v-162h-28zm6 345c17.836-2.66 35.253-7.872 52.905-11.435 6.238-.491 6.785-5.372 6.095-10.534V2323h-59c-1.626 10.44-.708 21.067-1 31.673v49.597c1.032 15.365-1.365 33.76 1 47.73m22.426-1569.001c2.189 11.963 10.445 29.975 26.831 22.998 12.642-4.216 10.785-16.353 5.848-25.573-2.109-3.921-5.128-7.314-8.676-9.962-4.52-2.273-9.646-1.244-14.07.642-5.31 1.733-10.267 6.101-9.933 11.895m13.698 67.02c.99 11.173 7.52 22.916 12.982 31.155 2.835 4.279 6.435 8.759 11.7 10.034 5.386.962 11.98-1.043 16.205-3.424 15.358-9.007 1.47-29.931-4.064-39.334-4.422-7.889-10.658-17.802-23.053-13.647-5.861 2.1-13.68 6.68-13.77 15.215m22.034-115.202c.02 5.538 3.826 9.674 7.317 13.158 3.438 3.534 8.182 7.881 13.3 6.158 8.383-2.851 6.283-13.864 4.657-20.077-1.621-6.235-5.794-14.893-14.46-10.912-4.92 1.852-10.845 6.856-10.814 11.673M1425 753.5c-14.067-9.11-31.067-15.55-48.204-13.974-8.969.733-18.099 2.18-26.257 6.243-6.73 2.654-14.74 8.141-14.498 17.794-1.14 9.622 5.444 18.98 15.248 20.438 28.006 4.631 53.81-13.393 73.711-30.501m-82.934 282.27c.155 9.1 5.783 18.429 10.78 24.432 6.547 8.772 15.034 11.206 24.812 9.576 8.695-1.082 16.901-4.915 23.78-10.225 7.475-5.498 4.031-19.078 1.295-25.17-3.449-7.569-8.477-16.62-14.747-21.228-7.913-5.55-17.944-2.669-25.717 1.52-8.621 4.485-20.55 11.201-20.203 21.095m5.095-117.933c1.226 13.107 10.643 26.06 16.805 35.628 3.85 5.558 8.118 10.97 13.574 15.05 7.092 4.996 13.667.124 14.641-6.874 1.176-7.959-2.778-15.588-6.095-22.442-3.406-7.671-7.517-14.95-12.429-21.74-3.642-5.45-9.468-12.619-15.742-10.949-5.139 1.35-10.773 6.775-10.754 11.327M1433.5 1191c-9.812-9.8-21.351-17.88-33.311-24.84-15.357-8.378-23.529 15.29-26.63 24.893-2.425 8.538-4.73 19.417-2.865 27.496 5.119 6.688 14.676 10.693 21.129 14.378 13.385 6.721 27.357 12.47 41.94 16.029 14.926 4.394 31.895-6.553 42.322-15.839 4.72-5.057 9.693-11.776 11.66-17.86 2.357-7.804 1.174-17.629-.615-24.675-2.441-9.91-10.32-23.37-23.796-16.324-10.897 3.743-20.567 10.31-29.834 16.742m-61.5 916h31v-162h-31zm11.06-993.23c-.538 12.275 15.847 19.964 23.797 22.963 16.052 2.966 29.531 22.322 49.101 17.264 8.17-2.788 16.419-9.577 21.09-15.795 6.394-8.95 2.415-18.35-2.446-26.714-6.687-10.743-15.588-20.446-26.577-26.923-5.871-3.176-12.438-5.975-19.294-5.236-6.472.92-13.698 3.866-19.074 6.357-11.09 5.88-26.304 15.77-26.597 28.084M1505 2401c.751 10.81 1.406 21.633 1.78 32.475.374 8.398.903 16.804 1.179 25.195.187 2.451-.028 6.916 2.195 7.86 8.317 4.405 17.613 8.493 22.877 16.838 5.6 8.775 5.444 19.278 4.969 29.132l.5 1.5c17.788-32.434 33.858-66.493 44.5-102-9.63.497-19.638-.036-28.15-5.224-5.866-3.244-11.317-7.248-15.782-12.27-4.78-4.374-1.944-10.716-.83-15.544 1.89-8.355 1.607-17 1.76-25.492.031-4.223-.17-8.418-.448-12.62-.26-3.513-.166-8.503-2.05-10.85-20.491 30.54-45.15 58.032-72 83-4.241-3.943-12.217-4.547-15.5-9 16.9-31.653 29.13-65.76 41-99.5-5.527-.928-12.371 3.075-17.842 3.464-17.712 3.916-35.285 9.008-53.158 12.036.313 47.12-.382 94.299.206 141.399.138 6.86 4.874 8.866 10.529 8.58 9.737-.528 21.59 1.037 30.314-1.36 6.367-2.563 9.611-9.242 12.571-14.927 4.298-9.292 7.822-18.895 11.314-28.497a717 717 0 0 0 5.709-15.559c.81-2.59 1.946-5.049 3.311-7.384 1.864-1.57 5.536-.945 7.335-1.252zm-82.705-1120.03c1.33 13.078 13.183 17.857 21.181 26.006 5.805 5.61 14.079 11.365 17.471 18.198 5.611 10.513-9.253 26.6 3.109 36.178 5.253 5.105 12.437 5.471 16.649-.076 3.5-4.777 6.256-11.34 7.472-16.614 2.957-12.328 2.622-27.776-2.178-38.469-4.421-10.828-14.608-20.504-23.653-25.904-9.974-5.124-21.521-8.318-32.826-6.902-4.15.795-7.451 3.458-7.225 7.584m.85-273.96c.233 7.654 5.792 14.967 9.195 20.53 11.933 19.927 30.782 37.02 54.695 39.812 6.465 1.636 23.123 4.986 21.622-8.389-1.291-6.67-8.233-11.836-12.457-15.798-15.67-11.933-29.7-26.023-46.224-36.833-5.839-3.766-12.583-6.9-19.673-6.9-2.083-.302-4.27 1.658-5.822 1.87-.61 1.932-1.902 3.432-1.336 5.709m78.013 101.807c-.07 7.106 6.11 9.779 9.404 14.85 6.636 10.57-1.656 21.16-5.99 29.292-3.663 8.083.513 15.277 3.153 22.816 2.183 4.973 5.886 11.859 9.617 14.554 8.642 5.097 16.435-7.221 20.75-12.13 4.916-7.068 9.18-14.66 12.235-22.74 5.704-15.133 2.114-34.687-2.765-47.988-2.462-7.175-9.232-8.637-15.92-9.557-6.862-.823-14.073-1.694-20.745.643-4.11 1.325-9.708 4.84-9.74 10.26M1505 1690c.415 4.618 4.72 9.55 6.754 14.49 9.921 19.41 17.357 40.096 22.43 61.285 4.091 16.005 5.55 32.555 5.81 49.014.04 3.204-.19 6.647.685 9.717 15.902 16.236 39.617 24.324 61.962 19.99 21.327-3.984 39.887-20.7 46.293-41.376 5.576-16.384 1.165-34.36-6.866-48.907-11.414-20.252-31.679-33.703-51.363-44.686-21.248-10.279-43.929-17.26-67.031-21.909-6.411-2.351-13.156-1.684-18.674 2.382m6.067-438.273c.052 8.016 4.638 14.72 9.192 20.586 4.492 6.077 12.322 8.555 19.545 6.743 17.96-3.49 30.088-18.746 43.756-29.28 6.51-5.914 16.32-9.816 22.289-15.208 5.676-4.45 8.763-12.021 6.444-19.157-10.782-18.802-39.55-22.799-56.658-10.82-9.248 6.054-18.133 12.733-26.11 20.391-7.326 7.705-18.447 16.49-18.458 26.745M1557.5 1546c10.576-37.973 25.269-75.121 35.253-113.245-1.788-19.981-4.816-39.87-8.623-59.557-1.771-9.876-3.934-19.628-5.883-29.454-.516-5.844-6.737-4.454-10.99-3.668-4.74.758-9.592.787-14.257 1.924-6 67.903-3.6 136.343 4.5 204m6.5 741.625c7.618 3.48 15.381 7.517 22.639 11.829 3.715 2.458 7.5 4.832 11.024 7.549 3.54 2.078 7.028 7.026 10.337 7.997 3.693-28.666 10.28-57.05 12-86h-26c-8.872 19.756-19.256 39.999-30 58.625m12.031-1131.314c-.656 11.82 13.11 18.837 22.15 21.592 8.123 2.586 19.3 4.916 26.927 1.721 8.778-5.314 6.947-16.969 5.396-24.481-3.017-13.287-10.69-27.6-18.435-37.304-3.931-4.488-8.656-9.766-15.124-10.107-4.165-.942-6.854 7.044-8.837 9.09-6.016 11.822-11.364 27.02-12.077 39.489m62.381 80.725c1.176 15.864 2.306 34.54 7.566 48.274 1.518 3.457 3.352 8.728 6.84 9.713 5.704 1.938 12.153-3.486 16.669-6.023 4.914-3.305 9.316-7.277 13.518-11.424 5.455-4.877 11.988-11.227 14.26-17.78 1.76-8.402-1.214-17.061-1.372-25.465-.981-8.239-2.18-16.476-3.862-24.6-2.167-7.827-2.665-18.499-7.996-23.525-11.291-4.589-26.504 8.926-32.056 15.828-8.95 9.495-13.211 22.066-13.567 35.002m12.607-107.595c-.072 6.874 1.813 13.926 6.767 18.739 4.99 5.136 13.689 6.864 19.942 6.767 7.043.026 15.021-1.415 19.68-7.332 5.129-7.401 1.118-15.47-5.45-19.257-9.438-6.461-21.047-8.437-32.232-8.334-6.723-.675-9.055 3.504-8.707 9.417m3.45 213.605c.668 8.632 11.327 16.38 6.968 26.394-7.549 10.965-6.876 31.252 7.367 36.005 8.92 2.113 13.246-5.284 15.964-10.944 3.526-6.701 5.512-14.094 6.584-21.558 1.841-11.29 2.52-22.735 2.637-34.16-.553-7.16.462-18.798-5.527-22.57-6.647-2.895-15.25 6.854-20.087 9.532-5.332 4.624-13.092 11.076-13.905 17.301m51.606-162.265c.995 16.641 5.603 32.655 12.18 47.644 2.229 5.639 8.448 17.166 17.105 12.126 6.284-4.424 11.632-11.992 14.472-18.324 8.096-15.567 4.346-30.423-5.54-42.512-5.549-7.514-13.286-16.583-25.555-12.357-5.562 1.404-12.985 5.399-12.662 13.423M1801 2452h25v-223h-25zm14.5-612c29.713-16.778 58.79-34.936 87.528-53.347 14.45-9.374 28.601-19.143 42.619-29.136 7.608-6.94 16.875-3.094 25.957-6.06 7.414-3.152 16.84-7.846 17.396-16.457-47.807-18.444-95.998-36.874-143.5-56-7.055 27.434-10.982 55.955-18.823 83.3-3.674 13.947-6.799 28.028-10.603 41.933-1.872 6.725-3.545 13.51-5.645 20.164-.79 3.056-1.942 6.452-1.956 9.261 1.046 2.868 5.2 4.154 7.027 6.342" style="fill:#000;fill-rule:evenodd;stroke:none"/></svg>