<svg xmlns="http://www.w3.org/2000/svg" width="3000" height="3000"><path d="M244 2863.5c418.26 1.426 837.325-.26 1255.75.5 418.681-.76 837.643.926 1256.25-.5-137.483-816.352-271.828-1633.965-409-2450.5-141.513-45.746-282.358-94.352-423.703-140.74-105.839-35.248-211.646-70.575-317.47-105.817l-60-20a8496 8496 0 0 1-28.008-9.343c-4.68-1.543-9.347-3.083-13.982-4.729-5.086-2.015-9.193.742-14.014 2.193-139.528 46.49-279.049 93.006-418.557 139.507C931.703 319.858 792.72 367.853 653 413c-137.126 816.275-271.612 1634.71-409 2450.5m121-103c378.06 1.426 756.925-.26 1135.15.5 378.224-.76 756.71.926 1134.85-.5-76.741-453.454-151.165-908.013-227.36-1361.694-28.318-169.825-56.636-339.67-84.914-509.494-12.404-74.351-24.806-148.667-37.174-223.013-5.808-34.835-11.586-69.67-17.426-104.49-2.806-17.009-5.655-34.009-8.487-51.003-2.061-8.097-.64-19.437-9.177-21.482-131.865-43.994-263.778-87.9-395.636-131.881-115.321-38.443-230.674-76.858-345.973-115.337-10.828-4.817-25.392 3.12-38.034 6.794-99.317 33.105-198.64 66.201-297.954 99.3-86.85 29.002-173.745 57.9-260.6 86.871-37.993 12.7-76.016 25.304-114 38-17.528 6.855-36.304 10.872-53.484 18.502-3.065 2.546-1.722 9.059-3.405 13.135-91.308 547.827-182.596 1095.656-273.907 1643.478C432.872 2351.82 400.057 2557.407 365 2760.5" style="fill:#757575;fill-rule:evenodd;stroke:none"/><path d="M1115 2366.5c15.819-3.124 32.098-6.441 45.641-15.95 6.036-4.242 14.324-8.728 17.63-14.971 1.612-8.618.09-17.825.729-26.579h155v36c3.402.327 8.305-.45 11 .5-2.04 2.131-6.05 2.901-6.502 5.773.67 3.428 2.976 6.192 5.16 8.812 24.226 33.308 41.589 72.867 45.399 114.186.243 5.624 1.06 11.23.648 16.861.338 4.398-1.895 10.687.5 13.954 10.492 12.495 27.063 17.837 42.665 18.46 16.56-.405 32.317-8.85 41.717-22.507 11.308-16.113 13.97-36.761 10.147-55.847-6.356-27.756-26.713-50.327-49.595-66.098-23.02-15.638-49.593-25.028-76.2-32.373a91 91 0 0 0-4.939-1.221c15.722-.72 31.515-1.282 46.681-6.172a177 177 0 0 0 30.404-11.372c3.541-2.03 8.548-3.608 9.442-7.468 1.35-32.059-.245-64.328.473-96.427v-245.972c.274-2.67-.305-6.322 1.287-8.169 5.951-1.935 14.677-4.093 21.713-6.92v61c26.008 1.257 52.486-2.222 75.32-15.687 5.106-2.657 11.49-6.33 12.785-11.41 1.951-10.24.137-20.888.895-31.217V1935h36v71c27.79 1.162 55.663-3.772 80.863-15.95 5.208-2.775 13.823-4.962 14.041-12.848.274-22.16-.05-44.304.096-66.45V1760c10.642-.448 22.476-6.531 29.5-13 1.426 86.842-.26 174.083.5 261 24.468.835 49.242-1.802 71.715-12.084 10.373-4.78 24.457-10.118 23.284-22.112.004-12.931-.001-25.875.001-38.804h42v59c29.233 1.376 58.429-3.829 84.958-16.51 6.115-3.299 14.964-5.578 14.971-12.85.202-23.585-.037-47.192.071-70.776v-110.978c.106-5.589-.138-11.197.094-16.782.5-7.022 12.562-6.29 17.917-10.822 5.244-3.85 13.76-7.965 13.989-14.282-21.461-13.834-41.185-31.382-62.31-45.96-7.869-5.888-15.698-11.778-23.566-17.667-3.257-2.247-7.565-6.865-10.885-3.716-6.353 4.968-10.85 11.86-16.714 17.318-4.93 5.218-10.435 9.933-14.92 15.558-4.466 3.81-8.725 10.9-13.764 12.102-6.012.801-12.158.05-18.197.365-5.143.036-10.522.423-15.356-1.705-15.638-6.533-31.314-13-47.016-19.375-7.768-3.237-15.503-6.531-23.344-9.572-7.392-2.525-15.753-7.437-22.928-8.348-.742 19.905.908 40.207-.5 60-18.867-15.52-39.117-29.341-58.365-44.38-7.374-5.413-14.565-11.044-21.809-16.605-2.902-1.82-7.332-6.003-9.967-3.417-11.831 9.733-21.242 21.94-32.092 32.635-16.933 22.419-45.547 6.602-64.882-1.126-10.421-4.503-20.964-8.716-31.398-13.17-10.032-3.688-21.346-9.883-30.987-11.937-.76 84.568.926 169.55-.5 254-14.271-11.931-28.24-24.248-42.43-36.263-11.033-8.542-20.746-18.748-31.99-27.009-4.388-3.837-9.951 3.749-12.556 6.449-12.51 14.048-25.666 27.646-38.726 41.149-3.627 2.815-10.339 1.083-15.341 1.674-15.383-.716-31.188.883-46.457-.5 25.854-18.642 49.339-40.274 73.218-61.276 8.817-8.42 17.95-16.49 26.384-25.326 7.353-8.168 14.735-16.867 26.22-17.37 9.211-1.873 21.357-2.957 26.957-9.465 3.15-3.332-3.483-7.048-5.134-8.97-22.515-19.959-44.773-40.205-67.252-60.189-5.448-5.17-11.41-9.749-16.854-14.91-4.02-2.886-7.845-8.066-13.113-10.494-6.53 3.534-12.48 12.148-18.296 16.87-5.825 6.133-12.207 11.766-17.748 18.145-6.527 7.077-15.134 16.166-23.013 23.091-5.843 2.87-12.126.383-18.393 1.394H1231c5.67-14.18 14.208-27.268 19.488-41.681 2.3-5.256 4.475-10.567 6.8-15.8 2.205-5.983 7.436-5.863 12.666-6.026 8.774-.724 17.474-3.848 23.52-10.476 3.944-3.429 9.85-12.302.76-14.071-18.898-6.34-38.548-10.561-57.234-17.446 44.939-4.71 89.387-17.123 129.83-37.427 8.654-3.635 19.604-11.873 27.683-12.054 39.878-.296 81.143-3.663 118.107-19.92 13.829-6.902 29.413-16.929 39.613-26.832 5.413-5.569 11.087-10.875 16.377-16.548 4.707-5.5 13.513-7.432 19.136-10.56 26.212-11.402 51.333-25.559 74.231-42.631 5.198-3.717 10.091-7.763 14.844-12.03 2.15-1.759 4.867-4.774 7.313-3.558 10.843 4.075 21.066 9.8 31.03 15.647 9.129 5.71 18.478 12.572 22.918 22.713 4.248 10.49 1.693 22.699-3.52 32.24-4.708 8.042-11.124 15.571-12.903 25.002-.919 4.653-1.06 10.592 1.035 14.54 4.612 8.06 14.673 10.135 22.962 11.951 17.737 3.166 36.085 2.275 53.733-.613 14.005-2.704 29.971-10.162 39.213-19.522 18.929-18.464 25.589-45.835 28.795-71.054 2.59-21.541 1.15-43.35 1.603-64.98v-49.595c.387-11.499.628-23.609-5.412-33.946-8.416-14.276-24.075-22.218-39.194-27.36-15.467-5.149-34.44-9.161-49.394-9.963 4.039-15.408 10.882-30.131 14.636-45.68 4.669-15.782 7.407-32.16 9.864-48.32 9.727 9.176 22.855 16.288 36.5 16-2.422 15.472-2.348 32.603 8.082 45.458 10.526 15.005 26.472 16.366 41.86 15.475 26.775-1.216 51.781-27.909 57.394-50.406 3.332-13.945.825-29.293-7.931-40.843-7.052-11.29-20.856-22.738-20.353-35.12 1.574-18.41 2.635-36.858 1.07-55.314-.367-26.824-2.87-53.829-12.583-79.084-8.71-23.22-22.562-45.917-43.061-60.566-6.438-4.526-14.487-9.621-21.478-11.6-.069-90.314-35.808-180.665-101.233-243.733-30.562-31.99-68.718-55.798-109.014-73.315-43.551-18.31-91.357-25.193-138.39-22.472-49.505 1.96-97.973 18.06-138.072 47.385-34.646 24.422-61.477 58.074-84.602 93.067-9.723 14.498-18.108 29.972-29.083 43.597-22.216 26.707-56.011 38.239-83.913 57.052-12.449 8.376-23.659 19.175-29.549 33.237-6.908 13.82-3.524 31.982 9.617 40.718 24.175 16.688 55.468 16.632 83.424 13.392 47.28-6.04 87.15-34.88 121.775-65.437 25.822-22.636 50.686-47.14 81.224-63.582 23.694-13.218 59.062-16.597 81.608-4.966 19.484 10.596 21.982 32.321 19.83 51.934-1 7.754-3.936 15.351-8.766 21.511-4.36 5.954-10.073 7.37-16.424 8.764-21.421 6.718-42.877 14.297-62.28 25.779-19.027 11.247-37.635 24.724-50.258 43.244-5.928 8.33-10.178 19.776-12.044 28.9-1.043 5.091-.804 10.271-.902 15.413-1.253 8.434-5.945 17.127-4.934 27.507-.407 16.698 1.495 33.542 7.265 49.32 3.016 10.61 10.474 22.81 9.35 33.322-1.881 9.53-11.305 12.101-14.482 20.058-3.059 5.812-2.902 14.709.952 19.503 7.425 8.242 19.392 6.4 28.271 6.802 10.066.759 19.9-.623 29.63-3-5.074 20.183-13.607 39.676-18 60-32.242-8.465-65.469-19.358-99.493-14.063-23.989 2.495-45.06 17.5-56.306 38.581-16.014 26.164-16.012 69.408-52 88.366-13.677 7.63-38.883 8.672-36.116 32.204 1.754 19.867 24.236 25.433 36.915 32.412-12.46 6.84-25.381 13.781-39.631 16.134-13.968 3.207-28.405 1.95-42.578 3.599-22.067 2.524-45.706 11.6-56.99 32.215-9.354 15.742-9.966 34.503-7.118 52.09 1.645 12.135 7.274 25.794 13.183 35.249 4.398 8.423 11.442 14.594 17.941 21.168 2.678 6.458 2.045 14.765 5.193 21.34 6.764 19.307 20.364 37.49 39 46.705-9.858 63.668-26.692 126.245-47.65 187.119-10.334 28.962-21.546 57.586-34.227 85.6-6.489 14.635-13.986 28.768-21.06 43.125-3.564 6.517-7.65 14.194-10.984 20.135-3.111 6.275-8.994 13.284-9.079 20.021 5.35.83 9.27 8.568 14.925 5.694 14.83-10.295 30.223-20.45 43.575-32.694 1.426 129.163-.26 258.753.5 388h29c4.01 23.898-5.014 52.029-12.095 72.253-7.798 19.092-17.913 37.625-32.3 52.641-5.9 6.895-13.6 11.6-20.78 16.932-11.981 10.684-24.203 27.132-25.058 42.522-4.283 34.734 23.148 59.392 53.94 59.508 23.027 2.252 44.223-10.833 56.8-29.265 19.164-28.823 25.756-64.285 26.486-98.292-.504-34.72-9.537-68.774-21.764-101.029-2.368-5.37-4.444-12.152-7.229-16.77m171-840.5c4.753 11.627 21.015 24.69 32.06 18.68 10.505-6.92 14.676-19.715 15.798-31.616.535-2.714.49-6.437 2.4-8.116 17.725-10.45 37.984-16.273 57.343-22.838 15.056-4.265 31.12-8.19 46.897-5.336 6.89 1.143 9.823 6.695 8.094 12.8-2.89 9.338-14.45 14.183-21.451 17.831-5.98 3.138-12.937 6.942-18.76-.4-7.14-6.441-19.694-16.129-28.533-4.021-6.143 9.061-8.655 22.3-9.848 32.016-18.512 9.2-36.172 20.606-54.717 29.868-18.632 8.715-40.285 20.417-58.283 26.132-.556-10.668-15.675-34.092-28.617-17.482-6.893 7.97-10.676 17.747-12.999 27.805-.915 3.374-5.602 4.026-9.175 4.717-11.029 1.776-22.166.982-33.209.96-.515-9.333-3.82-18.56-9.2-26.191-2.664-3.539-6.492-7.609-10.652-8.31-4.332.167-9.303 3.988-11.979 6.014-2.533 3.452-11.532 8.758-9.982 14.495 1.28 6.2 6.458 11.944 10.288 15.967 5.208 5.847 12.249 9.362 19.556 11.803a118 118 0 0 0 13.574 3.44c7.463 1.598 15.055 2.425 22.672 2.681 56.666 2.737 111.88-14.235 162.455-38.414 5.896-2.973 11.547-6.503 17.608-9.162 6.363-3.217 13.78-2.125 20.652-2.644 25.749-.812 51.77-2.4 76.691-9.45 16.69-5.096 32.945-12.804 46.07-24.51 5.31-4.269 9.995-9.102 14.343-14.326 4.084-3.544 7.732-10.802 12.073-12.55 35.779-15.74 74.213-32.622 100.831-62.343-9.482-8.88-16.063-21.345-16-34.5h40c1.118 10.616 17.07 15.946 24.185 18.904 24.253 8.721 55.402 10.86 78.428 5.65 12.408-3.004 24.65-7.443 35.375-14.458 10.53-6.512 21.739-17.298 20.282-30.005-2.505-11.198-12.188-15.703-21.855-19.424-14.702-5.161-33.1-7.333-47.306-7.797-16.02-.832-32.168-1.097-48.109 1.13.015-5.818 3.633-10.773 5.934-15.86 18.166-37.438 32.01-77.089 36.968-118.553 4.974-43.57-2.399-87.152-4.902-130.587h22.8c3.596.005 7.205-.007 10.797.004 9.148-1.29 7.48 7.542 7.601 13.713.855 11.73 3.866 23.233 8.5 34.006 7.843 21.082 29.322 28.233 48.362 22.373 16.468-4.08 22.131-17.92 23.807-32.165 2.63-22.976.818-46.653-5.84-68.83-5.499-19.81-16.73-42.108-30.63-55.203-9.684-10.453-22.687-17.315-36.397-20.898 1.332-84.17-30.538-168.565-88.395-229.895-27.846-29.443-61.874-52.633-99.157-68.368-40.8-17.454-85.975-22.301-129.921-19.034-35.214 2.638-69.699 13.06-99.613 31.996-22.388 13.173-40.514 32.304-56.827 52.196-24.616 29.668-39.321 67.019-67.957 93.475-13.41 13.932-29.845 24.428-46.574 33.827-8.908 4.3-17.647 8.9-26.283 13.68-7.394 4.183-19.08 8.927-20.273 17.123 17.21 6.32 36.307 4 53.875.935 31.109-7.237 57.986-26.276 82.101-46.413 21.488-17.916 41.805-37.275 64.104-54.21 19.829-14.22 41.06-27.407 64.7-34.242 36.882-9.388 92.477-10.362 121.188 31.618 18.095 28.433 17.774 71.793 4.284 98.96-5.244 11.136-13.551 20.41-22.97 28.23-9.312 5.258-20.741 5.638-30.46 10.023-17.719 6.012-35.47 12.867-51.297 23.058-11.468 7.238-22.821 15.77-30.759 26.966-5.073 7.53-9.526 18.786-2.818 28.66 22.944 30.62 64.026 19 92.052 14.415-12.606 49.562-32.37 97.503-46.416 146.74-16.022 48.685-31.629 97.564-47.584 146.26-5.708-.249-9.43-5.475-14.08-8.076-17.253-11.042-39.085-20.397-60.049-14.363-16.82 6.342-31.956 18.412-40.768 34.266-8.66 14.76-10.14 31.851-11.563 48.389-18.463 18.951-44.251 37.534-64.477 50.82-17.532 11.555-37.745 19.043-58.285 22.95-16.287 3.171-36.298.525-50.967 4.952-13.12 2.923-20.316 12.8-20.295 24.899.671 17.858 8.789 34.344 20.078 47.911 3.135 4.376 7.533 4.625 12.212 4.13 14.211-.574 28.3-2.534 42.35-4.528 20.222-2.949 40.012-8.2 59.639-13.732 9.573-2.674 18.893-6.168 28.361-9.177 9.492-2.32 19.785-8.798 28.844-9.441m-164.994-12.568c-.844 9.002 6.056 14.181 13.895 13.369 8.862-.017 13.2-6.757 12.062-14.371-.052-3.535-.493-7.432-3.355-9.783-3.016-2.004-6.738-2.664-10.306-2.537-8.228-.241-12.948 5.966-12.296 13.322M1145 1903.5c14.354 6.71 29.962 11.4 44.633 17.513 8.78 1.946 17.983.357 26.88.987H1244c10.636-39.201 21.524-78.815 28-119h-58c-18.974 35.847-43.298 69.2-69 100.5m15 464.5c.265 8.3 2.652 16.401 3.59 24.63 4.048 31.675 6.531 63.705 4.547 95.647-.607 12.026-2.207 23.998-3.985 35.886-.505 9.304-4.983 19.881-4.712 28.39 1.099 4.437 5.102 7.22 8.035 10.422 12.205 13.63 28.483 17.174 44.562 12.441 23.238-7.32 35.831-31.57 39.596-54.005 4.714-25.244-.642-51.323-11.149-74.37-13.716-31.445-37.702-57.675-63.665-79.418-4.606-3.792-11.9.632-16.819.377m19-276h34v-139h-34zm0 186h34v-156h-34zm2.032-758.69c-.593 9.408 6.167 14.61 14.156 13.624 9.951.544 13.929-6.084 13.378-14.385-.173-3.642-1.084-7.614-3.95-10.1-3.082-2.734-7.564-2.447-11.37-2.421-8.052-.322-12.638 6.063-12.214 13.283M1281 2535c4.475 1.481 8.05 7.927 13.475 9.959 16.696 11.527 40.48 10.796 55.474-3.488 15.659-14.044 20.401-36.163 18.85-56.234-2.812-34.717-25.535-64.095-50.174-86.73-11.563-9.894-24.023-18.676-37.174-26.317-6.47-3.833-14.29-7.976-20.399-11.164-3.537-1.449-8.377-5.002-11.692-4.27-3.953.513-7.905 3.33-11.36 4.244.582 7.194 5.938 14.381 8.17 20.385 21.757 48.104 36.35 100.462 34.83 153.615m16-443h37v-139h-37zm0 186h37v-156h-37zm126-865.692c-1.377 18.107 15.352 33.75 32.81 32.454 17.19-.039 31.78-16.2 30.17-33.302.861-17.654-16.11-31.758-33.163-30.217-15.622.635-30.823 14.667-29.817 31.065M1455 2215h101c-7.169 31.238-17.99 61.543-28.166 91.883-5.703 14.942-10.941 30.074-17.122 44.83-2.857 7.424-6.199 14.673-9.218 22.025-2.162 6.796-7.912 15.31-8.494 21.262 26.28 8.13 53.582 15.49 81.375 15 20.617.42 41.863-.947 60.925-9.702 6.91-2.834 8.402-12.478 10.925-18.527 4.524-12.474 9.294-24.86 13.523-37.44 1.833-4.554 3.38-9.23 5.062-13.834 1.306-4.712 9.038-3.193 12.54-3.497H1778c-2.97 24.47-5.422 49.069-10.544 73.234-3.441 18.084-7.59 36.212-15.549 52.946-5.205 12.708-17.397 21.387-31.234 21.646-44.36 1.98-88.416-5.257-132.673-5.826v14c30.489 5.057 61.916 15.43 85.593 36.132 12.158 10.495 18.876 25.513 21.309 41.154 2.681 16.073 4.132 32.405 4.098 48.714 29.45-.042 59.226-2.261 87.696-10.057 19.793-5.52 39.008-14.241 55.154-27.044 24.05-19.632 37.865-48.64 46.89-77.6 9.564-30.841 15.091-62.779 19.534-94.703 2.301-16.814 4.282-33.697 5.726-50.596 10.221-1.112 22.346-4.415 30.319-9.562 3.47-2.02 11.043-7.177 6.81-10.94-3.586-3.41-7.625-6.347-11.326-9.633-10.1-8.198-20.431-16.112-30.273-24.615-16.821-13.47-33.37-27.262-50.174-40.745-4.172-3.623-8.554-6.978-12.785-10.517-3.005-1.981-6.837-6.71-10.061-6.406-9.103 7.764-17.996 15.954-26.743 24.15-8.038 8.173-17.207 15.07-25.242 23.243-5.619 5.008-12.775 13.611-21.568 13.025-28.921-.76-58.11.926-86.957-.5 9.703-26.789 18.296-54.324 27-81.5h226.2c15.965-.597 37.738 3.222 48.135-8.066 2.32-2.497 3.708-5.963 3.185-9.376-2.432-5.55-9.793-10.265-13.495-15.033-17.769-17.445-37.386-32.893-56.05-49.338-7.237-6.009-14.637-11.843-21.739-18.003-3.232-2.634-6.357-5.419-9.669-7.943-2.78-1.949-6.187-5.86-9.187-5.758-5.84 4.26-8.119 10.846-13.062 16.132-14.543 20.013-28.689 40.32-43.41 60.19-2.111 2.256-3.478 6.049-6.224 6.744-24.841 1.286-49.9-.234-74.773.451H1448c.185 10.381 6.263 19.722 7 30m4.496-1485.558c2.376 5.42 6.22 10.35 9.336 15.282 2.556 4.975 6.708 12 13.71 6.645 16.89-10.096 33.852-3.252 46.113 8.214 3.69 3.602 7.49-3.578 9.627-5.336 4.29-4.564 9.95-9.438 13.226-14.172.65-5.837-8.917-9.488-11.988-12.747-11.126-7.403-24.291-12.004-37.662-12.291-13.56-.505-26.785 3.877-38.518 10.371-1.342 1.082-3.89 2.45-3.844 4.034M1475 1318c10.53-1.256 19.722-7.8 30-10-.736-7.776-4.957-15.18-3.806-23.243.778-11.259 7.978-20.576 16.48-27.287 4.579-3.96-1.45-11.018-3.592-14.438-2.136-4.579-7.085-9.886-8.082-14.032-7.088.333-14.39 8.433-20.02 14.032-5.083 6.187-9.775 12.861-12.316 20.546-6.2 17.58-3.975 36.982 1.336 54.422m34 766h376.2c12-.485 40.808 3.808 44.196-16.371.745-2.898-3.431-5.63-4.871-7.604-16.669-15.755-34.584-30.03-52.157-44.738-8.867-7.216-17.757-14.432-26.59-21.686-4.478-3.671-8.876-7.413-13.446-10.964-4.194-3.294-9.128-8.4-14.332-8.637-14.44 22.324-32.993 42.58-48.16 64.573-3.208 3.816-6.263 8.907-9.463 12.183-3.534 3.252-10.284 1.943-15.51 2.244h-183.954c-19.327 1.021-42.29-1.355-59.913 1 1.713 10.205 5.936 19.868 8 30m20-930c10.555-.332 19.772-7.092 30-9-.782-9.311-6.374-19.55-2.162-30.711 2.907-8.494 10.399-18.12 18.162-21.289-1.7-10.325-12.799-18.767-15-28-4.694.204-8.026 4.12-11.628 6.723-10.17 8.165-17.646 19.65-21.433 32.019-5.05 16.438-2.933 34.16 2.061 50.258m23 751h37v-156h-18.6c-5.754.315-13.872-.648-18.4 1zm34-896c10.511-.663 18.991-11.856 28-14-2.724-10.653-11.68-22.528-5.755-36.168 1.398-4.504 3.943-8.577 6.9-12.209 2.491-3.047 7.094-6.442 3.993-9.649-4.293-5.74-9.506-10.682-14.309-15.959-1.644-1.84-3.768-4.827-6.293-4.45-13.874 11.04-23.208 31.812-23.536 47.858-.586 12.02 1.954 23.851 6.755 34.827 1.139 3.236 3.64 6.637 4.245 9.75m7 353c8.349-.338 15.714-5.143 23.555-7.427 1.823-1.087 4.634-1.65 5.69-3.176.628-6.085-3.004-12.27-2.53-18.537-1.243-12.479 6.81-23.402 16.033-30.706 5.571-3.706-1.013-11.438-3.449-15.231-2.345-4.473-6.922-9.992-8.299-13.923-8.313.681-16.04 11.228-20.897 15.9-5.67 6.693-9.91 14.354-12.164 22.842-5.568 16.532-2.116 34 2.061 50.258m24-558c9.382 2.314 17.832 8.533 23.163 16.57 6.151 9.046 6.485 19.956 5.837 30.43 10.383.28 20.633 2.583 31 3 2.255-17.623-.62-36.223-10.01-51.45-9.012-13.23-25.772-26.89-40.99-28.55-1.488 10.36-7.507 19.642-9 30m60 385c-.502-7.373-4.15-15.101-2.964-24.02.372-12.705 9.387-19.877 17.658-27.876 2.981-4.311-4.705-11.07-5.768-14.694-2.13-4.383-6.666-9.604-7.926-13.41-4.354.315-8.76 4.684-12.392 7.897-10.6 9.461-19.22 21.466-21.612 35.833-2.458 12.4-.694 27.638 1.488 38.802.862 2.363 1.832 7.31 4.686 6.9 9.101-2.522 17.672-7.062 26.83-9.432m50-159c-.112-6.048-4.046-11.2-5.678-16.856-3.554-10.767-.683-22.575 6.502-31.154 2.268-3.097 6.636-5.874 5.47-9.567-4.134-5.085-9.498-10.684-13.488-15.177-2.572-3.687-6.397-8.604-11.104-3.31-10.272 11.071-18.959 24.793-19.745 40.393-1.905 12.058 1.12 26.474 5.078 36.774 1.478 3.487 2.735 7.17 4.968 10.27 2.814 5.156 10.999-2.564 13.995-3.666 4.593-2.002 10.018-6.548 14.002-7.707m82 875h42v-155h-42z" style="fill:#fff;fill-rule:evenodd;stroke:none"/><path d="M1551 1906h2v-156h37v-2h-19.8c-5.992.366-14.456-.7-19.2 1z" style="fill:gray;fill-rule:evenodd;stroke:none"/><path d="M1168 2474h2v-13h-3c.002 4.362 1.198 8.638 1 13m225-896v-2c-2.948-1.133-5.278-.869-8 0 .137 1.886 1.802 1.96 3.274 2z" style="fill:#131313;fill-rule:evenodd;stroke:none"/><path d="M364 2760.5v1.5h2272v-1.5c-68.931-409.09-136.257-818.54-204.874-1227.691-51.076-306.848-102.33-613.661-153.4-920.497-4.868-28.824-9.564-57.688-14.431-86.508-1.116-7.008-2.365-13.985-3.488-20.978-1.2-6.774-.246-15.245-9.425-16.859-109.868-36.632-219.702-73.24-329.563-109.867-95.996-32.013-192.02-63.992-288-96-41.993-13.978-83.98-28.011-125.966-41.994-5.663-2.605-10.407-1.693-15.513.621-156.173 52.06-312.354 104.114-468.521 156.173-58.68 19.531-117.334 39.097-175.992 58.657-25.668 8.506-51.298 17.139-76.962 25.643-6.176 2.075-12.369 4.11-18.537 6.195-3.02 1.124-6.483 1.813-8.8 4.255-62.934 375.423-125.132 751.075-187.889 1126.544C490.857 1998.664 428.048 2380.37 364 2760.5m750-395.5c16.102-1.769 31.966-6.681 45.641-15.45 6.036-4.242 14.324-8.728 17.63-14.971 1.612-8.618.09-17.825.729-26.579h157v36c16.068-.148 32.302.822 48.204-2.024 11.416-2.15 22.784-4.86 33.554-9.281 6.951-3.276 16.376-5.865 21.529-10.965 2.093-2.247 1.593-6.502 1.713-9.879v-335.362c.238-2.691-.186-6.68 1.978-8.098 7.946-1.558 15.548-4.418 23.022-7.391v62c25.384 1.251 51.087-2.646 73.32-15.687 4.75-2.493 10.941-5.951 12.633-10.908 2.177-9.961.266-20.435 1.047-30.52V1934h38v71c27.143 1.08 54.269-4.2 78.863-15.95 4.953-2.823 13.389-4.723 13.977-12.228.456-21.747-.083-43.534.16-65.273V1759c12.033-.241 22.295-7.238 31.5-14 1.426 87.197-.26 174.734.5 262 24.2.937 48.551-2.327 70.685-12.485 8.67-4.37 23.387-9.056 22.314-22.272.003-12.75 0-25.507.001-38.243h44v59c28.434 1.324 56.673-4.222 82.508-16.29 5.383-3.09 14.786-5.62 15.31-11.907.518-23.376-.093-46.764.182-70.139v-88.183c.61-14.675-.753-29.499.428-44.132.998-2.852 6.431-2.767 8.518-4.175a39.8 39.8 0 0 0 13.38-6.77c3.323-2.453 8.797-5.826 9.674-9.404-32.031-21.187-61.644-47.405-93.5-69-6.141 5.547-11.326 11.99-16.975 17.975-4.99 5.232-10.426 10.052-15.143 15.54-3.901 4.563-8.86 9.942-13.429 13.02-6.04.784-12.192.3-18.268.465-5.079-.203-11.23.461-15.788-.777-31.422-12.338-62.385-26.201-93.897-38.223-.74 20.27.907 40.804-.5 61-29.735-22.176-59.285-44.811-89-67-11.286 10.49-21.51 21.973-32.102 33.102-4.385 3.55-8.44 9.797-12.986 11.417-5.585.966-11.318.157-16.943.481-9.19.944-17.512-2.783-25.569-6.664-23.992-10.38-48.357-20.154-72.4-30.336-2.185 85.102 1.185 170.94-1 256-26.566-21.898-51.849-45.96-79-67-14.504 15.339-29.401 30.343-43.338 46.189-3.989 5.373-9.444 5.187-15.14 4.811H1273.5l-1.5-.5c26.706-18.783 50.89-41.119 75.441-62.561 12.308-11.43 24.575-22.84 36.161-35.041 9.173-13.405 33.728-4.47 45.398-19.398-34.296-30.347-68.51-60.808-102.5-91.5-14.197 13.747-27.867 27.984-41.37 42.37l-10.5 10.5c-2.77 2.036-5.267 6.432-8.441 6.685-12.318 1.221-24.83-.183-37.189.445 7.907-18.114 18.07-35.425 24.963-54.055 1.96-4.012 3.18-10.483 8.979-10.878 7.372-.646 15.022-1.392 21.661-4.975 6.858-3.192 10.91-9.392 14.397-15.592-3.882-2.898-10.741-3.486-16.03-5.507-17.309-5.208-34.696-10.221-51.97-15.493 41.282-5.247 82.666-13.938 120.634-31.7 7.27-3.032 14.187-6.798 21.247-10.247 6.524-2.94 12.506-8.305 20.005-8.51 54.914.76 114.84-7.129 157.216-45.645 9.34-9.122 19.293-21.162 30.53-25.598 36.422-15.458 72.077-35.132 100.704-62.8 17.529 7.694 35.15 16.354 49.844 28.837 13.845 11.447 11.526 35.744 2.445 48.949-6.096 8.972-20.1 29.4-4.783 40.003 11.966 7.513 26.869 7.353 40.36 8.155 23.43.563 48.903-4.435 66.898-20.563 12.943-11.644 21.8-30.662 25.33-45.989 7.93-27.613 6.683-56.605 6.57-84.952v-44.812c-.173-13.986 1.705-28.921-4.71-41.947-7.876-15.092-24.118-23.232-39.436-28.572-15.913-5.238-35.434-9.582-50.854-10.109 10.27-31.64 23.125-63.288 25-97h1.5c4.932 5.167 11.095 8.884 17.303 12.294 3.338 1.703 7.56 3.066 10.852 3.987 3.321 1.016 7.73.293 10.345 2.219-5.67 16.5-1.027 37.21 11.793 49.273 18.084 16.479 50.004 11.434 65.668-2.118 19.735-13.445 37.825-43.842 22.392-71.69-8.326-15.157-25.843-27.23-23.66-45.04.356-9.485 1.177-18.927 1.756-28.388-.054-9.667-.896-19.33-1.101-28.99-.728-29.361-4.646-59.357-18.048-85.954-11.158-24.747-34.302-50.897-58.8-58.593-.069-90.314-35.808-180.665-101.233-243.733-63.371-65.908-155.883-102.203-247.162-95.69-25.885 1.164-51.528 6.464-75.918 15.046-42.172 15.963-79.861 42.445-108.876 76.958-13.58 14.195-24.55 30.518-35.154 46.959-10.041 14.381-17.938 30.277-29.159 43.824-21.785 27.038-55.527 38.873-83.568 57.344-12.386 8.318-23.953 18.795-30.103 32.688-7.792 13.624-4.084 31.934 9.333 40.445 24.488 16.362 55.957 16.584 84.054 12.618 46.902-7.005 86.345-36.097 120.717-66.722 25.9-22.64 50.966-47.357 81.95-63.181 12.798-6.472 27.112-10.144 41.423-10.534 12.275-.7 24.871-.424 36.128 5.24 21.204 8.324 25.965 33.628 23.623 51.772-.55 13.632-7.544 30.96-25.086 33.973-21.624 6.7-43.244 14.368-62.817 25.924-19.027 11.247-37.635 24.724-50.258 43.244-5.928 8.33-10.178 19.776-12.044 28.9-1.043 5.091-.804 10.271-.902 15.413-1.253 8.431-5.945 17.13-4.934 27.505-.398 16.613 2.087 33.276 7.817 48.917 3.08 10.285 10.406 23.03 9.017 33.107-1.189 9.136-10.993 12.727-14.23 19.763-3.322 5.776-3.83 14.047 1.15 19.159 8.513 7.681 18.99 5.64 29.349 6.061 9.839.531 19.51-1.178 28.883-4-7.222 21.083-12.678 43.187-20.5 64-27.94-9.537-57.292-16.737-87.018-15.98-21.415.164-42.726 8.769-56.906 24.985-10.393 11.204-16.523 25.235-21.506 39.42-6.677 21.629-13.37 45.698-33.64 58.88-9.367 7.423-21.322 9.765-31.812 14.889-12.703 5.299-14.629 20.134-8.123 30.276 8.731 11.34 22.184 17.839 35.505 22.03-10.79 8.69-26.619 14.274-38.646 17.527-13.862 3.426-28.108 3.203-42.29 3.881-22.322 1.946-46.197 10.223-58.88 30.073-9.862 15.277-11.79 33.66-8.66 51.24 1.378 12.611 7.241 26.783 13.342 36.566 4.398 8.423 11.442 14.594 17.941 21.168 2.678 6.458 2.045 14.765 5.193 21.34 6.764 19.307 20.364 37.49 39 46.705-8.718 63.852-26.755 126.31-46.986 187.347-10.501 28.881-21.361 57.683-34.085 85.664-6.548 14.486-13.686 28.645-20.857 42.824-3.656 6.902-7.321 13.784-11.069 20.638-2.95 6.107-9.157 13.844-10.003 19.527 3.61 1.118 7.59 4.81 11.5 7 16.076-11.03 31.904-22.637 47-35 1.426 129.539-.26 259.402.5 389h29c4.057 24.052-4.28 52.508-11.556 72.898-7.421 19.25-17.818 37.47-31.7 52.825-5.923 6.84-13.214 12.125-20.704 17.08-12.14 10.425-24.758 26.732-26.1 42.013-2.75 14.253 3.57 31.96 12.67 41.277 16.807 20.247 52.573 22.334 72.229 10.475 17.114-9.013 27.512-26.787 35.49-43.485 11.52-28.972 16.35-60.766 13.854-91.82-2.843-30.338-11.216-59.838-22.495-88.046-1.654-4.956-5.103-10.397-5.688-15.217m171-838c4.959 12.114 21.108 24.318 32.665 19.376 11.652-6.19 15.925-20.182 17.193-32.312.535-2.714.49-6.437 2.4-8.116 17.347-10.31 37.237-15.936 56.172-22.503 14.988-4.025 31.128-8.936 46.836-5.43 6.735 1.42 9.453 7.681 6.31 13.295-5.306 7.87-13.88 12.369-22.333 15.959-2.86.336-7.172 4.19-10.255 2.65-8.827-7.492-21.702-19.873-32.299-10.962-8.741 8.788-11.203 24.412-12.689 35.043-18.156 9.114-35.664 20.147-53.816 29.395-18.332 10.023-37.985 17.43-56.684 26.605-3.034-8.96-6.342-18.571-15.186-22.63-10.28-5.128-17.498 6.378-21.587 13.564-2.575 4.381-4.89 9.041-5.973 14.039-.643 4.585-1.641 8.198-6.17 9.088-11.295 2.956-25.08 1.636-35.584 1.939-.517-9.478-3.92-18.808-9.432-26.515-2.897-3.575-6.803-7.92-10.995-8.13-4.616-.216-9.328 3.215-12.583 5.469-4.642 4.045-10.519 9.345-11.448 14.635.933 6.59 5.046 12.262 9.463 17.002 5.628 6.69 13.276 10.992 21.568 13.49 5.08 1.658 10.325 2.722 15.547 3.743 8.379 1.46 16.862 2.347 25.381 2.303 59.271 1.7 117.572-17.076 169.647-44.07 5.472-2.45 12.121-6.965 18.64-7.049 6.453 1.509 13.086.643 19.62.346 24.119-1.12 48.69-3.091 71.741-10.78 16.225-5.436 31.676-14 44.028-25.92 4.929-4.369 9.161-9.488 13.755-14.22 6.639-9.902 18.117-13.613 28.877-17.843 14.877-7.173 29.846-14.361 43.725-23.354 12.578-9.647 29.876-19.576 38.466-31.607-9.34-8.698-16.438-20.499-17-33.5h38c1.118 10.616 17.07 15.946 24.185 18.904 24.75 8.885 56.512 10.858 80.013 5.743 12.557-2.974 24.947-7.484 35.79-14.55 10.6-6.138 20.895-16.844 20.638-29.946-1.171-11.745-10.944-16.892-20.562-20.899-14.55-5.204-32.74-7.972-46.89-8.334-16.645-.332-33.644-2.012-50.174 1.082 16.977-39.766 36.72-79.978 41.631-123.77 7.065-46.264-.023-93.047-3.631-139.23h22.8c6.319.168 16.11-1.907 16.138 5.638.07 12.197 2.328 26.663 6.73 37.03 3.257 9.355 8.194 18.52 16.867 23.878 14.873 8.948 38.951 6.715 50.129-4.838 8.494-10.317 9.53-24.613 10.296-37.32.93-39.325-8.834-81.83-36.435-111.363-9.963-10.958-23.147-18.476-37.525-22.025 1.332-84.17-30.538-168.565-88.395-229.895-27.846-29.443-61.874-52.633-99.157-68.368-40.894-17.707-86.163-22.055-130.22-19.174-35.498 2.35-70.264 12.697-100.488 31.602-22.564 13.199-40.985 32.272-57.357 52.354-24.762 29.528-39.3 66.976-67.858 93.456-13.392 13.989-29.766 24.592-46.532 34.005a531 531 0 0 0-26.21 13.631c-8.131 3.905-18.499 9.295-21.783 17.483 6.03 6.172 17.97 5.079 25.61 5.901 9.267.13 18.5-.76 27.605-2.379 31.223-5.448 62.403-27.551 84.14-45.718 21.594-17.939 41.956-37.299 64.18-54.489 19.718-14.265 40.681-27.58 64.156-34.753 36.926-10.045 92.952-11.125 121.565 31.447 18.053 28.417 17.463 71.554 3.077 98.294-5.41 10.42-14.957 21.312-23.742 27.568-39.297 12.599-83.453 24.343-110.523 58.5-5.03 7.685-9.96 19.11-3.992 29.576 21.51 31.74 64.829 21.452 92.424 15.959-12.854 48.847-32.072 97.016-46.255 145.725-15.883 48.377-31.37 96.911-47.245 145.275h-1.5c-15.857-13.154-35.494-23.818-56.634-23.988-21.941-1.092-41.964 13.89-53.983 31.162-5.506 8.35-9.069 17.906-11.153 27.629-1.175 4.53-2.136 9.11-2.206 13.807-.363 4.364-.02 10.642-2.452 13.544-23.878 21.433-53.805 45.514-80.411 58.527-11.639 5.975-24.272 9.629-36.933 12.597-11.818 2.363-23.94 2.489-35.921 2.817-10.195.585-21.181 1.713-29.746 7.942-14.507 9.777-9.852 33.264-3.993 46.127 2.44 5.79 6.134 12.278 9.512 16.953 3.503 4.227 6.21 10.22 11.85 10.74 40.734-.273 80.975-9.55 119.704-21.404 15.299-4.082 29.8-10.892 44.866-15.453m-162.963-13.696c-.488 8.079 5.683 12.793 12.651 12.363 7.812-.21 12.089-6.276 11.233-13.108.598-8.227-5.791-12.294-12.989-11.34-6.393.044-11.388 5.609-10.895 12.085M1143 1903.562c.028.531.167.992.438 1.438 15.677 5.013 30.601 12.241 46.256 17.296 18.304 1.926 36.94-.283 55.306.704 11.716-39.738 20.771-80.38 29-121h-61c-19.279 36.175-43.732 70.196-70 101.563M1161 2369c5.29 30.744 8.563 61.773 9 93h-2c2.826 17.242.408 37.744-1.45 53.565-.795 6.94-2.161 13.787-3.404 20.643-.45 5.301-3.634 12.581-2.183 16.96 4.616 8.309 14.429 14.855 21.493 19.363 13.545 6.67 30.908 3.816 42.505-5.333 11.068-8.837 19.113-21.245 22.974-34.991 7.668-24.876 4.603-51.504-4.805-75.353-6.81-17.662-16.19-34.427-28.265-49.047-7.72-8.537-16.317-19.049-24.096-26.193-4.69-3.633-8.502-8.313-13.311-11.805-4.878-4.741-11.25-1.07-16.458-.809m17-276h36v-141h-36zm0 186h36v-158h-36zm4.098-759.766c-.26 8.647 6.192 13.534 13.487 12.602 8.775.215 12.461-6.306 11.711-13.988-.25-9.145-7.159-11.58-14.432-10.752-6.258.03-11.092 5.795-10.766 12.138M1239 2362.25c24.956 53.574 45.39 111.626 43 171.75 4.387 1.374 7.814 7.702 13.07 9.692 8.23 5.569 18.022 9.183 28.086 8.103 34.048-2.498 47.101-40.14 44.592-66.198-2.889-33.997-25.038-62.645-48.925-85.073-11.696-9.895-24.039-19.046-37.319-26.714-6.947-3.948-13.903-7.934-21.01-11.571-3.259-.433-7.399-5.299-10.918-4.15-3.711.4-7.332 3.128-10.576 3.911zm57-269.25h39v-141h-39zm0 186h39v-158h-39zm43 72.33c19.383 24.887 35.23 52.876 43.68 83.523 3.773 11.915 6.433 24.137 7.316 36.625.268 5.927.85 11.854.85 17.78.31 4.69-1.997 12.2.81 15.472 12.915 13.355 32.661 20.69 50.996 16.347 13.543-3.29 25.901-12.01 32.924-24.21 12.072-18.013 11.458-45.174 4.511-63-7.918-19.09-21.902-35.372-38.062-48.053-27.078-20.28-59.635-32.435-92.347-40.012-4.03-.286-7.353 4.095-10.678 5.198zm85.002-939.1c-.913 17.285 15.242 32.487 31.893 31.436 16.222-.473 30.304-15.97 29.062-32.207.343-16.728-15.893-30.407-32.179-29.115-14.99.501-29.815 15.713-28.776 29.887M1456 2214c33.929.76 68.151-.926 102 .5-16.725 61.115-37.55 121.81-64 179.5 26.289 8.13 53.576 15.49 81.37 15 20.48.055 42.047-1.186 60.731-10.675 5.524-3.45 6.76-12.993 9.82-19.493 4.768-12.382 9.042-24.967 13.53-37.451 1.926-4.5 3.161-9.285 5.223-13.704 2.948-3.155 10.456-.748 14.066-1.677H1779c-2.18 24.721-5.733 49.334-10.232 73.738-3.422 18.273-7.53 36.62-15.453 53.564-4.968 12.7-16.722 21.921-30.586 22.434-44.697 2.172-89.14-4.938-133.729-5.736v12c30.489 5.057 61.916 15.43 85.593 36.132 12.158 10.495 18.876 25.513 21.309 41.154 2.681 16.073 4.132 32.405 4.098 48.714 28.986-.07 58.277-2.495 86.27-10.225 19.599-5.493 38.592-14.213 54.58-26.876 23.69-19.425 37.589-47.977 46.544-76.596 9.668-30.35 14.987-61.886 19.55-93.324 2.401-17.608 4.534-35.284 6.056-52.979 13.878-1.814 29.615-5.683 39-17-37.345-32.183-77.15-61.775-114.5-94-21.43 19.692-42.574 39.66-64.291 59.028-3.275 2.56-7.69 1.843-11.623 1.972H1675c7.787-28.302 19.197-55.67 27-84h228.6c16.877-.775 40.293 4.336 48.302-12.253 2.546-5.788-7.012-11.128-9.635-14.98-30.86-30.325-65.322-56.843-98.267-84.767-22.077 26.489-39.498 57.115-61.691 83.518-120.036 1.376-240.239-.25-360.309.482 1.01 9.601 6.161 18.383 7 28m4-1484.523c6.23 7.184 10.03 16.285 16.25 23.523 8.465-3.785 17.944-10.407 29.631-7.152 11.393 1.41 17.578 8.395 25.619 14.152 5.535-7.905 14.053-13.683 19.5-21.5-11.059-11.436-28.734-20.334-43.251-22.018-16.106-1.903-36.104 3.79-47.749 12.995M1476 1317c9.496-2.719 18.49-7.294 28-10-2.973-9.7-5.878-20.328-2.314-30.387 2.61-9.49 10.002-16.106 17.314-21.988-3.023-8.948-10.763-15.84-14-24.625-17.366 6.988-30.3 28.958-33.067 45.125-2.957 13.984.243 28.473 4.067 41.875m26 738.125c3.047 8.987 5.336 18.686 8 27.875h371.4c16.537-.343 39.954 3.341 46.517-13.83 1.185-4.957-6.406-9.19-9.95-13.192-31.465-28.142-64.778-54.308-97.467-80.978h-1.5c-14.44 22.324-32.993 42.58-48.16 64.573-3.208 3.816-6.263 8.907-9.463 12.183-3.534 3.252-10.284 1.943-15.51 2.244h-183.953c-19.318.998-42.283-1.331-59.914 1zM1530 1153c9.793-1.078 18.35-7.222 28-9-2.307-9.819-5.802-20.012-2.342-30.158 2.863-9.468 10.038-17.295 18.342-22.342-4.307-8.474-11.806-17.353-15-25.5h-1.5c-12.286 9.895-24.771 21.224-29.063 37.178-5.701 16.19-3.45 33.868 1.563 49.822m22 753h38v-157h-38zm35-898c9.227-2.913 18.003-10.882 26-14.5-5-8.249-8.675-20.05-7.408-28.921 1.211-9.997 7.118-18.485 14.408-25.079-6.961-6.985-14.147-16.063-20.5-22.5-11.936 11.122-20.472 25.881-22.98 42.07-3.1 17.206 3.79 33.699 10.48 48.93m7 353c5.002-.526 10.38-3.394 14.668-4.868 4.212-1.977 9.864-3.033 13.332-5.632-2.391-9.589-5.258-19.779-2.05-29.629 2.896-9.613 10.565-16.328 18.05-22.371-4.116-7.34-11.18-16.177-15-24.5h-1.5c-12.52 9.672-24.795 21.199-29.063 37.178-6.185 16.278-2.645 33.711 1.563 49.822m24-558.375c8.879 3.137 17.725 8.253 22.925 16.559 6.346 9.117 6.757 20.196 6.075 30.816 9.716.444 19.324 2.175 29 3 2.151-17.007-.952-34.806-10.008-49.44-9.01-13.526-23.172-24.333-38.992-28.56-1.934 8.071-5.928 19.354-9 27.625M1649.5 1198c8.303-4.115 17.757-6.831 26.5-10-1.313-9.813-5.757-20.07-1.889-30.137 3.076-9.314 10.098-16.699 17.889-22.363-4.132-9.034-10.913-16.722-15.5-25.5-13.267 9.024-25.011 21.64-29.761 37.27-3.247 8.356-3.014 17.334-2.735 26.11.545 7.709 1.858 19.126 5.496 24.62m52-155c8.116-4.437 16.07-10.197 24.5-14-.483-4.247-4.001-9.096-5.348-13.954-2.223-7.197-2.238-16.752.221-23.195 1.33-3.577 3.164-6.94 5.336-10.06 1.763-2.879 5.839-5.615 6.791-8.291-6.723-6.962-12.986-14.36-19.5-21.5-15.983 11.66-23.972 32.59-24.122 51.78 1.302 13.605 4.15 27.746 12.122 39.22m106.5 863h44v-157h-44z" style="fill:#000;fill-rule:evenodd;stroke:none"/></svg>