<svg xmlns="http://www.w3.org/2000/svg" width="3000" height="3000"><path d="M1115 2366.5c15.57-3.715 32.34-5.786 45.501-16.129 6.692-4.103 15.548-9.4 18.023-15.872.817-4.495.293-9.086.476-13.624-.503-4.407.79-9.947-1-13.375 32.358-1.426 65.06.26 97.477-.5h49.037c3.315.506 9.8-1.081 11.052 2.446.742 5.986.271 12.084.434 18.103-.677 5.568 1.01 12.538-1 16.951 3.022 1.13 7.56-.114 10 1-1.9 2.037-6.74 3.222-6.501 6.276-.13 2.916 3.674 5.427 5.228 8.24 24.953 32.052 42.457 78.08 45.45 115.11.38 5.663.944 11.328.506 17-.127 4.347-1.42 10.767 1.054 13.723 11.635 11.955 28.26 18.192 44.733 17.136 16.081-.01 30.812-9.932 39.608-22.82 11.492-16.258 13.183-37.431 9.31-56.467-6.759-27.112-26.82-49.08-49.25-64.604-23.18-15.736-50.085-24.759-76.746-32.456-1.421-.513-2.907-.876-4.392-1.138 28.718-1.165 58.193-6.214 83.423-20.993 3.744-2.628 3.688-6.536 3.577-10.456v-335.362c.2-2.692-.293-6.18.96-8.443 6.881-2.821 15.097-4.126 22.04-7.246v61c16.224.713 32.567.466 48.205-4.55 10.907-2.663 21.073-7.718 30.812-13.172 3.048-2.095 7.523-4.091 8.552-8.746 1.208-16.413-.202-32.978.431-49.418.365-3.905-.645-8.825.962-11.87 5.745-2.504 11.679-.399 17.778-1.244H1589v71c27.935 1.193 55.878-3.844 81.183-16.095 4.934-2.806 13.405-4.998 13.714-12.614.294-22.186-.053-44.383.103-66.565V1760c10.795-1.053 21.486-5.662 29.5-13 1.426 86.842-.26 174.083.5 261 24.529.925 49.153-2.141 71.742-12.091 10.354-4.776 24.44-10.123 23.256-22.105.005-12.931 0-25.875.002-38.804h21.6c7.188-1.061 16.136 1.394 21.9-1 1.403 19.198-.236 38.742.5 58 14.917-.227 30.06 2.022 44.682-1.7 10.23-2.414 20.304-5.484 30.051-9.38 6.716-2.973 15.05-6.076 20.522-10.098 4.417-4.306 1.987-12.728 2.745-18.169v-170.967c.218-5.562-.295-11.158.23-16.693.121-3.901 5.221-4.51 8.207-5.648 5.042-1.49 9.706-3.968 13.988-7.006 4.098-2.952 9.48-6.078 9.575-11.339-21.461-13.834-41.185-31.382-62.31-45.96-7.869-5.888-15.698-11.778-23.566-17.667-3.257-2.247-7.565-6.865-10.885-3.716-6.353 4.968-10.85 11.86-16.714 17.318-4.93 5.218-10.435 9.933-14.92 15.558-4.466 3.81-8.725 10.9-13.764 12.102-6.012.801-12.158.05-18.197.365-10.323 1.109-19.735-2.743-28.807-7.243-13.375-5.363-26.582-11.087-39.975-16.401-6.649-2.823-13.296-5.627-20.033-8.235-6.405-2.133-13.533-6.619-19.829-7.121-.742 19.905.908 40.207-.5 60-22.28-17.95-45.745-34.474-68.415-51.927-5.824-3.778-11.898-9.477-17.264-12.812-4.807-2.296-9.255 5.73-12.554 7.972-6.191 5.53-11.47 11.867-17.002 18.002l-8.635 8.635c-2.423 2.795-6.827 6.057-7.63 9.13-10.84-.52-24.276 1.408-33.66-2.662-14.228-5.881-28.317-12.005-42.561-17.828-13.72-4.66-28.821-13.432-41.779-16.51-.76 84.568.926 169.55-.5 254-14.271-11.931-28.24-24.248-42.43-36.263-11.033-8.542-20.746-18.748-31.99-27.009-4.388-3.837-9.951 3.749-12.556 6.449-12.51 14.048-25.666 27.646-38.726 41.149-3.627 2.815-10.339 1.083-15.341 1.674-15.383-.716-31.188.883-46.457-.5 25.854-18.643 49.339-40.274 73.218-61.276 8.817-8.42 17.95-16.49 26.384-25.326 7.393-8.038 14.74-17.05 26.263-17.39 8.71-1.361 19.791-2.995 26.003-8.778 4.81-3.051-2.021-7.304-3.836-9.217-22.543-20.196-45.027-40.483-67.656-60.58-5.533-5.078-11.302-9.87-16.837-14.938-4.02-2.887-7.845-8.067-13.113-10.495-6.53 3.534-12.48 12.148-18.296 16.87-5.743 6.127-12.226 11.63-17.524 18.163-7.621 7.759-15.046 15.926-23.237 23.073-5.843 2.87-12.126.383-18.393 1.394H1231c8.429-21.216 21.297-41.07 28-63 10.771.057 22.624-1.166 31.418-8.158 4.381-3.279 7.784-7.598 9.086-12.922.274-2.516-3.974-3.234-5.59-3.931-2.59-.674-5.108-1.588-7.659-2.352-9.16-2.645-18.27-5.44-27.409-8.118-6.605-2.782-16.732-4.024-21.846-7.019 45.465-4.682 90.394-17.721 131.332-38.175 8.669-3.924 18.246-11.58 27.445-11.32 39.703-.19 80.493-4.02 117.278-20.1 13.871-6.898 29.317-17.102 39.547-27.007 5.406-5.554 11.088-10.873 16.348-16.548 4.895-5.55 12.797-6.918 19.105-10.313 26.353-11.632 51.711-25.837 74.745-43.145 5.393-3.65 10.075-8.175 15.006-12.372 4.611-5.447 10.578-.916 15.58 1.65 10.241 4.566 21.853 10.912 30.075 17.141 8.976 6.15 16.948 15.648 16.531 27.186 2.294 21.34-21.943 36.773-18.586 58.102 2.182 9.945 12.921 12.767 20.55 14.609 18.25 4.169 37.317 3.043 55.64.488 14.255-2.127 30.156-9.821 39.865-18.7 19.475-18.284 26.606-45.845 29.829-71.334 2.72-21.79 1.27-43.862 1.71-65.747v-50.344c.308-11.667.661-24.328-6.294-34.474-8.6-13.714-24.118-21.273-38.89-26.316-15.974-6.046-33.126-7.734-49.816-10.281 13.18-29.53 20.178-61.82 25.5-93.5 9.92 9.001 22.756 16.25 36.5 16-2.385 15.423-2.37 32.592 8.063 45.433 10.664 15.022 26.851 16.217 42.316 15.506 26.619-1.956 51.89-27.883 57.059-50.957 3.094-14.193.539-29.479-8.66-40.984-7.031-11.168-20.429-22.53-19.739-34.761 1.397-18.247 2.431-36.48.984-54.749-.282-26.972-2.62-54.269-12.677-79.605-8.472-23.649-23.01-46.08-43.656-60.843-6.162-4.372-14.028-9.08-20.69-11.04-.297-91.707-37.032-183.167-104.102-246.602-31.51-31.51-70.068-55.82-111.244-72.485-44.646-17.756-93.634-23.306-141.342-19.976-25.782 2.783-51.864 6.958-75.89 17.244-41.877 17.058-79.12 44.511-107.444 79.85a339.5 339.5 0 0 0-33.715 47.028c-10.065 14.674-18.082 30.985-30.657 43.835-23.237 25.463-57.618 35.786-84.512 56.053-11.843 9.029-23.087 20.632-26.754 35.614-1.892 7.533-2.06 15.904 1.284 23.053 6.575 12.146 19.843 18.866 32.652 22.457 13.58 4.567 27.98 4.19 42.073 3.929 50.188.106 95.719-27.639 132.299-59.496 27.535-22.997 52.94-49.052 83.974-67.542 24.362-13.829 56.044-21.154 83.144-10.109 21.688 9.098 26.803 32.488 23.95 53.459-.96 7.572-3.656 14.994-8.136 21.198-4.554 7.17-11.178 8.36-18.501 10.035-22.33 7.103-44.502 15.287-64.54 27.612-19.326 11.92-38.757 26.063-49.938 46.503-5.016 9.19-8.969 19.245-9.512 29.814-.289 5.011.467 10.213-1.32 15.032-6.004 16.908-3.712 38.67-1.004 54.42 2.525 13.467 8.317 25.902 12.646 38.792 1.61 4.554 2.164 9.757.197 14.313-3.488 6.417-11.87 10.597-14.475 19.27-1.909 5.897-1.698 13.387 2.969 17.98 7.754 6.539 18.746 5.583 28.099 5.719 9.766.601 19.333-.865 28.799-3-5.02 19.595-13.91 41.899-18 60-15.917-3.153-31.165-9.692-47.366-11.91-28.166-4.943-59.791-6.386-84.841 10.084-16.904 11.667-27.36 30.296-33.94 49.223-5.637 14.604-8.852 30.423-17.464 43.756-6.106 9.688-15.309 17.21-25.45 22.381-14.01 6.934-38.078 8.884-34.809 32.161 2.244 19.504 24.318 24.802 36.87 31.805-12.49 6.887-25.45 13.734-39.7 16.279-13.615 2.77-27.575 2.073-41.373 3.335-22.456 2.286-46.628 11.415-58.126 32.333-8.97 15.506-9.874 33.948-7.194 51.242 1.903 12.55 6.21 24.867 12.962 35.633 4.545 8.314 11.258 14.817 17.97 21.232 3.413 6.327 2.322 14.911 5.399 21.57 6.721 19.367 20.391 37.636 39.062 46.876-9.266 63.487-27.102 125.533-47.265 186.277-10.715 29.7-22.115 59.135-35.255 87.844-6.027 14.31-13.6 27.824-20.416 41.72-3.53 6.591-7.794 14.302-11.055 20.327-3.055 6.247-8.962 13.124-9.009 19.832 4.332.557 10.292 9.167 15.571 5.153 14.69-10.051 29.747-20.122 42.929-32.153 1.426 128.828-.26 258.094.5 387h29c4.057 24.302-4.583 52.776-12.115 73.289-7.623 18.969-17.787 37.192-31.868 52.186-5.822 7.047-13.332 12.008-20.816 17.025-11.953 11.17-23.75 25.305-25.258 42.402-2.785 14.358 3.25 32.303 12.306 41.816 17.1 20.615 53.182 22.553 73.5 11.391 17.17-8.603 27.749-25.962 35.888-42.443 11.498-28.745 17.048-60.309 14.75-91.26-2.247-29.607-10.046-58.567-20.503-86.235-2.52-6.007-4.786-13.538-7.884-18.671m171-840.5c1.583 6.312 8.867 12.112 12.712 15.268 4.93 4.03 12.96 6.489 18.446 3.88 11.073-5.924 14.993-19.382 16.55-30.858.144-5.365 1.13-10.624 7.868-12.47 18.205-8.268 36.744-15.905 56.166-20.886 7.692-2.138 15.606-3.64 23.523-4.547 6.515-.31 14.488-.957 20.315.705 6.744 1.778 9.022 8.13 6.539 13.974-4.405 8.455-15.342 13.493-22.682 17.109-3.168 1.239-6.909 3.209-10.112 3.216-2.943.691-5.568-3.977-7.77-5.114-7.305-6.835-20.036-15.218-28.332-2.492-5.87 8.842-8.067 21.823-9.223 31.215-9.453 3.398-17.41 10.343-26.614 14.37-14.073 7.955-28.408 15.408-42.76 22.816-7.093 3.182-14.166 6.457-21.224 9.7-6.944 2.568-16.133 7.874-22.402 8.114-.973-10.128-15.714-32.586-28.248-16.92-6.59 7.974-11.129 17.456-13.136 27.564A18 18 0 0 0 1215 1604c-13.633 3.988-27.982 2.996-42 3-.072-8.952-4.352-19.063-8.899-25.732-2.53-3.43-6.144-7.438-9.982-8.433-3.886-.82-8.479 2.483-12.121 4.987-4.474 4.072-10.592 9.154-11.043 14.239 1.174 6.368 5.347 11.716 9.78 16.174 5.249 6.101 12.329 9.91 19.862 12.396a116 116 0 0 0 13.52 3.491c7.244 1.504 14.578 2.525 21.976 2.795 52.414 2.34 104.075-11.064 151.428-32.925 6.377-2.784 13.766-6.287 19.34-9.359 5.794-2.722 12.467-7.16 18.487-7.572 26.67-.831 53.689-1.256 79.81-7.413 18.029-3.903 35.476-11.234 50.153-22.514 11.561-7.901 20-19.224 29.137-29.554 36.062-17.168 76.462-33.07 103.552-64.08-9.403-8.954-16.14-21.303-16-34.5h40c1.04 10.806 17.014 16.147 24.237 18.916 25.043 8.606 52.53 11.191 78.457 5.621 12.48-2.8 24.46-7.655 35.363-14.276 9.131-6.417 21.56-16.024 20.278-29.956-1.402-9.634-12.169-16.493-20.52-19.206-14.579-5.167-32.664-7.999-46.839-8.304-16.65-.802-33.418-1.264-49.976 1.205.288-5.422 3.78-11.062 5.743-15.456 17.74-37.292 32.25-76.577 37.047-117.838 4.94-43.547-1.818-87.3-4.79-130.706h40c1.404 5.827.746 11.9 1.708 17.791 2.512 19.118 10.581 43.918 27.686 50.121 16.007 6.998 43.012 3.103 49.823-19.272 6.18-21.416 3.891-48.125.046-67.82-4.553-23.07-14.14-45.389-29.426-63.39-10.482-12.429-24.707-21.869-40.837-25.43 1.497-84.465-30.448-169.273-88.975-230.475-28.105-29.685-62.599-52.832-100.244-68.555-40.56-17.103-85.16-21.707-128.728-18.322-34.833 3.017-69.298 12.948-98.916 31.895-22.565 13.293-40.87 32.536-57.272 52.654-24.427 29.325-38.924 66.422-67.235 92.673-13.354 14.14-29.86 24.597-46.633 34.103-8.812 4.52-17.807 8.722-26.374 13.678-7.427 4.378-19.43 8.952-20.623 17.349 16.865 6.498 38.703 3.85 54.422.83 30.948-6.35 61.07-29.518 82.77-47.342 21.681-17.814 42.09-37.21 64.383-54.272 19.086-13.582 43.249-28.092 64.338-33.29 37.117-9.382 93.879-9.79 121.426 33.935 17.08 28.53 15.937 71.523 2.195 98.057-5.412 10.845-13.804 20.168-23.257 27.677-39.451 12.75-83.95 24.598-111.209 58.87-5.109 7.572-9.772 19.078-3.127 29.108 8.912 13.061 27.848 19.792 41.692 20.381 16.984.421 33.714-3.248 50.367-5.954-12.705 49.47-32.201 97.434-46.433 146.545A20494 20494 0 0 0 1415 1347c-4.774-.106-9.272-5.227-13.888-7.942-17.18-11.247-38.572-20.056-59.521-14.684-16.917 5.868-31.988 18.073-41.032 33.605-9.021 14.652-10.659 31.754-12.02 48.388-.028 3.302-5.233 5.595-6.891 7.742-19.947 17.643-41.212 34.063-64.027 47.803-18.039 10.474-38.126 17.48-58.87 19.92-16.162 1.971-33.276-.573-48.732 5.805-24.475 9.99-14.82 42.08-4.64 58.16 2.709 4.835 6.134 9.235 9.671 13.466 3.298 4.17 7.806 3.924 12.35 3.671 13.609-.723 27.155-2.433 40.628-4.294 20.595-2.903 40.582-8.585 60.64-13.81 9.567-2.903 18.963-6.355 28.488-9.389 9.492-2.38 19.87-8.405 28.844-9.441m-164.974-13.114c-.934 9.555 5.914 14.822 14.316 13.84 9.392-.51 12.4-7.069 11.635-14.374.405-9.49-6.234-12.95-13.685-12.245-7.858-.19-12.788 5.571-12.266 12.779M1145 1903.375c6.537 4.109 14.813 5.51 21.724 9.027 11.685 4.35 23.248 10.376 36.022 9.598H1244c10.857-39.15 21.696-78.786 28-119h-58c-19.053 35.731-43.15 69.246-69 100.375M1160 2368c.265 8.3 2.652 16.401 3.59 24.63 4.052 31.607 6.637 63.583 4.602 95.462-.613 11.587-2.163 23.106-3.8 34.575-.587 9.544-4.756 20.298-5.042 28.998.116 3.808 4.38 7.26 7.125 10.31 12.103 13.943 28.012 18.171 44.44 13.786 24.297-7.391 37.661-32.293 40.99-55.825 4.176-24.781-1.087-50.197-11.378-72.811-13.927-31.378-37.53-57.84-63.71-79.504-4.58-3.62-11.9.82-16.817.379m19-276h34v-140h-34zm0 187h34v-157h-34zm2.033-759.707c-.6 9.272 6.202 14.32 14.063 13.613 4.412.398 7.255-1.396 10.537-3.399 1.83-3.26 3.486-6.892 2.93-10.92-.186-3.685-1.08-7.627-3.958-10.144-3.089-2.746-7.562-2.422-11.372-2.42-8.218-.556-12.653 5.635-12.2 13.27M1281 2535c4.475 1.481 8.05 7.927 13.475 9.959 16.826 11.658 40.948 10.82 55.875-3.859 15.05-14.263 20.32-35.887 18.355-55.961-3.133-34.718-25.296-64.295-50.333-86.852-11.702-10.037-24.387-18.822-37.702-26.539-6.653-4.066-13.642-7.581-20.54-11.182-3.54-1.286-7.911-4.968-11.277-3.65-3.796.923-7.211 2.862-10.853 4.084.584 6.064 5.42 13.195 7.932 19.852 21.807 48.28 36.656 100.776 35.068 154.148m16-443h37v-140h-37zm0 187h37v-157h-37zm126-866.692c-1.433 18.15 15.218 33.47 32.592 32.366 17.2.148 31.686-15.664 30.403-32.77.408-19.18-16.084-31.518-32.847-30.596-15.737.452-31.187 14.416-30.148 31M1455 2215h101v1.5c-7.893 30.745-17.931 60.843-28.316 90.79-5.64 14.812-10.87 29.788-16.972 44.422-2.857 7.425-6.199 14.674-9.218 22.026-2.475 6.955-7.298 14.556-8.494 21.262 26.425 8.158 53.785 15.565 81.741 15 20.79.453 42.228-1.092 61.353-10.161 6.627-3.174 7.633-13.311 10.534-19.222 4.193-12.542 9.38-24.736 13.446-37.318 1.831-4.423 3.456-9.895 5.295-13.863 1.629-4.063 9.628-1.529 12.587-2.436H1778c-2.817 24.881-5.792 49.807-10.59 74.406-3.686 17.8-7.796 35.706-15.702 52.17-5.268 13.06-17.959 21.458-32.039 21.316-43.945 2.738-87.774-5.994-131.669-5.892v14c30.078 4.162 65.13 17.533 85.971 36.494 11.95 10.44 18.49 25.366 20.931 40.792A269 269 0 0 1 1699 2609c29.421-.226 59.203-2.418 87.702-10.064 19.962-5.595 39.33-14.341 55.546-27.358 23.81-19.642 37.529-48.46 46.491-77.278 9.569-30.873 15.049-62.828 19.54-94.77 2.438-16.79 4.151-33.66 5.721-50.53 10.332-1.11 22.55-4.503 30.588-9.748 3.439-1.973 10.736-7.102 6.54-10.754-3.485-3.533-7.72-6.256-11.413-9.541-9.795-8.617-20.336-16.338-30.27-24.773-16.843-13.558-33.475-27.318-50.31-40.875-4.253-3.65-8.675-7.124-13.04-10.634-3.032-1.585-6.814-7.159-9.88-5.776-9.172 7.757-18.028 16.01-26.817 24.203-8.079 8.136-17.19 15.133-25.268 23.268-6.172 6.141-12.824 13.343-21.989 12.63-28.654-.76-57.57.926-86.141-.5 9.858-26.742 18.14-54.371 27-81.5h226.2c16.001-.61 38.255 3.303 48.485-8.47 2.435-2.577 3.244-6.098 2.841-9.494-17.045-20.382-38.865-36.9-58.691-54.524-15.184-12.577-30.092-25.492-45.474-37.827-7.317-7.4-11.686 3.19-15.659 8.403-14.961 20.993-30.38 41.668-45.207 62.745-1.85 2.416-3.69 5.582-5.82 7.422-1.986 2.057-6.015 1.63-9.167 1.745H1448c.185 10.381 6.263 19.722 7 30m5.487-1485.636c-.173 2.92 2.566 5.632 3.87 8.382 2.346 4.02 5.057 7.824 7.621 11.696 1.273 1.801 3.343 4.278 5.261 4.058 2.29-.213 4.234-1.454 6.15-2.572 17.023-9.91 33.05-2.21 46.279 9.503 3.76.54 6.448-4.682 9.564-7.163 3.862-4.882 10.145-8.571 12.27-13.932.207-2.688-3.005-5.091-5.14-7.04-2.57-1.894-5.017-3.956-7.837-5.488-21.677-15.154-50.765-15.472-73.422-2.35-2.153 1.167-5.077 2.405-4.616 4.906M1475 1318c10.482-1.39 19.636-8.067 30-10-.736-7.776-4.957-15.18-3.806-23.243.778-11.259 7.978-20.576 16.48-27.287 4.579-3.96-1.45-11.018-3.592-14.438-2.136-4.579-7.085-9.886-8.082-14.032-4.382-.225-7.82 2.675-11.005 5.408-9.475 7.116-17.584 19.057-21.322 29.142-6.66 17.759-3.535 36.87 1.327 54.45m34 766h376.2c11.904-.526 41.216 3.693 44.205-16.665.655-2.915-3.823-5.53-5.138-7.567-16.782-15.678-34.59-30.179-52.303-44.79-9.06-7.234-17.907-14.761-26.967-21.98-4.477-3.507-8.861-7.137-13.191-10.802-4.009-3.199-8.816-7.99-13.806-8.196-14.38 22.283-32.931 42.485-48.046 64.432-3.192 3.885-6.398 8.883-9.456 12.335-3.312 4.18-10.046 3.182-14.712 3.233H1501c1.7 10.2 5.941 19.875 8 30m20-930c10.67.043 19.694-7.482 30-9-.617-9.242-6.547-19.538-2.079-30.606 3.235-8.642 9.387-17.569 18.079-21.394-.91-6.139-7.082-12.659-10.318-19.046-1.972-2.782-3.91-7.837-7.443-7.454-3.282-.257-6.288 3.62-9.24 5.5-8.384 6.926-16.186 17.729-19.531 27.113-6.649 17.344-5.289 36.672.366 54.026zm23 751h37v-145.2c-.436-3.175.927-9.187-2.42-10.353-5.772-.736-11.686-.307-17.487-.447-5.379.198-12.871-.53-17.093 1zm34-896c10.502-1.26 18.072-11.245 28-14-2.55-10.692-12.028-22.878-5.757-36.562 1.678-4.455 4.173-8.618 7.261-12.252 2.411-2.716 6.657-5.986 3.348-9.606-4.408-5.644-9.483-10.703-14.351-15.93-1.72-3.006-3.751-3.712-6.927-3.09-13.4 11.729-21.864 29.506-22.57 47.27-.5 11.88 2.022 23.573 6.75 34.42 1.14 3.236 3.641 6.637 4.246 9.75m7 353c8.349-.338 15.714-5.143 23.555-7.427 1.76-.881 4.09-1.608 5.477-2.801 1.55-5.565-3.056-12.817-2.536-18.55-.957-12.409 6.594-23.377 15.853-30.721 6.49-4.484-.258-10.069-2.602-14.826-2.345-4.788-7.392-10.478-8.747-14.675-4.683.24-8.017 4.121-11.747 6.588-9.898 8.454-17.638 19.628-21.295 32.119-5.244 16.59-2.251 33.981 2.042 50.293m53-511c10.383.28 20.633 2.583 31 3 2.124-17.608-.72-36.21-10.008-51.44-4.464-7.323-10.762-13.276-17.761-18.105-6.565-4.317-16.667-9.915-23.231-10.455-1.174 7.615-5.046 14.595-6.805 22.06-.524 2.07-1.565 4.699-.47 7.277 7.94 5.055 17.715 8.96 22.044 18.2 5.883 8.73 5.513 19.475 5.231 29.463m31 338c-.518-7.907-4.124-15.553-2.93-23.699.284-11.893 8.936-20.716 17.217-27.92 3.951-3.798-4.066-11.167-5.034-14.474-2.237-4.531-6.93-9.957-8.253-13.907-4.292.499-8.765 4.803-12.476 7.985-11.26 9.916-19.898 22.836-21.99 38.016-1.567 12.547-.649 25.492 2.407 37.684 1.28 8.365 7.703 5.193 13.382 2.581 5.899-2.037 11.634-4.701 17.677-6.266m50-159c-.288-6.026-3.961-11.235-5.678-16.856-3.627-10.805-.738-22.586 6.5-31.15 2.272-3.094 6.629-5.877 5.473-9.571-4.23-5.22-9.73-10.996-13.88-15.533-1.8-1.555-3.655-4.383-5.39-5.328-4.35-.854-7.61 5.655-10.11 8.046-8.663 10.344-14.657 23.3-15.077 36.942-1.923 12.07 1.741 24.42 5.723 35.62 1.24 3.592 2.898 7.023 5.053 10.148 1.543 2.509 5.686-.485 7.378-1.187 6.722-3.095 13.6-8.875 20.008-11.131m82 875h42v-156h-42z" style="fill:#fff;fill-rule:evenodd;stroke:none"/><path d="M364 2760.5v1.5h2272v-1.5c-68.931-409.09-136.257-818.54-204.874-1227.691-51.076-306.848-102.33-613.661-153.4-920.497-4.868-28.824-9.564-57.688-14.431-86.508-1.116-7.008-2.365-13.985-3.488-20.978-1.2-6.774-.246-15.245-9.425-16.859-109.868-36.632-219.702-73.24-329.563-109.867-95.996-32.013-192.02-63.992-288-96-41.993-13.978-83.98-28.011-125.966-41.994-5.663-2.605-10.407-1.693-15.513.621-156.173 52.06-312.354 104.114-468.521 156.173-58.68 19.531-117.334 39.097-175.992 58.657-25.668 8.506-51.298 17.139-76.962 25.643-6.176 2.075-12.369 4.11-18.537 6.195-3.02 1.124-6.483 1.813-8.8 4.255-62.934 375.423-125.132 751.075-187.889 1126.544C490.857 1998.664 428.048 2380.37 364 2760.5m750-395.5c15.915-2.342 32.178-6.043 45.501-15.629 6.442-3.712 14.226-8.781 17.733-14.861 1.713-8.563.075-17.794.766-26.51h157v36c16.158.154 32.407.54 48.409-2.093 11.13-2.079 22.113-5.006 32.674-9.077 7.154-3.03 16.429-5.897 21.886-10.724 3.814-4.712.925-13.881 2.031-20.454v-325.163c.238-2.691-.186-6.68 1.978-8.098 7.946-1.558 15.548-4.418 23.022-7.391v62c24.989 1.15 50.369-2.494 72.376-15.19 5.017-2.844 11.995-6.064 13.193-11.278 1.969-20.025-1.127-40.392.923-60.403 1.157-2.87 6.606-1.619 8.8-2.129H1590v71c27.27 1.11 54.489-4.28 79.183-16.095 5.465-2.87 13.127-5.28 13.664-12.036.436-21.78-.079-43.57.153-65.344V1759c5.823-.339 12.352-2.737 17.216-4.773 5.198-1.662 9.003-6.946 14.784-9.227v262c24.362.885 48.791-2.646 71.112-12.67 8.956-4.266 23.261-9.33 21.888-22.679V1934h44c1.058 19.007-1.292 38.422.703 57.3 2.62 3.136 9.844.8 13.16 1.695 13.293-.113 26.543-2.235 39.302-5.899 12.62-3.492 25.017-7.954 36.642-14.013 3.048-1.311 5.952-3.078 7.704-5.98 1.203-11.074-.062-22.336.489-33.447v-157.769c.234-4.74-.502-9.815.806-14.405 9.89-5.202 26.446-8.556 31.194-19.482-32.031-21.187-61.644-47.405-93.5-69-6.141 5.547-11.326 11.99-16.975 17.975-4.99 5.232-10.426 10.052-15.143 15.54-3.901 4.563-8.86 9.942-13.429 13.02-6.04.784-12.192.3-18.268.465-5.079-.203-11.23.461-15.788-.777-31.595-11.935-62.257-26.472-93.897-38.223-.74 20.27.907 40.804-.5 61-29.673-22.26-59.347-44.713-89-67-7.075 7.588-15.073 14.365-21.734 22.32-5.775 8.482-17.086 14.845-20.766 22.68-10.705-.879-23.994 1.477-33.472-1.793-27.944-11.834-56.133-23.336-84.028-35.207-2.185 85.102 1.185 170.94-1 256-26.566-21.898-51.849-45.96-79-67-14.504 15.339-29.401 30.343-43.338 46.189-3.989 5.373-9.444 5.187-15.14 4.811H1273.5l-1.5-.5c26.706-18.783 50.89-41.119 75.441-62.561 12.308-11.43 24.575-22.84 36.161-35.041 9.905-12.581 32.32-5.284 45.398-18.898-33.685-31.101-68.945-60.716-102.5-92-14.34 13.677-27.832 28.162-41.475 42.475l-10.5 10.5c-2.744 2.227-5.419 6.431-8.688 6.66-12.218 1.007-24.593-.155-36.837.365 8.763-21.878 22.009-42.386 29-65 14.122.627 33.685-3.228 41-20.5-21.79-8.696-45.844-12.922-68-21 11.049-2.266 22.451-2.645 33.517-4.913 38.736-7.109 76.348-20.13 111.134-38.52 6.13-3.886 12.8-7.572 20.283-7.067 28.808-.198 57.94-2.31 85.95-9.468a153.9 153.9 0 0 0 53.56-24.508c12.362-8.611 22.918-19.506 33.208-30.44 3.674-4.06 9.362-5.4 14.153-7.695 35.638-15.438 70.226-35.082 98.523-61.889 17.631 7.868 35.77 16.283 50.37 29.265 12.717 12.38 12.287 33.183 2.636 47.283-7.687 11.824-19.628 29.352-6.751 40.255 10.98 8.424 28.143 8.124 39.934 9.081 23.856.932 49.708-3.94 68.184-20.177 13.1-11.657 20.74-27.974 25.274-44.61 8.23-27.706 7.017-56.892 7.025-85.39v-44.95c-.321-14.126 1.788-29.23-4.445-42.461-7.717-15.02-23.29-23.584-38.65-28.82-16.226-5.61-36.162-9.628-51.905-10.476 10.206-31.627 22.775-63.372 25-97h1.5c5.014 5.304 11.405 8.836 17.661 12.38 3.171 1.679 6.605 2.8 10.064 3.687 3.375.971 8.403.625 10.775 2.433-5.687 16.479-1.032 37.206 11.793 49.273 18.535 15.665 47.662 12.3 65.668-2.118 19.543-13.308 38.147-44.094 22.184-71.74-4.393-7.568-10.053-14.256-15.333-21.176-3.686-4.73-8.117-10.84-8.219-16.584.142-10.911.909-21.86 1.56-32.743.606-10.715-.963-21.442-.88-32.166-.88-29.72-4.99-60.22-18.701-87.081-11.18-24.162-34.062-49.631-58.072-57.165-.297-91.707-37.032-183.167-104.102-246.602-31.391-31.397-69.79-55.618-110.78-72.297-44.574-17.857-93.577-23.523-141.255-20.053-25.293 2.907-50.869 6.988-74.44 17.133-42.041 17.134-79.433 44.732-107.776 80.284-12.571 14.675-23.742 30.542-33.7 47.087-10.034 14.633-18.032 30.95-30.682 43.683-23.342 25.365-57.709 35.68-84.597 56.01-11.755 9.118-23.026 20.808-26.467 35.875-4.683 16.507 4.564 29.544 17.774 36.32 24.713 12.873 59.17 12.607 83.647 7.973 47.292-7.848 85.02-39.457 119.942-69.584 26-22.732 51.332-47.794 83.35-62.154 6.55-2.59 13.328-4.59 20.185-6.17 21.494-2.827 54.67-5.685 68.841 19.44 9.516 16.33 8.53 40.689.67 55.725-3.503 7.575-8.46 11.822-15.866 13.266-23.27 6.804-46.464 15.047-67.379 27.51-20.227 12.234-40.697 26.71-52.56 47.85-5.161 9.261-9.123 19.48-9.716 30.178-.289 5.011.467 10.213-1.32 15.032-6.146 17.042-3.747 39.01-.472 54.804 2.653 13.297 8.984 25.472 12.74 38.417 3.809 10.54-1.344 18.365-9.122 24.152-4.856 4.947-7.884 12.236-6.413 19.196 3.45 12.398 19.067 11.64 28.735 11.925 11.105.519 22.136-.735 32.763-4-7.32 21.047-12.285 43.35-20.5 64-27.599-9.302-56.55-16.623-85.878-15.99-21.348.005-42.97 8.164-57.333 24.237-10.736 11.103-16.864 25.418-22.037 39.65-7.003 21.488-13.13 46.304-33.7 59.342-9.13 7.073-20.548 9.765-30.858 14.442-13.38 5.047-16.2 20.04-9.2 30.79 8.732 11.34 22.185 17.838 35.506 22.029-10.922 8.88-27.024 14.314-39.176 17.763-13.433 3.143-27.21 2.956-40.916 3.59-22.722 1.701-47.223 10.265-59.953 30.518-9.492 15.22-11.32 33.475-8.415 50.856 1.857 12.71 6.214 25.185 13.029 36.095 4.545 8.314 11.258 14.817 17.97 21.232 3.413 6.327 2.322 14.911 5.399 21.57 6.721 19.367 20.391 37.636 39.062 46.876-3.268 32.281-12.39 63.797-19.345 95.39-11.863 46.245-26.394 91.875-44.273 136.153-8.316 21.695-17.92 42.916-28.02 63.81-5.057 10.399-10.468 20.686-15.858 30.927-2.588 5.03-5.247 10.005-8.153 14.852-2.245 4.788-6.85 9.855-7.351 14.868 3.61 1.118 7.59 4.81 11.5 7 15.998-11.18 31.993-22.495 47-35 1.426 129.21-.26 258.72.5 388h29c3.925 24.204-3.784 52.805-11.338 73.342-7.282 19.158-17.653 37.177-31.187 52.608-5.804 7.027-12.907 12.5-20.617 17.229-12.41 10.653-24.304 24.705-26.685 41.563-2.108 14.579 1.633 30.559 11.726 41.608 17 21.062 53.261 23.092 73.418 10.961 16.803-9.442 27.4-26.8 35.209-43.69 11.426-29.025 16.23-60.87 13.505-91.938-2.356-29.688-11.191-58.162-21.684-85.81-1.742-5.539-5.65-11.528-6.347-16.873m171-838c4.014 11.96 20.62 23.29 32.13 19.585 11.99-5.483 16.117-19.951 17.64-31.8.166-2.82.724-5.542 1.767-8.144 7.514-5.906 19.041-8.58 26.658-12.716 16.673-6.609 33.874-12.083 51.464-15.563 7.176-1.188 14.562-1.688 21.819-1.146 5.303.513 12.588 3.385 11.123 11.12-2.174 8.992-15.392 14.467-21.557 18.11-3.59 1.974-7.482 2.982-11.351 4.048-8.956-7.48-22.05-20.73-33.003-11.536-8.779 8.758-11.263 24.371-12.69 35.042-9.453 3.398-17.41 10.343-26.614 14.37-27.282 14.958-54.894 30.498-84.386 40.63-1.13-10.48-16.135-32.9-29.58-17.677-7.118 8.206-11.811 18.234-13.918 28.818-.27.942-.426 1.89-.502 2.859-12.973 3.871-26.646 3.087-40 3-.072-8.952-4.352-19.063-8.899-25.732-2.565-3.54-6.329-7.61-10.3-8.6-4.61-.93-8.975 1.754-12.584 4.259-4.501 3.58-10.726 9.375-12.292 14.007-1.369 5.84 4.979 13.723 7.98 17.42 5.684 6.91 13.2 11.616 21.692 14.277 5.063 1.698 10.299 2.881 15.534 3.88 7.951 1.494 16.027 2.538 24.13 2.484 52.92 2.01 104.976-12.187 152.614-34.47 12.628-5.092 26.485-15.748 39.445-15.577 26.254-.67 52.711-1.817 78.329-8.11 18.022-4.033 34.74-12.455 49.309-23.645 5.232-4.525 10.38-9.15 14.872-14.382 4.324-3.985 8.179-9.784 11.995-13.55 36.452-17.035 77.064-33.38 104.175-64.761-9.318-8.734-16.477-20.49-17-33.5h38c1.04 10.806 17.014 16.147 24.237 18.916 25.506 8.767 53.482 11.207 79.896 5.75 12.227-2.508 25.765-8.196 35.505-14.12 10.574-6.552 21.332-16.91 21.001-30.381-1.194-10.724-11.128-18.099-20.787-21.057-14.615-5.164-32.776-8.026-46.987-8.337-16.552-.147-33.456-1.968-49.865 1.229 3.485-10.212 9.36-19.578 13.09-29.734 15.596-34.898 27.592-71.715 30.623-110.068 2.662-40.779-2.157-81.624-5.713-122.198h38c1.418 6 .73 12.283 1.778 18.344 2.474 19.315 10.98 44.422 28.693 49.953 16.672 6.043 43.617 3.072 50.39-18.585 6.503-21.792 4.3-49.262.705-69.412-4.522-23.745-14.199-46.845-30.074-65.26-10.41-12.269-24.57-21.478-40.492-25.04 1.48-84.622-30.574-169.677-89.37-230.87-28.225-29.749-62.97-52.924-100.786-68.561-40.472-16.977-84.516-21.04-127.74-18.077-35.168 2.679-70.144 12.509-100.098 31.504-22.782 13.264-41.319 32.516-57.821 52.768-24.622 29.425-39.112 66.711-67.555 93.106-13.354 14.14-29.86 24.597-46.633 34.103-8.812 4.52-17.807 8.722-26.374 13.678-8.051 4.33-17.758 8.452-21.623 17.443 6.018 6.172 17.98 5.08 25.614 5.901 9.22.055 18.46-.485 27.504-2.32 30.905-5.371 61.76-27.2 83.349-45.028 21.63-18.036 42.276-37.198 64.359-54.704 19.651-14.224 40.458-27.71 63.834-34.962 37.24-10.337 94.097-11.88 122.89 31.551 17.92 28.246 16.975 71.348 2.759 97.823-5.29 10.47-14.848 21.14-23.493 27.488-20.094 7.276-41.748 10.993-60.66 21.583-14.304 7.142-28.73 14.845-40.258 26.176-8.61 7.913-16.426 18.194-16.574 30.526.51 18.32 23.284 28.627 38.15 31.094 18.965 2.293 38.676-1.06 57.026-5.222-12.898 48.8-32.01 97-46.268 145.654-15.987 48.358-31.603 96.892-47.232 145.346h-1.5c-14.717-13.023-36.747-23.742-55.045-24.057-20.942-1.823-39.82 11.605-52.606 27.055-12.165 15.415-16.281 35.17-16.917 54.306-.244 4.492-3.993 7.2-7.284 9.804-23.423 20.042-47.774 39.934-75.474 53.816-22.58 11.593-48.052 15.522-73.159 15.212-15.723.486-38.343 4.802-38.79 28.269.417 13.366 4.443 26.362 11.816 37.545 2.494 4.253 5.51 8.125 8.652 11.906 3.161 4.341 7.563 4.422 12.198 4.131 32.378-1.644 64.757-6.822 95.853-16.036 21.644-5.218 42.08-14.371 63.256-20.951m-162.927-14.227c-.624 8.58 5.629 13.53 13.122 12.794 7.886-.37 11.685-6.704 10.731-13.47.14-7.863-6.237-11.763-12.995-10.878-6.077.07-11.219 5.238-10.858 11.554M1143 1903.625c.008.5.115.95.375 1.375 15.691 5.051 30.604 12.35 46.319 17.296 18.298 1.926 36.943-.283 55.306.704 11.89-39.705 20.915-80.344 29-121h-61c-19.234 36.225-43.806 70.167-70 101.625M1161 2369c5.766 33.86 9.419 68.164 8.975 102.577-.637 25.501-3.47 50.956-9.103 75.845-1.296 4.197.857 8.03 4.036 10.933 5.525 6.208 11.77 11.954 19.65 15.002 14.379 6.386 31.994 1.785 43.217-8.466 17.389-15.756 25.073-39.928 24.225-62.977.52-22.383-8.784-47.95-18.335-65.734-14.502-26.16-34.954-49.183-58.235-67.81-3.374-3.136-10.707 1.482-14.43.63m17-276h36v-142h-36zm0 187h36v-159h-36zm4.09-760.51c-.163 8.295 6.224 12.883 13.308 12.32 8.273.271 12.92-6.355 11.946-13.718-.232-9.229-7.022-11.842-14.456-11-7.222.036-11.042 5.767-10.798 12.397m56.91 842.76c24.957 53.568 45.384 111.617 43 171.75 4.387 1.374 7.814 7.702 13.07 9.692 8.158 5.11 17.737 8.735 27.485 8.182 34.264-2.466 47.967-39.753 45.1-66.307-3.126-33.87-24.61-62.542-48.662-84.909-20.366-18.143-44.52-31.175-68.493-43.658-3.183 2.163-7.461 3.033-11.5 5zm57-269.25h39v-142h-39zm0 187h39v-159h-39zm43 71.578c17.856 22.383 32.356 48.12 41.192 75.524 7.365 22.103 11.825 45.742 10.292 69.135-2.145 9.37 7.265 14.067 14.025 18.144 12.546 7.946 28.91 10.26 43.063 5.245 20.75-7.035 35.411-28.034 37.1-49.572 2.348-22.024-4.83-44.37-19.321-61.128-27.833-34.73-70.838-51.907-112.72-62.476-5.143-1.647-9.234 1.818-13.631 4.55zm85.002-939.347c-.963 17.416 15.158 32.213 31.767 31.324 16.437-.289 30.216-15.695 29.2-32.022.259-16.676-15.809-30.666-32.227-29.084-14.993.389-29.775 15.633-28.74 29.782M1456 2214h102c-16.717 61.269-37.173 121.871-64 179.5 30.868 11.97 64.322 16.646 97.286 15.348 15.255-1.102 33.684-4.334 46.081-11.335 4.81-4.584 5.995-14.31 9.405-21.252 2.664-7.484 5.468-14.905 8.139-22.378 2.017-5.114 3.802-10.298 5.54-15.502 2.38-3.385 2.39-11.189 6.522-11.913 37.26-1.334 74.733.242 112.027-.468-2.17 25.249-5.874 50.37-10.391 75.298-3.513 18.061-7.896 36.123-15.684 52.846-5.198 13.081-17.68 21.759-31.824 21.724-44.07 3.255-88.068-6.24-132.101-5.868v12c30.078 4.162 65.13 17.533 85.971 36.494 11.95 10.44 18.49 25.366 20.931 40.792A269 269 0 0 1 1700 2608c29.152-.238 58.694-2.669 86.872-10.405 19.685-5.648 38.828-14.382 54.784-27.342 23.365-19.555 37.055-47.919 45.9-76.424 9.513-30.232 14.898-61.6 19.394-92.911 2.62-17.578 4.308-35.255 6.05-52.918 13.59-1.502 30.855-6.733 39-17-37.575-31.864-77.096-61.88-114.5-94-21.464 19.637-42.54 39.715-64.292 59.027-3.281 2.562-7.7 1.844-11.63 1.973H1675c7.961-28.242 19.023-55.73 27-84h228.6c16.81-.87 40.94 4.291 48.458-12.75 2.084-5.751-7.768-10.876-10.16-14.852-15.494-15.404-32.381-29.303-48.898-43.59-16.454-13.64-32.562-27.788-49.5-40.808-10.36 13.805-20.057 28.177-30.433 41.982-8.622 12.444-17.665 24.58-26.464 36.894-4.362 7.132-13.366 4.776-19.886 5.124H1449c1.01 9.601 6.161 18.383 7 28m20.25-1461c9.359-4.225 18.623-10.084 28.713-7.317 11.51 1.37 18.37 7.594 26.037 14.317 5.955-7.583 14.462-13.668 20-21.5-11.247-11.548-26.437-18.912-42.13-21.841-16.881-2.988-33.43 3.514-47.87 11.341.668 4.127 4.737 8.55 6.926 12.914 2.688 4.086 5.424 8.158 8.324 12.086m-.25 564c9.47-2.817 18.42-7.508 28-10-2.973-9.7-5.878-20.328-2.314-30.387 2.61-9.49 10.002-16.106 17.314-21.988-3.023-8.948-10.763-15.84-14-24.625-4.186.462-8.036 5.133-11.985 7.785-10.679 9.687-18.938 22.806-20.854 37.266-3.908 14.102.654 28.408 3.839 41.949m26 738.25c3.161 8.933 5.266 18.61 8 27.75h372c16.304-.438 38.985 3.018 45.815-13.468 1.324-5.01-5.633-9.265-9.455-13.253-31.875-27.94-64.811-54.747-97.86-81.279h-1.5c-14.38 22.283-32.931 42.485-48.046 64.432-3.192 3.885-6.398 8.883-9.456 12.335-3.312 4.18-10.046 3.182-14.712 3.233H1502zm28-902.25c9.888-.69 18.289-7.628 28-9-2.123-9.727-5.956-19.927-2.315-29.956 2.991-9.486 9.77-17.567 18.315-22.544-5.11-7.453-9.852-17.319-15.302-23.594-4.172-1.533-8.903 5.738-12.136 7.154-3.621 3.344-6.726 7.199-9.627 11.166-8.7 11.98-12.602 27.322-11.754 42.032.522 8.41 2.64 16.656 4.819 24.742m21 753h39v-148.2c.069-4.043.403-9.488-4.1-9.584-6.056-.525-12.17.021-18.235-.216-5.256.153-12.522-.485-16.665 1zm36-898c9.242-3.466 17.092-10.298 26-14.5-5.057-8.286-8.612-20.097-7.533-29.017 1.1-10.005 7.513-18.313 14.533-24.983-7.057-6.484-12.414-15.159-19.964-21.008-4.375-.043-7.19 7.493-10.21 9.52-2.805 3.662-5.274 7.587-7.222 11.77-6.83 13.09-8.233 28.598-4.885 42.87 1.278 9.084 6.262 16.93 9.281 25.348m7 353c5.002-.526 10.38-3.394 14.668-4.868 4.212-1.977 9.864-3.033 13.332-5.632-2.623-9.617-5.718-19.91-1.972-29.81 2.91-9.54 10.547-16.174 17.972-22.19-4.7-8.22-10.993-15.961-15-24.5h-1.5c-12.123 9.793-24.596 20.974-28.91 36.737-6.146 16.41-2.85 34.006 1.41 50.263m53-511c9.716.444 19.324 2.175 29 3 1.976-16.99-.968-34.814-10.008-49.44-8.666-13.204-24.93-24.975-38.992-28.56-1.139 7.46-4.931 14.287-6.668 21.602-2.87 6.33 3.194 8.79 7.698 10.522 6.838 4.005 12.569 10.014 15.828 17.4 3.731 8 3.313 16.913 3.142 25.476m2.5 348c8.303-4.115 17.757-6.831 26.5-10-1.333-9.948-5.58-20.323-1.659-30.468 2.799-9.365 10.014-16.458 17.659-22.032-4.17-8.996-10.884-16.773-15.5-25.5-13.311 9.293-25.38 21.719-29.928 37.755-4.337 15.59-3.47 36.81 2.928 50.245m52-155c7.97-4.242 16.808-10.862 24.5-14-2.437-8.574-8.888-17.637-7.145-28.74.186-12.163 8.442-18.402 14.145-26.76-6.776-6.636-13.609-15.62-20-21.5-19.343 16.106-27.874 43.15-21.384 67.371 2.243 7.154 5.13 16.845 9.884 23.629m106.5 863h44v-158h-44z" style="fill:#000;fill-rule:evenodd;stroke:none"/></svg>