<svg xmlns="http://www.w3.org/2000/svg" width="3000" height="3000"><path d="M1134 1267c.076-10.558 1.052-21.351 4.734-31.325 3.105-9.23 9.666-16.357 16.766-22.675 44.151 32.367 74.2 79.915 97.672 128.392 5.86 12.312 11.696 24.623 17.51 36.947 2.232 4.718 4.673 9.513 5.83 14.591-10.637 13.74-24.534 25.556-34.093 40.38-10.863 14.153-18.235 31.62-17.419 49.69-13.808-.333-27.667-.48-41.22 2.597-18.297 4.392-35.703 13.494-47.7 28.102-6.049 7.583-9.07 18.417-6.054 27.91 3.279 9.307 18.157 10.81 25.257 11.296 13.713.636 27.915-1.134 41.309 2.858 11.777 3.63 22.294 11.19 28.764 21.8 5.737 7.782 6.075 17.866 9.73 26.493 2.624 6.745 8.147 13.136 17.852 10.29 10.239-2.436 16.107-14.987 20.02-23.375 4.376-10.396 7.095-21.645 7.042-32.971 22.547.665 44.288-8.155 63.576-19.213 18.23-10.675 35.37-23.498 50.924-37.787 2.375 7.527 3.242 15.78 6.397 23.155 1.517 7.769 6.812 15.407 8.103 21.845-22.387 6.145-42.69 27.782-40.957 52.074-.012 11.794 10.753 13.148 19.668 12.926 9.845.138 19.8-.316 29.539 1.411 12.719 2.642 23.004 11.699 28.163 23.484 4.402 8.872 4.767 19.182 9.112 28.069 8.66 17.632 27.373 8.999 35.961-2.34 8.894-11.109 13.465-27.682 15.62-40.236 1.969-15.342 1.281-31.623-5.106-45.888 7.873-2.991 15.294-7.28 22.5-11.5 10.983 9.926 24.147 18.6 39.197 20.56 11.92 1.386 24.004-1.236 35.015-5.643 7.854-4.201 15.8 1.598 23.997 3.128 24.544 5.79 54.736-.55 69.554-22.547 2.756-4.034 4.69-8.73 5.737-13.498 19.249-.207 39.346-5.671 52.959-20.155 6.574-6.634 12.239-14.303 14.758-23.46 3.088-8.707 4.48-19.028-2.213-26.03-20.663-21.996-45.48-39.717-69.58-57.667-14.377-10.495-29.216-20.377-44.255-29.868-13.43-7.95-29.956-20.145-45.669-26.82v-2c44.322-19.76 79.71-56.06 106.472-95.8 19.46-31.114 36.114-64 48.652-98.552 2.775-6.892 5.191-13.906 7.507-20.954 2.131-7.015 7.997-9.248 13.242-12.596 39.095-27.196 76.758-57.33 108.521-92.992 16.006-17.186 30.136-36.43 41.112-57.195 8.432-19.186 16.062-47.915-9.506-64.411 4.785-2.082 10.564-.86 15.569-2.128 41.258-6.164 54.315-50.658 68.338-79.637 6.224-14.076 16.607-37.055-.246-50.652-15.627-11.206-39.334-10.933-55.837-12.92-42.394-3.404-85.032-1.435-127.479-1.246-54.779 1.654-109.676 4.796-163.795 13.839-51.687 8.927-105.339 21.955-147.952 54.342-16.66 13.263-30.707 30.321-40.034 49.455-14.847 30.144-20.159 63.887-28.181 96.166-7.173 31.898-18.024 63.13-32.883 92.281-1.406-12.117.26-24.503-.562-36.67-2.949-42.729-11.753-86.157-33.525-123.477-8.854-15.87-21.377-29.19-32.388-43.493-9.965-13.869-16.428-33.205-19.568-48.382-7.99-32.486-11.381-65.793-15.937-98.844-1.058-7.206-2.122-14.412-3.508-21.559-1.69-6.49-2.462-14.984-8.476-18.43-5.406-2.76-13.46 3.264-17.812 5.36-21.43 12.925-39.88 30.154-59.848 45.082-8.811 6.57-17.257 13.653-26.414 19.751-4.106 2.999-9.018 6.206-14.42 5.24-10.88-3.56-2.671-20.71-1.286-27.287 5.9-17.74 16.582-33.302 26.15-49.154 8.676-14.357 18.155-28.855 22.358-45.314 1.593-7.104 2.597-15.194-1.45-21.753-4.367-5.886-14.55-3.469-20.761-4.014-26.123 2.006-50.574 13.282-71.94 27.871-62.66 42.895-107.74 109.744-128.894 182.214-17.034 60.023-12.053 124.811 9.659 182.906 9.773 26.871 23.293 52.111 38.859 76.012 7.938 11.963 16.562 23.458 25.517 34.664a545 545 0 0 0 14.25 16.664c2.24 2.922 5.014 5.414 7 8.512-.004 3.043-3.77 5.942-5.185 9.119-14.776 20.502-19.726 48.51-9.4 72.28 4.67 11.355 12.395 21.469 21.71 29.415 9.108 8.248 20.731 14.138 33.371 13.287m-80 806c7.096 3.008 12.476 9.813 19.944 12.475 23.71 13.463 60.782 11.325 79.267-6.165 21.387-17.73 30.754-49.17 22.118-75.993-10.695-38.916-45.686-65.215-80.63-81.384-21.881-9.994-45.05-16.634-68.406-22.092-8.817-1.695-18.858-5.819-26.29-.278-4.597 2.005-2.108 6.07-.016 8.895 30.569 49.174 52.447 106.084 54.013 164.542m-44 260c19.784.034 39.863 5.938 55.093 18.932 12.905 13.245 14.51 36.148 16.606 51.794 4.006 37.575 2.08 75.642-1.63 113.142-1.532 16.013-3.852 31.95-6.344 47.832-7.629 27.555 7.19 57.59 33.545 68.942 46.374 21.463 108.454-12.276 118.421-61.384 4.468-19.28 3.382-42.871 2.922-60.87-1.885-33.442-14.43-64.881-27.725-95.194-11.034-22.548-17.641-47.035-16.88-72.284 1.18-38.593 9.409-76.652 17.18-114.308 7.451-36.489 16.525-72.612 24.877-108.879 8.68-35.856 16.332-71.94 25.044-107.778 8.124-37.165 18.993-73.766 26.891-110.945-6.096-.307-11.9-2.734-18-3-31.617 79.048-66.854 156.743-99.889 235.221-17.054 39.063-32.981 78.659-51.289 117.142-9.449 17.712-18.459 40.29-30.982 54.17-7.732 8.01-22.156 6.102-32.025 6.467H1010zm105-493c12.856 7.816 25.974 17.32 41.624 19.246 24.113 3.887 50.972-2.405 67.096-21.884 16.126-18.412 22.71-45.184 15.854-68.877-11.51-39.896-46.8-67.124-82.95-83.67-23.927-11.242-49.67-18.06-75.441-23.48-9.62-1.362-21.048-5.006-30.049-3.889-3.18 1.347-8.076 3.348-6.2 7.711 16.132 26.466 30.552 53.941 42.712 82.491 12.016 29.674 24.589 60.066 27.354 92.352m111-693c.657 9.282-9.85 17.662-15.105 22.595-6.799 6.569-14.825 11.679-21.895 17.905 20.8 14.466 36.546 35.033 50.554 55.808 13.1 20.728 26.947 41.527 37.446 63.692h2c2.369-14.614 8.397-28.454 11-43 9.39 1.423 17.9 6.723 26.947 9.378 9.098 3.693 18.663 6.492 27.553 10.622.057-22.195-5.268-44.697-5.5-67 19.109 1.715 37.13 11.166 56 13.5-7.643-23.569-14.235-47.677-21.415-71.429-2.99-10.614-6.429-21.1-9.355-31.731-1.61-4.098-2.48-10.704-5.41-13.183-30.144-21.461-59.637-43.87-90.183-64.766-23.403-14.901-50.944-28.756-79.848-24.482-21.055 2.692-42.384 11.088-56.509 27.73-18.079 21.322-30.256 63.429-2.997 87.242 12.608 10.52 29.58 12.923 45.438 12.014 17.096-1.577 34.18-3.326 51.279-4.895m-51.575-34.95c.233 10.243 9.416 18.086 19.252 16.945 11.728.393 22.516-10.799 26.328-19.91 4.313-10.63 2.555-33.09-15.757-31.547-7.8 1.48-15.372 7.951-19.923 13.309-5.5 5.705-9.564 13.013-9.9 21.203M1516.5 2238c1.426 31.476-.26 63.432.5 95 27.834.723 56.05-1.198 82.292-11.275 11.946-4.155 23.5-9.549 34.15-16.358 4.952-3.341 11.27-7.385 13.934-12.394 2.748-6.563 1.042-14.088 1.624-20.973h186c-.412 27.297-2.326 54.87-4.5 82-21.967-24.246-55.638-32.664-86.943-33.972-9.005-.046-17.986-.027-26.988-.004-6.562.299-13.156.395-19.696 1.044-4.399.463-7.526 3.846-9.97 7.16-1.705 2.587 3.422 5.365 4.705 6.858 7.743 5.698 14.732 12.245 21.262 19.284 19.968 20.584 36.287 45.473 45.425 72.684 1.927 5.031 8.777 6.815 13.255 8.619 16.35 5.738 35.689 4.858 49.95-5.673-.575 11.891-5.272 25.977-7.667 36.625-2.612 8.394-5.793 16.814-10.748 24.138-7.82 11.031-26.043 12.168-37.96 11.917-14.26-1.35-29.004-.01-43.125-2.18 5.9-7.699 12.235-15.404 14.359-25.231 4.305-14.259 2.319-32.49-2.665-45.037-5-13.345-15.943-26.427-25.343-35.249-27.613-25.813-64.373-38.305-100.57-46.124-4.578-1.26-9.172-2.213-13.9-2.373-2.941 1.95-7.185 2.997-9.206 6.276-.845 3.236 2.79 6.36 4.322 8.904 14.504 19.142 25.788 40.612 34.443 62.967 5.894 14.655 10.135 29.975 12.396 45.613 1.494 8.323 1.615 16.78 2.213 25.173 1.008 6.357 10.24 10.28 16.013 14.115 8.384 4.437 17.64 7.141 27.16 7.27 4.684.023 9.346-.748 13.978-1.304 4.467.548 8.687 2.373 12.868 3.93 6.313 2.607 12.385 5.81 18.43 8.965 17.607 10.408 31.873 27.281 36.257 47.593 4.796 21.306 4.93 43.311 5.245 65.012 51.136.888 107.595-10.406 144.2-49.284 17.59-18.737 26.675-43.362 33.736-67.495 6.91-24.831 11.291-50.292 14.388-75.852 6.66-51.2 9.406-102.828 11.676-154.369 11.225-1.932 22.8-4.643 32.533-10.851 3.88-2.227 11.137-7.71 6.573-11.718-3.983-3.72-8.42-6.946-12.51-10.533-11.124-8.934-22.085-18.053-33.204-26.984-17.245-13.694-34.082-27.844-51.267-41.593-4.28-3.423-8.512-6.928-12.733-10.407-2.87-2.9-6.698-5.485-10.496-1.227-9.185 8.81-18.87 17.052-27.998 25.915-6.119 6.082-12.81 11.514-18.768 17.768-5.79 4.832-11.111 10.275-16.76 15.236-6.163 2.863-15.605.39-22.178 1.394H1649v-71h321c13.726.73 34.203-.633 35.506-16.624.046-4.517-6.879-7.837-9.481-11.851-25.485-26.055-55.29-47.368-82.025-72.025 5.077-3.486 13.951-4.241 20.056-8.564 8.983-3.715 8.533-10.534 7.944-17.829V1832c6.377-.084 13.406-3.182 18.458-5.82 4.908-3.54 12.77-7.521 13.542-13.18-23.358-15.057-44.752-34.112-67.573-50.16-16.837-12.536-33.502-25.317-50.424-37.734-3.606-2.907-7.414.037-9.605 2.996-10.123 10.788-22.043 23.393-31.326 33.279-4.035 4.186-8.244 8.198-12.296 12.358-3.483 3.453-6.059 7.814-10.11 10.69-3.337 2.588-9.51 1.047-14.107 1.571H1676.5l-1.5-.5c26.39-16.89 52.283-34.768 77.803-52.98 6.526-4.58 13.02-9.204 19.313-14.1 4.897-3.547 9.628-7.319 14.534-10.838 3.802-3.098 8.95-2.482 13.482-3.62 11.307-2.232 26.42-10.302 26.868-25.962-61.05-8.456-121.982-18.292-183-27-2.758 42.584-2.661 85.515-6.5 128-19.655-8.395-39.928-15.546-59.644-23.868-10.203-4.049-20.387-8.167-30.575-12.21-9.87-3.104-20.825-9.557-30.281-10.922-.742 19.905.908 40.207-.5 60-23.743-24.482-49.302-46.926-73.738-70.65-1.553-1.68-3.596-2.681-5.491-3.855-3.578-.244-5.525 6.201-7.609 8.041-14.83 22.07-28.984 44.548-43.771 66.638-3.114 4.462-5.707 9.264-8.828 13.714-3.021 5.724-8.387 5.483-13.821 5.112H1245c.303 5.207 2.332 10.1 3.592 15.091 1.813 4.577 2.58 11.525 4.908 14.909 3.613-2.016 9.641-.302 14.317-1h28.62c4.515.185 9.089-.264 13.573.235 4.787-.135 3.97 7.271 3.99 10.354-.76 133.38.926 267.155-.5 400.411-38.14 4.56-77.003 15.467-115.5 20 .374 4.713 3.77 8.525 5.444 12.88 16.54 31.956 33.218 63.83 50.22 95.526 3.933 8.256 8.288 16.266 12.67 24.269 2.787 5.252 5.854 15.516 12.175 12.952 9.26-3.79 16.83-11.131 21.243-20.096 4.196-9.08 14.092-13.262 21.789-18.874 62.172-40.92 122.797-84.146 182.089-129.133 4.217-3.6 8.93-6.615 12.87-10.524m-95.5-807h4c1.205 28.829 5.135 63.654 16.618 87.864 5.79 13.238 19.862 22.257 34.497 19.725 14.554-1.13 27.243-9.648 36.853-20.066 22.15-23.987 33.753-56.185 37.372-88.257 2.746-17.343 1.443-34.894-1.349-52.103-1.212-7.32-3.352-14.467-5.625-21.498-1.064-3.086-2.364-6.094-3.599-9.1-4.41-8.235 5.826-9.143 11.364-10.78 45.437-14.49 83.681-46.157 112.103-83.753 28.559-38.162 47.302-82.666 63.322-127.202 1.782-4.734 3.221-10.594 5.241-14.781 1.997-3.701 7.698-5.52 11.596-8.203 32.157-19.253 60.206-44.554 87.84-69.579 19.452-20.195 40.76-39.578 55.162-63.975 4.62-8.352 9.762-19.997.341-29.743-7.481-5.542-18.739-7.65-26.445-10.954-19.569-3.888-23.122-27.689-9.634-39.272 9.57-7.6 24.037-11.078 34.714-13.4 18.508-3.878 40.291-.22 54.36-13.211 5.986-6.458 9.315-14.937 12.94-22.824 4.104-8.112 7.863-16.484 12.329-24.388-11.243-3.507-25.614-1.788-36.211-2.5-87.847.012-175.905 3.673-262.978 15.704-40.396 6.728-81.592 14.881-117.85 34.88-17.606 10.1-31.979 25.395-41.419 43.33-9.714 18.547-14.126 39.193-19.355 59.261-12.092 52.835-22.917 109.671-58.458 152.897-3.68 5.741-9.978 8.742-14.848 13.159-2.019 1.746-.86 5.131-.132 7.817 11.155 43.441 24.56 86.44 35.251 129.952-11.669-.71-22.882-4.862-34.336-6.852-11.216-3.17-23.207-4.27-34.164-8.148-1.237 12.267 2.203 27.112 2.336 38.409.823 12.882 2.501 25.7 3.164 38.591-10.65-.99-22.261-6.871-31.735-9.071-10.15-3.379-20.493-6.16-30.507-9.929-1.996 1.91-1.906 5.758-2.535 8.81-2.09 12.427-4.45 24.803-6.562 37.215-.28 4.684-3.135 11.662-1.62 15.462 3.088 9.078 10.063 16.552 12.463 25.918-3.488 6.501-13.526 11.09-18.228 16.85-10.932 9.681-21.69 19.658-29.959 31.826-5.712 8.445-12.178 19.323-13.192 28.874-.623 13.73 2.77 35.86 23.946 37 15.992.196 33.97-7.261 46.821-13.594 16.2-8.56 31.332-18.913 45.324-30.753 7.386-5.722 15.216-13.399 21.632-19.04 3.459-3.278 6.733-6.718 10.127-10.043 2.705-3.317 8.046-6.969 9.025-10.525m0 908c-4.097 26.372-9.388 53.138-22.432 76.849-10.198 19.805-24.408 37.514-40.779 52.523-7.302 6.38-14.855 12.39-23.243 17.272-3.8 2.554-8.296 4.37-11.242 8.012-10.168 13.962-19.722 30.063-21.29 47.629-1.115 16.256 1.908 33.751 14.392 45.554 20.265 19.692 51.915 24.823 78.078 14.77 40.224-14.654 61.833-57.757 65.62-98 5.576-44.016-1.954-88.396-14.105-130.636-3.425-10.58-6.04-21.55-10.445-31.785-.822-2.343-5.078-1.823-6.937-2.182-2.54-.015-5.088 0-7.617-.006m-16-1260.562c.342.41.631.299 1 .062-.32-.203-.644-.43-1-.062M1439.5 2225c25.487-6.561 51.794-11.11 77.5-17v-367.5c-12.888-1.372-26.262.205-39.245-.5h-19.773c-5.928.37-14.313-.703-18.982 1 .76 127.936-.926 256.15.5 384m50.5 129c.177 8.378 3.245 16.456 4.596 24.685 5.677 31.655 8.882 63.735 9.376 95.884.22 24.613-3.268 48.963-6.6 73.236-.034 3.755 3.663 7.446 6.526 10.588 10.95 11.861 26.009 20.294 42.424 20.386 12.084-.423 24.185-3.876 33.69-11.611 14.196-11.062 23.405-27.512 26.516-45.294 3.15-18.973 2.146-38.886-4.421-57.018-15.103-47.733-52.306-84.404-93.265-110.997-6.592-5.675-12.806-.43-18.842.141m159-449h152v-88h-152zm0 118h152v-88h-152zm0 116h171.6c7.574.072 16.115 2.095 21.023-6.872 13.333-17.114 24.74-35.767 38.377-52.628-12.292.86-24.869 5.538-37.465 5.574-13.843.882-27.68 1.108-41.535.926v-32h-152z" style="fill:#fff;fill-rule:evenodd;stroke:none"/><path d="M327 2802.5c390.66 1.426 782.125-.26 1172.95.5 390.946-.76 782.184.926 1173.05-.5-79.284-468.283-156.02-937.69-234.792-1406.201-29.222-176.024-58.731-352.018-88.16-527.994-12.796-76.829-25.59-153.676-38.409-230.5-5.977-36.02-12.025-71.992-18-108-2.928-17.508-5.855-34.99-8.745-52.497-.795-4.678-1.595-9.35-2.358-14.018-.403-5.813-4.632-7.44-9.23-8.351-136.155-45.374-272.297-90.765-408.44-136.14-118.995-39.696-238.006-79.344-356.998-119.005-7.36-3.594-13.268-1.406-20.008 1.408-103.34 34.51-206.696 68.878-310.033 103.355a1093431 1093431 0 0 1-271.561 90.514c-39.662 13.232-79.311 26.454-118.969 39.67-18.676 6.196-37.335 12.443-55.998 18.654-3.991 1.804-9.7 2.485-12.774 5.267-95.938 570.136-190.308 1140.76-285.634 1711.041-35.77 210.46-69.684 422.872-105.891 632.797m769-1660.168c-2.372 6.13-7.784 10.62-10.441 16.647-11.94 20.262-14.816 46.258-4.082 67.912 8.975 19.502 31.001 38.978 51.523 39.109.129-12.623 1.468-25.851 7.495-37.173 2.215-4.562 5.372-8.533 9.107-11.93 1.615-1.331 3.164-3.438 5.479-4.399 8.48 2.915 14.831 11.232 22.11 16.332 48.007 44.897 75.273 106.095 101.809 164.738-12.718 12.566-24.577 26.037-35.297 40.347-10.973 14.26-18.55 31.825-17.703 50.085-13.808-.333-27.667-.48-41.22 2.597-18.297 4.392-35.703 13.494-47.7 28.102-5.98 7.065-9.42 19.367-5.387 27.382 4.474 8.574 19.127 9.443 26.355 9.881 13.3.445 27.074-.995 40.023 2.954 11.42 3.648 21.66 10.976 28.04 21.258 5.92 7.85 6.292 18.119 9.974 26.882 2.727 6.369 7.965 13.366 17.026 9.968 10.364-4.053 15.264-15.343 19.525-24.654 2.057-5.158 3.717-10.48 4.788-15.926 1.684-4.954.78-12.704 3.076-16.444 11.356 3.117 25.106-1.89 34.64-5.455 30.747-10.432 55.893-32.081 80.86-51.545 1.809 15.723 8.881 33.196 15 46.184-3.068 2.838-9.027 3.986-13.028 6.945-14.32 8.303-27.391 22.05-28.84 39.418-.171 4.318-.57 9.995 2.156 12.938 4.578 5.913 11.361 5.515 18.02 5.515 6.956-.068 13.919-.064 20.844.51 12.358.158 24.212 6.233 31.494 16.175 5.273 7.466 8.314 16.04 10.016 24.964 1.776 6.463 3.717 13.707 9.06 18.245 20.16 13.149 36.475-19.476 40.347-32.618 3.449-9.948 5.06-20.513 4.924-31.02 1.062-11.27-3.246-21.695-5.993-32.256 8.513-2.305 16.124-7.41 23.5-12 10.57 10.34 23.688 18.56 38.389 21.295 11.428 1.746 23.169-.963 33.797-4.988 8.815-4.875 15.918-.846 24.048 2.013 23.688 6.276 53.666 1.055 69.02-19.757 3.593-4.517 6.041-9.926 7.246-15.563 19.097-.196 38.941-5.582 52.6-19.755 6.41-6.52 12.271-13.84 14.77-22.855 3.581-8.823 4.544-18.938-2.518-25.802-20.52-21.431-44.763-38.989-68.518-56.588-29.415-21.853-61.224-40.378-92.334-59.5 44.338-20.551 80.647-55.648 107.6-95.988 19.837-31.254 36.564-64.508 49.319-99.292 2.785-6.927 5.235-13.966 7.544-21.052 2.03-7.297 7.964-9.7 13.41-13.07 39.547-27.453 77.485-58.049 109.6-94.073 15.638-17.76 30.735-36.681 40.96-58.19 8.822-19.043 13.736-50.608-15.433-62.335 16.17-1.957 34.572-1.585 47.609-13.517 9.298-7.088 17.254-18.574 21.956-28.094 8.508-16.768 17.142-33.497 23.896-51.062 3.157-8.719 6.083-18.475 2.884-27.664-3.344-8.799-11.986-13.964-20.568-16.397-38.299-10.507-78.677-7.242-117.86-8.755-66.736.768-133.683 2.877-199.809 12.458-34.993 5.543-70.164 12.356-103.424 24.86-23.962 8.77-47.057 20.877-66.277 37.803-13.523 13.27-26.53 27.936-33.872 45.72-6.667 13.238-11.084 27.476-14.704 41.813-6.575 21.845-10.147 44.447-15.87 66.494-5.261 21.025-12.983 41.346-21.615 61.171-3.221 7.735-7.14 15.186-10.846 22.67 1.937-47.036-1.979-95.982-19.98-140.188-7.586-18.027-17.675-35.025-30.021-50.176-5.393-7.36-11.7-13.996-16.97-21.434-10.279-15.26-15.467-33.074-19.142-50.88-7.96-33.891-10.737-68.703-16.183-103.011-1.178-7.486-2.356-14.97-4.506-22.25-1.32-2.936-2.63-7.295-6.103-8.832-6.683-2.045-13.854 5.08-18.563 6.825-22.247 14.522-42.201 32.219-63.252 48.334-9.178 6.28-19.044 15.473-28.47 19.633-4.187 1.647-11.243 2.4-13.372-4.246-2.221-10.011 3.565-22.449 6.514-31.67 7.529-18.626 19.64-34.873 29.636-52.132 8.554-15.182 20.226-34.532 16.723-50.151-2.387-10.636-11.957-8.82-20.362-8.776-29.648 2.028-56.728 16.219-80.31 33.347-68.79 51.826-117.433 132.11-129.099 217.742-12.457 102.393 35.058 204.038 104.96 276.197m-98 760.257c31.685 50.503 55.53 108.955 57 169.411 6.97 2.859 12.141 9.595 19.427 12.195 23.221 13.809 59.654 11.63 77.784-5.885 21.143-17.493 30.69-48.492 21.862-74.985-10.997-38.061-45.082-63.883-79.426-79.963a316 316 0 0 0-48.316-17.12 592 592 0 0 0-25.506-6.383c-4.148-.74-8.252-1.823-12.445-2.208-3.651-.654-7.128 3.632-10.38 4.349zM1011 2332c19.784.034 39.863 5.938 55.093 18.932 12.905 13.245 14.51 36.148 16.606 51.794 3.963 37.502 2.265 75.524-1.403 112.959-1.622 16.075-3.646 32.093-6.25 48.029-.845 6.94-2.954 13.79-2.777 20.822 1.724 12.96 9.494 27.227 17.614 35.816 8.88 8.62 22.405 14.99 33.334 17.405 23.463 4.373 52.173-4.61 69.145-17.757 17.122-12.237 29.008-30.942 32.99-51.545 3.835-19.132 2.587-42.46 1.917-60.213-2.594-32.964-15.62-63.798-28.564-93.81-10.931-22.573-16.669-47.276-15.7-72.412 1.423-37.845 9.186-75.195 16.932-112.121 7.39-35.97 16.277-71.615 24.483-107.39 16.925-73.311 33.719-146.655 52.58-219.509-5.393-.51-10.687-2-16-3-31.617 79.048-66.854 156.743-99.889 235.221-17.054 39.063-32.981 78.659-51.289 117.142-9.449 17.712-18.459 40.29-30.982 54.17-7.731 8.01-22.155 6.102-32.026 6.467H1011zm34-669.656c3.05 7.237 8.488 13.546 11.896 20.66 13.823 23.734 25.564 48.636 36.044 73.998 10.45 26.333 20.658 53.496 23.06 81.998 12.707 7.73 25.633 17.126 41.075 19.15 23.765 4.049 50.3-2.942 65.945-22.182 15.756-18.064 22.391-44.493 15.208-67.625-11.754-38.914-46.135-65.648-81.566-82.022-17.41-8.61-36.179-14.137-54.87-19.135-9.874-2.45-19.834-4.526-29.805-6.48-8.297-1.826-18.174-4.543-26.987 1.294zM1225 1148c-.825 9.227-11.411 16.91-16.239 21.65-6.868 6.425-14.902 11.443-21.761 17.85 21.2 15.29 37.978 35.881 52.109 57.674 14.532 21.067 26.648 43.73 39.391 65.826 4.28-15.178 8.851-30.625 12.5-46 18.557 5.736 36.196 15.033 55 20-.958-22.416-5.013-44.592-6-67 19.013 3 37.016 11.025 56 14-7.6-30.167-17.928-59.682-26.095-89.719-1.852-5.552-3.188-11.25-4.948-16.816-1.58-4.849-2.256-10.516-6.705-13.606-31.438-21.676-61.363-45.555-93.34-66.417-16.484-10.463-34.446-19.233-54.146-21.447-19.419-2.748-42.793 2.216-58.42 10.926-15.525 8.978-29.014 22.487-35.201 39.72-9.004 21.846-8.264 58.07 20.47 72.3 13.3 6.41 28.642 6.699 43.074 5.652 7.696-.422 15.357-1.38 22.979-2.446 7.07-.953 14.362-.451 21.332-2.147m-49.543-36.497c.637 9.657 9 17.475 18.583 16.46 11.07-.24 20.95-11.059 24.808-19.496 5.874-11.846-.774-33.12-15.487-29.51-13.71 4.372-25.627 19.861-27.904 32.546M1199 2272.75c26.043 47.622 49.829 97.023 76.5 144.25 5.538-3.385 11.994-5.616 16.046-11.133 4.528-4.297 6.896-10.056 9.971-15.31 7.421-7.885 19.673-13.042 27.21-19.39 32.044-21.388 63.715-43.304 95.15-65.562 31.73-22.472 62.807-45.917 93.623-69.605 1.426 31.87-.26 64.07.5 96 27.38.763 55.072-1.586 80.834-11.461 11.736-4.173 23.127-9.429 33.607-16.172 4.953-3.341 11.272-7.385 13.935-12.394 2.748-6.563 1.042-14.088 1.624-20.973h178.8c3.34.146 7.625-.418 10.2 1.5-1.574 2.658-.648 6.983-1.04 10.499-.452 24.713-3.345 49.306-3.96 74.001h-2c-4.413-9.294-17.095-15.556-25.323-20.67-10.317-5.3-21.119-9.918-32.64-11.804-14.456-2.905-29.175-3.93-43.88-3.526-7.646-.115-15.31.034-22.93.539-3.739.277-7.716.016-11.167 1.755-2.76 1.547-4.781 4.082-7.06 6.206 25.184 19.135 46.443 43.134 61.6 70.999 3.743 6.86 7.06 15.453 9.468 22.176 1.562 7.545 6.403 9.358 12.59 11.327 17.577 7.514 38.011 5.002 52.842-7.002-1.946 12.27-4.422 25.175-7.73 37.293-2.524 9.095-5.815 18.075-10.777 26.145-7.488 12.379-27 13.609-39.48 13.274-15.509-.705-31.01-1.079-46.513-1.712v-2c11.717-8.066 17.462-26.064 18.637-38.346 1.318-19.475-6.22-38.844-18.891-53.377-11.991-14.644-27.39-26.558-44.04-35.42-14.095-7.456-29.182-12.604-44.381-17.192-8.156-2.167-16.367-4.228-24.595-6.045-3.636-1.232-7.456-1.39-11.158-2.142-2.845 2.495-7.426 3.043-9.572 6.522 18.775 23.997 33.685 51.175 43.274 80.183 4.084 11.135 6.49 22.864 8.482 34.515.853 5.297 1.553 10.588 1.673 15.952.48 5.169-.344 11.784 3.184 14.943 13.624 11.313 31.871 18.685 49.76 15.156 6.683-1.156 13.084 1.933 19.15 4.264 21.402 8.87 42.087 23.896 50.33 46.625 8.212 23.784 7.237 49.612 8.147 74.362 50.522.575 106.095-10.872 142.2-49.284 17.337-18.482 26.38-42.667 33.456-66.445 6.803-24.503 11.308-49.543 14.41-74.767 6.788-51.908 9.667-104.244 11.934-156.504 11.044-1.941 22.437-4.51 32.063-10.557 3.397-2.394 11.753-6.916 5.657-11.349-4.048-3.473-8.256-6.743-12.328-10.18-10.916-8.639-21.495-17.696-32.4-26.327-23.728-17.656-45.39-38.626-69.492-55.587-14.86 14.84-30.966 28.31-45.975 42.975-5.479 5.813-11.676 10.834-17.398 16.373-5.06 5.42-14.784 3.098-21.346 3.652H1648v-73h321c13.64.751 34.134-.642 35.416-16.476-28.437-30.335-61.84-56.158-93.416-83.024 7.805-5.115 18.27-5.631 25.712-11.744 4.505-2.723 4.433-7.394 4.288-12.051V1831c12.392-.648 23.56-7.96 32-16.5-40.297-29.843-80.265-60.51-120.5-90.5-5.82 5.631-11.474 11.365-16.67 17.565-9.956 9.713-21.024 21.688-29.805 30.91-3.951 3.574-6.981 7.982-10.76 11.687-3.514 3.705-9.923 2.768-14.51 2.838-36.156-.76-72.717.926-108.755-.5 25.653-18.408 52.898-34.664 78.086-53.792 13.533-8.637 25.506-19.62 39.01-28.233 14.039-1.874 33.615-5.2 36.904-25.475-60.079-8.8-120.64-17.406-180.5-27-3.428 42.436-3.323 85.462-6.5 128-41.007-13.44-80.201-32.852-121-47-.745 20.574.912 41.543-.5 62-26.574-26.11-53.159-52.288-81-77-21.16 30.003-39.775 61.796-60.77 91.88-3.017 3.958-11.74.982-15.67 2.12H1246c2.339 9.752 5.676 19.249 8 29h59v411c-38.178 5.338-75.76 15.07-114 20zM1422 1432h2c1.205 28.829 5.135 63.654 16.618 87.864 5.918 13.69 20.391 22.273 35.286 19.84 14.613-.837 27.668-8.918 37.328-19.437 22.641-24.02 34.446-56.603 38.109-88.994 3.604-29.771.426-61.107-12.341-88.507 2.66-2.748 8.161-3.052 12.156-4.692 60.833-19.606 108.338-68.452 138.348-123.368 11.61-21.154 21.735-43.111 30.024-65.798 4.026-10.242 7.738-20.568 11.032-31.057 2.015-9.681 14.24-13.607 21.416-18.752 30.508-20.625 59.333-44.12 85.5-70.074 18.71-18.92 41.614-41.426 52.514-63.726 4.113-8.47 5.358-23.651-5.927-29.234-8.763-4.256-18.264-6.717-27.373-10.047-16.874-5.325-16.417-30.588-1.583-38.28 10.21-6.242 24.161-9.56 34.822-11.378 17.978-3.424 40.036-.021 52.547-14.538 5.382-6.747 8.277-15.04 12.003-22.716 3.171-8.289 9.8-17.089 11.521-25.106-16.357-2.971-33.168-1.672-49.67-2-60.766.064-121.471 2.702-182.023 7.47-42.681 3.909-85.457 9.18-127.025 19.893-28.5 7.519-63.026 19.983-82.257 40.112-17.325 16.381-26.608 39.173-32.57 61.712-10.028 35.117-14.94 71.683-27.429 106.119-6.004 16.77-12.674 33.283-21.723 48.653-8.22 14.423-18.8 28.163-33.303 36.541 13.637 45.12 24.828 91.208 38 136.5-23.603-2.633-46.441-12.436-70-14.5 3.76 25 3.694 51.278 7 76.5-20.882-6.111-41.953-12.896-62.5-20-4.465 15.197-5.229 31.548-8.832 47.008-1.589 6.943-4.073 15.28.79 22.895 3.83 6.326 6.918 13.193 10.542 19.597-23.019 19.287-48.713 39.035-59.845 68.234-5.318 13.894-1.467 34.56 9.63 43.043 12.787 9.414 33.04 1.433 45.89-2.653 24.517-9.687 46.26-25.149 66.115-42.264 6.046-5.57 12.202-10.972 18.312-16.462l9-9c2.481-2.9 7.053-6.233 7.898-9.398m0 908c-4.097 26.372-9.388 53.138-22.432 76.849-10.198 19.805-24.408 37.514-40.779 52.523-7.302 6.38-14.855 12.39-23.243 17.272-3.8 2.554-8.296 4.37-11.242 8.012-10.164 13.949-19.72 30.07-21.29 47.617-3.188 36.722 25.486 61.572 57.997 62.85 23.312 3.017 50.313-10.087 64.591-25.225 26.007-26.342 34.818-64.075 35.204-99.869 1.05-37.599-6.798-74.996-17.262-110.89-3.065-8.835-5.535-19.678-9.223-27.455-2.475-2.97-9.184-.903-12.321-1.684m18.5-114c25.487-6.561 51.794-11.11 77.5-17v-368h-78c.76 128.27-.926 256.806.5 385m50.5 129c6.323 33.607 13.126 67.536 13.424 101.968 1.132 26.871-.336 53.884-4.57 80.446-.466 4.745-2.488 10.355-.035 13.85 10.197 13.781 26.08 24.535 43.348 26.227 26.593 1.417 49.94-17.851 58.29-42.195 10.008-26.101 6.15-55.244-4.292-80.357-16.999-43.147-51.856-76.155-90.179-100.651-5.127-4.236-10.966.356-15.986.712m157-449h154v-90h-154zm0 118h154v-90h-154zm0 116h175.8c4.388.095 8.767.074 13.094-.506 9.419-8.95 15.2-21.418 23.649-31.267 7.1-10.457 15.425-20.74 22.207-31.227-26.356 6.986-53.568 8.991-80.75 8v-32h-154z" style="fill:#000;fill-rule:evenodd;stroke:none"/></svg>