<svg xmlns="http://www.w3.org/2000/svg" width="3000" height="3000"><path d="M406 2716h2188c-.452-13.213-4.171-26.125-5.71-39.208C2468.846 1960.196 2349.431 1243.585 2230 527c-109.325-35.987-218.457-72.878-327.734-109.071-95.467-31.86-190.966-63.65-286.44-95.486-21.006-7.01-42.008-13.98-63-21l-30.529-10.183c-9.47-3.025-21.252-8.92-30.35-5.086-156.692 52.308-313.447 104.425-470.128 156.726-58.858 19.6-117.69 39.211-176.522 58.84a13538 13538 0 0 0-39 13c-6.35 2.09-12.684 4.257-19.031 6.331-3.184 1.068-6.352 2.146-9.537 3.196-3.19 1.089-6.803 2.23-7.834 5.203-65.28 386.216-128.621 772.918-193.513 1159.221-28.466 171.168-57.103 342.325-85.568 513.49-14.29 85.675-28.582 171.346-42.844 257.018-7.145 42.829-14.299 85.67-21.418 128.502-3.57 21.335-7.128 42.665-10.66 64.002-1.808 10.66-3.57 21.336-5.34 31.998-1.36 10.463-4.53 22.595-4.552 32.299m827-1764c13.246 38.114 30.907 74.59 47.192 111.445 6.912 16.375 14.87 32.265 21.89 48.587 3.54 7.459 6.602 15.109 10.205 22.537 1.72 3.647 3.43 7.3 4.799 11.087 1.439 8.059-2.578 16.34-2.474 24.442-2.605 16.432-3.07 32.987-1.91 49.56.707 65.04-.18 130.107.803 195.14.672 47.3 1.724 94.665-3.945 141.7-1.015 8.389-2.073 16.758-3.766 25.03-2.475 14.529-14.837 28.988-15.426 42.768-.192 6.678 11.845 7.414 15.782 8.503 13.335 1.56 26.723 2.526 40.116 1.49 10.859-.543 24.723-1.202 33.072-7.496 4.318-3.522 3.586-8.636 3.663-13.55 1.152-78.464 3.994-156.863 6.999-235.243h2c2.881 2.22 2.849 7.543 4.076 11.325 8.14 32.427 14.549 65.269 19.817 98.256 5.142 29.628 6.53 59.703 2.933 89.602-1.13 13.05-4.215 25.756-7.072 38.47 3.192 24.293 29.28 36.243 48.01 41.401 20.167 5.309 42.256 3.825 61.43-4.326 7.96-3.261 15.491-7.527 22.209-12.884 2.65-2.406 6.132-6.582 9.932-2.498 10.203 12.152 25.158 18.769 40.476 21.487 27.112 3.343 59.707 1.076 79.546-20.711 14.53-15.513 13.324-38.544 16.037-58.185 1.233-7.908 1.102-16.155 4.108-23.675 18.675-51.146 40.458-102.003 48.498-156.262 5.39.424 6.412 9.768 9.014 13.024 4.532 10.003 9.122 20.143 12.17 30.713 3.511 44.816.187 90.688-13.312 133.745-2.35 7.8-5.272 15.613-4.872 23.877-.014 4.043-.085 8.1.614 12.1.841 2.943.946 7.843 3.557 9.16 6.083 3.407 14.77 2.514 20.827 3.296 13.69.55 27.352-1.057 40.734-3.775 13.47-.601 13.978-15.881 15.143-25.948 1.996-21.614.507-43.389 1.49-65.033.287-31.039 4.087-61.79 6.286-92.686 1.822-15.047-6.604-28.43-14.552-40.445-6.677-12.001-14.951-25.945-20.038-37.489-7.9-19.926-6.158-41.638-6.061-62.539h3c5.707 11.207 16.282 22.764 23.867 31.373 7.836 8.752 15.839 17.403 25.26 24.535 3.577 3.266 8.525 6.142 9.578 11.903 4.58 18.955 12.086 37.016 17.053 55.858 4.996 14.54 6.513 29.877 9.616 44.815 1.203 4.673 2.866 10.575 9.102 11.936 8.459-2.734 13.32-15.28 16.447-21.744 10.848-26.566 15.903-62.077 8.224-87.687-5.295-18.994-18.995-36.736-39.138-41.251-4.45-1.957-11.495-2.005-14.776-4.337-10.727-9.753-19.284-24.788-26.92-35.447-5.777-9.174-11.21-18.558-15.987-28.28-6.208-11.876-12.023-23.91-16.811-36.427-4.445-8.978-6.655-18.613-8.553-28.363-8.11-28.007-23.363-53.567-43.832-74.254-10.357-10.031-22.29-18.587-35.385-24.673-13.608-5.978-28.319-8.843-42.812-11.872a372 372 0 0 0-40.489-6.806c-12.93-1.875-28.364-.596-40.145-2.718-5.726-1.147-13.469-1.556-16.144-6.31-5.147-9.323-10.477-18.589-17.245-26.859-6.02-8.3-14.6-14-23.082-19.496a5428 5428 0 0 0-46.717-32.186c-7.113-4.619-14.208-9.369-19.214-16.335-18.728-25.842-32.245-55.294-44.783-84.494-2.4-5.632 8.892-7.95 11.767-10.328 19.94-10.114 36.612-26.356 48.728-44.916 9.214-13.933 16.924-29.694 17.552-46.733-.681-5.999-8.094-10.584-10.298-15.098-30.733-32.502-77.462-45.06-120.863-41.806-.706-15.695-2.535-31.368-4-47 7.121-1.646 11.957-11.393 10.326-17.546-2.191-7.99-10.345-13.402-18.582-13.428-8.872-1.074-18.892 6.379-20.123 14.67-.908 8.137 8.753 14.844 4.653 22.949-2.085 6.368-4.257 12.687-6.34 19.055-1.384 4.606-2.844 11.95-9.656 8.968-14.405-5.776-29.472-11.269-45.278-10.668-1.611-10.422-7.248-22.138-7-32 4.89-.69 7.163-8.596 6.476-12.034-1.534-6.14-7.637-10.406-13.807-10.827-6.59-.753-16.168 1.516-18.92 10.043-2.815 8.098 7.878 13.503 7.133 19.466-.331 9.147-.42 18.327-1.882 27.352-24.634 5.44-48.793 24.784-62.855 42.42-6.125 7.19-12.449 16.302-16.721 23.82-2.159 3.52-4.09 7.193-6.123 10.782-3.956 5.567-14.114 7.043-20.438 11.63-23.91 12.853-47.767 29.947-59.023 55.718-12.725 25.254-7.142 62.727 12.073 80.51 16.428 15.32 39.12 22.241 61.245 22.117A584 584 0 0 0 1233 952m22.5-37c2.633 3.217 3.222 7.582 4.833 11.325 22.94 61.185 50.29 120.558 77.547 179.88 4.783 11.403 10.517 22.384 15.178 33.832 2.441 5.446-.207 11.311-.883 17.025-3.149 23.826-6.759 48.525-1.184 72.323 4.394 18.653 15.345 34.929 27.722 49.247 5.05 6.601 11.926 13.52 16.873 19.279 5.385 5.9 12.09 10.926 15.168 18.523 12.238 28.525 18.194 59.317 25.727 89.283 10.351 46.869 19.63 94.54 20.278 142.669-.578 12.705-1.177 25.417-3.663 37.92-.513 8.347-4.36 18.056-3.626 25.748 5.956 11.25 24.608 11.922 35.295 11.946 13.232 1.224 25.215-4.882 36.235-11-1.777-63.188-11.28-125.944-11.982-189.16.093-31.574 2.173-63.238 7.245-94.414 1.002-3.277 1.191-7.764 3.39-9.895 26.354-4.19 53.645-7.244 78.847-16.531 7.94 27.213 12.953 55.313 18.25 83.134 2.466 12.157 3.738 24.507 5.261 36.798.627 6.232 1.304 12.514.764 18.78-10.194 43.291-26.685 84.907-37.69 127.969-2 8.315-4.28 16.587-6.104 24.936-1.135 7.457-6.008 17.378 1.148 21.706 13.07 8.42 29.089 8.253 43.91 7.586 6.412-.316 12.483-2.667 18.235-5.27 2.53-1.22 5.444-3.14 6.974-5.246 2.703-11.777 2.728-24.114 4.644-36.03 1.74-9.832 1.49-21.941 4.989-30.55 13.435-32.535 25.752-65.49 36.328-99.06 4.934-17.464 10.137-35.021 12.082-53.137 1.212-9.51 2.548-19.028 2.92-28.617.613-8.91-.862-20.716 5.525-26.23 14.754-14.869 29.456-35.268 37.947-52.52 10.616-21.72 11.342-46.571 8.178-70.112-4.05-26.037-16.364-50.864-35.485-69.205-9.351-8.273-19.44-16.128-31.057-20.989-12.174-5.06-27.645-7.237-39.363-9.856-13.755-2.674-27.74-4.315-41.716-5.043-12.607.498-25.098-.618-37.375-3.623-5.036-1.292-10.105-2.38-15.176-3.508-4.234-1.088-9.8-1.457-11.898-6.4-7.881-14.544-15.956-34.096-29.105-43.064-21.533-14.44-42.61-29.517-64.204-43.846-11.016-7.424-18.662-18.503-25.617-29.67-7.088-10.724-13.257-21.982-19.385-33.254-13.802-26.85-26.29-54.97-32.48-84.679 21.976-3.12 41.15-16.281 57.985-29.785 8.068-7.094 17.94-15.615 22.277-24.778 2.48-4.66 6.429-11.554 2.794-15.638-3.53-4.249-7.843-7.847-12.38-10.946-22.558-15.686-51.085-20.077-77.863-16.172-5.98.938-11.987 2.272-17.374 5.109-2.37 1.09-4.734 2.53-7.391 2.718-6.693-4.452-11.74-12.71-20.538-17.481-23.35-15.717-55.017-20.427-80.552-7.407-14.362 7.755-26.757 18.677-35.63 32.439-3.4 4.704-6.497 10.772-9.25 15.307-2.27 4.55-5.075 8.913-7.587 13.275-16.188 8.428-33.785 15.68-48.021 27.597-14.016 11.132-28.768 26.285-28.47 45.733-1.079 12.886 5.394 26.135 17.596 31.293 8.961 4.71 19.264 4.932 29.107 4.736 30.44-.477 61.737-1.256 91.797-5m-98.286-42.562c.06 4.268 3.227 6.334 6.966 5.822 5.112-.678 9.352-4.107 12.716-7.777 2.338-2.642 4.915-6.922 3.23-11.263-.552-4.42-8.384-2.836-10.736-1.78-5.657 2.505-12.17 9.552-12.176 14.998M1493 1921c10.223 29.577 28.088 56.74 39 86-55.29 13.575-111.383 25.813-168.56 27.952-28.098.342-63.007 2.821-87.042-8.878-14.522-6.733-18.436-20.335-17.351-34.046 1.261-13.008 8.474-27.714 14.953-37.528-3.466-1.715-7.518-5.326-10.5-6.5-29.64 20.036-58.735 47.249-66.388 83.858-3.463 19.032 2.233 38.791 13.365 54.284 10.309 14.408 27.775 26.611 42.178 33.7 26.225 12.386 55.558 16.95 84.356 17.036 29.773-.964 59.6-1.44 89.24-4.634 29.363-2.814 58.58-6.784 87.649-11.733 14.254-2.424 28.554-4.763 42.623-8.104 6.901-1.362 13.807-2.727 20.651-4.346 3.046-.829 6.678-1.487 9.558-1.6 4.617 3.337 7.15 10.873 10.719 15.196 14.072 21.126 28.165 42.226 42.228 63.37 3.604 5.259 7.005 10.625 10.6 15.878 3.383 5.038 8.17 11.838 4.404 17.205-6.264 1.812-13.024-.092-19.262-1.122-53.18-8.924-107.031-14.624-160.985-13.988-48.727.394-98.355 6.13-143.979 24.17-40.448 15.46-78.367 40.747-101.17 78.481-21.103 36.321-25.617 83.124-6.623 121.607 16.368 34.19 46.485 59.593 79.825 76.496 69.408 34.003 148.609 41.012 224.698 37.245 33.215-1.941 66.6-4.297 98.97-12.551 15.089-3.394 29.926-8.248 43.686-15.384 12.173-6.107 24.713-14.442 30.75-27.256 6.802-12.889 4.97-28.679-.68-41.532-5.12-12.386-16.887-20.68-28.938-25.341-25.613-11.37-54.165-11.932-81.542-10.245-25.694.907-50.594 8.835-76.207 10.46-12.666 1.367-25.415 1.711-38.15 1.85-23.58.385-47.262.463-70.729-2.785-21.44-3.096-43.074-7.497-62.595-17.334-16.62-8.26-33.616-20.464-40.466-38.554-5.784-18.072-4.206-38.52 4.265-55.413 15.336-31.692 50.205-47.945 82.858-54.645 63.077-11.463 128.981-2.306 188.75 19.193 41.4 15.47 77.031 41.834 112.214 67.714 13.487 9.84 29.17 18.429 46.47 17.822 15.573.827 29.162-8.378 39.027-19.368 18.903-19.054 26.986-46.1 29.022-72.109.628-10.073.246-20.618-4.567-29.808-7.241-14.638-20.757-28.788-30.8-39.688-17.798-18.053-35.552-36.151-52.12-55.336-8.032-9.334-15.952-18.749-23.472-28.507-3.827-4.823-7.338-9.87-10.92-14.856-3.021-4.602-7.813-9.987-8.013-15.326 47.188-14.319 93.748-32.86 136.04-58.392 9.83-6.943 20.461-14.174 25.863-25.388 9.295-16.442 10.216-39.255-2.329-54.426-11.933-14.173-31.338-18.873-48.68-21.196-12.441-.85-27.206-.741-38.604-.008-8.352 1.06-16.224 7.763-22.74 11.357-22.767 12.516-46.057 24.39-70.474 33.42-13.074 3.857-27.64 11.72-40.076 13.633-5.556-13.146-13.816-25.246-18.88-38.703-3.187-6.75-6.099-13.634-9.01-20.502-2.293-6.643-6.952-14.166-7.11-20.795 47.224-14.603 95.51-29.923 137.186-57.399 18.145-12.726 40.105-35.305 31.763-62.603-3.961-13.01-13.853-19.305-24.66-24.243-11.827-5.056-24.59-7.393-37.296-8.705-6.29-.78-12.587-1.541-18.933-1.657-5.345-.105-11.933-1.08-16.67.63-8.079 3.645-14.604 9.955-21.972 14.723-21.036 14.68-44.26 25.773-68.101 34.985-4.417 1.038-9.219 3.664-13.317 4.269-4.471-21.383-6.382-43.196-9.47-64.784-1.445-16.166-5.778-33.07-18.797-43.886-9.113-8.27-21.229-11.622-32.781-14.562-34.817-8.042-79.137-8.845-109.632 4.717-22.771 10.14-42.919 25.204-60.32 42.848.611 2.574 1.888 4.962 2 7.667 28.995 4.92 64.552 8.309 89.245 20.42 13.686 6.125 21.32 19.446 27.201 32.46 3.16 6.683 5.902 13.548 8.834 20.325 2.311 6.717 7.144 14.187 7.72 20.795-48.418 10.525-97.793 19.642-147.568 19-18.973-.303-38.06-1.765-56.61-5.823-14.903-3.532-29.008-9.877-42.69-16.614-12.578-5.554-24.412-12.79-36.671-18.854-2.387-.19-5.666 2.47-6.985 3.942-2.486 1.398.67 6.217.806 8.055 16.032 38.657 37.575 79.045 75.902 99.826 41.827 21.58 90.406 20.652 136.009 19.063 31.705-1.552 63.355-4.764 94.608-10.396 8.796-.982 17.397-3.42 26.199-4.199M1253 822c1.49 8.99 3.504 18.85 11.556 24.611 7.154 6.44 20.063 4.724 25.908-1.61 9.712-7.799 11.034-24.215 5.142-33.508-2.82-4.898-7.104-8.857-12.456-10.785-5.552-2.454-11.666-1.102-17.415-.31-5.958.811-11.906 1.502-17.88 2.115-2.941.1-6.263.901-8.855 1.487.186 7.507 3.861 16.787 14 18m50.202 102.496c.552 5.724 5.022 12.425 7.115 16.385 3.47 6.436 10.052 7.274 15.664 4.003 3.363-1.64 8.277-4.107 8.567-9.15.006-4.532-1.682-8.914-3.685-12.894-3.153-6.305-9.989-12.847-18.814-8.304-3.788 1.604-9.041 4.226-8.847 9.96m12.272 60.968c1.154 10.345 5.418 19.693 10.977 28.177 2.927 4.239 6.406 8.767 11.496 10.501 4.883 1.23 12.303-1.797 15.404-4.118 6.03-5.052 5.195-12.173 2.406-18.143-2.64-6.015-6.126-12.925-9.647-17.812-2.443-3.634-5.186-7.239-8.875-9.699-4.12-1.972-9.04-1.17-12.75 1.288-4.427 1.688-6.871 5.94-9.01 9.806m20.819-105.472c.64 7.869 11.543 17.066 17.807 16.29 7.222-.98 3.929-13.818 2.848-17.702-1.7-5.394-5.475-12.824-12.469-8.244-3.69 1.977-8.116 6.001-8.186 9.656M1427 804.5V803c-19.643-11.1-44.707-16.338-65.86-5.046-12.047 4.362-17.34 17.5-9.398 27.104 7.133 9.04 22.173 7.507 31.685 4.816 16.493-4.457 30.712-14.6 43.573-25.374m-72.849 262.506c1.207 14.264 13.932 34.173 32.082 30.424 7.474-1.18 15.938-5.026 21.213-9.514 6.443-5.502 2.749-16.315.082-22.57-3.105-7.32-7.777-14.158-14.184-18.995-6.758-5.184-17.046-.443-23.009 3.381-6.816 3.83-16.276 9.565-16.184 17.274m4.322-110.19c2.874 14.82 13.755 29.452 21.458 40.345 3.544 5.652 13.625 12.654 17.895 2.363 2.448-7.256-2.954-15.996-5.34-22.48-4.508-8.815-9.43-17.505-15.627-25.236-4.43-6.48-10.478-4.816-15.183-.604-1.606 1.411-3.36 3.755-3.202 5.613m21.528 273.574c-1.28 10.035 13.137 15.445 19.537 19.349 8.055 4.041 16.501 7.304 24.892 10.545 6.63 2.152 13.212 4.963 20.244 5.43 19.735-.754 39.924-19.44 43.847-36.414 1.576-9.174-1.71-20.242-6.322-27.184-8.019-14.094-26.18.518-35.145 4.924-3.114 1.285-5.731 4.878-8.478 5.46-8.178-4.817-15.262-13.048-24.035-17.481-4.192-2.65-9.308-6.08-13.896-6.869-7.925-.488-12.254 12.646-14.932 18.125-3.083 7.373-5.692 16.565-5.712 24.115m12.145-90.39c.084 10.557 14.534 17.029 21.418 19.833 3.872 1.761 8.174 2.328 11.99 4.178 10.907 7.196 23.497 19.579 39.383 8.899 5.97-3.74 12.399-9.849 14.824-15.938 2.628-6.637-2.744-15.834-5.836-20.583-6.527-9.465-16.457-19.248-25.755-24.281-11.958-6.715-23.52-2.058-34.249 4.072-4.847 2.63-9.546 5.594-13.291 9.69-3.992 3.806-8.634 8.022-8.485 14.13m37.242-99.565c3.024 14.104 15.342 26.64 23.047 36.41 10.476 11.054 24.8 17.676 39.837 19.348 4.058.506 8.445 1.197 12.26-.725 6.62-5.296-1.634-14.427-5.508-17.637-8.159-6.445-16.276-12.967-24.214-19.668-7.469-7.33-15.677-13.86-24.78-19.018-4.562-2.56-10.688-5.165-15.624-4.6-2.875.47-5.186 3.08-5.018 5.89m-.168 255.844c.758 10.391 13.615 16.416 19.527 22.935 5.23 4.984 12.579 10.13 15.79 16.133 2.647 5.839 1.255 12.53-.46 18.336-3.971 8.037 1.59 19.693 10.759 19.383 8.703-.749 11.514-14.556 13.28-20.578 6.825-22.213-5.085-46.755-25.46-57.016-7.69-3.982-20.157-6.805-27.296-5.612-2.9.759-6.037 2.519-6.14 6.42m73.26-160.252c.896 5.979 7.56 8.73 9.407 14.121 4.793 11.243-3.516 20.736-7.416 29.317-1.29 3.24.307 7.314 1.548 11.069 2.412 6.17 5.42 13.767 9.561 18.326 3.68 4.016 8.997 1.493 12.318-2.268 10.284-10 16.978-23.42 20.26-37.249 1.544-6.633.25-13.447-.757-20.04-1.227-6.264-3.549-15.52-7.49-19.36-8.714-5.643-24.645-5.73-31.915-1.83-2.796 1.803-5.851 4.276-5.516 7.914m8.886 132.573c1.562 11.592 11.677 26.88 26.284 24.035 15.952-3.948 26.741-17.603 39.115-27.173 6.502-5.522 15.962-9.417 21.788-14.642 4.419-3.999 8.184-12.052 3.26-18.21-6.428-8-16.294-12.845-26.438-13.49-10.625-1.065-20.033 4.31-28.369 10.027-7.336 5.052-13.957 11.047-20.108 17.455-6.068 6.56-14.51 13.121-15.532 21.998M1552 1544h3c9.076-35.57 23.686-69.696 32.714-105.274-.888-19.105-4.561-38-7.888-56.782-1.812-9.58-3.77-19.127-5.718-28.666-1.174-5.496-7.507-4.207-11.52-3.708-4.523.588-9.015 1.437-13.588 1.43-8.805 64.195-2.293 128.891 3 193m20.058-365.226c-.487 11.188 12.684 17.58 21.215 20.134 6.608 1.887 15.335 5.23 23.078.601 7.135-4.551 5.784-15.728 3.909-22.37-3.056-11.904-9.355-22.864-16.802-32.506-3.106-4.189-7.378-8.889-12.979-9.143-6.778 2.731-9.65 14.598-12.366 19.794-2.758 7.505-5.98 15.074-6.055 23.49M1643.5 1309c9.343-3.271 17.755-8.929 24.855-15.905 5.091-5.208 11.277-10.103 13.886-17.16 2.545-11.571-1.609-25.356-2.307-35.851-.893-5.933-2.245-11.822-3.382-17.707-1.345-4.846-2.776-11.604-6.638-13.917-9.043-2.08-19.79 6.719-24.81 12.056-9.029 9.879-15.74 22.42-15.064 36.193.725 13.83 2.879 27.636 6.746 40.934 1.367 4.22 3.503 8.27 6.714 11.357m-1.42-154.238c-.223 14.031 10.797 22.665 23.067 22.214 6.458.271 14.64-2.138 18.123-7.276 4.24-7.127-.617-12.755-6.258-15.76-7.872-5.142-19.248-6.795-27.658-6.909-5.157-.435-7.717 2.858-7.274 7.731m3.397 199.253c1.348 7.906 9.972 13.635 6.544 23.735-2.205 5.804-6.929 10.582-4.41 18.464 1.296 7.483 8.857 19.89 18.284 12.163 7.152-6.66 8.98-16.724 11.166-25.7 2.059-10.107 2.165-20.52 2.869-30.76-.122-6.406-.216-14.381-2.71-19.837-1.301-3.703-5.048-2.4-7.692-1.272-2.93 1.37-5.636 3.23-8.194 5.194-5.989 5.038-14.51 10.289-15.857 18.013m47.804-152.083c1.528 15.127 4.87 30.115 11.42 43.723 2.266 5.512 6.505 15.457 15.035 10.635 5.52-4.03 9.638-11.152 12.403-16.601 7.403-14.091 3.283-28.048-6.213-38.51-4.821-6.675-11.8-14.086-22.5-10.091-4.92 1.682-10.312 5.895-10.145 10.844" style="fill:#dcf;fill-rule:evenodd;stroke:none"/><path d="M291 2812.5c402.66 1.426 806.125-.26 1208.95.5 402.946-.76 806.184.926 1209.05-.5-66.691-393.12-131.048-787.321-197.186-1180.681C2447.104 1239.148 2380.056 846.747 2316 454c-136.143-44.935-272.089-90.768-408.181-135.9-102.008-33.974-204.008-68.03-306-102-19.182-6.399-38.38-12.77-57.553-19.171-8.997-3.033-18.01-5.99-27-9-7.928-3.04-16.863-7.25-26.38-2.738-134.51 44.908-269.079 89.643-403.589 134.55C952.797 364.27 818.541 409.675 684 454c-64.117 393.376-131.371 786.397-196.109 1179.703C421.811 2026.161 357.548 2420.573 291 2812.5m116-97.5h2186c-120.11-729.14-243.257-1457.94-364-2187-109.157-35.927-218.092-72.748-327.181-108.9-95.331-31.722-190.626-63.585-285.954-95.3q-31.498-10.534-63-21l-30.566-10.195c-9.852-3-21.422-9.034-30-5.21-156.482 52.2-313.005 104.314-469.48 156.505-58.68 19.531-117.334 39.097-175.992 58.657-12.848 4.31-25.692 8.54-38.528 12.838-6.322 2.14-12.689 4.207-19.002 6.345-5.984 2.134-13.43 3.962-17.923 7.164-65.8 385.905-128.542 772.695-193.648 1158.784C521.372 2030.17 462.67 2372.459 407 2715" style="fill:#76737a;fill-rule:evenodd;stroke:none"/><path d="M1232 953c13.304 38.31 31.07 74.933 47.446 111.96 6.806 16.391 14.853 32.214 21.828 48.518 3.618 7.45 6.61 15.15 10.257 22.576 1.57 3.533 3.59 7.642 4.625 11.042.527 7.709-2.807 17.066-2.813 24.206-2.582 16.94-2.83 34-1.616 51.067.633 65.084-.168 130.162.788 195.247.826 47.36 1.767 94.842-4.45 141.897-1.065 8.421-2.202 16.86-4.236 25.105-3.461 13.838-16.117 28.68-14.367 42.56 3.943 5.06 11.936 6.205 17.358 6.791 13.432 1.691 26.91 2.389 40.4 1.333 10.87-.55 24.756-1.232 33.119-7.51 4.317-3.52 3.585-8.635 3.662-13.55 1.906-78.354 3.076-157.082 7.499-235.242 10.604 31.939 14.917 66.505 21.756 99.5 4.493 25.85 7.98 52.11 5.934 78.383-.307 20.107-4.352 39.819-8.73 59.318 5.068 29.856 38.152 41.611 61.744 44.315 28.218 3.563 57.325-5.33 78.296-24.516 13.822 18.184 37.573 25.347 59.525 24.997 21.543.897 48.875-4.98 62.845-20.367 5.309-4.78 8.791-11.004 11.52-17.516 6.991-24.81 3.252-52.136 13.966-76.028 9.066-24.18 18.33-48.254 26.385-72.79 8.584-23.776 14-48.6 18.759-73.296 5.17 7.992 8.613 19.066 12.606 26.818 4.165 9.027 7.605 18.562 6.894 28.668.808 39.141-.838 78.812-13.11 116.383-1.597 6.491-3.937 12.795-5.482 19.28-.654 6.776-.44 14.87.016 21.076.38 3.154 1.122 6.303 2.349 9.214 4.407 4.222 11.444 3.37 16.545 4.15 11.676.692 23.515.603 35.1-1.175 8.67-1.817 22.715-1.582 25.207-10.542 4.433-16.967 4.436-34.596 4.375-51.988-.27-26.677 1.06-53.338 2.946-79.927.66-12.624 2.636-25.137 3.36-37.749.165-6.75 1.383-13.698.005-20.389-1.377-5.506-4.132-10.517-6.726-15.504-9.666-17.908-22.333-34.582-28.983-54.022-6.101-17.635-4.579-36.518-4.602-54.793l.5-1.5c7.592 13.19 18.143 24.384 28.221 35.64 8.47 10.456 20.216 17.73 29.303 27.558 6.78 22.362 14.477 45.797 20.92 68.552a225 225 0 0 1 5.672 28.041c1.599 7.492 2.258 17.703 9.63 20.338 7.31 2.11 11.61-6.45 14.583-11.055 11.469-20.962 16.585-49.345 17.168-70.99.016-22.704-6.745-48.684-26.31-62.645-5.938-4.343-12.812-6.93-19.89-8.641-4.797-1.214-10.824-1.146-14.619-6.235-10.165-12.088-19.6-24.847-27.481-38.56-7.029-11.39-13.098-23.298-18.874-35.37-8.253-15.993-14.421-32.88-18.493-50.311-7.163-25.427-20.198-49.254-37.928-68.82-16.809-19.782-40.399-33.672-65.592-39.319-15.621-3.354-31.23-6.957-47.045-9.285-14.156-2.405-28.5-2.92-42.82-3.005-5.996-.57-11.922-1.703-17.818-2.886-6.532-.772-8.919-5.459-11.35-10.583-4.467-8.207-10.847-17.154-16.125-23.88-5.473-6.676-12.98-11.223-19.971-16.101-12.258-8.365-24.461-16.79-36.68-25.195-8.313-6.8-19.954-12.488-26.748-19.72-21.723-26.707-34.562-59.382-49.253-90.028 7.301-5.34 16.673-7.51 23.712-13.363 25.82-18.036 47.193-44.545 54.366-75.823a77 77 0 0 0 1.404-12.068c-13.848-23.431-38.957-39.283-64.275-48.14-10.698-3.582-21.58-6.568-32.828-7.817-11.445-1.807-22.909-1.01-34.379-.289-.962-13.326-1.77-30.604-4-45 7.416-2.054 11.696-11.025 10.655-18.223-1.634-8.894-10.636-14.992-19.514-14.764-9.669-1.087-20.402 5.324-21.754 15.722-.555 4.632 1.365 9.03 3.934 12.712 3.264 3.289 1.617 8.312-.055 12.239-3.587 8.266-5.24 19.316-9.766 26.314-15.353-6.39-31.485-12.766-48.5-12-1.39-9.851-6.73-20.776-7-30 5.018-.731 7.024-8.685 6.8-12.183-.562-7.037-7.376-12.298-14.14-12.678-7.397-.794-18.118.636-20.921 10.031-1.288 3.903-.424 8.369 2.031 11.613 2.965 2.78 6.11 5.004 5.047 10.206-.297 8.367-.437 16.762-1.817 25.011-24.634 5.44-48.793 24.784-62.855 42.42-6.125 7.19-12.449 16.302-16.721 23.82-2.159 3.52-4.09 7.193-6.123 10.782-3.956 5.567-14.114 7.043-20.438 11.63-24.134 12.888-48.032 30.235-59.274 56.227-12.221 25.334-7.194 62.568 11.206 80.99 16.344 15.542 38.867 23.06 61.167 23.12 24.369-.274 48.89-.554 73.038-3.989m288 659c-2.183-63.471-11.353-126.565-11.998-190.076.264-31.967 2.242-64.113 7.727-95.631.812-10.147 9.81-8.842 16.743-9.54 22.903-3.103 45.37-8.454 67.528-14.753 5.686 26.297 13.1 52.328 16.902 79.02 2.021 10.744 4.078 23.449 5.198 33.418.956 10.936 3.37 22.287.736 33.197-10.059 38.43-23.608 75.816-34.255 114.05-3.892 14.765-7.893 29.505-10.925 44.48-2.077 7.264 4.963 10.798 10.364 12.623 12.107 4.51 25.338 5.253 38.111 3.782 10.26-2.132 23.558-5.93 23.181-16.904 3.546-18.96 3.26-38.612 7.63-57.39 19.55-51.889 43.012-103.693 49.945-159.306 1.447-10.527 2.461-21.097 2.644-31.728.296-3.973.069-8.045.89-11.961 2.103-6.067 8.374-9.481 12.055-14.458 10.821-13.56 23.381-30.083 30.207-44.574 20.955-45.75 7.581-103.83-28.097-138.046-8.907-7.733-18.374-15.1-29.27-19.862-17.6-7.06-39.917-10.313-56.976-12.933-19.468-3.046-39.277-1.619-58.622-5.258-7.353-1.472-14.624-3.38-21.942-4.991-8.047-.953-10.296-7.269-12.954-13.526-5.265-10.95-11.568-21.443-19.545-30.638-16.39-13.071-34.83-23.57-51.73-35.978-13.045-8.961-27.272-16.965-35.918-30.662-13.535-19.691-25.888-40.322-35.731-62.126-9.768-22.23-20.312-44.946-23.898-69.229 22.162-3.143 41.455-16.46 58.39-30.13 8.163-7.462 17.172-14.72 22.147-24.934 2.06-4.244 6.105-9.94 1.542-14.289-3.72-4.14-8.047-7.657-12.693-10.677-22.238-14.905-50.06-19.17-76.174-15.056-9.086.723-16.786 5.408-24.796 9.086-7.758-8.564-15.897-16.737-26.416-22.293-15.734-9.177-37.902-13.347-54.325-10.708-17.27 3.332-34.819 15.943-45.49 27.569-6.569 7.718-12.373 16.004-17.062 24.988-4.02 8.108-7.798 16.174-16.579 19.187-14.147 6.715-28.36 13.69-40.468 23.828-16.37 13.587-36.91 34.331-24.27 61.92 5.221 10.957 19.785 16.518 30.059 17.178 13.548.906 27.13.059 40.672-.263 11.418-.434 22.836-.962 34.216-1.975 9.854-.819 19.801-1.28 29.643-1.882 4.638 6.395 6.03 16.41 9.532 22.765 19.97 52.792 43.834 103.98 67.251 155.26 4.81 11.689 10.712 22.882 15.504 34.567 2.353 5.238 5.142 10.326 6.823 15.834-2.636 24.268-9.033 48.783-5.636 73.434 1.689 20.18 11.082 38.665 23.89 54.023 10.748 13.815 23.093 26.177 34.857 39.072 14.633 28.04 19.256 60.048 27.77 90.162 10.665 47.72 20.107 96.026 21.543 145.03-.596 12.4-.88 24.888-2.904 37.15-.948 8.91-3.675 19.152-4.643 27.276-.648 6.386 9.571 9.477 13.76 11.413 9.505 3.045 21.684 2.85 30.679 1.931 9.396-.902 17.156-6.482 25.178-10.466m-363.907-739.753c-.341 5.436 3.56 8.074 8.153 7.24 5.854-.693 10.784-4.558 14.447-8.942 2.671-3.24 4.002-7.971 2.577-12.038-.708-4.419-8.53-3.446-11.41-2.666-6.586 2.504-13.586 9.434-13.767 16.406m-.093 937.066c15.339 39.363 36.186 79.993 72.266 104.177 39.725 24.777 88.295 23.735 133.083 23.507 43.904-1.028 87.54-7.014 130.651-14.997 4.363 14.535 13.418 27.537 18.705 41.784 6.824 13.855 13.432 27.924 20.295 41.716-55.015 14.872-111.624 25.69-168.704 28.435-27.809.61-62.268 2.602-85.891-9.35-14.104-7.276-17.947-20.946-16.127-34.675 1.07-13.655 10.431-24.627 14.722-36.91-3.61-1.118-7.59-4.81-11.5-7-30.539 21.665-62.9 49.985-68.07 89.75-2.589 20.105 4.251 40.443 17.354 55.71 11.48 14.648 30.91 26.146 46.298 32.709 28.144 11.593 58.956 14.959 89.152 13.384 30.838-.804 61.666-2.153 92.322-5.633 48.862-6.043 97.85-12.891 145.636-24.92 7.569 10.059 13.278 21.655 20.71 31.873 14.264 20.925 28.405 41.915 42.377 63.032 1.525 2.479 3.791 5.201 4.658 7.756 1.003 2.523 1.25 7.833-1.878 7.887-6.485.958-12.932-1.394-19.264-2.255-51.87-8.213-104.195-14.187-156.783-13.293-48.602-.024-97.84 5.987-143.628 22.897-40.105 15.108-78.202 39.183-101.68 76.016-22.682 35.26-28.073 81.06-12.125 120.259 13.889 34.932 42.675 62.017 75.328 79.473 66.92 35.754 144.887 44.522 219.59 41.873 33.318-1.043 66.681-3.544 99.453-9.846 15.373-3.032 30.667-6.636 45.118-12.834 13.181-4.854 25.886-11.93 35.665-22.07 20.337-19.736 14.056-58.34-8.909-73.182-21.926-14.021-53.287-17.656-76.468-17.58-13.022.117-26.03.847-38.928 2.446-24.68 3.879-49.138 9.916-74.317 10-46.175 1.352-94.488 2.76-138.558-14.035-18.418-5.694-35.455-16.34-47.549-31.5-10.74-15.2-12.526-35.381-7.675-53.07 9.55-32.862 39.515-54.704 71.346-63.232 31.313-9.662 64.605-9.74 97.008-8.133 52.859 3.655 105.711 17.869 151.484 44.944 15.92 9.733 32.082 19.228 47.008 30.484 23.81 17.921 53.02 45.635 91.132 27.406 21.645-12.805 37.61-40.195 41.94-62.413 4.939-18.705 6.047-43.282-2.934-59.224-13.691-25.316-38.105-42.202-56.15-63.868-19.43-20.14-37.448-41.673-54.455-63.898-3.88-6.504-10.553-13.17-12.708-19.913 47.325-14.42 94.128-32.942 136.491-58.7 9.847-6.97 20.471-14.244 25.667-25.621 9.582-16.196 9.19-41.543-1.983-55.115-11.462-14.534-30.983-19.243-48.137-21.832-12.946-.999-26.062-.815-39.03-.416-8.908.575-16.614 5.822-23.876 10.607-22.61 13.035-46.262 24.504-70.627 33.886-13.164 4.693-26.083 10.253-39.505 14.191-11.842-25.654-26.5-50.867-35-78 47.128-14.497 95.13-29.888 136.795-57.097 17.854-11.954 39.45-34.008 32.773-62.439-2.236-12.665-12.938-21.12-23.875-26.084-11.719-5.24-24.414-7.73-37.082-9.166-12.292-.666-27.074-3.538-38.35-1.518-8.073 3.185-14.353 9.595-21.574 14.164-20.848 14.88-44.029 25.894-67.742 35.28-3.942 1.712-9.159 2.585-12.445 4.86-8.428-28.423-6.313-59.37-14.661-87.817-8.11-23.599-28.502-31.437-49.21-35.96-16.506-3.882-33.435-4.85-50.315-5.115-24.76-1.227-49.87 3.96-71.321 16.605-10.008 5.701-20.012 11.546-28.867 18.983-4.69 3.746-9.258 7.645-13.359 12.037-1.653 2.173-4.961 4.281-5.275 6.722-.142 2.94 1.228 5.687 1.508 8.545 28.65 4.896 63.801 8.15 88.266 19.985 13.79 5.794 21.865 18.772 27.67 31.857 5.866 13.271 11.871 26.646 17.064 40.158-48.41 10.512-97.78 19.652-147.544 18.993-24.732-.44-49.884-2.584-73.18-11.505-21.429-9.332-42.659-19.606-62.776-31.488-3.203 2.269-6.27 4.818-9.5 7zM1252 823c1.562 9.242 3.715 19.562 12.332 25.145 7.256 5.872 20.26 4.178 26.348-1.416 10.016-7.794 12.254-24.718 6.719-34.761-5.966-13.03-18.592-15.227-31.131-12.798-6.634.96-13.293 1.712-19.947 2.397-2.758.113-5.882.878-8.321 1.433-.303 8.105 2.73 18.63 14 20m50.096 101.238c.474 9.92 10.099 28.387 23.492 22.248 3.79-1.723 9.144-4.069 10.042-9.485.558-4.662-1.393-10.035-3.1-13.841-3.178-7.181-10.185-14.095-20.11-10.177-4.502 1.555-10.554 4.54-10.324 11.255m12.356 61.793c.894 10.707 5.658 20.273 11.287 29.027 2.766 4.338 7.223 9.144 11.987 10.335 5.13.665 11.812-1.188 15.765-3.667 12.915-9.247-.339-28.597-5.488-37.395-2.64-3.727-5.163-7.741-8.988-10.4-3.98-2.62-9.35-2.048-13.557-.403-4.42 2.588-10.183 5.759-11.006 12.503m20.706-106.214c.097 9.078 11.887 18.196 18.661 17.81 8.201-.653 6.095-13.496 4.605-18.545-1.574-4.904-4.697-14.009-12.46-10.91-4.934 1.786-10.823 6.866-10.806 11.645M1430 803.5c-6.758-3.518-13.386-8.049-21.018-9.738-12.12-3.369-27.388-3.723-38.615-.821-9.769 2.872-24.562 8.966-23.293 22.826 1.335 22.018 27.241 18.068 40.685 14.127 15.706-5.61 30.13-14.995 42.241-26.394m-76.926 263.273c.677 15.611 14.283 35.692 33.403 31.769 8.027-1.19 17.279-5.198 22.707-10.356 5.886-5.627 1.707-17.337-.31-23.017-3.017-7.522-7.67-14.465-14.1-19.505-6.757-5.464-18.575-1.338-23.678 1.982-7.498 4.324-18.396 10.186-18.022 19.127m4.282-110.28c1.562 12.376 10.118 24.839 15.953 34.075 3.832 5.036 7.285 10.976 12.938 14.233 7.53 3.912 13.006-.98 13.44-8.086-.483-14.796-11.57-29.798-17.936-41.003-3.587-4.677-7.902-12.127-15.776-8.577-4.069 1.608-8.828 5.023-8.62 9.358M1438.5 1212c-8.955-8.84-21.217-17.517-31.383-22.944-15.274-9.369-21.261 14.372-25.006 23.096-2.693 8.055-4.06 16.796-2.563 25.236 4.876 6.62 14.143 10.452 20.41 14.09 12.773 5.739 25.814 11.375 39.446 14.74 14.372 2.784 30.147-7.314 38.966-16.088 11.21-9.748 14.273-25.565 9.553-39.267-2.559-9.6-10.163-20.997-23.094-14.57-8.973 4.107-19.801 9.274-26.329 15.707m-47.434-72.23c-.583 11.394 14.573 18.434 21.93 21.234 3.902 1.725 8.276 2.232 12.043 4.262 10.773 7.166 23.536 19.336 39.516 9.408 6.011-3.344 12.325-9.182 15.387-14.73 3.849-7.717.695-15.158-3.315-21.984-6.312-9.705-15.88-19.869-24.96-25.476-10.83-7.03-24.582-5.146-35.268.82-5.525 2.958-11.15 5.977-15.627 10.438-3.987 3.998-9.877 8.451-9.706 16.028m36.42 154.655c.75 7.349 3.73 12.448 9.277 16.39 8.375 7.39 18.918 15.543 25.532 23.42 6.461 8.631-.483 18.527-.988 26.67.06 6.494 6.878 12.819 12.421 13.56 10.683.451 14.222-15.857 15.9-23.006 2.233-9.61 1.652-21.745-1.892-30.123-6.746-18.84-25.657-31.183-45.02-32.76-5.185-.56-12.002-.61-15.23 5.85m.719-253.928c2.39 14.22 15.192 26.641 22.506 36.552 10.282 11.506 24.86 18.248 39.999 20.07 4.25.4 9.526 1.395 13.33-.007 7.977-3.345 2.346-14.642-1.707-18.162-7.81-7.024-16.492-13.042-24.368-19.973-8.099-6.87-15.637-14.64-25.098-19.726-5.31-3.367-12.577-6.425-18.504-5.932-3.739.248-6.445 3.382-6.158 7.178m73.083 95.418c.257 6.542 6.46 8.714 8.98 13.914 5.712 11.753-3.655 20.141-6.905 28.687-2.105 6.09 2.549 14.632 5.06 21.32 2.53 4.617 4.524 10.798 9.83 12.286 7.578 1.55 15.138-9.488 18.884-14.324 4.272-6.304 7.916-13.102 10.152-20.406 4.7-13.989 1.857-31.888-3.382-44.065-2.333-6.406-9.643-7.415-14.975-8.373-6.061-.687-12.487-1.706-18.38.448-5.093 2.046-9.149 4.862-9.264 10.513m8.9 132.537c1.16 12.975 12.277 28.44 27.938 25.251 17.42-3.712 28.299-19.484 42.063-29.082 7.054-5.352 16.095-8.387 21.81-15.467 10.332-14.173-5.264-25.961-16.511-29.26-13.671-4.864-27.855-.173-39.014 7.953-7.728 5.149-14.506 11.505-20.95 18.128-6.005 6.524-15.144 14.062-15.336 22.477M1553.5 1543c10.636-34.425 22.46-68.68 32.862-103.201.188-17.954-4.776-38.896-7.252-55.071-1.526-9.508-3.845-18.86-5.534-28.333-.512-2.011-1.12-5.444-2.959-5.94-6.884-.863-13.728 1.874-20.617 1.545-8.032 63.455-3.128 127.716 3.5 191m17.512-364.118c-.508 12.773 12.933 18.252 21.812 21.185 7.571 2.343 16.599 4.793 24.114.692 7.445-4.414 6.323-16.126 4.717-22.991-2.91-12.53-9.403-24.062-17.197-34.135-3.443-4.53-8.047-9.572-13.869-9.27-4.366-.047-6.795 5.443-8.544 8.54-5.153 10.908-10.652 24.58-11.033 35.979m58.007 77.355c.73 15.029 2.874 29.904 7.32 44.006 1.169 3.554 3.158 6.613 5.965 9.029 9.827.55 19.595-9.218 26.646-14.797 4.914-4.783 11.142-10.355 13.789-16.205 2.614-7.26.498-16.608.408-23.406-2.654-14.664-3.588-33.242-10.05-45.573-3.667-5.308-13.302-.882-17.619 1.112-15.746 9.349-26.624 27.161-26.459 45.834m12.014-101.347c-.61 15 11.205 24.024 24.305 23.104 6.528.274 14.903-1.758 18.642-6.876 4.305-6.396 1.366-13.899-4.358-17.204-8.65-5.903-21.067-8.108-30.502-7.905-6.582-.53-8.614 3.42-8.087 8.881m3.225 199.067c.58 8.223 10.434 14.119 6.308 24.3-7.086 10.542-5.769 28.878 7.028 33.696 14.58 2.604 17.947-20.036 20.568-28.738 1.966-10.529 2.244-21.34 2.807-31.99-.097-6.812-.287-15.278-3.127-20.98-4.455-5.041-13.422 1.765-17.13 4.462-5.502 5.073-15.248 10.123-16.454 19.25m47.902-151.982c1.458 15.429 4.903 30.766 11.543 44.68 2.822 5.603 6.237 15.268 14.991 11.67 6.539-2.766 10.702-11.186 14.07-16.826 7.398-12.838 4.976-29.31-4.85-40.108-5.263-7.372-12.124-15.272-23.989-11.729-5.071 1.35-11.823 5.196-11.765 12.313" style="fill:#666;fill-rule:evenodd;stroke:none"/><path d="M770.5 531c.25-2.805 2.336-3.667 4.5-4.5-1.67-.66-3.366.237-5 .5.003 1.356.158 2.686.5 4" style="fill:gray;fill-rule:evenodd;stroke:none"/><path d="M1392.5 1380c.22-1.062-.69-2.78-1.5-3-.127 1.378.583 2.218 1.5 3" style="fill:#aba1bf;fill-rule:evenodd;stroke:none"/></svg>