<svg xmlns="http://www.w3.org/2000/svg" width="3000" height="3000"><path d="M407 2715h2186c-120.11-729.14-243.257-1457.94-364-2187-121.653-40.09-243.099-81.112-364.7-121.395-91.164-30.407-182.32-60.766-273.474-91.162a32206 32206 0 0 1-51.529-17.183c-8.003-2.659-16.01-5.346-24-8-7.038-2.654-14.998-6.446-23.453-2.372-120.19 40.07-240.392 80.12-360.578 120.183C1011.124 447.878 891.186 488.387 771 528c-120.737 729.033-243.897 1457.913-364 2187m728-1338.625c12.18 31.846 24.25 64.54 42.89 93.47 13.76 21.301 34.008 37.896 57.507 47.25 37.93 15.639 87.07 15.292 123.822 14.249 39.816-1.87 79.127-9.738 117.97-18.074 11.442-2.423 22.703-5.647 34.012-8.57 9.2-1.362 21.475-7.87 29.235-6.923 21.023 26.31 40.031 54.576 62.036 80.2 10.9 13.216 21.781 26.467 32.881 39.488 5.746 6.432 11.097 13.185 17.041 19.43 5.509 6.034 12.958 12.3 12.606 21.105-9.283 2.419-18.722-1.101-27.85-2.302-75.675-12.584-153.664-21.15-230.123-9.325-53.165 8.686-105.144 29.76-146.944 64.213-31.376 25.454-54.491 61.318-62.487 101.04-5.718 31.11-2.293 63.953 10.693 92.881 17.912 40.987 53.21 71.41 92.568 90.92 41.235 20.431 86.062 32.344 131.608 38.274 57.677 5.94 116.132 6.462 173.855.008 24.29-2.797 48.775-7.2 71.142-17.497 18.844-9.282 38.218-22.75 42.333-44.917 2.202-20.813-3.662-44.462-22.71-56.258-15.63-10.167-37.193-15.807-53.885-18.248-38.788-3.776-77.292 4.5-115.694 8.145-17.276 1.37-34.596 2.397-51.936 2.066-31.92.013-64.286-1.2-95.424-8.98-25.574-4.676-49.401-16.778-68.238-34.642-16.508-16.234-26.121-38.888-23.582-62.332 1.322-40.143 27.256-76.324 63.414-92.93 27.077-14.263 58.113-20.015 88.482-20.116 47.68-1.367 95.824 5.215 140.06 23.914 40.906 15.425 77.25 39.839 112.718 64.838 10.741 7.584 21.179 15.674 32.568 22.279 17.24 10.677 44.083 13.578 60.505 3.753 17.069-11.51 27.065-31.075 32.533-50.323 5.718-22.618 10.389-47.331 2.636-70.15-8.039-21.32-25.906-36.431-41.475-52.044-19.797-20.62-41.8-38.843-62-59-18.786-18.717-36.78-38.186-53.694-58.606-7.379-8.666-14.335-17.717-20.939-26.972-3.173-4.285-6.15-8.719-9.112-13.139-1.544-1.986-2.714-4.152-3.357-6.554-.717-2.378 4.139-3.368 5.325-4.52 36.77-16.177 73.215-33.287 107.56-54.21 13.016-7.67 25.204-16.542 36.732-26.312 9.706-8.542 18.377-19.093 21.673-31.837 2.832-11.167 1.464-25.368-3.337-34.861-4.631-8.69-13.286-16.985-20.503-22.199-15.957-9.618-35.123-11.812-53.309-12.781-13.757-1.884-26.919 3.824-36.765 13.24-29.944 24.47-61.649 47.47-96.407 64.661-5.213 2.512-11.249 6.183-16.634 6.823-7.505-21.909-16.593-43.644-22.34-66.224-5.614-15.681-8.137-35.8-15.682-49.245-15.285-20.995-46.442-29.591-68.277-33.869-26.853-5.148-54.842-4.845-81.317 2-29.12 9.003-54.759 26.48-79.384 43.838.59 3.832 2.145 7.538 2 11.5 25.383 1.663 50.41 7.462 74.647 14.908 19.645 6.496 38.015 18.567 47.524 37.567 9.796 14.828 18.28 30.473 27.731 45.498 4.033 6.878 8.261 13.633 12.278 20.515 1.22 3.094 5.296 6.983 3.98 10.077-5.728 3.954-13.81 4.622-20.358 6.937-27.958 7.777-56.273 14.37-85.075 18.222-43.506 6.398-88.707 7.837-131.753-3-19.72-5.474-38.113-15.1-55.046-26.428-8.49-5.678-16.98-11.345-24.96-17.734-3.861-2.404-8.354-7.155-11.877-8.487-4.238-1.819-8.443 5.251-12.091 5.925z" style="fill:#fda;fill-rule:evenodd;stroke:none"/><path d="M1133 1375.25c12.592 32.026 24.274 65.064 43.054 94.307 13.579 21.515 33.739 38.704 57.38 48.118 38.082 15.836 87.507 15.854 124.504 14.753 40.597-1.554 80.665-9.773 120.251-18.158 11.271-2.436 22.376-5.507 33.51-8.443 4.875-1.245 9.69-2.641 14.511-4.067 3.842-1.084 8.644-3.465 13.348-2.966 20.56 26.265 39.733 53.847 61.251 79.409 11.142 13.003 21.553 26.616 32.904 39.426 5.535 6.597 11.131 13.136 16.927 19.497 4.994 5.493 13.341 13.288 13.36 19.874-8.936 2.18-19.596-1.693-27.653-2.65-75.6-12.23-153.419-20.803-229.763-9.046-53.216 8.523-105.219 29.616-147.112 63.942-31.577 25.49-54.857 61.473-62.876 101.38-5.483 31.057-2.764 63.996 9.89 93.061 17.556 41.24 52.53 72.28 91.954 92.043 41.275 20.57 86.066 32.935 131.766 38.781 57.73 6.482 116.266 7.036 174.057.555 23.913-2.806 48.067-6.595 70.378-16.117 19.436-8.534 39.281-21.82 45.43-43.324 4.118-20.25-1.104-43.548-16.835-57.743-32.827-24.674-77.091-26.04-115.98-21.067-71.264 8.482-145.356 16.752-215.956-2.222-23.518-7.33-47.524-18.49-63.545-38.113-15.964-16.484-20.764-40.938-17.607-62.927 3.86-39.362 32.988-71.96 68.185-87.233 27.345-13.154 58.194-17.6 88.245-17.32 46.322-1.176 92.757 7.325 135.593 25.064 40.14 15.478 75.831 39.656 110.691 64.327 10.704 7.636 21.226 15.585 32.613 22.197 17.764 10.228 44.872 13.055 61.598 3.196 17.376-11.7 27.296-31.716 32.79-51.271 5.527-23.062 10.071-48.222 2.307-71.416-8.195-21.374-26.112-36.519-41.772-52.2-20.121-20.794-42.38-39.275-62.768-59.767-31.86-31.824-61.892-65.89-86.63-103.63 15.094-7.998 31.582-13.772 46.894-21.456 27.45-13.682 54.997-27.427 80.51-44.556 17.919-12.77 38.425-26.973 44.584-49.523 4.372-17.035.268-36.122-12.237-48.685-18.509-20.498-48.5-22.983-74.243-23.183-13.106.3-24.067 8.411-33.369 16.786-9.907 7.63-19.526 15.63-29.721 22.863-24.205 17.375-49.354 33.652-76.918 45.254-11.692-27.719-20.05-56.7-28.39-85.557-2.733-10.6-5.42-23.73-11.56-31.988-11.99-14.474-33.109-23.48-49.253-27.888-15.403-4.297-31.282-6.585-47.275-6.676-23.222-1.99-46.981 1.244-68.598 10.006-19.208 8.997-37.946 19.17-54.99 31.88-2.921 2.306-6.918 4.444-8.767 7.005-.796 4.397 1.462 8.814 1.333 13.218 19.96 1.267 39.638 5.642 59.023 10.275 13.547 3.853 27.319 7.97 39.2 15.854 17.467 11.661 27.01 30.98 37.598 48.425 10.346 17.31 20.762 34.701 31.179 51.946-12.405 6.122-27.168 7.374-40.13 12.284-51.186 12.062-104.042 21.378-156.769 16.314-26.016-1.353-51.599-8.221-74.423-20.788-20.66-11.48-39.858-25.44-58.178-40.31-4.982 1.297-8.737 7.254-13.5 8z" style="fill:#000;fill-rule:evenodd;stroke:none"/></svg>