<svg xmlns="http://www.w3.org/2000/svg" width="3000" height="3000"><path d="M406 2716h2188c-.452-13.213-4.171-26.125-5.71-39.208C2468.846 1960.196 2349.431 1243.585 2230 527c-109.325-35.987-218.457-72.878-327.734-109.071-95.467-31.86-190.966-63.65-286.44-95.486-21.006-7.01-42.008-13.98-63-21l-30.529-10.183c-9.47-3.025-21.252-8.92-30.35-5.086-156.884 52.344-313.79 104.58-470.681 156.897-58.813 19.64-117.642 39.186-176.447 58.829-13.016 4.296-26.007 8.68-39 13-6.335 2.066-12.631 4.23-18.954 6.3-3.19 1.104-6.385 2.128-9.576 3.212-7.976 1.527-8.94 7.943-9.29 14.656-63.894 383.21-127.754 766.408-191.617 1149.624-28.466 171.167-57.103 342.324-85.568 513.49-14.29 85.674-28.582 171.345-42.844 257.017-7.145 42.829-14.299 85.67-21.418 128.502-3.57 21.335-7.128 42.665-10.66 64.002-1.808 10.66-3.57 21.336-5.34 31.998-1.36 10.463-4.53 22.595-4.552 32.299m1126-1195c-27.592 6.834-55.262 13.74-83.382 18.23-14.546 2.547-29.14 4.571-43.795 6.292-7.106.923-14.25 1.646-21.397 2.079-6.186-.59-15.601 2.483-19.926-.601-5.227 3.83-14.966.836-22.07 2-24.062-.438-52.125 2.194-72.523-13.936-19.987-19.431-5.97-49.485 5.093-66.564-3.466-1.715-7.518-5.326-10.5-6.5-29.793 20.058-59.083 47.25-66.268 84.188-4.168 19.017 2.268 38.954 13.473 54.282 10.743 14.655 25.89 25.598 42.107 33.453 25.974 12.419 55.18 16.85 83.737 17.03 30.028-.683 60.022-1.894 89.92-4.685 36.474-3.32 72.634-9.116 108.682-15.38 13.453-2.95 27.104-5.086 40.49-8.29 5.107-1.11 11.544-4.61 14.755 1.956 10.787 17.446 22.102 34.556 33.883 51.352 8.783 13.145 17.465 26.33 26.305 39.428 2.887 4.445 7.011 10.388 4.436 16.442-5.092 2.663-11.334-.061-16.193-.299-18.738-3.299-37.558-5.825-56.412-8.306-9.649-1.034-19.324-2.076-28.966-3.088a758 758 0 0 0-15.16-1.285c-4.416-.622-10.638.164-12.789-2.798-3.02 2.827-8.342 1.116-12.19 1.24-4.265-.42-8.622.084-12.826-.845-3.435-.98-7.587-2.577-10.924-.626-29.742 2.188-60.632 1.317-91.286 7.355-51.387 7.582-101.128 27.715-141.01 61.246-7.024 4.33-12.27 14.507-18.58 21.709-23.258 29.238-33.56 68.397-25.819 105.134 4.399 27.059 19.964 50.532 38.113 70.258 29.474 27.932 66.556 46.693 105.629 57.14 41.577 12.012 84.975 16.58 128.111 17.386 42.38-.41 85.166-2.262 126.887-10.218 14.952-2.93 29.934-6.426 44.06-12.228 21.751-8.442 51.616-24.846 49.243-55.31-.606-9.906-4.38-21.482-10.068-28.656-11.203-13.174-28.085-19.455-44.435-23.245-26.948-5.891-54.98-5.15-82.201-1.591-13.708 1.895-27.132 5.301-40.846 7.1-6.806.76-13.607 1.567-20.443 1.855-5.727-.452-14.452 2.279-18.415-.704-4.773 3.639-13.73 1.028-20.284 2-27.181.58-54.453-.257-81.175-5.695-20.999-4.32-41.904-10.916-60.007-22.662-7.318-5.363-15.522-12.668-20.268-19.568-9.576-15.431-11.208-34.884-6.457-52.27 7.614-29.715 33.642-50.677 61.277-60.782 23.207-8.315 47.969-12.327 72.61-12.023 71.24-2.33 143.347 15.537 203.263 54.653 16.529 9.57 31.67 21.167 46.659 32.922 13.744 10.079 28.989 19.922 46.51 21.284 15.454 1.539 30.97-4.569 41.242-16.23 19.61-18.409 29.015-45.323 31.803-71.412 1.28-10.451.477-21.018-3.24-30.87-6.71-15.931-19.333-28.341-30.47-41.19-7.296-10.46-18.96-16.821-26.799-26.957-12.87-13.915-25.893-27.663-37.655-42.565-6.21-7.218-12.022-14.735-17.617-22.436-4.374-7.054-13.296-15.959-13.892-23.199 47.682-14.408 94.74-33.138 137.337-59.188 10.185-6.656 19.81-14.815 25.456-25.8 8.6-16.827 9.019-39.616-4.05-54.52-13.114-13.374-32.078-18.38-50.027-20.228-12.508-.163-27.407-.745-38.804.613-8.2 2.02-14.665 8.144-22.045 11.872-22.538 12.66-46.056 23.51-70.039 33.127-12.563 3.95-26.881 11.068-38.828 13.124-2.34-6.963-7.318-12.9-9.916-19.817-4.716-9.793-9.232-19.636-13.74-29.52-3.392-9.932-10.01-21.028-11.344-30.663 47.404-14.573 96.146-29.825 137.726-57.834 18.28-12.306 39.883-36.22 30.846-62.886-3.507-11.917-14.246-19.598-25.261-23.938-11.75-5.194-24.498-7.432-37.197-8.468-6.164-.886-12.362-1.322-18.585-1.497-5.189-.077-11.586-1.05-16.177.654-7.91 3.796-14.398 10.024-21.813 14.618-21.34 14.728-44.676 26.232-68.924 35.272-4.152 1.092-8.745 3.456-12.615 4.079-4.455-20.743-6.247-41.972-9.216-62.941-1.795-15.386-4.4-32.466-16.654-43.428-16.838-16.392-45.982-19.165-65.976-21.712-24.43-1.8-49.539-2.05-72.75 7.15-19.861 7.375-37.426 19.711-53.686 32.977-3.196 2.753-6.021 5.91-9.168 8.717-3.235 2.28-3.844 5.861-1.733 9.114.725 3.479 6.702 2.898 9.27 3.538 13.53 1.436 26.987 3.83 40.283 6.668 18.67 4.033 42.435 9.785 54.648 23.566 11.68 15.403 17.367 34.461 25.639 51.689 1.04 3.157 3.6 7.145 2.596 10.043-1.699 2.293-6.254 1.759-9.192 2.887-54.275 11.83-109.34 20.037-164.51 15.42-20.456-1.602-40.468-6.455-59.242-14.762-15.816-7.279-31.235-15.44-46.44-23.857-3.188-1.82-6.933-1.499-10.033 2.135-2.545 2.104-.043 6.234.93 9.524 10.901 25.559 23.628 50.768 41.725 72.076 13.93 15.194 31.22 27.712 50.888 34.332 31.832 11.884 66.14 12.441 99.578 11.864 33.674.257 67.2-3.968 100.487-8.414 11.302-1.696 22.53-3.902 33.801-5.737 4.616-1.09 7.1 2.093 8.181 5.994 6.31 12.742 11.772 25.864 17.854 38.707 3.406 6.768 6.856 13.486 9.791 20.46 2.364 6.614 7.9 13.532 8.929 19.99" style="fill:#fda;fill-rule:evenodd;stroke:none"/><path d="M291 2812.5c402.66 1.426 806.125-.26 1208.95.5 402.946-.76 806.184.926 1209.05-.5-66.691-393.12-131.048-787.321-197.186-1180.681C2447.104 1239.148 2380.056 846.747 2316 454c-136.143-44.935-272.089-90.768-408.181-135.9-102.008-33.974-204.008-68.03-306-102-19.182-6.399-38.38-12.77-57.553-19.171-8.997-3.033-18.01-5.99-27-9-7.928-3.04-16.863-7.25-26.38-2.738-134.51 44.908-269.079 89.643-403.589 134.55C952.797 364.27 818.541 409.675 684 454c-64.117 393.376-131.371 786.397-196.109 1179.703C421.811 2026.161 357.548 2420.573 291 2812.5m116-97.5h2186c-120.11-729.14-243.257-1457.94-364-2187-109.157-35.927-218.092-72.748-327.181-108.9-95.331-31.722-190.626-63.585-285.954-95.3q-31.498-10.534-63-21l-30.566-10.195c-9.852-3-21.422-9.034-30-5.21-156.482 52.2-313.005 104.314-469.48 156.505-58.858 19.6-117.69 39.211-176.522 58.84-12.832 4.262-25.65 8.528-38.47 12.817-6.336 2.128-12.684 4.227-19.008 6.343-5.33 2.846-14.097 3.151-17.405 7.24-66.013 385.799-128.474 772.546-193.688 1158.548C521.372 2030.17 462.67 2372.459 407 2715" style="fill:gray;fill-rule:evenodd;stroke:none"/><path d="M1247 1794h1.5c2.779-3.486 8.483-7.276 9.5-11-4.69 1.353-10.482 7.144-11 11m68-434.625c3.28 1.166 9.246.459 12 .125-3.392-3.961-8.68-3.245-12-.125m45 189c1.57 1.227 5.3.398 7 .125-2.051-2.971-5.085-2.827-7-.125m105 167.988c1.883 1.435 5.927 0 8.034.637 2.5-.09 5.987.198 7.966-.5-3.513-4.672-12.584-3.172-16-.137m20 218.012c1.57 1.227 5.3.398 7 .125-2.051-2.971-5.085-2.827-7-.125m2-218.043c1.702 1.434 5.517.074 7.457.668 2.378-.06 5.667.128 7.543-.5-3.586-3.383-11.445-4.355-15-.168m35 1.043c1.313 1.294 4.548.31 6 .125-.576-.726-.932-1.572-1-2.5-1.935-.116-3.8.866-5 2.375m235-19.625c.962 2.361 4.026 4.308 5.869 6.619 2.185 1.946 4.44 4.946 7.131 5.631v-1.5c-4.02-3.947-7.697-10.938-13-11.5z" style="fill:#f2d3a5;fill-rule:evenodd;stroke:none"/><path d="M1156 1323.313c9.568 23.893 22.77 51.711 37.076 70.718 11.268 16.09 26.576 29.135 43.816 38.408 28.444 14.131 61.144 18.137 92.5 18.561 33.076.37 66.183-.652 99.013-4.917 20.602-3.08 41.939-5.137 62.095-10.083 7.65 13.042 12.994 27.634 19.766 41.18 6.777 13.646 14.2 29.988 20.734 42.32-54.284 14.995-110.52 25.23-166.852 28.218-27.81.677-62.194 2.811-86.108-8.243-13.587-5.746-20.143-20.642-17.77-34.633 1.096-13.915 10.102-25.351 14.73-37.842-3.61-1.118-7.59-4.81-11.5-7-15.39 11.886-31.485 23.198-43.993 38.375-18.943 21.82-30.82 53.399-20.865 81.99 9.288 27.882 34.45 47.031 60.545 57.893 28.127 11.494 58.986 14.747 89.123 13.382 30.996-.783 61.994-2.2 92.815-5.682 48.616-6.489 97.641-12.552 145.198-24.958 13.586 21.198 27.272 42.532 41.786 63.174 6.953 10.435 13.9 20.866 20.872 31.284 2.418 4.345 8.732 11.831 4.143 15.925-6.583 1.063-13.248-1.256-19.759-1.99-51.848-8.695-104.34-14.032-156.927-13.393-48.868.027-98.652 6.025-144.625 23.284-39.77 14.752-77.32 39.047-100.795 75.173-22.61 35.075-28.561 81.025-12.757 120.2 13.844 34.543 41.67 62.04 74.283 79.217 65.839 36.138 143.184 44.557 216.974 42.837 33.298-1.468 66.837-2.884 99.641-9.253 28.363-5.858 58.783-12.838 81.317-32.443 22.415-18.286 19.847-58.087-3.407-74.697-21.19-15.312-52.998-19.237-76.119-19.318-25.663-.874-50.9 3.495-75.917 8.497-24.841 4.313-50.113 4.444-75.225 4.503-43.512.05-89.632-3.843-128.195-26.148-15.938-8.964-29.067-24.213-31.89-42.641-2.774-17.624 1.459-36.082 11.129-50.972 17.667-28.011 50.3-41.144 81.238-47.356 59.806-9.767 122.183-2.62 179.027 17.771 39.203 14.986 75.238 37.49 108.29 63.15 12.57 9.43 25.86 18.974 41.443 22.656 14.332 3.759 30.206 1.878 42.548-6.55 19.648-14.445 32.796-36.755 37.973-60.407 4.552-17.854 5.77-41.082-1.937-56.625-12.758-24.528-35.396-41.85-53.697-61.805-17.82-20.51-37.26-39.731-53.117-61.938-5.326-8.588-14.335-17.348-17.62-26.135 47.682-14.408 94.74-33.138 137.337-59.188 10.185-6.656 19.81-14.815 25.456-25.8 8.32-16.985 9.152-39.79-3.043-55.34-12.41-14.12-31.735-18.9-49.414-21.237-12.675-.642-27.724-.507-39.341-.034-8.505.893-15.382 6.614-22.468 10.792-22.584 13.22-46.422 24.178-70.696 33.871-12.865 4.811-25.698 9.927-38.831 13.936-11.867-25.74-26.41-50.745-35-78 47.404-14.573 96.146-29.825 137.726-57.834 18.135-11.525 38.682-35.03 31.51-62.741-2.852-12.304-13.081-20.906-24.368-25.407-11.727-5.346-24.43-7.879-37.19-8.995-12.07-.556-26.73-3.32-37.763-1.189-7.94 3.406-14.221 9.777-21.532 14.223-20.98 14.661-43.958 26.104-67.845 35.117-3.755 1.839-8.886 2.537-12.038 4.826-5.29-18.7-6.045-38.7-8.988-57.869-2.35-16.301-3.304-35.181-16.247-47.366-9.81-10.693-24.092-15.214-37.777-18.4-25.769-5.292-57.236-6.753-81.148-3.336-18.546 2.367-35.568 10.865-51.291 20.413-11.67 7.36-22.71 15.818-32.537 25.505-1.562 1.905-4.335 3.44-5.053 5.42-.385 5.569 1.347 10.179 6.662 10.591 18.531 1.89 36.907 5.15 55 9.579 16.13 4.063 33.718 9.084 44.928 22.308 12.147 17.854 18.839 38.794 27.951 58.21-1.776 2.218-5.782 2.196-8.862 2.991-47.065 10.193-95.147 17.842-143.43 16.838-23.873-.593-47.827-3.516-70.186-12.273-21.199-8.368-41.117-19.713-61.022-30.611-3.205 2.26-6.266 4.818-9.5 7z" style="fill:#000;fill-rule:evenodd;stroke:none"/></svg>