<svg xmlns="http://www.w3.org/2000/svg" width="3000" height="3000"><path d="M328 2803h2344c-118.785-721.214-240.618-1442.068-360.03-2163.199-7.528-45.17-15.046-90.339-22.588-135.492-1.756-10.718-3.574-21.44-5.367-32.15-1.463-5.102-.632-13.609-5.65-15.42-82.419-27.818-165.08-54.96-247.546-82.639-144.35-48.044-288.615-96.253-432.954-144.3-27.19-9.095-54.376-18.14-81.566-27.195-6.024-1.707-14.13-5.746-19.294-4.368-99.967 33.09-199.81 66.647-299.74 99.834a5130220 5130220 0 0 1-448.968 149.67c-9.274 3.513-19.03 5.778-28.13 9.725-3.665 1.962-2.298 9.57-3.876 12.727-22.54 135.51-45.194 271.003-67.739 406.508C542.266 1518.848 433.622 2160.802 328 2803m674-1856.75c3.161 8.933 5.266 18.61 8 27.75h465.6c20.806-.414 42.938 2.414 62.4-6v417c-.099 33.014-.204 66.04.909 99.027 2.192 25.03 4.841 53.91 23.566 72.948 15.736 17.114 39.734 22.69 61.784 25.996 43.047 5.778 86.737 3.093 129.997 4.029 62.382-.775 126.622.402 186.87-18.556 24.341-7.729 54.382-25.705 57.469-59.417 1.958-15.062-1.84-31.141-12.503-42.382-9.659-9.619-24.221-17.875-36.092-21.645-.095-24.388-4.034-48.612-4-73 6.478-1.269 13.368-2.8 18.102-7.887 6.588-6.627.979-11.777-4.494-15.244-8.193-7.347-16.71-14.335-25.295-21.205-12.48-9.944-25.09-19.744-37.682-29.544-12.634-8.878-26.108-21.744-38.131-29.12-10.573 13.15-20.989 26.465-31.353 39.774-7.8 10.063-15.757 20.009-23.53 30.093-1.338 1.975-2.873 3.758-4.807 5.15-9.8 2.349-20.644-.055-30.677.983H1677v-85h210c16.4-1.044 36.894 4.095 46.903-9.191 3.933-5.619-2.718-10.102-6.419-13.705-29.6-26.67-61.32-50.995-92.984-75.104-17.872 23.54-36.331 47.086-54.873 70.129-8.375 1.849-17.383.184-25.915.871H1677v-80h211.8c11.829-.08 23.646.098 35.463-.055 10.746.522 21.01-4.675 25.737-14.445-13.645-13.987-29.154-25.926-44.036-38.522-7.675-6.097-15.297-12.29-23.037-18.293-3.939-2.835-7.456-6.183-11.403-8.999-3.087-3.08-9.294-6.072-10.524-9.686 2.342-2.578 7.667-2.077 11.334-3.532 14.438-3.04 28.786-6.591 42.86-11.039 5.273-1.81 11.799-3.465 15.928-6.634 4.127-3.292 2.508-10.255 2.878-14.89V914c14.481-1.647 31.555-9.458 40-20-40.7-32.597-84.673-61.488-125.5-94-10.107 11.496-20.397 22.827-30.766 34.09-7.44 8.825-15.604 17.024-23.122 25.772-5.904 7.344-18.156 4.645-26.38 5.138H1681v-80h252c10.067-.46 22.04.664 31.215-.61 7.588-1.34 16.849-6.283 18.113-13.426.35-3.053-5.67-5.313-6.697-7.833-38.201-34.988-78.448-67.87-118.131-101.131-20.059 28.814-41.22 56.983-61.488 85.674-2.833 3.11-4.888 8.437-8.39 9.859-35.442 1.332-71.14-.243-106.622.467V652c8.484-1.89 17.541-2.846 25.015-7.726 8.33-4.625 10.112-12.29 12.985-19.774-60.187-5.066-120.732-9.622-181-14.5v342h-2.5c-33.92-30.821-68.85-60.578-104-90-15.427 20.665-30.412 41.711-45.737 62.448-3.792 5.427-7.886 10.637-11.727 16.013-2.94 5.529-7.782 6.19-13.18 5.539H1311c.347-4.635 5.939-7.558 8.806-10.49 24.408-24.51 49.558-48.369 72.474-74.261 12.093-12.048 22.283-25.808 33.976-38.214 3.009-3.669 8.05-2.835 12.431-3.287 10.176-.978 23.95-6.844 27.313-19.748-42.006-7.432-83.002-20.558-125-28v-3h94.2c15.826-.097 31.66.119 47.48-.067 11.782-.854 31.172.598 34.32-16.933-5.118-1.573-8.92-8.965-13.975-12.475-31.346-29.44-64.4-57.136-97.525-84.525-12.852 16.1-23.962 33.539-36.591 49.804-6.176 8.36-12.109 16.882-18.221 25.271-2.934 3.75-6.385 10.283-10.653 10.722-5.67.465-11.357.009-17.035.203v-93c13.185-1.877 30.277-6.753 33-25-58.071-3.272-115.983-8.971-174-13v131h-168v1.5c1.787 5.323 3.138 10.794 4.77 16.16 1.405 4.063 1.714 9.922 6.3 10.11 13.858.654 27.8-.117 41.657.23H1095c9.504 22.975 17.217 46.686 21.714 71.223 5.182 25.959 5.047 52.46 3.286 78.777 3.37.811 5.987 5.165 9.132 7.546 8.516 7.436 20.478 14.734 30.868 16.454v3h-158zM1142 2305c.273 15.696.278 31.793-5.404 46.708-8.888 25.613-25.083 48.936-45.995 66.197-17.886 15.212-40.887 23.322-57.83 39.837-15.328 14.005-26.866 33.823-24.987 55.209.466 17.631 7.94 38.256 18.822 50.353 22.04 24.88 60.934 33.48 91.657 20.938 45.238-19.611 68.21-69.736 71.634-116.293 5.078-50.429-10.281-100.34-30.436-145.758-1.823-4.102-3.945-8.038-5.92-12.056-2.081-5.33-6.724-5.57-11.541-5.135m-81-710c39.01 1.52 78.91-4.55 113.034-24.73 7.412-4.625 15.5-9.422 20.23-17.092 3.087-7.264.963-15.68 1.736-23.296V1329h123c-.95 38.254 1.165 76.585-.644 114.796-.37 4.187-1.027 8.75-3.942 12.033-5.155 5.978-15.693 3.629-22.464 4.17-12.172-.37-24.357-.716-36.494-1.657-11.416-2.034-25.725.375-35.956-2.342-.651 2.623-1.528 6.76-.518 8.853.709 2.671 4.415 2.975 7.176 3.792 13.092 3.55 26.876 6.962 37.646 15.852a83.23 83.23 0 0 1 29.972 51.133c4.555 21.199 4.711 42.863 6.224 64.37 25.464-3.045 51.153-5.67 75.75-13.426 17.294-5.19 34.43-12.495 48.297-24.284 10.102-8.898 19.004-19.49 23.573-32.366 15.865-42.805 10.688-89.411 11.38-133.967V1106c15.495-2.138 30.421-8.854 41-20.5-43.238-33.247-86.575-66.51-130-99.5-10.475 11.339-20.764 23.125-30.873 34.844-8.356 11.317-20.97 21.517-30.127 35.156h-69.6c-16.13-.34-35.796 1.83-49.568-4.472-43.081-16.32-85.574-34.925-128.832-50.528zm58-824.5v1.5c40.79 11.191 81.01 33.099 106.275 67.907 12.408 18.215 18.55 42.73 9.642 63.806-7.524 18.46-27.448 36.584-45.917 39.287v3h94c5.015-28.746 9.365-57.668 13.158-86.606 3.238-30.11 9.247-60.04 9.842-90.394h-187zm36 1534.5c31.412.143 63.485-.11 93.702-9.74 13.825-4.28 27.376-9.736 39.412-17.855 5.774-3.612 12.542-8.577 15.418-14.277.964-7.987.129-16.112.468-24.128h496c-4.014 37.266-7.449 74.678-13.602 111.686-4.214 27.865-9.716 55.62-17.25 82.776-5.62 18.416-12.333 41.318-24.767 54.638-12.007 13.61-27.248 14.462-42.824 13.9-49.257-.072-98.593-3.281-147.557-8 .316-5.143 5.28-10.624 6.922-16.438 8.348-22.185 5.456-47.219-4.813-68.293-14.053-30.373-41.005-52.631-68.634-70.074-14.015-7.82-31.054-16.23-44.816-21.534-7.936-3.082-15.834-6.169-23.888-8.89-6.952-2.603-15.94-7.037-22.771-.271 23.585 47.586 40.853 98.98 46.449 152.028.915 7.25.888 14.604 1.263 21.885.51 5.214-1.13 12.433 4.282 16.755 15.376 12.794 34.388 23.28 55.15 21.69 9.77-.737 21.22-3.937 28.837-8.783 4.112-2.266 7.596-5.45 11.298-8.274 3.607-2.468 6.863-8.457 10.721-8.801v9c33.353 6.152 73.013 18.436 98.115 37.579 13.69 10.094 25.295 24.248 28.846 41.265 4.914 18.307 5.082 37.381 5.039 56.156 34.844-.078 70.107-1.825 104.01-10.435 23.204-5.888 44.565-17.235 62.986-32.36 27.176-24.56 43.547-58.829 54.183-93.27 11.82-35.61 17.927-72.807 24.44-109.625 6.442-42.59 12.015-85.369 15.381-128.31 15.445-1.532 31.071-6.99 42-18.5-41.634-34.186-82.549-69.874-124.5-103.5-16.292 15.971-33.856 30.532-49.945 46.723-6.598 5.669-12.583 12.022-19.307 17.557-5.238 6.464-15.76 4.543-23.066 4.72H1596v-127h245.4c10.027-.274 20.445.907 30.209-2.069 3.942-1.156 7.858-2.84 10.731-5.877 2.295-2.1 5.339-6.601 3.027-8.636-40.608-35.202-84.495-66.77-127.867-98.418-20.104 24.486-39.748 49.407-59.95 73.824-4.69 6.09-9.566 14.581-19.096 13.176H1596v-128h226.2c12.469-.108 24.953.287 37.4-.537 9.712-.595 23.549-3.079 27.4-15.002-41.118-35.52-85.46-67.87-129.5-99.461-20.42 24.168-39.783 49.3-59.988 73.65-4.63 5.615-9.235 14.35-18.807 13.35H1596v-127h264.6c11.13-.44 22.347.578 33.441-.412 7.78-1.485 17.843-5.69 19.967-12.608 1.519-3.315-4.564-6.083-6.098-8.244-41.828-34.14-85.206-66.426-128.41-98.736-23.793 31.608-51.31 61.121-74.5 93h-361.2c-8.717-.548-19.228.876-27.091-.982-54.004-19.301-107.935-39.21-161.709-59.018zm41-1128h123v-82.2c-.544-3.397 1.16-10.031-2.429-11.356-30.458-1.266-61.104.23-91.595-.444H1196zm0 125h123v-98h-123zm60 1009.5c5.575 25.685 5.997 52.77 6 79.046.513 23.041-1.111 46.003-4.42 68.794-2.098 19.276-7.549 38.343-12.12 56.97 13.895 28.55 50.524 46.16 81.245 36.547 22.928-7.416 39.915-26.45 48.826-48.252 14.337-36.334 4.73-77.626-15.728-109.346-18.794-31.15-46.576-55.554-76.264-75.908-3.931-2.564-7.72-5.361-11.847-7.605-2.163-.98-4.67-3.39-6.556-3.19-2.374.336-4.705 1.023-7.024 1.628-.773.315-1.427.864-2.112 1.316m48-410.5h146v-127h-146zm0 156h146v-128h-146zm0 155h146v-127h-146zm237 82.438c26.622 22.414 48.429 50.198 65.92 80.19 6.548 11.485 12.16 23.533 17.376 35.661 2.221 5.35 3.492 11.011 5.447 16.458 2.038 4.854 1.575 12.556 5.78 15.258 17.55 10.536 39.762 16.63 59.7 9.079 30.092-9.032 48.99-42.28 42.753-72.877-5.91-29.69-30.045-51.81-56.219-64.323-20.321-10.657-42.769-16.609-65.326-20.04-11.485-1.738-23.03-2.874-34.593-3.847-5.98-.331-11.982-.463-17.959-.729-5.094.568-11.774-1.564-17.454.998-1.892 1.153-4.126 2.598-5.425 4.171m1-1346.938v1.5c41.282 13.677 81.738 30.508 122.803 44.934 9.994 2.878 21.2 8.987 30.753 10.004 34.823.177 69.627-.032 104.444.062V893h-119v11.4c1.997 13.34-14.618 19.003-24.516 22.871-36.263 14.94-75.731 18.418-114.484 18.729zm135 178.5h108c5.784-10.193 16.371-20.423 22.212-29.549 4.177-4.846 7.91-10.052 11.871-15.059 3.147-4.665 9.283-10.571 9.917-15.392h-29v-35h-123zm257 246h-257v40.005c.255 9.758-.8 19.83 1.723 29.394 3.303 13.892 25.619 12.53 35.489 12.601h103.492c14.53.193 29.051.016 43.547-.987 9.897-.653 20.236-2.177 28.295-8.463 10.446-9.116 18.869-23.48 25.374-34.176 3.371-5.836 6.769-11.655 9.75-17.695 2.597-6.798 8.152-14.026 9.33-20.679" style="fill:#feddaa;fill-rule:evenodd;stroke:none"/><path d="M1009 975h498c9.754-.247 21.311.7 29.5-6 1.426 101.077-.26 202.66.5 303.833v114.574c-.11 33.15-.214 66.29.973 99.419 2.532 25.11 5.385 54.13 25.002 72.65 16.293 16.932 41.044 21.38 63.135 24.892 43.329 5.36 87.227 2.78 130.745 3.632 62.492-.859 127.014.326 187.23-19.236 13.678-5.051 27.306-11.308 37.604-21.984 15.706-16.058 23.183-40.53 16.087-62.446-6.625-20.694-26.966-34.049-46.776-40.334-.168-23.705-3.915-47.284-4-71 8.896-1.305 19.888-5.157 23-16.602-17.273-16.785-36.701-31.106-55.43-46.151-19.107-13.762-36.753-29.891-56.07-43.247-10.856 12.703-20.643 26.318-31.194 39.27-7.727 9.96-15.557 19.829-23.301 29.76-2.783 3.843-5.314 8.415-11.554 7.95-38.154.057-76.308-.01-114.451.02v-83h203.4c11.418-.05 22.831.06 34.245-.033 10.16.256 19.052-6.37 22.355-15.467-31.617-31.808-68.746-57.454-103.5-85.5-18.123 23.384-36.313 46.789-54.741 69.92-2.298 3.28-8.951 1.449-12.104 2.08H1678v-78h235.2c11.948-.503 29.476 2.571 36.76-13.634 2.024-4.457-6.136-8.733-7.965-11.79-25.728-22.814-52.876-43.984-79.995-65.076 14.312-4.842 30.256-6.25 44.686-11.267 5.937-1.586 11.774-3.453 17.565-5.495 14.493-3.295 10.54-17.552 10.749-27.83V915c14.793-1.796 33.176-9.892 41-21.5-22.197-17.494-45.613-33.418-67.961-50.728-16.999-12.559-33.993-25.109-50.954-37.7-3.02-1.385-6.895-6.672-9.92-5.123-10.549 10.61-19.978 22.4-30.431 33.141-7.29 8.726-15.4 16.69-22.74 25.371-5.756 7.59-17.85 5.331-26.163 5.539H1682v-78h253.8c9.984-.51 21.93.827 30.977-.953 7.504-1.876 16.776-6.78 16.75-15.185-17.903-20.681-41.88-37.346-62.1-56.027-21.265-17.996-42.654-35.87-63.927-53.835-20.529 28.467-41.037 56.986-61.576 85.448-2.554 3.473-4.894 7.122-7.846 10.27-7.55 2.763-18.468.228-26.37 1.282H1682V653c8.628-1.942 17.907-2.862 25.44-8.008 7.579-4.7 11.471-13.51 12.56-21.992-61.065-3.432-121.95-10.282-183-14-.76 113.903.926 228.209-.5 342-34.102-31.338-69.76-60.948-105-91-15.985 20.194-30.113 41.83-45.878 62.19-3.665 5.524-7.877 10.657-11.713 16.05-2.928 5.717-6.486 7.345-12.255 6.76-16.463-.71-33.317.878-49.654-.5 26.95-24.38 51.497-51.312 76.932-77.196 11.962-13.696 24.847-26.59 36.136-40.887 6.047-7.849 17.474-3.956 25.918-8.486 9.022-3.414 13.425-9.653 17.014-17.431-41.17-11.601-84.371-19.365-126-30 31.456-1.426 63.09.26 94.583-.5 15.982-.133 31.94.165 47.906-.096 12.27-.39 29.358.032 34.511-17.404-36.648-34.415-74.395-67.8-113.5-99.5-13.22 15.74-23.888 33.48-36.661 49.576a1206 1206 0 0 0-18.235 25.3c-3.395 3.604-6.103 9.869-9.918 11.673-5.51.816-11.147.236-16.686.451v-91c13.502-1.806 32.099-7.493 33-27-58.746-3.126-117.287-9.347-176-13v131c-56.266.76-112.809-.926-169 .5 3.056 7.345 4.126 15.518 6.886 22.99.94 8.378 9.107 6.381 15.238 6.51H1094c9.504 22.975 17.217 46.686 21.714 71.223 5.31 25.966 4.92 52.452 3.286 78.777 3.37.811 5.987 5.165 9.132 7.546 8.785 8.024 19.514 13.612 30.868 16.954-52.596 1.426-105.375-.26-158 .5 1.7 10.2 5.941 19.875 8 30m142.5 1328c-3.427 2.195-8.322-.305-11.5 2.5 4.739 30.364-7.933 61.959-26.084 85.951-15.397 21.119-36.636 36.934-59.928 48.267-18.609 12.03-36.771 28.11-44.273 49.71-12.05 37.912 9.603 84.772 48.428 96.46 15.272 5.229 32.056 6.993 47.946 3.405 25.646-5.64 47.194-23.89 60.866-45.75 22.428-34.963 27.446-77.774 23.483-118.275-4.221-40.315-17.591-79.469-35.623-115.639-1.177-2.188-2.18-4.43-3.315-6.629m-91.5-707c20.614.44 41.298-.114 61.523-4.467 14.149-3.265 28.084-7.76 41.248-13.919 9.07-4.647 18.45-9.114 26.069-16.04 2.818-2.687 5.871-5.48 7.243-9.223 1.875-7.76.265-15.981.917-23.863V1330h121c-1.099 38.016 1.356 76.15-.772 114.127-.367 3.96-1.368 8.15-4.188 11.125-5.418 5.591-15.863 3.073-22.656 3.741-12.194-.397-24.37-.938-36.514-1.887-11.583-1.026-25.327-.329-35.87-2.106.112 4.074-2.161 10.505 1.268 12.885 4.363 1.443 8.873 2.514 13.299 3.753 24.935 5.754 47.15 23.912 55.401 48.66 9.99 25.654 8.015 53.912 11.032 80.702 23.947-2.273 47.871-5.359 71.154-11.536 16.245-4.583 32.676-10.159 46.745-19.76 10.05-7.074 20.08-17.628 26.042-27.147 20.273-36.3 16.84-79.481 17.059-119.216V1107c16.085-2.052 31.178-9.44 42-21.5-43.897-34.111-88.162-67.975-132.5-101.5-19.634 24.185-42.565 46.502-61.5 71h-69.6c-16.936-.02-34.452 1.845-50.123-5.475-42.8-16.662-85.334-34.35-128.277-50.525zm60-825.625c40.047 12.722 80.952 32.666 105.962 68.093 12.879 18.665 18.965 44.014 10.146 65.735-7.238 19.46-27.758 36.234-46.108 40.297 30.616 1.425 61.365-.259 92 .5a2059 2059 0 0 0 13.006-85.501c3.381-29.803 9.004-59.465 9.994-89.499-61.588.57-123.514-.694-185 .375M1154 2306c31.74.173 64.095.073 94.697-9.4 13.984-4.45 27.823-9.711 40.04-17.97 5.918-3.627 12.82-8.754 15.795-14.502.964-7.987.129-16.112.468-24.128h494c-9.143 73.263-14.305 148.605-39.496 218.731-5.82 15.738-14.861 32.639-31.524 39.056-14.108 5.036-29.527 2.463-44.196 3.208-42.95-1.447-86.072-3.498-128.784-7.995 9.778-17.111 14.94-37.373 10.649-57.14-4.42-28.609-21.243-53.477-42.739-72.127-20.457-18.785-44.602-32.934-70.216-43.414-9.58-4.476-19.769-7.489-29.567-11.405-4.948-1.65-9.862-3.42-14.863-4.86-5.816-2.245-9.598 1.105-14.264 2.946 23.35 48.034 41.714 99.457 47.263 152.969.971 7.196 1.113 14.46 1.38 21.705.572 5.953-.756 13.704 3.225 17.47 15.154 13.276 34.176 23.705 54.961 22.836 20.005-.057 39.73-9.838 51.671-25.98.832 2.43.282 5.999.5 9 33.353 6.152 73.013 18.436 98.115 37.579 13.69 10.094 25.295 24.248 28.846 41.265 4.914 18.307 5.082 37.381 5.039 56.156 35.42-.107 71.311-1.63 105.797-10.381 23.598-5.995 45.396-17.536 64.005-33.106 27.115-24.938 43.242-59.461 53.896-94.096 11.596-36 17.86-73.457 24.332-110.607 6.15-41.774 11.775-83.695 14.97-125.81 15.95-1.536 31.969-7.413 43-19.5-42.026-35.287-84.084-70.71-126.5-105.5-16.028 16.155-33.78 30.429-49.738 46.65-6.626 5.667-12.738 11.866-19.343 17.54-6.28 7.342-14.175 6.117-22.441 5.81H1597v-125h227.4c12.55-.26 25.136.335 37.663-.225 10.082-.162 22.351-4.266 26.937-16.275-41.794-36.385-87.078-68.525-131.5-101.5-20.22 24.269-39.63 49.24-59.867 73.493-5.047 6.304-10.665 15.391-18.411 14.507H1597v-126h228c12.473-.025 24.953.242 37.388-.65 11.306.204 21.97-5.497 26.612-15.85-41.317-36.802-87.196-68.63-131.5-101.5-20.822 23.803-39.697 49.362-60.125 73.516-4.977 6.173-10.433 15.19-17.903 14.484H1597v-125h249.6c13.807-.003 27.63.004 41.435-.002 10.35.14 24.557-3.74 28.965-16.53-44.297-37.428-91.529-71.21-137.5-106.468-12.827 15.674-25.541 31.48-38.31 47.203-11.844 15.841-26.253 30.462-37.19 46.797h-361.8c-8.569-.357-19.012.903-26.6-1.64-54.163-18.482-107.29-40.506-161.6-58.36zm43-1130h121v-81c-.297-3.651 1.018-10.478-3.574-10.677-29.493-.92-59.094.167-88.603-.323H1197zm0 125h121v-96h-121zm58 1009.5c6.876 43.184 7.9 87.497 3.67 131.034-1.713 15.704-3.827 31.409-7.525 46.787-1.526 7.05-3.194 14.053-5.227 20.97-.453 2.514-1.617 5.651-1.368 8.397 9.853 20.779 35.991 36.741 56.454 38.611 18.376 2.797 36.751-4.314 50.789-15.793 20.751-17.992 32.515-45.481 31.207-72.932.911-27.665-9.872-54.339-24.655-77.133-22.216-34.145-54.726-60.703-89.127-81.812-4.116-2.402-11.128-.005-14.218 1.871m50-410.5h144v-125h-144zm0 156h144v-126h-144zm0 155h144v-125h-144zm234 82.75c39.395 37.527 76.015 82.662 90.507 136.637.949 3.521 1.276 7.255 3.003 10.516 20.7 16.51 52.661 19.155 75.67 5.964 24.196-12.793 35.63-42.216 31.034-68.367-6.87-36.116-39.471-60.515-71.908-72.565-36.273-14.177-75.749-17.161-114.284-17.934-2.74-.008-5.54.04-7.9 1.435-2.131 1.097-3.843 2.88-6.122 3.564zm4-1346.5c40.247 15.319 81.405 30.114 121.846 45.295 9.728 3.084 20.756 8.513 29.969 10.278 34.731.505 69.457-.092 104.185.177V894h-117v11.4c1.997 13.34-14.618 19.003-24.516 22.871-17.803 7.391-36.8 11.557-55.728 14.761-19.345 3.759-39.233 3.105-58.756 4.218M1678 1125h106c13.221-19.831 29.964-38.08 44-57.5-9.545-1.283-19.387.117-29-.5v-35h-121zm255 248.5c-84.874-1.426-170.064.26-255-.5v39.526c.203 9.262-.72 18.816 1.723 27.873 3.206 13.692 25.134 12.58 34.89 12.601h101.693c14.398.215 28.802.006 43.165-.933 9.984-.641 20.507-2.053 28.728-8.273 10.609-9.163 17.87-21.712 25.175-33.448 7.417-11.799 12.964-24.657 19.626-36.846" style="fill:#000;fill-rule:evenodd;stroke:none"/></svg>