<svg xmlns="http://www.w3.org/2000/svg" width="3000" height="3000"><path d="M406 2716h2188c-.452-13.213-4.171-26.125-5.71-39.208C2468.846 1960.196 2349.431 1243.585 2230 527c-109.325-35.987-218.457-72.878-327.734-109.071-95.467-31.86-190.966-63.65-286.44-95.486-21.006-7.01-42.008-13.98-63-21l-30.529-10.183c-9.47-3.025-21.252-8.92-30.35-5.086-156.884 52.344-313.79 104.58-470.681 156.897-58.813 19.64-117.642 39.186-176.447 58.829-13.016 4.296-26.007 8.68-39 13-6.335 2.066-12.631 4.23-18.954 6.3-3.19 1.104-6.385 2.128-9.576 3.212-7.976 1.527-8.94 7.943-9.29 14.656-63.894 383.21-127.754 766.408-191.617 1149.624-28.466 171.167-57.103 342.324-85.568 513.49-14.29 85.674-28.582 171.345-42.844 257.017-7.145 42.829-14.299 85.67-21.418 128.502-3.57 21.335-7.128 42.665-10.66 64.002-1.808 10.66-3.57 21.336-5.34 31.998-1.36 10.463-4.53 22.595-4.552 32.299m1219-1064.5c3.587 4.626 1.08 13.313 2 19.73.794 49.22-9.218 98.85-29.455 143.667-28.922 63.606-81.553 112.853-139.51 150.016-58.873 38.641-125.47 63.172-192.035 84.587 3.15 4.73 1.85 12.459 5.5 16.5 96.497-11.242 195.408-26.664 284.782-67.67 64.809-28.79 124.409-73.554 162.388-134.35 28.905-46.525 42.916-100.804 45.838-155.122 1.91-42.793-.557-86.772-14.905-127.555-18.393-57.193-62.868-105.999-120.55-124.72-31.199-9.916-64.584-12.702-97.129-9.716-31.171 2.412-61.183 11.516-90.612 21.53-41.843 13.858-82.279 32.142-124.926 43.513-11.488 2.973-23.348 3.44-35.124 3.064-15.719-.7-28.4-17.772-37.226-28.476-4.209-6.472-8.301-13.017-11.766-19.932-2.218-3.41-3.183-8.496-5.834-10.79-3.548-1.11-8.131.16-11.436.224-8.181 23.53-18.697 51.441-20.267 74.599-3.299 19.633 2.349 39.898 12.249 56.858 13.05 24.897 31.973 46.885 55.093 62.84 11.857 8.078 26.11 13.942 40.63 13.703 14.898.424 28.68-7.095 39.755-16.342 7.07-5.42 13.322-11.747 19.515-18.133 23.012-20.655 43.405-44.16 67.182-63.989 22.837-19.869 46.606-39.836 74.857-51.598 17.01-7.743 39.98-10.46 56.675-6.107 13.878 2.748 26.421 10.924 35.095 21.992 12.281 16.997 19.407 37.212 23.607 57.66 2.39 10.668 3.912 21.491 5.382 32.301.682 5.557.847 11.151 1.307 16.715.675 5.208 1.176 10.301-1.08 15.001m-339-466c9.241 33.233 30.53 62.353 59.232 81.29 13.796 9.877 29.337 16.845 45.456 21.948 16.733 4.745 36.371 11.479 52.312 13.262-.587 5.621-10.052 8.601-13.53 11.802-17.691 11.89-35.562 23.516-53.561 34.91-17.744 11.564-36.544 21.718-53.909 33.788 1.993 3.016 4.12 7.64 5 10.5 50.44-14.362 100.641-30.846 151.663-43.383 40.351-9.93 81.744-14.064 123.165-15.908 15.604-1.019 31.384-.042 46.867-2.488 12.583-1.671 24.812-8.07 31.774-19.02 14.102-21.895.773-44.552-14.945-60.168-24.353-22.075-55.492-37.146-88.176-41.596-8.577-.639-18.856-.693-26.658.499-12.117 2.209-23.599 7.036-35.709 9.232a252 252 0 0 1-38.533 3.543c-3.096-.283-6.338-2.142-10.067-.804-2.945.8-6.951 1.799-9.881-.907-4.29 1.99-8.7 2.16-13.667 1.492-4.295-.459-10.221.352-12.333-2.492-4.357 3.463-12.5-.01-18.708.482-23.114-1.522-46.174-4.915-68.157-12.313-10.502-3.594-20.745-8.246-30.3-13.895-4.96-2.487-9.779-5.231-14.24-8.551-1.843-1.693-5.06-2.925-6.576-4.235-2.236.32-4.792 2.026-6.519 2.512z" style="fill:#fda;fill-rule:evenodd;stroke:none"/><path d="M291 2812.5c402.66 1.426 806.125-.26 1208.95.5 402.946-.76 806.184.926 1209.05-.5-66.691-393.12-131.048-787.321-197.186-1180.681C2447.104 1239.148 2380.056 846.747 2316 454c-136.143-44.935-272.089-90.768-408.181-135.9-102.008-33.974-204.008-68.03-306-102-19.182-6.399-38.38-12.77-57.553-19.171-8.997-3.033-18.01-5.99-27-9-7.928-3.04-16.863-7.25-26.38-2.738-134.51 44.908-269.079 89.643-403.589 134.55C952.797 364.27 818.541 409.675 684 454c-64.117 393.376-131.371 786.397-196.109 1179.703C421.811 2026.161 357.548 2420.573 291 2812.5m116-97.5h2186c-120.11-729.14-243.257-1457.94-364-2187-109.157-35.927-218.092-72.748-327.181-108.9-95.331-31.722-190.626-63.585-285.954-95.3q-31.498-10.534-63-21l-30.566-10.195c-9.852-3-21.422-9.034-30-5.21-156.482 52.2-313.005 104.314-469.48 156.505-58.858 19.6-117.69 39.211-176.522 58.84-12.832 4.262-25.65 8.528-38.47 12.817-6.336 2.128-12.684 4.227-19.008 6.343-5.33 2.846-14.097 3.151-17.405 7.24-66.013 385.799-128.474 772.546-193.688 1158.548C521.372 2030.17 462.67 2372.459 407 2715" style="fill:gray;fill-rule:evenodd;stroke:none"/><path d="M1427 1222.375c1.313 1.294 4.548.31 6 .125-.576-.726-.932-1.572-1-2.5-1.935-.116-3.8.866-5 2.375m25 1c2.087 1.202 6.248.423 8 .125-2.313-3.215-5.867-3.047-8-.125m11 0c3.28 1.166 9.246.459 12 .125-3.392-3.961-8.68-3.245-12-.125M1626.5 1655c.705-2.38.628-6.07 0-8-.919.982-2.243 1.882-3.5 2 .234 2.417 1.795 4.4 3.5 6" style="fill:#f2d3a5;fill-rule:evenodd;stroke:none"/><path d="M1265 2048c1.256 5.939 3.031 14.593 5.5 19 75.068-8.668 150.7-18.823 222.638-43.201 52.17-16.05 101.978-39.626 145.935-72.119 32.669-24.565 61.266-54.547 82.376-89.652 32.83-54.37 45.736-119.054 44.551-181.973.497-62.265-16.137-128.828-59.731-175.29-28.582-33.382-72.099-51.846-114.76-57.792-34.35-4.036-69.895-2.867-103.434 6.118-49.203 12.409-95.975 32.565-143.736 49.29-11.949 3.859-23.928 7.921-36.36 9.965-9.555 1.502-21.151 2.458-29.988 1.154-13.472-4.088-22.598-15.337-31.256-25.619-7.224-10.52-14.932-23.792-18.735-34.881-4.584 1.19-9.316 1.527-14 2-8.31 23.817-18.875 52.159-20.369 75.622-3.248 19.836 2.031 40.192 12.067 57.372 13.236 25.215 32.301 47.54 55.822 63.622 12.121 8.183 26.589 13.858 41.383 13.384 14.942.572 29.012-6.552 40.098-16 7.15-5.361 13.405-11.698 19.601-18.102 23.285-21.174 44.28-44.83 68.405-65.09 23.057-20.263 47.448-40.157 76.174-51.821 16.283-6.243 34.736-9.508 51.98-5.274 15.393 3.103 29.741 12.479 38.178 25.827 17.23 23.792 22.004 59.03 26.18 84.656 5.52 53.348 2.976 108.74-13.725 160.044-21.91 73.06-75.344 132.346-137.41 174.442-63.095 43.101-134.439 72.538-207.384 94.318m19-862.75c6.54 15.722 12.118 32.417 22.67 46.238 13.522 21.083 38.703 38.409 58.667 48.681 24.395 10.779 50.64 17.925 76.663 23.331-39.34 27.93-81.205 52.314-122 78 3.106 3.943 4.361 10.061 7.5 13.5 52.954-17.062 106.46-32.964 160.509-46.229 43.302-10.233 87.937-13.103 132.243-14.727 15.576-.438 35.691.064 48.203-8.322 11.907-6.724 19.586-19.878 18.544-33.628-.03-24.279-20.2-42.499-38.339-55.317-29.43-19.241-66.202-32.737-101.868-26.191-8.693 1.881-17.17 4.53-25.668 7.114-27.564 6.096-56.043 5.502-84.062 4.56-13.913-.617-27.76-2.178-41.616-3.568-20.46-2.426-41.216-5.412-60.137-14.153-9.253-3.454-17.763-8.452-26.402-13.148-4.242-2.403-8.126-5.37-12.25-7.953-4.704-3.667-8.634-1.035-12.657 1.562z" style="fill:#000;fill-rule:evenodd;stroke:none"/></svg>