<svg xmlns="http://www.w3.org/2000/svg" width="3000" height="3000"><path d="M406 2716h2188c-.452-13.213-4.171-26.125-5.71-39.208C2468.846 1960.196 2349.431 1243.585 2230 527c-109.325-35.987-218.457-72.878-327.734-109.071-95.467-31.86-190.966-63.65-286.44-95.486-21.006-7.01-42.008-13.98-63-21l-30.529-10.183c-9.47-3.025-21.252-8.92-30.35-5.086-156.884 52.344-313.79 104.58-470.681 156.897-58.813 19.64-117.642 39.186-176.447 58.829-13.016 4.296-26.007 8.68-39 13-6.335 2.066-12.631 4.23-18.954 6.3-3.19 1.104-6.385 2.128-9.576 3.212-7.976 1.527-8.94 7.943-9.29 14.656-63.894 383.21-127.754 766.408-191.617 1149.624-28.466 171.167-57.103 342.324-85.568 513.49-14.29 85.674-28.582 171.345-42.844 257.017-7.145 42.829-14.299 85.67-21.418 128.502-3.57 21.335-7.128 42.665-10.66 64.002-1.808 10.66-3.57 21.336-5.34 31.998-1.36 10.463-4.53 22.595-4.552 32.299m624.25-1052c52.92-21.792 103.185-49.94 151.945-79.759 71.101-44.407 137.829-96.147 198.28-154.216C1439.918 1371.21 1498.823 1309.163 1539 1235h3c13.073 41.954 29.044 83.377 50.924 121.633 31.421 56.148 72.681 106.287 118.46 151.211 46.631 43.732 98.217 81.971 152.116 116.156 8.239-27.699 19.129-55.68 38.065-78.136 17.884-22.77 42.116-40.714 70.435-47.864.105-4.684.68-9.341 1-14-81.354-24.984-161.292-56.467-235.994-97.454-35.56-19.68-69.192-42.543-100.285-68.745-16.127-13.647-31.767-27.966-45.015-44.5-7.15-7.61-13.346-16.003-19.681-24.275-5.231-8.62-14.353-17.428-16.025-26.026 18.395-3.688 43.901-4.055 50-23-65.117-16.17-130.773-32.448-195.5-50-13.934 52.402-37.271 102.089-65.107 148.491-40.083 68.59-88.966 131.544-140.916 191.46-54.31 60.134-112.988 117.165-178.477 165.049.16 3.376 2.541 6.59 4.25 9m144.75 45h455c-.988 8.424-6.3 15.726-8.698 23.724-23.067 53.94-46.007 107.95-70.712 161.146-23.701 55.346-51.787 108.815-77.59 163.13 11.699 3.99 23.092 9.126 35.138 12.201 37.395 12.248 77.475 13.58 115.862 5.799 5.312-17.184 17.088-32.008 23.071-49.01 27.213-54.148 51.95-109.421 77.557-164.318 12.113-27.764 25.191-55.08 37.106-82.923 3.179-6.934 6.125-13.972 9.151-20.97 2.367-5.154 4.579-10.416 6.979-15.548 1.66-4.137 7.597-4.372 11.308-5.38 11.398-2.814 25.114-8 32.828-15.851-20.56-18.962-43.403-35.955-64.527-54.395-21.818-17.525-43.017-36.416-64.973-53.605-14.119 15.237-27.807 30.86-41.505 46.46-6.482 6.494-11.923 13.932-18.392 20.431-5.712 6.201-17.886 3.386-26.86 4.109H1168c.79 8.689 5.801 16.432 7 25m408.5-270c-15.378 21.588-31.342 42.791-46.745 64.375-6.092 7.843-11.466 16.23-17.605 24.025-2.474 4.063-8.118 3.846-12.343 3.6H1283c1.26 7.533 4.74 16.047 6.448 22.806 1.797 3.63 9.044 1.393 11.94 2.194h257.697c40.972-.148 81.924.18 122.88-.098 8.618-.529 19.993-4.77 20.55-13.542-17.693-19.626-39.911-35.419-59.326-53.396-19.978-16.48-38.605-34.86-59.689-49.964" style="fill:#fda;fill-rule:evenodd;stroke:none"/><path d="M291 2812.5c402.66 1.426 806.125-.26 1208.95.5 402.946-.76 806.184.926 1209.05-.5-66.691-393.12-131.048-787.321-197.186-1180.681C2447.104 1239.148 2380.056 846.747 2316 454c-136.143-44.935-272.089-90.768-408.181-135.9-102.008-33.974-204.008-68.03-306-102-19.182-6.399-38.38-12.77-57.553-19.171-8.997-3.033-18.01-5.99-27-9-7.928-3.04-16.863-7.25-26.38-2.738-134.51 44.908-269.079 89.643-403.589 134.55C952.797 364.27 818.541 409.675 684 454c-64.117 393.376-131.371 786.397-196.109 1179.703C421.811 2026.161 357.548 2420.573 291 2812.5m116-97.5h2186c-120.11-729.14-243.257-1457.94-364-2187-109.157-35.927-218.092-72.748-327.181-108.9-95.331-31.722-190.626-63.585-285.954-95.3q-31.498-10.534-63-21l-30.566-10.195c-9.852-3-21.422-9.034-30-5.21-156.482 52.2-313.005 104.314-469.48 156.505-58.858 19.6-117.69 39.211-176.522 58.84-12.832 4.262-25.65 8.528-38.47 12.817-6.336 2.128-12.684 4.227-19.008 6.343-5.33 2.846-14.097 3.151-17.405 7.24-66.013 385.799-128.474 772.546-193.688 1158.548C521.372 2030.17 462.67 2372.459 407 2715" style="fill:gray;fill-rule:evenodd;stroke:none"/><path d="M1024 1655.375c.65 3.734 4.438 7.58 5 10.625 53.188-21.888 103.826-49.851 152.828-79.89 71.384-44.622 138.59-96.335 199.274-154.712C1441.312 1372.683 1499.1 1309.9 1540.5 1236c14.436 41.717 28.944 83.87 51.66 122.06 31.594 56.253 72.974 106.527 118.972 151.486 46.518 44.134 98.81 81.562 152.368 116.454h1.5c5.654-27.94 21.126-58.905 37.565-79.136 17.884-22.77 42.116-40.714 70.435-47.864l1-16c-81.197-24.945-160.98-56.31-235.552-97.204-71.046-39.595-138-91.378-181.448-161.296 16.495-4.768 41.955-2.886 51-24-.458-.45-.911-.96-1.25-1.5-66.06-15.696-131.802-33.799-197.75-50-12.603 52.737-37.51 101.924-64.607 148.491-40.203 68.73-89.158 131.873-141.293 191.861-54.21 60.707-113.693 117.142-179.1 165.648zm142 28.125c1.993 7.897 5.977 17.852 8 26.5h455c-23.432 58.34-49.24 115.871-74.904 173.265-26.681 58.006-52.914 116.43-83.096 172.735 46.483 24.027 102.757 30.834 154 20 5.312-17.184 17.088-32.008 23.071-49.01 27.298-54.298 52.12-109.742 77.78-164.8 12.164-27.724 25.106-55.12 37.095-82.908 3.192-6.952 6.154-13.995 9.144-21.026 2.48-5.107 4.483-10.446 7.05-15.49 1.52-4.166 8.911-3.835 12.19-5.191 11.78-3.076 23.547-7.728 32.67-16.075-3.596-6.218-11.398-9.312-15.957-14.788-38.694-31.66-76.716-64.25-115.543-95.712-14.431 15.268-28.116 31.223-42.024 46.95-6.506 6.62-12.105 14.019-18.582 20.648-3.426 4.277-7.67 4.84-12.55 4.402H1166zm115-153.25c2.225 4.987 2.792 10.765 4.777 15.91 1.374 3.416 1.736 10.342 5.767 10.485 13.872 1.007 27.915-.179 41.805.355h335.009c12.81-.285 31.868 2.399 36.642-15.75-40.436-34.698-79.598-71.243-121.5-104.25-15.91 21.334-31.417 43.085-47.17 64.549-6.036 8.092-11.72 16.407-17.832 24.43-2.855 4.64-8.21 4.205-12.691 4.021H1281z" style="fill:#000;fill-rule:evenodd;stroke:none"/></svg>