<svg xmlns="http://www.w3.org/2000/svg" width="3000" height="3000"><path d="M284 2851h2432c-121.487-740.419-247.08-1480.379-369.448-2220.7-7.764-46.332-15.399-92.668-23.17-138.991-3.573-21.845-7.323-43.627-10.893-65.46.068-7.194-4.388-8.683-10.108-9.886a956613 956613 0 0 0-250.082-83.358c-145.675-48.555-291.363-97.112-437.033-145.676-27.32-9.133-54.646-18.224-81.967-27.324-6.482-2.2-13.005-4.314-19.48-6.505-6.075-2.091-12.577-5.191-19.07-2.85-99.157 33.038-198.293 66.131-297.45 99.145-148.683 49.577-297.35 99.131-446.033 148.676-18.65 6.245-37.341 12.417-55.983 18.683-5.317 1.028-7.24 3.65-7.69 8.584a987912 987912 0 0 1-63.385 380.363C511.604 1487.534 395.763 2169.106 284 2851" style="fill:#fff;fill-rule:evenodd;stroke:none"/></svg>