<svg xmlns="http://www.w3.org/2000/svg" width="3000" height="3000"><path d="M449 2666.5v1.5h2102v-1.5c-63.81-378.768-126.215-757.87-189.705-1136.696-47.349-283.998-94.654-568.016-142-852-4.398-26.67-8.911-53.338-13.325-80.003-1.118-6.656-2.232-13.342-3.35-19.985-.571-3.586-1.119-7.183-2.096-10.662-1.288-2.958-6.82-3.128-9.193-4.54-101.51-33.828-203.017-67.663-304.512-101.514a746151 746151 0 0 1-266.522-88.84c-39.072-12.89-78.06-26.135-117.144-38.98-4.713-1.335-9.273 1.032-13.839 2.453-144.507 48.104-288.95 96.378-433.449 144.467-54.18 18.08-108.385 36.116-162.566 54.195-23.808 7.923-47.625 15.882-71.434 23.805-5.676 1.96-11.407 3.738-17.06 5.726-6.564 1.113-6.72 8.744-7.34 13.268C740.08 921.349 682.77 1265.54 625.383 1609.692 566.339 1961.663 508.308 2314.864 449 2666.5m616.5-499.5c8.512-3.019 17.36-6.662 22.983-14.37 4.992-7.844 16.007-11.575 24.517-11.63-.95 34.371-1.956 68.755-3.204 103.106-2.41 49.458-7.561 98.889-16.669 147.585-4.205 23.294-11.825 50.174-19.072 70.62-3.626 11.168-8.098 22.044-12.881 32.753-2.371 5.238-4.843 10.422-7.081 15.72-3.602 4.959 1.473 9.588 6.407 11.216 35.78-29.008 68.083-63.004 91.406-103.006 37.755-61.576 53.87-133.128 61.076-204.143 1.606-18.823 2.813-37.63 3.92-56.474.517-14.645.891-29.32 1.121-43.967-.491-6.233 4.535-7.447 9.451-8.423 16.96-5.322 34.035-10.245 50.91-15.82 8.496-2.4 16.743-5.648 25.27-7.935 7.956-1.914 16.813-6.52 24.346-7.232v267.6c-.562 13.257.725 26.654-.487 39.866-1.374 11.215-11.054 12.542-20.05 12.522-14.381-.166-28.665-2.066-43.041-2.003-13.82-1.109-28.37-.086-41.922-2.985-.866 3.033-.265 7.317-.5 11 26.648 2.74 52.97 15.868 67.402 39.18 13.69 24.254 12.668 53.214 16.598 79.82 20.293-2.264 40.563-5.177 60.203-10.939 27.152-7.86 53.766-25.817 62.902-53.99 10.294-30.19 9.186-62.361 8.895-93.718v-296.39c.37-7.89-.48-17.243.329-24.438.005-2.775 3.491-3.922 5.648-4.908 8.988-3.253 18.168-6.047 27.196-9.174 8.855-2.027 18.563-7.393 26.827-8.443v467.4c.788 9.034-1.11 20.297.964 28.36 6.643 2.613 17.045-.171 24.147.652 25.957-.584 53.195-3.331 76.068-16.836 5.208-2.954 10.53-5.79 15.136-9.654 4.362-3.462 4.776-8.115 4.675-12.97.03-15.994-.006-31.97.01-47.952h153v80c19.497.387 39.066.382 58.363-2.872 13.268-2.24 26.17-6.356 38.695-11.204 8.712-3.939 17.656-8.007 24.89-14.448 7.055-6.085 4.636-14.751 5.052-22.934V1853c15.272-1.436 29.085-8.839 39-20.5-36.628-28.367-72.327-58.26-109-86.5-20.006 21.993-38.981 45.215-58.882 67.347-5.652 5.765-16.523 2.759-23.686 3.653H1671c.535-4.266 4.844-6.66 7.17-9.985 21.353-23.184 42.61-46.457 63.414-70.127 5.513-5.763 10.298-12.164 15.84-17.893 3.701-4.649 7.918-8.843 11.813-13.3 2.679-3.76 7.236-4.53 11.61-4.861 11.64-2.096 27.638-7.99 30.153-22.834-36.525-5.682-72.436-15.591-109-21v-3h132.6c13.147.734 26.56-2.464 36.777-11.145 7.193-5.879 11.292-14.356 16.07-22.077 14.019-22.428 26.218-46.086 40.553-68.278-71.257-5.787-143.006-10.98-214.363-16.665-4.774-.353-9.538-.49-14.3-.85-4.757-.053-6.328-4.034-6.564-7.973-4.4-13.947-7.152-31.171-12.188-43.617-6.674-11.916-18.47-14.02-29.96-14.824-34.86-3.996-69.777-7.592-104.625-11.571.112-19.376 3.18-38.612 3-58 99.392-3.677 199.555-2.488 299-5.5-47.184-117.915-94.056-236.104-141.206-354.05-23.33-59.125-47.185-118.04-70.491-177.164-11.686-29.491-23.183-59.055-35.17-88.43-2.648-7.271-7.18-15.647-7.101-22.932-.74-12.389 2.713-27.01 1.514-38.304-.282-2.754-5.22-2.67-7.136-3.444-8.715-2.228-17.588-2.022-26.41-1.176-1.204 9.027.35 23.107-5.413 28.897-99.832 100.233-201.248 200.476-282.294 317.173-40.165 57.176-74.056 118.892-99.347 184.067-13.868 33.64-24.306 68.503-34.106 103.5-4.557 17.683-9.88 35.191-13.544 53.089-2.4 8.74-4.298 17.565-6.105 26.434-1.066 8.681-5.023 18.498-4.691 25.84 62.075-22.803 126.478-40.722 192.142-49.85 68.393-9.897 137.818-8.785 206.358-1.15-1.708 18.953-2.47 38.02-4 57-19.15-1.58-38.217-4.16-57.326-6.078-16.706-1.39-36.2-4.79-51.598-4.907-15.796.487-31.57 1.348-47.358 1.937-7.078.285-14.133.478-21.198.73-23.905-2.507-41.512 23.353-49.825 41.926-2.16 3.787-3.615 7.919-5.405 11.86-1.59 4.424-7.617 3.516-11.454 3.185-64.962-4.598-129.839-10.66-194.836-14.653 7.257 39.287 19.065 78.589 40.525 112.65 10.868 15.886 26.379 33.163 42.129 41.724 18.214 11.816 40.397 13.216 61.346 12.626-2.018 38.651-2.983 77.354-5 116-32.862-9.657-65.065-22.967-97.5-34-1.426 98.875.26 198.06-.5 297-20.676.47-41.329 1.076-62 1 2.005 22.424 4.644 44.837 6.833 67.255 1.016 10.96 2.487 21.853 3.426 32.816.638 5.582 1.129 11.198 1.78 16.776.943 5.099.183 11.818 2.461 16.153m803.5-585c-250.771-16.978-501.218-40.294-752-57 1.219 12.296 8.979 25.406 12.51 35.957 7.695 16.47 17.814 31.911 31.728 43.692 6.68 5.644 16.073 10.635 23.768 12.869 10.357 2.475 21.178.984 31.713 1.482h618.321c4.816-.022 10.435.636 14.27-2.957 4.996-4.634 7.655-11.124 11.395-16.672 2.746-5.494 8.011-11.476 8.295-17.371m-707-184c12.897-1.669 24.445-8.84 37.06-11.585 90.995-28.519 187.32-35.416 281.94-28.415-5.552-88.642-11.372-177.688-5.247-266.558 2.453-85.654 16.924-170.253 31.247-254.442-4.727.578-8.362 6.695-12.475 9.975-57.571 58.536-112.63 119.7-162.055 185.39-23.98 32.124-47.005 65.035-67.04 99.769-20.724 35.105-39.287 71.556-54.68 109.327-21.558 50.264-37.142 103.198-48.75 156.539m57 428c3.191-.233 6.155-1.513 9.178-2.468 38.483 15.088 77.158 40.855 96.822 78.468h3v-98h-109zm0 201c36.28-2.612 72.71-4.269 109-7v-45h-2c-6.58 7.43-12.504 15.968-21.65 20.712-14.93 9.113-35.295 9.669-49.354-1.534-4.994-4.222-9.552-9.044-12.93-14.651-3.151-5.46-1.046-12.183-1.191-18.088 1.144-43.033-1.663-87.338-18.875-127.439h-3zm17 316c19.644.27 40.073-1.889 57.022-12.989 3.899-2.066 8.963-4.754 10.354-8.838 1.727-15.737-.27-31.829.624-47.633V2137c7.552-1.228 15.282-5.953 17-14-28.34-2.396-56.673-5.541-85-8zm8-565.5v1.5h77c14.114-19.215 32.667-36.096 47.5-55 33.417 26.678 68.213 51.656 101.5 78.5-3.664 6.822-14.71 11.065-19.993 13.625-3.53 1.809-8.598 2.094-11.168 4.296-1.653 7.609-.305 15.771-.839 23.523V2011c20.045-.23 39.948-3.733 60-4v-239c40.5 13.877 80.269 30.892 121 44 3.853-52.525 6.433-105.332 8-158h-311v3c21.582 2.623 42.68 8.669 64.15 11.989 5.202.747 2.712 6.022.921 8.329-3.938 6.377-10.885 10.024-17.811 12.092-5.596 2.389-14.211 1.993-18.422 4.812-33.268 27.547-66.112 56.13-100.838 81.778zm214.012-293.616c-.634 12.07 9.955 22.547 21.707 21.09 11.198.055 19.238-11.65 18.27-22.024.601-10.792-8.48-20.763-19.352-20.754-11.283-.362-21.133 10.39-20.625 21.688M1515 1354h3c13.458-194.325 26.498-388.681 40-583h-3c-18.66 93.43-34.88 187.65-41.666 282.802-3.829 50.041-5.64 100.23-5.14 150.367.012 50.057 4.168 99.92 6.806 149.831m27.341 139.442c-.342 12.092 10.274 22.589 22.37 20.31 11.375-1.458 15.958-13.266 15.268-22.291.15-9.898-8.815-19.773-18.924-19.255-12.325.482-18.322 10.731-18.714 21.236M1552 1364c81.667-1.045 163.324-3.063 245-4-32.593-87.536-69.293-173.908-102.868-261.144-33.86-87.138-69.756-173.563-103.132-260.856h-3c-12.435 175.246-23.955 350.744-36 526m67 730h153v-253h-153zm0 308h153v-284h-153zm2.26-901.037c.469 9.666 7.203 21.404 20.349 18.631 9.885-2.485 13.92-11.41 13.37-20.178.358-9.227-7.619-18.048-16.967-17.368-10.711-.5-16.717 10.326-16.752 18.915" style="fill:#feffed;fill-rule:evenodd;stroke:none"/><path d="M1064 2168c9.435-1.125 18.169-6.109 24.473-13.172 2.994-3.39 5.134-7.985 9.745-9.285 4.447-1.168 9.538-3.28 13.782-3.543-1.17 33.387-1.78 66.782-3.164 100.148-3.781 93.789-16.87 189.397-58.836 274.443 3.575 2.364 7.23 5.912 10.5 7.409 35.196-29.45 68.422-62.482 91.556-102.615 38.234-61.152 54.177-132.589 61.774-203.35a1693 1693 0 0 0 3.92-56.36c.697-14.644.908-29.293 1.247-43.933.166-2.417-.175-5.543 1-7.54 34.984-12.473 71.788-21.938 107.003-34.202v265.8c-.57 13.271.743 26.676-.519 39.901-1.606 11.392-11.69 12.41-20.774 12.256-28.184-2.175-56.634-1.522-84.707-4.957v13c26.648 2.74 52.97 15.868 67.402 39.18 13.69 24.254 12.668 53.214 16.598 79.82 19.287-1.408 38.434-4.689 57.151-9.536 26.336-6.72 52.59-22.054 64.783-47.477 12.191-27.581 12.072-58.387 12.066-87.835v-304.789c.007-8.613-.009-17.201.005-25.803-.764-7.135 4.874-9.233 10.615-10.602 15.958-4.826 31.522-10.946 47.38-15.958v483.6c.558 4.133-1.085 10.183 1.753 12.956 30.48.536 62.855.54 91.445-11.827 6.45-2.846 12.455-6.582 18.545-10.093 4.211-2.51 9.492-6.211 10.622-10.822 1.726-18.167-.244-36.589.635-54.814h151v80c19.8.431 39.641.385 59.249-2.697 13.673-2.141 26.937-6.39 39.81-11.379 8.657-3.814 18.868-8.82 25.29-14.829 6.418-5.263 4.383-16.013 4.651-23.152V1854c15.844-1.417 29.805-9.479 40-21.5-37.331-29.147-73.892-59.833-111.5-88.5-19.336 22.55-39.14 44.731-58.4 67.352-5.122 6.479-15.724 4.358-22.918 4.648-24.965-.759-50.334.926-75.182-.5 23.205-24.436 45.412-49.776 67.904-74.855 11.898-11.802 21.472-25.87 33.824-37.213 14.706-3.435 34.582-5.082 39.272-26.432-36.814-6.036-73.287-14.833-110-21.5 25.46-1.405 51.052.239 76.54-.5h57.45c13.227.755 26.643-3.177 36.574-12.175 12.583-12.937 18.91-30.67 29.178-45.276 9.45-15.117 17.63-31.057 27.258-46.049-71.661-5.596-143.652-11.087-215.383-16.666-4.785-.356-9.585-.492-14.365-.851-4.615.154-6.254-4.361-6.48-7.973-4.398-13.943-7.152-31.171-12.187-43.615-6.674-11.916-18.47-14.02-29.96-14.824-34.86-3.996-69.777-7.592-104.625-11.571.274-18.688 3.253-37.28 3-56 99.73-3.654 200.224-2.513 300-5.5-47.863-118.026-94.198-236.97-141.857-355.145-23.399-59.434-47.44-118.64-70.84-178.069-11.73-29.698-23.372-59.427-35.381-89.005-2.84-7.259-7.171-15.769-6.892-23.114-.56-12.392 3.318-27.322 1.216-38.576-9.58-5.632-26.591-3.795-35.246-3.591-1.204 9.027.35 23.107-5.413 28.897C1455.54 836.38 1353.861 936.875 1272.7 1053.91c-40.213 57.418-74.153 119.348-99.397 184.804-26.817 67.877-43.97 139.128-59.303 210.286 62.605-22.395 126.743-41.528 192.854-50.476 68.635-10.154 138.342-9.387 207.146-1.524-2.27 18.215-2.039 36.738-4 55-19.233-2.26-38.555-3.977-57.781-6.35-17.036-1.424-33.99-4.584-51.098-4.63-15.805.482-31.616 1.305-47.4 1.94-7.054.282-14.088.47-21.132.717-24.389-2.572-41.956 24.05-50.38 42.87-2.15 3.77-3.424 7.992-5.425 11.817-1.469 4.216-8.953 1.794-11.95 2.025-64.64-5.282-129.908-9.41-194.334-15.389 5.681 32.322 14.301 65.353 29.392 94.874 13.893 28.57 35.426 55.893 65.608 68.318 15.632 6.792 32.762 7.293 49.5 6.808-2.403 37.955-2.763 76.036-5 114-16.229-5.736-32.575-11.576-48.883-17.166-16.406-5.372-32.424-12.448-49.117-16.834v297c-20.676.47-41.328 1.076-62 1a6693 6693 0 0 0 14 135m804-585c-250.11-17.144-499.89-39.856-750-57 6.784 25.554 18.874 50.402 36.205 70.51 9.49 8.687 19.868 17.505 32.915 20.289 14.976 2.688 30.489.115 45.592 1.201h600.328c4.73-.214 10.365.822 14.429-2.272 5.224-4.222 7.962-10.609 11.463-16.135 2.721-5.407 7.498-11.228 9.068-16.593m-705-187.25c.12.7.418 1.139 1.25 1.25 100.28-37.684 209.518-48.04 315.75-40-6.03-88.44-10.908-177.326-5.284-266.006 1.644-42.703 6.186-85.243 11.127-127.648 2.67-21.244 5.99-42.414 9.127-63.587 2.182-20.65 9.155-41.161 10.53-61.759-78.371 78.007-151.425 161.938-213.53 253.614-29.346 46.42-57.194 94.075-77.861 145.126-11.279 25.566-20.475 51.885-29.01 78.445-9.269 26.02-14.773 54.385-22.099 80.565m57 429.25c2.58-.654 5.83-2.354 8.5-4 18.606 9.77 38.31 18.242 54.976 31.415 17.328 13.107 32.782 29.25 43.024 48.585 1.426-31.873-.26-64.066.5-96h-107zm0 201h1.5c34.986-2.96 70.428-4.32 105.5-7-.687-14.234.854-28.889-.5-43-9.783 15.353-25.696 26.695-44.305 27.669-9.31.372-18.88-1.911-26.526-7.286-7.834-4.813-12.301-12.871-17.669-19.883 3.472-11.598 1.04-24.765 2-36.744.325-18.331-1.462-36.574-4.634-54.62-3.132-17.042-7.114-34.587-14.866-50.136-1.426 63.329.26 127.505-.5 191m15 318c20.138.489 41.186-1.495 58.628-12.78 4.161-2.224 9.456-4.955 10.748-9.047 1.733-16.135-.277-32.63.624-48.832V2138c7.065-1.229 16.717-6.065 17-16-29.033-1.997-57.959-6.152-87-8zm10-566.75c11.717 2.05 24.89-.3 36.917.75H1320c14.516-19.494 33.144-36.927 48.5-56 34.43 27.262 69.742 53.725 104.5 80.5-5.588 5.977-12.356 10.728-19.934 13.838-3.734 1.577-7.708 2.576-11.486 3.998-3.625 1.079-2.049 7.694-2.58 10.243V2010c19.382-.437 38.617-3.662 58-4 .76-79.929-.926-160.151.5-240 39.506 16.04 80.421 29.186 120 45 2.207-6.061 1.17-12.883 2.013-19.183 1.967-45.627 5.618-91.142 6.487-136.817-102.968.76-206.08-.926-309 .5 22.937 4.814 46.11 8.55 69 13.5-3.79 17.33-19.984 22.624-35.455 24.195-5.072.569-9.273 6.758-13.897 9.914-30.125 25.155-60.285 50.568-91.648 74.141m214.059-293.478c-.191 11.318 9.921 21.536 21.028 20.136 10.264-.69 17.664-11.757 16.856-21.37-.035-9.933-8.713-19.164-18.75-19.224-10.36-.102-19.52 11.127-19.134 20.457M1516.5 1353c8.024-96.862 13.196-194.013 20.459-290.942 6.121-96.64 13.81-193.48 19.541-290.058-19.994 92.998-34.59 187.411-42.116 282.247-9.394 99.391-5.14 199.386 2.116 298.753m26.968 140.49c.215 12.608 13.633 24.026 25.02 17.701 9.6-4.69 11.944-14.984 9.853-23.876-2.88-7.97-10.44-16.792-21.614-13.187-9.131 2.945-12.596 11.078-13.259 19.362M1553 1363c80.93-1.921 162.142-2.048 243-4.5-35.042-86.231-68.415-173.282-103.233-259.624-34.497-86.58-68.71-173.357-103.267-259.876-5.035 43.26-5.707 87.389-9.588 130.841-9.562 130.984-17.582 262.194-26.912 393.159m67 730h151v-251h-151zm0 308h151v-282h-151zm2.442-899.943c.235 8.884 8.103 20.604 19.265 17.25 8.176-2.42 13.071-10.992 12.216-19.262-.303-8.14-7.402-16.164-15.748-15.943-9.264.049-15.74 9.332-15.733 17.955" style="fill:#676767;fill-rule:evenodd;stroke:none"/></svg>