<svg xmlns="http://www.w3.org/2000/svg" width="3000" height="3000"><path d="M407 2715h2186c-120.11-729.14-243.257-1457.94-364-2187-121.653-40.09-243.099-81.112-364.7-121.395-91.164-30.407-182.32-60.766-273.474-91.162a32206 32206 0 0 1-51.529-17.183c-8.003-2.659-16.01-5.346-24-8-7.038-2.654-14.998-6.446-23.453-2.372-120.19 40.07-240.392 80.12-360.578 120.183C1011.124 447.878 891.186 488.387 771 528c-120.737 729.033-243.897 1457.913-364 2187m625.344-1388c30.618-15.294 59.528-34.349 87.595-53.896 14.033-9.774 27.39-20.473 40.647-31.242 6.757-5.483 13.085-11.42 19.766-16.97 3.356-2.863 6.246-6.246 9.633-9.062 3.209-2.211 6.297-6.357 10.015-6.83-.15 61.897-1.458 124.299-13.353 185.25-3.338 13.81-7.271 27.853-14.765 40.096-11.26 23.343-40.7 17.7-60.982 17.394-22.964-1.416-45.873-3.633-68.9-3.74.459 3.095-.863 8.934 2.704 9.776 3.536 1.528 7.409 2.18 10.987 3.619 23.65 6.842 48.88 25.626 58.226 46.556 10.269 26.681 9.954 55.98 11.083 84.049 26.443.057 53.318-2.044 78.684-10.043 18.21-5.02 34.975-14.843 49.039-27.215 38.514-41.982 54-99.236 62.967-153.864 10.282-62.691 12.398-126.54 10.87-189.956-3.005-90.72-12.916-182.89-46.208-268.07-7.9-20.293-17.126-40.095-28.372-58.755-1.835-3.51-4.76-7.314-5.96-10.763-1.774-3.441 3.564-6.93 5.35-9.204 19.714-21.083 39.834-41.868 57.772-64.544 9.631-10.282 17.256-22.38 26.8-32.675 2.696-2.294 7.147-.936 10.914-.987 9.973.192 23.643-3.15 26.144-13.924-50.293-26.169-98.815-56.642-149-83-5.637 23.322-15.808 45.357-24.288 67.72-7.135 16.4-13.65 33.3-22.064 49.064-1.76 3.972-6.275-1.016-7.895-2.495-18.787-16.814-38.887-31.994-59.844-46-10.521-6.349-20.694-13.226-31.455-19.163-5.186-2.866-10.241-5.976-15.517-8.673-2.759-1.583-5.464-3.182-8.558-3.956-3.007.793-4.518 3.77-7.379 5.003 21.625 24.158 43.903 47.948 61.109 75.674 13.254 20.317 26.083 41.346 35.313 63.823.555 4.323-3.122 8.57-4.59 12.087-16.493 29.338-33.409 58.505-52.536 86.202-9.68 13.891-19.272 27.83-29.93 41-5.26 6.58-10.427 13.25-15.878 19.674-2.562 3.221-5.945 6.707-8.11 9.8-3.126 3.022 3.416 7.877 4.122 10.24 24.178-13.553 48.295-27.458 71.047-43.349 11.685-7.803 23.034-16.032 34.119-24.648 5.735-4.175 11.31-8.529 16.818-12.986 5.033-3.488 11.105-10.703 16.516-11.017 3.487 18.276 11.077 36.885 5.562 55.603-12.165 62.46-33.516 122.818-59.831 180.589-13.11 27.998-28.059 55.085-44.401 81.315-8.264 12.704-16.778 25.255-25.693 37.51-4.298 6.174-9.022 12.055-13.633 17.98-2.276 2.96-4.775 5.767-6.952 8.799-2.652 2.98-.096 6.065 2.292 8.204M1034 2559.625c1.98 1.36 5.029 4.294 7.154 3.659 2.986-.809 5.22-2.981 7.594-4.868 28.246-22.945 54.51-48.43 76.385-77.613 21.512-28.68 39.765-59.933 54.324-92.709 15.857-33.943 26.971-69.834 34.847-106.391 8.222-37.729 15.054-76.056 16.696-114.703h3c16.749 37.923 38.256 74.069 55 112 6.306-.663 13.372-6.404 17.092-9.622 4.512-3.7 6.975-11.122 11.064-12.994 45.25-16.777 90.75-32.871 135.676-50.5 21.52-8.285 42.868-17.028 64.3-25.528 10.784-4.302 21.51-8.662 32.165-13.265 10.45-3.172 21.687-10.737 31.703-12.091-.27 12.86.392 25.762 3.161 38.36 2.736 17.353 13.47 33.586 30.553 39.713 17.324 7.298 36.304 8.593 54.782 10.004 30.64 1.551 61.348.602 92.015.923 44.918-.822 90.364.041 134.834-7.4 17.416-3.317 41.763-10.805 48.627-33.622 2.695-9.74 3.121-20.877-1.989-29.944-4.415-9.044-13.556-14.327-22.008-19.02-3.641-2.388-9.663-3.988-12.29-6.522-3.376-14.142-1.585-29.274-4.685-43.492-6.09-.872-9.62 2.413-11.796 7.523-2.655 4.47-5.793 8.625-8.547 13.018-8.592 13.352-21.04 28.883-41.22 29.736-30.532 1.92-61.23-.233-91.787.723h-23.334c-9.394-.065-24.914 1.55-26.692-9.774-1.345-10.997-.11-22.184-.624-33.226 36.176-3.375 72.394-7.057 108.268-12.966 18.263-2.778 36.328-6.704 54.379-10.494 4.397-.895 8.66-2.35 13.08-3.063 6.443-.556 12.554 3.04 19.01 3.086 6.61.995 12.982-2.173 17.263-7.063-15.084-12.18-30.83-23.585-45.975-35.685-7.791-5.917-15.524-11.921-23.31-17.823-3.688-3.036-7.584-5.795-11.265-8.834-3.47-2.986-9.149-5.763-9.45-10.158 19.884-3.345 42.292-12.135 59.285-19.143 4.42-2.386 11.191-4.894 11.511-9.823.581-17.347-.105-34.743.204-52.1V1899c7.426-.45 14.3-3.734 20.837-6.932 5.408-3.689 14.311-7.29 16.163-13.068-10.539-5.712-19.432-15.001-29.646-21.443-17.168-12.817-34.47-25.442-51.524-38.405a2481 2481 0 0 0-19.476-14.595c-5.122-3.415-11.26-11.627-17.025-4.286-7.971 9.622-17.234 18.047-25.24 27.617-6.055 6.714-13.486 14.265-18.946 20.505-4.597 7.147-13.993 5.877-20.26 5.607H1678v-73h228.6c9.366-.361 18.877.64 28.168-.84 6.086-1.108 14.191-3.375 17.136-10.844 1.526-2.977-2.266-6.113-4.037-7.862-34.776-31.95-71.417-61.839-107.367-92.454-13.122 18.8-27.16 37.189-40.276 56.045-5.252 6.828-9.943 14.014-15.15 20.868-2.28 2.858-4.494 6.678-7.05 8.884-6.625 2.576-16.856.231-23.918 1.203H1582v-80c12.808-2.75 31.825-7.684 34-25-54.492-5.392-109.424-8.138-164-13v118h-187.2c-7.397.68-14.21-1.924-20.96-4.554-45.816-14.837-90.99-31.759-136.84-46.446-1.064 149.528 1.558 299.1-1.482 448.593-1.657 70.678-5.108 141.501-16.506 211.397-9.743 66.674-26.736 133.474-55.012 194.635m137-33.125c2.08 8.514 5.272 16.897 7 25.5h707.4c18.805-.686 41.111 1.174 58.233-1.462 6.139-1.247 12.583-4.508 15.273-10.505 2.117-2.016-2.155-4.972-3.33-6.15-31.876-25.498-66.483-47.41-99.076-71.883-14.939 15.703-28.135 33.002-42.788 48.956-5.507 5.69-10.925 15.192-18.327 15.028-64.465.045-128.934-.008-193.385.016v-84h245.4c7.234.065 14.831.09 21.553-3.056 4.552-1.737 12.757-8.305 8.018-12.947-32.105-26.44-67.268-49.064-100.471-73.997-17.601 21.863-38.527 41.874-55.5 64h-119v-72h239.4c19.79-.709 39.728.946 59.478-.712 6.49-.636 13.38-2.674 17.695-7.931 4.634-6.042-1.883-9.65-6.033-12.7-30.306-24.28-63.001-45.425-94.04-68.657-12.977 13.666-25.011 28.228-37.473 42.352-4.778 5.381-9.61 10.719-14.284 16.188-4.728 6.545-11.401 5.838-18.178 5.46H1602v-36c13.457-.21 28.059-7.977 31-22-53.407-3.281-106.579-9.98-160-13v71c-81.607.76-163.478-.926-245 .5 2.221 3.671 2.582 9.8 4.57 14.482 1.553 3.216 1.586 10.167 5.448 10.568 34.784 1.282 69.803-.233 104.624.45H1473v72h-223c1.463 8.853 4.98 17.296 7 26h216v84h-302zm61-363.5c20.972-1.19 42.015-1.95 63-3v-163c48.695 3.487 97.298 8.507 146 12-.57 6.847-7.066 13.16-12.426 15.505-3.845 2.63-11.427 2.245-13.323 6.032-1.762 3.189.336 8.386-.256 12.501.152 13.02-.14 25.999.005 38.962 10.761-.371 21.62.458 32.36-.26 3.475-.393 5.28-3.667 7.279-6.255 14.565-19.199 29.102-38.456 43.861-57.485 13.5 11.671 27.99 22.216 41.276 34.158 6.856 5.78 13.913 11.357 20.462 17.491 6.711 4.506 13.826 14.947 20.762 16.351v-86c49.363 3.134 98.63 7.865 148 11-2.893 14.81-16.07 19.614-29 22v51h2c36.614-20.224 70.778-45.322 105-69v-3h-34v-28h-536c.03 59.674-.94 119.506-5 179m5-309h88.8c5.99-.422 16.593 2.605 16.191-7 .025-21.998-.004-44.004.009-66h-105zm0 105h92.4c3.723-.359 8.455.626 11.353-.96 2.506-6.432.403-12.926 1.247-19.709V1879h-105zm43-428.5c2.08 8.514 5.272 16.897 7 25.5h618c14.805-.016 29.632.02 44.433-.01 11.555-.585 27.221.585 33.567-14.49-22.603-33.093-49.641-62.976-75.5-93.5-9.48 17.895-19.567 35.85-28.5 54h-3v-249c11.33-1.335 22.81-4.103 32.875-9.643 3.27-2.275 12.201-6.767 5.794-11.135-4.327-3.146-8.775-6.135-13.153-9.206-10.064-6.697-19.798-13.83-29.812-20.593-24.03-17.071-48.71-33.348-72.704-50.423-11.851 13.734-22.278 28.964-33.756 43.055-5.212 6.158-9.588 13.054-15.121 18.924-3 2.81-8.343 1.756-12.071 2.021h-201.568c-16.79-.225-33.591.275-50.375-.149-11.046-2.128-21.12-8.03-31.825-11.327-30.049-12.265-60.975-22.816-90.784-35.524-1.426 120.21.26 240.72-.5 361h-83zm52-573.5h229v85.8c-.402 6.111 1.065 14.248-2.334 18.688-3.607 5.003-10.102 4.468-15.061 4.512-39.617.048-79.024-4.983-118.605-6 .554 3.334-1.073 9.324 2.395 10.607 3.557.87 7.191 1.677 10.798 2.362 27.43 4.45 54.603 16.124 72.127 38.515 9.065 11.168 13.159 25.323 15.704 39.165 2.827 14.319 4.574 28.848 5.976 43.351 27.697-3.339 55.849-5.568 82.59-14.318 18.753-5.538 40.03-16.076 52.512-29.284 11.311-10.696 17.48-25.446 21.56-40.13 7.196-24.667 6.68-50.473 6.338-75.842V957h211.8c11.65-.127 23.324.312 34.95-.553 9.104-.467 21.874-2.709 25.25-13.994-39.35-32.077-78.584-64.405-119.5-94.453-11.724 13.315-21.971 27.96-33.403 41.534-10.084 14.119-22.889 26.873-32.097 41.466h-87v-57c12.046-1.228 30.023-5.962 32-22-2.296-.615-4.628-.993-7-1v-3c15.687-3.277 30.414-10.339 45.66-15.103 22.243-8.182 43.959-17.619 65.452-27.568 11.103-4.174 22.765-12.891 33.413-15.436 11.422-2.602 26.544-2.433 33.475-12.393-20.635-17.322-41.41-34.488-62.194-51.637-10.405-8.665-20.747-17.396-31.197-25.988-10.539-7.91-19.929-17.981-31.109-24.875-20.556 23.098-42.855 44.646-64.102 67.102-4.62 5.724-10.551 5.289-16.86 4.898H1396c2.366 7.788 4.664 17.529 8.274 24.074 9.198 2.048 19.107.113 28.476.926H1703c-4.488 12.943-14.905 26.383-20.45 37.642-5.776 9.215-11.636 18.324-17.846 27.253-2.324 2.753-5.24 8.705-8.75 8.649-31.612-2.287-63.356-4.731-94.954-7.544v93h-236c.896 8.961 5.213 17.233 7 26m249 1183v-36c-5.939.867-12.052 3.961-19.325 3.604-48.877 1.13-97.79-.205-146.675.396-1.2 6.505.174 12.995-.176 19.666-.16 4.666-.37 10.168-.367 14.457.71 2.923-1.411 8.42 1.871 9.435 11.134 1.013 22.36-1.97 33.52-1.645 43.7-3.611 87.482-6.032 131.152-9.913m-124-286h104v-73h-104zm0 105h104v-80h-104zm19-429h33v-288h-33zm120 0h39v-288h-39zm82 429h95v-80h-95zm47-429h34v-288h-34z" style="fill:#fedda9;fill-rule:evenodd;stroke:none"/><path d="M1026 1321.5c.941 2.706 4.43 4.921 6.5 7.5 59.95-32.396 116.79-71.624 166-119 1.758 31.405-.899 63.193-1.978 94.623-1.234 22.093-3.143 44.182-6.79 66.015-2.79 16.608-5.51 33.44-12.212 49.025-4.577 10.208-9.341 22.14-20.045 27.556-8.975 4.817-19.42 3.839-29.191 3.781-29.132.092-58.133-4.3-87.284-4 .196 4.256-1.284 10.77 4.235 12.434 4.183 1.266 8.36 2.476 12.467 3.968 23.095 7.18 47.244 26.327 55.866 47.066 9.472 26.362 9.4 54.963 10.432 82.532 26.912.062 54.292-1.773 80.15-9.883 18.388-5.047 35.381-14.856 49.573-27.375 39.131-42.583 54.305-100.796 63.344-156.17 14.366-92.517 13.2-186.87 4.766-279.863-8.942-86.438-28.814-173.833-75.833-248.209 21.254-21.716 41.533-44.376 61.326-67.408 9.526-11.5 19.057-22.977 28.139-34.831 2.387-3.134 6.385-2.61 10.92-2.28 11.373.556 24.476-3.092 28.615-14.313-49.238-29.902-101.125-55.948-150.5-85.668-14.683 40.22-29.204 81.785-49 120-36.117-33.84-78.17-61.376-122.036-84-2.485 2.883-5.491 5.186-8.464 7.5 21.822 24.147 44.176 48.05 61.554 75.808 13.464 20.17 25.88 41.323 35.494 63.608 1.11 3.778-3.546 8.404-5.03 12.538-16.519 29.467-33.447 58.843-52.914 86.485-9.533 13.968-19.38 27.734-29.972 40.92-5.162 6.62-11.415 14.257-16.42 20.097-2.407 3.194-6.467 6.98-7.709 10.033-1.878 3.45 5.19 6.797 4.997 10.011 50.594-22.743 94.83-59.348 139-92 3.32 17.84 10.868 35.939 5.426 54.158-11.977 61.15-32.666 120.347-58.396 176.952-24.954 54.528-56.925 106.145-95.03 152.39m206.5 846.5c17.99 37.535 38.075 74.248 55.5 112 6.591-.137 13.525-4.833 17.95-8.527a36.7 36.7 0 0 0 6.086-7.089c2.435-5.804 7.231-8.486 13.28-9.66 85.843-30.367 170.637-63.8 254.684-98.724-.27 12.86.392 25.762 3.161 38.36 2.736 17.353 13.47 33.586 30.553 39.713 17.324 7.298 36.304 8.593 54.782 10.004 30.649 1.551 61.36.602 92.022.923 44.562-.718 89.566.106 133.731-6.889 19.891-2.794 42.963-11.315 50.912-31.678 3.22-9.42 4.057-22.065.631-30.709-3.53-9.678-11.436-16.323-20.432-20.788-4.132-2.7-8.778-4.435-13.146-6.649-3.7-1.402-3.277-6.791-3.793-10.041-1.649-11.324-1.509-24.93-3.421-35.246-3.31.145-7.49-.646-10.366 2.381-5.955 8.083-10.465 17.174-16.886 24.949-5.496 6.391-10.662 13.466-17.916 18.037-14.46 7.072-31.272 5.2-46.76 5.633h-75.982c-10.932-.911-26.9 2.633-33.776-5.602-3.335-5.225-1.776-12.107-2.314-17.453V2113c36.36-3.364 72.745-7.138 108.802-13.036 18.256-2.821 36.279-6.72 54.326-10.534 4.313-.85 9.253-2.582 13.282-2.925 11.75 1.626 25.764 8.733 36.59-5.005-29.71-24.395-61.312-46.59-91-71 12.38-3.015 24.92-6.4 36.978-10.704 8.726-3.457 17.699-6.352 25.992-10.816 9.537-3.814 8.616-10.916 8.03-18.672V1900c13.8-1.802 29.764-10.335 38-20-18.432-15.39-38.786-28.798-57.774-43.545-9.739-7.393-19.57-14.698-29.342-22.035-9.646-5.875-19.158-15.976-28.54-20.42-17.783 18.317-34.137 37.906-51.887 56.248-4.177 4.732-13.993 1.69-20.543 2.752H1679v-71h215.4c12.038-.181 24.05.227 36.07-.138 9.318-.232 21.043-3.79 24.53-15.409-36.625-34.865-76.19-66.493-114.5-99.453-13.77 18.39-26.977 37.231-40.44 55.846-5.167 6.843-10.046 13.882-15.06 20.82-2.351 2.847-4.645 6.552-6.836 9.117-2.628 2.922-7.688 2.03-11.261 2.217H1583v-78c7.867-1.646 15.667-3.85 22.654-7.931 8.13-4.123 9.656-11.463 12.346-18.569-6.8-2.145-14.389-1.356-21.417-2.397-48.527-3.67-97.04-7.626-145.583-11.103v118h-187.8c-7.31.09-14.006-3.429-20.909-5.398-22.619-8.141-45.6-15.267-68.226-23.36-11.395-4.013-22.935-7.535-34.321-11.546-10.846-3.407-23.451-8.935-33.744-10.696v357c-1.139 85.617-1.89 171.572-11.863 256.706-6.432 61.41-17.927 122.39-37.538 180.993-5.931 20.754-16.336 40.772-23.099 60.934 1.28 4.13 7.206 6.661 10.341 4.32 58.892-44.592 105.189-104.381 135.266-171.724 31.532-70.502 47.354-147.52 53.393-224.229m-55.5 385h746.4c13.073.275 32.219.666 38.6-15.5-24.388-20.599-51.186-38.157-77.153-56.648-4.99-3.503-9.927-7.108-14.892-10.628-4.324-2.23-8.374-7.025-13.837-8.726-4.764 2.637-7.287 7.092-11.019 11.021-13.214 15.109-26.126 30.47-39.44 45.489-5.405 8.53-13.633 7.584-22.065 6.992H1603v-82h217.2c12.017-.108 24.023.134 36.024-.077 10.478.136 21.748-4.775 24.776-15.525-27.364-22.671-56.868-42.578-85.712-63.261-3.698-2.536-7.149-5.4-10.87-7.883-2.938-1.263-7.305-6.467-9.848-3.7-9.906 9.849-18.439 21.117-27.977 31.335-4.834 5.107-9.13 10.693-13.908 15.84-2.483 2.454-4.767 5.059-6.93 7.79-1.873 2.412-4.97 4.727-5.755 7.481h-117v-70h248.4c13.81-.049 27.641.06 41.439-.032 11.06-.346 25.256-.875 30.161-15.468-22.173-18.904-46.41-35.265-69.932-52.387-8.939-6.138-17.715-12.466-26.53-18.762-3.53-2.246-7.707-6.792-11.601-2.67-12.505 13.525-24.345 27.675-36.574 41.445-4.829 5.097-9.096 10.704-13.893 15.813-4.152 5.396-12.774 3.996-18.681 4.061H1603v-34c12.637-.564 30.156-7.687 31-24-53.705-4.612-108.007-8.527-161.5-14-1.422 23.88.256 48.063-.5 72h-245v1.5c1.787 5.323 3.138 10.794 4.77 16.16 1.4 4.071 1.722 9.928 6.309 10.11 13.912.653 27.91-.116 41.837.23H1472v70h-211.2c-4.013.199-9.973-.598-12.8 1.5 3.613 8.281 4.848 17.968 8 26.5h216v82h-302c.685 9.653 5.751 18.463 7 28m56-391c10.077-1.257 20.258-1.09 30.395-1.581 10.218-.027 20.403-1.269 30.605-1.419v-163c49.377 3.125 98.624 8.72 148 12 .218 7.1-5.69 14.106-11.135 16.89-4.383 2.842-11.021 2.832-14.348 5.77-1.219 3.505-.37 8.264-.517 12.464.102 12.72-.102 25.27 0 37.876 10.019-.509 21.929.643 31.07-.402 3.627-.022 5.715-6.423 8.091-8.174 9.042-11.551 17.696-23.383 26.681-34.974 3.395-4.363 6.606-8.866 10.007-13.22 2.736-3.662 6.013-9.042 10.605-4.444 26.59 20.675 51.884 42.908 77.046 65.214 1.426-28.477-.26-57.432.5-86 50.048 2.752 99.964 7.973 150 11-1.059 15.983-15.805 21.536-29 24 .711 16.264-.878 32.81.5 49 35.888-21.407 71.036-44.469 104.5-69.5l-1.625-.5H1772v-28h-534c-.091 58.998-.79 118.188-5 177m5-309h87c5.933-.38 16.426 2.555 15.986-6.972.04-21.356-.007-42.685.014-64.028h-103zm0 105h90.6c3.556-.116 7.303.33 10.726-.717 2.492-1.676 1.12-6.895 1.674-9.235V1880h-103zm48-401h638.4c16.277-.967 36.988 2.37 51.06-4.3 5.26-2.51 9.581-9.542 6.995-14.327-22.417-32.715-49.328-62.203-74.955-92.373-11.226 17.554-19.291 37.117-30 55-1.426-82.207.26-164.736-.5-247 15.524-1.568 35.059-7.378 44-19.5-41.136-27.577-81.596-56.539-122.5-84.5-11.518 14.18-22.325 28.988-33.671 43.294-5.017 6.303-9.79 12.844-14.967 18.997-2.973 3.201-7.57 2.739-11.61 2.709h-202.168c-16.894-.512-33.865.628-50.73-.35-41.615-13.875-81.726-32.91-123.354-46.65v361h-83c.685 9.653 5.751 18.463 7 28m37-625.75c3.052 8.635 5.021 18.013 8 26.75h229v85.2c-.185 6.063.92 13.983-2.997 18.071-3.57 4.302-10.655 3.734-15.572 3.729-39.214.06-78.237-5.39-117.431-6 .8 3.914-1.484 10.832 2.374 12.59 4.443 1.075 8.98 2.01 13.47 2.88 26.743 5.08 53.412 16.43 70.186 38.926 8.74 11.185 12.664 25.121 15.095 38.822 2.767 14.135 4.51 28.458 5.875 42.782 25.004-2.453 50.03-5.153 74.413-11.445 17.309-4.314 34.288-10.517 49.08-20.706 23.715-15.078 35.68-42.103 38.882-69.14 4.456-29.73 1.669-60.01 2.625-89.935V958h231c8.965-.084 19.68-.27 27.66-2.48 3.645-1.064 7.103-2.967 9.745-5.725 2.302-2.183 4.261-7.358 1.946-9.302-38.434-32.892-78.703-63.747-118.851-94.493h-1.5c-19.695 28.898-45.281 55.098-65 84h-85v-55c12.493-1.032 31.85-6.72 32-24-1.814-.46-3.634-.893-5.5-1l-1.5-.5c30.77-9.126 60.637-21.164 90.158-33.636 14.77-6.505 29.395-13.256 43.677-20.792 12.572-8.355 34.62-2.484 45.165-17.572-20.81-17.852-42.144-35.08-63.194-52.637-21.503-16.668-41.317-35.96-63.306-51.863-20.787 23.228-43.122 45.014-64.602 67.602-4.645 6.029-10.572 6.002-17.154 5.398-99.179.76-198.65-.926-297.744.5 2.23 3.766 2.559 10.003 4.902 14.688 1.903 3.357 2.107 10.73 6.08 11.347 35.994 1.327 72.19-.242 108.22.465 62.834.76 126.082-.926 188.798.5-7.932 11.726-13.422 25.317-21.646 36.969-5.941 8.994-11.449 18.293-17.752 27.05-2.065 2.744-4.741 7.494-8.987 6.947-31.23-2.254-62.408-5.076-93.615-7.466v93h-208.8c-9.236 1.013-19.172-1.346-28.2 1zm92 1218.25c4.906 3.215 13.558-.493 20.023.307 48.346-3.39 96.69-6.772 144.977-10.807v-34c-12.487 4.662-26.094 4.015-39.203 4H1416c-.564 6.063.302 12.544-.112 19.926-.796 6.61.215 14.417-.888 20.574m43-296.5h102v-71h-102zm0 105h102v-78h-102zm19-429h31v-286h-31zm120 0h37v-286h-37zm82 429h93v-78h-93zm47-429h32v-286h-32z" style="fill:#000;fill-rule:evenodd;stroke:none"/></svg>