<svg xmlns="http://www.w3.org/2000/svg" width="3000" height="3000"><path d="M407 2715h2186c-120.11-729.14-243.257-1457.94-364-2187-121.653-40.09-243.099-81.112-364.7-121.395-91.164-30.407-182.32-60.766-273.474-91.162a32206 32206 0 0 1-51.529-17.183c-8.003-2.659-16.01-5.346-24-8-7.038-2.654-14.998-6.446-23.453-2.372-120.19 40.07-240.392 80.12-360.578 120.183C1011.124 447.878 891.186 488.387 771 528c-120.737 729.033-243.897 1457.913-364 2187m840-1941h664.8c8.602-.16 17.48.715 25.85-1.787 3.733-1.01 7.362-2.54 10.337-5.051 8.524-6.722-1.565-12.77-6.8-16.641-21.644-18.27-43.965-35.704-66.339-53.04-9.765-7.532-19.496-15.076-29.305-22.549a465 465 0 0 1-13.813-10.626c-2.47-1.333-4.777-4.418-7.153-4.806-5.296 2.288-7.201 8.462-11.409 12.284-13.101 16.8-26.299 33.555-39.483 50.29-5.89 7.454-11.817 14.93-17.681 22.402-3.137 4.75-7.601 4.905-12.595 4.524-157.25-.069-314.468.084-471.704-.045-8.967-.936-16.871-6.33-25.418-8.834-19.992-8.522-40.41-16.028-60.401-24.538-23.989-10.087-48.729-18.868-72.386-29.583-2.288 144.95 1.677 290.304-2.168 435.29-2.118 103.062-7.963 206.532-27.67 307.951-6.513 36.984-17.278 73.045-28.263 108.857-4.74 15.224-11.286 29.828-16.25 44.967-1.628 2.903 3.426 6.57 5.79 6.437 44.564-35.392 81.067-81.519 109.486-130.683 21.68-38.082 37.982-78.989 51.641-120.519 41.63-135.015 41.085-277.869 40.934-417.495zm-202 1396.25c21.09 43.718 46.091 85.947 67 129.75 11.52-1.556 20.35-15.723 23.592-23.384 3.24-6.643 10.887-13.449 16.413-20.117 8.727-9.282 17.245-18.78 25.581-28.41 4.344-4.804 8.651-9.623 13.01-14.395 3.828-3.918 8.492-11.355 13.404-11.694v107h8c-2.47 27.387-17.452 51.905-35.288 71.956-14.427 17.519-36.884 33.07-55.293 42.335-18.7 8.912-39.585 15.71-53.351 32.405-13.118 13.59-20.95 32.233-17.424 51.32 1.91 16.325 10.302 31.237 22.801 41.707 22.952 18.603 56.623 20.949 82.73 8.01 37.732-18.062 64.998-54.356 77.089-93.732 13.523-43.188 10.337-89.787-1.72-132.823-1.205-6.985-4.929-14.706-5.544-21.178 32.534-2.622 70.458-15.299 94.267-34.031 3.05-2.714 6.568-5.633 7.39-9.848.976-32.899-.177-65.896.343-98.815V1945c25.217.817 50.49-1.07 74.895-7.87 11.948-2.66 23.548-6.59 34.847-11.221 4.99-2.456 11.633-4.915 15.058-8.89 2.437-6.017.363-12.562 1.2-19.019h90v29c22.398.276 44.9-.431 66.96-4.692 10.138-2.124 20.264-4.373 30.21-7.24 10.262-2.297 21.507-7.818 30.83-10.068v269.4c-.197 20.558-.512 41.173 2.655 61.554 1.979 16.517 7.854 33.955 22.563 43.451 26.356 16.938 59.647 12.878 89.115 13.595 45.28-.757 93.5 2.525 136.024-16.692 20.013-8.451 34.529-27.795 34.491-49.916-.227-10.632-2.245-22.017-8.894-30.66-6.838-7.795-15.336-14.803-24.954-18.732-2.203-21.61-3.202-43.348-5-65h-8c-6.925 19.335-16.475 37.82-27.179 55.327-10.677 17.802-29.478 13.277-44.045 13.673h-20.297c-5.631-.35-12.498.638-17.532-.865-8.769-3.691-5.026-19.322-5.947-26.16V2063c27.144-4.137 54.263-8.869 80.894-15.734 6.828-1.568 13.57-3.425 20.307-5.31 4.988-1.082 9.793-3.01 14.862-3.679 7.692-.264 14.634 4.669 22.323 5.075 8.717 1.822 15.084-1.79 21.614-5.852-17.484-17.476-33.895-35.902-51.37-53.37-9.078-8.47-17.355-17.629-25.732-26.732-8.561-8.727-17.543-17.043-25.398-26.398-9.435 12.608-16.523 26.956-26.149 39.461-8.342 13.822-19.823 26.026-28.351 39.539h-3v-97c11.759-2.501 26.25-6.641 29-23-47.854-4.916-96.085-7.424-144-12v-103h203.4c11.398-.123 22.803.154 34.198-.093 9.885-.037 19.802-4.407 24.402-13.407-19.533-17.832-40.902-33.607-61.509-50.146-21.22-15.828-41.65-33.59-63.491-48.354-18.157 21.425-34.95 44.29-52.756 66.055a721 721 0 0 1-13.519 17.007c-3.131 5.1-10.703 3.92-15.815 3.938H1680v-79c11.763-.852 20.52-6.085 23-17-53.048-3.38-106.02-8.723-159-13v109c-28.012-.063-56.026.077-84.029-.042-8.398.554-5.438-11.379-5.971-16.455V1671c9.362-.43 21.647-5.225 23-17-52.062-3.382-103.99-8.86-156-13v109c-86.929.76-174.151-.926-261 .5 3.189 7.718 4.883 16.407 7 24.5h254v110c-38.607-4.268-78.055-5.478-116.5-10-1.416 21.372.25 43.093-.5 64.523v48.39c-.333 2.674.488 7.118-1.87 8.468-44.823 2.525-90.3-1.247-135.13 1.119 3.565 7.729 5.291 16.436 8 24.5h129v101.4c.119 4.169.038 8.323-.472 12.436-1.508 3.092-7.804 2.364-10.314 3.802-49.205 10.928-98.59 21.616-148.214 30.362zM1314 1365c11.237.066 22.487-.11 33.674-1.225 10.3-.408 21.936-4.405 31.326-4.775 4.21 28.892 5.967 58.1 4.184 87.284-.07 21.378-6.015 42.018-9.694 62.82 7.308 12.243 21.273 23.43 33.502 28.018 21.795 8.846 47.744 2.414 63.37-15.157 16.003-16.846 22.193-41.242 16.126-63.7-5.832-23.107-20.806-42.634-37.59-58.867-16.974-16.59-37.434-28.934-57.55-41.153-1.68-1.013-2.46-2.523-2.348-4.245 12.13-2.569 23.12-9.146 34.067-14.6 5.038-3.114 10.774-7.282 14.717-11.017 4.77-5.26 4.276-11.246 4.216-17.383h355c-3.485 45.636-5.951 92.138-19.576 136.175-3.39 9.973-8.077 21.372-18.794 25.336-17.149 5.565-35.718 2.287-53.35 2.072-17.753-.925-35.503-2.242-53.28-2.583v9c23.415 5.106 51.777 16.209 65.197 34.754 16.78 21.133 16.812 49.752 16.803 75.246 25.852-.11 52.088-1.454 77.216-8.061 17.065-4.886 33.772-12.032 47.752-23.177 21.14-16.836 33.404-42.048 40.774-67.458 8.303-27.029 12.376-55.084 15.724-83.067 3.272-25.987 4.485-52.148 6.534-78.237 13.24-2.289 26.968-5.804 37-15.5-36.573-28.521-71.787-59.302-108.5-87.5-11.66 11.224-23.557 22.155-35.53 33.021-5.303 4.924-10.486 9.982-16.068 14.594-4.581 5.041-8.975 10.547-17.762 9.384-113.043.003-226.107 0-339.14.001v-69h464.4c10.941-.23 21.893.3 32.827-.205 8.23-.818 21.033-3.73 22.773-14.795-19.638-14.15-37.855-31.626-57.977-45.472-19.593-15.168-39.86-29.49-59.523-44.528-21.515 25.368-41.764 51.832-63.361 77.128-4.3 4.386-13.194 2.312-19.752 2.872H1442v-67h239v43c19.96-.09 40.168-.341 59.73-4.709 14.065-3.537 28.276-6.817 41.764-12.25 9.902-3.394 19.603-7.454 28.413-13.145 4.205-2.621 4.292-6.82 4.093-11.033V942c10.02-2.48 19.838-6.12 28.513-11.822 4.42-2.475 10.493-7.005 5.769-10.84-4.087-3.261-8.34-6.333-12.504-9.474-11.014-8.294-22.094-16.522-33.088-24.823-24.345-18.408-48.94-36.54-73.19-55.041-12.151 12.842-23.42 26.51-35.974 38.975-4.474 5.021-8.758 10.22-13.72 14.779-3.577 3.52-6.584 9.964-13.26 10.184-45.847.177-91.71-.032-137.546.062v-3c22.618-11.917 43.355-27.728 65.174-41.109 11.072-7.276 23.477-17.295 35.644-19.336 6.977-1.658 13.981-4.093 19.595-8.715 5.497-4.065 7.8-10.496 10.587-16.34-65.297-10.891-131.508-18.392-197-28.5.448 38.971 2.218 78.062 0 117-7.325-.05-16.237.712-22.57-1.989-44.056-16.316-87.227-35.196-131.43-51.011v510h-3c-.698-2.32-3.513-1.824-5.559-1.991-1.47-.02-2.974-.002-4.441-.009.533 12.3-1.721 24.665-7.482 35.624-10.045 17.828-28.19 34.919-44.582 43.913-8.324 4.21-16.755 8.173-24.958 12.588-14.237 8.6-28.626 23.41-34.092 37.836-10.683 28.874 2.646 65.202 30.613 78.804 10.88 5.31 22.936 8.32 35.05 8.147 19.906-1.388 38.668-11.109 51.875-25.917 20.177-22.81 28.866-53.346 29.435-83.312 1.127-31.325-7.624-61.876-18.739-90.741zm5 952c8.693 35.571 16.658 71.64 18.346 108.414 2.515 28.45 1.834 57.17-2.098 85.452-1.745 5.83-1.132 9.355 3.21 13.342 12.605 13.435 28.353 24.882 46.985 27.998 28.552 5.15 57.995-11.511 70.224-37.517 14.672-26.07 12.455-58.526 1.286-85.309-24.292-53.747-75.105-89.61-126.848-113.76-4.114-2.35-7.715.503-11.105 1.38m54-34c25.954-.137 52.389-2.699 76.634-12.736 10.317-4.314 23.166-9.64 30.438-17.24 4.104-5.646 2.68-13.14 2.928-19.61V2213h39v56c17.322.338 34.873.46 51.76-4.183 11.697-3.01 23.383-6.239 34.783-10.232 8.078-3.507 17.12-5.623 24.207-11.117 5.22-4.772 2.363-14.505 3.25-20.673v-186.391c.303-3.108-.549-7.418 1.363-9.561 7.648-2.726 15.935-5.077 21.637-11.343-31.315-24.503-64.134-47.08-95.5-71.5l-38.233 38.233c-4.441 3.962-8.672 11-16.437 10.76-6.676-.08-13.37.13-20.04-.096-10.34-1.572-19.576-7.561-29.504-10.594-28.763-11.36-57.648-22.74-86.286-34.303zm69-1288h239v-75h-239zm0 103h239v-77h-239zm12 774h90v-97h-90zm29 315h39v-169h-39zm4-839c.613 4.913 4.779 10.49 6.937 15.844 9.508 19.276 16.222 39.735 21.86 60.408 4.245 16.5 7.065 33.41 8.098 50.41-.053 6.194-1.102 12.65 5.671 17.153 15.96 13.83 39.017 21.24 59.553 13.272 19.497-7.158 34.415-25.311 37.581-45.896 3.625-31.88-17.498-59.804-42.478-76.74-24.847-18.251-54.644-28.448-84.211-35.969-2.2-.54-4.486-1.09-6.767-.926-2.185.324-4.559 2.053-6.244 2.444m4 970.25c18.653 28.896 39.59 57.47 52.551 89.837 11.764 24.857 20.335 51.155 26.925 77.805 2.411 10.505 4.597 21.1 5.983 31.782.334 4.062.351 9.421 4.764 12.441 12.392 9.697 29.537 18.674 44.233 19.712 25.152 2.51 50.308-10.695 62.896-32.563 13.522-21.651 15.021-49.308 7.188-73.081-12.718-38.334-44.197-66.706-77.986-86.756-35.867-20.867-76.217-32.667-116.456-41.62-4.627-1.58-6.827.292-10.098 2.193zm129-975.75c11.406 14.45 22.405 30.34 27.812 48.357 6.141 14.122 7.43 29.554 8.645 44.622 14.421 15.836 39.734 21.68 59.967 15.651 20.34-5.405 37.769-22.92 41.905-43.698 5.405-29.768-22.57-48.538-43.721-56.964-26.322-9.535-54.636-12.52-82.484-12.468-5.09-.835-8.771 1.525-12.124 4zm79 967.5c.743 4.14 5.71 7.732 8.365 11.672 45.596 56.632 84.427 119.76 110.03 188.019 3.116 9.073 6.151 18.153 8.64 27.422 1 3.595 1.74 8.11 5.205 10.374 12.726 8.407 27.285 14.08 42.263 16.653 23.083 3.957 46.097-7.764 60.534-24.983 14.495-18.52 19.65-43.13 15.819-66.158-9.3-50.972-49.132-89.9-92.215-114.661-44.601-26.995-95.633-41.142-146.37-50.984-2.164-.51-4.392-.674-6.587-.876-1.77.894-3.886 2.318-5.684 3.522" style="fill:#fedca9;fill-rule:evenodd;stroke:none"/><path d="M1045.688 1592c51.377-44.348 95.104-98.259 124.24-159.835 47.388-95.886 66.81-202.864 74.003-308.763 3.592-57.34 4.549-114.785 4.069-172.222V775h455.4c75.94-.458 151.898.559 227.815-.302 7.945-.868 18.156-4.14 21.165-10.939 2.996-6.57-8.513-11.396-11.883-15.685-19.306-15.845-38.58-31.77-58.526-46.81-9.974-7.62-19.828-15.343-29.827-22.93-4.722-3.968-9.827-7.443-14.619-11.31-4.49-2.995-9.963-8.452-14.197-10.024-18.394 22.336-35.744 45.583-53.847 68.152-4.074 4.946-7.838 10.1-11.875 15.066-1.673 2.41-4.072 4.895-5.877 6.86-6.646 1.68-13.893.471-20.707.922h-437.527c-8.533-.668-18.983 1.041-26.63-1.118-51.95-19.605-102.782-42.843-154.865-61.882-.716 159.298 1.618 318.677-2.707 477.916-1.302 74.841-8.821 149.405-19.263 223.453-5.59 37.274-13.354 74.202-23.431 110.512-5.136 17.07-9.803 34.335-16.062 51.028a989 989 0 0 1-9.193 25.24c-.958 3.74-3.82 8.494-3.845 11.66-.38 3.572 5.895 6.015 8.188 7.191M1043 2170.375c23.888 43.319 45.33 88.436 69.5 131.625 10.678-4.224 19.41-12.615 23.631-23.392 3.716-7.913 10.704-13.69 16.149-20.36 17.99-17.12 32.342-38.816 50.72-55.248v107h8c-3.778 26.862-17.713 51.04-35.924 70.693-14.456 17.33-36.818 32.655-55.14 41.846-18.57 8.798-39.23 15.584-52.868 32.157-13.238 13.534-20.577 31.94-17.708 50.967 1.449 16.184 9.053 31.475 21.106 42.265 21.791 19.434 55.61 22.616 81.97 11.832 37.813-15.87 66.225-50.553 79.538-88.7 14.617-42.167 13.725-88.472 3.182-131.403-2.263-9.611-4.765-19.153-7.899-28.51A18 18 0 0 1 1227 2310c32.534-2.622 70.458-15.299 94.267-34.031 3.05-2.714 6.568-5.633 7.39-9.848.976-32.899-.177-65.896.343-98.815V1946c25.217.817 50.49-1.07 74.895-7.87 11.948-2.66 23.548-6.59 34.847-11.221 4.99-2.456 11.633-4.915 15.058-8.89 2.437-6.017.363-12.562 1.2-19.019h88v29c43.308.987 87.527-4.31 127.5-22 1.426 65.349-.26 131.051.5 196.461v73.673c-.18 20.74-.503 41.595 2.862 62.142 2.028 16.499 8.442 33.451 23.156 42.686 26.917 16.446 60.31 12.312 90.11 13.038 45.515-.754 93.998 2.548 136.687-16.923 9.574-4.615 18.463-11.097 24.567-19.95 9.438-13.671 11.58-31.668 7.495-47.526-3.334-15.656-19.186-28.193-31.877-33.601-2.203-21.61-3.202-43.348-5-65h-10c-6.815 19.007-16.173 37.198-26.633 54.44-9.918 18.07-28.328 14.52-42.797 14.56h-19.696c-5.455-.288-12.018.468-16.958-.542-9.743-2.647-6.25-19.151-6.916-25.883V2064c27.51-4.263 55.019-8.938 81.99-16 6.8-1.52 13.508-3.46 20.212-5.301 4.982-1.024 9.778-3.289 14.93-3.37 7.684 1.204 14.775 5.622 22.813 5.435 7.663.567 15.269-2.272 21.055-7.264-35.829-35.347-69.352-74.334-106-108.5-15.213 28.25-35.71 54.058-54.5 80l-.5-1.687V1914c6.802-1.421 13.796-2.978 19.415-7.36 6.67-4.443 8.056-10.733 10.585-17.14-5.869-2.075-12.47-1.344-18.567-2.299-42.127-3.716-84.301-6.565-126.433-10.201v-101h230.4c8.777.263 18.137-.475 25.512-5.837 2.923-2.108 5.193-5.338 5.597-8.962-3.38-5.72-10.26-9.292-14.883-14.084-18.278-14.983-36.991-29.409-55.531-44.06-18.88-13.451-36.201-29.75-55.767-42.057-17.413 22.03-34.832 44.066-52.322 66.03-4.305 5.583-8.688 11.085-13.092 16.58-3.617 5.935-8.997 5.975-14.99 5.39H1681v-77c11.063-.459 22.652-6.826 23-19-53.734-3.226-107.305-9.103-161-13v109c-27.417-.07-54.82.086-82.232-.046-8.085.473-5.274-10.98-5.768-15.868V1672c9.67-.804 22.792-5.029 23-19-52.743-3.154-105.295-9.324-158-13v109h-261v1.5c2.41 8.461 5.343 16.859 7 25.5h254v108h-1.5c-38.278-4.746-77.168-5.476-115.5-10v113.4c-.221 2.676.314 7.367-2.45 8.167-44.786 1.234-89.735-.224-134.55.433 1.792 9.184 6.16 17.795 8 27h129v101.4c-.48 3.775.842 8.969-1.313 11.706-52.176 13.912-106.206 21.598-158.687 33.894zm272-803.875c10.806-1.202 21.94.016 32.765-1.625 9.984-.298 21.201-3.976 30.235-4.875 4.13 28.458 5.958 57.224 4.146 85.977.103 21.378-6.45 41.953-9.655 62.773 12.964 27.382 50.615 41.559 78.515 28.605 13.42-5.925 24.552-16.39 31.078-29.563 7.803-13.928 8.887-30.498 6.372-45.933-4.874-23.484-19.055-44.279-35.931-60.834-16.652-16.993-36.996-29.843-57.293-41.91-1.9-.973-3.727-2.095-5.232-3.615 11.757-3.833 23.297-8.957 34.067-15.1 5.038-3.114 10.774-7.282 14.717-11.017 4.77-5.26 4.276-11.246 4.216-17.383h353c-3.876 45.253-5.914 91.526-19.915 135.139-3.355 9.903-8.29 20.965-19.026 24.598-16.94 5.144-35.107 1.952-52.47 1.738-17.846-.944-35.704-2.383-53.589-2.475v11c23.415 5.106 51.777 16.209 65.197 34.754 16.78 21.133 16.812 49.752 16.803 75.246 26.186-.084 52.769-1.13 78.249-7.812 17.235-4.81 34.097-12.022 48.288-23.092 21.697-16.998 34.072-42.84 41.49-68.733 8.426-27.376 12.253-55.858 15.707-84.178 3.1-25.315 4.278-50.792 6.266-76.185 10.672-1.86 21.274-4.434 30.464-10.45 2.22-1.488 4.45-3.135 6.044-5.302.145-3.631-6.26-5.83-7.9-8.372-3.026-2.605-6.118-5.12-9.24-7.602-11.37-8.92-22.338-18.336-33.668-27.297-19.674-15.189-38.32-32.208-58.2-46.977-11.488 11.341-23.652 21.89-35.31 33.036-5.524 4.676-10.49 9.95-16.14 14.488-4.389 4.237-9.013 11.008-17.115 10.46-112.969.045-225.967-.008-338.935.016v-67h465.6c10.91-.316 21.845.42 32.727-.314 9.213-.94 18.754-4.045 22.673-15.186-34.93-28.841-70.676-56.764-107.52-83.147-3.436-2.251-6.993-5.66-10.431-7.247-3.139-2.422-6.655 4.731-8.531 6.054-10.127 12.764-20.692 25.186-30.934 37.847-9.123 10.85-17.81 22.135-27.145 32.789-4.7 3.795-13.63 1.348-20.251 2.204H1443v-65h237v43c20.634-.121 41.55-.2 61.792-4.716 14.24-3.55 28.597-6.975 42.255-12.443 9.946-3.423 19.731-7.552 28.512-13.402 5.716-5.157 2.313-16.87 3.441-24.95V943c7.44-1.784 14.799-4.236 21.585-7.824 6.071-3.56 14.461-7.669 16.415-13.832-40.567-31.858-82.979-61.436-123.5-93.344-12.287 12.566-23.306 26.299-35.733 38.733-4.62 4.803-8.707 10.117-13.634 14.64-4.234 3.56-7.553 10.992-12.857 11.37-45.669-.027-91.68.793-137.276-.243 22.434-13.34 44.211-27.839 66.026-42.18 11.54-7.82 22.584-16.597 36.394-19.19 13.744-2.498 26.792-12.399 28.58-27.13-66.34-9.103-132.61-19.335-199-28 .363 38.972 2.303 78.054 0 117-7.497.27-15.136.537-22.127-2.547C1396.813 873.6 1353.17 855.485 1309 839c-.76 170.312.926 340.747-.5 511-1.592-2.935-6.661-1.533-10.178-2H1296c.533 12.3-1.721 24.665-7.482 35.624-10.127 17.937-28.435 35.204-45.017 44.144-8.508 4.34-17.216 8.243-25.516 12.951-14.152 8.81-28.493 23.707-33.52 38.405-10.07 29.365 2.755 66.171 31.418 79.82 11.142 5.443 23.502 8.252 35.888 8.006 19.782-1.144 38.659-10.654 51.94-25.197 20.562-22.667 29.443-53.403 30.12-83.486 1.124-30.982-6.195-61.802-17.866-90.32-.294-.504-.653-.965-.965-1.447m2 950.813c14.354 44.602 18.883 92.277 20.873 138.922.2 17.857-1.286 35.713-3.633 53.389-.573 3.576-1.156 7.265-.645 10.859 17.179 23.205 46.71 37.937 75.712 32.575 20.87-4.361 39.118-19.791 48.133-38.93 15.846-29.545 10.925-66.809-4.12-95.423-14.598-27.34-36.604-50.09-61.363-68.363-9.819-7.199-19.984-13.907-30.63-19.804-10.122-4.901-22.452-13.751-34.372-17.093-3.75-.331-6.695 2.387-9.955 3.555zm55-33.313c26.198.068 52.936-2.425 77.475-12.306 10.765-4.287 24.014-9.899 31.597-17.67 4.104-5.646 2.68-13.14 2.928-19.61V2214h37v56c17.825.347 35.897.655 53.296-4.073 11.857-3.037 23.694-6.272 35.247-10.342 8.176-3.64 17.506-5.614 24.567-11.45 4.66-4.692 2.083-14.48 2.89-21.539v-186.99c.053-2.99-.105-7.78 2.988-8.357 7.664-2.548 15.543-5.426 21.012-11.749-31.536-25.673-65.902-47.902-97.5-73.5l-38.602 38.602c-4.842 4.801-10.129 11.828-16.51 11.382-6.702-.125-13.444.239-20.124-.213-39.164-13.75-77.609-30.68-116.264-45.771zm71-1290h237v-73h-237zm0 103h237v-75h-237zm12 774h88v-95h-88zm29 315h37v-167h-37zm1-837.75c10.38 22.686 21.992 45.392 27.795 69.935 5.513 19.085 9.078 38.812 10.145 58.654.627 3.336-.804 7.778 1.11 11.072 16.947 20.399 49.181 27.966 72.74 15.148 24.287-11.654 36.129-41.269 29.785-66.561-6.877-26.884-27.56-47.286-50.539-61.416-23.729-14.464-50.222-23.676-77.151-30.124-5.617-1.974-9.644.288-13.885 3.042zm4 970.375c22.453 30.644 42.33 63.475 57.247 98.544 11.695 27.77 21.485 56.44 26.725 86.2 1.155 5.979 2.206 11.993 2.77 18.047-.05 6.25 3.391 9.725 8.197 12.48 15.57 11.998 34.838 18.756 54.528 16.965 29.416-2.24 53.284-26.05 59.972-53.994 7.786-28.64-.017-59.485-16.327-83.709-19.273-28.34-48.019-48.962-77.994-64.603-32.498-16.35-67.892-26.207-103.267-33.996-4.623-1.603-8.879 1.227-11.851 3.441zm129-976c12.25 14.618 23.387 31.16 29.002 49.768 2.685 7.115 4.802 14.476 6.072 21.987 1.828 6.913 1.748 14.001 2.248 21.03.264 4.945 8.941 7.055 11.678 9.883 17.28 11.085 39.379 12.699 58.134 4.25 17.554-6.859 33.355-26.416 34.486-43.898 4.332-29.742-23.27-47.96-44.538-56.392-26.363-9.444-54.72-12.331-82.56-12.253-2.68.42-6.537-.527-8.449 1.03-2.19.95-4.184 2.972-6.073 3.97zm79 967.938c25.315 32.166 51.166 64.719 71.225 100.71 16.111 27.637 30.893 56.232 43.009 85.853 4.505 11.425 8.558 23.03 12.023 34.816 2.298 4.371 1.876 11.238 5.186 15.017 15.192 11.81 38.012 19.048 55.517 18.959 29.378-.79 56.523-22.01 64.065-50.596 9.592-29.289 1.786-61.38-13.748-86.95-21.911-36.969-58.17-62.971-95.79-82.142-40.245-20.366-84.373-31.52-128.339-40.33-5.673-1.87-9.172 1.004-13.148 4.1z" style="fill:#000;fill-rule:evenodd;stroke:none"/></svg>