<svg xmlns="http://www.w3.org/2000/svg" width="3000" height="3000"><path d="M327 2802.5c390.66 1.426 782.125-.26 1172.95.5 390.946-.76 782.184.926 1173.05-.5-79.323-468.617-156.154-938.343-234.952-1407.195-29.267-175.5-58.497-351.003-87.753-526.501-12.805-76.841-25.619-153.676-38.404-230.507-6.026-36.003-11.975-72.01-18-108-2.95-17.489-5.812-35.003-8.765-52.489-.742-4.506-1.545-9.012-2.248-13.522-.536-2.153-.828-4.971-2.185-6.387-67.724-24.02-136.857-45.355-204.874-68.799-127.849-42.62-255.674-85.22-383.522-127.84-56.001-18.671-112.011-37.334-168-56-6.744-2.157-13.41-4.532-20.144-6.694-6.371-2.108-13.624 2.247-19.284 3.633-103.336 34.508-206.707 68.883-310.042 103.358-90.353 30.124-180.667 60.23-271.008 90.343-39.502 13.168-79.024 26.335-118.52 39.495a40282 40282 0 0 1-56.033 18.678c-3.962 1.667-10.323 2.365-11.248 6.472-95.716 569.571-189.79 1139.51-285.127 1709.158-35.77 210.46-69.684 422.872-105.891 632.797" style="fill:#000;fill-rule:evenodd;stroke:none"/></svg>