<svg xmlns="http://www.w3.org/2000/svg" width="3000" height="3000"><path d="M1069 2498h777c25.036-.887 50.19 1.105 75.185-.654 7.069-.713 22.479-6.035 18.592-17.427-25.682-24.917-53.303-47.858-80.548-71.07-10.45-8.481-20.576-17.35-31.26-25.531-5.373-4.505-9.328 4.247-11.91 7.528-12.937 17.806-25.933 35.542-38.752 53.42-4.837 6.799-9.86 13.447-14.703 20.232-4.695 7.744-14.509 5.073-21.564 5.502H1568v-103h255.6c7.766.363 15.695.182 22.91-3.124 5.575-2.13 9.94-7.343 9.913-13.366-14.804-14.789-36.207-27.875-51.09-39.897-17.582-11.814-34.348-25.6-52.333-36.613v-2c19.169-2.888 37.713-9.499 55.826-16.13 12.038-2.957 9.32-16.264 9.174-25.766V2039c10.698-2.033 21.252-5.524 29.876-12.397 3.893-2.85 9.473-7.686 3.458-11.782-4.145-3.348-8.582-6.315-12.741-9.625-11.955-8.769-23.663-17.884-35.469-26.823-22.026-17.41-45.425-33.088-67.124-50.873 41.448-1.426 83.35.26 124.881-.5 15.776-.117 31.572.143 47.336-.078 6.202-.382 12.69-1.584 17.933-5.121 4.03-2.752 8.572-9.243 3.306-14.483-31.172-28.137-63.707-54.698-96.08-81.421-3.984-3.24-8.03-6.38-12.003-9.618-3.294-2.846-7.04-7.18-10.738-2.019-19.35 24.869-37.826 50.446-57.078 75.386-2.688 3.274-5.579 9.095-10.736 9.258-5.803.248-11.596-.024-17.393.096H1613.5l-1.5-.5c26.062-17.84 50.137-38.754 73.79-59.636 12.415-10.285 23.658-21.873 35.704-32.549 3.386-2.873 8.155-2.11 12.197-2.539 11.744-.66 23.178-8.393 24.309-20.776-34.686-7.32-69.332-15.11-104-22.5 42.826-1.426 85.837.26 128.698-.5h64.697c10.55-.313 21.202.58 31.693-.803 8.276-1.325 19.922-4.92 19.912-17.197-31.966-23.532-62.329-50.532-94.124-74.587-5.942-4.721-11.999-9.31-18.081-13.837-2.585-1.619-6.46-6.08-9.085-3.185-5.434 4.167-8.487 10.71-13.118 15.614-15.803 19.915-31.345 40.048-47.233 59.89-1.347 1.96-2.883 3.715-4.676 5.25-10.206 2.074-21.53-.08-31.97.855h-98.961c-4.065-.428-12.947 1.452-13.394-3.535-.948-8.992.113-18.16-.358-27.177.033-6.943-.04-13.864.022-20.796-.441-6.554 4.091-7.053 8.887-7.724 6.259-1.877 13.747-4.868 17.878-9.406 4.296-4.756 7.065-10.882 7.213-17.362-29.25-2.799-58.697-3.941-87.974-6.4-29.367-1.444-58.63-4.95-88.026-5.6v98h-322c.898 9.604 5.945 18.415 7 28h180c9.993 22.471 19.535 45.488 24.923 69.65 3.08 13.348 5.147 26.957 5.07 40.676.349 5.539-1.736 13.45 4.4 17.773 4.468 4.033 9.951 6.656 14.607 10.401-89.14 1.426-178.76-.26-268 .5 1.076 9.593 6.098 18.395 7 28 214.903.76 430.209-.926 645 .5-14.45 16.68-30.058 32.374-44.28 49.252-3.48 3.199-6.762 7.727-9.84 10.743-3.673 3.49-10.142 2.274-14.727 2.505H1344.6c-14.569.266-27.84-7.123-41.378-11.715-38.492-14.03-76.616-29.745-115.221-43.285v364c28.654 1.05 57.324-1.763 84.617-10.902 12.35-3.65 26.23-10.075 36.387-16.03 5.17-3.177 11.716-7.355 14.718-12.169 2.457-6.945.525-14.721 1.278-21.899h101v101h-270v1.5c2.05 7.832 5.854 17.714 7 26.5h263v103h-364c.685 9.653 5.751 18.463 7 28m160-1480c22.616 74.76 48.609 148.641 72.2 223.134 2.295 7.1 4.882 14.106 6.906 21.278 1.71 6.927 5.557 14.692 5.85 21.314a162433 162433 0 0 1-2.722 184.5c-1.165 10.6.591 21.997 9.036 29.475 14.423 12.905 33.827 18.053 52.06 22.606 70.702 14.583 143.92 15.377 215.505 7.845 17.513-1.98 34.908-5.017 51.847-9.923 20.877-5.827 52.206-17.724 49.295-47.582-1.141-28-1.148-56.037-1.492-84.051.112-34.322-1.253-68.624-1.438-102.928.215-5.876 2.967-11.257 4.442-16.846 25.892-83.208 55.316-165.442 80.511-248.822 20.4 2.815 42.974.578 58.701-14.293 15.781-13.178 22.8-33.665 21.284-53.795.124-17.182-7.831-34.182-21.09-45.156-13.607-11.31-31.217-16.375-48.8-14.576-16.947 1.3-33.725 8.82-44.61 22.235-11.12 13.51-15.93 31.812-13.751 49.062 1.72 17.054 12.543 37.5 26.266 45.523-.446 3.598-3.69 7.52-5.757 11.195-35.067 56.138-69.492 112.809-104.743 168.805 4.766-81.442 12.929-163.45 18.5-245 33.881 2.26 66.333-30.318 64-64.234 1.281-17.849-6.363-34.85-18.435-47.61-11.874-12.418-29.103-18.469-46.093-18.07-17.353.381-34.634 7.141-46.342 20.284-12.676 11.61-17.983 28.866-17.658 45.634-.318 25.75 15.476 50.87 40.528 58.996-26.504 76.767-54.75 153.193-81 230h-2c-10.27-85.89-26.905-171.09-37-257 29.534-4.44 53.4-33.559 51-63.466 2.838-34.973-30.763-66.6-65.199-63.534-34.722-2.038-66.216 31.057-62.801 65.49-1.67 29.216 22.433 57.117 51 61.51-9.986 85.924-26.827 171.108-37 257h-2c-26.374-76.753-54.357-153.291-81-230 12.34-3.988 22.85-12.82 30.093-23.383 7.534-11.247 10.603-24.907 10.355-38.304.748-35.252-31.93-64.655-66.503-63.245-34.614.054-65.18 32.59-61.945 67.427-1.32 33.17 30.918 64.382 64 62.505 5.502 81.953 13.955 164.076 18.5 246-17.882-30.507-37.348-60.078-55.62-90.341-9.14-15.205-18.739-30.108-27.936-45.274-4.568-7.722-9.53-15.197-14.137-22.894a798 798 0 0 1-6.848-11.014c-2.035-3.625-5.398-7.614-5.959-11.477 15.69-7.503 23.998-29.368 26.044-43.91 2.467-17.14-1.685-35.568-12.468-49.293-10.363-13.74-26.954-21.757-43.773-23.423-17.674-1.803-36.591 2.652-50.155 14.599-12.494 10.539-21.63 25.471-21.634 42.312-.939 16.961 1.92 34.793 13.337 48.171 10.633 13.679 26.637 22.333 43.973 23.393 7.58.54 15.139-.165 22.676-.849m-48.997-64.028c-.782 18.434 16.405 35.333 34.721 33.948 17.877-.333 32.377-17.399 30.829-35.052-.623-17.981-17.214-32.454-35.067-30.84-16.2.179-31.197 15.53-30.483 31.944M1284 1108.438c.342.41.631.299 1 .062-.32-.203-.644-.43-1-.062m5 12c.342.41.631.299 1 .062-.32-.203-.644-.43-1-.062m1 2.062c9.745 29.455 20.316 58.755 30.07 88.234 4.768 14.75 10.055 29.326 15 44 1.32 3.577 2.31 7.282 3.765 10.804 1.894 5.855 11.834.826 15.676.571 5.24-1.698 11.905-2.455 16.489-4.609-28.056-45.597-53.013-94.145-81-139.5zm21.005-245.262c-.926 18.573 16.45 35.114 34.588 33.716 17.97.271 32.26-17.631 30.483-34.752-.759-19.975-16.989-31.193-34.306-30.782-16.419.241-31.737 14.61-30.764 31.818M1426 2101v-84h-76.8c-7.982.919-17.743-1.252-24.2 1v72.2c.429 3.17-.92 9.192 2.424 10.353 26.89 1.274 54.007-.231 80.926.447zm-101 109h101v-81h-101zm30.466-735.656c1.14 10.417 11.767 15.072 19.655 17.794 24 7.733 49.315 9.049 74.252 10.517 40.173 1.197 80.513 1.966 120.632-1.255 18.796-1.286 37.603-3.746 55.605-9.498 7.821-3.201 17.73-7.277 18.134-15.828.853-8.973-12.907-13.562-18.926-15.977-42.921-13.01-88.498-11.498-132.771-12.097-22.99-.357-45.98.278-68.853 2.573-20.103 2.252-44.35 6.667-60.686 15.933-3.294 1.677-4.758 5.243-7.042 7.838m.534 285.906c30.847 9.239 64.446 22.44 84.691 49.403 9.846 14.086 14.467 32.192 10.575 49.152-3.65 16.735-15.144 30.585-29.266 39.695 34.873 1.426 70.25-.26 105.219.5h26.38c3.005-.187 7.1.368 8.959-1.755 5.477-20.607 9.849-41.629 14.206-62.523 5.128-24.78 9.55-49.706 13.236-74.722-77.955.38-156.093-.463-234 .25m1.5-325.25c45.438-14.196 94.005-15.684 141.193-16 48.327.042 97.7 1.7 144.307 16v-27c-93.142-24.001-192.858-23.999-286 0 .587 8.936-.754 18.152.5 27m1-54c21.63-8.11 45.248-11.36 68.067-14.449 37.25-4.009 74.942-4.48 112.37-2.943 33.447 2.206 73.596 6.358 102.563 17.392 1.283-9.545-.117-19.387.5-29-92.516-24.143-191.481-23.857-284 0 .601 9.6-.768 19.486.5 29m.5-57c45.735-12.73 93.404-18.187 140.913-17 47.583-1.193 95.292 4.235 141.087 17v-28c-46.473-12.454-95.084-17.842-143.167-18-46.648.305-93.792 6.008-138.833 18zm42.5-67c4.72-2.177 12.378-1.235 18.31-3.048 5.525-1.146 14.072.2 18.19-2.452-18.237-66.187-40.976-131.275-59-197.5-1.472 1.015-.602 3.685-.548 5.608 8.23 65.703 14.338 131.795 23.048 197.392m65.956-411.488c.44 9.591 3.628 19.437 10.971 25.654 7.26 7.582 17.955 10.309 28.132 8.475 16.988-3.52 28.283-22.037 25.171-38.818-2.044-17.333-21.22-29.448-37.93-25.807-14.764 2.358-24.977 16.19-26.344 30.496M1470 1249.5c19.35 1.415 39.49-.248 59 .5-7.495-82.82-20.363-165.19-28-248h-2c-3.554 41.545-10.146 82.826-14.078 124.335-5.382 40.653-8.807 83.002-14.922 123.165m31-257.5v-2h-2c-.227 1.438.704 2.21 2 2m97.5 265c5.21-33.236 7.547-67.115 11.945-100.512 2.875-34.16 9.14-68.356 11.055-102.488-11.767 38.76-23.602 77.505-35.3 116.281-5.723 19.526-12.01 38.847-17.666 58.382-1.526 4.61-2.79 9.328-4.248 13.957-.651 2.75-3.015 8.374-.321 9.81 10.933 2.214 24.826.9 34.535 4.57m78.5 844v-84h-82.2c-8.735 1.075-18.3-1.408-26.8 1v72.2c.429 3.17-.92 9.192 2.424 10.353 26.901 1.274 54.03-.231 80.96.447zm-109 26.375c.012 26.998-.012 55.337 0 82.625h84c8.748 1.018 19.41-1.351 26.5 1 1.419-21.737-.252-43.779.5-65.587-.092-5.413.258-10.936-.499-16.296-1.67-3.431-8.532-1.343-11.253-2.117H1568zm0 211.625h108c4.128-.022 9.443.594 12.341-2.2 17.931-20.102 34.521-41.4 52.659-61.3-10.101-.139-20.641 3.559-30.99 2.497-11.011.009-22.005-.002-33.01.003v-40h-109zm55.492-1460.607c.88 11.496 6.041 23.516 16.958 28.808 10.278 6.198 25.45 4.343 34.133-1.7 14.662-9.194 19.34-31.544 9.394-45.815-9.54-15.087-31.463-18.475-46.072-9.036-10.012 5.57-13.662 17.134-14.413 27.743m5.508 383.232c6.316 2.434 13.5 3.399 20.03 5.396 3.397.485 7.941 2.671 10.761.989 2.035-2.012 2.303-6.193 3.76-9.174 7.168-21.011 14.522-41.934 21.365-63.045 4.343-12.269 8.668-24.57 12.641-36.965 3.373-12.271 9.827-24.38 11.943-36.826-13.354 23.505-26.965 46.871-40.404 70.328-13.409 22.9-26.632 46.641-40.096 69.297m81-141.187c.342.41.631.299 1 .062-.32-.203-.644-.43-1-.062m5-12c.342.41.631.299 1 .062-.32-.203-.644-.43-1-.062m39.267-153.51c-.169 19.188 17.046 35.583 36.198 32.865 17.574-1.926 31.215-18.414 29.483-36.18-.78-17.917-18.846-31.836-36.183-29.433-16.892 1.144-29.274 16.305-29.498 32.748" style="fill:#fff;fill-rule:evenodd;stroke:none"/><path d="M449 2668h2102c-110.242-665.144-221.837-1330.12-332.532-1995.186-3.476-20.835-6.96-41.682-10.42-62.51-1.682-10.253-3.434-20.498-5.126-30.74-1.284-4.301-.763-13.077-5.037-14.575-157.034-52.902-314.464-104.735-471.586-157.384-59.003-19.668-117.989-39.359-177-59-12.991-4.38-26.002-8.647-38.997-13.002-3.112-1.025-6.191-2.224-9.42-2.795-5.85.042-13.257 4.126-19.018 5.393-97.504 32.546-195.061 65-292.567 97.54-73.178 24.36-146.325 48.77-219.478 73.159-54.841 18.294-109.718 36.516-164.531 54.86-6.415 1.276-7.163 6.488-7.57 12-26.516 158.994-52.99 317.976-79.524 476.964A2145928 2145928 0 0 0 449 2668m614-196.5c2.08 8.514 5.272 16.897 7 25.5h827.4c9.384-.21 19.078.752 28.254-1.797 6.881-1.364 12.848-6.394 13.863-13.535-36.277-35.329-76.469-66.81-115.017-99.668-14.241 18.356-27.37 37.615-41.202 56.279-5.004 7.005-10.166 13.916-15.167 20.918-2.412 2.962-4.311 6.335-6.847 9.19-2.365 3.155-7.364 2.549-10.864 2.613H1567v-105h225c12.609-.012 25.227.014 37.836-.008 9.431.286 21.885-3.06 26.164-14.492-33.823-28.59-70.99-53.406-107-79 15.684-4.59 32.086-7.018 47.324-13.233 5.416-2.189 11.093-3.853 16.253-6.632 5.952-2.847 4.157-10.224 4.423-15.133V2038c13.65-2.79 28.305-7.724 37-19.5-40.504-30.852-81.512-61.134-122-92 31.88-1.426 64.265.26 96.242-.5h72.556c8.24.024 17.27-.323 24.352-5.199 2.822-1.951 5.525-4.931 5.361-8.57.42-3.02-4.145-5.181-5.691-7.053-35.338-32.727-73.584-62.112-110.32-93.178-12.605 14.64-23.243 30.906-35.278 46.006-9.036 11.324-17.339 23.221-26.22 34.66-1.51 2.187-3.495 4.602-5.183 6.34-5.41 1.812-11.58.507-17.198.994-40.451-.76-81.295.926-121.621-.5a879 879 0 0 0 73.503-59.498c11.875-10.841 24.325-21.057 35.577-32.572 5.959-6.154 15.642-3.479 22.996-6.644 9.037-2.299 12.586-8.948 15.924-16.286-37.64-9.22-76.118-16.552-114-25 44.021-1.426 88.207.26 132.252-.5h66.537c11.073-.35 22.18.482 33.223-.399 8.639-.818 21.552-4.025 22.988-15.601-40.02-29.61-78.032-63.809-118.5-93-17.939 20.829-33.89 43.351-51.403 64.534-3.074 4.136-6.515 7.972-9.552 12.132-1.382 1.908-2.867 3.741-4.644 5.272-4.472 1.967-11.372.511-16.16 1.062h-121.483c-2.434.008-4.957.023-7.31-.58-3.51-2.239-.99-9.788-1.948-12.928v-25c.34-5.882-.487-12.931.44-18.278-.03-4.112 7.9-3.393 10.137-4.973 5.798-1.998 11.93-4.288 16.21-8.879 4.147-4.187 6.32-9.634 7.213-15.362-28.86-2.735-57.929-3.919-86.83-6.294-29.066-1.638-58.09-4.613-87.17-5.706v98h-322c2.027 8.445 5.732 18.111 7 26h180c10.319 23.214 20.158 47.072 25.463 72.094 2.896 13.767 5.119 27.702 4.537 41.827.323 3.177-.59 7.303.894 10.797 6.115 6.273 15.26 11.724 22.106 15.782-90.472 2.185-181.532-1.185-272 1 2.615 7.735 5.843 18.83 7 25.5 215.568.76 431.55-.926 647 .5a2356 2356 0 0 0-44.586 49.41c-3.53 3.496-6.806 7.198-9.944 11.03-3.794 4.637-8.795 4.255-13.912 4.06H1347.61c-15.182 1.082-29.062-5.279-42.941-10.737-38.137-15.264-77.356-28.33-115.169-44.263-1.426 120.539.26 241.402-.5 362 28.346 1.067 56.625-2.27 83.6-11.17a178 178 0 0 0 35.788-15.979c5.134-3.247 11.87-7.44 14.586-12.487 2.028-6.857.366-14.346 1.026-21.364h103v103c-89.929.76-180.151-.926-270 .5 3.003 7.537 5.734 18.908 7 25.5h263v105h-364zM1771.5 1016c16.73 5.087 38.682.398 51.54-8.764 14.208-9.75 23.906-25.358 26.285-42.378 2.97-16.956-.352-34.928-10.839-48.738-9.703-13.21-25.06-22.309-41.335-24.393-16.397-1.998-34.206.83-47.697 10.936-14.127 9.34-23.199 24.9-25.473 41.582-3.89 23.964 7.93 49.077 27.019 63.255-17.933 31.167-38.118 61.176-56.453 92.142-19.062 30.731-38.368 61.419-57.047 92.358-1.47-10.494 1.567-21.35 1.502-31.892 5.595-73.057 11.245-146.068 16.998-219.108 33.883 2.251 66.326-30.305 64-64.219.997-17.508-7.376-34.004-19.142-46.357-11.895-11.655-28.588-17.941-45.251-17.242-34.368.628-64.327 31.819-61.846 66.283-.275 24.96 16.675 48.606 40.239 56.535-1.26 9.87-7.541 20.331-9.565 29.176-24.7 69.243-49.004 138.697-73.935 207.824-14.102-87.228-25.23-175.225-39.5-262.434 5.373-3.632 13.385-3.297 19.69-7.968 21.823-11.571 34.464-35.702 32.308-60.006.076-23.9-17.06-45.382-38.5-54.309-15.645-6.36-37.339-5.404-51.272 1.03-14.186 6.402-27.686 20.82-32.553 34.24-5.847 16.32-4.797 38.105 2.573 52.178 7.886 14.701 21.46 26.905 37.617 31.679 2.7.84 6.063 1.449 8.137 3.09-13.91 87.29-25.722 175.193-39.5 262.5-14.896-39.196-27.93-79.142-42.321-118.533-6.93-19.936-14.132-39.766-21.096-59.684-3.273-9.915-7.21-19.561-10.481-29.471-2.442-9.646-8.484-20.205-9.602-29.312 25.514-8.423 42.13-34.772 40.203-61.279.6-34.545-32.626-63.036-66.112-61.575-33.924 1.11-63.231 33.119-60.091 67.33-1.255 32.62 34.127 62.995 63.086 60.524h.914c6.059 83.178 13.678 166.278 19 249.5l-.5 1.5c-18.656-30.888-37.867-61.513-56.915-92.177-18.509-30.926-38.33-61.107-56.585-92.151 17.37-11.326 26.63-31.673 27.71-51.946.583-20.419-8.72-41.542-26.076-52.969-12.923-10.247-33.173-13.278-47.716-10.96-16.905 2.269-32.027 11.942-42.077 25.565-20.447 27.538-11.649 70.615 15.824 89.624 8.295 6.192 18.472 9.227 28.573 10.652 5.613.555 11.313.457 16.906-.187 2.353-.03 5.94-1.327 7.3.196.938 2.267 1.954 4.582 2.603 6.99 5.174 17.754 11.717 35.076 17.06 52.775 20.772 65.25 42.73 130.126 63.644 195.32 4.237 13.425 1.146 28.034 1.835 41.827-1.328 53.642-.911 107.307-2.452 160.937-.242 20.527 19.964 30.245 34.584 35.982 31.123 10.841 64.147 15.02 96.818 17.972 25.749 2.221 51.647 2.765 77.477 2.024 37.217-1.17 74.917-3.182 111.159-12.518 16.494-3.98 36.284-11.14 47.185-22.834 13.598-12.568 6.857-36.434 7.643-52.077-.3-39.62-.709-79.242-1.353-118.844-.061-14.755-.98-29.541-.49-44.28 13.095-44.477 28.624-88.376 42.583-132.623 7.174-22.024 14.079-44.118 21.66-66.002a990 990 0 0 1 10.671-33.03c4.454-10.434 6.674-24.045 11.429-33.266M1179 953.76c-1.36 19.317 16.359 36.842 35.413 35.206 18.807.412 33.854-17.353 32.278-35.709-.068-18.828-17.104-34.12-35.808-32.252-17.03-.634-32.96 15.506-31.883 32.755m105 155.678c.342.41.631.299 1 .062-.32-.203-.644-.43-1-.062m1 1.812c17.161 53.456 36.935 106.249 54 159.75 11.236-3.04 22.925-4.84 34-8.5-30.207-49.781-57.28-102.19-88-151.5zm24.452-234.73c.207 23.478 18.914 37.874 39.715 35.296 18.73-1.46 31.644-21.84 27.637-39.516-2.693-20.544-21.63-30.697-39.477-27.536-16.215 1.51-27.267 16.284-27.875 31.755M1427 2102v-86h-78c-8.138 1.08-17.097-1.413-25 1v74.288c.422 3.149-.898 9.126 2.423 10.265 27.492 1.275 55.207-.232 82.727.447zm-103 109h103v-83h-103zm22-451.75c33.11 8.227 69.268 21.29 91.76 48.964 11.342 13.92 16.544 33.272 12.208 50.826-4.162 17.64-17.058 31.156-31.968 40.46 36.273 1.426 73.05-.26 109.419.5h27.58c2.629-.255 8.299.44 8.654-2.713 6.032-21.082 9.946-42.798 14.62-64.202 4.652-24.601 9.861-49.192 12.727-74.085-81.62.38-163.434-.463-245 .25m8.486-284.208c.416 12.005 17.26 17.64 25.382 19.772 29.856 7.882 61.072 8.558 91.71 9.334 24.305 1.28 48.632.37 72.942-.207 17.392-.833 34.85-1.761 52.101-4.237 12.29-2.061 24.9-4.086 36.26-9.47 7.306-3.544 16.616-10.553 10.582-20.787-9.424-10.291-26.896-12.713-38.438-15.737-14.037-2.908-28.369-4.023-42.625-5.075-34.696-2.308-69.557-1.582-104.294-1.411-16.989.936-34.05 1.624-50.861 4.398-15.344 2.824-31.188 5.738-44.97 13.402-3.03 2.29-7.969 6.5-7.789 10.018M1356 1436c46.888-12.933 95.811-16.701 144.29-16 48.296-.77 97.057 3.119 143.71 16v-29c-93.785-24.006-194.204-23.994-288 0zm1-54h1.5c45.892-15.204 94.937-17.836 142.852-18 47.68-.58 95.94 3.886 141.648 18v-31c-93.164-24.137-192.839-23.863-286 0zm1-56c45.956-14.196 94.312-18.603 142.215-18 47.762-.575 95.986 3.85 141.785 18v-31c-46.682-12.53-95.47-17.855-143.77-18-47.12.258-94.738 5.873-140.23 18zm42-68c6.644-.822 13.23-2.186 19.89-2.93 6.673-.891 13.548-.441 20.11-2.07-20.978-71.051-43.241-142.114-64.5-213 7.043 72.347 16.775 145.502 24.5 218m66.426-411.961c.146 9.618 3.594 19.41 10.615 25.8 8.02 8.245 17.193 9.94 27.47 9.097 18.11-1.118 30.79-20.88 28.631-37.942-.679-18.493-19.468-32.03-37.329-29.451-16.554 1.25-28.833 16.382-29.387 32.496M1469 1249.5v1.5h62c-5.551-42.904-10.157-86.058-15.256-129.03-4.452-43.364-11.226-86.54-14.744-129.97h-2c-3.59 43.086-10.32 85.924-14.616 128.946-5.243 42.653-9.513 86.189-15.384 128.554m91 2.25c1.61 3.232 8.183 1.564 10.791 2.582 9.78.81 19.519 2.2 29.209 3.668 7.557-72.618 17.28-145.45 24.5-218-10.9 35.536-21.798 71.112-32.43 106.734-11.122 34.685-20.86 70.578-32.07 105.016M1678 2102v-86h-84c-8.832 1.012-18.376-1.346-27 1v74.288c.422 3.149-.899 9.126 2.423 10.265 27.503 1.275 55.23-.232 82.76.447zm-111 109h111v-83h-111zm0 129h111c3.99-.01 9.154.739 12.398-3.282 17.845-21.07 35.997-41.988 53.602-63.218-10.507.998-21.43 3.636-32.174 3.46-11.285.109-22.555-.015-33.826.04v-40h-111zm55.469-1461.514c.352 10.375 4.22 20.347 12.468 26.77 8.337 6.871 19.964 8.157 30.255 5.93 18.368-4.08 28.514-24.342 24.303-41.826-3.9-20.158-24.133-27.674-42.043-23.895-17.213 3.419-24.479 17.926-24.983 33.02m4.531 384.139c11.089 3.172 22.73 5.669 34 8.375 16.216-53.634 37.938-106.366 53.5-160-14.887 25.061-29.161 50.672-43.878 75.865-14.447 25.127-29.216 50.827-43.622 75.76m88-153.187c.342.41.631.299 1 .062-.32-.203-.644-.43-1-.062m38.171-154.418c.214 9.39 3.66 18.608 10.446 25.072 6.62 6.96 16.628 9.321 25.887 8.85 18.487-.656 33.206-17.987 31.49-36.325.553-18.964-18.296-33.853-36.36-31.548-18.19.11-31.639 16.51-31.463 33.951" style="fill:#000;fill-rule:evenodd;stroke:none"/></svg>