<svg xmlns="http://www.w3.org/2000/svg" width="3000" height="3000"><path d="M291 2812.5c402.66 1.426 806.125-.26 1208.95.5 402.946-.76 806.184.926 1209.05-.5-66.691-393.12-131.048-787.321-197.186-1180.681C2447.104 1239.148 2380.056 846.747 2316 454c-136.143-44.935-272.089-90.768-408.181-135.9-102.008-33.974-204.008-68.03-306-102-19.182-6.399-38.38-12.77-57.553-19.171-8.997-3.033-18.01-5.99-27-9-7.928-3.04-16.863-7.25-26.38-2.738-134.51 44.908-269.079 89.643-403.589 134.55C952.797 364.27 818.541 409.675 684 454c-64.117 393.376-131.371 786.397-196.109 1179.703C421.811 2026.161 357.548 2420.573 291 2812.5m117-98.5h2184c-120.904-728.388-242.893-1456.649-364-2185-108.993-35.853-217.766-72.652-326.703-108.74-95.375-31.738-190.672-63.587-286.031-95.331-20.826-6.932-41.63-13.894-62.447-20.829l-30.553-10.171c-9.81-2.753-20.919-8.956-29.255-5.435-156.394 52.155-312.802 104.26-469.192 156.406-58.68 19.531-117.334 39.097-175.992 58.657-12.848 4.31-25.692 8.54-38.528 12.838-6.322 2.14-12.689 4.207-19.002 6.345-5.984 2.134-13.43 3.962-17.923 7.164C706.668 915.32 643.999 1301.592 578.97 1687.2 522.178 2029.474 464.56 2371.715 408 2714" style="fill:#757575;fill-rule:evenodd;stroke:none"/><path d="M407 2715h2186c-120.11-729.14-243.257-1457.94-364-2187-109.157-35.927-218.092-72.748-327.181-108.9-95.331-31.722-190.626-63.585-285.954-95.3q-31.498-10.534-63-21l-30.566-10.195c-9.852-3-21.422-9.034-30-5.21-156.482 52.2-313.005 104.314-469.48 156.505-58.68 19.531-117.334 39.097-175.992 58.657-12.848 4.31-25.692 8.54-38.528 12.838-6.322 2.14-12.689 4.207-19.002 6.345-5.984 2.134-13.43 3.962-17.923 7.164-65.8 385.905-128.542 772.695-193.648 1158.784C521.372 2030.17 462.67 2372.459 407 2715" style="fill:#000;fill-rule:evenodd;stroke:none"/></svg>