<svg xmlns="http://www.w3.org/2000/svg" width="3000" height="3000"><path d="M326 2802.5v1.5h2347c-.373-12.822-4.058-25.348-5.508-38.051-117.27-703.542-234.496-1407.1-351.766-2110.637-7.344-43.997-14.655-88.002-22-132-3.6-21.02-6.91-42.124-10.625-63.12-1.141-5.243-8.647-5.77-12.81-7.59-158.488-52.846-316.994-105.666-475.472-158.502-59.502-19.835-119.024-39.669-178.52-59.495-26.013-8.653-52-17.351-78-26-12.476-3.645-24.567-8.834-37.16-12.04-6.368-.025-12.224 3.635-18.313 4.993-92.992 31.026-186.022 61.963-279 93A1893485 1893485 0 0 0 785.82 433.9c-17.522 5.819-35.005 11.685-52.52 17.495-3.82 1.309-7.668 2.508-11.462 3.872-7.078 2.018-5.509 14.447-7.54 19.93a1026382 1026382 0 0 1-55.17 330.994C547.67 1471.398 438 2137.571 326 2802.5m668-1508.125c2.271 2.349 5.487 3.786 7.344 6.625 24.155-14.628 46.611-32.531 68.577-50.282 10.986-9.147 22.055-18.23 32.181-28.32 4.904-5.31 10.605-9.752 15.768-14.768 5.083-3.684 9.772-12.6 15.13-13.63-.753 60.531-1.577 121.332-9.02 181.476-1.761 14.82-4.197 29.567-8.106 43.986-3.036 10.104-6.16 20.332-11.566 29.474-8.567 14.504-31.358 11.371-44.979 10.593-16.038-2.134-32.356-2.021-48.329-4.529v13c23.67 4.432 47.398 25.646 52.796 47.209 3.406 12.643 4.778 25.735 5.534 38.766 1.38 12.911-.15 28.258 1.67 40.025 40.477-2.297 95.897-3.88 126.946-47.477 25.613-38.87 36.24-84.853 43.255-130.114 11.008-67.638 12.685-136.231 11.797-204.596-1.193-51.212-2.915-102.501-8.943-153.41-7.061-73.512-21.24-147.158-52.476-214.538-1.522-3.814-4.767-8.476-1.414-12.484 20.238-25.245 40.107-50.783 58.511-77.398 9.264-13.056 17.978-26.448 26.612-39.903 4.595-8.816 15.549-5.058 22.939-6.989a26.53 26.53 0 0 0 11.728-5.318c3.029-2.298 6.787-5.34 7.045-8.773-25.87-11.304-51.233-24.202-76.796-36.283-25.459-12.415-51.329-24.187-76.704-36.717-6.177 20.147-10.373 41.101-17.5 61.02-2.957 9.984-6.598 19.758-9.74 29.683-1.66 5.06-3.353 10.113-5.069 15.141-1.791 3.94-2.888 10.65-7.191 11.156-28.292-34.521-63.59-64.41-99.5-91-2.992 2.722-6.596 4.668-9.5 7.5 18.516 26.039 33.05 54.791 47.283 83.296 10.33 22.445 19.69 45.328 27.117 68.909 1.26 4.495 3.284 9.81 3.358 14.137-1.004 8.689-7.524 17.35-9.843 24.888-12.91 27.157-25.655 54.487-41.205 80.26-7.08 12.806-14.944 25.088-22.861 37.37-3.88 6.182-8.377 11.963-12.246 18.159-1.916 2.815-5.018 6.187-4.981 9.189 2.084 2.894 3.948 6.044 6.878 8.292 18.672-12.736 37.373-25.466 54.907-39.804 8.877-7.226 17.48-14.816 26.286-22.12 4.558-3.504 8.399-7.776 12.545-11.726 4.42-2.975 9.309-9.493 13.762-10.35 1.57 17.656 6.576 35.067 5.989 52.913-7.302 59.714-24.26 118.285-46.216 174.191-20.75 54.186-48.04 106.125-81.773 153.271m23 835.125c3.694 8.763 4.032 19.559 8.804 26.847 10.557 1.606 21.517-.083 32.153.653H1423v270.6c-.322 11.288.664 22.73-1.026 33.933-1.477 10.299-11.034 13.787-20.135 13.464-33.41.36-66.722-1.825-100.019-3.967-32.939-1.702-65.947-2.255-98.82-5.03v11c34.585 5.91 69.748 14.427 100.085 32.701 12.668 7.666 24.587 16.833 34.639 27.75 19.962 22.018 26.03 51.819 30.069 80.228 1.515 6.15 1.559 13.633 2.613 19.289-.158 3.397 5.386 2.443 7.435 2.335 47.887-5.165 97.918-11.795 140.562-35.986 15.497-8.58 28.587-21.14 38.707-35.581 16.579-26.765 22.07-64.345 22.882-92.613.022-106.04-.004-212.095.008-318.123h364.8c15.397-.091 36.068.044 41.2-15.543-24.479-21.345-50.217-41.203-75.945-60.993-25.914-18.935-50.884-40.155-77.055-58.464-12.973 19.116-29.411 36.648-43.068 55.457-10.856 14.038-22.07 27.816-32.906 41.87-2.049 2.728-4.118 5.421-6.36 7.995-2.35 2.813-6.301 1.97-9.398 1.747-53.756-.196-107.513.035-161.268-.069v-142c12.802-3.724 33.1-6.916 35-27-5.365.108-10.687-.407-16-1v-3c28.004-10.532 54.752-25.179 81.844-37.936 40.75-19.663 80.15-42.044 119.706-63.948 18.105-10.737 36.407-21.129 54.525-31.841 4.805-3.007 9.673-5.896 14.466-8.917 6.34-3.745 16.51-3.873 24.883-6.346 7.214-2.327 17.364-5.34 20.576-11.512-45.271-39.74-91.052-78.972-136.5-118.5-19.41 17.108-37.576 35.604-56.37 53.37-8.21 7.91-16.788 15.448-24.725 23.66-4.01 4.11-11.316 2.75-16.46 2.97-185.586.76-371.433-.926-556.945.5 3.528 8.832 5.668 18.535 9 27.5h554v2.5c-31.741 45.655-65.692 89.807-102.2 131.784-9.206 11.08-19.611 21.032-28.885 32.032-3.325 4.991-10.45 3.36-15.483 2.763-39.109-3.724-78.37-6.125-117.432-10.079v185h-406zm259-564.5c15.948.003 32.029-.004 47.756-3.037 21.053-4.482 41.388-13.487 57.887-27.46 10.572-8.101 8.482-20.037 8.357-31.611V1466h34v53c31.58 1.203 63.121-5.087 91.806-18.538 5.73-2.704 15.33-6.97 16.035-12.849.453-25.55-.082-51.116.159-76.67V1203c4.885-.899 9.666-2.13 14.172-4.268 4.619-1.474 9.773-6.298 13.828-6.732v282c15.532.334 31.128.311 46.361-3.161 10.614-2.369 20.822-6.382 30.488-11.282 6.679-3.434 12.984-7.54 18.897-12.143 5.912-4.207 7.778-9.861 7.254-16.379V882h33v717c35.734.7 73.813.35 105.16-19.586 6.518-4.497 16.325-9.541 17.59-16.869.714-28.908-.13-57.862.25-86.771V1358c9.272.204 15.77 13.425 19.077 19.33 11.549 29.418 8.007 62.014 10.423 92.67 17.703-3.381 36.495-4.623 53.635-11.207 14.266-4.51 30.236-13.5 39.25-24.023 18.445-21.506 21.921-51.046 23.896-78.172 2.05-91.722-.373-183.535.719-275.262V894c10.362-1.238 23.478-7.461 29-15.5-28.934-23.161-59.263-44.62-88.626-67.244-3.673-2.742-7.104-5.815-10.96-8.312-3.92-3.262-6.76 1.607-9.342 4.443-9.71 10.628-18.715 21.892-28.36 32.57-2.242 2.793-4.563 5.488-7.053 8.05-1.817 2.124-3.424 4.503-5.844 6.007-8.14 2.176-17.42.124-25.815.986V727h149.4c12.662-.477 31.676 2.235 38.6-15.543-18.499-16.71-37.414-32.959-56.803-48.639C1930.77 648.134 1912.46 631.084 1892 618c-18.797 22.963-36.177 47.418-54.544 70.773-3.21 3.896-6.026 10.405-12.758 10.203-48.39.07-96.791-.013-145.169.024H1570.35c-11.378.693-25.036-1.026-35.35 1 3.247 8.484 4.497 19.695 8.456 26.183 9.978 1.93 20.553-.024 30.674.817H1696v128c-13.184.282-26.66 1.284-38.724-4.698-32.529-13.139-64.544-27.75-97.276-40.302v376c-5.024-.276-9.266-5.176-12.978-7.47-28.65-19.302-54.694-42.877-83.678-61.53-10.401 10.837-21.312 21.241-31.82 31.975-5.438 4.892-10.946 11.828-16.554 15.554-8.25 1-16.676.1-24.97.471v-122h34v25c16.577.456 33.3.627 49.514-3.419 11.155-2.465 21.976-6.146 32.76-9.845 7.539-2.82 16.4-6.547 22.608-10.584 4.729-4.063 2.546-13.173 3.118-19.7V810c10.066-2.37 23.272-6.332 28-14.5-15.69-12.362-32.29-23.6-47.977-35.972-8.04-5.958-15.972-12.05-24-18-8.288-5.11-16.506-13.836-24.68-17.528-11.546 11.985-23.566 23.493-35.213 35.37-5.592 5.491-11.086 13.805-20.616 12.63-4.699-.123-9.406.243-14.069-.36-3.99-.62-7.511-2.848-11.445-3.64.333-4.31 5.707-7.6 7.988-9.784 23.126-21.956 47.018-43.172 67.92-67.342 5.439-5.917 10.888-11.79 15.9-18.078 3.855-4.457 7.54-9.044 11.152-13.689 2.842-4.158 7.283-3.961 11.717-4.825 10.777-2.502 25.928-9.12 27.323-23.282-55.132-4.685-109.98-13.24-165-19-1.024 46.805-5.795 93.524-11 140-24.788-6.802-47.293-21.875-72-29zm114-550h34V800h-34zm0 423h34v-245h-34zm429-100h16.2c7.07.576 16.218.29 17.309-9.764 1.057-8.14.089-16.446.491-24.619V882h-34z" style="fill:#fda;fill-rule:evenodd;stroke:none"/><path d="M204 2906.5c431.66 1.426 864.125-.26 1295.95.5 431.946-.76 864.184.926 1296.05-.5-71.347-421.454-140.17-844.031-211.186-1265.681C2515.49 1219.807 2443.894 799.05 2375 378c-18.825-4.147-36.622-12.377-55.173-17.557-141.343-47.107-282.688-94.208-424.008-141.343-105.996-35.346-212.02-70.658-318-106l-60-20c-4.743-1.483-9.392-3.202-14.133-4.67-4.689-1.596-9.296.594-13.846 2.121-144.162 48.092-288.385 96.1-432.543 144.19-72.152 24.045-144.327 48.113-216.478 72.159-35.996 12.013-72.02 23.992-108 36-18 6.028-36 11.971-54 18-9.01 3.004-18.013 5.972-27 9-8.742 2.234-18.56 7.118-26.819 8.1-68.995 421.677-140.705 843.07-210.109 1264.703C344.003 2063.481 275.132 2486.22 204 2906.5m123-104c781.355 1.426 1563.485-.26 2345 .5-118.785-721.214-240.618-1442.068-360.03-2163.199-7.528-45.17-15.046-90.339-22.588-135.492-1.756-10.718-3.574-21.44-5.367-32.15-1.463-5.102-.632-13.609-5.65-15.42-82.419-27.818-165.08-54.96-247.546-82.639-144.35-48.044-288.615-96.253-432.954-144.3-27.19-9.095-54.376-18.14-81.566-27.195-6.024-1.707-14.13-5.746-19.294-4.368-99.967 33.09-199.81 66.647-299.74 99.834a5130220 5130220 0 0 1-448.968 149.67c-9.274 3.513-19.03 5.778-28.13 9.725-3.665 1.962-2.298 9.57-3.876 12.727-22.54 135.51-45.194 271.003-67.739 406.508C540.73 1518.187 435.508 2161.522 327 2802.5" style="fill:gray;fill-rule:evenodd;stroke:none"/><path d="M1001.656 1303c23.146-15.594 46.275-31.876 67.683-49.927 20.99-17.773 45.445-39.124 62.161-58.073 1.592 30.401-1.553 61.456-1.555 91.97-2.275 44.008-4.581 88.505-15.07 131.492-2.934 9.924-6.095 19.917-11.236 28.96-9.465 15.632-30.44 11.42-44.034 11.044-16.507-1.714-33.112-2.68-49.605-4.466v15c23.67 4.432 47.398 25.646 52.796 47.209 3.406 12.643 4.778 25.735 5.534 38.766 1.38 12.911-.15 28.258 1.67 40.025 24.492-.368 49.068-2.453 72.72-9.188 15.83-4.56 33.81-13.351 44.382-24.414 17.915-18 27.535-42.497 36.802-65.582 9-24.7 13.804-50.552 17.932-76.416 15.46-99.892 14.126-201.607 8.491-302.24-5.982-96.523-19.844-194.414-61.327-282.773 21.632-24.812 40.642-51.894 60.034-78.436 9.452-13.406 18.415-27.078 27.254-40.87 4.724-8.92 15.975-4.925 23.471-7.099 7.553-1.81 16.273-7.6 19.241-14.31-51.233-26.651-104.87-49.687-156.5-75.672-11.47 39.362-21.002 80.147-37 118-29.445-34.782-64.427-64.89-101-92-2.15 2.154-4.654 3.8-7.014 5.689-1.558 1.236-3.445 3.05-2.897 4.817 3.3 4.9 6.225 10.187 9.499 15.13 16.266 25.068 29.772 51.76 42.09 78.937 9.067 21.25 17.754 42.773 24.261 64.97 3.082 8.851-2.265 15.743-5.52 23.608-23.514 53.493-52.442 104.582-85.919 152.349 3.125 3.553 5.93 7.353 9.5 10.5 8.712-7.227 18.887-12.6 27.807-19.581 27.406-20.133 53.804-41.714 78.193-65.419 3.005 17.405 6.79 38.508 6.34 54.824-8.448 61.06-25.641 120.676-48.882 177.702a701 701 0 0 1-39.03 82.537c-7.191 13.073-14.803 25.867-22.767 38.484-4.2 6.083-8.416 12.159-12.444 18.358-1.553 2.877-5.093 6.207-3.666 8.982 2.387 1.711 4.83 4.965 7.605 7.113M1015 2128.25c2.955 6.134 3.496 13.513 6.04 19.874.536 2.602 1.604 5.045 2.36 7.561 2.045 4.135 10.515 1.233 13.784 2.315H1422v269.4c-.319 11.21.698 22.596-1.138 33.704-1.487 10.434-12.502 13.449-20.613 12.895-33.31.522-66.48-2.344-99.691-4.008-32.857-1.612-65.746-2.551-98.558-4.991v13c34.585 5.91 69.748 14.427 100.085 32.701 12.668 7.666 24.587 16.833 34.639 27.75 19.962 22.018 26.03 51.819 30.069 80.228 1.517 6.15 1.557 13.63 2.616 19.297-.142 3.39 5.496 2.637 7.54 2.529 48.492-5.218 99.262-11.623 142.454-36.188 15.497-8.58 28.587-21.14 38.707-35.581 16.579-26.765 22.07-64.345 22.882-92.613.022-106.04-.004-212.095.008-318.123h366c14.002.147 33.91.219 41-16.5-49.626-42.753-102.903-81.232-154.5-121.5-28.938 36.085-57.238 72.784-86 109-2.614-1.524-6.816-.694-10.25-1H1581v-140c14.515-3.43 33.428-7.93 36-29-5.665-.076-11.499.17-17-1.5 55.254-23.967 108.946-51.677 161.83-80.396 26.14-13.777 51.564-28.862 77.079-43.755 13.026-6.46 24.77-15.923 37.9-21.959 13.793-2.165 33.246-4.793 40.191-15.89-45.597-40.786-92.716-79.917-138.5-120.5-19.236 17.19-37.527 35.466-56.233 53.233-8.037 8.117-16.723 15.56-24.72 23.716-4.227 5.137-10.94 4.082-16.403 4.051H1123c1.722 10.303 6.474 19.922 9 30 184.568.76 369.55-.926 554 .5-31.741 45.655-65.692 89.807-102.2 131.784-9.102 10.948-19.39 20.792-28.554 31.652-3.796 5.441-9.42 3.477-15.138 3.04-39.372-3.381-78.758-6.466-118.108-9.976v185h-407zM1275 1566c16.168.063 32.43.108 48.393-2.773 21.389-4.316 42.108-13.317 58.885-27.426 10.927-8.031 8.923-20.171 8.722-31.91V1467h32v53c32.265 1.349 64.511-4.588 93.806-18.538 6.119-3.133 15.63-6.744 16.093-13.428.288-26.157-.053-52.337.101-78.489V1204c9.277-1.66 18.02-5.268 25.5-11 1.426 93.875-.26 188.06.5 282 15.854.298 31.845.477 47.425-2.979 10.545-2.278 20.766-6.146 30.4-10.95 7.055-3.523 13.712-7.822 19.921-12.657 6.166-4.359 7.83-10.265 7.254-16.978V883h31v717c36.507.733 75.526.694 107.541-19.804 6.598-4.476 16.46-9.672 17.282-17.242.505-29.328-.092-58.656.177-87.975V1359c8.513 2.562 13.988 13.529 17.637 20.63 10.243 28.294 8.545 64.36 9.363 91.37 20.005-2.692 40.193-5.232 59.273-12.264 13.341-4.984 26.58-12.146 36.112-22.966 15.207-16.62 19.97-39.141 22.256-60.77 3.027-23.855 2.46-47.94 2.359-71.914V895c12.006-1.096 22.761-8.114 31-16.5-36.072-25.452-70.024-54.915-106.656-79.5-10.096 11.848-20.599 23.369-30.578 35.32-5.212 5.824-9.968 12.03-15.452 17.588-3.461 2.85-8.277 1.899-12.485 2.092H1820V728h149.4c14.043.256 33.146.386 37.78-14.242 1.851-4.95-6.385-8.707-8.654-11.729-27.139-23.953-55.194-46.926-83.739-69.192-7.7-5.135-15.671-13.306-23.443-16.837-18.182 23.551-36.164 47.304-54.27 70.914-3.432 4.438-6.93 10.992-12.192 11.003-48.58.236-97.18-.043-145.753.083H1569.35c-11.378.693-25.036-1.026-35.35 1 1.063 8.514 4.746 16.58 6.629 24.916 1.364 5.361 7.979 3.77 12.142 4.084H1695v126c-6.826-.005-13.624.006-20.44-.004-10.748-.499-20.07-7.49-30.194-10.465C1615.8 832.009 1587.623 819.284 1559 808v377h-1.5c-15.258-12.232-31.62-23.155-46.96-35.31-15.936-11.074-30.77-24.242-47.04-34.69l-31.87 31.87c-5.43 4.894-10.935 11.645-16.262 15.736-6.826 2.968-17.13.285-24.368 1.394v-120h32v25c16.705.359 33.49.654 49.877-3.06 11.537-2.43 22.718-6.202 33.848-10.019 7.723-2.85 16.807-6.645 23.157-10.769 4.81-4.208 2.465-13.604 3.118-20.299V811c10.556-2.369 24.263-6.831 29-15.5-15.748-13.031-33.078-24.11-48.977-36.972-16.75-11.709-32.445-25.43-49.523-36.528l-34.87 34.87c-6.014 5.494-12.135 14.533-19.76 14.122-8.905.755-18.024.215-25.87-4.492 25.045-22.69 48.894-46.552 72.546-70.632 11.291-12.236 21.94-25.09 32.515-37.902 6.405-3.393 15.657-2.152 22.902-7.514 7.577-3.762 12.814-10.878 15.037-18.92-2.528-1.979-7.08-1.448-10.704-2.1C1462.848 623.352 1410.44 617.02 1358 611c-1.024 46.805-5.795 93.524-11 140-24.233-9.161-47.601-21.298-72-30zm116-552h32V801h-32zm0 423h32v-243h-32zm429-100h15.6c6.773.58 15-.45 15.909-9.764 1.017-7.539.129-15.248.491-22.82V883h-32z" style="fill:#000;fill-rule:evenodd;stroke:none"/></svg>