<svg xmlns="http://www.w3.org/2000/svg" width="3000" height="3000"><path d="M406 2716h2188c-.452-13.213-4.171-26.125-5.71-39.208C2468.846 1960.196 2349.431 1243.585 2230 527c-109.325-35.987-218.457-72.878-327.734-109.071-95.467-31.86-190.966-63.65-286.44-95.486-21.006-7.01-42.008-13.98-63-21l-30.529-10.183c-9.47-3.025-21.252-8.92-30.35-5.086-156.884 52.344-313.79 104.58-470.681 156.897-58.813 19.64-117.642 39.186-176.447 58.829-13.016 4.296-26.007 8.68-39 13-6.335 2.066-12.631 4.23-18.954 6.3-3.19 1.104-6.385 2.128-9.576 3.212-7.976 1.527-8.94 7.943-9.29 14.656-63.894 383.21-127.754 766.408-191.617 1149.624-28.466 171.167-57.103 342.324-85.568 513.49-14.29 85.674-28.582 171.345-42.844 257.017-7.145 42.829-14.299 85.67-21.418 128.502-3.57 21.335-7.128 42.665-10.66 64.002-1.808 10.66-3.57 21.336-5.34 31.998-1.36 10.463-4.53 22.595-4.552 32.299m625-1083.625c1.505 2.428 3.594 4.624 4 7.625 52.328-18.398 101.635-45.203 150.312-71.527 70.058-40.016 136.827-85.98 198.077-138.604C1444.725 1375.732 1504.736 1316.72 1547 1246h3c23.066 77.593 66.488 148.526 121.374 207.666 55.307 58.387 120.889 105.932 190.126 146.334 6.613-32.575 20.418-63.944 40.9-90.222 14.552-19.457 33.142-36.078 55.437-46.17 4.372-2.203 9.224-3.174 13.667-5.152 4.286-1.563 4.87-8.153 4.226-11.59.129-4.422-7.077-4.576-10.003-5.693-60.465-13.89-120.375-30.47-178.538-52.105-43.38-16.32-85.813-35.423-124.47-61.235-19.175-12.664-38.223-25.71-54.951-41.565-8.974-7.653-17.233-15.887-24.87-24.87-4.288-4.104-7.845-8.87-11.555-13.48-2.934-4.265-8.71-9.474-9.343-13.918 19.232-.718 42.577-4.052 54-21.5-34.45-10.416-70.029-17.748-104.674-27.659-35.568-8.243-70.581-19.577-106.326-26.841-12.025 50.544-37.246 96.62-63.445 140.946-40.037 64.393-86.277 125.324-138.4 180.438C1150.84 1535.289 1094.285 1588.638 1031 1632zm899 395.938c-20.38-18.62-42.089-35.788-63.81-52.788-21.48-17.68-43.031-35.397-65.69-51.525-13.72 15.769-25.284 33.32-38.847 49.23-9.235 12.726-19.467 24.716-28.865 37.319-2.121 1.972-3.529 5.392-6.078 5.988-50.822 1.32-101.86-.24-152.71.463v-375h170.4c17.246-.287 39.783 3.156 47.6-13.5-36.572-34.278-77.863-63.042-117.5-93.5-11.794 13.805-22.47 28.602-33.955 42.666-9.947 12.456-19.688 25.123-29.73 37.478-2.526 2.536-7.593 1.623-11.514 1.856H1222c1.472 7.344 4.111 15.912 6.255 22.427 1.34 3.866 8.74 1.935 11.523 2.573H1427v375h-314c1.26 7.533 4.74 16.047 6.448 22.806 1.796 3.63 9.048 1.393 11.946 2.194h759.754c14.35.206 33.983 1.416 38.852-13.687" style="fill:#fda;fill-rule:evenodd;stroke:none"/><path d="M291 2812.5c402.66 1.426 806.125-.26 1208.95.5 402.946-.76 806.184.926 1209.05-.5-66.691-393.12-131.048-787.321-197.186-1180.681C2447.104 1239.148 2380.056 846.747 2316 454c-136.143-44.935-272.089-90.768-408.181-135.9-102.008-33.974-204.008-68.03-306-102-19.182-6.399-38.38-12.77-57.553-19.171-8.997-3.033-18.01-5.99-27-9-7.928-3.04-16.863-7.25-26.38-2.738-134.51 44.908-269.079 89.643-403.589 134.55C952.797 364.27 818.541 409.675 684 454c-64.117 393.376-131.371 786.397-196.109 1179.703C421.811 2026.161 357.548 2420.573 291 2812.5m116-97.5h2186c-120.11-729.14-243.257-1457.94-364-2187-109.157-35.927-218.092-72.748-327.181-108.9-95.331-31.722-190.626-63.585-285.954-95.3q-31.498-10.534-63-21l-30.566-10.195c-9.852-3-21.422-9.034-30-5.21-156.482 52.2-313.005 104.314-469.48 156.505-58.858 19.6-117.69 39.211-176.522 58.84-12.832 4.262-25.65 8.528-38.47 12.817-6.336 2.128-12.684 4.227-19.008 6.343-5.33 2.846-14.097 3.151-17.405 7.24-66.013 385.799-128.474 772.546-193.688 1158.548C521.372 2030.17 462.67 2372.459 407 2715" style="fill:gray;fill-rule:evenodd;stroke:none"/><path d="M1111 2016.75c.263.9.826 1.619 1.5 2.25 4.98-2.356 12.977.022 19.25-1H1428v-376h-2v374h-315zm462 1.25h155v-2h-153c.76-124.503-.926-249.679.5-374h-2.5z" style="fill:#40372b;fill-rule:evenodd;stroke:none"/><path d="M1030 1632.5c1.37 3.128 4.139 7.036 5.5 9.5 51.818-20.414 101.955-44.87 150.427-72.276 70.147-40.158 137.129-86.075 198.462-138.855 61.995-53.892 120.72-113.59 164.111-183.869 24.417 77.67 66.68 149.248 122.561 208.441 55.848 58.346 121.482 106.55 191.439 146.559 5.955-33.051 20.48-64.637 40.9-91.222 14.868-19.922 34.029-36.855 56.986-46.867 4.375-2.116 10.224-3.045 13.964-5.56 3.409-2.55 2.455-9.859 2.225-13.285-.397-4.287-8.827-3.653-11.487-5.285-61.954-14.764-123.868-30.93-183.24-54.246-82.88-31.884-164.213-78.074-218.848-150.035 10.738-1.494 21.793-2.273 32.255-5.606 7.904-2.836 19.625-7.626 21.745-18.894-70.518-18.213-141.019-36.642-211.5-55-3.395 4.706-3.814 12.96-6.437 19.191-14.764 47.867-39.957 91.497-65.343 134.272-40.437 61.591-84.761 120.91-135.965 174.056-51.692 53.397-105.889 105.936-167.755 147.481v1.625zm770.5 289.5c-13.227 14.977-24.17 31.877-37.184 47.049-6.58 7.792-12.212 16.353-18.835 24.103-5.144 8.274-13.31 15.068-17.481 23.848h-153v-374c66.024-.811 132.167.99 198.147-.534 7.241-.546 15.078-3.122 18.897-9.888 4.185-5.84-4.971-11.548-8.63-14.76-32.947-28.651-68.015-54.604-102.94-80.713-1.74-1.276-3.464-2.556-4.974-4.105-12.393 13.716-22.726 29.21-34.67 43.294-10.055 12.569-19.868 25.377-30.016 37.85-2.525 2.536-7.592 1.623-11.513 1.856H1220c3.247 8.484 4.497 19.695 8.456 26.184 9.983 1.93 20.565-.025 30.69.816H1427v374h-315c.8 6.576 3.983 15.09 6.079 22.642.71 4.444 8.165 3.053 11.116 3.358h753.759c13.201-.032 29.559 1.482 40.685-4.44 3.872-1.917 7.084-6.672 6.888-10.685-21.813-23.182-49.559-40.538-73.29-61.69-18.617-15.094-37.252-30.236-56.737-44.185" style="fill:#000;fill-rule:evenodd;stroke:none"/></svg>