<svg xmlns="http://www.w3.org/2000/svg" width="3000" height="3000"><path d="M407 2715h2186c-120.11-729.14-243.257-1457.94-364-2187-121.653-40.09-243.099-81.112-364.7-121.395-91.164-30.407-182.32-60.766-273.474-91.162a32206 32206 0 0 1-51.529-17.183c-8.003-2.659-16.01-5.346-24-8-7.038-2.654-14.998-6.446-23.453-2.372-120.19 40.07-240.392 80.12-360.578 120.183C1011.124 447.878 891.186 488.387 771 528c-120.737 729.033-243.897 1457.913-364 2187M1975.5 675c-49.65 5.661-99.889 15.865-145.68 37.074-39.606 16.591-74.9 41.721-105.618 71.425-52.677 54.955-107.951 107.537-161.177 161.976-20.674 19.697-39.869 41.06-60.933 60.29-2.374 2.713-5.954-1.43-7.564-2.744-69.512-69.491-138.997-139-208.503-208.496-32.318-35.781-72.95-63.545-116.888-82.99-22.56-10.4-46.36-17.659-70.29-24.076-12.149-2.979-24.431-5.336-36.755-7.404-12.296-2.774-25.428-2.3-37.592-5.055 3.233 52.976 16.878 106.095 39.596 154.184 11.153 22.7 23.722 44.89 39.545 64.711 15.173 20.93 34.31 38.46 52.461 56.707l181.873 181.873 10.895 10.895c2.93 3.029 8.784 7.05 4.654 11.463-28.014 28.46-55.843 57.066-84.126 85.27l-41.268 41.267c-3.375 3.373-6.736 6.738-10.105 10.104-1.647 1.25-3.761 3.973-5.604 4.026-7.857-4.47-14.315-12.389-21.633-17.872-14.147-11.682-28.466-23.166-43.154-34.158-12.881-9.833-29.825-23.443-50.636-18.466-18.31 3.966-30.934 22.438-27.636 40.765 3.06 17.657 16.357 30.821 26.91 44.304 11.097 13.091 21.909 26.407 33.377 39.165 5.652 6.596 11.454 13.044 17.283 19.458 4.42 7.46 14.454 12.064 15.49 19.792-21.369 25.923-44.265 50.638-65.924 76.333-11.087 12.195-21.53 24.95-32.52 37.21-5.087 5.63-8.98 14.04-19.164 12.935-8.303-.725-16.787-1.487-24.87 1.355-15.338 5.111-25.482 19.784-26.705 35.573-.318 15.553 7.453 29.966 15.973 42.369 17.638 23.062 42.42 48.37 66.69 60.16 13.88 6.921 30.944 7.882 44.775.165 12.934-6.401 21.324-20.984 19.307-35.11-.371-3.985-.515-7.982-.944-11.96-2.089-7.145 5.868-11.907 10.781-16.02 21.309-18.715 42.864-37.149 64.26-55.751 10.6-8.743 20.585-18.236 31.203-26.947 5.3-4.123 10.032-8.923 15.208-13.166 5.975-6.492 10.832 1.506 15.832 5.32 19.552 18.024 40.425 34.595 60.758 51.703 17.739 13.933 40.082 38.51 68.19 28.137 11.656-4.804 20.049-15.797 22.388-28.314 2.096-13.39-3.674-26.054-10.962-36.779-13.564-20.069-29.324-38.455-45.228-56.65-4.06-4.352-7.753-9.052-12.07-13.153-1.649-1.64-5.038-5.306-3.156-7.05 32.274-33.964 66.54-66.231 99.231-99.823l23.627-23.627 11.63-11.63c3.478-3.332 8.112-9.794 12.427-5.844 30.475 29.72 60.145 60.282 90.443 90.178l42.373 42.373c2.464 3.264 8.785 7.17 8.44 11.02-12.304 14.319-25.55 27.987-37.168 42.934-10.253 14.143-24.746 29.586-31.251 44.43-3.69 8.518-5.5 18.493-2.675 27.572 2.547 8.396 7.951 15.854 15.184 20.83 16.295 11.46 33.896 4.807 48.802-4.513 26.835-19.326 53.188-39.591 77.144-62.472 6.38-4.588 11.003-11.198 17.273-15.88 4.124-2.223 7.805 1.055 10.603 3.557 23.076 19.978 46.119 39.982 69.192 59.948 10.921 9.17 21.388 18.862 32.341 27.983 5.273 4.485 10.31 9.245 15.657 13.64 2.746 2.208 1.553 6.692 1.278 9.467-1.684 12.392-2.635 28.813 10.292 39.263 10.214 9.148 24.48 13.704 38.055 11.128 25.516-5.255 44.625-24.716 62.228-42.252 15.976-16.75 32.33-36.524 35.253-60.414 1.629-26.055-19.248-43.435-42.232-42.39-5.586.46-11.254 1.107-16.805.118-28.467-29.84-53.906-62.814-81.83-93.222-5.88-6.94-12.103-13.544-17.865-20.574-2.783-3.238-5.737-6.352-8.229-9.829-3.792-4.329 1.42-8.073 3.761-10.824 22.261-25.145 45.116-49.81 65.696-76.421 8.845-11.027 18.58-22.503 21.35-36.804 2.983-14.272-3.427-29.108-15.934-36.702-11.164-7.726-25.783-7.547-37.885-2.276-21.045 11.239-38.996 27.528-57.873 41.9-8.27 6.7-16.253 13.695-24.151 20.801-1.69 1.537-4.057 3.221-6.01 4.72-2.022 1.192-4.702-2.356-6.217-3.318-27.054-27.579-53.647-55.446-81.501-82.497l-31.13-31.13-13.87-13.87c-3.227-4.622-10.545-8.486-11.405-13.4 61.632-64.46 126.844-126.33 189.24-190.23 19.03-19.59 39.382-38.032 56.76-59.136 51.816-63.667 79.893-145.306 85.007-226.632M1108 1600c-14.897-6.343-25.905-19.464-36.995-30.62-4.077-4.738-7.904-9.708-11.344-14.918-2.776-3.939-4.904-9.869-10.947-9.724-6.595-.529-23.046-3.9-22.612 9.23.487 14.436 15.06 25.93 22.087 35.613 9.82 10.05 19.544 20.321 30.86 28.7 6.618 5.06 14.752 9.117 23.306 7.345 11.17-2.317 6.127-18.892 5.645-25.626m-34.333-860H1071c.511 9.522 4.948 20.191 7.034 28.59 10.64 35.922 28.205 69.743 50.127 99.985 19.98 26.062 44.604 48.056 67.441 71.527l122.268 122.268 46.105 46.105 10.127 10.127c2.876 2.778 7.107 8.14 10.66 4.74 6.841-5.793 12.63-12.755 19.213-18.817l9-9c1.92-2.887 7.672-5.91 6.095-9.349-86.997-88.726-176.015-175.7-263.44-264.046-27.215-27.467-54.865-54.557-81.963-82.13M1150 1550v-4c-10.076-3.113-19.344-12.128-26.102-18.602-2.836-2.9-5.811-5.677-8.495-8.704-2.467-2.493-4.496-6.413-7.86-7.224-5.955-1.322-11.079 4.694-12.17 9.986-1.21 8.326 6.902 18.183 11.151 23.494 5.992 6.495 13.115 11.807 20.798 16.073 7.985 5.36 16.035-8.522 22.05-10.815zm-53-824.5c103.073 105.925 209.755 209.236 313.602 314.602l19.873 19.873c2.91 2.35 6.38 7.602 9.832 7.536 6.53-5.173 11.956-11.721 18.063-17.381l8.605-8.605c2.159-2.525 6.664-5.756 6.528-8.84-2.436-5.943-10.522-10.94-14.373-16.055l-117.363-117.363-58.5-58.5c-19.452-19.301-38.229-39.438-59.7-56.525-36.33-28.686-79.311-48.366-123.976-59.966a13.6 13.6 0 0 0-2.076-.237L1097 724zm1.47 534.985c.921 8.158 6.615 14.297 11.362 20.299 74.596 90.1 154.533 176.443 245.8 249.942 5.697 4.42 11.333 8.876 17.034 13.273 5.353 3.667 11.535 9.491 17.866 9.81 7.993 1.175 8.66-8.34 6.63-13.934-24.844-41.212-60.089-75.058-91.638-110.85-34.213-34.336-68.137-69.006-104.247-101.28-27.634-24.595-55.486-49.336-85.573-70.934-3.871-2.35-8.706-4.535-13.282-2.887-2.573.483-4.053 4.15-3.952 6.561M1126 2567c32.921.372 67.332 1.412 98.211-12.487 14.251-5.431 27.594-13.128 38.934-23.364 7.335-6.102 7.497-13.801 6.855-21.974V2483h612.6c14.609-.02 29.227.024 43.836-.013 11.043-.386 28.628-.196 33.564-14.534-23.553-20.031-48.299-38.659-72.548-57.813-12.183-9.616-24.763-18.695-36.973-28.257-6.166-4.627-12.319-9.211-18.456-13.855-6.054-3.556-13.12-11.436-19.023-12.528-12.366 18.618-28.325 35.557-41.442 53.825-10.74 13.466-21.13 27.191-31.872 40.651-2.133 2.476-3.802 5.967-7.095 6.223-55.506.858-111.078-.156-166.591.301v-240h121v77c21.774.235 43.803.433 65.112-4.802 15.544-3.533 30.999-7.674 45.96-13.223 10.29-4.306 21.225-7.831 30.387-14.418 4.044-3.298 3.475-8.015 3.541-12.698V2014.55c.273-6.392-.518-14.182.735-19.92 7.098-4.762 17.6-4.347 24.543-10.136 3.48-2.05 6.977-4.114 10.127-6.644 2.76-2.612 7.75-5.6 8.595-8.85-24.272-16.79-47.524-36.291-71.327-53.974-17.887-13.704-35.948-27.164-53.704-41.021-2.721-1.718-7.88-7.118-10.399-4.45-10.903 11.646-21.655 23.59-32.481 35.332-7.917 9.114-16.211 17.91-24.325 26.846-3.322 3.111-6.356 7.84-10.402 8.108-35.79.453-71.58-.082-107.362.159v-181h276.6c15.368-.108 30.75.134 46.11-.076 11.56-.711 29.817.353 35.29-14.611-46.948-36.795-94.787-72.553-142.5-108.313-17.459 20.983-34.605 42.292-51.842 63.46-7.54 9.133-14.974 18.34-22.35 27.595-1.87 1.672-4.033 5.427-6.323 5.502-101.203 1.263-202.618-.23-303.853.443h-104.954c-7.775.967-14.972-1.262-21.934-4.43-48.107-17.058-95.976-35.083-144.244-51.57zm62-1048c-.2-3.33-4.122-5.18-6.449-6.981-9.244-6.302-16.936-14.592-23.758-23.36-3.735-3.715-6.22-10.653-10.488-12.435-6.22-2.675-10.496.892-12.749 5.888-4.777 7.658 2.277 18.22 6.681 23.856 5.31 6.588 12.658 13.502 18.632 18.414 4.328 3.6 9.613 8.308 14.104 4.128 4.55-2.655 9.763-8.299 14.027-9.51m37-36c-5.924-1.789-10.312-6.842-15.402-10.097-8.351-6.925-17.595-15.833-23.704-23.71-2.433-2.8-3.74-7.05-7.06-8.947-3.509-1.732-7.915-1.394-11.269.389-9.556 10.638-1.153 25.285 6.668 32.098 8.579 8.604 19.562 17.747 28.577 24.284 4.103 3.257 8.2-.808 11.538-3.242 3.474-2.621 7.057-5.114 10.113-8.214.218-.848.45-1.688.539-2.561m678-759c-36.528 8.03-71.177 24.125-103.052 43.372-29.924 18.722-54.463 44.296-79.05 69.23-94.484 93.688-187.792 188.255-281.5 282.5l-106.13 106.13c-30.633 31.04-61.952 61.456-92.393 92.661-3.713 3.487 3.08 8.189 5.227 10.71l20.268 20.267c2.719 2.69 6.286 7.464 10.182 3.89 202.75-202.214 404.925-405.022 607.55-607.362l10.5-10.5c2.995-3.441 7.944-6.788 8.398-10.898m-633 1216h157v-181h-157zm0 252h417v-226h-417zm0 265h157v-240h-157zm659-1717c-3.89.322-6.72 4.673-9.475 6.975l-528.758 528.758-66.37 66.37c-9.637 9.83-19.61 19.374-29.153 29.28-5.044 4.896 4.271 11.301 7.231 14.592l13.127 13.127c4.357 3.825 8.114 9.732 12.461 12.821 4.727 2.484 9.813-6.535 13.04-8.525L1848.87 895.63c40.119-42.903 68.994-97.818 80.13-155.63m-402.502 529.469c4.115 7.26 11.974 12.364 17.235 18.764l63.742 63.742 31.895 31.895 15.732 15.732 7.873 7.873c2.547 2.313 5.403 5.97 8.637 4.798 6.311-5.374 11.001-12.584 17.49-17.875 5.063-5.417 10.74-10.282 15.577-15.889 4.767-5.179-4.614-11.633-7.654-14.984l-94.895-94.895-19.5-19.5-9.732-9.732c-2.95-2.723-6.697-7.858-10.51-6.67-12.38 11.3-24.258 23.756-35.91 35.728.01.308.017.613.02 1.013m57.999-57.53c-.018 3.965 6.264 7.005 7.873 9.931l67.863 67.863 33.742 33.742 16.895 16.895 8.605 8.605c1.945 1.942 6.48 7.125 8.773 4.647 6.681-5.072 11.836-11.976 18.122-17.492l7.863-7.863c1.844-2.618 6.024-4.901 6.267-7.846-3.06-5.736-8.49-9.13-12.733-14.154l-94.87-94.87-17.267-17.267-9-9c-2.865-2.415-5.764-6.857-9.294-6.64-6.407 3.683-11.095 10.725-16.811 15.485-5.378 5.357-10.947 10.872-16.071 16.362.01.498.042.985.043 1.602m17.57 333.786c.486 2.244.143 6.242 1.969 7.096 2.08.7 4.193 1.362 6.437.93 6.027-.843 11.382-6.161 15.875-8.976 69.675-52.012 132.311-112.765 189.532-178.144 14.733-15.9 28.274-32.873 42.278-49.407 10.55-12.444 20.913-25.034 31.978-37.014 3.608-4.384 8.544-9.196 10.564-14.098 1.79-4.636 2.01-12.216-5.222-12.636-8.958-.246-17.458 8.127-24.278 12.632-22.041 16.441-42.951 34.344-63.435 52.627-37.84 35.274-75.643 70.912-110.934 108.83-18.088 18.383-35.661 37.262-52.086 57.156-8.034 9.835-15.93 19.778-23.813 29.736-3.814 5.11-7.672 10.204-11.477 15.317-3.545 4.459-7.451 10.323-7.388 15.951M1775 1484.5c1.839 3.896 7.95 6.346 11.46 9.81 1.781 1.658 4.592 3.181 6.274 4.198 2.895.046 4.768-1.674 6.925-3.26 12.035-9.98 28.47-21.214 35.151-34.428 2.677-7.773 1.825-19.352-6.443-21.376-6.923-1.839-11.199 4.5-14.726 8.59-11.284 12.812-22.94 27.439-38.641 34.966zm37 34.5c6.564 1.604 10.325 8.836 16.671 10.9 4.316 1.634 8.884-4.316 12.954-6.645 5.7-4.8 11.884-11.158 16.375-16.296 4.513-5.827 9.626-12.737 8.596-20.644-.698-5.625-6.06-12.792-13.138-10.406-4.059 1.123-6.111 7-9.168 10.374-8.442 11.513-20.667 23.591-32.29 29.717zm38 31c6.686 1.804 10.34 10.964 16.223 12.109 4.762 1.41 9.92-3.56 13.751-5.468 6.244-4.395 12.114-9.51 16.733-15.62 4.045-5.845 10.179-13.55 7.048-21.892-1.323-4.778-8.406-11.89-14.199-6.293-9.237 13.694-24.138 27.2-38.427 32.932a9 9 0 0 0-1.129.232zm42 50c-.58 6.176-2.257 14.96-.728 19.926 2.044 7.274 13.57 6.994 18.393 4.747 9.212-3.769 18.204-11.613 24.836-17.678 9.293-9.177 18.704-18.27 26.866-28.487 4.924-6.97 21.281-24.086 7.16-33.419-4.156-1.69-8.818-.658-13.126-.613-3.48.42-8.639-.117-10.287 2.898-12.486 20.583-32.821 43.063-53.114 52.626" style="fill:#ffe;fill-rule:evenodd;stroke:none"/><path d="M1139 1602.5c42.335-36.289 84.49-72.842 126.5-109.5 16.667 16.181 34.882 30.664 52.485 45.783 13.247 10.995 26.564 21.911 40.24 32.355 9.958 8.274 22.865 13.702 35.866 13.005 20.74.236 37.048-20.368 34.848-40.518-1.672-19.897-16.208-35.318-27.253-50.697-14.553-18.046-29.308-36.01-45.686-52.428 48.663-47.144 95.294-97.146 144.5-143.5l143.5 143.5c-13.379 13.724-25.723 28.446-37.954 43.18-8.405 11.253-17.801 21.839-25.347 33.705-6.535 9.234-10.266 20.418-9.684 31.778.336 16.198 13.596 31.22 29.192 34.452 16.097 3.018 31.704-3.955 44.002-14.035 24.718-18.17 49.008-37.107 71.242-58.304 7.237-4.577 12.766-14.344 20.216-17.276 41.69 36.23 83.34 72.614 125.333 108.5-4.683 15.26-4.398 38.667 13.44 50.22 9.579 7.179 21.735 9.403 33.381 8.052 11.479-1.526 21.768-7.155 31.293-13.366 15.045-10.586 28.593-23.531 40.67-37.395 11.893-13.524 23.318-28.932 27.104-46.946 4.954-20.503-7.888-44.052-29.094-48.542-5.404-1.175-10.95-1.562-16.439-1.047-4.088.334-8.207.68-12.254.055-9.283-6.36-14.745-17.451-23.032-24.994-26.615-30.52-53.089-61.145-79.655-91.699-2.496-2.73-4.662-5.722-6.923-8.62-.155-3.197 4.177-5.655 6.106-8.524 18.812-21.233 38.003-42.126 55.811-64.248 11.925-16.114 29.449-31.775 30.558-53.295 1.746-16.49-9.172-32.288-24.964-37.265-26.317-8.885-47.916 11.945-65.263 24.8-18.577 14.518-37.069 29.159-54.239 45.314-47.38-47.917-94.317-96.113-142.5-143.5l210.733-210.733C1930.766 872.902 1970.538 773.617 1977 674c-50.446 4.792-100.443 15.666-146.863 36.465-33.542 14.49-64.626 34.441-92.162 58.35-80.247 77.902-157.82 159.821-238.475 237.185l-211.102-211.102c-32.903-36.135-73.414-64.944-118.26-84.363C1123.795 689.191 1073.52 678.72 1023 674c6.63 99.495 46.53 198.703 121.233 266.733L1355 1151.5c-47.392 47.93-94.417 96.213-142.5 143.5-13.84-12.842-28.329-25.027-43.259-36.579-10.971-8.895-22.303-17.354-33.855-25.45-15.465-11.532-43.115-16.254-59.404 3.677-16.724 18.511-5.505 44.373 6.779 58.784 18.98 24.25 39.292 47.393 59.633 70.463 6.822 6.958 12.793 14.654 19.606 21.605-27.623 30.737-54.056 62.57-81.516 93.46-5.287 5.79-10.16 11.906-15.48 17.66-2.378 2.862-4.752 5.717-7.257 8.46-2.24 2.61-4.897 6.411-8.092 6.589-7.246.928-14.626-1.437-21.86.002-12.723.896-24.113 8.593-30.298 19.636-11.873 21.722-1.964 43.137 10.464 61.564 18.794 25.116 46.091 52.74 73.529 63.264 16.37 6.132 36.282 3.329 48.97-9.14 13.285-12.444 12.148-30.399 8.54-46.495m-32-1.5c-14.726-6.27-25.69-19.203-36.65-30.238-4.08-4.546-7.695-9.488-11.178-14.489-2.832-4.28-5.552-10.18-10.331-10.416-6.586-.957-22.589-3.628-21.619 9.388 2.15 13.63 15.598 24.824 22.783 34.216 9.693 9.871 19.26 19.982 30.484 28.138 6.066 4.277 13.352 8.533 21.092 6.978 10.35-2.12 5.973-17.28 5.419-23.577m275.5-477 36.5-36.5c-115.923-115.164-230.798-231.724-347-346.5 8.72 40.787 25.794 80.012 48.83 114.727 16.693 26.465 39.811 47.743 61.903 69.506 67.08 65.562 132.14 133.992 199.767 198.767M1149 1549v-2c-9.904-3.06-19.074-11.862-25.733-18.233-5.98-4.43-10.905-12.986-16.678-16.283-5.6-.528-10.353 7.335-10.206 11.243 2.841 16.715 20.507 29.744 32.808 36.7 4.185 2.225 7.367-1.555 10.117-4.025 3.187-2.108 6.655-6.45 9.692-7.402m-51-823.625C1211.645 839.376 1325.76 953.07 1439.5 1067c10.537-11.943 23.748-22.008 33.5-34.5l-174.733-174.733c-29.24-28.682-56.77-59.626-90.323-83.43-33.177-23.14-71.122-38.7-109.944-49.337zm1.486 535.047c1.676 8.343 7.574 14.684 12.638 20.97 40.979 49.305 83.231 97.544 128.607 142.843 7.826 9.305 16.491 17.67 25.64 25.635 31.547 32.086 66.035 61.098 101.574 88.666 6.469 4.715 13.762 11.461 20.833 13.884 11.449 2.698 8.573-12.26 4.468-17-34.303-48.387-74.84-91.853-116.848-133.522-41.995-41.7-84.517-83.07-130.812-120.04-10.983-8.333-23.066-19.588-34.133-25.758-3.407-1.991-6.477-2.058-9.785-.575-1.667 1.118-1.119 3.496-2.182 4.897M1125 2568c33.235.382 67.927 1.688 99.198-12.076 14.446-5.455 28.028-13.129 39.583-23.433 7.624-6.118 7.925-13.945 7.219-22.316V2484h613.8c14.609-.044 29.23.054 43.827-.03 11.983-.465 26.751-.435 33.373-15.47-23.598-20.657-49.009-39.221-73.474-58.812-25.371-17.903-48.635-39.15-74.901-55.688-13.945 17.912-28.15 35.685-42.085 53.606-10.916 13.326-21.007 27.3-31.931 40.617a40.8 40.8 0 0 1-6.279 7.283c-55.35 1.408-110.935-.256-166.33.494v-238h119v77c22.06.253 44.37.59 66.002-4.538 15.74-3.56 31.385-7.685 46.535-13.275 10.47-4.393 21.607-7.912 30.922-14.63 4.203-3.461 3.438-8.442 3.541-13.297v-245.695c.192-2.65-.285-6.133.979-8.34 7.6-4.147 17.511-4.347 24.65-9.948 6.95-4.062 14.976-9.741 19.371-15.777-22.526-17.385-45.363-34.478-67.825-51.942-11.267-8.756-22.715-17.274-34.04-25.937-5.673-4.504-11.442-8.894-17.25-13.2-5.78-3.747-11.545-10.147-17.541-12.421-10.732 12.033-21.274 24.193-32.48 35.79-7.767 9.456-16.646 17.92-24.51 27.29-3.384 2.517-6.589 7.945-9.737 9.455-35.788 1.326-71.793-.24-107.617.465v-179h277.2c15.366-.137 30.729.17 46.084-.1 12.573-.739 28.345.456 35.716-15.4-46.861-38.453-96.743-73.233-144.5-110.5-17.986 20.697-34.63 42.605-52.226 63.631-7.414 9.233-15.034 18.325-22.316 27.653-2.063 1.987-3.827 5.013-5.988 6.173-101.102 1.548-202.49-.281-303.638.543h-104.954c-7.985.846-15.368-1.809-22.544-4.925-48.185-17.552-96.628-34.694-144.834-52.075zm44.5-1038c6.004-3.868 11.284-9.003 17.5-12.5-7.998-5.604-16.117-11.144-22.546-18.632-5.135-5.5-9.55-11.595-13.872-17.729-2.67-4.297-9.258-7.11-13.31-.867-5.435 6.85-2.128 16.121 3.05 22.21 4.988 6.546 10.797 12.433 16.855 17.994 3.897 3.44 8.458 6.048 12.323 9.524m37-32c5.472-4.94 12.118-8.45 17.5-13.5-9.525-5.105-19.325-13.695-26.475-20.475-6.168-5.833-12.179-11.935-16.318-19.445-2.606-5-12.19-6.582-14.915.19-4.236 9.086.46 19.274 7.443 25.465 6.422 6.976 13.666 13.011 21.04 18.923 3.664 3.274 7.877 5.834 11.725 8.842m33.5-177.542c11.083 11.212 22.379 22.348 33.5 33.542L1902 725.5c-42.373 10.026-83.931 29.266-118.974 55.475-25.526 19.185-47.085 42.924-69.759 65.258-157.635 158.108-314.88 316.753-473.267 474.225M1271 1939h155v-179h-155zm0 252h415v-224h-415zm0 265h155v-238h-155zm23-1081.417c4.778 7.167 12.603 12.354 18.102 19.02 3.074 3.149 6.284 6.152 9.24 9.404 3.032 2.911 5.597 7.786 9.158 8.993l321.733-321.733 160.87-160.87c13.226-13.737 27.281-26.657 40.269-40.608 36.336-41.595 63.704-93.43 74.128-147.789-211.421 210.662-421.799 422.725-633.5 633zm233-105.125c23.795 23.915 47.774 47.752 71.602 71.644 24.458 22.94 46.897 48.749 71.898 70.898 5.84-6.23 11.223-12.872 17.602-18.602 5.734-6.154 13.38-12.626 17.898-18.898-47.998-46.48-93.953-95.805-142.5-141.5-12.15 12.105-24.365 24.423-36.5 36.458m58-57.875c45.795 48.41 94.986 94.511 141.5 142.417l33.5-33.5c-47.998-46.48-93.953-95.805-142.5-141.5-11.074 10.36-21.14 22.023-32.5 32zm18.149 334.426c.182 2.004.463 4.036 1.378 5.682 1.868.538 3.726 1.302 5.725.906 4.977-.994 9.662-5.122 13.414-7.6 72.942-53.583 136.983-117.842 196.728-185.53 15.193-16.694 29.154-34.458 43.743-51.66 10.818-12.873 22.25-25.24 33.006-38.144 2.963-3.552 6.685-13.813-1.813-14.947-10.699.408-20.448 11.67-28.96 16.76-25.947 20.297-51.07 41.623-75.109 64.105-34.56 33.081-68.635 66.649-101.631 101.29-16.632 17.04-32.112 35.134-47.537 53.26-7.425 8.98-14.458 18.292-21.732 27.386-5.516 8.6-16.761 19.378-17.212 28.492M1776 1484.375c5.215 5.216 12.12 8.57 17.5 13.625 8.163-5.667 15.91-12.056 23.45-18.527 5.235-5.29 11.9-11.194 15.625-16.964 2.666-4.957 3.272-12.41.909-17.097-1.801-3.16-6.27-6.971-10.735-4.254-5.39 3.355-8.48 9.297-13.003 13.565-4.407 4.263-8.842 9.94-12.858 13.861-5.136 4.45-11.153 9.81-16.406 13.176-1.281 1.107-3.402 1.891-4.482 2.615m37 32.875c5.795 3.985 11.747 8.538 17.5 12.75 7.256-5.424 14.663-10.656 20.602-17.602 9.727-8.476 21.138-25.136 8.918-34.438-7.336-4.829-11.001 4.575-14.407 8.895-3.98 5.533-8.372 10.718-13.346 15.378-4.6 4.99-9.711 9.434-15.673 12.707-1.123.825-2.667 1.448-3.594 2.31m38 30.18c3.373 5.17 8.83 7.047 12.519 11.471 4.56 4.554 9.219.58 13.788-2.152 6.12-4 11.704-8.808 16.508-14.317 4.319-5.873 10.41-13.48 9.512-20.123-.836-4.945-5.226-12.064-12.175-9.282-10.159 14.596-23.527 27.362-40.152 34.403m42 53.57c-.232 5.43-2.413 12.867-.452 18.596 2.26 6.347 11.661 6.241 16.601 3.88 8.79-3.758 16.14-10.18 23.232-16.404 9.466-9 18.485-18.394 26.991-28.284 3.956-5.095 8.344-9.988 11.148-15.86 2.542-4.98 4.425-13.128-2.985-16.833-4.16-1.649-8.809-.5-13.12-.502-8.567-.613-10.802 6.752-14.81 12.925-6.446 8.123-14.057 17.88-21.424 23.984-7.64 6.375-16.344 15.364-25.181 18.498" style="fill:#676767;fill-rule:evenodd;stroke:none"/></svg>