<svg xmlns="http://www.w3.org/2000/svg" width="3000" height="3000"><path d="M364 2760.5v1.5h2272v-1.5c-68.931-409.09-136.257-818.54-204.874-1227.691-51.076-306.848-102.33-613.661-153.4-920.497-4.868-28.824-9.564-57.688-14.431-86.508-1.116-7.008-2.365-13.985-3.488-20.978-1.2-6.774-.246-15.245-9.425-16.859-109.868-36.632-219.702-73.24-329.563-109.867-95.996-32.013-192.02-63.992-288-96-41.993-13.978-83.98-28.011-125.966-41.994-5.663-2.605-10.407-1.693-15.513.621-156.173 52.06-312.354 104.114-468.521 156.173-58.68 19.531-117.334 39.097-175.992 58.657-25.668 8.506-51.298 17.139-76.962 25.643-6.176 2.075-12.369 4.11-18.537 6.195-3.02 1.124-6.483 1.813-8.8 4.255-62.934 375.423-125.132 751.075-187.889 1126.544C490.857 1998.664 428.048 2380.37 364 2760.5m650-683c2.51 4.04 7.638 8.818 9 12.5h1.5c59.697-36.471 116.7-79.536 160.269-134.994 21.967-26.87 41.224-55.989 57.145-86.808 8.291-16.277 15.971-32.863 22.56-49.913 3.327-8.12 6.784-17.852 9.446-25.445 1.606-4.31 3.353-8.568 4.57-13.01 1.238-4.02 2.13-10.428 6.51-10.83 10.765 28.034 22.2 55.945 31.037 84.694 6.82 22.264 12.632 44.848 15.88 67.935 1.5 7.204-.023 17.677 8.101 23.098 11.507 9.085 24.495 16.19 38.729 19.924 21.664 4.894 46.209-.792 61.623-17.52 15.721-14.647 24.207-39.968 23.63-59.282 1.374-28.92-14.222-60.665-29.782-81.076-17.88-21.806-39.567-40.662-63.64-55.402-17.615-11.221-36.61-20.08-55.851-28.07-5.547-2.34-11.26-4.379-16.772-6.759-2.488-1.216-.54-5.63-.455-7.724 7.774-39.593 14.182-79.594 17.5-119.818h98c-.341 5.832-3.643 11-5.656 16.33-3.507 8.102-6.804 16.306-10.639 24.248-2.184 3.912-3.7 8.125-5.599 12.157-1.678 3.924-4.701 8.275-5.106 12.265 3.06.874 6.464 3.8 9.5 6 15.129-12.36 29.514-25.623 43.37-39.37 7.36-6.688 13.745-14.26 20.487-21.508 3.227-3.662 6.3-7.474 9.779-10.912 3.203-3.425 6.449-8.863 10.864-9.21v522c30.183-.013 61.502.865 90.273-10.111 12.51-4.997 26.575-12.787 36.116-20.715 2.968-2.162 5.607-4.688 7.15-8.066 1.164-11.622-.089-23.45.461-35.108h350.4c12.984.367 30.74.509 34.938-13.098.66-2.402-3.522-4.712-4.44-6.502-31.668-29.475-64.964-57.06-98.028-84.956-2.062-1.789-4.233-3.465-6.243-5.312-4.658-5.1-8.212-.135-10.546 3.836-10.273 14.16-20.643 28.264-30.876 42.442-5.222 7.192-10.453 14.377-15.675 21.569-5.307 6.623-9.424 16.81-18.53 16.021v-198h127.2c10.725-.25 25.949 1.063 32.52-11.064 2.142-4.719-2.788-8.274-5.322-11.038-21.776-22.597-44.53-44.046-67.005-65.994-3.747-3.44-7.836-6.497-11.263-10.274-3.508-2.842-7.392-8.539-11.13-9.63-8.46 15.525-20.09 29.705-29.279 44.906-4.988 7.568-10.087 15.074-15.064 22.635-2.592 3.66-4.852 7.515-7.527 11.107-2.617 4.206-8.87 3.329-13.13 3.352v-186h127.2c11.854.412 28.162-1.011 32.767-11.632 1.836-4.57-3.633-8.29-6.324-11.246-20.148-23.664-44.782-42.885-66.25-65.218-3.747-3.44-7.836-6.497-11.263-10.274-3.508-2.842-7.392-8.539-11.13-9.63-15.465 28.017-37.197 53.208-53 81h-12v-180h133.2c12.244.15 28.859.552 33.849-12.205 1.69-4.08-6.092-7.835-7.526-10.763-24.143-21.477-48.778-42.413-74.21-62.368-8.673-7.01-17.383-14.013-26.313-20.664-20.116 25.92-40.945 52.405-60 79h-99v-3c31.2-24.061 59.948-52.623 88.475-79.975 14.19-14.229 27.574-29.199 41.457-43.72 3.64-3.367 6.68-8.908 10.44-10.839 7.463-.909 15.689.531 22.478-3.779 6.311-2.99 10.5-8.573 14.15-14.187-53.121-17.654-109.113-29.253-162.5-46.5-10.124 67.899-24.325 135.556-41.5 202h-39c-6.62-.148-13.267.2-19.874-.155-5.69-.365-10.69-3.543-16.126-4.845.195-8.155 5.029-15.426 7.407-23.03 9.866-26.876 20.03-53.69 28.164-81.165 2.228-6.816 4.387-13.647 6.362-20.538 1.73-4.902 2.561-11.536 5.474-15.418 13.414-3 30.245-3.625 37.593-21.224-2.652-2.19-7.602-2.4-11.398-3.714-55.884-13.957-111.728-27.97-167.602-41.911-10.807 131.246-41.519 260.068-82 385-7.005-.264-12.05-8.445-16.87-12.37-15.095-14.716-31.524-27.945-46.63-42.63-9.937 12.897-18.006 27.212-27.462 40.466-4.087 6.825-8.593 13.388-13.012 19.994-2.304 3.416-4.518 6.892-6.86 10.266-2.251 3.18-4.554 7.885-8.166 8.274 3.432-31.911 2.832-64.062 4.86-96.046 1.348-32.977 1.708-65.999 3.14-98.954h120c9.933-.203 24.76-.023 30.647-11.678 2.063-3.935-2.03-7.554-5.174-9.717-21.265-20.256-43.973-38.932-66.473-57.798-6.639-5.363-13.196-10.86-19.906-16.132-6.843-4.697-13.53-12.333-20.438-15.675-10.643 13.846-20.673 28.223-31.393 42.03-9.464 14.297-21.562 27.29-30.263 41.97h-99v-1.5c13.016-27.177 26.962-54.065 37.205-82.49 2.884-7.094 5.712-14.216 8.18-21.463 2.195-5.111 3.551-10.517 5.681-15.643 1.533-4.966 5.725-5.335 10.19-5.74 12.065-1.488 24.97-7.447 29.744-19.539-2.757-2.263-7.89-2.495-11.85-3.697-54.998-13.148-110.129-25.968-165.15-38.928-10.188 127.304-34.024 254.231-76 375 3.164 1.109 7.178 3.743 10.5 6 51.453-43.677 96.204-96.26 129.5-155h3c-.435 64.333-.824 128.678-2 193h-167v1.5c2.41 8.461 5.343 16.859 7 25.5h159c-4.084 90.36-14.85 181.206-42.399 267.686-13.431 41.353-30.392 81.648-52.08 119.364A645.6 645.6 0 0 1 1014 2077.5m600-513.5h72v-180h-72zm0 213h72v-186h-72zm0 224h72v-198h-72z" style="fill:#fda;fill-rule:evenodd;stroke:none"/><path d="M1012 2077.438c4.135 4.582 7.456 9.887 11.5 14.562 60.211-36.151 117.296-79.386 161.315-134.764 22.044-26.822 41.328-55.874 57.375-86.627 17.33-31.93 29.155-66.667 41.31-100.609 15.46 35.864 28.549 73.006 38.931 110.694 3.8 15.08 6.963 30.36 9.007 45.786.983 6.072.349 13.449 5.551 17.684 18.578 15.41 42.166 26.033 66.773 22.595 36.739-4.216 62.514-41.892 61.237-77.312 1.51-36.635-17.332-70.983-41.253-97.17-24.592-25.99-54.967-45.683-87.1-60.916-12.807-6.424-26.747-10.88-39.646-16.861 5.727-19.512 7.194-40.71 11.356-60.692 2.832-21.22 6.05-42.458 7.644-63.808h96c-7.694 21.687-18.462 42.277-28 63.165 2.348 2.702 6.906 4.717 10.32 7.079 3.728 1.276 7.715-4.618 10.373-6.168 26.949-22.31 50.69-47.956 73.807-74.076 1.426 173.827-.26 348.085.5 522 30.547.084 62.13.972 91.348-9.74 12.688-4.961 26.916-12.798 36.626-20.731 2.837-2.25 5.778-4.57 7.302-7.962 1.84-11.614-.15-23.831.724-35.567h348c13.06-.12 31.913 2.787 39-15.5-37.16-35.658-77.33-68.095-116.5-101.5-10.734 15.69-22.653 30.812-33.567 46.422-5.785 7.68-11.172 15.602-16.956 23.265-2.966 3.897-5.709 7.95-8.647 11.862-2.357 3.492-5.19 7.948-10.33 7.451v-196h130.8c11.25.817 26.29-1.415 31.2-15.5-30.186-33.87-64.48-63.961-97-95.5-11.121 13.95-19.823 30.077-30.343 44.54-5.148 7.552-10.095 15.24-15.23 22.795a2918 2918 0 0 1-7.412 11.114c-2.73 4.834-7.252 4.88-12.015 4.551v-184h127.2c12.106.526 28.534-1.196 33.07-12.1 2.365-4.139-1.587-8.043-4.745-10.875-20.44-23.91-44.87-43.83-67-66-8.233-6.901-15.638-14.803-23.525-22.025-10.279 12.674-18.085 27.577-27.834 40.726-7.982 13.762-20.39 28.452-27.166 41.274h-10v-178h136.2c11.984.015 27.186.097 32.8-15.5-17.321-17.266-36.022-33.077-55-48.499-18.669-15.073-37.284-30.774-56.5-45.001-19.92 26.664-41.438 52.862-60.5 80h-95.5l-1.5-.5c31.054-25.387 60.666-53.017 89.233-81.233 14.113-14.517 27.949-29.295 41.679-44.155 3.233-3.077 7.167-9.56 11.133-9.658 7.4-.176 15.387-.402 21.913-4.388 6.552-3.288 10.563-9.5 14.042-15.566-27.16-8.854-55.333-15.339-82.73-23.565-27.794-7.441-55.29-16.255-83.27-22.935-8.734 68.174-24.578 135.418-41 202h-37.2c-6.405-.101-12.808.135-19.21-.102-5.873-.265-10.995-3.578-16.59-4.898.965-8.138 6.099-15.225 8.162-23.068 10.09-26.753 19.869-53.631 28.038-81.05 2.255-6.94 4.266-13.97 6.385-20.944 2.004-4.12 1.97-12.894 6.837-13.606 13.31-1.28 30.613-6.088 36.578-22.832-29.63-8.813-60.292-14.817-90.13-23.037-30.739-6.924-61.023-16.18-91.87-22.463-10.807 131.246-41.519 260.068-82 385h-1.5c-21.444-17.653-39.894-39.957-62.5-56-7.46 14.1-18.242 26.779-26.383 40.588-8.428 13.295-17.213 26.442-26.117 39.412 2.144-31.695 3.018-64.138 4.44-96.012 1.188-32.328 1.74-64.682 3.06-96.988h82.8c13.806-.053 27.642.064 41.447-.035 10.459.337 24.74-3.063 28.753-16.567-37.549-33.33-74.941-67.786-115.5-97.398-10.863 13.799-20.809 28.38-31.636 42.222-9.682 14.561-21.936 27.856-30.864 42.778-32.264-.76-64.81.926-97-.5 14.127-26.617 26.799-54.219 37.558-82.402 3.153-7.23 5.736-14.674 8.434-22.072 2.296-5.254 3.372-10.995 6.032-16.087 1.682-4.01 7.993-2.99 11.451-4.152 12.469-1.722 24.132-9.07 28.525-21.287-29.573-8.635-60.25-14.083-90.11-21.838-30.052-6.312-59.687-15.242-89.89-20.662-9.304 128.159-35.417 255.27-76 377 5.026.914 10.18 7.93 14.325 3.94 12.836-10.927 27.474-24.23 38.408-35.173 34.784-35.23 64.347-75.41 89.767-117.767.97 63.52-1.103 127.417-1.5 191h-167c.514 9.986 5.958 19.096 7 29h159c-4.53 90.161-14.895 180.9-42.887 267.131-13.416 41.454-30.81 81.62-52.436 119.437-21.303 35.782-45.677 70.026-73.677 100.87M1615 1563h70v-178h-70zm0 213h70v-184h-70zm0 224h70v-196h-70z" style="fill:#000;fill-rule:evenodd;stroke:none"/></svg>