<svg xmlns="http://www.w3.org/2000/svg" width="3000" height="3000"><path d="M364 2760.5v1.5h2272v-1.5c-68.931-409.09-136.257-818.54-204.874-1227.691-51.076-306.848-102.33-613.661-153.4-920.497-4.868-28.824-9.564-57.688-14.431-86.508-1.116-7.008-2.365-13.985-3.488-20.978-1.2-6.774-.246-15.245-9.425-16.859-109.868-36.632-219.702-73.24-329.563-109.867-95.996-32.013-192.02-63.992-288-96-41.993-13.978-83.98-28.011-125.966-41.994-5.663-2.605-10.407-1.693-15.513.621-156.173 52.06-312.354 104.114-468.521 156.173-58.68 19.531-117.334 39.097-175.992 58.657-25.668 8.506-51.298 17.139-76.962 25.643-6.176 2.075-12.369 4.11-18.537 6.195-3.02 1.124-6.483 1.813-8.8 4.255-62.934 375.423-125.132 751.075-187.889 1126.544C490.857 1998.664 428.048 2380.37 364 2760.5m659.5-669.5c44.847-35.739 85.743-77.417 114.752-127.326 21.991-37.422 40.381-77.186 52.956-118.811 20.283-65.784 29.356-134.37 32.212-202.932 2.113-36.394 2.686-72.865 2.58-109.322.033-9.376-.04-18.721.022-28.088-.342-7.01 7.632-8.514 12.3-11.144 8.506-3.662 16.751-7.903 25.018-12.058 8.034-3.217 16.463-10.618 24.66-11.319v150h14v328h40c.358 22.855-.144 45.794-4.782 68.277-1.327 8.582-3.354 16.995-5.632 25.37-1.277 6.912-6.147 15.479-2.128 20.86 7.028 9.508 15.762 17.858 26.327 23.356 16.904 8.456 37.54 9.87 54.97 2.036 16.203-6.631 29.024-20.779 34.341-37.406 6.13-20.96-.724-43.038-13.156-60.104-11.043-17.655-27.102-31.24-44.091-42.845-.59-.265-1.253-.324-1.849-.544v-4c7.554-.676 16.068-3.871 22.696-5.743 3.73-1.326 8.666-2.372 11.116-5.253 2.325-3.883.44-8.684 1.188-13.004h408c-.501 11.449-4.27 24.66-7.065 34.696-2.583 7.804-5.224 15.948-10.922 22.118-10.218 8.668-25.185 7.858-37.667 7.961-13.47-.098-26.894-1.386-40.346-1.775-5.165-11.89-21.81-20.994-30.179-26.42-12.16-6.898-25.566-11.214-38.972-14.87-12.336-3.21-24.983-4.75-37.596-6.32-6.864-.865-13.81-1.042-20.7-1.442-3.285-.47-6.574-.373-9.846-.47-2.149 1.59-4.807 2.986-6.707 5.022 15.878 15.103 27.395 33.997 38.099 52.88 7.914 15.315 13.966 31.814 16.63 48.88 1.405 6.18.09 14.595 4.701 18.207 17.965 13.281 42.868 18.782 63.528 8.018 20.115-8.965 32.793-30.81 33.042-52.485 7.398.93 13.33 11.176 17.52 15.383 14.06 21.12 10.496 47.916 13.48 71.617 27.132.052 54.317-4.016 80.134-12.205 17.808-5.65 34.783-14.363 48.584-27.047 20.26-20.54 30.112-48.22 36.378-75.754 3.463-14.27 5.844-28.757 7.975-43.265.634-3.67 5.203-4.325 8.21-4.873 9.627-2.237 22.047-6.227 27.719-13.856-13.189-11.66-27.725-22.027-41.216-33.392-14.257-10.206-27.173-23.154-41.784-32.608v-3h37.2c9.138.072 18.306.103 27.378-1.115 6.002-.897 12.24-3.375 15.955-8.422.899-1.787 2.697-5.194 1.262-6.518-11.366-10.837-23.793-20.583-35.789-30.714-15.574-12.777-31.387-25.29-47-38-7.074-5.277-13.827-11.155-21.006-16.231-5.103 4.877-8.632 11.31-13.36 16.548-3.47 6.204-9.798 10.967-12.64 17.452h-4v-110c14.754-3.88 29.594-9.87 40-21.5-33.781-24.425-67.756-49.393-101-74.5v-2h140.4c11.845.24 30.25.705 35.6-14.687-18.795-18.725-40.144-34.834-60-52.313v-2c11.25.021 26.788 2.37 33-13.086-21.1-19.279-46.411-33.721-69-50.914v-2c11.949-.21 23.911.288 35.844-.232 10.164-.15 21.5-.908 27.156-13.268-9.544-9.443-21.118-16.515-32.027-24.18-5.659-3.736-11.262-7.534-16.937-11.233-4.58-3.167-13.231-7.023-14.036-12.087h45c11.553-.023 27.613 1.5 33-14.531-23.666-21.709-49.856-40.587-75-60.469-8.246 9.104-15.909 18.981-23.927 28.339-3.001 3.596-5.98 7.207-8.981 10.79-2.75 2.667-4.988 6.38-8.192 8.413-31.877 1.307-63.99-.238-95.9.458v-3c14.138-5.743 29.588-15.676 41.481-22.981 5.92-4.152 16.333-2.266 24.142-5.761 7.422-2.533 15.681-9.15 16.377-16.258-35.006-7.644-69.832-17.254-105-24v-3h223.2c8.587-.204 17.817.594 25.86-3.147 5.97-2.821 13.205-9.769 5.546-15.747-36.189-33.45-73.075-66.329-111.606-97.106-15.117 18.263-27.76 38.77-42.68 57.264-5.133 7.289-10.587 14.31-15.709 21.593-2.403 2.88-4.673 6.899-7.538 8.915-7.098 2.69-17.539.175-25 1.228H1587v-72c13.136-2.803 31.971-7.879 36-26-28.627-3.462-57.693-3.867-86.395-6.926-28.913-1.34-57.68-5.135-86.605-6.074v111h-194.4c-15.176.304-28.668-8.392-42.736-13.054-40.277-15.976-80.446-32.454-120.864-47.946-1.052 158.81 1.726 317.718-2.024 476.496-1.601 73.845-5.822 147.834-17.943 220.796-5.256 35.902-12.83 71.439-23.172 106.23-5.288 17.023-10.436 34.121-17.113 50.662-3.475 8.306-6.55 16.744-10.179 24.969-1.295 3.676-3.812 7.663-4.572 11.18-2.031 3.026 5.22 5.92 6.503 7.667m257.5-184h-12c-2.175 20.513-12.61 39.021-28.112 52.584-12.68 11.652-26.703 22.079-42.789 28.534-24.287 11.885-52.992 37.878-42.973 71.339 2.791 11.191 8.846 21.483 17.87 28.703 16.482 12.302 42.528 14.602 60.11 9.229 28.523-9.035 46.39-36.231 55.612-63.047 5.546-14.692 7.328-30.251 8.018-45.788-.346-15.467-2.069-30.817-5.59-45.897a255 255 0 0 0-9.453-33.108c-.301-.831-.56-1.676-.693-2.549m-55-451h2.5c22.123-26.15 41.216-54.718 59.993-83.28 8.753-14.666 18.12-29.007 25.842-44.272 4.566-7.669 8.122-15.886 12.63-23.576 2.223-3.747 3.751-7.817 5.516-11.769 1.723-3.91 4.375-7.69 4.519-12.103h-111zm149 151c21.139 5.481 40.553 17.03 61.866 21.819 23.375.516 46.766-.094 70.134.181 1.039-9.303 1.543-18.656 2-28h-29v-146c-5.893.51-12.38 6.135-18.884 8.447-9.516 4.663-19.217 8.888-28.867 13.238-4.82 1.824-10.38 4.38-14.922 5.654-4.483 1.12-7.052-7.673-12.327-7.339v73.8c-.672 11.572 2.139 26.382-4.399 34.648-6.488 7.205-15.3 14.64-25.601 19.552zm7-324.5v1.5c9.129 2.907 17.426 8.118 26.328 11.628 12.988 5.515 25.636 11.761 38.441 17.642 12.612 6.225 26.123 11.099 38.231 18.23-5.823 6.863-13.086 12.586-22.3 13.795-7.003 1.756-16.382-1.09-21.078 3.642-7.363 7.05-13.798 14.943-21.097 22.038-3.57 3.618-7.733 6.592-11.258 10.258-3.1 3.43-8.795 7.675-9.267 11.767 11.912 3.104 22.98 9.35 35 12-3.198 11.5-21.1 16.905-30 18v51h2.5c24.447-27.14 44.436-57.916 61.924-89.865 8.889-16.569 17.655-33.19 24.477-50.762 4.07-8.475 7.12-17.364 10.575-26.089 2.496-7.735 7.447-17.384 8.524-26.284h-131zm39 413.5h308v-40h-308zm0 64h308v-42h-308zm0 67h402c.727-2.846 3.824-5.579 5.753-8.43 3.144-4.13 6.25-8.264 9.524-12.29 2.575-3.846 7.198-7.855 7.723-12.28-4.916.37-9.242 3.285-13.866 4.742-32.961 12.458-68.082 17.356-103.134 16.258v-28h-308zm0 66h379.8c6.956-.412 15.575.652 21.781-.72 6.863-4.013 13.634-12.715 21.306-18.191 3.762-2.876 6.769-6.628 10.578-9.442 3.182-2.818 8.141-6.897 8.535-10.647h-442zm37 42c.467 4.706 4.638 9.904 6.272 15.183 8.112 18.298 14.51 37.332 19.539 56.685 4.045 15.553 5.614 31.723 6.176 47.728-.914 6.88 2.885 10.602 8.089 13.721 15.298 12.612 36.6 18.345 55.667 11.582 18.164-5.08 33.46-20.226 38.176-38.58 8.583-32.773-13.637-57.515-37.728-75.424-24.65-16.526-53.35-25.56-81.902-32.597-2.293-.55-4.636-1.105-7.003-.94-2.945.074-5.016 2.087-7.286 2.642m114-652.5v1.5c15.154 3.83 29.587 10.61 44.696 14.743 7.498 2.574 14.896 5.497 22.48 7.816 7.06 3.256 16.342 4.323 21.824 7.941-6.155 11.593-18.39 18.17-31.363 17.883-2.918.449-7.594.072-8.842 2.273-3.098 3.305-5.544 7.185-8.562 10.565-2.357 3.31-6.776 7.322-7.233 10.779h80c2.577-25.15 10.954-49.633 12-75h-125zm21 345v1.5h100.8c8.236-.312 18.088.491 25.574-.537 7.716-7.732 14.874-16.1 22.122-24.264 3.991-3.942 7.591-8.196 11.247-12.428 3.162-3.69 8.627-8.593 9.257-12.771h-166v3c10.66.874 20.877 4.66 31.435 6.169 8.982 3.248 20.348 2.812 30.565 7.331-5.17 11.52-16.901 18.22-29.499 18.356-10.863.095-23.174 9.4-35.501 12.144zm1-206.5h81v-38h-81zm0 67h62.4c4.964-.267 10.896.405 15.397-.412 4.029.089 2.87-7.213 3.203-9.485V1444h-81zm0 64h81v-42h-81zm193-131h23.4c4.893-.034 11.17 1.08 14.57-3.98 4.998-5.686 10.624-10.778 15.324-16.719 4.355-5.724 12.689-10.84 13.706-17.301h-67zm0 67h27c5.927-.04 13.184 1.322 17.73-4.233 6.188-6.512 11.84-13.497 18.046-19.985a97 97 0 0 0 8.81-9.693c2.511-3.122 6.991-6.167 7.414-10.089h-79zm0 64h28.2c6.727-.18 14.691.332 20.802-.46 6.787-5.38 10.888-13.84 16.841-20.09 2.837-3.49 5.61-7.026 8.43-10.524 2.404-3.347 6.374-6.934 6.727-10.926h-81z" style="fill:#fedda9;fill-rule:evenodd;stroke:none"/><path d="M1014 2085.625c3.022 2.634 6.504 4.714 9.5 7.375 44.644-35.93 85.76-77.158 114.972-126.957 22.039-37.396 40.755-77.058 53.268-118.734 20.211-65.505 29.852-133.77 32.5-202.109 2.481-36.334 2.585-72.796 2.76-109.2v-28.084c-.018-3.207-.146-7.745 2.835-8.795 9.412-4.772 19.213-8.765 28.498-13.796 9.818-4.165 18.618-10.76 28.667-14.325v150h14v328h40c.981 37.36-3.792 75.139-16 110.5 7.33 8.93 14.434 18.27 24.602 24.271 29.464 20.285 74.766 10.698 91.678-21.36 8.303-14.664 8.498-36.108 3.303-50.435-5.002-15.86-15.926-28.739-26.407-41.158-8.488-7.895-20.009-18.803-31.176-24.818v-2c7.554-.676 16.068-3.871 22.696-5.743 3.73-1.326 8.666-2.372 11.116-5.253 2.325-3.883.44-8.684 1.188-13.004h406c-.964 11.133-4.479 23.943-7.401 33.699-2.447 7.488-5.152 15.208-10.586 21.115-9.178 8.254-24.87 8.02-35.318 7.99-13.575-.203-27.141-1.404-40.695-1.804-5.165-11.89-21.81-20.994-30.179-26.42-12.16-6.898-25.566-11.214-38.972-14.87-12.838-3.35-26.025-4.824-39.146-6.523-7.062-.782-14.196-.891-21.273-1.433-3.436.373-7.903-1.509-10.4.319-2.627 1.407-4.929 3.337-7.03 5.427 16.056 15.184 27.917 34.012 38.679 53.1 8.028 15.358 14.213 31.962 16.961 49.119 1.545 6.325.103 15.013 4.79 18.748 18.26 13.253 43.524 18.85 64.627 8.438 21.371-8.667 32.853-31.019 34.443-52.905 12.579 8.665 21.35 22.603 23.926 37.603 3.884 16.218 3.028 32.954 4.574 49.397 27.322.176 54.757-3.651 80.814-11.783 17.989-5.508 35.084-14.16 49.135-26.74 20.906-20.628 30.905-48.937 37.238-76.928 3.876-14.504 5.552-29.476 8.24-44.166 1.018-3.243 6.98-2.71 9.407-3.872 9.92-2.475 22.798-6.872 27.166-15.011-28.003-22.21-55.774-45.175-84-67l1.688-.5c15.409-.018 30.826.022 46.235-.012 12.663-.367 30.096.82 36.077-16.488-34.915-30.113-70.874-59.601-107.5-87.5-8.523 11.718-19.07 22.645-26.5 35h-2v-108c15.354-3.82 30.378-10.387 41-22.5-34.209-24.67-67.8-50.317-102-75 46.268-1.426 93.04.26 139.402-.5 10.531.018 22.714.874 31.3-6.642 2.687-2.395 4.973-5.742 4.825-9.485-8.028-10.117-20.828-19.199-29.348-27.374-9.91-8.514-19.932-16.924-30.179-24.999 9.822-1.825 23.229 2.93 30.892-9.664 4.083-6.113-1.807-9.737-5.767-12.515-4.014-3.214-7.993-6.455-12.103-9.538-12.372-8.868-24.569-18.023-37.33-26.337-3.823-2.736-7.974-5.075-11.692-7.946 11.072-1.482 22.658.356 33.83-.623 7.596-.407 16.01-.139 22.427-4.963 3.922-3.265 9.044-9.036 3.307-13.705-12.576-10.578-26.386-19.568-40.104-28.553-6.325-4.611-13.67-7.809-19.46-13.156 13.478-1.367 27.383.2 40.933-.5 9.649-.255 20.377 1.25 29.16-3.871 5.242-3.496 10.108-10.817 4.974-15.424-14.902-13.042-30.222-25.588-46.073-37.483-9.17-7.054-18.347-14.16-27.494-21.222a4894 4894 0 0 0-23.283 27.984c-5.946 6.49-11.903 15.076-17.888 20.524-15.655 1.35-31.511-.202-47.203.492-15.635-.705-31.564.871-47.126-.5 14.29-7.3 28.594-14.778 41.918-23.774 6.752-4.079 16.29-1.665 24.75-5.843 7.945-2.847 14.63-9.471 16.332-17.883-35.367-7.862-70.64-16.6-106-24.5 75.07-1.426 150.274.26 225.371-.5 8.564-.143 17.904.328 25.594-4.192 2.937-1.952 6.082-5.013 7.23-8.07 1.824-6.095-7.591-11.655-10.934-15.32-34.036-31.788-69.5-62.181-105.761-91.418-14.726 18.72-27.977 38.592-42.546 57.432-5.177 7.228-10.5 14.358-15.701 21.564-2.476 3.04-4.485 6.515-7.376 9.193-2.777 2.463-7.958 1.628-12.017 1.811H1588v-70c13.826-3.057 34.637-8.77 36-28-29.024-3.427-58.485-4.034-87.594-6.98-29.169-1.409-58.22-5.269-87.406-6.02v111h-195c-7.731.56-14.817-2.633-21.714-5.697-46.759-19.152-94.058-37.174-140.786-56.303-2.569 156.6 2.05 313.635-2.444 470.261-1.245 73.924-5.006 148.043-16.96 221.113-9.996 69.717-28.247 139.471-58.096 203.251M1282 1906h-14c-2.175 20.513-12.61 39.021-28.112 52.584-12.68 11.652-26.703 22.079-42.789 28.534-23.884 10.988-51.933 36.98-43.39 71.59 2.563 11.276 8.358 21.821 17.083 29.43 16.008 13.032 42.283 15.264 59.921 11.163 29.59-7.442 48.725-34.659 58.263-61.86 10.924-29.165 10.636-61.096 4.081-91.136-2.232-12.585-6.114-24.789-10.082-36.887-.37-1.131-.776-2.245-.975-3.418m-54.5-451c21.807-25.988 40.98-54.112 59.473-82.49 17.993-29.18 35.112-59.217 49.027-90.51h-109c.76 57.57-.926 115.55.5 173m148.5 149.75c1.672 2.683 6.945 2.597 9.924 4.617 13.188 4.852 26.294 9.88 39.455 14.77 13.368 5.55 28.185 3.464 42.315 3.863H1506c.904-8.649 1.36-17.334 2-26h-29v-146c-20.588 10.614-42.004 20.372-63.5 29l-9-9c-1.426 24.656.259 49.747-.5 74.495-.356 11.779 2.066 26.758-5.128 34.855-6.591 8.27-16.583 13.515-24.872 19.4m7-322.375c34.238 16.579 69.755 31.362 104 48.125-4.682 7.793-12.593 13.171-21.258 15.328-3.633 1.01-7.426 1.206-11.162 1.17-12.416-1.61-20.328 12.839-28.182 20.104-8.485 8.101-17.403 15.76-25.398 24.398 5.83 3.008 12.485 4.483 18.5 7.1 5.572 2.81 13.767 3.376 17.5 7.4-6.484 10.67-18.715 16.99-31 18 .709 16.236-.876 32.887.5 49 48.06-55.264 82.484-121.792 105.5-191-42.923.57-86.173-.695-129 .375M1422 1695h306v-38h-306zm0 64h306v-40h-306zm0 67h400c5.35-10.94 17.723-21.102 22.75-31-36.596 16.384-77.028 21.897-116.75 21v-28h-306zm0 66h375.6c7.178-.237 14.401.308 21.566-.212 4.93-.54 8.129-4.93 11.588-7.982 10.518-9.328 21.284-18.384 31.246-28.306-146.504-1.426-293.41.26-440-.5zm34 43.25c9.576 21.23 19.438 42.852 24.99 65.675 4.931 17.813 7.884 36.153 7.997 54.671-.843 8.159 4.8 11.892 10.62 15.583 8.927 6.62 19.498 11.136 30.572 12.445 16.67 2.09 36.457-5.216 47.412-15.756 12.348-11.758 19.285-29.178 16.963-46.31-3.569-27.089-25.068-48.505-47.562-61.856-23.467-13.774-49.656-21.693-75.971-27.955-6.283-2.393-10.463.14-15.021 3.253zm117-652.875c26.187 8.976 52.833 18.314 79.174 27.19 2.802 1.329 8.187 1.977 9.34 4.652-2.451 12.307-18.49 18.542-29.104 19.03-3.296-.05-7.04.725-9.983 1.135-4.819 6.641-11.242 14.565-16.427 20.118 25.825 1.426 52.084-.26 78 .5 2.819-24.472 10.275-48.353 12-73-40.923.57-82.173-.695-123 .375m21 344.754c2.515 2.092 8.418-.088 11.33.871h104.605c2.83-.277 7.494.509 9.28-1.373 14.056-15.218 27.836-30.802 41.785-46.127-27.063-1.426-54.579.26-81.724-.5-27.398.755-54.928-.922-82.276.5a3575 3575 0 0 1 35.369 7.579c8.093 2.108 16.487 3.043 24.506 5.414 3.344 1.29-.168 6.754-1.085 8.52-6.718 10.114-19.522 12.845-30.77 13.145-10.783 2.479-20.161 9.495-31.02 11.97m1-207.129h79v-36h-79zm0 67h60.6c4.946-.273 10.866.418 15.348-.432 3.71.022 2.753-6.72 3.052-8.884V1445h-79zm0 64h79v-40h-79zm193-131h22.2c4.81.125 10.793.822 13.943-4.215 9.457-10.59 19.362-20.729 28.857-31.285-21.48-1.418-43.422.25-65-.5zm0 67h25.8c5.804.117 12.736 1.135 17.069-4.37 11.643-12.135 22.015-25.439 34.131-37.13-25.5-1.426-51.41.26-77-.5zm0 64h27c6.708-.148 13.523.299 20.187-.452 11.632-12.027 20.602-26.613 31.813-39.048-26.123-1.426-52.777.26-79-.5z" style="fill:#000;fill-rule:evenodd;stroke:none"/></svg>