<svg xmlns="http://www.w3.org/2000/svg" width="3000" height="3000"><path d="M1070 2284h-16c-1.865 43.996-9.447 88.973-29.985 128.455-12.583 24.686-39.908 50.087-23.301 85.904 10.297 22.976 41.028 28.722 62.024 18.227 35.968-19.082 38.894-64.142 39.261-96.337-.495-37.705-9.798-74.895-22.79-110.11-2.635-8.854-6.766-17.245-9.209-26.139m-12-26c26.978-.09 55.16.7 80.7-9.681 10.99-4.515 21.07-11.046 30.461-18.25 6.342-4.605 7.416-10.852 6.839-17.677V2192h197v1.5c-1.985 14.975-2.047 30.235-4.063 45.224-.69 7.613-1.533 15.187-2.277 22.786-1.776 6.508-.235 16.62-3.16 21.49-17.982-25.66-48.684-39.199-77.852-47.076-7.637-1.855-15.257-3.847-23.01-5.166-5.893-.994-13.726-3.058-18.116.51-2.662 2.113-8.347 6.23-4.886 9.229 9.505 8.684 19.35 17.116 27.147 27.493 14.844 17.869 28.088 37.521 36.693 59.194 2.166 5.21 4.138 10.474 5.33 15.99 1.187 8.307 13.474 11.688 19.45 13.577 8.103 1.605 17.252 1.75 24.697-2.391l.547-.36c1.327 5.4-1.82 12.323-2.11 17.681-3.656 21.821-9.182 43.275-15.324 64.5-4.742 15.5-10.016 30.857-17.756 45.14-5.27 10.248-12.717 19.71-22.794 25.537-17.753 9.158-38.565 5.614-57.616 4.812-19.324-.985-38.595-2.61-57.9-3.67.133 6.298-1.67 15.948 4.772 17.636 6.144 1.743 12.388 3.243 18.38 5.453 18.747 6.993 36.137 20.296 44.287 39.063 7.847 20.634 8.542 43.082 8.561 64.848 27.908-.313 55.851-3.906 82.166-13.483 18.003-7.814 35.98-17.25 50.067-31.25 21.506-20.253 35.529-46.96 46.456-73.978 11.274-28.876 18.883-59.059 24.846-89.427 8.03-40.47 13.5-81.466 17.687-122.482 2.321-20.838 3.869-41.713 5.804-62.583.319-5.261.79-10.509 1.138-15.762.4-3.994.345-8.048.972-12.003.31-5.561 10.897-4.126 14.242-6.149 5.197-1.144 10.969-3.498 15.622-4.883v429c30.393.137 62.08 1.003 90.742-11.091 12.146-5.474 25.987-13.491 34.845-22.02 5.823-5.104 4.258-14.972 4.413-21.75V2553h325.2c10.208-.027 22.848 1.171 31.445-3.436 7.564-3.62 13.787-14.3 3.49-20.256-24.679-21.983-50.14-43.049-75.554-64.162-9.698-7.923-19.348-15.909-29.102-23.763-4.468-3.163-8.593-6.791-12.952-10.093-4.445-4.562-8.93 2.507-11.254 5.728-11.226 15.097-22.642 30.032-34.01 45.01-8.599 11.252-16.878 22.713-25.582 33.871-1.683 2.035-3.164 4.334-5.432 5.793-5.258 2.651-10.987.4-16.651 1.308H1645v-45.6c-1.154-7.188 2.432-11.158 7.17-15.385 28.98-30.906 54.648-64.858 77.94-100.189 22.626-35.638 43.718-72.494 61.39-110.826 12.914 28.052 19.972 58.997 28.184 88.7 2.96 11.604 5.432 23.285 7.796 35.019 2.017 8.904 15.23 14.607 21.045 19.086 14.816 8.989 32.84 15.308 50.406 12.073 26.484-4.442 44.029-28.772 49.503-53.582 7.02-26.384 4.819-59.066 1.013-83.444-7.25-38.905-22.994-75.788-42.098-110.229-14.041-27-32.957-51.083-51.349-75.123 14.178-40.71 24.311-83.153 35.58-124.791 5.464-21.395 10.212-42.927 15.053-64.466 1.423-5.318 1.37-12.947 7.32-13.164 13.421-1.174 33.921-3.766 36.047-24.079-58.429-12.74-115.579-32.398-174-45-2.204 57.905-9.977 115.458-16 173h-1.5c-17.216-15.81-36.628-29.055-55.346-42.94-19.236-12.707-37.81-27.268-58.154-38.06v-134h310.2c9.774-.259 19.89.928 29.383-2.06 6.46-1.706 13.988-6.856 13.935-15.508-2.748-5.676-10.162-10.088-14.075-14.241-17.65-15.218-35.555-30.165-53.9-44.531-8.814-7.383-18.013-14.232-26.972-21.414-4.337-3.623-8.923-6.92-13.327-10.443-4.33-3.352-9.326-8.002-14.244-7.803-.845 4.427-6.195 7.227-7.5 11l-.5-1.687V1541h-24.6c-5.935-.376-13.031.525-18.414-.449-3.477-.25-4.89-6.553-6.885-8.568-6.154-9.856-10.426-20.987-17.101-30.483 17.805-1.405 36.102.238 54-.5.747-86.716-4.788-173.541-18.368-259.224-9.163-61.488-22.95-122.87-48.458-179.84-35.548-81.305-92.904-154.77-168.717-201.958-19.105-11.673-39.46-21.323-60.424-29.094-7.639-3.354-20.486-3.268-20.022-12.785-.171-29.765-11.387-58.908-28.304-82.987-8.519-11.55-20.952-23.459-31.994-30.621-7.255-5.29-14.251-4.99-22.234-4.491H1432c3.097 20.698 1.843 41.977 1.182 62.807-.736 7.772-1.539 15.593-2.723 23.298a127 127 0 0 1-2.135 9.545c-.806 2.349-1.475 6.751-4.127 6.85-2.897.391-3.486-4.633-4.315-6.423-5.233-19.458-17.129-37.06-33.35-49.044-7.782-5.596-17.462-11.462-25.665-14.712-10.298-4.191-22.086-1.224-32.867-2.321 4.322 21.366 8.93 42.894 8 64.87.136 20.746-1.815 41.9-8.568 61.668-2.07 4.119-6.586 5.92-10.328 8.108-14.77 8.848-29.642 18.588-40.489 32.223-20.72 26.585-26.26 61.173-36.825 92.27-4.622 13.955-10.456 27.556-17.788 40.308-7.466 10.91-15.391 21.489-21.68 33.152-12.281 22.714-21 47.09-29.687 71.322-6.834 21.613-16.108 42.353-25.059 63.065-.86 4.867 3.69 9.518 5.917 13.293 8.765 15.135 18.912 29.381 27.948 44.337 8.764 13.317 16.097 28.752 30.313 37.253 12.329 7.969 30.007 9.901 43.008 10.67 13.208 1.591 26.972-.56 37.772-8.937 17.875-12.753 30.59-30.967 44.233-47.823 10.42-12.943 22.16-24.824 34.792-35.598 9.924-8.878 24.016-7.319 36.499-9.175 19.315-2.745 39.355-5.071 56.816-14.457 7.994-4.096 15.984-11.246 21.147-17.58 2.996-3.439 5.898-6.944 8.223-10.883 2.36-2.906 3.513-9.06 6.756-10.086 4.397 16.755 1.118 34.886-6.566 50.124-13.941 25.666-35.524 46.215-55.304 67.246-15.823 15.62-31.674 31.212-46.105 48.106-10.757 12.144-21.32 24.71-29.56 38.711-24.295 45.544-32.99 97.778-33.465 148.813 17.263.72 34.812-.886 52 .5-6.783 11.874-13.24 24.073-19.93 36.023-1.888 3.526-6.124 3.648-9.762 3.477H1315v127h84v1.5c-13.639 17.66-28.25 35.349-41 53.5-55.605-.217-111.223.264-166.811-.143-5.913-.787-12.01-4.748-16.99-6.704-19.455-8.359-38.458-17.71-57.92-26.031-9.815-4.333-19.459-8.982-29.311-13.204-9.863-3.447-20.144-10.72-28.968-11.918zm55 17c-.112 7.852 2.167 15.476 3.508 23.138 4.951 29.997 9.211 60.224 10.313 90.635.237 12.015.222 24.03.056 36.036-.153 10.12-1.673 20.124-2.577 30.17-.966 8.083 9.443 14.588 14.33 18.058 12.039 8.012 28.96 7.958 40.615-.86 17.583-12.978 24.048-36.717 23.755-57.499.986-22.296-5.229-44.015-14.29-64.185-13.62-28.831-33.607-54.54-57.46-75.66-4.702-4.545-12.473.509-18.25.167m63-407h54v-114h-54zm0 148h54v-117h-54zm0 145h54v-114h-54zm51 260c3.586 1.006 6.531 5.799 10.769 7.37 13.074 8.957 31.609 8.547 43.173-2.898 11.592-11.173 15.671-28.056 14.926-43.652-1.226-29.948-17.63-56.726-36.645-78.782-10.75-12.144-25.705-24.06-37.87-32.52-6.323-4.799-13.127-8.91-19.824-13.123-3.265-1.925-7.162-5.093-11.99-3.769-4.015 1.043-7.764 2.817-11.539 4.374 22.245 51.625 48.263 105.231 49 163m20-1213c6.152-26.828 23.44-50.001 45-66.375-.44-1.614-1.497-2.929-2.646-4.099-1.683.114-3.37.208-5.066.311-18.935.845-37.53 9.526-50.097 23.72-3.235 4.079-6.902 9.045-9.046 13.315-1.287 2.982-2.95 6.707-3.656 10.36 1.075 5.625 7.415 11.012 10.606 14.033 4.596 3.37 9.201 7.354 14.905 8.735m165-244v-7c-16.348-3.38-34.855-11.621-50.323-12.056-11.026-.255-25.524-.22-35.774 9.67-3.563 3.189-5.865 7.661-5.853 12.478-.061 4.223-.756 10.377 3.022 12.242 6.587 3.7 14.418 4.077 21.743 4.583 10.871 1.342 21.534-1.477 30.016-8.537 7.964-6.567 17.407-11.557 27.894-11.994 2.79-.246 5.536.398 8.292.567zm-65 904h11c14.014-23.238 34.136-43.617 48-67 5.45-.302 9.99 5.183 13.975 8.168 15.913 13.47 32.008 26.777 47.061 41.194 6.285 4.804 11.285 11.042 17.429 15.991 4.584 4.932 11.882 10.075 14.045 15.315-.503 14.604-17.858 17.62-28.76 17.332H1347v117h11c14.014-23.238 34.136-43.617 48-67 5.45-.302 9.99 5.183 13.975 8.168 15.913 13.47 32.008 26.777 47.061 41.194 6.285 4.804 11.285 11.042 17.429 15.991 4.584 4.932 11.882 10.075 14.045 15.315-.503 14.604-17.858 17.62-28.76 17.332H1347v114c4.972-.237 10.936.395 15.443-.475 6.873-3.4 12.69-12.587 18.79-17.258 10.52-11.014 21.877-21.112 32.742-31.742 3.626-2.949 8.253-10.542 12.864-6.982 29.407 24.532 58.778 49.31 87.661 74.457 1.426-142.163-.26-284.754.5-427-13.43 3.478-27.693 1.188-41.39 2H1347zm1-281h475.8c4.344-.16 10.976 1.313 11.1-5.155.235-4.937-.002-9.912.1-14.845h-487zm51-61.5c127.677 1.426 256.158-.26 384 .5v-1.5c-2.97-3.502-5.325-9.343-8.357-13.895-3.097-5.886-10.042-4.597-15.228-4.605H1410c-2.77 6.665-7.605 13.268-11 19.5m47 142.5c23.922 16.38 45.867 36.735 68.5 55 1.404-17.467-.237-35.429.5-53 7.022.14 14.914 6.174 22.366 9.177 27.734 14.006 55.743 27.343 83.506 41.261 10.151 5.44 20.641 10.107 31.022 15.018 9.796 5.296 21.482 2.974 32.168 3.544h115.43c4.38-.109 10.236.768 12.747-2.557 9.369-11.012 17.548-22.987 26.846-34.05 7.94-11.844 18.701-22.189 25.915-34.393h-128c-.856-9.475 1.179-21.307-.97-29.765-4.061-2.377-10.516-.502-14.921-1.235H1676v26h-170v-26h-60zm148-738.625c31.948 26.636 60.515 59.077 80.585 95.753 31.98 58.798 41.78 126.382 46.193 192.156 3.575 70.476 3.214 141.557-4.778 211.716h66c.273-98.122-8.627-197.168-34.308-292.123-12.085-43.918-30.1-86.593-57.984-122.963-13.05-18.43-27.278-36.114-43.31-52.016-8.06-8.2-16.189-16.394-25.471-23.22-4.53-3.359-8.77-7.148-13.596-10.104-2.134-1.433-4.687-3.197-7.054-3.082-2.133.504-4.997 2.668-6.277 3.883M1645.5 2420c35.62-77.385 59.706-159.545 79.627-242.192a3075 3075 0 0 1 7.075-32.314c1.169-4.836 2.302-9.697 2.986-14.629.789-4.23 2.18-8.725.262-12.817-13.624-29.745-28.957-58.755-44.256-87.643-14.611-27.414-30.182-54.555-45.694-81.405-1.426 77.93.26 156.74-.5 234.843.76 78.648-.926 157.589.5 236.157" style="fill:#fff;fill-rule:evenodd;stroke:none"/><path d="M327 2802.5c390.66 1.426 782.125-.26 1172.95.5 390.946-.76 782.184.926 1173.05-.5-79.284-468.283-156.02-937.69-234.792-1406.201-29.222-176.024-58.731-352.018-88.16-527.994-12.796-76.829-25.59-153.676-38.409-230.5-5.977-36.02-12.025-71.992-18-108-2.928-17.508-5.855-34.99-8.745-52.497-.795-4.678-1.595-9.35-2.358-14.018-.403-5.813-4.632-7.44-9.23-8.351-136.155-45.374-272.297-90.765-408.44-136.14-118.995-39.696-238.006-79.344-356.998-119.005-7.36-3.594-13.268-1.406-20.008 1.408-103.34 34.51-206.696 68.878-310.033 103.355a1093431 1093431 0 0 1-271.561 90.514c-39.662 13.232-79.311 26.454-118.969 39.67-18.676 6.196-37.335 12.443-55.998 18.654-3.991 1.804-9.7 2.485-12.774 5.267-95.938 570.136-190.308 1140.76-285.634 1711.041-35.77 210.46-69.684 422.872-105.891 632.797m742-517.5h-14c-1.792 43.857-9.457 88.578-29.707 127.999-13.349 23.606-40.222 53.127-23.096 85.383 10.688 22.368 41.21 27.748 61.51 16.207 15.293-8.182 26.086-26.536 30.66-41.21 15.633-54.978 1.65-113.506-17.262-165.529-2.328-7.74-6.061-15.03-8.105-22.85m-10-28c26.67-.052 54.582.508 79.727-10.085 10.707-4.618 20.666-10.964 29.803-18.162 6.11-4.593 7-10.732 6.47-17.361V2191h199c-3.68 31.888-3.877 64.356-9.5 96-12.892-20.294-34.584-33.502-56.277-42.494-11.607-4.537-23.726-7.741-35.85-10.526-11.286-2.372-24.75-8.102-33.373 4.52 22.743 18.79 41.792 42.175 56.203 67.957 3.641 6.924 7.12 13.912 9.862 21.237 2.388 5.295 3.876 10.856 5.291 16.455 1.154 4.626 5.042 6.142 9.007 8.008 5.891 2.968 12.43 4.602 19.034 4.614 6.372.404 11.871-2.825 17.603-4.771-4.3 23.836-8.445 47.863-15.044 71.204-4.556 16.87-9.998 33.607-16.906 49.66-5.48 11.092-11.052 22.935-21.183 30.701-16.869 13.485-39.793 10.855-59.73 9.51-20.75-.948-41.41-3.006-62.137-4.075.444 4.948-1.545 13.51 3.574 15.2 5.484 1.7 11.132 2.876 16.537 4.854 19.69 6.364 37.665 19.982 46.783 38.843 8.372 20.926 9.06 43.907 9.106 66.103 27.562-.712 55.234-4.118 81.17-13.88 18.081-8.076 36.208-17.609 50.2-31.99 21.395-20.531 35.166-47.635 46.07-74.764 11.233-29.109 18.773-59.445 24.596-90.058 8.053-40.481 13.125-81.505 17.49-122.514 2.079-20.944 4.147-41.878 5.684-62.863.384-5.277.822-10.532 1.15-15.81.446-3.846.116-7.932 1.427-11.608 4.457-3.014 11.051-1.719 15.876-4.275 5.373-.98 10.17-3.762 15.337-5.238v430c30.092.184 61.47.754 89.727-11.502 11.894-5.565 25.586-13.462 34.221-21.986 5.583-5.278 3.72-15.209 4.052-21.972V2552h319.8c9.853-.687 21.768 1.03 30.658-1.029 6.735-1.758 17.969-8.995 14.142-16.343-40.26-36.367-82.519-70.983-125.1-104.628-13.359 17.325-26.4 34.987-39.717 52.342-10.269 12.954-19.394 26.882-30.242 39.356-4.721 3.876-13.642 1.496-20.316 2.302H1644v-46.2c.392-3.095-.593-7.357.969-9.633 29.306-33.18 58.612-66.6 82.14-104.341 23.372-37.284 46.372-75.399 63.891-115.826h2c6.906 22.015 15.67 43.716 21.324 66.184 4.775 17.124 8.843 34.463 12.591 51.824.797 5.863 1.708 13.01 8.131 16.994 16.94 12.719 37.576 24.548 59.698 22.366 22.551-2.206 40.154-19.574 47.898-40.018 9.273-21.309 10.158-45.037 9.13-67.846-1.025-22.988-6.626-45.277-13.527-67.088-12.855-36.08-29.986-70.799-51.354-102.59-7.21-10.574-14.34-21.233-22.392-31.19-2.395-4.465-7.719-7.667-8.945-13.507 5.684-20.879 12.722-41.464 18.258-62.405 8.564-30.911 16.414-61.996 24.054-93.133 1.814-7.87 3.582-15.726 5.361-23.59 1.502-6.313 2.707-12.679 4.284-18.964.65-5.597 6.507-5.172 10.93-5.483 12.003-1.61 27.072-5.176 30.559-21.554-57.679-13.228-114.45-31.16-172-45-.995 29.73-4.354 59.352-6.806 88.967-1.24 14.252-3.163 28.452-4.521 42.68-1.013 7.217-1.745 14.47-2.572 21.7-.395 3.75-1.168 7.466-1.546 11.209-.465 3.124-.3 7.057-2.055 9.444-36.92-29.104-74.591-58.687-115.5-82v-136h308.4c9.452-.197 20.74.69 29.234-1.476 6.755-1.681 14.26-5.706 15.388-13.229 1.049-2.733-3.081-5.337-5.03-7.636-18.844-16.244-37.624-32.59-57.274-47.856-9.453-7.604-18.899-15.25-28.492-22.656-4.906-3.74-9.542-7.79-14.551-11.385-4.936-3.081-9.64-8.944-14.675-9.762-18.212 26.392-40.158 51.013-59.237 76.966a58 58 0 0 1-6.125 7.157c-6.628 1.611-13.806.435-20.578.877h-76.57c-18.986-.98-38.234 1.201-57.134-.661-47.884-20.867-93.236-48.231-141.356-68.339-.725 18.235.892 36.888-.5 55-23.032-20.443-47.207-39.589-71.5-58.5 2.146-3.898.184-10.424 1-15.43V1636h62v26h168v-26h46.8c3.981.127 7.99-.192 11.945.193 5.966.055 3.807 10.192 4.255 13.781V1667h129v-125h-25.2c-6.065-.17-13.279.351-18.77-.542-10.423-11.713-14.57-28.426-24.03-40.958 18.205-1.398 36.736.231 55-.5.697-86.554-4.932-173.194-18.627-258.693-9.02-61.391-23.189-122.485-48.576-179.325-35.682-80.885-92.752-154.03-168.34-201.004-19.105-11.673-39.46-21.323-60.424-29.094-7.291-3.504-20.057-3.066-20.008-12.196-.02-29.604-11.03-58.654-27.702-82.706-8.308-11.55-20.6-23.347-31.362-30.668-6.908-5.68-13.742-6.107-21.69-5.314-8.027.569-16.324-.736-24.271.5 3.163 9.344 1.08 21.874 2 30.731.161 18.344-.448 36.749-3.54 54.874a127 127 0 0 1-2.136 9.545c-.8 2.394-1.512 6.774-4.193 6.877-5.734 1.155-6.327-8.117-7.857-11.705-6.305-17.79-17.561-34.28-33.43-44.97-7.183-5.301-16.447-10.355-23.977-13.531-4.625-2.45-9.815-2.606-14.915-2.321-4.964.395-11.932-.561-15.952.5 6.077 21.093 8.173 43.46 8 65.38-.273 20.106-1.985 44.807-9.382 62.025-5.1 5.308-14.952 9.096-21.944 14.347-14.627 9.157-27.344 21.161-36.185 36.042-16.792 28.481-20.947 62.134-32.907 92.465-5.088 13.453-11.746 26.305-19.878 38.136-32.156 43.285-43.058 97.583-64.655 145.969-1.26 4.543-6.5 9.769-5.104 14.002 8.558 15.97 19.728 30.665 28.85 46.352 9.135 12.594 17 29.87 27.78 39.587 11.598 9.657 26.407 13.74 41.17 15.195 13.712 1.804 28.215 2.084 40.4-5.639 19.36-11.686 32.495-30.703 46.48-47.877 10.639-13.062 21.898-25.88 34.96-36.62 10.388-10.696 23.085-8.992 36.844-10.667 19.364-2.286 42.545-5.863 58.445-14.648 8.128-4.178 16.313-11.49 21.48-18.014 3.116-3.474 5.984-7.166 8.36-11.182 2.32-3.91 3.533-9.6 8.286-9.353 4.408 16.91 1.552 35.21-5.912 50.766-13.304 26.043-35.245 46.337-54.82 67.467-15.653 15.802-31.875 31.074-46.172 48.122-10.69 11.638-22.459 26.21-29.95 38.615-24.636 45.16-33.383 97.223-34.146 148.03 17.597.721 35.489-.888 53 .5-6.692 12.16-13.331 24.491-20.112 36.625-2.98 7.27-15.513 4.105-21.369 4.875H1316v125c28.568.76 57.55-.926 86 .5-13.818 19.056-29.847 37.13-43 56.5-55.59-.037-111.212.045-166.794-.024-6.314-.288-11.955-3.735-17.623-6.16-38.731-16.71-76.846-35.278-115.583-51.816zm68.5 16c-3.387 1.861-9.04 2.113-13.5 3 1.313 15.606 6.503 30.737 7.55 46.419 4.116 28.677 7.148 57.507 6.45 86.513.136 11.224-.013 22.463-1.334 33.622-.4 4.564-1.272 9.101-1.27 13.684.92 7.847 10.899 13.078 16.462 17.132 12.771 7.773 29.205 4.927 39.95-4.875 16.589-15.73 21.205-39.41 20.191-61.267-.169-21.456-9.369-45.69-17.912-63.033-12.937-26.347-32.824-48.69-54.006-68.614zm47.5-404h56v-116h-56zm0 148h56v-119h-56zm0 145h56v-116h-56zm4 97.281c12.694 24.638 23.489 50.647 32.556 76.889 9.316 26.956 16.216 55.144 16.444 83.83 3.456.961 6.342 5.54 10.366 7.144 12.746 9.081 30.877 8.615 41.976-3.058 10.892-10.856 15.152-26.902 14.486-41.903-1.32-28.93-16.933-54.943-35.2-76.397-10.813-12.819-24.252-23.208-37.645-33.149-6.596-4.588-13.062-9.365-20.04-13.359-3.514-1.92-7.824-5.557-11.5-4.567-4 .935-7.701 2.779-11.443 4.289zM1248 1209c5.761-27.928 24.69-50.232 46-67.625-.61-1.903-2.488-3.426-3.598-4.813-2.173-.18-4.381-.073-6.563.15-21.102 1.088-42.39 11.228-54.542 28.93-5.195 7.313-12.15 19.426-6.068 26.336 6.03 7.344 15.694 15.973 24.771 17.022m165-244v-9c-16.523-3.559-35.273-11.64-50.926-12.13-12.435-1.375-28.695 1.319-37.17 9.745-3.575 3.197-5.867 7.67-5.854 12.499.437 4.19-.968 9.945 1.283 13.014 5.668 4.373 14.468 4.998 20.682 5.62 11 1.548 22.174.32 31.443-6.127 8.465-5.816 16.835-12.914 27.602-13.74 3.785-.809 7.582-.086 11.365.105.518.008 1.113.011 1.575.014m-67 904h13c14.014-23.238 34.136-43.617 48-67 4.788.617 8.82 6.502 13.467 9.353 15.85 13.386 31.591 26.906 46.764 41.033 6.218 4.946 11.257 11.269 17.57 16.11 2.644 2.336 5.06 4.913 7.57 7.374 1.894 2.154 5.55 5.001 4.674 7.423-2.902 13.367-19.05 14.825-28.894 14.707H1346v119h13c14.014-23.238 34.136-43.617 48-67 4.788.617 8.82 6.502 13.467 9.353 15.85 13.386 31.591 26.906 46.764 41.033 6.218 4.946 11.257 11.269 17.57 16.11 2.644 2.336 5.06 4.913 7.57 7.374 1.894 2.154 5.55 5.001 4.674 7.423-2.902 13.367-19.05 14.825-28.894 14.707H1346v116c8.325.033 18.476 1.971 24.602-6.102 17.967-17.136 34.855-36.132 53.898-51.898 30.476 25.468 60.336 51.788 91 77 1.426-71.774-.26-143.905.5-215.74-.76-71.682.926-143.66-.5-215.26-5.727 3.679-14.202 2.728-20.004 3H1346zm1-281h478.8c2.73.193 5.383-.124 8.066-.49 3.282-1.481 1.46-7.92 2.134-10.465V1566h-489zm50-61.5c129.02 1.426 258.825-.26 388 .5-2.502-6.44-7.98-14.544-10.87-19.436-2.478-3.498-8.27-2.268-11.918-2.564H1409c-3.132 7.241-8.483 14.609-12 21.5m195-597.75c31.02 28.148 61.523 58.884 81.17 96.587 32.224 59.01 42.28 126.838 46.608 192.947 4.002 70.503 2.663 141.512-4.778 211.716h69c-2.554-98.771-7.873-198.99-35.463-294.656-12.166-44.463-30.686-87.46-59.018-124.147-13.3-18.494-27.716-36.234-43.994-52.172-8.222-8.271-16.74-16.239-26.074-23.238-4.302-3.606-8.908-6.868-13.62-9.896-5.897-4.79-8.964.501-13.831 2.109zM1644.5 2425c37.077-78.697 61.413-162.815 81.83-247.143 2.413-11.001 4.758-22.014 7.24-32.988 1.286-4.862 2.084-9.811 2.949-14.745 2.939-9.649-1.138-16.639-5.204-24.431-13.81-28.07-27.783-56.043-43.032-83.343-14.27-25.736-28.576-52.78-44.283-77.35.76 159.946-.926 320.14.5 480" style="fill:#000;fill-rule:evenodd;stroke:none"/></svg>