<svg xmlns="http://www.w3.org/2000/svg" width="3000" height="3000"><path d="M448 2669h2104c-108.019-653.996-218.137-1307.761-326.618-1961.691-6.813-40.83-13.621-81.671-20.41-122.502-.9-5.185-1.732-10.375-2.627-15.558-.693-5.948-7.25-6.546-11.566-8.162a2264805 2264805 0 0 1-451.953-150.644c-56.522-18.824-113.032-37.715-169.56-56.514-12.477-4.17-24.972-8.31-37.44-12.486-6.015-1.98-11.998-4.026-18-6-5.943-1.873-12.256-5.247-18.565-3.023-92.812 30.91-185.585 61.892-278.396 92.78-138.737 46.826-278.12 92.047-416.698 139.266-3.665 1.962-2.298 9.57-3.876 12.727-22.4 134.514-44.811 269.006-67.243 403.502C635.746 1543.503 540.855 2106.166 448 2669m624-155.75c1.171 2.847 3.579 5.81 4 8.75 78.975-12.18 156.856-31.656 231.18-61.271 35.921-14.695 71.648-30.016 105.287-49.5 16.81-8.765 32.567-19.237 47.978-30.205 7.977-5.086 14.999-13.7 25.16-13.024 5.139-.07 10.566.466 15.399-1.702 4.371-1.94 7.694-5.497 10.996-8.798-48.832-28.116-99.826-53.125-148.5-81.5-37.08 52.296-83.82 97.067-134.016 136.626-48.465 39.068-100.968 74.15-157.484 100.374zm34-1258.304v51.654c.393 14.967-.648 30.01.766 44.925 3.684 23.121 19.834 41.493 36.868 56.178 26.712 21.071 57.527 36.265 89.377 47.906 33.162 12.978 67.71 22.04 102.614 28.816 59.399 11.184 119.961 15.175 180.33 14.502 87.283-1.61 175.616-13.442 257.12-46.094 38.146-15.039 76.99-34.087 103.806-66.198 6.2-7.674 11.585-18.101 14.263-26.71 4.69-16.852 1.973-34.736 2.856-51.965v-53.386c-.869-31.587 1.06-63.287-.573-94.82-4.055-24.498-20.238-45.28-39.435-60.165-33.337-26.186-72.926-43.01-112.696-56.649-63.147-20.92-129.609-29.468-195.79-32.422-69.718-2.351-139.899-.17-208.637 12.98-59.73 12.157-119.613 30.01-171.766 62.451-25.021 15.702-49.27 37.75-57.176 67.327-3.113 16.307-1.383 33.085-1.927 49.602zM1876 1200h-3c-2.285 7.202-11.132 12.25-16.083 17.25-49.855 37.97-111.583 55.1-171.071 70.782-97.689 22.506-199.63 23.7-298.822 12.466-48.198-6.232-96.06-16.175-142.16-31.699-22.286-7.458-44.168-16.366-64.867-27.506-19.157-10.926-40.352-22.634-52.997-41.293h-4c-.034 4.48-.151 8.983.555 13.413 15.839 22.56 44.027 40.29 65.452 52.567 53.922 28.696 113.67 44.432 173.805 53.17 94.227 13.734 190.785 13.062 284.852-1.588 45.61-7.503 90.91-18.675 133.486-36.992 20.092-8.37 39.335-18.644 57.158-31.124 9.155-6.132 17.625-13.252 25.587-20.84 3.901-3.922 7.599-8.083 10.916-12.509 3.307-4.755 1.792-10.758 1.189-16.097m-671 201v-96c-5.994-.96-13.264-5.349-19.904-7.964-6.307-2.508-12.75-8.443-19.096-9.036v71.8c.283 5.936-.441 13.051.475 18.445.56 3.437 6.487 5.383 8.673 7.349 4.865 2.772 9.634 5.655 14.556 8.303 4.892 2.251 10.183 6.627 15.296 7.103m-2.997-247.763c-.45 18.25 12.159 32.936 25.37 43.249 13.192 10.029 28.026 17.893 43.225 24.4 91.308 37.225 192.394 43.539 289.766 36.85 47.644-3.975 95.227-11.596 140.81-26.293 21.105-7.023 45.906-16.44 62.851-28.12 19.53-11.26 36.815-31.468 33.669-55.544-2.51-24.928-25.078-38.95-42.233-49.973-73.645-39.613-159.24-49.51-241.387-51.782-83.363-1.184-168.555 7.497-246.084 40.047-14.737 6.787-29.356 14.074-42.023 24.367-12.982 10.03-24.047 25.428-23.964 42.8M1222 2306c28.952.668 58.566-.835 85.624-12.367 13.05-4.708 25.306-11.397 36.694-19.238 5.31-3.766 11.487-9.817 11.635-16.095.134-7.762-.024-15.539.047-23.3h303v58c39.508 1.39 79.305-5.213 115.21-22.454 8.326-3.448 20.385-8.81 19.787-17.798.008-31.758-.002-63.526.003-95.279v-335.687c.016-18.59-.02-37.172.01-55.756.304-1.77-.08-4.63 1.347-6.176 10.61-4.206 27.443-6.168 34.643-19.85-40.5-29.437-79.068-63.314-119.5-93-13.938 14.243-28.792 32.315-41.482 45.475-6.569 6.216-11.575 13.978-18.366 19.947-3.168 2.547-9.06 1.093-13.467 1.578h-251.191c-7.748-.501-17.113.758-24.114-.771-46.854-17.388-92.783-37.612-139.88-54.229zm3.01-1152.568c-.016 13.35 9.678 24.334 19.557 31.727a157.7 157.7 0 0 0 32.748 18.772c40.711 17.654 84.42 27.798 128.406 32.765 70.404 8.05 141.94 7.193 212.03-3.294 33.34-5.484 66.507-13.417 98.072-25.531 14.712-6.402 29.64-13.114 42.153-23.348 11.62-8.691 23.427-25.18 15.796-41.825-9.153-18.692-32.17-30.516-48.233-38.464-70.198-33.971-150.117-38.865-226.658-39.234-76.973.03-155.839 8.879-227.16 39.746-20.304 10.037-46.04 24.247-46.711 48.686M1238 1416c13.355 3.32 26.342 8.906 40 11v-70.8c-.014-6.005.017-12.031-.009-18.034 1.305-8.669-12.011-9.785-17.687-11.91-7.204-1.882-15.38-6-22.304-6.256zm92 24c11.249 1.948 22.651 3.79 34 5v-84c-.444-3.687.873-9.05-1.693-11.493-10.638-2.143-21.553-3.98-32.307-5.507zm26 440h303v-142h-303zm0 166h303v-141h-303zm0 165h303v-141h-303zm47.005-1062.023c-.934 21.079 24.385 33.986 40.383 39.563 14.346 4.822 29.483 7.458 44.619 7.456 22.986.58 46.306.051 68.371-7.304 17.217-5.91 42.779-17.57 40.539-42.183-.475-16.11-12.97-24.745-25.723-31.43-20.092-9.94-42.766-13.124-64.864-13.98-22.216-.328-44.942 1.79-65.986 9.367-17.134 6.475-38.084 18.44-37.339 38.51m22.092.29c-.173 10.217 11.848 16.177 19.61 18.475 23.67 8.536 49.083 11.568 74.053 8.968 12.76-.739 25.275-3.624 36.969-8.797 10.111-4.07 23.865-12.695 19.048-24.03-4.935-9.914-19.322-13.314-28.472-16.945-33.089-11.734-76.2-8.44-105.042 5.095-6.89 3.71-16.37 9.27-16.166 17.234M1542 2313.375c46.178 27.31 89.65 59.462 131.203 93.434 31.64 26.79 63.332 53.935 91.03 84.924 5.616 5.536 10.928 11.373 15.813 17.559 2.35 2.755 4.592 5.664 7.347 8.008 14.079 3.988 32.216 4.789 45.317 1.504 23.717-5.763 43.387-26.143 48.274-49.98 7.113-38.17-15.868-74.378-43.983-97.592-28.458-23.411-63.094-37.595-98.11-47.83-61.798-17.669-126.984-20.19-190.717-15.97-2.795 1.03-4.172 3.963-6.174 5.943M1625 1448v-96c-10.77-.28-23.163 2.841-33 3v82.026c.065 4.065-.294 8.328.701 12.27 1.217 2.306 5.6 1.165 7.626 1.363 8.251-.668 16.415-2.184 24.673-2.659m31-6c13.18-.595 25.84-5.411 39-6v-96c-6.814-.158-13.43 1.605-20.05 2.912-5.884 1.541-14.222 2.497-18.95 4.088zm64-14c6.94-.217 13.24-3.797 19.866-5.395 5.017-1.371 9.958-3.005 14.868-4.676 3.6-1.308 8.038-2.44 11.082-4.242 2.665-1.299 1.835-6.177 2.184-8.449V1318c-16.078 3.86-31.92 10.142-48 14zm81-29h1.5c7.844-3.702 16.27-9.696 23.268-13.472 4.926-3.918 12.564-6.605 16.021-11.425 2.414-5.333.412-11.008 1.211-16.707V1281c-6.796.619-13.01 8.777-20.361 11.65-7.09 3.548-13.867 8.365-21.639 10.35z" style="fill:#c22;fill-rule:evenodd;stroke:none"/><path d="M338 2761.5c387.06 1.426 774.925-.26 1162.15.5 387.224-.76 774.71.926 1161.85-.5-77.265-456.459-152.125-914.01-228.874-1370.691-28.417-170.851-56.988-341.657-85.4-512.497-12.491-74.824-24.942-149.684-37.431-224.508-5.828-35.176-11.741-70.32-17.569-105.492-3.54-17.097-4.968-34.714-9.072-51.664-1.3-3.941-8.915-3.966-11.797-5.85-133.175-44.44-266.372-88.79-399.558-133.193-116.482-38.867-233.005-77.647-349.48-116.505-6.56-1.974-12.94-4.527-19.527-6.382-6.558-1.31-12.878 2.396-19.017 4.029-100.339 33.452-200.674 66.889-301.01 100.324-87.802 29.33-175.659 58.504-263.446 87.829-38.52 12.817-77.015 25.657-115.52 38.495-18.005 5.974-35.995 12.026-54 18-8.822 2.95-17.652 5.903-26.471 8.83-4.346 1.012-8.371 2.451-8.57 8.208-90.761 544.76-181.624 1089.514-272.367 1634.27-35.423 208.458-69 418.87-104.891 626.797m111-95v1.5h2102v-1.5c-63.81-378.768-126.215-757.87-189.705-1136.696-47.349-283.998-94.654-568.016-142-852-4.398-26.67-8.911-53.338-13.325-80.003-1.118-6.656-2.232-13.342-3.35-19.985-.571-3.586-1.119-7.183-2.096-10.662-1.288-2.958-6.82-3.128-9.193-4.54-101.51-33.828-203.017-67.663-304.512-101.514a746151 746151 0 0 1-266.522-88.84c-39.072-12.89-78.06-26.135-117.144-38.98-4.713-1.335-9.273 1.032-13.839 2.453-144.507 48.104-288.95 96.378-433.449 144.467-54.18 18.08-108.385 36.116-162.566 54.195-23.808 7.923-47.625 15.882-71.434 23.805-5.676 1.96-11.407 3.738-17.06 5.726-6.564 1.113-6.72 8.744-7.34 13.268C740.08 921.349 682.77 1265.54 625.383 1609.692 566.339 1961.663 508.308 2314.864 449 2666.5" style="fill:#7a7474;fill-rule:evenodd;stroke:none"/><path d="M1075 2523c79.778-11.407 158.188-31.783 233.18-61.271 36.547-14.8 72.712-30.592 106.894-50.347 16.795-8.962 32.643-19.449 48.082-30.534 7.137-5.798 14.934-13.302 26.395-11.848 9.443.802 20.57-3.586 24.449-13-25.886-11.713-49.797-27.903-75.449-40.221-25.164-13.53-50.2-27.753-75.551-40.779-37.97 51.6-83.771 97.438-134.516 136.626-48.448 39.061-100.995 74.163-157.484 100.374.138 4.023 3.353 7.113 4 11m30-1268.253v51.853c.396 15.075-.623 30.224.683 45.254 3.363 23.43 19.823 42.014 36.951 56.849 26.84 21.202 57.854 36.38 89.844 48.097 33.333 13.077 68.117 22.032 103.199 28.848 59.527 11.128 120.206 14.93 180.685 14.293 87.506-1.587 176.006-13.358 257.713-46.108 38.276-15.118 77.31-34.235 104.122-66.587 6.144-7.748 11.56-18.177 14.12-26.863 4.519-17.094 1.742-35.182 2.683-52.622v-53.387c-.863-31.837 1.053-63.801-.569-95.596-4.044-24.512-20.244-45.3-39.439-60.189-33.474-26.25-73.188-43.16-113.133-56.791-63.628-20.821-130.557-29.635-197.221-32.347-69.374-2.137-139.247-.274-207.652 12.847-60.122 12.096-120.38 30.08-172.884 62.651-25.168 15.775-49.577 38.014-57.29 67.842-2.976 16.366-1.252 33.125-1.812 49.686zM1874.5 1201c-8.311 12.826-23.953 22.945-35.472 30.335-52.642 31.187-112.17 49.251-171.717 61.9-47.262 9.577-95.699 14.316-143.925 14.765-72.909 1.94-146.45-4.36-217.599-20.824-33.443-7.484-66.405-17.697-97.964-31.042-15.284-6.506-30.162-13.964-44.287-22.726-13.658-8.677-28.71-18.525-37.536-32.408h-2c.389 4.02-.69 8.503.96 11.95 14.889 20.752 40.71 37.79 60.516 49.436 53.256 29.575 112.779 45.802 172.667 55.002 94.494 14.03 191.336 14.392 285.79-.37 45.806-7.231 91.248-18.412 134.052-36.508 20.168-8.31 39.625-18.4 57.551-30.847 9.257-6.029 17.63-13.267 25.845-20.591 7.184-6.933 17.805-16.05 13.119-28.072m-671 199c1.426-31.207-.26-62.73.5-94-11.019-3.04-25.056-9.935-35.303-17H1167v69.58c.246 5.725-.343 12.487.29 17.715.236 3.626 5.304 5.783 7.3 7.396 9.474 5.725 19.266 10.92 28.91 16.309m-.486-246.569c.067 17.898 12.708 32.167 25.758 42.369 13.355 10.057 28.324 17.945 43.685 24.449 44.614 19.636 92.905 28.496 140.944 34.431 74.063 7.465 149.393 5.834 222.638-8.013 34.729-6.447 68.903-16.245 101.292-30.364 15.66-7.125 30.698-15.77 43.306-27.629 12.482-12.19 20.574-30.277 14.422-47.755-7.956-21.37-27.301-35.865-47.137-45.539-74.225-37.728-159.45-46.685-241.351-48.38-81.98-.215-166.34 8.32-242.016 42.192-14.16 6.139-27.595 14.048-39.557 23.81-11.802 9.879-21.826 24.288-21.984 40.43M1221 2307c29.406.718 59.537-.372 87.046-12.157 13.097-4.669 25.397-11.339 36.847-19.141 5.463-3.809 11.874-9.989 12.06-16.402.134-7.762-.024-15.539.047-23.3h301v58c20.517-.002 41.398.67 61.494-4.38 14.641-3.131 28.937-7.429 42.947-12.645 10.013-4.117 20.316-8.059 29.194-14.376 5.509-5.351 2.343-16.833 3.365-25.004v-415.413c.036-18.59-.044-37.171.024-55.756.074-2.013.455-4.845 1.715-5.962 13.156-2.968 26.917-8.131 35.261-19.464-39.747-32.769-81.222-63.83-121.5-96-14.314 15.026-27.91 30.735-41.994 45.972-6.504 6.407-11.843 13.93-18.494 20.187-3.245 2.688-9.2 1.546-13.827 1.841h-251.788c-7.741-.388-17.331.956-24.107-1.705-46.425-18.03-92.663-36.934-139.29-54.295zm3.002-1153.77c-.413 13.873 9.31 25.366 19.565 32.93a157.7 157.7 0 0 0 32.748 18.77c40.329 17.55 83.607 27.578 127.184 32.627 70.266 8.045 141.653 7.34 211.67-2.609 33.208-5.315 66.381-12.862 97.937-24.598 14.756-5.885 29.169-12.878 42.212-21.955 13.304-8.764 24.209-23.31 21.32-40.093-1.378-10.894-9.959-18.678-17.566-25.564-30.555-24.124-75.23-37.413-109.163-45.669-63.968-13.669-129.938-14.518-195.003-12.191-61.344 3.998-123.61 12.988-180.59 37.354-11.148 4.703-23.647 11.842-32.313 18.763-9.755 7.668-18.518 18.813-18.001 32.236M1239 1415c12.557 3.953 25.287 7.609 38 11v-69c-.005-5.822.006-11.629-.003-17.44 1.062-9.304-10.3-9.568-16.756-11.98-6.959-1.743-14.7-5.637-21.241-6.58zm92 24c10.563 2.078 21.366 3.32 32 5v-79.2c-.177-3.793.318-8.322-.423-11.753.273-2.795-4.472-3.134-6.313-3.669-8.387-1.654-16.926-2.634-25.264-4.378zm26 440h301v-140h-301zm0 166h301v-139h-301zm0 165h301v-139h-301zm47.02-1061.117c-.227 20.425 24.254 32.928 39.883 38.465 14.278 5.003 29.411 7.49 44.508 7.645 23.071.563 46.583-.052 68.626-7.867 16.856-5.983 41.973-18.173 38.652-42.445-2.191-15.828-15.168-23.272-27.952-29.799-20.304-9.181-42.641-12.463-64.74-12.847-21.69-.075-43.824 2.651-64.172 10.435-15.783 6.536-35.02 17.786-34.804 36.413m19.467-.462c.844 12.794 11.68 17.783 22.208 20.975 11.964 4.1 24.353 6.801 36.889 8.298 15.99 1.844 32.149 1.112 48.064-1.173 10.748-1.823 23.09-5.761 31.99-10.373 6.535-3.568 15.363-9.558 14.211-18.936-1.16-12.68-20.273-17.823-28.546-20.956a132.3 132.3 0 0 0-38.253-7.21c-15.046-.585-30.162-.356-44.867 3.212-12.872 3.397-28.828 8.849-37.621 17.738-2.857 2.324-3.001 5.36-4.075 8.425M1540 2313.5c48.695 29.764 95.386 63.037 138.978 99.975 34.02 28.188 66.049 58.838 95.652 91.615 5.119 5.834 9.684 14.293 19.534 15.027 16.137 3.016 33.64 2.865 49.02-3.39 11.624-5.175 24.274-14.897 30.132-25.27 13.19-20.995 12.692-47.51 3.676-69.85-13.285-32.82-41.56-56.409-71.61-73.378-32.032-16.871-66.922-27.876-102.433-34.528-51.411-9.347-104.15-10.879-156.186-7.253-2.361 2.047-4.905 4.474-6.763 7.052m84-866.5v-94c-10.411-.023-20.62 2.853-31 3v79.229c.166 3.76-.305 8.303.418 11.7-.338 3.251 4.254 2.846 6.21 2.709 8.157-.662 16.214-2.14 24.372-2.638m33-6h1.5c11.386-2.165 24.928-4.895 35.5-6v-94c-6.158.075-12.095 1.88-18.107 2.925-5.863 1.547-14.184 2.474-18.893 4.075zm64-14h1.5c8.8-3.154 17.739-5.808 26.66-8.554 5.755-2.296 17.023-3.928 17.683-10.084.447-23.244-.08-46.494.157-69.745V1319c-14.983 5.473-30.836 9.203-46 14zm81.5-29c8.574-5.335 17.404-10.333 25.945-15.746 2.93-2 6.951-4.228 10.053-6.534 5.333-4.602 2.837-14.927 3.502-22.32V1282h-1.5c-11.03 9.076-26.344 17.395-38.5 22 .76 31.28-.926 62.801.5 94" style="fill:#fff;fill-rule:evenodd;stroke:none"/></svg>