<svg xmlns="http://www.w3.org/2000/svg" width="3000" height="3000"><path d="M363 2763h2274c-116.814-706.669-235.682-1413.086-352.952-2119.695-7.308-44.176-14.77-88.328-22.078-132.504-.85-5.35-1.876-10.687-2.644-16.043-.234-6.195-6.475-7.536-11.043-8.824a934352 934352 0 0 0-244.456-81.491c-142.52-47.505-285.036-95.033-427.561-142.514-13.472-4.534-26.962-8.977-40.44-13.486-6.522-2.157-13.032-4.381-19.56-6.514-6.096-1.753-13.465-5.547-19.46-4.23-100.259 33.04-200.308 66.843-300.509 100.041-150.195 50.194-300.513 100.016-450.67 150.303-5.725 2.09-4.82 8.134-5.986 13.239-24.325 145.631-48.567 291.265-72.827 436.899C565.92 1546.494 463.462 2154.662 363 2763m648-397.875c22.803 50.177 46.817 100.372 69 150.875 8.042-2.377 15.475-12.184 18.827-17.698 2.122-3.667 3.483-7.657 4.893-11.611 2.941-6.053 12.158-9.823 17.646-15.22 47.04-36.459 93.762-73.508 138.018-113.316 22.525-20.156 44.635-40.758 66.623-61.497 11.338-10.1 21.658-21.28 33.095-31.26l16.13-16.13c3.955-4.37 13.153-9.843 7.268-17.268-20.853 7.984-41.443 16.837-62.201 25.07-10.315 4.354-20.827 8.22-31.246 12.307-10.129 2.957-21.342 9.473-31.053 10.623v-221h69.6c11.527-.19 23.072.279 34.585-.265 5.326-.39 10.763-.373 15.937-1.821 4.808-.7 9.063-6.392 12.878-6.914v215c27.616-.316 55.824-.349 82.675-7.763 12.731-3.39 25.023-8.198 36.398-14.838 5.466-3.085 10.497-6.956 15.135-11.173 6.104-5.099 4.794-12.17 4.792-19.226h284c-.706 33.039-3.002 66.025-5 99-3.046-.24-5.332-3.882-7.4-6.528-17.141-19.628-40.68-32.574-65.296-40.2-12.996-4.092-26.44-6.446-39.874-8.512a183 183 0 0 0-20.392-2.482c-2.932-.238-6.8-.396-9.903-.375-2.352 1.56-5.079 2.575-7.135 4.597 17.687 17.568 32.254 37.79 45.511 58.794 12.325 20.755 23.931 42.717 28.489 66.706 11.037 4.578 21.843 10.992 34.359 10.79 6.165.536 12.275-1.18 17.904-3.549 5.716-1.564 11.951-7.44 16.737-8.241-1.676 17.933-5.755 38.991-10.754 54.725-3.085 12.859-11.227 25.177-25.019 27.967-10.85 2.414-22.205.639-33.202 1.308-16.279-.191-32.553-.917-48.785-1.929-15.572-1.152-34.021-1.397-48.24-3.071.451 3.038-.848 8.536 2.372 9.596 3.265 1.612 6.963 2.104 10.42 3.102 28.297 7.43 56.851 19.348 75.623 42.86 9.65 11.415 13.66 26.478 15.733 40.962 2.458 15.706 3.035 31.614 2.852 47.48 27.155-.528 54.77-2.327 80.86-10.45 18.3-5.29 35.323-13.875 51.021-24.529 22.676-17.769 37.008-43.986 45.319-71.153 8.728-29.02 13.686-59.025 17.326-89.063 5.912-58.1 10.18-116.41 11.474-174.805 14.662-1.477 29.79-6.308 40-17.5-38.794-32.186-77.388-64.731-116.5-96.5-16.895 17.141-35.503 32.422-52.475 49.475-4.165 4.523-8.75 8.608-13.503 12.486-3.289 3.673-9.3 3.147-13.752 3.039H1747v-124h102c17.213-.004 34.436.005 51.643-.003 13.504-.233 33.51 1.699 41.357-14.497-33.772-34.46-71.673-64.466-108.5-95.5-11.787 17.104-24.515 33.786-36.44 50.846-6.24 8.379-12.166 16.997-18.438 25.344-1.465 2.38-3.249 4.473-5.313 6.327-8.713 1.003-17.567.124-26.309.483v-123h154.2c13.698-.324 31.895 2.948 40.8-14.5-33.967-33.94-71.691-63.789-108.5-94.5-12.226 17.034-24.772 33.88-36.863 51.017-6.127 8.63-12.46 17.1-18.654 25.682-1.552 1.784-2.884 4.536-4.802 5.652-8.58 1.404-17.516.11-26.181.649v-122h164.4c15.997-.288 38.798 2.286 44.6-14.547-16.697-16.96-34.366-32.892-52.804-47.944-8.783-7.84-17.823-15.382-26.694-23.107-4.532-3.842-8.77-7.995-13.503-11.595-3.962-3.473-10.856-8.109-10.999-12.807 13.8-1.243 29.27-7.262 41.033-11.643 9.203-4.082 18.128-9.261 24.864-16.872 4.376-5.326 6.832-12.861 13.668-17.654 17.29-16.383 25.262-41.051 23.111-64.483.147-13.837-7.377-28.317-10.35-40.243-2.98-12.728-2.825-26.09.591-38.728 6.959-22.935 21.253-42.848 30.719-64.721 8.238-18.75 11.379-41.904-.084-60.125-9.881-14.775-25.014-24.57-39.172-34.59-11.99-8.414-28.473-18.596-30.506-32.158-2.606-14.315 6.736-26.928 14.511-37.64 12.668-18.837 26.294-38.644 30.206-61.538 3.144-17.965 2.338-37.03-4.45-54.097-10.538-24.677-33.875-39.572-55.762-52.546-11.074-6.82-23.144-11.902-34.373-18.416-10.658-5.687-23.33-14.455-27.64-25.183-4.552-14.096.354-28.978 7.085-41.237 13.046-22.627 24.161-47.77 23.549-74.388.494-12.912-1.914-26.138-9.007-37.175-14.412-19.8-40.143-25.762-62.591-30.163-45.95-7.34-92.948-11.442-137.102-27.14-4.558-1.583-9.263-2.892-13.627-4.951-3.079-2.655-1.748-9.425-4.217-13.43-10.509-36.266-25.904-71.4-46.102-103.35-8.904-13.493-18.4-26.863-30.361-37.87-5.689-4.744-12.155-9.527-19.776-10.315-14.72-1.112-29.162 14.119-36.692 21.631-19.006 19.41-33.504 42.748-46.28 66.515-2.921 5.486-5.53 11.107-7.902 16.848-1.797 6.613-5.08 10.754-11.538 11.899-41.318 17.02-71.41 52.55-109.335 74.962-15.114 8.836-32.637 16.14-50.668 14.16-7.524-.581-15.955-3.604-21.929-7.025-5.754-3.397-11.22-9.25-16.621-12.17-5.697-2.883-12.894-7.105-18.197-3.162-5.596 4.632-3.725 12.61-3.538 18.203 1.908 22.691 13.64 43.507 27.908 60.634 11.55 12.57 23.954 24.328 38.748 33.277 2.523 1.758 5.278 3.115 8.004 4.51 8.027 3.27 1.384 9.015-3.165 12.158-30.625 29.13-61.042 58.512-88.745 90.453-22.41 25.138-44.43 50.628-65.68 76.771-7.828 9.717-23.772 16.856-34.405 27.062-20.944 16.274-42.796 39.053-56.156 59.38-27.386 42.03-31.407 100.823-6.807 145.134 17.837 32.856 52.036 54.293 88.877 58.425 56.612 6.497 111.027-19.611 154.878-52.984 5.514-4.115 10.782-9.61 17.996-8.715 13.085.14 26.153 1.214 39.212 1.456 19.73-1.261 39.588-.297 59.313-2.003 9.384-1.178 18.86-1.127 28.228-2.357 9.05-1.174 18.126-2.516 27.277-2.406-.463 13.278-5.567 25.93-7.526 38.967-10.628 48.537-19.823 97.38-28.522 146.297-2.778 17.626-6.125 35.182-8.459 52.863-3.074 15.876.663 33 13.3 44.003 20.844 17.303 52.915 24.56 76.662 28.777 43.69 6.465 87.993 8.543 132.117 9.175 22.913 1.146 45.867 1.067 68.784.106 22.72-.328 45.433-.36 68.099-2.086 20.201-1.115 40.483-2.452 60.545-5.102-.48 4.852-4.457 8.394-6.866 12.31-10.553 14.76-21.272 29.377-31.809 44.138-4.5 6.369-9.022 12.71-13.755 18.906-2.873 3.313-7.602 2.571-11.668 2.646H1561.35c-8.022-.02-16.294.79-23.861-2.317-49.086-16.72-97.255-36.565-146.489-52.683v68h-2.5c-31.11-31.63-62.662-62.798-96-92-14.335 19.178-25.86 40.408-39.773 59.9-5.17 7.428-9.953 15.083-14.787 22.712-2.59 2.71-4.323 8.477-7.908 8.918-69.163 2.859-138.94-2.096-208.032 1.47 2.027 8.445 5.732 18.111 7 26h94v255h-93c2.545 8.112 4.816 19.952 8.296 26.096 10.155 2.104 20.995.005 31.314.904H1123v271c-37.261 11.775-74.15 25.115-112 35zM1277.5 1312c29.596 4.254 60.738 2.65 90.724 2.847 43.193-1.566 87.11-4.396 128.525-17.95 19.277-6.678 38.071-15.525 53.883-28.625 15.347-12.525 27.793-28.082 37.42-45.606 7.974-15.998 16.967-32.065 20.948-49.666 6.27.892 12.046 4.039 18.158 5.56 5.426 2.5 13.664 4.303 17.842 6.94-13.498 35.025-29.497 71.024-56.87 97.87-27.028 27.193-62.19 45.196-99.13 54.63-8.117 46.28-20.519 91.913-28.144 138.324-7.11 36.272-13.973 72.594-19.11 109.202-.643 5.893-2.322 14.107 4.185 18.338 20.239 12.297 48.983 14.645 69.772 18.062 39.049 4.867 78.407 6.476 117.735 7.068 40.529.266 81.045.41 121.511-2 32.574-1.592 65.23-4.078 97.224-10.752 11.274-2.44 25.028-5.57 34.108-11.34 5.367-3.768 5.01-9.283 4.717-14.788-1.14-79.922-13.676-159.337-32.699-236.822-22.571-92.477-53.168-183.241-93.354-269.569-17.622-38.089-37.573-75.227-60.322-110.495-16.135-26.008-35.266-50.06-56.527-71.985-8.47-7.967-16.872-16.059-26.607-22.522-4.158-2.6-8.313-5.253-12.533-7.725-2.2-.98-4.234-2.212-6.197-3.572-2-1.13-.764-4.95-1-6.819 2.683-37.392-5.486-74.762-19.47-109.372-6.438-16.067-15.242-34.604-24.284-47.71-4.974-6.859-10.66-14.729-19.332-17.085-10.502-2.282-17.98 3.275-23.494 10.745-11.797 12.8-19.056 28.864-26.859 44.157-11.537 24.68-16.693 52.122-16.32 79.38-.557 26.193 3.573 54.667 22 74.78-9.368 15.505-26.497 29.382-39.906 38.779-30.979 21.127-69.097 31.965-106.66 28.075-4.026-.173-8.793-1.416-12.492-.904-6.471 2.15-12.02 10.35-17.356 14.347-43.777 40.426-84.768 83.809-123.37 129.187-15.069 16.182-27.392 34.77-42.564 50.846-30.789 21.592-63.73 43.66-82.945 77.17-15.106 26.108-17.782 58.256-10.413 87.102 5.397 20.615 19.957 37.982 38.936 47.41 31.581 14.39 69.088 10.57 100.49-1.985 29.658-12.425 56.871-30.975 79.78-53.527m-115.067-90.946c1.455 14.704 14.061 31.166 15.38 48.493.877 4.046 1.722 9.136 4.056 12.251 5.527 6.602 12.34 1.41 15.972-3.671 3.729-5.164 5.956-11.226 7.764-17.268 4.383-13.494 3.363-29.83-5.749-41.246-5.81-7.569-14.948-13.937-25.104-11.87-7.495.796-11.96 6.464-12.319 13.31M1258 2021h3c13.213-24.876 28.764-48.975 43.5-73 29.652 29.253 57.318 60.55 84.5 92h2v-266h-1.5c-10.193 3.822-21.209 3.053-31.85 3H1258zm134 261c-2.962.079-6.967-.038-8.837 2.038-2.213 2.727-1.196 6.462-2.59 9.602-5.967 34.76-21.57 67.96-45.578 93.861-8.973 9.575-18.445 18.694-29.268 26.186-8.15 6.515-20.613 10.957-26.203 19.113-10.84 15.909-22.22 33.823-21.522 53.97-.241 15.332 6.573 30.484 17.58 41.04 17.04 15.55 41.122 22.221 63.79 18.188 22.022-3.816 41.836-16.247 54.787-34.364 24.436-32.578 28.148-75.355 25.187-114.53-3.335-39.553-14.969-77.65-27.346-115.104m9.005-1201.757c.045 20.499 15.348 51.335 45.116 43.956 17.856-6.225 28.142-28.714 26.879-44.962.62-18.456-11.598-37.635-29.607-42.867-25.912-4.558-42.597 23.307-42.388 43.873M1460 2289c5.302 32.449 10.003 65.498 8.569 98.513-.486 25.68-3.16 51.431-9.109 76.404-.26 3.928 4.486 7.016 6.903 10.532 11.43 12.185 27.285 21.592 44.554 20.546 25.583-.258 46.492-20.967 54.526-43.888 4.262-12.38 6.647-25.605 5.094-38.708-1.141-12.065-6.053-25.583-10.632-35.581-17.433-38.628-50.9-67.38-86.526-88.806-4.176-2.876-8.863.653-13.379.988m70-403h78v-122h-39c-12.585-.337-25.248.67-37.75-1-.301.49-.688.853-1.25 1zm0 149h78v-123h-78zm0 151h78v-124h-39c-12.585-.337-25.248.67-37.75-1-.301.49-.688.853-1.25 1zm29 91.297c11.546 24.568 23.79 49.217 31.722 75.376 6 19.969 11.608 40.202 13.2 61.103.323 7.305-.597 16.723 7.305 21.29 10.563 7.815 23.104 14.331 36.614 13.933 20.051.918 39-12.748 46.85-30.747 8.222-18.21 6.733-39.543-.933-57.637-11.267-23.331-30.426-42.132-52.258-55.62-21.823-13.523-45.89-22.841-70.228-30.711-4.881-1.785-8.318.809-12.272 2.716z" style="fill:#c22;fill-rule:evenodd;stroke:none"/><path d="M244 2863.5c418.26 1.426 837.325-.26 1255.75.5 418.681-.76 837.643.926 1256.25-.5-137.483-816.352-271.828-1633.965-409-2450.5-141.513-45.746-282.358-94.352-423.703-140.74-105.839-35.248-211.646-70.575-317.47-105.817l-60-20a8496 8496 0 0 1-28.008-9.343c-4.68-1.543-9.347-3.083-13.982-4.729-5.086-2.015-9.193.742-14.014 2.193-139.528 46.49-279.049 93.006-418.557 139.507C931.703 319.858 792.72 367.853 653 413c-137.126 816.275-271.612 1634.71-409 2450.5m120-103v1.5h2272v-1.5c-68.931-409.09-136.257-818.54-204.874-1227.691-51.076-306.848-102.33-613.661-153.4-920.497-4.868-28.824-9.564-57.688-14.431-86.508-1.116-7.008-2.365-13.985-3.488-20.978-1.2-6.774-.246-15.245-9.425-16.859-109.868-36.632-219.702-73.24-329.563-109.867-95.996-32.013-192.02-63.992-288-96-41.993-13.978-83.98-28.011-125.966-41.994-5.663-2.605-10.407-1.693-15.513.621-156.173 52.06-312.354 104.114-468.521 156.173-58.68 19.531-117.334 39.097-175.992 58.657-25.668 8.506-51.298 17.139-76.962 25.643-6.176 2.075-12.369 4.11-18.537 6.195-3.02 1.124-6.483 1.813-8.8 4.255-62.934 375.423-125.132 751.075-187.889 1126.544C490.857 1998.664 428.048 2380.37 364 2760.5" style="fill:#797575;fill-rule:evenodd;stroke:none"/><path d="M1080.5 2518c7.206-4.379 14.4-9.701 18.582-17.348 3.672-7.282 5.344-16.049 12.936-20.378 49.622-37.343 97.639-76.826 144.563-117.463 22.933-21.585 47.048-41.833 69.309-64.134 11.759-10.62 22.786-22.08 34.585-32.652l16.895-16.895c2.512-2.714 5.881-5.544 7.882-8.287 2.627-2.579-1.015-7.153-1.252-10.843-41.752 15.854-82.628 34.762-125 49v-219h68.4c11.343-.163 22.738.22 34.077-.171 8.972-.334 20.503.105 28.023-8.829 1.426 71.5-.26 143.412.5 215 28.086-.263 56.786-.15 84.127-7.599 12.698-3.467 25.13-8.041 36.48-14.743 5.662-3.117 10.83-7.097 15.601-11.432 6.104-5.099 4.794-12.17 4.792-19.226h282c-1.62 32.258-1.973 64.929-5.5 97-16.141-22.718-41.724-37.436-67.72-45.912-13.915-4.728-28.447-7.144-42.903-9.423-7.288-1.322-14.625-2.133-22.014-2.533-3.263.15-8.177-1.346-10.438.187-2.641 1.296-5.42 3.395-7.425 5.181 18.022 17.457 32.545 37.911 45.962 58.965 12.624 20.94 24.35 43.263 29.038 67.535 5.611 1.555 10.378 5.467 16.05 6.978 8.655 3.046 19.764 4.938 28.143 3.41 8.935-1.71 17.003-6.198 24.307-11.388-.91 17.869-6.244 39.157-10.969 54.857-3.228 12.798-12.203 23.925-25.757 26.21-21.718 2.856-43.826-.358-65.611-.086-21.025-1.765-42.15-2.036-63.163-3.981.27 3.859-1.03 10.809 3.123 11.977 3.973 1.693 8.35 2.121 12.43 3.455 27.707 7.486 55.436 19.743 73.564 42.977 9.283 11 13.432 27.91 15.107 40.638 2.4 15.542 2.955 31.26 2.776 46.953 27.834-.377 56.112-2.21 82.86-10.45 18.434-5.386 35.653-13.982 51.44-24.815 22.806-17.994 36.864-44.602 45.254-71.91 8.584-29.24 13.609-59.38 17.18-89.605 5.722-57.57 9.949-115.364 11.266-173.22 10.456-1.087 20.928-3.97 30.074-9.216 2.27-1.452 4.787-3.41 6.595-5.088 1.44-1.34 2.97-3.492 2.843-5.073-3.816-4.141-8.327-7.558-12.623-11.213-10.318-8.521-20.74-16.88-30.89-25.603-24.73-19.984-48.778-40.828-73.499-60.807-16.904 17.217-35.391 32.727-52.602 49.602-4.202 4.502-8.705 8.671-13.467 12.56-6.22 6.044-18.813 2.912-28.171 3.838H1748v-122h88.2c22.013-.008 44.036.01 66.043-.005 14.635-.237 35.458.979 40.067-14.71.893-2.439-3.114-4.909-4.18-6.655-28.273-28.39-59.519-53.602-90.124-79.399-4.832-4.075-10.07-7.724-14.506-12.231-12.395 16.708-24.285 33.827-36.569 50.612-6.105 8.48-12.27 16.918-18.4 25.366-2.832 4.617-5.63 9.148-12.617 8.022H1748v-121c58.41-1.023 116.946 1.248 175.308-.674 6.418-.557 12.48-3.62 16.385-8.781 1.411-1.858 3.762-6.008 2.08-7.661-13.964-15.622-30.61-28.84-46.128-42.854-15.956-13.453-31.32-27.665-47.976-40.274-4.686-3.968-9.753-7.49-14.169-11.756-12.7 16.647-24.688 33.896-37.005 50.833-6.046 8.651-12.578 16.912-18.562 25.589-1.51 1.976-2.776 4.136-4.599 5.842-2.495 3.114-9.501.887-12.716 1.736H1748v-120h165.6c8.697.04 17.46.303 26.052-1.263 6.334-1 13.817-5.042 16.174-10.753 2.632-5.558-5.84-10.774-8.696-14.354-14.531-14.803-31.028-27.402-46.441-41.226-15.513-13.056-30.472-26.726-46.17-39.538-.53-.441-1.02-.908-1.519-1.366v-1.5c13.8-1.243 29.27-7.262 41.033-11.643 9.203-4.082 18.128-9.261 24.864-16.872 4.376-5.326 6.832-12.861 13.668-17.654 17.533-16.45 25.085-41.195 23.23-64.727.082-14.025-5.927-26.727-9.946-39.775-3.433-12.596-3.478-25.952-.026-38.546 6.877-23.107 21.286-43.141 30.813-65.127 7.965-18.994 11.487-42.537.462-61.196-9.621-15.204-25.085-25.072-39.332-35.248-12.013-8.536-28.937-18.707-30.84-32.459-1.894-15.085 7.675-25.332 15.372-36.841 12.84-19.028 26.515-39.2 29.673-62.584 3.097-17.746 1.45-39.483-5.213-54.713-5.741-11.925-14.764-22.054-24.48-30.901-14.562-12.581-32.328-20.693-48.718-30.444-8.69-4.324-17.444-8.628-25.431-14.184-7.954-5.251-16.31-11.653-19.246-21.223-3.242-12.683.937-25.736 7.05-36.7 10.752-20.392 22.408-41.932 23.809-65.489 1.494-19.74.893-47.034-21.362-61.466-17.287-11.599-37.887-16.425-58.245-19.113-39.969-6.375-80.624-10.132-119.33-22.666-7.538-2.87-16.887-5.086-23.535-8.365-8.154-31.53-20.369-62.97-35.717-91.945-12.926-23.318-29.691-51.364-49.629-66.418-11.245-9.166-24.236-8.056-34.867-.674-19.243 12.773-32.7 32.294-46.087 50.588-10.618 16.691-20.831 33.71-28.09 52.196-1.363 5.038-5.357 7.483-9.543 8.245-31.353 12.454-56.041 36.775-82.707 56.478-20.296 14.913-42.163 31.146-68.354 32.787-9.897 1.215-19.883-1.942-28.508-6.494-7.178-3.94-12.594-10.63-20.13-14-6.127-3.247-15.505-6.181-19.49.313-3.493 6.038-1.667 13.504-1.463 20.03 6.558 44.247 41.292 79.433 79.315 99.33-49.617 45.467-95.634 94.695-138.924 146.193-7.845 9.66-16.009 19.077-23.835 28.74-6.21 7.832-18.628 13.917-27.551 21.526-34.305 26.33-67.193 59.253-79.89 101.866-9.59 33.923-8.066 72.114 7.253 104.173 11.244 21.684 28.534 40.617 50.753 51.41 36.117 18.038 79.332 16.805 116.835 4.209 17.832-5.955 34.379-15.116 50.846-24.015 7.545-4.62 14.984-9.382 22.224-14.468 3.84-2.66 7.504-5.585 11.25-8.362 3.647-2.492 7.367-6.343 11.458-6.453 51.99 3.685 103.85-.768 155.581-5.319-4.244 25.811-11.474 51.198-16 76.987-9.12 43.707-17.07 87.63-24.273 131.691-2.331 15.772-6.689 34.581-4.34 49.237 5.848 31.659 40.868 40.357 64.223 47.493 44.015 11.092 89.62 12.133 134.66 14.442 47.748.804 95.534 1.614 143.27-.735 25.733-.736 52.054-2.919 77.46-5.615-10.408 15.171-21.546 29.955-32.237 44.948-4.79 6.488-9.178 13.23-14.075 19.627-2.353 2.827-4.576 6.613-6.895 9.057-2.635 2.688-8.018 1.545-12.09 1.868H1559.75c-15.105 1.226-31.464-5.466-44.105-10.616-41.965-14.857-83.577-30.894-125.645-45.384-.76 22.903.926 46.209-.5 69-16.282-15.653-31.58-32.347-48.128-47.713-7.512-6.904-16.677-16.254-25.105-23.52-3.761-4.197-8.18-7.668-12.365-11.382-4.076-3.022-8.84-9.019-12.902-10.385-11.94 20.535-26.315 40.228-38.967 60.452-5.138 7.471-9.993 15.078-14.804 22.741-2.627 2.908-4.293 8.063-7.611 9.341-69.349 2.846-139.34-2.093-208.618 1.466.898 9.604 5.945 18.415 7 28h94v253h-93v1.5c1.004 4.973 2.553 9.81 3.916 14.684 1.058 3.31 1.816 7.404 3.387 10.21.64 2.735 5.243 2.343 7.299 2.604 8.938.006 17.887-.001 26.82.002H1122v269c-37.249 11.772-74.163 25.119-112 35 .938 7.311 6.06 13.307 8.267 20.183 20.894 44.466 40.655 89.763 62.233 133.817m529-1347c10.805 4.163 22.024 7.434 32.796 11.725 5.39 1.533 1.25 8.965.13 12.467-12.664 34.166-30.026 67.685-57.033 92.904-26.633 25.02-60.128 41.862-95.393 50.904-8.07 45.939-20.31 91.22-27.952 137.276-7.076 36.06-13.801 72.224-19.112 108.58-.586 6.022-2.828 13.72 4.452 18.324 20.22 11.918 48.64 14.43 69.315 17.746 78.69 8.92 158.306 8.247 237.327 5.066 32.202-1.517 64.453-4.043 96.09-10.528 11.556-2.397 23.37-5.04 33.876-10.671 2.285-1.275 3.865-3.345 5.361-5.406 2.019-42.262-3.782-84.925-8.906-126.799-5.157-39.9-14.097-79.154-23.152-118.296-22.44-91.979-52.846-182.264-92.709-268.162-17.538-38.06-37.5-75.136-60.098-110.417-15.948-26-34.953-50.096-55.997-72.09-8.214-8.209-16.75-16.076-26.304-22.728-4.121-2.73-8.392-5.289-12.542-7.978-3.76-2.208-9.845-3.658-9.226-9.32 3.163-37.478-4.417-75.1-18.527-109.851-6.394-16.18-15.112-34.77-24.063-48.027-4.932-6.903-10.264-14.59-18.514-17.81-9.91-3.387-17.438 3.106-23.14 10.274-14.689 16.534-23.45 37.18-32.61 56.98-7.242 18.215-9.66 41.633-10.563 59.372-.168 17.47.348 35.282 5.87 52.036 2.315 6.846 5.182 13.524 9.48 19.4 1.9 2.528 3.846 5.335 5.851 8.445.613 6.668-6.994 11.482-10.243 16.395-35.166 38.404-88.777 58.323-140.485 52.296-3.12.208-6.99-1.816-9.357-.071-35.579 30.424-68.374 64.24-100.054 98.66-18.489 20.255-36.273 41.093-53.901 62.1-6.397 8.136-13.201 15.915-19.618 24.028-5.053 7.763-12.293 13.153-20.196 17.66-25.373 17.703-50.45 37.264-67.599 63.426-17.836 27.337-22.004 62.397-12.472 93.39 8.082 24.67 28.956 44.416 54.439 50.138 47.915 11.433 96.871-9.126 134.256-37.91 6.973-5.074 13.362-10.866 20.01-16.312 3.231-2.312 6.22-7.298 9.951-6.553 35.095 2.772 70.392 2.96 105.55 1.5 49.052-3.517 100.569-7.212 144.546-31.893 20.1-11.094 39.504-29.974 50.54-47.606 13.878-18.848 21.023-41.487 29.926-62.664m-448.236 49.988c2.234 17.656 14.554 32.327 15.654 50.105.936 3.964 1.704 9.192 4.3 12.105 13.498 10.665 22.693-11.69 25.054-20.24 4.526-14.076 4.127-31.09-4.704-43.472-6.12-8.596-16.213-15.078-27.239-12.856-7.918.802-13.167 6.738-13.065 14.358M1393 2281c-3.984.103-8.756-.488-11.469 2.657-.738 3.805-1.912 7.56-2.463 11.411-6.328 34.722-22.476 67.805-46.938 93.302-8.993 9.544-18.572 18.487-29.497 25.799-35.472 17.879-65.896 75.12-29.545 113.218 16.947 16.555 41.18 23.298 64.397 20.04 22.531-3.026 43.212-15.443 56.76-33.534 25.383-32.88 29.03-76.223 26.239-116.089-3.194-40.129-14.951-78.818-27.484-116.804m-133.5-261c13.24-25.339 30.383-48.682 43.5-74h1.5c29.458 29.946 58.345 60.523 85 93 1.426-43.682-.26-87.869.5-131.647-.76-44.051.926-88.382-.5-132.353-9.31 4.43-22.165 2.518-31.22 3H1259c.76 80.6-.926 161.476.5 242m140.501-939.668c-.28 21.428 15.01 51.76 45.554 45.352 18.744-6.144 29.526-27.215 28.445-46.056 1.047-18.969-11.246-39.428-30.17-44.35-26.656-3.923-43.856 20.727-43.829 45.054M1459 2288c4.273 31.994 10.21 64.148 8.667 96.655-.476 24.359-2.27 48.694-8.002 72.454-.662 3.875-2.83 8.44-.032 11.65 9.887 12.413 22.767 23.163 38.713 26.547 12.81 2.312 26.447.529 37.798-5.945 32.394-19.316 42.886-63.715 30.996-97.82-14.646-45.787-51.627-80.097-91.877-103.993-5.177-4.367-11.258-.12-16.263.452m72-403h76v-120h-37.8c-11.88-.859-26.188 1.192-36.95-1-.301.49-.688.853-1.25 1zm0 149h76v-121h-76zm0 151h76v-122h-37.8c-11.88-.859-26.188 1.192-36.95-1-.301.49-.688.853-1.25 1zm26 91.438c12.132 25.313 24.671 50.728 32.884 77.743 6.024 20.557 12.081 41.4 13.161 62.956.36 3.994.304 8.813 1.333 12.372 2.484 5.567 11.536 10.262 15.942 13.158 11.292 6.596 24.225 9.265 37.02 6.877 18.514-3.427 34.396-17.546 40.396-35.393 6.762-17.57 3.309-40.766-3.665-55.953-11.749-22.978-30.72-41.764-52.752-54.95-21.998-13.284-46.068-22.752-70.525-30.403-5.429-1.892-9.64 2.253-13.794 3.155z" style="fill:#fff;fill-rule:evenodd;stroke:none"/></svg>