<svg xmlns="http://www.w3.org/2000/svg" width="3000" height="3000"><path d="M363 2763h2274c-116.814-706.669-235.682-1413.086-352.952-2119.695-7.308-44.176-14.77-88.328-22.078-132.504-.85-5.35-1.876-10.687-2.644-16.043-.234-6.195-6.475-7.536-11.043-8.824a934352 934352 0 0 0-244.456-81.491c-142.52-47.505-285.036-95.033-427.561-142.514-13.472-4.534-26.962-8.977-40.44-13.486-6.522-2.157-13.032-4.381-19.56-6.514-6.096-1.753-13.465-5.547-19.46-4.23-100.259 33.04-200.308 66.843-300.509 100.041-150.195 50.194-300.513 100.016-450.67 150.303-5.725 2.09-4.82 8.134-5.986 13.239-24.325 145.631-48.567 291.265-72.827 436.899C565.92 1546.494 463.462 2154.662 363 2763" style="fill:#c22;fill-rule:evenodd;stroke:none"/><path d="M244 2863.5c418.26 1.426 837.325-.26 1255.75.5 418.681-.76 837.643.926 1256.25-.5-137.483-816.352-271.828-1633.965-409-2450.5-141.513-45.746-282.358-94.352-423.703-140.74-105.839-35.248-211.646-70.575-317.47-105.817l-60-20a8496 8496 0 0 1-28.008-9.343c-4.68-1.543-9.347-3.083-13.982-4.729-5.086-2.015-9.193.742-14.014 2.193-139.528 46.49-279.049 93.006-418.557 139.507C931.703 319.858 792.72 367.853 653 413c-137.126 816.275-271.612 1634.71-409 2450.5m120-103v1.5h2272v-1.5c-68.931-409.09-136.257-818.54-204.874-1227.691-51.076-306.848-102.33-613.661-153.4-920.497-4.868-28.824-9.564-57.688-14.431-86.508-1.116-7.008-2.365-13.985-3.488-20.978-1.2-6.774-.246-15.245-9.425-16.859-109.868-36.632-219.702-73.24-329.563-109.867-95.996-32.013-192.02-63.992-288-96-41.993-13.978-83.98-28.011-125.966-41.994-5.663-2.605-10.407-1.693-15.513.621-156.173 52.06-312.354 104.114-468.521 156.173-58.68 19.531-117.334 39.097-175.992 58.657-25.668 8.506-51.298 17.139-76.962 25.643-6.176 2.075-12.369 4.11-18.537 6.195-3.02 1.124-6.483 1.813-8.8 4.255-62.934 375.423-125.132 751.075-187.889 1126.544C490.857 1998.664 428.048 2380.37 364 2760.5" style="fill:#797575;fill-rule:evenodd;stroke:none"/></svg>