<svg xmlns="http://www.w3.org/2000/svg" width="3000" height="3000"><path d="M406 2716h2188c-.307-11.763-3.6-23.245-4.985-34.895C2479.638 2025.014 2370.349 1368.89 2260.97 712.8c-6.822-41.005-13.666-81.996-20.501-122.987-3.37-19.642-6.425-39.354-9.917-58.966-1.19-5.498-6.677-5.772-11.215-7.571-147.693-49.206-295.35-98.472-443.038-147.672-55.476-18.525-111.019-36.959-166.48-55.505-24.35-8.044-48.615-16.253-72.954-24.3-11.607-3.497-22.873-8.11-34.568-11.284-5.713-.844-11.076 2.288-16.42 3.681-86.664 28.965-173.4 57.744-260.058 86.703L836.297 504.74c-16.35 5.424-32.684 10.924-49.031 16.331-6.567 2.591-16.86 3.746-18.052 10.668-17.802 106.988-35.705 213.97-53.488 320.949-51.802 310.5-103.48 621.001-155.258 931.498-25.854 155.333-51.8 310.663-77.654 465.995-12.985 77.679-25.886 155.343-38.844 233.018-6.49 38.838-12.953 77.66-19.418 116.502-5.356 38.839-14.271 77.373-18.552 116.299m628.336-322c7.517-3.057 14.172-12.765 19.865-16.137 21.338-19.863 42.491-40.042 61.707-61.99 9.786-10.69 18.96-21.913 28.202-33.081 4.345-5.541 8.725-11.073 12.865-16.766 2.083-3.008 4.453-5.766 6.686-8.644 1.675-2.376 3.868-6.133 7.339-6.382v312c19.049.24 38.17.528 57.057-2.376 12.851-2.272 25.64-5.908 37.305-11.8 8.105-4.231 17.66-9.348 24.187-14.668 7.5-4.883 5.104-14.615 5.451-21.496V2076h3c12.696 39.97 25.916 80.826 28.458 123.092.453 5.651.195 11.45 1.155 17.017 11.317 12.785 30.681 23.403 46.734 22.889 9.173.249 18.246-2.176 26.497-6.083 4.025-2.182 8.045-4.518 11.373-7.691 2.93-2.561 5.986-6.808 9.783-7.224v102c26.97 1.195 54.049-1.516 79.314-11.628 11.762-4.579 23.92-9.25 33.888-17.219 6.64-4.658 7.646-10.822 6.798-17.902V2252h60v114c-65.607.76-131.478-.926-197 .5 3.189 7.718 4.883 16.407 7 24.5h190v112h-244v1.5c1.546 4.798 2.904 9.649 4.28 14.488.866 2.874 1.738 8.738 5.84 8.792 12.328.622 24.715-.109 37.045.22h512.543c12.201-.004 24.381.005 36.57-.003 9.9.707 22.284-2.008 27.722-13.497-18.286-15.952-36.286-32.314-55.395-47.332-18.814-14.806-36.587-31.389-56.105-45.168-10.522 13.19-20.207 27.099-30.546 40.433-9.536 13.713-21.317 26.361-29.954 40.567h-84v-112h172.2c17.039-.13 39.796 3.767 46.8-13.5-28.65-26.672-59.651-50.708-89.958-75.414-1.194-1.095-2.685-2.8-.584-4.339 14.32-4.379 29.844-6.864 43.683-13.21 6.02-2.226 11.898-4.794 17.501-7.935 6.21-2.608 3.908-13.026 4.358-18.1v-249.556c.414-4.525-.734-10.168.986-13.73 11.442-4.672 24.28-8.042 33.014-17.716-37.646-27.931-74.82-56.631-112.5-84.5-15.377 16.215-31.18 32.073-45.996 48.8-3.518 3.829-8.473 9.63-12.998 10.059-18.839.402-37.667-.073-56.506.141v-80h189c19.162-.718 44.852 5.1 54-13.5-17.983-18.11-38.321-33.708-58.208-49.608-15.094-11.492-29.642-23.665-44.758-35.129-2.44-1.656-6.394-5.798-8.526-3.092-16.727 20.374-32.675 41.578-49.044 62.274-4.185 4.514-8.515 13.278-14.094 13.896-22.785.454-45.582-.083-68.37.159v-72c35.36-3.082 71.06-4.746 106.357-9.068 17.159-1.648 35.141-6.486 51.756-.07 17.043 5.3 36.756 6.521 52.887-2.362-21.792-21.543-44.047-42.624-66.475-63.475-9.405-9.557-19.477-18.37-28.895-27.895-4.353-4.675-9.467-8.53-14-13-4.429-3.945-8.845-9.519-13.268-12.7-2.06-2.31-6.369.31-8.489.99-86.209 36.237-175.89 63.658-265.723 89.26-23.202 6.881-46.674 12.807-70.164 18.568-9.077 2.387-18.187 4.543-27.336 6.616-8.711 3.058-14.009-2.331-19.446-7.698-39.165-33.467-78.815-66.402-117.704-100.166-40.205 35.184-85.385 64.255-130.45 92.647-46.932 27.553-94.454 55.058-145.05 75.353.435 2.652.918 5.315 1 8 46.523-.973 92.614-8.511 139-11 2.105 10.997.228 22.438 1 33.535V1954h-133c2.093 8.368 4.69 16.69 7 25h112c-1.012 19.547-6.98 38.526-9.508 57.876-12.54 63.047-27.885 125.579-48.608 186.466-10.324 29.996-20.851 60.009-34.153 88.85-6.552 14.604-13.656 28.932-20.922 43.188-3.67 6.932-7.681 13.67-11.457 20.533-1.054 3.03-4.27 5.76-4.853 9.437.698 3.842 5.15 5.74 6.837 8.65M1295 1954c5.8-.22 8.621-8.033 11.834-11.726 3.144-4.741 6.26-9.469 9.445-14.18 11.563-17.781 23.83-35.25 35.221-53.094 11.345 11.037 23.231 21.483 34.71 32.372 6.37 5.128 11.714 11.418 17.668 16.985 2.934 2.771 6.218 5.117 9.016 8.037 2.75 2.61 5.711 6.32 9.106 6.606.662-11.945-.828-24.135.5-36 27.908 11.537 56.539 22.095 84.667 33.244 7.107 3.051 14.376 5.644 21.567 8.448 5.309 2.056 10.637 4.066 15.942 6.12 9.317 2.459 19.31.313 28.793 1.188H1602v-80h-217c-1.952-8.178-4.37-16.538-7-24.5 74.541-1.426 149.4.26 224-.5v-66c-53.072.644-106.122 2.568-159.206 2.103-12.524 2.097-25.255 4.888-38.037 1.894-8.965-1.289-19.445-6.147-27.816-3.745-27.15 6.376-54.28 13.876-81.941 17.748zm124 178h3v-153h-127v61.624c.434 3.475-.848 8.879 2.657 10.327 23.454 8.659 47.187 17.234 68.475 30.683 10.512 6.372 20.33 13.992 29.344 22.35 8.236 8.734 18.408 16.902 23.524 28.016m-62-802.5c47.06 1.426 94.924-.26 142.15.5 47.548-.76 95.38.926 142.85-.5-24.196-46.975-47.258-94.72-71.177-141.866-12.077-23.251-23.23-46.96-34.751-70.47-11.165-23.937-24.475-47.016-35.072-71.164h-2c-22.51 47.84-47.59 94.712-70.675 142.334-12.002 23.562-23.34 47.488-35.868 70.753-11.962 23.183-23.326 47.584-35.457 70.413m185 756.5h60v-109h-60zm0 141h60v-116h-60zm184-141h70v-100.8c-.03-2.643.066-7.702-2.986-7.748-22.262-1.29-44.715.235-67.014-.452zm0 141h70v-105c-.264-3.221.47-7.29-.971-9.767-5.411-2.51-11.068-.368-16.818-1.233H1726zm0 139h36.6c8.08-.048 17.239 2.328 22.712-7.076 7.096-9.503 14.53-18.78 21.662-28.251 3.66-4.797 7.153-9.695 10.875-14.443 2.919-4.354 8.666-9.654 9.151-14.23h-31v-25.2c-.04-6.203.049-12.4-.027-18.59.336-6.52-4.283-6.811-9.068-6.21H1726z" style="fill:#c22;fill-rule:evenodd;stroke:none"/><path d="M291 2812.5c402.66 1.426 806.125-.26 1208.95.5 402.946-.76 806.184.926 1209.05-.5-66.691-393.12-131.048-787.321-197.186-1180.681C2447.104 1239.148 2380.056 846.747 2316 454c-136.143-44.935-272.089-90.768-408.181-135.9-102.008-33.974-204.008-68.03-306-102-19.182-6.399-38.38-12.77-57.553-19.171-8.997-3.033-18.01-5.99-27-9-7.928-3.04-16.863-7.25-26.38-2.738-134.51 44.908-269.079 89.643-403.589 134.55C952.797 364.27 818.541 409.675 684 454c-64.117 393.376-131.371 786.397-196.109 1179.703C421.811 2026.161 357.548 2420.573 291 2812.5m116-97.5h2186c-110.539-672.045-224.255-1343.735-335.448-2015.7-7.021-42-13.992-84.001-21-126-1.697-9.995-3.31-20.009-5.015-29.99-1.448-5.044-.832-12.003-3.96-15.528-76.243-26.577-153.757-51.077-230.278-77.177-134.483-44.879-269.004-89.635-403.48-134.505-25.332-8.389-50.626-16.918-75.954-25.3-5.917-1.536-12.636-4.925-18.277-5.3-93.44 29.594-186.049 62.334-279.322 92.571-139.474 46.507-278.96 93.003-418.44 139.486-8.804 3.003-17.696 5.81-26.461 8.89-4.891 1.307-5.283 6.555-5.858 10.493-21.164 127.083-42.351 254.18-63.537 381.259C606.88 1517.176 505.406 2115.971 407 2715" style="fill:#797575;fill-rule:evenodd;stroke:none"/><path d="M1035.5 2396c50.748-41.967 95.025-91.078 134-144 1.426 103.841-.26 208.083.5 312 19.502.167 39.068.587 58.415-2.285 13.087-2.22 26.084-5.918 37.947-11.891 8.28-4.279 17.983-9.55 24.604-15.011 6.953-4.532 4.718-15.46 5.034-22.352v-74.946c.76-120.148-.926-240.42.5-360.515 14.077 39.269 25.383 80.215 28.904 121.918.54 5.543.183 12.146 1.05 17.186 9.599 13.54 30.632 23.588 45.766 23.886 18.656 1.468 36.276-7.12 48.28-20.99 1.426 33.825-.26 68.096.5 102 27.054 1.124 54.255-.923 79.726-11.081 12.07-4.406 24.307-9.29 34.651-17.064 6.916-4.553 8.596-10.659 7.623-18.012V2253h58v112h-197v1.5c2.41 8.461 5.343 16.859 7 25.5h190v110h-245c2.981 8.217 4.882 19.055 8.426 26.165 9.785 1.96 20.23-.012 30.151.835h552.173c8.328-.05 17.07.652 24.993-2.541 5.622-1.899 13.753-10.291 8.766-14.943-35.698-31.464-72.59-62.25-110.009-91.516-11.19 13.111-20.538 27.749-31.348 41.17-9.6 13.798-21.461 26.54-30.152 40.83h-82v-110h184.8c9.823-.274 31.654 2.232 33.618-15.47-28.342-28.038-60.93-51.46-91.418-77.03 2.739-2.139 7.645-2.146 11.462-3.39 14.583-3.522 28.792-8.422 42.594-14.201 5.693-2.79 13.266-5.035 12.897-11.615.134-53.378-.024-106.794.047-160.166v-100.182c.655-4.52-1.086-10.746 1.34-14.08 12.093-4.184 24.766-8.499 33.66-18.366-37.9-29.163-76.567-57.4-114.5-86.5-15.455 16.162-31.094 32.167-46.081 48.739-4.023 3.475-7.934 9.958-12.588 10.897-18.56 1.038-37.241-.189-55.831.364v-78h210.6c8.089.206 16.718.43 23.951-3.938 5.247-3.241 11.317-10.17 4.343-15.663-16.75-16.288-35.362-30.495-53.528-45.109-18.61-12.808-34.807-29.524-54.038-41.29-16.567 21.062-33.086 42.206-49.571 63.33-4.773 4.886-7.837 11.735-13.139 15.205-22.784 1.327-45.79-.242-68.618.465v-70c35.725-3.151 71.758-4.738 107.412-9.177 8.966-1.014 17.922-2.016 26.866-3.15 13.465-2.015 25.762 6.208 39.06 6.955 13.032 1.253 27.558.885 38.662-7.128-6.857-7.1-13.898-13.973-21.355-20.404-27.233-26.484-55.156-52.192-82.273-78.809-6.59-5.397-12.12-11.957-18.346-17.736-2.874-3.526-6.846-3.202-10.324-.91-58.342 25.23-118.955 44.783-179.42 64.116-46.87 14.175-93.79 28.425-141.318 40.254-9.063 2.322-18.16 4.473-27.214 6.816-4.46 1.052-8.87 2.315-13.358 3.196-3.856.138-8.6 3.146-11.65.747-24.01-18.79-46.398-39.735-70.131-58.901-17.296-15.152-35.218-29.555-52.472-44.752-1.652-.945-3.114-2.83-5.199-3.62-6.788 2.857-13.608 11.238-20.022 15.16-44.773 35.383-92.879 66.326-142.166 94.937-37.418 20.602-75.138 41.385-114.752 57.406l1 10c46.522-.89 92.622-8.155 139-11 2.086 10.805.247 22.03 1 32.936V1953h-133c.875 9.004 5.38 18.925 7 27h112c-11.166 74.092-28.492 147.525-50.605 219.121-11.31 35.157-23.338 70.089-38.069 103.991-7.357 16.867-15.211 33.484-23.773 49.769-4.24 7.996-8.69 15.906-13.237 23.721-1.038 1.928-2.123 3.82-3.183 5.725-4.087 5.261 4.948 10.58 8.367 13.673m261.5-443c10.228-12.008 17.748-26.456 27.109-39.174 8.06-13.53 18.549-25.984 25.891-39.826 4.099.484 6.467 4.509 9.516 6.896 20.93 18.366 41.1 37.598 60.984 57.104 1.353-11.823-.186-24.088.5-36 28.832 9.29 56.484 22.58 85.16 32.462 14.569 5.013 28.534 12.048 43.34 16.3 17.147.677 34.356-.121 51.5.238v-78h-217c-1.415-9.185-5.8-17.757-7-27h224v-64c-51.913.439-104.035 2.8-156.11 2.045-6.657.436-13.08 3.127-19.842 2.908-11.168.55-22.449-.19-33.192-3.546-8.603-3.33-15.662-1.226-23.495 1.346-23.966 5.492-48.066 11.498-72.361 15.247v144.611c.435 2.695-.634 6.856 1 8.389m123.5 178c1.426-50.246-.26-100.717.5-151h-125v60.864c.034 3.44-.38 7.934 3.537 9.617 46.163 15.099 93.568 38.358 120.963 80.519m-64.5-802.5c.03.55.186 1.057.5 1.5h269.4c5.643-.438 12.704.91 17.1-1.5-24.373-47.295-47.57-95.377-71.675-142.834-12.104-23.463-23.424-47.302-35-71-11.24-24.112-24.65-47.346-35.325-71.666h-2c-22.667 48.182-47.956 95.392-71.177 143.366-12.239 23.676-23.41 47.917-36.156 71.31-12.058 23.294-23.451 47.875-35.667 70.824m187 756.5h58v-107h-58zm0 141h58v-114h-58zm184-141h68v-98.998c-.02-2.62-.014-7.544-3.018-7.567-21.582-1.24-43.362.226-64.982-.435zm0 141h68v-91.2c-.976-7.104 1.414-16.393-1.315-21.908-10.755-2.158-22.243.077-33.15-.892H1727zm0 139h35.4c4.582-.157 9.2.232 13.761-.223 5.958-.684 8.983-9.966 13.72-14.146 12.207-15.576 23.917-31.562 36.119-47.131-10.135-1.339-20.767.172-31-.5v-25.2c-.04-6.203.049-12.4-.027-18.59.342-6.506-4.26-6.824-9.044-6.21H1727z" style="fill:#fff;fill-rule:evenodd;stroke:none"/><path d="M1071 2363.375c1.035.302 2.039-1.181 2.976-1.851l4.024-4.024c-3.002-.38-5.308 4.31-7 5.875m23-23c1.11.398 2.13-1.412 2.972-1.897 2.41-2.267 4.66-4.686 7.028-6.978-3.15-.126-6.094 4.748-8.03 6.508-.543.913-1.333 1.565-1.97 2.367M1295.5 2530c1.426-150.847-.26-303.608.5-454-2.373 1.289-1.01 4.565-1.085 6.697 1.001 148.845-.97 298.742.585 447.303m59.5-1199.5c47.86 1.426 96.524-.26 144.55.5 48.09-.76 96.447.926 144.45-.5a4.5 4.5 0 0 1-1-2.5c-11.815 1.824-23.904.509-35.791 1h-220.735c-9.805-1.105-20.402 1.439-29.974-1-.304.908-.829 1.668-1.5 2.5m92 989.75c.793 1.224 3.366.598 4.476.532l.524-.282c-1.39-1.814-3.594-1.743-5-.25m107-538.125c2.558 1.63 8.474.579 11 .375-3.043-2.799-7.475-1.645-11-.375m38-1c1.086 1.489 4.426.74 5.761.316.482-.215.89-.558 1.239-.941-2.265-1.121-4.752.11-7 .5z" style="fill:#fcf2f2;fill-rule:evenodd;stroke:none"/><path d="M1419 1937.375c.73.983 1.848 1.396 3 1.625-.118-12.34-.354-24.673-.5-37l-.279 19.798c-.06 3.419-.081 6.821-.152 10.235-.067 2.707-.071 5.09-2.069 5.342" style="fill:#f2c8c8;fill-rule:evenodd;stroke:none"/></svg>