<svg xmlns="http://www.w3.org/2000/svg" width="3000" height="3000"><path d="M448 2669h2104c-108.019-653.996-218.137-1307.761-326.618-1961.691-6.813-40.83-13.621-81.671-20.41-122.502-.9-5.185-1.732-10.375-2.627-15.558-.693-5.948-7.25-6.546-11.566-8.162a2264805 2264805 0 0 1-451.953-150.644c-56.522-18.824-113.032-37.715-169.56-56.514-12.477-4.17-24.972-8.31-37.44-12.486-6.015-1.98-11.998-4.026-18-6-5.943-1.873-12.256-5.247-18.565-3.023-92.812 30.91-185.585 61.892-278.396 92.78-138.737 46.826-278.12 92.047-416.698 139.266-3.665 1.962-2.298 9.57-3.876 12.727-22.4 134.514-44.811 269.006-67.243 403.502C635.746 1543.503 540.855 2106.166 448 2669m598-481.375c1.832 2.108 3.42 4.363 5.375 6.375 20.264-9.163 38.622-22.075 57.539-33.635 9.562-6.421 18.989-13.003 28.46-19.541 4.589-3.282 9.14-6.592 13.587-10.052 4.512-2.684 8.966-8.225 14.039-8.772v401c19.493.141 39.216.492 58.313-4.078 13.002-2.951 27.691-8.26 38.87-13.194 8.797-3.951 18.618-9.834 25.427-15.471 2.703-2.233 5.477-5.552 6.642-8.575 2.01-14.711-.265-29.867.748-44.663V2065c10.1-2.662 23.498-6.992 27-16.328-7.636-4.903-17.37-6.031-25.408-10.231-8.635-2.928-18.505-7.277-26.592-9.441 1.053-6.12 9.745-10.483 13.65-16.238 16.674-19 34.899-36.572 50.506-56.537 4.047-4.78 8.036-9.575 11.867-14.525 2.964-3.506 5.606-7.269 8.681-10.678 4.78-4.946 14.899-1.57 21.897-4.632 6.956-1.543 12.162-6.537 16.399-11.89-26.21-13.105-52.626-26.298-78.865-39.435-26.551-12.258-52.501-25.999-78.635-39.065-21.788 64.413-49.577 126.811-81.833 186.675-14.87 29.35-32.575 57.156-49.593 85.239-17.619 27.661-37.966 54.082-58.074 79.711M1373 1540v46.8c.395 11.775-.484 23.597.266 35.34.223 3.864 5.183 5.382 7.904 7.275 23.424 12.944 54.33 21.668 78.83 22.585-.088 4.195-4.817 3.907-7.849 4.177-3.313.157-5.396 2.698-7.151 5.323 32.497 19.42 61.165 45.354 84.488 75.15 23.553 28.943 43.853 61.981 53.512 98.35 7.508 1.525 13.98 6.717 21.658 8.022 26.644 8.78 57.726 1.09 76.187-20.406 18.185-20.264 23.682-51.12 14.92-76.674-14.595-40.573-52.838-67.344-93.101-78.47-20.008-6.877-40.79-9.987-61.664-12.472v-3c24.185-.861 47.412-9.134 69.505-18.288 5.236-2.524 10.436-5.259 15.188-8.603 2.494-4.047.553-10.592 1.307-15.022V1540c45.235-5.485 89.627-16.767 132.704-31.403 59.88-21.851 118.582-56.717 155.192-110.536 18.686-27.24 28.972-59.485 32.517-92.128 2.686-34.121-2.165-68.573-12.614-101.061-8.032-25.607-19.458-49.917-31.731-73.71-6.248-11.609-12.682-23.09-19.177-34.554-3.14-5.618-6.442-11.131-9.79-16.617-2.68-5.535-8.515-11.106-9.101-16.991 24.657 1.35 49.33 2.708 74 4-22.571-56.776-47.25-112.83-69.885-169.608-23.446-55.998-46.272-112.39-69.615-168.392-18.47 23.988-32.356 51.152-44.59 78.734-21.6 50.835-38.443 104.433-44.116 159.594-5.76 42.212-.393 85.347 13.835 125.345 9.274 28.755 20.641 56.75 31.127 85.064 8.78 22.5 14.775 47.16 10.133 71.438-2.91 16.985-9.64 33.487-21.182 46.526-16.624 18.516-39.67 28.981-62.633 37.05-25.147 7.918-50.894 13.973-77.074 17.249-6.255-55.342-12.316-110.755-18.397-166.122-3.163-28.077-6.203-56.143-9.267-84.217-2.184-27.928-7.363-55.659-8.336-83.661 23.88.98 48.32 4.152 72 5.5-23.874-51.55-46.514-104.054-70.437-155.664C1548.295 813.574 1522.508 762.483 1501 710h-2c-21.506 52.407-47.259 103.53-69.504 155.729-23.959 51.656-46.576 104.185-70.496 155.771 23.761-1.5 48.063-4.65 72-5.5-.905 28.525-6.417 56.75-8.525 85.192-9.101 82.947-17.955 165.93-27.475 248.808-31.551-4.392-63.178-10.768-92.665-23.22-23.805-9.474-47.115-24.823-58.731-48.562-12.166-21.714-12.888-52.404-7.641-74.007 4.875-20.234 13.332-39.373 20.42-58.876 13.092-33.93 25.759-68.347 32.21-104.233 8.385-57.043-3.481-114.797-19.513-169.257-8.816-25.51-17.378-51.294-29.017-75.714-10.332-23.914-23.835-46.449-39.563-67.131-23.311 55.713-46.407 111.817-69.382 167.721-23.054 56.864-47.198 113.404-70.118 170.279 24.642-1.46 49.325-2.877 74-4-.596 5.964-6.787 11.919-9.722 18.057-28.234 47.293-55.187 96.727-67.446 150.94-9.884 42.859-8.314 88.552 8.089 129.643 23.131 56.295 71.509 98.775 125.08 125.357 56.914 28.015 119.042 45.525 181.999 53.003m-319 363.333c1.187 2.532 3.644 5.097 5.25 7.667 58.508-21.49 113.013-52.378 164.81-86.737 25.75-17.082 49.647-36.769 73.806-55.954 11.823-10.112 23.642-20.237 34.61-31.284 2.874-2.77 5.57-6.392 9.76-6.849 6.222-.555 12.688.515 18.758-1.474 5.651-1.887 10.04-5.955 14.006-10.202-24.561-14.312-50.178-27.01-74.957-40.977-25.3-13.104-49.848-27.602-75.222-40.523-4.018 4.299-5.445 12.79-8.91 18.744-20.032 45.186-44.104 88.588-70.838 130.143-27.625 40.833-54.94 83.125-91.073 117.113zm746-875.833c6.971-1.448 14.532.36 21.607.203 21.776 1.399 43.629 1.786 65.393 3.297-28.368-79.216-63.609-156.738-92-236-4.92.387-6.107 8.99-8.418 12.125-23.433 57.854-39.295 119.31-43.033 181.784-1.708 24.446.783 48.981 6.388 72.786 9.585 39.286 28.466 75.44 41.319 113.562 11.433 29.094 13.577 61.907 5.949 92.175-4.588 22.043-17.663 41.805-33.44 57.3-24.723 22.806-56.515 35.908-88.428 45.026-33.148 9.009-67.065 15.634-101.337 18.242-7.38-67.643-14.86-135.347-22.04-203.017-6.93-68.698-15.675-137.25-21.96-205.983 17.992 1.45 35.953 4.175 54 5-24.562-67.127-56.481-132.115-82-199h-4c-25.494 66.877-57.427 131.891-82 199 18.039-1.023 35.989-3.697 54-5-6.324 68.184-14.804 136.237-21.79 204.363-7.274 68.232-14.75 136.448-22.21 204.637-32.123-2.023-63.877-8.45-95.013-16.277-25.89-7.45-51.823-16.522-74.51-31.366-19.393-12.37-36.12-29.507-45.653-50.7-9.403-19.181-13.598-44.725-12.48-64.209 1.953-37.397 19.456-71.655 32.129-106.16 10.268-25.855 19.24-52.425 23.947-79.863 6.094-43.2-.422-86.922-8.836-129.26-4.33-20.27-9.512-40.335-15.739-60.092-3.414-9.608-6.384-19.384-10.493-28.728-1.967-4.762-3.74-9.614-5.864-14.304-2.264-3.928-4.066-10.51-8.488-11.041-29.258 78.707-63.248 156.21-92 235 14.326-.907 28.658-1.568 43.008-2.184 14.55-.129 29.534-2.55 43.992-1.316-24 34.89-46.48 71.015-67.207 107.965-15.88 29.837-30.74 60.466-39.2 93.405-13.247 49.208-10.077 105.532 19.2 148.783 27.674 41.037 70.768 69.143 115.327 88.867 51.486 21.458 106.18 34.486 161.51 40.944 5.374.92 10.899 1.104 16.247 2.03 2.356.868 1.73 5.232 2.12 7.108.007 21.875 0 43.726.003 65.598v14.32c-.238 4.349-.358 8.974 5.167 10.529 32.236 13.445 67.675 12.39 101.789 11.951 25.097.12 50.794-3.15 74.057-13.059 4.675-1.507 2.2-10.203 2.987-13.485v-56.725c.108-7.163-.134-14.335.08-21.485-.047-6.59 8.08-5.288 12.795-6.195 39.166-4.546 78.07-11.78 115.857-23.122 46.526-13.119 91.27-33.815 128.55-64.975 27.848-22.96 50.293-53.857 58.812-89.351 15.098-56.362-1.086-115.734-26.196-166.374-23.399-47.728-52.1-92.824-81.898-136.729m-469 1445.75c3.473 7.665 4.857 16.611 7 24.75h543.6c13.016-.057 26.046.07 39.054-.038 9.87-.27 23.438-1.882 29.346-13.462-36.454-33.428-73.988-65.85-112-97.5-19.617 24.741-36.852 51.661-56.163 76.718-2.257 3.04-4.728 7.215-7.957 8.812-31.866 1.34-63.975-.244-95.88.47v-301h187.8c10.417-.039 20.833.047 31.245-.025 8.15.354 18.033-2.943 21.955-12.475-33.691-33.877-71.515-63.17-107.5-94.5-16.015 22.595-32.56 44.848-48.576 67.448-4.617 4.99-8.39 13.143-13.24 16.101-23.822 1.286-47.827-.234-71.684.451v-261h195.6c10.68-.243 21.379.37 32.032-.38 8.469-.412 20.905-3.408 22.368-14.62-36.676-30.146-70.23-66.932-109.672-94-11.333 15.432-21.976 31.377-33.269 46.846-4.817 6.718-9.654 13.426-14.422 20.171a683 683 0 0 0-6.713 9.43c-2.067 2.727-4.73 6.96-8.795 7.322-136.613 1.418-273.576-1.046-410.129.731 2.058 2.898 2.67 7.852 3.964 11.784 1.234 4.197 2.603 8.343 3.036 12.716h191v260h-173v1.5c1.72 4.85 3.127 9.805 4.537 14.743 1.054 3.144 1.106 8.275 5.573 8.539 12.306.618 24.65-.11 36.967.218H1543v300h-212z" style="fill:#ffe;fill-rule:evenodd;stroke:none"/><path d="M338 2761.5c387.06 1.426 774.925-.26 1162.15.5 387.224-.76 774.71.926 1161.85-.5-77.265-456.459-152.125-914.01-228.874-1370.691-28.417-170.851-56.988-341.657-85.4-512.497-12.491-74.824-24.942-149.684-37.431-224.508-5.828-35.176-11.741-70.32-17.569-105.492-3.54-17.097-4.968-34.714-9.072-51.664-1.3-3.941-8.915-3.966-11.797-5.85-133.175-44.44-266.372-88.79-399.558-133.193-116.482-38.867-233.005-77.647-349.48-116.505-6.56-1.974-12.94-4.527-19.527-6.382-6.558-1.31-12.878 2.396-19.017 4.029-100.339 33.452-200.674 66.889-301.01 100.324-87.802 29.33-175.659 58.504-263.446 87.829-38.52 12.817-77.015 25.657-115.52 38.495-18.005 5.974-35.995 12.026-54 18-8.822 2.95-17.652 5.903-26.471 8.83-4.346 1.012-8.371 2.451-8.57 8.208-90.761 544.76-181.624 1089.514-272.367 1634.27-35.423 208.458-69 418.87-104.891 626.797m110-99.125c1.338 1.806 1.523 3.492 1 5.625h2102c-.276-4.665-1.263-9.121-1.99-13.73-1.191-4.556-1.014-9.343-2.49-13.697.186-4.413-1.988-9.518-2.027-13.6-.735-4.304-1.461-9.11-2.168-13.042-.845-4.516-1.48-8.987-2.27-13.52-.77-4.338-1.33-8.464-2.143-12.781-.88-4.333-1.492-9.281-2.26-13.535-.285-4.182-1.817-8.848-2.095-12.742-.809-4.425-1.509-9.444-2.226-13.423-.784-4.42-1.43-8.713-2.239-13.197-.785-4.473-1.378-8.801-2.176-13.176-1.213-4.168-1.132-8.906-2.324-13.147-.128-4.384-1.767-8.709-1.984-12.736-.491-4.143-1.68-8.884-2.115-12.7-.674-4.154-1.442-8.785-2.086-12.584-.796-4.331-1.434-8.62-2.177-12.972-.663-3.765-1.332-8.364-2.08-12.453-.795-4.363-1.437-8.669-2.173-13.059-.843-3.47-1.075-8.154-2.065-12.276-1.211-4.189-.992-8.96-2.39-13.085.013-3.792-1.778-9.075-1.863-12.271-.222-3.978-1.867-8.332-2.08-12.928-.42-3.92-1.628-8.333-2.022-11.994-.645-4.12-1.51-8.764-2.06-12.465-.607-3.925-1.448-8.4-2.036-12.057-.712-4.116-1.418-8.745-2.048-12.433-.695-3.926-1.372-8.43-2.045-12.089-.728-4.082-1.38-8.719-2.037-12.378-.7-3.934-1.376-8.444-2.049-12.111-.75-4.217-1.297-8.268-2.04-12.39-.639-3.627-1.328-8.125-2.053-12.14-.637-3.583-1.283-8.2-2.033-12.345-.598-3.474-1.289-7.811-1.967-11.656-.71-4.04-1.241-7.917-1.947-11.858-.685-3.883-1.245-7.668-1.96-11.611-.722-4.052-1.24-7.923-1.951-11.889-.679-3.783-1.307-8.095-1.963-11.622-.685-3.945-1.344-8.376-1.955-11.91-.525-3.585-1.283-7.303-1.952-11.568-.61-3.96-1.437-8.399-1.965-11.943-.422-3.772-1.538-8.013-1.939-11.535-.347-3.856-1.785-8.885-1.979-12.006-1.69-7.501-2.164-15.254-4.056-22.801-.62-7.57-2.705-15.007-3.544-22.639-.845-3.437-1.073-8.112-1.828-10.941-.706-3.857-1.258-7.668-1.92-11.547-.623-3.65-1.234-7.683-1.823-11.028-.565-3.722-1.44-7.98-1.914-11.417-1.309-7.37-2.384-14.596-3.752-22.136-.534-3.825-1.279-7.547-1.825-11.28-1.052-3.844-.815-7.206-1.824-10.824-.642-3.684-1.124-7.213-1.761-10.803-.44-3.462-1.356-7.343-1.774-10.578-1.427-7.101-2.577-15.198-3.645-21.722-.895-3.665-.99-7.53-1.856-11.22-.554-3.186-1.112-7.017-1.731-10.479-1.607-7.1-1.906-14.4-3.804-21.358-.532-7.143-2.525-14.07-3.279-21.143-1.543-6.86-1.884-13.998-3.72-20.885-.362-6.912-2.566-13.639-3.204-20.61-1.175-6.887-2.222-13.594-3.486-20.645-.715-3.748-.934-6.703-1.676-10.346-1.4-5.95-1.843-13.87-3.634-20.4-.238-6.335-2.789-14.786-3.118-20.101-1.193-6.185-2.49-14.42-3.312-19.71-1.22-6.574-1.912-12.991-3.275-19.557-.584-3.354-1.1-6.897-1.674-10.264-1.058-6.007-1.964-12.396-3.31-19.622-.696-3.138-.966-7.353-1.59-9.86-1.156-6.497-2.14-12.891-3.265-19.524-1.061-5.978-2.122-13.445-3.237-19.069-.474-3.362-1.06-6.639-1.585-9.893-1.16-6.324-2.008-12.586-3.178-19.038-1.068-6.013-1.948-12.445-3.146-18.616-1.105-6.218-1.807-12.45-3.228-18.614-.605-6.207-2.127-12.597-2.952-18.581-.917-6.06-2.172-12.442-3.04-18.414-.9-6.097-2.17-12.07-3.032-18.207-.924-6.098-2.124-12.08-3.023-18.122-.966-6.011-2.104-12.222-2.988-18.04-.98-5.9-2.162-12.138-2.99-17.966-.95-5.969-2.122-11.85-2.999-17.872-1.009-5.778-1.858-11.482-2.92-17.2-1.232-5.916-1.566-11.989-3.14-17.701-.285-5.684-2.202-12.33-2.72-17.564-.756-5.413-1.885-11.168-2.79-16.74-1.161-5.643-1.597-11.165-2.774-16.828-.98-5.783-2.036-11.334-2.823-17.044-.895-5.655-2.011-11.222-2.833-16.923-.967-5.507-1.732-10.81-2.763-16.298-.831-5.415-1.937-11.806-2.747-16.719-1.246-5.41-1.605-10.964-2.752-16.522-.88-5.42-1.809-10.758-2.708-16.119-.881-5.359-1.869-11.437-2.694-16.26-.91-5.171-1.762-10.831-2.686-16.138-.84-5.25-1.77-10.406-2.62-15.602-.884-5.381-1.725-10.57-2.62-15.858-1.245-4.846-1.493-10.949-2.586-15.515-.91-5.163-1.621-10.122-2.587-15.267-.786-5.103-1.817-11.122-2.575-15.746-1.03-5-1.493-9.993-2.65-15.02-.465-5.096-1.658-9.902-2.356-14.97-.942-5.018-1.693-10.413-2.585-15.346-.707-4.982-1.641-9.78-2.462-14.805-1.182-4.901-1.182-10.009-2.668-14.716-.104-4.888-1.775-9.724-2.203-14.638-.847-4.85-1.528-9.467-2.406-14.305-.69-4.762-1.97-10.412-2.416-14.743-.758-4.362-1.477-8.979-2.404-14.154-1.187-4.71-1.084-9.643-2.571-14.16-.012-4.725-1.802-9.375-2.117-14.13-.825-4.724-1.478-9.246-2.342-13.956-1.262-4.553-1.062-9.469-2.54-13.942.302-4.297-2.037-9.18-1.965-13.193-.835-4.577-1.568-9.803-2.315-13.922-.784-4.568-1.522-9.014-2.308-13.65-1.116-4.467-1.353-9.374-2.282-13.685-.414-4.29-1.77-9.168-2.16-13.122-.734-4.303-1.46-9.11-2.168-13.042-.844-4.516-1.478-8.987-2.268-13.52-.771-4.338-1.332-8.464-2.144-12.781-1.233-4.188-.976-8.98-2.39-13.097-.912-8.279-3.07-16.43-4.058-24.68-.015-4.56-2.211-8.895-2.041-13.448-1.38-4.23-1.273-9.538-2.414-13.46-1.575-8.752-2.77-17.303-4.358-26.043-1.083-8.738-3.293-17.254-4.298-25.997-.541-3.945-1.54-9.746-2.156-12.987-1.427-8.312-2.77-16.673-4.189-24.973-1.632-8.11-2.649-17.596-4.173-25.026-1.492-8.23-2.601-16.278-4.093-24.508-1.373-8.079-2.627-15.921-4-24-1.383-7.649-2.64-16.48-3.908-23.492-1.479-7.79-2.426-15.685-3.905-23.474-1.274-7.668-2.578-15.372-3.833-23.038-1.26-6.86-1.696-15.272-4.599-21.038-116.922-39.067-234.213-78.033-351.2-117.11-87.833-29.245-175.637-58.57-263.47-87.816-16.523-5.49-33.033-11.048-49.561-16.514-7.795-2.66-15.653-5.168-23.447-7.829-3.802-1.15-7.54-2.932-11.597-2.869-15.39 2.919-29.764 10.263-44.923 14.164l-330.473 110.162a728329 728329 0 0 0-165 55c-27.532 9.157-55.037 18.35-82.56 27.514-13.816 4.63-27.646 9.203-41.447 13.829-6.847 2.277-13.7 4.535-20.522 6.84-3.53 1.115-7.02 2.39-10.544 3.518-1.618.358-3.515 1.505-4.77 1.98-.552.046-.527 1.012-1.118 1.68-.296.75-1.44.717-1.865 1.582.88 1.023 1.404 2.194.95 3.157.106 1.718-.586 2.317-1.95 2.843.88 1.023 1.404 2.194.95 3.157.106 1.718-.586 2.317-1.95 2.843.88 1.023 1.404 2.194.95 3.157.106 1.718-.586 2.317-1.95 2.843.88 1.023 1.404 2.194.95 3.157.106 1.718-.586 2.317-1.95 2.843.88 1.023 1.404 2.194.95 3.157.106 1.718-.586 2.317-1.95 2.843.88 1.023 1.404 2.194.95 3.157.106 1.718-.586 2.317-1.95 2.843.88 1.023 1.404 2.194.95 3.157.106 1.718-.586 2.317-1.95 2.843.88 1.023 1.404 2.194.95 3.157.106 1.718-.586 2.317-1.95 2.843.88 1.023 1.404 2.194.95 3.157.106 1.718-.586 2.317-1.95 2.843.88 1.023 1.404 2.194.95 3.157.106 1.718-.586 2.317-1.95 2.843.88 1.023 1.404 2.194.95 3.157.106 1.718-.586 2.317-1.95 2.843.88 1.023 1.404 2.194.95 3.157.106 1.718-.586 2.317-1.95 2.843.88 1.023 1.404 2.194.95 3.157.106 1.718-.586 2.317-1.95 2.843.88 1.023 1.404 2.194.95 3.157.106 1.718-.586 2.317-1.95 2.843.88 1.023 1.404 2.194.95 3.157.106 1.718-.586 2.317-1.95 2.843.88 1.023 1.404 2.194.95 3.157.106 1.718-.586 2.317-1.95 2.843.88 1.023 1.404 2.194.95 3.157.106 1.718-.586 2.317-1.95 2.843.88 1.023 1.404 2.194.95 3.157.106 1.718-.586 2.317-1.95 2.843.88 1.023 1.404 2.194.95 3.157.106 1.718-.586 2.317-1.95 2.843.88 1.023 1.404 2.194.95 3.157.106 1.718-.586 2.317-1.95 2.843.88 1.023 1.404 2.194.95 3.157.106 1.718-.586 2.317-1.95 2.843.88 1.023 1.404 2.194.95 3.157.106 1.718-.586 2.317-1.95 2.843.88 1.023 1.404 2.194.95 3.157.106 1.718-.586 2.317-1.95 2.843.88 1.023 1.404 2.194.95 3.157.106 1.718-.586 2.317-1.95 2.843.88 1.023 1.404 2.194.95 3.157.106 1.718-.586 2.317-1.95 2.843.88 1.023 1.404 2.194.95 3.157.106 1.718-.586 2.317-1.95 2.843.88 1.023 1.404 2.194.95 3.157.106 1.718-.586 2.317-1.95 2.843.88 1.023 1.404 2.194.95 3.157.106 1.718-.586 2.317-1.95 2.843.88 1.023 1.404 2.194.95 3.157.106 1.718-.586 2.317-1.95 2.843.88 1.023 1.404 2.194.95 3.157.106 1.718-.586 2.317-1.95 2.843.88 1.023 1.404 2.194.95 3.157.106 1.718-.586 2.317-1.95 2.843.88 1.023 1.404 2.194.95 3.157.106 1.718-.586 2.317-1.95 2.843.88 1.023 1.404 2.194.95 3.157.106 1.718-.586 2.317-1.95 2.843.88 1.023 1.404 2.194.95 3.157.106 1.718-.586 2.317-1.95 2.843.88 1.023 1.404 2.194.95 3.157.106 1.718-.586 2.317-1.95 2.843.88 1.023 1.404 2.194.95 3.157.106 1.718-.586 2.317-1.95 2.843.88 1.023 1.404 2.194.95 3.157.106 1.718-.586 2.317-1.95 2.843.88 1.023 1.404 2.194.95 3.157.106 1.718-.586 2.317-1.95 2.843.88 1.023 1.404 2.194.95 3.157.106 1.718-.586 2.317-1.95 2.843.88 1.023 1.404 2.194.95 3.157.106 1.718-.586 2.317-1.95 2.843.88 1.023 1.404 2.194.95 3.157.106 1.718-.586 2.317-1.95 2.843.88 1.023 1.404 2.194.95 3.157.106 1.718-.586 2.317-1.95 2.843.88 1.023 1.404 2.194.95 3.157.106 1.718-.586 2.317-1.95 2.843.88 1.023 1.404 2.194.95 3.157.106 1.718-.586 2.317-1.95 2.843.88 1.023 1.404 2.194.95 3.157.106 1.718-.586 2.317-1.95 2.843.88 1.023 1.404 2.194.95 3.157.106 1.718-.586 2.317-1.95 2.843.88 1.023 1.404 2.194.95 3.157.106 1.718-.586 2.317-1.95 2.843.88 1.023 1.404 2.194.95 3.157.106 1.718-.586 2.317-1.95 2.843.88 1.023 1.404 2.194.95 3.157.106 1.718-.586 2.317-1.95 2.843.88 1.023 1.404 2.194.95 3.157.106 1.718-.586 2.317-1.95 2.843.88 1.023 1.404 2.194.95 3.157.106 1.718-.586 2.317-1.95 2.843.88 1.023 1.404 2.194.95 3.157.106 1.718-.586 2.317-1.95 2.843.88 1.023 1.404 2.194.95 3.157.106 1.718-.586 2.317-1.95 2.843.88 1.023 1.404 2.194.95 3.157.106 1.718-.586 2.317-1.95 2.843.88 1.023 1.404 2.194.95 3.157.106 1.718-.586 2.317-1.95 2.843.88 1.023 1.404 2.194.95 3.157.106 1.718-.586 2.317-1.95 2.843.88 1.023 1.404 2.194.95 3.157.106 1.718-.586 2.317-1.95 2.843.88 1.023 1.404 2.194.95 3.157.106 1.718-.586 2.317-1.95 2.843.88 1.023 1.404 2.194.95 3.157.106 1.718-.586 2.317-1.95 2.843.88 1.023 1.404 2.194.95 3.157.106 1.718-.586 2.317-1.95 2.843.88 1.023 1.404 2.194.95 3.157.106 1.718-.586 2.317-1.95 2.843.88 1.023 1.404 2.194.95 3.157.106 1.718-.586 2.317-1.95 2.843.88 1.023 1.404 2.194.95 3.157.106 1.718-.586 2.317-1.95 2.843.88 1.023 1.404 2.194.95 3.157.106 1.718-.586 2.317-1.95 2.843.88 1.023 1.404 2.194.95 3.157.106 1.718-.586 2.317-1.95 2.843.88 1.023 1.404 2.194.95 3.157.106 1.718-.586 2.317-1.95 2.843.88 1.023 1.404 2.194.95 3.157.106 1.718-.586 2.317-1.95 2.843.88 1.023 1.404 2.194.95 3.157.106 1.718-.586 2.317-1.95 2.843.88 1.023 1.404 2.194.95 3.157.106 1.718-.586 2.317-1.95 2.843.88 1.023 1.404 2.194.95 3.157.106 1.718-.586 2.317-1.95 2.843.88 1.023 1.404 2.194.95 3.157.106 1.718-.586 2.317-1.95 2.843.88 1.023 1.404 2.194.95 3.157.106 1.718-.586 2.317-1.95 2.843.88 1.023 1.404 2.194.95 3.157.106 1.718-.586 2.317-1.95 2.843.88 1.023 1.404 2.194.95 3.157.106 1.718-.586 2.317-1.95 2.843.88 1.023 1.404 2.194.95 3.157.106 1.718-.586 2.317-1.95 2.843.88 1.023 1.404 2.194.95 3.157.106 1.718-.586 2.317-1.95 2.843.88 1.023 1.404 2.195.95 3.157.106 1.718-.586 2.317-1.95 2.843.88 1.023 1.404 2.195.95 3.157.106 1.718-.586 2.317-1.95 2.843.88 1.023 1.404 2.195.95 3.157.106 1.718-.586 2.317-1.95 2.843.88 1.023 1.404 2.195.95 3.157.106 1.718-.586 2.317-1.95 2.843.88 1.023 1.404 2.195.95 3.157.106 1.718-.586 2.317-1.95 2.843.88 1.023 1.404 2.195.95 3.157.106 1.718-.586 2.317-1.95 2.843.88 1.023 1.404 2.195.95 3.157.106 1.718-.586 2.317-1.95 2.843.88 1.023 1.404 2.195.95 3.157.106 1.718-.586 2.317-1.95 2.843.88 1.023 1.404 2.195.95 3.157.106 1.718-.586 2.317-1.95 2.843.88 1.023 1.404 2.195.95 3.157.106 1.718-.586 2.317-1.95 2.843.88 1.023 1.404 2.195.95 3.157.106 1.718-.586 2.317-1.95 2.843.88 1.023 1.404 2.195.95 3.157.106 1.718-.586 2.317-1.95 2.843.88 1.023 1.404 2.195.95 3.157.106 1.718-.586 2.317-1.95 2.843.88 1.023 1.404 2.195.95 3.157.106 1.718-.586 2.317-1.95 2.843.88 1.023 1.404 2.195.95 3.157.106 1.718-.586 2.317-1.95 2.843.88 1.023 1.404 2.195.95 3.157.106 1.718-.586 2.317-1.95 2.843.88 1.023 1.404 2.195.95 3.157.106 1.718-.586 2.317-1.95 2.843.88 1.023 1.404 2.195.95 3.157.106 1.718-.586 2.317-1.95 2.843.88 1.023 1.404 2.195.95 3.157.106 1.718-.586 2.317-1.95 2.843.88 1.023 1.404 2.195.95 3.157.106 1.718-.586 2.317-1.95 2.843.88 1.023 1.404 2.195.95 3.157.106 1.718-.586 2.317-1.95 2.843.88 1.023 1.404 2.195.95 3.157.106 1.718-.586 2.317-1.95 2.843.88 1.023 1.404 2.195.95 3.157.106 1.718-.586 2.317-1.95 2.843.88 1.023 1.404 2.195.95 3.157.106 1.718-.586 2.317-1.95 2.843.88 1.023 1.404 2.195.95 3.157.106 1.718-.586 2.317-1.95 2.843.88 1.023 1.404 2.195.95 3.157.106 1.718-.586 2.317-1.95 2.843.88 1.023 1.404 2.195.95 3.157.106 1.718-.586 2.317-1.95 2.843.88 1.023 1.404 2.195.95 3.157.106 1.718-.586 2.317-1.95 2.843.88 1.023 1.404 2.195.95 3.157.106 1.718-.586 2.317-1.95 2.843.88 1.023 1.404 2.195.95 3.157.106 1.718-.586 2.317-1.95 2.843.88 1.023 1.404 2.195.95 3.157.106 1.718-.586 2.317-1.95 2.843.88 1.023 1.404 2.195.95 3.157.106 1.718-.586 2.317-1.95 2.843.88 1.023 1.404 2.195.95 3.157.106 1.718-.586 2.317-1.95 2.843.88 1.023 1.404 2.195.95 3.157.106 1.718-.586 2.317-1.95 2.843.88 1.023 1.404 2.195.95 3.157.106 1.718-.586 2.317-1.95 2.843.88 1.023 1.404 2.195.95 3.157.106 1.718-.586 2.317-1.95 2.843.88 1.023 1.404 2.195.95 3.157.106 1.718-.586 2.317-1.95 2.843.88 1.023 1.404 2.195.95 3.157.106 1.718-.586 2.317-1.95 2.843.88 1.023 1.404 2.195.95 3.157.106 1.718-.586 2.317-1.95 2.843.88 1.023 1.404 2.195.95 3.157.106 1.718-.586 2.317-1.95 2.843.88 1.023 1.404 2.195.95 3.157.106 1.718-.586 2.317-1.95 2.843.88 1.023 1.404 2.195.95 3.157.106 1.718-.586 2.317-1.95 2.843.88 1.023 1.404 2.195.95 3.157.106 1.718-.586 2.317-1.95 2.843.88 1.023 1.404 2.195.95 3.157.106 1.718-.586 2.317-1.95 2.843.88 1.023 1.404 2.195.95 3.157.106 1.718-.586 2.317-1.95 2.843.88 1.023 1.404 2.195.95 3.157.106 1.718-.586 2.317-1.95 2.843.88 1.023 1.404 2.195.95 3.157.106 1.718-.586 2.317-1.95 2.843.88 1.023 1.404 2.195.95 3.157.106 1.718-.586 2.317-1.95 2.843.88 1.023 1.404 2.195.95 3.157.106 1.718-.586 2.317-1.95 2.843.88 1.023 1.404 2.195.95 3.157.106 1.718-.586 2.317-1.95 2.843.88 1.023 1.404 2.195.95 3.157.106 1.718-.586 2.317-1.95 2.843.88 1.023 1.404 2.195.95 3.157.106 1.718-.586 2.317-1.95 2.843.88 1.023 1.404 2.195.95 3.157.106 1.718-.586 2.317-1.95 2.843.88 1.023 1.404 2.195.95 3.157.106 1.718-.586 2.317-1.95 2.843.88 1.023 1.404 2.195.95 3.157.106 1.718-.586 2.317-1.95 2.843.88 1.023 1.404 2.195.95 3.157.106 1.718-.586 2.317-1.95 2.843.88 1.023 1.404 2.195.95 3.157.106 1.718-.586 2.317-1.95 2.843.88 1.023 1.404 2.195.95 3.157.106 1.718-.586 2.317-1.95 2.843.88 1.023 1.404 2.195.95 3.157.106 1.718-.586 2.317-1.95 2.843.88 1.023 1.404 2.195.95 3.157.106 1.718-.586 2.317-1.95 2.843.88 1.023 1.404 2.195.95 3.157.106 1.718-.586 2.317-1.95 2.843.88 1.023 1.404 2.195.95 3.157.106 1.718-.586 2.317-1.95 2.843.88 1.023 1.404 2.195.95 3.157.106 1.718-.586 2.317-1.95 2.843.88 1.023 1.404 2.195.95 3.157.106 1.718-.586 2.317-1.95 2.843.88 1.023 1.404 2.195.95 3.157.106 1.718-.586 2.317-1.95 2.843.88 1.023 1.404 2.195.95 3.157.106 1.718-.586 2.317-1.95 2.843.88 1.023 1.404 2.195.95 3.157.106 1.718-.586 2.317-1.95 2.843.88 1.023 1.404 2.195.95 3.157.106 1.718-.586 2.317-1.95 2.843.88 1.023 1.404 2.195.95 3.157.106 1.718-.586 2.317-1.95 2.843.88 1.023 1.404 2.195.95 3.157.106 1.718-.586 2.317-1.95 2.843.88 1.023 1.404 2.195.95 3.157.106 1.718-.586 2.317-1.95 2.843.88 1.023 1.404 2.195.95 3.157.106 1.718-.586 2.317-1.95 2.843.88 1.023 1.404 2.195.95 3.157.106 1.718-.586 2.317-1.95 2.843.88 1.023 1.404 2.195.95 3.157.106 1.718-.586 2.317-1.95 2.843.88 1.023 1.404 2.195.95 3.157.106 1.718-.586 2.317-1.95 2.843.88 1.023 1.404 2.195.95 3.157.106 1.718-.586 2.317-1.95 2.843.88 1.023 1.404 2.195.95 3.157.106 1.718-.586 2.317-1.95 2.843.88 1.023 1.404 2.195.95 3.157.106 1.718-.586 2.317-1.95 2.843.88 1.023 1.404 2.195.95 3.157.106 1.718-.586 2.317-1.95 2.843.88 1.023 1.404 2.195.95 3.157.106 1.718-.586 2.317-1.95 2.843.88 1.023 1.404 2.195.95 3.157.106 1.718-.586 2.317-1.95 2.843.88 1.023 1.404 2.195.95 3.157.106 1.718-.586 2.317-1.95 2.843.88 1.023 1.404 2.195.95 3.157.106 1.718-.586 2.317-1.95 2.843.88 1.023 1.404 2.195.95 3.157.106 1.718-.586 2.317-1.95 2.843.88 1.023 1.404 2.195.95 3.157.106 1.718-.586 2.317-1.95 2.843.88 1.023 1.404 2.195.95 3.157.106 1.718-.586 2.317-1.95 2.843.88 1.023 1.404 2.195.95 3.157.106 1.718-.586 2.317-1.95 2.843.88 1.023 1.404 2.195.95 3.157.106 1.718-.586 2.317-1.95 2.843.88 1.023 1.404 2.195.95 3.157.106 1.718-.586 2.317-1.95 2.843.88 1.023 1.404 2.195.95 3.157.106 1.718-.586 2.317-1.95 2.843.88 1.023 1.404 2.195.95 3.157.106 1.718-.586 2.317-1.95 2.843.88 1.023 1.404 2.195.95 3.157.106 1.718-.586 2.317-1.95 2.843.88 1.023 1.404 2.195.95 3.157.106 1.718-.586 2.317-1.95 2.843.88 1.023 1.404 2.195.95 3.157.106 1.718-.586 2.317-1.95 2.843.88 1.023 1.404 2.195.95 3.157.106 1.718-.586 2.317-1.95 2.843.88 1.023 1.404 2.195.95 3.157.106 1.718-.586 2.317-1.95 2.843.88 1.023 1.404 2.195.95 3.157.106 1.718-.586 2.317-1.95 2.843.88 1.023 1.404 2.195.95 3.157.106 1.718-.586 2.317-1.95 2.843.88 1.023 1.404 2.195.95 3.157.106 1.718-.586 2.317-1.95 2.843.88 1.023 1.404 2.195.95 3.157.106 1.718-.586 2.317-1.95 2.843.88 1.023 1.404 2.195.95 3.157.106 1.718-.586 2.317-1.95 2.843.88 1.023 1.404 2.195.95 3.157.106 1.718-.586 2.317-1.95 2.843.88 1.023 1.404 2.195.95 3.157.106 1.718-.586 2.317-1.95 2.843.88 1.023 1.404 2.195.95 3.157.106 1.718-.586 2.317-1.95 2.843.88 1.023 1.404 2.195.95 3.157.106 1.718-.586 2.317-1.95 2.843.88 1.023 1.404 2.195.95 3.157.106 1.718-.586 2.317-1.95 2.843.88 1.023 1.404 2.195.95 3.157.106 1.718-.586 2.317-1.95 2.843.88 1.023 1.404 2.195.95 3.157.106 1.718-.586 2.317-1.95 2.843.88 1.023 1.404 2.195.95 3.157.106 1.718-.586 2.317-1.95 2.843.88 1.023 1.404 2.195.95 3.157.106 1.718-.586 2.317-1.95 2.843.88 1.023 1.404 2.195.95 3.157.106 1.718-.586 2.317-1.95 2.843.88 1.023 1.404 2.195.95 3.157.106 1.718-.586 2.317-1.95 2.843.88 1.023 1.404 2.195.95 3.157.106 1.718-.586 2.317-1.95 2.843.88 1.023 1.404 2.195.95 3.157.106 1.718-.586 2.317-1.95 2.843.88 1.023 1.404 2.195.95 3.157.106 1.718-.586 2.317-1.95 2.843.88 1.023 1.404 2.195.95 3.157.106 1.718-.586 2.317-1.95 2.843.88 1.023 1.404 2.195.95 3.157.106 1.718-.586 2.317-1.95 2.843.88 1.023 1.404 2.195.95 3.157.106 1.718-.586 2.317-1.95 2.843.88 1.023 1.404 2.195.95 3.157.106 1.718-.586 2.317-1.95 2.843.88 1.023 1.404 2.195.95 3.157.106 1.718-.586 2.317-1.95 2.843.88 1.023 1.404 2.195.95 3.157.106 1.718-.586 2.317-1.95 2.843.88 1.023 1.404 2.195.95 3.157.106 1.718-.586 2.317-1.95 2.843.88 1.023 1.404 2.195.95 3.157.106 1.718-.586 2.317-1.95 2.843.88 1.023 1.404 2.195.95 3.157.106 1.718-.586 2.317-1.95 2.843.88 1.023 1.404 2.195.95 3.157.106 1.718-.586 2.317-1.95 2.843.88 1.023 1.404 2.195.95 3.157.106 1.718-.586 2.317-1.95 2.843.88 1.023 1.404 2.195.95 3.157.106 1.718-.586 2.317-1.95 2.843.88 1.023 1.404 2.195.95 3.157.106 1.718-.586 2.317-1.95 2.843.88 1.023 1.404 2.195.95 3.157.106 1.718-.586 2.317-1.95 2.843.88 1.023 1.404 2.195.95 3.157.106 1.718-.586 2.317-1.95 2.843.88 1.023 1.404 2.195.95 3.157.106 1.718-.586 2.317-1.95 2.843.88 1.023 1.404 2.195.95 3.157.106 1.718-.586 2.317-1.95 2.843.88 1.023 1.404 2.195.95 3.157.106 1.718-.586 2.317-1.95 2.843.88 1.023 1.404 2.195.95 3.157.106 1.718-.586 2.317-1.95 2.843.88 1.023 1.404 2.195.95 3.157.106 1.718-.586 2.317-1.95 2.843.88 1.023 1.404 2.195.95 3.157.106 1.718-.586 2.317-1.95 2.843.88 1.023 1.404 2.195.95 3.157.106 1.718-.586 2.317-1.95 2.843.88 1.023 1.404 2.195.95 3.157.106 1.718-.586 2.317-1.95 2.843.88 1.023 1.404 2.195.95 3.157.106 1.718-.586 2.317-1.95 2.843.88 1.023 1.404 2.195.95 3.157.106 1.718-.586 2.317-1.95 2.843.88 1.023 1.404 2.195.95 3.157.106 1.718-.586 2.317-1.95 2.843.88 1.023 1.404 2.195.95 3.157.106 1.718-.586 2.317-1.95 2.843.88 1.023 1.404 2.195.95 3.157.106 1.718-.586 2.317-1.95 2.843.88 1.023 1.404 2.195.95 3.157.106 1.718-.586 2.317-1.95 2.843.88 1.023 1.404 2.195.95 3.157.106 1.718-.586 2.317-1.95 2.843.88 1.023 1.404 2.195.95 3.157.106 1.718-.586 2.317-1.95 2.843.88 1.023 1.404 2.195.95 3.157.106 1.718-.586 2.317-1.95 2.843.88 1.023 1.404 2.195.95 3.157.106 1.718-.586 2.317-1.95 2.843.88 1.023 1.404 2.195.95 3.157.106 1.718-.586 2.317-1.95 2.843.88 1.023 1.404 2.195.95 3.157.106 1.718-.586 2.317-1.95 2.843.88 1.023 1.404 2.195.95 3.157.106 1.718-.586 2.317-1.95 2.843.88 1.023 1.404 2.195.95 3.157.106 1.718-.586 2.317-1.95 2.843.88 1.023 1.404 2.195.95 3.157.106 1.718-.586 2.317-1.95 2.843.88 1.023 1.404 2.195.95 3.157.106 1.718-.586 2.317-1.95 2.843.88 1.023 1.404 2.195.95 3.157.106 1.718-.586 2.317-1.95 2.843.88 1.023 1.404 2.195.95 3.157.106 1.718-.586 2.317-1.95 2.843.88 1.023 1.404 2.195.95 3.157.106 1.718-.586 2.317-1.95 2.843.88 1.023 1.404 2.195.95 3.157.106 1.718-.586 2.317-1.95 2.843.88 1.023 1.404 2.195.95 3.157.106 1.718-.586 2.317-1.95 2.843.88 1.023 1.404 2.195.95 3.157.106 1.718-.586 2.317-1.95 2.843.88 1.023 1.404 2.195.95 3.157.106 1.718-.586 2.317-1.95 2.843.88 1.023 1.404 2.195.95 3.157.106 1.718-.586 2.317-1.95 2.843.88 1.023 1.404 2.195.95 3.157.106 1.718-.586 2.317-1.95 2.843.88 1.023 1.404 2.195.95 3.157.106 1.718-.586 2.317-1.95 2.843.88 1.023 1.404 2.195.95 3.157.106 1.718-.586 2.317-1.95 2.843.88 1.023 1.404 2.195.95 3.157.106 1.718-.586 2.317-1.95 2.843.88 1.023 1.404 2.195.95 3.157.106 1.718-.586 2.317-1.95 2.843.88 1.023 1.404 2.195.95 3.157.106 1.718-.586 2.317-1.95 2.843.88 1.023 1.404 2.195.95 3.157.106 1.718-.586 2.317-1.95 2.843.88 1.023 1.404 2.195.95 3.157.106 1.718-.586 2.317-1.95 2.843.88 1.023 1.404 2.195.95 3.157.106 1.718-.586 2.317-1.95 2.843.88 1.023 1.404 2.195.95 3.157.106 1.718-.586 2.317-1.95 2.843.88 1.023 1.404 2.195.95 3.157.106 1.718-.586 2.317-1.95 2.843.88 1.023 1.404 2.195.95 3.157.106 1.718-.586 2.317-1.95 2.843.88 1.023 1.404 2.195.95 3.157.106 1.718-.586 2.317-1.95 2.843.88 1.023 1.404 2.195.95 3.157.106 1.718-.586 2.317-1.95 2.843.88 1.023 1.404 2.195.95 3.157.106 1.718-.586 2.317-1.95 2.843.88 1.023 1.404 2.195.95 3.157.106 1.718-.586 2.317-1.95 2.843.88 1.023 1.404 2.195.95 3.157.106 1.718-.586 2.317-1.95 2.843.88 1.023 1.404 2.195.95 3.157.106 1.718-.586 2.317-1.95 2.843.88 1.023 1.404 2.195.95 3.157.106 1.718-.586 2.317-1.95 2.843.88 1.023 1.404 2.195.95 3.157.106 1.718-.586 2.317-1.95 2.843.88 1.023 1.404 2.195.95 3.157.106 1.718-.586 2.317-1.95 2.843.88 1.023 1.404 2.195.95 3.157.106 1.718-.586 2.317-1.95 2.843.88 1.023 1.404 2.195.95 3.157.106 1.718-.586 2.317-1.95 2.843.88 1.023 1.404 2.195.95 3.157.106 1.718-.586 2.317-1.95 2.843.88 1.023 1.404 2.195.95 3.157.106 1.718-.586 2.317-1.95 2.843.88 1.023 1.404 2.195.95 3.157.106 1.718-.586 2.317-1.95 2.843.88 1.023 1.404 2.195.95 3.157.106 1.718-.586 2.317-1.95 2.843.88 1.023 1.404 2.195.95 3.157.106 1.718-.586 2.317-1.95 2.843.88 1.023 1.404 2.195.95 3.157.106 1.718-.586 2.317-1.95 2.843.88 1.023 1.404 2.195.95 3.157.106 1.718-.586 2.317-1.95 2.843.88 1.023 1.404 2.195.95 3.157.106 1.718-.586 2.317-1.95 2.843.88 1.023 1.404 2.195.95 3.157.106 1.718-.586 2.317-1.95 2.843.88 1.023 1.404 2.195.95 3.157.106 1.718-.586 2.317-1.95 2.843.88 1.023 1.404 2.195.95 3.157.106 1.718-.586 2.317-1.95 2.843.88 1.023 1.404 2.195.95 3.157.106 1.718-.586 2.317-1.95 2.843.88 1.023 1.404 2.195.95 3.157.106 1.718-.586 2.317-1.95 2.843.88 1.023 1.404 2.195.95 3.157.106 1.718-.586 2.317-1.95 2.843.88 1.023 1.404 2.195.95 3.157.106 1.718-.586 2.317-1.95 2.843.88 1.023 1.404 2.195.95 3.157.106 1.718-.586 2.317-1.95 2.843.88 1.023 1.404 2.195.95 3.157.106 1.718-.586 2.317-1.95 2.843.88 1.023 1.404 2.195.95 3.157.106 1.718-.586 2.317-1.95 2.843.88 1.023 1.404 2.195.95 3.157.106 1.718-.586 2.317-1.95 2.843.88 1.023 1.404 2.195.95 3.157.106 1.718-.586 2.317-1.95 2.843.88 1.023 1.404 2.195.95 3.157.106 1.718-.586 2.317-1.95 2.843.88 1.023 1.404 2.195.95 3.157.106 1.718-.586 2.317-1.95 2.843.88 1.023 1.404 2.195.95 3.157.106 1.718-.586 2.317-1.95 2.843.88 1.023 1.404 2.195.95 3.157.106 1.718-.586 2.317-1.95 2.843.88 1.023 1.404 2.195.95 3.157.106 1.718-.586 2.317-1.95 2.843.88 1.023 1.404 2.195.95 3.157.106 1.718-.585 2.317-1.95 2.843.88 1.023 1.404 2.195.95 3.157.106 1.718-.585 2.317-1.95 2.843.88 1.023 1.404 2.195.95 3.157.106 1.718-.585 2.317-1.95 2.843.88 1.023 1.404 2.195.95 3.157.106 1.718-.585 2.317-1.95 2.843.88 1.023 1.404 2.195.95 3.157.106 1.718-.585 2.317-1.95 2.843.88 1.023 1.404 2.195.95 3.157.106 1.718-.585 2.317-1.95 2.843.88 1.023 1.404 2.195.95 3.157.106 1.718-.585 2.317-1.95 2.843.88 1.023 1.404 2.195.95 3.157.106 1.718-.585 2.317-1.95 2.843.88 1.023 1.404 2.195.95 3.157.106 1.718-.585 2.317-1.95 2.843.88 1.023 1.404 2.195.95 3.157.106 1.718-.585 2.317-1.95 2.843.88 1.023 1.404 2.195.95 3.157.106 1.718-.585 2.317-1.95 2.843.88 1.023 1.404 2.195.95 3.157.106 1.718-.585 2.317-1.95 2.843.88 1.023 1.404 2.195.95 3.157.106 1.718-.585 2.317-1.95 2.843.88 1.023 1.404 2.195.95 3.157.106 1.718-.585 2.317-1.95 2.843.88 1.023 1.404 2.195.95 3.157.106 1.718-.585 2.317-1.95 2.843.88 1.023 1.404 2.195.95 3.157.106 1.718-.585 2.317-1.95 2.843.88 1.023 1.404 2.195.95 3.157.106 1.718-.585 2.317-1.95 2.843.88 1.023 1.404 2.195.95 3.157.106 1.718-.585 2.317-1.95 2.843.88 1.023 1.404 2.195.95 3.157.106 1.718-.585 2.317-1.95 2.843.88 1.023 1.404 2.195.95 3.157.106 1.718-.585 2.317-1.95 2.843.88 1.023 1.404 2.195.95 3.157.106 1.718-.585 2.317-1.95 2.843.88 1.023 1.404 2.195.95 3.157.106 1.718-.585 2.317-1.95 2.843.88 1.023 1.404 2.195.95 3.157.106 1.718-.585 2.317-1.95 2.843.88 1.023 1.404 2.195.95 3.157.106 1.718-.585 2.317-1.95 2.843.88 1.023 1.404 2.195.95 3.157.106 1.718-.585 2.317-1.95 2.843.88 1.023 1.404 2.195.95 3.157.106 1.718-.585 2.317-1.95 2.843.88 1.023 1.404 2.195.95 3.157.106 1.718-.585 2.317-1.95 2.843.88 1.023 1.404 2.195.95 3.157.106 1.718-.585 2.317-1.95 2.843.88 1.023 1.404 2.195.95 3.157.106 1.718-.585 2.317-1.95 2.843.88 1.023 1.404 2.195.95 3.157.106 1.718-.585 2.317-1.95 2.843.88 1.023 1.404 2.195.95 3.157.106 1.718-.585 2.317-1.95 2.843.88 1.023 1.404 2.195.95 3.157.106 1.718-.585 2.317-1.95 2.843.88 1.023 1.404 2.195.95 3.157.106 1.718-.585 2.317-1.95 2.843.88 1.023 1.404 2.195.95 3.157.106 1.718-.585 2.317-1.95 2.843.88 1.023 1.404 2.195.95 3.157.106 1.718-.585 2.317-1.95 2.843.88 1.023 1.404 2.195.95 3.157.106 1.718-.585 2.317-1.95 2.843.88 1.023 1.404 2.195.95 3.157.106 1.718-.585 2.317-1.95 2.843.88 1.023 1.404 2.195.95 3.157.106 1.718-.585 2.317-1.95 2.843.88 1.023 1.404 2.195.95 3.157.106 1.718-.585 2.317-1.95 2.843.88 1.023 1.404 2.195.95 3.157.106 1.718-.585 2.317-1.95 2.843.88 1.023 1.404 2.195.95 3.157.106 1.718-.585 2.317-1.95 2.843.88 1.023 1.404 2.195.95 3.157.106 1.718-.585 2.317-1.95 2.843.88 1.023 1.404 2.195.95 3.157.106 1.718-.585 2.317-1.95 2.843.88 1.023 1.404 2.195.95 3.157.106 1.718-.585 2.317-1.95 2.843.88 1.023 1.404 2.195.95 3.157.106 1.718-.585 2.317-1.95 2.843.88 1.023 1.404 2.195.95 3.157.106 1.718-.585 2.317-1.95 2.843.88 1.023 1.404 2.195.95 3.157.106 1.718-.585 2.317-1.95 2.843.88 1.023 1.404 2.195.95 3.157.106 1.718-.585 2.317-1.95 2.843.88 1.023 1.404 2.195.95 3.157.106 1.718-.585 2.317-1.95 2.843.88 1.023 1.404 2.195.95 3.157.106 1.718-.585 2.317-1.95 2.843.88 1.023 1.404 2.195.95 3.157.106 1.718-.585 2.317-1.95 2.843.88 1.023 1.404 2.195.95 3.157.106 1.718-.585 2.317-1.95 2.843.88 1.023 1.404 2.195.95 3.157.106 1.718-.585 2.317-1.95 2.843.88 1.023 1.404 2.195.95 3.157.106 1.718-.585 2.317-1.95 2.843.88 1.023 1.404 2.195.95 3.157.106 1.718-.585 2.317-1.95 2.843.88 1.023 1.404 2.195.95 3.157.106 1.718-.585 2.317-1.95 2.843.88 1.023 1.404 2.195.95 3.157.106 1.718-.585 2.317-1.95 2.843.88 1.023 1.404 2.195.95 3.157.106 1.718-.585 2.317-1.95 2.843.88 1.023 1.404 2.195.95 3.157.106 1.718-.585 2.317-1.95 2.843.88 1.023 1.404 2.195.95 3.157.106 1.718-.585 2.317-1.95 2.843.88 1.023 1.404 2.195.95 3.157.106 1.718-.585 2.317-1.95 2.843.88 1.023 1.404 2.195.95 3.157.106 1.718-.585 2.317-1.95 2.843.877 1.023 1.4 2.185.943 3.142.19 1.9-.228 2.148-1.943 2.358z" style="fill:#727271;fill-rule:evenodd;stroke:none"/><path d="M1044 2187.375c2.312 2.999 4.853 5.893 7.5 8.625 39.094-21.351 77.031-45.242 112-73 1.426 133.539-.26 267.402.5 401 19.772.207 39.756.576 59.162-3.82 13.6-3.195 26.869-7.54 39.61-13.287 8.968-3.936 18.895-9.966 25.838-15.636 2.703-2.233 5.477-5.552 6.642-8.575 2.016-14.911-.271-30.266.748-45.262V2066c9.858-3.05 24.441-6.198 28-19-17.735-6.124-35.423-13.024-53-19.5 20.655-20.332 40.118-41.782 58.807-63.912 9.738-10.433 17.653-22.565 27.423-32.908 2.679-2.283 7.6-1.468 11.455-1.708 8.95-.688 22.729-4.673 25.315-15.972-27.029-12.058-53.06-26.84-79.895-39.418-27.505-10.898-52.427-28.327-80.105-38.582-20.553 64.881-49.923 126.929-81.543 187.087-30.463 58.498-66.325 114.56-108.457 165.288M1372 1541v47.4c.558 11.738-.686 23.602.385 35.292-.02 3.628 6.188 5.025 8.208 6.98 24.082 13.356 51.332 20.05 78.407 22.828-2.313 1.838-6.386 1.241-9.682 1.968-2.966.743-4.4 4.287-6.318 6.032 32.081 20.06 61.548 44.783 84.625 75.016 23.807 29.345 44.683 62.57 54.375 99.484 7.67 1.555 14.269 6.868 22.125 8.163 27.112 8.678 58.879 1.392 77.72-20.547 18.652-20.798 23.823-52.53 14.918-78.679-14.939-41.28-54.234-68.273-95.336-79.082-9.543-3.031-19.263-5.435-29.066-7.437-9.652-2.72-21.525-2.752-30.361-4.918l1.643-.5c24.02-1.72 47.282-9.337 69.212-18.947 4.524-3.313 12.234-5.163 14.68-9.437 1.322-19.73-.238-39.671.465-59.441V1541c45.235-5.485 89.627-16.767 132.704-31.403 59.88-21.851 118.582-56.717 155.192-110.536 38.625-56.343 41.806-130.442 20.36-193.759-16.298-50.04-42.592-96.368-70.256-140.802 24.747-.744 50.178 3.985 75 3-23.731-56.947-47.528-113.99-70.885-171.108-24.432-56.028-45.597-113.705-70.615-169.392-18.81 23.564-32.588 50.785-44.931 78.163-21.616 50.692-38.577 103.982-44.584 158.975-1.918 21.258-3.053 46.61-.966 66.142 3.39 35.54 16.367 69.028 28.23 102.342 9.243 24.922 20.13 49.435 26.438 75.319 4.637 20.949 3.19 43.718-5.431 63.479-11.41 27.184-36.635 44.986-63.351 55.125-28.468 11.619-58.761 17.364-88.905 22.455-6.244-54.975-12.2-110.034-18.274-165.033-3.147-27.917-6.241-55.83-9.195-83.755-2.36-27.766-7.132-55.381-8.531-83.212 24.285.918 48.795 4.837 73 5.5-24.499-51.908-46.767-105.078-71.179-157.074C1549.113 812.258 1523.026 760.423 1501 707h-2c-22.003 53.322-48.006 105.078-70.683 158.141-24.484 52.112-46.73 105.344-71.317 157.359 24.154-.904 48.733-4.593 73-5.5-1.367 28.194-6.319 56.124-8.657 84.244-9.034 82.587-17.864 165.241-27.343 247.756-31.568-5.605-63.688-10.965-93.199-24.276-23.389-9.53-45.974-25.696-57.005-49.135-11.676-22.744-12.074-50.231-5.818-74.482 11.403-39.71 30.074-77.003 41.4-116.76 20.504-62.34 14.242-129.963-3.313-192.114-7.598-30.204-18.9-59.224-30.762-87.954-12.193-27.192-25.579-54.26-44.803-77.279-24.911 55.405-46.467 112.79-70.382 168.721-23.813 57.194-47.037 114.73-71.118 171.779 24.746 1.1 50.194-4.239 75-3-21.99 35.055-42.602 71.351-58.653 109.574-26.833 60.435-35.374 132.756-7.656 194.683 25.922 56.816 77.442 98.045 132.701 124.415 54.03 25.115 112.466 40.932 171.608 47.828m-320 362.458c2.524 3.124 4.593 6.718 7.5 9.542 28.805-12.856 59.002-23.761 86.33-39.896 41.043-21.987 80.21-47.284 117.251-75.428 18.377-14.46 37.073-28.686 54.303-44.52 4.523-3.863 9.101-7.691 13.091-12.131 3.262-3.168 6.298-6.636 10.007-9.275 6.911-1.733 14.634.4 21.512-2.048 5.55-2.523 13.192-7.019 14.006-12.702-25.317-13.266-50.555-27.526-75.875-40.95-12.754-6.785-25.191-14.134-38.1-20.617-13.044-6.622-25.528-14.807-39.025-20.433-19.541 49.688-45.95 96.542-73.886 141.936-28.854 44.547-58.95 89.32-97.114 126.522M1797.25 1025c29.307 4.025 59.369 1.338 88.75 5-30.826-77.904-62.039-155.967-92.5-234-14.015 27.65-22.855 58.03-31.444 87.75-13.964 55.277-24.37 113.911-12.47 170.664 9.2 40.247 27.359 77.707 41.478 116.276 11.537 29.562 15.503 62.544 8.07 93.667-3.93 22.02-17.782 45.525-32.504 59.513-24.626 23.954-57.33 37.268-89.756 46.73-33.971 8.97-68.707 16.43-103.874 18.4-15.617-136.896-28.887-274.181-45-411 18.41.683 36.604 4.164 55 5-26.333-65.981-55.672-131-82-197h-2c-26.383 65.956-55.591 131.058-82 197 18.358-1.235 36.604-4.2 55-5-16.136 136.819-29.355 274.118-45 411-32.133-1.477-63.895-8.315-95.061-15.772-25.907-7.283-51.844-16.172-74.705-30.7-19.501-12.056-36.552-29.024-46.439-49.94-20.261-39.216-16.286-86.493-.102-126.107 11.309-29.346 23.245-58.468 33.115-88.325 16.553-46.998 14.303-98.196 4.688-146.32-3.978-23.843-10.04-47.255-16.443-70.532-7.385-21.725-13.736-44.452-25.553-64.304-31.32 77.379-61.274 155.563-92.5 233 29.134-3.877 59.59-.752 88.5-5-25.032 40.17-53.066 79.808-74.466 122.423-10.416 19.283-19.419 39.438-26.417 60.219-14.394 40.13-19.267 85-7.589 126.452 9.579 34.462 31.964 64.182 59.663 86.244 49.667 40.385 111.507 62.397 173.366 75.489 24.027 4.897 48.237 9.051 72.625 11.732 2.587.416 5.94.19 8.082 1.412 2.5 5.388.383 11.002 1.236 16.74v66.826c.098 4.381-.93 10.903 3.242 12.571 33.696 15.133 71.435 13.017 107.312 12.89 13.677.023 27.307-1.529 40.672-4.344a237 237 0 0 0 16.96-4.59c2.68-.754 5.26-1.845 7.832-2.874 7.09-1.57 6.18-7.823 5.982-12.942v-75.233c.463-3.16-.8-8.135 2.168-9.6 49.87-5.559 99.377-14.838 146.986-30.974 43.834-15.413 86.456-36.611 120.216-69.311 12.452-12.031 22.916-25.836 31.804-40.625 14.396-28.842 23.793-61.105 19.91-93.793-.27-24.499-7.574-48.114-15.369-71.034-11.974-32.546-27.963-63.457-45.861-93.11-16.973-28.678-35.765-56.539-53.604-84.568M1337 2499h574.2c8.871.181 17.882.201 26.453-2.472 3.584-1.012 7.1-2.71 9.618-5.51 6.731-6.986.273-11.549-5.222-15.545-16.527-16.395-34.606-31.134-52.242-46.302-17.208-14.974-34.38-30.091-52.307-44.171-19.244 24.982-36.744 51.282-55.737 76.448-2.383 3.013-4.628 7.148-7.571 9.226-6.69 2.807-16.763.287-23.86 1.326H1679v-299h189c10.632-.126 21.24.157 31.87-.093 4.441-.234 9.786-1.5 13.2-3.84 3.98-2.173 6.274-7.554 7.93-10.567-36.152-31.576-71.407-65.907-110-94.5-16.714 21.638-32.167 44.628-48.483 66.647-4.22 5.035-8.046 12.03-12.494 16.15-5.417 2.43-11.456.378-17.31 1.203H1679v-259h195.6c10.865-.245 21.745.388 32.587-.429 11.117-.005 19.193-4.917 22.813-14.633-35.73-34.129-73.14-66.722-111.5-97.938-10.883 15.582-21.988 31.256-32.987 46.809-4.792 6.716-9.54 13.457-14.4 20.123-4.702 5.766-8.894 13.992-14.406 18.189-8.275 1.928-17.442.123-25.925.879H1344c1.668 9.124 6.016 17.683 7 27h191v258c-57.929.76-116.151-.926-174 .5 3.839 7.744 4.493 18.691 8.299 25.598 7.43 1.788 15.445.317 23.03.902H1542v298h-212c1.643 9.137 6.062 17.669 7 27" style="fill:#666;fill-rule:evenodd;stroke:none"/><path d="M450 2665v-4h-3c-.021 1.773.535 4.08 3 4m1-6v-4h-3c-.021 1.773.535 4.08 3 4m1-6v-4h-3c-.021 1.773.535 4.08 3 4m1-6v-4h-3c-.021 1.773.535 4.08 3 4m1-6v-4h-3c-.021 1.773.535 4.08 3 4m1-6v-4h-3c-.021 1.773.535 4.08 3 4m1-6v-4h-3c-.021 1.773.535 4.08 3 4m1-6v-4h-3c-.021 1.773.535 4.08 3 4m1-6v-4h-3c-.021 1.773.535 4.08 3 4m1-6v-4h-3c-.021 1.773.535 4.08 3 4m1-6v-4h-3c-.021 1.773.535 4.08 3 4m1-6v-4h-3c-.021 1.773.535 4.08 3 4m1-6v-4h-3c-.021 1.773.535 4.08 3 4m1-6v-4h-3c-.021 1.773.535 4.08 3 4m1-6v-4h-3c-.021 1.773.535 4.08 3 4m1-6v-4h-3c-.021 1.773.535 4.08 3 4m1-6v-4h-3c-.021 1.773.535 4.08 3 4m1-6v-4h-3c-.021 1.773.535 4.08 3 4m1-6v-4h-3c-.021 1.773.535 4.08 3 4m1-6v-4h-3c-.021 1.773.535 4.08 3 4m1-6v-4h-3c-.021 1.773.535 4.08 3 4m1-6v-4h-3c-.021 1.773.535 4.08 3 4m1-6v-4h-3c-.021 1.773.535 4.08 3 4m1-6v-4h-3c-.021 1.773.535 4.08 3 4m1-6v-4h-3c-.021 1.773.535 4.08 3 4m1-6v-4h-3c-.021 1.773.535 4.08 3 4m1-6v-4h-3c-.021 1.773.535 4.08 3 4m1-6v-4h-3c-.021 1.773.535 4.08 3 4m1-6v-4h-3c-.021 1.773.535 4.08 3 4m1-6v-4h-3c-.021 1.773.535 4.08 3 4m1-6v-4h-3c-.021 1.773.535 4.08 3 4m1-6v-4h-3c-.021 1.773.535 4.08 3 4m1-6v-4h-3c-.021 1.773.535 4.08 3 4m1-6v-4h-3c-.021 1.773.535 4.08 3 4m1-6v-4h-3c-.021 1.773.535 4.08 3 4m1-6v-4h-3c-.021 1.773.535 4.08 3 4m1-6v-4h-3c-.021 1.773.535 4.08 3 4m1-6v-4h-3c-.021 1.773.535 4.08 3 4m1-6v-4h-3c-.021 1.773.535 4.08 3 4m1-6v-4h-3c-.021 1.773.535 4.08 3 4m1-6v-4h-3c-.021 1.773.535 4.08 3 4m1-6v-4h-3c-.021 1.773.535 4.08 3 4m1-6v-4h-3c-.021 1.773.535 4.08 3 4m1-6v-4h-3c-.021 1.773.535 4.08 3 4m1-6v-4h-3c-.021 1.773.535 4.08 3 4m1-6v-4h-3c-.021 1.773.535 4.08 3 4m1-6v-4h-3c-.021 1.773.535 4.08 3 4m1-6v-4h-3c-.021 1.773.535 4.08 3 4m1-6v-4h-3c-.021 1.773.535 4.08 3 4m1-6v-4h-3c-.021 1.773.535 4.08 3 4m1-6v-4h-3c-.021 1.773.535 4.08 3 4m1-6v-4h-3c-.021 1.773.535 4.08 3 4m1-6v-4h-3c-.021 1.773.535 4.08 3 4m1-6v-4h-3c-.021 1.773.535 4.08 3 4m1-6v-4h-3c-.021 1.773.535 4.08 3 4m1-6v-4h-3c-.021 1.773.535 4.08 3 4m1-6v-4h-3c-.021 1.773.535 4.08 3 4m1-6v-4h-3c-.021 1.773.535 4.08 3 4m1-6v-4h-3c-.021 1.773.535 4.08 3 4m1-6v-4h-3c-.021 1.773.535 4.08 3 4m1-6v-4h-3c-.021 1.773.535 4.08 3 4m1-6v-4h-3c-.021 1.773.535 4.08 3 4m1-6v-4h-3c-.021 1.773.535 4.08 3 4m1-6v-4h-3c-.021 1.773.535 4.08 3 4m1-6v-4h-3c-.021 1.773.535 4.08 3 4m1-6v-4h-3c-.021 1.773.535 4.08 3 4m1-6v-4h-3c-.021 1.773.535 4.08 3 4m1-6v-4h-3c-.021 1.773.535 4.08 3 4m1-6v-4h-3c-.021 1.773.535 4.08 3 4m1-6v-4h-3c-.021 1.773.535 4.08 3 4m1-6v-4h-3c-.021 1.773.535 4.08 3 4m1-6v-4h-3c-.021 1.773.535 4.08 3 4m1-6v-4h-3c-.021 1.773.535 4.08 3 4m1-6v-4h-3c-.021 1.773.535 4.08 3 4m1-6v-4h-3c-.021 1.773.535 4.08 3 4m1-6v-4h-3c-.021 1.773.535 4.08 3 4m1-6v-4h-3c-.021 1.773.535 4.08 3 4m1-6v-4h-3c-.021 1.773.535 4.08 3 4m1-6v-4h-3c-.021 1.773.535 4.08 3 4m1-6v-4h-3c-.021 1.773.535 4.08 3 4m1-6v-4h-3c-.021 1.773.535 4.08 3 4m1-6v-4h-3c-.021 1.773.535 4.08 3 4m1-6v-4h-3c-.021 1.773.535 4.08 3 4m1-6v-4h-3c-.021 1.773.535 4.08 3 4m1-6v-4h-3c-.021 1.773.535 4.08 3 4m1-6v-4h-3c-.021 1.773.535 4.08 3 4m1-6v-4h-3c-.021 1.773.535 4.08 3 4m1-6v-4h-3c-.021 1.773.535 4.08 3 4m1-6v-4h-3c-.021 1.773.535 4.08 3 4m1-6v-4h-3c-.021 1.773.535 4.08 3 4m1-6v-4h-3c-.021 1.773.535 4.08 3 4m1-6v-4h-3c-.021 1.773.535 4.08 3 4m1-6v-4h-3c-.021 1.773.535 4.08 3 4m1-6v-4h-3c-.021 1.773.535 4.08 3 4m1-6v-4h-3c-.021 1.773.535 4.08 3 4m1-6v-4h-3c-.021 1.773.535 4.08 3 4m1-6v-4h-3c-.021 1.773.535 4.08 3 4m1-6v-4h-3c-.021 1.773.535 4.08 3 4m1-6v-4h-3c-.021 1.773.535 4.08 3 4m1-6v-4h-3c-.021 1.773.535 4.08 3 4m1-6v-4h-3c-.021 1.773.535 4.08 3 4m1-6v-4h-3c-.021 1.773.535 4.08 3 4m1-6v-4h-3c-.021 1.773.535 4.08 3 4m1-6v-4h-3c-.021 1.773.535 4.08 3 4m1-6v-4h-3c-.021 1.773.535 4.08 3 4m1-6v-4h-3c-.021 1.773.535 4.08 3 4m1-6v-4h-3c-.021 1.773.535 4.08 3 4m1-6v-4h-3c-.021 1.773.535 4.08 3 4m1-6v-4h-3c-.021 1.773.535 4.08 3 4m1-6v-4h-3c-.021 1.773.535 4.08 3 4m1-6v-4h-3c-.021 1.773.535 4.08 3 4m1-6v-4h-3c-.021 1.773.535 4.08 3 4m1-6v-4h-3c-.021 1.773.535 4.08 3 4m1-6v-4h-3c-.021 1.773.535 4.08 3 4m1-6v-4h-3c-.021 1.773.535 4.08 3 4m1-6v-4h-3c-.021 1.773.535 4.08 3 4m1-6v-4h-3c-.021 1.773.535 4.08 3 4m1-6v-4h-3c-.021 1.773.535 4.08 3 4m1-6v-4h-3c-.021 1.773.535 4.08 3 4m1-6v-4h-3c-.021 1.773.535 4.08 3 4m1-6v-4h-3c-.021 1.773.535 4.08 3 4m1-6v-4h-3c-.021 1.773.535 4.08 3 4m1-6v-4h-3c-.021 1.773.535 4.08 3 4m1-6v-4h-3c-.021 1.773.535 4.08 3 4m1-6v-4h-3c-.021 1.773.535 4.08 3 4m1-6v-4h-3c-.021 1.773.535 4.08 3 4m1-6v-4h-3c-.021 1.773.535 4.08 3 4m1-6v-4h-3c-.021 1.773.535 4.08 3 4m1-6v-4h-3c-.021 1.773.535 4.08 3 4m1-6v-4h-3c-.021 1.773.535 4.08 3 4m1-6v-4h-3c-.021 1.773.535 4.08 3 4m1-6v-4h-3c-.021 1.773.535 4.08 3 4m1-6v-4h-3c-.021 1.773.535 4.08 3 4m1-6v-4h-3c-.021 1.773.535 4.08 3 4m1-6v-4h-3c-.021 1.773.535 4.08 3 4m1-6v-4h-3c-.021 1.773.535 4.08 3 4m1-6v-4h-3c-.021 1.773.535 4.08 3 4m1-6v-4h-3c-.021 1.773.535 4.08 3 4m1-6v-4h-3c-.021 1.773.535 4.08 3 4m1-6v-4h-3c-.021 1.773.535 4.08 3 4m1-6v-4h-3c-.021 1.773.535 4.08 3 4m1-6v-4h-3c-.021 1.773.535 4.08 3 4m1-6v-4h-3c-.021 1.773.535 4.08 3 4m1-6v-4h-3c-.021 1.773.535 4.08 3 4m1-6v-4h-3c-.021 1.773.535 4.08 3 4m1-6v-4h-3c-.021 1.773.535 4.08 3 4m1-6v-4h-3c-.021 1.773.535 4.08 3 4m1-6v-4h-3c-.021 1.773.535 4.08 3 4m1-6v-4h-3c-.021 1.773.535 4.08 3 4m1-6v-4h-3c-.021 1.773.535 4.08 3 4m1-6v-4h-3c-.021 1.773.535 4.08 3 4m1-6v-4h-3c-.021 1.773.535 4.08 3 4m1-6v-4h-3c-.021 1.773.535 4.08 3 4m1-6v-4h-3c-.021 1.773.535 4.08 3 4m1-6v-4h-3c-.021 1.773.535 4.08 3 4m1-6v-4h-3c-.021 1.773.535 4.08 3 4m1-6v-4h-3c-.021 1.773.535 4.08 3 4m1-6v-4h-3c-.021 1.773.535 4.08 3 4m1-6v-4h-3c-.021 1.773.535 4.08 3 4m1-6v-4h-3c-.021 1.773.535 4.08 3 4m1-6v-4h-3c-.021 1.773.535 4.08 3 4m1-6v-4h-3c-.021 1.773.535 4.08 3 4m1-6v-4h-3c-.021 1.773.535 4.08 3 4m1-6v-4h-3c-.021 1.773.535 4.08 3 4m1-6v-4h-3c-.021 1.773.535 4.08 3 4m1-6v-4h-3c-.021 1.773.535 4.08 3 4m1-6v-4h-3c-.021 1.773.535 4.08 3 4m1-6v-4h-3c-.021 1.773.535 4.08 3 4m1-6v-4h-3c-.021 1.773.535 4.08 3 4m1-6v-4h-3c-.021 1.773.535 4.08 3 4m1-6v-4h-3c-.021 1.773.535 4.08 3 4m1-6v-4h-3c-.021 1.773.535 4.08 3 4m1-6v-4h-3c-.021 1.773.535 4.08 3 4m1-6v-4h-3c-.021 1.773.535 4.08 3 4m1-6v-4h-3c-.021 1.773.535 4.08 3 4m1-6v-4h-3c-.021 1.773.535 4.08 3 4m1-6v-4h-3c-.021 1.773.535 4.08 3 4m1-6v-4h-3c-.021 1.773.535 4.08 3 4m1-6v-4h-3c-.021 1.773.535 4.08 3 4m1-6v-4h-3c-.021 1.773.535 4.08 3 4m1-6v-4h-3c-.021 1.773.535 4.08 3 4m1-6v-4h-3c-.021 1.773.535 4.08 3 4m1-6v-4h-3c-.021 1.773.535 4.08 3 4m1-6v-4h-3c-.021 1.773.535 4.08 3 4m1-6v-4h-3c-.021 1.773.535 4.08 3 4m1-6v-4h-3c-.021 1.773.535 4.08 3 4m1-6v-4h-3c-.021 1.773.535 4.08 3 4m1-6v-4h-3c-.021 1.773.535 4.08 3 4m1-6v-4h-3c-.021 1.773.535 4.08 3 4m1-6v-4h-3c-.021 1.773.535 4.08 3 4m1-6v-4h-3c-.021 1.773.535 4.08 3 4m1-6v-4h-3c-.021 1.773.535 4.08 3 4m1-6v-4h-3c-.021 1.773.535 4.08 3 4m1-6v-4h-3c-.021 1.773.535 4.08 3 4m1-6v-4h-3c-.021 1.773.535 4.08 3 4m1-6v-4h-3c-.021 1.773.535 4.08 3 4m1-6v-4h-3c-.021 1.773.535 4.08 3 4m1-6v-4h-3c-.021 1.773.535 4.08 3 4m1-6v-4h-3c-.021 1.773.535 4.08 3 4m1-6v-4h-3c-.021 1.773.535 4.08 3 4m1-6v-4h-3c-.021 1.773.535 4.08 3 4m1-6v-4h-3c-.021 1.773.535 4.08 3 4m1-6v-4h-3c-.021 1.773.535 4.08 3 4m1-6v-4h-3c-.021 1.773.535 4.08 3 4m1-6v-4h-3c-.021 1.773.535 4.08 3 4m1-6v-4h-3c-.021 1.773.535 4.08 3 4m1-6v-4h-3c-.021 1.773.535 4.08 3 4m1-6v-4h-3c-.021 1.773.535 4.08 3 4m1-6v-4h-3c-.021 1.773.535 4.08 3 4m1-6v-4h-3c-.021 1.773.535 4.08 3 4m1-6v-4h-3c-.021 1.773.535 4.08 3 4m1-6v-4h-3c-.021 1.773.535 4.08 3 4m1-6v-4h-3c-.021 1.773.535 4.08 3 4m1-6v-4h-3c-.021 1.773.535 4.08 3 4m1-6v-4h-3c-.021 1.773.535 4.08 3 4m1-6v-4h-3c-.021 1.773.535 4.08 3 4m1-6v-4h-3c-.021 1.773.535 4.08 3 4m1-6v-4h-3c-.021 1.773.535 4.08 3 4m1-6v-4h-3c-.021 1.773.535 4.08 3 4m1-6v-4h-3c-.021 1.773.535 4.08 3 4m1-6v-4h-3c-.021 1.773.535 4.08 3 4m1-6v-4h-3c-.021 1.773.535 4.08 3 4m1-6v-4h-3c-.021 1.773.535 4.08 3 4m1-6v-4h-3c-.021 1.773.535 4.08 3 4m1-6v-4h-3c-.021 1.773.535 4.08 3 4m1-6v-4h-3c-.021 1.773.535 4.08 3 4m1-6v-4h-3c-.021 1.773.535 4.08 3 4m1-6v-4h-3c-.021 1.773.535 4.08 3 4m1-6v-4h-3c-.021 1.773.535 4.08 3 4m1-6v-4h-3c-.021 1.773.535 4.08 3 4m1-6v-4h-3c-.021 1.773.535 4.08 3 4m1-6v-4h-3c-.021 1.773.535 4.08 3 4m1-6v-4h-3c-.021 1.773.535 4.08 3 4m1-6v-4h-3c-.021 1.773.535 4.08 3 4m1-6v-4h-3c-.021 1.773.535 4.08 3 4m1-6v-4h-3c-.021 1.773.535 4.08 3 4m1-6v-4h-3c-.021 1.773.535 4.08 3 4m1-6v-4h-3c-.021 1.773.535 4.08 3 4m1-6v-4h-3c-.021 1.773.535 4.08 3 4m1-6v-4h-3c-.021 1.773.535 4.08 3 4m1-6v-4h-3c-.021 1.773.535 4.08 3 4m1-6v-4h-3c-.021 1.773.535 4.08 3 4m1-6v-4h-3c-.021 1.773.535 4.08 3 4m1-6v-4h-3c-.021 1.773.535 4.08 3 4m1-6v-4h-3c-.021 1.773.535 4.08 3 4m1-6v-4h-3c-.021 1.773.535 4.08 3 4m1-6v-4h-3c-.021 1.773.535 4.08 3 4m1-6v-4h-3c-.021 1.773.535 4.08 3 4m1-6v-4h-3c-.021 1.773.535 4.08 3 4m1-6v-4h-3c-.021 1.773.535 4.08 3 4m1-6v-4h-3c-.021 1.773.535 4.08 3 4m1-6v-4h-3c-.021 1.773.535 4.08 3 4m1-6v-4h-3c-.021 1.773.535 4.08 3 4m1-6v-4h-3c-.021 1.773.535 4.08 3 4m1-6v-4h-3c-.021 1.773.535 4.08 3 4m1-6v-4h-3c-.021 1.773.535 4.08 3 4m1-6v-4h-3c-.021 1.773.535 4.08 3 4m1-6v-4h-3c-.021 1.773.535 4.08 3 4m1-6v-4h-3c-.021 1.773.535 4.08 3 4m1-6v-4h-3c-.021 1.773.535 4.08 3 4m1-6v-4h-3c-.021 1.773.535 4.08 3 4m1-6v-4h-3c-.021 1.773.535 4.08 3 4m1-6v-4h-3c-.021 1.773.535 4.08 3 4m1-6v-4h-3c-.021 1.773.535 4.08 3 4m1-6v-4h-3c-.021 1.773.535 4.08 3 4m1-6v-4h-3c-.021 1.773.535 4.08 3 4m1-6v-4h-3c-.021 1.773.535 4.08 3 4m1-6v-4h-3c-.021 1.773.535 4.08 3 4m1-6v-4h-3c-.021 1.773.535 4.08 3 4m1-6v-4h-3c-.021 1.773.535 4.08 3 4m1-6v-4h-3c-.021 1.773.535 4.08 3 4m1-6v-4h-3c-.021 1.773.535 4.08 3 4m1-6v-4h-3c-.021 1.773.535 4.08 3 4m1-6v-4h-3c-.021 1.773.535 4.08 3 4m1-6v-4h-3c-.021 1.773.535 4.08 3 4m1-6v-4h-3c-.021 1.773.535 4.08 3 4m1-6v-4h-3c-.021 1.773.535 4.08 3 4m1-6v-4h-3c-.021 1.773.535 4.08 3 4m1-6v-4h-3c-.021 1.773.535 4.08 3 4m1-6v-4h-3c-.021 1.773.535 4.08 3 4m1-6v-4h-3c-.021 1.773.535 4.08 3 4m1-6v-4h-3c-.021 1.773.535 4.08 3 4m1-6v-4h-3c-.021 1.773.535 4.08 3 4m1-6v-4h-3c-.021 1.773.535 4.08 3 4m1-6v-4h-3c-.021 1.773.535 4.08 3 4m1-6v-4h-3c-.021 1.773.535 4.08 3 4m1-6v-4h-3c-.021 1.773.535 4.08 3 4m1-6v-4h-3c-.021 1.773.535 4.08 3 4m1-6v-4h-3c-.021 1.773.535 4.08 3 4m1-6v-4h-3c-.021 1.773.535 4.08 3 4m1-6v-4h-3c-.021 1.773.535 4.08 3 4m1-6v-4h-3c-.021 1.773.535 4.08 3 4m1-6v-4h-3c-.021 1.773.535 4.08 3 4m1-6v-4h-3c-.021 1.773.535 4.08 3 4m1-6v-4h-3c-.021 1.773.535 4.08 3 4m1-6v-4h-3c-.021 1.773.535 4.08 3 4m1-6v-4h-3c-.021 1.773.535 4.08 3 4m1-6v-4h-3c-.021 1.773.535 4.08 3 4m1-6v-4h-3c-.021 1.773.535 4.08 3 4m1-6v-4h-3c-.021 1.773.535 4.08 3 4m1-6v-4h-3c-.021 1.773.535 4.08 3 4m1-6v-4h-3c-.021 1.773.535 4.08 3 4m1-6v-4h-3c-.021 1.773.535 4.08 3 4m1-6v-4h-3c-.021 1.773.535 4.08 3 4m1-6v-4h-3c-.021 1.773.535 4.08 3 4m1-6v-4h-3c-.021 1.773.535 4.08 3 4m1-6v-4h-3c-.021 1.773.535 4.08 3 4m1-6v-4h-3c-.021 1.773.535 4.08 3 4m1-6v-4h-3c-.021 1.773.535 4.08 3 4m1-6v-4h-3c-.021 1.773.535 4.08 3 4m1-6v-4h-3c-.021 1.773.535 4.08 3 4m1-6v-4h-3c-.021 1.773.535 4.08 3 4m1-6v-4h-3c-.021 1.773.535 4.08 3 4m1-6v-4h-3c-.021 1.773.535 4.08 3 4m1-6v-4h-3c-.021 1.773.535 4.08 3 4m1-6v-4h-3c-.021 1.773.535 4.08 3 4m1-6v-4h-3c-.021 1.773.535 4.08 3 4m1-6v-4h-3c-.021 1.773.535 4.08 3 4m1-6v-4h-3c-.021 1.773.535 4.08 3 4m1-6v-4h-3c-.021 1.773.535 4.08 3 4m1-6v-4h-3c-.021 1.773.535 4.08 3 4m1-6v-4h-3c-.021 1.773.535 4.08 3 4m1-6v-4h-3c-.021 1.773.535 4.08 3 4m1-6v-4h-3c-.021 1.773.535 4.08 3 4m1-6v-4h-3c-.021 1.773.535 4.08 3 4m1-6v-4h-3c-.021 1.773.535 4.08 3 4m1-6v-4h-3c-.021 1.773.535 4.08 3 4m1-6v-4h-3c-.021 1.773.535 4.08 3 4m1-6v-4h-3c-.021 1.773.535 4.08 3 4m1-6v-4h-3c-.021 1.773.535 4.08 3 4m1-6v-4h-3c-.021 1.773.535 4.08 3 4m1-6v-4h-3c-.021 1.773.535 4.08 3 4m1-6v-4h-3c-.021 1.773.535 4.08 3 4m1-6v-4h-3c-.021 1.773.535 4.08 3 4m1-6v-4h-3c-.021 1.773.535 4.08 3 4m1-6v-4h-3c-.021 1.773.535 4.08 3 4m1-6v-4h-3c-.021 1.773.535 4.08 3 4m1-6v-4h-3c-.021 1.773.535 4.08 3 4m1-6v-4h-3c-.021 1.773.535 4.08 3 4m1-6v-4h-3c-.021 1.773.535 4.08 3 4m1-6v-4h-3c-.021 1.773.535 4.08 3 4m1-6v-4h-3c-.021 1.773.535 4.08 3 4m1-6v-4h-3c-.021 1.773.535 4.08 3 4m1-6v-4h-3c-.021 1.773.535 4.08 3 4m1-6v-4h-3c-.021 1.773.535 4.08 3 4m1-6v-4h-3c-.021 1.773.535 4.08 3 4m1-6v-4h-3c-.021 1.773.535 4.08 3 4m1-6v-4h-3c-.021 1.773.535 4.08 3 4m1-6v-4h-3c-.021 1.773.535 4.08 3 4m-2-8.5c.618 1.456 1.555 2.24 3 2.5-.745-5.19 3.384-7.082 7.177-7.564 116.532-38.812 233.028-77.715 349.557-116.507 87.32-29.133 174.646-58.224 261.967-87.324 16.482-5.533 33.005-10.98 49.48-16.505 7.665-2.544 15.308-5.112 22.96-7.651 3.468-.8 8.401-3.507 11.346-2.524 117.238 38.32 234.083 78.142 351.216 116.815 58.477 19.475 116.956 38.994 175.432 58.46a78363 78363 0 0 0 87.566 29.195c14.676 4.915 29.357 9.794 44.033 14.676 7.32 2.466 14.646 4.89 21.967 7.324 3.685 1.217 7.366 2.45 11.041 3.69 3.048.874 7.008 2.74 9.258 1.415-116.448-40.723-234.846-77.948-351.7-117.895-88.165-29.36-176.31-58.803-264.474-88.162-16.522-5.49-33.032-11.048-49.56-16.514-7.795-2.66-15.653-5.168-23.447-7.829-3.784-1.174-7.484-2.751-11.436-3.265-8.095.212-14.553 4.702-22.516 6.365-114.185 38.08-228.385 76.115-342.568 114.195-57.164 19.035-114.32 38.138-171.472 57.162-28.524 9.52-57.032 19.019-85.561 28.514-14.33 4.77-28.642 9.546-42.967 14.324-7.164 2.369-14.32 4.804-21.472 7.162-3.506 1.147-7.011 2.34-10.508 3.511-2.028.393-3.72 1.607-5.595 2.299-.676.475-1.007.887-1.04 1.424.008.739-.955.76-1.684 1.209zm1405 2.5c1.975.26 2.412-1.192 2.673-2.694L2204 567h-3zm1.5 6c.986-1.012 2.469-2.16 2.5-4h-3c.02 1.31-.161 2.939.5 4m1 6c.986-1.012 2.469-2.16 2.5-4h-3c.02 1.31-.161 2.939.5 4m1 6c.986-1.012 2.469-2.16 2.5-4h-3c.02 1.31-.161 2.939.5 4m1 6c.986-1.012 2.469-2.16 2.5-4h-3c.02 1.31-.161 2.939.5 4m1 6c.986-1.012 2.469-2.16 2.5-4h-3c.02 1.31-.161 2.939.5 4m1 6c.986-1.012 2.469-2.16 2.5-4h-3c.02 1.31-.161 2.939.5 4m1 6c.986-1.012 2.469-2.16 2.5-4h-3c.02 1.31-.161 2.939.5 4m1 6c.986-1.012 2.469-2.16 2.5-4h-3c.02 1.31-.161 2.939.5 4m1 6c.986-1.012 2.469-2.16 2.5-4h-3c.02 1.31-.161 2.939.5 4m1 6c.986-1.012 2.469-2.16 2.5-4h-3c.02 1.31-.161 2.939.5 4m1 6c.986-1.012 2.469-2.16 2.5-4h-3c.02 1.31-.161 2.939.5 4m1 6c.986-1.012 2.469-2.16 2.5-4h-3c.02 1.31-.161 2.939.5 4m1 6c.986-1.012 2.469-2.16 2.5-4h-3c.02 1.31-.161 2.939.5 4m1 6c.986-1.012 2.469-2.16 2.5-4h-3c.02 1.31-.161 2.939.5 4m1 6c.986-1.012 2.469-2.16 2.5-4h-3c.02 1.31-.161 2.939.5 4m1 6c.986-1.012 2.469-2.16 2.5-4h-3c.02 1.31-.161 2.939.5 4m1 6c.986-1.012 2.469-2.16 2.5-4h-3c.02 1.31-.161 2.939.5 4m1 6c.986-1.012 2.469-2.16 2.5-4h-3c.02 1.31-.161 2.939.5 4m1 6c.986-1.012 2.469-2.16 2.5-4h-3c.02 1.31-.161 2.939.5 4m1 6c.986-1.012 2.469-2.16 2.5-4h-3c.02 1.31-.161 2.939.5 4m1 6c.986-1.012 2.469-2.16 2.5-4h-3c.02 1.31-.161 2.939.5 4m1 6c.986-1.012 2.469-2.16 2.5-4h-3c.02 1.31-.161 2.939.5 4m1 6c.986-1.012 2.469-2.16 2.5-4h-3c.02 1.31-.161 2.939.5 4m1 6c.986-1.012 2.469-2.16 2.5-4h-3c.02 1.31-.161 2.939.5 4m1 6c.986-1.012 2.469-2.16 2.5-4h-3c.02 1.31-.161 2.939.5 4m1 6c.986-1.012 2.469-2.16 2.5-4h-3c.02 1.31-.161 2.939.5 4m1 6c.986-1.012 2.469-2.16 2.5-4h-3c.02 1.31-.161 2.939.5 4m1 6c.986-1.012 2.469-2.16 2.5-4h-3c.02 1.31-.161 2.939.5 4m1 6c.986-1.012 2.469-2.16 2.5-4h-3c.02 1.31-.161 2.939.5 4m1 6c.986-1.012 2.469-2.16 2.5-4h-3c.02 1.31-.161 2.939.5 4m1 6c.986-1.012 2.469-2.16 2.5-4h-3c.02 1.31-.161 2.939.5 4m1 6c.986-1.012 2.469-2.16 2.5-4h-3c.02 1.31-.161 2.939.5 4m1 6c.986-1.012 2.469-2.16 2.5-4h-3c.02 1.31-.161 2.939.5 4m1 6c.986-1.012 2.469-2.16 2.5-4h-3c.02 1.31-.161 2.939.5 4m1 6c.986-1.012 2.469-2.16 2.5-4h-3c.02 1.31-.161 2.939.5 4m1 6c.986-1.012 2.469-2.16 2.5-4h-3c.02 1.31-.161 2.939.5 4m1 6c.986-1.012 2.469-2.16 2.5-4h-3c.02 1.31-.161 2.939.5 4m1 6c.986-1.012 2.469-2.16 2.5-4h-3c.02 1.31-.161 2.939.5 4m1 6c.986-1.012 2.469-2.16 2.5-4h-3c.02 1.31-.161 2.939.5 4m1 6c.986-1.012 2.469-2.16 2.5-4h-3c.02 1.31-.161 2.939.5 4m1 6c.986-1.012 2.469-2.16 2.5-4h-3c.02 1.31-.161 2.939.5 4m1 6c.986-1.012 2.469-2.16 2.5-4h-3c.02 1.31-.161 2.939.5 4m1 6c.986-1.012 2.469-2.16 2.5-4h-3c.02 1.31-.161 2.939.5 4m1 6c.986-1.012 2.469-2.16 2.5-4h-3c.02 1.31-.161 2.939.5 4m1 6c.986-1.012 2.469-2.16 2.5-4h-3c.02 1.31-.161 2.939.5 4m1 6c.986-1.012 2.469-2.16 2.5-4h-3c.02 1.31-.161 2.939.5 4m1 6c.986-1.012 2.469-2.16 2.5-4h-3c.02 1.31-.161 2.939.5 4m1 6c.986-1.012 2.469-2.16 2.5-4h-3c.02 1.31-.161 2.939.5 4m1 6c.986-1.012 2.469-2.16 2.5-4h-3c.02 1.31-.161 2.939.5 4m.5 6c1.975.26 2.412-1.192 2.673-2.694L2254 867h-3zm1 6c1.975.26 2.412-1.192 2.673-2.694L2255 873h-3zm1 6c1.975.26 2.412-1.192 2.673-2.694L2256 879h-3zm1 6c1.975.26 2.412-1.192 2.673-2.694L2257 885h-3zm1 6c1.975.26 2.412-1.192 2.673-2.694L2258 891h-3zm1 6c1.975.26 2.412-1.192 2.673-2.694L2259 897h-3zm1 6c1.975.26 2.412-1.192 2.673-2.694L2260 903h-3zm1 6c1.975.26 2.412-1.192 2.673-2.694L2261 909h-3zm1 6c1.975.26 2.412-1.192 2.673-2.694L2262 915h-3zm1 6c1.975.26 2.412-1.192 2.673-2.694L2263 921h-3zm1 6c1.975.26 2.412-1.192 2.673-2.694L2264 927h-3zm1 6c1.975.26 2.412-1.192 2.673-2.694L2265 933h-3zm1 6c1.975.26 2.412-1.192 2.673-2.694L2266 939h-3zm1 6c1.975.26 2.412-1.192 2.673-2.694L2267 945h-3zm1 6c1.975.26 2.412-1.192 2.673-2.694L2268 951h-3zm1 6c1.975.26 2.412-1.192 2.673-2.694L2269 957h-3zm1 6c1.975.26 2.412-1.192 2.673-2.694L2270 963h-3zm1 6c1.975.26 2.412-1.192 2.673-2.694L2271 969h-3zm1 6c1.975.26 2.412-1.192 2.673-2.694L2272 975h-3zm1 6c1.975.26 2.412-1.192 2.673-2.694L2273 981h-3zm1 6c1.975.26 2.412-1.192 2.673-2.694L2274 987h-3zm1 6c1.975.26 2.412-1.192 2.673-2.694L2275 993h-3zm1 6c1.975.26 2.412-1.192 2.673-2.694L2276 999h-3zm1 6c1.975.26 2.412-1.192 2.673-2.694L2277 1005h-3zm1 6c1.975.26 2.412-1.192 2.673-2.694L2278 1011h-3zm1 6c1.975.26 2.412-1.192 2.673-2.694L2279 1017h-3zm1 6c1.975.26 2.412-1.192 2.673-2.694L2280 1023h-3zm1 6c1.975.26 2.412-1.192 2.673-2.694L2281 1029h-3zm1 6c1.975.26 2.412-1.192 2.673-2.694L2282 1035h-3zm1 6c1.975.26 2.412-1.192 2.673-2.694L2283 1041h-3zm1 6c1.975.26 2.412-1.192 2.673-2.694L2284 1047h-3zm1 6c1.975.26 2.412-1.192 2.673-2.694L2285 1053h-3zm1 6c1.975.26 2.412-1.192 2.673-2.694L2286 1059h-3zm1 6c1.975.26 2.412-1.192 2.673-2.694L2287 1065h-3zm1 6c1.975.26 2.412-1.192 2.673-2.694L2288 1071h-3zm1 6c1.975.26 2.412-1.192 2.673-2.694L2289 1077h-3zm1 6c1.975.26 2.412-1.192 2.673-2.694L2290 1083h-3zm1 6c1.975.26 2.412-1.192 2.673-2.694L2291 1089h-3zm1 6c1.975.26 2.412-1.192 2.673-2.694L2292 1095h-3zm1 6c1.975.26 2.412-1.192 2.673-2.694L2293 1101h-3zm1 6c1.975.26 2.412-1.192 2.673-2.694L2294 1107h-3zm1 6c1.975.26 2.412-1.192 2.673-2.694L2295 1113h-3zm1 6c1.975.26 2.412-1.192 2.673-2.694L2296 1119h-3zm1 6c1.975.26 2.412-1.192 2.673-2.694L2297 1125h-3zm1 6c1.975.26 2.412-1.192 2.673-2.694L2298 1131h-3zm1 6c1.975.26 2.412-1.192 2.673-2.694L2299 1137h-3zm1 6c1.975.26 2.412-1.192 2.673-2.694L2300 1143h-3zm1 6c1.975.26 2.412-1.192 2.673-2.694L2301 1149h-3zm1 6c1.975.26 2.412-1.192 2.673-2.694L2302 1155h-3zm1 6c1.975.26 2.412-1.192 2.673-2.694L2303 1161h-3zm1 6c1.975.26 2.412-1.192 2.673-2.694L2304 1167h-3zm1 6c1.975.26 2.412-1.192 2.673-2.694L2305 1173h-3zm1 6c1.975.26 2.412-1.192 2.673-2.694L2306 1179h-3zm1 6c1.975.26 2.412-1.192 2.673-2.694L2307 1185h-3zm1 6c1.975.26 2.412-1.192 2.673-2.694L2308 1191h-3zm1 6c1.975.26 2.412-1.192 2.673-2.694L2309 1197h-3zm1 6c1.975.26 2.412-1.192 2.673-2.694L2310 1203h-3zm1 6c1.975.26 2.412-1.192 2.673-2.694L2311 1209h-3zm1 6c1.975.26 2.412-1.192 2.673-2.694L2312 1215h-3zm1 6c1.975.26 2.412-1.192 2.673-2.694L2313 1221h-3zm1 6c1.975.26 2.412-1.192 2.673-2.694L2314 1227h-3zm1 6c1.975.26 2.412-1.192 2.673-2.694L2315 1233h-3zm1 6c1.975.26 2.412-1.192 2.673-2.694L2316 1239h-3zm1 6c1.975.26 2.412-1.192 2.673-2.694L2317 1245h-3zm1 6c1.975.26 2.412-1.192 2.673-2.694L2318 1251h-3zm1 6c1.975.26 2.412-1.192 2.673-2.694L2319 1257h-3zm1 6c1.975.26 2.412-1.192 2.673-2.694L2320 1263h-3zm1 6c1.975.26 2.412-1.192 2.673-2.694L2321 1269h-3zm1 6c1.975.26 2.412-1.192 2.673-2.694L2322 1275h-3zm1 6c1.975.26 2.412-1.192 2.673-2.694L2323 1281h-3zm1 6c1.975.26 2.412-1.192 2.673-2.694L2324 1287h-3zm1 6c1.975.26 2.412-1.192 2.673-2.694L2325 1293h-3zm1 6c1.975.26 2.412-1.192 2.673-2.694L2326 1299h-3zm1 6c1.975.26 2.412-1.192 2.673-2.694L2327 1305h-3zm1 6c1.975.26 2.412-1.192 2.673-2.694L2328 1311h-3zm1 6c1.975.26 2.412-1.192 2.673-2.694L2329 1317h-3zm1 6c1.975.26 2.412-1.192 2.673-2.694L2330 1323h-3zm1 6c1.975.26 2.412-1.192 2.673-2.694L2331 1329h-3zm1 6c1.975.26 2.412-1.192 2.673-2.694L2332 1335h-3zm1 6c1.975.26 2.412-1.192 2.673-2.694L2333 1341h-3zm1 6c1.975.26 2.412-1.192 2.673-2.694L2334 1347h-3zm1 6c1.975.26 2.412-1.192 2.673-2.694L2335 1353h-3zm1 6c1.975.26 2.412-1.192 2.673-2.694L2336 1359h-3zm1 6c1.975.26 2.412-1.192 2.673-2.694L2337 1365h-3zm1 6c1.975.26 2.412-1.192 2.673-2.694L2338 1371h-3zm1 6c1.975.26 2.412-1.192 2.673-2.694L2339 1377h-3zm1 6c1.975.26 2.412-1.192 2.673-2.694L2340 1383h-3zm1 6c1.975.26 2.412-1.192 2.673-2.694L2341 1389h-3zm1 6c1.975.26 2.412-1.192 2.673-2.694L2342 1395h-3zm1 6c1.975.26 2.412-1.192 2.673-2.694L2343 1401h-3zm1 6c1.975.26 2.412-1.192 2.673-2.694L2344 1407h-3zm1 6c1.975.26 2.412-1.192 2.673-2.694L2345 1413h-3zm1 6c1.975.26 2.412-1.192 2.673-2.694L2346 1419h-3zm1 6c1.975.26 2.412-1.192 2.673-2.694L2347 1425h-3zm1 6c1.975.26 2.412-1.192 2.673-2.694L2348 1431h-3zm1 6c1.975.26 2.412-1.192 2.673-2.694L2349 1437h-3zm1 6c1.975.26 2.412-1.192 2.673-2.694L2350 1443h-3zm1 6c1.975.26 2.412-1.192 2.673-2.694L2351 1449h-3zm1 6c1.975.26 2.412-1.192 2.673-2.694L2352 1455h-3zm1 6c1.975.26 2.412-1.192 2.673-2.694L2353 1461h-3zm1 6c1.975.26 2.412-1.192 2.673-2.694L2354 1467h-3zm1 6c1.975.26 2.412-1.192 2.673-2.694L2355 1473h-3zm1 6c1.975.26 2.412-1.192 2.673-2.694L2356 1479h-3zm1 6c1.975.26 2.412-1.192 2.673-2.694L2357 1485h-3zm1 6c1.975.26 2.412-1.192 2.673-2.694L2358 1491h-3zm1 6c1.975.26 2.412-1.192 2.673-2.694L2359 1497h-3zm1 6c1.975.26 2.412-1.192 2.673-2.694L2360 1503h-3zm1 6c1.975.26 2.412-1.192 2.673-2.694L2361 1509h-3zm1 6c1.975.26 2.412-1.192 2.673-2.694L2362 1515h-3zm1 6c1.975.26 2.412-1.192 2.673-2.694L2363 1521h-3zm1 6c1.975.26 2.412-1.192 2.673-2.694L2364 1527h-3zm1 6c1.975.26 2.412-1.192 2.673-2.694L2365 1533h-3zm1 6c1.975.26 2.412-1.192 2.673-2.694L2366 1539h-3zm1 6c1.975.26 2.412-1.192 2.673-2.694L2367 1545h-3zm1 6c1.975.26 2.412-1.192 2.673-2.694L2368 1551h-3zm1 6c1.975.26 2.412-1.192 2.673-2.694L2369 1557h-3zm1 6c1.975.26 2.412-1.192 2.673-2.694L2370 1563h-3zm1 6c1.975.26 2.412-1.192 2.673-2.694L2371 1569h-3zm1 6c1.975.26 2.412-1.192 2.673-2.694L2372 1575h-3zm1 6c1.975.26 2.412-1.192 2.673-2.694L2373 1581h-3zm1 6c1.975.26 2.412-1.192 2.673-2.694L2374 1587h-3zm1 6c1.975.26 2.412-1.192 2.673-2.694L2375 1593h-3zm1 6c1.975.26 2.412-1.192 2.673-2.694L2376 1599h-3zm1 6c1.975.26 2.412-1.192 2.673-2.694L2377 1605h-3zm1 6c1.975.26 2.412-1.192 2.673-2.694L2378 1611h-3zm1 6c1.975.26 2.412-1.192 2.673-2.694L2379 1617h-3zm1 6c1.975.26 2.412-1.192 2.673-2.694L2380 1623h-3zm1 6c1.975.26 2.412-1.192 2.673-2.694L2381 1629h-3zm1 6c1.975.26 2.412-1.192 2.673-2.694L2382 1635h-3zm1 6c1.975.26 2.412-1.192 2.673-2.694L2383 1641h-3zm1 6c1.975.26 2.412-1.192 2.673-2.694L2384 1647h-3zm1 6c1.975.26 2.412-1.192 2.673-2.694L2385 1653h-3zm1 6c1.975.26 2.412-1.192 2.673-2.694L2386 1659h-3zm1 6c1.975.26 2.412-1.192 2.673-2.694L2387 1665h-3zm1 6c1.975.26 2.412-1.192 2.673-2.694L2388 1671h-3zm1 6c1.975.26 2.412-1.192 2.673-2.694L2389 1677h-3zm1 6c1.975.26 2.412-1.192 2.673-2.694L2390 1683h-3zm1 6c1.975.26 2.412-1.192 2.673-2.694L2391 1689h-3zm1 6c1.975.26 2.412-1.192 2.673-2.694L2392 1695h-3zm1 6c1.975.26 2.412-1.192 2.673-2.694L2393 1701h-3zm1 6c1.975.26 2.412-1.192 2.673-2.694L2394 1707h-3zm1 6c1.975.26 2.412-1.192 2.673-2.694L2395 1713h-3zm1 6c1.975.26 2.412-1.192 2.673-2.694L2396 1719h-3zm1 6c1.975.26 2.412-1.192 2.673-2.694L2397 1725h-3zm1 6c1.975.26 2.412-1.192 2.673-2.694L2398 1731h-3zm1 6c1.975.26 2.412-1.192 2.673-2.694L2399 1737h-3zm1 6c1.975.26 2.412-1.192 2.673-2.694L2400 1743h-3zm1 6c1.975.26 2.412-1.192 2.673-2.694L2401 1749h-3zm1 6c1.975.26 2.412-1.192 2.673-2.694L2402 1755h-3zm1 6c1.975.26 2.412-1.192 2.673-2.694L2403 1761h-3zm1 6c1.975.26 2.412-1.192 2.673-2.694L2404 1767h-3zm1 6c1.975.26 2.412-1.192 2.673-2.694L2405 1773h-3zm1 6c1.975.26 2.412-1.192 2.673-2.694L2406 1779h-3zm1 6c1.975.26 2.412-1.192 2.673-2.694L2407 1785h-3zm1 6c1.975.26 2.412-1.192 2.673-2.694L2408 1791h-3zm1 6c1.975.26 2.412-1.192 2.673-2.694L2409 1797h-3zm1 6c1.975.26 2.412-1.192 2.673-2.694L2410 1803h-3zm1 6c1.975.26 2.412-1.192 2.673-2.694L2411 1809h-3zm1 6c1.975.26 2.412-1.192 2.673-2.694L2412 1815h-3zm1 6c1.975.26 2.412-1.192 2.673-2.694L2413 1821h-3zm1 6c1.975.26 2.412-1.192 2.673-2.694L2414 1827h-3zm1 6c1.975.26 2.412-1.192 2.673-2.694L2415 1833h-3zm1 6c1.975.26 2.412-1.192 2.673-2.694L2416 1839h-3zm1 6c1.975.26 2.412-1.192 2.673-2.694L2417 1845h-3zm1 6c1.975.26 2.412-1.192 2.673-2.694L2418 1851h-3zm1 6c1.975.26 2.412-1.192 2.673-2.694L2419 1857h-3zm1 6c1.975.26 2.412-1.192 2.673-2.694L2420 1863h-3zm1 6c1.975.26 2.412-1.192 2.673-2.694L2421 1869h-3zm1 6c1.975.26 2.412-1.192 2.673-2.694L2422 1875h-3zm1 6c1.975.26 2.412-1.192 2.673-2.694L2423 1881h-3zm1 6c1.975.26 2.412-1.192 2.673-2.694L2424 1887h-3zm1 6c1.975.26 2.412-1.192 2.673-2.694L2425 1893h-3zm1 6c1.975.26 2.412-1.192 2.673-2.694L2426 1899h-3zm1 6c1.975.26 2.412-1.192 2.673-2.694L2427 1905h-3zm1 6c1.975.26 2.412-1.192 2.673-2.694L2428 1911h-3zm1 6c1.975.26 2.412-1.192 2.673-2.694L2429 1917h-3zm1 6c1.975.26 2.412-1.192 2.673-2.694L2430 1923h-3zm1 6c1.975.26 2.412-1.192 2.673-2.694L2431 1929h-3zm1 6c1.975.26 2.412-1.192 2.673-2.694L2432 1935h-3zm1 6c1.975.26 2.412-1.192 2.673-2.694L2433 1941h-3zm1 6c1.975.26 2.412-1.192 2.673-2.694L2434 1947h-3zm1 6c1.975.26 2.412-1.192 2.673-2.694L2435 1953h-3zm1 6c1.975.26 2.412-1.192 2.673-2.694L2436 1959h-3zm1 6c1.975.26 2.412-1.192 2.673-2.694L2437 1965h-3zm1 6c1.975.26 2.412-1.192 2.673-2.694L2438 1971h-3zm1 6c1.975.26 2.412-1.192 2.673-2.694L2439 1977h-3zm1 6c1.975.26 2.412-1.192 2.673-2.694L2440 1983h-3zm1 6c1.975.26 2.412-1.192 2.673-2.694L2441 1989h-3zm1 6c1.975.26 2.412-1.192 2.673-2.694L2442 1995h-3zm1 6c1.975.26 2.412-1.192 2.673-2.694L2443 2001h-3zm1 6c1.975.26 2.412-1.192 2.673-2.694L2444 2007h-3zm1 6c1.975.26 2.412-1.192 2.673-2.694L2445 2013h-3zm1 6c1.975.26 2.412-1.192 2.673-2.694L2446 2019h-3zm1 6c1.975.26 2.412-1.192 2.673-2.694L2447 2025h-3zm1 6c1.975.26 2.412-1.192 2.673-2.694L2448 2031h-3zm1 6c1.975.26 2.412-1.192 2.673-2.694L2449 2037h-3zm1 6c1.975.26 2.412-1.192 2.673-2.694L2450 2043h-3zm1 6c1.975.26 2.412-1.192 2.673-2.694L2451 2049h-3zm1 6c1.975.26 2.412-1.192 2.673-2.694L2452 2055h-3zm1 6c1.975.26 2.412-1.192 2.673-2.694L2453 2061h-3zm1 6c1.975.26 2.412-1.192 2.673-2.694L2454 2067h-3zm1 6c1.975.26 2.412-1.192 2.673-2.694L2455 2073h-3zm1 6c1.975.26 2.412-1.192 2.673-2.694L2456 2079h-3zm1 6c1.975.26 2.412-1.192 2.673-2.694L2457 2085h-3zm1 6c1.975.26 2.412-1.192 2.673-2.694L2458 2091h-3zm1 6c1.975.26 2.412-1.192 2.673-2.694L2459 2097h-3zm1 6c1.975.26 2.412-1.192 2.673-2.694L2460 2103h-3zm1 6c1.975.26 2.412-1.192 2.673-2.694L2461 2109h-3zm1 6c1.975.26 2.412-1.192 2.673-2.694L2462 2115h-3zm1 6c1.975.26 2.412-1.192 2.673-2.694L2463 2121h-3zm1 6c1.975.26 2.412-1.192 2.673-2.694L2464 2127h-3zm1 6c1.975.26 2.412-1.192 2.673-2.694L2465 2133h-3zm1 6c1.975.26 2.412-1.192 2.673-2.694L2466 2139h-3zm1 6c1.975.26 2.412-1.192 2.673-2.694L2467 2145h-3zm1 6c1.975.26 2.412-1.192 2.673-2.694L2468 2151h-3zm1 6c1.975.26 2.412-1.192 2.673-2.694L2469 2157h-3zm1 6c1.975.26 2.412-1.192 2.673-2.694L2470 2163h-3zm1 6c1.975.26 2.412-1.192 2.673-2.694L2471 2169h-3zm1 6c1.975.26 2.412-1.192 2.673-2.694L2472 2175h-3zm1 6c1.975.26 2.412-1.192 2.673-2.694L2473 2181h-3zm1 6c1.975.26 2.412-1.192 2.673-2.694L2474 2187h-3zm1 6c1.975.26 2.412-1.192 2.673-2.694L2475 2193h-3zm1 6c1.975.26 2.412-1.192 2.673-2.694L2476 2199h-3zm1 6c1.975.26 2.412-1.192 2.673-2.694L2477 2205h-3zm1 6c1.975.26 2.412-1.192 2.673-2.694L2478 2211h-3zm1 6c1.975.26 2.412-1.192 2.673-2.694L2479 2217h-3zm1 6c1.975.26 2.412-1.192 2.673-2.694L2480 2223h-3zm1 6c1.975.26 2.412-1.192 2.673-2.694L2481 2229h-3zm1 6c1.975.26 2.412-1.192 2.673-2.694L2482 2235h-3zm1 6c1.975.26 2.412-1.192 2.673-2.694L2483 2241h-3zm1 6c1.975.26 2.412-1.192 2.673-2.694L2484 2247h-3zm1 6c1.975.26 2.412-1.192 2.673-2.694L2485 2253h-3zm1 6c1.975.26 2.412-1.192 2.673-2.694L2486 2259h-3zm1 6c1.975.26 2.412-1.192 2.673-2.694L2487 2265h-3zm1 6c1.975.26 2.412-1.192 2.673-2.694L2488 2271h-3zm1 6c1.975.26 2.412-1.192 2.673-2.694L2489 2277h-3zm1 6c1.975.26 2.412-1.192 2.673-2.694L2490 2283h-3zm1 6c1.975.26 2.412-1.192 2.673-2.694L2491 2289h-3zm1 6c1.975.26 2.412-1.192 2.673-2.694L2492 2295h-3zm1 6c1.975.26 2.412-1.192 2.673-2.694L2493 2301h-3zm1 6c1.975.26 2.412-1.192 2.673-2.694L2494 2307h-3zm1 6c1.975.26 2.412-1.192 2.673-2.694L2495 2313h-3zm1 6c1.975.26 2.412-1.192 2.673-2.694L2496 2319h-3zm1 6c1.975.26 2.412-1.192 2.673-2.694L2497 2325h-3zm1 6c1.975.26 2.412-1.192 2.673-2.694L2498 2331h-3zm1 6c1.975.26 2.412-1.192 2.673-2.694L2499 2337h-3zm1 6c1.975.26 2.412-1.192 2.673-2.694L2500 2343h-3zm1 6c1.975.26 2.412-1.192 2.673-2.694L2501 2349h-3zm1 6c1.975.26 2.412-1.192 2.673-2.694L2502 2355h-3zm1 6c1.975.26 2.412-1.192 2.673-2.694L2503 2361h-3zm1 6c1.975.26 2.412-1.192 2.673-2.694L2504 2367h-3zm1 6c1.975.26 2.412-1.192 2.673-2.694L2505 2373h-3zm1 6c1.975.26 2.412-1.192 2.673-2.694L2506 2379h-3zm1 6c1.975.26 2.412-1.192 2.673-2.694L2507 2385h-3zm1 6c1.975.26 2.412-1.192 2.673-2.694L2508 2391h-3zm1 6c1.975.26 2.412-1.192 2.673-2.694L2509 2397h-3zm1 6c1.975.26 2.412-1.192 2.673-2.694L2510 2403h-3zm1 6c1.975.26 2.412-1.192 2.673-2.694L2511 2409h-3zm1 6c1.975.26 2.412-1.192 2.673-2.694L2512 2415h-3zm1 6c1.975.26 2.412-1.192 2.673-2.694L2513 2421h-3zm1 6c1.975.26 2.412-1.192 2.673-2.694L2514 2427h-3zm1 6c1.975.26 2.412-1.192 2.673-2.694L2515 2433h-3zm1 6c1.975.26 2.412-1.192 2.673-2.694L2516 2439h-3zm1 6c1.975.26 2.412-1.192 2.673-2.694L2517 2445h-3zm1 6c1.975.26 2.412-1.192 2.673-2.694L2518 2451h-3zm1 6c1.975.26 2.412-1.192 2.673-2.694L2519 2457h-3zm1 6c1.975.26 2.412-1.192 2.673-2.694L2520 2463h-3zm1 6c1.975.26 2.412-1.192 2.673-2.694L2521 2469h-3zm1 6c1.975.26 2.412-1.192 2.673-2.694L2522 2475h-3zm1 6c1.975.26 2.412-1.192 2.673-2.694L2523 2481h-3zm1 6c1.975.26 2.412-1.192 2.673-2.694L2524 2487h-3zm1 6c1.975.26 2.412-1.192 2.673-2.694L2525 2493h-3zm1 6c1.975.26 2.412-1.192 2.673-2.694L2526 2499h-3zm1 6c1.975.26 2.412-1.192 2.673-2.694L2527 2505h-3zm1 6c1.975.26 2.412-1.192 2.673-2.694L2528 2511h-3zm1 6c1.975.26 2.412-1.192 2.673-2.694L2529 2517h-3zm1 6c1.975.26 2.412-1.192 2.673-2.694L2530 2523h-3zm1 6c1.975.26 2.412-1.192 2.673-2.694L2531 2529h-3zm1 6c1.975.26 2.412-1.192 2.673-2.694L2532 2535h-3zm1 6c1.975.26 2.412-1.192 2.673-2.694L2533 2541h-3zm1 6c1.975.26 2.412-1.192 2.673-2.694L2534 2547h-3zm1 6c1.975.26 2.412-1.192 2.673-2.694L2535 2553h-3zm1 6c1.975.26 2.412-1.192 2.673-2.694L2536 2559h-3zm1 6c1.975.26 2.412-1.192 2.673-2.694L2537 2565h-3zm1 6c1.975.26 2.412-1.192 2.673-2.694L2538 2571h-3zm1 6c1.975.26 2.412-1.192 2.673-2.694L2539 2577h-3zm1 6c1.975.26 2.412-1.192 2.673-2.694L2540 2583h-3zm1 6c1.975.26 2.412-1.192 2.673-2.694L2541 2589h-3zm1 6c1.975.26 2.412-1.192 2.673-2.694L2542 2595h-3zm1 6c1.975.26 2.412-1.192 2.673-2.694L2543 2601h-3zm1 6c1.975.26 2.412-1.192 2.673-2.694L2544 2607h-3zm1 6c1.975.26 2.412-1.192 2.673-2.694L2545 2613h-3zm1 6c1.975.26 2.412-1.192 2.673-2.694L2546 2619h-3zm1 6c1.975.26 2.412-1.192 2.673-2.694L2547 2625h-3zm1 6c1.975.26 2.412-1.192 2.673-2.694L2548 2631h-3zm1 6c1.975.26 2.412-1.192 2.673-2.694L2549 2637h-3zm1 6c1.975.26 2.412-1.192 2.673-2.694L2550 2643h-3zm1 6c1.975.26 2.412-1.192 2.673-2.694L2551 2649h-3zm1 6c1.975.26 2.412-1.192 2.673-2.694L2552 2655h-3zm1 6c1.975.26 2.412-1.192 2.673-2.694L2553 2661h-3z" style="fill:gray;fill-rule:evenodd;stroke:none"/><path d="m1330 2473.5.5 1.5c1.91-3.222 7.737-1.366 11.741-2.026L1542 2472.5l-106.8-.253-54-.129c-9.013-.02-17.986-.042-27-.064l-13.2-.03c-3.384.692-9.445-1.141-11 1.476" style="fill:#b2b2aa;fill-rule:evenodd;stroke:none"/><path d="M1539 1653.313c.338.746 1.505.485 2.06.366l.94-.179c-.997-.171-1.99-.414-3-.5z" style="fill:#c4c4ba;fill-rule:evenodd;stroke:none"/></svg>