<svg xmlns="http://www.w3.org/2000/svg" width="3000" height="3000"><path d="M406 2716h2188c-.452-13.213-4.171-26.125-5.71-39.208C2468.846 1960.196 2349.431 1243.585 2230 527c-109.325-35.987-218.457-72.878-327.734-109.071-95.467-31.86-190.966-63.65-286.44-95.486-21.006-7.01-42.008-13.98-63-21l-30.529-10.183c-9.47-3.025-21.252-8.92-30.35-5.086-156.884 52.344-313.79 104.58-470.681 156.897-58.813 19.64-117.642 39.186-176.447 58.829-13.016 4.296-26.007 8.68-39 13-6.335 2.066-12.631 4.23-18.954 6.3-3.19 1.104-6.385 2.128-9.576 3.212-7.976 1.527-8.94 7.943-9.29 14.656-63.894 383.21-127.754 766.408-191.617 1149.624-28.466 171.167-57.103 342.324-85.568 513.49-14.29 85.674-28.582 171.345-42.844 257.017-7.145 42.829-14.299 85.67-21.418 128.502-3.57 21.335-7.128 42.665-10.66 64.002-1.808 10.66-3.57 21.336-5.34 31.998-1.36 10.463-4.53 22.595-4.552 32.299m1017-337v184c21.738.072 43.67 1.024 65.09-3.288 15.016-3.669 30.203-7.214 44.422-13.438 9.794-4.765 22.214-9.561 29.842-16.184 6.883-6.01 3.953-18.212 4.646-26.087V2379h351.6c14.54-.175 34.486.319 39.4-14.547-44.727-36.582-91.473-70.602-137.5-105.453-15.154 17.326-28.724 36.042-43.586 53.61-11.053 12.983-21.139 26.88-32.35 39.695-2.006 2.284-6.364.472-9.708.764-55.946-.196-111.913.035-167.856-.069v-119h137v36c41.305 1.435 82.833-6.13 120.164-24.432 7.813-3.822 20.297-8.625 20.785-17.193.146-33.189-.027-66.381.051-99.556V1947c13.29-3.006 28.954-7.29 37-19.5-20.433-16.626-42.075-31.766-62.55-48.342-21.506-14.914-41.232-32.98-63.122-47.158-11.96 12.179-23.098 25.111-34.564 37.733-9.527 8.556-16.522 19.722-26.394 27.872-3.736 2.62-10.576.63-15.58 1.395H1567v-101h279.6c15.573-.122 31.12.151 46.688-.088 12.193-1.09 29 1.412 36.712-14.412-44.118-36.422-90.543-70.227-137-103.5-13.77 15.645-26.17 32.744-39.816 48.556-9.77 12.23-19.796 24.248-29.597 36.452-1.707 2.383-3.621 4.57-6.04 6.24-12.428 1.943-25.5-.188-38.055.752H1567v-86c7.844-.261 16.907-2.999 23.015-6.727 7.986-4.412 9.915-11.628 12.985-18.773-59.906-5.54-120.086-11.482-180-17.5v129h-347v1.5c2.548 8.106 4.85 16.287 7 24.5h340v101h-105c-7.75-.309-17.254.907-24.012-1.796-47.01-18.343-94.635-35.575-141.488-54.204-1.426 153.538.26 307.402-.5 461 30.09 1.026 60.238-2.38 88.629-12.736 13.116-4.609 25.774-10.355 37.5-17.857 5.903-3.53 12.338-8.674 12.762-16.14.292-7.752-.037-15.516.109-23.267h132v119h-380c1.424 7.124 4.574 16.149 6.466 23.832 1.913 3.732 9.517 1.252 12.518 2.168H1423m-322-792c20.54.167 41.083-.596 61.33-4.03 26.219-6.053 57.8-15.258 77.824-30.491 7.673-4.717 5.786-14.21 5.846-21.176V1460h503v114c22.114-.248 44.545.133 66.35-4.084 15.534-3.771 31.119-7.563 45.887-13.816 10.118-4.644 22.376-10.23 30.119-17.007 7.25-5.803 5.333-17.85 5.644-25.953V942c13.699-2.618 32.058-6.03 35-26-60.543-6.506-122.103-10.02-182.5-17-1.426 178.538.26 357.402-.5 536h-180V734c10.122-2.295 21.799-3.67 29.14-12.023 2.403-4.007 7.546-9.878 4.522-14.108-5.456-1.31-11.359-1.026-16.936-1.805-8.16-.635-16.287-1.615-24.457-2.13-16.975-1.704-34.005-2.781-50.967-4.504-29.4-3.521-59.577-4.763-88.802-8.43-1.426 247.872.26 496.062-.5 744h-175V945c7.75-1.935 15.986-3.142 23.021-7.218 7.904-4.36 10.181-11.021 12.979-18.282-7.307-2.799-15.779-1.045-23.358-2.794-52.482-5.354-105.243-9.03-157.642-14.706zm190 464h132v-126h-132zm0 157h132v-132h-132zm276-157h137v-126h-137zm0 157h137v-132h-137z" style="fill:#fda;fill-rule:evenodd;stroke:none"/><path d="M291 2812.5c402.66 1.426 806.125-.26 1208.95.5 402.946-.76 806.184.926 1209.05-.5-66.691-393.12-131.048-787.321-197.186-1180.681C2447.104 1239.148 2380.056 846.747 2316 454c-136.143-44.935-272.089-90.768-408.181-135.9-102.008-33.974-204.008-68.03-306-102-19.182-6.399-38.38-12.77-57.553-19.171-8.997-3.033-18.01-5.99-27-9-7.928-3.04-16.863-7.25-26.38-2.738-134.51 44.908-269.079 89.643-403.589 134.55C952.797 364.27 818.541 409.675 684 454c-64.117 393.376-131.371 786.397-196.109 1179.703C421.811 2026.161 357.548 2420.573 291 2812.5m116-97.5h2186c-120.11-729.14-243.257-1457.94-364-2187-109.157-35.927-218.092-72.748-327.181-108.9-95.331-31.722-190.626-63.585-285.954-95.3q-31.498-10.534-63-21l-30.566-10.195c-9.852-3-21.422-9.034-30-5.21-156.482 52.2-313.005 104.314-469.48 156.505-58.858 19.6-117.69 39.211-176.522 58.84-12.832 4.262-25.65 8.528-38.47 12.817-6.336 2.128-12.684 4.227-19.008 6.343-5.33 2.846-14.097 3.151-17.405 7.24-66.013 385.799-128.474 772.546-193.688 1158.548C521.372 2030.17 462.67 2372.459 407 2715" style="fill:gray;fill-rule:evenodd;stroke:none"/><path d="M1048 2377.5c.84 2.64 4.64 2.332 6.9 2.49 122.37.029 244.738-.005 367.1.01v184h2v-186h-330c-14.806-.997-32.549 1.33-46-1zm26-605.75c.263.9.826 1.619 1.5 2.25 2.768-1.591 7.235-.646 10.85-1H1424v-129h-2v127h-348zm217 153.75.5 1.5c4.158-2.043 10.821-.288 16.077-1H1422v124h-114.6c-5.231-.67-11.784 1.002-15.9-1-.384.972-.51 1.963-.5 3h133v-128h-133zm0 309 .5 1.5c4.158-2.043 10.821-.288 16.077-1H1422v90c-.487 9.343.82 20.558-1 29h3v-121h-133zm276-309 .5 1.5c4.323-2.084 11.212-.248 16.677-1H1703v124h-119.4c-5.284-.69-11.937 1.022-16.1-1-.384.972-.51 1.963-.5 3h138v-128h-138zm0 309 .5 1.5c4.323-2.084 11.212-.249 16.677-1H1703v36h25v-2h-23v-36h-138z" style="fill:#40372b;fill-rule:evenodd;stroke:none"/><path d="M1100 1588h27v-2h-25V901h-2z" style="fill:#7f6e55;fill-rule:evenodd;stroke:none"/><path d="M1041 2352.5c1.353 4.731 3.31 9.289 4.339 14.144 1.034 3.536 1.657 7.195 3.284 10.529 1.285 2.432 6.105 1.36 8.167 1.827H1423v185c21.92.075 44.022.988 65.645-3.188 15.008-3.568 30.108-7.24 44.35-13.302 9.922-4.927 22.625-9.637 30.359-16.42 6.883-6.01 3.953-18.212 4.646-26.087V2380h352.8c13.247.09 32.387.434 39.2-15.5-38.474-31.735-78.512-61.631-118.461-91.464-5.163-3.871-10.453-7.56-15.573-11.47-1.716-1.139-5.409-4.09-6.937-2.499-7.648 6.72-12.654 16.099-19.655 23.449-18.911 23.45-37.848 46.941-56.624 70.484-14.336-2.459-29.238.126-43.69-1H1568v-118h136v36c21.188.366 42.668 1.73 63.438-3.985 14.916-3.001 29.231-8.221 43.533-13.225 9.999-4.4 20.333-8.365 29.445-14.459 8.005-4.835 5.023-17.407 5.584-25.147V1948c14.928-2.372 29.006-8.85 39-20.5-42.61-32.94-86.053-65.288-128.5-98.5-10.22 13.38-23.599 24.47-33.932 37.848-9.135 9.018-16.937 19.273-26.163 28.182-3.672 3.905-10.416 2.89-15.223 2.97H1568v-99h286.8c12.003-.02 24.033.024 36.035-.013 9.567-.587 21.56-.097 29.732-3.895 3.574-1.792 6.594-4.558 8.973-7.712 3.171-6.893-8.43-12.035-12.17-16.106-40.374-32.6-82.768-63.112-124.87-93.274-13.075 15.92-25.9 32.051-38.972 47.976-9.956 12.08-19.77 24.275-29.63 36.428-1.844 2.151-3.738 4.92-5.73 6.61-4.261 3.381-12.2 1.252-18.142 1.986H1568v-84c15.117-1.056 33.744-7.22 36-28-60.797-3.988-121.281-12.119-182-17 1.73 10.821.604 21.892 1 32.782V1772h-348c1.074 9.243 5.401 17.851 7 27h340v99h-105.6c-8.126.266-16.422.622-24.007-2.717-46.748-18.54-94.41-35.218-140.893-54.283-1.426 154.538.26 309.402-.5 464 30.756 1.102 61.604-2.093 90.629-12.736 13.272-4.636 26.063-10.5 37.902-18.099 5.265-3.363 12.203-8.269 12.4-16.491.192-7.896-.031-15.786.069-23.674h131c-.76 39.607.926 79.478-.5 119-2.892-1.633-7.555-.609-11.295-1H1041zm59-1451.335c2.207 5.6.126 14.328 1 21.318V1587c20.684.385 41.364.776 61.827-2.93 26.388-6.018 58.178-15.272 78.327-30.591 7.673-4.717 5.786-14.21 5.846-21.176V1461h501v114c22.454-.103 45.114.08 67.285-3.847 15.747-3.701 31.472-7.614 46.446-13.849 10.284-4.674 22.756-10.35 30.625-17.211 7.375-5.953 5.27-18.295 5.644-26.553V943c13.886-2.623 33.953-6.794 35-28-61.52-6.33-123.482-10.523-185-17v536h-178V735c8.026-1.767 16.577-2.769 23.673-7.375 8.487-4.715 9.832-12.464 12.327-20.125-7.463-2.841-16.158-1.037-23.896-2.868-54.038-4.816-108.139-9.315-162.104-14.632v744h-173V946c7.83-1.906 17.537-3.561 23.852-7.765 6.835-4.566 11.294-12.049 12.148-20.235-60.9-6.03-122.095-10.815-183-17zM1292 2051h131v-126h-131zm0 156h130v-130h-130zm276-156h136v-126h-136zm0 156h135v-130h-135z" style="fill:#000;fill-rule:evenodd;stroke:none"/></svg>