<svg xmlns="http://www.w3.org/2000/svg" width="3000" height="3000"><path d="M364 2760.5v1.5h2272v-1.5c-68.931-409.09-136.257-818.54-204.874-1227.691-51.076-306.848-102.33-613.661-153.4-920.497-4.868-28.824-9.564-57.688-14.431-86.508-1.116-7.008-2.365-13.985-3.488-20.978-1.2-6.774-.246-15.245-9.425-16.859-109.868-36.632-219.702-73.24-329.563-109.867-95.996-32.013-192.02-63.992-288-96-41.993-13.978-83.98-28.011-125.966-41.994-5.663-2.605-10.407-1.693-15.513.621-156.173 52.06-312.354 104.114-468.521 156.173-58.68 19.531-117.334 39.097-175.992 58.657-25.668 8.506-51.298 17.139-76.962 25.643-6.176 2.075-12.369 4.11-18.537 6.195-3.02 1.124-6.483 1.813-8.8 4.255-62.934 375.423-125.132 751.075-187.889 1126.544C490.857 1998.664 428.048 2380.37 364 2760.5m649-1639.75c1.167 2.88 4.004 6.217 5.5 8.25 41.567-17.7 83.968-34.255 123.49-56.438 19.835-9.68 38.98-20.555 58.013-31.69 9.415-5.483 18.787-11 28.012-16.792 4.738-2.798 9.227-5.998 14.06-8.62 4.51-2.047 9.8-6.856 13.925-7.46 1.395 7.623 3.99 15.083 6.363 22.436 1.23 3.938 8.69 1.855 11.406 2.564H1410v146h-317c1.626 7.701 3.976 15.393 6.189 22.935 1.02 4.533 9.205 2.42 12.193 3.065H1410v325h-369c1.626 8.861 6.127 18.764 7 27h870c17.577-.732 40.465 2.072 48-14.5-44.932-42.665-97.128-76.802-144.5-116.5-14.685 18.741-29.208 37.65-43.659 56.573-11.005 14.265-22.078 28.464-32.904 42.86-4.194 6.48-14.336 4.171-20.894 4.567H1561v-325h321c11.613.59 28.07-.137 35-14.5-43.22-36.045-87.375-71.49-131.5-106.5-13.657 15.704-24.884 33.466-38.14 49.517-9.422 12.576-19.117 24.93-28.594 37.451-1.813 2.44-3.54 4.995-5.865 6.97-5.208 2.03-13.03.447-18.556 1.062H1561v-146h92.4c15.622-.017 31.229.02 46.84-.011 12.428-.82 28.813.988 36.76-14.489-38.04-34.97-80.93-64.398-120.5-97.5-18.449 23.357-36.719 46.922-55.261 70.212-3.631 4.099-6.924 9.79-10.705 13.146-1.852 1.938-5.67 1.485-8.63 1.642H1260v-3c56.451-35.088 108.275-78.284 157.895-122.395 24.88-23.703 49.68-47.529 71.85-73.836 11.337-12.483 21.56-26.043 31.925-39.317 4.915-6.895 10.34-13.402 15.006-20.47 2.334-3.416 4.54-6.925 6.898-10.317 2.35-3.265 4.693-8.243 8.426-8.665 24.878 79.554 69.475 153.052 127.968 212.477 55.956 60.614 126.4 105.46 196.532 147.523 6.777-32.731 20.484-63.967 40.294-90.977 19.579-25.847 45.61-49.516 78.206-57.023-.142-5.032.252-10.029 1-15-82.036-15.828-162.917-39.306-240.286-70.909-36.865-14.971-71.981-33.86-104.885-56.195-16.14-11.518-32.402-23.157-46.562-37.129-7.056-7.401-14.702-14.249-21.534-21.857-3.216-3.87-6.628-7.585-9.758-11.522-2.838-3.599-7.58-8.412-7.975-12.388 10.688-.443 21.234-2.734 31.596-5.166 9.278-2.396 18.834-7.722 22.404-17.209-3.207-2.59-9.227-2.582-13.697-4.295-67.108-18.049-134.437-35.36-201.545-53.33-3.437 4.27-3.474 12.473-6.116 18.285-16.269 49.187-40.834 95.235-68.926 138.635-40.913 64.251-89.929 123.103-142.318 178.182-27.545 27.448-54.405 55.592-84.09 80.822-28.367 24.497-58.089 48.495-89.308 69.076zm3 1039.75c2.015 8.968 6.176 17.494 8 26.5h47c-1.25 70.786.399 141.735-5.422 212.324-3.517 33.648-6.86 67.535-15.267 100.4-7.106 31.288-19.522 61.062-33.311 89.861 4.007 3.337 6.991 7.63 10.5 11.415 30.934-21.894 59.992-47.13 82.697-77.756 34.503-45.664 54.54-100.524 67.026-155.86 5.799-29.178 9.633-58.733 12.568-88.335 2.534-30.633 5.724-61.281 6.209-92.049h33v418c19.8.197 39.741.331 59.15-4.13 13.439-3.652 26.684-8.318 39.157-14.534 9.323-4.59 18.798-9.211 26.745-16.049 2.755-2.624 6.19-5.692 7.995-8.713 3.308-6.931 1.25-15.154 1.953-22.52V2119h3c.349 1.805 1.62 3.206 2 5 118.412-20.9 236.843-53.83 341.17-115.428 49.943-29.44 96.702-64.152 139.569-103.153 21.635-20.374 42.333-41.74 61.549-64.375 4.66-5.61 9.092-11.404 13.706-17.041 4.113-3.51 6.163-10.255 10.727-11.644 15.753-2.75 37.037-3.339 46.279-15.359-41.999-34.642-84.863-69.217-127.5-103l-35.975 35.975c-9.052 8.958-17.933 18.047-27.017 26.955-3.393 3.859-9.771 3.094-14.361 3.07H1665c.407-4.581 6.331-7.113 8.87-10.37 11.992-11.061 24.48-21.55 35.583-33.579 5.914-6.457 17.578-2.839 25.175-4.52 7.419-.76 16.436-3.87 18.372-11.531-60.341-15.948-119.73-35.704-180-52-20.313 51.637-51.278 98.48-84.64 142.517-17.184 22.357-35.23 44.124-54.626 64.573-9.394 10.376-21.222 22.045-30.695 30.687-10.696 8.785-20.14 20.132-32.039 27.223v1.5c5.207 7.11 13.688 2.043 20.173-.057 13.14-4.361 26.06-9.299 38.883-14.479 11.077-5.822 17.9 7.465 23.127 14.79 17.988 25.925 27.914 56.687 27.817 88.246 10.24 5.38 20.157 12.918 32.18 14.486 12.638 3.57 24.979-1.058 36.82-4.486-.534 4.446-6.596 6.4-9.487 8.993-27.834 17.83-56.314 34.787-85.844 49.68-15.02 7.744-29.783 15.989-45.44 22.429-7.495 3.45-14.78 7.384-22.55 10.225-7.332 2.6-15.449 7.933-22.679 8.673v-421c14.664-3.012 33.195-6.187 37-27-57.46-3.584-114.543-12.415-172-16v332h-50v-233c13.167-.675 31.137-7.284 33-24-52.352-3.928-104.685-8.657-157-13v376c30.047 1.117 60.101-2.82 88.307-13.625 6.529-2.336 12.949-5.037 19.149-8.118 4.723-2.226 9.402-4.636 13.249-8.226 5.335-5.525 2.354-16.97 3.295-23.966V2007h50v153h-213zm169-912.5c10.258 33.853 20.27 68.095 24.985 103.344 4.88 27.898 6.983 56.1 6.015 84.408.39 5.467-.342 10.896-.413 16.326 2.908 8.207 13.308 12.657 18.619 18.274 13.022 9.418 28.282 17.066 44.7 17.608 24.693 1.62 48.304-10.689 63.704-29.484 15.75-19.081 21.605-44.87 17.146-68.989-7.248-37.641-32.766-69.06-62.443-91.823-29.771-23.19-64.886-38.563-100.223-51.01-4.53-2.049-8.22-.58-12.09 1.346m193 912.25c2.225 4.988 2.792 10.765 4.777 15.91 1.373 3.416 1.737 10.342 5.767 10.485 13.867 1.007 27.906-.179 41.792.355H1700v247.2c-.05 7.048.391 16.604-4.897 20.78-9.623 6.497-26.317 3.013-39.169 3.629-40.268-2.161-80.768-3.662-120.934-6.609.497 3.193-.913 8.66 1.885 10.392 3.488.677 7.059 1.347 10.563 1.985 16.306 3.352 32.851 6.87 47.955 14.135 20.983 11.12 41.306 26.693 51.713 48.73 12.362 22.9 9.953 50.662 16.384 74.758 40.537-5.736 84.11-9.545 120.572-30.6 13.086-7.625 24.894-17.874 33.112-30.703 14.141-23.544 18.197-51.726 19.768-78.646.136-91.692-.024-183.369.048-275.051h124.8c11.532.115 26.912-.485 32.026-12.143 1.878-4.261-2.72-8.407-5.05-11.418-18.898-23.807-39.217-46.443-59.266-69.245-10.247-10.517-19.64-21.8-30.01-32.194-10.135 15.587-18.268 32.548-27.889 48.475-9.022 16.537-19.18 32.75-27.611 49.525h-7v-74.4c.227-6.162-.298-12.383.212-18.525.196-4.371 6.134-4.337 9.47-5.241 10.108-1.93 23.48-8.872 24.318-22.834-57.028-4.508-114.015-10.048-171-15v136h-322zm53 51.125c24.864 31.528 43.252 68.146 55.396 106.328 4.895 14.559 7.944 29.665 10.38 44.788.646 3.568 1.074 7.17 1.359 10.778-.374 7.846 4.126 11.863 10.355 15.045 9.687 6.694 22.796 12.168 33.467 13.905 21.289 3.345 42.93-5.887 57.759-20.684 10.61-11.855 17.502-26.802 18.91-42.742 1.9-24.192-9.544-48.083-25.46-65.59-15.552-17.193-36.059-29.168-56.557-39.375-16.487-7.528-33.794-12.974-51.303-17.514-9.316-2.233-18.652-4.375-28.073-6.128-7.873-.971-17.276-4.817-25.509.65-.278.122-.5.341-.724.539m24-320.875v1.5c34.211 2.944 70.148 7.007 99.302 27.227 13.853 9.382 24.871 23.89 26.863 40.885 1.413 8.655-1.325 17.481-4.879 25.25-1.687 3.863-4.122 7.348-6.758 10.612-2.152 3.093-6.161 6.804-6.528 10.026 5.443-.927 10.55-7.328 16.261-10.21 39.754-28.1 76.767-59.96 110.972-94.523 17.705-17.227 33.758-36.036 49.303-55.208 7.484-9.476 14.536-19.327 21.842-28.925 3.502-4.777 6.68-9.76 9.965-14.675 2.82-4.678 8.157-10.758 8.657-15.459h-100.8c-16.743.59-33.597-.72-50.293.389-6.254 2.43-12.324 9.03-17.765 11.998-4.636 4.598-14.178 7.454-15.142 13.613 32.924-1.175 83.668 2.983 97.077 44.825 8.541 28.274-13.75 57.994-41.318 63.244-10.945 2.14-22.456.964-32.996-2.326-10.07-2.154-11.441-13.4-15.688-20.502-7.24-13.908-16.63-26.414-26.86-38.225-4.074-4.644-8.675-8.808-12.948-13.248-3.54-3.545-8.212-8.034-12.748-7.18-31.328 17.171-62.144 36.35-95.519 49.412zm149-403.5c3.703.525 7.154 5.893 10.585 3.742 23.476-14.813 44.864-32.853 66.697-49.939 27.986-23.492 55.738-47.334 81.588-73.173 13.669-12.873 26.26-26.723 39.232-40.232 6.838-8.183 16.612-3.443 25.448-7.093 7.572-2.6 18.158-7.178 19.45-17.305-61.905-20.611-123.192-44.006-185-65-16.292 83.557-37.64 166.482-58 249" style="fill:#feddaa;fill-rule:evenodd;stroke:none"/><path d="M1011 1120.25c2.006 3.655 4.553 7.036 6.5 10.75 41.423-17.845 83.817-34.264 123.38-56.244 38.76-20.232 77.038-41.836 113.62-65.756 1.827 4.489 2.338 9.615 4.123 14.174 1.697 3.09 1.72 9.914 5.388 10.374 30.945 1.29 62.102-.235 93.092.452H1409v144h-318c3.093 8.523 4.765 19.624 8.31 27.107 10.4 2.1 21.482-.016 32.037.893H1409v323c-123.264.76-246.81-.926-370 .5 2.12 3.55 2.534 9.42 4.41 13.946 1.141 4.692 3.289 10.113 3.59 14.554h874.8c15.335-.542 38.237 2.142 46.2-16.5-46.458-41.872-98.246-77.783-146.5-117.5-15.08 18.354-29.067 37.65-43.717 56.342-10.95 14.337-22.208 28.386-32.93 42.889-3.993 7.532-12.865 5.808-20.015 5.769H1562v-323h322.2c11.535.43 30.832-.87 33.8-17-3.068-.734-5.5-4.584-8.516-6.618-20.194-17.809-41.775-33.964-62.478-51.15-10.364-8.495-20.777-16.927-31.375-25.112-10.78-7.503-20.198-17.722-31.631-24.12-11.198 17.136-25.298 33.158-37.228 49.961-9.394 12.508-19.007 24.845-28.46 37.3-1.767 2.165-3.51 5.034-5.4 6.782-3.964 3.64-12.259.926-17.995 1.957H1562v-144h79.8c20.018-.026 40.034.032 60.036-.017 13.358-.25 31.683-.594 35.474-14.699.839-2.063-2.485-4.352-3.424-5.867-27.05-23.63-55.971-45.046-83.792-67.742-10.58-8.959-24.334-17.946-33.594-26.675-18.73 23.078-36.67 46.81-55.268 69.995-3.608 4.397-6.895 9.028-10.586 13.35-4.01 4.165-11.779 2.019-16.938 2.655H1262.5l-1.5-.5c55.868-35.877 107.797-77.845 157.126-122.14C1467.9 836.576 1513.12 785.4 1550.5 729c13.928 39.899 30.115 79.418 52.753 115.308 33.317 53.478 75.173 101.52 123.274 142.087 46.01 40.381 98.488 72.64 150.973 103.605 6.203-33.034 20.308-64.297 39.945-91.526 19.639-26.032 45.744-49.933 78.555-57.474-.056-5.684.527-11.346 1-17-81.667-15.723-162.136-39.11-239.181-70.44-73.15-30.094-142.982-73.66-191.819-137.06 20.575-3.383 48.603-4.179 55-25.5-71.91-18.19-143.484-38.166-215.372-56.37-4.228-.93-5.054 3.608-5.913 6.855-13.6 51.5-40.328 98.092-67.8 143.134-41.563 65.338-90.553 125.84-143.89 181.856C1134.46 1023.35 1075.375 1075.653 1011 1120zM1023 2188h47c-1.373 70.668.578 141.541-5.617 211.999-4.764 65.385-18.081 131.292-49.383 189.501 4.614 4.1 8.331 9.003 12.5 13.5 30.504-22.416 60.113-46.774 82.712-77.548 35.032-45.704 55.218-100.985 67.916-156.589 5.855-29.333 9.718-59.063 12.663-88.814 2.534-30.633 5.724-61.281 6.209-92.049h31v418c20.625.192 41.437.48 61.648-4.24 13.095-3.529 28.102-9.036 39.189-14.692 9.254-4.64 18.755-9.243 26.603-16.129 2.757-2.64 6.18-5.728 7.873-8.844 2.846-6.13 1.09-15.525 1.687-23.24V2121.5l.5-1.5c.736 1.747 2.072 3.148 2.5 5 118.983-19.706 237.517-53.967 342.36-114.923 50.363-29.694 97.571-64.61 140.767-103.985 21.696-20.53 42.549-41.969 61.797-64.785 4.538-5.763 9.25-11.394 13.755-17.182 3.33-3.587 6.751-10.298 11.036-11.022 15.96-2.959 36.648-2.658 46.285-16.603-43.063-34.933-86.11-70.013-129.5-104.5l-35.975 35.975c-8.993 8.986-17.985 17.993-26.978 26.974-3.906 4.547-8.788 4.312-13.974 4.051-37.086-.76-74.6.926-111.573-.5 13.706-12.177 27.306-24.502 40.37-37.37 3.38-3.208 6.47-7.633 11.437-8.016 12.093-.37 29.54 2.02 37.193-12.114-2.229-2.779-7.5-2.968-11.191-4.495-28.908-8.184-57.582-17.054-86.47-25.275-14.269-4.432-28.756-8.089-42.985-12.617-13.78-3.328-29.533-9.453-42.354-11.613-20.35 51.806-51.498 98.721-84.927 142.915-34.513 45.71-73.902 87.687-118.073 124.085 1.147 2.742 4.511 4.206 6.181 6.116 1.958 1.226 5.89-1.669 7.982-1.67 13.895-4.41 27.673-9.15 41.14-14.742 4.241-1.298 11.82-6.226 15.326-3.121 26.477 27.248 39.433 66.088 40.371 103.417 10.24 5.38 20.157 12.918 32.18 14.486 12.227 3.013 25.553-.09 36.82-3.986-28.32 19.53-58.418 36.422-88.619 52.802-31.369 15.703-62.52 32.27-95.381 44.698v-419c14.887-2.936 35.18-6.77 37-29-58.15-3.215-115.837-12.997-174-16v332h-48v-231c13.35-1.22 32.142-6.715 33-26-53.033-3.742-105.976-9.116-159-13v378c30.108 1.023 60.381-2.213 88.72-13.08 6.709-2.395 13.346-5.026 19.748-8.147 4.689-2.356 9.553-4.56 13.495-8.106 6.27-4.444 3.149-17.638 4.037-24.007V2008h48v151h-213c.562 10.12 6.63 19.072 8 29m160-940.614c12.499 36.976 22.183 75.143 27.252 113.94 5.637 30.72 5.27 62.514 4.496 93.409 13.882 16.024 33.058 28.038 53.62 33.079 31.963 6.468 66.45-9.867 82.096-38.489 17.22-28.694 13.922-65.387-1.092-94.191-14.984-27.585-42.111-53.461-65.826-69.115-27.494-17.588-57.661-30.724-88.461-41.302-4.063-1.43-9.048 1.492-12.085 2.283zM1699 2188v246c-.193 7.213.532 16.178-5.696 20.599-10.075 5.78-26.462 2.324-39.482 2.894-39.923-2.212-79.94-3.81-119.822-6.493.693 3.72-1.385 10.925 2.395 12.55 4.26.66 8.58 1.528 12.816 2.413 16.021 3.215 32.264 7.025 46.91 14.494 20.717 11.092 40.296 26.976 50.467 48.712 5.523 11.346 8.124 26.11 10.167 37.371 1.007 5.959 1.819 11.956 2.676 17.936 1.555 5.603.33 14.35 3.069 18.524 29.246-3.733 58.85-6.68 87.167-15.467 20.156-6.178 40.154-15.199 55.435-30.135 24.025-22.82 30.212-57.949 32.605-89.397.835-36.402-.152-72.839.293-109.233V2188h126c10.53-.04 26.514-.389 31.578-13.502 1.953-4.241-3.012-8.069-5.257-11.373-18.95-23.668-39.076-46.395-59.105-69.113-5.178-5.664-11.186-12.345-16.086-17.382-6.071-4.934-10.53-14.415-17.13-16.63-16.583 33.751-38.235 65.37-55 99h-5v-73.8c.31-5.94-.463-13.012.46-18.406.604-3.79 8.328-2.69 10.705-4.33 10.3-2.1 23.294-10.291 22.835-24.464-57.717-4.399-115.3-10.45-173-15v136h-322c1.775 8.807 4.645 17.568 7.313 26.144 1.228 4.663 10.22 1.93 13.27 2.856zm-269 23.5c18.147 25.612 35.15 52.73 46.474 82.22 9.183 22.548 15.95 46.206 19.396 70.327.96 4.847 1.136 9.777 1.768 14.657 1.543 7.075 11.851 11.394 18.423 15.832 13.646 7.586 29.426 11.273 44.937 8.485 21.594-3.376 42.037-16.874 51.119-37.265 11.1-20.76 9.897-46.141-.198-66.908-13.822-29.684-41.604-49.961-70.247-64.01-30.959-14.948-64.922-22.534-98.609-28.181-2.208.068-5.411-.976-7.017.337-2.075.854-4.053 2.618-6.046 3.006v1.75zm26-321.125c8.254 3.121 18.17.92 26.746 3.242 28.863 4.147 59.801 11.667 81.73 32.358 10.95 10.04 18.248 24.514 18.208 39.592-.64 14.89-8.079 28.75-18.684 38.933 58.271-38.873 111.684-86.577 157.912-139.39 20.619-24.32 39.781-49.843 57.088-76.61-32.554-1.426-65.45.26-98.064-.5-16.536.25-33.096-.304-49.614.164-5.954.822-11.428 7.841-17.583 11.046-5.454 4.256-11.625 7.6-16.739 12.29 32.882-.33 84.219 3.312 97.23 45.825 8.3 28.286-12.39 58.725-40.45 64.491-10.417 2.559-23.273 1.395-32.697-1.07-4.16-1.426-10.315-2.439-11.931-6.295-6.532-15.623-15.152-30.344-25.801-43.525-8.134-9.95-16.605-19.836-26.573-28.03-4.068-3.937-7.96-1.11-12.256 1.496-28.42 17.254-58.07 32.74-88.522 45.983M1612.5 1494c42.004-28.38 81.617-60.937 119.107-95.096 19.793-16.972 37.75-35.928 56.26-54.277 4.357-4.889 8.456-9.988 13.366-14.36 3.17-3.136 6.492-7.708 11.89-6.95 14.238.917 30.448-5.45 35.877-19.524-6.495-4.764-15.43-5.46-22.527-9.11-54.839-19.883-110.311-38.462-164.973-58.683-9.365 44.473-19.217 88.879-29.617 133.124-5.205 21.937-10.006 43.943-15.606 65.774-2.662 11.012-5.995 21.829-8.943 32.76-1.187 5.507-3.454 10.771-4.386 16.333-1.989 4.446 7.927 7.134 9.552 10.009" style="fill:#000;fill-rule:evenodd;stroke:none"/></svg>