<svg xmlns="http://www.w3.org/2000/svg" width="3000" height="3000"><path d="M449 2666.5v1.5h2102v-1.5c-63.81-378.768-126.215-757.87-189.705-1136.696-47.349-283.998-94.654-568.016-142-852-4.398-26.67-8.911-53.338-13.325-80.003-1.118-6.656-2.232-13.342-3.35-19.985-.571-3.586-1.119-7.183-2.096-10.662-1.288-2.958-6.82-3.128-9.193-4.54-101.51-33.828-203.017-67.663-304.512-101.514a746151 746151 0 0 1-266.522-88.84c-39.072-12.89-78.06-26.135-117.144-38.98-4.713-1.335-9.273 1.032-13.839 2.453-144.507 48.104-288.95 96.378-433.449 144.467-54.18 18.08-108.385 36.116-162.566 54.195-23.808 7.923-47.625 15.882-71.434 23.805-5.676 1.96-11.407 3.738-17.06 5.726-6.564 1.113-6.72 8.744-7.34 13.268C740.08 921.349 682.77 1265.54 625.383 1609.692 566.339 1961.663 508.308 2314.864 449 2666.5m598-1620.125c1.639 2.403 4.53 3.562 6.5 5.625 15.525-9.649 31.327-19.019 45.948-30.076 7.612-5.52 15.271-10.962 22.55-16.92 3.678-2.842 7.232-5.811 10.867-8.696 3.435-2.793 7.105-7.072 11.135-7.308.826 2.84 1.861 7.103 3.305 9.102 3.65 1.487 7.79.588 11.595.898h46.1v116h-137c.938 4.214 2.651 8.233 3.569 12.453.9 2.915 1.504 5.904 2.744 8.693 1.218 4.65 10.2 1.939 13.246 2.854H1205v284c-23.66 4.41-47.492 8.123-71.187 12.36-11.573 2.04-23.205 3.805-34.809 5.641-12.291 1.508-26.628 4.784-38.004 4.999.748 5.692 5.995 11.941 8.703 17.998 22.418 39.03 43.08 79.174 65.797 118.002 7.486-2.765 14.45-9.773 18.762-15.502 2.214-2.947 3.428-6.649 6.237-9.149 51.873-27.858 104.731-54.21 155.888-83.454A2319 2319 0 0 0 1463 1385c-.169-3.014-.68-6.005-1-9-23.862 4.391-47.754 8.926-71.607 13.404-12.552 2.315-25.083 4.707-37.648 6.93-11.615 1.538-22.994 5.24-34.745 5.666v-263h118.8c10.947.275 24.624 1.459 31.2-12.5-30.839-33.77-65.688-63.756-98.5-95.5-8.057 12.266-16.297 24.612-24.173 37.02-4.233 6.276-8.377 12.613-12.606 18.886-3.433 6.338-9.647 12.745-11.721 19.094h-3V999h96.6c8.258-.114 20.028-.876 24.656-10.374 1.41-2.946-2.615-6.36-4.358-8.228-16.286-16.698-34.216-31.537-51.527-47.111-13.376-10.936-25.508-23.343-38.871-34.287-10.89 12.926-19.464 27.71-29.863 41.017-7.412 10.5-14.736 21.041-22.327 31.399-2.884 4.753-10.106 3.437-14.805 3.584H1160c.403-4.152 5.492-7.477 8.475-10.975 25.067-24.82 49.682-50.112 71.323-78.057 20.901-27.034 42.182-54.763 58.202-84.968 5.504-.108 7.71 5.575 10.401 8.87 20.745 28.5 39.062 59.023 53.66 91.134 4.476 13.341 17.734 20.127 30.717 23.693 23.993 5.759 50.165-4.434 65.162-23.727 11.06-14.11 13.381-33.846 6.347-50.211-9.608-25.643-33.336-41.865-57.129-52.695-24.868-11.88-51.765-18.906-78.87-23.344-1.432-.236-2.866-.51-4.288-.72v-3c12.73.31 24.545-7.357 30-18.5-52.468-16.543-104.46-35.14-157-51.5-11.637 63.7-34.639 124.848-59.254 184.468-24.582 56.428-52.522 112.329-90.746 160.907m2 1150.108c12.232 26.167 26.922 51.318 39.438 77.39 12.983 26.24 27.09 51.885 40.062 78.127 15.04-7.08 16.797-24.319 21.866-36.538 21.538-38.202 43.599-76.466 61.634-116.462h3v323c19.503.318 39.335 1.009 58.342-4.339 13.068-3.126 28.037-8.318 39.063-13.86 8.666-4.268 17.109-9.138 24.511-15.387 2.69-2.449 5.885-5.452 7.458-8.436 2.707-5.945 1.087-15.048 1.626-22.53V1678c13.418-1.403 31.084-6.51 34-25-55.069-4.043-109.894-11.416-165-15v243h-3c-5.298-14.205-17.914-27.832-27.233-37.733-16.072-17.028-35.26-30.67-55.785-41.768-10.605-5.439-21.24-10.761-32.216-15.386-10.72-3.625-23.687-12.358-32.766-6.613 22.006 52.267 31.944 109.334 33.82 165.793-.47 7.541-1.033 15.093-.819 22.654-.776 6.966 4.394 10.146 8.982 14.513 15.307 13.862 36.302 23.832 57.405 20.777 19.655-2.8 38.98-14.66 48.612-32.237h3v136.2c-.21 3.738.913 8.959-3.251 11.287-53.892 26.445-107.459 54.188-162.749 77.513zm39-1015.233c9.18 39.433 12.87 80.876 13 121.429.048 15.71-.868 31.43-2.483 47.053-.574 5.84-3.417 13.42 2.096 18.362 8.01 8.391 17.06 16.628 28.616 19.704 20.656 6.292 42.001-5.014 53.542-21.997 18.06-26.57 15.927-62.373 3.806-90.64-11.452-28.247-31.36-52.454-54.711-71.722-6.614-5.73-13.757-10.813-20.742-16.066-3.576-2.64-7.194-5.296-11.061-7.48-3.483-2.067-7.014.337-10.996.983-.364.027-.708.073-1.067.124zM1341.5 1368c37.43-43.155 69.99-91.055 97.5-141 12.428-.033 28.01-4.142 35-18.5-41.277-12.704-83.06-24.242-124.5-36.5-2.246 3.156-1.109 8.755-1.922 13.045-2.36 32.288-5.93 64.433-9.042 96.645-1.768 15.804-3.463 31.628-5.276 47.421-.73 8.058-2.095 16.063-2.779 24.12.172 3.438-2.089 9.093.923 10.112 3.073 1.942 7.446 2.664 10.096 4.657m24.5 757h319v241.2c.054 7.161.725 16.522-4.377 20.977-5.089 4.048-12.082 3.808-18.183 3.823-45.59-.032-90.926-5.57-136.44-7v9c16.476 3.304 33.04 6.531 48.836 12.457 21.88 8.217 45.961 25.171 56.481 44.34 13.537 22.33 12.097 50.099 18.183 74.203 38.917-5.647 81.054-9.075 115.75-30.161 12.376-7.207 22.912-17.318 30.456-29.49 13.238-23.781 15.953-51.674 17.213-78.3.23-87.02-.042-174.031.081-261.049h112.8c9.394-.1 23.223.496 28.89-10.513 2.627-2.98-2.853-7.533-4.33-9.613-18.945-20.301-39.498-38.841-59.73-57.744-8.138-7.603-16.63-14.839-24.13-23.13-8.277 13.105-17.29 25.898-25.779 38.905-8.947 12.347-15.853 26.478-25.721 38.095h-2v-68c11.917-.35 29.554-6.38 31-22-37.94-3.77-76.04-6.358-114-10 .703-4.696 7.687-7.136 11.54-10.343 32.38-22.25 63.537-46.294 92.906-72.38 15.195-12.847 29.385-26.783 43.53-40.752 3.56-3.66 7.355-7.125 10.643-11.037 4.31-6.272 14.61-3.855 20.994-5.728 7.104-1.132 13.458-5.28 17.387-11.26-23.199-12.884-47.356-24.547-70.876-36.942-24.221-11.582-47.636-25.814-72.124-36.558-18.045 50.943-45.052 98.557-71.708 145.393-26.665 45.227-56.673 88.58-91.292 128.107 2.28 2.325 4.401 4.83 6.25 7.5 9.597-3.853 20.313-10.088 28.737-14.439 9.696-3.853 19.672-12.3 29.013-14.561v73h-325c.955 8.211 5.05 15.784 6 24m2-299.648c16.52 30.541 27.539 63.98 37.076 97.292 3.804 12.954 6.361 26.361 8.076 39.742.728 6.198 1.096 12.451 1.745 18.655.424 5.29 6.355 8.753 10.186 11.647 16.068 12.273 37.998 17.237 57.133 8.992 28.925-11.52 43.75-46.077 33.863-75.333-7.746-29.248-30.453-51.534-54.661-68.093-25.397-16.466-58.906-30.727-86.021-36.748-2.706.01-5.55 2.617-7.397 3.494zm9-35.852c47.41-1.62 95.615.656 143.173-1.106 68.621-1.632 137.289-5.515 205.542-12.86 32.632-3.796 65.35-7.356 97.671-13.287 8.25-1.124 16.333-2.978 24.51-4.437 12.528-1.648 24.422 5.732 36.957 5.88 11.94 1.125 25.276.601 35.147-7.19-44.246-39.686-87.788-80.219-131.5-120.5-63.515 34.567-132.306 58.789-200.009 83.667-69.733 23.263-140.308 45.034-212.491 59.333-.012 3.526.49 7.033 1 10.5m9-336.25c11.97 22.294 23.066 45.408 35.396 67.567 11.026 23.786 25.158 46.185 35.604 70.183 10.974-1.776 19.81-12.963 24.215-21.22 2.121-3.868 7.34-6.135 11.47-8.61 34.45-20.103 68.771-40.381 102.64-61.423 24.542-15.455 48.904-31.178 73.01-47.32 9.523-6.068 18.699-12.595 27.984-18.984 4.216-2.676 8.222-5.63 12.3-8.502 3.675-2.257 7.651-6.061 11.403-6.384 5.914 6.323 8.2 15.995 12.906 23.278 26.904 53.758 65.828 100.404 108.572 142.165 8.69-26.43 22.867-51.215 41.754-71.723 20.175-19.486 45.662-34.075 73.746-38.277.39-3.86 1.574-8.518-1.95-10.28-3.306-2.096-6.977-3.503-10.383-5.395a737 737 0 0 1-103.864-62.194c-16.869-11.193-32.047-24.43-46.93-38.04-7.633-6.86-14.6-14.408-21.403-22.04-3.532-3.637-6.75-7.54-10.066-11.362-3.018-3.664-7.337-8.063-7.404-12.689 32.77-7.038 63.835-20.93 95.174-32.475 15.552-6.007 30.588-13.287 46.041-19.509 6.955-1.793 16.274 4.096 24.759 2.954 8.124.314 15.6-3.682 21.026-9.47-19.9-14.366-39.471-29.575-59.366-44.03-9.964-7.406-19.843-14.92-29.804-22.318-4.933-3.797-10.051-7.301-15.027-11.021-3.847-3.719-11.99-7.306-12.803-12.131 17.736-2.538 34.68-9.217 49.756-18.85 3.605-2.28 7.647-5.007 8.757-9.397 1.341-14.902-.205-30.02.487-44.964V809c6.914.173 14.909-1.91 20.73-4.295 5.345-2.847 13.623-6.27 15.27-11.705-20.396-12.72-39.114-29.093-59.03-42.737-19.49-14.39-39.25-28.52-58.47-43.263-18.926 20.248-32.486 45.916-51.88 65.534-24.175 1.329-48.544-.241-72.752.466h-54.4c-6.402-.247-14.104.582-19.838-1.005-41.76-14.697-82.812-31.55-124.63-45.995v713c-31.081 3.939-61.922 10.053-93 14zm43 701c15.694 27.664 30.775 56.091 42.235 85.885 8.926 22.724 15.302 46.442 19.19 70.494 4.021 7.179 15.037 10.835 21.648 14.881 29.271 14.56 67.671.768 81.11-28.96 14.414-29.438 2.195-64.35-20.158-86.025-16.683-17.142-41.485-31.6-61.726-39.594-12.05-4.965-24.49-9.054-37.153-12.135-6.37-1.78-12.883-3.018-19.313-4.538-6.355-.872-13.861-3.674-19.824-2.725-2.147.355-4.249 1.689-6.009 2.467zM1564 1958c3.01.84 5.673 4.524 8.864 6.388 10.683 8.189 23.256 14.763 36.846 16.178 20.464 2.607 40.685-8.122 52.853-24.06 5.718-8.077 10.768-19.003 11.982-28.085 1.56-10.535.126-21.147-3.062-31.215-11.443-33.329-40.291-57.717-70.262-74.11-11.16-5.963-22.596-11.307-34.366-15.929-11.924-3.402-26.16-12.423-36.855-8.167 19.233 50.726 34.223 104.22 34 159m197-1160h-168v121.8c.013 3.41-.016 6.84.01 10.243-.913 8.211 6.885 7.215 12.36 6.957h126.844c6.989-.004 13.968.005 20.942-.003 2.435-.044 6.82-.141 7.427-2.473 1.189-45.424-.216-91.067.417-136.524m-168 306h168V961h-168zm0 315c39.822-5.84 79.279-14.514 119-21-31.712-86.687-48.785-178.135-57-270h-62zm223-253c-18.323 1.062-36.653 1.26-55 1v-39h-93c.548 10.535 5.212 22.38 7.404 31.7 10.07 35.017 23.736 69 41.746 100.68 4.297 7.772 9.12 15.2 14.123 22.52 1.924 2.22 3.745 6.906 6.778 6.539 15.235-16.564 25.99-37.236 39.26-55.371 12.993-22.433 28.557-44.2 38.689-68.068" style="fill:#feddaa;fill-rule:evenodd;stroke:none"/><path d="M1045 1046.5c1.907 2.559 4.78 4.042 7.33 5.746 3.048 1.066 7.231-2.994 9.748-3.989 28.29-17.249 55.284-36.665 80.422-58.257 2.338 3.958 1.758 10.396 8.315 9.957 16.216.123 32.43-.023 48.634.043H1204v114h-137c.84 7.346 4.313 15.56 5.853 22.12 1.246 4.862 7.114 3.687 10.712 3.88H1204v282c-48.415 8.658-97.071 17.029-145.75 24 12.46 22.602 25.166 45.492 37.717 68.13 12.096 23.522 26.727 46.005 38.033 69.87 8.219-2.16 14.546-8.507 19.919-14.694 2.568-2.834 3.884-6.528 6.189-9.518 5.584-5.432 13.75-7.374 20.226-11.463 48.703-25.58 97.602-50.82 145.352-78.165 47.101-26.206 93.37-54.701 138.314-84.16-.02-3.679-.552-7.357-1-11-48.143 7.45-95.813 18.792-144 26v-261c44.695-.686 89.489.836 134.138-.451 8.555-1.444 20.735-10.22 11.078-19.534-20.347-21.577-41.893-41.957-63.691-61.99-9.902-10.162-21.132-18.872-31.025-29.025-8.81 12.14-16.517 25.073-24.837 37.536-8.017 13.043-17.652 25.122-25.163 38.464-1.426-34.86.26-70.076-.5-105h96.6c7.975.04 19.605-.81 24.728-10.365 3.029-5.999-6.966-11.487-9.93-15.737-14.289-14.274-30.185-26.74-44.844-40.62-7.315-5.753-13.643-12.663-20.947-18.409-3.38-3.302-6.92-6.398-10.557-9.394-3.272-2.777-7.447-7.564-11.05-8.475-8.506 14.342-19.9 27.55-29.066 41.61-7.287 10.358-14.601 20.72-22.002 30.996-2.997 5.226-8.315 4.496-13.628 4.394-39.012-.76-78.411.926-117.304-.5 52.183-51.484 102.455-106.876 138-171.5h1.5c17.228 21.299 34.032 49.017 46.189 70.968 5.583 9.816 10.26 20.135 14.968 30.37 3.174 10.321 12.023 15.623 20.276 18.696 30.968 15.17 74.631-2.575 85.112-35.734 5.61-16.73 1.267-35.255-8.52-49.488-8.906-14.383-22.539-25.105-37.295-32.981-28.379-16.053-60.091-24.955-92.092-30.156-1.393-.313-2.79-.74-4.138-1.175l1.575-.5c10.661-.75 25.672-7.052 28.425-21-53.624-14.521-105.278-36.912-159-51-11.69 63.846-34.714 125.14-59.452 184.892-12.154 29.318-26.418 57.682-41.534 85.558-15.3 26.12-30.454 52.835-50.014 76.05m2 1149.759c13.321 26.17 27.22 52.33 40.438 78.613 13.794 26.286 26.787 53.151 41.062 79.128 15.473-8.814 17.908-23.276 22.866-37.538 22.202-38.01 42.888-76.881 62.134-116.462 1.426 107.549-.26 215.392.5 323 19.728.225 39.715 1.071 59.003-4.011 13.664-3.41 27.245-7.662 39.888-13.943 8.982-4.428 17.835-9.417 25.436-15.999 2.69-2.468 5.865-5.5 7.295-8.577 2.553-7.178.663-15.196 1.378-22.622V1679c13.71-1.29 32.986-7.213 34-27-55.759-3.723-111.187-12.018-167-15-.76 80.929.926 162.151-.5 243-13.494-27.471-41.025-52.448-63.945-67.745-13.496-8.724-27.61-16.496-42.34-22.96-7.133-3.04-14.138-6.31-21.36-9.128-4.103-1.32-8.01-3.23-12.18-4.324-4.116-1.273-7.449 1.385-10.675 2.157 20.215 54.158 33.484 111.453 33.686 169.544-.816 7.744-.713 15.49-.784 23.249-.533 5.293 6.07 9.186 10.103 13.63 15.62 13.856 36.73 23.045 57.926 19.87 20.476-2.396 38.793-15.033 49.569-32.293l.5 1.625v120.6c-.583 8.321 2.391 21.066-5.424 24.496-53.463 26.567-107.168 52.782-161.576 77.279zM1087 1180c6.843 34.286 11.858 69.086 12.8 104.1.447 13.894.235 27.787-.445 41.661-.282 11.51-2.069 22.878-3.227 34.297-.632 5.507 2.668 8.591 6.242 11.812 11.78 13.68 30 21.726 48.073 17.847 26.473-5.568 43.618-31.634 45.89-57.233 3.486-27.287-4.285-54.807-18.537-78.035-18.399-31.514-46.994-56.033-77.117-75.877-4.495-2.408-9.099 1.071-13.679 1.428m241 184c4.71 1.02 9.004 3.732 13.745 4.51 10.677-8.625 18.363-21.72 27.567-31.984 25.926-34.432 50.15-70.701 70.688-108.526 12.42-1.191 30.74-3.357 35-21-42.074-12.17-84.675-24.151-126.5-37-2.837 7.739-.992 16.663-2.742 24.675-4.68 56.532-10.906 113.067-17.758 169.325m30 736.5c2.491 8.104 5.443 17.866 7 25.5h319v240.6c-.261 6.095 1.133 14.435-4.725 19.942-9.569 5.775-25.374 2.456-37.838 2.974-38.861-1.148-77.562-5.771-116.437-6.516v11c16.476 3.304 33.04 6.531 48.836 12.457 21.88 8.217 45.961 25.171 56.481 44.34 13.527 22.387 12.1 49.996 18.183 74.203 27.864-3.368 55.991-6.47 82.936-14.852 18.953-5.491 36.878-14.727 51.552-27.932 22.432-21.963 28.933-54.81 30.451-85.008 1.418-34.097-.109-68.274.561-102.38V2126h116.4c10.034.857 22.972-2.243 27.6-14.5-7.004-8.112-14.534-15.76-22.233-23.233-11.377-11.533-22.899-22.882-34.978-33.639-6.463-4.971-11.42-11.61-17.916-16.536-3.083-2.652-5.85-5.625-8.743-8.462-2.76-2.623-5.725-6.336-9.13-6.63-7.148 13.518-17.403 25.712-25.279 38.905-8.48 12.642-16.229 25.808-25.221 38.095-1.42-21.797.252-44.11-.5-66 7.468.068 14.794-2.212 21.042-6.232 7.277-4.122 8.628-10.64 10.958-17.268-37.917-5.765-77.079-5.274-115-11 34.452-23.318 68.16-48.011 99.352-75.609 15.764-14.308 31.832-28.28 46.75-43.493 3.81-3.936 7.836-7.641 11.495-11.704 5.229-7.788 13.985-5.082 22.016-6.934 8.03-1.122 14.628-6.317 18.387-13.26-48.27-24.453-96.247-49.723-144.354-74.5-22.106 51.911-46.392 103.384-76.37 151.417-14.025 23.37-28.829 46.282-44.826 68.361-8.06 11.425-16.657 22.423-25.337 33.37-4.37 5.331-8.866 10.537-13.28 15.827-1.58 2.085-5.654 6.307-3.47 8.28 1.552 2.817 4.15 5.6 6.137 7.745 18.594-9.93 37.782-19.293 56-30 1.422 23.537-.255 47.396.5 71h-326zm9.493-275.023c19.87 44.305 38.488 90.486 44.766 139.01.957 6.322.89 13.937 2.094 19.678.97 4.344 8.196 7.504 10.968 10.402 15.381 11.028 35.45 15.812 53.816 9.512 17.331-5.032 31.211-19.154 36.985-36.048 6.405-16.99 4.457-36.093-2.352-52.601-9.786-24.402-30.048-42.874-50.921-57.878-21.226-14.522-45.275-24.382-69.522-32.589-7.111-1.672-15.758-6.271-21.937-3.495-1.452.981-3.967 2.424-3.897 4.009M1376 1790c94.685.363 189.492.631 283.908-7.319 44.253-3.178 88.35-8.292 132.304-14.227 10.69-1.92 21.52-3.054 32.156-5.208 8.592-1.178 17.072-3.14 25.61-4.562 6.33-1.086 12.371 1.805 18.38 3.163 17.83 5.212 37.073 4.959 53.642-3.847v-1.5c-37.545-34.123-75.027-68.346-112.32-102.734-7.872-5.319-13.5-15.295-21.794-18.204-64.396 32.848-132.212 59.143-200.395 83.105-69.733 23.263-140.308 45.034-212.491 59.333a54.7 54.7 0 0 0 1 12m8-337.75c12.186 22.624 23.353 46.123 35.909 68.615 11.188 24.085 25.473 46.829 36.091 71.135 7.085.103 13.898-5.521 18.193-9.769 4.817-3.857 7.377-11.882 11.021-14.92 40.178-23.632 80.387-47.311 119.882-72.057 38.657-24.604 76.987-49.806 114.404-76.254 8.936 15.09 15.354 31.812 24.873 46.644 26.116 44.816 59.836 84.533 97.127 120.356 6.044-12.52 9.926-26.475 17.628-38.304 20.03-37.245 56.213-66.55 98.872-72.696.461-3.05.672-7.287 2-9.5-74.681-39.475-151.321-82.613-204-151v-1.5c33.104-7.164 64.521-21.14 96.166-32.878 15.637-5.864 30.556-13.642 46.21-19.38 8.488.645 17.36 4.86 26.288 3.128 6.835-.91 17.398-5.071 18.336-11.87-39.514-27.59-77.833-58.176-117-86.5 19.214-5.26 44.592-11.574 57.535-26.045 2.769-7.151.65-17.841 1.465-26.702V810c13.278.264 29.475-6.307 37-16-39.85-29.856-80.454-60.204-121-89-7.006 11.881-17.378 22.259-25.11 33.8-7.434 9.697-14.797 19.415-22.293 29.053-3.248 5.322-11.01 4.206-16.357 4.147h-122.013c-11.875.23-22.586-6.056-33.709-9.397C1547.061 749.616 1512.58 736.568 1478 724v714c-31.438 3.731-62.548 10.433-94 14zm43 702.211c19.554 31.942 36.217 66.207 48.608 101.607 4.743 13.662 8.348 27.671 11.47 41.766 1.318 5.966.79 14.263 5.715 17.968 18.462 14.683 44.4 21.871 67.117 12.717 16.12-5.61 29.223-18.723 35.795-34.334 10.213-24.785 3.684-53.881-12.857-74.387-15.385-20.12-37.368-34.11-59.716-45.24-28.131-12.264-58.354-21.112-88.81-24.963-1.967 2.052-5.736 2.21-7.322 4.866m101-355.211c21.134 50.414 34.388 104.92 35 159.75 3.01.84 5.673 4.524 8.864 6.388 20.753 17.949 53.539 23.27 76.683 6.263 11.62-7.456 19.925-19.107 24.367-32.028 5.237-13.376 3.078-30.636-.268-42.868-11.461-34.129-41.19-58.979-71.917-75.397-11.534-5.927-23.106-11.834-35.386-16.1-12.187-3.977-27.185-12.624-37.343-6.258zM1760 799h-166v119.646c.01 3.4-.014 6.785.009 10.172-.854 8.152 6.392 7.658 11.758 7.182h125.576c6.988-.005 13.956.006 20.932-.003 2.55-.016 7.303-.094 7.27-3.002 1.297-44.593-.235-89.359.455-133.995m-166 304h166V962h-166zm0 315h1.5c38.304-7.998 77.294-13.056 115.5-21.5-33.705-85.176-47.434-176.909-57-267.5h-60zm143.5-129c28.726-38.566 55.162-79.327 77.25-122-18.23 1.187-36.498 1.147-54.75 1v-39h-91c12.696 56.6 34.34 112.748 68.5 160" style="fill:#000;fill-rule:evenodd;stroke:none"/></svg>