<svg xmlns="http://www.w3.org/2000/svg" width="3000" height="3000"><path d="M326 2802.5v1.5h2347c-.373-12.822-4.058-25.348-5.508-38.051-117.27-703.542-234.496-1407.1-351.766-2110.637-7.344-43.997-14.655-88.002-22-132-3.6-21.02-6.91-42.124-10.625-63.12-1.141-5.243-8.647-5.77-12.81-7.59-158.488-52.846-316.994-105.666-475.472-158.502-59.502-19.835-119.024-39.669-178.52-59.495-26.013-8.653-52-17.351-78-26-12.476-3.645-24.567-8.834-37.16-12.04-6.368-.025-12.224 3.635-18.313 4.993-92.992 31.026-186.022 61.963-279 93A1893485 1893485 0 0 0 785.82 433.9c-17.522 5.819-35.005 11.685-52.52 17.495-3.82 1.309-7.668 2.508-11.462 3.872-7.078 2.018-5.509 14.447-7.54 19.93a1026382 1026382 0 0 1-55.17 330.994C547.67 1471.398 438 2137.571 326 2802.5M1015 1124h153c.903 88.373-7.162 177.505-31.638 262.69-23.236 78.248-66.715 150.827-128.362 204.81 1.236 4.266 6.795 7.076 10.665 4.808 27.399-10.591 53.675-23.908 78.976-38.76 70.165-41.97 126.758-105.742 161.037-179.884 36.209-79.206 49.189-167.179 50.322-253.664h87v474c21.804.532 43.808.926 65.132-4.565 14.418-3.689 28.524-8.613 42.032-14.866 9.859-4.371 21.068-10.61 28.997-16.5 3.04-2.575 6.725-5.996 7.47-9.748 1.051-32.88-.19-65.878.369-98.772V1124h34.8c10.664.555 23.403-.727 33.113.515 2.224.84 1.727 4.938 2.196 6.73 6.908 76.76 18.872 153.952 44.55 226.893 20.278 51.763 46.799 102.661 86.443 142.464 28.139 29.906 63.764 53.435 100.742 71.334 14.399 7.38 28.938 14.798 44.62 19.181 27.068 8.668 58.616 12.77 84.572-2.254 18.793-10.869 31.152-31.937 28.811-53.739-2.015-15.814-9.703-30.242-18.55-43.195-6.034-9.22-16.566-17.98-13.867-31.061 1.653-37.963 3.768-75.914 5.57-113.868-2.362-.516-5.43-1.255-7.54-.18-1.852 1.737-2.676 5.345-3.578 7.142-10.57 30.01-19.699 61.088-35.783 88.769-8.106 11.61-24.057 4.149-33.818.572-19.022-7.812-36.725-18.767-52-32.553-45.363-41.974-70.505-101.481-83.281-160.75 4.683.3 7.649 4.478 10.985 7.17 24.885 22.096 47.878 46.508 66.781 74.036 6.717 9.795 12.947 19.937 18.154 30.626 2.268 5.884 3.82 10.598 9.783 11.906 20.008 7.942 44.71 7.951 61.881-6.876 12.015-9.173 20.488-26.682 20.41-40.498 1.347-24.279-12.608-46.713-30.518-61.974-8.784-6.709-18.185-12.727-28.348-17.132-5.246-2.247-10.585-4.16-15.908-6.177-4.711-2.685-14.338-2.392-15.22-8.081 18.432-9.196 36.34-20.183 53.972-30.903 9.296-5.443 18.24-13.064 29.554-12.097 9.564.036 22.705 1.468 28.474-11-44.973-23.066-89.899-47.122-134.5-71-7.999 40.273-18.016 80.275-28.5 120-17.343.061-34.7-.395-52 1-4.258-30.862-9.853-61.707-10-93 13.52-1.653 29.488-7.153 39-15.5-8.588-8.936-22.257-16.342-30.899-23.783-31.078-22.187-61.24-46.033-92.601-67.717-16.266 16.868-31.487 34.704-47.284 51.989a230 230 0 0 0-11.992 13.155c-3.29 3.652-9.471 2.813-13.855 2.856H1540V791c7.372-.76 16.059-3.252 21.903-6.762 7.533-4.258 9.281-10.886 12.097-17.738-59.2-5.461-118.679-11.792-178-16.5v72h-2c-30.248-16.582-59.795-34.472-89.865-51.378-11.276-6.106-22.156-12.909-33.361-19.099-5.478-3.075-9.543 5.83-12.699 8.98-56.168 67.16-124.269 123.841-196.355 173.202-17.09 12.447-35.987 22.144-53.72 33.545.532 2.348 1.656 5.087 3.163 6.73 1.81 1.634 5.882-.492 7.883-.288 25.635-5.13 51.1-11.107 76.362-17.788 12.495-3.149 24.885-6.605 37.284-10.09 11.901-2.452 25.225-8.61 36.308-9.814v121.8c-.475 12.666.808 27.676-1 39.2h-161c1.18 9.34 6.814 17.66 8 27m2 1318h400v198c23.778.474 47.676.754 71.13-3.812 15.89-4.024 31.89-8.112 47.12-14.241 10.925-4.635 22.27-9.178 31.316-17.117 7.82-6.264 4.855-19.444 5.434-28.028V2442h363.6c11.294-.417 24.677.624 34.984-.621 8.11-1.222 21.046-6.294 19.37-15.267-47.5-38.98-97.001-75.687-146.454-112.112-15.897 18.789-31.225 38.138-46.697 57.282-11.981 13.742-22.424 28.894-34.648 42.38-6.328 2.839-16.414.284-23.238 1.338H1572v-128h147v39c22.488.205 45.13-.605 67.132-5.565 15.93-3.624 31.405-8.804 46.648-14.586 10.687-4.724 22.061-8.514 31.735-15.281 7.952-5.53 4.846-18.435 5.485-26.644V1979c14.345-1.664 32.093-9.473 40-20.5-44.217-35.234-90.012-68.611-134.5-103.5a2067 2067 0 0 1-36.994 40.375c-9.213 10.236-18.371 20.615-28.014 30.444-3.941 3.248-11.114 1.825-16.735 2.181H1572v-109h349.8c14.68.272 34.759.003 39.2-15.5-47.381-38.862-97.229-74.854-147-110.5-14.514 16.682-27.86 34.646-42.138 51.586a8091 8091 0 0 0-31.62 38.847c-1.89 2.554-3.99 4.955-6.142 7.267-6.45 2.603-13.017.43-19.84 1.3H1572v-92c15.364-1.897 34.388-6.978 38-28-64.007-6.611-128.705-11.636-192.5-19-1.426 46.202.26 92.731-.5 139-123.929.76-248.151-.926-372 .5 3.61 7.696 4.049 18.4 7.946 25.24 6.468 2.544 16.001.396 22.827 1.26H1417v109h-112.8c-8.412-.015-18.637.832-25.846-2.45-50.57-18.79-100.543-39.476-151.354-57.55v494c32.307 1.027 64.877-2.11 95.338-13.636 13.818-5.133 27.612-10.806 39.851-19.14 5.275-3.799 13.184-8.298 13.714-16.998.262-8.405-.036-16.827.097-25.226h141v128h-407c1.076 9.274 5.732 17.776 7 27m53-1743.5c1.333 4.822 3.392 9.406 4.751 14.235 1.252 3.36 2.144 6.87 3.438 10.202.365 3.068 5.189 2.957 7.438 3.06 9.377.007 18.767 0 28.14.003H1605c4.73 53.907 15.547 107.611 32.061 159.135 24.496 73.288 69.698 142.002 134.87 185.16 31.786 21.35 67.086 37.761 103.615 49.137 33.605 8.956 85.125 16.407 109.746-22.35 10.717-14.39 12.096-33.628 5.288-49.808-4.305-12.1-13.5-24.342-20.94-33.28-2.453-4.349-8.46-7.861-9.272-12.116-1.295-18.606 2.053-37.274 1.744-55.881 1.342-18.988 1.349-38.04 2.888-56.997-3.013-.328-5.98-.824-9-1-8.72 29.375-19.763 58.138-34.173 85.231-2.427 4.943-6.34 9.535-11.902 10.861-10.509 2.45-23.01-4.289-32.654-7.137-35.102-12.81-65.369-37.432-86.575-68.047-10.614-14.933-19.098-31.237-26.15-48.119-6.853-17.083-14.636-37.892-16.546-54.789 7.78.814 13.844 9.887 20.05 13.711 22.601 20.552 43.606 42.906 61.089 68.057 6.222 9.456 11.864 19.22 16.548 29.54 1.86 4.163 7.549 5.414 12.474 6.708 18.83 6.01 40.439 1.958 55.403-11.19 10.785-9.56 18.493-23.098 19.303-37.7 1.642-21.525-9.795-42.645-26.681-55.604-15.36-13.318-38.517-20.953-56.186-25.522v-3c18.567-6.133 37.138-13.17 55.56-19.87 7.948-3.436 16.727-9.349 27.116-6.292 9.768 2.61 20.493.62 27.324-7.338-39.507-27.363-78.129-56.868-118-83.5-7.787 27.607-19.745 54.04-30.27 80.677-2.75 6.57-5.498 13.154-8.42 19.638-3.13 4.02-3.43 11.7-7.952 13.226-8.8 1.543-17.845.724-26.704 1.642-8.22.593-16.407 1.8-24.654 1.817-2.653-17.694-6.993-38.486-7-55 13.04-2.1 29.298-6.318 38-15.5-20.682-14.417-41.177-29.447-61.877-43.895-20.597-14.353-40.832-29.648-61.623-43.605-16.388 15.96-30.877 33.67-46.842 50.007-3.256 4.03-6.718 7.838-10.53 11.341-3.85 4.541-9.86 3.678-14.784 3.652H1070zm171 212v1.5c34.762 1.72 69.242 7.28 104 9-.961 17.66-17.553 24.013-32.12 26.084-3.757.547-4.14 4.006-3.867 6.905-.038 47.669.008 95.35-.013 143.011h87V854c-7.553.17-15.12.115-22.6-1.075-7.078-1.696-12.495-1.029-17.944 2.949-36.96 19.985-74.934 38.751-114.456 53.126zm35 1180.5h141v-135h-141zm0 169h141v-142h-141zm296-169h147v-135h-147zm0 168h146v-141h-146z" style="fill:#fda;fill-rule:evenodd;stroke:none"/><path d="M204 2906.5c431.66 1.426 864.125-.26 1295.95.5 431.946-.76 864.184.926 1296.05-.5-71.347-421.454-140.17-844.031-211.186-1265.681C2515.49 1219.807 2443.894 799.05 2375 378c-18.825-4.147-36.622-12.377-55.173-17.557-141.343-47.107-282.688-94.208-424.008-141.343-105.996-35.346-212.02-70.658-318-106l-60-20c-4.743-1.483-9.392-3.202-14.133-4.67-4.689-1.596-9.296.594-13.846 2.121-144.162 48.092-288.385 96.1-432.543 144.19-72.152 24.045-144.327 48.113-216.478 72.159-35.996 12.013-72.02 23.992-108 36-18 6.028-36 11.971-54 18-9.01 3.004-18.013 5.972-27 9-8.742 2.234-18.56 7.118-26.819 8.1-68.995 421.677-140.705 843.07-210.109 1264.703C344.003 2063.481 275.132 2486.22 204 2906.5m123-104c781.355 1.426 1563.485-.26 2345 .5-118.785-721.214-240.618-1442.068-360.03-2163.199-7.528-45.17-15.046-90.339-22.588-135.492-1.756-10.718-3.574-21.44-5.367-32.15-1.463-5.102-.632-13.609-5.65-15.42-82.419-27.818-165.08-54.96-247.546-82.639-144.35-48.044-288.615-96.253-432.954-144.3-27.19-9.095-54.376-18.14-81.566-27.195-6.024-1.707-14.13-5.746-19.294-4.368-99.967 33.09-199.81 66.647-299.74 99.834a5130220 5130220 0 0 1-448.968 149.67c-9.274 3.513-19.03 5.778-28.13 9.725-3.665 1.962-2.298 9.57-3.876 12.727-22.54 135.51-45.194 271.003-67.739 406.508C540.73 1518.187 435.508 2161.522 327 2802.5" style="fill:gray;fill-rule:evenodd;stroke:none"/><path d="M1572 2258.5v1.5h147v-142h-2v140h-127.8c-5.405-.207-12.958.54-17.2-1z" style="fill:#bfa67f;fill-rule:evenodd;stroke:none"/><path d="m1276 1956.5.5 1.5c4.48-2.116 11.627-.217 17.276-1H1416v117c-.715 5.419 1.048 12.215-1 16.5.972.384 1.963.51 3 .5v-136h-142z" style="fill:#7f6e55;fill-rule:evenodd;stroke:none"/><path d="M1854 1237h3c-.05-1.254-.91-2.582 0-3.5-.923-.503-1.973-.502-3-.5z" style="fill:#4b4132;fill-rule:evenodd;stroke:none"/><path d="M1005 1096.25c2.742 9.16 7.018 20.148 9 28.75h153c.822 88.247-7.58 177.202-32.062 262.23-23.527 78.177-67.132 150.425-128.938 204.27 2.08 3.142 4.736 5.763 7.328 8.5 45.6-18.188 90.024-40.8 128.677-71.408 57.449-45.371 101.887-106.538 128.243-174.745a503.4 503.4 0 0 0 29.619-111.35c6.077-38.851 9.763-78.16 10.133-117.497h85v474c22.139.392 44.487 1.04 66.173-4.349a239.7 239.7 0 0 0 42.46-14.851c10.04-4.443 21.467-10.718 29.528-16.731 3.04-2.575 6.725-5.996 7.47-9.748 1.051-33.48-.19-67.078.369-100.572V1125h51.6c4.81 1.03 12.737-1.654 15.79 1.883 7.562 77.604 18.458 156.02 44.424 229.964 20.205 52.32 46.798 103.67 86.556 144.023 28.414 30.378 64.518 54.246 102.005 72.316 14.549 7.491 29.334 14.896 45.217 19.251 27.512 8.493 59.619 12.343 85.869-2.814 8.922-5.32 15.986-13.099 21.485-21.813 10.497-17.149 8.263-38.929.153-56.435-5.672-12.131-13.358-23.197-21.437-33.815-4.56-4.44-5.362-9.361-4.3-15.04 1.725-38.829 3.973-77.678 5.638-116.52-3.037-.667-6.424-1.442-9.437-.227-2.386 1.978-2.932 6.28-4.28 8.87-10.38 29.62-19.427 60.339-35.49 87.543-7.162 11.09-25.564 2.745-33.904-.858-18.287-8.452-36.116-18.62-50.758-32.698-44.253-41.202-68.88-99.875-81.631-157.63 25.972 21.533 49.396 46.341 69.674 73.372 7.334 9.747 13.883 19.97 19.734 30.659 2.747 4.669 4.811 9.643 7.024 14.566 1.693 4.3 7.824 5.477 12.803 7.058 19.597 6.27 43.135 4.65 59.04-9.813 24.035-19.907 24.797-58.07 7.253-82.312-15.994-24.927-43.466-39.233-71.151-47.139-2.547-1.062-5.451-1.409-7.877-1.891v-1.5c4.489-.688 9.557-4.769 14.397-6.955 16.332-8.963 32.25-18.637 48.095-28.403 3.713-1.99 8.384-5.482 11.601-6.837 12.947-2.716 30.051 4.356 39.907-12.305-45.048-25.715-92.27-48.052-137.5-73.5-7.547 40.707-18.169 80.908-28.5 121-16.666.352-33.403-.686-50 1-4.197-30.214-9.584-60.374-10-91 7.286-.57 15.552-3.369 21.81-5.565 6.41-3.31 14.816-5.525 18.19-11.935-41.418-31.353-83.693-61.692-125.5-92.5-16.437 16.571-31.063 34.79-47.213 51.628-3.866 4.591-8.303 8.68-12.002 13.414-3.36 4.272-7.854 4.17-12.527 3.958H1541V792c14.376-1.425 32.005-7.143 34-27-60.127-3.687-119.858-12.673-180-16-.759 23.936.925 48.144-.5 72-21.295-12.241-42.688-24.567-64.02-36.792-21.664-11.46-42.125-25.407-64.088-36.208-36.015 45.25-77.723 85.738-122.368 122.472-43.036 35.72-89.163 68.465-138.024 95.528.85 3.756 3.198 7.755 4.5 11 52.848-10.94 105.697-24.611 157.5-40v120c-.468 12.599.802 27.537-1 39h-162zm3 1318.25c2.629 9.433 5.877 18.926 8 28.5h400v198c24.124.563 48.28.62 72.11-3.582 16.256-4.012 32.581-8.241 48.14-14.471 11.04-4.75 22.648-9.272 31.702-17.474 7.55-6.443 4.226-19.732 5.048-28.269V2443h377.4c13.879.094 36.533 2.186 42.6-16.602-48.83-39.396-99.068-77.135-149.5-114.398-16.203 18.497-31.083 38.145-46.772 57.073-11.651 14.064-22.86 28.525-34.447 42.634-2.743 2.776-6.875 2.241-10.574 2.293H1573v-126h145v39c22.83.229 45.742-.58 68.12-5.327 16.125-3.662 31.818-8.8 47.24-14.674 10.87-4.707 22.328-8.636 32.155-15.431 8.05-5.672 4.748-18.894 5.485-27.244V1980c16.105-1.604 30.961-9.873 42-21.5-45.68-35.181-92.016-69.995-137.5-105.5-12.477 13.265-24.133 27.243-36.976 40.177-8.988 10.508-18.64 20.449-27.933 30.68-3.821 4.206-10.974 3.026-16.037 3.143H1573v-107h351.6c13.229-.15 31.093.912 38.4-16.5-47.877-39.925-99.018-76.14-149.5-112.5-14.062 17.214-27.974 34.575-41.99 51.827-10.712 12.782-21.02 25.904-31.596 38.781-2.048 2.46-3.884 5.108-6.17 7.35-1.811 2.57-6.755 1.756-9.12 2.042H1573v-90c15.515-1.853 36.415-7.622 38-30-65-6.26-130.055-12.307-195-19v139h-372c1.755 8.47 4.756 18.319 7.038 25.905 1.385 4.795 10.258 2.321 13.545 3.095H1416v107h-113.4c-8.542.329-17.301.704-25.15-3.206-50.573-18.969-100.782-39.154-151.45-57.794v497c32.604 1.053 65.487-1.726 96.297-13.276 14.06-5.057 27.976-10.941 40.48-19.21 5.344-3.913 13.568-8.37 14.126-17.288.262-8.405-.036-16.827.097-25.226h139v126h-408zM1604 727c4.73 53.907 15.547 107.611 32.061 159.135 24.496 73.288 69.698 142.002 134.87 185.16 31.786 21.35 67.086 37.761 103.615 49.137 33.717 8.6 85.31 16.944 110.884-21.101 10.859-14.456 13.509-34.36 6.805-51.086-4.115-12.786-12.249-23.843-20.619-34.111-3.054-3.86-6.971-8.11-9.916-11.49-1.739-9.29.404-19.125.218-28.522 1.47-28.693 2.742-57.415 4.082-86.122-3.05-.461-7.287-.672-9.5-2-4.185 5.159-4.826 14.586-7.873 21.607-4.727 13.145-9.68 26.228-15.369 38.986-5.534 10.887-10.724 25.08-18.328 33.475-9.007 7.206-23.019.536-32.185-2.375-35.778-12.378-67.448-36.025-89.116-67.166-21.946-30.736-36.674-66.74-44.629-103.527h1.5c23.611 18.306 44.736 39.618 63.54 62.813 7.062 8.63 13.31 17.843 19.279 27.233 2.586 4.09 4.962 8.328 7.051 12.694 1.126 2.173 2.175 4.396 3.292 6.566 2.982 7.57 14.7 9.012 23.62 10.964 16.08 2.459 32.919-2.123 45.684-12.078 19.147-15.172 26.809-42.872 17.36-65.657-8.424-21.496-27.408-37.778-48.458-46.216-9.724-5.186-20.648-7.079-30.868-10.819 18.4-7.492 37.56-13.062 55.955-20.54 4.665-1.84 9.145-4.063 13.76-6.003 6.236-2.552 14.987 1.821 22.968.886 6.315-.718 15.568-3.97 17.317-9.843-19.197-15.04-40.014-28.46-59.61-43.067-10.085-7.032-19.91-14.433-30.059-21.36-5.124-3.636-10.251-7.263-15.348-10.936-4.958-2.83-9.853-8.138-14.983-9.637-2.287 13.831-10.512 28.711-13.879 41.052-7.562 19.857-15.773 39.462-24.194 58.96-2.296 4.393-4.32 9.892-6.812 13.676-7 2.947-17.95 1.025-25.456 2.355-8.581.25-17.083 1.758-25.659 1.957-2.559-17.59-6.478-35.144-7-53 13.755-2.493 28.969-5.854 39-16.5-20.87-15.337-42.243-30.058-63.27-45.187-10.633-7.497-21.114-15.184-31.758-22.658-5.537-3.618-10.711-7.726-16.176-11.426-5.21-3.048-10.446-8.528-15.796-10.229-1.29 4.799-8.222 8.108-11.17 12.985-15.124 16.146-30.03 32.535-45.065 48.746-3.946 4.74-8.882 4.607-14.226 4.269H1069c.898 8.723 5.616 16.658 7.51 25.149.952 5.702 7.145 4.924 11.68 4.851H1604m-362 183.25c16.844 2.692 35.02 3.107 52.145 5.265 8.814.73 17.568 1.773 26.377 2.516 4.541.325 9.076.877 13.606 1.234 4.043.584 10.032.186 12.872 2.235-3.498 16.709-16.242 25.03-31.481 26.229-7.491.461-5.234 10.372-5.519 15.03V1096h85V855c-7.574.155-15.152.1-22.656-1.053-6.609-1.822-11.443-.534-16.402 3.211-36.704 20.21-74.806 38.133-113.942 53.092M1277 2090h140v-134h-140zm0 169h139v-140h-139zm296-169h145v-133h-145zm0 169h145v-140h-145z" style="fill:#000;fill-rule:evenodd;stroke:none"/></svg>