<svg xmlns="http://www.w3.org/2000/svg" width="3000" height="3000"><path d="M363 2763h2274c-116.777-706.336-235.544-1412.426-352.792-2118.701-7.351-44.171-14.733-88.332-22.082-132.49-.76-5.347-1.88-10.63-2.64-15.97-.062-6.502-4.856-8.386-10.16-9.572-81.497-27.15-162.975-54.317-244.46-81.467-142.336-47.478-284.708-94.881-427.04-142.357-13.532-4.49-27.037-9.017-40.56-13.514-6.477-2.17-12.972-4.309-19.44-6.486-6.235-1.594-13.427-5.493-19.495-5.034-100.387 32.434-200.209 66.92-300.466 99.791-150.35 50.002-300.828 99.614-451.039 150.05-5.982 1.452-6.275 6.662-6.798 11.742-24.43 146.388-48.84 292.799-73.214 439.189C565.92 1546.494 463.462 2154.662 363 2763m790-1450c-.894-16.988 11.414-34.001 19.925-45.913 14.678-19.637 30.89-38.113 44.766-58.36 1.975-1.927 3.517-6.05 6.144-6.232 5.051.906 8.68 5.327 13.452 7.117 7.747 3.597 16.032 6.486 24.675 6.367 8.498 1.004 16.73-.843 25.038-1.979-1.733 17.862-7.353 35.29-8.2 53.32-1.26 8.343-1.313 16.861-2.632 25.186-.387 1.783-.459 3.307-.325 5.043 1.338 13.911 5.3 30.123 13.087 42.447 6.586 12.354 15.357 23.201 24.566 33.652 2.313 2.578 4.715 5.031 6.75 7.825 1.104 6.552-2.865 12.99-4.177 19.263-7.77 25.513-16.02 50.87-23.633 76.425-7.019 21.475-13.29 43.147-17.993 65.249-6.838 33.119-10.494 82.707 26.709 109.747 11.528 8.776 28.575 13.04 41.547 13.843 25.535 2.253 57.344-1.718 77.703-14.364 15.872-10.335 26.932-26.38 33.647-43.886 11.126-27.31 15.645-56.722 23.99-84.867 7.752-28.317 16.603-56.306 27.436-83.608 6.97-19.092 16.248-37.345 25.525-55.275 9.09.009 18.12 1.349 27.18 1.798 3.805.578 8.573-.403 11.558 1.147 2.623 7.07.322 14.183 1.262 21.625.197 51.12 2.47 103.904-8 153.93 3.285 4.068 1.025 11.702 2.923 17.175 4.568 22.37 32.163 22.26 49.12 22.284 17.026-.85 41.394-1.915 50.467-22.032 6.51-15.07 5.094-32.04 5.516-47.97.385-16.357 1.846-32.641 3.804-48.865 3.423-29.845 12.604-58.514 21.17-87.092h4c13.694 29.791 28.211 59.628 37.107 91.414 6.7 24.024 10.82 48.849 20.112 72.122 6.955 16.685 14.346 34.868 29.21 46.218 10.989 9.944 26.403 11.911 40.415 9.408 20.864-3.07 40.15-13.462 56.268-26.75 15.235-12.262 30.884-30.368 37.26-47.35 6.234-15.062 5.442-31.759 1.884-47.313-4.374-23.38-14.616-44.928-24.143-66.481-9.495-21.86-17.19-44.496-21.87-67.888-3.402-23.068-1.08-50.763 2.566-71.737 2.088-11.819 4.58-23.56 8.034-35.055 1.7-5.333 3.407-11.692 5.127-16.526 2.763-5.07 3.177-12.7 7.03-16.062 4.012 1.034 6.047 7.175 9.628 10.092 5.845 7.476 12.716 13.87 19.991 19.904 3.335 3.11 7.387 5.365 10.664 8.523 3.08 2.605 1.762 8.824 3.433 12.848 3.473 16.555 14.161 29.954 26.26 41.108 20.911 19.98 47.808 34.072 76.43 38.89 10.131.737 24.501 2.926 35.118-1.735 11.429-5.87-2.997-16.573-6.79-21.72-5.366-6.372-11.768-11.895-16.189-19.069-7.99-11.548-13.532-24.577-21.697-35.997-6.076-8.389-13.979-18.3-22.673-22.739-7.258-3.929-15.212-6.454-23.349-7.813-6.521-1.397-13.256-.801-19.796-1.669-4.046-.281-7.293-6.627-10.4-8.493-9.588-9.68-18.05-20.417-26.408-31.136a225 225 0 0 1-11.128-14.856c-2.957-5.111-8.157-10.607-9-16.148-2.712-55.566-14.986-111.602-43.177-160.163-19.43-35.162-46.308-66.071-77.47-91.235-23.32-19.099-49.787-34.054-76.42-47.757-2.16-46.367-21.758-90.557-44.047-130.74-22.873-37.14-51.045-76.33-93.908-92.163-12.728-4.339-26.18-5.391-39.512-4.932h-21.416c-5.842-1.033-14.602 1.835-18.644-1-3.952 3.092-10.764 1.679-15.283 2.54-36.415 1.61-74.945 5.49-106.853 24.907-7.734 4.472-14.732 9.961-21.558 15.69-5.206 4.21-9.454 9.463-14.46 13.873-8.925 6.51-21.24 4.38-31.4 4.99-5.676-.033-11.363-.033-17.03.304-2.72.129-5.427.28-8.145.403-2.352-.152-5.141.6-5.771-1.707-10.278 1.417-20.481 3.132-31 3-2.781-16.605-14.924-34.031-26.77-43.538-13.846-11.072-31.409-16.702-49.014-17.286-18.571-.487-37.207.761-55.603 3.228-12.745 2.129-28.045 3.627-39.424 7.05-17.307 6.652-35.065 20.089-47.059 31.916-13.494 13.27-26.434 28.15-32.852 46.293-2.422 5.591-2.072 13.91-3.51 18.604 1.722 23.706 3.518 48.473 5.594 72.4 3.903 36.68 6.8 74.076-3.004 110.152-7.773 34.94-17.568 70.03-16.358 106.168V1043c-9.608-.5-19.07-4.227-28.856-2.613-13.513.722-26.167 9.279-31.59 21.804-6.742 13.851-4.73 26.347-.36 39.362 11.405 27.912 35.067 48.472 58.682 66.074 12.384 8.988 25.015 17.639 38.154 25.472 2.726 1.674 6.112 3.427 8.196 5.534 3.085 2.016.863 8.236 1.082 10.932-4.344 29.2-13.603 57.359-20.225 86.064-13.215 49.856-12.352 106.925 18.11 150.85 20.053 31.694 54.73 54.82 92.174 59.138 29.332 2.127 60.954-2.465 84.662-21.354 16.723-12.115 29.42-29.214 36.783-48.386 11.492-29.705 9.382-69.432-4.016-95.281-6.61-13.354-16.666-25.668-30.725-31.478-8.219-3.326-17.76-3.556-26.047-.522-6.905 2.753-14.392 6.35-22.024 4.404m-127-155c-.241-12.217-.914-26.257-1.33-38.038l-.376-15.398c-.707-3.73.753-8.904-1.381-12.538-4.137-4.645-13.08-5.889-17.477-7.754-10.242-2.87-20.315-6.201-30.617-8.829-5.297-1.443-10.716-2.32-16.207-2.396-4.561-.197-10.254-.1-12.433 5.877-6.308 20.985 13.18 36.788 25.461 47.797 14.915 11.928 30.633 23.144 47.83 31.542 1.97.931 4.724.032 6.53-.263m-20 1030.5c1.516 2.408 6.465 4.846 9.5 6.5 16.425-14.216 33.284-27.95 48.974-42.974 7.609-8.107 16.047-15.286 24.001-23.001 3.896-3.788 7.095-8.227 11-12 4.095-3.33 7.8-9.37 12.525-10.025v498c21.333.074 42.85.205 63.763-4.486 14.317-3.212 28.235-8.002 41.693-13.763 9.684-3.983 19.045-8.838 27.42-15.148 9.516-5.689 6.91-15.49 7.124-23.418V1945c11.583-1.545 26.064-7.214 30-17.332-3.252-3.157-9.739-3.82-14.355-6.212-5.428-1.541-11.525-4.61-16.645-5.456.703-7.462 8.154-15.441 11.315-23.51 28.653-54.505 56.209-110.332 76.685-168.49 14.361.228 31.958-.396 40-18.5-63.606-20.882-129.735-36.884-193.5-57.5-4.16 10.97-4.576 25.31-7.51 35.634-17.195 88.343-42.027 174.942-70.026 260.386-14.234 42.443-30.227 84.26-47.042 125.72-8.274 20.165-17.178 40.073-26.007 59.99-9.248 19.54-18.712 39.939-28.915 58.77M1335 1155c9.968-1.007 18.202-13.518 22.941-19.888 5.67-8.307 9.82-17.508 13.687-26.735 12.437-30.531 12.842-63.88 12.372-96.207V909h36c1.058 61.594 2.9 124.898 23.152 183.803 5.591 12.559 13.003 28.912 24.931 33.357 10.829 4.556 23.522-1.094 28.83-11.12 8.476-13.102 14.86-27.913 25.496-39.5 11.692-11.422 28.287-14.638 42.064-22.537 6.602-3.423 12.54-7.805 17.066-13.733 10.01-8.35 16.177-20.236 20.83-32.196 4.068-9.325 5.366-21.417 9.107-29.93 6.896-13.11 20.793-24.501 30.474-33.669 10.768-10.215 19.467-22.278 26.392-35.35 7.654-16.407 10.47-34.986 9.364-52.997-2.968-26.433-14.464-51.07-25.16-75.024-11.076-22.828-24.652-44.559-41.655-63.456-10.306-11.706-21.851-22.704-36.17-29.296-11.775-6.739-25.348-7.02-38.439-6.352-39.11.379-79.131-1.248-117.3 9.033-13.202 4.338-27.993 12.1-37.418 20.792-8.002 7.053-17.163 15.798-23.472 23.301-6.029 8.523-14.647 7.57-23.467 7.418-27.356.76-54.73-.078-82.053 1.598-45.047 3.048-91.01 15.748-125.855 45.904-16.77 15.107-30.883 33.448-39.088 54.594-4.427 11.021-7.827 22.443-8.99 34.31-.886 6.015-1.262 12.063-1.56 18.121.498 6.61-2.997 10.445-6.757 14.851-9.188 11.858-14.296 26.362-14.822 41.246-.354 56.143 4.358 113.92 6.707 170.356.561 28.857 3.231 57.973-.745 86.69-3.91 27.462-12.43 54.03-18.527 81.038-5.198 20.782-9.433 42.027-8.935 63.537-.398 20.248 1.72 40.95 10.254 59.644 7.4 16.196 18.807 30.598 33.506 40.751 13.822 9.18 30.568 15.077 47.284 14.323 16.719.948 34.475-1.674 48.748-11.005 12.801-7.617 21.666-19.714 27.051-33.373 5.146-14.447 6.043-30.203 4.632-45.366-.576-6.562-2.432-12.873-4.706-19.01-1.972-5.545-5.746-12.252-10.84-14.654-14.751-6.645-23.722 5.917-28.764 15.416-5.015 9.053-13.558 19.404-27.225 18.448-11.293.225-20.428-8.504-24.675-18.112-7.007-19.812-2.74-41.731 5.21-60.515 13.381-31.976 37.703-57.603 58.548-84.636 8.02-10.283 16.104-20.528 23.837-31.014 3.012-4.514 7.875-9.924 6.091-14.765-3.187-10.977-4.068-22.82-1.63-34.046 4.863-18.322 15.494-35.123 28.52-48.677 11.083-7.783 21.698-17.24 35.374-20.24 10.56-2.53 22.133-1.85 31.96 3.132 14.535 6.904 23.274 21.707 28.879 36.049 6.698 15.384 8.421 32.286 8.946 48.861m-101.92-6.238c.127 9.857 3.461 19.625 10.54 26.33 7.31 8.265 16.217 9.614 25.921 8.882 9.022-.117 17.768-4.846 23.326-11.829 7.04-7.642 7.253-15.81 7.56-24.875.701-9.288-1.75-18.516-4.025-27.39-2.387-7.567-5.263-18.48-15.42-21.95-12.73-3.71-24.686 9.234-32.339 16.948-8.662 8.652-15.368 22.295-15.563 33.884m16.972-159.895c-.457 16.886 15.83 32.845 32.79 30.895 15.846-2.109 28.774-16.986 27.317-33.008-1.141-15.818-16.623-29.183-32.424-27.633-14.625.537-28.16 16.678-27.683 29.746M1270 2510.16c2.122 4.156 2.921 7.805 4.5 11.841 61.015-11.438 121.218-28.914 178.533-53.067 28.076-11.551 55.39-24.623 82.3-38.608 13.461-6.922 26.374-14.837 39.735-21.94 6.5-3.415 12.482-7.689 18.805-11.38 6.076-2.834 13.494-9.395 19.127-10.005-1.817 23.313-4.012 46.903-10.567 69.453-2.662 9.758-7.644 23.212-20.586 23.255-6.37.502-12.767.18-19.144.292h-9.599c-2.802-.081-6.448.278-7.104-2h-1.5c-2.388 2.306-6.552 1.23-10.056 1.093-3.483-.61-9.355.903-10.444-2.093h-1.5c-3.698 2.94-10.644.141-16.059.862-8.572-.566-17.147-1.236-25.723-1.686-4.304-.26-8.624-.468-12.928-.686-3.77-.275-8.658.06-10.29-2.49-.978 1.026-2.108 1.751-3.5 2-.381 3.047-.503 5.99 0 9 24.371 6.492 54.568 17.078 70.34 35.216 17.328 22.767 21.711 52.029 20.66 79.784 28.583-.604 57.213-1.823 85.476-6.439 19.797-3.745 40.79-8.46 56.754-21.724 23.616-19.575 35.05-49.608 41.934-78.575 7.068-31.602 8.497-64.4 5.094-96.575-9.475-94.077-55.925-187.407-131.258-245.687-.386-5.34 7.673-7.44 11.008-9.713 15.005-8.39 29.611-17.37 43.74-27.14 7.17-5.165 14.402-10.295 21.404-15.666 3.35-2.744 6.784-5.392 10.138-8.118 2.998-2.134 6.424-6.286 10.71-6.363 9.028 83.981 21.278 168.319 48.531 248.618 13.431 38.49 30.548 75.932 53.148 109.954 10.14 17.082 22.444 32.762 34.778 48.27 6.536 7.817 12.843 15.884 20.017 23.133 6.914 5.758 11.993 15.98 21.526 21.025 8.368-28.418 24.429-54.481 44.005-76.501 20.197-21.113 46.964-36.766 75.995-41.499.595-3.313 1.036-6.639 1-10-37.532-17.015-72.83-39.198-106.89-62.29-17.035-12.52-34.426-24.825-49.626-39.606-8.092-7.012-15.698-14.654-23.08-22.41-3.297-4.313-7.356-7.954-10.757-12.159-3.004-4.037-8.179-8.023-8.647-12.535 31.377-4.651 62.256-12.566 92.858-20.683 15.636-4.744 31.39-9.179 46.926-14.21 4.006-1.084 8.01-3.098 12.27-2.546 10.88 3.914 26.272 5.881 33.946-2.061-39.279-39.606-83.488-75.377-123.5-114.5-13.113 23.598-26.026 47.514-40.653 70.277-10.53 17.36-22.115 34.034-33.554 50.793-2.293 2.792-4.665 7.831-8.26 7.394-5.2-4.586-9.132-12.344-12.602-17.589-13.884-21.376-24.492-44.678-33.99-68.253-4.7-12.425-9.185-24.908-12.641-37.736-3.242-12.401-8.407-27.045-8.8-38.886h69c.14 8.44-.292 19.337.457 28.733 1.6 4.443 9.636 2.992 13.182 3.267 4.972-.028 9.95.044 14.906-.05 36.038-2.329 71.855-11.094 105.346-24.441 6.58-2.243 7.724-6.628 7.109-12.457V1920c10.51-2.4 25.384-6.932 30-17-40.694-27.265-79.106-59.069-119.5-87-11.053 10.956-21.586 22.049-32.097 33.306-3.743 4.685-7.99 8.892-12.273 13.064-3.75 3.092-7.7 8.622-11.025 10.883-8.485 4.415-20.376 1.984-28.674 2.747-30.13-.909-60.361 1.242-90.431-1v-3c30.582-12.707 59.94-28.58 88.985-44.439 14.218-7.43 27.765-16.08 41.695-24.02 12.553-8.386 33.285-2.54 46.32-17.041-41.174-33.176-79.836-70.128-121.5-102.5l-51.733 51.733c-4.383 4.374-8.759 8.77-13.14 13.134-6.129 6.454-19.135 3.19-28.629 4.133H1590c.933-6.452 9.334-11.597 13.255-17.72 3.633-4.204 7.044-8.588 10.67-12.783 2.794-3.936 5.38-6.76 9.997-6.058 11.735.914 30.369 2.548 34.078-10.439-61.398-17.804-121.686-39.857-183-58-18.339 59.44-49.346 114.299-81.247 167.31-32.798 51.51-70.794 99.83-116.753 140.19l5.5 5.5c10.582-4.65 21.602-8.65 32.221-13.288 10.152-3.13 20.693-10.792 30.279-12.712v177c25.783.246 51.932.905 77.142-5.564 12.1-3.02 24-7.301 34.745-13.688 9.326-5.49 23.635-12.882 23.113-23.748h61v2.5c-36.215 37.56-78.382 68.627-121.481 97.691-43.746 27.086-89.46 52.401-137.519 70.809.677 4.342 4.327 7.65 5 12 46.352-9.763 92.68-20.259 137.951-34.266 23.196-6.161 45.582-14.73 68.178-22.645 10.512-4.2 21.225-7.891 31.622-12.353 10.648-3.447 22.193-10.547 32.249-12.736-.495 4.273-4.97 5.259-6.092 8.21-3.797 5.277-9.96 12.177-14.295 15.333-5.713 3.491-9.236 10.81-13.828 14.6-35.787 34.561-75.992 64.286-116.647 92.763-19.936 13.663-40.677 26.089-61.76 37.88-11.283 6.156-22.679 12.066-34.25 17.652-5.657 3.058-11.514 5.7-17.41 8.236-2.129 1.138-6.519 3.077-6.15 5.51 1.102 2.68 1.894 5.605 3.932 7.816 50.468-11.202 100.66-24.15 149.225-42.071 24.598-8.103 48.389-18.315 72.449-27.808 11.38-5.18 22.914-10.024 34.232-15.32 5.749-2.862 11.768-5.212 17.441-8.23 5.807-2.374 12.237-7.17 18.153-7.571-.189 7.405-8.998 14.231-14.102 20.602-21.153 22.586-42.786 44.302-66.25 64.507-34.493 30.478-71.413 58.354-109.983 83.465-38.73 24.446-79.097 47.354-121.665 64.426zM1569.5 1347c3.512 3.089 9.761 1.471 13.95 2.11 7.284.264 15.864 1.378 22.241-.696 3.843-.665 7.792-.301 11.666-.414 3.088.252 7.845-.594 8.643 2 12.842-.977 25.716-1.141 38.575-1.06 11.536-2.849 24.267 2.35 34.925-2.94 2.247 2.164 5.381 1.485 8.271 1.597 2.583-.335 4.59 2.814 6.39 4.978 14.35 17.89 24.443 38.573 34.122 59.22 8.066 18.115 15.603 36.479 21.604 55.387 5.154 17.155 8.867 34.675 13.174 52.054 3.938 14.354 8.304 31.499 14.064 43.92 2.944 5.724 6.787 11.597 12.887 14.296 11.511 4.696 26.114-4.11 36.024-8.586 9.811-5.274 17.652-12.93 24.88-21.167 7.399-5.236 13.16-12.408 15.563-21.672 2.25-16.843-2.309-36.824-7.924-51.145-20.163-46.589-44.037-94.968-41.539-147.361 1.992-35.242 9.183-70.27 20.535-103.663 2.833-8.347 6.067-16.511 9.055-24.792 2.511-6.04 5.266-11.969 7.823-17.975 2.106-4.796.922-10.168.743-15.185-.516-15.076-1.201-30.203-3.99-45.068-6.575-46.49-26.666-90.552-55.268-127.446-14.377-18.478-30.985-35.084-49.809-49.032-8.643-6.877-18.066-12.632-27.388-18.514-4.648-3.27-9.755-5.774-14.685-8.535-4.802-2.863-10.79-6.443-16.032-6.311-5.378 17.447-18.552 35.189-29.735 47.235-6.059 5.897-11.998 11.861-17.434 18.33-5.268 5.464-10.879 10.755-14.545 17.502-7.515 12.949-9.51 28.208-16.477 41.312-5.794 11.012-12.772 21.635-21.941 30.167-15.836 15.055-35.55 24.112-54.771 33.716-14.525 7.526-22.902 22.21-30.999 35.611-6.698 9.969-13.772 20.55-24.9 25.95-17.335 7.381-38.096 4.48-53.721-5.611-14.85-9.405-26.695-28.14-31.477-43.212-4.403.4-5.042 6.735-6.77 9.913-6.673 15.636-15.248 30.57-26.29 43.525-10.752 11.917-23.796 21.616-38.678 27.715-1.354.909-3.917 1.336-3.764 3.697 11.7 26.905 28.264 51.62 40.968 78.06 3.085 5.765 6.58 11.34 9.084 17.395 1.952 5.43-2.272 12.952-3.605 19.353-15.516 48.59-29.788 97.573-45.68 146.041-10.409 37.191-25.686 73.594-29.206 112.419-.448 14.64-.992 30.48 7.427 43.332 7.384 9.946 19.838 15.174 31.996 15.49 21.952.382 51.206.335 63.884-16.184 9.342-13.228 12.622-29.54 16.664-44.87 6.256-24.21 11.644-48.634 19.005-72.55 6.858-23.264 16.382-45.628 24.419-68.482 9.328-23.755 19.682-47.063 30.473-70.17 1.144-2.934 2.622-5.722 4.019-8.53 1.134-1.986 2.924-6.027 5.165-5.56 9.942.818 19.773 3.35 29.801 3.754 5.12.854 10.327 1.232 15.497 1.515 4.24-.115 10.348 1.513 13.091-.863m75.5 433c-27 .303-54.017-.37-80.995.2-4.041.299-7.284 4.867-10.629 7.868-24.34 22.168-48.686 44.34-75.281 63.876-3.077 2.603-6.957 5.282-9.857 7.548-8.077 7.41 4.108 10.985 10.022 12.436 5.154 1.443 10.002 4.523 15.484 4.631 18.465-1.16 36.998-.145 55.475-.559 14.329-.042 28.653.051 42.97-.028 11.126.697 14.253-11.599 18.23-18.809 6.126-12.802 12.356-25.537 18.25-38.444 4.791-12.632 13.166-26.72 16.331-38.719m-165 262h84v-138h-84zm216 0h85v-138h-85z" style="fill:#ffe;fill-rule:evenodd;stroke:none"/><path d="M244 2863.5c418.26 1.426 837.325-.26 1255.75.5 418.681-.76 837.643.926 1256.25-.5-137.483-816.352-271.828-1633.965-409-2450.5-141.513-45.746-282.358-94.352-423.703-140.74-105.839-35.248-211.646-70.575-317.47-105.817l-60-20a8496 8496 0 0 1-28.008-9.343c-4.68-1.543-9.347-3.083-13.982-4.729-5.086-2.015-9.193.742-14.014 2.193-139.528 46.49-279.049 93.006-418.557 139.507C931.703 319.858 792.72 367.853 653 413c-137.126 816.275-271.612 1634.71-409 2450.5m2014-2374c-125.952-43.93-253.833-84.21-380.181-127.4-95.205-31.693-190.356-63.475-285.553-95.171-17.796-5.994-35.652-11.835-53.447-17.829-8.52-2.817-17.015-5.657-25.52-8.495-4.005-1.231-8.613-3.125-12.41-3.767-63.25 20.199-127.559 42.687-191.024 63.362-95.507 31.916-191.062 63.633-286.568 95.54-47.833 15.913-95.637 31.905-143.47 47.817-23.844 7.95-47.684 15.888-71.528 23.838-12.001 4.028-24.011 7.976-36 12-11.213 4.21-25.413 6.718-32.299 14.605-123.521 749.703-250.12 1499.052-374.284 2248.678-.418 5.827-2.715 12.663-2.316 18.006.871 6.983 13.32 4.9 17.447 5.316h2218.831c9.216-.067 18.404.082 27.605-.045 3.385-.083 8.257-1.042 9.136-4.947.92-7.845-2.296-15.705-2.828-23.483-17.165-103.086-34.354-206.148-51.543-309.22-105.598-632.472-211.056-1264.95-316.234-1897.486-1.231-7.003-2.3-14.019-3.528-21.008-.688-3.85-1.257-7.694-1.924-11.537-.508-1.542-.565-4.395-2-4.784-.031-1.344-1.034-2.612-.362-3.99" style="fill:#70706f;fill-rule:evenodd;stroke:none"/><path d="M1154 1312c-.323-11.39 5.593-21.8 11.008-31.44 18.808-26.357 40.223-50.795 58.492-77.56 4.395 1.743 8.033 5.837 13.269 7.843 15.379 6.932 32.781 8.047 49.231 4.157-2.71 17.26-6.91 34.385-8.26 51.867-2.098 16.246-4.207 32.89.229 48.926 2.614 14.351 10.38 27.03 18.459 38.875 3.948 5.397 8.079 10.646 12.449 15.702 3.284 4.83 10.837 10.27 10.328 15.27-13.497 50.681-33.013 99.793-44.663 150.993-4.59 19.44-6.294 39.676-4.741 59.583 1.283 16.76 7.285 33.2 18.23 46.05 9.351 11.2 22.514 18.482 36.522 22.032 25.642 6.192 57.76 3.326 80.583-3.958 18.052-6.034 33.256-18.937 42.054-35.836 15.016-25.36 19.52-55.271 27.174-83.22 7.326-28.189 15.079-56.345 25.567-83.552 8.273-25.264 19.511-49.472 32.069-72.732 10.293.774 23.574 1.706 34.79 2.414 3.306-.333 2.978 4.618 3.202 6.6.024 22.088-.005 44.17.008 66.245-.388 18.886.831 37.902-1.328 56.696-2.043 15.92-5.344 31.91-5.25 48.025.836 11.864.163 26.958 15.946 33.174 11.183 5.334 23.91 4.905 35.914 4.818 17.861-.533 43.89-2.096 52.151-24.119 5.527-15.23 4.269-31.732 4.628-47.58.523-45.936 10.846-90.854 24.939-134.273h2c13.634 29.624 28.042 59.316 36.973 90.9 6.727 24.034 10.834 48.854 20.059 72.168 7.013 16.627 14.213 34.897 28.973 46.34 11.043 10.09 26.502 12.287 40.727 10.008 21.193-2.475 40.752-12.8 57.192-25.987 15.251-12.318 31.26-30.093 37.925-47.061 11.71-30.847.089-64.645-11.324-93.542-13.166-28.92-26.047-58.348-31.952-89.795-2.424-11.93-2.543-24.087-1.644-36.134 1.99-35.042 9.617-70.698 23.571-102.897 6.033 6.952 11.182 14.674 17.977 20.967 6.151 6.27 13.3 11.368 20.087 16.866 3.285 2.447 2.85 7.795 3.66 11.38 3.095 15.555 11.78 29.282 23.378 39.89 18.88 19.684 43.726 33.18 69.903 40.24 10.21 2.146 22.6 3.825 32.208 3.057 5.693-.241 23.658-.966 18.811-13.016-7.954-13.382-21.46-22.652-29.367-36.106-11.797-18.858-20.777-41.552-40.294-54.245-10.01-5.94-23.443-9.121-34.01-9.706-5.704-.284-12.527.748-16.747-4.721-4.044-4.112-8.344-8.041-11.89-12.595-8.554-9.422-16.448-19.405-24.118-29.545-4.729-6.791-9.863-13.385-13.933-20.604-2.296-6.636-1.27-14.013-2.31-20.865-1.608-19.503-4.488-38.907-8.86-57.983-14.248-62.36-47.414-119.803-94.614-163.01-17.599-15.684-36.484-29.755-56.784-41.733-8.974-5.28-18.074-10.347-27.32-15.137-4.88-1.72-10.332-3.496-9.273-10.64.51-19.823-5.23-39.15-12.026-57.55-10.987-31.282-26.08-60.943-44.754-88.297-14.419-20.268-29.795-40.72-50.89-54.652-14.583-11.543-32.338-19.025-50.94-20.549-30.83-1.99-61.591.12-92.253 2.041-28.821 2.202-58.358 6.45-84.102 20.641a146 146 0 0 0-27.567 19.267c-6.641 4.97-12.308 13.87-19.51 16.9-14.25 3.23-29.14.69-43.556 1.879-14.1.83-28.297-.418-42.406 1.826-2.781-16.605-14.924-34.031-26.77-43.538-13.84-11.07-31.404-16.7-49.014-17.286a361 361 0 0 0-56.49 3.073c-12.921 2.193-28.43 3.597-39.99 7.023-17.569 6.504-35.48 20.227-47.606 32.098-13.584 13.41-26.747 28.42-33.023 46.828-4.308 12.367-2.576 25.544-1.852 38.2 1.49 22.708 3.372 45.351 5.29 68.014 1.777 17.644 2.91 35.33 2.431 53.069-3.471 50.31-25.84 98.467-22.976 149.519-15.206-2.262-36.22-7.687-51.341 6.914-13.227 12.406-16.087 31.766-10.93 48.555 8.253 28.895 32.477 49.758 55.185 67.457 12.331 9.14 24.889 18.074 37.978 26.089 5.687 3.874 15.553 7.127 14.785 14.075-3.703 29.831-13.472 58.479-20.123 87.687-13.388 50.372-13.577 108.439 16.764 153.268 19.907 32.441 55.109 56.108 93.049 60.572 29.456 2.1 61.293-1.725 85.416-20.454 16.985-11.957 30.1-29.073 37.644-48.32 11.963-30.168 10.22-70.884-3.203-97.369-6.651-13.673-16.822-26.48-31.24-32.367-7.518-3.15-17.406-3.343-24.533-1.594-7.702 1.833-15.198 7.257-23.451 5.487m-207.947-225.69c-.375 17.376 19.615 33.289 29.855 42.016 13.745 10.61 27.998 20.838 43.648 28.462 1.452.789 3.56 1.18 4.618-.16.87-13.753-1.066-28.499-.671-42.506l-.29-11.864c1.32-12.95-10.802-14.703-19.312-17.146-14.857-3.837-32.025-10.641-46.277-11.041-7.745-.639-12.118 5.212-11.571 12.239M1004 2189.625c3.464 2.794 8.329 4.824 11.5 7.375 16.148-14.179 32.716-27.883 48.472-42.494 7.528-8.173 15.94-15.4 24.003-22.981 7.407-7.936 14.437-16.221 22.525-23.525 1.426 165.823-.26 332.097.5 498 21.628.087 43.43.297 64.675-4.235 14.69-3.258 28.977-8.125 42.781-14.014 9.835-4.057 19.33-8.978 27.81-15.445 8.977-5.277 6.609-16.378 6.734-24.32V1946c11.164-2.043 26.897-6.224 31-20-10.493-2.912-22.146-9.096-32-11 32.366-61.55 65.41-123.928 88-190 8.426.288 17.193.68 24.867-3.478 8.841-3.334 12.404-9.703 16.133-17.022-32.71-10.555-66.23-19.136-99.108-29.257-32.64-9.294-65.087-19.635-97.892-28.243-17.95 94.788-40.976 188.708-71.9 280.175-14.504 45.671-31.79 90.406-49.37 134.945-9.338 21.247-17.703 42.93-27.66 63.89-9.542 21.376-20.435 43.009-31.07 63.615M1336.5 1154c17.606-8.816 27.217-31.345 34.128-46.623 12.437-30.531 12.842-63.88 12.372-96.207V908h38c1.076 61.75 2.897 125.23 23.32 184.252 6.214 12.522 11.933 28.035 25.27 33.078 10.562 4.115 22.043-2.673 26.786-12.089 8.49-12.635 15.713-29.989 26.158-39.627 11.738-11.265 28.731-13.795 42.096-22.34 6.999-3.058 12.177-8.402 16.995-14.067 10.066-8.092 15.268-20.526 20.116-32.062 3.834-9.238 5.157-21.125 8.963-29.455 6.96-12.875 20.661-24.14 30.246-33.215 10.626-10.093 19.257-21.983 26.135-34.866 7.686-15.56 10.87-36.324 9.562-52.123-3.02-26.028-14.397-50.247-24.846-73.89-11.162-22.775-24.515-44.682-41.578-63.557-10.245-11.765-21.796-22.737-36.043-29.457-11.522-6.656-24.826-7.245-37.701-6.582-38.7.34-78.3-1.145-116.085 8.909-13.021 4.19-27.647 11.712-37.006 20.186-8.04 7.26-16.217 14.546-23.3 22.793-2.451 3.018-6.134 7.4-9.473 7.891-31.554 1.971-63.286.542-94.865 2.227-44.747 2.918-91.004 14.64-125.968 44.388-17.34 14.204-30.663 32.744-39.88 53.006-4.727 11.017-8.29 22.509-9.832 34.424-.931 5.908-1.577 11.86-1.814 17.836.258 5.35-.143 11.292-5.017 15.772-9.244 11.124-16.23 27.42-16.413 40.764-.749 56.833 3.894 113.795 6.336 170.624.572 28.797 3.097 57.77-.276 86.475-3.704 27.209-11.72 53.576-18.013 80.24-4.898 20.685-9.824 41.742-9.873 63.101-.566 20.157.97 40.822 9.277 59.57 13.3 33.314 46.542 59.086 83.38 57.335 16.519.326 33.997-2.616 47.606-12.753 26.177-17.86 34.482-52.856 28.005-82.51-2.73-12.194-8.245-28.026-21.5-27.661-12.374.362-18.198 16.104-24.563 23.954-6.731 10.031-20.512 13.877-31.864 10.273-23.025-9.555-22.268-38.059-19.098-56.448 7.673-36.253 31.665-66.106 54.577-93.955 8.857-10.577 17.409-21.388 25.716-32.386 3.736-4.748 7.423-9.536 10.777-14.546 1.651-2.41 3.313-4.798 4.59-7.422 1.508-1.535-1.36-4.965-1.04-7.266-6.015-22.221.723-45.79 14.434-63.713 16.728-22.655 48.026-49.71 81.849-34.504 14.877 6.715 24.077 21.49 29.731 36.1 7.537 15.427 7.752 32.736 9.623 49.296m-102.348-4.996c.333 9.185 3.555 18.3 10.105 24.718 6.316 7.686 16.08 10.43 25.668 9.205 8.545-.506 16.644-5.196 21.942-11.782 6.818-7.487 7.359-15.437 7.421-24.35.593-8.952-1.666-17.872-4.038-26.403-2.349-7.312-5.136-17.708-14.795-21.294-12.311-3.927-25.005 11.22-31.523 17.526-7.99 8.808-14.189 20.165-14.78 32.38m14.874-160.032c-.843 17.734 15.802 33.812 33.49 31.92 16.78-1.37 30.02-17.02 28.929-33.593-.775-16.833-16.564-30.97-33.4-29.239-15.683-.188-30.043 17.055-29.019 30.912M1273 2523c61.253-10.142 120.766-28.592 178.184-51.881 55.188-23.312 109.156-50.296 159.316-83.119h1.5c-1.852 18.762-3.392 37.646-7.56 56.082-3.352 12.469-7.2 32.054-20.213 34.206-43.642 3.109-87.65-4.136-131.227-4.288-.598 3.68-.753 7.338 0 11 24.371 6.492 54.568 17.078 70.34 35.216 17.328 22.767 21.711 52.029 20.66 79.784 28.682-.348 57.37-1.819 85.758-6.142 19.541-3.354 39.73-7.891 55.978-20.031 23.988-18.532 36.3-47.6 43.358-76.225 7.84-31.227 9.354-63.791 6.88-95.792-7.836-96.748-54.376-193.145-131.974-252.81 1.303-4.224 8.367-5.17 11.886-8.252 14.746-8.136 28.958-17.12 42.862-26.602 14.413-8.49 26.525-21.018 40.252-30.146 9.165 84.278 21.3 169.007 48.87 249.564 26.405 76.797 71.597 146.754 129.63 203.436 10.462-28.13 23.883-55.673 44.78-77.751 20.354-21.43 47.287-37.513 76.72-42.249.85-3.29.715-8.002 2-10.5-73.876-38.019-146.878-82.554-200-148 31.57-6.133 63.47-12.5 94.41-21.606 15.854-4.821 31.774-9.396 47.547-14.443 8.346-3.6 15.03 1.064 23.667 1.457 6.824.17 17.205.538 21.376-7.408-42.007-38.644-83.99-77.47-126.5-115.5-11.263 22.965-24.769 44.817-37.857 66.779-14.183 20.974-26.52 43.655-42.643 63.221-17.752-22.368-30.078-48.923-41.854-74.775-5.89-13.91-10.918-28.138-15.379-42.561-2.264-7.167-4.358-14.383-6.04-21.702-1.885-6.994-4.587-15.256-4.727-21.962h51.6c3.798.08 7.581-.113 11.366.097 5.104.06 5.439 3.57 5.029 7.414.272 6.837-.338 13.708.24 20.514.096 4.242 4.333 3.857 7.297 3.973 23.673.367 47.613-.677 70.606-7.028 16.886-3.724 33.478-8.712 49.729-14.52 5.373-2.13 13.599-4.708 13.952-10.646.517-49.593-.094-99.207.181-148.804 11.623-2.396 23.726-6.821 31-17-39.85-30.623-81.385-59.633-121.5-90-10.861 10.676-22.861 23.532-32.396 33.516-3.784 4.63-7.835 9.007-12.206 13.086-7.1 7.21-12.918 17.09-26.361 15.398-34.814-.76-69.767.926-104.537-.5 6.338-4.402 14.569-8.126 21.328-11.128 27.424-12.458 53.591-27.582 80.224-41.578 12.692-6.708 24.52-14.88 37.146-21.668 12.608-3.394 30.076-1.335 41.302-14.626-41.634-34.123-81.346-71.155-123.5-104.5l-51.733 51.733-13.137 13.137c-6.36 7.57-19.41 4.4-28.08 5.13-9.753-.604-19.923.77-29.55-.5 9.608-10.766 18.926-21.96 28.368-32.85 11.213-4.365 31.965 6.374 40.632-11.963-2.555-2.366-7.455-2.93-11.14-4.576-29.394-8.67-58.202-19.188-87.585-27.866-29.184-8.574-57.822-19.793-87.275-27.245-18.352 59.578-49.505 114.518-81.451 167.643-32.957 51.824-71.28 100.329-117.549 140.857 2.938 2.925 6.108 7.24 10.86 5.284 4.666-1.708 9.236-3.673 13.859-5.481 14.844-5.815 29.466-12.36 43.781-19.303 1.426 58.878-.26 118.06.5 177 26.252.183 52.914 1.148 78.618-5.446 12.136-2.912 23.997-7.285 34.814-13.529 9.377-5.65 24.082-12.965 23.568-24.025 19.571.737 39.546-.904 59 .5-36.534 37.74-78.893 69.193-122.445 98.245-43.223 28.653-90.47 50.654-137.555 71.755 2.07 3.451 4.575 8.308 6 12.5 46.664-8.57 92.883-20.528 138.394-33.844 44.942-12.278 88.683-30.479 131.606-47.656-37.277 41.835-80.66 78.442-126.41 111.295-45.744 32.352-93.83 62.371-145.59 84.205.616 3.64 2.774 7.515 4.59 10.282 2.169 3.117 8.465-.415 11.196-.237 59.637-12.384 117.948-30.624 174.742-52.455 36.615-12.795 71.201-30.822 106.472-46.59-.434 4.267-4.042 7.191-6.652 10.24-42.45 47.195-89.88 89.599-141.326 127.23-51.399 36.237-105.28 70.364-164.022 93.53.347 4.888 3.68 9.093 4 14m235-1183c42.455 9.287 86.315 8.126 129.478 8.25 19.483-1.03 39.005-.113 58.427-1.733 3.713.035 8.731-.247 13.132-.057 3.796-.111 6.18 6.403 8.508 8.314 9.784 12.43 17.214 26.4 24.13 40.56 14.055 27.407 25.18 56.292 33.61 85.89 6.428 26.271 11.528 53.2 21.618 78.403 4.175 9.324 11.508 21.265 25.761 17.367 10.713-2.69 20.824-7.641 29.758-14.058 4.11-3.166 8.507-6.031 11.94-9.971 2.676-3.727 6.19-7.264 10.41-10.069 15.84-13.36 11.949-39.588 6.457-56.548-5.007-16.147-13.26-31.014-19.528-46.65-11.704-27.885-21.368-56.745-25.197-86.83-2.71-45.95 6.847-91.908 21.765-135.144 3.877-10.543 7.759-21.125 12.473-31.317 1.474-3.661 3.8-7.925 3.86-11.611-1.062-29.61-2.712-59.489-12.145-87.903-22.22-76.56-80.078-143.45-153.457-174.893-5.378 17.447-18.552 35.189-29.735 47.235-6.059 5.897-11.998 11.861-17.434 18.33-5.268 5.464-10.879 10.755-14.545 17.502-7.515 12.949-9.51 28.208-16.477 41.312-5.794 11.012-12.772 21.635-21.941 30.167-8.182 7.134-17.082 13.438-26.343 19.042-16.394 8.851-35.449 15.154-46.83 30.987-7.772 11.686-14.972 23.723-23.858 34.632-14.717 17.54-42.082 18.396-61.55 9.286-19.66-8.995-32.33-27.914-39.787-47.493-7.7 17.362-15.233 35.574-27.9 50.222-11.452 15.76-28.65 25.114-45.6 33.278 15.829 28.908 31.25 58.354 46.95 87.391 1.544 3.413 4.03 7.225 4.565 10.682-.106 7.497-4.645 15.636-5.906 22.286a42178 42178 0 0 1-52.084 167.29c-6.707 21.238-13.832 42.319-18.082 64.232-3.702 18.405-5.815 42.053 1.008 58.443 6.762 16.082 25.517 22.212 41.54 21.176 14.908.092 33.187-1.043 45.6-7.55 10.457-6.475 16.191-17.77 19.743-29.154 12.558-43.527 20.5-88.406 37.216-130.686 13.882-41.356 32.244-81.11 50.45-120.61m90 536c10.007-14 16.41-31.463 24.433-46.85 7.896-15.521 13.884-32.081 21.567-47.65-20.746-1.412-41.786.245-62.603-.5-6.885.323-17.42-1.329-21.857 3.016-17.194 16.914-35.684 32.425-53.957 48.126-9.12 7.676-18.811 14.644-28.132 22.07a105 105 0 0 1-6.952 5.215c-1.312 1.515-3.998 3.201-4 4.827.37 2.898 5.303 3.387 7.31 4.67 3.347 1.399 6.832 2.391 10.201 3.681 8.435 4.152 17.874 3.67 26.982 3.395zm-117 165h82v-136h-82zm216 0h73.8c3.061-.171 9.468.668 9.746-3.006 1.295-26.943-.236-54.071.454-81.054v-34.058c-.106-4.371.149-8.743-.128-13.1-.038-4.853-3.448-5.053-7.27-4.776-25.539-.017-51.074.003-76.602-.006z" style="fill:#666;fill-rule:evenodd;stroke:none"/><path d="M2261 493c-.93-.1-1.769-.422-2.5-1-.963 6.836 2.468 13.936 2.62 20.786C2386.115 1262.51 2511.022 2012.278 2636 2762H364v-1.5c105.923-630.938 210.177-1262.203 315.792-1893.201l39.482-236.987c5.757-34.497 11.525-69.004 17.258-103.498 1.428-8.148 2.641-16.33 4.115-24.467 1.024-3.732.622-9.707 3.177-11.964 6.653-4.226 15.684-5.116 22.91-8.454 124.584-41.024 248.697-83.512 373.4-124.13 93.338-31.175 186.698-62.212 280.04-93.356 17.532-5.823 35.037-11.683 52.56-17.514 8.412-2.559 16.625-5.835 25.09-8.196 7.198-.78 16.157 4.767 24.311 6.468 122.86 40.958 245.735 81.942 368.6 122.87C2013.413 409.217 2136.418 449.665 2259 491c-.249-4.005-5.708-4.903-8.775-6.081-126.31-42.11-252.627-84.201-378.926-126.314-94.676-31.581-189.357-63.127-284.033-94.676-17.803-5.996-35.66-11.837-53.447-17.829q-12.495-4.149-24.981-8.312c-8.81-4.402-16.914-.077-24.036 2.778-124.839 41.583-249.672 83.255-374.503 124.83-62.485 20.856-125.002 41.656-187.48 62.504-31.195 10.357-62.366 20.81-93.553 31.171-15.652 5.283-31.321 10.403-46.969 15.67-7.84 2.581-15.644 5.24-23.47 7.816-3.88 1.314-7.777 2.57-11.645 3.904-1.844.888-4.65 1.64-5.507 3.305-.482 2.02-.862 2.76-2.675 3.234-123.737 750.515-250.27 1500.742-374.74 2251.166-.77 6.04-2.553 13.166-1.757 18.722 3.1 5.763 13.661 3.611 18.545 4.112h2221.964c9.179-.282 18.384.358 27.543-.227 10.043-.765 7.2-11.156 6.136-17.806-17.85-106.359-35.422-212.794-53.222-319.153-105.712-633.14-211.31-1266.303-316.578-1899.517-1.727-12.46-4.59-24.787-5.891-37.297" style="fill:gray;fill-rule:evenodd;stroke:none"/><path d="M992.5 760c.78-2.993.554-7.556 0-10-2.784 2.315-1.18 7.732 0 10m29.5 398.25c.574.883 1.783.988 2.5 1.75.427-.943.53-1.979.5-3a4.6 4.6 0 0 0-3 1.25m2.5-6.25c.755-2.09.579-5.294 0-7-2.608 2.062-1.115 4.681 0 7m32-184c1.403-2.304 1.186-4.422.708-6.767-.736-2.3.418-5.475-.708-7.233-.954 4.054-.38 10.62 0 14m48 377c.699-1.212.599-2.771 0-4-1.956 1.243-1.5 2.813 0 4m17.5 122.188c.763 1.269 3.359.692 4.486.592l.514-.28c-1.456-2.023-3.397-.822-5-.5zm11 .062c.936 1.357 3.982.468 5.246.524l.754-.274c-2.095-1.414-3.877-1.24-6-.5zm91-375.625c3.489-1.319 4.94-5.068 8-7.125-3.652.703-6.237 4.55-8 7.125m46-388.5c1.906 1.878 6.729.163 9 .875v-2c-2.94-.678-6.426.155-9 1.125m5.5 599.875c1.176-3.923.154-9.734 0-13-.579 3.779-2.044 10.096 0 13m24-151c.396-1.948.814-4.093 0-6-2.259 1.499-.838 3.187-.188 5.058zm26.5-449.875c1.74 1.808 6.332.394 8.362.394 1.02-.474 1.89-1.196 2.638-2.019-3.508.136-7.795 1.082-11 1.625m9.5 453.875c1.578-1.066 3.212-2.068 4.5-3.5-1.248-.172-2.616 1.1-3.5 1.5-1.336-2.823.336-6.766-1-9-1.071 3.118-.262 8.384 0 11M1455 2473.25c.698 1.173 2.946.55 4 .75v-2c-1.431-.087-2.979.123-4 1.25m8-608.875c.847 1.487 2.562 1.636 3.62.506l.38-.381-1.5-1.5c-.69.617-1.564 1-2.5 1zm3-1.937c.342.41.631.299 1 .062-.32-.203-.644-.43-1-.062m28 13.812c7.345 1.984 17.929-.234 25.584.75H1599c.1-.93.422-1.769 1-2.5-17.432.918-35.39.248-52.941.5h-41.263c-3.812.165-8.668-.46-11.796 1.25m1-1234.125c.823 1.418 3.64.66 4.87.764.418-.012.779-.184 1.13-.389-1.82-2.18-4.114-.883-6-.5zm25 1835.125c.901 1.368 3.75.382 5 .75v-2c-1.56.003-3.553-.156-5 1.25m5-138.625c3.124-.99 4.314-4.406 7-6.125-2.925.176-5.798 4.21-7 6.125m1-136.25c1.098.342 2.039-1.237 3.015-1.94 2.723-2.58 5.301-5.327 7.985-7.935a3.06 3.06 0 0 0-1.5-.5c-3.428 3.026-6.9 7.157-9.5 10.375m16 275.875c.901 1.368 3.75.382 5 .75v-2c-1.56.003-3.553-.156-5 1.25m7-299.625c1.898-.245 3.282-2.898 5-4.125-1.19-.448-2.466-.725-3.5-1.5.06 2.043.158 3.738-1.5 5.625m2 133.75c1.035.302 2.039-1.181 2.976-1.851l4.024-4.024c-3.002-.38-5.308 4.31-7 5.875M1563.5 1566c.824-2.195.478-4.984 0-7-.214.764-.51 1.729-1.5 2-.113 1.8.724 3.456 1.5 5m3.5-218.75c.793 1.224 3.366.598 4.476.532l.524-.282c-1.39-1.814-3.594-1.743-5-.25m11-305.625c3.124-.99 4.314-4.406 7-6.125-2.973-.29-5.694 4.208-7 6.125M1581.5 2280l4.5-4.5c-1.536-.831-3.848.947-4.588 1.908-.37.859-.351 1.776.088 2.592m20.5-931.75c7.15 1.976 17.538-.226 25 .75v-2c-3.813-.324-8.602.124-12.993 0-3.972.073-9.371-.78-12.007 1.25m50 528c9.937 2.017 21.332-.267 31.58.75h72.436c6.497-.42 15.32 1.906 20.984-4.5-8.656 3.024-18.533 2.76-27.73 2.5h-69.461c-6.889-.868-16.014.976-21.309-2-1.811 1.642-4.609 2.187-6.5 3.25m16-529.125c1.586 1.575 6.157.633 8 .375-1.922-2.31-5.73-1.258-8-.375m28-1c.823 1.418 3.64.66 4.87.764.418-.012.779-.184 1.13-.389-1.82-2.18-4.114-.883-6-.5zM1781.5 2101c1.343-10.468-.177-21.43.5-32h-2c-.746 4.438.247 10.085 0 15.265.557 5.137-1.055 13.005 1.5 16.735m-1.5-60h2v-136h-2zm29-203.375c2.26-.391 3.875-3.702 6-5.125-2.646-.48-4.924 3.496-6 5.125m56-285c3.853-1.668 5.575-5.719 9-8.125a3.07 3.07 0 0 0-1.5-.5c-2.711 2.717-5.621 5.283-7.5 8.625" style="fill:#f1f1e2;fill-rule:evenodd;stroke:none"/><path d="M1481 2069.25c9.507 2.007 20.493-.257 30.31.75 8.75-.318 19.764.318 29.69 0-1.958-2.268-7.222-.006-10.33-1-16.512.368-33.21-.451-49.67.25m51 9.208c3.193-.65 4.046-4.158 6.796-5.754l1.204-1.204c-3.392 1.11-5.053 5.015-8 6.958m58-327.083c.044.62.234 1.158.625 1.625 17.118-.145 34.26-.343 51.375-.5l-26.399-.261c-8.4-1.165-18.856 1.222-25.601-1.239zm1-.922c.443.428 1.045-.069 1.42-.373l.58-.58c-.724-.405-1.707.406-2 .953" style="fill:#b0b0a8;fill-rule:evenodd;stroke:none"/></svg>