<svg xmlns="http://www.w3.org/2000/svg" width="3000" height="3000"><path d="M407 2715h2186c-120.11-729.14-243.257-1457.94-364-2187-121.653-40.09-243.099-81.112-364.7-121.395-91.164-30.407-182.32-60.766-273.474-91.162a32206 32206 0 0 1-51.529-17.183c-8.003-2.659-16.01-5.346-24-8-7.038-2.654-14.998-6.446-23.453-2.372-120.19 40.07-240.392 80.12-360.578 120.183C1011.124 447.878 891.186 488.387 771 528c-120.737 729.033-243.897 1457.913-364 2187m625-1380c37-17.255 71.84-39.437 106.024-61.684 16.752-11.944 33.715-23.644 49.663-36.652 8.267-6.285 15.882-13.312 23.779-20.017 3.86-3.644 7.819-7.157 11.89-10.55 3.784-3.09 7.236-8.587 11.644-9.097-3.137 63.431-.469 128.052-16.902 190.138-3.924 14.113-9.228 28.04-17.249 40.356-5.86 9.305-14.939 17.032-26.339 18.17-36.56 1.887-73.033-2.443-109.51-3.664.183 2.806-.406 8.082 2.687 8.78 3.063 1.551 6.443 2.308 9.635 3.505 24.452 8.34 51.896 26.857 62.509 48.884 5.765 13.598 8.027 28.47 9.238 43.083 1.334 14.868 1.9 29.825 1.931 44.748 28.735.591 57.55-2.819 85.071-11.291 19.1-5.8 37.48-15.397 51.531-29.811 41.19-44.697 58.203-105.881 68.426-164.093 10.142-62.186 10.945-125.523 9.123-188.361-5.158-89.544-16.945-181.168-55.649-263.155-8.726-19.22-20.024-37.159-31.016-55.084-.258-3.546 3.593-6.845 6.005-10.009 21.363-21.714 41.245-44.771 60.702-68.197 9.65-11.426 18.337-23.678 27.79-35.242 2.522-3.033 7.664-1.91 10.695-1.831 9.91-.357 24.45-3.198 27.322-13.926-52.327-23.713-101.667-54.299-154-78-12.608 43.026-33.89 83.23-52 124-4.093-.413-6.924-3.837-10-6.193-21.858-17.679-45.243-33.384-69.673-47.27-12.112-7.15-24.74-13.327-37.318-19.53-6.835-3.391-13.579-6.955-20.61-9.899-3.346-1.416-6.523-3.286-10.077-4.14-3.19-1.488-6.401 2.847-8.322 4.532 26.758 23.636 53.18 48.033 75.363 76.168 16.794 19.966 30.807 42.083 43.701 64.685 3.636 5.896-.155 10.582-2.807 14.725-36.3 63.43-78.464 123.702-128.257 177.297.76 3.15 3.363 5.25 5.313 7.625 46.517-23.316 90.958-51.483 131.685-83.996 8.007-6.112 15.611-12.753 23.406-19.106 3.088-2.75 8.12-6.945 10.014-.787 2.502 9.285 5.39 18.572 7.082 28.053-16.458 67.374-43.075 132.445-75.436 193.678-15.389 29.05-32.42 57.229-51.45 84.014-9.926 13.682-19.955 27.323-30.749 40.34-5.219 6.683-11.05 12.849-16.361 19.452-2.65 3.221-5.859 5.948-8.411 9.244-.713 1.577-2.644 2.975-2.593 4.747.255 1.946 2.323 3.337 2.5 5.361m3 779c41.649-13.323 80.87-34.34 120.238-53.17 18.48-10.102 37.39-19.417 55.335-30.498 18.74-9.427 35.743-23.235 54.427-32.332 1.195 8.154 5.147 15.768 6 24h142v141h-305v1.5c1.546 4.798 2.904 9.649 4.28 14.488.879 2.873 1.726 8.739 5.838 8.792 12.317.622 24.693-.109 37.012.22H1413v313c-118.264.76-236.81-.926-355 .5 2.615 7.735 5.843 18.83 7 25.5h826.2c11.373.088 22.774.17 34.113-.79 8.595-.468 18.078-3.894 22.196-11.98.327-3.25-3.646-5.762-6.152-8.245-42.263-37.076-88.038-69.886-131.857-104.985-14.644 17.816-28.06 36.673-42.35 54.77-10.757 13.615-21.132 27.564-31.729 41.298-4.274 5.892-14.124 3.278-20.37 3.932H1558v-313h308.4c11.873-.101 27.217 1.52 34.6-13.5-19.971-18.844-42.118-35.26-63.282-52.697-10.632-8.545-21.312-17.034-31.939-25.57-5.321-4.321-10.784-8.51-16.069-12.87-5.26-3.316-11.44-10.44-16.71-11.363-10.409 16.705-24.483 31.704-35.58 48.116-9.175 12.087-18.56 24.04-27.466 36.317-1.752 2.22-3.391 4.877-6.074 6.097-48.545 1.34-97.302-.244-145.88.47v-141h135c11.831.25 28.518.491 35-13.5-18.173-17.405-38.836-32.005-58.082-48.157-19.876-14.59-38.422-31.821-58.918-45.343-7.045 12.295-18.261 22.492-26.098 34.402-7.928 9.742-15.372 19.871-23.31 29.603-3.576 4.171-6.74 8.642-10.137 12.939-3.66 5.682-9.03 5.502-14.835 5.056H1269v-2c52.05-37.4 105.452-74.162 151.602-119.102 23.988-22.83 47.848-45.766 69.306-71.024 10.866-12.217 20.937-25.14 30.94-38.044 4.923-6.507 9.9-12.977 14.44-19.745 2.175-3.27 4.327-6.572 6.546-9.811 2.251-3.18 4.554-7.885 8.166-8.274 23.699 77.155 68.002 146.767 123.394 204.894 55.347 56.314 120.638 103.14 189.606 141.106 5.338-31.979 19.545-62.34 38.91-88.175 18.637-24.405 43.334-46.6 74.09-53.825.928-4.623 1.123-9.301 1-14-86.586-18.956-173.184-41.686-253.937-78.98-39.36-19.076-77.985-40.387-111.257-69.157-16.772-14.004-31.665-30.005-45.29-47.03-1.547-1.771-3.878-5.373-2.177-6.965 15.696-4.571 42.311-1.85 50.661-22.868-70.01-16.323-138.965-38.03-209-54-12.757 49.917-37 96.192-63.89 139.828-40.213 63.674-87.462 122.779-139.376 177.262-51.829 54.977-108.249 106.238-170.734 148.91 0 2.966 2.302 5.552 3 8m162 115c.752 8.125 5.188 15.467 6.839 23.388 8.735 30.267 15.082 61.198 19.33 92.41a357 357 0 0 1 3.22 73.766c-1.585 10.35 5.463 15.667 12.815 20.86 11.353 9.127 24.305 17.149 38.9 19.666 23.315 4.509 47.013-3.565 63.977-19.735 15.522-14.864 25.606-40.236 24.007-59.87-.291-39.765-26.824-73.024-55.228-97.372-29.682-25.302-65.968-40.752-102.2-53.852-3.972-2.541-8.095-.674-11.66.739m158-785.75c21.432 49.22 42.18 99.222 63 148.75 14.235-2.431 21.492-12.273 26.334-23.84 3.529-3.619 9.008-5.723 13.526-8.596 38.08-21.38 75.868-43.277 113.21-65.9 27.984-16.916 55.59-34.459 82.95-52.337 10.233-6.993 20.706-13.603 30.842-20.718 4.483-3.083 8.916-6.217 13.343-9.356 1.99-1.213 5.526-2.58 7.066-.78 36.681 70.47 96.35 125.464 161.229 169.527 8.827-28.469 20.262-57.423 41.37-79.37 10.589-10.98 22.018-21.53 36.007-28.076 6.845-3.583 13.866-6.857 21.27-9.112 3.59-1.444 8.075-2.33 11.345-3.66 3.963-1.28 3.418-6.61 4.508-9.782-38.361-10.71-75.717-25.33-112.08-41.546-26.9-12.67-53.897-25.895-78.154-43.242a316 316 0 0 1-26.236-19.962c-2.894-1.917-9.407-7.401-2.764-9.536 35.3-12.084 70.618-24.355 104.885-39.189 16.63-7.152 33.464-13.847 49.792-21.659 9.043-3.739 18.772 1.133 27.974 1.531 8.62.812 20.902-4.123 23.583-11.397-36.316-23.543-69.684-53.456-106-77v-4c10.059-4.037 22.172-9.442 30.35-15.168 4.9-4.002 3.438-12.248 3.65-17.637V863c13.234-3.757 31.23-9.902 37-21-42.863-28.246-81.699-64.338-125-92-.996 3.933-6.343 6.84-8.996 10.62-10.648 12.974-22.911 24.474-33.84 37.18-5.33 5.48-12.066 13.6-16.888 17.649-9.014 1.226-18.21.06-27.276.551v-95.4c.2-4.173-1.131-9.732 4.527-10.761 10.78-2.345 25.09-6.953 25.473-22.839-55.394-2.921-110.617-8.887-166-12v113.4c-.676 8.401.998 18.891-.969 26.363-15.084 4.62-27.727-4.496-41.758-8.528-41.209-14.751-81.941-30.866-123.273-45.235v674c-21.048 4.218-42.978 4.428-64 8zM1554 970h205V841h-205zm0 166h205V996h-205zm0 280c47.698-3.235 94.44-15.503 142-20-.452-8.445-7.364-18.236-10.258-27.643-26.533-65.92-41.337-136.137-50.742-206.357h-81zm280 867.5c-58.684-22.293-118.78-42.43-178-63.5-16.23 75.87-32.639 151.995-53.12 226.882-.354 3.58-3.68 9.828-1.455 12.367 7.19 8.5 14.071.559 20.575-4.001 48.958-35.578 95.325-74.812 137.983-117.708 12.015-10.303 21.571-23.04 33.002-33.916 5.714-4.845 17.032-1.016 24.684-5.305 6.887-2.641 14.064-7.376 16.331-14.819m-99-967.5c14.508-18.478 27.903-38.22 41.398-57.519 6.879-9.764 13.402-19.769 20.283-29.52 2.994-4.874 5.923-9.79 9.286-14.413 2.915-4.74 7.841-10.146 8.033-15.548-18.072 3.529-36.628 3.994-55 4v-41h-111c.405 7.701 4.376 14.777 6.21 22.161 8.369 25.126 19.653 49.282 32.905 72.182 6.535 10.928 13.512 21.608 21.42 31.602a566 566 0 0 0 12.718 15.136c4.089 3.945 9.12 11.332 13.747 12.919" style="fill:#fedda9;fill-rule:evenodd;stroke:none"/><path d="M1032.5 1337c35.797-18.79 71.448-38.584 104.835-61.574 34.155-22.915 66.825-49.088 96.665-77.093-3.316 62.949-.56 127.274-17.2 188.845-4.014 14.054-9.31 28.034-17.575 40.173-13.844 23.387-43.55 17.803-63.968 17.251-23.761-.894-47.467-3.238-71.257-3.602.186 3.902-1.053 9.638 3.8 11.319 3.789 1.527 7.757 2.563 11.564 4.028 23.742 8.707 50.218 27.503 60.059 49.25 10.193 26.574 9.732 60.816 10.577 86.403 29.76.622 59.695-2.619 88.17-11.619 19.188-6.037 37.616-15.866 51.563-30.614 40.835-45.451 57.71-106.868 67.72-165.513 7.278-44.205 9.342-89.12 9.547-133.851.599-67.413-5.2-134.946-18.434-201.087C1337.058 988.172 1312.9 929.471 1279 877.5c16.833-18.767 34.873-36.49 50.82-56.059 16.769-18.145 30.684-38.709 46.68-57.441 12.035 3.572 27.345-.681 35.138-10.664.57-.832.988-1.753 1.362-2.68-25.137-14.335-51.76-26.659-77.33-40.328-26.117-13.282-52.223-26.812-78.17-40.328-16.102 42.169-32.993 84.843-54 125-44.58-37.33-95.749-66.332-149.117-89-2.336 2.613-4.972 4.963-7.383 7.5 26.757 23.91 53.565 48.177 75.813 76.522 16.922 20.043 31.087 42.268 44.063 64.985 3.359 5.008-.46 9.968-3.064 13.808-36.326 63.734-79.039 123.867-128.812 177.81 1.073 3.303 4.912 6.378 7.5 9.375 58.032-29.826 112.374-66.6 162-109 2.517 3.163 2.758 8.853 4.418 13.213 2.139 7.606 5.773 17.47 2.67 25.682-17.253 64.813-42.542 127.452-74.283 186.472-30.53 55.784-65.992 109.764-110.305 155.633.58 2.982 3.416 6.168 5.5 9m-3.5 769.375c2.322 3.06 4.06 6.616 6.5 9.625 40.726-15.198 80.15-33.547 118.88-53.191 36.727-20.47 74.805-39.385 109.12-63.809 2.414 7.54 5.245 16.8 6.5 24h142v139c-101.929.76-204.151-.926-306 .5 3.658 7.797 4.362 18.716 8.296 25.594 7.42 1.79 15.476.323 23.064.906H1412v311h-355c1.076 9.593 6.098 18.395 7 28h842.4c16.239.132 39.236.906 43.6-16.75-23.036-19.31-45.951-38.86-69.859-57.117-23.453-18.482-47.955-35.69-70.641-55.133-15.002 17.44-27.866 36.698-42.395 54.525a4179 4179 0 0 0-31.741 41.351c-4.336 7.004-13.013 4.904-19.517 5.124H1559v-311h310.8c12.328.452 26.767-.025 33.2-15.5-21.3-17.562-42.3-35.878-64.282-52.697-10.758-8.66-21.573-17.232-32.328-25.889-10.837-7.63-21.976-19.076-32.703-24.914-12.26 15.798-24.143 31.99-36.314 47.876-9.214 12.089-18.545 24.077-27.509 36.346-1.708 2.19-3.546 4.993-5.672 6.452-5.704 2.682-11.79.412-17.902 1.326H1559v-139h136.8c12.421.218 27.538.18 34.2-15.5-38.773-32.226-78.352-63.94-118.5-94.5-17.382 22.949-35.669 45.22-53.268 67.995-3.62 4.183-6.562 8.917-10.428 12.88-1.563 2.298-5.81 1.967-7.995 2.124-89.837-.756-180.086.925-269.809-.499 52.618-36.37 104.818-74.002 151.235-118.235 48.084-43.747 91.558-92.893 127.265-147.265 13.293 38.197 29.288 75.869 50.75 110.325 32.013 51.549 72.058 98.144 118.562 137.154 45.338 37.617 94.26 71.741 146.188 99.521 4.605-31.939 19.123-62.021 37.947-87.906 18.773-24.928 43.717-47.78 75.053-55.094 1.063-5.28 1.11-10.645 1-16-77.457-16.343-154.141-37.288-227.493-67.26-70.896-29.223-139.095-70.709-186.507-132.24a19 19 0 0 0 1.375-1.5c19.292-1.339 43.92-4.26 51.625-23.5-70.13-18.394-140.465-36.653-210.5-55.5-3.279 4.53-4.003 12.377-6.351 18.445-15.624 47.626-39.486 92.205-66.576 134.224-39.669 61.577-86.816 118.182-137.049 171.306-51.598 52.392-105.756 103.79-167.524 144.025zm166 122.917c12.082 35.608 21.56 72.38 26.21 109.796 2.192 14.542 3.785 29.175 4.499 43.853.782 13.25-.026 26.511-.493 39.752-.688 10.43 13.07 16.668 19.473 22.705 14.646 11.282 33.231 17.53 51.786 15.675 27.606-1.364 52.467-20.613 63.568-45.328 11.945-24.429 7.636-57.878-3.228-79.472-14.327-28.03-37.275-50.853-62.716-68.548-26.34-18.525-56.543-30.211-86.507-41.262-4.938-2.08-8.548.583-12.592 2.537zm158-787.167c21.861 49.872 42.777 100.674 64 150.875 7.389-.467 14.456-4.077 19.564-9.374 5.164-4.368 7.088-13.26 10.977-16.562 43.517-24.519 86.865-49.416 129.53-75.4 43.096-25.592 84.486-54.175 126.304-81.664 18.902 35.172 42.532 68.066 70.997 96.21 28.727 27.162 58.937 55.46 93.628 74.79 7.704-29.075 20.694-57.987 41.602-80.102 10.68-11.153 22.464-21.578 36.687-28.04a125.6 125.6 0 0 1 21.37-8.913c3.54-1.641 8.543-1.961 11.148-3.945 2.714-2.253 2.572-7.164 3.193-11-40.286-11.469-79.806-26.514-117.766-44.268-37.792-17.15-74.404-38.16-105.234-66.232 35.408-13.587 72.506-24.452 107.179-40.37 17.144-7.333 34.438-14.291 51.287-22.264 7.737-3.457 18.9 1.785 28.383 1.78 9.247.485 18.743-4.284 24.151-11.646-17.16-14-35.72-26.698-53.422-40.067-9.006-6.647-17.837-13.571-26.997-19.994-8.865-5.539-17.917-14.888-26.581-18.939v-2c10.059-4.037 22.172-9.442 30.35-15.168 4.9-4.002 3.438-12.248 3.65-17.637V864c13.988-3.47 28.71-9.42 38-21-41.391-32.207-83.945-63.614-126-95-12.881 13.791-25.815 27.791-38.394 41.894-6.335 6.617-13.237 14.884-19.041 20.951-3.696 4.573-8.492 4.42-13.57 4.155H1722v-94.8c-.243-2.401.222-4.703.485-7.055 1.455-3.09 7.703-2.224 10.095-3.892 5.17-1.566 10.49-3.705 14.17-7.86 3.85-3.487 4.586-10.391 6.25-13.893-.458-.45-.911-.96-1.25-1.5-56.003-2.655-111.747-9.316-167.75-12v113.4c-.675 8.4.998 18.892-.969 26.363-6.543 3.221-15.32.214-20.587-1.474-24.118-8.937-48.303-17.77-72.42-26.68-12.018-4.366-23.988-8.852-35.998-13.204-5.961-2.354-12.007-4.486-18.046-6.623-5.771-1.889-12.369-5.313-17.98-5.782v674c-21.462 4.12-43.465 4.682-65 8zM1555 969h203V842h-203zm0 166h203V997h-203zm0 280c46.964-3.977 93.136-15.197 140-20-31.288-73.745-51.58-152.306-61-232h-79zm43 1043.625c3.273 2.925 7.124 6.086 11.535 6.787 3.78-2.802 8.022-5.097 11.78-8.008 38.02-26.705 73.53-56.787 107.81-88.044 17.285-16.236 34.147-32.828 50.745-49.73 4.462-4.064 8.073-8.903 12.232-13.229 6.747-7.21 18.31-2.659 26.567-7.082 7.955-2.765 15.377-8.818 17.331-17.319-60.191-21.062-120.443-42.632-180.5-64-8.712 40.678-17.624 81.394-27.159 121.907-9.434 39.461-18.469 80.21-30.341 118.718M1734.5 1315c13.618-19.167 27.907-37.91 40.898-57.519 6.787-9.6 13.178-19.477 19.98-29.065 3-4.886 5.98-9.764 9.295-14.436 2.086-4.677 7.92-9.451 7.827-13.98-17.471 4.671-36.537 3.081-54.5 4v-41h-109c15.706 56.36 43.535 110.567 85.5 152" style="fill:#000;fill-rule:evenodd;stroke:none"/></svg>