<svg xmlns="http://www.w3.org/2000/svg" width="3000" height="3000"><path d="M448 2669h2104c-108.019-653.996-218.137-1307.761-326.618-1961.691-6.813-40.83-13.621-81.671-20.41-122.502-.9-5.185-1.732-10.375-2.627-15.558-.693-5.948-7.25-6.546-11.566-8.162a2264805 2264805 0 0 1-451.953-150.644c-56.522-18.824-113.032-37.715-169.56-56.514-12.477-4.17-24.972-8.31-37.44-12.486-6.015-1.98-11.998-4.026-18-6-5.943-1.873-12.256-5.247-18.565-3.023-92.812 30.91-185.585 61.892-278.396 92.78-138.737 46.826-278.12 92.047-416.698 139.266-3.665 1.962-2.298 9.57-3.876 12.727-22.4 134.514-44.811 269.006-67.243 403.502C635.746 1543.503 540.855 2106.166 448 2669m615-991.25c22.63 40.863 42.235 83.739 65.5 124.25 9.315-4.438 17.367-11.46 20.715-21.638 2.595-6.471 9.827-12.807 15.04-19.085 8.368-8.706 16.217-17.896 24.363-26.793 4.025-4.575 8.205-8.994 12.08-13.696 2.13-2.193 3.912-4.656 5.97-6.897 1.841-2.124 4.701-4.307 5.332-6.891h3v103h8c-1.045 26.037-18.813 52.939-34.022 70.031-15.1 17.279-33.985 31.247-54.586 41.274-9.181 4.316-18.802 7.732-27.605 12.843-15.44 8.78-31.123 24.806-36.49 40.482-11.105 32.088 10.312 70.128 42.942 78.169 24.782 8.188 52.073 1.428 72.648-13.726 31.172-21.093 52.56-55.212 60.564-91.687 9.89-39.31 5.792-80.542-5.216-119.073-1.55-5.857-4.287-12.676-4.235-18.313 26.302-.497 56.102-11.522 76.771-23.383 5.517-3.118 11.627-7.542 16.124-11.217 4.144-3.348 5.482-8.658 5.104-13.748.003-16.779 0-33.557.001-50.321V1461c24.646.783 49.128-2.266 72.982-8.329 11.336-2.802 22.468-6.333 33.2-10.938 4.605-2.184 10.624-4.61 13.492-8.543 2.681-5.796.413-11.982 1.326-18.19h86v28c21.601.149 43.41.394 64.614-4.431 10.143-1.857 20.124-4.287 30.055-7.023 9.339-1.962 19.565-7.79 28.331-8.546v265.2c.017 20.018.717 40.109 4.344 59.824 2.42 16.212 11.792 31.523 27.505 37.903 28.673 12.287 61.016 8.108 91.226 9.073 23.514.59 47.012.256 70.344-2.977 27.111-5.262 67.79-11.303 78.078-46.207 4.715-15.533 2.984-34.139-8.084-46.728-4.926-5.465-12.329-10.155-18.1-13.503-4.487-2.125-4.416-6.273-4.557-10.552a266 266 0 0 1-.897-12.344c-1.115-13.538-2.289-27.12-2.859-40.689-2.652-.435-5.315-.918-8-1-6.597 18.699-15.954 36.585-26.162 53.534-9.447 15.918-28.991 13.666-43.22 13.466-11.79-1.038-26.668 1.744-37.073-2.119-3.928-1.96-4.388-7.802-4.516-11.51-.082-33.461.015-66.915-.029-100.371 26.532-3.86 52.885-8.79 78.92-15.222 6.115-1.483 12.172-3.184 18.238-4.824 4.826-1.264 9.575-2.97 14.526-3.648 7.435-.515 14.222 4.253 21.657 4.468 8.362 1.575 14.458-.84 20.659-5.274-16.846-16.588-32.264-34.523-49.102-51.102-15.93-16.686-34.819-36.062-49.398-51.398-8.131 13.1-16.282 26.4-25.252 39-8.238 13.137-19.285 24.84-27.248 38h-3v-86.4c-.482-4.293-.144-8.637 5.606-9.04 12.984-1.84 19.677-10.366 23.394-21.06-46.127-4.278-92.88-6.765-139-11.5v-99h218.4c8.468.172 17.55.63 25.151-3.938 2.981-1.683 5.858-4.726 6.667-7.76 1.204-2.896-3.92-5.398-5.24-7.116-37.27-30.367-75.559-60.566-113.978-89.186-19.695 28.898-45.281 55.098-65 84h-66v-76c8.864-.079 19.601-4.908 22-16-51.098-2.24-101.895-9.697-153-12v104h-86v-76c8.607-.619 20.67-4.814 22-16-50.107-2.292-99.896-9.623-150-12v104h-250c.565 8.269 5.066 15.802 6 24h244v106c-37.674-2.693-75.3-6.715-113-9v116h-131c2.347 7.69 5.389 16.829 7.943 23.736 8.096 2.778 19.68.171 28.141 1.264H1215v111c-50.725 9.736-101.053 22.305-152 31zM1333.5 1815c-2.15 1.515-5.165 2.436-7.5 3 9.145 34.25 15.503 69.317 17.966 104.744 1.577 27.793 1.952 55.816-2.47 83.388-.404 2.41-.356 4.854.045 7.243 11.398 13.966 27.025 25.445 44.681 29.916 28.049 6.906 57.376-8.538 70.446-33.685 14.8-25.013 13.5-56.184 2.42-82.236-22.948-52.572-72.976-86.54-122.597-110.638-1.025-.357-2.012-.94-2.991-1.732m44.5-30c24.771.66 49.654-2.635 72.89-11.556 10.046-4.518 22.865-9.621 29.957-17.126 3.457-5.536 1.557-12.828 2.153-18.961V1718h39v54c16.54.308 33.174-.068 49.304-4.083 11.314-2.85 22.472-6.29 33.498-10.062 7.815-3.236 16.356-5.375 23.14-10.671 4.89-4.62 2.245-13.816 3.058-19.73V1539c7.727-1.691 16.67-5.401 22-10.5-30.695-22.864-61.315-46.405-92.5-68.5l-36.37 36.37c-4.282 4.585-8.919 10.64-16.488 9.63-6.287-.015-12.57.018-18.856-.01-10.214-.78-19.275-6.956-28.93-9.858-27.443-10.256-54.368-22.109-81.856-32.132zm78-394h86v-94h-86zm27 302h39v-162h-39zm8 126.75c22.46 30.7 42.356 63.635 56.77 98.988 12.066 27.57 19.853 56.758 25.06 86.337 1.616 4.907-.339 11.949 3.759 16.133 15.44 13.878 36.207 22.448 57.068 20.56 31.996-3.12 55.455-32.434 58.315-63.274 4.686-30.262-13.332-64.163-31.12-83.909-42.802-44.437-102.967-66.25-162.148-77.877-2.952-.726-5.254 1.783-7.704 2.292zm200-7.292c34.234 39.925 63.458 84.209 87.666 130.865 9.312 18.324 18 36.998 25.055 56.319 3.107 8.697 6.413 17.32 8.696 26.287 1.38 3.939 1.985 9.036 4.446 12.046 5.565 5.191 14.384 8.244 20.41 11.513 27.072 13.41 63.22 6.182 80.802-19.31 14.836-18.823 18.272-44.999 12.982-67.886-7.386-32.774-28.654-60.411-54.099-81.293-25.515-20.608-54.683-36.292-85.248-47.89-15.343-5.593-30.88-10.771-46.763-14.627-8.213-1.985-16.342-4.235-24.61-5.935-7.655-1.04-16.9-4.463-24.028-3.738-1.888.689-4.361 2.279-5.309 3.649" style="fill:#fda;fill-rule:evenodd;stroke:none"/><path d="M338 2761.5c387.06 1.426 774.925-.26 1162.15.5 387.224-.76 774.71.926 1161.85-.5-77.265-456.459-152.125-914.01-228.874-1370.691-28.417-170.851-56.988-341.657-85.4-512.497-12.491-74.824-24.942-149.684-37.431-224.508-5.828-35.176-11.741-70.32-17.569-105.492-3.54-17.097-4.968-34.714-9.072-51.664-1.3-3.941-8.915-3.966-11.797-5.85-133.175-44.44-266.372-88.79-399.558-133.193-116.482-38.867-233.005-77.647-349.48-116.505-6.56-1.974-12.94-4.527-19.527-6.382-6.558-1.31-12.878 2.396-19.017 4.029-100.339 33.452-200.674 66.889-301.01 100.324-87.802 29.33-175.659 58.504-263.446 87.829-38.52 12.817-77.015 25.657-115.52 38.495-18.005 5.974-35.995 12.026-54 18-8.822 2.95-17.652 5.903-26.471 8.83-4.346 1.012-8.371 2.451-8.57 8.208-90.761 544.76-181.624 1089.514-272.367 1634.27-35.423 208.458-69 418.87-104.891 626.797m111-95v1.5h2102v-1.5c-63.81-378.768-126.215-757.87-189.705-1136.696-47.349-283.998-94.654-568.016-142-852-4.398-26.67-8.911-53.338-13.325-80.003-1.118-6.656-2.232-13.342-3.35-19.985-.571-3.586-1.119-7.183-2.096-10.662-1.288-2.958-6.82-3.128-9.193-4.54-101.51-33.828-203.017-67.663-304.512-101.514a746151 746151 0 0 1-266.522-88.84c-39.072-12.89-78.06-26.135-117.144-38.98-4.713-1.335-9.273 1.032-13.839 2.453-144.507 48.104-288.95 96.378-433.449 144.467-54.18 18.08-108.385 36.116-162.566 54.195-23.808 7.923-47.625 15.882-71.434 23.805-5.676 1.96-11.407 3.738-17.06 5.726-6.564 1.113-6.72 8.744-7.34 13.268C740.08 921.349 682.77 1265.54 625.383 1609.692 566.339 1961.663 508.308 2314.864 449 2666.5" style="fill:gray;fill-rule:evenodd;stroke:none"/><path d="M1061 1676.5c17.404 32.516 33.57 65.986 51.396 98.317 4.234 8.49 8.364 17.055 13.301 25.157 1.787 3.92 5.973 1.813 8.844.175 5.285-2.938 9.717-7.408 12.654-12.69 7.73-16.515 21.942-28.458 33.64-42.26 10.426-12.707 22.85-24.082 32.665-37.199l.5 1.668V1811h8c-1.942 25.837-19.552 51.942-34.777 68.96-15.35 17.008-34.118 30.939-54.77 40.83-9.235 4.21-18.822 7.67-27.597 12.849-15.251 9.082-30.97 25.126-35.887 41.051-10.491 32.079 9.65 70.112 42.273 78.822 24.633 8.213 52.036 3.064 73.085-11.69 31.072-20.174 52.826-53.146 62.037-88.68 10.155-38.75 8.225-79.867-2.175-118.322-1.236-7.885-5.418-16.555-6.189-23.82 26.302-.497 56.102-11.522 76.771-23.383 5.517-3.118 11.627-7.542 16.124-11.217 4.144-3.348 5.482-8.658 5.104-13.748.003-16.779 0-33.557.001-50.321V1462c24.646.783 49.128-2.266 72.982-8.329 11.336-2.802 22.468-6.333 33.2-10.938 4.605-2.184 10.624-4.61 13.492-8.543 2.681-5.796.413-11.982 1.326-18.19h84v28c21.504.16 43.224.556 64.38-3.986 20.134-3.016 39.429-9.719 58.62-16.014v265.834c.035 19.965.718 40.028 4.445 59.668 2.445 16.537 12.472 31.676 28.434 37.91 28.873 11.83 61.128 7.595 91.395 8.588 23.398.55 46.793.306 70.006-2.85 27.217-5.076 67.272-10.85 78.773-44.908 4.68-15.308 4.451-33.911-5.395-47.347-4.485-6.181-10.998-10.486-17.298-14.596-8.987-3.515-7.805-12.115-8.268-20.536-.782-14.941-2.758-29.791-3.092-44.763-3.313-.595-6.639-1.036-10-1-6.41 18.4-15.689 35.893-25.525 52.65-3.895 6.275-9.667 11.386-17.024 13.112-14.536 2.159-29.392.73-44.02 1.238-5.305-.076-10.795.213-15.954-1.28-9.073-2.81-5.822-18.252-6.477-24.7V1575c26.724-3.92 53.286-8.839 79.508-15.375 6.233-1.559 12.402-3.285 18.604-4.915 4.8-1.277 10.453-3.34 15.066-3.394 13.12 2.41 27.768 10.518 41.822-1.816-17.184-16.925-32.919-35.178-50.102-52.102-16.455-16.832-35.323-36.947-50.398-52.398-8.872 12.982-16.52 26.851-25.898 39.518-8.917 13.13-18.969 25.579-28.102 38.482l-.5-1.625v-69c.107-5.792-.14-11.587.099-17.366-.236-4.904 5.207-5.545 8.469-6.15 10.953-2.339 19.346-11.783 20.432-22.859-46.344-2.857-92.772-7.025-139-11v-97h196.8c11.02-.128 22.053.159 33.07-.093 9.31-.078 19.242-5.04 22.13-14.45-38.736-34.255-81.411-63.889-121.5-96.457-21.485 28.653-45.704 56.028-66.5 85h-64v-74c9.39-.687 21.2-4.904 22-18-51.789-1.958-103.213-10.13-155-12v104h-84v-74c9.12-.455 22.293-5.673 22-18-50.784-2.05-101.214-10.043-152-12v104h-251c1.794 8.789 5.38 17.184 7 26h244v104c-37.64-2.923-75.293-6.975-113-9v116h-131c.832 7.994 4.985 15.3 6.819 23.062 1.033 4.55 6.995 4.026 10.745 3.938H1214v109c-51.09 9.483-101.658 22.801-153 31zm264 140.5c2.13 16.206 8.515 31.69 10.474 47.995 5.393 30.292 8.662 61.019 8.526 91.806-.112 11.716-.523 23.484-1.84 35.123-.378 9.228-5.117 20.985 1.735 26.47 11.033 11.608 24.437 21.717 40.263 25.635 24.525 6.485 52.075-2.739 67.002-23.596 15.929-19.757 20.44-46.198 15.682-70.64-5.513-32.586-26.646-59.844-49.72-82.15-23.267-21.138-50.253-37.668-78.463-51.323-4.973-3.256-8.952-.633-13.659.68m52-31c25.099.74 50.33-2.215 73.931-11.189 10.262-4.514 23.2-9.709 30.606-17.12 3.946-4.995 1.788-13.597 2.463-19.334V1719h37v54c17.02.344 34.156.078 50.774-3.965 11.506-2.868 22.816-6.35 34.028-10.18 7.815-3.236 16.356-5.375 23.14-10.671 4.676-4.317 2.458-13.584 3.058-20.33V1540c7.936-2.516 19.99-5.692 23-13-32.53-21.017-62.285-47.308-94.5-69l-36.733 36.733c-4.253 3.923-8.432 10.595-15.978 10.261-6.533-.065-13.086.102-19.614-.06-9.946-1.395-18.738-7.409-28.3-10.167-27.652-10.731-55.258-22.07-82.875-32.767zm80-396h84v-92h-84zm27 302h37v-160h-37zm5 127.5c22 29.682 41.609 61.689 56.091 95.877 11.035 27 20.315 54.775 25.406 83.58 1.45 5.848 1.82 11.834 2.615 17.769 1.668 8.128 13.26 12.952 21 17.84 16.327 9.273 36.366 11.334 54.201 5.148 25.59-8.79 41.888-34.952 44.761-60.895 3.447-26.274-6.986-52.281-21.743-73.426-19.23-25.521-46.32-44.447-74.69-58.568-30.68-14.758-63.589-24.418-96.871-31.246-4.541-1.02-7.354 1.682-10.77 3.421zm200-7.75c26.278 31.987 51.215 65.548 71.726 101.676 16.06 27.777 30.576 56.534 41.79 86.64 4.565 11.668 8.24 23.628 11.534 35.707 1.15 4.766 7.487 7.086 11.098 9.3 17.661 10.072 38.868 15.856 59.061 9.856 29.009-7.733 49.81-36.611 49.77-66.446 1.585-29.709-10.359-58.615-28.971-81.447-22.892-28.717-60.282-52.332-90.615-65.929-36.443-16.135-75.386-26.885-114.618-33.696-4.08-1.095-8.126 2.385-10.775 3.589z" style="fill:#000;fill-rule:evenodd;stroke:none"/></svg>