<svg xmlns="http://www.w3.org/2000/svg" width="3000" height="3000"><path d="M363 2763h2274c-116.777-706.336-235.544-1412.426-352.792-2118.701-7.351-44.171-14.733-88.332-22.082-132.49-.76-5.347-1.88-10.63-2.64-15.97-.062-6.502-4.856-8.386-10.16-9.572-81.497-27.15-162.975-54.317-244.46-81.467-142.336-47.478-284.708-94.881-427.04-142.357-13.532-4.49-27.037-9.017-40.56-13.514-6.477-2.17-12.972-4.309-19.44-6.486-6.235-1.594-13.427-5.493-19.495-5.034-100.387 32.434-200.209 66.92-300.466 99.791-150.35 50.002-300.828 99.614-451.039 150.05-5.982 1.452-6.275 6.662-6.798 11.742-24.43 146.388-48.84 292.799-73.214 439.189C565.92 1546.494 463.462 2154.662 363 2763m651-685.562c2.437 4.112 7.67 8.825 9 12.562h1.5c59.887-36.555 116.75-80.005 160.602-135.404 21.864-26.949 41.308-55.992 57.058-86.924 7.783-16.2 15.99-32.283 22.245-49.166 3.321-8.524 6.576-17.076 9.513-25.725 1.5-4.404 3.356-8.682 4.483-13.2 1.326-3.93 2.351-10.197 6.599-10.581 11.012 27.945 22.368 55.887 31.066 84.7 6.98 21.847 12.094 44.219 15.787 66.825 1.259 8.251.897 19.414 7.441 23.646 11.372 8.895 24.044 16.415 38.159 19.939 21.604 6.016 46.863-.414 62.522-16.585 15.98-15.397 24.047-37.982 24.022-59.876 1.14-28.332-13.728-59.85-29.135-79.874-16.856-22.186-42.671-43.1-64.327-56.43-17.608-11.213-36.57-20.055-55.808-28.044-5.44-2.304-11.006-4.29-16.426-6.6-2.663-.76-1.441-4.762-1.071-6.706 7.503-40.05 14.535-80.323 17.77-120.995h98c-1.817 11.554-8.918 21.734-12.653 32.68-2.272 5.38-5.083 10.5-7.24 15.926-1.983 5.38-6.413 11.077-7.107 16.394 3.06.874 6.464 3.8 9.5 6 18.234-15.231 35.452-31.693 52.344-48.384 7.226-7.66 14.149-15.586 21.261-23.344 1.196-1.776 2.825-3.635 5.18-4.404 6.47-2.38 5.864 7.303 5.715 10.825V2101c30.475-.193 62.236.82 91.233-10.494 12.66-5.43 24.78-12.398 35.666-20.825 7.636-4.648 7.938-11.725 7.101-19.253V2027h350.4c12.984.367 30.74.509 34.938-13.098.66-2.402-3.522-4.712-4.44-6.502-31.664-29.484-64.96-57.068-98.028-84.956-2.062-1.789-4.233-3.465-6.243-5.312-4.71-5.153-8.157-.145-10.4 3.898-10.44 14.06-20.44 28.435-31.022 42.38-5.222 7.192-10.453 14.377-15.675 21.569-5.307 6.623-9.424 16.81-18.53 16.021v-198h127.2c10.657.063 26.173.856 32.645-11.51 1.908-3.953-2.708-7.799-5.08-10.225-21.852-22.589-44.586-44.197-67.149-66.11-3.826-3.326-7.822-6.476-11.218-10.257-3.644-2.88-7.548-8.804-11.398-9.898-8.46 15.525-20.09 29.705-29.279 44.906-4.988 7.568-10.087 15.074-15.064 22.635-2.592 3.66-4.852 7.515-7.527 11.107-2.617 4.206-8.87 3.329-13.13 3.352v-186h127.2c10.46-.214 26.605.542 32.793-11.931 1.985-3.764-3.756-7.92-5.595-10.171-20.737-23.555-45.115-43.558-67.022-65.966-3.876-3.308-7.82-6.502-11.246-10.302-3.508-2.842-7.392-8.539-11.13-9.63-15.657 27.883-37.004 53.342-53 81h-12v-180h133.2c10.832-.022 28.399 1.282 33.993-12.636.956-2.04-2.218-4.314-3.178-5.84-24.613-24.205-52.343-44.934-78.882-66.908-9.407-6.178-17.09-15.527-27.133-20.616-17.035 25.013-37.368 48.564-55.145 73.228-5.034 8.178-15.447 5.285-22.97 5.772H1716c.41-4.977 6.59-7.944 9.57-11.163 28.107-24.675 55.673-49.942 82.3-76.207 12.664-13.249 27.579-28.775 38.711-41.369 3.044-3.127 6.726-8.442 10.419-9.014 7.105-.353 14.624.283 20.98-3.749 6.272-2.848 10.336-8.495 14.02-13.998-53.12-17.591-109.11-29.322-162.5-46.5-10.045 67.925-24.42 135.513-41.5 202h-39c-6.62-.148-13.267.2-19.874-.155-5.69-.365-10.69-3.543-16.126-4.845.23-8.34 5.203-15.76 7.62-23.545 9.871-26.665 19.408-53.448 27.924-80.566 2.28-6.969 4.173-14.053 6.384-21.027 1.855-4.899 2.477-10.514 5.358-14.945 13.409-3.145 30.364-3.556 37.714-21.292-2.652-2.19-7.602-2.4-11.398-3.714-55.884-13.957-111.728-27.97-167.602-41.911-10.668 131.267-41.325 260.111-82 385-6.996-.11-11.94-8.343-16.733-12.232-15.217-14.678-31.535-28.116-46.767-42.768-9.515 12.546-19.147 28.463-27.146 40.47-4.644 6.961-9.262 13.936-13.928 20.865-2.16 3.494-4.645 6.766-6.809 10.253-2.005 2.637-3.416 7.152-7.617 7.412 3.166-31.996 2.981-64.167 4.812-96.24 1.606-32.908 1.464-65.876 3.188-98.76h69c17.193-.002 34.408.002 51.596-.001 11.339-.293 26.408-1.396 30.343-12.557 2.035-3.821-4.024-7.132-6.128-9.272-21.05-20.318-43.715-38.91-66.264-57.516-13.123-10.559-25.91-21.801-39.547-31.654-11.079 13.34-20.711 28.158-31.397 41.876-9.817 14.17-21.745 27.423-30.603 42.124h-99v-2c13.915-26.91 26.708-54.38 37.473-82.713 2.866-7.238 5.677-14.486 8.23-21.829 2.094-5.203 3.79-10.581 5.907-15.762 1.745-4.2 6.634-4.05 10.729-4.71 11.541-1.899 23.96-7.863 28.661-19.361-2.757-2.263-7.89-2.495-11.85-3.697-55.06-12.902-110.062-26.23-165.15-38.928-4.513 64.586-13.706 128.907-26.552 192.352-11.91 61.979-28.548 123.123-49.448 182.648 3.164 1.109 7.178 3.743 10.5 6 25.401-22.112 49.986-45.199 71.224-71.45 10.651-12.705 20.516-26.014 30.164-39.482 4.69-6.713 9.039-13.67 13.686-20.403 2.104-3.408 4.56-6.563 6.57-10.03 1.788-3.292 4.343-7.486 7.856-7.635 4.176 30.573 2.228 62.284 2.26 93.751-.014 31.017-.642 61.79-1.26 93.249h-126c-13.192.868-29.03-1.201-41 1 2.027 8.445 5.732 18.111 7 26h159c-3.82 90.2-15.066 180.78-42.206 267.146-13.39 41.575-30.385 82.082-52.274 119.904-21.114 36.01-45.637 70.334-73.52 101.388M1614 1564h72v-180h-72zm0 213h72v-186h-72zm0 224h72v-198h-72z" style="fill:#fda;fill-rule:evenodd;stroke:none"/><path d="M244 2863.5c418.26 1.426 837.325-.26 1255.75.5 418.681-.76 837.643.926 1256.25-.5-137.483-816.352-271.828-1633.965-409-2450.5-141.513-45.746-282.358-94.352-423.703-140.74-105.839-35.248-211.646-70.575-317.47-105.817l-60-20a8496 8496 0 0 1-28.008-9.343c-4.68-1.543-9.347-3.083-13.982-4.729-5.086-2.015-9.193.742-14.014 2.193-139.528 46.49-279.049 93.006-418.557 139.507C931.703 319.858 792.72 367.853 653 413c-137.126 816.275-271.612 1634.71-409 2450.5m120-103v1.5h2272v-1.5c-68.931-409.09-136.257-818.54-204.874-1227.691-51.028-306.678-102.288-613.313-153.312-919.99-4.869-28.835-9.565-57.678-14.432-86.51-1.133-7.012-2.351-14.007-3.495-21.008-1.484-6.504-.056-15.285-8.94-17.157-109.703-36.573-219.416-73.135-329.12-109.701-96.009-31.978-191.992-64.023-288-96-41.971-14.027-84.002-27.963-125.969-41.994-9.552-4.304-21.398 2.4-30.56 4.946-155.047 51.948-310.255 103.285-465.433 154.805-58.187 19.4-116.394 38.801-174.566 58.195-25.476 8.525-51.019 16.959-76.48 25.505-5.454 2.642-13.186 3.29-17.14 6.618-2.1 1.795-1.737 5.77-2.555 8.884-62.19 372.917-124.31 745.877-186.485 1118.792C490.857 1998.664 428.048 2380.37 364 2760.5" style="fill:gray;fill-rule:evenodd;stroke:none"/><path d="M1715 1358h98v-2c-31.903-.76-64.209.926-96-.5l3-3c-2.164-.83-4.4 1.443-4.69 3.147-.24.773-.262 1.558-.31 2.353" style="fill:#7f6e55;fill-rule:evenodd;stroke:none"/><path d="M1178 1376.5c.05.544.222 1.035.5 1.5l2-2c1.055 4.095-.491 8.618 4 12 1.296-6.148-.13-12.758.5-19h-3c-.504 2.94-3.318 4.692-4 7.5m5.5 136.5c.693-3.249.64-8.375 0-11-2.631 2.625-3.41 7.855 0 11m288.5 71.328c.044.647.246 1.193.672 1.672 1.19-.284 2.487-1.526 3.52-1.501 1.335.408 2.268 1.618 3.308 2.501.76-2.183.34-5.311.5-8-3.43.156-5.649 3.302-8 5.328" style="fill:#f1d3a5;fill-rule:evenodd;stroke:none"/><path d="M1012 2077.469c4.177 4.548 7.44 9.882 11.5 14.531 60.133-36.258 117.112-79.607 161.315-134.764 22.033-26.821 41.325-55.868 57.375-86.627 7.96-16.364 16.141-32.692 22.702-49.686 7.549-16.407 11.463-34.514 18.608-50.923 15.407 36.028 29.104 73.14 39.03 111.123 3.632 14.365 7.06 28.853 8.687 43.61 1.086 5.917.985 14.895 4.784 18.543 18.19 16.252 41.798 25.959 66.331 23.587 36.836-3.51 63.367-40.224 62.641-75.84 1.718-36.468-16.098-71.183-40.034-97.463-24.793-26.313-55.433-46.405-87.834-61.978-12.94-6.565-27.052-11.001-40.105-17.082 5.692-19.99 7.592-41.564 11.441-62.085 3.072-20.738 5.48-41.565 7.559-62.415h96c-7.366 21.83-18.415 42.29-28 63.168 2.35 2.698 6.904 4.714 10.32 7.076 3.728 1.276 7.715-4.618 10.373-6.168 26.949-22.31 50.69-47.956 73.807-74.076 1.426 173.827-.26 348.085.5 522 30.813-.135 62.85.988 92.277-10.11 12.862-5.359 25.164-12.373 36.198-20.865 2.994-2.05 5.536-4.597 7.064-7.917 1.164-11.622-.089-23.45.461-35.108h348c13.06-.12 31.913 2.787 39-15.5-37.184-35.636-77.352-68.072-116.5-101.5-10.508 15.635-22.48 30.5-33.247 45.996-5.887 7.81-11.388 15.897-17.276 23.691-2.966 3.897-5.709 7.95-8.647 11.862-2.357 3.492-5.19 7.948-10.33 7.451v-196h127.2c10.768.092 26.438.827 32.825-11.803 2.073-5.302-1.709-8.236-4.92-11.591-21.703-22.483-44.313-43.872-66.712-65.702-8.29-6.734-15.446-14.862-23.393-21.904-11.121 13.95-19.823 30.077-30.343 44.54-5.148 7.552-10.095 15.24-15.23 22.795a2918 2918 0 0 1-7.412 11.114c-2.73 4.834-7.252 4.88-12.015 4.551v-184h127.2c10.55-.171 26.374.493 32.82-11.81 2.033-5.307-1.685-8.22-4.915-11.585-20.589-23.458-44.578-43.55-66.582-65.573-8.323-6.793-15.542-14.927-23.523-22.032-10.279 12.674-18.085 27.577-27.834 40.726-7.959 13.784-20.341 28.494-27.166 41.274h-10v-178h133.8c12.598.366 30.326-.12 33.688-13.664.476-4.188-4.619-7.61-7.59-10.936-23.867-21.614-48.692-42.102-73.914-62.127-9.125-7.095-19.518-15.928-27.984-22.273-19.58 23.741-37.274 49.298-56.53 73.366-2.006 2.814-4.573 7.088-8.613 7.454-30.94.514-61.924-.094-92.857.18v-1.5c30.838-25.215 60.051-52.387 88.37-80.37 14.187-14.31 27.606-29.314 41.562-43.826 3.635-3.361 6.676-8.902 10.44-10.838 7.585-.77 15.757.405 22.609-3.967 7.062-3.121 11.229-9.729 15.019-15.999-54.994-16.222-110.706-31.242-166-46.5-8.645 68.184-24.682 135.39-41 202h-37.2c-6.405-.101-12.808.135-19.21-.102-5.873-.265-10.995-3.578-16.59-4.898.966-8.342 6.323-15.569 8.364-23.628 10.191-26.518 19.225-53.447 27.842-80.5 2.303-6.957 4.063-14.085 6.357-21.032 2.097-4.058 1.978-12.789 6.83-13.5 13.31-1.289 30.653-6.084 36.607-22.84-29.63-8.813-60.292-14.817-90.13-23.037-30.739-6.924-61.023-16.18-91.87-22.463-10.668 131.267-41.325 260.111-82 385-5.993-1.636-10.788-9.323-16.247-13.71-16.486-13.192-30.47-30.303-47.753-42.29-16.27 27.144-35.14 53.448-52.5 80 2.097-31.543 3.01-63.8 4.377-95.525.351-16.394 1.221-32.754 1.507-49.142.452-16.113.407-32.27 1.616-48.333h82.2c13.813-.057 27.649.07 41.454-.038 11-.446 24.857-2.045 29.346-16.564-37.527-33.42-75.225-67.33-115.5-97.398-10.778 13.921-21.024 28.343-31.576 42.447-9.909 14.33-21.966 27.695-30.924 42.553-32.264-.76-64.81.926-97-.5 14.65-26.884 26.899-55.159 38.064-83.668 2.862-7.253 5.533-14.561 8.165-21.886 2.33-5.204 3.513-10.91 6.286-15.916 1.962-3.438 9.1-1.847 12.127-3.495 12.058-1.91 23.097-9.35 27.358-21.035-29.728-8.514-60.538-14.125-90.526-21.873-29.91-6.333-59.408-15.252-89.474-20.627-9.06 128.19-35.685 255.237-76 377 5.026.914 10.18 7.93 14.325 3.94 13.244-11.426 26.231-23.102 38.65-35.415 34.517-35.282 64.204-75.23 89.525-117.525 1.047 63.525-1.027 127.422-1.5 191h-126c-13.192.868-29.03-1.201-41 1 .898 9.604 5.945 18.415 7 28h159c-4.282 89.685-15.04 179.841-42.391 265.688-13.324 41.848-30.73 82.33-52.66 120.376-21.312 35.995-45.79 70.46-73.949 101.405M1615 1563h70v-178h-70zm0 213h70v-184h-70zm0 224h70v-196h-70z" style="fill:#000;fill-rule:evenodd;stroke:none"/></svg>