<svg xmlns="http://www.w3.org/2000/svg" width="3000" height="3000"><path d="M363 2763h2274c-116.777-706.336-235.544-1412.426-352.792-2118.701-7.351-44.171-14.733-88.332-22.082-132.49-.76-5.347-1.88-10.63-2.64-15.97-.062-6.502-4.856-8.386-10.16-9.572-81.497-27.15-162.975-54.317-244.46-81.467-142.336-47.478-284.708-94.881-427.04-142.357-13.532-4.49-27.037-9.017-40.56-13.514-6.477-2.17-12.972-4.309-19.44-6.486-6.235-1.594-13.427-5.493-19.495-5.034-100.387 32.434-200.209 66.92-300.466 99.791-150.35 50.002-300.828 99.614-451.039 150.05-5.982 1.452-6.275 6.662-6.798 11.742-24.43 146.388-48.84 292.799-73.214 439.189C565.92 1546.494 463.462 2154.662 363 2763m652-1050.625c2.276 2.162 6.28 4.469 8.609 5.549 3.306 1.279 6.87-2.492 9.057-3.921 11.695-8.606 23.054-17.657 34.32-26.788 5.495-4.774 12.021-10.268 16.963-14.745 2.612-2.592 5.263-5.141 8.178-7.378 2.81-2.32 5.607-5.849 8.873-6.092v421c31.813-.189 66.162.213 94.793-16.184 6.448-3.608 12.721-7.477 18.52-12.076 5.909-4.182 6.188-10.05 5.687-16.218V1978h207c-2.028 15.336-.121 32.395 11.266 44.091 9.583 11.957 25.735 15.796 40.157 16.667 13.763.096 30.017-6.304 38.773-15.514 9.333-10.314 15.255-23.249 19.29-36.416 9.715-32.842 7.535-73.625 1.951-104.048-2.596-13.069-5.927-26.01-9.456-38.846-1.628-6.11-3.46-12.16-5.56-18.125-1.726-8.438-9.46-7.387-15.421-7.809 1.823 34.637-13.377 67.293-31 96-5.32.14-8.924-4.378-12.806-7.49A876 876 0 0 0 1429.5 1878c-15.64 19.65-28.638 41.602-44.5 61h-2v-117h68.4c11.618-.022 23.231.027 34.845-.015 10.2.702 20.153-4.82 23.755-14.485-14.051-12.537-26.961-26.341-41.738-38.081-13.525-13.306-29.058-24.343-42.762-37.419-12.168 18.791-27.98 35.857-39.5 55h-3v-113h69c11.545-.28 23.115.371 34.643-.274 10.087.064 19.265-4.982 23.357-14.226-26.746-26.695-56.003-50.734-84.5-75.5-7.031 9.22-13.818 18.643-20.711 27.971-3.351 4.798-6.849 9.484-10.364 14.147-3.608 3.945-6.352 11.29-11.425 11.882v-110h103.8c5.651-.147 11.368.321 16.98-.533 4.572-.476 9.056-4.07 13.22-4.467v285c27.035.168 54.671 1.192 80.963-6.553 11.6-3.976 25.898-8.722 35.149-15.313 4.423-4.227 2.313-13.141 2.888-19.645 1.017-6.652-1.517-15.38 1.5-20.489 16.68 2.091 33.6.242 50.348 1H1839c-1.712 11.495-1.085 23.269-2.661 34.792-.597 11.42-2.202 22.766-2.339 34.208h-4c-5.512-11.438-21.931-20.617-30.427-25.731-12.096-6.509-24.991-11.44-38.565-13.8-10.03-2.227-20.236-3.709-30.454-4.643-5.447-.276-10.868-.72-16.31-.786-4.592-.475-9.295 3.928-12.244 6.46 24.11 16.49 45.435 37.31 61.554 61.809 9.085 11.546 13.738 25.666 19.63 38.765 4.927 5.28 15.857 6.445 21.266 6.907 3.864.12 7.789-.06 11.426-1.5 3.306-1.276 6.428-3.492 10.124-3.481-2.376 20.112-6.821 40.045-11.766 59.65-4.467 13.015-9.24 30.16-19.478 38.645-20.476 12.006-45.618 6.448-67.791 6.043-23.353-1-46.583-3.81-69.965-4.338-.086 3.697.318 7.374 1 11 25.736 5.792 52.435 13.771 73.18 30.822 8.208 7.745 15.13 17.276 17.848 28.33 2.86 11.074 3.85 22.604 3.972 33.999-.061 4.95-1.277 12.272 6.156 11.808 39.889-.706 82.038-5.553 115.777-29.041 24.24-16.858 38.286-44.254 47.115-71.557 13.765-43.64 19.815-89.2 24.26-134.603 2.476-23.298 3.922-46.63 5.68-69.97.362-6.227.634-12.461.93-18.68.315-1.93.213-5.133 1.508-6.274 13.553-2.923 28.39-5.874 38.574-16.334-35.53-27.282-68.62-58.75-104.5-85.5-15.145 14.794-30.733 29.083-45.87 43.87-5.362 5.217-10.592 13.202-19.686 12.13H1636v-58.8c.614-5.54-1.114-14.073 1.5-18.2 20.658 2.366 41.627-.032 62.357 1h220.627c9.17-.105 18.338.153 27.504-.145 7.563-.47 15.443-.115 22.597-2.967 3.024-1.108 5.448-3.28 7.593-5.601 1.663-1.8 4.575-5.67 2.401-7.55-15.352-14.677-32.7-27.162-49.213-40.447-8.237-6.55-16.756-12.771-25.044-19.24-4.2-3.226-8.501-6.347-12.688-9.58-3.793-2.91-9.62-5.912-9.634-10.47 5.477-1.067 11.897-5.98 17.773-8.92 7.252-4.788 4.867-13.059 5.227-20.488V1311c12.842-1.92 25.751-7.047 35-16.5-36.336-29.518-75.102-56.057-111.5-85.5-9.554 9.313-19.331 21.572-28.102 30.102-6.657 7.53-14.835 16.064-21.234 22.698-5.284 8.122-14.01 6.23-22.424 6.2H1681c.886-5.638 9.299-9.06 13.606-13.46 18.201-14.174 36.209-28.546 54.36-42.777 4.76-3.365 8.698-7.892 13.847-10.724 8.145-2.888 18.299-2.026 25.687-7.673 7.117-3.758 13.588-11.926 14.5-19.366-59.88-8.663-119.233-21.61-179-31-.577 37.343-3.057 74.673-4 112-8.802-.682-18.22-6.237-25.917-8.36-25.77-9.33-51.343-19.28-77.083-28.64v81h-2.5c-23.037-22.662-47.606-43.653-70-67-15.84 18.454-34.572 34.29-51.102 52.102-2.287 2.141-4.314 4.608-6.884 6.43-4.135 2.984-12.564.441-17.147 1.468H1316c.367-6.966 4.594-15.674 6.406-23.695 5.984-22.781 14.359-45.111 18.594-68.305 15-.664 34.73-5.885 38-22-54.908-10.45-109.19-24.967-164-36-4.37 50.453-13.007 100.401-23 150h-46c-2.329-13.95-5.561-27.79-9.923-41.25-1.874-6.782-4.118-13.391-6.649-19.943-1.217-2.795-1.91-7.424-4.803-8.342-3.514-.497-7.07-.58-10.625-.465 2.56 37.37-20.626 77.883-44.975 100.475-9.842 10.133-23.263 16.14-32.756 26.76-8.284 8.381-15.659 20.587-18.349 31.038-4.23 21.766 7.114 45.446 26.13 56.417 14.113 8.728 32.108 10.397 47.692 5.21 23.288-6.616 38.614-28.429 46.49-50.035 8.975-22.568 12.779-51.761 10.768-73.865h36c-1.87 18.371-9.156 35.894-13.102 53.836-17.687 61.14-38.408 121.579-65.335 179.328-12.994 28.719-27.317 56.828-42.77 84.288-15.157 26.21-30.597 52.74-48.793 76.923M1220 1647h57v-119h-57zm0 149h57v-122h-57zm0 155h57v-129h-57zm62-449c8.269-44.19 10.914-89.326 14.5-134 13.56 5.298 28.356 7.985 42.161 12.77 6.917 2.177 13.913 4.097 20.88 6.107 6.888 1.72 14.826 5.183 21.459 5.123 3.03-24.777 9.829-49.075 12-74h-87c-13.453 39.64-29.235 78.733-47.681 116.34-8.86 18.548-18.396 36.756-28.458 54.688-2.473 3.558-6.087 9.028.324 11.545 8.168 2.736 17.241.594 25.647 1.427zm25-1.5v1.5h57c4.011-.192 10.06.682 12.736-1.69 17.097-20.253 33.444-41.472 49.764-62.31 14.682 12.298 30.799 22.885 45.466 35.237 7.606 5.796 14.927 12.011 22.448 17.905 3.752 3.022 7.361 6.24 11.113 9.253 3.574 2.879 7.292 7.345 11.473 7.605v-167c-9.032-.489-17.27 9.84-26.02 14.678-11.919 8.617-24.327 16.532-36.843 24.228-6.342 4.326-13.285 7.689-19.72 11.84-4.774 4.43-15.222 6.057-16.417 12.254 6.255 1.057 13.14 4.678 19 5-3.317 16.465-22.78 17.278-34.35 18.413-9.07 4.005-15.507 13.064-23.863 18.35-23.48 18.239-46.572 37.467-71.787 53.237zm262 321.5c3.766 29.398 5.877 59.087 5.912 88.75-.52 11.35-.553 22.742-1.837 34.03-.425 9.743-2.32 19.275-3.59 28.897-.538 7.874 9.04 13.248 14.018 17.675 10.815 9.133 26.418 9.66 38.685 3.454 18.65-9.759 28.153-31.066 29.639-51.173 1.729-21.903-5.807-43.054-16.018-62.013-12.67-23.268-34.809-45.997-53.99-60.632-4.088-2.167-9.442.65-12.819 1.012m66-17.625c18.444 22.883 31.581 50.17 40.146 78.2 3.192 11.062 5.452 22.47 6.207 33.978.785 4.983-.133 10.526 1.669 15.281 6.336 5.852 15.725 10.687 23.39 12.616 16.122 3.117 32.364-5.566 40.718-19.2 12.732-21.512 6.955-48.987-7.956-67.683-13.693-19.036-33.098-33.003-54.227-42.65-12.682-7.183-27.036-10.722-40.447-15.917-2.587 2.67-6.448 3.57-9.5 5.375m1-418.375h150v-92h-150zm0 118h150v-92h-150zm0 113h181c1.516-5 8.027-9.337 11.086-14.608 5.979-7.266 11.637-14.781 17.73-21.948 3.002-3.606 5.86-7.326 8.81-10.96 2.387-3.657 6.854-7.307 7.374-11.484-12.332 1.765-24.054 7.028-36.568 8.016-13.04 2.114-26.285 1.97-39.432 1.984v-38h-150z" style="fill:#fda;fill-rule:evenodd;stroke:none"/><path d="M244 2863.5c418.26 1.426 837.325-.26 1255.75.5 418.681-.76 837.643.926 1256.25-.5-137.483-816.352-271.828-1633.965-409-2450.5-141.513-45.746-282.358-94.352-423.703-140.74-105.839-35.248-211.646-70.575-317.47-105.817l-60-20a8496 8496 0 0 1-28.008-9.343c-4.68-1.543-9.347-3.083-13.982-4.729-5.086-2.015-9.193.742-14.014 2.193-139.528 46.49-279.049 93.006-418.557 139.507C931.703 319.858 792.72 367.853 653 413c-137.126 816.275-271.612 1634.71-409 2450.5m120-103v1.5h2272v-1.5c-68.931-409.09-136.257-818.54-204.874-1227.691-51.028-306.678-102.288-613.313-153.312-919.99-4.869-28.835-9.565-57.678-14.432-86.51-1.133-7.012-2.351-14.007-3.495-21.008-1.484-6.504-.056-15.285-8.94-17.157-109.703-36.573-219.416-73.135-329.12-109.701-96.009-31.978-191.992-64.023-288-96-41.971-14.027-84.002-27.963-125.969-41.994-9.552-4.304-21.398 2.4-30.56 4.946-155.047 51.948-310.255 103.285-465.433 154.805-58.187 19.4-116.394 38.801-174.566 58.195-25.476 8.525-51.019 16.959-76.48 25.505-5.454 2.642-13.186 3.29-17.14 6.618-2.1 1.795-1.737 5.77-2.555 8.884-62.19 372.917-124.31 745.877-186.485 1118.792C490.857 1998.664 428.048 2380.37 364 2760.5" style="fill:gray;fill-rule:evenodd;stroke:none"/><path d="M1099.5 1660c1.426 140.149-.26 280.758.5 421 32.186-.143 66.77.527 95.927-15.655 6.367-3.707 12.865-7.294 18.582-12.001 6.413-3.836 6.838-8.945 6.491-15.624V1979h205c-2.577 14.206.475 32.521 9.925 42.502 8.775 11.517 23.653 16.812 37.573 17.953 14.226 1.9 31.16-3.774 41.306-11.952 10.19-9.125 17.324-24.084 21.401-35.657 5.418-16.858 7.84-34.638 7.81-52.29 1.185-17.282-.752-34.633-3.533-51.697-2.516-14.577-6.039-29.013-10.03-43.245-1.84-6.865-3.849-13.676-6.223-20.363-1.505-8.06-10.857-6.89-17.229-7.251 1.823 34.637-13.377 67.293-31 96-4.189-.648-7.91-5.775-11.96-8.51-11.262-9.796-23.01-19.024-34.54-28.49-15.89 19.973-29.52 41.731-45 62-1.426-38.14.26-76.76-.5-115h100.2c8.313.37 19.75-1.042 25.01-10.843 3.766-7.208-5.772-11.27-9.58-16.027-15.051-14.747-31.368-28.136-46.922-42.338-4.872-3.921-9.353-8.284-14.24-12.186-4.686-2.99-9.84-9.695-14.468-10.606-11.633 19.012-27.511 36.098-39.5 55l-.5-1.625V1675h57.6c14.416-.117 28.798.144 43.205-.081 8.132-.687 19.74-1.665 24.237-11.11 4.018-6.102-5.555-12.344-9.017-16.283-15.284-14.406-31.113-28.16-47.106-41.78-9.135-7.913-18.153-15.996-27.419-23.746-14.56 17.637-26.626 37.24-41 55-1.426-35.845.26-72.081-.5-108h101.4c10.166.222 21.27 1.163 30.1-5 1.426 94.875-.26 190.06.5 285 27.37.176 55.321 1.389 81.99-6.275 11.85-3.896 26.207-8.786 35.761-15.258 5.126-4.593 2.454-14 3.249-19.978 1.017-6.652-1.517-15.38 1.5-20.489 66.195 3.611 133.256-1.445 199.5 1.5-1.995 4.326-.252 11.237-1.513 16.678-.51 16.65-2.9 33.202-3.487 49.822h-2c-5.512-11.438-21.931-20.617-30.427-25.731-12.096-6.509-24.991-11.44-38.565-13.8a229 229 0 0 0-32.236-4.755c-5.795-.252-11.57-.824-17.376-.653-4.784.118-9.452 5.073-12.396 7.439 23.86 17.005 45.843 37.2 61.97 61.955 8.576 11.85 14.602 25.181 19.545 38.87 4.86 5.675 15.73 7.142 21.379 7.645 3.995.041 8.099.224 11.994-.845 3.52-.71 6.99-3.266 10.112-4.125-3.322 19.678-6.51 39.514-12.09 58.723-4.455 12.78-9.332 29.72-19.57 37.872-20.452 11.634-45.159 6.088-67.172 5.661-23.426-.795-46.704-4.026-70.168-4.256-.118 4.362.157 8.719 1 13 25.736 5.792 52.435 13.771 73.18 30.822 8.36 7.84 15.322 17.562 17.97 28.815 2.832 11.109 3.746 22.668 3.85 34.098-.104 2.865-.01 5.72.442 8.533.109 2.823 5.082 2.49 6.91 2.723 40.146-.7 82.6-5.454 116.581-29.073 24.351-16.989 38.49-44.524 47.268-72.03 13.766-43.883 19.723-89.703 24.237-135.318 2.33-23.281 4.068-46.625 5.623-69.954.37-6.208.585-12.446.926-18.647.257-2.104.185-5.05 2.418-5.523 13.881-2.262 28.544-6.395 38.595-16.946-36.016-28.393-70.154-59.656-106.5-87.5-15.193 14.417-30.21 28.985-45.394 43.394-5.762 5.185-11.542 13.84-18.763 13.59-62.455.045-124.897-.008-187.343.016v-57c.626-5.482-1.126-13.927 1.5-18 7.338 1.903 15.132.43 22.592 1h250.692c13.895-.188 27.826.311 41.71-.368 11.442-.141 25.24-1.24 30.506-16.132-15.98-13.935-32.354-27.408-49.212-40.26-8.3-6.763-16.99-13.028-25.464-19.566-4.1-3.34-8.4-6.473-12.634-9.633-3.372-3.752-10.126-5.89-11.69-10.041 5.477-1.067 11.897-5.98 17.773-8.92 7.252-4.788 4.867-13.059 5.227-20.488V1312c6.912-1.075 13.808-2.877 20.068-6.03 5.457-3.573 14.154-7.142 15.932-12.97-19.76-12.585-37.561-29.15-56.977-42.472-18.5-14.949-38.374-28.159-56.523-43.528-19.432 19.095-36.311 40.915-56.24 59.44-15.383 1.538-31.036-.232-46.468.56-15.161-.7-30.75.866-45.792-.5 19.909-16.599 41.103-31.703 61.032-48.298a434 434 0 0 0 15.372-12.304c7.788-6.935 19.548-4.982 28.535-10.035 10.157-4.579 14.468-12.304 18.061-21.363-.458-.45-.911-.96-1.25-1.5-60.486-8.45-120.31-22.39-180.75-31-.577 37.343-3.057 74.673-4 112-17.2-4.655-33.387-12.976-50.457-18.175-17.211-6.892-34.994-12.63-52.043-19.825-2.185 27.103 1.185 54.941-1 82-14.21-14.469-29.766-27.507-43.975-41.975-5.539-5.233-11.504-9.95-16.627-15.627-2.42-2.312-4.655-4.82-7.181-7.01-4.637-4.653-9.91 5.209-13.32 7.714-15.39 15.367-30.74 30.77-46.135 46.12-3.71 4.675-11.013 3.943-16.302 3.778H1317c7.85-30.002 19.069-59.477 25-90 14.087-.218 32.835-4.996 39-22.5-26.985-8.142-55.896-12.27-83.333-19.351-27.992-5.439-55.534-13.588-83.667-18.149-4.37 50.453-13.007 100.401-23 150h-44c-2.381-14.246-5.723-28.392-10.205-42.134a243 243 0 0 0-6.869-20.567c-1.896-9.202-9.548-7.375-16.926-7.299 2.661 37.81-21.137 78.48-45.733 101.233-10.007 9.915-23.465 15.847-32.727 26.75-8.132 8.499-15.497 20.713-17.83 31.269-3.722 21.858 6.356 45.94 25.855 57.115 14.24 8.962 32.594 10.695 48.523 6.035 23.64-6.21 39.817-27.58 47.784-49.578 8.815-22.818 13.53-52.449 11.128-74.824h34c-20.13 89.175-51.88 175.932-91.178 258.363-20.018 40.26-41.538 79.856-66.796 117.097-3.083 4.764-6.36 9.368-9.668 13.968-3.839 4.682.616 7.9 4.572 9.857 3.414 3.052 7.104 1.785 10.102-1.29 23.795-17.793 47.189-36.232 68.468-56.995m121.5-14h55v-117h-55zm0 149h55v-120h-55zm0 155h55v-127h-55zm6-453.25c2.303 4.347 10.296 3.915 13.745 4.25H1281c7.511-44.269 11.83-89.163 14-134 28.579 6.72 56.362 17.61 85 24 3.425-24.063 8.992-47.85 12-72h-85c-10.076 31.418-23.169 61.938-36.27 92.193-13.428 28.938-27.876 58.025-43.73 85.557m81 3.5c10.914 2.037 23.287-.287 34.51.75h17.927c5.519-.299 12.745 1.116 16.28-2.558 15.773-20.542 33.58-40.295 48.283-61.442 4.061.71 8.023 5.376 12.275 7.708A1699 1699 0 0 1 1515.5 1507c1.426-54.805-.26-110.101.5-165-8.397.445-15.879 10.811-24.448 14.978-22.974 17.044-48.314 30.541-72.552 45.522 5.874 3.454 14.785 3.43 20 7-5.281 15.31-20.16 18.131-34.273 18.716-4.572.474-8.762 5.57-12.921 8.588-26.976 22.286-54.57 44.23-83.806 63.446M1568 1821c3.214 28.66 5.821 57.476 5.966 86.356-.078 21.567-1.91 43.023-5.426 64.286-1.94 7.691 5.223 14.208 10.826 18.239 9.917 9.276 24.31 12.778 37.266 8.345 19.13-5.576 30.961-24.993 34.72-43.428 4.458-20.348.416-41.526-7.776-60.327-12.78-29.49-34.654-53.798-59.503-73.728-4.227-4.072-11.23-.347-16.073.257m66-18c22.258 34.778 44.762 73.245 46.453 116.223.56 5.293-.402 12.244 3.465 15.299 13.874 12.76 35.582 15.937 51.533 4.994 16.287-10.637 21.73-31.054 19.185-49.324-3.534-24.285-20.643-44.059-39.179-58.774-19.36-14.416-41.903-23.799-64.646-31.33-6.913-3.504-11.22 1.059-16.811 2.912m3-418h148v-90h-148zm0 118h148v-90h-148zm0 113h179c13.543-19.51 30.503-37.516 45-56.5-11.905 1.91-24.1 6.897-36.41 7.774-13.091 2.11-26.403 1.612-39.59 1.726v-38h-148z" style="fill:#000;fill-rule:evenodd;stroke:none"/></svg>