<svg xmlns="http://www.w3.org/2000/svg" width="3000" height="3000"><path d="M363 2763h2274c-116.777-706.336-235.544-1412.426-352.792-2118.701-7.351-44.171-14.733-88.332-22.082-132.49-.76-5.347-1.88-10.63-2.64-15.97-.062-6.502-4.856-8.386-10.16-9.572-81.497-27.15-162.975-54.317-244.46-81.467-142.336-47.478-284.708-94.881-427.04-142.357-13.532-4.49-27.037-9.017-40.56-13.514-6.477-2.17-12.972-4.309-19.44-6.486-6.235-1.594-13.427-5.493-19.495-5.034-100.387 32.434-200.209 66.92-300.466 99.791-150.35 50.002-300.828 99.614-451.039 150.05-5.982 1.452-6.275 6.662-6.798 11.742-24.43 146.388-48.84 292.799-73.214 439.189C565.92 1546.494 463.462 2154.662 363 2763m653-678.25c1.18 2.613 5.264 3.92 7.5 6.25 44.94-35.833 85.984-77.627 114.912-127.707 22.723-37.594 39.998-78.215 53.322-119.991 19.766-65.617 28.797-133.911 31.682-202.184 2.044-36.35 2.74-72.652 2.584-108.985.05-9.297-.062-18.623.033-27.92-.234-7.222 8.205-8.332 12.799-11.133 17.1-6.34 32.421-17.341 49.168-24.08v151h14v328h40c.437 23.1-.063 46.32-4.929 69.014-1.237 8.286-3.359 16.356-5.28 24.482-1.134 6.255-5.947 15.29-2.84 20.191 6.857 9.814 15.971 18.153 26.443 23.98 16.625 8.834 37.514 9.86 54.801 2.448 16.317-6.544 29.278-20.761 34.708-37.36 6.54-20.74-.63-42.9-12.679-59.944-5.874-8.305-12.231-16.364-19.471-23.522-6.91-7.432-16.4-12.247-23.39-19.402-.551-1.6-1.356-3.137-1.363-4.887 7.737-1.705 15.378-3.838 22.852-6.467 3.426-1.16 7.786-2.596 9.701-5.452.412-4.01.629-8.03.447-12.081h408c-.366 11.242-4.242 24.192-6.87 34.086-2.64 7.87-4.986 16.297-10.671 22.646-8.988 9.008-25.843 7.917-37.3 8.13-13.764.031-27.434-1.395-41.159-1.862-5.467-12.022-20.453-20.04-30-26.293-12.277-7.023-25.893-11.422-39.475-15.042-12.355-2.89-24.863-4.837-37.449-6.302-6.647-.801-13.358-.91-20.026-1.306-3.145.31-7.668-1.082-10.131-.05-2.574.996-4.737 2.866-6.919 4.493 15.785 15.018 27.246 33.759 37.906 52.527 8.19 15.298 13.955 31.908 16.962 49 1.377 6.231-.117 14.777 4.554 18.436 17.847 13.117 42.516 18.675 63.085 8.244 20.088-9.052 33.033-31.058 33.493-52.707 4.29.034 7.119 3.692 9.975 6.475 10.374 9.132 15.473 22.383 17.347 35.749 2.698 14.779 2.68 29.846 3.678 44.776 23.851-.62 47.926-2.846 70.946-9.417 15.822-4.456 31.183-10.916 45.108-19.661 20.127-13.927 34.096-35.284 41.007-58.616 7.912-24.048 13.741-49.033 15.939-74.306 12.283-1.56 28.557-5.518 36-15-13.189-11.66-27.725-22.027-41.216-33.392-14.257-10.206-27.173-23.154-41.784-32.608v-3c6.309-.73 12.706.56 19.09 0 11.441-.133 22.885.252 34.3-.355 7.889-.22 16.305-.436 23.07-5.128 4.186-3.066 8.908-9.28 2.554-13.3-12.548-11.262-25.615-21.933-38.7-32.553-17.3-13.753-34.26-27.958-51.683-41.544-3.601-2.611-6.947-5.64-10.631-8.12-5.255 4.787-8.56 11.446-13.326 16.676-2.282 2.75-4.349 5.678-6.561 8.471-1.938 2.736-5.348 6.149-6.113 8.853h-4v-102c.123-2.424-.142-5.067.733-7.363 7.149-4.23 14.74-4.528 21.443-8.726 6.872-3.144 12.744-7.902 17.824-13.411-17.334-11.54-33.567-24.98-50.646-36.943-16.432-12.898-34.382-24.169-50.354-37.557v-2h141c12.024-.136 28.118 1.179 35-14.5-18.425-19.22-40.388-34.68-60-52.5v-2c11.25.021 26.788 2.37 33-13.086-21.107-19.269-46.419-33.711-69-50.914v-2c11.891-.23 23.799.32 35.681-.27 10.17-.277 21.63-.853 27.319-13.23-9.408-9.287-20.765-16.327-31.54-23.843-11.064-6.337-21.272-14.72-32.46-20.657v-3h44.4c11.784.01 28.658 2.04 34.6-14.543-24.15-21.35-49.745-41.093-75.5-60.457-7.074 9.858-16.071 18.407-23.304 28.194-2.979 3.615-6.004 7.186-8.98 10.79-2.496 2.887-5.186 6.55-8.11 8.526-31.957 1.398-64.111-.254-96.106.49v-3c14.138-5.743 29.588-15.676 41.481-22.981 5.92-4.152 16.333-2.266 24.142-5.761 7.422-2.533 15.681-9.15 16.377-16.258-35.108-7.314-69.712-17.58-105-24v-3h201c11.219-.11 22.398.137 33.6-.08 9.212-.673 20.574-2.438 24.4-14.463-37.261-35.505-76.25-69.356-116.5-101.457-13.976 19.119-27.95 38.282-42.073 57.301-5.31 7.231-10.713 14.366-15.9 21.676-2.38 2.961-4.747 6.877-7.605 8.952-7.908 2.345-17.07.154-25.266 1.071H1587v-72c13.136-2.803 31.971-7.879 36-26-57.263-4.63-114.655-9.33-172-13-2.357 18.382.024 37.111-1 55.561V1254h-194.4c-15.176.304-28.668-8.392-42.736-13.054-40.366-15.733-80.532-32.215-120.864-47.946-.493 155.905 1.057 311.345-1.692 466.888-1.515 74.197-4.947 148.566-16.951 221.92-10.02 69.582-27.431 139.227-57.357 202.942M1281 1907h-12c-1.196 10.621-4.061 20.991-9.679 30.153-2.522 4.081-5.467 7.907-8.302 11.754-11.455 11.17-23.21 24.587-40.504 33.313-24.852 11.997-62.177 32.677-56.669 69.853 1.418 11.954 7.405 25.381 15.633 32.906 15.609 14.477 43.339 17.454 61.446 13.014 31.232-8.45 49.565-38.502 58.956-67.165 9.794-32.17 7.331-66.815-1.414-98.978-1.93-8.044-4.652-15.883-7.233-23.726-.09-.38-.16-.751-.234-1.124m-55-451h2.5c22.008-26.535 42.029-54.838 60.401-83.976 9.107-14.559 17.911-29.338 26.066-44.45 4.202-7.774 7.982-15.76 12.429-23.391 2.798-7.253 8.777-16.728 9.604-23.183h-111zm149 151c21.164 5.473 40.624 17.05 61.924 21.906 23.35.268 46.727-.048 70.076.094 1.039-9.303 1.543-18.656 2-28h-29v-146c-5.8.347-12.078 5.754-18.328 8.16-8.791 4.295-19.335 8.871-27.448 12.694-4.72 1.901-9.379 3.92-14.172 5.605-5.213 2.361-9.686-1.323-14.052-1.459-2.204 11.98-.13 24.408-1 36.499-.059 18.557.072 37.084-.039 55.63-.304 8.577-7.142 15.257-13.44 20.184-3.272 2.51-6.521 5.055-10.096 7.112-3.028 1.792-6.816 3.382-6.425 7.575m7-324.5v1.5c17.573 6.962 34.527 15.853 51.87 23.41 8.696 3.853 17.27 7.894 25.899 11.86 8.207 4.35 17.394 7.287 25.231 12.23-5.823 6.863-13.086 12.586-22.3 13.795-7.003 1.756-16.382-1.09-21.078 3.642-7.653 7.084-14.23 15.194-21.605 22.523-3.792 3.387-7.838 6.485-11.25 10.273-3.005 3.26-8.34 7.345-8.767 11.267 11.51 3.108 24.284 9.73 35 12-3.198 11.5-21.1 16.905-30 18v26.4c.016 4.596-.02 9.205.012 13.795.233 1.771.183 4.817 1.424 5.979 1.724.804 3.708.728 5.564.826 9.858-14.651 22.897-27.995 31.967-43.452 14.978-22.257 27.685-45.956 39.71-69.885 10.001-24.962 23.369-49.254 29.323-75.663h-131zm39 413.5h308v-40h-308zm0 131h402c5.03-11.71 19.576-21.642 23-33-4.897.283-9.227 3.022-13.726 4.666-32.976 12.475-68.212 17.325-103.274 16.334v-28h-308zm1-66h307v-42h-307zm0 131h378c7.19-.22 14.38.293 21.544-.222 4.95-.66 7.948-5.13 11.546-8.044 5.368-4.823 10.68-9.765 16.147-14.468 2.412-2.53 5.26-4.595 7.843-6.913 2.266-2.433 6.062-5.242 5.42-8.353-3.356-1.79-8.793-.499-13.094-1H1422zm36 43c2.596 10.292 9.599 19.304 12.379 29.645 6.824 17.892 12.786 36.175 16.233 55.038 1.203 7.582 2.231 15.17 2.853 22.816.166 3.337.606 6.7.385 10.043-.07 2.8-2.153 6.115-.227 8.087 14.349 15.877 36.86 25.666 58.288 20.849 20.7-4.19 39.55-19.911 44.215-41.085 7.764-32.49-13.996-56.764-37.963-74.47-24.757-16.686-53.656-25.655-82.342-32.743-2.295-.552-4.695-1.08-7.066-.707-2.251-.058-4.036 2.364-6.755 2.527m114-652.5v1.5c15.155 3.858 29.596 10.641 44.728 14.755 14.12 5.628 31.523 10.118 44.272 15.745-6.135 11.574-18.36 18.22-31.323 17.684-2.873.412-7.64.264-8.871 2.446-3.096 3.325-5.555 7.205-8.573 10.591-2.357 3.31-6.776 7.322-7.233 10.779h80c2.776-25.127 10.761-49.665 12-75h-125zm20 345v1.5h101.4c8.266-.34 18.08.494 25.602-.46 7.937-6.981 15.76-17.332 22.494-24.34 3.974-3.96 7.74-8.076 11.28-12.418 3.35-3.972 8.715-8.094 9.224-12.782h-166v3c10.944.912 21.499 4.77 32.338 6.377 9.382 3.01 21.273 3.812 29.662 7.123-5.368 11.92-17.69 18.5-30.619 18.422-10.872-.028-22.792 10.474-35.381 12.078zm2-206.5h81v-38h-81zm0 67h81v-44h-81zm0 64h81v-42h-81zm193-131h23.4c4.893-.034 11.17 1.08 14.57-3.98 4.998-5.686 10.624-10.778 15.324-16.719 4.387-5.701 12.793-10.758 13.706-17.301h-67zm0 67h27c5.927-.04 13.184 1.322 17.73-4.233 5.906-6.418 12.612-14.124 18.093-19.949 2.98-3.215 6.251-6.175 8.874-9.692 2.41-3.2 6.88-6.228 7.303-10.126h-79zm0 64h28.2c6.727-.18 14.691.332 20.802-.46 6.642-5.525 11.039-13.732 16.9-20.074 2.75-3.545 5.575-7.032 8.37-10.54 2.405-3.347 6.375-6.934 6.728-10.926h-81z" style="fill:#fda;fill-rule:evenodd;stroke:none"/><path d="M244 2863.5c418.26 1.426 837.325-.26 1255.75.5 418.681-.76 837.643.926 1256.25-.5-137.483-816.352-271.828-1633.965-409-2450.5-141.513-45.746-282.358-94.352-423.703-140.74-105.839-35.248-211.646-70.575-317.47-105.817l-60-20a8496 8496 0 0 1-28.008-9.343c-4.68-1.543-9.347-3.083-13.982-4.729-5.086-2.015-9.193.742-14.014 2.193-139.528 46.49-279.049 93.006-418.557 139.507C931.703 319.858 792.72 367.853 653 413c-137.126 816.275-271.612 1634.71-409 2450.5m120-103v1.5h2272v-1.5c-68.931-409.09-136.257-818.54-204.874-1227.691-51.028-306.678-102.288-613.313-153.312-919.99-4.869-28.835-9.565-57.678-14.432-86.51-1.133-7.012-2.351-14.007-3.495-21.008-1.484-6.504-.056-15.285-8.94-17.157-109.703-36.573-219.416-73.135-329.12-109.701-96.009-31.978-191.992-64.023-288-96-41.971-14.027-84.002-27.963-125.969-41.994-9.552-4.304-21.398 2.4-30.56 4.946-155.047 51.948-310.255 103.285-465.433 154.805-58.187 19.4-116.394 38.801-174.566 58.195-25.476 8.525-51.019 16.959-76.48 25.505-5.454 2.642-13.186 3.29-17.14 6.618-2.1 1.795-1.737 5.77-2.555 8.884-62.19 372.917-124.31 745.877-186.485 1118.792C490.857 1998.664 428.048 2380.37 364 2760.5" style="fill:gray;fill-rule:evenodd;stroke:none"/><path d="M1421 1761h2c.241-12.966-.241-27.662 0-41h287.4c5.943.762 13.367-1.096 18.1 1 .384-.972.51-1.963.5-3h-308zm0 132h403v-2h-401c.456-12.512-.623-25.67.5-38h-2.5z" style="fill:#bfa67f;fill-rule:evenodd;stroke:none"/><path d="M1246 1253.5c.03.55.186 1.057.5 1.5h157.8c13.218-.015 26.433.018 39.637-.01 1.942-.209 5.618-.095 6.424-1.813 1.808-18.08-.317-36.557.639-54.71-.738-18.062.905-36.515-.5-54.467-2.303 3.092-1.102 8.6-1.5 12.895V1253c-67.53.76-135.65-.926-203 .5" style="fill:#7f6e55;fill-rule:evenodd;stroke:none"/><path d="m1081.5 2040 7.5-7.5c-3.145-.98-6.414 1.826-7.394 4.594-.62.87-.403 2-.106 2.906m8.5-413h2c.416-2.654 1.014-5.3 1-8h-3zm137-50v-8h-2c-.71 2.675-1.9 7.659 2 8m105 491.375c2.604 3.057 5.807 5.646 8.5 8.625 1.154-2.993-3.076-7.07-5.245-8.178-1.01-.534-2.128-.763-3.255-.822zm9-93.375c2.612-.13 3.065-2.316 3-4.287V1969h-3zm94.5-618 5.5-5.5c-2.9-1.347-4.72.73-5.631 2.975-.25.83-.375 1.605.131 2.525m153.5-103.5c-2.116-4.48-.217-11.608-1-17.253V1183c1.215-.085 2.33-.724 3-1.5-1.899-1.05-4.546.07-6 .5v56.401c.015 3.15-.024 6.283.028 9.423-.113 2.47.048 6.52 3.972 5.676m-2 684c1.482 1.302 3.35 3.801 5 4.172-.403-2.228-.895-4.411-1-6.672-1.339.21-3.039 1.176-4 2.5m45-322.5v-2c-2.186-.454-5.185-1.594-6.91-.254-2.317 2.064 2.736 2.836 3.873 2.254zm96 79h3v-33h-3zm0 65h3v-38h-3zm16 261.5c.554-.48 1.357-.494 2-.5v-6h2v-2c-1.732.004-3.333.674-5 1-.03 2.543.486 5.038 1 7.5m16-204.5v-2c-2.517-.568-5.371-1.573-7.842-.287-2.382 2.695 3.952 2.459 5.02 2.287zm-1.5 209c1.22-2.408-.398-5.478-3.045-5.893-.48-.106-.968-.118-1.455-.107.253 2.482 3.028 4.296 4.5 6m192.5-743c-.212-2.267-2.336-3.215-4.216-2.692-.924.208-1.855.524-2.784.692.144 1.933 1.987 2.01 3.263 2z" style="fill:#0d0b09;fill-rule:evenodd;stroke:none"/><path d="M1091.5 1578c1.238-4.086-.073-8.662.5-12.845-.46-4.009.613-8.913-.5-12.155-2.575 3.27-1.492 9.24-2.355 13.833-.512 4.077-.176 7.915 2.355 11.167m135-18c1.776-1.773 1.37-4.403 1.727-6.65.678-2.247-.02-4.646-2.227-5.35.443 3.98-.61 8.77.5 12m14 399c3.095-1.31 6.58-5.532 7.5-8-3.43.372-8.352 4.895-7.5 8m149.5-11c.147-1.573-.82-3.39 0-4.5-1.518-.713-3.514-.406-5-.5-.248 3.14 2.196 5.245 5 5m15-474c2.83.173 5.673-2.482 6-5-2.55.328-4.143-.78-6-2zm.5 10c.853-.817 1.412-1.815 1.5-3 2.777.165 5.831 2.576 7.5 4h1.5v-1.5c-3.497-2.95-6.808-8.193-11-8.5.208 2.82-.33 6.78.5 9m84 579c.772-2.651.561-6.857 0-9-3.492 2.577-3.07 6.655 0 9" style="fill:#f1d3a5;fill-rule:evenodd;stroke:none"/><path d="M1014 2085.625c3.022 2.634 6.504 4.714 9.5 7.375 21.92-18.442 44.87-36.616 62.87-59.074 35.825-35.332 60.745-80.551 82.115-125.611 16.295-35.472 27.874-72.942 36.193-111.01 14.05-59.166 19.303-120.045 20.864-180.68.945-30.563 1.425-66.132 1.458-94.644v-12.508c.342-3.147-.607-7.6 1.456-9.723 19.101-10.037 39.917-17.843 58.044-29.75 1.426 50.14-.26 100.76.5 151h14v328h40c.243 6.116-.323 12.296.237 18.396-.555 1.95.76 2.542 1.307 3.612-2.617 9.927-2.423 20.72-4.184 30.962-2.556 17.998-6.3 35.869-11.878 53.175-1.594 3.49-.477 6.3 2.092 8.606 6.995 7.798 14.827 16.288 25.815 22.912 16.269 9.102 39.783 9.427 55.35 3.048 16.595-6.212 30.004-20.23 35.795-36.86 7.045-20.634.948-43.432-10.869-60.831-10.976-17.465-25.838-32.244-43.204-43.358-1.901-1.28-3.825-2.551-5.461-4.162 8.108-1.838 16.372-3.504 24.208-6.417 3.88-1.245 8.545-2.762 11.095-5.57.98-4.003.642-8.384.697-12.513h406c-.78 10.778-4.496 23.17-7.055 32.677-2.606 7.658-4.918 15.886-10.486 22.055-8.738 8.77-25.159 7.943-36.344 8.107-13.408-.028-26.737-1.384-40.115-1.839-5.467-12.022-20.453-20.04-30-26.293-12.277-7.023-25.893-11.422-39.475-15.042-13.612-3.066-27.374-5.337-41.26-6.724-5.563-.4-11.15-.626-16.709-.92-4.167-.104-9.373-1.4-12.937.524-8.646 5.92 2.641 13.818 5.763 18.324 13.932 17.01 25.237 35.947 33.967 56.083 5.733 14.593 9.984 29.87 10.765 45.593.138 6.827 10.802 9.816 15.219 12.621 6.482 3.293 14.74 5.863 21.367 6.646 15.077 1.349 31.055-1.866 42.908-11.9 11.422-8.537 19.409-24.15 21.392-36.806.751-3.231-.464-6.063-1-9.106.873-.03 1.747-.301 2.5-1 11.26 9.798 21.096 21.397 23.64 37.21 3.764 16.672 3.85 33.829 4.86 50.79 23.216-.135 50.573-3.141 71.118-8.893 16.05-4.23 31.495-10.722 45.665-19.336 20.63-13.553 34.765-35.105 41.961-58.468 8.003-24.386 14.124-49.656 16.256-75.303 13.15-1.831 30.726-6.087 37-16.5-28.012-22.218-55.765-45.168-84-67 14.688-1.747 31.11.593 46.165-.538 13.014-.614 31.504 1.701 37.835-16.462-34.905-30.112-70.911-59.593-107.5-87.5-4.838 5.408-8.878 11.49-13.388 17.148-2.438 2.941-4.665 6.022-7.022 9.027-1.938 2.739-5.328 6.125-6.09 8.825h-2v-81.6c.015-6.814-.019-13.636.01-20.443.153-2.022.168-5.567 1.91-6.378 14.573-4.265 29.01-10.161 39.08-22.079-34.042-24.917-67.982-50.059-102-75 46.467-1.426 93.439.26 140.002-.5 10.463.232 22.213.55 30.762-6.724 2.222-2.183 4.75-6.102 4.74-8.714-2.693-6.337-9.77-10.025-13.965-14.567-14.647-13.431-30.125-25.976-45.539-38.495 9.822-1.825 23.229 2.93 30.892-9.664 4.083-6.113-1.807-9.737-5.767-12.515-4.009-3.191-7.949-6.499-12.162-9.402-12.215-9.13-24.571-18.058-37.282-26.476-3.725-2.65-8.38-5.382-11.681-7.943 11.056-1.513 22.636.398 33.793-.658 7.676-.61 16.38-.242 22.845-5.234 4.084-3.397 8.605-9.288 2.567-13.74-12.667-10.082-25.837-19.638-39.757-27.922-7.052-4.107-13.318-9.523-20.448-13.446 12.875-1.308 26.012.141 38.937-.5 9.37-.354 19.211 1.012 28.285-2.047 5.553-2.116 11.568-8.304 11.31-14.1-12.377-14.183-29.066-24.257-43.29-36.432-10.714-8.743-21.951-16.805-32.742-25.421-7.45 9.568-15.885 18.364-23.283 27.984-6.232 6.256-11.707 15.51-18.111 20.526-15.672 1.354-31.53-.21-47.235.49-15.57-.703-31.386.87-46.871-.5 14.29-7.3 28.594-14.778 41.918-23.774 6.752-4.079 16.29-1.665 24.75-5.843 7.945-2.847 14.63-9.471 16.332-17.883-35.454-7.537-70.54-16.92-106-24.5 75.249-1.441 150.677.278 225.96-.51 3.639.355 8.569-1.922 11.948-.531 7.486-.573 15.778-2.954 19.402-10.362 3.848-6.054-5.412-12.605-9.197-16.008-34.284-32.066-70.15-62.5-106.613-92.089-20.003 26.168-39.071 53.104-58.66 79.575-3.61 4.797-6.47 11.275-14.62 10.425h-182.327c-4.898-.236-12.89 1.784-12.838-5.786.24-20.388-.456-40.889.207-61.255-.087-4.895 8.423-3.917 11.394-5.407 11.266-3.608 25.14-9.356 26.344-25.552-28.894-3.454-58.138-3.936-87.08-6.928-29.007-1.493-57.9-4.944-86.92-6.072v103.8c.381 3.838.228 8.277-5.223 8.103-64.243.224-128.49.014-192.725.063-7.493-.546-14.076-5.122-21.18-7.2-46.348-18.796-93.224-36.533-139.372-55.766-1.426 71.763.26 143.883-.5 215.709v162.383c-.017 8.935-.317 17.867-.476 26.783l-.296 13.639c.42 3.626-1.21 9.41 1.772 10.486-2.251 10.035-2.321 20.332-2.488 30.647-1.467 75.851-4.854 151.83-16.59 226.879-10.472 71.276-27.526 143.03-58.922 208.099M1282 1906h-14c-1.934 21.035-13.15 39.617-28.89 53.323-12.78 12.092-27.272 21.915-43.476 28.854-14.265 6.553-26.728 16.901-35.406 30.058-15.71 22.171-6.445 59.245 13.913 72.321 17.333 11.54 43.662 13.014 61.393 7.381 29.813-10.086 46.874-39.464 55.815-67.636 9.142-31.167 7.132-64.7-1.005-95.893-2.06-9.058-4.98-17.891-7.917-26.686-.186-.506-.322-1.104-.427-1.722m-54.5-451c21.82-26.232 41.611-54.218 59.818-83.046 17.86-28.997 35.028-58.774 48.682-89.954h-109c.76 57.57-.926 115.55.5 173m148.5 149.584c.009.523.138 1.018.416 1.416 20.689 5.965 40.078 16.487 60.92 21.859 22.882.403 45.782-.073 68.664.141.904-8.649 1.36-17.334 2-26h-29v-146c-20.676 10.381-41.953 20.53-63.5 29l-9-9c-1.425 24.456.259 49.349-.5 73.896-.53 11.768 2.13 26.813-4.8 35.059-6.59 7.94-16.94 14.736-25.2 19.045zm7-322.209c34.25 16.486 69.636 31.676 104 48.125-4.682 7.793-12.593 13.171-21.258 15.328-3.633 1.01-7.426 1.206-11.162 1.17-15.473-1.725-18.88 11.097-28.055 19.977-8.577 8.099-17.538 15.799-25.525 24.525 10.961 6.567 25.536 7.192 36 14.5-6.484 10.67-18.715 16.99-31 18 .709 16.236-.876 32.887.5 49 48.019-55.276 82.526-121.79 105.5-191-42.923.57-86.173-.695-129 .375M1422 1695h306v-38h-306zm0 65h306v-41h-306zm0 66h400c.78-2.735 3.763-5.24 5.394-7.881 5.858-7.187 12.05-16.196 17.606-22.619-4.276-.562-8.887 4.177-13.053 4.639-33.603 12.57-68.792 16.798-103.947 15.861v-28h-306zm0 66h376.8c7.138-.262 14.322.336 21.444-.224 3.845-.247 6.739-5.072 10.405-7.793 10.672-9.245 21.183-18.694 31.351-28.483-3.094-2.288-8.6-1.112-12.862-1.5H1422zm34 43.341c9.619 20.948 19.245 42.305 24.795 64.844 5.117 17.723 7.82 36.185 8.198 54.621-1.065 8.119 3.881 12.289 10.052 15.848 18.537 14.85 45.412 17.82 66.248 5.781 20.854-10.241 32.815-34.055 28.993-56.88-4.055-26.393-25.726-46.556-47.327-59.868-23.704-13.69-49.91-21.993-76.474-28.065-5.858-2.188-9.841.612-14.485 3.378zm117-652.966c29.398 10.307 59.524 20.263 89 30.625-2.357 12.759-18.637 20.114-29.052 20.04-3.313.026-6.565.538-9.764 1.265-6.377 6.078-10.4 13.993-17.184 20.195 25.825 1.426 52.084-.26 78 .5 3.04-24.45 10.047-48.385 12-73-40.923.57-82.173-.695-123 .375m20 344.875c10.338 2.026 22.13-.276 32.78.75h74.838c7.477-.17 17.56 1.626 21.53-4.412 12.84-14.464 25.97-28.687 38.852-43.088-27.101-1.426-54.62.26-81.798-.5-27.387.752-54.86-.918-82.202.5 20.641 4.583 41.45 8.512 62 13.5-2.15 12.871-17.78 21.986-30.025 19.833-2.935-.722-6.614 2.012-8.936 2.685-8.584 3.802-18.767 8.362-27.039 10.732m2-207.25h79v-36h-79zm0 67h79v-42h-79zm0 64h79v-40h-79zm134.5 115c.248-1.218 1.158-3.695-.5-4a11.5 11.5 0 0 0 .5 4m0 16c-.127-4.912 1.37-11.03 0-15-1.412 4.369.193 10.494 0 15m0 6c.186-1.493 1.234-4.496-.5-5a16.8 16.8 0 0 0 .5 5m0 5c.248-1.218 1.158-3.695-.5-4a11.5 11.5 0 0 0 .5 4m0 33c.248-1.218 1.158-3.695-.5-4a11.5 11.5 0 0 0 .5 4m0 6c.186-1.493 1.234-4.496-.5-5a16.8 16.8 0 0 0 .5 5m0 6c.186-1.493 1.234-4.496-.5-5a16.8 16.8 0 0 0 .5 5m0 6c.186-1.493 1.234-4.496-.5-5a16.8 16.8 0 0 0 .5 5m0 14c-.09-4.263 1.332-9.558 0-13-1.404 3.764.18 9.118 0 13m58.5-338h22.2c4.81.125 10.793.822 13.943-4.215 9.246-10.797 19.582-20.533 28.857-31.285-21.504-1.415-43.42.248-65-.5zm0 67h25.8c5.804.117 12.736 1.135 17.069-4.37 11.74-12.058 22.101-25.345 34.131-37.13-25.498-1.426-51.422.26-77-.5zm0 64h27c6.708-.148 13.523.299 20.187-.452 11.72-11.96 20.69-26.546 31.813-39.048-26.123-1.426-52.777.26-79-.5z" style="fill:#000;fill-rule:evenodd;stroke:none"/></svg>