<svg xmlns="http://www.w3.org/2000/svg" width="3000" height="3000"><path d="M407 2715h2186c-110.539-672.045-224.255-1343.735-335.448-2015.7-7.021-42-13.992-84.001-21-126-1.697-9.995-3.31-20.009-5.015-29.99-1.448-5.044-.832-12.003-3.96-15.528-76.243-26.577-153.757-51.077-230.278-77.177-134.483-44.879-269.004-89.635-403.48-134.505-25.332-8.389-50.626-16.918-75.954-25.3-5.917-1.536-12.636-4.925-18.277-5.3-93.44 29.594-186.049 62.334-279.322 92.571-139.474 46.507-278.96 93.003-418.44 139.486-8.804 3.003-17.696 5.81-26.461 8.89-4.891 1.307-5.283 6.555-5.858 10.493-21.164 127.083-42.351 254.18-63.537 381.259C606.88 1517.176 505.406 2115.971 407 2715m622.5-553c17.74-15.012 37.013-34.332 52.231-49.235 8.214-8.913 16.576-17.71 24.406-26.966 3.954-4.48 8.045-8.817 11.679-13.563 3.754-3.877 7.21-10.58 12.184-11.236v502c21.315.509 42.73.752 63.674-3.825 14.161-3.469 28.173-7.797 41.543-13.634 9.593-4.15 19.099-8.9 27.408-15.287 8.49-5.343 6.242-16.027 6.375-23.726V1939.48c.477-3.736-.842-8.934 1.336-11.609 10.605-2.69 22.088-6.535 27.664-16.871-3.183-3.362-10.222-3.95-14.962-6.498-9.834-3.566-19.509-7.528-29.443-10.812-4.08-1.705-9.064-3.232-12.773-4.86-4.126-1.115-.718-7.043.405-9.298 26.737-54.975 49.72-112.16 67.773-170.532 13.843.113 31.46-4.409 39-20.5-48.898-12.777-98.28-24.499-147.199-37.314-12.03-2.21-25.75-7.395-36.887-8.653-2.819-.518-2.798 3.748-3.146 5.377a1939 1939 0 0 1-16.89 105.303c-13.385 71.934-31.712 142.842-52.493 212.956-10.755 34.547-21.702 69.008-34.59 102.826-6.412 16.403-12.794 32.826-19.434 49.126-3.315 8.295-6.991 16.404-10.593 24.563-1.322 3.773-3.784 7.833-4.878 11.327-1.576 3.063 5.524 6.98 7.61 7.989m43.56-1031.792c1.893 30.87 2.46 61.863 9.95 91.821 21.772 98.302 79.047 188.629 159.72 249.145 39.587 29.423 83.778 52.6 130.97 67.224 51.597 16.354 106.614 21.515 160.463 17.623 110.397-9.056 217.842-61.82 289.358-147.171 73.49-85.288 112.402-200.2 101.694-312.844-3.819-56.435-20.362-111.494-46.147-161.656-19.273-35.665-42.524-69.628-70.938-98.72-20.765-22.623-44.893-41.595-70.15-59.315-79.715-53.566-177.625-79.535-273.485-70.626-105.793 7.653-206.83 57.975-278.47 135.786-34.247 38.193-63.07 81.707-81.907 129.588-9.96 25.144-18.104 51.12-23.092 77.723-5.613 26.742-6.557 54.051-7.966 81.422m36.998.566c1.064 27.795 2.42 55.392 8.516 82.382 18.65 90.073 71.858 172.167 144.752 227.818 35.967 26.545 75.59 48.922 118.743 61.618 46.858 15.31 96.886 19.509 145.879 16.74 101.3-5.732 198.46-54.88 265.101-130.923 32.635-37.118 58.434-80.127 74.868-126.796 8.96-24.861 14.376-50.744 18.445-76.8 3.337-27.448 3.464-55.053 2.49-82.603-6.716-101.923-55.884-200.974-134.055-267.027-36.828-32.222-79.948-56.67-125.944-73.074-50.583-17.368-104.534-24.114-157.914-20.166-96.236 6.243-189.31 50.816-254.892 121.38-68.691 70.716-106.074 169.146-105.989 267.451M1408 2267h-9c-3.554 24.829-9.34 49.506-20.565 72.111-9.422 18.157-24.16 37.923-38.761 49.84-6.874 6.599-15.035 11.528-23.071 16.482-19.86 22.702-39.658 63.044-7.996 93.663 19.742 19.508 51.82 21.707 75.694 9.241 18.094-8.157 30.924-24.605 39.36-42.02 13.082-29.15 13.983-62.262 10.823-93.49-3.38-29.975-11.464-59.326-20.683-87.958-1.819-5.985-4.194-11.83-5.801-17.869m-50-14c29.838.193 60.667 1.203 89.157-9.559 13.058-4.034 25.514-10.055 36.165-18.685 7.057-4.668 9.616-10.739 8.678-18.352V2183h318c-.225 33.936-4.175 67.765-6.679 101.564-2.314 23.938-4.75 47.896-8.85 71.604-3.23 17.872-6.707 36-13.964 52.751-2.655 5.936-5.895 11.789-11.08 15.892-9.874 8.056-23.534 7.098-35.345 7.189-18.867.063-37.675-1.524-56.493-2.526-17.773-1.844-38.815-1.659-55.089-3.474-2.122 2.476-2.059 9.306 2.322 10.1 8.51 2.085 17.042 4.106 25.298 7.101 17.885 6.01 38.245 15.953 51.588 27.084 14.032 10.45 22.601 26.201 25.056 43.396 1.095 7.848 2.408 15.664 2.75 23.583.243 4.1.48 8.21.48 12.305.427 3.425-.746 8.229 1.394 10.617 27.74 1.508 57.113-1.437 83.826-9.975 18.02-5.379 37.887-16.154 50.98-27.348 22.732-19.204 34.717-47.386 43.36-75.02 9.064-30.305 13.847-61.731 17.965-93.022 5.486-49.454 9.92-99.077 11.481-148.821 14.128-2.407 29.045-6.24 39-17.5-36.543-31.149-73.788-61.557-110.5-92.5-20.823 19.225-41.279 38.88-62.106 58.095-5.186 5.766-15.376 3.344-22.207 3.905H1711v-116h156c13.563-.368 33.936 1.58 42-14.5-34.023-31.845-71.02-60.356-106.5-90.5-11.768 17.42-25.44 33.698-37.475 50.974-6.625 8.402-12.56 17.382-19.436 25.565-4.125 3.91-11.769 1.823-16.85 2.461H1711v-121h156c13.64-.117 34.231 2.123 42-14.5a2180 2180 0 0 0-106.5-89.5c-18.898 26.01-39.485 51.514-57.5 78h-34v-119c64.688-.993 129.544 1.21 194.185-.654 7.014-.678 14.233-3.53 18.126-9.725 3.35-5.411-6.597-10.114-9.505-13.425-32.99-27.044-67.567-52.043-101.59-77.755-1.156-.974-2.299-1.943-3.716-2.441-12.72 14.266-23.767 30.008-36.28 44.457-5.2 6.524-10.43 13.034-15.63 19.55-4.716 5.267-8.873 14.716-18.377 13.993h-204.807c-8.599-.083-17.203.103-25.79-.061-6.504-.46-12.47-3.706-18.646-5.557A68927 68927 0 0 0 1358 1671zm110.5 16c-2.384 1.509-6.303 1.374-9.5 2 .894 15.204 4.598 30.166 5.125 45.428.747 27.544 1.915 60.126-.987 85.298-1.013 10.167-2.731 20.224-4.616 30.238-.382 3.774-2.586 8.088-.34 11.431 8.56 12.912 24.758 23.915 38.416 27.276 23.809 6.168 48.691-8.106 59.965-28.88 11.948-21.145 13.635-47.274 5.52-70-15.102-44.769-52.806-76.48-91.299-100.94-.809-.55-1.576-1.2-2.284-1.851m23.5-400h89v-119h-89zm0 147h89v-121h-89zm0 142h89v-116h-89zm50 88.29c15.284 25.336 27.905 52.587 36.521 81.01 3.34 11.47 6.293 23.04 8 34.882.862 5.411 1.651 10.844 1.946 16.31.479 4.65-.153 10.654 2.81 14.028 12.826 11.916 30.64 19.356 48.275 16.827 27.369-3.164 47.873-30.408 46.036-57.342-1.568-26.75-17.787-50.416-38.59-66.196-27.09-21.744-66.29-36.462-97.02-43.31-2.428.578-5.329 2.261-7.978 3.501zm90-31.915c23.415 19.4 40.717 45.286 55.072 71.773a192.4 192.4 0 0 1 12.878 32.707c1.558 5.372 2.475 10.859 3.644 16.306.758 4.597 6.135 6.98 9.85 8.914 16.552 8.716 37.686 9.975 53.611-1.178 11.853-7.112 19.212-20.01 22.229-33.146 4.173-20.434-4.29-41.43-18.29-56.212-13.68-13.778-31.26-23.013-49.115-30.085-14.64-5.712-30.144-8.744-45.605-11.212-7.815-.987-15.616-2.209-23.47-2.756-3.934-.206-7.912-.724-11.833-.164-3.331.12-6.202 3.707-8.503 4.621z" style="fill:#fd7;fill-rule:evenodd;stroke:none"/><path d="M1029.5 2164c17.43-15.272 36.952-34.197 52.102-49.102 16.553-16.827 31.478-35.073 46.898-52.898 1.426 167.163-.26 334.754.5 502 21.803.426 43.707.813 65.154-3.723 14.362-3.393 28.52-7.881 42.063-13.736 9.745-4.171 19.325-9.06 27.747-15.534 8.42-5.735 5.6-16.821 6.036-24.678v-568.846c-.05-3.607-.544-8.726 4.144-9.528 9.587-2.274 21.28-6.643 25.856-18.455-19.845-8.585-41.25-14.34-61-23 14.533-27.454 26.715-56.424 38.473-85.215 11.623-30.081 23.835-60.223 32.527-91.285 14.008-.356 35.242-4.783 39-23-62.837-14.808-125.317-31.55-188-47-6.5 46.086-13.835 92.099-23.038 137.744-14.465 68.34-31.173 136.23-52.394 202.8-10.599 32.594-20.708 65.385-33.61 97.168-5.774 15.786-12.116 31.334-18.688 46.789-3.475 7.631-6.683 15.39-10.081 23.053-.641 2.797-5.044 7.663-2.831 9.662 2.549 2.91 6.128 4.484 9.142 6.784m42.554-1033.696c1.756 31.145 2.517 62.46 9.955 92.725 21.743 97.67 78.374 187.801 158.454 248.212 39.433 29.281 83.263 52.777 130.238 67.499 51.198 17.283 105.829 21.304 159.414 18.749 111.139-7.444 218.69-60.207 291.795-144.377 35.487-41.217 63.916-88.343 81.926-139.784 19.693-55.54 26.58-114.627 22.849-173.29a419.35 419.35 0 0 0-44.62-162.877c-18.72-35.92-41.788-69.54-69.54-99.136-20.866-22.534-44.085-42.302-69.507-59.958-79.335-55.359-177.766-81.262-274.089-73.97-106.771 6.914-209.938 56.135-282.404 134.878-35.13 38.133-63.81 82.488-83.233 130.599-9.963 25.328-18.28 51.41-23.266 78.212-5.104 26.375-7.506 57.737-7.972 82.518m39.014.648c1.39 27.973 2.317 55.965 8.962 83.18 19.439 90.136 72.853 172.614 146.767 227.672 36.337 26.413 76.394 48.536 119.865 60.933 47.08 14.02 97.178 19.087 146.169 15.105 100.844-7.248 196.991-57.383 262.377-134.134 32.28-37.37 56.906-80.791 73.18-127.366 17.942-51.047 22.754-105.477 18.94-159.133-8.144-101.417-58.483-199.177-137.092-264.025-77.764-66.618-182.377-99.702-284.356-89.661-95.078 7.291-186.248 52.692-250.623 122.706-67.335 70.41-104.103 167.62-104.189 264.723M1409 2266h-11c-3.554 24.829-9.34 49.506-20.565 72.111-9.422 18.157-24.16 37.923-38.761 49.84-6.874 6.599-15.035 11.528-23.071 16.482-19.85 23.068-39.664 63.46-8.733 94.937 19.566 19.845 51.547 22.399 76.002 11.157 18.36-7.647 31.457-23.256 40.488-40.446 13.697-28.686 15.302-61.635 12.693-92.783-2.87-30.517-10.61-60.369-19.951-89.476-2.273-6.948-4.646-13.856-6.905-20.8zm-52-12c30.114.106 61.304 1.51 90.137-9.208 13.203-4.122 25.968-9.97 36.763-18.732 7.296-4.652 10.036-10.873 9.1-18.656V2184h316c-.847 41.738-5.542 83.337-9.254 124.88-2.002 17.485-4.229 34.957-7.297 52.278-3.32 16.118-6.356 32.582-13.361 47.608-2.956 6.738-7.057 13.282-13.555 17.152-13.796 7.32-33.128 4.615-46.747 4.832-29.598-1.402-59.147-3.684-88.742-4.997-2.735.17-7.4-1.27-9.161.571-1.203 2.676-.887 6.542-.165 9.005 1.406 2.142 5.422 1.995 8.077 2.926 37.891 10.305 92.12 29.43 97.488 80.146 1.543 9.084 2.52 18.234 2.623 27.458.34 4.233-.264 9.302.52 13.14.272 4.253 8.088 2.206 10.611 2.62 31.462-.69 63.637-3.246 92.657-16.693 20.118-8.416 38.532-21.337 51.28-39.253 19.937-27.382 28.409-61.09 35.707-93.516 6.59-34.478 10.978-69.312 13.833-104.286 2.6-33.57 5.524-67.197 6.486-100.871 14.699-2.307 29.882-6.715 40-18.5-36.887-32.181-75.435-62.516-112.5-94.5-20.738 19.255-41.243 38.726-61.975 57.975-5.465 6.81-14.437 4.871-21.542 5.025H1712v-114h156.6c14.548-.441 35.355.8 40.487-14.184 1.408-2.364-2.323-5.092-3.646-6.628-30.308-27.513-62.242-53.26-93.924-79.171-3.235-2.298-7.138-6.635-10.517-7.017-4.424 9.382-12.848 16.848-18.266 25.708-9.326 12.606-18.54 25.278-28.044 37.753-4.957 5.488-9.136 15.244-16.214 15.483-8.837.158-17.648-.027-26.476.056v-119h156.6c14.682.069 36.018 1.247 40.615-14.343.715-2.649-2.558-4.747-4.04-6.171-30.129-27.797-62.121-53.505-93.855-79.44-2.899-2.41-5.824-4.796-8.82-7.046-10.521 12.374-19.057 26.393-29.427 38.915-9.067 13.67-20.478 26.243-29.073 40.085h-32v-117h169.8c16.866.371 39.348 2.072 45.2-15.5-19.064-16.552-39.03-32.097-59.261-47.186-10.094-7.504-20.113-15.118-30.2-22.624-5.086-3.872-10.245-7.646-15.317-11.524-4.998-3.058-9.942-8.613-15.222-10.166-10.158 15.617-23.967 29.507-35.086 44.608-5.293 6.5-10.388 13.116-15.681 19.613-5.44 5.874-9.43 15.215-17.854 14.777-68.256.006-136.521-.001-204.772.002-8.573-.103-17.132.131-25.693-.085-6.693-.836-13.996-4.588-19.893-6.304-43.604-15.99-87.599-31.253-131.021-47.611zm100 17.5c7.361 35.823 7.714 72.792 6.736 109.215-.524 13.345-2.321 26.586-4.183 39.798-1.035 5.923-2.446 11.764-3.42 17.698-1.55 4.836 3.067 9.631 5.973 12.39 13.143 15.336 32.758 24.913 53.183 22.085 30.215-3.81 50.142-33.382 52.335-61.883 2.854-29.82-9.138-59.117-27.385-82.235-18.783-24.831-44.625-43.333-70.506-59.87-3.842-.283-10.02 1.073-12.733 2.802m36-403.5h87v-117h-87zm0 147h87v-119h-87zm0 142h87v-114h-87zm47 88.68c14.257 23.23 26.123 48.1 34.744 74.041 7.134 21.124 11.874 43.207 13.082 65.487-.717 8.06 7.85 13.506 14.09 16.811 12.027 8.316 27.045 10.549 41.202 7.99 21.196-3.984 37.927-21.958 42.206-42.783 4.32-20.57-2.839-42.345-14.626-59.134-13.823-18.236-32.595-32.292-52.864-42.675-21.258-10.232-43.728-18.818-66.81-23.869-3.953-.564-7.634 2.967-11.024 3.452zm90-31.305c22.548 18.72 39.744 43.235 53.907 68.653a210 210 0 0 1 12.974 30.091c1.636 4.96 3.032 10.017 4.09 15.133 1.284 4.097 1.011 10.602 4.538 12.72 14.553 9.942 33.479 14.027 50.574 8.672 26.394-7.991 39.926-37.71 34.09-63.46-2.63-12.273-10.502-25.261-18.178-33.645-8.587-8.983-19.225-15.592-30.002-21.518-15.937-8.636-33.337-14.246-51.145-17.335-8.972-2.046-18.142-3.053-27.247-4.255-4.762-.675-9.565-.934-14.353-1.243-4.297-.092-9.196-.998-12.576 1.172-1.946 1.649-4.355 3.203-6.672 5.015" style="fill:#bc1201;fill-rule:evenodd;stroke:none"/></svg>