<svg xmlns="http://www.w3.org/2000/svg" width="3000" height="3000"><path d="M449 2666.5v1.5h1112.4c6.271-.478 12.507.367 18.74.458 19.951-4.167 39.132-11.514 58.56-17.524 9.641-2.572 20.313-8.32 29.417-9.687 7.276-.296 7.317 6.018 6.883 11.289.499 5.256-.665 11.726.5 16.464 3.356-1.789 8.795-.499 13.097-1H2551c-113.546-681.388-227.137-1362.807-340.705-2044.196-1.733-10.68-3.577-21.328-5.325-32.003-.917-5.558-1.867-11.121-2.81-16.673-.412-2.78-.884-6.08-1.866-8.458-4.353-3.917-10.377-3.52-15.466-6.227-82.171-27.422-164.362-54.762-246.531-82.183-143.819-47.94-287.643-95.873-431.453-143.819-7.341-3.359-13.404-.24-20.579 2.31-106.155 35.392-212.3 70.76-318.446 106.149-79.66 26.555-159.345 53.114-238.992 79.657l-89.528 29.838c-12.442 4.834-27.898 8.433-39.027 13.54-2.728 5.753-2.361 12.01-3.976 18.262-31.497 189.346-63.154 378.66-94.657 567.997C617.16 1656.665 533.744 2162.368 449 2666.5M1599 1402h2c.057 13.346.038 26.67-.293 40.005l-.556 29.514c.006 3.036-.55 7.26 1.948 9.685 3.98 4.311 11.562 1.434 16.308.809 18.093-3.531 36.262-6.465 54.597-8.384 14.762-2.136 29.677-2.804 44.523-3.909 5.137-.526 11.787-.435 14.825-4.114 2.641-3.49 3.456-8.656.637-12.208-4.987-6.453-16.487-3.527-23.186-4.91-12.182-.539-27.673-3.134-34.414-12.043-6.68-9.742-6.088-24.686-7.527-34.878-1-22.329-1.012-44.673-.862-67.01.128-60.327-.156-120.666.084-180.987.05-29.903 1.336-59.788 1.916-89.664.038-2.986.197-7.174-2.436-9.438-4.8-4.3-11.546-.928-16.253.169-17.674 4.629-35.64 8.07-53.522 11.695-17.48 3.172-34.852 6.825-52.52 8.806-8.995.5-14.573 7.063-13.038 15.366 1.03 9.448 10.968 7.182 17.253 6.859 11.46-.434 26.866-4.514 38.104 6.034 8.325 7.695 11.3 18.938 12.374 29.793 3.21 21.476 1.545 43.322 2.038 64.93v99.398c-.381 16.278.744 32.67-1.088 48.881-1.997 14.236-8.305 27.455-16.608 39.076-4.323 5.909-9.722 12.633-14.08 17.741-17.314 18.605-40.194 33.21-65.883 36.37-24.316 3.028-50.846-.059-70.718-15.73-17.73-14.58-29.24-35.193-32.131-57.995-4.457-23.22-3.548-46.976-3.492-70.463.016-45.08-.02-90.166.01-135.244.272-19.54.665-39.073.993-58.6.25-9.378.64-18.744.907-28.11.33-7.852 2.193-20.243-7.395-21.073-31.285 5.529-62.167 14.634-93.795 18.822-6.712 1.16-13.43 2.27-20.148 3.38-5.266.943-12.931 1.446-16.443 7.777-2.664 4.833-1.11 13.481 4.793 15.121 12.534 1.345 27.566-2.878 38.919.109 25.37 7.43 22.527 39.991 25.043 59.462 1.446 44.479.806 88.993.512 133.498l-.302 50.824c-.73 27.329.758 55.945 14.336 80.47 18.46 35.483 56.044 57.666 95.365 60.93 40.287 5.061 82.123-5.098 114.278-30.084 8.801-7.175 17.497-14.812 24.688-23.65 7.868-8.114 13.084-18.496 20.239-27.03m-193 667h-3c.277-25.468 1.685-50.951 1.706-76.4-.34-7.41-8.893-6.448-13.228-4.547-15.994 6.78-32.553 11.999-48.866 17.865-13.77 4.316-27.662 8.446-41.678 11.864-10.028 3.183-22.603 4.733-31.453 8.643-7.831 4.235-5.581 14.434.177 19.117 13.107 1.126 26.34-1.213 39.463-.368 12.1 1.208 20.54 11.995 23.933 22.77 5.23 20.574 5.826 42.048 5.946 63.159v111.446c.113 27.716.207 55.456-.961 83.147-.858 9.71-1.85 21.164-3.5 29.945-1.978 19.348-22.001 24.974-36.67 27.08-5.934 1.776-14.583.03-18.687 3.961-3.92 3.49-3.555 9.653-1.66 13.962 7.161 4.362 19.46 1.266 29.036 1.748 30.615-1.006 61.298-1.518 91.917-1.025 18.754.182 37.495.83 56.228 1.594 3.324-.492 9.234.953 11.42-1.284 5.724-4.165 3.448-15.261-3.256-16.923-13.509-2.698-27.894-1.89-40.923-7.04-5.065-2.337-10.137-6.415-12.781-11.307-3.845-10.506-3.374-21.98-4.525-32.924-2.686-42.4-1.136-84.949-1.638-127.39.601-40.231-4.791-84.103 16.395-120.591 3.626-5.887 8.148-11.124 12.42-16.523 17.477-20.144 40.295-36.71 67.328-40.878 25.41-3.753 54.166-1.703 75.368 14.55 18.756 14.868 31.87 36.877 34.646 60.913 3.24 24.877 1.06 50.122 1.843 75.11-.223 47.476.569 94.966-1.037 142.414-.683 9.863-1.074 19.79-2.564 29.57-.863 8.203-2.93 18.141-11.903 23.604-6.894 5.017-15.423 6.83-23.584 8.45-8.138 2.096-21.127-.923-24.264 7.957-1.29 4.04-.186 9.01 3.529 11.341 7.53 2.399 18.537-.05 26.417.425 34.644-1.334 69.329-1.58 103.978-.84 15.119.157 30.204.801 45.296 1.364 5.769.073 14.719 1.38 14.98-7.354.928-7.263-4.359-11.215-10.643-11.543-12.176-1.387-24.445-3.165-35.687-8.343-12.206-4.93-14.878-15.982-15.568-27.126-4.38-46.42-2.587-93.147-2.701-139.706.24-35.41.483-70.801.722-106.202-.542-23.563-8.019-46.781-21.058-66.328-19.564-28.64-51.73-47.79-86.202-51.768-36.118-5.893-74.362 2.063-105.168 21.688-23.592 15.235-47.166 40.276-59.543 62.723" style="fill:#ffe;fill-rule:evenodd;stroke:none"/><path d="M1599.5 1403c1.5 19.345-.52 39.154-.168 58.596.8 6.251-1.894 16.352 1.728 20.61 4.235 4.397 12.223 1.819 17.207 1.01 20.751-4.158 41.684-7.256 62.715-9.45 10.569-1.437 21.234-1.789 31.841-2.603 8.422-.749 22.732 1.025 23.07-12.317.75-13.868-19.406-10.66-27.06-11.473-13.607-.607-33.947-4.534-37.055-22.429-3.246-16.672-3.369-33.755-3.755-50.663-.065-46.351.012-92.693-.023-139.03-.986-58.737.877-117.441 1.919-176.148-.197-13.365-17.763-6.147-23.593-4.688-18.592 4.637-37.388 8.552-56.24 11.907-16.468 3.59-33.162 5.81-49.789 8.39-8.394 1.55-11.766 8.744-10.257 15.96.75 9.313 8.922 8.572 15.753 7.883 12.22-.134 26.639-4.17 37.437 3.91 8.278 6.202 12.468 16.43 13.896 26.3 3.696 20.66 2.964 41.705 2.874 62.57v95.803c-.234 29.655 4.226 62.136-12.258 88.756-3.566 6.387-7.9 12.288-12.574 17.89-14.061 18.35-33.26 33.496-55.376 40.788-21.103 7.067-44.976 6.909-65.961-.502-18.485-6.847-35.8-23.814-43.396-40.181-9.063-17.534-10.908-41.17-12.15-58.812-.534-81.138-.583-162.346 1.071-243.473.192-7.674.555-15.33.635-22.998-.28-5.93 2.15-15.447-6.733-17.229-6.414-.735-12.607 2.142-18.839 3.062-24.98 5.991-50.202 11.044-75.508 15.411-10.27 2.248-22.786 3.11-32.027 5.91-9.969 2.191-10.357 20.814-1.958 22.712 16.881 2.492 40.385-9.279 54.215 11.958 9.282 14.603 8.283 32.907 9.81 49.35 2.08 64.728-.401 129.556.067 194.31-.844 29.725 5.638 60.143 24.16 84.052 17.274 23.147 43.976 37.943 71.92 43.55 34.747 6.44 71.57 3.367 103.762-11.646 30.055-14.47 53.236-39.1 70.64-67.046m-195 665c-.947-15.999 1.172-32.316.765-48.376l.448-18.365c-.13-5.071 1.456-11.282-2.891-14.409-6.951-4.101-16.62 2.645-23.237 4.302-23.356 9.059-47.097 17.07-71.28 23.613-12.217 3.827-27.327 5.724-38.317 9.911-9.229 2.854-8.687 20.711.63 22.036 8.24.438 16.514-.476 24.75-.372 5.722-.049 12.678-.85 17.737.938 17.72 6.459 20.743 26.505 22.69 41.065 3.47 34.03 1.676 68.347 2.205 102.478-.024 34.555.03 69.102-.016 103.649-.214 14.703-.811 29.378-2.263 43.998-.78 12.418-2.894 28.371-12.9 34.35-10.05 6.715-24.612 8.77-35.291 10.006-4.827.292-11.15 1.142-12.191 8.036-1.018 4.968-.227 12.854 5.841 12.849 22.932.59 45.934-1.775 68.892-1.332 19.999-.668 40.007-.38 59.995.254 17.421.051 34.826 1.36 52.236 1.323 8.593.164 9.78-10.627 6.8-16.053-3.112-6.123-12.637-4.686-17.975-5.585-12.045-1.86-25.93-2.08-35.693-10.487-8.333-6.434-8.04-19.946-9.18-29.29-3.104-40.93-2.118-82.061-2.255-123.069.013-20.77-.015-41.531.008-62.297.416-19.513 1.588-39.76 9.842-57.811 3.36-7.005 6.709-14.09 11.604-20.182a178.5 178.5 0 0 1 22.551-24.604c20.432-18.897 53.876-29.983 79.285-26.668 13.776.403 27.337 4.356 39.363 11.013 22.19 13.714 37.49 37.771 41.226 63.573 3.693 26.924 1.255 54.302 2.121 81.371-.649 51.213 1.378 102.542-2.188 153.683-1.263 9.754-1.76 22.462-7.222 30.125-6.201 7.538-15.696 11.186-24.963 13.107-4.998 1.1-10.054 1.842-15.16 2.094-4.343.324-10.483.603-13.215 5.226-2.066 4.072-1.378 11.012 1.372 13.662 3.429 3.352 9.716 1.822 14.08 2.214 39.21-1.276 78.42-2.447 117.637-1.381 17.34.122 34.679 1.198 52.003 1.404 3.576-.154 9.05.078 9.706-3.95 2.433-6.166 1.213-15.253-7.821-16.613-13.975-2.12-28.727-3.17-41.258-10.565-11.665-5.972-11.973-23.544-12.966-34.5-3.82-54.337-1.02-108.902-1.519-163.305l.407-61.45c1.196-31.665-7.445-65.374-29.616-89.062-31.773-37.135-86.404-49.495-133.03-39.9-47.008 8.732-86.25 41.55-110.799 81.532-.248.637-.626 1.214-.948 1.814m-79.5 931.5c24.022 1.426 48.824-.26 73 .5 11.44-20.83 33.79-40.956 54.085-49.171 36.368-15.721 81.239-7.452 110.28 19.052 7.576 5.98 13.736 13.492 19.853 20.903 2.314 2.704 4.133 5.854 6.881 8.154 5.937 2.094 14.657.384 20.908 1.062H1673c.176-70.546-.214-141.087.116-211.628.526-26.133.902-52.257 1.63-78.373.326-11.406.503-22.817.72-34.22-.347-10.376 1.173-22.717-.014-32.175-6.38-8.185-17.152.216-24.742 1.664-32.147 11.62-64.95 22.008-98.445 28.972-6.08 1.56-13.429 1.469-18.114 6.344-4.077 4.198-4.057 12.572-2.607 16.791 3.318 5.032 11.117 3.06 16.24 3.093 10.419-.062 22.96-2.198 32.31.46 20.49 6.705 21.368 30.619 22.871 46.394 2.412 61.22.004 122.549 1.035 183.784-.608 9.58.774 19.391-.5 28.894-18.96-16.947-40.078-32.388-65.198-39.031-38.928-12.013-88.174-6.562-122.652 6.022-35.502 13.121-66.653 37.476-88.07 68.74-.71 1.276-1.914 2.69-2.58 3.769" style="fill:#666766;fill-rule:evenodd;stroke:none"/></svg>