<svg xmlns="http://www.w3.org/2000/svg" width="3000" height="3000"><path d="M364 2760.5v1.5h2272v-1.5c-68.931-409.09-136.257-818.54-204.874-1227.691-51.076-306.848-102.33-613.661-153.4-920.497-4.868-28.824-9.564-57.688-14.431-86.508-1.116-7.008-2.365-13.985-3.488-20.978-1.2-6.774-.246-15.245-9.425-16.859-109.868-36.632-219.702-73.24-329.563-109.867-95.996-32.013-192.02-63.992-288-96-41.993-13.978-83.98-28.011-125.966-41.994-5.663-2.605-10.407-1.693-15.513.621-156.173 52.06-312.354 104.114-468.521 156.173-58.68 19.531-117.334 39.097-175.992 58.657-25.668 8.506-51.298 17.139-76.962 25.643-6.176 2.075-12.369 4.11-18.537 6.195-3.02 1.124-6.483 1.813-8.8 4.255-62.934 375.423-125.132 751.075-187.889 1126.544C490.857 1998.664 428.048 2380.37 364 2760.5M1185 1030c1.556 10.951 3.837 21.804 5.625 32.72.62 2.644.816 5.799.905 8.257-5.063 8.55-12.406 15.936-16.823 25.023-10.399 18.225-17.113 38.447-19.561 59.284-1.857 9.6 1.148 23.229-7.012 28.094-7.08 5.032-16.092 10.612-23.982 12.396-18.755 2.567-37.768 2.812-56.561 4.949-17.024.77-34.626 4.232-48.257 15.279-13.183 8.82-20.404 23.664-21 39.247-2.058 15.219-.543 31.681-8.73 45.431-14.126 22.555-30.004 44.5-38.924 69.85-3.78 11.757-7.483 24.41-5.789 36.939 2.094 22.065 18.223 43.632 30.805 58.403 6.332 7.442 14.814 12.59 21.745 19.375 11.357 12.98 26.644 27.528 41.319 33.928 18.118 7.366 28.056-18.3 31.574-29.846 4.455-14.813 4.973-30.324 4.666-45.653.293-12.34-1.835-28.948-11.926-34.924-4.644-3.029-10.158-4.222-15.577-4.832-5.972-.169-4.299-9.492-4.497-13.384.285-19.844-1.352-44.018 5.552-61.322 5.167-12.841 15.118-23.57 27.757-29.37 10.186-5.322 21.88-6.95 33.193-6.844H1218c-.322 3.89-4.673 6.72-6.975 9.475-21.3 21.951-43.203 43.514-62.312 67.426-7.749 10.457-15.292 21.35-19.23 33.92-8.412 24.67-3.025 52.2 10.394 73.906 5.188 9.853 8.2 20.61 10.069 31.532 4.115 20.571 12.544 40.513 26.426 56.402 11.512 12.95 26.934 21.693 42.874 28.028 31.248 12.7 65.334 15.258 98.662 12.889a194.4 194.4 0 0 0 37.742-5.75c10.023-2.214 19.69-7.572 24.355-17.196 7.054-16.81 1.698-39.156-3.667-53.966-9.644-23.643-27.023-46.018-51.33-55.791-13.583-5.316-28.567-2.247-42.371.084-5.657.527-15.078 5.644-18.76.415-2.913-5.252-8.101-12.363-8.877-17.374 46.908-25.32 88.165-60.39 129.395-93.832 5.196-4.16 9.946-8.878 15.35-12.777 6.007-2.301 12.801-.8 19.036-1.955 21.858-1.994 43.674-5.595 64.895-11.199 10.55-2.942 21.044-6.17 31.223-10.205 5.095-1.909 10.188-3.782 15.11-6.103 4.53-1.787 9.458-5.411 13.991-5.929-1.491 26.304-24.432 39.053-46.928 44.222-20.147 5.022-41.927 5.988-60.222 16.996-15.454 7.884-26.662 24.426-25.85 42.169-.217 4.042.356 7.995 1.167 11.93 1.08 3.799-2.71 6.57-5.437 8.738-4.922 4.672-9.629 11.288-12.556 16.749-5.033 12.646-5.611 29.259-4.736 41.524.827 4.792 1.825 11.96 7.889 13.93 10.87 2.346 24.146-.626 33.742-3.143 18.07-4.484 38.531-13.286 45.47-32.264 3.066-7.258 1.78-16.65 3.29-23.497 1.989-9.076 8.332-9.757 15.287-9.903 10.822-1.895 21.25-6.372 30.346-12.432 7.125-4.575 11.313-12.359 17.93-17.48 19.878-13.737 44.248-19.178 65.285-30.731 1.053-.506 2.17-.745 3.323-.808-.675 5.01-7.306 8.8-10.731 13.235-16.567 16.056-22.155 38.868-24.255 60.798-4.918 8.247-13.828 13.91-19.907 21.299-5.863 5.092-17.188 5.327-25.141 9.748-15.792 6.938-29.573 17.95-39.62 31.964-4.325 5.79-8.056 12.102-9.871 19.164-1.057 3.31-1.235 7.091-2.188 10.353-3.849 3.793-10.606 7-15.457 11.286-19.73 15.33-35.797 35.106-48.399 56.593-4.128 8.043-9.503 18.377-8.98 26.98 1.497 7.9 14.453 10.488 20.176 13.28 29.878 9.358 61.455 12.1 92.553 10.364 25.379-1.812 66.3-2.187 66.82-41.064 24.634-5.166 28.487-31.66 47.754-44.198 25.754-21.28 51.339-42.9 75.392-66.022 11.28-11.805 21.763-24.49 28.265-39.656 7.308-16.323 9-34.37 9.755-51.981.856-5.325 7.578-9.833 11.864-14.164 35.058-33.247 77.759-59.272 106.034-99.402 3.029-3.282 6.09-10.34 10.281-10.087 4.901 1.941 7.566 6.937 12.321 9.508 34.346 25.796 82.22 32.277 122.614 18.687 32.5-12.688 62.179-38.463 73.801-72.111 2.504-7.696 3.64-17.427 2.304-24.788-3.484-19.48-29.833-7.274-39.631-2.738-13.502 6.074-28.35 7.933-42.972 8.463-13.473 1.425-28.672-.51-38.104-11.4-16.502-19.868-20.208-46.66-26.07-70.811-2.44-11.137-4.712-22.437-8.92-33.082-3.624-9.258-8.458-19.313-17.722-24.201-4.068-2.44-10.822-2.25-12.222-6.617-22.785-72.564-85.22-130.337-159.324-147.41-38.289-9.491-79.012-8.188-116.157 5.417-17.77 5.726-35.316 12.323-53.461 16.73-19.68 4.08-39.839 4.908-59.862 3.592-6.942-.681-15.86-.09-21.518-3.602-2.897-1.753-5.039-4.468-7.554-6.673-2.25-2.12-5.727-4.264-5.376-7.171 6.85-10.362 16.14-20.803 17.208-34.114 1.419-12.068-3.935-25.088-14.264-31.749-20.45-13.572-50.173 5.904-69.378-2.683-10.118-6.22-4.671-19.847-.058-27.19 9.526-15.039 21.805-29.687 24.509-47.91 1.627-15.864-7.671-31.95-21.527-39.138-12.965-7.632-29.299-6.53-42.408.25-11.125 4.915-21.268 14.514-34.214 14.222-5.07.145-12.52-3.062-12.99-8.068-3.518-21.693 14.62-39.692 14.591-60.788.835-15.225-8.707-30.098-22.672-35.966-24.827-11.49-45.652 3.87-63.718 18.903-8.128 7.52-17.7 16.297-25.565 22.717-8.042 6.11-20.242 15.122-29.006 15.231-1.162-23.021-13.482-48.43-24.834-65.726-6.444-9.424-13.42-19.647-24.178-24.644-12.292-5.057-21.976 8.221-29.156 15.357-11.99 15.101-21.268 32.368-27.206 50.732-1.218 2.791-1.196 8.652-4.63 8.83-7.51.89-16.536.215-23.448.292-5.864-.38-7.728-8.361-10.536-12.298-5.224-8.757-11.374-17.057-18.406-24.437-5.41-5.69-11.877-11.125-19.919-12.329-6.6.197-9.153 7.326-10.654 12.24-5.19 17.85-2.733 39.896-.498 56.408.077 2.365.726 6.134-.734 7.664-12.618 13.792-21.907 30.191-27.918 47.873-4.835 13.683-7.562 27.997-10.41 42.185-2.26 10.083-4.534 23.926-12.89 28.81-7.831 3.457-16.953 2.209-25.02 4.927-5.413 1.171-11.47 3.856-12.016 11.319-.538 9.615 10.808 15.913 18.35 18.241 8.662 3.596 18.04 3.955 27.103 5.556-.225 5.39.333 11.804-.322 16.721-.502 3.941-5.45 7.445-7.844 11.256-20.717 28.26-37.658 61.123-41.563 96.469-1.95 27.808 4.31 56.71 21.033 79.454 11.904 15.996 27.898 29.56 47.023 36.076 29.583 10.991 64.314 7.507 90.734-9.672 12.38-8.193 23.452-18.794 30.222-32.2 3.365-7.134 6.211-14.637 6.569-22.627-.393-8.07 5.752-13.571 10.962-19.045 4.182-4.683 8.334-9.41 12.452-14.14 3.137-3.619 7.866-4.37 12.374-4.926 6.986-1.416 15.173-3.398 21.28-5.73 6.509-1.749 14.538-6.76 20.08-7.636m14-165.5c9.797-4.584 20.73-6.87 30.5-11.5 6.621 19.534 12.225 39.674 14.907 60.188 2.194 18.272 1.48 37.634-7.595 54.185-3.297 6.643-7.384 12.83-12.043 18.586-2.098 2.938-4.82 5.397-6.89 8.342-1.92 6.7 1.407 15.243 1.96 21.397 2.796 14.15 5.205 28.394 7.927 42.542.997 5.578 1.937 11.17 3.173 16.696 1.136 5.228 2.924 11.38-2.524 14.905-30.51 26.467-43.31 72.078-33.494 110.812 11.492 37.296 39.004 68.706 71.079 89.847-21.154 23.52-43.757 45.725-65.602 68.602-15.37 16.367-34.756 36.234-41.883 56.063-5.43 17.806-.727 36.8 9.702 51.627 8.396 11.144 9.099 25.429 12.394 38.386 5.007 18.735 14.31 37.683 30.607 49.222 16.626 12.19 37.168 17.373 57.274 20.03A319 319 0 0 0 1312 1577c3.2-16.496 2.584-33.7-1.373-49.97-3.588-10.85-8.613-21.599-16.865-29.761-6.573-7.763-17.044-.907-24.9.26-5.783 1.51-13.638 2.874-19.289-2.588-6.961-6.491-11.141-15.397-15.42-23.742-3.247-9.177-9.168-17.585-11.153-27.199 42.073-18.429 78.513-47.673 113.81-76.484 13.391-11.022 26.37-22.48 39.605-33.664 5.84-4.649 11.948-11.16 17.705-14.876 7.147-2.386 15.726-1.167 23.177-2.741 54.036-6.768 106.079-27.073 151.011-57.789 43.687-29.382 82-67.898 107.192-114.446 8.675 4.39 17.435 9.44 26.5 13-.59 4.856-3.952 8.867-5.637 13.349-8.052 17.945-14.32 36.622-18.623 55.811-6.984 34.902-4.425 70.772-7.265 106.062-1.061 12.889-2.793 25.794-7.39 37.983-1.859 4.722-4.2 11.72-7.296 14.73-15.31 12.668-29.349 26.868-38.853 44.705-7.837 13.685-11.696 29.5-12.8 45.097-.246 5.717-6.15 9.682-9.704 13.077-7.924 6.132-14.81 13.53-22.843 19.506-7.408 2.24-15.734 1.98-22.96 5.323-21.049 6.918-36.83 26.129-37.629 48.357-8.941 1.417-16.057 7.564-24 11 0 3.877 5.986 4.608 8.658 5.748 13.101 4.506 24.687 12.224 34.907 21.423 5.258 4.664 9.887 9.906 14.16 15.46 4.32 4.104 7.997 13.448 13.275 14.369.469-3.886 2.799-7.302 3.414-11.192.734-3.909.749-7.92 1.586-11.808 11.522-.586 19.683-9.912 23.906-19.62 9.765-15.53 26.541-24.86 39.921-36.87 20.95-17.732 42.952-34.332 62.648-53.485 9.942-9.681 19.525-20.107 25.44-32.82 6.736-12.696 8.942-29.717 9.609-42.632.97-4.166-.598-9.406 1.736-12.809 18.95-25.146 42.994-45.715 65.745-67.188 20.71-17.293 41.287-35.615 55.194-59.106 24.714-42.641 30.127-102.342 26.09-146.33-7.001-71.223-60.556-134.738-129.466-153.75-36.892-9.984-76.623-8.387-112.644 3.992-35.45 11.59-72.024 22.943-109.897 20.393-9.882-.32-19.731-1.008-29.509-2.436-7.868-1.33-19.854-1.883-24.36-7.297-10.936-11.281-23.624-21.02-37.326-28.69-5.713-3.597-11.967-6.168-18.227-8.588-5.603-2.733-13.737-3.735-17.505-8.405-28.28-39.447-60.116-76.935-96.888-108.753-35.902-31.81-77.687-57.779-123.467-72.606 2.212-16.687 1.418-34.157-4.251-50.111-2.84-7.466-6.772-14.436-11.406-20.931-4.631-5.083-8.605-13.42-16.343-16.958-15.131 18.18-25.874 41.045-26.374 64.913-.618 8.711.924 20.745 2.105 27.827 2.167 7.813-1.531 15.543-4.055 22.776C1095.056 847.222 1048.888 883.897 999 901c-.178 9.793.217 19.622-.119 29.404-.966 6.844-10.588 11.786-14.306 18.8-18.002 22.373-31.974 54.701-34.45 80.987-3.02 22.06 1.443 46.4 17.37 63.044 21.834 25.805 67.134 30.349 91.489 4.872 5.721-6.319 10.796-13.41 13.293-21.676 2.476-6.318 2.764-13.09 3.188-19.719 11.715-14.607 24.95-28.001 36.85-42.441 2.37-2.203 4.528-5.834 8.013-6.817 27.04-.94 56.028-6.847 75.688-27.102 19.471-21.61 19.872-52.794 13.452-79.53-2.786-12.232-5.686-24.716-10.468-36.322m-217.574 176.56c.564 7.823 3.871 15.284 9.1 20.89 4.304 4.83 12.568 11.872 19.674 4.991 6.975-7.351 2.034-20.501-2.82-27.28-3.566-5.099-8.651-10.023-15.06-10.942-7.608-.726-10.869 6.772-10.894 12.34M1031 2163h390v442c44.982.177 93.353.833 133.658-22.721 9.27-5.471 21.865-10.861 21.326-21.964.047-36.945-.009-73.863.016-110.799V2163h307.2c17.019-.006 34.033.007 51.037-.004 14.975-.406 36.035.24 40.763-15.496-48-39.223-97.003-77.222-146.5-114.5a6562 6562 0 0 1-42.955 54.666c-10.655 13.948-21.887 27.457-32.432 41.481-2.222 2.05-4.082 6.35-6.99 6.432-56.637 1.2-113.459-.218-170.123.421v-273h276c11.482.108 22.943.168 34.374-.871 8.119-.761 20.251-4.224 21.979-12.286.98-3.666-5.16-6.391-6.938-8.685-43.96-35.657-89.196-69.819-134.915-103.158-22.438 29.22-46.513 57.403-69.253 86.429-3.956 5.422-8.295 12.75-16.668 11.571H1319c4.77-12.733 13.083-24.51 18.909-36.864 9.984-18.952 18.289-38.708 27.049-58.222 2.217-4.739 4.21-10.639 6.935-14.607 3.252-2.198 8.767-.722 12.342-2.046 9.81-1.933 23.767-6.43 27.765-19.261-33.162-8.23-65.733-19.544-98.68-28.735-33.184-9.472-66.145-19.817-99.32-29.265-10.983 77.71-30.736 153.813-55.557 228.171-24.932 72.709-56.563 143.145-95.443 209.37 2.534 1.381 6.353 6.17 9.061 4.373 3.46-1.65 6.757-3.614 10-5.652 44.492-27.67 85.783-60.604 122.31-98.132 36.446-36.817 70.334-77.462 96.629-122.13h120v273h-397c.928 9.004 6.477 18.678 7 27m41.073-1258.223c-.531 9.737 9.763 20.228 20.22 19.162 10.537.31 18.758-11.677 17.562-20.674-.486-10.31-10.837-18.495-21.055-16.972-8.783 1.242-16.876 9.11-16.727 18.484" style="fill:#ffe;fill-rule:evenodd;stroke:none"/><path d="M1183.5 1031c2.756 10.517 4.045 23.573 6.186 33.345 1.7 5.422-.59 9.764-4.502 13.448-12.333 16.352-21.813 35.053-26.876 54.95-2.628 10.144-4.394 20.494-5.107 30.947-.797 4.573.88 11.897-1.889 15-5.824 6.359-15.217 10.74-22.13 14.165-8.856 3.646-20.456 2.995-28.966 4.126-17.776 1.893-38.93 2.257-55.046 5.507-15.743 3.747-31.007 12.726-40.113 26.397-8.227 13.356-8.033 29.924-9.55 44.998.323 15.22-7.349 28.435-16.186 40.143-14.613 21.866-28.33 45.24-34.102 71.195-2.633 11.7-2.928 24.15 1.235 35.572 7.208 19.464 21.094 40.923 35.87 53.16 6.6 5.442 14.757 12.545 20.778 19.65 12.342 11.625 27.837 28.387 43.658 27.899 16.455-2.803 23.326-24.518 26.228-37.932 3.492-14.69 3.157-29.844 3.01-44.82.549-11.468-3.374-26.695-13.515-31.92-4.925-2.807-10.637-3.571-16.129-4.24-2.54-.716-2.025-5.192-2.349-7.122.61-20.022-1.767-44.458 4.418-62.18 4.393-13.442 14.094-24.984 26.758-31.355 21.056-11.372 46.077-7.139 68.89-7.933 24.222.758 48.823-.925 72.929.5-11.184 10.59-21.408 22.074-32.102 33.102-18.458 18.489-36.648 37.764-49.904 60.45-10.726 18.578-13.198 40.92-8.279 61.652 2.588 14.803 11.871 26.98 17.205 40.689 4.11 11.117 4.93 23.172 8.834 34.335 4.899 16.145 12.868 31.408 24.378 43.865 11.057 11.7 25.412 19.652 40.161 25.702 31.23 13.21 65.332 15.226 98.683 13.48 12.928-.602 25.695-2.448 38.273-5.364 10.402-1.863 20.674-6.886 26.035-16.458 4.79-8.305 4.16-18.201 3.725-27.287-1.326-30.418-21.12-63.605-44.466-78.644-12.98-10.243-29.694-12.264-45.37-9.167-8.313.61-16.238 3.301-24.392 4.659-4.213.607-6.493-4.442-8.264-7.569-1.875-3.005-3.7-6.767-5.517-9.445 46.189-26.27 87.786-59.84 128.584-93.638 5.154-4.273 10.117-8.781 15.373-12.926 5.61-3.136 12.636-1.233 18.712-2.409 42.503-4.317 85.906-12.819 123.831-33.527-.419 16.064-14.162 29.894-27.894 36.172-23.317 10.324-50.43 8.99-73.458 20.263-10.494 5.044-20.653 12.281-25.895 23.045-5.385 10.59-7.43 26.762-3.253 37.02-6.547 5.742-13.116 11.536-17.25 19.424-6.634 11.325-6.477 27.346-6.746 38.869.107 6.096.605 14.013 4.274 18.61 4.486 5.153 13.735 3.204 19.603 3.503 19.93-2.333 44.648-9.244 57.768-23.144 4.945-5.287 8.499-11.955 9.504-19.168.995-10.188-1.467-27.229 15.197-26.911 10.698-1.355 22.619-6.557 30.875-11.813 7.214-4.336 12.645-12.72 18.35-17.675 10.02-7.75 22.079-12.19 33.615-17.081 11.396-3.968 22.913-10.302 33.81-14.614-8.293 7.883-16.634 15.901-22.193 26.037-5.249 9.387-9.003 19.558-10.868 30.166-1.257 5.014-.505 11.295-2.098 15.788-5.327 8-13.826 13.909-20.108 21.182-5.978 4.911-17.29 5.028-25.188 9.594-15.76 7.052-29.542 18.086-39.504 32.203-4.33 5.856-7.985 12.18-9.737 19.307-1.436 3.042-.63 8.456-2.72 10.465-10.278 8.065-22.145 14.63-30.94 24.636-15.242 17.325-30.791 35.27-39.003 57.262-1.448 4.334-2.855 9.77-2.31 13.996 1.852 8.077 13.463 10.51 19.727 13.369 30.25 9.554 62.273 12.346 93.793 10.628 25.618-1.746 67.479-1.772 68.149-41.133 24.634-5.166 28.487-31.66 47.754-44.198 25.754-21.28 51.339-42.9 75.392-66.022 11.28-11.805 21.763-24.49 28.265-39.656 7.308-16.323 9-34.37 9.755-51.981.856-5.325 7.578-9.833 11.864-14.164 35.202-33.35 78.057-59.496 106.361-99.84 1.588-2.177 3.254-4.286 4.77-6.512 3.518-6.25 7.916.242 11.407 3.187 33.614 27.666 81.648 35.107 122.987 23.75 33.668-10.924 64.046-36.18 77.87-69.195 3.344-7.863 4.85-16.377 4.549-24.9.163-6.78-1.87-17.114-11.116-17.561-15.199-1.135-28.947 8.546-43.101 12.397-14.038 3.304-31.282 5.337-44.52 3.979-13.646-.863-24.755-10.487-30.321-22.492-11.991-22.456-14.94-48.207-21.309-72.476-2.155-10.712-5.796-21.138-10.893-30.79-2.343-4.571-5.767-8.596-9.836-11.728-3.831-3.059-8.752-3.968-13.214-5.48-5.186-8.034-6.263-18.91-11.526-27.152-29.023-65.03-91.829-113.603-161.943-125.638-36.848-7.212-75.29-3.815-110.38 9.373-16.78 5.306-33.29 11.78-50.52 15.528-18.607 3.712-37.626 4.589-56.54 3.29-6.6-.686-13.874-.093-20.051-2.832-4.561-2.947-9.59-8.444-14.704-12.387 5.076-7.473 11.938-14.272 14.698-23.3 5.868-13.669 3.848-30.81-6.97-41.53-11.377-10.154-27.884-9.52-41.722-6.392-10.72 1.701-24.865 5.431-33.229-.41-8.836-7.452-1.674-19.786 2.915-26.933 9.776-14.877 21.858-30.136 23.132-48.684.322-15.715-8.42-31.458-22.739-38.21-13.052-7.252-29.391-5.906-42.592.248-10.79 4.767-22.47 14.778-33.97 14.627-5.096.036-12.047-3.615-12.26-8.537-1.532-10.495 2.042-20.743 6.94-29.804 8.813-16.072 11.41-37.519.967-53.522-18.208-24.8-51.026-19.378-71.464-1.882-10.731 7.81-19.755 17.593-30.06 25.932-5.005 4.393-10.244 8.506-15.873 12.06-5.064 3.01-11.15 7.53-16.773 7.837-1.155-22.862-13.333-48.126-24.574-65.335-6.395-9.416-13.295-19.585-23.882-24.783-12.97-6.028-23.733 6.368-30.68 13.908-12.464 14.978-21.63 32.468-27.908 50.87-1.583 2.973-1.162 8.742-4.337 9.88-6.503.433-14.903.633-22.162.287-5.788-.029-7.918-9.245-10.719-12.729a132 132 0 0 0-18.84-24.7c-5.482-5.686-12.266-11.137-20.48-11.874-6.802-.02-9.802 7.09-11.25 11.999-5.112 17.85-3.754 40.105-.91 56.703.235 2.545.9 6.454-.635 8.116-12.888 13.973-22.05 30.818-28.145 48.753-4.7 13.74-7.36 28.095-10.249 42.277-2.182 10.08-4.82 24.322-13.99 28.25-8.199 2.612-17.187 1.843-25.37 4.7-15.847 3.734-11.919 21.219-.964 27.033C935.822 904.203 948.8 904.691 961 907c-.077 5.474.268 11.03-.572 16.437-22.971 28.205-41.244 61.417-48.019 97.51-5.193 27.839 1.88 62.03 15.789 83.805 10.685 17.643 26.777 31.749 45.592 40.099 30.106 12.658 66.36 10.793 94.704-5.245 13.264-8.061 25.206-18.802 32.764-32.552 3.765-6.896 6.425-14.456 7.367-22.261-.179-9.447 4.011-14.917 10.172-20.206 4.147-4.705 8.235-9.446 12.373-14.154 5.388-6.247 17.218-6.128 25.953-8.966 8.782-2.508 19.063-6.399 26.377-10.467m14.5-168c11.272-2.62 21.608-8.82 33-11 5.337 20.123 12.622 40.002 14.49 60.96 1.846 18.25 1.653 37.668-7.166 54.368-3.223 6.715-7.288 12.97-11.904 18.788-2.02 3.031-4.742 5.5-6.952 8.368-2.421 2.821-.61 7.65-.337 10.803 2.808 14.337 5.164 28.76 8.04 43.069 1.657 11.86 4.713 23.522 6.262 35.378.539 5.25-6.29 8.173-9.183 11.548-26.724 27.933-38.838 71.131-27.153 108.434 5.93 18.025 16.347 34.154 28.147 48.81 12.316 13.93 25.55 28.555 42.756 36.474v1.5c-21.182 23.263-43.37 45.617-65.233 68.233-15.473 16.031-34.195 35.67-42.368 54.749-6.907 17.963-1.486 37.71 9.102 52.737 8.225 11.049 8.781 25.198 12.11 37.958 4.975 18.581 14.12 37.402 30.221 48.936 16.37 12.233 36.698 17.453 56.597 20.17A307 307 0 0 0 1311 1576c3.19-16.35 2.73-33.578-1.9-49.589-3.73-10.766-9.05-21.3-17.45-29.229-3.28-3.8-7.37-2.692-11.831-1.379-7.77 2.015-15.708 5.064-23.914 3.882-10.839-2.24-16.558-15.926-21.196-24.259-5.016-10.02-9.085-20.456-13.709-30.648 9.324-6.683 21.01-10.009 30.337-16.895 37.58-21.43 70.379-49.856 103.467-77.374 12.62-10.297 24.371-21.64 37.075-31.8 3.172-2.147 7.15-1.852 10.897-2.27 56.932-3.522 111.492-24.832 159.111-55.366 45.254-30.187 86.903-69.21 112.113-118.073 4.638.499 9.843 4.416 14.869 6.437 4.793 2.764 11.054 4.998 15.131 8.063-18.112 36.035-30.45 75.88-30.282 116.603-1.693 31.306.566 63.685-8.623 94.079-1.674 5.399-3.652 10.763-6.559 15.643-2.967 4.342-7.987 6.932-11.652 10.592-12.917 12.78-26.184 26.976-32.991 44.403-2.868 6.766-5.27 13.76-6.754 20.968-1.642 6.602-1.583 13.462-2.657 20.13-7.134 8.118-16.466 14.395-24.102 22.078-3.016 2.504-6.969 6.286-10.14 7.145-14.743 1.77-29.928 5.822-40.764 16.767-11.622 8.394-16.66 22.409-17.476 36.092-8.757 1.992-16.477 6.943-24 11.5 13.626 5.317 28.382 10.21 39.167 20.991 12.129 8.98 20.221 21.847 29.333 33.509 3.589-7.231 5.027-15.003 5.5-23 11.522-.586 19.683-9.912 23.906-19.62 9.765-15.53 26.541-24.86 39.921-36.87 20.95-17.732 42.952-34.332 62.648-53.485 9.942-9.681 19.525-20.107 25.44-32.82 6.736-12.696 8.942-29.717 9.609-42.632.97-4.166-.598-9.406 1.736-12.809 18.872-24.972 42.706-45.515 65.364-66.832 20.698-17.333 41.323-35.601 55.344-59.053 24.75-42.351 30.322-101.807 26.233-145.569-7.354-71.359-61.518-134.921-130.822-153.328-36.597-10.044-75.733-7.564-111.278 4.99-35.298 11.969-72.035 22.232-109.755 19.806-9.893-.32-19.776-1.009-29.573-2.44-7.868-1.33-19.854-1.882-24.36-7.296-10.936-11.281-23.624-21.02-37.326-28.69-5.713-3.597-11.967-6.168-18.227-8.588-5.603-2.733-13.737-3.735-17.505-8.405-28.28-39.447-60.116-76.935-96.888-108.753-35.902-31.81-77.687-57.779-123.467-72.606 1.774-16.738 1.855-34.121-4.251-50.111-5.393-14.643-15.235-27.118-26.249-37.889-14.332 18.966-25.884 40.934-25.875 65.223-.647 8.949 1.031 19.543 2.572 27.537 1.663 7.916-2.155 15.576-4.575 22.884C1095.995 848.297 1049.836 884.903 1000 902c-.109 9.6.133 19.225-.072 28.822-.567 6.892-9.811 11.87-13.733 18.58-17.982 21.971-31.725 53.678-34.888 79.522-2.853 22.194.773 46.524 17.188 63.31 21.594 26.066 66.52 30.28 90.19 4.108 5.59-6.465 10.66-13.659 12.952-22.045.881-3.148 1.737-6.319 2.127-9.565.012-3.034.42-6.022.7-9.02 11.716-14.607 24.952-28.001 36.851-42.441 2.37-2.203 4.528-5.834 8.013-6.817 26.9-.927 55.637-6.783 75.342-26.724 19.49-20.993 20.313-51.617 13.798-77.907-1.882-13.356-7.475-25.803-10.468-38.823m-217.744 178.019c-.017 11.114 13.689 37.005 30.126 27.638 8.38-7.118 3.306-21.9-1.407-29.132-3.795-5.802-9.552-11.337-16.773-12.086-8.084-.472-12.258 6.597-11.946 13.58M1022 2135.25c2.612 9.075 6.412 20.177 8 28.75h390v442c45.498.19 94.389 1.152 135.264-22.491 9.35-5.587 22.247-10.913 21.72-22.194.047-37.544-.009-75.061.016-112.596V2164h307.8c17.209-.017 34.427.02 51.636-.011 13.594-.194 33.965.442 40.564-16.489-24.315-19.696-48.862-39.135-73.294-58.67-24.974-19.39-50.475-38.15-75.206-57.83-14.607 18.149-28.66 36.795-43.367 54.859-10.422 13.901-21.647 27.158-32.072 41.042-1.908 2.61-4.017 5.061-6.378 7.245-6.645 1.679-14.295.314-21.177.854H1577v-271h279c11.568-.029 23.209.324 34.693-1.287 8.202-1.535 18.31-5.305 19.59-14.264-2.268-5.464-12.794-11.164-16.825-15.66-41.293-33.573-84.23-65.117-126.958-96.789-22.76 28.996-46.42 57.292-69.267 86.221-4.57 5.361-8.36 13.149-15.85 12.763-120.368-.714-241.14.918-361.383-.484 14.27-23.787 26.596-49.188 38.06-74.504 2.829-6.577 5.637-13.168 8.595-19.677 2.667-4.275 3.6-11.76 7.705-13.85 13.855-.697 32.216-3.957 39.64-20.969-16.051-6.366-33.73-9.792-50.153-15.425-50.349-14.286-100.316-30.67-150.847-44.075-10.992 77.888-30.854 154.173-55.74 228.7-12.45 37.494-27.783 73.937-43.76 110.025a914 914 0 0 1-52.5 99.775c2.766 2.994 6.483 4.822 9.5 7.5 46.548-28.233 90.508-61.203 129.078-99.74 38.062-39.131 75.077-80.786 102.422-128.26h118v271h-398zm49.026-1230.366c-.644 11.59 10.244 20.889 21.036 20.313 10.976.109 19.749-10.244 18.885-21.09.493-11.304-10.28-20.315-21.335-18.997-10.07.434-19.196 9.34-18.586 19.774" style="fill:#676767;fill-rule:evenodd;stroke:none"/></svg>