<svg xmlns="http://www.w3.org/2000/svg" width="3000" height="3000"><path d="M364 2760.5v1.5h2272v-1.5c-68.931-409.09-136.257-818.54-204.874-1227.691-51.076-306.848-102.33-613.661-153.4-920.497-4.868-28.824-9.564-57.688-14.431-86.508-1.116-7.008-2.365-13.985-3.488-20.978-1.2-6.774-.246-15.245-9.425-16.859-109.868-36.632-219.702-73.24-329.563-109.867-95.996-32.013-192.02-63.992-288-96-41.993-13.978-83.98-28.011-125.966-41.994-5.663-2.605-10.407-1.693-15.513.621-156.173 52.06-312.354 104.114-468.521 156.173-58.68 19.531-117.334 39.097-175.992 58.657-25.668 8.506-51.298 17.139-76.962 25.643-6.176 2.075-12.369 4.11-18.537 6.195-3.02 1.124-6.483 1.813-8.8 4.255-62.934 375.423-125.132 751.075-187.889 1126.544C490.857 1998.664 428.048 2380.37 364 2760.5M1153 1313c-1.37-8.226 1.908-16.208 5.678-23.328 13.091-25.914 34.518-46.358 51.007-69.933 4.378-5.336 8.545-12.731 13.106-17.076 4.614-.799 9.314 4.891 14.057 6.648 15.496 8.27 33.412 7.96 50.152 4.689-1.65 16.688-6.375 33.044-7.75 49.804-1.723 16.51-4.045 36.548-.383 51.585 3.514 14.236 10.516 27.316 19.192 39.027 4.172 5.449 8.121 11.072 12.872 16.047 4.223 5.184 11.227 10.335 9.265 17.19-8.302 25.57-15.617 51.438-23.915 77-6.31 22.535-14.509 44.55-19.399 67.472-7.928 34.318-15.386 83.5 18.767 115.892 24.183 20.242 58.799 20.864 88.272 16.325 22.157-2.584 43.734-13.126 56.652-31.854 19.674-28.22 25.238-63.025 33.701-95.528 8.802-32.493 17.737-65.071 30.619-96.25 5.588-15.35 12.316-30.325 19.76-44.847 1.978-3.464 4.244-7.544 6.266-10.578 6.359-2.707 12.84.098 19.512-.11 6.843.805 13.702.978 20.569.825v107.4c.596 25.084-6.805 49.724-6 74.814-.414 9.099 1.543 19.125 9.043 25.133 12.876 9.661 32.812 8.917 46.575 8.374 11.83-.505 24.172-2.252 34.274-9.034 16.276-10.986 15.474-32.411 16.105-47.983-.245-18.654 1.05-37.256 3.12-55.78 3.423-31.805 12.986-62.423 21.883-92.924h4c13.753 30.043 28.873 59.968 37.204 92.227 6.573 24.204 11.226 49.077 20.55 72.46 6.085 16.44 15.772 36.17 29.436 45.69 11.143 9.433 26.047 11.054 39.91 8.844 20.66-3.006 39.537-13.623 55.656-26.418 15.36-12.347 31.14-30.666 37.614-47.737 6.377-14.892 5.222-31.342 1.978-46.772-4.38-23.19-14.323-44.686-23.83-66.036-9.147-22.27-17.73-44.99-22.265-68.705-7.49-47.581 7.216-94.787 20.747-139.553 5.174-.179 7.859 6.23 10.953 9.327 6.198 7.692 13.101 14.615 20.812 20.792 3.296 3.111 7.195 5.476 10.53 8.52 3.178 2.562 1.746 9.098 3.437 13.167 3.658 17.348 15.698 30.855 28.138 42.564 21.827 20.23 50.095 33.698 79.627 37.484 5.748.124 12.484.939 17.726.369 5.142-.478 11.227-.5 15.133-4.509 6.21-8.016-9.404-17.41-12.486-23.107-11.811-11.74-20.568-25.959-28.07-40.725-6.091-10.99-13.478-21.29-23.104-29.473-7.551-5.988-16.814-9.446-26.135-11.401-7.616-1.953-15.502-1.506-23.227-2.323-4.661-.485-8.08-7.242-12.31-10.16-11.353-11.294-20.563-24.437-30.518-36.894a327 327 0 0 1-12.432-18.08c-3.006-5.224-2.14-11.666-2.896-17.411-.84-17.592-3.687-35.014-6.981-52.266-12.065-61.39-41.656-119.184-86.172-163.35-16.384-16.703-34.844-31.262-54.36-44.098-8.193-5.265-16.512-10.384-25.02-15.114-4.358-1.966-8.413-4.508-12.598-6.784-3.355-2.695-10.846-3.397-11.62-7.54-.19-37.592-15.633-72.962-31.29-106.364-12.193-23.12-25.475-45.783-42.336-65.903-12.705-15.202-27.4-29.063-44.322-39.522-28.046-17.898-62.68-15.237-94.272-13.664-31.88 1.752-64.537 2.415-95.306 12.009-27.08 7.562-49.989 24.597-68.884 44.912-5.172 5.409-15.085 2.853-21.716 3.564-23.464.184-46.904.757-70.301 1.98-2.788-16.644-14.908-34.024-26.765-43.538-13.834-11.082-31.371-16.643-48.958-17.302-18.484-.622-36.985.97-55.3 3.201-13.03 2.208-28.575 3.934-40.213 7.386-17.226 6.531-34.8 19.978-46.74 31.728-13.452 13.251-26.332 28.096-32.746 46.188-3.697 12.493-1.755 25.988-1.867 38.817 1.419 22.392 3.36 44.743 5.255 67.097 1.665 17.345 2.838 34.731 2.334 52.166-2.222 50.31-25.662 98.33-23 149.223V1043c-15.418-1.892-36.56-8.095-51.722 7.258-13.499 12.647-15.633 33.227-9.514 49.893 10.097 28.264 34.462 48.222 57.118 66.242 12.187 8.962 24.925 17.092 37.64 25.25 6.006 3.266 14.244 6.266 12.139 15.833-3.782 29.346-13.27 57.58-19.853 86.322-14.01 49.737-13.275 106.665 16.212 151.136 20.185 31.944 53.974 55.866 91.918 60.456 29.093 2.788 60.56-1.796 84.434-19.924 17.127-11.688 29.759-28.657 37.723-47.86 12.332-29.707 10.392-69.926-2.859-96.114-6.527-13.986-16.979-26.75-31.63-32.56-7.883-3.23-16.746-3.11-24.724-.59-7.22 2.667-14.884 6.814-22.882 4.658m-127-152c.003-11.94-.632-23.861-.98-35.78-1.136-11.333-.088-24.938-2.02-35.22-11.794-3.121-23.092-8.427-35.107-11.026-8.57-2.31-18.67-5.461-26.854-5.901-6.013-.635-13.772-.557-15.449 8.04-4.36 19.473 15.359 37.087 28.409 47.655 12.867 10.655 27.118 19.402 41.61 27.582 3.356 1.744 6.504 4.304 10.391 4.65m-20 1027.75c.775 1.524 3.019 2.12 4.482 3.262 1.648.99 3.393 2.384 5.018 2.988 16.437-14.294 33.4-27.998 49.102-43.102 7.592-8.12 16.071-15.248 23.982-23.01 3.622-4.124 7.037-8.45 11.149-12.12 3.641-3.178 7.993-9.257 12.267-9.768v498c21.255-.108 42.82.262 63.682-4.456 14.323-3.331 28.29-8.086 41.826-13.81 9.698-3.915 18.923-8.903 27.4-15.037 8.96-5.322 7.291-14.747 7.092-23.587V1945c11.663-1.438 23.775-6.54 30-17-3.142-3.4-10.191-3.864-14.847-6.54-5.257-1.568-11.188-4.58-16.153-5.46.215-5.497 4.19-9.835 6.37-14.613 19.631-35.33 37.773-71.523 53.904-108.578 7.846-18.39 16.009-36.663 22.962-55.412 2.402-3.868 3.141-12.03 7.701-12.928 7.672-.803 15.859.1 22.771-4.376 7.578-2.954 10.634-8.563 14.292-14.593-8.112-4.527-16.259-4.548-24.225-7.84-56.309-16.794-113.074-32.702-169.275-49.66-6.508 23.744-8.84 48.788-15.19 72.643-17.582 81.736-41.228 162.173-68.709 241.083-13.28 39.287-28.475 77.866-44.093 116.26-7.765 18.743-16.061 37.278-24.403 55.75-8.886 18.235-17.595 37.296-27.105 55.014M1334 1157c4.652-.429 9.238-5.4 13.23-8.745 10.951-10.863 17.98-24.855 23.957-38.842 12.615-30.572 13.706-63.848 12.813-96.349V909h36c-.3 32.162 1.452 64.297 4.63 96.274a454 454 0 0 0 12.024 67.365c4.447 15.463 9.844 31.288 19.845 44.159 7.596 10.22 21.62 14.809 32.085 7.254 7.424-4.802 11.52-14.844 15.662-21.361 6.405-11.674 12.888-23.642 23.748-31.85 11.035-7.967 25.114-10.39 36.488-17.843 13.529-6.674 24.049-17.696 30.959-30.977 5.551-10.094 9.967-22.897 12.351-33.16 1.913-8.443 5.04-16.82 11.161-23.187 8.45-9.956 18.864-17.902 27.862-27.242 8.028-9.276 16.012-18.75 21.377-29.903 7.667-16.355 10.655-34.746 9.568-52.778-2.582-25.687-15.148-53.916-24.93-75.092-11.25-22.751-24.622-44.692-41.607-63.62-10.435-11.751-22.146-22.873-36.496-29.679-11.529-6.608-24.821-7.036-37.661-6.36-39.236.587-79.53-1.594-117.808 9.091-13.699 4.071-26.447 10.995-37.233 20.38-8.288 7.275-16.378 14.93-23.738 23.157-5.746 9.012-14.52 8.165-23.466 7.877-27.37.834-54.785-.08-82.12 1.696-45.547 2.847-91.249 16.231-126.504 46.286-16.804 14.902-30.612 33.078-38.655 54.192-4.378 11.05-7.22 22.75-8.931 34.492-.889 5.921-1.219 11.916-1.528 17.878.537 6.59-2.997 10.371-6.64 14.84-9.5 12.12-14.51 26.79-15.264 42.056.09 57.57 4.807 115.043 7.138 172.529.734 28.383 3.002 57.023-.957 85.264-4.502 26.822-12.145 53.022-18.187 79.514-5.3 21.03-9.57 42.55-9.173 64.305-.554 20.514 1.758 41.519 10.912 60.21 7.486 15.996 19.01 30.123 33.699 40.011 28.141 18.983 73.53 18.822 98.741.311 25.87-18.467 32.71-52.84 27.26-82.404-2.615-11.862-7.064-27.609-20.512-29.207-13.976-1.392-19.781 12.795-25.818 21.146-5.828 9.952-16.894 16.538-28.755 13.888-25.048-5.168-26.202-36.644-22-55.654 7.48-36.614 32.42-66.317 55.2-94.49 8.739-10.732 17.558-21.377 25.69-32.575 3.612-4.915 7.58-9.56 10.87-14.707 1.421-2.5 3.604-4.788 4.225-7.368-.309-5.522-2.908-10.704-3.179-16.259-2.146-21.45 6.48-42.951 20.49-59.02 17.61-20.099 46.564-45.482 80.23-26.291 13.265 8.136 20.762 22.771 26.048 36.775 6.213 15.29 7.528 31.775 6.899 48.077m-100.823-8.018c-.032 22.89 17.54 37.294 37.916 34.927 18.55-1.307 31.455-20.003 29.735-37.707-.577-9.417-2.38-18.712-4.973-27.76-2.16-8.653-7.696-19.342-16.072-20.815-12.716-2.756-24.05 10.142-31.711 17.84-8.55 8.97-14.383 20.882-14.895 33.515m16.833-159.549c-.29 16.404 15.592 31.314 31.665 30.406 15.989-1.014 29.137-16.485 28.577-32.038-.673-15.945-16.07-29.893-32.013-28.73-15.04.923-28.647 14.995-28.23 30.362M1270 2510.159c1.955 3.553 3.302 9.177 5.5 11.841 30.338-6.957 61.757-12.62 91.605-22.208 43.774-13.357 86.47-30.313 128.007-49.463 20.298-10.068 40.768-19.91 60.488-31.101 9.757-5.167 19.095-11.016 28.69-16.455 4.842-2.998 9.739-5.905 14.644-8.793 4.292-2.61 9.155-6.943 14.066-6.98-1.08 19.219-3.368 38.37-7.338 57.209-3.496 12.233-6.352 30.226-17.854 34.518-44.424 4.983-89.377-3.2-133.808-3.727v9c23.652 5.842 47.72 14.9 66.46 31.004 15.224 15.92 21.191 38.528 23.75 59.695.53 5.146.858 10.294.79 15.458.17 2.421-.184 5.581.956 7.592 4.402 2.476 9.719-.117 14.548.642 18.943-.832 37.971-1.044 56.75-4.076 30.203-2.634 62.517-11.22 82.58-35.71 28.984-38.384 36.16-88.894 36.166-135.57-1.2-48.316-12.203-96.42-31.484-140.714-11.678-25.26-25.164-49.861-42.248-71.953-8.54-11.521-17.764-22.545-28-32.6-10.047-9.374-19.344-20.806-31.268-27.768-.08-5.385 7.117-7.196 10.645-9.717 15.467-8.095 30.018-17.76 44.53-27.392 7.312-4.909 14.377-10.154 21.334-15.538 3.458-2.601 6.698-5.442 10.121-8.079 3.275-2.357 6.012-6.216 10.37-6.274 9.709 84.21 20.774 169.292 49.066 249.7 13.082 38.444 30.593 75.318 52.68 109.396a489 489 0 0 0 35.021 48.125c6.506 7.632 12.738 15.545 19.707 22.754 6.914 5.758 11.993 15.98 21.526 21.025 7.488-27.47 26.053-56.442 43.236-75.733 20.216-22.02 47.324-37.173 76.764-42.267.383-3.334.91-6.644 1-10-37.7-17.05-73.1-39.386-107.295-62.577-17.08-12.281-34.305-24.669-49.354-39.44-8.111-7-15.67-14.68-23.074-22.428-3.52-4.192-7.264-8.161-10.767-12.362-2.809-3.646-7.967-8.24-8.51-12.193 31.846-4.473 63.104-12.78 94.163-20.908 15.292-4.177 30.23-9.598 45.49-13.86 3.998-1.159 7.975-3.144 12.26-2.735 10.12 2.733 24.7 7.393 34.087-2.497-19.367-20.258-42.324-37.15-61.89-57.323a2357 2357 0 0 1-31.584-28.651c-5.168-4.812-10.589-9.365-15.562-14.388-5.373-3.29-10.64-11.63-15.964-12.638-13 29.348-31.684 56.044-48.054 83.552-6.754 10.125-13.418 20.315-20.433 30.258-2.969 4.002-5.927 9.135-9.14 12.418-4.16 4.538-8.46-5.683-10.366-7.715-20.993-31.287-37.053-65.685-48.217-101.672-3.043-9.436-5.912-18.934-8.472-28.51-1.063-7.459-5.409-15.202-4.32-22.134 5.85-2.392 11.718-.401 17.89-1.197H1783v32c41.076 1.36 81.93-5.746 120.559-19.825 4.605-1.981 9.472-3.467 13.761-6.105 4.904-2.668 5.044-7.173 4.68-11.967V1920c11.413-1.566 22.173-7.08 30-15.5-39.116-30.356-79.973-58.677-119.5-88.5-5.82 5.631-11.474 11.365-16.67 17.565-9.956 9.713-21.024 21.688-29.805 30.91-3.802 3.586-6.623 8.124-10.67 11.452-3.55 2.933-9.927 1.854-15.011 2.073H1651v-3c31.916-12.329 61.763-29.464 92.077-45.167 14.493-8.533 29.55-16.183 43.694-25.31 12.708-9.35 34.778-2.766 48.229-18.023-41.214-33.108-79.886-70.072-121.5-102.5l-51.733 51.733c-4.383 4.374-8.759 8.77-13.14 13.134-6.129 6.454-19.135 3.19-28.629 4.133H1590c.63-6.326 9.2-11.313 12.926-17.503 3.618-4.23 7.066-8.573 10.68-12.8 8.2-14.549 35.817 4.916 44.394-16.697-61.418-17.723-121.662-39.937-183-58-18.49 59.222-49.023 114.17-81.041 166.954-32.924 51.552-71.042 100-116.959 140.546l5.5 5.5c10.401-4.885 21.599-8.358 32.061-13.18 10.094-3.406 20.76-10.957 30.439-12.82v177c26.087-.097 52.746 1 78.242-5.828 11.703-2.693 23.06-7.116 33.316-13.381 9.4-5.464 23.997-12.79 23.442-23.791h61v2.5c-36.23 37.278-78.182 68.825-121.462 97.488-21.675 13.797-43.61 27.266-66.673 38.662-22.386 13.679-47.904 21.541-70.865 33.85 1.734 2.917 3.96 6.88 5 10.5 46.248-9.594 92.505-19.872 137.613-34.044 22.524-6.825 45.011-13.901 67.002-22.316 11.338-4.017 22.486-8.471 33.567-13.116 5.5-2.097 10.885-4.45 16.286-6.778 4.814-1.874 11.188-5.483 15.532-5.746-.92 6.856-9.476 11.42-12.932 16.696-36.07 38.941-78.657 71.342-121.22 102.752-42.817 30.916-89.371 56.29-136.848 79.052.673 2.998 2.17 5.666 3.857 8.17 2.045 2.379 7.318-1.178 9.726-.68 84.365-18.203 166.43-46.548 244.902-82.267 6.561-3.247 13.285-6.11 19.822-9.387 7.042-2.703 14.663-8.626 21.693-9.336-.322 3.604-4.504 6.663-6.814 10.025-42.863 48.413-91.447 91.42-143.171 130.143-52.064 36.703-106.498 71.381-166.015 94.832zM1708 910c-4.735 17.988-16.614 33.389-28.61 47.094-11.342 12.005-23.829 23.201-33.083 36.971-7.466 12.484-9.062 27.556-15.9 40.317-5.36 10.938-13.94 22.69-21.873 30.546-15.863 15.169-35.608 24.537-54.992 34.06-14.711 7.127-22.554 21.699-30.89 35.04-6.92 9.824-13.896 20.43-24.604 26.373-16.76 8.413-40.688 4.443-54.309-5.208-15.514-8.923-26.5-28.35-31.739-43.193-4.507.272-5.496 7.738-7.287 10.716-6.355 16.235-15.803 31.136-27.238 44.234-10.789 12.376-24.789 20.981-39.65 27.497-3.045 2.09.95 7.281 1.668 9.529 14.327 25.625 27.43 51.933 41.709 77.582 2.892 5.817 7.573 12 5.225 18.63-15.548 50.19-31.22 100.33-46.82 150.5-10.399 38.155-26.35 75.35-30.971 114.925-1.892 14.053-1.211 31.854 4.543 43.73 5.237 11.684 17.715 17.702 29.752 19.109 11.834 1.219 25.925.441 36.73-.597 9.418-1.196 19.145-3.373 26.497-9.786 12.467-10.933 16.734-31.068 20.787-44.81 10.874-50.328 25.3-99.822 44.929-147.433 5.793-14.682 11.998-29.194 18.252-43.667 6.342-12.234 11.985-27.65 18.5-38.483 1.952-2.823 7.643-.191 10.215-.381 58.556 9.747 118.11 6.528 177.116 4.767 4.85.278 12.14-1.908 15.283 1.05 12.512 14.325 21.343 31.438 29.937 48.254 16.056 31.183 28.242 64.363 36.247 98.474 2.826 12.654 6.119 25.233 9.328 37.79 3.116 10.517 6.756 23.037 11.657 31.89 4.514 7.85 11.449 15.815 23.337 12.834 17.483-3.13 32.173-13.775 45.216-25.13 9.04-7.755 18.606-19.526 20.03-30.737 1.913-40.15-23.21-74.981-34.9-111.659-12.307-31.437-18.232-65.645-13.782-99.307 2.57-24.917 7.771-49.497 14.691-73.548 5.426-17.129 11.351-34.176 18.74-50.566 1.192-2.909 2.791-6.264 3.628-9.016.699-51.43-10.18-103.368-35.056-148.711-15.636-25.769-33.462-51.11-56.789-70.656-11.476-10.057-23.426-19.558-36.25-27.858-5.893-3.787-12.845-8.192-18.46-11.311-6.528-2.887-14.716-9.412-20.814-9.855m-245 957c9.609 2.043 18.551 6.861 27.983 9.568 7.886 2.64 19.349.702 29.018 1.432h70.189c5.154.555 10.24.267 12.433-6.101 8.616-14.536 14.943-30.255 22.548-45.287 3.53-7.547 6.852-15.185 10.26-22.775 2.58-7.693 8.206-16.23 8.569-23.837h-58.8c-7.133.355-15.609-.475-22.111.36-5.796 1.536-7.966 7.848-13.119 10.661-14.443 13.528-28.735 27.212-44.437 39.332-7.274 6.297-15.053 12.005-22.606 17.962-3.811 2.975-7.56 6.044-11.502 8.846-2.995 2.645-8.493 4.532-8.425 9.839m17 175h84v-138h-84zm216 0h87v-138h-87z" style="fill:#ffe;fill-rule:evenodd;stroke:none"/><path d="M1154 1312c-1.238-10.826 6.107-22.228 10.724-30.626 18.215-27.101 40.47-51.328 58.776-78.374 4.878 2.029 8.724 6.114 13.716 8 14.638 6.94 34.545 7.883 48.784 4-2.559 16.836-6.364 33.52-8.066 50.502-1.682 16.103-3.378 35.669-.209 50.34 3.308 13.961 10.113 26.751 18.423 38.312 3.99 5.365 7.913 10.813 12.374 15.796 2.405 2.401 4.484 5.048 6.667 7.631 1.988 2.263 5.037 4.706 4.115 8.28-13.983 50.326-32.74 99.44-44.582 150.368-4.543 20.013-6.763 40.652-4.835 61.137 1.854 16.795 7.934 33.274 19.244 46.024 20.763 23.583 55.06 26.222 84.064 23.519 21.89-1.693 44.296-7.993 60.276-23.889 23.505-24.459 30.11-59.031 38.163-90.527 8.072-32.016 16.903-63.927 28.303-94.931 5.89-18.18 14.023-35.462 21.747-52.868 1.947-4.392 4.401-8.51 6.758-12.68 3.425-9.486 11.964-6.879 18.906-5.986 7.535.829 15.08 1.145 22.652.972v107.4c.195 25.193-7.15 49.927-6 75.178-.4 8.975 1.656 18.853 9.043 24.77 13.373 9.64 31.076 8.732 46.623 8.486 12.008-.362 24.36-1.872 34.874-8.25 16.994-10.084 16.772-31.612 17.445-47.11-.225-18.727.855-37.396 2.971-56.001 3.249-32.339 13.054-63.475 22.044-94.473h2c13.753 30.043 28.873 59.968 37.204 92.227 6.573 24.204 11.226 49.077 20.55 72.46 6.085 16.44 15.772 36.17 29.436 45.69 11.369 9.57 26.584 11.065 40.706 8.964 20.635-2.459 39.457-13.14 55.653-25.553 15.396-12.315 31.56-30.417 38.306-47.43 6.593-15.143 6.057-32.114 2.866-47.97-4.256-23.297-13.83-45.196-23.586-66.557-9.108-22.413-18.04-45.115-22.643-68.97-7.84-47.308 7.19-94.327 20.508-138.861h1.5c5.892 6.783 12.012 15.463 18.107 21.096 6.24 6.125 13.18 11.397 19.965 16.863 3.11 2.205 2.928 7.484 3.696 11.55 2.811 15.92 12.673 29.495 24.102 40.361 18.022 19.204 46.479 33.935 69.768 39.463 10.519 1.968 23.181 4.044 33.054 3.029 6.348-.036 22.246-1.752 17.078-13.41-7.957-13.55-22.142-22.573-29.66-36.547-11.765-18.542-20.366-41.242-39.958-53.487-10.353-6.034-22.193-9.046-34.117-9.608-5.459-.165-12.117.686-16.51-4.785-4.072-4.118-8.36-8.077-11.933-12.652-8.83-9.344-16.24-19.854-24.277-29.848-4.585-6.883-11.005-14.525-14.178-21.47-1.996-13.806-1.545-27.996-4.171-41.769-1.85-13.764-4.577-27.382-7.981-40.83-15.233-62.196-49.443-119.768-97.843-161.857-17.573-15.879-37.164-29.338-57.636-41.162-8.743-5.186-19.5-10.413-27.796-14.635-5.01-2.008-2.42-11.125-3.222-14.928-.983-20.309-8.415-39.725-14.97-58.695-12.006-30.757-27.51-60.102-46.722-86.965-13.984-20.617-31.852-38.329-52.372-52.386-15.952-10.475-34.85-16.745-54.06-16.327-31.1-.035-62.274.394-93.248 3.543-28.486 2.807-57.638 8.829-82.071 24.627-8.696 5.659-18.26 13.386-25.147 19.931-5.391 4.681-10.402 13.394-19.757 12.898-26.54.508-53.17.168-79.641 2-2.788-16.644-14.908-34.024-26.765-43.538-13.834-11.082-31.372-16.643-48.958-17.302-18.826-.645-37.648.817-56.313 3.065-13.034 2.137-28.478 4.039-40.192 7.166-17.485 6.349-35.307 19.888-47.374 31.711-13.571 13.365-26.65 28.295-33.12 46.561-3.745 12.348-1.683 27.95-1.94 39.562 1.401 22.71 3.398 45.36 5.294 68.02 1.669 17.256 2.843 34.52 2.367 51.868-3.19 50.44-25.76 98.74-22.999 149.887-14.8-2.466-35.021-7.23-50.205 5.845-13.341 11.273-17.179 30.129-12.931 46.515 6.752 28.894 29.975 50.019 52.137 67.638 10.396 8.566 21.78 15.802 32.931 23.313 5.187 3.33 10.472 6.47 15.682 9.745 2.571 1.733 5.71 2.95 7.61 5.511 1.747 11.964-3.913 26.182-5.33 36.89-11.663 46.406-28.15 93.783-21.536 142.525 4.256 34.132 19.397 67.515 44.512 91.388 18.462 18.447 42.804 30.897 68.634 34.722 20.21 2.079 41.472 1.707 60.872-5.233 27.119-8.579 52.346-32.42 62.813-55.866 13.298-26.484 13.494-63.058 6.414-88.65-5.166-17.094-16.784-36.11-30.922-44.939-7.89-4.625-18.954-7.374-27.342-5.552-9.196 1.06-17.748 8.18-27.339 6.148m-129.5-152c1.355-11.346-.898-23.206-.55-34.642-1.053-11.066-.003-24.327-1.95-34.358-11.424-2.995-22.349-8.197-33.971-10.714-8.257-2.132-17.889-5.231-25.702-6.065-5.833-.77-13.8-.953-15.594 7.512-2.764 10.165 2.293 18.437 8.074 26.234 5.853 7.29 13.791 14.895 20.6 20.135 12.25 10.064 25.745 18.419 39.457 26.275 3.064 1.906 6.905 3.771 9.636 5.623M1004 2189.625c3.691 2.68 7.957 4.46 11.5 7.375 16.162-14.254 32.83-27.941 48.598-42.615 7.533-8.187 15.941-15.393 24.004-22.987 7.284-7.982 14.429-16.064 22.398-23.398 1.426 165.823-.26 332.097.5 498 21.409-.156 43.108.435 64.176-4.123 14.689-3.243 29-8.13 42.859-13.944 9.881-3.978 19.25-8.978 27.873-15.236 9.1-5.477 7.213-15.189 7.092-24.187V1946c12.421-1.463 25.842-7.261 31-19.5-10.54-3.893-21.195-8.44-32-11.5 8.937-19.133 21.175-36.88 29.675-56.333 14.223-29.05 28.222-58.27 40.59-88.174 3.246-7.705 6.265-15.47 9.596-23.134 2.174-5.674 4.172-11.428 6.62-16.997 1.905-5.647 6.823-5.766 11.741-5.39 13.771.462 25.447-8.43 30.778-20.472-32.515-10.639-65.917-19.199-98.662-29.257-32.887-8.973-65.307-19.903-98.338-28.243-17.345 95.294-41.203 189.332-72.199 281.13-14.922 45.05-31.174 89.625-49.08 133.564-8.984 21.535-17.83 43.158-27.651 64.316-9.541 21.374-20.435 43.008-31.07 63.615M1335.5 1156c16.438-11.143 27.187-28.546 34.332-46.725 12.91-30.801 14.06-64.405 13.168-97.211V908h38c-.3 32.162 1.452 64.297 4.63 96.274a454 454 0 0 0 12.024 67.365c4.447 15.463 9.844 31.288 19.845 44.159 7.116 9.028 20.087 16.013 32.324 5.661 12.44-12.525 17.04-30.913 28.906-43.914 11.468-13.748 32.492-18.3 45.933-26.289 13.327-6.7 23.562-17.88 30.235-31.083 5.476-10.328 9.298-21.43 12.017-32.775 3.567-17.463 16.69-30.248 29.886-41.234 12.313-10.271 23.321-25.917 30.392-38.635 7.532-15.574 10.88-36.168 9.46-51.98-2.94-25.406-15.196-53.448-25.082-74.396-11.146-22.603-24.495-44.316-41.347-63.114-10.33-11.623-21.872-22.642-36.034-29.447-11.452-6.679-24.698-7.31-37.523-6.592-38.762.566-78.6-1.481-116.408 9.091-28.592 7.184-48.052 30.335-67.62 50.212-31.939 3.24-64.654.375-96.734 2.732-45.287 2.757-91.331 14.922-126.674 44.815-17.34 14.13-30.628 32.539-39.513 52.946-4.565 10.976-7.855 22.547-9.68 34.305-.918 5.801-1.553 11.657-1.776 17.524.408 5.913-.462 11.664-5.013 15.81-9.46 11.864-15.76 26.125-16.72 41.352-1.296 14.447.578 29.026.349 43.492 1.355 49.834 5.94 99.501 7.068 149.343.57 24.686 2.614 49.663-2.568 74.106-4.33 23.34-10.955 46.2-16.158 69.344-4.824 20.917-10.43 42.116-10.219 63.752-.707 20.662.89 41.802 9.9 60.805 7.194 16.011 18.338 30.297 32.563 40.613 27.382 20.405 73.175 20.778 98.427 2.177 25.816-18.169 33.55-52.708 27.38-82.174-2.694-12.196-8.38-28.195-21.697-27.605-13.176 1.272-17.354 15.779-24.163 23.489-6.306 9.967-18.95 13.796-30.143 11.149-24.892-7.803-24.9-39.018-20.696-57.629 7.535-36.539 32.418-66.153 55.155-94.28 8.74-10.733 17.559-21.378 25.69-32.576 3.613-4.915 7.582-9.56 10.871-14.707 1.284-2.35 3.302-4.28 4.216-7.178-2.974-11.553-5.334-23.968-2.498-35.92 3.677-19.078 14.968-35.96 28.728-49.22 10.124-10.228 22.625-18.515 36.655-21.98 10.895-2.457 22.842-1.683 32.942 3.386 14.733 7.007 23.409 22.186 29.02 36.713 3.193 7.72 5.206 15.816 6.52 24.033 2.012 8.567.393 17.524 1.63 26.08m-101.233-7.08c.263 9.864 3.724 19.57 11.223 26.025 6.808 7.163 17.102 9.16 26.534 7.776 17.431-2.538 29.65-20.372 27.673-37.487-.668-9.334-2.719-18.473-5.324-27.433-2.135-8.105-7.771-17.763-15.487-19.132-12.209-1.882-22.714 10.981-30.209 18.22-8.173 8.652-13.566 19.95-14.41 32.032m14.735-159.689c-.85 17.12 15.244 32.522 31.864 31.695 17.01-.066 30.721-15.969 30.645-32.295-.139-16.73-15.36-31.801-32.317-30.62-16.106-.288-30.986 14.874-30.192 31.22M1612 2388c-1.63 18.66-3.184 37.405-7.458 55.702-3.49 12.448-6.827 31.25-19.236 34.451-44.066 3.719-88.294-3.477-132.306-4.153v11c23.807 5.918 48.11 14.995 66.86 31.39 14.976 16.149 21.003 38.64 23.405 59.896.568 5.34.825 10.698.738 16.057.142 2.35.006 5.55 1.669 7.138 37.456.194 82.463-2.53 115.472-13.046 26.038-7.903 45.424-28.759 55.79-53.296 17.6-39.813 22.205-84.593 19.288-127.654-3.676-42.64-13.276-84.924-30.706-124.164-11.678-25.26-25.164-49.861-42.248-71.953-8.54-11.521-17.764-22.545-28-32.6-10.047-9.374-19.344-20.806-31.268-27.768 1.369-3.932 8.048-5.295 11.548-8.201 29.903-15.513 57.098-36.36 83.452-56.799 9.738 84.547 20.923 169.991 49.403 250.704 26.317 76.431 70.877 146.181 129.097 202.296 10.074-27.833 23.842-54.917 43.994-76.971 20.377-22.351 47.651-37.936 77.506-43.029.318-3.38.958-7.314 2-10.25-73.74-38.21-146.848-82.83-200-148.25 31.74-5.848 63.586-12.65 94.682-21.552 15.625-4.357 30.926-9.761 46.527-14.188 7.372-3.886 17.562.29 23.9 1.205 7.818 1.096 16.092-.541 21.891-6.465-40.363-40.183-84.792-77.487-126.5-116.5-11.446 22.655-24.021 44.999-37.681 66.45-13.512 21.574-27.34 43.396-42.819 63.55-35.552-46.47-54.306-103.803-69-159.5 4.15-2.82 11.515-.68 17.09-1.5H1782v32c41.59 1.552 82.938-5.398 122.07-19.627 4.633-1.965 10.323-3.838 14.25-6.303 4.904-2.668 5.044-7.173 4.68-11.967V1921c11.63-2.033 26.543-8.371 31-18-40.88-28.611-81.037-59.558-121.5-89-11.095 11.797-22.407 23.343-33.67 34.986-3.793 4.858-8.438 8.97-12.7 13.384-3.897 3.533-6.925 7.828-10.598 11.55-3.404 3.857-9.781 3.117-14.39 3.08-36.324-.76-72.89.926-109.142-.5 31.663-13.637 62.24-29.432 92.496-45.9 14.625-8.653 29.884-16.297 44.11-25.632 7.363-5.856 18.326-5.613 26.38-6.887 8.182-1.212 16.925-6.028 22.014-11.581-41.69-34.063-81.391-71.1-123.5-104.5l-51.37 51.37-13.105 13.105c-6.224 7.807-19.13 5.085-27.882 5.525H1591v-1.5c10.933-9.434 18.279-22.352 28.748-32.122 1.256-1.397 4.122-.454 5.618-.714 11.293.52 26.329 3.29 34.634-10.664-2.278-2.742-7.494-3.221-11.174-4.884-29.549-8.617-58.415-19.4-87.96-28.005-14.67-4.476-29.142-9.493-43.766-14.084-14.56-3.527-28.258-10.696-43.1-13.027-18.479 59.384-49.218 114.38-81.25 167.31-33.142 51.837-71.576 100.421-117.75 141.19 2.938 2.925 6.108 7.24 10.86 5.284 4.664-1.702 9.239-3.68 13.856-5.48 14.938-5.612 29.377-12.568 43.784-19.304 1.426 58.878-.26 118.06.5 177 26.57-.073 53.702 1.15 79.698-5.686 11.885-2.735 23.457-7.129 33.86-13.523 9.4-5.464 23.997-12.79 23.442-23.791 19.571.737 39.546-.904 59 .5-36.36 37.434-78.48 69.039-121.932 97.811-43.293 29.074-90.657 50.989-138.068 72.189 2.032 3.486 4.621 8.296 6 12.5 92.609-16.332 183.664-45.27 270-81.5-37.533 42.347-81.204 78.828-127.103 111.841-45.614 32.031-93.34 62.029-144.897 83.659.734 3.477 3.105 7.804 4.609 10.257 2.27 3.15 8.542-.142 11.292-.139 59.534-12.815 118.063-30.336 174.764-52.5 18.816-7.376 37.547-15.072 56.014-23.27 9.184-3.631 17.845-8.418 26.927-12.24 9.43-3.196 19.221-11.282 27.394-12.608-43.593 49.918-92.506 95.245-145.965 134.492-25.831 19.37-53.053 36.892-80.719 53.472-28.896 16.334-58.425 32.369-89.316 44.536.678 3.837 2.903 8.941 4.349 11.798 1.822 3.6 8.582-.18 11.421.156 38.321-7.134 76.147-16.762 112.933-29.695 75.638-24.834 146.43-62.472 214.297-103.259m-104-1048c42.864 9.068 86.978 9.38 130.574 8.452 20.115-.425 40.212-.711 60.305-1.583 4.078.004 10.261-1.607 12.923.912 21.195 24.843 33.941 55.87 47.065 85.372 11.944 27.176 18.519 56.115 25.143 84.892 3.113 12.507 6.326 25.029 11.032 37.054 3.85 10.308 11.014 23.53 23.22 22.565 21.692-2.974 43.198-19.707 56.231-34.04 6.07-7.132 11.642-15.45 11.69-25.183 0-18.363-5.656-37.046-13.327-53.727-13.219-29.66-26.296-59.79-33.147-91.692-5.573-25.335-4.092-51.509-.675-76.994 5.483-36.576 15.364-72.592 30.229-106.477 1.8-4.006 3.744-7.976 5.1-12.156-.046-32.4-3.607-65.33-13.62-96.347C1837.868 1005.69 1779.515 944.095 1709 911c-4.858 18.102-16.716 33.757-28.978 47.472-11.337 11.985-23.695 23.286-32.982 37-7.283 12.813-9.112 28.006-16.126 40.957-5.618 10.76-14.084 22.526-22.152 30.22-8.157 7.076-16.988 13.344-26.207 18.922-16.444 8.896-35.235 15.096-46.62 30.662-7.631 11.943-15.2 23.897-24.249 34.839-14.29 17.864-42.131 18.29-61.398 9.421-19.866-8.964-32.126-27.945-39.788-47.493-7.934 17.314-14.947 35.692-28.02 50.152-11.218 15.941-28.585 25.153-45.48 33.348 15.882 29.073 31.447 58.634 47.173 87.856 1.574 3.404 4.144 7.315 4.377 10.85-15.728 58.439-36.344 115.852-53.435 173.966-6.204 22.08-14.257 43.628-19.642 65.944-4.856 19.079-8.661 42.632-5.452 60.655 2.878 19.146 16.725 29.762 33.91 31.68 15.258 1.654 33.645.527 47.258-3.067 12.882-2.999 21.805-13.633 26.23-25.51 8.886-21.64 12.238-45.036 18.495-67.454 15.759-66.652 43.72-129.499 72.086-191.42m-44 524.375c.044.62.234 1.158.625 1.625 9.457 2.611 18.547 6.741 27.899 9.765 7.793 2.383 18.98.499 28.477 1.235h68.389c11.048 1.442 14.58-10.311 18.524-17.802 11.798-25.885 25.83-51.272 35.086-78.198h-57.6c-6.933.37-15.168-.502-21.489.397-5.52 1.692-7.8 7.564-12.71 10.439-27.39 26.052-56.67 50.32-87.201 72.539M1481 2041h82v-136h-82zm216 0h85v-136h-85z" style="fill:#676767;fill-rule:evenodd;stroke:none"/></svg>