<svg xmlns="http://www.w3.org/2000/svg" width="3000" height="3000"><path d="M364 2760.5v1.5h2272v-1.5c-68.931-409.09-136.257-818.54-204.874-1227.691-51.076-306.848-102.33-613.661-153.4-920.497-4.868-28.824-9.564-57.688-14.431-86.508-1.116-7.008-2.365-13.985-3.488-20.978-1.2-6.774-.246-15.245-9.425-16.859-109.868-36.632-219.702-73.24-329.563-109.867-95.996-32.013-192.02-63.992-288-96-41.993-13.978-83.98-28.011-125.966-41.994-5.663-2.605-10.407-1.693-15.513.621-156.173 52.06-312.354 104.114-468.521 156.173-58.68 19.531-117.334 39.097-175.992 58.657-25.668 8.506-51.298 17.139-76.962 25.643-6.176 2.075-12.369 4.11-18.537 6.195-3.02 1.124-6.483 1.813-8.8 4.255-62.934 375.423-125.132 751.075-187.889 1126.544C490.857 1998.664 428.048 2380.37 364 2760.5m656-908.125c2.23 2.666 5.44 5.342 7.668 7.625 20.56-10.529 41.498-20.809 61.354-32.73 57.208-34.64 113.099-74.526 158.978-123.27h4v395c35.346.137 71.758 1.072 105.694-10.742 7.8-2.526 15.343-5.74 22.657-9.437 4.916-2.691 11.886-5.941 13.901-11.14 2.108-20.387-.363-41.202.748-61.681h323v89c44.02.044 90.556.309 131.01-20.07 4.823-2.278 9.636-4.64 14.044-7.648 4.996-3.034 5.326-7.816 4.946-12.78v-337.715c.005-6.406-.006-12.803.004-19.204.146-2.065.003-4.69.986-6.374 6.299-3.008 14.238-3.867 20.652-7.12 6.637-2.892 12.412-7.375 17.358-12.589-19.912-16.883-41.482-31.836-61.856-48.165-21.057-15.386-41.18-32.665-62.644-47.335-13.087 13.84-25.153 28.591-38.223 42.445-5.352 6.192-12.03 13.111-16.927 18.793-2.618 3.152-5.222 6.298-8.147 9.176-5.404 8.105-13.328 7.095-21.55 6.586h-193.175c-32.212-.058-64.389.07-96.592-.038-7.24-.503-14.936-4.84-21.206-6.696-21.308-7.499-42.303-16.005-63.68-23.266 1.115-6.392 8.778-12.362 12.38-18.865 33.349-45.383 62.913-93.59 88.058-144.008 4.94-10.473 10.695-20.578 15.232-31.235 2.14-4.576 4.112-9.237 6.249-13.803 1.724-6.124 8.329-5.21 13.47-5.089h462.099c10.93-.235 21.873.304 32.781-.21 8.11-.728 19.3-4.072 22.731-14.337-47.94-39.26-96.72-77.592-146.5-114.453-13.997 16.721-26.919 34.374-40.67 51.294-12.64 17.537-28.014 33.751-39.83 51.706h-290c3.395-14.847 11.974-28.104 16.086-42.757 15.201-42.719 31.14-85.425 42.914-129.243 13.245-.646 34.649-4.236 38-22-64.34-14.7-128.255-32.157-192.333-48-2.725 3.384-1.873 9.94-3.42 14.71-10.672 77.07-30.477 152.511-51.247 227.29h-284c1.794 8.789 5.38 17.184 7 26h267c-1.085 11.598-7.902 21.963-10.569 33.188-14.254 39.227-29.735 78.08-47.87 115.682-27.552 55.192-57.625 109.453-94.518 159.078-36.197 49.78-78.632 95.219-126.043 134.427M1395 1980h323v-300h-323z" style="fill:#fda;fill-rule:evenodd;stroke:none"/><path d="M1018 1852.5c3.126 3.174 6.369 6.324 9.5 9.5 9.734-6.32 20.7-10.653 30.88-16.19 34.684-18.922 68.77-39.146 100.424-62.901 31.877-23.38 63.168-49.303 90.196-77.909h2v395c35.678.109 72.357 1.158 106.695-10.396 7.946-2.584 15.702-5.713 23.136-9.538 5.071-2.744 12.346-6.016 14.421-11.386 2.108-20.386-.363-41.201.748-61.68h321v89c44.656.002 91.94.625 133.01-20.07 4.823-2.278 9.636-4.64 14.044-7.648 4.996-3.034 5.326-7.816 4.946-12.78v-340.714c.154-6.384-.198-12.78.131-19.145-.12-4.624 5.364-5.325 9.037-6.247 11.57-3.388 23.967-8.19 30.832-18.896-42.677-31.286-83.572-65.629-126.5-96.5-13.392 13.648-25.045 28.84-38.396 42.516-5.756 6.207-11.214 12.658-16.948 18.868-2.687 2.982-5.1 6.21-8 9-2.658 2.39-4.938 7.133-8.398 7.259-66.434 1.019-133.025-.186-199.488.357h-100.094c-7.749.156-14.754-3.816-21.95-6.134-21.566-8.508-43.85-15.48-65.226-24.366 35.542-45.667 65.91-95.106 93.202-146.058 11.103-20.253 20.272-41.447 30.224-62.227.957-2.589 5.736-1.824 7.77-2.213 89.105-.005 178.216 0 267.308-.002h200.183c19.907-.234 46.842 4.749 55.313-15.5-48.135-40.53-98.48-78.4-148.5-116.5-14.602 16.466-27.008 34.834-41.213 51.637-12.701 17.85-28.342 34.131-40.287 52.363-95.929-.76-192.151.926-288-.5 22.873-55.22 42.693-111.995 59-169.5 14.49-1.064 32.785-3.528 39-22.5-45.879-13.908-93.966-22.769-140.21-36.003-11.497-3.038-23.074-5.76-34.588-8.69-4.436-1.167-8.901-2.205-13.334-3.364-3.751-1.063-8.41-2.285-8.92 3.043-4.073 27.214-8.607 54.332-14.079 81.293-10.21 52.725-24.66 104.517-38.869 156.221-94.929.76-190.151-.926-285 .5 3.307 8.487 5.762 19.445 8 27.5h267v1.5c-14.657 42.377-30.18 84.532-49.085 125.23-26.913 59.872-59.67 117.199-97.71 170.68-37.7 53.692-83.464 101.577-133.205 144.09m378 126.5h321v-298h-321z" style="fill:#000;fill-rule:evenodd;stroke:none"/></svg>