<svg xmlns="http://www.w3.org/2000/svg" width="3000" height="3000"><path d="M1106 2377c12.808-.033 22.853-14.376 27.563-24.322 2.248-5.263 7.522-8.107 11.885-11.353 66.181-47.935 129.623-99.533 191.052-153.325-3.223 60.484-19.184 120.523-39.993 177.227-15.407 39.956-36.762 77.552-62.482 111.747-4.784 6.618-9.913 12.993-15.068 19.311-4.275 5.659-14.04 12.689-8.141 18.945 5.485 6.82 13.237-.162 18.735-3.107 45.898-26.153 89.778-57.664 124.36-98.011 33.498-39.669 63.014-84.382 79.089-134.112 9.466.952 20.01 9.775 26.234 13.784 11.365 8.434 21.107 22.67 24.82 35.04 4.074 15.37 3.68 31.46 4.946 47.176 18.574-.035 40.367-2.934 56.884-6.983 12.839-3.28 27.078-10.098 36.628-17.67 15.493-12.282 24.744-30.56 30.545-49.021 6.43-20.405 9.711-41.697 12.168-62.894 3.736-33.95 5.551-68.091 6.782-102.204.696-17.986 1.729-35.968 1.735-53.972.521-8.966-.002-17.957.443-26.908.232-5.047 5.981-5.074 9.487-6.127 3.678-1.133 7.641-1.923 10.828-4.221 6.501 48.004 12.263 96.492 23.89 143.695 3.657 17.773 8.426 35.244 13.02 52.781 1.027 3.475 2.779 7.99.874 11.597-28.93 50.697-63.878 98.054-104.237 140.25-20.778 21.115-42.351 41.522-65.507 60.02-11.198 9.28-22.812 17.99-34.522 26.59-5.908 4.231-11.867 8.388-17.804 12.571-8.155 5.426.042 11.124 1.786 17.496 6.337.075 12.958-4.011 18.183-6.079 87.455-38.478 169.21-91.426 235.317-160.921 14.357 33.24 29.925 66.218 48.928 97.17 13.557 23.001 37.797 43.883 57.85 57.324 17.875 11.104 37.868 19.72 59.128 21.218 16.248 1.47 32.47-3.145 46.18-11.66 10.542-6.561 13.713-19.563 13.395-31.144-.017-18.467-5.05-36.43-10.01-54.02-2.48-8.443-5.498-16.73-8.2-25.084-1.31-4.226-2.953-8.323-4.468-12.461-1.472-4.348-.433-8.919.198-13.32 6.02-52.75 15.307-105.214 20.499-158.023-3.788-.095-10.344-2.077-11.868 1.809-2.218 3.925-3.68 8.226-5.398 12.366-8.587 19.038-17.1 38.09-26.662 56.66-7.216 14.279-14.011 28.812-22.23 42.546-2.611 4.945-8.043 10.46-12.827 6.685-25.998-30.638-41.163-69.275-57.015-105.566 20.38-33.325 38.34-68.262 54.249-103.956 16.804-36.951 30.567-75.222 43.751-113.544 13.338.006 35.182 1.262 38-19-48.393-14.497-95.283-34.715-144-48-7.483 39.597-18.95 78.457-30.5 117-10.263-64.47-11.933-129.914-14.5-195h151.2c11.034-.179 36.362 2.245 35.8-18-20.821-15.556-40.209-34.9-62-49.5 26.357-8.073 52.678-43.034 35.305-75.868-6.265-14.005-19.27-23.253-32.638-29.778-14.618-7.163-30.347-11.487-46.457-13.463-16.538-3.299-33.639-1.836-50.21-2.891 3.163-3.363 3.887-9.863 4-13.5-52.835-2.637-105.147-12.677-158-15-.071 63.361 1.869 126.677 3 190h-141.6c-14.032.483-26.895-6.143-40.136-10.072-18.903-6.262-37.538-13.25-56.44-19.487-19.185-5.067-37.302-14.792-56.824-18.441-.76 23.903.926 48.209-.5 72-15.592-14.704-27.217-34.27-43.5-48-7.513 8.752-11.327 20.421-17.703 29.998-6.077 9.703-10.484 20.478-16.797 30.002-1.426-39.437.26-79.354-.5-118.884.591-19.881-.721-39.922.39-59.763.028-4.615 8.732-3.443 11.317-5.156 12.53-2.57 23.499-12.636 23.293-26.197-53.873-4.05-107.677-9.363-161.5-14-2.59 3.741-.885 10.368-1.5 15.38V1900h-80c1.076 9.593 6.098 18.395 7 28h73v276c-31.308 7.304-62.563 15.32-94 22 18.457 50.956 43.505 100.045 62 151m90-876h608v-87h-56v-63h-40c-6.381-14.906-15.705-28.667-22.984-43.168-3.294-6.33-6.916-12.48-10.058-18.872-1.985-7.316-.25-15.425-.958-22.933v-172.536c.109-28.755-.132-57.515.071-86.258.735-5.853 5.114-11.73 7.442-16.54 7.93-16.984 19.285-32.403 26.487-49.693h40V827h-117v28h-54v-24h-153v24h-54v-28h-118v114h40c6.304 14.773 16.01 28.163 23.199 42.55 3.329 6.84 7.814 13.093 10.87 20.053 1.878 7.563.294 15.615.931 23.307v173.067c-.472 28.698.575 57.47-.31 86.143-9.059 22.689-25.641 42.16-34.69 64.88h-40v63h-56zm42-28h525v-31h-525zm28 697c13.31-3.581 26.583-7.396 39.893-10.975 10.124-3.015 20.36-5.614 30.477-8.606 4.853-.956 4.904-5.606 4.709-9.347a1897 1897 0 0 0 3.672-86.82c.69-42.078-.109-84.173.249-126.252h-79zm28-1257h413v-53h-50v27h-106v-23h-101v23h-106v-27h-50zm0 496h413v-31h-413zm44-462.75c3.587 6.145 7.203 12.555 11 18.642 3.092 4.393 5.522 11.58 10.634 11.972 18.961.389 37.957-.071 56.918.136H1647c4.252-10.57 11.004-20.262 16-30.5-108.21-1.426-216.72.26-325-.5zm0 398.25c.03.55.186 1.057.5 1.5 108.107-.76 216.478.926 324.5-.5-4.033-6.731-7.542-13.84-11.61-20.574-1.543-3.01-3.466-5.772-5.27-8.61-6.07-2.673-15.232-.398-21.682-1.316h-251.532c-4.787.07-9.578-.092-14.352.068-6.514.1-8.6 9.004-11.745 13.471-2.852 4.66-5.208 10.82-8.809 15.961m31-62.5h263v-273h-263zm70 980.625c12.061 2.299 24.923 1.232 37.195 2.059 6.067.048 12.41.904 18.238-1.259 5.162-2.44 8.26-7.397 9.95-12.671 10.193-32.505 9.514-67.122 12.26-100.67 1.347-39.014 3.142-78.043 3.357-117.084h-25.8c-6.616.097-13.211-.122-19.814.075-5.914-.406-5.642 5.867-5.386 10.278.058 13.987-.653 27.95-1.006 41.915-3.573 59.532-8.274 121.09-28.994 177.357M1469 2005h31.8c4-.046 9.67.708 13.07-2.49 11.23-10.397 22.447-20.761 33-31.88 3.926-4.38 8.446-8.1 12.882-11.91 3.403-3.102 7.662-9.182 12.134-6.68 27.131 20.867 52.487 44.103 79.614 64.96-2.112-24.52-4.666-49.476-6.014-74.147-2.609-25.55-2.41-51.282-4.486-76.853h-172zm291-167h22c7.59-12.479 18.794-23.285 27.068-35.457 3.255-4.44 7.27-8.45 9.435-13.543-3.415-20.406-10.327-40.164-20.198-58.367-4.311-8.632-9.247-16.883-14.485-24.964-2.806-4.029-5.364-8.22-8.284-12.165-2.847-4.413-9.112-2.8-13.536-2.504-3.389 48.839-1.278 97.995-2 147" style="fill:#fff;fill-rule:evenodd;stroke:none"/><path d="M449 2668h2102c-110.242-665.144-221.837-1330.12-332.532-1995.186-3.476-20.835-6.96-41.682-10.42-62.51-1.682-10.253-3.434-20.498-5.126-30.74-1.284-4.301-.763-13.077-5.037-14.575-157.034-52.902-314.464-104.735-471.586-157.384-59.003-19.668-117.989-39.359-177-59-12.991-4.38-26.002-8.647-38.997-13.002-3.112-1.025-6.191-2.224-9.42-2.795-5.85.042-13.257 4.126-19.018 5.393-97.504 32.546-195.061 65-292.567 97.54-73.178 24.36-146.325 48.77-219.478 73.159-54.841 18.294-109.718 36.516-164.531 54.86-6.415 1.276-7.163 6.488-7.57 12-26.516 158.994-52.99 317.976-79.524 476.964A2145928 2145928 0 0 0 449 2668m596-440.75c11.131 24.237 20.36 49.663 31.3 74.053 9.58 25.085 21.745 49.457 30.7 74.697 12.86-2.579 21.273-14.81 26.316-25.831 2.895-4.656 8.071-7.418 12.331-10.652 33.033-24.972 66.669-49.21 98.55-75.652 32.678-24.937 63.234-53.682 94.803-79.552-5.839 61.2-18.524 122.017-40.549 179.552-10.604 27.33-23.159 54.019-39.15 78.64-7.418 11.9-15.095 23.637-23.718 34.702-4.254 5.892-8.736 11.611-13.34 17.225-3.674 5.964-10.808 11.245-13.243 17.236 2.18 1.93 4.534 4.36 6.328 6.332 48.83-25.7 95.448-58.352 132.654-99.475 37.664-40.603 65.687-89.153 85.518-140.525 18.674 6.306 34.944 19.183 45.39 35.776 11.197 18.311 9.448 40.812 11.11 61.224 35.245-1.02 75.652-5.923 101.017-33.649 23.203-28.138 28.23-65.972 32.996-100.726 3.71-34.701 5.805-69.524 6.994-104.397.711-18.384 1.74-36.745 1.762-55.144.731-8.825-.35-19.328.688-27.369.703-3.953 8.213-3.408 10.777-4.933 3.837-.755 8.571-3.357 11.766-3.782 4.966 47.631 12.358 95.06 22.957 141.778 3.514 17.473 8.25 34.625 12.701 51.866 2.165 6.758 5.242 13.52-.781 20.705-28.095 46.963-59.67 92.398-98.14 131.578-36.653 41.392-81.494 74.585-125.737 107.073.776 4.236 5.59 8.389 6 12 24.676-7.206 47.024-21.67 70.36-32.177 33.693-17.987 66.515-37.863 97.101-60.787 15.52-11.11 29.95-23.619 44.564-35.85 6.747-6.494 14.776-13.972 21.077-19.788l10.5-10.5c3.246-2.703 6.9-7.896 10.398-8.898 3.21 11.757 10.628 24.565 14.934 34.831 9.193 19.825 19.594 39.064 30.444 58.034 14.88 27.666 43.725 52.754 68.307 66.965 14.579 8.624 30.98 14.285 47.763 16.5 17.015 2.354 34.22-2.595 48.556-11.535 15.382-10.51 13.499-30.906 11.724-45.394-3.94-24.613-11.801-48.418-20.274-71.776-4.038-9.889.495-24.27 1.452-36.396 1.7-12.17 3.196-24.356 4.895-36.514 3.797-33.962 10.047-67.694 13.199-101.715-3.316-.11-8.568-1.758-10.152 2.246-1.94 3.702-3.372 7.62-4.935 11.479-8.453 18.881-16.981 37.71-26.351 56.148-8.868 15.901-15.189 33.555-26.19 48.186-6.421 7.735-12.906 2.325-16.827-4.218-16.542-23.829-30.59-49.274-41.819-76.032-2.214-4.995-4.316-10.06-6.089-15.23-1.899-4.554-4.725-9.189-.989-14.478 40.258-66.835 70.562-139.295 95.352-213.101 13.002.123 31.97 1.575 38-17-47.542-15.225-94.32-33.142-142-48-7.803 40.569-19.345 80.588-31.5 120-.426-.426-.911-.877-1.5-1.265-8.304-65.947-12.77-132.288-14-198.735h149.4c10.634.187 36.102 2.465 37.6-16-21.056-16.11-41.052-35.166-63-50.5 9.237-4.737 19.27-8.72 26.096-17.107 10.687-11.284 17.629-27.682 15.22-43.38-2.774-15.75-12.876-29.48-26.357-37.694-30.712-19.88-68.682-22.58-104.097-22.34-1.65.014-3.296.006-4.862-.479 2.822-3.754 4.768-9.19 5-13.5-52.154-2.917-103.84-12.077-156-15-.108 63.352 1.975 126.672 3 190h-141c-14.312 1.045-27.477-4.602-40.703-9.396-37.823-12.573-75.319-26.659-113.297-38.604-.76 24.903.926 50.209-.5 75-13.958-17.581-29.866-33.577-44-51-13.876 19.822-22.38 43.038-36 63-1.426-39.877.26-80.258-.5-120.23.037-20.176-.045-40.354.024-60.527-.283-6.17 4.485-7.027 9.262-7.383 12.747-2.1 24.703-11.061 25.714-24.86-53.135-4.201-106.488-8.967-159.5-14-2.59 3.741-.885 10.368-1.5 15.38V1901c-26.607.76-53.478-.926-80 .5 2.615 7.735 5.843 18.83 7 25.5h73v278c-31.325 7.307-62.532 15.314-94 22zM1197 1500h606v-85h-56v-63h-40c-6.381-14.906-15.705-28.667-22.984-43.168-3.41-6.452-7.068-12.775-10.289-19.32-2.074-61.368.378-123.353-.727-184.838v-92.26c-.61-13.352 10.366-26.044 15.126-36.715 5.516-11.8 14.777-24.445 18.874-35.699h40V828h-115v28h-56v-24h-151v24h-56v-28h-116v112h40c6.39 14.932 16.175 28.48 23.453 43.011 3.233 6.898 7.946 13.094 10.807 20.16 2.013 15.395-.286 31.21.74 46.693v202.413c-.013 10.193.016 20.364-.009 30.545.259 6.866-4.072 12.518-7.16 18.259-5.112 8.487-9.61 17.296-14.521 25.889-4.047 8.17-10.557 17.115-13.31 25.03h-40v63h-56zm40-26h527v-33h-527zm28 697h1.5c13.748-3.238 27.205-7.706 40.904-11.108 10.27-3.161 20.753-5.551 30.979-8.843 4.25-.968 3.584-6.63 3.745-10.124 2.068-29.69 3.113-59.43 3.705-89.192.476-41.58-.086-83.165.167-124.733h-81zm28-1257h415v-55h-52v27h-104v-23h-103v23h-104v-27h-52zm0 496h415v-33h-415zm43-464.25c2.994 5.541 6.698 10.773 9.726 16.326 2.889 4.338 5.58 9.867 8.485 13.678 1.975 3.428 8.584 1.657 11.581 2.246H1648c4.162-11.56 12.444-21.648 17-33h-329zm0 399.75c.03.55.186 1.057.5 1.5H1665v-1.5c-3.395-4.186-6.01-11.105-9.648-16.413-3.806-4.287-5.302-12.242-9.74-14.623-50.951-1.322-102.134.24-153.129-.464h-114.988c-6.391.039-12.785-.048-19.172.027-6.386-.682-8.293 5.92-10.73 10.48-4.233 6.565-7.322 14.726-11.593 20.993m32-62.5h265v-275h-265zm70 981c11.603 1.172 23.256 1.491 34.928 1.617 8.208-.19 18.627 1.774 24.755-2.533 9.173-6.952 10.244-22.596 12.938-32.626 2.107-12.343 3.384-24.853 4.437-37.32 3.59-53.615 5.13-107.395 5.942-161.138h-27c-6.798.077-13.592-.095-20.381.054-6.678-.421-5.59 6.219-5.619 10.922-.014 14.514-.672 29.01-1.1 43.516-2.67 30.399-3.595 61-8.531 91.177-3.548 29.475-12.158 57.991-20.369 86.331m30-258h32.4c4.242-.163 10.489.661 13.407-1.646 11.583-10.198 22.584-21.08 33.426-32.087 3.913-4.295 8.277-8.087 12.717-11.792 1.941-1.79 3.716-3.715 5.645-5.505 4.314-4.596 7.801-.092 11.155 2.6 25.294 20.77 50.551 41.563 75.75 62.43-.835-25.235-5.258-51.004-5.845-76.429-2.91-26.096-2.365-52.44-4.655-78.571h-174zm291-167h24c10.67-17.81 27.242-32.662 38-50.5-2.855-3.13-2.85-9.08-4.167-13.79-8.187-30.457-25.648-64.586-44.333-86.71-2.846 1.756-7.655 1.47-11.5 2-3.389 49.489-1.278 99.344-2 149" style="fill:#000;fill-rule:evenodd;stroke:none"/></svg>