<svg xmlns="http://www.w3.org/2000/svg" width="3000" height="3000"><path d="M407 2715h2186c-120.11-729.14-243.257-1457.94-364-2187-121.653-40.09-243.099-81.112-364.7-121.395-91.164-30.407-182.32-60.766-273.474-91.162a32206 32206 0 0 1-51.529-17.183c-8.003-2.659-16.01-5.346-24-8-7.038-2.654-14.998-6.446-23.453-2.372-120.19 40.07-240.392 80.12-360.578 120.183C1011.124 447.878 891.186 488.387 771 528c-120.737 729.033-243.897 1457.913-364 2187m771-579v428c21.116.065 42.477 1.05 63.288-3.344 14.487-2.606 28.573-6.858 42.436-11.737 9.868-3.802 21.75-8.78 29.47-14.769 5.949-5.446 2.932-17.301 3.806-25.83v-431.253c-.02-3.573-.457-9.207 3.231-10.1 9.977-2.602 20.047-6.796 25.769-15.967-2.044-2.777-6.89-3.515-10.376-5.138-10.918-3.821-21.724-8.038-32.624-11.862.908-6.07 9.326-10.299 13.699-15.294 17.175-16.903 33.972-34.022 51.034-50.939 4.278-4.454 8.889-8.58 12.885-13.282 2.685-3.42 6.282-7.155 9.513-9.476 6.852-1.409 13.962 1.333 21.081-1.119 6.765-1.259 12.351-5.353 16.788-10.39-52.187-32.92-107.073-61.906-159.5-94.5-15.544 34.726-32.313 68.99-51.123 102.085-27.14 48.914-56.226 96.719-87.486 143.089-31.85 45.608-64.835 91.227-102.891 131.826.312 4.081 5.76 9.216 10.009 6.046a2377 2377 0 0 0 29.954-16.01c19.142-10.796 37.867-22.349 56.379-34.159 9.573-5.516 18.573-11.87 27.545-18.284 4.548-3.272 9.246-6.302 13.725-9.661 4.1-2.553 9.231-7.478 13.388-7.932m-143-818.847c11.43 22.375 22.555 45.208 33.928 67.682 10.815 23.274 23.798 45.696 34.072 69.165 11.728-.997 20.047-14.132 23.719-22.745 1.627-4.616 7.358-8.048 10.624-10.474 29.286-22.746 58.716-45.306 87.025-69.275 14.027-11.879 28.13-23.646 41.844-35.878 7.29-6.164 14.311-12.67 21.54-18.908 3.233-3.441 7.016-6.283 10.476-9.463 3.141-2.988 6.848-7.023 10.772-7.257 5.808 20.25 12.728 40.279 20.877 59.708 10.369 28.584 29.481 54.623 57.432 68.448 14.112 7.5 29.88 12.499 46.004 11.818 7.766-.278 16.668-3.213 23.068-6.171 3.367-1.612 6.613-3.45 9.765-5.416 2.942-1.658 5.634-5.09 8.854-5.387-2.49 10.565-13.119 19.525-18.363 27.45-6.637 6.848-15.496 11.63-20.605 20.017-11.01 13.515-17.392 31.745-11.903 48.963 7.083 25.758 37.85 38.578 62.213 31.241 12.42-2.625 23.15-10.593 29.688-21.285 6.966-10.844 11.817-22.905 14.465-35.524 4.576-20.938 5.545-42.666 3.572-63.978-1.372-16.06-4.577-31.821-8.275-47.46-2.65-14.15-8.708-27.43-11.792-41.424-4.362.118-8.719-.157-13-1 .475 11.34.092 22.745-3.187 33.703-2.421 10.512-7.197 20.25-10.813 30.297h-3c.52-18.461-3.191-36.689-8.528-54.308-1.715-6.703-3.832-13.283-5.959-19.846-2.947-11.573 1.232-23.648 1.445-35.307 2.974-36.246 8.648-72.262 11.042-108.539-3.374-.003-7.036-1.411-10-2-7.552 27.241-18.878 53.56-30.206 79.413-4.312 8.843-9.094 24.396-20.61 20.7-8.329-3.888-11.017-15.69-14.074-23.257-22.073-65.478-26.996-135.366-30.11-203.856h63.6c20.115-1.013 44.22 1.68 62.4-2v274c25.867-.475 52.216-.128 77.52-6.428 11.431-3.54 24.943-8.237 34.406-13.906 6.611-3.809 4.908-12.146 5.074-17.897V1251h206c-.925 23.377-3.329 46.674-5 70h-3c-6.045-12.27-20.975-21.258-31.184-27.532-13.013-7.161-27.377-11.448-41.887-14.33-9.048-1.352-18.118-2.811-27.237-3.472-4.626-.222-9.267-.697-13.892-.612-4.318-.72-7.863 3.872-10.8 4.946v2c18.258 10.535 32.798 27.265 46.924 42.693 12.796 16.076 25.355 33.896 30.076 54.307 7.245 2.01 14.22 6.123 22.021 5.816 3.92-.133 7.828-.869 11.468-2.298 3.51-1.446 6.581-4.248 10.511-4.518-1.917 19.806-7.26 42.803-11.845 60.431-4.089 12.804-9.518 29.893-20.45 37.055-10.208 6.225-22.446 5.797-33.87 5.514-17.989.106-35.931-1.401-53.872-2.331-8.784-.573-17.558-1.248-26.324-1.96-4.434-.086-9.667-.892-13.71-.268-4.12.367-2.406 8.136-2.929 10.559 24.53 3.45 53.198 14.237 70.865 28.692 9.693 8.004 16.823 21.579 19.201 32.69 3.833 13.562 2.947 27.837 4.434 41.618 38.125-2.888 80.195-3.155 113.465-25.91 24.565-14.558 38.849-41.197 48.22-67.046 14.954-42.53 20.35-87.791 25.126-132.374 2.404-22.73 3.836-45.546 5.547-68.325.406-6.085.673-12.185.988-18.268-.245-4.007.092-8.171 5.502-8.453 11.883-2.076 24.101-6.202 32.652-15.124-23.84-21.316-49.356-40.762-73.584-61.638-4.614-3.959-9.333-7.763-14.047-11.589-2.382-1.753-4.451-3.876-6.836-5.626-2.035-1.598-4.688-4.277-6.917-4.158-15.67 14.204-30.926 28.98-46.218 43.613-5.091 5.793-11.623 12.118-21.201 10.898H1620v-74h313.8c12.018-.14 27.67 1.742 35.2-13.5-15.19-14.774-32.369-27.388-48.974-40.475-8.563-6.492-16.96-13.183-25.672-19.468-4.297-3.138-8.437-6.482-12.648-9.728-3.532-3.08-10.28-6.529-10.706-10.829 6.098-1.893 13.565-7.181 17.695-10.325 4.991-4.731 2.72-14.626 3.305-21.962V830c11.813-1.193 26.093-7.275 33-16-34.321-28.654-72.168-53.286-106.5-82-8.877 9.477-17.92 18.79-26.872 28.21-5.824 6.376-13.595 14.254-19.73 21.392-5.764 7.55-13.194 7.096-21.34 6.398H1677v-3c19.56-13.113 37.74-29.453 56.628-43.721 4.727-3.688 9.37-7.495 14.052-11.233 7.303-6.416 18.035-4.806 26.652-9.263 9.566-3.936 14.143-10.809 17.668-19.283-56.492-12.365-115.054-19.194-171.5-31.5-2.388 3.222-1.04 8.994-1.516 13.456-.501 16.462-.925 32.91-1.763 49.347-.947 16.056-.462 32.2-2.221 48.197-37.773-12.081-74.268-28.654-112-41v269h-2.5c-24.009-25.065-50.357-47.635-75-72-7.646 12.081-15.972 23.893-23.779 35.906-4.118 6.133-8.177 12.296-12.295 18.43-4.054 4.672-7.844 14.668-13.426 15.664-.125-72.719 2.459-145.609 9-218 9.76-1.63 19.422-3.994 29.165-5.748 7.214-1.054 15.516-3.6 22.204-3.987 18.386 2.24 41.92 13.827 62.631-.765-40.788-34.205-79.746-71.141-120.5-105.5-42.834 32.689-88.966 60.957-135.97 87.215-6.012 3.305-11.98 6.665-18.136 9.692-4.833 3.207-9.96 6.659-16.549 2.66-19.024-8.054-37.31-17.718-56.3-25.833-18.363-8.091-39.475-18.93-56.545-25.734v569.4c-.295 6.12 1.826 14.941-5.033 15.891-18.308 3.691-36.531 7.756-54.967 10.709zm18 607.43c1.18 3.123 4.925 6.233 6.5 8.417 62.487-25.746 123.85-54.859 181.444-90.449 27.747-17.008 54.642-35.422 80.765-54.816 13.542-9.6 26.34-20.142 39.277-30.518 2.91-2.299 5.784-5.826 10.378-5.873 6.751.014 13.732 1.533 20.306-.834 5.785-1.697 10.361-5.67 14.33-10.01-25.075-15.954-50.379-31.794-75.59-47.574-25.487-14.91-49.594-32.754-75.41-46.926-24.119 51.648-56.69 99.195-89.483 145.647-34.26 46.635-70.298 92.676-112.517 132.353zm19-425.083c2.287 8.135 4.71 16.368 7 24.5h304.8c11.799-.004 26.907 1.434 34.2-13.5-34.669-32.195-70.332-63.586-107-93.5-13.63 16.366-24.964 34.824-38.011 51.695-4.638 6.636-9.612 13.03-14.185 19.705-2.138 2.782-3.904 5.9-6.427 8.356-4.918 4.092-14.564 1.144-21.49 2.244H1072zm137-487.5h65c-2.61-67.924.841-137.532-.5-205-21.182 4.197-43.416 3.899-64.5 8zm0 268c15.97-1.276 31.263-7.285 46.997-9.891 15.696-3.62 31.36-7.304 47.003-11.109-17.58-72.703-25.177-147.393-28-222h-33.6c-10.322 1.013-23.166-1.347-32.4 1zm191 715h261v385.8c-.39 7.896 1.995 18.695-7.95 24.339-14.861 5.521-31.493 1.136-46.835 1.738-48.025-3.466-96.207-4.371-144.215-7.877v10c38.06 5.75 77.247 15.21 108.332 39.246 15.755 11.204 27.408 27.278 32.895 45.943 7.098 19.243 8.157 39.759 10.773 59.811 51.07-2.208 105.819-10.02 147.186-42.83 8.996-8.443 17.348-17.795 23.477-28.56 19.6-36.441 18.42-79.122 18.337-118.963V1995h72c18.02-.012 36.032.015 54.038-.008 10.477-.297 25.583-.532 31.466-12.724.416-4.11-6.447-6.734-8.228-9.523-22.72-19.798-45.621-39.402-68.933-58.493A4056 4056 0 0 1 1839.5 1879c-22.28 29.066-43.504 59.028-66.42 87.59-2.31 3.03-7.321 2.232-10.668 2.41H1393c1.37 8.866 5.072 17.272 7 26m48-249.5c2.641 8.022 4.742 16.348 7 24.5h426.6c17.859-.329 42.66 4.52 50.4-13.668-18.702-17.439-38.71-33.413-58.025-50.145-9.873-8.288-19.89-16.385-29.88-24.512-4.913-4.011-9.72-8.18-14.815-11.951-5.06-2.842-10.47-9.771-15.28-10.724-16.759 25.317-37.509 48.68-54.997 73.666-3.435 4.012-7.254 11.54-11.967 12.128-99.664.587-199.371-.106-299.036.206zm114-421.5c2.315 27.193 6.132 54.38 5 81.799.346 20.62-1.436 41.171-4.629 61.512-1.463 8.082 5.463 13.464 10.527 17.595 9.648 8.416 23.49 11.87 35.671 6.997 17.935-6.63 28.885-24.798 31.712-42.872 3.663-18.851-.838-38.312-8.462-55.608-12.046-27.895-33.678-50.702-56.95-69.562-3.586-2.492-9.162-1.134-12.869.139m58-422h155v-88h-155zm0 115h155v-89h-155zm0 110h175.8c4.185-.077 8.728.314 12.763-.713 9.516-9.056 16.478-20.576 25.25-30.31a533 533 0 0 0 12.384-15.259c3.302-5.356 9.88-10.277 10.803-15.718-6.73.523-12.85 4.129-19.418 5.399-20.259 6.62-41.48 7.538-62.582 6.601v-35h-155zm7 179.414c24.177 35.217 44.032 76.41 44.31 120.211.076 5.078 8.813 7.904 11.73 10.483 19.053 11.031 39.253 3.753 49.995-12.73 11.232-16.64 9.68-38.446.206-55.462-19.698-35.075-57.462-54.843-94.626-65.759-3.958-1.457-8.382 2.21-11.615 2.843z" style="fill:#fedda9;fill-rule:evenodd;stroke:none"/><path d="M1025 2216.578c1.186 3.794 5.347 6.579 7.344 9.422 50.458-25.403 98.605-55.632 144.156-89 1.426 142.46-.26 285.434.5 428 21.523.05 43.287 1.009 64.53-3.178 15.283-2.808 30.177-7.195 44.781-12.448 9.647-4.093 21.719-8.748 28.958-15.283 3.352-3.364 2.74-8.376 2.731-12.775v-395.865c.005-16.609-.006-33.189.004-49.787-.687-9.647 8.702-8.577 15.329-12.045 6.056-2.769 12.92-8.502 14.667-14.619-14.47-5.772-29.77-10.155-44-16.5 18.944-19.268 42.804-40.146 59.475-58.475 4.978-5.012 10.027-9.985 14.985-15.008 3.547-3.829 6.577-8.148 10.639-11.491 2.863-2.978 8.234-1.707 11.449-1.582 11.266.755 23.35-3.409 29.452-13.444-26.886-15.945-53.96-31.714-80.932-47.53-13.746-7.963-27.301-16.27-41.106-24.122-6.704-4.101-13.564-7.937-20.304-11.969-6.8-3.058-13.776-9.618-20.658-10.879-14.321 35.152-32.483 68.791-50.623 102.085-27.18 49.063-56.403 96.954-87.72 143.456-32.168 45.746-65.114 91.891-103.657 132.459zM1103.5 1456c10.921-3.082 19.308-11.918 23.525-22.181 3.153-7.898 13.983-13.216 21.432-19.887 55.434-41.373 107.427-87.056 159.043-132.932 7.047 19.419 12.244 39.85 20.975 58.726 5.516 14.375 11.545 28.957 22.19 40.383 25.474 32.023 83.413 60.253 122.835 23.891-4.403 10.18-14.029 21.044-20.928 28.517-16.793 12.725-31.457 31.845-31.545 53.933-.399 16.29 8.38 31.927 22.63 39.907 20.693 11.646 50.022 9.482 67.165-7.794 15.967-18.456 22.071-43.19 24.381-66.87 1.594-18.634 1.09-37.362-1.746-55.83-3.045-18.52-6.662-37.038-12.325-54.96-1.568-7.099-4.776-13.786-6.132-20.903-5.025.072-10.013-.473-15-1 1.248 22.32-4.403 44.164-14.5 64l-.5-1.458c.452-18.524-3.728-36.767-8.976-54.438-1.657-6.707-3.951-13.198-5.93-19.804-2.148-11.599 2.285-23.458 2.16-35.082 2.894-35.797 8.719-71.377 10.746-107.218-4.08-.108-7.927-1.889-12-2-7.382 26.968-18.694 52.924-29.786 78.545-2.646 4.92-4.55 10.181-7.422 14.962-2.25 3.602-6.876 9.58-12.428 6.193-7.686-4.226-10.204-15.523-13.254-22.844-22.045-64.837-26.683-134.043-30.11-201.856h93.6c9.816-.888 22.156 1.554 29.9-2 1.426 91.197-.26 182.734.5 274 26.557-.409 53.605-.045 79.585-6.44 11.704-3.765 23.683-7.645 34.34-13.894 6.612-3.809 4.91-12.146 5.075-17.897V1252h204c-1.486 22.186-2.806 44.401-5 66.531l-.5 1.469c-11.221-17.835-34.036-30.427-51.825-36.23-11.053-3.482-22.33-6.17-33.854-7.433-5.806-.794-11.616-1.543-17.467-1.815-5.124-1.188-12.921.452-16.854-1.522-2.357 2.865-6.473 5.767-8.5 8 7.934 7.22 17.961 12.333 25.102 20.602 22.22 22.108 45.093 46.996 52.898 78.398 7.322 2.108 14.41 6.112 22.292 5.908 7.676.28 15.112-2.386 21.208-6.908-1.526 20.267-7.023 40.847-11.952 60.617-4.049 12.748-9.924 29.558-21.49 35.773-10.66 5.629-23 4.763-34.59 4.61-17.895-.265-35.799-1.361-53.632-2.684-8.884-.572-17.74-1.411-26.62-1.856-4.17-.09-8.551-.839-12.603.28-2.868 2.49-.842 9.137-1.613 12.26 24.53 3.45 53.198 14.237 70.865 28.692 21.282 18.391 23.189 48.348 23.135 74.308 16.786-2.159 33.99-.329 50.702-3.773 27.031-3.973 54.445-11.87 75.948-29.588 31.017-28.095 43.112-70.516 51.14-110.008 8.222-41.86 12.052-84.428 15.37-126.889 2.04-15.79 1.454-31.849 3.34-47.624 1.465-3.162 7.684-2.216 10.259-3.582 10.391-3.032 23.486-6.639 28.241-16.536-35.792-25.625-67.58-58.676-103.664-84-14.142 14.867-32.65 30.309-45.706 43.87-5.284 4.88-10.952 12.692-20.25 12.13H1621v-72h316.2c7.357.043 15.049.28 21.954-2.72 4.422-2.288 12.31-8.362 9.627-13.39-29.43-28.895-65.045-51.18-96.781-77.39 8.815-4.987 21.858-9.524 21-20.218V831c12.094-1.408 27.71-7.72 34-17.5-18.545-15.186-38.505-28.618-57.074-43.768-14.16-10.944-28.502-21.628-42.782-32.397-2.542-2.167-5.185-4.238-8.102-5.837-2.805-.11-5.111 3.642-7.517 5.477-8.225 8.74-16.202 17.702-24.453 26.406-6.554 6.12-12.306 12.992-18.445 19.486-4.791 5.718-14.307 3.905-20.866 4.133H1679.5l-1.5-.5c19.562-14.536 38.746-30.005 57.875-45.179 4.81-3.831 9.563-7.74 14.407-11.517 4.027-4.092 8.497-3.864 13.499-4.543 11.733-2.117 27.01-9.462 29.219-25.261-46.642-8.817-93.562-16.25-140.212-25.054-5.897-.782-11.682-2.075-17.523-3.086-4.997-1-10.089-1.542-15.073-2.38-3.823 1.898-1.222 9.784-2.207 12.826-.493 16.53-.932 33.088-1.769 49.588-1.504 15.442.23 34.147-2.716 48.106-36.561-14.92-74.333-27.415-111-42-2.185 89.76 1.185 180.302-1 270-11.834-12.456-26.678-26.04-37.975-36.975-6.705-5.967-13.411-11.865-19.53-18.449-3.338-2.836-6.774-5.56-9.728-8.809-3.055-2.742-6.278-7.27-10.267-7.767-6.435 12.321-15.862 23.429-22.974 35.46-8.156 11.267-14.91 23.623-23.526 34.54-1.557-71.884 2.772-144.348 8.5-216 9.76-1.63 19.422-3.994 29.165-5.748 7.318-.908 15.718-3.866 22.515-3.809 18.24 3.374 43.178 13.34 63.32-1.943-41.303-35.25-81.29-72.14-122.5-107.5-42.887 33.407-89.629 61.644-136.97 88.215-6.012 3.305-11.98 6.665-18.136 9.692-2.694 1.428-5.206 3.397-8.25 4.067-2.136 1.204-5.264-1.589-7.88-2.06-18.927-8.453-37.569-17.466-56.447-26.01-18.937-8.58-37.668-17.884-56.817-25.904v571.8c-.02 6.067 1.948 14.331-6.78 14.86-17.707 3.576-35.398 7.382-53.22 10.34.74 5.527 5.574 11.769 7.928 17.835 20.955 40.454 40.102 82.022 61.572 122.165m-52.5 468.583c1.198 2.467 4.042 5.266 6.259 7.672 2.199 2.627 6.957-.21 9.47-.946 52.468-21.69 104.168-45.764 153.173-74.547a1335 1335 0 0 0 84.168-54.469 1039 1039 0 0 0 61.098-46.781c6.672-5.933 19.785.203 29.04-4.57 3.74-1.494 7.222-3.787 9.97-6.716 1.035-1.422 3.018-3.084 2.034-4.7-24.369-17.04-50.86-31.66-75.677-48.18-25.093-15.643-49.94-31.754-75.035-47.346-26.454 51.059-56.7 100.37-90.983 146.647-34.483 47.064-70.927 93.375-113.517 133.353zm19-426.333c3.42 8.47 4.96 18.073 8 26.75h258.6c21.484-.865 43.1 1.064 64.534-.597 6.767-1.137 14.044-4.7 16.677-11.523 2.61-5.728-7.89-10.485-10.376-14.05-31.424-28.758-63.912-57.062-96.935-83.83-13.268 16.993-25.307 34.996-38.202 52.28-4.708 6.591-9.517 13.103-14.217 19.688-2.035 2.86-3.958 5.851-6.34 8.445-4.936 4.364-14.71 1.672-21.855 2.587H1070zM1210 1011h63c-2.643-67.211.863-136.288-.5-203-20.05 4.754-42.315 3.562-62.5 8zm0 268c15.79-2.271 31.096-7.296 46.756-10.248 14.893-4.339 30.586-6.248 45.244-11.252-18.716-71.413-24.415-145.973-28-219.5h-32.4c-10.447 1.074-23.083-1.408-31.6 1zm181 689.5c2.995 9.002 5.175 18.43 8 27.5h261v383.4c-.451 7.994 2.108 18.974-7.95 24.739-14.21 5.421-32.82 1.08-46.271 1.649-48.25-3.091-96.531-4.74-144.779-7.788v12c38.06 5.75 77.247 15.21 108.332 39.246 15.755 11.204 27.408 27.278 32.895 45.943 7.098 19.243 8.157 39.759 10.773 59.811 51.716-1.865 107.247-9.804 149.186-42.83 9.085-8.58 17.604-18.018 23.71-28.997 19.505-36.766 18.243-79.613 18.104-119.725V1996h85.2c14.221-.05 28.43.06 42.639-.033 11.349-.406 25.358-1.05 31.161-15.467-39.108-36.874-82.149-69.282-123.5-103.5-22.805 29.042-43.89 59.49-67.081 88.23-2.495 3.11-6.683 2.805-10.408 2.77H1391zm63-197.5h450c8.207.176 17.455-.448 23.84-6.426 2.546-2.196 4.893-5.12 4.68-8.652-7.858-10.244-19.84-16.978-28.732-26.294-29.524-24.283-58.186-50.238-89.116-72.628-18.721 24.548-37.464 49.198-56.052 73.865-4.275 3.888-6.477 11.343-11.476 12.69-99.966 1.269-200.134-.23-300.144.445 1.032 9.249 5.44 17.852 7 27m106-447.734c5.298 30.794 6.279 62.405 5.965 93.634-.224 11.687-1.253 23.3-2.55 34.895-.58 9.304-5.467 21.312 1.232 27.289 5.42 5.902 11.892 10.975 19.402 13.912 14.391 5.552 31.39.48 41.32-10.866 16.464-15.136 19.485-43.546 15.931-62.317-3.594-21.111-13.634-40.92-26.53-57.772-12.146-15.16-25.533-30.14-41.802-41.005-3.059-1.633-9.56 2.328-12.968 1.964zM1621 901h153v-86h-153zm0 115h153v-87h-153zm0 110h172.8c4.36-.044 8.745.204 13.054-.478 5.195-3.37 9.236-10.449 13.148-14.525 12.145-14.705 23.82-29.826 35.998-44.497-6.666.37-11.893 4.381-18.639 5.25-10.223 2.832-20.638 5.12-31.232 5.906-10.687.692-21.43.11-32.129.344v-35h-153zm4 180.531c5.971 9.37 13.392 18.149 18.324 28.277 9.295 17.994 17.85 36.616 22.495 56.43 1.638 7.262 3.04 14.585 3.7 21.996.826 6.746-.992 15.949 4.413 19.67 8.872 7.148 22.598 12.2 33.121 10.393 17.383-2.766 30.412-17.81 33.954-34.548 3.448-17.873-2.484-36.452-13.11-50.777-21.384-29.309-54.989-46.28-89.094-56.101-5.032-1.284-9.503 2.236-13.803 4.129z" style="fill:#000;fill-rule:evenodd;stroke:none"/></svg>