<svg xmlns="http://www.w3.org/2000/svg" width="3000" height="3000"><path d="M364 2760.5v1.5h2272v-1.5c-68.931-409.09-136.257-818.54-204.874-1227.691-51.076-306.848-102.33-613.661-153.4-920.497-4.868-28.824-9.564-57.688-14.431-86.508-1.116-7.008-2.365-13.985-3.488-20.978-1.2-6.774-.246-15.245-9.425-16.859-109.868-36.632-219.702-73.24-329.563-109.867-95.996-32.013-192.02-63.992-288-96-41.993-13.978-83.98-28.011-125.966-41.994-5.663-2.605-10.407-1.693-15.513.621-156.173 52.06-312.354 104.114-468.521 156.173-58.68 19.531-117.334 39.097-175.992 58.657-25.668 8.506-51.298 17.139-76.962 25.643-6.176 2.075-12.369 4.11-18.537 6.195-3.02 1.124-6.483 1.813-8.8 4.255-62.934 375.423-125.132 751.075-187.889 1126.544C490.857 1998.664 428.048 2380.37 364 2760.5m652-485.986c15.954 24.897 33.783 48.953 50.345 73.514 16.956 24.182 33.118 49.3 50.655 72.972 6.278-3.788 11.366-9.495 14.773-15.947 3.97-5.754 3.096-14.91 6.83-19.95 33.669-38.984 65.715-79.371 97.153-120.158 31.092-40.384 58.735-83.56 88.244-124.945h2v234c-.357 19.558.437 39.15-.24 58.694-.418 6.47-3.919 13.195-10.495 14.96-11.558 2.683-25.76.628-36.487.836-36.572-2.235-73.264-2.476-109.778-5.49.488 3.548-1.038 9.832 2.17 11.597 3.953.838 8 1.876 12.01 2.528 31.565 6.301 63.882 19.701 83.055 47.221 20.529 27.807 19.17 64.45 25.265 96.654 28.073-4.128 57.202-6.95 84.596-15.588 23.103-7.107 45.515-18.679 61.719-36.98 14.72-16.006 20.31-37.715 24.159-58.503 5.804-41.053 3.59-82.649 4.026-123.949V1799.39c.203-5.005-.29-10.921.26-15.485.043-3.925 5.053-4.42 8.092-5.323 9.773-3.14 18.786-8.382 25.648-16.081-20.97-15.77-41.245-32.477-62.03-48.495-10.274-8.126-20.663-16.092-30.945-24.19-9.605-5.928-19.564-17.42-30.681-22.815-18.84 20.924-36.92 42.55-55.941 63.305-3.742 5.524-9.214 5-14.888 4.695H1037c2.245 9.07 6.563 17.71 8 27h281v364c-52.71 24.969-104.353 52.756-157.366 77.177C1117.96 2227.154 1067.46 2251.75 1016 2274zM1097 1321c11.503-2.167 20.075-12.604 24.007-22.988 3.342-8.382 11.16-13.708 16.61-20.527 17.735-19.211 34.946-39.054 52.383-58.485h2v111h9c-2.727 29.017-18.28 54.923-37.523 75.95-17 17.956-36.265 34.1-58.805 44.726-10.104 4.47-20.67 7.967-30.17 13.719-16.82 10.743-32.87 25.399-39.41 44.878-5.764 17.047-1.675 39.382 7.057 53.115 16.093 27.855 52.375 39 82.533 31.924 23.071-5.549 43.09-19.401 59.05-36.545 25.001-24.426 39.594-57.792 45-91.904 7.05-37.518 2.456-76.086-7.4-112.59-1.717-7.584-4.6-14.879-6.236-22.47L1215 1330c29.117-.478 57.154-10.938 82.544-24.436 6.125-3.546 12.3-7.007 17.636-11.706 6.001-4.293 6.327-9.02 5.82-14.948V953c26.564.75 53.205-1.33 78.853-8.717 12.639-3.362 25.192-7.122 37.19-12.374 5.043-2.513 11.065-4.373 14.654-9.03 2.255-5.29.786-13.282 1.303-19.879h92c.861 9.47-1.187 21.325.978 29.775 8.575 2.935 20.67-.048 29.572.63 35.664-.08 70.073-11.666 103.45-22.405v287.4c-.147 22.101-.86 44.51 4.222 66.225 2.753 17.143 13.229 32.927 29.565 39.747 31.222 12.984 66.022 8.907 98.813 9.628 25.514.2 51.156.813 76.453-3.207 29.93-4.873 74.863-13.833 84.618-52.39 4.018-16.458 1.66-35.764-9.975-48.8-5.77-5.869-12.51-10.488-19.648-14.505-4.474-1.965-4.335-7.77-4.453-12.03-.49-4.575-.589-9.144-1.057-13.71-1.87-13.966-1.594-30.591-3.538-43.358h-8c-7.451 19.037-17.984 40.9-27.925 56.824-4.257 6.894-10.477 12.903-18.829 14.07-15.97 2.387-32.325.193-48.38 1.106-5.911-.222-12.052.532-17.826-1.081-9.533-3.136-6.564-19.636-7.04-26.773V1075c28.403-4.373 56.867-9.11 84.75-16.179 7.15-1.898 14.386-3.466 21.457-5.615 4.997-1.038 10.66-3.216 15.306-3.799 7.659-.053 14.536 5.099 22.287 5.306 7.788 1.086 16.383-.471 22.2-6.213-3.018-5.591-9.295-9.055-13.102-14.102-15.979-15.736-30.531-32.774-46.5-48.5-8.216-7.493-15.478-15.867-23-24l-12-12c-2.997-3.802-9.207-7.907-10.398-11.898h-2c-7.548 14.792-18.088 28.404-27.066 42.423-4.9 7.066-9.88 14.096-15.001 20.999a9590 9590 0 0 0-7.767 10.356c-2.461 3.29-5.322 7.966-9.166 8.222V919c14.064-.66 28.055-9.623 31-24-49.984-3.97-99.985-8.398-150-12V776h213c11.768-.257 23.528.338 35.28-.242 8.424-.48 20.193-3.619 23.72-14.446-41.953-35.54-86.048-68.672-129.5-102.312-12.61 14.696-23.89 30.537-36.258 45.432-11.202 15.44-24.781 29.771-35.242 45.568h-71v-82c5.103-1.24 10.498-2.02 15.081-4.775 5.184-2.783 6.586-7.228 8.919-11.725-5.549-2.333-14.124-1.371-21.099-2.507-48.326-3.58-96.532-9.087-144.901-11.993v113h-92v-82c6.451-1.464 13.619-2.828 18.333-7.905 1.752-2.257 4.93-5.801 3.916-8.48-1.838-2.5-7.281-1.053-9.747-1.903-5.434-.392-10.862-.87-16.26-1.533-9.782-.56-19.498-1.607-29.25-2.388C1384.64 643.26 1349.398 638.8 1314 637v113c-90.264.76-180.81-.926-271 .5 2.615 7.735 5.843 18.83 7 25.5h264v114c-40.639-3.552-81.38-6.279-122-10v126c-47.264.76-94.81-.926-142 .5 2.79 4.721 2.907 10.648 5.198 15.61 1.486 4.06 2.452 10.41 6.875 10.645 35.596.698 71.275-.127 106.884.245H1192v103.8c-.176 4.156.271 8.378-.286 12.51-.056 3.648-4.966 4.21-7.833 4.804-51.812 11.157-103.655 22.95-155.881 31.886 3.41 12.197 12.12 22.569 16.695 34.367 17.783 33.303 35.11 67.078 52.305 100.633m-15 538.328c12.862 16 25.912 32.287 34.31 51.301 16.908 34.847 27.001 72.662 31.282 111.106.968 7.436 1.766 14.89 2.101 22.377.188 3.584.242 7.178.781 10.712 14.602 19.281 40.158 34.962 65.258 31.159 38.422-3.34 68.017-39.26 71.622-76.11 4.177-38.787-18.747-76.076-49.041-98.21-42.191-32.936-95.278-47.66-147.008-57.167-4.408-.812-6.185 2.534-9.305 4.504zM1312 1339c9.013 35.63 16.223 71.865 18.931 108.621 1.651 29.231 1.653 58.61-1.361 87.727-.221 5.13-2.545 11.086-.52 15.561 11.021 13.924 29.064 26.172 44.692 30.76 27.807 8.56 58.457-4.21 74.543-27.717 8.173-11.327 13.315-24.578 15.667-38.282 2.436-14.747.39-29.82-3.095-44.187-8.773-30.962-32.456-62.244-54.806-81.012-24.245-21.641-52.444-38.464-81.719-52.295-4.54-2.85-8.025-.428-12.332.824m56-36c26.986.594 54.38-2.107 79.642-12.37 11.084-4.267 24.334-10.518 31.8-18.761 4.15-5.21 1.81-14.135 2.558-20.101V1231h41v58c17.728.386 35.68.705 52.964-3.998 12.437-3.077 24.771-6.628 36.875-10.813 8.135-3.249 18.222-6.355 24.838-11.076 5.32-4.295 2.434-14.647 3.323-21.809V1047.55c.246-3.1-.423-7.023 1.017-9.372 6.713-4.186 19.27-5.148 22.983-12.678-16.221-12.723-33.29-24.413-49.517-37.14-16.958-11.583-32.746-25.333-49.983-36.36l-39.37 39.37c-4.693 4.723-9.459 11.594-17.538 10.63-6.948-.056-13.886.069-20.83-.04-10.731-1.292-20.184-7.925-30.471-10.84-29.921-11.231-59.305-24.158-89.291-35.12zm85-426h92V776h-92zm22 1390.418c35.094 47.281 69.047 95.565 104.5 142.582 5.503-5.012 11.301-10.207 14.023-17.378 3.167-6.117 3.553-15.754 6.63-20.436 32.218-40.287 64.641-80.416 94.549-122.465 28.272-41.089 57.991-81.82 83.298-124.721h3v242.4c-.432 20.137.537 40.311-.315 60.432-.534 5.824-.882 13.897-7.366 18.175-5.547 3.354-12.449 2.773-18.63 2.993-22.652-.123-45.268-1.631-67.887-2.51-21.916-1.445-43.915-1.735-65.802-3.49.56 3.326-1.075 9.306 2.374 10.594 3.642 1.3 7.516 1.825 11.275 2.63 16.833 3.889 33.687 8.652 48.85 17.168 20.577 12.432 40.577 33.998 48.513 54.788 8.782 24.988 10.02 51.861 13.488 77.82 29.33-4.225 60.044-6.299 88.556-15.892 23.319-6.825 45.168-18.721 62.055-36.308 14.473-15.988 22.073-36.55 25.339-57.64 4.145-20.248 5.047-40.888 4.55-61.492V1781c11.942-3.272 26.034-7.183 33-18.5-41.214-33.609-84.242-64.974-125.5-98.5-18.067 20.95-36.726 41.405-55.046 62.132-3.099 3.493-6.122 8.994-12.345 8.828-88.712.114-177.407-.02-266.109.04 1.355 9.326 5.84 17.89 8 27h273v348c-49.999 25.394-98.702 54.03-148.88 79.244-13.14 7.113-26.761 13.294-39.994 20.207-38.112 20.975-78.517 37.659-117.126 57.549zM1482 1204h41v-175h-41zm8 136.563c23.636 31.95 44.266 66.527 59.854 103.213 12.51 29.299 22.154 59.758 27.62 91.162 1.315 5.907 1.737 11.954 2.502 17.928.58 5.894 6.186 8.66 10.052 11.48 16.525 12.089 37.295 19.22 57.858 15.902 30.578-4.95 53.306-31.723 58.62-61.346 5.913-30.887-5.2-63.208-24.401-87.427-21.104-27.377-50.883-46.628-81.471-61.652-32.406-15.125-67.138-25.372-102.153-32.372-3.098-.361-5.509 1.91-8.481 2.549zm32 522.062c39.804 36.254 63.795 86.506 76.929 138.05 2.721 10.463 5.191 20.982 7.023 31.627 1.097 5.01 1.587 10.133 2.312 15.194.414 5.346 3.845 7.801 7.467 10.754 12.974 11.726 29.905 20.383 47.647 20.775 30.927 2.388 60.042-19.606 71.773-47.358 10.218-22.364 11.513-48.977 2.091-71.93-13.33-31.769-40.797-54.948-71.268-69.456-31.403-15.933-66.006-24.556-100.741-29.178-12.639-2.066-25.292-3.862-38.115-4.066-.708-.022-1.42-.028-2.118-.037-.215 2.024-2.06 3.685-3 5.625m184-530.25c34.844 41.08 65.287 86.036 90.674 133.553 9.859 18.421 18.484 37.552 26.615 56.784 7.62 17.024 11.781 35.274 17.979 52.754 23.624 21.214 62.134 28.159 90.208 11.522 20.875-12.487 33.918-35.485 36.421-59.389 4.512-36.363-14.128-71.95-37.067-98.583-23.29-26.149-53.739-45.22-84.666-60.944-20.913-10.297-43.076-17.942-65.36-24.639-11.38-3.411-22.89-6.338-34.476-8.899-11.035-1.661-23.933-6.56-34.275-6.065-2.119.681-4.08 2.93-6.053 3.531z" style="fill:#fedda9;fill-rule:evenodd;stroke:none"/><path d="M1013 2273.375c17.512 24.721 34.244 50.14 51.788 74.859 17.276 24.865 34.003 50.24 51.712 74.766 6.02-3.946 11.777-8.613 15.228-15.1 4.357-5.832 4.35-14.615 6.813-20.457 33.819-39.376 66.3-79.952 97.914-121.11 30.687-40.824 59.363-83.113 88.045-125.333 1.426 77.471-.26 155.447.5 233.014-.552 19.591.679 39.244-.38 58.8-2.269 17.678-18.731 15.257-31.76 15.168-41.61-2.063-83.297-3.201-124.86-5.982.02 2.593-.028 5.202.027 7.79.174 1.725.303 4.38 1.374 5.406 4.77 1.637 10.33 2.214 15.308 3.506 31.036 6.438 62.552 20.337 81.173 47.5 10.048 13.366 14.908 29.615 17.413 45.893 3.24 16.49 4.71 33.249 6.705 49.905 27.689-3.79 55.857-5.986 82.723-14.43 18.883-5.174 37.202-13.57 52.802-25.465 10.832-8.553 21.75-21.544 26.711-33.243 18.24-45.25 14.358-95.128 14.764-142.696v-589.374c.722-4.8-1.16-11.361 1.335-14.92 12.425-3.743 25.093-8.95 33.665-19.372-42.054-32.045-82.829-66.44-125.5-97.5-19.299 20.424-36.859 42.383-55.924 63.005-2.13 1.718-3.426 5.05-5.865 5.532-92.824 1.32-185.86-.24-278.711.463 1.024 9.997 6.977 18.97 8 29h281v362c-52.964 25.29-105.08 52.905-158.333 77.675-51.311 22.995-101.183 50.136-153.667 70.325zm13-1087.125c10.938 23.145 23.524 45.836 35.396 68.567 12.342 22.53 22.759 46.245 36.104 68.183 10.757-3.783 20.287-11.85 24.063-22.928 3.197-8.681 10.975-14.31 16.703-21.162 17.304-19.717 35.582-38.636 52.234-58.91 1.426 36.805-.26 74.1.5 111h9c-3.914 27.764-17.932 52.88-36.83 73.19-16.32 17.73-35.19 33.136-56.737 44.095-9.594 4.757-19.886 7.976-29.275 13.15-16.697 8.753-33.278 24.977-40.692 40.684-14.613 32.145 2.368 75.192 35.287 88.144 24.89 11.24 54.537 8.687 78.23-4.305 33.043-17.402 61.14-54.384 71.398-86.62 14.37-39.389 14.37-82.743 6.51-123.425-2.498-14.006-6.588-27.614-10.554-41.242-.181-1.182-.66-2.212-1.337-3.171 20.916-1.567 41.81-5.705 61.003-14.56 13.488-6.043 27.271-12.291 38.775-21.776 6.528-4.444 6.736-9.57 6.222-15.854V954c26.564.75 53.205-1.33 78.853-8.717 12.639-3.362 25.192-7.122 37.19-12.374 5.043-2.513 11.065-4.373 14.654-9.03 2.255-5.29.786-13.282 1.303-19.879h90c.861 9.47-1.187 21.325.977 29.775 8.644 2.936 20.827.027 29.785.697 35.364-.883 70.408-9.76 103.238-22.472v288c-.148 22.086-.816 44.486 4.346 66.166 2.78 17.118 13.524 32.64 29.773 39.369 31.358 12.808 66.21 8.775 99.081 9.465 25.37.21 50.85.757 76.027-2.955 17.646-2.394 35.265-6.175 51.51-13.733 12.072-5.127 22.619-14.117 29.523-25.255 9.923-16.164 9.512-41.05 1.24-56.037-4.152-8.378-13.19-15.088-20.106-19.73-3.497-2.04-9.214-4.393-9.341-9.34-.43-5.161-.855-10.308-1.142-15.48-2.076-15.288-1.918-33.476-3.911-47.47h-10c-7.383 18.903-17.907 40.56-27.661 56.426-4.133 6.626-9.98 12.833-18.032 14.233-15.681 2.717-31.838.412-47.641 1.341-5.732-.177-11.651.45-17.274-.954-9.774-2.738-7.059-19.23-7.392-26.3V1076c28.814-4.409 57.633-9.226 85.893-16.476 7.324-1.707 14.579-3.685 21.807-5.697 4.855-.936 10.391-3.445 14.997-3.279 14.633 4.155 35.015 11.37 44.303-3.048-9.398-9.05-18.405-18.423-27.107-28.101A9631 9631 0 0 1 1866 936c-19.394 27.461-36.284 57.442-58.5 83-1.426-32.811.26-66.091-.5-99 12.677-.744 29.664-9.024 31-26-49.984-3.97-99.985-8.398-150-12V777h238.8c8.964.056 18.723-.084 26.348-5.504 2.835-1.95 5.727-5.37 6.173-8.597 1.16-3.344-3.937-6.16-5.733-8.047-40.347-33.854-82.737-65.275-124.088-97.852-13.145 14.562-24.1 30.983-36.825 45.906-11.354 15.6-25.068 30.146-35.675 46.094h-69v-80c9.83-1.862 22.588-4.669 24-19-27.732-3.5-55.86-4.496-83.668-7.462-28.144-1.589-56.169-5.6-84.332-6.538v113h-90v-80c5.16-1.158 10.646-2.423 15.2-5.173 5.606-3.262 6.662-8.286 8.8-13.327-5.538-2.385-14.185-1.231-21.141-2.571-47.993-3.317-95.823-9.311-143.859-11.929v113h-271c1.076 9.593 6.098 18.395 7 28h264v112c-40.634-3.533-81.35-6.619-122-10v126h-142v1.5c1.971 5.674 3.544 11.481 5.398 17.19 1.653 3.969 2.122 9.875 6.675 10.065 14.285.696 28.645-.124 42.944.245H1191v103.8c.063 4.054.109 8.144-.52 12.123-1.353 3.035-7.164 2.414-9.639 3.654-51.29 12.12-103.401 21.379-154.841 32.423zm54 673.21c31.377 35.63 51.162 80.254 60.49 126.657 3.967 19.064 7.025 38.388 8.132 57.84.682 4.288-.234 9.178 1.328 12.838 8.86 11.236 23.194 21.019 34.928 26.515 25.82 10.756 55.662 1.54 75.551-16.361 13.924-13.32 23.837-31.08 26.97-50.2 5.645-29.62-5.4-61.255-24.687-83.706-18.783-22.478-44.28-38.451-70.497-50.748-33.044-13.427-67.787-24.03-103.171-29-3.278.074-6.503 3.483-9.044 6.166m230-520.96c11.278 40.218 18.625 81.866 20.643 123.63.269 16.874.698 33.811-.045 50.67-.648 7.185-1.182 14.379-2.026 21.53-.42 6.103-3.314 14.816.146 18.78 15.463 16.75 36.065 31.467 59.841 31.967 17.153 1.4 34.893-4.878 47.87-16.128 20.184-17.677 31.065-44.728 29.512-71.447-.717-26.189-11.126-51.067-26.339-72.02-29.242-40.515-72.38-68.904-117.2-89.484-4.456-1.839-8.469 1.78-12.402 2.002zm57-34.5c27.266.717 54.949-1.673 80.531-11.97 11.393-4.147 24.824-10.538 32.59-18.777 4.492-5.2 2.211-14.367 2.879-20.485V1232h39v58c18.025.336 36.24.814 53.855-3.74 12.649-3.053 25.177-6.657 37.477-10.894 8.304-3.278 18.575-6.502 25.345-11.253 5.402-4.441 2.352-15.069 3.323-22.408V1046.75c.226-2.668-.296-7.387 2.25-8.41 7.907-3.581 18.425-5.123 22.75-12.84-33.271-25.735-67.56-50.77-101.5-75.5l-39.733 39.733c-4.667 4.115-9.067 11.571-17.203 11.263-6.956-.11-13.935.153-20.885-.099-40.937-13.143-80.13-32.58-120.679-46.897zm87-428h90v-99h-90zm19 1390.668c34.402 48.809 71.087 96.5 105.5 145.332 5.926-3.883 12.057-9.976 14.926-15.917 3.875-6.186 4.208-15.124 6.522-21.051 31.962-40.925 65.321-80.873 95.12-123.454 29.232-41.1 57.659-82.882 84.432-125.578 1.426 80.474-.26 161.209.5 241.734-.522 20.093.66 40.246-.416 60.31-.456 5.684-1.264 13.345-7.688 17.238-5.322 3.06-12.849 2.539-18.206 2.718-44.573-1.211-89.161-3.622-133.69-6 .809 3.925-1.492 10.821 2.372 12.592 4.352 1.519 8.998 2.006 13.453 3.129 16.57 4.08 33.363 8.706 48.115 17.593 20.168 12.385 39.412 33.913 47.244 54.269 7.795 24.997 10.84 51.394 12.816 77.417 28.814-3.44 58.056-5.692 85.96-14.426 19.79-5.26 38.716-14 54.946-26.523 11.129-9.112 22.672-22.224 27.564-34.704 19.843-46.683 13.86-98.751 14.53-147.85V1782c6.617-1.566 13.166-3.772 19.31-6.705 6.307-2.81 10.969-7.956 15.69-12.795-32.662-24.622-64.652-50.533-97.175-75.41-6.162-4.726-12.245-9.55-18.301-14.404-5.43-3.732-12.306-12.479-17.016-6.02-18.64 20.137-36.182 41.25-54.645 61.535-1.5 2.127-3.48 3.79-5.602 5.24-90.327 1.595-180.884-.29-271.261.559 2.381 9.82 6.207 19.304 9 29h273v346c-50.126 25.508-99.007 54.126-149.28 79.496-52.269 26.345-104.61 52.988-157.72 77.504zM1483 1203h39v-173h-39zm5 137.344c27.085 36.473 50.342 76.192 66.627 118.737 6.384 16.83 12.28 33.915 16.497 51.435 2.194 8.036 3.629 16.226 5.147 24.398 1.99 6.956 1.686 15.659 3.519 21.982 17.51 19.96 47.764 28.788 73.284 23.492 19.51-4.394 36.286-17.85 45.463-35.573 14.987-27.487 13.078-62.242-.493-89.71-12.343-27.244-34.589-48.487-58.983-65-19.991-13.936-46.197-25.967-67.073-33.711-12.325-4.643-25.025-8.269-37.693-11.828-12.63-1.975-27.171-8.518-39.035-8.108-2.726.585-4.584 2.683-7.26 3.542zm32 522.031c16.058 15.632 31.652 32.15 42.358 52.117 20.794 34.233 32.957 73.072 41.377 111.928 1.662 7.656 2.708 15.381 3.727 23.124 1.282 5.847 8.649 10.625 13.86 15.021 21.122 16.443 50.799 21.066 75.336 9.269 16.518-7.758 31.616-24.122 38.546-39.245 13.427-27.382 12.386-61.27-2.843-87.733-13.973-24.758-36.587-43.59-62.025-55.73-42.043-22.363-98.218-32.614-141.388-35.16-1.297.124-2.426-.18-3.448-.966-1.9 2.456-3.49 5.042-5.5 7.375m184-529.875c39.495 44.93 72.041 95.68 99.177 148.865 10.393 20.836 19.918 42.205 27.22 64.344 3.784 9.75 6.173 19.943 9.416 29.845 26.809 26.26 76.593 30.186 104.648 3.442 21.75-20.224 28.548-52.002 23.68-80.352-7.886-42.15-37.084-77.112-70.855-101.507-34.173-25.18-73.28-42.743-114.013-54.229-12.146-3.788-24.536-6.814-36.939-9.604a269 269 0 0 0-18.56-4.061c-5.64-.816-13.76-3.784-18.065-1.163-1.768 1.38-4.615 2.907-5.709 4.42" style="fill:#000;fill-rule:evenodd;stroke:none"/></svg>