<svg xmlns="http://www.w3.org/2000/svg" width="3000" height="3000"><path d="M1054 1905h426v27c-36.3-3.912-72.713-6.938-109-11v17c-27.134-3.274-53.89-9.5-81-13-.835 19.432-1.685 38.914-4.548 58.183-2.29 19.254-7.044 38.008-11.452 56.817h-1.5c-4.858-4.998-10.88-8.611-16.846-12.062-6.128-2.687-14.108-8.015-19.654-8.938.508-7.826 5.39-16.002 7.085-22.85 1.95-6.84 3.966-13.653 5.77-20.516.725-2.897 1.583-5.8 3.104-8.386 4.53-2.841 10.773-2.718 15.541-5.367 4.241-1.935 8.763-5.346 11.341-8.755 1.9-2.992 5.005-7.785 3.164-10.92-29.12-6.854-59.53-11.384-89.005-17.206-4.835 48.778-10.758 98.001-25.5 145-1.411-23.2.245-46.604-.5-69.844v-38.314c.346-3.207-.6-7.666 1.306-9.942 4.914-2.388 11.246-3.263 14.965-7.885 1.604-1.797 2.975-4.339 3.632-6.444 2.459-6.942-4.115-7.138-8.74-6.959-35.036-3.766-70.14-6.772-105.163-10.612v601c12.05-.119 24.216.513 36.183-1.186 16.203-3.113 32.072-8.251 46.267-16.8 3.22-2.108 6.805-3.845 9.358-6.81 3.717-5.218 1.396-14.216 2.192-20.135V2456h204v53c28.057 1.11 56.86-1.766 81.963-15.548 5.51-3.4 13.556-7.578 14.7-13.486.962-22.691-.176-45.48.337-68.192V2129c37.607.76 75.478-.926 113 .5-13.89 49.753-30.27 99.242-49.697 147.223-4.828 11.877-9.334 23.909-14.903 35.459-.586 1.93-2.362 4.484-1.642 6.216 32.974 14.63 79.187 18.305 111.354 10.005 6.295-2.275 15.69-3.72 17.896-11.932 4.253-12.652 9.043-25.117 13.308-37.76 3.516-9.598 6.698-19.339 10.264-28.909 1.75-9.312 12.711-6.506 19.722-6.802H1761c-6.424 46.212-10.334 94.536-30.394 137.474-4.936 9.965-13.353 18.876-25.093 19.919-36.794 3.41-73.683-3.409-110.513-3.393v13c24.036 4.747 52.898 15.684 68.192 33.007 18.27 21.008 17.617 50.992 17.808 76.993 26.688.192 53.836-2.091 79.227-10.915 17.188-5.677 34.06-13.455 48.056-25.131 20.367-18.347 33.98-43.224 42.263-69.097 9.444-27.237 14.52-55.737 19.33-84.067 2.516-16.465 4.627-33.021 6.494-49.564.462-3.973.886-7.966 1.191-11.955-.538-9.47 7.803-9.236 14.128-10.45 6.23-1.43 12.362-3.66 17.611-7.42 2.324-1.467 5.413-4.379 5.203-6.817-2.32-5.686-8.423-7.957-12.56-12.276-16.618-13.611-33.381-27.07-49.951-40.72-12.96-9.504-24.268-21.388-37.787-30.102-4.982.08-9.427 6.762-14.074 9.883-15.572 14.475-30.61 29.87-47.17 43.166-24.002 1.326-48.213-.24-72.256.465H1680c7.49-28.915 19.722-56.71 26-86h201.6c15.439-.926 35.202 3.188 44.011-10.063 1.223-2.215 2.459-5.145 1.682-7.509-13.597-15.5-30.295-28.134-45.455-42.014-15.61-12.876-30.756-26.72-46.838-38.914l1.656-.5c12.072-.533 25.612 1.761 36.733-4.456 4.385-2.749 9.726-10.231 5.89-14.42-3.731-4.266-8.63-7.416-12.411-11.67-10.238-8.802-20.26-17.861-30.852-26.238-13.635-11.458-27.444-22.686-41.306-33.853-3.45-2.782-6.934-5.544-10.398-8.305-6.455-6.028-10.084 2.563-13.729 7.15-3.814 5.355-7.966 10.454-11.966 15.659-6.516 8.837-13.226 17.53-19.93 26.21-2.949 4.043-5.999 8-8.999 11.999-2.875 3.188-5.68 9.207-9.83 9.558-78.226 1.044-156.601-.19-234.858.366.19 7.73 3.98 16.296 5.5 23.13.818 5.358 6.792 5.175 10.487 4.87h13.178c101.504.76 203.457-.926 304.835.5-12.148 16.347-23.701 33.181-35.933 49.482-2.61 3.936-5.63 7.59-8.304 11.466-2.493 3.28-5.584 8.949-9.355 9.285-78.048.761-156.17-.138-234.232.267h-80.909c-2.578-.21-7.09.226-7.821-2.425-1.272-47.441.231-95.105-.446-142.575 3.617-.654 8.87-1.39 11.5-3 .852 5.676 7.236 5.337 11.1 4.898 16.445-.539 33.245-1.87 48.61-8.38 7.36-2.534 14.454-5.734 21.1-9.765 9.561-4.85 7.99-12.563 7.69-21.145v-32.328c.13-3.256-.467-8.966 3.516-8.932 3.427-.611 6.966-.2 10.417-.348 2.793.21 6.452-.34 8.805.945 2.496 4.04.447 10.614 1.262 15.015V1940c14.098.097 28.406.713 42.205-2.822 9.709-2.333 19.314-5.029 28.726-8.366 6.55-2.718 14.556-5.605 19.763-9.589 3.733-3.69 1.64-11.484 2.306-17.11V1730c7.842-1.198 14.885-4.985 22-8v232c24.986.888 50.471-1.54 73.304-12.686 5.466-2.487 10.595-5.605 15.4-9.198 4.544-2.76 5.55-7.096 5.29-11.725.016-14.47-.002-28.932.006-43.391h22v63c15.025.235 30.211.722 44.922-2.992 10.292-2.29 20.537-4.962 30.4-8.74 6.959-2.982 14.596-5.173 20.51-10.126 3.808-4.048 1.25-12.453 2.168-18.437V1730c6.065-1.284 12.218-2.921 17.623-6.076 4.688-3.108 12.203-6.41 12.377-11.924-19.973-12.664-38.138-29.138-57.774-42.545-7.24-5.316-14.287-10.879-21.423-16.324-3.153-2.291-6.174-4.84-9.512-6.861-3.043-2.794-7.362 2.44-9.266 4.205-9.551 10.355-19.16 20.635-29.289 30.452-3.443 3.635-6.928 9.478-11.618 9.841-9.66.855-18.402-4.893-27.255-7.822-12.99-5.317-25.946-10.688-39.008-15.814-12.7-3.846-26.586-12.842-38.855-14.132-.72 17.263.886 34.812-.5 52-17.96-12.922-35.55-26.466-53.575-39.312-6.859-4.957-13.463-10.26-20.412-15.085-7.623-7.064-12.413.435-17.036 6.347-9.566 8.977-18.29 18.715-27.21 28.283-7.199 9.001-17.362 5.701-26.27 1.585-13.95-5.595-27.757-11.551-41.718-17.106-13.24-4.403-27.803-12.752-40.279-15.712-.76 39.246.926 78.876-.5 118-13.192-13.57-27.666-25.73-41.711-38.372-7.535-6.228-14.677-12.877-22.1-19.224-7.646-5.038-13.352-13.497-21.689-17.404-14.896 18.628-27.966 39.022-42.5 58-1.426-27.462.26-55.433-.5-83 7.166-1.485 14.867-2.193 20.918-6.837 6.193-4.343 9.569-11.698 9.082-19.163-18.885-.239-37.616-3.593-56.5-4l-1.5-.5c15.722-5.055 31.514-10.107 46.302-17.567 13.166-4.68 24.502-15.81 39.09-14.933 26.116.158 52.452-2.286 77.772-8.903 17.394-4.638 33.867-12.58 48.54-22.975 11.021-8.31 21.323-17.604 30.27-28.169 7.837-6.062 18.567-7.453 26.848-12.88 27.528-13.22 54.23-28.977 76.49-50.073 16.096 6.94 35.268 16.536 46.534 28.378 13.407 13.48 5.93 33.516-2.555 45.228-6.162 10.2-14.626 27.677 1.46 36.223 11.406 5.363 26.73 6.011 38.027 5.946 21.52-.98 45.426-4.22 61.457-20.51 23.914-24.315 27.472-60.846 28.389-92.942.626-18.143.251-36.325.376-54.466-.668-16.836 2.008-37.773-4.085-52.512-6.317-14.656-21.233-22.488-35.387-27.521-15.506-5.782-32.02-9.075-48.528-9.824 4.361-14.074 10.105-27.814 13.785-42.132 1.995-7.402 4.221-14.768 5.401-22.365 2.316-6.812 1.924-17.09 4.314-22.503 8.955 8.97 21.123 13.616 33.5 15-2.247 13.98-2.21 29.786 7.097 41.463 8.32 11.946 23.257 15.565 36.857 14.535 12.628.274 24.53-6.027 33.816-14.15 9.635-7.869 17.104-18.667 20.876-30.497 3.601-13.097 1.608-27.625-6.033-38.785-5.795-9.576-18.222-21.101-19.378-30.833.335-33.393 2.608-67.266-3.458-100.34-5.732-29.841-19.412-59.364-42.818-79.393-4.957-3.971-10.142-7.674-15.874-10.454-2.753-1.58-5.942-2.607-8.215-4.92-1.608-6.604-.308-13.75-1.237-20.498-5.414-98.646-61.097-192.228-143.928-245.64-41.515-26.43-89.07-43.922-138.552-46.428-50.08-3.63-102.186 4.052-145.787 30.326-43.518 23.97-76.75 62.998-102.682 104.56-11.005 18.014-21.849 36.963-39.104 49.909-15.808 12.77-34.534 21.01-51.852 31.37-16.32 9.553-33.54 22.36-39.077 41.516-2.587 8.792-2.3 19.006 3.447 26.532 11.623 14.234 34.003 19.45 49.832 20.524a186.5 186.5 0 0 0 53.208-4.842c29.2-8.675 55.739-25.033 79.023-44.438 20.899-17.241 40.418-36.104 61.807-52.752 9.308-7.087 18.97-13.702 29.265-19.28 20.678-9.994 45.287-14.706 67.636-7.012 20.977 6.863 27.772 28.401 25.527 48.253-1.074 8.634-3.92 17.279-9.593 24.017-4.317 5.536-14.193 6.397-21.542 9.33-27.856 8.687-55.026 20.996-77.265 40.286-17.49 13.592-30.306 34.125-31.47 56.521.388 8.352-3.105 17.367-4.191 24.948-1.306 15.864.05 32.01 4.857 47.222 3.002 10.575 9.381 22.266 10.526 32.403.62 9.294-9.236 13.745-12.967 20.049-3.521 4.854-3.226 13.782-1.22 18.036 5.26 7.752 17.512 8.075 25.676 8.422 9.748.543 19.259-1.579 28.793-2.96-2.09 9.537-6.172 18.67-8.555 28.16-3.235 8.876-5.524 19.883-8.945 27.84-26.45-10.272-60.603-16.958-86.713-14.344-13.614 1.337-27.02 5.686-37.905 14.258-10.48 9.13-19.065 20.575-24.141 33.571-6.335 13.767-9.167 28.977-16.217 42.449-4.778 10.192-12.323 19.154-21.999 25.025-6.935 4.539-14.841 7.028-22.445 10.072-5.14 2.376-12.295 5.046-14.247 12.297-5.855 23.503 17.129 33.537 33.167 39.172-12.245 9.9-28.019 14.313-43.139 17.194-25.336 2.212-59.625-.946-81.223 25.344-13.354 17.454-14.397 42.031-8.968 62.642 3.796 15.279 11.627 29.64 23.122 40.458 5.87 3.944 5.622 9.59 6.68 15.62 3.827 20.081 16.541 37.71 33.694 48.649 18.11 11.362 39.602 16.45 60.73 17.971 7.022.526 14.064.745 21.104.622v221h-38v-147c11.584-2.563 27.906-7.342 27-25-42.873-2.535-85.734-7.316-128.5-11-2.028 2.7-1.272 7.433-1.5 11.182V1877h-49c.685 9.653 5.751 18.463 7 28m293-401c26.758-9.75 53.006-24.039 82.139-25.841 5.6.062 12.516-.773 17.481.86 13.051 5.524 3.239 19.25-4.566 22.864-3.715 2.433-7.707 4.286-11.805 5.961-3.503 1.27-8.848 4.39-11.725 1.706-5.916-4.678-11.506-10.958-19.541-11.897-7.12-1.402-12.485 8.16-14.175 12.86-2.402 5.491-3.352 11.41-4.457 17.243-.565 5.051-6.368 7.563-10.369 9.716-30.799 16.873-61.637 35.122-94.982 46.528-.106-5.738-3.776-11.81-7.172-15.568-3.425-3.912-9.339-8.656-15.23-3.62-7.058 5.15-11.46 14.948-14.054 22.217A34.6 34.6 0 0 0 1237 1596c-12.649 3.81-25.96 3.128-39 3-1.199-8.931-4.334-17.797-9.822-25.003-2.512-2.714-5.468-7.043-10.303-6.45-4.386.666-8.103 3.451-11.258 6.384-2.97 3.181-9.899 8.11-7.05 14.047 2.268 5.532 5.881 10.4 10.327 14.347 4.82 4.595 12.105 7.87 17.833 9.72 4.03 1.213 8.154 2.25 12.29 2.973 7.169 1.31 14.429 1.797 21.67 2.354 55.787 1.451 110.657-15.96 159.679-41.549 11.53-6.613 25.296-4.435 38.11-5.44 22.076-.978 44.421-3.38 65.367-10.843 14.951-4.859 27.775-14.016 39.348-24.37 8.695-7.401 14.12-19.083 25.388-23.048 31.77-13.239 62.91-29.939 87.421-54.622-8.474-8.745-14.996-20.012-15-32.5h37c1.139 10.124 16.296 14.756 22.862 17.74 22.634 8.043 51.602 10.021 72.995 4.963 11.58-3.043 23.177-7.003 33.044-13.996 8.264-5.818 19.628-14.825 17.602-27.68-2.431-9.282-11.593-14.584-20.069-17.36-28.518-9.24-58.946-7.953-88.434-6.667 2.109-9.571 8.347-17.882 11.431-27.163 14.765-33.294 26.556-68.4 29.08-105.011 2.184-37.361-1.86-74.67-5.511-111.826h38c-.256 17.75 2.87 36.335 12.549 51.605 10.83 15.137 32.723 18.636 48.537 9.133 9.06-5.888 12.632-16.662 13.939-26.838 1.298-11.374 1.202-22.903.292-34.287-2.385-20.016-7.541-40.26-17.754-57.802-10.316-19.212-27.381-36.568-49.563-40.811.163-78.876-28.485-158.402-84.138-215.202-26.586-27.325-58.734-49.63-94.496-63.238-38.62-14.958-80.933-19.762-122.033-14.98-32.367 2.71-63.835 14.134-90.82 32.09-19.722 13.266-36.295 30.737-50.83 49.409-20.954 26.767-34.792 60.378-60.414 83.154-12.288 12.522-27.3 22-42.544 30.41-8.18 3.756-15.996 8.183-23.898 12.44-6.518 4.256-17.782 8.357-18.827 15.917 15.857 6.144 33.459 3.921 49.666.985 28.848-6.953 53.874-24.435 76.255-43.267 19.886-16.81 39.144-34.375 59.696-50.377 18.327-13.076 37.932-25.345 59.834-31.437 19.778-5.554 44.166-5.619 62.538-2.262 17.53 2.73 33.803 12.228 44.939 25.906 20.244 24.424 21.002 65.786 10.81 91.615-4.37 10.574-10.877 20.185-19.362 27.905-7.263 7.511-18.16 8.217-27.547 11.488-17.008 5.346-33.807 11.659-49.106 20.95-11.4 6.114-21.417 14.506-29.76 24.337-5.569 6.9-11.524 18.509-5.045 28.696 8.114 12.02 25.445 18.698 38.216 19.414 15.869 1.045 31.2-4.077 46.866-4.953-2.931 20.045-13.126 38.445-17.605 58.121-11.7 35.498-23.02 71.109-34.792 106.577-9.697 31.462-20.802 62.451-30.33 93.962-1.165 3.407-2.164 6.89-3.703 10.132-1.56 3.928-6.176-1.028-8.031-2.031-10.89-8.04-25.365-15.743-37.743-17.872-13.162-2.906-26.748-.143-37.556 7.962-9.426 6.563-18.863 16.872-24.11 25.94-5.058 10.424-8.004 21.827-8.803 33.354-.308 5.335.609 11.102-5.325 14.85-30.004 25.735-61.981 52.69-101.629 61.67-16.154 4.608-33.238 2.184-49.588 4.948-12.073 2.256-25.741 9.914-23.76 26.686.412 12.487 5.945 24.308 12.806 34.428 3.06 3.993 6.144 9.29 10.787 10.8 19.586 1.795 42.475-3.832 60.094-6.295 29.182-5.657 57.62-14.619 85.287-25.369 8.78-4.803 11.136 5.238 16.52 9.752 7.555 6.533 20.166 12.097 27.532-.048 6.426-8.755 8.391-21.941 8.949-31.567m-197.894 8.242c-.48 8.328 5.651 12.761 12.744 12.426 8.25.291 12.95-6.094 11.986-13.253.18-8.285-6.36-12.249-13.524-11.254-7.474-.192-11.72 5.125-11.206 12.081M1167 2151h204c-.624-9.944.79-20.136-.5-30-14.095 11.644-35.943 8.02-46.8-6.337-.158-18.653.378-38.674-6.2-56.663-12.78 22.807-27.198 45.353-46.59 63.266-5.233 4.444-9.948 9.48-15.566 13.483-3.568 3.33-7.707 6.793-12.797 2.28-2.873-2.253-6.573-3.791-8.835-6.717-.075-5.105 5.437-10.266 7.428-14.672 2.669-4.004 5.319-10.065 7.86-13.14-3.942-3.335-10.236-5.355-12.94-9.543-2.883-6.71-1.365-17.619-3.896-26.041-1.465-7.86-3.725-17.194-6.664-23.916-8.82 18.585-17.304 37.543-29.17 54.487-5.726 8.542-12.172 16.577-18.602 24.586-3.175 3.927-6.874 7.648-10.29 11.294-.519 5.846-.503 11.751-.438 17.633m.5 194c11.607-48.116 17.507-97.554 18.5-147 22.205 2.263 44.059 7.604 66.186 10.532 5.613.875 11.185 1.929 16.785 2.814 2.131.359 4.72.583 6.516 1.438 4.454 5.92-4.958 15.596-9.018 18.498-5.912 4.37-13.44 5.532-20.469 6.718-4.696 17.827-8.562 36.232-15 53.5 6.709 3.592 13.87 6.626 20.447 10.498 3.164 2.084 6.382 4.124 9.414 6.395 3.04 1.838 6.315 5.768 9.139 6.607 7.6-38.52 14.77-77.493 14-117 29.123 3.498 58.03 9.43 87 14v-33h-180c-7.929.923-17.575-1.256-24 1 .76 54.973-.926 110.075.5 165m203.5 83v-26c-8.76 3.826-18.262 7.011-27.924 3.71-6.171-1.74-12.733-6.347-16.403-10.913-3.035-3.99-.857-11.399-1.702-16.832-.701-16.578-4.513-32.97-8.471-48.965-11.957 25.805-26.779 50.698-46.478 71.472-5.197 5.348-10.474 10.62-16.211 15.366-2.147 1.411-4.127 4.6-6.489 4.669-4.469-.467-8.701-4.207-11.982-6.399-6.317-4.292 2.694-13.592 4.262-18.31 3.786-6.108 5.911-13.095 9.398-19.298-3.797-1.192-7.867-1.784-11.259-4.045-3.522-1.343-6.82-5.582-9.741-6.455.084-7.777-.453-15.544-1.884-23.197-1.594-6.437-2.393-16.157-5.616-20.803-10.392 29.74-24.867 58.468-44.253 83.427-4.678 5.41-11.25 11.497-8.758 20.438 1.155 2.896 6.69 1.615 8.891 2.135H1371m-165.984-910.115c-.693 8.636 5.88 13.332 13.282 12.782 3.915.387 6.175-2.039 9.334-3.006 1.505-3.75 3.047-6.656 2.352-10.65.531-9.346-6.31-12.546-13.603-11.862-7.888-.102-12.097 5.61-11.365 12.736M1370.5 2329c1.402-17.084-.235-34.667.5-51.846-.716-16.957.882-34.32-.5-51.154-6.579 6.947-16.135 10.25-25.5 11-3.865 18.582-8.695 37.365-14.528 55.31-.255 4.355 7.022 6.316 9.4 8.592 11.285 7.456 23.24 18.142 30.628 28.098m0-273 .5-1.625V1959c-5.4 1.518-10.415 4.435-16.184 4.665-5.502.317-6.714 4.404-7.007 8.862-2.69 12.274-6.276 24.31-9.932 36.308-.87 2.578-1.686 5.174-2.685 7.693-.492 1.973-1.82 4.4-1.613 5.954 12.802 10.37 28.163 18.924 36.921 33.518m-19.5-179h9c15.626-23.828 35.557-45.48 52.174-68.779 4.823-7.044 12.812 3.717 16.834 6.192 16.866 13.806 34.083 27.255 50.492 41.587 1.353-11.66-.187-23.765.5-35.523-.521-11.458.688-25.022-.5-35.477-6.828 9.081-20.304 6.612-29.115 7H1351zm77.273-458.077c-.317 17.508 15.376 32.275 32.864 29.89 16.553-.944 28.035-17.43 25.75-33.158-1.646-17.86-17.529-27.45-33.086-25.362-14.47 1.298-25.11 14.53-25.528 28.63M1462 785c.796 5.9 7.15 11.865 10.279 17.906 1.915 2.441 3.856 6.887 6.982 6.594 3.972-.645 5.878-3.336 9.433-3.97 8.259-3.85 18.068-3.094 25.875 1.382 2.698 1.469 5.314 3.108 7.764 4.947 2.188 1.159 5.163 4.667 7.538 3.164 4.003-3.052 7.367-6.904 11-10.393 2.066-2.554 6.74-5.72 6.63-8.792-.67-4.91-8.738-8.583-12.038-11.232a80 80 0 0 0-15.113-7.33c-9.442-3.557-21.59-4.143-30.667-2.526-10.12.851-18.635 6.557-27.683 10.25m15 547c9.111-1.398 18.53-8.091 27-9-.533-11.559-7.452-23.37 1.91-36.001 2.308-4.027 5.684-7.272 9.164-10.27 7.742-4.993-2.417-13.776-4.646-18.856-2.38-3.946-5.764-11.185-11.38-6.603-13.806 9.828-24.652 24.828-26.129 42.212-1.955 9.836-.189 21.857 1.877 30.664.52 2.595 1.719 5.494 2.204 7.854m50-152c4.966-.091 9.676-2.038 14.27-3.722 4.368-1.96 10.113-3.175 13.73-5.778-1.109-6.237-4.139-12.211-3.774-18.738.327-10.588 6.522-20.27 14.696-26.542 4.387-3.254 2.579-6.641-.17-10.122-3.421-5.19-7.47-12.735-11.146-16.357-4.496-.909-9.642 5.596-12.708 7.861-11.56 10.157-18.616 24.542-19.159 39.923-1.714 8.977 1.218 21.411 2.847 28.557.469 1.645 1.039 3.27 1.414 4.918m41 669h24v-130h-24zm1.18-842.017c.354 10.95 2.42 21.64 7.087 31.461 1.374 2.284 2.41 5.615 4.432 6.85 6.598-.635 13.797-7.282 19.78-9.921 6.632-3.204 3.081-8.245 1.026-13.397-1.807-5.228-3.89-10.724-2.897-16.358 1.065-7.068 4.433-13.747 9.263-18.99 6.227-5.74-1.214-12.49-5.473-16.73-2.13-2.083-4.206-4.213-6.12-6.495-4.367-6.062-8.65-.907-11.163 2.97-10.644 10.833-15.35 25.683-15.935 40.61M1586 1372c7.62-.13 14.457-4.371 21.637-6.384 9.995-2.477 3.235-12.357 3.215-19.123-1.415-12.662 5.383-21.326 13.775-28.452 5.626-4.305 1.39-9.63-1.256-13.463-2.465-4.642-7.11-10.373-8.371-14.578-4.447.065-7.685 3.494-11.002 6.002-9.667 7.616-16.449 18.42-19.872 30.121-4.556 15.144-1.67 31.006 1.874 45.877m49-473c9.618 1.282 19.27 2.989 29 3 .592-16.264-.049-33.59-9.836-47.527-8.05-12.722-23.693-23.563-37.164-26.473-1.638 6.682-4.53 13.048-6.382 19.675-.788 2.14-1.341 4.257-1.145 6.489.837 4.02 8.965 4.792 11.137 7.912 13.774 8.975 15.122 23.159 14.39 36.924m1 322c9.876-.606 18.515-6.844 28-9-.634-8.414-5.776-17.793-1.823-27.947 2.603-7.031 9.054-16.589 16.823-20.053-.921-5.805-6.985-11.86-9.918-18.003-1.649-2.557-3.835-7.076-6.926-6.38-3.123.69-6.032 3.258-8.206 5.095-8.027 6.896-14.607 15.452-18.285 25.446-6.653 16.565-3.218 34.22.335 50.842m38.128-182.243c.18 10.878 2.396 21.376 6.863 31.044.96 2.487 2.367 4.713 3.878 6.877 2.844 2.525 7.749-2.479 10.228-3.232 3.32-1.863 6.474-4.003 9.797-5.848 7.127-2.917 3.978-8.727 1.67-13.255-1.947-5.072-3.823-11.518-3.118-16.548 1.114-6.7 3.825-13.275 8.53-18.249 7.354-6.37.84-12.045-4.232-17.27-3.907-2.833-8.02-11.086-12.574-9.317-13.588 11.118-20.26 28.485-21.042 45.798M1801 1849h22v-130h-22z" style="fill:#fff;fill-rule:evenodd;stroke:none"/><path d="M449 2668h2102c-110.242-665.144-221.837-1330.12-332.532-1995.186-3.476-20.835-6.96-41.682-10.42-62.51-1.682-10.253-3.434-20.498-5.126-30.74-1.284-4.301-.763-13.077-5.037-14.575-157.034-52.902-314.464-104.735-471.586-157.384-59.003-19.668-117.989-39.359-177-59-12.991-4.38-26.002-8.647-38.997-13.002-3.112-1.025-6.191-2.224-9.42-2.795-5.85.042-13.257 4.126-19.018 5.393-97.504 32.546-195.061 65-292.567 97.54-73.178 24.36-146.325 48.77-219.478 73.159-54.841 18.294-109.718 36.516-164.531 54.86-6.415 1.276-7.163 6.488-7.57 12-26.516 158.994-52.99 317.976-79.524 476.964A2145928 2145928 0 0 0 449 2668m599-789.5c2.08 8.514 5.272 16.897 7 25.5h426v29c-36.295-3.579-72.8-6.684-109-11-.549 5.764.716 12.796-.5 18-26.369-5.795-53.954-8.489-80.5-14-.892 19.637-1.664 39.322-4.651 58.785-1.737 9.775-2.816 19.707-5.17 29.37-.979 4.87-2.107 9.699-3.342 14.498-1.471 4.089-1.86 10.89-4.837 13.347-11.177-10.499-25.41-16.878-39-23.5 5.646-15.499 11.013-31.136 14.799-47.223 1.627-8.138 13.1-7.67 19.053-11.039 6.859-3.307 12.135-9.163 14.148-16.55-2.252-1.999-6.522-1.813-9.818-2.731-25.98-5.406-52.225-9.437-78.182-14.957-5.654 50.2-10.448 102.12-27.5 150-1.426-26.078.26-52.659-.5-78.832.005-13.195-.006-26.384.003-39.574-.982-8.211 5.308-8.269 10.965-10.634 5.57-2.4 8.604-7.821 10.032-13.42-3.457-2.429-9.672-1.224-14.417-2.359-32.772-4.087-65.882-5.82-98.583-10.181v599c11.864-.181 23.889.66 35.638-1.48 15.876-3.14 31.38-8.33 45.254-16.778 3.014-1.9 6.775-3.988 8.916-6.538 3.717-5.218 1.396-14.216 2.192-20.135V2455h206v53c27.39 1.049 55.492-2.158 79.963-15.548 5.483-3.297 12.993-7.401 14.58-12.94 1.303-22.24-.236-44.671.457-66.94.76-95.488-.926-191.14.5-286.572 1.614 2.954 6.731 1.517 10.278 2H1582v1.5c-8.598 32.266-18.103 64.261-29.992 95.487-11.881 30.904-21.942 62.954-37.008 92.513 22.724 10.239 52.978 13.63 75.585 14.43 13.237-.115 26.607-1.48 39.134-6.007 5.292-1.537 11.905-3.996 13.45-10.965 2.043-5.913 4.32-11.733 6.248-17.678 3.897-11.224 7.956-22.351 11.85-33.565 1.584-4.28 3.282-8.506 4.633-12.859.9-2.835 2.127-8.56 6.17-8.61 29.943-.701 59.973.127 89.93-.246-5.69 46.709-10.499 95.13-29.934 138.615-4.91 10.088-13.105 19.352-24.949 20.678-18.514 2.248-37.168-.208-55.796-.28-18.466-.548-36.858-2.532-55.321-3.013v11c24.036 4.747 52.898 15.684 68.192 33.007 18.27 21.008 17.617 50.992 17.808 76.993 26.21.157 52.82-2.48 77.738-11.073 17.013-5.675 33.688-13.421 47.545-24.973 20.067-18.115 33.667-42.519 41.907-68.057 9.3-26.76 14.539-54.716 19.255-82.572 3.08-18.773 5.227-37.687 7.424-56.572.723-4.774.398-9.94 2.071-14.486 10.217-4.733 27.952-3.242 36.06-16.767-16.215-14.717-34.114-27.529-50.687-41.836-17.394-12.824-32.983-28.59-50.813-40.664-17.865 15.838-37.664 35.659-54.069 50.162-4.382 5.048-12.678 3.838-18.636 3.838h-47.235c-4.513-.35-11.334.816-14.56-1.5 5.716-13.505 9.099-28.33 14.058-42.19 4.302-14.75 9.697-29.282 12.942-44.31h201.6c15.492-.919 35.773 3.259 44.248-10.52 3.809-5.35-2.54-9.604-6.115-13.15-28.12-25.823-57.108-50.716-86.733-74.83 14.88-2.531 34.414 3.7 44.892-9.21 6.644-7.609-3.318-12.257-7.986-16.9-5.168-4.999-11.81-10.211-16.642-14.697-15.598-13.399-31.632-26.302-47.487-39.386-8.234-7.008-16.987-13.376-25.277-20.307-15.29 19.483-29.964 39.487-45.08 59.116-2.88 3.654-5.496 7.549-8.454 11.13-3.411 4.45-8.328 3.783-13.372 3.754H1512c.84 7.345 4.313 15.56 5.853 22.12 1.236 4.864 7.146 3.689 10.733 3.88H1847v1.5c-12.943 16.33-24.128 34.028-36.933 50.482-2.61 3.936-5.63 7.59-8.304 11.466-2.493 3.28-5.584 8.949-9.355 9.285-78.648.761-157.37-.138-236.032.267h-59.331c-7.391-.004-14.783.005-22.174-.003-2.58-.044-7.504-.081-7.44-3.05-1.229-47.9.223-96.014-.431-143.947 4.684-.253 9.798-2.457 14-3-.215 4.482 2.665 5.334 6.059 4.933 20.447.191 40.861-3.062 59.522-11.691 5.684-2.332 11.208-5.147 16.138-8.837 5.58-4.069 4.175-10.343 4.281-16.403v-33.525c.217-3.098-.767-9.724 3.001-10.027 6.624-.856 14.64-.338 20.7-.018 2.514.78 1.967 5.204 2.297 7.153.006 18.471-.002 36.946.002 55.415 26.468 1.038 53.121-3.248 77.296-14.647 5.791-2.324 13.839-5.658 13.646-11.859.165-21.578-.03-43.164.058-64.738V1729c8.682-1.198 16.13-5.75 24-9v233c24.466.812 49.39-1.981 71.706-12.882 5.311-2.445 10.319-5.511 14.998-9.002 4.544-2.76 5.55-7.096 5.29-11.725.016-14.47-.002-28.932.006-43.391h24v63c28.178 1.21 56.316-3.527 82.14-15.252 6.059-2.878 14.026-5.618 13.813-12.455.135-22.793-.025-45.585.047-68.373V1729c9.41-2.839 22.998-5.462 30-16-31.18-20.322-59.694-46.024-90.5-67-10.109 10.543-19.786 21.48-30.475 31.475-4.057 3.697-7.745 9.046-11.535 12.346-9.083 6.647-20.392-1.367-28.207-3.704-13.724-5.385-27.31-11.13-40.996-16.59-13.194-4.423-27.787-12.714-40.287-15.527-.733 17.897.9 36.215-.5 54-13.03-10.805-27.453-19.89-40.707-30.417-6.763-4.95-13.492-9.95-20.254-14.893-6.918-4.531-14.134-11.72-21.195-14.69-9.047 10.79-19.538 20.272-28.925 30.739-3.507 3.89-7.19 7.677-11.064 11.19-8.493 6.227-19.156-.546-26.445-2.966-25.836-10.498-51.7-21.232-77.41-31.963-2.185 39.768 1.185 80.295-1 120-27.143-27.332-57.15-51.561-86-77-14.543 20.397-29.634 40.48-44 61-1.426-29.14.26-58.76-.5-88 12.025-2.111 29.568-5.364 30-24-10.249.176-20.401-1.517-30.596-2.056-5.26-.355-10.496-1.075-15.761-1.334-4.545-.736-11.37.116-14.643-2.11 15.234-5.066 33.74-10.431 46.866-17.435 6.4-2.971 13.034-5.486 19.012-9.309 5.893-3.4 12.01-7.14 18.972-6.756 50.356 1.557 104.724-7.37 143.246-42.612 4.477-4.525 9.05-8.937 13.45-13.52 6.734-8.414 18.108-10.286 27.235-15.265 29.13-13.829 57.244-30.27 80.719-52.603 22.524 13.024 65.486 25.083 51.987 63.767-4.022 10.507-13.368 18.891-14.565 30.566-2.348 13.155 9.515 17.604 19.574 20.004 30.674 5.9 76.333 3.353 97.875-32.196 18.463-33.018 17.465-72.23 17.629-108.739v-41.901c-.096-9.755.153-21.556-2.894-30.131-4.406-13.032-16.04-22.267-28.395-27.277-12.978-5.534-26.562-9.597-40.552-11.582A134 134 0 0 0 1753 1345c.83-7.91 5.254-15.029 7.062-22.709 3.887-11.091 7.044-22.397 10.025-33.756 3.441-11.228 3.827-23.224 6.413-34.535 9.175 10.105 22.15 15.578 35.5 17-2.123 14.706-2.407 31.212 8.36 43.016 10.739 12.691 24.98 14.087 39.321 12.749 23.676-3.438 45.62-27.343 49.821-48.194 2.66-13.173-.821-26.634-9.578-36.803-6.647-10.24-18.033-19.214-16.7-31.775.934-32.94 1.9-72.124-4.728-101.843-6.966-29.963-21.889-60.081-47.94-77.944-4.834-3.941-11.877-6.347-16.486-9.615-2.98-1.607-1.558-7.385-2.07-9.922-1.573-104.108-59.839-205.298-148.543-259.691-44.385-28.399-96.468-44.244-149.24-44.532-26.555-1.209-57.94 3.502-81.285 10.146-24.13 7.397-46.95 18.855-67.644 33.271-39.804 27.74-68.294 67.824-93.084 108.66-10.975 18.492-26.337 34.366-45.274 44.818-16.944 10.2-35.102 18.4-50.898 30.45-13.226 10.375-29.794 28.192-23.519 48.766 6.086 16.94 29.247 23.775 44.685 26.458 35.146 4.816 70.551-3.967 100.741-21.692 50.667-27.365 85.145-79.11 138.217-102.75 20.615-7.936 49.328-9.62 67.755.086 16.958 10.655 22.062 32.79 17.754 51.444-1.537 8.499-5.281 16.647-11.612 22.637-28.868 9.997-59.268 18.672-84.206 37.408-18.765 13.056-36.153 30.64-41.738 53.62-2.227 8.467-.863 18.91-3.64 26.351-4.826 15.398-1.998 34.912.795 48.97 2.77 11.73 8.3 22.563 11.553 34.134 1.13 4.325 1.741 9.198-.274 13.377-3.251 6.687-11.353 10.238-13.645 17.564-1.6 4.944-1.491 11.932 3.949 15.83 7.06 4.82 17.755 4.754 25.201 4.9 9.195.113 18.072-1.954 26.952-3.894-5.397 19.825-12.615 39.174-18 59-28.67-7.902-58.43-18.407-88.845-14.133-21.177 1.971-40.811 13.668-52.11 31.788-9.225 13.685-13.52 29.812-18.858 45.19-4.128 11.103-9.353 22.243-18.057 30.524-6.083 6.242-13.871 10.467-21.86 13.712-11.086 3.947-27.9 8.132-24.979 26.129 2.378 14.595 17.728 20.243 28.087 25.324 2.387 1.15 5.569 1.637 7.622 2.966-11.975 9.116-28.845 15.366-42.336 17.644-24.592 3.84-58.158-2.042-80.766 22.458-15.432 15.13-17.823 39.539-13.316 59.624 3.09 15.114 9.948 29.255 20.203 40.758 3.393 4.018 9.327 7.04 9.553 13.718 2.318 20.057 12.89 38.379 29 50.505 16.358 12.842 37.033 18.654 57.325 21.255 10.038 1.436 20.239 1.402 30.337 1.538v223h-40v-149c10.915-2.696 26.432-6.51 27-23-21.234-.31-42.308-3.873-63.492-5.021-20.764-2.877-42.472-2.746-63.008-5.979-2.068 2.663-1.25 7.33-1.5 11.098V1878h-49zm300-373.5c26.242-9.611 51.936-23.493 80.441-25.717 5.49-.128 12.302-.874 17.17.743 5.61 1.781 7.38 7.419 4.691 12.054-4.61 8.015-15.39 11.99-22.515 15.382-3.661 1.908-7.399 3.309-10.678-.853-5.441-5.146-12.197-10.18-20.051-10.25-6.721-.23-11.504 8.562-13.25 13.154-2.323 5.313-3.317 11.063-4.346 16.712-.418 5.572-6.43 8.039-10.038 9.999-29.75 17.939-61.17 32.911-92.924 46.776-1.573-7.24-4.948-14.18-11.017-18.761-7.375-6.344-15.007-1.184-18.916 4.402-5.62 7.318-10.174 17.863-10.567 26.359-11.996 3.679-24.617 3.203-37 3-1.199-8.931-4.334-17.797-9.822-25.003-2.586-3.03-5.812-7.156-10.935-6.727-4.353.407-8.255 2.722-11.438 5.574-4.12 3.893-10.245 9.03-9.208 14.407 1.669 5.8 5.258 10.94 9.387 15.224 5.495 5.699 12.698 9.478 20.228 11.715 4.616 1.456 9.395 2.413 14.156 3.207 8.292 1.265 16.643 1.927 25.007 2.432 45.284-.302 90.042-10.925 131.07-30.022 10.499-4.591 20.667-9.919 30.938-14.965 7.095-3.158 17.905-1.019 26.795-2.208 25.783-1.101 52.24-3.26 76.332-13.36 13.95-5.717 26.292-15.003 37.092-25.376 4.207-3.962 7.443-8.753 11.227-13.074 7.03-6.968 17.663-8.56 26.067-13.304 26.393-12.826 52.543-27.595 73.104-49.02-8.547-8.423-15.173-19.302-16-31.5h35c1.139 10.124 16.296 14.756 22.862 17.74 23.819 7.778 49.928 10.33 74.5 5.091 11.577-3.015 23.183-6.913 33.101-13.812 8.539-5.553 19.362-14.601 18.344-28.151-1.327-10.389-10.169-15.127-18.8-18.66-28.847-10.471-60.155-7.717-90.007-7.708 17.773-36.454 33.361-74.743 38.906-115.213 5.355-41.965.055-84.464-3.906-126.287h36c-.256 17.75 2.87 36.335 12.549 51.605 11.045 15.222 32.778 18.357 49.114 9.952 10.793-6.127 13.383-16.59 15.278-27.066 1.312-11.501 1.327-23.182.542-34.72-1.539-20.297-8.427-43.87-17.92-59.96-10.316-19.212-27.381-36.568-49.563-40.811.23-79.063-28.662-158.623-84.394-215.533-26.8-27.188-58.803-49.579-94.692-63.093-38.635-14.89-80.859-19.487-121.944-14.995-32.548 2.7-64.338 13.609-91.58 31.68-19.983 13.23-36.693 30.843-51.39 49.607-21.1 26.866-35.01 60.653-60.73 83.567-12.289 12.522-27.3 22-42.545 30.41-8.18 3.756-15.996 8.183-23.898 12.44-7.181 3.881-16.766 8.677-19.827 16.042 5.872 6.182 17.55 4.673 24.983 5.744 9.008.097 17.967-1.367 26.837-2.716 28.98-6.777 54.233-24.174 76.683-43.079 19.787-16.703 38.919-34.157 59.318-50.125 18.253-13.094 37.7-25.401 59.473-31.758 34.366-8.914 86.078-9.145 111.944 30.72 15.846 26.084 14.907 65.765 1.827 89.93-4.878 9.834-13.858 19.696-22.185 25.279-36.389 11.119-76.905 22.934-101.801 54.285-6.075 8.169-8.743 20.104-2.595 29.053 8.724 11.5 25.894 18.218 38.829 18.524 15.467.879 30.479-3.295 45.687-4.982-13.075 45.415-29.535 89.963-43.239 135.212-7.584 22.234-14.675 44.633-21.972 66.95-3.627 11.34-6.994 22.756-10.99 33.972-4.358 10.64-5.8 22.735-11.299 32.866-13.32-12.396-33.863-22.008-50.563-22.91-19.547-1.995-36.233 9.93-48.36 23.915-11.418 13.222-15.617 31.162-16.498 48.167.535 8.392-7.414 12.748-12.611 17.222-20.557 17.468-42.18 34.49-66.702 46.073-20.219 10.113-42.733 12.76-64.971 12.837-13.405 1.224-34.244 3.24-35.745 22.812-.769 12.798 2.889 25.394 9.345 36.383 4.807 6.76 10.23 17.635 18.318 16.63 28.12-.275 55.9-5.909 83.088-12.576 12.165-3.003 24.066-6.897 35.899-10.948 9.285-2.515 17.952-6.918 27.188-9.5 3.601-1.217 5.33 3.55 7.321 6.103 6.99 9.219 22.071 16.433 31.187 7.49 8.505-8.897 11.157-23.901 11.604-34.698m-197.797 7.463c-.142 7.39 5.564 11.193 11.882 11.045 7.236-.197 11.486-5.886 10.623-12.305-.324-7.24-6.16-10.843-12.536-9.902-6.637.224-10.347 5.029-9.97 11.162M1166 2152h206c-.639-11.238.805-22.884-.5-34-14.797 14.486-35.97 9.79-46.97-4.613 2.315-19.638-2.154-39.225-5.53-58.387h-2c-15.782 33.026-40.162 62.184-69.5 84-4.06-3.758-9.348-5.88-13.5-9.5 6.185-8.593 11.803-19.818 17-28-4.918-2.61-11.093-5.763-14.305-9.904-2.115-7.305-1.335-18.035-3.725-26.87-2.094-7.198-3.12-17.613-7.47-24.726-9.287 19.124-17.806 38.981-30.17 56.487-5.893 8.839-12.604 17.072-19.214 25.364-2.242 4.331-9.45 7.975-9.78 12.164-.764 5.957-.02 12.016-.336 17.985m.5 200c14.248-49.552 18.56-101.72 20.5-153 21.274 3.08 42.456 7.13 63.7 10.448 5.393.87 10.75 1.835 16.13 2.732 2.9.444 10.56.548 8.242 5.923-4.688 13.531-17.581 16.989-30.072 18.897-3.95 18.903-10.177 37.351-15 56 14.494 5.608 28.56 13.824 39.5 25 10.634-38.454 14.89-79.112 15.5-119 29.087 3.998 57.943 9.782 87 14v-35h-181.2c-8.188.925-18.17-1.258-24.8 1 .76 57.602-.926 115.487.5 173m205.5 77c-.648-9.897.815-20.215-.5-30-7.245 6.582-18.26 7.821-27.357 5.728-6.709-1.866-13.728-7.038-17.394-12.207-1.385-5.76-.327-11.998-.857-17.875-1.535-16.75-4.634-33.524-9.392-49.646-14.991 36.695-39.016 69.116-68.836 95-5.078-1.988-11.104-6.835-14.664-9.5 5.752-11.135 14.192-24.212 17-35.5-9.484.442-13.967-6.81-21-10 .412-15.973-3.182-31.788-7.5-47-12.112 27.802-23.11 57.058-42.293 81.231-2.3 3.158-4.731 6.223-7.19 9.252-1.418 2.75-5.49 5.546-5.574 8.11-.579 2.84-.566 6.351-.09 8.96-.372 3.509 4.48 3.36 6.67 3.439 20.344.024 40.676-.005 61.004.008H1372m-165.927-911.257c-.365 7.737 5.572 12.054 12.134 11.757 3.507.223 5.503-1.938 8.34-2.832 1.278-3.018 3.065-5.932 2.411-9.47.564-7.705-5.773-11.793-12.465-10.906-6.87.138-10.82 5.078-10.42 11.451M1328 2294.75c15.562 10.649 33.44 21.28 43.5 38.25l.5-1.625c-.76-36.026.926-72.457-.5-108.375-6.903 8.014-16.963 12.462-27.5 13-4.547 19.57-8.943 40.088-16 58.75m43.5-234.75c1.371-17.286-.205-34.804.5-52.14-.718-17.183.885-34.796-.5-51.86-3.939 3.51-10.217 5.115-14.796 6.204-2.41.543-5.534.582-7.511 1.803-3.701 8.136-3.913 18.271-7.26 26.732-2.032 6.45-3.759 12.982-5.83 19.411-1.152 4.107-3.706 8.573-3.63 12.507 4.983 5.885 11.68 8.237 16.811 13.351 5.702 4.54 11.176 9.389 15.884 14.98 2.087 2.882 4.921 6.072 6.332 9.012m-21.5-182h11c7.494-12.822 18.677-23.881 27.008-36.284 9.744-11.517 17.986-24.481 27.992-35.716 22.444 15.995 42.674 36.105 65 52v-75.5l-.5-1.5c-4.158 9.98-18.127 10.405-26.994 10H1350zm79.43-458.958c-.018 16.489 15.268 30.959 31.837 28.645 15.251-1.521 26.595-16.835 24.582-31.747-1.341-15.306-16.644-27.19-31.826-24.535-13.659 1.612-24.067 14.151-24.594 27.637M1463 786.25c4.89 7.333 10.394 16.449 15.5 22.75 7.8-4.67 16.757-8.3 26.125-6.794 9.145 1.398 16.994 7 23.875 12.794 5.67-6.808 13.614-12.143 18.5-19.5-10.311-10.58-26.842-18.665-40.274-20.236-7.908-.961-15.826.024-23.441 2.172-7.315 1.372-13.24 6.557-20.285 8.564zm15.5 544.75c7.244-3.506 18.081-7.259 24.5-9-1.2-9.169-5.085-18.509-1.77-27.853 2.184-9.463 9.588-15.925 16.77-21.647-4.956-6.207-9.025-16.194-15-22.5-11.768 8.155-22.039 19.25-26.537 33.15-5.134 14.268-3.944 30.014.545 44.242a18.5 18.5 0 0 0 1.492 3.608m49.5-152c4.427-.606 8.59-2.556 12.797-3.932 4.205-1.918 9.76-3.005 13.203-5.568-4.098-7.859-4.798-19.455-2.226-27.113 2.605-10.227 9.585-14.854 16.226-21.137-4.74-7.046-9.475-16.243-14.5-22.25-12.336 8.19-22.97 19.906-27.418 34.276-4.715 14.966-2.734 31.07 1.918 45.724m39 671h26v-132h-26zm14.5-805c7.186-4.84 15.528-8.27 22.5-13.5-2.405-6.267-5.976-13.575-6.614-19.84-1.555-10.968 4.633-20.522 11.229-28.401 2.372-1.735-.681-4.611-1.688-6.073-2.32-3.101-5.032-5.865-7.794-8.56-2.666-2.117-4.989-6.558-7.633-7.626-10.14 11.326-19.853 24.392-20.61 40.303-2.27 14.581 3.607 32.566 10.61 43.697m5.5 326c4.668-.411 8.948-2.843 13.443-4.022 3.916-1.689 9.734-3.268 12.557-5.478-2.915-8.315-4.656-17.59-2.168-26.246 1.913-9.314 9.684-15.222 16.168-21.254-2.587-8.096-11.006-15.34-13-23-18.603 9.559-31.832 31.144-31 52.303-.904 9.528 1.791 18.625 4 27.697m49-473c8.967 1.112 17.945 2.809 27 3 .528-15.466-.45-31.896-9.61-45.15-7.69-13.333-21.48-20.834-34.89-26.85-2.861 7.126-5.69 15.925-7.653 22.702-1.907 4.178 5.658 5.633 7.75 7.387 3.323 2.059 6.612 4.32 9.116 7.366 8.58 9.679 8.78 20.207 8.287 31.545m1 322c9.064-1.536 17.142-6.792 26-9-1.937-9.217-5.238-19.013-1.652-28.495 2.703-8.111 10.123-15.957 16.652-20.005-5.144-7.28-9.255-15.294-14.5-22.5-22.39 11.436-33.315 38.021-30.1 62.031.183 6.002 3.107 12.553 3.6 17.969m49.5-143c7.103-4.981 15.352-8.554 22.5-13.5-5.7-11.092-11.028-26.259-1.835-39.869 1.432-2.959 4.406-5.439 6.1-7.85 3.494-3.508-4.546-9.06-5.911-11.861-3.63-3.348-6.732-7.136-9.854-10.92-14.39 10.726-22.226 29.91-22.238 47.542 1.077 12.654 3.822 25.817 11.238 36.458m113.5 773h24v-132h-24z" style="fill:#000;fill-rule:evenodd;stroke:none"/></svg>