<svg xmlns="http://www.w3.org/2000/svg" width="3000" height="3000"><path d="M1115 2366.5c8.087-2.23 16.733-2.88 24.668-5.974 10.623-3.55 22.015-10.418 30.35-16.344 12.339-8.056 8.608-23.709 8.982-35.182h155v36c3.865.28 8.542-.419 12 .5-2.573 1.135-5 2.481-6.916 4.538-2.3 2.525 2.236 6.194 3.125 7.978 21.436 27.299 35.744 59.893 43.69 93.55 1.975 9.076 2.85 18.402 3.613 27.633.772 7.224.143 14.432-.227 21.635-.49 5.013 4.933 8.257 8.608 10.727 5.744 4.034 13.116 7.895 19.22 9.92 7.55 2.01 17.03 1.675 24.101 1.084 17.71-2.909 32.194-15.903 39.14-32.124 11.237-25.453 5.647-56.091-10.597-77.905-15.376-21.81-37.492-37.611-61.592-48.398-17.496-7.747-35.629-13.94-54.165-18.638 28.862-1.194 58.628-6.224 83.88-21.346 5.063-4.604 2.217-14.906 3.12-22.102V1978.69c.2-2.693-.293-6.181.96-8.444 2.313-2.155 7.115-1.938 10.441-3.369 3.962-1.002 7.625-2.948 11.599-3.877v61c16.091.64 32.27.24 47.829-4.464 11.169-2.766 21.702-7.795 31.61-13.543 10.56-5.353 8.995-13.782 8.561-23.256.124-14.16-.151-28.324.082-42.478-.117-7.348 11.688-4.87 16.304-5.259H1589v71c27.371 1.106 54.85-3.56 79.708-15.496 5.583-2.684 13.82-5.625 14.97-11.492.92-22.713-.168-45.553.322-68.287V1760c10.599-.807 22.15-6.82 29.5-13 1.426 86.804-.26 174.101.5 261 24.31.692 48.978-1.832 71.3-12.07 10.53-4.623 24.858-10.02 23.698-22.126.005-12.931 0-25.875.002-38.804h42c1.058 19.007-1.292 38.422.703 57.3 2.761 3.197 10.281.753 13.742 1.692 13.416-.03 26.783-1.87 39.666-5.582 12.969-3.615 25.765-8.01 37.696-14.327 3.048-1.311 5.952-3.078 7.704-5.98 1.215-11.285-.074-22.726.489-34.046v-158.97c.628-4.345-1.175-10.738 1.775-13.663 6.232-1.83 12.727-3.67 18.14-7.488 4.75-3.374 12.127-7.211 12.085-12.936-21.461-13.834-41.185-31.382-62.31-45.96-7.869-5.888-15.698-11.778-23.566-17.667-3.257-2.247-7.565-6.865-10.885-3.716-6.062 5.23-10.558 12.12-16.714 17.318-5.153 5.142-10.43 10.173-15.02 15.826-4.544 3.581-8.658 10.75-13.668 11.836-6.069.814-12.246.033-18.332.363-10.17.97-19.562-2.63-28.541-7.069-13.281-5.728-26.794-10.966-40.114-16.582-6.754-2.622-13.387-5.462-20.068-8.241-6.432-2.017-13.505-6.607-19.782-7.108-.742 19.905.908 40.207-.5 60-18.966-15.088-38.795-29.173-57.932-44.046-7.271-5.55-14.7-10.896-21.934-16.484-2.984-1.811-7.446-6.669-10.264-3.85-11.903 9.725-21.317 22.05-32.24 32.75-16.766 22.36-45.481 6.346-64.893-1.27-10.348-4.293-20.723-8.514-31.009-12.954-10.265-3.36-21.5-10.091-31.228-12.146-.76 84.568.926 169.55-.5 254-14.345-11.893-28.399-24.18-42.58-36.253-10.657-8.348-22.059-19.539-31.97-27.022-4.196-3.987-9.924 3.931-12.336 6.506-12.585 13.86-25.439 27.57-38.548 40.915-3.584 2.83-10.055 1.466-15.077 1.854-15.567-.702-31.538.869-46.989-.5 25.794-18.612 49.247-40.188 73.08-61.147 8.716-8.548 17.83-16.628 26.395-25.328 7.41-8.038 14.824-17.163 26.41-17.519 9.055-1.562 19.223-2.672 26.395-9.127 3.887-3.041-3.04-7.303-4.65-9.252-22.755-19.955-44.899-40.575-67.635-60.55-5.485-5.16-11.419-9.81-16.89-14.97-2.031-2.15-4.342-3.99-6.625-5.852-1.722-1.195-3.263-3.307-5.56-4.258-6.893 2.846-12.802 12.377-18.79 16.873-6.347 5.845-12.086 12.261-17.745 18.728-7.837 7.086-15.834 16.842-23.465 22.832-5.103 1.997-12.56.5-17.944 1.07H1231c8.409-21.223 21.27-41.082 28-63 10.622 0 22.249-1.06 31.02-7.83 3.887-3.315 7.964-7.262 9.107-12.47 1.735-3.209-3.078-4.004-4.835-4.62-2.908-.81-5.788-1.68-8.689-2.471-9.097-2.744-18.19-5.518-27.28-8.244-7.406-2.373-15.115-3.92-22.323-6.865 45.053-4.079 89.175-17.327 129.847-36.93 8.647-3.408 19.192-11.876 27.051-12.531 39.535-.356 80.568-3.006 117.288-19.138 14.656-7.074 29.01-15.24 40.91-26.514 5.52-5.7 11.387-11.084 16.72-16.955 4.54-5.949 12.33-7.601 18.75-10.75 26.12-11.825 51.657-25.258 74.63-42.551 5.11-3.734 9.889-7.896 14.664-12.015 2.458-1.3 4.877-5.1 7.445-4.454 10.727 3.848 20.879 9.449 30.754 15.075 9.276 5.876 18.986 12.568 23.861 22.798 4.216 9.565 2.012 22.07-1.994 30.468-4.383 8.534-11.121 15.861-13.55 25.38-2.883 8.41-2.472 19.793 8.859 24.19 16.842 7.106 39.051 6.725 55.405 5.58 15.728-1.65 31.781-5.764 44.793-15.217 21.832-16.26 31.244-43.991 34.92-69.84 3.572-22.142 2.588-44.628 2.647-66.955v-51.567c.135-11.967 1.144-24.706-4.662-35.716-7.873-14.704-23.461-22.88-38.475-28.392-16.665-6.247-34.4-8.548-51.863-10.966 12.895-29.611 20.46-61.743 25.5-93.5 9.568 8.99 24.28 16.339 36.5 16-2.143 15.857-2.357 33.76 9.082 46.583 11.204 14.007 26.93 15.515 42.465 14.293 26.1-2.837 51.764-28.686 55.955-52.022a48.03 48.03 0 0 0-9.812-41.429c-7.564-10.853-20.32-22.56-18.539-34.98.642-9.39.829-18.796 1.586-28.159-.169-32.49-.758-65.747-10.802-96.982-8.749-27.685-24.63-54.003-49.172-70.402-5.346-3.5-12.082-7.362-17.763-8.902-.137-96.294-41.33-191.368-113.445-255.723-34.492-30.738-75.057-54.976-118.967-69.535-47.809-14.98-99.057-18.505-148.527-10.705-48.44 7.7-94.2 30.603-130.296 63.698-15.423 14.903-30.034 30.638-42.848 47.873-11.62 15.123-20.75 31.931-31.41 47.671-8.988 15.99-21.22 30.054-36.18 40.708-26.802 20.18-61.883 30.184-83.865 56.778-9.332 11.732-15.57 29.296-8.364 43.699 7.17 12.412 21.24 18.72 34.473 22.26 27.082 6.397 60.934 3.594 85.126-3.77 45.48-13.522 81.079-46.762 115.48-77.43 25.92-22.664 53.34-46.963 87.686-55.495 22.683-4.527 58.144-5.444 70.98 22.365 8.115 17.535 5.833 43.036-5.61 56.816-5.013 6.59-14.017 6.798-21.326 9.666-24.235 7.952-48.263 17.623-69.39 32.109-21.398 13.652-41.228 33.04-48.25 58.24-2.998 9.06-1.61 22.288-4.183 29.66-5.42 16.75-2.81 38.202.04 53.63 2.752 12.973 8.604 24.971 12.47 37.6 4.51 10.795-1.143 18.566-9.247 24.448-4.933 5.177-7.345 12.644-5.868 19.69 2.359 12.099 17.6 12.448 26.83 12.747 11.383.78 22.624-.34 33.691-3-6.98 19.998-11.572 41.445-19.5 61-29.36-11.706-61.687-17.488-93.309-15.633-14.907 1.723-29.805 6.475-41.647 15.984-10.915 9.38-19.739 21.402-25.207 34.746-7.029 15.046-10.245 31.573-17.223 46.62-4.99 11.236-13.275 20.602-23.716 27.054-7.694 5.562-16.85 8.2-25.58 11.495-5.574 2.352-13.055 5.329-14.993 13.03-1.309 5.423-1.023 12.259.564 17.093 6.176 14.779 23.02 19.49 35.611 26.111-12.84 7.504-26.41 14.25-41.284 16.666-13.548 2.929-27.618 1.174-41.279 3.27-21.969 2.607-45.39 11.6-56.635 32.104-16.103 30.636-7.797 70.727 13.024 96.849 2.538 3.498 5.55 6.497 8.957 9.12 4.607 4.492 3.982 13.91 6.446 20.888 6.118 20.592 20.178 39.962 39.771 49.603-9.194 63.512-27.022 125.519-47.265 186.277-10.492 29.37-21.59 58.521-34.705 86.833-5.963 14.359-13.613 27.902-20.484 41.8-3.65 6.984-7.214 14.004-11.272 20.757-3.045 6.451-9.193 13.477-9.274 20.333 4.332.557 10.292 9.167 15.571 5.153 14.867-9.866 29.566-20.303 42.929-32.153 1.426 128.816-.26 258.1.5 387h29c4.162 24.566-4.867 53.538-12.346 74.316-8.253 18.655-17.887 37.206-32.389 51.919-5.68 7.049-14.778 12.331-21.214 17.294-12.24 11.013-23.83 28.279-24.306 43.9-1.968 14.134 4.445 31.543 13.73 40.546 17.575 20.122 54.047 20.702 73.842 9.336 16.657-9.086 29.025-28.917 35.331-44.458 11.619-27.43 15.595-62.985 13.595-89.984-2.057-30.327-10.852-59.603-21.469-87.886-2.605-4.796-4.092-11.271-6.774-15.483m171-840.5c1.79 6.303 8.105 11.782 12.597 15.322 4.746 3.415 12.034 7.398 18.92 3.687 10.786-6.2 14.725-19.328 16.205-30.846.178-2.94.72-5.799 1.813-8.52 7.598-6.22 19.549-8.576 27.275-12.932 17.164-6.508 34.599-12.655 52.78-15.67 7.268-.99 14.667-1.377 21.98-.825 4.96.417 11.313 3.102 11.297 9.645.744 10.08-13.413 17.114-19.697 20.523-6.244 2.296-13.676 8.648-19.775 1.518-7.457-8.062-21.607-16.171-28.996-5.95-6.84 9.047-9.119 23.093-10.399 33.048-9.672 3.724-18.102 10.584-27.55 14.877-13.612 7.63-27.488 14.854-41.316 22.058-7.32 3.16-14.453 6.717-21.733 9.952-6.943 2.566-16.132 7.873-22.401 8.113-.97-10.124-15.716-32.59-28.247-16.918-6.591 7.974-11.118 17.441-13.138 27.566A18 18 0 0 0 1215 1604c-8.373 2.334-17.06 3.264-25.765 3-3.911-.108-7.826.159-11.729-.152-4.459-.089-4.708-3.886-5.308-7.01-1.439-6.1-3.866-11.977-7.206-17.277-3.055-4.393-7.556-9.782-12.414-10.061-8.46 1.92-17.846 11.102-21.27 17.107-2.372 5.9 5.927 14.108 9.086 18.287 14.889 15.483 38.333 17.961 58.522 19.092 6.913.036 13.823-.004 20.723.014 8.937.265 17.743-1.065 26.535-2.392 48.065-5.667 92.511-25.919 135.3-46.963 25.499-1.733 51.458-.794 76.653-6.37 23.267-4.72 46.792-13.344 64.28-30.069 10.914-7.184 17.662-22.507 28.737-27.058 18.059-6.857 35.235-15.65 51.918-25.315 8.34-4.7 16.092-10.248 23.647-16.099 6.132-5.63 16.374-11.406 21.291-19.234-9.67-8.922-15.862-21.313-16-34.5h40c.3 9.669 14.654 14.799 20.716 17.696 23.984 9.239 54.997 12.312 78.126 7.793 12.113-2.77 24.353-6.228 35.06-12.751 9.743-5.576 21.487-14.855 23.925-25.48 3.34-11.904-5.576-20.14-15.403-24.425-15.5-6.113-32.164-9.251-48.805-9.972-17.521-.803-35.199-1.51-52.619 1.139 1.822-10.725 9.079-19.924 12.43-30.162 15.948-35.211 28.165-72.681 31.242-111.42 3.075-40.851-2.764-81.731-5.672-122.418h40c2.876 21.041 3.098 45.777 19.703 61.921 15.235 14.849 48.65 10.83 57.02-7.346 5.018-9.942 6.168-23.261 6.276-33.266.204-11.723-.276-23.468-2.651-34.982-4.013-22.533-11.78-44.944-25.976-63.204-10.84-15.289-26.905-27.05-45.372-31.123 1.591-84.955-30.95-170.367-90.102-231.602-28.057-29.509-62.625-52.294-100.109-67.852-40.348-16.764-84.48-21.237-127.696-17.927-35.438 2.53-69.915 13.551-100.026 32.407-22.351 13.43-40.03 32.763-56.656 52.477-24.067 29.633-39.104 66.285-67.144 92.73-13.337 13.863-29.737 24.19-46.297 33.675-8.577 4.85-17.816 8.494-26.253 13.593-8.155 4.059-16.336 8.412-21.717 15.999 5.883 4.96 15.549 4.8 22.042 5.43 22.47.578 45.567-3.891 65.357-14.886 53.757-28.848 91.809-80.205 145.58-109.076 20.728-12.609 45.104-17.904 69.072-18.885 20.893-.535 42.92 2.332 61.058 13.535 15.498 9.226 26.923 24.664 32.772 41.547 9.132 30.646 7.308 67.513-12.991 93.633-6.728 9.566-15.846 17.565-27.475 19.642-19.733 5.211-38.873 12.419-57.062 21.644-13.056 6.873-25.642 14.866-35.723 25.786-7.586 7.332-15.19 20.285-12.636 30.422 4.742 16.787 28.947 25.302 41.265 26.453 18.12 1.33 35.986-2.904 53.741-5.745-1.36 12.867-8.468 24.544-10.934 37.182-27.81 85.222-55.407 170.557-83.066 255.818-4.774-.106-9.272-5.227-13.888-7.942-17.545-11.368-39.844-20.724-61.144-14.149-17.004 5.785-33.29 21.274-40.845 35.698-4.159 7.106-6.229 15.14-7.979 23.095-1.844 7.677-1.554 15.644-2.602 23.406-18.464 18.576-43.807 37.45-63.964 50.52-17.838 11.418-37.84 19.845-58.852 23.22-16.284 3.216-36.258.67-50.919 5.09-5.823 1.62-11.32 4.59-15.282 9.236-7.45 8.507-5.134 18.682-3.494 28.658 1.78 7.631 4.846 14.958 8.967 21.614 3.023 4.833 6.346 9.493 10.052 13.817 3.254 4.135 7.72 3.948 12.227 3.638 13.645-.582 27.168-2.262 40.66-4.248 20.505-3.234 40.708-8.151 60.666-13.81 9.59-2.908 19.005-6.352 28.539-9.394 9.508-2.362 19.875-8.43 28.858-9.449m-164.955-12.738c-.789 9.303 6.103 14.497 14.224 13.352 9.729-.415 12.638-7.184 11.694-14.719.428-8.868-6.79-12.887-14.281-11.766-7.766.017-12.067 6.08-11.637 13.133M1145 1903.375c6.556 4.415 16.264 6.28 22.748 9.399 11.566 4.725 23.232 10.177 36.01 9.226H1244c10.973-39.184 21.805-78.726 28-119h-58c-19.05 35.728-43.238 69.196-69 100.375M1160 2368c1.109 16.149 6.083 31.92 6.412 48.206 2.669 30.248 3.848 60.722.175 90.941-1.193 10.95-3.168 21.82-5.26 32.616-.574 4.177-2.429 9.002-1.86 12.881 7.405 15.075 25.03 25.233 41.61 24.347 26.129 1.19 45.092-28.171 49.422-50.14 6.48-26.784 1.282-55.06-9.974-79.73-14.452-31.149-36.982-58.079-63.71-79.464-4.113-3.761-12.321.864-16.815.343m19-276h34v-140h-34zm0 187h34v-157h-34zm2.067-760.274c-.686 9.786 6.107 15.181 14.572 14.173 9.138.529 13.75-6.709 12.712-14.799-.189-3.68-1.043-7.64-4.13-9.98-3.106-2.565-8.192-2.037-11.546-2.074-7.454-.088-11.862 5.927-11.608 12.68M1281 2535c4.475 1.481 8.05 7.927 13.475 9.959 16.657 11.532 40.431 10.656 55.474-3.485 14.957-14.202 20.585-35.973 18.68-55.991-2.658-34.738-25.122-64.227-49.84-86.855-11.886-10.058-24.777-18.855-38.16-26.755-6.734-3.751-13.372-7.699-20.248-11.175-3.51-1.137-7.8-5.014-11.107-3.86-3.96.842-7.494 2.905-11.274 4.162.451 6.18 5.856 13.15 8.07 20.005 21.618 48.295 36.607 100.654 34.93 153.995m16-443h37v-140h-37zm0 187h37v-157h-37zm126-866.241c-1.182 17.851 15.15 32.745 32.173 31.942 17.045.1 31.956-14.995 30.821-32.211.786-19.452-15.333-31.51-32.158-31.2-16.335.086-31.889 14.388-30.836 31.469M1455 2215h101c-13.858 62.162-39.62 121.197-63 180 26.101 8.21 53.145 15.255 80.758 15 20.538.27 41.667-.988 60.766-9.426 7.59-2.505 9-12.754 11.652-19.031 4.586-12.757 9.538-25.413 13.898-38.244 1.831-4.423 3.456-9.895 5.295-13.863 1.629-4.063 9.628-1.529 12.587-2.436H1778c-2.598 24.99-5.656 49.981-10.622 74.627-4.044 17.72-7.534 35.97-15.86 52.31-5.355 12.965-18.29 21.397-32.368 21.061-43.773 2.558-87.412-6.183-131.15-5.998v14c30.103 3.777 65.216 17.66 85.975 36.475 11.997 10.434 18.336 25.25 20.96 40.646 2.991 16.108 4.048 32.525 4.065 48.879 29.386-.374 59.318-2.13 87.724-10.19 19.51-5.547 38.83-13.724 54.67-26.644 24.147-19.393 37.907-48.559 47.161-77.325 9.382-31.182 15.244-63.337 19.744-95.543 2.302-16.719 3.937-33.531 5.701-50.298 7.352-.636 15.785-3.225 22.116-5.464 6.35-2.455 16.576-8.13 16.884-14.536-21.25-15.503-41.45-33.846-62.367-50.08-15.636-12.537-30.94-25.46-46.634-37.918-7.19-7.398-12.679-.565-18.354 4.902-9.369 9.482-19.91 17.685-29.247 27.198-7.286 6.924-14.985 13.346-22.263 20.265-5.547 5.625-16.07 2.852-23.104 3.633-24.948-.758-50.163.925-75.031-.5 9.861-26.733 18.137-54.38 27-81.5h226.2c16.052-.389 37.9 3.038 48.397-8.35 2.47-2.603 3.344-6.158 2.928-9.607-16.408-19.819-40.982-38.723-58.53-54.403-15.226-12.762-30.384-25.577-45.81-38.091-7.118-7.107-11.272 3.302-15.276 8.255-15.036 20.903-29.982 41.845-45.146 62.644-2.047 2.57-3.603 5.604-6.09 7.81-1.99 2.059-6.007 1.622-9.165 1.742H1448c.185 10.381 6.263 19.722 7 30m5.487-1485.636c-.127 3.023 2.633 5.918 4.2 8.665 4.395 5.339 8.467 20.214 18.364 12.966 16.565-10.203 32.677-2.319 45.94 8.527 4.17.595 7.458-3.361 10.111-6.124 3.89-4.687 10.391-9.112 12.4-13.85.293-3.07-3.489-5.593-5.169-7.003-2.303-1.77-4.608-3.514-6.974-5.19-10.7-6.654-22.905-11.684-35.667-12.294-13.296-.533-26.472 2.92-38.131 9.154-1.21 1.321-4.706 1.76-5.123 3.779.018.387.035.768.05 1.37M1475 1318c10.482-1.39 19.636-8.067 30-10-1.048-7.715-4.647-15.159-3.812-23.139.663-11.59 8.282-20.777 16.793-27.745 4.394-4.046-2.457-11.095-4.13-14.487-2.112-4.45-6.907-9.57-7.851-13.629-6.867.342-14.058 8.118-19.495 13.644-5.366 6.016-10.025 12.765-12.406 20.536-7.072 17.782-4.044 37.085.901 54.82m34 766h376.8c11.899-.238 41.106 3.302 43.619-17.13-1.36-5.914-9.574-9.794-12.499-13.517-15.285-14.729-32.423-27.348-48.476-41.169-8.532-6.764-16.739-13.886-25.268-20.635-4.224-3.444-8.41-6.9-12.633-10.33-3.642-2.903-7.974-7.163-12.543-7.219-6.339 11.581-16.522 21.324-23.804 32.407-7.002 9.624-14.329 19.03-21.579 28.46-6.763 8.343-12.08 20.46-22.838 19.133H1501c1.582 10.206 6.42 19.795 8 30m20-930c10.665.044 19.717-7.485 30-9-.266-6.553-3.56-12.636-3.712-19.24-.752-11.53 5.568-22.311 14.155-29.484 9.1-6.177-.636-14.753-3.921-21.053-2.557-4.51-6.077-12.24-12.582-6.878-14.8 10.529-26.558 26.896-27.852 45.525-1.686 10.96-.955 22.182 2.117 32.875.65 2.41 1.534 4.769 1.795 7.255m23 751h37v-145.2c-.436-3.175.927-9.187-2.42-10.353-5.772-.736-11.686-.307-17.487-.447-5.379.198-12.871-.53-17.093 1zm34-896c10.659-1.035 17.888-11.453 28-14-2.413-11.38-12.146-21.586-5.953-36.032 1.594-4.517 4.047-8.7 7.11-12.37 2.496-3.029 7.075-6.424 3.981-9.624-4.469-5.598-9.508-10.691-14.418-15.882-1.67-2.017-3.124-4.093-6.42-3.608-14.379 9.907-22.682 31.931-23.296 47.335-.391 11.8 2.31 23.422 6.676 34.304 1.175 3.26 3.694 6.727 4.32 9.877m7 353c8.377-.551 15.882-5.386 23.863-7.552 1.888-.888 4.26-1.786 5.65-3.128-.086-6.187-2.786-12.073-3.075-18.258-1.035-12.557 7.08-23.526 16.31-30.908 5.887-3.98-1.12-10.713-3.199-14.811-2.518-4.542-7.465-10.087-8.549-14.343-4.504.177-7.742 3.886-11.325 6.246-10.246 8.413-17.874 19.899-21.74 32.555-5.12 16.53-2.062 33.932 2.065 50.199m53-511c10.383.28 20.633 2.583 31 3 .17-11.46.666-23.08-2.556-34.198-3.703-15.072-13.684-27.978-26.617-36.274-6.266-3.443-14.355-9.033-20.47-8.659-3.655 6.202-5.898 15.415-8.303 21.646-.585 2.085-1.269 4.847-.329 6.823 8.187 4.942 17.885 9.25 22.493 18.583 5.348 8.766 5.017 19.232 4.782 29.079m31 338c-.487-7.364-4.154-15.066-2.957-23.976.193-11.931 9.507-20.718 17.668-27.939 2.994-4.177-4.452-10.682-5.458-14.178-2.237-4.531-6.931-9.957-8.253-13.907-4.278.526-8.639 4.94-12.461 8.004-11.014 9.808-20.012 22.553-21.759 37.641-1.93 11.853-.77 26.434 1.997 37.004 1.533 8.373 8.086 6.047 13.883 3.341 5.841-1.802 11.42-4.488 17.34-5.99m50-159c-.385-6.42-4.658-11.893-6.007-18.069-3.103-10.598-.094-21.879 7.147-30.302 1.942-2.798 7.139-6.276 4.791-9.571-4.05-5.383-9.786-10.945-13.878-15.547-1.912-1.55-3.403-4.32-5.389-5.034-4.38-.488-7.451 6.214-10.074 8.533-8.646 10.531-14.474 23.426-14.716 37.224-2.055 12.168 2.18 24.364 5.955 35.665 1.129 3.35 2.841 6.473 4.771 9.407 1.391 2.325 5.36-.159 6.938-.956 6.83-3.214 13.967-8.968 20.462-11.35m82 875h42v-156h-42z" style="fill:#fff;fill-rule:evenodd;stroke:none"/><path d="M364 2760.5v1.5h2272v-1.5c-68.931-409.09-136.257-818.54-204.874-1227.691-51.076-306.848-102.33-613.661-153.4-920.497-4.868-28.824-9.564-57.688-14.431-86.508-1.116-7.008-2.365-13.985-3.488-20.978-1.2-6.774-.246-15.245-9.425-16.859-109.868-36.632-219.702-73.24-329.563-109.867-95.996-32.013-192.02-63.992-288-96-41.993-13.978-83.98-28.011-125.966-41.994-5.663-2.605-10.407-1.693-15.513.621-156.173 52.06-312.354 104.114-468.521 156.173-58.68 19.531-117.334 39.097-175.992 58.657-25.668 8.506-51.298 17.139-76.962 25.643-6.176 2.075-12.369 4.11-18.537 6.195-3.02 1.124-6.483 1.813-8.8 4.255-62.934 375.423-125.132 751.075-187.889 1126.544C490.857 1998.664 428.048 2380.37 364 2760.5m750-395.5c15.843-2.136 31.554-6.39 45.007-15.3 6.403-3.992 15.052-8.838 18.061-15.484 2.034-8.51.14-17.571.932-26.216h157v36c16.158.154 32.407.54 48.409-2.093 11.292-1.769 22.143-5.347 32.865-9.171 7.022-2.906 17.473-6.473 22.045-11.027 2.053-2.261 1.564-6.501 1.681-9.858V1976.49c.238-2.692-.186-6.681 1.978-8.099 7.937-1.526 15.54-4.501 23.022-7.391v62c25.141.995 50.715-2.802 72.874-15.45 5.01-2.786 11.719-6.351 12.794-11.521 1.58-19.755-.944-39.78.75-59.504.648-3.069 6.178-2.144 8.288-2.525H1590v71c26.866 1.06 53.74-4.072 78.112-15.671 5.466-2.644 13.495-5.54 14.565-11.317.92-22.113-.167-44.353.323-66.488V1759c12.328-.146 22.036-8.37 32-14v262c24.174.65 48.71-2.353 70.785-12.705 9.143-4.003 23.52-9.287 22.215-22.644V1934h44c1.058 19.007-1.293 38.421.704 57.3 2.609 3.124 9.8.818 13.112 1.677 13.31-.243 26.588-2.057 39.35-5.881 12.62-3.492 25.016-7.954 36.64-14.013 3.05-1.311 5.953-3.078 7.705-5.98 1.203-11.074-.062-22.336.489-33.447v-157.17c.054-4.845-.251-9.802.59-14.554 1.651-2.854 6.58-2.643 9.222-4.06 4.563-1.433 8.773-3.868 12.61-6.676 3.303-2.796 8.728-5.228 9.578-9.196-32.031-21.187-61.644-47.405-93.5-69-10.64 11.728-23.888 24.835-33.67 35.565-4.064 3.905-9.233 10.618-14.121 11.272-11.019-.185-26.713 1.258-35.426-1.916-30.26-11.856-60.042-25.129-90.283-36.921-.74 20.27.907 40.804-.5 61-29.675-22.259-59.332-44.72-89-67-11.376 10.58-21.688 22.15-32.37 33.37-2.111 2.137-4.27 4.226-6.337 6.392-3.87 5.612-8.988 5.882-15.018 5.238-10.04.783-20.144.5-29.106-4.655-25.602-11.029-51.666-21.157-77.169-32.345-2.185 85.102 1.185 170.94-1 256-26.66-21.784-52.034-45.74-79-67-14.597 15.358-29.4 30.519-43.429 46.38-4.091 5.196-9.42 4.994-15.098 4.62H1273.5l-1.5-.5c26.652-18.76 50.82-41.037 75.324-62.453 12.311-11.408 24.572-22.847 36.151-35.022 2.996-3.044 5.88-6.532 10.212-7.38 11.914-2.277 26.064-2.529 35.313-11.645-33.862-30.912-68.767-60.905-102.5-92-14.408 13.612-27.763 28.226-41.475 42.475l-10.5 10.5c-2.744 2.227-5.419 6.431-8.688 6.66-12.218 1.007-24.593-.155-36.837.365 8.708-21.888 21.954-42.414 29-65 14.429.687 33.345-3.264 41-20.5-21.78-8.7-45.854-12.928-68-21 10.293-2.16 21.011-2.393 31.339-4.585 38.71-7.093 76.436-19.99 111.447-37.851 6.542-3.312 12.781-8.405 20.44-8.064 28.794-.21 57.88-2.115 85.923-9.043 19.611-4.75 38.285-13.292 54.92-24.665 12.245-8.913 23.481-19.304 33.378-30.794 4.003-4.047 9.914-5.362 14.877-7.827 35.244-15.754 70.038-34.606 98.004-61.671 17.625 7.474 35.513 15.763 49.88 28.783 14.267 14.162 12.035 33.413 3.086 48.205-8.187 11.62-19.268 30.303-5.947 40.4 12.048 7.668 26.813 7.911 40.497 8.481 23.733.64 49.453-4.55 67.617-20.873 12.665-11.404 20.8-30.195 24.796-44.942 7.964-27.65 6.736-56.71 6.743-85.114v-44.37c-.309-14.076 1.775-29.088-4.445-42.274-7.696-14.82-23.187-23.031-38.164-28.64-16.895-5.641-34.57-9.593-52.391-10.656 10.102-31.64 22.875-63.354 25-97h1.5c5.128 5.302 11.548 9.09 18.051 12.383 3.148 1.793 6.615 2.98 10.138 3.789 3.33.941 7.685.447 10.311 2.328-5.536 16.451-1.012 37.647 12.123 49.287 18.298 16.078 48.08 11.963 65.753-2.485 18.734-15.296 38.634-42.482 21.48-71.838-4.392-7.549-10.106-14.21-15.356-21.129-10.848-12.09-7.955-25.408-7.07-39.25 1.089-14.29.665-28.526-.314-42.839-.352-29.62-5.47-59.516-18.638-86.296-11.13-24.245-34.105-49.259-57.978-56.95-.137-96.294-41.33-191.368-113.445-255.723-34.492-30.738-75.057-54.976-118.967-69.535-47.772-15.004-98.973-18.563-148.371-10.427-48.048 8.08-93.476 31.134-129.192 64.16-15.46 14.898-29.875 30.779-42.77 47.957-11.24 15.276-20.776 31.686-31.148 47.512-9.09 16.024-21.522 30.096-36.643 40.67-26.822 20.068-62.003 30.015-83.624 56.953-7.867 10.487-15.94 28.247-6.405 43.096 7.985 12.028 22.675 17.096 35.792 20.781 27.74 5.474 57.08 3.087 83.904-5.505 44.92-14.771 80.01-47.643 114.402-78.333 25.61-22.935 53.729-46.413 88.114-54.228 23.05-3.564 58.861-4.659 70.793 24.38 7.418 18.054 5.266 43.856-6.515 57.82-5.156 6.441-14.338 6.43-21.587 9.474-24.207 7.993-48.18 17.694-69.258 32.232-21.23 13.588-40.832 32.943-47.813 57.94-3.022 8.92-1.628 21.926-4.022 29.212-5.685 16.595-2.99 37.945.161 53.22 2.735 12.776 8.699 24.522 12.347 37.007 4.156 10.392.073 19.112-8.22 24.75-5.281 4.788-8.506 12.421-6.879 19.517 1.872 11.382 19.676 12.27 27.823 12.07 11.332.486 22.647-.67 33.523-4-5.815 17.974-11.107 36.179-16.89 54.168-.996 2.658-1.98 10.034-5.396 9.083-31.333-9.081-64.48-19.598-97.688-13.943-23.497 3.12-44.406 17.843-55.192 38.96-15.816 25.724-15.642 68.266-50.82 87.179-7.664 4.457-16.357 6.54-24.339 10.25-13.883 4.568-17.255 24.12-6.399 34.06 8.7 9.423 20.787 14.83 32.724 18.743-11.015 8.872-27.126 14.745-39.503 17.843-13.67 3.322-27.84 2.59-41.764 3.68-22.114 2.41-46.428 10.165-58.678 30.425-17.446 29.879-9.365 69.988 11.082 96.137 4.738 6.076 13.158 10.754 13.824 20.357 3.791 24.889 19.185 48.701 42.039 60.058-8.068 63.751-26.947 125.834-46.755 186.728-10.427 29.373-21.517 58.517-34.515 86.863-6.222 14.305-13.553 28.053-20.516 41.972-3.377 6.95-7.034 13.734-10.906 20.412-2.927 6.31-9.385 14.228-10.308 20.025 3.61 1.118 7.59 4.81 11.5 7 16.107-11.047 31.883-22.629 47-35 1.426 129.21-.26 258.72.5 388h29c3.932 24.373-3.895 53.476-11.564 74.163-7.628 19.246-17.987 37.607-32.052 52.935-5.906 7.208-13.537 12.31-21.183 17.402-12.179 10.837-24.513 27.749-25.299 43.326-2.31 14.396 4.785 31.979 14.33 40.907 8.702 9.732 21.547 14.376 34.274 15.6 23.852 3.829 47.499-9.365 60.038-29.203 19.788-27.708 25.948-68.851 26.359-99.118-1.2-35.544-10.784-70.195-23.857-103.044-1.598-4.356-4.544-10.124-5.046-13.968m171-838c1.862 6.474 8.395 12.052 13.046 15.642 5.34 3.882 12.512 6.681 19.026 4.038 12.058-5.628 16.278-20.025 17.722-32.09.525-2.82.415-6.1 2.103-8.293 16.399-10.555 39.207-16.492 55.786-22.635 15.133-3.879 31.13-8.877 46.953-5.847 4.885 1.085 9.85 5.072 7.655 11.778-3.64 8.442-15.769 14.051-21.981 17.067-3.313 1.698-6.767 2.89-10.34 3.788-4.93-3.302-9.258-8.81-14.948-11.409-4.157-2.364-8.71-3.925-13.336-2.922-7.312.92-10.887 10.517-13.085 16.094-2.053 6.875-4.314 15.165-4.601 21.789-9.53 3.635-17.78 10.378-27.068 14.608-27.134 14.89-54.593 30.324-83.932 40.392-1.322-10.6-16.187-32.999-29.58-17.677-7.098 8.21-11.828 18.21-13.92 28.82-.27.943-.425 1.89-.5 2.857-8.55 2.406-17.458 3.264-26.34 3-3.88.232-7.703-.074-11.531-.493-2.64-1.106-2.216-6.183-3.32-8.256-1.758-5.974-4.047-11.888-7.708-16.983-2.884-4.295-7.917-9.352-13.078-8.906-8.793 1.753-18.178 11.263-21.82 17.294-2.888 5.565 4.548 14.313 7.324 18.293 14.534 16.474 37.869 19.996 58.611 21.005 7.512.109 15.008-.001 22.52.046 9.58.352 19.07-.878 28.495-2.391 47.27-6.154 91.735-24.914 133.74-46.435 6.288-2.029 13.152-.64 19.612-1.414 41.353-1.035 86.505-5.11 119.822-32.713 5.233-4.367 10.386-8.769 14.503-14.238 4.322-3.966 8.375-10.836 12.42-13.294 18.654-8.592 37.924-16.095 55.467-26.932 8.9-4.769 16.987-10.761 24.991-16.849 6.55-5.796 17.059-12.06 22.292-20.234-9.59-8.692-16.192-20.507-17-33.5h38c.3 9.669 14.654 14.799 20.716 17.696 24.344 9.363 55.826 12.346 79.311 7.957 12.41-2.725 24.912-6.298 35.876-12.915 9.798-5.551 21.437-14.894 23.958-25.488 7.042-25.845-31.11-32.41-46.827-34.613-22.419-2.344-49.505-3.958-70.034-.637 7.93-19.895 18.324-38.926 25.116-59.341 11.878-31.674 18.847-65.13 19.695-98.99.195-34.63-3.709-69.236-6.811-103.669h38c1.26 11.542 1.199 23.296 5.126 34.446 3.4 13.91 11.315 31.215 29.614 35.212 13.926 2.612 35.016 1.91 43.45-14.079 5.481-10.146 6.68-23.956 6.809-34.281.226-11.872-.048-23.794-2.371-35.48-4.07-23.2-11.832-46.38-26.587-65.129-10.81-15.086-26.758-26.641-45.041-30.689 1.591-84.955-30.95-170.367-90.102-231.602-28.057-29.509-62.625-52.294-100.109-67.852-40.309-16.92-84.33-21.001-127.497-18.064-46.397 3.29-92.428 20.123-127.482 51.355-14.636 13.843-28.108 28.885-40.038 45.124-11.135 14.851-20.18 31.117-29.981 46.827-18.5 30.013-46.435 53.054-77.235 69.41-13.488 7.342-28.154 13.03-40.443 22.405-2.025 2.118-5.936 6.245-3.719 8.6 5.819 4.285 14.99 4.28 21.256 4.745 28.7 1.645 57.019-7.064 80.632-23.102 41.067-25.168 72.492-63.291 112.777-89.554 15.11-9.977 31.156-19.064 48.622-24.206 31.49-8.55 67.703-9.753 97.015 6.747 22.077 11.873 35.027 35.628 38.238 59.775 2.34 18.93 1.265 38.87-6.617 56.536-5.206 12.375-13.732 22.982-23.893 31.668-8.416 5.71-19.448 6.037-28.745 9.855-27.29 9.463-55.794 20.695-76.55 41.703-8.25 7.494-15.853 19.948-14.82 30.68 2.306 17.805 24.874 27.172 39.822 29.436 18.47 1.637 37.515-1.228 55.369-5.486-4.85 24.63-16.495 48.489-22.757 72.952-23.966 72.572-47.252 145.35-70.743 218.048h-1.5c-15.404-12.942-34.68-23.276-55.184-24.091-21.289-2.078-39.827 11.902-52.663 27.317-12.072 15.44-16.049 35.124-16.746 54.226-.234 4.346-3.973 6.817-7.096 9.378-23.505 20.141-47.812 40.311-75.715 54.137-22.53 11.583-47.896 15.457-72.936 15.092-15.93.481-38.35 4.931-38.998 28.348.548 13.484 4.611 26.916 12.181 38.15 2.8 4.174 5.608 8.337 9.014 12.057 5.914 6.009 18.378 2.065 27.2 2.444 27.339-2.816 54.58-7.572 80.998-15.202 21.3-5.47 41.563-14.222 62.445-20.856m-162.89-13.764c-.492 8.145 5.524 12.837 12.574 12.255 7.832-.104 12.118-5.98 11.257-12.905.355-8.33-5.53-11.726-12.48-11.387-6.49-.27-11.772 5.336-11.351 12.037m20.89 390.389c.008.5.115.95.375 1.375 15.542 5.061 30.378 12.21 45.95 17.193 18.406 2.187 37.188-.304 55.675.807 12.035-39.736 21.039-80.278 29-121h-61c-19.272 36.18-43.883 70.123-70 101.625M1161 2369c5.747 34.008 9.664 68.448 8.982 103.036-.547 26.023-3.456 52.069-9.552 77.363-.167 4.523 3.267 7.836 6.305 10.836 5.507 6.27 12.257 11.217 20.156 14.052 33.054 9.129 56.208-19.338 62.498-47.964 7.61-30.826-1.034-63.054-15.836-90.204-14.38-26.208-34.893-49.1-58.143-67.725-3.347-3.196-10.7 1.49-14.41.606m17-276h36v-142h-36zm0 187h36v-159h-36zm4.145-760.99c-.313 8.741 6.228 13.698 13.819 12.774 8.063.15 12.202-6.878 11.153-13.851.036-9.195-6.991-11.677-14.253-10.837-6.2.036-11.094 5.739-10.719 11.914M1239 2362.25c25.419 53.393 45.306 111.696 43 171.75 4.387 1.374 7.814 7.702 13.07 9.692 7.805 5.128 18.688 8.913 27.336 8.097 34.138-2.08 48.22-39.587 45.167-65.96-2.765-34-24.622-62.738-48.58-85.17-20.394-18.095-44.542-31.124-68.493-43.659-3.183 2.163-7.461 3.033-11.5 5zm57-269.25h39v-142h-39zm0 187h39v-159h-39zm43 71.363c20.006 24.878 35.096 53.603 44.032 84.337 3.86 12.492 6.468 25.35 7.225 38.42.33 5.894.901 11.797.6 17.691-.058 4.687-2.17 10.987 2.727 14.825 7.277 5.604 15.164 10.714 23.93 13.649 16.628 5.111 35.962.481 48.348-11.673 18.874-17.24 23.159-45.573 16.094-69.133-7.216-23.487-25.145-42.115-44.046-56.775-26.242-18.555-57.355-29.078-88.166-36.951-.402-.264-.82-.549-1.244-.753-2.728 2.065-6.06 3.932-9.5 6zm85.005-938.382c-.655 16.883 15.068 31.067 31.191 30.601 16.38-.246 30.636-14.986 29.78-31.47.653-16.983-15.204-30.714-31.66-29.671-15.502.64-29.99 14.498-29.311 30.54M1456 2214h102c-16.786 61.256-37.08 121.894-64 179.5 30.164 11.787 62.832 16.312 95.062 15.47 16.185-.886 32.815-3.625 47.455-10.927 5.51-4.085 6.612-14.318 10.047-21.205 2.676-7.691 5.67-15.266 8.346-22.954 2.018-5.116 3.803-10.298 5.54-15.503 2.38-3.385 2.39-11.189 6.523-11.913 37.26-1.334 74.733.242 112.027-.468-1.817 25.057-5.807 49.965-10.233 74.674-3.92 18.028-7.55 36.53-15.729 53.233-5.24 13.26-18.02 22.305-32.45 22.082-43.915 2.99-87.707-6.315-131.588-5.989v12c30.103 3.777 65.216 17.66 85.975 36.475 11.997 10.434 18.336 25.25 20.96 40.646 2.991 16.108 4.048 32.525 4.065 48.879 28.895-.425 58.308-2.374 86.225-10.314 19.314-5.624 38.475-13.66 54.169-26.52 23.856-19.16 37.618-47.877 46.814-76.303 9.483-30.712 15.317-62.416 19.764-94.203 2.498-17.492 4.105-35.116 6.028-52.66 13.648-2.144 33-6.696 39-18-21.25-15.503-41.45-33.846-62.367-50.08-15.636-12.537-30.94-25.46-46.634-37.918-2.645-2.508-5.527-5.169-8.947-1.457-22.059 17.795-40.98 39.33-63.09 56.984-31.9 1.343-64.026-.244-95.962.471 7.967-28.236 19.018-55.735 27-84h228c16.883-.941 40.698 4.344 48.894-12.236 2.559-5.8-6.975-11.125-9.627-14.997-31.193-30.139-65.33-57.218-98.767-84.767-10.084 14.204-20.49 28.243-30.576 42.448-8.943 12.22-17.68 24.625-26.633 36.827-3.883 6.534-13.81 4.46-20.174 4.725H1449c1.01 9.601 6.161 18.383 7 28m20.5-1461c6.393-3.22 12.729-7.572 20.259-7.803 11.59-.715 22.786 4.408 31.226 11.953 4.08 3.948 9.547-5.171 12.385-7.02 3.182-4.146 8.832-7.535 10.63-11.63-11.621-11.614-26.982-19.505-43.205-21.995-16.536-2.49-32.661 3.911-46.795 11.495.568 4.382 5.107 8.785 7.49 13.268 2.46 4.04 4.742 8.265 8.01 11.732m-.5 564c9.308-3.399 18.785-6.834 28-10.5-3.814-8.802-5.102-21.089-2.404-29.57 2.532-9.64 10.018-16.36 17.404-22.305-3.023-8.948-10.763-15.84-14-24.625-17.53 6.831-29.914 28.814-32.822 44.824-3.795 14.169.763 28.546 3.822 42.176m26 738.25c3.112 8.576 5.835 19.615 8 27.75h372c16.354-.39 39.113 2.917 45.808-13.715 1.401-5.062-6.202-9.257-9.935-13.193-31.464-28.152-64.761-54.298-97.373-81.092h-1.5c-6.339 11.581-16.522 21.324-23.804 32.407-6.911 9.465-14.091 18.757-21.246 28.028-6.253 7.947-12.636 20.662-22.572 19.565H1502zm28-902.25c9.884-.748 18.314-7.562 28-9-2.871-11.106-7.596-24.961.927-37.583 2.421-4.053 5.58-7.628 9.08-10.759 1.682-1.246 3.099-2.773 4.488-4.3-1.06-6.407-7.76-13.123-10.961-20.006-3.571-6.97-8.775-1.287-12.898 2.15-13.92 10.697-21.88 27.625-22.976 44.865-1.781 9.417.952 20.742 3.021 29.033.553 1.84 1.11 3.69 1.319 5.6m21 753h39v-148.2c.069-4.043.403-9.488-4.1-9.584-6.056-.525-12.17.021-18.235-.216-5.256.153-12.522-.485-16.665 1zm36-898c9.366-3.268 16.957-10.496 26-14.5-5.263-8.327-8.791-20.245-7.498-29.293 1.177-9.894 7.554-18.088 14.498-24.707-6.98-6.624-12.667-15.06-20.216-21.005-4.137.295-7.037 7.295-9.778 9.535-2.877 3.652-5.556 7.508-7.39 11.8-6.78 13.314-8.432 28.64-4.735 43.08 1.168 9.02 6.137 16.767 9.119 25.09m7 353c4.819-.628 9.195-3.171 13.804-4.531 4.5-2.06 10.462-3.294 14.196-5.969-3.057-9.495-5.366-20.103-1.966-29.863 2.945-9.516 10.544-16.125 17.966-22.137-4.586-8.297-11.09-15.908-15-24.5h-1.5c-12.703 9.641-24.28 21.37-29.024 37.126-5.893 16.276-2.518 33.747 1.524 49.874m53-511c9.716.444 19.324 2.175 29 3 .85-16.958-.151-34.702-9.955-49.37-8.582-13.837-22.954-22.521-37.545-28.63-2.034 2.538-2.648 6.99-4.296 10.469-1.7 5.017-4.675 11.765-4.742 16.167.79 2.45 5.275 3.158 7.01 4.65 2.633 1.357 5.463 3.345 7.544 5.073 13.03 10.486 13.908 24.332 12.984 38.641m2.5 347c9.146-1.888 17.41-6.93 26.5-9-1.447-9.982-5.65-20.315-1.9-30.578 3.203-9.182 10.177-16.37 17.9-21.922-4.17-8.996-10.884-16.773-15.5-25.5-13.001 9.38-25.294 21.303-29.76 37.27-4.329 15.45-3.84 36.427 2.76 49.73m52-154c7.92-4.298 16.77-10.961 24.5-14-3.093-9.4-9.058-18.816-7.131-29.285.344-11.97 8.402-18.021 14.131-26.215-6.776-6.636-13.609-15.62-20-21.5-19.054 15.996-28.108 43.088-21.287 67.186 2.028 7.746 5.769 18.45 9.787 23.814m106.5 863h44v-158h-44z" style="fill:#000;fill-rule:evenodd;stroke:none"/></svg>