<svg xmlns="http://www.w3.org/2000/svg" width="3000" height="3000"><path d="M1037 2126c4.172.724 7.197 5.156 11.622 4.456 6.161-1.932 12.343-8.896 18.953-12.617 18.024-13.35 35.072-27.874 51.806-42.767 12.293-11.442 24.499-22.907 36.119-35.072 1.426 161.159-.26 322.756.5 484 21.105.375 42.33.717 63.123-3.53 14.401-3.24 28.606-7.675 42.192-13.397 9.363-4.035 18.467-8.878 26.697-14.908 8.102-5.729 5.767-16.277 5.988-24.02V1941c11.672-2.916 28.05-7.747 28-21-18.775-6.21-37.067-14.198-56-20v-1.5c19.717-29.244 36.085-60.848 51.928-92.335 15.284-32.138 29.87-64.735 42.072-98.165 10.252.609 21.112-.237 29.247-7.24 3.72-2.74 6.9-7.391 8.086-11.416 1.064-2.582-3.627-3.8-5.197-4.426-2.49-.759-5.007-1.403-7.483-2.165-8.45-2.391-16.819-5.096-25.256-7.513-16.087-5.144-32.45-9.268-48.525-14.417-15.494-4.657-31.043-9.209-46.539-13.858-7.91-2.493-15.912-4.699-23.868-7.008-7.517-2.04-16.266-5.555-23.465-5.957-16.518 87.549-39.292 173.946-70.944 257.31-14.67 40.548-31.456 80.408-49.494 119.545-9.544 20.168-19.361 40.328-29.961 59.965-4.844 9.58-10.312 18.81-15.63 28.112-2.643 4.336-5.014 8.846-7.697 13.143-2.625 4.352-6.478 9.192-6.274 13.925m138-579h25c2.198-12.329 9.21-23.497 20.135-29.903 20.938-11.279 45.596-10.515 68.575-11.094 37.345-.01 74.653.002 111.99-.003 18.578-.105 37.141.128 55.708-.07 17.307.14 33.203-8.578 43.592-21.93 7.814 10.149 18.457 17.816 31.272 20.213 11.97 2.944 24.549 1.225 36.706 1.787h130.485c20.295.39 44.546-.25 62.807 4.079 19.197 3.009 35.725 17.276 38.73 36.921h25v-81c.082-5.725 1.284-12.18-5.391-16.022-34.562-24.46-78.366-27.855-119.13-26.978h-85.128c-14.123-.29-28.254.379-42.355-.265-11.459-.616-27.516-2.31-27.996-18.735 31.315-4.224 65.929-3.911 93.494-22.15 6.828-4.572 12.153-11.673 13.245-19.954 1.333-12.23-4.893-23.461-9.018-34.605-4.351-10.8-8.245-21.75-12.617-32.538a1608 1608 0 0 0-10.865-27.767c-2.37-4.962 2.601-7.61 6.154-10.104 28.65-21.936 47.599-54.529 56.45-89.211 7.217-28.212 8.483-58.45 1.424-86.865-8.49-38.4-34.669-78.378-60.242-103.281-27.202-29.043-60.001-51.858-94.025-72.025 25.445-14.754 32.51-53.972 13.998-77.166-16.424-23.514-52.879-29.157-75.496-10.904-22.636 17.166-27.939 52.524-10.68 75.574 3.972 4.642 9.224 9.834 14.178 12.496-44.983 26.621-88.234 58.747-119.148 101.655-25.229 32.14-39.301 72.469-39.802 113.214.654 31.288 7.544 63.32 23.405 90.624 10.456 19.363 25.298 36.177 43.218 48.901 4.334 2.422 2.23 7.164.624 10.86-5.933 14.713-11.389 29.616-17.322 44.319-5.976 19.627-26.593 45.223-2.94 64.941 19.814 14.448 45.138 17.702 68.627 21.45 9.054 1.467 18.322.812 27.338 2.536-.714 18.727-23.308 19.225-36.586 18.998-29.554.005-59.077 0-88.624.002-42.176-.003-86.379-3.02-126.151 14.23-8.501 3.846-18.422 8.679-25.112 14.151-5.488 4.515-2.742 14.958-3.527 22.51zm26-48.25c.155.526.338.91 1 .75 20.898-19.311 51.735-21.402 78.556-21.5h137.707c11.352.143 22.712-.111 34.023-.931 7.835-.616 17.223-2.892 23.101-7.256 9.536-7.34 11.48-19.903 13.154-31.02 1.757-11.452 1.256-24.061 2.459-35.293-3.36-1.115-7.814-.067-10.977-.393-1.285.303-4.22-.113-4.543 2.023.134 1.678-.157 3.378.14 5.058 1.438 12.974-5.827 25.77-16.125 33.074-9.362 6.658-21.085 8.971-32.357 8.737-44.114.168-88.242-.202-132.354.11-21.019.49-42.422.119-62.867 5.916-9.061 2.65-18.264 6.358-25.26 12.88-4.456 3.94-4.064 8.938-4.35 14.09-.385 4.612.016 10.43-1.307 13.755m155.04-379.787c.48 18.83 3.227 37.388 10.112 54.839 9.803 24.394 27.893 44.644 50.498 57.91 24.634 13.612 52.725 21.1 80.988 20.288 38.585 1.233 79.418-9.486 107.94-36.74 28.146-26.766 41.006-67.272 37.704-105.607-2.034-36.77-17.835-71.474-39.849-100.456-21.671-28.063-48.073-52.586-78.49-70.919-4.926-2.947-9.791-5.986-14.835-8.718-4.448-2.17-9.106-5.932-14.961-2.606-36.293 19.232-69.167 45.566-94.637 77.873-12.869 15.669-23.553 33.211-31.351 51.92-8.484 19.577-12.27 40.881-13.119 62.216M1356 2157c14.543-.401 31.787.13 45-2v367c27.896.82 56.272-.179 82.7-10.398 12.177-4.091 24.095-9.067 35.317-15.324 5.094-3.386 11.374-6.994 14.602-11.572 3.621-5.577 1.873-14.05 2.381-19.706h197v51c21.426.028 43.148 1.157 64.23-3.556 14.572-2.838 28.83-7.047 42.928-11.653 5.21-1.726 10.451-3.45 15.478-5.643 4.166-1.788 9.326-3.626 12.58-6.308 3.592-2.875 2.664-8.757 2.784-12.789V2210c9.324-1.31 19.92-5.62 26.666-11.002 3.18-2.686 8.974-6.729 8.85-10.633-1.676-3.913-7.55-6.46-10.49-9.34-10.299-7.875-20.543-15.836-31.003-23.497-10-7.67-20.382-14.906-30.023-23.028 24.053-4.648 48.285-10.973 70.78-21.036 12.132-3.655 9.17-16.622 9.22-24.824v-216.668c.196-7.148-.247-14.32.151-21.452.09-5.82 10.267-4.988 13.798-7.569 4.989-2.17 9.775-4.934 13.51-8.945 1.648-1.817 3.94-4.125 2.806-6.364-29.793-24.31-61.486-46.765-91.79-70.537-7.76-5.72-15.167-11.988-23.083-17.485-6.18-.677-11.626 7.784-16.413 12.41-7.675 8.064-15.5 15.996-22.85 24.34-4.235 3.823-7.67 8.368-11.524 12.525-3.01 3.906-9.425 8.033-10.605 12.105-27.607-.76-55.478.926-83-.5 31.92-18.76 63.027-38.963 94.026-59.18 15.975-10.556 31.853-21.238 47.34-32.488 3.853-2.6 8.08-6.527 12.365-7.474 14.347-.221 34.143-5.064 34.269-21.358-30.225-7.668-60.296-16.009-90.592-23.437-14.754-4.058-29.674-7.495-44.415-11.574-7.322-2.104-14.704-3.962-22.09-5.768-7.38-1.69-15.877-4.99-22.903-5.221-9.786 56.512-27.16 111.477-41 167-37.657-.759-75.38.926-113-.5 17.454-1.428 34.07-9.717 45.67-22.767 12.423-13.755 15.817-32.875 14.08-50.7-2.499-17.756-14.576-36.014-26.983-46.412-14.387-11.43-30.705-20.231-47.904-26.633-17.07-5.72-34.725-9.6-52.551-11.977-9.26-1.116-18.518-2.255-27.827-2.65-8.034-.627-17.204-2.337-25.485 2.639.315 5.841 6.973 11.289 10.378 16.866 12.451 17.981 26.026 40.07 33.888 58.59A224.2 224.2 0 0 1 1485 1783c6.385 2.128 11.937 7.64 19.638 9.853 7.112 3.018 14.659 5.004 22.362 5.647-8.252.745-16.58.435-24.854.458-11.046-.766-24.165-8.996-36.67-12.37-18.19-6.951-36.374-13.8-54.553-20.752-9.156-3.368-18.224-6.874-27.32-10.387-9.02-2.542-18.942-8.588-27.603-9.449zm32.496-800.433c2.729 8.997 15.599 11.04 22.658 13.912 9.872 2.697 19.879 4.923 30.04 6.167 31.846 3.03 63.988 2.673 95.922 1.724 22.343-.805 45.054-4.098 65.74-12.982 3.373-1.623 7.47-4.343 8.206-7.651 1.34-8.29-11.683-9.94-16.234-12.635-27.144-8.86-55.98-10.327-84.275-10.102-28.484 0-57.227-.533-85.298 5.039-11.88 3.256-28.94 5.059-36.226 15.023-.668.158-.636.71-.533 1.505M1400 1316.5l.5 1.5c32.262-10.56 67.072-12.076 100.745-12 32.856.135 66.797 1.478 98.255 12 .268-.59.46-1.245.5-2-6.933-13.106-10.228-28.154-17.5-41-26.285 7.225-54.589 6.934-81.716 7-27.699-.083-56.398.27-83.284-7-3.827 5.109-5.405 13.987-8.967 20.64-3.123 6.758-5.691 14.115-8.533 20.86m8-254.5h75v166h34v-166h75v-32h-75v-75h-34v75h-75zm63 1070.469c.035.578.191 1.072.531 1.531 24.871 7.338 48.214 20.567 73.39 26.907 45.55.266 91.13-.049 136.675.093h34.159c9.478 1.142 13.404-5.798 18.48-11.733 7.644-8.171 15.007-16.575 22.478-24.895 3.736-4.25 7.61-8.351 11.19-12.727 1.943-2.009 3.964-3.983 5.716-6.159 1.48-1.674 2.892-3.844 4.881-3.486.98-3.251.198-8.04.399-12.02.175-5.565-5.153-4.94-9.287-4.98h-267.768c-5.559-.236-13.663-1.466-12.835 6.94-.17 8.884.004 17.858.424 26.692-4.788 6.023-11.502 10.668-18.433 13.837m3.102-1272.237c.221 13.895 12.75 26.032 26.333 25.692 13.739-.11 25.69-12.728 25.372-26.427-.73-13.513-13.986-25.2-27.554-24.21-12.512.875-23.86 12.03-24.15 24.945M1491 1927h75v-100h-75zm0 132h75v-104h-75zm18-655.625c.962 12.937.784 27.222 3.283 40.258 1.314 10.038 4.345 20.66 13.074 26.762 13.178 8.108 29.536 6.945 44.295 7.597 16.18.022 32.331-.004 48.505.008h96.402c15.574-.142 31.304-.1 46.544 3.57 13.817 2.608 27.761 7.647 37.397 18.43-.45-5.026-.649-9.29-.746-14.08-.32-3.534-.224-7.167-1.166-10.604-4.59-8.687-16.932-13.397-24.827-16.214-32.02-8.86-65.873-6.113-98.677-7.102-34.73-.072-69.446.088-104.16-.047-14.941-.173-30.358-6.526-38.805-19.347-3.812-5.956-6.16-14.421-5.854-20.882.214-3.19 1.223-8.38-3.313-8.494-3.975-.447-7.972-.09-11.952-.23zM1536 2297h197v-109h-197zm0 140h197v-112h-197zm163-510h78v-100h-78zm78 132v-104h-78v90.91c-.206 3.69.055 7.318.49 10.956 1.151 2.89 6.66 1.616 8.857 2.134z" style="fill:#fff;fill-rule:evenodd;stroke:none"/><path d="M449 2666.5v1.5h2102v-1.5c-63.81-378.768-126.215-757.87-189.705-1136.696-47.349-283.998-94.654-568.016-142-852-4.398-26.67-8.911-53.338-13.325-80.003-1.118-6.656-2.232-13.342-3.35-19.985-.571-3.586-1.119-7.183-2.096-10.662-1.288-2.958-6.82-3.128-9.193-4.54-101.51-33.828-203.017-67.663-304.512-101.514a746151 746151 0 0 1-266.522-88.84c-39.072-12.89-78.06-26.135-117.144-38.98-4.713-1.335-9.273 1.032-13.839 2.453-144.507 48.104-288.95 96.378-433.449 144.467-54.18 18.08-108.385 36.116-162.566 54.195-23.808 7.923-47.625 15.882-71.434 23.805-5.676 1.96-11.407 3.738-17.06 5.726-6.564 1.113-6.72 8.744-7.34 13.268C740.08 921.349 682.77 1265.54 625.383 1609.692 566.339 1961.663 508.308 2314.864 449 2666.5m589-541.5c3.857.012 7.087 5.424 10.36 4.208 11.811-5.88 23.277-17.232 33.19-24.051 10.655-8.647 21.33-17.241 31.457-26.498 15.485-12.814 29.19-27.581 43.493-41.659 1.426 161.823-.26 324.097.5 486 20.78.44 41.702.62 62.153-3.723 14.189-3.337 28.226-7.648 41.618-13.379 9.18-4.039 18.16-8.779 26.24-14.733 7.986-5.562 5.856-15.815 5.989-23.42V1940c10.956-2.668 25.676-6.708 28-19-9.542-3.118-18.815-7.297-28.405-10.31-8.172-3.87-20.158-6.092-28.595-11.19 19.302-29.792 36.678-60.914 52.177-92.866 15.825-32.498 30.19-65.793 42.823-99.634 7.787-.016 16.11.402 23.274-3.3 7.536-3.503 11.077-8.775 14.726-15.2-28.571-11.077-59.58-17.158-88.675-27.131-30.223-8.301-59.945-18.745-90.325-26.369-16.489 87.2-39.067 173.304-70.613 256.346-14.583 40.549-31.424 80.323-49.32 119.485-9.746 19.926-18.947 40.178-29.73 59.575-5.014 9.555-10.206 19.05-15.686 28.339-2.518 4.405-5.162 8.737-7.659 13.148-2.05 4.236-6.507 9.257-6.992 13.107m138-579h23c2.198-12.329 9.21-23.497 20.135-29.903 21.124-11.343 45.994-10.55 69.175-11.095 37.542-.005 75.052 0 112.588-.002 18.772-.234 37.546.287 56.306-.159 16.01-1.03 34.476-8.557 41.796-23.841h2c6.94 14.668 24.561 22.396 39.94 23.672 48.03.936 96.13-.17 144.158.328 23.512.25 47.207-.764 70.553 2.637 10.42 2.005 21.175 4.93 29.676 11.613 8.65 6.466 13.682 16.344 15.673 26.75h23v-80.4c.492-5.869.599-11.666-6.129-15.179-33.795-23.423-76.274-27.236-115.994-26.421h-86.926c-14.493-.324-29.036.426-43.509-.305-6.589-.505-13.485-1.112-19.427-4.316-5.808-3.115-8.136-10.186-8.015-16.379 31.315-4.224 65.929-3.911 93.494-22.15 6.623-4.466 11.87-11.283 13.142-19.301 1.349-6.334-.424-12.545-3.092-18.21-6.371-16.348-12.55-32.752-19.017-49.062-4.012-11.136-8.999-21.991-12.527-33.277 19.49-9.938 36.206-31.41 46.066-48.356 12.236-20.57 19.506-43.962 22.989-67.526 8.255-51.894-10.836-104.427-43.447-144.333-31.034-38.566-70.92-70.747-114.608-93.785.737-2.75 4.586-4.254 6.811-6.502 19.293-15.728 24.432-46.716 10.597-67.806-6.599-9.59-15.77-18.172-27.005-21.98-12.081-3.883-25.445-3.641-37.316.889-28.802 12.601-39.156 43.65-28.218 69.918 2.153 5.18 5.033 10.06 9.114 13.956 2.11 2.118 4.195 4.275 6.558 6.115 2.096 1.582 4.822 3.213 5.459 5.41-45.996 24.152-87.662 58.6-119.297 99.915-16.057 21.054-28.189 45.09-35.101 70.683-7.045 26.771-7.147 55.052-1.161 81.997 8.938 39.683 30.659 80.16 66.559 101.405-5.72 17.868-13.658 35.057-20.065 52.69-4.49 12.957-10.623 25.402-14.528 38.534-3.923 24.626 22.591 35.995 39.806 40.559 21.719 6.888 44.4 7.762 66.787 10.217.536 7.72-3.718 15.6-11.339 17.882-14.706 4.625-30.503 2.593-45.61 3.118h-83.23c-39.096-.817-79.958-1.237-116.056 16.474-7.627 3.632-16.842 8.562-22.363 14.078-2.576 2.093-.611 8.106-1.402 10.804zm24.5-43c19.84-20.693 51.143-23.906 78.063-24h138.904c11.374.196 22.744-.057 34.088-.818 8.076-.424 17.6-2.66 23.904-6.67 9.877-6.918 12.383-19.408 13.888-30.578 1.938-12.214 1.544-24.656 2.653-36.934h-16c-.46 13.48-3.885 27.618-15.038 36.362-9.006 7.495-20.932 10.542-32.422 10.62-45.51.288-91.018-.298-136.513.175-21.484.51-43.383.295-64.148 6.755-9.09 3.045-18.94 7.033-24.812 15.097-2.184 4.318-1.293 11.193-2.008 15.912.783 4.705-1.743 10.284-.559 14.079m154.525-384.227c.32 19.114 3.09 37.905 9.951 55.532 9.628 24.529 27.793 44.83 50.356 58.211 24.332 13.506 52.118 21.217 80.11 20.484 38.81 1.38 79.879-8.124 109.312-34.96 29.405-26.673 42.313-67.084 39.826-106.118-1.912-36.655-15.854-72.205-38.288-101.198-21.5-28.966-48.59-53.705-79.179-72.734-5.021-3.009-9.987-6.144-15.116-8.963-4.499-2.08-10.537-6.797-15.832-4.06-37.017 19.058-70.39 45.827-96.307 78.447-13.062 15.727-23.773 33.514-31.7 52.333-8.545 19.793-12.418 41.336-13.133 63.026M1357 2156c15.025.065 30.078-.47 45-2v367c27.382.799 55.228-.532 81.143-10.552 12.015-4.036 23.79-9.001 34.874-15.17 5.094-3.386 11.374-6.994 14.602-11.572 3.621-5.577 1.873-14.05 2.381-19.706h199v51c20.988.117 42.241 1.108 62.858-3.681 14.36-2.794 28.411-7.012 42.3-11.528 9.33-3.949 22.038-6.662 29.127-13.065 2.596-2.96 1.325-8.627 1.715-12.874V2209c13.562-2.25 28.183-8.643 36-20.5-24.62-18.648-49.13-37.734-74-56 2.661-1.935 7.343-1.681 11.039-2.79 14.168-2.745 28.02-6.777 41.655-11.452 6.009-1.82 11.799-4.176 17.524-6.721 5.793-1.96 11.962-5.539 11.724-12.177.166-49.462-.03-98.93.058-148.39v-92.772c.44-4.546-.758-9.634.965-13.959 10.846-3.608 23.271-6.703 30.035-17.239-30.052-23.9-61.295-46.737-91.708-70.266-7.754-5.66-15.036-12.04-23.019-17.37-2.488-2.777-6.539 2.923-8.248 4.111-8.964 9.147-17.167 18.986-26.132 28.126-4.808 4.472-9.24 9.313-13.423 14.348-3.477 5.14-10.871 8.897-12.47 14.051h-86.5l-1.5-.5c32.115-19.439 64.096-39.235 95.335-60.074 15.97-10.521 31.876-21.163 47.34-32.414 3.946-2.416 8.037-6.232 11.898-8.015 6.82-2.07 15.448.188 23.027-4.411 5.186-2.859 12.565-8.52 13.4-15.586-59.48-14.628-118.53-31.394-178-46-9.786 56.512-27.16 111.477-41 167h-142.8c-14.139 1.1-29.42-5.335-41.147-10.378-37.882-13.62-75.107-29.27-113.053-42.622zm30.431-799.42c.13 6.103 7.507 9.32 12.006 11.201 37.45 14.255 78.33 12.111 117.512 12.219 20.035-.197 40.285-.87 59.92-5.204 9.159-2.232 18.403-4.406 26.987-8.408 3.798-1.775 8.043-4.7 8.652-9.185.39-4.178-4.826-7.914-7.401-9.456-32.791-14.116-69.351-13.7-104.236-13.747-35.134.11-71.843-.437-105.012 13.296-3.593 1.785-8.495 5.764-8.428 9.283M1398 1317.5c.03.55.186 1.057.5 1.5 32.843-8.588 66.813-12.929 100.79-12 34.696-1.3 69.203 3.302 102.71 12-4.666-14.187-11.208-27.784-16.632-41.69-1.582-3.93-5.675-2.428-9.16-1.85-11.005 2.014-22.155 3.334-33.269 4.606-30.318.95-60.862 1.739-91.122-.594-6.93-.976-13.87-1.599-20.782-2.648-2.754-.47-5.51-1.047-8.253-1.566-1.615.114-4.634-1.23-6.327-.457-4.65 6.292-6.027 14.812-9.722 21.707-3.15 6.002-5.118 14.137-8.733 20.992m11-256.5h75v166h32v-166h75v-30h-75v-75h-32v75h-75zm11 580.75c30.708 41.422 57.847 88.446 66 140.25 6.724 2.306 12.12 7.75 19.11 9.636 23.34 10.443 52.324 7.271 72.05-9.567 19.52-15.98 27.195-44.286 18.626-68.045-12.63-33.442-46.518-53.339-79.078-63.28-15.6-4.82-31.758-7.975-47.94-10.024-8.584-1.174-17.206-2.04-25.86-2.391-7.696-.837-15.739-1.798-22.908 2.671zm47 491.68c23.017 8.488 46.12 17.865 69.168 26.497 9.897 3.574 20.887 1.263 31.165 2.073h142.63c5.9-.212 13.878 1.617 18.833-4.413 12.076-13.878 24.893-27.101 36.822-41.102 3.38-4.461 8.01-7.955 10.914-12.785 2.712-4.413.713-11.932 1.468-17.7h-288v16.2c.25 7.194 1.4 14.845-6.24 20.452-4.442 4.9-12.03 7.452-16.76 10.778m6.037-1273.169c-.251 14.763 13.167 27.602 27.58 26.704 14.633.305 27-13.197 26.281-27.636-.348-14.558-14.723-26.539-29.058-25.132-13.192.762-24.962 12.46-24.803 26.064M1490 1928h77v-102h-77zm0 132h77v-106h-77zm310-557.332c-1.069-8.403-1.047-16.905-1.799-25.323-.225-5.664-6.354-9.593-10.525-12.494-15.227-9.34-33.529-11.185-50.856-12.856-41.454-1.41-82.925-.911-124.394-.995-19.572-.935-43.387 2.06-60.816-3.374-8.48-3.33-16.215-8.877-21.006-16.79-4.983-8.06-5.839-17.678-6.604-26.836h-16c.506 10.779 1.444 23.446 2.097 33.314 2.212 14.23 3.475 32.693 23.05 38.214 16.063 4.547 36.02 2.738 51.078 3.472h114.964c30.61.89 72.202-4.16 100.811 23.668M1535 2298h199v-111h-199zm0 140h199v-114h-199zm163-510h80v-102h-80zm80 132v-106h-80v92.666c.044 3.856-.267 7.878.697 11.624 1.644 2.535 6.907 1.17 9.256 1.71z" style="fill:#000;fill-rule:evenodd;stroke:none"/></svg>