<svg xmlns="http://www.w3.org/2000/svg" width="3000" height="3000"><path d="M363 2763h2274c-116.777-706.336-235.544-1412.426-352.792-2118.701-7.351-44.171-14.733-88.332-22.082-132.49-.76-5.347-1.88-10.63-2.64-15.97-.062-6.502-4.856-8.386-10.16-9.572-81.497-27.15-162.975-54.317-244.46-81.467-142.336-47.478-284.708-94.881-427.04-142.357-13.532-4.49-27.037-9.017-40.56-13.514-6.477-2.17-12.972-4.309-19.44-6.486-6.235-1.594-13.427-5.493-19.495-5.034-100.387 32.434-200.209 66.92-300.466 99.791-150.35 50.002-300.828 99.614-451.039 150.05-5.982 1.452-6.275 6.662-6.798 11.742-24.43 146.388-48.84 292.799-73.214 439.189C565.92 1546.494 463.462 2154.662 363 2763m650-1642.75c1.171 2.847 3.579 5.81 4 8.75 42.295-16.514 84.303-34.637 124.343-56.141 19.66-9.763 38.953-20.21 57.725-31.584 9.777-5.53 19.464-11.175 28.947-17.195 4.738-2.797 9.227-5.998 14.06-8.62 4.51-2.047 9.8-6.856 13.925-7.46 1.395 7.623 3.99 15.083 6.363 22.436 1.23 3.938 8.69 1.855 11.406 2.564H1410v146h-317c1.53 7.814 4.104 15.48 6.287 23.128 1.031 4.387 9.247 2.17 12.097 2.872H1410v325h-369c2.007 9.032 5.944 17.753 7 27h871.2c17.107-.61 39.478 1.73 46.8-14.5-44.881-42.728-97.345-76.55-144.5-116.5-14.897 18.507-28.843 37.813-43.568 56.457-11.016 14.33-21.794 28.836-33.016 43-4.197 6.456-14.33 4.139-20.873 4.543H1561v-325h315c9.616-.033 19.664.956 28.745-2.905 7.106-2.379 15.12-10.196 6.122-16.64-41.08-34.688-83.314-67.999-125.367-101.455-13.206 16.043-25.33 33.018-37.943 49.526-10.035 12.141-18.862 25.188-28.742 37.449-1.88 2.411-3.575 4.986-5.914 6.963-5.209 2.03-13.03.447-18.556 1.062H1561v-146h92.4c15.622-.017 31.229.02 46.84-.011 12.777-.589 28.419.765 36.76-14.489-38.155-34.846-80.815-64.522-120.5-97.5-18.04 23.695-37.109 46.611-55.194 70.27-3.55 4.148-7.123 9.63-10.772 13.088-1.853 1.939-5.67 1.485-8.63 1.642H1260v-3c56.397-35.526 108.794-78.345 158.37-122.87 24.812-23.555 49.417-47.34 71.5-73.5 11.415-12.34 21.326-26.009 31.77-39.147a435 435 0 0 0 14.745-20.34c4.895-5.991 8.88-16.765 16.615-16.143 25.118 78.692 69.932 151.08 127.602 210.102 55.832 60.325 126.007 105.004 195.898 146.898 7.135-32.733 20.11-64.775 40.64-91.584 19.716-25.447 45.384-49.046 77.86-56.416-.114-5.027.007-10.056 1-15-81.92-15.375-162.306-39.618-239.683-70.486-36.813-15.407-72.315-33.854-105.333-56.326-16.337-11.92-33.074-23.605-47.354-38.058-7.082-7.385-14.67-14.278-21.562-21.826-3.254-3.86-6.608-7.61-9.706-11.595-2.676-3.503-7.05-7.37-7.362-11.709 10.616-.272 21.033-2.812 31.328-5.095 9.334-2.415 19.049-7.769 22.672-17.28-3.207-2.59-9.227-2.582-13.697-4.295-67.253-17.883-134.571-35.402-201.803-53.33-3.692 5.87-3.366 13.475-6.239 19.699-16.321 48.438-40.524 93.908-68.228 136.753-40.854 64.318-89.837 123.209-142.266 178.28-27.488 27.423-54.356 55.49-83.943 80.744-28.35 24.909-58.514 48.663-89.824 69.524zm20 1220c3.715 7.713 8.045 15.66 11 23.75 176.155-23.119 351.856-51.077 528-74v315c22.665-.275 45.847.466 67.946-5.495 14.754-3.487 31.527-9.693 43.947-15.96 10.282-5.182 20.644-10.519 29.632-17.79 3.213-2.967 6.452-5.978 9.083-9.482 2.647-6.846.6-17.064 1.392-25.535V2268c77.584-11.217 155.276-21.97 232.884-33.013 9.066-1.29 18.426-3.863 25.222-10.452 2.772-2.614 5.49-5.922 5.262-9.694-22.06-18.234-47.55-32.625-70.909-49.184-23.35-15.945-47.377-30.783-71.128-46.084-5.282-3.946-12.227-7.629-16.831-11.573h-1.5c-13.345 25.889-30.276 50.115-44.176 75.772-7.562 12.551-14.975 25.161-22.455 37.757-4.093 5.684-7.583 15.464-13.22 17.029-7.673 1.417-15.468 2.079-23.149 3.442v-548c14.307-2.605 34.688-6.865 37-28-63.134-3.887-125.901-12.675-189-17v615c-179.831 23.766-359.258 51.511-539 76zm108-330.625c48.501 31.199 91.02 71.38 126.762 116.587 13.44 16.525 25.868 33.873 36.596 52.28 5.157 7.89 9.083 16.464 13.346 24.827 2.105 4.881 6.256 5.965 10.564 7.4 16.94 6.4 39.326 8.548 55.48 4.079 29.5-6.913 52.965-31.95 58.456-61.696 4.624-23.32-1.119-48.343-13.897-68.167-17.877-28.847-47.043-48.948-78.197-60.83-32.926-13.206-67.875-20.154-103.186-22.536-6.232-1.356-16.005.724-20.424-2.569-5.202 3.832-14.9.835-21.995 2-11.455-.185-22.9.148-34.325.96-5.722.39-11.428.903-17.13 1.358-2.53.34-5.434.3-7.735 1.415-1.318 1.4-3.537 2.762-4.315 4.892M1185 1248c10.283 33.597 20.059 67.637 24.887 102.614 5.015 28.257 7.183 56.81 6.113 85.502.418 5.332-.395 10.675-.38 15.973 3.007 8.258 13.541 12.934 19 18.575 13.106 9.34 28.471 17.01 44.97 17.325 24.308 1.29 47.49-10.81 62.779-29.203 15.68-19.18 21.69-45.091 17.388-69.287-7.47-37.633-32.755-69.385-62.839-92.156-29.671-23.158-64.751-38.173-99.91-50.724-4.516-2.088-8.195-.484-12.008 1.381m29 487.344c19.473 14.708 37.737 31.57 54.87 49.026 30.523 30.165 58.743 62.734 83.114 98.114 8.858 12.88 17.417 25.983 24.686 39.84 3.172 5.83 6.38 15.437 12.007 17.38 25.72 10.696 57.1 12.365 81.45-2.816 17.496-10.285 29.262-28.774 33.728-48.256 7.577-30.895-5.078-63.032-25.679-85.812-19.654-21.84-44.712-38.061-72.315-48.056-26.577-10.187-54.461-17.03-82.738-20.247-14.894-1.868-29.879-2.967-44.882-3.488-7.715-.071-15.42.004-23.124-.029-6.585-.813-16.935 1.48-21.617-2-5.232 3.732-14.505-.483-19.5 6.344M1604 1487c3.703.525 7.154 5.893 10.585 3.742 23.516-14.86 45.013-32.93 66.868-50.088 27.69-23.462 55.186-47.144 81.022-72.63 13.514-12.717 25.946-26.408 38.758-39.757 2.808-3.31 6.43-6.8 11.837-6.26 13.332.396 31.075-4.833 33.93-19.007-30.907-9.825-61.35-21.804-92.116-32.202-30.637-11.277-61.798-21.526-92.384-32.798-17.985 83.232-37.066 166.613-58.5 249" style="fill:#fda;fill-rule:evenodd;stroke:none"/><path d="M244 2863.5c418.26 1.426 837.325-.26 1255.75.5 418.681-.76 837.643.926 1256.25-.5-137.483-816.352-271.828-1633.965-409-2450.5-141.513-45.746-282.358-94.352-423.703-140.74-105.839-35.248-211.646-70.575-317.47-105.817l-60-20a8496 8496 0 0 1-28.008-9.343c-4.68-1.543-9.347-3.083-13.982-4.729-5.086-2.015-9.193.742-14.014 2.193-139.528 46.49-279.049 93.006-418.557 139.507C931.703 319.858 792.72 367.853 653 413c-137.126 816.275-271.612 1634.71-409 2450.5m120-103v1.5h2272v-1.5c-68.931-409.09-136.257-818.54-204.874-1227.691-51.028-306.678-102.288-613.313-153.312-919.99-4.869-28.835-9.565-57.678-14.432-86.51-1.133-7.012-2.351-14.007-3.495-21.008-1.484-6.504-.056-15.285-8.94-17.157-109.703-36.573-219.416-73.135-329.12-109.701-96.009-31.978-191.992-64.023-288-96-41.971-14.027-84.002-27.963-125.969-41.994-9.552-4.304-21.398 2.4-30.56 4.946-155.047 51.948-310.255 103.285-465.433 154.805-58.187 19.4-116.394 38.801-174.566 58.195-25.476 8.525-51.019 16.959-76.48 25.505-5.454 2.642-13.186 3.29-17.14 6.618-2.1 1.795-1.737 5.77-2.555 8.884-62.19 372.917-124.31 745.877-186.485 1118.792C490.857 1998.664 428.048 2380.37 364 2760.5" style="fill:gray;fill-rule:evenodd;stroke:none"/><path d="M1560 1179h2v-145h132.6c5.33-.616 13.51 1.116 17.4-1.5-50.468-1.426-101.435.26-152-.5z" style="fill:#7f6e55;fill-rule:evenodd;stroke:none"/><path d="M1213 1737c3.045-.715 6.34-4.677 7-7-3.628-.187-7.223 4.31-7 7m10 263.375c1.57 1.227 5.3.398 7 .125-2.051-2.971-5.085-2.827-7-.125m6-270c2.087 1.202 6.248.423 8 .125-2.226-2.957-5.842-2.705-8-.125M1547.5 733c1.297-1 3.572-1.095 5 0 .578-1.676-.401-3.993-.5-6h-3c-.284 1.959-2.452 3.507-1.5 6" style="fill:#f1d3a5;fill-rule:evenodd;stroke:none"/><path d="M1011 1120.375c2.608 3.093 4.219 7.715 6.5 10.625 40.998-18.292 83.745-34.028 123.04-56.19 38.963-20.06 77.198-42.008 113.96-65.81 1.827 4.489 2.338 9.615 4.123 14.174 1.697 3.09 1.72 9.914 5.388 10.374 30.945 1.29 62.102-.235 93.092.452H1409v144h-318c3.302 8.832 4.751 20.197 8.42 27.16 10.377 2.002 21.415-.042 31.935.84H1409v323h-369c.84 9.934 6.406 19.009 7 29h874.8c11.477-.246 25.501-.139 35.385-4.309 4.874-1.694 7.993-5.95 9.318-10.91-.438-4.31-7.453-7.942-9.896-10.911-28.95-25.306-59.57-48.586-89.954-72.092-11.361-9.02-23.235-17.394-34.35-26.712-4.679-3.59-10.72-10.421-14.618-4.555-14.184 18.7-28.795 37.08-42.923 55.814-10.86 13.767-20.944 28.12-32.098 41.644-4.33 5.031-14.488 2.041-21.416 3.031H1562v-323h321c12.121.426 29.66-.355 35-15.5-20.484-20.15-44.284-36.54-66.057-55.192-11.19-9.206-22.455-18.303-33.857-27.234-11.762-7.947-21.699-19.2-34.086-26.074-4.789 9.086-13.107 16.538-18.53 25.366-11.064 14.555-21.98 29.216-33.197 43.652-4.218 5.467-8.213 11.101-12.484 16.528-3.573 4.385-6.757 11.173-13.874 10.446-48.317.022-96.608-.003-144.915.008v-145c53.374-1.087 106.914 1.326 160.225-.716 5.803-.988 11.322-4.311 14.44-9.357 3.855-4.888-.588-8.974-4.694-11.948-26.84-22.71-54.575-44.372-82.184-66.142-10.03-8.86-23.407-17.37-32.287-25.837-18.446 23.32-36.985 46.593-55.256 70.055-3.475 4.476-6.98 8.932-10.6 13.292-4.013 4.166-11.771 2.013-16.937 2.653H1262.5l-1.5-.5c55.998-36.655 108.986-78.222 158.37-123.37 24.992-23.634 49.593-47.617 71.862-73.863 21.37-25.034 42.06-51.204 59.268-79.267 25.505 79.735 69.429 153.709 128.37 213.37 56.598 61.041 127.565 106.602 198.63 148.63 6.444-32.958 19.986-64.716 39.988-91.807 19.918-25.707 45.605-49.809 78.512-57.193-.138-5.687.336-11.362 1-17-81.606-15.26-161.608-39.473-238.715-70.083-73.138-30.48-143.75-73.305-192.285-137.417 20.59-3.371 48.592-4.163 55-25.5-72.022-18.147-143.683-38.293-215.688-56.375-4.024-.728-4.641 3.813-5.601 6.879-13.111 51.232-39.751 97.297-66.991 141.959-41.677 65.615-90.82 126.39-144.322 182.64-53.84 56.75-112.727 109.707-177.398 153.897zM1043 2365c176.182-22.766 351.881-50.715 528-74v315c22.087-.144 48.492.358 68.237-5.061 15.555-3.818 30.809-9.003 45.175-16.144 10.428-5.3 20.993-10.63 30.113-18.04 3.13-3.031 7.25-6.52 9.275-10 2.57-8.16.23-17.236 1.2-25.617V2269c45.837-6.777 91.81-12.981 137.663-19.607 23.55-3.478 47.153-6.66 70.713-9.953 18.225-3.8 48.023-1.104 56.624-24.94-26.311-19.83-54.276-37.398-81.54-55.843-26.747-17.93-54.228-34.727-80.96-52.657-15.229 24.718-29.727 50.095-44.652 75.038-7.51 12.52-14.984 25.026-22.307 37.641-4.64 5.189-6.471 14.16-12.452 18.21-7.058 3.232-15.582 1.036-22.589 4.111-1.426-181.873.26-364.062-.5-546 8.555-1.222 17.115-3.552 24.6-7.959 8.912-5.146 10.63-13.402 13.4-21.541-63.969-4.68-127.955-13.183-192-17.5v615c-179.831 23.766-359.258 51.511-539 76 1.56 9.025 9.413 17.716 11 26m96-355.75c1.477 3.683 7.969 4.8 11.028 8.098 30.93 19.624 57.684 44.643 82.842 71.022 19.118 19.276 35.517 41.07 52.02 62.565 11.43 16.425 22.123 33.347 30.793 51.403 2.746 7.478 12.554 10.177 19.54 11.962 13.5 3.663 30.213 4.962 42.978 3.093 19.303-4.046 37.997-13.94 49.977-29.991 12.088-16.786 18.811-37.615 16.427-58.406-1.95-28.57-17.536-53.685-38.475-72.366-14.665-14.592-33.218-24.7-52.242-32.3-62.486-26.266-132.051-27.738-198.539-22.291-3.248.37-6.6.335-9.76 1.261-2.73.257-4.396 4.204-6.589 5.95m44-761.863c12.52 36.968 22.168 75.117 27.244 113.9 5.27 30.806 5.596 62.228 4.319 93.333 13.157 15.479 34.56 29.007 52.867 32.799 31.91 7.606 67.015-9.523 82.822-37.749 17.3-28.689 14.374-66-1.131-94.679-7.395-14.172-17.338-26.932-28.723-38.093-33.747-35.644-79.947-56.432-125.496-72.22-4.018-1.304-8.905 1.531-11.902 2.322zm31 488.191c53.83 46.93 105.756 98.801 144.68 159.448 4.844 7.241 9.145 14.806 13.569 22.304 4.426 6.375 7.213 15.263 11.396 21.01 24.395 13.43 61.553 14.487 83.902 1.46 25.728-12.96 40.128-43.012 39.37-70.96-.323-28.326-14.225-55.165-34.787-74.21-27.918-29.74-74.575-45.813-109.672-54.524-43.792-10.524-88.953-10.858-133.639-10.106-2.923-.186-5.837.085-8.704.468-2.433.61-4.056 3.673-6.115 4.532zM1612.5 1494c41.716-28.179 81.074-60.519 118.37-94.37 19.648-17.083 37.87-35.766 56.226-54.237 4.298-4.881 8.399-9.916 13.274-14.263 3.25-2.945 6.37-7.836 11.982-8.06 13.016.728 30.348-3.021 36.648-19.132-60.94-25.44-126.06-43.362-187.5-67.938-9.143 44.595-19.272 89.198-29.707 133.54-5.121 22.187-10.28 44.348-15.796 66.437-2.99 10.798-5.588 21.69-8.831 32.412-1.39 5.302-3.217 10.502-4.189 15.91-1.22 2.426 1.453 3.819 3.338 5.25 2.092 1.44 4.283 2.77 6.185 4.451" style="fill:#000;fill-rule:evenodd;stroke:none"/></svg>