<svg xmlns="http://www.w3.org/2000/svg" width="3000" height="3000"><path d="M1715 2207v-256h155.4c10.113-.386 35.201 2.475 37.982-14.644.717-4.938-8.163-8.244-10.132-11.575-28.525-24.119-58.541-46.387-88.075-69.223-4.664-3.774-9.525-7.329-14.436-10.768-4.18-2.95-7.966-6.437-12.321-9.117-4.364-1.32-7.788 5.333-10.171 7.756-19.505 24.623-38.86 49.37-58.366 73.993-1.621 1.6-3.032 3.948-4.694 4.926-7.787 1.335-15.893.186-23.755.652H1372v-127c102.037-4.752 203.822-16.138 304.596-32.783 12.803-2.166 25.59-4.415 38.326-6.92 5.697-.91 12.29-2.388 17.53-3.05 5.34-.457 10.32 1.97 15.298 3.419 9.6 2.671 19.46 4.63 29.46 4.33 8.33.111 17.657-1.2 23.9-7.335 1.902-3.055-2.838-6.601-4.628-8.278-37.92-36.92-77.945-71.548-115.482-108.883 27.535-10.025 56.931-18.616 80.507-37.146 17.823-13.093 33.03-32.276 35.273-55.04 1.626-17.885-1.868-36.502-12.683-51.289-3.246-5.35-7.85-11.15-11.836-15.25-3.526-3.94-10.174-6.153-8.209-12.87 4.166-19.937 2.428-41.12-4.317-60.182-6.522-17.452-18.416-36.182-29.107-49.384-7.857-9.069-17.92-19.008-27.219-25.1-6.057-3.153-6.43-8.748-7.152-14.532-4.268-20.003-17.666-38.466-36.143-47.65-3.658-2.002-7.712-2.963-11.593-4.374-5.865-3.208-9.554-11.764-13.841-16.624-13.506-21.046-24.707-44.186-28.415-69.206-5.287-26.293-8.178-53.073-9.265-79.853 20.115-4.574 38.752-15.383 53.578-29.548 14.992-15.358 21.322-37.574 17.261-58.572-2.114-11.803-7.357-23.204-16.075-31.613-8.49-9.423-20.3-14.297-31.764-18.767 27.61-33.668 36.135-79.31 30.464-121.702-4.362-41.323-26.152-80.508-59.83-104.966-65.683-48.249-172.69-32.964-216.765 37.369-19.154 28.132-26.629 62.66-25.849 96.299.634 33.345 10.297 67.08 31.98 93-21.892 6.833-42.479 23.023-47.061 46.763-6.118 23.585 1.77 49.614 20.296 65.468 13.443 12.333 33.56 22.404 49.765 26.269-.444 22.068-3.38 43.967-6.3 65.792-3.702 19.639-7.361 39.725-16.877 57.574-3.798 8.207-8.075 16.15-13.159 23.618-4.743 6.17-10.26 17.062-16.797 19.295-16.361 4.766-29.862 16.533-38.066 31.263-3.775 6.963-6.858 14.376-8.406 22.179-.764 3.463-.658 8.088-4.335 10.765-24.918 17.125-43.367 42.139-55.922 69.35-5.704 12.938-9.577 26.864-9.138 41.097 0 6.985-.27 14.027.922 20.937.606 2.86 1.274 5.694 1.467 8.61-2.015 5.247-8.545 7.538-11.652 12.447-7.334 8.376-13.175 17.855-17.164 28.229-8.037 20.56-6.06 45.045 5.805 63.64 20.638 31.254 57.291 47.084 91.327 58.6 56.886 17.99 116.943 22.817 176.24 24.515 60.266 1.431 120.97-3.522 180.055-14.411-67.343 34.812-137.924 62.86-209.541 87.514-17.84 6.133-35.626 12.445-53.594 18.186-6.66 2.3-13.388 4.406-20.047 6.7-6.058 1.934-12.147 4.035-18.352 5.407-20.616-5.411-40.804-14.172-61.275-20.452-10.03-3.9-20.368-6.901-30.505-10.479-9.587-2.864-20.518-8.186-29.686-9.376v488h-183c1.706 8.342 5.085 18.008 7.269 25.493 1.784 4.181 10.164 1.613 13.325 2.507h832.962c9.028.192 18.428.435 26.822-3.514 6.507-3.103 12.396-11.974 5.693-16.408-18.93-16.743-39.486-31.553-59.144-47.393-19.913-15.06-39.036-31.168-59.172-45.92-2.319-1.906-4.694-3.967-7.773-4.268-2.772-.373-4.64 4.197-6.308 5.58-13.345 17.356-27.077 34.423-40.527 51.697-6.698 8.523-13.34 17.076-20.027 25.595-1.623 2.187-3.326 4.327-5.603 5.862-8.895 1.753-18.477.041-27.517.769m-651.504 306.883c-.084 2.561 2.583 4.98 3.698 7.455.825 1.118 1.615 2.58 2.657 3.198 1.317-.059 2.873-.153 4.057-.324 13.79-3.471 27.529-7.169 41.27-10.827 78.536-22.193 154.492-54.192 224.505-96.21 25.116-15.859 50.196-32.026 73.6-50.372 5.205-4.16 10.392-8.324 15.48-12.618 2.662-1.974 4.882-4.48 7.448-6.557 2.51-1.813 5.474-5.175 8.109-5.087 12.34.697 30.11 1.377 34.186-11.633.081-2.788-4.876-4.15-6.34-5.82-38.325-23.41-76.46-47.107-114.665-70.705-7.438-3.878-15.215-10.123-22.189-13.365-5.147-2.266-7.021 1.895-9.057 5.682-15.3 26.832-33.305 52.119-52.58 76.206-57.818 72.597-126.832 136.92-205.59 186.339-1.689.79-3.186 2.342-4.634 3.097.013.426.019.876.045 1.541m219.86-1078.41c.23 7.922 5.374 11.827 10.98 15.1 5.36 3.541 10.815 6.917 16.532 9.854 30.963 14.714 64.56 23.44 98.412 28.265 62.88 8.509 127.148 8.685 189.887-1.217 22.173-3.754 44.234-8.778 65.323-16.663 17.1-6.942 35.818-13.761 49.334-26.9 5.162-7.7 2.358-16.649-4.36-21.445-7.372-5.309-14.606-1.714-21.35 2.537-25.392 16.341-54.985 24.464-84.353 29.716-47.375 8.337-95.69 8.72-143.57 6.842-45.393-2.593-92.167-8.443-133.625-28.299-9.618-3.685-19.516-13.782-29.541-13.088-7.296.719-13.277 8.074-13.668 15.298m10.751 108.771c.096 11.728 12.343 16.039 20.112 19.245 25.458 10.662 52.544 17.422 79.573 22.56 20.953 4.13 42.142 6.606 63.438 7.925 8.057.577 17.025 2.378 24.232-2.466 5.112-3.45 9.59-9.23 6.122-16.804-6.206-12.309-21.68-10.7-31.913-11.852-36.096-3.147-72.26-8.829-106.805-20.052-6.594-2.389-13.393-4.253-19.922-6.822-6.765-2.503-14.796-6.475-21.597-5.84-7.007.482-13.272 6.808-13.24 14.106m57.031-221.239c.105 9.969 10.302 13.847 17.381 15.7 51.292 14.693 104.79 15.186 157.571 14.294 26.368-.521 52.73-3.215 78.693-7.662 11.714-2.817 26.002-5.265 35.97-10.259 13.111-5.807 8.936-24.64-3.375-27.83-9.09-2.034-21.274 3.163-31.938 4.37-40.095 9.186-81.262 10.192-122.143 9.382-20.083.224-40.137-1.723-59.98-4.597-9.724-1.432-19.44-3.08-29.105-4.853-9.242-.957-19.89-5.188-28.44-4.914-9.13.805-14.695 7.966-14.634 16.37M1372 2207h206v-256h-206zm12.094-1185.529c-.212 12.14 10.016 15.695 18.128 17.77 36.273 12.514 75.002 19.813 113.488 17.208 19.79-1.232 39.242-5.412 58.413-10.23 9.096-2.465 18.121-5.122 27.049-8.123 8.428-2.086 17.246-8.43 14.34-20.11-2.717-10.655-13.587-13.915-22.147-9.895-31.053 12.043-64.6 17.139-97.803 16.69-16.758-.831-33.708-1.417-50.056-5.613-8.07-1.558-15.961-3.798-23.87-5.995-7.698-1.357-15.977-6.586-23.196-6.854-7.848.345-14.636 7.096-14.346 15.152m42.397-167.068c.796 10.46 13.003 22.978 24.58 13.173 7.493-6.516 7.386-16.362 12.086-24.638 5.178-9.516 14.262-15.843 24.074-19.977 7.059-3.256 16.873-4.817 19.343-15.361 1.266-5.957-.961-12.952-6.53-15.993-7.64-5.273-20.452-.376-26.941 2.855-8.577 4.034-16.916 8.895-23.704 15.644-12.257 11.616-20.026 27.66-22.908 44.297M1564 2274c-1.13 3.794-7.454 6.858-1.948 10.831 4.057 2.781 8.335 5.183 12.461 7.84 40.016 26.235 77.217 56.563 112.437 88.853 25.894 25.6 52.265 50.786 75.09 79.289 8.578 10.403 16.51 21.284 24.427 32.175 6.031 9.122 12.082 21.84 22.595 24.187 20.005 7.072 47.268 7.039 64.046-3.795 13.748-7.505 23.169-20.919 27.808-35.617 8.361-22.626 1.923-51.729-7.006-70.94-10.31-21.056-26.592-37.912-44.004-53.088-37.603-29.973-83.165-47.831-129.042-60.528-51.268-12.573-104.096-18.788-156.864-19.207m98-633.562c.342.41.631.299 1 .062-.32-.203-.644-.43-1-.062" style="fill:#fff;fill-rule:evenodd;stroke:none"/><path d="M449 2668h2102c-110.242-665.144-221.837-1330.12-332.532-1995.186-3.476-20.835-6.96-41.682-10.42-62.51-1.682-10.253-3.434-20.498-5.126-30.74-1.284-4.301-.763-13.077-5.037-14.575-157.034-52.902-314.464-104.735-471.586-157.384-59.003-19.668-117.989-39.359-177-59-12.991-4.38-26.002-8.647-38.997-13.002-3.112-1.025-6.191-2.224-9.42-2.795-5.85.042-13.257 4.126-19.018 5.393-97.504 32.546-195.061 65-292.567 97.54-73.178 24.36-146.325 48.77-219.478 73.159-54.841 18.294-109.718 36.516-164.531 54.86-6.415 1.276-7.163 6.488-7.57 12-26.516 158.994-52.99 317.976-79.524 476.964A2145928 2145928 0 0 0 449 2668m607-459.75c2.317 4.456 3.074 11.572 5.283 17.17.739 4.388 1.859 9.273 8.107 8.555 14.608.07 29.2-.013 43.796.025h788.777c13.423-.126 35.026 2.938 42.037-14.5-20.942-18.118-42.789-35.211-64.755-52.075-10.745-8.668-21.735-17.074-32.647-25.523-10.845-7.65-20.432-17.771-32.27-23.902-14.275 18.563-28.879 36.883-43.302 55.326-7.027 9.324-14.446 18.376-21.562 27.619-1.752 2.311-3.539 4.625-5.947 6.286-9.563 1.81-19.798-.015-29.517.769v-258c58.514-1.096 117.29 1.337 175.74-.722 6.079-1.135 12.262-3.662 15.954-8.896 4.335-5.404-2.78-9.679-6.515-12.883-29.363-25.258-60.679-48.108-91.184-71.907-8.323-5.658-16.758-13.012-26.495-19.592-22.084 25.635-41.532 53.5-63.258 79.432-1.891 2.555-3.99 4.956-6.142 7.268-6.883 2.63-13.81.404-21.07 1.3H1371v-129c72.336-2.622 144.386-10.674 216.175-19.522 35.993-4.837 71.95-10.152 107.68-16.605 9.388-1.593 18.677-3.51 28.037-5.199 6.652-1.816 13.422-2.973 19.77.056 18.246 6.097 45.09 11.118 58.338-1.73-40.167-39.519-83.105-76.586-123-116.5 27.358-7.814 54.773-18.036 78.474-34.197 17.376-12.061 32.86-28.996 37.965-50.086 4.612-17.06.679-34.753-7.056-50.078-5.638-10.82-13.375-20.48-22.743-28.244-3.874-3.554-1.585-8.671-.797-12.657 2.38-16.777 1.881-34.3-3.737-50.385-4.92-14.624-13.971-30.658-21.923-42.29-7.222-10.623-17.627-21.522-26.492-29.157-4.163-3.835-9.836-7.327-13.756-10.671-2.325-5.18-2.19-11.508-4.166-16.901-5.731-19.117-20.198-35.866-38.684-43.588-3.728-1.478-8.04-1.967-10.9-4.915-17.79-22.198-30.997-48.26-37.554-75.982-5.691-29.475-10.182-59.266-10.631-89.349 20.115-4.574 38.752-15.383 53.578-29.548 14.78-15.262 21.538-37.43 16.923-58.27-4.746-23.713-24.612-43.538-48.501-48.182v-1.5c25.517-30.064 35.443-71.172 32.471-109.932-2.254-38.509-17.759-76.845-46.095-103.636-58.652-56.158-164.979-52.486-217.957 9.807-24.465 27.77-36.637 64.669-37.304 101.338-1.246 36.45 8.945 74.324 32.885 102.423v1.5c-13.712 2.718-26.143 11.052-35.476 21.177-9.916 11.228-14.546 26.155-14.412 40.971.18 17.804 8.193 34.943 21.363 46.827 12.158 11.84 27.867 19.664 43.716 25.26 2.213.75 4.487 1.502 6.809 1.765-.266 22.57-3.335 44.983-6.224 67.32-3.696 19.792-7.392 40.055-16.953 58.046-3.907 8.365-8.22 16.509-13.469 24.105-4.636 6.315-10.335 16.928-16.99 18.976-16.322 4.858-29.73 16.756-37.805 31.532-3.742 6.995-6.76 14.453-8.266 22.266-.472 9.448-7.288 12.946-13.918 17.5-22.313 19.414-40.354 44.32-50.255 72.374-5.251 13.66-5.956 28.333-4.998 42.77-.38 6.244 3.412 13.9 1.943 18.888-17.229 15.92-33.072 37.132-33.057 61.967-3.141 46.51 42.48 73.31 75.112 87.776 60.366 25.269 126.56 31.65 191.25 34.024 66.535 2.781 133.528-3.314 198.63-16.044-67.536 36.574-139.514 64.305-211.813 89.814-18.327 6.624-36.795 12.823-55.322 18.886-13.665 4.45-27.196 9.38-41.062 13.121-4.643.772-10.392-2.695-15.525-4.065-35.59-11.602-70.534-25.142-106.278-36.256v488h-183zm8 305.344c1.522 3.047 4.483 6.847 6.5 10.406 38.212-9.492 76.115-20.356 113.117-33.858 52.97-20.137 104.69-43.813 153.324-72.98 23.693-14.262 46.474-30.076 68.859-46.272 11.465-8.369 21.983-17.88 32.798-27.03 4.965-4.708 14.407-.706 21.639-2.296 7.01-.957 13.882-4.477 17.763-10.564-35.088-23.888-72.938-44.374-108.541-67.642-9.167-5.475-18.159-11.224-27.228-16.83-3.29-1.353-7.858-6.169-11.113-4.478-14.959 23.532-29.239 47.788-46.85 69.582-30.997 39.963-64.692 78.126-102.37 111.97-36.064 33.628-75.688 63.993-117.898 89.398zm218.2-1078.155c-.031 8.567 5.37 12.926 11.526 16.395 5.628 3.703 11.444 7.154 17.432 10.247 30.984 14.42 64.446 23.11 98.234 27.772 62.912 8.3 127.183 8.485 189.964-1.24 22.303-3.697 44.476-8.8 65.7-16.636 17.308-6.772 35.593-13.866 49.533-26.644 5.184-7.114 3.787-17.854-3.32-23.229-6.187-5.059-15.171-4.181-21.43.321-25.304 15.878-53.982 25.98-83.463 30.592-47.081 8.878-95.206 9.307-142.868 7.658-45.324-2.469-91.974-8-133.62-27.241-10.586-4.207-21.687-14.662-32.547-14.69-8.117.722-15.121 8.344-15.141 16.695m10.837 108.864c-.395 12.632 12.788 17.289 21.15 20.578 25.357 10.513 52.27 17.178 79.16 22.27 20.705 4.149 41.698 6.395 62.734 7.87 7.996.378 18.18 2.187 24.942-1.653 5.61-2.681 10.332-9 8.502-16.508-3.364-14.618-18.755-13.305-28.976-14.703-35.97-2.613-71.712-8.407-106.25-18.897-7.684-2.62-15.422-5.04-23.055-7.765-7.34-2.638-16.161-7.089-23.476-6.737-8.06.322-15.163 7.126-14.731 15.545m57.028-221.53c-.14 11.462 10.048 14.78 17.454 16.933 47.023 12.44 104.705 16.649 149.154 14.294 25.612-.283 51.346-1.61 76.679-5.565 12.286-1.856 24.419-4.503 36.361-7.87 5.443-1.375 12.038-3.576 15.925-7.151 4.697-4.364 5.314-11.494 3.161-17.264-5.252-14.195-18.999-10.889-30.09-8.387-83.062 19.525-169.585 13.895-252.309-2.363-10.15.321-16.598 7.863-16.335 17.372M1371 2208h208v-258h-208zm12.039-1186.756c-.714 13.626 9.731 16.592 20.026 19.625 36.463 12.44 75.33 19.273 113.922 16.56 19.86-1.245 39.396-5.495 58.623-10.338 9.294-2.539 18.554-5.231 27.655-8.356 10.734-2.39 15.503-11.354 13.374-21.086-2.216-10.541-12.987-14.58-21.775-11.416-30.975 12.363-64.343 17.662-97.575 17.591-17.315-.764-34.804-1.532-51.69-5.827-7.935-1.547-15.688-3.9-23.498-5.97-7.681-1.579-16.015-6.566-23.288-6.863-8.683-.237-16.304 7.143-15.774 16.08m42.425-166.746c.372 12.735 11.742 20.28 22.609 16.486 8.655-3.173 11.248-14.987 14.014-22.595 3.37-9.432 10.71-16.826 19.587-21.2 6.1-3.78 14.635-5.703 19.965-9.582 9.277-6.7 8.283-23.707-2.735-28.1-9.812-4.862-23.928 3.142-31.969 6.386-22.228 11.228-38.294 33.652-41.47 58.605M1560 2281.468c50.007 32.528 98.07 69.043 140.445 111.255 33.468 30.378 62.76 65.321 88.92 102.096 4.97 6.132 8.805 16.21 14.886 19.327 15.844 6.467 33.337 9.16 50.277 5.637 28.075-6.126 48.473-33.163 49.045-61.552 1.421-21.555-5.824-43.009-16.739-61.216-34.693-53.06-94.672-81.522-153.393-98.899-53.776-15.877-110.11-21.744-165.966-23.116H1565c-.454 2.944-3.474 4.223-5 6.469m110-644.03c.342.41.631.299 1 .062-.32-.203-.644-.43-1-.062" style="fill:#000;fill-rule:evenodd;stroke:none"/></svg>