<svg xmlns="http://www.w3.org/2000/svg" width="3000" height="3000"><path d="M1007 2627h944.4c13.074-.591 28.646.944 40.534-1.06 10.09-1.165 24.718-13.835 14.243-21.429-31.578-26.878-64.463-52.128-97.347-77.358-12.422-9.267-24.528-18.935-36.798-28.387-5.57-3.98-10.876-8.305-16.302-12.46-2.401-1.617-5.577-4.654-8.174-3.525-15.882 18.452-30.22 38.536-45.826 57.295-11.22 14.562-22.7 28.936-34.07 43.383-4.305 5.312-7.379 12.684-16.544 11.541H1584v-407h278.4c11.168-.164 22.352.21 33.505-.14 9.068-.426 20.095-3.335 24.974-10.404 6.972-9.265-2.758-14.354-9.273-19.58-24.08-19.797-48.673-38.967-73.154-58.236-18.53-14.555-37.384-28.625-56.18-42.814-3.667-1.597-7.489-7.815-11.226-5.763-11.207 11.827-20.415 25.643-30.933 38.084-15.444 19.026-30.577 38.314-45.834 57.48-3.487 5.225-7.104 10.6-15.226 9.373H1584v-359h343.2c9.825.075 22.761-1.456 29.471-8.28 2.68-3.022 7.142-8.523 3.8-11.992-27.324-22.575-55.037-44.807-83.097-66.472-21.405-16.082-42.507-32.56-63.521-49.143-3.418-2.392-8.991-8.936-12.543-5.411-24.04 28.668-46.128 59.093-69.756 88.125-3.066 3.749-5.846 7.684-8.948 11.391-2.43 3.1-5.201 6.823-8.085 9.011-8.012 1.664-16.707.135-24.87.771H1041c1.958 9.802 5.295 19.384 8.188 28.93 1.398 5.094 11.219 2.03 14.593 3.07H1409v359h-330c1.471 10.9 6.898 21.024 8 32h322v407H999c1.231 10.94 6.76 21.042 8 32m560.5-1697c-.412-25.534 4.26-51.682 3.43-77.392-1.147-28.042-31.312-37.713-51.93-40.608v-58h36c2.612-.361 7.018.48 8.355-1.81 1.383-8.589.122-17.526.645-26.19h-45v-40h-38v40h-45c.733 8.514-1.057 19.188.97 26.766 8.528 2.682 18.478.197 27.348 1.234H1481v58c-14.929 2.568-30.873 6.662-42.065 17.64-12.841 13.085-10.18 29.387-9.296 45.869.365 18.09 3.254 36.481 2.861 54.491-29.557-30.46-71.629-48.566-113.976-49.296-42.751-3.782-88.44 13.201-113.075 49.61-22.469 30.758-29.673 77.07-26.531 110.993 2.165 38.15 17.08 74.568 35.81 107.33 21.038 36.692 47.872 69.715 76.333 100.804 2.906 2.684 6.15 6.067 5.741 9.886-4.803 66.174-8.924 132.419-13.891 198.578-.365 8.238-1.776 18.227.543 25.61 4.456 12.68 16.582 20.605 27.98 26.221 18.97 9.338 39.934 13.626 60.545 17.419 20.459 3.494 41.061 6.446 61.774 7.901 48.87 4.017 98.165 3.3 146.956-1.302 34.413-3.731 69.331-8.737 101.82-21.178 11.446-4.87 22.915-11.117 30.264-21.555 7.524-11.234 4.824-22.21 4.189-33.852-2.827-40.78-5.582-81.574-8.498-122.337-1.46-20.474-2.886-40.926-4.208-61.406-.14-5.053-.979-10.078-.973-15.121.108-3.804 3.244-6.243 5.63-9.001 6.895-7.99 14.412-15.422 20.972-23.703 33.968-39.603 64.152-83.642 81.15-133.353 9.594-27.656 12.17-56.897 9.555-85.898-1.995-27.664-10.967-55.103-27.215-77.668-25.067-35.385-70.067-51.944-112.394-47.967-42.195.89-84.077 18.92-113.501 49.285m-91.5 286c-.488-21.25.869-42.585-1.143-63.76-6.048-65.755-29.935-131.568-74.387-181.19-22.067-23.866-52.234-43.38-85.86-43.218-16.263-.42-33.63 3.155-47.072 13.15-13.187 9.462-23.063 23.141-29.075 38.114-8.546 20.726-10.486 47.642-8.875 67.892 4.405 32.828 18.354 63.765 34.838 92.179 15.904 27.81 35.327 53.408 56.533 77.325 4.29 4.548 8.646 10.772 13.544 13.972 1.81 1.802 5.49.31 8.286.068 43.904-8.641 88.433-14.252 133.211-14.532m-25-28c1.226-61.004-13.556-123.426-46.702-175.07-15.564-24.24-38.07-47.447-68.019-51.937-15.125-2.427-31.657-.82-45.028 7.202-12.521 7.353-21.16 22.713-25.131 34.925-10.755 33.857-5.86 70.935 9.007 102.723 13.539 29.878 32.585 56.876 53.283 82.164 3.071 3.8 6.667 8.266 9.96 11.283 37.298-2.856 74.847-12.368 112.63-11.29m-116 232c53.676-14.63 109.642-18.605 165.105-18 55.303-.216 111.464 2.714 164.895 18-.529-8.342-.885-16.717-2-25-106.135-28.724-219.873-28.7-326 0-.523 8.357-1.581 16.67-2 25m7-84.25c.778 1.53 2.954.678 4.212.39 24.767-6.754 50.463-9.863 75.934-12.335 78.422-7.154 159.009-4.64 235.854 12.695-2.595-7.04-.216-15.216-1.914-22.485-.12-6.473-10.623-6.013-15.052-7.768-43.205-9.316-87.453-14.387-131.656-14.31-7.885-1.062-17.115-.333-24.356.063-28.327-.152-56.553 3.12-84.601 6.6-13.905 2.51-27.932 4.496-41.697 7.717-5.724 2.042-15.176.741-14.97 9.567-1.346 5.955.647 13.832-1.754 19.866M1499 1039h2c5.413-16.46 13.03-32.25 20.45-47.87 3.806-6.526 8.388-12.985 7.55-20.861-.019-31.99.023-63.98-.013-95.954.198-10.564-3.267-21.822-11.958-28.418-8.002-5.403-18.75-6.051-27.733-3.097-18.93 5.892-18.884 27.932-18.296 42.112v81.708c-.785 6.645.073 13.02 4.14 18.406 8.864 15.285 15.149 31.907 21.935 48.153A38.6 38.6 0 0 1 1499 1039m-1-24h4c1.57-12.125 6.158-23.698 9.63-35.332 4.628-10.762 3.235-22.71 3.37-34.156-.808-20.115 1.057-43.888-.748-62.286-.836-6.183-1.973-14.377-10.869-15.563-5.095-.995-12.859.098-15.65 6.478-3.64 10.797-2.719 22.345-2.733 33.517V961.5c-.879 8.573 2.272 16.403 5.39 24.167 2.53 7.896 4.817 15.838 6.762 23.894.405 1.79.748 3.61.848 5.439m26 201c37.395.11 74.609 4.498 111.45 10.57 6.66 1.027 13.24 2.585 19.884 3.669 3.029.474 6.093 1.252 9.14 1.186 32.915-31.843 59.6-70.474 81.182-110.72 11.048-21.399 19.854-44.106 24.07-67.894 3.361-25.051.682-50.97-8.276-74.605-6.829-16.792-18.326-32.382-34.5-41.211-30.251-15.833-68.9-10.51-96.562 8.065-40.121 27.291-67.63 70.372-84.294 115.217-9.47 23.867-15.082 49.096-18.985 74.392-4.265 26.886-2.99 54.187-3.109 81.331m25-28c28.702-.411 57.105 4.394 85.485 7.921 5.51.52 10.869 1.804 16.345 2.447 4.371.27 10.214 2.71 13.78-1.919 22.012-26.4 42.97-54.137 57.833-85.318 7.552-16.482 14.045-33.812 16.242-51.917 1.567-18.955.901-38.295-4.986-56.57-4.519-14.023-13.096-27.01-25.711-34.942-23.851-13.09-54.286-8.61-75.889 6.591-30.727 21.885-52.427 62.142-63.741 94.075-14.487 38.12-20.16 79.051-19.358 119.632" style="fill:#fff;fill-rule:evenodd;stroke:none"/><path d="M285 2848.5v1.5h2430v-1.5c-73.642-437.603-145.813-875.53-219.109-1313.203-54.671-328.176-109.408-656.315-164.077-984.478-5.21-30.83-10.248-61.686-15.432-92.51-1.251-7.505-2.488-15.003-3.754-22.495-.919-4.17-1.145-8.46-2.247-12.58-1.025-4.117-5.42-5.18-9.156-6.315-117.305-39.137-234.617-78.213-351.926-117.314-102.68-34.233-205.353-68.476-308.033-102.676-44.992-15.018-89.985-29.992-134.966-44.995-6.062-2.742-11.046-.84-16.431 1.266-83.52 27.892-167.058 55.657-250.572 83.54-146.168 48.728-292.31 97.432-438.478 146.16-27.522 9.152-55.005 18.352-82.52 27.495-6.482 2.208-13.017 4.306-19.485 6.517-2.679 1.235-7.197 1.778-8.4 4.228-68.611 401.467-133.703 803.887-201.523 1205.563C420.651 2033.674 353.5 2441.873 285 2848.5m715-252c2.893 9.684 5.964 19.579 8 29.5h951c16.686-1.388 41.609 5.75 51-16.5-52.261-43.905-106.918-84.928-161-126.5-15.828 18.896-30.581 39.007-46.27 58.076-11.337 14.707-22.933 29.217-34.41 43.799-2.251 2.732-4.382 5.57-6.568 8.353-4.547 4.553-14.081 1.914-21.012 2.772H1583v-409h287.4c11.353-.335 25.01.927 35.213-1.776 4.138-1.33 9.082-2.86 12.464-6.557 2.766-2.96 5.864-7.947 2.903-10.772-47.42-41.494-98.923-78.11-148.48-116.895-23.977 28.874-46.548 58.963-70.298 88.032-6.224 6.586-11.785 18.408-20.535 17.963-32.896.014-65.778-.002-98.667.005v-361h311.4c13.03-.188 26.059.234 39.07-.138 8.769-.68 20.133-2.888 25.71-12.765 3.082-4.528-1.553-7.127-4.542-9.593-49.623-40.331-100.392-79.763-151.138-118.504-19.182 23.229-37.282 47.365-56.035 70.945-8.348 10.308-16.315 20.908-24.598 31.251-2.005 2.312-3.754 4.915-5.998 7-2.467 2.207-7.08 1.736-9.617 1.804-221.696.76-443.639-.926-665.252.5 2.375 4.693 2.547 10.247 4.684 15.048 1.358 4.4 2.424 8.971 4.24 13.17 7.173 2.735 17.714.256 25.264 1.282H1410v361c-109.929.76-220.151-.926-330 .5 3.014 9.277 6.496 20.662 8 29.5h322v409h-410zM1566 932c.367-26.091 4.138-52.089 3.942-78.192-.978-28.169-31.284-37.91-51.942-40.808v-60h35.4c2.66-.2 6.143.294 8.363-.968 2.59-7.158.296-17.524 1.237-25.032h-45v-40h-36v40h-45v13.2c.095 3.047-.217 6.683.372 9.433.156 4.86 9.21 2.78 11.917 3.367H1482v60c-14.929 2.568-30.873 6.662-42.065 17.64-12.943 13.096-10.117 29.406-9.186 45.895-.037 18.744 3.76 37.806 2.751 56.465-29.664-31.452-72.496-50.436-115.645-51.247-42.8-3.436-88.611 14.267-112.532 51.272-21.728 32.084-28.15 72.78-25.26 110.711 3.226 37.822 18.205 73.624 36.958 106.171 20.993 36.567 48.32 68.95 76.472 100.064 6.71 5.375 3.58 16.019 3.387 23.38-4.634 63.76-8.865 127.525-13.3 191.292-.922 7.785-1.01 15.923 3.022 22.958 15.306 22.053 43.782 28.81 68.083 35.032 26.239 5.444 52.799 9.168 79.494 11.391 48.564 3.991 97.602 3.314 146.078-1.33 34.225-3.727 68.958-8.75 101.272-21.118 11.362-4.773 22.503-11.009 29.99-21.116 7.814-11.22 5.12-22.24 4.36-33.956-2.718-40.244-5.64-80.494-8.4-120.73-1.527-20.254-2.75-40.532-4.194-60.784-.332-5.184-.788-10.344-1.075-15.529-.335-6.25 6.804-12.072 11.265-17.436 4.726-4.94 9.787-11.21 14.02-15.826 33.57-39.057 63.712-82.242 81.233-131.045 10.051-27.297 13.469-56.211 11.081-85.092-1.856-27.398-9.768-55.12-25.643-77.788-24.167-36.615-69.928-54.159-112.6-50.482-21.44.497-46.52 6.521-64.22 15.042-9.387 4.503-18.556 9.523-26.993 15.65-4.307 3.102-8.462 6.438-12.632 9.715-4.015 2.554-7.777 8.749-11.721 9.801m-89 285c-.575-21.576.923-43.252-1.043-64.763-5.908-66.096-29.872-132.296-74.487-182.186-22.16-24.288-52.586-43.224-86.37-43.408-17.01-.234-34.56 2.966-48.562 13.338-13.187 9.463-23.063 23.142-29.075 38.115-8.667 20.827-10.352 47.848-9.024 68.208 3.924 33.308 18.207 64.68 34.735 93.464 16.011 27.926 35.425 53.716 56.785 77.724 4.437 4.712 8.168 10.24 13.528 14.025 2.063 1.93 6.029.74 9.033.307 44.283-8.877 89.284-14.526 134.48-14.824m-137.5-18c17.336-3.966 36.038-4.803 53.71-7.797 18.825-2.65 37.747-4.769 56.79-4.203.955-60.481-14.112-122.355-46.983-173.483-15.474-23.92-37.64-46.796-67.198-51.436-14.788-2.464-31.008-.627-43.986 7.388-12.327 7.33-20.762 22.631-24.713 34.651-10.961 33.61-5.56 70.268 9.42 101.69 13.611 29.46 32.348 56.191 52.87 81.197 3.425 3.942 6.527 8.192 10.09 11.993m-5.5 223c53.63-16.074 110.277-18.992 165.907-19 55.62.333 112.562 2.27 166.093 19-.24-9.372-.831-18.722-2-28-106.77-28.902-221.227-28.876-328 0-.74 9.08-1.643 19.69-2 28m7-83c25.172-7.373 51.316-11.283 77.388-13.84 41.072-4.11 82.45-5.634 123.683-3.072 39.2 2.96 79.06 5.445 116.929 16.912-1.012-7.025-1.343-14.111-1.604-21.186.152-2.668-.522-5.66-.816-8.043-2.507-2.668-7.877-2.462-11.799-3.828-12.5-3.198-25.239-5.17-37.946-7.3-49.047-8.006-98.983-9.503-148.486-6.93-24.738 1.201-49.332 4.23-73.729 8.33-11.866 1.922-23.6 4.51-35.284 7.22-8.007.404-6.47 8.289-6.9 14.099.218 5.778-.973 12.414-1.436 17.638m158-296h2c4.884-16.537 14.16-34.999 20.695-49.365 3.579-6.976 8.968-13.56 8.305-21.767-.046-33.201.056-66.365-.03-99.552.068-10.783-3.914-22.56-13.545-28.463-15.753-8.33-42.093-4.507-45.561 20.17-2.145 15.602.13 31.653-.864 47.35v36.303c.058 9.152-.07 18.31.038 27.46.239 5.807 4.235 10.428 6.732 15.47 8.166 15.821 14.925 32.312 21.385 48.879.53 1.103.789 2.3.845 3.515m0-29h2c1.57-12.125 6.158-23.698 9.63-35.332 4.579-10.577 3.284-22.294 3.37-33.556-.88-20.121 1.207-43.955-.978-62.33-.824-6.712-3.12-14.354-12.213-14.263-14.863-1.438-15.022 18.88-14.809 28.214v61.233c.109 4.867-.408 9.931 1.1 14.64 4.532 12.419 9.155 27.32 11.688 39.184.128.73.157 1.478.212 2.21m24 203c37.591.13 74.975 4.513 112.006 10.664 6.856 1.176 13.658 2.638 20.514 3.787 3.441.318 7.402 2.027 10.185.69 17.749-15.526 31.385-35.283 45.906-53.674 20.31-28.114 38.055-58.367 50.059-90.99 12.908-35.096 14.38-75.004.78-110.271-6.902-16.887-18.509-32.713-34.935-41.426-30.633-15.524-69.669-10.361-97.708 7.992-40.492 27.403-68.212 70.811-84.907 116.03-9.582 24.28-15.253 49.956-19.04 75.704-3.96 26.964-2.714 54.304-2.86 81.494m27-30c18.9-.487 37.693 1.528 56.372 4.165 17.842 3.025 36.617 3.764 54.128 7.835 32.3-38.456 63.945-80.855 75.567-130.79 5.53-25.76 2.138-58.505-10.068-79.666-13.233-23.916-43.774-33.215-69.187-24.626-28.446 8.284-48.26 32.255-63.655 55.804-15.669 25.09-26.486 52.862-33.66 81.476-7.176 28.056-10.077 56.932-9.497 85.802" style="fill:#000;fill-rule:evenodd;stroke:none"/></svg>