<svg xmlns="http://www.w3.org/2000/svg" width="3000" height="3000"><path d="M364 2760.5v1.5h2272v-1.5c-68.931-409.09-136.257-818.54-204.874-1227.691-51.076-306.848-102.33-613.661-153.4-920.497-4.868-28.824-9.564-57.688-14.431-86.508-1.116-7.008-2.365-13.985-3.488-20.978-1.2-6.774-.246-15.245-9.425-16.859-109.868-36.632-219.702-73.24-329.563-109.867-95.996-32.013-192.02-63.992-288-96-41.993-13.978-83.98-28.011-125.966-41.994-5.663-2.605-10.407-1.693-15.513.621-156.173 52.06-312.354 104.114-468.521 156.173-58.68 19.531-117.334 39.097-175.992 58.657-25.668 8.506-51.298 17.139-76.962 25.643-6.176 2.075-12.369 4.11-18.537 6.195-3.02 1.124-6.483 1.813-8.8 4.255-62.934 375.423-125.132 751.075-187.889 1126.544C490.857 1998.664 428.048 2380.37 364 2760.5m649-1127.25c1.421 3.014 3.461 6.428 5.5 8.75 26.022-11.15 52.64-21.622 78.234-33.894 44.717-21.847 88.623-45.421 130.561-72.27 62.9-38.853 122.544-83.2 177.504-132.671 13.976-12.554 27.445-25.615 41.071-38.535 19.594-20.027 38.274-40.97 56.327-62.384 8.836-10.7 17.434-21.614 25.204-33.116 4.306-5.452 8.065-11.252 11.878-17.036 1.934-2.839 3.738-5.731 5.698-8.553 1.84-2.759 3.943-6.35 7.023-6.541 12.795 39.96 30.042 79.02 51.556 115.087 32.52 53.465 74.113 101.63 121.366 142.483 46.533 40.613 98.67 74.003 151.578 105.43 7.696-32.054 19.474-63.85 39.746-90.332 19.46-25.708 45.247-49.279 77.754-56.668-.142-5.032.252-10.029 1-15-81.01-17.568-160.894-41.687-237.76-72.692-37.134-15.563-72.617-34.825-105.78-57.65-16.339-11.804-33.004-23.456-47.2-37.882-7.508-6.958-14.6-14.27-21.602-21.783-3.349-3.86-6.48-7.902-9.816-11.769-2.813-3.545-7.453-8.296-7.842-12.224 10.328-.523 22.427-2.73 31.526-5.348 8.206-2.52 20.428-6.847 22.474-18.652-72.382-17.32-144.26-37.538-216.38-56-3.844 5.546-3.877 14.152-6.391 19.665-16.599 48.707-40.79 94.59-68.315 137.969-41.187 64.202-88.672 124.523-141.016 179.968-27.57 27.44-54.416 55.605-84.063 80.886-29.1 24.441-58.072 49.582-89.835 70.512zm48 404c2.225 4.987 2.792 10.765 4.777 15.91 1.374 3.416 1.735 10.342 5.768 10.486 13.88 1.006 27.932-.18 41.832.354h811.367c15.96-.214 37.087.697 43.256-15.078-21.367-19.726-44.705-37.353-67.556-55.33-22.298-18.319-44.857-36.304-67.944-53.592-14.195 18.639-28.615 37.146-42.955 55.667-5.48 6.877-10.72 13.95-16.162 20.854-4.803 5.976-9.312 12.184-14.088 18.169-2.737 2.796-6.885 2.257-10.588 2.31H1574v-223h234.6c13.014-.018 26.036.022 39.043-.012 9.807-.085 23.593-2.705 27.357-14.676-42.404-35.023-86.718-68.188-130.5-101.312-20.92 25.712-41.33 51.889-62.221 77.628-2.678 3.3-5.248 6.724-8.095 9.865-2.595 3.373-8.258 2.259-11.938 2.507H1574v-193h178.2c12.727-.724 43.567 5.202 47.8-16-20.2-15.097-39.025-33.42-59.756-48.197-20.313-15.957-41.65-30.584-61.744-46.803h-1.5c-10.14 15.44-23.506 29.482-34.408 44.556-10.85 12.588-20.013 26.647-31.198 38.925-2.639 2.608-8.374.869-12.293 1.519H1208c2.097 8.725 4.91 17.275 7 26h206v193c-83.607.76-167.478-.926-251 .5 2.221 3.671 2.582 9.8 4.57 14.482 1.553 3.216 1.586 10.167 5.448 10.568 34.785 1.283 69.806-.233 104.628.45H1421v223h-360z" style="fill:#fda;fill-rule:evenodd;stroke:none"/><path d="M1011 1633.5c3.07 2.369 4.075 9.969 8.531 8.742 4.695-1.24 9.084-3.466 13.634-5.12 50.511-20.38 99.754-43.99 146.825-71.412 69.155-39.717 135.607-84.527 196.537-136.105 61.458-52.08 118.996-109.761 164.047-176.94 3.314-4.667 6.695-10.527 9.926-14.665 14.177 39.752 29.936 79.465 52.284 115.487 32.851 53.672 74.668 102.206 122.356 143.124 46.805 40.539 99.034 74.306 152.36 105.389 7.162-32.534 19.442-64.545 39.746-91.332 19.46-25.708 45.247-49.279 77.754-56.668-.056-5.684.527-11.346 1-17-80.672-17.41-160.192-41.525-236.761-72.266-73.455-31.203-143.945-75.393-193.239-139.234 19.901-3.306 46.312-4.262 55-24.562-2.28-2.519-6.123-2.294-9.148-3.471-43.497-11.52-87.102-22.668-130.6-34.13-22.13-5.85-44.375-11.25-66.422-17.369-4.71-1.144-13.415-4.815-14.893.808-5.066 15.768-9.557 31.715-16.226 46.937-18.411 44.487-42.697 86.331-69.39 126.314-40.696 60.652-86.903 117.603-137.745 169.978-12.194 13.908-26.903 25.457-39.309 39.228-39.704 37.302-81.265 72.937-126.267 103.767zm821.5 304.5c-14.623 18.298-28.516 37.204-43.117 55.521-11.059 13.421-20.777 28.074-32.22 41.135-6.138 2.816-16.006.32-22.645 1.344H1575v-221h235.2c13.222-.049 26.43.06 39.639-.032 11.579.734 22.4-4.92 27.161-15.468-42.542-36.489-88.381-69.007-132.5-103.5-21.27 25.364-41.242 51.843-62.253 77.429-5.146 6.738-9.31 15.13-20.403 13.571H1575v-191h178.8c15.84-1.278 40.485 5.731 48.2-16.5-39.549-34.726-81.957-65.97-124-97.5-12.562 14.296-23.512 30.229-35.832 44.784-10.572 12.83-20.257 26.389-31.012 39.062-2.57 2.73-7.715 2.086-11.855 2.154-131.026.76-262.349-.926-393.301.5 3.705 8.676 5.054 18.509 8 27.5h206v191h-251v1.5c1.787 5.323 3.138 10.794 4.77 16.16 1.4 4.071 1.721 9.928 6.309 10.11 13.913.653 27.912-.116 41.84.23H1420v221h-360c1.775 8.807 4.645 17.568 7.313 26.144 1.227 4.663 10.228 1.93 13.28 2.856h807.771c20.916-.718 45.844 1.442 64.822-2.173 5.983-1.56 14.113-5.542 15.32-13.701 0-2.621-3.943-4.444-5.612-6.72-35.434-30.028-72.503-58.152-108.502-87.49-7.03-5.976-15.092-10.678-21.892-16.916" style="fill:#000;fill-rule:evenodd;stroke:none"/></svg>