<svg xmlns="http://www.w3.org/2000/svg" width="3000" height="3000"><path d="M244 2863.5c418.26 1.426 837.325-.26 1255.75.5 418.681-.76 837.643.926 1256.25-.5-137.483-816.352-271.828-1633.965-409-2450.5-141.513-45.746-282.358-94.352-423.703-140.74-105.839-35.248-211.646-70.575-317.47-105.817l-60-20a8496 8496 0 0 1-28.008-9.343c-4.68-1.543-9.347-3.083-13.982-4.729-5.086-2.015-9.193.742-14.014 2.193-139.528 46.49-279.049 93.006-418.557 139.507C931.703 319.858 792.72 367.853 653 413c-137.126 816.275-271.612 1634.71-409 2450.5m121-103c378.06 1.426 756.925-.26 1135.15.5 378.224-.76 756.71.926 1134.85-.5-76.741-453.454-151.165-908.013-227.36-1361.694-28.318-169.825-56.636-339.67-84.914-509.494-12.404-74.351-24.806-148.667-37.174-223.013-5.808-34.835-11.586-69.67-17.426-104.49-2.806-17.009-5.655-34.009-8.487-51.003-2.061-8.097-.64-19.437-9.177-21.482-131.865-43.994-263.778-87.9-395.636-131.881-115.321-38.443-230.674-76.858-345.973-115.337-10.828-4.817-25.392 3.12-38.034 6.794-99.317 33.105-198.64 66.201-297.954 99.3-86.85 29.002-173.745 57.9-260.6 86.871-37.993 12.7-76.016 25.304-114 38-17.528 6.855-36.304 10.872-53.484 18.502-3.065 2.546-1.722 9.059-3.405 13.135-91.308 547.827-182.596 1095.656-273.907 1643.478C432.872 2351.82 400.057 2557.407 365 2760.5" style="fill:#757575;fill-rule:evenodd;stroke:none"/><path d="M1081 2269h-15c-2.697 41.616-8.473 84.127-27.475 121.932-12.056 22.646-38.178 49.077-26.173 82.572 8.095 24.929 36.233 31.25 58.143 23.19 37.028-15.635 41.69-60.275 41.505-91.394.992-35.627-7.862-70.567-19.395-104a790 790 0 0 0-11.397-31.294zm-11-21c26.21.144 53.274 1.18 78.284-8.268 10.657-4 22.224-11.231 30.452-17.552 6.136-4.425 5.545-10.886 5.264-17.143V2185c57.264.76 114.81-.926 172 .5-3.288 23.713-2.866 48.731-6.5 72.5-20.407-20.728-48.512-31.204-76.28-37.411-7.186-1.635-14.44-2.89-21.714-3.983-6.21-1.083-9.717 3.163-13.616 6.731-2.011 3.415 3.69 6.617 5.463 8.56 8.642 7.96 18.039 18.085 24.875 26.428 12.434 15.514 23.147 32.588 31.02 50.848 1.861 4.551 3.807 9.077 5.027 13.84 2.103 15.33 22.164 18.718 34.725 17.987-2.81 21.396-7.52 42.539-12.86 63.43-4.426 15.518-8.704 31.199-15.628 45.843-4.362 10.561-10.89 20.505-19.604 27.971-15.801 11.6-36.763 8.912-55.114 8.49-19.253-1.355-38.477-2.805-57.794-2.734a86.4 86.4 0 0 0-1 16c22.047 4.488 45.606 13.664 58.934 32.982 6.892 9.394 9.953 21.144 11.283 32.551 1.645 12.427 1.835 24.96 1.783 37.467 27.313-1.079 55.001-3.47 80.489-14.287 17.458-8.12 34.944-17.848 48.235-32.164 39.72-44.927 51.883-106.035 63.17-162.813 6.15-35.687 10.903-71.587 14.176-107.649 2.096-17.896 2.83-35.913 4.513-53.837 1.307-9.273.616-18.749 1.878-27.996 1.751-4.085 9.415-3.2 12.63-4.565 4.411-.814 8.578-2.622 12.909-3.689v243c27.724 1.097 55.88-2.22 81.106-14.673 5.542-2.55 11.647-6.397 16.101-9.753 5.474-3.284 6.245-8.492 5.793-13.962V2350h54v66c30.377 1.157 61.036-3.586 88.844-16.426 5.577-3.113 15.47-5.404 15.136-14.124.056-24.6-.01-49.198.02-73.784v-105.578c.186-3.786-1.058-12.05 3.132-12.927 7.96-2.661 16.694-4.905 22.866-11.065 3.594-3.586-.163-6.94-2.876-8.72-21.887-16.524-43.899-32.855-65.788-49.373-5.653-4.038-11.231-8.18-16.79-12.329-1.921-1.556-4.106-3.096-6.676-3.19-7.561 5.003-12.71 12.98-19.1 19.249l-19.5 19.5c-2.393 2.102-4.502 5.076-7.51 6.3-13.965.758-28.22.456-42.2.097-36.165-11.927-70.363-29.978-106.558-41.63-.737 18.897.904 38.215-.5 57-24.483-20.611-49.028-41.155-73.485-61.783-3.264-2.03-6.464-6.636-9.998-6.717-3.322-.221-6.053 5.02-8.492 6.475l-26.258 26.258c-4.138 4.58-9.025 8.317-13.502 12.502-4.108 4.56-7.979 9.388-15.765 8.265v-110h93c.376 8.675 4.356 18.39 6.228 26.045 1.091 5.595 7.553 5.214 11.36 4.955H1785v330.6c-.93 15.814 1.238 34.674-.924 49.082-3.974 14.556-17.703 10.969-28.937 11.318-35.051-1.599-70.116-3.744-105.139-6 .011 3.04-.014 6.014.01 9.043.152 1.857.09 4.204.957 5.719 5.727 2.75 12.036 2.153 18.164 4.271 17.09 3.68 34.171 9.085 47.946 20.293 11.792 8.92 20.783 21.09 26.778 34.493 5.37 12.668 7.441 26.369 9.121 39.902.865 6.11 1.537 12.245 1.713 18.407.229 3.096.268 6.199.361 9.287-.257 7.514 7.444 4.675 12.346 4.347 38.628-4.378 80.424-10.94 111.455-36.647 15.353-12.159 25.567-29.567 30.639-48.292 5.632-20.152 8.255-40.995 8.495-61.873.042-89.769-.007-179.534.015-269.302V2075h35.4c15.434.11 37.047 1.25 41.826-15.233 1.224-3.586-2.779-6.676-4.959-9l-24.37-24.37c-16.03-15.812-32.648-30.971-48.882-46.567-7.85-7.446-15.835-14.86-23.739-22.232-3.277-4.075-1.881-9.698-2.59-14.557-2.96-36.087-32.532-63.776-63.92-77.51-16.497-7.146-33.526-13.423-51.221-16.916-9.232-1.987-18.575-3.23-27.915-4.446-9.076-1.684-18.71-.435-27.63-2.669 2.853-5.306 3.946-12.619 6.046-17.715 1.716-4.56 2.21-14.039 7.035-14.54 51.014-.7 102.13.128 153.146-.245h57.462c7.776.166 15.917-.31 22.818-4.326 5.356-2.506 11.652-10.973 5.68-16.84-19.082-17.279-39.149-33.448-59.18-49.603-14.779-12.011-29.759-23.77-44.694-35.567-2.747-2.07-5.773-4.744-8.343-6.554-5.616-4.227-10.592 6.822-13.84 10.087-14.15 18.495-28.053 37.186-42.407 55.523-3.56 4.627-6.906 9.438-10.56 13.994-2.767 4.17-9.119 3.243-13.452 3.286-14.837-.695-29.958.862-44.711-.5 5.2-28.226 7.691-57.722 9-86.5 10.012-1.476 20.626-3.85 26.919-12.695 3.14-3.731 5.204-8.464 5.403-13.36.89-2.878-4.585-2.819-6.176-3.01-2.666-.127-5.316-.362-7.967-.587-8.712-.802-17.413-1.322-26.12-2.032-17.346-1.364-34.694-2.645-52.028-4.092-25.711-1.19-51.282-4.972-77.031-5.224-1.299 42.644-1.373 85.473-5 128h-167c.174 10.369 5.928 19.77 7 30h156c-5.577 41.842-20.75 82.65-45.881 116.704-24.211 33.469-57.194 59.625-92.619 80.296-19.108-18.963-40.206-35.807-60.46-53.51-6.658-6.93-11.563.941-14.57 5.876a17713 17713 0 0 0-35.242 47.839c-2.455 3.373-5.03 8.187-10.228 7.795v-113h112.8c9.291.04 22.966-.583 27.545-11.95 2.574-4.283 1.33-7.245-2.315-9.832-19.814-19.087-39.644-38.145-60.836-55.708-7.29-5.576-15.475-13.604-22.496-18.01-6.375 3.153-8.95 10.768-13.868 15.869-6.293 8.78-12.941 17.306-19.335 26.01-3.136 4.524-6.472 8.93-9.761 13.33-2.879 3.503-5.557 9.565-11.734 9.291v-109h72.6c18.171-.281 36.371.359 54.533-.233 10.466-1 25.364.926 31.512-13.239 2.3-4.519-1.062-7.777-4.41-10.647-22.994-20.63-47.123-39.956-71.561-58.855-8.087-6.384-16.123-12.825-24.288-19.102-6.701-6.844-12.996 5.278-16.454 9.533-13.87 18.517-28.432 36.47-42.275 54.99-1.456 1.955-3.408 4.029-4.928 5.63-8.593 1.96-17.872.193-26.63.923h-89.656c-6.888-.281-15.055.42-21.34-.416-21.572-7.125-42.483-16.294-63.887-23.897-10.381-4.212-21.009-7.799-31.4-11.945-10.042-3.022-21.326-9.094-30.816-10.742zm50 13c.482 15.073 5.811 29.666 6.862 44.727 3.561 27.325 6.971 54.77 7.092 82.372-.686 10.673-.299 21.465-1.646 32.077-.972 8.885-3.45 19.343 3.666 25.298 9.817 11.189 25.969 16.641 40.229 11.209 21.456-9.03 30.199-33.99 31.177-55.332 2.389-23.175-5.435-45.94-13.865-67.036-12.569-28.397-33.008-52.238-55.26-73.48-4.692-4.944-12.593.296-18.255.165m377-1102h2c4.31 16.594 1.116 34.004-6.647 49.073-13.232 24.06-36.918 46.667-53.828 64.902-15.537 14.908-30.454 30.376-44.52 46.645-9.725 12.041-20.933 23.197-28.285 36.97-22.716 44.453-33.105 94.639-31.72 144.41h510c.95-68.663-2.778-137.26-11.326-205.379-6.172-48.63-14.095-97.282-26.693-144.69-18.702-68.45-50.97-133.476-96.13-188.343C1665.182 909.11 1606.48 863.768 1538 846c.92-30.355-9.344-60.529-26.162-85.566-8.418-11.66-20.778-23.468-31.768-30.743-2.838-2.063-5.942-3.748-9.107-5.214-12.252-1.244-24.68.131-36.963-.477 4.536 32.19 1.978 71.126-5 100h-5c-3.894-20.594-15.558-38.417-31.446-51.722-7.76-6.201-16.3-11.46-25.46-15.32-10.226-4.812-22.166-2.09-33.094-2.958 7.079 40.611 12.06 83.339-1.414 123.486-1.31 3.35-6.888 4.735-9.99 7.2-13.982 7.836-29.476 19.155-38.65 30.757-11.002 11.753-16.674 27.213-21.672 42.172-10.147 28.504-15.433 59.286-31.353 85.518-14.625 21.633-29.11 43.558-37.774 68.495-8.4 22.525-16.456 45.21-25.06 67.653-3.52 9.133-7.448 18.33-11.647 27.101-.157 4.775 2.836 8.696 5.45 12.394 9.006 14.742 18.737 29.031 27.56 43.881 8.503 12.71 15.583 27.532 29.214 35.77 12.692 7.84 28.176 9.288 42.662 10.425 12.848 1.13 26.423-.762 36.778-9.196 16.997-13.09 29.815-30.333 42.879-47.14 9.918-12.533 21.296-23.917 33.688-33.971 8.024-7.275 23.057-6.293 35.173-8.267 18.1-2.51 36.964-4.75 53.367-13.425 14.25-8.118 29.103-23.192 33.789-37.853m-317 1085c18.687 46.817 43.379 93.502 46.509 145.135.306 6.216-.779 12.738 6.096 16.954 8.3 6.734 19.397 10.927 30.147 9.145 16.98-2.335 28.015-19.034 30.465-34.735 2.701-17.062-.093-34.844-7.156-50.51-17.35-38.641-50.772-67.507-86.85-88.193-5.683-4.888-13.293.8-19.211 2.204m4-374h45v-109h-45zm0 144h45v-113h-45zm0 140h45v-110h-45zm70.5-937c7.508-25.325 22.35-49.283 44.5-64.5-1.017-.973-1.797-2.087-2-3.5-17.062-.134-34.723 5.462-47.56 16.822-6.712 5.058-12.62 13.165-15.86 20.054-1.226 3.343-3.961 8.03-2.377 11.844 1.862 3.425 5.57 7.356 7.814 9.62 4.581 4.15 10.104 6.856 15.483 9.66m159-236c.66-2.256.412-4.675.5-7-15.453-3.956-33.298-10.935-48.034-11.922-12.279-.507-26.028 1.264-35.383 10.155-4.935 5.608-8.443 18.59-1.889 22.89 11.934 6.357 31.805 5.832 41.769 1.6 10.457-5.171 20.006-17.437 35.214-16.715 2.544.099 5.743-.21 7.823.992m49.5 1062.25c7.05 1.975 14.071-.225 21.434.75H1812c5.717-11.369 14.57-21.447 21-32.5-7.031-1.259-14.471.369-21.49-1.51-7.032-1.273-13.635-4.223-20.51-5.99-9.09-22.935-24.956-43.11-39.983-62.484-15.817-20.06-33.446-38.52-51.517-56.516-22.215 37.835-57.253 66.298-94.567 88.33-38.79 23.516-82.574 37.433-124.933 52.17 2.269 10.679-8.533 16.177-17 17.75M1590 2320h54v-135h-54zm2-1373.5c1.629 4.111 7.858 6.845 11.08 10.753 28.922 26.69 54.41 58.146 71.848 93.583 27.548 56.587 35.95 120.047 39.483 182.1 2.303 33.857 1.388 67.858 1.55 101.743-1.558 31.84-1.538 64.413-6.961 95.821 21.526 1.417 43.408-.25 65 .5-2.37-94.38-7.891-189.74-33.786-281.13-11.333-42.84-29.45-83.899-55.701-119.679-12.79-17.706-26.274-34.96-41.488-50.666-8.014-7.575-15.719-15.534-24.428-22.33-7.972-5.664-18.209-16.999-26.597-11.195z" style="fill:#fff;fill-rule:evenodd;stroke:none"/><path d="M364 2760.5v1.5h2272v-1.5c-68.931-409.09-136.257-818.54-204.874-1227.691-51.076-306.848-102.33-613.661-153.4-920.497-4.868-28.824-9.564-57.688-14.431-86.508-1.116-7.008-2.365-13.985-3.488-20.978-1.2-6.774-.246-15.245-9.425-16.859-109.868-36.632-219.702-73.24-329.563-109.867-95.996-32.013-192.02-63.992-288-96-41.993-13.978-83.98-28.011-125.966-41.994-5.663-2.605-10.407-1.693-15.513.621-156.173 52.06-312.354 104.114-468.521 156.173-58.68 19.531-117.334 39.097-175.992 58.657-25.668 8.506-51.298 17.139-76.962 25.643-6.176 2.075-12.369 4.11-18.537 6.195-3.02 1.124-6.483 1.813-8.8 4.255-62.934 375.423-125.132 751.075-187.889 1126.544C490.857 1998.664 428.048 2380.37 364 2760.5m716-490.5h-13c-2.697 41.616-8.473 84.127-27.475 121.932-12.428 23.627-39.103 50.288-25.508 82.474 8.263 22.1 37.075 30.866 57.269 20.45 36.592-16.993 39.828-61.666 39.714-92.925.77-35.603-9.716-70.238-20.743-103.628-3.111-9.183-6.608-18.247-10.05-27.297-.066-.326-.145-.707-.207-1.006m-9-23c25.552.211 51.93.947 76.284-8.268 10.657-4 22.224-11.231 30.452-17.552 6.136-4.425 5.545-10.886 5.264-17.143V2184h174c-1.597 12.385-1.751 24.964-3.038 37.39-.88 12.881-2.924 25.676-2.962 38.61h-1.5c-14.288-14.826-32.92-24.923-52.245-31.415a258 258 0 0 0-30.872-8.22c-5.39-1.043-10.771-2.142-16.238-2.653-4.46-.205-10.106 4.96-12.145 7.788 21.136 16.772 37.364 38.552 51.694 61.133 6.416 11.929 12.633 24.131 16.143 37.283 1.583 14.308 23.856 16.195 34.163 16.084-1.933 21.985-7.778 43.472-12.723 64.898-4.453 15.518-8.6 31.254-15.56 45.897-4.338 10.59-10.758 20.56-19.41 28.124-15.839 12.124-37.178 9.111-55.736 8.912-19.187-1.304-38.33-2.79-57.571-2.831-.674 4.633-1.119 9.314-1 14 22.047 4.488 45.606 13.664 58.934 32.982 6.892 9.394 9.953 21.144 11.283 32.551 1.645 12.427 1.835 24.96 1.783 37.467 28.739-1.856 58.47-3.659 84.742-17.094 18.57-8.331 35.038-20.976 48.071-36.472 18.907-23.712 31.143-52.143 39.637-81.05 9.213-30.68 15.585-62.102 20.605-93.71 5.225-32.602 9.025-65.39 11.96-98.259 1.457-16.81 2.662-33.633 4.112-50.436.254-4.492.474-8.98.698-13.459.368-3.095-.19-6.912 1.148-9.291 4.054-3.161 9.053-2.255 13.718-3.923 4.67-.69 8.822-3.12 13.309-4.306v244c27.43 1.152 55.128-2.818 80.005-15.075 5.647-2.745 10.994-6.097 15.96-9.919 5.179-3.482 5.342-8.742 5.035-13.991V2349h56v66c29.723 1.037 59.643-3.977 86.844-16.426 5.577-3.113 15.47-5.404 15.136-14.124.056-24-.01-47.998.02-71.984v-77.985c.654-13.093-.803-26.345.448-39.378-.287-2.984 4.93-3.371 6.799-4.172 7.366-2.576 17.426-6.228 20.753-12.431-30.13-24.025-61.816-46.204-92.5-69.5-12.48 13.017-24.57 26.366-37.733 38.733-2.27 2.438-4.669 4.702-7.374 6.63-14.036 1.566-28.473-.048-42.593.54-9.653-1.544-18.224-7.212-27.519-9.981-26.236-10.658-52.745-20.846-78.781-31.922-2.148 19.445 1.148 39.596-1 59-13.5-12.86-28.826-23.684-42.58-36.253-14.107-10.66-29.12-25.579-42.42-34.747l-30.37 30.37c-4.807 5.388-10.352 9.977-15.731 14.737-2.697 2.464-5.015 5.409-8.032 7.501-2.423 2.007-6.964 1.073-10.367 1.392v-112h114.6c10.785.369 23.065-1.964 27.4-15.5-1.017-.973-1.797-2.087-2-3.5 43.677-12.843 86.795-29.183 126.366-51.927 38.062-21.82 72.244-51.285 95.134-89.073 18.299 18.185 36.19 36.79 52.157 57.082 15.123 19.547 31.183 39.793 40.343 62.918 6.821 1.7 13.325 4.737 20.29 5.972 7.51 1.318 15.137 1.012 22.71 1.028v1.5c-7.33 10.991-15.674 21.969-22 33.5h-380v1.5c1.004 4.973 2.553 9.81 3.916 14.684 1.058 3.31 1.817 7.404 3.387 10.21.642 2.736 5.261 2.346 7.321 2.604 8.977.006 17.961-.001 26.932.002H1786v331.2c-.778 15.924 1.004 34.81-.678 49.352-2.946 15.073-16.658 12.527-28.03 12.448-17.757-.004-35.448-1.853-53.162-2.608-17.17-1.386-37.43-1.656-53.13-3.392.704 3.99-1.44 11.837 2.388 13.604 4.69 1.293 9.585 1.67 14.3 2.852 14.155 3.513 28.796 6.798 41.34 14.631 18.014 10.992 32.638 28.171 38.704 48.61 3.356 10.572 4.964 21.593 6.304 32.554.797 5.546 1.414 11.125 1.584 16.722 1.01 5.224-.663 12.082 1.88 16.027 24.96-3.553 50.449-5.521 74.545-13.68 17.326-5.708 34.04-13.582 47.774-25.822 22.018-18.687 31.411-47.224 34.613-74.993 4.404-30.335 1.588-61.229 2.568-91.734V2074c14.808-.007 29.628.008 44.435-.004 11.977-.222 28.282-.26 33.565-16.598-22.16-21.453-43.107-44.24-66.475-64.38-8.085-8.362-16.793-16.026-25.149-24.086-3.753-3.375-7.92-6.36-11.1-10.334-3.277-4.075-1.881-9.698-2.59-14.557-2.96-36.087-32.532-63.776-63.92-77.51-16.338-7.08-33.169-13.29-50.684-16.804-18.414-4.473-37.32-5.25-56.082-6.727 1.599-8.567 5.805-16.523 7.315-25.15 1.392-3.878 1.381-9.467 5.765-9.604 71.363-.711 142.8.14 214.169-.253 8.13-.03 17.058-1.46 23.29-7.216 2.382-2.348 4.399-5.812 3.867-9.256-36.46-34.888-78.23-64.158-116.906-96.521-15.967 20.501-31.511 41.353-47.278 62.006-4.176 5.059-7.965 10.425-11.954 15.626-3.274 5.882-6.536 8.069-12.362 7.368H1734c4.433-29.473 8.201-59.174 9-89 7.328-1.53 15.263-2.247 21.359-7.173 2.982-2.388 5.553-5.274 7.664-8.447 2.224-2.737 2.59-7.505 3.977-9.88-.458-.45-.911-.96-1.25-1.5-55.691-2.195-111.053-9.976-166.75-12-1.299 42.644-1.373 85.473-5 128h-167c.898 9.604 5.945 18.415 7 28 52.264.76 104.81-.926 157 .5-5.69 28.297-12.448 56.955-25.295 83.082-19.286 38.054-48.039 70.769-82.984 95.12-8.317 5.784-16.553 11.723-25.363 16.75-8.235 7.16-13.336-2.505-19.246-7.364-17.96-15.157-35.233-32.296-54.112-46.088-9.586 10.86-17.384 23.482-26.378 34.866-4.247 6.013-8.65 11.899-13.065 17.78-3.95 5.02-7.28 13.371-15.557 12.354v-115h77.4c13.018-.036 26.034.044 39.036-.024 10.349.006 22.764-2.865 25.564-16.703-7.807-5.926-14.322-13.354-21.384-20.117-10.834-9.66-21.697-19.232-32.265-29.173-10.33-9.404-23.411-19.34-32.851-27.983-9.668 10.937-17.166 23.65-26.427 34.915-4.52 5.88-8.682 12.005-13.181 17.885-3.901 5.19-7.699 13.181-15.892 12.2v-99.6c.295-4.102-.677-9.393 1.5-12.4 6.743 1.813 13.919.52 20.78 1H1434c12.42-.026 24.817.215 37.216-.568 10.39-.3 22.792-2.458 26.785-16.034-16.548-16.079-34.732-30.388-52.65-44.886-18.206-13.315-35.041-28.918-53.694-41.512-17.33 22.677-35.03 45.144-52.327 67.858-3.56 6.199-8.755 6.992-15.092 6.142h-121.941c-11.844-.19-22.487-6.883-33.683-10.143-32.565-12.115-64.983-25.016-97.613-36.857zm50 15c3.9 30.635 11.276 61.04 12.31 92.101 2.255 24.173 2.233 48.72-.652 72.83.158 4.266-1.55 9.36.39 12.976 8.824 12.749 25.074 21.303 40.575 16.29 24.913-8.383 31.21-36.894 32.901-57.448 1.668-23.096-7.653-49.576-16.358-68.402-12.418-26.419-32.213-48.378-52.915-68.504-4.17-4.293-10.956.335-16.251.157m375-1104h4c4.309 16.74 1.535 34.301-5.956 49.68-13.277 24.812-34.234 44.317-53.02 64.795-15.259 15.202-30.784 30.172-44.646 46.66-10.105 11.83-20.728 23.498-28.819 36.844-22.91 44.193-33.717 94.373-32.559 144.021h508c.967-68.588-2.969-137.106-11.516-205.149-11.153-95.283-31.404-192.285-82.803-274.897C1700.815 941.13 1628.503 871.157 1537 847c.952-30.043-9.145-59.82-25.549-84.746-8.325-11.416-20.192-23.374-30.99-30.595-6.188-5.511-12.373-7.448-20.466-6.659H1435c3.217 16.517 1.494 33.699 1.865 50.393-.555 16.753-2.653 33.4-6.865 49.607h-7c-7.836-40.558-46.404-73.791-88-70 3.847 20.855 8.274 41.775 7 63.185.786 19.807-2.088 39.48-7.71 58.459-.8 4.162-5.686 6.138-8.955 8.089-13.943 7.728-29.719 18.743-39.032 30.141-11.085 11.66-17.581 26.688-22.372 41.808-10.396 28.459-15.381 59.327-31.053 85.735-6.255 11.195-15.279 20.629-20.775 32.287-12.598 21.408-20.784 44.995-29.093 68.266-7.78 20.834-15.034 41.954-24.479 62.114-2.14 4.078 1.788 9.001 3.793 11.88 9.226 14.443 18.343 28.947 27.421 43.481 8.328 12.637 15.484 27.036 28.274 35.909 11.801 8.453 29.255 10.394 42.02 11.36 13.087 1.408 27.046-.688 37.5-9.388 16.874-13.21 29.729-30.427 42.786-47.232 9.848-12.364 21.08-23.614 33.346-33.55 8.024-7.274 23.057-6.292 35.173-8.266 18.1-2.51 36.964-4.75 53.367-13.425 14.25-8.118 29.103-23.192 33.789-37.853m-315 1087.25c12.783 27.675 25.888 55.633 34.782 84.957 3.487 11.7 6.733 23.462 8.835 35.492 2.127 10.497 3.039 21.132 3.493 31.812.462 4.416 4.576 6.918 7.945 9.457 6.263 4.522 15.228 7.765 22.344 7.596 14.785-.594 26.801-12.256 31.276-25.824 7.807-21.575 1.76-45.537-8.05-65.185-9.893-18.505-22.954-35.167-38.836-48.927-15.002-12.79-31.743-24.525-48.763-34.131-4.365 1.28-8.698 3.058-13.026 4.503zm2-374.25h47v-111h-47zm0 144h47v-115h-47zm0 140h47v-112h-47zm73-937c5.995-26.504 23.558-49.436 45-65.5-1.32-1.315-2.607-2.645-3-4.5-17.915-.373-36.559 5.098-50 17.193-7.094 5.234-12.963 13.925-16.108 21.216-1.66 3.714-3.373 8.688-1.747 12.265 1.776 3.528 5.826 7.454 8.03 9.795 5.1 4.006 11.747 8.808 17.825 9.531m159-236v-9c-15.969-4.078-34.494-11.438-49.787-11.973-12.261-.403-25.808 1.183-35.313 9.865-5.611 5.857-7.954 17.949-3.574 24.227 5.63 4.413 14.509 4.973 20.693 5.63 10.406 1.112 21.651.27 30.237-6.457 7.868-5.834 16.237-12.517 26.503-13.19 3.36-.214 6.734.127 10.03.697zm174-35.625c30.52 27.036 59.164 57.173 78.843 93.377 30.901 56.976 41.2 122.287 45.137 186.095 2.383 34.96 2.025 70.036 2.012 105.042-.99 33.76-2.16 67.648-6.992 101.111h67c-2.13-95.712-7.965-192.404-34.279-285.04-11.708-43.452-30.291-85.02-57.497-121.005-13.02-18.074-27.193-35.42-42.957-51.188-7.643-7.73-17.484-15.788-25.166-22.086-4.205-3.328-8.601-6.45-13.116-9.322-4.624-3.59-9.267.914-12.985 3.016M1589 2321h56v-137h-56z" style="fill:#000;fill-rule:evenodd;stroke:none"/></svg>