<svg xmlns="http://www.w3.org/2000/svg" width="3000" height="3000"><path d="M1253 2275v-297h116.4c9.488.27 23.228-1.054 27.322-12.874 2.51-7.402-6.38-14.395-9.569-20.296-14.565-19.094-29.978-37.48-45.655-55.651-6.98-7.664-13.73-15.48-20.668-23.164-3.157-4.192-7.237-7.582-10.411-11.754-3.115-3.58-7.06-8.285-11.419-8.261-14.356 27.888-30.414 55.459-45.5 83-1.426-69.142.26-138.773-.5-208 15.05-3.326 38.136-8.473 38-32-61.9-5.946-124.047-10.541-186-16v274h-102v1.5c2.04 9.996 5.796 19.55 8 29.5h94v343c-38.178 9.403-75.597 22.49-114 31 .959 10.745 8.714 21.795 11.272 31.178 14.687 34.944 28.92 70.076 43.615 105.013 3.5 8.684 7.266 17.274 10.768 25.954 2.873 9.711 12.046 2.834 16.975-1.18 3.889-3.216 7.756-7.891 9.873-11.986 2.025-3.574 3.097-7.517 4.61-11.294 2.415-4.787 9.21-7.51 12.962-10.997 4.596-3.43 9.315-6.723 13.902-10.16 55.011-40.21 109.062-81.784 161.217-125.665 36.673-31.631 74.056-62.928 108.582-96.8 2.158-2.031-.13-6.763-.743-8.812-1.962-5.833-11.71.108-15.157.63-38.732 12.015-77.097 25.315-115.876 37.119m-91-774.5c112.46 1.426 225.725-.26 338.35.5 112.825-.76 225.91.926 338.65-.5-1.622-2.87-.62-7.565-1-11.278V1406c-20.61-.739-41.475.906-62-.5 2.15-4.647.183-12.01 1-17.853V1333h-37.2c-2.628-.243-6.327.313-8.043-1.45-10.128-16.738-18.645-34.584-28.46-51.546-4.373-7.623-9.715-15.458-9.297-24.54V976.749c.075-12.75-1.735-28.565 4.981-38.757 8.317-16.073 17.54-31.638 25.878-47.683 2.064-3.981 4.264-7.916 6.771-11.615 2.174-2.78 8.236-1.04 11.054-1.693H1777V750h-131v30h-61v-26h-169v26h-61v-30h-131v127h36.6c2.694.152 6.332-.146 7.957 1.763 10.583 16.92 19.313 35.018 29.468 52.195 4.34 7.38 10.082 15.42 8.975 25.922v276.689c-.43 12.87 2.068 26.789-4.914 38.17-9.182 15.841-17.696 32.073-26.824 47.94-2.096 3.905-4.045 7.907-6.72 11.449-1.997 2.913-7.94 1.286-10.693 1.872H1224v55.2c.777 5.682-1.11 12.807 1 17.3-20.536 1.41-41.399-.244-62 .5v84c.022 3.647.193 8.014-1 10.5m32-35.5h613v-20h-613zm63-614h487v-20h-487zm0 543h487v-20h-487zm27 842c40.383-12.605 78.471-32.1 116.334-50.675 55.096-28.462 107.317-62.487 155.666-101.324 48.017-39.211 93.988-83.796 125-138.001h2c18.208 56.77 51.104 108.847 91.733 152.233 20.178 22.523 43.81 41.848 67.985 59.93 11.555 8.898 23.903 16.57 36.322 24.15 6.234 3.519 12.34 7.288 18.685 10.593 6.446 2.902 13.545 8.655 20.275 9.094 2.745-30.572 13.483-60.084 29.469-86.17 15.522-24.936 38.55-47.548 67.531-55.83v-16c-57.92-6.53-115.7-16.385-171.79-32.377-52.633-16.418-107.685-36.763-146.21-78.123 8.877-1.714 18.316-2.485 26.855-5.968 7.631-2.077 13.103-9.596 21.302-9.504 27.46-2.13 59.446-9.712 82.55-19.933 2.63-1.472 6.268-3.13 8.065-6.34 2.298-6.347.567-13.467 1.228-20.033V1811c50.918-.585 101.92.714 152.81-.386 9.401-1.282 23.387-11.813 13.16-22.88-21.955-25.713-47.051-48.576-70.572-72.836l-14.63-14.63c-4.418-3.962-9.634-8.7-13.799-12.18-4.239-2.427-7.13 7.221-9.349 8.965-9.19 14.425-18.33 28.881-27.365 43.392-4.714 7.309-9.336 14.684-13.927 22.068-2.384 3.38-4.515 6.897-6.65 10.43-2.165 3.517-4.441 8.545-9.678 8.057v-68.4c.1-5.805-.128-11.622.083-17.413.453-7.147 12.551-6.314 17.901-10.997 6.558-4.242 10.313-11.565 11.016-19.19-55.592-5.262-111.393-8.822-167-14v130h-64.8c-16.206-.032-32.43.039-48.634-.02-8.111.822-6.56-7.378-6.566-12.912v-62.61c.556-5.004-.891-11.328 1.01-15.27 6.116-2.848 13.863-2.803 19.343-7.359 5.522-4.186 8.962-10.877 8.647-17.829-55.217-5.492-110.763-8.701-166-14-.47 42.126.573 84.35-.31 126.445-.254 5.338-10.258 2.85-13.246 3.555H1318c1.221 8.92 4.609 17.509 6.9 26.174.917 5.228 9.461 3.492 13.055 3.826h87.245c4.993.984 12.642-1.529 16.076 1.646 2.065 39.884-.376 80.356.724 120.354 13.348-.266 26.725.364 40.056-.295 12.89-.244 25.307-3.808 37.944-5.705-26.755 60.137-64.893 114.966-106.168 165.975-21.634 25.942-44.442 51.046-68.4 74.84-12.646 11.181-24.626 23.109-37.74 33.778-6.258 5.404-12.773 10.442-19.3 15.49-2.684 2.348-6.76 4.699-8.914 7.722-.226 4.248 3.84 7.24 4.522 11.195m21-913.5c64.86 1.426 130.524-.26 195.55.5 65.082-.76 130.44.926 195.45-.5-3.463-6.492-8.29-12.676-11-19.5h-369c-2.76 6.626-7.626 13.338-11 19.5m4-431c2.082 6.78 8.262 13.202 10 19.5h353.4c2.8.18 6.064-.076 8.57-.542 6.01-5.59 7.145-13.151 12.03-18.958-127.875-1.426-256.06.26-384-.5zm82 1750.5c34.083.273 69.333 1.604 101.851-10.811 10.76-4.37 21.05-9.972 30.785-16.287 3.836-2.79 9.566-6.742 10.76-10.707 1.529-10.954-.12-22.206.604-33.217.174-4.932-.242-9.896.204-14.81-.138-4.871 7.115-4.218 10.375-4.168H1749v80c22.723.256 45.595-.05 67.852-5.057 15.522-3.253 30.522-8.356 45.46-13.57 10.477-4.078 23.034-8.804 31.575-14.672 4.706-2.844 4.242-7.588 4.113-12.199v-103.777c.028-38.982-.034-77.994.019-116.968-.717-8.353 9.465-8.104 15.09-10.794 5.583-2.193 11.059-4.779 15.916-8.34 4.146-2.859 11.065-7.1 9.084-12.34-31.976-25.887-66.16-49.286-98.475-74.813-8.321-6.168-16.528-12.464-24.856-18.606-3.204-2.362-6.187-5.134-10.029-6.28-6.552 2.07-10 10.067-14.731 13.89-13.822 15.19-27.688 30.324-41.543 45.476-4.927 5.225-8.944 12.14-18.37 11.05h-163.131c-16.504 1.377-31.344-5.919-46.142-12.472-43.608-16.504-86.033-36.735-129.832-52.528zm85-435h319.2c9.887-.068 22.042 1.058 30.501-2.97 6.99-3.09 14.825-13.032 5.779-19.926-24.086-21.49-48.105-43.096-73.48-63.103-9.4-7.91-18.982-15.576-28.368-23.494-2.166-1.726-4.34-3.482-6.497-5.198-1.846-1.36-4.258-3.903-6.257-3.813-4.091.757-6.239 8.297-9.35 10.481-11.108 14.892-21.99 29.944-33.095 44.826-9.026 10.314-15.598 22.723-25.028 32.633-47.744 1.608-95.783-.292-143.585.564H1468c1.104 10.318 5.807 19.934 8 30m273 315v-186h-214v176.209c-.071 4.062-.382 9.483 4.12 9.577 60.816.61 121.656-.111 182.478.214zm-170-652c39.641 9.705 80.087 17.581 119.5 28 1.426-28.872-.26-58.07.5-87h-91.2c-9.426 1.013-19.582-1.346-28.8 1z" style="fill:#fff;fill-rule:evenodd;stroke:none"/><path d="M327 2802.5c390.66 1.426 782.125-.26 1172.95.5 390.946-.76 782.184.926 1173.05-.5-79.284-468.283-156.02-937.69-234.792-1406.201-29.222-176.024-58.731-352.018-88.16-527.994-12.796-76.829-25.59-153.676-38.409-230.5-5.977-36.02-12.025-71.992-18-108-2.928-17.508-5.855-34.99-8.745-52.497-.795-4.678-1.595-9.35-2.358-14.018-.403-5.813-4.632-7.44-9.23-8.351-136.155-45.374-272.297-90.765-408.44-136.14-118.995-39.696-238.006-79.344-356.998-119.005-7.36-3.594-13.268-1.406-20.008 1.408-103.34 34.51-206.696 68.878-310.033 103.355a1093431 1093431 0 0 1-271.561 90.514c-39.662 13.232-79.311 26.454-118.969 39.67-18.676 6.196-37.335 12.443-55.998 18.654-3.991 1.804-9.7 2.485-12.774 5.267-95.938 570.136-190.308 1140.76-285.634 1711.041-35.77 210.46-69.684 422.872-105.891 632.797m733.5-283.5c8.568-3.27 16.356-9.396 21.097-17.325 2.24-3.769 3.706-7.884 5.09-12.01 1.48-3.933 5.3-6.082 8.544-8.458 51.54-37.382 102.447-75.645 151.74-115.967 24.896-20.23 49.283-41.066 73.413-62.165 12.02-11.058 24.687-21.386 36.591-32.55a303 303 0 0 0 17.835-16.561c2.978-2.515 6.702-5.399 8.652-8.466 2.628-2.375-1.002-8.169-1.962-10.498-42.642 14.915-86.404 27.094-129 42-1.426-99.875.26-200.06-.5-300h115.8c10.68.562 24.074-1.625 27.78-12.677 1.582-3.577-.666-6.87-3.513-10.305-16.155-22.722-34.563-43.75-52.589-64.968-6.586-7.078-12.752-14.516-19.293-21.618-2.992-3.906-6.59-7.242-9.803-10.947-2.892-3.184-6.825-8.405-10.382-9.485-15.047 29.222-32.158 57.84-47.5 87-1.426-71.213.26-142.718-.5-214 14.529-3.54 36.41-7.728 38-30-61.223-6.14-122.74-10.122-184-16v274h-102c2.339 9.752 5.676 19.249 8 29h94v345c-38.191 9.406-75.583 22.487-114 31 9.534 28.392 23.394 55.476 33.877 83.576 11.9 27.269 22.245 55.416 34.623 82.424M1162 1500h677v-95h-63v-71h-37.2c-2.628-.243-6.327.313-8.043-1.45-10.128-16.738-18.645-34.584-28.46-51.546-4.373-7.623-9.715-15.458-9.297-24.54V975.949c.096-12.794-1.757-28.726 4.981-38.957 8.316-16.073 17.54-31.638 25.878-47.683 2.064-3.981 4.264-7.916 6.771-11.615 2.174-2.78 8.236-1.04 11.054-1.693H1776V751h-129v30h-63v-26h-167v26h-63v-30h-129v125c12.416.005 24.821-.006 37.232.003 6.592-.682 9.547 3.468 11.488 8.498 9.663 17.347 19.37 34.644 29 51.998 2.107 4.084 5.103 8.008 5.203 12.794.22 75.06-.04 150.125.077 225.186v77.856c1.321 11.731-4.966 21.573-10.886 31.234-8.043 14.115-15.979 28.257-23.745 42.513-4.007 10.192-13.214 8.148-21.085 7.918H1225v71h-63zm31-34h615v-22h-615zm63-614h489v-22h-489zm0 543h489v-22h-489zm24 830.375c1.884 3.138 3.685 6.393 5.5 9.625 39.576-14.941 78.41-31.925 115.84-51.681 54.804-28.556 106.794-62.639 154.945-101.362 47.907-39.563 94.398-84.014 124.715-138.957h2c18.553 56.807 50.5 109.125 91.233 152.733 20.5 22.256 43.275 42.338 67.749 60.2 23.118 16.171 51.06 34.979 75.018 45.067 2.745-30.572 13.483-60.084 29.469-86.17 15.522-24.936 38.55-47.548 67.531-55.83v-14c-58.295-6.592-116.418-16.508-172.858-32.682-53.464-16.216-108.429-37.83-147.142-79.818 9.453-1.448 19.262-2.153 28.286-5.772 7.495-1.911 14.018-9.654 21.3-9.67 27.649-2.024 59.859-9.729 83.12-19.963 2.631-1.472 6.27-3.13 8.066-6.34 2.298-6.347.567-13.467 1.228-20.033V1810c50.772-.454 101.587.554 152.33-.3 9.62-1.094 23.635-11.343 12.72-22.03-21.996-25.553-46.965-48.354-70.42-72.54-8.839-9.635-18.655-18.192-28.13-27.13-10.783 15.783-20.564 32.455-31.129 48.422-5.429 8.542-10.947 16.983-16.117 25.674-2.805 3.996-5.337 8.18-7.883 12.326-1.424 2.1-2.94 4.69-4.445 6.449-1.821 1.375-5.207.916-6.926 1.129v-68.4c.014-5.806-.017-11.631.009-17.434.136-1.861.152-4.59.972-5.944 5.73-3.099 13.059-3.595 18.236-7.947 6.389-4.017 7.287-9.95 9.783-15.775-54.56-6.802-110.273-8.29-165-14.5v130h-113.998c-2.643-.005-7.56-.024-7.567-3.043-1.24-22.523.225-45.237-.435-67.803.06-5.783-.075-11.544.046-17.312-.395-5.33 2.742-6.32 6.878-6.584 11.12-1.926 22.007-9.575 22.076-21.258-54.51-5.629-109.504-8.406-164-14-.47 42.126.573 84.35-.31 126.445-.254 5.338-10.258 2.85-13.246 3.555H1319c1.099 4.884 2.722 9.637 3.997 14.47 1.087 3.375 1.775 6.882 3.077 10.184.55 3.248 4.84 3.382 7.533 3.344 8.956.006 17.888-.002 26.841.002h69.872c4.07.061 12.79-1.472 12.585 5.225.272 38.924-.05 77.853.095 116.775 13.657-.247 27.342.413 40.97-.498 12.872-.803 25.486-3.71 38.03-6.502-25.225 59.18-62.296 112.934-102.272 163.073-41.043 50.754-86.735 98.487-139.728 136.927zm23-901.875c65.46 1.426 131.724-.26 197.35.5 65.825-.76 131.908.926 197.65-.5-3.827-7.14-8.78-14.11-12-21.5h-371c-3.215 7.214-8.34 14.645-12 21.5m3-433.125c4.049 6.456 9.518 15.816 12 21.625h345c6.762-.553 18.382 1.793 21.817-3.721 3.63-5.793 6.437-12.069 10.183-17.779-129.54-1.426-259.4.26-389-.5zM1392 2641c33.943.408 68.996 1.367 101.255-11.321 10.532-4.829 21.047-9.995 30.592-16.644 4.003-3.015 9.106-6.125 9.912-11.506.642-11.1-.08-22.235.241-33.34.091-4.854-.231-9.825.42-14.635 1.225-4.095 9.195-1.716 11.954-2.554H1750v80c21.87.235 43.885-.16 65.313-4.955 15.562-3.157 30.564-8.359 45.533-13.51 10.483-4.032 22.998-8.796 31.612-14.518 4.783-2.71 4.877-7.176 4.542-11.915V2371.35c.184-5.078-1.34-11.993 4.115-13.756 7.382-2.17 14.715-4.661 21.444-8.466 5.397-3.364 13.763-8.402 15.441-13.784-44.403-33.533-88.805-67.212-133.5-100.344-12.98 12.333-23.926 26.555-36.37 39.37-5.155 5.97-10.522 11.727-15.966 17.43-2.215 2.966-4.99 5.407-7.494 8.095-5.418 7.473-13.019 6.518-20.764 6.105h-159.53c-15.93 1.097-30.145-6.477-44.544-12.472-42.62-17.411-85.37-34.879-127.832-52.528zm77-462.5c2.512 9.178 5.32 18.36 8 27.5h308.4c12.83-1.256 43.801 6.13 49.107-14.898-1.8-6.601-9.477-8.886-13.246-14.326-33.697-30.454-69.306-58.842-104.261-87.776-13.83 17.589-26.883 36.164-40.341 54.104-4.978 6.822-10.151 13.49-15.165 20.274-4.386 5.66-8.736 14.741-15.593 14.591-58.976.088-117.933-.016-176.901.031zm281 344.5v-188h-216v177.844c.228 3.44-.755 9.758 3.546 9.798 61.526 1.02 123.228-.185 184.778.358zm-172-652c40.653 9.221 81.338 18.794 122 28v-89h-92.4c-9.403.972-21.21-1.305-29.6 1z" style="fill:#000;fill-rule:evenodd;stroke:none"/></svg>