<svg xmlns="http://www.w3.org/2000/svg" width="3000" height="3000"><path d="M407 2715h2186c-120.11-729.14-243.257-1457.94-364-2187-121.653-40.09-243.099-81.112-364.7-121.395-91.164-30.407-182.32-60.766-273.474-91.162a32206 32206 0 0 1-51.529-17.183c-8.003-2.659-16.01-5.346-24-8-7.038-2.654-14.998-6.446-23.453-2.372-120.19 40.07-240.392 80.12-360.578 120.183C1011.124 447.878 891.186 488.387 771 528c-120.737 729.033-243.897 1457.913-364 2187m636-1505c-.952 21.962-7.522 43.214-12.851 64.366-10.123 37.482-19.932 76.535-12.936 115.669 7.924 54.208 49.193 104.728 104.787 114.27 27.353 5.378 61.295-1.339 82.556-15.359 23.036-14.741 39.97-39.165 45.532-65.907 5.783-25.378 3.428-53.108-8.305-76.476-7.939-15.529-21.845-31.462-40.588-32.5-7.236-.752-14.116 1.465-20.656 4.233-3.39 1.426-14.23 5.09-14.955-2.361.345-10.27 7.043-21.122 11.708-28.87 16.147-26.026 39.568-47.504 54.708-74.065 5.43-.076 9.285 4.48 14.064 6.536 7.388 3.907 15.494 6.46 23.834 7.15 8.464 1.368 16.747-1.18 25.102-1.686-3.356 31.652-15.034 69.783-7.355 99.176 3.755 13.345 10.499 25.608 18.742 36.68 3.978 5.234 8.113 10.376 12.438 15.325 3.714 4.197 10.506 8.767 8.035 15.765-7.068 24.77-15.546 49.068-22.655 73.816-6.895 21.472-13.648 43.033-18.9 64.968-7.572 32.717-14.763 79.626 17.213 110.893 23.19 20.228 56.407 20.95 85.152 16.754 21.708-2.52 42.666-13.127 55.268-31.395 19.138-27.047 23.834-60.673 32.432-91.742 8.256-31.242 17.366-62.294 29.262-92.347 6.93-18.955 16.165-37.093 25.368-54.893 12.972 1.378 26.016 1.843 39 3-.044 34.209.054 68.43-.03 102.627-.86 24.256-6.458 48.156-6.843 72.437.257 8.438 2.106 17.802 9.029 23.39 12.935 9.594 29.967 8.742 45.143 8.473 11.096-.656 24.482-3.369 33.121-9.044 15.872-11.002 14.468-31.302 14.702-46.521.656-17.689.998-35.458 3.484-53.013 2.995-31.022 12.491-60.74 21.394-90.349h3c14.552 29.329 27.973 59.943 36.902 91.618 6.382 24.644 11.595 49.704 21.543 73.266 6.649 16.64 16.124 33.72 32.533 42.522 13.045 7.03 28.302 6.7 42.105 2.319 19.7-5.169 36.657-17.203 51.866-30.254 14.389-14.015 27.334-31.395 31.141-51.575 2.396-15.668-.854-31.597-5.173-46.596-5.688-21.435-16.077-41.089-24.402-61.504-7.78-20.412-15.362-41.438-17.556-63.331-2.209-21.946 1.107-44.03 4.587-65.633a550 550 0 0 1 7.86-31.533c1.571-5.206 2.997-10.447 4.85-15.551 2.04-3.735 3.037-11.41 6.744-12.748 6.292 6.452 11.147 14.435 17.975 20.475 5.937 6.126 12.888 11.113 19.316 16.663 3.16 2.974 2.765 7.594 3.523 11.591 7.255 30.364 34.405 51.229 60.367 65.25 21.255 9.775 45.782 17.808 69.51 12.325 3.408-.617 9.494-4.033 7.163-7.85-2.373-6.507-9.898-12.631-14.86-18.915-19.463-19.548-27.034-48.657-48.688-66.458-11.583-8.72-26.62-12.117-40.872-12.09-7.804.703-12.82-5.327-17.085-10.072-5.074-4.92-9.882-10.057-14.164-15.683-6.397-8.137-12.872-16.247-18.86-24.684-3.664-5.447-7.782-10.6-10.855-16.416-2.677-48.634-11.745-98.26-34.398-141.97C1830.965 976.458 1774.164 923.685 1707 895c.943-29.857-9.157-58.652-20.92-85.685-16.836-39.17-40.347-75.818-71.494-105.112-15.786-13.508-34.377-25.623-55.596-27.971-11.826-1.68-23.748-1.031-35.655-.739-11.864.353-23.718.34-35.562.874-28.657 1.488-57.877 3.902-85.126 13.625-22.755 7.899-41.306 23.81-57.917 40.666-4.26 3.943-10.431 3.346-15.793 3.342-22.796.4-45.707-.224-68.456 1.435-4.836 1.05-5.42-7.27-6.972-10.146-5.925-15.761-17.517-29.476-32.154-37.738-13.076-7.993-31.528-10.52-45.262-10.55-28.153.28-56.251 4.11-83.71 10.17-18.17 5.89-35.714 20.979-47.985 32.931-9.395 10.08-20.441 22.707-25.77 34.31-6.038 10.712-6.455 22.855-5.627 34.776.83 35.854 6.437 71.394 7.768 107.214 3.48 55.39-26.305 108.1-21.769 163.598-8.884-.078-17.606-3.545-26.562-2.527-13.362.524-26.12 8.149-31.575 20.539-6.505 11.854-5.647 26.14-.855 38.382 11.017 27.11 33.453 47.216 56.636 63.977 15.072 10.269 30.156 21.354 46.356 29.629m1-37c-.466-13.148-1.178-26.3-1.397-39.442-.15-5.126-.294-10.25-.447-15.362-.034-3.904-.31-7.905-1.874-11.526-5.148-3.99-13.458-5.552-18.938-7.744-9.91-3.392-20.046-6.004-30.228-8.391-9.151-2.81-24.1-3.617-24.981 7.444-2.86 19.404 16.37 35.88 29.536 46.476 7.492 5.949 15.471 11.194 23.527 16.304 7.518 3.998 17.448 11.908 24.802 12.241m296-3c4.524-.393 8.998-5.165 12.888-8.407 10.517-10.496 17.568-23.962 23.11-37.594 6.36-16.55 10.586-34.019 11.554-51.763 1.23-29.36-.184-58.8.448-88.164v-44.317c.08-3.193-.275-8.482 3.53-8.407 10.441-.944 21.005.132 31.47-.348.887 59.075 2.753 119.796 21.984 176.329 5.157 12.306 11.275 26.359 23.899 32.835 10.356 4.246 22.078-.76 27.596-9.965 8.92-12.358 14.404-27.204 24.793-38.533 11.42-10.93 27.368-14.369 40.847-21.869 13.009-6.563 23.012-17.237 29.852-29.932 5.34-9.371 9.11-21.514 11.63-31.005 3.807-18.976 16.077-28.636 28.501-40.462 11.761-11.086 22.643-23.23 29.93-37.795 8.149-15.68 9.795-33.373 8.941-50.72-2.209-25.567-13.661-49.268-23.734-72.384-10.867-21.925-23.838-43.03-40.123-61.36-9.26-11.132-22.717-22.11-34.66-27.925-10.978-6.034-23.689-7.692-36.012-7.155-37.985 1.585-77.06-.887-114.112 9.415-13.303 4.274-25.898 10.855-36.444 20.115-7.667 6.704-16.482 14.946-22.47 22.15-2.461 2.961-5.679 6.612-9.327 7.031-30.543.827-61.25-.777-91.76 1.69-43.743 2.495-88.226 15.168-121.808 44.515-16.142 12.949-29.947 33.788-37.158 51.136-4.442 10.65-7.187 21.951-8.951 33.316-.946 5.88-1.306 11.848-1.41 17.783.616 6.317-2.772 9.962-6.245 14.253-8.714 11.532-14.715 25.314-14.718 39.977-.579 55.27 4.283 110.389 6.534 165.553.883 27.71 2.889 55.8-.834 83.371-4.212 25.518-11.496 50.418-17.236 75.61-10.033 39.21-15.927 83.513 1.838 121.71 7.174 15.89 19.001 29.244 33.537 38.71 27.217 17.96 71.591 16.222 95.193-1.711 24.184-18.614 30.336-52.516 24.082-80.866-2.472-11.959-9.427-27.146-22.416-25.632-12.651 1.28-16.966 14.957-23.22 22.618-5.677 9.759-18.017 14.098-28.676 10.534-22.893-8.17-21.793-36.868-18.358-54.144 7.71-34.982 31.78-62.976 53.328-90.215 8.62-10.07 16.55-20.67 24.604-31.185 3.399-4.786 7.152-9.302 10.47-14.135 4.501-4.672 4.38-9.51 2.097-14.758-5.615-20.836 1.886-42.731 14.408-59.414 15.632-21.766 48.126-48.559 79.65-31.337 12.917 7.598 20.664 21.317 25.956 34.852 6.664 15.164 7.661 31.732 7.002 47.999m88 974c2.132 7.244-2.836 12.246-7.475 16.975-36.637 35.396-69.094 77.9-81.472 128.234-10.033 45.88-6.374 96.594 18.365 137.51 19.714 33.9 50.656 60.265 85.464 77.726 32.384 17.85 68.854 25.666 105.257 29.927 33.094 3.932 66.728 6.209 100 3.252 23.002-3.341 55.125-8.64 64.995-36.635 8.58-22.593 4.85-48.823-9.815-68.012-11.494-16.38-28.316-29.838-48.082-34.376-38.099-6.526-77.235.507-115.426-5.56-27.287-3.478-54.238-10.618-79.137-22.365-16.795-8.862-34.141-19.528-42.954-37.266-8.263-14.122-10.428-30.518-9.72-46.57-2.039-45.575 20.07-89.702 56.096-117.105 26.21-21.138 57.53-35.337 90.466-42.115 52.821-11.95 107.524-15.692 161.581-13.944 28.694.631 57.432 1.786 86.125 1.082 21.8-.514 51.334-13.134 54.072-42.643 2.024-17.19-6.692-34.177-19.864-44.725-23.429-18.239-52.27-27.846-81.175-33.007-23.381-5.03-47.229-3.7-70.676-.14-33.201 6.342-64.515 20.012-96.806 29.657-32.365 9.948-64.412 20.832-96.616 31.204-24.7 8.398-49.648 15.913-74.654 23.303-19.439 5.366-38.553 11.897-58.131 16.747-5.938 1.792-11.967 3.253-17.982 4.758-2.905.695-5.772 1.597-8.761 1.833-2.537.4-6.642.098-6.182-3.046-.32-4.689 6.212-8.15 9.597-11.965 65.258-54.933 134.998-104.388 205.084-152.843 25.98-17.915 52.922-34.383 79.565-51.244 11.983-7.422 24.419-14.043 37.156-20.065 21.203-9.952 56.01-17.614 51.532-51.813-4.227-23.368-20.693-42.329-36.797-58.64-13.87-13.924-31.736-28.919-47.244-38.216-14.89-9.615-31.154-17.66-48.538-21.365-7.87-.966-17.793-1.047-24.582 1.861-13.134 6.048-23.08 17.368-36.15 23.542-23.97 11.943-50.705 16.924-75.839 25.692-38.29 10.16-77.19 20.43-116.846 23.347-9.034.135-20.332 1.623-29.097-5.991-10.617-8.266-18.583-22.552-24.773-32.89-3.07-6.486-6.741-12.656-10.014-19.018-2.886-6.14-5.003-14.406-14.547-13.091-10.427 21.837-21.735 44.14-25.92 68.32-2.811 18.498 2.388 37.694 11.804 53.61 13.168 23.33 32.262 43.102 53.986 58.613 10.965 7.574 22.825 14.683 36.124 17.193 14.18 1.412 28.766-1.063 41.365-7.91 23.909-11.81 43.465-30.447 64.647-46.234 19.664-15.135 39.418-30.344 61.02-42.68 10.08-5.993 20.834-11.144 32.174-14.228 5.175-1.391 13.159-3.15 16.45 1.267 2.475 4.782-1.102 11.934-3.267 15.548-24.017 36.988-52.828 70.746-82.98 102.807-52.922 57.495-110.184 110.958-170.404 160.692-22.234 17.668-44.855 35.06-69.462 49.336-21.933 12.834-46.555 19.898-70.384 28.127-20.542 8.465-46.343 13.498-56.034 34.288-9.262 18.165-6.868 39.82 1.619 57.666 13.453 26.8 39.95 62.64 78.18 55.678 25.519-5.908 43.183-27.195 62.087-43.517 28.37-24.131 60.419-43.343 93.219-60.678 17.387-8.887 35.235-16.793 53.292-24.17 8.843-3.819 18.093-6.603 27.173-9.764 9.571-2.929 19.16-6.507 29.311-5.964m-184.833-980.997c.12 9.506 3.756 18.563 10.526 25.082 6.377 6.704 15.885 8.51 24.723 7.866 17.715-.66 31.374-17.936 29.581-35.133.349-9.352-1.564-18.494-4.152-27.4-1.913-7.15-5.754-17.54-14.224-20.286-12.09-3.716-25.078 8.35-32.028 16.423-8.56 9.085-14.432 20.602-14.426 33.448m15.949-154.737c-.178 16.16 16.958 31.312 31.194 29.629 15.276-1.23 28.039-16.511 26.961-31.64-1.15-15.143-15.889-28.027-31.06-27.106-14.328 1.072-27.054 16.103-27.095 29.117M1508 1348c21.656 2.507 43.166 7.045 65.11 6.805 22.222.407 44.45.11 66.67.01 20.399.632 40.868-1.592 61.18-1.351 6.998 4.502 11.515 14.09 15.99 19.984 16.51 28.432 30.604 58.48 40.949 89.729 9.604 28.752 13.425 59.16 23.912 87.66 3.773 10.32 10.435 25.972 25.308 25.052 23.56-2.847 46.169-22.516 58.942-38.772 6.981-8.88 8.278-20.292 6.084-31.078-2.796-19.937-10.31-38.71-19.312-56.578-13.377-32.517-27.153-66.09-28.449-101.764.424-52.058 13.52-104.028 34.7-151.43 3.433-6.07 2.838-12.885 2.029-19.54-.226-46.13-12.757-91.977-35.125-132.176-19.595-34.91-47.46-64.373-80.222-87.2-12.189-8.465-26.975-17.586-39.237-23.533-7.113-3.805-8.228 5.608-10.974 10.063-10.275 22.75-29.078 39.666-46.031 57.296-5.787 6.869-11.282 14.26-14.053 22.934-4.56 15.485-9.407 31.35-19.977 44.038-13.44 18.664-37.064 33.544-56.127 41.753-11.022 4.7-21.181 11.994-27.533 22.376-6.172 9.763-12.254 19.595-19.684 28.492-13.212 18.099-39.492 21.404-58.82 11.576-19.213-8.46-31.303-27.42-38.33-46.346h-3c-10.598 34.227-34.958 67.915-70 80 1.222 7.814 7.84 15.238 10.4 21.82 7.074 14.41 15.57 28.046 22.71 42.413 3.494 6.398 7.033 12.74 10.29 19.263 3.87 5.525 7.998 12.786 4.429 20.627-17.204 55.427-34.259 110.9-51.661 166.26-5.943 20.868-13.555 41.333-18.251 62.553-3.888 18.66-7.741 38.25-3.09 57.265 3.92 18.32 19.087 27.536 35.667 27.736 14.935.289 30.178.628 44.696-3.557 12.009-3.144 20.587-13.742 24.668-25.019 8.19-20.662 11.323-42.822 17.497-64.073 15.297-63.69 41.872-123.854 68.645-183.288m222 499.5c12.329 12.125 24.827 24.297 34.931 38.419 9.445 11.491 15.415 25.114 21.733 38.388 6.32 12.697 12.668 25.363 19.017 38.033 5.162 10.372 11.93 20.583 21.52 27.41 17.674 11.99 43.51 4.634 53.491-13.82 18.068-29.865-3.998-63.854-23.824-81.49-21.997-19.622-49.234-32.139-76.766-41.797-13.383-4.785-26.887-9.332-40.585-13.16-1.145-.327-2.347-.438-3.517-.483-.594 3.005-4.08 5.66-6 8.5m76-69.125c24.35 20.354 47.067 43.092 63.834 70.351 13.16 19.361 23.123 41.148 39.563 58.166 6.387 6.306 14.587 11.245 23.58 12.688 15.723 2.554 33.566-8.639 39.854-21.303 11.124-22.282 1.883-49.475-14.665-66.073-15.616-16.962-36.357-28.305-57.44-36.903-27.527-10.621-56.33-18.5-85.33-23.784-4.955-.837-6.486 3.85-9.396 6.858" style="fill:#dcf;fill-rule:evenodd;stroke:none"/><path d="M1042 1211c-3.493 42.958-22.388 83.24-26.527 126.132-4.15 32.706-.37 66.738 14.351 96.504 20.243 42.644 64.856 75.003 113.238 73.364 23.79.451 47.873-6.157 67.2-20.212 18.633-13.506 32.503-33.515 39.073-55.46 7.991-29.857 6.667-63.628-9.332-90.774-7.585-12.137-18.291-24.24-33.135-27.004-7.008-1.221-14.336-.966-21.181 1.44-6.448 2.198-14.108 6.719-19.687 1.76 4.082-20.713 18.175-37.383 30.535-53.695 11.906-16.344 26.663-31.355 36.465-49.055 4.242.662 8.35 5.436 13.183 7.09 14.655 8.244 31.893 7.88 47.817 4.91-2.472 16.126-6.047 32.13-7.81 48.377-1.5 15.807-3.712 32.008-.27 47.733 2.98 13.573 9.766 25.929 17.66 37.196 3.696 5.442 8.098 10.37 12.236 15.458 1.867 2.551 4.237 4.688 6.378 6.99 5.862 5.176 3.793 10.98 1.414 16.903-13.865 47.555-30.843 94.326-41.89 142.654-5.834 31.339-9.843 76.504 22.892 103.775 22.899 18.206 54.41 17.68 81.794 14.67 19.994-2.526 40.427-10.31 53.43-26.555 20.032-23.888 25.834-55.558 33.295-84.725 7.326-30.252 16.542-59.962 26.69-89.353 8.282-24.273 19.225-47.596 31.181-70.123 12.254 1.84 24.717 1.492 37 3-.132 34.23.161 68.442-.087 102.67-1.236 24.137-6.678 47.95-6.813 72.159.24 8.701 2.162 18.318 9.447 23.945 13.162 9.364 30.136 8.367 45.396 8.192 11.037-.426 24.29-3.003 33.123-8.185 16.446-10.02 15.837-30.633 16.004-45.676.509-17.755 1.059-35.556 3.295-53.192 3.81-31.405 11.63-62.12 22.135-91.913 9.48 16.186 16.266 33.928 23.564 51.17 13.637 31.314 19.09 65.219 29.352 97.572 7.73 22.333 17.354 47.797 39.906 59.313 17.784 8.412 38.27 4.272 55.684-2.691 24.63-11.264 46.494-29.606 60.592-52.837 7.557-12.389 11.633-26.778 10.234-41.35-.837-14.931-4.927-29.402-9.475-43.547-9.477-24.916-21.986-48.65-29.733-74.26-3.798-12.884-7.748-25.983-8.7-39.455-1.086-14.306.052-28.735 1.44-43.004 3.933-26.349 11.134-57.602 21.136-79.911 9.943 14.497 22.986 26.308 36.714 37.084 3.033 2.684 2.891 6.918 3.432 10.665 6.643 29.542 32.402 50.956 57.817 64.632 20.264 11.409 44.032 17.129 67.283 15.26 4.062-.764 8.664-1.186 12.14-3.566 7.451-5.89-3.205-15.605-6.73-19.459-9.03-9.982-18.384-19.92-24.533-32.07-10.019-16.542-19.23-36.038-37.098-45.762-9.084-4.744-21.084-7.628-30.477-7.767-12.297 1.253-18.23-6.983-25.15-14.62-8.81-9.189-16.229-19.624-24.036-29.622-3.944-5.27-7.652-10.713-11.42-16.094-5.836-7.464-4.2-20.548-5.787-31.197-.97-10.619-2.573-21.171-4.342-31.676-9.426-50.882-29.725-100.196-62.939-140.324-31.956-40.142-74.573-71.812-121.374-92.484.943-29.857-9.157-58.652-20.92-85.685-16.836-39.17-40.347-75.818-71.494-105.112-15.786-13.508-34.377-25.623-55.596-27.971-11.621-1.67-23.339-1.104-35.03-.79-11.946.357-23.87.324-35.811.8-39.464 2.1-82.305 5.084-115.86 28.624-7.836 5.767-15.445 11.926-22.391 18.736-4.935 5.274-9.433 11.342-18.75 10.386-12.363.049-24.73-.096-37.08.238-11.519 1.315-25.701-.788-36.068 1.774-2.005-1.6-2.386-5.166-3.47-7.875-6.977-21.279-24.12-39.112-45.434-46.22-17.735-6.306-36.816-5.333-55.228-4.122-13.313.623-26.5 2.758-39.658 4.687-9.371 1.888-20.706 3.338-28.93 6.494-25.836 11.914-46.778 32.715-63.026 55.618-14.416 18.926-12.12 43.82-10.348 65.973 1.969 34.523 6.796 68.99 7.038 103.587-2.207 33.855-13.597 66.373-19.014 99.71-2.806 15.234-3.855 30.744-2.93 46.148-14.86-2.478-34.149-6.788-49.377 6.154-13.123 11.901-15.798 31.036-11.165 47.327 8.38 28.07 31.35 48.269 53.572 65.513 16.519 11.499 33.113 23.79 50.97 33.006m1-39c-.672-13.048-1.227-26.095-1.448-39.158-.152-5.006-.27-10.028-.432-15.033-.482-3.578-.093-8.98-2.788-11.102-11.674-5.686-26.758-9.184-38.082-12.652-6.697-1.588-13.368-3.758-20.298-3.983-6.06-.752-13.297 1.897-12.913 10.51-1.335 18.208 18.232 32.932 30.019 43.174 7.093 5.594 14.633 10.575 22.237 15.408 7.905 4.165 16.272 11.125 23.705 12.836m298.5-3c18.088-12.527 29.415-32.569 36.064-53.18 12.725-34.665 9.244-72.133 9.436-108.194v-57.492c.057-4.801-.074-9.589.052-14.374-.486-7.747 11.485-5.613 16.362-5.76H1424c.889 58.729 2.745 119.065 21.629 175.33 4.522 12.366 12.246 27.43 23.4 33.453 23.123 9.753 34.281-24.63 43.164-37.27 5.2-8.797 12.714-16.4 22.145-20.66 9.418-4.168 19.334-7.301 28.11-12.839 12.794-6.56 22.327-17.502 28.993-29.993 5.39-9.777 8.5-20.503 11.466-31.18 1.833-8.375 4.797-16.654 11.348-22.565 16.781-17.07 35.774-32.935 46.778-54.673 8.026-15.666 9.936-33.368 8.865-50.69-3.085-24.933-13.62-48.202-23.853-70.805-10.787-21.8-23.757-42.75-39.93-60.968-9.258-11.133-22.716-22.11-34.66-27.926-10.892-5.952-23.473-7.683-35.706-7.136-37.427 1.579-75.92-.796-112.418 9.397-13.167 4.188-25.582 10.7-36.053 19.779-7.743 6.808-15.437 13.806-22.19 21.634-2.398 2.489-5.748 7.364-8.904 7.668-30.29 1.248-60.82-.634-91.113 1.709-43.641 2.547-88.062 14.383-121.987 43.32-16.126 13.567-29.207 30.83-37.752 50.13-4.404 10.465-7.644 21.423-9.392 32.637-1.053 5.933-1.746 11.935-1.897 17.956.534 5.2-.12 10.822-4.795 15.128-8.821 11.237-15.397 24.647-16.074 39.137-.997 55.366 4.289 110.575 6.357 165.84.917 27.756 2.813 55.852-.456 83.51-3.97 25.434-11.127 50.275-16.903 75.329-10.44 39.255-16.998 83.532.935 121.96 7.22 16.052 19.084 29.617 33.773 39.182 27.202 18.345 71.866 16.223 94.87-2.986 22.902-19.39 29.19-53.066 21.568-81.106-2.775-10.293-10.719-27.313-25.89-20.342-9.661 5.94-12.715 18.484-20.996 25.911-7.691 7.781-22.053 8.355-30.537 3.897-18.712-10.008-18.105-38.768-14.061-55.982 8.104-34.906 32.333-62.769 53.975-89.989 8.595-10.07 16.543-20.693 24.501-31.258 3.563-4.656 7.092-9.353 10.461-14.141 4.007-4.988 1.754-9.76.385-15.046-4.257-21.292 3.495-42.943 16.534-59.607 15.984-21.674 48.332-46.222 79.42-30.094 13.308 7.368 21.338 21.24 26.731 34.96 2.787 7.253 5.091 16.176 6.307 23.187 1.692 8.302.108 16.932 1.352 25.202m85.5 976c1.653 6.557-5.103 12.404-9.102 16.602-36.254 35.548-68.78 77.966-80.228 128.514-9.608 45.759-5.924 96.332 18.5 137.158 19.552 33.976 50.5 60.391 85.221 77.916 32.148 17.76 68.297 25.797 104.493 29.999 33.108 4.115 66.741 6.198 100.077 3.81 23.125-3.552 55.135-7.43 67.116-34.329 9.36-22.365 7.045-49.11-6.42-69.227-10.326-16.604-28.957-31.845-46.3-36.77-37.864-8.824-77.354-.412-115.536-6.078-26.615-3.574-53.405-9.1-77.89-20.556-17.609-7.901-35.217-18.93-45.897-35.517-8.252-13.36-12.448-28.988-12.033-44.687-.601-23.11 2.915-46.537 12.895-67.569 9.408-19.77 23.432-37.369 40.442-51.193 23.564-19.607 51.498-34.238 81.348-41.537 61.44-16.265 125.506-18.75 188.652-16.357 24.966-.158 50.056 2.138 74.988.168 18.89-1.556 38.27-10.742 46.402-28.857 7.597-15.6 3.415-37.409-6.053-49.566-19.246-23.188-49.6-33.534-77.673-40.682-46.252-11.933-95.12-5.272-139.064 11.935-42.852 14.44-85.983 28.128-128.933 42.219-27.603 9.038-55.316 17.788-83.152 26.083-19.366 5.455-38.553 11.43-57.941 16.8-6.042 1.59-12.033 3.447-18.137 4.777-5.093.602-13.104 4.962-16.775.944 1.1-4.506 7.243-7.946 10.844-11.873 65.46-54.972 135.305-104.641 205.608-153.111 26.037-17.745 52.729-34.48 79.5-51.06 12.055-7.399 24.493-14.132 37.35-20.023 21.974-9.556 55.743-18.617 50.132-53.141-4.221-23.371-20.7-42.357-36.804-58.662-13.87-13.925-31.736-28.92-47.244-38.217-15.051-9.68-31.47-17.871-49.066-21.453-7.707-.82-18.766-.86-24.844 1.44-13.284 5.663-23.26 16.904-36.066 23.38-23.832 12.06-50.422 17.315-75.548 25.894-38.414 10.416-77.433 20.561-117.25 23.8-9.164.441-20.509 1.4-29.124-6.628-10.446-8.673-18.527-23.073-24.632-33.64-3.222-6.43-6.916-12.591-10.032-19.072-1.766-3.357-3.253-6.885-5.471-9.976-2.037-2.642-7.7-1.065-10.353-1.658-10.572 22.183-22.142 44.877-26.092 69.506-2.618 18.776 2.346 38.257 11.977 54.424 13.43 23.78 33.046 43.825 55.266 59.518 11.242 7.39 23.42 14.977 37.123 16.52 13.869 1.14 28.039-1.314 40.555-7.894 23.909-11.525 43.256-30.223 64.383-45.833 19.598-15.17 39.346-30.35 60.857-42.77 10.065-6.011 20.784-11.282 32.079-14.511 5.044-1.26 12.977-3.81 15.627 1.542 2.777 4.562-3.426 11.667-4.798 15.434-49.829 73.529-114.174 135.698-178.08 196.666-24.66 22.464-49.455 44.923-75.584 65.734-22.056 17.895-45.105 34.61-69.527 49.094-22.247 12.262-46.704 19.537-70.595 27.715-17.575 7.787-44.42 11.98-54.904 35.358-8.38 18.597-5.795 40.363 2.652 58.33 13.545 27.434 40.426 62.162 78.87 55.429 25.784-4.947 43.145-26.683 62.094-42.644 28.073-24.456 60.391-43.379 92.95-61.042 17.427-8.768 35.167-16.952 53.257-24.245 8.815-3.803 18.018-6.664 27.049-9.886 9.153-2.738 19.953-6.76 28.841-6.445m-182.735-982.077c.226 9.478 4.182 18.438 11.029 24.752 6.529 6.19 15.963 8.222 24.682 7.05 16.837-2.325 28.775-18.883 26.992-35.453.05-8.96-1.961-17.684-4.51-26.202-2.223-6.98-5.456-16.587-14.737-19.162-11.337-2.05-22.866 9.756-29.519 17.124-8.232 8.67-13.605 19.682-13.937 31.891m13.777-154.648c-.625 16.947 17.002 32.464 31.881 30.689 16.242-.386 29.418-16.4 28.6-32.14-.641-16.156-15.83-29.821-31.977-28.766-15.321.266-28.92 16.54-28.504 30.217M1508.5 1346c41.287 9.438 83.999 8.418 126.044 7.9 19.075-.757 38.2-.116 57.242-1.465 4.18-.286 9.383-1.094 12.251 1.396 10.274 10.307 18.073 26.014 24.605 37.44 13.3 26.28 25.347 53.352 33.615 81.68 7.383 25.467 11.487 51.9 20.553 76.887 3.853 9.946 8.903 22.355 19.983 24.666 10.852 1.53 22.67-5.639 30.834-10.226 8.393-4.63 15.624-11.044 22.348-17.753 6.537-6.313 12.537-13.714 15.044-22.623 3.14-17.375-4.694-37.798-9.648-52.458-12.468-27.65-24.561-55.693-32.511-85.055-11.455-46.612-2.56-95.528 10.432-140.757 3.117-10.766 6.621-21.404 10.902-31.762 2.692-7.757 6.526-15.027 9.576-22.632 2.652-25.352-3.614-55.727-8.123-78.405-9.665-39.01-28.161-76.192-54.481-106.63-25.02-31.871-59.867-53.877-94.666-73.203-8.098 15.787-15.268 33.037-29.102 45.102-10.595 11.428-23.924 24.32-31.912 36.222-7.055 12.231-8.466 26.904-15.31 39.262-10.618 21.589-28.536 38.367-49.86 49.242-7.77 4.818-16.235 8.185-24.352 12.306-14.32 7.529-21.864 22.17-30.176 35.129-6.808 9.283-13.426 19.762-24.483 24.541-16.629 7.53-40.08 3.33-53.33-6.15-15.432-9.28-23.025-26.277-30.475-41.654-11.657 34.666-35.11 67.362-70.5 80.5 15.582 28.502 30.73 57.378 46.208 85.964.446 2.903 4.819 6.764 3.743 9.91-16.405 55.767-34.723 111.084-51.496 166.759-6.648 20.926-13.19 41.892-19.006 63.057-4.213 18.984-8.332 38.696-5.447 58.184 1.764 16.607 15.247 30.278 32.149 31.24 15.482 1.126 31.357.705 46.482-3.06 12.014-3.046 20.897-13.29 25.01-24.666 8.356-20.81 11.468-43.17 17.712-64.6 16.597-63.62 40.855-125.523 70.145-184.288m228 491c-1.798 3.49-6.781 7.43-7 10.648 1.542 3.942 6.482 7.234 9.102 10.454 13.89 14.195 27.418 29.301 37.047 46.811 7.245 13.371 12.832 27.626 20.279 40.922 9.861 17.655 17.957 44.923 43.215 50.105 22.61 5.47 46.666-12.567 48.24-35.632 2.555-18.15-3.314-36.563-14.7-50.785-14.835-20.135-40.39-36.066-60.996-45.45-24.068-11.493-49.926-19.115-75.187-27.073m75-68c-2.414 2.552-4.437 5.82-6.015 8.788-.254 3.507 5.312 5.902 6.992 8.187 14.672 11.668 27.654 25.179 39.338 39.789 17.24 20.462 31.238 48.733 45.361 68.61 7.574 11.613 18.033 21.785 31.672 25.58 14.092 3.651 29.318-1.847 39.02-12.362 7.579-7.333 10.427-17.895 10.232-28.089 2.508-18.651-7.257-35.994-19.495-49.035-18.414-18.746-41.986-31.278-66.566-39.94-26.009-9.873-53.622-15.552-80.539-21.528" style="fill:#676667;fill-rule:evenodd;stroke:none"/></svg>