<svg xmlns="http://www.w3.org/2000/svg" width="3000" height="3000"><path d="M406 2716h2188c-.452-13.213-4.171-26.125-5.71-39.208C2468.846 1960.196 2349.431 1243.585 2230 527c-109.325-35.987-218.457-72.878-327.734-109.071-95.467-31.86-190.966-63.65-286.44-95.486-21.006-7.01-42.008-13.98-63-21l-30.529-10.183c-9.47-3.025-21.252-8.92-30.35-5.086-156.884 52.344-313.79 104.58-470.681 156.897-58.813 19.64-117.642 39.186-176.447 58.829-13.016 4.296-26.007 8.68-39 13-6.335 2.066-12.631 4.23-18.954 6.3-3.19 1.104-6.385 2.128-9.576 3.212-7.976 1.527-8.94 7.943-9.29 14.656-63.894 383.21-127.754 766.408-191.617 1149.624-28.466 171.167-57.103 342.324-85.568 513.49-14.29 85.674-28.582 171.345-42.844 257.017-7.145 42.829-14.299 85.67-21.418 128.502-3.57 21.335-7.128 42.665-10.66 64.002-1.808 10.66-3.57 21.336-5.34 31.998-1.36 10.463-4.53 22.595-4.552 32.299m645-438c1.23 7.588 4.515 16.215 6.36 22.988 2.271 3.257 8.914 1.33 12.033 2.012h619.378c15.064-.394 34.697 2.357 46.957-5.892 4.82-2.677 8.35-8.566 1.779-12.705-28.948-24.435-59.023-47.531-89.053-70.614-9.579-7.63-19.361-15.012-29.07-22.471-2.414-1.67-4.786-3.431-7.355-4.821-2.621-.33-4.458 3.743-6.032 5.166-13.796 17.442-27.169 35.237-40.97 52.663a7457 7457 0 0 1-17.786 22.886c-2.983 3.472-5.31 7.657-9.13 10.295-162.282 1.405-324.789-.255-487.111.493m87-579.5c2.353 8.238 6.46 17.769 8 25.5h487c-6.13 99.355-13.448 198.726-24.461 297.684-1.423 12.05-2.819 24.096-4.369 36.128-1.469 11.087-2.465 22.31-4.564 33.286-.104 2.98-3.441 2.595-5.41 2.847-79.075.157-158.135-.029-237.196.055.283-12.089 3.987-23.845 5.48-35.791 7.245-38.199 13.832-76.52 19.968-114.91 5.522-39.434 13.78-78.651 17.552-118.299 7.92-.826 16.556-.534 23.544-5.08 6.57-4.11 12.743-10.02 14.456-17.92-58.777-10.166-117.242-22.859-176-33-4.506 60.307-13.948 120.181-22.926 179.954-4.769 30.002-10.048 59.946-16.005 89.721-3.05 14.97-6.15 29.937-9.494 44.835-1.286 7.29-8.48 10.746-14.051 14.905-4.684 4.7-12.705 8.91-14.524 14.585 22.402 9.64 43.11 23.22 65.165 33.665 18.497 10.774 38.178 19.408 56.656 30.217 5.375 3.278 8.606-.672 10.947-4.877 11.207-14.259 21.649-29.079 32.991-43.217 2.518-2.99 4.583-6.366 7.558-8.934 8.424-1.903 17.92-.09 26.58-.854H1782c-.522 42.66-5.086 85.157-8.15 127.663-3.138 30.738-6.194 61.512-10.964 92.043-3.698 22.673-8.048 45.564-17.807 66.575-7.548 17.642-23.921 23.897-40.76 23.714-54.235.944-108.212-5.047-162.319-6.995.156 2.226-.243 5.765 1.774 7.571 2.64.518 5.174 1.629 7.89 1.887 33.605 7.76 68.463 17.238 96.603 38.236 13.278 10.45 25.82 23.935 30.127 40.757 5.312 17.69 5.92 36.276 6.606 54.549 32.922.214 66.422.479 98.475-8.41 21.4-5.578 41.88-15.252 58.899-29.475 26.71-20.794 39.876-53.176 49.57-84.424 9.583-34.334 15.584-69.526 20.088-104.852 8.515-64.335 11.97-129.14 15.968-193.839 13.951-1.252 29.733-5.545 39-17-40-34.247-80.06-69.376-120.5-103-14.74 14.892-30.64 28.488-45.37 43.37-7.355 7.675-15.466 14.53-23 22-4.135 5.118-9.386 5.046-15.095 4.63H1746c8.266-64.446 14.934-129.128 21.252-193.787 3.113-32.784 6.11-65.601 8.817-98.413 1.98-16.736 2.047-33.638 3.888-50.37.247-4.375 5.357-5.151 9.01-5.742 9.956-3.042 22.764-8.822 28.033-17.188-22.63-17.46-46.19-33.762-69.103-50.841-22.986-16.33-45.44-34.216-68.897-49.659-13.744 16.062-26.099 33.568-39.535 49.945-2.964 3.62-5.659 7.44-8.652 11.028-2.603 3.265-5.954 8.372-9.594 8.794-161.053.665-322.167-.121-483.219.233zm11-550.559V1333.4c.236 5.591-.342 12.222.32 17.314.493 4.387 7.71 6.377 11.13 9.467 32.23 19.25 64.044 39.133 96.104 58.64 47.744 28.944 95.117 58.452 142.967 87.22 24.124 14.681 48.207 29.429 72.295 44.148 5.958 3.745 11.893 7.5 18 11 4.203 2.467 9.377 6.932 13.347 4.196 13.043-8.132 26.45-15.704 39.358-24.029 38.498-23.045 76.476-46.917 114.938-70.01 28.768-17.579 57.487-35.223 86.31-52.705 21.554-13.017 42.88-26.38 64.422-39.398 8.098-5.002 16.353-9.73 24.35-14.887 3.63-2.106 7.163-4.333 10.736-6.51 3.112-1.895 7.484-3.75 7.61-8.577.322-67.32-.058-134.662.113-201.98V961.46c-.314-7.383 2.467-18.259-6.544-22.262-50.418-31.133-101.26-61.53-151.679-92.644-50.413-30.832-100.95-61.493-151.33-92.375-11.372-6.873-22.633-13.945-33.987-20.823-2.498-1.01-6.223-4.581-8.548-3.298-42.363 23.923-82.84 51.292-124.974 75.68-31.334 19.322-62.783 38.41-94.247 57.51-23.522 14.543-47.253 28.745-70.766 43.292-17.367 10.875-35.128 21.16-52.447 32.102-10.01 4.296-7.334 12.513-7.478 21.227zm47-.207V1307.6c.13 4.991-.179 10.012.147 14.99.261 4.918 5.37 6.591 8.63 8.888 55.473 33.608 110.804 67.414 166.174 101.169 27.516 16.716 54.95 33.576 82.456 50.285 13.904 8.088 27.294 17.064 41.226 25.097 8.085 4.945 15.6-4.014 22.257-7.042 6.702-4.128 13.6-7.954 20.155-12.306 33.466-20.007 66.464-40.723 99.927-60.73 49.567-30.737 99.66-60.62 149.397-91.08 3.175-1.87 6.36-3.772 9.459-5.762 2.436-1.983 7.224-3.605 7.704-6.585 1.334-59-.242-118.206.468-177.235V986.06c-.168-6.494 2.005-15.736-5.734-19.407-43.693-26.436-87.178-53.178-130.823-79.677-43.86-26.606-87.553-53.44-131.415-80.024-9.686-6.295-19.811-11.877-29.508-18.141-5.077-3.75-9.742-2.816-14.136.63-35.509 21.875-71.236 43.452-106.849 65.15-53.44 32.678-107.065 65.115-160.461 97.865-6.887 3.842-13.414 8.229-20.168 12.275-3.007 1.593-6.038 3.556-8.479 5.827-1.218 58.906.222 117.977-.427 177.176" style="fill:#fff;fill-rule:evenodd;stroke:none"/><path d="M291 2812.5c402.66 1.426 806.125-.26 1208.95.5 402.946-.76 806.184.926 1209.05-.5-66.691-393.12-131.048-787.321-197.186-1180.681C2447.104 1239.148 2380.056 846.747 2316 454c-136.143-44.935-272.089-90.768-408.181-135.9-102.008-33.974-204.008-68.03-306-102-19.182-6.399-38.38-12.77-57.553-19.171-8.997-3.033-18.01-5.99-27-9-7.928-3.04-16.863-7.25-26.38-2.738-134.51 44.908-269.079 89.643-403.589 134.55C952.797 364.27 818.541 409.675 684 454c-64.117 393.376-131.371 786.397-196.109 1179.703C421.811 2026.161 357.548 2420.573 291 2812.5m116-97.5h2186c-120.11-729.14-243.257-1457.94-364-2187-109.157-35.927-218.092-72.748-327.181-108.9-95.331-31.722-190.626-63.585-285.954-95.3q-31.498-10.534-63-21l-30.566-10.195c-9.852-3-21.422-9.034-30-5.21-156.482 52.2-313.005 104.314-469.48 156.505-58.858 19.6-117.69 39.211-176.522 58.84-12.832 4.262-25.65 8.528-38.47 12.817-6.336 2.128-12.684 4.227-19.008 6.343-5.33 2.846-14.097 3.151-17.405 7.24-66.013 385.799-128.474 772.546-193.688 1158.548C521.372 2030.17 462.67 2372.459 407 2715" style="fill:gray;fill-rule:evenodd;stroke:none"/><path d="M1049 2277.5c1.189 4.484 2.916 8.816 3.97 13.367.943 3.776 2.234 7.438 3.404 11.122 1.436 2.341 5.799 1.729 7.822 2.01 9 .003 17.997-.001 26.981.001h622.377c10.413.26 25.343-2.543 30.446-15.5-20.563-19.231-43.312-35.918-65.509-53.146-11.067-8.816-22.295-17.456-33.51-26.081-11.799-7.904-21.85-18.902-34.637-25.273-14.323 17.528-27.533 35.943-41.752 53.556-6.19 7.697-12.148 15.564-18.233 23.34-2.85 3.707-5.751 7.371-8.596 11.07-2.843 4.984-7.367 5.542-12.312 5.034H1049zm96-552.5h487c-6.463 98.83-13.423 197.719-24.524 296.164a3886 3886 0 0 1-4.375 36.289c-1.456 10.864-2.427 21.886-4.495 32.645-.104 2.98-3.441 2.595-5.41 2.847-78.41.157-156.794-.029-235.196.055 13.31-89.046 33.392-177.383 43-267 8.237-.84 17.38-.5 24.446-5.682 8.174-4.701 11.402-11.118 14.554-18.818-59.193-12.224-119.457-21.8-178.5-34.5-5.667 60.416-13.765 120.961-23.426 180.954-4.83 30.177-10.061 60.312-16.122 90.263-3.175 15.19-6.223 30.411-9.67 45.535-1.248 6.18-9.208 9.993-14.673 14.367-5.682 4.274-10.706 9.261-15.609 14.381 43.897 21.908 86.759 46.425 130.572 68.5 11.44-14.39 22.227-29.305 33.504-43.822 2.494-3.32 5.016-6.593 7.634-9.812 5.19-9.137 13.817-7.916 22.588-7.366H1781c-.793 42.161-5.063 84.15-8.198 126.152-3.19 31.061-6.214 62.177-11.168 93.01-3.57 22.6-8.402 45.25-18.013 66.177-8.053 17.121-24.247 22.915-40.886 22.659-54.04.946-107.812-5.505-161.735-6.998.448 3.036-.843 8.526 2.36 9.588 3.194 1.108 6.526 1.683 9.81 2.455 33.128 7.654 67.285 17.525 94.9 38.271 13.002 10.529 25.323 23.9 29.46 40.606 5.172 17.552 5.824 35.96 6.47 54.08 33.187.234 66.938.576 99.306-8.093 21.81-5.613 42.768-15.206 60.068-29.792 26.924-21.037 40.218-53.81 49.847-85.422 9.479-34.747 15.623-70.312 20.068-106.034 8.437-63.604 11.718-127.692 15.711-191.659 14.095-.89 32.584-6.979 40-18.5-41.133-34.345-81.286-70.428-122.5-104.5-14.79 14.736-30.429 28.522-45.233 43.233-7.243 7.805-15.354 14.657-23 22-1.752 1.958-3.75 3.615-5.874 5.13-8.318 1.367-16.99.12-25.393.637 9.012-64.368 14.774-129.28 21.49-193.925 2.873-32.793 6.167-65.53 8.737-98.345 2.454-16.64 1.353-33.72 4.203-50.272 1.143-3.679 8.173-2.77 10.792-4.42 10.871-2.92 20.266-9.376 27.778-17.538-47.774-33.097-93.463-70.098-141.656-102.5-12.906 16.769-26.222 33.234-39.122 50.006-2.99 3.58-5.678 7.403-8.63 11-3.532 2.772-5.291 8.982-9.446 9.548-161.303 1.271-322.802-.23-484.146.446.705 9.749 6.892 18.327 8 28m3-577.258V1334.6c.313 5.74-.466 12.583.458 17.8 1.168 3.961 8.678 6.376 11.468 9.056 32.21 19.263 64.016 39.205 96.104 58.643 47.833 29.109 95.485 58.506 143.363 87.517 24.23 14.758 48.455 29.468 72.622 44.304 6.01 3.66 11.892 7.517 18 11 4.047 1.904 8.353 7.101 13.319 4.077 13.078-8.37 26.71-15.834 39.71-24.316 38.606-23.234 76.843-47.061 115.415-70.334 28.882-17.657 57.73-35.377 86.681-52.918 21.521-13.09 42.97-26.325 64.464-39.46 8.363-4.973 16.693-10.013 24.928-15.186 6.525-4.522 17.643-8.522 17.45-16.278.053-67.14-.01-134.277.018-201.416v-185.83c-.475-7.553 2.632-18.813-6.516-23.04-50.544-31.233-101.58-61.687-152.115-92.924-50.452-30.845-100.979-61.522-151.399-92.394-11.372-6.867-22.611-13.953-33.973-20.806-2.764-1.482-6.166-4.273-9.074-3.414-21.96 11.04-42.013 26.11-63.552 38.024-36.65 22.372-73.289 44.726-109.925 67.116-54.937 33.171-109.447 67.03-164.38 100.199-3.276 2.348-7.428 4.599-10.453 6.689-3.447 2.187-2.433 7.926-2.613 10.974zm49 .192V1307.6c.228 4.975-.325 10.01.29 14.952.265 4.053 5.822 5.765 8.48 7.92 55.308 33.52 110.504 67.239 165.722 100.886 27.556 16.65 54.902 33.638 82.459 50.289 13.633 8.134 26.995 16.716 40.666 24.777 6.637 5.465 16.154-3.928 21.651-6.65 6.71-4.22 13.719-7.933 20.253-12.418 33.328-19.862 66.148-40.52 99.451-60.404 49.418-30.695 99.44-60.424 149.018-90.86 5.474-4.262 14.706-7.369 17.542-12.568 1.334-58.6-.242-117.406.468-176.035V986.86c-.163-6.419 1.97-15.57-5.702-19.184-43.543-26.34-86.86-53.024-130.373-79.402-43.674-26.65-87.383-53.256-131.078-79.845-9.665-6.227-19.749-11.79-29.369-18.071-2.14-1.121-4.776-3.011-7.454-2.863-36.237 21.065-71.868 44.014-108.014 65.413-54.061 32.963-108.122 65.932-162.205 98.851-6.73 4.177-13.64 8.075-20.254 12.422-3.06 1.893-6.826 3.895-9.424 5.923-2.532 1.903-2.051 6.085-2.127 9.387z" style="fill:#048a04;fill-rule:evenodd;stroke:none"/></svg>