<svg xmlns="http://www.w3.org/2000/svg" width="3000" height="3000"><path d="M326 2802.5v1.5h2347c-.373-12.822-4.058-25.348-5.508-38.051-117.27-703.542-234.496-1407.1-351.766-2110.637-7.344-43.997-14.655-88.002-22-132-3.6-21.02-6.91-42.124-10.625-63.12-1.141-5.243-8.647-5.77-12.81-7.59-158.488-52.846-316.994-105.666-475.472-158.502-59.502-19.835-119.024-39.669-178.52-59.495-26.013-8.653-52-17.351-78-26-12.476-3.645-24.567-8.834-37.16-12.04-6.368-.025-12.224 3.635-18.313 4.993-92.992 31.026-186.022 61.963-279 93A1893485 1893485 0 0 0 785.82 433.9c-17.522 5.819-35.005 11.685-52.52 17.495-3.82 1.309-7.668 2.508-11.462 3.872-7.078 2.018-5.509 14.447-7.54 19.93a1026382 1026382 0 0 1-55.17 330.994C547.67 1471.398 438 2137.571 326 2802.5m666-533c2.408 2.58 5.086 4.923 7.5 7.5 12.94-8.589 27.63-14.326 40.812-22.527 19.473-11.404 39.121-22.465 57.763-35.185 9.567-6.075 19.15-12.118 28.195-18.975 4.726-3.342 9.524-6.539 14.191-9.962 4.717-2.54 9.36-8.072 14.539-8.351v459c22.61.249 45.385.968 67.646-3.65 15.952-2.637 31.343-7.482 46.51-12.909 10.704-4.232 23.433-10.086 31.907-16.413 3.438-2.992 2.93-8.747 2.937-12.774v-476.74c.203-3.94-.764-9.399 3.248-10.599 5.639-2.144 11.636-3.441 16.841-6.674 4.742-2.376 8.025-6.893 11.911-11.741-15.842-4.575-30.947-12.538-47-16.5.452-7.524 10.607-11.584 14.475-16.975 18.221-18.835 38.732-35.527 55.77-55.544 4.275-4.92 9.323-9.12 13.57-14.049 2.797-3.115 5.957-7.738 10.404-9.883 7.528-.027 15.242 1.42 22.674-.822 7.05-1.4 12.54-5.972 17.107-11.227-27.906-17.367-56.93-33.193-85.068-50.225-29.344-16.014-57.26-34.98-86.932-50.275-15.764 37.765-34.987 74.28-54.906 110.021-28.581 52.674-60.286 103.598-93.668 153.314-33.737 49.611-70.424 97.522-110.426 142.165m13-681.156c.806 2.097 2.598 3.367 4.24 4.75 1.816 1.225 5.08-1.208 6.913-1.34 58.056-23.97 115.658-52.952 162.324-95.721 37.647-33.024 69.336-73.37 89.79-119.217 8.376-17.7 14.74-36.308 20.619-54.944a118 118 0 0 0 3.534-12.509c.777-4.04 1.766-8.642 7.392-8.307 142.723-.16 285.48.03 428.188-.056v82.2c-.003 10.42.004 20.83-.002 31.238.252 7.365-2.238 16.011-9.39 19.547-6.964 2.986-14.89 1.655-22.21 2.015-52.495-1.258-104.977-4.206-157.398-7v12c38.599 4.918 79.12 16.494 107.09 45.266 15.46 12.374 22.891 31.513 27.939 49.894 3.988 19.516 9.02 42.53 9.971 60.84 28.429-2.974 56.95-6.222 84.686-13.458 20.037-5.345 39.791-12.552 57.147-24.162 12.902-8.571 24.094-19.512 32.11-32.82 24.29-45.773 18.622-99.453 19.057-149.018V945c12.632-1.368 28.436-8.523 35-18.5-43.547-32.925-86.477-67.362-130.5-99.5-15.562 16.782-30.82 33.855-46.024 50.95-6.059 5.971-10.848 13.378-17.941 18.292-16.841 2.108-34.302-.34-51.278.758H1513v-3c39.133-15.501 75.034-38.4 111.684-58.83 17.519-10.464 34.837-21.28 51.83-32.562 4.25-3.146 8.637-6.075 13.025-9.01 5.68-3.76 15.504-3.014 23.172-5.642 7.727-1.182 15.052-4.528 20.289-10.456-43.143-36.827-86.586-73.42-129.5-110.5l-37.87 37.87-28.5 28.5c-3.625 3.417-6.893 8.188-12.207 8.542-38.984.25-77.943-.046-116.923.088.686-4.602 6.666-8.308 9.478-12.815 12.234-14.365 23.854-29.186 34.767-44.56 3.542-3.044 5.295-9.489 9.607-10.18 13.016-2.036 30.105 2.941 40.148-12.945-15.912-6.343-33.833-8.46-50.252-13.565-25.519-6.383-50.924-13.251-76.444-19.613-12.81-3.206-25.645-6.402-38.443-9.61-11.973-2.443-25.635-7.76-36.861-8.712-12.694 40.618-33.004 78.593-52.643 116.124-30.836 54.101-64.674 106.896-105.178 154.436-20.158 24.912-42.051 48.24-64.912 70.673-11.228 11.66-23.049 22.734-35.709 32.82-5.897 5.357-12.349 10.026-18.589 14.942-3.142 2.41-6.447 4.66-9.155 7.563-3.452 2.184 2.261 6.847 3.686 8.442 25.066-9.845 50.279-19.744 74.558-31.534 12.376-6.488 25.222-12.171 37.342-19.131 5.704-3.342 12.623-6.863 17.897-9.85 5.42-2.22 11.927-7.585 16.703-8.485v185.4c.666 45.155-1.007 90.247-5.454 135.178-3.021 31.818-6.986 63.64-14.618 94.71-20.947 87.545-68.45 169.751-138.928 226.712zm15 367.114c2.3 2.94 4.874 5.707 7.313 8.542 66.78-26.344 131.729-57.75 193.025-95.258 30.106-18.501 59.07-38.75 87.658-59.49 14.333-10.561 28.296-21.606 42.155-32.772 3.498-2.488 7.086-6.899 11.019-7.054 7.24-.43 14.74 1.855 21.894-.367 5.333-2.383 13.427-5.747 14.936-11.059-25.931-18.335-54.142-34.073-80.787-51.493-13.227-8.702-26.874-16.786-40.127-25.434-6.472-4.444-13.37-8.234-19.896-12.585-6.322-3.364-14.323-10.192-20.19-11.488-25.698 56.017-61.624 106.859-96.684 157.259-36.282 50.115-76.12 97.975-120.316 141.2M1267 874.5v1.5c16.436 4.093 32.061 10.84 48.18 15.9 5.893 1.77 12.686 4.8 18.403 5.04 49.133.172 98.285-.032 147.417.06 18.337-41.44 37.177-83.4 50-127h-142.8c-8.01-.774-11.922 5.241-17.07 10.37l-25.105 25.105c-25.44 23.17-50.829 47.908-79.025 67.525v1.688zm33 398v1.5c23.877-2.15 47.956-.183 71.89-1H1444v-162h-133c-.484 53.755-1.351 108.667-11 161.5m10-189.5h135V925h-135zm82 948h281v413.4c.009 8.925 1.537 19.413-8.538 26.119-7.985 3.307-16.856 2.412-25.274 2.481-30.145-.38-60.176-3.388-90.288-4.268-29.926-2.251-59.99-2.131-89.9-4.732v11c41.84 4.972 83.974 16.858 117.793 42.817 16.757 11.901 28.131 30.24 34.436 49.508 6.458 20.663 9.251 42.167 10.771 63.675 37.203-3.633 75.249-6.646 110.695-19.848 25.638-8.568 48.413-24.795 65.193-45.857 11.574-17.026 18.304-36.965 22.414-57.035 6.37-33.37 4.593-67.448 4.698-101.208V2031h76.2c18.993-.122 38 .149 56.976-.081 11.214-.916 28.374.448 34.92-13.005 1.678-4.258-5.604-7.92-7.653-10.723-24.422-21.186-48.759-42.571-74.093-62.679-7.891-6.203-15.572-12.604-23.423-18.833-8.265-5.414-16.098-14.624-24.27-18.679-24.144 30.985-46.975 63.112-71.404 93.869-3.208 2.822-7.824 1.97-11.798 2.131H1385c1.231 9.24 6.579 19.365 7 28m52-268.5c3.189 8.957 5.338 18.371 8 27.5h444.6c11.215-.014 22.434.016 33.644-.009 8.738-.187 18.249-.714 25.7-5.838 3.094-2.199 5.7-5.116 6.569-8.833-3.538-5.584-10.114-9.673-14.865-14.429-17.983-15.868-36.607-31.047-54.87-46.584-9.033-7.852-18.478-15.237-27.754-22.779-9.546-6.681-17.943-15.816-28.024-21.528-18.076 27.062-40.075 52.224-58.927 78.915-3.693 3.91-7.823 12.13-12.705 12.819-107.084.76-214.27-.139-321.368.266zm140-679.5h144V925h-144zm0 191h144v-164h-144z" style="fill:#fda;fill-rule:evenodd;stroke:none"/><path d="M204 2906.5c431.66 1.426 864.125-.26 1295.95.5 431.946-.76 864.184.926 1296.05-.5-71.347-421.454-140.17-844.031-211.186-1265.681C2515.49 1219.807 2443.894 799.05 2375 378c-18.825-4.147-36.622-12.377-55.173-17.557-141.343-47.107-282.688-94.208-424.008-141.343-105.996-35.346-212.02-70.658-318-106l-60-20c-4.743-1.483-9.392-3.202-14.133-4.67-4.689-1.596-9.296.594-13.846 2.121-144.162 48.092-288.385 96.1-432.543 144.19-72.152 24.045-144.327 48.113-216.478 72.159-35.996 12.013-72.02 23.992-108 36-18 6.028-36 11.971-54 18-9.01 3.004-18.013 5.972-27 9-8.742 2.234-18.56 7.118-26.819 8.1-68.995 421.677-140.705 843.07-210.109 1264.703C344.003 2063.481 275.132 2486.22 204 2906.5m123-104c781.355 1.426 1563.485-.26 2345 .5-118.785-721.214-240.618-1442.068-360.03-2163.199-7.528-45.17-15.046-90.339-22.588-135.492-1.756-10.718-3.574-21.44-5.367-32.15-1.463-5.102-.632-13.609-5.65-15.42-82.419-27.818-165.08-54.96-247.546-82.639-144.35-48.044-288.615-96.253-432.954-144.3-27.19-9.095-54.376-18.14-81.566-27.195-6.024-1.707-14.13-5.746-19.294-4.368-99.967 33.09-199.81 66.647-299.74 99.834a5130220 5130220 0 0 1-448.968 149.67c-9.274 3.513-19.03 5.778-28.13 9.725-3.665 1.962-2.298 9.57-3.876 12.727-22.54 135.51-45.194 271.003-67.739 406.508C540.73 1518.187 435.508 2161.522 327 2802.5" style="fill:gray;fill-rule:evenodd;stroke:none"/><path d="M1303 1273.25c11.133 2.04 23.74-.29 35.183.75H1445v-164h-135c.68 11.899-.846 24.213.5 36 2.751-3.988.748-11.095 1.5-16.48V1112h131v160h-123.6c-5.093.35-12.546-.761-16.4 1.25" style="fill:#bfa67f;fill-rule:evenodd;stroke:none"/><path d="M1583 925.5v1.5c11.793-2.187 24.04-.147 35.935-1H1727v138c-.845 6.07 1.178 13.683-1 18.5.972.384 1.963.51 3 .5V924h-146z" style="fill:#40372b;fill-rule:evenodd;stroke:none"/><path d="M990 2269.438c2.918 2.691 6.134 6.919 9.319 8.063 3.908-1.044 7.31-3.42 10.941-5.16 24.595-14.165 50.307-26.557 73.911-42.446 24.076-14.26 46.725-31.39 69.829-46.895v459c23.116.203 46.364.98 69.143-3.545 16.097-2.674 31.695-7.519 47.013-13.014 10.704-4.232 23.433-10.086 31.907-16.413 3.561-3.137 2.887-9.197 2.937-13.373v-425.169c.002-17.801-.002-35.585.001-53.373.132-2.133-.05-4.813.802-6.62 9.75-6.428 27.09-5.855 31.197-22.493-16.238-3.271-30.761-12.742-47-16v-1.5c21.7-20.186 43.398-40.37 63.87-61.87 4.966-5.424 9.587-11.194 15.105-16.105 4.023-3.751 7.834-9.021 11.517-12.452 2.767-3.143 7.078-2.536 11.755-2.094 10.925.684 26.392-1.964 32.753-14.979-58.341-32.418-115.527-67.851-173.5-101-18.193 36.767-34.68 74.878-55.924 110.18-28.817 53.098-60.75 104.424-94.41 154.546-34.195 49.651-70.508 98.181-111.166 142.711m13-680.985c1.79 2.763 4.22 5.02 6.313 7.547 60.876-25.181 122.268-54.15 170.934-99.71 37.47-32.975 68.9-73.307 89.25-119.001 8.475-17.68 14.614-36.36 20.565-54.985 2.955-7.207 2.857-20.426 11.373-20.283 141.863-.06 283.711.011 425.565-.021v81c-.003 10.192.004 20.41-.002 30.594.123 6.8-1.906 16.33-10.294 19.803-7.012 2.422-14.652 1.288-21.889 1.603-52.325-1.204-104.556-4.429-156.815-7v14c38.599 4.918 79.12 16.494 107.09 45.266 15.46 12.374 22.891 31.513 27.939 49.894 3.988 19.516 9.02 42.53 9.971 60.84 28.123-2.329 56.15-6.208 83.632-12.677 37.522-9.006 77.93-27.681 95.626-64.475 8.736-18.776 12.05-39.585 14.727-59.9 1.587-22.643.781-45.357 1.015-68.022V946c13.181-1.32 29.247-9.144 36-19.5A10160 10160 0 0 0 1781.5 825c-15.719 16.589-30.72 33.819-45.99 50.807-5.944 6.1-11.058 13.114-17.712 18.517-2.938 2.376-8.285 1.423-12.438 1.676-63.722-.76-127.72.926-191.36-.5 38.75-16.765 75.239-38.195 111.684-59.33 17.519-10.464 34.837-21.28 51.83-32.562 4.25-3.146 8.637-6.075 13.025-9.01 5.802-3.776 15.812-3.033 23.627-5.734 3.888-.801 7.79-1.781 11.285-3.7 3.39-1.353 6.689-5.365 9.549-6.164v-1.5c-43.55-37.79-88.18-74.457-131.5-112.5-25.557 24.57-49.626 50.83-75.58 74.93-9.511 2.52-20.277-.022-30.063 1.07-29.515-.76-59.457.926-88.857-.5 7.728-7.523 14.247-16.13 20.999-24.5 10.88-12.222 19.57-26.134 29.826-38.821 2.837-2.98 8.544-1.974 13.034-2.2 10.683.342 25.011-1.609 31.141-14.479-67.282-18.93-135.89-34.003-203.336-52.5-5.373 9.45-7.392 20.928-12.55 30.608-15.107 36.249-32.416 71.51-52.492 105.257-28.466 50.05-62.4 97.012-99.111 141.301-37.605 45.11-79.739 86.57-126.511 122.084 1.41 5.448 7.09 10.31 12.813 6.817 28.58-10.81 56.702-22.89 84.06-36.505 18.588-9.988 37.957-19.02 55.627-30.562 1.426 61.471-.26 123.447.5 185.014.652 44.988-1.089 89.952-5.577 134.712-5.07 62.125-17.81 124.06-45.095 180.557-25.087 54.73-64.403 101.752-109.328 141.17m15 367.005c3.41 3.055 6.5 9.635 11.118 8.971 5.014-1.386 9.675-3.74 14.558-5.497 64.418-25.906 126.501-57.81 185.61-94.159 29.368-17.712 56.891-38.252 84.691-58.245 13.898-10.311 27.448-21.074 40.834-32.014 6.284-6.55 18.024-2.332 25.952-3.745 8.488-1.081 15.248-6.838 20.237-13.269-27.397-17.192-54.78-34.696-82.343-51.69-26.603-17.936-54.784-33.58-81.157-51.81-13.754 28.092-29.436 55.374-45.858 82.011-24.671 39.31-51.656 77.14-80.025 113.856-28.491 37.487-60.057 72.692-93.617 105.591m250-1081.083c15.1 5.403 31.013 10.166 46.136 15.826 5.874 1.728 12.563 4.59 18.102 5.557 49.24.69 98.515-.125 147.762.242 19.083-40.354 35.3-82.365 50-124.5-26.972-1.426-54.285.26-81.316-.5-20.344.02-40.655-.024-60.99.013-6.9-.419-11.877 7.067-16.427 11.22-32.753 32.348-66.108 64.887-103.267 92.142m33 398.125c47.356 1.426 95.484-.26 143 .5v-162h-133c.32 53.565.497 109.097-10 161.5m10-190.5h133V926h-133zm72 920.25c2.876 9.32 6.545 20.853 8 29.75h281v411c-.228 8.657 1.9 19.3-8.008 26.002-7.599 4.182-16.94 2.701-25.214 2.997-60.276-2.606-120.515-6.087-180.778-8.999v13c41.84 4.972 83.974 16.858 117.793 42.817 16.757 11.901 28.131 30.24 34.436 49.508 6.458 20.663 9.251 42.167 10.771 63.675 31.628-2.714 63.598-4.795 94.194-14.196 43.61-9.958 86.313-38.99 99.571-83.735 15.45-47.84 10.764-98.813 11.235-148.21V2032h91.8c15.301-.33 30.626.443 45.914-.339 11.504-.69 28.1-.556 32.286-17.327-43.696-36.79-86.197-75.867-132.5-109.334-24.168 31.142-47.349 63.092-71.566 94.196-5.288 4.868-16.13 1.675-23.874 2.804H1383zm68-211.25h460.2c19.393-.245 46.323 3.618 53.8-16.5-40.73-37.304-84.072-71.83-127-106.5-20.6 25.766-39.942 52.875-60.228 78.961-3.971 4.388-7.59 11.557-12.283 13.565-107.41 1.35-215.04-.245-322.489.474 1.516 10.202 6.136 19.845 8 30m133-865.75c2.13 5.055.203 13.023 1 19.382V1082h143V925h-144zm1 347.75h142v-162h-142z" style="fill:#000;fill-rule:evenodd;stroke:none"/></svg>