<svg xmlns="http://www.w3.org/2000/svg" width="3000" height="3000"><path d="M449 2666.5v1.5h2102v-1.5c-63.81-378.768-126.215-757.87-189.705-1136.696-47.349-283.998-94.654-568.016-142-852-4.398-26.67-8.911-53.338-13.325-80.003-1.118-6.656-2.232-13.342-3.35-19.985-.571-3.586-1.119-7.183-2.096-10.662-1.288-2.958-6.82-3.128-9.193-4.54-101.51-33.828-203.017-67.663-304.512-101.514a746151 746151 0 0 1-266.522-88.84c-39.072-12.89-78.06-26.135-117.144-38.98-4.713-1.335-9.273 1.032-13.839 2.453-144.507 48.104-288.95 96.378-433.449 144.467-54.18 18.08-108.385 36.116-162.566 54.195-23.808 7.923-47.625 15.882-71.434 23.805-5.676 1.96-11.407 3.738-17.06 5.726-6.564 1.113-6.72 8.744-7.34 13.268C740.08 921.349 682.77 1265.54 625.383 1609.692 566.339 1961.663 508.308 2314.864 449 2666.5m608-1327.062c1.764 2.778 4.232 5.024 6.313 7.562 64.914-21.839 126.352-53.644 182.36-92.991 27.367-20.307 55.119-40.588 79.43-64.609 13.32-11.362 25.022-24.303 36.965-37.024 2.932-3.123 5.268-6.889 8.909-9.277 2.265-1.999 7.513.556 10.104-.312 9.672.211 18.744-3.913 24.919-11.287-49.595-26.025-98.862-53.221-148.353-79.5-4.672 5.859-5.18 14.098-8.907 20.493-21.704 50.85-49.047 99.366-81.227 144.317-32.117 44.685-68.313 87.185-110.513 122.628m7 893.562h839.4c9.268-.338 19.175 1.111 27.987-2.593 6.455-2.004 14.512-9.659 5.618-15.197-19.255-17.638-41.032-32.227-61.087-48.867-20.633-14.819-39.662-32.606-60.918-46.343-15.152 17.81-28.9 37.101-43.76 55.212-7.368 9.302-14.622 18.709-22 28-3.967 6.55-9.924 6.428-16.486 5.788H1713v-260c58.261-.765 116.6.933 174.822-.504 6.255-.844 13.604-3.88 16.697-8.828 3.733-4.599-5.199-10.125-7.648-12.575-29.522-24.742-60.205-48-90.832-71.321-8.035-6.439-16.757-12.028-24.539-18.772-20.575 26.788-41.924 53.312-62.825 79.906-1.917 2.489-3.794 5.033-6.048 7.223-6.835 1.632-14.22.4-21.2.871H1370v-108c.006-5.195-.007-10.406.004-15.597.19-2.104.096-5.902 1.883-6.797 72.422-4.417 144.899-10.56 216.85-20.32 35.374-4.988 70.737-10.177 105.917-16.387 9.35-1.633 18.704-3.382 27.98-5.344 6.432-1.528 13.173-2.89 19.46-.37 17.923 6.676 39.425 10.744 56.906.815v-1.5c-40.742-38.603-82.398-76.215-122.5-115.5-34.142 18.38-69.37 35.03-105.217 49.945-54.494 23.093-110.386 42.774-166.456 61.612-13.974 4.629-27.862 9.508-42.03 13.468-5.334 1.371-10.55-1.114-15.5-2.765-36.068-12.487-72.18-24.961-108.297-37.26v488h-181c.735 7.993 5.812 16.56 6 24m5-1202h833.4c8.9.013 20.115.169 27.335-4.376 3.3-1.714 5.931-4.55 6.745-8.18-3.019-5.89-10.285-9.505-14.875-14.276-37.35-29.485-75.374-58.214-113.105-87.168-23.274 30.213-49.186 59.254-71.5 90h-167V878h217.2c11.91-.247 23.844.324 35.732-.229 8.759-.474 21.305-2.257 26.068-13.271-42.43-35.248-87.689-67.066-131.5-100.5h-1.5c-16.82 24.053-37.76 45.994-55.336 69.687-4.976 5.72-9.156 12.217-14.651 17.473-4.385 3.341-12.565.953-18.584 1.84H1570V740c13.047-1.43 31.915-7.795 33-25-55.98-4.062-112.125-8.005-168-13v305h-96V806c6.642-1.492 13.567-2.567 19.598-5.948 6.983-3.487 8.832-9.288 11.402-15.552-52.231-3.73-104.67-9.37-157-12.5v235h-150c.955 8.211 5.05 15.784 6 24m-3 1482.5c.588 3.08 3.434 5.728 4 8.5 75.983-15.698 149.236-44.34 218.366-79.177 32.703-16.774 64.13-35.795 94.36-56.657 15.584-10.494 30.274-22.238 44.712-34.226 3.362-3.312 6.907-6.368 10.559-9.35 5.024-4.508 14.48-.41 21.676-1.958 6.277-.77 15.005-5.332 16.327-10.632-48.191-28.282-95.508-59.247-143.5-88-32.516 55.027-72.59 105.79-117.37 151.37-44.875 45.178-94.182 87.27-149.13 119.63zm56-937c.99 3.759 1.96 7.533 2 11.5 126.099-10.447 253.695-30.242 369.908-82.953 54.77-24.315 106.068-56.212 152.72-93.768 47.33-38.258 91.313-82.168 128.372-130.279 5.243.46 10.365 1.92 15.668 1.835 5.22-.148 10.41-.525 15.613-.385 3.188 3.079 4.067 8.274 8.442 10.142 15.864 7.047 34.113 10.581 51.233 6.39 24.048-5.791 42.853-25.795 47.104-50.294 5.314-25.72-3.33-52.37-18.658-73.01-25.572-37.18-66.84-58.862-108.324-73.436-25.6-9.26-52.324-14.63-79.214-18.35-13.547-1.748-27.119-3.416-40.762-4.137-7.292-.686-14.575-1.104-21.89-1.334-5.737-.168-15.04-2.324-18.212 5.079 31.969 24.075 61.66 50.98 89.602 79.602 14.26 14.125 27.228 29.396 40.214 44.661 6.362 7.482 12.337 15.274 18.38 22.994 3.014 3.956 5.8 8.077 8.71 12.104 2.248 3.772 6.753 8.346 7.094 12.139-42.121-19.046-81.016-46.455-123-66-26.225 50.475-59.27 97.781-96.495 140.801-56.205 64.687-125.667 116.607-201.902 155.39-78.052 39.979-162.006 68.486-246.603 90.809zm173-317.5c15.368 2.995 31.029 5.889 45.658 11.666 20.254 8.538 38.46 23.273 49.54 42.418 10.016 21.505 10.062 45.89 12.802 68.916 24.037-1.846 48.099-5.134 71.633-10.404 31.742-7.219 65.518-23.156 79.793-54.494 14.743-34.147 13.028-71.892 12.574-108.127V1071c7.762-.7 17.104-3.417 22.597-8.202 2.824-2.588 5.889-5.942 5.91-10.053.741-4.551-7.164-3.571-9.744-3.964-7.048-.401-14.09-1.043-21.105-1.685-9.927-.374-19.803-1.79-29.708-2.25-33.654-2.446-67.296-5.464-100.95-7.846v180.6c-.12 7.559.167 15.09-.142 22.63-.385 5.16-1.077 12.728-7.602 14.756-10.612 2.335-23.627.215-33.45.454-32.643-1.097-65.183-4.218-97.806-5.44zm75 950h209v-260h-209zm192 72.5c56.242 34.377 106.035 77.873 153.37 123.37 17.564 18.086 34.521 36.728 50.392 56.342 6.812 8.533 13.458 17.194 19.811 26.09 6.335 7.786 10.748 17.117 17.374 24.64 16.942 9.365 41.58 10.562 57.965 4.576 15.83-5.599 28.94-18.312 35.517-33.662 12.678-27.696 3.607-64.733-11.705-86.767-24.16-36.744-61.843-61.647-101.496-78.79-42.097-18.621-86.908-29.541-132.465-35.232-13.568-1.427-27.116-3.292-40.739-4.08-13.86-.079-30.445-3.202-43.12-1.38-1.788 1.182-3.648 3.697-4.904 4.893" style="fill:#feddaa;fill-rule:evenodd;stroke:none"/><path d="M1055 1339.469c2.15 2.976 6.097 6.573 7 9.531 65.754-22.415 128.388-54.09 185.088-94.298 27.717-20.447 55.659-41.083 80.16-65.413 13.565-11.312 25.114-24.72 37.228-37.466 3.192-2.317 5.29-8.497 9.265-8.117 12.314.507 29.859-.902 33.259-13.706-51.084-24.795-100.082-54.89-151-80-19.948 55.924-50.144 107.717-83.165 156.75-33.331 48.979-72.664 94.45-117.835 132.719m1 868.781c2.458 7.773 5.901 19.043 7 25.75h836.4c16.373.316 38.753 2.858 44.6-14.5-20.528-18.61-42.895-35.067-64.628-52.222-10.898-8.426-21.712-16.985-32.585-25.441-5.29-4.368-10.696-8.558-16.194-12.64-5.368-3.367-10.774-9.064-16.25-11.197-14.222 18.528-28.944 36.668-43.23 55.148-7.234 9.197-14.46 18.406-21.688 27.607-1.752 2.295-3.598 4.486-5.742 6.391-9.444 2.012-19.994-.019-29.683.854v-258c58.396-.852 116.91 1.04 175.265-.561 6.367-.857 13.566-4.142 16.604-9.2 3.718-5.522-3.541-10.266-6.668-13.074-29.647-24.742-60.235-48.321-91.066-71.544-4.536-3.456-9.155-6.773-13.652-10.26-4.61-2.714-9.924-8.695-14.483-9.361-19.482 27.194-42.018 53.115-62.325 79.906-1.917 2.489-3.794 5.033-6.048 7.223-6.835 1.632-14.22.4-21.2.871H1371v-108c.082-5.215-.107-10.412.075-15.614-.382-6.163 5.574-5.31 10.011-5.478 71.531-3.829 142.797-10.82 213.8-20.247 35.13-5.11 70.258-10.145 105.165-16.582 8.977-1.578 17.91-3.266 26.81-5.186 10.807-2.715 24.37 4.617 37.179 6.353 11.13 1.14 26.467 2.893 36.96-7.246-40.613-40.083-84.144-77.536-124.5-118-33.437 19.44-69.333 34.942-104.82 50.327-54.57 23.276-110.614 42.977-166.814 61.873-14.266 4.639-28.41 9.8-42.897 13.709-4.735 1.159-10.752-1.89-16.114-3.462-35.453-13.327-72.099-23.71-107.355-37.447-1.426 162.873.26 326.062-.5 489h-182zm5-1201.75c2.491 8.104 5.443 17.866 7 25.5h828c15.816.226 39.346 2.089 43-16-43.026-33.653-86.966-67.69-130.5-101-23.95 30.276-49.677 60.049-72.5 91h-165V879h242.4c8.948-.064 20.087-.115 27.557-4.11 3.333-1.887 7.215-4.78 8.102-8.31 1.163-3.613-2.52-6.225-4.983-8.151C1802.63 825.135 1759.49 793.896 1717 762c-19.18 22.7-37.454 46.46-56.34 69.458-4.889 5.849-9.401 12.022-14.522 17.67-4.259 4.416-12.491 2.274-17.913 2.872H1571V741c7.95-.583 15.633-3.53 22.466-7.446 6.988-4.178 10.119-11.793 11.534-19.554-57.026-3.793-114.05-8.375-171-13v305h-94V807c12.576-2.508 29.402-5.38 31-24-26.475-1.216-52.866-4.369-79.316-6.026-26.192-3.098-53.231-3.03-79.184-6.974-1.426 78.54.26 157.4-.5 236h-151zm3 1507c1.352 3.608 4.829 7.828 6.5 10.5 75.721-18.138 149.8-43.922 218.866-80.177 32.97-16.926 64.674-36.135 95.175-57.166 15.503-10.925 30.714-22.367 45.052-34.789 3.584-3.226 7.116-6.554 10.973-9.443 2.42-2.51 8.261.064 11.134-.568 10.729 1.44 20.923-2.795 27.3-11.357a7676 7676 0 0 1-73.933-45.387c-25.169-14.099-48.738-31.483-74.067-45.113-13.937 28.444-33.766 53.795-52.65 79.074-60.123 75.503-131.148 144.103-214.35 193.926zm59-924.5c126.697-9.916 254.75-30.197 371.526-82.77 54.733-24.316 106.06-56.072 152.69-93.622 47.496-38.327 91.614-82.373 128.784-130.608 4.945 1.052 9.914 1.927 15.011 1.901 4.807-.037 9.635-.514 14.408-.335 3.067 2.863 3.787 7.874 7.826 9.774 14.764 6.779 31.47 9.99 47.646 7.83 22.62-3.087 42.555-19.301 50.069-40.664 8.892-23.508 4.41-49.5-6.451-71.397-10.74-19.398-25.754-36.29-43.156-49.795-17.483-13.442-37.027-23.706-57.51-31.746-27.498-10.783-56.043-19.187-85.419-23.007-14.414-2.352-28.945-3.782-43.456-5.368-7.96-.406-15.89-1.175-23.845-1.52-3.965-.163-7.934-.338-11.886-.497-3.68.027-8.32-.752-10.87 1.371-2 1.403-3.627 3.276-5.367 4.953 32.652 23.082 61.8 50.97 90.102 79.102 27.4 28.097 53.893 58.786 75.398 91.398-39.982-22.817-80.939-44.341-121-67-28.238 49.088-58.389 97.758-96.522 140.031-56.274 65.21-125.857 117.676-202.484 156.73-78.314 40.214-162.576 68.815-247.494 91.239.342 4.7 2.054 9.241 2 14m171-329c15.368 2.995 31.029 5.889 45.658 11.666 20.254 8.538 38.46 23.273 49.54 42.418 10.016 21.505 10.062 45.89 12.802 68.916 23.809-1.24 47.484-5.08 70.835-9.725 31.85-7.106 66.114-22.29 81.561-53.058 15.811-33.745 14.053-71.701 13.604-107.846V1072c12.449-1.344 27.98-5.791 30-23-54.884-4.684-110.003-9.198-165-13v181.2c-.143 7.528.205 15.085-.185 22.592-.352 5.19-1.423 12.674-8.065 14.352-10.975 2.085-22.352.119-33.4.174-32.506-1.029-64.842-4.536-97.35-5.318zm77 948h207v-258h-207zm189 73.563c.028.53.167.991.438 1.437 30.993 16.958 58.343 39.979 86.212 61.488 48.999 41.039 95.725 85.479 133.325 137.486 7.29 9.325 13.399 19.497 20.226 29.135 3.615 4.305 10.633 5.47 15.25 6.987 21.646 6.636 47.053 3.953 64.71-11.027 14.845-12.629 23.212-31.895 23.6-51.282 1.11-34.033-17.187-66.03-41.236-88.762-35.841-34.988-82.842-55.634-130.281-69.449-50.828-14.899-103.965-20.586-156.721-22.519-2.95-.252-6.612.304-9.023-1.057-1.828 2.459-4.155 4.908-6.5 7.563" style="fill:#000;fill-rule:evenodd;stroke:none"/></svg>