<svg xmlns="http://www.w3.org/2000/svg" width="3000" height="3000"><path d="M406 2716h2188c-.452-13.213-4.171-26.125-5.71-39.208C2468.846 1960.196 2349.431 1243.585 2230 527c-109.325-35.987-218.457-72.878-327.734-109.071-95.467-31.86-190.966-63.65-286.44-95.486-21.006-7.01-42.008-13.98-63-21l-30.529-10.183c-9.47-3.025-21.252-8.92-30.35-5.086-156.884 52.344-313.79 104.58-470.681 156.897-58.813 19.64-117.642 39.186-176.447 58.829-13.016 4.296-26.007 8.68-39 13-6.335 2.066-12.631 4.23-18.954 6.3-3.19 1.104-6.385 2.128-9.576 3.212-7.976 1.527-8.94 7.943-9.29 14.656-63.894 383.21-127.754 766.408-191.617 1149.624-28.466 171.167-57.103 342.324-85.568 513.49-14.29 85.674-28.582 171.345-42.844 257.017-7.145 42.829-14.299 85.67-21.418 128.502-3.57 21.335-7.128 42.665-10.66 64.002-1.808 10.66-3.57 21.336-5.34 31.998-1.36 10.463-4.53 22.595-4.552 32.299m630.656-1358c26.833-19.634 50.229-44.126 74.077-67.233 21.499-24.956 45.909-48.586 63.267-76.767h3v378c20.551.085 41.31 1.053 61.52-3.411 14.146-3.04 27.82-7.501 41.25-12.731 9.55-4.233 19.152-8.92 27.276-15.568 6.948-5.444 4.575-17.014 4.954-24.532V1081h3c8.849 22.275 18.419 44.425 24.634 67.684 5.068 18.01 9.701 36.331 10.85 55.076.019 3.602.516 7.125 1.07 10.649 16.234 18.047 44.279 27.343 67.566 18.546 23.034-8.29 39.801-32.68 38.874-57.274-.052-25.335-17.943-51.648-35.352-65.583-18.827-16.92-41.36-29.416-65.136-37.907-10.087-3.749-20.374-6.996-30.674-10.103-5.013-1.053-9.776-3.312-14.832-4.088V943h112.2c10.272.491 24.676-1.748 28.51-11.128 1.704-3.473-2.421-6.882-4.206-9.517-18.059-20.747-36.56-41.124-55.606-60.957L1364.5 833c-9.56 12.65-16.267 27.336-25.153 40.46-4.31 6.867-8.398 13.88-12.575 20.83-2.047 3.531-4.572 7.588-6.675 10.682-2.002 2.897-4.104 8.077-7.097 9.028a9 9 0 0 1-2-1.5c2.06-16.27.274-32.807 1-49.145v-74.902c-.7-23.75 1.033-51.732-1-73.453 14.664-.69 33.028-6.032 36-26-56.755-3.975-113.283-11.51-170-16v245h-125c1.472 7.344 4.111 15.911 6.255 22.427 1.334 3.865 8.719 1.934 11.503 2.573H1166c-1.811 19.852-6.692 39.397-10.111 59.01-12.605 63.119-29.45 125.357-50.911 186.046-10.969 30.502-23.002 60.563-36.934 89.838-7.212 14.445-14.624 28.816-22.765 42.76-3.295 7.06-8.015 13.242-12.064 19.834-1.228 3.18-5.46 7.13-4.37 9.969 2.294 2.542 5.558 5.304 7.811 7.543M1175 2251h-9c.101 14.547.7 29.67-4.95 43.459-8.034 24.106-23.366 45.969-43.027 62.014-17.058 13.932-38.186 22.011-54.24 37.303-13.95 13.215-24.359 31.42-22.761 51.22.491 17.666 7.634 34.948 18.93 48.331 19.893 22.69 59.287 28.606 83.752 17.788 20.435-7.797 36.388-24.637 47.348-43.073 18.578-30.442 22.004-67.19 19.459-101.893-2.6-34.504-14.44-67.498-28.196-98.903-1.788-5.472-5.993-11.124-7.315-16.246m3-1c29.122.536 58.841 1.167 86.906-8.254 12.9-4.321 25.818-9.48 37.268-16.853 5.118-4.118 12.306-7.635 14.381-13.706 1.052-7.319-.014-14.83.445-22.187h462c-.363 25.086-4.9 49.9-7.324 74.81-5.197 36.859-10.833 73.743-21.22 109.57-4.641 16.437-11.881 35.702-21.814 48.045-5.53 6.481-15.069 10.614-22.42 12.442-4.671.89-9.435 1.087-14.175 1.13-3.816-.674-10.718 1.29-12.047-1.997h-1.5c-3.424 3.043-9.926 1.144-15.006 1.383-4.456-.602-10.736.511-12.994-2.383-2.96 2.816-8.195 1.246-11.978 1.334-29.254-.418-58.318-4.33-87.522-5.334v8c31.665 7.21 64.78 15.165 91.137 35.472 13.009 9.854 23.928 23.725 27.202 40.04 4.682 16.024 3.544 37.53 4.661 50.488 32.616-.31 65.88-1.13 97.476-10.123 21.373-5.54 41.368-16.415 58.343-30.379 24.602-22.427 39.467-53.416 49.38-84.629 11.303-33.652 17.249-68.812 23.26-103.68 6.297-39.874 10.93-80.007 14.541-120.189 13.406-.568 30.985-6.832 38-17.5-19.256-16.097-38.464-32.273-57.764-48.316-9.75-8.132-19.546-16.19-29.236-24.377-5.131-3.791-9.665-8.345-14.654-12.295-4.527-3.034-9.669-9.013-14.014-10.512-14.756 15.374-31.141 29.085-46.567 43.735-5.552 5.896-11.837 11.005-17.637 16.613-5.216 5.506-15.227 3.014-21.946 3.652H1589v-119h211.8c11.82-.017 23.631.02 35.438-.011 8.808-.246 21.33-3.01 24.762-13.677-37.993-33.862-80.783-61.687-120.5-93.312-18.327 23.382-37.683 46.002-56.137 69.29-4.44 5.486-8.953 13.717-17.769 12.71H1589v-107.4c.388-4.472-.826-10.289 1.5-13.6 11.508 1.656 23.193.678 34.771 1h184.608c10.003.12 20.03-.04 29.989-.937 7.728-.558 18.085-3.824 21.132-13.61-38.815-32.521-79.531-62.752-120.5-92.453-11.82 12.858-21.85 27.247-33.326 40.39-10.05 13.865-22.932 26.34-32.174 40.61h-86v-105c.42-4.619-.871-10.569 1.5-14 20.261 2.34 40.819-.007 61.151 1h188.83c9.997-.187 20.188.64 30.04-1.488 3.592-.98 7.571-2.902 10.372-4.834 2.623-1.933 6.02-5.167 5.518-8.182-39.821-34.777-83.644-65.121-125.411-97.496-15.793 18.101-30.123 37.71-45.769 55.994-6.653 8.159-13.227 16.35-19.857 24.522-3.201 5.454-8.13 6.092-13.593 5.484H1350.2c-8.106-.375-18.02.907-25.186-1.594-49.014-17.69-97.778-36.442-147.014-53.406zm95 6c5.193 37.927 6.895 76.454 3.734 114.615-1.305 14.064-2.986 28.106-5.747 41.975-2.48 11.816-5.05 24.269-8.508 35.685 8.906 16.792 29.58 31.588 46.691 34.994 16.15 3.18 33.286-.381 46.49-10.278 19.206-12.995 30.438-35.198 33.652-57.66 3.244-23.765-2.705-47.745-13.53-68.769-20.755-38.575-54.234-69.321-91.776-91.294-3.616-1.724-7.399-.006-11.006.732m44-382h136v-118h-136zm0 146h136v-120h-136zm1 144h135v-118h-135zm656-616.5c-38.575-34.357-76.696-70.562-118-101.5-14.41 22.478-31.976 43.635-46.925 65.913-4.162 5.5-7.934 11.246-12.063 16.761-1.463 1.892-2.872 4.427-4.62 5.802-1.62 1.735-5.107 1.284-6.918 1.524H1732v-222h175.8c9.15-.138 18.397-.007 27.462-1.403 5.776-1.55 14.637-3.718 16.807-11.073 1.174-5.629-7.624-9.235-11.044-13.999-31.184-30.032-65.491-56.597-98.09-85.04-.899-.98-2.107-2.01-3.435-2.485-10.776 14.354-21.258 29.042-31.892 43.516-5.431 7.51-10.944 14.97-16.357 22.474-2.736 3.63-5.45 7.24-8 11-2.202 3.478-6.411 7.633-7.251 11.01h-45v-143c13.867-.347 32.13-7.076 36-25-58.37-4.046-116.608-10.213-175-14v182h-195c.787 6.265 4.066 14.366 5.92 21.619.656 4.097 7.267 3.254 10.07 3.381H1592v223h-229c1.23 7.588 4.515 16.215 6.36 22.988 2.271 3.257 8.913 1.33 12.032 2.012h565.362c10.956 1.064 22.314-3.223 27.246-13.5m-4-484c-37.217-35.614-77.364-68.044-116.5-101.5h-1.5c-14.125 22.265-31.635 43.017-46.312 65.075-3.94 5.446-7.89 10.884-11.764 16.372-2.836 3.813-4.847 8.959-11.223 8.529-17.23.07-34.485-.013-51.701.024V873c64.733-.425 129.506.519 194.21-.28 6.88-.974 14.413-3.087 18.666-9.087 4.6-5.082-4.249-11.314-7.342-14.561-32.107-28.659-64.771-56.688-97.89-84.184-2.147-1.875-4.265-3.883-6.972-4.888-14.021 18.445-27.06 37.73-40.84 56.366-6.8 9.359-13.46 18.862-20.365 28.134-4.045 4.08-12.544 1.752-18.742 2.5H1732V734.8c.005-2.798-.006-5.603.004-8.397.038-2.3.274-5.667 1.77-6.974 7.423-2.105 15.717-3.074 22.095-7.877 5.783-4.479 10.113-11.232 11.131-18.552-58.386-3.584-116.626-9.288-175-13v168h-166c2.007 8.404 4.812 16.665 7 25h159v179h-192c1.23 7.588 4.515 16.215 6.36 22.988 2.271 3.257 8.913 1.33 12.031 2.012h491.592c11.39-.003 22.76.004 34.136-.002 10.58.898 21.164-3.776 25.881-13.498M1403 2253c12.149 26.648 24.516 54.007 31.758 82.669 6.297 22.247 10.878 45.11 12.413 68.206.176 4.675.332 9.333.503 14.004.197 4.18-.23 9.41 2.4 12.416 10.296 9.62 22.943 17.387 36.852 20.401 21.715 4.668 45.697-3.377 59.415-21.07 13.76-16.066 18.284-41.765 12.476-62.336-7.41-31.882-30.555-57.516-56.906-75.588-26.614-18.807-57.368-30.588-88.12-40.55-4.145-1.604-7.488.974-10.791 1.848m136-12.406c19.744 18.552 38.888 39.01 53.097 62.452 14.567 22.87 27.63 47.851 31.903 74.954 11.37 4.719 22.426 11.21 35.197 11.626 18.901 1.88 39.024-6.342 50.504-21.577 11.66-15.202 16.562-35.585 10.97-54.2-9.7-32.86-40.865-52.648-71.312-63.217-17.553-6.995-36.394-9.953-55.039-12.221-9.681-1.382-19.417-1.895-29.183-2.108-4.747.639-10.617-1.409-14.278-1.807-4.94.367-8.108 3.332-11.859 5.504z" style="fill:#fda;fill-rule:evenodd;stroke:none"/><path d="M291 2812.5c402.66 1.426 806.125-.26 1208.95.5 402.946-.76 806.184.926 1209.05-.5-66.691-393.12-131.048-787.321-197.186-1180.681C2447.104 1239.148 2380.056 846.747 2316 454c-136.143-44.935-272.089-90.768-408.181-135.9-102.008-33.974-204.008-68.03-306-102-19.182-6.399-38.38-12.77-57.553-19.171-8.997-3.033-18.01-5.99-27-9-7.928-3.04-16.863-7.25-26.38-2.738-134.51 44.908-269.079 89.643-403.589 134.55C952.797 364.27 818.541 409.675 684 454c-64.117 393.376-131.371 786.397-196.109 1179.703C421.811 2026.161 357.548 2420.573 291 2812.5m116-97.5h2186c-120.11-729.14-243.257-1457.94-364-2187-109.157-35.927-218.092-72.748-327.181-108.9-95.331-31.722-190.626-63.585-285.954-95.3q-31.498-10.534-63-21l-30.566-10.195c-9.852-3-21.422-9.034-30-5.21-156.482 52.2-313.005 104.314-469.48 156.505-58.858 19.6-117.69 39.211-176.522 58.84-12.832 4.262-25.65 8.528-38.47 12.817-6.336 2.128-12.684 4.227-19.008 6.343-5.33 2.846-14.097 3.151-17.405 7.24-66.013 385.799-128.474 772.546-193.688 1158.548C521.372 2030.17 462.67 2372.459 407 2715" style="fill:gray;fill-rule:evenodd;stroke:none"/><path d="M1317 2164h2v-117h117c5.419.715 12.215-1.048 16.5 1 .384-.972.51-1.963.5-3h-136zm414-1316h38v-2c-11.305-.307-24.324.307-36 0v-96.6c.792-9.366-1.375-23.221 1.75-30.4H1731zm0 688h2v-221h184.2c3.45-.063 8.428.357 10.8-1.5-65.475-1.426-131.428.26-197-.5z" style="fill:#bfa67f;fill-rule:evenodd;stroke:none"/><path d="M1397 1287.5c.03.55.186 1.057.5 1.5H1593v-174.6c-.155-3.406.432-7.766-1.5-10.4-1.426 60.805.26 122.101-.5 183-64.53.76-129.65-.926-194 .5" style="fill:#40372b;fill-rule:evenodd;stroke:none"/><path d="M1546 2235.375c2.991 1.234 8.492.391 11 .125-3.275-3.804-8.18-3.434-11-.125m101 198c1.313 1.294 4.548.31 6 .125-.576-.726-.932-1.572-1-2.5-1.935-.116-3.8.866-5 2.375M1673.5 2559c.772-2.651.561-6.857 0-9-3.313 2.499-2.78 6.579 0 9m1.5-124.625c1.598 1.335 5.25.284 7 .125-.576-.726-.932-1.572-1-2.5-2.258-.224-4.602.48-6 2.375" style="fill:#f2d3a5;fill-rule:evenodd;stroke:none"/><path d="M1311 917h3v-4h-3z" style="fill:#6f604a;fill-rule:evenodd;stroke:none"/><path d="M1037.5 1360c51.187-42.836 99.857-89.876 138-145l.5 1.625V1593c20.824.06 41.81.987 62.32-3.143 14.558-3.04 28.63-7.643 42.45-13 9.55-4.232 19.152-8.92 27.276-15.567 6.948-5.444 4.575-17.014 4.954-24.532v-80.936c.76-124.547-.926-249.36.5-373.822 11.677 26.126 21.537 53.186 28.716 80.898 3.202 11.014 5.04 22.336 6.543 33.666.769 5.178.684 10.426 1.25 15.608.516 7.952 13.09 12.374 17.958 16.704 6.448 3.445 14.605 6.715 21.235 7.881 14.025 1.546 28.682.416 40.815-7.483 16.79-9.785 29.008-32.01 28.97-49.722.793-20.36-7.8-40.206-20.69-55.591-23.81-28.922-58.484-46.336-93.423-57.564-7.935-2.714-15.938-5.136-24.03-7.33-2.589-.76-5.14-1.81-7.844-2.067V944h112.2c10.4.538 24.593-1.82 28.626-11.142 1.923-4.406-1.095-7.627-3.728-10.736-17.834-20.652-36.16-40.928-55.073-60.597l-15.758-15.758-7.87-7.87c-2.519-2.265-5.581-6.196-8.397-6.897-15.403 27.716-33.288 54.673-49.5 82-.478-.482-.96-.928-1.5-1.334 1.893-7.984.44-16.393 1-24.49V757.829c-.547-13.5.88-29.532-1-41.829 14.913-.572 34.975-6.71 36-28-57.438-3.738-114.58-11.97-172-16v245h-126c3.247 8.484 4.498 19.695 8.456 26.183 9.958 1.928 20.545-.022 30.643.817H1165c-11.782 74.557-29.27 148.505-53.2 220.134-11.42 35.693-25.438 70.453-41 104.499-7.13 17.143-16.713 33.09-25.504 49.37-4.012 7.892-8.986 15.188-13.739 22.625-1.33 3.115-6.536 8.597-3.863 10.914 3.055 2.526 6.892 6.992 9.806 8.458m138.5 890h-11c.101 14.547.7 29.67-4.95 43.459-8.034 24.106-23.366 45.969-43.027 62.014-17.058 13.932-38.186 22.011-54.24 37.303-14.101 13.274-24.378 31.601-22.778 51.505-.406 17.389 7.955 36.827 17.926 48.88 19.505 23.145 59.3 29.777 84.193 19.93 21.003-7.1 37.374-23.598 48.788-42.051 19.268-30.186 22.568-66.798 20.893-101.521-1.859-34.778-13.476-68.297-27.059-99.987-2.244-6.556-6.786-13.528-8.746-19.532m1 1c29.568.498 59.82 1.454 88.34-8.1 12.619-3.986 27.219-10.103 37.387-16.731 5.314-3.782 11.63-7.508 14.805-13.414 1.01-7.521.082-15.19.468-22.755h460c-1.842 34.796-6.871 69.446-11.98 103.884-4.143 26.058-9.06 52.019-16.256 77.428-4.837 17.235-12.335 37.62-23.161 50.276-10.402 10.535-25.491 13.277-39.63 12.412-22.998-.437-45.981-1.346-68.936-2.639-11.364-.685-22.72-1.772-34.087-2.377-5.783-.377-11.513-1.234-17.309-1.391-4.825-.789-12.163.272-15.641-2.093 10.747-16.398 13.965-37.636 9.42-56.723-3.808-18.353-12.455-35.614-25.323-49.296-16.342-19.53-38.16-33.98-60.488-45.671-11.742-6.083-23.985-11.16-36.387-15.724-6.374-2.454-12.96-4.379-19.396-6.651-6.561-3.099-12.731-2.766-17.826 2.065 22.892 44.196 38.865 92.648 44.342 142.282.954 6.686.947 13.451 1.228 20.174.284 5.703-.519 13.009 3.524 16.42 14.126 12.28 31.914 21.7 51.215 20.55 18.999-.093 37.11-9.511 48.191-24.926.832 2.43.282 5.999.5 9 31.337 7.157 64.123 14.913 90.31 34.866 13.122 9.662 24.303 23.499 27.813 39.73 3.991 16.819 4.881 34.195 4.877 51.404 31.969-.007 70.057-1.417 98.393-9.866 21.37-4.816 44.179-17.875 59.426-30.636 24.99-22.65 39.725-54.097 49.738-85.67 11.194-34.006 17.201-69.452 23.205-104.637 6.255-39.207 10.6-78.678 14.238-118.191 14.019-.398 31.824-7.367 39-18.5-39.355-32.062-77.516-66.405-117.5-97.5-15.242 14.842-30.743 29.439-46.598 43.615-5.457 6.002-11.754 11.1-17.635 16.617-5.442 6.59-14.347 4.497-21.29 4.768H1590v-117h230.4c9.118-.274 20.164.869 28.264-1.785 3.529-1.128 6.9-2.933 9.529-5.569 2.169-2.3 4.664-6.797 2.326-9.135-37.977-33.222-79.92-62.836-120.519-92.511-19.13 22.561-37.454 46.07-56.325 68.906-4.763 5.697-9.073 13.626-16.88 13.088-25.603.017-51.2-.003-76.795.006v-105c.42-4.619-.871-10.569 1.5-14 8.722 2.058 17.945.275 26.786 1 67.372-.004 134.73.004 202.087-.002 14.494-.752 36.444 1.53 41.126-14.195.129-4.811-7.589-7.672-10.693-11.607-29.031-24.363-59.719-46.59-90.116-69.155-6.596-5.18-13.818-9.572-20.19-15.041h-1.5c-19.339 28.512-45.643 53.492-65 82h-84v-103.8c.197-4.105-.606-10.25 1.5-13.2 12.698 2.433 25.964-.1 38.782 1h203.3c11.098-.178 22.258.409 33.307-.692 9.339-.719 18.364-6.2 22.111-14.808-41.32-35.018-85.321-66.864-128.5-99.5-15.408 18.562-30.19 37.675-45.635 56.197a6963 6963 0 0 1-20.137 24.877c-1.421 2.123-3.27 3.82-5.32 5.3-89.858 1.784-180.122-.323-270.053.626H1351.6c-7.927-.442-17.55.854-24.637-1.236-49.884-18.473-99.96-36.737-149.963-54.764zm95 4c4.34 37.026 7.631 74.389 3.994 111.641-2.164 27.298-6.887 54.53-14.576 80.778-.143 4.105 4.043 7.954 6.943 11.586 10.664 14.262 30.442 25.735 46.94 25.976 14.608 1.118 29.55-1.66 41.36-10.99 16.659-11.606 27.989-30.167 32.226-49.882 4.38-20.78 1.977-42.896-5.135-62.746-17.873-46.569-56.815-81.496-98.26-107.016-3.839-2.887-9.795-.14-13.492.653m40.5-1339c.295-.643.485-1.298.5-2-.884.058-1.065.773-.833 1.481zm5.5 957h134v-116h-134zm0 146h134v-118h-134zm0 144h134v-117h-134zm43-627.5c1.189 4.484 2.916 8.816 3.97 13.367.943 3.776 2.234 7.438 3.404 11.122 1.436 2.341 5.799 1.729 7.822 2.01 8.999.003 17.995-.001 26.978.001h476.033c23.993-.042 47.978.05 71.96-.027 7.97-.03 16.541-2.757 21.336-9.483 5.373-7.257-3.86-11.01-7.979-15.474-34.183-32.808-71.526-62.288-107.524-93.016-16.988 21.205-31.895 44.367-48.312 66.075-4.096 5.566-8.025 11.217-12.083 16.802-2.774 4.364-5.363 9.06-12.13 8.123H1732v-221h175.2c13.3-.592 42.161 5.332 47.8-15.5-37.476-34.596-75.945-68.256-115.5-100.5-11.5 14.209-21.526 29.636-32.647 44.154-5.342 7.486-10.893 14.828-16.22 22.315-4.137 7.2-11.427 13.78-15.633 22.531h-43v-141c14.316-1.347 33.895-6.617 36-27-58.71-3.895-117.272-10.451-176-14v183h-148.8c-15.559-.717-34.022 1.05-48.2-1 .924 4.685 2.704 9.167 3.944 13.765 1.006 3.677 2.112 7.352 3.343 10.936.929 2.482 5.29 2.02 7.302 2.294 8.386.014 16.767-.002 25.153.005H1591v221h-230zm37-484c1.189 4.484 2.916 8.816 3.97 13.367.943 3.776 2.234 7.438 3.404 11.122 1.436 2.341 5.798 1.729 7.822 2.01 8.998.003 17.993-.001 26.976.001h485.597c9.476-.422 20.798.765 29.368-1.03 6.183-1.435 13.99-5.576 15.373-13.754-2.879-5.517-9.668-10.103-13.728-13.992-33.551-30.854-68.73-60.101-103.782-89.224-16.535 20.682-31.097 43.272-47.076 64.447-4.104 5.362-7.944 10.913-11.865 16.399-2.941 3.745-5.653 9.523-10.02 9.948-17.33.587-34.701-.107-52.039.206V874c64.899-.542 129.869.66 194.737-.357 6.929-1 14.336-3.312 18.479-9.44 5.14-5.748-2.272-10.77-6.191-14.677-32.282-28.644-64.817-57.016-98.06-84.55-3.087-2.73-6.405-5.228-9.465-7.976-19.758 30.749-44.493 58.856-63.5 90h-36V720c14.812-.621 34.938-6.772 36-28-59.077-3.311-117.922-9.815-177-13v168c-55.607.76-111.478-.926-167 .5 3.607 8.357 4.897 17.919 8 26.5h159v177h-193zm138 1188.875c21.178 18 39.466 39.323 54.519 62.708 14.8 23.159 28.12 48.46 32.481 75.917 11.678 4.924 23.1 11.508 36.266 11.736 19.216 1.74 39.751-5.973 51.435-21.687 11.94-15.576 16.588-36.452 11.156-55.51-9.611-33.699-41.766-53.87-72.923-64.415-17.778-7.082-36.955-9.47-55.754-11.971-9.956-1.205-19.95-1.797-29.968-1.956-8.71-.635-18.976-1.593-27.212 5.178" style="fill:#000;fill-rule:evenodd;stroke:none"/></svg>