<svg xmlns="http://www.w3.org/2000/svg" width="3000" height="3000"><path d="M364 2760.5v1.5h2272v-1.5c-68.931-409.09-136.257-818.54-204.874-1227.691-51.076-306.848-102.33-613.661-153.4-920.497-4.868-28.824-9.564-57.688-14.431-86.508-1.116-7.008-2.365-13.985-3.488-20.978-1.2-6.774-.246-15.245-9.425-16.859-109.868-36.632-219.702-73.24-329.563-109.867-95.996-32.013-192.02-63.992-288-96-41.993-13.978-83.98-28.011-125.966-41.994-5.663-2.605-10.407-1.693-15.513.621-156.173 52.06-312.354 104.114-468.521 156.173-58.68 19.531-117.334 39.097-175.992 58.657-25.668 8.506-51.298 17.139-76.962 25.643-6.176 2.075-12.369 4.11-18.537 6.195-3.02 1.124-6.483 1.813-8.8 4.255-62.934 375.423-125.132 751.075-187.889 1126.544C490.857 1998.664 428.048 2380.37 364 2760.5m649-1639.75c1.167 2.88 4.004 6.217 5.5 8.25 41.567-17.7 83.968-34.255 123.49-56.438 19.835-9.68 38.98-20.555 58.013-31.69 9.415-5.483 18.787-11 28.012-16.792 4.738-2.798 9.227-5.998 14.06-8.62 4.51-2.047 9.8-6.856 13.925-7.46 1.395 7.623 3.99 15.083 6.363 22.436 1.23 3.938 8.69 1.855 11.406 2.564H1410v146h-317c1.626 7.701 3.976 15.393 6.189 22.935 1.02 4.533 9.205 2.42 12.193 3.065H1410v325h-369c1.626 8.861 6.127 18.764 7 27h870c17.577-.732 40.465 2.072 48-14.5-44.932-42.665-97.128-76.802-144.5-116.5-14.685 18.741-29.208 37.65-43.659 56.573-11.005 14.265-22.078 28.464-32.904 42.86-4.194 6.48-14.336 4.171-20.894 4.567H1561v-325h321c11.613.59 28.07-.137 35-14.5-43.22-36.045-87.375-71.49-131.5-106.5-13.657 15.704-24.884 33.466-38.14 49.517-9.422 12.576-19.117 24.93-28.594 37.451-1.813 2.44-3.54 4.995-5.865 6.97-5.208 2.03-13.03.447-18.556 1.062H1561v-146h92.4c15.622-.017 31.229.02 46.84-.011 12.428-.82 28.813.988 36.76-14.489-38.04-34.97-80.93-64.398-120.5-97.5-18.449 23.357-36.719 46.922-55.261 70.212-3.631 4.099-6.924 9.79-10.705 13.146-1.852 1.938-5.67 1.485-8.63 1.642H1260v-3c56.451-35.088 108.275-78.284 157.895-122.395 24.88-23.703 49.68-47.529 71.85-73.836 11.337-12.483 21.56-26.043 31.925-39.317 4.915-6.895 10.34-13.402 15.006-20.47 2.334-3.416 4.54-6.925 6.898-10.317 2.35-3.265 4.693-8.243 8.426-8.665 24.878 79.554 69.475 153.052 127.968 212.477 55.956 60.614 126.4 105.46 196.532 147.523 6.777-32.731 20.484-63.967 40.294-90.977 19.579-25.847 45.61-49.516 78.206-57.023-.142-5.032.252-10.029 1-15-82.036-15.828-162.917-39.306-240.286-70.909-36.865-14.971-71.981-33.86-104.885-56.195-16.14-11.518-32.402-23.157-46.562-37.129-7.056-7.401-14.702-14.249-21.534-21.857-3.216-3.87-6.628-7.585-9.758-11.522-2.838-3.599-7.58-8.412-7.975-12.388 10.688-.443 21.234-2.734 31.596-5.166 9.278-2.396 18.834-7.722 22.404-17.209-3.207-2.59-9.227-2.582-13.697-4.295-67.108-18.049-134.437-35.36-201.545-53.33-3.437 4.27-3.474 12.473-6.116 18.285-16.269 49.187-40.834 95.235-68.926 138.635-40.913 64.251-89.929 123.103-142.318 178.182-27.545 27.448-54.405 55.592-84.09 80.822-28.367 24.497-58.089 48.495-89.308 69.076zM1026 2601c70.9-28.106 137.405-68.607 194.126-119.64 10.34-10.392 20.782-20.678 31.068-31.114 2.267-2.296 4.442-6.103 7.519-5.755 18.659 17.835 37.353 37.421 59.46 51.612 79.809 53.913 177.684 69.118 271.505 75.465 104.652 5.383 209.573 2.625 314.322 3.432 1.261-28.921 8.988-57.83 23.85-82.755 7.168-11.526 16.651-21.631 28.165-28.91 5.498-3.512 12.558-6.632 18.195-8.564 3.232-1.064 6.439-2.163 9.642-3.249 3.094-1.27 1.595-7.181 2.148-9.522-87.779 3.794-175.827.873-263.655 2-64.131.173-128.39-.197-192.23-7.009-45.141-4.108-90.245-11.988-133.27-26.549-15.609-5.323-30.977-11.43-45.692-18.872-6.511-3.234-12.92-6.64-19.18-10.3-5.19-3.813-11.53-6.334-16.176-10.79-.404-4.98 6.095-11.493 7.818-15.87 25.003-39.966 43.55-83.539 60.145-127.525 16.472-45.595 30.268-92.418 39.24-140.085 12.858-1.827 29.917-2.965 39-17.5-40.49-33.283-80.506-67.579-120.5-101.5-4.61 6.986-12.008 11.965-17.37 18.37-6.394 4.79-10.826 15.408-18.13 16.63v-142h74.4c18.81-.016 37.641.02 56.44-.01 11.103-.366 27.17.624 33.912-12.19 2.18-4.214-4.235-8.246-6.485-11.033-22.565-22.655-46.502-43.839-70.272-65.19-10.305-7.559-19.015-18.15-29.995-24.577-7.926 13.982-18.891 26.732-27.337 40.536-10.087 13.04-18.252 27.762-28.663 40.464h-2v-142c14.127-3.231 33.743-6.103 37-27-55.456-2.546-110.55-10.454-166-13v187h-143c2.546 8.113 4.816 19.952 8.296 26.096 10.18 2.105 21.054.005 31.385.904H1177v178h-139c2.618 8.19 5.577 18.045 8.676 25.313 3.068 3.236 10.898.695 14.633 1.687H1127c6.419 51.27 14.767 102.384 26.706 152.698 9.503 37.363 20.258 74.453 35.362 109.98a744 744 0 0 0 8.413 19.22c2.443 5.494 7.546 11.187 3.355 18.424-21.466 43.606-44.872 86.697-75.719 124.529-29.423 38.694-65.482 71.953-104.117 101.149.289 3.566 4.37 5.97 5 9m207-314c11.611-35.003 21.547-70.686 29.62-106.689 4.482-19.22 8.239-38.58 11.598-58.021 2.698-18.142 7.187-39.434 7.782-56.29h-143c.7 10.534 5.2 20.545 7.235 30.848 9.816 34.965 21.48 69.426 35.82 102.802 6.779 15.944 14.579 31.391 22.639 46.682 4.172 7.241 8.36 14.488 12.642 21.656 2.235 3.585 4.77 6.981 7.007 10.553 2.35 3.31 4.757 8.279 8.657 8.459m-48-1039c10.258 33.853 20.27 68.095 24.985 103.344 4.88 27.898 6.983 56.1 6.015 84.408.39 5.467-.342 10.896-.413 16.326 2.908 8.207 13.308 12.657 18.619 18.274 13.022 9.418 28.282 17.066 44.7 17.608 24.693 1.62 48.304-10.689 63.704-29.484 15.75-19.081 21.605-44.87 17.146-68.989-7.248-37.641-32.766-69.06-62.443-91.823-29.771-23.19-64.886-38.563-100.223-51.01-4.53-2.049-8.22-.58-12.09 1.346m219 992.625c3.967 2.255 8.574 7.814 12.822 6.436 4.736-2.483 9.006-5.77 13.513-8.635 26.18-18.04 50.18-39.03 72.898-61.159 10.854-11.28 23.356-24.741 32.904-35.468 5.087-6.076 10.317-12.017 15.073-18.345 2.457-3.138 5.026-6.189 7.43-9.35 2.245-2.973 4.864-6.976 8.36-7.104v142.2c-.847 10.608 1.79 25.337-5.29 32.442-5.675 5.066-16.589 2.734-24.766 3.358-25.698.351-51.267-2.941-76.944-3v11c13.609 2.414 27.107 6.516 39.45 12.758 18.533 9.818 31.573 28.109 37.27 47.94 5.268 21.287 6.83 43.45 7.28 65.302 35.313-4.95 73.45-8.137 104.023-28.682 14.91-9.45 26.325-23.766 31.99-40.456 7.308-18.551 7.475-38.498 9.987-57.862 30.247 4.087 62.751 14.632 82.727 39.021 20.226 24.618 20.344 58.12 23.273 87.979 24.086-2.731 48.207-5.581 71.56-12.435 16.982-4.682 33.322-12.225 47.192-23.158 9.794-8.498 18.523-18.763 23.103-31.048 15.598-41.462 10.403-86.713 11.145-129.892v-443.282c.754-4.906-1.187-11.627 1.313-15.291 12.356-4.427 26.307-8.201 35.687-18.394-39.465-27.618-75.84-60.493-115.672-87.5-13.936 15.284-27.58 30.82-41.232 46.355-5.861 6.178-11.23 16.124-21.95 14.645-38.27-.71-76.665.866-114.89-.468-10.77-5.793-19.65-15.29-29.923-21.987-8.51-6.64-17.132-13.138-25.735-19.642-7.746-5.696-15.13-11.986-23.03-17.442-3.452-3.12-7.37 4.485-9.565 6.041-10.518 11.66-20.744 23.564-31.257 35.221-3.935 4.461-7.811 8.96-11.917 13.262-3.584 5.677-9.157 5.38-14.776 5.015H1423c2.598 8.026 5.241 19.64 8.892 25.69 4.055 2.506 10.626.548 15.053 1.31H1567v70c-6.231.138-11.758-3.224-17.525-5.042-8.558-3.264-16.99-6.901-25.55-10.125-8.237-2.16-17.083-7.953-24.925-8.833-7.3 33.796-19.717 66.507-32.078 98.72-12.875 31.888-28.27 62.921-46.922 91.78 3.864 3.158 11.012 10 16.519 6.08 5.365-3.433 11.409-5.637 16.756-9.086 40.455-23.915 79.468-53.552 109.725-89.494h4v124c-7.444-.326-14.05-4.635-21.116-6.533-6.42-2.144-12.671-4.82-19.053-7.028-5.322-1.47-11.117-4.837-16.14-5.61-2.997-.915-3.608 1.51-4.26 3.777-9.658 34.854-20.414 69.42-33.515 103.139-9.708 23.937-19.203 48.024-30.848 71.092-11.43 23.126-23.904 46.397-38.068 67.788M1604 1487c3.703.525 7.154 5.893 10.585 3.742 23.476-14.813 44.864-32.853 66.697-49.939 27.986-23.492 55.738-47.334 81.588-73.173 13.669-12.873 26.26-26.723 39.232-40.232 6.838-8.183 16.612-3.443 25.448-7.093 7.572-2.6 18.158-7.178 19.45-17.305-61.905-20.611-123.192-44.006-185-65-16.292 83.557-37.64 166.482-58 249m86 495h3c31.93-60.095 54.49-124.894 70.5-191 9.952 4.915 21.084 7.66 31.27 12.134 9.33 2.909 20.786 8.661 31.23 10.866v-68h-91.8c-9.575-1.025-14.335 5.575-21.59 9.663-6.64 3.284-16.414 7.037-22.61 7.337zm0 193h3c28.848-58.235 52.298-119.275 69.5-182 9.903 5.039 21.005 7.884 31.185 12.388 10.628 3.144 22.317 9.636 32.315 11.612v-121h-2.5c-19.684 20.643-39.9 40.708-63.037 57.616-11.275 8.417-22.708 16.566-34.73 23.875-5.884 3.354-11.705 6.813-17.687 9.976-6.615 4.54-12.012-3.205-18.046-3.467zm136-77h-3c-23.97 35.005-54.707 66.031-86.693 93.924-12.121 10-24.288 20.006-37.3 28.822-2.79 2.054-5.773 3.904-8.15 6.421-1.737 6.302-.262 15.837-.857 22.515v21.849c.43 2.983-.67 7.706 2.163 9.048 25.237 2.26 50.61 2.771 75.923 3.513 9.745.291 19.505.862 29.254.907 8.083-.116 18.716 1.43 24.048-4.083 5.262-5.056 4.54-13.078 4.612-19.662V2098" style="fill:#feddaa;fill-rule:evenodd;stroke:none"/><path d="M1011 1120.25c2.006 3.655 4.553 7.036 6.5 10.75 41.423-17.845 83.817-34.264 123.38-56.244 38.76-20.232 77.038-41.836 113.62-65.756 1.827 4.489 2.338 9.615 4.123 14.174 1.697 3.09 1.72 9.914 5.388 10.374 30.945 1.29 62.102-.235 93.092.452H1409v144h-318c3.093 8.523 4.765 19.624 8.31 27.107 10.4 2.1 21.482-.016 32.037.893H1409v323c-123.264.76-246.81-.926-370 .5 2.12 3.55 2.534 9.42 4.41 13.946 1.141 4.692 3.289 10.113 3.59 14.554h874.8c15.335-.542 38.237 2.142 46.2-16.5-46.458-41.872-98.246-77.783-146.5-117.5-15.08 18.354-29.067 37.65-43.717 56.342-10.95 14.337-22.208 28.386-32.93 42.889-3.993 7.532-12.865 5.808-20.015 5.769H1562v-323h322.2c11.535.43 30.832-.87 33.8-17-3.068-.734-5.5-4.584-8.516-6.618-20.194-17.809-41.775-33.964-62.478-51.15-10.364-8.495-20.777-16.927-31.375-25.112-10.78-7.503-20.198-17.722-31.631-24.12-11.198 17.136-25.298 33.158-37.228 49.961-9.394 12.508-19.007 24.845-28.46 37.3-1.767 2.165-3.51 5.034-5.4 6.782-3.964 3.64-12.259.926-17.995 1.957H1562v-144h79.8c20.018-.026 40.034.032 60.036-.017 13.358-.25 31.683-.594 35.474-14.699.839-2.063-2.485-4.352-3.424-5.867-27.05-23.63-55.971-45.046-83.792-67.742-10.58-8.959-24.334-17.946-33.594-26.675-18.73 23.078-36.67 46.81-55.268 69.995-3.608 4.397-6.895 9.028-10.586 13.35-4.01 4.165-11.779 2.019-16.938 2.655H1262.5l-1.5-.5c55.868-35.877 107.797-77.845 157.126-122.14C1467.9 836.576 1513.12 785.4 1550.5 729c13.928 39.899 30.115 79.418 52.753 115.308 33.317 53.478 75.173 101.52 123.274 142.087 46.01 40.381 98.488 72.64 150.973 103.605 6.203-33.034 20.308-64.297 39.945-91.526 19.639-26.032 45.744-49.933 78.555-57.474-.056-5.684.527-11.346 1-17-81.667-15.723-162.136-39.11-239.181-70.44-73.15-30.094-142.982-73.66-191.819-137.06 20.575-3.383 48.603-4.179 55-25.5-71.91-18.19-143.484-38.166-215.372-56.37-4.228-.93-5.054 3.608-5.913 6.855-13.6 51.5-40.328 98.092-67.8 143.134-41.563 65.338-90.553 125.84-143.89 181.856C1134.46 1023.35 1075.375 1075.653 1011 1120zm8 1472.344c1.34 3.377 5.169 6.829 7.5 10.406 42.714-19.362 86.005-39.07 124.674-66.109 39.194-25.79 75.103-56.914 106.326-91.891 18.452 18.347 37.525 37.521 59.55 52.034 80.161 54.195 178.5 69.291 272.725 75.64 104.959 5.193 210.177 2.568 315.225 3.326 1.325-29.202 9.11-58.487 24.343-83.556 7.41-11.618 17.184-21.75 28.981-28.958 5.952-3.523 12.305-6.289 18.87-8.403 2.821-1.505 7.55-1.515 9.157-3.893.77-3.323.71-6.796.649-10.19-59.17 3.323-118.567 1.14-177.787 2-88.142.015-176.441 1.89-264.344-5.716-79.45-6.46-161.535-22.475-228.869-67.784 26.61-41.296 48.408-85.677 65.15-131.913 18.02-48.616 33.451-98.528 42.85-149.587 14.653-2.473 35.673-3.78 39-20-11.046-6.916-20.467-17.374-30.956-25.288-15.322-12.773-30.534-25.7-45.807-38.528-7.608-6.529-15.344-12.927-22.988-19.404-3.73-3.302-7.682-6.326-11.443-9.584-3.644-2.6-8.017-7.644-11.806-8.196-.84 3.348-5.126 6.029-7.602 9.102-8.84 8.13-16.666 17.214-24.898 25.898-1.426-46.495.26-93.415-.5-140h89.4c14.944-.115 29.901.143 44.84-.082 12.04-.222 27.185-.367 32.76-16.418-34.47-35.172-71.316-67.892-109-99.5-20.65 26.07-37.269 55.535-57.5 82-1.426-46.461.26-93.434-.5-140 14.353-3.155 35.728-6.75 37-29-28.01-1.033-55.858-4.893-83.814-6.586-27.703-3.038-56.199-3.71-83.686-7.414-1.426 62.543.26 125.4-.5 188h-143v1.5c1.004 4.973 2.553 9.81 3.916 14.684 1.058 3.31 1.816 7.404 3.387 10.21.637 2.735 5.248 2.343 7.31 2.604 8.957.006 17.923-.001 26.875.002H1176v176h-139c1.012 8.498 5.289 16.383 7.428 24.604 1.438 5.124 7.087 4.448 11.114 4.396H1126c6.419 51.27 14.767 102.384 26.706 152.698 9.503 37.363 20.258 74.453 35.362 109.98a744 744 0 0 0 8.413 19.22c2.588 5.402 7.198 10.785 2.758 17.603-21.498 43.645-45.146 86.694-76.037 124.53-29.39 38.771-65.795 71.511-104.202 100.969zM1231.5 2286c12.747-34.23 21.208-70.234 29.892-105.698 7.808-37.484 15.897-75.155 19.608-113.302h-141c9.169 39.839 22.06 79.095 37.054 117.138 14.559 35.628 31.607 70.743 54.446 101.862M1183 1247.386c12.499 36.976 22.183 75.143 27.252 113.94 5.637 30.72 5.27 62.514 4.496 93.409 13.882 16.024 33.058 28.038 53.62 33.079 31.963 6.468 66.45-9.867 82.096-38.489 17.22-28.694 13.922-65.387-1.092-94.191-14.984-27.585-42.111-53.461-65.826-69.115-27.494-17.588-57.661-30.724-88.461-41.302-4.063-1.43-9.048 1.492-12.085 2.283zm219 992.864c1.199 2.906 5.807 4.256 8.454 6.725 1.614.477 3.598 2.695 4.882 2.297 1.612-.54 3.187-1.092 4.537-2.174 17.205-11.35 33.795-23.608 49.497-36.975 35.758-30.382 67.234-65.24 96.13-102.123 1.426 46.835-.26 94.124.5 141.042-.725 10.533 1.654 25.174-5.699 31.971-5.804 4.82-16.837 2.13-24.957 2.987-25.487.148-50.846-3.397-76.344-3v13c13.609 2.414 27.107 6.516 39.45 12.758 18.533 9.818 31.573 28.109 37.27 47.94 5.268 21.287 6.83 43.45 7.28 65.302 35.848-4.246 74.384-8.18 105.54-28.34 15.106-9.513 26.737-23.9 32.472-40.797 7.31-18.552 7.476-38.5 9.988-57.863 29.772 5.311 62.132 14.652 81.382 39.87 19.61 24.574 19.666 57.593 22.618 87.13 22.75-2.233 45.574-4.966 67.7-10.936 30.586-7.284 63.448-24.226 75.938-55.177 13.63-33.408 11.56-70.069 11.362-105.227v-466.675c.136-5.433-.382-11.06.738-16.358 1.888-2.441 6.823-2.12 9.93-3.706 10.097-3.455 19.815-8.797 27.332-16.421-39.605-29.06-77.634-60.955-117.5-89.5-16.877 17.998-32.66 36.997-49.323 55.182-6.994 9.23-17.31 6.665-27.617 6.818h-55.734c-13.973-.147-27.968.18-41.93-.097-7.766-.864-14.828-10.054-22.413-14.542-10.71-7.964-21.075-16.378-31.793-24.32-5.307-4.147-10.58-8.312-16.017-12.28-4.93-3.414-10.098-8.802-15.33-10.761-11.114 12.55-22.132 25.196-33.36 37.649-4.168 4.716-8.266 9.469-12.415 14.2-3.708 3.67-7.31 9.777-12.526 10.057-43.605 1.027-87.513-.975-131.042.594 2.982 4.871 3.43 11.923 5.559 16.646 1.719 4.881 2.617 11.508 8.083 11.698 37.818.445 75.678-.08 113.502.156H1566v68c-11.773-2.039-22.362-8.809-33.717-12.288-11.013-4.006-21.784-8.68-32.781-12.712-20.038 66.277-42 134.54-81.502 192.5 4.129 3.952 9.3 6.654 13.5 10.5 48.972-26.224 96.665-59.183 132.5-102h2v122c-20.216-5.099-38.894-15.474-59-21-11.874 44.451-25.8 88.341-43.88 130.713-17.45 40.406-35.925 81.345-61.12 117.537M1612.5 1494c42.004-28.38 81.617-60.937 119.107-95.096 19.793-16.972 37.75-35.928 56.26-54.277 4.357-4.889 8.456-9.988 13.366-14.36 3.17-3.136 6.492-7.708 11.89-6.95 14.238.917 30.448-5.45 35.877-19.524-6.495-4.764-15.43-5.46-22.527-9.11-54.839-19.883-110.311-38.462-164.973-58.683-9.365 44.473-19.217 88.879-29.617 133.124-5.205 21.937-10.006 43.943-15.606 65.774-2.662 11.012-5.995 21.829-8.943 32.76-1.187 5.507-3.454 10.771-4.386 16.333-1.989 4.446 7.927 7.134 9.552 10.009m79 487c32.42-59.804 55.2-124.816 70.5-191 20.984 6.807 41.737 15.553 62.5 23 1.42-21.87-.253-44.074.5-66h-91.2c-8.274-.75-13.672 6.394-20.627 9.897-6.78 3.082-15.265 6.697-22.173 7.103.76 72.263-.926 144.826.5 217m0 193c29.354-57.979 52.985-119.144 69.5-182 21.423 6.847 42.323 16.447 63.5 24 1.406-19.784-.239-39.9.5-59.741-.744-19.658.91-39.712-.5-59.259-35.212 37.931-75.816 71.266-122 95-2.703-2.912-7.326-4.437-9.844-7H1691c.76 62.928-.926 126.15.5 189m133.5-73.5-.5-1.5c-24.968 34.487-54.389 65.947-86.811 93.596-12.158 9.891-24.159 20.074-37.203 28.796-2.506 2.066-5.976 3.915-7.978 6.147-2.435 2.086-.93 7.154-1.508 10.577v33.264c.387 2.599-.488 7.489 2.354 8.191 25.243 2.306 50.657 2.766 75.977 3.53 9.84.3 19.659.87 29.5.898 7.315-.162 17.22 1.826 22.922-5.56 4.26-5.712 2.988-14.586 3.247-20.581z" style="fill:#000;fill-rule:evenodd;stroke:none"/></svg>