<svg xmlns="http://www.w3.org/2000/svg" width="3000" height="3000"><path d="M364 2760.5v1.5h2272v-1.5c-68.931-409.09-136.257-818.54-204.874-1227.691-51.076-306.848-102.33-613.661-153.4-920.497-4.868-28.824-9.564-57.688-14.431-86.508-1.116-7.008-2.365-13.985-3.488-20.978-1.2-6.774-.246-15.245-9.425-16.859-109.868-36.632-219.702-73.24-329.563-109.867-95.996-32.013-192.02-63.992-288-96-41.993-13.978-83.98-28.011-125.966-41.994-5.663-2.605-10.407-1.693-15.513.621-156.173 52.06-312.354 104.114-468.521 156.173-58.68 19.531-117.334 39.097-175.992 58.657-25.668 8.506-51.298 17.139-76.962 25.643-6.176 2.075-12.369 4.11-18.537 6.195-3.02 1.124-6.483 1.813-8.8 4.255-62.934 375.423-125.132 751.075-187.889 1126.544C490.857 1998.664 428.048 2380.37 364 2760.5m638-1767.875c3.37 2.33 9.247 7.263 12.72 4.968 4.601-2.41 8.591-5.794 12.892-8.661 6.337-4.392 12.278-9.317 18.558-13.78 6.129-3.528 12.898-11.982 18.83-13.152v396c15.372.305 30.744-.151 46-2 1.064 24.129-2.752 48.607-14.936 69.844-8.629 16.412-20.59 35.674-33.891 46.646-6.535 5.605-14.333 9.616-20.61 15.57-11.408 10.47-23.308 25.93-25.11 40.538-2.083 14.499 3.793 31.69 12.199 41.913 16.072 20.512 46.21 25.547 69.656 17.138 17.06-6.973 30.409-20.976 38.911-37.13 13.213-26.892 17.982-57.139 16.648-86.856-1.487-29.41-9.938-57.994-20.255-85.337-2.4-7.813-6.727-14.868-9.12-22.66A11.8 11.8 0 0 1 1124 1353c14.394-1.562 27.228-9.401 38.91-17.3 5.72-3.948 12.765-8.024 12.084-17.306.016-8.086-.002-16.14.006-24.223V1293h181v42c31.907.387 64.429-3.292 93.856-16.445 6.504-2.664 16.165-6.122 15.143-15.498.003-25.795 0-51.57.001-77.36V972.64c.76-3.962-1.32-10.636 1.85-13.02 11.694-3.08 25.37-8.758 33.15-17.12-31.287-25.819-60.686-54.468-92.5-79.5-8.531 9.83-17.879 18.885-27.046 28.132-6.446 7.43-13.294 14.48-20.435 21.239-5.53 4.465-15.963 1.67-23.775 2.629H1263v-3c28.88-18.264 54.978-41.684 82.216-62.392 13.349-11.21 26.893-22.173 40.254-33.358 12.385-13 33.957-7.135 47.53-18.75-34.013-33.05-70.473-63.472-104.5-96.5-13.827 14.623-28.635 28.172-43.102 42.102l-10.873 10.873c-2.723 2.518-5.544 5.953-8.426 7.813-5.998 2.419-12.153.41-18.495 1.212H1229c.127-5.268 3.756-9.507 5.973-13.99 8.274-14.958 15.734-30.285 22.967-45.756 2.006-4.854 7.342-4.266 11.43-4.575 10.687-1.604 25.947-7.117 28.63-20.679-54.697-13.662-108.457-31.612-163-46-11.931 64.165-30.543 127.021-52.643 188.37a1195 1195 0 0 1-36.428 88.64c-12.793 28.64-28.341 56.681-43.929 83.615M1096 2363c4.212 24.862-.6 50.21-9.642 73.368-7.64 18.837-18.198 36.81-32.605 51.343-6.69 5.925-14.515 10.42-21.142 16.42-11.6 10.701-22.695 27.69-23.574 42.52-.847 15.242 4.32 30.736 14.967 41.81 18.058 19.734 48.948 22.259 71.664 10.147 16.994-9.543 28.694-26.85 35.243-44.802 11.078-29.708 13.757-62.356 8.927-93.597-4.988-29.218-13.832-57.668-26.106-84.67-1.886-3.554-3.031-7.537-5.359-10.82-2.476-3.007-9.214-.944-12.373-1.719m-81-349.375c1.877 1.38 4.24 2.776 6.057 3.883 6.236 4.177 13.093-4.025 18.35-7.312 4.118-3.13 8.37-6.085 12.349-9.392 4.01-2.835 9.018-8.236 13.244-8.804v367c25.204.369 51.465 1.347 75.105-9.239 10.114-4.52 21.258-11.704 28.75-18.56 4.376-4.503 2.911-12.507 3.145-18.139V2294h158v38c17.273-.023 34.718.816 51.79-2.477 11.697-2.26 23.431-4.89 34.488-9.433 7.21-3.386 17.221-5.578 22.517-11.055 2.472-5.906.34-15.188 1.205-21.532v-324.557c.693-3.975-1.425-11.806 2.4-13.564 5.763-2.254 12.713-3.025 18.966-7.077 5.74-1.88 11.664-8.587 16.634-9.305v298c24.033.013 48.269.295 72-4-3.103 73.734-13.447 148.736-44.904 216.267-27.918 63.78-77.363 115.155-134.096 154.233 1.666 2.406 3.337 6.15 4 8.5 85.42-26.146 168.501-71.004 225.408-141.554 58.596-71.644 83.793-164.061 92.898-254.549.77-7.942 1.508-15.921 1.694-23.897h15v287.4c.127 21.875.189 44.015 4.689 65.534 2.489 16.987 12.26 33.568 28.55 40.537 31.253 12.993 66.126 9.74 99.056 10.529 24.773.294 49.52-1.196 74.013-4.804 29.886-3.669 69.348-18.501 78.416-57.426 3.84-17.147 2.533-36.02-5.5-51.862-4.2-7.516-10.799-13.012-17.912-17.596-3.156-2.069-7.888-4.128-8.722-7.147-1.042-4.44-.304-9.121-.69-13.619-.387-14.886-1.283-29.74-2.022-44.6-.231-7.725-.446-15.416-.673-23.13-.083-3.792-.108-7.603-.63-11.346-.785-3.124-6.39-2.082-8.575-2.47-5.316 17.183-12.34 33.897-18.697 50.716-6.328 14.848-11.634 30.608-21.448 43.661-5.733 7.594-13.79 7.966-21.907 7.623h-25.168c-7.22.075-17.452 1.63-19.504-6.401-2.472-15.514-.506-31.438-1.276-47.056v-165.297c.073-2.84-.182-5.859.713-8.575 3.095-3.177 11.003-1.277 14.745-3.081 18.999-3.4 37.6-8.74 55.61-15.622 7.696-3.222 15.752-5.788 22.834-10.272 8.559-4.381 5.656-14.956 6.098-22.27v-295.358c.147-16.36-.179-32.724.097-49.065-.005-4.8 4.51-5.704 8.094-6.3 8.473-2.706 20.478-6.65 25.809-16.703-40.114-28.623-78.655-60.738-118.5-90-15.986 19.066-34.66 35.7-50.894 54.533-3.648 4.711-8.462 10.268-16.026 9.467H1727c2.428 8.706 5.89 17.184 8 26h73v160h-78v1.5c2.254 8.336 6.571 17.697 8 25.5h70v160h-202v-160h58.8c15.344-.307 39.254 4.84 48.2-14.5-17.825-25.473-40.016-47.797-61-70.5-7.055 8.023-12.014 20.202-17.751 28.131-5.043 9.907-13.386 20.424-17.249 29.869h-11v-161c12.674-1.048 27.238-4.415 34-16.5-3.373-1.023-8.093-2.236-11-2.5v-4c27.573-9.862 54.819-20.891 82.142-31.464 13.876-4.885 26.636-12.383 40.258-17.776 12.705-.674 29.301 5.459 39.6-10.26-26.888-14.61-54.936-27.639-82.393-41.212-28.05-12.81-54.914-29.144-83.607-40.288-12.534 43.624-29.051 86.187-44 129-8.98-.333-17.353-4.523-26.072-6.296-25.28-8.098-51.227-14.518-76.428-22.704-1.426 61.543.26 123.4-.5 185-5.092-.358-8.834-6.075-12.629-8.713-28.195-22.56-54.111-48.628-82.871-70.287-8.033 7.274-15.035 15.461-22.37 23.37-5.704 5.787-11.542 11.44-17.198 17.254-4.038 4.143-7.816 10.8-13.237 11.214-19.883.463-39.813-.084-59.695.162v-2c22.348-17.462 45.687-34.259 66.413-53.797 11.148-9.208 21.35-19.512 32.514-28.693 4.958-5.014 14.84-4.402 22.547-6.31 7.01-1.273 14.433-3.359 19.526-8.7-17.092-14.558-33.976-29.929-50.927-44.764-16.852-14.932-33.74-29.79-50.573-44.736-12.38 11.583-23.684 24.147-35.37 36.37-6.198 5.759-11.86 11.977-17.386 18.351-5.943 6.623-17.935 3.362-25.744 4.279-.067-5.27 3.043-9.799 5.183-14.369 7.562-15.564 14.222-31.514 20.937-47.443 1.038-1.857 1.943-4.618 3.64-5.51 12.982-2.326 31.278-2.33 37.24-20.678-53.95-14.046-107.046-31.961-161-46-9.455 65.9-25.64 130.82-45.9 194.184-10.063 31.063-21.1 61.787-33.753 91.89-12.083 29.614-26.846 58.865-42.347 86.551M1135 895c16.35 5.583 32.29 12.59 48.561 18.423 6.787 2.508 14.286 1.172 21.33 1.577h20.316c4.983-.98 12.678 1.534 16.092-1.673 10.526-34.729 17.101-70.626 25.706-105.859 1.037-6.218 3.116-12.235 3.995-18.468-17.803.022-35.633-.027-53.435.015-6.895-.777-9.785 6.944-12.492 10.872-10.861 16.608-21.907 33.089-34.07 48.779-5.988 7.908-12.162 15.662-18.475 23.31a1152 1152 0 0 1-9.676 11.439c-2.998 3.616-7.717 7.3-7.852 11.585m23 1000c12.268 3.276 23.756 10.84 36.867 10h31.619c3.219-.063 8.775.363 9.362-3.1 6.837-24.213 12.2-48.847 17.35-73.457 1.812-8.804 4.579-19.16 4.802-27.443h-43c-7.177 16.938-18.738 31.89-27.635 47.914-5.207 7.74-10.19 15.632-15.663 23.174-4.155 7.318-13.57 15.693-13.702 22.912m6 475c6.177 35.746 9.832 72.182 8.704 108.518-.565 13.649-1.449 27.296-3.548 40.813-.34 10.925-5.756 23.566-5.272 32.509 9.447 16.785 31.24 28.694 50.261 20.94 28.302-11.374 40.324-45.124 38.852-73.374-.181-29.02-15.73-60.607-30.39-81.92-13.599-17.976-28.808-35.204-46.908-48.774-4.067-.922-7.6 1.363-11.699 1.288m8-293h37v-146h-37zm0 190h37v-163h-37zm3-1182h45V942h-45zm0 182h45v-156h-45zm2 94.25c8.56 36.06 9.312 73.429 8.997 110.273.152 13.684-1.419 27.285-3.261 40.796-1.381 10.905-7.421 25.054 1.005 31.91 6.659 7.102 14.464 13.862 24.317 16.009 17.783 4.644 35.258-5.361 45.208-19.743 15.193-21.81 18.63-51.074 11.745-76.419-5.977-24.079-18.137-46.611-34.246-65.399-12.796-14.377-26.14-29.003-42.038-39.982-3.54-.844-8.699 1.78-11.727 2.305zM1243 2362c21.857 48.945 40.938 101.562 39.107 156.266.564 5.619 8.195 9.51 12.815 13.624 21.391 14.788 46.682 6.98 59.384-12.46 14.103-19.08 12.932-45.678 4.224-66.605-18.714-44.106-59.985-74.02-102.648-92.432-4.933-2.35-8.458.94-12.882 1.607m20-1005.75c15.027 31.83 24.68 66.614 31.143 101.187 2.406 14 4.05 28.092 3.842 42.317.94 5.679-1.455 14.96 1.665 19.008 11.968 13.798 34.889 25.497 55.95 13.934 32.667-16.234 33.407-58.458 22.694-84.851-12.237-28.226-33.345-52.166-58.833-69.183-8.668-5.87-17.325-11.813-26.601-16.704-4.748-2.692-9.466-5.403-14.4-7.732-5.387-3.168-9.812-.22-14.675 1.598l-.785.176zm26 720.75h41v-146h-41zm0 190h41v-163h-41zm19-1182h48V942h-48zm0 182h24c6.007-.056 12.031.07 18.029-.042 6.214.258 6.522-4.149 5.971-8.734v-136.309c-.175-4.294 1.235-10.834-5.139-10.827-14.283-.252-28.582.046-42.861-.088zm35 1084.594c14.959 20.368 26.878 43.108 33.87 67.551 6.18 19.722 7.271 40.628 5.612 61.099-.175 3.64 4.068 6.335 6.238 8.032 10.718 8.226 24.206 14.157 38 12.37 20.139-2.882 37.084-18.318 42.742-37.792 6.024-19.753.521-41.856-12.11-57.761-25.063-32.427-64.665-48.931-103.546-57.657-4.03-.766-7.297 1.997-10.806 3.564zm18-1004c20.773 24.21 35.78 53.586 43.786 84.587 1.917 8.262 3.575 16.638 4.554 25.065.788 6.795.69 13.658.684 20.478-.31 5.426 3.354 7.979 7.324 10.514 10.589 8.693 24.18 12.554 37.652 12.762-.449 5.623-5.692 11.752-8.454 17.638-3.32 5.678-7.724 10.947-10.546 16.862 2.628 1.981 5.447 8.608 8.967 6.435 3.785-1.705 7.287-4.028 10.85-6.124 78.657-48.727 140.16-121.293 186.533-200.42 1.279-2.425 3.036-4.664 3.65-7.391 5.825.511 12.642.19 18 0-.114 38.591.139 77.187-.075 115.768-.386 8.055-.062 20.022-11.886 21.238-27.304 3.417-54.75-3.762-82.039-3.006v11c12.89 1.654 28.374 5.31 38.586 11.747 16.64 10.805 27.982 28.788 32.087 47.914 4.131 20.172 4.85 44.537 5.327 63.339 41.062-3.768 86.856-11.074 116.068-43.624 14.023-15.408 20.75-35.861 23.783-56.109 4.294-22.176 3.868-44.924 4.149-67.382V1159h23v41c36.602.252 74.98.649 108.779-15.853 4.033-1.792 8.404-3.22 11.81-6.14 3.138-2.24 2.227-7.793 2.411-11.783V961c10.014-2.401 20.803-3.842 29.477-9.996 3.367-2.524 9.73-6.562 4.582-10.858-4.053-3.135-8.139-6.251-12.3-9.237-10.242-7.31-20.193-15.045-30.276-22.549-20.946-14.612-40.722-31.356-61.983-45.36-10.079 11.067-19.835 22.462-29.894 33.533-9.063 9.373-17.091 19.745-26.278 28.976-52.236 1.066-104.684.153-156.94.271-43.38-13.944-85.136-33.402-128.388-47.78v341c26.595.467 53.682 1.346 79.524-6.416 11.27-3.553 24.114-9.056 33.394-14.684 6.65-4.113 4.995-11.377 5.082-18.078V1159h22v145c-6.39-.196-11.926-4.185-17.842-6.127-37.622-17.148-76.219-32.41-113.658-49.873-7.812 55.2-20.343 109.936-37.5 163-5.324-.8-7.635-9.437-12.443-13.001-14.03-17.837-34.253-29.482-54.734-38.249a292 292 0 0 0-33.979-11.292c-5.642-1.501-11.319-2.83-17.023-4.057-2.614-.57-5.358-1.353-8.044-.748-2.8.587-4.956 2.854-7.777 3.347zm99-546.094c1.189 4.484 2.916 8.816 3.97 13.367.943 3.776 2.234 7.438 3.404 11.122 1.436 2.341 5.798 1.729 7.821 2.01 8.998.003 17.992-.001 26.975.001h419.619c20.506-.604 41.241 1.092 61.637-1.462 6.233-1.62 13.39-5.567 15.48-11.183 1.28-2.973-1.746-5.678-3.662-7.55-32.836-30.088-66.054-59.822-100.744-87.805h-1.5c-16.839 28.026-39.934 53.108-57 81h-49V682c6.937-1.612 14.256-2.649 20.456-6.446 6.983-3.887 8.432-9.914 11.544-16.054-5.32-2.352-13.692-1.153-20.394-2.411-46.545-3.47-93.04-8.058-139.606-11.089v155h-199zm182 330.5h171V953h-171zm157 125.312c17.225 38.187 33.656 76.97 44.777 117.513 9.288 30.756 16.156 62.31 18.738 94.375 1.38 5.6-.864 14.72 2.259 18.628 15.507 14.315 36.026 26.084 57.893 24.816 16.66-1.574 32.5-9.393 43.264-22.34 16.515-19.75 22.292-46.954 17.617-72.016-4.361-24.154-15.312-46.682-30.098-66.066-35.54-47.286-88.038-77.57-142.583-97.818-4.702-1.935-8.002.85-11.867 2.596z" style="fill:#fedca9;fill-rule:evenodd;stroke:none"/><path d="M1000 992.375c2.857 2.906 7.263 5.42 10.465 7.275 1.231 1.005 3.48.297 5.087-.738 1.884-1.156 3.7-2.387 5.518-3.62 14.432-10.369 28.893-20.779 42.43-32.292 1.426 131.84-.26 264.083.5 396 15.31-.341 30.849.651 46-2 1.315 24.338-3.713 48.605-15.932 69.837-8.734 16.374-20.895 35.306-34.459 45.99-6.701 5.4-14.558 9.383-20.58 15.667-11.38 11.135-22.431 24.942-23.817 41.493-1.128 14.704 3.213 29.949 12.44 41.524 15.797 19.984 45.122 25.306 68.46 18.176 17.6-5.54 31.477-19.46 40.486-35.16 13.922-26.05 18.897-56.08 18.4-85.286-.523-29.291-7.788-58.251-17.978-85.573-3.243-9.101-6.893-18.004-10.875-26.804-.203-.874-.693-1.624-1.145-2.364 14.276-2.911 27.662-9.344 39.307-18.081 6.216-3.943 12.816-8.54 11.692-18.17.003-8.092 0-16.17.001-24.249h179v42c32.561.551 65.806-3.036 95.856-16.445 6.504-2.664 16.165-6.122 15.143-15.498.003-26.395 0-52.769.001-79.159V971.841c.35-4.119-1.202-10.95 3.596-11.705 11.683-2.983 24.809-9.35 32.404-17.636-31.747-26.733-62.227-55.56-94.5-81.5-8.647 9.494-17.404 18.885-26.724 27.74-6.459 7.293-13.012 14.476-20.149 21.127-5.09 5.908-15.208 3.73-22.065 4.133H1265.5l-1.5-.5c28.763-19.572 55.665-41.98 82.997-63.495 13.55-11.505 27.4-22.634 41.038-34.028 11.889-13.622 37.997-3.95 46.965-19.977-35.886-31.19-71.38-64.594-106.5-97-13.874 14.67-28.72 28.258-43.233 42.233-7.696 6.161-14.508 16.576-21.893 20.295-11.049 1.257-22.295-.156-33.374.472 7.663-17.48 18.1-33.84 25.712-51.393 2.238-3.876 3.618-10.184 9.319-10.518 14.592.314 29.41-7.024 34.969-21.152-2.308-2.434-7.256-2.737-10.817-4.164a49380 49380 0 0 0-77.987-22.275c-25.91-6.333-51.047-16.252-77.196-21.498-11.96 64.551-30.81 127.741-53.025 189.452-22.383 59.17-47.281 118.228-80.975 171.923M1095 2362c1.048 12.4 1.636 27.214-.051 38.553-4.023 22.19-11.632 43.923-23.92 62.919-5.21 7.947-10.746 15.769-17.506 22.495-6.501 6.118-14.356 10.564-21.05 16.427-12.069 10.423-22.623 27.542-24.386 42.148-3.298 34.417 21.195 59.687 52.212 62.291 22.826 2.408 45.497-8.233 58.383-27.093 20.51-29.224 25.022-66.29 24.237-100.966-2.231-34.197-12.692-67.368-25.86-98.776-2.25-4.823-4.104-9.824-6.524-14.56-2.82-5.038-10.816-2.92-15.535-3.438m-82-348.625c3.326 3.917 8.64 5.43 12.5 8.625 12.853-9.332 25.947-18.614 38-29 1.426 122.176-.26 244.743.5 367 25.477.276 52.096 1.643 76.096-8.847 10.674-4.576 20.641-11.042 29.42-18.597 4.662-4.274 3.367-12.318 3.484-17.9V2295h156v38c17.526-.194 35.292.947 52.636-2.28 11.707-2.184 23.466-4.79 34.562-9.196 7.567-3.504 18.02-5.81 23.597-11.489 2.493-6.08.32-15.614 1.205-22.132v-322.157c.41-4.728-.735-10.006.98-14.523 5.478-3.08 12.832-3.355 18.322-6.886 6.024-2.457 11.192-6.305 16.198-10.337 1.426 99.21-.26 198.72.5 298 23.707-.565 48.243 1.107 71.5-4-1.988 75.005-14.514 151.737-47.034 220.057-15.07 32.243-35.394 61.79-59.84 87.61-12.53 13.005-25.923 25.242-39.846 36.73-6.813 5.51-13.628 10.978-20.758 16.073-3.412 2.734-7.614 4.807-10.347 8.288-.53 3.522 3.327 8.398 4.825 11.242 43.953-15.512 88.323-32.578 128.03-57.63 59.566-35.678 109.147-88.326 140.467-150.371 16.332-32.358 27.342-67.036 35.816-102.174 7.986-36.464 14.417-73.479 16.187-110.825h13v286.2c.185 21.933.058 44.156 4.493 65.75 2.334 17.052 11.726 33.694 27.833 41.109 30.874 13.302 65.518 10.25 98.191 10.941 25-.04 50.11-.6 74.862-4.42 29.836-3.396 69.938-16.985 80.643-55.308 4.599-17.277 3.903-36.427-3.13-52.993-3.275-8.06-9.88-14.082-16.795-18.944-3.192-2.352-6.648-4.345-9.973-6.486-2.897-3.42-1.83-7.965-2.139-12.314-.336-15.828-1.387-31.619-2.068-47.413-.261-8.304-.479-16.611-.73-24.904-.23-3.823.129-7.849-.904-11.543-1.914-2.72-7.693-1.03-10.283-1.675-5.263 16.975-12.202 33.517-18.464 50.144-6.29 14.917-11.693 30.617-21.344 43.821-5.407 7.438-13.072 8.443-21.045 8.035h-25.167c-6.284-.473-16.45 2.32-18.835-6.928-2.213-15.381-.459-31.059-1.145-46.528v-164.698c.174-2.433-.187-5.61.976-7.616 9.732-3.001 20.958-2.47 30.738-6.166 18.283-4.385 36.04-10.564 53.397-17.738 7.021-2.883 16.317-7.045 14.889-16.715v-303.747c.083-16.764-.1-33.527.054-50.278.238-1.723.1-5.168 2.349-5.202 12.195-3.081 25.057-7.37 32.597-18.384-39.318-31.903-80.912-61.376-120.5-93-16.504 19.24-35.147 36.53-51.894 55.533-3.699 5.007-8.794 10.463-16.622 9.467-21.272.743-42.8-.91-63.984.5 3.919 8.718 6.05 18.397 9 27.5h73v158h-60.6c-5.626.682-14.272-1.182-18.4 1.5 3.345 8.495 6.886 19.352 9 27.5h70v158h-200v-158h48c12.207-.11 24.431.135 36.627-.076 7.894-.136 16.082-3.468 20.082-10.578 4.033-6.427-1.6-11.026-4.501-15.315-11.209-13.564-22.31-27.28-34.565-39.91-7.296-7.488-13.861-15.619-21.143-23.121-11.534 20.015-24.789 39.54-35.5 60h-9v-159c13.227-1.823 31.549-4.898 34-19-3.762-.056-7.242-1.926-11-2v-2c27.573-9.862 54.819-20.891 82.142-31.464 13.858-4.882 26.624-12.374 40.223-17.755 13.493.315 30.94 4.794 40.635-12.281-27.81-13.653-55.336-28.075-83.393-41.212-27.767-14.09-55.71-27.82-83.766-41.288-3.456 3.59-3.799 11.047-6.398 16.172-12.064 38.34-25.643 76.125-39.443 113.828-34.786-7.55-68.237-21.248-103-29-.76 61.568.926 123.55-.5 185-31.72-26.054-61.86-54.605-94-80-7.913 7.293-15.023 15.31-22.235 23.235-5.74 5.754-11.5 11.483-17.233 17.242-4.37 3.877-7.29 10.282-12.665 12.05-10.003 1.223-20.248-.12-30.295.473-9.598-.599-19.59.766-29.072-.5 23.122-16.699 45.681-34.428 66.79-53.636 11.105-9.277 21.392-19.5 32.545-28.716 5.083-4.792 15.03-3.947 22.679-6.055 3.707-.724 7.436-1.57 10.891-3.133 3.18-.993 6.546-4.16 9.095-4.96-32.425-32.532-70.082-61.19-103.5-93-12.242 11.446-23.427 23.89-34.975 35.975-6.014 5.947-12.07 11.847-17.478 18.349-6.179 8.03-16.925 5.21-25.047 5.676.437-4.31 3.996-9.222 5.934-13.86 7.287-15.635 14.368-31.352 20.812-47.353 1.95-5.106 6.54-4.924 11.008-5.148 13.03-.8 24.861-8.094 30.246-20.139-52.977-18.563-109.287-30.35-162.5-48.5-.45.458-.96.911-1.5 1.25-9.566 66.146-25.747 131.315-46.201 194.887-20.385 61.326-43.593 122.62-76.799 178.238m123-1120c8.34 4.477 18.179 6.72 26.832 10.74a2469 2469 0 0 1 20.335 7.812c9.83 3.691 24.3 1.146 36.462 2.073 6.088-.19 13.336.334 18.868-.434 2.414-.516 2.711-4.875 3.653-6.635.893-2.81 1.52-5.675 2.243-8.518 10.209-35.48 15.894-72.405 25.607-107.913-10.969-1.314-22.263.148-33.299-.5h-12.483c-3.19.24-7.402-.502-10.914.864-12.821 16.927-23.08 36.068-36.614 52.596-12.552 17.424-26.709 33.737-40.69 49.915M1159 1894c11.937 2.96 22.983 10.62 35.672 10h31.015c3.547-.154 8.58.47 9.24-3.339 6.734-23.563 11.802-47.607 16.945-71.55 1.59-8.767 4.624-18.916 5.128-27.111h-41c-7.052 16.617-18.374 31.279-27.085 47.025-5.052 7.643-10.087 15.313-15.306 22.837-2.686 3.705-5.205 7.553-8.078 11.116-2.223 3.452-6.123 7.671-6.531 11.022m4 475c5.357 34.293 9.945 68.795 8.912 103.651-.75 25.476-3.414 51.016-9.505 75.783-.756 5.002 2.59 8.503 5.566 11.039 5.587 6 11.855 11.652 19.713 14.516 32.722 10.487 56.642-17.807 63.59-46.185 8.183-31.351-.6-64.16-15.456-91.883-15.04-25.806-34.824-49.186-58.429-67.56-3.592-3.068-10.564 1.18-14.391.639m10-293h35v-144h-35zm0 190h35v-161h-35zm3-1182h43V943h-43zm0 182h43v-154h-43zm0 94c6.354 33.355 9.74 67.292 9 101.283 1.359 25.457-3.74 50.404-7.437 75.358-.616 4.123 5.336 7.93 7.307 10.729 10.627 12.313 28.037 18.612 43.831 13.399 24.446-7.859 37.387-34.413 39.927-58.106 2.839-25.407-3.474-51.042-15.545-73.47-14.8-27.61-36.983-50.851-61.338-70.207-4.326-3.217-11.73-.181-15.745 1.014m65 1002.25c12.453 25.943 23.645 52.816 30.549 80.906 5.798 22.557 9.76 45.749 9.451 69.12.138 3.683-.767 9.037 2.341 12.068 10.949 10.333 25.692 18.871 41.382 15.907 23.148-3.086 38.595-25.767 40.914-47.486 2.552-23.272-5.813-46.254-19.345-64.835-22.038-31.911-55.854-53.997-90.955-69.199-4.683-2.137-10.534 2.137-14.337 3.269zM1262 1355c9.888 25.267 20.386 50.863 25.932 77.682 4.88 21.427 8.477 43.185 9 65.185.594 7.46-1.534 19.072 3.362 23.802 9.365 8.852 20.79 16.326 34.125 16.688 20.341 1.39 39.879-12.87 46.43-31.989 7.676-18.974 6.106-40.47-1.399-59.162-9.281-21.42-23.661-40.84-41.411-55.982-18.12-15.18-38.299-27.908-59.46-38.399-6.036-3.648-10.893.79-16.579 2.175m28 721h39v-144h-39zm0 190h39v-161h-39zm19-1182h46V943h-46zm0 182h22.8c5.81-.061 11.628.077 17.432-.046 5.881.251 6.351-3.76 5.767-8.136.004-12.766-.001-25.53.001-38.281v-95.706c-.308-3.414 1.099-11.35-3.296-11.464-14.178-1.04-28.505.184-42.704-.367zm32 1085.578c15.488 20.078 27.293 43.15 34.54 67.557 6.837 19.991 7.29 41.267 5.87 62.066 15.636 26.985 57.08 26.707 76.457 4.426 20.696-21.454 19.132-57.705 1.415-80.251-24.74-33.583-65.309-49.726-104.447-59.09-5.236-1.643-9.562 2.09-13.835 4.714zm18-1004c21.164 24.002 36.338 53.598 44.505 84.632a225 225 0 0 1 4.781 25.486c.798 6.78.785 13.624.724 20.434-.538 5.495 2.78 8.263 6.906 10.813 10.724 8.82 24.392 12.904 38.084 13.057v1.5c-4.862 6.597-7.764 14.534-12.973 20.99-1.449 3.343-5.422 7.448-5.527 10.518-.22 3.753 5.31 7.117 6.813 9.992 45.258-23.316 82.934-58.415 117.88-94.754 32.843-37.192 63.658-77.26 86.807-121.246 5.337.943 10.638.298 16 0-.23 38.432.28 76.854-.151 115.276-.376 7.743-.648 18.713-11.809 19.73-27.31 3.255-54.737-4.027-82.04-3.006v13c12.89 1.654 28.374 5.31 38.586 11.747 16.64 10.805 27.982 28.788 32.087 47.914 4.131 20.172 4.85 44.537 5.327 63.339 39.67-3.414 83.714-9.877 113.602-39.102 15.1-13.694 22.732-33.205 26.796-52.671 4.306-21.039 6.003-42.476 5.602-63.952V1160h21v41c37.071.18 76.042.987 110.339-15.657 4.161-1.884 8.734-3.3 12.25-6.335 3.138-2.241 2.227-7.794 2.411-11.784V962c13.645-3.642 31.955-5.668 38-19.664-36.124-27.475-73.113-54.313-109.5-81.336-10.372 10.773-19.66 22.555-29.993 33.375-8.763 9.84-17.465 19.807-26.463 29.413-6.064 2.47-12.632.358-19.138 1.212H1659.75c-12.232 0-23.24-6.76-34.662-10.356-34.1-12.654-67.931-26.209-102.087-38.644v344c27.091.414 54.65 1.499 81.005-6.263 11.46-3.537 24.502-9.133 33.913-14.837 6.65-4.113 4.995-11.377 5.082-18.078V1160h20v143h-2c-43.432-18.232-86.214-38.833-130-56-7.142 55.294-19.78 110.159-37.5 163-13.874-21.612-34.533-37.85-57.867-48.183-12.097-5.858-25.156-9.481-37.88-13.614a504 504 0 0 0-19.932-4.802c-7.46-2.846-13.17-.444-18.821 3.599zM2002 812.5c-35.162-32.365-70.574-64.707-108-94.5-10.801 12.848-19.64 27.55-29.94 40.846-9.22 13.919-20.5 26.935-29.06 41.154h-47V683c7.232-1.77 15.07-2.715 21.366-7.084 5.651-4.222 9.813-10.726 10.634-17.916-53.9-4.484-107.997-9.51-162-13v155h-199c1.056 8.547 4.78 16.643 6.67 25 .896 5.018 8.51 3.947 12.123 4h471.265c19.404-.243 45.856 3.525 52.942-16.5M1643 1131h169V954h-169zm154 125.438c17.784 38.703 34.368 78.2 45.777 119.387 9.404 31.304 16.518 63.421 18.862 96.076.91 6.087-.989 14.168 3.151 18.033 16.26 14.15 37.318 25.96 59.722 23.607 34.683-2.776 59.75-35.633 61.183-68.914 2.57-34.529-11.703-68.233-32.5-95.033-36.068-46.591-88.23-77.051-142.94-96.742-5.01-1.969-9.081 2.415-13.255 3.148z" style="fill:#000;fill-rule:evenodd;stroke:none"/></svg>