<svg xmlns="http://www.w3.org/2000/svg" width="3000" height="3000"><path d="M284 2851h2432c-134.149-810.763-270.401-1621.295-405-2432-135.347-44.612-270.435-90.254-405.734-135.071-101.317-33.788-202.65-67.568-303.967-101.324-19.003-6.335-37.989-12.692-57-19-9.003-3.001-17.989-6.025-27-9-7.733-2.688-16.776-7.4-26.322-3.1-133.676 44.789-267.33 89.675-401.15 134.052C956.158 329.848 822.71 374.9 689 419c-134.595 810.684-270.855 1621.274-405 2432m698-644.75c2.395 5.533 3.232 11.863 5.74 17.442 1.526 3.664 2.457 10.721 6.77 10.96 14.581.987 29.28-.176 43.883.348H1041c-1.095 75.766.595 151.742-5.762 227.296-5.415 69.642-18.396 140.207-52.238 202.204 3.811 4.23 7.153 8.923 11.664 12.5 57.497-37.006 103.321-91.772 129.991-154.68 29.15-65.668 39.989-137.323 45.477-208.375 2.194-26.272 4.074-52.587 4.868-78.945h35v437.4c-.01 4.098-.648 9.553 5.106 9.496 17.03.179 34.15-.482 50.972-3.051 25.71-5.17 54.968-17.605 74.554-31.578 4.09-2.9 8.26-5.98 10.997-10.278 3.142-4.456 2.223-10.27 2.371-15.337V2162c3.963.515 6.1 5.75 10.798 4.464 125.603-22.243 251.139-57.672 361.567-123.39 52.562-31.962 103.084-67.989 148.112-110.042 23.873-20.624 44.795-44.437 65.332-68.236a353 353 0 0 0 14.733-18.162c3.694-3.525 7.272-11.277 11.529-12.54 16.742-3.543 36.767-3.056 49.929-16.094-44.245-38.188-92.044-72.92-136.5-111l-38.602 38.602c-9.643 9.602-19.223 19.273-28.88 28.854-3.495 4.339-10.311 3.69-15.26 3.544H1677c.362-4.912 6.52-7.714 9.38-10.928 12.293-11.554 26.957-24.807 37.855-35.803 6.14-6.925 18.428-2.918 26.402-4.623 7.107-.768 16.826-3.994 20.363-12.646-64.48-17.941-128.51-38.014-193-56-21.568 55.85-55.537 106.106-91.266 153.708-36.963 47.72-77.612 92.863-124.734 130.792 1.573 4.846 6.77 6.761 10.633 4.755 10.36-4.027 21.078-7.09 31.505-10.915 9.296-3.325 18.244-7.837 27.75-10.522 4.252-.982 7.074 4.39 9.596 6.992 20.244 24.35 32.906 54.896 37.118 86.156 1.2 7.985-2.515 17.76 7.3 22.281 9.882 5.841 20.486 11.413 32.113 12.728 12.09 2.433 23.668-1.655 34.985-4.975-.528 4.384-6.794 6.628-10.336 9.574-29.839 18.69-59.94 37.198-91.53 52.86-16.162 8.02-31.871 16.934-48.59 23.832-7.964 3.976-15.97 7.937-24.24 11.226-7.648 2.68-17.502 8.832-24.304 9.508v-451c16.117-.932 35.749-6.518 40-28-61.32-5.944-122.661-12.255-184-18v355h-53v-226.8c.38-6.119-.525-13.487.432-19.039.044-4.214 7.916-3.258 10.329-4.673 12.058-2.337 22.554-10.778 24.239-23.488-55.873-5.342-112.044-9.236-168-14v402c31.617.742 63.406-2.845 93.125-14.204a197 197 0 0 0 20.974-8.387c4.725-2.69 10.464-5.613 14.422-8.663 6.84-5.94 3.608-18.216 4.479-26V2042h53v164H982zm27-665.25h946.2c14.452-1.116 45.105 5.728 52.8-15.543-51.285-43.352-105.392-84.302-159-124.457-15.418 17.962-29.372 37.383-44.455 55.666-13.872 19.11-30.441 36.827-43.545 56.334h-184v-421h285c11.603-.213 23.391.716 34.858-1.516 4.357-.96 8.922-2.217 12.281-5.352 1.953-2.493 7.225-7.351 4.525-10.295-23.243-20.899-48.794-39.204-72.958-59.008-24.83-19.005-49.398-38.53-74.706-56.829-23.854 28.677-46.529 58.638-70.086 87.61-5.797 6.473-10.688 17.637-21.65 16.39H1577V720h347.4c13.037.005 30.08 1.439 37.6-15.5-52.024-41.144-103.702-83.754-157.5-122.5-17.904 23.123-36.375 45.875-54.278 69.006-8.194 9.99-15.774 20.451-23.976 30.423-3.566 4.244-6.82 10.978-13.797 10.551-215.75.816-431.782-.936-647.449.52 3.557 8.725 4.95 18.529 8 27.5h333v343c-100.264.76-200.81-.926-301 .5 2.966 8.902 5.73 20.154 8 28.5h293v421h-404c.866 9.619 5.966 18.392 7 28m369 694h336v235.2c-.004 9.993.005 20.009-.003 29.995-.237 7.776.254 17.483-6.587 22.087-5.407 3.769-14.757 3.466-19.834 3.517-49.823-2.255-99.913-3.494-149.576-7.799.581 3.458-1.201 10.181 2.434 11.579 3.907.672 7.863 1.684 11.789 2.378 17.168 3.253 34.285 7.424 50.205 14.794 22.389 11.675 43.107 28.672 54.717 51.582 11.646 24.952 12.35 53.06 16.855 79.667 26.582-2.558 53.246-5.984 79.186-12.554 36.322-8.498 74.539-26.637 91.59-62.112 16.927-38.33 16.498-81.019 16.224-121.958V2235h76.2c19.166-.101 38.351.124 57.512-.068 11.41-.443 27.779.253 33.83-13.482 1.995-4.233-3.11-8.126-5.31-11.445-20.519-25.326-41.853-50.035-63.778-74.137-5.45-5.911-10.67-12.02-16.07-17.966-2.926-3.034-6.06-5.881-8.756-9.113-2.3-2.786-5.606-6.984-8.628-7.789-9.139 18.592-20.6 36.283-30.35 54.609-5.27 9.1-10.167 18.392-15.56 27.418a437 437 0 0 1-7.738 13.886c-2.39 4.398-4.373 9.998-11.352 9.087v-103c13.74-3.11 32.893-5.71 36-26-60.88-5.698-122.017-11.203-183-16v145h-344c1.85 9.809 5.815 19.258 8 29m49 25.25c35.853 51.73 65.737 110.767 70.95 174.825-.103 9.486 6.876 12.994 13.992 17.185 11.911 7.311 25.113 12.585 39.197 13.317 21.064.345 42.544-7.508 56.458-23.883 14.261-15.776 21.152-37.333 19.134-58.44-4.598-40.631-36.689-71.592-70.841-89.882-35.83-19.927-76.57-29.507-116.65-36.116-5.02-1.575-8.31.272-12.24 2.744zm23-341.75v1.5c19.368-.108 38.63 3.025 57.5 7.127 25.538 5.127 55.283 19.486 69.339 39.599 7.98 11.491 12.558 26.006 9.235 39.97-1.476 6.735-4.174 13.051-7.895 18.816-2.44 5.536-10.312 10.481-11.179 15.488 5.886-1.008 11.696-7.614 17.674-10.988 42.682-29.944 82.28-64.133 118.928-101.114 18.766-18.524 35.698-38.701 52.59-58.899 8.19-10.071 15.646-20.717 23.383-31.117 3.93-5.23 7.18-10.962 11.129-16.168 2.862-4.871 8.489-10.996 9.296-15.714h-106.2c-17.8.208-35.649-.253-53.443.137-6.57.726-12.693 8.132-19.219 11.77-6.415 3.28-11.413 9.512-18.138 12.093v3c22.675-.397 46.017 1.073 67.152 10.254 14.34 5.902 26.727 16.735 33.513 30.767 10.956 21.91 2.05 50.642-17.712 64.4-9.157 6.763-22.08 11.79-32.515 12.381-12.278 1.147-23.947-3.454-35.438-6.802-6.137-21.474-20.242-39.977-34.168-56.975-7.032-7.358-15.88-17.5-24.642-24.348-4.174-3.162-10.41 3.828-14.3 4.958-4.63 2.623-9.121 5.48-13.796 8.01-13.178 7.361-26.521 14.38-39.928 21.283-7.356 3.632-14.682 7.365-22.031 11.007-3.398 1.575-6.894 2.927-10.255 4.585-2.885 1.721-7.721 2.475-8.88 4.98m180-776.25c44.354 61.206 80.462 131.3 91.298 207.258.893 4.924 1.158 10.058 2.447 14.865 13.427 12.027 30.499 19.867 47.704 24.721 26.795 5.908 58.104-.906 77.418-21.467 18.219-18.5 30.312-49.287 27.321-73.375-5.136-50.348-45.029-89.778-87.73-112.01-44.757-24.943-95.92-36.037-146.172-43.082-2.13-.41-4.643-.498-6.603-.681-1.693 1.138-4.135 2.79-5.683 3.521z" style="fill:#feddaa;fill-rule:evenodd;stroke:none"/><path d="M1040 2236c-1.276 79.1.999 158.488-6.963 237.306-3.192 37.08-9.105 73.95-18.95 109.824-5.291 17.413-10.773 34.811-18.265 51.428-3.366 8.289-7.205 16.354-11.264 24.315-.841 2.004-2.258 4.53-1.985 6.598 3.658 4.127 6.883 10.39 12.927 13.529 32.525-24.06 64.236-50.052 88.278-83.006 37.024-48.675 58.446-107.632 71.872-166.705 6.438-31.233 10.58-62.91 13.66-94.625 3.106-32.807 5.752-65.714 6.69-98.664h33v437.4c-.014 4.115-.648 9.548 5.123 9.497 32.828 1.519 66.23-2.376 96.045-17.018 9.98-4.584 21.51-10.609 29.808-16.354 3.957-3.058 8.288-5.777 11.401-9.773 5.718-7.366 2.736-20.689 3.623-30.898v-373.142c.759-24.15-.926-48.685.5-72.712 3.5 5.335 8.221 5.672 13.721 3.882 5.35-1.12 10.78-1.733 16.126-2.86 122.018-23.142 243.737-59.51 350.26-125.053 51.737-31.345 100.368-67.847 144.595-109.107 22.607-20.944 43.625-43.55 63.289-67.227 4.939-5.812 9.653-11.78 14.268-17.847 3.262-3.817 5.946-9.78 12.387-10.421 16.64-2.023 38.426-4.551 47.854-16.867-24.5-21.246-50.867-40.292-75.556-61.316a8521 8521 0 0 1-56.96-45.81c-1.738-1.041-3.343-2.984-5.544-3.877-3.99.015-7.092 6.568-10.173 8.236l-36 36-13.5 13.5c-4.034 3.612-8.077 8.703-12.168 11.555-5.155 2.395-10.645.433-16.148 1.212-37.898-.76-76.172.926-113.951-.5 14.26-13.495 29.484-25.915 43.102-40.102 3.567-3.49 6.962-8.174 12.321-8.335 12.912-.566 32.155 2.974 39.577-15.063-65.75-16.561-130.159-39.777-196-56-21.741 56.151-55.897 106.682-91.895 154.525-18.349 24.088-38.145 47.033-58.686 69.214-10.357 10.84-22.824 23.442-33.118 32.555-5.553 5.375-11.142 10.72-17.145 15.58-4.958 5.228-13.063 9.352-16.156 14.626 3.22 3.45 6.624 7.746 12.523 5.138 4.865-1.777 9.68-3.692 14.638-5.192 15.568-5.349 31.291-10.846 46.339-17.446 22.314 24.056 38.314 55.002 43.138 87.683.793 4.368 1.424 8.804 1.356 13.25.59 3.59-1.057 9.426 1.898 11.564 9.503 8.149 21.569 12.773 33.463 15.956 12.808 2.784 26.787.42 38.645-3.953-30.137 21.078-62.482 38.843-94.746 56.38-33.643 16.9-67.196 34.271-102.254 48.12v-449c16.295-.867 37.761-7.146 40-30-62.01-5.664-123.95-12.77-186-18v355h-51v-226.8c.247-5.958-.49-13.22.729-18.544 2.268-2.865 8.304-1.729 11.926-3.74 11.915-2.634 22.057-12.157 22.345-24.916-56.559-5.025-113.34-9.782-170-14v404c32.288.908 64.76-2.606 95.125-14.204a197 197 0 0 0 20.974-8.387c4.725-2.69 10.464-5.613 14.422-8.663 6.84-5.94 3.608-18.216 4.479-26V2043h51v162H981c1.783 9.324 5.463 18.397 8.498 27.362 1.777 5.029 10.052 3.31 13.975 3.638H1040m-40-723.5c2.428 9.543 6.352 20.6 8 29.5h951c16.723-1.234 43.224 5.876 51-18-53.593-41.229-106.217-86.059-161.656-125-28.849 37.938-60.463 74.543-88.344 113h-182v-419h264c14.743-.16 29.502.199 44.241-.115 11.703-.574 25.867-2.119 30.759-17.416-24.242-20.98-49.839-40.323-74.859-60.336-25.495-19.327-50.617-39.633-76.641-58.133-23.317 28.964-46.268 58.282-69.523 87.3-6.114 6.826-11.898 18.376-20.756 17.7H1578V721h349.2c12.577-.31 32.747.635 35.8-18-52.604-40.573-104.414-84.149-158.5-123-18.465 22.845-36.396 46.203-54.663 69.213-8.026 10.092-15.86 20.335-23.92 30.395-3.77 4.544-7.62 11.421-13.278 11.321-216.213.203-432.431-.037-648.639.071 1.84 10.17 5.813 19.902 8 30h333v341h-301v1.5c2.388 9.893 5.805 19.576 8 29.5h293v419h-405zm368 692.75c3.494 9.913 5.781 20.679 9 30.75h336v234c-.006 9.808.008 19.628-.004 29.436-.221 7.711.194 17.302-6.586 21.846-5.578 3.717-13.932 3.428-19.729 3.468-49.9-2.291-99.893-3.662-149.681-7.75.02 2.593-.029 5.203.027 7.79.248 1.696.315 4.424 1.422 5.395 4.923 1.31 10.129 2.138 15.137 3.238 17.1 3.508 34.342 7.685 50.076 15.45 21.624 11.982 41.862 28.784 52.945 51.42 11.263 24.728 11.91 52.436 16.393 78.707 27-1.936 53.968-6.115 80.31-12.325 36.147-8.222 73.831-25.961 91.635-60.573 17.183-37.38 17.296-79.353 17.055-119.532V2236h76.2c19.166-.101 38.351.124 57.512-.068 11.5-.398 27.717.193 33.909-13.493 2.542-4.523-1.824-9.184-4.623-12.442-20.197-25.472-41.82-49.764-63.458-73.98-11.634-12.142-21.964-25.833-34.54-37.017-6.86 7.858-11.248 20.05-16.648 27.913-7.769 13.37-15.069 27.007-22.846 40.358-3.732 6.824-7.787 13.443-11.405 20.32-1.997 3.486-4.013 6.938-6 10.419-1.627 3.113-3.662 7.254-8.101 6.99v-101c14.015-3.001 34.835-6.37 36-28-61.174-6.949-123.47-9.856-184.5-17-1.426 48.544.26 97.399-.5 146h-345zm57 55.375c18.99 26.973 37.013 55.252 49.106 86.193 10.366 24.788 17.42 50.845 21.61 77.359.86 5.236.911 10.572 1.69 15.815 1.19 7.379 11.964 11.604 18.903 16.164 28.15 16.996 67.164 12.763 90.15-11.138 22.733-22.89 28.055-59.419 14.325-88.355-14.34-32.923-44.572-55.502-76.049-70.713-33.573-15.697-69.917-24.393-106.382-30.042-5.68-1.658-9.31 1.258-13.353 4.092zm26-342.375c36.296 2.704 75.901 7.547 107.19 28.526 14.814 9.743 26.837 25.103 29.51 43.055 2.457 18.79-5.498 37.39-19.7 49.669 54.058-35.033 102.992-78.993 147.996-125.119 31.17-32.447 57.969-68.626 83.004-105.881-34.677-1.426-69.858.26-104.63-.5-17.577.161-35.178-.197-52.744.106-6.688.59-12.906 8.11-19.488 11.8-6.21 3.544-12.318 9.593-18.138 12.594 11.931 1.337 24.237-.471 36.087 2.36 18.651 2.635 37.342 8.723 51.572 21.514 10.466 9.597 17.409 23.193 17.772 37.453.27 21.154-10.756 41.966-30.234 51.498-21.655 12.108-41.695 7.98-62.197.675-10.03-32.208-37.55-63.274-60.5-83-33.566 20.983-69.154 39.544-105.5 55.25m176-775.875c32.237 40.186 57.514 85.957 74.758 134.547 6.446 19.384 12.397 39.084 15.979 59.23 1.933 8.85 3.064 17.813 4.331 26.768.815 4.087 4.935 5.962 8.08 8.24 25.459 19.185 59.92 27.835 90.515 16.087 22.117-7.909 39.697-26.1 48.851-47.608 6.575-16.728 10.209-34.891 6.91-52.807-4.346-26.184-18.383-50.166-36.899-68.807-18.052-18.512-40.36-32.395-63.326-43.872-23.144-10.779-47.263-19.284-72.188-24.914-13.164-3.217-26.508-5.548-39.807-8.057-6.65-1.038-13.31-1.98-19.963-2.943-3.197-.539-6.391-.962-9.62-.705-2.072 1.37-5.03 3.427-6.86 4.289-.3.112-.54.346-.761.552" style="fill:#000;fill-rule:evenodd;stroke:none"/></svg>