<svg xmlns="http://www.w3.org/2000/svg" width="3000" height="3000"><path d="M448 2669h2104c-108.019-653.996-218.137-1307.761-326.618-1961.691-6.813-40.83-13.621-81.671-20.41-122.502-.9-5.185-1.732-10.375-2.627-15.558-.693-5.948-7.25-6.546-11.566-8.162a2264805 2264805 0 0 1-451.953-150.644c-56.522-18.824-113.032-37.715-169.56-56.514-12.477-4.17-24.972-8.31-37.44-12.486-6.015-1.98-11.998-4.026-18-6-5.943-1.873-12.256-5.247-18.565-3.023-92.812 30.91-185.585 61.892-278.396 92.78-138.737 46.826-278.12 92.047-416.698 139.266-3.665 1.962-2.298 9.57-3.876 12.727-22.4 134.514-44.811 269.006-67.243 403.502C635.746 1543.503 540.855 2106.166 448 2669m978-1223v83c-13.658 2.674-27.66 3.442-41.4 5.554-17.052 2.568-45.407.21-46.976 26.787-.6 11.207 5.517 19.245 14.53 23.691 9.604 5 20.704 5.042 31.204 4.966 17.064-.159 37.32-3.812 51.781-9.992 11.823-4.921 23.896-12.403 30.194-24.024 2.287-5.313 1.51-11.296 1.667-16.9V1452c29.896 3.767 60.026 2.227 90 2v136c-12.193 1.797-25.857 7.197-36.98 9.23-17.067 4.864-41.217 7.307-49.417 22.19-3.664 7.455-5.113 19.885 3.89 25.83 7.541 5.656 17.239 6.655 26.333 6.72 20.414 0 40.883-3.474 59.787-11.33 11.722-4.512 24.656-12.748 32.282-21.36 8.002-11.02 6.012-22.396 6.105-34.23V1449c112.103-16.304 219.576-68.931 298.17-150.985 37.286-41.292 70.423-88.13 87.738-141.667 9.386-28.224 15.564-57.47 17.324-87.214.328-7.903.792-15.811.768-23.72-.265-2.783.391-6.652-1.35-8.56-16.875-7.156-34.43-13.54-51.36-20.734-81.13-32.186-162.232-64.434-243.457-96.364-20.44-8.387-41.042-16.295-61.558-24.454-3.805-1.462-8.684-2.975-10.867-6.204-22.776-54.692-58.092-105.448-108.303-138.34-74.166-47.432-169.878-54.349-252.842-28.656-39.102 14.54-76.764 36.689-103.146 69.759-26.62 32.699-46.105 72.083-52.117 114.139-16.578 5.74-32.42 13.648-48.737 20.077-12.19 4.743-23.843 10.765-35.895 15.826-8.364 4.046-17.955 9.363-24.976 14.166-5.358 3.752-12.414 10.149-10.33 16.21 3.715 10.072 18.285 15.77 24.623 20.46 9.417 5.002 19.325 8.932 28.931 13.541 13.321 6.192 27.187 11.162 40.535 17.258 6.077 2.73 12.375 4.842 18.41 7.641 5.09 2.562 12.73 3.619 14.988 8.444 8.797 23.803 5.783 49.674 7.857 74.429 4.468 68.087 26.178 135.683 65.962 191.417 52.987 74.697 137.2 124.07 226.632 140.531m542-386c-63.881-25.21-127.806-50.66-191.71-75.88-55.561-23.268-112.447-43.793-167.758-67.459-17.769-47.242-43.743-92.915-83.752-125.058-35.523-28.491-80.117-45.614-125.667-48.543-41.869-3.643-85.244.157-124.769 14.994-32.295 12.304-61.186 33.232-82.225 60.675-19.039 23.81-31.523 51.97-38.63 81.443-5.452 28.112-9.145 57.125-5.404 85.792 2.743 23.88 13.166 46.13 16.674 69.854 2.665 22.11 1.337 44.51 3.789 66.637 6.48 71.074 32.973 141.79 83.122 193.812 47.758 52.107 114.996 84.998 184.198 96.703 54.174 9.893 109.869 8.443 164.218 1.232 74.995-12.087 148.072-40.49 209.914-84.954 60.016-43.724 111.495-102.11 138.373-172.187 11.56-31.105 18.631-63.853 19.627-97.061m-808 703.192c7.338 34.86 14.718 73.198 39.777 100.77 12.373 13.736 30.292 21.949 48.37 24.553 19.478 2.423 39.287 3.349 58.853 2.485-.628 4.672-5.63 9.34-8.109 14.174-22.7 35.173-45.887 70.038-67.32 106-39.862 67.748-67.992 144.244-68.484 223.641-2.5 59.604 11.13 121.09 47.064 169.68 25.47 34.58 62.397 58.768 102.525 72.505 33.206 10.633 68.13 14.64 102.917 13.997 49.638-1.03 100.283-9.3 144.325-33.451 42.614-20.815 76.103-56.477 99.033-97.43 20.917-37.003 32.65-78.485 38.882-120.285 5.862-39.04 7.997-78.562 7.998-118.007-.891-17.854-.768-35.723-.978-53.575-1.162-8.027-.32-16.028.168-24.046-.132-6.156 1.538-17.462 10.752-14.268 5.387 3.928 7.501 11.908 9.457 17.294 17.02 52.035 31.158 105.616 56.702 154.422 9.563 17.443 21.175 33.78 35.67 47.451 12.418 12.744 29.898 21.318 47.955 20.128 36.678-2.33 43.145-47.135 42.292-74.608-.21-23.798-6.337-47.287-20.028-66.95-20.088-28.357-49.161-49.234-68.503-78.287-19.368-28.123-36.713-58.496-44.702-92.049-10.12-42.18-8.534-85.885-8.616-128.865-.256-10.353.328-20.743-.215-31.083-5.431-35.103-36.862-63.337-70.478-70.863-15.957-4.959-35.027-1.067-46.688 11.378-27.876 26.591-15.683 67.308-9.788 96.669 5.69 30.829 13.736 61.209 18.112 92.253 3.275 31.611 3.44 63.424 2.276 95.153-2.198 56.52-8.593 113.11-24.367 167.606-13.161 45.001-35.17 88.133-70.087 120.147-30.13 27.932-69.647 43.655-109.984 49.04-37.674 4.28-77.365 4.706-113.279-9.372-29.703-10.036-56.111-30.027-73.042-56.496-15.419-24.303-22.31-53.316-21.46-82.025-.826-97.478 38.61-192.364 99.996-266.876 15.296-18.293 30.958-36.721 50.416-50.806 29.319-20.371 66.87-25.199 96.195-45.711 7.449-4.61 14.054-10.62 17.117-19.048 2.513-6.285 3.924-14.345 3.874-20.532-3.952-19.208-22.373-35.683-34.993-47.03-10.63-8.944-24.632-17.854-36.31-22.938-10.41-4.42-22.557-7.377-33.592-2.957-7.523 3.175-12.758 10.095-19.585 14.413-19.57 15.244-43.377 22.754-67.311 27.88-30.121 5.841-66.35 12.29-94.66 9.777-12.845-.941-26.998-7.11-37.166-12.78-5.092-3.303-10.426-6.206-15.283-9.86-2.488-1.787-4.853-4.09-7.82-4.84-2.48 1.074-5.729 2.783-7.878 3.43zm80-819.979c-.48 19.48 17.99 37.644 37.096 36.781 19.816.414 35.975-18.442 35.684-37.383-.456-19.56-18.699-36.006-37.932-35.35-17.947.893-35.113 17.243-34.848 35.952M1397 1238c47.556 27.984 99.396 50.849 153.982 61.155 43.298 8.615 89.448 6.945 130.544-10.328 58.175-22.654 102.454-71.728 128.66-127.203a757 757 0 0 0 9.557-21.481c2.104-6.42 8.06-15.802.127-18.316-46.433-16.91-92.72-34.176-139.246-50.795-35.68-12.942-71.766-25.428-107.124-39.032-5.086 9.713-9.224 22.504-12.5 32 73.583 24.326 145.507 54.282 219 79 .178 4.922-2.594 9.168-5.002 13.198-15.014 30.525-37.163 57.522-64.402 77.904-42.948 32.833-100.347 42.26-152.748 31.577-51.272-9.395-100.147-30.497-144.348-57.679-3.516 4.532-5.64 10.003-8.85 14.742-2.391 4.923-7.053 10.122-7.65 15.258" style="fill:#dcf;fill-rule:evenodd;stroke:none"/><path d="M338 2761.5c387.06 1.426 774.925-.26 1162.15.5 387.224-.76 774.71.926 1161.85-.5-77.265-456.459-152.125-914.01-228.874-1370.691-28.417-170.851-56.988-341.657-85.4-512.497-12.491-74.824-24.942-149.684-37.431-224.508-5.828-35.176-11.741-70.32-17.569-105.492-3.54-17.097-4.968-34.714-9.072-51.664-1.3-3.941-8.915-3.966-11.797-5.85-133.175-44.44-266.372-88.79-399.558-133.193-116.482-38.867-233.005-77.647-349.48-116.505-6.56-1.974-12.94-4.527-19.527-6.382-6.558-1.31-12.878 2.396-19.017 4.029-100.339 33.452-200.674 66.889-301.01 100.324-87.802 29.33-175.659 58.504-263.446 87.829-38.52 12.817-77.015 25.657-115.52 38.495-18.005 5.974-35.995 12.026-54 18-8.822 2.95-17.652 5.903-26.471 8.83-4.346 1.012-8.371 2.451-8.57 8.208-90.761 544.76-181.624 1089.514-272.367 1634.27-35.423 208.458-69 418.87-104.891 626.797m111-95v1.5h2102v-1.5c-63.81-378.768-126.215-757.87-189.705-1136.696-47.349-283.998-94.654-568.016-142-852-4.398-26.67-8.911-53.338-13.325-80.003-1.118-6.656-2.232-13.342-3.35-19.985-.571-3.586-1.119-7.183-2.096-10.662-1.288-2.958-6.82-3.128-9.193-4.54-101.51-33.828-203.017-67.663-304.512-101.514a746151 746151 0 0 1-266.522-88.84c-39.072-12.89-78.06-26.135-117.144-38.98-4.713-1.335-9.273 1.032-13.839 2.453-144.507 48.104-288.95 96.378-433.449 144.467-54.18 18.08-108.385 36.116-162.566 54.195-23.808 7.923-47.625 15.882-71.434 23.805-5.676 1.96-11.407 3.738-17.06 5.726-6.564 1.113-6.72 8.744-7.34 13.268C740.08 921.349 682.77 1265.54 625.383 1609.692 566.339 1961.663 508.308 2314.864 449 2666.5" style="fill:#79767f;fill-rule:evenodd;stroke:none"/><path d="M1425 1447v81c-13.658 2.674-27.66 3.442-41.4 5.554-17.295 2.482-45.478.306-47.095 27.058-1.258 10.308 4.402 20.044 13.396 24.742 9.458 5.429 20.706 5.72 31.257 5.646 18.292.017 36.883-2.777 53.976-9.552 12.293-5.232 25.497-12.716 31.576-25.35 1.926-5.721 1.061-11.919 1.29-17.816V1453c29.19 4.295 58.718 1.871 88 2v134c-12.193 1.797-25.857 7.197-36.98 9.23-17.073 4.875-41.226 7.298-49.416 22.196-3.595 7.216-5.65 19.33 2.457 26.757 7.2 6.12 16.78 7.614 25.89 7.743 21.068.46 42.385-2.777 61.97-10.685 12.493-4.493 26.351-13.108 34.28-22.362 7.538-10.577 5.871-24.032 5.799-36.23V1450c112.261-16.323 219.916-69.084 298.494-151.375 37.282-41.296 70.482-88.246 87.577-141.89 9.436-28.17 15.46-57.484 17.187-87.176.342-7.924.785-15.83.742-23.752-.035-3.012.2-6.234-.716-9.128-6.7-4.63-17.98-7.044-25.352-10.84-8.63-3.222-16.977-7.188-25.645-10.312-81.469-32.33-162.888-64.72-244.454-96.77-20.44-8.388-41.042-16.296-61.558-24.455-3.805-1.462-8.684-2.975-10.867-6.204-22.85-54.834-58.279-105.732-108.703-138.608-74.712-47.413-171.017-54.063-254.442-28.388-39.102 14.54-76.764 36.689-103.146 69.759-26.62 32.699-46.105 72.083-52.117 114.139-16.578 5.74-32.42 13.648-48.737 20.077-12.19 4.743-23.843 10.765-35.895 15.826-8.364 4.046-17.955 9.363-24.976 14.166-5.664 3.804-12.38 10.43-10.747 16.765 1.152 5.794 6.17 9.33 10.506 12.686 12.67 10.015 28.148 15.544 42.57 22.358 13.453 6.331 27.486 11.294 41 17.454 5.99 2.787 12.305 4.814 18.282 7.61 4.712 2.45 13.114 3.929 15.317 8.243 9.223 23.837 5.89 50.007 8.086 74.867 4.624 68.796 26.706 137.15 67.296 193.227C1252.6 1382.07 1336.487 1430.495 1425 1447m542-386c-63.702-25.12-127.412-50.515-191.132-75.644-55.412-23.297-112.226-43.598-167.367-67.398-3.978-4.36-4.438-11.44-7.751-16.67-18.676-45.882-47.709-89.016-88.937-117.655-36.886-27.314-83.277-38.328-128.282-40.613-40.945-.474-83.533 3.097-120.865 21.655-63.498 28.146-105.246 92.993-112.421 161.01-2.699 26.7-4.303 54.292 3.046 80.5 6.349 22.414 14.218 44.877 14.003 68.525-.341 79.718 19.297 162.61 71.63 224.983 49.124 60.627 121.985 99.639 198.494 112.393 104.5 18.65 215.495 1.017 309.916-46.76 44.431-22.15 85.32-51.68 120.036-87.196 34.666-35.683 63.554-77.724 80.914-124.56 10.975-29.744 17.293-60.922 18.716-92.57m-661 831.5c-16.84 22.674-30.853 47.308-46.49 70.768-27.687 43.24-54.335 87.518-71.34 136.297-15.75 37.772-23.013 78.544-25.5 119.175-4.237 61.183 5.224 125.408 40.236 177.12 14.373 24.135 40.153 45.46 60.86 60.018 24.72 14.23 51.746 25.066 79.929 30.064 43.113 9.301 88.066 6.552 131.385.903 58.358-9.702 116.582-36.807 154.873-83.168 40.346-45.961 61.248-105.51 69.215-165.358 5.883-42.847 8.42-86.273 7.327-129.532-.288-9.807-.558-19.606-.495-29.416.29-9.028-.978-19.604-.166-27.838.291-4.738-.096-9.562 1.094-14.209.45-3.422 3.07-8.468 7.787-6.447 6.315 5.014 7.898 13.704 10.666 20.784 9.708 29.975 17.979 60.423 29.312 89.858 9.543 24.687 18.724 49.805 32.862 72.345 12.095 18.64 28.691 40.443 47.427 49.964 15.965 8.146 42.335 11.885 58.035-6.477 11.25-13.5 15.833-34.983 15.983-50.604.198-16.926-.896-34.053-5.756-50.359-7.64-26.524-27.185-47.098-46.22-65.863-28.901-28.09-52.836-61.565-69.084-98.53-18.18-40.342-20.72-85.683-20.94-129.218-.183-21.744.223-43.508-.12-65.244-4.796-36.344-37.585-64.983-72.047-72.432-17.099-4.663-37.235-.319-48.969 13.69-12.341 12.62-17.243 30.168-15.803 47.475.737 17.595 4.596 34.83 8.287 51.968 5.488 31.788 14.878 62.98 18.084 95.133 5.922 63.593.896 127.836-7.965 190.844-8.96 51.142-22.755 102.74-51.895 146.458-24.212 37.508-62.133 65.666-104.714 78.533-40.088 11.765-83.322 14.717-124.476 6.586-34.087-6.525-65.31-24.144-88.104-50.234-20.15-23.92-30.745-54.447-31.23-85.623-3.734-107.51 42.8-211.34 113.123-290.499 17.355-19.004 35.57-38.115 60.065-47.902 18.51-7.756 37.485-14.43 55.661-23.011 11.932-6.09 27.239-14.256 33.171-25.7 4.718-9.302 7.248-22.725 4.021-31.931-6.122-15.62-18.74-27.444-30.657-38.703-11.973-9.937-27.226-20.584-40.597-25.823-12.05-4.901-29.314-6.936-39.712.619-14.222 11.887-29.346 23.889-47.331 29.59-18.74 6.528-38.111 10.987-57.63 14.414-23.401 3.296-47.152 7.147-70.84 4.904-22.101-2.815-41.814-15.304-58.822-28.889-3.455.964-5.743 4.639-9.5 5 6.545 35.549 14.34 73.861 39.023 102.036 11.498 14.224 32.189 23.15 48.385 25.358 19.607 2.763 39.968 3.136 59.592 3.106m-67-949.191c-1.047 20.062 18.016 38.872 37.705 37.69 20.724 1.225 37.66-18.36 37.162-38.083.123-20.38-18.524-37.383-38.463-36.774-18.95.227-37.354 17.4-36.404 37.167m155 294.066c51.484 31.687 109.071 55.9 169.2 64.983 32.426 4.657 65.916 4.06 97.544-5.11 29.307-7.747 56.287-22.651 79.475-41.937 41.607-33.773 70.39-81.82 86.781-132.311-42.549-15.735-85.342-31.079-127.982-46.596-41.84-16.212-84.993-29.492-126.518-46.404-5.485 10.676-8.127 22.839-13.5 33.5 36.09 14.588 73.752 26.819 110.227 40.746 36.747 12.763 72.93 27.31 109.773 39.754-26.485 64.957-88.31 117.844-159.696 123.77-37.75 3.356-75.543-4.13-111.173-16.24-33.496-11.485-65.615-26.76-95.631-45.53-5.99 10.435-11.674 21.49-18.5 31.375" style="fill:#666;fill-rule:evenodd;stroke:none"/><path d="M1553 1454.25c.76.828 1.961.684 3 .75l.5 134c.162-45 .343-90.005.5-135-1.284.103-2.863-.121-4 .25" style="fill:#a79fb7;fill-rule:evenodd;stroke:none"/></svg>