<svg xmlns="http://www.w3.org/2000/svg" width="3000" height="3000"><path d="M364 2760.5v1.5h2272v-1.5c-68.931-409.09-136.257-818.54-204.874-1227.691-51.076-306.848-102.33-613.661-153.4-920.497-4.868-28.824-9.564-57.688-14.431-86.508-1.116-7.008-2.365-13.985-3.488-20.978-1.2-6.774-.246-15.245-9.425-16.859-109.868-36.632-219.702-73.24-329.563-109.867-95.996-32.013-192.02-63.992-288-96-41.993-13.978-83.98-28.011-125.966-41.994-5.663-2.605-10.407-1.693-15.513.621-156.173 52.06-312.354 104.114-468.521 156.173-58.68 19.531-117.334 39.097-175.992 58.657-25.668 8.506-51.298 17.139-76.962 25.643-6.176 2.075-12.369 4.11-18.537 6.195-3.02 1.124-6.483 1.813-8.8 4.255-62.934 375.423-125.132 751.075-187.889 1126.544C490.857 1998.664 428.048 2380.37 364 2760.5m647-395.25c22.873 50.124 46.828 100.291 69 150.75 8.042-2.377 15.475-12.184 18.827-17.698 2.122-3.667 3.483-7.657 4.893-11.611 2.934-6.065 12.167-9.808 17.641-15.229 46.988-36.452 93.678-73.381 137.888-113.175 22.451-20.268 44.765-40.72 66.64-61.61 11.764-9.588 21.305-21.611 33.061-31.201 5.474-5.275 10.736-10.762 16.152-16.078 3.746-3.584 13.521-10.744 7.398-17.398-20.77 8.623-41.81 16.845-62.614 25.417-10.13 4.08-20.382 7.792-30.523 11.83-10.227 2.946-21.594 9.66-31.363 10.753v-222h103.8c5.598-.088 11.418.505 16.805-1.405 4.477-.962 8.714-6.116 12.395-6.595v214c27.786.194 56.22 1.272 83.168-7.048 12.553-3.292 24.524-8.34 35.87-14.535 5.623-3.186 10.77-7.173 15.523-11.526 5.797-4.92 4.355-12.76 4.439-18.891h284c-.579 33.379-3.175 66.686-5 100h-3c-7.118-15.05-24.977-26.282-37.334-34.052-15.573-8.617-32.528-14.637-49.984-18.113-10.19-2.056-20.4-4.039-30.736-5.225-5.33-.76-10.707-1.237-16.073-1.558-4.943-.832-9.246.885-12.873 4.448 24.879 26.225 46.936 56.038 61.89 89.11 4.052 8.34 7.077 17.113 9.805 25.954 1.207 2.959 1.686 7.734 3.644 9.664 9.002 7.886 23.715 10.7 34.18 11.535 6.174.389 12.244-1.56 17.832-3.99 5.232-1.784 11.02-7.43 15.649-7.773-1.236 18.385-5.994 39.756-10.831 55.9-3.463 12.353-11.546 24.025-24.878 26.777-10.647 2.4-21.821.687-32.616 1.323-16.177-.436-32.457-.453-48.586-1.784-7.972-.384-15.956-.731-23.915-1.307-7.657-1.431-16.29.481-23.674-1.909-2.179 2.531-1.956 9.106 2.27 10.252 8.411 2.577 17.117 4.22 25.377 7.3 18.322 6.322 36.481 14.93 50.679 28.392 5.975 6.285 12.247 12.55 15.94 20.555 7.537 16.372 9.529 34.754 10.795 52.51 1.225 7.539-.539 17.125 1.444 23.794 6.038 2.439 15.56-.249 22.042.296 26.308-1.677 52.934-5.738 77.13-16.759 16.301-6.819 35.008-17.935 45.637-30.362 19-20.776 29.25-47.839 35.955-74.693 7.363-29.198 11.507-59.101 14.378-89.026 5.055-52.612 8.323-105.434 9.853-158.259 13.747-1.91 33.072-6.485 39-18-38.052-32.38-77.07-64.041-115.5-96-16.904 17.217-35.391 32.727-52.602 49.602-3.763 3.645-7.268 7.598-11.431 10.792-4.272 4.72-9.025 5.182-14.755 4.606h-34.2c-5.009-.008-12.169 1.13-12.352-4.642-.456-20.287.082-40.583-.16-60.878.042-17.728-.051-35.451.028-53.173-.678-9.014 12.355-5.655 17.731-6.307h87.375c21.956-.005 43.89.006 65.833-.003 7.372.056 15.318-2.358 20.251-8.137 5.663-6.106-2.23-11.266-5.588-14.73-31.08-30.875-65.999-57.572-99.13-86.13-11.77 17.21-24.522 33.978-36.576 51.03-6.175 8.53-12.383 16.995-18.407 25.617-1.585 2.14-3.163 4.423-5.415 5.895-8.64.982-17.43.087-26.102.458v-123h154.2c13.582.246 33.114 1.814 40.8-14.5-34.114-33.773-71.544-63.935-108.5-94.5-16.284 22.428-32.47 45.009-48.737 67.448-3.266 4.281-6.182 8.83-9.62 12.977-2.901 4.361-11.786 1.627-15.879 2.575-4.963.028-11.96 1.066-12.105-4.64-.454-19.882.083-39.8-.159-59.686v-44.804c.132-4.604-1.303-13.287 4.116-13.655 38.649-.613 77.344.111 115.995-.215h49.08c13.031-.934 33.104 4.563 39.809-13.547-16.646-17.019-34.495-32.774-52.821-47.954-8.933-7.75-18.038-15.279-26.808-23.212-4.573-3.754-8.893-7.79-13.452-11.54-3.946-3.46-10.787-8.07-10.919-12.747 14.685-1.916 28.832-7.04 42.554-12.322 9.274-4.418 18.6-9.798 24.826-18.248 2.564-2.958 4.084-6.603 6.135-9.872 22.652-18.215 33.39-48.106 28.475-76.638-3.723-17.89-12.85-34.964-11.82-53.794 1.245-34.62 26.807-61.646 37.057-93.316 4.611-13.786 5.618-32.317-.599-44.55-12.38-24.438-39.315-36.068-59.227-52.727-4.18-3.712-9.286-8.294-11.513-13.003-9.923-24.33 14.195-43.225 23.127-60.422 10.644-16.712 19.806-35.088 20.86-55.301 1.152-18.118-.073-37.449-10.461-53.159-16.385-25.983-43.975-40.263-70.404-54.086-19.165-9.833-45.06-21.79-44.544-45.523.415-17.905 11.88-32.315 18.605-48.048 12.473-24.03 18.622-52.558 10.964-79.248-6.34-25.333-37.89-37.495-60.289-41.692-40.035-7.655-81.004-10.68-120.477-21.119-8.258-2.17-16.424-4.527-24.442-7.49-3.964-1.38-7.961-2.583-11.887-4.055-4.391-1.403-4.483-7.468-5.66-11.245-8.474-31.334-21.367-61.426-37.006-89.805-12.341-22.742-30.42-49.166-50.925-61.99-11.671-6.667-22.741-1.151-32.326 6.128-17.668 14.189-31.311 32.86-43.745 51.557-11.295 15.957-19.198 33.84-27.31 51.467-2.527 3.687-7.474 4.19-11.234 6.01-30.435 13.064-54.186 37.04-80.61 56.118-19.954 14.47-41.505 30.602-67.274 31.885-10.03 1.133-20.073-1.606-29.035-5.897-7.162-3.973-12.755-10.336-20.016-14.172-5.941-3.675-15.714-6.61-19.019.448-4.604 11.473 1.455 28.408 3.85 37.43 6.245 17.59 17.089 33.376 30.472 46.281C1261.803 926.57 1276.495 938.35 1293 946c-.393 4.512-6.006 7.898-9.52 11.245-28.703 26.875-56.485 54.6-82.618 83.957-23.067 25.236-45.084 51.446-66.86 77.798-8.99 11.983-22.58 18.764-33.977 28.185-21.538 16.342-44.343 39.174-58.3 59.716-28.317 41.648-33.062 98.784-10.572 144.138 16.924 32.753 50.189 55.698 86.44 61.132 28.989 5.113 58.98-.047 86.168-10.478a340.3 340.3 0 0 0 54.31-28.395c6.46-4.206 12.834-8.528 18.903-13.273 5.264-4.3 11.512-9.776 18.034-8.74 51.76 2.832 103.64.076 154.992-6.285-9.838 48.816-21.1 97.378-29.8 146.43-3.429 18.448-6.817 36.89-9.841 55.407-2.32 15.443-5.297 30.817-6.585 46.39-.677 13.438 4.691 27.382 15.45 35.918 17.565 14.649 44.569 20.975 64.39 25.536 36.598 6.921 73.96 9.212 111.123 10.751 19.792.562 39.618.506 59.402 1.34 19.654.268 39.306-1.413 58.973-.772 37.024-.731 74.117-2.539 110.888-7-.271 4.654-4.567 8.752-6.69 12.256-10.722 14.48-20.847 29.379-31.622 43.82-4.798 6.275-9.067 12.935-13.936 19.15-2.822 3.302-7.413 2.8-11.437 2.774h-198.268c-7.827-.182-17.493.869-24.271-2.082-49.038-17.184-97.641-36.192-146.776-52.918v68h-2.5c-31.221-31.52-62.798-62.636-96-92-14.35 19.189-25.851 40.408-39.779 59.906-4.951 7.48-9.7 15.1-14.688 22.546-2.308 3.332-4.252 7.019-7.353 9.695-69.033 3.191-139.481-1.368-208.68 1.353 3.68 7.475 3.986 18.136 8.293 24.593 7.018 1.697 14.608.419 21.787.907H1123v255h-93c2.027 8.445 5.732 18.111 7 26h86v251.4c-.257 6.113.407 13.416-.45 18.98-1.312 4.434-10.141 3.886-13.19 6-32.668 10.504-65.113 22.143-98.36 30.62zM1277.5 1312c29.783 4.608 61.167 2.41 91.342 2.918 43.343-1.504 87.286-4.555 128.782-18.29 19.308-6.438 37.72-15.982 53.643-28.659 15.001-12.99 27.834-28.3 37.194-45.874 7.953-15.161 16.898-33.722 20.539-49.095 12.132 1.865 22.954 8.911 35 11-1.4 10.912-8.116 22.547-11.478 31.884-16.066 38.547-43.186 72.68-78.856 94.7-15.323 9.841-32.188 17.023-49.395 22.82-4.122 1.55-8.572 2.193-12.613 3.96-2.389.33-2.595 4.486-3.322 6.205-15.287 70.146-30.026 140.455-41.976 211.261-1.835 12.611-4.801 27.37-5.273 39.063-.788 12.538 19.692 16.51 27.81 19.32 46.714 11.871 95.38 13.413 143.24 15.458 73.993.925 148.41 1.27 221.844-9.02 17.066-3.079 34.954-5.344 50.551-13.568 7.291-3.807 7.02-10.729 6.466-17.417-.604-46.96-5.345-93.737-12.904-140.054-15.169-86.546-37.368-172.035-67.57-254.564-13.994-39.263-30.261-77.635-47.723-115.453-28.72-58.044-59.43-116.143-102.681-164.964-14.289-15.088-28.981-30.06-47.315-40.387-3.335-2.845-9.522-3.943-11.316-7.36 3.536-37.37-3.479-74.997-17.26-109.83-4.314-12.558-10.135-24.489-16.296-36.194-5.327-9.813-12.341-21.24-19.965-28.22-8.846-8.609-19.994-7.536-27.947.149-12.597 12.243-20.906 28.056-28.694 43.542-13.325 24.985-19.625 53.522-19.327 81.85-.83 27.328 2.596 57.254 22 78.319-20.028 31.29-60.025 54.141-92.2 62.53-17.517 3.88-35.665 6.062-53.598 4.396-4.023-.185-8.71-1.258-12.408-1.103-3.37.271-6.495 3.788-9.595 6.172-45.306 40.423-87.065 84.634-126.399 130.789-14.828 16.814-28.488 34.587-42.968 51.69-5.892 8.083-15.163 12.419-22.92 18.324-29.603 20.467-59.07 45.187-72.446 79.829-9.93 27.077-10.414 58.418 1.713 85.018 9.202 18.008 25.193 33.073 44.969 38.728 31.183 9.594 65.322 4.42 94.743-8.326 27.095-11.57 55.466-32.692 74.609-51.547m-115.048-91.48c2.242 17.565 14.643 32.113 15.585 49.827.774 4.39 1.707 9.057 4.901 12.384 5.69 5.237 13.103-1.11 15.8-6.183 3.551-5.453 5.847-11.546 7.476-17.822 3.62-13.593 2.04-30.049-7.861-40.81-5.98-7.481-15.617-12.433-25.364-9.546-7.397 1.356-9.225 6.375-10.537 12.15M1258 2021h3c5.597-12.826 14.758-24.022 21.168-36.464 7.764-11.958 14.177-24.845 22.332-36.536 29.639 29.263 57.322 60.532 84.5 92h2v-266h-1.5c-10.328 3.592-21.3 3.207-32.032 3H1258zm125 262c-4.906 26.071-11.77 52.2-25.931 75.003-11.74 19.486-27.153 36.943-45.07 50.995-7.486 6.298-15.978 11.145-24.335 16.125-7.439 4.642-12.376 14.426-16.716 20.835-9.72 15.251-15.717 33.8-11.91 51.927 6.824 32.062 40.589 51.997 72.07 49.058 23.263-1.984 46.123-13.42 60.38-32.108 23.589-28.443 29.646-66.584 28.512-102.378-.522-36.514-9.917-72.32-20.433-107.002-2.378-6.842-4.6-15.2-7.498-21.18-2.284-1.869-6.42-.912-9.069-1.275m18.02-1202.57c-.63 21.167 17.85 52.277 45.537 43.476 17.966-6.83 27.278-27.563 26.429-45.685.381-18.133-14.037-39.144-31-41.94-23.473-4.433-41.613 24.035-40.967 44.148M1460 2289c5.89 34.047 9.951 68.689 8.692 103.34-.735 12.964-1.267 25.978-3.383 38.805-1.178 11.159-3.712 22.248-5.836 33.174-.156 4.067 5.33 7.162 7.884 10.675 11.662 13.382 29.795 22.046 47.843 19.71 26.627-3.074 47.112-26.715 52.604-51.883 7.855-26.657-.5-54.302-13.735-77.605-19.047-33.025-49.282-57.867-81.376-77.618-4.166-2.128-8.326 1.157-12.693 1.402m70-403h78v-123h-59.4c-5.817.316-13.999-.65-18.6 1zm0 149h78v-123h-78zm0 151h78v-125h-59.4c-5.817.316-13.999-.65-18.6 1zm29 91.297c11.36 24.068 23.669 48.119 31.213 73.873 6.393 19.11 11.786 42.317 13.556 60.732 1.021 7.76-.673 17.081 5.895 21.831 10.287 7.986 22.421 14.806 35.772 15.203 20.182 1.722 39.734-10.794 48.214-28.888 9.625-17.998 7.354-43.28-.14-59.737-10.95-23.19-30.236-41.418-51.556-54.998-21.895-13.74-46.224-23.022-70.68-31.028-4.885-1.788-8.32.809-12.274 2.715z" style="fill:#cc2423;fill-rule:evenodd;stroke:none"/><path d="M1080.5 2518c7.206-4.379 14.4-9.701 18.582-17.348 3.672-7.282 5.344-16.049 12.936-20.378 49.315-37.616 97.783-76.398 144.334-117.383 23.229-21.548 47.325-42.082 69.76-64.476 12.011-10.376 22.605-22.292 34.611-32.67 5.667-5.577 11.24-11.254 16.88-16.847 2.466-2.753 5.983-5.505 7.81-8.389 2.676-2.251-1.632-7.958-1.913-10.509-41.276 16.608-82.503 34.405-124.5 49v-220h102c9.102.501 20.752 1.158 28.5-8 1.426 71.153-.26 142.76.5 214 28.068.022 56.914 1.65 84.174-6.793 12.734-3.235 24.87-8.302 36.378-14.532 5.687-3.09 10.86-7.133 15.656-11.45 6.104-5.098 4.794-12.17 4.792-19.225h282c-.903 32.213-2.85 64.423-5 96.578l-.5 1.422c-13.711-23.599-43.992-39.03-66.654-46.553-14.214-4.525-28.855-7.435-43.568-9.72-7.399-1.198-14.864-1.935-22.324-2.543-3.121.642-6.937-1.694-9.971-.102-2.866 1.297-5.856 3.501-7.983 5.418 24.941 25.049 49.226 59.675 62.52 89.276a171 171 0 0 1 9.82 25.747c1.077 3.317 1.95 6.703 3.217 9.946 8.7 8.49 23.96 11.155 34.411 12.268 12.81 1.91 23.812-5.875 34.032-11.737-2.084 18.357-5.418 36.758-10.998 54.388-3.504 12.391-11.85 23.818-25.2 26.425-10.71 2.212-21.875.558-32.705 1.187-16.133-.265-32.28-.801-48.363-1.932-15.241-1.333-33.35-1.086-47.234-3.068-2.366 2.95-2.255 11.12 2.648 12.42 10.293 2.886 20.747 5.256 30.742 9.136 17.8 7.227 36.054 15.84 48.895 30.682 13.488 12.846 18.865 31.468 20.806 49.43 1.235 8.175 2.022 16.386 2.27 24.64.199 4.088.114 8.166.144 12.251-1.059 10.253 10.06 6.997 16.66 6.957 26.997-.804 54.158-4.65 79.393-14.592 17.84-7.005 34.803-16.31 48.816-29.494 19.87-21.074 31.744-48.202 38.306-76.107 7.886-29.799 11.905-60.46 14.966-91.064 5.056-52.612 8.324-105.434 9.854-158.259 14.273-2.02 34.662-6.862 40-19.672-39.354-32.21-78.229-65.039-117.5-97.328-12.178 12.437-25.695 23.436-37.87 35.87-5.386 5.567-11.438 10.36-16.863 15.863-5.126 4.66-9.949 10.773-16.224 13.796-15.061 1.317-30.334-.218-45.432.47-2.644-.02-7.655.045-7.66-3.013-1.285-25.344.233-50.916-.451-76.294V2077c.022-4.111-.17-8.263.445-12.325.551-3.616 7.276-2.205 9.547-2.675h133.065c13.262-.909 29.828 1.87 41.387-2.883 4.034-1.976 7.685-5.274 9.293-9.55 1.524-4-3.286-7.478-5.47-9.8-20.28-20.255-42.253-38.698-64.077-57.25-6.563-5.672-13.381-11.032-19.966-16.675-3.325-2.796-6.703-5.53-10.05-8.289-3.04-2.269-6.944-6.166-10.174-6.553-10.499 17.293-24.14 33.26-35.47 50.14-6.071 8.628-12.413 17.073-18.47 25.706-1.396 1.95-3.052 4.329-4.773 5.707-2.787 2.784-9.482.566-12.802 1.447H1748v-121h154.2c14.708.14 34.359 1.24 39.792-13.717 1.008-2.464-.89-4.748-3.097-6.884-29.49-27.633-59.68-54.561-91.355-79.741-4.62-3.955-9.684-7.408-14.04-11.658-16.71 21.866-32.115 44.76-48.591 66.804-2.903 4.329-6.127 8.414-9.16 12.638-3.12 5.53-9.406 4.731-14.523 4.558-4.54-.024-12.686 1.163-13.005-4.114-.63-19.659.114-39.343-.221-59.007v-44.198c.126-4.554-1.286-13.112 4.085-13.437 38.426-.696 76.944.127 115.38-.244 21.727-.002 43.465.003 65.18-.002 7.373.39 15.19-1.278 20.457-6.885 2.193-2.23 3.712-5.389 3.34-8.54-15.299-17.623-34.059-31.978-51.467-47.387-17.23-14.995-34.503-29.98-51.975-44.686v-1.5c14.685-1.916 28.832-7.04 42.554-12.322 9.274-4.418 18.6-9.798 24.826-18.248 2.564-2.958 4.084-6.603 6.135-9.872 10.049-9.366 19.371-19.612 24.017-32.951 5.574-14.021 6.397-29.386 4.636-44.216-3.059-18.169-12.855-35.227-11.937-54.171 1.688-34.947 27.812-62.117 37.648-94.397 3.935-14.413 4.97-33.399-1.91-45.892-13.198-23.911-39.851-35.548-59.771-52.418-4.217-3.904-8.814-7.918-10.917-13.412-4.475-11.841.922-24.533 8.204-33.907 11.52-16.787 23.538-33.58 30.844-52.744 6.35-18.088 7.482-41.381 3.964-58.539-2.606-16.797-13.952-30.833-25.608-42.01-20.215-19.794-47.536-29.521-71.296-43.803-8.808-5.485-18.244-11.362-23.563-20.607-9.889-19.222 4.102-38.274 11.516-53.175 5.76-12.682 12.165-25.31 15.279-38.972 4.627-20.58 4.074-47.924-7.316-64.409-11.969-17.22-37.137-24.155-54.52-28.07-40.213-7.695-81.439-10.558-121.017-21.381-8.31-2.069-16.423-4.757-24.503-7.555-3.722-1.4-8.324-2.553-11.608-4.157-3.852-1.568-2.961-9.26-4.781-12.2-8.681-31.213-21.539-61.283-37.306-89.532-6.322-11.897-14.085-23.039-22.062-33.861-7.978-10.132-16.28-20.308-27.812-26.636-12.035-6.72-23.495-2.354-33.001 4.685-17.941 13.13-33.1 34.854-44.504 51.338-11.112 16.282-19.965 33.914-27.648 52.003-2.426 4.463-7.08 4.86-11.331 6.746-30.661 12.956-54.53 37.182-81.088 56.312-19.943 14.553-41.507 30.516-67.268 31.871-9.548 1.072-20.696-2.573-28.29-6.595-6.993-4.225-12.585-10.61-20.051-14.124-6.206-3.331-15.996-5.934-19.615.837-4.995 12.114 1.132 30.187 3.739 39.731 11.803 34.637 46.03 63.71 74.361 79.153-49.92 45.875-96.5 95.313-139.785 147.484-8.368 9.434-16.137 19.4-24.238 29.051-7.83 8.637-19.324 13.12-27.733 21.161-34.762 26.363-67.244 60.371-79.179 103.512-8.829 33.674-6.761 70.864 8.594 102.4 11.154 22.121 29.49 40.091 51.672 51.06 35.614 17.202 77.903 15.802 114.733 3.645 17.92-6.007 34.67-14.983 51.083-24.22 7.782-4.386 15.222-9.38 22.564-14.46 3.84-2.66 7.504-5.584 11.25-8.361 3.649-2.479 7.366-6.35 11.454-6.472 26.894.64 53.836 1.123 80.742.31 25.32-.254 50.814-3.594 75.843-6.11-16.343 68.777-29.078 138.914-41.198 208.648-2.086 16.74-6.745 33.617-4.171 50.546 5.22 27.626 34.22 37.184 55.076 44.038 24.767 7.494 50.437 10.752 76.107 13.159 48.013 3.089 96.227 5.899 144.373 4.54 47.944-1.363 96.222-.538 143.813-7.431v1.5c-11.482 14.447-21.548 30.066-32.702 44.78-4.708 6.591-9.517 13.103-14.217 19.688-2.095 2.812-4.255 6.534-6.794 8.584-2.685 2.728-9.16.611-12.367 1.448h-197.068c-15.7.915-30.41-4.79-44.783-10.771-41.835-14.687-83.25-30.56-125.069-45.229-.76 22.903.926 46.209-.5 69-16.439-15.469-31.386-32.575-48.239-47.581-8.162-8.082-16.417-16.032-24.994-23.652-3.838-4.205-8.403-7.606-12.504-11.5-4.159-2.866-8.82-8.827-12.763-10.267-11.937 20.537-26.322 40.234-38.974 60.46-5.009 7.462-9.75 15.063-14.699 22.56-2.335 3.167-4.472 7.444-7.308 9.78-7.182 2.659-18.103.141-25.713 1.2H1021c1.884 8.26 4.475 18.151 7.3 25.39 1.604 4.38 10.149 1.65 13.242 2.61H1122v253h-93c.898 9.604 5.945 18.415 7 28h86v250.8c-.256 5.951.502 13.238-.738 18.56-4.258 3.985-9.322 2.865-14.019 5.397-32.289 10.347-64.382 21.869-97.243 30.243 9.349 26.414 24.082 51.048 34.551 77.087 12.378 25.378 23.07 51.863 35.949 76.913m529-1347c11.504 5.595 25.199 7.318 36.5 13.5-11.838 36.627-30.191 72.016-56.975 99.975-23.989 23.865-54.044 40.701-86.225 50.721-3.757 1.013-7.516 2.13-11.133 3.497-4.126 6.995-3.305 14.964-5.972 22.617-12.713 58.926-25.044 117.944-35.298 177.351-1.736 10.906-4.145 21.716-5.504 32.672-.706 5.262-1.88 10.466-2.316 15.752-.257 4.26-1.625 10.104 2.44 14.132 7 6.125 18.076 8.891 25.992 11.286 75.362 18.05 153.683 14.801 230.467 15.47 38.495-1.422 77.201-1.88 115.414-7.221 17.897-2.383 36.097-4.499 53.277-10.312 8.169-2.852 19.69-5.698 19.781-15.087.226-9.75-.324-19.52-.617-29.254-5.08-117.274-33.996-232.111-69.89-343.255-14.19-40.399-28.986-80.649-46.833-119.618-22.545-49.34-47.34-97.885-78.005-142.745-13.754-20.677-29.643-39.657-46.566-57.73-8.204-7.236-15.856-15.12-25.017-21.225-3.99-3.025-8.453-5.302-12.556-8.164-4.131-2.526-10.222-3.894-10.056-9.105 4.102-40.24-5.974-80.3-21.077-117.36-5.225-12.789-11.118-25.285-18.666-36.879-6.492-9.755-14.557-22.642-26.64-23.184-11.85.605-18.194 12.033-24.32 19.256-10.775 15.62-18.989 32.88-26.608 50.201-10.075 28.995-11.995 60.638-8.57 90.96 1.619 14.054 6.109 28.041 14.418 39.596 1.177 2.834 4.973 5.154 5.51 8.83-2.701 8.283-12.148 16.519-19.156 23.616-18.928 18.13-47.05 32.688-70.054 39.073-21.273 5.542-43.683 7.012-65.473 4.277-7.509-1.419-14.271 8.54-19.02 12.068-40.178 35.639-76.756 74.993-112.093 115.296-20.006 21.785-37.2 46.103-57.233 67.797-21.044 14.915-42.882 29.23-60.749 48.085-15.315 16.82-28.349 36.35-32.905 59.048-4.944 20.243-2.559 45.541 4.682 63.2 6.324 15.622 18.465 28.73 33.114 36.893 28.201 15.094 63.23 12.931 92.565 2.764 21.285-6.987 40.766-18.62 58.786-31.728 7.068-5.005 13.657-10.644 20.275-16.203 2.992-2.167 5.682-5.705 8.567-7.485 59.833 2.185 123.328 4.321 183.16-7.079 35.242-6.808 71.463-18.879 97.914-44.352 26.3-23.954 40.556-57.484 52.665-89.947m-448.094 50.092c1.904 17.612 14.547 32.103 15.548 49.751.655 4.269 1.827 9.486 4.63 12.481 14.4 10.62 22.808-14.102 25.352-22.583 3.827-13.828 2.93-30.571-6.19-42.272-6.175-8.172-16.272-14.227-26.95-11.521-7.999.841-12.339 6.806-12.39 14.144M1382 2282c-4.906 26.071-11.77 52.2-25.931 75.003-11.826 19.68-27.436 37.2-45.53 51.34-7.427 6.328-15.979 11.026-24.278 16.02-7.392 4.92-12.302 14.795-16.728 21.308-9.868 15.47-15.284 34.24-11.623 52.556 6.474 32.174 40.048 52.516 71.638 49.769 23.022-.231 48.952-13.892 61.588-30.58 24.03-27.86 31.016-65.885 29.864-101.596-.005-36.423-8.885-72.413-19.208-107.065-2.644-8.11-5.194-17.941-8.471-25.071-2.21-2.84-8.449-.986-11.321-1.684m-122.5-262c13.454-25.207 30.546-48.592 43.5-74h1.5c29.44 29.95 58.363 60.52 85 93 1.426-43.682-.26-87.869.5-131.647-.76-44.051.926-88.382-.5-132.353-9.714 4.126-20.964 2.745-31.219 3H1259c.76 80.6-.926 161.477.5 242m140.505-939.765c.003 21.3 15.26 52.572 46.05 45.103 18.93-6.005 28.835-27.576 27.945-46.133 1.296-18.803-13.487-40.988-31.014-43.923-13.787-2.312-23.762 3.237-31.656 12.985-7.52 8.61-11.284 20.356-11.324 31.967M1459 2288c5.074 32.7 9.893 65.56 8.916 98.82-.781 24.858-3.41 49.653-9.034 73.901-1.892 4.687-.25 7.642 3.096 10.75 10.957 11.97 24.711 23.563 41.988 24.404 25.724 2.747 49.005-14.053 59.45-36.779 11.408-23.107 10.878-50.378 1.434-73.908-8.104-21.136-20.936-40.398-36.72-56.558-15.861-16.272-34.673-29.215-53.586-41.563-5.089-3.666-10.745.597-15.544.933m72-403h76v-121h-57.6c-5.754.315-13.872-.648-18.4 1zm0 149h76v-121h-76zm0 151h76v-123h-57.6c-5.754.315-13.872-.648-18.4 1zm26 91.438c11.907 24.63 24.435 49.285 32.213 75.732 6.569 19.618 12.09 43.462 13.697 62.395.471 7.365-.688 16.892 7.417 21.409 20.55 17.746 55.692 20.178 74.769-1.581 19.225-19.91 20.218-51.984 9.002-76.015-11.364-23.195-30.74-41.406-52.392-54.889-22.128-13.363-46.328-22.862-70.914-30.644-5.421-1.892-9.641 2.254-13.792 3.155z" style="fill:#fff;fill-rule:evenodd;stroke:none"/></svg>