<svg xmlns="http://www.w3.org/2000/svg" width="3000" height="3000"><path d="M407 2715h2186c-120.11-729.14-243.257-1457.94-364-2187-109.157-35.927-218.092-72.748-327.181-108.9-95.331-31.722-190.626-63.585-285.954-95.3q-31.498-10.534-63-21l-30.566-10.195c-9.822-2.95-21.336-9.069-29.858-5.26-156.533 52.23-313.087 104.332-469.622 156.555-58.858 19.6-117.69 39.211-176.522 58.84-12.832 4.262-25.65 8.528-38.47 12.817-6.336 2.128-12.684 4.227-19.008 6.343-5.33 2.846-14.097 3.151-17.405 7.24-66.013 385.799-128.474 772.546-193.688 1158.548C521.372 2030.17 462.67 2372.459 407 2715m629.5-385c50.725-41.37 95.391-89.697 134.5-142h2v376c20.424.4 40.933.69 61.056-3.331 13.911-2.71 27.384-7.457 40.58-12.52 9.333-3.936 18.7-8.357 26.883-14.397 7.718-5.712 5.057-15.953 5.481-23.598V2037h2c2.926 2.475 3.607 8.003 5.549 11.883 11.6 32.964 21.26 67.316 23.02 102.422.783 6.11-.608 15.287 2.792 19.413 15.965 16.696 40.74 25.575 63.291 18.062 16.264-5.048 30.483-16.867 37.235-32.673 11.159-24.795 3.792-54.099-12.281-74.98-16.001-20.358-37.125-36.402-60.443-47.546-13.282-6.71-27.187-12.143-41.304-16.783-4.192-1.37-8.334-2.837-12.541-4.146-9.968-1.478-7.052-13.297-7.318-20.555V1915h115.8c6.042.033 12.217.189 18.074-1.55 5.353-.583 10.055-6.685 14.126-7.45v497c-17.45.967-34.647 4.959-52.078 6.27-8.704.929-17.381 2.08-26.048 3.246-4.283.453-8.54 1.095-12.806 1.674-3.775.58-9.38.366-12.068 2.31 21.943 50.534 49.363 98.86 71 149.5 7.549-.348 14.989-6.428 19.472-11.178 4.285-5.032 7.222-12.977 13.008-15.667 45.924-25.433 92.06-50.572 136.937-77.88 22.385-13.666 44.794-27.299 66.864-41.443 10.761-7.049 21.668-13.875 32.26-21.175 5.404-3.743 10.937-7.233 16.365-10.936 5.565-2.853 10.664-8.996 16.094-9.721 31.985 70.03 83.794 130.788 147.5 174 7.417-28.593 18.237-57.037 36.66-80.575 17.92-22.819 41.815-43.624 70.84-50.425.609-2.794.73-6.204 2-8.5-40.227-14.834-80.621-31.669-116.624-55.587-18.037-11.727-35.527-24.348-51.903-38.307-8.151-7.374-16.638-14.364-24.448-22.081-3.871-3.875-7.757-7.752-11.625-11.627-3.305-3.51-8.272-8.687-8.4-12.898 34.704-4.957 68.721-14.456 102.67-22.925 16.867-4.536 33.532-9.763 50.033-15.478 3.962-1.121 8.395-3.232 12.075-4.055 6.126-.475 12.556 3.154 19.852 2.453 7.49.747 12.772-1.757 18.37-5.495-20.41-18.332-42.547-34.729-63.43-52.512-10.626-8.86-21.443-17.507-32.063-26.354-5.471-4.419-10.836-8.995-16.373-13.325-4.237-4.228-12.93-8.801-13.134-14.309 15.48-3.706 32.918-11.751 45.662-18.744 3.296-1.901 7.036-3.879 8.868-7.378 1.276-14.044-.18-28.302.47-42.384V1766c12.981-2.476 27.637-9.7 36-18.5-19.214-16.335-40.037-30.685-59.668-46.501-10.189-7.648-20.136-15.576-30.199-23.382-5.091-3.75-10.038-7.7-15.047-11.543-5.215-3.29-10.313-9.146-15.742-11.074-10.578 11.686-20.73 23.736-31.768 35.005-4.383 5.195-9.882 10.95-13.95 15.661-4.358 4.165-9.56 10.589-13.334 13.791-27.384 1.548-55.03-.281-82.456.543h-62.353c-7.339-.205-16.375.777-22.8-1.732-44.58-18.74-89.766-36.22-134.183-55.268-1.426 78.198.26 156.733-.5 235-4.634-.596-7.803-7.044-11.598-10.498-24.832-28.557-51.27-55.612-77.902-82.502-9.91 13.214-17.165 28.352-26.541 41.954-7.079 13.076-18.9 28.495-25.959 43.046-7.254.716-5.93-6.912-6-11.773v-122.064c.002-20.355-.002-40.694.001-61.034.18-2.225-.095-5.111.995-6.923 7.403-3.245 16.524-3.219 23.312-8.225 5.996-4.125 10.748-10.623 11.692-17.981-56.711-4.701-113.305-11.09-170-16v244h-125v1.5c1.546 4.798 2.904 9.649 4.28 14.488.876 2.873 1.73 8.74 5.832 8.792 12.276.623 24.614-.11 36.893.22H1162c-1.056 18.918-6.56 37.389-9.303 56.072-12.624 64.258-29.036 127.789-50.158 189.775-10.99 29.997-21.472 60.29-35.81 88.922-6.31 14.655-14.18 28.575-21.68 42.621-4.043 6.645-7.59 13.617-11.784 20.165-1.355 3.322-5.606 7.025-4.456 10.058 2.026 2.86 5.272 5.32 7.691 7.387m167.5-831h605v-61.2c.683-9.22-3.314-17.601-6.568-25.977-22.884-60.146-45.965-120.211-68.843-180.348-34.574-90.412-69.022-180.865-103.522-271.292-17.363-45.053-34.37-90.248-51.712-135.305-4.284-11.357-8.531-22.733-12.919-34.046-1.471-4.234-3.353-8.33-4.842-12.548-1.851-8.901-15.984-5.755-22.349-6.284H1458c-22.305 60.155-46.669 119.639-69.38 179.66-34.454 89.429-69.313 178.681-103.899 268.05-17.147 44.654-34.774 89.13-51.91 133.785-8.602 22.355-17.388 44.671-26.014 67.01-4.532 12.068-1.995 25.437-2.797 38.07zm54-96h374v-2c-15.704-41.714-30.554-83.838-45.769-125.737-23.237-62.941-45.475-126.238-68.693-189.171C1495.841 1023.154 1471.101 961.09 1450 898h-4c-14.62 42.426-31.74 84.256-46.97 126.528-23.925 63.61-47.698 127.267-71.59 190.88-11.775 31.171-23.533 62.34-35.209 93.536-5.981 16.006-12.02 31.994-18 48-4.261 15.143-13.669 31.826-16.231 46.056m509 493v-151h-179v132.6c.005 3.622-.006 7.23.003 10.84-1 8.82 6.327 7.919 12.968 7.56H1767m0 177v-152h-179v143.644c.053 2.678-.079 7.858 3.006 7.902 49.703 1.296 99.587-.236 149.33.454zm-50 292c-35.44-84.987-53.81-176.186-67-267h-62v265.213c.495 6.409-.81 13.337.948 19.528 1.689 1.78 5.57-.06 8.12.168 40.046-5.516 79.964-11.906 119.932-17.909m31-115c16.79-19.235 31.321-40.586 46.06-61.416 7.304-10.257 14.058-20.873 20.842-31.457 3.59-5.073 6.481-10.593 9.892-15.78 2.801-5.101 7.54-10.847 8.206-16.347-15.663 2.85-31.304 6.273-47.36 5.888-4.28.11-8.544.162-12.814.066-7.727.637-5.62-9.74-5.826-14.54V2098h-103c9.044 27.905 21.07 55.357 35.126 81.154 7.136 12.775 14.343 25.548 22.705 37.573 3.853 6.148 8.12 11.958 12.48 17.733 4.89 4.602 8.036 13.52 13.689 15.54" style="fill:#cc2323;fill-rule:evenodd;stroke:none"/><path d="M1036.5 2332c50.432-42.14 96.657-89.485 135-143 1.426 125.14-.26 250.76.5 376 20.751.323 41.592.727 62.075-3.155 14.048-2.649 27.682-7.306 40.988-12.463 9.304-3.813 20.08-9.03 27.456-14.63 7.4-5.098 5.377-16.495 5.481-24.198v-81.557c.76-130.237-.926-260.879.5-390.997 13.131 29.358 20.72 61.52 26.285 93.14.751 6.437 1.492 12.871 1.688 19.345.636 5.869.23 12.878.997 18.217 10.984 16.35 36.748 25.763 54.194 23.484 15.746-1.13 30.944-9.025 41.267-20.881 15.817-18.135 18.34-44.632 9.82-66.53-7.604-21.788-23.875-39.246-41.96-52.884-19.624-15.334-42.932-25-65.98-33.796-7.618-2.62-15.286-5.036-22.921-7.551-4.094-1.144-4.072-6.361-3.89-9.9V1916h114c9.936.153 23 .882 31.5-9 1.426 164.827-.26 330.094.5 495-17.45.967-34.647 4.959-52.078 6.27-17.259 2.604-34.737 3.789-51.922 6.73 23.31 51.403 49.129 102.118 73.5 153 7.235-2.102 14.244-5.662 19.321-11.437 4.723-4.634 7.242-12.852 12.699-15.858 45.791-25.312 91.699-50.46 136.462-77.591 44.217-26.862 88.487-53.885 130.518-84.114 16.495 34.541 37.357 67.006 61.846 96.453 25.139 30.236 55.277 55.735 87.154 78.547 2.153-2.649 2.619-7.302 3.786-11.071 7.808-26.957 19.574-53.093 37.398-74.978 16.4-20.987 43.111-40.672 67.316-45.951-.28-3.6 3.444-10.029-.403-11.617-3.963-2.016-8.412-2.91-12.517-4.566-37.76-13.424-73.868-31.183-107.152-53.52-16.797-10.988-32.804-23.15-48.111-36.12-7.351-6.725-16.334-14.182-22.792-20.652-6.392-7.49-15.555-13.623-20.025-22.525 35.044-4.98 69.396-14.664 103.68-23.181 17.016-4.699 33.891-9.827 50.53-15.735 14.609-8.294 36.346 8.246 49.79-9.084-42.74-32.64-83.686-69.027-126-102.5v-1.5c15.48-3.706 32.918-11.751 45.662-18.744 3.296-1.901 7.036-3.879 8.868-7.378 1.276-14.044-.18-28.302.47-42.384V1767c6.764-.874 15.265-5.013 20.366-7.18 5.296-3.232 13.699-6.281 16.634-13.82-41.763-29.047-80.742-63.82-122.5-93-11.182 11.355-20.854 24.063-32.21 35.247-9.385 9.401-18.685 22.324-27.998 30.21-27.384 1.548-55.03-.281-82.455.543h-62.353c-7.784.079-15.908.75-23.156-2.673-44.981-17.4-89.005-38.014-134.328-54.327-.76 78.246.926 156.876-.5 235-13.489-16.918-29.031-32.029-43.408-48.127-7.28-8.167-15.6-15.33-22.988-23.389-3.44-4.216-7.074-8.26-11.08-11.96-3.886-3-7.965-9.349-12.024-10.524-15.797 29.262-36.33 56.644-52 86-5.655-.435-3.521-10.113-4-13.573v-121.515c.212-20.355-.259-40.72.14-61.054-.055-5.21 5.67-5.233 9.642-6.296 11.253-1.968 26.038-9.875 26.218-25.562-57.398-4.463-114.598-11.545-172-16v244c-41.929.76-84.151-.926-126 .5 3.658 7.797 4.362 18.716 8.296 25.594 7.405 1.79 15.423.324 22.993.906H1161c-11.139 74.2-28.945 147.6-51.24 219.213-11.79 35.321-24.372 70.439-39.662 104.42a746 746 0 0 1-24.74 49.491c-4.623 7.72-8.844 15.711-13.626 23.324-1.286 1.822-2.33 3.783-3.462 5.692-4.5 5.473 4.961 10.396 8.23 13.86m166.5-832h607v-61.8c.893-9.124-2.207-17.593-5.974-25.732-22.941-60.388-46.162-120.663-69.09-181.048-34.61-90.76-69.33-181.459-103.869-272.237-17.425-45.24-34.505-90.602-51.929-135.833-4.194-11.414-8.627-22.72-12.908-34.086-1.536-4.354-3.44-8.542-4.975-12.893-1.168-5.123-5.042-6.095-9.438-5.37-31.611-.002-63.21 0-94.817-.001-22.305 60.155-46.669 119.639-69.38 179.66-34.539 89.58-69.424 179.018-104.1 268.544-17.222 44.785-34.86 89.399-52.074 134.172-8.65 22.548-17.54 44.984-26.205 67.515-3.982 12.32-1.247 25.728-2.241 38.476zm56-99.5c.03.55.186 1.057.5 1.5 123.764-.76 247.81.926 371.5-.5-16.063-41.3-30.382-83.617-45.769-125.237-23.237-62.941-45.475-126.238-68.693-189.171C1494.841 1024.154 1470.101 962.09 1449 899h-2c-14.458 42.062-31.5 83.498-46.56 125.407-23.641 63.33-47.505 126.598-71.177 189.911-11.801 30.954-23.404 61.98-35 93-11.961 30.729-22.96 62.88-35.263 93.182m507 494.5v-149h-177v130.445c.004 3.6-.005 7.186.003 10.773-1.052 9.063 7.073 8.328 12.963 7.782H1766m0 177v-150h-177v141.975c-.024 3.146-.036 7.792 3.578 7.703 48.769.919 97.644-.168 146.431.322zm-175.5 311c41.633-7.126 84.018-11.423 125.5-19.5-19.53-40.515-30.55-84.651-41.639-128.022-10.879-45.002-18.43-90.761-25.361-136.478h-60v268.032c.605 5.207-1.093 12.053 1.5 15.968m74.5-283.75c19.506 53.554 45.96 105.573 82.5 149.75 30.86-38.85 59.39-79.726 84.5-122.5-7.426.2-14.953 3.393-22.48 3.79-12.371 1.65-24.937 1.55-37.373 1.675-8.422.371-5.671-9.055-6.147-14.55V2099h-101z" style="fill:#fff;fill-rule:evenodd;stroke:none"/></svg>