<svg xmlns="http://www.w3.org/2000/svg" width="3000" height="3000"><path d="M364 2760.5v1.5h2272v-1.5c-68.931-409.09-136.257-818.54-204.874-1227.691-51.076-306.848-102.33-613.661-153.4-920.497-4.868-28.824-9.564-57.688-14.431-86.508-1.116-7.008-2.365-13.985-3.488-20.978-1.2-6.774-.246-15.245-9.425-16.859-109.868-36.632-219.702-73.24-329.563-109.867-95.996-32.013-192.02-63.992-288-96-41.993-13.978-83.98-28.011-125.966-41.994-5.663-2.605-10.407-1.693-15.513.621-156.173 52.06-312.354 104.114-468.521 156.173-58.68 19.531-117.334 39.097-175.992 58.657-25.668 8.506-51.298 17.139-76.962 25.643-6.176 2.075-12.369 4.11-18.537 6.195-3.02 1.124-6.483 1.813-8.8 4.255-62.934 375.423-125.132 751.075-187.889 1126.544C490.857 1998.664 428.048 2380.37 364 2760.5m576-1455.248c4.99 10.733 9.782 24.468 15.5 33.748 13.539-7.25 31.497-12.02 44.982-15.888 15.802-3.513 34.614-7.623 49.518-8.112 1.657 14.827 7.33 31.654 11.07 44.734 1.89 5.508 3.668 11.084 5.557 16.579 1.349 4.362 4.428 9.458 3.76 13.795-5.78 5.374-14.616 7.376-20.83 12.464-21.876 12.591-42.479 28.342-58.557 47.928 8.271 6.748 18.933 15.948 28.5 22.5 9.877-10.569 20.19-20.86 32.361-28.906 5.77-4.09 11.72-7.874 17.91-11.263 5.682-3.083 13.694-7.78 19.229-7.831 32.627 64.644 87.246 116.78 149.674 152.462 65.038 37.6 139.387 57.664 214.057 62.693 92.056 7.259 186.756-5.193 271.179-43.614 39.66-17.417 76.13-41.72 108.442-70.44 31.028-29.315 59.716-62.447 78.648-101.101 6.332.186 13.833 5.102 20.284 8.501 19.663 9.056 34.946 25.083 50.216 39.499 8.705-8.04 18.895-14.359 27.5-22.5-18.459-22.779-43.24-39.4-68.457-53.703-3.52-1.755-7.048-3.446-10.255-5.714-2.287-2.283.307-6.94.946-9.214 7.73-21.727 15.471-43.963 18.766-66.869 16.252.28 34.92 5.244 49.454 7.995 14.89 3.799 32.582 9.435 45.046 16.005 6.543-10.245 9.763-22.52 15.5-33.233-2.568-2.806-7.782-4.007-11.714-5.842-29.595-11.356-60.719-18.777-92.286-21.925 2.611-20.914 1.98-42.029 2-63 32.21-3.518 64.545-6.025 97-5v-38c-24.516-.19-48.967 1.3-73.379 3.33-5.712.56-11.451 1.083-17.132 1.86-2.694.092-6.2 1.097-8.285-.187-3.223-10.309-2.664-22.071-5.822-32.568-1.73-10.702-4.497-21.143-7.422-31.56-1.371-5.233-2.974-10.404-4.651-15.535-1.641-5.222.978-10.422 2.296-15.461 27.275-81.637 42.047-168.453 34.786-254.646-3.047-36.377-10.005-73.094-26.318-106.055-6.799-15.182-17.002-28.643-29.97-39.084-13.396-10.602-30.89-15.063-47.745-13.936-31.681 3.372-59.03 21.877-84.195 39.799-46.407 35.634-85.62 79.6-120.743 126.159-4.615 7.906-11.154 5.443-17.948 3.166-52.294-13.664-106.583-18.752-160.534-18.267-46.159 1.22-92.466 6.298-137.105 18.48-4.48 1.069-10.643 3.648-13.875.519-45.843-58.485-95.365-117.969-161.721-154.404-24.783-14.356-56.942-22.395-83.86-8.225-21.962 11.487-35.75 33.51-45.046 55.718-17.946 42.488-22.923 89.416-23.331 135.078-1.862 69.975 13.142 138.983 33.092 205.546 1.506 7.947 7.301 16.925 6.013 23.933-4.273 14.357-8.755 28.707-11.432 43.472-2.413 11.116-4.136 22.418-5.591 33.693-.254 5.6-4.826 5.564-9.232 4.39-30.14-3.606-60.509-5.15-90.85-5.215v38c32.484-1.024 64.769 1.6 97 5-.117 20.976-.476 42.08 2 63-35.664 3.74-71.338 12.002-104 27zm105 1134.123c3.286 4.64 6.838 11.713 9.5 15.625 74.021-21.215 146.555-48.361 214.875-84.186 32.942-17.569 65.848-35.244 97.39-55.285 15.864-9.602 31.43-19.747 46.904-29.956 7.721-5.347 15.375-10.779 23.14-16.06 8.117-4.08 15.575-12.867 23.191-14.513.356 27.352-.167 54.737-3.247 81.94-2.559 22.56-4.174 45.382-10.09 67.411-4.394 18.59-11.31 40.173-13.453 57.622-3.735 32.648 9.509 65.876 31.284 89.998 8.254 8.529 16.205 17.847 27.613 22.85 10.482 5.133 22.17 6.087 33.646 5.014 9.455-.606 20.842-3.193 28.093-8.243 14.083-9.52 21.48-26.01 22.78-42.562 4.392-26.156.882-52.544-1-78.689-2.743-27.445-3.236-55.01-2.626-82.57.018-37.746 1.27-75.523 3.943-113.166.743-18.352 5.772-38.951-5.258-55.547-3.71-6.86-10.596-12.967-14.917-18.498-1.598-3.418 3.649-6.553 5.654-8.418 44.213-36.638 84.095-77.82 124.448-118.512 10.199-9.99 18.978-21.24 28.502-31.842 6.321-8.131 17.336-13.834 25.438-18.196 13.514-7.132 27.387-14.485 38.625-24.979 5.12-6.093 8.988-14.197 7.677-22.392-.987-7.556-5.668-15.537-9.626-21.1-17.747-22.046-41.036-39.058-64.958-53.726-18.366-11.012-42.24-22.728-62.396-22.379-8.946-.23-16.613 5.099-22.825 10.908-10.559 8.773-21.178 18.323-34.623 22.398-21.643 7.095-44.466 9.97-66.637 14.952-22.462 4.18-44.905 8.583-67.388 12.616-48.167 8.373-96.456 16.284-145.136 21.075-24.261 2.16-53.865 6.126-75.625-1.02-22.1-7.221-39.58-23.581-55.231-39.945-3.578.908-6.988 2.398-10.667 3-1.431 11.198-.902 22.28-1 33.373-.113 18.87.582 38.393 7.955 56.118 9.211 25.47 28.68 45.689 50.011 61.426 10.887 7.451 22.15 14.939 34.779 19.169 13.34 5.16 28.661 7.705 42.392 2.216 20.442-9.348 33.785-29.75 54.458-38.693 32.326-14.096 65.947-24.544 99.86-34.017 16.48-5.01 33.14-9.468 49.718-14.082 8.93-2.407 18.026-4.1 27.04-6.079 8.57-2.029 19.17-1.973 26.787.569.65 15.153-9.676 27.726-17.295 39.93-30.766 46.31-69.931 86.072-109.18 125.045-59.335 57.382-122.848 110.33-188.932 159.829-32.949 23.938-65.653 48.323-100.373 69.683-33.605 21.57-67.76 43.217-103.22 61.513zM1081 1184c20.457 5.107 45.546 9.83 63 18.5-3.85 10.931-9.955 23.288-13 33.5-16.663-4.732-35.923-12.83-52-14-.602 17.721.849 35.364 2 53 24.079.646 48.972 1.735 72 9.5-4.7 10.616-5.362 23.073-10.5 33.5-18.087-4.862-36.818-6.219-55.5-6 2.98 17.688 8.432 35.093 14.392 51.985 2.084 3.39 2.628 11.479 7.03 11.517 13.314-3.032 26.225-7.916 39.87-9.64 10.43-2.364 21.149-2.655 31.708-3.862v38c-19.146-.804-37.499 5.673-56 9 .28 8.949 8.875 17.343 12.832 24.724 35.829 55.74 89.231 98.973 148.835 127.12 50.39 24.24 105.703 36.59 161.13 41.533 86.552 6.548 176.217-1.528 256.489-36.52 36.156-15.717 69.753-37.038 99.698-62.642 15.034-13.728 29.599-28.018 42.018-44.251 6.303-7.792 12.284-15.78 17.572-24.3 4.492-7.97 13.058-16.775 13.426-25.664-18.482-3.56-36.844-9.81-56-9v-38c12.103 1.326 24.316 1.885 36.22 4.743 9.047 1.661 17.93 3.979 26.71 6.674 3.168.822 6.927 2.265 9.979 2.07 4.459-3.803 4.087-10.09 7.013-14.917 5.364-15.882 10.137-32.043 13.078-48.57-15.434.148-30.98.739-46.139 3.819-2.942.27-7.895 2.728-10.019.819-4.242-10.344-5.7-21.803-9.842-32.138 23.046-7.712 47.905-8.928 72-9.5 1.133-17.653 2.621-35.287 2-53-18.025 1.534-34.773 9.31-52 14-3.722-11.185-8.59-22.075-13-33 10.262-7.173 26.218-8.816 36.75-12.78 5.83-1.676 11.798-2.823 17.672-4.334 2.43-.733 7.076-1.043 7.118-3.83 1.264-11.492-3.352-24.891-4.28-35.276-2.164-10.61-4.775-21.128-7.898-31.475-2.114-9.58-8.898-20.61-4.805-28.691 25.001-74.194 41.96-152.237 39.081-231.014-1.492-38.56-5.323-78.239-21.2-113.94-7.05-14.122-17.32-34.11-38.599-36.169-18.082-1.943-37.253 9.765-50.773 17.529C1766.42 764.202 1718.944 824.033 1675.5 884c-8.577-3.841-21.666-7.595-29.5-8-6.506 25.45-16.828 50.037-27.644 73.902-8.664 16.688-18.76 33.154-34.121 44.636-12.975 11.707-29.6 9.028-39.303-3.162-14.083-16.587-17.595-43.304-20.536-62.067-1.639-12.081-1.425-24.285-1.396-36.433.226-11.96-.56-23.994 1-35.876h-48c1.791 14.708.542 29.58 1 44.355.084 23.531-2.733 47.404-10.624 69.682-5.218 13.841-16.214 33.357-35.67 30.761-12.959-2.509-22.24-13.267-30.54-22.598-11.96-14.535-19.886-31.825-27.403-48.883-6.704-17.882-14.236-35.749-18.763-54.317-8.496.92-19.872 5.058-29.5 8-43.462-60.634-91.95-120.447-154.966-161.962-15.696-9.317-33.982-19.275-53.032-16.02-13.633 2.528-24.887 15.866-30.335 26.554-21.964 39.47-23.422 85.824-26.167 129.488-1.129 73.304 13.276 145.889 36.557 215.112 1.38 4.402 3.063 8.736 4.292 13.175 1.64 6.528-4.47 14.924-5.534 22.517-7.63 23.086-11.098 47.156-14.315 71.136m67-172c4.663-1.99 7.652-9.384 12.137-13.194 28.062-32.306 59.346-62.694 95.863-85.306-27.666-35.924-54.49-73.385-88.58-103.69-4.072-4.042-8.52-7.631-13.25-10.872-4.243-2.614-9.648-6.008-13.951-3.999-7.577 5.237-8.998 15.372-10.805 23.626-4.726 28.563-3.749 57.883-1.889 86.673 2.913 35.218 8.5 70.49 19.964 104.012.296.881.443 1.832.511 2.75m114 151.37c-1.412 29.929 23.774 72.157 62.385 62.223 25.993-8.29 41.132-36.784 39.615-62.894 1.246-26.063-15.18-54.034-41.187-61.19-37.417-8.985-61.953 33.345-60.813 61.86m43 182.005c10.526 9.862 25.538 18.874 37.662 24.073 6.516 2.675 13.075 5.306 19.94 6.951 5.998 2.102 14.151 1.234 17.158 7.207 21.14 41.364 60.78 76.414 108.82 80.02 24.84 2.071 50.504-2.61 72.106-15.453 20.405-11.63 37.224-28.863 49.871-48.492a147 147 0 0 0 6.74-10.683c1.791-3.444 3.53-6.913 6.387-9.578 26.238-4.444 51.577-15.83 71.316-33.92-7.58-9.374-15.79-18.242-23.5-27.5-22.485 18.853-52.073 27.737-81.22 25.873-14.717-.71-28.757-5.605-41.599-12.56-6.171-3.136-12.823-7.92-17.283-12.415-4.542-4.64-10.074-9.886-10.398-16.898 9.922-3.28 19.08-12.445 25.384-19.234 5.755-7.643 12.702-19.354 6.474-29.791-8.606-13.918-31.68-16.213-46.118-17.403-10.91-.743-24.006.673-33.839 2.463-9.785 2.858-21.276 6.44-26.408 16.18-5.637 10.744 2.066 21.644 7.758 29.114 6.704 7.259 16.151 15.412 24.749 18.671-.329 7.711-6.855 13.17-11.74 18.224-38.16 34.06-100.942 30.081-138.76-2.224-7.665 9.19-15.914 18.203-23.5 27.375m48 343.125c37.556 25.768 71.135 58.126 97.103 95.673 9.213 13.858 19.299 27.16 27.962 41.371 8.587 12.304 18.086 24.89 31.612 32.216 24.915 10.56 55.388 5.718 77.082-9.596 16.06-11.83 27.736-30.008 28.94-50.325 1.075-15.235-2.64-34.058-10.4-45.922-10.764-18.198-32.031-32.401-48.954-40.76-19.71-9.684-44.777-16.8-64.282-21.436-41.972-8.483-84.908-12.693-127.731-12.721H1359c-.888 4.103-4.61 8.549-6 11.5m226-308.5c-15.068-2.381-29.828-7.068-43.35-14.179-9.808-4.935-20.511-12.428-27.752-19.423-2.727-2.258-6.382-7.649-9.84-5.33-20.836 20.603-47.863 34.735-77.058 38.932.989 5.352 7.29 10.49 10.978 15.472 13.812 14.51 31.428 26.397 51.506 29.93 36.53 7.544 78.113-12.7 95.516-45.402m38 780c-.99 5.648-6.834 12.318 1.14 15.636 5.428 3.007 10.864 5.997 16.264 9.053 42.793 22.94 77.008 58.324 106.253 96.393 11.154 14.296 22.395 28.535 33.051 43.194 19.017 23.866 35.448 54.481 66 65.121 22.625 7.903 49.903 4.374 68.234-11.838 13.436-11.389 23.784-29.468 23.058-47.823.04-28.11-7.584-56.792-24.393-79.61-14.887-21.915-37.291-37.09-59.607-50.419-70.324-37.582-152.074-43.135-230-39.707m19-996.695c-1.995 29.687 23.979 72.42 62.16 62.163 25.997-7.75 40.494-36.742 39.837-62.208.593-25.631-14.592-54.6-40.953-61.487-37.277-9.955-63.084 32.891-61.044 61.532m108-249.93c9.782 6.96 20.928 12.343 29.815 20.694 14.02 11.416 29.563 25.804 41.287 37.533 6.12 6.696 13.176 14.643 18.851 20.722 3.204 3.21 6.153 6.641 8.973 10.179 2.964 2.748 5.732 8.388 9.074 9.497 9.01-29.389 16.247-59.495 18.88-90.264 2.444-24.553 4.025-49.245 2.853-73.941-.419-8.864-1.138-17.703-2.656-26.448-1.272-7.057-2.506-14.382-5.954-20.775-1.747-2.64-4.502-6.145-7.433-6.15-6.104-.557-11.874 5.159-16.449 8.157-32.007 26.805-58.24 59.71-83.658 92.628-4.596 5.952-8.603 12.57-13.583 18.168" style="fill:#dcf;fill-rule:evenodd;stroke:none"/><path d="M938 1304.377c5.357 12.187 10.717 24.594 16.5 36.623 28.296-14.269 65.695-22.48 94.5-25 1.657 14.827 7.33 31.654 11.07 44.734 1.818 5.37 3.585 10.752 5.396 16.113.537 3.908 5.497 10.295 3.12 13.374-29.391 15.547-58.542 33.837-79.586 60.279 8.684 7.54 20.466 17.095 30.5 24.5 18.057-20.244 44.71-40.876 68.5-49 32.627 64.644 87.246 116.78 149.674 152.462 65.038 37.6 139.387 57.664 214.057 62.693 92.366 7.18 187.501-4.724 272.307-43.228 39.874-17.295 76.37-41.826 108.912-70.45 31.145-29.449 60.095-62.613 79.05-101.477 27.516 8.648 49.571 29.563 69.5 49 9.149-8.958 20.466-15.423 29.5-24.5-18.44-22.85-42.968-39.62-68.184-54.032-3.32-1.939-7.03-3.266-10.193-5.465-3.31-1.573-1.247-6.051-.176-8.653 7.568-21.587 15.318-43.613 18.553-66.35 31.445 2.705 68.795 11.37 94.5 25 5.589-12.217 11.475-24.554 16.5-37-33.363-14.1-68.805-23.76-105-27 3.07-20.194 1.527-40.737 2-61 32.21-3.518 64.545-6.025 97-5v-40c-24.777-.231-49.49 1.204-74.17 3.208-5.643.623-11.3 1.126-16.932 1.747-2.575-.044-6.24 1.336-8.03-.294-3.604-21.657-6.832-43.623-13.164-64.772-1.293-5.203-3.149-10.252-4.501-15.42-.61-8.644 5.898-20.113 7.682-28.645 25.164-81.976 37.816-168.754 28.232-254.448-4.441-35.812-12.538-71.95-31.048-103.379-7.799-13.456-21.027-26.962-33.413-34.063-15.253-8.232-33.61-9.744-50.383-6.282-30.42 6.565-56.733 25.228-80.96 43.684-22.965 17.882-43.283 38.632-63.449 59.454-18.04 20.314-35.658 41.024-51.716 62.978-4.175 6.258-11.979 1.98-17.359.729-53.303-13.6-108.505-18.34-163.382-17.412-46.184 1.562-92.54 6.706-137.107 19.353-8.912 3.914-15.212-9.793-19.876-15.193-22.669-29.458-47.484-57.17-74.4-82.72-23.042-22.13-48.572-42.096-76.669-57.383-25.047-14.186-57.4-21.86-84.54-7.989-22.05 11.36-35.967 33.312-45.303 55.529-18.039 42.41-23.031 89.297-23.512 134.903-1.854 69.841 12.244 138.863 32.257 205.367 1.707 7.146 6.046 15.693 6.788 24.1-3.506 14.353-8.855 28.32-11.143 42.99-2.298 10.78-4.466 23.587-5.67 33.625-.597 1.863-.332 5.64-2.535 5.884-32.453-3.268-65.036-5.943-97.697-5.551v40c32.484-1.024 64.769 1.6 97 5 .027 19.653-.6 43.049 2 61-36.204 3.19-71.662 12.852-105 27zM1044 2439.5c1.836 5.829 7.57 11.092 9 16.5 74.85-19.268 147.026-48.573 215.876-83.442 33.061-17.385 65.857-35.309 97.517-55.174 31.626-19.019 62.141-39.881 92.107-61.384 1.647 28.755-.677 57.904-3.496 86.538-2.215 24.474-5.673 48.98-12.545 72.616-5.373 20.381-11.332 40.89-11.17 62.16 1.136 35.486 21.769 68.27 47.554 90.724 10.336 8.415 23.235 13.214 36.594 13.129 11.889.006 24.935-.443 35.79-6.343 20.702-11.716 25.52-31.697 27.299-52.017 2.692-32.86-1.119-65.728-3.702-98.48-1.466-34.197-.69-68.477-.126-102.672.668-33.21 3.595-66.334 5.115-99.486-.244-8.825-2.457-17.701-7.685-24.963-3.595-7.328-10.815-12.112-15.128-18.706 37.987-32.287 74.309-66.602 109.597-101.806 12.152-14.326 27.058-26.142 38.534-41.087 5.479-5.724 10.957-13.38 16.387-18.23 11.44-9.567 25.653-14.867 38.236-22.574 10.494-6.754 22.78-13.422 27.11-26.1 4.348-12.977-.867-23.407-7.406-33.293-25.68-31.584-60.944-54.613-97.775-71.057-9.785-4.41-20.77-6.726-31.423-6.515-16.198.104-26.694 14.67-38.801 23.055-12.454 9.704-28.062 13.39-43.115 16.728-77.512 15.558-155.254 30.523-233.806 39.808-14.865 1.928-29.796 3.341-44.716 4.679-11.983.53-24.071 1.641-36.052.472-16.357-2.097-31.229-9.803-44.186-19.64-6.602-4.625-12.574-10.027-18.06-15.915-3.05-2.422-5.419-6.483-8.978-7.533-3.956.139-7.704 1.753-11.546 2.508-1.349 11.471-1 23.024-1 34.52-.188 19.552.582 39.783 8.364 58.1 9.855 25.388 29.39 45.935 51.248 61.45 21.69 15.469 50.209 29.002 77.275 20.331 20.592-9.242 33.937-29.877 54.708-38.792 32.15-14.02 65.567-24.437 99.298-33.854 16.375-4.838 32.786-9.419 49.232-13.926 8.731-2.425 17.659-4.128 26.5-6.046 8.632-2.07 17.92-2.71 26.375.217.804 12.898-10.694 26.902-18.109 39.174-30.869 46.066-70.09 85.575-109.124 124.559-59.303 57.406-122.956 110.13-188.974 159.684-32.984 23.89-65.694 48.263-100.405 69.643-33.345 21.34-67.226 42.854-102.388 60.94zm38-1257c21.194 6.308 43.722 9.6 64 19-6.155 11.603-8.778 25.221-15.5 36.5-15.858-7.115-33.493-11.399-50.5-15-.6 17.06.967 34.019 2 51 24.274-.05 48.564 2.579 72 9-1.25 7.53-4.142 14.723-5.896 22.132-1.978 4.23-2.036 13.696-7.334 13.383-8.607-1.322-17.074-3.86-25.858-4.297-8.947-.749-17.948-.818-26.912-1.218 5.539 20.815 9.667 42.619 19.5 62 23.752-7.958 48.496-12.596 73.5-14v40c-19.146-.804-37.499 5.673-56 9 .594 5.01 5.224 10.553 8.06 15.612 47.247 76.469 125.477 130.528 210.76 156.168 49.867 15.307 102.408 21.573 154.464 21.22 76.651 1.44 154.584-12.787 223.453-47.237 31.368-16.492 62.044-35.517 87.496-60.496 12.95-12.302 27.668-27.241 37.309-40.633 5.636-6.957 10.802-14.236 15.567-21.808 4.233-7.533 11.746-15.36 12.891-22.826-18.482-3.56-36.844-9.81-56-9v-40c24.837 1.558 49.547 5.774 73.096 14 10.847-18.541 13.625-41.31 19.904-61.5-15.293-1.19-33.989 1.137-47.69 4.2-3.412.76-8.306 2.287-9.448-2.586-2.876-10.357-6.921-22.44-8.862-32.114 23.444-6.374 47.725-9.118 72-9 1.031-16.99 2.602-33.95 2-51-17.043 3.596-34.591 7.89-50.5 15-3.462-4.462-4.865-12.259-7.964-18.143-2.093-6.446-5.448-12.447-7.536-18.857 19.855-7.374 40.402-12.925 61.035-17.568 4.11-2.905.18-11.687.625-15.408-2.2-15.567-5.28-31.017-9.578-46.137-1.742-5.894-3.464-11.79-5.48-17.595-1.64-4.815-4.579-10.642-1.87-16.618 30.432-87.608 48.003-181.682 36.779-274.61-2.679-22.356-7.492-44.664-15.932-65.583-6.481-14.12-14.054-30.388-28.925-37.636-11.889-6.11-26.203-3.254-37.752 2.143-32.363 13.953-63.828 42.028-86.635 64.245-20.398 20.19-38.919 42.13-56.98 64.405-8.684 11.157-17.228 22.424-25.275 34.036-2.083 2.782-3.87 5.835-6.313 8.317-1.385 2.175-4.908 1.05-7.519.23-7.617-2.354-15.157-5.537-23.18-6.221-6.65 25.574-16.862 50.414-27.919 74.359-8.696 16.82-19.042 33.41-34.648 44.802-11.326 10.198-29.668 9.299-39.4-2.637-7.596-7.636-12.04-19.918-14.918-29.096-5.08-16.702-7.22-34.152-8.014-51.53-.229-9.318-.007-18.651-.101-27.96.413-8.684-.747-19.098 1-26.938h-46c2.422 14.72-.089 29.945 1 44.761-.04 23.755-2.802 47.928-11.044 70.345-5.148 13.888-16.686 32.307-35.628 29.93-13.48-1.545-23-12.71-31.498-22.021-12.152-14.62-20.37-31.99-27.881-49.261-6.778-18.02-14.362-36.032-18.949-54.754-8.432 1.385-16.372 5.017-24.69 6.89-7.39 2.243-11.777-10.272-15.959-14.351-36.015-49.927-77.158-96.986-126.265-134.465-18.222-13.186-38.298-26.445-61.282-28.797-20.65-.963-36.369 20.836-42.83 37.619-15.433 34.576-18.492 72.931-20.654 110.095-1.89 57.01 5.945 114.2 20.6 169.229 3.621 13.479 7.557 26.85 11.487 40.24 2.257 9.69 7.754 20.389 9.096 29.44-3.007 15.199-10.321 29.441-12.557 44.897-4.317 14.532-4.861 30.058-7.946 44.703m66.5-167.5c17.13-20.108 34.267-40.402 53.71-58.372 14.948-12.75 29.115-26.824 46.339-36.651 2.54-2.118 8.07-3.726 7.952-7.187-15.028-22.729-32.806-43.918-50.315-64.815-9.514-10.118-18.568-20.657-28.288-30.577-9.546-8.945-21.165-20.762-33.06-24.262-9.615-2.591-13.927 12.456-15.27 18.714-6.62 34.155-4.829 69.454-2.194 103.934 3.687 33.562 8.926 67.582 21.126 99.216m112.5 148.453c-.618 17.36 5.262 34.514 16.586 47.463 11.132 13.829 29.583 20.406 46.906 15.904 26.789-7.825 42.21-37.206 40.508-63.728 1.741-26.712-14.853-55.625-41.689-62.729-38.49-9.298-64.125 33.312-62.311 63.09m42 182.047c11.423 10.912 27.789 20.584 41.16 25.964 7.277 3.07 14.772 5.51 22.484 7.19 3.38.993 7.813.781 9.965 3.057 13.19 21.958 27.827 44.247 49.325 59.176 33.017 25.727 79.654 31.008 118.393 16.485 18.113-7.08 37.502-20.37 49.29-33.888 6.45-7.441 13.023-14.796 18.214-23.211 2.644-3.933 5.295-7.884 7.495-12.08 2.06-5.2 4.754-8.507 10.099-8.776 25.018-4.822 48.93-16.468 67.575-33.917-8.671-9.697-16.707-19.929-25.5-29.5-21.688 18.795-50.791 28.33-79.374 26.913-14.388-.672-28.322-5.112-40.957-11.843-11.508-5.903-25.23-16.31-29.169-28.07 10.06-3.351 19.4-12.67 25.716-19.648 5.63-7.42 12.24-19.243 6.678-30.382-3.933-7.651-12.257-11.384-20.2-14.062-8.604-3.194-17.802-3.725-26.85-4.378-11.317-.717-24.81.535-35.014 2.402-10.051 2.837-21.937 6.572-27.038 16.67-5.154 11.133.668 21.237 7.36 29.909 6.655 7.714 16.53 16.072 25.348 19.489-4.39 13.167-19.189 22.668-29.535 28.427-37.885 20.69-87.935 12.372-119.965-15.427-8.74 9.54-16.903 19.911-25.5 29.5m49 344.5c46.429 29.33 82.743 72.634 112.896 117.939 11.447 16.613 21.207 35.433 38.18 47.36 15.344 10.815 38.85 9.886 54.726 7.208 31.294-5.889 57.876-33.515 59.069-65.992 2.2-25.229-8.82-49.956-28.048-65.991-27.918-23.009-63.103-34.718-97.956-42.26-37.819-7.615-76.44-11.114-114.955-12.263q-8.963-.001-17.912-.001c-.827 5.066-5.862 8.708-6 14m70-308.661c14.135 18.477 32.503 35.472 55.714 41.579 24.072 6.959 50.033 1.662 70.567-12.22 11.86-7.667 20.841-18.486 29.719-29.198-14.347-3.674-29.37-6.594-42.426-14.232-6.782-3.192-13.035-7.333-19.1-11.713-6.535-3.705-10.766-10.66-16.974-14.555-20.195 21.857-48.306 35.337-77.5 40zm189 791.411c17.711 11.225 38.162 20.333 54.778 33.8 31.198 22.76 56.137 52.395 79.607 82.668 17.964 22.402 34.121 46.191 51.94 68.688 12.763 16.977 29.935 31.718 51.8 35.221 32.379 7.282 68.685-10.41 79.423-42.507 5.753-16.676 3.202-34.822.527-51.81-3.334-16.372-9.542-32.167-18.898-46.057-27.446-40.527-73.813-63.013-119.003-77.137-50.342-15.037-103.462-18.72-155.696-17.128L1616 2159c-.828 4.71-3.715 10.268-5 13.75m24-1009.348c-2.445 31.057 24.35 73.576 63.625 63.202 26.74-7.58 41.43-37.574 40.375-63.548.924-26.252-14.787-56.094-42.023-62.554-38.279-9.706-64.482 33.164-61.977 62.9M1851.5 1015c16.753-45.025 22.002-93.894 23.496-141.612-.332-23.812.572-53.385-8.873-73.816-7.663-13.71-20.894-2.1-28.673 4.271-8.559 7.167-18.305 16.158-24.94 23.964-15.149 15.62-29.222 32.244-42.78 49.269-4.878 6.426-10.03 12.655-14.69 19.234-3.462 5.888-9.59 11.627-11.488 17.313 3.148 5.347 9.734 6.012 14.085 10.184 35.964 25.144 66.192 57.449 93.863 91.193" style="fill:#676667;fill-rule:evenodd;stroke:none"/></svg>