<svg xmlns="http://www.w3.org/2000/svg" width="3000" height="3000"><path d="M363 2763h2274c-116.777-706.336-235.544-1412.426-352.792-2118.701-7.351-44.171-14.733-88.332-22.082-132.49-.76-5.347-1.88-10.63-2.64-15.97-.062-6.502-4.856-8.386-10.16-9.572-81.497-27.15-162.975-54.317-244.46-81.467-142.336-47.478-284.708-94.881-427.04-142.357-13.532-4.49-27.037-9.017-40.56-13.514-6.477-2.17-12.972-4.309-19.44-6.486-6.235-1.594-13.427-5.493-19.495-5.034-100.387 32.434-200.209 66.92-300.466 99.791-150.35 50.002-300.828 99.614-451.039 150.05-5.982 1.452-6.275 6.662-6.798 11.742-24.43 146.388-48.84 292.799-73.214 439.189C565.92 1546.494 463.462 2154.662 363 2763m665-1173c37.256-13.359 72.995-31.597 108.618-48.771 52.373-25.703 101.961-56.96 148.033-92.717 47.166-35.34 88.46-78 124.349-124.512 2.971.758 4.295 5.024 5.92 7.835 22.715 49.809 37.868 103.716 39.08 158.783.501 4.999-1.088 12.803 1.775 16.213 13.789 12.623 30.043 22.885 47.758 28.998 33.323 11.191 72.014-.099 94.085-27.344 16.899-19.355 24.74-46.569 21.292-71.895-5.566-37.494-30.779-68.954-61.253-89.809-30.233-22.35-65.813-36.283-101.842-46.105-7.964-1.956-17.27-5.15-24.815-5.676.426-6.187 6.715-12.658 9.902-18.973 57.29-94.091 84.669-203.475 96.098-312.027 4.261.18 4.133 5.97 4.524 9.225 7.887 61.682 17.272 123.287 31.725 183.792 20.492 86.632 52.285 170.75 97.978 247.273 43.034 76.078 104.63 140.272 176.273 189.71 5.395-34.198 16.687-68.815 39.501-95.668 21.397-26.105 59.536-44.788 89.999-48.332-.038-4.024-.053-8.086 1-12-51.175-19.329-100.934-43.722-147.046-73.319-70.29-44.32-132.674-101.408-180.246-169.767-48.049-69.272-82.064-149.586-95.708-232.914h381.6c15.813-.07 36.63 1.082 42.4-14.656-47.99-40.516-98.142-78.957-148.5-116.344-16.724 19.812-32.06 40.818-48.567 60.818-5.946 7.808-12.12 15.446-18.258 23.088-5.517 6.063-10.428 14.843-16.42 19.511-68.618 1.662-137.573-.302-206.255.583 2.474-41.797 7.015-83.505 7.274-125.427 1.661-32.141 2.168-64.343 3.417-96.511.17-6.09.3-12.202.322-18.278-.555-6.693 4.578-7.728 9.602-8.535 9.195-2.587 18.986-6.622 23.915-15.449 1.425-2.661 4.774-9.065 1.053-10.359-65.186-5.6-130.354-12.192-195.583-17.441.446 12.352-.146 24.675-1.666 36.934-1.163 5.814.243 9.91 1.436 14.942.162 80.335-1.783 160.395-5.77 241.124-15-2.106-30.319-.228-45.391-1H1024c1.151 8.946 6.593 18.651 7 27h351c-9.796 125.038-41.959 250.326-107.75 358.13-31.628 51.559-68.938 99.843-112.12 142.24-42.661 43.02-90.098 81.558-140.13 115.63.2 4.581 5.336 7.992 6 12m4 520.5c2.491 8.104 5.443 17.866 7 25.5h386v264c-.63 10.68.862 23.436-.694 33.157-2.24 9.622-13.079 11.834-20.623 11.824-32.269-.008-64.455-2.502-96.65-4.04-31.631-2.179-63.398-1.709-95.033-4.941.554 3.334-1.073 9.324 2.395 10.606 3.602.881 7.25 1.686 10.895 2.371 38.883 7.019 78.421 19.397 107.91 47.16 15.503 12.45 26.207 29.827 30.844 49.069 2.508 9.522 4.916 19.078 6.294 28.844.841 5.272 1.828 10.544 2.63 15.81.976 4.786.248 11.094 2.532 15.14 46.16-6.176 95.284-10.548 137.295-33.181 15.193-8.2 29.697-18.858 39.77-33.142 17.633-25.43 23.615-62.462 24.799-90.136 1.814-104.158-.33-208.382.636-312.541h354c12.714-.471 31.768 3.122 39-14.687-47.716-40.23-97.86-77.568-147.5-115.313-26.574 34.916-55.583 68.786-81.5 104h-164v-139c13.08-.542 30.11-8.059 34-24.5-5.188-1.308-10.738-.663-16-1.5v-3c53.426-21.915 104.518-49.38 155.332-76.693 24.672-13.839 49.344-27.679 73.778-41.942 12.47-6.842 24.162-15.124 36.797-21.645 13.777-3.865 30.578-3.49 41.093-15.22-44.973-37.269-88.492-77.33-133.5-114.5-18.75 16.59-36.397 34.428-54.602 51.602-7.834 7.58-16.008 14.738-23.63 22.558-3.99 3.997-11.249 2.574-16.328 2.84H1136c2.034 9.138 6.294 17.785 8 27h537v1.5c-29.188 45.725-64.835 87.384-99.22 129.251-9.013 10.4-18.155 20.658-27.657 30.612-3.922 4.747-9.025 3.325-14.465 2.71-38.156-3.808-76.586-5.805-114.658-10.073v180h-393z" style="fill:#fda;fill-rule:evenodd;stroke:none"/><path d="M244 2863.5c418.26 1.426 837.325-.26 1255.75.5 418.681-.76 837.643.926 1256.25-.5-137.483-816.352-271.828-1633.965-409-2450.5-141.513-45.746-282.358-94.352-423.703-140.74-105.839-35.248-211.646-70.575-317.47-105.817l-60-20a8496 8496 0 0 1-28.008-9.343c-4.68-1.543-9.347-3.083-13.982-4.729-5.086-2.015-9.193.742-14.014 2.193-139.528 46.49-279.049 93.006-418.557 139.507C931.703 319.858 792.72 367.853 653 413c-137.126 816.275-271.612 1634.71-409 2450.5m120-103v1.5h2272v-1.5c-68.931-409.09-136.257-818.54-204.874-1227.691-51.028-306.678-102.288-613.313-153.312-919.99-4.869-28.835-9.565-57.678-14.432-86.51-1.133-7.012-2.351-14.007-3.495-21.008-1.484-6.504-.056-15.285-8.94-17.157-109.703-36.573-219.416-73.135-329.12-109.701-96.009-31.978-191.992-64.023-288-96-41.971-14.027-84.002-27.963-125.969-41.994-9.552-4.304-21.398 2.4-30.56 4.946-155.047 51.948-310.255 103.285-465.433 154.805-58.187 19.4-116.394 38.801-174.566 58.195-25.476 8.525-51.019 16.959-76.48 25.505-5.454 2.642-13.186 3.29-17.14 6.618-2.1 1.795-1.737 5.77-2.555 8.884-62.19 372.917-124.31 745.877-186.485 1118.792C490.857 1998.664 428.048 2380.37 364 2760.5" style="fill:gray;fill-rule:evenodd;stroke:none"/><path d="M1262 2438.375c1.313 1.294 4.548.31 6 .125-.576-.726-.932-1.572-1-2.5-1.737.376-3.948 1.02-5 2.375m125-1747.75a93 93 0 0 1 3.5 3.375c1.207-3.968-.043-9.725.5-14.563-.613-4.783.778-10.55-.5-14.437-.45.458-.96.911-1.5 1.25-1.396 7.317.554 16.98-2 24.375M1389.5 795c.724-2.968.61-7.598 0-10-3.143 3.027-3.027 7.268 0 10" style="fill:#f1d3a5;fill-rule:evenodd;stroke:none"/><path d="M1541 966v-4h-4c-.38 3.093 1.737 3.748 4 4" style="fill:#695b46;fill-rule:evenodd;stroke:none"/><path d="m1537.5 966 1.5-1.5c-.604-.599-1.177-1.255-2-1.5-.02 1.022-.043 2.106.5 3m3 1c.583-.925.506-2.07 0-3-.4.393-.863.807-1.5 1 .177.723.88 1.405 1.5 2" style="fill:#8d7a5e;fill-rule:evenodd;stroke:none"/><path d="M1537.5 964c.89-.782 2.11-.733 3 0 .385-.957.51-1.979.5-3h-4a9.4 9.4 0 0 0 .5 3" style="fill:#4b4132;fill-rule:evenodd;stroke:none"/><path d="M1028.5 1592c36.722-15.32 73.304-31.307 108.688-49.534 52.393-25.677 101.997-56.924 148.094-92.663 46.753-35.79 89.132-77.46 124.218-124.803 21.985 40.855 34.139 86.816 40.814 132.5 1.044 9.053 1.972 18.105 2.572 27.185 1.278 8.214-2.2 19.817 3.68 24.949 22.558 20.057 51.814 34.184 82.681 31.07 46.243-3.224 83.167-47.096 81.706-92.774-.53-22.11-10.226-47.205-22.27-63.407-12.696-18.009-30.089-32.215-48.147-44.487-32.216-21.262-68.977-34.33-106.205-43.712-4.06-.996-8.123-2.246-12.331-2.324 62.22-99.524 96.306-215.313 106-332h2c11.555 123.335 37.402 246.845 87.292 360.735 24.961 53.697 53.703 106.077 90.682 152.592 36.263 47.353 81.313 87.232 130.526 120.673 4.978-34.443 16.547-69.197 39.194-96.27 21.337-26.379 59.727-45.144 90.306-48.73-.115-4.695.332-9.369 1-14-51.175-19.329-100.934-43.722-147.046-73.319-69.968-44.156-132.244-100.892-179.641-168.951-48.468-68.887-81.404-148.883-96.313-231.73h369.6c11.74-.078 23.528.454 35.189-1.13 4.647-.748 9.252-2.361 13.048-5.214 2.867-2.303 7.159-6.91 5.12-10.549-22.598-21.822-49.047-39.743-73.218-59.794-25.232-18.9-49.672-38.887-75.239-57.313-17.113 19.58-32.083 41.012-48.825 60.906-5.886 7.777-12.041 15.318-18.132 22.935-5.575 6.055-10.466 14.764-16.204 19.74-2.882 2.383-8.469.87-12.487 1.419H1542c3.676-49.104 7.165-98.254 8.338-147.509 1.484-25.466 1.481-50.997 2.45-76.48.314-6.12-.035-13.372.726-18.921 1.867-3.217 8.134-2.6 11.669-4.66 6.072-1.996 12.33-4.408 16.914-9.048 5.899-4.784 6.295-10.919 8.903-16.882-8.162-3.035-17.577-.998-25.994-3.121C1506.65 652.654 1448.4 646.089 1390 642c-.663 97.635.12 195.593-6.5 293-2.716-1.555-7.157-.668-10.695-1H1022c2.205 9.718 6.841 19.022 8 29h351c-10.481 125.05-42.381 250.387-108.887 357.982-31.758 51.474-69.145 99.63-112.483 141.888-42.377 43.075-90.18 80.597-139.63 115.13 1.137 4.477 5.681 9.4 8.5 14m9.5 545h386v262.8c-.63 10.452.863 22.905-.703 32.407-2.451 9.27-11.748 11.537-20.014 11.762-32.235.008-64.385-2.868-96.572-4.023-31.873-2.171-63.867-2.1-95.711-4.946.8 3.914-1.484 10.832 2.374 12.59 4.386 1.076 8.866 1.965 13.297 2.847 19.665 3.779 39.036 8.914 57.64 16.337 26.191 12.045 51.636 28.43 67.823 53 15.2 26.141 16.804 57.252 21.866 86.226 31.52-4.148 63.436-6.802 94.152-15.604 22.086-5.792 43.59-14.53 62.155-27.977 14.577-9.453 25.052-23.544 32.64-38.833 11.177-24.937 14.649-52.749 15.637-79.774.976-29.312-.005-58.661.416-87.975V2137h352.2c10.36-.398 21.73 1.36 31.28-3.77 3.793-1.923 7.334-5.073 8.647-9.276 1.511-3.999-3.3-6.846-5.903-9.114-45.7-38.882-94.491-73.915-141.724-110.84-27.19 35.021-56.114 69.56-82.5 105h-162v-137c13.556-.434 32.29-8.855 34-27-4.663-.512-11.066-.082-16-1.5 53.155-23.221 105.007-49.35 155.772-77.427 24.855-13.897 49.636-27.927 74.267-42.225 12.533-6.66 24.01-15.364 36.809-21.49 14.14-3.148 30.784-3.905 41.152-15.858-45.574-38.301-89.873-78.282-135.5-116.5-18.674 16.858-36.638 34.533-54.87 51.87-7.886 7.784-16.244 15.06-24.015 22.962-3.81 4.23-11.007 3.059-16.075 3.168-180.126.76-360.494-.926-540.54.5 3.524 9.138 6.518 18.987 9 28.5 178.929.76 358.151-.926 537 .5-30.531 44.842-64.462 87.3-99.563 128.635a801 801 0 0 1-27.682 30.58c-3.575 4.32-10.316 2.443-15.21 2.15-37.837-3.517-75.74-6.112-113.545-9.865v180h-393c.868 9.619 5.964 18.392 7 28" style="fill:#000;fill-rule:evenodd;stroke:none"/></svg>