<svg xmlns="http://www.w3.org/2000/svg" width="3000" height="3000"><path d="M364 2760.5v1.5h2272v-1.5c-68.931-409.09-136.257-818.54-204.874-1227.691-51.076-306.848-102.33-613.661-153.4-920.497-4.868-28.824-9.564-57.688-14.431-86.508-1.116-7.008-2.365-13.985-3.488-20.978-1.2-6.774-.246-15.245-9.425-16.859-109.868-36.632-219.702-73.24-329.563-109.867-95.996-32.013-192.02-63.992-288-96-41.993-13.978-83.98-28.011-125.966-41.994-5.663-2.605-10.407-1.693-15.513.621-156.173 52.06-312.354 104.114-468.521 156.173-58.68 19.531-117.334 39.097-175.992 58.657-25.668 8.506-51.298 17.139-76.962 25.643-6.176 2.075-12.369 4.11-18.537 6.195-3.02 1.124-6.483 1.813-8.8 4.255-62.934 375.423-125.132 751.075-187.889 1126.544C490.857 1998.664 428.048 2380.37 364 2760.5m651-1048.125c2.376 2.263 6.573 4.7 9.065 5.66 2.976 1.147 6.11-2.617 9.092-4.183 11.759-8.482 22.941-17.708 34.125-26.898 5.562-4.834 11.205-9.551 16.667-14.484 2.612-2.592 5.263-5.141 8.178-7.378 2.81-2.32 5.607-5.849 8.873-6.092v421c31.84.065 65.802.07 94.568-15.898 6.618-3.574 12.944-7.645 18.772-12.382 5.877-4.19 6.16-10.042 5.66-16.198V1978h207c-2.287 15.283-.374 32.02 10.832 43.784 9.73 12.078 25.973 16.23 40.672 16.98 13.786.465 29.989-6.472 38.692-15.52 9.421-10.272 15.343-23.204 19.29-36.416 10.065-33.85 8.6-69.767 1.96-104.019-2.459-13.363-5.67-26.551-9.521-39.57a283 283 0 0 0-5.683-17.949c-1.16-7.477-9.206-7.258-15.242-7.29 1.793 34.607-13.377 67.307-31 96-5.843.006-8.668-4.724-12.962-7.776-11.52-9.391-22.672-19.303-34.538-28.224-15.31 19.9-28.943 41.364-44.5 61h-2v-117h68.4c11.618-.022 23.231.027 34.845-.015 10.2.702 20.153-4.82 23.755-14.485-13.478-12.596-29.108-27.582-42.03-38.521-13.74-12.796-28.683-24.264-42.47-36.979-11.984 18.902-28.246 35.719-39.5 55h-3v-113h67.8c11.41-.082 22.815.1 34.22-.057 5.28-.367 11.758-1.324 16.02-3.798 4.951-2.321 6.469-6.29 8.96-10.645-26.751-26.693-55.997-50.736-84.5-75.5-7.413 8.846-13.398 18.796-20.608 27.8-3.524 4.69-6.822 9.514-10.364 14.177-3.828 3.868-6.455 11.363-11.528 12.023v-110h103.2c5.841-.21 11.735.341 17.542-.394 4.583-.555 9.05-4.254 13.258-4.606v285c26.994.225 54.516 1.122 80.796-6.452 11.582-3.436 25.1-8.984 34.573-14.743 5.35-4.187 3.104-13.314 3.631-19.127V1747h203c-1.81 11.303-.965 22.871-2.627 34.197-.764 11.596-2.15 23.186-2.373 34.803-5.233-.465-8.18-8.052-13.036-11.023-15.753-13.897-35.517-22.447-55.636-27.654-10.944-2.605-22.101-4.135-33.265-5.405-5.7-.396-11.435-.835-17.14-.901-5.073-.45-9.755 3.298-12.923 6.483 24.183 16.656 45.633 37.608 61.832 62.224 3.98 5.905 7.624 12.065 10.764 18.45 4.672 8.943 5.932 22.675 18.602 25.033 5.704 1.874 11.864 2.105 17.795 1.516 5.27-.183 10.367-4.314 15.007-4.723-2.314 19.956-6.809 39.676-11.605 59.15-4.458 13.12-9.2 30.487-19.674 38.945-19.44 12.612-47.964 6.214-67.385 6.222-23.47-.937-46.844-3.75-70.336-4.317.522 3.592-1.07 9.623 2.816 10.957 3.611 1.684 7.773 1.822 11.513 3.143 28.59 7.615 61.47 19.446 75.025 48.46 4.991 11.359 5.608 24.022 6.513 36.19 1.139 5.212-1.31 12.622 1.58 16.431 9.774 1.855 21.907-.534 30.949-.61 33.331-2.717 68.007-10.291 94.87-31.602 25.515-21.905 39.409-53.52 47.143-85.592 10.667-41.234 15.833-83.699 19.813-126.01 2.048-21.686 3.61-43.44 5.09-65.165.497-5.763.223-11.603.955-17.342-.131-4.258 6.604-3.936 9.428-4.793 10.983-2.445 22.194-6.338 30.305-14.567-35.563-27.237-68.588-58.795-104.5-85.5-15.12 14.747-30.623 28.995-45.733 43.733-5.405 5.224-10.66 13.31-19.815 12.267H1636v-76h250.8c20.994-.098 41.984.12 62.97-.064 7.081-.435 15.82-.47 21.827-3.373 2.669-1.313 5.292-3.435 7.058-5.574 1.125-1.666 3.917-5.166 2.311-6.86-14.99-14.389-31.863-26.782-48.09-39.716-16.416-11.746-31.836-25.742-48.876-36.413.517-4.667 7.245-5.949 10.264-8.491 3.841-2.186 8.095-4.071 10.956-7.58 2.597-3.138 1.486-8.87 1.78-13.348V1311c12.659-1.21 26.826-8.223 35-16.5-36.217-29.664-75.107-56.056-111.5-85.5-9.554 9.313-19.331 21.572-28.102 30.102-6.657 7.53-14.835 16.064-21.234 22.698-5.284 8.122-14.01 6.23-22.424 6.2H1681c.932-5.784 9.628-9.22 14.006-13.778 18.215-14.217 36.576-28.276 54.51-42.847 4.497-3.239 9.224-7.834 13.638-10.393 8.308-2.378 17.778-2.098 25.301-7.361 6.895-4.397 13.441-11.164 14.545-19.621-59.823-8.91-119.206-21.77-179-31-.59 37.341-3.127 74.662-4 112-8.802-.682-18.22-6.237-25.917-8.36-25.71-9.474-51.307-19.432-77.083-28.64v81h-2.5c-22.975-22.724-47.63-43.63-70-67-16.48 17.889-33.931 34.855-51.102 52.102-2.287 2.141-4.314 4.608-6.884 6.43-4.135 2.984-12.564.441-17.147 1.468H1316c6.256-31.009 20.262-60.522 25-92 15.098.25 35.78-7.39 38-22-54.905-10.647-109.221-24.766-164-36-4.374 50.426-13.012 100.443-23 150h-46c-2.047-13.938-5.802-27.718-9.887-41.183-1.793-6.803-4.106-13.394-6.65-19.93-1.227-2.825-1.92-7.527-4.866-8.432-3.504-.502-7.05-.552-10.597-.455 1.928 40.736-21.139 78.533-50.007 105.342-20.894 15.62-52.386 36.326-46.336 70.418 2.965 23.005 21.628 41.967 44.43 45.758 16.432 4.232 36.915-2.013 48.878-11.326 19.872-16.69 29.955-41.645 34.802-66.485 2.468-13.289 4.421-29.249 3.86-41.684-1.605-8.26 10.337-5.649 15.186-6.023H1185c-.52 9.325-4.407 19.854-6.187 28.175-17.687 66.298-39.453 131.65-67.517 194.321-13.586 30.849-28.568 61.074-45 90.507-15.66 27.935-32.504 55.478-51.296 81.372M1220 1647h57v-119h-28.8c-9.236 1.013-19.172-1.346-28.2 1zm57 149v-122h-57v112.078c-.063 2.658-.007 5.373.567 7.95 2.364 3.638 10.246.928 13.534 1.972zm-57 155h57v-129h-28.8c-9.236 1.013-19.172-1.346-28.2 1zm62-449c8.28-44.196 10.65-89.347 14.5-134 13.422 5.04 27.898 8.075 41.564 12.586 7.543 2.194 15.036 4.558 22.624 6.6 6.534 1.609 14.063 4.758 20.312 4.814 3.19-24.745 9.668-49.107 12-74h-87c-13.536 39.589-29.152 78.783-47.68 116.34-8.043 18.233-19.92 38.416-28.337 54.616-1.02 2.039-2.68 4.54-3.517 6.94-.657 4.703 7.243 5.79 10.308 6.06 15.07.126 30.16-.023 45.226.044m25-1.5v1.5h57c4.011-.192 10.06.682 12.736-1.69 16.928-20.385 33.282-41.6 49.764-62.31 14.878 12.054 30.785 22.866 45.473 35.187 7.55 5.912 14.943 11.995 22.441 17.955 3.752 3.022 7.361 6.24 11.113 9.253 3.574 2.879 7.292 7.345 11.473 7.605v-167c-6.305-.457-10.143 2.98-14.46 6.31-13.883 10.066-27.83 20.143-42.536 28.993-7.4 4.424-14.592 9.154-22.08 13.423a185 185 0 0 1-11.549 6.657c-3.263 1.949-8.04 4.04-8.375 7.617 6.255 1.057 13.14 4.678 19 5-3.277 16.045-22.391 17.518-33.838 18.308-4.534.494-8.352 6.107-12.591 8.812-27.097 21.658-54.266 44.481-83.571 62.88v1.625zm272.5 318.5c-2.86 1.436-7.114 1.928-10.5 3 3.66 28.807 5.734 57.897 5.95 86.958-.13 21.894-2.456 43.619-5.487 65.25-.27 6.78 8.027 12.176 13.362 16.85 10.579 8.946 25.667 10.063 37.963 4.378 18.091-8.29 28.024-27.925 30.474-46.807 2.965-20.605-2.745-41.418-11.754-59.825-12.91-26.774-34.061-48.53-56.672-67.302-1.068-.884-2.278-1.614-3.336-2.502m55.5-14.625c18.273 22.555 31.147 49.498 39.848 77.076 3.198 11.269 5.755 22.828 6.437 34.563.442 5.14.166 10.552 1.541 15.523 6.024 6.029 15.306 10.64 22.753 12.73 16.291 3.55 33.355-5.146 41.652-19.187 12.93-21.16 6.473-48.574-7.706-67.056-13.618-18.97-32.8-33.066-53.738-42.909-13.128-6.882-27.496-11.1-41.287-16.115-2.587 2.67-6.448 3.57-9.5 5.375m1-418.375h150v-92h-150zm0 118h150v-92h-132.6c-5.456.21-13.096-.544-17.4 1zm0 113h181c6.052-10.488 16.019-19.04 22.767-29.221 3.886-5.018 8.005-9.859 12.002-14.773 3.2-5.065 9.383-9.816 10.231-15.006-12.454 2.302-24.437 7.315-37.24 8.196-12.78 2.23-25.868 1.579-38.76 1.804v-38h-132.6c-5.456.21-13.096-.544-17.4 1z" style="fill:#fedda9;fill-rule:evenodd;stroke:none"/><path d="M1099.5 1660c1.426 140.149-.26 280.758.5 421 32.299.033 66.776.427 96.069-15.625 6.637-3.573 12.986-7.632 18.857-12.35 6.147-3.943 6.775-9.71 6.074-15.904V1979h205c-2.416 14.466-.448 30.632 9.52 42.15 8.708 11.727 23.7 17.244 37.781 18.297 14.304 1.51 29.14-2.748 40.702-11.269 10.66-8.97 17.974-24.147 22.07-35.92 10.393-33.37 10.166-69.263 4.572-103.427-2.251-14.699-5.659-29.193-9.81-43.452a259 259 0 0 0-6.41-20.56c-1.346-8.47-10.661-7.836-17.425-7.819 1.793 34.607-13.377 67.307-31 96-4.285-.975-8.124-5.936-12.203-8.817-11.352-9.494-22.756-18.94-34.297-28.183-15.617 20.185-29.78 41.53-45 62-1.426-38.14.26-76.76-.5-115h100.2c8.313.37 19.75-1.042 25.01-10.843 4.018-7.174-6.199-11.914-9.58-16.027-14.945-14.728-31.251-27.935-46.661-42.152-8.8-7.868-19.746-16.387-27.469-23.978-13.432 18.764-28.034 36.946-41 56-1.426-36.903.26-74.05-.5-111h57c14.217-.012 28.432.015 42.645-.008 8.566-.323 21.13-1.298 25.544-11.475 3.707-6.232-6.367-12.352-9.666-16.485-15.142-14.209-30.813-27.815-46.53-41.374-9.182-7.877-18.285-15.83-27.493-23.658-14.514 17.648-26.658 37.22-41 55-1.426-35.845.26-72.081-.5-108h100.8c10.407.247 21.685 1.33 30.7-5 1.426 94.875-.26 190.06.5 285 26.98.165 54.533 1.4 80.864-5.977 12.509-3.387 24.86-8.36 36.075-14.879 5.701-3.93 3.731-13.05 4.061-18.87V1748c66.929.76 134.151-.926 201 .5-3.28 21.67-2.31 44.727-5.5 66.5-14.127-16.822-33.44-28.912-54.428-35.41-11.184-3.522-22.645-5.949-34.27-7.405-5.846-.77-11.696-1.515-17.584-1.734-5.095-1.132-12.79.49-16.718-1.451-2.883 3.156-6.433 5.572-9.5 8.5 23.902 17.213 46.048 37.521 62.275 62.401 8.91 11.646 14.074 25.52 19.61 38.799 4.235 4.994 13.671 6.415 20.875 7.414 8.846 1.514 15.048-2.162 22.24-5.114-3.317 19.693-6.518 39.51-12.086 58.728-4.568 12.77-9.28 30.05-19.97 37.922-19.587 11.825-47.592 5.577-66.949 5.566-23.366-.742-46.603-3.952-69.995-4.216.732 4.193-1.523 11.124 2.796 12.95 4.568 1.978 9.737 2.16 14.373 3.962 28.527 7.583 61.093 20.404 73.226 50.089 4.155 11.681 4.99 24.27 5.57 36.538.363 4.566-1.487 13.814 4.04 14.218 38.904-.05 80.534-4.518 114.459-25.349 33.425-20.065 49.108-58.837 58.358-94.656 10.737-41.197 15.316-83.7 19.58-125.93 1.758-21.823 3.679-43.613 4.992-65.46.318-5.735.351-11.529 1.083-17.206 1.594-3.14 8.214-1.817 10.778-3.458 10.938-2.481 21.9-6.832 29.745-15.198-36.034-28.373-70.137-59.676-106.5-87.5-15.072 14.615-30.41 28.867-45.475 43.475-5.741 5.264-11.607 13.872-18.885 13.513-62.384.034-124.768-.006-187.14.012v-74h269.4c14.944-.115 29.901.143 44.84-.082 6.764-.445 15.073-.486 20.855-3.113 6.158-2.23 9.124-7.79 11.905-13.305-31.583-27.644-65.333-53.03-99-78 6.215-5.227 16.426-7.507 21.22-13.571 2.403-2.857 1.618-8.014 1.78-12.148V1312c6.97-.386 14.744-3.419 20.379-6.19 5.348-3.529 13.904-7.078 15.621-12.81-19.659-12.817-37.823-29.013-57.074-42.65-18.522-14.806-38.122-28.285-56.426-43.35-19.432 19.095-36.311 40.915-56.24 59.44-15.383 1.538-31.036-.232-46.468.56-15.161-.7-30.75.866-45.792-.5 20.156-16.628 41.377-32.044 61.608-48.583 5.081-4.119 10.26-8.087 15.298-12.242 6.395-5.787 18.744-5.089 27.698-9.607 9.587-3.693 15-12.668 18.396-21.568-2.636-1.912-7.232-1.683-10.9-2.747-57.092-9.402-113.92-21.1-171.1-29.753-.59 37.341-3.127 74.662-4 112-17.268-4.721-33.57-12.952-50.64-18.37-17.117-6.88-34.945-12.306-51.86-19.63-2.185 27.103 1.185 54.941-1 82-14.18-14.438-29.693-27.434-43.87-41.87-5.42-5.346-11.385-10.053-16.605-15.605-4.315-4.548-9.833-12.024-14.659-6.264-15.35 17.592-33.143 32.938-49.099 49.972-2.044 2.127-4.14 4.224-6.568 5.887-10.867 2.193-22.633-.14-33.694.88H1317c7.809-30.026 19.49-59.353 25-90 14.09.003 32.862-5.223 39-22.5-2.516-2.039-6.996-2.065-10.584-3.182-52.238-10.839-104.036-24.362-156.416-34.318-4.374 50.426-13.012 100.443-23 150h-44c-2.023-14.125-5.953-28.058-10.039-41.698-1.836-7.008-4.287-13.797-6.89-20.54-1.817-9.636-10.466-8.088-17.071-7.762 2.537 37.228-20.466 77.685-44.733 100.233-9.584 10.103-22.81 15.934-32.242 26.242-8.247 8.19-16.232 19.913-18.927 30.347-4.629 21.374 3.77 45.627 22.457 57.768 14.12 9.523 32.324 12.65 48.797 8.554 24.115-5.345 41.046-25.777 49.726-47.883 5.08-12.287 8.113-25.351 10.271-38.426a188 188 0 0 0 1.94-18.405c.009-6.087 1.316-13.47-.289-18.93 4.006-2.715 11.104-.775 16.437-1.5H1184c-20.713 89.574-51.77 177.114-91.932 259.837-19.665 40.042-41.431 79.042-66.341 116.063-3.082 4.682-6.563 9.11-9.57 13.84-3.576 4.784 1.383 7.305 4.787 9.55 3.394 3.049 7.054 1.77 10.073-1.235A690 690 0 0 0 1099.5 1660m121.5-14h55v-117h-27.6c-8.935 1.073-18.7-1.407-27.4 1zm55 149v-120h-55v109.111c-.572 5.15-.7 11.71 6.962 10.875 16.02.04 32.02-.007 48.038.014m-55 155h55v-127h-27.6c-8.935 1.073-18.7-1.407-27.4 1zm60-449c7.521-44.258 11.569-89.193 14-134 28.62 6.628 56.32 17.72 85 24 3.649-24.013 8.769-47.9 12-72h-85c-13.37 39.071-28.732 77.743-46.937 114.845-8.77 18.122-17.946 36.079-27.78 53.653-1.768 3.875-7.242 10.088-1.925 11.7 7.936 3.199 16.976 1.006 25.268 1.802zm27-.75c10.914 2.037 23.287-.287 34.51.75h17.927c5.519-.299 12.745 1.116 16.28-2.558 8.262-10.006 15.968-20.473 24.277-30.44 6.694-9.832 16.781-19.146 24.006-31.002 4.12.547 8.074 5.057 12.116 7.58 26.722 20.034 52.896 40.854 78.384 62.42 1.426-54.805-.26-110.101.5-165-8.505.813-16.392 10.856-24.877 15.395-22.937 16.75-47.986 30.322-72.123 45.105 5.874 3.454 14.784 3.43 20 7-5.324 15.243-20.246 18.26-34.329 18.734-4.653.292-8.52 5.694-12.706 8.564-27.16 22.084-54.66 44.367-83.965 63.452M1568 1821c2.983 28.27 5.899 56.595 5.959 85.08-.191 21.744-1.818 43.466-5.35 64.91-1.838 7.71 4.424 14.792 10.045 18.499 9.708 9.29 23.858 12.907 36.779 9.095 19.403-4.909 31.573-23.895 35.613-42.306 4.95-20.112 1.39-41.114-6.675-59.834-12.26-30.55-35.174-55.195-60.301-75.711-4.266-4.265-11.245-.413-16.07.267m66-18c22.162 35.018 44.927 73.772 46.442 116.913-3.485 23.093 33.501 30.647 48.277 23.135 22.658-9.74 28.251-32.15 25.92-52.831-3.494-24.54-20.935-44.237-39.546-59.117-19.114-14.486-41.79-23.355-64.282-31.012-6.913-3.504-11.22 1.059-16.811 2.912m3-418h148v-90h-148zm0 118h148v-90h-130.2c-5.58.261-13.415-.594-17.8 1zm0 113h179c5.808-10.235 15.59-18.518 22.12-28.426 7.908-9.123 14.995-18.946 22.88-28.074-11.958 2.391-24.316 7.056-36.794 7.965-12.966 1.984-26.164 1.389-39.206 1.535v-38h-130.2c-5.58.261-13.415-.594-17.8 1z" style="fill:#000;fill-rule:evenodd;stroke:none"/></svg>