<svg xmlns="http://www.w3.org/2000/svg" width="3000" height="3000"><path d="M1066 2270c-2.578 42.004-8.63 85.015-28.452 122.871-6.86 12.808-16.358 24.109-22.187 37.481-10.768 21.075-8.352 57.813 21.218 66.985 19.756 7.764 42.045-.354 54.762-16.345 20.95-25.175 21.598-59.14 20.647-89.992-1.297-30.72-9.885-60.684-19.386-89.7-3.952-9.713-7.06-22.176-11.999-30.444-4.663-1.393-9.802-.604-14.603-.856m4-22c25.987-.042 52.984 1.188 77.815-8.151 10.756-4.225 22.754-11.115 30.91-17.92 6.273-4.246 5.437-10.92 5.275-17.156V2185h172c-3.044 24.166-2.888 48.942-6.5 73-20.653-20.064-48.14-31.274-75.923-37.17-7.408-1.4-14.782-3.16-22.234-4.252-5.636-.963-10.2 3.247-13.672 7.194-1.197 3.518 4.178 6.352 6.074 8.442 8.734 7.635 17.522 18.071 24.624 26.002 11.484 15.284 24.447 34.012 30.9 50.46 1.823 4.433 3.579 8.894 4.922 13.5 1.822 15.798 21.674 19.862 34.809 18.824-2.813 21.97-7.88 43.691-13.288 65.139-3.965 15.6-9.348 30.806-15.658 45.58-4.733 10.51-11.057 20.788-20.629 27.586-15.655 11.196-36.182 7.543-53.964 7.521-19.132-1.307-38.273-2.783-57.461-2.826-.417 5.325-1.012 10.657-1 16 22.247 4.234 45.384 13.853 59.1 32.806 13.757 19.73 12.212 49.512 12.9 70.194 28.61-2.248 58.558-3.108 84.863-16.403 18.414-7.47 37.008-22.257 48.733-35.908 20.233-23.681 31.525-53.136 40.804-82.393 9.701-31.606 15.87-64.157 21.163-96.727 4.8-32.105 8.57-64.359 11.484-96.679 1.499-16.546 2.557-33.122 4.065-49.667.247-4.211.443-8.44.664-12.647.408-2.794-.204-6.437 1.059-9.22 2.695-3.02 8.631-2.383 12.925-4.06 4.18-.775 8.15-2.273 12.24-3.296v243c27.458.63 55.76-2.129 80.75-14.7 5.915-2.543 12.321-6.601 17.013-10.143 5.31-3.457 5.59-8.78 5.237-14.118V2350h54v66c30.393 1.084 61.043-3.683 88.88-16.476 5.606-3.038 15.42-5.4 15.1-14.074.056-24.6-.01-49.198.02-73.784v-105.579c.273-4.29-1.21-11.816 3.396-13.012 7.745-3.119 16.983-4.8 22.88-11.339 3.407-3.218-1.027-6.866-3.587-8.695-22.02-16.418-44.123-32.702-66.032-49.26-5.533-4.12-11.02-8.28-16.527-12.422-1.962-1.319-4.22-3.227-6.62-2.767-7.052 5.708-12.332 13.451-19.112 19.51l-19.13 19.13c-2.393 2.103-4.502 5.077-7.51 6.3-7.054.96-14.267.132-21.35.468-6.365-.112-12.734.155-19.093-.13-9.55-1.678-18.19-6.945-27.351-9.938-27.044-10.304-53.669-22.485-80.964-31.932-.737 18.897.904 38.215-.5 57-24.491-20.675-49.16-41.178-73.694-61.804-3.07-1.896-6.738-6.684-9.94-6.697-6.68 2.708-10.054 9.674-15.841 13.976l-22.5 22.5c-3.532 3.921-7.726 7.139-11.623 10.64-3.509 4.16-7.254 7.462-13.902 6.385v-101.4c-.53-4.208-.182-9.033 5.827-8.557 29.045-.123 58.127.022 87.173-.043.102 10.385 5.63 19.858 7 30h337.2c2.57.295 6.33-.354 7.97 1.432 2.004 10.78-.067 22.205.83 33.128v333.788c.079 6.142.12 12.79-3.51 18.09-6.196 8.825-22.255 5.053-29.895 5.557-33.501-2.276-67.147-3.097-100.595-5.995v16c30.664 1.916 61.12 14.425 81.168 37.987 10.611 12.557 15.941 28.395 18.616 44.396a329 329 0 0 1 3.378 24.315c.283 4.245.543 8.527.744 12.774.364 3.688-.477 8.583 1.594 11.528 26.052-3.393 52.6-5.482 77.645-14.203a125.7 125.7 0 0 0 47.66-26.287c21.912-18.842 30.142-47.833 33.805-75.284 3.952-30.806 1.625-62.033 2.39-92.976V2074h34.8c13.841-.976 35.173 5.107 42.223-14.128 1.236-3.887-2.895-7.394-5.125-9.474l-24.373-24.373c-15.927-15.243-31.732-30.63-48.058-45.42-7.697-7.74-15.781-15.096-23.762-22.505-3.544-3.78-2.538-9.365-3.121-14.144-2.341-36.097-31.718-64.35-63.116-77.968-33.5-15.301-70.57-23.572-107.468-22.988 1.416-6.045 4.16-11.71 5.655-17.735.823-3.172 1.659-6.341 2.436-9.52.574-8.441 9.29-6.854 14.48-6.745h151.432c18.93-.291 37.853.358 56.761-.201 7.325-.404 15.177-2.21 20.374-7.87 2.353-2.474 3.95-5.799 3.388-9.269-2.24-5.253-9.833-9.383-13.557-13.682-18.478-15.967-37.583-31.187-56.619-46.466-14.104-11.34-28.264-22.587-42.358-33.919-6.535-6.823-10.698 1.958-14.468 7.037-14.665 18.679-28.777 37.78-43.21 56.631-3.759 4.719-7.38 9.525-11.046 14.314-2.703 4.238-8.997 3.457-13.34 3.425H1735c4.24-21.81 5.766-44.117 7.925-66.196.625-5.968.38-12.024 1.235-17.962.162-4.402 7.286-4.018 10.24-5.232 12.121-2.768 22.71-13.512 21.6-26.61-56.453-1.882-112.543-10.269-169-12-.246 21.611-.811 43.203-1.585 64.79-1.567 21.01-.408 42.32-3.415 63.21h-167c.221 10.374 6.21 19.745 7 30h156c-5.455 41.487-19.984 82.401-45.363 116.017-23.895 34.07-57.665 60.101-93.137 80.983-18.928-18.923-39.974-35.544-60.083-53.153-2.21-2.029-6.877-5.18-8.916-1.948-14.266 17.996-27.32 37.076-41.209 55.377-2.537 3.292-5.103 8.154-10.292 7.724v-113h112.2c9.4-.098 22.712-.684 27.907-11.53 4.2-6.997-6.782-13.923-10.582-18.445-16.978-16.39-34.855-31.875-52.485-47.534a628 628 0 0 0-11.034-9.26c-3.442-2.432-6.526-5.763-10.206-7.748-3.841-.65-6.526 3.134-8.41 6.048-7.21 10.427-15.33 20.202-22.537 30.623-3.803 5.148-7.66 10.238-11.493 15.363-3.743 3.605-6.901 12.705-12.36 11.983-1.731-3.188-.54-8.381-1-12.479v-88.63c.125-3.293-.499-9.085 3.546-9.037 30.18-1.01 60.543.184 90.749-.354h40.067c9.313.439 23.62-3.332 24.872-15.865.656-2.146-2.398-4.291-3.826-6.18-29.507-26.861-61.444-50.846-92.698-75.592-2.728-1.707-5.47-4.944-9.19-5.864-3.292-.393-5.402 4.993-7.39 6.698-17.417 21.375-33.161 44.259-50.843 65.355-5.402 3.057-11.802.321-17.74 1.448h-68.212c-16.937-.316-33.9.387-50.828-.21-43.282-12.887-84.193-34.158-127.507-46.79zm50 13c-.078 8.037 2.251 15.833 3.618 23.678 4.62 29.255 8.827 58.674 9.978 88.302.757 11.48.208 22.998-.298 34.466-.116 9.906-2.232 19.703-2.166 29.617.653 6.624 9.175 12.158 14.936 16.622 11.727 7.265 28.14 6.52 38.918-2.163 17.233-13.009 21.835-35.237 22.665-55.347.103-21.622-5.538-42.92-14.562-62.473-12.32-28.22-33.02-51.66-54.84-72.867-4.724-4.779-12.525.35-18.249.165m379-1102c4.555 16.494 1.205 34.246-6.598 49.156-13.253 23.973-36.78 46.617-53.772 64.714-15.403 14.702-30.011 30.105-43.971 46.137-10.248 12.003-21.004 23.724-28.858 37.534-22.687 44.464-33.282 94.635-31.801 144.459h510a1539 1539 0 0 0-11.29-205.27c-6.47-48.655-14.028-97.388-26.748-144.846-18.591-68.46-51.044-133.365-96.088-188.272C1665.22 908.747 1606.454 864.177 1538 846c1.001-30.602-9.69-60.794-26.551-85.952-8.788-11.659-19.128-22.21-31.348-30.277-7.109-5.47-14.065-5.366-22.025-4.771H1434c2.876 16.626 1.875 36.58 1.809 51.942-.87 9.275-1.38 18.6-2.768 27.808-.72 4.312-1.307 8.648-2.487 12.858-1.07 3.306-1.866 7.628-6.554 7.392-7.324-41.112-46.45-74.898-88.563-71H1334c7.516 40.618 12.41 83.751-1.502 123.889-6.101 6.033-15.481 8.707-22.038 14.454-14.413 8.935-26.729 20.708-35.33 35.41-15.761 28.52-21.135 61.258-32.599 91.423-9.481 25.27-27.805 45.698-39.505 69.772-10.84 22.401-17.656 46.504-26.977 69.53-3.827 10.12-7.512 20.296-11.73 30.258-1.759 4.677-3.713 9.303-6.05 13.715-5.25 7.733 5.631 17.68 8.533 24.08 9.351 14.415 18.117 29.182 27.578 43.523 7.692 12.323 15.96 26.24 30.552 31.517 12.958 5.37 29.559 7.096 42.292 7.416 24.364 2.49 45.633-20.934 58.85-37.81 10.86-14.22 22.167-28.094 34.901-40.652 4.918-4.43 10.706-9.69 15.45-13.472 8.362-6.387 23.305-4.631 35.11-7.134 17.498-2.16 38.684-5.589 52.914-13.905 6.893-4.241 14.474-10.355 19.331-16 2.922-3.209 5.445-6.71 7.893-10.27 2.992-2.804 4.025-9.536 7.327-10.744m-319 1085c19.093 47.564 44.195 95.098 46.834 147.676-1.95 12.942 15.14 22.22 25.12 23.4 21.903 4.085 36.21-13.314 40.785-32.317 3.53-19.299.363-39.848-8.915-57.12-17.241-37.474-50.81-63.797-85.355-84.155-6.684-3.593-12.142 1.217-18.469 2.516m4-373h45v-111h-45zm0 143h45v-113h-45zm0 140h45v-110h-45zm70.5-937c7.361-25.63 22.707-48.894 44.5-64.5-3.655-6.151-14.206-2.235-19.381-1.515-13.882 2.471-26.68 9.78-36.165 20.147-4.794 4.895-8.474 10.704-10.928 17.093-4.136 7.089-.84 12.764 4.616 17.351 4.784 5.293 11.144 8.376 17.358 11.424M1414 981c.032-2.48-.06-6.936-2.454-7.6-2.568-.938-5.157-1.83-7.82-2.48-14.244-4.138-28.582-9.6-43.683-8.92-13.77-.047-32.002 5.538-34.348 20.268-1.093 3.693-.633 9.884 1.892 12.112 6.65 4.681 15.185 5.356 22.991 5.594 12.034 1.367 23.089-3.383 32.066-11.06 8.865-6.536 20.24-11.045 31.356-7.914m49 1062.25c7.05 1.975 14.071-.225 21.434.75H1812c5.717-11.369 14.57-21.447 21-32.5-8.499-1.034-17.391.435-25.68-2.673-6.34-1.463-14.895-3.33-17.536-9.303-22.908-43.248-55.897-80.18-90.284-114.524-22.67 38.112-57.833 66.979-95.83 88.906-38.318 23.4-81.82 36.807-123.67 51.594 2.557 10.622-9.512 16.523-17 17.75M1590 2320h54v-135h-54zm1-1373.625c31.094 26.923 58.91 58.143 78.888 94.37 30.1 56.972 40.118 121.637 44.099 185.109 2.063 35.084 2.218 70.229 1.974 105.352-1.341 33.286-1.802 66.834-6.961 99.794h65c-1.985-93.19-7.883-187.393-32.916-277.676-10.343-42.5-28.559-82.87-53.327-118.788-24.055-35.836-53.644-67.98-89.257-92.536-2.413 1.108-4.759 2.918-7.5 4.375" style="fill:#fff;fill-rule:evenodd;stroke:none"/><path d="M364 2760.5v1.5h2272v-1.5c-68.931-409.09-136.257-818.54-204.874-1227.691-51.076-306.848-102.33-613.661-153.4-920.497-4.868-28.824-9.564-57.688-14.431-86.508-1.116-7.008-2.365-13.985-3.488-20.978-1.2-6.774-.246-15.245-9.425-16.859-109.868-36.632-219.702-73.24-329.563-109.867-95.996-32.013-192.02-63.992-288-96-41.993-13.978-83.98-28.011-125.966-41.994-5.663-2.605-10.407-1.693-15.513.621-156.173 52.06-312.354 104.114-468.521 156.173-58.68 19.531-117.334 39.097-175.992 58.657-25.668 8.506-51.298 17.139-76.962 25.643-6.176 2.075-12.369 4.11-18.537 6.195-3.02 1.124-6.483 1.813-8.8 4.255-62.934 375.423-125.132 751.075-187.889 1126.544C490.857 1998.664 428.048 2380.37 364 2760.5m703-489.5c-2.534 41.839-8.587 84.623-28.192 122.377-12.65 22.984-38.71 50.2-24.309 81.783 9.03 21.6 38.002 30.178 58.139 19.015 15.523-7.316 25.265-22.912 31.49-38.176 16.274-52.134 3.52-107.963-13.883-157.726-3.471-8.446-6.367-19.236-10.642-26.417-3.99-1.39-8.47-.598-12.603-.856m4-24c25.677.047 52.321.952 76.774-8.511 10.56-4.26 22.344-11.104 30.316-17.885 6.062-3.595 4.884-11.443 4.91-16.83V2184h174c-1.822 25.335-4.178 50.675-6 76h-1.5c-14.404-14.779-32.976-24.974-52.486-31.197-10.253-3.898-21.003-6.228-31.689-8.45-5.203-.954-10.335-2.326-15.62-2.686-3.37.046-9.35 4.138-11.705 7.833 20.947 16.81 37.682 38.21 51.638 61.037 6.687 11.819 12.927 23.98 16.313 37.239 1.532 15.502 24.592 15.615 35.049 16.724-9.208 41.443-14.459 86.124-36.17 123.768-4.978 9.071-14.525 17.525-23.344 20.923-16.041 5.846-33.53 2.998-50.037 2.464-17.465-1.217-34.939-2.437-52.449-2.655-.325 4.663-.893 9.326-1 14 22.247 4.234 45.384 13.853 59.1 32.806 13.757 19.73 12.212 49.512 12.9 70.194 15.93-1.242 31.93-1.424 47.598-5.077 24.923-4.819 48.278-15.821 68.223-31.415 30.062-24.395 44.503-62.283 56.385-97.64 11.92-38.774 18.683-78.909 24.458-118.966 4.095-29.116 7.02-58.385 9.445-87.675 1.207-14.991 2.518-30.005 3.432-45.015.408-6.61-1.647-16.371 8.236-16.569 6.984-.99 13.585-3.54 20.223-5.643v244c27.228.764 55.064-2.696 79.742-15.119 6.024-2.71 11.563-6.34 16.8-10.313 4.869-3.737 4.639-8.982 4.458-14.124V2349h56v66c29.738 1 59.665-4.07 86.88-16.476 6.434-3.254 15.429-5.85 15.08-13.477.113-24.191-.02-48.401.04-72.581v-77.985c.448-12.921-.55-25.947.303-38.833-.017-3.158 4.02-4 6.497-4.761 7.352-2.91 17.84-5.962 21.2-12.387-30.284-23.823-61.963-45.999-92.5-69.5-12.43 12.967-24.482 26.278-37.602 38.602-2.479 2.456-4.877 5.172-7.93 6.927-14.114 1.086-28.422.055-42.563.345-9.461-1.508-17.945-6.915-27.013-9.759-25.937-11.465-53.115-20.419-78.892-32.115-2.148 19.445 1.148 39.596-1 59-28.14-23.728-56.264-48.14-85-71l-30.37 30.37c-5.139 5.044-10.022 10.375-15.65 14.875-2.86 2.295-5.081 5.294-8.113 7.363-2.423 2.007-6.963 1.073-10.367 1.392v-102c.34-2.965-.56-7.216 1.432-9.17 12.35-2.12 25.334.183 37.824-.83h56.781c15.166-1.12 38.45 5.62 45.963-15.5l-3-3c43.46-13.555 87.167-28.834 126.568-52.164 19.046-10.767 36.723-23.985 53.292-38.22 17.318-14.266 30.36-32.64 42.64-51.116 23.171 22.677 45.286 46.469 64.334 72.778 9.696 12.38 17.913 25.838 25.36 39.657 3.445 9.147 11.22 10.875 19.474 12.497 8.578 2.492 17.515 2.205 26.332 2.068v1.5c-7.33 10.991-15.674 21.969-22 33.5h-380v1.5c1.475 9.041 5.512 17.488 7 26.5h302.4c12.022.005 24.03-.006 36.04.003 2.336.008 6.561.143 7.116 2.427 1.266 88.131-.23 176.478.444 264.645v66.519c-.96 15.84 1.275 34.72-.945 49.141-2.613 12.475-17.685 12.593-27.401 11.52-17.634-.668-35.224-1.635-52.825-2.765-8.816-.313-17.61-.768-26.393-1.536-8.52-.797-18.735-.267-26.436-1.954v14c30.664 1.916 61.12 14.425 81.168 37.987 10.611 12.557 15.941 28.395 18.616 44.396a329 329 0 0 1 3.378 24.315c.283 4.246.543 8.527.744 12.775.233 3.646-.354 8.993 1.594 11.527 24.555-3.8 50.46-5.309 74.276-13.767 19.95-6.024 39.015-15.921 53.593-31.103 26.65-28.682 30.807-70.332 31.629-107.492.006-126.874-.001-253.765.002-380.638h43.8c6.993-.25 14.336.75 21.076-1.655 7.451-2.433 10.161-7.912 13.124-13.845-34.067-35.384-70.66-68.01-106-102 3.933-17.975-6.1-40.054-15.87-52.697-16.756-22.244-42.383-35.434-67.996-44.54-14.146-4.684-28.6-8.568-43.318-10.941-7.24-.904-14.446-2.036-21.698-2.73-3.854-.345-7.682-.603-11.538-.587-3.456-.186-7.911.452-10.58-1.505 4.129-7.353 6-17.71 8.392-25.008 1.174-4.03 1.139-9.46 6.831-9.394 71.615-.423 143.226.226 214.83-.192 7.864-.277 16.464-1.883 22.085-7.978 1.658-2.344 4.869-6.317 2.802-8.868-36.436-34.57-77.988-63.775-116.44-96.06-15.473 21.156-31.982 41.57-47.66 62.573-3.879 5.313-8.017 10.414-11.978 15.652-1.475 2.068-3.064 4.05-4.961 5.713-9.161 2.494-19.737-.016-29.212 1.062H1734c3.316-22.06 6.145-44.231 7.793-66.484.535-5.952.612-11.963 1.106-17.91-.14-5.54 4.966-6.165 8.887-6.558 10.336-2.29 23.53-10.709 23.214-25.048-55.777-2.078-111.217-9.944-167-12-.246 21.611-.811 43.203-1.585 64.79-1.567 21.01-.408 42.32-3.415 63.21h-167c1.076 9.593 6.098 18.395 7 28h157c-5.442 28.153-11.879 56.61-24.743 82.456-19.169 38.382-47.926 71.56-83.126 96.088-8.306 6.106-16.96 11.694-25.703 17.135-8.574 6.643-13.482-2.82-19.228-7.515-9.435-7.805-18-16.615-27.552-24.273-4.511-4.026-9.259-7.771-13.831-11.715-4.235-3.252-8.649-8.106-13.145-10.176-8.726 11.387-17.024 23.207-25.672 34.666-4.231 5.818-8.758 11.458-12.933 17.316-4.036 5.201-7.659 13.876-16.067 13.018v-115h76.8c12.818-.022 25.631.027 38.445-.015 10.522.028 22.37-2.404 26.755-15.485-26.748-26.596-54.57-52.174-84.067-75.712-2.993-2.972-5.81 1.026-7.62 3.482-7.788 11.087-16.292 21.63-24.06 32.726-3.64 4.846-7.215 9.713-10.893 14.521-3.913 3.908-6.189 11.1-11.312 11.983-4.008.598-4.01-3.02-4.026-5.92-.062-23.28.01-46.537-.022-69.808v-26.27c.465-3.06-.817-8.256 1.883-9.89 28.271-1.745 56.898.317 85.242-.612h42.463c11.435.488 25.4-.512 30.412-15.5-33.623-30.74-69.717-59.006-106-86.5-17.987 22.018-34.655 45.432-52.455 67.667-1.633 2.097-3.18 4.42-5.446 5.875-23.998 1.305-48.174-.237-72.201.458h-54.452c-12.911.771-24.869-4.398-36.63-9.258-33.345-12.316-66.478-25.556-99.816-37.742zm63.5 12c-3.515 1.56-9.02 2.089-13.5 3 4.145 30.708 11.353 61.192 12.435 92.337 2.047 24.432 2.176 49.224-.776 73.583-4.416 16.904 19.286 30.382 32.106 29.629 12.984-.269 23.886-8.809 30.47-19.471 10.223-16.365 12.623-36.036 10.663-54.88-1.859-19.11-8.621-37.515-16.705-54.778-12.516-25.704-31.855-47.088-52.112-66.839zM1500 1158c4.501 16.476 1.626 34.197-5.696 49.324-13.341 24.827-34.006 44.815-53.174 65.046-15.17 14.924-30.304 29.877-44.065 46.096-10.57 11.84-20.932 23.923-29.309 37.451-23.002 44.15-34.031 94.356-32.756 144.083h508c.779-68.357-3.101-136.657-11.435-204.483-6.655-48.55-14.045-97.25-26.86-144.621-18.75-68.258-51.122-132.975-96.192-187.698-44.56-53.71-103.29-98.019-171.513-116.198 1.05-30.454-9.648-60.415-26.234-85.54-8.702-11.548-18.8-22.043-30.842-30.132-6.666-5.592-13.315-6.104-21.055-5.328-7.908.587-16.046-.754-23.869.5 3.185 7.988.944 18.931 2.1 26.546 1.07 12.756-.865 27.824-1.552 39.505a170 170 0 0 1-2.709 20.467c-1.278 5.465-1.787 13.806-9.839 12.982-7.312-40.755-46.07-74.782-88-71 8.546 40.706 12.312 84.698-1.988 124.785-14.073 10.057-30.778 17.096-42.596 30.327-23.039 24.265-30.026 58.071-39.594 88.909-4.301 14.146-9.45 28.082-16.486 41.121-6.356 11.263-14.433 21.405-21.03 32.5-12.778 22.188-21.997 46.042-30.135 70.257-8.136 20.427-14.46 41.645-24.29 61.376-3.36 7.099 6.44 14.801 9.56 22.341 9.526 14.408 18.147 29.349 27.757 43.691 7.453 12.582 16.62 25.897 31.24 30.857 12.902 5.129 29.393 6.617 41.99 6.827 12.42.281 24.183-5.67 33.049-13.966 16.25-13.153 27.413-31.231 41.002-46.837 9.927-11.538 22.548-24.535 34.037-32.58 5.045-3.67 11.63-3.008 17.62-3.899 21.216-2.111 42.792-4.404 62.66-12.696 9.018-4.09 16.8-10.38 23.662-17.423 3.36-3.735 6.45-7.654 9.215-11.845 3.07-3.763 4.45-10.859 9.327-10.745m-319 1087.188c13.589 28.519 26.371 57.941 35.834 88.2 3.674 11.696 6.457 23.614 8.464 35.707.983 5.458 1.656 10.952 2.167 16.469.99 4.954-.222 10.517 1.548 15.261 11.418 11.332 31.85 21.32 48.714 5.86 20.219-19.71 18.14-52.91 6.847-76.529-11.26-24.742-28.972-46.028-50.4-62.603-7.968-6.292-16.2-12.277-24.798-17.64-4.101-2.616-7.997-5.58-12.414-7.655-5.622-2.445-10.1 1.375-15.351 2.603l-.611.139zm2-373.188h47v-113h-47zm0 143h47v-115h-47zm0 140h47v-112h-47zm73-937c5.899-26.765 23.823-49.13 45-65.5-1.557-1.788-2.813-3.815-4.5-5.5-10.166 2.643-21.755 1.885-31.471 7.054-14.555 6.41-27.055 17.931-33.294 32.702-.9 3.238-4.302 8.272-2.431 10.753 5.476 9.485 16.628 18.746 26.696 20.491m159-236c-.315-3.01.724-8.515-2.43-9.583-3.428-1.309-6.977-2.27-10.503-3.257-14.47-4.693-29.164-9.238-44.584-8.15-12.344.407-30.98 5.274-33.1 21.455-.266 4.086-.887 9.961 1.943 12.654 6.58 4.983 15.391 5.552 23.276 5.855 6.256.141 12.712.308 18.662-1.964 8.146-2.663 14.251-9.06 21.672-13.018 7.42-5.115 16.524-5.73 25.064-3.992m174-35.625c30.872 27.127 59.183 57.864 79.22 94.11 30.579 56.879 40.354 121.753 44.734 185.232 3.282 68.653 3.768 137.986-4.954 206.283h67c-1.792-95.492-8.046-192.08-34.12-284.483-11.835-43.23-29.831-85.053-57.076-120.917-12.906-17.945-26.8-35.282-42.537-50.833-7.843-7.568-17.32-16.209-25.162-22.408-4.265-3.405-8.78-6.448-13.187-9.638-5.048-4.115-9.826-.835-13.918 2.654M1589 2321h56v-137h-56z" style="fill:#000;fill-rule:evenodd;stroke:none"/></svg>