<svg xmlns="http://www.w3.org/2000/svg" width="3000" height="3000"><path d="M1078 2198c11.69-.097 23.037-7.302 28.958-17.115 3.813-7.684 16.58-8.325 25.197-12.55C1199.833 2145.02 1266.39 2117.93 1333 2092c.641 33.486-.782 67.099.422 100.532 1.211 3.803 8.511 1.75 11.14 2.468 27.769.182 55.904-.942 82.679-8.986 8.34-3.142 16.667-6.404 24.611-10.449 6.015-2.713 13.23-5.875 12.148-14.915V1758h45c12.987-.25 30.44 2.25 40.5-6 1.426 139.804-.26 280.101.5 420 32.131.216 65.948 2.302 96.136-11.421 6.78-2.716 13.171-6.29 19.329-10.17 4.955-2.79 9.782-5.982 13.71-10.121 5.848-5.987 3.076-18.104 3.825-26.988V2085h99v53c20.907.308 42.018.881 62.577-3.689 14.45-2.98 28.68-6.908 42.566-11.863 9.461-3.83 21.78-7.06 29.172-13.111 3.03-2.643.87-9.61 1.685-12.916V1819c10.768-2.868 21.415-7.08 30.475-13.696 3.423-2.39 12.034-7.704 7.643-11.802-4.057-3.884-8.934-6.829-13.288-10.35-12.125-9.124-24.241-18.24-36.403-27.311-18.847-14.047-37.544-28.336-56.53-42.182-4.807-3.345-9.233-7.167-14.08-10.45-3.96-3.56-7.64.961-10.414 4.098-8.666 10.08-17.755 19.813-26.772 29.563-7.527 7.562-14.063 16.051-21.577 23.62-2.978 3.887-5.798 7.49-11.94 6.51h-59.286c-13.516.023-27.79-8.653-39.508-11.73-38.991-13.368-77.194-29.448-116.32-42.27-.57 7.28.736 14.795-.5 22-35.312-28.998-71.89-56.585-108.106-84.459-1.652-1.173-3.816-3.138-5.528-3.042-3.876-.124-6.407 6.468-8.935 8.318-10.135 12.682-20.253 25.356-30.42 38.01-9.805 10.234-16.91 22.994-27.153 32.776-5.925 2.876-15.194.384-21.555 1.397H1022c.174 10.369 5.928 19.77 7 30h83v304c-15.426-.127-30.818.76-46.22 1.212-7.822.225-15.63.467-23.44.686-7.233.275-15.835-.37-22.34 1.102.29 5.186 4.22 11.318 6.424 16.904 16.457 38.931 35.754 77.005 51.576 116.096m-47 377h899.4c12.755-.713 44.085 5.367 44.6-19-21.934-16.052-42.539-35.301-64.521-51.617-10.828-8.46-21.65-16.922-32.477-25.379-5.337-4.338-10.95-8.358-16.196-12.807-5.163-4.005-10.857-10.327-16.806-10.197-12.758 19.867-29.697 37.64-43.315 57.073-5.559 7.27-11.25 14.45-16.795 21.727-2.421 2.832-4.83 6.663-7.551 8.78-2.882 2.384-8.469.87-12.487 1.42H1574v-123h279.6c8.45.03 17.408-.075 24.982-4.365 6.213-3.027 11.977-11.88 4.2-18.322-21.302-18.954-43.562-36.773-66.211-54.066-8.34-6.716-17.034-12.995-25.47-19.566-7.524-5.257-14.5-11.562-22.265-16.406-3.89-2.245-7.2 3.432-9.102 6.084-18.846 23.39-37.2 47.174-56.06 70.547-4.57 8.132-14.443 6.006-22.218 6.094H1574v-116h309c9.62-.444 21.456 1.117 29.938-2.021 7.702-2.114 17.062-11.696 9.998-18.162-23.801-20.104-48.677-38.849-73.23-57.988-9.183-7.253-18.587-14.194-27.913-21.246-4.116-3.153-8.422-5.998-12.654-8.976-3.532-3.027-9.096-7.61-12.42-2.995-11.81 13.546-22.405 28.16-34.065 41.841-8.62 10.384-16.906 21.032-25.537 31.398-2.784 3.948-5.988 8.773-11.816 8.135-40.59.04-81.181-.007-121.772.014H1095c1.749 10.203 5.902 19.872 8 30h320v116h-288c.221 10.374 6.21 19.745 7 30h281v123h-399c.174 10.369 5.928 19.77 7 30m118-1025h27c2.016-13.465 10.361-26.158 22.957-32.024 22.593-12.705 49.438-10.973 74.222-10.976h121.702c19.361-.749 42.229 1.036 59.924-.862 9.116-.986 18.102-3.187 26.34-7.308 9.214-3.57 13.027-10.472 18.855-16.83 4.765 4.62 7.846 11.075 14.171 14.112 24.144 14.653 53.713 10.538 80.385 10.888h130.723c20.767-.466 41.84-1.168 61.95 5.094 8.977 2.81 17.446 7.214 24.443 13.52 6.766 6.353 10.886 15.283 12.328 24.386h27v-87.6c.344-6.264 1.2-12.812-6.086-16.692-36.822-26.367-83.976-29.326-127.383-28.708h-92.16c-15.238-.36-30.51.486-45.73-.376-12.197-.575-31.36-2.042-30.641-20.624 32.7-3.431 67.397-5.028 96.949-21.316 6.225-3.885 12.898-10.069 15.674-16.329 6.464-12.683.555-23.695-3.863-35.452-4.292-11.007-8.652-21.973-12.927-32.978-5.938-15.508-12-30.981-17.833-46.516 45.153-31.23 72.012-84.605 75.306-138.917 4.947-56.918-18.601-113.15-56.437-154.881-31.774-38.037-72.746-66.872-114.869-92.111 28.036-16.311 35.534-58.288 15.09-83.812-17.588-25.14-57.596-30.71-81.357-10.994-24.153 17.996-30.07 57.518-10.803 81.463 4.347 4.794 9.778 10.553 15.07 13.343-32.889 20.576-66.564 41.51-93.733 69.733-43.906 41.205-77.969 97.978-78.107 159.808-1.245 60.166 25.737 121.649 75.84 156.334-7.256 18.529-14.153 37.315-21.48 55.829-4.327 13.647-12.553 28.797-15.338 41.653-3.892 27.258 24.851 39.864 44.214 44.532 22.897 7.13 46.944 8.4 70.604 10.611.345 21.746-24.786 19.841-38.95 20.984-31.97.045-63.932-.008-95.902.016-45.547.229-93.394-3.43-136.328 15.267-9.363 3.895-18.55 8.303-26.489 14.733-6.448 4.253-3.658 15.58-4.331 23.576zm91 285h93v-77h-70.8c-6.871.623-16.737-.956-22.2 1zm0 108h93v-78h-70.8c-6.871.623-16.737-.956-22.2 1zm0 113c30.974-1.764 61.966-4.313 93-5v-78h-70.8c-6.871.623-16.737-.956-22.2 1zm154-710.5c4.176 5.48 11.29 7.59 17.682 9.336 21.049 4.123 42.546 5.696 63.93 6.506 22.696.578 45.49.825 68.157-.818 11.027-1.262 22.112-1.761 33.076-3.478 10.052-2.118 23.666-3.668 29.155-11.546-4.146-5.618-11.223-7.65-17.578-9.518-23.226-6.858-47.675-6.705-71.617-7.546-24.48-.352-49.06-.016-73.47 1.813-9.094.83-18.156 2.004-26.973 4.41-8.026 2.322-17.577 4.222-22.362 10.841m9-320.5h81v179h32v-179h81v-31h-81v-81h-32v81h-81zm1 277.625c30.874-6.59 63.157-9.285 94.902-8.625 16.784.475 33.694.158 50.433 1.648 8.01.714 16.065 1.228 23.97 2.736 7.674.21 15.154 3.965 22.695 4.116-6.074-10.481-8.49-22.992-14.5-33.5-26.95 5.156-54.289 7.583-81.71 7.875-27.297-.406-54.484-2.632-81.29-7.875-5.89 10.414-8.647 23.398-14.5 33.625M1683 2055h86.4c3.54-.495 11.54 1.304 12.146-3.007 1.295-31.988-.236-64.158.454-96.185V1797h-99z" style="fill:#fff;fill-rule:evenodd;stroke:none"/><path d="M364 2760.5v1.5h2272v-1.5c-68.931-409.09-136.257-818.54-204.874-1227.691-51.076-306.848-102.33-613.661-153.4-920.497-4.868-28.824-9.564-57.688-14.431-86.508-1.116-7.008-2.365-13.985-3.488-20.978-1.2-6.774-.246-15.245-9.425-16.859-109.868-36.632-219.702-73.24-329.563-109.867-95.996-32.013-192.02-63.992-288-96-41.993-13.978-83.98-28.011-125.966-41.994-5.663-2.605-10.407-1.693-15.513.621-156.173 52.06-312.354 104.114-468.521 156.173-58.68 19.531-117.334 39.097-175.992 58.657-25.668 8.506-51.298 17.139-76.962 25.643-6.176 2.075-12.369 4.11-18.537 6.195-3.02 1.124-6.483 1.813-8.8 4.255-62.934 375.423-125.132 751.075-187.889 1126.544C490.857 1998.664 428.048 2380.37 364 2760.5m657-694.25c18.142 43.92 40.324 86.698 58 130.75 11.47-.972 22.224-8.33 27.654-18.326 2.283-4.295 7.329-5.13 11.911-7.004 72.704-24.755 144.007-53.586 215.435-81.67.73 33.922-.89 67.985.481 101.85 1.763 3.532 8.804 1.354 11.633 2.15 27.688-.343 56.107-1.02 82.639-9.916 8.376-3.16 16.68-6.53 24.562-10.769 2.783-1.452 6.15-3.286 7.974-5.577 3.357-4.424.635-12.846 1.711-18.886V1757h46.2c13.023.287 28.56 2.04 41.8-7v421c31.844.25 65.416 2.077 95.199-11.876 6.816-2.66 13.02-6.545 19.263-10.281 4.737-2.737 9.339-5.892 13.062-9.931 5.546-6.169 2.565-18.307 3.476-27.208V2084h101v53c20.434.32 41.1.857 61.169-3.826 14.112-2.892 27.96-6.784 41.531-11.572 9.405-3.662 21.313-7.052 28.889-12.594 3.272-2.352 2.148-8.255 2.411-12.389V1818c14.374-4.293 29.944-10.18 40-22-40.468-32.458-83.79-61.791-124.5-94-17.32 18.3-34.043 37.147-50.889 55.862-3.687 2.854-6.216 7.682-9.9 9.675-20.05 1.32-40.29-.24-60.37.463-14.73 1.073-28.309-4.652-41.717-10.137-39.217-14.878-79.21-28.349-118.124-43.863-1.269 7.537.102 15.402-.5 23h-1.5c-37.219-30.502-75.694-60.033-114-89-21.748 25.398-41.612 52.44-63.203 77.977-4.454 4.583-13.673 2.467-20.498 3.023H1023c.898 9.604 5.945 18.415 7 28h83v306c-15.617-.123-31.207.781-46.804 1.23-7.819.221-15.624.47-23.442.683-7.043.305-15.419-.436-21.754 1.087zm11 507.75h895.8c12.484-.21 43.4 4.982 46.2-17-21.651-15.83-42.017-34.807-63.68-50.953-10.66-8.44-21.466-16.707-32.138-25.117-5.274-4.076-10.437-8.254-15.711-12.324-5.104-3.472-11.195-10.705-16.471-11.606-12.853 20.028-29.95 37.894-43.646 57.508-5.602 7.222-11.214 14.448-16.778 21.697-2.338 2.934-4.935 6.6-7.654 8.725-7.915 2.33-17.064.166-25.267 1.07H1573v-125h250.8c10.617-.005 21.235.006 31.836-.003 8.217.138 16.84-.77 23.826-5.498 2.799-1.977 5.183-4.827 5.849-8.263 1.157-3.075-3.065-6.225-4.827-8.132-36.632-31.679-75.191-61.153-113.984-90.104-11.154 14.151-22.57 28.159-33.598 42.402-8.686 10.412-16.772 21.288-25.296 31.816-3.28 4-6.134 9.33-11.38 9.665-41.076.335-82.158-.061-123.226.117v-118h308.4c9.334-.435 20.634.914 28.994-1.435 5.729-2.105 14.82-6.545 13.529-14.557-19.44-17.859-41.426-32.935-61.715-49.824-20.9-15.22-40.596-32.458-62.52-46.184-17.776 21.04-34.512 43.008-52.17 64.161-3.863 4.611-7.452 9.432-11.285 14.06-3.98 6.563-9.964 6.403-16.53 5.779-207.835.76-415.946-.926-623.703.5 3.29 8.883 5.243 18.418 8 27.5h320v118h-288c1.076 9.593 6.098 18.395 7 28h281v125h-399c.868 9.619 5.964 18.392 7 28m118-1025h25c2.016-13.465 10.361-26.158 22.957-32.024 22.774-12.804 49.844-10.974 74.822-10.976h122.3c19.435-.728 42.44 1.083 60.18-1.064 17.089-1.816 36.205-9.231 43.741-25.936h2c8.252 17.686 25.828 23.1 43.619 25.944 25.66 2.539 51.6-.075 77.321 1.056h117.532c18.122-.079 36.874.159 54.036 6.973 16.327 5.104 29.211 18.876 31.492 36.027h25v-86.4c.171-3.559-.03-7.097-.46-10.602-6.25-8.102-18.326-12.675-26.274-16.886-15.672-7.436-32.53-11.612-49.509-14.62-18.19-2.055-36.538-2.49-54.833-2.492h-93.954c-15.63-.376-31.305.516-46.917-.42-7.084-.68-15.805-1.42-21.678-4.569-2.91-1.614-5.567-4.676-6.847-7.401-1.65-2.942-1.205-7.746-2.528-10.11 10.418-1.938 21.365-1.732 31.873-3.4 18.401-2.47 36.986-5.787 54.27-12.746 12.021-4.493 24.442-12.481 28.784-25.319 3.905-11.614-1.555-20.427-5.167-30.132-11.104-26.913-20.639-54.54-31.76-81.403 71.71-47.673 95.208-149.77 61.579-226.993C1655.07 945.495 1592.832 894.931 1528 857.5c15.397-7.672 26.162-23.941 27.861-40.876.38-9.131.822-18.67-2.727-27.293-2.723-7.825-7.476-14.652-13.095-20.643-10.343-10.593-25.05-16.858-39.893-16.677-14.97-.23-29.9 6.043-40.276 16.782-22.003 20.354-20.484 62.624.5 80.077 3.209 3.764 7.323 6.406 11.63 8.63-33.117 20.28-66.895 41.125-94.233 69.233-44.112 41.205-79.015 97.556-79.558 159.673-.856 59.722 25.568 122.706 76.791 156.094-12.315 30.517-23.68 61.565-35.872 92.156-3.444 7.958-2.639 17.458 1.36 24.971 6.558 11.109 18.595 16.982 30.144 21.223 12.301 4.831 25.37 7.328 38.353 9.482 14.433 3.223 29.573 2.612 44.015 5.168-1.674 3.225-.582 7.778-3.235 11.435-4.57 7.748-12.609 8.8-20.643 10.032-65.823 4.518-132.063-2.749-197.841 2.956-27.7 3.643-60.996 14.196-80.648 31.313-1.806 32.358.33 65.291-.633 97.764m89 287h95v-79h-72c-7.098.699-17.363-1.032-23 1zm0 108h95v-80h-72c-7.098.699-17.363-1.032-23 1zm0 113c31.672-1.289 63.274-4.62 95-5v-80h-72c-7.098.699-17.363-1.032-23 1zm154.493-711.263c1.966 6.256 11.658 8.185 16.23 9.871 6.962 1.509 13.986 2.934 21.084 3.536 31.013 3.39 62.236 4.292 93.42 3.238 22.413-.97 49.086-2.538 69.104-7.678 3.746-1.28 8.232-2.89 11.017-5.3 6.873-7.762-8.135-12.349-12.805-13.797-27.324-8.463-56.26-7.481-84.447-8.463-28.1.29-56.555.07-84.336 4.806-9.25 2.388-21.737 4.362-28.205 10.902-.675.998-1.148 1.778-1.062 2.885M1402 1026h81v179h34v-179h81v-33h-81v-81h-34v81h-81zm0 278.625c31.764-7.698 65.101-10.074 97.882-9.625 32.935-.745 66.148 2.25 98.118 9.5-5.605-11.273-9.072-23.607-14.708-34.864-1.067-1.905-4.715-.832-6.464-.966-37.247 6.369-75.15 8.632-112.83 5.439-7.48-.755-14.993-1.637-22.454-2.53-5.776-.958-11.546-2.009-17.349-2.788-3.807-.897-7.69-1.069-9.036 3.89-4.456 10.385-8.617 21.862-13.159 31.944M1682 2056h88.2c3.611-.494 11.73 1.341 12.365-3.045 1.24-32.583-.225-65.353.435-97.978V1796h-101z" style="fill:#000;fill-rule:evenodd;stroke:none"/></svg>