<svg xmlns="http://www.w3.org/2000/svg" width="3000" height="3000"><path d="M1007 2627h944.4c13.074-.591 28.646.944 40.534-1.06 10.107-1.188 24.708-13.82 14.251-21.44-31.38-26.913-64.147-52.163-97.04-77.165-12.215-9.442-24.663-18.55-36.68-28.237-5.581-4.013-10.915-8.304-16.346-12.492-2.51-1.774-5.376-4.441-8.102-4.063-8.74 8.443-15.288 19.379-23.332 28.53-13.29 16.91-26.654 33.75-39.961 50.647-4.844 6.47-10.151 12.548-15 19-4.206 4.88-9.172 13.705-14.944 14.182-56.932.28-113.86-.05-170.78.098v-407h277.8c11.21-.057 22.427.07 33.634-.038 9.148-.409 19.918-2.65 25.6-10.664 6.763-9.342-2.907-14.223-9.389-19.4-24.213-19.987-49.054-39.16-73.64-58.666-18.473-14.478-37.344-28.45-55.982-42.704-3.52-1.679-7.296-7.208-10.9-5.553-21.72 24.205-40.464 51.38-61.515 76.241-5.055 6.517-10.102 13.042-15.334 19.415-3.487 5.23-7.103 10.595-15.221 9.369H1584v-359h342.6c10.139.023 21.884-.46 29.782-7.93 2.928-3.13 6.899-7.977 4.563-11.957-27.008-23.016-55.43-44.418-83.097-66.632-21.754-15.811-42.498-32.942-63.824-49.272-3.496-2.342-9.084-9.062-12.708-5.507-23.914 28.762-46.284 58.975-69.758 88.123-3.043 3.688-5.96 7.47-8.873 11.248-2.414 3.164-5.265 6.942-8.168 9.158-16.2 2.13-33.107-.336-49.464.769H1041c1.928 9.658 5.223 19.082 7.89 28.552 1.322 5.418 11.343 2.562 14.897 3.448H1409v359h-330v1.5c2.202 10.254 6.335 20.148 8 30.5h304.8c6.136-.793 13.806 1.126 18.7-1 1.426 136.539-.26 273.402.5 410h-386.43c-8.12.942-17.977-1.276-24.57 1 .502 9.994 5.971 19.084 7 29m560.5-1697c-.197-25.427 4.017-51.53 3.443-77.136-.934-28.222-31.281-37.956-51.943-40.864-.103-19.588.103-40.195 0-59.5 14.127-1.383 28.774.216 43-.5v-12.6c.464-4.254-.753-9.591 1-12.9-13.59-1.989-27.646.97-41.252-.94-3.462-.378-2.364-6.704-2.748-8.871V686h-38v21c-.29 5.141.435 11.287-.432 15.948-.071 3.899-7.213 2.687-9.479 3.052-11.308.642-22.865-.809-34.089.5 1.727 3.171.542 8.33 1 12.407V752c14.234.687 28.889-.854 43 .5-.112 19.34.112 39.907 0 59.5-14.953 2.476-30.892 6.554-42.058 17.631-12.981 13.194-10.246 29.603-9.338 46.245.511 17.955 3.112 36.254 2.896 54.124-29.844-30.794-72.33-48.951-115.121-49.472-42.42-3.177-87.377 13.538-111.834 49.631-22.082 30.303-29.67 75.841-26.858 109.342 2.003 38.667 16.653 75.665 35.823 108.799 21.071 36.393 47.412 69.525 75.864 100.366 2.189 2.681 6.249 5.52 6.34 9.522-4.784 65.799-8.664 131.718-13.734 197.501.049 8.348-1.79 18.431-.13 25.993 3.527 12.792 16.701 22.433 27.086 27.297 18.566 9.903 39.398 13.932 59.79 17.88 20.947 3.69 42.113 6.4 63.291 8.223 48.995 4.358 98.347 3.121 147.27-1.165 34.217-4.018 68.976-8.567 101.333-20.964 11.632-4.64 22.755-11.101 30.615-21.055 8.011-10.196 5.508-21.394 4.834-33.18-2.8-41.076-5.462-82.163-8.43-123.223-1.505-20.294-2.779-40.593-4.22-60.88-.1-5.385-.943-10.743-1.077-16.106-.069-3.801 2.987-6.274 5.455-8.922 6.83-7.922 14.38-15.197 20.774-23.506 33.925-40.193 65.15-84.306 81.817-134.74 9.391-27.598 12.207-56.848 9.168-85.747-2.198-27.21-10.828-54.245-26.854-76.487-24.787-35.482-69.524-52.004-111.714-48.55-42.564.724-84.804 18.786-114.488 49.443m-91.5 286c-.51-21.07.872-42.213-1.086-63.207-6.084-65.417-29.458-131.25-73.691-180.754-21.726-24.002-51.957-44.174-85.54-44.039-17.038-.705-34.62 2.94-48.582 13.295-12.915 9.534-22.777 22.933-28.638 37.801-8.49 20.937-10.755 48.252-8.747 68.663 4.646 32.745 18.428 63.674 35.114 91.925 15.687 27.642 35.122 53.041 56.148 76.788 4.777 4.49 8.17 10.536 13.783 14.15 1.594 1.889 5.538-.122 8.08-.096 43.84-8.733 88.44-14.144 133.159-14.526m-25-28c1.465-60.899-13.277-123.155-46.427-174.669-15.442-24.088-37.579-47.284-67.247-52.162-15.462-2.733-32.398-1.253-46.068 7.03-12.52 7.347-21.175 22.71-25.144 34.922-11.093 33.833-5.708 70.664 8.792 102.522 13.837 29.851 32.596 57.07 53.504 82.364 3.302 3.966 6.433 8.155 10.319 11.527 37.339-3.916 74.537-11.976 112.271-11.534m-116 232c53.365-15.19 109.427-18.215 164.606-18 55.463-.236 111.794 2.64 165.394 18-.329-8.349-1.163-16.695-2-25-106.138-27.969-219.863-28.031-326 0-.523 8.357-1.581 16.67-2 25m7-83.375c51.195-11.592 104.793-16.748 157.447-16.625 53.082-.3 106.874 5.169 158.553 16.5-2.571-6.8-.38-14.745-1.857-21.78.264-6.848-10.814-6.83-15.523-8.499-43.707-9.113-88.273-14.888-132.997-14.221-32.235-.396-64.517.634-96.477 5.17-15.465 2.15-30.898 4.521-46.133 7.927-4.152.766-8.256 1.634-12.319 2.758-2.624.73-6.63 1.13-8.237 2.879-2.412 8.388.432 18.69-2.457 25.891M1499 1039h2c4.976-16.427 12.872-31.914 20.186-47.375 3.408-6.6 8.496-12.867 7.814-20.683-.009-31.93.01-63.84-.006-95.758.272-10.654-2.883-22.099-11.541-28.958-13.84-9.368-40.106-6.966-44.866 15.975-3.066 14.871-.637 30.326-1.587 45.398.729 23.362-.889 46.873.48 70.19 9.742 17.947 18.94 36.542 25.805 55.911.719 1.728 1.266 3.495 1.715 5.3m-1-24h4c1.682-11.958 5.995-23.546 9.607-35.007 4.821-11.029 3.096-23.387 3.393-35.099-.953-20.212 1.264-44.193-.934-62.658-.569-6.294-2.256-13.904-11.21-14.664-5.166-.94-12.833.53-15.361 7.052-3.426 10.925-2.395 22.561-2.495 33.823v53.571c-.92 8.68 2.679 16.504 5.556 24.404 2.119 7.83 4.92 15.5 6.646 23.425.402 1.699.706 3.425.798 5.153m26 201c37.653.075 75.178 4.342 112.237 10.723 6.77.966 13.483 2.256 20.17 3.668 3.241.448 7.229 1.89 9.4-.093 31.927-32.595 59.697-69.905 80.386-110.69 10.934-21.524 19.957-44.424 23.6-68.417 3.146-24.496.23-49.827-8.32-72.945-7.03-17.265-18.65-32.807-35.405-41.664-30.89-15.8-69.553-9.576-97.242 9.524-39.85 27.895-67.066 70.899-83.468 116.027-9.032 23.706-14.786 48.562-18.396 73.618-4.07 26.547-2.842 53.474-2.962 80.249m25-28c28.91-.085 57.604 4.427 86.215 8.102 5.177.753 10.344 1.472 15.517 2.224 4.53.598 10.302 2.841 13.787-1.765 22.37-26.666 43.41-54.854 58.416-86.427 16.254-32.924 22.707-71.793 10.82-107.336-4.674-13.849-12.92-27.275-25.671-35.05-23.729-13.008-54.328-9.099-75.818 6.432-30.267 21.378-51.633 60.947-63.133 91.87-15.042 38.803-20.882 80.577-20.133 121.95" style="fill:#fff;fill-rule:evenodd;stroke:none"/><path d="M285 2848.5v1.5h2430v-1.5c-73.642-437.603-145.813-875.53-219.109-1313.203-54.671-328.176-109.408-656.315-164.077-984.478-5.21-30.83-10.248-61.686-15.432-92.51-1.251-7.505-2.488-15.003-3.754-22.495-.919-4.17-1.145-8.46-2.247-12.58-1.025-4.117-5.42-5.18-9.156-6.315-117.305-39.137-234.617-78.213-351.926-117.314-102.68-34.233-205.353-68.476-308.033-102.676-44.992-15.018-89.985-29.992-134.966-44.995-6.062-2.742-11.046-.84-16.431 1.266-83.52 27.892-167.058 55.657-250.572 83.54-146.168 48.728-292.31 97.432-438.478 146.16-27.522 9.152-55.005 18.352-82.52 27.495-6.482 2.208-13.017 4.306-19.485 6.517-2.679 1.235-7.197 1.778-8.4 4.228-68.611 401.467-133.703 803.887-201.523 1205.563C420.651 2033.674 353.5 2441.873 285 2848.5m715-252c2.428 9.543 6.352 20.6 8 29.5h951c16.686-1.388 41.609 5.75 51-16.5-51.873-44.384-107.025-84.794-161-126.5-16.164 18.72-30.442 39.271-46.398 58.22-11.397 14.65-22.973 29.153-34.38 43.786-4.264 5.71-7.898 12.408-17.198 10.994H1583v-409h286.2c11.426-.346 25.043.818 35.361-1.416 4.73-.988 9.989-3.504 13.244-6.549 2.698-2.843 6.161-8.036 3.401-10.929-47.659-41.299-98.867-78.529-148.706-117.106-23.938 28.883-46.938 58.634-70.278 88.006-6.227 6.593-11.802 18.43-20.555 17.99-32.896.012-65.778-.003-98.667.004v-361h311.4c13.038-.131 26.05.162 39.074-.093 9.715-.428 20.908-3.84 25.886-12.967 2.705-4.385-2.035-7.34-5.171-9.978-49.888-39.639-99.765-79.83-150.689-117.962-19.318 23.127-37.127 47.521-56.14 70.895-7.992 10.594-16.559 20.72-24.523 31.318-1.978 2.33-3.735 4.89-5.968 6.984-2.467 2.206-7.08 1.736-9.617 1.803-221.696.76-443.639-.926-665.252.5 4.26 8.624 4.657 21.215 9.413 28.655 8.209 1.782 17.014.19 25.356.845H1410v361c-109.929.76-220.151-.926-330 .5 1.946 3.681 2.194 9.642 4.194 14.23 1.172 4.94 3.463 10.603 3.806 15.27h322v409h-410zM1566 932c.405-26.173 4.135-52.234 3.93-78.422-1.183-28.043-31.313-37.666-51.93-40.578v-60h35.4c2.66-.2 6.143.294 8.363-.968 2.59-7.158.296-17.524 1.237-25.032-13.9-.61-27.944.747-41.797-.412-3.62.224-2.98-6.178-3.203-8.291V687h-36v21.6c-.137 5.3.277 10.685-.422 15.932-1.036 3.526-7.638 1.898-10.087 2.468H1437v13.2c.095 3.047-.217 6.683.372 9.433.156 4.86 9.21 2.78 11.917 3.367H1482v60c-14.953 2.476-30.892 6.554-42.058 17.631-13.11 12.648-10.192 31.236-9.24 46.023.851 18.463 2.621 36.881 3.298 55.346h-1.5c-29.555-30.796-71.788-49.507-114.42-50.326-42.607-3.52-87.963 13.97-112.12 50.382-21.87 30.541-29.258 76.288-26.017 109.834 2.2 38.135 17.755 73.987 36.272 106.691 20.996 36.312 47.543 69.066 75.846 99.86 2.862 2.678 6.133 6.067 5.773 9.856-4.987 65.584-8.633 131.286-13.716 196.856-.042 8.217-1.813 18.089-.264 25.54 3.476 12.615 16.452 22.24 26.69 27.093 18.505 9.909 39.252 14.036 59.614 17.955 20.924 3.834 42.136 6.342 63.295 8.31 48.944 4.366 98.247 3.137 147.105-1.26 34.13-4.123 68.85-8.684 101.076-21.258 11.49-4.784 22.692-11.175 30.185-21.428 7.622-10.898 4.67-21.854 4.096-33.156-2.66-40.536-5.549-81.052-8.379-121.566-1.544-20.38-2.774-40.767-4.221-61.156-.259-5.304-.88-10.557-1.088-15.855.246-5.987 7.736-11.322 11.755-16.847 4.618-4.959 9.849-10.966 13.925-15.654 33.765-40.08 65.12-83.848 81.992-134.026 9.437-27.304 12.598-56.265 9.68-84.932-2.151-26.933-10.532-53.81-26.263-75.938-24.73-35.944-70.23-53.356-112.89-49.23-21.067.873-45.925 6.512-63.262 15.183-9.497 4.5-18.673 9.614-27.157 15.818-4.194 3.029-8.233 6.26-12.286 9.453-4.015 2.554-7.777 8.749-11.721 9.801m-89 285c-.608-21.374.938-42.864-.991-64.182-5.888-65.964-29.505-132.324-74.118-182.17-22.012-24.349-52.687-44.041-86.596-43.797-16.872-.57-34.783 2.8-48.757 13.13-13.156 9.512-23.114 23.121-29.075 38.115-8.575 21.846-10.54 46.122-8.91 69.322 4.485 33.017 18.107 64.366 35.02 92.817 15.7 27.845 35.292 53.342 56.405 77.237 4.72 4.55 8.231 10.437 13.713 14.205 4.373 2.866 13.277-1.938 17.95-1.7 41.373-7.46 83.266-12.865 125.359-12.977m-27-30c1.264-60.231-13.813-121.728-46.427-172.669-15.363-23.95-37.303-47.003-66.734-52.068-15.118-2.835-31.74-1.134-44.986 7.203-12.335 7.344-20.79 22.612-24.739 34.655-11.104 33.348-5.466 69.608 8.976 100.934 13.853 29.677 32.495 56.781 53.32 81.952 3.17 3.89 6.295 7.845 9.924 11.271 36.498-3.687 73.63-11.828 110.666-11.278m-116 235c53.705-16.804 110.85-18.64 166.6-19 55.396.352 112.084 2.35 165.4 19 .077-9.392-1.194-18.681-2-28-106.813-28.513-221.19-28.574-328 0-.74 9.08-1.643 19.69-2 28m7-83c24.904-7.612 51.032-10.937 76.843-13.797 41.222-4.14 82.811-5.894 124.197-3.12 39.161 3.163 79.126 5.244 116.96 16.917-.83-6.421-1.563-12.857-1.56-19.338-.42-4.374.534-10.901-4.346-11.65-13.274-3.13-26.638-6.055-40.079-8.346-50.193-8.514-101.222-10.673-151.992-8.067-24.926 1.226-49.761 4.142-74.373 8.12a687 687 0 0 0-36.674 7.527c-8.696.482-7.35 8.41-7.512 14.589.214 5.798-.793 11.476-1.464 17.165m158-296h2c4.873-16.7 12.954-32.572 20.176-48.362 3.184-6.826 9.158-14.27 8.823-21.498-.01-33.113.014-66.255-.007-99.36.29-10.992-3.316-22.866-12.7-29.419-15.403-8.856-42.523-5.605-46.248 19.162-2.515 15.534.08 31.61-1.044 47.259v36.3c.028 9.168-.034 18.311.019 27.468-.055 5.811 3.891 10.374 6.42 15.342 8.448 15.99 15.345 32.682 21.716 49.592.53 1.102.788 2.299.845 3.516m0-29h2c1.682-11.958 5.995-23.546 9.607-35.007 4.779-10.845 3.138-22.972 3.393-34.498-.96-20.088 1.325-43.907-1.096-62.242-.534-6.43-3.085-13.635-12.095-13.734-15.758-.833-14.463 18.796-14.809 27.812v60.813c.113 5.082-.429 10.336 1.024 15.276 4.216 13.029 9.108 25.922 11.78 39.413.113.715.139 1.453.196 2.167m24 203c38 .078 75.91 4.401 113.302 10.904 6.798 1.042 13.57 2.252 20.271 3.742 2.89.4 7.741 1.91 9.724-.032 32.49-32.512 60.205-70.515 81.15-111.498 10.94-21.705 19.997-44.79 23.495-68.982 2.938-24.818.213-50.466-8.469-73.888-7.151-17.545-19.063-33.37-36.265-42.115-31.049-15.128-69.561-9.263-97.546 9.44-40.493 27.884-67.934 71.468-84.494 117.02-9.062 24.058-14.826 49.239-18.413 74.643-3.783 26.748-2.646 53.803-2.755 80.766m27-30c28.717-.084 57.22 4.363 85.64 8.025 5.257.689 10.496 1.555 15.738 2.265 4.716.88 9.724 2.103 12.543-2.215 22.07-26.38 42.893-54.23 57.759-85.416 16.205-32.418 22.965-70.729 11.087-105.83-4.153-13.569-13.853-28.09-25.242-34.797-23.475-13.509-54.01-9.133-75.104 6.753-29.766 21.452-50.94 60.566-62.288 91.264-14.679 38.167-20.796 79.24-20.133 119.951" style="fill:#000;fill-rule:evenodd;stroke:none"/></svg>