<svg xmlns="http://www.w3.org/2000/svg" width="3000" height="3000"><path d="M449 2666.5v1.5h2102v-1.5c-63.81-378.768-126.215-757.87-189.705-1136.696-47.349-283.998-94.654-568.016-142-852-4.398-26.67-8.911-53.338-13.325-80.003-1.118-6.656-2.232-13.342-3.35-19.985-.571-3.586-1.119-7.183-2.096-10.662-1.288-2.958-6.82-3.128-9.193-4.54-101.51-33.828-203.017-67.663-304.512-101.514a746151 746151 0 0 1-266.522-88.84c-39.072-12.89-78.06-26.135-117.144-38.98-4.713-1.335-9.273 1.032-13.839 2.453-144.507 48.104-288.95 96.378-433.449 144.467-54.18 18.08-108.385 36.116-162.566 54.195-23.808 7.923-47.625 15.882-71.434 23.805-5.676 1.96-11.407 3.738-17.06 5.726-6.564 1.113-6.72 8.744-7.34 13.268C740.08 921.349 682.77 1265.54 625.383 1609.692 566.339 1961.663 508.308 2314.864 449 2666.5m597-377c1.635 3.24 6.626 5.39 9.5 8.5 49.357-40.942 94.431-87.346 132.5-139h2v364c19.418.118 39.028.337 58.15-3.586 13.65-2.582 26.86-6.703 39.568-12.295 8.689-3.66 18.945-8.496 25.637-14.093 7.493-5.67 5.555-15.433 5.645-22.885V2005h3c8.868 22.315 17.271 44.95 22.863 68.395 4.379 17.701 8.628 35.626 9.542 53.923.207 3.513.235 7.11 1.075 10.54 15.438 19.563 45.072 28.254 68.238 18.052 23.088-9.957 37.602-35.574 34.925-60.556-2.83-24.396-16.8-46.766-35.631-62.138-17.408-16.132-38.23-27.954-60.137-36.768-9.385-3.859-19.004-7.139-28.579-10.486-6.868-2.078-16.736-2.582-15.296-12.718V1899h63.6c15.993-.002 32.008.002 47.996-.001 9.26-.327 23.059-.203 28.183-11.154 1.566-3.6-2.468-7.406-4.28-9.664-17.642-20.612-36.22-40.341-55.37-59.551-8.481-7.814-17.38-17.972-24.629-25.63-9.414 12.98-16.76 27.495-25.723 40.793-4.007 6.668-8.18 13.215-12.23 19.849-3.739 7.029-9.89 14.551-12.547 21.358h-5v-195c13.591-1.503 31.257-5.906 34-25-54.04-5.313-108.67-10.039-162.5-16-1.426 78.54.26 157.4-.5 236-40.264.76-80.81-.926-121 .5 3.007 7.53 4.34 15.841 7 23.5h103c-9.79 69.545-27.469 138.113-48.2 205.131-10.937 32.777-22.67 65.364-36.872 96.885-13.82 30.448-29.45 60.797-47.928 88.484m44-1144.749c-.72 107.966 43.576 215.447 120.706 290.805 75.444 76.314 182.355 120.328 289.634 119.444 107.455.642 214.544-43.531 289.853-120.313 76.53-75.477 120.699-182.572 119.807-290.027.642-107.455-43.531-214.544-120.313-289.853-75.477-76.53-182.572-120.699-290.027-119.807-107.455-.642-214.544 43.531-289.853 120.313-76.659 75.206-120.18 182.105-119.807 289.438m35.058-.007c1.301 27.02 2.168 54.012 8.431 80.198 18.506 86.152 68.683 164.898 138.805 218.229 71.804 55.528 164.567 82.637 254.987 75.647 97.444-6.204 190.955-52.842 254.913-126.572 66.17-74.399 99.703-175.895 91.583-275.085-6.373-97.36-53.038-190.735-126.782-254.585-74.606-65.95-176.318-99.942-275.652-91.106-47.132 2.96-93.417 15.28-135.736 36.242-61.193 30.136-114.396 76.857-151.18 134.415-39.642 59.72-58.634 131.192-59.37 202.617M1464 2516c17.403-.11 35.071 1.01 52.202-2.737 22.18-4.512 47.752-14.514 63.837-27.963 4.302-4.038 8.703-7.68 11.821-12.488 3.839-8.952 1.155-19.385 2.14-28.783V2415h169v96c19.98-.16 40.346-.088 59.811-5.195 13.734-3.525 27.18-8.122 40.377-13.285 9.428-3.904 18.461-8.869 27.058-14.342 8.668-4.624 6.834-14.984 6.754-22.393V1769c12.365-3.567 29.23-8.756 36-19.5-33.413-26.834-66.73-53.86-100.073-80.772-3.217-2.546-6.39-5.148-9.607-7.682-3.067-2.29-6.454-5.998-9.342-3.186-11.487 10.334-20.438 23.165-31.372 34.035-9.369 9.574-17.74 20.115-27.15 29.617-2.102 1.865-6.126 1.3-9.196 1.488h-135.431c-13.784 1.005-26.17-5.398-38.545-10.697-36.114-14.613-72.304-29.491-108.284-44.303zm130-574h169v-195h-169zm0 219h169v-195h-169zm0 229h169v-204h-169z" style="fill:#ffdd76;fill-rule:evenodd;stroke:none"/><path d="M1044 2289.5c2.303 4.484 8.762 6.878 11.5 10.5 49.012-41.777 95.63-87.198 133-140 1.426 121.14-.26 242.76.5 364 19.939.167 40.051.432 59.706-3.483 13.79-2.605 27.176-6.721 40.012-12.398 8.689-3.66 18.945-8.496 25.637-14.093 7.613-5.834 5.464-15.878 5.645-23.485v-77.936c.76-128.801-.926-257.876.5-386.605 11.951 26.274 19.559 54.302 26.833 82.14 2.36 10.998 4.478 22.02 5.582 33.218.617 5.164.433 10.41 1.14 15.554.718 4.583 5.015 7.12 8.481 9.703 13.113 10.518 29.263 16.568 46.122 14.237 25.59-1.568 45.732-22.899 50.29-47.245 3.958-24.718-5.17-50.576-22.35-68.581-22.01-26.446-53.778-42.91-85.46-54.49-7.719-2.978-15.525-5.654-23.509-7.838-9.4-1.665-7.985-9.82-7.629-16.413V1900h76.2c12.816-.057 25.646.07 38.454-.038 5.58-.231 12.265-.98 17.025-3.014 5.182-1.674 8.206-8.061 10.321-11.448-13.154-17.178-28.269-32.904-43.37-48.37-7.323-8.079-14.592-16.17-22.605-23.605-8.353-6.656-14.894-18.506-23.025-22.525-14.863 28.423-35.175 54.521-50 83h-3v-193c13.885-1.431 33.121-6.63 34-27-54.99-5.149-110.056-10.524-165-16v236h-121c1.463 8.853 4.98 17.296 7 26h103c-10.7 69.524-27.48 138.214-48.9 205.184-21.134 64.241-47.302 127.988-85.1 184.316m45-1144.65c-.964 108.243 43.361 216.11 120.706 291.706 75.583 76.437 182.763 120.516 290.243 119.444 107.92 1.036 215.595-43.252 291.244-120.313 76.782-75.775 121.044-183.353 119.807-291.22.886-107.725-43.385-215.152-120.313-290.66-75.775-76.782-183.353-121.044-291.22-119.807-107.725-.886-215.152 43.385-290.66 120.313-76.924 75.486-120.46 182.877-119.807 290.537m37.068.073c1.664 27.031 2.01 54.274 8.811 80.527 18.881 86.357 69.458 165.327 140.39 218.243 72.538 55.342 165.764 81.997 256.594 73.625 96.885-7.548 189.206-55.11 252.049-129.206 65.025-74.95 97.854-176.674 88.352-275.529-7.694-96.782-55.312-189.067-129.466-251.72-75.009-65.161-177.03-97.693-275.901-87.905-91.955 6.95-179.227 51.042-241.694 118.456-63.387 68.298-99.137 160.266-99.135 253.509M1463 2517c17.68-.338 35.688 1.179 53.123-2.525 22.385-4.406 48.208-14.415 64.527-27.836 4.43-3.939 8.661-7.683 11.96-12.367 4.164-8.81 1.412-19.308 2.39-28.648V2416h167v96c20.3-.278 41.018.142 60.845-4.965 13.879-3.531 27.504-8.096 40.833-13.307 9.62-3.947 18.808-8.977 27.568-14.55 8.668-4.624 6.834-14.984 6.754-22.393V1770c13.123-3.446 29.773-9.366 37-20.5-39.476-32.573-79.671-64.357-119.5-96.5-20.227 22.95-40.965 46.22-62.148 68.346-26.276 1.865-52.96-.339-79.33.654h-59.869c-7.233.259-14.642.562-21.31-2.655-43.416-16.915-86.158-36.357-129.843-52.345zm132-576h167v-193h-167zm0 219h167v-193h-167zm0 229h167v-202h-167z" style="fill:#bc1201;fill-rule:evenodd;stroke:none"/></svg>