<svg xmlns="http://www.w3.org/2000/svg" width="3000" height="3000"><path d="M328 2803h2344c-118.785-721.214-240.618-1442.068-360.03-2163.199-7.528-45.17-15.046-90.339-22.588-135.492-1.756-10.718-3.574-21.44-5.367-32.15-1.463-5.102-.632-13.609-5.65-15.42-82.419-27.818-165.08-54.96-247.546-82.639-144.35-48.044-288.615-96.253-432.954-144.3-27.19-9.095-54.376-18.14-81.566-27.195-6.024-1.707-14.13-5.746-19.294-4.368-99.967 33.09-199.81 66.647-299.74 99.834a5130220 5130220 0 0 1-448.968 149.67c-9.274 3.513-19.03 5.778-28.13 9.725-3.665 1.962-2.298 9.57-3.876 12.727-22.54 135.51-45.194 271.003-67.739 406.508C542.266 1518.848 433.622 2160.802 328 2803m658-607.375c2.842 2.602 6.522 3.98 9.5 6.375 21.07-16.185 42.874-31.532 62.784-49.2 10.068-9.193 20.346-18.136 30.086-27.67 4.898-4.77 10.352-8.966 15-14 4.958-3.772 9.144-11.163 14.63-12.13v541c22.69.302 45.615.921 67.932-3.984 15.598-3.721 31.143-8.031 45.784-14.685 10.15-4.594 21.783-10.906 30.035-16.922 8.714-6.553 5.81-16.83 6.249-26.249V1990c11.805-3.117 27.755-7.203 31-20-21.9-5.262-42.113-16.75-64-22 .528-4.068 4.296-8.398 6.642-12.523 19.345-32.118 38.457-64.632 54.042-98.783 16.626-34.432 32.58-69.67 45.316-105.694 14.384-.331 36.115-2.743 42-21-65.771-18.655-131.069-40.07-197-58-17.351 97.429-43.907 193.19-78.462 285.908-15.923 44.923-34.782 88.746-54.468 132.102a1194 1194 0 0 1-32.508 64.98c-10.33 20.708-22.69 41.002-34.562 60.635m56.446-1092.093c-.758 130.667 57.3 260.675 157.02 345.403 48.179 41.665 104.732 73.764 165.707 92.622 66.917 20.434 138.823 25.075 207.888 14.237 115.818-17.95 223.728-83.641 293.302-177.811 34.698-46.763 61.263-100.076 76.02-156.507 16.167-61.878 19.38-127.36 9.411-190.537-8.88-58.745-30.336-114.999-61.249-165.579-45.103-73.995-111.61-134.611-189.599-172.443-83.859-42.467-181.642-54.745-274.007-40.711-104.603 16.555-203.139 71.654-272.417 151.609-33.954 39.589-61.9 84.575-80.762 133.281-21.336 52.657-30.699 109.728-31.314 166.436m39.566.232c.535 57.533 10.393 115.099 34.56 167.382 31.878 74.275 86.804 138.124 153.974 182.66 34.222 21.76 71.044 39.973 110.15 51.256 41.39 12.017 84.86 17.691 127.95 16.458 110.107-.71 217.751-48.91 293.587-128.253 36.908-38.336 65.757-83.823 85.847-132.995 21.388-52.256 30.712-109.226 29.604-165.562-1.55-109.428-48.462-216.657-127.66-292.185-78.902-77.442-189.657-119.567-299.908-116.186-107.748 1.96-214.319 47.085-289.091 125.136-18.67 18.764-34.842 39.77-49.906 61.455-20.75 33.408-39.436 68.617-50.55 106.603-13.002 39.958-17.774 82.196-18.557 124.231M1299 2423.25c3.112 8.576 5.835 19.615 8 27.75h246v190c22.289.38 44.83 1.176 66.574-4.673 15.032-3.475 29.2-9.81 43.323-15.808 9.912-5.008 19.736-10.443 28.61-17.165 3.438-2.518 6.432-5.67 8.696-9.278 3.202-6.56.992-16.901 1.797-25.215V2451h262.2c10.143-.184 22.383-.177 31.324-3.073 6.058-1.82 18.291-9.496 9.068-16.796a1974 1974 0 0 0-67.178-56.268c-11.078-9.221-22.503-17.986-33.696-27.06-5.49-4.612-11.192-8.939-16.925-13.22-2.94-2.126-5.765-4.387-8.704-6.508-2.584-1.881-5.844-4.216-6.089-7.075 17.992-3.69 38.425-12.418 53.411-19.948 4.098-1.814 7.554-5.17 11.203-7.414 2.366-7.585.868-15.81 1.386-23.617V1998c14.25-2.97 31.115-7.848 40-20.5-43.677-35.17-89.41-67.861-133.5-102.5a8214 8214 0 0 0-56.505 60.501c-4.912 4.64-9.748 11.931-15.971 11.489-23.335.03-46.694-.006-70.024.01v-102h229.8c12.799-.13 25.605.163 38.388-.097 10.925.267 21.601-4.444 26.812-14.403-21.04-20.146-44.853-37.178-66.771-56.3-11.473-8.832-22.597-18.088-34.124-26.84-11.982-7.79-21.806-19.26-34.105-26.36-18.467 26.435-39.872 51.707-58.926 77.914-2.483 3.33-4.934 6.667-7.516 9.911-2.136 2.868-4.433 5.603-6.815 8.24-7.013 1.77-14.625.412-21.813.935H1702v-114c15.107-1.459 35.887-6.418 38-28-62.316-5.567-124.62-12.138-187-17v159c-77.929.76-156.151-.926-234 .5 3.171 8.592 5.004 17.818 8 26.5h226v102c-21.81-.015-43.64.019-65.44-.01-7.36.222-13.896-3.548-20.634-5.872-46.113-16.858-91.625-35.944-137.926-52.118v462c30.742.693 61.678-2.347 90.693-13.067 13.804-4.662 27.26-10.383 39.655-18.052 5.962-3.464 13.402-8.516 15.178-14.329 1.12-8.1-.013-16.408.474-24.552h78v142h-254zM1475 2099h78v-125h-78zm0 154h78v-126h-78zm227-154h87v-125h-87zm0 154h87v-126h-87zm0 170h81.6c2.895-.31 7.7.545 9.592-1.32 13.737-15.502 25.079-33.326 38.451-49.2 6.375-8.155 12.51-16.484 18.876-24.632 3.243-4.03 6.131-8.359 9.456-12.323 2.636-3.779 7.452-8.618 8.025-12.525-12.46 2.697-24.858 5.829-37.643 6.729-13.746 1.382-27.57 1.21-41.357 1.271v-50h-87z" style="fill:#ffdd76;fill-rule:evenodd;stroke:none"/><path d="M984 2195.25c1.465 3.977 8.67 4.776 11.5 8.75 20.534-16.511 42.645-31.142 62.193-48.924A1325 1325 0 0 0 1116.5 2100c1.426 180.159-.26 360.756.5 541 23.165.313 46.534.928 69.353-3.858 15.804-3.729 31.54-8.079 46.362-14.811 10.15-4.594 21.784-10.906 30.036-16.922 8.83-6.724 5.71-17.259 6.249-26.849V1991c11.272-2.6 26.095-6.638 32-20.5-21.054-8.823-43.595-15.85-65-24 21.74-32.918 40.707-67.967 58.283-103.296 16.688-36.604 34.775-73.068 47.717-111.204 15.372.004 37.506-3.512 43-23-66.879-18.7-133.149-40.138-200-59-16.826 97.294-43.635 192.864-77.933 285.416-16.059 45.43-35.054 89.777-54.997 133.594-10.232 22.123-21.143 43.989-32.733 65.396-11.07 20.547-22.134 41.654-35.337 60.844m57.422-1091.222c-.98 126.88 53.811 252.412 147.68 337.572 45.348 41.655 98.871 74.33 156.965 94.912 63.153 22.78 131.408 30.033 198.08 23.975 118.057-10.477 231.32-69.908 307.064-161.029 37.147-44.506 66.371-96.04 84.528-151.159 20.484-60.342 26.409-125.19 20.747-188.447-10.66-117.84-69.672-231.364-160.877-306.977-44.274-37.236-95.927-66.078-150.78-84.432-60.487-20.678-125.533-26.581-188.977-20.93-111.732 9.352-217.796 63.586-293.467 145.585-37.356 40.089-66.359 87.588-87.764 137.85-22.651 54.714-32.632 114.01-33.199 173.08m41.597-.07c.777 57.534 10.677 115.264 35.201 167.551 32.168 74.046 87.038 137.779 154.423 181.944 34.35 22.152 71.777 39.725 111.049 51.272 41.5 11.019 84.858 17.89 127.95 15.55 109.671-1.249 215.785-50.699 291.09-129.51 36.642-38.586 65.352-84.184 85.15-133.485 20.898-52.402 30.45-109.574 28.632-165.934-2.33-109.224-50.703-215.097-129.749-290.077-79.39-76.495-189.966-118.02-299.975-113.76-107.167 2.757-212.152 48.898-286.265 126.466-36.085 37.239-65.206 80.782-85.17 128.673-10.617 24.817-18.206 50.69-23.953 77.021-4.607 27.834-8.554 55.883-8.383 84.29M1306 2452h246v190c22.737.206 45.77 1.307 67.982-4.536 15.256-3.451 29.61-9.85 43.916-15.945 10.077-5.08 19.994-10.624 29.002-17.46 3.389-2.549 6.337-5.728 8.535-9.353 2.86-6.762.791-17.012 1.565-25.445V2452h240.6c13.267-.057 26.558.273 39.79-.65 10.257-.568 25.091-4.171 27.61-17.35-45.637-36.906-90.295-76.819-138-111.5 17.38-4.981 34.862-10.92 51.072-19.119 4.733-3.198 12.823-6.537 14.306-11.195 1.775-52.872-.323-106.074.622-159.017V1999c7.848-1.254 16.981-4.15 23.494-7.401 6.458-4.158 15.84-8.51 17.506-15.599-46.638-32.255-90.17-70.948-137-103-16.045 21.531-37.956 39.347-54.928 60.38-4.753 3.966-9.959 11.956-15.248 12.523-23.267.276-46.563-.05-69.824.097v-100h254.4c9.678-.27 20.138.97 29.191-3.39 6.386-3.01 15.28-11.13 6.653-17.806-42.155-36.774-86.681-70.788-130.244-105.804-20.786 25.13-39.604 52.166-60 77.669-4.95 6.543-9.731 13.33-15.257 19.397-6.812 1.739-14.226.44-21.214.934H1703v-112c8.718-.354 18.679-3.63 25.657-7.402 9.083-5.158 11.293-13.927 13.343-22.598-63.381-5.009-126.567-12.835-190-17v159h-234c1.652 9.897 5.638 19.292 8 29h226v100c-21.827-.096-43.646.117-65.469-.063-7.104-.406-13.374-4.4-20.087-6.357-46.226-17.294-92.057-35.768-138.444-52.58v465c31.224.807 62.662-2.129 92.174-12.905 14.006-4.626 27.597-10.52 40.174-18.214 5.962-3.464 13.402-8.516 15.178-14.329 1.12-8.1-.013-16.408.474-24.552h76v140h-254c1.582 10.206 6.42 19.795 8 30m170-354h76v-123h-76zm0 154h76v-124h-76zm227-154h85v-123h-85zm0 154h85v-124h-85zm0 170h80.4c2.7-.22 7.065.396 8.819-1.316 26.052-31.022 49.02-64.878 74.781-96.184-12.115 2.456-24.707 5.726-37.264 6.416-13.88 1.148-27.824 1.174-41.736 1.084v-50h-85z" style="fill:#bc1201;fill-rule:evenodd;stroke:none"/></svg>