<svg xmlns="http://www.w3.org/2000/svg" width="3000" height="3000"><path d="M407 2715h2186c-120.11-729.14-243.257-1457.94-364-2187-121.653-40.09-243.099-81.112-364.7-121.395-91.164-30.407-182.32-60.766-273.474-91.162a32206 32206 0 0 1-51.529-17.183c-8.003-2.659-16.01-5.346-24-8-7.038-2.654-14.998-6.446-23.453-2.372-120.19 40.07-240.392 80.12-360.578 120.183C1011.124 447.878 891.186 488.387 771 528c-120.737 729.033-243.897 1457.913-364 2187m644-437c1.23 7.588 4.515 16.215 6.36 22.988 2.271 3.257 8.914 1.33 12.033 2.012h618.778c15.125-.445 34.69 2.31 47.127-5.595 4.724-2.66 9.042-8.462 2.622-12.655-28.805-24.875-59.533-47.476-89.466-70.96-9.57-7.682-19.416-14.987-29.086-22.521-2.05-1.799-5.16-3.67-7.094-4.772-2.615-.297-4.575 3.322-6.041 4.721-13.538 17.718-27.475 35.085-41.011 52.788-6.163 7.704-12.151 15.535-18.196 23.321-2.918 3.37-5.38 7.773-9.126 10.215-162.216 1.307-324.644-.238-486.9.458m87-579.5c2.353 8.238 6.46 17.769 8 25.5h487c-6.065 99.382-13.459 198.766-24.59 297.734-1.437 12.162-2.85 24.348-4.329 36.492-1.315 10.591-2.545 21.202-4.158 31.742-.287 5.307-8.9 3.803-12.304 4.032H1357c.326-13.375 4.73-26.297 6.268-39.525 8.287-46.72 16.629-93.463 23.914-140.342 3.55-22.555 7.385-45.03 10.54-67.63 1.188-5.903 1.413-11.98 2.435-17.894.31-4.495 7.505-4.078 10.598-4.651 11.993-.918 24.82-10.959 27.245-21.958-58.76-10.286-117.26-22.758-176-33-4.74 60.281-13.713 120.21-22.926 179.954-4.637 30.119-10.188 60.086-16.14 89.961-2.877 14.745-5.925 29.442-9.389 44.059-.708 7.386-8.515 11.542-13.794 15.262-4.776 4.743-12.88 9.034-14.751 14.764 5.788 1.503 11.628 5.938 16.539 8.19 21.406 10.553 42.08 22.437 63.327 33.257 9.193 4.763 18.135 9.898 27.322 14.64 4.393 2.15 8.77 4.34 12.94 6.883 2.136 1.038 4.376 2.493 6.828 2.498 12.209-12.807 23.433-31.08 34.019-43.442 4.708-5.762 10.518-16.086 17.328-16.002 139.565-.07 279.138.013 418.697-.024-.924 42.46-4.652 84.838-8.213 127.13-3.05 31.286-6.326 62.587-11.082 93.658-3.846 22.28-7.881 45.01-17.814 65.572-7.335 17.588-23.623 23.706-40.302 23.628-54.315.87-108.391-5.126-162.589-6.988.156 2.226-.243 5.765 1.774 7.571 2.64.518 5.174 1.629 7.89 1.887 33.507 7.598 68.097 17.184 96.109 38.085 13.632 10.279 26.245 23.963 30.62 40.908 5.23 17.689 5.829 36.283 6.607 54.549 32.321.19 65.142.357 96.687-7.936 22.083-5.541 43.166-15.255 60.707-29.898 26.707-21.144 40.406-53.715 49.91-85.38 8.895-34.185 15.915-68.873 19.712-104.025 8.376-64.316 12.089-129.082 15.984-193.761 12.284-.659 30.869-5.604 39-17.5-40.654-33.43-79.589-69.536-120.5-102.5-14.718 14.968-30.762 28.513-45.475 43.475-7.523 7.489-15.635 14.346-23 21.999-4.204 5.112-9.51 4.884-15.236 4.526H1746c8.106-64.198 15-128.6 21.105-193.01 3.306-32.675 5.99-65.397 8.912-98.101 1.615-16.812 2.475-33.673 3.828-50.507.084-5.167 4.858-5.957 8.633-6.496 10.107-3.116 23.193-8.77 28.522-17.386-22.54-17.479-46.14-33.595-68.899-50.783-23.173-16.198-45.508-34.344-69.101-49.717-13.83 16.006-26.047 33.637-39.64 49.895-2.85 3.708-5.753 7.371-8.597 11.071-2.53 3.311-5.927 8.365-9.544 8.8-161.053.666-322.167-.12-483.219.234zm11-550.559V1334c.156 5.75-.314 12.624.473 17.838 2.49 4.21 7.086 5.697 11.024 8.357 32.12 19.403 64.108 38.966 96.057 58.626 47.734 29.017 95.195 58.42 143.031 87.252 23.844 14.501 47.628 29.182 71.49 43.653 6.178 3.92 12.408 7.798 18.741 11.463 4.203 2.467 9.377 6.932 13.347 4.196 13.198-7.917 26.286-16.007 39.52-23.853 38.087-23.637 76.497-46.726 114.71-70.148 28.832-17.748 57.812-35.253 86.682-52.924 21.617-12.814 42.65-26.524 64.356-39.183 7.897-5.18 16.202-9.749 24.09-14.92 3.819-2.146 7.45-4.554 11.258-6.714 9.699-4.685 7.02-13.083 7.221-21.528V961.462c-.322-7.387 2.476-18.253-6.544-22.264-50.549-31.221-101.577-61.645-152.087-92.903-50.388-30.584-100.564-61.485-150.93-92.102-11.426-7.131-23.011-13.968-34.428-21.1-2.353-1.038-5.911-4.232-8.118-3.032-42.424 23.824-82.782 51.388-124.968 75.665-31.279 19.369-62.78 38.377-94.199 57.498-23.361 14.731-47.294 28.523-70.652 43.232-17.456 10.857-35.268 21.137-52.596 32.186-10.01 4.296-7.334 12.513-7.478 21.227zm47-.207V1308.2c.173 4.99-.247 9.992.221 14.96.295 4.491 6.158 6.435 9.329 8.644 55.072 33.734 110.354 67.085 165.4 100.843 27.363 16.743 54.792 33.336 82.144 50.084 13.992 8.221 27.51 17.163 41.539 25.298 8.085 4.945 15.6-4.014 22.257-7.042 6.795-4.02 13.544-8.07 20.18-12.328 33.316-19.817 66.065-40.547 99.36-60.382 49.701-30.248 99.211-60.829 149.035-90.869 3.428-1.87 6.541-4.224 9.938-6.137 2.793-1.796 6.504-3.395 8.144-6.383 1.291-59.023-.235-118.246.453-177.312V986.245c-.094-6.683 2.016-16.098-6.015-19.746-43.642-26.818-87.619-53.065-131.208-79.945-43.603-26.457-87.095-53.149-130.707-79.583-9.828-6.13-19.739-12.113-29.686-18.051-5.702-4.63-9.959-2.328-14.748 1.232-35.688 21.26-70.902 43.297-106.464 64.738-53.47 32.473-106.863 65.047-160.247 97.65-6.809 3.824-13.351 8.144-20.019 12.19-3.007 1.594-6.038 3.557-8.479 5.828-1.218 58.906.222 117.977-.427 177.176" style="fill:#fff;fill-rule:evenodd;stroke:none"/><path d="M1049 2277.5c1.189 4.484 2.916 8.816 3.97 13.367.943 3.776 2.234 7.438 3.404 11.122 1.436 2.341 5.799 1.729 7.822 2.01 9 .003 17.997-.001 26.981.001h622.377c10.413.26 25.343-2.543 30.446-15.5-20.877-19.376-43.783-36.408-66.33-53.743-22.351-17.282-44.448-34.986-67.17-51.757-13.156 18.192-27.912 35.506-41.342 53.55-6.038 7.997-12.383 15.77-18.401 23.78-5.859 6.245-10.256 17.758-21.056 16.67H1049zm96-552.5h487c-6.372 98.704-13.436 197.428-24.59 295.734-1.445 11.997-2.782 24.011-4.274 35.994-1.208 10.601-2.655 21.16-4.1 31.724-.834 5.821-7.71 4.378-11.818 4.548H1358c3.251-27.064 9.994-53.692 14.023-80.658 6.916-39.562 13.3-79.208 19.694-118.851 2.585-19.516 6.238-38.868 8.673-58.399.204-2.483.456-5.06 1.305-7.38 2.206-3.28 9.11-1.693 12.198-3.07 12.723-1.588 22.16-11.655 26.107-23.142-59.44-12.282-119.599-21.854-179-34.5-4.501 60.636-13.777 120.874-22.926 180.954-4.637 30.303-10.266 60.426-16.24 90.491a1287 1287 0 0 1-9.542 44.679c-1.006 6.723-9.115 10.651-14.709 15.003-5.661 4.28-10.685 9.254-15.583 14.373 43.897 21.908 86.759 46.425 130.572 68.5 11.282-14.506 22.374-29.196 33.536-43.8 2.434-3.362 5.001-6.603 7.602-9.834 5.19-9.137 13.817-7.916 22.588-7.366H1781c-1.25 42.385-4.656 84.696-8.388 126.92-2.918 30.487-6.284 60.986-10.8 91.276-3.778 22.195-7.76 44.841-17.548 65.361-6.935 17.674-22.807 24.245-39.48 24.412-27.559.014-55.139-.89-82.636-2.604-13.57-.795-27.144-1.8-40.719-2.36-6.677-.214-13.286-1.057-19.954-1.286-6.548-1.284-14.747.497-19.975-1.719-.842 2.615-.379 5.873-.054 8.287.156 2.771 5.125 2.944 7.005 3.694 33.89 7.624 69.005 16.965 97.462 37.944 13.82 10.273 26.828 23.945 31.344 41.056 5.372 17.822 5.945 36.592 6.743 55.019 32.795.189 66.085.52 98.12-7.787 22.286-5.536 43.585-15.26 61.274-30.047 26.763-21.473 40.899-54.347 50.185-86.45 9.055-34.654 15.927-69.84 19.748-105.475 8.246-63.494 11.783-127.4 15.673-191.241 14.178-.493 32.558-7.18 40-18.5-41.031-34.442-81.222-70.532-122.5-104.5-14.627 14.73-30.356 28.256-44.975 42.975-7.31 7.726-15.422 14.58-23 22-1.783 1.914-3.683 3.66-5.826 5.145-8.215 1.916-17.295.137-25.699.88 8.826-63.943 14.82-128.38 21.244-192.61 3.23-32.75 6.097-65.545 8.885-98.328 2.034-16.69 1.969-33.604 4.027-50.278.23-4.222 6.885-4.145 9.807-5.324 11.28-3.016 21.222-9.392 29.037-17.96-47.705-33.187-93.394-70.189-141.656-102.5-13.09 16.61-26.032 33.329-39.211 49.859-2.734 3.744-5.683 7.348-8.516 11.008-3.491 2.91-5.304 9.078-9.494 9.712-161.294 1.2-322.79-.218-484.123.421.705 9.749 6.892 18.327 8 28m355.5-998c-28.176 16.989-56.314 34.574-84.575 51.54-49.583 30.37-99.294 60.526-148.851 90.916-37.304 22.556-74.418 45.438-111.596 68.186-3.979 1.709-7.805 4.588-7.426 8.662-.148 73.685.027 147.374-.052 221.05v165.21c.794 8.097-2.293 20.146 4.5 24.4 6.461 4.034 13.15 7.703 19.472 11.939 46.557 28.208 93.019 56.603 139.435 85.029 34.727 20.956 69.042 42.585 103.902 63.315 25.958 16.128 52.164 31.874 78.236 47.807 2.28 1.172 5.277 4.2 7.553 2.882 38.367-21.864 75.337-46.393 113.447-68.741 37.662-23.381 75.792-45.987 113.485-69.294 32.503-19.92 65.023-39.829 97.601-59.606 7.085-4.113 13.85-8.764 21.012-12.746 1.845-1.014 3.33-2.421 4.651-4.022 2.013-73.953-.366-148.54.706-222.622V963.66c-.031-5.406.039-10.792-.023-16.192.373-5.533-3.523-7.878-7.725-9.982-28.526-18.02-57.7-34.985-86.322-52.826-42.996-26.424-86.29-52.36-129.216-78.886-42.633-26.368-85.991-51.815-128.214-78.773M1197 1147.934V1307.6c.228 4.975-.325 10.01.29 14.952.256 4.151 6.027 5.868 8.78 7.97 54.874 33.717 110.094 66.857 164.96 100.577 27.378 16.782 54.889 33.33 82.256 50.128 13.787 8.376 27.467 16.95 41.331 25.197 6.637 5.465 16.154-3.928 21.651-6.65 6.772-4.13 13.664-8.044 20.272-12.418 33.327-19.819 66.082-40.55 99.394-60.376 49.52-30.188 98.88-60.614 148.53-90.572 5.475-3.93 14.71-8.094 18.083-12.52 1.291-58.623-.235-117.446.453-176.112V987.045c-.311-7.171 2.358-16.026-6.473-19.81-43.475-26.724-87.304-52.913-130.75-79.681-43.3-26.401-86.612-52.75-129.917-79.125-9.871-5.947-19.57-12.132-29.543-17.896-2.22-1.53-4.892-3.208-7.34-3.053-36.06 21.088-71.474 43.773-107.442 65.112-54.216 33.053-108.414 66.098-162.629 99.139-6.814 4.103-13.673 8.138-20.355 12.45-3.06 1.893-6.826 3.895-9.424 5.923-2.532 1.903-2.051 6.085-2.127 9.387z" style="fill:green;fill-rule:evenodd;stroke:none"/></svg>