<svg xmlns="http://www.w3.org/2000/svg" width="3000" height="3000"><path d="M407 2715h2186c-120.11-729.14-243.257-1457.94-364-2187-121.653-40.09-243.099-81.112-364.7-121.395-91.164-30.407-182.32-60.766-273.474-91.162a32206 32206 0 0 1-51.529-17.183c-8.003-2.659-16.01-5.346-24-8-7.038-2.654-14.998-6.446-23.453-2.372-120.19 40.07-240.392 80.12-360.578 120.183C1011.124 447.878 891.186 488.387 771 528c-120.737 729.033-243.897 1457.913-364 2187m1014-682v453c-106.929.76-214.151-.926-321 .5 2.738 7.67 5.155 17.267 7 24.5h768c9.729-.046 20.647.354 29.11-5.569 3.277-2.178 6.992-7.398 4.099-10.323-44.778-39.885-93.901-74.77-140.709-112.108-25.348 34.903-54.424 68.02-79.5 103h-113v-453h336c10.335-.023 21.066.225 30.877-3.592 3.704-1.556 7.075-4.258 8.83-7.943 2.761-3.1-3.375-6.899-5.099-8.59-43.747-37.22-90.124-71.257-135.108-106.875-13.701 17.332-27.043 34.995-40.888 52.22-10.005 13.229-20.48 26.111-30.515 39.314-3.446 4.681-7.193 11.222-14.433 10.461-49.895.014-99.776-.002-149.664.005v-308c13.484-1.326 34.048-7.672 35-26-63.02-5.351-125.948-12.079-189-17v351h-372c1.26 7.533 4.74 16.047 6.448 22.806 1.797 3.63 9.043 1.393 11.939 2.194zm-272-885.266V1333.4c.236 5.591-.342 12.222.32 17.314.493 4.387 7.71 6.377 11.13 9.467 31.922 19.272 63.724 38.749 95.476 58.275 47.94 29.289 96.009 58.352 143.89 87.733 23.664 14.679 47.616 28.87 71.278 43.542 6.098 3.524 12.045 7.265 18 11 4.393 2.678 9.636 6.901 13.883 4.579 13.463-7.491 26.275-16.166 39.563-23.954 38.392-23.21 76.52-46.814 114.863-70.085 28.905-17.36 57.471-35.28 86.376-52.628 21.297-13.363 43.026-26.016 64.315-39.374 8.166-5.033 16.391-9.93 24.535-14.974 3.608-2.058 7.134-4.271 10.66-6.458 3.168-2.158 7.417-3.478 7.598-8.568.322-67.32-.058-134.662.113-201.98V961.46c-.33-7.38 2.47-18.203-6.502-22.245-50.416-31.044-101.15-61.536-151.568-92.556-50.468-30.874-101.06-61.547-151.484-92.48-11.222-7.11-22.759-13.69-33.967-20.823-2.51-1.02-6.248-4.513-8.587-3.295-42.012 24.48-83.218 50.693-124.864 75.842-31.273 18.964-62.486 37.98-93.632 57.128-23.737 14.14-47.161 28.756-70.772 43.096-17.605 10.686-35.176 21.403-52.694 32.214-2.933 1.83-7.586 3.732-7.775 7.805-.443 67.11.08 134.219-.155 201.588m47 .207V1308.2c-.033 8.304-2.61 18.573 8.265 23.024 55.334 33.437 110.463 67.184 165.665 100.805 27.924 16.829 55.58 34.043 83.476 50.903 13.978 8.158 27.448 17.11 41.445 25.226 6.638 4.498 16.268-3.729 21.54-6.773 6.785-4.24 13.683-8.3 20.543-12.405 33.126-20.388 66.388-40.568 99.611-60.785 49.6-30.721 99.728-60.61 149.462-91.103 5.525-4.235 14.782-7.25 17.529-12.577 1.324-58.789-.24-117.797.464-176.626V986.663c-.421-6.44 2.164-15.86-5.34-19.774-43.67-26.414-87.158-53.164-130.777-79.651-43.766-26.664-87.417-53.512-131.314-79.96-9.804-6.156-19.773-12.03-29.577-18.18-5.168-4.025-10.03-3.272-14.623.343-35.689 21.99-71.593 43.612-107.359 65.468-53.26 32.596-106.726 64.88-159.936 97.548-6.79 4.057-13.582 8.087-20.269 12.303-3.072 1.489-5.709 3.618-8.39 5.633-1.182 59.063.214 118.292-.415 177.55" style="fill:#fff;fill-rule:evenodd;stroke:none"/><path d="M1047 2007.25c2.225 4.987 2.792 10.765 4.777 15.91 1.374 3.416 1.736 10.342 5.767 10.485 13.87 1.007 27.912-.179 41.801.355H1420v451h-321c1.181 9.25 5.624 17.809 7 27h765c15.596.258 36.093.563 41-15.531-23.252-20.691-48.203-39.467-72.221-59.236-12.23-9.442-24.508-18.792-36.753-28.208-6.266-4.641-12.251-9.68-18.5-14.337-3.13-2.442-6.388-4.717-9.503-7.16-2.826-1.949-5.809-5.106-9.023-5.528-24.245 35.295-54.545 67.851-79 103h-111v-451h340.8c12.652.018 31.052-.157 37.2-15.5-28.01-24.664-57.672-47.518-87.148-70.388-10.786-8.915-22.047-17.238-33.213-25.65-4.94-3.769-9.716-7.74-14.81-11.31-2.235-1.816-4.608-3.446-6.92-5.13-2.02-1.934-4.822 2.207-5.943 3.382-13.163 16.922-26.402 33.796-39.553 50.72-9.771 12.77-19.835 25.301-29.576 38.089-1.978 2.33-3.735 4.89-5.968 6.984-4.335 3.39-12.629.817-18.597 1.803H1576v-306c15.069-1.62 32.931-7.307 36-27.5-31.513-4.205-63.648-5.398-95.263-9.139-32.288-2.197-64.412-6.871-96.737-8.361v351h-373zM1500.5 1569c39.255-24.863 79.65-48.425 119.114-73.056 34.862-20.84 69.15-42.577 104.025-63.387a12635 12635 0 0 1 91.584-56.003c6.678-3.974 13.131-8.338 19.917-12.125 3.285-1.847 6.446-3.909 9.631-5.906 9.628-4.53 7.145-13.7 7.229-21.408V957.662c-.192-4.211.3-9.24-.324-13.068.1-3.664-5.6-5.54-7.798-7.343-48.153-29.797-96.769-58.779-144.923-88.57-48.627-29.004-96.555-59.168-145.016-88.419-11.81-7.315-23.772-14.401-35.579-21.705-5.55-3.03-12.534-8.603-17.683-9.95-5.95-.037-11.41 6.32-16.567 8.406-41.863 25.166-83.217 51.111-125.054 76.309-31.404 19.108-62.67 38.392-94.131 57.404-23.759 14.29-47.218 29.052-70.955 43.373-8.744 5.395-17.61 10.635-26.346 16.028-3.91 2.381-7.733 4.915-11.694 7.214-3.516 2.098-8.135 4-7.872 8.93-.165 73.509.03 146.994-.058 220.502v167.154c.102 5.387-.133 10.793.094 16.164.025 4.934 3.983 6.555 7.729 8.79a23627 23627 0 0 0 86.73 52.94c42.981 26.324 86.185 52.231 128.987 78.823 43.324 25.503 85.571 53.085 128.96 78.356M1197 1147.842V1307.6c.202 4.828-.299 10.544.29 14.94.222 3.693 5.097 5.889 8.338 7.903 55.195 33.388 110.243 67.007 165.302 100.586 27.785 16.701 55.26 33.894 83.02 50.618 13.746 8.16 27.17 16.872 40.953 24.963 6.463 4.927 16-4.077 21.374-6.763 6.691-4.3 13.673-8.099 20.405-12.315 32.947-20.399 66.165-40.384 99.248-60.56 49.453-30.693 99.472-60.456 149.077-90.88 5.525-4.235 14.782-7.25 17.529-12.577 1.324-58.588-.24-117.397.464-176.025V986.862c-.163-6.41 1.974-15.594-5.713-19.185-43.68-26.499-87.257-53.152-130.872-79.75-43.628-26.526-87.107-53.322-130.846-79.65-9.804-6.156-19.773-12.03-29.577-18.18-2.331-1.217-5.365-3.32-7.598-2.385-35.957 21.357-71.59 43.572-107.401 65.196-54.098 32.9-108.068 66-162.184 98.849-6.67 4.305-13.725 8.026-20.394 12.316-2.848 2.069-6.566 3.946-9.14 5.888-2.857 1.987-2.113 6.828-2.275 9.521z" style="fill:#028902;fill-rule:evenodd;stroke:none"/></svg>