<svg xmlns="http://www.w3.org/2000/svg" width="3000" height="3000"><path d="M407 2715h2186c-120.11-729.14-243.257-1457.94-364-2187-121.653-40.09-243.099-81.112-364.7-121.395-91.164-30.407-182.32-60.766-273.474-91.162a32206 32206 0 0 1-51.529-17.183c-8.003-2.659-16.01-5.346-24-8-7.038-2.654-14.998-6.446-23.453-2.372-120.19 40.07-240.392 80.12-360.578 120.183C1011.124 447.878 891.186 488.387 771 528c-120.737 729.033-243.897 1457.913-364 2187m1014-682v453c-106.929.76-214.151-.926-321 .5 2.738 7.67 5.155 17.267 7 24.5h768.6c9.649-.128 20.663.25 28.926-5.893 3.325-2.566 6.723-7.008 3.634-10.145-44.647-39.973-93.908-74.628-140.66-111.962-25.28 34.966-54.873 67.675-79.5 103h-113v-453h336.6c9.817-.094 21.922.357 30.352-3.534 3.787-1.741 7.278-4.509 8.954-8.433 2.393-3.05-4.17-6.925-5.648-8.614-43.71-36.963-89.746-71.158-134.758-106.419-13.844 17.169-27.129 34.784-40.815 52.073-10.19 13.11-20.298 26.252-30.565 39.295-1.993 2.349-3.678 4.958-5.733 7.242-4.133 3.983-12.675 1.594-18.846 2.39H1575v-307c13.483-1.692 33.354-5.887 35-26-63-5.348-125.942-12.36-189-17v350h-372c.876 7.419 4.194 15.81 5.822 22.43.877 4.334 7.59 3.466 10.766 3.57H1421m-272-885.059V1334c.156 5.75-.314 12.624.473 17.838 2.49 4.21 7.086 5.697 11.024 8.357 32.12 19.403 64.108 38.966 96.057 58.626 47.734 29.017 95.195 58.42 143.031 87.252 23.844 14.501 47.628 29.182 71.49 43.653 6.178 3.92 12.408 7.798 18.741 11.463 4.203 2.467 9.377 6.932 13.347 4.196 13.198-7.917 26.286-16.007 39.52-23.853 38.087-23.637 76.497-46.726 114.71-70.148 28.832-17.748 57.812-35.253 86.682-52.924 21.617-12.814 42.65-26.524 64.356-39.183 7.897-5.18 16.202-9.749 24.09-14.92 3.819-2.146 7.45-4.554 11.258-6.714 9.699-4.685 7.02-13.083 7.221-21.528V961.462c-.322-7.387 2.476-18.253-6.544-22.264-50.549-31.221-101.577-61.645-152.087-92.903-50.388-30.584-100.564-61.485-150.93-92.102-11.426-7.131-23.011-13.968-34.428-21.1-2.353-1.038-5.911-4.232-8.118-3.032-42.424 23.824-82.782 51.388-124.968 75.665-31.279 19.369-62.78 38.377-94.199 57.498-23.361 14.731-47.294 28.523-70.652 43.232-17.456 10.857-35.268 21.137-52.596 32.186-10.01 4.296-7.334 12.513-7.478 21.227zm47-.207V1308.2c.173 4.99-.247 9.992.221 14.96.295 4.491 6.158 6.435 9.329 8.644 55.072 33.734 110.354 67.085 165.4 100.843 27.363 16.743 54.792 33.336 82.144 50.084 13.992 8.221 27.51 17.163 41.539 25.298 8.085 4.945 15.6-4.014 22.257-7.042 6.795-4.02 13.544-8.07 20.18-12.328 33.316-19.817 66.065-40.547 99.36-60.382 49.701-30.248 99.211-60.829 149.035-90.869 3.428-1.87 6.541-4.224 9.938-6.137 2.793-1.796 6.504-3.395 8.144-6.383 1.291-59.023-.235-118.246.453-177.312V986.245c-.094-6.683 2.016-16.098-6.015-19.746-43.642-26.818-87.619-53.065-131.208-79.945-43.603-26.457-87.095-53.149-130.707-79.583-9.828-6.13-19.739-12.113-29.686-18.051-5.702-4.63-9.959-2.328-14.748 1.232-35.688 21.26-70.902 43.297-106.464 64.738-53.47 32.473-106.863 65.047-160.247 97.65-6.809 3.824-13.351 8.144-20.019 12.19-3.007 1.594-6.038 3.557-8.479 5.828-1.218 58.906.222 117.977-.427 177.176" style="fill:#fff;fill-rule:evenodd;stroke:none"/><path d="M1047 2006.5c3.237 8.259 4.171 19.648 8.4 26.646 10.586 2.057 21.826-.064 32.56.854H1420v451h-321c1.181 9.25 5.624 17.809 7 27h774c9.431.065 22.208-1.485 28.25-8.572 7.639-7.805-3.444-13.18-8.615-17.919-22.07-17.76-43.864-35.92-66.267-53.24-11.31-8.437-22.117-17.508-33.484-25.849-5.649-4.268-11.214-8.623-16.861-12.892-5.479-3.208-11.731-10.461-17.023-11.528-24.174 35.377-54.99 67.489-79 103h-111v-451h340.8c12.738-.36 30.008 1.119 37.2-15.5-45.53-40.891-96.115-75.968-143.5-114.5-14.19 16.739-26.912 34.71-40.776 51.72-10.06 13.177-20.465 26.095-30.502 39.286-3.807 4.358-6.886 11.558-14.122 10.983-49.705.03-99.398-.005-149.1.011v-305c7.986-.764 17.502-3.287 23.768-7.224 7.192-4.581 10.742-12.796 12.232-20.776-63.648-6.365-128.065-11.087-191.5-18-1.426 116.874.26 234.061-.5 351h-373zM1500.5 727c-28.176 16.989-56.314 34.574-84.575 51.54-49.583 30.37-99.294 60.526-148.851 90.916-37.304 22.556-74.418 45.438-111.596 68.186-3.979 1.709-7.805 4.588-7.426 8.662-.148 73.685.027 147.374-.052 221.05v165.21c.794 8.097-2.293 20.146 4.5 24.4 6.461 4.034 13.15 7.703 19.472 11.939 46.557 28.208 93.019 56.603 139.435 85.029 34.727 20.956 69.042 42.585 103.902 63.315 25.958 16.128 52.164 31.874 78.236 47.807 2.28 1.172 5.277 4.2 7.553 2.882 38.367-21.864 75.337-46.393 113.447-68.741 37.662-23.381 75.792-45.987 113.485-69.294 32.503-19.92 65.023-39.829 97.601-59.606 7.085-4.113 13.85-8.764 21.012-12.746 1.845-1.014 3.33-2.421 4.651-4.022 2.013-73.953-.366-148.54.706-222.622V963.66c-.031-5.406.039-10.792-.023-16.192.373-5.533-3.523-7.878-7.725-9.982-28.526-18.02-57.7-34.985-86.322-52.826-42.996-26.424-86.29-52.36-129.216-78.886-42.633-26.368-85.991-51.815-128.214-78.773M1197 1147.934V1307.6c.228 4.975-.325 10.01.29 14.952.256 4.151 6.027 5.868 8.78 7.97 54.874 33.717 110.094 66.857 164.96 100.577 27.378 16.782 54.889 33.33 82.256 50.128 13.787 8.376 27.467 16.95 41.331 25.197 6.637 5.465 16.154-3.928 21.651-6.65 6.772-4.13 13.664-8.044 20.272-12.418 33.327-19.819 66.082-40.55 99.394-60.376 49.52-30.188 98.88-60.614 148.53-90.572 5.475-3.93 14.71-8.094 18.083-12.52 1.291-58.623-.235-117.446.453-176.112V987.045c-.311-7.171 2.358-16.026-6.473-19.81-43.475-26.724-87.304-52.913-130.75-79.681-43.3-26.401-86.612-52.75-129.917-79.125-9.871-5.947-19.57-12.132-29.543-17.896-2.22-1.53-4.892-3.208-7.34-3.053-36.06 21.088-71.474 43.773-107.442 65.112-54.216 33.053-108.414 66.098-162.629 99.139-6.814 4.103-13.673 8.138-20.355 12.45-3.06 1.893-6.826 3.895-9.424 5.923-2.532 1.903-2.051 6.085-2.127 9.387z" style="fill:green;fill-rule:evenodd;stroke:none"/></svg>