<svg xmlns="http://www.w3.org/2000/svg" width="3000" height="3000"><path d="M284 2851h2432c-124.976-755.67-252.044-1511.092-377.448-2266.7-7.861-47.178-15.706-94.335-23.582-141.499-.984-5.839-1.997-11.667-2.899-17.512-.49-7.306-6.473-8.697-12.246-10.184-87.184-29.056-174.38-58.12-261.56-87.176-152.327-50.779-304.643-101.536-456.966-152.324-14.313-4.829-28.697-9.519-43.002-14.345a3928 3928 0 0 1-21-7c-6.46-1.712-14.17-5.911-20.49-4.561-107.266 35.355-214.304 71.493-321.51 107.041-160.61 53.648-321.364 106.958-481.932 160.707-5.96 1.902-5.358 9.016-6.366 13.62-26.08 156.214-52.04 312.423-78.108 468.636C500.963 1550.18 391.461 2200.487 284 2851m730-1849h1.5c19.367-3.367 38.974-6.658 58.5-9-.259 5.042-5.21 9.196-7.345 13.028-20.993 31.446-31.326 68.748-38.45 105.431-3.845 19.073-5.788 38.534-7.014 57.922-.01 19.154-1.6 42.563 3.309 59.619 7.712-7.47 15.867-14.453 23.718-21.776 3.782-3.925 8.09-7.221 12.019-10.957 3.805-3.019 8.686-8.554 12.763-9.267-5.812 34.536-8.776 70.037-2.714 104.818 2.36 17 9.894 32.55 14.405 48.925 3.506 16.093 6.716 36.984 2.309 51.757 15.417 2.213 26.402-11.609 35.037-20.306 1.605-2.012 3.316-4.03 5.963-4.194 19.211 65.353 60.949 127.322 121.5 161 3.6-13.765 5.127-28.164 8.5-42h3c11.296 25.834 25.541 50.898 43.325 72.906 8.861 10.9 21.303 21.942 31 30.322 10.574 8.456 24.11 18.572 36.675 20.772v-38c5.864.483 10.671 8.172 16.556 11.408 18.32 14.312 38.97 25.479 56.637 40.727 18.27 15.22 32.962 33.858 48.307 51.865 21.05-28.389 48.888-51.398 77.468-71.92 13.98-9.504 28.496-18.26 43.141-26.708 15.255-7.903 29.975-18.042 45.891-24.372-.27 4.72-3.971 8.282-5.768 12.5-6.554 12.582-11.816 30.185-1.732 41.5 27.487-25.242 57.353-48.312 82.323-76.182 13.24-13.43 26.018-27.307 37.49-42.294 9.986-13.805 24.125-30.958 24.687-47.524h3c8.568 18.116 18.384 36.097 27.5 54 20.617-29.541 31.751-64.55 43.707-98.133 11.032-36.359 21.552-73.131 26.793-110.867h3c7.211 13 20.765 22.987 28 36h2c3.786-17.677 10.303-34.836 12.483-52.905 9.316-55.403-.855-111.44-9.483-166.095 4.402.006 8.265 4.902 12.213 7.76 11.021 8.997 24.133 16.897 38.787 17.24-11.34-24.487-21.789-49.534-30.542-75.124-4.574-12.794-9.658-25.389-15.833-37.493-3.342-6.154-6.815-12.224-10.285-18.303-2.642-5.13-8.588-11.23-9.34-16.08 11.581-.045 23.206.245 34.661 2.016 10.435.943 21.998 5.18 31.339 6.984 3.988-38.506-9.446-83.871-25.932-114.651C1941.702 843.6 1914.272 813.325 1877 804c.476-4.093 5.547-7.458 8.102-11.354 10.478-12.012 20.2-25.255 24.355-40.853 3.806-16.617 2.957-34.194-.457-50.793-28.934 14.537-57.554 33.652-90 40 .43-3.472 3.999-6.936 5.984-10.484 16.732-23.582 29.471-50.151 37.016-78.016-12.472 3.216-24.437 10.903-36.75 15.184-18.452 7.996-36.885 16.037-55.348 23.982-9.203 4.002-18.475 7.805-27.592 11.994-8.658 2.725-19.67 9.865-27.31 10.34 7.604-39.984 28.982-75.995 51-109.5-30.59-10.875-69.954-8.92-98.046-.615-29.784 9.38-56.474 26.86-80.42 46.468-4.537 3.104-8.709 8.947-13.534 9.647.053-24.523 14.496-51.005 24-70.5-17.212 2.09-34.518 8.544-49.282 17.801-14.687 9.914-28.225 26.022-38.01 38.788-5.588 8.64-12.284 17.093-15.708 26.911h-4c-8.585-16.951-23.045-31.076-38.939-41.26-16.977-9.143-39.684-14.418-57.193-15.896-21.261-1.665-42.547-2.86-63.661-5.926-19.963-2.112-41.766-13.256-55.707-24.918-8.54 20.806-2.603 46.734 10.818 64.073 2.559 3.293 5.13 6.578 7.937 9.65 2.825 3.23 7.375 6.388 7.745 10.277-49.031.051-97.336-11.138-143-28-1.958 9.232-4.352 18.573-2.72 28.15 1.805 13.249 8.983 24.794 16.788 35.273 3.681 5.256 8.042 9.955 12.132 14.86 3.51 4.924 10.668 9.081 10.8 14.717-39.55-1.49-79.976-2.436-118.112-14.171-4.714-1.404-5.868 7.8-6.78 10.428-3.322 16.721 4.62 36.232 11.877 49.192 4.001 7.1 8.364 14.018 13.48 20.381 2.507 3.315 5.285 6.404 7.888 9.637 2.276 2.902 6.112 5.848 6.55 9.395q.05.53.097 1.138c-28.26 8.247-51.502 29.002-67.864 52.755-16.006 24.9-23.824 54.372-26.822 83.594-2.162 15.128-2.427 30.39-2.314 45.651m151 14.5c-10.404 37.548-8.898 78.785 1.906 116.143 10.303 34.988 28.944 67.079 50.988 95.883 33.636 44.2 76.965 80.352 124.082 109.375 2.313 1.413 4.869 2.633 6.579 4.816 1.791 1.66 1.158 5.309 1.468 7.922 1.969 40.283 20.055 80.575 51.089 106.946 46.72 42.377 122.895 46.58 173.554 8.415 24.269-17.395 42.731-42.44 52.74-70.5 5.847-15.236 8.476-31.701 8.649-47.95.179-7.044 10.523-10.186 16.24-14.714 6.406-3.96 12.584-8.245 18.76-12.54 37.647-26.322 72.054-57.905 99.585-94.813 20.769-27.41 38.296-57.85 48.21-90.94 9.092-27.265 10.909-56.386 8.558-84.838-.234-10.357-3.45-20.27-4.907-30.425-.63-7.845 10.883-12.363 15.431-18.976 19.283-21.49 37.353-45.407 45.939-73.453 4.581-15.442 5.967-32.44 1.19-48.043-4.227-14.696-14.048-27.083-26.387-35.783-27.714-20.74-65.917-17.668-95.685-3.953-10.979 5.084-21.765 10.61-31.768 17.415-8.935 5.456-16.32 12.947-24.33 19.496-3.689 1.86-9.567-3.435-13.062-3.815-34.344-13.084-71.923-16.068-107.974-9.497-17.184 3.42-36.91 10.155-51.719 16.28-14.857 7.408-30.244 15.652-40.636 29.049h-1.5c-6.584-11.904-22.63-19.37-32.597-25.765-12.934-6.253-26.409-11.36-40.268-15.187-45.51-13.215-95.43-9.133-138.639 9.952-25.337-23.53-62.327-44.893-94.498-48.212-35.995-5.537-76.472 16.254-85.676 52.95-5.754 24.023.878 48.929 12.61 70.095 11.408 20.752 25.797 40.137 43.433 56.04 2.891 2.868 5.757 5.762 8.635 8.627m19 1615c3.965 4.272 5.854 12.3 10.5 17.5 63.393-17.261 126.912-36.895 187.238-63.506 50.787-22.605 100.546-48.019 146.436-79.603 41.01-26.836 79.88-56.907 116.181-89.795 62.383-57.998 116.361-125.25 160.802-197.837 7.734-13.273 16.448-29.144 24.709-40.57 16.186-25.12 48.751-42.43 64-65.06 16.888-25.8-4.015-54.232-18.888-71.665-14.458-18.237-32.894-32.975-51.221-47.057-29.319-19.262-72.985-50.59-112.312-24.564-25.528 19.11-57.822 23.87-88.311 29.135-93.54 15.039-187.587 27.06-281.845 36.476-18.846 1.68-37.689 3.268-56.553 4.655-28.922 2.207-60.003 4.19-86.752-9.62-11.286-6.074-23.103-15.627-32.5-22.615-5.226-4.117-10.447-8.27-15.436-12.653-5.578-5.999-10.67-.043-16.048 1.279-2.858 23.134-1.583 46.882 4.154 69.6 3.659 15.762 11.92 29.983 20.773 43.287 13.184 21.145 30.821 38.834 49.724 54.785 19.351 15.064 45.148 26.802 70.008 17.914 10.878-3.731 22.326-11.14 31.541-16.142 21.51-10.328 44.311-17.599 67.453-23.36 43.423-12.301 87.479-22.082 131.475-32.017 38.832-7.85 77.445-17.034 116.745-22.362 8.869-1.516 17.806-2.296 26.754-3.083 8.166-1.101 19.693-.582 20.952 8.526 1.235 8.005-2.54 15.596-4.79 23.018-20.272 57.476-49.814 111.252-82.969 162.165-51.632 75.007-112.332 143.97-181.621 203.164-33.735 29.271-68.964 56.967-106.105 81.784-36.563 25.078-75.13 47.171-114.094 68.221m-.5-1660.5c6.922-11.372 12.942-23.512 21.61-33.8 8.595-11.147 19.029-20.7 28.89-30.7-14.94-10.478-34.895-22.401-52.34-22.358-9.273.678-18.444 5.291-24.344 12.512-5.825 7.836-6.421 17.96-4.619 26.991 1.736 9.498 7.081 17.612 12.599 25.25 5.51 7.795 11.457 15.354 18.204 22.105m37.5 797.335c11.04 25.063 24.697 49.146 40.109 71.84 12.195 17.171 26.493 33.343 44.549 44.544 28.457 18.21 63.444 18.066 95.708 16.393 32.87-1.866 65.655-5.642 98.278-9.955 74.092-10.721 148.507-21.464 221.093-40.224 12.068-3.29 27.115-8.774 34.331-18.39 15.602-19.823 12.886-50.126-2.33-69.227-13.71-17.428-35.37-25.823-56.067-31.159-19.897-5.006-40.465-7.239-60.953-7.157-8.981-.871-17.54 1.297-25.36 5.64-29.053 12.766-58.885 23.366-89.646 31.3-22.896 6.738-46.068 12.489-69.31 17.843-37.664 7.475-76 9.243-114.286 8.182-18.58-1.041-37.31-1.925-55.685-4.968-17.291-3.838-34.237-9.917-49.54-18.957-1.39-.757-3.01-1.68-4.428-2.04-2.087 1.797-4.426 4.93-6.463 6zm94.488-755.922c.463 15.405 9.345 29.554 23.141 36.37 14.326 8.29 32.413 4.515 44.094-6.389 8.053-7.022 13.003-17.042 13.559-27.651.76-10.697-3.752-21.692-11.265-29.218-7.27-7.687-17.392-12.923-28.065-13.367-10.912-.488-22.923 5.733-29.537 12.955-7.704 7.007-11.213 17.114-11.927 27.3M1398 1309c17.418.242 38.01-2.29 53.108-7.683 11.688-4.504 22.453-10.93 31.914-19.131 3.627-2.74 7.076-8.292 11.421-7.62 12.247 10.628 24.785 21.5 40.617 26.551 17.103 5.418 34.972 8.344 52.94 7.883v-30c-24.465.859-51.493-1.942-69.734-20.237-3.523-3.394-9.047-7.729-4.636-11.355 16.666-9.977 31.27-28.338 40.385-43.3 9.32-15.54 17.485-33.006 17.971-51.508.864-8.098-3.679-16.31-11.758-18.61-15.369-4.623-31.735-3.838-47.548-4.61-14.267-.562-28.516-.481-42.766.093-12.147.257-24.333.505-36.348 2.556-9.165 1.434-20.142 6.573-19.492 19.518 2.241 34.844 23.426 65.017 48.058 87.999 3.08 2.94 6.868 4.936 10.254 7.445 1.258 1.115 3.327 2.155 3.12 4.257-8.067 10.678-22.148 19.588-33.687 23.251-7.196 2.006-14.574 3.408-22.026 4.018-6.729 1.295-16.46-.502-21.793 1.483zm192-296.239c-1.269 21.219 21.76 41.103 40.06 40.236 21.595.79 40.374-19.263 40.659-40.146.542-21.261-21.195-40.855-40.047-40.714-20.91.011-41.27 18.955-40.672 40.624m163-106.136c3.685 5.754 10.989 8.891 14.724 14.827 6.642 7.996 13.909 15.505 19.663 24.216 6.328 7.664 9.887 17.05 15.113 25.332 12.759-13.087 26.884-31.03 31.131-47.575 6.178-21.931-11.505-40.017-31.557-39.287-18.364 1.338-34.255 12.098-49.074 21.862z" style="fill:#dcf;fill-rule:evenodd;stroke:none"/><path d="M1013 1003c20.064-2.362 39.933-6.622 60-9v1.5c-25.321 30.858-36.19 70.64-44.7 108.754-3.841 20.631-7.146 41.404-8.015 62.405-.531 20.778-1.3 45.692 3.215 64.341 16.456-13.72 31.877-28.85 48-43-5.181 34.487-8.493 70.37-2.153 105.155 2.434 17.259 10.226 33.032 14.618 49.715 3.984 16.659 5.639 34.256 2.035 51.13 18.524.944 29.622-12.22 40.5-25 20.702 65.564 61.607 128.95 124 162 3.787-13.57 4.774-30.77 9-43 12.63 25.736 25.74 51.655 44.454 73.68 9.065 10.967 21.656 22.17 31.588 30.53 10.684 8.252 24.472 19.044 37.458 19.79v-38h1.5c18.487 18.938 42.614 30.761 63.166 46.999 22.039 15.862 37.697 38.264 55.834 58.001 21.407-28.163 48.523-51.495 77.195-72.011 28.089-18.851 58.437-36.237 88.305-51.489-9.965 16.184-21.19 40.048-6.5 54.5 27.571-25.365 57.516-48.467 82.63-76.393 12.957-13.47 25.82-27.01 37.262-41.83 10.079-13.852 24.175-30.809 25.608-47.277l.5-1.5c10.091 18.386 18.916 37.598 29 56 20.542-30.448 33.003-65.564 44.707-100.133 11.79-36.252 20.659-73.356 27.293-110.867 9.715 13 20.882 25.246 31 38 12.71-35.094 18.419-72.73 17.5-110.01-.454-37.31-7.098-74.28-13-110.99h1.5c12.662 12.835 33.066 26.598 50.5 24.5-24.997-47.2-34.68-102.549-67-146 22.272-2.293 44.794 3.404 66 9.5 4.296-38.967-8.614-84.97-25.17-116.238-8.972-16.736-20.176-32.226-33.557-45.71-7.216-6.26-14.304-12.722-22.815-17.25-8.127-5.332-17.557-7.882-26.458-11.302 12.121-12.533 25.639-29.193 30.86-44.543 6.377-18.978 4.26-39.65 1.14-58.957-7.558 2.49-13.67 8.228-20.892 11.44-11.258 5.936-22.332 12.184-34.276 16.68-5.773 2.486-11.475 5.097-17.387 7.212-5.895.941-12.427 5.67-17.445 5.168 20.987-26.01 34.786-57.208 44-89a5.5 5.5 0 0 0-2-.5c-48.53 21.065-97.132 42.962-146 63 9.566-39.2 28.701-75.786 52-108.5V603c-34.846-9.188-72.314-10.557-106.752 1.763-32.259 11.3-60.36 31.951-85.748 54.237-1.812-12.099 5.758-28.064 8.76-37.148 5.148-11.134 9.683-22.676 15.74-33.352-26.345.892-56.237 16.775-71.876 34.867-13.448 13.635-27.29 32.421-34.124 48.633h-2c-8.585-16.951-23.045-31.076-38.939-41.26-16.977-9.143-39.684-14.418-57.193-15.896-21.856-1.705-43.75-2.954-65.456-6.16-21.152-2.036-39.463-14.413-56.412-25.684-4.165 15.126-4.127 34.471.879 48.031 5.273 14.315 15.215 26.106 26.121 36.469-24.314 1.189-49.118-3.891-73.107-7.612-23.158-5.016-46.283-10.968-67.9-20.888-4.518 3.947-3.863 14.043-4.959 19.17-.438 7.084-.065 14.183 2.315 20.922 6.306 21.773 25.021 36.573 37.651 53.908-40.56-1.903-82.207-2.44-121-16-8.02 18.155-4.724 38.936 4.115 56.22 4.118 8.3 9.122 16.097 14.43 23.65 4.462 8.268 13.165 13.976 17.455 22.13-28.26 8.247-51.502 29.002-67.864 52.755-16.006 24.9-23.824 54.372-26.822 83.594-2.36 15.78-2.52 31.72-2.314 47.651m480-93c-11.713-13.763-27.254-24.08-43.923-30.966-26.364-12.348-55.252-17.527-84.065-18.748-28.863.198-58.528 6.002-84.512 18.714-25.863-23.405-57.053-43.138-92.131-48.868-35.536-6.151-76.315 14.426-86.43 50.605-6.87 23.621.465 48.693 11.756 69.628 10.992 20.593 25.367 39.54 42.509 55.394 4.673 4.27 11.228 8.986 8.298 16.388-12.813 53.077-3.293 109.812 23.193 157.22 23.982 44.642 57.92 83.688 96.89 115.815 19.275 16.158 40.167 30.34 61.51 43.566 6.331 3.413 4.73 9.962 5.192 16.045 3.254 43.334 26.064 84.994 61.517 110.298 13.038 9.73 27.75 16.955 43.377 21.401 28.856 8.51 66.037 5.482 90.93-6.163 38.507-16.88 68.225-51.196 81.195-90.972 3.265-11.13 5.858-22.504 6.589-34.102.507-4.338-.557-9.261 1.011-12.973 4.088-4.488 11.96-7.52 17.617-11.924 17.692-10.923 34.235-23.677 50.279-36.853 30.23-25.268 57.526-54.304 78.877-87.532 35.218-50.88 54.044-115.458 40.493-177.149-.754-3.61-1.73-7.211-2.214-10.874-.76-3.386 2.995-6.302 4.92-8.307 19.459-16.49 34.297-37.852 47.109-59.668 12.255-23.159 19.807-52.157 8.323-77.292-14.433-34.47-56.879-50.024-91.443-40.98-25.516 5.638-52.693 20.97-71.152 35.93-3.85 2.934-7.809 7.038-11.316 9.727-4.675.742-9.025-2.029-13.217-3.643-34.24-13.522-71.92-16.685-107.994-9.942-33.735 7.267-69.593 19.624-93.188 46.225m-310 1720c.976 4.8 5.252 10.358 7.727 15.595 2.929 6.405 11.123 2.181 15.422 1.225 43.401-11.311 86.153-25.087 128.148-40.786 44.189-16.39 86.904-36.52 128.378-58.765 69.725-38.994 135.696-85.839 193.572-140.98 44.49-41.216 82.956-88.873 118.138-138.145 12.434-17.88 24.476-36.078 35.244-55.015 9.506-17.463 19.82-34.56 33.287-49.269 12.764-11.958 25.896-23.634 38.885-35.356 11.227-9.764 21.459-23.894 19.511-39.704-2.946-26.539-25.685-50.332-41.787-66.775-14.127-14.066-30.186-26.069-46.699-37.134-24.46-15.807-54.321-32.302-84.672-24.653-14.446 3.817-25.45 14.805-38.956 20.61-13.945 5.951-28.784 9.648-43.68 12.226-84.97 16.028-171.062 25.338-256.823 35.808-43.795 4.84-87.701 9.14-131.723 11.067-21.943.595-44.834-2.597-63.88-14.245-16.795-10.983-32.447-23.596-47.592-36.704-3.467 2.043-8.306 4.597-12.5 6-2.88 23.175-1.873 46.956 3.699 69.757 3.563 16.079 11.545 30.742 20.648 44.27 13.33 21.446 31.077 39.52 50.304 55.645 10.098 7.42 20.794 14.381 32.963 17.943 12.427 3.7 26.068 4.507 38.48.166 10.96-3.706 22.485-11.062 31.74-16.14 21.271-10.386 43.925-17.467 66.825-23.304 43.305-12.164 87.167-22.079 131.022-31.96 38.467-7.861 76.7-16.975 115.657-22.267 9.107-1.63 18.277-2.665 27.495-3.274 6.199-.548 19.45-2.2 20.803 8.827.532 7.812-3.961 16.31-5.702 23.036-20.528 57.188-50.006 110.703-83.281 161.329-51.428 74.555-112.064 142.837-180.845 201.808-33.606 29.163-68.71 56.713-105.714 81.443-36.803 24.423-74.647 47.859-114.094 67.721m2-1657c4.5-12.387 14.295-24.998 21.11-34.8 4.266-5.84 9.219-11.117 14.365-16.175l7.5-7.5c2.392-2.186 5.32-5.862 8.025-6.525-1.339-3.976-7.445-6.183-10.904-9.25-12.327-7.43-25.544-14.792-40.274-15.64-11.957-1.063-25.839 6.448-30.838 16.259-5.597 11.677-3.477 25.387 1.721 36.775 3.457 7.037 8.474 13.184 12.845 19.634 5.44 5.474 10.055 14.82 16.45 17.222m34 794.25c11.824 26.629 26.182 52.477 42.881 76.454 13.302 17.679 28.412 34.924 48.45 45.202 32.039 16.66 69.613 14.997 104.426 12.411 35.17-2.69 70.267-6.666 105.159-11.802 36.125-5.075 72.22-10.513 108.016-17.498 31.947-6.189 64.094-11.73 95.45-20.563 12.115-3.165 26.786-9.284 33.605-19.119 15.69-20.296 10.737-54.623-4.316-71.215-14.048-17.343-36.399-25.239-57.17-30.491-19.96-5.087-40.638-6.707-61.153-6.649-14.403-1.27-31.434 9.14-47.099 14.972-27.822 10.807-56.627 19.099-85.406 26.948-44.186 12.702-89.616 21.543-135.82 21.1-45.884.725-94.694-.29-135.149-25.057-1.11-.493-2.259-1.067-3.374-1.943-2.554 2.304-5.658 6.24-8.5 7zm95.468-754.76c.27 12.743 5.468 25.264 16.14 32.597 9.745 8.391 23.638 11.415 36.056 7.826 21.611-5.718 35.97-29.646 29.336-51.25-5.626-21.464-30.128-35.598-51.379-28.958-17.224 5.285-29.836 21.649-30.153 39.786M1397 1310c18.582.116 37.465-1.52 55.108-7.683 7.737-3.144 15.373-6.667 22.195-11.545 3.439-2.554 6.83-5.175 10.11-7.92 3.047-2.167 6.137-6.733 9.087-7.852 11.672 11.763 25.349 21.816 41.117 27.295 17.563 5.62 35.956 8.203 54.383 7.705v-32c-14.852.375-29.836-.235-44.158-4.614-13.333-3.576-23.56-13.318-32.842-22.886 25.408-16.313 43.582-42.002 55.112-69.485 2.707-7.693 5.324-17.044 5.794-24.546.501-6.128.493-12.73-3.403-17.87-5.965-6.88-16.087-7.654-24.466-8.628-9.46-1.029-18.914-1.442-28.422-1.51-18.791-.798-37.609-.51-56.385.267-9.016.278-18.059.86-26.984 2.19-7.548 1.055-17.272 4.356-19.494 13.694-3.395 20.981 8.353 44.778 17.5 60.695 10.491 16.696 26.451 34.14 41.877 43.754.684.42 1.257.943 1.871 1.439-9.543 9.64-20.427 18.953-33.713 22.85a114 114 0 0 1-21.955 4.119c-6.893 1.393-16.863-.49-22.332 1.531zm192-297.143c-1.1 22.31 20.398 41.255 41.425 41.564 22.228.031 41.74-19.616 41.378-41.823-.014-21.876-19.91-41.564-41.723-41.537-21.512-.07-42.29 19.513-41.08 41.796m161-106.482c20.08 19.231 40.653 40.111 51 66.625h1.5c13.253-13.463 28.098-31.883 32.26-49.12 2.402-9.963 1.049-21.492-5.958-29.473-6.668-7.175-16.499-11.498-26.308-11.344-19.745.808-36.772 12.947-52.494 23.312" style="fill:#666767;fill-rule:evenodd;stroke:none"/></svg>