<svg xmlns="http://www.w3.org/2000/svg" width="3000" height="3000"><path d="M328 2803h2344c-118.785-721.214-240.618-1442.068-360.03-2163.199-7.528-45.17-15.046-90.339-22.588-135.492-1.756-10.718-3.574-21.44-5.367-32.15-1.463-5.102-.632-13.609-5.65-15.42-82.419-27.818-165.08-54.96-247.546-82.639-144.35-48.044-288.615-96.253-432.954-144.3-27.19-9.095-54.376-18.14-81.566-27.195-6.024-1.707-14.13-5.746-19.294-4.368-99.967 33.09-199.81 66.647-299.74 99.834a5130220 5130220 0 0 1-448.968 149.67c-9.274 3.513-19.03 5.778-28.13 9.725-3.665 1.962-2.298 9.57-3.876 12.727-22.54 135.51-45.194 271.003-67.739 406.508C542.266 1518.848 433.622 2160.802 328 2803m663-1367.5c15.645 49.119 31.564 98.302 47 147.5 12.306-3.424 25.721-14.95 28-27 61.28-25.51 120.414-56.434 180.36-84.92 29.83-15.452 60.186-29.967 89.519-46.324 14.258-7.987 29.059-14.999 43.172-23.23 7.237-3.755 14.197-7.937 21.4-11.733 3.79-2.231 7.704-4.26 11.501-6.463 3.967-2.03 2.19-7.676 2.048-11.33-42.755 5.71-85.083 15.572-128 20v-201h77v3c-8.542 2.756-16.476 7.689-25 10.5 29.519 43.546 58.13 87.854 87.5 131.5 6.24-3.943 12.14-9.017 14.907-16.094 3.177-6.035 2.871-14.145 4.717-19.907 21.547-41.307 45.469-81.637 64.876-123.999h3c-4.962 82.118-20.364 165.399-58.706 239.002-36.663 70.532-92.827 130.776-159.294 173.998v1.5c2.608 3.024 5.221 8.163 10.492 6.423 4.65-1.516 9.183-3.44 13.795-5.037 64.973-24.987 127.673-58.502 179.214-105.891 51.298-48.113 90.663-108.765 111.023-176.303 14.782-48.132 23.555-98.079 26.51-148.316 3.02-41.05 1.563-82.285 1.966-123.383V665c8.172-1.098 16.332-3.185 23.471-7.38 8.19-4.606 11.094-11.628 14.529-19.12-26.465-4.508-53.834-4.472-80.458-8.262-27.24-1.702-54.282-5.925-81.542-7.238v263h-2.5c-15.724-19.828-34.323-37.206-56.04-50.344-10.374-6.925-21.299-12.99-32.408-18.63-5.725-3.003-11.558-5.798-17.508-8.292-5.538-3.582-12.553-4.1-17.544.766 20.593 46.48 31.433 97.35 37.654 147.669 1.641 13.145 1.325 26.458 1.716 39.638-.363 4.983-.653 10.073.103 15.014 3.62 6.35 13.19 11.584 17.613 15.438 10.296 6.873 22.614 11.74 35.156 10.938 6.194-.008 12.284-1.085 17.99-3.517 5.086-1.72 11.24-6.414 15.768-6.68v92c-17.9 7.275-34.583 17.65-52.001 25.997-12.944 6.78-26.215 12.86-39.382 19.157-5.598 3.482-9.569-2.646-12.747-6.546-24.455-27.499-49.825-54.138-75.37-80.608a3972 3972 0 0 0-23.117 37.499c-3.862 6.465-8.066 12.702-11.74 19.28-1.838 3.255-4.087 6.221-5.87 9.507-2.05 3.179-3.753 7.487-7.773 7.714v-149.998c-1.55-9.62 7.838-8.308 14.502-8.866 24.268-3.672 48.383-10.507 70.347-21.578 5.178-1.967 7.658-5.633 7.143-10.707.023-77.287-.004-154.578.008-231.851 9.564-2.484 23.072-4.722 30-15.5-33.812-25.923-68.49-50.861-102.5-76.5-15.924 16.807-32.294 33.314-48.292 50.03-3.263 2.759-9.18 1.759-13.895 1.97h-55.8c-6.45-.116-13.277.697-19.374-1.946-40.058-15.692-80.733-30.09-120.639-46.054-1.426 122.539.26 245.402-.5 368 22.945-.015 46.445.855 68.724-5.78 9.707-2.972 20.76-7.66 28.595-12.788 4.153-2.763 9.145-5.953 12.523-9.062 4.06-4.01 2.934-9.248 3.158-14.37h15v443c-12.675.988-27.323 4.716-39 5v-318c.338-3.545-.585-8.023.976-10.772 4.02-2.923 9.956-3.044 13.708-6.647 3.569-2.989 6.286-7.03 7.316-11.581-38.71-2.624-77.323-6.885-116-10v371c-17.091.904-33.879 5.247-51 6zm151 869.5c.273 15.696.278 31.793-5.404 46.708-8.892 25.668-25.135 48.98-46.072 66.268-17.873 15.168-40.839 23.26-57.752 39.766-15.329 14.005-26.867 33.823-24.988 55.209.466 17.631 7.94 38.256 18.822 50.353 22.04 24.88 60.934 33.48 91.657 20.938 45.285-19.659 68.316-69.892 71.632-116.536 4.961-50.366-10.225-100.162-30.434-145.515-1.823-4.102-3.945-8.038-5.92-12.056-2.081-5.33-6.724-5.57-11.541-5.135m13 0c31.412.143 63.485-.11 93.702-9.74 13.825-4.28 27.376-9.736 39.412-17.855 5.774-3.612 12.542-8.577 15.418-14.277.964-7.987.129-16.112.468-24.128h496c-3.894 36.995-7.33 74.125-13.463 110.847-4.262 27.952-9.686 55.817-17.234 83.072-5.527 18.486-12.367 41.295-24.561 54.805-11.883 13.62-26.984 14.867-42.586 14.276-49.447-.055-98.995-3.25-148.156-8 .316-5.143 5.28-10.624 6.922-16.438 8.348-22.185 5.456-47.219-4.813-68.293-14.053-30.373-41.005-52.631-68.634-70.074-13.86-7.726-30.708-16.044-44.276-21.346-7.977-3.07-15.9-6.228-24.005-8.94-7.062-2.578-16.223-7.238-23.194-.409 23.275 47.7 41.237 99.075 46.475 152.244.951 7.366.84 14.82 1.252 22.217.158 6.257-.708 13.147 4.61 16.267 15.072 13.034 34.262 23.059 54.807 21.63 9.77-.737 21.22-3.937 28.837-8.783 4.112-2.266 7.596-5.45 11.298-8.274 3.607-2.468 6.863-8.457 10.721-8.801v9c33.353 6.152 73.013 18.436 98.115 37.579 13.69 10.094 25.295 24.248 28.846 41.265 4.914 18.307 5.082 37.381 5.039 56.156 34.844-.078 70.107-1.825 104.01-10.435 23.204-5.888 44.565-17.235 62.986-32.36 27.176-24.56 43.547-58.829 54.183-93.27 11.82-35.61 17.927-72.807 24.44-109.625 6.45-42.595 12.007-85.368 15.381-128.31 15.445-1.532 31.071-6.99 42-18.5-41.634-34.186-82.549-69.874-124.5-103.5-16.292 15.971-33.856 30.532-49.945 46.723-6.598 5.669-12.583 12.022-19.307 17.557-5.238 6.464-15.76 4.543-23.066 4.72H1596v-127h245.4c10.027-.274 20.445.907 30.209-2.069 3.942-1.156 7.858-2.84 10.731-5.877 2.295-2.1 5.339-6.601 3.027-8.636-40.608-35.202-84.495-66.77-127.867-98.418-20.108 24.484-39.745 49.407-59.947 73.826-4.701 6.088-9.563 14.579-19.1 13.174H1596v-128h226.2c12.469-.108 24.953.287 37.4-.537 9.712-.595 23.549-3.079 27.4-15.002-41.118-35.52-85.46-67.87-129.5-99.461-20.42 24.168-39.783 49.3-59.988 73.65-4.63 5.615-9.235 14.35-18.807 13.35H1596v-127h264.6c11.13-.44 22.347.578 33.441-.412 7.78-1.485 17.843-5.69 19.967-12.608 1.519-3.315-4.564-6.083-6.098-8.244-41.828-34.14-85.206-66.426-128.41-98.736-23.793 31.608-51.31 61.121-74.5 93h-361.8c-8.74-.686-19.435 1.05-27.271-1.093-53.608-19.639-107.47-38.988-160.929-58.907zm5-1366h103V716h-78c-8.138 1.08-17.097-1.413-25 1zm96 1372.5c5.924 25.466 5.8 52.759 6 78.892.544 23.269-1.15 46.448-4.483 69.464-1.981 19.26-7.832 38.288-12.036 56.924 14.792 28.396 51.094 46.23 82.24 35.722 22.817-7.737 39.614-27.042 48.217-48.962 13.9-36.617 3.83-77.883-16.934-109.533-19.016-30.966-46.837-55.309-76.673-75.433-3.674-2.641-7.52-4.977-11.386-7.31-4.082-3.566-8.51-2.872-12.833-1.08-.773.315-1.427.864-2.112 1.316m48-410.5h146v-127h-146zm0 156h146v-128h-146zm0 155h146v-127h-146zm237 82.438c26.475 22.285 48.157 49.884 65.623 79.663 6.628 11.484 12.197 23.584 17.48 35.71 2.268 5.297 3.583 10.936 5.457 16.363 2.226 4.85 1.612 12.591 5.583 15.548 17.242 10.55 39.256 16.734 59.034 9.713 30.337-8.559 49.708-41.43 43.993-72.205-5.567-30.145-29.951-52.704-56.413-65.346-20.12-10.427-42.343-16.336-64.589-19.947-11.468-1.76-23.017-2.862-34.567-3.89-6.213-.38-12.415-.49-18.621-.775-5.739.504-13.276-1.555-17.702 1.075-1.816 1.15-4.015 2.558-5.278 4.09M1947 1340c-5.678 18.435-11.544 36.926-18.16 55.047-5.976 14.815-12.256 34.132-23.81 44.056-13.414 8.721-33.286 4.985-46.887 5.897-12.768-.265-31.76 3.178-35.595-11.115-2.772-12.345-.84-25.257-1.548-37.77V1129h3c10.311 23.501 21.05 47.088 28.734 71.675 6.34 19.275 10.763 39.082 14.688 58.954 1.757 6.498.045 15.567 6.667 20.6 19.72 15.63 46.839 25.227 71.408 15.082 24.334-8.663 40.83-32.296 43.746-57.489 3.447-26.871-8.067-53.696-23.561-74.899-15.342-21.162-36.535-37.202-58.24-51.28-17.312-10.687-36.016-18.874-54.922-26.24-10.5-3.446-20.945-7.252-31.52-10.403v-74c32.971-18.245 63.712-41.15 94.877-62.395 15.678-11.312 31.223-22.826 46.417-34.776 3.788-2.68 7.82-6.389 11.47-8.593 2.89-2.262 7.518-.035 10.436.658 10.823 2.985 23.346.033 31.8-7.394-23.735-17.58-47.91-34.57-71.615-52.182-12.153-8.677-24.077-17.686-36.19-26.41-6.115-4.418-12.231-8.779-18.298-13.25-5.854-3.092-12.432-10.515-17.897-11.658-11.497 58.712-32.273 115.405-48 173h-3V668c14.609-.798 35.041-8.158 37-27-57.062-5.113-113.93-13.126-171-18v754.649c-.045 31.409-.181 62.822.678 94.206.676 24.524 2.936 55.201 15.226 74.928 11.986 18.956 34.395 26.836 55.606 29.09 20.663 3.213 41.659 1.75 62.46 2.127 35.273.202 70.897.738 105.58-6.813 22.525-4.34 49.644-15.112 62.554-32.83 11.018-14.751 15.798-34.34 11.859-52.508-2.627-13.612-10.776-25.685-22.226-33.535-4.007-2.954-7.948-6.05-12.267-8.523-8.763-3.38-5.843-17.948-6.868-24.984-.897-14.444-1.251-28.895-2.275-43.316-.507-7.417-.733-14.823-1.071-22.247-.02-3.642-.29-7.283-.672-10.882-.907-3.039-6.416-1.953-8.584-2.362" style="fill:#fedda9;fill-rule:evenodd;stroke:none"/><path d="M1037 1584c13.44-1.577 27.447-15.013 30-27 60.45-24.869 118.45-55.75 177.65-83.424 14.595-8.183 29.91-15.024 44.73-22.767 42.175-23.639 86.461-43.97 127.62-69.309-1.646-2.597-1.428-6.97-2-10.5-42.8 5.504-85.134 14.942-128 20v-199c24.929.76 50.151-.926 75 .5-7.47 2.778-16.495 8.522-25 10.5.919 5.642 7.186 11.242 10.109 17.174 25.024 39.205 52.28 77.492 76.891 116.826 11.634-2.511 18.563-15.25 20.238-25.947 1.166-12.582 9.649-22.845 14.879-34.017 18.113-32.992 35.731-66.286 52.383-100.036-3.932 81.965-20.914 165.48-59.242 238.694-17.839 35.042-41.275 67.167-67.84 96.045-27 29.883-59.608 54.017-91.418 78.261 1.58 3.527 6.365 6.757 7 10 49.294-16.638 96.932-39.207 140.67-67.427 65.323-42.263 119.726-102.754 151.593-174.023 33.36-75.646 45.498-159.12 46.455-241.22.805-150.447-.147-300.892.282-451.33 15.354-2.448 34.612-7.594 38-29-54.68-4.355-109.239-11.691-164-15-.76 87.568.926 175.55-.5 263-23.71-29.802-54.617-52.81-88.897-69.19-4.624-2.3-9.166-4.721-13.918-6.737-4.067-1.235-7.707-4.43-12.079-4.574-3.163.372-6.993 1.568-9.313 3.408-2.075 2.289 1.43 6.832 1.792 9.154 9.058 21.64 15.996 44.105 21.411 66.916 6.73 28.434 12.114 57.382 14.17 86.569.669 11.811.136 25.446.334 36.129-1.12 8.678 8.357 14.594 14.44 19.003 10.32 7.89 22.697 13.152 35.748 13.756 12.492.622 24.878-3.119 35.255-10.03.532-.122 1.059-.214 1.557-.404v90c-15.622 6.801-33.519 16.47-47.406 23.663-15.33 8.483-31.696 15.127-47.094 23.337-27.734-30.26-54.886-61.026-84-90-17.103 24.022-29.901 51.016-47 75-1.426-41.455.26-83.334-.5-124.878.014-8.002-.017-15.976.01-23.967-.973-9.17 8.866-7.055 15.002-8.08 24.267-3.72 48.35-10.574 70.282-21.753 5.685-2.151 7.068-5.864 6.706-11.102V730c11.407-2.34 24.18-6.063 31-16.5-34.003-27.19-70.276-51.575-104.5-78.5-8.055 8.444-16.877 16.205-24.338 25.19-6.759 7.65-14.837 14.101-21.3 22.012-5.533 8.192-18.51 5.336-26.907 5.798-17.764-.01-35.51.013-53.259-.007-11.731-.428-24.025-8.18-34.199-10.948-33.372-11.626-65.842-26.388-99.497-37.045v370c23.035-.011 46.579 1.007 69.043-5.275 10.454-3.001 20.616-7.243 29.861-13.02 4.272-2.874 8.673-5.62 12.577-8.98 4.409-3.99 3.363-9.425 3.519-14.725h13v441c-12.399 1.005-24.595 4.177-37 5v-318c.454-3.038-.84-8.537 2.373-9.597 8.099-3.546 19.259-6.455 19.627-19.403-39.397-2.292-78.613-7.448-118-10v371c-17.095.903-33.875 5.248-51 6 6.111 25.247 15.856 49.752 23.072 74.737 7.841 25.122 15.913 50.214 23.928 75.263m114.5 719c-3.427 2.195-8.322-.305-11.5 2.5 4.84 30.422-8.053 61.868-26.002 85.98-15.492 20.698-36.238 36.862-59.506 47.917-18.602 12.02-36.993 27.895-44.587 49.505-12.522 37.98 9.328 85.25 48.238 96.986 15.272 5.229 32.056 6.993 47.946 3.405 25.832-5.67 47.455-24.133 61.147-46.182 22.261-34.996 27.137-77.692 23.18-118.136-4.296-40.206-17.593-79.27-35.6-115.346-1.178-2.188-2.181-4.43-3.316-6.629m2.5 3c31.74.173 64.095.073 94.697-9.4 13.984-4.45 27.823-9.711 40.04-17.97 5.918-3.627 12.82-8.754 15.795-14.502.964-7.987.129-16.112.468-24.128h494c-9.156 73.395-14.31 148.881-39.652 219.112-5.826 15.753-15.05 32.672-31.845 38.843-13.959 4.881-29.234 2.226-43.719 3.04-42.95-1.447-86.072-3.498-128.784-7.995 9.887-17.243 15.023-37.761 10.549-57.67-4.592-28.548-21.493-53.4-43.064-71.948-20.325-18.655-44.383-32.61-69.79-43.064-9.58-4.475-19.77-7.488-29.568-11.404-4.948-1.65-9.862-3.42-14.863-4.86-5.816-2.245-9.598 1.105-14.264 2.946 23.113 48.186 42.076 99.597 47.285 153.264 1.026 7.29 1.067 14.642 1.377 21.974.473 5.857-.763 13.572 3.484 17.016 15.006 13.317 34.027 23.553 54.683 22.726 20.005-.057 39.73-9.838 51.671-25.98.832 2.43.282 5.999.5 9 33.353 6.152 73.013 18.436 98.115 37.579 13.69 10.094 25.295 24.248 28.846 41.265 4.914 18.307 5.082 37.381 5.039 56.156 35.42-.107 71.311-1.63 105.797-10.381 23.598-5.995 45.396-17.536 64.005-33.106 27.115-24.938 43.242-59.461 53.896-94.096 11.595-35.998 17.86-73.458 24.331-110.606 6.19-41.775 11.74-83.695 14.971-125.811 15.95-1.536 31.969-7.413 43-19.5-42.026-35.287-84.084-70.71-126.5-105.5-16.028 16.155-33.78 30.429-49.738 46.65-6.626 5.667-12.738 11.866-19.343 17.54-6.28 7.342-14.175 6.117-22.441 5.81H1597v-125h227.4c12.55-.26 25.136.335 37.663-.225 10.082-.162 22.351-4.266 26.937-16.275-41.794-36.385-87.078-68.525-131.5-101.5-20.241 24.29-39.66 49.277-59.908 73.554-5.387 6.066-9.864 15.042-18.37 14.446H1597v-126h228c12.473-.025 24.953.242 37.388-.65 11.306.204 21.97-5.497 26.612-15.85-41.317-36.802-87.196-68.63-131.5-101.5-20.822 23.803-39.697 49.362-60.125 73.516-4.977 6.173-10.433 15.19-17.903 14.484H1597v-125h249.6c13.807-.003 27.63.004 41.435-.002 10.35.14 24.557-3.74 28.965-16.53-44.297-37.428-91.529-71.21-137.5-106.468-12.827 15.674-25.541 31.48-38.31 47.203-11.844 15.841-26.253 30.462-37.19 46.797h-362.4c-8.582-.455-19.128 1.058-26.648-1.81-53.88-18.611-106.893-40.29-160.952-58.19zm7-1368h101V717h-76.8c-7.982.919-17.743-1.252-24.2 1zm94 1372.5c7.227 41.692 7.53 91.966 3.726 130.539-1.697 15.805-3.827 31.595-7.528 47.074-1.61 6.73-2.969 13.524-5.018 20.129-.5 2.735-1.77 6.347-1.693 8.63.551 5.792 7.004 10.206 9.908 14.66 15.099 16.206 36.904 27.815 59.726 24.946 34.4-3 60.867-34.045 66.971-66.435 7.535-34.436-3.362-69.996-22.157-98.698-22.302-34.53-54.924-61.482-89.717-82.716-4.116-2.402-11.128-.005-14.218 1.871m50-410.5h144v-125h-144zm0 156h144v-126h-144zm0 155h144v-125h-144zm234 82.75c39.395 37.527 76.015 82.662 90.507 136.637.949 3.521 1.276 7.255 3.003 10.516 20.55 16.38 52.347 19.176 75.25 6.176 24.476-12.625 36.074-42.3 31.454-68.579-6.909-36.28-39.772-60.728-72.354-72.736-36.163-14.037-75.505-16.981-113.885-17.763-2.672.021-5.362.048-7.682 1.352-2.122 1.12-4.202 3.023-6.293 3.647zM1946 1339c-5.611 18.245-11.416 36.549-17.958 54.494-5.863 14.767-12.164 33.716-23.198 43.96-12.793 9.38-32.603 5.751-45.904 6.546-12.933-.054-32.107 3.047-35.552-11.658-2.516-12.407-.722-25.279-1.388-37.826.76-88.111-.926-176.492.5-264.516 13.504 27.665 25.002 56.527 33.528 86.112 3.259 11.447 6.119 23.02 8.426 34.69 1.03 5.255 2.227 10.494 2.89 15.805.513 4.597.676 9.843 4.237 13.266 13.56 11.221 30.36 19.59 48.21 20.296 26.615 2.014 52.944-13.937 63.76-38.346 12.124-25.039 8.528-55.209-4.226-79.159-18.026-38.112-59.969-68.1-93.659-84.339-15.041-7.623-30.896-13.518-46.838-18.882-5.653-1.656-11.12-4.002-16.828-5.443v-72c33.094-18.363 64.014-41.287 95.27-62.687 15.905-11.28 31.424-23.076 46.785-35.07 3.932-3.006 7.71-6.267 11.976-8.756 6.658.535 13.706 4.318 21.793 2.5 7.141-1.19 15.417-4.779 20.176-9.487-48.051-36.065-97.422-70.48-145.5-106.5-15.01 58.611-31.276 117.374-50 175-1.426-95.916.26-192.048-.5-288 14.606-1.467 36.084-7.423 37-29-28.568-2.76-57.114-6.15-85.668-9.106-29.15-2.405-58.13-7.403-87.332-8.894v757.216c-.055 31.413-.175 62.827.692 94.228.68 24.607 3.101 55.46 15.707 75.098 12.39 18.809 34.973 26.28 56.256 28.484 20.661 3.123 41.72 1.482 62.515 1.974 35.525.202 71.434.795 106.38-6.813 22.711-4.335 49.967-15.298 62.87-33.234 11.233-15.262 15.52-35.315 11.575-53.939-2.615-13.878-10.98-26.07-22.661-34.012-4.133-3.056-8.221-6.205-12.714-8.7-8.264-4.557-4.508-18.076-6.082-25.632-.942-14.625-1.346-29.281-2.327-43.905-.462-7.437-.683-14.885-1.029-22.318-.454-3.383.332-7.673-1.192-10.257-2.632-1.896-7.043-.763-9.99-1.19" style="fill:#000;fill-rule:evenodd;stroke:none"/></svg>