<svg xmlns="http://www.w3.org/2000/svg" width="3000" height="3000"><path d="M1072 2300h-16c-1.23 44.478-7.9 92.173-34.71 129.283-4.66 6.815-11.768 11.529-16.555 18.223-15.739 21.254-30.917 57.982-.67 82.725 18.565 14.917 50.406 11.962 65.884-2.76 27.591-24.467 32.062-63.82 31.051-98.262.342-36.054-10.76-70.918-20.78-105.03-2.437-8.156-5.96-15.982-8.22-24.179m-22-28c27.404.445 55.764 1.572 81.846-8.81 8.668-3.31 16.494-8.456 24.171-13.555 3.222-2.246 7.134-4.944 9.245-7.93 3.292-6.682.763-17.43 1.738-25.933.432-3.167-.914-9.171 2.424-10.325 57.449-1.274 115.09.231 172.576-.447-.974 24.28-2.66 48.844-4.5 73-14.753-12.042-32.618-19.12-50.638-24.541-10.11-3.374-20.653-5.037-31.033-7.217-4.44-.43-11.442-3.118-14.65-.601-3.13 2.372-8.007 5.158-8.179 10.359 20.384 14.515 39.25 39.378 51.467 58.671 6.958 11.693 12.73 24.242 16.075 37.455 1.562 6.03 1.168 13.605 9.178 16.642 5.989 3.415 12.633 4.693 19.28 5.732-7.728 40.395-9.793 84.591-30.871 121.291-11.968 21.12-38.04 18.895-56.5 17.938-21.918-.588-43.75-2.488-65.629-3.729-.417 5.325-1.012 10.657-1 16 24.384 4.591 49.127 16.897 63.472 37.802 7.18 10.65 9.512 23.558 11.268 35.994 1.535 13.69 2.455 27.418 2.26 41.204 26.118.26 52.524-3.118 77.207-11.916 34.772-11.05 63.99-36.473 79.777-69.24 16.863-33.772 25.122-70.852 31.836-107.706 12.036-75.109 17.751-151.166 20.18-227.138 10.099-.996 20.007-3.716 29.283-7.783 6.603-4.576 12.404 5.993 16.357 9.909 7.826 7.829 15.074 16.197 22.944 23.986 3.738 4.276 7.267 8.696 11.518 12.49 3.9 3.236 7.287 9.21 11.898 9.398.548-2.253 2.571-4.022 3.633-6.565 2.117-4.826 1.419-11.426-.024-15.862-2.269-4.353-.037-7.856 1.855-11.578 12.519-27.165 22.722-55.36 34.036-82.995 8.835 50.531 20.538 100.988 36.895 149.7 5.916 18.322 13.133 36.156 20.503 53.925 4.757 8.067.115 14.488-4.552 20.934a722 722 0 0 1-112.24 140.835c-42.749 41.091-91.14 77.159-143.106 105.606-.337 5.389 6.331 9.932 7 14 8.004-.268 15.188-4.694 22.737-6.755 53.437-18.183 105.148-41.637 153.278-71.16 47.388-28.912 91.784-63.32 130.485-103.085a589.3 589.3 0 0 0 84.914 98.797c16.497 14.364 32.565 29.248 50.254 42.203 8.542 6.47 17.137 12.908 26.044 18.863 4.37 3.087 8.678 6.286 13.252 9.05 4.193 1.973 9.099 6.657 13.036 7.087 8.602-29.207 22.741-57.278 43.581-79.74 20.777-22.802 49.122-38.634 79.419-44.26.184-5.735 3.713-12.955-2.505-14.905-5.347-2.006-10.82-3.62-16.2-5.498-40.098-14.11-79.329-30.688-117.167-50.035-36.428-18.593-72.256-39.263-104.128-65.062 30.852-41.14 56.207-86.465 78.166-132.882 10.657-24.276 22.45-48.111 31.204-73.199 2.294-6.71 5.083-13.214 7.322-19.93.717-2.384 1.805-4.624 3.003-6.783 2.484-3.426 10.127-1.159 13.47-2.666 10.47-1.418 25.65-7.287 26.835-21.04-32.749-9.391-65.119-20.202-97.825-29.777-24.601-6.213-48.407-16.317-73.153-21.68-2.036.94-2.005 4.514-2.645 6.046-14.316 72.937-36.685 144.349-66.337 212.49-.997 2.563-2.435 5.478-3.04 7.921h-1.5c-26.579-32.413-48.208-68.938-64.287-107.641-4.59-10.188-8.395-20.677-12.15-31.188-3.02-7.832-5.04-16.006-7.812-23.921-2.457-6.58 1.87-10.977 5.092-15.79 5.028-7.423 9.948-14.92 14.936-22.365 3.605-7 11.96-15.395 12.721-22.095-9.17-1.292-18.142-3.849-27.231-5.552-6.568-.91-14.023-3.353-20.06-3.96-5.595-.871-4.96 7.696-5.387 11.387-1.912 15.16-2.739 30.562-5.01 45.639-4.355 8.369-13.486 15.813-19.663 21.595-21.055 19.599-43.418 38.387-66.149 55.891-28.298-24.682-57.662-48.204-86.312-72.48-3.718-2.795-7.628-6.78-11.27-9-3.269-2.782-7.303 2.547-9.52 4.582-10.552 10.161-20.482 20.965-31.208 30.934-5.717 4.528-10.54 10.035-15.792 15.066-2.507 2.694-5.152 5.2-8.126 7.344-3.733.568-7.496.713-11.272.554v-112h65.4c16.412-.014 32.838.017 49.241-.01 9.372-.09 22.63-1.105 28.744-12.053 4.763-7.46-6.395-15.243-10.62-19.668-17.787-16.022-35.643-31.957-53.846-47.522-4.469-3.504-8.63-7.416-13.113-10.884-4.052-3.12-9.27-8.76-13.806-8.863-6.862 11.946-16.758 22.639-24.417 34.207-8.772 11.012-16.206 23.32-25.583 33.793h-2v-117h65.4c16.412-.014 32.838.017 49.241-.01 9.372-.09 22.63-1.105 28.744-12.053 4.763-7.46-6.395-15.243-10.62-19.668-17.787-16.022-35.643-31.957-53.846-47.522-4.469-3.504-8.63-7.416-13.113-10.884-4.052-3.12-9.27-8.76-13.806-8.863-6.862 11.946-16.758 22.639-24.417 34.207-8.772 11.012-16.206 23.32-25.583 33.793h-2v-114h139.8c11.36.232 28.823.226 34.042-14.373 1.938-5.417-3.615-8.217-6.792-11.152-25.032-22.309-51.15-43.397-77.656-63.935-4.25-3.46-8.576-6.832-12.823-10.293-3.732-2.854-8.042-6.587-12.243-7.755-6.286 3.912-11.084 13.326-16.215 18.655-8.013 9.978-15.784 20.144-23.655 30.219-3.809 5.059-8.01 9.805-11.696 14.96-4.125 4.395-7.57 11.918-13.146 12.515-10.552.444-21.128-.073-31.685.159h-91.583c-6.981-.12-14.27.769-20.877-1.97-21.233-7.762-42.21-16.17-63.411-24.004-21.29-6.68-41.491-17.466-63.06-23.026zm53 20c8.09 34.183 15.023 69.06 15.554 104.41 1.215 26.736.534 53.658-3.889 80.092-5.766 20.275 25.104 32.233 39.431 29.076 14.292-2.193 24.772-13.571 31.35-25.563 19.282-39.697 8.819-87.394-11.141-124.382-12.928-24.938-32.303-45.654-52.272-65.012-5.092-4.77-13.312.865-19.033 1.379m396-1144c4.397 16.755 1.118 34.886-6.566 50.124-13.941 25.666-35.524 46.215-55.304 67.246-15.823 15.62-31.674 31.212-46.105 48.106-10.757 12.144-21.32 24.71-29.56 38.711-24.295 45.544-32.99 97.778-33.465 148.813h214c-.339 9.369.87 20.703-1.594 29.065-2.727 10.477-12.348 11.89-20.012 13.05-16.838 2.81-34.015 1.587-50.973 1.885h-91.129c-22.155.48-44.488-1.117-66.497 1.91-15.114 1.812-32.515 6.475-45.556 11.4-10.419 3.921-20.443 8.899-29.574 15.264-10.27 5.22-7.532 15.3-7.665 23.569V1682h28c2.498-13.956 10.751-26.59 23.537-33.193 23.34-12.97 51.268-11.27 76.908-11.807h125.72c20.809-.512 41.674.636 62.462-.372 17.71-1.4 36.579-9.804 45.873-25.628 7.703 11.939 19.888 20.181 33.7 23.451 13.193 3.431 26.932 2.51 40.403 2.549h146.891c22.657.53 49.78-.642 70.192 4.173 20.565 3.741 40.845 18.701 43.314 40.827h28v-90c.108-6.29 1.495-13.534-6.045-17.654-17.664-12.72-38.682-19.603-59.605-24.58-23.453-5.766-47.611-5.232-71.527-4.766h-107.119c-17.114.214-34.338.67-51.194-2.785-8.032-.717-15.29-6.293-16.157-14.7-.816-8.814-.008-17.694-.353-26.515h213c.747-86.716-4.788-173.541-18.368-259.224-9.163-61.488-22.95-122.87-48.458-179.84-35.548-81.305-92.904-154.77-168.717-201.958-19.105-11.673-39.46-21.323-60.424-29.094-7.639-3.354-20.486-3.268-20.022-12.785-.171-29.765-11.387-58.908-28.304-82.987-8.519-11.55-20.952-23.459-31.994-30.621-7.255-5.29-14.251-4.99-22.234-4.491H1432c3.097 20.698 1.843 41.977 1.182 62.807-.736 7.772-1.539 15.593-2.723 23.298a127 127 0 0 1-2.135 9.545c-.806 2.349-1.475 6.751-4.127 6.85-2.897.391-3.486-4.633-4.315-6.423-5.233-19.458-17.129-37.06-33.35-49.044-7.782-5.596-17.462-11.462-25.665-14.712-10.298-4.191-22.086-1.224-32.867-2.321 4.322 21.366 8.93 42.894 8 64.87.136 20.746-1.815 41.9-8.568 61.668-2.07 4.119-6.586 5.92-10.328 8.108-14.943 8.881-29.853 18.812-40.797 32.578-20.616 26.714-26.033 61.35-36.705 92.462-4.677 13.911-10.427 27.556-17.897 40.218-7.517 10.834-15.385 21.455-21.61 33.12-12.314 22.722-20.858 47.126-29.642 71.338-6.865 21.334-15.871 42.294-25.004 62.577-.55 4.897 3.106 8.732 5.515 12.53 8.895 15.112 18.97 29.489 28.067 44.462 8.776 13.194 15.919 28.724 29.899 37.378 12.03 8.25 29.69 10.327 42.572 11.166 13.492 1.666 27.58-.081 38.703-8.649 17.921-12.646 30.628-30.843 44.252-47.667a266.3 266.3 0 0 1 34.708-35.647c9.813-9.097 23.812-7.776 36.34-9.443 18.834-2.312 41.372-5.755 56.875-14.26 8.03-4.046 16.068-11.18 21.333-17.437 3.055-3.614 6.15-7.182 8.53-11.286 2.361-2.906 3.514-9.06 6.757-10.086m-295 735v-114h-37v75.136c.809 11.936-1.039 26.322.69 37.147 1.5 2.418 6.412 1.24 8.614 1.717zm0 148v-117h-37v76.138c.599 12.487-.76 27.306.481 38.712 1.048 2.745 6.124 1.735 8.23 2.15zm-37 143h37v-112h-37zm1 97c.37 5.483 5.535 11.518 7.759 17.49 22.05 43.04 38.867 98.683 40.567 143.178-1.156 12.222 14.894 20.465 23.962 22.339 20.466 4.253 36.797-9.374 42.43-26.665 6.439-18.405 4.605-38.779-.827-57.11-7.348-22.443-21.82-41.481-37.199-58.91-17.218-15.65-35.28-30.54-55.763-41.858-7.849-6.022-13.616-.6-20.929 1.536m79-1063c6.152-26.828 23.44-50.001 45-66.375-.44-1.614-1.497-2.929-2.646-4.099-1.683.114-3.37.208-5.066.311-18.935.845-37.53 9.526-50.097 23.72-3.235 4.079-6.902 9.045-9.046 13.315-1.287 2.982-2.95 6.707-3.656 10.36 1.075 5.625 7.415 11.012 10.606 14.033 4.596 3.37 9.201 7.354 14.905 8.735m165-244v-7c-16.348-3.38-34.855-11.621-50.323-12.056-11.026-.255-25.524-.22-35.774 9.67-3.563 3.189-5.865 7.661-5.853 12.478-.061 4.223-.756 10.377 3.022 12.242 6.587 3.7 14.418 4.077 21.743 4.583 10.871 1.342 21.534-1.477 30.016-8.537 7.964-6.567 17.407-11.557 27.894-11.994 2.79-.246 5.536.398 8.292.567zm301 973c-13.052-5.015-24.592-13.634-37.435-19.207-18.816-9.891-37.842-19.415-56.43-29.702-9.63-4.68-18.971-9.86-28.472-14.77-9.404-3.659-19.186-12.267-28.663-13.321-12.765 48.686-33.934 95.072-57.191 139.54-17.283 31.904-36.58 62.774-58.495 91.721-4.22 5.497-8.494 10.95-12.931 16.257-3.312 5.186-9.572 9.751-10.885 15.156.615 2.662 3.036 5.255 4.293 7.371 3.972 6.765 8.807 3.48 14.076.549 81.361-36.297 153.495-90.564 214.866-154.827 4.2-4.54 8.162-9.274 12.438-13.752 2.62-3.077 5.459-7.53 10.62-7.9 13.072.173 32.789-1.92 34.209-17.115m-260-90h520.8c7.768.095 15.935.139 23.068-3.479 5.38-2.582 12.327-8.424 10.382-15.905-37.378-34.275-78.321-64.871-117.733-96.785-6.074-4.752-10.632 5.872-13.745 9.13-13.486 17.706-26.836 35.5-40.499 53.057-3.541 4.467-6.741 9.188-10.356 13.59-2.843 2.819-4.719 7.468-8.204 8.928-14.162 1.278-28.514-.196-42.713.464v-113c15.66-1.435 37.602-7.686 37-31-60.056-3.401-119.895-10.57-180-13v157h-186c1.393 10.256 6.494 21.617 8 31m141-917.625c31.948 26.636 60.515 59.077 80.585 95.753 31.98 58.798 41.78 126.382 46.193 192.156 3.575 70.476 3.214 141.557-4.778 211.716h66c.273-98.122-8.627-197.168-34.308-292.123-12.085-43.918-30.1-86.593-57.984-122.963-13.05-18.43-27.278-36.114-43.31-52.016-8.06-8.2-16.189-16.394-25.471-23.22-4.53-3.359-8.77-7.148-13.596-10.104-2.134-1.433-4.687-3.197-7.054-3.082-2.133.504-4.997 2.668-6.277 3.883M1874 2083c13.243 5.13 26.298 13.138 41.154 12.976 21.87 1.739 44.441-5.93 57.805-24.035 13.442-17.71 16.86-41.268 12.784-62.741-8.43-41.822-42.654-72.261-78.32-91.491-23.97-14.024-50.672-22.545-77.361-29.584-14.54-3.351-29.132-6.504-43.884-8.77-7.16-1.1-14.344-2.01-21.508-3.013-3.22.349-7.163-1.955-10.673-.276-2.878 1.099-5.403 3.892-7.997 4.934.737 4.442 6.367 8.248 9.189 12.581 49.515 55.581 94.85 118.2 118.811 189.419" style="fill:#fff;fill-rule:evenodd;stroke:none"/><path d="M327 2802.5c390.66 1.426 782.125-.26 1172.95.5 390.946-.76 782.184.926 1173.05-.5-79.284-468.283-156.02-937.69-234.792-1406.201-29.222-176.024-58.731-352.018-88.16-527.994-12.796-76.829-25.59-153.676-38.409-230.5-5.977-36.02-12.025-71.992-18-108-2.928-17.508-5.855-34.99-8.745-52.497-.795-4.678-1.595-9.35-2.358-14.018-.403-5.813-4.632-7.44-9.23-8.351-136.155-45.374-272.297-90.765-408.44-136.14-118.995-39.696-238.006-79.344-356.998-119.005-7.36-3.594-13.268-1.406-20.008 1.408-103.34 34.51-206.696 68.878-310.033 103.355a1093431 1093431 0 0 1-271.561 90.514c-39.662 13.232-79.311 26.454-118.969 39.67-18.676 6.196-37.335 12.443-55.998 18.654-3.991 1.804-9.7 2.485-12.774 5.267-95.938 570.136-190.308 1140.76-285.634 1711.041-35.77 210.46-69.684 422.872-105.891 632.797m744-501.5h-14c-1.23 44.478-7.9 92.173-34.71 129.283-4.66 6.815-11.768 11.529-16.555 18.223-8.776 11.885-15.694 25.682-17.613 40.471-2.556 31.773 23.896 53.209 52.027 49.838 20.306-1.467 36.671-16.233 45.742-33.635 15.102-27.42 15.562-65.506 13.346-93.164-3.414-30.807-11.274-60.84-21.126-90.158-2.213-6.995-5.333-13.72-7.111-20.858m-20-30c27.283.58 55.388 1.145 81.253-9.32 8.47-3.75 16.338-8.737 24.01-13.892 2.723-2.231 7.277-4.739 8.78-8.547 2.118-8.502.115-17.627.957-26.265.03-3.216-.455-8.532 4.087-8.731 57.604-.698 115.294.127 172.913-.245-.034 25.384-3.713 50.623-4 76h-1.5c-14.013-12.33-31.72-19.172-49.202-24.74-9.82-3.418-20.068-5.3-30.224-7.344-4.744-1.426-9.736-1.548-14.533-2.432-2.84 3.14-8.72 5.184-9.541 9.516 20.384 14.515 39.25 39.378 51.467 58.671 6.958 11.693 12.73 24.242 16.075 37.455 1.562 6.03 1.168 13.605 9.178 16.642 6.057 2.817 12.492 5.433 19.28 5.232-2.887 20.742-5.437 41.585-9.916 62.072-3.553 15.57-7.099 31.274-13.148 46.1-4.172 10.43-9.703 21.405-19.588 27.535-16.46 9.1-36.236 5.74-54.143 5.766-18.755-.812-37.484-2.146-56.205-3.473-.325 4.663-.893 9.326-1 14 24.384 4.591 49.127 16.897 63.472 37.802 7.18 10.65 9.512 23.558 11.268 35.994 1.535 13.69 2.455 27.418 2.26 41.204 48.087-.125 101.305-12.644 134.394-50.533 31.767-38.152 42.804-88.572 51.984-135.972 12.322-75.864 18.139-152.74 20.622-229.495 12.665-.798 24.524-5.371 35.66-11 19.077 19.1 36.293 41.142 56.34 59 .625-2.401 2.807-4.241 3.845-7.021 2.033-5.049 1.06-10.811-1.344-15.48-1.847-3.86 1.668-8.205 3.136-11.845 12.554-28.143 23.666-56.97 34.863-85.654 14.16 73.34 30.848 147.388 62.5 215.5-31.908 53.992-70.248 104.242-114.303 148.893-44.69 43.361-95.045 81.787-149.697 111.607v1.5c2.38 3.127 6.055 7.368 7 10.5 57.676-18.129 114.057-42.039 166.09-73.054 25.37-15.274 49.907-31.897 73.343-49.992 24.11-17.48 45.72-39.355 67.567-58.954 45.66 72.86 113.474 130.061 184.5 177 9.894-28.524 22.31-57.223 43.734-79.32 20.727-23.094 49.342-38.955 79.766-44.68.422-3.35.505-8.106 2-10.5-4.026-3.215-11.226-4.182-16.735-6.572-45.943-15.605-90.434-35.181-133.43-57.593-30.457-16.482-60.583-33.96-87.797-55.525-6.856-4.362.787-11.057 3.85-15.742 27.92-40.378 52.384-83.056 72.61-127.78 10.65-22.95 21.078-46.126 29.607-69.967a819 819 0 0 0 6.937-18.831c.847-2.001 1.734-4.837 3.324-6.66 7.692-2.183 16.916-.837 24.364-4.802 6.965-2.861 13.45-8.419 15.27-16.028-56.28-17.62-113.486-33.832-169.5-52-.45.458-.96.911-1.5 1.25-6.453 39.84-17.604 78.922-29.398 117.458-12.072 37.43-25.653 74.566-42.102 110.292-27.42-31.922-48.84-69.114-65.42-107.685a544 544 0 0 1-22.534-62.985c3.895-9.767 11.85-17.625 16.797-26.87 6.17-8.455 11.221-17.724 17.657-25.96v-1.5c-8.8-1.184-17.384-3.735-26.103-5.32-6.558-1.012-12.982-2.906-19.522-3.953-5.362-1.12-4.45 7.65-5.048 11.085-1.36 14.634-3.251 29.203-4.528 43.843-.817 4.551-5.744 8.802-8.988 12.926-13.647 14.19-28.86 26.737-43.846 39.442-5.684 4.646-11.32 9.366-17 14-5.033 3.794-10.472 8.888-15.26 12.099-4.611 1.632-9.73-6.316-13.402-8.059-29.706-24.553-58.973-49.676-88.803-74.063-11.512 11.478-22.957 23-34.483 34.46-6.239 5.42-12.385 10.924-17.992 17.015-2.876 2.817-5.58 5.962-9.05 8.053-4.286.578-8.646.524-12.975.472v-114h65.4c16.412-.014 32.838.017 49.241-.01 9.374-.083 22.584-1.112 28.732-12.01 2.697-4.52-.098-7.866-3.475-10.582-19.599-19.764-41.294-37.26-62.182-55.598-7.581-5.11-14.344-13.63-23.716-18.8-7.275 12.498-17.619 23.71-25.627 35.876-4.665 5.872-8.882 12.042-13.33 18.072-4.433 5.144-8.472 14.147-15.043 14.052v-119h65.4c16.412-.014 32.838.017 49.241-.01 9.374-.083 22.584-1.112 28.732-12.01 2.697-4.52-.098-7.866-3.475-10.582-19.599-19.764-41.294-37.26-62.182-55.598-7.581-5.11-14.344-13.63-23.716-18.8-7.275 12.498-17.619 23.71-25.627 35.876-4.665 5.872-8.882 12.042-13.33 18.072-4.433 5.144-8.472 14.147-15.043 14.052v-116h141c12.29.195 28.259-.175 34-16.5-35.207-31.286-71.985-61.035-109.5-89.5-19.082 22.782-36.626 46.848-55.227 70.018-1.674 2.402-3.47 4.686-5.92 6.328-24.864 1.865-50.172-.34-75.128.654h-56.27c-13.55.931-25.91-4.938-38.286-9.737-34.551-13.011-69.083-26.486-103.669-39.263zm53 22.25c10.686 36.522 14.689 74.863 15.938 112.795.331 15.012.215 30.044-1.154 44.998-.553 6.187-.97 12.394-1.91 18.538-.298 5.733-3.104 13.219-.685 17.817 5.086 8.526 16.025 14.919 24.508 17.121 20.944 3.176 35.412-9.915 43.97-25.913 12.686-25.421 11.748-55.68 4.638-82.384-6.99-25.773-20.097-49.516-36.466-70.432-10.42-12.589-21.336-25.076-33.806-35.69-5.149-1.144-9.648 2.52-15.033 2.9zM1500 1147c4.408 16.91 1.552 35.21-5.912 50.766-13.304 26.043-35.245 46.337-54.82 67.467-15.653 15.802-31.875 31.074-46.172 48.122-10.69 11.638-22.459 26.21-29.95 38.615-24.636 45.16-33.383 97.223-34.146 148.03h214c-.426 9.384.77 20.623-1.03 29.114-1.83 10.065-9.676 13.594-18.191 14.599-16.802 3.147-33.99 2.158-50.96 2.287h-91.128c-22.284.657-44.764-1.21-66.92 1.66-28.794 3.378-63.613 14.321-83.703 32.424-2.34 7.912-.152 17.064-1.068 25.255V1681h26c4.905-33.068 40.19-43.018 65.817-44.11 47.842-1.627 95.73-.45 143.586-.89 24.155-.023 48.296.028 72.449-.015 20.88.345 42.515-8.606 53.648-26.985 8.096 11.503 19.124 20.848 33.242 24.03 13.005 3.895 26.703 2.998 40.063 2.97h148.09c22.691.53 49.838-.653 70.29 4.05 20.756 3.647 41.319 18.612 43.815 40.95h26v-89.4a61.7 61.7 0 0 0-.466-10.619c-6.182-8.971-19.396-13.323-27.608-18-15.988-7.286-33.18-11.623-50.414-14.696-18.843-2.817-37.9-2.515-56.894-2.285h-108.914c-17.5.241-35.146.7-52.366-3.021-21.602-4.029-14.02-28.374-15.338-42.979h213c.697-86.554-4.932-173.194-18.627-258.693-9.02-61.391-23.189-122.485-48.576-179.325-35.682-80.885-92.752-154.03-168.34-201.004-19.105-11.673-39.46-21.323-60.424-29.094-7.291-3.504-20.057-3.066-20.008-12.196-.02-29.604-11.03-58.654-27.702-82.706-8.308-11.55-20.6-23.347-31.362-30.668-6.908-5.68-13.742-6.107-21.69-5.314-8.027.569-16.324-.736-24.271.5 3.163 9.344 1.08 21.874 2 30.731.161 18.344-.448 36.749-3.54 54.874a127 127 0 0 1-2.136 9.545c-.8 2.394-1.512 6.774-4.193 6.877-5.734 1.155-6.327-8.117-7.857-11.705-6.305-17.79-17.561-34.28-33.43-44.97-7.183-5.301-16.447-10.355-23.977-13.531-4.625-2.45-9.815-2.606-14.915-2.321-4.964.395-11.932-.561-15.952.5 6.077 21.093 8.173 43.46 8 65.38-.273 20.106-1.985 44.807-9.382 62.025-5.1 5.308-14.952 9.096-21.944 14.347-14.73 9.213-27.527 21.336-36.385 36.357-16.644 28.594-20.907 62.191-32.857 92.576-5.133 13.452-11.849 26.324-20.03 38.138-32.114 43.293-42.843 97.69-64.562 145.997-1.365 4.119-5.948 9.502-5.088 13.142 8.353 16.077 19.84 30.539 28.754 46.34 9.16 12.599 17.06 29.794 27.672 39.67 11.475 9.792 26.249 13.905 40.973 15.467 13.713 1.8 28.308 2.265 40.562-5.35 19.645-11.556 32.809-30.848 46.912-48.105 10.639-13.062 21.898-25.88 34.96-36.62 10.388-10.696 23.085-8.992 36.844-10.667 19.364-2.286 42.545-5.863 58.445-14.648 8.128-4.178 16.313-11.49 21.48-18.014 3.116-3.474 5.984-7.166 8.36-11.182 2.32-3.91 3.533-9.6 8.286-9.353m-295 737v-116h-39v97.096c.181 4.937-.252 9.896.211 14.812.205 4.315 4.4 4.033 7.322 4.087 10.498.015 20.981-.003 31.467.005m0 148v-119h-39v98.6c.08 5.015-.104 10.012.075 15.014-.068 7.72 12.675 4.825 17.495 5.386zm-39 143h39v-114h-39zm3 97.497c14.444 26.917 26.95 55.354 35.284 84.87 6.938 23.012 11.983 46.774 12.88 70.862-2.178 18.092 24.77 28.808 37.744 24.533 29.95-8.379 33.157-44.17 29.526-66.99-4.637-25.121-18.298-47.758-34.913-66.751-17.407-20.616-44.548-38.328-65.602-50.718-4.365-2.256-9.883 3.2-14.919 3.697zM1248 1209c5.761-27.928 24.69-50.232 46-67.625-.61-1.903-2.488-3.426-3.598-4.813-2.173-.18-4.381-.073-6.563.15-21.102 1.088-42.39 11.228-54.542 28.93-5.195 7.313-12.15 19.426-6.068 26.336 6.03 7.344 15.694 15.973 24.771 17.022m165-244v-9c-16.523-3.559-35.273-11.64-50.926-12.13-12.435-1.375-28.695 1.319-37.17 9.745-3.575 3.197-5.867 7.67-5.854 12.499.437 4.19-.968 9.945 1.283 13.014 5.668 4.373 14.468 4.998 20.682 5.62 11 1.548 22.174.32 31.443-6.127 8.465-5.816 16.835-12.914 27.602-13.74 3.785-.809 7.582-.086 11.365.105.518.008 1.113.011 1.575.014m10 1157.625c3.277 3.424 5.208 7.945 8.5 11.375 51.95-24.322 102.917-52.497 146.957-89.78 22.73-17.936 44.244-37.327 64.645-57.822 5.14-5.338 10.637-10.365 15.62-15.843 3.522-4.192 7.265-8.162 10.768-12.361 6.276-8.08 15.864-3.778 24.484-5.964 7.157-1.5 16.49-8.088 18.026-14.23-50.297-24.045-98.421-53.49-149-77-12.877 48.974-34.18 95.679-57.651 140.377-11.391 21.518-24.272 42.205-37.622 62.523-13.313 20.576-29.527 39.814-44.727 58.725m23-305.125c3.084 9.323 5.379 19.016 8 28.5h502.8c13.374-1.058 43.263 5.33 49.702-15.288.24-3.063-4.075-5.26-6.104-7.806-18.597-16.278-37.574-32.16-57.064-47.36-19.937-14.172-37.732-31.798-57.834-45.546-15.719 19.223-30.004 39.656-45.388 59.148-3.99 4.787-7.541 9.888-11.343 14.811-2.942 3.549-5.647 7.336-8.594 10.861-2.722 2.87-8.273 2.035-11.263 2.18H1773v-115c15.097-1.639 35.955-6.899 37-29-59.373-3.504-118.584-10.258-178-13v157h-186zm146-888.75c31.02 28.148 61.523 58.884 81.17 96.587 32.224 59.01 42.28 126.838 46.608 192.947 4.002 70.503 2.663 141.512-4.778 211.716h69c-2.554-98.771-7.873-198.99-35.463-294.656-12.166-44.463-30.686-87.46-59.018-124.147-13.3-18.494-27.716-36.234-43.994-52.172-8.222-8.271-16.74-16.239-26.074-23.238-4.302-3.606-8.908-6.868-13.62-9.896-5.897-4.79-8.964.501-13.831 2.109zm155 953.625c27.283 29.392 52.779 60.6 74.98 94.08 21.148 33.145 41.6 67.636 53.02 105.545 12.898 5.04 25.539 12.711 39.967 12.943 21.77 1.793 44.238-6.36 57.299-24.448 12.88-17.312 16.638-40.266 12.27-61.178-8.592-40.935-42.006-70.79-76.852-89.984-23.98-13.813-50.358-22.876-77.034-29.82-14.435-3.316-28.878-6.574-43.525-8.815-7.312-1.25-14.65-2.19-21.991-3.173-3.296.22-8.462-1.805-10.708-.14-2.436 1.383-5.608 3.569-7.426 4.99" style="fill:#000;fill-rule:evenodd;stroke:none"/></svg>