<svg xmlns="http://www.w3.org/2000/svg" width="3000" height="3000"><path d="M407 2715h2186c-120.11-729.14-243.257-1457.94-364-2187-121.653-40.09-243.099-81.112-364.7-121.395-91.164-30.407-182.32-60.766-273.474-91.162a32206 32206 0 0 1-51.529-17.183c-8.003-2.659-16.01-5.346-24-8-7.038-2.654-14.998-6.446-23.453-2.372-120.19 40.07-240.392 80.12-360.578 120.183C1011.124 447.878 891.186 488.387 771 528c-120.737 729.033-243.897 1457.913-364 2187m622-1687.5c.86 2.594 4.502 4.139 6.5 6.5 16.071-10.084 32.482-19.874 47.761-31.21 7.938-5.67 15.75-11.45 23.364-17.535 4.014-3.12 7.705-6.637 11.83-9.603 3.608-2.865 7.346-7.392 11.545-7.652.056 3.762 1.926 7.242 2 11h61v120c-47.607.76-95.478-.926-143 .5 2.221 3.671 2.582 9.8 4.57 14.482 1.43 3.539 1.774 10.484 5.96 10.695 34.827.922 69.744-.168 104.59.323H1193v295c-50.277 8.224-100.544 17.597-151 24.5 26.498 46.938 52.444 94.295 78.5 141.5 7.428-3.999 14.618-8.9 19.469-16.066 2.258-2.561 3.56-6.998 6.038-9.644 53.79-29.156 108.903-55.979 161.853-86.725 52.611-29.263 104.467-60.053 154.14-94.065-.87-2.799-1.286-5.667-2-8.5-25.075 4.647-50.093 9.547-75.178 14.118-12.776 2.731-25.724 4.561-38.525 7.108-11.747 1.698-25.361 5.604-36.297 5.774v-273h123c11.242-.004 26.432.142 31.784-11.157 1.635-4.002-3.078-7.579-5.28-10.644-21.13-21.693-43.757-41.843-65.106-63.301-9.544-9.768-20.375-18.123-29.898-27.898-16.684 25.61-34.785 50.892-50.5 77h-4V979h100.8c9.36.285 21.656-2.496 25.63-10.326 1.98-3.442-.28-6.566-3.032-8.776-17.323-17.785-36.976-32.958-55.047-49.915-7.085-5.69-13.477-12.128-20.477-17.891-6.924-4.99-13.186-13.993-20.54-17.092-10.538 14.111-20.348 28.777-30.697 43.017-7.625 10.74-15.151 21.547-22.88 32.212-3.686 5.138-10.522 3.492-15.503 3.771H1146c.49-4.449 6.098-7.925 9.233-11.733 26.104-25.943 52.066-52.155 74.46-81.537 21.432-28.405 44.234-56.856 60.307-88.73 4.675.4 7.57 6.19 10.168 9.367 21.481 29.492 40.49 61.065 55.719 94.231 2.24 5.798 4.578 12.832 11.587 16.358 22.688 15.08 53.85 14.968 75.668-2.133 16.252-12.172 26.568-31.985 23.48-52.609-5.135-29.93-30.29-51.085-55.893-63.856-26.675-14.484-56.333-21.644-85.873-27.33-2.934-.553-5.866-1-8.856-1.028v-3c13.21-.686 26.167-7.324 32-19.5-54.305-17.63-108.389-36.885-163-53.5-13.256 65.24-35.528 128.433-61.241 189.705-12.518 30.591-27.076 60.254-43.012 89.183-15.376 27.65-32.032 54.847-51.747 79.612m84 1358.5c18.87-7.152 18.116-30.232 26.483-43.055 10.846-18.766 20.972-37.903 31.468-56.836 5.068-9.611 10.422-19.061 14.977-28.944 2.58-5.18 5.173-10.333 7.747-15.499 2.819-4.374 4.95-11.803 8.325-14.666h2v336c20.476.409 41.179 1.002 61.159-4.356 13.967-3.001 27.196-8.476 40.141-14.326 8.973-4.303 18.705-10.862 25.772-16.589 8.074-5.058 9.75-12.594 8.928-20.874V1685c13.681.154 32.83-7.655 35-26-57.076-4.247-113.999-11.138-171-16v253h-2c-2.73-2.175-4.252-6.842-6.737-10.058-16.477-25.777-39.4-47.337-65.558-63.106-13.137-8.204-26.915-15.384-41.02-21.767-7.115-3.007-14.162-6.137-21.353-8.938-3.553-1.272-7.058-2.706-10.637-3.896-3.416-1.375-6.32.876-9.695 1.765 19.606 55.928 35.429 114.93 34 174.877.136 8.019.053 16.025-.599 24.005-.26 5.439 6.234 10.077 10.634 14.14 16.478 14.758 38.366 23.88 60.687 20.464 10.617-1.997 20.915-5.95 29.609-12.473 4.394-3.173 8.323-6.922 11.992-10.902 3.597-3.252 6.093-9.716 10.677-10.111v152c-29.702 13.181-58.091 29.716-87.822 42.925-28.19 13.308-56.288 27.422-85.178 39.075 4.197 14.485 14.187 26.954 19.928 40.834 20.418 40.483 42.186 80.474 62.072 121.166m-41-1218c5.707 33.51 11.63 67.228 12.405 101.337 1.265 27.246.343 54.562-3.095 81.61-2.32 8.943 6.743 16.333 13.25 21.46 12.173 11.185 30.338 15.888 46.098 10.197 24.11-7.215 38.636-31.877 42.167-55.31 4.267-25.119-2.712-50.49-14.044-72.732-18.924-36.458-50.44-64.569-84.018-87.276-3.948-2.908-8.318-.143-12.763.714m250 188.625c3.72 2.303 8.662 4.064 12.55 4.781 4.463-1.482 6.477-6.737 10.046-9.717 22.393-26.205 42.301-54.366 60.76-83.435 8.983-14.467 18.325-28.694 26.57-43.619 2.109-3.25 3.735-7.881 8.575-8.718 11.209-1.522 27.477-5.206 32.499-19.917-44.1-10.436-86.867-26.782-131-37-1.378 33.41-5.973 66.662-8.618 99.976-3.996 32.107-6.452 66.15-11.382 97.649M1692 2150v250.8c-.361 7.691 1.667 16.911-4.13 22.492-5.255 4.756-12.99 3.533-19.399 3.708-47.296.59-94.281-6.076-141.471-7 .218 3.179-.508 7.563 1.759 9.56 2.991.387 6.847 1.799 10.436 2.207 31.593 5.26 63.284 17.186 85.873 40.857 10.703 11.636 17.965 26.167 21.44 41.572 3.39 16.752 6.852 33.667 7.492 50.804 25.056-2.23 50.146-5.575 74.518-11.898 33.203-7.836 68.395-25.183 83.387-57.907 15.4-35.798 14.082-75.689 14.095-113.713V2150h120c11.697 1.182 23.966-2.252 29-13.5-14.762-16.226-30.514-31.715-46.601-46.607-8.198-7.438-16.26-14.993-24.095-22.825-8.46-5.88-15.507-17.203-24.304-21.068-14.723 27.4-35.93 51.811-51 79h-3v-70c8.767-1.137 19.505-3.868 25.35-9.91 3.086-2.948 5.61-6.766 6.163-11.063-.362-4.593-9.516-2.32-12.214-3.503a876 876 0 0 1-22.857-1.98c-11.725-1.099-23.466-1.944-35.19-3.019-7.666-.705-15.37-1.143-23.016-2.002-4.268-.513-8.558-.815-12.847-1.062-3.583-.409-9.276.041-11.389-2.461 1.537-4.601 9.447-7.22 12.548-10.349a1113 1113 0 0 0 95.823-74.528c15.41-13.458 30.096-27.7 44.862-41.856 7.08-6.258 12.594-18.513 24.559-17.267 10.133.835 20.442-3.43 26.208-12-10.76-8.898-25.28-12.533-36.88-20.244-37.013-18.446-73.398-38.101-110.29-56.756-4.467 5.438-4.725 13.44-8.487 19.338-20.465 48.528-45.285 95.159-72.399 140.283-26.813 43.741-55.786 86.474-89.944 124.879 2.78 2.611 5.205 8.246 10.074 6.286 4.217-1.705 8.17-4.075 12.292-5.963 7.464-3.405 14.547-7.527 21.756-11.387 7.245-2.743 14.606-9.714 21.878-10.436v75h-338c1.26 7.533 4.74 16.047 6.448 22.806 1.797 3.63 9.042 1.393 11.938 2.194H1692m-329-312.58c12.725 27.456 24.867 55.62 33.247 84.803 6.9 22.026 12.046 44.572 14.326 67.555.61 4.525.095 9.404 1.142 13.794 9.416 11.605 26.562 19.474 39.62 22.062 12.641 1.658 25.717-.414 36.857-6.773 15.515-8.376 26.104-24.12 30.087-41.039 3.85-17.872-.487-36.73-8.738-52.733-12.214-24.626-38.354-44.96-58.901-58.233-24.288-14.183-50.754-24.574-77.825-32.034-3.336-.959-7.21 1.518-9.815 2.178zm9-37.42c50.035 2.184 100.139.481 150.173.005 71.049-1.958 142.1-5.377 212.783-13.142 33.914-3.714 67.78-7.855 101.391-13.75 8.704-1.423 17.328-3.159 25.96-4.877 6.498-1.707 12.902.642 19.057 2.594 9.532 2.579 19.346 4.588 29.276 4.108 8.347-1.1 20.871-1.845 25.36-8.438a4804 4804 0 0 0-49.182-45.323c-28.833-25.764-56.293-53.141-85.83-78.085-2.54-2.05-6.831 2.9-9.324 3.077-51.134 26.406-104.633 47.707-158.58 67.591-53.786 19.44-108.022 37.83-163.256 52.745-32.556 9.476-65.954 16.673-98.828 24.495-.071 3.033.199 6.07 1 9m9-348.75c13.37 23.52 24.937 48.218 37.695 72.117 13.414 23.401 24.402 48.28 37.805 71.633 7.468-3.275 12.907-6.667 17.638-12.792 4.297-4.643 5.838-11.845 11.861-14.787 42.112-24.786 84.175-49.651 125.625-75.508 19.553-12.876 39.565-25.064 58.917-38.256 10.078-6.931 20.502-13.377 30.398-20.553 4.864-3.433 9.97-6.53 14.734-10.095 4.695-2.958 9.983-7.99 15.327-8.009 28.175 65.175 72.887 123.536 124.5 172 9.222-28.78 25.2-55.094 46.07-76.874 11.171-9.66 22.753-19.332 36.437-25.315 7.55-3.465 15.235-6.512 23.245-8.75 3.543-1.206 7.25-1.76 10.827-2.766 3.82-.832 4.1-5.564 4.921-8.795-39.319-20.533-78.808-41.31-115-67.252-18.388-12.547-35.809-26.337-52.38-41.176-8.03-8.173-16.365-16.04-24.217-24.378-3.596-4.271-7.416-8.327-10.988-12.605-3.237-4.247-8.826-8.908-9.415-14.089 33.553-9.144 66.139-21.464 98.527-34.05 15.7-6.327 31.245-12.999 46.654-19.963 7.08-3.147 17.1 2.809 25.923 1.997 7.37.313 18.09-.791 22.896-9.484-20.11-15.643-40.772-30.652-61.14-45.97-10.56-7.587-20.781-15.652-31.267-23.334-5.102-3.82-10.213-7.635-15.302-11.462-4.146-4.283-12.46-7.238-13.291-12.734 17.598-1.26 33.851-9.066 49.124-17.185 3.56-2.175 7.73-4.909 10.19-7.884 4.014-4.745 2.156-13.715 2.686-20.387v-305.4c.012-5.35-.175-10.707.49-16.009 1.472-3.03 7.741-1.797 10.181-3.298 9.5-2.496 21.786-6.795 26.329-14.337-40.636-30.375-81.672-60.4-122.5-90.5-9.739 10.807-17.47 23.312-26.81 34.46-7.904 11.86-18.486 22.348-25.69 34.54-50.305-.728-100.764.887-151.018-.48-44.27-16.11-88.502-32.75-132.482-49.52-1.426 247.208.26 494.721-.5 742-32.22 5.449-64.688 10.2-97 15zm45 730.125c15.333 24.935 28.447 51.427 39.9 78.383 11.259 27.66 20.988 56.37 24.1 86.242 11.658 6.789 23.402 15.1 37.181 17.536 21.637 5.14 45.214-3.69 59.747-20.002 15.138-15.535 20.37-42.938 14.199-61.542-9.988-36.234-41.845-60.712-73.594-77.178-16.312-7.696-33.207-13.989-50.707-18.426-8.485-2.604-17.206-4.357-25.85-6.308-7.914-1.196-17.515-5.304-24.976.92zm105-369.875c10.768 27.921 20.685 56.42 26.584 85.854 4.832 22.86 9.138 45.992 8.416 69.484-1.213 9.568 5.949 14.148 13.234 18.95 23.403 19.023 59.116 19.297 81.568-1.275 10.902-9.588 17.781-23.122 20.568-37.206 2.573-14.67-.48-29.621-6.35-43.069-11.572-25.836-33.099-46.197-57.037-60.597-24.21-14.921-50.916-26.179-78.16-34.157-2.992-.482-6.194 1.262-8.823 1.516zm66-897.5h174V769h-174zm0 174h174V939h-174zm0 327c11.074-.003 21.783-3.519 32.717-4.774 30.179-4.9 60.05-11.79 90.283-16.226-.158-5.981-3.479-11.339-5.114-16.964-31.194-84.724-43.983-174.801-53.886-264.036h-64zm148-133c3.54-.12 5.722-4.105 7.67-6.549 13.902-19.437 27.668-39.004 40.232-59.324 6.67-10.065 12.595-20.619 18.73-31.004 5.26-11.035 14.922-22.639 16.368-33.123-18.925 2.06-37.973 2.426-57 2v-41h-97c13.241 59.974 37.06 117.875 71 169" style="fill:#fedca9;fill-rule:evenodd;stroke:none"/><path d="M1027 1027.625c1.9 4.804 8.91 7.961 12.568 5.307 14.73-8.733 29.134-18.018 43.044-28 16.03-11.032 31.015-23.428 45.888-35.932 1.271 3.275 2.005 8.17 2.5 11h61v118h-143v1.5c1.787 5.323 3.138 10.794 4.77 16.16 1.398 4.071 1.724 9.928 6.306 10.11 13.9.653 27.879-.117 41.777.23H1192v293c-50.364 7.473-100.35 18.496-151 24 22.874 49.272 54.485 94.978 78 144 8.828-1.082 16.248-9.525 21.244-15.092 1.865-3.13 4.675-6.491 6.106-10.551 27.912-14.941 56.5-29.367 84.515-44.266 41.198-22.035 82.308-44.281 122.655-67.883 20.302-12.07 40.713-23.975 60.657-36.623 9.669-5.61 18.828-12.024 28.158-18.159a1535 1535 0 0 0 14.57-9.71c1.856-1.563 5.914-3.56 5.428-5.85.343-3.025-.768-5.953-1.333-8.866-50.186 7.638-99.74 19.9-150 27v-271h84c14.217-.005 28.435.006 42.636-.003 11.06-.131 25.493-.802 30.364-15.528-32.034-35.971-69.516-66.506-103.5-100.469-9.463 12.478-17.46 26.126-26.413 38.964-7.345 13.545-18.208 25.329-25.087 39.036h-2V980h70.2c11.813-.109 23.626.134 35.427-.076 9.314.015 19.695-4.713 23.373-15.424-32.758-32.382-68.52-61.466-102.5-92.5-10.225 14.565-20.71 29.223-30.98 43.803a14773 14773 0 0 1-23.205 32.638c-3.152 5.607-9.875 4.615-14.861 4.559-40.395-.76-81.18.926-121.454-.5 55.148-53.617 106.79-111.912 144.5-179.5 19.766 22.964 34.723 49.76 49.749 75.888 5.727 10.319 10.66 21.093 15.435 31.861 3.219 10.572 13.843 14.698 22.227 18.576 33.83 15.42 78.792-5.442 87.864-41.542 4.378-18.37-1.334-37.62-12.84-52.205-10.434-14.168-25.455-24.27-40.714-32.481-28.949-15.502-61.037-23.6-93.205-29.04-1.021-.074-2.024-.323-3.016-.557 11.77-2.63 29.257-6.597 32-22.5-55.224-16.975-109.752-37.014-165-54-12.698 65.862-35.84 129.42-61.455 191.212-12.569 30.536-27.061 60.21-43.05 89.081-15.984 27.319-31.678 55.763-52.495 79.707zm2 1196.633c12.83 27.966 28.684 54.752 41.928 82.577 7.391 13.781 14.464 27.703 21.48 41.676 7.991 12.076 13.017 29.284 21.592 39.489 6.258-3.777 12.277-10.446 15.213-16.466 3.84-5.795 4.97-12.564 6.721-19.085 11.17-20.411 22.893-40.576 33.802-61.132 11.64-20.692 21.248-42.618 32.764-63.317 1.426 111.81-.26 224.102.5 336 20.921.244 42.136 1.154 62.572-4.23 14.192-2.932 27.599-8.544 40.728-14.452 9.175-4.337 19.019-11.087 26.216-16.944 8.266-5.343 9.254-13.329 8.484-21.719V1686c14.268-.803 34.404-7.352 35-28-57.746-4.168-115.288-11.457-173-16-.76 84.246.926 168.876-.5 253-16.393-28.692-39.82-53.255-67.945-70.745-14.125-9.115-28.98-17.117-44.34-23.962-7.698-3.289-15.364-6.658-23.168-9.675-6.766-2.96-14.502-7.201-22.047-.118 11.305 26.955 19.043 55.577 25.415 84.082 4.45 21.703 7.713 43.691 9.18 65.812 1.778 17.708-.692 35.571-.019 53.232 15.357 17.428 37.923 32.143 62.093 31.374 25.159 1.584 47.086-14.544 60.831-34 1.426 49.843-.26 100.082.5 150-29.843 13.33-58.453 29.834-88.341 43.17-28.1 14.197-57.06 26.747-85.659 39.83zM1071 1167c4.703 32.753 11.624 65.384 12.237 98.649 1.104 25.867 1.184 51.894-2.182 77.619-.566 4.953-1.183 9.9-1.485 14.863 7.442 14.072 25.476 24.584 39.195 27.423 25.785 3.919 51.021-13.566 59.487-37.74 10.152-24.556 8.15-53.048-1.114-77.459-16.482-44.402-52.434-78.132-90.94-103.82-4.822-4.117-10.48-.28-15.198.465m264.531 197c25.294-27.584 46.853-58.318 67.457-89.462 9.974-15.276 19.605-30.8 28.647-46.648 2.878-3.254 4.055-9.795 8.255-10.517 13.861-2.604 32.816-6.85 34.11-22.373-44.688-11.225-88.382-26.44-133-38-1.503 36.647-6.287 73.135-9.575 109.646-1.688 18.196-4.1 36.32-5.94 54.49-.804 8.767-2.198 17.47-3.104 26.213.144 3.761-2.285 10.096 1.48 11.532 3.34 1.75 7.81 3.745 11.67 5.119M1352 2124.25c2.225 4.988 2.792 10.765 4.777 15.91 1.373 3.416 1.736 10.342 5.767 10.485 13.868 1.007 27.908-.179 41.795.355H1691v249.6c-.207 7.597 1.569 16.79-4.53 22.052-5.496 4.378-13.098 3.171-19.558 3.348-23.781.087-47.51-1.805-71.219-3.072-23.177-1.892-46.423-3.74-69.693-3.928.488 3.548-1.038 9.832 2.17 11.597 3.99.82 8.04 1.89 12.08 2.559 31.104 5.62 62.527 17.493 84.547 41.258 10.353 11.66 17.54 26.011 20.822 41.28 3.36 16.59 6.72 33.34 7.381 50.306 24.799-1.719 49.626-5.312 73.78-11.192 33.18-7.661 68.474-23.91 84.748-55.856 16.423-34.926 15.128-74.763 15.472-112.271V2151h117.6c9.514.154 23.611.934 29.71-10.833 2.388-4.252-.907-7.773-3.44-10.557-19.437-21.698-41.59-40.56-62.477-60.706-9.295-8.096-17.8-17.192-27.393-24.904-9.903 12.383-17.139 27.077-26.834 39.726-8.65 13.558-18.185 26.64-26.666 40.274-1.415-22.572.248-45.387-.5-68 7.269-1.129 16.13-3 21.783-6.927 7.32-4.3 8.931-10.74 11.217-17.573-38.736-7.173-80.441-4.697-119-12 35.564-24.837 70.787-50.285 103.311-79.096 16.736-14.241 32.83-29.162 48.422-44.637 8.135-7.516 14.276-19.988 26.059-18.767 10.474.64 23.521-3.982 27.208-15-50.75-24.448-99.96-53.082-151-77-19.577 54.967-48.039 106.47-77.631 156.53-14.486 24.535-30.144 48.33-46.732 71.487-8.282 11.934-17.297 23.3-26.216 34.742a691 691 0 0 1-14.014 16.55c-1.425 2.461-5.987 6.008-4.452 8.56 1.709 3.015 4 5.614 6.358 8.131 20.362-8.209 39.002-20.532 58.687-30v73h-339zm9-286.937c16.561 31.708 28.736 65.96 38.423 100.372 3.515 13.257 6.846 26.576 8.593 40.211.687 6.23 1.806 12.424 1.941 18.698-1.191 11.229 12.306 18.087 20.432 23.069 16.989 9.93 41.792 9.342 57.488.882 26.962-13.597 38.573-47.25 30.555-75.409-6.39-28.628-27.403-50.65-49.869-67.886-14.217-10.886-30.078-19.189-46.316-26.514-8.764-3.562-17.49-7.116-26.4-10.27-8.337-2.098-19.594-7.163-26.84-6.92-2.805.463-5.907 2.627-8.007 3.454zm10-36.313c50.3 2.164 100.662.496 150.977.021 71.668-1.925 143.332-5.362 214.616-13.23 34.049-3.679 68.012-7.964 101.758-13.838 8.856-1.408 17.617-3.333 26.427-4.913 6.172-.949 11.974 2.249 18.023 3.416 18.499 5.446 39.245 5.331 56.199-4.456v-2c-3.367-.828-6.007-5.145-9.112-7.584-43.016-39.522-86.713-78.368-129.224-118.416-67.485 35.05-138.685 62.662-210.515 87.463-71.787 25.922-145.95 45.361-220.149 62.537-.059 3.701.033 7.404 1 11m359-385c13.217 33.017 33.038 63.78 53.732 92.632 21.341 29.032 45.649 55.675 71.768 80.368 6.316-13.786 11.025-28.754 19.43-41.633 13.078-23.065 32.026-42.791 54.6-56.566 9.166-5.14 18.795-9.576 28.874-12.635 4.38-1.354 8.765-2.6 13.265-3.45 4.942-.695 6.266-5.558 5.693-9.442.768-3.873-6.79-5.041-8.695-6.949-51.412-25.784-101.15-55.872-145.642-92.493-20.555-18.137-40.367-37.501-57.025-59.332 33.459-10.471 66.922-21.533 99.427-34.886 16.186-6.269 31.97-13.654 47.956-20.324 13.777-.824 35.238 11.378 47.617-7.79-39.844-31.68-81.981-60.536-122-92 18.46-3.147 36.747-9.476 52.556-19.843 2.812-1.977 5.79-3.981 7.64-6.974 3.036-6.56 1.165-14.548 1.804-21.54v-262.8c.152-17.771-.185-35.568.1-53.334-.195-5.155 5.055-5.157 9.073-5.828 10.504-2.535 22.222-6.395 28.827-15.681-40.797-31.697-83.489-61.062-124.5-92.5h-1.5c-15.335 24.27-36.643 45.725-52 70h-132.6c-6.617-.075-14.682.669-20.412-1.795-43.338-16.717-87.467-31.798-130.488-49.205-1.426 247.537.26 495.403-.5 743-32.22 5.449-64.688 10.2-97 15 16.787 35.882 36.47 71.096 54.663 106.406 4.427 9.055 9.032 17.986 13.93 26.781 1.853 3.403 3.275 7.057 5.431 10.273 1.376 3.069 5.964 1.397 8.14.365 5.29-2.491 9.49-6.694 13.313-11.004 2.806-3.007 4.373-6.84 6.51-10.279 3.13-4.059 10.181-6.41 14.958-9.986 5.17-3.083 10.445-5.98 15.546-9.163 37.355-21.942 74.494-44.268 111.061-67.447 17.645-11.435 35.477-22.553 52.783-34.52 9.04-5.98 18.076-11.933 26.899-18.214 4.442-3.14 9.104-5.925 13.44-9.203 4.198-2.41 9.296-7.33 13.326-8.009m-306 764.25c29.7 51.468 57.402 106.913 65 166.75 11.967 7.04 24.141 15.492 38.367 17.814 21.953 4.682 45.804-3.549 60.562-20.28 15.392-15.84 20.355-43.696 14.466-62.654-9.894-37.09-42.435-61.97-74.9-78.589-16.47-7.585-33.44-13.851-51.038-18.308-8.843-2.492-17.84-4.525-26.839-6.35-4.662-.689-9.258-1.826-13.932-2.374-4.317-1.16-8.676 2.66-11.686 3.741zm105-369c14.798 32.618 23.461 67.896 30.93 102.823 2.502 13.662 4.233 27.515 5.005 41.379.471 6.222-.461 13.68.49 19.341.053 2.315 3.08 4.05 4.785 5.883 15.758 13.748 36.637 23.17 57.97 20.127 32.633-3.308 57.881-35.707 54.815-68.01-.769-32.282-23.03-58.959-46.745-78.069-29.008-22.167-63.853-37.288-98.718-47.132-2.611 1.133-6.41 2.383-8.532 3.408zM1598 913h172V770h-172zm0 174h172V940h-172zm0 327c40.572-4.882 80.512-15.45 121-21-33.803-89.294-49.499-184.343-59-279h-62zm77-299.75c15.152 58.508 36.072 116.97 71.5 166.75 15.67-19.914 29.517-41.3 43.302-62.53 12.885-21.415 27.015-42.62 37.198-65.47-18.853 2.778-38.024 1.787-57 2v-41h-95z" style="fill:#000;fill-rule:evenodd;stroke:none"/></svg>