<svg xmlns="http://www.w3.org/2000/svg" width="3000" height="3000"><path d="M364 2760.5v1.5h2272v-1.5c-68.931-409.09-136.257-818.54-204.874-1227.691-51.076-306.848-102.33-613.661-153.4-920.497-4.868-28.824-9.564-57.688-14.431-86.508-1.116-7.008-2.365-13.985-3.488-20.978-1.2-6.774-.246-15.245-9.425-16.859-109.868-36.632-219.702-73.24-329.563-109.867-95.996-32.013-192.02-63.992-288-96-41.993-13.978-83.98-28.011-125.966-41.994-5.663-2.605-10.407-1.693-15.513.621-156.173 52.06-312.354 104.114-468.521 156.173-58.68 19.531-117.334 39.097-175.992 58.657-25.668 8.506-51.298 17.139-76.962 25.643-6.176 2.075-12.369 4.11-18.537 6.195-3.02 1.124-6.483 1.813-8.8 4.255-62.934 375.423-125.132 751.075-187.889 1126.544C490.857 1998.664 428.048 2380.37 364 2760.5m649-1639.75c1.167 2.88 4.004 6.217 5.5 8.25 41.567-17.701 83.968-34.256 123.49-56.438 19.835-9.68 38.98-20.555 58.013-31.69 9.415-5.483 18.787-11 28.012-16.792 4.738-2.798 9.227-5.998 14.06-8.62 4.51-2.047 9.8-6.856 13.925-7.46 1.395 7.623 3.99 15.083 6.363 22.436 1.23 3.938 8.69 1.855 11.406 2.564H1410v146h-317c1.626 7.701 3.976 15.393 6.189 22.935 1.02 4.533 9.205 2.42 12.193 3.065H1410v325h-369c1.626 8.861 6.127 18.764 7 27h870c17.577-.732 40.465 2.072 48-14.5-44.996-42.586-97.212-76.694-144.5-116.5-14.826 18.846-29.379 37.958-43.972 56.977-11.04 14.238-22.057 28.515-32.928 42.875-4.24 6.108-14.215 3.566-20.557 4.148H1561v-325h321c11.613.59 28.07-.137 35-14.5-43.22-36.045-87.375-71.49-131.5-106.5-13.694 15.736-24.93 33.556-38.232 49.632-9.411 12.573-19.118 24.916-28.583 37.446-1.782 2.465-3.584 4.956-5.882 6.942-5.733 1.83-12.657.456-18.685.98H1561v-146h92.4c15.622-.017 31.229.02 46.84-.011 12.428-.82 28.813.988 36.76-14.489-38.038-34.981-80.932-64.387-120.5-97.5-18.449 23.357-36.719 46.922-55.261 70.212-3.631 4.099-6.924 9.79-10.705 13.146-1.852 1.938-5.67 1.485-8.63 1.642H1260v-3c56.451-35.088 108.275-78.284 157.895-122.395 24.88-23.703 49.68-47.529 71.85-73.836 11.337-12.483 21.56-26.043 31.925-39.317 4.915-6.895 10.34-13.402 15.006-20.47 2.334-3.416 4.54-6.925 6.898-10.317 2.35-3.265 4.693-8.243 8.426-8.665 24.849 79.577 69.446 153.075 127.968 212.477 55.95 60.603 126.412 105.464 196.532 147.523 6.777-32.731 20.484-63.967 40.294-90.977 19.579-25.847 45.61-49.516 78.206-57.023-.142-5.032.252-10.029 1-15-82.036-15.828-162.917-39.306-240.286-70.909-36.865-14.971-71.981-33.86-104.885-56.195-16.14-11.518-32.402-23.157-46.562-37.129-7.056-7.401-14.702-14.249-21.534-21.857-3.216-3.87-6.628-7.585-9.758-11.522-2.848-3.703-7.554-7.829-7.975-12.388 10.688-.443 21.234-2.734 31.596-5.166 9.278-2.396 18.834-7.722 22.404-17.209-3.207-2.59-9.227-2.582-13.697-4.295-67.138-17.939-134.466-35.25-201.545-53.33-3.549 4.41-3.518 12.874-6.282 18.847-16.417 49.097-40.865 95.156-69.033 138.472-40.868 64.096-89.753 122.824-142.045 177.783-27.547 27.45-54.403 55.59-84.09 80.822-28.367 24.497-58.088 48.495-89.308 69.076zm3 1039.75c2.015 8.968 6.176 17.494 8 26.5h47c-1.237 70.786.402 141.754-5.426 212.347-3.489 33.47-6.839 67.156-15.127 99.852-7.132 31.464-19.54 61.428-33.447 90.386 4.007 3.337 6.991 7.63 10.5 11.415 31.092-21.98 60.237-47.365 83.02-78.152 34.568-46.037 54.707-101.252 67.012-156.976 10.726-58.983 16.288-119.006 18.468-178.872h33v418c20.007-.11 40.401.696 59.938-4.492 13.072-3.176 27.862-8.94 38.884-14.433 9.253-4.636 18.765-9.245 26.618-16.136 2.757-2.64 6.18-5.728 7.873-8.844 2.977-7.07.96-15.232 1.687-22.64V2119h3c.349 1.805 1.62 3.206 2 5 118.406-20.897 236.837-53.829 341.17-115.428 49.943-29.44 96.702-64.152 139.569-103.153 21.635-20.374 42.333-41.74 61.549-64.375 4.66-5.61 9.092-11.404 13.706-17.041 4.113-3.51 6.163-10.255 10.727-11.644 15.753-2.75 37.037-3.339 46.279-15.359a8374 8374 0 0 0-127.5-103l-35.975 35.975c-9.052 8.958-17.933 18.047-27.017 26.955-3.393 3.859-9.771 3.094-14.361 3.07H1665c.407-4.581 6.331-7.113 8.87-10.37 11.992-11.061 24.48-21.55 35.583-33.579 5.76-6.342 17.143-2.973 24.604-4.463 7.556-.45 17.422-4.502 18.943-11.588-60.337-15.962-119.733-35.69-180-52-20.33 51.686-51.338 98.557-84.732 142.632-17.15 22.317-35.17 44.04-54.534 64.458-9.394 10.376-21.222 22.045-30.695 30.687-10.696 8.785-20.14 20.132-32.039 27.223v1.5c5.207 7.11 13.688 2.043 20.173-.057 13.14-4.361 26.06-9.299 38.883-14.479 11.077-5.822 17.9 7.465 23.127 14.79 17.988 25.925 27.914 56.687 27.817 88.246 10.24 5.38 20.157 12.918 32.18 14.486 12.638 3.57 24.979-1.058 36.82-4.486-.534 4.446-6.596 6.4-9.487 8.993-27.834 17.83-56.314 34.787-85.844 49.68-15.02 7.744-29.783 15.989-45.44 22.429-7.495 3.45-14.78 7.384-22.55 10.225-7.332 2.6-15.449 7.933-22.679 8.673v-421c14.664-3.012 33.195-6.187 37-27-57.46-3.584-114.543-12.415-172-16v332h-50v-233c13.167-.675 31.137-7.284 33-24-52.35-3.94-104.687-8.644-157-13v376c30.047 1.117 60.101-2.82 88.307-13.625 6.529-2.336 12.949-5.037 19.149-8.118 4.723-2.226 9.402-4.636 13.249-8.226 5.335-5.525 2.354-16.97 3.295-23.966V2007h50v153h-213zm169-912.5c10.258 33.853 20.27 68.095 24.985 103.344 4.88 27.898 6.983 56.1 6.015 84.408.39 5.467-.342 10.896-.413 16.326 2.908 8.207 13.308 12.657 18.619 18.274 13.022 9.418 28.282 17.066 44.7 17.608 24.693 1.62 48.304-10.689 63.704-29.484 15.541-19.129 21.417-44.927 17.147-68.977-7.243-37.648-32.767-69.07-62.444-91.835-29.771-23.19-64.886-38.563-100.223-51.01-4.53-2.049-8.22-.58-12.09 1.346m193 912.25c2.225 4.988 2.792 10.765 4.777 15.91 1.373 3.416 1.737 10.342 5.767 10.485 13.867 1.007 27.906-.179 41.792.355H1700v247.2c-.05 7.048.391 16.604-4.897 20.78-9.623 6.497-26.317 3.013-39.169 3.629-40.268-2.161-80.768-3.662-120.934-6.609.497 3.193-.913 8.66 1.885 10.392 3.488.677 7.059 1.347 10.563 1.985 16.306 3.352 32.851 6.87 47.955 14.135 21.203 11.183 41.544 26.974 51.967 49.228 11.888 22.853 9.954 50.286 16.13 74.26 40.54-5.733 84.107-9.549 120.572-30.6 13.102-7.541 24.75-17.86 33.04-30.573 14.188-23.576 18.279-51.81 19.84-78.776.136-91.692-.024-183.369.048-275.051h124.8c11.537.081 26.935-.48 32.026-12.143 1.878-4.261-2.72-8.407-5.05-11.418-18.898-23.807-39.217-46.443-59.266-69.245-10.247-10.517-19.64-21.8-30.01-32.194-10.135 15.587-18.268 32.548-27.889 48.475-9.022 16.537-19.18 32.75-27.611 49.525h-7v-74.4c.227-6.162-.298-12.383.212-18.525.196-4.371 6.134-4.337 9.47-5.241 10.108-1.93 23.48-8.872 24.318-22.834-57.028-4.508-114.015-10.048-171-15v136h-322zm53 51.125c24.864 31.528 43.252 68.146 55.396 106.328 4.895 14.559 7.944 29.665 10.38 44.788.646 3.568 1.074 7.17 1.359 10.778-.374 7.846 4.126 11.863 10.355 15.045 9.672 6.632 22.706 12.077 33.323 13.885 21.326 3.394 43.048-5.828 57.903-20.664 10.61-11.855 17.502-26.802 18.91-42.742 1.9-24.192-9.544-48.083-25.46-65.59-15.552-17.193-36.059-29.168-56.557-39.375-16.487-7.528-33.794-12.974-51.303-17.514-9.316-2.233-18.652-4.375-28.073-6.128-7.873-.971-17.276-4.817-25.509.65-.278.122-.5.341-.724.539m24-320.875v1.5c34.211 2.944 70.148 7.007 99.302 27.227 13.853 9.382 24.871 23.89 26.863 40.885 1.413 8.655-1.325 17.481-4.879 25.25-1.687 3.863-4.122 7.348-6.758 10.612-2.152 3.093-6.161 6.804-6.528 10.026 5.443-.927 10.55-7.328 16.261-10.21 39.754-28.1 76.767-59.96 110.972-94.523 17.705-17.227 33.758-36.036 49.303-55.208 7.484-9.476 14.536-19.327 21.842-28.925 3.502-4.777 6.68-9.76 9.965-14.675 2.82-4.678 8.157-10.758 8.657-15.459h-100.8c-16.743.59-33.597-.72-50.293.389-6.254 2.43-12.324 9.03-17.765 11.998-4.636 4.598-14.178 7.454-15.142 13.613 32.924-1.175 83.668 2.983 97.077 44.825 8.541 28.274-13.75 57.994-41.318 63.244-10.945 2.14-22.456.964-32.996-2.326-10.065-2.152-11.44-13.388-15.685-20.5-7.235-13.89-16.64-26.413-26.863-38.227-4.074-4.644-8.675-8.808-12.948-13.248-3.54-3.545-8.212-8.034-12.748-7.18-31.328 17.171-62.144 36.35-95.519 49.412zm149-403.5c3.703.525 7.154 5.893 10.585 3.742 23.472-14.816 44.87-32.85 66.694-49.94 27.989-23.583 55.875-47.33 81.696-73.277 13.63-12.834 26.19-26.654 39.127-40.127 6.838-8.183 16.612-3.443 25.448-7.093 7.572-2.6 18.158-7.178 19.45-17.305-61.905-20.611-123.192-44.006-185-65-16.332 83.551-37.603 166.487-58 249" style="fill:#fedda9;fill-rule:evenodd;stroke:none"/><path d="M1011 1120.25c2.006 3.655 4.553 7.036 6.5 10.75 41.423-17.845 83.817-34.264 123.38-56.244 38.76-20.232 77.038-41.836 113.62-65.756 1.827 4.489 2.338 9.615 4.123 14.174 1.697 3.09 1.72 9.914 5.388 10.374 30.945 1.29 62.102-.235 93.092.452H1409v144h-318c3.093 8.523 4.765 19.624 8.31 27.107 10.4 2.1 21.482-.016 32.037.893H1409v323c-123.264.76-246.81-.926-370 .5 2.12 3.55 2.534 9.42 4.41 13.946 1.141 4.692 3.289 10.113 3.59 14.554h874.8c15.335-.542 38.237 2.142 46.2-16.5-46.522-41.778-98.333-77.668-146.5-117.5-15.174 18.515-29.313 37.908-44.044 56.773-10.962 14.305-22.137 28.406-32.894 42.856-4.333 7.223-13.089 5.256-19.724 5.371H1562v-323h322.2c11.535.43 30.832-.87 33.8-17-3.068-.734-5.5-4.584-8.516-6.618-20.194-17.809-41.775-33.964-62.478-51.15-10.364-8.495-20.777-16.927-31.375-25.112-10.78-7.503-20.198-17.722-31.631-24.12-11.198 17.136-25.299 33.159-37.228 49.961-9.394 12.508-19.007 24.845-28.46 37.3-1.767 2.165-3.51 5.034-5.4 6.782-3.964 3.64-12.259.926-17.995 1.957H1562v-144h79.8c20.018-.026 40.034.032 60.036-.017 13.358-.25 31.683-.594 35.474-14.699.839-2.063-2.485-4.352-3.424-5.867-27.16-23.511-55.84-45.194-83.852-67.654-10.533-9.038-24.232-18.071-33.534-26.763-18.73 23.078-36.67 46.81-55.268 69.995-3.608 4.397-6.895 9.028-10.586 13.35-4.01 4.165-11.779 2.019-16.938 2.655H1262.5l-1.5-.5c55.868-35.877 107.797-77.845 157.126-122.14C1467.9 836.576 1513.12 785.4 1550.5 729c13.779 39.998 30.27 79.324 52.75 115.326 33.267 53.336 74.997 101.292 122.944 141.81 46.32 40.246 98.486 73.07 151.306 103.864 6.203-33.034 20.308-64.297 39.945-91.526 19.639-26.032 45.744-49.933 78.555-57.474-.056-5.684.527-11.346 1-17-81.667-15.723-162.136-39.11-239.181-70.44-73.146-30.088-142.996-73.674-191.819-137.06 20.624-3.383 48.575-4.194 55-25.5-72.09-18.084-143.79-38.41-215.879-56.39-3.756-.996-4.74 4.97-5.589 7.498-13.75 51.396-40.452 97.94-67.904 142.944-41.572 65.345-90.663 125.798-143.998 181.818-53.402 56.781-112.446 108.847-176.63 153.13zM1023 2188h47c-1.408 70.843.637 141.931-5.683 212.567-4.74 65.186-18.142 130.905-49.317 188.933 4.614 4.1 8.331 9.003 12.5 13.5 30.824-22.6 60.645-47.237 83.38-78.368 34.897-46.004 55.1-101.437 67.556-157.288 10.812-59.134 16.38-119.316 18.564-179.344h31v418c20.65-.122 41.709.854 61.885-4.479 13.276-3.16 28.27-9.131 39.456-14.691 9.175-4.753 18.749-9.257 26.507-16.262 2.753-2.625 6.117-5.742 7.687-8.91 2.69-7.197.728-15.34 1.465-22.803V2121.5l.5-1.5c.736 1.747 2.072 3.148 2.5 5 118.975-19.703 237.51-53.965 342.36-114.923 50.363-29.694 97.571-64.61 140.767-103.985 21.696-20.53 42.549-41.969 61.797-64.785 4.538-5.763 9.25-11.394 13.755-17.182 3.33-3.587 6.751-10.298 11.036-11.022 15.96-2.959 36.648-2.658 46.285-16.603-43.098-34.897-86.074-70.049-129.5-104.5l-35.975 35.975c-8.993 8.986-17.985 17.993-26.978 26.974-3.906 4.547-8.788 4.312-13.974 4.051-37.086-.76-74.6.926-111.573-.5 13.558-12.06 27.06-24.225 39.975-36.975 3.288-3.14 6.855-7.886 11.266-8.349 12.172-.58 29.966 2.231 37.759-12.176-2.229-2.779-7.5-2.968-11.191-4.495-28.9-8.162-57.59-17.08-86.471-25.262-14.265-4.046-28.422-8.437-42.676-12.49-13.954-3.14-29.671-9.822-42.662-11.753-20.351 51.83-51.536 98.767-84.975 142.974-34.474 45.69-73.894 87.648-118.025 124.026 1.147 2.742 4.511 4.206 6.181 6.116 1.958 1.226 5.89-1.669 7.982-1.67 13.895-4.41 27.673-9.15 41.14-14.742 4.241-1.298 11.82-6.226 15.326-3.121 26.477 27.248 39.433 66.088 40.371 103.417 10.24 5.38 20.157 12.918 32.18 14.486 12.227 3.013 25.553-.09 36.82-3.986-28.32 19.53-58.418 36.422-88.619 52.802-31.369 15.703-62.52 32.27-95.381 44.698v-419c14.887-2.936 35.18-6.77 37-29-58.15-3.215-115.837-12.997-174-16v332h-48v-231c13.35-1.22 32.142-6.715 33-26-53.03-3.817-105.978-9.042-159-13v378c30.108 1.023 60.381-2.213 88.72-13.08 6.709-2.395 13.346-5.026 19.748-8.147 4.689-2.356 9.553-4.56 13.495-8.106 6.27-4.444 3.149-17.638 4.037-24.007V2008h48v151h-213c.562 10.12 6.63 19.072 8 29m160-940.614c12.499 36.976 22.183 75.143 27.252 113.94 5.637 30.72 5.27 62.514 4.496 93.409 13.882 16.024 33.058 28.038 53.62 33.079 31.963 6.468 66.45-9.867 82.096-38.489 17.054-28.661 14.161-65.692-1.344-94.335-14.61-27.7-42.118-53.248-65.574-68.97-27.494-17.589-57.661-30.725-88.461-41.303-4.063-1.43-9.048 1.492-12.085 2.283zM1699 2188v246c-.193 7.213.532 16.178-5.696 20.599-10.075 5.78-26.462 2.324-39.482 2.894-39.923-2.212-79.94-3.81-119.822-6.493.693 3.72-1.385 10.925 2.395 12.55 4.26.66 8.58 1.528 12.816 2.413 16.021 3.215 32.264 7.025 46.91 14.494 20.925 11.164 40.554 27.273 50.728 49.225 11.342 22.731 9.598 49.539 15.651 73.318 29.139-3.446 58.401-6.92 86.642-15.301 20.35-6.179 40.53-15.233 55.96-30.301 23.796-23.04 30.446-57.742 32.605-89.397.835-36.402-.152-72.839.293-109.233V2188h126c10.539-.085 26.525-.362 31.578-13.502 1.953-4.241-3.012-8.069-5.257-11.373-18.95-23.668-39.076-46.395-59.105-69.113-5.178-5.664-11.186-12.345-16.086-17.382-6.071-4.934-10.53-14.415-17.13-16.63-16.583 33.751-38.235 65.37-55 99h-5v-73.8c.31-5.94-.463-13.012.46-18.406.604-3.79 8.328-2.69 10.705-4.33 10.3-2.1 23.294-10.291 22.835-24.464-57.717-4.399-115.3-10.45-173-15v136h-322c1.775 8.807 4.645 17.568 7.313 26.144 1.228 4.663 10.22 1.93 13.27 2.856H1699m-269 23.5c18.147 25.612 35.15 52.73 46.474 82.22 9.183 22.548 15.95 46.206 19.396 70.327.901 4.651 1.145 9.396 1.68 14.086 1.15 7.217 11.402 11.798 18.04 16.147 13.75 7.769 29.746 11.545 45.423 8.739 21.58-3.38 42.028-16.873 51.104-37.263 11.1-20.76 9.897-46.141-.198-66.908-13.822-29.684-41.604-49.961-70.247-64.01-30.959-14.948-64.922-22.534-98.609-28.181-2.208.068-5.411-.976-7.017.337-2.075.854-4.053 2.618-6.046 3.006v1.75zm26-321.125c8.254 3.121 18.17.92 26.746 3.242 28.863 4.147 59.801 11.667 81.73 32.358 10.95 10.04 18.248 24.514 18.208 39.592-.64 14.89-8.079 28.75-18.684 38.933 58.271-38.873 111.684-86.577 157.912-139.39 20.619-24.32 39.781-49.843 57.088-76.61-32.554-1.426-65.45.26-98.064-.5-16.536.25-33.096-.304-49.614.164-5.954.822-11.428 7.841-17.583 11.046-5.454 4.256-11.625 7.6-16.739 12.29 32.882-.33 84.219 3.312 97.23 45.825 8.3 28.286-12.39 58.725-40.45 64.491-10.417 2.559-23.273 1.395-32.697-1.07-4.16-1.426-10.315-2.439-11.931-6.295-6.463-15.666-15.084-30.388-25.801-43.525-8.134-9.95-16.605-19.836-26.573-28.03-4.068-3.937-7.96-1.11-12.256 1.496-28.42 17.254-58.07 32.74-88.522 45.983M1612.5 1494c41.994-28.372 81.626-60.946 119.107-95.096 19.829-17.009 37.818-35.994 56.36-54.38 4.297-4.864 8.408-9.924 13.266-14.257 3.17-3.136 6.492-7.708 11.89-6.95 14.238.917 30.448-5.45 35.877-19.524-6.495-4.764-15.43-5.46-22.527-9.11-54.838-19.88-110.312-38.465-164.973-58.683-9.46 44.779-19.344 89.501-29.817 134.052-5.259 21.782-9.91 43.698-15.543 65.379-2.706 10.975-5.939 21.805-8.922 32.693-1.161 5.348-3.376 10.468-4.27 15.867-1.989 4.446 7.927 7.134 9.552 10.009" style="fill:#000;fill-rule:evenodd;stroke:none"/></svg>