<svg xmlns="http://www.w3.org/2000/svg" width="3000" height="3000"><path d="M407 2715h2186c-120.11-729.14-243.257-1457.94-364-2187-121.653-40.09-243.099-81.112-364.7-121.395-91.164-30.407-182.32-60.766-273.474-91.162a32206 32206 0 0 1-51.529-17.183c-8.003-2.659-16.01-5.346-24-8-7.038-2.654-14.998-6.446-23.453-2.372-120.19 40.07-240.392 80.12-360.578 120.183C1011.124 447.878 891.186 488.387 771 528c-120.737 729.033-243.897 1457.913-364 2187m625.344-1388c30.618-15.294 59.528-34.349 87.595-53.896 14.033-9.774 27.39-20.473 40.647-31.242 6.757-5.483 13.085-11.42 19.766-16.97 3.356-2.863 6.246-6.246 9.633-9.062 3.209-2.211 6.297-6.357 10.015-6.83-.056 61.913-1.364 124.31-13.353 185.25-3.382 13.987-7.376 28.199-15.03 40.55-11.466 22.889-40.571 17.126-60.717 16.94-22.964-1.416-45.873-3.633-68.9-3.74.107 3.8-.62 9.125 3.475 9.952 3.332 1.294 6.832 2.207 10.177 3.43 23.674 6.847 48.903 25.618 58.265 46.57 10.269 26.68 9.954 55.98 11.083 84.048 26.443.057 53.318-2.044 78.684-10.043 18.21-5.02 34.975-14.843 49.039-27.215 38.514-41.982 54-99.236 62.967-153.864 10.3-62.81 12.43-126.773 10.859-190.315-3.048-90.601-12.928-182.64-46.197-267.71-7.9-20.294-17.126-40.096-28.372-58.756-1.835-3.51-4.76-7.314-5.96-10.763-1.774-3.441 3.564-6.93 5.35-9.204 19.714-21.083 39.834-41.868 57.772-64.544 9.672-10.262 17.214-22.399 26.804-32.678 2.693-2.292 7.142-.931 10.91-.984 9.973.192 23.643-3.15 26.144-13.924-50.361-26.02-98.759-56.798-149-83-5.637 23.322-15.808 45.357-24.288 67.72-7.134 16.401-13.64 33.268-22.053 49.036-1.735 4.024-6.296-.972-7.906-2.467-18.787-16.814-38.887-31.994-59.844-46-10.521-6.349-20.694-13.226-31.455-19.163-5.186-2.866-10.241-5.976-15.517-8.673-2.759-1.583-5.464-3.182-8.558-3.956-3.007.793-4.518 3.77-7.379 5.003 21.69 24.09 43.838 48.016 61.109 75.674 13.352 20.096 25.683 41.12 35.204 63.307 1.013 4.189-2.93 9.096-4.212 12.112-16.574 29.485-33.586 58.841-52.805 86.693-9.677 13.895-19.27 27.833-29.93 41-5.383 6.711-10.66 13.547-16.248 20.087-2.674 3.087-5.754 6.825-8.098 9.725-2.076 3.101 3.834 7.269 4.48 9.902 24.217-13.908 48.797-27.404 71.555-43.704 11.488-7.715 22.705-15.778 33.611-24.293 5.735-4.175 11.31-8.529 16.818-12.986 5.033-3.488 11.105-10.703 16.516-11.017 3.487 18.276 11.077 36.885 5.562 55.603-12.164 62.46-33.516 122.818-59.831 180.589-13.11 27.998-28.059 55.085-44.401 81.315-8.264 12.704-16.778 25.255-25.693 37.51-4.298 6.174-9.022 12.055-13.633 17.98-2.276 2.96-4.775 5.767-6.952 8.799-2.652 2.98-.096 6.065 2.292 8.204m1.656 495.483c.665 3.152 2.607 6.541 3 9.517 59.233-6.452 117.87-18.353 176-31 11.097 21.861 21.97 45.112 24.414 69.996 1.18 6.554-.082 14.556 1.307 20.483 1.251 3.678 6.852 5.736 10.336 8.638 12.057 8.303 26.482 11.812 40.943 10.883v2c-37.609 32.51-78.866 60.84-120.366 88.143-42.864 26.144-86.136 52.64-132.634 71.857.406 4.035 3.372 8.113 5.5 11 40.871-7.662 81.43-17.096 121.496-28.167 19.568-6.467 39.525-11.665 58.816-18.927 19.195-5.215 37.006-14.868 56.188-19.906-.363 5.945-7.358 11.265-10.778 17.006-32.134 39.46-67.837 75.852-105.636 109.791-36.99 32.68-76.66 62.268-119.586 86.703 1.381 1.886 2.46 4.436 3 6.5 93.842-19.012 183.195-56.106 270-95 .318 3.98 1.467 8.933-.711 12.096-36.375 49.844-81.07 92.91-127.838 132.833-45.787 39.459-96.067 73.406-149.451 101.571 1.795 2.322 2.534 5.245 4.5 7.5 48.634-10.943 96.954-23.69 144.003-40.314 23.381-7.818 46.247-17.04 69.137-26.152 11.077-5.015 22.476-9.387 33.493-14.517 5.618-2.281 10.978-5.197 16.577-7.514 5.265-1.981 10.946-6.317 16.29-6.503-.436 24.613-4.616 49.028-9.114 73.139-3.966 16.75-8.782 33.882-18.66 48.213-7.704 11.305-26.1 9.181-37.497 9.648-42.02.22-83.85-4.819-125.729-7-.956 8.187 4.765 9.159 10.746 10.418 25.591 8.374 57.344 21.108 72.082 42.309 8.33 11.558 12.685 25.278 15.854 38.973 4.316 13.927 2.258 31.463 4.818 44.3 5.424-2.343 13.897.023 20.664-1.038 25.409-.841 50.879-3.12 75.675-8.932 20.975-4.593 41.287-13.352 57.342-27.855 26.111-26.427 41.38-61.82 48.455-97.918 12.461-58.808 10.264-120.218-1.264-178.922-10.846-54.405-31.028-106.797-59.52-154.362-17.966-32.146-42.703-60.788-67.852-86.973 24.924-13.468 52.413-23.563 77.036-38.019 12.322-6.289 24.267-13.28 36.236-20.206 6.092-3.617 12.194-7.214 18.007-11.268 5.922-2.54 11.247-8.645 16.721-9.507-.196 5.214-3.724 9.518-5.472 14.24-14.214 31.393-32.175 61.248-50.528 90.26 2.47 2.22 5.237 4.04 7.5 6.5 74.858-43.794 141.889-104.059 190.5-176h188c-5.203 124.827-9.44 249.923-24.259 374.097-3.806 30.026-8.258 60.024-14.891 89.563-4.664 20.804-11.895 45.627-23.245 61.858-9.46 14.052-26.622 20.916-42.925 21.376-53.31.182-106.55-4.294-159.68-7.894v9c37.23 6.731 74.508 19.99 104.509 43.647 15.723 11.776 24.723 29.797 28.955 48.555 2.192 9.846 3.48 19.906 4.635 29.913.362 5.258.75 10.542.877 15.81.504 4.66-.911 10.668 1.524 14.075 3.566-1.996 9.519-.32 14.138-1.003 35.383-.985 71.477-6.256 103.672-21.705 25.76-13.763 49.17-32.984 65.254-57.6 13.72-21.949 22.77-46.472 29.604-71.338 12.711-45.45 19.608-92.28 25.295-139.039 8.935-71.278 13.087-142.992 17.147-214.65 1.886-36.934 3.394-73.876 5.122-110.811 1.566-18.519.212-37.299 2.56-55.72.134-4.069 8.214-3.014 10.48-4.57 12.302-2.77 23.918-8.478 33.228-17.064-2.805-5.792-10.452-9.441-13.983-13.96-35.24-30.242-68.749-63.1-104.517-92.54l-43.475 43.475-16.5 16.5c-4.741 4.312-9.606 10.373-14.574 13.56-52.562 1.327-105.348-.242-157.951.465.296-4.046 3.399-7.074 5.192-10.475 14.363-24.263 27.268-49.33 39.296-74.798 2.786-6.56 6.17-12.848 8.618-19.545 2.14-4.88 3.871-9.968 6.332-14.698 1.867-4.061 7.421-3.5 11.201-3.642 12.53-.128 23.554-7.424 29.361-18.342-45.323-14.09-91.339-26.616-136.767-40.444-11.723-3.108-23.185-7.159-34.929-10.144-5.32-1.704-5.664 4.137-6.152 8.258-5.048 31.039-10.555 62.014-18.552 92.452-11.368 48.277-28.019 95.142-45.6 141.378-5.15-.097-8.93-4.191-12.992-6.751-26.756-18.282-52.465-38.532-79.508-56.249-6.488 7.135-12.116 15.028-18.907 21.888-3.61 3.312-6.625 7.18-9.847 10.835-3.04 2.936-7.018 7.888-10.746 8.277 1.38-20.47-9.804-39.26-25.905-50.909-7.3-5.497-16.86-10.52-24.37-14.141-4.446-1.938-8.854-3.926-13.484-5.372-4.11-1.82-10.772-1.68-11.241-6.578 30.63-7.32 60.253-18.529 90.03-28.608 7.353-2.907 14.757-5.621 22.062-8.621 5.137-2.412 11.17-5.774 18.007-3.522 17.13 4.971 38.043 6.314 52.901-5.749-43.525-32.931-88.495-64.21-132.5-96.5-41.142 37.85-87.195 70.006-134.323 99.881-48.066 29.787-97.717 57.853-150.177 79.119zm40 16.517c2.581 10.777 10.468 19.799 13.927 30.315 7.1 16.453 15.299 35.963 19.626 51.855 3.706 14.133 7.033 28.405 7.972 43.04.048 5.961 4.54 8.495 9.056 11.535 15.084 11.71 35.185 15.18 53.23 9.125 17.153-5.102 31.664-18.235 36.913-35.52 12.318-33.492-14.893-63.102-37.633-78.616-26.256-18.015-57.383-26.9-88.078-33.685-5.167-1.608-10.477-.934-15.013 1.951m206-308.5c2.08 8.514 5.272 16.897 7 25.5h618c14.805-.016 29.632.02 44.433-.01 11.555-.585 27.221.585 33.567-14.49-22.603-33.093-49.641-62.976-75.5-93.5-9.48 17.895-19.567 35.85-28.5 54h-3v-249c11.21-1.22 22.456-4.128 32.47-9.386 4.428-2.523 11.918-7.263 6.55-11.098-4.152-3.099-9.233-6.463-13.092-9.219-9.91-6.598-19.451-13.695-29.373-20.273-24.304-17.288-49.275-33.76-73.555-51.024-11.851 13.734-22.278 28.964-33.756 43.055-5.212 6.158-9.588 13.054-15.121 18.924-3 2.81-8.343 1.756-12.071 2.021h-201.568c-16.79-.225-33.591.275-50.375-.149-11.046-2.128-21.12-8.03-31.825-11.327-30.045-12.269-60.976-22.822-90.784-35.524-1.426 120.21.26 240.72-.5 361h-83zm52-573.5h229v85.8c-.402 6.111 1.065 14.248-2.334 18.688-3.607 5.003-10.102 4.468-15.061 4.512-39.617.048-79.024-4.983-118.605-6 .554 3.334-1.073 9.324 2.395 10.607 3.557.87 7.191 1.677 10.798 2.362 27.43 4.45 54.603 16.124 72.127 38.515 9.065 11.168 13.159 25.323 15.704 39.165 2.827 14.319 4.574 28.848 5.976 43.351 28.063-3.65 56.693-5.764 83.777-14.767 19.065-6.176 38.171-14.895 52.198-29.708 10.975-10.666 16.76-25.344 20.82-39.732 7.079-24.52 6.528-50.162 6.205-75.367V957h211.8c11.65-.127 23.324.312 34.95-.553 9.104-.467 21.874-2.709 25.25-13.994-39.35-32.077-78.584-64.405-119.5-94.453-11.724 13.315-21.971 27.96-33.403 41.534-10.084 14.119-22.889 26.873-32.097 41.466h-87v-57c12.046-1.228 30.023-5.962 32-22-2.296-.615-4.628-.993-7-1v-3c15.687-3.277 30.414-10.339 45.66-15.103 22.243-8.182 43.959-17.619 65.452-27.568 11.103-4.174 22.765-12.891 33.413-15.436 11.422-2.602 26.544-2.433 33.475-12.393-20.635-17.322-41.41-34.488-62.194-51.637-10.405-8.665-20.747-17.396-31.197-25.988-10.539-7.91-19.929-17.981-31.109-24.875-20.556 23.098-42.855 44.646-64.102 67.102-4.62 5.724-10.551 5.289-16.86 4.898H1396c2.366 7.788 4.664 17.529 8.274 24.074 9.198 2.048 19.107.113 28.476.926H1703c-4.488 12.943-14.905 26.383-20.45 37.642-5.776 9.215-11.636 18.324-17.846 27.253-2.324 2.753-5.24 8.705-8.75 8.649-31.612-2.287-63.356-4.731-94.954-7.544v93h-236c.896 8.961 5.213 17.233 7 26m134 1176h226.2c12.612-.006 25.238.007 37.842-.004 10.108-.104 24.933-2.018 28.958-14.535A2465 2465 0 0 0 1641.5 2001c-20.525 30.543-39.21 62.334-59.257 93.195-2.655 3.716-4.825 8.928-8.206 11.595-4.353 2.376-9.531.447-14.33 1.21H1459c1.37 8.865 5.072 17.272 7 26m10-603h33v-288h-33zm120 0h39v-288h-39zm129 0h34v-288h-34z" style="fill:#fedda9;fill-rule:evenodd;stroke:none"/><path d="M1026 1321.5c.941 2.706 4.43 4.921 6.5 7.5 59.95-32.396 116.79-71.624 166-119 1.778 31.329-.931 63.095-1.905 94.45-1.353 22.324-3.195 44.68-6.96 66.747-2.685 16.439-5.545 33.068-12.101 48.507-4.395 10.455-9.786 22.328-20.521 27.754-8.888 4.563-19.131 3.56-28.729 3.542-29.132.092-58.133-4.3-87.284-4 .202 4.556-1.093 10.956 3.805 12.091 4.283 1.507 8.635 2.798 12.915 4.318 23.085 7.186 47.234 26.324 55.848 47.06 9.472 26.36 9.4 54.962 10.432 82.531 26.912.062 54.292-1.773 80.15-9.883 18.388-5.047 35.381-14.856 49.573-27.375 39.131-42.583 54.305-100.796 63.344-156.17 14.409-92.719 13.18-187.267 4.697-280.457-8.992-86.235-28.9-173.396-75.764-247.615 21.254-21.716 41.533-44.376 61.326-67.408 9.665-11.39 18.937-23.119 28.165-34.84 2.354-3.116 6.39-2.559 10.895-2.271 11.372.556 24.475-3.092 28.614-14.313-49.383-29.655-100.969-56.19-150.5-85.668-14.668 40.23-29.22 81.775-49 120-36.117-33.84-78.17-61.376-122.036-84-2.485 2.883-5.491 5.186-8.464 7.5 21.391 23.383 42.918 46.857 60.104 73.671 13.362 19.166 24.761 39.576 34.813 60.634 1.195 2.095 2.023 4.32 2.584 6.642-14.697 30.49-34.318 59.245-51.928 88.222-9.503 14.188-19.494 28.054-29.792 41.674-5.129 6.913-10.61 13.507-15.992 20.199-4.458 6.904-12.804 13.139-15.789 20.126 2.263 2.251 5.125 5.886 6 8.332 50.606-22.747 94.83-59.352 139-92 3.32 17.84 10.868 35.939 5.426 54.158-11.951 60.965-32.524 119.998-58.168 176.436-24.953 54.747-57.058 106.505-95.258 152.906m10 511.5c59.206-6.245 118.035-17.589 176-31 11.097 21.861 21.97 45.112 24.414 69.996 1.18 6.554-.082 14.556 1.307 20.483 1.251 3.678 6.852 5.736 10.336 8.638 5.928 3.832 12.411 6.644 19.107 8.77 6.93 3.019 14.744 1.411 21.836 2.613-38.51 31.8-79.021 61.2-121.127 88.072-42.49 27.47-87.289 51.242-132.873 72.928.959 3.434 3.819 7.595 5.651 9.802 2.077 3.033 8.448-.381 11.16.028 77.097-14.354 153.07-35.741 225.689-65.33.235.488.42.967.5 1.5-65.768 83.235-145.237 157.06-237 211 2.424 2.445 3.306 5.91 5.5 8.5 45.934-11.797 92.52-24.232 137.191-40.739 44.426-16.19 88.867-33.303 130.809-55.261 3.083 7.967-1.781 13.223-6.499 18.666-33.6 43.652-72.906 82.506-114.62 118.33-30.806 26.753-63.55 51.207-97.676 73.514-12.555 7.888-25.227 15.594-38.253 22.688-5.717 3.594-13.02 6.816-18.238 10.112-3.302 1.422-.2 6.722 1.09 8.49 1.248 2.9 6.057 1.135 8.288.832 94.178-19.91 185.478-52.748 272.408-93.632-.779 24.217-4.755 48.227-9.287 71.96-4.057 16.609-8.773 33.688-18.802 47.814-7.585 11.11-27.82 8.738-37.771 9.226-41.835.2-83.42-5.28-125.14-7 .459 3.095-.863 8.934 2.704 9.776 3.547 1.525 7.411 2.186 10.992 3.624 25.22 9.523 53.997 19.162 69.984 42.625 17.112 23.937 17.584 54.097 19.32 81.975 9.519-1.713 19.257-.53 28.841-1.27 33.537-2.17 68.21-4.927 99.47-18.418 10.9-5.034 21.172-11.499 29.782-19.934 29.583-31.02 43.436-72.923 50.062-114.359 6.617-45.176 6.357-91.478-.163-136.642-7.697-50.596-22.749-99.969-45.272-145.927-22.453-44.059-49.904-86.443-86.72-119.95 50.228-22.683 99.9-47.982 146-78.25-16.337 35.675-34.937 70.705-57 103.25 3.117 2.731 8.042 7.844 11.618 6.367 4.444-1.713 8.198-4.804 12.412-6.966 69.138-43.249 131.392-100.12 176.97-167.901h186c-5.534 124.674-9.417 249.704-24.464 373.732-3.81 29.994-8.266 59.954-15.035 89.433-4.59 20.713-12.088 45.27-23.565 61.257-9.613 13.732-26.718 20.105-42.792 20.496-53.149.216-106.161-4.736-159.144-7.918v11c37.03 6.724 74.189 19.802 104.072 43.314 15.828 11.643 24.999 29.63 29.252 48.395 2.338 9.81 3.461 19.885 4.727 29.859.386 5.25.748 10.518.915 15.768.548 4.821-.93 11.074 1.534 14.664 11.204-1.754 22.733-.317 33.995-1.842 39.152-2.462 78.962-12.195 110.582-36.476 23.588-16.52 42.107-39.507 53.411-65.956 18.057-41.392 26.8-86.071 34.287-130.332 6.952-44.426 11.966-89.157 15.576-133.961 5.342-59.62 8.422-119.38 11.474-179.146.981-30.61 3.316-61.197 3.754-91.832.31-7.611.356-15.25.768-22.846.08-5.636-.264-12.508 5.858-12.795 14.142-3.246 30.589-8.15 39.795-20.314-19.651-18.46-40.26-35.878-60.08-54.147-9.676-9.449-20.323-17.832-30.149-27.096-9.319-7.859-18.81-17.792-30.271-26.257l-43.475 43.475-16.5 16.5c-4.802 4.28-9.624 10.35-14.426 13.813-6.227 2.426-12.573.402-19.149 1.212-45.923-.76-92.113.926-137.95-.5 16.84-24.792 29.242-52.199 42.68-78.839 3.253-6.913 6.2-13.97 9.373-20.91 2.188-5.348 4.275-10.72 6.693-15.964 2.02-5.206 6.762-4.979 11.328-4.908 10.906-.567 26.665-6.35 29.926-20.879-59.497-16.673-118.598-35.028-178-52-12.734 83.46-34.519 165.629-66 244-31.647-19.103-60.332-44.073-91.5-64-12.63 14.036-24.148 29.075-38 42-.875-9.642-1.414-19.716-6.687-28.359-13.446-26.112-43.613-36.488-68.813-46.141 31.298-9.106 62.682-18.908 93.25-30.403 7.406-2.963 15-5.472 22.25-8.826 9.724-5.267 23.827 2.306 36.217 1.71 6.008-.04 12.078-.709 17.833-2.49 4.905-2.236 13.153-4.243 14.45-9.491-45.286-31.177-89.605-65.034-134.5-97-41.157 38.346-87.627 70.461-134.922 100.629-48.183 29.869-97.98 58.076-150.578 79.371.015 4.207 2.243 7.95 3 12m35 6.375c14.784 25.023 27.879 57.29 35.553 82.795 2.975 11.448 5.912 22.906 7.167 34.709 1.152 4.892-.185 12.045 3.465 15.024 14.199 12.443 33.428 19.704 52.347 16.01 13.15-1.71 27.377-9.496 35.464-18.532 14.663-15.92 17.52-40.12 8.583-59.425-7.697-19.316-24.644-33.123-41.47-44.192-15.333-9.055-31.657-16.473-48.867-21.186-8.802-2.797-17.76-5.12-26.796-7.012-4.51-1.076-9.01-2.228-13.626-2.69-3.6-1.109-7.345 2.576-11.081 3.952-.287.12-.54.366-.739.547M1286 1557h638.4c16.277-.967 36.988 2.37 51.06-4.3 5.26-2.51 9.581-9.542 6.995-14.327-22.417-32.715-49.328-62.203-74.955-92.373-11.226 17.554-19.291 37.117-30 55-1.426-82.207.26-164.736-.5-247 15.666-2.263 33.686-6.187 44-19.5-41.136-27.577-81.596-56.539-122.5-84.5-11.518 14.18-22.325 28.988-33.671 43.294-5.017 6.303-9.79 12.844-14.967 18.997-2.973 3.201-7.57 2.739-11.61 2.709h-202.168c-16.894-.512-33.865.628-50.73-.35-41.615-13.875-81.726-32.91-123.354-46.65v361h-83c.685 9.653 5.751 18.463 7 28m37-625.75c3.052 8.635 5.021 18.013 8 26.75h229v85.2c-.185 6.063.92 13.983-2.997 18.071-3.57 4.302-10.655 3.734-15.572 3.729-39.214.06-78.237-5.39-117.431-6 .8 3.914-1.484 10.832 2.374 12.59 4.443 1.075 8.98 2.01 13.47 2.88 26.743 5.08 53.412 16.43 70.186 38.926 8.74 11.185 12.664 25.121 15.095 38.822 2.767 14.135 4.51 28.458 5.875 42.782 25.012-2.41 50.034-5.111 74.415-11.445 17.487-4.465 34.832-10.573 49.608-21.236 23.829-14.894 35.106-42.458 38.452-69.214 4.35-29.532 1.542-59.61 2.525-89.33V958h231c8.965-.084 19.68-.27 27.66-2.48 3.645-1.064 7.103-2.967 9.745-5.725 2.302-2.183 4.261-7.358 1.946-9.302-38.44-32.882-78.71-63.737-118.851-94.493h-1.5c-19.695 28.898-45.281 55.098-65 84h-85v-55c12.493-1.032 31.85-6.72 32-24-1.814-.46-3.634-.893-5.5-1l-1.5-.5c30.77-9.126 60.637-21.164 90.158-33.636 14.77-6.505 29.395-13.256 43.677-20.792 12.572-8.355 34.62-2.484 45.165-17.572-20.81-17.852-42.144-35.08-63.194-52.637-21.503-16.668-41.317-35.96-63.306-51.863-20.787 23.228-43.122 45.014-64.602 67.602-4.645 6.029-10.572 6.002-17.154 5.398-99.179.76-198.65-.926-297.744.5 2.23 3.766 2.559 10.003 4.902 14.688 1.903 3.357 2.107 10.73 6.08 11.347 35.994 1.327 72.19-.242 108.22.465 62.834.76 126.082-.926 188.798.5-7.932 11.726-13.422 25.317-21.646 36.969-5.941 8.994-11.449 18.293-17.752 27.05-2.065 2.744-4.741 7.494-8.987 6.947-31.23-2.254-62.408-5.076-93.615-7.466v93h-208.8c-9.236 1.013-19.172-1.346-28.2 1zm134 1176c3.42 8.47 4.96 18.073 8 26.75h249c10.042-.223 20.301.743 30.17-1.56 6.927-1.194 18.343-8.416 14.434-15.793-17.507-21.71-38.56-40.291-57.837-60.38-19.882-19.185-38.821-40.684-60.767-57.267-18.188 32.026-39.919 62.444-58.757 94.195-2.655 3.716-4.825 8.928-8.206 11.595-4.353 2.376-9.531.447-14.33 1.21h-77.364c-7.927 1.04-16.646-1.374-24.343 1zm20-578.25h31v-286h-31zm120 0h37v-286h-37zm129 0h32v-286h-32z" style="fill:#000;fill-rule:evenodd;stroke:none"/></svg>