<svg xmlns="http://www.w3.org/2000/svg" width="3000" height="3000"><path d="M364 2760.5v1.5h2272v-1.5c-68.931-409.09-136.257-818.54-204.874-1227.691-51.076-306.848-102.33-613.661-153.4-920.497-4.868-28.824-9.564-57.688-14.431-86.508-1.116-7.008-2.365-13.985-3.488-20.978-1.2-6.774-.246-15.245-9.425-16.859-109.868-36.632-219.702-73.24-329.563-109.867-95.996-32.013-192.02-63.992-288-96-41.993-13.978-83.98-28.011-125.966-41.994-5.663-2.605-10.407-1.693-15.513.621-156.173 52.06-312.354 104.114-468.521 156.173-58.68 19.531-117.334 39.097-175.992 58.657-25.668 8.506-51.298 17.139-76.962 25.643-6.176 2.075-12.369 4.11-18.537 6.195-3.02 1.124-6.483 1.813-8.8 4.255-62.934 375.423-125.132 751.075-187.889 1126.544C490.857 1998.664 428.048 2380.37 364 2760.5m656-1173.125c1.347 1.586 4.009 2.776 6.002 4.138 2.65-.16 4.908-1.786 7.1-3.076 34.829-20.525 68.269-43.735 98.272-70.93 30.819-27.644 57.28-59.701 80.885-93.593 38.104-59.552 64.593-126.503 78.201-195.886 14.605-73.33 19.538-148.359 19.54-223.028h62c11.449 66.747 26.662 133.291 50.872 196.677 17.78 46.067 39.644 90.869 66.962 132.05 2.443 3.935 5.288 7.59 7.598 11.607 2.337 3.934-1.618 8.206-4.336 11.022-46.461 49.576-99.076 93.555-156.708 129.704-57.702 36.588-119.72 66.355-183.388 90.94.341 2.773 2.248 4.716 3.932 6.727 1.895 1.764 5.87.538 7.825.431 83.613-15.29 166.6-36.431 245.036-69.66 39.383-15.702 76.998-35.327 113.099-57.498 13.436-8.072 26.428-16.842 39.43-25.597 6.114-5.82 11.948 1.621 16.683 6.02 38.768 35.35 82.591 64.534 129.054 88.734 47.54 24.429 97.035 45.443 147.941 61.843 10.393-31.954 25.676-63.568 49.975-87.475 23.134-24.555 54.74-41.207 88.025-46.525.446-3.659.98-7.317 1-11-112.217-19.036-224.069-47.673-327-97 .047-4.67 4.356-7.5 7.053-10.835 44.05-48.079 83.013-101.166 114.15-158.57 16.217-28.97 29.937-59.249 42.871-89.79 7.27-15.25 11.44-31.866 18.579-47.115 2.522-2.838 9.246-1.207 12.393-2.636 12.326-1.696 24.42-6.236 31.954-16.554-44.8-41.576-90.704-81.926-135.5-123.5-26.113 25.812-52.758 51.058-78.87 76.87-4.929 6.675-14.43 5.207-20.476 5.13H1310V774h567c13.616-.007 27.221.008 40.832-.004 10.955.025 24.15-.938 30.168-14.496-21.543-19.244-44.33-37.027-67.007-54.912-23.064-17.21-45.1-35.855-68.493-52.588-17.562 20.665-33.314 42.881-50.444 63.905-7.429 9.324-14.568 18.86-22.084 28.109-3.954 5.47-11.19 3.71-16.516 3.986h-371.82c-9.057.452-18.219.596-26.617-3.2-53.695-21.158-107.275-42.882-161.019-63.8v249c-.639 118.498-.705 237.88-19.699 355.202-10.058 55.25-23.604 110.088-44.364 162.378-20.5 49.704-47.118 97.205-79.937 139.795M1032 2413h388v192c22.812-.189 45.904.302 68.395-4.091 15.622-3.254 30.95-7.91 45.728-13.956 10.512-4.082 20.897-8.879 29.889-15.788 8.072-5.625 5.77-18.334 5.988-26.621V2413h364.8c15 .083 35.913 1.255 41.2-14.531-46.806-37.575-94.46-74.963-143.5-109.469-15.682 17.73-29.593 36.977-44.913 55.008-11.472 13.272-21.376 28.143-33.519 40.767-6.37 2.562-15.856.297-22.595 1.225H1570v-123h142v37c22.262-.104 44.872-.028 66.639-5.398 15.345-3.5 30.237-8.55 44.941-14.065 10.164-4.778 20.922-8.605 30.171-15.081 7.772-4.947 4.46-17.318 5.249-25.236V1964c14.922-1.248 28.631-8.967 39-19.5-43.73-33.58-87.673-67.076-131.5-100.5-11.029 13.813-24.344 25.593-35.453 39.323-9.436 9.37-17.57 19.977-27.163 29.172-3.994 3.652-11.009 2.154-15.924 2.505H1570v-106h339c12.715.114 31.379 1.043 38-14.5-45.551-38.289-94.453-72.515-142.5-107.5-14.585 15.804-26.935 33.561-40.99 49.827-10.423 12.356-20.307 25.14-30.612 37.577-2.025 2.314-3.686 5.008-6.125 6.913-4.48 3.278-12.88.65-18.946 1.683H1570v-89c8.134-1.944 16.842-3.072 23.98-7.796 8.085-4.84 10.49-11.959 13.02-19.704-62.248-5.368-124.649-12.636-187-17.5v134c-120.264.76-240.81-.926-361 .5 2.221 3.671 2.582 9.8 4.57 14.482 1.553 3.216 1.586 10.167 5.448 10.568 34.802 1.283 69.838-.233 104.676.45H1420v106h-109.8c-8.143-.154-16.743.957-24.39-2.472-48.907-19.262-98.446-37.28-147.31-56.528-1.426 159.538.26 319.402-.5 479 31.42 1.073 63.142-1.552 92.728-13.08 13.824-4.595 27.084-10.792 39.294-18.73 5.65-3.842 12.754-9.36 12.89-16.143.228-8.023-.022-16.028.088-24.047h137v123h-395c1.076 9.274 5.732 17.776 7 27m251-341h137v-131h-137zm0 164h137v-137h-137zm399-1231h-294c.286 8.466 4.757 17.727 6.559 25.176 19.06 59.63 46.91 116.92 86.433 165.789 19.216 24.898 40.873 47.76 64.541 68.43 2.995 2.571 5.843 5.346 9.1 7.589 3.295 2.739 5.704.628 7.34-2.474 13.335-19.043 25.806-38.63 37.276-58.837 18.475-31.317 33.562-64.484 47.872-97.841 7.493-17.336 13.827-35.14 19.791-53.05 2.866-9.139 5.85-18.265 8.55-27.444 2.457-8.714 6.443-18.898 6.538-27.338m-112 1067h142v-131h-142zm0 164h142v-137h-142z" style="fill:#fedda9;fill-rule:evenodd;stroke:none"/><path d="M1018 1587.5c2.488 2.588 5.8 4.183 8.5 6.5 48.22-27.532 93.64-60.534 131.975-100.975 58.816-61.095 100.2-137.464 122.395-219.166 23.7-87.1 30.076-177.971 30.13-267.859h60c10.69 61.438 24.079 122.784 45.321 181.544 20.155 56.885 47.422 111.278 81.679 160.956-46.924 51.227-100.246 96.972-159.06 134.237-59.08 37.363-122.385 69.052-187.94 93.263.75 4.013 4.467 8.497 6.5 11 73.907-14.48 148.374-31.01 219.03-57.97 67.473-24.944 132.419-58.162 190.97-100.03 39.95 37.71 85.136 69.31 133.654 94.984 49.23 27.524 102.55 46.888 155.346 66.016 10.589-31.931 25.41-63.701 49.733-87.733 23.329-24.85 55.036-41.994 88.767-47.267.574-4.357.943-8.724 2-13-57.872-9.394-115.276-22.586-171.78-38.21-53.732-14.8-106.196-34.264-156.22-58.79v-1.5c46.75-48.56 86.39-103.66 119.427-162.367 16.263-30.057 31.198-60.821 44.272-92.406 7.58-15.643 11.687-32.858 19.225-48.445 3.53-2.228 9.353-1.01 13.197-2.417 6.066-1.328 12.208-2.716 17.85-5.391 6.1-2.24 10.024-7.224 14.029-11.974-45.403-42.292-92.1-83.21-137.5-125.5-25.382 25.023-55.567 53.926-78.87 76.87-5.299 7.014-12.112 6.871-19.687 6.13H1311V775h532.8c26.805-.241 53.609.295 80.407-.16 8.815.006 17.797-3.1 22.8-10.818 1.26-1.437 1.092-3.508 1.527-5.246-20.615-20.368-44.933-37.175-67.215-55.73-22.997-17.61-45.61-35.75-68.819-53.046h-1.5c-15.045 21.992-33.546 42.415-49.317 64.074-7.398 9.343-14.626 18.86-22.081 28.145-3.691 6.06-10.976 4.846-16.546 4.781h-373.019c-17.35 1.227-33.1-6.435-48.756-13.078-45.766-18.684-92.148-36.004-137.781-54.922-2.868 163.214 3.872 327.077-7.013 490.134-4.499 76.815-17.166 153.267-39.91 226.825-10.085 35.386-24.505 69.313-41.505 101.876-16.154 31.5-35.305 61.814-57.072 89.665m5 798c2.629 9.433 5.877 18.926 8 28.5h388v192c22.947.05 46.063.167 68.744-3.728 15.787-3.334 31.404-7.641 46.319-13.89 10.854-4.242 21.67-9.02 30.949-16.217 8.072-5.625 5.77-18.334 5.988-26.621V2414h367.2c13.294.333 33.993 1.003 39.8-16.5-48.124-37.096-95.728-75.648-145.5-110.5-16.078 17.323-29.412 37.046-44.947 54.826-11.125 13.651-21.828 27.706-33.308 41.05-2.857 2.59-6.966 2.052-10.586 2.124H1571v-121h140v37c22.566-.113 45.446.095 67.56-5.124 15.722-3.562 30.952-8.696 46.02-14.34 10.164-4.777 20.922-8.604 30.171-15.08 7.875-5.087 4.363-17.781 5.249-25.835V1965c15.4-1.313 29.464-9.503 40-20.5-44.002-34.77-89.388-67.87-133.5-102.5-11.306 13.582-24.117 25.838-35.55 39.29-9.222 9.656-17.77 19.909-27.167 29.393-3.66 4.225-10.622 3.345-15.604 3.317H1571v-104h336.6c10.368.111 21.335.857 30.93-3.994 3.041-1.54 6.933-4.659 8.256-8.526 2.046-4.046-1.922-6.566-4.745-8.995-44.089-36.756-91.499-69.334-137.541-103.485h-1.5c-12.084 17.351-27.424 33.31-40.142 50.414-10.448 12.327-20.287 25.18-30.627 37.58-3.546 5.14-7.187 10.273-15.234 9.006H1571v-87c8.462-2.027 17.604-3.143 24.846-8.408 7.316-4.836 11.25-13.117 12.154-21.592-62.747-5.218-125.99-11.546-188.5-18-1.426 44.88.26 90.058-.5 135h-361v1.5c1.787 5.323 3.138 10.794 4.77 16.16 1.4 4.071 1.72 9.928 6.31 10.11 13.921.653 27.928-.116 41.864.23H1419v104h-109.8c-16.076 1.184-30.957-4.967-45.512-11.306-41.909-16.523-84.594-31.527-126.188-48.694-1.426 160.538.26 321.402-.5 482 31.72 1.058 63.826-1.039 93.727-12.755 14.031-4.558 27.408-10.921 39.883-18.756 5.503-3.92 12.781-9.17 13.245-15.829.368-8.22-.03-16.448.145-24.66h135v121h-396zm261-314.5h135v-129h-135zm0 164h135v-135h-135zm273.5-962c28.205-39.294 52.574-81.518 72.766-125.456 10.676-22.186 19.889-45.135 28.46-68.192 7.306-24.411 17.705-48.182 22.274-73.352h-292c13.018 52.306 36.047 102.102 63.762 148.12 28.93 44.483 63.836 85.037 104.738 118.88m13.5 798h140v-129h-140zm0 164h140v-135h-140z" style="fill:#000;fill-rule:evenodd;stroke:none"/></svg>