<svg xmlns="http://www.w3.org/2000/svg" width="3000" height="3000"><path d="M364 2760.5v1.5h2272v-1.5c-68.931-409.09-136.257-818.54-204.874-1227.691-51.076-306.848-102.33-613.661-153.4-920.497-4.868-28.824-9.564-57.688-14.431-86.508-1.116-7.008-2.365-13.985-3.488-20.978-1.2-6.774-.246-15.245-9.425-16.859-109.868-36.632-219.702-73.24-329.563-109.867-95.996-32.013-192.02-63.992-288-96-41.993-13.978-83.98-28.011-125.966-41.994-5.663-2.605-10.407-1.693-15.513.621-156.173 52.06-312.354 104.114-468.521 156.173-58.68 19.531-117.334 39.097-175.992 58.657-25.668 8.506-51.298 17.139-76.962 25.643-6.176 2.075-12.369 4.11-18.537 6.195-3.02 1.124-6.483 1.813-8.8 4.255-62.934 375.423-125.132 751.075-187.889 1126.544C490.857 1998.664 428.048 2380.37 364 2760.5m661-760.5h483.6c5.195-.013 10.482.273 15.565-1.04 4.243-.93 8.779-3.847 12.835-3.96v427.8c.418 33.365-1.796 67.13 4.135 100.164 2.652 13.157 7.04 26.256 15.041 37.177 16.17 20.675 42.646 28.12 67.65 30.616 47.587 5.281 95.669 2.29 143.432 3.233 34.83-.412 69.675-1.57 104.27-5.698 24.23-3.784 49.156-7.562 71.347-18.73 15.81-7.578 30.842-20.114 36.843-37.22 4.68-12.66 5.787-27.193.412-39.892-3.535-9.722-10.343-17.665-18.955-23.29-5.92-4.049-12.29-7.404-18.799-10.373-7.193-2.012-6.917-8.097-6.823-14.158-1.138-18.265-2.473-36.529-3.496-54.8A164 164 0 0 1 1932 2385c10.652.562 17.614-5.205 22-13.5-16.273-15.885-34.585-29.584-52.325-43.738-18.305-13.443-35.423-29.087-54.175-41.762-10.61 12.3-19.917 25.688-30.26 38.212-7.694 9.478-14.95 19.335-22.652 28.796-1.391 1.933-2.966 3.71-4.898 5.109-9.463 2.065-19.744-.005-29.392.883H1672v-81h196.2c10.95.042 21.889.194 32.808-.707 9.286-.226 18.54-5.028 21.992-13.793-30.358-30.001-65.836-54.24-98.5-81.5-17.779 22.38-34.685 45.961-53.345 67.661-2.54 2.564-8.804.514-11.839 1.339H1672v-77h206.4c20.514-.724 47.765 5.233 57.6-14.5-13.56-13.627-28.562-25.717-43.46-37.842-7.52-6.01-15.233-11.764-22.616-17.927-3.882-2.828-7.612-5.809-11.328-8.833-3.224-3.219-9.038-5.718-9.596-9.898 21.029-3.24 41.636-9.249 61.834-15.806 5.376-1.417 10.307-4.264 9.164-11.369.005-17.922 0-35.85.002-53.758V1942c7.445-.462 15.726-3.816 21.89-6.477 3.669-1.572 7.014-3.778 10.126-6.25 2.94-2.22 6.85-4.823 6.984-8.273-10.69-5.612-21.413-16.192-30.948-21.957-30.084-22.477-60.548-44.494-90.552-67.043-10.3 10.574-19.296 22.288-29.724 32.74-7.549 8.259-15.128 16.471-22.489 24.888-5.171 7.761-17.595 4.774-25.465 5.372H1676v-78h226.2c12.611-.004 25.239.005 37.841-.003 9.901.052 24.076-2.333 27.959-14.536-39.11-36.357-80.634-70.11-121.5-104.461-19.928 27.535-39.56 55.305-59.663 82.718-2.89 3.015-4.835 8.341-8.21 9.813-34.117 1.337-68.468-.243-102.627.469v-103c7.865-1.597 16.045-2.81 23.029-7.129 7.336-4.043 11.252-12.027 12.971-19.871-58.456-2.351-116.555-10.509-175-13v331h-2.5c-33.125-29.556-66.512-59.019-101-87-14.669 20.11-29.52 40.14-44.19 60.256-3.947 5.008-7.554 10.265-11.313 15.407-2.924 4.944-7.918 6.24-12.7 5.337H1317c.41-4.226 5.63-7.694 7.89-9.912 23.877-22.975 47.43-46.472 69.634-71.038 11.537-11.775 22.205-24.38 32.91-36.895 4.744-5.787 15.714-3.273 23.122-7.031 7.004-3.08 14.343-8.261 16.444-16.124-40.8-8.657-81.093-19.946-122-28v-3h136.8c12.28.042 27.954 1.113 35.2-14.5-34.172-33.996-71.926-64.18-108.5-95.5-10.72 13.463-20.138 27.938-30.5 41.666-9.65 14.226-21.08 27.753-30 42.334-4.61-.035-9.194.044-13.79-.027-1.71-.222-4.4-.274-5.383-1.409-1.616-7.188-.313-14.918-.827-22.25V1685c12.127-3.352 30.275-6.436 32-25-56.09-2.333-111.906-9.762-168-12v127h-163c2.027 8.445 5.732 18.111 7 26h36c10.406.179 20.81-.219 31.2.121 4.387-.187 6.134 4.773 7.453 8.209 11.24 28.034 20.256 63.084 21.855 90.828.46 8.298.697 16.592.37 24.897.058 6.047-.976 13.188-.48 18.717 1.357 6.802 12.38 12.5 16.914 16.788 6.496 3.817 14.633 8.72 21.688 9.44v3h-153c1.3 9.202 5.895 17.728 7 27m-3-890.5c1.222 4.703 3.397 9.119 4.543 13.875 1.114 3.519 1.792 7.271 3.762 10.445 1.057 2.348 5.274 1.897 7.28 2.176 9.006.011 17.971-.002 26.968.004H1179c-.924 85.275-6.976 171.354-31.157 253.603-22.36 75.885-64.462 146.383-123.843 199.065 1.56 5.584 5.753 6.799 10.217 4.603 25.65-10.34 50.52-22.379 74.22-36.638 68.126-40.677 123.871-101.931 157.243-173.974 35.38-76.99 48.159-162.504 49.32-246.659h84v459c20.946.051 42.276.757 62.744-4.623 14.263-3.408 28.22-8.373 41.687-14.125 9.366-4.517 18.842-9.076 27.01-15.598 3.003-2.514 6.32-5.334 7.19-9.334 1.052-31.877-.191-63.879.369-95.777V1136h68c6.057 67.477 15.638 135.174 35.064 200.255 14.116 46.213 34.992 90.535 63.254 129.822 42.588 58.056 105.269 100.865 173.494 123.303 31.19 9.812 79.08 12.173 99.752-24.59 4.6-8.136 7.868-17.317 7.212-26.81-.999-14.136-7.072-27.307-14.282-39.257-3.35-5.673-7.302-10.948-11.171-16.263-1.944-2.762-4.433-5.14-6.018-8.147-1.926-2.146.508-6.803-.306-9.935.954-37.82 4.452-75.548 5.001-113.378h-8c-9.82 30.153-20.103 60.51-34.45 88.874-5.72 14.655-18.814 11.738-30.398 7.315-38.287-13.904-69.446-42.134-91.033-76.14-21.558-33.265-37.53-77.652-45.119-113.049 4.43.03 7.183 4.005 10.532 6.394 23.63 21.923 46.572 44.925 64.663 71.83 6.693 9.503 13.615 21.363 18.249 30.954 1.865 6.388 4.245 9.385 10.287 10.892 19.177 7.306 43.06 6.845 59.218-7.596 11.718-9.725 18.958-23.693 19.405-39 1.678-50.255-49.815-77.682-87.354-86.474v-4c18.245-8.187 34.858-20.148 52.417-29.725 8.112-4.437 17.784-13.384 28.312-11.722 10.635 1.698 21.712-1.17 28.271-10.053-43.958-22.238-87.016-47.114-131-69.25-5.401 27.653-11.87 55.117-18.684 82.45-1.596 6.876-3.447 13.678-5.351 20.466-.702 2.637-1.325 5.288-2.022 7.924-.92 5.886-5.447 6.67-10.125 5.91-13.932-.213-27.837-.21-41.818 0-2.488-21.811-7.015-43.458-8.264-65.451-.552-5.783-.59-11.59-.997-17.374.305-1.733-.808-4.838.247-5.964 11.995-4.59 28.449-5.092 37.014-16.711-19.45-15.514-40.277-29.292-59.974-44.475-10.167-7.335-20.167-14.858-30.287-22.235-4.958-3.646-9.807-7.484-14.893-10.937-4.786-2.964-9.56-8.103-14.502-9.853-9.867 10.759-20.009 21.291-29.578 32.32a464 464 0 0 0-14.862 16.287c-2.62 2.589-4.757 5.609-7.293 8.255-2.204 2.439-5.884 5.418-6.611 8.138h-56V827.6c.021-2.795-.03-5.608.027-8.39.318-1.91.067-5.633 2.376-5.831 11.54-3.669 29.009-6.192 30.597-24.379-57.275-5.713-114.728-10.282-172-16v70h-2c-40.972-22.976-81.542-47.115-122.5-70-35.21 43.188-74.752 82.923-118.264 117.816-41.894 33.92-85.85 66.464-133.236 92.184.833 2.893 2.532 6.712 3.5 9 25.04-6.486 51.268-10.494 76.195-17.916 25.87-5.401 50.712-14.818 76.305-21.084v156h-157zm53 1492.5c36.94.714 75.596-4.157 108.018-23.472 7.024-4.135 15.658-9.602 19.982-15.881 3.379-6.92 1.288-15.2 2-22.572V2344h119c-.167 37.395.204 74.798-.11 112.174-.204 4.117-1.112 8.655-4.414 11.47-6.395 4.827-15.215 2.911-22.586 3.356-23.359.274-46.563-2.79-69.89-3 .455 3.027-.853 8.545 2.372 9.592 3.434 1.212 7.041 1.963 10.543 2.953 24.552 5.499 46.646 22.92 55.419 47.034 9.776 25.323 8.25 53.028 11.166 79.421 22.705-3.548 46.505-4.937 68.716-11.922 18.706-5.015 37.142-12.843 51.865-25.723 12.719-11.102 21.963-25.59 25.862-42.128 8.943-31.095 8.039-63.819 8.057-95.806V2128c14.431-2.765 28.91-8.337 39-19.5-20.637-16.809-42.505-32.152-63.342-48.717-21.582-15.227-41.552-33.509-63.658-47.783-16.484 20.863-35.822 40.753-53.266 61.09-1.478 2.14-3.344 3.885-5.442 5.367-22.178 1.548-44.62-.281-66.84.543-15.553-.69-34.752 1.982-48.145-3.876-41.431-16.327-82.842-33.021-124.307-49.124zm17-1852h509c7.746 63.061 18.659 126.635 43.729 185.5 18.59 40.818 41.834 80.597 74.373 112.102 23.674 24.395 52.773 42.604 82.448 58.592 22.944 11.32 46.732 21.384 71.607 27.521 33.416 9.006 85.307 8.843 102.232-33.69 8.233-18.603 2.34-39.595-8.731-55.58-5.233-8.028-11.279-15.468-17.92-22.37-4.479-4.186-3.18-8.929-2.754-14.172-.005-5.23.192-10.45.504-15.66.846-28.085 3.026-56.153 3.512-84.243-2.652-.435-5.315-.918-8-1-8.774 28.535-19.075 56.86-33.622 83.042-2.557 4.632-6.408 9.266-11.843 10.387-10.59 1.365-22.347-4.882-31.387-7.244-33.898-12.599-63.284-36.298-83.618-66.163-20.177-29.97-34.91-64.452-41.53-100.022 5.343.694 10.187 7.01 15.214 10.372 16.728 14.307 32.245 30.149 46.561 46.85 13.59 16.68 26.68 34.452 34.225 54.778 10.869 2.11 21.699 7.256 33.13 5.246 16.445-1.365 31.815-10.726 41.05-24.21 9.347-13.372 11.966-31.109 6.77-46.618-10.005-30.144-40-47.255-68.708-55.098-3.01-.673-6.489-1.69-9.242-2.32v-3c17.45-4.678 37.06-13.495 52.72-18.882 8.959-3.909 17.877-9.263 27.82-6.695 8.704 1.326 18.083 1.987 25.46-6.923-18.09-14.415-37.966-26.627-56.366-40.668-9.518-6.728-18.93-13.593-28.437-20.313-4.696-3.575-9.691-6.737-14.456-10.203-4.727-2.963-9.748-7.82-14.741-9.316-7.403 27.042-19.377 52.796-29.461 78.912-2.553 6.478-5.314 12.874-8.209 19.2-2.264 3.415-3.952 11.153-7.803 11.58-16.504.918-33.051 1.97-49.527 3.308-.593-8.894-3.18-17.58-3.869-26.486-1.184-8.83-2.065-17.683-3.131-26.514 12.793-2.918 26.863-5.174 37-14.5-2.85-4.626-10.559-7.322-15.153-11.648-34.874-24.363-69.058-50.231-104.347-73.852-7.496 8.1-15.082 16.115-22.453 24.324-6.881 7.804-14.402 14.993-21.185 22.878-3.079 3.849-6.864 7.057-10.126 10.725-3.361 5.025-7.713 5.74-12.83 5.073H1084c.926 9.382 6.26 17.806 8 27m37 1052.5v1.5c39.676 11.02 79.378 31.592 104.24 65.447 12.343 17.325 18.368 41.648 10.006 61.98-7.238 18.713-24.075 34.866-44.246 38.573v3h91c3.935-28.594 9.888-56.935 12.753-85.696 3.14-28.727 8.67-57.356 9.247-86.304h-183zm76 394.5h119v-91h-119zm0 121h119v-95h-119zm45-1389.5v1.5c33.31 2.984 66.63 6.843 100 9-.287 7.72-6.61 15.23-11.954 19.152-6.787 4.831-15.267 5.122-23.046 6.848v144h84V874c-7.39.135-14.769.002-22.102-.871-11.9-2.41-21.842 5.762-31.957 11.028-30.495 16.545-62.6 30.444-94.941 42.843zm291 1046v1.5c39.862 13.49 79.095 29.576 118.846 43.545 9.726 3.049 20.891 8.914 30.332 9.436 33.612.055 67.22-.01 100.822.019v-108h-115c-.442 6.454 1.088 16.21-1.936 21.002-7.038 8.138-19.996 11.548-28.594 15.318-33.456 12.35-69.126 15.734-104.47 15.68zm131 172.5h94.2c3.608-.032 8.175.433 10.772-1.878 7.947-8.814 14.352-18.956 22.098-27.94 3.645-4.53 7.147-9.186 10.772-13.732 2.954-4.369 8.685-9.86 9.158-14.45h-28v-33h-119zm248 239h-248v38.877c.623 9.028-1.035 20.036 1.235 28.128 5.112 14.503 23.711 11.405 35.124 11.995h99.94c13.945.148 27.881.118 41.8-.81 9.329-.736 19.531-2.003 27.109-8.052 10.295-9.16 17.696-20.904 24.602-32.687a732 732 0 0 0 10.07-18.198c2.479-6.196 7.628-12.988 8.12-19.253" style="fill:#fedda9;fill-rule:evenodd;stroke:none"/><path d="M1024 2001h483c5.237-.142 10.555.312 15.74-.522 4.63-.37 9.289-3.371 13.26-4.478v426.6c.53 33.376-1.848 67.164 3.954 100.235 2.52 13.21 6.851 26.417 14.65 37.486 15.565 20.823 41.851 28.663 66.589 31.207 47.326 5.57 95.189 2.53 142.706 3.472 35.19.05 70.332-1.543 105.313-5.274 24.437-3.474 49.322-7.619 71.997-17.832 16.186-7.213 31.133-18.77 38.415-35.489 5.16-13.08 6.93-27.787 2.794-41.441-5.93-20.045-24.531-31.449-42.682-38.934-4.369-2.2-1.967-10.91-3.368-14.615-.957-16.24-2.202-32.454-3.176-48.686A113 113 0 0 1 1933 2386c5.771.122 11.78-1.385 15.989-5.556 3.937-3.632 8.075-9.155 2.267-13.673-6.121-5.848-12.785-11.102-19.24-16.554-27.875-22.338-56.049-44.768-84.516-66.217-10.867 12.012-19.96 25.542-30.278 38.006-7.686 9.5-14.977 19.337-22.668 28.82-2.752 3.659-5.337 7.73-11.287 7.16-36.766.039-73.516-.006-110.267.014v-79h207c8.696-.022 17.446.055 26.081-1.179 5.88-1.164 13.218-4.356 15.996-9.424 3.734-5.898-2.413-10.555-6.522-14.12-15.003-13.107-30.03-26.177-45.855-38.3-7.79-6.146-15.573-12.313-23.366-18.432-3.976-3.051-7.868-6.168-11.854-9.189-3.645-2.215-7.846-6.903-11.48-7.356-16.214 22.783-34.71 44.982-52.103 67.057-2.492 2.545-7.472 1.79-11.382 1.943H1673v-75h203.4c15.662-.736 34.763 1.654 48.693-2.755 4.711-2.032 9.808-6.727 10.994-11.428 1.095-1.965-1.32-4.284-2.83-6.047-26.33-24.396-54.905-46.305-83.257-68.27 15.158-3.76 30.84-6.561 45.85-11.18 5.562-1.53 11.032-3.435 16.48-5.305 4.938-1.426 9.589-4.026 8.668-10.624.006-38.817-.002-77.59.002-116.391 7.595-.482 16.042-3.906 22.308-6.684 6.306-3.582 14.668-8.412 17.692-14.629-40.882-30.856-82.744-60.675-123.5-91.687-10.466 10.337-19.362 22.079-29.602 32.602-7.707 7.868-14.624 16.451-22.24 24.405-5.146 9.093-17.056 7.186-24.44 6.993H1677v-76h244.8c9.974-.378 20.093.654 29.99-.827 6.692-1.617 16.175-5.907 16.726-14.694-2.919-6.444-9.31-9.345-13.99-14.461-35.201-31.583-72.021-61.371-108.026-92.018-20.255 26.966-39.226 54.968-59.433 81.982-2.483 3.33-5.092 7.488-7.705 10.275-2.41 3.066-9.2.951-12.312 1.743H1677v-101c8.21-1.695 16.839-2.948 24.008-7.721 7.05-4.278 11.614-13.939 11.992-21.279-59.125-2.236-117.88-10.908-177-13-.76 110.246.926 220.876-.5 331-33.355-30.029-67.347-59.457-102-88-15.098 19.711-29.372 40.111-44.247 59.996-3.835 5.096-7.643 10.211-11.314 15.423-5.28 9.179-19.104 6.177-27.95 6.581-10.568-.673-21.541.84-31.989-.5 25.689-23.864 50.037-49.09 74.17-74.485 11.492-13.212 24.069-25.476 34.88-39.304 6.012-8.092 15.725-4.543 24.062-8.395 8.56-2.922 14.705-9.567 17.888-17.816-40.807-10.127-82.092-19.163-123-29 27.655-1.423 55.477.256 83.154-.5 20.753-.035 41.472.043 62.217-.023 6.833-.126 14.14-1.245 19.73-5.537 4.327-3.512 9.146-9.825 3.154-14.67-29.24-29.264-61.847-54.847-93.006-81.99-4.066-3.802-8.707-6.968-12.749-10.78-11.241 13.207-20.294 28.173-30.897 41.876-9.858 14.475-21.491 28.284-30.603 43.124-4.399-.103-8.806.145-13.187-.123-4.816.023-5.21-4.561-4.811-8.04-.005-26.61 0-53.23-.002-79.837 6.965-1.867 15.387-4.107 21.112-7.54 3.11-1.984 6.322-5.119 8.045-8.035 2.026-2.818 2.48-7.524 3.843-9.925-.458-.45-.911-.96-1.25-1.5-28.4-1.031-56.677-4.675-85.057-6.108-27.862-3.164-56.543-2.934-84.193-6.892-1.426 42.546.26 85.398-.5 128h-163c.898 9.604 5.945 18.415 7 28h36c10.58.27 21.2-.332 31.765.188 4.247.111 5.622 5.363 7.088 8.59 11.22 28.28 20.29 63.565 21.713 91.543.44 8.315.631 16.62.218 24.94-.589 5.867-.163 12-1.29 17.768 8.913 12.706 25.899 22.9 39.506 26.471-50.935 1.426-102.042-.26-153 .5.499 10.003 5.976 19.08 7 29m-3-1017.75c1.585 3.127 3.356 6.188 4 9.75 51.316-10.524 102.667-22.83 152.5-39 1.426 51.2-.26 102.732.5 154h-157c1.091 7.31 5.037 16.794 7.414 25.245 1.605 4.315 7.368 3.874 11.173 3.755H1178c-1.122 85.324-7.12 171.524-31.781 253.713-11.816 38.09-28.02 74.75-48.943 108.72-10.457 16.436-21.88 32.293-34.623 47.025-6.464 7.592-13.166 14.946-19.907 22.265-6.262 7.391-15.513 12.569-20.746 20.777 2.215 2.42 4.156 5.089 6.375 7.5 43.474-17.165 85.384-39.005 122.48-67.665 56.595-43.797 100.522-103.332 126.23-170.067 13.475-34.43 23.643-70.265 28.703-106.95 6.437-38.088 9.567-76.723 10.212-115.318h82v459c21.274-.02 42.957.993 63.771-4.414 14.476-3.245 28.51-8.444 42.187-14.097 9.514-4.622 19.179-9.184 27.482-15.835 3.146-2.583 6.586-5.595 7.28-9.828.8-32.334-.146-64.74.28-97.083V1137h66c5.977 66.95 15.458 134.146 34.645 198.736 13.722 46.005 34.456 89.971 62.107 129.263 41.76 58.246 103.933 100.965 171.388 124.21 18.024 6.022 37.207 9.224 56.195 6.794 27.292-1.543 53.456-22.48 56.232-50.74 1.708-14.334-3.813-28.232-10.262-40.63-5.838-11.236-14.697-23.379-22.305-32.133 2.182-3.691.09-10.114 1.22-14.923 1.349-35.869 4.237-71.68 4.78-107.577h-10c-9.746 29.773-19.834 59.783-33.932 87.837-2.17 4.57-5.278 10.482-11.802 11.575-10.769.786-22.505-5.569-31.16-9.367-34.42-15.508-61.596-43.715-80.584-75.822-20.17-32.012-31.484-68.649-41.522-104.723.488-.235.967-.42 1.5-.5 22.567 19.715 44.065 40.663 61.957 64.841 6.758 8.799 13.105 17.958 18.795 27.471 2.415 4.038 4.584 8.183 6.946 12.236 1.687 4.063 4.11 8.402 6.137 13.081 16.63 7.567 36.319 10.187 53.67 3.144 11.716-4.534 22.722-15.379 27.846-25.647 8.637-17.808 7.007-39.399-2.243-56.595-8.78-16.8-23.254-29.797-39.816-38.615-12.267-6.114-27.319-12.705-39.792-14.916v-2c18.642-8.478 35.685-20.659 53.68-30.46 4.59-2.944 9.324-5.672 13.91-8.608 5.92-4.391 15.896-1.098 24.159-2.52 6.997-.986 16.278-4.748 17.251-12.412-11.546-4.705-22.373-11.604-33.54-17.19-16.594-8.88-33.488-17.208-49.867-26.473-16.216-8.992-33.281-16.659-49.093-26.337-6.089 27.18-11.524 54.727-18.673 81.71-1.812 6.827-3.325 13.742-5.33 20.501-1.467 4.819-2.139 10.026-4.432 14.517-7.141 3.194-17.102-.052-23.915.611-8.026.824-16.104.717-24.15.661-1.309-14.198-4.986-28.158-5.92-42.43-.587-7.505-1.663-14.961-2.303-22.457-1.03-6.923-.19-15.38-1.777-21.613 2.816-2.131 7.86-1.876 11.73-3.202 10.069-2.276 19.726-6.665 27.27-13.798-2.588-5.238-10.391-8.06-14.301-12.073-35.771-25.96-71.044-53.16-107.199-78.427-10.364 10.701-20.293 21.8-30.336 32.8-5.098 5.512-10.252 10.97-15.13 16.676-2.628 2.58-4.77 5.59-7.288 8.247-2.205 2.512-6.061 5.49-6.746 8.277h-54V826.6c.188-4.91-1.201-11.617 4.017-12.777 6.794-2.069 14.063-3.603 19.913-7.862 6.864-4.215 7.388-10.89 10.07-17.461-58.062-6.764-116.79-10.494-175-16.5-.757 23.27.924 46.806-.5 70-41.497-23.492-82.611-48.29-124.5-71-15.277 23.055-36.056 42.839-55.233 62.733C1158.45 891.008 1092.764 942.185 1021 983zM1074 2603c37.726.782 77.307-3.769 110.404-23.687 7.04-4.306 16.066-9.845 20.065-16.535 2.78-7.221.793-15.393 1.531-22.9V2345h117c-.28 37.029.342 74.093-.185 111.113-.025 10.323-8.093 14.9-16.907 13.88-26.69.694-53.274-2.569-79.908-2.993.324 3.682-1.09 11.026 3.14 11.852 4.05 1.394 8.322 2.076 12.37 3.453 23.986 6.006 45.255 24.266 53.42 47.967 8.535 24.922 8.55 51.764 10.07 77.728 25.018-3.129 50.389-5.279 74.6-12.89 17.36-4.911 34.307-12.585 48.101-24.404 21.325-18.165 29.922-45.93 32.2-73.056 3.434-30.2 1.464-60.71 2.099-91.004V2129c15.005-2.704 29.702-8.89 40-20.5-41.848-33.788-85.838-65.119-128-98.5-18.45 19.882-35.699 41.09-54.264 60.927-3.39 5.403-7.35 7.996-13.353 7.073h-65.323c-15.635.67-31.511 1.291-45.778-5.883-40.319-16.251-81.003-31.894-121.282-48.117zm8-1880.5c2.511 9.606 6.276 18.951 9 28.5h509c7.784 63.229 18.718 127 43.94 186.002 18.751 40.95 42.156 80.841 74.93 112.368 23.875 24.522 53.327 42.443 83.124 58.609 23.339 10.874 46.95 21.955 72.35 27.175 33.417 8.61 85.175 8.146 102.045-34.128 8.164-18.44 3.097-39.2-7.387-55.471-5.082-8.04-10.81-15.722-17.463-22.538-4.735-3.923-5.289-7.24-4.584-12.618.057-5.247.119-10.51.467-15.747.851-29.233 3.189-58.41 3.578-87.652-3.353-.531-6.72-1.154-10-2-7.73 28.562-19.177 56.309-32.813 82.545-2.468 4.656-5.867 9.642-11.099 11.446-9.58 2.349-21-4.429-29.937-6.457-33.75-12.282-63.45-35.633-83.7-65.312-21.41-29.275-33.862-64.133-42.451-98.972 19.37 13.511 39.483 33.94 53.9 50.108 15.987 18.527 31.36 38.56 40.1 61.642 11.24 2.267 22.454 7.316 34.268 5.369 38.361-3.284 58.828-39.934 48.823-72.484-9.987-30.94-40.948-48.209-70.291-55.943-2.624-.727-5.386-1.13-7.8-2.442 18.304-6.433 36.676-13.017 54.718-20.197 4.34-1.734 8.571-3.721 12.86-5.554 6.004-2.693 14.77 1.538 22.311.615 6.536-.869 15.019-3.753 17.111-10.364-19.968-12.266-38.616-27.715-58.204-40.771-18.728-14.243-38.78-26.76-57.296-41.229-9.399 26.351-18.832 52.944-29.989 78.682-2.642 6.381-5.31 12.741-8.175 19.017-2.01 4.485-4.022 9.141-6.564 13.333-7.851 2.1-16.945.935-25.092 2.064-8.248.396-16.448 1.474-24.68 1.904-.546-8.514-3.03-16.827-3.703-25.354-1.63-8.227-1.744-18.135-3.297-25.646 13.136-3.872 30.018-5.005 38-16.5-40.211-29.083-80.968-57.963-121.5-86.5-15.196 16.089-30.014 32.54-45.081 48.739-3.138 3.797-6.921 6.987-10.143 10.703-3.332 5.038-8.136 4.933-13.375 4.558H1082zm48 1079.875c38.927 12.532 79.328 31.102 103.934 65.607 12.928 17.97 18.869 43.351 10.3 64.483-7.11 19.377-24.33 34.08-44.234 39.035 29.619 1.423 59.355-.256 89 .5 3.845-28.25 9.806-56.238 12.603-84.662 3.255-28.404 8.392-56.73 9.397-85.338-60.252.57-120.854-.695-181 .375M1206 2196h117v-89h-117zm0 121h117v-93h-117zm45-1388.625c15.85 3.835 33.195 2.568 49.357 5.38 16.933.857 33.702 3.7 50.643 4.245.15 8.164-4.858 15.716-11.115 20.536-6.84 5.392-15.826 5.648-23.885 7.464v142h82V875c-7.402.123-14.788-.05-22.149-.83-9.97-2.125-21.23 6.588-31.306 11.813-30 16.515-62.009 29.333-93.545 42.392m291 1045.875c38.804 15.073 78.702 29.13 117.772 43.887 9.765 2.949 20.785 9 30.21 9.813 33.342.144 66.679-.027 100.018.05v-106h-113c-.442 6.454 1.088 16.21-1.936 21.002-7.038 8.138-19.996 11.548-28.594 15.318-16.378 5.713-33.341 9.65-50.465 12.328-17.821 3.124-36.06 2.619-54.005 3.602M1673 2146h91.2c3.375-.349 8.86.71 11.121-1.385 14.958-17.32 28.15-36.406 42.679-54.115-9.205-1.281-18.734.114-28-.5v-33h-117zm246 241h-246v37.636c.567 8.66-.93 19.145 1.087 26.934 4.602 14.476 22.8 12.043 34.075 12.43h98.14c13.836.108 27.67.137 41.472-.739 9.447-.626 19.667-1.82 27.614-7.448 10.336-8.731 17.69-20.26 24.493-31.78 6.702-12.092 14.132-24.106 19.119-37.033" style="fill:#000;fill-rule:evenodd;stroke:none"/></svg>