<svg xmlns="http://www.w3.org/2000/svg" width="3000" height="3000"><path d="M364 2760.5v1.5h2272v-1.5c-68.931-409.09-136.257-818.54-204.874-1227.691-51.076-306.848-102.33-613.661-153.4-920.497-4.868-28.824-9.564-57.688-14.431-86.508-1.116-7.008-2.365-13.985-3.488-20.978-1.2-6.774-.246-15.245-9.425-16.859-109.868-36.632-219.702-73.24-329.563-109.867-95.996-32.013-192.02-63.992-288-96-41.993-13.978-83.98-28.011-125.966-41.994-5.663-2.605-10.407-1.693-15.513.621-156.173 52.06-312.354 104.114-468.521 156.173-58.68 19.531-117.334 39.097-175.992 58.657-25.668 8.506-51.298 17.139-76.962 25.643-6.176 2.075-12.369 4.11-18.537 6.195-3.02 1.124-6.483 1.813-8.8 4.255-62.934 375.423-125.132 751.075-187.889 1126.544C490.857 1998.664 428.048 2380.37 364 2760.5m645-1444.875c1.879 1.739 3.693 3.564 5.5 5.375 30.918-17.421 61.923-34.954 90.41-56.3 14.805-10.413 28.967-21.683 42.917-33.19 7.14-5.703 13.723-12.046 20.706-17.904 3.548-2.925 6.557-6.421 10.035-9.42 3.184-2.367 7.015-6.796 10.432-7.186-1.715 63.958-1.503 128.657-14.388 191.64a143.2 143.2 0 0 1-15.57 43.04c-11.154 24.667-42.37 18.12-63.234 18.054-23.937-.904-47.847-3.423-71.808-3.734.17 3.116-.615 9.08 2.819 9.843 3.447 1.732 7.336 2.267 10.925 3.578 24.68 7.552 51.49 26.804 61.06 49.124 10.488 27.782 10.745 58.214 11.196 87.455 27.781-.37 56.055-2.92 82.73-11.07 18.13-5.632 36.122-13.623 49.55-27.55 20.261-19.14 34.072-49.488 43.883-72.445 10.837-28.248 17.415-57.963 22.301-87.752 11.844-65.712 12.288-132.635 11.44-199.144-1.86-47.554-4.928-95.206-12.785-142.21-10.085-68.137-29.73-136.029-64.786-195.774-2.091-3.562-4.304-7.029-6.167-10.702-2.64-3.342 2.812-7.66 4.704-9.723 20.958-21.243 40.718-43.628 60.066-66.327 9.718-11.028 18.415-22.917 27.82-34.18 5.402-4.611 16.108-.067 23.486-2.95 7.141-1.322 12.404-6.354 16.758-11.673-50.95-29.886-102.98-58.343-154.366-87.5-2.998 3.727-3.652 10.617-6.03 15.694C1196.86 689.564 1180.093 724.52 1165 760c-6.103-.947-11.451-8.741-17.212-12.698-18.385-15.274-37.427-29.98-57.732-42.624-9.49-6.418-21.08-13.241-30.213-18.443-5.206-2.932-10.512-5.623-15.662-8.634-2.394-.46-6.236-4.104-8.185-2.525-2.318 1.252-5.171 2.98-5.996 5.424 21.799 24.376 44.222 48.46 61.834 76.226 13.303 20.283 26.084 41.107 35.834 63.378 3.022 5.32 2.12 8.804-.676 12.94-32.62 60.088-70.19 117.688-114.992 169.456 2.654 2.099 5.665 8.91 9.308 6.283 3.815-1.567 7.209-3.933 10.829-5.87 22.665-12.964 45.169-26.273 66.4-41.53 11.04-7.18 21.519-15.081 31.87-23.187 5.428-3.985 10.781-8.052 15.985-12.32 4.755-3.396 10.561-10.163 15.608-10.876 4.038 17.56 11.192 38.705 6.651 55.22-12.511 64.014-33.348 126.22-60.552 185.412-13.967 28.964-28.176 57.906-45.741 84.89-15.78 26.229-34.78 51.056-53.358 75.103M1029 2208h390v397c22.873.053 46.066.338 68.404-5.352 15.439-3.686 30.369-9.38 44.677-16.196 9.978-5.14 19.856-10.611 28.819-17.392 3.31-2.711 7.179-6.216 9.223-9.612 3.258-6.797 1.122-17.38 1.877-25.978V2208h367.2c15.21.13 35.235.622 40.8-14.656-46.91-41.582-98.971-76.81-147.5-116.344-14.35 19-29.539 37.667-44.258 56.432-11.144 13.955-21.985 28.135-33.085 42.118-4.098 7.244-13.009 5.337-19.903 5.45H1572v-246h306c12.293.105 27.581.878 35-14.5-47.457-39.088-96.421-76.814-145-114.5-24.188 29.737-46.947 60.952-70.944 90.905-2.863 3.475-6.37 8.548-9.155 11.033-8.996 2.476-19.397.003-28.708 1.062H1572v-215c8.176-1.32 17.99-3.93 24.396-8.107 6.764-4.62 11.146-11.928 12.604-19.893-63.469-3.79-126.564-12.902-190-17v260h-148c.443-5.516 6.244-11.154 8.883-16.968 23.13-38.804 44.538-78.95 61.117-121.032 14.239-1.766 33.332-1.671 41-20.5-65.04-20.931-131.48-38.6-196.5-59.5-5.045 19.106-6.055 39.463-11.142 58.654-12.833 65.73-32.178 130.058-54.457 193.141-22.082 61.34-48.133 121.862-81.901 177.705 2.603 1.802 7.77 6.238 10.341 4.267 3.5-1.802 7.343-4.406 10.439-6.254 58.564-36.425 109.254-83.922 155.035-135.08 10.891-13.428 22.005-26.675 32.05-40.744 2.126-2.352 3.801-6.285 6.512-7.222 55.444-1.332 111.14.242 166.623-.467v246h-397c1.3 9.202 5.895 17.729 7 27m242-676.75c2.225 4.987 2.792 10.765 4.777 15.91 1.374 3.416 1.735 10.342 5.768 10.485 13.879 1.007 27.929-.179 41.826.355h625.387c8.808-.046 17.6.058 26.403-.034 6.746-.196 14.136-.715 19.65-5.083 12.778-8.697-.571-20.272-5.887-28.33-20.536-27.213-43.59-52.431-65.424-78.553-5.933 8.76-9.659 18.944-15.192 27.972-4.575 9.025-11.153 19.285-14.308 28.028h-3v-259c15.595-.333 34.733-7.302 44-18.5-41.021-29.439-83.755-56.708-124.5-86.5-11.317 15.232-23.495 29.847-34.814 45.072-5.246 6.599-10.215 13.469-15.664 19.892-2.746 2.78-8.258 1.835-12.507 2.036h-209.112c-17.566-.157-35.13.191-52.682-.103-43.388-13.094-84.58-33.85-127.721-47.897v374h-87zM1564 936v64.8c-.015 8.212.019 16.425-.01 24.633-.43 6.152.13 14.352-3.403 19.18-3.808 5.028-10.445 4.316-15.524 4.387-41.127.807-82.003-5.355-123.063-6v11c30.947 4.448 63.612 13.962 85.342 38.007 10.416 12.03 16.734 27.043 19.272 42.692 2.5 15.71 5.466 31.401 6.386 47.301 25.191-2.705 50.479-5.324 75.099-11.626 18.245-4.727 36.444-10.945 51.924-22.055 24.372-15.2 36.231-43.186 39.692-70.596 4.864-29.99 2.802-60.552 3.285-90.771V936h238.2c9.186-.252 20.16-.06 28.426-1.948 3.829-1.012 7.44-2.957 10.365-5.608 2.154-2.11 6.172-5.96 3.581-8.688-19.68-17.273-40.669-33.117-60.872-49.78-20.85-15.357-40.699-32.668-62.2-46.976-19.933 23.843-38.517 48.815-58.179 72.875-4.808 5.836-8.22 14.351-18.536 13.125H1703v-59c12.586-3.063 30.311-5.376 33-24h-8v-3c32.751-8.092 63.568-22.855 94.842-35.126 14.834-6.598 29.344-13.781 43.766-21.17 12.954-8.154 34.424-2.385 47.392-17.204-43.77-34.438-85.457-72.45-129.5-106.5-22.86 22.755-44.504 46.666-66.873 69.867-4.195 5.315-12.523 4.224-18.488 4.133H1392c.956 9.379 6.231 17.812 8 27h310c-.503 6.54-6.82 13.613-9.775 20.566-6.35 11.583-13.432 22.702-20.715 33.702-2.324 4.12-4.9 8.084-7.802 11.818-2.796 2.871-4.891 8.822-8.616 9.439-7.949 1.072-17.514-.89-24.803-1.112-24.395-2.843-49.61-2.986-73.789-6.413-1.426 32.206.26 64.73-.5 97h-246c1.645 7.329 4.458 16.874 7.195 24.592 1.948 3.85 9.621 1.667 12.788 2.408H1564m-89 595h34v-299h-34zm125 0h40v-299h-40zm133 0h36v-299h-36z" style="fill:#fedda9;fill-rule:evenodd;stroke:none"/><path d="M1007 1315.375c1.765 2.423 4.75 4.584 6.93 6.138 3.01-.222 5.517-2.169 8.09-3.5 60.25-32.254 116.104-72.773 165.48-120.013 1.016 32.81-1.63 66.153-2.743 99.024-1.231 23.31-3.61 46.52-7.202 69.585-2.811 17.146-6.075 34.465-12.824 50.584-4.586 10.285-10.73 23.594-20.718 28.265-9.191 4.732-19.781 3.509-29.722 3.542-30.476.447-60.809-4.447-91.291-4 .236 4.561-1.085 10.796 3.616 12.254 4.278 1.64 8.844 2.485 13.11 4.177 24.12 7.841 49.825 27.465 58.661 49.534 9.836 27.458 10.225 57.255 10.613 86.035 28.122-.164 56.69-2.691 83.737-10.752 18.283-5.67 36.604-13.463 50.177-27.53 20.603-19.286 34.57-50.043 44.439-73.298 11.091-28.803 17.415-59.178 22.508-89.522 7.782-48.141 11.2-97 11.139-145.727.936-71.609-3.361-143.304-15.785-213.897-11.113-66.798-34.292-131.817-69.215-189.774 22.305-22.263 43.627-45.49 63.804-69.694 10.283-11.647 19.578-24.065 29.351-36.12 5.473-5.27 16.767-.683 24.569-3.631 7.561-1.725 13.44-7.096 17.276-13.555-52.94-28.788-104.783-60.366-158-88.5-13.204 42.527-30.908 83.596-49.5 124-38.31-34.332-81.17-63.67-127-87-2.56 3.003-7.455 5.086-8.5 8.5 22.016 24.372 44.51 48.57 62.279 76.406 13.419 20.41 26.3 41.397 36.206 63.772.73 2.099 2.224 4.686 1.94 6.807-33.366 61.992-71.956 121.875-118.425 175.015 2.857 3.079 5.49 6.398 8.313 9.5 50.393-27.028 98.447-59.04 142.187-96 3.007 9.106 4.752 18.842 7.075 28.195.955 4.264 2.251 8.552 2.174 12.962-11.905 66.32-32.618 131.145-60.49 192.437-13.66 30.142-29.144 59.504-46.421 87.695a734 734 0 0 1-55.838 78.086m13 865.125c2.833 9.067 6.296 19.932 8 28.5h390v397c23.18.027 46.669.504 69.352-5.087 15.637-3.693 30.74-9.358 45.248-16.215 10.297-5.279 20.496-10.93 29.722-17.942 3.268-2.796 7.144-6.277 9.052-9.778 2.986-7.09.808-17.86 1.626-26.706V2209h369c13.322.22 34.615.772 40-17-50.036-37.916-98.954-80.909-151-116-13.13 19.255-29.424 37.181-43.412 56.008-11.16 13.954-22.059 28.102-33.107 42.144-4.5 7.381-12.082 6.04-19.628 5.848H1573v-244h308.4c11.243-.12 28.957-.183 32.6-17-3.25-.974-6.2-5.01-9.6-7.155-44.718-37.08-91.254-71.988-136.9-107.845-23.61 30.124-46.873 60.544-70.5 90.665-3.112 3.662-5.812 7.697-8.978 11.3-3.015 2.988-9.108 1.688-13.681 2.035H1573v-213c15.119-2.515 35.553-7.676 37-30-31.894-1.678-63.601-6.245-95.46-8.438-31.81-3.97-64.434-5.004-96.04-9.562-1.426 86.876.26 174.06-.5 261h-146v-1.5c27.921-42.076 50.957-87.792 70-134.5 15.34-1.371 34.608-2.368 42-22.5-66.7-19.417-133.118-40.712-200-59.5-12.462 78.408-31.428 155.756-57.74 230.703-12.546 36.636-26.617 72.826-42.235 108.253-7.97 18.219-16.816 36.034-25.957 53.695-4.571 8.196-8.653 16.65-13.662 24.597-2.062 4.06-5.343 8.416-6.627 12.413-1.098 4.009 7.224 5.888 8.721 8.339 60.342-37.419 115.903-82.98 162.115-137.098 12.406-12.854 22.904-27.487 34.025-41.42 4.084-5.128 7.849-13.434 14.162-13.427 53.731-.157 107.467.029 161.198-.055v244h-398zm903.5-736.5c-6.382 7.835-10.935 21.218-15.67 28.081-5.467 9.441-10.274 19.262-15.33 28.919-1.426-85.55.26-171.4-.5-257 16.198-.184 35.566-7.806 45-19.5-20.673-15.252-42.313-29.254-63.295-44.077-21.262-14.264-42.168-29.791-63.705-43.423-12.23 14.603-23.562 30.252-35.424 45.205-5.21 6.55-10.123 13.4-15.554 19.76-2.746 2.779-8.258 1.834-12.507 2.035h-210.309c-17.434-.663-35.002.817-52.396-.464-42.48-15.458-84.42-32.855-126.81-48.536v375h-87c1.775 8.807 4.645 17.568 7.313 26.144 1.227 4.663 10.227 1.93 13.28 2.856h637.379c17.292-.293 34.625.363 51.906-.208 7.695-.214 26.197-5.57 21.39-18.623-17.904-28.346-41.465-52.548-62.4-78.558-5.358-5.656-10.047-11.927-15.368-17.611M1316 908.25c2.32 5.306 2.99 11.442 5.046 16.913 1.433 3.842 1.956 11.206 6.464 11.496 14.878.968 29.882-.173 44.784.341H1563v64.2c-.033 8.223.042 16.428-.027 24.638-.342 6.284-.057 14.44-4.075 18.569-3.76 4.26-10.983 3.555-15.993 3.593-40.74.64-81.21-5.777-121.905-6v13c30.947 4.448 63.612 13.962 85.342 38.007 10.416 12.03 16.734 27.043 19.272 42.692 2.5 15.71 5.466 31.401 6.386 47.301 24.648-2.134 49.32-5.116 73.441-10.769 33.807-7.731 70.973-24.063 85.531-58.342 15.448-35.534 12.897-75.175 13.028-112.8V937h220.8c12.231-.01 24.472.229 36.674-.656 10.862.273 21.693-5.312 25.526-15.844-41.48-33.888-82.872-68.491-126.5-99.5-20.264 23.471-38.325 48.838-58.221 72.628-5.194 6.374-9.44 15.263-17.693 14.368-26.865.011-53.731-.002-80.586.004v-57c12.945-2.943 32.177-6.047 33-26h-6.5l-1.5-.5c32.484-9.426 63.693-22.632 94.842-35.626 14.994-6.665 29.634-13.922 44.21-21.4 13.35-7.87 35.09-2.338 47.948-17.974-44.2-35.558-87.074-73.37-131.5-108.5-22.877 22.98-44.958 46.703-67.233 70.232-4.815 5.977-11.395 4.896-18.313 4.768H1390c2.205 9.887 6.379 19.252 9 29h310c-5.58 13.275-15.55 27.464-21.915 39.015-5.62 9.302-12.902 19.745-18.448 28.002-4.468 9.738-15.36 6.675-23.957 5.948-27.147-3.247-54.58-3.44-81.68-6.965v97h-247zM1476 1530h32v-297h-32zm125 0h38v-297h-38zm133 0h34v-297h-34z" style="fill:#000;fill-rule:evenodd;stroke:none"/></svg>