<svg xmlns="http://www.w3.org/2000/svg" width="3000" height="3000"><path d="M407 2715h2186c-120.11-729.14-243.257-1457.94-364-2187-121.653-40.09-243.099-81.112-364.7-121.395-91.164-30.407-182.32-60.766-273.474-91.162a32206 32206 0 0 1-51.529-17.183c-8.003-2.659-16.01-5.346-24-8-7.038-2.654-14.998-6.446-23.453-2.372-120.19 40.07-240.392 80.12-360.578 120.183C1011.124 447.878 891.186 488.387 771 528c-120.737 729.033-243.897 1457.913-364 2187m625-408c37-17.255 71.84-39.436 106.024-61.684 16.752-11.944 33.715-23.644 49.663-36.652 8.267-6.285 15.882-13.312 23.779-20.018 3.86-3.643 7.819-7.156 11.89-10.55 3.784-3.089 7.236-8.586 11.644-9.096-3.137 63.431-.469 128.052-16.902 190.137-3.924 14.113-9.228 28.042-17.249 40.357-5.86 9.305-14.939 17.032-26.339 18.17-36.56 1.887-73.033-2.443-109.51-3.664.183 2.806-.406 8.081 2.687 8.78 3.063 1.551 6.443 2.308 9.635 3.505 24.452 8.34 51.896 26.857 62.509 48.884 5.765 13.598 8.027 28.47 9.238 43.083 1.334 14.868 1.9 29.825 1.931 44.748 28.735.591 57.55-2.819 85.071-11.291 19.1-5.8 37.48-15.397 51.531-29.811 41.19-44.697 58.203-105.881 68.426-164.094 10.142-62.185 10.945-125.522 9.123-188.36-5.158-89.544-16.945-181.168-55.649-263.155-8.726-19.22-20.024-37.158-31.016-55.084-.258-3.546 3.593-6.845 6.005-10.009 21.363-21.714 41.245-44.771 60.702-68.197 9.65-11.426 18.337-23.678 27.79-35.242 2.522-3.033 7.664-1.91 10.695-1.831 9.91-.357 24.45-3.198 27.322-13.926-52.327-23.714-101.667-54.299-154-78-12.608 43.025-33.89 83.23-52 124-4.093-.413-6.924-3.837-10-6.193-21.858-17.679-45.243-33.384-69.673-47.27-12.112-7.15-24.74-13.327-37.318-19.53-6.835-3.391-13.579-6.955-20.61-9.9-3.346-1.415-6.523-3.285-10.077-4.139-3.19-1.488-6.401 2.847-8.322 4.532 26.758 23.636 53.18 48.033 75.363 76.168 16.794 19.966 30.807 42.083 43.701 64.685 3.636 5.896-.155 10.582-2.807 14.725-36.3 63.43-78.464 123.702-128.257 177.297.76 3.15 3.363 5.25 5.313 7.625 46.517-23.316 90.958-51.483 131.685-83.996 8.007-6.112 15.611-12.752 23.406-19.106 3.088-2.75 8.12-6.945 10.014-.787 2.502 9.285 5.39 18.572 7.082 28.053-16.458 67.374-43.075 132.444-75.436 193.678-15.389 29.05-32.42 57.229-51.45 84.014-9.926 13.682-19.955 27.323-30.749 40.341-5.219 6.682-11.05 12.848-16.361 19.451-2.65 3.221-5.859 5.948-8.411 9.244-.713 1.577-2.644 2.975-2.593 4.747.255 1.946 2.323 3.337 2.5 5.361m17-1076h823.2c22.823-.918 45.83 1.165 68.602-.743 6.807-.795 15.066-4.788 17.868-10.748 2.433-2.536-2.707-5.785-4.15-7.481-18.438-15.405-37.725-29.745-56.847-44.268-18.766-14.523-37.458-29.632-57.173-42.76-21.771 25.04-41.309 52.012-62.98 77.15-2.983 3.823-9.197 2.69-13.475 2.85H1664v-119h63v21.6c.094 5.42-.122 10.809.082 16.212-.037 5.204 3.483 5.614 7.394 5.183 11.426.054 22.928-.008 34.258-1.742 18.707-2.154 37.219-5.99 55.286-11.252a386 386 0 0 0 26.475-8.964c4.2-1.306 8.475-3.218 11.047-6.938.598-5.09.47-10.245.458-15.363V936c7.21-1.654 14.313-4.035 20.87-7.449 5.754-3.525 14.203-7.663 16.13-13.551-38.634-26.918-76.106-56.815-114.366-84.53-2.314-1.78-5.138-3.933-7.565-4.974-2.72-.35-4.746 3.718-6.43 5.153-14.344 15.576-28.339 31.44-42.746 46.952-3.717 3.322-7.047 8.474-10.909 10.937-17.582 1.305-35.367-.227-52.984.462V777h211.8c11.814-.248 23.638.323 35.436-.223 9.04-.704 22.002-3.228 24.764-14.777-40.042-29.473-78.594-62.38-119.5-91-11.555 12.774-21.695 26.771-32.825 39.906-9.835 13.75-22.58 25.99-31.675 40.094h-675c1.463 8.853 4.98 17.296 7 26h251v112h-28.2c-7.656-.353-16.928.746-23.785-1.18-46.411-17.354-92.62-35.497-139.015-52.82v320c29.124 1.068 58.37-2.184 85.726-12.754 12.287-4.251 26.463-10.49 36.465-17.022 6.826-3.876 10.368-9.287 9.79-16.63.052-7.533-.007-15.076.019-22.594h59v119h-293c1.37 8.866 5.072 17.272 7 26m159 40c-3.241.418-9.38-.951-10.6 2.462a562 562 0 0 1-2.101 10.284c-8.285 37.285-40.989 70.868-68.198 90.537-11.421 9.099-25.236 14.168-37.728 21.44-21.47 12.522-39.51 34.329-42.1 59.708-.951 19.895 6.864 40.193 21.131 54.058 21.512 19.64 55.256 25.589 82.002 14.131 12.215-5.963 25.75-15.159 34.407-24.18 9.041-10.52 17.791-21.437 23.557-34.18 15.055-30.002 20.07-64.45 19.461-97.685-.585-33.23-10.435-65.149-19.831-96.575m68-210h59V914h-59zm440 376c-1.117-32.64-2.192-65.338-3-98-9.941-1.481-11.527 8.021-14.501 14.727-7.407 16.565-14.852 33.114-23.435 49.117-7.062 13.341-14.56 27.193-26.06 37.316-10.155 7.98-28.492 6.05-42.722 6.84h-163.467c-10.743.216-29.661 1.999-28.797-15.468-.052-40.51.01-81.032-.018-121.532 12.96-.305 27.08-9.441 29-23-54.347-3.1-108.627-8.518-163-11v141.658c.57 33.63-2.444 68.438 7.765 101.097 3.245 11.24 9.894 21.369 19.143 28.557 16.546 13.066 38.265 16.252 58.451 18.849 34.225 4.03 68.776 2.595 103.152 2.839 34.666-.05 69.332.258 103.984-.625 26.769-.514 53.538-2.05 80.101-5.44 18.928-2.577 37.992-5.48 56.13-11.69 12.788-4.28 25.605-9.883 35.63-19.15 15.473-14.64 19.819-37.852 15.08-57.98-6.407-22.047-24.227-31.442-43.436-37.115m-361 978.25c21.432 49.22 42.18 99.221 63 148.75 14.235-2.431 21.492-12.273 26.334-23.84 3.529-3.619 9.008-5.723 13.526-8.595 38.08-21.381 75.868-43.278 113.21-65.9 27.984-16.917 55.59-34.46 82.95-52.338 10.233-6.993 20.706-13.603 30.842-20.718 4.483-3.083 8.916-6.217 13.343-9.356 1.99-1.213 5.526-2.58 7.066-.78 36.681 70.47 96.35 125.463 161.229 169.527 8.827-28.469 20.262-57.423 41.37-79.37 10.589-10.98 22.018-21.53 36.007-28.076 6.845-3.583 13.866-6.858 21.27-9.112 3.59-1.444 8.075-2.33 11.345-3.66 3.963-1.28 3.418-6.61 4.508-9.782-38.361-10.71-75.717-25.33-112.08-41.546-26.9-12.67-53.897-25.895-78.154-43.242a315 315 0 0 1-26.236-19.962c-2.894-1.917-9.407-7.401-2.764-9.536 35.3-12.084 70.618-24.355 104.885-39.189 16.63-7.152 33.464-13.847 49.792-21.659 9.043-3.739 18.772 1.133 27.974 1.531 8.62.812 20.902-4.123 23.583-11.397-36.316-23.543-69.684-53.456-106-77v-4c10.059-4.037 22.172-9.442 30.35-15.168 4.9-4.002 3.438-12.248 3.65-17.637V1835c13.234-3.757 31.23-9.902 37-21-42.863-28.246-81.699-64.338-125-92-.996 3.933-6.343 6.84-8.996 10.619-10.648 12.975-22.911 24.475-33.84 37.18-5.33 5.48-12.066 13.6-16.888 17.65-9.014 1.226-18.21.06-27.276.551v-95.4c.2-4.172-1.131-9.732 4.527-10.761 10.78-2.345 25.09-6.953 25.473-22.839-55.394-2.921-110.617-8.887-166-12v113.4c-.676 8.401.998 18.891-.969 26.363-15.084 4.62-27.727-4.496-41.758-8.528-41.209-14.751-81.941-30.866-123.273-45.235v674c-21.048 4.218-42.978 4.427-64 8zm77-1164.797c24.557 24.112 44.454 52.81 60.754 83.036 6.407 12.222 12.507 24.59 17.256 37.548 2.271 5.578 3.887 11.397 5.613 17.148 1.276 5.23 2.098 10.735 8.72 12.986 18.444 10.69 41.16 14.911 61.56 6.999 29.315-10.561 49.257-43.912 42.618-74.877-6.441-29.645-30.779-51.509-57.416-63.251-40.943-20.218-88.023-24.967-133.05-24.58-2.05 1.158-4.836 3.491-6.055 4.991M1466 889h65V777h-65zm0 172h65V914h-65zm0 144h65v-119h-65zm88 737h205v-129h-205zm0 166h205v-140h-205zm0 280c47.698-3.235 94.44-15.502 142-20-.452-8.445-7.364-18.236-10.258-27.643-26.533-65.92-41.337-136.137-50.742-206.357h-81zm181-100c14.508-18.479 27.903-38.22 41.398-57.519 6.879-9.764 13.402-19.769 20.283-29.52 2.994-4.874 5.923-9.79 9.286-14.413 2.915-4.74 7.841-10.146 8.033-15.548-18.072 3.529-36.628 3.994-55 4v-41h-111c.405 7.701 4.376 14.777 6.21 22.162 8.369 25.125 19.653 49.281 32.905 72.181 6.535 10.928 13.512 21.609 21.42 31.602a565 565 0 0 0 12.718 15.136c4.089 3.945 9.12 11.332 13.747 12.919m-71-1227h63V914h-63zm35 219.375c37.056 37.76 66.457 82.809 90.927 129.458 9.356 18.353 17.735 37.19 24.114 56.797 2.928 8.936 5.506 17.97 7.595 27.137 1.204 3.892 1.32 8.553 3.383 12.074 10.29 11.184 31.214 16.935 42.68 20.021 28.518 5.538 58.362-10.883 71.385-36.07 10.554-19.262 12.934-42.77 7.61-64.002-7.755-30.257-26.429-57.372-50.472-77.034-23.581-19.463-50.528-34.606-78.901-45.82-18.64-7.301-37.934-13.032-57.495-17.29-10.366-2.534-20.818-4.504-31.295-6.413-9.6-1.349-20.459-5.11-29.059.69z" style="fill:#fedda9;fill-rule:evenodd;stroke:none"/><path d="M1032.5 2309c35.797-18.79 71.448-38.584 104.835-61.574 34.155-22.915 66.825-49.088 96.665-77.093-3.316 62.949-.56 127.274-17.2 188.845-4.014 14.054-9.31 28.034-17.575 40.173-13.844 23.387-43.55 17.803-63.968 17.251-23.761-.894-47.467-3.238-71.257-3.602.186 3.903-1.053 9.638 3.8 11.319 3.789 1.526 7.757 2.563 11.564 4.028 23.742 8.706 50.218 27.503 60.059 49.25 10.193 26.574 9.732 60.816 10.577 86.403 29.76.622 59.695-2.619 88.17-11.619 19.188-6.037 37.616-15.866 51.563-30.614 40.835-45.451 57.71-106.868 67.72-165.513 7.278-44.205 9.342-89.12 9.547-133.851.599-67.412-5.2-134.946-18.434-201.087-11.509-61.144-35.666-119.845-69.566-171.816 16.833-18.767 34.873-36.49 50.82-56.059 16.769-18.146 30.684-38.708 46.68-57.441 12.035 3.572 27.345-.681 35.138-10.664.57-.832.988-1.753 1.362-2.68-25.137-14.335-51.76-26.659-77.33-40.328-26.117-13.282-52.223-26.812-78.17-40.328-16.102 42.169-32.993 84.843-54 125-44.58-37.33-95.749-66.332-149.117-89-2.336 2.613-4.972 4.963-7.383 7.5 26.757 23.91 53.565 48.177 75.813 76.522 16.922 20.043 31.087 42.268 44.063 64.985 3.359 5.008-.46 9.968-3.064 13.808-36.326 63.734-79.039 123.867-128.812 177.81 1.073 3.303 4.912 6.378 7.5 9.375 58.032-29.826 112.374-66.6 162-109 2.517 3.163 2.758 8.853 4.418 13.214 2.139 7.605 5.773 17.469 2.67 25.68-17.253 64.813-42.542 127.453-74.283 186.473-30.53 55.784-65.992 109.764-110.305 155.633.58 2.982 3.416 6.168 5.5 9m7.5-1103.75c3.42 8.47 4.96 18.073 8 26.75h868.2c14.7-.102 37.854 3.35 45.8-15.5-19.643-16.458-39.92-32.189-60.432-47.546-19.968-15.802-40.27-31.295-61.068-45.954-22.009 24.76-41.24 51.914-62.916 76.966-3.28 4.58-7.885 4.249-12.745 4.034H1665v-117h61c.924 13.266-1.165 29.307.724 41.336 1.78 2.581 7.252 1.069 9.7 1.664 10.404.06 20.822-.031 31.155-1.445 18.827-2.271 37.559-5.725 55.757-11.086 8.965-2.744 17.907-5.553 26.662-8.87 4.266-1.562 9.017-2.93 11.945-6.705 1.962-4.801.505-9.85 1.057-14.96V937c14.043-3.418 28.744-9.341 38-21-19.98-16.504-41.83-31.035-62.31-46.96-10.494-7.85-21.038-15.613-31.555-23.42-10.656-6.631-21.315-17.774-31.822-22.62-14.509 16.83-30.26 32.542-44.66 49.459-3.77 4.127-7.739 8.062-11.256 12.409-2.763 3.628-8.347 3.247-12.4 3.132H1665V778h213.6c11.889-.379 23.857.524 35.709-.434 8.77-.757 22.188-4.46 22.691-16.566-41.177-29.18-79.488-64.549-122-92-18.953 28.228-45.029 52.762-64 81h-656.4c-5.973.79-15.19-1.29-19.6 1.5 3.613 8.281 4.848 17.968 8 26.5h251v110h-28.2c-7.74-.101-17.153.736-23.92-1.914-46.004-17.93-92.537-34.831-138.38-53.086-1.426 107.54.26 215.401-.5 323 29.396 1.029 59.024-1.716 86.7-12.401 12.792-4.557 25.605-9.717 37.079-17.086 6.962-3.959 10.817-9.332 10.202-16.919.052-7.533-.007-15.076.019-22.594h57v117h-258.6c-11.291 1.07-25.277-1.403-35.4 1zm169 64.75c-3.743.67-10.969-1.374-12.585 2.441-.83 4.32-1.649 8.769-2.829 13.03-9.252 37.054-42.477 70.257-70.004 89.59-11.641 8.727-25.61 13.548-37.89 21.19-21.356 13.556-38.493 35.88-39.634 61.854.332 19.513 7.148 39.832 22.162 53.042 21.87 19.391 55.886 24.802 82.756 13.64 12.421-5.875 26.048-15.284 34.836-24.346 9.042-10.522 17.793-21.438 23.558-34.181 15.236-30.12 19.957-64.72 19.536-98.084-.498-33.76-10.268-66.25-19.906-98.176m68-210h57V915h-57zm440 376c-1.117-32.64-2.192-65.338-3-98-4.926-.25-10.689-.86-12.506 5.741-1.964 4.082-3.708 8.285-5.574 12.41-7.367 16.437-14.915 32.81-23.371 48.723-6.978 12.516-15.663 27.885-26.594 35.76-6.064 4.136-13.722 4.468-20.74 4.77-56.916 1.685-113.9-.294-170.822.596-7.214-.11-14.416.164-21.623-.162-4.882-.528-11.698-.379-15.576-5.573-3.012-4.084-1.885-11.023-2.194-15.717V1311c11.868-.296 28.483-9.034 29-25-55.022-2.85-109.94-8.975-165-11v142.756c.585 33.918-2.519 69.057 7.765 102 3.273 11.434 10.123 21.642 19.549 28.885 16.816 12.97 38.717 16.082 59.08 18.649 34.494 3.933 69.272 2.39 103.913 2.71 34.732-.05 69.477.258 104.189-.625 26.774-.514 53.534-2.05 80.1-5.44 19.087-2.614 38.33-5.535 56.616-11.853 12.738-4.35 25.578-9.994 35.51-19.339 15.589-14.99 19.269-38.28 14.964-58.658-6.031-22.612-24.129-32.382-43.686-38.085m-364 978.125c21.861 49.872 42.777 100.673 64 150.875 7.389-.467 14.456-4.077 19.564-9.374 5.164-4.368 7.088-13.26 10.977-16.562 43.517-24.519 86.865-49.416 129.53-75.4 43.096-25.592 84.486-54.175 126.304-81.664 18.902 35.172 42.532 68.066 70.997 96.211 28.727 27.162 58.937 55.46 93.628 74.789 7.704-29.075 20.694-57.987 41.602-80.102 10.68-11.153 22.464-21.579 36.687-28.04a125.5 125.5 0 0 1 21.37-8.913c3.54-1.642 8.543-1.962 11.148-3.945 2.714-2.253 2.572-7.164 3.193-11-40.286-11.469-79.806-26.514-117.766-44.268-37.792-17.15-74.404-38.16-105.234-66.232 35.408-13.587 72.506-24.452 107.179-40.37 17.144-7.333 34.438-14.291 51.287-22.264 7.737-3.457 18.9 1.785 28.383 1.78 9.247.485 18.743-4.284 24.151-11.646-17.16-14-35.72-26.698-53.422-40.067-9.006-6.647-17.837-13.571-26.997-19.994-8.865-5.539-17.917-14.888-26.581-18.939v-2c10.059-4.037 22.172-9.442 30.35-15.168 4.9-4.002 3.438-12.248 3.65-17.637V1836c13.988-3.47 28.71-9.42 38-21-41.391-32.207-83.945-63.614-126-95-12.881 13.791-25.815 27.791-38.394 41.894-6.335 6.617-13.237 14.884-19.041 20.951-3.696 4.572-8.492 4.42-13.57 4.155H1722v-94.8c-.243-2.401.222-4.703.485-7.055 1.455-3.09 7.703-2.224 10.095-3.892 5.17-1.566 10.49-3.705 14.17-7.86 3.85-3.487 4.586-10.391 6.25-13.893-.458-.45-.911-.96-1.25-1.5-56.003-2.655-111.747-9.316-167.75-12v113.4c-.675 8.4.998 18.891-.969 26.363-6.543 3.221-15.32.214-20.587-1.474-24.118-8.937-48.303-17.77-72.42-26.68-12.018-4.366-23.988-8.852-35.998-13.204-5.961-2.354-12.007-4.486-18.046-6.623-5.771-1.889-12.369-5.313-17.98-5.782v674c-21.462 4.12-43.465 4.682-65 8zm77-1163.664c24.706 24.124 44.885 52.745 61.27 83.079 6.354 12.246 12.556 24.594 17.353 37.541 2.307 5.718 4.155 11.627 5.833 17.543 1.379 5.355 2.056 11.174 8.887 13.547 18.73 10.745 41.754 14.897 62.53 7.357 29.7-10.111 49.475-43.039 44.201-74.12-5.063-30.283-29.492-53.344-56.242-65.492-41.69-21.253-89.95-25.806-135.995-25.51-2.783.305-5.446 4.06-7.837 6.055M1467 888h63V778h-63zm0 172h63V915h-63zm0 144h63v-117h-63zm88 737h203v-127h-203zm0 166h203v-138h-203zm0 280c46.964-3.977 93.136-15.197 140-20-31.288-73.745-51.58-152.306-61-232h-79zm179.5-100c13.618-19.167 27.907-37.91 40.898-57.519 6.787-9.6 13.178-19.477 19.98-29.065 3-4.887 5.98-9.764 9.295-14.436 2.086-4.677 7.92-9.451 7.827-13.98-17.471 4.672-36.537 3.081-54.5 4v-41h-109c15.706 56.36 43.535 110.567 85.5 152M1665 1060h61V915h-61zm33 220.5c27.457 30.067 53.118 62.692 73.359 98.269 16.45 27.014 29.809 55.86 40.58 85.542a292 292 0 0 1 9.827 35.604c.982 10.134 13.025 15.03 20.898 18.924 16.788 8.742 36.165 11.654 54.464 6.362 26.486-6.612 46.25-30.361 51.25-56.738 6.458-27.235-1.38-55.47-15.364-78.913-21.478-35.804-57.176-61.285-94.382-78.73-40.038-18.968-83.828-28.688-127.386-35.414-2.003-.284-3.998-.447-5.746-1.406-2.254 1.776-5.256 4.351-7.5 5z" style="fill:#000;fill-rule:evenodd;stroke:none"/></svg>