<svg xmlns="http://www.w3.org/2000/svg" width="3000" height="3000"><path d="M364 2760.5v1.5h2272v-1.5c-68.931-409.09-136.257-818.54-204.874-1227.691-51.076-306.848-102.33-613.661-153.4-920.497-4.868-28.824-9.564-57.688-14.431-86.508-1.116-7.008-2.365-13.985-3.488-20.978-1.2-6.774-.246-15.245-9.425-16.859-109.868-36.632-219.702-73.24-329.563-109.867-95.996-32.013-192.02-63.992-288-96-41.993-13.978-83.98-28.011-125.966-41.994-5.663-2.605-10.407-1.693-15.513.621-156.173 52.06-312.354 104.114-468.521 156.173-58.68 19.531-117.334 39.097-175.992 58.657-25.668 8.506-51.298 17.139-76.962 25.643-6.176 2.075-12.369 4.11-18.537 6.195-3.02 1.124-6.483 1.813-8.8 4.255-62.934 375.423-125.132 751.075-187.889 1126.544C490.857 1998.664 428.048 2380.37 364 2760.5m645-1444.875c1.879 1.739 3.693 3.564 5.5 5.375 30.918-17.421 61.923-34.954 90.41-56.3 14.805-10.413 28.967-21.683 42.917-33.19 7.14-5.703 13.723-12.046 20.706-17.904 3.548-2.925 6.557-6.421 10.035-9.42 3.184-2.367 7.015-6.796 10.432-7.186-1.715 63.958-1.503 128.657-14.388 191.64a143.2 143.2 0 0 1-15.57 43.04c-11.154 24.667-42.37 18.12-63.234 18.054-23.937-.904-47.847-3.423-71.808-3.734.17 3.116-.615 9.08 2.819 9.843 3.447 1.732 7.336 2.267 10.925 3.578 24.68 7.552 51.49 26.804 61.06 49.124 10.488 27.782 10.745 58.214 11.196 87.455 27.781-.37 56.055-2.92 82.73-11.07 18.13-5.632 36.122-13.623 49.55-27.55 20.261-19.14 34.072-49.488 43.883-72.445 10.837-28.248 17.415-57.963 22.301-87.752 11.844-65.712 12.288-132.635 11.44-199.144-1.86-47.554-4.928-95.206-12.785-142.21-10.085-68.137-29.73-136.029-64.786-195.774-2.091-3.562-4.304-7.029-6.167-10.702-2.64-3.342 2.812-7.66 4.704-9.723 20.958-21.243 40.718-43.628 60.066-66.327 9.718-11.028 18.415-22.917 27.82-34.18 5.402-4.611 16.108-.067 23.486-2.95 7.141-1.322 12.404-6.354 16.758-11.673-50.95-29.886-102.98-58.343-154.366-87.5-2.998 3.727-3.652 10.617-6.03 15.694C1196.86 689.564 1180.093 724.52 1165 760c-6.103-.947-11.451-8.741-17.212-12.698-18.385-15.274-37.427-29.98-57.732-42.624-9.49-6.418-21.08-13.241-30.213-18.443-5.206-2.932-10.512-5.623-15.662-8.634-2.394-.46-6.236-4.104-8.185-2.525-2.318 1.252-5.171 2.98-5.996 5.424 21.799 24.376 44.222 48.46 61.834 76.226 13.303 20.283 26.084 41.107 35.834 63.378 3.022 5.32 2.12 8.804-.676 12.94-32.62 60.088-70.19 117.688-114.992 169.456 2.654 2.099 5.665 8.91 9.308 6.283 3.815-1.567 7.209-3.933 10.829-5.87 22.665-12.964 45.169-26.273 66.4-41.53 11.04-7.18 21.519-15.081 31.87-23.187 5.428-3.985 10.781-8.052 15.985-12.32 4.755-3.396 10.561-10.163 15.608-10.876 4.038 17.56 11.192 38.705 6.651 55.22-12.511 64.014-33.348 126.22-60.552 185.412-13.967 28.964-28.176 57.906-45.741 84.89-15.78 26.229-34.78 51.056-53.358 75.103m1 1017c1.891 1.813 4.036 5.71 6.625 4.498 2.926-.849 5.386-2.798 8.156-4.026 35.563-18.688 70.36-39.11 103.453-61.885 16.825-11.215 32.999-23.402 48.798-36.01 8.069-6.303 15.838-12.981 23.466-19.8 4.177-3.129 7.492-7.246 11.487-10.572 3.847-2.597 7.934-8.375 12.015-8.83-.674 65.468-1.628 132.018-16.877 196.06-4.138 14.804-9.377 29.633-18.12 42.43-6.117 9.958-16.185 17.726-28.137 18.996-18.702 1.559-37.589.142-56.244-1.106-9.35-.447-18.701-.695-28.029-1.576-4.622-.237-9.225-.527-13.846-.715-4.362-.637-9.848.732-13.247-1.089-.807 2.772-.312 6.633-.5 10 27.751 5.736 52.975 22.468 70.974 44.06 14.802 21.648 15.137 53.776 16.895 76.605.259 6.361.039 12.722.155 19.07-.653 7.993 7.298 6.145 12.722 5.781 41.183-2.482 85.255-8.372 119.327-33.836 23.636-19.617 39.584-46.996 51.997-74.685 19.183-43.77 28.535-91.355 34.144-138.57 5.531-49.95 6.196-100.333 5.088-150.53-1.483-48.779-6.936-97.596-15.171-145.67-11.054-67.924-35-134.198-72.617-192.004-.794-1.674-2.531-3.292-3.014-5.41.004-3.622 5.963-6.438 7.314-9.379 21.098-23.006 42.546-45.72 62.001-70.196a1527 1527 0 0 0 28.357-36.012c4.735-5.727 16.264-1.374 23.74-4.502 6.473-2.172 15.212-6.699 17.088-12.722-27.21-12.07-52.875-27.817-79.872-40.438-26.267-14.336-53.76-26.54-79.628-41.562-8.16 22.005-16.125 44.239-25.741 65.705-8.58 21.534-19.976 41.905-28.759 63.295-7.087-.686-13.127-9.649-20.124-13.587-21.587-16.72-44.487-31.566-68.345-44.793-12.284-7.25-25.2-13.364-37.906-19.806-6.508-3.048-13.152-5.852-19.662-8.897-2.921-1.266-5.743-3.18-8.987-3.42-2.966-.218-5.984 4.419-6.976 6.503 29.224 22.398 55.42 50.188 78.691 78.865 16.965 21.249 32.51 43.973 45.146 68.064 2.346 5.515-1.966 10.397-4.372 14.402-37.715 65.909-81.586 128.583-133.465 184.169 2.43 2.112 5.722 7.19 10.066 5.281 3.772-1.537 7.356-3.564 10.937-5.488 27.913-14.678 54.705-31.341 80.723-49.127 13.178-8.66 25.546-18.433 38.056-28.003 6.299-4.882 12.403-9.998 18.612-14.994 6.32-4.039 12.14-11.969 18.606-13.169 1.921 9.661 5.778 18.91 7.36 28.675 1.893 9.446-2.452 18.58-4.686 27.514-17.636 64.566-44.953 125.83-75.866 184.93-15.73 27.986-31.804 55.82-50.704 81.82-18.199 26.72-40.078 51.548-61.104 75.686m261-801.375c2.225 4.987 2.792 10.765 4.777 15.91 1.374 3.416 1.735 10.342 5.768 10.485 13.879 1.007 27.929-.179 41.826.355h625.387c8.808-.046 17.6.058 26.403-.034 6.746-.196 14.136-.715 19.65-5.083 12.778-8.697-.571-20.272-5.887-28.33-20.536-27.213-43.59-52.431-65.424-78.553-5.933 8.76-9.659 18.944-15.192 27.972-4.575 9.025-11.153 19.285-14.308 28.028h-3v-259c15.595-.333 34.733-7.302 44-18.5-41.021-29.439-83.755-56.708-124.5-86.5-11.317 15.232-23.495 29.847-34.814 45.072-5.246 6.599-10.215 13.469-15.664 19.892-2.746 2.78-8.258 1.835-12.507 2.036h-209.112c-17.566-.157-35.13.191-52.682-.103-43.388-13.094-84.58-33.85-127.721-47.897v374h-87zM1564 936v64.8c-.015 8.212.019 16.425-.01 24.633-.43 6.152.13 14.352-3.403 19.18-3.808 5.028-10.445 4.316-15.524 4.387-41.127.807-82.003-5.355-123.063-6v11c30.947 4.448 63.612 13.962 85.342 38.007 10.416 12.03 16.734 27.043 19.272 42.692 2.5 15.71 5.466 31.401 6.386 47.301 25.191-2.705 50.479-5.324 75.099-11.626 18.245-4.727 36.444-10.945 51.924-22.055 24.372-15.2 36.231-43.186 39.692-70.596 4.864-29.99 2.802-60.552 3.285-90.771V936h238.2c9.186-.252 20.16-.06 28.426-1.948 3.829-1.012 7.44-2.957 10.365-5.608 2.154-2.11 6.172-5.96 3.581-8.688-19.68-17.273-40.669-33.117-60.872-49.78-20.85-15.357-40.699-32.668-62.2-46.976-19.933 23.843-38.517 48.815-58.179 72.875-4.808 5.836-8.22 14.351-18.536 13.125H1703v-59c12.586-3.063 30.311-5.376 33-24h-8v-3c32.751-8.092 63.568-22.855 94.842-35.126 14.834-6.598 29.344-13.781 43.766-21.17 12.954-8.154 34.424-2.385 47.392-17.204-43.77-34.438-85.457-72.45-129.5-106.5-22.86 22.755-44.504 46.666-66.873 69.867-4.195 5.315-12.523 4.224-18.488 4.133H1392c.956 9.379 6.231 17.812 8 27h310c-.503 6.54-6.82 13.613-9.775 20.566-6.35 11.583-13.432 22.702-20.715 33.702-2.324 4.12-4.9 8.084-7.802 11.818-2.796 2.871-4.891 8.822-8.616 9.439-7.949 1.072-17.514-.89-24.803-1.112-24.395-2.843-49.61-2.986-73.789-6.413-1.426 32.206.26 64.73-.5 97h-246c1.645 7.329 4.458 16.874 7.195 24.592 1.948 3.85 9.621 1.667 12.788 2.408H1564m-215 1514.25c21.394 49.219 42.093 99.115 63.12 148.562 2.458 9.189 10.933 4.967 16.089.979 4.637-3.493 8.466-8.056 11.007-13.267 4.158-9.245 14.29-13.119 22.645-17.96 25.667-14.509 51.32-29.062 76.63-44.17 30.063-17.557 59.629-35.91 89.061-54.448 14.015-9.436 28.43-18.236 42.475-27.625 7.375-4.684 14.456-9.795 21.642-14.747 6.74-3.61 14.814-11.866 21.331-12.574 36.642 73.764 99.374 132.419 167.5 177 1.987-2.457 2.667-6.692 3.843-10.206 8.683-26.957 21.697-52.708 41.147-73.6 19.384-20.081 44.995-34.99 72.51-40.194.544-3.057.568-6.963 2-9.5-42.525-13.473-84.94-28.055-125.184-47.596-19.96-9.608-39.746-19.56-58.5-31.371-8.988-5.836-17.741-12.05-26.29-18.508-4.37-3.18-8.64-6.438-12.722-9.96-3.341-3.228-9.794-6.927-10.304-11.065 37.604-11.042 74.35-25.661 110.706-40.282 17.67-7.171 35.264-14.527 52.527-22.61 10.314-5.577 19.142-1.019 29.005.31 9.427 1.523 22.432-2.84 26.762-10.918-35.947-28.33-74.417-53.77-110-82.5.795-3.267 5.439-3.982 7.881-5.475 10.441-5.332 28.221-10.642 27.119-23.147V1848c14.51-1.687 29.929-11.055 39-20.5-42.177-33.324-86.415-64.069-128.5-97.5-13.423 14.739-26.841 29.5-40.276 44.218-6.685 7.062-14.142 15.667-20.291 22.122-3.825 3.848-10.9 2.309-15.75 2.66H1729v-109c12.873-2.515 30.581-5.693 32-25-57.765-2.318-115.23-9.687-173-12v146c-7.74.029-15.733.68-23.084-2.203-49.608-18.296-99.267-36.698-148.916-54.797v675.6c-.614 7.704.937 17.33-.968 24.164-5.112 2.66-11.038 1.107-16.623 2.674-16.416 2.307-32.94 3.775-49.409 5.562zM1475 1531h34v-299h-34zm82 428h212v-117.6c-.013-3.199.017-6.403-.012-9.595.98-8.174-7.594-7.09-12.355-6.805H1557zm0 173h212v-146h-212zm0 291c42.538-5.046 84.78-12.616 127.198-18.546 5.3-1.15 10.734-1.558 16.056-2.518 5.9-.678 2.047-7.29.762-10.053-12.924-28.1-23.269-57.3-31.525-87.085-13.39-47.79-22.797-96.654-29.491-145.798h-83zm43-892h40v-299h-40zm226 667c-18.961 1.853-37.874 4.01-57 3v-42h-115c.789 9.924 5.9 20.906 8.601 29.498 11.933 33.418 27.958 65.419 49.017 94.038 5.059 7.07 10.638 13.753 16.092 20.511 4.39 4.381 9.644 11.078 13.726 14.187 4.54 1.597 7.855-6.248 10.368-8.64 8.507-11.48 16.561-23.257 24.962-34.8 8.366-12.37 16.97-24.58 25.372-36.915 4.375-6.385 8.349-13.025 12.836-19.339 3.405-6.006 10.38-13.57 11.026-19.54m-93-667h36v-299h-36z" style="fill:#fedda9;fill-rule:evenodd;stroke:none"/><path d="M1007 1315.375c1.765 2.423 4.75 4.584 6.93 6.138 3.01-.222 5.517-2.169 8.09-3.5 60.25-32.254 116.104-72.773 165.48-120.013 1.016 32.81-1.63 66.153-2.743 99.024-1.231 23.31-3.61 46.52-7.202 69.585-2.811 17.146-6.075 34.465-12.824 50.584-4.586 10.285-10.73 23.594-20.718 28.265-9.191 4.732-19.781 3.509-29.722 3.542-30.476.447-60.809-4.447-91.291-4 .236 4.561-1.085 10.796 3.616 12.254 4.278 1.64 8.844 2.485 13.11 4.177 24.12 7.841 49.825 27.465 58.661 49.534 9.836 27.458 10.225 57.255 10.613 86.035 28.122-.164 56.69-2.691 83.737-10.752 18.283-5.67 36.604-13.463 50.177-27.53 20.603-19.286 34.57-50.043 44.439-73.298 11.091-28.803 17.415-59.178 22.508-89.522 7.782-48.141 11.2-97 11.139-145.727.936-71.609-3.361-143.304-15.785-213.897-11.113-66.798-34.292-131.817-69.215-189.774 22.305-22.263 43.627-45.49 63.804-69.694 10.283-11.647 19.578-24.065 29.351-36.12 5.473-5.27 16.767-.683 24.569-3.631 7.561-1.725 13.44-7.096 17.276-13.555-52.94-28.788-104.783-60.366-158-88.5-13.204 42.527-30.908 83.596-49.5 124-38.31-34.332-81.17-63.67-127-87-2.56 3.003-7.455 5.086-8.5 8.5 22.016 24.372 44.51 48.57 62.279 76.406 13.419 20.41 26.3 41.397 36.206 63.772.73 2.099 2.224 4.686 1.94 6.807-33.366 61.992-71.956 121.875-118.425 175.015 2.857 3.079 5.49 6.398 8.313 9.5 50.393-27.028 98.447-59.04 142.187-96 3.007 9.106 4.752 18.842 7.075 28.195.955 4.264 2.251 8.552 2.174 12.962-11.905 66.32-32.618 131.145-60.49 192.437-13.66 30.142-29.144 59.504-46.421 87.695a734 734 0 0 1-55.838 78.086M1014.375 2340c37.442-18.695 73.54-40.328 108.535-63.3 35.342-23.791 68.947-50.095 99.59-79.7 1.62 33.543-1.32 67.516-2.75 101.058-1.727 24.215-4.387 48.37-8.945 72.22-3.202 17.196-7.79 34.292-15.327 50.131-5.76 10.968-12.167 22.843-23.89 28.455-9.587 4.91-20.5 4.334-30.9 4.136-15.616.275-31.14-1.81-46.726-2.11-14.811-1.784-32.428-1.175-45.962-2.89v12c27.866 5.817 53.38 22.621 71.28 44.528 14.769 21.901 14.814 54.323 16.632 77.293.304 6.357-.134 12.762.193 19.115-.196 7.128 9.508 4.56 13.9 4.621 41.597-2.367 86.182-8.403 120.507-34.211 23.453-19.755 39.366-47.126 51.75-74.796 19.212-43.962 28.48-91.782 34.074-139.18 5.457-50.247 6.074-100.923 4.968-151.4-1.694-61.375-9.598-122.723-22.475-182.712-13.662-56.495-35.786-111.73-68.829-159.758 23.195-23.824 44.976-48.958 66.48-74.312 10.47-12.53 20.47-25.43 30.397-38.386 4.988-7.442 17.193-3.37 24.605-5.981 7.667-1.741 14.23-6.874 18.518-13.321-26.514-14.583-54.024-27.873-80.872-41.938-27.653-13.053-54.26-29.254-82.128-41.562-13.017 44.958-35.851 86.2-54 129h-1.5c-23.788-20.176-49.693-37.922-76.634-53.57-13.404-7.8-29.621-16.037-42.231-22.607-7.563-3.576-15.133-7.124-22.776-10.506-3.684-1.508-7.097-3.885-11.107-4.455-1.8-.7-3.66 2.254-4.963 2.872-1.262 1.339-2.956 2.785-3.789 4.266 28.679 25.185 57.254 50.979 80.363 81.668 9.298 10.872 17.185 22.852 25.191 34.651 6.533 10.03 13 20.168 18.485 30.822 3.238 5.706-1.643 10.855-4.166 15.228-19.677 33.912-40.904 66.91-63.644 98.835-11.767 16.346-24.043 32.35-37.005 47.759-6.682 7.857-13.289 15.725-20.152 23.418-3.56 3.552-7.076 7.189-10.014 11.284-3.885 3.877 3.024 8.52 5.278 11.335 61.339-29.457 117.075-69.529 169.164-113 3.183 9.28 5.663 19.08 7.86 28.68 1.441 9.4-3.359 18.465-5.257 27.461-18.51 65.595-45.807 128.378-78.269 188.133-16.127 28.778-33.148 57.078-52.76 83.639-9.979 13.462-19.972 26.92-30.89 39.643-5.26 6.344-10.665 12.59-16.084 18.796-2.558 2.996-6.609 5.922-8.043 9.357-2.277 2.887 3.157 7.1 4.318 9.291m909.125-896c-6.382 7.835-10.935 21.218-15.67 28.081-5.467 9.441-10.274 19.262-15.33 28.919-1.426-85.55.26-171.4-.5-257 16.198-.184 35.566-7.806 45-19.5-20.673-15.252-42.313-29.254-63.295-44.077-21.262-14.264-42.168-29.791-63.705-43.423-12.23 14.603-23.562 30.252-35.424 45.205-5.21 6.55-10.123 13.4-15.554 19.76-2.746 2.779-8.258 1.834-12.507 2.035h-210.309c-17.434-.663-35.002.817-52.396-.464-42.48-15.458-84.42-32.855-126.81-48.536v375h-87c1.775 8.807 4.645 17.568 7.313 26.144 1.227 4.663 10.227 1.93 13.28 2.856h637.379c17.292-.293 34.625.363 51.906-.208 7.695-.214 26.197-5.57 21.39-18.623-17.904-28.346-41.465-52.548-62.4-78.558-5.358-5.656-10.047-11.927-15.368-17.611M1316 908.25c2.32 5.306 2.99 11.442 5.046 16.913 1.433 3.842 1.956 11.206 6.464 11.496 14.878.968 29.882-.173 44.784.341H1563v64.2c-.033 8.223.042 16.428-.027 24.638-.342 6.284-.057 14.44-4.075 18.569-3.76 4.26-10.983 3.555-15.993 3.593-40.74.64-81.21-5.777-121.905-6v13c30.947 4.448 63.612 13.962 85.342 38.007 10.416 12.03 16.734 27.043 19.272 42.692 2.5 15.71 5.466 31.401 6.386 47.301 24.648-2.134 49.32-5.116 73.441-10.769 33.807-7.731 70.973-24.063 85.531-58.342 15.448-35.534 12.897-75.175 13.028-112.8V937h220.8c12.231-.01 24.472.229 36.674-.656 10.862.273 21.693-5.312 25.526-15.844-41.48-33.888-82.872-68.491-126.5-99.5-20.264 23.471-38.325 48.838-58.221 72.628-5.194 6.374-9.44 15.263-17.693 14.368-26.865.011-53.731-.002-80.586.004v-57c12.945-2.943 32.177-6.047 33-26h-6.5l-1.5-.5c32.484-9.426 63.693-22.632 94.842-35.626 14.994-6.665 29.634-13.922 44.21-21.4 13.35-7.87 35.09-2.338 47.948-17.974-44.2-35.558-87.074-73.37-131.5-108.5-22.877 22.98-44.958 46.703-67.233 70.232-4.815 5.977-11.395 4.896-18.313 4.768H1390c2.205 9.887 6.379 19.252 9 29h310c-5.58 13.275-15.55 27.464-21.915 39.015-5.62 9.302-12.902 19.745-18.448 28.002-4.468 9.738-15.36 6.675-23.957 5.948-27.147-3.247-54.58-3.44-81.68-6.965v97h-247zM1414 2607c7.688-1.37 15.046-4.696 20.196-10.756 5.227-4.471 6.951-13.243 11.888-17.095 44.847-26.007 90.442-50.761 134.365-78.33 44.088-27.052 87.907-54.8 130.051-84.819h1.5c36.601 74.552 100.4 132.616 168.5 178h1.5c8.086-29.089 20.494-57.65 40.825-80.436 18.207-22.867 50.232-39.768 76.175-44.564.12-3.961 1.644-8.412 2-12-42.459-12.078-83.856-27.925-123.895-46.48-39.249-18.137-76.791-40.034-109.105-69.02 37.95-12.54 75.865-25.961 112.727-41.593 17.938-7.242 35.682-14.953 53.28-22.966 8.248-3.876 20.123 2.41 30.245 1.897 9.897.325 18.514-5.24 24.748-12.338-37.493-27.294-74.79-55.25-112-83 9.89-6.464 22.333-8.967 31.497-16.758 4.71-3.614 3.353-11.228 3.503-16.362V1849c15.281-2.119 29.433-10.613 40-21.5-42.322-34.632-88.25-64.78-130.5-99.5-13.457 14.712-26.865 29.48-40.323 44.182-6.57 7.521-13.74 14.505-20.231 22.088-3.855 4.826-9.484 3.6-14.978 3.73H1730v-107c13.388-2.345 32.274-6.448 32-27-29.342-1.168-58.59-4.52-87.91-6.077-28.671-3.294-58.142-2.855-86.59-6.923-1.426 48.88.26 98.059-.5 147-15.559 1.297-29.8-4.931-43.95-10.587-42.359-16.149-85.388-30.872-127.55-47.413-1.426 128.764.26 257.888-.5 386.714v290.785c-1.006 7.675 1.444 17.614-1.315 23.61-21.37 4.14-43.998 4.947-65.685 7.891 20.276 53.147 45.228 104.98 66 158m62-1077h32v-297h-32zm82 428h210v-115.8c-.02-3.213.026-6.423-.02-9.634.893-7.72-7.17-6.813-11.742-6.566H1558zm0 173h210v-144h-210zm0 291c24.273-3.213 48.493-7.166 72.737-10.613 12.162-1.637 24.248-3.753 36.392-5.467a1113 1113 0 0 1 19.28-2.983c5.044-1.457 12.846-.976 16.591-3.437-35.259-75.328-51.99-157.748-64-239.5h-81zm43-892h38v-297h-38zm142.5 787c28.917-37.866 55.484-77.633 81.5-117.5-9.1-.53-18.505 2.801-27.755 2.151-9.731.541-19.508.273-29.245.349v-42h-113c2.976 15.271 9.705 29.62 15.054 44.138 17.078 41.419 40.852 81.91 73.446 112.862m-9.5-787h34v-297h-34z" style="fill:#000;fill-rule:evenodd;stroke:none"/></svg>