<svg xmlns="http://www.w3.org/2000/svg" width="3000" height="3000"><path d="M328 2803h2344c-118.785-721.214-240.618-1442.068-360.03-2163.199-7.528-45.17-15.046-90.339-22.588-135.492-1.756-10.718-3.574-21.44-5.367-32.15-1.463-5.102-.632-13.609-5.65-15.42-82.419-27.818-165.08-54.96-247.546-82.639-144.35-48.044-288.615-96.253-432.954-144.3-27.19-9.095-54.376-18.14-81.566-27.195-6.024-1.707-14.13-5.746-19.294-4.368-99.967 33.09-199.81 66.647-299.74 99.834a5130220 5130220 0 0 1-448.968 149.67c-9.274 3.513-19.03 5.778-28.13 9.725-3.665 1.962-2.298 9.57-3.876 12.727-22.54 135.51-45.194 271.003-67.739 406.508C542.266 1518.848 433.622 2160.802 328 2803m664-474.625c1.044 2.172 2.866 3.783 4.375 5.625 32.264-13.871 64.002-29.429 94.364-47.156 14.799-8.448 29.214-17.591 43.432-26.948 7.083-4.707 13.92-9.8 20.874-14.672 6.55-3.908 14.356-12.568 20.955-13.224-1.752 65.783-1.87 131.979-14.077 196.916-3.256 14.88-6.785 29.924-14.102 43.435-4.421 9.906-11.33 19.764-22.387 22.93-9.24 2.606-18.998 1.397-28.446 1.719-13.943.072-27.798-1.799-41.713-2.183-12.934-1.946-28.48-.821-40.275-2.817v11c26.774 7.703 54.591 21.203 69.04 46.398 13.711 28.7 9.734 61.178 12.96 91.602 26.968.48 53.981-2.733 79.879-10.407 18.713-4.933 35.734-14.934 50.25-27.501 19.369-20.158 32.774-45.617 42.68-71.586 10.733-27.597 16.967-56.71 22.141-85.775 12.048-67.54 12.74-136.328 11.972-204.687-1.54-50.355-4.662-100.737-11.946-150.619-9.402-72.656-29.648-144.351-65.483-208.577-2.4-4.471 2.342-8.446 5.482-11.323 23.55-23.253 45.776-47.719 67.167-72.942a769 769 0 0 0 30.593-38.216c2.134-3.395 4.895-6.88 9.44-5.829 12.957 2.072 25.638-3.117 33.825-13.038-26.895-14.488-54.33-28.408-81.375-42.686-26.487-15.227-54.817-27.354-81.125-42.814-16.07 44.201-33.81 88.615-54.5 131-6.087-1.116-10.57-9.707-16.233-13.733-35.216-32.723-75.4-59.953-117.267-83.267-1.71 2.606-6.92 4.801-7 7.655 1.2 3.706 4.946 5.497 7.17 8.612 21.73 24.869 42.661 50.654 60.067 78.792 13.826 20.91 25.122 43.451 35.274 66.322 1.956 5.091-.804 9.275-3.124 13.574-16.752 30.682-35.52 60.23-54.996 89.22-9.576 14.629-20.305 28.422-30.989 42.227a1028 1028 0 0 1-16.679 20.56c-2.848 3.382-5.988 6.557-8.512 10.204-3.32 3.19 2.912 7.616 4.789 9.834 24.612-13.164 49.38-26.636 72.4-42.562 11.7-7.966 23.735-15.464 34.976-24.065 5.524-4.331 11.401-8.153 16.925-12.481 6.149-3.232 11.208-10.878 17.199-11.892 3.86 17.996 8.851 36.053 10.804 54.394-6.129 31.902-17.505 62.765-28.275 93.32-16.448 43.454-36.483 85.406-60.419 125.226-23.33 39.036-49.793 76.541-80.11 110.435M1053 1599c20.256.054 40.743.986 60.719-3.233 13.992-2.407 27.324-7.39 40.06-13.48 9.325-4.003 17.658-9.995 25.303-16.56 8.217-5.6 7.483-13.88 6.918-22.06V1276c5.315.334 10.911 5.651 15.701 9.293 16.214 14.71 18.338 37.658 20.968 57.974A620 620 0 0 1 1227 1411c41.017.67 86.129-8.954 115.724-39.451 26.623-32.257 37.934-74.57 39.218-115.76 2.06-52.747-13.336-105-39.32-150.567-18.905-32.166-42.204-62.487-71.407-86.056-10.6-8.962-21.805-17.152-33.483-24.656-2.466-1.352-4.91-2.804-6.847-4.857-1.838-5.402 6.638-11.229 8.732-15.172 27.755-34.166 52.321-70.74 76.624-107.376C1339.04 830.868 1362.727 794.682 1383 757c28.616-.422 57.131 1.223 85.7 2.096 25.25.215 50.461.83 75.702.904h16.594c4.917-.477 9.944-.375 11.4 6.004 13.426 36.428 20.365 74.988 21.077 113.696.13 3.593-.643 7.175-.47 10.765.188 3.46-.531 7.956 1.705 10.17 8.977 8.548 18.946 16.842 31.116 20.432 21.53 7.03 46.554-.893 61.76-17.179 11.585-11.906 17.936-31.935 15.885-47.034-3.41-25.502-21.293-46.029-40.338-61.721a173.7 173.7 0 0 0-30.013-18.578c-10.944-4.71-23.327-12.244-34.118-14.555v-3c58.746-.148 117.37-4.049 176-7-8.205 40.6-18.574 80.76-30.043 120.538-4.877 14.89-8.558 30.22-14.226 44.843-2.036 6.474-4.383 12.834-6.757 19.173-1.733 8.614-8.16 7.925-14.967 7.446-104.937.76-210.147-.926-315.007.5 3.473 8.845 5.705 18.522 9 27.5h398v90h-388c2.935 8.273 6.054 20.042 8.92 26.716 4.236 2.504 11.054.491 15.66 1.284H1801v96c-134.264.76-268.81-.926-403 .5 3.766 8.764 6.234 18.35 9 27.5h394v25.2c.032 6.406-.039 12.83.02 19.234.224 1.828.228 5.185 1.8 5.928 8.018 1.401 16.365.062 24.452.194 7.842-.33 15.698-.258 23.487-1.272 19.02-1.905 37.726-6.301 56.08-11.513 8.902-2.974 18.401-5.018 26.576-9.81 4.275-2.245 1.711-10.597 2.585-14.134V994c11.472-1.102 28.034-7.283 36-17.5-35.164-30.284-69.35-62.38-104.5-92.5-7.672 8.715-15.738 17.029-24.102 25.102-6.061 6.356-11.633 13.186-18.13 19.13-4.72 4.481-9.055 9.367-13.912 13.695-3.697 3.007-10.326 1.798-15.591 2.073H1747v-3c33.17-22.591 64.075-49.643 95.08-75.253 15.715-13.555 31.139-27.424 45.79-42.117 3.736-3.455 7.664-8.07 11.337-10.958 2.832-2.367 7.953-1.319 11.954-1.965 9.674-.986 23.233-5.036 26.839-17.707-48.35-13.14-96.565-27.199-145-40v-3c28.211-.788 56.155-5.346 84.202-7.96 7.41-1.593 12.648 1.479 18.944 3.85 18.565 6.928 40.527 11.097 58.854 1.11v-1.5c-22.812-22.552-44.172-46.432-66.975-68.975-19.449-20.381-39.314-40.31-58.52-60.898-4.283-6.826-10.203-2.413-15.032-.204-87.87 39.392-180.099 68.61-273.135 93.027-23.587 6.324-47.22 12.558-71.014 18.016-8.847 1.981-17.645 4.124-26.487 6.106-7.76 1.26-17.928 5.557-23.902 1.071-20.641-17.64-39.683-37.12-60.376-54.704-9.726-9.349-19.966-18.13-29.736-27.415-10.83-7.878-19.288-19.078-30.323-26.524-15.987 15.13-34.408 33.263-49.101 47.107-6.207 5.541-12.444 13.316-18.56 17.896-7.915 2.156-16.92.171-25.089.995-13.511-.28-25.453-8.461-38.292-11.7-38.53-13.9-76.867-28.666-115.458-42.298zm133-339c10.825-.006 21.626.008 32.439-.004 16.842.759 27.828-10.121 32.276-24.192 4.56-14.467 4.457-29.91 4.124-44.891-1.577-41.147-6.27-82.38-16.69-122.298-3.99-14.267-9.102-28.185-14.86-41.823-4.913-11.519-10.53-22.732-17.001-33.453-2.882-5.141-.234-10.944.657-16.47C1222.141 891.482 1234.748 805.445 1242 719h-56zm72 1370.5c1.378 3.354 5.914 6.297 8.668 9.5 34.936-23.684 66.684-52.77 94.962-84.09 13.934-15.996 27.21-32.597 38.707-50.446 5.664-8.65 11.142-17.417 16.31-26.366 2.807-4.306 5.157-8.884 7.778-13.285 2.518-3.72 4.118-10.34 8.575-10.813 18.196 54.48 41.813 107.512 60 162 12.903-3.036 24.09-11.339 30.343-22.935 3.04-3.77 9.806-5.55 14.53-8.503 37.685-19.603 75.737-38.61 112.998-59.009 18.287-10.256 36.756-20.228 54.905-30.728a1255 1255 0 0 0 25.996-15.001c4.167-2.666 8.575-4.904 12.78-7.494 4.272-2.137 8.906-6.114 13.448-6.33 2.242 19.793 3.12 39.699 3.726 59.59 1.335 14.778-1.73 32.34-.16 45.835 12.103 15.351 34.857 30.146 53.675 26.838 20.638-3.15 37.609-18.377 46.155-37.045 2.628-5.218 4.367-10.838 6.095-16.393.92-3.12 1.684-6.296 2.227-9.494.205-2.662.295-6.125 4.282-6.331 9.523 36.337 23.199 71.907 36.5 107 10.933-35.738 24.655-71.12 45.712-102.263 9.226-13.309 19.49-25.863 31.964-36.213 5.662-4.89 11.916-9.036 18.549-12.457 8.566-4.038 7.677-11.6 2.725-17.38-33.345-46.657-61.588-96.704-86.155-148.472C1846.855 2155.353 1821.484 1972.02 1818 1792c12.535-.22 24.96-2.145 37.386-3.552 9.333-1.059 18.653-2.27 27.998-3.142 13.918-1.04 26.451 7.952 40.195 8.97 6.7.966 14.782 1.935 20.988 1.247 6.91-.85 13.385-3.77 19.433-7.023l-119.233-119.233-11.242-11.242c-3.158-3.834-6.84-7.452-12.3-3.636-71.012 35.602-145.473 63.745-220.074 90.73-18.712 6.762-37.492 13.388-56.335 19.78-7.025 2.292-14.01 4.701-21.026 6.986-6.926 2.163-12.246-1.819-18.518-3.965-42.826-16.585-85.332-34.868-128.272-50.92v247.8c.319 61.242.077 122.454-2.72 183.632-2.827 85.538-9.458 171.232-28.363 254.915-16.823 79.722-44.727 157.789-87.917 227.153M1418 1301c.807 50.206-33.805 96.458-78.217 117.61-15.887 7.376-31.376 22.344-38.993 36.476-15.173 28.603-.248 68.407 30.102 79.648 23.547 9.96 51.25 6.42 71.648-9.074 29.855-22.186 45.886-58.196 49.587-94.444 4.483-37.962-1.82-76.493-15.828-111.965a242 242 0 0 0-5.196-13.403c-1.652-5.905-8.29-4.892-13.103-4.848m-7-532.687c13.786 26.423 22.312 55.807 28.378 84.909 2.38 12.311 3.793 24.72 3.963 37.263.957 5.052-.63 12.007 2.055 15.71 12.887 12.85 30.457 21.94 49.033 20.803 28.165.141 52.92-24.07 55.134-51.678 3.138-28.17-16.042-52.11-36.078-68.937-13.195-10.754-28.262-19.115-43.941-25.632-8.12-3.586-16.433-6.667-24.78-9.663-7.995-2.01-18.823-6.794-25.756-6.542-2.806.463-5.908 2.627-8.008 3.454zm21 1683.187v1.5c50.74.313 101.326-4.646 152-6v-637c-24.341.664-48.675 2.177-73 3-.788 112.949 2.476 226.107-5.064 338.88-3.325 53.3-10.556 106.358-23.063 158.312-10.775 49.054-27.979 96.76-50.873 141.308M1811 1372c-4.435-.21-9.564-.63-11.27 5.223-1.708 3.916-3.783 7.632-5.435 11.562-7.054 15.173-14.617 30.157-22.887 44.68-3.677 6.433-8.749 14.124-14.784 17.629-14.367 7.826-34.44 5.133-48.66 5.906h-48.515c-7.601-.018-15.174.022-22.768-.013-5.723-.304-13.899.074-18.506-6.036-3.4-6.186-1.67-13.717-2.175-20.41v-99.802c.189-2.699-.306-6.25.967-8.502 1.712-1.396 5.012-1.221 7.386-2.202 5.726-2.177 9.114 1.37 11.755 5.765 11.276 14.644 21.725 30.02 29.676 46.748 3.515 6.402 4.403 16.772 13.695 19.631 15.077 5.714 32.52 8.499 48.188 3.086 26.215-7.767 45.212-34.519 43.324-61.956-.01-21.022-13.101-39.23-27.998-52.65-23.642-19.886-54.517-28.556-84.174-34.336-16.3-2.397-32.82-3.415-49.28-3.314-8.673.1-17.317.452-25.983.638-6.915-.092-16.285-1.154-19.556 8.353 8.603 4.153 16.06 13.843 23.182 18.823 3.887 3.597 7.506 7.467 11.293 11.152 3.422 3.492 8.356 7.481 8.525 12.025-19.539-.307-38.946-3.289-58.459-4.037-19.083-2.47-38.541-2.019-57.541-4.963v141.066c.9 34.27-2.774 69.371 5.62 102.995 2.98 11.499 9.313 22.081 18.773 29.4 16.59 12.521 38.13 14.603 58.03 16.713 34.31 1.802 68.72.125 103.052.826 32.817-.07 65.899-1.336 98.185-7.627 19.852-4.508 40.774-10.09 56.78-23.434 24.583-19.562 29.119-63.825 3.185-84.427-3.248-2.488-6.6-4.834-10.22-6.736-2.964-1.767-6.418-2.912-8.882-5.431-2.29-12.36-1.312-25.26-2.717-37.771-.789-12.846-1.612-25.71-1.806-38.574m-95 1067c12.675-.367 25.299-2.296 38-2-4.062-44.029-15.833-86.94-25-130 3.321-.173 6.275-2.056 9.59-2.248 2.515-.549 5.175 2.105 7.615 3.666 35.952 27.24 70.236 59.118 92.795 98.582h3c-39.39-201.794-37.92-408.371-40-613-28.486 4.002-57.562 3.985-86 8zm92-1138.625c25.947 36.822 45.554 78.181 59.899 120.803 5.84 16.957 10.7 34.276 13.788 51.95 2.159 8.198 2.556 16.667 3.615 25.002 2.52 5.699 11.316 8.996 15.833 12.841 11.678 6.718 24.796 11.864 38.531 10.902 23.62-1.079 45.304-16.91 54.94-38.165 15.407-33.792 3.133-73.355-18.858-101.038-21.75-27.288-51.96-46.055-83.05-60.737a435 435 0 0 0-41.4-15.673c-7.337-2.251-14.618-4.701-22.021-6.69-3.618-.753-7.08-2.207-10.722-2.788-3.601-.697-6.323 2.076-9.812 3.045l-.743.173z" style="fill:#fedda9;fill-rule:evenodd;stroke:none"/><path d="M990 2328.438c1.72 2.599 4.02 4.788 5.5 7.562 62.803-27.642 123.924-60.385 178-103h1.5c-1.943 65.172-1.797 130.788-14.119 195.102-3.253 15.013-6.906 30.149-14.32 43.753-4.458 9.89-11.577 19.67-22.694 22.599-17.535 3.565-38.908.538-55.08.025-18.206-1.995-36.6-1.46-54.787-3.479v13c26.774 7.703 54.591 21.203 69.04 46.398 13.711 28.7 9.734 61.178 12.96 91.602 27.634.526 55.347-2.467 81.881-10.407 18.905-4.945 36.012-15.128 50.639-27.839 19.466-20.562 33.006-46.275 42.847-72.678 10.922-27.935 16.637-57.553 22.082-86.922 7.569-48.06 11.527-96.743 11.551-145.408.493-73.982-2.122-148.16-13.775-221.353-9.68-69.39-30.628-137.817-65.225-198.893 22.06-22.452 44.062-44.977 64.68-68.762 15.411-17.37 29.454-35.917 43.934-54.019 1.138-1.762 4.536-.55 6.072-.907 8.718.253 18.204-.773 25.51-6.014 2.54-2.55 6.446-4.865 7.306-8.26-.609-3.187-6.274-4.289-8.375-5.976-46.458-24.323-93.028-48.443-139.493-72.74-5.431-2.854-10.972-5.53-16.134-8.822-16.004 44.818-33.367 89.523-55 132-20.775-21.342-43.568-40.622-68.037-57.618-11.66-8.613-23.898-16.308-36.24-23.86-6.181-4.034-12.788-7.4-19.126-11.17-3.032-1.714-6.521-4.274-9.56-3.781-2.795 2.322-5.97 4.177-8.537 6.804 1.362 4.4 5.445 7.185 8.322 10.514 21.423 24.392 41.986 49.694 59.25 77.238 13.17 20.494 25.009 42.002 34.715 64.365 5.295 8.97-3.3 17.471-6.503 24.662-31.237 55.427-67.133 108.21-108.784 156.346 2.505 3.456 5.335 6.59 8.5 9.5 48.237-27.812 97.498-55.39 140-92 3.455 8.443 4.132 17.983 6.553 26.764 1.125 9.003 4.38 19.44 4.57 27.762-14.59 61.46-37.456 121.307-66.956 177.149-27.772 54.184-62.351 105.184-102.667 150.762M1052 1600c20.56.019 41.354.981 61.652-3.025 14.129-2.486 27.745-7.16 40.599-13.461 9.512-4.02 18.04-10.11 25.832-16.788 8.368-5.773 7.416-14.32 6.917-22.658V1277h1.5c9.464 6.647 19.217 13.79 23.949 24.909 7.374 16.757 7.622 35.72 10.412 53.494 2.51 19.096 2.337 38.484 3.639 57.597 35.866-2.705 75.7-5.526 105.26-29.58 20.91-15.574 34.515-44.395 41.408-66.456 24.708-81.291 2.49-170.92-46.034-238.675-24.817-36.745-58.654-66.588-96.134-89.789 2.149-5.506 7.873-10.033 10.76-14.472 27.491-33.953 51.87-70.218 75.936-106.617 22.652-36.01 46.15-71.972 66.304-109.411 28.366-.465 56.672 1.407 84.99 2.113 25.11.213 50.179.83 75.288.887h16.76c2.481.173 5.705-.193 7.755.993 8.746 16.97 11.546 36.582 16.622 54.8 3.65 17.526 6.682 35.322 6.585 53.281.405 7.487.405 16.239 0 23.126-.896 8.154 4.815 11.848 10.179 16.272 9.478 7.766 20.778 13.454 33.032 15.02 21.733 2.416 44.873-7.055 57.726-24.924 9.847-13.382 13.909-30.951 10.997-47.333-4.784-24.272-21.983-43.684-40.605-58.69-18.666-13.666-43.38-25.922-63.329-33.045 29.046-1.512 58.41-1.072 87.496-2.919 28.807-.482 57.784-3.667 86.504-4.081-9.601 39.88-18.15 80.37-30.54 119.592-4.632 14.97-8.79 30.062-14.24 44.746-1.945 6.506-4.475 12.82-6.753 19.205-1.531 7.497-9.914 6.051-15.66 5.957H1393c1.705 10.332 6.455 19.911 9 30h398v88h-388c.874 7.515 5.4 16.94 7.45 25.654 1.574 5.295 7.615 4.307 11.737 4.346H1800v94h-403v1.5c2.989 9.504 6.631 18.817 9 28.5h394v25.8c.058 6.407-.072 12.831.042 19.229-.214 6.287 4.434 6.44 9.052 5.97 13.657-.482 27.382-.312 41-1.51 18.992-2.007 37.804-5.87 56.115-11.275 9.347-2.887 19.044-5.351 27.742-9.934 4.435-2.526 2.563-9.711 3.049-13.855V995c11.893-1.137 28.942-7.659 37-18.5-35.61-31.218-70.91-63.45-106.5-94.5-15.677 16.64-31.805 32.842-47.475 49.475-4.49 3.29-8.33 10.207-13.194 11.161-19.063 1.038-38.238-.189-57.331.364l-1.5-.5c33.108-23.836 64.716-50.013 95.86-76.384 15.573-13.714 31.146-27.45 45.742-42.218 3.75-3.451 7.626-8.142 11.478-10.828 7.438-2.152 16.33-.289 23.555-4.369 8.502-2.875 12.108-9.193 15.365-16.201-48.33-14.591-97.655-26.434-146-41 27.64-2 55.39-5.185 82.963-8.271 7.139-1.53 13.52 1.909 20.216 4.335 10.044 3.835 20.51 6.132 31.237 6.58 9.395.732 22.318-1.671 28.584-8.144-43.285-45.996-88.477-90.538-131.312-137-88.858 41.173-182.736 70.85-277.147 96.368-24.722 6.402-49.327 13.26-74.211 19.022-8.931 1.96-17.773 4.2-26.704 6.15-7.973.811-17.998 5.569-24.584 3.4-42.4-35.274-81.322-75.556-123.542-110.94-8.143 8.016-16.839 15.453-24.733 23.733-14.4 13.763-28.516 27.893-42.97 41.593-2.901 2.35-8.177 1.44-12.275 1.674-7.574-.17-16.897.818-23.469-1.976-48.02-17.609-96.07-35.448-144.053-53.024zm135-341c10.42-.017 20.831.02 31.238-.011 16.279.431 26.82-10.13 31.293-23.657 4.538-13.99 4.656-28.963 4.305-43.497-1.582-41.313-6.324-82.733-16.836-122.799-3.872-13.83-9.71-29.628-14.921-41.721-4.883-11.565-10.645-22.707-17.044-33.485-3.044-5.235-.436-10.18.431-15.627C1221.26 892.767 1232.932 806.493 1241 720h-54zm69 1372.625c4.25 2.917 7.373 8.746 11.5 10.375 33.656-25.159 66.505-51.956 94.085-83.911 27.8-30.701 50.196-65.86 69.915-102.089 19.505 54.155 41.61 107.666 60.5 162 12.651-1.223 25.877-11.256 31.206-21.249 3.071-5.037 9.264-6.649 14.127-9.426 37.954-19.297 75.86-38.685 113.206-59.106 36.015-18.979 71.029-40.368 106.461-60.219 2.25 19.771 3.107 39.698 3.734 59.58 1.36 14.542-1.804 31.119-.376 45.096 11.261 16.345 35.148 30.174 53.734 27.918 21.197-2.314 38.674-17.24 47.676-36.093 2.692-5.15 4.59-10.626 6.253-16.17 2.657-5.119 2.135-13.354 4.479-17.331 11.051 37.116 23.75 73.967 38 110 11.346-35.826 24.131-71.73 45.276-103.191 9.387-13.276 19.122-26.591 31.839-36.906 5.606-4.984 11.813-9.29 18.379-12.88 5.041-2.185 12.617-10.669 6.704-17.114-33.652-46.557-62.02-96.57-86.87-148.301-77.254-165.156-103.106-349-106.828-529.608 12.709-.256 25.34-2.18 37.937-3.628 9.532-1.04 19.034-2.343 28.582-3.141 6.857-.468 13.256 2.782 19.669 4.658 19.46 6.336 42.828 10.023 60.812-2.389-46.004-46.257-92.45-92.142-138.333-138.5-71.993 35.955-147.176 65.371-222.899 92.485-19.119 6.906-38.2 13.87-57.493 20.26-7.152 2.385-14.32 4.742-21.457 7.155-7.19 3.131-12.839-.04-18.996-2.78-43.73-17.045-87.04-35.297-130.822-52.12v248.4c.348 61.185.065 122.337-2.696 183.451-2.884 86.607-9.503 173.445-28.98 258.118-8.424 40.833-19.991 81.026-35.408 119.776-14.29 37.012-32.493 73.114-52.916 106.88M1417 1300c.849 50.476-34.129 96.713-78.725 117.876-15.868 7.418-31.185 22.579-38.736 36.696-14.918 28.954-.74 69.182 29.843 80.956 23.766 9.928 52.064 7.121 72.956-8.1 30.47-21.442 46.455-57.824 50.605-93.831 5.066-37.85-1.206-76.274-14.276-111.922-1.74-4.428-3.302-8.906-5.107-13.303-1.118-2.293-1.883-5.41-3.531-7.136-1.902-1.574-5.32-.922-7.557-1.236zm-8-532.75c14.056 26.258 22.45 55.506 28.973 84.457 2.327 11.964 4.055 24.01 4.204 36.215.452 5.255.226 11.504 1 16.286.67 3.844 5.807 6.678 8.987 9.639 13.435 11.025 30.764 16.054 47.906 13.991 25.414-2.725 47.144-23.648 50.194-49.124 4.177-25.574-9.695-50.33-28.399-66.623-28.115-26.02-65.898-40.041-102.264-49.509-3.328 1.251-7.77 3.574-10.601 4.418zm24 1684c13.358 2.361 28.145-.677 41.784-.248 14.122-.6 28.208-1.391 42.325-1.945 21.978-.623 43.908-2.765 65.891-3.057v-635c-23.661.743-47.342 2.207-71 3-.785 112.774 2.463 225.74-5.034 338.344-3.314 53.079-10.4 105.94-22.867 157.682-11.338 48.683-27 97.413-51.099 141.224M1812 1371c-5.329-.266-11.699-1.129-13.675 6.116-2.277 4.743-4.658 9.446-6.59 14.34-7.396 14.927-14.594 29.973-23.202 44.227-3.962 6.218-8.465 12.626-15.425 15.73-15.147 6.57-35.17 3.817-49.736 4.587h-47.916c-7.56-.152-15.133.226-22.673-.222-5.758-.582-13.195-1.65-15.202-9.496-1.657-27.98.301-56.233-.581-84.266.607-12.235-.749-24.638.424-36.818-.376-3.068 3.923-3.071 5.748-3.623 6.053-2.43 9.499.71 12.14 5.5 11.428 14.797 21.956 30.367 29.876 47.343 3.2 7.131 4.736 16.87 14.188 19.133 15.194 5.354 32.387 8.066 48.098 3.116 26.498-7.363 46.265-34.075 44.526-61.766.909-21.573-11.971-40.716-27.238-54.55-23.816-20.579-55.384-29.247-85.512-35.123-16.518-2.4-33.244-3.322-49.922-3.222-8.638.073-17.26.435-25.887.617-4.162.281-9.15-.075-12.897.812-3.276.56-6.544 5.684-8.544 7.565 14.783 13.452 31.744 25.38 44 41.5-9.433 1.274-19.305-1.511-28.806-1.44-29.005-2.956-58.243-3.743-87.194-7.06v141.73c.527 33.332-2.292 73.126 5.295 103.104 2.703 11.676 8.927 22.403 18.28 29.97 16.478 13 38.205 15.2 58.252 17.328 34.702 1.862 69.527.163 104.253.868 33.297-.05 66.815-1.205 99.58-7.627 20.014-4.55 41.172-10.166 57.188-23.805 25.403-19.393 27.128-67.262 3.584-85.383-5.64-5.372-14.358-8.595-19.909-12.84-2.29-12.36-1.312-25.26-2.717-37.771-.789-12.846-1.612-25.71-1.806-38.574m-95 1067c11.99-.648 23.957-2.198 36-2-6.158-43.164-14.142-86.586-26-128.5 3.905-3.225 13.43-5.752 18.416-1.44 37.25 27.383 71.01 60.208 95.084 99.94-38.675-200.993-37.505-407.123-39.5-611-27.733 4.408-56.263 3.784-84 8zm90-1137.5c19.764 30.384 37.185 62.525 50.7 96.237 10.454 26.66 19.256 54.121 23.857 82.434 1.307 5.535 1.881 11.171 2.184 16.839-.056 5.51 4.716 8.29 8.493 10.778 14.877 11.044 33.413 18.201 52.164 15.771 28.705-2.932 51.81-26.493 56.683-54.445 5.53-28.144-3.818-57.604-20.075-80.59-17.338-24.846-46.896-46.052-71.249-58.64-28.283-14.854-58.763-24.871-89.53-33.066-5.2-1.777-8.359 1.788-12.713 3.039l-.514.143z" style="fill:#000;fill-rule:evenodd;stroke:none"/></svg>