<svg xmlns="http://www.w3.org/2000/svg" width="3000" height="3000"><path d="M284 2851h2432c-134.149-810.763-270.401-1621.295-405-2432-135.347-44.612-270.435-90.254-405.734-135.071-101.317-33.788-202.65-67.568-303.967-101.324-19.003-6.335-37.989-12.692-57-19-9.003-3.001-17.989-6.025-27-9-7.811-3.03-16.897-7.258-26.474-2.705-133.674 44.544-267.33 89.12-400.999 133.657C956.16 329.848 822.71 374.9 689 419c-134.595 810.684-270.855 1621.274-405 2432m691-1472.625c2.672 2.668 7.075 5.843 9.779 7.368 1.103 1.541 3.897-.74 5.21-1.097 1.74-1.075 3.385-2.266 5.102-3.357 13.648-8.287 26.72-17.5 39.541-27.02 6.511-4.854 12.803-10.003 19.233-14.961 3.098-2.82 6.325-5.49 9.508-8.189 2.844-2.326 6.166-5.662 9.627-6.119v280c24.484.007 49.876.387 73.138-8.66 10.487-3.963 21.697-11.06 29.796-17.31 5.887-3.93 7.51-9.6 7.066-15.864V1544h193.2c7.409.394 16.426-.63 23.102.705 2.373 1.631 1.597 6.765 2.912 9.006 3.437 11.426 9.817 22.1 20.174 28.477 17.735 12.108 45.966 12.299 62.703 2.626 14.116-7.698 24.803-20.554 31.492-34.961 11.746-22.736 14.338-49.132 11.027-74.135-1.84-12.189-4.129-24.328-8.13-36.015-1.489-5.818-3.573-11.456-5.778-17.015-1.4-6.298-11.065-4.518-15.702-4.688-.699 26.023-21.15 45.878-41.056 59.668-4.578 3.269-10.46 6.47-15.427 7.834-15.577-7.987-27.26-23.788-43.189-31.502-10.56 12.68-20.992 25.469-31.371 38.286-5.352 6.12-10.15 12.715-15.44 18.875-5.018 7.264-16.977 4.027-24.517 4.839v-72h73.2c12.425-.142 24.873.177 37.29-.106 10.502.245 20.644-5.437 24.51-15.394-25.913-27.204-57.705-47.756-86.5-71.5-8.617 9.098-15.575 19.625-23.772 29.073-3.892 5-7.841 9.933-11.724 14.925-3.986 3.915-8.048 12.21-13.004 13.002v-77h73.2c12.425-.142 24.873.177 37.29-.106 10.502.245 20.644-5.437 24.51-15.394-25.95-27.168-57.914-47.474-86.5-71.5-8.617 9.098-15.575 19.625-23.772 29.073-3.892 5-7.841 9.933-11.724 14.925-3.986 3.915-8.048 12.21-13.004 13.002v-61.2c.372-3.792-.655-8.597.963-11.557 6.891-2.548 13.736-.352 20.971-1.243h112.431c11.272 1.238 23.455-3.987 26.635-15.605-27.333-25.434-56.92-49.094-87.5-70.395-8.206 9.779-16.07 19.852-24.248 29.656-6.084 7.505-12.202 14.972-18.445 22.345-4.748 7.674-12.76 6.14-20.591 5.999H1264c.56-4.367 6.597-7.344 9.985-10.784 13.611-10.84 26.233-22.778 39.339-34.17 6.731-5.711 12.98-11.927 19.476-17.882 3.584-3.588 6.785-5.561 11.53-5.596 4.293-.507 8.397-2.015 12.67-2.568-.105 4.684-.68 9.341-1 14 3.36.557 6.024 3.127 9.347 3.838 2.755 1.3 6.375-1.515 9.488-2.766 21.07-10.311 41.272-22.309 60.706-35.415 10.022-5.918 18.812-13.73 28.682-19.812 5.647-1.86 12.422-1.105 18.242-2.844 5.883-.85 12.202-4.117 17.535-5.001v321c25.59.587 51.327.795 76.532-4.453 12.149-2.652 24.067-6.452 35.24-11.933 4.888-2.722 11.761-4.984 14.838-9.39 2.4-6.061.843-12.91 1.39-19.224h230c-.193 17.423-3.256 34.718-5 52h-3c-.543-4.907-5.004-9.177-7.742-12.408-10.304-11.172-24.967-18.242-39.471-22.375-11.502-3.05-23.353-4.66-35.232-5.168-11.906-.172-26.1-3.866-32.555 6.451 19.761 15.797 37.496 41.193 44.744 63.221 2.6 5.975 2.52 15.05 7.835 18.05 8.946 5.49 19.802 8.208 30.253 6.844 4.755-.765 9.952-3.273 13.9-5.155 4.201-1.771 8.57-6.808 12.268-7.46-1.064 7.68-6.338 17.46-10.617 22.097-8.374 9.301-27.217 7.16-36.988 7.558-13.81-.15-27.615-.915-41.395-1.655 7.892-37.013-26.082-62.986-53.17-74.246-10.872-4.354-21.97-8.295-33.335-11.126-10.478-3.209-24.191-7.538-32.495-.128 13.795 21.874 25.396 45.635 32.589 70.571 3.718 10.011 4.226 20.67 6.128 31.014.994 3.477 5.193 5.715 8.454 8.025 13.644 9.536 32.219 11.796 47.195 4.173 5.902-2.176 10.336-6.47 14.843-10.615 4.002-3.566 11.721 2.102 15.392 3.394 16.207 8.135 30.22 21.655 35.639 39.377 5.418 19.333 5.667 39.667 5.76 59.561 24.425-.74 49.044-2.598 72.337-10.613 16.344-5.137 32.322-12.356 45.364-23.68 19.196-17.205 31.181-40.829 37.398-65.59 7.252-25.876 10.973-52.58 14.145-79.214 1.72-14.913 3.227-29.899 3.756-44.903 7.42-.426 15.89-2.98 22.344-4.99 6.094-2.86 15.608-5.911 17.656-12.01-15.945-10.536-30.292-24.562-45.85-35.883-7.714-6.19-15.482-12.3-23.157-18.526-3.85-3.13-7.773-6.181-11.62-9.312-3.233-2.864-8.92-6.482-9.373-10.279h57.6c14.776-.092 37.574 2.03 45.4-16.5-21.101-17.945-42.469-35.636-64.534-52.402-11.1-8.403-22.035-16.994-33.266-25.206-5.212-2.856-12.235-12.039-16.872-7.18-4.611 4.087-8.89 13.332-14.328 14.288v-105c.126-5.402-.166-10.814.122-16.2-.127-4.412 3.63-5.441 6.9-5.814 9.928-2.53 18.71-8.37 25.978-15.486-37.873-27.629-75.338-56.379-113.5-83.5-16.822 17.36-32.53 35.73-49.735 52.73-4.723 5.713-12.342 4.146-18.382 4.27H1689v-3c20.213-8.513 40.055-18.369 59.83-27.927 5.4-2.595 10.656-5.812 16.582-7.05 13.874-2.445 33.465-9.837 36.588-29.023-60.095-6.62-119.94-16.001-180-23-.07 26.998-.764 54.005-1 81-10.294-1.443-19.608-7.142-29.528-9.97-30.194-11.621-60.935-22.146-90.972-34.03-1.426 31.871.26 64.07-.5 96-5.273-.266-9.177-6.174-12.733-9.233-26.21-25.666-53.58-50.088-79.767-75.767l-29.233 29.233c-7.044 7.367-13.426 15.36-21.166 22.06-5.73 4.664-16.63 1.652-24.736 2.707H1255c.909-6.999 4.985-14.496 6.715-20.645 1.816-5.142 3.199-10.52 5.806-15.33 2.11-3.474 9.458-1.567 12.551-2.787 11.962-1.084 24.795-8.911 27.928-21.238-51.202-13.437-102.563-27.744-153.5-42-4.037 20.588-6.484 41.667-11.235 62.173-2.283 10.667-4.762 21.28-7.075 31.94-.73 2.37-1.319 6.781-3.613 7.441-8.124.967-16.417.073-24.577.446-.866-11.914-4.35-23.46-7.683-34.848-1.516-5.89-3.786-11.506-5.917-17.171-1.658-5.72-11.125-3.488-15.4-3.981-.18 15.6-9.158 29.283-19.622 40.092-9.416 9.312-20.104 17.322-32.18 22.821-20.626 9.413-42.446 26.482-45.09 50.95-1.734 18.072 5.168 37.404 21.253 47.304 22.48 14.61 54.615 12.935 74.555-4.753 19.18-17.514 29.873-48.2 31.084-71.414h17c-13.968 56.009-36.545 109.738-60.955 161.892-24.755 50.485-54.135 99.142-90.045 142.483M1149 824c3.621.07 4.664 4.532 5.402 7.442 2.568 5.628 2.684 13.647 6.054 17.742 11.753 2.066 24.163-.162 36.057.816H1306c-.628 5.595-7.341 10.563-10.924 15.692C1283.704 880.45 1269.44 893.725 1259 909h-129c2.339 9.752 5.676 19.249 8 29h202.8c15.458-.475 34.645 1.576 48.143-4.086 4.317-2.484 10.771-7.777 9.164-12.675-12.835-13.93-29.189-24.356-43.656-36.451-7.311-6.066-15.182-11.364-22.799-17.013-3.817-2.915-7.645-5.843-11.673-8.453-3.374-2.642-8.677-5.272-8.979-9.322h39c12.319-.723 42.144 4.807 46.408-15.667-11.43-11.978-25.803-21.143-38.303-31.974-15.616-12.493-31.88-24.137-47.62-36.46A52 52 0 0 1 1308.5 764c-9.901 10.122-18.16 21.693-27.753 32.08-7.009 7.904-13.424 16.412-20.706 24.051-3.101 2.637-8.773 1.638-13.24 1.869H1151c.494-9.88 3.75-19.497 3.698-29.483.826-10.509-.166-21.03-.698-31.517h267v205c26.461-.237 53.002-.449 79.281-3.668 24.296-3.168 47.971-11.338 69.719-22.332V782.8c.32-6.12-.47-13.424.45-18.982.004-2.996 5.31-2.586 7.173-2.816 90.139-.006 180.245.001 270.377-.002-1.077 21.76-9.106 42.553-12 64-4.676-.066-7.995-3.76-11.368-6.493-22.647-19.092-47.412-35.568-70.132-54.507-10.016 10.449-18.622 22.186-28.384 32.86-7.138 7.389-15.104 19.345-21.855 24.58-37.258 2.355-75.031-1.215-112.261 1.06 3.307 8.486 5.762 19.445 8 27.5h173v1.5c-3.428 7.126-11.263 13.182-15.158 19.276-8.764 10.708-17.72 21.23-26.663 31.784-1.588 2.011-3.158 4.042-5.339 5.443-44.043 3.603-89.614-1.443-133.84 1.497 4.048 8.239 4.432 20.005 8.903 27.2 6.983 2.715 17.282.318 24.643 1.3h153.25c19.793-.122 39.579.15 59.365-.08 12.733-.5 30.116-1.793 33.273-15.32-.621-3.762-7.562-7.014-9.757-9.835-25.769-20.719-52.41-41.274-79.677-59.765v-3c15.672-.107 31.382.44 47-1 .52 5.371-5.594 12.624-.397 16.149 4.592 4.896 9.599 2.449 14.619-.188 10.134-4.392 20.25-8.825 30.171-13.673 24.96-12.533 49.404-26.17 73.052-41.034 11.699-6.728 22.434-14.93 33.73-22.264 13.067-3.864 31.646-1.004 39.825-13.49-29.684-27.609-59.12-55.507-88.475-83.475-5.669-5.33-11.778-10.194-17-16-2.493-1.979-5.56-6.575-8.526-6.532-10.868 8.212-19.422 19.764-29.732 28.74-8.28 8.89-17.631 16.825-25.501 26.087-3.122 3.757-7.842 9.106-12.075 9.518-89.558.462-179.14-.084-268.691.162.015-20.014-.019-40.036.01-60.043.193-1.902.113-5.029 1.422-6.127 8.995-1.818 18.59-.118 27.729-.83h215.089c26.77-1.066 53.77 1.305 80.471-.716 5.017-1.123 9.992-3.423 13.516-7.246 1.652-1.894 3.047-4.287 3.272-6.833-4.87-7.103-15.413-12.809-21.633-18.792-28.556-21.566-58.268-41.531-87.738-61.804-2.434-1.645-5.106-3.966-8.327-5.11-3.083-.22-5.443 4.682-7.393 6.243-17.69 18.987-33.91 39.284-51.682 58.185-6.61 10.546-17.5 8.258-28.424 8.073H1090c2.55 9.336 5.461 18.67 8 28h323v67h-265.8c-2.606-.176-7.022.198-7.8-2.453-3.09-8.952-5.898-18.05-9.387-26.866a310 310 0 0 0-5.624-12.958c-1.584-5.121-9.604-3.648-13.389-2.723.617 17.89-7.102 36.226-21.458 47.347-10.775 10.627-23.977 18.172-38.225 23.115-23.918 8.315-48.648 24.245-57.443 49.507-6.923 19.54-2.444 41.948 9.73 58.352 18.863 24.027 54.887 32.875 83.055 22.019 26.679-10.207 48.952-39.129 54.341-64.34m-140 1797h946.2c14.452-1.117 45.105 5.728 52.8-15.543-51.285-43.352-105.392-84.302-159-124.457-15.418 17.962-29.372 37.383-44.455 55.666-13.872 19.11-30.441 36.827-43.545 56.334h-184v-421h285c11.603-.213 23.391.715 34.858-1.516 4.357-.96 8.922-2.217 12.281-5.352 1.953-2.493 7.225-7.351 4.525-10.295-23.243-20.899-48.794-39.204-72.958-59.008-24.83-19.005-49.398-38.53-74.706-56.829-23.854 28.677-46.529 58.638-70.086 87.61-5.797 6.473-10.688 17.637-21.65 16.39H1577v-343h347.4c13.037.005 30.08 1.44 37.6-15.5-51.842-41.376-103.883-83.522-157.5-122.5-17.904 23.123-36.375 45.875-54.278 69.006-8.194 9.99-15.774 20.451-23.976 30.423-3.566 4.244-6.82 10.978-13.797 10.551-215.75.816-431.782-.936-647.449.52 3.557 8.725 4.95 18.529 8 27.5h333v343c-100.264.76-200.81-.926-301 .5 2.966 8.902 5.73 20.154 8 28.5h293v421h-404c.868 9.619 5.963 18.392 7 28m171-1422c4.819.636 9.056 3.499 13.684 4.819 7.525 2.21 15.65.545 23.346 1.181H1240c3.127-38.864 2.055-78.046 3-117 39.5 6.551 78.494 16.467 118 23 .523-12.362 2.584-24.638 3-37h-97.8c-7.324.579-16.552-.917-23.03 1.015-6.315 9.686-9.16 21.535-14.813 31.637-7.182 16.603-16.336 32.226-24.376 48.384-3.768 7.817-8.698 14.96-12.877 22.542-2.977 6.91-10.566 15.105-11.104 21.422m3 110h40v-76h-40zm0 107h40v-79h-40zm0 100h40v-72h-40zm378-103c5.935 40.396 3.76 84.704-10 123 8.127 16.696 27.35 28.887 46.154 27.457 26.416-1.545 48.64-25.689 48.828-52.067 1.405-28.2-18.768-57.921-37.515-73.784-7.136-6.358-14.434-12.58-22.324-17.992-3.757-2.472-7.95-5.852-11.701-7.595-4.248-1.863-9.57.897-13.442.981m67-304h146v-47h-146zm0 78h146v-50h-146zm0 73h211.2c4.938-.645 13.644 1.372 16.706-2.21 5.043-5.718 9.595-11.83 14.545-17.614 3.918-6.1 11.627-11.79 12.549-18.176-17.109 4.397-33.519 11.925-51.154 14.573-18.914 4.844-38.507 4.624-57.846 4.427v-26h-146zm0 73h147c24.552-.49 49.195.597 73.721-.322 4.714-.538 7.98-7.369 12.49-10.05 6.472-5.005 11.526-11.555 17.774-16.798 3.203-2.467 6.078-5.317 8.885-8.2 2.473-2.575 5.885-5.434 6.13-8.63h-266zm2 889.25c44.354 61.206 80.462 131.3 91.298 207.258.893 4.924 1.158 10.058 2.447 14.865 13.427 12.027 30.499 19.867 47.704 24.721 26.795 5.908 58.104-.906 77.418-21.467 18.219-18.5 30.312-49.287 27.321-73.375-5.136-50.348-45.029-89.779-87.73-112.01-44.757-24.943-95.92-36.037-146.172-43.082-2.13-.41-4.643-.498-6.603-.681-1.693 1.138-4.135 2.79-5.683 3.521z" style="fill:#fedda9;fill-rule:evenodd;stroke:none"/><path d="M973 1378.5c3.793 3.896 8.641 6.679 12.5 10.5 30.36-18.45 59.559-39.13 86-63 1.426 93.177-.26 186.743.5 280 24.999-.03 50.97.609 74.774-8.511 10.61-4.018 21.978-11.097 30.16-17.46 5.887-3.93 7.51-9.6 7.066-15.863V1545h207c3.456.027 8.56-.299 8.783 3.59 4.779 28.341 27.134 43.385 52.788 44.037 19.928 2.616 39.206-7.024 52.014-21.739 19.794-21.531 26.57-57.183 25.188-82.894-.931-14.949-3.562-29.796-7.709-44.19-2.115-6.931-3.957-13.974-6.812-20.65-1.864-8.41-11.801-5.851-18.252-6.154-.484 15.758-8.348 30.585-19.733 41.233-10.153 11.155-22.396 20.011-35.767 26.767-14.15-11.044-28.023-23.195-43-33-11.003 12.04-20.6 25.321-31.248 37.656-5.232 6.22-10.27 12.633-15.39 18.93-2.816 3.96-5.461 6.742-10.152 6.39-4.571.068-9.153-.012-13.71.024v-70h61.2c15.42-.023 30.83.029 46.238-.015 9.82.304 21.045-2.929 25.926-12.324 3.498-6.376-6.808-12.979-10.566-16.799-16.418-15.099-34.126-28.749-51.743-42.398-6.652-5.543-13.905-10.316-20.797-15.521-3.11-2.69-6.033.042-7.88 2.575-14.151 17.333-27.78 35.135-41.878 52.482-1.426-24.847.259-50.08-.5-75h61.8c15.419-.038 30.83.046 46.246-.025 9.858.303 20.705-3.308 25.525-12.604 2.94-6.513-7.348-12.812-11.104-16.765-16.287-15.128-34.25-28.302-51.619-42.125-6.823-5.226-13.751-10.335-20.59-15.538-3.11-2.69-6.033.042-7.88 2.575-14.151 17.333-27.78 35.135-41.878 52.482-1.385-15.484.219-31.392-.5-46.949.23-6.93-.296-13.914.198-20.818.128-4.328 3.768-4.357 6.82-4.225 24.9-.024 49.79.005 74.676-.008 18.717-.014 37.446.017 56.15-.01 6.054-.035 13.381-2.263 17.546-6.076 2.894-2.863 7.43-9.513 3.03-13.885-27.018-24.779-56.036-47.874-85.92-69.029-17.188 18.663-31.207 40.45-49.113 58.382-14.275 1.67-28.948-.228-43.292.618-14.28-.706-28.938.873-43.095-.5 14.472-12.415 29.508-24.271 43.384-37.344 7.166-6.78 14.785-13.014 21.863-19.867 3.436-3.05 8.109-7.464 11.864-8.214 4.261-1.012 9.794-1.068 13.389-3.075 1.387 5.918-4.067 13.262 4.337 15.934 6.849 4.643 12.711 1.608 18.522-2.109 19.873-9.882 38.962-21.277 57.365-33.657 9.739-6.05 18.82-13.09 28.207-19.628 4.444-2.75 11.949-1.464 17.792-3.186 5.667-1.387 11.587-2.628 16.777-5.354 1.426 106.875-.26 214.06.5 321 26.107.561 52.35.84 78.08-4.352 12.3-2.65 24.376-6.49 35.692-12.034 4.888-2.722 11.761-4.984 14.838-9.39 2.4-6.061.843-12.91 1.39-19.224h228c-.93 16.184-2.677 35.398-5.5 50-5.82-14.362-22.093-25.154-34.794-30.295-15.952-6.603-33.301-9.347-50.483-9.705-6.21-.079-12.39-.507-18.593-.746-5.505-.714-10.834 3.694-14.63 7.246 18.294 18.282 37.49 38.542 45.396 64.22 2.665 5.634 2.983 15.75 7.717 18.76 9.153 5.936 20.267 8.295 31.046 7.333 9.87-.245 18.444-7.611 25.841-12.313-3.465 6.791-5.142 15.165-11.402 20.371-4.453 4.54-10.991 5.751-17.06 6.33-9.897 1.241-19.902.153-29.825.076-9.502-.797-19.335-.068-28.713-1.777 4.758-16.94-2.621-34.922-14.293-47.201-13.357-14.477-30.866-24.164-49.237-30.619a226 226 0 0 0-30.123-8.834c-4.754-1.265-9.558-2.351-14.43-3.052-5-1.091-9.653 3.364-13.917 4.206v1.5c14.597 20.573 26.445 48.394 33.242 70.389 3.47 10.138 4.693 20.702 6.207 31.205.632 3.776 4.13 5.93 7.863 8.466 13.433 9.448 31.568 12.284 46.915 6.122 5.867-2.255 11.323-5.494 15.671-10.057 4-5.216 10.033-1.566 14.732.864 16.328 8.248 30.93 21.38 36.433 39.42 5.641 19.46 5.8 40.022 5.937 60.091 24.758-.49 49.706-2.445 73.368-10.284 16.195-5.066 32.025-12.005 45.16-22.962 19.202-16.78 31.591-39.882 37.92-64.381 7.435-25.553 11.221-51.98 14.43-78.336 1.752-15.962 3.558-31.992 4.122-48.037 14.15-1.302 32.382-6.55 41-17-29.59-25.255-61.296-48.308-91-73.5 17.679-1.4 35.763.233 53.514-.5 12.324-.265 27.605.657 38.2-4.191 6.718-3.243 15.378-12.143 6.066-18.548-19.9-16.976-40.146-33.614-61.005-49.399-16.23-10.88-30.49-25.152-47.431-34.862-5.118 5.847-9.588 12.27-14.844 18-1.426-27.685.26-55.785-.5-83.544v-21.547c.271-5.124-.416-11.262.434-15.911-.006-3.406 6.135-3.348 8.238-4.463 9.454-2.743 19.032-9.668 25.328-16.035-38.075-28.972-77.08-56.994-115.5-85.5-16.957 17.162-32.537 35.552-49.602 52.602-4.807 6.184-10.985 5.955-17.719 5.398-20.333-.737-40.921.904-61.179-.5 19.988-9.82 40.588-18.385 60.361-28.676 9.761-6.274 25.416-8.482 33.959-12.51 9.542-4.703 18.323-14.154 18.68-25.314-60.792-6.405-121.206-16.603-182-23-.07 26.998-.764 54.005-1 81-40.148-14.77-80.73-29.283-120.5-45-2.185 32.142 1.185 64.866-1 97-18.263-15.462-34.673-33.195-52.427-49.264-7.222-5.591-12.972-12.809-19.96-18.648-6.1-4.59-11.52-12.01-17.21-16.068-2.615-2.045-6.086 3.393-7.878 4.455-9.118 9.15-18.281 18.242-27.382 27.403-6.464 6.667-13.2 15.529-20.25 20.485-16.077 1.764-32.56-.278-48.723.637-16.165-.709-32.581.876-48.67-.5 3.081-6.582 4.52-14.022 7.565-20.676 2.35-4.412 2.642-12.205 6.812-14.377 8.354-1.177 17.348-.863 24.855-5.626 7.46-3.374 11.061-10.792 14.768-17.321-4.698-3.188-12.967-3.49-19.18-6.044-46.098-11.841-91.624-26.096-137.82-37.456-2.63 20.7-6.658 41.18-10.629 61.648-2.067 10.303-4.692 20.493-6.786 30.778-.707 2.726-1.248 6.086-2.55 8.334-6.856 2.563-16.837.33-24.035 1.24-.845-12.114-4.486-23.799-7.835-35.378-1.73-5.941-3.843-11.83-6.19-17.553-.982-3.09-5.211-3.026-7.96-3.067-3.012-.005-6.009 0-9.015-.002-.205 15.749-9.327 29.622-19.991 40.46-9.492 9.263-20.167 17.29-32.336 22.7-18.281 8.986-42.51 24.838-44.618 51.854-1.735 18.592 4.997 38.378 21.748 48.46 22.873 14.074 55.34 12.758 75.722-4.718 19.477-17.466 30.255-48.403 31.475-71.756h15c-15.429 55.777-36.637 109.81-61.925 161.822-24.692 50.229-54.063 98.759-90.075 141.678M1150.5 825c3.292 4.659 3.562 12.937 6.269 19.08 1.125 8.37 8.484 7.238 14.213 6.92 44.604.76 89.494-.926 134.018.5-14.573 19.473-33.008 36.76-47 56.5h-129v1.5c2.04 9.996 5.796 19.55 8 29.5h207c11.46.029 22.951.283 34.362-.955 4.948-.575 10.79-2.2 14.553-4.882 4.377-2.34 6.442-8.375 8.085-11.663-27.466-26-59.024-47.162-89-70 14.677-1.378 29.787.212 44.536-.5 10.633-.217 22.184 1.342 32.006-3.879 5.099-3.036 12.914-10.38 6.192-16.755-16.593-14.268-33.639-28.01-51.251-41.006-11.944-8.748-23.455-18.323-35.483-26.86l1.688-.5H1420v205c26.757-.214 53.621-.428 80.21-3.528 24.688-3.015 48.731-11.344 70.79-22.472V770.002c-1.302-10.69 10.19-7.785 17.161-8.002H1753v1.5c-9.928 10.657-18.832 22.267-28.496 33.148-3.4 4.353-7.19 8.395-10.704 12.636-3.144 3.35-6.185 8.104-9.707 10.506-3.676 2.29-9.738.525-13.762 1.21H1591c1.648 10.212 6.352 19.783 8 30 57.607.76 115.478-.926 173 .5-9.939 12.347-20.472 24.385-30.563 36.635-3.98 4.537-7.69 9.296-11.63 13.865-1.487 2.133-3.306 3.894-5.42 5.382-44.307 1.762-88.998-.32-133.387.618 2.121 9.45 4.875 18.971 7.959 28.15 1.9 4.584 10.741 1.999 14.222 2.85h209.672c19.038.3 44.64 2.347 51.147-17.5-28.705-25.313-60.245-47.387-91-70l1.625-.5c14.442-.429 29.003.762 43.375-1-.871 4.49-3.1 9.468-4 13.563 3.932 3.677 9.38 7.776 15.162 4.557 5.56-2.28 11.052-4.731 16.583-7.078 28.523-13.318 56.351-28.037 83.208-44.485 13.22-8.042 26.136-16.476 38.76-25.416 5.783-4.263 15.897-3.096 23.869-5.37 7.335-1.846 17.37-5.016 20.418-11.271-39.763-34.91-75.785-75.178-116.667-108.5-18.57 20.31-39.82 38.16-57.858 58.95-3.831 5.052-7.95 7.782-13.93 7.05H1571v-52.8c.483-3.63-.875-8.868 1.436-11.373 7.03-1.591 14.572-.338 21.733-.827h289.98c11.478.314 24.997-1.938 29.851-16.5-18.984-16.72-39.637-31.549-60.32-46.057-10.326-7.233-20.678-14.43-31.104-21.509-5.072-3.729-10.388-7.105-15.6-10.617-4.743-2.938-9.723-7.678-14.664-9.317-18.465 20.485-36.659 41.21-54.836 61.95-4.458 3.756-7.973 11.314-13.425 11.838-211.658.605-423.388-.11-635.051.212 1.401 10.235 5.918 19.91 8 30h323v65h-255.6c-5.133-.294-15.647 2.207-17.229-5.904-2.902-8.904-5.767-17.84-9.387-26.475-2.157-4.153-3.278-9.048-6.18-12.765-4.21-1.46-9.731-.717-13.604.144.628 18.078-7.292 36.58-21.872 47.696-21.153 21.992-55.485 24.128-76.86 45.537-8.6 7.759-15.837 17.08-18.975 28.417-6.22 20.14-1.807 42.84 10.883 59.491 19.515 23.775 55.518 31.942 83.938 21.42 27.616-10.907 47.233-36.71 55.386-64.561M1000 2592.5c2.428 9.543 6.352 20.6 8 29.5h951c16.723-1.234 43.224 5.876 51-18-53.593-41.229-106.217-86.059-161.656-125-28.849 37.938-60.463 74.543-88.344 113h-182v-419h264c14.743-.16 29.502.199 44.241-.115 11.703-.574 25.867-2.119 30.759-17.416-24.242-20.98-49.839-40.323-74.859-60.336-25.495-19.327-50.617-39.632-76.641-58.133-23.317 28.964-46.268 58.282-69.523 87.3-6.114 6.826-11.898 18.376-20.756 17.7H1578v-341h349.2c12.577-.31 32.747.634 35.8-18-26.714-19.53-51.907-42.525-78.756-62.197-26.929-19.716-52.721-41.343-79.744-60.803-18.465 22.845-36.396 46.203-54.663 69.213-8.026 10.092-15.86 20.334-23.92 30.395-3.77 4.544-7.62 11.421-13.278 11.321-216.213.203-432.431-.037-648.639.071 1.84 10.17 5.813 19.902 8 30h333v341h-301v1.5c2.388 9.893 5.805 19.577 8 29.5h293v419h-405zM1152 821h97.8c8.906 1.07 12.921-5.09 17.453-11.08 12.524-16.366 27.973-31.189 39.747-47.92h-152c2.607 19.754.64 39.605-3 59m29 375.5c.03.55.186 1.057.5 1.5 4.624.808 8.694 3.561 13.184 4.819 7.132 2.15 14.847.605 22.148 1.181H1239c3.886-39.142 1.154-78.832 3.5-118 38.727 9.003 78.595 15.35 117.5 24 .662-11.688 2.246-23.311 3-35h-96c-7.191.39-15.949-.643-22.405.76-6.803 8.727-8.73 20.818-14.526 30.248-14.445 30.915-30.802 61.882-49.069 90.492m3 111.5h38v-74h-38zm0 107h38v-77h-38zm0 100h38v-70h-38zm376-103c2.529 24.739 5.085 49.69 1.115 74.542-.844 17.308-7.288 33.988-10.615 50.633 4.033 11.3 17.36 20.678 27.098 24.638 18.429 6.989 39.805.893 53.517-12.64 13.352-14.125 18.656-34.114 15.064-52.91-8.061-37.573-38.118-64.867-69.077-84.534-5.103-3.602-11.181-.286-17.102.271m67 810.375c32.237 40.186 57.514 85.956 74.758 134.547 6.446 19.384 12.397 39.084 15.979 59.23 1.933 8.85 3.064 17.813 4.331 26.768.815 4.087 4.935 5.962 8.08 8.24 25.459 19.185 59.92 27.835 90.515 16.087 22.117-7.909 39.697-26.1 48.851-47.608 6.575-16.728 10.209-34.891 6.91-52.807-4.346-26.184-18.383-50.166-36.899-68.807-18.052-18.512-40.36-32.395-63.326-43.872-23.144-10.779-47.263-19.284-72.188-24.914-13.164-3.217-26.508-5.548-39.807-8.057-6.65-1.038-13.31-1.98-19.963-2.943-3.197-.539-6.391-.962-9.62-.705-2.072 1.37-5.03 3.427-6.86 4.289-.3.112-.54.346-.761.552M1629 1108h144v-45h-144zm0 78h144v-48h-144zm0 73h208.2c5.444-.504 11.44.846 16.645-1.024 5.016-5.677 9.668-11.661 14.522-17.469 3.871-5.96 11.264-11.933 13.133-17.507-16.2 6.65-33.636 11.269-50.779 15.053-18.928 4.441-38.427 4.224-57.721 3.947v-26h-144zm0 73h144.6c24.219-.155 48.41.188 72.61-.102 5.423-.46 8.495-5.649 12.409-8.894 6.207-5.03 11.692-10.85 17.386-16.428 5.983-5.027 11.605-10.418 16.995-16.076-87.828-1.426-176.082.26-264-.5zm126-569.625c25.195 21.559 53.618 39.565 78.5 61.625h1.5c3.224-20.75 10.055-41.005 12-62h-92z" style="fill:#000;fill-rule:evenodd;stroke:none"/></svg>