<svg xmlns="http://www.w3.org/2000/svg" width="3000" height="3000"><path d="M1046 2183c80.607.76 161.478-.926 242 .5-16.53 28.646-33.914 56.865-51.774 84.697-13.487 20.167-25.729 41.173-40.122 60.742-10.253 15.432-21.477 30.16-32.295 45.172-2.765 4.018-.337 6.198 3.14 7.355 24.26 12.543 50.975 20.25 78.004 23.713 14.35 1.678 28.845 2.084 43.237 1.059 6.37-.83 14.216-1.441 19.7-3.741 4.909-3.959 7.575-10.331 11.72-15.028 9.54-14.87 21.29-28.792 29.39-44.469 10.286.857 21.612 6.124 30.695 8.393 31.059 10.855 63.233 19.795 93.305 33.107-57.374 48.414-126.831 80.106-196.864 105.285-36.747 12.48-73.66 24.505-111.308 34.025-19.585 5.234-39.27 9.98-59.02 14.492-18.555 5.495-38.569 7-56.808 13.198.542 3.314 2.198 7.627 3.915 11.21 2.757 2.657 9.313.298 12.515.754 75.63-5.182 150.966-14.155 225.856-25.656 73.827-12.109 147.487-28.811 216.438-58.506 28.262-12.21 56.214-26.1 81.776-43.302 39.76 20.188 78.667 42.398 116.533 66.013 13.365 9.069 27.299 17.23 40.428 26.636 23.726 17.738 50.125 35.835 81.31 35.337 22.86 1.149 46.481-3.493 64.932-17.868 13.122-10.019 22.844-25.176 23.973-41.884.855-26.06-14.339-49.05-33.486-65.27-18.77-15.689-39.697-28.98-61.961-39.066-44.603-21.324-92.32-35.054-140.229-46.398 37.98-46.883 64.112-102.102 86.143-157.88 2.393-5.219 2.809-13.328 10.848-12.607 50.457-.038 100.936.008 151.383-.013 8.885.143 18.582.619 26.467-4.427 3.052-2.148 6.092-5.861 6.732-9.286.408-6.687-9.123-11.428-13.99-16.429-21.182-17.739-43.385-34.198-65.131-51.218a60825 60825 0 0 0-24.96-19.286c-3.668-2.844-7.038-6.134-10.953-8.665-3.184-2.387-6.912-5.82-10.706-6.207-11.47 10.796-19.7 25.006-30.07 36.843-7.612 9.133-14.727 18.629-22.16 27.896-5.646 6.969-10.739 14.448-16.965 20.902-7.412 1.726-15.447.32-23.004.877H1468c10.188-20.416 23.553-39.435 33.689-59.968 3.501-4.484 5.004-12.314 9.674-14.564 15.415-1.477 38.865-3.14 42.637-26.468-33.908-6.816-68.102-12.572-102-19.5 83.222-1.368 166.582.647 249.826.004l187.742.412c11.789-.005 23.584.089 35.362.057 9.545-.303 20.664-.89 27.734-8.302 2.772-2.872 5.254-8.504 1.536-11.607-26.31-22.168-53.752-42.91-80.869-64.064-10.257-7.85-20.701-15.439-31.105-23.082-2.305-1.315-5.523-4.455-7.982-3.043-15.025 15.54-26.66 34.352-41.002 50.557-5.108 6.396-10.223 12.79-15.328 19.178-4.27 5.756-7.921 12.786-17.462 11.39-57.41-.76-115.115.926-172.452-.5 31.465-18.953 60.078-42.26 88.827-64.99 14-12.11 28.58-23.608 41.797-36.578 7.22-6.193 14.002-12.826 20.609-19.665l10.137-10.137c2.627-3.169 7.698-6.71 8.63-10.13 13.453.907 35.563-3.884 36-23-52.062-10.8-103.971-22.563-156-33.5 57.215-1.426 114.6.26 171.842-.5h92.927c7.848.208 16.332-.02 23.048-4.757 5.788-3.788 10.633-12.074 2.185-17.238-20.443-17.349-41.373-34.088-62.976-49.98-8.023-6.03-15.813-12.376-24.057-18.101-7.172-5.145-14.025-10.752-21.44-15.54-4.171-3.214-7.005.945-9.352 3.824-18.299 22.164-36.234 44.639-54.537 66.797-5.048 7.875-13.419 6.01-21.586 5.995H1569v-85.8c.17-2.552-.24-5.866.982-7.981 7.398-3.15 16.773-3.015 23.378-8.393 6.794-5.096 10.657-13.378 10.64-21.826-59.401-2.726-118.605-9.04-178-12v136h-355v1.5c2.87 9.098 5.3 18.366 8 27.5h178c18.766 35.331 33.631 73.05 40.793 112.615 2.05 10.043 3.537 20.104 4.11 30.328.94 7.998 1.21 16.043 1.128 24.078-.444 5.672 5.822 9.196 9.656 12.315 12.085 9.345 29.189 17.697 43.313 19.164-103.97 1.426-208.025-.26-312 .5 1.873 9.835 6.07 19.164 8 29 105.607.76 211.478-.926 317 .5-13.524 27.745-28.06 55.229-42.896 82.328a1383 1383 0 0 1-17.241 30.545c-1.18 2.07-2.469 4.132-4.223 5.748-10.785 2.118-22.24-.068-33.183.879H1038c1.593 9.899 5.688 19.275 8 29m170.5-1185c18.548 49.219 33 100.45 50.4 150.181 7.203 22.201 14.231 44.453 21.84 66.522a22545 22545 0 0 1 10.33 31.031c3.273 10.347 7.736 20.529 6.936 31.422.002 45.886-.992 91.761-1.517 137.632-.366 20.068-.592 40.14-.489 60.2-1.721 19.57 17.307 30.204 30.925 36.346 30.819 11.915 64.144 15.832 96.695 19.807 59.01 4.906 118.728 3.913 177.389-4.308 20.795-3.197 41.464-8.055 60.674-16.76 7.758-3.672 16.382-9.614 21.002-16.075 6.438-8.29 5.506-16.932 5.315-26.015-.001-35.632-.967-71.265-1.269-106.892-.33-26.502-.78-53.01-.731-79.505-.903-17.878 6.604-34.395 12.07-51.32 16.212-50.42 33.452-100.523 49.698-150.92 9.795-26.838 17.092-54.9 27.732-81.346 18.516 3.643 38.955 1.107 54.398-10.296 14.852-10.321 24.839-26.612 26.691-44.63 2.36-17.946.164-37.146-11.47-51.778-10.633-14.098-26.933-23.589-44.511-25.495-17.906-2.413-36.903 1.724-51.5 12.496-14.123 10.35-23.71 27.048-25.172 44.5-1.7 12.467.532 25.173 5.283 36.74 4.233 9.506 10.513 21.466 21.781 27.463-.576 4.405-4.635 9.305-6.89 13.941-19.634 32.5-38.613 65.374-58.11 97.95-19.05 32.42-38.461 64.705-57.5 97.109 6.84-91.882 19.286-184.006 26.5-276 35.799.58 69.441-32.026 67-68.38.66-18.42-7.37-36.405-20.239-49.352-12.5-13.306-30.834-18.427-48.5-17.268-36.875-1.294-68.683 33.931-64.907 70.189.217 25.785 16.892 50.567 41.646 58.811-1.84 11.763-7.704 22.652-10.557 34.173-26.244 78.528-51.702 157.316-77.943 235.827-11.506-79.303-18.79-159.472-29.538-238.947-1.848-15.169-3.83-30.316-5.521-45.5-.687-3.722-.832-7.446-.982-11.184.912-2.89 6.438-2.769 8.486-4.195 25.5-7.984 44.457-33.239 44.98-59.818 2.21-23.746-9.19-47.06-29.237-59.918-17.407-11.566-40.495-13.415-60.255-7.388-16.461 5.457-30.31 18.175-38.198 33.45-7.076 14.06-7.63 33.485-4.271 47.233 2.46 13.306 10.774 24.34 20.502 33.195 8.093 8.776 19.495 12.221 30.263 16.007 2.038 1.667-.01 6.077.355 8.153-9.74 82.46-20.104 164.818-29.881 247.267-2.432 13.328-2.442 29.646-5.703 41.645-15.203-44.914-29.906-90.08-44.7-135.135-7.744-22.586-14.86-45.38-22.357-68.038-3.73-11.179-7.426-22.363-11.183-33.53-2.793-10.886-8.773-23.07-10.26-33.297 12.667-4.1 23.336-13.302 30.855-24.067 7.697-11.696 10.972-25.532 11.013-39.41.98-36.168-32.479-68.52-68.836-65.523-36.35-2.17-67.894 34.212-65.032 69.39-.93 34.411 30.838 64.806 64.603 65.557.801.037 1.61.044 2.397.053 7.204 92.04 19.664 184.034 26.5 276-20.526-34.784-41.244-69.49-61.728-104.29-10.385-17.34-20.545-34.8-30.918-52.142-5.333-8.587-10.293-17.386-15.46-26.06-3.994-8.79-12.308-17.776-14.394-26.508 16.145-7.235 25.367-32.097 26.895-45.23 2.67-18.098-1.654-37.333-13.133-51.738-10.483-14.224-27.373-22.82-44.752-24.434-35.442-5.81-73.946 21.85-75.01 58.843-.943 18.106 1.588 37.564 14.514 51.52 11.073 13.194 27.555 22.741 45.214 23.013 7.254-.076 14.62.468 21.772-.974m-55.435-75.271c-.191 13.142 11.796 24.538 24.616 23.824 12.286-.93 22.43-12.636 21.173-25.081-.164-12.52-12.974-22.823-25.267-20.596-10.648.896-20.817 11.72-20.522 21.853m136.035-78.495c.172 12.69 11.686 24.057 24.145 23.635 12.446-.297 22.686-12.037 21.68-24.393-.042-12.5-12.232-22.75-24.458-21.349-10.966.653-21.26 10.627-21.367 22.107m3.9 962.016c47.745 13.504 99.251 34.345 127.616 78.26 13.459 22.52 17.916 51.056 6.748 75.496-9.876 24-33.324 42.114-59.364 44.494 61.625 1.426 123.367-.26 185 .5 9.545-31.828 16.715-64.421 23.102-97.05 5.539-33.913 13.243-67.63 15.898-101.95-99.62.38-199.434-.463-299 .25m37.5-362.25c24.698-8.046 51.158-10.463 76.872-13.23 42.107-4.18 84.537-4.41 126.794-2.942 40.145 2.894 81.63 4.141 120.334 16.172.999-3.45.293-8.42.048-11.29-.522-3.453-6.976-3.686-9.352-4.902-33.625-8.274-68.39-11.05-102.77-14.082-36.661-3.156-73.587-1.698-110.201.752-17.286 1.469-34.537 3.309-51.703 5.791-16.937 2.676-34.433 4.515-50.522 10.731.248 4.06-.394 9.722.5 13m.5-57c52.937-14.34 108.274-18.573 162.98-18 53.71-.023 107.89 4.88 160.02 18v-15c-25.732-7.555-52.696-10.697-79.316-13.658-41.329-4.15-83.034-6.873-124.517-3.355-39.964 3.221-80.29 6.918-119.167 17.013zm1-58c51.82-14.633 105.968-18.733 159.598-18 27.873-.789 55.686.609 83.406 3.299 26.378 2.295 52.782 6.462 77.996 14.701v-15c-52.185-14.203-106.916-17.141-160.672-19-27.4.303-54.822 2.243-82.085 4.862-26.225 3.462-52.922 6.184-78.243 14.138zm27 986.375c34.388 2.951 69.848 3.414 104.355 7.277 17.228 1.078 34.34 3.25 51.495 4.997 8.211 1.559 13.276-8.33 17.36-13.91 4.326-6.175 9.049-12.133 12.821-18.67 22.022-34.697 39.793-72.504 50.969-112.069h-84.6c-21.21.02-42.429-.023-63.627.013-7.451-.688-10.864 8.485-14.132 13.756-24.42 39.738-49.076 79.712-74.641 118.606m92.269-1502.41c.3 13.144 12.295 24.97 25.575 23.776 12.278-1.332 21.986-13.317 20.715-25.621-1.142-13.037-14.181-22.228-26.71-19.834-10.727 1.272-19.022 11.038-19.58 21.68m163.768 31.296c-.238 12.784 11.648 24.465 24.246 23.62 12.278-.563 22.312-12.336 21.546-24.437-.47-12.691-12.498-22.902-24.93-21.35-11.122.238-21.36 12.046-20.862 22.167m135 79c-.21 12.735 11.723 23.527 23.917 23.228 12.102-.648 22.42-11.956 21.939-24.063.163-12.784-11.987-23.073-24.392-21.876-11.473.7-21.844 10.642-21.464 22.711" style="fill:#fff;fill-rule:evenodd;stroke:none"/><path d="M407 2715h2186c-110.539-672.045-224.255-1343.735-335.448-2015.7-7.021-42-13.992-84.001-21-126-1.697-9.995-3.31-20.009-5.015-29.99-1.448-5.044-.832-12.003-3.96-15.528-76.243-26.577-153.757-51.077-230.278-77.177-134.483-44.879-269.004-89.635-403.48-134.505-25.332-8.389-50.626-16.918-75.954-25.3-5.917-1.536-12.636-4.925-18.277-5.3-93.44 29.594-186.049 62.334-279.322 92.571-139.474 46.507-278.96 93.003-418.44 139.486-8.804 3.003-17.696 5.81-26.461 8.89-4.891 1.307-5.283 6.555-5.858 10.493-21.164 127.083-42.351 254.18-63.537 381.259C606.88 1517.176 505.406 2115.971 407 2715m632-559.75c3.052 8.635 5.021 18.013 8 26.75 80.929.76 162.151-.926 243 .5-18.997 33.878-40.044 66.635-60.902 99.373-21.229 32.412-42.631 64.78-66.098 95.627 27.92 16.694 66.181 25.87 95.7 27.777 9.292.798 18.582.95 27.864-.008 6.292-.722 13.906-1.415 19.414-3.349 3.633-1.516 5.917-6.765 8.793-10.124 7.529-10.943 15.543-21.57 22.698-32.76 3.89-6.085 7.861-12.16 12.031-18.036 21.027 6.05 41.904 12.696 62.673 19.557a1864 1864 0 0 0 31.582 10.948c10.508 3.371 22.381 9.197 32.245 11.495v2c-58.882 46.663-127.145 81.547-198.37 105.612-36.901 12.544-73.99 24.627-111.803 34.198-19.584 5.234-39.27 9.98-59.018 14.492-18.514 5.523-38.644 6.978-56.809 13.198 1.649 2.615 1.92 6.094 3.93 9.224 5.507 2.758 11.737-.397 17.675.195 5.764-.566 11.57-.857 17.347-1.213 104.356-9.389 209.17-20.315 310.93-46.442 36.816-9.359 72.996-21.184 107.845-36.357 14.643-6.523 29.526-12.78 43.402-20.871 13.206-6.16 25.34-15.314 38.337-21.54 26.034 10.513 49.931 26.388 74.67 39.595 21.284 12.35 42.115 25.474 62.751 38.836 17.98 10.76 34.13 24.312 52.134 34.975 33.117 20.621 84.514 18.197 112.682-3.784 11.181-8.517 19.968-20.678 22.98-34.518 5.016-26.48-11.652-51.166-29.795-68.184-27.683-24.828-61.583-41.529-95.887-55.026-35.772-13.278-72.368-25.68-110.001-32.39v-1.5c27.967-33.736 49.223-72.705 67.48-112.394 7.042-15.03 13.204-30.526 19.449-45.891 1.463-3.676 2.545-7.53 4.495-10.993 1.652-3.538 8.573-1.496 11.35-2.222h129.248c10.424-.328 20.887.431 31.294-.308 6.708-.834 15.829-3.442 18.8-11.925 1.352-3.223-2.05-6.231-4.33-8.139-19.255-16.457-39.314-31.984-59.412-47.372-20.167-15.134-39.657-31.226-59.874-46.256-19.774 23.898-38.359 48.781-57.894 72.881-3.71 4.507-7.103 9.577-11.419 13.466-50.498 1.861-101.382-.338-151.956.653-50.313-.76-101.033.926-151.231-.5 12.483-19.162 23.228-39.724 34.623-59.585 2.95-4.694 5.948-11.78 9.046-15.226 2.923-3.065 10.497-.768 14.062-2.284 13.355-1.28 26.678-10.014 30.269-23.405-36.464-7.737-73.713-13.14-110-21.5 87.006-1.405 174.318.651 261.395.008l131.335.29 65.966.146c10.852-.155 21.738.527 32.531-.826 10.873-.26 17.729-5.877 21.773-14.618-39.02-32.563-79.354-63.709-120.5-93.5-14.617 16.548-27.199 34.825-41.454 51.68-5.1 6.435-10.274 12.793-15.371 19.226-2.316 2.712-4.339 5.692-6.756 8.305-4.851 4.645-14.837 1.863-22.048 2.789H1585.5l-1.5-.5c32.097-19.21 61.373-42.83 90.644-65.995 14.198-12.41 29.22-23.919 42.603-37.216a298 298 0 0 0 20.623-19.66l10.105-10.104c2.705-3.317 8.046-6.969 9.025-10.525 13.07.64 33.65-3.127 36-21-55.111-11.24-109.94-24.018-165-35.5 58.488-1.426 117.088.26 175.606-.5h94.765c8.472.158 17.574.624 25.18-3.938 3.003-1.801 6.523-5.298 7.399-8.069 1.477-6.42-8.682-10.47-12.91-15.509-20.08-17.14-41.23-32.935-62.367-48.724-7.765-6.406-16.051-12.1-24.134-18.07-3.607-2.676-7.263-5.284-10.895-7.906-1.493-.99-3.606-2.525-5.1-2.217-21.124 23.428-39.56 49.246-60.258 73.062-2.732 4.293-6.818 4.74-11.234 4.371H1568v-76.2c.117-6.04-.291-13.254.523-18.728 1.77-3.145 8.55-1.947 11.187-3.852 12.621-2.123 22.371-12.33 23.29-25.22-29.336-1.017-58.594-4.167-87.898-5.844-29.383-1.92-58.73-4.18-88.102-6.156v136c-118.264.76-236.81-.926-355 .5 3.607 8.357 4.897 17.919 8 26.5h178c13.164 27.236 26.96 54.7 34.107 84.4 6.565 23.338 10.44 47.34 11.792 71.515.381 4.659-.3 10.208.565 14.426 19.949 23.596 57.03 35.515 86.76 24.41 30.926-10.238 51.288-42.47 49.288-74.598-2.737-34.883-26.966-63.452-55.413-81.428-28.044-18.874-60.428-30.285-93.099-38.225 102.938-1.426 206.041.26 309-.5-2.06 34.825-10.409 68.974-15.786 103.339-6.352 32.864-13.663 65.608-23.214 97.661-172.264.76-344.81-.926-517 .5 3.643 8.36 5.232 17.802 8 26.5 105.929.76 212.151-.926 318 .5-13.79 27.918-28.09 55.78-43.197 83.041-5.54 10.331-11.31 20.514-17.23 30.63-2.19 4.428-4.824 8.717-11.195 7.827-86.804.006-173.588-.001-260.378.002zM1761 987.5c-19.665 36.457-42.66 71.27-63 107.393-21.139 35.7-42.379 71.43-63.5 107.107 8.034-94.246 19.373-188.673 27.5-283 35.768.578 69.434-32 66.996-68.336.221-18.108-8.191-35.618-20.978-48.124-12.479-12.79-30.397-17.722-47.728-16.532-35.88-.051-66.927 34.637-62.77 70.208.934 12.95 4.884 26.15 13.3 36.32 6.933 10.79 18.67 15.892 29.18 21.964-31.07 91.472-60.02 184.12-91.5 275.5-10.077-80.48-19.169-161.303-29.332-241.814-1.745-15.525-3.892-30.997-5.589-46.525-.273-6.175-4.447-15.541 4.521-17.553 25.893-7.09 46.176-31.668 47.692-58.428 2.65-23.996-9.286-47.67-29.517-60.52-17.65-11.582-41.05-13.195-60.72-6.134-16.09 6.28-29.46 19.156-36.472 34.925-6.44 15.017-6.337 32.2-1.88 47.66 3.943 13.096 12.86 24.102 23.79 32.109 4.508 3.531 9.556 6.473 14.968 8.394 4.13 1.738 12.964 2.256 11.731 8.958-10.1 85.603-20.888 171.095-31.016 256.681-2.092 14.033-2.961 28.272-5.176 42.247-31.477-91.382-60.436-184.063-91.5-275.5 10.082-5.942 21.684-10.635 28.411-21.058 12.157-13.883 16.325-36.592 13.513-52.847-2.613-18.488-14.083-34.54-29.649-44.435-15.041-9.753-34.634-12.95-52.089-8.708-16.73 3.722-30.896 15.488-39.702 29.88-9.014 15.128-12.238 33.751-7.887 50.986 3.733 17.155 15.754 31.287 30.261 40.598 9.932 6.917 24.247 9.99 35.142 10.084 8.118 94.331 19.478 188.756 27.5 283-21-35.514-42.102-71.032-63.131-106.529-20.723-36.077-42.98-71.278-63.369-107.539 18.957-13.444 30.631-37.677 28.246-61.152-.801-23.694-16.704-45.502-38.06-55.072-16.646-6.906-35.812-7.673-52.655-.868-15.687 6.595-29.398 18.494-36.027 34.475-6.333 16.351-5.736 38.477.177 53.389 6.146 15.735 19.298 28.342 34.787 34.864 8.48 3.761 17.618 5.013 26.827 4.432 4.554.231 9.852-.558 14.003-.433 2.24-.457 2.929 3.763 3.743 5.059.64 2.052 1.388 4.043 2.022 6.083 9.582 27.89 18.488 55.988 27.676 83.991 11.916 35.071 23.28 70.291 34.818 105.474 5.107 15.34 10.207 30.689 15.343 46.007 2.601 7.227 4.78 14.591 6.95 21.95.738 65.475-1.84 131.462-1.85 197.047.248 6.192-.423 13.576.523 19.211 2.382 10.62 13.075 19.104 21.306 23.51 18.18 9.898 38.738 13.76 58.793 17.708 37.527 6.79 75.622 9.778 113.742 9.393 28.229-.012 56.519-.84 84.576-4.031 20.114-2.289 40.27-5.123 59.764-10.752 13.96-4.246 28.074-9.207 39.674-18.363 10.77-8.29 12.482-19.324 11.622-31.074-.005-37.031-1.038-74.026-1.329-111.053-.244-23.17-.688-46.357-.671-69.517.006-9.566-1.36-19.274 1.936-28.4 20.504-64.023 42.597-127.542 63.134-191.54 5.347-15.994 10.656-32.017 16-48.004 2.038-5.975 3.943-11.999 6.024-17.948 1.454-7.05 9.175-4.392 14.535-4.335 19.829 1.62 39.697-5.447 52.74-20.853 14.69-13.81 17.789-34.816 16.542-53.807-1.308-22.377-16.9-41.926-36.728-51.189-15.67-6.974-33.576-7.757-49.867-2.666-23.392 6.806-41.99 29.299-44.267 53.552-4.322 24.062 10.064 52.322 27.951 64.48m-600.98-64.615c-.644 13.954 12.1 25.73 25.63 24.822 13.094-.518 23.584-12.635 22.285-25.826.455-13.407-12.491-24.105-25.58-22.35-11.648.936-22.779 10.91-22.334 23.354m136.017-78.624c-.3 13.638 12.119 25.584 25.444 24.674 14.61-.459 23.348-12.843 22.482-25.675.396-13.817-13.158-24.073-26.238-22.157-11.603.578-21.939 11.193-21.687 23.158M1337 1445c52.592-13.39 107.403-16.43 161.462-17 28.352-.207 56.682 1.16 84.903 3.712 27.227 1.805 54.278 6.5 80.635 13.288-.16-5.884 1.512-14.652-4.277-16.52-5.503-1.86-11.22-3.06-16.85-4.413-25.124-5.038-50.687-7.642-76.156-10.11-39.489-3.177-79.304-4.366-118.79-1.081-18.77 1.09-37.41 3.44-56.043 5.786-18.379 2.827-37.398 4.686-54.884 11.338zm1-56c52.776-15.717 108.46-18.947 163.183-19 28.052-.403 56.01 1.784 83.894 4.4 26.342 2.525 52.582 6.976 77.923 14.6v-18c-25.732-7.555-52.696-10.697-79.316-13.658-41.54-4.163-83.49-6.936-125.195-3.415-40.42 3.149-81.179 6.91-120.489 17.073zm1.5-58c51.722-16.545 107.212-18.873 161.096-19 54.135-.28 109.151 3.075 161.404 18v-17c-25.842-7.585-52.756-10.91-79.43-14.098-41.649-4.28-83.64-6.487-125.457-3.25-19.96 1.128-39.939 2.826-59.723 5.642-19.651 2.804-39.454 5.685-58.39 11.706.549 5.765-.716 12.796.5 18m25.5 985.625c54.538 3.858 110.38 5.488 164.5 13.375 35.617-43.308 60.454-94.538 76.5-148h-86.4c-21.61.02-43.23-.023-64.827.013-7.526-.637-11.003 8.79-14.344 14.127-12.51 20.6-24.929 41.266-38.108 61.432-12.106 19.717-24.883 39.766-37.321 59.053m93.153-1503.62c-.07 13.928 12.39 26.067 26.358 24.88 13.325-.646 23.53-13.53 22.216-26.57-1.303-15.292-14.464-22.932-27.572-21.168-11.323.823-21.241 11.24-21.002 22.859m163.857 31.427c-.71 13.73 12.103 25.758 25.503 24.502 13.19-.182 23.466-12.848 22.397-25.62-.09-13.483-12.638-23.926-25.665-22.279-12.01-.073-22.861 11.346-22.235 23.397m135 79c-.66 13.566 12.206 25.008 25.255 24.197 12.978-.48 23.593-12.542 22.68-25.397-.002-14.691-12.308-23.49-25.046-22.866-11.012.391-23.758 9.906-22.89 24.066" style="fill:#000;fill-rule:evenodd;stroke:none"/></svg>