<svg xmlns="http://www.w3.org/2000/svg" width="3000" height="3000"><path d="M1043 1036c18.719-.552 37.474-6.27 56-7.5-23.566 27.974-34.559 70.79-41.325 102.668-7.232 38.989-10.639 79.42-4.675 118.832 4.404-.473 7.774-6.153 11.988-8.784 11.359-8.976 21.022-21.056 33.012-28.966-5.751 31.653-6.417 64.338-1.414 96.109 2.386 15.261 9.962 31.85 13.383 45.5 4.88 15.74 4.407 32.151 2.031 48.141 18.104 1.222 28.649-10.198 38.5-22 10.083 31.122 24.15 61.563 44.232 87.632 10.028 13.127 20.865 25.932 33.663 36.492 6.083 5.416 12.42 10.473 19.225 14.935 6.163 3.578 14.3 10.154 20.38 10.941 1.966-12.318 4.564-26.93 7.5-38 10.461 24.623 24.81 47.68 41.648 68.412 9.128 10.447 19.129 20.034 30.218 28.469 10.037 7.728 23.263 17.49 35.634 17.119.639-11.238-.805-22.884.5-34 18.142 16.848 40.436 28.398 59.648 43.888 10.38 7.472 18.88 16.871 27.437 26.224 4.28 4.589 8.068 9.603 12.241 14.28 4.003 4.149 7.58 11.58 13.174 11.608 36.399-51.849 94.822-82.68 148.5-113 .235.488.42.967.5 1.5-5.168 6.17-8.512 17.15-9.58 26.488-.562 5.001-.265 10.181 2.001 14.756 1.839 5.613 6.684 5.83 10.527 1.952 8.213-6.527 15.88-13.732 23.85-20.531 10.225-9.126 20.426-18.272 30.304-27.767 15.329-14.832 30.33-29.99 43.919-46.428 12.384-15.613 28.96-34.528 32.979-52.97h2c6.236 16.189 17.3 30.523 23 47 4.271.14 6.759-4.74 8.864-7.747 2.193-3.28 3.926-6.805 5.837-10.247 28.371-54.993 43.244-115.93 55.799-176.006 3.885 6.23 9.7 11.161 13.872 17.214 2.43 3.01 4.83 6.055 7.32 9.009 2.342 2.773 4.91 6.658 8.308 6.777 10.366-32.931 17.338-67.187 15.996-101.911-.245-34.575-6.459-69.156-11.496-103.089 12.724 12.227 29.086 22.934 47.5 22-.529-5.518-4.885-12.032-7.08-18.15-18.151-39.587-27.924-83.551-53.92-119.35 10.154-.91 22.578 1.48 31.784 2.752 4.93 1.085 9.926 1.833 14.786 3.177 4.747 1.379 9.401 3.557 14.43 3.571 1.047-37.682-4.894-76.423-23.784-109.628-15.134-32.07-42.405-58.666-76.216-69.872 10.182-13.022 23.082-25.058 27.56-41.693 5.09-17.503 3.931-39.677.44-55.807-6.297.75-12.916 6.896-19.556 9.876-9.749 5.466-19.854 10.433-30.042 15.01-10.3 3.698-20.6 9.921-31.402 11.614 16.903-25.01 32.737-52.282 38-82.5-12.23 2.725-22.986 10.175-34.805 14.11-34.453 14.241-68.866 30.354-103.195 44.39 5.89-18.18 11.488-37.064 21.186-53.875 4.184-8.245 9.085-16.1 13.603-24.15 2.625-4.053 5.235-8.12 7.704-12.262 2.604-3.553 5.747-8 5.507-12.213-32.95-6.937-68.322-9.756-100.721 2.08-29.451 10.304-55.669 28.278-78.779 48.92-.245-23.488 16.92-43.236 22.5-65-22.308 2.76-44.584 10.718-61.461 26.004-15.92 14.914-29.447 32.332-39.039 51.996-9.018-15.338-24.066-30.952-38.444-38.826-27.355-13.821-58.556-14.079-88.27-16.457-14.356-2.014-29.226-2.398-42.85-7.876-6.608-2.447-14.003-6.285-19.563-9.563-5.73-2.172-11.365-9.362-16.373-10.278-3.52 13.99-4.394 31.924-.26 44.692 4.043 13.699 13.116 25.125 23.26 34.808-22.373.806-45.294-4.174-67.377-7.666-10.967-2.652-22.138-4.716-32.822-8.4-5.148-1.804-10.4-3.321-15.473-5.31-4.92-1.665-10.492-4.82-15.328-5.124-5.813 16.277-5.467 34.77 3.173 50.063 8.11 13.78 18.703 26.048 29.827 37.437-37.19 1.26-75.103-4.625-110.949-13.968-6.33 6.218-6.129 19.777-5.358 26.348 1.857 27.31 21.244 48.465 36.307 69.12-23.054 6.275-42.024 22.978-56.658 41.085-15.147 19.043-23.439 42.58-27.59 66.318-1.63 10.745-3.562 21.498-4.095 32.36-.894 10.795-.29 23.467-1.657 33.237m16 1541c18.05-.348 36.173.753 54.15-1.213 23.641-2.709 46.206-11.737 64.756-26.736 4.359-3.174 9.446-7.807 9.073-14.694.06-20.118-.011-40.238.021-60.357 23.186.245 46.37-.298 69.539.161 6.323.124 3.993 10.664 4.461 14.547V2540c19.47.4 39.097.71 58.178-3.827 13.346-2.896 26.658-6.112 39.563-10.599 9.06-3.402 20.257-6.93 27.334-12.522 4.986-5.28 1.84-16.161 2.925-23.975V2250c7.293-1.048 15.496-4.353 21.47-7.386 5.381-3.969 14.24-8.128 14.53-14.614-38.519-26.436-74.74-57.322-113.02-84.351-5.405-4.603-11.027 4.484-13.888 7.478-14.114 15.682-29.416 30.257-43.201 46.223-3.956 5.378-9.527 4.916-15.152 4.65H1187v-136h64.2c5.02-.312 11.453-.768 10.778 6.396.062 15.87-.011 31.736.022 47.604 19.47.4 39.097.71 58.178-3.827 13.505-3.013 26.882-6.607 39.987-11.073 9.125-3.363 20.7-6.53 27.733-12.38 3.36-2.201 1.422-8.994 2.102-12.095V1868c9.378-.656 19.472-5.776 26.557-10.343 3.074-2.45 9.246-6.239 8.875-10.102-3.144-3.229-6.745-5.903-10.406-8.53-9.742-7.205-19.36-14.555-28.941-21.952-16.671-12.54-33.133-25.369-49.96-37.7-7.767-4.982-16.273-13.902-25.259-18.474-4.957-1.991-8.72 6.608-11.968 8.703-3.878 3.596-7.4 7.49-10.721 11.58-9.03 10.297-19.16 19.563-28.085 29.945-2.342 2.56-4.647 5.217-7.425 7.303-4.055 3.136-12.452.527-17.001 1.57-5.468-.613-11.315.78-16.666-.5 18.109-21.553 35.937-43.36 53.748-65.157 6.405-8.235 13.145-16.219 19.415-24.556 5.783-7.066 10.977-14.607 16.651-21.748 4.905-5.172 15.693-3.623 22.803-7.751 6.501-2.664 13.357-8.304 15.969-14.335 1.057-2.569 2.591-5.841 1.74-9.191-1.37-2.399-6.25-1.657-8.452-2.601-42.223-6.93-84.39-14.146-126.575-21.27-15.137-1.903-30.06-5.89-45.299-6.891.231 27.009.402 53.984-.05 80.968.008 26.691-1.663 53.36-1.95 80.032-18.155-5.792-35.682-13.632-53.735-19.764-9.18-3.556-18.459-6.893-27.652-10.379-8.642-2.534-18.346-7.88-26.613-8.857zm302-1227c.775 10.763 1.01 21.588 3.587 32.141 7.414 34.832 28.426 66.228 57.792 86.364 29.963 21.39 69.972 28.668 105.412 17.794 37.8-10.598 68.765-40.167 85.174-75.224 4.17-9.158 7.454-18.817 9.463-28.69 1.804-7.988 2.9-16.102 3.194-24.277-.466-6.371 3.008-9.887 8.315-12.144 13.798-8.588 27.306-17.6 40.179-27.544 39.03-29.81 73.548-66.142 98.457-108.656 19.064-33.235 32.987-70.982 32.427-109.838.223-15.294-1.12-30.66-5.138-45.451-2.638-7.493 1.155-12.332 6.628-16.42 16.72-14.149 31.63-35.855 41.152-53.326 8.017-15.784 14.714-33.55 12.972-51.638-2.538-26.039-22.719-48.966-47.812-55.97-25.654-8.003-52.514-.226-75.395 11.778-9.09 5.366-18.786 9.883-26.84 16.861-3.874 2.929-7.87 5.752-11.17 9.342-7.421 8.562-15.259.812-23.785-1.648-31.282-11.085-66.026-13.641-98.397-6.038-15.297 3.351-32.94 8.956-45.99 14.973-6.574 3.206-12.826 6.982-18.893 11.039-5.411 4.848-14.197 9.419-16.332 15.572-6.481-.524-11.316-9.447-17.624-13.104-47.8-33.976-113.211-41.453-167.952-22.056-4.998 1.602-10.534 4.76-15.272 5.66-5.668-.463-8.038-6.313-12.526-8.993-15.149-12.602-32.52-22.336-50.8-29.568-16.826-6.998-35.626-9.275-53.447-4.914-30.313 6.262-53.769 35.721-52.037 66.566 1.772 23.096 12.834 43.782 25.437 62.603 9.532 14.17 21.432 26.269 33.798 37.912 5.097 4.44.874 12.389.101 18.04-9.091 45.81-.543 94.267 21.508 135.23 17.12 32.67 39.997 62.093 66.416 87.726 24.949 25.114 59.072 50.293 87.398 65.898m-155-341c5.979-14.726 16.29-27.638 25.823-40.183 3.9-4.655 7.797-9.304 12.28-13.417 1.914-2.04 4.15-3.746 6.275-5.541 5.484-4.342 1.868-8.056-2.692-10.409-14.005-9.66-30.341-18.687-48.051-17.257-8.601 1.175-16.997 5.552-22.332 12.482-4.968 6.393-5.416 17.815-4.705 24.035 1.264 10.07 6.556 19.057 12.083 27.313 5.354 6.82 11.79 16.744 19.334 22.596.643.184 1.34.281 1.985.381m-19 1027h75v-175.8c-.286-3.158.55-7.655-1.675-9.68-24.35-1.483-48.933.27-73.325-.52zm0 408h74v-212h-74zm139-1399.61c-1.698 21.45 18.651 40.992 39.672 39.61 21.295 1.264 40.945-18.893 39.326-40.071 1.116-21.434-19.308-40.912-40.605-38.929-20.561-1.02-39.917 18.842-38.393 39.39m77 278.61c32.81 1.718 67.794-6.684 90.5-32 22.772 25.13 57.816 33.555 90.5 32v-31c-22.619.456-54.035-1.862-71-26 8.629-2.744 15.51-11.781 21.46-16.983 17.657-19.666 34.868-48.88 34.54-74.03.258-6.874-.258-15.086-9.077-18.486-11.237-4.599-23.871-3.382-35.665-4.377-12.879-.3-25.78.01-38.655-.124-10.814-.084-21.619-.089-32.405.536-12.318 1.001-34.595-.64-35.177 19.091-.631 14.963 3.746 29.671 10.71 42.8 5.242 10.389 11.543 20.284 19.194 29.076 3.899 4.71 7.919 9.374 12.716 13.218 2.277 1.765 4.453 3.63 6.776 5.324 2.03 1.741 5.672 3.32 6.583 5.455-8.712 8.804-19.094 16.71-31.196 20.108-12.919 3.648-26.493 4.352-39.804 4.392zm22 458h189v137c-15.674-.362-34.66 1.674-48.198-3.936-22.315-8.481-44.757-16.489-67.122-24.799-10.98-4.276-22.225-7.91-33.181-12.23-10.615-2.899-24.295-10.341-33.499-11.035v609c20.706-.533 41.726 1.267 62.258-2.2 13.331-2.269 26.675-5.34 38.669-11.776 8.946-4.405 17.375-9.848 25.234-15.955 7.671-5.59 5.649-15.645 5.839-23.114V1948h50v656c40.368.155 83.986.736 119.72-21.418 7.979-4.384 19.146-10.44 18.278-19.403.005-32.581 0-65.16.002-97.726v-501.225c.01-3.007-.012-6.002.009-8.995.343-1.991-.046-5.324 1.639-6.51 17.56-2.035 35.671.348 53.352-.723v344.4c.486 10.266 2.93 27.764-13.89 27.524-12.752.264-25.421-1.245-38.11-1.924v16c11.695 2.448 23.257 7.61 29.683 18.287 10.018 15.576 14.334 37.523 15.485 54.188 1.764 19.77 1.407 39.711 1.832 59.525 19.983-.827 39.812-4.73 59.146-9.606 25.542-7.022 51.26-20.31 63.858-44.948 6.88-12.714 9.636-27.094 11.758-41.236 2.19-14.852 3.361-29.881 3.238-44.896v-305.049c.524-16.917-.639-33.928.345-50.802-.151-4.044 6.954-4.32 9.432-5.574 5.263-1.801 11.304-4.632 15.473-7.594 4.28-3.118 9.854-7.117 9.75-12.295-37.217-25.621-72.423-55.269-109.261-81.686-4.61-3.39-10.03-9.356-14.599-4.837-13.951 14.615-26.97 30.166-40.434 45.222-3.62 3.56-6.684 7.586-10.16 11.25-5.458 6.035-16.22 3.418-23.397 4.051H1752v-137h183.6c9.823-.202 19.893.668 29.542-1.644 7.753-1.547 16.815-7.92 15.858-18.356-38.31-31.975-75.715-66.834-115.036-98.002-3.802-2.221-8.082-7.573-11.904-7.52-6.836 5.206-11.37 15.322-16.707 21.043-10.181 13.533-19.919 27.404-30.157 40.886-4.564 5.97-8.966 12.074-13.355 18.166-2.227 2.858-4.31 5.825-6.524 8.694-4.29 8.07-11.672 7.341-19.3 6.733H1418c.174 10.369 5.928 19.77 7 30m157.002-737.22c-1.225 22.065 19.143 42.126 40.94 40.22 21.903.961 39.721-20.27 38.586-41.083.068-21.632-20.152-40.01-41.883-37.904-19.986-.313-38.444 18.573-37.643 38.766M1781 1009c4.718-.335 7.503-6.11 10.516-8.96 8.846-10.066 18.296-23.361 21.784-35.297 3.617-12.125 2.063-26.898-8.455-35.206-11.581-9.595-24.94-8.52-37.435-4.777-9.345 3.352-18.056 8.239-26.387 13.597-2.681 2.127-7.86 4.803-7.461 7.92 18.186 17.53 38.996 40.6 47.438 62.723" style="fill:#fff;fill-rule:evenodd;stroke:none"/><path d="M364 2760.5v1.5h2272v-1.5c-68.931-409.09-136.257-818.54-204.874-1227.691-51.076-306.848-102.33-613.661-153.4-920.497-4.868-28.824-9.564-57.688-14.431-86.508-1.116-7.008-2.365-13.985-3.488-20.978-1.2-6.774-.246-15.245-9.425-16.859-109.868-36.632-219.702-73.24-329.563-109.867-95.996-32.013-192.02-63.992-288-96-41.993-13.978-83.98-28.011-125.966-41.994-5.663-2.605-10.407-1.693-15.513.621-156.173 52.06-312.354 104.114-468.521 156.173-58.68 19.531-117.334 39.097-175.992 58.657-25.668 8.506-51.298 17.139-76.962 25.643-6.176 2.075-12.369 4.11-18.537 6.195-3.02 1.124-6.483 1.813-8.8 4.255-62.934 375.423-125.132 751.075-187.889 1126.544C490.857 1998.664 428.048 2380.37 364 2760.5m680-1726c18.813 1.131 38.102-7.776 57-7-23.208 29.503-34.486 66.34-41.919 102.552-7.3 37.735-11.585 84.082-4.581 118.948 13.776-13.456 31.324-27.704 44-40 1.118 7.848-2.423 15.987-2.337 23.897-3.006 28.454-2.916 57.947 4.031 85.868 3.574 13.329 9.596 25.921 12.102 39.581 2.966 14.008 3.678 28.621.704 42.654 17.282 1.48 28.054-12.899 37.5-23 11.602 30.125 23.323 61.37 43.972 86.977 18.91 26.332 43.494 48.596 72.028 64.023 3.129-13.434 5.121-27.55 8-41 12.027 24.116 24.5 48.771 42.126 69.516 8.633 11.072 19.025 20.505 30.124 29.054 10.026 7.745 23.108 17.667 35.25 18.43.68-11.899-.846-24.213.5-36 17.609 17.91 40.612 29.065 60.009 44.647 10.42 7.366 18.896 16.79 27.593 25.955 4.484 4.642 8.42 9.791 12.707 14.602 4.443 3.677 7.295 11.255 12.191 12.796 17.504-26.183 47.905-49.89 70.932-66.888 13.225-9.1 26.998-17.332 40.814-25.461 6.718-4.224 13.765-7.819 20.703-11.63 3.528-2.24 7.48-3.762 11-6 3.15-1.247 7.597-5.019 10.551-4.521-6.833 8.375-11.64 20.897-12.52 30.732-.665 5.39.104 11.082 3.17 15.691 1.567 3.079 3.941 2.655 6.096.723 2.109-1.693 4.187-3.384 6.214-5.155 7.628-6.55 15.525-12.761 22.77-19.737 9.053-8.585 20.05-18.241 28.245-26.23 15.547-15.1 30.925-30.397 44.41-47.392 13.203-16.246 27.074-33.354 32.115-54.132 8.065 17.149 18.53 33.345 25.5 51 2.965-.86 4.649-5.116 6.841-7.726 12.834-21.92 22.545-45.639 30.798-69.634 14.5-38.333 22.885-78.637 30.861-118.64 9.909 11.46 18.99 23.64 29 35 11.899-33.036 17.312-68.538 16.456-103.636-.525-17.588-2.183-35.127-4.49-52.564-1.175-8.37-2.414-16.736-3.56-25.098-.414-8.528-4.064-17.205-3.406-25.702 11.987 12.715 30.881 24.579 47.5 24-10.373-23.028-20.436-46.42-28.561-70.41-8.479-23.176-18.519-46.243-33.439-66.09v-1.5c21.211-.434 41.863 4.024 62 10 .866-37.3-5.484-75.648-24.198-108.445-15.647-30.847-42.222-59.778-76.802-68.555v-1.5c10.274-12.937 23.199-24.898 28.095-41.313 3.171-9.122 3.967-18.86 3.901-28.435-.48-8.577-.347-19.367-3.496-26.752-25.974 16.215-54.013 29.284-83 39 16.156-25.976 35.142-53.783 40-85-45.931 19.132-91.246 40.8-137.5 59 4.123-18.923 11.37-37.14 20.177-54.365 4.373-8.462 9.14-16.759 13.94-24.981 2.5-4.073 5.097-8.082 7.555-12.167 2.032-3.699 5.872-7.499 6.328-11.487-33.04-7.201-68.505-9.736-100.84 2.812-29.338 10.95-55.818 28.975-78.66 50.188-1.594-23.498 15.852-47.735 22.5-67-22.065 3.987-44.708 11.031-60.975 27.475-16.155 14.539-28.044 32.736-38.525 51.525-10.317-14.896-21.72-30.144-38.057-39.027-26.818-14.376-57.971-14.631-87.394-17.04-14.403-1.944-29.291-2.389-43.085-7.356-12.507-4.456-26.615-12.123-35.464-20.577-4.584 11.525-4.023 27.228-2.148 38.23 3.094 12.07 9.402 23 17.708 32.208 2.882 3.112 5.975 6.03 8.94 9.062-11.309 1.547-24.968-1.436-35.319-1.922-33.567-3.435-66.495-11.916-97.681-24.578-5.86 16.196-5.31 34.892 4.172 49.762 4.01 7.056 9.202 13.32 14.174 19.692 2.803 3.186 5.405 6.573 8.294 9.672 2.366 2.692 6.554 5.9 7.36 8.874-37.583-1.504-76.366-2.078-112.24-15-10.214 13.569-3.666 38.236 2.011 50.48 7.947 16.173 18.476 31.266 31.229 44.02-32.103 11.108-58.872 35.375-73.227 66.18-7.35 16.344-11.82 33.821-14.46 51.5-1.298 8.973-2.494 17.958-2.822 27.017-.245 4.798-.503 9.627-.488 14.418-.24 4.295.528 9.916-1.003 12.885m16 1541.5c17.536-.328 35.176.755 52.632-1.283 23.476-2.74 45.85-11.775 64.274-26.666 4.359-3.174 9.446-7.807 9.073-14.694.06-20.118-.011-40.238.021-60.357 23.606.126 47.222-.153 70.812.082 6.894-.282 4.912 9.092 5.188 13.435V2539c37.157 1.351 74.388-4.657 108.784-19.312 7.293-2.835 18.34-6.787 17.216-17.23V2249c13.077-2.695 30.433-9.385 36-20-38.492-26.41-74.71-57.303-112.973-84.311-4.979-3.975-10.332 6.887-13.321 9.01-14.3 15.3-29.129 30.085-42.905 45.857-3.583 4.494-10.849 3.392-15.859 3.444H1186v-138h65.4c5.07-.209 12.208-1.117 11.58 6.4.058 15.867-.011 31.742.02 47.6 19.143.4 38.487.62 57.219-4.055 13.364-2.919 26.534-6.677 39.497-11.02 9.162-3.575 19.349-5.898 27.182-12.205 3.231-2.069 1.5-8.533 2.102-11.497V1867c13.398-1.245 27.647-9.815 36-18.5-19.225-15.151-39.166-29.409-58.525-44.395-9.68-7.504-19.47-14.876-29.275-22.213-9-5.449-18.403-16.004-28.856-20.892-12.482 14.562-25.972 28.23-39.077 42.233-7.056 6.006-12.953 17.927-21.895 17.751-10.354-.573-21.134.777-31.372-.484 18.67-20.923 35.633-43.347 53.775-64.722 13.27-16.007 25.706-32.65 38.38-49.103 4.99-4.785 15.488-3.29 22.462-7.387 6.303-2.61 13.09-8.01 15.73-13.839.802-2.282 3.077-6.522 1.517-8.38-43.313-8.813-88.4-14.461-132.06-22.774-15.319-2.09-30.436-5.633-45.804-7.295.438 13.757-.621 27.569.549 41.286-.982 20.255-.131 40.628-1.053 60.894-.238 10.174-.375 20.371-.817 30.531-.195 5.021-.44 10.02-.604 15.039-.453 4.423.74 11.096-1.575 14.25-35.01-13.951-71.06-26.988-106.5-40zm128-1528.5c-10.407 34.759-8.709 73.423 1.364 108.08 9.228 33.257 27.547 63.286 48.216 90.536 33.792 41.86 75.05 79 122.42 104.884.804 10.93.987 21.938 3.695 32.636 7.524 34.806 28.695 66.128 58.099 86.165 29.986 21.234 69.937 28.201 105.357 17.909 38.256-9.985 69.612-39.774 86.407-74.808a134 134 0 0 0 9.77-29.01c1.794-7.969 2.96-16.055 3.257-24.209.241-2.615.256-6.458 1.897-8.029 6.87-6.296 15.996-9.656 23.245-15.485 7.97-5.323 15.738-10.982 23.389-16.749 38.911-29.716 73.312-65.933 98.23-108.259 19.132-33.163 33.048-70.856 32.654-109.674.07-15.072-.628-30.34-4.4-45.005-.512-3.02-2.458-8.431-.387-10.61 3.236-5.001 8.44-8.228 12.563-12.346 14.514-16.069 28.484-32.947 37.425-52.927 7.522-15.634 12.416-33.446 10.112-50.917-3.436-25.085-23.23-46.748-47.511-53.561-12.191-3.444-27.56-4.144-38.986-2.015-12.233 2.183-23.724 6.61-34.854 11.98-9.518 4.805-18.781 10.206-27.483 16.354-3.743 3.103-7.791 5.853-11.427 9.082-3.143 2.656-6.724 8.1-10.641 6.392-33.094-14.48-70.352-19.833-106.059-13.279-17.2 3.568-34.26 8.2-50.465 15.037-7.286 3.304-14.335 7.135-20.914 11.676-6.083 5.026-15.455 10.108-17.973 16.652h-1.5c-25.247-27.242-62.66-39.182-98.322-44.639-28.468-3.535-57.665-.329-84.742 9.073-4.733 1.696-10.09 4.273-14.497 5.623-1.865.82-4.221-1.765-6.146-2.9-25.814-24.836-66.825-44.2-100.176-42.018-18.333 1.369-36.553 9.417-48.53 23.755-12.203 13.904-18.324 33.113-15.151 51.49 5.772 40.383 34.083 72.056 62.064 99.116m16.5-39.5c11.718-23.759 28.268-45.355 48.5-62.5-11.456-10.184-28.288-18.523-41.896-21.62-15.332-3.687-34.933 6.13-37.086 22.823-2.683 10.173 1.528 20.66 6.115 29.479 5.155 9.23 11.76 17.654 18.863 25.437 1.85 2.115 3.472 4.427 5.504 6.381M1186 2037h77v-177.6c-.26-3.264.576-7.875-1.742-9.948-25.004-1.289-50.22.234-75.258-.452zm0 408h76v-214h-76zm141-1400.692c-1.181 20.688 18.33 39.4 38.485 38.689 20.463.805 39.52-18.458 38.507-38.868.652-20.487-18.842-39.624-39.401-38.128-19.702-.56-38.586 18.44-37.591 38.307M1404 1322c32.717 1.738 67.21-7.778 89.5-33 22.325 25.154 56.88 34.614 89.5 33v-29c-13.222-.023-29.03-.9-40.653-4.732-11.783-3.675-24.285-12.458-31.347-21.268 25.398-17.356 45.508-43.977 54.34-73.689 4.484-13.612 6.993-36.178-14.659-38.169-17.107-2.546-34.502-1.952-51.724-2.142-19.508.354-39.232-.889-58.637 1.644-7.877 1.24-18.207 2.294-20.819 13.382-1.53 9.193.248 18.665 2.836 27.474 8.944 28.044 30.979 57.677 54.663 71-9.008 9.125-19.267 17.846-31.774 21.684-13.338 3.993-27.425 4.807-41.226 4.816zm22 458h189v139h-25.2c-14.178.999-27.432-4.009-40.307-9.61-38.994-13.538-77.314-29.54-116.493-42.39v607c20.031-.487 40.326 1.217 60.176-2.19 13.22-2.245 26.433-5.286 38.36-11.592 8.937-4.361 17.349-9.75 25.216-15.811 7.757-5.228 6.338-14.885 6.248-22.253V1947h52v656c39.733.218 82.611.374 117.72-21.418 7.651-4.406 18.852-10.128 18.277-18.835.008-31.964-.002-63.937.003-95.896v-504.822c.028-3.016-.042-5.993.04-8.994-.365-6.808 5.244-6.2 10.533-6.035H1808v346.2c-.278 6.417.605 14.161-.978 19.912-3.06 10.172-15.847 7.592-23.479 7.58-9.233.063-18.388-.77-27.543-1.692v14c11.695 2.448 23.257 7.61 29.683 18.287 10.018 15.576 14.334 37.523 15.485 54.188 1.764 19.77 1.407 39.711 1.832 59.525 19.797-1.436 39.586-4.923 58.747-10.092 25.692-6.994 50.901-21.032 63.053-45.918 6.393-13.024 9.264-27.37 11.22-41.657 2.183-14.83 3.027-29.839 2.98-44.816v-302.653c.247-16.767-.3-33.566.162-50.32-.155-4.152 4.476-5.375 7.96-6.146 9.935-3.781 23.47-9.324 26.878-18.398-40.712-27.853-78.97-60.748-119.5-89-14.518 15.117-28 31.224-41.99 46.806-3.702 3.7-7.009 7.786-10.492 11.668-5.527 6.534-16.71 4.026-24.222 4.526H1751v-139h181.8c12.654-.48 44.804 4.19 47.2-18-41.993-34.238-81.971-73.355-125.5-106-22.092 28.422-42.448 58.197-64.334 86.778-1.866 2.77-4.039 5.318-6.074 7.926-6.454 2.608-16.039.416-22.864 1.296H1419c.866 9.619 5.966 18.392 7 28m157.008-736.02c-.613 21.248 19.193 40.636 40.334 39.014 20.895.12 38.18-20.307 36.993-40.388-.217-20.797-20.33-38.443-41.08-36.563-19.207.466-36.632 18.634-36.247 37.937M1734 945.5c20.009 16.26 38.278 41.314 48.5 62.5 11.967-12.885 25.85-29.846 30.166-45.745 6.433-21.518-9.908-40.43-30.433-39.053-17.53 1.216-36.172 12.414-48.233 22.298" style="fill:#000;fill-rule:evenodd;stroke:none"/></svg>