<svg xmlns="http://www.w3.org/2000/svg" width="3000" height="3000"><path d="M1157 2118h248v24c14.994.361 30.036.511 44.769-2.663 12.037-2.184 23.514-6.641 34.928-10.846 9.153-4.386 22.271-7.447 20.303-21.266.12-10.331-.147-20.688.08-31.013-.15-4.75 4.307-6.52 7.759-8.141 52.445-26.2 103.818-55.974 148.661-94.071 1.426 37.154-.26 74.759.5 112-20.992-5.373-42.263-9.873-63.3-15.07-10.389-2.423-20.764-4.867-31.101-7.48-10.258-1.827-21.966-6.177-31.599-6.45-1.98 29.358-7.42 58.439-12.172 87.42-6.169 28.823-10.9 58.713-20.328 86.58-12.505-11.215-25.667-21.687-38.213-32.854-4.58-3.787-7.389.795-9.965 4.394-7.799 9.786-15.846 19.39-23.685 29.128-2.455 3.323-6.536 7.31-8.137 10.332l-.5-1.687c.104-18.598-.127-37.216.069-55.81-.154-5.397 4.309-6.11 8.607-6.967 11.31-2.955 22.03-12.966 21.324-25.536-41.172-3.605-82.39-7.89-123.5-12-2.36 3.296-1.063 9.1-1.5 13.563-.76 33.378.926 67.187-.5 100.437-5.68-7.273-11.818-14.221-17.631-21.39-6.511-5.602-11.925-16.7-19.869-17.61-4.47 10.365-11.742 19.711-16.5 30l-.5-1.433V2176c11.83.262 26.988-8.359 27-24-40.702-3.476-81.34-8.08-122-12v302c-21.603 4.06-43.129 9.507-65 12 .167 5.969 5.04 11.559 7.127 16.3 19.187 36.586 41.405 71.829 59.873 108.7 9.174.41 18.11-7.338 21.971-14.134 1.967-3.254 3.303-6.81 4.926-10.22 8.8-11.621 20.913-20.525 30.473-31.516 30.563-30.881 61.013-61.909 90.13-94.13 1.907 21.985-.668 44.946 5.643 66.528 2.165 7.445 5.226 15.075 10.903 20.593 10.42 9.37 24.708 11.737 38.05 13.042 22.66 1.343 45.484.781 68.168.323 20.712-1.28 42.23-3.68 61.048-13.102 1.179-.532 2.397-1.339 3.688-.884-20.158 26.2-42.353 50.933-67.908 72.043-3.987 3.368-2.728 7.453-.2 11.022 1.501 2.423 3.701 7.13 6.486 6.94 5.197-.072 10.572-5.977 16.241-7.885 16.226-9.346 31.996-19.512 46.956-30.781 9.89-7.321 19.415-15.1 28.655-23.224 10.78-9.555 20.637-20.242 30.806-30.425 43.8-48.67 76.01-106.862 97.232-168.569 14.282-41.167 24.48-83.695 31.732-126.621 2.652-.435 5.315-.918 8-1v205h-67c.174 10.369 5.928 19.77 7 30h162v154c15.586-.069 31.386.524 46.746-2.722 10.482-2.435 20.827-5.599 30.783-9.702 7.028-3.318 15.458-7.188 21.102-11.598 5.66-3.627 4.332-12.264 4.369-17.863V2452h37.8c12.4-.628 40.81 5.26 45.385-14.96.913-4.096-3.505-7.492-5.898-10.289a447 447 0 0 0-25.7-26.548c-9.807-8.206-18.112-18.057-28.129-26.03-5.1-4.792-9.792 6.72-12.45 9.5-3.776 4.919-6.671 10.464-10.508 15.327-1.426-63.804.26-128.101-.5-192h36.6c12.124-.337 39.826 4.578 43.726-15.427.643-3.756-3.372-7.46-5.155-9.764-7.743-9.041-16.12-17.477-24.646-25.784-5.029-4.629-10.416-8.886-15.002-13.993-2.452-2.52-5.306-4.562-7.878-6.936-2.427-2.024-4.745-5.35-7.645-6.096-7.245 8.586-13.26 18.66-19.5 28-1.364-16.568.197-33.39-.5-50 10.615-2.115 25.073-5.861 25-22-21.386-2.668-42.954-3.98-64.365-6.43-20.612-1.45-44.677-5.126-63.635-5.57v104h-92.4c-3.507.002-7.754.317-10.43-1.601-18.88-14.243-35.663-31.293-54.882-45.064-2.157-2.334-5.66 1.89-7.263 3.14-7.912 7.135-14.762 15.246-22 23l-11.258 11.258c-3.441 2.63-7.658 9.406-11.767 8.767 9.407-20.71 15.78-42.96 23-64.5 11.848-1.762 27.388-3.744 33-15 19.055.007 38.226.215 57.062-2.993 13.576-2.315 26.774-6.38 39.776-10.818 8.283-3.477 19.085-6.825 24.995-12.93 3.806-5.861 1.25-16.062 2.167-23.837v-73.625c.758-29.246-.925-58.602.5-87.797 10.377 36.152 23.948 71.52 42.98 104.05 8.907 15.291 21.191 32.29 32.254 44.187 5.85 7.272 12.464 13.697 19.64 19.63 3.499 3.211 7.154 6.258 10.834 9.243 3.537 2.524 7.589 6.54 11.792 6.89 5.571-25.426 14.155-50.869 28.994-72.477 7.337-10.906 16.44-20.738 27.546-27.864 5.247-3.676 10.974-6.63 16.835-9.193 3.052-1.248 8.19-2.402 8.28-5.9.562-3.01.577-6.089 1.345-9.066-2.681-2.136-7.38-2.124-11.198-3.052-53.922-10.304-106.888-29.947-151.802-61.948 34.073-1.426 68.65.26 102.819-.5 12.428-.385 27.149.665 38.485-.84 9.36-.386 23.737-9.457 17.964-19.066-24.583-23.382-52.62-43.067-79.024-64.29-3.264-2.742-6.826-5.124-10.267-7.617-6.272-6.762-12.092 4.082-15.69 8.45-13.547 17.147-27.11 34.408-40.972 51.271-3.469 2.847-8.306 1.902-12.514 2.092H1785v-143.4c.675-4.372-1.143-10.671 1.45-13.785 12.916-3.464 30.78-5.509 34.687-24.475 2.126-8.087-7.536-6.144-12.698-6.98-42.802-3.93-85.662-7.267-128.439-11.36v-1.5c18.172-16.283 15.22-38.384 18.59-60.13 1.35-8.345 1.085-17.022 3.583-25.155 20.33-52.579 41-105.614 51.327-161.215 8.809 17.395 19.678 38.813 19.414 57.267-.123 37.499-1.648 75.275-12.68 111.421-3.786 13.103-8.932 26.199-8.216 40.065.248 5.899.79 13.185 3.27 18.112 2.886 4.127 11.551 3.36 15.687 4.548 10.767.8 23.535.821 33.379-.168 8.854-1.276 19.46-2.315 27.257-5.033 6.721-2.417 6.615-14.63 8.325-20.131 3.88-29.712.712-59.832 2.739-89.628.63-28.788 4.992-57.33 6.278-86.073.794-12.499-5.67-23.617-12.07-33.717-6.173-10.242-12.422-20.473-17.67-31.225-5.558-10.085-10.27-20.7-11.643-32.26-.917-6.421-.412-12.967-.57-19.417.634-6.162-.8-12.71.5-18.761 10.468 14.739 21.697 29.12 34.747 41.71 5.887 5.467 12.07 10.552 18.065 15.885 6.163 4.546 6.395 12.813 8.897 19.562 8.99 27.465 18.251 54.919 22.935 83.538 1.355 7.554 2.802 26.749 16.91 22.476 7.89-3.235 11.972-14.797 14.997-20.442 12.875-29.545 17.197-69.214 9.037-97.848-4.333-14.874-13.757-28.837-27.477-36.542a71.1 71.1 0 0 0-22.592-7.956c-7.731-.801-12.343-9.875-16.872-15.157-8.735-11.024-16.456-22.816-23.606-34.906-10.974-18.31-19.74-37.912-28.03-57.54-4.807-11.224-6.967-23.287-10.437-34.937-12.653-37.955-38.077-72.676-73.529-92.22-18.608-10.566-40.377-13.306-60.93-17.786-21.7-4.856-43.886-6.292-66.035-6.923-6.357-.344-12.608-1.754-18.735-3.342-5.355-1.038-7.77-7.55-10.044-11.69-5.11-8.645-10.68-17.056-17.12-24.781-5.59-7.007-14.176-10.749-21.054-16.277-12.818-8.579-25.316-17.63-38.163-26.161-8.716-6.57-22.071-14.063-27.83-21.156-20.31-27.836-36.573-59.323-48.634-91.507 23.457-9.177 43.654-25.856 58.64-45.895 7.53-9.858 13.363-20.966 17.907-32.475 3.424-10.802 9.034-25.413-1.135-36.377-12.72-15.994-29.85-27.31-48.288-35.698-19.198-9.464-40.56-13.096-61.7-14.318-6.826-.307-13.607.898-20.424.763-.194-7.342-.824-14.69-1.648-21.973-1.197-6.994-.677-15.453-2.352-21.777 11.262-6.458 15.802-23.152 5.273-31.958-7.854-6.779-23.327-6.567-30.39-2.283-10.528 5.808-11.613 21.776-3.322 30.02.48.508.957.984 1.439 1.471-5.479 10.77-6.607 23.883-12.5 34.5-7.672-3.18-15.467-6.33-23.538-8.44-7.332-2.683-15.035-3.146-22.677-3.951-3.285.203-3.98-5.353-4.986-7.484-1.198-5.603-2.962-11.054-4.347-16.595-.974-4.939 4.36-7.62 5.68-12.426 6.854-23.482-28.292-25.411-36.894-11.812-2.284 3.77-1.904 9.537-.577 13.192.816 2.911 4.43 4.85 6.11 7.125 1.948 1.084.898 4.811 1.077 6.628-.766 7.894-.93 15.852-1.348 23.763-26.779 6.345-49.281 23.971-66.569 44.747-6.598 7.477-11.973 15.818-16.861 24.467-2.258 3.714-3.845 7.773-6.076 11.49-1.78 3.144-6.304 4.537-10.015 6.305-27.08 12.568-54.234 29.988-69.506 56.548-15.384 27.11-13.247 69.564 6.32 91.144 16.004 17.798 40.319 25.278 63.526 26.215 26.11.174 52.278-.71 78.181-3.916 13.044 39.25 31.817 76.633 48.179 114.573 7.243 16.8 15.028 33.354 22.563 50.02 3.49 7.915 7.22 15.666 10.695 23.57 1.43 3.847 3.594 7.41 4.778 11.336-6.004 72.556-3.837 146.28-4.2 219.27.51 54.996 3.851 110.084.718 165.045-1.83 19.35-2.806 38.779-5.89 57.998-2.054 16.157-10.935 30.094-16.313 45.276-1.997 6.099-3.561 15.003 5.47 17.662 13.885 3.924 28.621 3.833 42.902 4.247 12.29-.238 24.732-.782 36.765-3.49 4.694-1.213 9.36-3.351 12.303-7.383 2.907-4.346 1.739-10.083 2.03-14.982-.049-39.697 1.664-79.366 2.24-119.043 2.525-38.601.815-77.655 5.26-116.099 8.321 33.984 15.599 68.233 21.262 102.763 4.691 26.712 7.333 53.652 4.992 80.724-.501 19.785-5.434 38.963-9.255 58.214 8.864 30.407 38.249 41.106 66.448 45.107 28.816 3.54 58.698-5.711 80.553-24.808 8.753 13.253 24.519 19.644 39.302 22.952 16.255 3.708 33.33 3.49 49.64.465 6.8-1.594 13.818-3.232 20.058-6.417 1.426 31.178-.26 62.703.5 93.941v84.365c-.242 3.168.816 9.898-3.006 10.24-61.574 1.296-123.384-.236-184.994.454 1.401 10.235 5.918 19.91 8 30h125c-25.127 57.98-58.106 113.675-101.5 160-1.426-32.496.26-65.424-.5-98 7.683-1.1 14.996-4.386 21.485-8.478 1.996-2.099 7.708-5.791 5.278-8.645-2.183-2.807-5.34-4.63-8.073-6.836-8.004-5.986-15.996-12.015-24-18-13.316-9.834-26.405-20.005-39.605-29.968-3.337-2.47-6.633-4.957-9.95-7.453-2.23-1.626-5.284-4.263-7.674-4.126-7.392 4.039-13.91 13.868-20.563 19.108-6.374 6.394-12.763 12.738-19.121 19.135-2.835 3.592-5.481 7.124-11.32 6.26-4.828.01-9.633-.003-14.457.003v-62c9.718-.831 17.893-9.244 18-19-34.062-2.4-67.954-7.352-102-10v91h-25v-62c9.718-.831 17.893-9.244 18-19-34.056-2.493-67.957-7.298-102-10v91h-26v-93h325.2c12.095-.255 26.13 1.939 36.526-6.025 2.723-2.46 8.106-9.331 4.964-13.221-27.778-26.606-59.237-49.282-89.296-73.214-3.737-2.958-7.426-6.036-11.485-8.518-3.482-2.08-6.83 5.486-8.908 6.98-9.16 11.371-17.98 23.007-27.103 34.402-4.518 5.705-8.811 11.573-13.523 17.112-4.274 5.101-8.046 13.415-16.375 12.484v-77.998c.306-2.318-.196-5.743 1.448-7.186 7.309-2.395 15.546-3.426 21.74-8.521 5.576-4.351 9.37-11.094 9.812-18.295-26.706-3.098-53.66-3.987-80.395-6.907-27.236-1.438-54.335-5.36-81.605-6.093v125c-16.015-.008-32.035.01-48.043-.005-10.783-.494-20.644-6.33-30.855-9.347-15.914-5.675-31.682-11.747-47.584-17.45-7.757-3.033-15.585-5.78-23.396-8.655-7.866-2.055-16.552-7.222-24.122-7.543-.005 117.418.006 234.808-.003 352.22-.982 86.583.6 173.336-5.387 259.75-4.307 59.98-11.692 120.205-29.81 177.794-2.709 10.364-7.132 20.15-10.196 30.375-1.68 5.412 3.041 8.258 7.157 10.687 5.033 3.585 8.77-.278 11.972-4.059 54.27-53.918 88.525-125.013 106.49-198.7 19.175-80.489 22.105-163.735 21.777-246.067m360-807c14.612-2.555 29.529-3.601 43.997-7.103a685 685 0 0 0 22.287-4.973c7.04-1.443 15.037-4.912 21.716-4.924 2.191 13.364 6.65 26.345 9.148 39.66 5.387 24.416 9.937 49.014 13.264 73.803 1.327 11.108 3.158 24.33 2.307 34.617-9.977 40.046-24.564 78.779-35.382 118.58-4.014 15.191-8.003 30.357-11.53 45.66.136 2.898-2.099 6.232-.868 9.466 9.404 8.994 26.12 11.072 37.364 11.214 11.392.325 23.645-2.097 32.44-9.95 3.006-3.897 2.294-9.638 3.26-14.255 1.13-9.386 2.158-18.796 3.417-28.16 1.66-8.12 1.456-18.066 3.535-25.381 19.905-52.26 42.959-104.36 51.372-160.096 1.312-10.345 2.463-20.742 3.076-31.142 1.148-7.094-.723-17.983 3.075-22.88 14.107-15.186 29-34.675 38.509-51.16 13.038-22.603 16.411-49.378 11.97-74.841-2.919-25.236-14.67-48.992-31.854-67.527-8.712-9.035-18.484-17.084-29.464-23.258-17.377-8.928-36.884-12.42-55.964-15.732-20.185-4.076-40.819-3.172-61.18-5.046-10.482-1.73-20.8-4.179-31.096-6.731-10.051-.953-13.344-11.273-17.482-19.014-4.066-7.723-8.726-15.12-13.877-22.138-4.518-6.84-11.7-10.875-18.363-15.287-12.282-8.931-25.214-16.963-37.487-25.889-5.535-3.704-11.054-7.373-16.424-11.301-5.076-3.684-10.983-6.539-14.875-11.61-28.441-37.291-49.624-79.99-64.634-124.33-1.67-5.915-3.65-11.781-4.637-17.854-1.84-6.892 5.212-6.66 9.955-8.156 16.675-5.244 31.688-14.634 45.39-25.254 14.257-10.451 26.534-23.976 33.035-40.508-9.738-8.783-20.156-16.94-32.33-22.13-22.371-9.797-52.4-11.12-73.517-3.56-4.25 1.262-7.885 4.04-12.106 5.32-4.215 1.604-7.508-3.338-9.852-6.08-21.895-22.01-56.67-35.575-87.196-24.056-14.181 5.304-26.219 15.002-36.34 26.013-9.479 11.117-16.724 23.825-23.556 36.695-3.012 6.53-12.348 8.361-17.935 11.715-23.897 11.389-51.895 30.688-61.49 54.08-3.546 9.613-3.541 20.824 1.696 29.945 10.42 17.682 33.046 19.17 49.639 17.662 15.056-.45 30.205-.064 45.207-1.629 11.32-.983 22.664-1.398 33.996-2.199 3.802.276 9.348-1.265 11.984 1.19 10.68 24.981 19.087 51.03 30.51 75.741 11.464 27.797 24.485 54.894 36.57 82.409 10.676 24.213 21.796 48.222 32.69 72.325 2.954 5.371 1.874 11.612.516 17.251-3.672 23.19-7.613 47.081-3.542 70.501 2.952 19.675 13.392 36.994 25.733 52.153 10.572 13.527 22.944 25.454 34.306 38.234 8.157 12.566 11.65 30.283 15.92 43.08 14.252 52.547 25.878 105.976 32.62 160.03 3.07 28.108 3.75 56.626-.643 84.659-1.164 6.982-2.268 13.997-3.727 20.925-3.12 9.486 12.498 14.276 18.99 15.963 10.406 1.946 21.293 1.709 31.49-1.212 5.919-1.842 11.837-4.307 16.684-8.254 4.96-3.284.849-12.952 1.63-17.549-1.846-24.2-3.74-48.383-5.351-72.6-5.912-71.377-11.984-144.309 3.404-215.122m-375.852-463.016c-.066 6.317 3.979 8.409 8.736 7.989 7.278.52 13.661-3.65 17.686-9.485 2.755-3.67 4.14-8.638 2.685-13.153-1.581-5.507-8.744-4.37-12.964-3.754-8.062 1.98-15.959 10.558-16.143 18.403M1158 2088h26v-156h-26zm68-1313c.34 6.51 1.302 15.134 8.403 19.816 1.913 1.794 6.152 2.236 7.095 4.293 1.225 9.445 5.268 19.418 12.615 24.518 7.852 5.711 19.353 5.25 27.47.272 18.09-11.206 15.834-44.625-4.475-52.234-8.254-3.093-17.362-.886-25.774.076-8.445 1.098-16.926 2.04-25.334 3.259m42 1313h25v-156h-25zm5 333c18.516-2.735 36.645-8.329 55-12-.76-36.929.926-74.151-.5-111-3.312 1.87-8.809.424-13.119 1H1273zm20.097-1519.735c.13 7.034 3.875 14.315 7.337 19.257 4.685 7.027 11.973 7.928 19.149 5.39 13.152-3.952 11.897-17.343 7.58-25.881-2.095-3.775-4.16-7.572-7.713-9.962-4.23-2.71-10.838-2.347-15.027-1.085-4.992 1.908-11.634 5.2-11.326 12.28M1306.17 966c.555 11.033 5.725 21.068 11.29 30.149 2.818 4.402 6.859 10.04 11.776 11.356 5.93 1.107 12.447.648 17.832-2.163 16.406-8.471 2.776-30.49-2.72-40.236-4.947-8.21-11.835-18.014-24.54-13.642-6.397 2.002-13.583 7.944-13.638 14.536m21.043-110.537c.633 10.172 11.964 21.03 21.241 19.997 8.88-.719 6.643-15.68 5.574-21.235-1.404-7.026-6.282-15.388-15.587-11.216-5.36 2.146-11.444 7.019-11.228 12.454M1428 779v-4c-10.734-5.254-21.76-11.777-34.15-12.73-18.244-1.174-43.375 1.956-52.252 16.815-3.579 6.378-1.8 19.076 5.176 24.575 8.143 4.976 18.251 5.193 27.396 3.608 20.124-3.52 37.293-15.92 52.98-28.014zm-81.984 270.89c.084 9.587 5.072 18.249 10.83 25.312 6.55 8.389 15.167 11.07 24.748 9.076 8.269-1.231 17.801-5.058 23.603-10.12 7.524-5.551 4.536-19.053 1.745-25.3-2.917-7.702-8.16-16.2-14.007-21.089-6.934-6.436-18.659-3.265-25.938.305-9.07 4.48-21.457 11.84-20.981 21.817m5.064-114.126c.705 13.38 10.164 26.703 16.644 36.236 4.148 5.177 7.634 11.392 13.67 14.71 6.687 3.704 14.708-.375 15.136-7.417 1.381-16.08-11.003-32.228-17.607-44.208-3.839-5.742-9.19-13.224-16.634-11.48-5.866 1.45-11.367 5.878-11.209 12.159M1436.5 1199c-11.53-8.247-23.895-20.74-36.566-25.094-9.25-2.789-13.541 4.62-17.495 11.293-3.499 6.82-5.922 14.15-7.625 21.595-1.9 8.564-3.931 20.287 2.978 25.343 6.808 5.85 15.201 9.255 23.089 13.31 13.353 6.195 29.982 13.048 43.716 13.427 15.666-.724 31.265-12.943 39.37-23.93 9.152-11.988 7.885-31.454 1.472-43.039-4.62-11.13-15.617-12.139-24.597-7.25-8.433 3.498-18.147 8.607-24.342 14.345m-59.5 889h28v-156h-28zm8.2-962.561c-.072 13.261 17.328 21.724 26.56 24.319 15.785 3.212 28.446 25.373 49.917 14.384 7.942-3.682 16.08-10.561 19.151-18.007 3.353-8.638-.487-17.82-5.225-24.914-6.708-10.489-17.753-20.923-27.84-26.306-13.941-7.258-26.81-2.484-38.55 4.017-10.394 5.575-23.534 15.307-24.013 26.507M1506 2373c.387 10.137 1.51 20.264 1.476 30.416.264 7.867.654 15.715 1.214 23.558.44 2.673.017 6.331 1.645 8.157 7.546 4.496 16.224 7.738 21.44 15.417 7.232 8.684 5.587 17.969 6.725 27.452 16.08-29.755 29.95-60.86 40.5-93-9.162.666-18.41-.291-26.403-5.203-5.872-2.998-11.182-7.112-15.878-11.735-3.867-3.486-2.38-9.972-1.383-14.343 3.529-14.652 3.142-33.232 1.164-46.719-12.2 16.137-23.944 32.692-37.853 47.465-6.937 7.837-14.816 14.822-22.017 22.405-3.583 3.282-7.044 8.608-12.127 7.463-4.707-.925-9.74-5.401-13.503-6.333.798-9.05 7.351-16.39 10.102-24.771 5.408-11.959 10.475-24.059 15.305-36.258 2.51-6.244 4.613-12.665 6.981-18.959 1.288-6.007 5.567-12.74 5.112-18.012-21.317 6.521-43.916 10.218-65.5 16 .674 44.713-.821 89.516.444 134.186 1.133 12.5 19.25 7.992 26.838 8.808 18.826 1.204 22.584-14.784 28.577-28.645 2.775-7.193 5.418-14.456 8.12-21.676 2.925-6.554 3.468-16.873 13.54-15.673zm-81.789-1351.546c.255 7.788 4.802 14.298 8.526 20.604 11.779 20.143 30.996 37.051 54.851 39.905 6.526.576 21.904 4.633 21.993-7.627-.68-13.374-18.164-20.424-25.757-28.812-10.11-8.5-19.692-17.68-30.997-24.64-6.329-4.58-14.03-7.667-21.964-6.683-4.331.258-6.82 3.255-6.652 7.253m-.152 266.496c-.126 11.49 12.747 19.356 20 25.743 5.915 5.322 13.82 11.156 17.175 17.87 5.442 10.231-10.054 24.447 3.123 35.054 4.395 4.76 12.33 5.78 17.066.754 3.708-4.397 6.303-10.804 7.684-15.824 3.194-11.854 3.524-24.878-.323-36.63-3.714-11.576-12.328-21.128-22.38-27.589-10.225-5.873-22.182-9.141-34.057-8.096-4.961.212-8.806 3.66-8.288 8.717m76.035-166.706c-.114 6.975 5.455 9.894 8.855 14.844 7.764 11.18-2.932 18.514-6.13 28.284-2.38 8.325.938 16.69 4.452 24.09 2.652 5.01 5.302 11.33 10.52 13.364 8.126 3.57 16.433-7.636 20.013-12.624 5.026-6.665 8.848-14.084 11.817-21.845 5.42-15.049 2.814-34.645-2.524-47.971-2.479-7.348-8.621-9.095-15.28-9.729-6.87-.706-15.292-1.112-21.516.2-5.216 1.388-10.35 5.443-10.207 11.387m4.374 564.195c.29 5.043 4.193 8.757 5.808 13.11 8.592 17.053 15.653 34.988 20.25 53.54 3.713 14.285 6.172 28.894 6.956 43.637.922 5.427-.069 11.79-.106 16.745.119 3.977 5.989 6.55 8.982 9.43 13.243 9.606 29.53 14.975 45.962 14.024 15.917-.917 31.667-8.427 41.7-20.954 10.78-12.32 15.578-29.376 12.987-45.476-3.183-23.766-19.987-42.675-38.978-55.706-19.264-13.965-42.072-21.934-64.746-28.267-5.416-1.668-10.935-2.997-16.49-4.061-5.437-1.061-12.296-3.272-17.277-1.131-1.858 1.108-5.22 2.421-5.077 4.318.01.204.02.392.029.791m4.975-425.394c1.29 13.953 12.943 30.094 29.734 26.674 19.31-3.386 31.337-20.17 46.195-30.892 6.957-5.335 16.972-9.487 21.926-16.07 4.005-5.567 5.1-13.953.53-19.52-13.957-16.996-40.691-18.483-57.89-5.541-8.46 6.047-16.609 12.63-24.04 19.906-6.384 6.358-15.62 13.742-16.455 25.443M1556.5 1539c8.766-31.9 20.681-62.846 29.87-94.605 3.612-8.088 2.522-16.778.904-25.196-3.352-24.903-8.215-49.6-13.274-74.199-3.601.28-7.129 1.238-10.75 1.391-2.897.34-5.984.261-8.712 1.395-3.234 2.402-2.253 8.032-2.958 11.4q-.684 6.212-.998 12.449c-3.492 55.776-1.706 111.951 5.918 167.365m7.5 723.625c14.04 6.55 28.623 13.884 39.5 25.375 3.995-26.812 9.94-53.798 11.5-81h-23c-7.522 19.156-18.198 37.762-28 55.625m9-1095.864c-1.184 13.628 13.167 19.687 22.7 22.875 8.105 2.006 19.005 4.017 26.367.67 8.046-4.244 6.775-16.369 5.682-23.503-2.529-13.73-9.471-26.431-17.835-37.412-3.548-4.59-7.762-9.469-13.824-10.64-6.202-1.355-8.862 4.047-10.993 7.782-5.88 12.113-12.23 27.358-12.097 40.228m60.025 80.478c.725 15.721 2.76 31.304 7.596 46.036 1.049 3.684 3.197 6.793 6.065 9.241 10.942 2.344 21.601-8.003 28.83-14.412 5.848-4.798 12.277-11.195 15.497-17.473 3.227-7.884.478-16.853.206-25.032-1.046-8.226-2.252-16.406-3.549-24.581-1.76-7.966-2.89-18-7.157-24.385-4.028-5.313-14.006-1.071-18.467.856-18.403 9.04-29.332 29.469-29.02 49.75m12.042-106.915c-.021 7.51 1.874 15.139 7.526 20.11 5.588 4.946 13.228 6.257 20.427 6.322 7.126-.3 16.546-2.718 19.957-8.203 4.168-7.516.13-15.044-5.946-19.656-9.845-6.463-22.193-8.058-33.67-7.829-5.945-.228-8.905 3.884-8.294 9.256m4.02 207.947c-.365 8.922 10.78 15.377 5.716 25.82-3.752 6.057-5.513 13.108-3.355 20.146 1.191 5.018 3.173 10.257 7.32 13.615 6.842 5.004 15.262 1.338 19.158-5.038 3.812-6.446 6.15-13.68 7.615-20.988 2.48-11.618 3.02-23.49 3.4-35.322.001-6.725-.11-14.856-1.958-20.8-2.516-8.204-10.384-5.738-15.562-1.951-8.448 6.432-21.908 14.004-22.335 24.518m49.918-156.408c.385 16.2 5.7 31.649 11.667 46.243 2.85 6.593 7.443 15.487 16.908 12.177 6.615-3.516 11.091-10.012 14.478-16.468 7.487-13.516 6.5-30.178-2.455-42.598-5.307-8.545-12.478-17.168-25.461-15.064-7.789.672-16.476 5.08-15.137 15.71M1793 2422h22v-215h-22zm4-596c4.305 1.24 8.161 5.658 13.604 2.054 29.724-17.626 59.483-35.224 88.291-54.295 7.28-4.252 13.988-9.387 20.994-14.05 5.382-3.606 10.485-7.599 15.731-11.371 4.496-3.204 10.196-2.105 15.431-2.509 7.217-.6 14.235-3.705 19.381-8.808 2.516-2.375 5.267-6.1 3.749-9.554-2.1-2.311-6.775-2.744-9.975-4.574-21.873-8.244-43.499-17.109-65.366-25.355-11-4.406-22.134-8.463-33.142-12.834-10.69-3.28-22.56-10.008-32.698-11.704-8.42 51.69-23.988 102.238-36 153" style="fill:#fff;fill-rule:evenodd;stroke:none"/><path d="M364 2760.5v1.5h2272v-1.5c-68.931-409.09-136.257-818.54-204.874-1227.691-51.076-306.848-102.33-613.661-153.4-920.497-4.868-28.824-9.564-57.688-14.431-86.508-1.116-7.008-2.365-13.985-3.488-20.978-1.2-6.774-.246-15.245-9.425-16.859-109.868-36.632-219.702-73.24-329.563-109.867-95.996-32.013-192.02-63.992-288-96-41.993-13.978-83.98-28.011-125.966-41.994-5.663-2.605-10.407-1.693-15.513.621-156.173 52.06-312.354 104.114-468.521 156.173-58.68 19.531-117.334 39.097-175.992 58.657-25.668 8.506-51.298 17.139-76.962 25.643-6.176 2.075-12.369 4.11-18.537 6.195-3.02 1.124-6.483 1.813-8.8 4.255-62.934 375.423-125.132 751.075-187.889 1126.544C490.857 1998.664 428.048 2380.37 364 2760.5m657.5-192.5c27.49-26.705 51.086-57.381 69.48-91.008 28.545-53.14 45.607-111.533 54.104-171.057 9.416-62.48 10.794-125.857 10.916-188.935h250v24c28.918 1.161 58.325-2.953 84.296-16.658 4.72-2.363 10.054-4.369 13.086-8.954 1.514-10.668-.072-21.7.618-32.435.511-3.989-1.158-10.557 2.268-12.723 27.771-14.77 56.432-28.193 82.694-45.7 25.949-15.47 49.98-34.664 74.038-52.53v115c-42.324-7.859-83.677-21.133-126-29-5.104 59.13-17.107 117.645-32 175h-1.5c-13.79-12.205-27.933-24.152-42-36-12.775 16.166-25.917 32.091-39 48-1.406-19.062.24-38.549-.5-57.683-.394-4.515-.378-9.426 5.768-10.001 10.31-2.145 23.756-10.116 24.232-24.316-40.33-3.73-81.437-7.503-121.5-12-2.461 3.388-.991 9.433-1.5 14.095V2256.5l-.5 1.5c-4.779-7.731-12.764-15.294-17.693-22-6.565-6.459-12.724-16.544-19.807-20-5.408 11.188-12.58 22.021-18.5 33l-.5-1.733V2175c12.81.243 25.592-8.725 27-22a6729 6729 0 0 1-120-12v302c-21.603 4.06-43.129 9.507-65 12 20.027 42.003 46.769 81.117 67 123 9.128-.398 17.44-8.92 20.886-15.8 6.404-14.418 19.264-24.283 29.984-35.57 32.93-32.869 65.288-66.29 96.63-100.63 1.986 22.443-.833 45.902 5.505 67.965 2.108 7.656 5.256 15.48 11.041 21.156 10.573 9.462 25.09 11.83 38.613 13.096 22.73 1.374 45.63.673 68.37.124 20.753-1.25 42.157-4.365 60.726-14.257 2.281-1.179 4.857-2.692 6.745-4.084-19.29 31.083-47.223 57.15-74.5 81.344.998 3.847 4.34 8.339 5.988 11.1 1.847 4.026 7.547-.409 10.07-1.602 12.686-7.366 27.56-16.064 38.653-23.709 58.027-38.823 105.052-92.757 137.912-154.218 34.367-63.829 53.804-134.923 66.377-205.915 3.313-.595 6.639-1.036 10-1v207h-67c.898 9.604 5.945 18.415 7 28h162v154c15.298-.126 30.866.435 45.898-2.987 10.245-2.493 20.408-5.549 30.135-9.656 6.835-3.285 15.113-7.03 20.598-11.38 5.66-3.626 4.332-12.263 4.369-17.862V2451h47.4c13.344.224 31.133 2.429 36.6-15.5-18.888-22.698-40.945-42.459-62.5-62.5-7.911 9.325-13.673 20.27-21 30-1.426-65.461.26-131.434-.5-197h36.6c11.794-.561 39.304 4.706 43.412-14.753 1.039-3.278-4.248-6.512-5.991-9.728-7.678-8.961-16.13-17.179-24.498-25.486-9.138-8.914-18.9-17.124-28.023-26.033-7.082 10.213-14.504 20.418-21 31-1.38-18.244.214-36.72-.5-55 10.16-2.166 23.448-5.06 25-20-20.983-2.572-42.154-3.951-63.172-6.3-20.973-1.574-41.837-4.638-62.828-5.7v104h-94.8c-8.376 1.076-13.264-3.25-18.566-8.491-15.56-13.348-31.52-26.237-47.134-39.509-8.703 8.075-16.595 16.89-24.602 25.602l-12.768 12.768c-4.328 3.956-8.1 9.844-14.13 9.63 7.25-22.354 16.955-44.183 23-67 13.712-.668 27.466-5.278 35.5-17 2.044 2.931 7.18 1.573 11.255 2 4.52.02 9.005.007 13.505-.228 29.427-.795 58.616-7.836 85.34-20.177 5.964-2.706 12.377-6.418 11.392-15.208.023-23.947-.004-47.89.008-71.837.76-36.791-.926-73.846.5-110.55 10.968 36.584 23.567 73.287 42.892 106.485 18.466 32.6 43.466 61.812 74.108 83.515 6.843-24.54 13.614-50.107 28.667-71.281 7.147-10.82 15.996-20.656 26.744-27.988 5.158-3.652 10.577-6.848 16.394-9.354 3.218-1.575 7.004-2.27 9.772-4.658 1.547-2.785.32-6.805 1.923-9.219-57.268-13.435-117.746-29.25-165-67 26.059-1.426 52.57.26 78.71-.5 19.698-.276 39.401.337 59.093-.185 6.679-.539 13.753-1.64 19.173-5.923 4.292-3.124 8.173-9.143 2.4-13.984-29.311-25.63-60.531-49.243-91.376-72.908-13.855 16.072-26.347 33.566-40.069 49.817-3.45 4.002-6.914 9.244-10.243 12.764-3.45 3.188-8.522 2.285-12.888 2.419H1784v-136.2c.309-6.53-.413-14.303.314-20.251.057-4.428 8.384-3.604 11.022-5.136 6.324-1.47 13.613-4.696 17.772-9.076 4.494-4.196 6.296-10.01 7.892-15.67-2.042-1.972-5.967-1.542-9.123-1.92-45.221-4.154-90.773-7.6-135.877-12.247 8.161-6.116 14.565-17.3 17.03-26.265 3.625-19.796 3.728-40.11 7.505-59.87 19.821-54.385 43.321-108.767 51.965-166.365 5.687 8.348 9.832 19.856 13.77 28.192 4.405 9.316 7.34 19.365 7.655 29.716.169 40.05-1.531 80.498-13.629 119.022-4.52 13.88-9.518 28.226-6.646 43.076.514 5.76 1.611 12.598 9.645 13.157 11.733 2.214 25.922 2.164 36.796 1.428 10.033-1.38 22.17-2.395 30.97-5.574 3.973-1.374 4.99-6.752 5.94-10.079 3.957-17.566 3.587-35.779 3.999-53.674a843 843 0 0 1 2.95-81.667c.87-12.875 2.618-25.668 3.355-38.543 1.879-12.587.456-25.609-7.281-36.198-9.997-18.615-22.447-36.14-29.93-56.045-3.215-8.827-4.35-18.205-4.094-27.537.63-9.985-.797-20.406.5-30.274 10.317 15.042 21.4 29.677 34.475 42.475 5.61 5.424 12.783 11.12 17.985 16.036 2.785 2.518 6.107 4.6 7.332 8.226 7.916 28.831 19.575 56.705 24.868 86.287 2.734 10.802 2.208 26.345 10.633 32.677 9.372 4.89 16.047-9.842 19.174-15.612 14.867-30.512 19.853-72.956 10.27-102.84-4.788-15.466-16.032-29.215-30.784-36.032-7.185-4.822-16.85-4.207-24.206-7.847-6.083-5.43-10.258-12.714-15.559-18.844-8.084-10.15-14.573-21.367-21.151-32.5-10.205-17.477-18.388-36.127-26.226-54.737-4.693-11.076-6.77-22.985-10.237-34.446-12.426-37.172-37.045-71.19-71.341-91.007-17.838-10.853-38.952-13.962-58.994-18.176-21.178-4.876-42.811-7.145-64.51-7.513-6.572-.031-13.074-.768-19.428-2.447-12.532-1.532-14.46-14-21.149-22.726-5.46-7.563-11.592-17.302-18.853-22.104-14.029-9.398-27.812-19.173-41.798-28.622-10.251-7.325-20.933-14.053-31.143-21.427-13.927-12.173-22.985-32.683-31.56-46.816-9.323-16.516-16.195-34.445-24.298-51.505 7.447-5.18 16.617-7.724 23.843-13.388 26.826-17.07 50.315-48.686 56.904-77.308.789-4.298 1.713-8.647 1.783-13.021-.01-3.061-2.84-6.103-4.954-8.988-15.594-20.037-37.823-33.9-61.612-42.3-11.054-3.876-22.522-6.62-34.149-8.016-11.908-2.125-23.87-1.102-35.815-.479-.39-14.223-2.598-28.353-3.449-42.545-.44-4.515 5.638-7.134 8.082-11.542 4.945-7.664 2.005-19.083-5.93-23.418-9.607-5.968-28.4-5.475-33.432 8.378-2.436 6.258-.672 13.304 3.46 18.372 3.432 4.477-1.002 11.615-2.47 17.455-2.245 7.481-5.213 14.768-7.261 22.3-15.55-6.543-31.7-12.362-48.715-13.391-3.285.203-3.98-5.353-4.986-7.484-1.25-5.508-2.82-10.943-4.368-16.357-.278-2.122-1.032-5.38.46-6.965 8.62-6.742 7.53-18.516-1.326-23.331-9.922-6.464-34.375-1.253-29.037 16.632.927 2.833 4.18 5.411 6.651 7.768 2.721 3.766-.766 11.876.098 16.074-.242 5.35-.666 10.698-.777 16.054-26.779 6.345-49.281 23.971-66.569 44.747-6.598 7.477-11.973 15.818-16.861 24.467-2.258 3.714-3.845 7.773-6.076 11.49-1.78 3.144-6.304 4.537-10.015 6.305-27.08 12.568-54.234 29.988-69.506 56.548-15.619 26.82-13.131 68.947 7.03 89.905 16.253 17.615 40.714 24.768 63.936 25.49 25.786.475 51.47-1.266 77.061-3.952 13.178 39.627 32.157 77.378 48.66 115.687 7.488 16.878 15.136 33.665 22.771 50.476 3.3 8.139 7.583 15.88 10.843 24.035 1.56 3.738 3.654 7.33 4.686 11.274.883 7.195-2.732 16.96-2.679 24.347-4.09 35.526-1.232 71.51-2.281 107.172-.855 63.036.645 126.064 2 189.07-.446 44.741-.755 90.026-9.576 134.122-2.045 7.702-7.19 14.224-9.606 21.82-2.779 6.967-6.57 14.313-5.364 22.08 3.752 5.427 12.55 6.239 18.428 7.039 14.04 1.946 28.254 2.345 42.38 1.363 10.843-.942 24.946-1.348 33.256-7.74 4.937-3.953 4.707-9.277 4.482-14.61-.165-81.61 3.836-163.132 7-244.635l.5-1.5c9.059 34.548 16.122 69.565 22.309 104.724 4.332 27.127 8.302 54.532 6.27 82.042-.503 20.527-4.06 40.83-8.836 60.736-1.017 6.302 3.732 13.473 7.636 19.203 16.103 20.34 43.217 27.462 67.914 28.853 25.565.401 50.768-9.615 69.707-26.558 11.741 16.092 31.981 24.231 51.351 25.654 10.248 1.248 20.55 1.605 30.773-.258 9.937-.606 18.876-5.24 28.376-7.396-.729 62.92.889 125.987-.48 188.848-1.53 3.35-8.089 1.464-10.697 2.152H1475c2.55 9.336 5.461 18.67 8 28 41.929.76 84.151-.926 126 .5-26.432 59.08-59.219 116.614-104.5 163.5-1.426-33.822.26-68.086-.5-102 10.653-1.542 20.796-6.474 28-14.5-14.224-11.984-29.888-22.258-44.46-33.81-15.151-10.946-29.545-23.332-45.04-33.69l-29.602 29.602c-5.078 4.693-9.703 10.077-14.712 14.746-7.276 1.269-14.837.252-22.186.652v-64c9.224-.76 16.508-8.175 18-17-33.366-2.763-66.676-6.746-100-10v91h-27v-64c9.224-.76 16.508-8.175 18-17-33.362-2.846-66.688-6.703-100-10v91h-28v-95h334.2c7.669.004 15.77.328 22.869-3.142 2.975-1.234 5.88-3.693 7.224-5.644 1.435-2.175 3.815-5.543 2.978-7.837-31.37-30.625-68.012-55.553-101.771-83.377-10.44 12.881-20.536 26.068-30.908 39.005-5.275 6.571-10.312 13.316-15.666 19.816-2.616 3.164-5.074 6.42-7.583 9.658-2.677 4.035-6.994 3.533-11.343 3.521v-69c.152-5.62-.324-11.366.516-16.915 1.631-3.074 8.022-2.232 10.535-3.976 5.323-1.526 11.005-4.236 14.773-8.156 3.303-3.594 6.283-8.206 7.176-13.953-53.325-4.041-106.605-9.973-160-13v125h-48.6c-10.96-.063-20.944-5.754-31.231-8.939-31.645-10.54-62.405-24.047-94.169-34.061-.225 145.269.4 290.527-.524 435.78-.248 70.263-.8 140.625-7.785 210.584-3.425 32.963-7.2 65.991-14.92 98.29-3.57 16.265-8.111 32.255-12.887 48.176-2.534 7.384-4.798 14.859-7.66 22.113-1.112 3.154-3.34 7.655 0 9.874 2.767 2.103 6.632 5.08 9.276 6.183M1518 1312c14.217-2.505 28.742-3.501 42.826-6.89 14.733-1.861 28.68-7.428 43.174-10.11 5.38 26.432 13.23 52.448 17.034 79.242 2.194 11.518 3.927 23.146 5.46 34.77.918 10.922 3.565 24.109 1.825 34.167-10.457 39.731-24.553 78.385-35.367 117.99-4.077 15.13-7.95 30.327-11.427 45.585-.304 3.338-2.033 7.275-.628 9.963 8.936 9.252 27.634 11.238 37.407 11.283 11.585.613 23.534-1.512 32.983-8.683 4.432-3.078 3.67-8.947 4.441-13.213 1.016-9.505 2.287-18.964 3.432-28.446 1.446-8.421 1.764-17.015 3.182-25.426 19.457-52.593 43.184-104.608 51.763-160.502 1.353-10.276 2.614-20.591 3.213-30.937.193-4.265.429-8.51.59-12.778.417-3.119-.497-8.154 1.379-10.272 14.364-16.606 28.855-33.537 39.7-52.768 13.296-23.014 16.47-50.366 12.036-76.285-2.781-25.445-14.619-49.42-31.92-68.082-8.856-9.106-18.724-17.338-29.902-23.492-17.635-8.814-37.3-12.384-56.595-15.67-20.46-4.222-41.424-2.739-62.004-5.191-6.506-1.036-12.95-2.489-19.356-3.966-5.805-1.682-13.043-2.745-18.017-5.265-6.603-9.366-10.78-20.446-17.249-29.959-2.98-4.402-6.643-9.519-9.828-13.21-16.285-13.157-34.925-23.271-51.525-36.031-7.602-5.087-15.143-10.292-22.647-15.497-12.403-7.936-21.646-26.267-31.454-40.094-16.036-26.567-29.215-54.805-39.608-84.022-2.022-5.584-3.725-11.256-5.302-16.974-1.37-4.488-3.804-12.328 1.366-13.24 19.519-4.417 36.767-15.444 52.463-27.336 11.282-8.888 23.686-21.077 29.324-33.184 1.615-2.572 2.312-5.402 2.73-8.342-29.1-32.162-82.806-41.378-121.081-20.135-16.24-18.912-39.543-33.695-65.127-34.943-25.638-3.274-49.86 11.152-66.287 29.562-7.218 7.724-12.632 16.755-17.674 25.958-3.675 7.577-7.612 16.73-17.804 19.697-14.8 7.149-29.518 14.84-42.182 25.473-17.019 13.866-38.173 36.59-23.415 64.57 6.883 11.23 20.036 16.54 32.784 16.678 6.782 1.015 13.501.959 20.279.048 6.862-.096 13.707.083 20.548-.33 11.842-.34 23.67-1.08 35.457-2.054 9.788.126 22.01-2.809 30.792-.67 13.326 31.26 24.426 63.795 38.717 94.75 13.394 30.51 27.745 60.58 40.974 91.154 4.207 8.658 7.881 17.553 11.951 26.27 2.524 8.354 9.2 17.027 10.32 25.034-5.799 36.254-13.556 76.681 5.41 110.865 7.238 13.368 17.16 24.893 26.987 36.353 4.9 5.488 9.678 11.044 14.954 16.187 11.09 9.785 16.113 24.008 19.924 37.928 15.173 52.714 26.908 106.46 34.906 160.717 2.997 21.294 4.882 42.735 3.959 64.256-.565 18.72-3.559 37.166-7.32 55.468-1.59 7.418 9.886 11.425 14.92 13.548 14.123 4.3 32.36 2.951 44.697-2.4 5.619-2.295 12.957-6.077 12.701-11.819-2.622-49.564-8.234-98.92-11.278-148.43-2.037-50.307-2.192-101.324 8.389-150.87m-375.714-464.093c-.166 4.395 3.322 7.416 7.353 7.013 6.313.442 11.847-3.035 15.627-7.852 3.042-3.19 5.24-7.695 4.112-12.21-1.316-5.366-7.066-5.302-11.512-4.156-7.365 1.811-15.534 10.613-15.58 17.205M1157 2089h28v-158h-28zm70-1312.75c1.355 7.011 2.023 15.585 11.275 19.12 6.255 2.154 4.32 8.825 6.948 13.98 3.154 7.62 9.91 15.245 17.376 16.75 8.366 1.914 17.75-1.443 23.318-7.81 10.244-11.81 8.826-31.828-3.244-41.866-6.329-5.56-14.901-6.216-22.77-4.689-7.932.875-15.79 2.177-23.727 2.952-3.087.223-6.128.862-9.176 1.313zM1267 2089h27v-158h-27zm5 334c18.99-4.334 38.083-8.343 57-13v-113h-1.5c-9.1 2.101-18.71.232-27.938 1H1272zm22.187-1521.55c1.115 10.126 9.363 29.702 25.262 23.148 12.04-4.395 11.047-15.57 6.232-24.474-3.388-7.615-11.083-14.886-21.666-9.58-4.065 1.817-9.839 4.678-9.828 10.906m13.117 64.505c.483 10.829 6.636 22.107 11.726 30.102 2.746 4.074 6.563 9.27 11.204 10.45 5.278 1.115 11.004.413 15.753-2.125 16.088-8.066 2.538-29.348-2.928-38.723-4.761-7.504-11.175-17.262-23.053-12.888-5.644 1.828-12.614 7.87-12.702 13.184M1328.4 855.44c.66 9.365 12.59 20.507 20.353 18.68 4.182-.754 5.284-4.33 5.205-7.981.145-4.018-.053-8.08-1.214-11.95-1.468-6.42-6.336-14.438-14.796-9.55-4.087 2.302-9.723 6.169-9.548 10.801M1427 778v-2c-10.734-5.254-21.76-11.777-34.15-12.73-9.593-.75-19.399-.073-28.623 2.675-11.859 2.895-27.567 11.388-22.141 28.627 4.964 15.142 24.705 13.215 36.275 10.568 18.668-3.922 33.583-16.823 48.639-27.14m-79.934 271.772c.162 9.108 5.781 18.427 10.78 24.43 5.528 7.479 14.66 11.336 23.838 8.89 8.027-1.425 17.282-5.154 22.848-10.241 7.278-5.814 3.914-17.67.78-24.554-3.056-7.542-8.514-15.999-14.63-20.432-7.14-5.882-18.572-1.018-25.33 2.514-7.634 4.444-18.385 10.602-18.286 19.393M1352.17 936c1.012 12.627 10.059 25.303 16.154 34.481 4.08 5.09 7.501 11.12 13.164 14.69 6.771 5.057 13.545-.992 14.096-7.564.165-15.408-11.906-30.525-18.1-42.215-3.876-4.932-8.337-12.236-14.779-10.586-2.793.601-5.25 2.169-7.324 4.074-2.388 1.128-3.06 4.916-3.21 7.12m21.84 284.84c-.942 10.18 13.823 16.016 20.39 19.875 8.724 4.658 17.848 8.367 27.08 11.881 6.897 2.333 15.268 4.754 21.967 5.169 10.589-.237 21.95-7.236 29.274-13.02 7.885-6.534 15.141-15.339 16.335-25.908 1.27-9.415-.821-19.17-5.402-27.396-7.686-16.53-28.731-3.207-38.19 2.458-2.89 1.759-5.443 4.05-8.445 5.608-5.262-1.036-8.552-6.077-12.889-8.889-4.138-2.924-8.245-5.908-12.41-8.784-4.787-3.154-9.788-6.841-15.712-7.331-8.725.9-13.34 13.904-16.057 19.64-3.165 8.196-5.677 18.406-5.942 26.697M1376 2089h30v-158h-30zm10.357-963.527c.387 12.347 16.782 20.312 25.397 22.951 15.654 2.476 27.96 24.986 48.876 14.744 7.952-3.689 16.13-10.57 19.199-18.035 3.558-9.277-1.653-16.864-6.124-24.414-7.051-9.94-17.72-20.16-27.778-25.232-13.897-6.69-26.127-1-37.515 5.398-9.26 5.998-20.762 13.223-22.055 24.588M1505 2374c.407 10.537 1.553 21.041 1.524 31.597.264 8.072.708 16.126 1.28 24.17-.465 6.872 4.61 8.796 9.725 10.942 6.723 3.395 13.483 9.778 16.338 16.122 4.417 7.764 2.493 16.935 3.633 25.169 18.15-30.628 31.127-64.242 43.5-97.5-4.77-1.226-9.886.223-14.685-1.013-7.432-1.551-15.642-5.748-21.128-9.972-3.66-3.584-10.546-6.722-9.784-13.315 1.89-9.442 4.116-18.867 3.572-28.625-.584-8.77.536-19.924-2.475-27.575-11.643 16.549-23.646 33.015-37.536 47.81-6.65 8.086-14.687 14.944-21.834 22.56-1.875 1.864-3.73 3.744-5.606 5.596-6.198 7.7-12.868-1.414-19.524-2.966 6.213-16.547 15.356-31.982 21.281-48.696 3.4-8.563 6.827-17.115 9.773-25.843 2.075-8.168 7.425-17.3 7.446-24.461-22.155 7.432-45.976 10.667-68.5 17 .601 45.287-.733 90.63.396 135.886 1.004 12.93 19.692 8.269 27.507 9.114 19.576 1.898 24.978-15.471 29.725-28.083 2.89-7.381 5.577-14.825 8.35-22.244 2.97-6.405 3.384-16.75 13.31-15.673zm-79.64-1352.23c.637 7.757 6.107 15.29 9.528 21.073 6.459 10.153 14.524 19.315 24.158 26.582 9.96 7.473 22.272 11.128 34.556 12.128 4.51.447 10.391 1.215 13.013-2.18 5.317-7.49-2.078-14.298-6.509-18.698-17.055-13.262-32.601-28.584-50.756-40.387-5.453-3.263-11.722-6.025-18.271-4.949-3.315.389-5.95 2.941-5.719 6.432m-.204 266.083c.386 11.28 13.3 18.675 20.276 25.16 5.793 5.193 13.518 10.986 16.801 17.548 6.133 10.38-9.633 24.974 3.527 35.405 4.219 4.28 11.502 5.027 15.107-.127 3.559-4.454 6.096-10.813 7.378-15.812 3.178-11.963 2.84-25.07-1.366-36.711-4.34-10.858-12.633-19.946-22.736-25.688-9.3-5.175-22.077-8.59-31.92-7.219-3.532.543-7.224 2.842-7.067 7.444m76.057-166.418c.243 6.532 6.893 9.834 9.6 15.015 6.33 11.618-3.072 18.548-6.845 28.408-2.43 8.239 1.521 16.578 4.928 23.875 2.413 4.904 5.841 11.514 11.008 12.246 8.717.291 14.417-9.693 18.96-15.734 4.5-6.81 8.415-14.102 10.772-21.957 4.002-14.481 1.199-33.008-4.696-45.306-2.371-5.72-10.305-6.789-15.65-7.545-6.2-.494-13.865-.953-19.36.874-3.753 1.6-8.824 4.56-8.717 10.124M1505 1684c.338 4.498 4.53 9.248 6.515 14.019 9.698 18.666 16.68 38.656 21.515 59.096 3.925 15.836 5.786 32.24 5.76 48.525.163 2.578-1.24 7 .615 8.572 15.331 14.84 38.315 23.777 59.722 19.69 21.318-3.814 39.182-20.196 45.287-40.883 10.264-32.845-14.137-61.774-36.532-77.594-25.132-18.053-55.593-27.365-85.509-33.65-2.842-.562-5.684-1.291-8.595-1.251-3.237-.18-6.117 2.8-8.778 3.476m5.45-424.475c1.638 13.203 12.934 30.136 29.496 25.851 18.612-4.137 30.233-20.421 44.862-30.86 7.202-5.362 17.698-9.723 22.262-16.96 8.937-14.012-8.727-26.446-20.246-29.282-15.24-3.84-30.622 1.974-42.156 11.972-6.995 5.512-13.847 11.226-20.038 17.624-6.485 5.746-12.505 12.78-14.18 21.655M1555.5 1545c10.388-32.553 21.075-65.916 31.541-98.62 3.788-8.304 3.357-17.287 1.514-26.013-3.241-25.666-8.369-51.049-13.555-76.367-4.046.046-8.007.905-12.02 1.29-5.111.153-12.093.112-11.969 7.853-.535 6.022-1.187 12.02-1.463 18.05-1.37 29.361-2.415 58.771-1.027 88.232 1.178 28.547 3.885 57.267 6.979 85.575m7.5 719c14.943 5.778 29.237 14.504 40.5 26 .478-.482.96-.927 1.5-1.332 2.632-26.809 10.836-57.801 11-82.668h-25c-3.587 10.345-9.25 19.971-13.936 29.844-2.304 4.899-5.218 9.455-7.64 14.279-2.113 4.437-6.037 9.225-6.424 13.877m11.003-1097.028c-1.065 12.565 14.005 18.477 21.565 21.306 7.656 2.23 17.909 4.373 25.007 1.278 8.933-4.61 6.936-16.176 5.891-23.343-2.859-13.107-9.426-25.273-17.552-35.822-3.473-4.375-7.46-9.317-13.359-10.38-4.366-2.021-8.026 5.074-9.529 7.646-5.713 11.899-11.999 26.79-12.023 39.315m60.04 80.471c.907 15.235 2.803 30.448 7.579 44.833 1.049 3.685 3.194 6.789 6.064 9.24 10.839 1.681 20.65-9.622 28.01-15.448 5.59-4.54 11.475-11.066 14.558-16.951 2.617-6.442.126-16.03-.194-23.973-3.079-15.202-3.242-34.828-10.547-47.512-3.885-5.26-13.299-.656-17.479 1.385-17.587 9.17-28.094 28.871-27.99 48.426m12.085-107.197c.013 7.22 2.094 14.445 7.442 19.16 5.257 4.704 12.414 6.126 19.242 6.262 6.538-.207 15.237-2.663 18.946-7.745 4.429-7.4-.602-14.689-6.736-18.716-9.07-5.563-21.868-7.554-31.433-7.092-5.005.026-7.824 3.417-7.46 8.131m4.066 208.272c.419 8.593 10.912 14.986 6.043 25.605-6.983 10.48-5.099 29.798 6.581 34.288 15.392 3.648 19.513-19.854 22.023-29.083 2.269-10.934 2.636-22.135 3.081-33.249-.028-6.788-.17-15.158-2.629-20.994-3.59-8.198-12.4-.514-16.476 2.089-6.931 5.772-18.476 12.358-18.623 21.344m49.82-156.753c.369 15.497 6.393 32.634 11.658 45.341 2.37 5.208 7.554 16.382 16.037 11.54 6.247-3.572 10.908-11.084 13.808-16.749 7.863-14.801 5.118-28.681-3.615-40.814-5.286-7.57-11.85-16.096-24.028-13.799-6.775 1.13-14.78 4.88-13.86 14.481M1792 2423h24v-217h-24zm6-598c4.262 1.299 7.601 5.231 12.52 1.565 29.388-17.514 58.885-34.881 87.375-53.806 7.154-4.123 13.675-9.182 20.55-13.735 5.34-3.704 10.535-7.537 15.746-11.394 4.407-3.374 10.015-2.564 15.281-2.76 7.253-.47 14.367-3.46 19.605-8.514 2.3-2.134 6.21-6.368 3.145-8.927-3.414-1-6.534-2.833-9.938-3.905-42.878-16.155-85.336-33.614-128.284-49.524-9.184 50.876-22.645 101.158-36 151" style="fill:#000;fill-rule:evenodd;stroke:none"/></svg>