<svg xmlns="http://www.w3.org/2000/svg" width="3000" height="3000"><path d="M1095 1143.5c-13.235 14.49-21.616 34.158-21 53.807-.79 19.651 8.195 38.792 22.102 52.293 9.964 10.015 23.279 18.076 37.898 17.4.076-10.558 1.052-21.351 4.734-31.325 3.576-8.754 9.22-16.864 16.766-22.675 44.19 31.803 73.834 79.263 97.181 127.34 6.212 12.375 11.535 25.14 17.749 37.507 2.414 4.723 4.963 9.553 6.078 14.738-1.653 4.309-5.937 6.47-8.561 10.25-19.9 22.29-44.121 47.743-42.947 80.165-26.284-1.09-54.237 1.5-75.892 18.297-9.958 7.136-19.61 17.637-20.064 30.598-2.004 16.941 13.033 20.448 26.276 21.046 13.376.551 27.192-1.073 40.303 2.522 12.091 3.42 22.696 11.153 29.629 21.641 5.915 8.016 6.703 19.985 10.363 28.034 3.211 8.302 10.753 11.746 18.502 8.882 10.002-3.599 15.525-15.702 19.17-23.844 4.798-10.484 6.082-21.94 7.213-33.176 10.721 3.303 24.98-2.004 35.036-5.219 10.771-3.998 21.298-8.67 31.016-14.804 17.036-10.424 33.313-22.367 47.948-35.977 3.054 7.313 3.2 15.785 6.391 23.14 1.52 7.775 6.817 15.42 8.109 21.86-21.574 6.286-48.972 31.355-38.977 59.067 5.32 7.793 17.664 5.78 25.45 5.933 9.051-.03 19.914.22 27.735 3.311 12.596 4.676 21.399 16.165 25 28.842 3.44 9.16 3.489 20.83 11.51 27.739 16.022 10.57 29.347-6.11 35.728-16.873 7.36-13.49 11.118-28.733 11.496-44.027 1.003-12.067-1.444-23.911-5.942-34.992 8.253-1.816 15.125-7.393 22.5-11 10.805 10.035 23.9 18.096 38.688 20.338 11.587 1.964 25.3-1.646 35.078-5.447 4.291-2.213 7.019-2.62 11.221-.932 14.733 5.965 30.865 7.716 46.467 4.348 14.41-2.54 28.172-10.314 36.184-22.793 2.66-4.126 4.972-8.627 5.862-13.514 19.732-.471 40.426-5.662 53.87-21.37 13.568-12.504 22.817-38.543 9.607-50.58-21.594-22.218-47.115-40.126-71.946-58.418-27.655-20.173-57.032-37.913-86.531-55.132 44.128-19.581 79.838-55.376 106.399-95.003 20.545-30.615 35.904-64.314 49.224-98.58 2.516-6.66 4.748-13.41 7.275-20.065 1.613-7.202 6.334-10.67 12.067-13.765 39.77-26.79 77.568-57.444 109.675-93.213 16.134-17.082 30.16-36.484 41.387-57.092 9.668-19.087 15.447-50.585-9.027-65.282 4.808-2.215 10.7-.97 15.766-2.247 41.874-6.22 54.114-52.078 68.737-80.981 5.91-14.991 16.61-37.006-2.444-50.418-16.832-9.822-40.713-10.147-57.824-11.885-42.917-3.598-86.01-1.113-128.969-.925-56.487 2.064-113.134 5.26-168.855 15.396-51.977 10.59-107.569 24.235-147.78 61.43-31.45 28.539-43.9 70.745-52.329 110.797-8.769 41.38-19.45 82.846-39.802 120.333 2.328-45.094-3.01-91.568-19.319-134.023-6.49-17.263-16.074-33.211-27.128-47.883-10.558-13.44-23.043-26.03-29.311-42.287-13.025-32.067-16.256-67.124-21.422-100.985-2.024-15.01-3.97-30.025-6.489-44.95-1.275-6.556-2.419-13.377-5.717-19.286-4.159-7.11-11.898-3.173-16.866-.666-21.616 11.98-39.712 29.238-59.46 43.84-8.526 6.57-16.937 13.327-25.592 19.721-4.286 3.046-8.524 6.32-13.413 8.348-4.297 1.843-10.368 1.99-12.107-4.457-1.278-9.9 4.056-21.28 6.819-29.605 6.923-16.537 17.345-31.31 26.428-46.664 7.851-13.461 16.86-27.229 19.786-42.848.893-6.585 1.836-14.307-2.638-19.978-5.093-4.734-14.398-2.901-20.571-3.186-24.96 1.874-48.11 12.805-68.837 26.097-60.322 40.074-103.776 102.743-127.4 170.5-19.552 58.95-18.722 123.838.844 182.695 18.333 55.392 50.363 105.913 90.132 148.356zm-41 929.5c6.994 2.688 12.079 9.382 19.208 12.084 23.836 13.856 61.118 11.83 79.872-5.73 21.534-18.237 30.392-48.953 22.243-76.04-5.066-19.099-16.2-36.66-31.355-49.336-14.976-12.63-31.333-23.934-49.282-31.909-15.198-6.62-30.808-12.445-46.87-16.615-8.633-2.405-17.277-4.75-26.066-6.502-4.58-.917-9.138-2.253-13.815-2.52-4.185-.101-7.291 3.155-10.935 4.568.652 6.11 7.004 12.258 10.03 18.569 26.426 46.674 45.812 99.264 46.97 153.431m-44 260c20.01-.02 40.2 6.092 55.523 19.256 12.775 13.347 14.032 36.5 16.343 52.07 3.796 37.665 1.886 75.64-1.724 113.217-1.451 15.61-3.84 31.103-6.323 46.572-1.013 7.314-3.192 14.679-2.513 22.133 2.169 13.197 10.054 27.818 18.827 36.298 9.068 8.15 22.435 14.424 33.375 16.405 23.58 3.862 52.226-4.257 69.399-17.599 17.352-12.258 29.43-31.117 33.446-51.897 3.983-19.38 2.415-42.969 1.982-60.946-2.52-33.02-15.264-64.026-28.225-94.102-11.393-22.753-16.892-47.993-16.105-73.406 1.746-37.68 9.526-74.85 17.144-111.654 7.813-36.346 16.331-72.527 24.935-108.686 16.214-73.107 34.145-145.972 51.916-218.661-6.054-.588-11.95-2.375-18-3-31.987 79.08-66.73 157.218-100.094 235.744-17.022 38.884-32.823 78.32-51.093 116.629-8.987 17.932-18.773 40.124-30.973 54.16-7.732 8.01-22.156 6.102-32.025 6.467H1010zm34.48-670.041c26.352 49.063 54.792 98.972 66.84 154.067 2.466 6.75 2.306 15.774 4.634 21.785 17.75 18.237 45.947 24.379 70.277 20.08 24.962-4.465 45.022-23.818 52.409-47.767 7.272-21.474 3.107-44.803-8.09-63.998-14.204-26.363-43.943-47.482-67.947-59.316-28.684-14.54-60.35-22.552-91.791-28.343-7.8-1.14-17.555-4.25-23.556-.046-1.37.855-3.06 2.024-2.775 3.538M1226 1147c.407 9.687-9.549 16.926-15.384 22.844-6.809 6.363-14.718 11.413-21.616 17.656 21.024 14.979 37.33 35.581 51.343 57.04 14.51 20.055 25.246 42.47 38.157 63.46 3.328-14.647 8.631-29.186 11.5-44 9.075 1.408 18.79 7.286 26.917 9.361 9.112 3.71 18.678 6.498 27.583 10.639-.05-22.196-5.157-44.693-5.5-67 19.058 1.805 37.168 11.245 56 13.5-7.731-23.46-13.796-47.66-21.352-71.205-2.886-10.515-6.358-20.857-9.234-31.358-1.765-4.551-2.169-11.006-5.61-13.793-30.047-21.856-59.924-43.998-90.558-65.014-23.399-15.396-51.18-28.57-80.207-24.275-21.14 3.168-42.968 11.66-56.734 29.017-20.466 22.07-26.126 62.56-3.151 85.086 12.604 11.678 30.746 13.594 47.02 12.961 16.955-1.425 33.892-3.263 50.826-4.919m-51.575-34.95c.233 10.197 9.391 18.102 19.206 16.923 11.667.18 22.655-10.437 26.131-19.911 4.56-10.608 2.855-32.503-15.227-31.512-7.925 1.277-15.61 7.91-20.21 13.297-5.5 5.705-9.564 13.013-9.9 21.203M1516.5 2238c1.426 31.476-.26 63.432.5 95 27.83.716 56.007-1.434 82.284-11.269 11.799-4.062 23.143-9.425 33.697-16.066 5.196-3.227 11.182-7.552 14.121-12.438 3.2-6.492 1.229-14.302 1.898-21.227h186c-.443 27.302-2.073 54.88-4.5 82-21.806-23.753-54.708-32.486-85.705-33.87-8.865-.274-17.728-.033-26.582-.12-6.582.14-13.153.46-19.72.843-4.222.017-8.885 3.449-10.773 6.324-2.921 2.758.84 5.512 3.139 7.207 8.017 5.698 14.933 12.687 21.743 19.718 20.238 20.362 36.088 45.278 45.713 72.248 1.34 5.386 8.135 7.497 12.74 9.15 16.467 5.917 36.04 5.112 50.445-5.5-.588 11.692-5.157 25.596-7.52 36.069-2.507 8.314-6.207 18.103-10.862 24.635-7.786 11.108-26.04 12.19-37.962 12.01-14.389-.635-28.773-.854-43.156-1.714v-1.5c24.233-24.003 20.525-65.245-.346-89.94-19.487-25.002-47.7-41.792-77.778-50.756-15.671-5.146-31.723-9.524-48.013-12.174-3.853-.26-7.383 3.573-10.004 4.834-3.359 2.36-.582 5.378 1.087 7.436 5.228 6.805 10.163 13.844 14.612 21.188 10.878 17.657 19.413 36.653 26.354 56.149 3.415 10.456 5.628 21.248 7.794 32.007.912 5.543 1.506 11.12 1.69 16.723.423 4.87-.227 12.183 2.837 15.225 8.347 7.355 18.636 12.291 29.324 15.066 5.762 1.505 11.86 1.799 17.732 1.088 5.71-1.376 11.573-1.338 16.864 1.523 6.194 2.47 12.37 5.08 18.237 8.259 18.099 8.952 34.737 27.832 39.378 46.022 6.218 21.637 5.577 48.478 6.232 68.85 50.871.679 106.673-10.453 143.598-48.498 17.13-18.808 27.1-42.517 33.888-66.674a580 580 0 0 0 14.81-77.267c6.724-51.293 9.46-102.93 11.704-154.561 11.046-1.515 21.857-4.751 31.5-10.395 3.79-2.162 12.231-7.752 7.617-12.11-3.827-3.906-8.529-6.822-12.546-10.507-10.889-9.321-22.466-17.818-33.342-27.14-17.288-13.823-34.327-27.952-51.53-41.871-4.267-3.435-8.477-6.929-12.708-10.387-3.067-3.036-6.993-5.023-10.455-.575-9.201 8.82-18.846 17.108-28.011 25.96-6.148 6.024-12.85 11.468-18.758 17.758-5.678 4.651-11.724 10.867-16.847 15.197-6.96 2.197-15.09.3-22.326 1.07H1649v-71h320.4c10.608.476 34.764 1.008 36.105-16.798.18-2.231-2.393-4.277-3.98-6.177-27.152-28.063-58.636-51.376-87.525-77.525 5.077-3.486 13.951-4.241 20.056-8.564 8.983-3.715 8.533-10.534 7.944-17.829V1832c6.373-.416 13.547-3.254 18.634-5.955 4.794-3.606 12.635-7.36 13.366-13.045-23.232-15.21-44.815-33.99-67.666-49.997-17.017-12.627-33.854-25.516-50.921-38.06-3.302-2.872-6.943.792-9.388 3.532-10.499 10.862-20.51 22.149-31.007 33-4.104 4.156-8.29 8.247-12.375 12.403-3.4 3.43-5.977 7.728-9.976 10.552-3.338 2.587-9.51 1.046-14.108 1.57H1676.5l-1.5-.5c26.395-16.889 52.278-34.784 77.803-52.98 6.472-4.873 13.103-9.517 19.604-14.324 4.88-3.519 9.569-7.277 14.447-10.776 7.156-4.401 17.834-1.95 26.24-8.07 7.466-4.121 13.619-13.283 13.906-21.35-61.123-8.02-121.968-18.362-183-27-1.775 42.675-3.642 85.355-6 128-20.393-7.512-40.395-16.345-60.719-24.078l-30.405-12.155c-9.73-3.09-20.547-9.418-29.876-10.767-.742 19.905.908 40.207-.5 60-13.226-12.687-26.793-24.998-39.37-38.37-6.982-6.162-13.875-12.39-20.262-19.176-7.606-5.382-12.954-13.879-20.868-17.454-22.027 29.14-39.504 61.908-60.946 91.52-2.81 4.223-11.45 1.546-15.397 2.48H1245c1.273 10.609 6.002 20.53 8 31h60v270c-.308 44.96.375 89.984-.203 134.927-.033 5.342-9.716 4.572-13.085 6.05-33.982 5.434-67.606 13.426-101.712 18.023 2.079 9.596 9.794 19.13 13.141 27.343 15.461 31.192 32.865 61.336 48.31 92.53 4.42 7.524 8.121 15.44 12.28 23.101 3.224 6.468 12.039.44 15.81-2.651 8.12-4.66 12.253-16.837 17.116-22.144 7.505-5.668 15.682-10.45 23.37-15.858 64.003-43.35 128.097-86.976 188.473-135.321m-91.5-807c.779 28.809 5.16 63.439 16.417 87.647 6 13.26 19.621 22.33 34.426 20.085 14.653-1.259 27.454-9.667 37.132-20.207 22.419-23.825 33.471-56.432 37.505-88.31 2.573-17.462 1.473-35.143-1.481-52.453-1.387-7.294-3.405-14.461-5.753-21.487-.881-3.18-2.248-6.179-3.568-9.171-3.884-8.063 6.128-8.352 11.477-10.312 45.544-14.382 83.517-46.31 112.132-83.692 28.644-38.329 47.39-83.075 63.451-127.798 1.724-4.626 3.13-10.328 5.124-14.404 1.37-3.707 7.64-4.763 11.099-7.797 32.335-19.116 60.418-44.42 88.014-69.576 19.523-19.98 40.31-39.455 55.06-63.455 5.48-8.156 9.76-21.716.701-30.521-7.481-5.541-18.739-7.65-26.445-10.954-19.027-3.79-23.08-26.692-10.4-38.58 9.291-7.977 23.818-11.406 34.396-13.917 18.875-4.306 41.926.318 55.906-13.867 11.302-13.679 15.266-31.99 24.807-46.731-11.15-3.6-25.424-1.885-35.946-2.5-88.21.126-176.736 3.343-264.14 15.81-40.37 7.126-82.329 14.79-118.363 35.56-16.802 10.073-30.553 24.617-39.754 42.087-9.94 18.622-14.286 39.48-19.607 59.705-12.409 52.436-22.4 109.263-58.017 152.229-3.842 5.53-9.219 9.414-14.681 13.169-4.043 3.744.535 11.312 1.468 16.787 10.387 40.691 22.987 80.9 33.04 121.653-11.605-.773-22.75-5.04-34.203-6.821-11.151-3.572-23.333-4.259-34.297-8.179-1.387 12.162 2.03 26.873 2.298 38.037.853 13.001 2.338 25.962 3.202 38.963-5.467-.073-10.544-2.557-15.695-4.064-15.467-5.153-31.135-9.696-46.57-14.936-1.895 1.955-1.854 5.775-2.576 8.756-2.54 12.36-4.114 24.889-6.656 37.247-.821 5.26-2.656 12.667-.98 16.858 2.139 4.575 4.394 9.091 6.973 13.42 1.201 4.082 6.235 8.838 4.474 12.583-12.089 11.988-26.815 21.478-37.551 34.875-14.654 16.66-33.455 40.674-17.559 67.8 7.98 12.672 22.247 11.897 34.82 8.288 12.31-3.033 24.296-7.704 35.19-14.196 15.8-8.603 30.376-19.563 44.109-31.11 6.707-6.503 14.095-12.206 20.754-18.754l10.137-10.137c3.007-2.704 6.197-7.144 10.13-7.63m-4 908c-3.93 27.237-9.966 54.555-23.451 78.874-10.924 19.54-24.881 37.69-41.869 52.36-7.29 6.203-14.954 11.99-23.238 16.793-8.137 3.811-14.209 12.484-17.909 19.644-10.088 15.397-15.053 33.96-11.959 52.286 5.074 32.098 39.915 51.07 70.308 47.346 23.425-1.684 45.623-14.06 59.964-32.465 23.073-27.856 28.89-64.903 29.119-99.814.333-36.326-7.618-72.08-17.699-106.722-2.997-8.705-5.415-19.428-9.196-27.026-3.783-2.378-9.927-.593-14.07-1.276m19-115c25.946-3.595 51.205-11.517 77-16v-366h-77zm50.425 133.492c13.499 62.092 18.473 126.652 6.954 189.388-.1 6.545 7.7 12.548 12.943 17.347 19.162 18.316 51.27 19.655 71.242 1.598 9.7-8.51 17.982-18.943 21.517-31.613 4.98-13.41 5.541-27.836 4.791-41.967-1.914-27.013-16.506-56.502-30.848-76.219-16.57-22.185-37.788-40.446-60.08-56.69-5.992-3.897-11.978-10.524-21.068-6.776-2.348.537-3.621 1.82-5.445 2.818-.013.627.031 1.366-.006 2.114M1649 1905h152v-88h-152zm0 118h152v-88h-152zm0 116h171.6c7.272.193 16.713 1.873 20.792-6.514 13.164-17.425 25.12-35.83 38.608-52.986-2.728-1.232-7.158 1.467-9.895 1.384-22.732 4.722-45.968 5.47-69.105 5.116v-32h-152z" style="fill:#fff;fill-rule:evenodd;stroke:none"/><path d="M327 2802.5c390.66 1.426 782.125-.26 1172.95.5 390.946-.76 782.184.926 1173.05-.5-79.284-468.283-156.02-937.69-234.792-1406.201-29.222-176.024-58.731-352.018-88.16-527.994-12.796-76.829-25.59-153.676-38.409-230.5-5.977-36.02-12.025-71.992-18-108-2.928-17.508-5.855-34.99-8.745-52.497-.795-4.678-1.595-9.35-2.358-14.018-.403-5.813-4.632-7.44-9.23-8.351-136.155-45.374-272.297-90.765-408.44-136.14-118.995-39.696-238.006-79.344-356.998-119.005-7.36-3.594-13.268-1.406-20.008 1.408-103.34 34.51-206.696 68.878-310.033 103.355a1093431 1093431 0 0 1-271.561 90.514c-39.662 13.232-79.311 26.454-118.969 39.67-18.676 6.196-37.335 12.443-55.998 18.654-3.991 1.804-9.7 2.485-12.774 5.267-95.938 570.136-190.308 1140.76-285.634 1711.041-35.77 210.46-69.684 422.872-105.891 632.797M1133 1266c.129-12.623 1.468-25.851 7.495-37.173 2.176-4.593 5.427-8.456 9.005-11.994 3.272-5.294 7.2-5.166 11.408-1.53 58.685 44.142 88.633 113.91 118.092 178.311-12.911 12.49-24.63 26.204-35.378 40.576-11.056 14.58-18.841 32.148-17.622 50.81-20.877-3.709-46.747.995-63.832 9.93-13.609 6.901-40.602 26.692-29.938 48.024 8.138 10.554 26.015 8.58 37.285 9.046 13.306-.389 27.144.52 38.932 7.376 8.742 5.036 17.112 13.948 20.92 22.407 3.733 7.487 3.786 16.347 7.924 23.668 2.706 4.987 7.568 10.032 14.868 7.854 8.508-2.447 13.327-10.653 17.302-17.904 4.045-8.31 6.913-17.19 8.603-26.269.703-4.355.958-8.74.936-13.132 11.516 2.227 23.35-.661 34.138-4.66 31.55-10.422 57.397-32.334 82.862-52.34 2.543 16.077 7.748 31.652 15 46.184-3.04 3.1-9.37 4.08-13.471 7.197-14.788 8.589-27.94 23.154-28.432 41.232-1.496 10.467 5.88 17.034 15.434 16.356 9.63.07 19.298-.228 28.887.728 12.206.982 24.121 8.117 30.032 18.95 5.274 8.114 7.34 17.71 9.715 26.935 1.642 6.488 5.2 13.544 12.08 15.696 11.214 2.998 20.372-6.163 25.654-13.64 5.711-8.186 9.837-19.319 12.188-28.102 2.286-9.263 3.113-18.863 2.817-28.379-.257-4.914-.789-9.817-2.033-14.582-.927-4.473-3.618-9.363-3.871-13.575 8.513-2.305 16.124-7.41 23.5-12 10.41 10.04 23.207 18.092 37.513 20.94 11.073 2.433 24.32-1.03 33.783-4.468 3.566-1.266 7.693-3.871 12.253-2.37 14.044 5.94 29.258 8.458 44.349 5.65 14.344-2.164 28.555-9.111 37.219-21.05 3.535-4.62 6.166-10.005 7.383-15.702 19.732-.471 40.426-5.662 53.87-21.37 6.972-6.609 11.864-15.17 14.516-24.381 1.47-4.597 1.745-9.474 1.715-14.26-.86-4.125-5.084-7.716-7.595-10.96-21.366-21.789-46.526-39.358-70.975-57.397-27.73-20.889-58.187-37.84-87.531-56.132 44.057-20.704 80.883-55.417 107.399-96.003 20.758-30.889 36.176-64.946 49.61-99.53 2.489-6.691 4.796-13.442 7.226-20.145 1.988-7.087 7.22-10.303 12.892-13.394 39.986-27.269 77.965-58.291 110.347-94.403 15.129-17.475 32.487-39.245 41.065-58.835 9.035-18.756 13.145-50.184-15.539-61.69 8.758-1.79 18.017-.879 26.674-3.445 31.593-6.769 43.057-38.982 54.773-61.935 5.941-12.916 12.26-25.865 15.603-39.76 3.981-16.666-7.535-28.6-21.803-31.721-38.33-10.032-78.537-7.346-117.679-8.596-66.879.936-133.923 2.782-200.191 12.547-35.383 5.074-70.417 13.128-104.049 25.287-23.888 9.187-47.38 20.85-66.222 38.517-29.7 26.339-43.228 64.769-51.55 102.368-4.916 19.172-8.19 38.738-13.443 57.809-5.57 18.562-11.881 36.97-20.096 54.544-3.131 7.465-6.947 14.65-10.517 21.885 2.172-47.688-2.38-96.993-20.772-141.678-7.349-17.879-17.672-34.552-29.861-49.519-5.672-7.239-12.012-14.01-17.096-21.702-9.765-15.206-15.015-32.732-18.588-50.287-7.914-34.899-11.082-70.58-16.55-105.87-1.084-7.346-2.395-14.743-5.156-21.671-3.226-9.195-10.851-6.99-17.01-2.938-23.351 13.504-43.322 32.13-64.757 48.302-9.53 7.041-18.512 14.962-28.721 21.05-4.131 2.298-10.702 5.656-15.524 1.866-4.768-3.645-3.18-11.343-2.234-16.22 4.496-20.996 15.857-39.463 27.127-57.344 9.294-15.06 20.618-33.11 24.872-48.977 1.157-7.765 2.811-19.076-5-22.712-15.536-4.449-34.672 2.213-48.091 6.167-49.037 19.271-88.25 57.722-118.517 99.723-30.451 43.482-51.642 93.892-57.817 146.814-7.386 60.808 7.946 122.57 35.577 176.478 13.077 24.938 28.666 48.427 46.19 70.442 4.766 5.543 9.262 11.325 14.324 16.592 1.822 2.113 3.515 4.364 5.471 6.349 1.175 1.711 4.132 4.128 2.701 5.963-9.157 12.438-18.825 28.963-19.896 43.517-1.487 18.054 2.642 36.733 14.042 51.194 10.402 13.543 25.77 26.306 43.786 26.461m-135 636.337c31.914 50.487 55.555 109.149 57 169.663 6.882 2.592 11.849 9.22 18.827 11.897 23.355 14.074 59.878 12.047 78.253-5.543 21.26-18.002 30.427-48.284 21.983-75.052-11.28-37.779-44.65-64.068-79.308-79.776-15.437-6.685-31.167-12.707-47.469-16.957-8.808-2.458-17.62-4.828-26.585-6.637-3.947-.892-8.606-1.947-12.305-2.282-3.675-.64-7.137 3.605-10.396 4.35zM1011 2332c19.857-.032 39.862 6.003 55.16 18.936 13.01 12.929 14.166 36.018 16.604 51.342 3.808 37.298 2.312 74.955-1.205 112.195-1.561 15.646-3.468 31.265-6.1 46.768-.954 7.23-2.79 14.373-3.239 21.661.992 13.595 9.596 28.562 17.773 37.56 8.765 8.407 22.098 14.833 32.88 17.18 23.251 4.414 51.57-4.144 68.604-16.958 17.15-12.08 29.411-30.581 33.608-51.092 4.218-19.05 2.804-42.306 2.254-60.024-2.405-32.885-15.166-63.726-28.013-93.68-11.472-22.739-17.028-47.957-16.326-73.378-.15-19.143 3.476-38.03 6.112-56.9 8.97-54.928 23.204-108.837 35.254-163.115 17.361-73.2 33.127-146.825 52.634-219.495-4.778-.936-11.752-1.575-15.5-3-33.218 78.674-66.564 157.402-100.594 235.744-17.022 38.884-32.823 78.32-51.093 116.629-8.987 17.932-18.773 40.124-30.973 54.16-7.731 8.01-22.155 6.102-32.026 6.467H1011zm34-669.656c29.624 52.161 58.928 107.047 69.99 166.849.002 8.99 5.29 13.657 12.54 17.006 23.264 15.06 55.261 17.966 79.549 3.272 23.316-14.16 36.521-42.404 33.54-69.327-1.958-19.045-14.125-38.866-25.044-51.983-40.798-42.698-99.728-61.125-156.51-69.504-5.278-1.643-10.448.822-14.065 3.343zM1225 1148c-.957 9.04-10.598 15.665-16.132 21.546-6.928 6.414-15.033 11.446-21.868 17.954 21.102 15.67 38.368 35.817 52.343 58.04 14.666 20.813 26.302 43.6 39.157 65.46 4.65-14.54 9.162-32.376 12.5-46 17.928 7.336 36.85 13.045 54.5 21 1.191-10.6-2.15-23.467-2.357-33.218-.727-11.627-2.513-23.163-3.143-34.782 9.419 1.854 18.652 4.956 28.01 7.132 8.952 3.173 18.802 4.021 27.49 7.868.862-6.157-3.652-13.652-4.518-19.623-6.934-23.944-14.375-47.737-21.222-71.702-1.797-6.035-3.651-12.068-5.329-18.127-1.808-10.234-9.122-14.467-16.742-19.414-7.186-4.85-14.023-10.22-21.111-15.201-21.062-14.578-40.976-30.87-62.886-44.187-15.807-10.802-37.282-19.408-54.852-21.037-29.642-3.338-62.344 7.673-80.866 31.902-9.205 11.102-13.983 25.25-15.473 39.384-2.31 14.626 3.002 32.712 12.308 42.575 11.97 13.058 30.764 15.921 47.502 15.423 9.23.016 18.348-1.162 27.476-2.232 8.106-1.336 17.87-1.05 25.213-2.761m-49.543-36.497c.644 9.566 8.962 17.531 18.524 16.421 10.895-.463 21.036-10.488 24.548-19.295 6.258-11.866-.28-32.607-14.87-29.675-14.049 3.481-26.516 21.386-28.202 32.55M1199 2272.25c12.049 24.169 25.245 48.018 37.66 72.05 6.152 12.411 13.18 24.307 19.337 36.701 2.881 6.243 6.25 12.203 9.596 18.186 3.256 5.937 5.633 12.494 9.907 17.813 5.3-3.394 11.64-5.512 15.693-10.769 4.18-4.258 6.816-9.645 9.724-14.748 5.802-7.57 18.37-12.695 26.989-19.762 32.244-21.674 64.261-43.672 95.97-66.116 31.726-22.481 62.818-45.904 93.624-69.605 1.426 31.87-.26 64.07.5 96 27.381.745 55.078-1.75 80.87-11.471 11.724-4.171 23.103-9.43 33.571-16.162 5.243-3.4 10.704-7.062 13.92-12.58 2.816-6.453 1.008-13.99 1.639-20.787h178.8c3.323.116 7.588-.346 10.2 1.5-2.753 13.977-.23 28.615-2.617 42.686-.706 13.942-1.967 27.865-2.383 41.814h-2c-4.414-9.23-18.26-16.185-24.892-20.44-10.273-5.704-21.327-9.698-32.843-11.953-14.417-2.947-29.127-3.81-43.796-3.607-7.77-.118-15.53.049-23.274.538-8.065-.725-13.578 1.994-18.195 7.962 25.391 19.066 46.63 43.684 61.908 71.53 3.597 6.962 6.613 14.233 9.431 21.533.975 2.976 1.866 6.246 4.605 8.025 18.967 10.733 43.374 10.213 60.556-3.588-1.946 12.27-4.422 25.175-7.73 37.293-2.559 8.956-6.262 19.494-11.084 26.626-7.825 12.135-27.28 13.077-39.785 12.792-15.307-.617-30.604-1.04-45.901-1.711v-2c12.45-8.96 17.312-26.036 18.74-39.457.71-19.474-6.71-38.842-19.835-53.155-12.194-14.638-27.783-26.514-44.645-35.271-13.965-7.284-29.02-12.124-43.996-16.772-8.024-1.987-16.012-4.186-24.11-5.832-3.71-.421-8.372-2.25-11.074-1.207-3.096 1.234-7.195 3.71-9.08 5.694 19.138 23.793 33.308 51.435 43.531 80.141 3.77 11.62 6.519 23.64 8.54 35.667.88 5.432 1.248 10.923 1.44 16.416.53 4.353-.698 10.392 3.814 13.932 13.94 11.56 32.358 17.782 50.313 14.31 6.904-.734 13.275 2.816 19.471 5.207 20.725 8.568 39.801 23.345 48.395 44.646 8.326 23.465 7.928 53.208 8.496 75.681 50.118.394 104.75-10.83 141.253-48.081 16.87-18.677 27.292-42.017 33.907-66.042 6.767-24.977 11.584-50.454 14.87-76.114 6.958-52.016 9.613-104.401 11.97-156.763 14.63-3.334 32.85-6.364 41-19.25-39.53-30.895-77.565-64.555-117.5-94.75-14.86 14.84-30.966 28.31-45.975 42.975-5.479 5.813-11.676 10.834-17.398 16.373-5.06 5.42-14.784 3.098-21.346 3.652H1648v-73h320.4c10.495-.19 35.13 1.615 35.729-16.742-13.767-15.768-30.463-28.78-45.767-42.978-16.008-12.57-30.895-27.561-47.362-39.28v-2c8.516-1.472 17.958-6.025 24.89-9.662 5.103-2.869 5.501-7.692 5.11-12.633V1831c12.335-1 23.628-7.666 32-16.5-40.163-29.996-80.708-59.957-120.5-90.5-5.985 5.555-11.47 11.576-16.78 17.752-10.173 9.842-19.565 20.398-29.453 30.48-3.924 3.545-6.989 7.889-10.676 11.624-3.35 3.88-9.656 3.215-14.238 3.144H1672v-2c27.391-15.244 52.444-35.195 78.531-52.61 13.594-8.23 25.31-20.07 38.978-27.918 8.178-1.469 16.86-2.114 23.967-6.97 6.422-4.223 10.825-10.882 12.524-18.502-60.104-8.51-120.668-17.417-180.5-27-3.854 42.733-2.646 86.265-7 129-40.08-16.025-80.145-32.675-120.5-48-.746 20.567.913 41.55-.5 62-26.573-26.117-53.149-52.273-81-77-21.27 29.922-39.537 61.962-60.774 91.882-3.018 3.962-11.73.974-15.667 2.118H1246c2.339 9.752 5.676 19.249 8 29h60v271.2c-.29 45.182.354 90.399-.191 135.562-.002 5.264-8.797 4.79-12.3 6.063-34.247 5.471-68.139 13.538-102.509 18.175zM1423.5 1432c1.575 18.55 2.821 37.414 6.61 55.742 2.915 13.433 6.513 27.335 14.588 38.718 13.003 19.238 39.944 15.06 55.094 5.045 16.617-10.865 28.318-28.022 36.64-45.67 13.926-30.897 19.277-65.649 14.994-99.274-1.943-15.151-5.74-30.312-12.426-44.061 2.808-2.254 7.864-2.577 11.734-4.25 61.062-19.372 108.282-68.408 138.634-123.112 11.391-21.248 21.79-43.045 29.998-65.763 4.033-10.403 7.885-20.875 11.197-31.528 2.305-9.755 12.65-12.765 20.483-18.166 30.813-20.642 59.823-44.305 86.187-70.414 19.048-19.428 39.261-38.696 52.48-62.865 3.957-8.457 6.136-22.995-4.298-29.572-8.557-4.647-18.189-6.915-27.254-10.293-18.196-4.654-17.988-28.75-4.279-37.929 9.914-6.632 23.979-10.004 34.52-12.012 18.542-3.631 41.41.269 54.192-14.907 5.051-6.77 8.945-16.085 12.333-23.004 2.675-8.303 9.594-16.763 11.073-24.685-16.448-3.014-33.33-1.65-49.935-2-60.815.131-121.638 2.588-182.24 7.52-43.378 3.937-86.888 9.243-129.04 20.526-28.886 8.155-60.06 18.735-81.317 40.92-17.092 16.97-25.8 40.009-31.82 62.73-9.142 34.905-15.204 70.658-27.054 104.805-5.883 16.376-12.498 32.47-21.325 47.518-8.693 14.086-18.406 28.333-33.269 36.481 13.555 44.843 24.431 91.127 38 136-23.42-2.297-46.516-11.53-70-14.5 3.842 25.456 3.574 51.482 7 77-20.881-6.1-41.947-12.904-62.5-20-4.567 15.211-5 31.641-8.989 47.055-1.306 7.073-3.884 15.22.688 22.35 3.466 6.057 6.71 13.024 10.801 20.095-23.352 18.954-48.104 39.22-59.911 67.897-4.986 14.087-1.706 34.762 9.696 43.38 12.706 9.476 32.689 1.365 45.527-2.4 24.348-9.87 46.45-25.094 66.204-42.273 13.226-10.73 24.965-23.076 36.984-35.104m-1.5 908c-3.93 27.237-9.966 54.555-23.451 78.874-10.78 19.457-24.72 37.327-41.437 52.038-7.384 6.056-14.854 12.087-23.175 16.814-8.283 4.079-14.039 11.416-18.19 19.587-9.789 15.246-15.68 33.869-11.876 52.063 5.804 31.278 40.985 50.302 70.982 45.593 23.03-2.309 44.625-15.258 58.256-33.767 22.502-28.183 27.881-65.125 27.872-99.976-.628-36.278-8.153-72.078-18.818-106.622-2.668-7.61-4.89-17.214-8.449-23.687-3.658-1.529-7.894-.583-11.714-.917m18.5-114c25.413-6.057 51.881-11.143 77.5-17v-368h-79v374.221c.196 3.505-.499 8.059 1.5 10.779m50.5 130c7.879 35.982 13.322 72.585 13.806 109.5.126 14.398-.047 28.912-1.4 43.253-.994 12.071-2.463 24.073-4.672 35.974-1.13 4.9 2.73 9.4 5.882 12.372 12.298 13.391 30.483 23.232 49.196 19.658 29.094-3.647 48.107-31.78 52.215-58.623 4.71-28.94-4.155-57.524-18.218-82.514-18.765-33.972-48.625-60.412-80.847-81.295-4.602-3.657-11.586-.489-15.962 1.675m157-450h154v-90h-154zm0 118h154v-90h-154zm0 116h175.8c4.33-.029 8.765.186 13.038-.473 4.926-3.264 8.144-10.899 12.15-15.201 10.747-16.024 23.294-31.231 33.762-47.326-12.972 2.312-25.755 5.954-38.998 6.789-13.89 1.212-27.84 1.175-41.752 1.211v-32h-154z" style="fill:#000;fill-rule:evenodd;stroke:none"/></svg>