<svg xmlns="http://www.w3.org/2000/svg" width="3000" height="3000"><path d="M364 2760.5v1.5h2272v-1.5c-68.931-409.09-136.257-818.54-204.874-1227.691-51.076-306.848-102.33-613.661-153.4-920.497-4.868-28.824-9.564-57.688-14.431-86.508-1.116-7.008-2.365-13.985-3.488-20.978-1.2-6.774-.246-15.245-9.425-16.859-109.868-36.632-219.702-73.24-329.563-109.867-95.996-32.013-192.02-63.992-288-96-41.993-13.978-83.98-28.011-125.966-41.994-5.663-2.605-10.407-1.693-15.513.621-156.173 52.06-312.354 104.114-468.521 156.173-58.68 19.531-117.334 39.097-175.992 58.657-25.668 8.506-51.298 17.139-76.962 25.643-6.176 2.075-12.369 4.11-18.537 6.195-3.02 1.124-6.483 1.813-8.8 4.255-62.934 375.423-125.132 751.075-187.889 1126.544C490.857 1998.664 428.048 2380.37 364 2760.5m644-515.125c2 2.658 5.056 4.51 6.5 7.625 25.792-14.417 52.406-27.641 77.105-44.032 12.752-7.595 24.907-16.102 37.3-24.247 6.25-4.137 12.336-8.544 18.51-12.78 5.76-3.297 12.997-10.242 18.585-10.941v445c21.971-.122 44.193.176 65.835-4.177 14.842-3.408 29.842-6.64 44.091-12.19 10.078-4.006 22.476-8.658 30.132-15.26 6.075-5.583 3.123-17.662 3.942-26.417v-447.955c.247-4.031-.943-9.958 3.454-10.965 10.015-3.3 23.01-8.079 26.546-17.372-2.626-2.204-7.453-3.055-11.088-4.835-11.103-3.35-23.47-9.634-33.912-11.829.932-6.24 9.65-10.484 14.08-15.647 17.943-18.015 36.497-35.354 53.895-53.828 4.366-4.584 9.19-8.784 13.163-13.727 3.211-3.15 6.657-8.247 10.442-9.317 12.424-1.735 29.935 2.975 38.42-13.481-55.286-31.652-110.764-64.296-165.5-97a1319 1319 0 0 1-53.876 107.627c-28.288 50.199-57.59 99.953-90.303 147.4-32.417 48.595-68.754 94.61-107.321 138.348m6-899.875c1.727 3.685 7.637 5.683 10.5 9.5 41.353-38.3 82.055-78.993 113.5-126h3v366c21.341.011 42.982.704 64.001-3.784 14.395-3.232 28.668-7.134 42.202-13.11 9.564-3.9 20.224-9.8 27.94-15.284 7.96-5.04 5.652-17.315 5.857-25.09V1040h3c11.414 36.026 24.72 72.347 26.59 110.578.959 4.486-.59 11.74 1.865 14.898 10.005 11.121 26.703 19.228 40.203 20.707 7.948 1.44 17.336-.833 24.148-3.336 3.634-1.521 7.23-3.243 10.494-5.446 3.117-2.059 5.698-5.452 9.7-5.401v227c18.435-.21 36.985.765 55.309-1.667a193.5 193.5 0 0 0 26.459-4.776c7.93-1.159 16.148-6.118 23.232-7.557-.39 5.602-6.245 11.273-9.279 16.906-26.768 39.352-59.376 74.326-92.968 107.805-17.78 15.32-34.393 32.09-53.508 45.864-8.958 7.266-18.633 13.54-27.9 20.38-4.79 3.203-9.776 6.123-14.628 9.2-2.556 1.505-5.007 3.088-6.992 5.277-.895 2.47.49 5.828 1.775 7.568 68.109-13.773 136.745-30.412 201.596-56.24 31.948-12.66 63.278-27.148 92.973-44.486 7.355-4.406 14.76-8.739 21.851-13.558 4.968-3.465 10.018-8.606 17.512-7.348 10.47.582 21.148 1.402 31.469-1.13 4.705-.994 9.073-3.046 13.225-5.423 3.707-2.382 8.527-5.753 8.874-9.815-16.656-6.943-32.397-16.437-48.835-23.928-24.359-11.933-48.905-23.527-73-36a18312 18312 0 0 1-37.04-18.514c-2.751-1.729-6.89-2.866-8.436-5.297.982-10.077 2.077-20.798 1.311-31.261h275v39c38.37.7 78.273-.055 113.568-17.32 3.92-2.042 8.052-3.74 11.695-6.263 4.23-2.502 3.749-6.933 3.737-11.316V1057c11.749-3.146 28.318-5.315 37-18.5-36.62-28.293-73.418-56.925-110.5-84.5-17.873 18.616-34.215 38.638-51.853 57.465-3.699 5.039-8.811 10.525-16.665 9.535H1717v-80h219.6c9.217-.023 18.433.028 27.641-.016 7.068-.235 14.672-.707 20.885-4.51 3.692-2.402 10.537-8.792 4.818-13.89-31.528-28.527-63.295-56.915-96.444-83.584h-1.5c-16.19 25.788-37.775 49.214-54 75h-19V804h123c11.404.082 26.887.133 30.94-11.558 1.765-3.705-4.198-7.778-5.765-10.623-20.856-21.376-43.207-41.162-65.636-60.824-7.329-6.114-16.202-14.837-24.539-20.995-10.412 12.43-18.6 26.89-28.385 39.856-4.8 6.777-9.296 13.746-14.196 20.45-2.344 3.322-4.753 6.614-7 10-2.206 3.146-4.871 7.464-8.419 7.694v-99c10.764-2.622 24.008-5.97 27-21-51.534-5.01-103.373-8.641-155-13v133h-76V678c11.319-1.396 26.048-4.73 28-21-51.86-5.125-104.04-8.665-156-13v134c-39.929.76-80.151-.926-120 .5 2.615 7.735 5.843 18.83 7 25.5h113v110h-76v-2.5c1.422-1.434 2.1-3.279 3-5-28.945-33-61.537-62.483-92.5-93.5-5.89 10.407-12.846 20.369-19.206 30.515-6.888 9.016-12.386 21.735-19.294 29.485h-2V684c14.962-1.783 33.57-6.476 37-27-58.887-6.124-118.01-11.598-177-17v255h-114c2.546 8.112 4.816 19.952 8.296 26.096 10.17 2.104 21.021.005 31.34.904H1133c-8.215 75.746-22.463 150.97-41.36 224.74-8.917 35.378-20.207 70.083-32.665 104.332-12.982 32.183-27.032 64.877-44.975 94.428m21 595.958c2.434 2.888 4.79 5.885 7.5 8.542 64.082-26.57 127.762-55.465 186.476-92.901 29.16-18.135 57.85-37.111 85.285-57.784 13.73-10.458 27.841-20.445 40.953-31.687 3.082-2.35 6.163-6.264 11.125-6.446 11.94.126 26.856 2.65 35.661-11.682-26.511-15.721-52.195-32.94-78.422-49.129-13.102-8.311-26.266-16.524-39.347-24.843-6.374-4.256-12.98-8.16-19.426-12.285-6.308-3.162-13.908-10.179-19.805-11.243-24.701 54.154-59.142 103.457-93.395 151.877-35.173 48.82-73.455 95.648-116.605 137.581M1281 998c22.196 6.73 43.374 17.316 63.544 28.663 9.965 5.7 19.24 12.616 27.808 20.237 4.219 4.247 8.574 8.346 12.58 12.796 3.653 3.526 7.666 10.592 12.068 11.304V971h2c30.452 12.114 61.387 23.101 91.94 34.974 8.12 3.17 16.34 6.003 24.447 9.169 5.693 1.897 12.185 5.2 17.698 5.776 20.298.23 40.619-.041 60.915.081v-80h-205.8c-9.797-.7-21.727.947-30.562-.74-2.58-1.91-2.582-6.928-4.076-10.209-1.017-2.582-1.39-6.841-4.02-7.624-22.775-1.218-45.738.222-68.542-.427zm386 1016v401.4c-.14 8.321 2.255 19.689-8.688 25.178-7.471 3.137-15.748 2.45-23.625 2.285-58.237-2.548-116.454-5.886-174.687-8.863.559 3.328-1.074 9.304 2.377 10.591a170 170 0 0 0 10.215 1.83c37.76 6.236 76.549 17.582 106.038 43.305 15.091 11.907 24.824 29.186 29.983 47.446 5.657 19.1 8.233 38.995 9.387 58.828 33.624-3.816 67.931-5.931 100.287-16.93 22.735-7.275 44.47-19.22 61.383-36.336 25.783-27.97 33.016-67.345 35.243-103.994.248-41.321-.045-82.655.087-123.965V2014h131.4c11.254-.14 26.585.24 32.6-14.656-40.089-37.295-83.476-70.96-126-105.344-23.796 29.647-45.82 61.029-69.335 90.967-2.496 3.309-6.792 3.164-10.656 3.033H1389c1.352 8.017 4.438 15.76 6.354 23.638 1.683 3.81 9.113 1.573 12.032 2.362zm-221-259.5c1.926 8.584 5.998 18.464 7 26.5h443.4c18.857-.68 44.305 4.018 52.6-14.5-39.327-35.04-79.971-69.217-121.5-101.5-20.32 24.608-38.133 51.223-58.087 76.124-3.652 3.883-7.35 12.037-12.195 12.643-103.72.665-207.496-.121-311.218.233zm74-591.5h74v-115h-74zm0 155h74v-129h-74zm95-404h76V804h-76zm49 491.375c34.73 23.255 68.917 48.001 100.284 75.825 11.99 10.577 24.345 20.786 35.586 32.17 21 19.022 40.326 39.9 58.24 61.838 3.318 4.063 6.1 8.572 9.788 12.31 17.157 8.05 40.626 6.59 57.91-1.451 28.395-12.361 42.757-47.043 34.656-76.224-6.961-28.91-28.129-52.058-52.378-68.13-32.537-21.64-70.94-32.685-108.977-39.653-20.658-3.235-41.485-5.572-62.438-5.06-21.383.419-42.981-.852-64.254 1.997-3.853.364-6.154 3.55-8.417 6.378M1717 1163h78v-115h-78zm0 155h78v-129h-78z" style="fill:#feddaa;fill-rule:evenodd;stroke:none"/><path d="M1006 2245.5c2.201 2.614 6.356 5.583 7 8.5 6.448-1.086 13.545-7.272 20.769-9.925 46.215-23.136 88.303-53.876 131.231-82.075v445c22.275-.01 44.738.167 66.7-3.94 15.058-3.417 30.255-6.6 44.709-12.214 10.223-4.146 22.87-8.72 30.649-15.473 6.156-5.724 3.042-18.088 3.942-27.017v-398.781c.01-17.387-.012-34.785.007-52.17.088-1.965.14-4.767.974-6.186 5.699-2.99 12.664-3.765 18.08-7.561 6.574-3.033 9.135-8.07 12.939-13.158-15.714-5.174-31.269-11.831-47-17 19.871-20.754 42.13-39.108 61.713-60.128 4.588-5.661 10.168-10.459 15.154-15.745 3.75-3.94 6.926-8.469 11.115-12 5.9-4.933 17.16-.885 25.345-3.563 7.507-1.238 13.58-6.418 17.673-12.564-27.431-17.399-56.276-32.756-84.04-49.652-14.13-8.239-28.14-16.652-42.325-24.774a838 838 0 0 0-20.907-12.299 421 421 0 0 0-11.306-6.671c-3.389-1.623-6.946-4.658-10.422-5.104-15.16 37.227-34.63 72.738-53.634 108.11-28.309 50.177-57.65 99.888-90.34 147.35-32.531 48.888-69.251 95.089-108.026 139.04m6-898.875a68 68 0 0 1 7.094 5.638c1.794.978 3.622 3.108 5.387 3.237 5.853-3.452 9.808-8.896 15.49-12.994 37.22-33.543 70.078-72.116 99.529-112.506l.5 1.625V1596c21.696.113 43.638.726 65.04-3.558 14.935-3.248 29.646-7.386 43.67-13.528 9.755-4.149 19.15-9.222 27.79-15.345 7.694-5.303 5.109-17.632 5.5-25.437v-84.508c.76-137.479-.926-275.228.5-412.624 12.703 35.447 24.37 72.157 27.056 109.992.63 4.753-.065 10.185 1.293 14.694 9.607 11.432 26.567 19.407 39.8 21.39 16.788 3.67 32.555-4.847 45.351-14.076v227c34.885-.142 72.08 1.767 104.5-14 .235.488.42.967.5 1.5-27.2 40.42-58.22 78.301-93.233 112.233-34.378 33.642-71.92 65.41-113.767 89.267.603 2.75 1.626 6.56 2.798 8.59 1.952 2.307 7.032-.73 9.425-.351 54.106-10.308 107.855-23.739 159.902-41.772 39.202-12.798 76.802-30.036 113.386-48.875 8.534-4.936 17.264-9.584 25.56-14.927 6.528-3.803 12.648-8.18 18.823-12.498 4.485-3.156 11.852-1.166 18.075-1.227 17.052 1.214 36.689-2.113 47.031-17.44-27.834-14.327-56.233-27.887-84.366-41.677-14.5-7.264-28.982-14.493-43.469-21.75-7.183-3.57-14.34-7.16-21.499-10.748-6.505-4.356-16.012-6.535-20.666-11.325 2.504-4.157 2.038-9.099 2-13.88V1346h273v39c38.882.621 79.359.296 115.19-17.147 4.05-2.085 8.32-3.847 12.073-6.436 4.23-2.502 3.749-6.933 3.737-11.316V1058c13.68-2.952 29.87-6.816 38-19.5-36.994-29.428-74.986-57.75-112.5-86.5-18.206 18.019-33.735 38.43-51.536 56.81-3.614 4.382-8.756 11.368-15.602 11.172-21.794.052-43.583-.01-65.362.018v-78h217.2c11.901-.303 23.851.403 35.734-.299 9.817-.68 20.575-3.864 24.066-16.306-33.614-29.845-66.387-60.86-102-88.395-10.201 11.908-18.81 25.425-28.482 37.804-8.445 13.118-19.7 24.794-27.518 38.196h-17V805h126c11.234.245 25.087-.89 30-15.5-7.84-8.409-15.341-17.105-23.87-24.87-25.51-21.663-49.04-46.354-75.63-66.63-19.735 25.513-36.062 53.639-56 79-1.426-32.181.26-64.74-.5-97 10.986-2.628 25.918-6.602 27-23-52.219-4.694-104.679-9.184-157-13v133h-74v-98c11.754-1.27 27.78-5.5 28-23-52.546-4.805-105.335-9.2-158-13v134h-120c1.076 9.593 6.098 18.395 7 28h113v108c-24.568-.76-49.55.926-74-.5 4.227-4.076 2.333-7.888-1.007-11.126-27.93-31.97-59.624-60.307-89.493-90.374-13.258 20.09-25.726 40.917-39 61-1.426-62.14.26-124.76-.5-187 15.164-1.705 35.587-7.083 37-29-59.58-5.817-119.303-12.173-179-17v255c-38.264.76-76.81-.926-115 .5 4.189 8.185 4.58 19.869 8.93 27.224 6.985 2.65 17.199.327 24.544 1.276H1132c-8.944 75.173-22.217 149.993-41.504 223.211-8.86 35.62-20.41 70.494-32.951 104.929-12.932 32.674-27.808 65.337-45.545 95.485M1041.5 1952c64.361-26.96 128.496-55.639 187.545-93.319 29.28-18.324 58.283-37.178 85.82-58.06 13.71-10.472 27.84-20.428 40.948-31.66 3.374-2.57 6.459-6.402 11.01-6.667 12.896.587 27.827 2.08 37.177-12.794-26.469-16.644-53.032-33.332-79.422-50.129-26.288-16.854-53.072-33.135-79.078-50.371-13.814 28.269-29.201 55.96-46.172 82.513-24.553 39.311-52.381 76.439-80.268 113.39-14.828 18.216-29.138 36.982-45.323 54.024-7.665 8.736-17.303 18.427-24.47 26.306-4.193 4.308-8.546 8.406-12.679 12.753-4.929 4.25 2.855 10.192 4.912 14.014M1282 997c43.302 13.468 85.27 36.729 113.5 73 1.426-33.502-.26-67.414.5-101 31.34 11.2 62.324 23.61 93.58 35.065 8.047 3.07 16.086 6.15 24.19 9.07 5.878 1.869 12.478 5.096 17.949 6.513 20.387 1.003 40.877-.182 61.281.352v-78h-204c-10.137-.451-20.389.56-30.485-.327-3.73.219-4.279-5.919-5.283-8.335-1.006-2.855-1.561-6.541-3.042-8.93-3.9-2.85-11.922-.435-16.272-1.408H1282zm105 990.5c1.253 4.837 3.134 9.515 4.252 14.425 1.157 3.696 2.127 7.458 3.291 11.13 1.239 2.525 6.147 1.503 8.248 1.945H1666v399.6c-.133 8.269 2.162 19.539-8.688 24.978-7.486 3.172-15.78 2.436-23.668 2.223-58.242-2.326-116.397-6.334-174.644-8.801.806 3.916-1.485 10.818 2.357 12.577 4.258.873 8.606 1.6 12.906 2.304 37.322 6.163 75.184 18.048 104.192 43.467 14.705 12.135 24.384 29.189 29.333 47.418 5.56 18.917 8.028 38.607 9.212 58.234 29.417-3.149 59.23-4.707 87.901-12.727 20.883-5.352 41.54-12.911 58.773-26.261 13.522-8.829 24.16-21.232 32.537-34.907 11.413-22.495 16.515-47.499 18.9-72.415 1.975-27.324.1-54.774.889-82.137V2015h132.6c11.787.181 27.605-.936 32.4-17-21.98-16.615-42.211-36.944-63.975-54.168-21.929-16.725-42.52-35.266-64.525-51.832-23.44 30.232-46.094 61.118-69.403 91.457-4.585 5.631-15.45 2.635-23.07 3.543H1387zm57-234.25c2.96 8.62 6.589 21.295 8 28.75h435c11.015-.06 22.01.074 33.021-.044 8.483-.31 18.049-.86 24.705-6.941 3.328-1.803 3.97-5.955 4.745-8.882-3.524-5.213-9.818-9.402-14.432-13.91-17.318-15.837-35.76-30.407-53.593-45.631-9.222-7.454-18.19-15.189-27.447-22.59a2527 2527 0 0 1-13.68-10.956c-4.695-3.063-9.284-8.53-14.319-10.046-7.89 13.575-19.484 25.378-28.31 38.46-8.616 11.235-16.85 22.757-25.57 33.909-3.922 4.802-7.371 9.955-11.28 14.753-3.865 4.359-12.307 2.355-18.537 2.878H1444zm77-591.25h72v-113h-72zm0 155h72v-127h-72zm95-404h74V805h-74zm46 492.375c56.888 39.216 113.046 82.42 161.37 132.495 12.271 12.785 23.992 26.106 35.014 39.997 3.748 4.551 7.349 11.83 13.915 12.953 22.748 5.682 49.39 3.8 67.922-12.219 18.9-14.873 26.094-40.79 22.562-63.75-4.39-26.296-20.534-49.136-41.536-65.049-31.4-25.384-70.945-38.904-110.06-46.673-43.24-8.714-87.623-8.194-131.458-6.116-3.64.162-7.25.862-10.801 1.458-2.695 1.739-4.789 4.588-6.928 6.904M1718 1162h76v-113h-76zm0 155h76v-127h-76z" style="fill:#000;fill-rule:evenodd;stroke:none"/></svg>