<svg xmlns="http://www.w3.org/2000/svg" width="3000" height="3000"><path d="M328 2803h2344c-118.785-721.214-240.618-1442.068-360.03-2163.199-7.528-45.17-15.046-90.339-22.588-135.492-1.756-10.718-3.574-21.44-5.367-32.15-1.463-5.102-.632-13.609-5.65-15.42-82.419-27.818-165.08-54.96-247.546-82.639-144.35-48.044-288.615-96.253-432.954-144.3-27.19-9.095-54.376-18.14-81.566-27.195-6.024-1.707-14.13-5.746-19.294-4.368-99.967 33.09-199.81 66.647-299.74 99.834a5130220 5130220 0 0 1-448.968 149.67c-9.274 3.513-19.03 5.778-28.13 9.725-3.665 1.962-2.298 9.57-3.876 12.727-22.54 135.51-45.194 271.003-67.739 406.508C542.266 1518.848 433.622 2160.802 328 2803m684-1823h937.2c10.178-.248 22.356.803 31.471-1.667 4.144-1.063 8.027-3.024 11.473-5.533 3.077-2.215 5.815-6.917 3.207-9.564C1953.546 923.282 1906.396 888.963 1862 852c-13.375 16.152-25.217 33.85-38.417 50.207-6.34 8.606-12.87 17.064-19.21 25.669-5.15 7.914-13.197 15.34-18.373 25.124h-182v-2c32.34-21.083 65.227-42.31 95.708-66.266 15.966-11.89 30.993-24.91 45.825-38.128 4.16-2.6 7.373-8.793 11.798-9.284 12.866-1.354 31.484-2.64 35.669-21.322-57.076-11.412-113.853-25.061-171-36v-3h271.2c14.997-.002 30.003.002 44.998-.001 11.398.329 27.036-1.926 33.802-15.499-45.872-36.34-90.986-74.701-139.5-107.5-14.843 17.948-29.024 36.447-43.586 54.61-5.511 6.738-10.812 13.66-16.323 20.397-4.888 5.883-9.393 12.093-14.435 17.839-2.797 2.7-6.968 2.04-10.653 2.154H1574v-77.4c.379-6.292-.524-13.83.435-19.553.393-4.094 8.639-3.25 11.053-5.07 10.933-2.822 24.428-11.004 25.512-25.977-63.74-3.063-127.283-9.554-191-13v141h-362c.898 9.604 5.945 18.415 7 28h187c16.187 29.673 29.368 61.74 35.063 95.361 1.779 8.916 2.69 17.944 2.979 27.027 1.149 6.814.369 13.609-.012 20.42-.37 4.861 4.426 8.547 8.035 11.153 11.157 8.279 23.334 15.598 36.935 19.039v3h-330c1.032 9.249 5.44 17.852 7 27m7 1579.5c1.189 4.484 2.916 8.816 3.97 13.367.943 3.776 2.234 7.438 3.404 11.122 1.436 2.342 5.8 1.729 7.824 2.01 9.001.003 18-.001 26.986.001h874.979c11.913-.37 23.972.735 35.789-1.097 4.365-.95 9.353-3.01 12.506-5.64 3.168-1.783 6.495-7.537 3.84-9.947-23.946-21.57-50.242-40.504-75.372-60.633-25.446-18.829-50.148-39.557-75.926-57.683-15.362 18.188-29.928 37.356-44.778 56.006-11.169 13.887-22.116 27.937-33.29 41.812-2.117 2.574-4.23 5.903-6.485 7.977-4.863 3.868-14.042 1.276-20.846 2.205H1579v-397h296.4c10.65.4 26.044-1.695 31.6-15.086-22.808-20.367-47.5-38.716-71.326-57.888-24.62-17.906-47.674-38.7-73.33-55.026-22.186 28.647-45.331 56.542-67.659 85.073-5.393 6.605-10.593 17.117-21.274 15.927H1579v-350h299.4c12.458-.13 24.93.314 37.354-.55 9.51-.338 20.384-2.034 25.613-10.84 2.692-3.944-1.372-7.137-4.399-9.408-47.751-38.222-96.034-76.753-144.968-113.202-16.135 23.769-36.246 45.605-53.187 68.973-7.852 10.038-15.742 20.037-23.57 30.082-1.852 2.336-3.545 5.164-6.364 6.475-216.466 2.1-433.443-1.17-649.879.97 1.984 3.395 2.44 8.977 4.367 13.254 1.115 4.613 3.374 9.87 3.633 14.246h347v350h-318c2.394 9.06 5.57 17.945 8 27h310v397h-395zM1136 1472c18.69.208 37.453.149 55.928-3.128 25.202-4.865 49.975-12.942 72.752-24.83 5.07-3.013 10.344-5.886 14.67-9.94 8.129-6.611 5.051-20.376 5.65-29.41V1373h129c.11 32.576-.342 65.156.697 97.716.676 22.399 4.038 45.949 15.89 65.448 18.188 28.498 53.697 37.403 84.985 41.04 35.38 5.09 71.22 3.76 106.824 3.796 98.694-1.215 198.322 4.596 296.341-10.141 21.582-3.252 47.53-11.164 62.586-24.98 11.426-12.704 16.259-31.172 12.164-47.857-5.763-27.326-34.042-36.452-54.484-44.564-2.655-1.211-1.648-6.424-2.528-8.676-1.244-24.076-1.381-48.235-2.658-72.317l-.61-22.02c-.243-3.521.034-7.703-.516-10.896.267-3.59-5.296-3.593-7.691-3.549-16.36 35.618-32.642 71.994-54.684 104.615-17.984 31.272-57.74 24.671-84.876 25.385h-152.313c-12.695-.397-25.428.528-38.088-.394-8.184-.977-17.607-3.024-22.192-10.467-3.902-5.88-4.099-13.052-3.847-19.8V1373h136v45c23.325.15 46.888.004 69.807-4.957 16.698-3.574 33.185-8.146 49.364-13.6 10.85-4.236 24.783-7.607 33.487-14.13 3.477-3.329 1.922-9.694 2.342-13.997V1108c13.12-2.442 25.821-8.74 35-18.5-45.148-32.904-89.41-67.46-134.5-100.5-16.864 19.732-35.91 37.554-52.734 57.32-3.766 4.1-8.25 9.033-12.252 12.212-4.908 3.03-13.015.395-18.374 1.468h-362.27c-8.517-.266-19.035 1.004-26.42-2.218-51-18.63-101.262-39.922-152.451-57.782zm149-268h129v-117h-97.8c-9.927 1.013-22.329-1.346-31.2 1zm129 142v-115h-97.8c-9.927 1.013-22.329-1.346-31.2 1v99.516c.01 2.773-.02 5.519.028 8.284-.52 6.762 5.403 6.578 9.943 6.2zm-111-567.5v1.5c12.423.847 24.377 5.292 36.368 8.284 18.965 5.543 37.02 13.646 53.478 24.605 12.099 7.943 24.653 19.802 32.122 30.8 12.773 19.418 15.493 45.417 4.094 66.156-9.806 19.782-28.81 34.564-50.062 40.155v3h167.4c4.596-.016 9.205.02 13.795-.011 8.129 1.146 9.297-11.334 11.232-16.758C1586.658 884.08 1597.542 830.642 1606 777h-303zm266 425.5h136v-117h-136zm0 142h136v-115h-136z" style="fill:#feddaa;fill-rule:evenodd;stroke:none"/><path d="M1003 952.5c2.63 9.466 5.55 18.965 8 28.5h942c10.367-.093 21.034.876 31.052-2.351 7.367-2.253 18.355-10.153 11.895-17.144-42.752-39.371-89.385-74.977-134.447-111.505-13.053 16.704-25.439 33.962-38.497 50.666-6.377 8.59-12.886 17.062-19.222 25.677-5.254 8.089-13.484 15.659-18.781 25.657-59.903-.76-120.209.926-180-.5 33.169-20.2 65.178-42.567 96.116-66.08 16.172-11.952 31.224-25.28 46.277-38.55 3.704-3.132 7.322-8.284 12.05-8.743 13.912-.708 31.437-4.114 35.557-23.127-57.424-11.605-114.664-24.468-172-36.5 60.428-1.426 120.987.26 181.438-.5h91.154c15.201-.024 30.387.029 45.586-.016 12.54.102 29.48-4.286 31.822-17.984-3.027-.868-5.902-4.395-8.976-6.472C1921.416 718.15 1877.73 683.95 1832.5 652c-14.997 17.529-28.728 36.151-43.298 54.032-11.242 13.21-21.234 27.555-32.808 40.449-2.248 2.287-7.071 1.084-10.491 1.519H1575v-77.4c.486-6.351-.812-13.254.978-19.376 7.932-3.555 17.854-3.829 24.843-9.76 6.47-5.19 11.49-12.853 11.179-21.464-64.418-2.804-128.584-10.065-193-13v141h-363c2.121 9.817 6.487 20.898 8 30h187c16.187 29.673 29.368 61.74 35.063 95.361 1.878 9.036 2.707 18.194 2.971 27.396.938 6.733-.06 13.463.007 20.217-.28 4.796 4.431 8.414 8.024 10.987 10.994 8.93 23.686 14.883 36.935 19.539-110.223 1.426-220.718-.26-331 .5zM1836.328 2449c-14.638 18.732-29.857 37.001-44.267 55.901-11.175 13.972-22.243 28.022-33.386 42.005-3.991 4.987-6.998 12.008-15.694 11.093-54.338.002-108.656 0-162.981.001v-395h277.2c10.809-.451 23.755.922 33.494-1.413 4.466-1.102 8.918-2.902 12.273-6.156 2.524-2.451 6.198-7.739 3.638-10.647-22.842-20.485-47.795-38.634-71.571-58.02-24.136-18.153-47.494-37.97-72.534-54.764-22.952 27.926-45.01 56.63-67.776 84.72-5.722 6.667-11.505 17.704-19.932 17.274-31.602.017-63.198-.003-94.792.006v-348h282.6c15.75-.17 31.522.21 47.256-.125 12.4-.889 29.218.424 35.144-16.422-48.848-42.337-101.918-79.684-152-120.453-18.31 22.505-36.046 45.815-54.083 68.608-7.99 9.92-15.646 20.109-23.63 30.03-1.81 2.334-3.762 5.299-5.947 6.941-6.23 2.972-13.008.343-19.689 1.421H1058c1.32 9.955 7.26 20.778 8 30h347v348h-318c1.23 9.966 5.965 19.212 8 29h310v395h-395c.969 8.37 4.722 16.238 6.468 24.444 1.154 5.507 7.35 4.549 11.728 4.556h885.866c16.072-.569 35.09.867 49.76-.894 5.416-.92 11.177-3.38 15.024-7.148 2.802-3.258 6.725-7.493 2.076-11.302-25.166-21.438-51.29-41.705-77.47-61.868-12.371-9.718-24.943-19.207-37.426-28.763-6.436-4.904-12.685-10.04-19.281-14.715-6.226-3.807-12.147-10.8-18.417-13.31M1135 1473c18.827.262 37.704.27 56.335-2.869 25.398-4.708 50.363-12.707 73.351-24.546 5.271-3.025 10.705-6.034 15.261-10.108 8.495-6.595 5.622-20.537 6.053-29.785V1374h127c.11 32.576-.342 65.156.697 97.716.676 22.399 4.038 45.949 15.89 65.448 18.188 28.498 53.697 37.403 84.985 41.04 35.379 5.09 71.221 3.76 106.825 3.796 99.173-1.228 199.282 4.579 297.8-10.054 21.751-3.258 47.95-11.13 63.126-25.067 11.617-12.903 16.167-31.611 12.458-48.55-5.113-27.251-32.8-37.756-53.551-45.256-3.083-1.072-3.306-4.961-3.585-7.758-1.674-23.962-1.19-48.07-2.777-72.046-.222-7.94-.44-15.895-.66-23.824-.113-3.968-.083-8.016-.633-11.924-.837-3.474-7.25-2.025-9.575-2.521-16.192 35.352-32.438 71.342-54.112 103.83-17.525 31.303-56.448 25.91-83.65 26.17h-151.112c-12.558-.288-25.114.371-37.66-.25-7.333-.498-17.213-2.404-22.771-9.453-4.295-5.4-4.82-12.615-4.695-19.17V1374h134v45c23.967.157 48.191.153 71.752-4.943 16.894-3.653 33.587-8.23 49.948-13.796 10.808-4.373 25.229-7.504 33.58-14.618 3.107-3.305.894-10.33 1.72-15.124V1109c13.687-2.432 26.588-9.295 36-19.5-45.378-34.306-91.208-68.08-136.5-102.5-17.33 19.513-35.878 37.923-53.118 57.515-3.68 4.425-7.796 8.53-12.026 12.412-4.273 3.32-12.044 1.514-18.017 2.073h-362.268c-9.152-.082-18.75 1.039-27.295-2.896-51.076-18.86-101.627-39.557-152.776-58.104zm151-270h127v-115h-96c-10.244 1.072-22.655-1.405-31 1zm127 142v-113h-96c-10.244 1.072-22.655-1.405-31 1v97.823c.029 2.807-.045 5.593.047 8.386-.341 6.374 4.963 5.937 9.924 5.791zm-109-566.75c44.295 8.651 92.849 25.057 121.064 63.176 13.493 19.432 16.403 45.989 5.991 67.4-9.286 21.55-29.45 35.638-51.055 42.674 55.376 1.426 111.069-.26 166.51.5h10.794c2.671-.393 7.56.496 8.309-2.4 14.605-41.932 23.182-85.779 31.979-129.208 3.104-13.766 4.189-28.274 7.408-41.892-100.165-1.046-200.812-.204-301-.25M1570 1203h134v-115h-134zm0 142h134v-113h-134z" style="fill:#000;fill-rule:evenodd;stroke:none"/></svg>