<svg xmlns="http://www.w3.org/2000/svg" width="3000" height="3000"><path d="M449 2666.5v1.5h2102v-1.5c-63.81-378.768-126.215-757.87-189.705-1136.696-47.349-283.998-94.654-568.016-142-852-4.398-26.67-8.911-53.338-13.325-80.003-1.118-6.656-2.232-13.342-3.35-19.985-.571-3.586-1.119-7.183-2.096-10.662-1.288-2.958-6.82-3.128-9.193-4.54-101.51-33.828-203.017-67.663-304.512-101.514a746151 746151 0 0 1-266.522-88.84c-39.072-12.89-78.06-26.135-117.144-38.98-4.713-1.335-9.273 1.032-13.839 2.453-144.507 48.104-288.95 96.378-433.449 144.467-54.18 18.08-108.385 36.116-162.566 54.195-23.808 7.923-47.625 15.882-71.434 23.805-5.676 1.96-11.407 3.738-17.06 5.726-6.564 1.113-6.72 8.744-7.34 13.268C740.08 921.349 682.77 1265.54 625.383 1609.692 566.339 1961.663 508.308 2314.864 449 2666.5m597-403.937c.777 2.24 2.996 3.55 4.344 5.437 32.006-15.593 61.82-35.639 90.733-56.318 14.586-10.768 28.656-22.156 42.488-33.853 6.63-6.404 14.066-11.87 20.537-18.431l9.768-9.768c3.007-2.704 6.197-7.144 10.13-7.63-.584 62.317-.176 125.72-14.69 186.748-3.678 13.62-8.24 27.31-16.252 39.066-7.148 10.424-17.246 13.138-28.33 13.956-17.685.658-35.364-1.449-53.012-1.846-17.18-1.613-34.65-1.223-51.716-3.924v10c27.322 5.398 58.9 22.904 72.405 45.439 13.772 27.395 13.715 64.352 14.595 91.561 27.304-.298 54.914-3.001 81.137-10.922 18.775-5.205 35.834-14.95 50.187-28.032 39.916-42.27 54.508-101.391 64.33-156.724 6.99-44.063 9.621-88.738 9.346-133.322 15.22-5.209 29.863-12.193 44.666-18.475 7.552-3.04 14.77-6.774 22.118-10.229 7.398-2.262 14.98-8.724 22.216-9.296v365c28.146.208 56.946.585 84.047-8.337 12.184-4.462 25.77-11.692 35.331-18.81 2.077-2.245 5.834-4.69 6.15-7.483 1.246-10.701-.145-21.631.472-32.37h176v62c19.805.385 39.792.768 59.204-3.835 13.728-2.979 27.419-6.29 40.675-10.985 9.102-3.783 19.184-6.248 27.07-12.496 3.617-2.423 2.931-8.014 3.051-11.883V2143c13.703-1.58 26.152-9.289 36-18.5-18.95-15.72-39.636-29.332-58.667-44.955-9.91-7.494-19.879-14.88-29.66-22.519-4.98-3.707-9.934-7.444-14.895-11.162-5.08-3.274-10.116-8.973-15.434-10.864-14.311 14.67-26.912 30.874-41.24 45.516-5.061 5.034-10.844 13.127-15.557 16.717-14.757 2.092-30.31-.302-45.234.767h-68.4c-11.415-.003-22.8.003-34.205-.002-10.165.268-19.047-5.82-28.708-7.998.508-4.26 6.211-6.273 9.057-8.7 27.704-18.434 53.865-39.093 79.95-59.71 19.425-15.723 38.568-31.81 56.926-48.736 3.6-2.837 10.08-1.46 15.119-1.854h182.179c18.398-.553 43.036 4.371 51.769-13.5-17.783-15.364-34.656-31.756-52.758-46.771-8.833-7.675-17.79-15.243-26.66-22.871a1155 1155 0 0 1-13.411-11.348c-4.154-2.954-8.344-7.925-12.835-9.51-14.609 19.14-28.226 39.03-42.916 58.116-3.759 4.865-7.124 10.004-10.892 14.861-1.336 1.983-2.903 3.747-4.835 5.139-8.644 1.99-18.121.072-26.945.884H1734c.942-5.675 8.811-9.911 12.602-15.102 34.484-34.73 66.231-72.098 96.71-110.372 14.694-19.122 29.088-38.45 42.44-58.525 3.564-4.855 6.52-10.128 9.952-15.073 2.88-3.502 4.854-8.827 8.442-10.369 11.829.161 28.058 2.562 35.854-12.559-24.513-10.839-48.042-24.287-72.34-35.681-11.63-6.083-23.093-12.438-34.994-17.994-12.116-4.829-25.126-14.13-36.666-17.325-12.661 34.629-32.62 66.24-49 99-5.75.162-10.86-6.483-16-10.193-14.9-11.383-28.342-25.642-44-35.807-7.187 13.005-19.591 26.457-26.975 37.974-4.618 6.494-9.373 12.868-14.116 19.267a284 284 0 0 1-7 9.563c-2.116 2.978-4.45 7.084-7.909 7.196v-94.8c.142-4.2-.928-10.407 3.77-11.131 10.35-2.998 24.747-6.462 26.23-22.069-51.643-4.084-103.466-8.047-155-13v145h-139c.938 4.214 2.651 8.233 3.569 12.453.9 2.915 1.504 5.904 2.744 8.693 1.218 4.65 10.2 1.939 13.246 2.854h98.05c6.348.257 14.107-.506 19.797.747 3.218 3.64.5 12.14 1.594 16.395V1946h-165v1.5c1.546 4.798 2.904 9.649 4.28 14.488.878 2.873 1.726 8.739 5.837 8.792 12.311.622 24.682-.11 36.996.22H1586c-1.162 6.727-10.108 11.996-14.546 18.132-17.907 20.938-38.203 39.638-57.43 59.343-4.879 4.807-10.272 9.029-15.01 13.984-3.882 4.457-8.704 3.35-13.177 1.085-14.742-5.544-29.748-10.73-44.337-16.544-1.381 15.95.215 32.207-.5 48.227-.104 6.036.283 12.158-.535 18.137-13.084 12.5-28.57 22.378-42.776 33.502-7.414 5.55-14.977 10.839-22.628 16.03-7.092 4.01-16.07 12.401-23.061 13.104.507-46.991-3.998-93.831-10.417-140.315-9.321-66.1-27.772-131.579-62.81-188.975-3.04-6.222-9.536-13.447-12.274-20.357 3.317-5.898 9.798-10.372 14.234-15.586 18.148-17.369 34.379-36.43 50.99-55.213 3.944-4.918 8.16-9.588 12.046-14.548 3.054-3.454 5.565-7.383 8.779-10.681 2.375-2.636 7.115-1.76 9.832-1.515 9.853.599 24.425-1.321 26.62-11.81-24.368-12.009-47.167-27.712-71.11-40.635-23.265-14.057-47.414-26.887-70.39-41.365-12.418 39.405-31.286 76.617-48.5 114-5.796-.194-10.981-6.787-16.222-10.399-34.555-27.184-72.569-50.017-112.361-68.601-1.75 1.901-3.621 3.655-5.417 5.5 22.272 21.89 43.569 44.874 61.985 70.174 13.199 18.353 25.91 37.163 35.674 57.628 4.766 7.944-3.617 17.557-7.266 24.19-30.903 52.006-66.29 101.56-107.393 146.008 1.841 2.753 4.018 5.13 6.344 7.5 25.89-11.973 50.216-27.465 74.121-42.962 12.06-7.168 23.276-15.648 34.509-24.013 5.705-4.202 11.377-8.44 16.877-12.909 5.687-3.599 11.11-10.713 17.149-11.116 3.163 8.438 4.018 17.393 1.459 26.176-10.216 64.161-29.116 126.983-55.201 186.417-25.109 56.906-56.814 112.082-97.258 159.407zM1087 1426c16.027.392 32.15.577 47.822-3.26 11.087-2.417 21.51-6.887 31.916-11.246 6.943-3.376 14.67-8.415 20.11-12.926 5.946-4.66 7.641-10.538 7.151-17.345.003-20.903 0-41.813.001-62.71V1279h42v91c15.943.286 32.157.54 47.694-3.776 11.23-2.92 22.42-5.918 33.088-10.536 7.714-2.958 15.147-6.582 22.185-10.873 6.772-3.94 4.82-12.474 5.033-18.426V881c11.461-1.351 25.212-7.77 32-16-21.61-18.174-44.76-34.81-66.759-52.579-8.266-6.81-16.955-13.058-25.246-19.83-1.773-1.596-3.825-2.773-5.794-4.076-7.842 2.324-13.458 13.474-19.595 18.38-5.862 5.647-10.941 11.985-16.708 17.707-4.999 4.87-8.784 11.113-14.649 15.097-5.586 2.62-14.171.415-20.144 1.301-11.592.929-21.995-4.358-32.332-8.902-29.432-11.505-58.136-25.239-87.773-36.098zm107-172h42V866h-42zm76 325.25c1.575 2.802 4.141 6.447 5.5 8.75 96.894-8.292 194.15-25.584 284.676-62.475 21.202-8.83 42.28-18.203 61.893-30.251 6.853-4.439 14.753-10.9 24.818-7.832 7.771 1.39 16.935.046 22.55-6.026 3.041-2.257-2.437-5.778-4.089-6.898-40.296-28.406-82.516-54.608-122.348-83.518v-2h362.4c13.62-.312 34.377 3.055 42.6-13.5a877 877 0 0 0-45.856-37.165c-7.704-6.304-15.929-11.961-23.776-18.067-4.051-2.928-7.993-6.021-12-9-3.46-2.848-9.772-6.26-10.368-10.268 8.178-1.694 17.179-6.461 24.015-9.724 4.95-2.649 5.493-6.945 4.985-11.575V1026c10.17-2.118 23.223-6.383 31-16.5-17.05-13.441-34.779-26.044-52.03-39.237-8.603-6.624-17.449-12.956-26.046-19.575-4.511-3.194-8.764-6.723-13.267-9.907-3.076-3.052-10.835-6.475-10.157-10.781 3.465-1.833 9.072-.416 13.498-1.199 16.64-.852 33.202-2.601 49.624-5.395 20.175-3.326 49.883-10.422 53.961-37.344.773-6.111.664-13.769-1.695-19.016-7.681-14.954-27.757-23.7-41.888-27.046-2.238-11.855-2.232-24.074-4-36-9.005-1.558-12.33 7.822-17.086 13.608-8.597 10.518-20.565 22.435-32.274 27.293-12.855 4.978-26.88 3.93-40.318 4.817-49.924.946-99.894.874-149.822 1.282-24.988-.353-49.967.485-74.932-.397-10.777-1.258-25.866 1.22-30.988-9.053-2.895-11.564-.792-23.796-1.58-35.55 59.43-.207 118.867-2.254 178.098-6.853 28.1-2.039 56.182-4.812 84.066-8.826 7.47-.918 14.88-2.194 22.31-3.259 10.016-1.287 19.42 4.76 29.407 5.38 9.985 1.895 19.994-1.399 28.119-6.942-23.34-20.759-47.344-40.82-70.86-61.384-4.507-3.89-8.815-7.984-13.451-11.712-4.044-2.986-8.358-8.901-12.937-7.162C1702.783 737.055 1620.35 760.896 1537 778v-19.8c.265-4.8-.4-10.505.405-14.854-.225-3.39 5.734-3.539 7.824-4.599 9.747-2.152 17.442-8.91 20.771-18.247-44.716-5.15-90.105-7.412-135-11.5v108c.266 25.327-2.604 51.945 7.408 76.007 6.252 17.262 23.776 26.72 40.276 31.331 27.837 6.934 56.836 7.527 85.342 7.662h90.5c52.852.794 105.659-.839 158.474-2-.995 5.22-8.11 9.43-11.294 14.699-7.768 8.114-16.31 18.104-23.449 25.53-3.775 3.43-6.958 7.386-10.262 11.23-3.792 4.852-8.705 4.953-14.055 4.541h-61.123c-15.17-.194-30.337.237-45.501-.13C1609.07 974.43 1573.07 954.972 1535 943v394c21.892.102 44.227-1.33 64.873-9.338 9.92-3.778 19.916-7.725 28.882-13.511 3.82-2.677 9.785-6.303 11.345-10.054 1.575-5.174.523-10.796.9-16.097h131v27c13.325-.027 26.844.545 40-2-.097 4.774-5.372 9.089-8.49 13.366-9.074 12.966-21.05 24.42-29.51 37.634h-284v-336c-1.42-9.976 7.637-10.322 13.974-12.696 6.167-2.727 11.252-8.494 12.026-15.304-44.67-3.777-89.364-7.93-134-12v451c23.477 1.041 47.04-.315 69.367-8.286 9.707-3.358 21.224-7.46 29.274-12.447 12.813-6.31 9-19.318 9.359-29.267h49v1.5c-2.39 5.589-8.644 11.323-12.996 16.961-34.438 39.31-76.68 70.744-119.491 100.223-43.376 27.556-88.7 52.344-136.513 71.316zM1567 2260h176v-138h-176zm0 169h176v-144h-176zm64-512h2c14.826-17.006 27.384-36.146 41.378-53.866 6.438-9.13 12.868-18.246 19.203-27.44 3.154-4.526 6.497-8.926 9.332-13.658 2.224-4.542 6.917-9.171 7.087-14.036h-79zm10-845h131v-61h-131zm0 94h131v-70h-131zm0 98h131v-73h-131zm55 151.328c46.487 39.693 93.043 81.765 130.853 130.446a448 448 0 0 1 13.576 18.896c3.875 4.95 6.046 11.361 10.917 15.531 10.895 4.69 25.957 7.217 36.835 6.12 17.985-2.189 34.884-11.93 44.31-27.63 9.145-15.043 11.184-33.711 6.263-50.58-5.884-21.375-20.978-38.761-37.95-52.246-24.558-19.976-60.7-31.426-88.413-37.893-34.461-7.457-69.782-8.365-104.876-7.97-4.918-.648-8.655 1.91-11.515 5.326" style="fill:#feddaa;fill-rule:evenodd;stroke:none"/><path d="M1044 2263.625c2.229 2.066 4.351 4.238 6.5 6.375 62.75-33.997 122.4-75.2 172-127 1.824 31.69-.888 63.75-1.83 95.47-1.382 22.576-3.349 45.183-7.647 67.415-2.905 16.572-6.98 33.042-13.937 48.412-4.35 10.903-12.235 21.534-24.111 24.664-9.317 2.609-19.012 2.154-28.519 1.558-29.16-1.525-58.412-2.402-87.456-5.519v12c27.322 5.398 58.9 22.904 72.405 45.439 13.772 27.395 13.715 64.352 14.595 91.561 27.356-.26 55.078-2.691 81.416-10.398 19.188-5.178 36.795-14.86 51.496-28.188 19.939-20.696 33.646-46.705 43.695-73.416 10.505-27.784 16.348-57.025 21.515-86.173 6.444-43.288 9.21-87.065 8.878-130.825 29.957-10.173 58.059-25.541 87-38v365c28.412.101 57.523.815 84.95-8.012 12.824-4.413 25.017-10.878 36.017-18.798 2.509-2.075 4.982-4.388 6.567-7.241 1.164-10.905-.077-22 .466-32.949h174v62c20.133.386 40.376.76 60.165-3.59 13.704-3.062 27.421-6.188 40.678-10.87 9.258-3.577 20.853-7.066 28.105-12.856 3.776-2.547 2.87-8.492 3.052-12.483V2144c14.141-1.728 27.018-9.75 37-19.5-19.088-16.508-40.702-29.982-60.018-46.227-20.477-14.537-39.677-31.359-60.482-45.273-14.257 14.29-26.552 30.377-40.725 44.74-5.33 5.248-10.388 12.53-15.433 17.182-5.103 3.821-14.614 1.027-21.61 2.078h-118.676c-12.661.964-24.762-2.951-36.056-8.5 37.895-25.538 74.339-53.295 109.391-82.625 6.687-5.488 13.05-11.32 19.64-16.897 6.593-4.983 11.952-11.43 18.577-16.34 69.83-1.818 140.09.33 210.005-.638 8.361.054 17.002.539 25.008-2.417 3.22-.994 6.572-3.24 8.616-5.543 1.576-1.844 4.37-6.336 2.546-8.13-33.633-32.158-70.004-61.564-105.283-91.91-14.056 19.752-28.835 39.248-43.127 58.876-3.745 4.888-7.278 9.941-10.916 14.897-2.626 3.731-5.25 7.786-11.18 7.214-15.332-.663-31.056.86-46.277-.487 63.957-62.556 120.413-132.628 169.25-207.5 13.654 3.833 30.016-.063 37.75-12.5-23.493-13.17-48.54-24.023-72.366-36.678-24.156-12.484-48.32-24.985-72.8-36.822-5.85 7.114-7.145 17.217-12.267 24.85-11.165 25.84-26.354 49.924-38.567 75.15-5.17-.949-9.49-7.775-14.763-10.816-14.15-12.318-28.837-24.2-43.237-36.184-19.121 24.354-36.555 50.44-55.5 75-1.426-24.88.259-50.174-.5-75.129v-19.143c-.056-4.366-.56-9.438 5.16-10.093 10.386-2.841 25.06-7.742 24.84-23.635-52.342-3.966-104.722-8.384-157-13v145h-139c.84 7.346 4.313 15.56 5.853 22.12 1.246 4.862 7.114 3.687 10.712 3.88h74.096c15.225.62 30.573-.76 45.744.422 2.772.38 2.285 5.284 2.593 7.19.006 42.8-.002 85.596.002 128.388h-165c.486 7.554 4.179 15.893 5.656 22.607.95 4.928 6.278 4.44 10.329 4.393h13.174c71.85.76 144.106-.926 215.841.5-20.225 23.49-42.051 45.55-64.233 67.233-5.468 5.564-10.954 11.141-16.956 16.105-4.28 3.436-7.69 9.78-13.315 8.06-17.008-5.297-33.245-13.47-50.496-17.898v48c-.156 5.75.314 12.624-.473 17.838-11.948 12.915-28.424 22.121-41.975 33.4-7.188 5.588-14.793 10.534-22.225 15.753-7.349 4.205-15.006 11.295-22.327 14.009.266-63.03-7.031-125.999-18.734-187.85-12.896-56.679-33.165-113.037-67.266-160.65 20.348-19.933 40.593-39.976 58.724-61.95 9.253-10.79 18.486-21.619 27.337-32.74 2.232-2.816 5.998-2.205 10.089-1.857 9.445.455 23.295-.62 27.85-12.297-23.641-14.586-48.296-27.917-72.11-42.291-12.043-7.215-24.33-14.017-36.41-21.157-6.048-3.52-12.106-7.017-18.124-10.58-6.119-2.62-12.228-8.57-18.356-9.628-11.127 39.76-31.49 76.455-48 114h-1.5c-37.856-32.72-81.495-57.73-126-80l-7.5 7.5c22.448 21.928 43.867 44.962 62.378 70.366 13.191 18.31 25.969 37.082 35.791 57.471 4.857 7.516-3.148 16.661-6.776 23.154-31.207 52.349-66.73 102.428-108.393 147.009 2.669 3.31 5.297 6.669 8.5 9.5 25.12-13.24 50.228-27.009 73.7-43.14 24.384-13.55 44.759-33.672 67.8-48.86.908 4.178 2.966 8.13 2.822 12.537-8.275 67.224-29.12 132.636-55.09 194.924-13.174 29.879-28.083 59.004-44.773 87.062-16.124 27.348-35.625 53.238-54.959 78.102M1086 1427c16.353.25 32.83.722 48.855-3.059 11.264-2.324 21.871-6.852 32.425-11.25 7.131-3.365 15.009-8.526 20.568-13.123 5.946-4.66 7.641-10.538 7.151-17.345.003-21.5 0-43.008.001-64.503V1280h40v91c16.438.323 33.107.642 49.163-3.627 11.399-2.972 22.777-6.003 33.62-10.685 7.854-3.023 15.471-6.69 22.604-11.14 6.237-3.805 4.45-13.296 4.613-19.358V882c10.575-1.53 26.175-7.296 33-17.5-33.445-26.965-67.888-52.754-101.5-79.5-11.562 14.097-25.15 26.912-37.428 40.466-5.041 4.4-9.304 12.858-15.233 14.17-13.047 1.452-26.515 1.025-38.446-4.52-33.24-13.343-66.012-28.243-99.393-41.116zm109-174h40V867h-40zm479 225.5c-43.292-29.245-86.88-58.457-130-88 91.474-1.426 183.453.26 275.023-.5h68.98c16.407-.909 36.654 1.978 51.145-3.209 4.025-2.318 11.252-8.279 8.64-12.875-28.225-26.163-60.62-47.627-90.788-71.416 9.019-3.645 22.931-7.89 28.51-14.172 1.399-35.662-.255-71.508.49-107.207V1027c11.456-1.945 25.899-8.368 32-17.5-33.524-27.005-69.31-51.21-103-78 33.11-6.068 71.927-1.32 102.243-20.322 14.507-9.517 20.483-30.967 12.877-46.728-4.035-7.138-10.563-12.711-17.826-16.316-7.283-3.39-15.877-8.06-23.294-9.134-2.238-11.855-2.232-24.074-4-36-3.608.213-8.942-.943-11.567 3.21-8.146 12.297-18.044 23.445-30 32.17-10.784 8.635-25.332 9.576-38.481 9.696-51.181 2.334-102.484.777-153.696 1.924-25.594-.324-51.183.404-76.77-.24-11.196-.951-26.816 1.025-33.848-7.173-2.989-5.025-2.386-12.278-2.638-17.361V807c59.43-.207 118.867-2.254 178.098-6.853 28.307-2.06 56.594-4.859 84.685-8.918 7.472-.857 14.866-2.3 22.31-3.196 8.573-.74 19.218 5.55 29.575 5.744 10.094 1.023 20.515-1.724 28.332-8.277-31.714-28.315-64.26-55.787-96.5-83.5-38.468 18.365-80.029 29.96-120.509 43-41.657 11.928-83.555 23.19-125.991 32v-19.8c.166-4.817-.403-9.841.712-14.537 5.258-3.84 13.495-2.957 18.486-7.87 5.226-3.67 9.214-9.306 9.802-15.793-45.672-3.466-91.28-8.202-137-11v109.2c.308 25.57-2.675 52.498 7.408 76.808 6.252 17.26 23.776 26.719 40.276 31.33 28.027 7 57.237 7.54 85.942 7.662h91.699c26.327-.078 52.621.167 78.937-.266l39.707-.63c12.591.466 25.548-2.133 38.031-.604-8.538 8.398-17.279 19.394-25.102 27.102-7.585 7.298-14.968 17.295-22.014 23.893-4.034 3.48-9.784 2.282-14.727 2.505h-60.456c-14.329-.692-31.342.884-44.426-.576-37.389-13.587-73.857-29.932-111.275-43.424v397c22.19.372 44.782-1.161 65.78-8.92 10.125-3.829 20.374-7.761 29.539-13.648 3.916-2.81 9.344-5.887 11.578-9.859 1.892-5.268.68-11.13 1.103-16.573h129v27c12.924-.937 26.93 1.53 39.5-2 .235.488.42.967.5 1.5-7.018 7.355-12.829 15.787-19.41 23.507-5.523 8.341-13.954 15.162-18.59 23.993h-282v-288c.015-16.014-.019-32.036.01-48.043-.773-8.528 10.044-8.034 15.481-11.392 6.282-3.348 10.311-9.654 11.509-16.565-45.707-3.253-91.303-8.544-137-12v453c23.748.941 47.688.034 70.34-7.974 9.953-3.325 21.714-7.52 29.975-12.554 13.128-6.245 9.437-19.37 9.685-29.472 15.609.705 31.477-.871 47 .5-34.181 43.743-78.294 79.202-124.024 110.184-45.223 31.01-94.268 56.666-144.976 77.316.3 3.192 2.477 6.487 4.232 8.749 1.367 2.984 6.484 1.135 8.916 1.294 76.219-5.576 152.009-19.198 224.99-41.965 29.252-9 57.59-20.49 85.318-33.344 13.53-6.568 26.59-14.07 39.5-21.768 7.06-5.576 14.368-1.734 22.54-2.052 7.958.14 14.997-4.11 19.504-10.414M1568 2259h174v-136h-174zm0 169h174v-142h-174zm64.5-512c27.14-33.905 52.499-69.369 76.5-105.5v-1.5h-77c.76 35.57-.926 71.548.5 107m9.5-845h129v-59h-129zm0 94h129v-68h-129zm0 98h129v-71h-129zm52 152.586c46.728 39.65 93.247 81.714 131.237 130.38 4.72 6.184 9.308 12.46 13.669 18.896 3.688 4.893 6.624 11.753 10.715 15.701 21.516 11.333 50.138 9.6 69.7-5.166 19.836-14.339 26.912-40.662 21.552-63.688-4.279-21.488-20.79-42.488-36.293-54.564-25.51-21.26-58.098-31.918-89.737-39.89-34.921-7.715-70.757-8.617-106.346-8.255-2.784.11-6.995-.264-8.832 1.349-1.903 1.484-4.479 3.637-5.665 5.237" style="fill:#000;fill-rule:evenodd;stroke:none"/></svg>