<svg xmlns="http://www.w3.org/2000/svg" width="3000" height="3000"><path d="M449 2666.5v1.5h2102v-1.5c-63.81-378.768-126.215-757.87-189.705-1136.696-47.349-283.998-94.654-568.016-142-852-4.398-26.67-8.911-53.338-13.325-80.003-1.118-6.656-2.232-13.342-3.35-19.985-.571-3.586-1.119-7.183-2.096-10.662-1.288-2.958-6.82-3.128-9.193-4.54-101.51-33.828-203.017-67.663-304.512-101.514a746151 746151 0 0 1-266.522-88.84c-39.072-12.89-78.06-26.135-117.144-38.98-4.713-1.335-9.273 1.032-13.839 2.453-144.507 48.104-288.95 96.378-433.449 144.467-54.18 18.08-108.385 36.116-162.566 54.195-23.808 7.923-47.625 15.882-71.434 23.805-5.676 1.96-11.407 3.738-17.06 5.726-6.564 1.113-6.72 8.744-7.34 13.268C740.08 921.349 682.77 1265.54 625.383 1609.692 566.339 1961.663 508.308 2314.864 449 2666.5m604-576.5c10.73-1.824 20.316-8.265 30.71-11.288 33.793-13.61 66.015-30.623 98.528-46.882 15.444-8.543 30.958-16.94 46.218-25.818 7.558-4.553 15.122-9.127 22.52-13.913 3.888-2.377 7.742-4.794 11.614-7.173 3.582-2.037 7.592-5.368 11.41-5.926 1.565 7.485 5.538 15.91 6 23h137v135c-97.929.76-196.151-.926-294 .5 3.344 6.995 3.444 15.301 6.953 22.245 6.701 2.525 13.365.403 20.416 1.255H1417v301h-341c.422 8.356 5.769 17.308 6 25h804.6c16.096-.453 37.177 1.745 44.4-13.5-41.593-39.276-89.779-70.812-133.5-107.5-13.863 17.206-26.88 35.11-40.568 52.457-9.87 13.393-20.384 26.285-30.434 39.522-3.99 5.786-13.262 3.58-19.281 4.021H1556v-301h292.2c9.036-.075 18.512.935 27.048-2.764 3.399-1.381 6.16-3.872 8.273-6.798 2.057-3.816-1.006-6.194-3.608-8.078-18.903-16.601-38.63-32.207-58.203-47.997-19.6-14.702-37.79-31.898-58.21-45.363-21.627 28.948-44.62 57.68-65.5 87h-142v-135h85.8c14.408-.059 28.83.072 43.23-.04 11.378-.778 27.016 1.4 33.97-13.46-35.834-31.398-73.917-60.281-111.5-89.5-16.907 21.724-34.035 43.314-51.14 64.895-3.246 3.736-6.356 8.927-10.002 11.708-5.234 2.882-11.086.377-16.756 1.397H1278v-3c26.33-15.453 50.797-34.856 75.294-53.171 37.37-28.432 72.03-60.185 105.417-93.076 15.55-17.766 32.879-33.98 47.05-52.965 7.566-8.885 14.357-18.335 21.214-27.762 3.573-4.664 6.702-9.657 10.092-14.449 3.789-3.859 5.753-11.858 10.933-12.577 22.879 74.098 65.273 140.9 118.394 196.894 52.867 54.934 116.551 97.985 182.106 136.106 5.904-30.03 18.276-58.967 36.505-83.665 18.039-24.716 42.85-45.574 72.995-53.335-.088-4.202.06-8.399 1-12.5-3.322-2.159-9.024-2.248-13.44-3.691-72.714-15.655-144.565-36.122-213.278-64.755-33.171-14.206-64.994-31.533-94.896-51.73-15.278-10.026-28.812-22.245-42.568-34.147-6.769-5.807-13.272-13.938-18.914-19.784-3.076-3.306-5.879-6.873-8.819-10.288-2.53-3.376-6.751-6.988-7.085-11.105 9.839-.589 19.694-2.57 29.232-4.948 8.522-2.185 17.574-6.468 20.768-15.427-2.874-2.57-8.387-2.803-12.532-4.273-62.5-16.445-124.985-32.878-187.468-49.352-12.103 47.795-35.62 91.782-61.056 133.621-38.382 61.976-84.977 118.65-134.562 171.894-49.754 53.213-104.588 101.821-164.382 143.485.335 2.633 2.35 4.523 3 7m1-1085.5c1.084 3.957 2.598 7.751 3.521 11.78.825 3.3 1.889 6.519 3.01 9.705.934 2.286 5.262 1.6 7.095 2.013 7.982.006 15.97-.001 23.945.002h418.389c4.5-.04 9.104.296 13.465-1.028 3.924-.83 7.914-3.75 11.575-3.972v397.2c.782 30.815-1.872 62.018 3.27 92.54 2.563 11.745 6.262 23.559 13.506 33.304 13.836 19.4 38.933 25.444 60.96 28.698 44.007 4.745 88.432 2.983 132.605 2.88 32.588-.31 65.194-1.057 97.582-4.977 22.939-3.294 46.227-7.511 67.297-17.545 15.065-6.88 28.078-19.373 33.862-35.089 4.308-12.16 3.858-27.952-1.167-38.677-3.638-8.766-10.873-15.459-18.684-20.473-5.502-3.908-11.685-6.476-17.747-9.287-4.946-1.952-2.89-10.634-3.78-14.643-1.742-16.067-2.051-35.043-3.436-49.784L1899 1385c7.484-1.009 17.805-4.194 21-13.687-31.945-27.048-64.846-53.52-98.5-78.313-9.678 11.662-18.566 23.952-28.213 35.637-7.02 8.934-14.032 17.865-21.045 26.795-5.052 7.98-17.633 5.012-25.555 5.568H1659v-76h188.4c14.078-.626 31.903 3.065 41.454-8.716 4.299-5.392-2.76-8.557-5.95-11.897-26.486-23.231-54.135-46.262-82.904-66.387-17.104 20.034-32.175 42.138-49.374 62.13-7.397 1.714-15.377.316-22.915.87H1659v-72h190.8c10.63-.184 21.244.237 31.865-.161 7.827-.29 18.295-3.416 21.335-13.386-25.073-23.391-52.49-45.257-80-65.453v-3c20.331-3.693 44.34-9.332 61.754-16.945 5.423-2.278 4.128-9.85 4.246-14.83V975c13.398-2.78 26.763-7.91 36-18.5-37.355-28.012-75.28-55.327-112.5-83.5-9.423 9.844-18.527 20.032-27.453 30.324-7.244 7.455-13.62 15.646-20.918 23.046-5.34 6.516-16.166 4.285-23.544 4.63H1663v-72h209.4c11.618-.002 23.22.002 34.832-.001 10.266.656 23.28-4.208 25.768-13.546-36.567-33.174-74.492-64.92-112.5-96.453-17.796 25.522-36.487 50.67-54.576 76.03-2.298 3.127-4.34 6.516-7.242 9.116-7.627 1.78-16.304.213-24.168.854H1663v-96c7.283-.136 15.844-2.796 21.594-6.102 6.102-3.75 10.047-11.773 11.406-17.898-53.633-4.217-107.472-7.988-161-13v307c-4.734-.217-9.104-5.667-13.355-8.904-27.222-24.073-54.66-48.647-83.145-71.096-9.68 11.915-17.945 24.931-27.475 36.974-8.447 12.941-19.113 24.87-27.025 38.026h-54v-2.5c24.666-21.316 45.748-46.39 68.996-69.119 10.684-12.306 22.014-24.031 32.39-36.61 4.524-6.801 15.637-4.441 22.191-7.538 6.518-2.84 14.632-8.684 15.423-15.233-37.268-8.863-74.676-17.387-112-26v-3c47.227-.81 94.6.988 141.78-.534 5.148-.967 10.128-3.547 13.58-7.524 4.087-4.647.53-7.996-2.835-10.917-22.395-22.397-47.318-42.007-71.044-62.926-3.994-3.548-8.277-6.735-12.232-10.32-3.79-2.734-8.313-8.107-12.249-8.779-.944 3.893-5.352 7.606-7.682 11.615-9.325 13.169-18.894 26.16-28.41 39.19-4.687 6.565-9.479 13.01-14.153 19.57-4.483 8.686-14.544 6.701-22.755 6.625v-64.2c.22-5.193-.318-11.349.29-16.088-.145-3.566 5.426-4.195 7.86-5.273 9.476-2.213 19.94-8.218 21.85-20.439-25.786-.879-51.468-4.07-77.205-5.63-26.186-2.71-52.686-3.254-78.795-6.37v118c-50.264.76-100.81-.926-151 .5 3.328 7.354 4.397 15.845 7 23.5h66c10.73 28.312 20.399 57.357 22.866 87.829.613 8.194 1.217 16.416.983 24.622-.191 6.119-.697 12.185-1.283 18.265-.606 4.109 4.316 7.217 6.672 9.933 9.035 7.647 19.577 15.14 31.762 16.351v3h-144zm53 580.5c34.443 1.496 69.454-3.892 99.712-21.411 6.676-3.896 14.583-9.298 18.586-15.284 3.046-5.18.925-13.798 1.702-20.57V1347h110c-.08 34.415.096 68.834-.052 103.244-.113 3.787-.967 7.839-3.679 10.676-4.688 4.607-14.182 2.555-21.129 3.08-21.423.237-42.758-2.147-64.14-3v9c12.178 3.23 25.081 5.793 35.801 12.871 15.781 10.432 26.68 27.553 30.628 45.848 2.464 9.683 3.217 19.696 4.466 29.576 1.449 9.862.274 21.755 2.105 30.705 19.629-.288 42.446-5.132 59.932-8.996 26.71-6.702 54.763-20.073 68.348-45.593 13.953-27.412 13.773-59.054 14.682-88.875.108-57.32-.02-114.657.038-171.966v-107.856c.217-5.167-.314-11.305.292-16.018-.174-3.776 6.185-4.034 8.649-5.115 10.385-2.608 19.838-8.211 27.059-16.081-38.509-30.236-78.354-58.823-116.5-89.5-17.107 21.66-37.95 41.103-54.5 63h-62.4c-14.759-.153-32.719 1.58-45.296-4.281-38.18-14.641-76.016-30.47-114.304-44.719zm50-739.5v1.5c36.711 11.033 74.024 29.387 96.778 61.61 11.024 16.427 16.658 38.324 8.23 57.188-6.96 17.553-26.114 34.074-44.008 35.202v3h69.6c5.435-.09 10.962.265 16.328-.523 3.326-1.98 2-9.21 3.682-12.144 4.858-29.929 9.018-59.96 12.988-90.008 3.315-18.466 3.633-37.326 6.402-55.825-2.89-2.003-6.668-1.247-9.983-1.5H1157zm51 1355.71c14.168 38.273 22.192 79.032 27.156 119.542 1.746 16.203 2.633 32.625 2.5 48.905-.008 6.907-.974 15.108-.19 21.4 14.223 18.69 41.809 32.801 63.436 31.902 37.137-.762 68.877-34.153 70.566-70.763 1.406-18.703-4.583-37.228-13.155-53.514-8.677-15.828-21.222-29.147-33.937-41.75-14.986-13.705-32.092-24.593-49.926-34.131-18.75-9.872-38.945-16.79-58.526-24.53l-.424-.271c-2.123 1.57-5.177 2.381-7.5 3zm19-991.21h110v-84h-110zm0 112h110v-87h-110zm310-317.5v1.5c36.884 12.242 73.047 27.295 109.772 40.137 9.212 2.95 19.801 8.62 28.836 8.858 31.132.015 62.27-.003 93.392.005V955h-106c-.364 6.186 1.008 14.198-1.95 19.39-5.974 6.85-18.504 10.658-26.67 14.318-31.136 11.48-64.445 15.029-97.38 14.292zm59 1417.5c2.797.821 5.787 3.35 8.5 5 38.352-26.648 74.942-56.051 109.472-87.494 17.293-16.587 34.664-32.985 51.26-50.239 4.187-4.293 8.56-8.411 12.664-12.783 2.986-4.394 6.129-7.034 11.264-6.492 12.548-.353 29.07-4.843 31.84-17.992-57.344-18.674-113.614-41.33-171-60-15.556 77.148-34.034 153.905-54 230m63-1257h87.6c3.17-.09 7.061.45 9.862-2.318 6.937-8.582 13.602-17.403 20.512-26.008 3.435-4.318 6.81-8.68 10.124-13.076 2.856-4.137 8.24-9.332 8.902-13.598h-27v-30h-110zm230 220h-230v36c.407 8.583-.82 18.961 1.236 26.662 5.136 13.141 22.431 10.643 33.123 11.338h92.671c13.07.13 26.105-.246 39.158-.894 20.32-.465 32.027-13.278 40.95-28.47 4.198-6.987 8.624-13.854 12.197-21.188 3.325-7.482 9.837-15.768 10.665-23.448" style="fill:#feddaa;fill-rule:evenodd;stroke:none"/><path d="M1048 2082.5c.88 3.355 3.942 7.188 5.5 9.5 38.805-14.996 77.057-31.67 113.926-50.968 35.785-18.913 71.396-38.587 105.074-61.032 2.466 6.476 5.43 15.437 6.5 23h137v133h-294c1.626 7.701 3.976 15.393 6.189 22.935 1.02 4.533 9.204 2.42 12.192 3.065H1416v299h-342c1.626 8.86 6.127 18.764 7 27h808.8c14.138-.306 35.597 1.945 43.2-15.5-43.128-38.473-90.892-71.78-135.5-108.5-14.268 16.848-26.804 35.131-40.671 52.294-9.886 13.352-20.385 26.227-30.38 39.483-3.768 6.815-11.869 5.235-18.434 5.223H1557v-299h297.6c11.336.002 26.637.746 32.4-14.5-39.918-34.987-82.496-66.857-123.5-100.5-21.135 30.168-45.64 58.759-66.5 89h-140v-133h73.8c18.614-.082 37.21.1 55.823-.054 10.763-1.271 27.327 1.587 32.543-12.94 1.299-4.336-5.577-7.428-7.78-10.103-23.477-20.552-48.584-39.078-72.78-58.734-10.177-8.294-20.916-15.902-31.106-24.169-17.203 21.208-33.55 43.115-50.885 64.218-3.158 4.083-6.157 8.337-9.68 12.118-3.714 3.786-10.59 2.359-15.338 2.664H1280.5l-1.5-.5c52.08-32.735 99.799-72.396 145.64-113.221 45.71-42.342 88.1-88.67 121.86-141.279 14.278 36.206 27.305 73.704 49.129 106.422 30.612 49.604 69.445 94.411 114.092 131.833 43.107 36.7 90.914 67.45 139.779 95.745 5.37-30.28 18.21-59.355 36.21-84.283 18.073-24.88 42.992-45.903 73.29-53.717-.774-5.073 2.871-14.783-2.854-15.978-5.617-1.492-11.342-2.514-16.975-3.885-70.901-15.81-141.217-35.468-208.094-64.103-64.908-27.609-126.561-67.101-170.077-123.534 18.86-3.57 45.088-4.043 51-23.5-67.77-16.995-135.127-36.51-203-53-12.103 47.795-35.62 91.782-61.056 133.621-38.447 62.139-85.208 118.87-134.856 172.267-50.351 52.444-104.33 102.94-165.088 143.112zM1534 1024v396c.93 30.903-1.964 62.179 3.1 92.803 2.53 11.714 6.04 23.625 13.115 33.464 13.331 19.497 38.011 25.84 59.806 29.223 43.98 5.152 88.46 3.145 132.63 3.19 32.68-.2 65.405-.863 97.897-4.65 22.896-3.288 46.343-6.96 67.588-16.568 15.346-6.112 28.769-17.831 35.605-33.018 4.912-11.925 5.761-28.205 2.016-39.491-5.717-18.447-23.76-28.243-40.124-35.257-2.973-7.455-1.207-19.446-2.852-28.89-1.21-9.968-1.227-20.024-1.915-30.02-.135-1.63-.49-3.207-.866-4.786 5.747-.683 11.494-2.72 16.055-6.296 2.405-1.828 3.842-4.526 4.435-7.39.371-2.658-3.35-4.604-4.676-6.144a496 496 0 0 0-20.218-17.272c-24.55-19.359-49.243-39.091-74.096-57.898-9.985 11.262-18.462 23.784-28.137 35.29-6.96 8.978-14.068 17.818-21.02 26.792-5.069 9.136-15.892 6.956-24.686 6.918H1660v-74h190.8c14.24-.4 33.905 2.772 40.365-11.26 1.812-5.745-4.944-8.541-7.766-11.845-27.09-23.172-54.516-47.019-84.07-66.895-16.325 20.78-32.281 41.926-49.007 62.371-2.254 2.694-8.226.99-11.073 1.629H1660v-70h187.8c14.555-.917 32.398 1.695 45.379-2.334 4.481-1.846 9.076-5.363 10.108-10.39 1.25-4.202-5.352-8.058-7.518-10.662-22.95-20.415-47.493-39.43-71.769-58.114 14.06-3.697 28.617-5.675 42.457-10.35 5.221-1.375 10.275-3.244 15.269-5.24 11.18-2.765 8.01-15.554 8.274-24.464V976c13.966-2.738 27.531-8.475 37-19.5-19.78-15.589-40.691-29.77-60.615-45.182-15.49-11.152-30.554-22.865-46.017-34.05-2.872-1.65-5.833-5.191-8.873-4.68-9.75 8.573-19.152 20.968-27.333 29.601-7.064 7.395-13.452 15.363-20.557 22.706-5.79 7.099-15.354 4.798-22.781 5.105H1664v-70h226.8c9.014-.424 19.846.75 27.998-.978 6.004-1.773 15.389-5.903 14.647-14.443-35.766-34.52-75.403-65.013-112.945-97.579-18.477 25.036-36.195 50.674-54.663 75.718-2.407 2.957-4.599 6.94-7.053 9.44-2.369 2.434-7.152 1.648-10.879 1.842H1664v-94c14.077-.353 31.612-6.689 33-26-54.325-4.113-108.721-8.297-163-13v307h-1.5c-30.773-27.476-61.642-55.498-94-81-10.319 11.812-18.324 25.49-28.232 37.632-8.53 13.061-19.271 25.104-27.268 38.368-17.246-.718-34.877.885-52-.5 24.812-21.583 46.262-46.754 69.597-69.806 10.704-12.457 22.367-24.091 32.609-36.96 4.709-5.766 16.055-3.07 23.267-7.295 6.617-3.35 12.87-8.85 14.527-16.439-37.57-9.057-75.577-16.805-113-26.5 28.05-1.426 56.297.259 84.385-.5h42.56c11.373.319 26.44.932 32.055-14.5-15.782-16.44-33.14-31.14-50.238-46.15-8.632-7.506-17.523-14.71-26.133-22.226-4.21-3.82-8.792-7.192-13.003-11.007-4.05-3.168-9.05-8.362-12.962-10.117-11.017 14.654-21.662 29.721-32.44 44.567-5.316 7.592-10.992 14.884-16.3 22.464-2.815 3.511-5.255 8.007-9.016 10.51-4.916.666-9.955.405-14.908.459v-64.8c.51-5.22-.84-11 .991-15.993 11.182-4.771 28.113-6.88 29.009-25.207-26.317-1.05-52.554-4.051-78.833-5.787-26.366-2.358-52.83-3.652-79.167-6.213v118h-151v1.5c2.548 8.106 4.85 16.287 7 24.5h66c10.73 28.312 20.399 57.357 22.866 87.829.594 8.144 1.247 16.33.918 24.487-.022 6.236-1.063 12.394-1.43 18.583.001 4.03 4.369 7.05 6.884 9.75 8.985 8.147 19.74 14.544 31.762 16.851-47.944 1.426-96.039-.26-144 .5.8 6.576 3.983 15.09 6.079 22.642.71 4.444 8.163 3.053 11.112 3.358h439.359c4.695-.109 9.525.36 14.127-.817 3.598-.474 7.622-3.267 10.323-4.183m-428 562c18.484.45 37.118.424 55.224-3.938 12.214-2.861 24.305-6.55 35.64-12.012 8.574-3.886 16.97-8.349 24.052-14.636 2.821-2.266 4.952-5.13 6.616-8.29 1.334-27.811-.242-55.829.468-83.667V1348h108c-.14 34.013.17 68.049-.092 102.055-.068 10.465-7.149 13.886-15.26 12.945-24.615.536-49.093-1.997-73.648-3v11c12.34 3.236 25.411 5.903 36.238 13.134 15.918 10.675 26.568 28.012 30.436 46.53 2.322 9.806 3.167 19.883 4.331 29.863 1.624 9.69-.185 21.853 2.495 30.473 23.057-3.296 47.185-4.86 69.625-12.305 18.247-5.398 35.888-14.264 48.977-28.297 12.793-12.014 18.073-29.559 21.358-46.188 5.977-32.208 3.881-65.258 4.54-97.817v-248.667c.17-4.314-1.107-9.91 4.679-10.938 12.401-2.701 23.925-8.619 32.321-18.288-19.574-15.47-39.583-30.444-59.402-45.597-9.88-7.739-20.017-15.144-29.908-22.862-10.27-6.645-19.046-16.156-29.69-22.041-9.48 10.27-18.763 20.941-28.005 31.46-4.685 4.996-9.724 11.266-13.967 15.892-2.436 2.494-4.802 5.016-6.936 7.774-1.913 2.583-5.265 4.979-6.092 7.874h-62.4c-15.108-.072-30.833 1.703-44.818-4.892-38.332-14.757-76.493-30.347-114.782-45.108zm52-740.625c36.165 12.65 74.78 29.246 97.063 62.702 10.98 16.767 16.392 38.983 8.178 58.186-7.454 18.376-24.34 33.013-44.241 36.237 14.3 1.18 28.714-.013 43.032.5h32.194c3.194-.415 9.203.862 10.362-2.471 5.167-24.914 8.074-50.26 11.753-75.418 1.619-12.893 3.53-25.745 5.1-38.636.887-6.69 1.36-13.424 2.29-20.097 1.876-6.425-.195-14.787 2.269-19.878-2.826-2.03-6.58-1.24-9.898-1.5-52.61.57-105.592-.694-158.102.375m77 1546.125c16.443 17.053 38.224 32.74 63.102 32.5 24.42.802 47.833-12.554 61.154-32.693 23.502-34.55 13.482-82.015-12.453-112.063-28.376-36.619-69.67-59.927-112.55-75.327-4.517-1.66-8.985-3.442-13.566-4.896-5.312-2.717-9.146-.36-13.687.979 3.755 15.167 10.414 29.7 13.27 45.168 10.8 47.518 19.914 97.643 14.73 146.332m-7-1182.5h108v-82h-108zm0 112h108v-85h-108zm310-316.75c35.815 13.888 72.679 26.884 108.726 40.515 9.099 2.77 19.323 8.387 28.12 9.199 31.053.103 62.104-.019 93.154.036v-98h-104c-.364 6.186 1.008 14.198-1.95 19.39-5.974 6.85-18.504 10.658-26.67 14.318-31.1 11.865-64.524 14.566-97.38 14.542m56 1417.375c3.718 2.3 8.492 6.895 12.474 5.232 4.677-2.409 9.496-6.634 13.614-9.155 35.588-25.75 69.842-53.518 101.722-83.738 8.74-7.235 16.15-15.96 24.423-23.697 11.512-12.227 24.234-23.317 35.364-35.966 3.093-3.953 7.535-3.182 12.03-3.447 12.21-.604 24.676-6.137 29.373-17.932-4.84-4.604-14.739-5.075-21.534-8.744-50.533-18.328-101.435-35.98-151.966-54.178-17.53 77.1-32.89 156.063-55.5 231.625M1660 1164h85.8c3.016.04 7.125.23 9.54-2.21 13.707-16.343 26.031-33.884 39.66-50.29-8.848-1.3-18.072.134-27-.5v-30h-108zm228 222h-228v35.15c.34 8.25-.763 18.216 1.267 25.61 4.95 12.677 21.504 10.629 31.895 11.24h90.873c12.976.166 25.938-.2 38.89-.835 8.85-.4 18.083-2.593 25.23-8.101 9.221-7.821 16.826-19.93 22.442-29.312 5.727-11.232 13.098-21.841 17.403-33.752" style="fill:#000;fill-rule:evenodd;stroke:none"/></svg>