<svg xmlns="http://www.w3.org/2000/svg" width="3000" height="3000"><path d="M449 2666.5v1.5h2102v-1.5c-63.81-378.768-126.215-757.87-189.705-1136.696-47.349-283.998-94.654-568.016-142-852-4.398-26.67-8.911-53.338-13.325-80.003-1.118-6.656-2.232-13.342-3.35-19.985-.571-3.586-1.119-7.183-2.096-10.662-1.288-2.958-6.82-3.128-9.193-4.54-101.51-33.828-203.017-67.663-304.512-101.514a746151 746151 0 0 1-266.522-88.84c-39.072-12.89-78.06-26.135-117.144-38.98-4.713-1.335-9.273 1.032-13.839 2.453-144.507 48.104-288.95 96.378-433.449 144.467-54.18 18.08-108.385 36.116-162.566 54.195-23.808 7.923-47.625 15.882-71.434 23.805-5.676 1.96-11.407 3.738-17.06 5.726-6.564 1.113-6.72 8.744-7.34 13.268C740.08 921.349 682.77 1265.54 625.383 1609.692 566.339 1961.663 508.308 2314.864 449 2666.5m604-576.5c10.73-1.824 20.316-8.265 30.71-11.288 33.793-13.61 66.015-30.623 98.528-46.882 15.444-8.543 30.958-16.94 46.218-25.818 7.558-4.553 15.122-9.127 22.52-13.913 3.888-2.377 7.742-4.794 11.614-7.173 3.582-2.037 7.592-5.368 11.41-5.926 1.565 7.485 5.538 15.91 6 23h137v135c-97.929.76-196.151-.926-294 .5 3.344 6.995 3.444 15.301 6.953 22.245 6.701 2.525 13.365.403 20.416 1.255H1417v301h-341c.422 8.356 5.769 17.308 6 25h804.6c16.096-.453 37.177 1.745 44.4-13.5-41.593-39.276-89.779-70.812-133.5-107.5-13.863 17.206-26.88 35.11-40.568 52.457-9.87 13.393-20.384 26.285-30.434 39.522-3.99 5.786-13.262 3.58-19.281 4.021H1556v-301h292.2c9.036-.075 18.512.935 27.048-2.764 3.399-1.381 6.16-3.872 8.273-6.798 2.057-3.816-1.006-6.194-3.608-8.078-18.903-16.601-38.63-32.207-58.203-47.997-19.6-14.702-37.79-31.898-58.21-45.363-21.627 28.948-44.62 57.68-65.5 87h-142v-135h85.8c14.408-.059 28.83.072 43.23-.04 11.378-.778 27.016 1.4 33.97-13.46-35.834-31.398-73.917-60.281-111.5-89.5-16.907 21.724-34.035 43.314-51.14 64.895-3.246 3.736-6.356 8.927-10.002 11.708-5.234 2.882-11.086.377-16.756 1.397H1278v-3c26.33-15.453 50.797-34.856 75.294-53.171 37.37-28.432 72.03-60.185 105.417-93.076 15.55-17.766 32.879-33.98 47.05-52.965 7.566-8.885 14.357-18.335 21.214-27.762 3.573-4.664 6.702-9.657 10.092-14.449 3.789-3.859 5.753-11.858 10.933-12.577 22.879 74.098 65.273 140.9 118.394 196.894 52.867 54.934 116.551 97.985 182.106 136.106 5.904-30.03 18.276-58.967 36.505-83.665 18.039-24.716 42.85-45.574 72.995-53.335-.088-4.202.06-8.399 1-12.5-3.322-2.159-9.024-2.248-13.44-3.691-72.714-15.655-144.565-36.122-213.278-64.755-33.171-14.206-64.994-31.533-94.896-51.73-15.278-10.026-28.812-22.245-42.568-34.147-6.769-5.807-13.272-13.938-18.914-19.784-3.076-3.306-5.879-6.873-8.819-10.288-2.53-3.376-6.751-6.988-7.085-11.105 9.839-.589 19.694-2.57 29.232-4.948 8.522-2.185 17.574-6.468 20.768-15.427-2.874-2.57-8.387-2.803-12.532-4.273-62.5-16.445-124.985-32.878-187.468-49.352-12.103 47.795-35.62 91.782-61.056 133.621-38.382 61.976-84.977 118.65-134.562 171.894-49.754 53.213-104.588 101.821-164.382 143.485.335 2.633 2.35 4.523 3 7m372-869v367c21.575.332 43.392.341 64.437-5.12 13.941-3.55 27.372-8.725 40.33-14.93 9.029-5.296 18.783-9.567 26.881-16.31 2.792-2.65 6.427-5.773 8.152-8.885 2.472-7.58.328-16.031 1.2-23.817V1221h291c16.214-.005 32.436.006 48.643-.003 14.09-.204 33.108.552 38.357-13.661-43.711-37.993-91.026-71.582-136.5-107.336-13.63 17.498-27.218 35.023-41.137 52.29a5611 5611 0 0 1-30.758 39.239c-4.545 6.195-12.718 4.164-18.809 4.471H1566V968h260.4c11.036-.132 22.062.167 33.09-.106 8.291.077 16.851-3.33 21.02-10.85.41-3.698-4.015-5.996-6.314-8.228-40.76-34.9-84.322-66.357-126.196-99.816-22.366 27.426-43.445 56.23-65.536 83.945-2.82 3.24-5.457 7.697-8.654 10.072-8.603 2.224-18.242.07-27.077.983H1566V745c13.397-1.072 32.447-7.356 34-25-58.228-6.27-116.838-10.334-175-17v241h-137v-1.5c24.306-40.62 47.848-82.22 65-126.5 15 1.224 31.195-4.29 38-18.5-60.792-18.633-122.013-36.435-183-54.5-9.914 70.8-28.61 140.356-50.9 208.181-22.592 64.906-48.384 129.376-84.1 188.319 2.373 2.358 5.202 4.093 8.394 5.008 2.872-2.043 6.348-3.566 9.142-5.845 54.523-33.773 102.143-77.644 144.247-125.652 10.32-12.275 20.7-24.508 29.993-37.578 1.65-2.498 3.852-5.416 6.125-6.975 51.286-1.305 102.77.237 154.099-.458v228h-367c1.362 7.743 4.434 15.28 6.47 22.837 1.652 3.508 8.575 1.401 11.325 2.163zm-217 980.21c14.168 38.273 22.192 79.032 27.156 119.542 1.746 16.203 2.633 32.625 2.5 48.905-.008 6.907-.974 15.108-.19 21.4 14.223 18.69 41.809 32.801 63.436 31.902 37.137-.762 68.877-34.153 70.566-70.763 1.406-18.703-4.583-37.228-13.155-53.514-8.677-15.828-21.222-29.147-33.937-41.75-14.986-13.705-32.092-24.593-49.926-34.131-18.75-9.872-38.945-16.79-58.526-24.53l-.424-.271c-2.123 1.57-5.177 2.381-7.5 3zM1596 2422c2.797.821 5.787 3.35 8.5 5 38.352-26.648 74.942-56.051 109.472-87.494 17.293-16.587 34.664-32.985 51.26-50.239 4.187-4.293 8.56-8.411 12.664-12.783 2.986-4.394 6.129-7.034 11.264-6.492 12.548-.353 29.07-4.843 31.84-17.992-57.344-18.674-113.614-41.33-171-60-15.556 77.148-34.034 153.905-54 230" style="fill:#fda;fill-rule:evenodd;stroke:none"/><path d="M1048 2082.5c.88 3.355 3.942 7.188 5.5 9.5 38.805-14.996 77.057-31.67 113.926-50.968 35.785-18.913 71.396-38.587 105.074-61.032 2.466 6.476 5.43 15.437 6.5 23h137v133h-294c1.626 7.701 3.976 15.393 6.189 22.935 1.02 4.533 9.204 2.42 12.192 3.065H1416v299h-342c1.626 8.86 6.127 18.764 7 27h808.8c14.138-.306 35.597 1.945 43.2-15.5-43.128-38.473-90.892-71.78-135.5-108.5-14.268 16.848-26.804 35.131-40.671 52.294-9.886 13.352-20.385 26.227-30.38 39.483-3.768 6.815-11.869 5.235-18.434 5.223H1557v-299h297.6c11.336.002 26.637.746 32.4-14.5-39.918-34.987-82.496-66.857-123.5-100.5-21.135 30.168-45.64 58.759-66.5 89h-140v-133h73.8c18.614-.082 37.21.1 55.823-.054 10.763-1.271 27.327 1.587 32.543-12.94 1.299-4.336-5.577-7.428-7.78-10.103-23.477-20.552-48.584-39.078-72.78-58.734-10.177-8.294-20.916-15.902-31.106-24.169-17.203 21.208-33.55 43.115-50.885 64.218-3.158 4.083-6.157 8.337-9.68 12.118-3.714 3.786-10.59 2.359-15.338 2.664H1280.5l-1.5-.5c52.08-32.735 99.799-72.396 145.64-113.221 45.71-42.342 88.1-88.67 121.86-141.279 14.278 36.206 27.305 73.704 49.129 106.422 30.612 49.604 69.445 94.411 114.092 131.833 43.107 36.7 90.914 67.45 139.779 95.745 5.37-30.28 18.21-59.355 36.21-84.283 18.073-24.88 42.992-45.903 73.29-53.717-.774-5.073 2.871-14.783-2.854-15.978-5.617-1.492-11.342-2.514-16.975-3.885-70.901-15.81-141.217-35.468-208.094-64.103-64.908-27.609-126.561-67.101-170.077-123.534 18.86-3.57 45.088-4.043 51-23.5-67.77-16.995-135.127-36.51-203-53-12.103 47.795-35.62 91.782-61.056 133.621-38.447 62.139-85.208 118.87-134.856 172.267-50.351 52.444-104.33 102.94-165.088 143.112zm8-887c1.118 4.308 2.998 9.2 4.036 13.173 1.218 3.528 1.81 7.274 3.35 10.687.466 2.978 5.772 2.313 7.807 2.639 8.988.004 17.982-.001 26.958.001H1424v367c21.902.252 44.066.613 65.455-4.877 14.31-3.492 28.043-8.853 41.313-15.173 8.958-5.147 20.09-10.338 27.27-16.652 2.896-2.803 6.768-6.014 8.19-9.53 2.116-16.02-.315-32.507.772-48.626V1222h333.6c9.853-.272 21.671.09 30.526-2.08 7.998-1.554 17.884-10.683 10.174-16.837-43.055-36.964-89.465-69.764-133.8-105.083-13.952 17.164-27.14 34.967-41.157 52.082-10.365 13.037-20.437 26.294-30.845 39.282-4.348 6.835-11.232 5.966-17.904 5.636H1567V969h262.8c10.986-.264 21.97.354 32.94-.27 7.766-.677 17.557-4.436 19.256-12.617 1.536-3.153-4.888-5.602-6.108-7.702C1834.274 913.14 1790.357 880.66 1747.5 847c-21.93 27.944-43.598 56.132-65.41 84.175-2.912 3.157-5.457 7.67-8.493 10.22-2.982 2.535-8.708 1.143-12.91 1.605H1567V746c8.12-.614 16.137-3.04 23.086-7.256 6.861-4.38 10.47-12.023 11.914-19.744-59.297-5.949-118.738-10.784-178-17v241c-44.929-.76-90.151.926-135-.5 25.462-39.649 47.216-81.892 65-125.5 8.044.163 16.183-.929 23.653-4.085 8.292-3.134 11.41-9.854 15.347-16.415-61.646-18.828-124.052-36.227-185.5-55.5-10.913 71.284-28.648 141.767-51.7 210.134-22.37 65.526-49.236 129.83-84.8 189.366 3.213 1.87 6.87 4.312 9.5 6.5 27.363-17.634 54.217-36.16 78.993-57.367 38.05-32.17 72.867-68.21 102.666-108.206 3.792-4.767 7.218-12.41 13.144-12.357 49.576-.2 99.134.036 148.697-.07v226h-368zm179 1196c16.443 17.053 38.224 32.74 63.102 32.5 24.42.802 47.833-12.554 61.154-32.693 23.502-34.55 13.482-82.015-12.453-112.063-28.376-36.619-69.67-59.927-112.55-75.327-4.517-1.66-8.985-3.442-13.566-4.896-5.312-2.717-9.146-.36-13.687.979 3.755 15.167 10.414 29.7 13.27 45.168 10.8 47.518 19.914 97.643 14.73 146.332m359 30.125c3.718 2.3 8.492 6.895 12.474 5.232 4.677-2.409 9.496-6.634 13.614-9.155 35.588-25.75 69.842-53.518 101.722-83.738 8.74-7.235 16.15-15.96 24.423-23.697 11.512-12.227 24.234-23.317 35.364-35.966 3.093-3.953 7.535-3.182 12.03-3.447 12.21-.604 24.676-6.137 29.373-17.932-4.84-4.604-14.739-5.075-21.534-8.744-50.533-18.328-101.435-35.98-151.966-54.178-17.53 77.1-32.89 156.063-55.5 231.625" style="fill:#000;fill-rule:evenodd;stroke:none"/></svg>