<svg xmlns="http://www.w3.org/2000/svg" width="3000" height="3000"><path d="M449 2666.5v1.5h2102v-1.5c-63.81-378.768-126.215-757.87-189.705-1136.696-47.349-283.998-94.654-568.016-142-852-4.398-26.67-8.911-53.338-13.325-80.003-1.118-6.656-2.232-13.342-3.35-19.985-.571-3.586-1.119-7.183-2.096-10.662-1.288-2.958-6.82-3.128-9.193-4.54-101.51-33.828-203.017-67.663-304.512-101.514a746151 746151 0 0 1-266.522-88.84c-39.072-12.89-78.06-26.135-117.144-38.98-4.713-1.335-9.273 1.032-13.839 2.453-144.507 48.104-288.95 96.378-433.449 144.467-54.18 18.08-108.385 36.116-162.566 54.195-23.808 7.923-47.625 15.882-71.434 23.805-5.676 1.96-11.407 3.738-17.06 5.726-6.564 1.113-6.72 8.744-7.34 13.268C740.08 921.349 682.77 1265.54 625.383 1609.692 566.339 1961.663 508.308 2314.864 449 2666.5m598-1330.937c.601 1.864 2.473 3.17 3 5.437 35.5-16.097 69.063-37.522 101.726-58.834a768 768 0 0 0 47.899-35.27c7.909-5.94 15.174-12.647 22.727-19.005 3.747-3.35 7.7-6.432 11.25-9.993 3.294-3.037 7.437-8.46 11.398-8.898-1.206 61.316-1.705 123.555-16.14 183.524-3.74 13.703-9.029 27.009-17.039 38.804-13.474 22.586-41.416 17.26-61.073 16.404-22.924-.91-45.822-2.692-68.748-3.732.174 2.8-.411 8.191 2.77 8.782 2.929 1.373 6.21 1.83 9.195 3.07 23.655 8.458 50.488 26.594 60.474 48.3 10.577 26.692 8.572 55.871 10.561 83.848 27.224-.606 54.567-3.436 80.698-11.4 17.915-5.382 37.927-15.861 49.777-28.575 41.347-43.57 56.386-104.544 66.796-161.61 8.624-59.252 10.316-119.35 7.953-179.144-2.194-43.184-6.84-86.346-14.814-128.864-10.598-61.285-32.991-120.876-67.184-172.902-3.508-6.83 7.863-14.119 11.144-18.375 18.354-19.74 36.042-40.086 53.2-60.88 8.476-10.126 16.38-20.72 24.438-31.165 4.262-5.182 13.948-1.882 20.78-3.487 7.026-1.222 12.487-6.165 17.212-11.098-48.746-26.082-98.576-50.683-147.5-76.5-8.13 20.529-15.006 41.65-24.422 61.686-7.685 19.53-17.998 38.018-26.078 57.314-6.28-.39-11.704-8.03-17.76-11.58-38.09-31.067-82.578-52.784-126.74-73.42-1.864 1.96-4.66 4.405-5.5 6.5 26.303 22.564 51.33 46.807 73.08 73.867 15.637 19.818 30.426 40.477 41.72 63.137 2.727 3.767-2.174 9.344-3.683 12.464-17.77 30.02-36.053 59.764-56.415 88.12-10.29 14.676-21.442 28.733-32.586 42.763-5.562 7.025-11.622 13.617-17.264 20.564-3.216 3.311-6.115 6.863-9.132 10.337-2.746 3.082-6.51 5.763-7.72 9.915 1.918 1.654 3.622 3.487 5.344 5.333 28.648-13.143 55.308-30.55 81.682-47.68 13.215-8.65 25.942-18 38.419-27.659 6.25-4.87 12.583-9.63 18.476-14.943 3.033-2.592 6.257-4.928 9.273-7.521 2.952-2.28 6.285-5.757 9.806-6.197 1.438 8.81 5.04 17.156 6.525 25.963 2.306 8.394-1.657 16.641-3.693 24.681-16.522 59.888-41.258 117.275-70.252 172.066-28.778 52.073-62.243 102.316-103.58 145.29zm6 754.437c10.73-1.824 20.316-8.265 30.71-11.288 33.793-13.61 66.015-30.623 98.528-46.882 15.444-8.543 30.958-16.94 46.218-25.818 7.558-4.553 15.122-9.127 22.52-13.913 3.888-2.377 7.742-4.794 11.614-7.173 3.582-2.037 7.592-5.368 11.41-5.926 1.565 7.485 5.538 15.91 6 23h137v135c-97.929.76-196.151-.926-294 .5 3.344 6.995 3.444 15.301 6.953 22.245 6.701 2.525 13.365.403 20.416 1.255H1417v301h-341c.422 8.356 5.769 17.308 6 25h804.6c16.096-.453 37.177 1.745 44.4-13.5-41.593-39.276-89.779-70.812-133.5-107.5-13.863 17.206-26.88 35.11-40.568 52.457-9.87 13.393-20.384 26.285-30.434 39.522-3.99 5.786-13.262 3.58-19.281 4.021H1556v-301h292.2c9.036-.075 18.512.935 27.048-2.764 3.399-1.381 6.16-3.872 8.273-6.798 2.057-3.816-1.006-6.194-3.608-8.078-18.903-16.601-38.63-32.207-58.203-47.997-19.6-14.702-37.79-31.898-58.21-45.363-21.627 28.948-44.62 57.68-65.5 87h-142v-135h85.8c14.408-.059 28.83.072 43.23-.04 11.378-.778 27.016 1.4 33.97-13.46-35.834-31.398-73.917-60.281-111.5-89.5-16.907 21.724-34.035 43.314-51.14 64.895-3.246 3.736-6.356 8.927-10.002 11.708-5.234 2.882-11.086.377-16.756 1.397H1278v-3c26.33-15.453 50.797-34.856 75.294-53.171 37.37-28.432 72.03-60.185 105.417-93.076 15.55-17.766 32.879-33.98 47.05-52.965 7.566-8.885 14.357-18.335 21.214-27.762 3.573-4.664 6.702-9.657 10.092-14.449 3.789-3.859 5.753-11.858 10.933-12.577 22.879 74.098 65.273 140.9 118.394 196.894 52.867 54.934 116.551 97.985 182.106 136.106 5.904-30.03 18.276-58.967 36.505-83.665 18.039-24.716 42.85-45.574 72.995-53.335-.088-4.202.06-8.399 1-12.5-3.322-2.159-9.024-2.248-13.44-3.691-72.714-15.655-144.565-36.122-213.278-64.755-33.171-14.206-64.994-31.533-94.896-51.73-15.278-10.026-28.812-22.245-42.568-34.147-6.769-5.807-13.272-13.938-18.914-19.784-3.076-3.306-5.879-6.873-8.819-10.288-2.53-3.376-6.751-6.988-7.085-11.105 9.839-.589 19.694-2.57 29.232-4.948 8.522-2.185 17.574-6.468 20.768-15.427-2.874-2.57-8.387-2.803-12.532-4.273-62.5-16.445-124.985-32.878-187.468-49.352-12.103 47.795-35.62 91.782-61.056 133.621-38.382 61.976-84.977 118.65-134.562 171.894-49.754 53.213-104.588 101.821-164.382 143.485.335 2.633 2.35 4.523 3 7m155 111.21c14.168 38.273 22.192 79.032 27.156 119.542 1.746 16.203 2.633 32.625 2.5 48.905-.008 6.907-.974 15.108-.19 21.4 14.223 18.69 41.809 32.801 63.436 31.902 37.137-.762 68.877-34.153 70.566-70.763 1.406-18.703-4.583-37.228-13.155-53.514-8.677-15.828-21.222-29.147-33.937-41.75-14.986-13.705-32.092-24.593-49.926-34.131-18.75-9.872-38.945-16.79-58.526-24.53l-.424-.271c-2.123 1.57-5.177 2.381-7.5 3zm153-755.96c19.523 47.668 40.548 95.035 60 142.75 7.184-.12 14.415-5.363 18.369-10.213 4.19-4.613 6.31-12.27 11.194-15.43 41.999-23.436 83.695-47.449 124.726-72.52 20.535-12.278 40.41-25.529 60.695-38.173 10.14-6.719 20.222-13.522 30.351-20.238 5.13-3.432 10.36-6.772 15.338-10.417 4.738-2.745 10.66-8.424 15.327-9.009 33.43 68.818 92.236 121.682 154.5 164h1.5c6.04-26.326 21.308-55.326 37.492-73.97 18.653-20.402 42.894-36.126 70.508-41.03.169-3.014.68-6.005 1-9-39.371-11.547-78.071-26.334-115.297-43.66-18.396-8.808-36.773-17.625-54.03-28.59-8.151-5.552-16.188-11.249-24.248-16.91a660 660 0 0 1-11.641-9.232c-3.323-2.977-9.279-6.697-9.784-10.608 34.982-10.707 69.25-24.106 103.142-37.85a1036 1036 0 0 0 49.49-21.35c8.712-4.216 18.092 1.146 27.302 1.103 8.575.242 19.582-2.847 23.066-10.903-9.675-4.579-17.314-13.324-26.567-18.776-13.098-9.756-26.17-19.505-39.348-29.151-6.49-4.823-13.046-9.58-19.546-14.383-3.15-2.424-6.376-4.724-9.517-7.16-2.971-2.274-6.987-4.378-7.022-8.53 9.583-2.82 20.21-8.479 27.855-13.42 5.303-3.207 4.1-11.038 4.145-16.379V888c12.947-3.309 27.525-8.527 36-19.5-39.117-30.306-79.128-59.532-118.5-89.5-13.362 12.709-24.566 27.358-37.446 40.49-6.592 6.56-12.117 14.136-18.848 20.542-3.413 2.806-9.575 1.727-14.438 1.968H1712V741c6.494-.096 13.837-2.722 18.947-5.573 7.331-3.408 8.174-9.967 11.053-15.927-53.412-5.506-107.462-7.65-161-12.5v135c-7.374-.147-15.106.776-22.152-1.925-45.746-16.287-91.032-34.043-136.848-50.075v648c-20.254 3.088-40.728 4.293-61 7zM1552 991h196V867h-196zm0 160h196v-136h-196zm0 269c45.784-5.736 91.274-14.062 137-20-29.716-71.57-50.817-147.562-59-225h-78zm44 1002c2.797.821 5.787 3.35 8.5 5 38.352-26.648 74.942-56.051 109.472-87.494 17.293-16.587 34.664-32.985 51.26-50.239 4.187-4.293 8.56-8.411 12.664-12.783 2.986-4.394 6.129-7.034 11.264-6.492 12.548-.353 29.07-4.843 31.84-17.992-57.344-18.674-113.614-41.33-171-60-15.556 77.148-34.034 153.905-54 230m206-1211c-17.884 2.75-35.896 3.949-54 3v-39h-106c3.136 18.641 12.872 39.17 19.394 55.05 11.391 26.01 26.143 50.605 44.094 72.6 4.52 5.742 9.5 11.064 14.341 16.522 1.668 1.82 4.51 4.279 6.68 3.014 11.557-13.284 22.438-31.335 32.237-44.179 7.82-10.774 15.111-21.878 22.533-32.913 3.615-5.589 7.46-11.053 11.064-16.635 3.11-5.495 8.747-11.517 9.657-17.459" style="fill:#feddaa;fill-rule:evenodd;stroke:none"/><path d="M1045 1335.344c1.368 2.432 3.751 5.151 5.5 7.656 69.545-35.504 136.743-78.381 193-133 1.373 31.193-1.633 63.026-2.877 94.279-1.499 22.621-4.073 45.21-8.418 67.463-2.759 15.855-7.134 31.67-14.18 46.192-5.178 10.071-11.36 20.905-22.065 25.998-8.471 4.089-19.65 4.067-27.983 3.236-29.045-.274-57.983-2.936-86.977-4.168.084 3.821-.683 9.901 3.164 11.01 3.902 1.528 8.103 2.24 11.914 4.016 12.474 4.363 24.099 10.781 34.074 19.493 7.414 5.957 15.387 14.094 20.108 21.424 14.571 26.68 11.202 63.559 13.74 90.057 27.905-.4 55.938-3.313 82.737-11.411 17.893-5.382 37.897-15.858 49.738-28.564 41.347-43.57 56.386-104.544 66.796-161.61 10.985-74.202 10.603-149.69 5.03-224.296-5.501-53.841-13.387-107.944-30.628-159.439-6.208-18.175-13.832-35.744-21.944-53.13-7.781-14.412-15.199-29.059-24.433-42.622-6.148-6.745 1.954-12.928 6.806-17.53 19.347-20.013 37.062-41.567 55.126-62.722 6.402-8.106 13.046-16.016 19.2-24.298 2.794-3.245 5.012-7.61 8.66-9.918 7.848-1.12 17.55 1.567 25.926-4.181 3.394-1.856 5.879-4.682 8.2-7.645 1.398-3.154-4.816-5.06-6.515-6.293-47.665-23.94-94.696-49.125-142.199-73.341-13.432 41.334-32.6 80.567-50.5 120h-1.5c-22.045-18.743-46.044-35.174-71.052-49.67-12.84-7.782-26.33-14.381-39.782-21.005-6.707-3.625-13.7-6.616-20.627-9.771-3.351-1.684-6.87-2.88-10.403-4.046-2.98.147-6.147 4.986-7.636 6.992 26.149 22.703 51.388 46.647 73.135 73.697 15.764 19.682 30.494 40.35 41.942 62.874 2.684 4.209-1.176 8.85-3.272 12.426-17.8 29.983-36.033 59.719-56.423 88.04-10.269 14.692-21.498 28.68-32.58 42.742-5.684 6.94-11.572 13.663-17.304 20.542-5.116 7.004-13.624 13.792-17.498 20.679 2.049 2.324 5.25 4.67 6 7.5 57.529-26.387 108.879-65.029 157.5-105 2.595 8.247 5.221 18.368 7.047 26.115 1.785 7.803-2.084 15.33-3.827 22.899-16.457 60.39-41.801 117.907-70.912 173.105-29.072 51.782-62.135 102.282-103.808 144.881zm3 747.156c.88 3.355 3.942 7.188 5.5 9.5 38.805-14.996 77.057-31.67 113.926-50.968 35.785-18.913 71.396-38.587 105.074-61.032 2.466 6.476 5.43 15.437 6.5 23h137v133h-294c1.626 7.701 3.976 15.393 6.189 22.935 1.02 4.533 9.204 2.42 12.192 3.065H1416v299h-342c1.626 8.86 6.127 18.764 7 27h808.8c14.138-.306 35.597 1.945 43.2-15.5-43.128-38.473-90.892-71.78-135.5-108.5-14.268 16.848-26.804 35.131-40.671 52.294-9.886 13.352-20.385 26.227-30.38 39.483-3.768 6.815-11.869 5.235-18.434 5.223H1557v-299h297.6c11.336.002 26.637.746 32.4-14.5-39.918-34.987-82.496-66.857-123.5-100.5-21.135 30.168-45.64 58.759-66.5 89h-140v-133h73.8c18.614-.082 37.21.1 55.823-.054 10.763-1.271 27.327 1.587 32.543-12.94 1.299-4.336-5.577-7.428-7.78-10.103-23.477-20.552-48.584-39.078-72.78-58.734-10.177-8.294-20.916-15.902-31.106-24.169-17.203 21.208-33.55 43.115-50.885 64.218-3.158 4.083-6.157 8.337-9.68 12.118-3.714 3.786-10.59 2.359-15.338 2.664H1280.5l-1.5-.5c52.08-32.735 99.799-72.396 145.64-113.221 45.71-42.342 88.1-88.67 121.86-141.279 14.278 36.206 27.305 73.704 49.129 106.422 30.612 49.604 69.445 94.411 114.092 131.833 43.107 36.7 90.914 67.45 139.779 95.745 5.37-30.28 18.21-59.355 36.21-84.283 18.073-24.88 42.992-45.903 73.29-53.717-.774-5.073 2.871-14.783-2.854-15.978-5.617-1.492-11.342-2.514-16.975-3.885-70.901-15.81-141.217-35.468-208.094-64.103-64.908-27.609-126.561-67.101-170.077-123.534 18.86-3.57 45.088-4.043 51-23.5-67.77-16.995-135.127-36.51-203-53-12.103 47.795-35.62 91.782-61.056 133.621-38.447 62.139-85.208 118.87-134.856 172.267-50.351 52.444-104.33 102.94-165.088 143.112zm187 309c16.443 17.053 38.224 32.74 63.102 32.5 24.42.802 47.833-12.554 61.154-32.693 23.502-34.55 13.482-82.015-12.453-112.063-28.376-36.619-69.67-59.927-112.55-75.327-4.517-1.66-8.985-3.442-13.566-4.896-5.312-2.717-9.146-.36-13.687.979 3.755 15.167 10.414 29.7 13.27 45.168 10.8 47.518 19.914 97.643 14.73 146.332m124-947.375c9.996 24.367 20.672 48.826 30.908 73.167 5.089 12.152 10.259 24.27 15.334 36.413 5.717 11.47 9.994 26.342 16.258 36.295 6.613-2.639 14.236-4.203 18.539-10.814 4.145-4.452 6.89-12.718 11.124-15.564 41.775-23.485 83.425-47.253 124.296-72.275 40.801-24.865 81.022-50.728 120.041-78.347 35.175 68.783 92.9 123.292 157 165 9.79-25.963 18.955-53.747 38.63-74.59 18.725-20.571 43.06-36.495 70.87-41.41.308-3.672.817-7.321 1-11-39.065-11.347-77.351-26.213-114.333-43.167-18.263-8.706-36.598-17.312-53.646-28.294-16.728-10.201-32.056-22.465-47.021-35.039 34.525-12 69.468-23.895 103.142-38.35 16.673-6.694 33.168-13.788 49.458-21.344 7.304-3.759 17.769 1.473 27.249 1.157 9.165.635 18.773-3.335 24.151-10.963-16.953-13.21-34.655-25.957-51.99-38.75-8.739-6.438-17.316-13.118-26.164-19.397-4.36-3.123-8.515-6.48-12.875-9.59-3.447-3.872-10.32-6.041-11.971-10.263 9.583-2.82 20.21-8.479 27.855-13.42 5.303-3.207 4.1-11.038 4.145-16.379V889c13.361-3.453 28.455-8.91 37-20.5-39.284-31.586-80.964-60.237-120.5-91.5-13.267 12.633-24.557 27.06-37.231 40.235-6.431 6.704-12.2 13.943-18.673 20.59-3.117 3.797-9.165 3.293-13.546 3.175H1713v-99c7.203-.26 14.29-2.722 20.375-6.451 5.612-3.972 8.828-10.822 9.625-17.549-54.332-3.822-108.65-8.317-163-12v135c-7.325.196-14.828.527-21.699-2.482-22.976-8.352-45.819-17.07-68.82-25.33-11.334-4.31-22.815-8.186-34.11-12.56-11.24-3.176-23.7-10.098-34.371-11.628v648c-20.596 2.914-41.365 4.588-62 7zM1553 990h194V868h-194zm0 160h194v-134h-194zm0 269c44.998-6.37 89.99-13.828 135-20-31.57-70.37-49.62-146.6-59-223h-76zm41 1002.625c3.718 2.3 8.492 6.895 12.474 5.232 4.677-2.409 9.496-6.634 13.614-9.155 35.588-25.75 69.842-53.518 101.722-83.738 8.74-7.235 16.15-15.96 24.423-23.697 11.512-12.227 24.234-23.317 35.364-35.966 3.093-3.953 7.535-3.182 12.03-3.447 12.21-.604 24.676-6.137 29.373-17.932-4.84-4.604-14.739-5.075-21.534-8.744-50.533-18.328-101.435-35.98-151.966-54.178-17.53 77.1-32.89 156.063-55.5 231.625m49-1245.125c15.757 53.592 41.863 105.948 82 145.5 26.89-35.197 51.805-72.358 76-109.5-8.685-.03-17.624 3.058-26.494 2.456-9.17.112-18.339-.009-27.506.044v-39h-104z" style="fill:#000;fill-rule:evenodd;stroke:none"/></svg>