<?xml version="1.0" encoding="UTF-8"?>
<!-- Created with Inkscape (http://www.inkscape.org/) -->
<svg width="25.522mm" height="29.157mm" version="1.1" viewBox="0 0 25.522 29.157" xmlns="http://www.w3.org/2000/svg" xmlns:xlink="http://www.w3.org/1999/xlink">
 <g transform="translate(-92.239 -136.63)">
  <path d="m105 137 8.2339 2.8438 4.117 25.595h-24.702l4.117-25.595z" color="#000000" style="-inkscape-stroke:none"/>
  <path d="m105 136.47-0.16406 0.0566-8.5156 2.9414-4.2578 26.469h25.875l-4.2578-26.469zm0 1.0586 7.7871 2.6894 3.9766 24.719h-23.527l3.9766-24.719z" color="#000000" fill="#777" style="-inkscape-stroke:none"/>
  <g transform="scale(.9824 1.0179)" fill="#fff" aria-label="♟">
   <path d="m106.88 160.19q-1.264 0-2.3295-0.12535-1.0551-0.12536-1.8908-0.36563-0.82526-0.24026-1.3998-0.57455-0.57455-0.33428-0.87749-0.76258-0.2925-0.41786-0.2925-0.90884 0-0.40741 0.21937-0.81482 0.21938-0.40741 0.585-0.67901-0.094-0.28206-0.094-0.69991 0-0.64768 0.45964-1.3998 0.47009-0.76258 1.1073-1.17 0.0522-0.54321 0.37607-0.94018 0.32384-0.39696 0.80437-0.51187 0.69991-0.8775 0.89839-1.8072 0.19848-0.92972 0.24027-2.0057-0.79393-0.24027-1.2222-0.67902-0.4283-0.44919-0.4283-1.0446 0-0.52231 0.30295-0.88794 0.30294-0.37607 0.84615-0.53276-0.76258-0.91929-0.76258-2.246 0-1.0342 0.43874-1.8386 0.43875-0.80437 1.2118-1.264 0.78347-0.47009 1.8072-0.47009t1.7968 0.47009q0.78348 0.45964 1.2222 1.264 0.43874 0.80437 0.43874 1.8386 0 1.3267-0.76258 2.246 0.54321 0.15669 0.84616 0.53276 0.30294 0.36563 0.30294 0.88794 0 0.59545-0.4283 1.0446-0.41786 0.43875-1.2222 0.67902 0.0522 1.076 0.24027 2.0057 0.19848 0.92973 0.89839 1.8072 0.49098 0.11491 0.81482 0.51187 0.32383 0.39697 0.36562 0.94018 0.64767 0.40741 1.1073 1.17 0.45964 0.75214 0.45964 1.3998 0 0.41785-0.094 0.69991 0.36562 0.2716 0.585 0.67901 0.21937 0.40741 0.21937 0.81482 0 0.49098-0.30294 0.90884-0.2925 0.4283-0.86705 0.76258-0.57456 0.33429-1.4103 0.57455-0.82526 0.24027-1.8908 0.36563-1.0551 0.12535-2.3191 0.12535zm-0.7208-1.358q0.20893 0.0105 0.34473-0.094 0.14625-0.094 0.14625-0.27161 0-0.16714-0.1358-0.27161-0.12536-0.10446-0.33429-0.11491-1.0028-0.0627-1.8699-0.25071-0.86705-0.18804-1.567-0.48053-0.18803-0.0836-0.34473-0.0418t-0.22982 0.18804q-0.0731 0.15669-0.0105 0.30294 0.0731 0.14625 0.24027 0.22982 0.74169 0.33429 1.6923 0.53277 0.95063 0.20892 2.0684 0.2716zm0.7208-2.2878q1.6192 0 2.8519-0.2716 1.2327-0.28205 1.9639-0.79393 0.13581-0.094 0.16715-0.24026 0.0313-0.1567-0.0627-0.2925-0.10447-0.1567-0.26116-0.16715-0.1567-0.0209-0.33429 0.094-0.67901 0.4492-1.755 0.66857-1.0655 0.21937-2.5698 0.21937t-2.5803-0.21937q-1.0655-0.21937-1.7445-0.66857-0.17759-0.11491-0.33429-0.094-0.14625 0.0105-0.26116 0.16715-0.094 0.1358-0.0627 0.2925 0.0313 0.14625 0.16715 0.24026 0.73124 0.51188 1.9639 0.79393 1.2431 0.2716 2.8519 0.2716zm0-3.2384q0.98196 0 1.7341-0.0836 0.76259-0.0836 1.3998-0.28205 0.17758-0.0522 0.26116-0.18803 0.0836-0.13581 0.0209-0.3134-0.0522-0.15669-0.19848-0.21937-0.14625-0.0731-0.34473-0.0209-0.60589 0.14625-1.3058 0.24026-0.68946 0.0836-1.567 0.0836t-1.567-0.0836q-0.68946-0.094-1.3058-0.24026-0.19848-0.0522-0.34473 0.0209-0.14625 0.0627-0.19848 0.21937-0.0627 0.17759 0.0209 0.3134 0.0836 0.1358 0.26116 0.18803 0.63723 0.18804 1.3894 0.28205 0.76259 0.0836 1.7446 0.0836zm0-6.7902q0.5641 0 1.1387-0.11491 0.58499-0.11491 1.2849-0.34473 0.16714-0.0522 0.22982-0.19848 0.0627-0.14625 0.0105-0.31339-0.0522-0.1567-0.20893-0.20893-0.14625-0.0627-0.32384 0.0104-0.52232 0.19848-1.0551 0.2925-0.52232 0.094-1.076 0.094-1.0969 0-2.1311-0.38651-0.17759-0.0731-0.33429-0.0104-0.14625 0.0522-0.19848 0.20893-0.0522 0.16714 0.0105 0.31339t0.22982 0.19848q0.69991 0.24027 1.2745 0.35518 0.585 0.10446 1.1491 0.10446zm-1.3789-4.2621q0.34473 0.0522 0.45964-0.39697 0.0836-0.30294 0.28205-0.48053 0.19848-0.17759 0.52232-0.28205 0.34473-0.12536 0.30295-0.43875-0.0209-0.18803-0.17759-0.27161-0.1567-0.094-0.33429-0.0418-0.52232 0.1358-0.88794 0.50143-0.35518 0.35517-0.48053 0.90883-0.0418 0.16714 0.0418 0.32384 0.0836 0.15669 0.27161 0.17759z"/>
  </g>
 </g>
</svg>
