<?xml version="1.0" encoding="UTF-8"?>
<!-- Created with Inkscape (http://www.inkscape.org/) -->
<svg width="57.671mm" height="40.25mm" version="1.1" viewBox="0 0 57.671 40.25" xmlns="http://www.w3.org/2000/svg" xmlns:xlink="http://www.w3.org/1999/xlink">
 <g transform="translate(-75.856 -130.19)">
  <text x="58.264248" y="26.922001" font-family="TKaisho-GT01" font-size="7.7611px" stroke-width=".26458" writing-mode="tb-rl" style="line-height:1.25" xml:space="preserve"><tspan x="58.264248" y="26.922001" font-family="'mgen+ 1p'" font-size="7.7611px" font-weight="bold" stroke-width=".26458" writing-mode="lr-tb" style="font-variant-caps:normal;font-variant-east-asian:normal;font-variant-ligatures:normal;font-variant-numeric:normal"/></text>
  <g transform="translate(-25.16 141.45)">
   <g fill="#fff">
    <path d="m113.81 6.0548a4 2.5 0 0 1-4 2.5 4 2.5 0 0 1-4-2.5 4 2.5 0 0 1 4-2.5 4 2.5 0 0 1 4 2.5z" stroke-width=".7071" style="paint-order:markers fill stroke"/>
    <path d="m113.81-2.4452a4 1 0 0 1-4 1 4 1 0 0 1-4-1 4 1 0 0 1 4-1 4 1 0 0 1 4 1z" style="paint-order:markers fill stroke"/>
    <path d="m111.81-6.9452a2 2.5 0 0 1-2 2.5 2 2.5 0 0 1-2-2.5 2 2.5 0 0 1 2-2.5 2 2.5 0 0 1 2 2.5z" style="paint-order:markers fill stroke"/>
    <path d="m116.81 10.555a7 4 0 0 1-7 4 7 4 0 0 1-7-4 7 4 0 0 1 7-4 7 4 0 0 1 7 4z" stroke-width="1.1832" style="paint-order:markers fill stroke"/>
   </g>
   <g transform="scale(.9824 1.0179)" stroke-width=".185" aria-label="♟">
    <path d="m111.8 14.333q-1.4558 0-2.683-0.14437-1.2152-0.14437-2.1776-0.42109-0.95046-0.27672-1.6122-0.66171-0.66172-0.385-1.0106-0.87827-0.33687-0.48125-0.33687-1.0467 0-0.46922 0.25265-0.93843 0.25266-0.46921 0.67375-0.78202-0.10828-0.32484-0.10828-0.80609 0-0.74593 0.52937-1.6122 0.5414-0.87827 1.2753-1.3475 0.0602-0.62562 0.43312-1.0828 0.37297-0.45718 0.9264-0.58953 0.80609-1.0106 1.0347-2.0814 0.22859-1.0708 0.27672-2.31-0.91437-0.27672-1.4076-0.78202-0.49328-0.51734-0.49328-1.2031 0-0.60156 0.34891-1.0226 0.3489-0.43312 0.97452-0.61359-0.87827-1.0587-0.87827-2.5867 0-1.1911 0.5053-2.1175 0.50531-0.9264 1.3956-1.4558 0.90233-0.5414 2.0814-0.5414 1.179 0 2.0694 0.5414 0.90233 0.52937 1.4076 1.4558t0.50531 2.1175q0 1.528-0.87828 2.5867 0.62562 0.18047 0.97453 0.61359 0.3489 0.42109 0.3489 1.0226 0 0.68578-0.49328 1.2031-0.48124 0.50531-1.4076 0.78202 0.0601 1.2392 0.27672 2.31 0.22859 1.0708 1.0347 2.0814 0.56547 0.13234 0.93843 0.58953 0.37297 0.45718 0.42109 1.0828 0.74594 0.46921 1.2753 1.3475 0.52937 0.86624 0.52937 1.6122 0 0.48125-0.10828 0.80609 0.42109 0.31281 0.67374 0.78202 0.25266 0.46922 0.25266 0.93843 0 0.56546-0.34891 1.0467-0.33687 0.49328-0.99858 0.87827-0.66172 0.385-1.6242 0.66171-0.95046 0.27672-2.1776 0.42109-1.2151 0.14437-2.6709 0.14437zm-0.83015-1.564q0.24062 0.01203 0.39703-0.10828 0.16843-0.10828 0.16843-0.31281 0-0.1925-0.1564-0.31281-0.14438-0.12031-0.385-0.13234-1.155-0.07219-2.1536-0.28875-0.99858-0.21656-1.8047-0.55343-0.21656-0.09625-0.39703-0.04812-0.18046 0.04812-0.26468 0.21656-0.0842 0.18047-0.012 0.3489 0.0842 0.16844 0.27671 0.26468 0.85421 0.385 1.949 0.61359 1.0948 0.24062 2.3822 0.31281zm0.83015-2.6348q1.8648 0 3.2845-0.31281 1.4197-0.32484 2.2619-0.91437 0.1564-0.10828 0.1925-0.27672 0.0361-0.18047-0.0722-0.33687-0.12031-0.18047-0.30078-0.1925-0.18047-0.024062-0.385 0.10828-0.78202 0.51734-2.0212 0.76999-1.2272 0.25265-2.9597 0.25265-1.7325 0-2.9717-0.25265-1.2272-0.25265-2.0092-0.76999-0.20453-0.13234-0.385-0.10828-0.16843 0.012031-0.30078 0.1925-0.10828 0.1564-0.0722 0.33687 0.0361 0.16844 0.1925 0.27672 0.84218 0.58953 2.2618 0.91437 1.4317 0.31281 3.2845 0.31281zm0-3.7297q1.1309 0 1.9972-0.096249 0.87827-0.096249 1.6122-0.32484 0.20453-0.060156 0.30078-0.21656 0.0962-0.1564 0.0241-0.36093-0.0602-0.18047-0.22859-0.25265-0.16843-0.084218-0.39703-0.024062-0.6978 0.16844-1.5039 0.27672-0.79406 0.096249-1.8047 0.096249-1.0106 0-1.8047-0.096249-0.79405-0.10828-1.5039-0.27672-0.22859-0.060156-0.39703 0.024062-0.16843 0.072187-0.22859 0.25265-0.0722 0.20453 0.0241 0.36093t0.30078 0.21656q0.7339 0.21656 1.6001 0.32484 0.87828 0.096249 2.0092 0.096249zm0-7.8202q0.64968 0 1.3114-0.13234 0.67375-0.13234 1.4798-0.39703 0.1925-0.060156 0.26469-0.22859 0.0722-0.16844 0.012-0.36093-0.0602-0.18047-0.24062-0.24062-0.16844-0.072187-0.37297 0.012031-0.60156 0.22859-1.2151 0.33687-0.60156 0.10828-1.2392 0.10828-1.2633 0-2.4544-0.44515-0.20453-0.084218-0.38499-0.012031-0.16844 0.060156-0.2286 0.24062-0.0601 0.1925 0.012 0.36093 0.0722 0.16844 0.26469 0.22859 0.80609 0.27672 1.4678 0.40906 0.67374 0.12031 1.3234 0.12031zm-1.5881-4.9087q0.39703 0.060156 0.52938-0.45718 0.0962-0.3489 0.32484-0.55343 0.22859-0.20453 0.60155-0.32484 0.39703-0.14437 0.34891-0.50531-0.0241-0.21656-0.20453-0.31281-0.18047-0.10828-0.385-0.048125-0.60156 0.1564-1.0226 0.5775-0.40906 0.40906-0.55343 1.0467-0.0481 0.1925 0.0481 0.37297 0.0962 0.18047 0.3128 0.20453z"/>
   </g>
   <g transform="matrix(.9503 0 0 .99535 6.6378 -140.28)">
    <path d="m159.5 142.25a12.5 12.25 0 0 1-12.5 12.25 12.5 12.25 0 0 1-12.5-12.25 12.5 12.25 0 0 1 12.5-12.25 12.5 12.25 0 0 1 12.5 12.25z" fill="#fd7" stroke-width=".98995" style="paint-order:markers fill stroke"/>
    <g transform="scale(1.0199 .98047)" fill="#d40000" stroke-width=".25942" aria-label="🩥">
     <path d="m144.14 158.09q-2.6377 0-4.9635-0.9927-2.2974-0.99269-4.0559-2.7228-1.7301-1.7585-2.7228-4.0559-0.99269-2.3257-0.99269-4.9635t0.99269-4.9635q0.9927-2.3257 2.7228-4.0559 1.7585-1.7585 4.0559-2.7512 2.3257-0.9927 4.9635-0.9927t4.9351 0.9927q2.3257 0.99269 4.0559 2.7512 1.7585 1.7301 2.7512 4.0559 0.99269 2.3258 0.99269 4.9635t-0.99269 4.9635q-0.99269 2.2974-2.7512 4.0559-1.7301 1.7301-4.0559 2.7228-2.2974 0.9927-4.9351 0.9927zm0-1.2196q2.3825 0 4.4813-0.9076 2.0988-0.87925 3.6588-2.4676 1.5883-1.5883 2.4676-3.6588 0.90761-2.0988 0.90761-4.4813 0-2.3825-0.90761-4.4813-0.87924-2.0988-2.4676-3.6872-1.56-1.5883-3.6588-2.4676-2.0988-0.9076-4.4813-0.9076-2.3825 0-4.4813 0.9076-2.0988 0.87925-3.6872 2.4676-1.5599 1.5883-2.4676 3.6872-0.87924 2.0988-0.87924 4.4813 0 2.3825 0.87924 4.4813 0.90761 2.0705 2.4676 3.6588 1.5883 1.5883 3.6872 2.4676 2.0988 0.9076 4.4813 0.9076zm3.7439-8.2535q-0.28363 0.0284-0.34035-0.17018-0.0567-0.2269-0.0851-0.4538-0.0567-0.45381-0.45381-0.96433-0.39707-0.51053-0.70906-0.82252 0.2269 0.0851 0.4538 0.17017 0.25526 0.0851 0.48217 0.14182 0.31199 0.0851 0.51053 0.11345 0.2269 0 0.34035-0.36872 0.17017-0.53889 0.28362-1.3047 0.11346-0.76579 0.14182-1.5316 0.0567-0.79415-0.0284-1.3614 0-0.19854-0.0851-0.19854-0.48217-0.0284-1.1062 0.14182-0.62398 0.17017-1.333 0.31199-0.68071 0.14181-1.4749 0.0567-0.34035 0.53889-0.9076 1.0778-0.56726 0.53889-1.2763 0.85088 0 0-0.0567-0.0567-0.0567-0.0851 0.0567-0.31199 0.4538-0.53889 1.021-1.4181 0.56726-0.87925 1.0494-1.8152 0.48217-0.93597 0.68071-1.6167 0.0851-0.31199 0-0.59562-0.0567-0.31199-0.19854-0.56725 0-0.39708 0.25526-0.42544 0.28363-0.0284 0.65235 0.17017 0.39707 0.17018 0.70906 0.42545 0.34036 0.2269 0.45381 0.36871 0.0567 0.11345 0 0.2269-0.0284 0.0851-0.0284 0.0851-0.62398 0.62398-1.021 1.4465-0.39708 0.79415-0.93597 1.5316 0.0284 0 0.19854-0.0284 0.19854-0.0284 0.2269-0.0567 0.73743-0.0851 1.6167-0.39708 0.87925-0.31199 1.5316-0.68071 0.25526-0.14181 0.65234 0.0567 0.42544 0.17017 0.82252 0.4538 0.39708 0.25527 0.53889 0.42544 0.2269 0.25527 0.11345 0.42544-0.0851 0.14182-0.28363 0.28363-0.19854 0.11345-0.28362 0.28363-0.0851 0.19854-0.17018 0.62398-0.0851 0.42544-0.14181 0.87924-0.0567 0.4538-0.11345 0.73743-0.14182 0.70907-0.25527 1.4749-0.0851 0.76579-0.39708 1.3898-0.31199 0.62398-1.1061 0.9927zm-12.281 3.4886q0.93597-0.85088 1.6167-1.5883 0.68071-0.7658 1.1345-1.645t0.65234-2.1556q0.28363-1.6734 0.36872-3.5737 0.11345-1.9003 0.11345-3.6304 0-0.48217-0.2269-0.82252-0.2269-0.36871-0.45381-0.73743 0.0851-0.36871 0.36872-0.36871 0.31199-0.0284 0.59562 0.0567 0.2269 0.0567 0.51053 0.19854 0.31198 0.14181 0.51052 0.28363 0.28363 0.19854 0.25527 0.4538 0 0.25527-0.11345 0.53889-0.14182 0.36872-0.2269 1.0211-0.0567 0.65234-0.11346 1.333-0.0284 0.6807-0.0851 1.1345 0.48216-0.39707 0.73743-0.87924 0.28362-0.48217 0.17017-1.1345 0.0567-0.2269 0.31199-0.17017 0.28363 0.0284 0.59562 0.2269 0.34035 0.17017 0.56725 0.39708 0.22691 0.2269 0.17018 0.36871-0.17018 0.28363-0.70907 0.70907t-1.1061 0.82252q-0.53889 0.36871-0.7658 0.53889-0.0567 0.99269-0.19853 2.1272-0.11346 1.1062-0.25527 1.8719 0.42544 0.2269 0.87924 0.4538 0.48217 0.19854 0.68071 0.70907 0.11345 0.19854 0.14181 0.59562 0.0567 0.39707-0.17017 0.59561-0.11345 0.0851-0.31199 0.11345-0.19854 0.0284-0.34036-0.0567-0.17017-0.17018-0.39707-0.51053-0.19854-0.36872-0.39708-0.73743-0.19854-0.39708-0.28363-0.62398-0.36871 1.3898-1.3614 2.4959-0.96433 1.0778-2.2974 1.56zm1.8436-6.2682q-0.36872-0.51053-0.70907-1.333-0.31199-0.82252-0.51053-1.4465l0.19854-0.17018q0.73743 0.2269 1.333 0.76579 0.59562 0.5389 0.62398 1.3614 0.0284 0.48217-0.31199 0.85088-0.34035 0.34036-0.62397-0.0284zm14.522 5.8427q-0.53889 0.36871-1.56 0.62398-0.9927 0.25526-2.2123 0.31199-1.1912 0.0567-2.3541-0.11345-1.1345-0.19854-1.9854-0.65235-0.82252-0.48216-1.0778-1.2763-0.28362-0.9076-0.19854-1.8436 0.0851-0.93597 0.14182-1.8719 0.0567-0.93597-0.34036-1.8719-0.19853-0.53889 0.0284-0.59562 0.2269-0.0851 0.62398 0.0567 0.39707 0.11345 0.65234 0.17018 0.48216 0.0851 0.96433-0.19854 0.48217-0.31199 0.82252-0.56726 0.17018-0.14181 0.51053 0 0.34035 0.11345 0.6807 0.31199t0.48217 0.31199v0.28363q-0.14182 0.14181-0.42544 0.4538-0.25527 0.28363-0.48217 0.62398-0.2269 0.31199-0.28362 0.53889 0 0.0851 0.11345 0.17018 0.14181 0.0851 0.2269 0.2269 0.0851 0.11345-0.11345 0.34035-0.62398 0.31199-1.3047 0.45381-0.6807 0.14181-1.3614 0.28362 0.0284 0.39708 0 0.85088 0 0.42545 0.0284 0.85089 0.0567 0.4538 0.2269 0.73743 0.19854 0.28362 0.62398 0.4538 0.73743 0.34035 1.7301 0.42544 0.9927 0.0567 1.9854-0.0284 1.0211-0.11345 1.7868-0.28363 0.34035-0.0851 0.53889-0.19854 0.19854-0.11345 0.34035-0.42544 0.31199-0.6807 0.5389-1.3898 0.2269-0.70907 0.42544-1.4181 0.0567-0.2269 0.17017-0.11345 0.11345 0.11345 0.11345 0.11345 0.0851 0.59562 0.11345 1.1912 0.0567 0.59561 0.11345 1.2196 0.0567 0.25527 0.11346 0.53889 0.0851 0.28363 0.0851 0.51053 0 0.25527-0.14181 0.48217-0.14181 0.19854-0.34035 0.31199zm-8.4521-4.6231 1.2763-0.28363q0.25527-0.39708 0.31199-0.85088 0.0567-0.48217 0.0284-0.93597-0.0567-0.0284-0.39708 0.0567-0.31199 0.0851-0.68071 0.17017-0.34035 0.0567-0.48216 0.0851 0 0.42544-0.0284 0.87924-0.0284 0.45381-0.0284 0.87925z"/>
    </g>
   </g>
   <path d="m127.81-10.884 8.2339 2.8438 4.117 25.595h-24.702l4.117-25.595z" fill="#fda" stroke="#000" stroke-width=".69845"/>
   <g transform="scale(.9824 1.0179)" stroke-width=".20954" aria-label="棋 ">
    <path d="m127.64 8.6759v-1.0171h1.3956c0.16558 0 0.28385-0.059136 0.31933-0.18923-0.40212-0.46126-1.1472-1.1591-1.1472-1.1591l-0.5677 0.88703v-2.3181c0.33116-0.047308 0.41395-0.16558 0.43761-0.34299l-2.0934-0.20106v2.9923h-1.4429l0.0946 0.33116h1.2418c-0.24836 1.7859-0.73328 3.6427-1.573 4.9792l0.14193 0.11827c0.59135-0.49674 1.0999-1.0408 1.5375-1.6321v4.4233h0.33116c0.62683 0 1.3246-0.33116 1.3246-0.46126v-6.1146c0.21289 0.49674 0.35482 1.1472 0.31933 1.7268 1.0881 1.0644 2.5665-1.0881-0.3075-2.0224zm0.24837 6.8715c1.5494-0.33116 2.945-1.0763 3.8202-1.8923 0.27203 0.03548 0.37847-0.03548 0.44943-0.15375l-1.8805-1.0644c-0.42578 0.958-1.372 2.2235-2.4719 2.9804zm4.4233-2.8267c0.7451 0.63866 1.502 1.6676 1.7977 2.6256 1.7149 1.0053 2.7794-2.3891-1.7149-2.6966zm-1.0881-2.4127h1.4311v1.6558h-1.4311zm1.4311-3.6546v1.4666h-1.4311v-1.4666zm-1.4311 1.7977h1.4311v1.5257h-1.4311zm3.0869 3.2761v-5.0738h1.2418c0.16558 0 0.28385-0.059136 0.31933-0.18923-0.37846-0.44943-1.0999-1.1591-1.0999-1.1591l-0.46125 0.75693v-1.1354c0.28385-0.047308 0.35481-0.15375 0.37846-0.3075l-2.0343-0.17741v1.8805h-1.4311v-1.3956c0.28385-0.047308 0.35482-0.15375 0.37847-0.3075l-1.987-0.17741v1.8805h-1.0763l0.0946 0.33116h0.98165v5.3104h-1.3483l0.0946 0.33116h7.2737c0.16558 0 0.28385-0.05914 0.31933-0.18923-0.40212-0.44943-1.1472-1.1472-1.1472-1.1472z" stroke="#000"/>
   </g>
   <g transform="scale(.9824 1.0179)" stroke-width=".20954" aria-label="将 ">
    <path d="m128.52-5.6919c2.0579 0.059136 4.5298-0.094617 6.0555-0.40212 0.42578 0.14193 0.70963 0.11827 0.86338-0.011827l-1.6913-1.5494c-1.1354 0.62684-3.4062 1.4311-5.2394 1.8214zm1.9278 0.11827c0.22472 0.55587 0.44943 1.3128 0.4376 2.0106 1.1591 1.1117 2.6966-1.1236-0.33115-2.0579zm-2.0461 0.31933c0.27203 0.55587 0.5677 1.3365 0.60319 2.0461 1.159 1.029 2.5428-1.23-0.49674-2.1052zm-1.9278-2.3772v3.0987c-0.23655-0.47308-0.79242-0.98165-1.8096-1.3483l-0.10644 0.047308c0.28385 0.70963 0.48491 1.6321 0.41394 2.4837 0.56771 0.59136 1.2182 0.42578 1.502-0.047308v1.8332c-0.89886 0.46126-1.7504 0.86338-2.117 1.0171l1.029 1.9988c0.15376-0.070963 0.2602-0.27202 0.27203-0.4376 0.31933-0.5677 0.59135-1.0881 0.81607-1.5375v4.1158h0.31933c0.62683 0 1.3601-0.40212 1.3601-0.57953v-10.1c0.33116-0.047308 0.41395-0.17741 0.43761-0.34299zm2.6966 6.5522c0.33115 0.54405 0.69779 1.3128 0.79241 2.0224 1.3128 1.0053 2.6493-1.4902-0.6978-2.0816zm4.9082-0.68597h-0.0118v-0.8279c0.27203-0.035481 0.37847-0.1301 0.40213-0.3075l-1.4547-0.1301c0.8279-0.54405 1.5612-1.1827 2.0698-1.7386 0.28385 0.023654 0.39029-0.059136 0.4376-0.17741l-1.8332-0.94617c-0.36664 0.98165-1.2064 2.5073-2.0816 3.489l0.0946 0.11827c0.24837-0.11827 0.48492-0.23654 0.72146-0.37847v0.89886h-4.1277l0.0946 0.33116h4.033v3.146c0 0.14193-0.0591 0.20106-0.23654 0.20106-0.28385 0-1.7741-0.094617-1.7741-0.094617v0.14193c0.6978 0.1301 0.96982 0.29568 1.2064 0.54405 0.22472 0.23654 0.29568 0.60318 0.34299 1.1117 1.845-0.16558 2.1052-0.74511 2.1052-1.8332v-3.217h1.502c0.16558 0 0.28385-0.059136 0.31933-0.18923-0.41395-0.44943-1.1591-1.1236-1.1591-1.1236z" stroke="#000"/>
   </g>
   <g transform="scale(.9824 1.0179)" fill="#f55" stroke="#800000" stroke-width=".69845" aria-label="Cross">
    <path d="m115.32 23.315h-1.1921l-1.8386 3.7783c-0.52532 0.18184-1.0506 0.26266-1.6164 0.26266-2.9297 0-4.7077-2.1619-3.6975-7.1525 0.99003-4.9704 3.657-7.1929 6.4857-7.1929 0.52532 0 0.99003 0.06061 1.4345 0.20205l0.34348 3.8591h1.1921l0.80819-3.6773c-1.1719-0.72737-2.3236-1.1517-4.0612-1.1517-4.3844 0-8.7082 2.5458-9.7791 7.9404-1.0708 5.334 1.9801 7.9607 6.4453 7.9607 1.879 0 3.455-0.46471 4.8289-1.1921z"/>
    <path d="m122.69 16.587-0.24246-0.20205-4.6269 1.2729-0.10103 0.48491 1.475 0.16164c-0.14144 0.96983-0.26266 1.6366-0.52533 2.9499l-0.32327 1.677c-0.24246 1.1315-0.60614 2.8691-0.8486 4.0409l-1.4143 0.14143-0.12123 0.62634h6.5665l0.12123-0.62634-1.8184-0.18184c0.22225-1.1921 0.54552-2.8893 0.76778-4.0005l0.32327-1.677c0.68696-1.4951 1.3537-2.364 2.3033-3.1115l0.14143 0.24246c0.38389 0.72737 0.78798 1.2123 1.5558 1.2123 1.0102 0 1.5558-0.74757 1.8184-1.6366 0.0404-1.2123-0.68695-1.5962-1.6366-1.5962-1.2123 0-2.8084 1.0506-3.8187 3.1115z"/>
    <path d="m131.76 28.083c3.4348 0 6.1826-2.3033 6.91-5.92s-1.3739-5.7987-4.5663-5.7987c-3.1721 0-6.1624 2.2225-6.8898 5.7987-0.70717 3.556 1.091 5.92 4.5461 5.92zm0.14143-0.70716c-1.4547 0-1.9396-1.6568-1.2325-5.1724 0.70717-3.5358 1.8386-5.132 3.2934-5.132s1.9194 1.5962 1.2123 5.132c-0.70716 3.5156-1.8184 5.1724-3.2732 5.1724z"/>
    <path d="m145.2 20.607c-1.4951-0.48491-1.778-1.0911-1.6164-1.8386 0.20204-1.0102 1.1315-1.6366 2.364-1.6366 0.60614 0 1.0102 0.10102 1.3941 0.30307l0.28287 2.3842h1.1315l0.68696-2.5458c-1.091-0.58594-2.0407-0.90921-3.3944-0.90921-2.9701 0-4.9502 1.5356-5.3744 3.6571-0.34348 1.7174 0.52532 2.7478 2.2427 3.3136l1.0911 0.34348c1.5154 0.50512 1.778 1.1113 1.6164 1.9599-0.22225 1.1113-1.1921 1.6568-2.7276 1.6568-0.64655 0-1.1315-0.10102-1.5962-0.30307l-0.0808-2.667h-1.2931l-0.70717 2.7478c1.0506 0.66676 2.2225 1.0102 3.7985 1.0102 3.0509 0 5.1926-1.3739 5.6573-3.7177 0.34348-1.6568-0.36368-2.7882-2.364-3.4146z"/>
    <path d="m155.52 20.607c-1.4952-0.48491-1.778-1.0911-1.6164-1.8386 0.20205-1.0102 1.1315-1.6366 2.364-1.6366 0.60615 0 1.0102 0.10102 1.3941 0.30307l0.28286 2.3842h1.1315l0.68696-2.5458c-1.0911-0.58594-2.0407-0.90921-3.3944-0.90921-2.9701 0-4.9502 1.5356-5.3744 3.6571-0.34348 1.7174 0.52532 2.7478 2.2427 3.3136l1.091 0.34348c1.5154 0.50512 1.778 1.1113 1.6164 1.9599-0.22225 1.1113-1.1921 1.6568-2.7276 1.6568-0.64655 0-1.1315-0.10102-1.5962-0.30307l-0.0808-2.667h-1.2931l-0.70716 2.7478c1.0506 0.66676 2.2225 1.0102 3.7985 1.0102 3.0509 0 5.1926-1.3739 5.6573-3.7177 0.34348-1.6568-0.36369-2.7882-2.364-3.4146z"/>
   </g>
  </g>
 </g>
</svg>
