<svg xmlns="http://www.w3.org/2000/svg" width="3000" height="3000"><path d="M449 2666.5v1.5h2102v-1.5c-63.81-378.768-126.215-757.87-189.705-1136.696-47.349-283.998-94.654-568.016-142-852-4.398-26.67-8.911-53.338-13.325-80.003-1.118-6.656-2.232-13.342-3.35-19.985-.571-3.586-1.119-7.183-2.096-10.662-1.288-2.958-6.82-3.128-9.193-4.54-101.51-33.828-203.017-67.663-304.512-101.514a746151 746151 0 0 1-266.522-88.84c-39.072-12.89-78.06-26.135-117.144-38.98-4.713-1.335-9.273 1.032-13.839 2.453-144.507 48.104-288.95 96.378-433.449 144.467-54.18 18.08-108.385 36.116-162.566 54.195-23.808 7.923-47.625 15.882-71.434 23.805-5.676 1.96-11.407 3.738-17.06 5.726-6.564 1.113-6.72 8.744-7.34 13.268C740.08 921.349 682.77 1265.54 625.383 1609.692 566.339 1961.663 508.308 2314.864 449 2666.5m607-468c1.217 4.055 2.64 8.028 3.48 12.22.824 3.124 1.848 6.185 2.902 9.224 2.832 3.856 11.264.932 15.001 2.056H1425v300c40.822.979 82.817-2.347 120.32-20.16 7.492-3.764 19.195-7.924 18.635-19.124.129-33.359-.024-66.715.045-100.073V2222h328.8c10.602-.38 21.33.589 31.883-.627 4.236-.678 8.193-2.567 11.766-4.888 2.226-1.558 6.515-6.64 4.19-8.676-42.267-37.067-87.95-70.143-132.139-104.809-13.283 17.643-27.352 35.014-40.86 52.548-10.52 13.076-20.5 26.562-31.093 39.572-4.175 4.844-14.058 1.876-20.698 2.88H1564v-110.4c.851-5.017-1.327-12.112 1.427-15.766 7.004-2.266 14.764-3.037 21.018-7.318 6.956-4.333 9.026-10.355 11.555-17.016-57.576-4.305-115.318-10.825-173-14.5v165h-369zm5-66.5c89.235-20.368 179.137-47.885 256.496-98.317 38.313-24.29 70.658-57.263 95.46-95.14 12.612-18.909 21.827-39.69 29.364-61.073 6.882-22.091 15.598-44.2 17.68-67.47h138v129.6c.282 30.887-1.718 62.512 6.568 92.659 2.572 10.093 8.535 19.314 16.111 26.386 15.183 12.128 35.006 15.114 53.689 17.412 31.394 1.91 62.913.29 94.34.943 30.18.327 60.527-.589 90.28-6.093 15.376-2.952 30.86-6.803 44.724-14.318 19.485-10.375 34.608-30.569 34.28-53.468 1.555-25.554-14.565-42.925-35.992-50.121-1.845-28.294-2.396-56.69-4-85h-7c-10.684 27.661-22.985 55.387-39.803 79.96-8.02 10.442-19.692 10.895-31.664 11.456-22.505 1.161-45.061.201-67.57.584-7.75-.259-17.599.168-24.059-3.415-5.215-3.763-3.308-14.104-3.904-19.231v-77.967c.62-12.874-.768-25.944.446-38.757.242-2.564 4.728-2.835 6.53-3.632 8.118-2.018 17.146-5.174 22.024-12.498-35.166-28.12-70.566-56.085-105.5-84.5-10.282 12.745-22.45 24.303-33.468 36.477-8.648 8.689-16.278 18.312-25.013 26.894-4.035 3.582-9.83 2.451-14.837 2.629H1465c2.363-25.94 7.272-51.656 8.772-77.711.451-6.758 1.176-13.488 1.658-20.236.471-4.762-.225-11.12 3.483-13.617 11.47-2.181 26.949-6.797 31.087-21.936-57.855-5.983-116.005-12.475-174-17.5.09 50.47-4.551 100.804-9 151-71.607.76-143.478-.926-215 .5 3.215 6.879 4.298 16.137 7.917 22.213 6.462 2.596 13.007.407 19.833 1.287H1323c-10.09 71.114-39.631 140.659-90.602 192.102-48.901 51.69-111.324 88.467-175.398 117.898-.198 4.298 3.31 8.31 4 12m776-1168c-28.713-15.624-55.92-34.715-84.407-50.932-49.079-30.14-98.37-59.974-147.466-90.063-18.53-11.055-36.823-22.488-55.22-33.736-16.33-9.192-31.732-20.256-48.264-29.006-3.192-1.585-7.307 2.579-10.65 4.037-54.626 33.427-109.352 66.657-163.919 100.156-27.456 16.57-54.698 33.52-82.149 50.084-27.527 15.94-54.207 34.068-81.925 49.46v370.062c.337 7.34-.428 14.74.274 22.046.126 2.948 3.44 5.113 6.188 6.852 41.25 24.886 82.111 50.355 123.354 75.229 30.725 19.177 61.895 37.652 92.738 56.632 22.955 14.178 46.072 28.083 69.051 42.211 9.094 5.23 17.922 10.901 26.887 16.326 7.074 3.766 16.475 12.909 23.525 8.312 53.06-32.2 105.953-64.667 158.927-96.992 38.482-23.703 77.045-47.23 115.66-70.71 14.72-8.812 29.262-17.926 43.95-26.789 6.074-3.377 14.733-7.024 13.446-15.971zm-45 26c-48.69-28.271-96.616-58.892-144.972-87.903-36.779-21.856-72.924-44.732-109.71-66.565-6.76-4.495-13.863-8.457-20.778-12.69-6.874-3.55-13.879-11.152-21.101-7.35-47.955 28.92-95.662 58.279-143.556 87.271-48.031 28.77-95.574 59.157-143.883 87.237v320.24c.141 6.383-.18 12.776.119 19.14.207 5.37 6.985 7.72 10.832 10.267 35.126 21.305 70.193 42.714 105.244 64.112 52.979 32.14 105.856 64.41 158.731 96.697 6.491 2.88 14.21 10.954 20.659 8.03 46.412-27.931 92.478-56.383 138.822-84.418 33.67-20.092 66.88-40.977 100.527-61.088 12.701-7.937 25.606-15.485 38.288-23.427 2.65-1.62 5.42-3.106 7.97-4.884 4.605-4.235 1.947-13.695 2.808-20.349z" style="fill:#fff;fill-rule:evenodd;stroke:none"/><path d="M1055 2120.292c.498 4.465 4.347 8.678 5 12.708 23.196-3.478 45.687-11.153 68.382-16.837 76.788-21.756 153.515-51 216.888-100.857 31.196-24.399 56.413-55.844 77.06-89.38 9.527-17.781 17.263-36.537 23.733-55.635 5.782-18.817 13.46-41.139 14.937-59.291h136v129.6c.282 30.887-1.718 62.512 6.568 92.659 2.572 10.093 8.535 19.314 16.111 26.386 15.183 12.128 35.006 15.114 53.689 17.412 31.408 1.91 62.903.29 94.343.943 30.345.378 60.79-.546 90.726-5.805 15.55-2.978 31.26-6.648 45.348-14.126 19.998-10.169 35.524-30.728 35.207-53.966.414-11.916-1.826-24.392-9.404-33.96-6.572-8.178-17.539-15.166-26.588-18.143-1.845-28.294-2.396-56.69-4-85h-9c-10.569 27.512-22.87 54.977-39.427 79.495-8.258 10.764-19.915 11.503-31.47 11.89-22.293 1.175-44.639.26-66.937.615-7.546-.289-17.185.117-23.409-3.529-4.99-4.514-3.247-13.738-3.757-19.491v-77.163c.69-12.183-.88-26.77.572-37.853 1.165-2.275 5.254-2.258 7.823-3.311 8.521-1.801 16.406-6.154 21.605-13.153-35.49-29.204-72.252-57.01-107.5-86.5-10.473 12.58-22.129 24.215-33.233 36.233-8.806 8.665-16.322 18.473-25.14 27.115-3.822 4.37-8.838 3.716-14.151 3.652H1466c3.247-26.147 6.994-52.252 8.98-78.55.494-6.782 1.358-13.514 1.643-20.31.391-4.232-.472-10.157 5.625-11.273 11.758-2.282 27.616-8.4 28.752-23.867-58.366-5.818-117.357-11.408-175.5-18-1.286 50.67-4.26 101.544-9.5 152h-215c1.42 7.848 4.326 15.472 7.027 22.937 1.294 4.264 8.631 2.619 11.747 3.063H1322c-6.136 36.073-16.232 71.56-31.48 104.894-22.066 48.691-59 89.163-99.79 122.807-41.134 33.452-88.436 58.081-135.73 81.299zM1424 2223v300c41.472 1.024 84.195-1.964 122.32-20.16 7.8-3.716 19.536-8.191 18.651-19.722.083-33.761-.015-67.514.029-101.273V2223h340.8c12.754-.232 30.73 2.811 38.2-14.5-44.972-35.843-89.244-74.788-137-106.5-12.19 18.051-27.45 34.817-40.36 52.548-10.52 13.076-20.5 26.562-31.093 39.572-4.057 4.737-13.609 1.982-20.099 2.88H1565v-110.4c.466-4.564-1.576-13.408 3.604-14.481 7.02-1.981 14.864-2.868 20.567-7.959 5.632-4.442 9.107-11.056 9.829-18.16-29.372-1.308-58.62-5.114-87.937-7.075-28.655-3.433-58.104-3.946-86.563-7.925-1.426 55.2.26 110.732-.5 166h-369c.792 7.28 4.165 15.403 5.623 21.923 1.018 4.457 6.613 4.267 10.365 4.077H1424m414-1260c-28.839-15.717-56.226-34.856-84.816-51.189-42.201-25.89-84.66-51.353-126.724-77.455-41.968-25.766-84.41-51.002-125.96-77.356-27.963 16.912-55.98 34.329-84.032 51.217-42.273 25.879-84.696 51.51-126.927 77.436C1246.818 910.891 1204.983 938.42 1162 963v372.436c.447 7.259-.598 15.948.45 22.548-.03 2.895 4.85 4.606 6.452 6.263 41.572 24.921 82.578 50.704 124.113 75.673 31.115 19.022 62.208 38.094 93.391 57.012 23 14.468 46.551 28.023 69.52 42.524 8.942 5.356 17.816 10.822 26.705 16.249 7.246 4.047 15.956 12.385 22.815 7.31 53.237-32.347 106.335-64.876 159.498-97.337 38.606-23.818 77.388-47.37 116.1-70.997 14.741-8.822 29.264-17.931 43.986-26.78 6.16-3.614 14.274-6.49 12.97-16.292zm-47 28c-48.538-28.217-96.319-58.68-144.521-87.644-36.698-21.762-72.73-44.592-109.413-66.376-6.688-4.462-13.711-8.34-20.53-12.572-6.358-3.063-14.12-11.218-20.55-7.655-47.946 28.98-95.699 58.228-143.571 87.32-47.906 28.61-95.242 59-143.415 86.927v318.466c.166 6.365-.215 12.745.147 19.103.376 5.602 7.833 7.682 11.67 10.62 34.934 21.287 69.983 42.371 104.788 63.843a51089 51089 0 0 1 157.844 96.149c6.56 2.653 13.794 10.903 19.911 7.822 46.171-27.732 91.95-56.109 138.047-83.935 33.512-19.982 66.534-40.78 100.024-60.791 12.78-7.857 25.639-15.57 38.385-23.466 5.494-2.986 12.354-5.51 11.184-14.103z" style="fill:green;fill-rule:evenodd;stroke:none"/></svg>