<svg xmlns="http://www.w3.org/2000/svg" width="3000" height="3000"><path d="M449 2666.5v1.5h2102v-1.5c-63.81-378.768-126.215-757.87-189.705-1136.696-47.349-283.998-94.654-568.016-142-852-4.398-26.67-8.911-53.338-13.325-80.003-1.118-6.656-2.232-13.342-3.35-19.985-.571-3.586-1.119-7.183-2.096-10.662-1.288-2.958-6.82-3.128-9.193-4.54-101.51-33.828-203.017-67.663-304.512-101.514a746151 746151 0 0 1-266.522-88.84c-39.072-12.89-78.06-26.135-117.144-38.98-4.713-1.335-9.273 1.032-13.839 2.453-144.507 48.104-288.95 96.378-433.449 144.467-54.18 18.08-108.385 36.116-162.566 54.195-23.808 7.923-47.625 15.882-71.434 23.805-5.676 1.96-11.407 3.738-17.06 5.726-6.564 1.113-6.72 8.744-7.34 13.268C740.08 921.349 682.77 1265.54 625.383 1609.692 566.339 1961.663 508.308 2314.864 449 2666.5m601-1517c.81 2.051 2.59 3.828 3 6.5 39.943-13.113 77.57-33.006 115.375-51.186a1259 1259 0 0 0 53.699-29.423c9.015-4.866 17.668-10.375 26.384-15.729 4.223-2.848 8.611-5.434 13-8 3.96-2.253 8.308-6.04 12.542-6.662 1.565 7.485 5.538 15.91 6 23h137v135c-97.929.76-196.151-.926-294 .5 4.317 6.787 3.08 17.935 7.85 22.867 26.922 1.806 54.224-.329 81.222.633H1417v301h-341c1.078 8.184 4.903 15.817 6 24h805.8c15.74.089 37.1 2.955 43.2-13.375-42.7-37.707-88.957-71.185-133.5-106.625-12.768 15.572-24.516 32.002-37.044 47.773-11.417 16.476-25.81 31.374-36.456 48.227h-168v-301h292.2c9.188.141 18.751.727 27.428-2.984 3.297-1.463 6.33-3.962 8.081-7.114 1.914-3.537-1.56-5.913-4.097-8.028-37.779-32.386-77.308-62.768-116.112-93.874-20.578 29.983-45.382 57.783-65.5 88h-142v-135h85.8c14.408-.038 28.817.046 43.222-.025 11.434-.86 26.68.943 33.978-13.475-35.612-31.54-73.905-60.541-111.5-89.5-16.845 21.7-34.295 42.996-51.075 64.755-3.33 3.69-6.489 8.768-9.967 11.754-3.888 3.017-12.035.462-16.397 1.491H1278v-3c52.505-32.555 100.522-72.967 146.874-113.697 23.236-21.5 44.76-44.597 66.122-67.922 9.947-11.948 19.985-23.84 29.232-36.342 4.594-6.222 9.372-12.298 13.604-18.763 2.015-3.206 4.256-6.25 6.277-9.45 2.19-3.048 4.394-7.506 7.891-7.826 23.871 74.003 65.093 142.032 119.618 197.515 51.677 55.475 116.62 96.587 180.882 135.485 5.718-30.29 18.642-59.144 36.677-84.145 18.227-24.022 42.636-45.925 72.823-52.855-.13-4.698.07-9.384 1-14-75.699-14.586-150.21-36.426-221.736-65.09-34.341-13.802-66.593-32.03-97.607-52.1-15.306-10.456-30.072-21.776-43.353-34.742-7.637-5.69-13.256-13.494-19.888-20.18-3.195-3.512-6.133-7.254-9.2-10.873-2.494-3.382-6.698-7.005-7.216-11.015 9.75-.774 19.448-2.703 28.925-5.017 8.709-2.853 19.678-7.35 21.075-16.983-66.967-15.741-133.105-35.881-200-52-12.336 47.99-35.654 92.269-61.571 134.14-38.498 61.243-83.921 118.137-133.662 170.593-49.62 53.03-104.5 102.784-164.767 143.267v1.75zm7.177 1276.488c.767 18.669 7.063 37.702 21.613 50.148 14.473 12.334 33.804 18.707 52.716 17.76 40.184-3.431 73.066-37.74 83.706-75.155 15.39-49.259 3.056-101.73-17.118-147.382-2.156-3.243-3.81-10.704-7.589-11.005-7.254-1.364-6.792 5.23-6.516 10.527-.022 18.002-8.38 34.948-19.255 48.828-8.072 10.71-18.575 19.469-29.46 27.13-16.508 10.225-36.473 14.867-51.025 28.383-7.438 6.29-14.185 13.451-19.204 21.877-4.769 8.797-7.444 18.761-7.868 28.89M1198 2251c23.223.86 46.557-.09 68.958-6.996 17.81-4.899 35.033-12.057 50.59-22.072 8.065-6.517 16.593-4.949 25.665-4.932H1762c-1.463 26.407-5.412 52.682-9.057 78.846-3.23 19.81-7.135 39.647-13.005 58.849-4.436 12.822-8.884 27.552-20.844 35.588-8.737 6.29-19.885 6.91-30.199 7.587-17.273.214-34.533-1.597-51.754-2.522-16.171-1.774-35.35-1.482-50.141-3.348v9c26.983 4.963 57.998 18.805 75.136 37.79 10.213 11.14 15.626 25.457 17.222 40.356 2.111 15.19 2.724 30.534 2.642 45.854 27.915-.169 55.887-2.833 82.715-10.789 18.328-6.061 36.21-14.425 51.201-26.798 21.764-19.236 36.323-45.005 44.962-72.523 9.66-29.338 15.575-59.772 20.232-90.264 4.061-28.419 8.033-56.971 9.89-85.626 11.36-2.337 26.922-5.008 36-16.5-36.12-29.849-72.485-59.533-108.5-89.5-13.995 13.265-27.793 26.79-42.3 39.496-5.987 5.891-12.069 11.667-18.453 17.114-3.387 2.998-8.174 2.354-12.412 2.39H1332v-81h582.599c9.68-.1 24.425-1.312 28.401-13.547-40.312-33.143-82.096-65.194-124.5-95.453-12.389 15.032-24.283 30.53-36.638 45.586-5.514 6.607-10.781 13.422-16.198 20.101-5.273 5.57-9.88 13.839-15.569 18.1-7.363 2.678-18.068.153-25.773 1.213H1332v-84h312v43c20.198.219 40.49-.634 60.31-4.62 13.648-3.232 27.309-6.608 40.367-11.768 9.816-3.655 19.754-7.486 28.588-13.195 4.228-2.501 3.747-6.933 3.735-11.315V1816.15c-.063-3.908-.658-9.579 4.484-10.616 12.208-2.325 23.146-8.926 31.516-18.034-39.599-30.82-80.689-59.934-120.5-90.5-11.45 13.978-26.996 28.49-37.428 41.38-4.927 4.984-9.32 10.427-14.296 15.36-2.093 2.323-4.17 4.649-6.45 6.769-52.035 1.4-104.263-.255-156.326.491v-2c22.437-17.205 47.18-31.85 69.366-49.53 5.858-4.146 11.655-8.377 17.342-12.736 4.47-3.186 8.711-6.704 13.264-9.765 7.677-2.869 16.853-2.21 24.043-7.03 7.376-3.67 12.035-10.728 14.985-18.022-2.326-2.561-7.506-2.062-11.267-3.009-59.248-8.655-118.473-17.374-177.733-25.908-2.433 42.758-7.114 85.368-11 128h-63.6c-14.336.907-27.476-5.184-40.546-10.454-38.079-15.293-76.84-29.217-114.854-44.546zm10-983.75c15.1 38.094 21.566 79.333 27.194 119.707 1.706 16.097 2.645 32.425 2.474 48.603-.053 7.052-1.038 15.448-.109 21.854 15.294 18.37 38.487 30.672 62.41 31.364 37.89-.239 70.416-34.085 71.603-71.544 1.084-18.86-5.02-37.237-13.762-53.61-8.531-16.049-21.579-28.951-34.287-41.592-31.136-27.011-69.136-45.393-108.262-57.502-2.405.257-5.013 2.15-7.261 2.47zm65 999.25c9.125 41.573 7.741 93.276 1.668 131.682-1.532 8.096-2.786 16.261-5.012 24.202-1.91 6.769-5.814 13.913 1.206 20.44 8.516 10.191 19.138 19.19 31.612 24.089 23.385 8.664 50.81 1.313 67.393-17.286 26.664-27.446 25.024-71.755 6-102.782-16.727-30.997-44.133-54.649-73.922-72.582-4.172-2.717-8.452-5.243-12.809-7.64-2.165-.82-4.828-3.078-6.752-3.137-2.581-.09-4.937.959-7.34 1.674-.754.348-1.376.88-2.044 1.34m59-398.5h312v-83h-312zm0 110h312v-86h-312zm61 281.5c15.093 26.55 28.088 54.537 36.837 83.897 7.126 23.607 11.641 48.046 12.181 72.73.315 8.689 11.904 13.06 17.687 17.62 13.428 8.22 29.663 11.647 45.13 7.75 22.704-4.68 40.452-23.639 45.965-45.702 6.243-22.487-1.591-46.703-14.952-64.95-31.533-42.524-83.784-62.946-133.33-74.606-3.34-1.099-5.858.734-9.004 1.618l-.514.143zm134-18.172c31.968 28.072 64.29 70.65 73.941 109.365 1.344 11.331 19.408 13.47 27.9 16.189 34.981 7.588 71.582-25.977 66.838-61.267-1.873-15.023-10.607-28.423-21.286-38.71-16.557-15.339-42.87-23.458-62.577-27.418-24.56-4.508-49.732-3.852-74.57-2.76-4.783-.362-7.744 1.446-10.246 4.601M1596 1488c2.995.842 6.405 3.553 8.5 5 37.923-26.95 74.814-55.696 108.959-87.348 17.752-16.106 34.663-33.068 51.516-50.127 8.15-7.731 14.662-20.53 28.356-19.959 11.057-1.002 26.17-6.824 27.669-17.566-57.156-19.409-113.813-40.686-171-60-15.581 77.093-34.13 153.954-54 230" style="fill:#fedda9;fill-rule:evenodd;stroke:none"/><path d="M1048 1148.25c.928 2.993 3.538 6.583 5.5 9.75 39.19-15.088 77.511-32.44 114.84-51.681 35.23-19.11 70.955-37.78 104.16-60.319 2.466 6.476 5.43 15.437 6.5 23h137v133h-294c1.53 7.814 4.104 15.48 6.287 23.128 1.031 4.387 9.246 2.17 12.096 2.872H1416v299h-342c2.134 8.68 5.484 17.162 7 26h796.2c11.175-.204 22.347.263 33.5-.18 7.405-.71 17.982-3.223 20.552-12.418 1.275-3.373-4.203-6.25-5.84-8.445-40.868-36.164-85.747-67.423-127.912-101.957-13.372 15.427-24.772 32.558-37.717 48.342-11.487 16.642-26.056 31.637-36.783 48.658h-166v-299h297.6c11.332.416 27.524-.432 32.4-14.5-19.806-17.86-40.69-34.508-61.644-50.995-20.02-17.234-41.308-32.973-61.856-49.505-21.355 30.103-45.82 58.566-66.5 89h-140v-133h87c14.594-.091 29.184.113 43.77-.064 12.056-.409 26.745-.077 33.23-15.436-37.208-30.767-74.88-61.454-113.5-90.5-17.205 21.11-33.785 42.807-50.815 64.073-3.176 4.11-6.417 8.173-9.766 12.138-3.445 3.925-10.278 2.498-14.86 2.789H1280.5l-1.5-.5c51.716-33.611 100.245-72.275 146.033-113.522 45.47-42.37 87.809-88.472 121.467-140.978 13.857 36.47 27.803 73.561 49.283 106.515 30.9 49.288 69.188 94.459 113.971 131.682 43.286 36.549 91.05 67.202 139.746 95.803 5.23-30.197 18.215-58.89 35.798-83.893 18.228-24.631 43.028-47.045 73.702-54.107-.108-5.365.407-10.687 1-16-75.363-14.454-149.502-36.27-220.749-64.687-68.008-27.795-132.697-68.178-178.251-126.813 18.137-3.897 43.434-3.548 51-23-66.573-20.138-135.693-34.756-202.5-54.5-12.98 48.245-35.52 93.07-62.071 135.14-38.587 61.386-84.146 118.404-134.031 170.962-49.685 53.614-105.026 102.663-165.398 143.898zm8.112 1277.53c.563 18.789 6.535 37.954 20.893 50.644 14.377 12.736 33.827 19.237 52.908 18.555 41.15-1.718 75.212-36.838 86.128-74.683 15.57-49.658 3.697-102.797-16.526-148.977-1.009-2.296-2.122-4.547-3.228-6.794-1.728-5.668-6.66-6.459-11.631-4.797-3.246 3.047-.554 10.892-1.822 14.59-2.75 34.228-33.936 66.064-61.131 78.341-7.862 4.187-16.556 6.713-24.104 11.498-11.094 6.387-20.739 14.96-28.773 24.856-8.14 10.33-12.282 23.452-12.714 36.766M1197 2252c43.883 1.58 89.656-6.092 126.24-32.294 7.055-3.22 18.074-.761 26.968-1.706H1761c-1.978 25.954-5.31 51.802-9.152 77.542-3.273 19.738-7.162 39.481-13.06 58.614-4.399 12.674-8.873 27.198-20.694 35.127-8.61 6.222-19.613 6.863-29.782 7.597-17.125.146-34.213-1.668-51.281-2.62-17-1.301-34.04-1.875-51.031-3.26v11c26.983 4.963 57.998 18.805 75.136 37.79 10.213 11.14 15.626 25.457 17.222 40.356 2.111 15.19 2.724 30.534 2.642 45.854 28.58-.053 57.24-2.673 84.715-10.789 18.328-6.061 36.21-14.425 51.201-26.798 21.888-19.384 36.53-45.358 45.138-73.088 9.657-29.687 15.64-60.476 20.293-91.3 4.04-27.873 7.745-55.922 9.653-84.025 13.025-2.369 28.714-6.03 37-17.5-19.069-16.006-38.484-31.634-57.608-47.586-17.122-13.506-33.326-28.2-50.718-41.338-3.577-3.43-8.47 4.623-10.909 6.155-13.628 12.703-27.783 24.85-41 38-6.245 5.242-12.887 13.554-20.229 13.265-138.515.011-277.027-.002-415.536.004v-79h545.4c13.019-.016 26.033.02 39.037-.01 11.337.794 22.863-3.8 27.563-14.49-40.524-34.404-83.816-65.99-126.5-97.5-12.731 14.832-24.372 30.635-36.863 45.668-5.555 6.636-10.887 13.483-16.316 20.207-5.192 5.73-10.049 13.621-15.373 18.351-2.909 2.361-8.078 1.644-12.231 1.774H1333v-82h310v43c20.508.222 41.043-.564 61.201-4.375 14.034-3.194 28.06-6.764 41.476-12.013 9.816-3.655 19.754-7.486 28.588-13.195 4.228-2.501 3.747-6.933 3.735-11.315v-176.956c.03-5.209-.036-10.4.022-15.6.217-2.038.17-5.607 2.213-6.198 7.547-2.42 15.664-3.837 22.096-8.965 4.934-3.603 14.38-9.362 8.634-14.532-39.278-29.897-79.347-58.753-118.465-88.851-11.83 14.282-25.405 26.987-37.323 41.182-4.843 4.787-10.014 10.883-14.279 15.42-2.301 2.03-4.396 5.02-6.498 6.861-1.972 2.072-6.204 1.227-9.297 1.537-48.612-.76-97.61.926-146.103-.5 19.87-13.75 39.768-27.543 59.447-41.576 7.348-5.63 14.847-11.029 22.326-16.467 6.548-4.462 12.583-10.115 19.386-14.082 12.599-3.339 28.474-3.48 35.828-19.893.984-2.493 2.465-6.251.326-7.969-42.264-6.685-84.817-12.36-127.154-18.68-20.75-2.668-41.356-6.72-62.159-8.833-2.433 42.758-7.114 85.368-11 128h-63.6c-14.368.52-27.47-6.476-40.702-11.296-38.381-13.957-76.132-30.49-114.698-43.704zm38-794.5c16.119 17.416 37.582 31.332 61.92 32.252 24.645 1.078 48.792-11.692 62.23-32.326 12.136-16.976 15.73-38.434 12.309-58.663-2.963-19.705-12.24-38.12-24.536-53.584-28.014-36.941-70.14-59.198-112.394-75.48-8.545-3.04-17.935-8.563-27.529-3.699 10.167 30.445 18.269 61.782 23.259 93.565 4.563 32.126 9.152 65.666 4.741 97.935m30.354 978.015c.51 4.586 4.721 8.3 7.07 11.323 9.305 9.647 20.154 19.01 33.505 22.381 33.715 10.147 71.183-12.304 81.278-45.372 6.228-18.133 4.261-41.689-1.135-58.093-5.844-16.418-15.454-31.373-26.207-44.947-14.388-17.458-32.079-31.737-51.066-43.948-6.733-4.525-13.758-8.588-20.872-12.468-3.416-2.262-6.144-3.34-9.507-1.717-3.642.785-7.026 2.132-5.575 6.87 9.99 54.979 6.718 112.014-7.491 165.971M1333 1867h310v-81h-310zm0 110h310v-84h-310zm58 281.295c13.48 24.927 27.082 50.46 35.212 77.872 7.067 21.584 11.973 43.99 14.1 66.602.854 8.51-1.164 18.776 6.23 23.812 11.447 8.325 24.332 16.192 38.88 17.14 21.375 2.284 44.001-7.046 56.175-25.209 13.252-18.029 15.78-41.876 8.731-62.805-9.85-29.524-34.208-51.396-59.974-67.109-26.404-16.474-56.619-25.847-86.558-33.391-5.094-1.664-8.665.68-12.796 2.793zm134-16.709c32.336 27.9 64.618 70.446 74.679 109.096 1.306 11.942 19.063 14.754 27.533 17.081 17.017 3.815 37.984-2.627 49.736-13.286 13.348-11.268 21.425-28.128 20.002-45.837-.496-15.604-8.678-30.213-19.683-40.873-16.16-16.294-43.062-24.863-62.995-28.98-24.923-4.743-50.524-4.262-75.77-3.168-2.663-.019-5.77.366-8.122.957-1.47 1.852-4.39 2.945-5.38 5.01m69-753.961c3.66 2.587 9.192 6.587 12.879 5.1 4.469-2.528 8.404-6.034 12.734-8.793 36.074-25.755 70.073-54.388 102.49-84.532 16.945-15.17 32.464-31.9 48.741-47.784 3.716-4.167 7.072-8.657 11.41-12.228 3.478-3.034 8.353-2.247 12.656-2.89 11.77-1.062 25.342-6.896 28.09-19.498-58.033-19.322-115.76-40.784-173.5-61-17.624 77.036-32.92 156.135-55.5 231.625" style="fill:#000;fill-rule:evenodd;stroke:none"/></svg>