<svg xmlns="http://www.w3.org/2000/svg" width="3000" height="3000"><path d="M407 2715h2186c-120.11-729.14-243.257-1457.94-364-2187-121.653-40.09-243.099-81.112-364.7-121.395-91.164-30.407-182.32-60.766-273.474-91.162a32206 32206 0 0 1-51.529-17.183c-8.003-2.659-16.01-5.346-24-8-7.038-2.654-14.998-6.446-23.453-2.372-120.19 40.07-240.392 80.12-360.578 120.183C1011.124 447.878 891.186 488.387 771 528c-120.737 729.033-243.897 1457.913-364 2187m625.344-1388c30.618-15.294 59.528-34.349 87.595-53.896 14.033-9.774 27.39-20.473 40.647-31.242 6.757-5.483 13.085-11.42 19.766-16.97 3.356-2.863 6.246-6.246 9.633-9.062 3.209-2.211 6.297-6.357 10.015-6.83-.056 61.913-1.364 124.31-13.353 185.25-3.382 13.987-7.376 28.199-15.03 40.55-11.466 22.889-40.571 17.126-60.717 16.94-22.964-1.416-45.873-3.633-68.9-3.74.107 3.8-.62 9.125 3.475 9.952 3.332 1.294 6.832 2.207 10.177 3.43 23.674 6.847 48.903 25.618 58.265 46.57 10.269 26.68 9.954 55.98 11.083 84.048 26.443.057 53.318-2.044 78.684-10.043 18.21-5.02 34.975-14.843 49.039-27.215 38.514-41.982 54-99.236 62.967-153.864 10.3-62.81 12.43-126.773 10.859-190.315-3.048-90.601-12.928-182.64-46.197-267.71-7.9-20.294-17.126-40.096-28.372-58.756-1.835-3.51-4.76-7.314-5.96-10.763-1.774-3.441 3.564-6.93 5.35-9.204 19.714-21.083 39.834-41.868 57.772-64.544 9.672-10.262 17.214-22.399 26.804-32.678 2.693-2.292 7.142-.931 10.91-.984 9.973.192 23.643-3.15 26.144-13.924-50.361-26.02-98.759-56.798-149-83-5.637 23.322-15.808 45.357-24.288 67.72-7.134 16.401-13.64 33.268-22.053 49.036-1.735 4.024-6.296-.972-7.906-2.467-18.787-16.814-38.887-31.994-59.844-46-10.521-6.349-20.694-13.226-31.455-19.163-5.186-2.866-10.241-5.976-15.517-8.673-2.759-1.583-5.464-3.182-8.558-3.956-3.007.793-4.518 3.77-7.379 5.003 21.69 24.09 43.838 48.016 61.109 75.674 13.352 20.096 25.683 41.12 35.204 63.307 1.013 4.189-2.93 9.096-4.212 12.112-16.574 29.485-33.586 58.841-52.805 86.693-9.677 13.895-19.27 27.833-29.93 41-5.383 6.711-10.66 13.547-16.248 20.087-2.674 3.087-5.754 6.825-8.098 9.725-2.076 3.101 3.834 7.269 4.48 9.902 24.217-13.908 48.797-27.404 71.555-43.704 11.488-7.715 22.705-15.778 33.611-24.293 5.735-4.175 11.31-8.529 16.818-12.986 5.033-3.488 11.105-10.703 16.516-11.017 3.487 18.276 11.077 36.885 5.562 55.603-12.164 62.46-33.516 122.818-59.831 180.589-13.11 27.998-28.059 55.085-44.401 81.315-8.264 12.704-16.778 25.255-25.693 37.51-4.298 6.174-9.022 12.055-13.633 17.98-2.276 2.96-4.775 5.767-6.952 8.799-2.652 2.98-.096 6.065 2.292 8.204m-.344 980c35.8-17.682 70.553-38.23 103.9-60.273 17.175-11.309 33.758-23.504 49.727-36.448 8.197-6.62 16.4-13.215 24.184-20.315 4.265-3.226 7.825-7.216 11.705-10.86 3.919-2.762 8.434-8.421 12.484-9.104-.122 63.193-1.253 127.195-15.892 189.015-3.47 14.076-10.285 30.046-17.79 41.008-5.55 9.055-14.73 16.16-25.538 17.6-36.635 2.068-73.215-2.744-109.78-3.623v9c27.782 4.901 57.737 25.047 71.866 46.714 7.518 13.577 10.064 29.147 11.877 44.336 1.172 16.294 2.413 32.597 2.257 48.95 28.226.343 56.569-3.123 83.706-10.939 18.921-5.546 36.697-15.217 51.265-28.555 20.619-21.496 35.82-47.95 46.144-75.788 12.02-28.822 18.167-59.616 23.952-90.134 9.218-58.635 10.75-118.15 9.26-177.392-3.437-84.622-13.824-170.646-45.168-249.937-7.707-18.732-16.433-37.058-26.752-54.502-3.498-6.476-7.49-12.629-11.695-18.65-1.545-2.25-3.74-5.12-3.121-8.579 31.99-37.42 68.096-72.36 95.409-113.524 13.535 1.509 32.476 1.286 37-13-52.32-23.71-101.674-54.301-154-78-12.893 42.955-33.495 83.372-52 124-6.644-1.062-12.183-9.685-18.867-13.384-20.632-15.873-42.285-30.448-65.272-42.682-12.156-6.244-24.067-12.902-36.225-19.114-6.078-2.966-12.412-5.37-18.502-8.287-3.043-1.333-6.011-2.994-9.297-3.65-2.853-1.54-5.91 3.328-7.837 4.617 27.402 24.39 54.68 49.363 77.384 78.367 8.222 10.838 16.457 21.66 23.9 33.053 6.15 9.717 12.242 19.547 17.901 29.553 3.495 6.072-.532 10.8-3.191 15.03-18.665 32.497-39.13 63.898-60.74 94.49-11.495 15.63-23.037 31.244-35.614 46.012a361 361 0 0 1-19.237 22.301c-2.95 3.922-6.575 7.246-9.758 10.948-3.846 4.37-.55 7.15 2.668 10.746 45.746-22.932 89.188-50.906 129.554-82.383 8.06-6.085 15.741-12.656 23.501-19.11 3.078-1.984 8.052-8 11.157-4.776 2.856 8.493 4.978 18.974 7.34 26.866 1.454 7.319-3.205 16.873-4.837 25.3-17.069 62.515-43.71 121.937-73.74 179.11-29.698 53.366-64.325 104.548-106.288 148.993.335 2.633 2.35 4.523 3 7m248-776.5c2.08 8.514 5.272 16.897 7 25.5h618c14.805-.016 29.632.02 44.433-.01 11.555-.585 27.221.585 33.567-14.49-22.603-33.093-49.641-62.976-75.5-93.5-9.48 17.895-19.567 35.85-28.5 54h-3v-249c11.21-1.22 22.456-4.128 32.47-9.386 4.428-2.523 11.918-7.263 6.55-11.098-4.152-3.099-9.233-6.463-13.092-9.219-9.91-6.598-19.451-13.695-29.373-20.273-24.304-17.288-49.275-33.76-73.555-51.024-11.851 13.734-22.278 28.964-33.756 43.055-5.212 6.158-9.588 13.054-15.121 18.924-3 2.81-8.343 1.756-12.071 2.021h-201.568c-16.79-.225-33.591.275-50.375-.149-11.046-2.128-21.12-8.03-31.825-11.327-30.045-12.269-60.976-22.822-90.784-35.524-1.426 120.21.26 240.72-.5 361h-83zm52-573.5h229v85.8c-.402 6.111 1.065 14.248-2.334 18.688-3.607 5.003-10.102 4.468-15.061 4.512-39.617.048-79.024-4.983-118.605-6 .554 3.334-1.073 9.324 2.395 10.607 3.557.87 7.191 1.677 10.798 2.362 27.43 4.45 54.603 16.124 72.127 38.515 9.065 11.168 13.159 25.323 15.704 39.165 2.827 14.319 4.574 28.848 5.976 43.351 28.063-3.65 56.693-5.764 83.777-14.767 19.065-6.176 38.171-14.895 52.198-29.708 10.975-10.666 16.76-25.344 20.82-39.732 7.079-24.52 6.528-50.162 6.205-75.367V957h211.8c11.65-.127 23.324.312 34.95-.553 9.104-.467 21.874-2.709 25.25-13.994-39.35-32.077-78.584-64.405-119.5-94.453-11.724 13.315-21.971 27.96-33.403 41.534-10.084 14.119-22.889 26.873-32.097 41.466h-87v-57c12.046-1.228 30.023-5.962 32-22-2.296-.615-4.628-.993-7-1v-3c15.687-3.277 30.414-10.339 45.66-15.103 22.243-8.182 43.959-17.619 65.452-27.568 11.103-4.174 22.765-12.891 33.413-15.436 11.422-2.602 26.544-2.433 33.475-12.393-20.635-17.322-41.41-34.488-62.194-51.637-10.405-8.665-20.747-17.396-31.197-25.988-10.539-7.91-19.929-17.981-31.109-24.875-20.556 23.098-42.855 44.646-64.102 67.102-4.62 5.724-10.551 5.289-16.86 4.898H1396c2.366 7.788 4.664 17.529 8.274 24.074 9.198 2.048 19.107.113 28.476.926H1703c-4.488 12.943-14.905 26.383-20.45 37.642-5.776 9.215-11.636 18.324-17.846 27.253-2.324 2.753-5.24 8.705-8.75 8.649-31.612-2.287-63.356-4.731-94.954-7.544v93h-236c.896 8.961 5.213 17.233 7 26m89 1605c33.44.846 67.687-2.323 98.239-17.042 13.657-5.808 29.224-15.515 37.376-26.626 4.113-7.912 1.451-17.583 2.385-26.075V2466h214v88c20.648-.038 41.563-.32 61.697-5.418 13.926-3.573 27.739-7.709 41.008-13.273 9.721-4.091 21.171-9.129 29.194-14.604 9.007-5.007 7.373-14.184 7.101-22.988V1867c14.062-1.674 29.22-10.303 38-19.5-40.905-32.687-81.928-65.796-123.5-97.5-11.933 13.15-23.782 26.4-35.745 39.52-9.132 9.69-17.827 19.777-26.934 29.483-10.737 2.421-22.435-.095-33.377.997H1628c.386-3.933 5.03-7.36 8.32-10.234 24.234-23.052 50.071-44.312 74.053-67.633 6.405-5.586 12.709-11.232 18.516-17.456 4.983-3.997 9.523-8.433 14.046-12.93 6.459-4.922 18.588-3.931 26.814-9.042 8.134-3.008 15.309-11.785 16.251-19.705-67.83-11.49-135.342-25.508-203-38-3.878 58.294-6.668 116.783-12 175-6.994.058-13.33-3.514-19.717-5.883-43.244-17.768-87.096-34.37-130.283-52.117zm55-1032h33v-288h-33zm83 589h214v-274h-214zm0 322h214v-296h-214zm37-911h39v-288h-39zm129 0h34v-288h-34z" style="fill:#fedda9;fill-rule:evenodd;stroke:none"/><path d="M1026 1321.5c.941 2.706 4.43 4.921 6.5 7.5 59.95-32.396 116.79-71.624 166-119 1.778 31.329-.931 63.095-1.905 94.45-1.353 22.324-3.195 44.68-6.96 66.747-2.685 16.439-5.545 33.068-12.101 48.507-4.395 10.455-9.786 22.328-20.521 27.754-8.888 4.563-19.131 3.56-28.729 3.542-29.132.092-58.133-4.3-87.284-4 .202 4.556-1.093 10.956 3.805 12.091 4.283 1.507 8.635 2.798 12.915 4.318 23.085 7.186 47.234 26.324 55.848 47.06 9.472 26.36 9.4 54.962 10.432 82.531 26.912.062 54.292-1.773 80.15-9.883 18.388-5.047 35.381-14.856 49.573-27.375 39.131-42.583 54.305-100.796 63.344-156.17 14.409-92.719 13.18-187.267 4.697-280.457-8.992-86.235-28.9-173.396-75.764-247.615 21.254-21.716 41.533-44.376 61.326-67.408 9.665-11.39 18.937-23.119 28.165-34.84 2.354-3.116 6.39-2.559 10.895-2.271 11.372.556 24.475-3.092 28.614-14.313-49.383-29.655-100.969-56.19-150.5-85.668-14.668 40.23-29.22 81.775-49 120-36.117-33.84-78.17-61.376-122.036-84-2.485 2.883-5.491 5.186-8.464 7.5 21.391 23.383 42.918 46.857 60.104 73.671 13.362 19.166 24.761 39.576 34.813 60.634 1.195 2.095 2.023 4.32 2.584 6.642-14.697 30.49-34.318 59.245-51.928 88.222-9.503 14.188-19.494 28.054-29.792 41.674-5.129 6.913-10.61 13.507-15.992 20.199-4.458 6.904-12.804 13.139-15.789 20.126 2.263 2.251 5.125 5.886 6 8.332 50.606-22.747 94.83-59.352 139-92 3.32 17.84 10.868 35.939 5.426 54.158-11.951 60.965-32.524 119.998-58.168 176.436-24.953 54.747-57.058 106.505-95.258 152.906m1 979.094c1.07 2.623 3.67 5.58 5.5 8.406 34.699-19.009 69.918-37.683 102.671-60.104 34.941-22.736 67.06-49.375 97.329-77.896 1.745 32.247-.198 64.93-2.32 97.168-1.66 23.274-3.762 46.609-8.613 69.465-2.784 16.465-7.03 32.703-14.314 47.792-4.859 10.616-12.96 22.552-22.65 27.616-8.957 4.759-19.186 4.252-28.98 3.959-30.593.328-61.045-3.993-91.623-4v11c27.782 4.901 57.737 25.047 71.866 46.714 7.518 13.577 10.064 29.147 11.877 44.336 1.172 16.294 2.413 32.597 2.257 48.95 28.312.18 56.94-2.462 84.186-10.552 19.475-5.069 37.437-15.257 52.407-28.58 21.035-21.591 36.219-48.535 46.72-76.643 12.11-29.378 18.408-60.733 24.114-91.84 13.34-89.345 11.581-180.562 1.82-270.121-5.507-43.01-13.218-85.796-26.996-126.975-6.97-19.74-14.052-39.51-23.69-58.159-7.78-18.418-20.02-34.486-29.561-51.818 33.26-36.36 68.002-72.669 96-113.312 7.567 1.07 15.463 1.544 22.865-.874 6.929-1.966 11.688-7.458 16.135-12.626-26.232-12.998-52.068-27.157-78.33-40.172-26.122-13.285-52.219-26.809-78.17-40.328-8.993 20.629-15.63 42.791-25.159 63.339-8.964 20.843-18.84 41.336-28.841 61.661-44.164-37.944-95.789-66.31-149.117-89-2.336 2.613-4.972 4.963-7.383 7.5 26.914 23.97 53.589 48.422 76.265 76.596 16.075 20.578 31.055 42.032 43.687 64.901 3.26 5.04-.543 9.976-3.141 13.82-35.966 64.091-79.634 123.465-128.811 177.933 1.421 3.624 5.287 6.608 7.5 9.25 28.477-14.983 56.445-31.214 83.353-48.939 27.465-18.373 53.231-39.024 78.647-60.061 2.498 3.224 2.847 8.919 4.352 13.388 1.902 7.957 6.166 16.548 2.64 25.814-17.313 64.652-42.404 127.277-74.185 186.161-30.5 55.854-66.509 109.404-110.307 155.637zM1286 1557h638.4c16.277-.967 36.988 2.37 51.06-4.3 5.26-2.51 9.581-9.542 6.995-14.327-22.417-32.715-49.328-62.203-74.955-92.373-11.226 17.554-19.291 37.117-30 55-1.426-82.207.26-164.736-.5-247 15.666-2.263 33.686-6.187 44-19.5-41.136-27.577-81.596-56.539-122.5-84.5-11.518 14.18-22.325 28.988-33.671 43.294-5.017 6.303-9.79 12.844-14.967 18.997-2.973 3.201-7.57 2.739-11.61 2.709h-202.168c-16.894-.512-33.865.628-50.73-.35-41.615-13.875-81.726-32.91-123.354-46.65v361h-83c.685 9.653 5.751 18.463 7 28m37-625.75c3.052 8.635 5.021 18.013 8 26.75h229v85.2c-.185 6.063.92 13.983-2.997 18.071-3.57 4.302-10.655 3.734-15.572 3.729-39.214.06-78.237-5.39-117.431-6 .8 3.914-1.484 10.832 2.374 12.59 4.443 1.075 8.98 2.01 13.47 2.88 26.743 5.08 53.412 16.43 70.186 38.926 8.74 11.185 12.664 25.121 15.095 38.822 2.767 14.135 4.51 28.458 5.875 42.782 25.012-2.41 50.034-5.111 74.415-11.445 17.487-4.465 34.832-10.573 49.608-21.236 23.829-14.894 35.106-42.458 38.452-69.214 4.35-29.532 1.542-59.61 2.525-89.33V958h231c8.965-.084 19.68-.27 27.66-2.48 3.645-1.064 7.103-2.967 9.745-5.725 2.302-2.183 4.261-7.358 1.946-9.302-38.44-32.882-78.71-63.737-118.851-94.493h-1.5c-19.695 28.898-45.281 55.098-65 84h-85v-55c12.493-1.032 31.85-6.72 32-24-1.814-.46-3.634-.893-5.5-1l-1.5-.5c30.77-9.126 60.637-21.164 90.158-33.636 14.77-6.505 29.395-13.256 43.677-20.792 12.572-8.355 34.62-2.484 45.165-17.572-20.81-17.852-42.144-35.08-63.194-52.637-21.503-16.668-41.317-35.96-63.306-51.863-20.787 23.228-43.122 45.014-64.602 67.602-4.645 6.029-10.572 6.002-17.154 5.398-99.179.76-198.65-.926-297.744.5 2.23 3.766 2.559 10.003 4.902 14.688 1.903 3.357 2.107 10.73 6.08 11.347 35.994 1.327 72.19-.242 108.22.465 62.834.76 126.082-.926 188.798.5-7.932 11.726-13.422 25.317-21.646 36.969-5.941 8.994-11.449 18.293-17.752 27.05-2.065 2.744-4.741 7.494-8.987 6.947-31.23-2.254-62.408-5.076-93.615-7.466v93h-208.8c-9.236 1.013-19.172-1.346-28.2 1zM1420 2563c33.957.942 68.728-2.013 99.808-16.852 13.809-5.837 29.572-15.586 37.807-26.816 4.113-7.912 1.451-17.583 2.385-26.075V2467h212v88c20.945-.062 42.193-.241 62.66-5.162 14.294-3.534 28.436-7.89 42.045-13.53 9.862-4.18 21.523-9.261 29.616-14.911 8.924-5.381 6.583-14.983 6.679-23.88V1868c14.661-1.57 30.038-10.874 39-20.5-41.174-33.811-83.666-66.661-125.5-99.5-12.095 12.936-23.64 26.385-35.734 39.32-8.945 9.908-17.864 19.803-26.948 29.574-3.168 3.87-11.758 1.036-15.799 2.106-39.579-.76-79.551.926-119.019-.5 25.949-24.065 52.148-47.853 78.475-71.482 13.251-11.864 25.45-25.196 39.363-36.228 8.596-2.878 18.056-3.271 26.06-8.058 9.047-4.029 11.652-11.641 15.102-19.232-.458-.45-.911-.96-1.25-1.5-68.465-11.203-136.35-26.407-204.75-38-3.878 58.294-6.668 116.783-12 175-6.749-.578-12.8-4.435-19.146-6.464-43.732-16.707-86.84-35.802-130.854-51.536zm57-1034h31v-286h-31zm83 589h212v-272h-212zm0 322h212v-294h-212zm37-911h37v-286h-37zm129 0h32v-286h-32z" style="fill:#000;fill-rule:evenodd;stroke:none"/></svg>