<svg xmlns="http://www.w3.org/2000/svg" width="3000" height="3000"><path d="M407 2715h2186c-120.11-729.14-243.257-1457.94-364-2187-121.653-40.09-243.099-81.112-364.7-121.395-91.164-30.407-182.32-60.766-273.474-91.162a32206 32206 0 0 1-51.529-17.183c-8.003-2.659-16.01-5.346-24-8-7.038-2.654-14.998-6.446-23.453-2.372-120.19 40.07-240.392 80.12-360.578 120.183C1011.124 447.878 891.186 488.387 771 528c-120.737 729.033-243.897 1457.913-364 2187m771-1551v428c21.116.065 42.477 1.05 63.288-3.344 14.487-2.606 28.573-6.858 42.436-11.737 9.868-3.802 21.75-8.78 29.47-14.769 5.949-5.446 2.932-17.301 3.806-25.83v-431.253c-.02-3.573-.457-9.207 3.231-10.1 9.977-2.602 20.047-6.796 25.769-15.967-2.044-2.777-6.89-3.515-10.376-5.138-10.918-3.821-21.724-8.038-32.624-11.862.908-6.07 9.326-10.299 13.699-15.294 17.175-16.903 33.972-34.022 51.034-50.939 4.278-4.454 8.889-8.58 12.885-13.282 2.685-3.42 6.282-7.155 9.513-9.476 6.852-1.409 13.962 1.333 21.081-1.119 6.765-1.259 12.351-5.353 16.788-10.39-52.187-32.921-107.073-61.906-159.5-94.5-15.544 34.726-32.313 68.99-51.123 102.085-27.14 48.914-56.226 96.719-87.486 143.09-31.85 45.607-64.835 91.226-102.891 131.825.312 4.082 5.76 9.216 10.009 6.046a2373 2373 0 0 0 29.954-16.01c19.142-10.796 37.867-22.349 56.379-34.159 9.573-5.516 18.573-11.87 27.545-18.284 4.548-3.272 9.246-6.302 13.725-9.661 4.1-2.553 9.231-7.478 13.388-7.932m-145.656 1135c33.187-16.592 64.51-37.224 94.569-58.925 15.032-11.169 29.85-22.618 43.947-34.96 7.389-5.507 14.688-13.496 21.129-18.9 3.603-3.117 6.836-6.632 10.244-9.948 3.08-2.894 7.028-7.907 10.767-8.267-.515 64.446-.806 129.866-15.025 193.082-4.325 14.567-8.73 29.645-17.578 42.239-6.393 9.858-18.182 14.442-29.568 13.679-36.396 1.108-72.587-2.59-108.829-5v10c14.875 2.17 31.195 10.17 42.98 16.921 9.366 5.977 18.52 12.718 26.074 20.914 11.167 13.66 15.019 31.504 17.828 48.405 1.528 9.46 2.31 19.009 2.923 28.552.818 8.76-.697 19.288 1.195 27.208 27.988.16 56.247-2.554 83.174-10.56 19.12-5.97 37.681-14.909 52.216-28.973 20.917-20.859 34.61-47.879 45.443-75.058 10.714-28.772 17.22-58.866 22.567-89.038 5.933-40.424 9.653-81.263 9.649-122.15.473-5.183.091-11.037 1.835-15.908 14.922-7.672 31.31-12.617 46.394-20.059 13.548-5.219 29.673-15.46 44.722-20.254v380c29.413.42 59.486 1.03 87.774-8.525 12.66-4.722 24.812-10.873 35.721-18.902 2.554-2.071 5.623-4.787 6.689-7.702 2.008-11.094-.104-22.675.816-33.871h183v65c39.524 1.152 79.04-5.61 115.63-20.862 8.712-3.63 20.513-7.312 19.37-17.238v-324.552c.014-6.414-.017-12.798.01-19.202.264-1.987.01-4.85 1.33-6.279 13.414-4.33 26.71-9.916 36.66-20.367-41.355-30.745-82.053-62.799-123.5-93.5-14.444 15.328-28.156 31.346-42.277 46.96-5.09 5.364-11.535 13.141-16.156 17.186-3.09 2.374-7.217 1.73-10.92 1.854h-132.974c-6.79-.336-15.158.804-21.129-1.404-6.417-1.968-12.573-4.873-19.044-6.596.255-4.509 5.864-6.905 8.901-9.275 28.538-19.319 56.161-40.097 82.92-61.8 20.817-15.848 39.868-33.757 59.686-50.752 3.8-3.159 10.694-1.883 16.133-2.173h189.984c10.466-.286 20.985.457 31.41-.513 8.722-.593 17.642-5.097 20.966-13.565-17.903-16.656-36.434-32.776-54.81-48.958-18.62-14.79-35.845-32.35-55.19-45.964-1.836 5.927-8.302 10.793-10.834 15.778-12.793 18.073-26.378 35.612-39.227 53.641-3.566 4.107-6.694 9.985-10.599 13.16-3.175 2.539-9.304.75-13.68 1.421H1743c1.002-5.817 9.104-10.122 12.975-15.475 17.773-18.815 35.41-37.717 52.643-57.041 24.37-28.798 48.935-57.55 70.779-88.36 11.406-14.98 21.686-30.758 32.113-46.42 2.279-3.824 4.431-7.843 7.76-10.86 5.727-1.025 14.712 1.21 21.772-1.241 6.34-1.773 15.163-6.274 15.958-12.603-25.006-11.68-49.282-25.482-74.366-37.177-12.113-6.32-24.12-12.877-36.469-18.75q-9.519-4.76-19.037-9.511c-6.036-2.419-13.699-7.777-19.128-8.562-11.68 30.562-28.119 59.13-43.177 88.09-1.969 3.441-3.969 6.848-5.932 10.29-1.338 3.392-3.533 6.96-7.52 3.444-18.79-15.406-37-31.52-55.871-46.824-19.522 25.641-37.465 52.82-57.5 78h-2v-110c12.69-2.917 28.74-5.993 32-24-54.09-2.849-107.944-9.605-162-13v150h-144c.84 7.346 4.313 15.56 5.853 22.12 1.245 4.862 7.115 3.687 10.714 3.88H1506v144h-171c.815 6.992 4.015 14.883 5.626 21.088 1.214 4.274 6.633 4.087 10.357 3.912H1590c-.535 4.266-4.844 6.66-7.17 9.985-20.207 23.237-41.872 45.107-63.932 66.617-5.273 5.767-11.387 10.622-17 16-3.425 4.3-7.803 8.373-14.327 4.624-16.228-5.517-32.14-12.434-48.571-17.226v49.8c-.873 5.6 1.306 12.794-1.298 18.45-13.335 12.982-29.482 23.05-44.013 34.616-7.738 5.686-15.501 11.304-23.499 16.62-3.763 2.575-7.592 5.073-11.364 7.623-3.592 2.314-7.73 5.811-11.826 5.891-2.407-12.454.201-25.38-1.384-37.921-5.664-87.794-15.484-177.81-52.077-258.927-8.792-19.091-18.428-37.96-30.096-55.471-1.896-3.29-4.752-6.391-5.948-9.966-.284-3.339 3.75-6.135 6.107-8.817 19.664-19.886 39.005-40.08 57.205-61.31 9.25-10.3 17.568-21.408 26.716-31.767 1.864-2.867 7.744-.12 10.414-.806 9.502.706 21.596-.156 27.063-12.015-49.681-27.027-98.154-57.221-147.5-85-14.422 40.273-31.99 79.498-50.5 118-6.421-.168-12.138-7.614-17.94-11.535-18.741-14.586-38.191-28.38-58.745-40.295-10.066-6.185-20.527-11.707-30.874-17.372-5.545-2.93-11.194-5.618-16.775-8.473-2.893-1.659-5.9-2.959-9.091-3.828-2.442.086-4.406 3.468-6.575 5.003 23.26 23.086 46.271 46.717 65.147 73.655 14.942 18.855 26.488 39.947 37.831 61.028 3.043 4.669.706 8.58-1.904 12.444-17.049 28.836-35.06 57.096-54.372 84.461-9.58 13.966-20.31 27.096-30.821 40.338-5.377 6.582-10.735 13.19-16.403 19.524-4.873 6.573-12.88 13.009-16.478 19.55 2.3 2.39 4.864 4.593 6.5 7.5 26.062-13.8 52.073-28.072 76.527-44.68a570 570 0 0 0 36.214-25.411c6.032-4.242 11.89-8.7 17.6-13.366 5.38-3.855 12.31-11.274 18.159-11.543.462 4.21 2.858 8.438 2.82 13.498-8.756 70.87-30.266 140.193-58.262 205.685-13.636 31.677-29.324 62.448-47.445 91.799-8.81 14.523-18.48 28.545-28.189 42.466-5.088 6.867-9.851 13.993-15.332 20.557-2.68 3.308-5.31 6.673-7.965 10-.578 1.354-2.273 2.888-2.037 4.555 1.193 1.304 2.203 2.999 3.754 4.44M1053 952.583c1.18 3.123 4.925 6.233 6.5 8.417 62.487-25.746 123.85-54.859 181.444-90.449 27.747-17.008 54.642-35.422 80.765-54.817 13.542-9.6 26.34-20.141 39.277-30.517 2.91-2.299 5.784-5.826 10.378-5.873 6.751.014 13.732 1.533 20.306-.834 5.785-1.697 10.361-5.67 14.33-10.01-25.075-15.953-50.379-31.794-75.59-47.574-25.487-14.91-49.594-32.754-75.41-46.926-24.119 51.648-56.69 99.195-89.483 145.647C1131.257 866.282 1095.22 912.323 1053 952zM1400 1023h261v385.8c-.39 7.895 1.995 18.695-7.95 24.339-14.861 5.52-31.493 1.136-46.835 1.738-48.025-3.466-96.207-4.371-144.215-7.877v10c38.06 5.75 77.247 15.21 108.332 39.246 15.755 11.204 27.408 27.278 32.895 45.943 7.098 19.243 8.157 39.759 10.773 59.811 51.07-2.208 105.819-10.02 147.186-42.83 8.996-8.443 17.348-17.795 23.477-28.56 19.6-36.441 18.42-79.122 18.337-118.963V1023h72c18.02-.012 36.032.015 54.038-.008 10.477-.297 25.583-.532 31.466-12.724.416-4.11-6.447-6.734-8.228-9.523-22.72-19.798-45.621-39.402-68.933-58.493A4056 4056 0 0 1 1839.5 907c-22.28 29.066-43.504 59.028-66.42 87.59-2.31 3.03-7.321 2.232-10.668 2.41H1393c1.37 8.866 5.072 17.272 7 26m48-249.5c2.641 8.022 4.742 16.348 7 24.5h426.6c17.859-.329 42.66 4.52 50.4-13.668-18.702-17.439-38.71-33.413-58.025-50.145-9.873-8.288-19.89-16.385-29.88-24.512-4.913-4.011-9.72-8.18-14.815-11.952-5.06-2.84-10.47-9.77-15.28-10.723-16.759 25.317-37.509 48.68-54.997 73.666-3.435 4.012-7.254 11.54-11.967 12.128-99.664.587-199.371-.106-299.036.206zM1570 2291h183v-126c-.005-3.418.006-6.82-.003-10.232.92-8.754-5.857-8.348-12.345-7.768H1570zm0 176h183v-150h-183zm66-533h2.5c14.776-17.94 28.152-36.978 42.295-55.41 6.737-9.47 13.28-19.08 19.95-28.583 3.496-4.636 6.53-9.58 9.829-14.342 2.748-4.49 7.338-9.528 7.426-14.665h-82z" style="fill:#fedda9;fill-rule:evenodd;stroke:none"/><path d="M1025 1244.578c1.186 3.794 5.347 6.58 7.344 9.422 50.458-25.403 98.605-55.632 144.156-89 1.426 142.46-.26 285.434.5 428 21.523.05 43.287 1.009 64.53-3.178 15.283-2.808 30.177-7.195 44.781-12.449 9.647-4.092 21.719-8.747 28.958-15.282 3.352-3.364 2.74-8.376 2.731-12.775V1153.45c.005-16.61-.006-33.188.004-49.787-.687-9.647 8.702-8.576 15.329-12.045 6.056-2.769 12.92-8.502 14.667-14.619-14.47-5.772-29.77-10.155-44-16.5 18.944-19.268 42.804-40.146 59.475-58.475 4.978-5.012 10.027-9.985 14.985-15.008 3.547-3.828 6.577-8.148 10.639-11.491 2.863-2.978 8.234-1.707 11.449-1.582 11.266.755 23.35-3.409 29.452-13.444-26.886-15.945-53.96-31.714-80.932-47.53-13.746-7.963-27.301-16.27-41.106-24.122-6.704-4.101-13.564-7.937-20.304-11.969-6.8-3.058-13.776-9.618-20.658-10.879-14.321 35.152-32.483 68.791-50.623 102.085-27.18 49.063-56.403 96.954-87.72 143.456-32.168 45.746-65.114 91.891-103.657 132.459zm1 1048.922c.941 2.706 4.43 4.921 6.5 7.5 65.093-35.59 127.211-78.401 179-132 1.491 32.618-.952 65.695-2.086 98.348a590 590 0 0 1-7.88 70.483c-2.54 17.006-7.26 33.634-13.755 49.52-4.915 11.148-11.75 23.203-24.343 26.949-10.23 2.882-21.123 1.085-31.584 1.7-30.389.512-60.526-4.271-90.852-5v12c14.875 2.17 31.195 10.17 42.98 16.921 9.366 5.977 18.52 12.718 26.074 20.914 11.167 13.66 15.019 31.504 17.828 48.405 1.528 9.46 2.31 19.009 2.923 28.552.818 8.76-.697 19.288 1.195 27.208 28.96.15 58.353-2.257 86.172-10.897 19.304-5.787 37.454-15.375 52.07-29.334 20.908-21.354 34.462-48.63 45.313-76.151 10.608-29.12 17.043-59.449 22.304-89.93 5.74-39.76 9.234-79.865 9.206-120.051.484-4.996.095-10.642 1.819-15.324 29.213-13.84 60.386-24.265 88.616-40.313 1.426 126.539-.26 253.402.5 380 29.721.494 60.01 1.124 88.69-8.135 12.953-4.668 25.313-10.92 36.45-19.039 2.5-2.044 5.68-4.644 6.858-7.467 2.43-11.181-.092-23.035 1.002-34.359h181v65c40.346 1.343 80.728-5.34 118.06-21.027 7.876-3.232 20.28-6.89 18.94-18.272v-325.753c.15-6.382-.193-12.781.127-19.154-.033-4.77 5.88-5.665 9.608-6.915 5.64-2.122 11.229-4.483 16.244-7.864 4.05-3.152 11.389-7.385 12.021-12.015-41.972-30.142-82.806-63.215-124.5-94-14.74 15.081-27.96 31.561-42.412 46.888-5.195 5.648-11.202 12.423-16.069 17.483-5.263 4.33-15.15 1.805-22.625 2.629H1598.18c-13.006.942-25.515-2.817-37.18-8.5 38.45-27.876 77.857-54.878 113.549-86.428 6.731-5.87 13.911-11.217 20.328-17.428 6.403-5.555 12.522-11.522 19.282-16.646 8.558-2.273 18.256-.055 27.067-.998 68.329-.241 136.666.294 204.979-.159 7.327-.444 15.268-1.988 20.698-7.425 2.042-2.275 4.41-6.146 3.328-8.836-35.066-33.404-72.596-64.486-109.731-95.58-14.894 20.43-30.016 40.778-44.917 61.207-3.736 5.17-7.437 10.362-11.315 15.425-2.762 3.7-5.124 8.496-11.219 8.328-16.252-.596-32.914.855-49.049-.46 38.7-38.15 74.625-78.945 108.41-121.507 16.802-20.786 32.38-42.52 47.574-64.477 3.686-5.594 7.46-11.148 11.157-16.717 2.775-3.9 4.637-8.542 8.076-11.945 2.307-2.57 7.096-.757 10.82-1.008 13.303.671 23.053-4.16 29.963-14.346-24.944-12.875-50.076-25.823-75.334-38.175-25.266-12.77-50.251-26.167-75.833-38.325-6.003 7.664-7.675 18.225-13.02 26.373-12.552 26.757-26.61 53.048-41.313 78.627-19.266-17.127-39.494-33.162-59-50-19.773 25.983-38.404 52.894-58 79-1.426-35.805.26-72.1-.5-108 12.945-2.88 30.655-6.61 32-26-54.781-2.535-109.242-10.185-164-13v150h-145c1.099 4.884 2.722 9.637 3.997 14.47 1.087 3.375 1.775 6.882 3.076 10.184.55 3.248 4.843 3.382 7.539 3.344 8.963.006 17.902-.002 26.862.002H1505v142h-172c2.546 8.113 4.816 19.951 8.296 26.096 10.207 2.107 21.08.002 31.44.904 71.993.76 144.38-.926 216.264.5-22.033 23.458-43.37 47.516-66.733 69.733-5.55 5.921-11.47 11.417-17.622 16.67-4.31 3.755-8.67 10.704-14.012 9.022-17.584-6.154-34.946-13.091-52.633-18.925v49.2c-.254 5.951.411 13.024-.471 18.433-1.38 3.857-6.685 6.666-9.526 9.361-25.068 20.5-51.96 38.57-78.503 57.006h-1.5c-2.55-64.515-6.552-129.539-20.089-192.96-11.995-60.252-35.621-118.63-69.911-169.54 32.477-32.005 63.25-65.717 91.5-101.5 12.15 3.697 28.517 2.154 37.5-11-24.022-15.929-50.556-28.822-74.997-44.292-25.45-14.209-50.442-29.89-76.003-43.708-12.323 41.228-32.49 79.897-50 119-6.313-1.99-11.354-8.77-16.366-11.88-36.078-28.231-75.667-51.92-117.217-71.12-2.4 2.595-4.969 4.964-7.417 7.5 23.376 23.014 46.248 46.734 65.363 73.517 14.88 19.067 26.973 39.952 38.16 61.308 2.843 4.005.926 8.072-1.67 11.702-17.165 28.992-35.322 57.391-54.749 84.912-9.61 13.95-20.335 27.046-30.871 40.282-9.551 13.634-24.69 26.772-33.233 39.279 2.315 2.549 6.222 5.66 7 8.5 7.144-.97 13.869-7.049 19.82-9.4 23.16-12.011 45.107-26.176 66.906-40.434 10.878-6.875 20.963-14.859 31.428-22.313a319 319 0 0 0 15.457-11.939c4.826-3.306 10.653-9.483 15.389-10.914.48 4.493 2.937 8.656 2.759 13.275-8.998 69.479-29.962 137.199-57.143 201.554-13.471 30.949-28.414 61.277-46.046 90.088-16.947 28.63-36.771 55.75-57.57 81.583m25-1340.917c1.198 2.467 4.042 5.266 6.259 7.672 2.199 2.627 6.957-.21 9.47-.946 52.468-21.69 104.168-45.764 153.173-74.547a1335 1335 0 0 0 84.168-54.469 1039 1039 0 0 0 61.098-46.781c6.672-5.933 19.785.203 29.04-4.57 3.74-1.494 7.222-3.787 9.97-6.716 1.035-1.422 3.018-3.084 2.034-4.7-24.369-17.04-50.86-31.66-75.677-48.18-25.093-15.643-49.94-31.754-75.035-47.346-26.454 51.059-56.7 100.37-90.983 146.647C1130.034 865.71 1093.59 912.02 1051 952zm340 43.917c2.995 9.002 5.175 18.43 8 27.5h261v383.4c-.451 7.994 2.108 18.973-7.95 24.739-14.21 5.422-32.82 1.08-46.271 1.649-48.25-3.091-96.531-4.74-144.779-7.788v12c38.06 5.75 77.247 15.21 108.332 39.246 15.755 11.204 27.408 27.278 32.895 45.943 7.098 19.243 8.157 39.759 10.773 59.811 51.716-1.865 107.247-9.804 149.186-42.83 9.085-8.58 17.604-18.019 23.71-28.997 19.505-36.766 18.243-79.613 18.104-119.725V1024h85.2c14.221-.05 28.43.06 42.639-.033 11.349-.406 25.358-1.05 31.161-15.467-39.108-36.874-82.149-69.282-123.5-103.5-22.805 29.042-43.89 59.49-67.081 88.23-2.495 3.11-6.683 2.805-10.408 2.77H1391zm63-197.5h450c8.207.176 17.455-.448 23.84-6.426 2.546-2.195 4.893-5.12 4.68-8.652-7.858-10.244-19.84-16.978-28.732-26.294-29.524-24.283-58.186-50.238-89.116-72.628-18.721 24.548-37.464 49.198-56.052 73.865-4.275 3.888-6.477 11.343-11.476 12.69-99.966 1.269-200.134-.23-300.144.445 1.032 9.249 5.44 17.852 7 27m117 1491h181v-124.8c-.013-3.41.016-6.84-.01-10.243 1.074-8.4-7.162-7.091-12.943-6.957H1571zm0 176h181v-148h-181zm66.5-533c14.507-17.705 27.783-36.388 41.66-54.573 6.675-9.305 13.146-18.763 19.703-28.14 5.455-9.29 14.416-19.075 18.137-28.287h-80c.76 36.912-.926 74.215.5 111" style="fill:#000;fill-rule:evenodd;stroke:none"/></svg>