<svg xmlns="http://www.w3.org/2000/svg" width="3000" height="3000"><path d="M364 2760.5v1.5h2272v-1.5c-68.931-409.09-136.257-818.54-204.874-1227.691-51.076-306.848-102.33-613.661-153.4-920.497-4.868-28.824-9.564-57.688-14.431-86.508-1.116-7.008-2.365-13.985-3.488-20.978-1.2-6.774-.246-15.245-9.425-16.859-109.868-36.632-219.702-73.24-329.563-109.867-95.996-32.013-192.02-63.992-288-96-41.993-13.978-83.98-28.011-125.966-41.994-5.663-2.605-10.407-1.693-15.513.621-156.173 52.06-312.354 104.114-468.521 156.173-58.68 19.531-117.334 39.097-175.992 58.657-25.668 8.506-51.298 17.139-76.962 25.643-6.176 2.075-12.369 4.11-18.537 6.195-3.02 1.124-6.483 1.813-8.8 4.255-62.934 375.423-125.132 751.075-187.889 1126.544C490.857 1998.664 428.048 2380.37 364 2760.5m644-457.937c.601 1.864 2.473 3.17 3 5.437 31.807-11.985 61.87-28.508 91.567-44.893 14.462-8.436 28.52-17.543 42.46-26.786 7.026-4.576 13.74-9.56 20.583-14.387 7.121-3.64 13.403-12.17 20.39-12.934-1.44 62.974-1.94 126.376-13.018 188.586-3.2 14.904-6.782 30.041-13.662 43.75-4.214 9.916-10.85 19.608-21.745 22.793-8.613 2.844-17.95 1.48-26.81 1.871-13.58.205-27.096-1.792-40.643-2.073-6.645-.386-13.29-1.148-19.94-1.482-6.062-1.534-13.904.854-18.682-1.445-2.302 2.713-2.063 9.957 2.288 11.614 24.426 8.483 51.701 20.715 63.718 45.476 6.058 13.345 8.25 28.06 9.574 42.53 1.506 15.072 1.893 30.246 1.92 45.38 26.254-.568 52.691-3.14 77.92-10.7 17.958-4.625 34.42-13.924 48.26-26.125 19.426-18.606 32.87-47.95 42.051-70.3 10.236-27.06 16.478-55.54 21.29-84.005 13.455-81.395 13.448-164.53 9.355-246.696-3.42-58.385-10.296-116.869-24.028-173.78-10.99-41.87-26.167-82.73-46.82-120.82-6.463-8.749 1.38-13.767 7.342-19.444 21.435-21.095 41.965-43.006 61.325-66.002 7.238-8.4 14.08-17.13 21.013-25.762a1126 1126 0 0 1 8.715-11.57c5.43-8.067 19.063-3.646 26.818-7.21 3.78-1.506 7.53-3.355 10.544-6.13 1.019-1.122 2.644-2.852 2.722-4.192-1.112-3.085-6.57-4.157-8.84-5.939-49.212-24.922-97.575-51.506-146.832-76.325-3.495 3.477-4.201 10.627-6.584 15.71-12.39 38.012-30.658 73.664-46.251 110.29-5.9-.872-9.928-9.261-15.628-12.713-33.818-32.464-73.59-57.836-113.872-81.287-2.271 2.463-5.039 4.276-7.5 6.5 9.77 13.417 22.743 24.835 32.413 38.508 17.475 22.453 33.934 45.734 47.497 70.778 5.191 10.003 10.965 19.724 15.161 30.224 1.83 4.236 4.948 8.958 5.446 13.256.456 4.624-2.822 8.345-4.734 12.194-16.098 29.299-33.784 57.664-52.617 85.266-9.293 13.787-19.392 26.999-29.549 40.14-5.162 6.746-10.698 13.167-15.988 19.795-2.672 3.159-5.6 6.14-7.956 9.55-3.374 3.572 1.566 7.168 3.67 9.789 24.384-11.692 47.55-26.358 70.384-40.83 11.425-7.578 22.897-15.096 33.848-23.33 5.455-4.22 11.103-8.198 16.54-12.42 5.472-3.114 11.601-10.446 16.885-11.42 2.976 18.275 9.524 36.443 10.304 55.028-13.456 59.157-36.407 115.87-63.746 169.848-27.628 52.017-59.904 102.453-99.558 146.124zm19-717.188c1.824 2.75 4.087 5.91 5.5 8.625 51.448-14.078 103.765-27.638 153.21-48.288 73.318-29.226 142.419-70.245 200.265-124.187 27.774-27.174 53.893-56.526 74.205-89.855 20.953-32.912 39.888-67.81 52.82-104.67h3v171c1.064 40.954-3.333 83.018 6.808 123.202 3.224 13.954 11.064 26.658 22.729 35.02 20.14 14.631 46.121 17.588 70.123 19.963 41.497 3.261 83.242.974 124.812 1.815 40.831.079 81.712-.866 122.372-4.717 20.023-2.382 39.984-5.587 59.362-11.223 13.762-4.265 27.313-10.073 38.444-19.421 17.896-14.71 22.424-39.448 18.354-61.04-2.676-10.19-7.973-20.144-16.218-26.938-8.348-5.547-18.617-12.723-27.786-14.661.117-23.4-.841-46.772-1.23-70.154-.628-23.28-.476-46.602-1.77-69.846-9.62-1.324-10.44 5.907-12.781 12.954-8.667 24.059-17.373 48.105-26.58 71.963-7.714 19.258-14.427 40.232-28.86 55.772-7.74 8.164-17.26 7.692-26.861 7.949-39.284 1.022-78.596-.177-117.886.362-14.808-.137-29.649.168-44.442-.092-5.588-.39-12.58-1.477-16.701-4.797-7.537-7.207-3.87-22.579-4.889-33.454V1159h60v40c21.665.13 43.737.929 64.883-4.97 14.944-3.854 29.925-7.726 44.39-13.141 10.01-4.38 22.526-8.37 30.86-14.075 6.233-5.51 2.79-18.09 3.867-26.73V978.335c.014-6.404-.017-12.781.01-19.174.27-1.98.016-4.82 1.306-6.27 13.302-4.197 28.16-9.202 36.684-21.392-44.012-30.758-85.224-66.43-129.656-96.5-12.464 12.374-23.576 25.943-35.576 38.733-8.928 8.892-18.136 20.755-26.567 28.608-44.235 1.88-88.891-.342-133.201.659.111-19.672 1.451-39.33 1.57-58.996.208-8.791.464-17.57.43-26.353.328-7.634-.61-16.801.845-23.713.97-4.323 5.163-3.877 8.78-4.005 55.36-3.533 110.674-7.71 165.888-12.977 26.94-2.594 53.843-5.494 80.725-8.55 6.585-.292 12.676 3.21 18.897 4.795 18.335 6.253 41.57 11.614 58.865-.701-45.483-44.954-89.372-91.717-134.42-136.97-92.933 30.127-188.128 54.418-283.328 76.642-98.258 23.117-197.242 43.305-296.721 60.415A3128 3128 0 0 1 1074 791c1.528 3.571-.163 10.054 3.356 11.571 4.473.567 9.02.432 13.52.435 110.738 3.268 221.454-2.883 332.124-5.006v52.8c-.807 16.854 1.14 36.834-1 52.2h-105c-8.045-.196-16.467.92-24.096-2.173-47.603-18.708-96.092-35.522-143.404-54.827-1.426 127.874.26 256.061-.5 384 30.503.604 60.898-3.086 89.734-13.425 13.22-4.998 26.435-10.555 38.328-18.266 5.232-3.74 13.052-7.931 12.888-16.123.138-7.721-.022-15.47.05-23.186h102c-10.4 48.23-29.143 94.682-50.937 138.787-33.586 64.502-78.711 122.938-133.578 170.83-54.208 46.98-115.731 85.805-180.485 116.383zm238 1011.25c3.198 2.28 6.338 7.251 9.5 8.375 32.65-24.314 63.594-50.733 90.766-81.09 25.926-30.162 49.495-62.976 66.734-98.91h3c17.417 52.845 40.675 104.125 58 157 11.804-1.815 23.86-11.297 28.9-20.754 2.204-4.273 8.483-6.218 13.429-8.919 37.475-18.548 74.493-37.92 111.105-58.058 17.905-9.13 35.015-19.708 52.603-29.414 8.521-4.909 17.086-9.735 25.542-14.751 4.18-2.356 8.245-4.963 12.46-7.256 3.972-2.217 8.568-5.778 12.961-5.848 2.78 33.12 5.333 67.551 2 100.5 12.386 13.204 27.271 27.178 46.727 27.678 19.418 1.047 36.894-11.788 46.608-27.691 7.552-11.425 12.405-27.06 13.665-39.487h3c9.985 34.895 22.147 69.3 35.5 103 11.683-34.342 23.965-69.45 45.195-99.473 9.207-12.785 18.967-25.568 31.526-35.302 5.641-4.684 12.1-8.215 18.281-12.075 3.205-1.77 4.594-5.233 4.917-8.717-13.698-22.836-30.675-44.954-43.79-68.473-25.38-42.23-46.66-86.845-64.982-132.54-57.289-146.642-77.41-304.975-80.647-461.42 12.532-.248 24.95-2.46 37.414-3.553 9.175-.867 18.287-2.07 27.433-3.11 6.627-.996 12.739 1.975 18.822 4.049 17.594 6.369 42.336 9.154 57.331-.886L1816.5 1647c-68.915 35.54-142.27 62.2-214.808 89.274-18.36 6.812-36.933 13.025-55.417 19.471-7 2.322-13.999 4.639-20.971 6.998-6.977 3.194-12.41.395-18.465-2.398-42.07-16.429-83.789-33.964-125.839-50.345-1.272 157.628 3.08 315.502-5.424 472.964-3.796 74.277-13.432 148.423-31.403 220.665-7.528 34.938-19.863 68.56-32.95 101.693-13.32 31.245-28.001 62.761-46.223 91.303M1290 1132h109c6.577-32.97 12.611-66.144 15.797-99.656 4.44-33.977 4.894-68.235 7.203-102.344h-132zm144 1290.5v1.5c49.321-2.383 98.764-3.31 148-7v-617c-23.991 1.037-47.992 2.318-72 3v167.4c-.146 79.804-.931 159.997-12.16 239.188-10.437 73.466-29.76 146.836-63.84 212.912M1542 1132h171V930h-145c-3.156 67.9-11.307 135.655-26 202m139 95.75c17.191 21.69 31.302 45.974 42.267 71.434 11.693 26.283 22.11 53.928 24.733 82.816 12.4 6.556 24.349 16.51 39.204 17.624 22.265 3.082 45.019-5.447 59.387-22.934 13.273-16.564 19.119-40.08 11.328-60.437-11.234-34.646-44.28-56.683-75.93-70.316-16.19-7.154-33.472-11.174-50.59-15.306-8.593-1.738-17.191-3.464-25.848-4.78-8-1.382-16.455-3.344-24.551 1.149zM1709 2410c12.321-.836 24.616-2.217 37-2-3.296-42.738-15.472-84.229-24-126 3.363-.553 6.49-2.515 10.01-2.273 2.556-.58 5.097 3.08 7.615 4.376 34.231 26.879 68.11 57.347 89.375 95.897h3c-38.358-195.787-38.064-396.354-39-595-27.957 2.753-56.002 4.958-84 7z" style="fill:#fedda9;fill-rule:evenodd;stroke:none"/><path d="M1006 2302.344c1.302 2.334 3.637 5.063 5.5 7.656 30.67-13.747 61.622-27.796 90.614-45.077 29.136-15.812 55.677-36.436 82.886-54.923-1.53 62.349-2.003 125.101-13.036 186.7-3.2 14.852-6.787 29.966-13.644 43.635-4.214 9.917-10.85 19.61-21.745 22.794-8.601 2.84-17.908 1.484-26.76 1.87-26.411-1.51-53.007-2.471-79.315-4.999-2.643 3.29-2.212 12.462 3.166 13.985 24.348 8.277 51.335 20.97 63.075 45.604 11.084 26.696 10.524 61.518 11.259 87.411 26.562-.39 53.298-3.01 78.87-10.398 18.164-4.593 34.936-13.742 48.934-26.093 19.682-18.572 33.154-48.21 42.427-70.633 10.428-27.493 16.614-56.413 21.519-85.326 12.118-65.62 11.705-132.557 11.205-198.963-1.502-48.58-4.731-97.134-11.574-145.273-9.11-69.38-28.177-138.031-62.334-199.46-2.9-4.595-.066-7.994 3.323-10.724 23.344-22.616 45.826-46.042 66.443-71.156 10.303-12.047 20.08-24.533 29.61-37.179 4.62-7.21 16.14-4.49 23.238-6.291 8.146-1.271 14.575-6.713 19.339-13.004-26.07-14.493-53.323-27.21-79.435-41.707-27.56-13.124-53.564-29.65-81.565-41.793-14.15 43.63-32.886 85.643-52.5 127-20.072-20.823-42.838-38.637-66.115-55.682-11.765-8.124-23.753-15.894-35.835-23.499-6.2-3.648-12.27-7.525-18.636-10.876-3.172-1.533-6.899-4.855-9.704-2.292-2.45 1.818-6.332 4.338-7.21 6.849 22.709 24.752 44.53 50.435 62.609 78.863 13.07 20.772 25.528 41.986 35.346 64.529 2.245 4.158 5.077 9.37 1.845 14.222-16.811 30.86-35.488 60.655-55.079 89.792-9.657 14.556-20.434 28.308-31.038 42.168-5.55 6.881-11.124 13.75-16.78 20.54-2.49 3.238-6.671 7.249-7.886 10.435-1.49 3.858 4.942 7.342 6.483 9.951 47.67-25.646 94.178-54.363 136-89 2.765 8.508 4.274 17.658 6.281 26.4 1.832 8.573 3.169 17.516 4.695 26.05-13.546 59.583-36.768 117.003-64.412 171.394-27.846 51.992-60.078 102.638-100.064 146.156zm20-716.844c.99 3.375 4.448 6.253 5 9.5 52.417-12.636 104.555-27.92 154.71-47.88 73.678-29.287 143.198-70.343 201.265-124.595 56.51-54.063 99.523-121.666 127.525-194.525 1.426 66.448-.26 133.095.5 199.566.164 24.363-.987 48.877 2.467 73.073 2.639 19.452 7.77 40.335 23.46 53.625 12.53 11.165 29.058 16.157 45.202 19.268 31.448 5.774 63.598 5.428 95.42 5.468 49.276-.228 98.658.945 147.868-2.153 22.847-1.049 45.627-3.156 68.07-7.663 21.308-4.098 43.167-9.974 60.947-23.01 19.168-13.747 26.114-39.004 22.145-61.407-3.47-25.417-23.196-39.561-44.579-45.767.117-23.4-.841-46.772-1.23-70.154-.628-23.28-.476-46.602-1.77-69.846-3.894.202-9.589-1.06-11.309 3.751-1.588 4.176-3.017 8.378-4.65 12.53-8.777 23.8-17.232 47.713-26.411 71.358-7.742 18.88-14.22 39.885-29.393 54.48-8.253 7.255-17.613 6.078-27.05 6.596-38.716.811-77.443-.146-116.155.285-14.57-.22-29.142.273-43.698-.16-5.486-.558-12.452-1.798-16.234-5.448-6.534-7.678-3.033-22.481-4.1-33.334V1160h58v40c21.859.143 44.124 1.092 65.5-4.633 15.25-3.893 30.576-7.783 45.333-13.304 10.149-4.427 22.851-8.468 31.3-14.249 4.344-3.22 3.85-8.135 3.867-12.952V977.539c.095-6.381-.12-12.792.075-19.16-.091-5.738 5.06-5.835 8.94-6.958 11.855-3.5 22.172-10.497 29.985-19.921-43.706-33.31-88.051-65.886-131.5-99.5-10.786 13.578-24.12 25.36-34.994 38.972-9.257 9.31-17.502 19.55-26.688 28.922-3.168 3.87-11.758 1.036-15.798 2.106H1571c.217-19.652 1.629-39.255 1.61-58.91.202-8.601.428-17.173.39-25.762.452-7.522-.854-16.735 1.211-23.451.454-3.99 7.119-2.219 9.543-2.99 55.562-3.439 111.046-7.844 166.452-13.08 27.22-1.965 54.354-6.485 81.533-8.153 24.419 7.108 54.648 20.581 76.261 2.846-23.363-22.596-45.673-46.165-68.37-69.37-19.585-20.573-39.657-40.669-59.232-61.232-3.891-4.531-8.19-9.83-15.556-6.008-93.158 30.932-188.689 53.943-284.04 76.928-98.079 22.71-196.798 42.852-296.059 59.72-37.073 6.915-74.456 11.953-111.743 17.462 1.01 4.242.049 10.088 2.372 13.173 5 1.32 9.855.607 15.092.836 110.529 3.12 221.083-2.63 331.536-5.009v52.2c-.776 16.389 1.11 35.862-1 50.8h-105c-8.018.284-16.133.594-23.597-2.709C1244.128 881.695 1196.43 861.976 1148 845v386c30.983.847 61.899-2.808 91.208-13.246 13.26-4.876 26.36-10.591 38.347-18.097 5.1-3.847 13.222-7.727 13.366-15.877.213-7.92-.028-15.859.079-23.78h100v1.5c-24.497 93.652-67.558 183.313-133.294 255.2-32.032 36.483-69.339 68.127-108.91 96.071-38.907 26.818-79.976 51.307-122.796 71.229zm407.5 840.5c18.73 52.52 40.467 104.275 58.5 157 12.32-.533 25.027-10.638 30.434-19.941 2.482-5.01 8.022-6.676 12.925-9.234 37.3-18.485 74.154-37.775 110.63-57.797 35.018-18.002 68.341-39.517 103.011-58.028 2.453 19.33 2.8 38.829 3.748 58.252.377 7.651-.424 15.311-.62 22.95-.156 6.31 0 12.659-.608 18.93 11.779 15.902 31.035 29.006 51.655 28.263 20.934-1.344 38.407-16.498 47.14-34.84 5.907-9.943 7.501-21.604 10.185-32.555 11.462 35.554 22.782 71.432 37 106 10.787-30.58 20.65-62.623 38.435-90.339 8.542-13.507 17.366-27.038 29.04-38.136 5.76-6.018 12.254-11.206 19.252-15.687 3.182-2.08 6.554-3.84 9.71-5.963 3.44-1.968 4.153-6.652 6.063-9.375-32.083-44.982-60.478-92.573-84.442-142.376-76.97-161.53-102.83-341.91-106.558-519.124 12.532-.248 24.95-2.46 37.414-3.553 9.344-.847 18.669-2.151 27.98-3.14 6.545-.246 12.53 3.38 18.748 4.895 18.454 5.993 44.22 8.815 57.858-2.702l-90.733-90.733-34.137-34.137c-2.464-2.281-5.034-5.396-7.634-7.092-2.205-2.491-6.719 1.022-8.965 1.689-46.544 23.515-95.164 42.632-143.604 61.798-48.449 19.42-98.258 35.722-147.427 52.975-45.468-19.478-92.487-36.5-138-56-1.826 104.599.747 209.525-.763 314.184-1.227 147.42-6.79 297.755-53.362 439.14-11.602 32.328-23.965 64.59-40.36 94.846-6.033 11.244-11.743 22.67-18.36 33.582-1.09 2.244-3.304 4.877-3.156 6.912 1.747 3.529 8.138 10.977 11.873 8.029 33.34-23.122 63.185-50.798 90.54-80.58 26.42-29.64 48.28-62.995 66.588-98.113M1291 1131h107c6.55-32.797 12.555-65.766 15.738-99.1 1.437-16.743 3.57-33.401 4.355-50.196 2.03-16.835.809-33.898 2.907-50.704h-130zm144 1291.625c48.402-1.573 97.556-3.29 146-6.625v-615c-23.278 1.507-46.687 1.922-70 3v166.8c-.098 79.67-.909 159.723-12.024 238.784-10.918 73.2-29.025 147.49-63.976 213.041M1543 1129.5c.03.55.186 1.057.5 1.5H1712V931h-143c-4.183 66.18-9.826 134.39-26 198.5m136 97.75c17.322 22.164 32.072 46.527 43.102 72.521 11.726 26.43 22.288 54.185 24.898 83.229 12.549 6.64 24.664 16.72 39.739 17.683 22.52 3.047 45.852-4.89 60.523-22.61 13.73-16.989 19.54-41.333 11.819-62.301-11.208-35.44-45.14-57.692-77.401-71.425-16.748-6.877-34.327-11.415-51.963-15.308-8.588-1.633-17.178-3.24-25.813-4.576-4.685-.72-9.365-1.274-14.067-1.77-4.232-.804-7.157 2.64-10.837 4.307zM1710 2409c11.6-1.35 23.312-1.827 35-2-4.877-42.584-14.578-84.494-25-126 6.172-.756 12.45-5.537 18.755.574 35.497 27.143 68.956 58.566 91.745 97.426.254-.46.436-.921.5-1.437-20.93-93.408-27.547-189.717-33.045-285.063-5.072-102.055-6.063-204.309-5.955-306.5-27.226 3.21-54.7 4.678-82 7z" style="fill:#000;fill-rule:evenodd;stroke:none"/></svg>