<svg xmlns="http://www.w3.org/2000/svg" width="3000" height="3000"><path d="M407 2715h2186c-120.11-729.14-243.257-1457.94-364-2187-121.653-40.09-243.099-81.112-364.7-121.395-91.164-30.407-182.32-60.766-273.474-91.162a32206 32206 0 0 1-51.529-17.183c-8.003-2.659-16.01-5.346-24-8-7.038-2.654-14.998-6.446-23.453-2.372-120.19 40.07-240.392 80.12-360.578 120.183C1011.124 447.878 891.186 488.387 771 528c-120.737 729.033-243.897 1457.913-364 2187m623.5-1409c32.19-14.684 64.35-29.996 94.77-48.229 15.251-9.195 30.339-18.697 44.818-29.069 7.09-4.996 14.178-9.984 20.986-15.351 3.303-2.715 6.8-5.144 10.078-7.87 3.245-2.527 6.853-6.452 10.848-6.481-.305 62.9-2.469 126.43-15.533 188.154-3.407 13.912-8.279 27.488-15.59 39.849-5.234 9.324-14.738 16.485-25.628 16.878-35.55 1.54-70.885-2.26-106.249-4.881v10c20.598 4.631 39.96 14.835 55.95 28.523 14.243 12.133 20.935 30.137 23.67 48.192 2.894 16.647 4.547 33.533 4.38 50.439.13 3.882-.197 7.786.201 11.652.023 4.428 4.96 4.21 8.364 4.194 27.574-.211 55.496-3.973 81.643-12.916 18.461-5.97 35.49-16.338 48.931-30.3 40.625-44.398 53.814-105.686 63.861-162.784 46.001-9.948 89.72-28.834 134-44v101c-32.609 4.032-65.286 7.897-98 11 21.074 46.412 44.876 91.8 66.5 138 6.306-2.94 13.058-5.633 17.304-11.574 4.139-4.854 5.862-11.934 11.905-14.834 41.936-22.864 83.571-46.325 124.582-70.82 40.693-24.153 80.205-50.297 119.709-76.272-1.44-2.56-1.272-5.708-2-8.5-38.666 6.216-77.574 11.242-116.3 17-3.298-3.83-.664-12.15-1.7-16.555.219-42.65-.267-85.317.144-127.961.21-4.642 5.539-7.336 8.884-9.829 13.204-9.028 26.072-18.676 38.08-29.254 6.407-5.312 12.297-11.15 18.198-16.998 3.099-2.523 6.223-5.078 8.73-8.214 2.465-2.987 5.4-6.969 8.964-7.189 9.412 71.725 22.338 144.088 51.683 210.752 13.94 30.743 30.452 60.54 51.943 86.764 21.963 26.44 45.486 53.266 73.374 73.484 2.508-13.993 9.99-29.189 15.439-40.87 17.626-38.642 52.204-69.88 94.561-78.13.017-3.738.657-8.678-3.76-10.385-3.67-1.7-7.505-3.089-11.294-4.49-31.06-12.017-61.438-25.88-90.398-42.332-14.703-7.635-28.52-16.72-42.062-26.185-6.742-4.94-13.13-10.275-19.617-15.515-3.162-2.742-6.476-5.28-9.47-8.2-2.683-2.921-6.93-6.05-7.399-9.893 32.17-4.048 64.11-10.427 95.633-17.92 15.047-3.242 29.391-8.821 44.05-13.3 6.986-.7 16.194 3.851 24.656 3.096 7.158.279 16.304-2.629 20.661-7.876-8.313-9.156-19.094-16.224-28.025-24.814-13.963-12.052-28.036-23.949-42-35.999-7.07-6.012-14.066-12.06-21.168-18.016-3.508-3.04-7.063-5.987-10.5-9.095-2.814-2.463-7.214-5.13-7.307-10.076 6.563-1.127 13.762-4.967 19.274-7.418 5.996-4.512 2.698-15.206 3.726-21.49V1057c12.718-2.451 26.917-5.691 35-17-18.002-14.794-37.567-28.093-56.075-42.312-18.993-13.55-37.088-28.734-56.425-41.688-11.843 11.999-22.194 25.358-34.097 37.306a1454 1454 0 0 0-14.797 16.589c-5.188 4.098-9.097 13.173-15.339 13.85-58.602.729-117.282-.134-175.887.255-6.879-.432-15.342.796-21.483-1.093-45.122-16.903-90.421-33.741-135.397-50.907-1.426 89.54.26 179.401-.5 269 33.565.131 67.543-.895 100-10-.211 4.903-4.387 8.294-7.17 11.975-22.099 26.574-46.154 51.556-73.221 73.15-12.982 11.038-26.982 20.768-40.956 30.467-6.887 4.352-13.754 8.733-20.724 12.944-7.469 3.398-14.94 10.352-21.929 11.464 7.71-61.122 8.865-123.048 6.275-184.546-3.985-87.511-15.993-176.838-52.928-257.133-8.518-19.013-19.008-37.13-30.456-54.495-2.318-3.09-4.702-6.448-4.434-10.507 19.408-21.003 43.984-44.703 61.284-64.55 10.314-10.626 19.11-22.58 29.191-33.41 2.262-3.04 7.122-1.204 10.478-1.432 9.305.171 22.47-2.885 27.59-13.927-25.712-11.731-49.573-27.672-74.905-40.259-25.026-13.26-49.598-27.483-74.595-40.741-9.167 22.73-17.72 45.855-28.476 67.927a540 540 0 0 1-12.091 25.376c-3.245 7.013-6.847 15.46-10.796 21.371-2.453 2.37-6.422-2.703-8.423-3.717-19.42-16.124-40.34-30.42-61.776-43.683-10.697-6.62-21.802-12.476-32.817-18.52-5.694-3.23-11.682-5.93-17.487-8.93-3.066-1.587-6.175-3.268-9.517-4.157-2.68-.778-5.194 3.746-7.117 4.833 23.012 22.65 45.447 46.059 64.283 72.399 13.527 19.212 26.879 38.787 37.12 60.005 3.468 7.37-5.452 16.05-8.79 23.562-16.116 26.615-32.259 53.272-50.389 78.579-8.758 12.819-18.114 25.176-27.766 37.32-4.8 6.36-9.753 12.573-14.933 18.613-4.022 5.887-10.993 11.583-13.525 17.686 2.6 2.034 4.244 5 6.5 7.336 42.117-23.052 82.648-49.14 120.506-78.778 3.584-2.94 7.252-5.755 10.835-8.679 3.492-2.625 7.325-6.74 11.178-6.986 3.215 2.08 3.073 8.312 4.897 12.135 2.522 8.475 5.205 17.29 2.632 26.094-12.915 62.903-34.278 124.238-63.223 181.548-14.157 27.932-29.817 55.159-47.384 81.082-8.687 12.78-17.555 25.444-27.172 37.543-4.589 6.226-9.761 11.972-14.553 18.025-3.119 4.514-13.521 12.039-6.716 18.016m6.5 1255.625c1.98 1.36 5.029 4.294 7.154 3.659 3.057-.869 5.49-2.976 7.93-4.943 31.604-23.583 59.575-51.629 83.56-82.862 23.572-31.255 42.735-65.604 57.842-101.69 32.558-77.318 42.851-161.957 48.514-244.789h518v19.2c.147 4.778-.201 9.578.161 14.339.085 4.398 4.124 4.856 7.348 4.456 10.004-.05 20.077.36 30.025-.89 17.92-1.78 35.137-6.875 52.229-12.209 8.456-2.969 16.857-6.191 25.061-9.783 7.779-3.61 17.99-7.574 17.17-16.451.017-44.514-.003-89.023.006-133.536V1967c7.176-.32 15.166-3.736 21.14-6.169 3.29-1.637 6.328-3.786 9.306-5.906 2.399-1.858 6.286-4.274 6.554-7.925-41.525-27.263-79.008-62.378-121-89-14.37 19.606-34.373 35.725-49.586 54.91-2.142 2.267-4.241 4.659-6.747 6.52-4.242 3.193-12.943.47-17.673 1.57H1679v-79c8.215-.926 18.32-3.735 24.151-8.856 2.867-2.727 5.654-6.832 6.158-10.508 1.594-5.52-6.741-4.57-9.895-4.937-7.591-.416-15.165-1.252-22.732-1.863-10.834-.962-21.643-1.848-32.468-2.76-30.325-3.487-61.64-4.096-91.714-8.076-2.461 3.388-.991 9.433-1.5 14.095V1921h-89v-80c6.726-.674 14.529-3.46 20.02-6.218 5.826-3.755 9.478-10.14 10.98-16.782-51.474-5.477-103.538-7.383-155-13v116h-94v-129h453c75.594-.006 151.208.008 226.796-.004 8.47-.303 18.915-.304 26.156-3.53 6.181-2.76 13.323-9.671 5.441-15.561-36.577-33.826-74.953-65.63-112.893-97.905-11.135 14.92-21.954 30.127-32.97 45.14-5.412 7.73-11.226 15.15-16.606 22.89-4.171 7.373-11.67 14.02-15.924 22.97h-189v-89c13.356-2.17 31.228-5.812 34-25-56.156-5.472-112.771-7.909-169-13v127c-62.212-.19-124.452.231-186.646-.125-26.608-6.723-52.156-17.793-78.528-25.432-25.75-8.798-51.892-16.866-77.326-26.443-2.465 147.803 1.809 295.957-2.033 443.796-1.417 70.044-5.045 140.195-16.186 209.463-9.763 66.606-26.315 133.498-55.281 194.366m145-133.375c11.325 22.163 23.21 44.343 34.438 66.622 11.787 22.292 22.787 45.152 35.062 67.128 7.28-3.435 15.063-7.156 19.627-14.318 2.576-2.133 3.908-7.575 6.336-8.602 52.014-23.403 104.641-45.902 156.28-70.169 26.668-11.76 52.552-25.188 78.841-37.733 12.494-7.202 25.789-12.902 38.281-20.087 6.27-3.212 12.427-6.607 18.622-9.942 2.959-1.85 6.68-3.663 9.327-5.45 3.085-1.543 1.024-7.201 1.186-9.699-52.423 4.963-104.637 12.441-157 18v-96h129c6.947-.137 13.966.408 20.838-.842 3.018-.646 6.587-1.637 9.097-2.978 2.623-1.401 5.28-3.93 8.065-4.18v116.4c.297 27.624-.57 56.254 8.58 82.785 6.1 18.406 23.177 31.057 41.636 35.12 30.652 8.106 62.508 6.947 93.865 6.695 32.034-.19 64.114.666 96.097-1.428 20.378-1.298 40.688-3.442 60.649-7.834 23.999-5.746 56.419-16.287 66.221-47.66 4.046-14.037 3.58-29.804-3.076-43.043-6.568-12.16-21.604-21.464-32.972-26.035-1.54-30.312-2.757-60.661-4-91h-8c-9.428 25.507-20.605 50.5-33.404 74.474-4.924 7.944-11.404 18.66-20.288 21.161-9.467 3.024-19.41 2.473-29.204 2.365h-53.874c-13.376-.152-26.782.188-40.146-.106-4.201-.165-8.846-1.062-11.73-4.42-5.087-7.007-2.708-16.6-3.354-24.581V2315c39.165-4.278 77.408-14.816 115.671-23.678 18.225-4.702 36.403-9.74 54.42-15.188 8.31-2.881 17.628-6.708 28.014-3.663 8.745 1.338 20.399.163 24.895-7.971-18.484-14.845-38.359-27.964-57.197-42.37-9.618-7.238-19.537-14.114-29.151-21.355-4.732-3.755-9.712-7.15-14.571-10.709-4.406-2.912-9.029-7.59-13.768-9.066-15.832 19.8-33.617 37.852-51.546 55.733-8.582 8.833-20.008 17.757-27.87 25.87-4.672 4.258-9.433 8.444-14.189 12.604-4.686 3.12-9.907 9.98-14.708 10.793v-95c8.111-1.982 16.793-4.434 22.873-10.57 2.365-2.761 5.437-6.303 5.664-10.832-1.056-4.136-9.27-1.77-12.056-2.982-7.315-.332-14.599-1.148-21.885-1.671-13.04-.938-26.042-2.464-39.103-3.036-26.752-3.314-54.491-2.947-80.993-6.909-2.756 3.997-.743 11.099-1.5 16.495V2290c-4.583-.534-8.15-6.397-12.102-9.602-25.545-25.824-53.298-49.285-80.398-73.398-11.124 14.673-20.697 30.55-31.484 45.484-5.01 7.73-10.402 15.215-15.57 22.824-2.438 5.59-5.85 7.16-11.531 6.692H1423v-95c12.066-.358 28.62-6.277 32-22-52.92-4.78-106.152-7.812-159-13v266c-37.995 3.224-75.965 7.371-114 10zm61-323.25h95v-159h-94c.754 53.086-.42 106.01-1 159m97-1184.75c2.975 7.55 5.168 17.501 7 24.75h393.6c65.717-.561 131.484.684 197.179-.37 6.875-.878 13.74-3.178 17.791-8.772 5.097-6.328-3.485-9.9-7.042-13.836-31.725-29.204-66.418-55.069-100.028-82.022-18.224 22-34.015 45.996-52.087 68.124-4.197 5.62-7.42 13.092-16.797 11.876H1705V814c62.886-.54 125.855.66 188.721-.356 6.853-.71 14.346-2.65 18.431-8.758 4.438-6.033-4.51-11.007-8-14.318-31.111-27.063-63.644-52.997-96.652-77.568-10.418 11.995-19.484 25.102-29.67 37.294-8.87 12.966-20.569 24.48-28.83 37.706h-44v-60.6c.702-4.693-1.165-11.172 1.412-14.606 11.016-3.994 27.48-6.43 29.588-23.794-56.764-2.84-113.26-9.632-170-13v112h-183v1.5c2.548 8.106 4.85 16.287 7 24.5h176v106h-226zM1462 2105h89v-159h-89zm68-936h212v-120h-212zm149 936h81v-159h-81zm144-884c-26.734 4.492-54.01 3.847-81 4v-30h-54c8.856 31.868 21.823 63.032 39.154 91.28 4.534 7.061 8.892 14.24 14.158 20.795 1.858 2.49 3.723 4.986 5.663 7.4 1.618 1.57 3.534 5.046 5.636 5.027 6.679-5.107 12.106-15.287 17.861-21.48 5.569-7.684 11.52-15.102 17.01-22.826 6.347-8.882 12.856-17.648 18.916-26.715 3.245-4.413 6.269-8.946 9.281-13.508 2.604-4.32 7.058-9.151 7.321-13.973" style="fill:#fedda9;fill-rule:evenodd;stroke:none"/><path d="M1211 1200c-.355 62.401-2.58 125.47-15.665 186.668-3.448 13.895-8.35 27.444-15.702 39.77-5.361 9.32-15.043 16.272-25.968 16.475-35.363 1.623-70.477-2.784-105.665-4.913v12c20.598 4.631 39.96 14.835 55.95 28.523 14.243 12.133 20.935 30.137 23.67 48.192 2.894 16.647 4.547 33.533 4.38 50.439.13 3.882-.197 7.786.201 11.652.016 4.443 4.996 4.2 8.39 4.194 27.849-.102 56.101-3.638 82.566-12.559 18.822-5.753 35.863-16.355 49.66-30.249 40.803-44.475 54.126-105.925 64.183-163.192 44.776-11.095 88.774-26.71 131.5-44 1.426 32.87-.26 66.07.5 99-32.954 3.846-65.93 8.218-99 11 20.71 47.292 46.297 92.694 67 140 6.725-.792 13.76-5.426 18.065-9.639 4.844-3.951 7.304-12.707 11.522-15.546 42.26-23.292 84.463-46.666 125.83-71.54 41.24-23.61 80.358-51.292 120.583-76.275-.386-3.727-1.612-7.274-2-11-38.675 5.548-78.013 11.1-116.5 17-2.69-3.846-.806-10.681-1.5-15.896.12-41.979-.146-83.972.079-125.943.756-8.158 13.435-11.674 19.441-17.808 21.914-16.233 42.762-34.059 60.98-54.353 6.63 37.112 10.343 75.418 20.027 112.116 11.39 50.558 29.518 99.911 55.818 144.632 26.667 44.2 62.048 83.004 102.155 115.252 9.796-26.51 19.804-54.621 39.105-76.303 18.134-22.426 44.3-37.803 72.395-43.697-.054-3.694.033-7.42 1-11-33.529-12.365-66.823-26.318-98.168-43.602-31.092-17.173-62.027-36.014-86.832-61.898 32.365-5.469 65.264-10.382 97.118-18.78 7.677-2.106 15.397-4.175 22.983-6.592 5.603-1.793 11.138-3.788 16.748-5.563 7.173-1.917 16.9 2.964 25.771 2.337 8.56.653 17.212-2.338 23.38-8.402-2.382-5.168-9.484-8.598-13.08-12.753-16.299-14.038-32.816-27.846-49-42a4544 4544 0 0 1-24.667-20.96c-4.089-3.618-8.364-6.996-12.446-10.616-3.337-3.812-9.693-6.687-10.807-11.171 6.563-1.127 13.762-4.967 19.274-7.418 5.996-4.512 2.698-15.206 3.726-21.49V1058c13.288-2.505 28.167-6.153 36-18.5-38.057-28.588-76.195-57.252-114.5-85.5-12.05 11.748-22.211 25.204-34.046 37.132-4.997 5.467-9.768 11.126-14.734 16.62-5.02 4.77-8.717 11.112-14.753 14.778-58.713 1.34-117.638-.244-176.385.47-6.957-.32-15.503.8-21.63-1.439-45.345-17.449-91.391-33.52-136.452-51.561-1.426 90.54.26 181.401-.5 272 33.346-.804 67.833.525 100-10v1.5c-22.724 28.227-47.525 54.67-75.6 77.655-26.26 22.895-55.79 41.596-85.9 58.845 12.25-112.456 9.338-227.87-12.812-339.103-11.54-52.04-30.61-102.894-58.876-148.234-2.912-5.138-8.555-11.442-9.973-16.195-1.118-2.503 3.636-4.673 4.626-6.47 30.346-30.416 59.52-62.013 87.035-94.998 13.817 3.964 29.323-1.515 37.5-13-24.46-15.332-51.351-27.779-76.308-42.513-25.844-13.206-50.762-28.6-76.692-41.487-5.83 20.509-15.686 39.895-23.742 59.592-4.316 9.674-8.904 19.213-13.434 28.77-5.096 9.326-8.206 19.875-14.324 28.638-38.758-33.833-83.788-60.058-130.083-82-2.4 2.595-4.969 4.964-7.417 7.5 23.078 22.632 45.47 46.071 64.481 72.304 13.554 19.05 26.759 38.516 37.179 59.5.523 1.772 2.62 5.33 1.276 6.659-16.734 29.99-35.49 58.852-54.328 87.55-10.06 13.95-19.72 28.198-30.603 41.518-9.407 14.369-22.719 26.175-32.005 40.469 3.387 2.774 6.175 9.513 11.603 7.018 4.153-2.151 8.907-4.96 12.669-7.012 44.965-24.33 86.041-55.148 126.228-86.506 3.295 4.658 3.629 12.93 6.037 19.157 3.88 13.172-1.214 26.721-3.755 39.774-11.498 47.31-27.48 93.547-47.982 137.702-14.668 32.708-32.683 63.789-51.887 93.99-14.578 21.741-29.86 43.097-46.729 63.14-3.114 3.974-6.591 7.652-9.67 11.64-3.37 2.622-.236 9.386 3.628 9.028 32.921-12.892 63.977-30.227 94.765-47.452 29.996-17.033 57.87-38.233 85.093-58.979m32 932h516v19.2c.147 4.778-.201 9.578.161 14.339.091 4.397 4.132 4.857 7.354 4.456 10.092-.165 20.233.41 30.28-.692 18.514-1.68 36.32-6.934 53.967-12.407 8.458-2.969 16.857-6.191 25.062-9.783 7.779-3.61 17.99-7.574 17.17-16.451.017-45.313-.003-90.62.006-135.931V1968c7.33-.33 15.525-3.847 21.598-6.392 5.81-3.266 14.148-8.625 16.402-13.92-40.517-30.636-81.075-61.629-122-91.688-16.625 18.374-34.257 36.062-50.581 54.739-3.586 4.688-8.39 10.098-15.86 9.261H1680v-77c7.246-.696 15.775-3.175 21.466-6.754 6.52-3.883 9.225-11.236 10.534-18.246-53.303-5.766-107.177-8.273-160.5-14-2.438 3.444-1.005 9.517-1.5 14.161V1920h-87v-78c13.038-1.329 29.644-6.699 31-25-52.168-5.409-104.787-7.724-157-13v116h-92v-127h637.8c15.24-.087 30.447.107 45.673-.06 11.904-.508 27.22.106 33.527-15.44-38.246-36.579-79.455-69.943-119.5-104.5-11.77 14.821-22.247 30.63-33.663 45.718-10.128 15.843-23.5 30.08-32.837 46.282h-187v-87c13.665-2.091 33.1-6.503 34-27-56.85-5.288-114.063-8.33-171-13v127c-62.38-.701-124.856.855-187.186-.462-52.361-15.762-103.532-35.685-155.814-51.538-.02 121.822.025 243.64-.014 365.452-1.037 87.792-2.352 175.84-14.183 262.967-7.852 62.207-20.199 124.243-43.374 182.754-3.808 10.763-8.543 21.146-13.122 31.575-.577 2.173-2.577 5.58-1.267 7.135 3.637 5.077 7.802 5.254 11.937 1.641 32.029-23.78 60.914-51.564 85.383-83.07 36.246-47.565 62.622-102.382 79.435-159.638 8.474-30.638 15.11-61.813 19.768-93.252 5.926-31.899 6.022-64.47 9.437-96.564m-63 295.25c22.528 42.528 43.996 85.96 66.428 128.593 1.27 2.09 3.138 7.25 5.742 6.45 11.148-1.759 18.764-11.423 24.396-20.161 1.655-3.245 6.704-4.26 10.44-6.196a6769 6769 0 0 0 79.258-34.84c36.488-16.109 72.473-33.253 108.628-50.05 35.978-18.777 73.596-35.143 108.108-56.546-1.51-2.385-1.374-6.302-2-9.5-26.186 1.336-52.083 6.403-78.193 8.522-26.254 3.233-52.615 5.825-78.807 9.478v-94h127.2c11.24-.465 26.591 2.37 37.3-8 2.061 52.023-1.192 104.488 1.394 156.57 1.299 17.701 3.377 36.188 12.015 52.059 7.671 13.28 21.735 21.751 36.252 25.402 28.014 7.687 57.228 7.22 85.967 6.969 43.942-.144 88.038 1.307 131.797-3.49 20.868-2.343 41.72-5.991 61.354-13.62 17.568-6.348 33.692-19.207 39.897-37.364 5.325-14.7 4.725-31.594-1.428-45.927-6.202-13.092-21.897-22.898-33.748-27.599-1.54-30.312-2.757-60.661-4-91h-10c-9.325 25.151-20.256 49.826-32.864 73.494-4.922 7.683-10.877 18.394-19.2 21.602-9.3 3.51-19.293 3.164-29.035 2.904h-53.274c-13.175-.082-26.346.1-39.509-.055-4.343-.172-9.226-.76-12.408-4.077-5.468-6.174-3.13-17.04-3.71-24.376V2316c39.498-4.339 78.113-14.952 116.704-23.937a1370 1370 0 0 0 55.004-15.415c4.83-1.098 9.41-3.101 14.234-4.165 6.955-.339 14.464 2.82 22.747 1.292 6.334-.859 14.13-5 15.311-10.775-39.892-25.877-76.668-57.93-116.5-84-31.793 39.08-69.23 72.943-107 106-1.426-30.824.26-62.084-.5-93 12.428-3.008 27.327-7.737 30-25-52.306-5.385-105.186-7.544-157.5-13-2.729 4.049-.762 11.182-1.5 16.56-.76 39.38.926 79.19-.5 118.44-28.912-29.552-60.176-56.535-91-84-11.718 14.185-20.563 30.615-31.665 45.28-5.017 7.687-10.322 15.175-15.508 22.74-2.487 3.81-4.59 8.422-10.618 7.956-5.23.068-10.48-.012-15.709.024v-93c12.589-1.206 30.32-5.937 32-24-53.623-4.687-107.383-8.175-161-13v266c-38.355 3.032-76.602 7.685-115 10zm64-323.25h93v-157h-92c.58 52.407-.247 104.684-1 157m102-1158h548.4c13.018-.036 26.034.044 39.036-.024 12.642.376 22.392-4.596 26.564-15.476-35.222-33.078-73.782-62.368-111.5-92.5-18.621 21.843-34.106 46.254-52.474 68.327-4.17 5.165-7.774 13.609-16.209 12.672-24.611.002-49.214 0-73.817.001V815c63.385-.876 126.912 1.069 190.245-.577 6.896-.783 14.462-3.351 17.801-10.036 3.46-6.062-3.676-10.165-7.398-13.496-31.503-27.595-64.457-53.633-97.877-78.823A9.6 9.6 0 0 0 1806 711c-17.102 26.423-40.847 49.603-58 76h-42v-60.6c.139-3.98-1.072-12.343 3.22-13.3 11.329-3.346 27.36-7.773 27.78-25.1-57.439-2.557-114.572-10.172-172-13v112h-183c.699 9.628 5.405 18.535 7 28h176v104h-226c1.383 9.175 5.852 17.745 7 27m117 1158h87v-157h-87zm68-936h210v-118h-210zm149 936h79v-157h-79zm9-907.75c13.738 43.972 32.964 87.49 63.5 122.75 12.089-15.78 24.548-31.375 35.983-47.647 6.16-8.062 11.843-16.433 17.583-24.777 2.866-3.957 5.59-8.046 8.277-12.117 1.7-4.031 7.21-8.723 7.157-12.459-26.18 5.315-53.87 3.231-80.5 4v-30h-52z" style="fill:#000;fill-rule:evenodd;stroke:none"/></svg>