<svg xmlns="http://www.w3.org/2000/svg" width="3000" height="3000"><path d="M407 2715h2186c-120.11-729.14-243.257-1457.94-364-2187-121.653-40.09-243.099-81.112-364.7-121.395-91.164-30.407-182.32-60.766-273.474-91.162a32206 32206 0 0 1-51.529-17.183c-8.003-2.659-16.01-5.346-24-8-7.038-2.654-14.998-6.446-23.453-2.372-120.19 40.07-240.392 80.12-360.578 120.183C1011.124 447.878 891.186 488.387 771 528c-120.737 729.033-243.897 1457.913-364 2187m625-356.75c1.227 3.034 4.461 5.698 5 8.75 55.805-19.496 107.99-48.901 157.452-80.968 24.564-16.19 48.158-33.797 71.213-52.032 11.61-9.548 23.072-19.329 34.23-29.394 5.604-5.027 11.273-9.954 16.55-15.329 5.724-3.966 10.012-12.615 16.555-13.277v205.8c-.117 7.908.242 17.474-2.022 24.498-1.867 6.673-8.605 10.671-15.3 10.63-50.634.67-101.135-3.977-151.678-5.928v11c35.196 3.651 71.796 15.115 96.475 41.975 12.662 12.026 20.343 28.619 23.944 45.508 4.661 17.513 6.467 35.588 8.581 53.517 25.412-1.72 50.68-5.43 75.349-11.843 33.816-8.106 70.19-25.85 84.849-59.755 15.858-36.655 13.917-77.361 13.802-116.202V1774c12.438-2.482 24.49-7.784 33-17.5-39.572-30.708-78.88-61.866-118.5-92.5-17.986 20.84-36.284 41.483-54.673 61.974-3.034 5.026-10.284 4.14-15.325 4.026H1048c1.42 7.848 4.326 15.472 7.027 22.937 1.293 4.264 8.635 2.619 11.754 3.063H1333v83c-6.952-.858-14.25-7.991-21.765-11.174-21.006-11.309-40.746-25.554-62.235-35.826-23.962 45.729-55.358 87.576-87.748 127.657-33.481 40.408-69.837 80.123-111.252 112.343.779 3.832 3.886 6.588 5.5 10 48.62-15.192 96.677-32.91 142.65-55.08 24.054-10.736 47.217-23.3 70.305-35.903 11.133-6.2 22.22-12.45 33.04-19.196 5.204-3.122 11.101-7.07 15.812-10.02 5.002-2.461 11.068-8.037 15.693-8.801v147c-6.68-.601-12.237-5.337-18.333-7.675-18.235-8.682-35.996-18.68-54.667-26.325-22.884 63.512-57.575 122.648-94.544 178.87-38.105 55.903-80.313 110.777-133.456 153.13zm13-1160c21.09 43.718 46.091 85.947 67 129.75 11.52-1.556 20.35-15.723 23.592-23.384 3.24-6.643 10.887-13.449 16.413-20.117 8.727-9.282 17.245-18.78 25.581-28.41 4.344-4.804 8.651-9.623 13.01-14.395 3.828-3.918 8.492-11.355 13.404-11.694v107h8c-2.47 27.387-17.452 51.905-35.288 71.956-14.427 17.519-36.884 33.071-55.293 42.335-18.7 8.912-39.585 15.71-53.351 32.405-13.118 13.59-20.95 32.233-17.424 51.32 1.91 16.325 10.302 31.237 22.801 41.707 22.952 18.603 56.623 20.95 82.73 8.01 37.732-18.062 64.998-54.356 77.089-93.732 13.523-43.188 10.337-89.787-1.72-132.823-1.205-6.985-4.929-14.706-5.544-21.178 32.534-2.622 70.458-15.299 94.267-34.031 3.05-2.714 6.568-5.633 7.39-9.849.976-32.898-.177-65.895.343-98.814V973c25.217.817 50.49-1.069 74.895-7.87 11.948-2.66 23.548-6.59 34.847-11.221 4.99-2.456 11.633-4.915 15.058-8.89 2.437-6.017.363-12.562 1.2-19.019h90v29c22.398.276 44.9-.431 66.96-4.692 10.138-2.124 20.264-4.373 30.21-7.24 10.262-2.297 21.507-7.818 30.83-10.068v269.4c-.197 20.558-.512 41.172 2.655 61.554 1.979 16.517 7.854 33.955 22.563 43.451 26.356 16.938 59.647 12.878 89.115 13.595 45.28-.757 93.5 2.525 136.024-16.692 20.013-8.451 34.529-27.795 34.491-49.916-.227-10.632-2.245-22.017-8.894-30.66-6.838-7.795-15.336-14.803-24.954-18.732-2.203-21.61-3.202-43.348-5-65h-8c-6.925 19.335-16.475 37.82-27.179 55.327-10.677 17.803-29.478 13.277-44.045 13.673h-20.297c-5.631-.35-12.498.638-17.532-.865-8.769-3.691-5.026-19.322-5.947-26.16V1091c27.144-4.137 54.263-8.869 80.894-15.734 6.828-1.568 13.57-3.425 20.307-5.31 4.988-1.082 9.793-3.01 14.862-3.679 7.692-.264 14.634 4.669 22.323 5.075 8.717 1.822 15.084-1.79 21.614-5.852-17.484-17.476-33.895-35.902-51.37-53.37-9.078-8.47-17.355-17.629-25.732-26.732-8.561-8.728-17.543-17.043-25.398-26.398-9.435 12.608-16.523 26.956-26.149 39.461-8.342 13.822-19.823 26.026-28.351 39.539h-3v-97c11.759-2.501 26.25-6.641 29-23-47.854-4.916-96.085-7.424-144-12V803h203.4c11.398-.123 22.803.154 34.198-.093 9.885-.037 19.802-4.407 24.402-13.407-19.533-17.832-40.902-33.607-61.509-50.146-21.22-15.828-41.65-33.59-63.491-48.354-18.157 21.425-34.95 44.29-52.756 66.055a721 721 0 0 1-13.519 17.007c-3.131 5.1-10.703 3.92-15.815 3.938H1680v-79c11.763-.851 20.52-6.085 23-17-53.048-3.38-106.02-8.723-159-13v109c-28.012-.063-56.026.077-84.029-.042-8.398.554-5.438-11.379-5.971-16.455V699c9.362-.43 21.647-5.225 23-17-52.062-3.382-103.99-8.86-156-13v109c-86.929.76-174.151-.926-261 .5 3.189 7.718 4.883 16.407 7 24.5h254v110c-38.607-4.268-78.055-5.478-116.5-10-1.416 21.372.25 43.093-.5 64.523v48.39c-.333 2.674.488 7.118-1.87 8.468-44.823 2.525-90.3-1.247-135.13 1.119 3.565 7.729 5.291 16.436 8 24.5h129v101.4c.119 4.169.038 8.323-.472 12.436-1.508 3.092-7.804 2.364-10.314 3.802-49.205 10.928-98.59 21.616-148.214 30.362zM1319 1345c8.693 35.571 16.658 71.64 18.346 108.414 2.515 28.45 1.834 57.17-2.098 85.452-1.745 5.83-1.132 9.355 3.21 13.342 12.605 13.435 28.353 24.882 46.985 27.998 28.552 5.15 57.995-11.51 70.224-37.517 14.672-26.07 12.455-58.526 1.286-85.309-24.292-53.748-75.105-89.61-126.848-113.76-4.114-2.35-7.715.503-11.105 1.38m54-34c25.954-.138 52.389-2.699 76.634-12.736 10.317-4.314 23.166-9.64 30.438-17.24 4.104-5.645 2.68-13.14 2.928-19.61V1241h39v56c17.322.338 34.873.46 51.76-4.183 11.697-3.01 23.383-6.239 34.783-10.232 8.078-3.507 17.12-5.623 24.207-11.117 5.22-4.772 2.363-14.505 3.25-20.673v-186.391c.303-3.108-.549-7.418 1.363-9.561 7.648-2.726 15.935-5.077 21.637-11.343-31.315-24.503-64.134-47.08-95.5-71.5l-38.233 38.233c-4.441 3.962-8.672 11-16.437 10.76-6.676-.08-13.37.13-20.04-.096-10.34-1.572-19.576-7.561-29.504-10.594-28.763-11.36-57.648-22.74-86.286-34.303zm81-411h90v-97h-90zm29 315h39v-169h-39zm2 1134.333c1.496 2.32 3.336 5.518 5.357 7.786 2.849 1.392 7.054-2.611 9.707-2.945 49.88-22.852 96.398-52.263 140.451-84.812 23.167-17.06 45.045-35.723 66.396-54.948 11.009-9.972 21.816-20.11 32.064-30.889 5.519-5.054 10.454-10.611 15.305-16.276 5.518-4.172 9.455-13.25 15.72-14.249v219c-.222 12.75 5.428 41.122-18.062 41.278-51.988 1.264-103.98-6.026-155.938-7.278v11c35.92 4.426 73.465 15.723 98.733 43.233 13.699 12.494 22.245 29.614 26.23 47.6 3.936 18.478 7.306 37.242 8.037 56.167 26.438-2.567 52.923-5.795 78.603-12.909 35.242-8.477 73.175-26.836 88.463-62.117 16.463-38.089 14.293-80.291 13.934-120.67V1774c11.638-1.862 25.316-8.315 32-17-19.35-16.643-40.525-31.435-60.366-47.542-10.042-7.9-20.188-15.658-30.242-23.541-5.025-3.96-10.273-7.644-15.184-11.733-5.261-3.344-10.397-9.211-15.864-11.184-17.726 19.844-35.475 39.665-52.926 59.743-2.84 3.909-6.882 7.886-12.884 7.253-84.848.011-169.69-.002-254.534.004 1.42 7.848 4.326 15.472 7.027 22.937 1.293 4.264 8.635 2.619 11.753 3.063H1770v86c-7.92-.85-16.42-8.739-24.865-12.378-23.914-12.696-46.865-27.756-71.135-39.622-20.059 46.159-49.172 88.053-77.687 129.27-28.872 41.874-61.26 81.294-98.313 116.063 1.033 3.63 3.9 6.34 5.5 9.667 47.309-17.74 94.382-37.324 138.793-61.654 22.406-11.177 43.798-24.176 65.387-36.805 10.73-6.44 21.314-13.077 31.655-20.115 5.118-3.45 10.375-6.75 15.33-10.43 4.603-3.005 10.512-8.78 15.335-8.996v165h-2c-15.805-7.258-33.935-16.67-48.456-23.266-7.997-4.093-16.078-8.006-24.28-11.628-8.056-3.686-15.754-8.528-24.264-11.106-7.393 31.089-21.049 60.57-33.48 89.897-20.202 42.57-42.202 84.283-67.428 124.11-11.986 19.478-25.422 38.114-38.836 56.619-14.025 17.64-30.565 38.811-46.256 52.374zm6-1003.083c18.653 28.895 39.59 57.47 52.551 89.836 11.764 24.859 20.335 51.156 26.925 77.806 2.411 10.505 4.597 21.1 5.983 31.782.334 4.062.351 9.421 4.764 12.441 12.392 9.697 29.537 18.674 44.233 19.712 25.152 2.51 50.308-10.695 62.896-32.563 13.522-21.651 15.021-49.307 7.188-73.081-12.718-38.334-44.197-66.706-77.986-86.756-35.867-20.867-76.217-32.667-116.456-41.62-4.627-1.58-6.827.292-10.098 2.193zm208-8.25c.743 4.14 5.71 7.732 8.365 11.672 45.596 56.632 84.427 119.759 110.03 188.019 3.116 9.073 6.151 18.153 8.64 27.421 1 3.596 1.74 8.11 5.205 10.375 12.726 8.407 27.285 14.08 42.263 16.653 23.083 3.957 46.097-7.764 60.534-24.983 14.495-18.52 19.65-43.13 15.819-66.158-9.3-50.972-49.132-89.9-92.215-114.661-44.601-26.995-95.633-41.141-146.37-50.984-2.164-.51-4.392-.674-6.587-.877-1.77.895-3.886 2.32-5.684 3.523" style="fill:#fedda9;fill-rule:evenodd;stroke:none"/><path d="M1037.5 2369c55.09-21.39 107.996-48.255 157.036-81.337 49.343-32.019 94.953-69.679 136.964-110.663 1.426 68.032-.26 136.519.5 204.634-.094 7.927.149 17.526-2.309 24.51-2.303 6.715-9.465 10.097-16.196 9.826-50.254.7-100.334-4.393-150.495-5.97v13c35.196 3.651 71.796 15.115 96.475 41.975 12.662 12.026 20.343 28.619 23.944 45.508 4.661 17.513 6.467 35.588 8.581 53.517 24.717-1.111 49.18-5.258 73.235-10.832 33.981-7.935 70.185-23.831 87.125-56.645 16.868-35.853 15.643-76.451 15.64-114.926V1775c13.021-2.435 25.256-8.354 34-18.5-39.804-31.945-80.648-62.628-120.5-94.5-18.129 20.89-36.493 41.609-54.976 62.177-3.698 5.572-9.08 5.19-14.822 4.823H1046c2.685 8.63 5.257 19.225 8.918 26.713 4.239 2.51 11.05.492 15.654 1.287H1332v81h-1.5c-26.1-16.966-54.188-31.282-80.5-48-8.195 10.299-12.877 23.424-20.901 33.976-49.677 78.05-110.725 149.092-181.099 209.024 1.526 3.445 5.341 6.484 6 10 49.409-13.222 97.011-33.016 143.454-54.264 46.434-21.496 91.547-46.28 134.046-74.736 1.426 48.201-.26 96.732.5 145-12.501-4.832-24.044-12.29-36.334-17.675-11.629-5.88-23.963-10.66-35.166-17.325-25.645 62.74-57.123 123.552-95.738 179.448-38.196 56.032-80.496 111.085-133.762 153.552.456 4.351 4.633 9.122 6.5 12m5.5-1170.625c23.888 43.319 45.33 88.436 69.5 131.625 10.678-4.224 19.41-12.615 23.631-23.392 3.716-7.913 10.704-13.69 16.149-20.36 17.99-17.12 32.342-38.816 50.72-55.248v107h8c-3.778 26.862-17.713 51.04-35.924 70.693-14.456 17.33-36.818 32.655-55.14 41.846-18.57 8.798-39.23 15.584-52.868 32.157-13.238 13.534-20.577 31.94-17.708 50.967 1.449 16.184 9.053 31.475 21.106 42.265 21.791 19.434 55.61 22.616 81.97 11.831 37.813-15.869 66.225-50.552 79.538-88.7 14.617-42.166 13.725-88.471 3.182-131.401-2.263-9.612-4.765-19.154-7.899-28.511-.101-.376-.19-.81-.257-1.147 32.534-2.622 70.458-15.299 94.267-34.031 3.05-2.714 6.568-5.633 7.39-9.849.976-32.898-.177-65.895.343-98.814V974c25.217.817 50.49-1.069 74.895-7.87 11.948-2.66 23.548-6.59 34.847-11.221 4.99-2.456 11.633-4.915 15.058-8.89 2.437-6.017.363-12.562 1.2-19.019h88v29c43.308.987 87.527-4.31 127.5-22 1.426 65.349-.26 131.051.5 196.461v73.673c-.18 20.74-.503 41.596 2.862 62.142 2.028 16.499 8.442 33.451 23.156 42.686 26.917 16.446 60.31 12.312 90.11 13.038 45.515-.754 93.998 2.548 136.687-16.923 9.574-4.615 18.463-11.097 24.567-19.95 9.438-13.671 11.58-31.667 7.495-47.526-3.334-15.656-19.186-28.193-31.877-33.601-2.203-21.61-3.202-43.348-5-65h-10c-6.815 19.007-16.173 37.198-26.633 54.44-9.918 18.07-28.328 14.52-42.797 14.56h-19.696c-5.455-.288-12.018.469-16.958-.542-9.743-2.647-6.25-19.151-6.916-25.883V1092c27.51-4.263 55.019-8.938 81.99-16 6.8-1.52 13.508-3.46 20.212-5.301 4.982-1.024 9.778-3.289 14.93-3.37 7.684 1.204 14.775 5.622 22.813 5.435 7.663.567 15.269-2.272 21.055-7.264-35.829-35.347-69.352-74.334-106-108.5-15.213 28.25-35.71 54.058-54.5 80l-.5-1.687V942c6.802-1.422 13.796-2.979 19.415-7.36 6.67-4.443 8.056-10.733 10.585-17.14-5.869-2.075-12.47-1.344-18.567-2.299-42.127-3.715-84.301-6.565-126.433-10.201V804h230.4c8.777.263 18.137-.475 25.512-5.837 2.923-2.108 5.193-5.338 5.597-8.962-3.38-5.72-10.26-9.292-14.883-14.084-18.278-14.983-36.991-29.409-55.531-44.06-18.88-13.451-36.201-29.75-55.767-42.057-17.413 22.03-34.832 44.066-52.322 66.03-4.305 5.583-8.688 11.085-13.092 16.58-3.617 5.935-8.997 5.975-14.99 5.39H1681v-77c11.063-.459 22.652-6.826 23-19-53.734-3.225-107.305-9.103-161-13v109c-27.417-.07-54.82.086-82.232-.047-8.085.474-5.274-10.978-5.768-15.867V700c9.67-.804 22.792-5.029 23-19-52.743-3.154-105.295-9.324-158-13v109h-261v1.5c2.41 8.461 5.343 16.859 7 25.5h254v108h-1.5c-38.278-4.746-77.168-5.476-115.5-10v113.4c-.221 2.676.314 7.367-2.45 8.167-44.786 1.234-89.735-.224-134.55.433 1.792 9.184 6.16 17.795 8 27h129v101.4c-.48 3.775.842 8.969-1.313 11.706-52.176 13.912-106.206 21.598-158.687 33.894zm274 146.938c14.354 44.602 18.883 92.277 20.873 138.922.2 17.857-1.286 35.713-3.633 53.389-.573 3.576-1.156 7.265-.645 10.859 17.179 23.205 46.71 37.937 75.712 32.574 20.87-4.36 39.118-19.79 48.133-38.93 15.846-29.544 10.925-66.808-4.12-95.422-14.598-27.34-36.604-50.09-61.363-68.363-9.819-7.199-19.984-13.906-30.63-19.804-10.122-4.901-22.452-13.75-34.372-17.093-3.75-.33-6.695 2.387-9.955 3.555zm55-33.313c26.198.068 52.936-2.425 77.475-12.306 10.765-4.287 24.014-9.9 31.597-17.67 4.104-5.645 2.68-13.14 2.928-19.61V1242h37v56c17.825.347 35.897.655 53.296-4.073 11.857-3.037 23.694-6.272 35.247-10.342 8.176-3.64 17.506-5.613 24.567-11.45 4.66-4.692 2.083-14.48 2.89-21.539v-186.99c.053-2.99-.105-7.78 2.988-8.357 7.664-2.548 15.543-5.426 21.012-11.749-31.536-25.673-65.902-47.902-97.5-73.5l-38.602 38.602c-4.842 4.801-10.129 11.828-16.51 11.382-6.702-.125-13.444.239-20.124-.213C1449.1 1006.02 1410.655 989.09 1372 974zm83-413h88v-95h-88zm28 1450.458c2.766 3.244 4.737 7.117 7.25 10.542 53.27-22.685 102.43-54.218 149.198-88.076 46.77-35.022 90.286-74.215 129.052-117.924 1.426 72.643-.26 145.73.5 218.458-.015 13.723 4.835 38.704-18.06 39.82-51.996 1.047-103.967-6.262-155.94-7.278v13c35.92 4.426 73.465 15.723 98.733 43.233 13.699 12.494 22.245 29.614 26.23 47.6 3.936 18.478 7.306 37.242 8.037 56.167 26.24-2.001 52.465-5.667 77.968-12.242 34.899-8.488 72.286-25.081 89.485-58.968 17.202-36.686 16.067-77.935 15.547-117.287V1775c12.004-1.965 26.866-8.833 33-18.5-20.16-16.476-41.076-32.032-61.512-48.15-20.936-15.284-40.532-32.928-61.988-47.35-18.343 19.335-35.148 40.052-53.213 59.629-6.662 10.94-19.592 8.577-29.736 8.371H1498c2.685 8.63 5.257 19.225 8.918 26.713 4.238 2.51 11.049.492 15.652 1.287H1769v84c-32.025-16.347-62.813-35.914-94.5-53-22.487 45.333-48.819 89.048-78.895 129.877-28.995 42.696-62.369 82.057-99.605 117.623 1.884 3.267 4.85 7.633 6 10.5 48.091-15.67 94.57-37.242 139.345-60.678 44.641-22.023 86.61-49.598 127.655-77.322-.76 54.264.926 108.81-.5 163-31.928-16.28-65.041-30.79-97-47-19.215 60.632-46.018 119.288-78.167 174.279-15.18 27.32-32.109 53.626-49.95 79.257-17.944 25.65-37.993 50.125-60.383 71.922M1484 1214h37v-167h-37zm5 132.625c22.453 30.644 42.33 63.476 57.247 98.544 11.695 27.77 21.485 56.44 26.725 86.2 1.155 5.979 2.206 11.993 2.77 18.047-.05 6.25 3.391 9.725 8.197 12.48 15.57 11.998 34.838 18.756 54.528 16.965 29.416-2.24 53.284-26.05 59.972-53.994 7.786-28.64-.017-59.485-16.327-83.709-19.273-28.34-48.019-48.962-77.994-64.603-32.498-16.35-67.892-26.207-103.267-33.996-4.623-1.603-8.879 1.227-11.851 3.441zm208-8.062c25.315 32.166 51.166 64.719 71.225 100.71 16.111 27.637 30.893 56.232 43.009 85.853 4.505 11.425 8.558 23.03 12.023 34.816 2.298 4.37 1.876 11.238 5.186 15.017 15.192 11.81 38.012 19.048 55.517 18.959 29.378-.79 56.523-22.01 64.065-50.596 9.592-29.289 1.786-61.38-13.748-86.95-21.911-36.969-58.17-62.971-95.79-82.142-40.245-20.366-84.373-31.52-128.339-40.331-5.673-1.87-9.172 1.005-13.148 4.101z" style="fill:#000;fill-rule:evenodd;stroke:none"/></svg>