<svg xmlns="http://www.w3.org/2000/svg" width="3000" height="3000"><path d="M363 2763h2274c-116.777-706.336-235.544-1412.426-352.792-2118.701-7.351-44.171-14.733-88.332-22.082-132.49-.76-5.347-1.88-10.63-2.64-15.97-.062-6.502-4.856-8.386-10.16-9.572-81.497-27.15-162.975-54.317-244.46-81.467-142.336-47.478-284.708-94.881-427.04-142.357-13.532-4.49-27.037-9.017-40.56-13.514-6.477-2.17-12.972-4.309-19.44-6.486-6.235-1.594-13.427-5.493-19.495-5.034-100.387 32.434-200.209 66.92-300.466 99.791-150.35 50.002-300.828 99.614-451.039 150.05-5.982 1.452-6.275 6.662-6.798 11.742-24.43 146.388-48.84 292.799-73.214 439.189C565.92 1546.494 463.462 2154.662 363 2763m657-1175.625c1.347 1.586 4.009 2.776 6.002 4.138 2.636-.156 4.88-1.776 7.073-3.037 69.783-40.252 132.318-94.282 177.09-161.756 38.472-59.129 65.784-125.773 79.409-195.09 15.783-74.364 19.919-150.815 20.426-226.63h62c11.388 67.35 27.321 134.204 51.48 198.188 17.272 45.748 39.677 89.61 66.35 130.54 2.446 3.93 5.294 7.593 7.602 11.606 2.337 3.934-1.618 8.206-4.336 11.022-46.443 50.328-100 94.075-157.969 130.546-57.369 36.173-118.767 66.024-182.127 90.098.43 2.317 1.728 4.277 3.277 5.986 1.523 2.538 6.123 1.179 8.51 1.063 88.096-16.208 175.598-38.874 257.828-74.942 37.901-16.54 74.587-35.807 109.578-57.88 6.025-4.376 12.481-8.084 18.694-12.154 3.142-2.008 6.15-4.187 9.287-6.182 2.934-1.865 6.173-4.882 9.277-4.322 39.108 37.549 84.165 68.4 131.873 93.954 49.624 26.098 101.413 48 154.676 65.477 10.024-31.987 25.566-63.647 49.87-87.37 23.212-24.32 54.672-41.673 88.13-46.63.308-3.672.817-7.321 1-11-112.728-18.264-224.437-48.802-328-97 .257-3.742 4.387-6.447 6.546-9.132 39.123-42.304 74.037-88.558 103.085-138.398 30.117-50.483 54.95-104.694 73.369-160.47 16.208.003 34.566-4.23 45-17.5-44.864-41.51-90.64-81.991-135.5-123.5-3.022 3.346-7.966 5.8-10.463 9.117-5.247 6.944-12.612 14.188-18.552 19.5-12.888 10.305-23.454 22.638-34.855 34.253-5.272 5.22-11.114 9.843-16.236 15.225-4.886 5.589-14.513 3.513-21.048 3.905H1310V774h567c13.608-.002 27.229.002 40.835-.001 10.315.394 24.548-1.994 30.165-14.499-21.843-19.074-44.29-37.475-67.366-55.042-22.628-17.59-45.086-35.466-68.134-52.458-17.3 20.438-32.947 42.255-49.768 63.074-7.046 9.572-14.675 18.715-21.897 28.136-4.06 5.835-10.16 4.97-16.053 4.79h-371.779c-9.286.024-18.992.979-27.64-3.049C1271.569 723.721 1217.85 701.977 1164 681v249c-.443 118.85-.904 238.477-19.746 356.145-10.63 54.875-23.313 109.685-44.357 161.665-20.424 49.678-46.872 97.23-79.897 139.565M1032 2413h388v192c22.574.075 45.281-.063 67.565-4.002 15.759-3.587 31.476-7.814 46.469-13.954 10.44-4.657 22.859-10.415 31.162-16.893 7.104-6.14 4.061-18.723 4.804-26.807V2413h364.8c15.157.059 35.712.843 41.2-14.687-47.037-37.263-94.348-75.018-143.5-109.313-15.21 18.106-29.78 36.78-44.772 55.073-11.853 12.886-21.206 28.188-33.479 40.619-6.307 2.722-15.933.33-22.646 1.308H1570v-123h142v37c21.869-.047 44.034-.127 65.438-5.18 15.368-3.393 30.164-8.777 45.015-13.849 10.348-4.752 21.152-8.933 30.739-15.172 8.072-5.148 5.477-17.627 5.808-25.676V1964c14.666-2.062 28.575-8.918 39-19.5-43.64-33.732-87.544-67.214-131.5-100.5-10.94 14.01-24.668 25.636-35.69 39.58-9.556 9.322-17.57 20.123-27.318 29.24-3.781 3.172-10.693 1.886-16.13 2.18H1570v-106h339c12.67.284 31.183.897 38-14.5-45.344-38.595-94.72-72.16-142.5-107.5-14.34 16.151-27.285 33.534-41.157 50.082-10.087 12.573-20.357 24.974-30.48 37.504-2.087 2.258-3.747 4.956-6.214 6.838-2.163 1.838-6.079 1.495-9.262 1.576H1570v-89c7.715-1.863 17.206-3.5 23.482-7.463 8.33-4.84 10.974-12.09 13.518-20.037-62.321-5.204-124.635-12.522-187-17.5v134h-360v1.5c.82 4.405 2.2 8.664 3.411 12.962.878 3.27 1.898 6.488 3.06 9.639 2.996 3.6 11.137.819 14.916 1.899H1420v106h-109.8c-8.143-.154-16.743.957-24.39-2.472-49.094-18.8-98.43-37.284-147.31-56.528-1.426 159.538.26 319.402-.5 479 31.033.933 62.458-1.462 91.727-12.755 13.426-4.587 28.774-11.566 39.612-18.816 5.862-3.952 13.34-9.738 13.572-16.306.23-8.035-.022-16.086.089-24.123h137v123h-395c.928 9.004 6.477 18.678 7 27m251-341h137v-131h-137zm0 164h137v-137h-137zm400-1231h-296c19.042 69.081 49.389 136.234 94.847 192.17 22.466 27.632 46.54 54.742 75.025 76.335 4.03.299 6.133-7.072 8.47-9.046 17.19-25.172 32.924-51.29 47.378-78.118 30.694-57.163 54.536-118.4 70.28-181.341m-113 1067h142v-131h-142zm0 164h142v-137h-142z" style="fill:#fda;fill-rule:evenodd;stroke:none"/><path d="M244 2863.5c418.26 1.426 837.325-.26 1255.75.5 418.681-.76 837.643.926 1256.25-.5-137.483-816.352-271.828-1633.965-409-2450.5-141.513-45.746-282.358-94.352-423.703-140.74-105.839-35.248-211.646-70.575-317.47-105.817l-60-20a8496 8496 0 0 1-28.008-9.343c-4.68-1.543-9.347-3.083-13.982-4.729-5.086-2.015-9.193.742-14.014 2.193-139.528 46.49-279.049 93.006-418.557 139.507C931.703 319.858 792.72 367.853 653 413c-137.126 816.275-271.612 1634.71-409 2450.5m120-103v1.5h2272v-1.5c-68.931-409.09-136.257-818.54-204.874-1227.691-51.028-306.678-102.288-613.313-153.312-919.99-4.869-28.835-9.565-57.678-14.432-86.51-1.133-7.012-2.351-14.007-3.495-21.008-1.484-6.504-.056-15.285-8.94-17.157-109.703-36.573-219.416-73.135-329.12-109.701-96.009-31.978-191.992-64.023-288-96-41.971-14.027-84.002-27.963-125.969-41.994-9.552-4.304-21.398 2.4-30.56 4.946-155.047 51.948-310.255 103.285-465.433 154.805-58.187 19.4-116.394 38.801-174.566 58.195-25.476 8.525-51.019 16.959-76.48 25.505-5.454 2.642-13.186 3.29-17.14 6.618-2.1 1.795-1.737 5.77-2.555 8.884-62.19 372.917-124.31 745.877-186.485 1118.792C490.857 1998.664 428.048 2380.37 364 2760.5" style="fill:gray;fill-rule:evenodd;stroke:none"/><path d="M1031 2412.5c.03.55.186 1.058.5 1.5H1419v192h32v-2h-30v-192c-129.832.76-260.36-.926-390 .5m252-313 .5 1.5c4.323-2.084 11.212-.249 16.677-1H1419v135h-119.4c-5.284-.69-11.937 1.022-16.1-1-.384.972-.51 1.963-.5 3h138v-139h-138zm286 137.5h143v-2h-141v-135h124.2c5.359.667 12.063-.998 16.3 1 .384-.972.51-1.963.5-3h-143zm.5 329c2.946-4.446.554-12.347 1.5-18.295V2414h377v-2h-379c.76 51.246-.926 102.87.5 154" style="fill:#40372b;fill-rule:evenodd;stroke:none"/><path d="M1704.5 950c3.354-1.609 7.377-6.29 8.5-9-3.586.778-9.218 5.666-8.5 9m41.5-42.75c.047.678.167 1.205.75 1.75 3.153-1.846 7.19-6.247 8.25-9-4.159.663-6.322 4.633-9 7.25" style="fill:#f1d3a5;fill-rule:evenodd;stroke:none"/><path d="M1018 1587.5c2.488 2.588 5.8 4.183 8.5 6.5 47.52-27.957 93.282-59.764 131.233-100.233 58.248-60.759 100.284-136.133 122.315-217.407 24.65-87.778 30.437-179.674 30.952-270.36h60c10.75 61.815 24.279 123.545 45.724 182.641 20.095 56.503 47.215 110.512 81.276 159.859-47.146 51.723-101.04 97.378-160.127 135.072-58.852 36.91-121.444 68.984-186.873 92.428.75 4.013 4.467 8.497 6.5 11 74.026-15.024 149.074-30.625 219.815-58.327 34.446-13.147 68.743-27.156 101.12-44.881 31.276-16.049 61.065-35.122 90.065-54.792 38.533 38.904 85.073 68.69 132.693 95 49.636 26.786 102.275 47.257 155.307 66 10.43-32.033 25.36-64.135 49.975-87.975 23.316-24.48 54.835-42.083 88.525-47.025.185-4.405 1.049-8.722 2-13-57.858-9.343-115.26-22.71-171.781-38.218-54.139-14.812-106.896-34.494-157.219-59.282 40.305-42.89 77.264-89.361 106.862-140.443 31.294-51.873 57.356-107.452 76.138-165.057 17.109.484 35.141-4.936 46-18.5-45.451-42.246-92.053-83.256-137.5-125.5-12.617 13.413-26.221 25.758-39.475 38.475-11.74 10.918-22.199 23.275-34.418 33.655-4.812 4.036-9.184 11.472-17.467 10.869-119.053.003-238.096 0-357.14.001V775h532.8c26.796-.187 53.597.228 80.375-.123 9.09-.154 18.157-3.717 23.34-11.417.106-1.614 1.38-3.54.886-5.061-21.383-19.81-44.672-37.601-67.614-55.562-22.421-18.056-45.502-35.273-68.287-52.837h-1.5c-6.418 11.69-17.131 21.207-24.542 32.366-15.476 20-31.098 39.883-46.623 59.844-3.985 5.962-10.357 4.877-16.653 4.79h-372.977c-8.914.683-17.841.359-25.898-3.876-53.424-21.784-107.499-42.147-160.807-64.124-2.93 163.972 4.01 328.63-7.238 492.428-3.924 76.028-17.378 151.523-39.614 224.28-10.051 35.501-24.53 69.48-41.576 102.127-16.107 31.53-35.347 61.794-57.072 89.665m5 798c2.603 8.804 6.158 19.269 8 27.5h389v192c11.589-.556 23.173.396 34.723.48 36.717-.635 79.136-13.893 107.739-31.461 10.055-5.75 7.482-16.435 7.538-26.287V2413h354.6c10.526-.982 25.033 1.482 33.637-.09 7.766-1.618 19.853-7.142 17.818-15.729-46.001-38.74-95.042-74.597-143.555-110.181-15.633 17.903-29.865 37.08-45.137 55.29-11.495 13.262-21.64 27.777-33.323 40.84-3.04 2.43-7.184 1.715-10.853 1.87H1571v-121h140v37c22.141-.208 44.648.141 66.352-4.961 15.56-3.337 30.533-8.767 45.545-13.868 10.575-4.719 21.513-9.093 31.295-15.372 8.177-5.296 5.374-18.08 5.808-26.276V1965c15.151-2.1 29.433-9.396 40-20.5-43.907-34.917-89.275-68.003-133.5-102.5-11.018 13.86-24.413 25.649-35.609 39.351-9.29 9.664-17.778 20.023-27.276 29.481-3.643 4.12-10.556 3.13-15.456 3.168H1571v-104h336c10.227-.096 21.1.84 30.634-3.727 3.593-1.62 7.277-5.277 8.98-8.353 2.13-4.462-1.384-6.94-4.59-9.397-43.854-37.085-91.955-68.74-137.524-103.523h-1.5c-11.758 17.562-27.517 33.082-40.023 50.3-10.082 12.57-20.401 24.951-30.467 37.527-3.67 4.786-7.008 10.267-14.924 9.173H1571v-87c8.228-1.986 18.495-3.695 24.917-8.461 7.286-4.816 11.18-13.112 12.083-21.539-63.148-3.468-125.87-13.384-189-17v134h-361c2.626 8.528 4.5 19.319 7.944 26.738 4.247 2.474 11.036.47 15.637 1.262H1419v104h-109.8c-16.053 1.229-30.847-4.979-45.4-11.216-41.882-16.68-84.718-31.514-126.3-48.784-1.426 160.538.26 321.402-.5 482 31.497.981 63.432-.96 93.156-12.558 13.619-4.65 29.193-11.646 40.183-19.013 5.862-3.952 13.34-9.738 13.572-16.306.23-8.035-.022-16.086.089-24.123h135v121h-396zm261-314.5h135v-129h-135zm0 165h136v-137h-136zm104-1229.75c15.721 51.301 35.525 102.103 64.558 147.618 28.851 44.656 64.102 85.098 104.942 119.132 28.305-39.169 52.317-81.456 72.767-125.184 22.015-45.142 37.604-93.31 51.733-141.316-97.876-1.426-196.06.26-294-.5zM1570 2236h141v-137h-141zm1-165h140v-129h-140z" style="fill:#000;fill-rule:evenodd;stroke:none"/></svg>