<svg xmlns="http://www.w3.org/2000/svg" width="3000" height="3000"><path d="M363 2763h2274c-116.777-706.336-235.544-1412.426-352.792-2118.701-7.351-44.171-14.733-88.332-22.082-132.49-.76-5.347-1.88-10.63-2.64-15.97-.062-6.502-4.856-8.386-10.16-9.572-81.497-27.15-162.975-54.317-244.46-81.467-142.336-47.478-284.708-94.881-427.04-142.357-13.532-4.49-27.037-9.017-40.56-13.514-6.477-2.17-12.972-4.309-19.44-6.486-6.235-1.594-13.427-5.493-19.495-5.034-100.387 32.434-200.209 66.92-300.466 99.791-150.35 50.002-300.828 99.614-451.039 150.05-5.982 1.452-6.275 6.662-6.798 11.742-24.43 146.388-48.84 292.799-73.214 439.189C565.92 1546.494 463.462 2154.662 363 2763m659-167.375c2.325 1.609 4.605 3.258 6.5 5.375 51.355-32.627 97.911-73.818 131.967-124.607 53.676-77.597 78.399-171.505 86.053-264.591 8.344-103.358 4.442-207.235 5.48-310.802h545c-7.401 40.697-16.409 81.288-28 121 2.568.227 4.248 3.46 6.451 3.51 4.187.059 8.949-3.675 13.378-5.437 32.395-15.889 63.781-33.71 94.362-52.83 15.324-9.052 29.825-19.332 44.285-29.658 3.581-2.696 6.958-5.747 10.933-7.85 12.697-2.847 30.212-1.005 37.591-13.235-39.103-36.452-77.349-73.944-116.332-110.5-7.69 2.746-12.377 12.06-17.77 16.602l-26.268 26.268-13.105 13.105c-3.209 4.23-10.177 8.656-11.525 13.025h-225v-82h304.8c11.182-.157 27.78-.881 33.2-14.5-42.393-33.688-84.28-68.469-128-100.5-12.531 14.702-24.385 30.297-36.542 45.366-9.005 11.406-18.134 22.717-27.211 34.063-3.308 4.425-6.261 9.5-13.426 8.57-44.278.004-88.553-.001-132.821.001v-66.6c.09-5.346-1.323-12.627 4.54-13.565 6.973-1.746 15.32-4.218 20.768-8.105 6.912-4.406 8.247-10.7 10.692-17.23-60.25-3.727-120.653-10.292-181-13.5v228h-85.2c-21.274-1.02-42.777 1.25-63.977-.687-53.592-16.691-106.13-37.08-159.823-53.313v208.2c-.175 100.334.811 200.973-10.392 300.91-5.697 47.542-13.62 95.022-26.548 141.171-12.24 43.4-30.644 85.504-53.06 124.344m15-1834.375c2.823 7.965 5.342 18.14 7 25.75h134v110.4c-.37 25.763-1.178 53.534 12.73 76.619 8.584 15.608 23.908 25.437 40.353 31.112 27.747 8.948 57.154 10.278 85.986 12.058 30.794 1.18 61.64.712 92.449.811h195.972c48.019.053 96.057-.829 144.008-2.988 33.737-2.667 68.473-3.391 101.068-13.65 11.457-3.462 22.661-8.342 31.182-17.022 14.335-14.878 16.962-44.096 4.357-58.726-9.277-12.904-27.63-19.293-40.756-23.657-11.725-3.702-24.457-7.712-36.762-4.407-9.247 1.95-18.413 4.175-27.755 5.626-13.477 3.618-27.224 5.638-41.152 6.252-7.242.868-14.514 1.185-21.78 1.562-6.406.242-14.076 1.662-19.4-.99-3.229 2.872-9.403 1.648-14.107 2.302-4.414.134-11.003 1.381-13.893-1.302-3.419 3.022-9.495 1.556-13.591 2.001-76.256 1.834-152.224.497-229.05.999h-58.118c-13.935-.298-28.562 1.034-41.998-3.758-10.467-4.173-8.232-17.711-8.743-26.28V787h616.2c10.23.525 24.634-1.672 29.8-14.5-41.348-35.593-85.57-67.885-128.5-101.5-23.182 30.051-48.278 59.42-70.5 90h-200v-84c14.003-2.77 33.283-5.497 36-26-59.213-4.577-118.66-9.547-178-13v123h-387zm112 1833c1.171 2.847 3.579 5.81 4 8.75 84.558-18.176 170.32-45.77 239.623-99.484 32.913-27.179 60.375-61.274 78.083-100.301 17.595-40.645 26.908-84.463 32.294-128.215 14.261.337 33.768-6.51 38-25a19544 19544 0 0 1-192-21c1.703 40.205 4.204 80.789-1.722 120.872-7.456 55.073-29.888 108.66-66.872 150.437-35.675 41.03-81.789 71.955-131.406 93.691zM1213 1594c31.69.704 63.795-1.784 93.726-13.079 13.86-5.17 30.105-12.279 41.094-20.375 5.378-3.94 12.288-9.12 12.108-17.901.186-8.22-.018-16.439.072-24.645h302v70c43.295 1.365 86.87-5.485 126.713-23.083 9.28-4.327 22.435-8.402 21.287-19.267V1143c12.993-1.342 25.092-8.233 34-17.5-21.779-17.066-43.872-33.742-65.8-50.61-19.265-14.647-38.448-29.424-57.787-43.946-4.33-3.738-9.47 3.912-11.994 6.796-14.472 15.187-28.584 30.666-43.29 45.63-3.33 3.107-5.94 6.857-9.119 10.085-3.642 4.176-8.396 3.618-13.472 3.545h-262.546c-15.487.815-29.294-7.204-43.572-12.063-40.92-16.409-82.623-31.38-123.42-47.937zm58 457c47.057-2.55 93.888-9.353 141-11 .284 24.211-.612 48.471.984 72.642 1.642 16.236 4.864 32.708 13.47 46.836 13.925 20.525 39.474 28.135 62.675 31.349 25.842 3.709 52.025 4.158 78.089 4.173 85.299-.795 170.911 2.044 255.947-6.033 20.163-2.63 40.684-5.22 59.65-12.964 13.154-5.178 24.659-14.95 28.91-28.849 8.514-20.949.425-46.864-20.43-56.901a131 131 0 0 0-14.974-7.125c-3.29-1.543-8.017-2.312-9.872-5.04-1.436-12.802-.648-25.819-2.302-38.617A811 811 0 0 1 1863 2009h-8c-5.907 14.39-14.81 27.66-22.927 40.887-7.478 10.557-16.146 23.51-25.196 31.321-10.35 7.451-23.37 8.583-35.685 8.901-47.317 1.529-94.68.55-142.004.891-23.353-.71-47.002 1.254-70.232-1.633-14.08-2.892-12.935-15.394-12.954-26.485-.006-11.627.001-23.261-.002-34.882 60.927-5.209 121.89-10.3 182.836-15.391 7.427-.644 15.182-1.197 21.8-5 2.77-1.528 5.128-3.693 7.125-6.126 1.426-2.038 3.74-6.12 1.687-7.792-16.445-13.437-34.957-24.187-52.501-36.07-17.733-10.045-33.902-23.297-51.947-32.621-5.398 10.293-13.505 19.557-19.618 29.536-4.953 7.282-9.948 14.518-14.936 21.772-3.837 5.427-7.566 10.896-11.338 16.356-2.845 4.216-9.564 3.408-14.08 4.12-15.784 1.9-31.788 2.09-47.528 4.216-2.187-2.984-1.172-8.237-1.5-12.325v-22.637c.136-5.312-.284-11.634.444-16.448.7-3.377 7.008-3.011 9.328-4.285 10.201-2.437 21.066-11.727 21.228-21.305-54.96-4.377-110.042-7.559-165-12v100c-49.52 5.137-99.44 8.004-149 13 1.094 9.044 6.904 16.944 8 26m89-825h302v-103h-302zm0 131h302v-104h-302zm0 135h302v-108h-302zm576 831h-8c-13.908 36.25-27.622 73.048-46.127 107.302-3.03 7.022-8.695 12.049-14.132 17.127-5.887 4.851-14.123 4.472-21.21 4.571h-89.011c-9.848-1.112-23.856 2.758-29.549-5.68-4.642-8.042-2.27-19.62-2.971-27.594v-102.31c.665-17.045-.812-34.269.44-51.254-.09-3.841 7.082-3.643 9.331-4.857 10.451-2.337 20.575-10.138 22.229-21.305-57.687-3.916-115.363-8.431-173-13v172.8c-.112 21.607.136 43.217-.073 64.822-.843 3.885-2.313 7.012-.526 11.564 3.348 28.817 1.011 69.812 32.937 88.937 20.6 13.022 50.2 14.95 71.72 16.134 40.76 1.198 81.553.745 122.31.116 37.925-1.392 76.898-2.957 113.333-14.771 21.41-6.206 42.799-19.402 51.254-41.1 6.163-16.528 6.456-35.935-.808-52.268-4.699-12.069-16.488-19.135-27.49-24.41-2.233-1.041-4.38-2.246-6.35-3.714-2.682-3.36-.36-10.896-1.328-14.735-1.418-35.451-1.362-70.95-2.979-106.375" style="fill:#fda;fill-rule:evenodd;stroke:none"/><path d="M244 2863.5c418.26 1.426 837.325-.26 1255.75.5 418.681-.76 837.643.926 1256.25-.5-137.483-816.352-271.828-1633.965-409-2450.5-141.513-45.746-282.358-94.352-423.703-140.74-105.839-35.248-211.646-70.575-317.47-105.817l-60-20a8496 8496 0 0 1-28.008-9.343c-4.68-1.543-9.347-3.083-13.982-4.729-5.086-2.015-9.193.742-14.014 2.193-139.528 46.49-279.049 93.006-418.557 139.507C931.703 319.858 792.72 367.853 653 413c-137.126 816.275-271.612 1634.71-409 2450.5m120-103v1.5h2272v-1.5c-68.931-409.09-136.257-818.54-204.874-1227.691-51.028-306.678-102.288-613.313-153.312-919.99-4.869-28.835-9.565-57.678-14.432-86.51-1.133-7.012-2.351-14.007-3.495-21.008-1.484-6.504-.056-15.285-8.94-17.157-109.703-36.573-219.416-73.135-329.12-109.701-96.009-31.978-191.992-64.023-288-96-41.971-14.027-84.002-27.963-125.969-41.994-9.552-4.304-21.398 2.4-30.56 4.946-155.047 51.948-310.255 103.285-465.433 154.805-58.187 19.4-116.394 38.801-174.566 58.195-25.476 8.525-51.019 16.959-76.48 25.505-5.454 2.642-13.186 3.29-17.14 6.618-2.1 1.795-1.737 5.77-2.555 8.884-62.19 372.917-124.31 745.877-186.485 1118.792C490.857 1998.664 428.048 2380.37 364 2760.5" style="fill:gray;fill-rule:evenodd;stroke:none"/><path d="m1360 1253.5.5 1.5c4.825-2.188 12.428-.145 18.488-1H1661v102h-282.6c-5.881-.812-13.24 1.146-17.9-1-.384.972-.51 1.963-.5 3h303v-106h-303z" style="fill:#7f6e55;fill-rule:evenodd;stroke:none"/><path d="M1359 1227h304v-3c-12.197 2.223-24.864.11-37.168 1H1361c.76-33.852-.926-68.324.5-102h-2.5z" style="fill:#40372b;fill-rule:evenodd;stroke:none"/><path d="M1111.5 2146c.823-2.636.51-6.855 0-9-2.845 2.789-2.643 6.589 0 9m239 122c.646-1.76.684-4.597 0-6-3.119 2.142-2.599 4.211 0 6m233 209c.75-3.228.583-8.374 0-11-3.45 2.385-2.646 8.304 0 11M1611 913.375c2.705 1.284 7.718.34 10 .125-2.773-3.32-7.34-2.832-10-.125m56-1c1.57 1.227 5.3.398 7 .125-2.051-2.971-5.085-2.827-7-.125m28-1c2.087 1.202 6.248.423 8 .125-2.313-3.215-5.867-3.048-8-.125m95 960.958c.046.637.243 1.2.667 1.667.504-.01.954-.167 1.333-.5l34.475-34.475 17.258-17.258 8.637-8.637c2.423-2.795 6.827-6.057 7.63-9.13h-1.5c-6.526 4.736-11.66 10.849-16.894 16.894-17.287 17.034-34.23 34.54-51.606 51.44m77 573.917c.805 1.06 2.53.148 3.347-.38 2.1-1.563 5.078-4.356 4.153-6.87-2.788 1.867-5.929 4.957-7.5 7.25" style="fill:#f1d3a5;fill-rule:evenodd;stroke:none"/><path d="M1020 2595.375c2.6 2.729 6.116 4.603 8.5 7.625 25.233-17.038 49.978-34.878 72.45-55.525 38.663-36.842 71.705-79.809 94.488-128.347 37.074-75.273 49.613-159.903 54.6-242.645 4.81-91.383 2.101-183.019 2.962-274.483h543c-7.664 40.668-17.298 81.085-28 121 2.6.351 3.901 3.146 6.391 3.736 3.706 1.913 8.743-3.307 12.94-4.409 33.145-16.095 65.217-34.241 96.433-53.798 15.6-9.295 30.49-19.704 45.204-30.32 3.474-2.794 6.969-5.613 10.885-7.738 13.353-1.957 30.736-1.498 38.147-13.971-39.657-37.33-78.847-75.174-118.5-112.5l-52.475 52.475-10.127 10.127c-2.933 2.7-5.761 6.951-10.785 7.287-73.042.316-146.077-.057-219.113.111v-80h263.4c14.616-.017 29.233.02 43.844-.011 12.55-.104 29.568-3.515 30.756-16.989-43.22-32.886-85.08-69.49-129.5-101-12.12 15.036-24.273 30.078-36.194 45.27-8.893 11.57-18.29 22.734-27.289 34.213-3.35 4.076-6.522 10.05-13.005 9.504-44.003.038-88.013-.008-132.012.013v-66.6c-.135-5.068-1.08-11.346 5.906-11.914 7.014-1.732 15.376-4.561 20.614-8.734 5.743-4.593 8.792-11.56 9.48-18.752-61.118-2.14-121.871-10.995-183-13v228h-117.6c-9.33-.376-18.746.494-28.044-.354-54.802-17.047-108.61-37.437-163.356-54.646v208.2c-.092 100.91 1.005 202.226-10.485 302.654-10.347 92.079-31.05 185.86-80.515 265.521M1043 788h134v110.4c-.37 25.763-1.178 53.534 12.73 76.619 8.584 15.608 23.908 25.437 40.353 31.112 27.747 8.948 57.154 10.278 85.986 12.058 30.794 1.18 61.64.712 92.45.811 107.018-.954 214.116 1.65 321.08-2.087 37.75-1.68 75.758-3.561 112.761-11.782 14.967-3.567 30.047-9.546 41.09-20.546 9.36-11.064 13.67-26.348 11.868-40.772-4.455-31.178-38.988-40.491-62.015-46.494-6.006-1.48-12.193-2.564-18.399-2.15-23.224 3.785-45.975 10.468-69.428 12.689-90.429 7.534-181.416 4.117-272.03 5.142h-68.84c-17.35-.072-34.732.088-52.074-.048-10.44-.83-26.836-.855-30.802-10.867-2.766-9.099-1.256-18.911-1.73-28.241V788h612c9.084.174 18.908.205 26.74-5.214 2.881-1.988 5.57-4.709 6.368-8.245 1.156-3.592-2.843-6.426-5.024-8.128-39.891-34.05-82.584-64.761-123.584-97.413-23.896 30.063-48.747 60.25-71.5 91h-198v-82c8.428-1.732 17.14-3.146 24.701-7.62 7.3-4.262 9.737-12.44 12.299-19.88-7.494-2.257-15.79-1.328-23.523-2.42-52.52-3.085-104.913-8.825-157.477-11.08v123h-387c1.352 9.51 5.814 18.443 7 28m109 1816c11.117-.576 21.745-4.741 32.566-6.899 78.616-19.978 158.815-48.097 220.672-102.75 29.628-25.314 55.694-64.365 69.447-97.101 15.745-38.663 24.253-79.993 29.315-121.25 14.903.085 36.52-7.448 38-27-64.71-6.425-129.32-14.25-194-21 1.393 40.346 4.531 81.095-1.773 121.275-7.533 54.753-29.755 108.05-66.49 149.656-35.725 41.196-81.97 72.3-131.737 94.069.138 4.023 3.353 7.113 4 11m60-1009c31.966.66 64.484-1.295 94.728-12.756 14.064-5.063 30.465-12.339 41.664-20.36 5.277-3.975 12.385-8.94 12.504-17.65.261-8.418-.018-16.818.104-25.234h300v70c22.88-.046 46.018.022 68.502-4.8 15.549-2.886 30.559-7.79 45.585-12.55 10.941-4.267 22.308-8.176 32.088-14.856 4.589-3.167 3.821-8.217 3.825-13.143V1144c13.58-1.266 25.857-8.8 35-18.5-21.108-17.262-43.315-33.226-64.773-50.044-10.768-8.563-21.973-16.541-32.748-25.073-11.12-7.06-20.398-17.353-32.135-23.383-14.658 15.718-29.75 31.04-43.984 47.126-7.076 5.883-13.53 14.67-19.693 20.304-3.338 2.587-9.523 1.046-14.126 1.57h-261.945c-7.784.54-15.034-2.457-21.974-5.558-47.744-17.417-94.704-37.722-142.622-54.442zm49 429.353c2.351 9.04 7.369 19.218 9 27.647 47.082-2.23 93.897-9.192 141-11 .284 24.21-.612 48.471.984 72.642 1.642 16.236 4.864 32.708 13.47 46.836 13.925 20.525 39.474 28.135 62.675 31.349 25.842 3.709 52.025 4.158 78.089 4.173 85.931-.82 172.19 2.108 257.859-6.022 20.194-2.615 40.735-5.238 59.739-12.975 13.343-5.235 24.916-15.213 29.07-29.341 7.925-20.506 1.444-46.747-18.893-57.358-4.697-2.845-9.707-5.207-14.738-7.388-3.306-1.52-7.534-2.603-10.337-4.431-2.747-1.484-1.411-6.796-1.973-9.193-.618-9.72-.774-19.464-1.64-29.162-.768-10.686-1.041-21.426-1.305-32.13h-10c-5.846 14.25-14.63 27.405-22.67 40.487-7.334 10.468-15.932 23.154-24.653 31.091-9.833 7.891-22.693 8.943-34.728 9.452-46.915 1.617-93.842.646-140.766.97-23.375-.413-46.892.869-70.196-1.367-5.152-.989-10.407-3.756-12.354-9.038-3.153-16.587-.657-33.832-1.633-50.595 61.467-5.317 122.962-10.33 184.438-15.541 7.461-.546 15.196-1.49 21.612-5.696 4.23-2.966 11.81-10.652 7.048-15.308-33.22-25.412-69.906-46.24-104.598-69.455-13.336 19.244-26.543 38.616-39.891 57.862-3.69 4.302-6.681 11.307-10.788 13.68-18.449 3.33-38.074 1.83-56.321 5.458-2.22-2.938-1.154-8.174-1.5-12.29v-22.78c.84-5.149-1.308-12.319 1.409-16.133 6.678-2.292 14.603-3.259 20.254-8.203 6.715-4.502 8.13-10.53 10.337-17.094-55.765-5.421-112.105-7.74-168-12.5v100c-49.863 5.079-100.077 8.203-150 13zM1360 1226c100.607-.76 201.478.926 302-.5-1.731-3.188-.54-8.38-1-12.477V1124h-301zm1 131h301v-104h-301zm0 134h300v-106h-300zm576 831h-10c-13.908 36.25-27.622 73.048-46.127 107.302-3.338 6.355-8.312 13.64-13.913 17.333-6.074 4.235-13.806 4.464-20.877 4.365h-89.165c-9.792-.222-23.764 1.91-28.55-6.62-3.777-8.514-1.738-18.313-2.368-27.282v-128.24c.029-6.379-.035-12.798.02-19.176.147-1.975.34-4.908 1.567-6.063 11.736-3.745 29.43-6.979 30.413-25.619-58.363-3.782-116.676-8.817-175-13v238.034c-.142 18.167.078 36.48 3.805 54.358 2.317 14.327 7.686 28.365 17.603 39.207 18.88 18.161 46.118 21.943 70.977 23.948 42.98 2.303 86.125 1.25 129.137.963 40.178-1.431 81.537-2.31 120.18-14.908 21.541-6.259 43.18-19.604 51.431-41.612 6.134-16.746 6.216-36.213-.562-52.84-4.655-12.24-16.107-19.798-27.403-25.086-2.282-1.035-4.471-2.246-6.496-3.692-1.892-1.341-1.365-4.96-1.667-6.627-.93-38.238-1.684-76.526-3.005-114.745" style="fill:#000;fill-rule:evenodd;stroke:none"/></svg>