<svg xmlns="http://www.w3.org/2000/svg" width="3000" height="3000"><path d="M363 2763h2274c-116.777-706.336-235.544-1412.426-352.792-2118.701-7.351-44.171-14.733-88.332-22.082-132.49-.76-5.347-1.88-10.63-2.64-15.97-.062-6.502-4.856-8.386-10.16-9.572-81.497-27.15-162.975-54.317-244.46-81.467-142.336-47.478-284.708-94.881-427.04-142.357-13.532-4.49-27.037-9.017-40.56-13.514-6.477-2.17-12.972-4.309-19.44-6.486-6.235-1.594-13.427-5.493-19.495-5.034-100.387 32.434-200.209 66.92-300.466 99.791-150.35 50.002-300.828 99.614-451.039 150.05-5.982 1.452-6.275 6.662-6.798 11.742-24.43 146.388-48.84 292.799-73.214 439.189C565.92 1546.494 463.462 2154.662 363 2763m658-1172.5c1.012 2.273 4.585 3.283 6.5 5.5 63.414-46.6 113.437-110.474 148.316-180.734 36.846-74.332 56.117-155.803 66.143-237.798 8.227-72.366 9.784-145.284 10.793-218.049.694-75.817-.115-151.616.248-227.419h379v1.5c-3.24 7.142-9.87 12.218-14.023 18.8-8.945 11.013-17.67 22.202-26.602 33.216-3.794 4.8-7.594 9.571-11.527 14.255-2.105 1.984-3.643 5.382-6.36 5.756-104.007 2.109-208.51-1.172-312.488.973 3.658 7.797 4.362 18.716 8.296 25.594 7.413 1.79 15.45.324 23.03.906H1429c-.309 26.947.267 53.813-2 81-10.592-.019-23.045-8.343-34.898-11.556-33.854-12.695-67.01-27.481-101.102-39.444v500c13.678-.173 27.424-.344 41-2 .654 13.676 3.944 27.228 2.998 41.044.298 23.825.848 47.899-4.081 71.369-1.912 8.298-3.245 16.723-5.841 24.85-2.703 7.468 5.628 13.852 10.157 18.47 8.438 8.927 20.281 14.766 32.63 15.174 18.671.448 37.36-9.094 47.634-24.732 11.088-15.113 14.433-35.31 9.9-53.252-5.317-21.263-17.982-39.158-32.87-54.698-7.965-7.225-15.786-14.634-24.645-20.8-4.31-3.068-8.596-6.162-12.957-9.136-3.444-3.245-9.937-4.799-11.6-8.722A40 40 0 0 1 1343 1359c15.573-2.996 33.412-9.267 46.422-15.723 7.45-3.37 14.6-7.287 20.908-12.53 8.254-5.458 6.95-14.163 6.67-22.747h240c-1.114 39.393-3.608 79.054-9.997 117.969-2.03 8.872-3.674 18.425-9.526 25.792-10.049 10.577-29.607 6.172-42.128 7.239-7.334-.313-14.602-.333-21.894-.423-6.386-1.243-16.4.698-20.955-2.577-3.69 3.365-10.197 1.141-14.5 1 .472-7.267 5.808-14.436 4.985-23.346 1.142-28.892-20.911-53.076-43.007-68.34-11.136-7.437-23.303-13.23-35.698-18.196-6.322-2.751-12.893-4.863-19.421-7.01-6.354-1.902-13.342-5.3-19.216-1.893a11 11 0 0 0-3.643 2.285c16.406 24.953 26.72 59.773 29.614 86.824.242 6.26.612 12.505 1.15 18.744-.115 5.843-1.402 11.742-.315 17.565 12.257 15.284 34.677 23.536 53.59 16.826 7.534-1.874 13.877-6.13 19.75-10.984 5.025-4.084 12.893-.07 18.22 1.383 20.463 7.236 41.986 18.184 53.651 37.53 5.794 10.316 7.957 22.063 8.742 33.703 1.28 12.255 1.418 24.606 1.598 36.909 42.513-.384 89.967-8.014 121.37-39.87 15.647-14.707 23.748-35.283 29.182-55.508 5.962-21.76 8.663-44.202 10.952-66.579 1.23-9.318 1.085-18.742 2.496-28.043h3c10.768 52.225 31.24 103.383 63.15 146.405 16.37 20.833 36.49 40.42 62.586 48.35 12.974 4.864 27.316 5.207 40.523 1.165 12.868-2.96 26.117-8.775 32.708-21.057 14.301-29.027 8.65-62.971 2.971-93.177-2.171-15.05-9.708-31.914-9.935-45.91.326-16.197 1.625-32.346 2.55-48.497 1.826-47.788 6.523-95.46 7.447-143.279h-7c-6.71 31.592-15.746 62.886-25.403 93.705-2.294 6.486-5.086 14.065-7.49 19.897-2.48 5.535-5.714 13.133-13.95 10.922-5.328-2.905-8.043-9.249-10.603-14.48-10.697-23.635-15.853-49.318-20.173-74.733-15.523-92.36-17.298-186.17-19.168-279.525-.644-48.53 1.682-97.08 3.334-145.544 1.245-23.331 2.4-46.656 4.527-69.923.79-5.516.176-12.328 1.813-17.22 1.269-4.103 9.069-3.434 12.01-5.085 11.635-3.146 23.576-7.552 32.103-16.514-21.736-18.193-43.26-36.68-65.194-54.637-10.765-9.239-21.71-18.286-32.61-27.354-5.284-4.711-10.832-9.095-16.196-13.702-5.53-3.525-11.506-10.9-16.668-12.807-18.141 21.68-37.458 42.325-55.722 63.89-4.185 4.226-8.124 10.127-12.321 13.66-6.058 3.093-12.995.29-19.573 1.45h-423.847c-15.831.55-30.03-7.818-44.588-13.078-42.54-16.15-84.552-34.47-127.281-49.922v361.2c-.82 7.233 1.462 16.794-2 22.3 3.508 4.695 1.045 12.596 1.622 17.825-2.006 95.079-3.58 190.506-17.526 284.772-12.435 89.976-33.438 180.811-74.096 262.403m0 1007c1.427 2.525 5.602 4.234 7.5 5.5 57.219-43.874 106.133-98.72 139.472-162.988 53.276-100.189 76.51-214.004 82.188-326.577 7.226-123.635 4.068-247.645 4.84-371.435h484c-.288 9.07-.78 18.132-.977 27.194-1.017 8.567 1.63 19.685-2.023 26.306 2.522 3.213 1.67 8.355 1.81 11.77-.28 15.194-.821 30.388-.81 45.581-.036 14.433 1.036 29.133-3 43.149-5.194-.183-10.045-5.897-14.974-8.975-31.928-23.891-63.522-48.26-95.526-72.025-10.027 10.139-19.554 20.723-29.694 30.754-6.714 8.37-14.973 15.322-21.944 23.448-5.752 8.484-14.349 7.21-22.836 6.798H1469c.01-3.753 4.315-5.654 6.99-7.337 22.64-15.12 45.396-30.042 67.683-45.654 10.966-7.772 21.382-16.997 34.977-18.703 11.603-2.788 26.997-11.03 27.35-26.306-62.164-6.199-123.87-17.48-186-24-.003 39.694-1.25 79.419-4 119-11.23-1.642-21.139-8.477-32.096-11.24-31.326-12.567-63.21-23.962-94.404-36.76-1.426 124.21.26 248.72-.5 373 27.188.668 54.706-1.896 80.312-11.623 12.074-4.495 24.128-9.396 34.904-16.554 5.512-3.365 10.157-7.967 12.068-14.274 1.343-6.31.037-13.201 1.716-19.549h157v39c14.676-.05 29.377.383 44-1-1.115 6.115-8.776 11.518-12.336 17.687-4.141 5.314-8.497 10.458-12.744 15.68-4.22 4.537-7.936 12.1-13.694 12.516-108.012 1.094-216.287-.987-324.226.617 2.615 7.735 5.843 18.83 7 25.5h163v110c-55.607.76-111.478-.926-167 .5 3.658 7.797 4.362 18.716 8.296 25.594 7.412 1.79 15.45.324 23.03.906H1426v128h-238c1.463 8.853 4.98 17.296 7 26h400.8c66.721-.626 133.556.763 200.241-.412 6.966-1.021 14.86-4.465 17.87-11.341 1.5-2.923-2.34-6.034-4.087-7.723-36.158-30.032-74.042-57.938-111.324-86.524-18.029 20.42-34.24 42.457-51.872 63.214-4.476 4.88-8.6 11.927-13.533 15.573-5.6 2.41-11.39.421-17.345 1.213H1563v-128h153c13.856.082 34.029 2.125 42-14.5-15.918-15.565-33.848-29.018-51.327-42.74-17.895-12.868-34.696-27.86-53.173-39.76-10.08 11.142-18.795 23.45-28.652 34.771-8.595 12.088-20.113 22.7-27.848 35.229h-34v-110h143.4c7.917-.223 15.884.317 23.78-.282 3.612-.51 7.179-1.501 10.437-3.143 2.803-1.38 5.453-4.298 8.383-4.575 5.04 52.625 12.42 105.188 24.671 156.665 9.15 37.819 20.348 75.54 38.749 110.045 13.452 24.288 28.7 48.401 50.045 66.644 15.977 13.951 36.016 24.4 57.358 26.59 16.29-.025 33.103-4.193 46.693-13.376 9.812-7.353 14.204-19.209 16.2-30.798 7.597-38.065-5.402-75.735-13.573-112.229.087-33.019 3.814-65.951 4.877-98.939 3.25-32.482 2.418-65.814 5.98-98.102-2.58-.728-5.353-.365-8-.5-6.376 29.83-15.25 59.13-23.974 88.339-1.786 6.264-4.31 12.257-6.435 18.391-1.924 5.542-4.316 12.544-8.55 16.207-12.142 7.778-19.487-13.418-23.2-20.299-9.471-21.78-14.028-45.255-18.289-68.479-13.54-83.792-17.95-168.834-18.83-253.605-1.084-44.497.187-88.994 1.264-133.478 2.046-42.352 3.305-84.949 8.014-127.076 7.946-.435 16.749-4.208 23.704-6.07 7.708-2.357 14.833-6.498 20.296-12.43-34.578-29.37-69.497-58.407-104.194-87.637-4.433-3.625-8.789-7.353-13.195-10.994-3.6-3.386-7.487-6.382-11.392-9.378-4.175-.372-6.819 6.683-9.698 8.488-19.496 23.714-41.833 45.887-60.521 70.021h-433.2c-8.584.176-17.474.782-25.422-3.039-50.824-20.874-102.292-40.687-152.878-61.961-2.547 166.846 2.469 334.123-3.766 500.956-2.745 77.967-9.008 155.978-23.35 232.758-12.834 73.186-34.053 146.394-67.384 212.786M1273 1349h-12c1.626 22.756-7.319 44.399-21.55 61.778-10.778 15.34-24.926 27.769-41.087 37.03-12.76 8.677-25.587 22.63-30.498 36.202-11 27.301 2.902 60.662 29.922 72.362 19.754 8.996 44.49 9.11 62.947-3.272 25.428-20.829 35.943-54.785 37.458-86.613 2.815-33.707-7.738-66.846-18.006-98.336-2.127-6.477-5.462-12.538-7.186-19.151m142 640.5v1.5h161v-89h-159v66.6c-.117 6.99.784 14.428-2 20.9m1 118v1.5h160v-92h-159v69.6c-.262 6.868.595 14.886-1 20.9m1-1099.5h155v-51.6c-.644-5.354 1.139-12.357-1.5-16.4-12.695 1.758-25.58.575-38.335 1H1417zm0 95h155v-52.8c-.653-5.29 1.14-12.23-1.5-16.2-12.695 1.758-25.58.575-38.334 1H1417zm0 91h183c3.626-.19 8.14.509 10.642-1.555 8.29-7.548 14.032-17.563 21.73-25.659 3.424-4.51 7.13-8.781 10.73-13.14 3.036-4.159 8.351-8.653 8.898-13.646-6.395.624-12.331 3.705-18.627 4.896-19.878 4.543-40.93 7.81-61.373 5.104v-20h-155zm0 88h219.6c3.446-.115 7.576.269 10.687-.466 5.042-1.711 9.109-8.526 13.32-11.63 7.918-6.687 15.104-14.14 22.604-21.276 6.106-4.886 11.204-10.89 16.9-16.212 1.923-1.673 4.129-4.083 7.08-4.916 7.86 3.327 15.562 12.62 22.803 17.269 3.697 3.068 7.552 5.94 11.209 9.04 3.635 2.887 7.64 7.151 11.797 7.191-1.331-13.658-3.206-27.284-4-41h-332zm82-369.5v1.5h57c12.022.883 13.002-11.034 21.954-15.845 6.336-5.518 11.18-12.56 17.507-18.129 2.637-2.393 4.501-6.252 6.928-8.406 5.506-3.375 9.843-8.46 14.323-12.93 2.431-.78 5.255 2.932 7.265 3.782 35.108 25.552 69.8 51.663 105.023 77.028-6.213 5.892-13.474 10.928-21.545 13.833-3.114 1.383-9.107 1.513-9.125 5.218-.941 31.86.171 63.865-.33 95.737v47.944c-.13 6.597 1.948 15.426-6.691 19.596-5.872 2.97-12.42 7.572-18.309 9.172.417 3.887 5.391 5.943 7.829 8.445 10.52 8.692 21.795 16.365 32.391 24.943 5.576 4.094 11 8.357 16.445 12.612 5.186 3.187 11.078 10.29 16.335 11-1.25-27.697-3.6-55.308-4.56-83.01-.671-14.105-1.015-28.211-1.577-42.306l-.527-21.324c-1.01-6.393 1.095-15.145-2.336-19.86 2.665-2.814 1.566-7.793 1.73-11.392-.596-15.568-.902-31.121-.73-46.696.45-5.613-.603-11.096-1.547-16.57.253-4.232 2.308-8.656 1.547-13.88-.397-17.124.964-34.437-1.7-51.348 2.551-17.058 1.416-34.407 1.7-51.614-13.116 3.466-26.74 3.375-40.246 3H1572c-20.922 28.64-48.979 53.762-73 79.5m23 414.875c15.558 15.16 27.375 33.827 36.325 53.54 3.177 8.121 5.729 16.487 7.375 25.04 1.555 7.101-.528 15.655 8.216 19.065 10.799 6.88 24.223 10.261 36.815 7.351 18.484-3.628 32.894-19.777 35.824-38.14 2.986-19.595-9.225-38.242-25.61-47.93-13.803-10.126-30.374-15.415-46.996-18.607-8.849-1.686-17.722-3.343-26.716-4.046-8.214-.805-17.079-2.294-24.486 3.188-.293.114-.524.339-.747.539M1641 733.5c6.453 7.465 17.691 12.942 24.261 19.186a13441 13441 0 0 1 37.256 27.954c6.299 4.493 12.343 9.352 18.334 14.243 5.582 3.762 12.161 11.815 18.149 12.117-.912-6.928 1.579-16.322-2-21.5 3.799-7.38.86-18.54 2.024-26.415.2-9.028.688-18.067.976-27.085h-99zm24 1431.5c7.813 3.498 13.798 10.831 21.077 15.313 10.475 7.794 20.953 15.626 31.12 23.82 5.087 4.077 10.2 8.143 15.169 12.358 5.11 3.125 10.499 10.71 15.634 11.509-3.681-31.802-4.588-63.823-6.916-95.726-.492-16.733-1.632-33.451-1.98-50.189-.296-8.542-.43-17.118-.666-25.656-1.244-7.735 1.238-18.071-2.438-23.929 3.116-3.565 1.238-10.342 1.588-15.552-.29-9.399-.639-18.78-.588-28.175V1907c-5.075.361-10.31 5.558-15.956 7.446-5.354 2.838-11.128 4.446-17.044 5.554v204.6c-.228 5.575.466 11.538-.713 16.963-4.41 5.582-11.662 7.748-17.626 11.119-6.736 3.004-13.553 6.304-20.661 8.318z" style="fill:#fda;fill-rule:evenodd;stroke:none"/><path d="M244 2863.5c418.26 1.426 837.325-.26 1255.75.5 418.681-.76 837.643.926 1256.25-.5-137.483-816.352-271.828-1633.965-409-2450.5-141.513-45.746-282.358-94.352-423.703-140.74-105.839-35.248-211.646-70.575-317.47-105.817l-60-20a8496 8496 0 0 1-28.008-9.343c-4.68-1.543-9.347-3.083-13.982-4.729-5.086-2.015-9.193.742-14.014 2.193-139.528 46.49-279.049 93.006-418.557 139.507C931.703 319.858 792.72 367.853 653 413c-137.126 816.275-271.612 1634.71-409 2450.5m120-103v1.5h2272v-1.5c-68.931-409.09-136.257-818.54-204.874-1227.691-51.028-306.678-102.288-613.313-153.312-919.99-4.869-28.835-9.565-57.678-14.432-86.51-1.133-7.012-2.351-14.007-3.495-21.008-1.484-6.504-.056-15.285-8.94-17.157-109.703-36.573-219.416-73.135-329.12-109.701-96.009-31.978-191.992-64.023-288-96-41.971-14.027-84.002-27.963-125.969-41.994-9.552-4.304-21.398 2.4-30.56 4.946-155.047 51.948-310.255 103.285-465.433 154.805-58.187 19.4-116.394 38.801-174.566 58.195-25.476 8.525-51.019 16.959-76.48 25.505-5.454 2.642-13.186 3.29-17.14 6.618-2.1 1.795-1.737 5.77-2.555 8.884-62.19 372.917-124.31 745.877-186.485 1118.792C490.857 1998.664 428.048 2380.37 364 2760.5" style="fill:gray;fill-rule:evenodd;stroke:none"/><path d="M1112.5 1030c.774-2.946.559-7.612 0-10-2.352 2.598-3.363 6.942 0 10m303 960c4.238-4.847 1.595-14.404 2.5-21.342.707-22.08-.874-44.746.5-66.658h-3.5c.76 29.232-.926 58.885.5 88m-.5 119h2.5c2.184-30.095-1.184-61.868 1-92h-3.5zm.5 50c5.308-4.824-.142-15.96 4.5-22.5-1.513-.66-3.52-.396-5-.5.624 7.573-.791 15.53.5 23m13-1292c.744-4.153.59-10.624 0-14-2.961 3.824-3.13 10.252 0 14m120.5 590.375c1.57 1.227 5.3.398 7 .125-2.051-2.971-5.085-2.827-7-.125M1569.5 906c3.095-1.31 6.58-5.532 7.5-8-3.43.372-8.352 4.895-7.5 8m10.5 552.375c1.313 1.294 4.548.31 6 .125-.576-.726-.932-1.572-1-2.5-1.737.376-3.948 1.02-5 2.375M1598.5 876c2.763-1.046 5.864-4.757 6.5-7-3.137.42-7.508 3.894-6.5 7M1737 1898c-.56-4.909.726-10.203-.5-15-2.016 2.379-1.705 6.776-3.13 10.06-1.875 3.43.147 5.377 3.63 4.94m-4 57.25c1.934 3.595.644 8.533 3.5 11.75.687-4.167.647-10.615 0-14-.98 1.009-2.096 1.779-3.5 2zM1737.5 955c.682-4.21.651-10.404 0-15-2.792 2.06-3.282 3.587-2.392 6.494.67 2.829.305 6.19 2.392 8.506m0-65c.72-5.597.613-12.915 0-18-3.467 4.72-3.003 14.384 0 18m0 910c.774-2.946.559-7.612 0-10-2.352 2.598-3.363 6.942 0 10m0 237c.775-2.33.559-6.127 0-8-3.138 2.279-2.666 5.77 0 8m1-1247c.774-2.946.559-7.612 0-10-2.352 2.598-3.363 6.942 0 10m0 236c.775-2.33.559-6.127 0-8-3.138 2.279-2.666 5.77 0 8" style="fill:#f1d3a5;fill-rule:evenodd;stroke:none"/><path d="m1415 2136.5.5 1.5c5.146-2.254 13.233-.08 19.676-1H1574v39h2v-41h-161z" style="fill:#bfa67f;fill-rule:evenodd;stroke:none"/><path d="M1019 2598.625c3.01 2.361 6.473 4.06 9.5 6.375 28.17-23.691 56.995-47.05 80.424-75.693 41.171-48.169 72.023-104.635 94.261-163.81 35.725-94.41 46.235-195.912 50.392-295.874 4.435-108.79 1.218-217.79 2.423-326.623h482c-2.385 51.265-.948 102.693-2 154h-1.5c-36.894-28.113-74.131-55.863-111-84-20.375 19.462-38.488 41.301-58.579 60.93-7.524 2.277-16.245.22-24.055 1.07-23.53-.758-47.462.925-70.866-.5 23.516-15.991 47.5-31.576 70.895-47.796 5.903-4.074 11.728-8.207 17.553-12.379 4.365-2.849 8.276-6.798 13.592-7.649 14.756-1.088 32.484-9.313 35.96-28.176-2.754-2.024-7.631-1.485-11.496-2.271-59.216-7.159-118.216-16.86-177.504-23.229-.003 39.694-1.25 79.419-4 119-42.163-16.097-84.735-31.98-126.5-49-1.426 125.21.26 250.72-.5 376 27.486.678 55.339-1.413 81.274-11.264 12.156-4.335 24.102-9.467 35.044-16.331 4.733-3.394 11.504-7.38 11.602-14.605.206-6.941-.02-13.861.08-20.8h159v40c14.236-.478 28.602.811 42.75-1-7.807 11.45-17.752 21.905-26.163 33.008-3.731 4.283-6.975 11.367-14.137 10.972-107.486.057-214.972-.01-322.45.02 1.076 9.593 6.098 18.395 7 28h163v108h-167c1.876 8.794 4.546 17.593 7.313 26.146.113 2.701 4.268 2.787 6.111 2.834 7.574.057 15.138-.01 22.697.02H1425v126h-239c2.55 9.336 5.461 18.67 8 28h594c10.227.762 24.651-2.327 29-15.541-18.426-17.681-39.51-32.372-59.407-48.263-20.634-14.273-39.6-31.657-60.593-45.196-.761 2.786-3.901 5.374-5.767 8.221-16.229 19.715-32.124 39.689-48.336 59.404-4.344 4.012-7.712 12.325-13.287 13.069-21.836.873-43.758-.159-65.61.306v-126h154.8c14.797.404 36.373.782 39.712-15.793-5.468-8.423-16.86-15.16-23.324-21.686-24.7-20.157-50.322-39.142-75.65-58.485-1.908-1.306-4.342-3.224-6.038-4.036-10.464 11.192-19.207 23.901-29.326 35.39-8.726 12.192-20.321 22.962-28.174 35.61h-32v-108h141.6c14.326-.53 31.59 3.047 41.9-8 7.355 62.258 15.341 125.092 32.665 185.62 12.293 43.429 29.487 86.35 57.5 122.236 20.233 26.285 49.28 50.434 84.08 52.132 23.183-.361 55.493-9.202 60.664-38.614 9.767-39.8-2.96-80.31-12.185-118.634.13-41.325 5.182-82.57 6.286-123.871 2.463-24.88 1.69-50.041 4.49-74.869-2.883.04-5.75-.1-8.5-1-3.67 5.405-3.73 14.914-6.509 22.024-7.358 28.192-14.633 56.53-24.795 83.872-1.822 5.816-3.829 11.71-7.639 16.564-1.625 1.705-5.192 4.413-8.328 2.628-9.113-7.006-13.677-20.74-17.77-29.936-14.798-43.477-19.749-89.67-24.949-135.059-12.485-145.2-12.896-291.941.49-437.093 15.9-1.604 34.773-8.924 45-19.5-21.99-18.822-44.239-37.34-66.368-55.993-11.199-9.219-22.087-18.798-33.28-28.003-5.552-4.693-11.166-9.319-16.72-13.997-5.5-3.615-10.516-10.378-16.296-12.507-22.362 27.092-47.605 52.629-69.336 80h-433.8c-16.51 1.204-31.443-6.15-46.341-12.464-44.211-16.67-87.46-36.575-131.859-52.536v252.6c-.09 122.695.803 245.691-10.904 367.963-6.146 58.114-14.478 116.183-28.013 173.072-12.897 53.319-31.99 105.979-56.083 154.99M1020 1593c2.798.821 5.787 3.35 8.5 5 56.65-44.68 105.57-99.648 138.971-163.955 26.843-49.198 45.773-102.574 58.056-157.159 20.921-86.11 25.443-174.804 27.6-262.969 1.228-93.63.809-187.295.873-280.917 125.607.76 251.478-.926 377 .5-8.952 11.973-18.782 23.367-27.954 35.18-8.338 10.206-16.34 20.684-24.796 30.79-4.15 6.532-10.536 5.942-16.998 5.53H1260c1.876 8.794 4.546 17.593 7.313 26.145.113 2.702 4.268 2.788 6.111 2.835 7.574.057 15.138-.01 22.697.02H1428c-.42 25.546.003 55.64-2 79-6.269-.163-12.818-4.162-18.144-5.868C1368.394 892.253 1329.52 875.655 1290 861v503c13.182-.731 29.065.353 41-2 .654 13.676 3.944 27.228 2.998 41.044.046 23.717 1.003 47.809-4.498 71.105-1.667 8.411-3.485 16.78-5.94 24.996-2.436 6.912 5.24 12.782 9.542 17.457 17.008 19.823 48.003 21.399 68.638 6.516 20.603-13.926 30.008-41.488 25.698-65.353-9.564-43.336-45.589-74.288-81.853-95.98-.552-.402-1.063-.866-1.585-1.285 15.607-4.617 31.943-8.312 46.422-16.223 7.45-3.37 14.6-7.287 20.908-12.53 8.254-5.458 6.95-14.163 6.67-22.747h238c.05 20.57-1.983 41.064-3.361 61.549-1.226 15.066-2.578 30.112-4.941 45.044-1.569 10.166-4.014 22.235-8.365 30.687-4.014 8.535-12.082 10.892-20.169 11.509-13.355.64-26.736-.125-40.09-.18-13.363-.5-26.807.08-40.074-1.609 4.66-13.583 7.77-28.394 2.542-42.601-6.863-19.84-21.892-35.847-38.701-47.854-17.03-11.8-36.368-19.77-55.986-26.098-4.792-1.494-9.554-3.152-14.459-4.247-3.955-.717-8.295 2.462-12.396 4.3 16.343 26.239 26.763 56.45 30.468 87.156.485 6.143.544 12.3 1.191 18.42.086 5.776-1.33 11.579-.509 17.38.412 4.768 6.83 8.232 9.758 10.819 15.369 12.418 36.85 14.05 54.276 5.005 6.007-1.783 12.005-10.716 17.484-9.38 23.308 5.45 46.054 16.818 61.126 35.918 7.089 9.86 10.507 24.12 11.299 35.017 1.318 13.334 1.905 26.765 1.907 40.165 43.152-.018 91.434-7.633 123.37-39.87 15.972-14.934 23.912-35.933 29.455-56.463 5.976-22.048 8.508-44.778 10.913-67.414 1.266-8.425.528-18.704 2.762-26.253 15.622 62.534 38.972 127.583 87.806 172.597 12.379 10.587 26.708 18.936 42.42 23.426 22.84 6.474 54.994-.3 69.069-17.843 7.08-9.91 9.386-24.565 10.562-35.332 1.29-13.28.301-26.656-1.5-39.828-1.542-14.625-5.079-28.913-8.639-43.143-3.473-10.178-6.5-20.572-5.027-31.469 2.093-32.094 3.45-64.22 5.47-96.313 2.382-29.436 2.226-59.276 5.339-88.595-2.882-2.012-6.684-1.253-10-1.5-6.71 31.592-15.746 62.886-25.403 93.705-2.294 6.486-5.086 14.065-7.49 19.897-1.85 4.257-6.24 14.311-13.322 10.105-4.944-3.533-7.583-10.523-9.96-15.27-10.441-23.472-15.207-48.988-19.617-74.114-15.433-92-17.081-185.424-19.012-278.406-.437-48.46 1.553-96.962 3.456-145.363 1.066-23.36 2.65-46.67 4.545-69.962.65-5.428.087-12.37 2.373-16.955 3.24-2.749 9.253-2.244 12.948-4.064 11.573-3.246 23.19-7.98 31.482-17.073-21.904-18.717-44.024-37.241-66.194-55.637-10.986-9.497-22.263-18.683-33.375-28.028-5.456-4.773-11.051-9.35-16.625-13.972-5.554-3.676-10.768-10.268-16.306-12.863-18.56 21.282-37.307 42.41-55.815 63.73-4.098 4.62-8.053 9.374-12.288 13.873-4.151 3.986-12.683 1.607-18.883 2.397H1285.07c-8.61 1.034-16.652-1.35-24.236-5.247C1211.14 679.432 1161.851 658.84 1112 640v252.6c-.395 122.65 1.07 245.609-9.97 367.894-6.177 58.832-14.245 117.598-27.734 175.247-6.966 27.178-14.23 54.37-23.888 80.734-4.805 13.729-10.05 27.27-15.65 40.686-2.563 6.134-5.068 12.312-7.956 18.291-2.06 5.524-6.424 12.642-6.802 17.548m254-245h-14c1.626 22.756-7.319 44.399-21.55 61.778-10.778 15.34-24.926 27.769-41.087 37.03-12.76 8.677-25.587 22.63-30.498 36.202-11.13 27.63 1.827 61.99 29.447 74.13 19.993 9.118 45.004 9.568 64.125-2.146 26.362-20.303 36.989-54.958 38.736-86.958 3.174-33.606-6.79-66.821-17.09-98.247-2.21-7.435-6.077-14.303-8.083-21.789m142 642h159v-87h-159zm0 118h159v-90h-159zm2-1101h153v-50.4c-.594-5.099 1.074-11.774-1.5-15.6-12.483 2.42-25.56-.087-38.16 1H1418zm0 95h153v-51.6c-.555-5.037 1.036-11.62-1.5-15.4-12.483 2.42-25.56-.087-38.16 1H1418zm0 91h166.8c7.949-.921 18.265 1.351 24.462-1.29 8.264-7.027 13.563-16.99 21.099-24.715 6.598-8.705 14.26-16.64 20.639-25.495-12.305 2.543-24.85 7.707-37.714 8.61-7.084 1.309-14.312 1.149-21.471 1.463-6.943.275-13.959.792-20.815-.573v-20h-153zm0 88h217.2c4.215-.388 9.05.7 12.633-.969 20.198-17.538 38.184-37.652 58.542-55.031 16.735 9.044 29.105 25.733 45.625 35-1.98-12.906-2.759-26.005-4-39h-330zm82-368.672c11.182 1.828 23.61-.26 35.047.672h18.534c2.668-.41 6.484.516 8.36-1.069 2.194-1.401 3.958-3.354 5.792-5.164 8.676-7.88 16.267-16.73 24.242-25.242 8.072-8.522 17.093-16.227 24.275-25.525 5.776 2.01 9.88 7.209 15.119 10.17 33.075 24.606 66.675 48.602 99.631 73.33-6.04 6.122-14.611 11.904-21.996 14.636-2.837 1.706-9.3 1.365-9.568 4.908-1.243 32.01.226 64.194-.436 96.244v48.543c.09 6.69 1.703 15.334-7.136 19.248-5.758 3.492-11.85 6.463-17.864 9.421 23.56 18.037 47.322 35.963 70.5 54.5 1.137-6.671-1.22-13.904-.8-20.7-3.244-55.307-5.67-110.678-6.241-166.09-1.588-56.336.684-112.946-.959-169.21-12.386 5.017-26.812 1.95-39.775 3H1573c-1.15 3.589-5.797 6.779-8.17 10.564-20.84 23.223-41.28 47.234-64.83 67.764m20 415.047c15.7 15.165 27.773 33.68 36.87 53.477 3.27 7.84 6.052 17.477 7.627 25.08 1.764 6.538-.282 15.942 7.465 19.549 20.983 15.048 53.83 11.417 68-11.5 7.672-10.58 9.909-24.494 6.718-37.061-3.02-12.246-11.55-22.393-21.7-29.567-13.884-10.434-30.183-16.764-47.147-20.095-9.05-1.75-18.094-3.568-27.283-4.436-8.191-.272-20.172-2.672-26.044 1.485-1.321 1.108-3.541 2.034-4.506 3.068m122-594c31.187 24.481 64.303 46.84 94.5 72.625h1.5c-.029-24.357-.304-48.686 1-73-32.252.57-64.854-.694-97 .375m24 1428.878c25.51 22.29 55.85 40.932 80.5 64.747-8.72-105.784-10.966-212.703-10.5-319h-1.5c-8.064 6.938-20.263 10.814-29.5 13v204.6c-.228 5.575.466 11.538-.713 16.963-4.41 5.582-11.662 7.748-17.626 11.119-6.513 2.996-14.324 6.533-20.661 8.318z" style="fill:#000;fill-rule:evenodd;stroke:none"/></svg>