<svg xmlns="http://www.w3.org/2000/svg" width="3000" height="3000"><path d="M363 2763h2274c-116.777-706.336-235.544-1412.426-352.792-2118.701-7.351-44.171-14.733-88.332-22.082-132.49-.76-5.347-1.88-10.63-2.64-15.97-.062-6.502-4.856-8.386-10.16-9.572-81.497-27.15-162.975-54.317-244.46-81.467-142.336-47.478-284.708-94.881-427.04-142.357-13.532-4.49-27.037-9.017-40.56-13.514-6.477-2.17-12.972-4.309-19.44-6.486-6.235-1.594-13.427-5.493-19.495-5.034-100.387 32.434-200.209 66.92-300.466 99.791-150.35 50.002-300.828 99.614-451.039 150.05-5.982 1.452-6.275 6.662-6.798 11.742-24.43 146.388-48.84 292.799-73.214 439.189C565.92 1546.494 463.462 2154.662 363 2763m645-517.5c2.174 1.771 5.147 5.904 7.69 5.954 3.246-1.049 6.167-2.727 9.155-4.39 24.683-12.774 48.82-26.726 72.275-41.63 11.631-7.164 22.998-14.787 34.333-22.417 5.65-4.123 11.523-7.973 17.22-12.008 5.716-2.839 12.115-9.892 17.327-11.009v446c21.946-.173 44.12.12 65.741-4.161 14.97-3.443 30.146-6.677 44.494-12.328 9.863-3.977 21.916-8.775 29.606-14.943 6.245-5.457 3.46-17.474 4.159-26.218v-448.67c.218-3.919-.842-9.682 3.424-10.618 8.6-3.469 21.456-6.15 26.576-17.39-5.37-4.11-15.008-5.203-22.078-8.846-7.52-2.153-15.852-6.535-22.922-7.826.243-3.57 4.054-6.251 6.233-8.733 9.99-9.258 20.028-18.426 29.37-28.37 7.43-6.98 15.315-13.486 22.108-21.144 10.529-10.766 20.415-22.181 31.083-32.782 5.681-4.378 16.393.095 23.936-2.92 5.905-1.504 14.377-4.506 17.27-12.051-55.335-31.602-110.789-64.225-165.5-97-16.266 36.554-34.26 72.57-53.815 107.51-28.054 50.387-57.535 100.144-90.388 147.562-31.961 48.929-69.174 94.356-107.297 138.428m18-706c1.926 8.584 5.998 18.464 7 26.5h892.2c18.234.046 41.75 3.134 49.8-14.5-19.553-18.908-41.911-34.674-62.628-52.221-21.428-16.41-41.514-35.268-63.872-50.279-15.343 18.549-29.234 38.259-44.256 57.055-5.493 7.215-11.104 14.298-16.604 21.493-2.54 3.04-4.565 6.522-7.387 9.321-3.208 2.821-7.821 1.97-11.793 2.131H1576v-3c19.771-12.633 38.016-28.788 56.309-43.593 27.496-23.691 55.025-47.757 79.529-74.596 12.738-12.933 24.866-26.41 36.755-40.12 5.857-8.86 16.098-5.242 24.754-8.705 7.93-2.651 15.526-8.546 17.653-16.986-50.156-11.45-99.843-25.56-150-37v-3h230.4c8.938-.284 19.745.818 27.712-1.601 3.56-1.042 6.855-2.823 9.445-5.5 2.34-2.364 5.35-6.061 2.744-8.676-37.268-34.196-80.15-61.984-119.801-93.223-12.003 13.093-22.272 27.698-33.697 41.282-10.394 14.145-23.367 27.051-32.803 41.718h-155v-64c7.935-1.214 16.048-3.12 23.036-7.203 7.766-4.364 10.203-11.106 12.964-18.297-58.415-5.843-117.48-8.043-176-13.5v103h-326v1.5c2.548 8.106 4.85 16.287 7 24.5h156c12.65 32.572 26.274 65.058 34.07 99.299 6.8 25.732 11.595 52.085 12.63 78.711.17 4.383-.349 9.896 1.251 14.807 10.768 13.265 29.888 21.917 44.226 26.69 26.537 6.798 56.638-3.218 72.628-25.91 17.869-21.457 21.282-51.695 11.298-77.24-10.792-31.354-36.739-54.735-63.035-73.245-27.446-18.452-58.62-30.484-90.068-40.112v-3h321c-3.888 39.184-13.076 77.696-21.04 116.175-8.367 37.362-18.131 74.419-29.96 110.825h-534zm9 401.958c2.434 2.888 4.79 5.885 7.5 8.542 31.955-13.915 64.907-26.363 95.84-42.681 45.883-23.69 91.342-48.257 133.687-77.998 21.348-14.266 42-29.549 62.342-45.201 5.123-4.099 10.558-7.785 15.444-12.16 3.935-2.94 7.538-6.315 11.479-9.222 6.904-3.625 15.353.458 22.61-1.71 7.37-1.036 14.165-5.19 18.098-11.528-26.618-15.898-52.578-33.076-78.944-49.393-12.894-8.23-25.839-16.41-38.77-24.566-13.47-6.872-25.245-18.044-39.286-23.541-24.768 54.147-59.149 103.526-93.363 152.017-35.247 48.732-73.54 95.494-116.637 137.441M1080 1240c29.7-.52 60.757.718 88.941-10.77 12.593-4.665 26.388-13.15 36.01-20.76 6.67-5.284 4.926-14.16 5.049-20.935V1164h306v3c-1.636.259-2.885 1.33-4 2.5 1.749 2.57 4.215 6.076 5 8.5 34.278-10.017 67.696-24.354 99.835-39.928 23.858-11.7 46.904-24.977 68.891-39.906 8.317-5.25 15.837-11.607 23.876-17.243 4.552-3.47 7.386 1.05 9.581 4.05 41.77 49.509 93.195 90.35 148.317 124.027 9.485-27.351 21.57-55.088 41.894-76.532 19.864-22.623 47.184-38.292 76.606-44.468-.02-3.26 1.775-9.136-1.887-9.9-3.287-1.617-6.94-2.397-10.416-3.457-35.838-11.456-71.18-24.539-105.471-40.035-12.595-6.405-25.75-11.707-38.229-18.315-5.298-3.28-11.141-5.558-16.509-8.701-4.806-2.997-10.277-4.986-14.524-8.807-1.674-4.673 6.368-9.954 7.869-13.57C1856.184 921.671 1892.04 847.613 1913 770c11.72-2.191 28.512-3.224 37-16.5-40.544-32.48-79.377-67.697-120.328-99.5-7.826 8.426-17.139 18.866-25.594 25.24-8.36 5.988-13.377 15.51-21.053 22.235-6.607 6.341-12.806 13.134-19.533 19.344-3.488 2.865-8.3 2.063-12.545 2.181H1549c2.872 7.907 5.721 19.57 8.915 25.71 4.001 2.454 10.488.552 14.852 1.29H1591c7.783 48.395 16.483 96.852 31.071 143.748 9.516 34.582 23.093 67.785 38.406 100.142 2.635 5.762 6.62 10.914 8.657 16.957 1.427 5.185-5.039 10.577-7.477 15.694-26.362 38.44-57.952 73.182-94.086 102.579-4.368 3.391-10.134 10.205-15.024 5.731-30.25-26.718-61.675-52.13-93.547-76.851-19.41 26.201-40.665 52.096-59 79h-12v-124h15v28c35.058.41 70.334-4.867 102.714-19.04 7.49-2.903 17.725-5.54 16.286-16.328V890c6.887-.834 13.66-2.699 19.807-5.917 5.56-3.58 14.368-7.19 16.193-13.083-37.883-25.371-73.8-55.206-111.5-81-9.879 9.923-18.748 20.82-28.858 30.508-4.598 3.93-9.479 10.094-14.037 15.025-1.848 2.663-5.664 4.769-7.436 6.65-1.92 2.689-3.86 5.372-8.169 4.817v-95h127.2c11.057.113 28.103-.323 32.8-14.54-35.599-32.182-73.148-62.74-111.5-91.46-19.233 24.56-38.207 49.344-57.446 73.905-3.984 6.296-10.576 5.234-17.07 5.095h-76.138c-18.985-.004-37.95.005-56.92-.003-12.98-.498-24.421-8.339-36.793-11.464-37.449-13.587-74.598-28.267-112.133-41.533zm130-393h56v-95h-56zm0 140h193V873h-193zm0 150h56v-124h-56zm186 877h271v400.2c-.428 8.323 2.538 19.296-7.455 25.727-6.953 4.145-16.952 2.749-23.93 2.99-58.557-2.526-117.07-5.802-175.615-8.917.559 3.328-1.074 9.304 2.377 10.591 3.365.707 6.806 1.33 10.215 1.83 38.554 6.072 77.675 18.131 107.588 44.403 30.03 26.052 34.95 68.302 38.32 105.176 53.614-5.388 113.493-10.29 155.967-48.353 16.063-13.218 25.427-32.277 31.073-51.783 12.163-37.826 9.755-77.89 9.46-116.916V2014h131.4c11.153.262 27.557-.813 32.6-14.656-40.677-36.812-83.333-71.526-126.5-105.344-22.901 30.327-45.842 60.708-68.835 90.967-2.496 3.309-6.792 3.164-10.656 3.033H1389c1.37 8.866 5.072 17.272 7 26m50-259.5c1.926 8.584 5.998 18.464 7 26.5h444c18.651-.809 43.858 3.724 52-14.5-39.172-35.212-80.166-69.015-121.5-101.5-20.054 24.717-38.315 50.918-57.812 76.076-1.856 2.484-3.725 4.99-5.663 7.399-3.986 6.443-10.067 6.002-16.523 5.525H1446zM1769 750h-163c1.726 11.402 7.944 23.956 11.004 33.996 14.184 38.226 33.854 74.676 58.645 107.078 6.142 8.21 13.093 15.693 19.745 23.46 5.205 5.544 11.426 12.131 16.81 16.557 2.931 1.89 4.593-3.614 5.47-5.203 8.487-18.534 15.309-37.805 21.883-57.06 12.617-38.75 24.02-78.339 29.443-118.828" style="fill:#fda;fill-rule:evenodd;stroke:none"/><path d="M244 2863.5c418.26 1.426 837.325-.26 1255.75.5 418.681-.76 837.643.926 1256.25-.5-137.483-816.352-271.828-1633.965-409-2450.5-141.513-45.746-282.358-94.352-423.703-140.74-105.839-35.248-211.646-70.575-317.47-105.817l-60-20a8496 8496 0 0 1-28.008-9.343c-4.68-1.543-9.347-3.083-13.982-4.729-5.086-2.015-9.193.742-14.014 2.193-139.528 46.49-279.049 93.006-418.557 139.507C931.703 319.858 792.72 367.853 653 413c-137.126 816.275-271.612 1634.71-409 2450.5m120-103v1.5h2272v-1.5c-68.931-409.09-136.257-818.54-204.874-1227.691-51.028-306.678-102.288-613.313-153.312-919.99-4.869-28.835-9.565-57.678-14.432-86.51-1.133-7.012-2.351-14.007-3.495-21.008-1.484-6.504-.056-15.285-8.94-17.157-109.703-36.573-219.416-73.135-329.12-109.701-96.009-31.978-191.992-64.023-288-96-41.971-14.027-84.002-27.963-125.969-41.994-9.552-4.304-21.398 2.4-30.56 4.946-155.047 51.948-310.255 103.285-465.433 154.805-58.187 19.4-116.394 38.801-174.566 58.195-25.476 8.525-51.019 16.959-76.48 25.505-5.454 2.642-13.186 3.29-17.14 6.618-2.1 1.795-1.737 5.77-2.555 8.884-62.19 372.917-124.31 745.877-186.485 1118.792C490.857 1998.664 428.048 2380.37 364 2760.5" style="fill:gray;fill-rule:evenodd;stroke:none"/><path d="M1313.5 1497c.805-2.031.528-5.342 0-7-3.136 2.302-2.45 4.95 0 7m80.25-652c2.318-.96 4.871-4.012 5.25-6-2.549-.328-6.594 4.007-5.25 6m17.75-19c2.234-.424 4.256-3.304 4.5-5-2.458-.46-5.571 3.038-4.5 5M1789 692.344c.044.63.243 1.19.656 1.656.507-.01.962-.166 1.344-.5l7.475-7.475c2.186-2.392 5.862-5.32 6.525-8.025-7.088.922-10.634 10.938-16 14.344" style="fill:#f1d3a5;fill-rule:evenodd;stroke:none"/><path d="M1006 2245.438c2.552 3.034 5.843 5.462 8.333 8.562 52.429-26.603 103.09-57.718 150.167-93 1.426 148.511-.26 297.402.5 446 22.239-.064 44.705.1 66.645-3.928 15.225-3.496 30.625-6.659 45.223-12.407 10.078-4.158 22.583-8.898 30.337-15.441 6.033-5.8 2.822-18.151 3.795-27.074v-398.884c.015-17.4-.018-34.8.01-52.192.143-1.851.161-4.545.992-5.878 9.484-4.586 25.783-6.736 29.998-21.196-15.578-4.623-30.52-11.635-46-16.5 10.445-9.947 21.266-19.508 31.102-30.102 7.497-7.71 15.698-14.65 23.268-22.268 11.508-11.326 21.677-23.88 33.226-35.161 5.708-5.377 16.996-1.235 25.134-3.918 7.715-1.19 14.182-5.983 18.27-12.551-27.527-17.113-56.09-32.797-83.893-49.508a9616 9616 0 0 0-42.879-25.168c-6.997-4.042-14-8.118-20.911-12.288-6.848-3.147-15.223-10.045-21.317-11.536-15.236 37.382-34.789 73.05-53.887 108.57-28.076 50.32-57.5 100.026-90.396 147.35-32.19 48.882-69.166 94.638-107.717 138.517M1032 1567h895.8c10.419-.254 21.018.7 31.302-1.341 6.236-2.065 15.258-5.24 16.408-14.373-3.087-5.66-10.326-10.254-14.54-14.307-18.422-15.433-37.448-30.115-55.946-45.45-18.712-14.973-36.816-30.877-56.524-44.529-15.5 18.2-28.996 38.023-44.117 56.521-5.49 7.179-10.901 14.42-16.568 21.454-4.539 6.198-8.206 14.388-18.557 13.025H1578.5l-1.5-.5c38.842-28.41 76.123-59.455 110.414-93.297 9.38-7.995 17.943-16.961 26.116-26.152 12.955-12.974 25.072-26.71 37.068-40.55 5.221-7.377 17.873-4.145 25.055-7.994 6.843-2.841 15.805-8.62 16.347-18.507a12524 12524 0 0 1-150-37.5c46.974-1.426 94.201.26 141.216-.5h71.348c11.784-.032 23.557.04 35.33-.021 10.786.609 21.339-5.175 25.106-15.479-19.217-18.079-40.715-33.6-61.46-49.81-21.316-15.151-42.016-32.094-63.54-46.69-19.737 29.111-46.244 54.893-66 84h-153v-62c14.654-2.255 33.718-6.99 36-28-59.325-4.34-118.682-8.664-178-13v103c-108.929.76-218.151-.926-327 .5 3.29 8.883 5.243 18.418 8 27.5h156c12.65 32.572 26.274 65.058 34.07 99.299 6.578 25.68 11.75 51.922 12.658 78.48 1.1 4.92-.925 11.813 1.552 15.464 10.862 12.947 29.637 21.589 43.897 26.265 26.788 6.86 57.419-2.236 73.983-25.075 17.425-20.74 21.938-50.243 13.371-75.578-9.632-32.76-35.677-57.592-62.801-76.542-27.475-20.093-60.157-30.502-91.73-41.813 106.21-1.426 212.736.26 319-.5-4.674 38.776-12.938 77.068-21.271 115.174-8.339 37.005-17.972 73.765-29.729 109.826h-534c.514 10.014 6.289 19.042 7 29m372 182.5c-26.51-16.95-53.507-33.302-79.944-50.393-25.702-17.408-53.058-32.434-78.556-50.107-23.03 47.647-51.438 92.634-81.891 135.862-22.862 32.403-46.9 63.97-72.433 94.321-9.785 11.492-19.775 22.733-30.212 33.627-4.179 5.311-9.262 9.823-13.94 14.665-4.027 4.365-9.3 8.661-12.537 13.445.37 4.736 6.768 10.93 11.63 8.593 41.013-15.983 80.753-34.646 119.759-54.955 37.534-19.647 73.948-41.38 108.85-65.392 19.807-13.17 38.824-27.477 57.783-41.813 9.67-7.375 19.358-14.721 28.529-22.71 5.495-4.53 11.924-1.213 18.175-1.906 6.084-.26 12.147-1.762 17.232-5.213 3.155-2.041 5.172-5.253 7.555-8.024M1079 1241c30.04-.416 61.387.912 89.985-10.393 12.793-4.673 26.75-13.148 36.58-20.782 7.016-5.278 5.445-14.309 5.435-21.29V1165h302.5l1.5.5c-4.084 1.292-4.222 4.464-2.215 7.52 1.39 2.347 3.224 4.981 4.715 6.98 69.42-23.561 137.477-54.495 195.5-100 42.98 52.612 96.997 95.304 154.5 131h1.5c7.47-28.543 21.973-55.414 41.394-77.532 19.864-22.623 47.184-38.292 76.606-44.468.383-3.336.565-8.078 2-10.5-65.238-21.538-130.948-45.19-190-81 25.852-32.422 49.78-66.821 67.907-104.296 20.12-38.872 35.537-80.05 47.093-122.204 12.306-2.01 29.314-3.627 38-17.5-20.196-17.223-40.826-33.973-61.111-51.09-20.93-16.057-39.963-35.178-61.389-50.41-15.482 18.053-33.8 33.563-49.975 50.975-6.52 5.748-12.951 14.058-19.56 18.555-70.58 1.341-141.352-.244-211.965.47.936 8.512 5.399 16.297 7.253 24.605 1.6 5.32 7.695 4.37 11.794 4.395H1590c11.89 74.135 27.446 148.47 57.489 217.682 3.418 8.491 7.741 16.553 11.403 24.92 1.483 3.615 3.588 6.893 5.482 10.282.409 2.88 5.112 6.862 3.547 10.143-14.362 23.82-32.319 45.407-50.656 66.208-5.234 4.82-9.573 10.418-14.498 15.498-7.53 6.992-16.491 14.997-23.353 21.45-7.267 5.245-15.133 14.618-24.086 18.817-30.502-28.507-64.134-54.232-96.828-80-19.223 26.924-41.156 52.58-59.5 80h-10v-122h13v28c35.707.608 71.714-4.636 104.714-19.04 7.49-2.903 17.725-5.54 16.286-16.328V891c13.461-1.788 29.284-8.776 37-19-37.147-28.677-75.946-55.782-113.5-84-8.843 9.895-19.905 20.912-28.086 29.91-4.562 5.152-9.853 9.586-14.346 14.786-4.242 4.338-9.823 12.278-15.068 13.304v-93h126c12.323-.029 28.723-.41 33.053-12.731 2.025-4.264-3.982-8.513-6.57-10.887-22.906-20.13-46.33-39.702-70.17-58.718-11.615-8.86-23.06-18.023-34.813-26.664-19.709 24.114-37.967 49.41-57.5 73.665-3.711 6.71-9.727 7.05-16.216 6.335h-76.738c-19.183-.04-38.372.048-57.552-.026-13.173-1.108-24.782-9.087-37.474-12.179-37.205-14.189-74.83-27.701-112.02-41.795zm132-395h54v-93h-54zm0 140h191V874h-191zm0 150h54v-122h-54zm176 851.5c2.995 9.002 5.175 18.43 8 27.5h271v399c-.204 8.39 2.303 19.553-8.305 25.46-7.236 3.606-17.124 2.205-24.174 2.369-58.19-2.294-116.325-6.262-174.521-8.829.806 3.916-1.485 10.818 2.357 12.577 4.25.87 8.603 1.599 12.904 2.304 38.02 6.094 76.46 18.422 105.689 44.644 13.772 12.551 23.58 29.09 28.216 47.151 5 18.697 7.965 37.979 8.834 57.324 30.332-3.463 61.271-4.67 90.73-13.659 42.84-10.004 85.352-38.618 97.667-83.046 15.247-47.923 9.493-99.158 10.603-148.535V2015h129.6c11.009-.04 26.993.252 33.366-12.632 1.807-4.513-3.497-8.37-6.482-10.986-23.978-20.523-47.56-41.502-72.36-61.061-15.953-12.666-31.518-25.862-47.624-38.321-23.362 30.176-45.992 60.944-69.21 91.229-4.4 5.763-15.122 3.036-22.668 3.771H1387zm57-234.25c2.96 8.62 6.589 21.295 8 28.75h434.4c11.01-.063 22.026.079 33.035-.047 8.392-.472 17.707-.99 24.652-6.387 2.557-2.033 4.98-5.177 5.121-8.229 1.114-3.12-4.15-5.864-5.736-7.732-37.576-33.45-76.679-65.24-115.972-96.605-20.64 24.601-38.613 51.443-58.497 76.666-4.275 4.07-6.845 11.389-11.857 12.888-104.303 1.271-208.802-.23-313.146.446zM1607 751.5c20.634 66.97 54.87 131.1 106.5 179.5 13.737-27.707 23.344-57.773 32.747-87.223 9.005-30.462 16.618-61.425 21.753-92.777h-161z" style="fill:#000;fill-rule:evenodd;stroke:none"/></svg>