<svg xmlns="http://www.w3.org/2000/svg" width="3000" height="3000"><path d="M326 2802.5v1.5h2347c-.373-12.822-4.058-25.348-5.508-38.051-117.27-703.542-234.496-1407.1-351.766-2110.637-7.344-43.997-14.655-88.002-22-132-3.6-21.02-6.91-42.124-10.625-63.12-1.141-5.243-8.647-5.77-12.81-7.59-158.488-52.846-316.994-105.666-475.472-158.502-59.502-19.835-119.024-39.669-178.52-59.495-26.013-8.653-52-17.351-78-26-12.476-3.645-24.567-8.834-37.16-12.04-6.368-.025-12.224 3.635-18.313 4.993-92.992 31.026-186.022 61.963-279 93A1893485 1893485 0 0 0 785.82 433.9c-17.522 5.819-35.005 11.685-52.52 17.495-3.82 1.309-7.668 2.508-11.462 3.872-7.078 2.018-5.509 14.447-7.54 19.93a1026382 1026382 0 0 1-55.17 330.994C547.67 1471.398 438 2137.571 326 2802.5M1012 980h937.8c10.256-.212 22.653.893 31.774-2.058 6.978-1.588 19.15-8.726 12.872-15.878-20.775-20.364-44.089-38.044-66.311-56.755-11.047-9.36-22.675-18.037-33.815-27.263-10.673-7.166-20.615-18.093-33.32-26.046-23.131 34.497-52.023 66.357-75 101h-182v-2c32.398-21.292 65.622-42.373 96.074-66.65 15.715-11.91 30.673-24.742 45.46-37.744 4.16-2.6 7.372-8.793 11.797-9.284 12.866-1.354 31.484-2.64 35.669-21.322-57.07-11.395-113.862-25.089-171-36v-3h271.2c14.997-.002 30.003.002 44.998-.001 11.398.329 27.036-1.926 33.802-15.499-45.88-36.31-91.036-74.652-139.5-107.5-14.642 18.1-28.823 36.599-43.586 54.61-5.511 6.738-10.812 13.66-16.323 20.397-4.888 5.883-9.393 12.093-14.435 17.839-2.797 2.7-6.968 2.04-10.653 2.154H1574V649c14.983-.307 35.607-8.912 37-28-63.742-2.96-127.295-9.431-191-13v141h-362c.898 9.604 5.945 18.415 7 28h187c16.05 30.177 30.327 62.61 35.296 96.905 1.615 8.966 2.328 18.08 3 27.16 1.136 6.992.275 13.98.068 20.96.11 4.219 6.138 6.877 9.3 9.975 10.86 7.895 22.964 15.328 36.336 18v3h-331c1.032 9.249 5.44 17.852 7 27m7 1579.25c2.462 5.107 2.804 11.16 4.79 16.491 1.236 3.4 1.747 9.81 5.741 9.917 13.9.971 27.932-.173 41.848.342h866.581c11.78-.416 23.795.893 35.435-1.428 4.58-.829 8.336-3.881 12.24-5.935 1.713-3.148 6.15-6.564 1.686-10.45-48.914-40.339-99.578-79.444-150.321-117.187-15.459 17.922-29.32 37.428-44.488 55.65-10.96 14.018-22.194 27.852-33.158 41.858-2.07 2.559-4.36 5.761-6.614 7.78-2.39 2.194-6.95 1.55-10.488 1.712H1580v-396h296.4c10.838.212 26.707-2.394 30.6-16-47.27-37.347-94.756-77.093-144-112-23.197 27.443-44.887 56.423-67.637 84.29-5.462 6.385-10.392 16.882-20.91 15.71H1580v-307.2c-.574-13.814.908-30.223-1-42.8h297.6c12.608-.006 25.228.008 37.835-.004 8.787.406 20.176-.47 26.62-9.98 2.979-3.802-.341-7.209-3.705-9.504-46.81-39.27-96.45-75.013-143.85-113.512-19.086 22.11-35.77 46.228-54.453 68.68-7.616 10.207-15.67 20.099-23.49 30.145-1.849 2.45-3.741 4.863-6.303 6.592-216.546 2.421-433.722-1.228-650.254 1.083 2.23 3.464 2.736 9.207 4.502 13.711 1.098 4.465 3.267 9.541 3.498 13.789h347v350c-105.929.76-212.151-.926-318 .5 3.171 8.592 5.004 17.818 8 26.5h310v397h-395zM1136 1472c18.44-.11 37.066.305 55.275-3.133 25.195-4.458 49.76-12.842 72.595-24.316 5.301-2.877 11.355-6.77 15.486-10.458 8.121-6.604 5.045-20.378 5.644-29.401V1373h129c.01 32.665-.255 65.343.737 97.994.455 21.41 5.095 47.365 15.423 64.398 17.843 28.569 53.162 37.952 84.421 41.62 35.724 5.095 71.865 4.14 107.835 3.988 98.85-1.445 198.74 4.871 296.9-10.28 21.267-3.213 47.158-11.124 61.9-24.878 11.481-12.526 16.328-30.92 12.338-47.535-6.095-26.956-33.763-36.61-54.365-44.755-2.835-1.099-1.98-6.458-2.824-8.726-.894-24.133-1.54-48.265-2.593-72.383-.246-12.163-.763-24.291-.772-36.443h-8c-15.88 35.88-33.139 71.627-54.484 104.647-18.486 31.147-57.9 24.82-85.416 25.353h-152.196c-12.701-.414-25.475.557-38.148-.427-8.065-.856-17.295-3.334-22.09-10.576-3.879-5.883-3.792-13.125-3.666-19.855V1373h136v45c23.694.059 47.652-.026 70.907-5.199 16.512-3.566 32.793-8.168 48.793-13.54 10.705-4.491 24.95-7.655 33.406-14.449 3.11-3.147 1.278-9.773 1.894-14.51V1108c13.067-2.811 25.894-8.39 35-18.5-45.148-32.904-89.41-67.46-134.5-100.5-16.787 19.715-35.903 37.432-52.638 57.202-3.734 4.133-8.24 8.994-12.194 12.228-2.377 1.861-6.115 1.452-8.73 1.57h-368.15c-8.641-.542-19.09.856-26.891-.942-52.156-18.999-103.504-40.874-155.897-59.058zm149-268h129v-117h-129zm0 142h129v-115h-129zm19-567.5v1.5c44.072 7.169 90.172 24.865 118.883 60.723 14.265 18.707 17.72 44.913 7.604 66.227-4.892 10.168-11.569 19.76-20.386 26.946-4.584 3.333-9.13 6.779-14.08 9.545-3.527 2.937-11.577 3.749-13.021 7.559 1.828 2.461 6.392 1.786 8.78 2h143.581c9.183-.496 20.13.634 28.5-.413 3.613.011 4.085-6.565 5.334-8.768C1585.87 889.308 1597.12 833.237 1606 777h-302zm265 425.5h136v-117h-136zm0 142h136v-115h-136z" style="fill:#fda;fill-rule:evenodd;stroke:none"/><path d="M204 2906.5c431.66 1.426 864.125-.26 1295.95.5 431.946-.76 864.184.926 1296.05-.5-71.347-421.454-140.17-844.031-211.186-1265.681C2515.49 1219.807 2443.894 799.05 2375 378c-18.825-4.147-36.622-12.377-55.173-17.557-141.343-47.107-282.688-94.208-424.008-141.343-105.996-35.346-212.02-70.658-318-106l-60-20c-4.743-1.483-9.392-3.202-14.133-4.67-4.689-1.596-9.296.594-13.846 2.121-144.162 48.092-288.385 96.1-432.543 144.19-72.152 24.045-144.327 48.113-216.478 72.159-35.996 12.013-72.02 23.992-108 36-18 6.028-36 11.971-54 18-9.01 3.004-18.013 5.972-27 9-8.742 2.234-18.56 7.118-26.819 8.1-68.995 421.677-140.705 843.07-210.109 1264.703C344.003 2063.481 275.132 2486.22 204 2906.5m123-104c781.355 1.426 1563.485-.26 2345 .5-118.785-721.214-240.618-1442.068-360.03-2163.199-7.528-45.17-15.046-90.339-22.588-135.492-1.756-10.718-3.574-21.44-5.367-32.15-1.463-5.102-.632-13.609-5.65-15.42-82.419-27.818-165.08-54.96-247.546-82.639-144.35-48.044-288.615-96.253-432.954-144.3-27.19-9.095-54.376-18.14-81.566-27.195-6.024-1.707-14.13-5.746-19.294-4.368-99.967 33.09-199.81 66.647-299.74 99.834a5130220 5130220 0 0 1-448.968 149.67c-9.274 3.513-19.03 5.778-28.13 9.725-3.665 1.962-2.298 9.57-3.876 12.727-22.54 135.51-45.194 271.003-67.739 406.508C540.73 1518.187 435.508 2161.522 327 2802.5" style="fill:gray;fill-rule:evenodd;stroke:none"/><path d="M1378 953c2.578-.167 5.731.334 8-.5-.812-.868-1.722-1.93-1-3-2.288-.885-4.699.466-7 .5zm201 1182h103v-2h-101v-327.6c-1.025-6.614 1.525-15.322-1.5-20.4-1.426 116.31.26 233.5-.5 350m0 424h172v-2h-170c.76-131.503-.926-263.679.5-395h-2.5z" style="fill:#bfa67f;fill-rule:evenodd;stroke:none"/><path d="M1066 1784.5c.03.55.186 1.057.5 1.5H1413v327.6c-.984 6.858 1.317 15.423-1 20.9.972.384 1.963.51 3 .5v-351c-116.173.76-232.997-.926-349 .5" style="fill:#7f6e55;fill-rule:evenodd;stroke:none"/><path d="M1303 780c1.003.008 2.19-.024 3-.5-.522-.544-.76-1.325 0-2-.9-.445-2.09-.511-3-.5z" style="fill:#a6906f;fill-rule:evenodd;stroke:none"/><path d="M1003 952.5c2.63 9.466 5.55 18.965 8 28.5h941.4c10.534-.208 21.495 1.03 31.64-2.54 7.453-2.047 18.358-9.993 11.907-16.955-42.32-39.792-89.522-74.2-133.947-111.505-13.914 16.1-25.566 34.333-39.069 50.818q-9.686 12.782-19.241 25.643c-5.033 7.81-14.077 16.55-18.69 25.539-59.903-.76-120.209.926-180-.5 33.21-20.421 65.59-42.612 96.475-66.475 15.992-11.904 30.886-25.13 45.918-38.155 3.704-3.132 7.322-8.284 12.05-8.743 13.912-.708 31.437-4.114 35.557-23.127-57.44-11.604-114.652-24.484-172-36.5 60.292-1.426 120.702.26 181.01-.5h91.172c15.212-.017 30.387.02 45.591-.011 12.648.162 29.838-4.143 32.227-17.989-23.967-16.713-45.282-38.256-69.433-55.046-23.43-17.977-47.086-35.755-71.067-52.954-14.887 17.628-28.61 36.244-43.298 54.032-11.242 13.21-21.234 27.555-32.808 40.449-2.248 2.287-7.071 1.084-10.491 1.519H1575v-98c15.144-.955 36.45-8.215 37-30-64.426-2.697-128.603-9.928-193-13v141h-352.8c-3.34.145-7.625-.418-10.2 1.5 3.114 8.89 5.998 20.055 8 28.5h187c16.05 30.177 30.327 62.61 35.296 96.905 1.707 8.87 2.317 17.907 2.906 26.896 1.235 6.939.212 13.903.044 20.845.285 4.6 6.042 7.213 9.024 10.048 10.85 8.686 23.451 14.874 36.73 18.806-110.592 1.426-221.378-.26-332 .5zm989 1617.953c-24.79-21.789-51.192-41.668-77.124-62.04a3922 3922 0 0 0-39.41-30.315c-6.779-4.85-12.985-10.5-19.888-15.166-6.512-3.984-12.73-11.244-19.25-13.932-14.755 18.683-29.485 37.392-44.326 56-10.951 14.087-22.222 27.933-33.239 41.966-3.935 5.258-7.456 11.941-16.17 11.034H1580v-395h256.8c14.22-.003 28.43.004 42.638-.002 10.375.118 27.257-3.766 28.562-17.998-47.926-37.608-95.573-78.063-145.672-113-22.554 28.354-45.305 56.556-67.737 85.007-5.75 6.877-11.724 17.745-20.388 16.991-31.409.006-62.8-.001-94.203.002v-349h329.4c12.4.28 29.364 1.563 35.6-15.5-49.445-41.8-101.886-81.032-153-120.5-7.4 12.197-18.338 22.79-26.455 34.666-16.616 21.585-33.766 42.726-50.323 64.34-1.941 2.224-3.902 5.213-6.154 6.769-5.457 2.434-13.785.424-19.612 1.225H1058c1.525 9.912 6.48 19.078 8 29h348v349h-319c1.652 9.897 5.638 19.292 8 29h310v395h-395c1.68 8.49 4.86 18.374 7.078 25.984 1.405 4.728 10.273 2.214 13.516 3.016h906.164c15.158-.225 39.827 3.562 47.242-16.547M1135 1473c18.497.027 37.123.329 55.425-2.792 25.392-4.535 50.384-12.409 73.408-24.14 5.53-2.886 11.814-6.804 16.116-10.597 8.494-6.582 5.619-20.536 6.051-29.78V1374h127c.01 32.665-.255 65.343.737 97.994.455 21.41 5.095 47.365 15.423 64.398 17.843 28.569 53.162 37.952 84.421 41.62 35.724 5.095 71.865 4.14 107.835 3.988 98.64-1.473 198.288 4.78 296.262-9.92 21.504-3.053 47.674-10.587 63.11-23.816 12.388-12.12 17.544-30.488 14.468-47.489-3.885-27.897-31.87-39.645-52.922-47.234-6.168-1.764-4.595-12.416-5.332-17.244-.052-21.045-1.773-42.04-2.183-63.065-.252-12.753-.804-25.483-.819-38.232h-10c-15.805 35.565-32.855 71.072-53.961 103.872-17.805 30.979-56.178 26.019-83.542 26.128h-150.996c-12.566-.262-25.175.336-37.725-.224-8.343-.465-17.07-2.717-22.926-9.112-4.408-5.327-5.085-12.517-4.85-19.137V1374h134v45c24.156.079 48.587.09 72.315-5.062 16.714-3.62 33.192-8.205 49.385-13.677 5.885-1.862 11.717-3.89 17.391-6.298 5.033-2.149 10.472-3.68 14.867-7.076 4.193-3.078 2.784-9.855 3.042-14.385V1109c13.647-2.784 26.65-8.96 36-19.5-45.378-34.306-91.208-68.08-136.5-102.5-17.185 19.559-35.898 37.737-52.994 57.375-3.651 4.459-7.816 8.516-12.014 12.445-4.222 3.408-11.972 1.675-17.948 2.18h-363.352c-8.233-.024-18.298.832-25.355-2.463-51.4-19.128-102.334-39.784-153.837-58.537zm151-270h127v-115h-127zm0 142h127v-113h-127zm18-566.625c44.425 8.493 92.834 24.976 121.085 63.08 13.579 19.575 16.38 46.398 5.73 67.896-9.612 21.27-29.832 35.936-51.815 42.149 59.37 1.426 118.94-.26 178.345.5 9.421 1.298 10.585-7.063 12.06-13.447 14.034-45.55 23.462-92.422 31.867-139.273 2.236-6.764 1.494-15.278 3.728-20.78-50.175-1.426-100.704.26-150.94-.5-49.94.57-100.224-.694-150.06.375M1570 1203h134v-115h-134zm0 142h134v-113h-134z" style="fill:#000;fill-rule:evenodd;stroke:none"/></svg>