<svg xmlns="http://www.w3.org/2000/svg" width="3000" height="3000"><path d="M326 2802.5v1.5h2347c-.373-12.822-4.058-25.348-5.508-38.051-117.27-703.542-234.496-1407.1-351.766-2110.637-7.344-43.997-14.655-88.002-22-132-3.6-21.02-6.91-42.124-10.625-63.12-1.141-5.243-8.647-5.77-12.81-7.59-158.488-52.846-316.994-105.666-475.472-158.502-59.502-19.835-119.024-39.669-178.52-59.495-26.013-8.653-52-17.351-78-26-12.476-3.645-24.567-8.834-37.16-12.04-6.368-.025-12.224 3.635-18.313 4.993-92.992 31.026-186.022 61.963-279 93A1893485 1893485 0 0 0 785.82 433.9c-17.522 5.819-35.005 11.685-52.52 17.495-3.82 1.309-7.668 2.508-11.462 3.872-7.078 2.018-5.509 14.447-7.54 19.93a1026382 1026382 0 0 1-55.17 330.994C547.67 1471.398 438 2137.571 326 2802.5m677-1676.25c.457 2.445 2.56 5.042 3 7.75 79.996-24.28 159.514-52.6 232.654-93.721 35.392-19.052 68.835-41.459 101.064-65.443 16.13-12.036 31.573-24.946 46.85-38.007 7.583-7.112 15.526-13.756 23.033-20.936 3.637-3.62 7.244-7.246 10.874-10.868 3.358-3.04 7.507-8.585 11.525-9.025v138h-165c2.012 8.763 6.102 18.759 7 27h158v145c39.777 1.298 79.876-2.747 117.254-17.32 4.182-1.933 9.177-4.187 12.688-6.537 6.413-5.182 3.056-17.577 4.058-26.123V1061h150.6c12.796-.171 31.39 3.27 38.4-14.687-14.077-14.105-29.217-27.02-44.776-39.471-7.576-6.164-15.22-12.266-22.874-18.33-7.681-5.136-15.18-13.559-22.694-17.512-12.89 15.776-25.42 31.895-38.113 47.841-3.293 3.894-6.282 8.074-9.645 11.904-2.543 3.724-7.954 3.422-12.01 3.255H1566V929c7.106-1.58 14.474-2.815 20.876-6.524 7.61-3.891 9.957-10.365 13.124-16.976-6.484-2.063-13.704-1.544-20.424-2.51-47.907-3.488-95.644-8.92-143.576-11.99 1.027-5.545 8.782-9.792 12.014-15.433 16.425-19.374 32.818-38.824 47.15-59.847 3.202-4.35 6.698-9.633 9.634-13.614 3.96-4.6 12.06-2.616 17.345-3.106 24.124.53 48.355-.648 72.437.35 4.338.182 5.719 7.959 7.857 10.519 32.611 61.94 70.359 122.592 119.599 172.941 47.724 51.917 106.696 92.905 170.13 123.19 2.329-2.164 1.908-6.48 2.706-9.339 8.608-48.122 40.928-89.17 80.643-116.3 4.974-3.768 10.187-7.2 15.39-10.64 6-3.003 8.883-5.674 8.921-12.098-.058-2.076.153-5.852-1.47-6.898-37.016-4.609-74.16-10.002-110.65-18.1-49.593-11.518-98.777-26.289-145.034-47.786-22.532-10.916-44.957-22.393-65.664-36.59-10.112-6.97-19.932-14.334-29.29-22.295-8.19-9.082-20.767-15.838-24.718-26.954h269.4c15.008-.019 30.028.023 45.035-.012 11.946-.243 28.68-1.427 34.565-15.488-32.395-27.952-64.164-56.774-97.68-83.454-12.458-10.137-24.924-20.245-37.622-30.061-5.959-6.106-10.975 4.961-14.325 8.89-15.52 20.845-30.876 41.777-46.592 62.468-5.985 7.8-11.724 15.774-17.706 23.568-4.827 8.457-17.436 5.75-25.659 6.089H1526c3.022-11.712 12.013-21.207 16.643-32.275 9.008-16.92 17.144-34.22 24.271-52.013 1.05-2.051 2.034-5.035 3.849-6.035 7.466-1.403 16.43.654 24.817-3.557 8.763-2.874 13.506-8.288 17.42-15.62-64.81-21.219-132.373-36.847-197.5-57.5-10.687 36.54-21.265 73.373-36.809 108.28-5.504 12.757-10.462 25.771-16.864 38.11-2.491 5.498-4.748 11.112-7.765 16.35-2.828 5.967-11.716 3.923-17.038 4.26H1045c1.099 4.884 2.722 9.636 3.997 14.47 1.087 3.375 1.776 6.883 3.076 10.184.554 3.25 4.854 3.384 7.55 3.344 8.968.006 17.952-.002 26.916.002H1336c-35.309 70.826-87.163 133.32-143.233 188.733C1136.5 1042.578 1071.753 1088.284 1003 1126zm9 1504.211c1.71 2.788 4.1 4.975 6.64 6.976 3.38.353 6.614-2.67 9.213-3.802 57.966-29.928 111.957-68.768 155.54-117.53 38.88-45.322 74.508-95.208 96.607-151.105h4c19.55 64.666 55.018 126.901 107.378 170.485 54.443 44.807 124.747 62.851 193.187 71.083 55.278 6.519 110.9 7.203 166.505 6.432H1923c2.227-25.964 4.69-52.532 16.685-76.308 9.583-23.54 28.876-43.08 54.315-48.692v-9c-70.815.938-141.628 2.38-212.451 2-35.387.148-70.77-.186-106.144-.714-34.214.312-68.246-3.278-102.405-4.286v-213h282.6c11.313-.498 24.742.67 35.068-.518 8.425-1.207 19.071-5.713 20.847-14.072-9.955-11.362-24.04-19.69-35.481-29.647-37.072-27.533-72.957-57.24-111.409-82.763-25.827 33.695-54.554 65.913-79.625 100h-112v-134c13.781-1.014 30.158-6.534 33-25-61.386-4.167-122.635-10.553-184-15v380c-12.347-1.526-26.612-11.961-35.578-16.224-19.734-11.628-37.776-26.026-53.646-42.515-11.748-12.619-22.445-26.206-31.75-40.72-3.968-5.082-8.248-10.772-4.06-18.455 15.79-43.908 28.691-88.959 36.034-135.086 14.753.03 37.933-5.697 39-26-32.377-3.297-64.462-9.6-96.713-13.903-31.463-4.534-62.837-9.516-94.287-14.097-2.771 92.045-13.894 184.64-41.738 272.697-12.967 42.04-30.365 82.408-51.192 121.085-20.932 36.96-46.63 71.143-76.07 101.679m8-1364.961c3.694 8.763 4.033 19.559 8.804 26.847 10.545 1.606 21.488-.082 32.112.653H1231c-1.653 64.551-16.054 130.921-54.991 183.673-17.868 25.858-40.436 48.09-66.31 65.9-12.417 9.12-25.506 17.247-38.882 24.85-13.457 8.187-28.3 14.096-41.817 22.077 2.197 3.589 4.478 7.711 10.16 5.895 4.637-1.114 9.315-1.988 13.973-2.962 73.329-16.436 146.454-40.952 208.186-84.99 30.31-21.27 56.558-48.551 75.328-80.57 19.402-32.09 30.129-69.136 35.129-106.103 1.29-9.218 2.578-18.427 2.224-27.77h231v305c44.042.907 89.268-2.51 130.14-20.683 4.503-2.096 9.825-4.643 13.59-7.215 4.867-2.363 6.19-7.914 5.27-12.12V1293h181.2c17.459-.436 42.306 2.698 48.8-15.543-40.425-36.646-83.18-70.694-126-104.457-15.516 18.28-29.1 38.45-44.268 57.074-7.271 9.675-14.822 19.16-22.126 28.807-3.922 6.86-10.205 6.778-16.836 6.119H1754v-98c8.8-.209 17.558-2.787 25.087-7.256 8.112-5.159 11.03-12.289 13.913-20.244-62.508-5.503-125.395-10.364-188-15.5v141h-230v-95c7.434-1.782 15.416-2.853 21.878-7.317 6.146-4.208 10.031-11.44 11.122-18.683-59.087-4.07-117.988-11.049-177-16v137h-211zm3 757.75c2.225 4.987 2.792 10.765 4.777 15.91 1.375 3.416 1.735 10.342 5.768 10.486 13.881 1.006 27.934-.18 41.833.354h864.773c16.96-.219 41.44 3.633 47.849-14.547-46.606-40.21-97.71-75.024-146.5-112.453-16.325 18.007-30.227 38.157-45.988 56.65-11.707 13.756-22.1 28.76-34.357 42.011-6.328 2.84-16.414.285-23.238 1.339H1572v-162h268.8c11.112-.074 22.327.503 33.328-1.37 4.364-.722 8.405-2.678 11.827-5.43 2.378-1.86 7.466-6.845 4.601-9.53-21.218-20.22-46.075-36.553-68.898-54.887-23.887-17.23-46.83-36.305-71.158-52.783-22.934 26.757-43.74 55.311-66.253 82.429-2.801 3.425-5.504 6.964-8.313 10.376-2.503 4.14-6.567 4.125-10.662 3.264-31.1-.196-62.183.035-93.272-.069v-135c14.369-3.535 33.454-7.196 37-28-62.217-5.979-125.43-8.702-187.5-15-1.426 59.2.26 118.732-.5 178h-301c2.55 9.336 5.461 18.67 8 28h293v162h-398z" style="fill:#fda;fill-rule:evenodd;stroke:none"/><path d="M204 2906.5c431.66 1.426 864.125-.26 1295.95.5 431.946-.76 864.184.926 1296.05-.5-71.347-421.454-140.17-844.031-211.186-1265.681C2515.49 1219.807 2443.894 799.05 2375 378c-18.825-4.147-36.622-12.377-55.173-17.557-141.343-47.107-282.688-94.208-424.008-141.343-105.996-35.346-212.02-70.658-318-106l-60-20c-4.743-1.483-9.392-3.202-14.133-4.67-4.689-1.596-9.296.594-13.846 2.121-144.162 48.092-288.385 96.1-432.543 144.19-72.152 24.045-144.327 48.113-216.478 72.159-35.996 12.013-72.02 23.992-108 36-18 6.028-36 11.971-54 18-9.01 3.004-18.013 5.972-27 9-8.742 2.234-18.56 7.118-26.819 8.1-68.995 421.677-140.705 843.07-210.109 1264.703C344.003 2063.481 275.132 2486.22 204 2906.5m123-104c781.355 1.426 1563.485-.26 2345 .5-118.785-721.214-240.618-1442.068-360.03-2163.199-7.528-45.17-15.046-90.339-22.588-135.492-1.756-10.718-3.574-21.44-5.367-32.15-1.463-5.102-.632-13.609-5.65-15.42-82.419-27.818-165.08-54.96-247.546-82.639-144.35-48.044-288.615-96.253-432.954-144.3-27.19-9.095-54.376-18.14-81.566-27.195-6.024-1.707-14.13-5.746-19.294-4.368-99.967 33.09-199.81 66.647-299.74 99.834a5130220 5130220 0 0 1-448.968 149.67c-9.274 3.513-19.03 5.778-28.13 9.725-3.665 1.962-2.298 9.57-3.876 12.727-22.54 135.51-45.194 271.003-67.739 406.508C540.73 1518.187 435.508 2161.522 327 2802.5" style="fill:gray;fill-rule:evenodd;stroke:none"/><path d="m1374 1293.5.5 1.5c3.514-1.843 9.199-.461 13.689-1H1604v305h2v-307h-232zm52-394c.05.544.222 1.035.5 1.5l4-4c1.42 22.497-.254 45.399.5 67.98v52.094c-.71 5.386 1.043 12.17-1 16.426.972.384 1.963.51 3 .5V894h-2.5c-1.638 1.744-3.797 3.464-4.5 5.5" style="fill:#40372b;fill-rule:evenodd;stroke:none"/><path d="M1001 1125.317c.646 3.345 3.645 6.51 4 9.683 80.865-22.772 160.49-53.002 234.295-93.508 69.909-39.926 137.377-86.984 192.205-146.492 1.426 45.83-.26 92.093.5 138h-166c.828 9.944 6.377 19.008 7 29h158v145c40.443 1.321 81.24-2.422 119.254-17.32 4.286-2.055 9.556-4.27 13.083-6.86 4.134-3.14 3.735-7.632 3.663-12.028V1062c56.473-.515 113.022.628 169.469-.34 6.273-.548 12.596-3.327 16.377-8.528 1.63-2.096 2.87-4.524 2.68-7.259-12.619-15.612-29.833-27.041-44.692-40.362-7.758-6.196-15.46-12.5-23.26-18.63-7.927-5.501-14.746-13.105-23.074-17.881-12.995 15.725-25.4 31.984-38.179 47.875-3.262 3.973-6.366 8.066-9.663 12.01-4.66 6.155-15.95 3.447-24.027 4.115H1567V930c13.563-2.725 31.314-6.315 34-26-54.485-5.818-109.565-8.784-164-14.5 18.607-18.506 34.438-39.603 50.378-60.366 7.106-8.737 12.357-19.054 19.885-27.42 4.117-3.22 12.011-.78 17.679-1.714h35.982c10.963.547 23.99-.719 33.986.514 3.701 2.368 4.871 8.474 7.267 11.852 32.69 62.133 71.018 122.494 120.177 173.099 48.79 51.065 107.23 93.483 171.646 122.535 3.23-19.612 7.586-39.306 17.92-56.626 16.105-31.11 42.535-54.928 70.83-74.54 5.145-3.677 11.656-7.398 16.123-11.093 2.48-1.51 1.233-6.87 2.066-9.332 1.426-8.725-7.271-7.663-13.319-8.304-91.717-11.445-184.139-32.425-266.613-75.547-35.664-18.783-70.18-41.588-97.007-72.058 95.443-1.426 191.33.26 286.858-.5 11.892-.32 23.812.472 35.673-.457 9.104-.737 19.655-3.168 24.621-11.692.715-1.324 1.56-4.448.962-5.542-45.077-41.485-92.711-80.147-140.614-118.309-15.848 22.013-32.731 43.563-48.66 65.573-6.242 8.268-12.402 16.566-18.644 24.834-2.718 3.574-5.36 7.185-8.052 10.764-2.695 4.433-7.106 5.656-11.538 4.829-72.464-.76-145.22.926-217.606-.5 12.002-21.88 24.981-43.509 34.454-66.71 2.505-5.83 4.928-11.684 7.523-17.464 2.264-5.436 8.607-4.257 13.051-4.335 14.267.699 27.265-7.813 32.972-20.491-33.14-10.859-67.325-19-100.687-29.26-33.541-8.982-66.653-19.799-100.313-28.24-9.414 37.018-21.561 73.54-36.506 108.738-5.46 12.797-10.527 25.787-16.913 38.155-2.435 5.487-4.719 11.056-7.751 16.256-3.101 5.705-12.114 3.26-17.405 3.851-97.41.76-195.09-.926-292.425.5 2.786 4.96 2.802 11.139 5.102 16.336 1.962 3.922 1.806 12.357 6.469 12.833 40.41.943 80.964-.17 121.397.331 52.96.76 106.16-.926 159.032.5-19.848 34.061-41.077 67.374-64.804 98.907-36.56 47.778-79.238 90.252-124.836 129.314-45.158 36.13-92.8 69.946-144.36 96.279zm9 1505.14c2.622 3.298 5.445 6.467 8.344 9.543 57.507-28.562 111.58-65.388 156.131-111.975 22.014-23.964 42.968-48.998 60.5-76.485 17.9-26.919 34.708-55.135 46.025-85.54h2c19.55 64.666 55.018 126.901 107.378 170.485 54.443 44.807 124.747 62.851 193.187 71.083 55.675 6.569 111.701 7.193 167.704 6.432H1924c2.227-25.964 4.69-52.532 16.685-76.308 9.583-23.54 28.876-43.08 54.315-48.692v-11c-70.764.806-141.528 2.467-212.306 2-35.664.148-71.298-.192-106.957-.721-33.977.297-67.81-3.302-101.737-4.279v-211h308.4c12.773.856 26.941-3.896 31.6-16.5-24.064-20.157-49.06-39.192-74.116-58.08-25.27-18.14-49.181-38.719-75.384-55.42-26.217 33.955-55.095 66.615-80.5 101h-110v-132c14.092-.94 31.983-7.277 33-27-62.07-3.958-123.94-11.044-186-15v380c-48.763-17.822-89.237-54.627-117.574-97.335-2.707-4.76-8.61-9.945-6.226-16.555 16.3-44.488 29.263-90.293 36.8-137.11 16.027-.468 35.896-4.806 40-26.5-2.917-2.075-8.05-1.574-12.093-2.567-60.625-8.947-121.248-18.309-181.907-26.933-2.79 92.222-13.937 184.981-41.904 273.193-12.905 42.254-30.672 82.673-51.507 121.518-21.305 36.82-46.774 71.43-76.589 101.746m8-1366.207c2.955 6.134 3.496 13.513 6.04 19.874.536 2.602 1.604 5.045 2.36 7.561 2.046 4.135 10.503 1.233 13.768 2.315H1230c-1.92 64.38-16.486 130.637-55.896 182.939-36.514 50.876-90.81 85.777-147.104 111.061v1.5c2.259 2.716 4.084 5.723 6.25 8.5 81.301-16.8 162.988-41.976 231.194-90.977 32.947-23.817 60.642-54.48 79.76-90.48 10.15-18.416 16.437-38.502 21.705-58.738 4.842-21.223 9.19-42.915 9.091-64.805h230v306c44.376.93 89.944-2.332 131.14-20.683 4.503-2.096 9.825-4.643 13.59-7.215 4.97-2.528 6.077-8.385 5.27-12.72V1294h182.4c15.666-.326 39.94 3.07 48.6-16.5-41.102-37.352-84.757-72.452-128.5-106.5-15.138 18.75-29.24 38.336-44.133 57.285a5322 5322 0 0 0-21.822 28.382c-1.767 2.515-3.626 4.95-6.191 6.679-9.955 1.556-20.308-.03-30.354.654v-96c16.276-.79 36.37-7.782 39-30-63.405-3.842-126.6-11.158-190-15v141h-228v-93c7.715-1.895 16.105-2.959 22.678-7.883 6.098-4.496 10.296-13.227 10.322-20.117-59.768-3.933-119.273-11.455-179-16v137h-212zM1840 1921c-13.845 19.597-30.751 37.917-45.197 57.282-11.614 13.858-22.197 28.635-34.269 42.076-2.373 2.42-7.406 1.258-11.026 1.642H1573v-160h249.6c13.763-.226 27.533.29 41.28-.189 11.094-.66 24.822-1.914 30.12-16.311-22.244-20.486-47.177-37.788-70.914-56.426-24.33-17.833-47.978-36.646-72.586-54.074-27.432 31.705-51.893 66.009-79 98-3.063-1.712-8.07-.555-12.05-1H1573v-133c14.49-3.591 35.436-7.876 37-30-63.164-5.896-126.81-9.101-190-15v178c-100.607.76-201.478-.926-302 .5 4.057 9.328 5.665 19.882 9 29.5h293v160h-398c1.775 8.807 4.645 17.568 7.313 26.144 1.227 4.663 10.228 1.93 13.281 2.856h897.757c9.852-.313 21.52.592 30.484-.835 7.245-1.315 16.172-6.158 17.452-12.889 1.284-3.263-3.343-6.509-5.322-8.3-38.953-32.754-80.84-61.767-121.226-92.662-7.492-4.586-13.88-11.476-21.739-15.314" style="fill:#000;fill-rule:evenodd;stroke:none"/></svg>