<svg xmlns="http://www.w3.org/2000/svg" width="3000" height="3000"><path d="M449 2666.5v1.5h2102v-1.5c-63.81-378.768-126.215-757.87-189.705-1136.696-47.349-283.998-94.654-568.016-142-852-4.398-26.67-8.911-53.338-13.325-80.003-1.118-6.656-2.232-13.342-3.35-19.985-.571-3.586-1.119-7.183-2.096-10.662-1.288-2.958-6.82-3.128-9.193-4.54-101.51-33.828-203.017-67.663-304.512-101.514a746151 746151 0 0 1-266.522-88.84c-39.072-12.89-78.06-26.135-117.144-38.98-4.713-1.335-9.273 1.032-13.839 2.453-144.507 48.104-288.95 96.378-433.449 144.467-54.18 18.08-108.385 36.116-162.566 54.195-23.808 7.923-47.625 15.882-71.434 23.805-5.676 1.96-11.407 3.738-17.06 5.726-6.564 1.113-6.72 8.744-7.34 13.268C740.08 921.349 682.77 1265.54 625.383 1609.692 566.339 1961.663 508.308 2314.864 449 2666.5m598-1660c1.012 2.273 4.585 3.283 6.5 5.5 6.928-6.339 14.886-11.457 22.176-17.326 3.723-3.038 7.5-6.028 11.128-9.165 3.381-2.657 7.08-6.971 11.196-7.509.693 3.14 4.51 2.813 6.992 2.991 18.002.025 36.01-.004 54.008.009v113c-35.929.76-72.151-.926-108 .5 3.067 7.781 4.286 16.517 7 24.5h101v154h-3c-6.303-22.484-22.953-45.63-37.975-60.475-8.446-8.89-17.353-17.36-27.351-24.499-4.878-3.61-9.648-7.345-14.694-10.71-2.235-1.493-4.45-3.21-7.14-3.723-3.028-.458-5.883 1.271-8.84 1.407 6.118 27.81 13.134 55.717 14.152 84.397 2.634 29.423 3.01 60.08-2.152 89.103 10.227 11.678 22.971 22.516 39.343 22.905 16.036-.493 30.333-10.056 38.934-23.316 2.341-3.605 5.328-8.039 5.723-12.089h3v84c-34.276 5.53-68.438 12.442-103 16 14.97 44.958 33.447 88.942 48 134 7.924-.148 15.553-8.622 19.254-13.08a39.2 39.2 0 0 0 5.166-9.148c3.687-4.63 11.554-7.462 17.36-11.154 45.376-24.548 90.408-49.842 134.749-76.25 22.51-13.357 44.734-27.204 66.936-41.022 10.554-6.353 20.66-13.397 31.175-19.8a6801 6801 0 0 0 16.266-10.825c2.756-1.657 5.3-3.601 7.783-5.609 1.762-2.058.444-6.909-.189-9.112-21.772 5.603-44.728 8.296-66.73 13.334-11.171 2.173-22.406 4.18-33.569 6.335-11.052 1.726-23.904 5.251-34.201 5.331v-38c4.3-.314 8.054 1.879 12 3 34.703-38.275 66.004-81.797 88-129h3c.494 3.683 2.398 7.673 3 11h87v76c-31.607.76-63.478-.926-95 .5 3.007 7.53 4.34 15.841 7 23.5h88v72c-21.917 2.633-43.812 5.744-65.7 8.603-10.763 1.386-21.554 2.561-32.278 4.197-9.451 2.334-21.359.523-32.022 4.7 14.498 24.975 27.409 51.136 41.466 76.41 5.208 9.75 10.478 19.454 15.704 29.177 2.713 4.093 4.513 8.716 7.067 12.888 3.069 4.494 8.073.903 11.211-1.374 3.243-2.644 6.875-6.123 8.897-9.411 2.005-2.916 3.3-7.431 6.17-9.233 54.57-26.495 109.455-52.54 163.358-80.395 19.814-10.284 39.54-20.769 59.091-31.526a1285 1285 0 0 0 29.972-16.923c4.553-2.604 9.004-5.326 13.573-7.9 2.266-1.371 5.015-2.979 6.778-4.67.462-2.643-.422-5.017-.287-7.543-40.499 3.96-80.548 12.433-121 17v-56h66.6c11.216-.104 22.424.13 33.624-.077 8.9-.395 18.743-2.524 22.776-13.423-21.129-18.666-42.606-36.947-65.433-53.546-2.897-2.091-5.66-4.419-8.68-6.326-2.721-2.492-5.48.48-7.218 2.826a4826 4826 0 0 0-20.157 25.196c-3.355 4.086-6.575 8.273-9.921 12.357-3.17 3.799-6.08 9.15-11.591 8.993v-76h72.6c10.61-.023 21.24.027 31.84-.015 4.576.087 9.076-.845 13.326-2.48 2.104-.606 4.769-1.858 6.33-.201 6.25 33.584 11.044 67.86 19.976 100.978 1.322 5.894 4.613 14.128 1.972 18.715-45 78.919-107.22 150.206-185.044 198.003 1.123 5.48 6.089 10.428 11.674 6.933 16.105-6.936 32.005-14.287 47.692-22.11 53.593-26.436 101.537-62.625 143.867-104.556 2.05-2.11 4.117-4.218 6.62-5.769 5.014.457 5.905 10.249 8.39 13.211 8.796 19.585 19.445 38.37 30.503 56.736 19.675 31.177 47.507 59.829 83.153 72.384 13.575 5.287 28.827 7.998 43.094 4.126 11.37-3.591 23.999-11.196 30.85-19.835 6.616-9.128 5.473-23.3 4.538-32.883-2.992-19.302-9.334-37.871-16.644-55.895-2.63-6.234-6.483-13.094-4.781-21.23 6.28-50.993 11.38-102.194 18.044-153.112-2.652-.435-5.315-.918-8-1-14.093 40.595-30.967 80.424-51.007 118.438-2.096 3.646-6.022 6.394-9.872 4.723-6.482-2.924-9.865-11.962-13.858-17.216-7.97-11.928-13.747-25.118-19.783-38.065-4.314-11.668-10.82-25.237-12.928-36.518.616-5.553 5.774-10.76 7.59-15.392 42.177-73.344 69.497-154.47 90.858-235.97 7.259.071 14.629-.091 21.637-2.23 6.85-2.02 11.696-7.496 15.363-13.27-46.096-13.494-91.727-29.623-138-42.5-5.268 45.737-13.097 91.258-24 136h-3c-1.952-68.894-7.674-138.04-4-207h132c10.84.034 28.143.506 33-13.687-17.454-17.32-35.736-33.933-54-50.313 1.082-3.375 6.486-4.894 9.133-7.913 11.416-9.493 19.107-23.52 19.576-38.52-.057-22.886-15.563-41.533-33.43-53.843-17.425-13.06-37.957-20.88-58.582-27.246-10.266-2.804-22.542-7.748-31.697-3.478 2.23 9.366 9.075 17.261 11.46 26.685 5.306 13.75 9.168 28.108 12.049 42.537 1.05 7.54 2.358 15.05 2.8 22.643-.7 7.392 2.249 16.73-.309 22.635 2.182 2.279 4.489 4.375 7.025 6.24 1.721 1.454 4.616 3.537 4.481 5.564-8.27 15.396-21.627 28.153-29.506 43.696h-24c-.163-59.02 2.345-117.996 3-177 9.192-.865 19.278-2.695 25.995-9.69 2.772-2.995 5.461-7.29 6.132-11.02 1.542-5.111-7.339-4.382-10.41-4.925-8.124-.908-16.249-1.882-24.379-2.695-12.185-1.493-24.42-2.65-36.622-3.954-25.873-3.139-51.85-5.582-77.716-8.716-.24 33.338.193 66.684 1 100-5.673-.691-10.255-7.79-15.544-11.25-14.876-12.166-29.114-25.193-44.456-36.75-7.761 8.952-14.405 19.126-21.96 28.31-3.646 4.817-7.188 9.69-10.874 14.468-3.782 4.079-6.986 11.54-12.166 12.222v-67c8.197-1.302 17.063-3.473 23.081-9.635 2.73-2.791 4.9-6.384 5.208-10.343.868-2.92-2.36-2.886-4.147-2.94-2.098-.191-4.224-.227-6.318-.43-7.221-.375-14.385-1.2-21.582-1.775-11.49-.93-22.976-2.043-34.464-2.92-24.93-1.899-49.831-4.456-74.778-5.957v101h-57c-7.21-.036-14.44.043-21.64-.024-5.528.451-9.137-5.646-12.917-8.785C1342.4 778.969 1301.129 762.053 1269 753v-3c11.458-.868 29.172-4.909 32-20-54.062-8.349-107.81-19.563-162-27-5.693 53.591-19.904 105.96-34.403 157.684-14.622 50.069-32.584 100.148-57.597 145.816m2 1189.983c12.232 26.167 26.922 51.318 39.438 77.39 12.983 26.24 27.09 51.885 40.062 78.127 15.04-7.08 16.797-24.319 21.866-36.538 21.538-38.202 43.599-76.466 61.634-116.462h3v323c19.503.318 39.335 1.009 58.342-4.339 13.068-3.126 28.037-8.318 39.063-13.86 8.666-4.268 17.109-9.138 24.511-15.387 2.69-2.449 5.885-5.452 7.458-8.436 2.707-5.945 1.087-15.048 1.626-22.53V1678c13.62-.716 31.99-7.8 34-25-55.07-4.017-109.902-11.406-165-15v243h-3c-5.298-14.205-17.914-27.832-27.233-37.733-16.072-17.028-35.26-30.67-55.785-41.768-10.605-5.439-21.24-10.761-32.216-15.386-10.72-3.625-23.687-12.358-32.766-6.613 21.932 52.097 31.857 108.956 33.835 165.22-.402 7.547-1.053 15.065-.835 22.628-.892 7.28 3.896 10.665 8.607 14.748 15.022 13.666 35.71 24 56.581 21.264 20.13-2.249 39.91-14.669 49.812-32.36h3v136.2c-.21 3.738.913 8.959-3.251 11.287-53.892 26.445-107.459 54.188-162.749 77.513zM1122 954.5v1.5h111c7.567.305 17.242 1.896 21.28-6.918 7.158-10.841 14.516-21.526 21.366-32.553 5.187-8.358 11.289-16.158 16.187-24.674 2.34-6.608-8.356-11.542-10.572-18.375-1.332-22.915-1.637-47.818-6.473-70.774-1.436-7.711-3.412-15.283-5.395-22.865-1.079-3.503-2.24-6.96-3.594-10.356-1.316-3.242-2.194-7.358-5.799-7.485-15.883 36-37.696 69.331-60.933 100.982-11.613 16.29-24.492 31.64-37.26 47.018-6.465 7.773-13.416 15.11-20.061 22.723-6.457 7.097-14.824 13.598-19.746 21.777m146 139.5h4c6.363-11.81 15.239-22.73 21.967-34.452 7.822-10.958 14.003-23.105 22.533-33.548 10.61 10.126 21.58 19.838 31.602 30.602l15.768 15.768c5.087 3.944 10.592 12.57 16.13 13.63V975h-2c-16.382 8.72-35.928 5.058-53.688 6H1268zm0 242h3c10.446-55.479 15.793-111.782 20-168 39.474 9.853 78.398 22.802 118 32-1.91 11.551-14.343 18.402-25 19v3h170.4c3.434-.36 7.52.603 10.388-.951 7.533-6.636 12.876-17.69 19.007-24.46 2.986-4.245 5.997-8.47 9.18-12.563 2.731-3.899 6.908-8.415 7.025-13.026-15.474 3.257-31.272 3.5-47 3v-35h-68c-.312 5.57.468 12.236-.466 17.287-2.635 7.728-15.515 11.29-21.092 14.51-25.982 12.709-54.752 17.478-83.442 16.203v-69c-18.29 2.151-36.903.182-55.275 1H1268zm53-431.5v1.5c9.792 4.159 14.716 19.36 27.036 18H1461v-86h-69c1.431 9.675 1.803 19.78-1.721 29.054-5.094 12.735-15.36 22.859-27.46 29.013-12.696 7.96-27.57 8.07-41.819 6.933zm45 1220.5h319v241.2c.054 7.161.725 16.522-4.377 20.977-5.089 4.048-12.082 3.808-18.183 3.823-45.59-.032-90.926-5.57-136.44-7v9c16.476 3.304 33.04 6.531 48.836 12.457 21.88 8.217 45.961 25.171 56.481 44.34 13.537 22.33 12.097 50.099 18.183 74.203 38.917-5.647 81.054-9.075 115.75-30.161 12.376-7.207 22.912-17.318 30.456-29.49 13.238-23.781 15.953-51.674 17.213-78.3.23-87.02-.042-174.031.081-261.049h112.8c9.394-.1 23.223.496 28.89-10.513 2.627-2.98-2.853-7.533-4.33-9.613-18.945-20.301-39.498-38.841-59.73-57.744-8.138-7.603-16.63-14.839-24.13-23.13-8.277 13.105-17.29 25.898-25.779 38.905-8.947 12.347-15.853 26.478-25.721 38.095h-2v-68c11.917-.35 29.554-6.38 31-22-37.937-3.806-76.037-6.418-114-10 .703-4.696 7.687-7.136 11.54-10.343 32.38-22.25 63.537-46.294 92.906-72.38 15.195-12.847 29.385-26.783 43.53-40.752 3.56-3.66 7.355-7.125 10.643-11.037 4.31-6.272 14.61-3.855 20.994-5.728 7.104-1.132 13.458-5.28 17.387-11.26-23.202-12.89-47.366-24.546-70.88-36.947-11.925-6.543-24.103-12.593-36.238-18.743-5.722-3.44-11.837-6.194-17.755-9.248-5.917-2.129-13.032-7.52-18.127-8.562-18.045 50.943-45.052 98.557-71.708 145.393-26.665 45.227-56.673 88.58-91.292 128.107 2.28 2.325 4.401 4.83 6.25 7.5 9.597-3.853 20.313-10.088 28.737-14.439 9.696-3.853 19.672-12.3 29.013-14.561v73h-325c.955 8.211 5.05 15.784 6 24m1-1174.5c5.945 10.24 16.325 16.952 27.335 20.239 30.981 11.8 61.743 24.198 92.879 35.585 11.082 1.644 22.473-.066 33.621.676h13.148c3.405-.041 8.37.353 10.65-1.549 4.792-3.387 8.006-8.425 12.007-12.577 11.933-11.957 22.87-24.825 34.693-36.874 30.947 18.27 57.566 45.288 88.667 63 .258-23.345-.148-46.677-1-70h-312zm1 874.85c16.52 30.549 27.539 63.978 37.076 97.294 3.804 12.954 6.361 26.361 8.076 39.742.728 6.198 1.096 12.451 1.745 18.655.424 5.29 6.355 8.753 10.186 11.647 16.068 12.273 37.998 17.237 57.133 8.992 28.714-11.447 43.62-45.665 34-74.809-7.523-29.34-30.196-51.711-54.367-68.319-25.48-16.536-59.132-31.06-86.385-37.01-2.952-.182-4.979 2.491-7.464 3.458zm9-35.85c47.648-1.654 96.104.688 143.901-1.104 68.702-1.604 137.449-5.61 205.764-12.98 32.112-3.666 64.27-7.31 96.09-13.05 8.443-1.199 16.762-3.013 25.14-4.556 12.53-1.648 24.423 5.732 36.958 5.88 11.94 1.125 25.276.601 35.147-7.19-44.246-39.686-87.788-80.219-131.5-120.5-63.683 34.627-132.637 58.982-200.541 83.852-69.557 23.183-139.963 44.883-211.959 59.148-.012 3.526.49 7.033 1 10.5m52 364.75c15.694 27.664 30.775 56.091 42.235 85.885 9.659 22.855 14.839 47.659 19.71 71.64 11.858 12.826 33.09 19.523 48.566 19.222 27.465.62 52.324-21.021 58.216-47.234 6.787-26.683-6.203-54.19-24.46-72.995-16.84-17.362-41.905-31.996-62.4-40.003-12.267-5.07-24.95-9.082-37.825-12.256-6.178-1.633-12.374-3.143-18.65-4.343-6.22-.826-13.565-3.615-19.401-2.637-2.123.359-4.25 1.703-5.991 2.471zM1485 1114h68v-83h-68zm79 844c3.01.84 5.673 4.524 8.864 6.388 10.683 8.189 23.256 14.763 36.846 16.178 20.343 2.562 40.517-8.02 52.674-23.823 5.748-7.927 10.728-18.755 12.08-27.693 1.688-10.724.26-21.583-2.981-31.844-11.443-33.329-40.291-57.717-70.262-74.11-11.16-5.963-22.596-11.307-34.366-15.929-11.924-3.402-26.16-12.423-36.855-8.167 19.233 50.726 34.223 104.22 34 159m10-1034h105v-86h-105zm121 300c-8.295-60.69-10.707-121.925-14-183-5.01.645-11.198 4.111-17.097 5.392-3.43.198-2.635 6.241-2.903 8.377v74.067c-.028 5.587.034 11.15-.019 16.727.207 8.709-7.59 9.733-13.995 12.564-6.431 1.844-13.817 5.304-19.986 5.873-.274 4.085 4.057 6.857 6.804 9.184 10.476 8.338 20.272 17.472 30.611 25.964 5.116 4.03 10.59 9.381 15.118 13.246 5.132 3.725 9.672 10.938 15.467 11.606" style="fill:#feddaa;fill-rule:evenodd;stroke:none"/><path d="M1045 1007.625c2.913 1.36 7.087 5.992 9.895 4.395 3.485-2.126 6.582-4.835 9.825-7.297A406 406 0 0 0 1096.5 979c1.916 3.14 5.883 3.027 9.248 3H1158v111h-108v1.5c2.337 8.503 4.697 16.988 7 25.5h101c-.76 50.633.926 101.42-.5 152-8.378-23.338-21.954-44.875-39.975-61.975-8.711-9.089-18.115-17.466-28.307-24.862-5-3.772-9.946-7.584-15.275-10.868-4.054-4.033-12.009-1.79-15.943 1.205 7.331 22.806 10.902 46.698 13.946 70.387 1.802 18.765 3.279 37.595 3.054 56.464.154 14.083-1.452 28.064-3.076 42.007-1.463 5.604 2.625 9.097 6.051 12.117 11.302 12.88 29.457 19.545 46.106 13.927 14.956-4.97 28.69-19.967 33.419-33.402 1.424 27.256-.257 54.71.5 82-34.276 5.53-68.438 12.442-103 16 1.883 11.93 8.447 22.752 11.614 34.338 13.452 33.848 23.783 69.153 37.886 102.662 7.12-2.15 13.556-6.445 18.246-12.215 4.645-5.014 6.135-12.975 12.733-16.003 46.386-24.87 92.2-50.79 137.648-77.351 44.59-27.444 90.078-53.739 132.873-83.931-1.51-2.384-1.374-6.303-2-9.5-45.073 7.528-89.738 18.783-135 25v-36c4.164.253 7.809 2.96 12 3 .69-2.94 4.244-5.345 6.475-7.975 34.134-35.253 59.21-78.002 82.025-121.025 1.487 3.284 2.588 8.179 3.5 11h87v74h-95c1.463 8.853 4.98 17.296 7 26h88v70c-22.085 2.642-44.184 5.803-66.244 8.679-10.744 1.319-21.51 2.6-32.212 4.186-10.338 2.074-23.405 1.267-32.544 4.635 23.127 41.103 44.656 83.244 67.5 124.5 6.854-2.516 13.466-5.854 17.87-12.074 3.532-4.713 5.29-11.877 12.472-14.352 47.979-22.96 96.163-45.675 143.438-70.07 23.161-11.617 45.883-24.04 68.788-36.116 11.387-6.502 23.03-12.587 34.292-19.311 5.129-3.113 10.357-6.066 15.533-9.085 1.791-1.623 6.758-3.291 6.566-5.721.142-3.089-.172-6.96-1.959-9.271-39.663 6.78-79.791 11.48-119.5 18v-54h55.8c14.02-.022 28.031.027 42.038-.014 8.26-.145 19.695-1.482 23.837-11.037 2.324-6.282-6.95-10.591-10.294-14.945-15.378-13.257-31.265-25.838-47.356-38.189-6.574-4.05-13.102-11.063-19.681-13.815-14.85 16.657-27.43 35.448-42.344 52h-2v-74h93c9.483.281 19.425.73 28.063-4 3.093 3.05 1.756 9.844 3.503 14.386 5.913 34.166 11.78 68.85 21.434 102.114-23.41 39.468-49.65 77.56-80.61 111.594-31.238 35.28-69.034 64.053-107.39 90.906 1.937 3.636 5.084 6.51 7.25 10 77.168-30.141 147.433-76.78 205.25-136 14.335 28.043 26.78 57.536 45.609 83.174 12.525 19.847 34.418 37.287 52.063 48.942 14.966 9.245 35.348 16.24 51.558 16.861 14.32.552 27.775-5.384 38.973-13.86a29.03 29.03 0 0 0 13.287-26.324c.74-16.316-3.284-32.22-8.118-47.666-2.413-7.224-4.963-14.384-7.798-21.445-2.317-6.542-7.094-15.183-6.237-21.034 5.881-52.233 12.127-104.437 18.163-156.648-3.353-.531-6.72-1.154-10-2-13.047 40.706-31.032 79.974-50.185 118.125-1.873 2.881-4.601 7.104-8.107 6.13-6.152-1.906-9.927-10.868-13.962-16.563-7.997-12.02-14.057-25.187-20.016-38.282-4.563-11.542-10.719-25.595-13.082-36.626 45.226-77.631 76.592-162.765 98.352-249.784 12.563-.088 32.03.36 37-18-47.053-12.762-93.089-29.67-140-43-5.661 45.97-12.365 92.216-24.5 137-2.118-33.802-3.689-67.816-4.588-101.71l-.629-52.325c.086-16.98-1.067-34.05.717-50.965h130.2c9.884.22 20.646.453 29.184-5.5 2.755-2.078 5.213-5.821 5.131-9.087-5.918-10.258-18.989-18.244-25.99-26.388-9.003-8.343-18.01-16.788-27.525-24.525 14.959-8.487 26.749-23.383 28.413-40.977 2.27-17.971-6.304-35.975-19.283-47.893-13.65-14.218-31.213-23.851-49.21-31.253-9.689-3.823-19.736-6.683-29.675-9.744-8.727-2.066-19.713-7.426-28.245-.133 9.767 19.875 19.197 40.275 22.97 62.37 2.641 11.65 3.908 23.587 4.592 35.473.333 5.585.59 11.232-.04 16.783 3.043 4.685 7.386 7.168 11.478 10.374-5.28 6.714-10.504 15.35-15.345 21.528-3.811 7.067-10.833 13.372-14.655 21.972h-22c-.132-58.363 2.392-116.663 3-175 7.933-.83 16.35-2.203 22.947-7.04 6.165-4.432 9.378-11.808 11.053-18.96-50.888-6.086-102.032-11.413-153-17 .062 16.825-.078 33.673.046 50.49-.438 16.395 1.565 33.245.454 49.51-19.687-16.149-38.472-34.004-59-49-15.114 18.026-27.87 38.01-43 56-1.417-21.488.25-43.42-.5-65 6.937-1.042 14.075-2.832 19.948-6.851 6.757-4.171 7.683-10.412 10.052-16.649-47.458-7.064-96.97-6.872-144.5-13.5-1.426 33.87.26 68.07-.5 102h-56.4c-7.185-.133-14.394.165-21.567-.098-4.92-.329-8.343-6.6-12.877-9.775-27.733-25.567-64.043-38.857-99.156-50.627 12.504-2.472 29.22-4.545 33-22.5-54.336-9.292-109.395-18.236-163.5-28-.45.458-.96.911-1.5 1.25-5.82 53.649-19.938 106.114-34.554 157.881-14.623 50.764-33.285 101.192-58.446 147.494m2 1188.634c13.321 26.17 27.22 52.33 40.438 78.613 13.794 26.286 26.787 53.151 41.062 79.128 15.473-8.814 17.908-23.276 22.866-37.538 22.202-38.01 42.888-76.881 62.134-116.462 1.426 107.549-.26 215.392.5 323 19.728.225 39.715 1.071 59.003-4.011 13.664-3.41 27.245-7.662 39.888-13.943 8.982-4.428 17.835-9.417 25.436-15.999 2.69-2.468 5.865-5.5 7.295-8.577 2.553-7.178.663-15.196 1.378-22.622V1679c13.737-1.314 32.994-7.211 34-27-55.762-3.687-111.192-12-167-15-.76 80.929.926 162.151-.5 243-13.494-27.471-41.025-52.448-63.945-67.745-13.496-8.724-27.61-16.496-42.34-22.96-7.133-3.04-14.138-6.31-21.36-9.128-4.103-1.32-8.01-3.23-12.18-4.324-4.116-1.273-7.449 1.385-10.675 2.157 20.177 53.993 33.352 111.053 33.722 168.972-.815 7.739-.784 15.5-.807 23.267-.84 5.41 5.414 9.496 9.709 13.829 15.502 13.821 36.56 23.365 57.732 20.271 20.721-2.013 39.204-15.117 50.144-32.339l.5 1.625v120.6c-.583 8.321 2.391 21.066-5.424 24.496-53.463 26.567-107.168 52.782-161.576 77.279zm76-1241.915c23.204 1.871 47.589-.34 71.037.656h36.538c5.875-.216 11.982.454 17.732-.712 3.698-3.374 5.96-8.218 8.972-12.194 6.01-8.904 11.91-17.88 17.623-26.967 5.04-8.923 13.328-18.184 17.098-26.814-4.119-3.575-7.893-7.618-10.886-12.173-2.839-4.146-1.043-9.25-1.412-14.003-2.198-33.294-3.732-68.379-18.202-99.137-16.958 35.236-37.104 69.053-60.878 100.19-22.745 32.956-50.46 62.066-77.622 91.154M1269 1093h2c12.97-23.695 31.024-45.296 44-69h1.5c20.766 20.229 41.884 40.088 62 61 1.402-17.875-.235-36.185.5-54.15-.726-18.23.892-36.705-.5-54.85-7.359 5.376-16.677 5.858-25.42 5.899-28.031.288-56.05-.053-84.08.101zm.5 242c11.853-55.268 15.54-111.89 20.5-168 20.684 3.919 40.562 11.729 61.114 16.288 19.655 6.423 40.576 10.019 59.886 17.212-4.203 12.803-14.367 18.149-26 20 41.417 1.426 82.976-.26 124.429.5h31.156c7.34-.395 16.37.627 22.961-.697 7.516-6.77 12.066-16.277 18.615-23.878 3.01-4.054 5.755-8.311 8.947-12.225 1.904-3.86 7.546-8.428 7.392-12.2-14.89 4.173-31.174 2.766-46.5 3v-35h-66c-.165 5.757.324 12.626-.479 17.857-4.217 7.79-15.374 10.864-21.979 14.342-26.334 12.901-55.547 17.112-84.542 15.801v-69c-8.873 1.847-18.123.487-27.116 1H1269c.76 71.627-.926 143.427.5 215m52.5-430.75c3.787 3.196 7.716 6.563 11.102 10.352 3.299 2.464 6.27 7.715 10.068 8.036 34.226 1.033 68.602-.188 102.858.362H1460v-84h-67c4.632 18.556-2.191 39.308-18.112 50.589C1360.44 902.563 1340.66 906.227 1322 904zm36 1196.25c2.491 8.104 5.443 17.866 7 25.5h319v240.6c-.261 6.095 1.133 14.435-4.725 19.942-9.569 5.775-25.374 2.456-37.838 2.974-38.861-1.148-77.562-5.771-116.437-6.516v11c16.476 3.304 33.04 6.531 48.836 12.457 21.88 8.217 45.961 25.171 56.481 44.34 13.527 22.387 12.1 49.996 18.183 74.203 27.864-3.368 55.991-6.47 82.936-14.852 18.953-5.491 36.878-14.727 51.552-27.932 22.432-21.963 28.933-54.81 30.451-85.008 1.418-34.097-.109-68.274.561-102.38V2126h116.4c10.034.857 22.972-2.243 27.6-14.5-7.004-8.112-14.534-15.76-22.233-23.233-11.377-11.533-22.899-22.882-34.978-33.639-6.463-4.971-11.42-11.61-17.916-16.536-3.083-2.652-5.85-5.625-8.743-8.462-2.76-2.623-5.725-6.336-9.13-6.63-7.148 13.518-17.403 25.712-25.279 38.905-8.48 12.642-16.229 25.808-25.221 38.095-1.42-21.797.252-44.11-.5-66 7.468.068 14.794-2.212 21.042-6.232 7.277-4.122 8.628-10.64 10.958-17.268-37.897-5.803-77.087-5.337-115-11 34.452-23.318 68.16-48.011 99.352-75.609 15.764-14.308 31.832-28.28 46.75-43.493 3.81-3.936 7.836-7.641 11.495-11.704 5.229-7.788 13.985-5.082 22.016-6.934 8.03-1.122 14.628-6.317 18.387-13.26-48.274-24.456-96.25-49.726-144.354-74.5-22.106 51.911-46.392 103.384-76.37 151.417-14.025 23.37-28.829 46.282-44.826 68.361-8.06 11.425-16.657 22.423-25.337 33.37-4.37 5.331-8.866 10.537-13.28 15.827-1.58 2.085-5.654 6.307-3.47 8.28 1.552 2.817 4.15 5.6 6.137 7.745 18.594-9.93 37.782-19.293 56-30 1.422 23.537-.255 47.396.5 71h-326zm9.493-275.023c19.87 44.305 38.488 90.486 44.766 139.01.957 6.322.89 13.937 2.094 19.678.97 4.344 8.196 7.504 10.968 10.402 15.381 11.028 35.45 15.812 53.816 9.512 17.331-5.032 31.211-19.154 36.985-36.048 6.405-16.99 4.457-36.093-2.352-52.601-9.786-24.402-30.048-42.874-50.921-57.878-21.227-14.555-45.301-24.352-69.54-32.616-6.54-1.948-16.278-5.945-21.88-3.48-1.48.978-4.01 2.413-3.936 4.02m.507-875.102c5.763 5.764 12.306 13.652 19.458 16.42 28.279 10.643 56.328 21.913 84.638 32.445 6.861 2.448 14.805 6.608 21.634 6.743 13.156.049 26.303-.01 39.454.017 13.216 1.459 19.351-12.046 27.29-18.975 10.306-10.491 21.425-23.713 31.193-33.025 29.031 20.96 58.325 42.254 86.833 64 1.66-22.507-.445-45.434-.5-68h-310zm8 839.625c94.931.421 189.981.625 284.646-7.38 43.858-3.13 87.54-8.244 131.106-14.087 10.633-1.928 21.408-3.042 32.003-5.167 8.594-1.236 17.083-3.089 25.625-4.592 6.35-1.274 12.452 1.44 18.47 2.947 17.965 5.325 37.428 5.179 54.15-3.721v-1.5c-37.545-34.123-75.027-68.346-112.32-102.734-7.872-5.319-13.5-15.295-21.794-18.204-64.576 32.913-132.535 59.333-200.927 83.29-69.557 23.183-139.963 44.883-211.959 59.148a54.7 54.7 0 0 0 1 12m51 364.461c19.692 32.075 36.315 66.547 48.796 102.097 4.94 14.046 8.363 28.507 11.57 43.012 1.494 5.971-.097 13.16 6.97 17.418 18.563 13.94 43.88 20.512 66.157 11.325 15.963-5.847 29.09-18.94 35.407-34.673 9.846-24.51 3.443-53.342-12.893-73.605-15.344-20.28-37.467-34.296-59.876-45.478-28.08-12.477-58.169-20.78-88.579-25.076-1.947 1.905-5.607 2.215-7.552 4.98M1486 1113h66v-81h-66zm42 686.25c21.134 50.413 34.388 104.919 35 159.75 3.148.915 5.89 4.77 9.27 6.701 20.943 17.963 53.452 22.673 76.647 5.845 11.144-7.591 19.442-18.685 23.819-31.397 5.371-13.521 3.361-30.978-.09-43.394-11.461-34.129-41.19-58.979-71.917-75.397-11.534-5.927-23.106-11.834-35.386-16.1-12.187-3.977-27.185-12.624-37.343-6.258zM1575 923h103v-84h-103zm53 242.75c9.857 10.296 22.608 18.289 32.747 28.464 11.114 9.397 21.748 19.288 32.753 28.786-7.466-59.838-10.508-120.683-13.5-181-2.996.647-5.546 2.535-8.517 3.324-2.312.551-5.364 1.818-7.296 2.132-3.378 1.51-1.51 8.09-2.187 10.703v74.065c-.602 8.675 3.405 21.094-8.543 24.645-8.048 2.928-17.63 7.03-25.457 8.131z" style="fill:#000;fill-rule:evenodd;stroke:none"/></svg>