<svg xmlns="http://www.w3.org/2000/svg" width="3000" height="3000"><path d="M449 2666.5v1.5h2102v-1.5c-63.81-378.768-126.215-757.87-189.705-1136.696-47.349-283.998-94.654-568.016-142-852-4.398-26.67-8.911-53.338-13.325-80.003-1.118-6.656-2.232-13.342-3.35-19.985-.571-3.586-1.119-7.183-2.096-10.662-1.288-2.958-6.82-3.128-9.193-4.54-101.51-33.828-203.017-67.663-304.512-101.514a746151 746151 0 0 1-266.522-88.84c-39.072-12.89-78.06-26.135-117.144-38.98-4.713-1.335-9.273 1.032-13.839 2.453-144.507 48.104-288.95 96.378-433.449 144.467-54.18 18.08-108.385 36.116-162.566 54.195-23.808 7.923-47.625 15.882-71.434 23.805-5.676 1.96-11.407 3.738-17.06 5.726-6.564 1.113-6.72 8.744-7.34 13.268C740.08 921.349 682.77 1265.54 625.383 1609.692 566.339 1961.663 508.308 2314.864 449 2666.5m597-1338c1.696 1.976 3.786 3.525 5.5 5.5 29.693-16.875 59.61-33.985 86.948-54.675 14.245-10.409 28.173-21.26 41.553-32.768 6.8-5.843 13.504-11.789 20.035-17.919 3.43-2.755 6.703-5.638 9.697-8.87 3.055-2.743 6.278-7.271 10.267-7.768-2.216 60.93-1.64 122.712-15.139 182.574-3.302 13.668-7.705 27.3-15.175 39.316-5.872 8.936-16.161 15.277-27.037 15.099-34.302.149-68.49-3.187-102.649-5.989.17 3.116-.616 9.08 2.819 9.843 3.34 1.711 7.127 2.2 10.6 3.528 12.678 4.613 24.736 10.759 35.44 19.02 8.149 5.733 15.703 12.569 20.495 21.445 13.93 27.508 14.227 64.744 14.646 92.164 27.363-.591 54.828-3.274 81.126-11.217 17.88-5.835 35.308-14.706 48.744-28.153 39.475-43.194 53.33-102.453 62.724-158.255 7.86-55.842 10.74-112.42 8.894-168.81-2.639-81.446-10.813-164.307-39.259-241.295-6.686-17.983-14.694-35.446-23.762-52.32-5.802-12.7-14.207-23.866-21.243-35.814-3.038-4.56 6.17-9.804 7.97-12.89C1293.89 852.121 1321.229 825.24 1342 794c11.753-.585 30.298 3.249 36-13-24.33-11.782-47.285-26.924-71.272-39.494-23.459-13.942-48.094-26.104-71.228-40.506-11.276 38.123-27.92 74.552-43.5 111-5.913-.07-10.761-6.397-15.16-9.482-32.887-25.875-68.512-48.76-106.424-66.518-1.748 1.901-3.62 3.654-5.416 5.5 21.892 22.033 42.826 45.256 60.58 70.807 12.291 18.777 26.339 37.513 34.057 58.785-.054 7.442-7.965 15.24-10.807 23.238-14.645 25.552-29.625 51.027-46.448 75.206-8.215 12.567-17.092 24.646-26.357 36.438-4.603 6.03-9.306 11.984-14.177 17.797-3.786 5.647-10.463 11.056-12.848 16.893 2.349 1.67 3.982 4.719 6 6.336 40.74-22.446 80.118-47.636 116.3-77.024 3.518-2.662 6.799-5.603 10.227-8.37 2.917-1.918 7.435-7.82 10.649-5.23 3.085 7.333 5.956 18.76 6.193 25.365-9.807 64.21-29.119 127.068-55.039 186.534-12.999 29.06-27.15 57.755-43.9 84.85-16.163 26.187-33.914 51.63-53.43 75.375m30 1180.957c2.395 3.17 4.911 6.323 7.25 9.543 37.112-16.916 72.506-37.732 106.81-59.737 60.401-38.871 115.315-86.59 160.153-142.812 16.903-20.79 31.92-43.012 45.97-65.782 12.421-20.173 22.153-41.756 32.497-63.008 1.235-2.363 2.15-4.879 3.274-7.285 2.676-6.915 7.867-1.59 11.53 1.607 29.462 24.324 61.662 45 94.656 64.103 24.998 14.836 51.306 27.274 77.87 38.985 5.084 2.639 10.372 4.754 15.695 6.823 6.88 2 4.938 7.39 2.949 12.666-6.199 17.958-12.645 37.526-27.49 50.495-11.54 10.394-27.1 13.579-42.205 12.94-47.44.168-94.63-5.265-141.959-6.995v8c35.983 7.88 73.191 20.208 100.602 46.102 13.395 12.544 21.65 29.418 25.176 47.265 4.356 19.596 4.547 39.695 4.222 59.633 52.444 1.036 108.286-9.182 149.392-44.124 20.184-15.833 36.153-36.606 47.042-59.746 11.717-23.78 18.834-49.619 25.566-75.13 21.186 4.236 41.602 12.466 63 16 2.673-16.035 9.435-31.299 16.432-45.85 9.13-21.594 27.705-42.987 44.393-56.205 9.527-7.084 20.155-12.719 31.172-17.074 5.856-2.298 11.795-4.23 17.921-5.631 2.527-.885 6.61-1.114 7.747-3.4 1.013-2.845 1.577-5.79 1.335-8.84-53.334-4.646-106.205-13.633-159-22 7.097-63.887 11.003-128.048 14.516-192.201 3.21-66.243 7.182-132.466 8.484-198.799 16.11-1.682 32.451-7.686 44-19.5-39.134-35.874-78.37-71.638-117.5-107.5-17.793 17.946-35.013 36.426-53.102 54.102l-12 12c-4.149 3.126-7.781 9.39-12.212 10.453-185.933 2.027-372.298-1.156-558.186.945 3.215 6.879 4.298 16.137 7.917 22.213 6.463 2.596 13.012.407 19.84 1.287H1356c-3.342 74.948-.54 150.488-11 225-3.985-.557-7.776-5.054-11.392-7.897-25.045-23.633-48.54-49.384-67.881-78.003-4.846-6.89-9.867-13.676-13.826-21.13-2.258-4.843-7.04-9.89-8.402-16.053 8.66-16.143 25.197-29.055 34.501-44.917-16.003-3.641-31.098-10.93-47-15-2.165 17.03-3.9 34.161-5.85 51.214-.135 6.39-7.861 9.67-12.129 13.256-33.487 24.844-70.026 45.955-106.021 66.53 21.63 31.191 43.001 62.709 64.5 94 4.826-4.435 9.094-10.957 7.655-17.914-.52-3.179-2.073-6.306-1.662-9.598 18.346-40.91 41.626-80.45 57.507-122.488h3c21.408 54.402 48.261 107.174 82.682 154.615 3.3 4.718 6.734 9.327 10.213 13.91 4.835 4.807 4.157 9.85 2.425 15.643-16.59 84.064-48.137 165.319-93.661 237.902-42.885 71.718-100.803 133.064-163.659 187.387M1336 853.5c2.641 8.022 4.742 16.348 7 24.5h118v136c37.915.746 76.556-2.05 112.273-16.111 4.064-1.654 8.372-3.321 11.506-6.537 2.88-3.213 2.092-7.854 2.221-11.873V878h90c.32 42.969-.39 85.977.21 128.923-.026 5.405 8.833 3.865 12.107 3.931 34.752-.85 70.314-4.163 102.702-17.93 3.768-1.844 8.59-3.826 11.063-6.942 3.605-6.76.87-17.82 1.918-26.497V878h118.8c9.91-.228 25.024 1.038 31.123-10.655 1.882-4.106-2.853-7.598-5.06-10.545-19.734-21.655-38.582-44.073-59.338-64.775L1866.5 768c-8.76 13.818-17.153 28.034-25.822 41.944-8.112 14.536-18.464 28.087-25.678 43.056h-10V748c7.322-1.628 14.8-3.35 21.387-7.087 7.351-3.751 9.653-9.958 12.613-16.413-5.538-2.385-14.185-1.231-21.141-2.571C1770.896 718.22 1723.968 713.6 1677 710v143h-90V748c12.574-3.564 29.758-6 34-24-53.184-5.472-106.723-9.125-160-14v143h-125zm50 731.5c28.786 1.012 58.015-1.707 84.713-13.47 12.125-4.99 24.126-10.913 34.326-19.233 7.164-4.967 7.846-11.692 6.961-19.187V1511h257v67c38.346 1.354 76.644-5.732 111.703-21.506 7.858-4.34 19.6-7.676 19.281-17.112.045-30.995-.008-61.964.016-92.954v-289.642c.625-16.067-.766-32.292.422-48.306.875-3.08 6.432-3.352 8.736-4.71 9.982-3.326 19.398-8.751 26.842-16.27-19.103-16.007-39.497-30.446-58.945-46.036a4082 4082 0 0 0-29.832-23.012c-4.79-3.883-9.742-7.542-14.591-11.332-4.525-3.03-10.033-8.529-14.304-10.12-13.074 13.164-24.681 27.646-37.653 40.894-5.368 6.074-10.838 11.997-16.205 18.055-5.69 7.141-15.373 4.63-22.722 5.051h-191.782c-15.367.399-31.03 1.422-45.107-5.464-39.757-14.962-78.917-32.284-118.859-46.536zm274 581c12.224-127.322 18.617-255.167 23-383h-182c-3.85 88.52-9.794 177.406-27.586 264.376-2.075 10.799-5.386 21.324-7.768 32.05-1.065 4.13-3.03 9.85 1.393 11.901 30.02 16.86 62.035 29.96 94.016 42.547 15.898 6.562 32.34 11.688 48.427 17.715 8.385 2.939 16.908 5.485 25.398 8.095 8.16 1.786 17.365 6.147 25.12 6.316m-148-903h66v-178h-66zm0 224h66v-200h-66zm187-224h70v-178h-70zm0 224h70v-200h-70z" style="fill:#feddaa;fill-rule:evenodd;stroke:none"/><path d="M1044 1328.438c2.028 1.961 5.033 5.55 7.392 6.063 2.624-.085 5.405-3.08 8.417-3.917 57.782-31.815 112.161-70.638 158.691-117.584-.972 60.376-1.906 122.225-14.908 181.634-3.41 13.573-7.773 27.282-15.49 39.096-6.176 8.894-16.707 14.764-27.653 14.268-33.928.445-67.634-3.952-101.449-5.998.238 4.563-1.087 10.794 3.617 12.256 4.301 1.641 8.91 2.447 13.098 4.428 12.127 4.608 23.563 10.99 33.797 18.97 7.776 5.78 15.23 12.472 19.493 21.397 13.014 28.278 13.544 60.47 13.995 90.949 27.718-.336 55.527-3.141 82.205-10.94 17.946-5.62 35.33-14.388 48.897-27.662 40.08-43.144 53.983-102.945 63.492-159.023 12.773-88.649 11.565-179.005 2.234-267.892-8.608-82.407-31.371-165.067-78.828-233.983 14.97-15.024 29.256-30.681 42.973-46.852 7.324-7.685 13.722-16.147 20.644-24.167 4.878-7.543 13.936-15.771 18.383-24.481 12.307-.098 29.197 2.916 37-13.336-23.573-14.408-48.419-27.148-72.272-41.158-12.447-6.907-24.782-14.007-37.227-20.901-12.293-5.966-23.725-14.876-36.501-19.605-9.974 38.484-28.132 74.374-43 111-4.955-1.336-9.473-7.196-14.37-10.483-32.608-26.293-68.931-47.576-106.13-66.517l-7.5 7.5c21.8 21.861 42.619 44.895 60.427 70.169 13.01 18.46 25.641 37.546 34.712 58.294 1.415 4.066-2.251 8.329-3.911 11.635-29.735 56.451-65.862 109.374-107.228 157.902 2.525 3.147 4.737 6.53 7.5 9.5 47.834-27.026 94.35-56.903 136-93 4.626 6.58 4.696 18.535 6.974 24.425-9.898 64.139-29.129 127.377-55.144 186.85-25.02 57.877-58.125 112.643-98.33 161.162m30 1180.312c2.294 4.244 7.094 9.092 9.5 12.25 37.427-18.73 74.548-38.526 109.373-61.902 52.444-34.746 101.96-75.066 142.765-123.224a532 532 0 0 0 56.016-75.34c17.452-26.237 29.677-55.622 43.846-83.534 29.393 25.247 61.803 46.88 95.246 66.349 33.485 20.416 69.436 36.533 105.254 52.151-5.457 18.852-12.072 38.542-24.9 53.85-10.303 12.123-25.753 17.715-41.297 17.497-24.892.44-49.793-1.563-74.637-2.626-12.393-.455-24.72-1.8-37.11-2.306-6.112-.505-12.212-1.22-18.342-1.333-5.646-1.006-12.727.401-17.214-1.582-.866 3.033-.265 7.317-.5 11 35.983 7.88 73.191 20.208 100.602 46.102 13.395 12.544 21.65 29.418 25.176 47.265 4.356 19.596 4.547 39.695 4.222 59.633 52.935 1.316 109.35-8.7 150.986-43.783 20.151-15.828 36.314-36.47 47.204-59.614 11.871-23.897 19.036-49.927 25.81-75.603 20.936 5.164 41.56 13.015 63 16 2.693-16.227 9.609-31.629 16.68-46.337 9.172-21.918 28.353-43.398 45.338-56.601 10.034-6.795 20.824-12.838 32.245-16.991 5.78-2.174 11.624-4.14 17.703-5.332 7.79-.907 6.725-8.354 8.034-13.739-53.695-4.363-106.871-13.715-160-22 7.535-63.718 10.97-127.872 14.651-191.885 3.14-65.68 7.073-131.358 8.349-197.115 16.608-1.695 33.354-8.073 45-20.5-39.74-36.615-79.764-72.897-119.5-109.5-17.892 17.78-35.072 36.22-52.975 53.975-7.969 7.185-16.07 17.08-23.826 23.145-11.288 2.219-23.474-.165-34.957.88H1111c1.42 7.848 4.326 15.472 7.027 22.937 1.293 4.264 8.633 2.619 11.75 3.063H1355c-1.518 37.927-1.094 75.902-2.932 113.822-.487 18.719-1.316 37.475-2.84 56.13-2.11 17.545-1.572 35.867-5.728 53.048-39.6-34.875-74.339-75.933-99.5-122.5 12.586-14.116 23.757-29.613 36-44-15.568-7.516-33.697-10.335-49.5-17.5-2.138 8.358-2.013 17.355-3.435 25.876-.658 7.827-2.12 15.595-2.665 23.427.583 7.907-4.518 11.228-10.32 14.63-34.472 25.713-71.8 47.445-109.08 68.567 22.417 31.953 43.917 64.69 66.5 96.5 5.149-4.447 9.2-10.453 9.126-17.513-.62-5.897-4.123-11.364.527-17.692 19.735-37.916 38.291-76.627 55.347-115.795 22.612 53.82 47.896 107.064 82.878 154.19 3.289 4.72 6.739 9.336 10.202 13.926 1.227 2.118 4.077 4.755 3.876 6.832-15.5 85.461-47.723 167.959-92.912 241.978-43.967 72.018-100.965 137.236-166.544 190.074zM1342 879h118v136c38.57.778 77.929-1.722 114.273-16.111 4.064-1.654 8.372-3.321 11.506-6.537 2.983-3.385 2.043-8.281 2.221-12.47V879h88c.32 42.968-.39 85.978.21 128.923-.018 5.442 9.013 3.838 12.312 3.984 34.907-.717 70.493-3.932 103.15-17.387 3.93-1.859 8.854-3.896 11.733-6.739 3.192-3.5 2.486-8.668 2.595-12.965V879h120c10.037-.007 25.485.442 30.69-12.086 1.67-3.791-2.227-6.9-4.505-9.482-19.583-22.024-38.763-44.4-59.555-65.302L1866.5 766c-9.666 13.349-17.144 28.317-26.238 42.062-8.401 14.769-18.788 28.716-26.262 43.938h-8V749c13.33-3.164 31.284-6.429 34-26-27.194-3.214-54.703-4.633-81.978-7.309-27.358-1.848-54.63-5.366-82.022-6.691v143h-88V749c12.63-3.572 31.913-6.501 34-26-26.563-3.263-53.51-4.488-80.154-7.24-27.3-1.985-54.515-5.204-81.846-6.76v143h-125c1.032 9.249 5.44 17.852 7 27m43 707c29.1 1.033 58.659-1.291 85.734-13.08 12.292-5.044 24.517-10.894 34.916-19.281 2.436-2.196 5.461-4.88 6.534-7.77 2.007-11.1-.104-22.672.816-33.869h255v67c20.129-.085 40.5-.235 60.244-4.592 13.803-3.326 27.707-6.708 40.952-11.89 9.656-3.891 19.717-7.478 28.187-13.718 5.7-4.917 2.74-16.142 3.617-24.014v-394.585c.098-5.993-.124-11.986.08-17.974.01-4.943 4.204-5.966 8.167-7.157 5.897-1.77 11.527-4.323 16.663-7.707 4.076-3.43 10.852-6.589 12.09-11.363-40.803-28.34-78.795-62.41-119.5-91-13.3 12.761-24.62 27.31-37.468 40.477-5.066 5.93-11.401 12.585-16.162 17.916-5.612 7.99-13.527 7.177-21.724 6.607h-217.55c-11.127-.056-24.383-8.444-36.72-12.233-34.691-13.343-69.025-27.943-103.876-40.767zm274 579c12.24-126.66 18.377-253.852 23-381h-180c-3.994 87.961-9.564 176.355-27.302 262.795-2.037 10.767-5.159 21.274-7.652 31.925-1.056 4.07-3.421 9.589.994 11.609 29.709 16.74 61.425 29.649 93.062 42.206 32.123 12.045 64.555 24.308 97.898 32.465m-146-903h64v-176h-64zm0 224h64v-198h-64zm187-224h68v-176h-68zm0 224h68v-198h-68z" style="fill:#000;fill-rule:evenodd;stroke:none"/></svg>