<svg xmlns="http://www.w3.org/2000/svg" width="3000" height="3000"><path d="M449 2666.5v1.5h2102v-1.5c-63.81-378.768-126.215-757.87-189.705-1136.696-47.349-283.998-94.654-568.016-142-852-4.398-26.67-8.911-53.338-13.325-80.003-1.118-6.656-2.232-13.342-3.35-19.985-.571-3.586-1.119-7.183-2.096-10.662-1.288-2.958-6.82-3.128-9.193-4.54-101.51-33.828-203.017-67.663-304.512-101.514a746151 746151 0 0 1-266.522-88.84c-39.072-12.89-78.06-26.135-117.144-38.98-4.713-1.335-9.273 1.032-13.839 2.453-144.507 48.104-288.95 96.378-433.449 144.467-54.18 18.08-108.385 36.116-162.566 54.195-23.808 7.923-47.625 15.882-71.434 23.805-5.676 1.96-11.407 3.738-17.06 5.726-6.564 1.113-6.72 8.744-7.34 13.268C740.08 921.349 682.77 1265.54 625.383 1609.692 566.339 1961.663 508.308 2314.864 449 2666.5m605-728c1.084 3.957 2.598 7.751 3.521 11.78.825 3.3 1.889 6.519 3.01 9.705.934 2.286 5.262 1.6 7.095 2.013 7.982.006 15.97-.001 23.945.002h418.99c4.436-.068 8.972.303 13.306-.861 3.774-.832 7.585-3.785 11.133-4.139v397.2c.903 30.879-1.993 62.15 3.27 92.722 2.515 11.641 5.934 23.368 13.109 33.101 14.191 19.389 38.858 25.83 61.36 28.719 44.07 4.85 88.58 2.77 132.824 3.202 32.69-.221 65.418-.801 97.875-5.07 22.684-3.464 45.758-7.335 66.625-17.41 14.706-6.563 28.487-20.47 33.67-34.366 4.523-11.939 4.334-28.054-.444-38.727-3.54-8.954-10.438-15.843-18.462-20.843-5.712-3.822-12.07-6.557-18.194-9.627-5.008-2.01-3.281-10.683-3.994-14.831-1.585-16.135-2.133-35.165-3.46-49.966A26 26 0 0 1 1899 2319c7.73-.37 18.445-4.008 21-14-32.47-25.773-64.862-53.38-98.5-78-16.776 23.033-36.587 44.491-52.5 68h-110v-76h181.8c10.237-.164 20.451.21 30.67-.138 8.252-.33 18.837-6.037 19.53-13.862-30.2-23.882-59.254-52.255-92-73-6.26 11.37-16.832 20.558-23.903 31.534-6.149 7.828-12.355 15.65-18.509 23.474-2.294 2.544-4.92 7.473-8.098 7.64-29.781 1.006-59.682-.184-89.49.352v-72h190.8c10.63-.184 21.244.237 31.865-.161 7.827-.29 18.295-3.416 21.335-13.386-12.534-12.421-26.627-23.067-40.036-34.475-7.082-5.567-14.255-11.002-21.185-16.745-3.476-2.84-7.16-5.421-10.598-8.302-3.134-2.587-7.964-5.095-8.181-8.931 18.756-2.273 40.182-9.05 56.545-14.425 3.97-1.542 9.337-3.394 9.356-8.793.283-16.105-.052-32.229.099-48.331V1909c13.646-2.296 26.819-7.762 36-18.5-20.332-14.345-40.042-29.875-60.31-44.366-15.259-11.182-30.37-22.52-45.566-33.761-2.34-1.98-6.663-5.053-8.703-2.74-9.528 9.462-17.765 20.258-27.288 29.74-7.048 7.051-13.047 15.059-20.116 22.083-5.664 5.665-16.506 2.604-23.629 3.544H1663v-72h209.4c11.618-.002 23.22.002 34.832-.001 10.266.656 23.28-4.208 25.768-13.546-36.67-33.05-74.782-64.604-112.5-96.453-17.67 25.757-36.86 50.675-54.717 76.34-2.35 3.195-4.528 6.506-7.474 9.178-31.7 1.376-63.58-.25-95.309.482v-72.6c.144-6.2-.185-12.404.123-18.587-.157-4.975 5.317-4.923 9.096-5.878 5.735-1.616 11.78-3.577 16.12-7.88 4.107-4.042 6.514-9.478 7.661-15.055-53.779-2.216-107.226-9.733-161-12v306c-4.734-.217-9.104-5.667-13.355-8.904-27.222-24.073-54.66-48.647-83.145-71.096-18.066 24.891-37.16 49.74-54.5 75h-53v-2.5c10.812-11.86 23.008-22.239 34.342-33.507 15.68-18.296 34.143-34.072 49.244-52.904 4.076-4.32 7.974-8.785 11.878-13.246 2.953-3.417 5.629-7.095 8.986-10.125 11.197-2.39 29.355-1.371 33.55-18.718-37.789-8-75.209-18-113-26v-3c47.871-.78 95.876.951 143.702-.514 4.864-.758 10.472-3.621 12.94-7.517 3.596-4.522.178-8.268-3.375-11.202-23.352-21.471-46.716-42.989-71.46-62.904-7.396-6.335-14.826-12.644-22.307-18.863-11.724 14.153-21.391 29.992-32.737 44.448-5.442 7.7-11.192 15.17-16.629 22.863-2.748 3.634-5.586 9.105-9.92 9.45-5.063.509-10.15.049-15.214.239v-83c11.995-2.905 26.905-6.257 30-23-52.088-2.048-103.92-8.95-156-11v117c-50.264.76-100.81-.926-151 .5 3.328 7.354 4.397 15.845 7 23.5h66c10.665 28.15 20.308 57.005 22.803 87.293.672 8.165 1.2 16.354 1.098 24.535-.283 6.117-.546 12.259-1.149 18.346-.848 4.128 3.547 7.716 5.855 9.922 8.35 7.905 20.623 15.859 31.393 16.904v3h-143zm149-775.5c-.362 78.883-6.49 158.535-28.611 234.607-20.366 70.905-60.6 135.623-115.389 184.893 1.765 1.843 3.672 3.562 5.333 5.5 39.85-16.124 78.76-36.032 112.685-62.727 52.16-40.66 92.467-95.76 116.044-157.436 25.876-64.936 33.433-135.564 35.938-204.837h78v425c18.81.293 37.764.209 56.175-4.13 13.306-2.968 26.122-7.753 38.668-12.997 8.653-3.955 17.176-8.425 25.004-13.838 2.993-2.19 5.804-4.904 7.687-8.088 1.329-29.643-.241-59.479.466-89.155V1163h63c6.01 63.959 15.03 128.217 33.821 189.845 14.698 43.471 33.997 86.084 62.398 122.498 21.138 27.392 47.26 50.75 76.39 69.368 22.135 12.79 44.432 25.87 68.615 34.52 32.566 12.855 85.99 17.842 105.469-24.979 8.889-19.356-.177-41.019-10.728-57.322-2.636-3.874-5.144-7.857-7.968-11.595-2.153-2.874-4.415-5.697-6.221-8.802-2.222-11.694.781-24.053.263-35.876 1.781-25.865 2.454-51.784 3.961-77.657a28.1 28.1 0 0 0-8-1c-7.912 28.051-18.677 55.554-31.015 81.954-5.623 13.42-19.175 10.808-28.6 7.315-35.71-12.703-64.29-39.28-84.383-70.755-10.314-15.486-18.252-32.423-25.066-49.683-6.093-17.279-14.394-37.933-15.936-54.831 4.011.494 6.381 4.438 9.648 6.496 21.987 20.166 42.993 41.611 59.697 66.532 5.963 9.098 12.06 18.23 16.54 28.18 2.365 10.027 14.914 12.243 23.866 13.564 16.942 3.21 35.457-3.634 46.512-16.862 19.053-24.197 12.87-53.112-4.51-73.438-16.695-19.083-40.291-30.871-64.753-36.472.367-4.668 8.104-6.692 11.029-9.14 14.207-8.293 28.497-16.404 42.556-24.933 3.656-2.325 7.312-4.658 11.08-6.775 8.705-3.822 30.775 4.256 35.335-11.152-40.166-20.046-79.438-42.636-119.5-63-6.958 24.204-9.866 49.742-17.452 73.867-1.669 6.43-3.19 12.902-4.867 19.33-1.977 4.36-1.767 11.926-5.322 14.347-14.936-.23-29.922-1.338-44.859.456-4.364-27.45-8.608-55.137-9-83 12.296-2.728 25.504-5.316 35-14.5-18.273-14.244-37.305-27.553-55.846-41.44-9.306-6.964-18.62-13.886-28.03-20.687-4.557-3.606-9.374-6.845-14.037-10.298-4.444-2.689-9.666-8.435-14.087-9.075-11.78 16.873-28.941 30.476-41.586 46.91-3.712 3.426-7.434 8.109-10.673 11.38-2.962 2.578-8.638 1.33-12.882 1.71H1535V865c11.643-3.106 28.466-5.465 31-23-53.132-2.987-105.87-11.04-159-14v64c-5.075-.144-10.676-4.478-15.767-7.174-32.926-19.754-67.049-37.76-99.733-57.826-63.677 79.584-145.562 143.292-232.5 195.5.737 2.613 1.938 5.577 3.5 7.5 23.076-6.242 47.465-10.008 70.572-16.781 23.709-4.809 46.439-13.85 69.928-19.219v144h-145c1.386 7.506 4.746 14.685 7.028 21.937 1.199 4.092 8.114 2.706 11.136 3.063H1203m-96 1356c18.132.579 36.38.455 54.117-3.914 22.886-6.424 48.313-13.766 64.404-32.633 2.558-6.522.893-13.881 1.479-20.687V2281h110c-.017 34.393.02 68.809-.011 103.195.213 21.813-28.448 12.762-40.009 13.72-16.338-.692-32.677-1.747-48.98-2.915.218 3.171-.509 7.558 1.756 9.558 3.466.685 7.393 2.337 10.633 2.829 22.307 5.56 42.62 20.877 50.466 43.254 4.38 11.59 6.267 24.022 7.328 36.292.734 6.215 1.278 12.41 1.534 18.65.742 5.852-.52 13.33 1.783 18.417 20.67-3.507 42.457-4.442 62.717-10.923 16.892-4.38 35.942-13.068 48.239-23.425 12.323-10.113 20.136-24.643 24.045-39.835 7.994-28.896 7.405-59.167 7.499-88.853V2081c13.42-2.814 26.792-7.897 36-18.5-39.248-28.686-77.36-59.72-116.5-88.5-17.342 18.176-32.974 37.92-50.151 56.24-1.507 1.93-3.216 3.645-5.023 5.269-20.654 1.4-41.497-.254-62.191.491-14.546-.276-32.225 1.6-44.67-3.973-38.333-14.468-75.958-31.109-114.465-45.027zm8-1736.5c3.467 7.209 4.414 17.63 8.775 22.83 9.384 1.52 19.12.044 28.592.67H1594c4.38 49.407 14.532 98.47 29.886 145.6 22.525 67.272 65.595 128.85 125.868 167.27 30.286 18.437 62.899 34.011 97.43 42.63 31.241 7.318 77.355 8.42 93.682-34.594 4.961-14.239 1.693-30.238-6.146-42.842-5.124-9.36-11.893-17.657-18.899-25.643-6.376-6.019-2.498-17.334-2.873-25.024.546-13.447 1.219-26.882 1.827-40.318.443-6.914.568-13.84.856-20.748.112-3.28.247-6.58.32-9.855.23-2.935-.298-6.59 1.049-8.976-2.261-1.765-5.23-1.965-8-2.5-7.937 25.413-18.403 55.279-30.786 76.505-5.485 13.082-18.053 11.79-27.353 7.945-35.186-9.444-66.043-32.043-87.366-61.284-20.317-27.628-36.516-66.138-41.495-97.166 6.242.927 11.52 8.677 17.532 12.394 20.229 18.495 39.423 38.225 55.018 60.92 5.791 8.158 10.367 17.03 14.626 26.048 3.534 7.354 15.93 7.986 24.843 9.491 15.959 1.111 32.424-6.258 42.521-18.63 16.436-18.887 14.66-48.312-1.964-66.427-6.734-8.971-17.863-16.58-26.987-21-10.295-5.034-23.027-10.558-33.589-11.796.15-4.806 7.863-5.76 11.047-7.227 14.448-5.722 29.465-9.943 43.618-16.422 3.393-1.22 6.496-3.292 10.068-3.995 6.056-.993 11.994 1.723 18.033 1.333 5.608-.29 11.734-3.508 15.234-7.189-34.442-25.102-69.571-49.389-104-74.5-4.098 3.923-4.092 12.655-7.502 18.271-7.464 21.115-16.16 41.775-24.74 62.434-2.273 4.977-4.382 10.037-6.645 15.011-.915 1.867-1.968 3.741-3.325 5.309-15.21 2.937-31.512.35-46.788 3.975-3.49-16.43-5.747-33.255-7-50 11.763-1.32 26.077-5.706 34-13.5-36.64-26.288-73.463-52.87-110.5-78.5-13.805 15.048-27.428 30.253-41.521 45.03-5.598 6.498-12.014 15.16-22.24 13.97H1115zm42 997v1.5c36.47 10.921 73.407 29.112 96.179 60.96 10.805 15.836 17.18 36.967 9.718 55.679-7.161 17.879-22.91 34.566-42.897 37.361v3h48.6c11.539-1.026 25.841 1.354 36.181-.982 8.028-32.383 10.235-66.582 15.644-99.556 3.224-19.199 3.846-38.731 6.575-57.962-2.89-2.003-6.668-1.247-9.983-1.5H1157zm70 365.5h110v-84h-110zm0 112h110v-88h-110zm41-1285.5v1.5c31.066 1.823 61.932 6.355 93 8-.207 7.03-5.794 14.016-10.705 17.641-6.283 4.48-14.055 4.867-21.295 6.359v133h78V921c-13.02.41-28.515-4.376-38.187 2.145-32.446 17.77-66.16 33.929-100.813 46.855zm269 967v1.5c36.666 12.832 72.929 26.945 109.506 40.043 9.139 2.858 19.58 8.532 28.505 8.944 31.34.037 62.66-.006 93.989.013v-99h-106c-.335 6.151.938 14.33-2.003 18.843-6.773 7.501-18.84 10.716-26.959 14.274-31.009 11.658-64.216 14.724-97.038 13.883zm122 160.5h87c3.128-.05 7.476.42 10.16-1.958 7.433-8.049 13.36-17.439 20.419-25.8 3.486-4.29 6.935-8.614 10.274-13.016 2.777-4.067 7.737-8.392 8.147-13.226h-26v-31h-110zm230 220h-230v36c.373 8.428-.735 18.574 1.085 26.178 3.007 13.027 23.619 11.823 32.982 11.822h92.67c12.97.19 25.92.048 38.855-.822 8.752-.357 19.025-3.322 25.43-8.276 9.6-8.25 15.633-19.86 22.312-30.364 3.186-5.52 6.214-11.153 9.268-16.74 2.346-5.687 7.014-12 7.398-17.798" style="fill:#fedca9;fill-rule:evenodd;stroke:none"/><path d="M1533.5 1958c1.426 96.352-.26 193.063.5 289.477v156.426c.068 26.655 1.181 56.127 17.525 78.72 15.11 18.691 39.712 24.787 62.415 27.384 44.433 4.53 89.24 2.479 133.816 2.916 32.53-.256 65.114-.82 97.403-5.143 22.708-3.64 45.954-7.367 66.775-17.755 14.703-6.7 28.37-20.982 33.196-35.04 4.213-12.265 3.727-28.759-.858-39.65-3.538-8.936-10.436-15.817-18.445-20.807-5.712-3.822-12.07-6.557-18.194-9.627-5.008-2.01-3.281-10.683-3.994-14.831-1.923-16.132-1.782-35.3-3.639-50.07 8.29-.528 20.646-4.886 21-16-32.684-26.277-65.752-53.717-99.5-79-9.315 11.282-17.995 23.103-27.254 34.429-8.078 11.868-18.914 22.326-26.246 34.571h-108v-74h183c10.222-.245 20.455.323 30.657-.235 7.483-.913 18.565-5.751 18.343-15.765-29.718-25.066-60.226-51.155-92-74-16.961 20.12-32.435 41.792-49.33 62.017-2.067 2.937-7.956 1.477-10.824 1.983H1660v-70h187.8c14.555-.917 32.398 1.695 45.379-2.334 4.481-1.846 9.076-5.364 10.108-10.39 1.39-4.348-5.436-7.907-7.68-10.406-22.614-20.935-47.597-39.14-71.607-58.37 14.084-2.963 28.516-5.857 42.374-10.049 5.15-1.436 10.151-3.352 15.138-5.267 4.02-1.423 8.74-3.728 8.43-8.986.164-36.062-.029-72.139.058-108.198 14.27-2.17 27.586-8.304 37-19.5-19.19-14.488-38.796-28.468-57.978-42.97-9.964-7.004-19.492-14.578-29.444-21.597-9.471-5.842-18.853-15.822-28.265-19.933-9.092 9.943-17.965 20.05-26.928 30.098-7.158 7.222-13.343 15.292-20.492 22.503-5.825 7.353-15.482 5.217-23.11 5.399H1664v-70h226.8c9.014-.424 19.846.75 27.998-.978 6.005-1.767 15.374-5.905 14.652-14.428-35.913-34.443-75.67-64.686-112.95-97.594-18.248 25.364-36.676 50.624-54.812 76.075-2.478 2.934-4.723 6.99-7.3 9.396-2.37 2.413-7.504 1.028-11.082 1.529H1664v-73.2c.17-5.928-.315-12.978.435-18.354 1.119-3.408 7.884-2.262 10.288-3.916 11.89-2.335 21.942-11.848 22.277-24.53-54.45-2.004-108.553-10.1-163-12v306h-1.5c-30.773-27.476-61.642-55.498-94-81-10.225 12.001-18.653 25.504-28.25 37.99-8.568 12.912-19.353 24.788-27.25 38.01-16.898-.727-34.214.894-51-.5 10.899-12.03 23.336-22.464 34.723-33.945 15.766-18.432 34.321-34.345 49.571-53.254 4.1-4.544 8.143-9.117 12.21-13.688 3.191-2.617 5.702-8.717 9.466-9.208 12.212-1.534 29.01-2.968 33.03-20.405-19.055-3.24-37.676-8.935-56.613-12.824-19.099-4.623-38.475-8.322-57.387-13.676 28.241-1.426 56.703.259 84.98-.5h43.164c11.404.395 26.768 1.4 31.856-14.531-16.164-16.332-33.535-31.309-50.86-46.353-8.557-7.328-17.026-14.74-25.696-21.931-8.977-6.083-17.545-16.754-26.444-21.185-9.333 15.381-21.586 29.596-31.682 44.615-5.378 7.498-10.873 14.869-16.25 22.367-2.667 3.596-5.491 8.497-9.182 10.547-4.91.693-9.937.406-14.886.471v-81c12.255-2.908 28.766-6.903 30-25-52.756-1.947-105.226-9.322-158-11v117h-151v1.5c2.548 8.106 4.85 16.287 7 24.5h66c10.73 28.312 20.399 57.357 22.866 87.829.596 8.127 1.228 16.302.959 24.44-.193 6.02-.732 11.996-1.38 17.966-.253 4.377 3.529 7.228 6.433 10.122 8.657 8.192 19.403 14.62 31.122 17.143-47.606 1.426-95.366-.26-143 .5.8 6.576 3.983 15.09 6.079 22.642.71 4.444 8.163 3.053 11.112 3.358h438.162c8.64.484 17.92.632 25.147-5M1057 1022.333c1.37 2.7 2.676 6.073 4.647 8.174 3.982-.115 7.83-1.494 11.745-2.087 43.328-9.232 86.341-20.186 128.608-33.42v142h-145c.453 7.691 4.313 14.779 6.25 22.135 1.213 4.862 5.31 5.252 9.523 4.865H1202c-.581 78.556-6.693 157.873-28.895 233.603-20.812 70.838-60.819 135.836-116.105 184.897 2.885 2.93 6.257 7.382 11.14 5.365 4.47-1.683 8.78-3.688 13.19-5.518 26.696-11.108 52.098-25.06 76.145-41.043 36.026-23.926 71.625-60.972 94.616-93.108 25.325-36.493 43.424-77.807 56.062-120.293 14.62-53.376 20.064-108.772 21.847-163.903h76v425c19.301.267 38.781.4 57.687-4.036 13.477-2.947 26.476-7.784 39.156-13.091 8.808-4.01 17.442-8.613 25.41-14.115 2.477-2.49 6.79-5.216 7.275-8.394 1.346-30.033-.245-60.294.472-90.371V1164h61c6.01 63.959 15.03 128.217 33.821 189.845 14.698 43.471 33.997 86.084 62.398 122.498 21.228 27.504 47.472 50.915 76.742 69.57 22.307 12.877 44.787 26.098 69.216 34.648 32.585 12.154 85.264 17.63 105.884-23.888 9.367-18.998 2.268-41.056-8.184-57.676-4.624-8.32-10.945-15.526-16.101-23.464-2.096-10.424.686-21.553.214-32.112 1.43-27.127 2.864-54.273 4.01-81.421-3.262-.892-6.636-1.066-10-1-7.612 27.755-18.58 54.77-30.482 80.937-2.163 4.232-5.07 10.256-11.444 10.88-10.497.71-20.367-4.268-29.575-8.578-31.707-14.426-56.084-40.631-73.857-69.978-9.068-14.685-16.392-30.326-22.518-46.437-3.257-8.208-5.836-16.653-8.678-25-1.593-8.568-6.414-18.467-5.946-25.824 20.717 18.477 41.262 37.346 57.41 60.175 6.149 7.94 11.971 16.182 17.142 24.783 4.855 7.45 8.706 15.67 12.297 23.684 13.955 7.184 34.29 9.274 47.818 3.885 24.164-8.185 36.988-35.197 31.927-59.426-4.97-23.426-22.857-42.118-43.428-53.153-11.475-6.486-24.314-10.223-36.666-14.448 15.552-9.753 32.084-18.194 47.679-27.959 8.561-5.076 16.784-12.262 27.153-11.541 9.02-.004 20.168.882 26.168-10-18.962-13.191-41.526-21.364-61.187-33.593-20.72-10.452-40.905-22.46-61.813-32.407-5.049 24.828-10.237 49.77-16.798 74.256-1.601 6.267-3.12 12.544-4.729 18.8-1.205 4.951-2.361 10.02-4.414 14.678-7.011 2.166-14.396-.925-21.835.266-7.425-.054-14.826.541-22.224 1-4.328-26.786-8.391-53.801-9-81 12.691-2.849 26.52-5.543 36-15.5-18.155-14.871-37.886-27.808-56.448-42.175-19.36-13.155-37.194-28.714-56.864-41.325-13.524 16.055-28.81 30.626-42.27 46.739-3.505 3.864-7.26 7.505-10.556 11.555-2.828 3.322-8.3 2.693-12.204 2.706H1536V866c11.968-3.016 30.325-6.157 31-25-53.813-2.614-107.178-11.59-161-14v64c-31.866-16.276-62.207-36.175-93.768-53.175-5.895-3.355-11.65-6.997-17.684-10.093-5.488-3.685-10.161 7.173-13.502 9.948-62.68 74.466-141.152 134.532-224.046 184.653M1106 2520c18.454.485 37.055.635 55.144-3.716 12.544-2.782 24.629-7.38 36.499-12.19 8.05-3.697 17.158-9.032 23.197-14.52 2.529-2.345 5.65-5.229 6.542-8.368 1.763-27.765-.32-55.878.618-83.712V2282h108c-.092 34.21.112 68.43-.06 102.627-.06 10.158-7.832 13.104-15.834 13.256-24.392-.662-48.742-2.638-73.106-3.883.324 3.682-1.09 11.026 3.14 11.852 4.073 1.425 8.38 2.047 12.443 3.513 21.572 5.9 40.365 22.105 47.784 43.57 8.508 23.144 6.644 48.103 9.633 72.065 22.931-3.04 46.26-4.808 68.474-11.856 16.138-4.685 31.911-11.809 44.982-22.492 20.217-16.804 27.277-43.56 29.501-68.601 3.176-27.68 1.498-55.682 2.043-83.456V2082c14.022-2.751 27.545-8.465 37-19.5-39.662-29.914-78.938-60.485-118.5-90.5-17.423 18.255-33.25 38.001-50.435 56.466-2.996 4.023-5.912 7.591-12.162 6.534h-60.565c-7.609-.007-15.192.009-22.79-.005-6.275.227-11.867-2.856-17.602-4.87-38.031-14.843-75.813-30.677-113.946-45.125zm7-1738.75c2.165 4.176 3.387 10.685 5.564 15.92 1.404 3.652 1.952 9.4 7.083 9.67 14.356.455 28.742-.082 43.1.16H1593c4.38 49.407 14.532 98.47 29.886 145.6 22.488 67.131 65.396 128.57 125.477 167.009 30.208 18.504 62.785 34.01 97.232 42.756 31.432 8.825 80.597 7.371 95.7-32.81 5.873-15.408 2.995-33.111-5.825-46.877-5.487-9.962-12.9-18.659-20.317-27.192-3.19-3.607-1.787-10.232-1.618-13.908 1.232-16.809 1.095-33.664 2.432-50.462.378-8.52.611-17.072.927-25.594.154-4.04.14-8.136.512-12.14-.309-3.303-7.3-2.815-9.406-3.382-7.937 25.413-18.403 55.279-30.786 76.505-2.244 4.565-6.773 9.544-11.623 10.228-38.42-3.81-72.497-29-96.626-57.544-22.031-29.597-39.308-64.691-45.465-101.189 21.632 16.596 41.132 35.775 58.012 57.193 6.073 7.862 12.265 15.74 17.293 24.332 2.294 3.775 4.41 7.641 6.279 11.643.957 1.888 1.899 3.78 2.844 5.668 2.8 6.908 13.54 8.3 21.812 9.735 28.434 4.761 58.533-17.884 59.226-47.433 1.238-15.177-4.715-29.708-14.644-40.985-8.933-10.919-21.45-17.885-34.118-23.436-8.086-3.628-16.705-6.003-25.204-8.217 3.356-2.776 7.963-3.265 11.841-5.036 14.77-5.578 29.915-10.23 44.332-16.727 3.445-1.47 6.843-3.58 10.72-3.5 10.598 1.372 22.705 4.704 32.107-6.737-17.452-13.61-36.116-25.685-53.877-38.895-9.093-6.429-18.085-12.96-27.168-19.381-4.544-3.23-9.068-6.484-13.602-9.707-4.317-2.646-8.844-7.145-13.353-8.517-7.55 24.426-17.268 48.23-27.106 71.818-2.426 5.824-4.805 11.64-7.447 17.36-1.822 4.31-3.53 8.729-6.331 12.508-6.43 2.632-16.07.71-22.884 2.03-6.498 1.192-14.305-.046-21.732 2.284-4.913-15.38-5.077-32.124-7.5-48 6.771-.466 13.29-2.641 19.665-4.749 5.44-2.508 13.792-5.738 15.335-11.251-38.373-24.54-74.529-53.64-112.5-79-14.151 14.903-27.399 30.606-41.872 45.21-5.084 6.314-12.678 15.711-22.29 14.79H1113zm45 998.125c35.941 12.484 74.046 28.996 96.45 61.963 11.01 16.335 16.968 38.143 9.447 57.3-7.029 18.582-23.14 33.78-42.897 37.862 13.478 1.235 27.118-.068 40.627.5h31.15c3.66-.425 8.739.794 11.355-1.339 5.461-23.242 7.615-47.33 11.4-70.893 4.93-27.754 6.566-56.595 10.468-84.268-2.826-2.03-6.58-1.241-9.898-1.5-52.61.57-105.592-.695-158.102.375M1228 2144h108v-82h-108zm0 112h108v-86h-108zm41-1284.75c30.332 6.069 63.829 3.457 94 10.25-2.673 6.509-4.652 13.918-11.355 17.895-6.327 4.718-14.274 5.085-21.645 6.605v131h76V922c-6.741-.065-13.476-.548-20.181-1.155-10.82-1.932-19.865 5.943-29.028 10.712-28.632 14.514-57.729 28.404-87.791 39.694m269 967.125c35.69 14.233 72.609 26.471 108.542 40.328 9.158 2.752 19.451 8.46 28.305 9.26 31.051.104 62.107-.018 93.153.037v-97h-104c-.335 6.151.938 14.33-2.003 18.843-6.773 7.501-18.84 10.716-26.959 14.274-15.312 5.328-31.207 9.066-47.219 11.542-16.417 3.07-33.348 1.991-49.819 2.716M1660 2098h84.6c3.41-.157 7.716.428 10.022-1.567 7.622-7.437 12.986-16.993 20.029-24.945 6.305-8.435 13.336-16.339 19.349-24.988-8.532-1.276-17.403.11-26-.5v-31h-108zm228 222h-228v35.15c.336 8.251-.757 18.214 1.264 25.611 3.337 12.326 23.071 11.163 32.205 11.239h90.871c12.902.182 25.794.056 38.666-.79 8.545-.384 18.75-2.95 25.136-7.687 9.957-7.63 15.66-19.383 22.386-29.592 6.146-11.051 12.957-22.088 17.472-33.931" style="fill:#000;fill-rule:evenodd;stroke:none"/></svg>