<svg xmlns="http://www.w3.org/2000/svg" width="3000" height="3000"><path d="M448 2669h2104c-108.019-653.996-218.137-1307.761-326.618-1961.691-6.813-40.83-13.621-81.671-20.41-122.502-.9-5.185-1.732-10.375-2.627-15.558-.693-5.948-7.25-6.546-11.566-8.162a2264805 2264805 0 0 1-451.953-150.644c-56.522-18.824-113.032-37.715-169.56-56.514-12.477-4.17-24.972-8.31-37.44-12.486-6.015-1.98-11.998-4.026-18-6-5.943-1.873-12.256-5.247-18.565-3.023-92.812 30.91-185.585 61.892-278.396 92.78-138.737 46.826-278.12 92.047-416.698 139.266-3.665 1.962-2.298 9.57-3.876 12.727-22.4 134.514-44.811 269.006-67.243 403.502C635.746 1543.503 540.855 2106.166 448 2669m598-406.437c.777 2.24 2.996 3.55 4.344 5.437 31.726-15.751 61.47-35.528 90.319-56.003 14.437-10.94 28.823-21.958 42.518-33.822 6.59-6.323 13.926-11.854 20.421-18.277l9.768-9.768c3.326-2.937 6.624-7.71 10.63-8.13-.607 61.89-.266 124.82-14.374 185.472-3.216 13.797-9.195 29.566-16.565 40.336-7.125 10.53-17.247 13.568-28.516 14.046-17.753.51-35.46-1.307-53.17-1.898-15.42-1.665-32.992-.952-50.875-3.956-.807 2.772-.312 6.633-.5 10 27.254 5.032 58.386 23.043 72.138 44.966 7.162 13.856 10.218 29.277 12.155 44.631 1.997 15.702 2.574 31.591 2.707 47.403 27.035-.025 54.12-3.24 80.126-10.599 18.68-5.283 36.084-14.518 50.332-27.748 19.645-18.985 34.046-48.39 43.263-71.26 10.834-27.726 16.528-57.09 21.913-86.236 7.01-44.02 9.527-88.63 9.366-133.157 15.205-5.365 29.855-12.462 44.805-18.538 7.507-3.106 14.784-6.66 22.03-10.324 7.112-2.31 15.863-8.648 22.165-9.138v365c28.297-.05 57.577.965 84.726-8.755 11.919-3.998 24.877-11.416 34.24-18.055 2.51-2.075 4.984-4.388 6.568-7.241 1.164-10.905-.077-22 .466-32.949h176v62c19.924.395 40.06.84 59.593-3.924 13.698-2.935 27.329-6.314 40.54-10.987 8.838-4.003 20.747-6.881 27.352-13.228 2.986-3.14 2.544-7.69 2.515-11.741V2143c13.285-1.564 27.186-10.539 36-18.5-19.514-15.539-39.9-30.02-59.475-45.475-20.026-14.102-38.682-30.794-59.197-44.025-14.173 14.789-27.03 30.729-41.142 45.568-5.186 5.224-10.481 12.346-15.64 16.665-14.756 2.092-30.309-.302-45.233.767h-68.4c-11.415-.003-22.8.003-34.205-.002-10.145.216-19.06-5.73-28.708-7.998.508-4.26 6.211-6.273 9.057-8.7 27.63-18.547 53.928-39.01 79.95-59.71a1316 1316 0 0 0 57.325-49.02c3.622-2.756 10.365-.897 15.319-1.57h182.177c18.15-.632 42.546 4.065 51.172-13.5-17.509-15.104-34.243-31.124-51.98-45.979-8.817-7.803-17.816-15.432-26.822-23.016-9.017-6.856-17.114-15.553-26.698-21.505-14.776 18.898-28.103 38.954-42.878 57.866-3.6 4.972-7.1 10.019-10.888 14.842-5.274 8.935-19.009 5.746-27.665 6.292H1734c.677-5.006 7.304-8.805 10.733-13.233C1802.475 1872.025 1858.87 1808.213 1902 1736c7.333.965 14.773 1.5 22.066-.127 6.583-1.092 11.577-5.704 15.934-10.373-22.783-13.894-47.98-23.811-71.366-36.677-11.88-6.002-23.532-12.433-35.506-18.261-6.159-3.067-12.31-6.165-18.462-9.237-5.887-2.375-13.36-7.575-18.666-8.325-12.658 34.636-32.616 66.248-49 99-5.75.162-10.86-6.483-16-10.193-14.898-11.398-28.354-25.635-44-35.807-7.099 13.058-19.605 26.427-26.933 37.982-4.62 6.548-9.568 12.85-14.128 19.437-2.38 3.172-4.789 6.335-7.015 9.611-2.06 2.954-4.61 6.813-7.924 6.97v-94.8c.1-4.45-.891-10.34 3.82-11.305 10.6-2.86 24.369-6.456 26.18-21.895-51.383-4.162-103.343-7.936-154.5-13-1.426 48.201.26 96.732-.5 145h-139c.938 4.214 2.651 8.233 3.569 12.453.9 2.915 1.504 5.904 2.744 8.693 1.218 4.65 10.2 1.939 13.246 2.854H1506v138h-124.8c-12.938.85-28.462-1.184-40.2 1 .938 4.214 2.651 8.233 3.569 12.453.9 2.915 1.504 5.904 2.744 8.692 1.224 4.65 10.22 1.94 13.264 2.855H1586c-1.024 6.84-10.076 12.007-14.476 18.177-17.86 20.651-37.898 39.304-57 58.798-4.655 5.048-10.081 9.251-14.999 13.99-3.797 4.734-8.652 4.182-13.326 1.73-14.76-5.88-30.144-10.395-44.699-16.695-1.381 15.95.215 32.207-.5 48.227-.104 6.036.283 12.158-.535 18.137-13.156 12.644-28.828 22.443-43.038 33.795-7.31 5.4-14.86 10.515-22.288 15.747-7.181 3.908-16.1 12.438-23.139 13.094.193-46.829-3.83-93.613-10.49-139.944-8.917-66.276-27.857-131.812-62.737-189.346-3.04-6.222-9.536-13.447-12.274-20.357 3.317-5.898 9.798-10.372 14.234-15.586 18.118-17.385 34.36-36.46 50.99-55.213a459 459 0 0 0 11.934-14.636c2.997-3.482 5.667-7.292 8.88-10.578 2.387-2.655 7.114-1.776 9.843-1.53 9.853.599 24.425-1.321 26.62-11.81-48.372-24.644-93.639-56.354-142-81-12.035 39.197-31.087 75.885-48 113-5.766-.205-11.067-6.667-16.214-10.372-34.769-26.908-72.352-50.341-112.37-68.628-1.748 1.9-3.62 3.655-5.416 5.5 22.33 21.917 43.636 44.97 62.091 70.304 13.285 18.46 26.039 37.426 35.822 58.017 3.181 5.154 1.29 9.677-1.758 13.767-31.82 55.947-69.347 108.716-113.155 155.912 1.822 2.764 4.042 5.112 6.344 7.5 25.248-12.049 49.27-27.054 72.83-42.109 12.046-7.822 23.948-15.858 35.375-24.561 5.836-4.269 11.604-8.627 17.235-13.162 5.249-3.529 11.623-10.838 17.216-11.168 3.197 8.436 3.97 17.37 1.496 26.153-10.361 64.122-29.022 127.036-55.238 186.44-25.154 56.871-56.692 112.172-97.258 159.407zM1087 1426c16.147.32 32.424.535 48.16-3.581 10.768-2.545 21.367-6.099 31.233-11.131 7.292-3.443 14.371-7.39 20.414-12.778 6.027-4.493 7.801-10.296 7.193-17.037V1279h42v91c31.167 1.016 62.729-4.516 90.765-18.84 6.045-2.674 16.415-7.114 17.06-13.429.498-25.357-.09-50.722.175-76.077V881c11.45-1.404 25.025-8.023 32-16-21.504-18.39-44.998-34.69-66.875-52.68-8.287-6.715-16.822-13.055-25.199-19.637-1.905-1.442-3.763-2.935-5.782-4.188-7.995 2.562-13.667 13.846-20.014 18.875-5.653 5.85-10.74 12.189-16.73 17.732-4.904 4.881-8.661 11.03-14.56 14.9-6.36 1.952-13.72.377-20.33.998-11.558.83-21.872-4.766-32.237-9.093-29.24-11.476-57.82-25.085-87.273-35.907zm107-172h42V866h-42zm76 325.25c1.584 2.806 4.102 6.458 5.5 8.75 97.35-8.763 196.355-25.471 287.247-63.684 21.422-8.254 41.866-18.767 61.59-30.433 3.879-2.097 7.473-4.621 11.331-6.724 3.397-2.259 8.713.384 12.261.433 7.621 1.164 16.524-.42 21.837-6.496 2.753-2.547-3.673-5.492-4.838-6.796-40.154-28.34-82.27-54.398-121.928-83.3v-2h362.4c13.62-.312 34.377 3.055 42.6-13.5-14.965-12.965-30.346-25.488-46.197-37.37a1226 1226 0 0 0-23.777-18.105c-4.043-2.943-7.972-6.04-12-9-3.528-3.066-9.612-5.626-10.026-10.025 7.257-1.432 16.505-6.053 24.331-9.938 4.743-2.552 5.047-6.899 4.669-11.55V1026c11.037-1.817 24.945-7.918 31-16.5-17.05-13.441-34.779-26.044-52.03-39.237-8.753-6.735-17.733-13.185-26.487-19.903-4.494-3.216-8.76-6.713-13.257-9.905-3.984-3.27-10.38-6.454-10.226-11.455 17.13.26 34.215-1.432 51.162-3.651 22.388-3.241 51.866-8.473 62.174-27.2 5.945-10.284 6.442-26.4.041-35.497-6.645-9.553-17.383-15.093-28.018-19.023-3.644-1.422-7.372-2.687-10.884-4.393-2.032-1.787-1.139-5.97-1.852-8.866-.69-8.821-2.029-17.551-2.623-26.37h-8c-6.206 13.136-19.38 25.416-29.457 33.782-10.66 9.304-25.193 11.577-38.822 11.27-52.024 2.36-104.181.93-156.237 1.948-26.108-.275-52.186.338-78.277-.189-11.153-1.033-27.659 1.096-34.021-8.002-2.907-5.401-1.949-12.874-2.186-18.207V806c58.678-.399 117.411-2.18 175.905-6.694 28.355-2.032 56.65-4.626 84.76-8.913 6.999-1.062 14.034-1.915 21.018-3.019 10.663-2.18 20.864 3.025 31.283 4.844 10.21 2.359 20.679-1.186 29.034-6.718-23.347-20.758-47.318-40.836-70.86-61.384-4.47-3.72-8.782-7.643-13.147-11.457-4.137-2.99-8.581-9.166-13.24-7.417-39.677 16.486-80.438 30.24-121.687 42.175-40.738 10.996-81.498 23.146-123.066 30.583v-19.8c.276-4.792-.405-10.51.387-14.863-.215-3.455 5.612-3.726 7.833-4.658 9.792-1.991 17.427-8.928 20.78-18.179-44.75-5.13-90.105-7.163-135-11.5v107.4c.362 25.288-2.648 51.985 7.274 76.062 6.741 16.938 22.684 27.793 40.03 31.62 27.923 7.425 57.316 7.346 85.955 7.918h89.894c52.977.782 105.909-.973 158.847-2-.274 3.222-2.993 5.357-5.068 7.624-7.713 8.848-17.415 18.585-24.426 26.751-3.154 4.23-7.311 7.574-10.677 11.61-3.24 3.18-6.586 8.812-10.64 9.57-20.853 1.269-41.884-.23-62.775.445h-47.344c-10.742.12-20.291-5.881-30.195-9.233-29.07-10.786-57.624-23.694-86.875-33.767v393c21.904 2.88 44.458-1.804 65.154-8.56 9.903-3.47 19.678-7.715 28.601-13.29 3.82-2.676 9.785-6.302 11.345-10.053 1.575-5.174.523-10.796.9-16.097h131v27c13.325-.128 26.834.477 40-2-.079 4.762-5.414 9.042-8.346 13.453-5.324 6.168-10.283 12.646-15.407 18.976-3.881 6.686-11.08 11.564-14.247 18.571h-284v-336c-1.42-9.976 7.637-10.322 13.974-12.696 5.985-2.746 11.314-8.491 12.026-15.304-44.669-3.802-89.36-7.933-134-12v451c12.07-.023 24.16.304 36.178-.844 16.653-2.406 33.22-6.543 48.657-13.288 6.962-3.046 14.533-5.687 19.99-11.26 5.14-5.482 2.27-16.489 3.175-24.608h49v1.5c-2.268 5.64-8.48 11.337-12.901 16.858-34.42 39.288-76.617 70.769-119.418 100.2-43.189 28.001-88.972 52.183-136.681 71.442zM1567 2260h176v-138h-176zm0 169h176v-144h-176zm64-512h2c14.655-17.15 27.952-35.723 41.4-53.871 6.404-9.145 12.864-18.239 19.18-27.436 3.24-4.605 6.58-9.113 9.56-13.894 2.427-4.153 6.675-9.696 6.86-13.799h-79zm10-845h131v-61h-131zm0 94h131v-70h-131zm0 98h131v-73h-131zm55 151.328c46.688 39.95 93.604 82.195 131.46 131.278 4.85 6.017 9.185 12.45 13.507 18.846 3.565 4.551 7.129 12.588 11.193 15.208 10.958 4.182 25.25 6.871 36.006 5.652 17.623-2.18 34.298-11.533 43.763-26.772 9.708-15.23 11.852-34.294 6.825-51.428-12.829-41.851-53.381-67.278-92.387-80.484-44.324-16.036-91.96-18.106-138.541-17.627-5.2-.68-9.137 1.872-11.826 5.327" style="fill:#fda;fill-rule:evenodd;stroke:none"/><path d="M338 2761.5c387.06 1.426 774.925-.26 1162.15.5 387.224-.76 774.71.926 1161.85-.5-77.265-456.459-152.125-914.01-228.874-1370.691-28.417-170.851-56.988-341.657-85.4-512.497-12.491-74.824-24.942-149.684-37.431-224.508-5.828-35.176-11.741-70.32-17.569-105.492-3.54-17.097-4.968-34.714-9.072-51.664-1.3-3.941-8.915-3.966-11.797-5.85-133.175-44.44-266.372-88.79-399.558-133.193-116.482-38.867-233.005-77.647-349.48-116.505-6.56-1.974-12.94-4.527-19.527-6.382-6.558-1.31-12.878 2.396-19.017 4.029-100.339 33.452-200.674 66.889-301.01 100.324-87.802 29.33-175.659 58.504-263.446 87.829-38.52 12.817-77.015 25.657-115.52 38.495-18.005 5.974-35.995 12.026-54 18-8.822 2.95-17.652 5.903-26.471 8.83-4.346 1.012-8.371 2.451-8.57 8.208-90.761 544.76-181.624 1089.514-272.367 1634.27-35.423 208.458-69 418.87-104.891 626.797m111-95v1.5h2102v-1.5c-63.81-378.768-126.215-757.87-189.705-1136.696-47.349-283.998-94.654-568.016-142-852-4.398-26.67-8.911-53.338-13.325-80.003-1.118-6.656-2.232-13.342-3.35-19.985-.571-3.586-1.119-7.183-2.096-10.662-1.288-2.958-6.82-3.128-9.193-4.54-101.51-33.828-203.017-67.663-304.512-101.514a746151 746151 0 0 1-266.522-88.84c-39.072-12.89-78.06-26.135-117.144-38.98-4.713-1.335-9.273 1.032-13.839 2.453-144.507 48.104-288.95 96.378-433.449 144.467-54.18 18.08-108.385 36.116-162.566 54.195-23.808 7.923-47.625 15.882-71.434 23.805-5.676 1.96-11.407 3.738-17.06 5.726-6.564 1.113-6.72 8.744-7.34 13.268C740.08 921.349 682.77 1265.54 625.383 1609.692 566.339 1961.663 508.308 2314.864 449 2666.5" style="fill:gray;fill-rule:evenodd;stroke:none"/><path d="M1193 1254h2V867h38v-2h-20.4c-6.112.424-14.779-.758-19.6 1zm.5 138c2.385-3.239 1.05-9.016 1.5-13.495V1280h38v-2h-20.4c-6.112.424-14.779-.758-19.6 1 .76 37.582-.926 75.526.5 113" style="fill:#7f6e55;fill-rule:evenodd;stroke:none"/><path d="M1044 2263.625c2.229 2.066 4.351 4.238 6.5 6.375 62.751-33.99 122.408-75.217 172-127 1.823 31.468-.804 63.326-1.813 94.814-1.39 22.82-3.375 45.679-7.713 68.146-2.4 16.578-7.291 32.706-13.638 48.139-4.743 10.311-11.78 21.642-23.622 24.703-9.626 2.796-19.654 2.402-29.525 1.78-29.064-1.567-58.263-2.372-87.189-5.582v12c27.254 5.032 58.386 23.043 72.138 44.966 7.162 13.856 10.218 29.277 12.155 44.631 1.997 15.702 2.574 31.591 2.707 47.403 27.338.039 54.804-2.99 81.146-10.302 19.033-5.285 36.816-14.576 51.312-28.045 19.845-19.246 34.471-49 43.61-72.226 10.848-28.155 16.447-57.913 21.941-87.44 6.56-43.324 9.203-87.19 8.991-130.987 29.82-10.535 58.192-25.178 87-38v365c28.604-.066 58.173 1.077 85.7-8.401 12.446-4.136 24.084-10.536 34.8-18.031 2.707-1.995 4.926-4.467 6.862-7.177 1.583-10.956-.095-22.346.638-33.391h174v62c20.26.382 40.726.83 60.634-3.7 14.023-3.038 27.968-6.402 41.5-11.211 8.932-4.068 21.165-6.952 27.68-13.61 2.78-3.309 2.105-7.889 2.186-11.958V2144c13.745-1.63 28.122-10.977 37-19.5-19.457-16.075-40.39-30.358-60.074-46.15-20.23-14.852-39.885-31.079-60.426-45.35-14.365 14.413-26.797 30.61-41.046 45.132-4.882 4.824-10.054 12.05-15.534 17.124-2.96 2.198-6.878 1.631-10.398 1.744h-127.668c-6.918-.16-14.24.787-20.796-1.975-5.56-2.423-11.724-3.637-17.058-6.525 37.964-25.757 74.54-53.636 109.804-82.99 6.634-5.538 13.096-11.276 19.661-16.863 6.388-4.764 12.558-12.107 18.585-16.181 69.976-1.328 140.15.241 210.16-.466 8.15-.123 16.655.458 24.441-2.496 3.144-1.302 6.316-2.914 8.621-5.484 1.547-1.844 4.33-6.326 2.51-8.11-16.722-16.123-34.743-31.018-52.02-46.56-18.067-14.258-34.49-31.082-53.262-44.35-15.238 18.665-28.245 39.156-43.237 58.03-3.583 4.991-7.135 9.989-10.89 14.846-2.848 4.767-6.176 7.667-11.518 7.116-15.193-.677-30.78.862-45.855-.492 62.825-62.903 121.425-131.658 168-207.5 12.555 2.66 30.14 1.736 39-12.5-23.732-12.904-48.342-24.31-72.366-36.677-24.244-12.308-48.232-25.164-72.8-36.823-5.853 7.114-7.146 17.228-12.272 24.855-10.794 26.015-26.577 49.826-38.562 75.145-5.17-.949-9.49-7.775-14.763-10.816-14.16-12.336-28.838-24.192-43.237-36.184-19.321 24.204-36.339 50.609-55.5 75-1.426-24.88.259-50.174-.5-75.129v-19.143c-.12-4.304-.585-9.412 5.282-10.286 10.71-2.604 24.58-7.751 24.718-23.442a12934 12934 0 0 1-157-13v145h-139c.84 7.346 4.313 15.56 5.853 22.12 1.246 4.862 7.114 3.687 10.712 3.88H1505v136h-124.8c-12.938.85-28.462-1.184-40.2 1 .84 7.345 4.313 15.56 5.853 22.12 1.237 4.864 7.143 3.689 10.728 3.88h13.17c71.657.76 143.712-.926 215.249.5-19.929 23.541-41.913 45.21-63.87 66.87-5.602 5.274-10.658 11.199-16.663 16.024-4.387 3.199-8.264 9.996-13.334 8.654-16.782-4.98-35.584-14.077-51.133-18.048v48c-.156 5.75.314 12.624-.473 17.838-5.35 6.928-14.127 11.347-20.495 17.396-21.832 15.232-42.447 33.287-66.032 45.766.117-62.137-6.937-124.297-18.308-185.317-12.457-57.62-33.363-114.8-67.692-163.183 20.352-20 40.64-40.068 58.814-62.066 9.344-10.718 18.367-21.71 27.35-32.729 2.29-2.692 5.974-2.128 9.974-1.753 9.445.465 23.306-.613 27.862-12.296-23.506-14.525-48.016-27.767-71.743-42.006-12.045-7.309-24.36-14.128-36.505-21.244-12.202-5.914-25.061-16.079-36.752-20.406-11.128 39.763-31.493 76.462-48 114h-1.5c-37.91-32.655-81.44-57.794-126-80l-7.5 7.5c22.48 21.957 43.917 45.043 62.47 70.478 13.413 18.581 26.3 37.635 36.21 58.356 3.048 4.781 1.121 8.784-1.77 12.692-32.106 56.092-69.588 109.333-113.91 156.474 2.67 3.309 5.296 6.668 8.5 9.5 24.49-13.288 49.329-26.506 72.406-42.279 12.049-7.765 23.863-15.89 35.37-24.429 11.857-7.394 21.799-18.253 33.724-25.292 3.783 9.613 3.427 17.536 1.089 26.738-10.895 64.078-29.197 127.235-55.993 186.527-13.407 28.842-27.202 57.793-44.339 84.643-15.403 26.223-34.28 50.844-52.757 74.717M1086 1427c16.4.173 32.993.764 49.014-3.314 10.986-2.56 21.797-6.072 31.883-11.14 7.463-3.532 14.732-7.504 20.91-13.036 6.556-4.675 6.836-11.084 6.193-17.932v-82.98c.182-5.134-.25-10.308.204-15.425-.008-4.267 4.558-4.262 7.9-4.171 10.942.396 22.04-.734 32.896.998v91c31.848 1.155 64.114-4.03 92.765-18.84 6.512-3.127 16.617-6.875 17.123-14.008.32-25.756-.058-51.536.112-77.296V882c11.563-1.161 27.793-9.277 33-17.5-16.682-13.634-34.026-26.456-50.867-39.883-8.76-6.469-17.06-13.525-25.739-20.077-8.666-5.783-17.07-14.863-25.066-18.54-12.894 13.297-25.196 27.156-38.125 40.414-4.383 4.555-9.836 12.708-15.49 13.423-13.085 1.191-26.38.943-38.221-5.104-32.953-13.205-65.379-28.024-98.492-40.733zm108-174h41V867c-6.84-1.304-13.851-1.005-20.764-1-6.285.48-15.269-.812-20.236 1zm479 225.313c-42.72-29.65-86.174-58.332-129-87.813 91.474-1.426 183.453.26 275.023-.5h68.98c16.407-.909 36.654 1.978 51.145-3.209 4.025-2.318 11.252-8.279 8.64-12.875-28.255-26.11-60.67-47.587-90.788-71.416 8.787-3.905 20.939-7.069 27.575-13.238 2.778-2.852.524-9.581 1.425-12.945V1027c11.457-1.919 25.892-8.363 32-17.5-33.524-27.005-69.31-51.21-103-78V930c17.13.26 34.215-1.432 51.162-3.651 22.533-3.2 52.188-8.581 62.367-27.548 5.523-10.398 6.134-26.31.744-35.823-6.191-10.138-17.133-15.825-27.807-19.945-3.728-1.43-7.507-2.716-11.142-4.36-2.797-.963-2.022-5.92-2.605-8.162-.677-9.195-2.083-18.322-2.719-27.511h-10c-6.16 12.91-19.043 25.179-29.007 33.416-10.427 9.167-24.62 11.953-38.098 11.612-51.622 2.26-103.36 1.045-155.013 1.972-25.913-.226-51.848.277-77.756-.152-11.315-1.035-26.84.956-34.19-6.916-3.565-4.881-2.758-12.42-2.936-17.544V807c59.238-.365 118.537-2.265 177.593-6.842 28.75-2.069 57.47-4.855 85.972-9.172 7.117-1.029 14.247-2.035 21.355-3.062 4.956-1.044 9.642 1.072 14.277 2.575 14.41 4.576 31.454 5.355 43.803-4.999-31.797-28.223-64.326-55.725-96.5-83.5-38.876 18.158-80.502 30.506-121.39 43.244-41.338 11.898-83 22.96-125.11 31.756v-20.4c.423-4.694-.75-9.898.982-14.38 5.581-2.917 13.11-3.098 18.22-7.424 5.219-3.687 9.212-9.295 9.798-15.796-45.672-3.419-91.298-8.003-137-11v108c.468 25.895-2.877 53.382 7.533 77.997 6.904 17.161 23.41 27.645 40.885 31.4 28.212 7.236 57.754 7.204 86.64 7.603h90.493c26.3-.018 52.619.126 78.912-.325 13.217-.202 26.454-.4 39.67-.602 12.523.404 25.467-2.119 37.867-.573-8.782 8.582-16.203 18.402-24.975 26.975-7.406 7.238-14.784 16.974-21.62 23.555-3.507 3.802-9.97 2.952-14.62 2.97h-59.745c-14.924-.558-29.954.692-44.837-.403-37.846-13.204-74.398-30.263-112.203-43.597v396c22.377 2.978 45.537-1.491 66.712-8.406 9.919-3.413 19.659-7.636 28.607-13.162 3.916-2.81 9.344-5.887 11.578-9.859 1.892-5.268.68-11.13 1.103-16.573h129v27c11.844-1.016 25.902 1.564 39.5-2 .235.488.42.967.5 1.5-6.989 7.532-12.9 16.042-19.637 23.79-5.238 8.407-13.711 15.078-18.363 23.71h-282v-288c.015-16.014-.019-32.036.01-48.043-.773-8.528 10.044-8.034 15.481-11.392 6.24-3.351 10.11-9.733 11.509-16.565-45.704-3.338-91.308-8.486-137-12v453c12.176-.096 24.36.328 36.504-.694 16.483-1.755 35.49-7.082 49.416-13.07 7.145-3.043 14.785-5.735 20.515-11.23 5.554-5.41 2.765-16.732 3.565-25.006 15.609.705 31.477-.871 47 .5-34.224 43.972-78.677 79.287-124.424 110.566-45.013 31.012-94.18 56.109-144.576 76.934.276 3.213 2.487 6.426 4.19 8.726 1.33 2.828 6.286.964 8.736 1.26 73.455-5.688 146.721-18.007 217.262-39.556 30.761-9.345 61.051-20.686 90.09-34.485 14.289-6.221 27.638-14.468 41.186-22.103 3.524-2.025 6.683-4.947 10.777-4.187 11.168 2.137 27.788 2.593 31.759-9.342M1568 2259h174v-136h-174zm0 169h174v-142h-174zm64.5-512a1423 1423 0 0 0 76.5-105.5v-1.5h-77c.76 35.57-.926 71.548.5 107m9.5-845h129v-59h-129zm0 94h129v-68h-129zm0 98h129v-71h-129zm52 152.586c46.707 39.648 93.26 81.708 131.237 130.38 4.718 6.13 9.336 12.305 13.594 18.761 3.917 4.845 6.979 11.767 10.875 15.925 21.335 11.096 49.348 9.512 68.913-4.74 20.261-14.073 27.416-40.666 22.315-63.854-4.072-21.018-19.993-41.748-35.024-53.688-23.912-21.279-60.512-33.682-88.44-40.375-35.602-8.269-72.293-9.408-108.66-8.995-2.72.301-7.103-.463-8.901 1.192-1.943 1.552-4.763 3.704-5.909 5.394" style="fill:#000;fill-rule:evenodd;stroke:none"/></svg>