<svg xmlns="http://www.w3.org/2000/svg" width="3000" height="3000"><path d="M407 2715h2186c-120.11-729.14-243.257-1457.94-364-2187-109.157-35.927-218.092-72.748-327.181-108.9-95.331-31.722-190.626-63.585-285.954-95.3q-31.498-10.534-63-21l-30.566-10.195c-9.822-2.95-21.336-9.069-29.858-5.26-156.533 52.23-313.087 104.332-469.622 156.555-58.858 19.6-117.69 39.211-176.522 58.84-12.832 4.262-25.65 8.528-38.47 12.817-6.336 2.128-12.684 4.227-19.008 6.343-5.33 2.846-14.097 3.151-17.405 7.24-66.013 385.799-128.474 772.546-193.688 1158.548C521.372 2030.17 462.67 2372.459 407 2715m629.656-1357c26.888-19.682 50.307-44.21 74.214-67.37 21.605-24.76 45.779-48.587 63.13-76.63h3v378c20.742.05 41.752 1.138 62.117-3.564 13.832-3.09 27.502-7.011 40.576-12.51 9.154-4.327 18.689-8.557 26.662-14.9 7.73-5.998 5.37-16.324 5.645-24.084V1081h3c16.926 43.168 35.06 87.804 36 135 2.873.705 5.568 3.873 8.467 5.741 10.593 7.106 22.42 14.106 35.635 14.38 19.483 1.478 39.807-7.084 51.076-23.72 12.383-15.91 15.028-37.147 8.62-56.011-10.874-32.58-39.11-56.408-68.844-71.545-23.17-12.398-48.546-20.515-73.954-26.845V943h112.2c9.386-.122 22.393-.242 28.337-10.558 1.82-3.963-1.643-6.88-3.736-9.722-18.06-20.815-36.585-41.219-55.671-61.09L1364.5 833c-18.496 25.765-32.104 55.253-50.5 81h-2V715c14.284-1.119 32.355-6.315 35-26-56.783-3.841-113.257-11.7-170-16v245h-125c1.472 7.344 4.111 15.911 6.255 22.427 1.334 3.865 8.719 1.934 11.503 2.573H1166c-10.523 74.696-29.856 148.328-52.557 220.173-11.595 35.195-25 69.8-40.322 103.53-7.254 16.44-15.715 32.27-24.497 47.925-4.078 8.05-8.93 15.616-13.64 23.29-2.043 3.325-5.273 7.51-6.484 11.296.982 3.234 5.717 5.7 8.156 8.786M1175 2251h-9c.282 14.487.325 29.352-4.895 43.153-7.784 24.232-23.322 45.98-42.883 62.091-8 7.534-17.53 12.995-27.244 17.899-17.987 9.421-33.788 23.3-43.639 41.249-16.292 32.998.825 78.28 33.91 93.4 25.568 12.367 57.178 10.314 79.946-7.191 33.94-25.027 50.009-68.723 49.805-109.778 1.632-43.265-10.833-85.514-28.508-124.56-1.965-5.449-6.169-11.094-7.492-16.263m3-1c29.107.695 58.656.937 86.723-8.084 12.645-4.189 27.336-10.08 37.451-17.022 5.117-4.12 12.307-7.635 14.381-13.707 1.052-7.319-.014-14.83.445-22.187h463v1.5c-8.719 68.662-13.253 139.415-37.102 205.146-5.601 14.846-13.857 30.477-29.889 36.12-13.036 4.715-27.33 2.919-40.868 2.918-40.75-1.496-81.65-3.045-122.141-7.684.718-4.557 5.037-9.59 6.372-14.937 8.087-19.91 5.178-42.36-3-61.62-11.577-27.781-35.275-48.366-59.83-64.398-25.405-15.562-53.197-27.285-81.855-35.3-2.988-.824-6.055 2-8.687 2.255 20.59 44.612 38.812 91.882 43.283 141.477.748 6.84.826 13.737.717 20.597.16 5.052-1.29 11.804 3.796 16.058 13.93 12.387 31.807 21.656 50.932 20.798 9.825-.53 19.84-2.904 28.214-8.245 3.75-2.439 7.545-4.835 10.782-7.943 3.24-2.914 6.21-7.837 10.276-7.742v8c31.383 7.463 64.38 15.296 90.718 35.164 13.087 9.445 23.437 23.168 27.299 38.984 3.907 16.96 4.917 34.506 4.983 51.852 31.996-.181 64.502-1.203 95.624-9.405 21.611-5.767 42.033-16.29 59.415-30.298 24.594-22.466 39.934-53.142 49.86-84.473 11.414-33.829 17.464-69.182 23.503-104.255 6.382-39.991 10.906-80.259 14.598-120.569 13.374-.574 30.983-6.804 38-17.5-19.194-16.158-38.514-32.212-57.764-48.316-9.684-8.213-19.648-16.096-29.192-24.472-4.87-4.025-9.645-8.162-14.571-12.106-4.655-3.211-9.191-8.773-14.137-10.606-14.767 15.374-31.14 29.085-46.57 43.735-5.553 5.896-11.838 11.005-17.638 16.613-5.216 5.506-15.227 3.014-21.946 3.652H1589v-109.8c.336-2.71-.51-7.212 1.878-8.587 46.676-1.748 93.72.317 140.462-.613h70.07c11.79-.027 23.572.033 35.35-.018 8.312-.157 20.528-3.044 24.24-13.67-37.99-33.863-80.8-61.703-120.5-93.312-18.612 23.465-37.849 46.454-56.652 69.771-4.671 5.854-8.357 13.6-18.43 12.229H1589v-120h211.8c11.65-.127 23.324.312 34.95-.553 9.104-.467 21.874-2.709 25.25-13.994-38.717-32.515-79.688-62.8-120.5-92.453-11.813 12.859-21.842 27.254-33.326 40.39-10.062 13.877-22.92 26.327-32.174 40.61h-86v-118h247.2c10.21-.25 20.5.5 30.652-.748 7.417-1.032 16.367-4.99 19.049-11.216 2.414-2.778-3.345-5.746-4.557-7.388-39.159-32.095-79.964-62.166-120.344-92.648-15.673 18.384-30.493 37.751-46.023 56.3-6.641 8.169-13.286 16.333-19.86 24.55-3.382 5.4-8.493 5.615-13.936 5.15H1349.6c-7.72-.445-17.292.98-24.063-1.606-49.396-17.065-98.046-36.799-147.537-53.394zm95 6c5.347 37.108 6.643 74.788 3.987 112.169-2.044 27.19-7.236 54.487-14.496 80.577 8.934 16.023 28.277 30.274 44.647 34.063 29.528 6.857 60.143-10.938 72.834-37.812 14.734-27.78 12.076-62.135-.225-90.138-19.488-42.609-55.695-75.498-95.213-99.34-4.14-2.091-7.648-.287-11.534.481m44-382h136v-118h-136zm0 146h136v-120h-136zm0 144h136v-119h-136zm52-603h575.4c10.301.809 23.763-1.264 29.6-13.5-18.817-18.181-38.39-35.53-58.399-52.405-9.634-8.413-19.45-16.59-29.157-24.91-10.27-7.053-20.418-18.787-30.444-24.185-14.586 22.42-31.893 43.853-47.076 66.03-4.042 5.506-7.823 11.18-11.924 16.636-1.397 2.17-3.168 4.057-4.834 5.988-3.837 2.597-10.296.539-14.526 1.346H1731v-223c67.017-.151 134.046.185 201.049-.1 7.421-.294 15.057-3.275 19.462-9.445 3.237-6.647-5.69-10.774-8.987-14.438-31.646-31.103-67.052-58.14-100.43-87.3-.71-.846-1.55-1.437-2.594-1.717-14.904 19.577-29.024 39.799-43.661 59.576-3.809 4.909-7.234 10.066-11 15-2.945 3.623-5.126 7.874-8.462 11.18-2.855 2.669-6.99 2.215-10.66 2.244H1731v-143c13.867-.347 32.13-7.076 36-25-58.358-4.183-116.623-10.227-175-14v182h-195c.422 8.356 5.769 17.308 6 25h189v223h-229c.363 8.37 5.824 17.286 6 25m37-484h537.599c10.722.96 21.603-3.566 26.401-13.5-37.068-35.785-77.423-67.974-116.5-101.5h-1.5c-14.277 21.988-31.236 43.005-46.163 64.718-3.76 5.526-7.847 10.816-11.613 16.327-2.898 3.826-5.69 9.302-11.596 8.932-17.212.066-34.422-.013-51.628.023V873c64.74-.458 129.498.559 194.215-.302 7.017-.598 14.432-3.006 18.629-9.03 4.66-5.083-4.197-11.354-7.31-14.596-32.016-28.698-64.789-56.559-97.73-84.21-2.25-1.82-4.398-3.832-7.148-4.862-14.173 18.568-27.17 38.088-41.199 56.773-7.158 9.304-13.329 19.34-20.62 28.531-4.113 4.123-12.526 2.167-18.767 2.696H1731V732.8c.046-5.031-1.211-12.878 4.105-13.873 13.345-2.325 29.472-7.322 31.895-25.927-58.39-3.451-116.618-9.41-175-13v168h-166c.955 4.386 2.423 8.617 3.556 12.95 1.017 3.187 1.813 6.464 2.79 9.644.657 2.389 4.782 2.134 6.644 2.393 7.974.038 15.965-.007 23.928.013H1592v179h-192c.363 8.37 5.824 17.286 6 25m132 1163.375c20.81 17.995 39.048 39.096 53.834 62.351 14.875 22.84 27.703 48.116 32.166 75.274 11.461 4.492 22.505 11.534 35.366 11.62 43.406 3.642 72.444-38.638 61.306-75.77-9.721-32.849-40.904-52.681-71.35-63.308-17.233-6.975-35.801-9.518-54.05-12.135-9.847-1.29-19.774-1.853-29.687-2.15-9.386-.504-19.695-1.55-27.585 4.118" style="fill:#feddaa;fill-rule:evenodd;stroke:none"/><path d="M1037.5 1360c51.393-42.588 99.655-90.127 138-145 1.426 125.902-.26 252.05.5 378 21.006.037 42.206 1.053 62.892-3.27 14.05-3.243 28.014-6.964 41.32-12.622 9.347-4.322 19.014-8.665 27.143-15.082 7.838-6.423 5.265-15.81 5.645-24.684v-81.532c.76-124.546-.926-249.347.5-373.81 18.187 42.755 34.909 87.995 36.5 135 2.873.705 5.568 3.873 8.467 5.741 10.861 7.55 23.104 14.16 36.68 14.549 20.073 1.328 40.418-6.87 52.03-23.888 12.55-16.357 15.068-38.249 8.736-57.599-10.882-33.386-40.078-57.333-70.334-72.772-22.984-11.582-47.538-20.118-72.579-26.031V944h112.2c9.026.033 21.94-.163 28.386-10.53 2.112-4.482-.291-7.915-3.12-10.887-18.007-20.847-36.424-41.376-55.568-61.185l-15.768-15.768-7.863-7.863c-2.475-2.242-5.493-6.064-8.267-6.767-15.64 27.58-33.317 54.642-49.5 82-1.426-65.49.26-131.417-.5-197 14.673-.98 34.147-7.058 35-28-57.474-3.586-114.544-12.193-172-16v245h-126c3.247 8.484 4.498 19.695 8.456 26.183 9.958 1.928 20.545-.022 30.643.817H1165c-11.803 75.124-29.719 149.528-53.74 221.703-11.51 35.391-25.36 70.017-40.96 103.787-7.387 16.498-16.502 32.238-25.021 48.164-4.135 7.967-8.838 15.63-13.757 23.123-1.406 3.019-6.467 8.513-3.827 10.768 2.787 3.158 6.883 6.004 9.805 8.455m138.5 890h-11c.282 14.487.325 29.352-4.895 43.153-7.784 24.232-23.322 45.98-42.883 62.091-8 7.534-17.53 12.995-27.244 17.899-18.1 9.509-34.09 23.502-43.869 41.69-15.995 33.313.349 79.061 33.616 94.72 25.426 12.217 56.914 11.032 80.292-5.365 34.914-24.104 51.444-67.919 51.982-108.978 1.695-43.288-8.71-86.109-26.962-125.265-2.324-6.93-6.814-13.012-9.037-19.945m1 1c29.592.66 59.641 1.184 88.207-7.934 12.633-4.164 27.391-10.012 37.52-16.897 5.313-3.782 11.631-7.508 14.805-13.414 1.01-7.521.082-15.19.468-22.755 153.607.76 307.478-.926 461 .5-8.926 67.877-13.182 138.516-36.92 203.659-5.582 14.864-13.755 30.587-29.681 36.456-12.907 4.884-27.116 3.106-40.56 3.022-40.117-2.217-81.183-2.119-120.839-8.137 21.111-32.719 10.331-77.173-14.508-104.458-16.376-20.045-38.358-34.805-60.981-46.796-11.981-6.162-24.416-11.363-36.973-16.191-6.397-2.217-12.833-4.263-19.237-6.456-6.704-3.226-13.039-3.085-18.301 1.901 22.667 44.114 38.76 92.486 44.283 141.977.748 6.84.826 13.737.717 20.597.16 5.052-1.29 11.804 3.796 16.058 13.944 12.474 31.818 21.57 50.974 20.848 9.78-.169 19.668-2.374 28.273-7.116 3.844-2.416 8.368-5.308 11.52-8.039 3.395-2.26 6.249-7.668 9.437-8.825v8c31.383 7.463 64.38 15.296 90.718 35.164 13.087 9.445 23.437 23.168 27.299 38.984 3.907 16.96 4.917 34.506 4.983 51.852 32.307-.2 65.144-.904 96.606-9.152 22.003-5.694 42.777-16.31 60.433-30.55 24.896-22.67 40.22-53.765 50.16-85.429 11.59-34.445 17.436-70.456 23.69-106.12 6.015-39.075 10.612-78.384 14.111-117.749 13.987-.391 31.831-7.363 39-18.5-19.395-16.661-39.196-32.852-58.764-49.316-20.009-15.355-38.144-33.74-58.736-48.184-15.242 14.842-30.743 29.439-46.598 43.615-5.457 6.002-11.754 11.1-17.635 16.617-5.442 6.59-14.347 4.497-21.29 4.768H1590v-104.4c.568-3.932-1.496-11.866 3.546-12.243 76.116-1.019 152.41.186 228.55-.357 8.89-.105 19.711.802 27.53-2.117 6.174-1.91 15.612-9.594 9.992-15.507-38.262-32.272-79.08-62.295-119.618-91.376-19.118 22.408-37.243 45.932-56.138 68.586-4.766 4.851-8.44 13.9-17.088 13.411-25.599.008-51.187-.002-76.774.003v-118h231.6c8.936-.084 19.586-.326 27.517-2.619 3.562-1.043 7.38-3.395 9.62-5.958 6.535-7.236-.558-11.753-6.235-16.02-18.422-14.805-36.766-29.68-55.845-43.622-9.372-7.328-19.08-14.195-28.634-21.253-4.853-3.575-9.652-7.256-14.484-10.838-4.63-2.855-10.22-8.288-14.539-9.69-19.319 28.526-45.654 53.466-65 82h-84v-116h233.4c12.95-.206 25.921.26 38.858-.163 10.732-.176 22.473-4.744 26.742-15.337-41.188-35.177-85.454-66.713-128.5-99.5-15.173 18.909-30.645 37.58-45.842 56.46-6.652 8.21-13.275 16.424-19.93 24.613-1.421 2.124-3.27 3.822-5.32 5.302-89.659 1.783-179.722-.324-269.454.625h-67.755c-7.92-.555-17.648.966-24.704-1.231-50.313-17.805-100.141-37.18-150.495-54.769zm95 4c4.406 36.593 7.466 73.55 4.103 110.437-2.262 26.878-6.456 53.638-14.056 79.562-1.673 5.177 1.265 8.637 4.581 12.093 11.094 13.908 26.609 25.222 44.637 27.672 27.45 4.293 55.273-11.493 68.028-35.764 14.427-24.915 14.603-56.24 6.133-83.14-16.79-48.6-56.85-84.937-99.397-111.177-3.95-3.228-10.072-.758-14.029.317m46-382h134v-116h-134zm0 146h134v-118h-134zm0 144h134v-117h-134zm43-627.5c1.926 8.584 5.998 18.464 7 26.5h573.6c8.706.205 18.157.616 25.802-4.462 2.803-1.943 5.7-5.097 6.558-8.173 1.707-3.1-2.723-6.416-4.653-8.29-36.199-33.665-74.189-65.62-112.307-97.075-17.082 20.97-31.575 44.302-48.163 65.718-3.875 5.648-7.999 11.125-11.913 16.73-2.8 4.05-5.88 9.215-11.897 8.542-17.675.029-35.36-.006-53.027.01v-221h175.2c13.37-.593 42.136 5.329 47.8-15.5-37.497-34.582-75.74-68.479-115.5-100.5-15.319 18.968-28.747 39.517-43.457 58.948-7.874 8.787-14.203 21.766-22.233 29.069-6.609 1.937-14.158.357-20.994.983H1732v-141c14.316-1.347 33.895-6.617 36-27-58.651-5.515-118.072-8.756-176.5-15-1.426 60.878.26 122.06-.5 183h-196c1.626 8.861 6.127 18.764 7 27h189v221h-230zm37-484c1.926 8.584 5.998 18.464 7 26.5h505.8c12.02-.03 24.032.037 36.038-.02 12.257.62 20.584-5.526 25.162-15.48-39.075-34.594-78.257-69.732-119-102.5-16.844 20.517-30.877 43.492-47.237 64.448-3.94 5.44-7.772 10.952-11.704 16.398-2.66 3.587-6.148 9.482-10.116 9.929-17.293.642-34.644-.117-51.943.225V874c64.9-.546 129.868.666 194.737-.36 7.094-.6 14.343-3.276 18.45-9.404 5.206-5.74-2.227-10.803-6.162-14.71-32.129-28.85-64.965-56.908-98.025-84.719-3.034-2.568-6.832-5.323-9.5-7.807-13.025 19.34-27.461 37.932-40.812 57.075-7.014 9.486-13.713 19.223-20.648 28.755-3.622 5.724-12.531 3.93-18.172 4.17H1732V731.2c-.43-5.259-.893-11.57 6.646-11.821 12.95-2.41 28.816-9.014 29.354-27.379-59.08-3.178-117.921-9.959-177-13v168c-55.607.76-111.478-.926-167 .5 2.33 3.804 2.612 10.143 4.719 14.983 1.585 3.554 1.538 10.919 5.808 11.173 36.21.982 72.535-.18 108.761.344H1591v177h-193zm138 1188.875c20.67 18.36 39.594 38.943 54.279 62.53 15.215 23.031 28.1 48.652 32.721 76.095 11.617 4.623 22.864 11.673 35.928 11.667 19.317 1.973 40.038-5.85 51.792-21.66 12.1-15.349 16.407-36.67 11.13-55.502-9.607-33.798-41.831-53.702-72.887-64.515-17.756-6.842-36.781-9.41-55.513-11.901-10.096-1.02-20.215-1.801-30.358-1.974-8.9-.266-19.396-1.759-27.092 5.26" style="fill:#000;fill-rule:evenodd;stroke:none"/></svg>