<svg xmlns="http://www.w3.org/2000/svg" width="3000" height="3000"><path d="M1009 2624c5.4-.017 11.312-4.986 16.636-8.088 80.05-49.972 146.865-121.798 186.435-207.922 14.184-28.123 23.682-58.285 32.486-88.412 26.32-94.677 32.56-193.724 32.443-291.578h688.8c12.068-.033 31.008-1.114 32.2-19-40.253-31.896-81.248-64.455-123.116-94.58-5.222-3.973-10.526-7.833-15.749-11.8-2.153-1.308-4.904-4.122-7.085-4.123-7.963 6.81-13.436 16.918-20.81 24.475-19.018 25.066-40.747 48.787-59.24 74.028h-495v-155c117.106-1.665 234.151-6.739 350.716-18.162a2904 2904 0 0 0 124.732-14.567c18.242-2.608 36.438-5.468 54.617-8.45 8.81-1.54 17.59-3.097 26.366-4.815 3.751-.637 8.242-2.01 11.748-1.255 15.521 4.946 31.462 9.42 47.964 8.962 7.948-.346 15.98-1.42 23.211-4.952 3.346-1.076 7.516-3.928 3.796-7.823-9.41-10.718-20.272-19.97-30.52-29.808-9.233-9.736-19-18.83-28.865-27.865-18.004-17.403-36.05-34.74-53.692-52.529-8.416-6.936-15.67-15.197-23.548-22.711-3.946-2.68-7.294-9.27-11.686-9.525-71.848 33.318-146.326 61.829-221.974 85.7-75.822 23.9-152.156 46.566-229.711 64.26-4.318 1.09-8.669 2.43-13.154 2.54-1.391-4.213-9.15-3.431-13.126-5.892-56.686-17.059-113.049-35.67-169.874-52.108-1.196 158.105 3.485 316.531-6.868 474.396-5.588 73.176-16.097 146.153-35.68 216.99-9.916 33.827-20.462 67.857-36.379 99.443-7.106 15.802-15.144 31.101-23.667 46.177-4.26 7.43-8.671 14.777-13.308 21.966-1.672 3.713-5.743 8.013-5.598 11.388.598 4.276 6.007 6.571 6.5 10.64m769-1674c-.51 4.724-5.156 9.69-7.446 14.634-20.584 35.042-41.558 69.833-62.16 104.857-20.62 34.828-41.28 69.695-61.894 104.509-1.218-11.869 2.654-24.046 2.66-35.961 8.817-86.664 17.016-173.388 25.84-260.039 39.247.971 74.336-35.103 71.955-74.33-.485-18.768-7.595-37.816-21.557-50.772-13.448-14.678-33.732-20.928-53.183-19.867-18.99.598-37.4 9.37-50.468 23.054-13.101 14.26-20.408 33.942-18.286 53.452.755 14.718 5.528 29.36 14.89 40.92 4.658 5.581 10.016 10.624 16.132 14.535a41 41 0 0 0 9.19 5.123c4.978 1.713 4.4 5.016 2.548 8.704-4.844 15.152-9.525 30.344-14.778 45.354-26.59 79.527-52.348 159.311-78.943 238.827l-.5-1.5c-11.644-106.578-26.284-212.935-38-319.5 31.774-4.439 57.185-35.161 57.856-66.712 3.312-38.283-29.091-75.62-68.22-75.287-38.66-3.815-75.456 29.352-75.519 68.208-2.423 34.008 23.104 69.184 57.883 73.791-11.44 106.598-26.612 212.9-38 319.5l-.5 1.5c-18.976-57.405-37.777-114.858-57.054-172.157-6.5-21.866-14.42-43.303-21.346-65.024-3.175-9.509-6.327-19.019-9.497-28.517-1.714-4.587-2.803-9.393-4.358-14.027-.728-3.516-4.582-9.907-.972-12.006 15.774-7.228 29.59-19.722 36.39-35.966 12.787-28.244 6.072-65.164-18.504-84.76-17.739-15.528-43.161-21.296-65.983-15.566-16.959 3.95-31.117 15.21-40.826 29.257-14.902 22.378-16.667 53.482-3.202 76.978 12.507 22.436 37.27 36.957 62.852 36.788 4.914 49.072 9.52 98.204 14.644 147.25 2.485 25.063 4.979 50.092 7.38 75.148 1.35 12.22 2.411 24.49 3.715 36.707.202 11.893 3.885 26.02 2.761 36.895-21.967-37.205-44.061-74.361-66.11-111.509-10.711-18.739-22.234-37.013-32.966-55.728-5.266-9.533-11.276-18.637-16.673-28.09-2.805-4.503-5.145-9.25-8.051-13.68-2.328-4.682-7.177-10.552-7.7-14.993 17.614-8.544 26.636-32.56 29.185-48.877 2.904-19.02-1.906-39.446-13.836-54.634-11.634-14.79-29.305-25.513-48.405-26.424-10.136-.27-20.46-.626-30.282 2.313-27.252 7.277-48.721 32.232-50.339 60.581-1.513 18.905 3.27 38.85 14.915 54.01 11.527 15.024 29.875 24.878 48.813 25.966 7.744.546 15.448-.272 23.158-.311 3.808-.453 3.278 7.28 4.888 9.14 1.09 3.313 2.217 6.625 3.297 9.935 15.662 46.237 30.756 92.644 46.001 139.002 11.479 34.834 22.619 69.778 34.505 104.48 4.518 13.206 10.314 26.54 8.184 40.713-.239 54.141-1.242 108.246-1.89 162.37-.229 13.66-.224 27.315-.194 40.972-1.964 21.546 12.754 34.023 29.86 41.169 16.54 7.575 34.302 11.864 52.134 15.069 24.362 4.63 48.96 7.373 73.636 9.387 44.874 1.897 89.956 1.74 134.717-1.802 30.96-3.323 62.544-6.931 91.824-18.306 10.456-4.235 21.1-9.207 29.025-17.509 8.774-8.361 9.508-18.147 8.804-28.66.03-39.204-.773-78.384-1.246-117.57-.188-19.673-.67-39.352-.754-59.023-.004-9.563.147-19.155-.432-28.702-1.475-9.08.924-17.734 4.503-26.022 18.553-55.993 36.748-112.096 55.663-167.966 6.323-21.358 14.096-42.249 20.823-63.474a7663 7663 0 0 1 9.186-27.523c1.582-4.23 2.667-9.49 4.297-13.293 1.37-4.39 8.937-1.357 12.15-2.026 17.754 1.03 36.217-2.24 50.348-13.89 24.726-18.875 33.293-54.746 23.571-83.72-7-20.901-24.828-36.784-45.724-42.993-9.047-2.867-18.582-2.547-27.93-2.38-29.464-.288-56.78 22.566-63.885 50.718-4.01 14.836-3.185 30.992 1.999 45.434 4.892 12.576 13.969 28.132 25.431 33.846m-641.663-68.538c.483 13.908 13.712 26.834 27.715 25.254 13.251-1.603 23.321-14.372 21.793-27.59-.962-13.625-14.689-24.18-28.06-21.68-11.786 1.537-20.737 12.406-21.448 24.016m145.938-84.539c.226 14.381 13.775 26.586 27.858 24.985 13.61-.773 23.702-15.213 21.563-28.16-1.857-15.35-15.86-22.517-28.915-20.456-11.423 1.632-19.93 12.37-20.506 23.631M1310 2642c37.095-.189 75.758 1.932 111.21-11.483 7.787-3.07 16.841-7.101 23.536-10.862 4.803-2.813 11.388-6.961 11.238-14.29.045-21.781-.008-43.584.016-65.365h278v92c44.878.337 91.727.288 133.147-19.575 4.93-2.632 10.125-4.818 14.922-7.686 4.92-3.161 3.827-8.628 3.931-13.688V2247c11.053-1.17 21.855-4.954 31.469-10.452 3.655-3.087 10.354-7.201 9.96-12.023-3.721-4.09-8.349-7.166-12.713-10.534-10.984-8.532-22.254-16.701-33.177-25.301-17.773-13.997-36.112-27.23-53.908-41.184-4.591-3.367-9.039-6.927-13.66-10.243-3.478-2.514-6.808-5.277-10.309-7.733-3.283-2.88-5.863-.527-7.898 2.058-6.698 6.971-12.756 14.473-19.38 21.51-13.367 13.665-25.082 28.799-38.38 42.521-2.815 3.104-5.158 6.777-8.755 9.08-3.62 2.496-9.704.529-13.707 1.301h-240.947c-12.536.173-27.414-9.178-41.492-12.828-41.137-14.627-81.723-31.438-123.103-45.172zm16-1202c26.843-8.145 59.922-12.516 85.54-14.29 45.31-3.754 90.757-4.829 136.193-2.712 42.57 3.299 86.178 3.744 127.267 17.002-.347-5.806 1.61-13.612-4.217-15.782-5.309-1.8-10.839-2.84-16.236-4.328-27.73-5.005-55.596-9.16-83.733-11.1-44.287-4.883-88.97-4.95-133.295-.754-21.298 2.21-42.662 4.092-63.833 7.368-10.488 1.705-21.04 3.177-31.403 5.545-4.791 1.18-10.58 2.367-14.597 4.49-3.287 2.77-.64 10.026-1.686 14.561m1.5-60c26.867-9.632 55.965-12.873 84.148-16.577 87.307-7.931 176.92-5.79 262.352 15.577v-16c-27.342-8.84-56.278-11.516-84.685-14.815-45.058-5.02-90.46-7.451-135.765-3.989-42.21 4.984-85.59 6.44-126.55 18.804.514 5.438-.68 12.099.5 17m.5-63c55.874-16.493 114.856-19.861 172.754-20 29.706-.304 59.372 1.414 88.944 4.022 28.194 2.561 56.36 7.2 83.302 15.978-.29-6.063 1.692-15.588-4.325-17.704-5.938-1.931-11.99-3.52-18.113-4.675-27.682-5.26-55.689-8.491-83.73-11.02-43.43-4.813-87.284-4.638-130.746-.449-21.044 2.377-42.213 3.902-63.101 7.482-10.021 1.505-21.713 3.703-30.756 5.817-4.642 1.3-9.945 1.926-13.81 4.93-.335 5.198-.643 10.39-.419 15.619m26-141.562c.342.41.631.299 1 .062-.32-.203-.644-.43-1-.062m102.256-411.471c.56 13.65 12.948 25.971 26.713 24.935 13.558-.412 24.294-13.817 22.833-27.004-.521-13.526-14.154-24.297-27.366-22.062-12.237.901-21.614 12.191-22.18 24.13M1456 2509h278v-272h-278zm175.466-1711.505c.439 16.513 17.737 28.873 33.17 23.354 12.575-4.533 19.76-19.757 14.964-32.28-4.43-12.844-20.063-19.276-32.527-13.956-9.15 3.723-15.174 13.05-15.607 22.882M1645 1175.438c.342.41.631.299 1 .062-.32-.203-.644-.43-1-.062m131.198-294.03c.3 14.13 13.59 27.046 27.86 25.307 13.38-1.661 23.505-14.818 21.733-28.148-1.263-13.6-15.225-23.813-28.518-21.04-11.272 1.843-20.545 12.472-21.075 23.882" style="fill:#fff;fill-rule:evenodd;stroke:none"/><path d="M327 2802.5c390.66 1.426 782.125-.26 1172.95.5 390.946-.76 782.184.926 1173.05-.5-79.284-468.283-156.02-937.69-234.792-1406.201-29.222-176.024-58.731-352.018-88.16-527.994-12.796-76.829-25.59-153.676-38.409-230.5-5.977-36.02-12.025-71.992-18-108-2.928-17.508-5.855-34.99-8.745-52.497-.795-4.678-1.595-9.35-2.358-14.018-.403-5.813-4.632-7.44-9.23-8.351-136.155-45.374-272.297-90.765-408.44-136.14-118.995-39.696-238.006-79.344-356.998-119.005-7.36-3.594-13.268-1.406-20.008 1.408-103.34 34.51-206.696 68.878-310.033 103.355a1093431 1093431 0 0 1-271.561 90.514 376799 376799 0 0 1-118.969 39.67c-18.676 6.196-37.335 12.443-55.998 18.654-3.991 1.804-9.7 2.485-12.774 5.267-95.938 570.136-190.308 1140.76-285.634 1711.041-35.77 210.46-69.684 422.872-105.891 632.797m676-190c1.178 3.97 6.538 6.499 7 10.5 58.474-32.23 110.646-78.465 150.677-132.019 40.998-54.625 69.308-117.61 86.001-183.656 11.305-44.633 20.117-90.125 23.226-136.142 3.678-47.969 6.329-96.048 6.096-144.183h686.4c11.903-.076 30.272.753 34.6-17-3.226-.943-6.036-5.017-9.394-7.124-43.24-36.936-90.391-68.891-135.106-103.876-25.91 33.273-54.308 65.382-79.5 99h-497v-157c111.096-1.586 222.126-6.285 332.75-16.584 52.815-4.58 105.468-10.723 157.928-18.295 13.16-1.935 26.26-4.226 39.387-6.3 10.03-1.734 20.058-3.526 30.028-5.575 8.253-2.349 14.46.63 21.584 3.09 20.387 4.896 47.09 10.681 63.323-3.836-48.457-49.229-99.997-95.17-148.333-144.5-73.76 35.95-151.452 63.274-229.363 88.743-78.685 24.26-157.795 47.754-238.304 65.257.1-.93.422-1.769 1-2.5-59.64-20.129-120.742-36.753-180.5-56.5-2.656 155.107 3.611 310.832-6.865 465.8-4.021 72.207-15.378 143.904-33.08 213.97-17.18 66.458-43.767 131.489-82.555 188.23zM1197.5 960c17.485 51.723 34.474 103.845 51.57 155.734 7.858 22.699 15.043 45.617 22.487 68.44 6.755 21.597 14.787 42.788 21.19 64.478 1.81 5.312 1.087 10.905.491 16.337-.6 46.55-.827 93.124-1.72 139.675-.304 20.469-.587 40.923-.518 61.384-.367 8.205-1.104 18.152 5.824 25.962 10.438 12.426 25.922 19.012 40.939 24.046 63.871 19.272 131.225 19.445 197.161 18.883 24.8-1.007 49.661-2.64 74.223-6.32 20.623-3.206 41.51-6.997 61.065-14.506 15.457-5.939 33.107-15.07 38.165-32.29 2.085-69.274-2.307-138.809-1.442-208.137.3-8.105-1.764-17.952.132-25.267 17.173-51.139 34.013-102.36 50.833-153.6 14.81-44.927 29.383-90.07 44.6-134.819 22.769 6.604 49.493-.42 66.596-16.612 27.286-25.791 29.299-73.594 3.518-101.028-13.065-12.828-30.825-22.031-49.596-21.36-18.596-1.09-38.003 4.174-51.387 17.88-13.474 12.346-21.782 29.992-22.452 48.264-.998 18.782 6.298 37.209 17.77 51.762 3.366 4.905 8.487 8.02 13.051 11.594-21.428 38.882-45.724 76.419-67.67 115.052-22.492 38.213-45.33 76.285-67.83 114.448 8.447-100.882 20.276-202.066 29.5-303 39.086.957 74.394-35.007 71.887-74.195-.728-18.608-8.393-37.027-22.257-49.675-13.361-14.078-33.285-20.199-52.304-19.034-38.565 1.244-71.44 37.952-66.68 76.489 1.391 26.51 19.359 52.562 45.354 60.415-31.615 98.901-65.276 197.284-97.5 296-8.07-53.978-12.937-108.724-20.338-162.863-5.607-54.447-14.285-108.64-19.162-163.137 31.773-4.439 57.187-35.162 57.855-66.711 2.433-37.58-30.087-73.538-68.212-73.288-37.963-3.025-73.39 30.432-73.522 68.206-1.661 33.354 23.976 67.259 57.879 71.793-4.867 54.308-13.486 108.307-19.099 162.546-7.316 54.34-12.396 109.294-20.401 163.454-32.211-98.719-65.883-197.088-97.5-296 29.388-8.708 46.964-39.668 45.672-69.007-.215-38.203-36.223-70.248-74.047-67.964-38.289.192-69.763 36.792-67.54 74.218.437 35.765 32.884 67.717 68.386 68.608 1.182.096 2.347.13 3.529.145 9.231 100.969 21.04 202.048 29.5 303-22.5-38.103-45.278-76.184-67.75-114.327-22.28-38.425-45.769-76.172-67.75-114.756 20.487-14.382 32.779-40.205 30.728-65.394-1.124-25.343-17.694-48.514-40.578-58.927-8.755-4.213-18.527-5.823-28.16-5.596-27.934-1.97-55.549 14.908-67.056 40.323-15.885 34.59.533 80.776 36.13 95.297 13.852 5.425 33.275 7.73 46.436 3.38m-62.28-78.405c.182 14.985 14.216 28.002 28.99 26.236 14.352-1.22 24.475-15.01 22.699-28.923-.514-14.54-15.016-25.024-28.905-22.633-12.719 1.034-22.493 12.822-22.784 25.32m145.954-84.58c-.06 14.512 13.077 27.27 27.485 25.973 14.571.665 26.042-14.087 24.234-27.919-.54-16.491-14.909-24.679-28.79-22.983-12.772.352-22.934 12.54-22.929 24.928M1311 2641c36.6-.186 74.845 1.845 109.75-11.701 7.639-2.953 16.42-7.031 22.996-10.644 4.803-2.813 11.388-6.961 11.238-14.29.045-21.781-.008-43.584.016-65.365h280v92c44.23.392 90.365-.006 131.147-19.575 4.808-2.5 9.77-4.722 14.474-7.398 5.172-2.859 4.415-8.3 4.379-13.376V2246c15.677-1.778 32.034-7.732 42-20.5-42.043-32.258-84.299-65.329-127-96.5-13.762 15.232-27.489 30.748-41.394 45.895-6.292 6.285-11.529 13.569-17.83 19.845-2.96 3.022-5.35 6.597-8.511 9.422-6.133 4.987-17.849 1.635-26.512 2.838H1497.77c-8.788-.01-17.587.012-26.37-.006-7.113.01-13.522-3.644-20.14-5.76-46.579-17.809-93.784-34.276-140.26-52.234zm14.5-1199c13.215-5.475 30.383-8.062 43.244-10.315 51.978-7.462 104.735-9.154 157.185-8.354 25.942.979 51.875 2.297 77.747 4.595 24.02 3.31 49.053 5.092 71.824 14.074 1.134-4.74.184-11.56.045-15.484-1.222-4.208-9.031-4.239-12.102-5.638-40.446-9.424-82.184-12.03-123.398-15.819-39.616-1.902-79.33-1.091-118.733 3.515-19.081 1.624-38.039 4.234-56.97 7.034-9.48 1.56-18.922 3.32-28.247 5.623-4.165 1.18-10.697 1.996-10.86 6.394-.202 4.454-.508 10.756.265 14.375m.5-61h1.5c55.943-17.936 115.554-19.54 173.662-20.992 58.33 1.408 117.391 5.068 173.838 20.992v-19c-27.717-9.051-57.114-11.522-85.908-14.944-45.173-4.918-90.624-7.253-135.982-3.911-42.387 4.993-85.983 6.44-127.11 18.855zm1.5-62c26.594-9.478 55.33-13.268 83.25-16.809 45.053-4.646 90.434-5.414 135.66-3.188 42.533 3.401 86.692 4.513 127.09 19.997 1.067-5.29.252-12.919.042-17.297-1.24-4.622-10.48-4.303-13.684-6.247-44.32-8.57-89.496-13.676-134.585-15.882-37.283-1.812-74.536.738-111.564 4.73-17.84 2.213-35.81 3.888-53.462 7.34-8.916 1.294-17.725 3.147-26.377 5.679-5.636.759-7.313 3.576-6.866 8.597.314 4.203-.476 9.31.496 13.08m127.644-555.005c.156 14.547 13.26 27.276 27.79 25.96 14.619.19 25.661-14.23 23.95-28.139-.149-14.532-14.65-25.629-28.679-23.157-12.829.855-23.028 12.564-23.06 25.336M1455 2510h280v-274h-280zm175.329-1712.198c.401 15.544 14.608 27.304 29.634 25.11 14.707-.649 23.954-16.181 21.908-29.58-1.57-16.593-16.647-23.287-30.353-21.116-12.429 1.4-21.023 13.676-21.189 25.586m144.791 83.455c-.2 14.932 13.292 27.965 28.04 26.647 14.439-.57 25.355-14.367 23.774-28.416-.084-14.774-14.898-25.649-28.93-23.213-12.135 1.183-22.764 12.514-22.884 24.982" style="fill:#000;fill-rule:evenodd;stroke:none"/></svg>