<svg xmlns="http://www.w3.org/2000/svg" width="3000" height="3000"><path d="M1072 2300h-16c-1.1 43.856-7.943 90.123-33.212 127.263-4.629 6.83-11.014 12.12-16.51 18.183-16.532 21.146-33.048 58.638-2.7 84.372 18.26 15.185 49.933 12.495 65.624-1.665 27.93-24.234 32.932-63.578 31.798-98.148.223-36.22-10.426-71.418-20.738-105.702-2.456-8.196-5.981-16.064-8.262-24.303m-22-28c27.43.443 55.765 1.573 81.853-8.812 8.654-3.253 16.42-8.408 24.057-13.488 3.258-2.278 7.22-4.98 9.352-7.995 3.292-6.682.763-17.429 1.738-25.933.432-3.167-.914-9.171 2.424-10.325 57.449-1.274 115.09.231 172.576-.447-1.074 24.272-2.515 48.863-4.5 73-14.551-11.599-32.078-19.263-49.861-24.374-9.386-2.846-18.945-4.908-28.578-6.707-4.717-.817-10.262-2.359-14.676-2.333-4.07-.739-6.836 5.89-11.385 6.414v5c20.433 14.587 39.495 39.54 51.528 59.069 7.182 11.725 12.906 24.485 16.225 37.84 1.027 6.36 1.274 13.292 9.47 16.16 5.764 3.449 12.396 4.242 18.777 5.431-4.176 20.648-5.418 42.36-10.77 62.907-3.188 15.188-7.14 30.276-13.065 44.654-4.199 10.423-10.236 21.17-20.555 26.597-16.906 8.196-36.594 4.506-54.581 4.629-18.049-.457-36.009-2.446-54.029-3.287-.417 5.325-1.012 10.657-1 16 24.08 4.887 48.738 16.483 63.112 37.267 7.536 10.837 9.941 24.154 11.55 36.942 1.68 13.526 2.391 27.157 2.338 40.791 26.127.314 52.522-3.093 77.207-11.916 17.161-5.867 33.144-15.138 47.157-26.585 20.7-17.657 34.075-42.567 43.53-67.605 10.07-26.72 15.896-54.867 20.945-82.881 11.996-75.058 17.763-151.1 20.161-227.013 10.57-.52 20.744-4.081 30.336-8.237 3.969-2.701 7.832 1.427 10.262 4.735 10.75 12.758 23.114 24.029 34.042 36.628 4.702 4.128 8.598 9.103 13.083 13.408 4.693 4.05 8.957-6.65 9.112-9.577.826-4.986-.546-9.995-2.343-14.492 1.407-8.137 7.107-15.173 9.404-23.089 10.161-22.4 18.418-45.608 27.604-68.376 8.83 50.183 20.352 100.336 36.571 148.735a838 838 0 0 0 20.217 53.77c1.427 3.388 4.452 8.087 2.405 11.08-30.914 53.64-69.915 103.182-113.456 146.894C1494.56 2560.143 1443.66 2596.89 1390 2627c-.422 5.437 6.207 9.987 7 14 7.606-.534 14.742-4.14 21.93-6.365 53.546-18.335 105.276-41.768 153.711-71.087 47.279-29.251 92.249-63.653 130.859-103.548 24.208 36.14 52.991 68.776 84.632 98.546 16.574 14.294 32.412 29.5 50.275 42.258 8.628 6.55 17.293 13.056 26.305 19.06 4.27 3.09 8.58 6.113 13.012 8.968 4.208 2.374 8.746 6.543 13.276 7.168 8.419-29.305 22.87-57.043 43.496-79.648 20.783-22.826 49.217-38.667 79.504-44.352-.02-4.64 3.411-12.26-1.22-14.31-4.968-2.265-10.4-3.444-15.475-5.432-40.38-14.214-79.981-30.783-118.14-50.186-36.991-18.468-72.782-39.807-105.165-65.572 30.857-41.34 56.471-86.738 78.438-133.355 10.747-24.153 22.134-48.116 31.11-73.028 2.428-6.573 4.718-13.168 7.185-19.714 1.19-4.608 3.022-9.04 9.194-8.636 12.464-.967 31.438-2.98 34.073-21.767-32.734-9.749-65.392-20.008-98.1-29.879-12.224-4.127-24.713-7.346-36.984-11.311-10.955-3.352-21.86-6.942-32.934-9.85-5.587-1.868-5.762 7.184-6.636 10.85-14.648 71.808-36.811 142.074-66.156 209.215-.712 1.998-1.747 3.904-2.19 5.975-4.631-1.805-7.173-8.527-10.733-11.632-23.939-31.603-43.088-66.472-58.118-103.13-3.952-9.834-7.286-19.892-11.1-29.774-1.631-7.185-5.854-16.53-6.615-22.597.038-4.811 5.62-9.477 7.909-14.408 4.658-6.842 9.152-13.777 13.766-20.633 3.514-6.523 11.211-14.522 11.891-20.826-16.958-2.243-36.336-8.788-52-10-.332 17.63-3.946 35.068-4.906 52.656-.558 7.847-6.312 11.984-10.998 17.699-19.228 18.365-39.46 35.631-60.09 52.414-3.886 3.072-7.698 6.26-11.645 9.234-4.168 3.665-8.181-1.316-11.505-3.917-26.334-22.373-53.242-44.048-79.528-66.45-3.272-2.635-6.968-5.948-10.055-8.236-3.555-1.96-6.881 1.396-9.248 4.075-9.591 9.41-18.877 19.098-28.54 28.421-5.165 4.243-9.992 8.86-14.587 13.706l-7.13 7.13c-1.791 2.203-5.25 4.521-4.768 6.768-3.52.74-9 .723-12.75-.456-2.69-7.364-.226-18.028-1.25-25.742v-80.668c.053-2.771-.17-8.11 3.031-8.193 24.924-1.259 50.054.23 75.02-.441h28.071c13.231-.546 32.154 6.197 39.932-11.615 2.405-6.118-3.004-9.766-6.787-13.618-13.194-13.573-28.014-25.296-42.02-37.964-7.05-6.209-14.358-12.095-21.412-18.29-3.574-3.049-7.246-5.95-10.813-8.988-3.362-2.74-7.153-6.533-11.022-6.525-7.242 12.471-17.573 23.635-25.543 35.773-4.5 5.874-8.858 11.84-13.233 17.794-3.996 5.677-8.53 13.22-14.724 14.433-1.426-34.869.26-70.24-.5-105.204-.101-5.737-1.786-14.509 7.014-13.788 24.678-.024 49.35.005 74.014-.008h28.068c7.265-.65 17.304 1.365 23.216-.015 5.939-1.532 11.493-5.718 13.742-11.6 2.405-6.118-3.004-9.766-6.787-13.618-13.458-13.364-27.932-25.642-42.179-38.13-7.046-6.1-14.24-11.986-21.249-18.12-3.567-3.044-7.252-5.957-10.817-8.992-3.362-2.74-7.153-6.533-11.022-6.525-7.242 12.471-17.573 23.635-25.543 35.773-4.5 5.874-8.858 11.84-13.233 17.794-3.996 5.677-8.53 13.22-14.724 14.433-1.313-36.652.121-73.822-.426-110.58-.044-5.593 3.935-5.859 8.105-5.418 31.884-.005 63.774 0 95.645-.002 13.939.004 27.886-.004 41.813.002 5.808-.133 12.915 1.586 18.044-.524 4.989-1.94 9.58-5.398 11.644-10.495 3.037-5.827-1.962-9.254-6.237-12.57-30.6-27.168-62.923-52.326-95.054-77.65-2.997-2.179-6.818-6.148-9.774-3.087-19.35 22.248-36.157 46.846-55.021 69.536-3.805 6.386-9.515 6.481-15.928 5.788h-72.526c-18.169-.033-36.34.04-54.506-.022-6.147-.263-11.75-3.283-17.46-5.233-19.79-7.667-39.724-15.004-59.563-22.518-9.907-3.662-19.688-7.654-29.618-11.223-9.361-2.718-19.727-8.742-28.638-10.004zm53 20c8.229 34.306 14.97 69.36 15.533 104.838 1.66 27.408-.144 54.863-4.247 81.954-3.005 9.48 6.355 17.215 13.664 21.785 14.079 9.799 33.774 6.139 45.697-4.94 17.714-17.593 23.24-44.223 21.956-68.357-1.114-25.446-9.735-49.814-21.535-72.117-12.932-24.747-32.205-45.347-52.075-64.568-4.646-4.917-13.744 1.046-18.993 1.405m396-1144c4.126 16.982 1.442 35.198-6.824 50.589-14.08 25.781-35.936 46.097-55.651 67.386-16.061 15.516-31.591 31.458-46.238 48.274-10.5 12.144-21.091 24.379-29.057 38.368-24.44 45.34-32.851 97.55-33.23 148.383h214c-.251 9.401.802 20.74-1.665 29.14-2.447 8.877-10.528 11.346-18.53 12.57-16.866 3.159-34.083 2.148-51.112 2.29h-91.065c-22.471.66-45.202-1.258-67.535 1.793-15.63 2.09-31.091 5.812-45.818 11.504-9.797 3.882-21.196 9.072-29.06 14.775-2.884 2.253-7.607 4.271-8.034 9.125-.517 33.261.094 66.534-.181 99.803h28c2.396-13.98 10.713-26.396 23.35-33.08 23.258-12.716 50.75-11.337 76.269-11.918 41.974-.005 83.92 0 125.892-.002 20.931-.338 41.871.414 62.78-.228 17.962-1.312 36.962-9.493 46.209-25.772 7.703 11.939 19.888 20.181 33.7 23.451 13.193 3.431 26.932 2.51 40.403 2.549h146.89c22.657.576 49.786-.595 70.196 4.173 18.346 3.528 40.55 16.616 43.311 40.827h28v-90c.108-6.29 1.495-13.534-6.045-17.654-17.08-12.521-40.92-20.422-59.618-24.715-23.604-5.467-47.75-5.31-71.8-4.631h-106.654c-17.462.183-35.078.653-52.267-2.963-7.932-.889-14.715-6.83-15.347-15.078-.63-8.636.002-17.324-.269-25.959h213c.685-86.161-4.535-172.427-18.008-257.595-9.16-62.298-23.136-124.283-48.884-182.007-35.944-80.981-92.802-154.396-168.65-201.451-19.168-12-39.987-21.226-61.04-29.277-7.824-3.048-20.222-3.552-19.412-13.065-.463-29.888-11.594-59.513-28.982-83.579-8.324-11.214-20.586-22.524-31.29-29.516-7.249-5.31-14.275-5.014-22.255-4.51H1432c2.794 17.458 1.945 35.416 1.773 53.01-1.28 16.768-1.992 34.027-7.773 49.99-6.065.266-6.245-9.848-8.11-13.635-6.77-17.735-18.384-33.844-34.29-44.561-7.18-5.26-16.586-9.886-24.064-13.046-8.44-3.278-21.062-.824-31.536-1.758 4.1 21.221 9.088 42.537 8 64.38.33 20.379-2.04 40.826-7.856 60.408-2.744 7.35-14.045 10.388-20.667 15.854-15.086 8.703-28.139 20.955-37.787 35.398-17.723 28.56-21.388 63.052-33.77 93.694-5.045 13.019-12.035 27.926-19.672 38.265-32.788 43.518-43.363 98.604-65.408 147.32-1.832 4.2-5.509 9.602-5.432 13.453 2.03 8.786 9.728 15.212 13.329 23.287 9.223 14.363 18.148 28.908 27.417 43.224 4.27 6.468 9.002 14.37 14.111 19.416 11.12 10.959 26.613 15.158 41.61 17.233 13.884 1.375 28.72 2.767 41.507-4.13 20.577-10.368 33.693-30.11 47.703-47.41 10.806-13.281 21.926-26.616 35.268-37.495 4.394-3.63 10.086-8.784 16.435-9.496 22.699-2.665 50.16-4.42 69.94-12.106 10.368-3.683 19.72-10.09 27.374-17.897 3.944-3.993 7.42-8.45 10.676-13.009 3.242-3.247 4.53-10.96 8.222-12.389m-295 735v-114h-37v75.136c.809 11.936-1.039 26.322.69 37.147 1.5 2.418 6.412 1.24 8.614 1.717zm0 148v-117h-37v76.138c.599 12.487-.76 27.306.481 38.712 1.048 2.745 6.124 1.735 8.23 2.15zm-37 143h37v-112h-37zm1 97c21.078 47.635 44.384 97.065 47.74 150.323 1.414 6.918-1.5 15.502 2.987 20.42 7.924 8.1 18.628 13.576 30.166 13.068 17.52-.298 31.1-15.436 35.133-31.499 5.37-16.84 2.39-38.045-2.153-53.127-7.202-22.43-21.548-41.31-36.934-58.625-16.982-16.11-35.566-30.583-56.01-42.096-7.849-6.022-13.616-.6-20.929 1.536m78.5-1063c7.429-26.424 23.187-50.231 45.5-66.375-.447-1.735-1.37-3.269-2.5-4.625-5.478 1.528-11.325.865-16.82 2.377-17.89 3.736-34.123 14.453-44.094 29.796-4.002 6.679-10.2 15.657-3.346 23.063 5.426 7.22 13.28 12.03 21.26 15.764M1411 964c.032-2.48-.06-6.936-2.454-7.6-2.568-.938-5.157-1.83-7.82-2.48-14.424-4.109-28.89-9.44-44.088-8.92-14.214-.484-33.52 4.566-36.416 19.968.68 3.532-1.888 11.422 2.282 13.963 6.703 4.352 16.513 4.579 23.498 5.024 12.044 1.33 23.282-3.39 32.37-11.13 9.16-7.267 20.89-11.057 32.628-8.825m302 973c-25.414-11.926-49.804-26.51-75.001-38.997-12.306-6.268-26.444-14.094-37.717-19.872-6.374-2.999-12.569-6.322-18.688-9.794-6.037-2.678-13.987-7.956-19.594-8.337-12.801 48.194-33.588 94.305-56.651 138.377-17.302 32.118-36.451 63.304-58.615 92.332-4.355 5.607-8.662 11.224-13.226 16.657-3.365 5.23-9.629 9.852-11.01 15.299.604 2.669 3.042 5.26 4.293 7.38 4.113 7.158 9.957 2.772 14.89.3 81.082-36.411 152.896-90.648 214.19-154.715 4.148-4.504 8.026-9.252 12.392-13.557 2.845-3.432 5.603-7.73 10.452-7.955 13.165.171 32.848-1.862 34.285-17.118m-260-90h520.8c7.974.198 16.257-.018 23.622-3.533 5.099-2.78 12.2-9.007 9.58-16.269-37.596-33.879-78.034-64.705-117.485-96.367-6.077-4.756-10.628 5.876-13.748 9.128-13.812 17.676-27.208 35.655-40.815 53.474-3.388 4.545-6.814 9.03-10.348 13.448-3.032 2.632-4.526 8.08-8.283 8.653-14.024 1.304-28.263-.216-42.323.466v-113c15.66-1.435 37.602-7.686 37-31-60.03-3.642-119.91-10.433-180-13v157h-186c1.188 10.618 6.081 20.528 8 31m141-917.625c32.772 26.61 61.004 60.063 81.389 97.107 31.423 58.813 41.483 126.137 45.515 191.787 1.634 36.158 2.967 72.368 1.795 108.575-1.72 34.39-.584 69.858-7.699 103.656 14.565 1.369 29.428-.202 44.062.5 7.224-.289 15.789.43 22.356-.423 3.438-.703 2.116-7.04 2.582-9.31-.492-2.505.694-7.605-1.5-7.267-2.106-95.135-10.017-191.494-36.606-283.41-6.261-21.55-14.201-42.535-23.58-62.898-14.277-29.585-33.455-56.474-54.123-81.895-10.79-13.003-22.472-25.262-34.887-36.73-6.366-5.386-12.468-11.083-19.359-15.823-5.757-4.477-12.99-11.576-19.945-3.869M1746 1881c.518 4.066 4.531 6.427 6.713 9.63 39.453 43.412 74.864 91.015 101.177 143.594 6.269 13.666 13.042 27.128 17.838 41.42.927 2.85 1.861 6.121 4.22 7.656 18.897 10.792 42.152 16.773 63.72 10.635 20.46-5.007 37.088-21.555 43.633-41.417 8.34-25.58 3.409-54.237-10.907-76.6-19.69-32.168-52.425-54.118-86.398-68.978-36.568-16.581-76.34-24.436-115.84-29.984-4.622-.31-9.178-1.249-13.8-1.398-3.63-.52-6.636 4.167-10.356 5.442" style="fill:#fff;fill-rule:evenodd;stroke:none"/><path d="M327 2802.5c390.66 1.426 782.125-.26 1172.95.5 390.946-.76 782.184.926 1173.05-.5-79.284-468.283-156.02-937.69-234.792-1406.201-29.222-176.024-58.731-352.018-88.16-527.994-12.796-76.829-25.59-153.676-38.409-230.5-5.977-36.02-12.025-71.992-18-108-2.928-17.508-5.855-34.99-8.745-52.497-.795-4.678-1.595-9.35-2.358-14.018-.403-5.813-4.632-7.44-9.23-8.351-136.155-45.374-272.297-90.765-408.44-136.14-118.995-39.696-238.006-79.344-356.998-119.005-7.36-3.594-13.268-1.406-20.008 1.408-103.34 34.51-206.696 68.878-310.033 103.355a1093431 1093431 0 0 1-271.561 90.514 376799 376799 0 0 1-118.969 39.67c-18.676 6.196-37.335 12.443-55.998 18.654-3.991 1.804-9.7 2.485-12.774 5.267-95.938 570.136-190.308 1140.76-285.634 1711.041-35.77 210.46-69.684 422.872-105.891 632.797m744-501.5h-14c-1.1 43.856-7.943 90.123-33.212 127.263-4.629 6.83-11.014 12.12-16.51 18.183-16.373 20.708-32.68 57.246-2.7 82.372 18.528 14.646 47.478 13.347 64.777-2.726 27.644-24.765 31.65-64.317 30.644-98.889-.736-35.95-10.895-70.973-21.753-104.932-2.232-7.148-5.42-14-7.246-21.271m-20-30c27.468.59 55.767 1.13 81.755-9.527 8.416-3.719 16.2-8.667 23.759-13.865 3.214-2.523 7.218-4.794 8.713-8.84 1.755-8.629.048-17.664.774-26.391-1.625-10.555 8.805-8.577 15.955-8.377H1343c-.116 25.38-3.595 50.628-4 76h-1.5c-14.07-12.072-31.674-19.388-49.152-24.908-9.39-2.847-18.949-5.036-28.574-6.85-4.923-.843-9.802-2.283-14.817-2.427-3.83-1.228-6.495 6.124-10.957 6.185v3c20.433 14.587 39.495 39.54 51.528 59.069 7.182 11.725 12.906 24.485 16.225 37.84 1.027 6.36 1.274 13.292 9.47 16.16 5.626 2.937 12.952 5.056 18.777 4.931-3.287 20.774-5.44 41.788-10.078 62.336-3.182 15.395-7.18 30.65-12.798 45.339-4.167 10.465-9.577 21.554-19.435 27.818-16.366 9.345-36.236 6.015-54.101 5.957-18.874-.827-37.749-2.08-56.588-3.45-.325 4.663-.893 9.326-1 14 24.08 4.887 48.738 16.483 63.112 37.267 7.536 10.837 9.941 24.154 11.55 36.942 1.68 13.526 2.391 27.157 2.338 40.791 25.876.308 51.866-3.593 76.274-12.268 16.905-5.992 32.704-15.17 46.51-26.564 20.191-17.448 33.372-41.775 42.768-66.317 10.052-26.33 15.886-54.105 20.931-81.747 12.255-75.726 18.036-152.499 20.517-229.104 12.717-.438 24.48-5.617 35.66-11 9.31 9.728 18.028 19.985 27.442 29.602 8.853 9.524 19.321 20.635 27.398 29.398 6.343-3.441 6.87-12.043 5.939-17.564-1.372-4.213-4.312-7.58-1.007-12.279 13.857-29.423 25.356-59.861 37.068-90.157 14.259 73.28 30.754 147.461 62.5 215.5-32.077 53.593-69.683 104.202-114.029 148.316-22.39 21.921-46.472 42.934-71.744 61.728-25.142 18.05-50.994 35.854-78.227 50.456v1.5c2.247 3.197 5.892 7.48 7 10.5 57.901-17.604 113.881-42.599 166.14-73.086 25.426-15.106 49.82-32.05 73.317-49.982 23.746-17.957 46.007-38.808 67.543-58.932 45.42 73.01 113.697 129.9 184.5 177 9.686-28.841 22.659-57.275 43.996-79.648 20.783-22.826 49.217-38.667 79.504-44.352.611-3.32.614-8.032 2-10.5-4.133-3.262-11.53-4.268-17.161-6.71-45.751-15.96-90.445-35.091-133.265-57.758-30.839-15.956-60.45-34.302-87.91-55.576-6.48-3.81 1.932-11.786 4.504-15.822 28.21-40.475 52.44-83.56 72.934-128.405 10.504-22.681 20.499-45.65 29.228-69.082 2.254-6.247 4.467-12.511 6.75-18.734.732-2.164 1.73-4.213 2.881-6.167 7.553-2.868 16.78-1.084 24.365-4.612 7.171-2.927 13.68-8.958 15.674-16.634-56.376-17.342-113.367-34.193-169.5-52-.45.458-.96.911-1.5 1.25-14.29 78.331-39.071 155.1-71.5 227.75-27.524-32.091-49.035-69.384-65.62-108.168-8.207-20.583-16.832-41.467-22.124-62.986 3.76-9.242 11.78-17.447 16.587-26.387 6.17-8.454 11.221-17.723 17.657-25.959v-1.5c-16.775-2.604-33.186-7.634-50-10-.468 13.635-2.713 27.17-3.856 40.76-.841 5.62-.5 12.528-2.239 17.508-4.955 9.29-14.14 15.443-21.38 22.706-12.79 12.961-27.466 23.81-41.157 35.74-5.275 4.331-10.516 8.695-15.884 12.912-2.143 1.807-4.249 3.516-6.808 4.551-4.465 0-9.584-6.967-13.261-9.02-29.657-23.956-58.303-49.202-87.915-73.157-11.606 11.355-22.797 23.104-34.507 34.342-6.46 5.27-12.17 11.411-18.095 17.26-2.856 2.762-5.501 5.915-8.941 7.932-4.281.567-8.644.52-12.957.466v-114h65.4c16.412-.014 32.838.017 49.241-.01 9.374-.083 22.584-1.112 28.732-12.01 2.697-4.52-.098-7.866-3.475-10.582-19.496-19.834-41.138-37.312-62.098-55.535-7.62-5.121-14.386-13.67-23.8-18.863-7.242 12.471-17.573 23.635-25.543 35.773-4.5 5.874-8.858 11.84-13.233 17.794-4.397 5.297-8.627 14.463-15.224 14.433v-119h65.4c16.412-.014 32.838.017 49.241-.01 9.374-.083 22.584-1.112 28.732-12.01 2.697-4.52-.098-7.866-3.475-10.582-19.51-19.862-41.205-37.36-62.182-55.598-7.581-5.11-14.344-13.63-23.716-18.8-7.242 12.471-17.573 23.635-25.543 35.773-4.5 5.874-8.858 11.84-13.233 17.794-4.397 5.297-8.627 14.463-15.224 14.433v-116h141c12.29.195 28.259-.175 34-16.5-35.142-31.265-72.107-61.102-109.5-89.5-19.356 22.704-36.57 47.252-55.524 70.3-1.648 2.306-3.57 4.313-5.647 6.208-24.849 1.402-49.917-.255-74.802.492h-56.38c-12.978 1.021-24.812-4.256-36.561-9.151-35.273-12.976-70.342-26.904-105.586-39.849zm53 22.365c9.259 30.42 12.9 62.342 15.19 93.944 1.74 32.634 1.401 66.206-5.19 98.191 7.998 9.559 18.358 19.491 31.782 19.461 13.71 1.04 26.096-7.36 33.742-18.131 15.447-22.143 17.578-51.193 12.939-77.012-8.915-46.94-38.285-91.119-75.065-120.144-4.58.528-8.965 2.183-13.398 3.326zM1500 1147c4.087 16.955 1.892 35.116-5.886 50.718-13.34 26.282-35.618 46.272-55.09 67.757-15.725 15.814-31.954 31.21-46.303 48.277-10.508 11.553-22.194 25.884-29.551 38.179-24.786 45.113-33.502 97.27-34.17 148.069h214c.026 15.628 4.806 41.096-19.68 43.615-16.827 3.218-34.023 2.294-51.028 2.385h-90.465c-22.508.663-45.224-1.204-67.605 1.622-15.687 2.021-31.202 5.626-45.992 11.298-10.098 3.987-20.142 8.385-29.142 14.53-2.83 2.569-8.535 4.788-8.715 8.633-1.064 32.925.194 65.96-.373 98.917h26c2.402-14.193 10.974-26.688 23.832-33.353 23.365-12.507 50.842-11.103 76.388-11.646 42.176-.002 84.329 0 126.49-.001 21.076-.558 42.23.69 63.282-.394 18.33-1.426 35.814-10.77 45.508-26.606 8.096 11.503 19.124 20.848 33.242 24.03 13.005 3.895 26.703 2.998 40.063 2.97h148.089c22.688.578 49.832-.606 70.294 4.05 18.504 3.45 41.026 16.52 43.812 40.95h26v-88.2c-.008-5.986 1.523-13.029-5.57-17.104-16.822-12.552-40.428-20.4-58.91-24.8-11.245-2.31-22.619-4.025-34.068-4.823-12.18-.197-24.345.026-36.519-.073h-109.05c-17.658.179-35.465.678-52.837-3.088-21.338-4.229-13.619-28.41-15.046-42.912h213c.65-85.68-4.747-171.455-18.08-256.139-9.187-62.1-23.154-123.907-48.812-181.463-35.874-80.552-92.265-153.903-167.747-200.854-18.892-11.972-39.497-21.152-60.25-29.28-4.175-1.446-8.325-2.927-12.568-4.124-11.295-1.434-8.28-12.134-9.001-19.733-3.35-27.654-13.595-54.852-31.08-76.768-8.125-10.164-19.713-20.462-29.82-26.784-6.95-4.786-13.67-4.087-21.152-3.855-7.431.563-15.138-.73-22.49.5 1.883 3.18.9 8.5 1.615 12.684.878 29.016.906 64.23-7.615 89.816-7.654.951-7.902-6.693-9.518-11.806-6.091-17.974-17.669-34.094-33.173-45.2-7.325-5.093-16.46-10.31-24.003-13.483-9.765-4.232-21-1.627-31.306-2.511 5.501 21.045 8.428 42.813 8 64.578.255 20.456-2.043 41.109-8.052 60.73-3.12 7.065-14.321 10.086-20.924 15.593-15.028 8.797-28.09 21.024-37.63 35.58-17.467 28.5-21.177 62.747-33.474 93.253-5.045 13.019-12.035 27.926-19.672 38.265-32.658 43.393-43.31 98.26-65.199 146.865-1.42 4.251-5.717 9.408-5.493 13.148 8.364 16.02 19.43 30.74 28.642 46.295 8.752 12.92 17.383 29.617 27.592 39.829 11.661 9.954 26.784 14.456 41.837 15.964 7.18.27 14.379.996 21.568.72 25.004-3.571 42.014-24.621 56.493-43.081 10.973-14.472 22.894-28.2 35.914-40.841 4.737-4.612 10.84-9.489 15.828-12.907 5.204-3.538 12.99-2.765 18.457-3.67 21.619-2.322 43.842-4.57 64.045-13.123 9.336-4.55 17.858-10.594 24.717-18.436 3.577-3.943 6.73-8.23 9.605-12.685 2.69-3.964 3.686-10.277 8.746-10.077m-295 737v-116h-39v97.096c.181 4.937-.252 9.896.211 14.812.205 4.315 4.4 4.033 7.322 4.087 10.498.015 20.981-.003 31.467.005m0 148v-119h-39v98.6c.08 5.015-.104 10.012.075 15.014-.068 7.72 12.675 4.825 17.495 5.386zm-39 143h39v-114h-39zm3 97.497c14.937 26.677 26.034 55.494 35.2 84.638 6.748 22.948 12.224 46.676 12.8 70.702-2.598 18.358 24.834 28.905 37.639 25.138 29.71-7.65 33.248-43.653 30.013-65.885-3.63-25.072-19.892-51.384-35.237-68.203-17.344-20.66-44.43-38.268-65.496-50.584-4.365-2.256-9.883 3.2-14.919 3.697zM1248 1209c5.75-27.932 24.692-50.232 46-67.625-.505-1.688-2.275-3.268-3.591-4.81-2.12-.113-4.25.052-6.372.265-21.333.88-42.304 11.206-54.736 28.823-5.72 7.678-12.052 19.595-5.696 26.665 5.73 7.681 15.594 15.2 24.395 16.682m164-244c-.315-3.01.724-8.515-2.43-9.583-3.428-1.309-6.977-2.27-10.503-3.257-14.361-4.569-29.316-9.385-44.512-8.262-14.897.006-34.572 5.89-35.477 21.657-.23 4.716-.364 9.717 1.445 14.107 7.321 4.018 16.166 5.19 24.484 5.293 6.315-.006 13.023.558 18.982-2.028 8.26-3.332 15.133-8.984 22.457-13.854 7.666-4.855 16.986-4.549 25.554-4.073m11 1157.625c3.277 3.424 5.208 7.945 8.5 11.375 52.187-24.038 102.796-52.707 147.128-89.721 22.827-17.875 44.294-37.364 64.605-58.012 10.921-9.655 19.904-21.184 29.957-31.597 7.284-4.012 15.614.594 23.254-3.127 5.582-2.419 13.327-5.88 15.556-13.543-50.317-23.997-98.394-53.533-149-77-12.95 48.694-34 95.296-57.382 139.78-11.63 21.623-24.173 42.767-37.908 63.11-13.485 20.487-29.319 39.921-44.71 58.735m23-305.125c2.631 9.466 5.55 18.965 8 28.5h502.8c13.192-1.036 44.25 5.418 49.71-15.864-.08-2.967-4.696-4.925-6.49-7.594-18.581-16.297-37.627-32.06-57.052-47.34-19.496-14.457-37.528-31.52-57.468-45.202-15.884 19.074-29.779 39.81-45.495 59.03-3.912 5.06-7.606 10.298-11.638 15.255-2.904 3.329-5.58 7.895-8.455 10.758-2.5 2.554-7.46 1.81-11.379 1.957H1773v-115c15.097-1.639 35.955-6.899 37-29-59.361-3.772-118.586-10.137-178-13v157h-186zm146-888.75c31.466 27.797 61.344 59.293 81.315 96.761 31.903 58.578 42.17 125.831 46.443 191.46 4.014 70.948 2.894 142.383-4.758 213.029h68c.34-98.988-8.409-198.915-34.466-294.688-12.043-44.397-30.993-86.853-58.71-123.685-13.433-18.768-28.066-36.711-44.557-52.86-8.175-8.202-16.719-16.086-25.943-23.093-4.274-3.562-8.826-6.777-13.493-9.783-5.897-4.79-8.964.501-13.831 2.109zm155 953.625c30.854 33.396 59.632 68.98 83.68 107.664 17.847 28.873 33.239 59.335 44.668 91.311 22.559 14.409 53.167 19.626 77.694 6.069 16.953-9.55 28.87-27.516 31.88-46.639 5.537-30.267-7.156-60.667-27.363-82.78-8.834-10.903-22.14-20.955-32.73-28.104-11.72-7.673-23.865-14.771-36.614-20.602-41.885-18.353-87.51-28.31-132.876-32.709-2.294 2.283-6.381 3.416-8.339 5.79" style="fill:#000;fill-rule:evenodd;stroke:none"/></svg>