<svg xmlns="http://www.w3.org/2000/svg" width="3000" height="3000"><path d="M449 2666.5v1.5h2102v-1.5c-63.81-378.768-126.215-757.87-189.705-1136.696-47.349-283.998-94.654-568.016-142-852-4.398-26.67-8.911-53.338-13.325-80.003-1.118-6.656-2.232-13.342-3.35-19.985-.571-3.586-1.119-7.183-2.096-10.662-1.288-2.958-6.82-3.128-9.193-4.54-101.51-33.828-203.017-67.663-304.512-101.514a746151 746151 0 0 1-266.522-88.84c-39.072-12.89-78.06-26.135-117.144-38.98-4.713-1.335-9.273 1.032-13.839 2.453-144.507 48.104-288.95 96.378-433.449 144.467-54.18 18.08-108.385 36.116-162.566 54.195-23.808 7.923-47.625 15.882-71.434 23.805-5.676 1.96-11.407 3.738-17.06 5.726-6.564 1.113-6.72 8.744-7.34 13.268C740.08 921.349 682.77 1265.54 625.383 1609.692 566.339 1961.663 508.308 2314.864 449 2666.5M1209 1066c.787 8.119 2.925 16.132 3.963 24.23.68 4.13 1.864 8.31 1.49 12.523-1.852 6.009-8.996 11.579-12.03 18.362-7.599 11.93-13.219 24.936-17.121 38.507-4.716 13.726-4.645 28.262-5.76 42.46-18.96 21.509-45.37 17.538-71.097 20.374-11.07 1.01-22.242 1.624-32.99 4.697-20.15 5.471-37.732 22.367-39.261 43.9-1.515 9.58-1.344 19.346-2.908 28.908-2.896 16.805-15.55 29.55-23.385 44.069-7.17 12.16-15.038 26.963-19.13 39.295-3.977 12.743-6.478 26.481-2.754 39.632 6.321 20.646 21.911 42.143 36.954 54.804 13.247 10.269 23.38 23.976 37.073 33.898 4.798 3.427 10.199 6.654 16.239 7 11.44.368 18.896-13.35 22.049-22.208 6.33-17.03 7.133-35.428 6.59-53.346-.488-7.915-2.049-18.008-7.113-23.652-6.118-6.888-13.796-7.694-21.809-8.453v-31.8c-.938-16.97-.555-35.233 10.822-49.203 7.542-9.37 17.628-16.894 29.644-19.359 19.478-4.7 39.942-1.455 59.739-2.638H1239c-1.133 6.762-9.954 12.142-14.602 18.102-20.574 21.517-43.154 41.976-58.865 67.57-14.308 22.84-16.308 53.823-2.838 77.695 12.637 20.23 13.322 45.036 23.202 66.37 8.092 18.12 22.216 33.474 40.074 42.287 33.989 18.46 73.899 21.547 111.67 18.057 12.895-1.512 28.38-3.647 39.315-8.657 11.152-5.335 15.837-17.885 15.04-29.52.035-21.188-8.542-41.701-21.262-58.263-8.615-11.54-22.192-22.666-35.013-26.568-11.36-3.858-23.602-1.253-35.068.35-7.404 1.334-17.226 7.282-21.676-2.972-1.604-2.84-4-6.092-4.466-9.114-.7-5.034 8.445-7.017 10.99-9.966 14.047-8.238 27.23-17.8 40.544-27.147 25.153-18.077 49.038-37.845 72.76-57.715 2.817-2.53 5.892-5.476 9.276-7.033 7.262-1.777 14.888-1.132 22.243-2.192 21.65-2.382 43.11-6.531 64.005-12.647a320 320 0 0 0 23.776-8.27c7.884-2.342 14.82-7.723 22.895-9.367-.58 10.094-7.525 21.031-13.932 27.264-15.967 14.03-38.194 14.955-57.822 19.206-16.945 3.453-34.128 10.679-44.569 25.123-4.48 6.256-6.64 14.02-6.664 21.614-.51 7.49 2.837 16.09-3.369 20.752-4.591 4.31-9.449 10.078-12.154 15.213-4.868 11.675-5.29 27.292-4.565 38.662.336 5.218 1.91 11.785 7.337 13.386 10.113 2.403 22.49-.554 31.41-2.854 16.535-4.378 35.734-12.612 41.67-30.382 2.193-6.576 1.122-13.774 2.836-20.436 1.174-7.812 6.166-9.894 12.782-9.943 10.5-1.124 20.5-5.615 29.341-11.204 6.429-3.886 10.934-11.849 16.366-15.856 8.528-7.183 19.103-10.799 29.245-15.006 10.337-4.409 20.777-8.515 30.903-13.376A9.8 9.8 0 0 1 1604 1390c-.773 4.164-5.51 6.07-7.845 9.384-11.028 11.46-19.52 25.466-22.41 41.318-2.324 6.585-.708 16.894-4.433 21.4-4.33 5.089-9.72 9.087-14.547 13.633-4.372 5.752-9.51 7.296-15.947 8.357-21.637 6.685-40.688 21.836-51.712 41.743-4.288 7.287-3.444 18.785-10.437 22.283-24.386 16.337-47.865 43.765-58.578 68.545-3.113 6.838-6.286 16.439.464 20.848 20.379 11.913 48.728 13.559 69.445 16.489-3.658 64.35-10.675 128.555-21.522 192.118-5.213 32.34-11.56 64.467-18.848 96.396-3.554 15.179-7.076 30.335-11.702 45.226-1.911 7.67-4.205 15.18-6.764 22.655-.618 3.753-3.058 7.562-2.372 11.09 2.23 2.263 6.433 4.274 8.708 5.515 30.753-26.063 59.443-54.54 83.735-86.968 23.073-31.532 45.673-64.276 61.765-100.032h23v278h-177v-2c5.447-10.185 10.277-21.01 9.975-32.795.894-34.791-23.26-64.243-49.379-84.01-19.303-14.93-41.563-25.412-64.454-33.522-3.046-1.23-6.227-2.138-9.313-3.242-7.275-1.304-7.618-7.092-6.829-13.15V1894c44.671-1.048 89.59 1.278 134.191-.69 8.69-1.356 21.052-9.852 10.55-19.034-20.497-21.39-42.054-41.575-63.216-62.251-6.561-7.164-14.02-13.363-21.025-20.025-9.941 13.716-18.563 28.34-28.074 42.335-4.314 6.862-9.984 14.528-13.679 20.974-2.366 3.524-4.611 7.095-7.042 10.567-2.708 4.561-7.227 4.3-11.705 4.124v-184.8c-.037-4.82-1.125-10.84 5.461-11.612 12.452-2.4 26.129-7.73 28.539-24.588-52.142-2.763-103.855-11.211-156-14v235h-123c1.072 8.2 4.937 15.8 6 24h105c-4.01 36.26-11.689 72.08-18.273 107.926-10.12 52.79-24.892 104.764-42.317 155.561-8.341 25.262-18.916 49.716-29.687 73.998-6.216 12.133-11.963 24.523-18.436 36.523-3.312 5.337-6.11 10.993-9.406 16.33-.897 2.437-4.717 6.356-2.799 8.655 1.686 2.465 4.131 4.174 6.418 6.007 6.7-3.65 11.814-10.22 17.914-14.797 20.695-17.905 39.876-37.584 57.933-58.117 8.89-10.189 17.492-20.602 25.923-31.162 4.055-5.293 8.034-10.677 12.042-16 3.906-4.178 7.54-13.102 12.688-13.924v357c18.294.227 36.72.257 54.674-3.708 12.683-2.88 24.898-7.422 36.81-12.569 7.996-4.046 16.084-8.168 23.1-13.804 7.173-4.894 8.075-11.704 7.416-19.344V1986h3c14.881 39.723 26.781 81.283 26 124.122-1.476 10.223 9.911 17.007 17.373 21.926 13.047 7.816 29.463 10.7 44.15 5.59 7.044-2.363 13.512-6.275 19.387-10.745 4.226-3.768 5.859 1.496 6.03 4.88.808 3.686 2.76 7.758 3.06 11.227h178v380c37.716 1.115 77.558-1.088 110.529-21.896 7.183-4.889 15.16-10.058 19.336-17.757 2.114-7.355.534-15.28 1.135-22.795V2143c62.832-.895 125.807 1.091 188.595-.59 6.78-1.042 14.714-2.397 19.152-8.248 4.15-4.706-3.63-10.437-6.333-14.073-14.775-15.066-29.55-30.24-45.54-43.997-15.321-14.51-30.044-29.606-45.849-43.568-6.129-6.593-13.084-12.291-19.525-18.524-11.87 17-22.449 34.92-34.18 52.027-10.732 17.446-23.269 34.238-33.32 51.973h-23v-278c52.84-.847 105.877 1.033 158.65-.557 5.52-1.405 12.386-4.122 15.497-8.597 3.631-4.959-3.436-9.15-6.337-11.683-26.482-23.004-55.118-43.407-82.926-64.743-8.304-6.67-17.325-12.462-25.384-19.42-10.873 14.62-22.962 28.648-34.192 43.057-9.02 10.648-17.348 21.894-26.262 32.623-3.434 5.688-8.734 5.824-14.393 5.32H1594c.894-5.557 5.706-11.959 7.656-18.337 9.475-22.386 19.265-44.705 26.898-67.805 2.138-6.017 4.474-11.933 6.352-18.042 1.35-3.79 2.19-9.672 6.89-10.49 13.587-.748 27.007-7.212 33.204-19.826-40.734-10.6-82.126-19.326-123-29.5v-3c16.109-1.978 29.264-16.609 28-33 8.649-2.176 18.036-8.422 22.494-15.282 8.26-16.433 23.345-27.138 37.03-38.625 25.362-21.938 53.292-42.3 72.741-70.182 8.71-12.825 13.933-27.675 15.715-43.036 2.068-7.117-.273-16.722 2.369-22.221 17.384-20.4 39.662-36.019 59.94-53.291 18.3-14.602 35.28-30.935 48.802-50.167 2.863-4.124 5.984-10.669 11.057-7.802 29.8 27.556 74.887 37.848 114.026 27.684 28.52-7.462 54.015-27.126 69.08-52.392 6.065-9.758 10.07-20.992 10.623-32.507.294-4.813-.748-10.862-3.784-14.284-6.31-7.02-20.42-.079-27.087 1.74-15.18 7.957-32.255 11.116-49.295 10.365-12.013.85-25.973-1.065-33.446-12.03-22.35-29.856-18.43-70.661-34.928-102.905-2.538-4.235-4.89-8.782-8.991-11.75-4.097-3.361-9.314-4.307-14.346-5.315-21.762-79.061-98.068-138.777-179.344-143.967-17.655-1.278-35.43-.544-52.79 3.298-30.532 7.374-59.498 21.454-90.96 24.832-14.893 1.322-29.875.97-44.758-.177-3.138-.395-6.877-.661-9.675-1.448-4.668-2.634-9.824-8.439-13.803-12.134-.682-5.14 6.351-10.019 8.583-15.33 6.184-9.797 9.262-22.55 4.515-33.634-3.565-10.179-13.628-18.056-24.528-18.393-10.87-.919-21.386 2.067-31.991 3.635-8.443.694-22.932 2.34-23.893-10.957-.372-9.336 5.703-16.98 10.611-24.177 9.824-13.452 19.49-29.141 16.598-46.574-2.946-14.761-15.22-26.656-29.804-29.668-12.838-2.898-25.98 1.794-36.707 8.584-8.084 4.73-19.119 12.088-30.754 6.974-5.548-2.688-5.693-8.145-5.243-13.204-.13-9.648 4.61-18.175 8.812-26.509 7.217-14.93 7.76-34.37-4.394-47.1-7.851-9.14-20.483-13.185-32.365-11.67-18.407 2.241-31.836 16.369-45.236 27.527-6.448 5.662-13.808 12.62-20.336 17.056-6.823 4.538-14.808 10.98-22.538 12.036-2.272-22.32-11.628-43.577-23.852-62.155-6.46-8.44-12.711-18.741-23.338-22.57-12.224-2.85-20.436 9.774-26.734 16.418-11.924 15.191-21.78 36.18-26.076 53.307-6.334.064-12.664-.173-18.982.327-2.611-.349-5.95 1.16-7.85-.34-4.988-6.384-9.274-16.737-15.64-24.124-5.004-6.502-13.334-14.39-19.034-18.05-3.256-2.196-7.087-3.008-10.893-2.259-10.761 9.579-9.15 28.882-9.536 41.46.15 5.842 1.043 11.592 2.063 17.327.475 4.204 1.992 9.751-1.8 13.739-23.433 24.133-29.255 58.3-35.803 89.638-2.423 7.765-4.647 18.084-16.04 19.512-7.349 1.27-15.203 1.397-22.038 4.793-12.247 7.125-3.804 19.588 5.846 23.103 9.22 4.718 19.61 5.754 29.707 6.874-.152 5.181.226 10.39-.222 15.544-1.824 6.994-10.448 13.328-14.182 20.981-17.74 25.687-32.273 61.837-31.594 90.874.092 24.636 8.683 49.444 24.917 68.076 11.637 13.2 26.82 24.53 44.253 29.012 27.044 8.282 57.68 3.207 80.696-12.876 10.343-7.594 20.968-18.982 25.986-29.785 2.888-6.408 4.944-13.18 5.465-20.206.382-6.947 5.638-11.966 10.227-16.752 3.914-4.314 7.49-8.916 11.455-13.172 5.703-5.093 17.121-3.943 25.16-7.619 8.022-1.676 18.049-7.626 24.839-8.077m13-153.5c8.71-4.5 18.831-6.977 28-10.5 5.396 18.326 11.839 36.752 13.497 55.962 1.748 16.633 1.11 34.034-7.07 49.184-3.201 6.478-7.362 12.414-11.68 18.184-1.791 2.857-5.751 5.285-6.271 8.221-.825 6.425 1.942 13.933 2.48 19.741 2.45 12.57 4.677 25.188 7.052 37.763.953 5.215 1.939 10.41 2.862 15.63 1.054 4.798 2.98 10.463-2.105 13.706-28.164 24.114-39.75 65.752-31.502 101.317 4.656 17.723 14.242 33.684 25.712 47.767 10.883 13.247 25.775 28.466 40.025 35.525v1.5c-20.294 22.871-42.382 44.138-63.37 66.37-8.02 8.019-15.143 16.87-22.388 25.563-6.072 7.522-11.502 15.794-13.894 25.296-2.089 8.916-1.667 18.358.646 27.163 4.188 14.252 16.148 25.504 17.799 40.817 3.232 22.146 12.572 44.929 31.074 58.673 19.265 13.947 43.734 18.004 66.835 19.934 8.757.657 17.528.84 26.298.684 4.502-18.778 1.997-42.705-6.201-58.4a51.3 51.3 0 0 0-7.603-12.004c-1.81-2.347-4.111-5.639-7.27-7.119-10.598-.041-20.88 7.744-31.7 4.789-10.62-4.789-15.574-18.992-20.28-27.538-2.263-5.285-4.788-10.448-7.007-15.75-3.744-6.013 3.247-9.229 8.016-11.449 37.071-18.763 69.738-44.854 101.44-71.361 12.163-10.028 24.075-20.37 35.916-30.764 4.677-4.08 9.541-10.029 17.49-10.21 53.071-2.736 103.922-22.53 148.538-50.452 42.95-27.825 79.915-65.082 105.161-109.742 7.758 3.963 17.015 9.177 24.5 12-17.97 35.68-28.203 75.15-27.507 115.248-1.348 30.117.863 62.164-12.243 90.31-1.926 5.008-6.45 7.976-10.43 11.266-14.53 13.573-28.222 29.134-34.725 48.365-2.451 7.141-4.428 14.479-5.064 22.039.688 13.575-14.69 21.826-23.036 30.196-3.392 2.97-7.686 7.335-12.75 7.804-17.316 1.632-34.24 10.371-44.107 24.863-2.206 3.65-3.966 7.577-5.174 11.657-1.521 3.108-.256 7.78-1.985 10.098-2.602 2.776-7.896 3.645-11.73 6.07-3.82 2.32-9.687 4.898-10.249 9.084 26.37 6.01 48.812 26.116 62 49 4.513-.112 6.142-7.16 7.025-10.408.706-3.492.975-7.047.975-10.592 10.208-.797 18.376-7.917 22.105-17.126 8.807-15.33 27.779-25.97 39.324-36.627 23.959-20.55 49.995-39.326 70.452-63.612 7.49-9.274 12.392-20.431 15.09-31.976 1.192-5.872 2.163-11.785 2.473-17.761.745-5.062-.033-10.884 1.494-15.68 22.191-27.767 53.698-55.555 78.05-77.002 12.995-12.18 25.375-25.485 34.479-40.887 9.353-15.603 14.933-33.176 18.95-50.81 9.1-42.49 10.032-88.353-6.51-129.25-23.31-57.767-80.6-99.735-142.988-102.979-16.983-1.13-34.063-.067-50.576 3.974-23.038 5.861-45.229 14.856-68.493 19.869-24.572 5.408-49.9 5.38-74.756 2.724-7.961-1.73-18.475-1.609-25.146-5.116-9.89-10.773-21.653-19.699-34.069-27.316-5.47-3.295-11.39-5.753-17.15-8.476-5.134-2.806-12.32-3.956-16.742-6.989-52.285-72.29-118.713-141.055-205.987-169.46 1.621-2.859.619-7.505 1-11.211.43-12.718-.135-25.717-5.493-37.516-4.389-10.687-11.604-20.03-19.034-28.715-1.63-1.647-3.254-3.398-5.473-4.058-7.956 9.685-14.146 21.348-19.462 32.695-5.083 12.523-6.134 26.463-5.177 39.807.284 6.342 2.022 12.516 2.347 18.83-8.9 43.773-42.582 79.607-81.152 99.865-7.404 3.924-14.984 7.506-22.811 10.495-9.517 2.682-6.189 14.335-6.745 21.767-.03 3.705.536 8.714-2.069 12.034-18.719 21.042-33.968 45.606-40.365 73.39-4.8 20.947-4.648 44.474 6.683 63.427 15.967 28.762 58.207 39.723 85.227 19.488 12.887-9.223 21.26-24.696 21.58-40.594.672-6.95 9.43-12.487 13.78-19.003 4.79-6.25 10.635-11.61 15.558-17.734 2.935-3.114 5.697-6.352 8.47-9.596 2.954-3.354 7.617-2.9 11.721-2.944 28.618-1.087 60.414-13.143 72.854-41.079 10.973-29.515 2.1-62.021-7.439-90.348m-201.664 163.083c.387 6.98 3.735 13.293 7.989 18.48 4.06 5.622 12.69 10.424 18.014 5.606 6.817-6.495 2.515-18.775-1.92-24.999-2.846-4.93-8.311-10.222-13.858-10.49-7.399-.534-10.226 5.297-10.225 11.403m83.778-126.362c-.496 9.685 9.488 18.47 17.865 17.729 9.311.217 17.442-8.58 16.977-17.879.128-9.478-9.247-17.621-18.46-16.917-8.525.49-16.294 8.271-16.382 17.067" style="fill:#ffe;fill-rule:evenodd;stroke:none"/><path d="M1208 1067c.788 8.201 2.955 16.283 4.023 24.447.144 3.314 1.922 7.308 1.115 11.177-2.792 6.604-9.138 11.202-11.94 17.889-7.638 11.936-13.125 25.04-17.053 38.613-4.738 13.674-4.373 28.23-5.728 42.327-7.994 8.938-21.771 15.967-32.63 16.797-23.517 2.803-51.77 2.706-72.886 8.359-9.99 3.55-19.779 9.135-26.67 17.376-14.28 15.587-10.754 38.034-14.34 57.045-3.808 16.642-16.786 29.318-24.338 44.192-14.793 24.685-29.281 55.822-18.457 85.032 8.348 20.27 22.005 38.676 39.365 52.09 12.599 10.394 22.07 24.438 36.455 32.899 5.115 3.25 11.358 5.52 17.502 4.206 12.07-2.862 16.57-15.979 19.979-25.145 5.71-16.914 5.995-34.96 5.511-52.566-.5-7.986-2.183-18.105-7.448-23.674-5.436-6.123-13.717-7.564-21.46-8.064v-31.2c-.927-16.517-.227-34.248 10.822-47.803 7.429-9.21 17.306-16.693 29.1-19.214 19.243-4.8 39.498-1.694 59.083-2.783 19.91.745 40.202-.911 59.995.5-9.513 10.613-19.535 20.767-29.731 30.735-16.114 18.247-34.899 34.785-46.255 56.79-9.586 17.142-11.7 37.744-7.28 56.777 2.516 13.856 11.757 25.102 16.114 38.235 5.907 20.08 8.147 41.989 21.124 59.432 11.063 17.72 29.36 29.49 48.534 36.726 36.035 13.957 76.14 14.567 113.933 8.825 11.454-2.525 27.71-4.044 34.996-17.994 5.617-10.92 3.32-26.275 1.695-36.786-3.778-20.115-16.776-41.98-31.02-54.152-11.364-10.712-26.49-17.623-42.336-15.927-6.056.552-12.122 1.277-18.117 2.262-4.873 1.154-9.684 2.472-14.64 3.1-3.646-2.512-5.4-7.292-7.913-10.931-.569-1.412-1.923-3.818-1.312-5.06 23.085-15.273 47.129-30.118 68.874-47.53 14.103-10.427 27.556-21.692 41.2-32.694 5.066-4.52 10.412-8.718 15.508-13.19 9.083-9.029 23.01-6.434 34.752-8.343 35.637-4.603 71.316-13.167 103.374-29.775.268.59.46 1.245.5 2-3.803 8.711-7.155 18.222-15.08 24.25-25.883 21.944-75.36 8.885-101.243 43.343-3.786 5.286-6.19 12.848-6.58 18.72-1.048 6.895.92 14.53-.129 20.553-9.063 7.742-17.28 17.535-18.985 29.757-1.593 10.776-2.101 23.7-.522 33.552 2.617 12.439 14.507 10.09 23.95 9.501 15.213-1.956 33.107-7.561 44.579-15.918 11.75-8.016 15.126-19.328 15.212-31.927.467-4.446 1.117-9.26 4.083-12.83 2.442-3.343 7.858-3.047 11.416-3.593 13.51-1.79 28.174-10.097 36.435-19.198 8.023-10.995 20.846-16.43 33.055-21.097 12.217-4.613 24.94-11.008 36.809-15.613-13.293 10.002-22.73 24.71-28.074 40.244-2.349 7.111-3.768 14.596-3.946 22.072.172 6.705-8.266 12.552-12.182 16.322-4.78 3.796-9.194 10.188-14.934 11.407-23.113 4.824-43.412 19.984-55.814 39.904-2.362 3.636-4.056 7.677-5.248 11.825-1.18 3.602-.806 9.311-4.436 11.958-25.25 16.408-49.664 44.15-60.87 69.498-2.734 6.58-6.716 16.804-1.848 22.09 9.11 7.615 23.732 9.676 33.73 12.737 12.363 3.116 24.99 4.287 37.622 5.443-2.92 38.136-5.194 76.543-10.445 114.511-2.481 19.131-5.29 38.235-8.198 57.298-1.395 8.982-2.7 17.975-4.311 26.913-.706 4.361-1.497 8.716-2.17 13.07-1.133 4.127-1.31 10.261-3.376 13.208-28.422-31.839-60.593-60.176-91-90-10.317 13.113-18.366 27.852-27.843 41.54-4.65 7.08-9.537 14.02-14.014 21.206-4.748 7.322-8.891 17.318-17.643 16.254v-184.8c.077-2.472-.123-5.128.695-7.488 7.44-4.42 16.35-2.868 22.659-8.882 6.287-4.682 10.313-11.964 10.646-19.83-26.32-1.36-52.517-5.154-78.802-7.055-26.006-3.677-52.894-3.733-78.698-7.945-1.426 78.54.26 157.4-.5 236h-124c2.027 8.445 5.732 18.111 7 26h105c-19.786 137.447-52.297 276.441-123 397.543 3.273 2.747 6.762 6.972 10.5 8.457 47.169-39.185 88.63-84.948 124-135 1.426 118.841-.26 238.083.5 357 18.765.272 37.636.365 56.081-3.569 13.155-3.046 25.923-7.6 38.226-13.116 7.961-3.938 17.257-8.964 23.412-14.378 7.337-4.32 6.29-13.682 6.281-20.162v-73.2c.76-137.119-.926-274.534.5-411.575 14.396 36.123 25.326 74.441 26.31 113.54.35 5.269.04 10.543.302 15.81.867 6.912 10.948 11.14 16.423 16.206 20.565 13.1 50.533 11.33 67.965-6.556 1.838 2.415 1.903 5.584 2.872 8.426.894 3.176 2.268 6.279 2.628 9.574h178v380c19.994.034 40.154.492 59.949-2.896 14.354-2.264 28.24-6.76 41.338-13.02 8.974-3.995 17.91-9.768 24.877-16.505 7.462-6.208 7.606-13.783 6.836-22.237V2144c62.832-.895 125.807 1.091 188.595-.59 6.78-1.04 14.7-2.395 19.15-8.243 4.895-6.453-1.757-10.12-5.326-14.907-14.391-15.446-29.744-29.977-45.307-44.172-15.774-14.008-29.607-30.122-45.975-43.477-6.859-7.261-14.47-13.7-21.637-20.611-12.609 16.626-22.465 35.217-34.609 52.174-10.956 17.702-23.605 34.844-33.891 52.826h-21v-276h139.8c12.137-.456 30.36 2.594 37.2-14.5-18.234-17.763-39.262-32.304-59.018-48.227-10.025-7.64-20.186-15.038-30.19-22.69-5.12-3.802-10.209-7.673-15.318-11.477-4.942-2.869-10.64-9.31-15.474-10.106-9.674 14.897-22.851 28.19-33.363 42.668-8.86 10.57-17.214 21.58-25.962 32.238-1.468 2.01-3.075 3.932-5.154 5.323-10.8 1.909-22.31-.11-33.26.771-33.357-.76-66.988.926-100.261-.5 13.156-24.094 21.395-50.638 31.92-75.892 2.181-6.785 4.59-13.492 7.094-20.149 1.373-5.164 3.66-10.15 5.35-15.117 12.737-3.794 32.193-3.757 36.636-23.342-40.881-9.966-82.367-18.728-123-29.5 13.941-3.107 29.553-14.65 28-33.5 7.948-2.141 16.95-7.593 21.43-13.735 7.531-14.392 19.348-25.356 32.13-35.086 21.523-18.194 43.473-35.955 63.042-56.281 15.612-15.044 26.898-34.803 30.476-56.27 2.046-8.43 1.46-17.108 2.302-25.621 2.228-6.685 9.602-10.503 13.49-15.377 34.997-32.188 76.75-58.544 102.63-99.63 42.074 38.06 111.67 45.305 157.905 9.85 21.781-17.14 41.66-42.604 40.443-71.903-.319-6.577-4.158-14.463-13.143-13.088-10.645.145-20.145 5.243-29.707 9.14-10.407 4.236-21.651 5.823-32.814 5.98-11.68.767-24.225.545-33.712-7.439-11.784-11.406-17.986-30.58-21.4-44.686-4.19-16.48-7.148-33.31-12.151-49.572-3.56-12.889-11.588-28.428-28.921-30.282-21.762-79.067-98.05-138.743-179.305-143.975-18.672-1.363-37.535-.637-55.862 3.544-26.537 6.368-51.636 18.038-78.51 23.03a190.5 190.5 0 0 1-43.4 2.155c-7.084-.357-14.196-.92-21.16-2.213-2.598-2.032-5.126-4.11-7.382-6.537-2.072-2.066-5.41-3.875-6.381-6.504 14.945-15.893 28.277-50.443-1.921-64.575-9.599-3.391-22.043-1.652-30.955-.231-8.941 1.585-20.643 4.18-28.619.298-8.507-4.869-4.38-16.256-.524-22.397 7.803-12.811 19.477-27.231 22.514-41.012 2.811-14.058-1.538-29.335-13.283-38.397-9.758-8.28-23.2-10.421-35.358-7.654-10.508 1.607-19.073 8.396-28.207 13.152-6.823 3.64-18.975 6.964-24.767-1.975-4.63-18.408 10-31.011 12.522-48.243 2.158-12.363-.281-26.142-9.657-35.189-12.814-13.922-35.863-14.012-51.29-4.841-15.374 9.064-27.72 22.275-41.29 33.615-8.27 6.545-17.022 12.664-26.665 16.949-4.943-28.361-16.762-56.418-36.83-77.586-4.57-4.074-11.02-9.723-18.93-7.294-10.873 3.22-17.974 12.725-24.35 21.413-6.227 8.613-10.986 18.166-15.457 27.77A118.6 118.6 0 0 0 1121 777c-6.35.14-12.71-.233-19.042.282-5.912 1.32-8.52-2.708-10.627-7.562-4.319-7.967-10.208-17.012-16.066-22.955-5.727-5.76-11.528-12.613-19.935-14.4-8.58-2.219-12.448 6.477-13.816 12.785-3.495 13.497-2.691 27.807-1.515 41.54.842 5.197 2.129 10.406 1.461 15.7-10.862 12.14-19.841 25.937-25.2 41.473-6.393 16.385-8.74 33.854-12.735 50.855-2.393 7.969-4.858 18.43-16.566 19.6-7.355 1.273-15.269 1.375-22.023 4.984-11.668 7.462-4.096 20.27 5.383 24.363 9.483 5.02 20.214 6.225 30.681 7.335-.243 4.931.448 10.863-.615 15.305-19.984 27.37-39.237 57.61-44.174 92.14-4.879 25.57 2.705 56.834 15.248 76.704 10.162 15.72 24.815 28.497 41.849 36.471 27.024 12.192 64.335 9.116 87.307-4.981 12.712-7.183 23.45-17.87 30.643-30.585 3.246-6.044 5.737-13.856 6.656-20.053.032-8.49 3.643-13.871 9.547-18.984 3.805-4.383 7.621-8.801 11.46-13.153 5.074-5.933 16.563-5.239 24.688-8.307 8.544-1.59 16.077-6.533 24.391-8.557m43-166c5.433 18.53 11.976 37.134 13.543 56.56 1.662 17.098 1.249 35.056-7.117 50.586-3.2 6.478-7.36 12.414-11.678 18.184-1.783 2.82-5.685 5.273-6.263 8.145 2.575 26.785 10.341 53.186 13.914 79.892.672 4.943-5.119 7.857-8.122 10.888-25.2 25.815-36.234 66.083-25.416 100.783 10.797 32.415 39.344 64.086 66.139 79.462-19.753 22.015-40.795 42.865-61.233 64.233-14.404 15.198-32.6 33.606-39.499 51.975-5.948 16.54.018 34.058 9.337 47.764 7.22 10.488 8.457 23.215 11.08 35.25 4.52 17.551 14.037 34.51 28.955 45.25 15.654 11.181 35.025 15.629 53.753 18.09 12.13 1.617 24.395 1.966 36.607 1.938 4.485-18.168 1.754-41.245-6.201-56.4-1.902-4.174-4.298-8.076-7.271-11.574-1.694-3.12-4.529-5.118-6.96-7.494-9.714.848-21.074 7.128-30.265 5.356-10.039-2.214-15.39-14.75-19.676-22.63-4.217-9.369-9.832-20.237-12.627-29.258 38.193-17.986 72.64-43.3 104.812-70.48 12.197-10.439 24.87-20.319 36.634-31.243 5.653-4.298 10.548-9.53 16.192-13.815 6.257-3.322 13.766-2.009 20.481-3.189 50.357-5.792 98.828-24.536 140.906-52.619 40.294-27.625 76.697-63.403 99.975-106.654 4.3.453 9.204 3.961 13.83 5.927 4.487 2.599 10.383 4.667 14.17 7.573-19.443 34.568-28.24 74.67-28.46 114.082-1.307 30.22.829 62.152-11.621 90.592-1.799 5.033-5.5 8.686-9.904 11.61-14.876 13.22-28.322 28.854-35.348 47.783-2.628 7.138-4.717 14.479-5.482 22.073.156 7.63-1.12 13.494-7.192 17.701-4.407 3.923-8.958 7.682-13.374 11.587-3.608 3.472-7.432 6.73-11.511 9.616-17.415 2.115-35.936 8.251-46.507 23.473-2.458 3.203-4.478 7.57-5.747 11.013-2.295 5.737-.039 14.1-8.708 16.143-5.72 2.405-11.316 5.393-16.146 9.327 26.646 7.063 48.423 26.272 62.5 49.5 4.843-5.548 5.3-14.728 5.5-21 10.208-.797 18.376-7.917 22.105-17.126 8.807-15.33 27.779-25.97 39.324-36.627 23.959-20.55 49.995-39.326 70.452-63.612 7.49-9.274 12.392-20.431 15.09-31.976 1.192-5.872 2.163-11.785 2.473-17.761.745-5.062-.033-10.884 1.494-15.68 22.191-27.767 53.698-55.555 78.05-77.002 12.995-12.18 25.375-25.485 34.479-40.887 9.353-15.603 14.933-33.176 18.95-50.81 9.188-42.176 9.897-87.704-6.901-128.19-23.565-57.531-80.922-99.06-143.18-102.076-16.787-1.126-33.683.253-49.935 4.506-23.355 6.146-45.94 15.216-69.65 20-24.215 4.933-49.095 4.666-73.513 2.103-7.923-1.554-17.896-1.76-24.77-4.658-10.046-10.73-21.627-19.976-34.207-27.562-5.446-3.324-11.29-5.834-17.072-8.492-5.195-2.806-12.275-4.1-16.875-6.915-27.46-35.867-55.608-72.012-90.24-101.499C1279.09 863.537 1240.4 837.681 1197 825c2.614-15.136 1.025-33.608-3.539-46.822-4.809-13.076-15.04-26.26-23.961-35.178-7.844 10.973-15.985 24.807-20.397 36.393-4.692 14.181-4.99 29.434-2.537 44.04 3.415 12.57-2.66 26.612-7.469 37.2-9.966 21.725-25.78 40.325-44.318 55.142-16.058 12.882-34.377 22.509-53.488 29.992-5.563 1.654-4.016 8.743-4.291 12.995-.18 5.112.252 10.242-.218 15.327-.506 3.7-4.202 7.328-7.031 10.63-21.874 23.579-37.211 60.35-38.105 89.837-1.234 24.373 10.79 49.402 32.843 61.307 17.044 8.965 39.298 10 56.069-.535 11.608-6.387 21.064-19.885 23.769-31.597 2.159-5.062 1.011-11.152 2.725-15.646 11.35-14.13 24.24-27.018 35.73-41.04 3.357-4.519 8.02-4.194 12.803-4.118 13.677-.9 29.727-4.446 41.117-9.806 12.452-5.634 23.079-15.123 29.732-27.094 9.77-19.34 8.087-42.277 3.197-62.624-1.102-5.571-2.465-11.068-4.223-16.47-1.104-3.988-2.794-7.804-3.545-11.877-1.506-5.961 8.478-7.16 12.306-8.963 5.606-1.587 10.89-4.828 16.831-5.093m-231.81 174.445c.086 10.108 12.611 33.92 27.682 25.596 7.805-6.314 2.947-21.093-1.065-26.787-3.064-4.914-7.917-10.98-15.414-11.377-2.224-.74-6.539 1.12-8.428 3.194-2.012 2.261-2.401 6.374-2.774 9.374m83.855-126.183c-.716 10.865 9.763 19.965 19.826 18.866 10.338.165 18.317-10.274 17.258-19.991-.124-10.466-10.443-18.286-20.394-17.035-9.114.454-16.993 8.877-16.69 18.16M1428 2116.5c58.2 1.426 116.732-.26 175 .5v-276h-21c-16.18 35.892-38.789 68.83-62.046 100.432-24.403 32.792-53.589 61.166-84.454 87.568-3.437-2.836-8.593-4.566-11.5-7.5 14.83-45.179 26.757-92.608 34.5-139.5-5.495 13.229-20.915 13.408-31.669 13H1308v40.545c.031 5.971-.038 11.928.021 17.887-.48 6.293 4.614 7.776 9.62 8.951 33.345 11.602 66.472 27.479 90.961 53.72 12.606 12.461 22.014 28.052 26.883 45.059 5.713 18.585 2.71 39.073-7.485 55.338" style="fill:#676767;fill-rule:evenodd;stroke:none"/></svg>