<svg xmlns="http://www.w3.org/2000/svg" width="3000" height="3000"><path d="M407 2715h2186c-120.11-729.14-243.257-1457.94-364-2187-121.653-40.09-243.099-81.112-364.7-121.395-91.164-30.407-182.32-60.766-273.474-91.162a32206 32206 0 0 1-51.529-17.183c-8.003-2.659-16.01-5.346-24-8-7.038-2.654-14.998-6.446-23.453-2.372-120.19 40.07-240.392 80.12-360.578 120.183C1011.124 447.878 891.186 488.387 771 528c-120.737 729.033-243.897 1457.913-364 2187m616-1685.5c1.244 3.52 6.593 5.637 10.043 3.845 12.666-7.612 24.631-16.409 36.76-24.826 8.8-6.287 17.135-13.22 25.653-19.867 4.424-3.454 8.517-7.292 12.828-10.852 4.192-3.11 7.394-8.464 12.716-8.8.505 4.625 2.264 9.014 3.713 13.37 3.268 3.177 11.251.622 15.15 1.63H1179v119c-41.607.76-83.478-.926-125 .5 2.221 3.671 2.582 9.8 4.57 14.482 1.429 3.539 1.774 10.484 5.96 10.695 34.812.922 69.715-.168 104.546.323H1179v299c-45.986 6.237-92.018 13.396-138 19.5 13.2 22.904 24.438 46.991 37.663 69.906 11.306 24.414 26.646 46.944 37.337 71.594 7.543-2.16 14.456-7.094 19.03-13.402 3.882-5.704 5.37-12.692 13.775-15.51 50.461-25.147 100.607-50.82 150.17-77.655 23.645-13.076 47.413-25.98 70.764-39.59 11.567-6.533 22.975-13.312 34.332-20.178 5.992-3.49 11.855-7.157 17.82-10.665 5.716-2.96 11.935-8.657 18.109-9v190c17.785.355 35.74.757 53.154-3.565 22.02-6.022 49.193-16.766 62.6-33.901 4.256-5.416 3.172-12.72 3.246-19.082V778h239v118h-2.5c-24.593-20.763-46.403-44.836-71.5-65-10.583 12.987-18.996 27.983-28.984 41.484-8.746 14.426-20.15 27.654-28.016 42.516h-97c1.472 7.344 4.111 15.912 6.255 22.427 1.34 3.866 8.741 1.935 11.525 2.573H1798v117c-4.01-.046-7.404-3.706-10.27-5.693-11.05-8.546-22.222-16.945-33.338-25.39-5.504-4.469-11.361-8.427-16.917-12.812-5.661-3.627-11.235-9.936-17.131-12.105-9.04 8.68-17.49 17.896-25.946 27.102-3.46 3.237-6.569 6.88-10.191 9.927-3.72 2.83-8.79 1.681-13.169 1.971-7.504.7-14.406-1.994-20.886-5.461-19.421-8.757-39.338-16.597-58.652-25.539-1.426 90.144.26 180.646-.5 270.852V1399.1c.066 5.26-1.456 14.582 4.644 14.648 20.087-.008 40.561-4.594 57.247-16.329 2.096-1.306 3.992-2.86 5.352-4.927 1.77-9.398-.004-19.478.757-29.019V1335h32v55c21.547 1.027 43.284-3.684 61.816-15.198 3.636-2.603 9.663-5.178 11.385-8.47 2.406-3.483 1.629-7.98 1.799-12.03v-264.554c.371-4.121-.674-9.312.986-12.531 5.18-2.912 10.723-2.575 15.73-5.123 5.173-1.355 10.904-6.418 15.284-7.094v249.6c-.008 41.813.01 83.637-.005 125.443.052 4.493-.45 9.483-3.765 12.889-6.096 5.926-17.484 3.519-24.924 3.992-26.12-1.043-52.187-3.176-78.306-3.924v11c14.372 2.877 29.068 6.642 41.78 14.21 18.815 11.304 31.476 30.337 36.136 51.501 5.279 22.38 7.45 45.347 8.084 68.289 20.898-2.222 41.854-5.055 62.158-10.61 28.6-7.04 56.967-23.55 69.812-51.33 12.806-30.267 14.048-63.844 14.03-96.18V798c9.705-1.56 19.308-4.963 27.564-10.345 2.152-1.48 4.282-2.992 6.187-4.766 1.058-1.143 3.573-2.375 2.524-4.505-3.659-3.87-8.062-6.943-12.281-10.162-9.854-8.068-20.148-15.57-30.001-23.634-16.69-13.073-33.444-26.104-50.075-39.245-4.166-3.245-8.35-6.455-12.474-9.75-3.035-1.644-7.08-7.155-10.255-5.65-8 8.342-16.663 18.933-23.902 26.686-8.36 11.41-21.136 21.633-30.287 35.371h-213c-6.676.223-13.62.464-19.695-2.808-38.822-16.62-78.003-32.596-116.805-49.192-1.426 45.88.26 92.058-.5 138h-3c-1.783-20.887-16.225-38.42-31.927-50.863-16.097-11.711-33.967-21.093-52.812-27.547-19.09-5.878-41.915-12.938-60.261-14.59v-3c11.635-2.034 28.679-5.227 33-20-53.838-15.793-106.976-35.026-161-50-4.237 33.056-13.534 65.31-22.79 97.23-13.797 46.895-30.854 92.824-50.176 137.694-19.135 42.597-39.966 85.03-68.034 122.576m9 1293.875c3.17 2.627 7.518 7.006 10.5 8.625 39.838-37.043 79.616-76.285 109.5-122h3v353c20.601.089 41.447 1.046 61.732-3.438 13.382-2.715 28.631-7.924 40.23-12.609 9.33-3.936 18.55-8.328 26.66-14.476 7.367-5.037 5.126-16.697 5.378-24.145V2029h3c10.896 34.477 23.407 69.467 25.612 105.924.64 4.463-.172 9.614 1.293 13.826 9.1 11.442 26.1 19.468 39.105 21.071 7.645 1.13 16.641-.577 23.223-3.142 3.628-1.583 7.26-3.298 10.498-5.578 2.89-1.987 5.516-4.915 9.269-5.101v219c17.841-.135 35.774.016 53.521-1.978 8.23-1.032 16.419-2.431 24.496-4.295 7.994-1.467 15.128-6.064 22.983-7.727-.46 4.999-5.25 10.527-8.162 15.568-25.062 37.13-55.337 70.232-87.313 101.407-30.863 31.486-66.696 57.62-103.525 81.525 1.321 1.884 1.625 4.22 2 6.5 66.075-12.782 131.886-29.022 194.615-53.72 31.183-11.928 61.486-26.14 90.33-42.947 6.502-4.042 14.153-8.703 19.975-12.617 5.276-3.488 10.22-8.245 16.803-7.386 16.901 1.57 39.096 2.368 53.277-14.83-26.488-13.657-53.579-26.558-80.366-39.677-27.731-13.134-54.68-28.277-82.634-40.823 1.515-5.927 2.905-11.769 2-18.013.195-4.554-1.36-13.42 4.062-13.755 86.95-.661 173.975.12 260.938-.232v38c37.122.828 75.546.185 109.679-16.483 3.683-1.746 8.174-3.641 11.072-6.05 5.372-5.17 2.208-16.364 3.249-24.275V2045c13.233-2.055 29.563-6.127 36-18-4.645-1.299-8.937-7.01-13.792-9.816A50365 50365 0 0 1 1837.5 1946c-16.104 19.092-33.789 36.803-49.996 55.8-4.13 4.842-7.758 10.33-15.85 9.2H1709v-77h207.6c11.412-.113 22.809.299 34.186-.556 8.89.02 20.133-3.132 24.214-13.944-31.544-28.358-63.047-57.485-96.5-83.5-11.245 13.336-20.585 28.248-31.425 41.913a887 887 0 0 0-15.783 21.363c-2.447 2.984-5.019 8.171-9.615 8.567-4.875.345-9.795.021-14.677.157v-106h118.8c10.9.184 25.469.21 29.337-10.97 1.537-3.966-3.162-7.346-5.507-9.9-19.546-21.265-42.182-39.47-63.254-59.198-7.869-6.547-15.256-13.733-23.376-19.932-10.335 11.856-17.887 26.153-27.618 38.536a900 900 0 0 0-13.534 19.62c-2.321 3.137-4.511 6.337-6.711 9.556-2.102 3.051-4.742 7.086-8.137 7.288v-85.2c.605-3.206-1.139-9.607 2.69-10.469 10.87-2.502 22.206-8.526 23.31-20.331-49.728-2.969-99.277-8.805-149-12v128h-73v-96c6.059-1.417 12.582-2.153 17.859-5.777 4.965-3.621 8.04-9.304 9.141-15.223-50.4-2.787-100.607-8.984-151-12v129c-38.264.76-76.81-.926-115 .5 3.189 7.718 4.883 16.407 7 24.5h108v106h-72c-.156-2.634 1.266-5.311 2-7.5-27.651-31.63-58.842-59.841-88.5-89.5-12.128 19.204-25.047 38.482-36.5 58h-3v-118.8c.189-19.798-.23-39.606.124-59.39-.055-5.129 5.622-4.99 9.533-5.968 6.34-1.458 12.697-3.653 17.68-8.016 4.78-4.383 7.253-10.672 8.663-16.826-56.738-4.185-113.328-11.082-170-16v246h-110v1.5c1.546 4.798 2.904 9.649 4.28 14.488 1.204 3.806 1.765 8.65 5.831 8.792 12.267.623 24.599-.11 36.87.22H1147c-8.208 72.334-21.311 144.189-39.424 214.692-17.734 66.987-39.48 134.125-75.576 193.683M1069 1168c6.041 34.458 11.07 69.286 11.482 104.364 1.01 27.32.48 54.828-4.096 81.84-1.108 5.57 1.989 9.166 5.849 12.531 11.59 13.195 29.69 21.918 47.373 16.799 26.118-7.354 41.06-34.495 44.376-59.636 4.053-27.765-5.685-54.841-18.924-78.687-8.698-15.795-20.034-30.03-32.93-42.581-13.028-12.782-26.401-25.717-41.949-35.447-2.53-2.268-8.296 1.762-11.181.817m64-211.5v1.5h123c4.89-.249 11.104.927 14.23-2.25 18.242-23.955 34.12-49.744 52.27-73.75 31.582 29.02 63.683 57.497 94.5 87.333-2.995 11.163-15.166 14.228-24.306 14.556-34.228.316-68.466-.057-102.694.111v119c6.71.973 9.868-3.182 12.554-8.308 2.844-4.5 5.993-8.786 8.829-13.28 12.163-19.804 25.854-38.703 38.117-58.412 15.847 13.736 30.638 28.639 45.475 43.475 7.707 7.228 15.833 13.978 22.87 21.909 3.44 3.978 6.703 8.067 10.63 11.591 3.358 3.04 7.507 8.585 11.525 9.025V846h-3c-1.787 22.137-18.957 41.453-39.152 49.231-15.928 7.078-34.355 6.133-49.583-2.159-5.032-2.738-11.359-5.957-14.454-10.397-8.697-19.896-16.546-40.34-27.938-58.982-5.013-9.484-10.736-18.558-16.245-27.745-2.886-4.41-5.846-8.773-8.926-13.036-3.02-3.96-5.37-9.936-10.702-9.912-16.947 33.96-38.853 65.699-61.17 96.369-21.998 31.608-50.423 58.8-75.83 87.131M1289 1989c21.222 5.346 44.093 18.168 61.544 27.663 9.703 5.33 18.215 12.434 26.656 19.474 4.25 3.663 8.222 7.686 11.97 11.848 3.382 3.6 7.441 10.432 11.83 11.015v-96h2c29.731 11.825 59.928 22.569 89.767 34.097 7.255 2.85 14.592 5.509 21.872 8.273 5.755 1.83 12.251 5.27 17.874 5.57 19.166.17 38.326-.03 57.487.06v-77h-228c-1.074-6.271-4.29-13.205-5-19h-68zm1-579h1.5c26.176-4.842 52.624-8.476 78.8-13.381 18.9-3.254 37.739-6.833 56.65-9.955 3.67-.643 7.313-1.396 10.933-2.163 3.181-1.419 1.476-7.612 2.117-10.075V1210c-5.196.633-8.93 6.244-14.995 7.494-5.769 2.098-11.915 2.628-18.005 2.506-12.567 24.916-31.53 52.161-44.913 73.964-15.736 24.256-32.434 48.194-51.43 70.036-4.415-1.552-10.436-4.402-13.657-6.5 11.027-63.974 16.799-129.008 23.5-193.5 19.403 6.58 39.625 11.916 59.247 18.071 9.983 2.93 19.982 5.863 29.903 8.96 9.874 2.234 21.044 7.248 30.35 7.969v-77h-2.5c-8.953 7.656-21.841 6.705-32.762 7H1290zm229 737h71v-110h-71zm0 150h71v-124h-71zm92-389h73v-89.4c-.565-5.442 2.756-17.38-6.881-16.586-22.057-.04-44.077.008-66.119-.014zm47 472.328c53.615 38.266 107.81 78.618 153.602 126.774 11.763 11.929 23.103 24.333 33.398 37.564 4.052 4.164 7.162 11.8 12.206 13.28 21.584 6.824 46.89 3.843 64.67-10.645 17.894-14.232 26.296-37.656 22.469-60.09-4.002-25.767-20.117-47.482-40.38-63.009-30.415-24.457-68.811-36.395-106.262-44.739-41.314-8.534-83.814-6.826-125.632-5.623-6.31-.4-10.373 2.324-14.071 6.488M1659 1309h32v-243h-32zm50 838h75v-110h-75zm0 150h75v-124h-75z" style="fill:#fedcaa;fill-rule:evenodd;stroke:none"/><path d="M1021 1029.625c2.026 4.737 8.706 7.518 12.486 5.139 13.747-8.246 26.645-17.822 39.763-27 16.21-11.623 31.152-24.838 46.251-37.764 1.652 4.3 2.214 9.112 4.195 13.316 2.102 2.807 8.224.993 11.005 1.684h43.3v117h-125v1.5c1.787 5.323 3.138 10.794 4.77 16.16 1.41 4.07 1.712 9.928 6.305 10.11 13.891.654 27.865-.117 41.755.23H1178v297c-46.07 5.486-91.823 14.297-138 19 22.292 48.962 52.535 94.996 75 144 7.692-.304 16.317-7.455 20.005-12.04 4.117-4.89 5.854-13.032 13.342-16.13 50.526-25.164 100.712-50.942 150.362-77.728 23.6-13.11 47.407-25.842 70.726-39.467a2550 2550 0 0 0 34.245-20.094c5.876-3.668 11.913-7.047 17.784-10.708 5.845-2.728 11.767-8.261 17.536-9.833v190c18.268.29 36.689.825 54.609-3.436 12.032-2.854 23.75-7.09 34.748-12.743 8.246-3.93 15.918-8.93 22.772-14.949 5.87-4.54 9.636-11.331 8.871-18.824V779h237c-.76 38.568.926 77.55-.5 116-24.762-21.848-48.137-45.264-73-67-18.091 29.176-40.195 56.404-57.5 86h-98c3.247 8.484 4.497 19.695 8.456 26.183 9.984 1.93 20.569-.024 30.695.817H1797v115h-1.5c-11.336-10.214-26.551-19.865-37.27-28.85-12.362-8.752-26.085-20.71-37.73-28.15-9.377 8.581-17.687 18.15-26.37 27.37-3.408 3.302-6.642 6.785-10.113 10.003-15.899 9.926-34.2-5.018-48.585-9.668-14.956-5.226-31.284-15.241-45.432-18.705v393c.338 4.72-2.122 14.813 6.177 13.842 20.247-.198 40.895-4.454 57.714-16.424 2.096-1.306 3.992-2.86 5.352-4.927 1.77-9.398-.004-19.478.757-29.019V1336h30v55c11.528.224 23.29.543 34.433-3.01 12.637-4.824 29.863-9.054 41.034-21.049 2.265-3.693 1.255-9.026 1.533-12.84v-262.154c.011-4.12-.158-8.3.443-12.364.304-2.512 4.688-2.777 6.489-3.577 7.947-1.996 16.166-4.64 22.568-10.006 1.426 82.676-.26 165.858.5 248.63-.015 41.597.019 83.18-.01 124.774.053 4.54-.615 9.587-4.121 12.886-6.326 5.424-17.437 3.245-24.916 3.525-25.998-1.03-51.954-3.11-77.953-3.815v13c14.372 2.877 29.068 6.642 41.78 14.21 18.815 11.304 31.476 30.337 36.136 51.501 5.279 22.38 7.45 45.347 8.084 68.289 20.614-1.51 41.176-4.959 61.241-9.814 28.683-6.666 57.283-22.092 71.296-49.25 13.86-28.084 15.136-65.689 15.463-93.659V799c7.412-.957 14.57-3.622 21.309-6.705 6.021-3.706 14.393-8.044 16.691-13.92-19.082-15.865-39.258-30.388-58.432-46.132-9.944-7.403-19.499-15.267-29.323-22.818-4.793-3.965-9.687-7.777-14.647-11.523-4.895-3.452-9.994-8.987-15.254-10.902-17.341 22.072-38.494 41.773-55.344 64h-189.6c-14.654-.176-32.532 1.65-44.922-4.424-38.253-16.275-76.893-32.05-114.978-48.576-2.185 46.17 1.185 92.796-1 139-4.27-28.42-26.149-50.254-50.809-62.683-24.03-14.107-51.17-21.771-78.176-27.654-4.969-1.055-9.959-2.293-15.04-2.663l-1.475-.5c12.382-3.706 29.053-4.758 34-22.5-27.182-7.7-54.094-16.888-81.127-25.205-27.074-8.528-54.417-17.229-81.373-25.795-.45.458-.96.911-1.5 1.25-4.398 33.13-13.596 65.528-22.941 97.524-13.836 46.863-30.864 92.762-50.22 137.59-19.711 42.286-39.6 85.963-68.839 122.636zM1042.5 2334c40.777-37.187 79.795-77.258 111-123 1.426 117.58-.26 235.377.5 353 20.962.022 42.174 1.061 62.832-3.253 13.691-2.723 29.285-7.988 41.13-12.794 9.463-4.007 18.867-8.466 27.043-14.785 7.096-5.27 4.53-16.993 4.995-24.436v-80.908c.76-132.544-.926-265.368.5-397.824 6.294 16.57 11.552 33.657 16.188 50.753 3.695 13.316 6.747 26.823 8.562 40.536.895 5.226 1.172 10.506 1.429 15.786.718 4.082-.492 10.57 1.77 13.422 9.163 10.698 25.246 18.612 37.878 20.264 15.852 2.994 31.279-3.95 43.173-13.761 1.426 72.877-.26 146.06.5 219 33.576-.322 69.39.936 100.5-14 .235.488.42.968.5 1.5-25.55 39.336-56.322 75.167-89.87 107.87-32.447 33.637-69.833 62.083-109.13 87.13.361 2.902 1.825 5.55 2 8.5 67.068-11.755 133.468-29.505 197.07-53.88 31.279-12.11 61.818-26.284 90.735-43.314 6.92-4.106 13.661-8.488 20.366-12.91 4.72-3.746 9.996-7.898 17.245-6.369 18.665 1.231 44.51.739 51.584-17.527-27.138-12.567-53.688-26.868-80.873-39.438A182147 182147 0 0 0 1518 2352.5c3.361-4.651 1.271-12.362 2-17.548-.18-5.176-1.24-12.504 6.432-11.93 85.523-.062 171.057.01 256.568-.022v38c37.766.775 76.907.48 111.679-16.483 3.813-1.812 8.51-3.775 11.432-6.383 4.997-5.447 1.744-16.564 2.889-24.541V2046c13.78-1.34 28.312-6.666 37-18-35.48-28.675-73.025-55.25-108.5-84-16.384 18.612-33.203 36.851-49.734 55.32-4.082 4.841-8.953 11.138-14.737 10.667-21.023.038-42.02-.008-63.029.013v-75h213.6c8.87-.066 17.778.214 26.616-.444 6.877-.287 14.202-1.134 19.76-5.664 4.535-3.504 8.235-10.01 1.85-14.37-15.612-13.8-30.578-28.303-46.66-41.575-8.12-6.564-15.621-13.862-23.838-20.312-3.96-3.466-8.197-6.608-12.194-10.019-3.65-2.833-8.287-7.662-12.134-8.616-8.706 14.657-20.86 27.77-30.312 42.075-5.2 7.162-10.732 14.068-15.755 21.347-3.119 2.812-4.75 8.407-8.604 9.112-4.703.89-9.594.198-14.329.466v-104h118.8c9.681.117 25.033.972 29.779-11.693 1.932-3.687-1.577-7.303-4.949-10.177-19.835-20.915-41.608-39.88-63.106-59.105-8.041-6.538-16.1-15.068-26.024-22.025-19.34 24.32-34.649 51.694-54 76-1.42-22.477.253-45.377-.5-67.928v-17.343c-.042-3.802-.38-8.225 4.676-9.12 9.292-1.767 21.29-8.703 21.324-21.609-50.424-2.622-100.578-9.31-151-12v128h-71v-94c6.335-1.529 13.39-2.17 18.684-6.42 4.934-4.029 8.136-10.13 8.316-16.58-51.095-2.438-101.901-9.493-153-12v129h-115v1.5c2.41 8.461 5.343 16.859 7 25.5h108v104h-70c3.769-7.37-2.612-13.025-7.61-18.094-5.093-5.328-9.689-11.128-15.123-16.139-21.686-21.149-43.726-41.93-64.767-63.767-13.83 18.804-24.713 39.828-38 59-1.426-39.675.26-79.611-.5-119.337.779-19.803-.95-39.833.515-59.576 1.904-3.26 9.096-2.01 11.904-3.96 12.828-2.14 23.254-12.824 23.581-26.127-57.405-4.09-114.622-11.451-172-16v246c-36.929.76-74.151-.926-111 .5 4.166 7.067 3.287 17.976 8.803 25.847 30.254 1.862 60.943-.339 91.283.653H1146c-9.804 74.371-21.533 148.86-41.795 221.218-9.336 35.17-20.17 69.993-33.445 103.877-6.89 16.602-14.142 33.078-21.938 49.269-4.343 7.87-8.454 15.892-12.786 23.758-1.642 3.412-5.98 9.001-3.234 11.651 2.78 3.246 6.52 5.456 9.698 8.227m25.5-1167c4.632 33.493 11.363 66.985 11.331 101.013 1.074 26.77 1.068 53.7-3.253 80.217-.696 4.527-2.168 10.562.012 13.676 10.22 12.951 25.526 24.35 42.759 24.076 26.566.127 46.944-23.187 53.193-47.193 7.828-25.953 3.263-53.713-7.725-77.93-17.26-38.778-47.671-70.246-82.227-94.288-4.053-2.786-9.754.47-14.09.429m66-210.667c24.597 1.902 50.401-.345 75.245.667h38.337c6.106-.246 13.394.395 18.946-.447 4.562-1.904 7.193-8.786 10.335-12.265 15.828-20.957 29.314-43.729 45.637-64.288 15.236 14.457 31.198 28.068 46.483 42.46 11.8 10.624 23.916 20.887 35.12 32.142 3.875 4.291 9.236 8.651 12.404 12.914 3.775 3.865-3.152 10.733-5.634 12.658-8.286 5.247-18.559 4.836-27.897 4.826H1291v117c5.248.487 7.494-3.523 9.967-7.452 2.442-3.713 4.944-7.379 7.376-11.088 13.83-20.709 27.113-41.939 41.157-62.46 15.274 14.025 30.44 28.147 44.975 42.975 7.685 7.234 15.772 14.059 22.895 21.895 6.85 7.578 13.591 15.197 21.13 22.13 1.426-43.274-.26-86.984.5-130.35-.76-43.513.926-87.177-.5-130.65-3.2 21.954-18.654 41.57-39.652 49.231-15.933 6.771-34.354 6.306-49.852-1.305-5.038-2.69-11.249-5.854-14.945-9.639-17.365-38.469-35.395-77.66-61.551-111.287h-1.5c-16.922 33.77-38.583 65.461-60.89 95.935-22.842 30.84-48.899 59.456-76.11 86.398M1290 1988c41.808 12.526 82.048 35.571 109.5 70 1.426-32.155-.26-64.759.5-97 30.575 10.904 60.75 23.087 91.289 34.115 7.16 2.903 14.472 5.365 21.628 8.246 5.915 2.005 11.617 4.741 17.683 6.27 19.431 1.048 38.946-.187 58.4.369v-75h-228c-1.074-6.271-4.29-13.205-5-19h-66zm1.5-579c24.737-5.015 50.464-8.06 75.352-12.985 18.964-3.248 37.851-6.684 56.8-9.956 3.817-.746 7.628-1.377 11.43-2.126 4.05-.39 3.895-4.86 3.916-8.116-.755-54.879.926-110.025-.498-164.817-8.492 7.224-19.236 10.905-30.5 10-12.567 24.916-31.53 52.161-44.913 73.964-15.326 24.936-33.512 48.13-51.587 71.036-3.644-2.284-8.736-3.342-12.07-5.478-3.951-1.637-2.989-6.55-2.255-10.103 9.346-62.2 16.987-124.718 21.825-187.419 40.328 10.211 79.623 24.955 120 35-.76-24.903.926-50.209-.5-75-8.953 7.656-21.841 6.705-32.762 7H1291c.76 92.933-.926 186.143.5 279m228.5 737h69v-108h-69zm0 150h69v-122h-69zm92-389h71v-87.6c-.531-5.375 2.708-17.251-6.874-16.386-21.39-.04-42.748.008-64.126-.014zm44 473.586c1.401 3.202 6.618 4.673 9.46 7.388 53.628 35.526 102.68 77.779 148.142 123.128 11.347 11.567 22.111 23.806 31.947 36.676 3.59 4.522 6.526 10.423 12.567 11.75 20.949 5.78 44.925 3.402 62.665-9.619 17.931-12.803 26.925-34.635 25.202-56.297-1.235-26.718-17.11-51.185-37.502-67.513-30.369-25.83-69.448-38.621-107.67-47.136-41.795-9.163-84.97-7.327-127.33-6.222-7.734-.67-13.339 2.126-17.481 7.845M1660 1308h30v-241h-30zm50 838h73v-108h-73zm0 150h73v-122h-73z" style="fill:#000;fill-rule:evenodd;stroke:none"/></svg>