<svg xmlns="http://www.w3.org/2000/svg" width="3000" height="3000"><path d="M364 2760.5v1.5h2272v-1.5c-68.931-409.09-136.257-818.54-204.874-1227.691-51.076-306.848-102.33-613.661-153.4-920.497-4.868-28.824-9.564-57.688-14.431-86.508-1.116-7.008-2.365-13.985-3.488-20.978-1.2-6.774-.246-15.245-9.425-16.859-109.868-36.632-219.702-73.24-329.563-109.867-95.996-32.013-192.02-63.992-288-96-41.993-13.978-83.98-28.011-125.966-41.994-5.663-2.605-10.407-1.693-15.513.621-156.173 52.06-312.354 104.114-468.521 156.173-58.68 19.531-117.334 39.097-175.992 58.657-25.668 8.506-51.298 17.139-76.962 25.643-6.176 2.075-12.369 4.11-18.537 6.195-3.02 1.124-6.483 1.813-8.8 4.255-62.934 375.423-125.132 751.075-187.889 1126.544C490.857 1998.664 428.048 2380.37 364 2760.5m645-436.062c1.55 2.05 3.828 3.456 5.336 5.562 34.371-17.067 66.82-38.285 97.834-60.847 15.478-12.03 31.36-23.596 45.962-36.699 7.297-6.378 15.849-13.876 22.103-20.185 3.535-3.38 7.53-6.271 10.867-9.871 3.441-2.994 6.788-7.945 10.898-8.398-.862 67.08-.942 135.162-15.995 200.93-4.192 14.61-9.857 31.995-18.069 43.503-6.634 9.808-18.787 14.424-30.275 14.533-19.269.459-38.506-.196-57.692-1.899-9.302-.44-18.597-1.128-27.885-1.736-9.045-1.149-19.906-.472-28.084-2.331.229 4.032-.922 9.943 3.462 10.973 3.61 1.401 7.421 2.11 11.043 3.433 26.239 8.738 56.454 27.903 67.169 52.004 11.346 29.346 11.962 61.619 12.326 92.59 29.88-.488 59.93-3.289 88.608-12.157 19.953-6.133 39.443-15.973 54.125-31.076 22.034-21.65 35.357-50.659 46.874-78.767 11.03-30.195 17.772-61.847 23.118-93.475 7.655-46.485 8.608-93.573 10.275-140.525 32.633-11.097 63.207-28.199 95-41v395c30.82.08 62.538.547 92.119-9.66 13.324-4.73 25.658-11.775 37.172-19.925 7.847-4.639 8.35-12.264 7.709-19.824V2531h189v58.8c.335 2.717-.506 7.233 1.89 8.595 20.55 2.17 41.499-.859 61.766-4.033 18.774-4.061 37.578-8.67 55.407-15.98 7.566-3.886 20.53-7.132 21.784-15.514.414-10.78-.057-21.585.153-32.36V2205.38c-.307-4.84-.588-10.155 5.899-11.214 12.484-3.305 23.737-9.805 33.101-18.666-26.71-23.495-57.58-43.04-85.078-65.815-7.197-5.367-14.43-10.713-21.443-16.302-5.316-4.033-10.664-8.03-15.997-12.023-1.61-.873-4.957-3.882-6.351-2.328-12.57 12.692-23.95 26.547-36.063 39.663-5.676 6.729-12.004 12.881-17.665 19.611-2.55 2.42-4.964 7.223-8.414 7.297-32.292 1.132-64.747-.205-97.076.397h-48.6c-7.835-.324-17.38.855-24.291-1.591-6.177-1.932-13.203-5.267-19.022-6.409.422-4.61 6.617-6.834 9.536-9.618 29.67-20.024 58.164-41.73 86.092-64.103 20.994-17.013 41.633-34.467 61.488-52.774 4.165-3.734 11.462-2.086 16.536-2.505h197.18c10.953-.262 21.941.346 32.88-.253 8.182-.527 19.076-3.902 22.288-14.286-17.95-17.96-37.645-34.01-56.73-50.707-9.332-8.467-19.276-16.212-28.64-24.63-9.723-7.221-18.235-17.033-28.63-23.124-13.97 21.961-31.47 42.343-46.283 63.899-3.828 5.518-8.154 10.665-11.864 16.255-1.438 2.116-3.044 4.106-4.952 5.784-9.163 2.495-19.74-.017-29.215 1.062H1752c1.116-6.087 9.707-10.57 13.733-16.233 37.605-37.417 71.746-78.086 104.975-119.401 15.853-20.962 31.8-41.853 46.26-63.818 3.552-5.399 7.174-10.743 10.728-16.137 2.57-3.784 4.66-9.05 8.588-10.947 12.623-1.875 32.323 3.417 38.716-14.464-25.983-11.817-50.836-26.578-76.872-38.438-13-6.273-25.63-13.228-38.493-19.739l-20-10c-6.211-2.48-14.058-7.989-19.635-8.823-12.34 31.47-28.918 61.175-44.703 90.996-2.192 3.664-4.055 7.518-6.277 11.151-1.378 3.346-3.544 7.136-7.745 3.884-18.883-16.74-39.13-32.017-57.775-49.031-9.946 13.405-19.854 26.85-29.567 40.422-8.75 13.397-21.923 27.768-28.933 40.578h-4v-114c12.557-2.903 31.252-5.69 33-25-56.113-2.599-111.888-10.404-168-13v156c-49.929.76-100.151-.926-150 .5 2.615 7.735 5.843 18.83 7 25.5h143v150h-178c1.794 8.789 5.38 17.184 7 26h258v2.5c-22.59 24.467-44.696 49.726-69.127 72.408-6.298 5.66-11.998 11.98-18.106 17.825-4.096 4.02-10.308 10.663-15.44 9.374-17.743-7.063-36.355-12.483-53.827-20.107-1.423 24.2.256 48.737-.5 73-31.624 21.334-60.855 49.436-95 67-1.682-50.668-4.175-101.307-12.131-151.47-10.312-71.14-29.346-142.247-67.476-204.022-3.3-8.073-11.34-15.353-12.898-22.574-.177-3.443 5.45-6.23 6.875-8.804 20.535-20.388 40.22-41.566 58.977-63.588 4.666-5.538 9.474-10.954 14.062-16.55 3.306-4.154 6.67-8.272 9.938-12.447 4.925-7.18 16.15-2.596 23.27-4.03 7.664-.775 15.657-6.133 19.383-12.015-51.376-28.977-101.907-59.684-153.364-88.5-6.374 11.593-8.956 25.215-14.7 37.17-8.81 20.486-17.122 41.244-27.114 61.193-1.98 4.019-4.033 8.005-5.994 12.03-1.83 3.418-2.633 7.619-5.675 10.27-2.532 3.068-6.764-2.164-8.797-3.158-20.431-17.253-42.555-32.397-65.253-46.428-11.025-7.31-22.981-12.97-34.39-19.578-6.085-3.326-12.402-6.23-18.548-9.427-3.297-1.598-6.486-3.48-10.047-4.405-2.734-.675-5.945 4.065-7.118 5.833 24.671 24.264 48.947 49.168 68.684 77.76 14.038 20.692 29.102 41.44 38.719 64.684.667 5.268-3.666 9.471-5.79 13.854-18.08 30.545-37.148 60.48-57.976 89.22-10.82 14.499-21.691 29.036-33.471 42.778-5.652 6.977-11.652 13.646-17.538 20.416-2.522 3.693-6.78 6.967-9.134 10.3-3.536 3.422 3.167 8.227 4.834 10.488 55.481-25.069 104.574-62.647 152.672-99 6.64 8.041 4.834 17.933 3.279 27.253-10.785 69.91-31.792 138.245-59.949 203.022-13.947 31.617-29.801 62.395-47.557 92.015-17.677 28.002-36.07 56.094-57.773 81.148m9-1186.188c1.017 2.484 2.729 4.531 4.25 6.75 77.562-22.766 153.629-51.598 224.66-90.466 34.24-18.661 66.537-40.629 98.038-63.49 15.576-11.767 30.484-24.392 45.407-36.94 7.21-6.976 15.066-13.204 22.247-20.206l10.5-10.5c3.441-2.995 6.788-7.945 10.898-8.398v133c-53.264.76-106.81-.926-160 .5 1.906 3.558 2.12 9.317 4.069 13.753 1.66 3.828 1.836 9.329 4.386 11.93 7.797 1.69 16.152.216 24.09.817H1434v140c38.957.91 78.692-2.062 115.158-17.286 3.984-1.842 8.91-3.868 11.953-6.58 3.405-2.67 2.936-8.1 2.889-11.94V1075h145.2c12.347-.397 31.055 3.082 37.8-14.543-26.88-26.835-57.941-49.173-87-73.457-8.61 9.551-15.91 20.492-24.392 30.216-7.109 10.67-17.027 19.927-23.608 30.784h-48v-75c.005-6.418-.006-12.82.003-19.232.114-2.053.059-5.05.975-6.542 6.549-2.762 14.483-3.28 20.472-7.712 6.818-4.05 8.964-9.653 11.55-16.014-52.901-4.036-105.995-9.977-159-13.5.968-5.422 8.498-9.597 11.709-15.05 16.064-18.426 31.308-37.544 45.279-57.624 3.172-4.377 6.025-9.019 9.401-13.232 3.556-4.656 11.486-2.533 16.536-3.094 23.261.283 46.534-.345 69.778.186 4.657.24 6.312 6.252 8.224 9.646 30.459 60.948 69.528 117.576 115.447 167.834 47.834 48.826 103.494 92.168 166.626 119.334 3.67-32.128 18.549-61.773 39.692-85.865 10.48-12.008 22.389-22.675 35.226-32.066 6.23-4.921 12.84-9.308 19.445-13.678 2.55-2.133 7.555-3.718 8.167-6.817.617-3.831.657-7.761 1.47-11.574-68.584-8.302-137.484-19.982-202.301-44.887-31.254-10.396-61.059-24.835-89.604-41.133-13.977-8.385-27.857-17.055-40.553-27.32-6.316-5.146-12.713-10.207-18.412-16.03l-8.605-8.605c-2.561-2.73-6.252-5.663-6.525-9.025h276c11.412-.139 22.844.31 34.224-.516 8.301-.383 20.662-3.068 24.93-9.08 1.212-1.378 2.071-3.377 2.355-5.041C1914.382 765.528 1867.3 728.83 1821.5 692c-24.628 34.23-51.76 67.284-75.5 102h-221v-2c11.173-21.412 24.168-41.97 33.249-64.457 2.462-5.551 4.774-11.18 7.215-16.739 1.078-1.649 1.923-5.17 3.913-5.34 13.513 1.271 32.14-1.175 39.623-17.777-2.873-2.621-8.506-2.896-12.644-4.593C1537.005 665.784 1477.38 649.155 1418 632c-14.925 55.846-35.837 110.021-61 162-99.264.76-198.81-.926-298 .5 3.658 7.797 4.362 18.716 8.296 25.594 7.42 1.79 15.473.323 23.06.906H1341c-.539 4.154-4.272 8.783-6.412 13.156-37.676 63.901-82.825 124.214-137.69 174.446C1144.49 1060.76 1081.784 1101.517 1018 1138zm17 135.25c2.491 8.104 5.443 17.866 7 25.5h197c-1.018 62.637-15.43 127.413-53.059 178.62-35.084 49.855-88.01 82.907-141.941 108.88.915 2.7 2.956 5.448 4.5 7.5 78.182-17.144 157.779-40.56 223.205-88.878 32.101-22.883 58.47-53.143 76.865-88.015 18.112-35.223 28.935-81.821 29.43-118.107h224v296c42.908 1.193 86.622-2.942 126.452-20.265 8.784-3.919 20.215-8.196 18.548-21.807V1299h175.8c16.777-.004 40.006 2.898 46.2-14.687-39.532-35.126-80.557-69.205-122.5-101.313-14.656 18.317-28.233 37.524-42.819 55.9-7.25 9.1-14.068 18.52-21.302 27.622-1.835 2.006-3.497 5.194-5.753 6.01-9.799 1.13-19.781-.039-29.626.468v-95c7.883-2.006 16.325-3.172 23.424-7.472 6.547-4.797 12.207-12.07 12.576-20.528-60.437-2.873-120.567-11.033-181-14v137h-223v-93c6.849-1.076 15.01-3.082 20.458-6.484 6.8-4.428 8.835-10.513 11.542-17.016-6.751-2.674-14.555-1.374-21.594-2.835-50.2-3.887-100.186-10.289-150.406-13.665v133h-204zM1573 2322h189v-149h-189zm0 183h189v-157h-189zm68-554h2.5c15.726-18.554 29.933-38.409 44.434-57.92 7.152-9.796 14.02-19.824 20.898-29.804 3.347-4.93 6.965-9.69 10.135-14.728 2.915-4.74 7.841-10.146 8.033-15.548h-65.4c-6.394.48-15.54-.813-20.6 1z" style="fill:#feddaa;fill-rule:evenodd;stroke:none"/><path d="M1014.5 2332c68.656-35.703 131.139-82.545 186-137 1.307 34.157-1.272 68.722-2.392 102.91-1.22 24.296-4.08 48.447-8.137 72.417-3.05 18.08-7.608 35.928-15.06 52.727-4.76 11.776-12.388 23.256-25.31 26.851-10.45 3.277-21.695 1.609-32.421 2.093-31.392-1.627-62.878-3.022-94.18-5.998.299 3.857-1.586 11.824 4.39 13.322 4.57 1.422 9.23 2.508 13.615 4.476 13.842 4.408 26.652 11.623 38.071 20.514 18.85 11.875 29.45 32.333 32.472 53.913 4.77 22.594 5.581 45.773 5.452 68.775 29.753-.317 59.721-2.967 88.341-11.531 19.869-5.354 42.005-17.007 55.261-30.571 22.46-21.751 36.236-50.874 47.802-79.396 11.269-30.543 18.02-62.625 23.422-94.645 7.589-46.253 8.483-93.14 10.174-139.857 31.292-12.365 62.545-25.648 92.5-41 1.426 131.539-.26 263.402.5 395 31.145.04 63.15.719 93.144-9.276 13.486-4.834 26.114-11.667 37.744-20.017 7.865-4.48 8.825-11.917 8.112-19.525V2532h187v59.4c.023 2.578-.113 7.467 2.445 8.167 20.575 1.623 41.411-.56 61.684-3.923 19.333-3.921 38.61-8.823 56.934-16.262 7.75-3.842 21.04-7.359 21.834-16.091.285-10.793-.044-21.594.103-32.383v-266.341c.006-20.385-.007-40.781.004-61.153.182-2.126.115-5.945 1.928-6.846 13.735-4.644 29.05-9.647 38.068-22.068-21.397-16.978-43.67-32.846-65.077-49.813-11.023-8.297-21.918-16.79-32.999-24.999-10.934-6.967-21.817-18.497-32.58-23.688-14.319 16.571-29.205 32.658-43.804 48.983-5.896 5.757-10.523 12.726-16.62 18.273-3.176 2.432-8.179 1.513-11.598 1.744h-138.467c-7.018-.106-15.65.728-21.725-1.942-5.937-2.439-12.251-4.086-18.13-6.558 29.84-21.888 60.85-42.325 89.29-66.137 21.98-17.08 42.745-35.58 63.66-53.887 2.008-1.91 3.878-3.956 6.211-5.479 5.428-1.817 11.803-.51 17.488-.997h195.981c19.717-.141 46.154 4.525 54.37-15.5-18.13-18.21-38.028-34.505-57.355-51.397-19.005-16.578-38.333-32.932-57.645-49.103-16.6 20.45-31.195 42.836-47.387 63.668-3.907 5.459-7.973 10.796-11.896 16.23-2.689 4.164-5.335 8.76-11.778 8.094-16.89-.694-34.173.879-50.939-.492 39.865-39.69 77.693-81.466 112.657-125.582 17.56-21.628 33.422-44.502 49.508-67.198 3.98-5.783 7.72-11.704 11.705-17.474 2.646-4.027 4.79-8.447 7.995-12.082 2.67-2.867 8.12-2.018 12.404-2.164 10.017.539 24.255-1.908 29.731-14.336-24.9-14.64-51.735-26.418-77.366-39.84-26.266-13.288-52.223-27.162-78.8-39.824-6.277 7.933-7.992 18.843-13.504 27.313-12.922 27.844-27.636 55.07-42.83 81.687-20.716-16.456-40.269-35.448-61.5-51-10.777 12.74-19.9 27.145-30.067 40.422-8.75 13.397-21.923 27.768-28.933 40.578h-2v-112c7.55-1.715 15.459-3.012 22.127-7.275 3.141-2.21 6.4-5.542 8.183-8.586 1.89-2.754 2.368-7.32 3.69-9.639-.458-.45-.911-.96-1.25-1.5-28.227-1.164-56.282-4.862-84.463-6.577-28.073-3.073-56.945-3.658-84.787-7.423-1.426 52.2.26 104.732-.5 157h-150c1.076 9.593 6.098 18.395 7 28h143v148c-59.607.76-119.478-.926-179 .5 3.307 8.487 5.762 19.445 8 27.5 85.903.76 172.209-.926 258 .5-22.59 24.467-44.696 49.726-69.127 72.408-6.298 5.66-11.998 11.98-18.106 17.825-4.098 3.636-9.576 10.304-14.293 9.083-18.64-6.082-36.744-14.158-55.474-19.816v73c-30.607 22.092-60.476 47.194-93 66.75-2.33-67.764-6.903-135.615-20.985-202.144-12.366-62.474-37.725-121.902-72.015-175.293 21.85-21.683 43.029-44.078 63.344-67.199 10.2-11.188 19.432-23.243 29.127-34.824 2.719-2.829 8.09-1.755 11.065-1.605 11.891 1.854 23.816-3.088 30.464-13.185-25.675-15.717-52.357-29.994-78.14-45.582-26.678-14.12-51.868-31.558-78.86-44.918-14.816 42.04-32.244 83.892-53.5 123-41.79-34.06-87.775-63.775-137.083-86-2.155 2.765-6.374 5.706-7.417 8.5 24.983 24.59 49.673 49.797 69.684 78.76 7.356 10.379 14.676 20.782 21.197 31.707 5.576 9.712 11.347 19.36 16.278 29.423 3.015 5.019-1.441 10.413-3.606 13.832-18.519 31.38-38.104 62.124-59.494 91.624-10.916 15.115-22.584 29.677-34.537 43.968-6.02 7.22-12.256 14.24-18.36 21.375-3.194 3.338-6.697 6.354-8.611 10.572 1.295 4.226 4.909 7.192 7.949 10.239 54.02-27.559 105.679-60.706 152-100 5.813 9.091 4.47 18.016 2.47 27.206-11.42 71.118-32.71 140.8-62.055 206.527-14.114 32.477-31.12 63.62-49.585 93.774-9.335 14.134-18.122 28.646-28.489 42.066-5.064 7.061-10.215 14.047-15.645 20.834-2.45 3.424-5.37 6.48-7.707 9.973-3.389 2.753 3.716 7.738 5.011 9.62m1.5-1194.808c1.226 3.147 3.234 5.84 5.585 8.24 3.494.45 6.837-1.154 10.072-2.148 56.51-16.605 111.933-37.12 165.4-61.818 52.358-25.036 102.75-54.09 148.891-89.423 30.732-23.171 59.791-48.407 86.552-76.043 1.426 43.497-.26 87.415.5 131h-160v1.5c1.623 5.662 2.872 11.422 4.726 17.01 1.44 3.096 1.565 9.722 5.291 10.04 14 1.26 28.245-.21 42.282.45H1433v140c39.42.953 79.717-1.638 116.646-17.102 4.18-1.819 9.28-4.006 12.465-6.763 3.405-2.671 2.936-8.1 2.889-11.94V1076c54.532-.536 109.154.654 163.662-.353 5.978-.796 12.031-3.17 15.913-7.964 1.629-2.026 2.98-4.53 2.941-7.19-3.964-7.942-14.515-14.362-20.523-20.685-22.193-18.612-44.771-36.88-67.493-54.808-15.745 20.8-33.613 40.736-48.5 62h-46v-74.4c.036-6.41-.043-12.84.023-19.24-.489-6.196 3.526-6.953 8.14-7.403 12.017-2.419 23.418-11.04 24.837-23.957-53.007-3.358-106.11-9.346-159-13.5 17.947-17.861 33.257-38.172 48.481-58.304 6.49-8.324 12.956-19.023 19.157-26.453 1.55-2.407 6.48-1.266 8.722-1.743 23.684.005 47.34-.007 71.014.004 2.108.175 5.49.035 6.812 1.384 31.97 61.983 69.669 121.921 117.538 173.064 23.836 26.34 51.59 49.038 79.698 70.612 28.46 20.89 59.177 38.981 91.578 52.936 3.247-32.507 18.439-62.514 39.692-86.865 10.705-12.271 22.896-23.167 36.085-32.683 6.203-4.936 12.82-9.248 19.424-13.593 2.896-2.105 7.178-3.533 7.525-7.292.654-4.159.667-8.405 1.274-12.567-68.003-8.406-136.462-19.661-200.812-44.314-61.013-21.504-120.374-52.618-165.188-100.186 92.442-1.426 185.32.26 277.853-.5 11.378-.053 22.77.267 34.108-.641 8.54-.566 19.49-3.311 24.074-10.175 3.283-4.129 1.38-7.278-2.09-9.868-42.268-39.298-87.433-75.28-132.445-111.316-25.4 34.189-52.21 68.148-76.5 103-72.929-.76-146.151.926-219-.5 11.88-21.192 24.178-42.377 33.656-64.837 2.435-5.653 4.824-11.331 7.3-16.953 1.724-5.523 6.667-3.881 11.53-3.995 7.043-.567 14.364-1.667 20.501-5.429 5.751-3.31 9.243-9.029 12.013-14.786-31.765-10.571-64.605-18.466-96.66-28.261-32.59-8.41-64.608-19.546-97.34-27.239-14.925 55.846-35.837 110.021-61 162h-298c1.876 8.794 4.546 17.594 7.313 26.145.112 2.702 4.27 2.788 6.117 2.835 7.583.057 15.155-.01 22.724.02 81.893.76 164.035-.926 245.846.5-37.273 66.736-84.352 127.935-139.52 180.745-27.415 27.073-57.317 51.53-88.555 74.067-30.764 21.582-62.618 42.333-95.925 59.688zM1041 1300h197c-1.32 62.329-15.775 126.71-53.649 177.461-35.794 48.466-87.47 83.784-142.351 107.539.478 2.797 2.765 6.084 4.23 7.823 1.468 2.88 6.486.795 8.93.597 46.29-10.235 92.367-22.577 136.019-41.287 49.822-22.375 99.459-51.71 133.309-95.783 34.728-44.067 53.582-100.25 54.512-156.35h222v296c22.58.12 45.376.721 67.698-3.448 15.88-2.967 31.748-6.196 46.997-11.616 10.111-3.835 23.195-8.078 30.151-15.616 2.98-4.085 1.902-9.711 2.154-14.385V1300c67.237-.915 134.566 1.116 201.76-.603 7.107-.808 14.651-3.92 18.435-10.31 4.39-6.078-4.625-10.734-7.934-14.311-32.97-29.858-68.012-57.325-102.719-85.116-3.602-3.007-7.347-5.803-11.042-8.66-14.956 18.005-28.229 37.387-42.826 55.676-7.38 8.982-13.933 18.635-21.307 27.61-1.631 2.257-3.415 4.394-5.29 6.433-4.005 2.443-10.488.543-14.855 1.281H1748v-93c8.058-2.064 18.372-3.6 24.655-8.402 7.069-5.182 10.937-13.122 12.345-21.598-30.877-1.201-61.599-5.051-92.42-7.02-30.176-3.542-61.103-3.855-91.08-7.98-1.426 45.88.26 92.058-.5 138h-221v-91c7.178-1.168 15.902-3.194 21.39-7.187A27.5 27.5 0 0 0 1412 1155c-57.55-6.741-116.091-9.902-173.5-17-1.426 44.545.26 89.399-.5 134h-204c.866 9.619 5.966 18.392 7 28m533 1021h187v-147h-187zm0 183h187v-155h-187zm68.5-554c15.315-18.212 29.399-37.52 43.5-56.666a856 856 0 0 0 20.673-29.354c5.604-10.013 15.558-20.055 19.327-29.98h-64.2c-6.167.416-14.913-.75-19.8 1 .76 38.245-.926 76.875.5 115" style="fill:#000;fill-rule:evenodd;stroke:none"/></svg>