<svg xmlns="http://www.w3.org/2000/svg" width="3000" height="3000"><path d="M448 2669h2104c-108.019-653.996-218.137-1307.761-326.618-1961.691-6.813-40.83-13.621-81.671-20.41-122.502-.9-5.185-1.732-10.375-2.627-15.558-.693-5.948-7.25-6.546-11.566-8.162a2264805 2264805 0 0 1-451.953-150.644c-56.522-18.824-113.032-37.715-169.56-56.514-12.477-4.17-24.972-8.31-37.44-12.486-6.015-1.98-11.998-4.026-18-6-5.943-1.873-12.256-5.247-18.565-3.023-92.812 30.91-185.585 61.892-278.396 92.78-138.737 46.826-278.12 92.047-416.698 139.266-3.665 1.962-2.298 9.57-3.876 12.727-22.4 134.514-44.811 269.006-67.243 403.502C635.746 1543.503 540.855 2106.166 448 2669m599-1622.625c1.483 1.958 4.62 3.388 6.5 5.625 15.525-9.604 31.213-19.149 45.916-30.06 7.683-5.383 15.156-11.04 22.486-16.879 3.78-2.767 7.266-5.892 10.862-8.877 3.574-2.628 7.194-6.963 11.236-7.184.826 2.84 1.861 7.103 3.305 9.102 3.65 1.487 7.79.588 11.595.898h46.1v116h-137c.938 4.214 2.651 8.233 3.569 12.453.9 2.915 1.504 5.904 2.744 8.693 1.218 4.65 10.2 1.939 13.246 2.854H1205v275.4c-.29 2.915.601 8.172-2.428 9.175-23.747 3.892-47.503 8.435-71.295 12.22-22.764 2.877-49.23 9.121-70.277 10.205.809 5.318 5.848 11.21 8.167 17.074 22.694 39.298 43.491 79.741 66.333 118.926 7.486-2.765 14.45-9.773 18.762-15.502 2.214-2.947 3.428-6.649 6.237-9.149 51.948-27.886 104.875-54.302 156.107-83.58 49.915-27.564 98.805-57.674 146.394-88.769-.169-3.014-.68-6.005-1-9-24.288 4.523-48.53 9.322-72.843 13.687-11.933 2.313-23.93 4.249-35.858 6.539-11.44 1.632-24.662 5.433-35.299 5.774v-263c44.364-.43 88.783.525 133.12-.284 4.598-.724 9.71-3.307 12.76-6.27 7.548-7.235-5.814-15.993-9.613-20.679-18.269-18.255-37.328-35.64-55.742-53.742-9.243-9.486-19.793-17.544-29.025-27.025-15.19 25.441-33.83 49.336-48.5 75h-3V999h96c8.868-.009 20.439-1.088 24.656-9.683 1.774-3.365-1.059-6.581-3.526-8.687-16.198-16.858-34.373-31.556-51.645-47.248-13.541-10.832-25.636-23.358-38.985-34.382-10.961 12.885-19.431 27.751-29.798 41.088-7.408 10.484-14.9 20.91-22.392 31.328-2.884 4.753-10.106 3.437-14.805 3.584H1160c.403-4.152 5.492-7.477 8.475-10.975C1217.615 915.137 1264.2 861.862 1298 801c4.825-.198 8.018 5.25 10.387 8.668 20.398 28.439 38.807 58.523 53.282 90.435 1.979 5.722 4.522 12.257 11.348 15.558 22.107 14.83 53.183 13.804 73.888-3.607 15.467-11.485 24.402-30.983 20.666-50.24-5.679-28.862-29.858-49.346-55.18-61.11-26.228-13.547-55.214-20.906-84.112-25.984-1.421-.234-2.858-.517-4.279-.72v-3c12.706-.01 24.593-7.105 30-18.5-52.317-16.474-104.355-34.575-156.5-51.5-12.636 63.5-34.754 124.89-59.754 184.468-24.583 56.43-52.507 112.334-90.746 160.907m2 1150.108c12.236 26.172 26.92 51.313 39.438 77.39 13.108 26.18 26.989 51.935 40.062 78.127 14.66-6.847 16.659-23.443 21.3-35.459 21.466-38.716 43.9-77.216 62.2-117.541h3v323c19.503.318 39.335 1.009 58.342-4.339 13.117-3.349 26.13-7.576 38.32-13.503 8.718-4.479 17.275-9.467 24.988-15.519 2.714-2.473 5.985-5.467 7.615-8.461 3-6.88 1.05-14.891 1.735-22.131V1678c13.399-1.72 31.121-6.226 34-25-55.07-4.017-109.902-11.406-165-15v243h-3c-5.636-14.894-19.108-28.946-28.87-39.37-16.41-17.225-36.372-30.58-57.277-41.702-10.98-5.686-22.05-11.146-33.572-15.624-5.86-2.127-11.486-4.839-17.398-6.798-2.986-1.447-5.406-1.381-7.757.865-2.676 1.063-.78 5.472-.212 7.407 14.175 38.557 24.312 78.657 28.63 119.583 1.916 19.812 2.617 39.699 1.554 59.556-.807 5.414.228 9.597 4.377 13.058 9.183 9.539 20.33 17.38 32.832 21.9 14.59 5.141 30.982 5.45 45.395-.956 14.196-5.185 24.441-16.46 33.298-27.919h2v136.2c-.21 3.738.913 8.959-3.251 11.287C1157.93 2145.1 1104.364 2172.82 1049 2196zm39-1015.233c9.14 39.277 12.878 80.503 13 120.898.235 15.643-.863 31.276-2.394 46.829-.666 6.295-3.02 14.37 1.413 18.481 7.783 8.305 18.392 17.295 28.68 20.193 20.374 6.415 41.752-4.212 53.327-21.048 19.239-26.615 16.497-62.948 4.484-91.599-11.491-28.438-31.649-52.648-55.203-71.928-6.625-5.475-13.302-10.874-20.336-15.813-3.518-2.597-7.091-5.21-10.902-7.364-3.06-2.05-7.133.233-11.002.977-.364.027-.708.073-1.067.124zm241 180.25c.03.55.186 1.057.5 1.5 3.909 1.002 9.08 3.5 12 5 23.429-26.625 44.502-55.206 63.811-84.932 9.577-14.578 18.587-29.483 27.431-44.52 2.34-3.472 4.269-8.186 6.903-11.015 6.886-1.446 14.296-1.86 20.667-5.238 6.09-2.842 10.184-8.359 13.688-13.795-41.491-12.523-83.397-24.26-125-36.5-6.606 62.682-10.482 127.554-20 189.5m37 763.5h319v241.8c-.22 7.177.99 15.741-4.523 20.773-9.746 5.57-25.564 2.553-38.232 3.047-38.813-1.12-77.444-5.445-116.245-6.62v9c32.345 5.554 65.957 14.427 90.392 37.898 12.434 11.034 19.816 26.163 23.97 41.978 2.29 8.843 3.883 17.796 5.24 26.818.613 4.292 1.287 8.555 1.76 12.86.517 3.644.29 8.907 2.138 11.446 38.6-5.77 80.718-8.862 115.254-29.849 12.48-7.543 23.638-17.421 31.102-30.094 13.158-23.664 15.783-51.44 16.995-77.899.424-87.057-.077-174.113.149-261.158h112.8c9.383-.161 23.23.423 28.89-10.513 2.627-2.98-2.853-7.533-4.33-9.613-9.856-9.891-19.735-19.733-29.595-29.605-9.832-9.632-20.304-18.513-30.135-28.14-8.138-7.601-16.63-14.837-24.13-23.129-8.225 13.116-17.336 25.86-25.741 38.895-7.587 11.228-16.619 26.544-25.759 38.105h-2v-68c11.917-.35 29.554-6.38 31-22-37.963-3.644-76.03-6.358-114-10 .641-4.593 7.423-6.993 11.174-10.109 31.963-22.262 63.18-45.708 92.232-71.685 14.703-12.591 30.908-28.516 43.696-40.808 3.43-3.536 7.08-6.86 10.27-10.609 4.377-7.587 13.729-5.496 20.993-6.793 7.808-.746 14.217-5.27 18.635-11.496-23.23-12.899-47.342-24.54-70.873-36.938-24.398-11.405-47.508-25.746-72.127-36.562-18.7 52.166-46.174 101.152-73.887 148.982-13.706 23.19-28.363 45.833-44.113 67.684-8.134 11.014-16.004 22.214-24.754 32.763-4.143 5.445-8.585 10.617-13.055 15.775-1.663 2.439-4.719 4.785-5.691 8.223-.003 2.609 3.573 4.899 4.75 7.573 10.09-3.843 19.32-9.842 28.968-14.611 9.67-3.68 19.475-12.247 28.782-14.389v73h-325c.955 8.211 5.05 15.784 6 24m3-301c19.34 48.388 42.056 97.56 45.386 150.657-.941 13.493 14.51 21.07 24.914 26 18.349 9.22 41.255 4.744 57.019-7.262 15.812-11.32 24.162-34.88 22.43-52.087-2.918-33.334-25.439-60.675-51.946-79.177-25.659-18.756-55.82-30.322-85.956-39.613-4.507-1.946-8.531-.818-11.847 1.482m8-34.5c46.99-1.618 94.784.652 141.935-1.1 67.856-1.164 135.598-5.972 203.115-12.441 34.053-3.708 68.084-7.886 101.83-13.766 8.285-1.242 16.451-3.161 24.686-4.593 12.278-1.269 23.879 6.032 36.185 6.077 12.103 1.543 25.23.58 35.249-7.177-44.289-39.622-87.81-80.2-131.5-120.5-63.699 34.672-132.73 58.993-200.66 83.895-69.531 23.144-139.897 44.832-211.84 59.105-.014 3.526.483 7.023 1 10.5m9-336.25c11.945 22.628 23.618 45.74 35.786 68.312 12.467 22.942 23.244 46.956 36.464 69.438 10.537-3.31 18.2-12.177 23.18-21.608 2.209-3.63 7.29-5.769 11.255-8.222 33.779-20.084 67.742-39.873 101.092-60.648 24.976-15.511 49.738-31.367 74.129-47.801 9.372-5.96 18.412-12.408 27.546-18.688 7.857-4.318 16.979-13.272 24.166-15.543 3.583 1.231 4.725 7.794 6.819 10.379 27.633 58.797 68.717 110.108 115.063 155.131 8.397-26.363 22.907-50.987 41.478-71.472 20.218-19.534 45.843-34.396 74.022-38.528.39-3.86 1.574-8.518-1.95-10.28-3.31-2.063-6.958-3.576-10.436-5.306-35.875-17.825-70.35-38.364-102.987-61.59-17.064-11.225-32.258-24.773-47.434-38.314-7.641-7.092-14.844-14.66-21.723-22.46-3.532-3.636-6.75-7.54-10.066-11.361-3.018-3.664-7.337-8.063-7.404-12.689 32.857-6.772 63.737-21.158 95.117-32.54 14.955-5.92 29.697-12.441 44.367-19.024 8.33-2.963 16.789 3.047 25.192 2.53 8.358.346 16.5-3.586 22.324-9.466-19.839-14.343-39.386-29.483-59.207-43.917-10.027-7.409-19.903-15.079-30.069-22.291-4.984-3.679-9.914-7.463-14.894-11.14-3.849-3.722-12.011-7.32-12.83-12.152 17.685-2.652 34.7-9.228 49.74-18.883 3.498-2.426 7.662-5.027 8.805-9.416 1.247-14.885-.185-29.95.455-44.868V809c6.949.141 15.04-1.885 20.85-4.429 5.235-2.974 13.613-6.005 15.15-11.571-20.5-12.67-39.117-29.272-59.205-42.772-19.396-14.463-39.109-28.51-58.295-43.228-18.294 20.691-32.789 44.875-51.258 65.32-23.883 1.94-48.217-.353-72.181.68h-54.403c-6.486-.326-14.279.528-20.156-.609-42.05-14.824-83.345-31.917-125.502-46.391v713c-31.085 3.914-61.919 10.077-93 14zm43 701.014c15.635 27.53 30.624 55.817 42.074 85.448 8.972 22.878 15.727 46.708 19.384 71.015 3.87 6.622 14.15 10.343 20.368 14.192 15.184 7.449 33.278 7.998 49.076 2.251 22.39-8.12 37.38-30.226 39.496-53.448 2.248-23.744-12.702-49.852-27.63-64.455-16.905-16.55-41.354-31.254-61.612-38.81-12.13-4.935-24.618-8.886-37.333-12.011-12.16-2.199-26.484-7.319-37.953-6.89-2.064.445-4.177 1.62-5.87 2.444zM1530 1799c3.708 12.698 10.218 24.74 13.4 37.706 6.978 22.72 13.045 45.75 16.813 69.244 1.347 9.067 2.657 18.18 3.003 27.358.187 4.354.367 8.68.55 13.02.51 3.334-.403 8.72 1.581 10.976 17.286 19.812 47.432 29.533 72.14 18.841 24.4-10.154 40.151-37.226 37.193-63.421-3.496-31.98-26.413-57.444-51.221-75.617-25.44-18.058-54.588-30.374-84.32-39.358-2.988-.854-6.837.651-9.139 1.251m63-862h168V798h-126c-13.58-.424-27.252.758-40.75-1-.301.49-.688.853-1.25 1zm0 167h168V961h-168zm0 315c39.84-5.509 79.246-14.842 119-21-31.782-86.67-48.719-178.168-57-270h-62zm223-253c-18.323 1.062-36.653 1.26-55 1v-39h-93c.465 10.713 5.401 22.673 7.488 32.165 10.127 35.048 23.942 68.982 41.839 100.765 4.831 7.143 8.557 15.03 13.785 21.9 2.08 2.16 3.877 6.973 6.948 6.607 14.787-16.14 27.544-39.291 39.32-55.49 13.056-22.344 28.584-44.076 38.62-67.947" style="fill:#fda;fill-rule:evenodd;stroke:none"/><path d="M338 2761.5c387.06 1.426 774.925-.26 1162.15.5 387.224-.76 774.71.926 1161.85-.5-77.265-456.459-152.125-914.01-228.874-1370.691-28.417-170.851-56.988-341.657-85.4-512.497-12.491-74.824-24.942-149.684-37.431-224.508-5.828-35.176-11.741-70.32-17.569-105.492-3.54-17.097-4.968-34.714-9.072-51.664-1.3-3.941-8.915-3.966-11.797-5.85-133.175-44.44-266.372-88.79-399.558-133.193-116.482-38.867-233.005-77.647-349.48-116.505-6.56-1.974-12.94-4.527-19.527-6.382-6.558-1.31-12.878 2.396-19.017 4.029-100.339 33.452-200.674 66.889-301.01 100.324-87.802 29.33-175.659 58.504-263.446 87.829-38.52 12.817-77.015 25.657-115.52 38.495-18.005 5.974-35.995 12.026-54 18-8.822 2.95-17.652 5.903-26.471 8.83-4.346 1.012-8.371 2.451-8.57 8.208-90.761 544.76-181.624 1089.514-272.367 1634.27-35.423 208.458-69 418.87-104.891 626.797m111-95v1.5h2102v-1.5c-63.81-378.768-126.215-757.87-189.705-1136.696-47.349-283.998-94.654-568.016-142-852-4.398-26.67-8.911-53.338-13.325-80.003-1.118-6.656-2.232-13.342-3.35-19.985-.571-3.586-1.119-7.183-2.096-10.662-1.288-2.958-6.82-3.128-9.193-4.54-101.51-33.828-203.017-67.663-304.512-101.514a746151 746151 0 0 1-266.522-88.84c-39.072-12.89-78.06-26.135-117.144-38.98-4.713-1.335-9.273 1.032-13.839 2.453-144.507 48.104-288.95 96.378-433.449 144.467-54.18 18.08-108.385 36.116-162.566 54.195-23.808 7.923-47.625 15.882-71.434 23.805-5.676 1.96-11.407 3.738-17.06 5.726-6.564 1.113-6.72 8.744-7.34 13.268C740.08 921.349 682.77 1265.54 625.383 1609.692 566.339 1961.663 508.308 2314.864 449 2666.5" style="fill:gray;fill-rule:evenodd;stroke:none"/><path d="M1045 1046.5c2.218 2.522 5.174 4.309 8.002 6.013 3.433-.444 6.83-2.99 9.501-4.52 28.219-17.083 54.893-36.6 79.997-57.993 2.338 3.958 1.758 10.396 8.315 9.957 16.216.123 32.43-.023 48.634.043H1204v114h-137c.84 7.346 4.313 15.56 5.853 22.12 1.246 4.862 7.114 3.687 10.712 3.88H1204v220.2c-.005 18.422.006 36.829-.003 55.24 1.333 8.805-8 8.125-13.217 8.9-43.551 8.523-88.331 14.376-131.78 22.16 23.319 46.598 52.011 90.776 75 137.5 8.219-2.16 14.546-8.507 19.919-14.694 2.568-2.834 3.884-6.528 6.189-9.518 5.584-5.432 13.75-7.374 20.226-11.463 48.834-26.069 98.338-50.949 146.275-78.675 46.882-25.887 92.65-54.522 137.391-83.65-.02-3.679-.552-7.357-1-11-48.16 7.561-95.775 18.844-144 26v-261c44.83-.85 89.858 1.037 134.637-.56 8.48-1.737 20.101-10.236 10.577-19.431-20.367-21.477-41.847-41.874-63.584-61.879-9.93-10.187-21.203-18.941-31.13-29.13-16.813 25.19-33.494 50.634-50 76-1.426-34.903.26-70.05-.5-105h66.6c11.201-.01 22.402.012 33.592-.006 9.838.583 20.061-4.828 22.808-14.603-15.845-15.681-32.273-30.727-49.031-45.413-8.61-7.32-16.786-15.101-25.343-22.471-4.228-3.627-8.226-7.543-12.576-11.032-3.587-3.069-8.058-8.473-12.05-9.475-8.551 14.322-19.889 27.561-28.99 41.671-7.31 10.342-14.756 20.61-22.078 30.935-2.997 5.226-8.315 4.496-13.628 4.394-39.012-.76-78.411.926-117.304-.5 52.135-51.515 102.512-106.857 138-171.5h1.5c17.698 21.759 32.04 46.196 45.901 70.502 5.452 9.707 10.278 19.828 14.848 29.955 3.148 10.087 9.728 14.999 18.687 18.522 30.948 16.389 75.945-.41 86.952-34.162 11.722-37.243-18.773-68.381-45.684-82.989-28.379-15.987-60.06-24.904-92.038-30.14A37 37 0 0 1 1325 772.5c11.298-2.534 26.78-5.344 30-21.5-53.673-14.186-105.353-36.607-159-51-11.276 63.777-34.995 124.755-59.254 184.468-24.957 56.72-52.771 113.454-91.746 162.032m2 1149.758c13.32 26.17 27.222 52.333 40.438 78.615 13.936 26.213 26.697 53.202 41.062 79.127 15.009-8.594 17.823-22.405 22.3-36.459 22.137-38.517 43.19-77.625 62.7-117.541 1.426 107.549-.26 215.392.5 323 19.917.248 40.142 1.082 59.587-4.144 13.358-3.428 26.653-7.626 39.075-13.698 8.85-4.58 17.6-9.614 25.377-15.86 2.706-2.46 5.904-5.491 7.43-8.52 2.78-7.226.793-15.42 1.531-22.93V1679c13.678-1.62 33.018-6.93 34-27-55.762-3.687-111.192-12-167-15-.76 80.929.926 162.151-.5 243-13.596-27.758-41.457-52.816-64.674-68.11-13.12-8.802-27.275-16.014-41.61-22.595-7.407-3.265-14.797-6.531-22.384-9.359-3.832-1.46-7.567-3.254-11.566-4.185-3.975-1.05-7.142 1.557-10.266 2.249 20.165 53.813 33.108 110.45 33.848 168.123-.228 7.71-.892 15.382-.836 23.097-.585 6.251 5.676 11.069 9.742 14.974 15.588 14.07 36.723 23.093 57.974 20.067 20.606-2.206 38.785-15.106 49.772-32.261 1.426 29.079-.26 58.66.5 87.834v47.964c1.784 9.701-8.295 12.578-15.334 15.877C1148.54 2148.665 1098 2172.919 1047 2196zM1087 1180c6.578 33.735 11.813 67.927 12.756 102.356 1.893 26.927-1.19 53.75-3.531 80.473.241 4.225 5.038 7.714 8.252 11.139 12.233 13.181 30.538 19.883 48.212 15.213 25.625-6.67 41.615-32.837 43.772-57.843 3.141-27.03-4.694-54.155-18.845-77.112-17.215-31.037-50.05-58.27-76.91-75.633-4.177-2.496-9.444 1.101-13.706 1.407m241 184c6.125.238 12.42 7.559 16.814 2.163 11.944-13.471 23.085-27.59 33.813-42.039 15.287-20.678 29.226-42.26 42.829-64.05 3.4-5.762 6.973-11.407 10.295-17.205 2.799-3.914 5.091-9.094 7.581-12.704 1.692-3.154 7.804-2.14 10.586-3.278 10.853-1.613 23.955-9.552 25.082-19.887-42.65-10.495-84.302-25.849-127-36-5.952 64.295-11.47 128.967-20 193m30 736.5c2.491 8.104 5.443 17.866 7 25.5h319v240.6c-.222 6.909.946 15.849-5.023 20.2-9.632 5.467-25.274 2.151-37.724 2.746-38.81-1.09-77.434-5.713-116.253-6.546v11c32.345 5.554 65.957 14.427 90.392 37.898 12.434 11.034 19.816 26.163 23.97 41.978 2.29 8.843 3.883 17.796 5.24 26.818.613 4.292 1.287 8.555 1.76 12.86.492 3.594.323 8.89 2.138 11.446 26.525-3.545 53.373-6.15 79.182-13.771 18.131-5.467 36.12-12.653 50.66-25.156 24.25-18.3 31.606-49.82 34.32-78.282 2.325-32.143.797-64.473 1.338-96.668V2126h77.4c13.02-.005 26.031.006 39.038-.003 10.431.132 22.574-1.533 27.562-14.497-13.636-15.699-31.727-32.328-45.475-45.482-7.727-7.715-16.017-14.78-23.627-22.618-3.968-3.7-8.334-6.974-12-11.002-3.504-3.114-7.752-8.924-11.898-9.398-7.1 13.536-17.446 25.672-25.241 38.895-8.048 12.93-16.764 25.479-25.259 38.105-1.42-21.797.252-44.11-.5-66 12.338-.158 31.37-7.197 31-24-37.812-4.41-76.364-5.437-114-10.5 34.28-23.384 67.83-48.098 99.127-75.408 15.8-14.353 31.88-28.336 46.848-43.567 3.67-3.8 7.58-7.359 11.06-11.335 4.654-8.133 14.626-5.858 22.383-7.387 8.115-1.062 14.733-6.293 18.582-13.303-24.27-12.004-48.057-25.158-72.334-37.175-24.06-12.407-48.27-24.666-72.166-37.325-20.81 49.939-44.414 99.114-72.647 145.433-26.882 45.404-56.758 89.39-91.853 128.88 1.32 4.065 5.035 7.788 7.5 10.687 18.56-10.009 37.729-19.381 56-30 1.422 23.537-.255 47.396.5 71h-326zm9-276.125c12.072 25.932 23.52 52.355 31.523 79.93 6.447 21.293 12.37 42.877 14.26 65.133.63 4.485.659 9.041 1.327 13.508.486 3.944 3.982 6.125 6.897 8.46 11.098 8.827 24.61 14.599 38.764 15.31 21.431.445 42.985-10.948 52.654-30.582 10.9-19.455 9.136-43.515.303-63.329-10.72-25.02-36.076-46.255-56.337-59.516-23.641-14.421-49.621-24.448-76.11-32.22-5.353-1.879-9.278.222-13.281 2.931zm9-34.375c93.68.52 187.45.418 280.878-7.063 45.012-3.57 90.007-7.875 134.688-14.527 11.505-1.507 22.911-3.433 34.34-5.382 8.31-1.243 16.482-3.192 24.758-4.566 6.091-.689 11.862 2.149 17.667 3.378 18.008 5.337 37.01 4.37 53.669-3.84v-1.5c-37.768-34.37-75.504-68.854-113.182-103.323-3.649-3.277-6.848-7.049-10.706-10.089-3.646-1.907-7.195-8.762-11.219-7.123-64.375 33.105-132.383 59.099-200.618 83.104-69.343 23.091-139.522 44.685-211.275 58.931a54.8 54.8 0 0 0 1 12m8-337.75c22.803 42.47 44.474 85.862 66.927 128.583 2.196 4.198 4.847 13.685 12.045 9.613 9.81-4.036 15.916-13.454 20.743-22.102 25.3-15.743 51.602-30.121 76.964-45.803 26.847-16.695 53.983-32.904 80.285-50.454 26.635-16.982 52.698-34.95 78.536-53.087 8.848 14.882 15.156 31.438 24.554 46.088 26.135 45.06 60.087 84.855 97.446 120.912 9.985-25.513 22.163-51.164 41.4-71.352 20.185-20.343 46.545-35.254 75.1-39.648.449-4.02 2.014-10.26-1.838-12.201-3.961-2.51-8.393-4.25-12.582-6.327-70.01-35.603-138.171-79.876-187.58-141.972v-1.5c33.21-6.784 64.327-21.468 96.052-32.874 15.214-5.808 29.904-12.986 44.95-19.114 4.138-1.124 8.992.9 12.685 1.688 11.525 2.743 29.855 1.535 33.313-10.7-39.51-27.589-77.83-58.176-117-86.5 19.313-5.207 44.944-11.723 57.669-26.463 2.808-8.312.298-17.676 1.331-26.231V810c13.227.193 29.424-6.39 37-16-39.642-30.121-80.428-59.38-120.5-89-16.694 22.082-33.443 44.455-50.757 66.066-11.747 2.327-24.303-.148-36.213.934h-87.279c-6.724-.278-14.695.407-20.822-.39-42.735-15.443-85.346-31.84-127.929-47.61-1.426 237.872.26 476.062-.5 714-31.442 3.709-62.536 10.453-94 14zm43 702.207c19.813 31.828 35.864 66.291 48.771 101.473 4.716 13.54 8.133 27.455 11.21 41.429 1.471 5.696 1.198 14.538 5.178 17.87 18.34 14.86 43.733 21.881 66.592 13.667 16.285-5.254 29.594-18.266 36.541-33.71 10.525-24.895 4.657-54.342-12.236-75.091-15.265-20.097-37.13-34.21-59.416-45.272-28.084-12.907-58.845-20.588-89.255-25.24-2.062 2.054-5.727 2.192-7.385 4.874m101-355.129c13.096 30.864 22.747 63.45 29.046 96.438 2.91 12.646 4.487 25.594 5.17 38.542.262 6.102.521 12.194.752 18.282-.367 5.348 4.159 9.676 8.053 12.137 14.817 11.827 33.924 19.96 53.274 16.448 28.222-4.116 51.357-30.317 51.682-58.88 1.259-29.065-15.419-55.892-36.777-74.13-28.769-26.337-65.885-40.586-102.144-52.84l-.556-.325c-2.43 1.534-5.444 2.513-8.5 4zM1594 936h166V799h-124.2c-13.04-.97-28.723 1.303-40.55-1-.301.49-.688.853-1.25 1zm0 167h166V962h-166zm0 315c38.945-7.189 78.22-13.503 117-21.5-33.601-85.18-47.534-176.891-57-267.5h-60zm143.5-129c28.769-38.502 55.103-79.394 77.25-122-18.23 1.187-36.498 1.147-54.75 1v-39h-91c5.726 29.389 16.078 57.894 27.059 85.658 11.272 26.003 24.227 51.721 41.441 74.342" style="fill:#000;fill-rule:evenodd;stroke:none"/></svg>