<svg xmlns="http://www.w3.org/2000/svg" width="3000" height="3000"><path d="M363 2763h2274c-116.777-706.336-235.544-1412.426-352.792-2118.701-7.351-44.171-14.733-88.332-22.082-132.49-.76-5.347-1.88-10.63-2.64-15.97-.062-6.502-4.856-8.386-10.16-9.572-81.497-27.15-162.975-54.317-244.46-81.467-142.336-47.478-284.708-94.881-427.04-142.357-13.532-4.49-27.037-9.017-40.56-13.514-6.477-2.17-12.972-4.309-19.44-6.486-6.235-1.594-13.427-5.493-19.495-5.034-100.387 32.434-200.209 66.92-300.466 99.791-150.35 50.002-300.828 99.614-451.039 150.05-5.982 1.452-6.275 6.662-6.798 11.742-24.43 146.388-48.84 292.799-73.214 439.189C565.92 1546.494 463.462 2154.662 363 2763m650-1642.75c1.171 2.847 3.579 5.81 4 8.75 42.295-16.514 84.303-34.637 124.343-56.141 19.66-9.763 38.953-20.21 57.725-31.584 9.777-5.53 19.464-11.175 28.947-17.195 4.738-2.797 9.227-5.998 14.06-8.62 4.51-2.047 9.8-6.856 13.925-7.46 1.395 7.623 3.99 15.083 6.363 22.436 1.23 3.938 8.69 1.855 11.406 2.564H1410v146h-317c1.53 7.814 4.104 15.48 6.287 23.128 1.031 4.387 9.247 2.17 12.097 2.872H1410v325h-369c2.007 9.032 5.944 17.753 7 27h871.2c17.107-.61 39.478 1.73 46.8-14.5-44.881-42.728-97.345-76.55-144.5-116.5-14.897 18.507-28.843 37.813-43.568 56.457-11.016 14.33-21.794 28.836-33.016 43-4.197 6.456-14.33 4.139-20.873 4.543H1561v-325h315c9.616-.033 19.664.956 28.745-2.905 7.106-2.379 15.12-10.196 6.122-16.64-41.08-34.688-83.314-67.999-125.367-101.455-13.206 16.043-25.33 33.018-37.943 49.526-10.035 12.141-18.862 25.188-28.742 37.449-1.88 2.411-3.575 4.986-5.914 6.963-5.209 2.03-13.03.447-18.556 1.062H1561v-146h92.4c15.622-.017 31.229.02 46.84-.011 12.777-.589 28.419.765 36.76-14.489-38.155-34.846-80.815-64.522-120.5-97.5-18.04 23.695-37.109 46.611-55.194 70.27-3.55 4.148-7.123 9.63-10.772 13.088-1.853 1.939-5.67 1.485-8.63 1.642H1260v-3c56.397-35.526 108.794-78.345 158.37-122.87 24.812-23.555 49.417-47.34 71.5-73.5 11.415-12.34 21.326-26.009 31.77-39.147a435 435 0 0 0 14.745-20.34c4.895-5.991 8.88-16.765 16.615-16.143 25.118 78.692 69.932 151.08 127.602 210.102 55.832 60.325 126.007 105.004 195.898 146.898 7.135-32.733 20.11-64.775 40.64-91.584 19.716-25.447 45.384-49.046 77.86-56.416-.114-5.027.007-10.056 1-15-81.92-15.375-162.306-39.618-239.683-70.486-36.813-15.407-72.315-33.854-105.333-56.326-16.337-11.92-33.074-23.605-47.354-38.058-7.082-7.385-14.67-14.278-21.562-21.826-3.254-3.86-6.608-7.61-9.706-11.595-2.676-3.503-7.05-7.37-7.362-11.709 10.616-.272 21.033-2.812 31.328-5.095 9.334-2.415 19.049-7.769 22.672-17.28-3.207-2.59-9.227-2.582-13.697-4.295-67.253-17.883-134.571-35.402-201.803-53.33-3.692 5.87-3.366 13.475-6.239 19.699-16.321 48.438-40.524 93.908-68.228 136.753-40.854 64.318-89.837 123.209-142.266 178.28-27.488 27.423-54.356 55.49-83.943 80.744-28.35 24.909-58.514 48.663-89.824 69.524zm9 999.25c2.353 8.238 6.46 17.769 8 25.5h149c-.605 85.975-6.858 172.794-31.459 255.643-11.716 37.914-27.766 74.47-48.56 108.292-10.637 16.114-21.208 32.402-34.12 46.855-11.883 16.027-28.478 28.314-40.861 43.71 1.742 1.63 3.057 3.63 4.5 5.5 43.574-16.106 84.858-38.858 121.784-67.008 55.243-42.694 97.545-100.732 123.78-165.155 13.531-33.566 24.1-68.566 29.538-104.4 6.047-37.04 10.461-74.352 11.181-111.904.141-3.843.233-7.698.217-11.533h84v460c20.697-.021 41.684.457 61.937-4.522 14.262-3.174 28.073-8.072 41.344-14.147 9.372-4.312 20.285-9.8 27.792-15.65 3.063-2.332 6.432-4.976 7.433-8.892 1.408-31.888-.255-63.998.494-95.922V2145h68c6.046 67.454 15.64 135.067 34.884 200.155 13.436 46.016 35.023 89.432 62.092 128.819 42.25 58.815 105.06 102.233 173.72 124.759 18.675 5.994 38.784 8.777 58.3 4.954 26.56-4.045 50.92-28.945 49.697-56.782-1.249-13.872-7.226-26.748-14.362-38.459-3.12-5.678-7.145-10.794-10.847-16.077a56.6 56.6 0 0 1-5.992-8.256c-.505-3.728-.636-7.477-.481-11.236 1.006-37.311 4.322-74.56 4.989-111.877-2.445-.075-5.502.173-7.5-1-10.32 29.746-19.864 60.193-34.195 88.367-5.465 13.827-19.902 14.113-30.939 8.585-38.713-13.756-70.12-42.404-91.677-76.884-21.334-34.49-36.559-73.371-44.689-113.068 7.303 1.277 12.776 11.345 19.91 15.586 22.636 21.937 43.944 45.605 60.972 72.237 7.536 8.97 10.113 21.163 17.214 30.248 18.525 10.287 42.921 10.513 60.795-1.385 12.434-8.929 21.688-23.213 23.037-38.726 2.982-23.88-9.951-46.61-27.444-61.856-8.486-7.648-18.607-12.93-28.824-17.784-5.016-2.56-10.372-4.266-15.6-6.294-4.681-2.657-14.207-2.362-15.06-8.026 17.47-8.775 34.369-19.477 51.433-29.146 9.224-4.914 18.797-13.887 28.032-12.393 9.178 1.108 21.694.594 28.535-9.461-18.83-13.144-41.276-21.233-60.818-33.396-10.072-5.311-21.794-11.683-31.047-16.513-5.296-2.64-10.601-5.256-15.676-8.282-4.35-2.736-12.01-4.62-12.459-9.809 9.856.175 21.774 7.39 33.237 9.304 32.582 8.947 80.845 15.08 104.875-21.571 10.82-15.689 11.942-37.376 2.713-54.092-4.166-8.49-9.29-16.52-15.344-23.793-2.946-3.61-6.002-7.097-8.976-10.676-4.209-3.85-3.15-8.224-2.552-13.074.37-33.401 3.786-66.7 4.047-100.098-2.425-.697-5.441-.973-7.5-2-9.293 28.525-19.207 57.151-33.895 83.498-6.378 11.983-18.848 12.915-29.66 8.327-37.268-10.937-70.376-33.754-93.186-65.276-11.256-15.42-21.148-31.963-28.407-49.696-6.835-18.131-15.01-36.399-17.352-55.853 7.567 1.29 13.569 10.062 19.764 13.816 22.005 19.623 42.51 41.234 59.065 65.773 5.772 8.894 12.048 19.669 15.993 28.578 1.822 4.303 8.077 5.044 11.886 6.477 9.348 2.44 21.049 3.191 29.783 1.475 15.12-3.83 29.417-13.596 36.412-27.9 13.088-21.949 5.837-49.851-11.334-67.065-16.335-17.756-39.746-26.562-62.569-32.154v-3c17.999-6.035 35.885-12.765 53.723-19.288 8.106-3.547 16.826-9.01 27.418-6.211 7.95.79 20.006 2.259 24.859-8.501-19.758-11.663-37.477-27.485-56.993-39.746-9.456-6.82-19.014-13.51-28.455-20.33-4.62-3.403-9.39-6.605-14-10-4.53-2.733-10.109-8.237-14.552-8.924-10.97 37.732-27.616 73.953-43 110-17.413-.289-34.668 2.174-52 3-1.43-15.732-5.608-31.17-6.256-47.023.4-1.654-.908-3.862.07-5.589 11.566-4.774 27.125-4.792 36.186-15.388-18.992-15.316-40.193-28.217-59.671-42.99-20.253-13.457-39.417-28.942-59.829-42.01-15.366 15.925-29.8 32.74-45.213 48.628-3.083 3.927-6.768 7.298-10.27 10.828-3.825 4.311-8.812 3.573-14.078 3.544H1084c1.47 9.287 5.838 17.898 8 27h501c2.48.178 5.703-.205 7.765.97 10.618 75.634 23.754 154.047 62.43 221.571 18.453 31.943 40.513 62.668 68.72 86.806 27.3 23.663 58.617 43.074 92.085 56.653-.222 3.162-2.523 5.592-2.981 9.402-5.387 26.796-11.62 53.423-18.347 79.902-1.722 6.49-3.686 12.934-5.119 19.496-1.39 4.505-2.055 11.854-6.88 11.888-8.184.143-16.354-1.009-24.536-.657-4.047.043-8.083.456-12.113.642-3.292.442-7.327-1.428-10.024-1.673-2.996-21.377-7.03-42.68-8.338-64.285-.463-5.645-.527-11.312-.96-16.945.105-1.807-.51-4.71.622-5.887 12.379-4.2 27.406-5.502 36.676-16.383-39.179-30.286-79.908-58.742-119.5-88.5-14.627 17.6-30.933 33.74-45.976 50.975-4.146 4.016-7.395 8.854-11.777 12.636-3.724 3.198-8.999 2.247-13.582 2.389H1538v-296c12.686-1.852 30.524-5.812 33-24-57.3-5.587-114.682-10.68-172-16v70h-1.5c-20.907-11.33-41.207-23.974-62.109-35.35-10.28-5.883-20.62-11.683-30.783-17.759-5.28-2.948-10.466-6.045-15.745-8.979-4.997-2.281-11.215-7.329-15.863-7.912-14.41 22.386-38.11 44.463-54.733 62.233-58.808 56.976-124.074 107.635-195.267 148.267.919 2.741 2.655 6.267 3.5 8.5 24.735-7.135 50.938-10.458 75.667-18.031 12.655-3 25.206-6.286 37.642-10.06 12.19-2.375 25.85-8.7 37.191-9.909v155h-155zm163-871.5c10.283 33.597 20.059 67.637 24.887 102.614 5.015 28.257 7.183 56.81 6.113 85.502.418 5.332-.395 10.675-.38 15.973 3.007 8.258 13.541 12.934 19 18.575 13.106 9.34 28.471 17.01 44.97 17.325 24.308 1.29 47.49-10.81 62.779-29.203 15.68-19.18 21.69-45.091 17.388-69.287-7.47-37.633-32.755-69.385-62.839-92.156-29.671-23.158-64.751-38.173-99.91-50.724-4.516-2.088-8.195-.484-12.008 1.381m64 690.5v1.5c33.697 2.498 67.318 6.355 101 9-2.126 16.927-16.977 23.208-31.665 25.207-3.344.238-3.223 4.293-3.322 6.781-.038 46.01.007 92.005-.013 138.012h84v-235c-7.366.05-14.73-.354-22.052-1.036-11.464-2.929-22.998 6.199-32.413 11.243-31.232 15.34-62.442 31.832-95.535 42.793zm355-451.5c3.703.525 7.154 5.893 10.585 3.742 23.516-14.86 45.013-32.93 66.868-50.088 27.69-23.462 55.186-47.144 81.022-72.63 13.514-12.717 25.946-26.408 38.758-39.757 2.808-3.31 6.43-6.8 11.837-6.26 13.332.396 31.075-4.833 33.93-19.007-30.907-9.825-61.35-21.804-92.116-32.202-30.637-11.277-61.798-21.526-92.384-32.798-17.985 83.232-37.066 166.613-58.5 249" style="fill:#fda;fill-rule:evenodd;stroke:none"/><path d="M244 2863.5c418.26 1.426 837.325-.26 1255.75.5 418.681-.76 837.643.926 1256.25-.5-137.483-816.352-271.828-1633.965-409-2450.5-141.513-45.746-282.358-94.352-423.703-140.74-105.839-35.248-211.646-70.575-317.47-105.817l-60-20a8496 8496 0 0 1-28.008-9.343c-4.68-1.543-9.347-3.083-13.982-4.729-5.086-2.015-9.193.742-14.014 2.193-139.528 46.49-279.049 93.006-418.557 139.507C931.703 319.858 792.72 367.853 653 413c-137.126 816.275-271.612 1634.71-409 2450.5m120-103v1.5h2272v-1.5c-68.931-409.09-136.257-818.54-204.874-1227.691-51.028-306.678-102.288-613.313-153.312-919.99-4.869-28.835-9.565-57.678-14.432-86.51-1.133-7.012-2.351-14.007-3.495-21.008-1.484-6.504-.056-15.285-8.94-17.157-109.703-36.573-219.416-73.135-329.12-109.701-96.009-31.978-191.992-64.023-288-96-41.971-14.027-84.002-27.963-125.969-41.994-9.552-4.304-21.398 2.4-30.56 4.946-155.047 51.948-310.255 103.285-465.433 154.805-58.187 19.4-116.394 38.801-174.566 58.195-25.476 8.525-51.019 16.959-76.48 25.505-5.454 2.642-13.186 3.29-17.14 6.618-2.1 1.795-1.737 5.77-2.555 8.884-62.19 372.917-124.31 745.877-186.485 1118.792C490.857 1998.664 428.048 2380.37 364 2760.5" style="fill:gray;fill-rule:evenodd;stroke:none"/><path d="M1175 1963.5c2.419 12.612-.085 25.906 1 38.658v88.097c-1.062 9.338 1.396 20.658-1 28.245 1.292.447 2.65.517 4 .5v-156h-4zM1548 732c1.377-.015 3.241.098 4.5 1 .652-1.686-.428-3.985-.5-6h-3c-.24 1.542-1.176 3.093-1 5m196 1515c2.254-.126 5.029.292 7-.5-1.951-2.448-4.495-2.509-7-3.5zm78-120.75c.938 1.164.643 2.977 1.082 3.739 3.302 1.941 8.294 6.441 11.918 5.511l-2-2c1.278-.497 2.648-.503 4-.5v-2c-5.221-.235-10.242-4.727-15-5z" style="fill:#f1d3a5;fill-rule:evenodd;stroke:none"/><path d="M1560 1179h2v-145h132.6c5.33-.616 13.51 1.116 17.4-1.5-50.468-1.426-101.435.26-152-.5z" style="fill:#7f6e55;fill-rule:evenodd;stroke:none"/><path d="M1011 1120.375c2.608 3.093 4.219 7.715 6.5 10.625 40.998-18.292 83.745-34.028 123.04-56.19 38.963-20.06 77.198-42.008 113.96-65.81 1.827 4.489 2.338 9.615 4.123 14.174 1.697 3.09 1.72 9.914 5.388 10.374 30.945 1.29 62.102-.235 93.092.452H1409v144h-318c3.302 8.832 4.751 20.197 8.42 27.16 10.377 2.002 21.415-.042 31.935.84H1409v323h-369c.84 9.934 6.406 19.009 7 29h874.8c11.477-.246 25.501-.139 35.385-4.309 4.874-1.694 7.993-5.95 9.318-10.91-.438-4.31-7.453-7.942-9.896-10.911-28.95-25.306-59.57-48.586-89.954-72.092-11.361-9.02-23.235-17.394-34.35-26.712-4.679-3.59-10.72-10.421-14.618-4.555-14.184 18.7-28.795 37.08-42.923 55.814-10.86 13.767-20.944 28.12-32.098 41.644-4.33 5.031-14.488 2.041-21.416 3.031H1562v-323h321c12.121.426 29.66-.355 35-15.5-20.484-20.15-44.284-36.54-66.057-55.192-11.19-9.206-22.455-18.303-33.857-27.234-11.762-7.947-21.699-19.2-34.086-26.074-4.789 9.086-13.107 16.538-18.53 25.366-11.064 14.555-21.98 29.216-33.197 43.652-4.218 5.467-8.213 11.101-12.484 16.528-3.573 4.385-6.757 11.173-13.874 10.446-48.317.022-96.608-.003-144.915.008v-145c53.374-1.087 106.914 1.326 160.225-.716 5.803-.988 11.322-4.311 14.44-9.357 3.855-4.888-.588-8.974-4.694-11.948-26.84-22.71-54.575-44.372-82.184-66.142-10.03-8.86-23.407-17.37-32.287-25.837-18.446 23.32-36.985 46.593-55.256 70.055-3.475 4.476-6.98 8.932-10.6 13.292-4.013 4.166-11.771 2.013-16.937 2.653H1262.5l-1.5-.5c55.998-36.655 108.986-78.222 158.37-123.37 24.812-23.555 49.417-47.34 71.5-73.5 21.603-25.066 42.248-51.454 59.63-79.63 25.497 79.713 69.43 153.72 128.37 213.37 56.598 61.041 127.565 106.602 198.63 148.63 6.444-32.958 19.986-64.716 39.988-91.807 19.918-25.707 45.605-49.809 78.512-57.193-.138-5.687.336-11.362 1-17-81.606-15.26-161.608-39.473-238.715-70.083-73.138-30.48-143.75-73.305-192.285-137.417 20.59-3.371 48.592-4.163 55-25.5-72.022-18.147-143.683-38.293-215.688-56.375-4.024-.728-4.641 3.813-5.601 6.879-13.111 51.232-39.751 97.297-66.991 141.959-41.677 65.615-90.82 126.39-144.322 182.64-53.84 56.75-112.727 109.707-177.398 153.897zm9 997.875c3.118 8.651 7.02 19.482 9 27.75h149c-.78 85.674-7.02 172.203-31.781 254.713-11.826 37.792-27.817 74.28-48.686 107.97-10.87 16.252-21.471 32.777-34.703 47.301-11.976 15.869-28.467 28.174-40.83 43.516 2.457 2.27 4.287 5.033 6.5 7.5 43.762-17.892 86.836-39.201 123.975-68.975 56.347-43.868 99.242-103.85 125-170.196 14.278-34.526 23.087-71.117 28.614-107.952 6.173-37.638 9.196-75.767 9.911-113.877h82v460c21.19-.093 42.717.666 63.461-4.414 14.44-3.163 28.4-8.125 41.82-14.255 9.56-4.352 20.62-9.991 28.23-15.985 9.067-5.738 8.006-14.87 7.489-23.583V2146h66c6.046 67.454 15.64 135.067 34.884 200.155 13.436 46.016 35.023 89.432 62.092 128.819 42.25 58.815 105.06 102.233 173.72 124.759 18.85 6.051 39.105 8.668 58.826 5.213 26.906-3.562 51.103-27.662 51.394-55.5-.547-13.912-5.933-27.144-12.812-39.025-3.039-5.726-6.802-11-10.585-16.224-3.85-4.95-9.375-10.21-8.518-18.13.734-38.727 4.6-77.332 4.999-116.067-3.375.041-6.692-.405-10-1-3.655 15.543-10.199 30.157-15.246 45.227-4.662 12.552-9.513 25.074-15.425 37.094-2.631 5.271-5.372 11.981-9.816 15.38-11.22 6.789-23.852-2.188-33.265-5.384-35.307-15.304-63.004-44.152-83.162-76.278-19.437-32.794-33.824-69.908-41.586-107.039 22.945 19.71 44.317 41.283 62.62 65.427 7.17 8.787 13.123 18.49 19.396 27.905 2.22 4.273 4.476 8.519 6.923 12.653 2.418 3.877 3.732 9.543 6.974 12.381 16.382 8.15 36.522 9.855 53.619 2.98 25.683-10.005 36.787-40.213 30.863-65.521-6.435-24.696-25.566-45.216-48.306-56.03-5.95-3.057-11.946-6.105-18.313-8.197-5.759-2.901-14.79-4.222-19.276-7.098 17.48-10.276 35.544-19.916 52.893-30.5 4.67-2.71 9.134-5.7 13.763-8.452 6.896-5.265 15.854-1.819 24.015-3.021 7.689-.452 16.848-5.625 18.329-12.527a8588 8588 0 0 1-132.5-70c-5.962 27.001-11.523 54.282-18.528 81.078-1.597 6.893-3.625 13.645-5.364 20.495-1.293 5.114-2.397 10.355-4.553 15.165-7.81 2.396-15.833-.898-24.07.278-8.015.15-15.985.693-23.985.984-1.424-14.194-4.906-28.184-5.948-42.45-.72-7.451-1.692-14.872-2.298-22.332-.948-6.975-.162-15.45-1.754-21.718 12.824-5.992 32.354-5.262 39-19.5-20.28-13.01-42.773-31.48-60.961-44.228-20.13-14.984-40.663-29.479-60.539-44.772-14.615 17.475-30.974 33.395-45.754 50.723-4.248 3.949-7.715 8.592-11.728 12.732-5.982 5.766-18.22 2.505-27.162 3.545H1539v-294c7.61-.72 16.548-3.671 22.571-7.204 7.417-4.51 8.951-11.323 11.429-18.296-28.745-4.246-58.135-4.908-86.997-8.6-29.357-2.263-58.643-5.793-88.003-7.9-.757 23.27.924 46.805-.5 70-40.943-24.012-82.353-47.441-123.567-71-35.676 45.05-77.165 85.448-121.91 121.474-21.6 18.242-44.604 34.695-67.692 50.952-11.53 7.719-22.997 15.571-34.92 22.648-5.836 3.813-11.858 7.299-17.932 10.718-2.789 2.102-7.04 3.489-8.782 5.93-.82 3.267 1.92 7.124 2.303 10.278 51.574-10.424 102.62-23.832 153-39v154h-158zm62-385.75c2.949 9.465 6.038 19.024 9 28.5h493.8c4.83.119 9.855-.36 14.552.724 2.888 2.716 1.077 9.89 2.463 13.246 9.22 67.543 22.582 136.324 54.362 197.396 22.386 44.108 53.774 84.058 93.852 113.37 29.229 22.257 62.62 38.166 96.785 51.199 27.445 9.522 57.88 16.684 86.885 9.458 20.366-3.926 37.796-20.052 44.228-39.672 2.605-7.744 2.29-17.543 1.788-24.906-2.258-13.494-11.148-27.429-18.369-37.327-4.902-7.433-16.011-15.065-14.384-25.454.313-34.046 3.844-67.99 4.038-102.034-3.299-.85-6.64-1.464-10-2-7.935 28.806-19.342 56.673-33.185 83.124-2.84 4.694-7.313 10.026-12.239 10.624-10.746 1.212-20.809-3.95-30.7-7.29-67.786-25.735-110.58-94.942-123.376-163.458 25.647 18.52 47.746 41.637 66.955 66.666 6.86 8.826 14.14 19.753 18.939 28.824 2.976 4.377 4.772 9.406 7.161 14.063 2.823 2.944 8.268 4.251 12.854 5.53 9.38 2.135 21.1 2.56 29.797 1.098 15.446-3.799 30.015-13.827 36.95-28.5 12.776-22.194 5.845-50.55-11.216-68.119-16.034-18.144-39.487-26.354-62.044-32.544a3.7 3.7 0 0 0-.896-.518c17.592-7.317 36.08-12.574 53.723-19.788 4.334-1.884 8.74-3.61 13.016-5.595 5.785-2.838 14.52.567 21.945-.12 7.08.393 14.404-2.917 18.316-8.997-37.715-28.486-77.653-54.594-115.5-83-13.31 37.764-27.565 75.657-44.5 112-16.74-.14-33.337 1.96-50 3-.513-8.302-2.95-16.439-3.612-24.745-1.923-8.202-1.705-18.26-3.388-25.755 10.705-5.332 28.805-3.751 38-17-40.03-29.328-81.138-57.721-121.5-86.5-15.62 15.655-29.671 32.734-45.223 48.445-3.085 3.911-6.548 7.496-10.147 10.925-6.198 6.964-19.685 3.84-29.584 4.63H1082zm101-485.113c12.52 36.968 22.168 75.117 27.244 113.9 5.27 30.806 5.596 62.228 4.319 93.333 13.157 15.479 34.56 29.007 52.867 32.799 31.91 7.606 67.015-9.523 82.822-37.749 17.3-28.689 14.374-66-1.131-94.679-7.395-14.172-17.338-26.932-28.723-38.093-33.747-35.644-79.947-56.432-125.496-72.22-4.018-1.304-8.905 1.531-11.902 2.322zm67 690.988c16.198 2.711 33.484 3.017 49.928 5.006 17.005 1.72 34.018 3.553 51.072 4.619-.45 16.974-15.563 25.076-30.254 26.856-6.29.443-4.598 10.057-4.746 14.305V2118h82v-233c-7.38-.008-14.729-.383-22.078-.988-11.055-2.473-22.022 7.486-31.362 11.718-30.803 15.607-62.089 30.943-94.56 42.645M1612.5 1494c41.716-28.179 81.074-60.519 118.37-94.37 19.648-17.083 37.87-35.766 56.226-54.237 4.298-4.881 8.399-9.916 13.274-14.263 3.25-2.945 6.37-7.836 11.982-8.06 13.016.728 30.348-3.021 36.648-19.132-60.94-25.44-126.06-43.362-187.5-67.938-9.143 44.595-19.272 89.198-29.707 133.54-5.121 22.187-10.28 44.348-15.796 66.437-2.99 10.798-5.588 21.69-8.831 32.412-1.39 5.302-3.217 10.502-4.189 15.91-1.22 2.426 1.453 3.819 3.338 5.25 2.092 1.44 4.283 2.77 6.185 4.451" style="fill:#000;fill-rule:evenodd;stroke:none"/></svg>