<svg xmlns="http://www.w3.org/2000/svg" width="3000" height="3000"><path d="M363 2763h2274c-116.777-706.336-235.544-1412.426-352.792-2118.701-7.351-44.171-14.733-88.332-22.082-132.49-.76-5.347-1.88-10.63-2.64-15.97-.062-6.502-4.856-8.386-10.16-9.572-81.497-27.15-162.975-54.317-244.46-81.467-142.336-47.478-284.708-94.881-427.04-142.357-13.532-4.49-27.037-9.017-40.56-13.514-6.477-2.17-12.972-4.309-19.44-6.486-6.235-1.594-13.427-5.493-19.495-5.034-100.387 32.434-200.209 66.92-300.466 99.791-150.35 50.002-300.828 99.614-451.039 150.05-5.982 1.452-6.275 6.662-6.798 11.742-24.43 146.388-48.84 292.799-73.214 439.189C565.92 1546.494 463.462 2154.662 363 2763m647-452.375c2.642 2.139 5.436 5.412 8.5 6.375 21.367-16.193 44.225-30.567 64.312-48.48 10.472-9.013 21.08-17.828 31.286-27.135 4.903-4.854 9.748-9.757 14.635-14.618 4.778-3.755 9.997-11.853 15.267-12.767-.222 58.6-.671 117.464-8.342 175.662-1.492 13.826-4.087 27.522-7.579 40.968-2.394 10.054-5.869 19.906-11.001 28.908-9.794 15.31-29.974 11.262-43.854 11.243-15.67-2.075-31.648-2.05-47.224-4.781.234 5.283-1.69 12.19 5.357 13.948 5.27 1.623 10.426 3.582 15.15 6.45 8.573 5.5 15.618 13.064 22.62 20.377 9.403 12.717 10.677 29.347 12.734 44.437 1.236 16.572 2.25 33.157 2.139 49.788 23.578-.972 47.517-2.297 70.181-9.563 15.737-4.442 30.103-12.387 42.144-23.39 8.56-8.092 15.492-20.416 20.558-29.787 18.634-34.466 26.763-73.168 32.644-111.489 9.592-65.92 12.437-132.696 11.194-199.262-1.256-49.81-3.023-99.656-9.07-149.153-7.179-70.334-20.716-140.898-51.1-205.242-5.906-9.18 2.818-15.467 7.535-21.724 18.428-23.057 36.29-46.602 52.746-71.114 8.154-11.63 16.048-23.402 23.534-35.462 2.333-3.323 6.547-2.471 10.078-2.711 11.206.394 24.226-3.316 28.556-14.103-25.97-9.744-49.709-24.931-75.456-35.266-24.867-11.312-49.077-25.003-74.544-34.734-7.5 38.67-22.456 75.495-34 113-4.558-1.038-7.95-7.64-12.17-10.986-25.62-29.747-56.443-54.144-87.33-78.014-2.47 2.13-5.926 5.168-8.5 6 1.355 7.242 7.96 12.396 10.722 19.057 15.42 24.318 28.442 49.95 40.175 76.2 8.125 20.204 16.696 40.262 22.542 61.286 3.37 7.814-2.339 16.822-5.343 23.724-23.716 50.836-49.498 101.099-83.096 146.233 2.49 2.893 4.612 6.152 7.688 8.5 18.531-11.533 36.204-24.794 53.384-38.314 8.658-7.288 17.184-14.74 25.884-21.974 9.306-5.894 15.036-17.591 25.044-20.712 1.295 17.034 6.56 33.813 5.92 51.02-7.262 58.057-23.578 114.866-44.826 169.255-10.307 26.94-22.757 52.944-36.03 78.51-12.805 24.038-27.77 47.578-43.064 69.84M1156 1106h251v25c27.677.462 55.3-4.632 80.505-16.288 5.518-3.32 13.806-5.67 15.13-11.849 1.04-22.675-.189-45.494.365-68.193V929c10.239-.941 19.947-6.288 27-13.5-29.055-21.844-58.153-44.173-87.5-65.5l-29.602 29.602c-5.317 4.288-10.176 11.737-15.52 13.926-7.378 1.1-14.965.002-22.378.472v-66c8.496-.296 14.878-7.397 18-14.5-32.115-4.912-65.48-5.462-97.5-10.5-1.426 30.207.26 60.729-.5 91h-29v-66c7.391-.318 16.938-5.75 17-15-31.98-3.784-64.727-5.587-96.5-10-1.426 30.207.26 60.729-.5 91h-30v-97h331.2c12.518-.02 29.728 2.413 36.8-14.5-32.108-29.5-67.228-55.621-101.5-82.5-10.156 13.17-20.659 26.108-30.885 39.218-5.032 6.742-10.473 13.198-15.502 19.93-2.65 3.162-5.04 6.52-7.833 9.56-2.92 3.11-8.408 2.086-12.28 2.292v-89c9.15-2.133 19.515-3.631 26.264-10.987 2.438-3.31 6.424-8.03 4.744-11.808-4.009-2.192-10.297-.659-14.612-1.835a866 866 0 0 0-22.052-1.741c-13.578-1.288-27.198-2.1-40.76-3.446-26.225-1.579-52.353-4.727-78.584-6.183v125h-48c-11.495.67-22.063-4.287-32.539-8.328-31.361-10.47-61.876-24.031-93.461-33.672-.221 116.739.298 233.483-.231 350.215-.784 86.29.75 172.73-5.077 258.872-4.522 59.666-11.372 119.699-29.25 177.075-2.977 10.536-6.61 20.842-10.277 31.144-1.808 4.8 4.222 6.918 7.565 9.198 4.283.206 7.628-6.846 10.872-8.606 53.669-53.911 86.358-125.282 103.552-198.55 8.813-38.637 14.15-78.046 17.362-117.51a2735 2735 0 0 0 2.867-62.22c.856-20.865.225-41.794 1.617-62.618m-41 340.25c22.361 40.086 45.38 80.281 67 120.75 8.693-.918 16.722-11.067 19.822-16.7 5.03-15.246 20.126-23.09 29.68-35.119 16.447-17.01 33.538-33.393 50.082-50.293 8.137-8.649 16.038-17.461 24.151-26.123 4.312-3.902 7.809-8.508 11.74-12.74 4.135-3.565 7.38-10.524 12.525-11.025-.005 16.13-.252 32.326 1.28 48.398 1.52 18.517 7.277 43.642 31.6 50.242 22.963 6.38 47.144 3.793 70.63 4.36 16.768.133 33.574-.95 50.001-4.405 19.832-3.682 46.89-14.587 52.016-41.209 1.913-11.938-.067-25.597-9.639-33.983-3.817-3.691-9.444-6.554-13.692-8.83-6.524-2.285-5.217-9.77-5.76-15.378-.84-16.397-1.301-32.815-2.436-49.195-3.746-.004-8.594-.665-10.363 3.696-1.706 3.637-2.793 7.53-4.386 11.213-3.458 9.3-6.9 18.606-10.54 27.82-2.807 7.064-6.674 15.593-12.267 20.038-6.517 4.62-15.182 2.837-22.591 3.233-6.385-.595-15.198 1.447-19.642-2.62-3.96-3.98-2.892-11.361-3.211-16.396V1284c20.562-4.839 41.327-8.976 61.736-14.445 10.273-1.504 21.79-7.664 31.423-7.11 9.642 1.833 23.646 5.746 28.841-3.945-27.305-22.96-54.12-46.675-81.5-69.5-5.853 8.408-12.952 16.08-19.193 24.223-3.515 4.164-6.782 8.484-10.347 12.59-3.18 3.346-6.87 9.675-10.96 10.187v-68c11.463-1.913 27.738-7.963 30-24-40.434-2.206-80.558-8.94-121-11v116h-3c-9.31-14.273-24.113-29.276-34.5-41-4.012 4.46-6.448 11.318-9.656 15.74-2.343 5.298-7.527 11.643-8.844 16.26h-3v-58.8c.088-4.904-.23-9.88.425-14.737.837-2.967 6.406-2.54 8.534-3.705 10.28-2.33 14.62-9.974 18.041-18.258-39.324-3.318-78.6-8.842-118-11.5v301c-21.678 3.746-43.155 9.255-65 12zm41-366.25h30V921h-30zm110 0h29V921h-29zm5 334c17.833-2.168 35.008-8.268 52.699-11.276 1.837-.53 4.99-1.044 5.706-2.649 1.664-16.702-.276-33.744.595-50.51V1287h-59zm12 1158c15.385-.24 31.043 1.024 46.188-2.351 20.308-4.227 39.846-12.623 55.761-26.178 10.383-8.195 8.288-19.717 8.051-31.401V2477h33v51c15.652.558 31.26.085 46.546-3.471 11.108-2.601 21.987-6.113 32.63-10.188 7.606-3.166 15.649-5.822 22.347-10.8 5.198-4.18 2.9-13.168 3.477-18.889V2222c4.785-.997 11.1-3.302 14.794-4.922 4.334-1.798 8.762-5.906 13.206-6.078v274c27.81.885 56.814-2.867 80.638-18.443 5.922-3.377 11.747-7.173 15.74-12.88 3.324-4.813 2.617-10.94 2.622-16.431V1911h32v695c34.403.809 70.63-.482 101.034-18.73 6.479-4.376 16.042-9.048 17.63-16.192.96-28.088-.175-56.263.336-84.375V2372c9.138.416 14.66 11.735 18.187 18.415 11.36 28.273 8.839 59.876 9.813 89.585 29.783-1.696 65.701-10.745 86.66-29.372 23.056-22.864 26.385-57.745 27.334-88.403.017-146.415-.003-292.814.006-439.225 10.733-2.13 20.902-7.037 29-14.5v-1.5c-29.426-19.834-56.923-43.587-85.961-64.228-3.65-2.537-7.056-5.425-10.733-7.901-3.352-2.863-7.134 1.13-9.359 3.963-8.85 10.753-18.493 20.844-27.3 31.631-4.855 4.417-9.017 12.85-14.81 14.172-7.556.89-15.257-.043-22.837.363v-124h144.6c13.521-.088 32.85.3 36.905-14.111-4.513-7.705-15.506-14.261-21.697-20.725-22.596-19.33-45.519-38.319-69.133-56.402-6.61-4.53-13.441-11.37-19.987-14.762-19.28 26.614-41.296 51.89-59.688 79h-286c2.546 8.113 4.816 19.952 8.296 26.096 10.183 2.105 21.061.004 31.395.904H1690v124c-12.525.006-25.648 1.466-37.115-4.417-30.982-13.424-62.67-25.639-93.385-39.583-1.426 121.539.26 243.402-.5 365-5.024-.276-9.266-5.176-12.978-7.47-27.341-19.941-54.109-40.723-81.522-60.53-9.736 11.06-20.311 21.32-30.733 31.733-5.381 4.933-10.96 11.657-16.374 15.63-7.99 1.329-16.324.158-24.393.637v-119h33v25c15.781.13 31.761.052 47.171-3.823 11.009-2.722 22.065-5.566 32.578-9.878 7.468-2.662 14.932-5.552 21.675-9.792 5.368-4.023 2.96-13.178 3.576-18.854V1841c10.356-1.557 20.49-6.127 28-13.5-16.074-11.273-31.448-23.864-47.549-35.17-7.98-6.016-15.998-11.951-23.968-17.97-7.767-4.77-15.45-12.981-23.14-16.36-8.543 8.973-17.569 17.505-26.213 26.37-3.787 3.918-7.835 7.596-11.397 11.72-2.744 3.432-6.608 8.59-11.797 8.822-8.669-.193-21.404 2.274-28.44-6.128.073-3.635 6.448-6.004 7.98-8.767 23.027-20.177 44.353-42.112 65.247-64.462 4.879-5.996 10.408-11.425 15.09-17.58 3.753-4.294 7.177-8.84 10.82-13.216 4.76-5.357 15.98-3.454 23.006-8.611 6.93-3.408 13.882-9.847 14.361-18.148-53.14-4.25-105.901-13.273-159-18-2.732 45.01-5.208 90.201-11 135-6.35-.53-12.91-4.836-18.33-6.653-17.437-6.4-34.094-15.555-51.67-21.347zm92-1492h32V921h-32zm18 960h33v-209h-33zm0 410h33v-238h-33zm61-857c58.06-14.869 113.3-41.485 163.454-73.98 25.259-15.518 48.471-34.173 71.139-53.152 11.232-10.159 22.067-20.73 32.652-31.576 2.739-3.145 6.554-3.14 10.33-2.443 10.4.46 24.897-1.806 28.425-12.849-48.569-23.376-95.009-52.681-144-75-16.058 48.584-43.11 93.175-71.788 135.234-14.66 20.82-30.465 40.978-47.687 59.74-9.025 9.222-18.045 18.467-27.415 27.349-4.838 4.326-10.005 8.234-14.803 12.601-2.004 1.874-5.257 3.826-4.736 6.37 1.513 2.383 3.666 5.549 4.429 7.706m21-288.75c2.317 4.456 3.074 11.572 5.283 17.17.739 4.388 1.859 9.273 8.106 8.555 14.605.07 29.195-.012 43.788.025h299.854c50.158-.323 100.35.394 150.489-.213 5.68-.694 12.03-4.272 15.115-8.53 3.95-5.422-.171-9.57-3.22-13.004-21.32-25.619-45.287-48.776-68.915-72.253-9.689 12.089-15.426 27.276-25.5 39h-2V835h44.4c10.877-.347 21.784.48 32.625-.4 6.461-.557 15.075-2.097 19.247-9.467 3.505-6.094-1.422-9.74-4.806-14.077-10.261-12.328-21.414-23.895-32.441-35.531L1926.5 745c-9.397 13.14-16.905 28.079-26.5 41h-2V685c6.955-1.633 15.429-3.513 20.923-7.331 6.934-3.812 8.558-9.927 11.077-16.169-6.332-2.086-13.407-1.541-19.981-2.46-46.337-4.13-92.675-8.039-139.019-12.04v161h-80V685c7.075-.981 14.38-2.15 20.58-5.945 7.514-4.19 9.787-10.633 12.42-17.555-6.316-2.07-13.346-1.489-19.889-2.503-45.706-3.913-91.4-8.13-137.111-11.997v161c-26.264.76-52.81-.926-79 .5 3.607 8.357 4.897 17.919 8 26.5h71v469h-92zM1691 966h80V849c-.536-4.916 1.005-11.326-1.5-15-12.835 1.77-25.888.563-38.787 1H1691zm0 167h39.6c12.545.63 27.496-.963 38.9 1 2.788-4.203.707-11.596 1.5-17.16V992h-80zm0 171h80v-144h-80zm63 60.25c39.046 51.826 77.26 106.519 99.68 168.296 2.874 8.337 5.935 16.586 8.235 25.105.868 3.537 2.117 7.88 4.745 10.144 10.476 7.47 25.021 13.168 36.663 14.978 21.293 2.1 43.532-5.637 57.49-22.341 13.735-16.222 18.887-38.813 15.032-59.563-8.426-44.182-42.998-78.03-81.151-98.473-39.289-22.382-84.02-33.429-128.142-41.21-2.318-.45-4.691-.853-7.03-.61-1.53 1.299-4.135 2.55-5.522 3.424zm55 988.75h16.2c6.771.419 15.888-.107 16.495-9.815.666-7.773.046-15.637.305-23.41V1911h-33z" style="fill:#fda;fill-rule:evenodd;stroke:none"/><path d="M244 2863.5c418.26 1.426 837.325-.26 1255.75.5 418.681-.76 837.643.926 1256.25-.5-137.483-816.352-271.828-1633.965-409-2450.5-141.513-45.746-282.358-94.352-423.703-140.74-105.839-35.248-211.646-70.575-317.47-105.817l-60-20a8496 8496 0 0 1-28.008-9.343c-4.68-1.543-9.347-3.083-13.982-4.729-5.086-2.015-9.193.742-14.014 2.193-139.528 46.49-279.049 93.006-418.557 139.507C931.703 319.858 792.72 367.853 653 413c-137.126 816.275-271.612 1634.71-409 2450.5m120-103v1.5h2272v-1.5c-68.931-409.09-136.257-818.54-204.874-1227.691-51.028-306.678-102.288-613.313-153.312-919.99-4.869-28.835-9.565-57.678-14.432-86.51-1.133-7.012-2.351-14.007-3.495-21.008-1.484-6.504-.056-15.285-8.94-17.157-109.703-36.573-219.416-73.135-329.12-109.701-96.009-31.978-191.992-64.023-288-96-41.971-14.027-84.002-27.963-125.969-41.994-9.552-4.304-21.398 2.4-30.56 4.946-155.047 51.948-310.255 103.285-465.433 154.805-58.187 19.4-116.394 38.801-174.566 58.195-25.476 8.525-51.019 16.959-76.48 25.505-5.454 2.642-13.186 3.29-17.14 6.618-2.1 1.795-1.737 5.77-2.555 8.884-62.19 372.917-124.31 745.877-186.485 1118.792C490.857 1998.664 428.048 2380.37 364 2760.5" style="fill:gray;fill-rule:evenodd;stroke:none"/><path d="M1008 2310.375c2.618 3.412 6.475 5.644 9.5 8.625 45.177-30.185 87.319-64.843 125-104 1.2 58.117-1.128 116.952-7.97 174.753-1.506 13.844-4.251 27.498-7.709 40.96-2.52 9.995-6.043 19.856-11.307 28.742-9.033 13.52-30.44 11.056-44.144 10.08-15.45-1.521-30.97-2.594-46.37-4.535.16 3.825-.295 8.375.404 11.832-.189 2.821 4.445 3.66 6.3 4.574a59.6 59.6 0 0 1 20.625 10.845c6.404 6.001 15.52 14.287 19.126 20.66 6.66 12.663 8.441 29.754 9.63 42.569 1.357 15.467 1.753 31 1.915 46.52 23.774-.638 47.814-2.183 70.731-9.087 15.632-4.494 30.323-11.837 42.398-22.821 8.875-7.983 14.968-18.61 20.774-28.871 18.757-34.292 27.386-72.684 33.209-110.963 10.144-66.074 12.518-133.046 11.725-199.798-1.49-50.027-2.824-100.149-8.85-149.882-7.01-70.776-20.553-141.671-50.52-206.628-6.69-9.31 1.936-15.66 7.17-22.24 18.264-23.036 36.197-46.389 52.472-70.884a715 715 0 0 0 23.456-35.354c2.435-2.555 6.563-1.933 9.814-2.294 5.786-.386 11.914-.194 17.175-3.057 4.161-2.567 9.36-6.69 12.446-11.121-2.158-2.813-5.985-3.477-8.968-5.057-47.311-22.862-94.874-45.1-142.19-67.943-3.043 3.047-2.649 9.56-4.707 14.02-9.012 33.755-19.799 67.17-31.635 99.98-15.296-19.063-33.86-35.144-51.29-52.136-9.422-7.676-18.459-15.795-28.178-23.099-4.956-3.446-9.453-7.517-14.386-10.979-4.608-4.39-10.672 1.445-14.646 4.714 15.452 27.393 33.672 53.59 45.927 82.815 10.197 21.667 18.892 44.046 26.279 66.815 1.258 4.29 3.12 9.35 3.301 13.476-12.411 31.505-28.695 61.587-44.555 91.458-8.03 14.243-16.096 28.44-25.27 41.982-4.434 7.104-9.435 13.842-14.073 20.816-1.457 3.209-6.282 6.82-4.634 10.013 1.704 3.625 4.766 6.321 7.525 9.125 18.331-11.7 35.88-24.547 52.932-38.046 17.33-13.916 34.006-28.632 50.068-43.954 2.553 16.3 6.697 35.974 6.276 51.226-7.77 57.832-23.83 114.387-45.273 168.568-20.758 51.894-46.334 102.508-79.503 147.581m1-759.875c4.058 2.204 8.543 6.154 12.688 7.5 57.123-53.692 93.32-126.037 111.684-201.503 10.107-39.509 15.026-80.173 18.786-120.675 1.633-21.436 2.292-42.96 3.189-64.431.905-21.452.245-42.977 1.653-64.391h249v25c28.359.746 56.68-4.348 82.505-16.288 5.241-3.069 14.697-6.18 15.234-12.395.744-23.124-.135-46.303.261-69.445V930c10.81-.897 20.718-6.837 28-14.5-29.266-23.15-59.872-44.823-89.5-67.5l-29.233 29.233c-5.062 4.508-10.128 10.886-15.168 14.556-6.236 2.471-15.514.355-22.099 1.211v-64c8.911-.156 17.346-9.267 18-17-33.324-3.324-66.733-6.23-100-10v91h-27v-64c10.557-.327 16.588-7.94 18-17-33.324-3.324-66.733-6.23-100-10v91h-28v-95h333c7.98.03 16.333.701 23.847-2.624 4.979-2.187 11.076-7.625 10.337-13.987-31.215-30.874-68.05-55.411-101.684-83.389-10.396 12.865-20.504 25.983-30.825 38.906-5.147 6.649-10.368 13.235-15.528 19.868-4.587 6.43-9.537 14.783-19.147 13.226v-87c7.438-1.77 15.41-2.866 21.887-7.313 6.285-3.79 9.653-10.782 11.113-17.687-53.236-4.631-106.655-9.32-160-13v125h-48c-11.431.441-21.644-5.521-32.201-8.912-31.44-10.842-62.185-23.772-93.799-34.088-.01 142.24.212 284.482-.609 426.713.043 69.801-.684 139.612-6.76 209.166-5.745 63.459-16.226 128.31-39.631 187.621m172 17.5c9.147-.023 17.161-8.872 21.081-15.338 5.405-15.082 18.895-23.903 29.415-35.306 33.04-33.147 66.495-65.876 97.004-101.356 1.912 22.14-1.096 45.3 5.091 67.079 2.288 7.263 5.442 16.094 10.341 21.295 10.05 9.943 24.898 12.725 38.352 13.992 22.965 1.034 46.096.557 69.065.299 21.293-1.267 43.32-4.149 62.306-14.587 11.16-6.408 20.425-17.142 22.775-30.113 1.45-9.882 1.055-20.616-3.794-29.547-3.47-6.347-9.673-10.607-15.822-13.954-2.433-1.268-4.934-2.462-7.135-4.094-1.98-1.425-1.364-5.212-1.798-6.943-1.125-18.462-1.73-36.966-2.881-55.427-4.61-.066-10.919-1.073-12.823 4.65-1.78 4.532-3.352 9.161-5.157 13.683-3.395 8.781-6.56 17.643-10.094 26.361-3.003 6.942-6.183 14.48-12.654 18.916-6.697 3.599-14.763 1.945-21.995 2.39-6.508-.322-14.716 1.483-18.327-4.17-2.584-4.923-1.694-11.256-1.95-16.643V1285c20.722-4.837 41.621-9.07 62.183-14.559 9.778-1.431 22.849-8.136 31.175-6.557 10.213 2.419 24.562 4.503 29.642-5.384-27.681-23.988-55.723-47.629-83.5-71.5-12.598 16.307-25.846 32.152-39 48-1.417-21.842.25-44.086-.5-66 12.302-2.161 29.918-9.148 30-26-41.124-2.04-81.856-9.39-123-11v114.5l-.5 1.5c-4.88-7.653-12.64-15.424-17.788-21.956-2.964-3.813-6.342-7.233-9.644-10.74-2.868-3.078-6.47-8.396-10.068-9.304-5.408 11.188-12.58 22.021-18.5 33l-.5-1.733v-57.6c.505-4.422-.834-10.054 1.02-13.49 5.408-2.556 12.445-2.3 17.022-6.901 4.735-3.91 8.362-10.659 8.958-16.276-40.129-1.699-79.855-9.563-120-11v301c-21.675 3.745-43.158 9.256-65 12 .819 4.879 5.325 10.411 7.738 15.68 19.3 35.982 40.536 71.099 59.262 107.32m-24-489h28V922h-28zm110 0h27V922h-27zm5 334c17.847-3.326 35.398-8.225 53.173-11.889 5.107-.762 3.556-9.039 3.827-12.477V1288h-57zm10 1160c15.715-.375 31.678 1.085 47.181-2.13 20.54-4.086 40.21-12.556 56.383-26.045 10.636-8.468 8.912-19.871 8.436-31.156V2478h31v51c16.1.517 32.207.275 47.949-3.346 11.29-2.606 22.41-6.19 33.226-10.313 7.75-3.285 16.025-5.909 22.765-11.16 4.895-4.614 2.244-13.815 3.06-19.728V2223c8.602-2.246 17.693-4.865 24.5-11h1.5v274c28.454.93 58.226-2.396 82.638-18.443 6.006-3.492 12.047-7.322 15.993-13.256 3.21-5.156 2.236-11.514 2.369-17.254V1912h30v695c34.849.718 71.614-.067 102.544-18.436 6.32-4.323 16.231-8.942 18.12-16.486.96-28.687-.175-57.46.336-86.172V2373h1.5c15.099 10.831 20.288 30.231 21.97 47.744 2.281 20.005 2.697 40.138 2.53 60.256 30.12-1.021 66.433-10.53 87.865-28.692 23.628-22.327 26.973-57.363 28.12-87.887.043-146.805-.008-293.616.015-440.421 10.741-2.236 23.48-7.966 30-16-16.437-13.821-34.465-26.12-51.46-39.31-17.518-11.786-33.015-27.009-51.196-37.69-10.38 10.92-19.583 22.941-29.823 33.98-5.281 5.216-10.1 12.638-15.314 17.049-3.397 2.639-8.007 1.802-12.052 1.971H1810v-122h145.8c12.716-.322 31.16 1.165 37.2-16.602-36.713-31.903-74.045-64.01-113.5-92.398-19.64 26.891-41.796 52.579-60.5 80h-286v1.5c1.004 4.973 2.553 9.81 3.916 14.684 1.058 3.31 1.816 7.404 3.387 10.21.637 2.735 5.25 2.344 7.311 2.604 8.96.006 17.93-.001 26.884.002H1689v122c-12.548.633-25.3 1.044-36.624-5.037-31.629-12.385-62.507-27.392-94.376-38.963v365h-1.5c-29.993-23.836-61.827-45.387-92-69-9.975 10.935-20.207 21.58-30.87 31.87-5.432 4.987-10.17 10.74-15.834 15.456-2.757 2.248-7.708 1.501-11.637 1.674H1394v-117h31v25c16.275.155 32.734.218 48.66-3.694 11.176-2.772 22.41-5.634 33.09-10.007 7.574-2.817 15.385-5.594 22.131-10.146 4.73-4.064 2.547-13.174 3.119-19.7V1842c5.353-.646 11.382-2.925 15.836-4.943 4.565-2.672 11.59-6.01 12.164-11.057-32.81-21.335-62.876-48.297-95.5-70l-34.102 34.102c-5.527 4.757-9.566 14.46-18.824 13.894-8.397.448-17.752.468-24.574-5.496 24.926-20.737 47.03-44.431 69.602-67.602 11.533-11.388 20.799-24.777 31.616-36.776 7.022-3.65 15.916-2.549 22.855-7.728 7.166-3.47 11.844-10.356 13.927-17.863-2.82-1.995-6.645-1.35-9.89-2.02-50.773-5.096-101.284-13.078-152.11-17.511-2.732 45.01-5.208 90.201-11 135-23.744-8.41-46.19-20.794-70-29zm94-1494h30V922h-30zm18 960h31v-207h-31zm0 410h31v-236h-31zm60.5-854c57.777-17.113 113.878-41.167 163.954-74.98 25.259-15.518 48.471-34.173 71.139-53.152 11.236-10.156 22.063-20.733 32.654-31.574 2.803-3.167 6.692-2.683 10.563-2.318 11.086.872 23.407-2.544 29.19-12.976-46.828-28.147-97.328-51.326-145.143-78-3.635 3.903-4.543 11.701-7.418 17.171-17.495 43.114-40.996 83.588-67.866 121.498-13.36 19.1-28.18 37.123-43.473 54.683-16.256 16.662-32.613 33.486-51.1 47.648.97 3.88 5.072 7.989 7.5 12m547.5-279.5c-11.242-15.102-25.18-27.871-37.294-42.199-6.611-6.876-13.51-13.467-20.181-20.276l-10.127-10.127c-3.246-2.703-6.9-7.896-10.398-8.898-2.55 7.326-8.441 13.111-11.747 20.093-4.598 6.4-7.96 13.663-12.753 19.907-1.426-145.804.26-292.101-.5-438h44.4c11.05-.367 22.161.522 33.182-.465 6.412-.596 15.005-2.317 18.938-9.789 3.695-5.657.183-9.829-3.653-13.942-10.364-12.532-21.366-24.551-32.737-36.174L1926.5 743c-9.905 13.311-17.63 28.331-27 42-1.426-32.831.26-66.092-.5-99 13.196-2.685 30.14-6.995 32-26-53.594-5.089-107.336-9.552-161-14v161h-78V686c7.4-1.038 15.08-2.232 21.443-6.482 6.556-4.452 10.792-11.65 11.557-19.518-52.92-5.056-106.006-9.609-159-14v161h-79v1.5c2.87 9.098 5.3 18.366 8 27.5h71v467h-92c1.706 8.342 5.085 18.008 7.269 25.493 1.785 4.181 10.16 1.613 13.32 2.507h455.591c14.453-1.069 45.03 6.221 51.82-15.5M1692 965h78V849.8c-.499-4.855.97-11.174-1.5-14.8-12.392 2.416-25.346-.083-37.87 1H1692zm0 167h58.2c5.555.854 14.025-1.188 18.3 1 2.82-4.15.68-11.519 1.5-17.095V993h-78zm0 171h78v-142h-78zm60 61.625c21.304 28.099 43.316 56.358 60.654 87.287 13.843 23.34 26.403 47.575 36.43 72.803 3.729 9.38 7.784 20.55 10.514 29.406 1.552 4.415 2.285 10.22 5.06 13.648 26.384 21.774 68.302 22.227 93.204-2.156 25.313-24.897 25.382-66.507 8.472-95.921-17.271-35.654-51.154-59.03-85.456-76.214-36.496-16.873-75.8-26.952-115.314-33.689-5.87-1.974-9.432 1.107-13.564 4.211zM1810 2352c8.62-.617 22.14 1.721 28.104-3.31 5.01-7.56 1.747-19.751 2.896-28.117V1912h-31z" style="fill:#000;fill-rule:evenodd;stroke:none"/></svg>