<svg xmlns="http://www.w3.org/2000/svg" width="3000" height="3000"><path d="M363 2763h2274c-116.777-706.336-235.544-1412.426-352.792-2118.701-7.351-44.171-14.733-88.332-22.082-132.49-.76-5.347-1.88-10.63-2.64-15.97-.062-6.502-4.856-8.386-10.16-9.572-81.497-27.15-162.975-54.317-244.46-81.467-142.336-47.478-284.708-94.881-427.04-142.357-13.532-4.49-27.037-9.017-40.56-13.514-6.477-2.17-12.972-4.309-19.44-6.486-6.235-1.594-13.427-5.493-19.495-5.034-100.387 32.434-200.209 66.92-300.466 99.791-150.35 50.002-300.828 99.614-451.039 150.05-5.982 1.452-6.275 6.662-6.798 11.742-24.43 146.388-48.84 292.799-73.214 439.189C565.92 1546.494 463.462 2154.662 363 2763m655-615.358c1.074 2.302 3.053 4.985 4.5 7.358 38.246-12.382 77.358-23.958 114.651-39.465 55.379-22.009 109.193-48.197 159.154-80.785 24.575-16.033 48.418-33.205 71.178-51.733 11.499-9.207 22.645-18.873 33.643-28.657 5.068-5.62 10.82-10.489 16.475-15.467 5.224-3.963 10.75-12.83 16.399-13.893v133h-160c1.864 8.757 6.599 18.687 7 27h153v140c38.78 1.06 78.157-2.494 114.496-17.26 4.101-1.986 8.743-3.235 12.262-6.277 5.503-5.446 2.061-17.194 3.242-25.441V2085h145.2c12.285-.097 32.113 1.617 37.8-14.543-26.996-26.697-57.631-49.527-87-73.457-13.105 14.984-24.622 31.554-37.446 46.827-3.256 3.986-6.211 8.187-9.55 12.106-2.317 3.468-7.692 2.243-10.909 2.097-12.699-.087-25.399.016-38.095-.03v-102c12.307-.741 30.472-6.9 32-23-29.489-2.132-58.931-5.299-88.412-7.54-11.211-1.043-22.413-1.874-33.624-2.857-9.446-1.483-20.91-1.04-29.438-3.15-1.3-1.646-3.588-2.796-2.961-4.918 19.711-23.25 39.643-46.464 56.51-71.983 4.27-5.967 7.472-13.91 17.39-12.552H1594c29.489 63.546 70.106 122.135 116.735 174.235 47.385 52.172 106.244 93.786 169.765 123.765 5.362-31.246 17.847-61.556 39.637-85.194 10.544-11.928 22.23-22.89 34.979-32.386 6.302-4.864 12.714-9.594 19.473-13.803 2.843-2.155 6.718-3.339 8.759-6.43.763-3.995.635-8.222 1.652-12.187-68.288-8.913-137.115-19.837-201.838-44.535-31.082-11.272-61.319-25.065-89.93-41.64-13.89-8.218-27.695-16.754-40.205-27.012-6.391-5.172-12.913-10.257-18.76-16.046-4.93-6.177-14.129-11.714-15.267-18.767h276c11.62-.022 23.231.027 34.838-.014 8.725-.051 18.48-2.085 24.5-9.023 1.089-1.4 2.138-3.377 2.173-5.083-42.813-40.107-88.937-77.455-135.011-113.88-13.271 16.594-25.416 34.092-38.237 51.03-11.992 17.163-26.233 33.282-37.263 50.97h-221v-2c10.989-20.946 23.691-41.062 32.52-63.12 2.445-5.488 4.733-11.015 7.12-16.519 2.908-10.898 16.166-5.866 24.175-8.574 10.06-2.227 15.873-8.157 20.185-16.287-31.153-11.292-64.526-18.208-96.192-28.44-31.636-8.804-63.1-18.62-94.808-27.06-14.781 55.89-35.992 109.967-61 162-99.264.76-198.81-.926-298 .5 3.128 7.788 5.462 17.972 7 25.5h275c-.38 4.832-3.85 8.759-5.898 13.006-37.706 64.422-83.249 124.85-138.204 175.596-53.28 50.519-113.692 94.671-178.898 128.398zm3-557.142c1.012 2.273 4.585 3.283 6.5 5.5 63.292-46.463 113.165-110.171 148.06-180.19 36.991-74.478 56.383-156.147 66.4-238.344 8.202-72.228 9.802-145.01 10.795-217.63.685-75.94-.114-151.902.245-227.836h379v1.5c-3.24 7.142-9.87 12.218-14.023 18.8-8.945 11.013-17.67 22.202-26.602 33.216-3.792 4.954-7.877 9.64-11.79 14.49-3.897 6.551-9.821 6.697-16.328 5.994-100.685.76-201.655-.926-302.257.5 3.658 7.797 4.362 18.716 8.296 25.594 7.413 1.79 15.45.324 23.03.906H1429c-.309 26.947.267 53.813-2 81-10.592-.019-23.045-8.343-34.898-11.556-33.854-12.695-67.01-27.481-101.102-39.444v500c12.937-.334 28.262-.18 40-2 5.104 29.635 4.627 65.38 2.807 92.832-1.586 11.106-2.957 22.283-5.812 33.155-.918 4.625-2.49 9.09-3.45 13.69-.508 7.582 9.637 14.01 14.907 20.037 24.088 20.977 64.33 10.468 78.496-17.165 8.13-13.326 11.143-29.488 8.497-44.75-2.653-14.342-10.842-29.817-18.124-40.814-8.551-12.328-19.39-22.894-31.041-32.24-5.751-4.985-12.115-9.139-18.219-13.64-3.002-2.027-5.964-4.136-9.05-6.033-3.007-1.653-6.79-3.895-7.011-7.072 15.573-2.996 33.412-9.267 46.422-15.723 7.45-3.37 14.6-7.287 20.908-12.53 8.254-5.458 6.95-14.163 6.67-22.747h240c-1.043 39.471-3.67 79.225-10.053 118.206-2.013 8.806-3.665 18.252-9.47 25.555-10.049 10.577-29.607 6.172-42.128 7.239-7.334-.313-14.602-.333-21.894-.423-6.386-1.243-16.4.698-20.955-2.577-3.688 3.29-10.193.93-14.5 1 .472-7.267 5.808-14.436 4.985-23.346 1.142-28.892-20.911-53.076-43.007-68.34-11.136-7.437-23.303-13.23-35.698-18.196-6.322-2.751-12.893-4.863-19.421-7.01-6.354-1.902-13.342-5.3-19.216-1.893a11 11 0 0 0-3.643 2.285c16.323 24.805 26.557 59.39 29.566 86.263.32 6.259.591 12.526 1.183 18.753.252 5.814-1.63 11.755-.292 17.538 11.117 15.956 35.074 23.909 53.582 17.405 7.533-1.874 13.877-6.13 19.75-10.984 5.025-4.084 12.893-.07 18.22 1.383 20.421 6.644 44.384 20.19 54.077 38.351 10.333 20.87 9.218 49.145 9.914 69.791 42.86-.199 90.737-8.372 122.102-40.602 15.385-15.062 23.678-35.8 28.867-56.256 5.715-21.279 8.247-43.221 10.534-65.073 1.228-9.312 1.088-18.78 2.497-28.069h3c10.782 52.24 31.24 103.379 63.15 146.405 16.37 20.833 36.49 40.42 62.586 48.35 12.994 4.993 27.343 5.313 40.583 1.153 12.847-2.972 26.075-8.777 32.648-21.045 14.323-29.087 8.683-63.119 2.919-93.367-2.07-14.86-9.594-31.485-9.877-45.278.414-16.34 1.528-32.647 2.544-48.937 3.373-47.053 4.486-94.983 8.447-141.781-2.089-1.739-5.86-1.446-8-1.5-6.693 31.442-15.639 62.61-25.267 93.28a1120 1120 0 0 1-7.513 20.037c-2.495 5.762-5.805 13.384-14.222 11.223-9.745-6.765-13.027-22.622-17.555-32.685-7.97-24.505-12.36-50.028-16.036-75.472-13.29-89.805-14.562-180.672-16.38-271.229.71-46.903 1.18-93.85 3.861-140.684.759-22.39 2.874-44.683 4.386-67.016.704-5.097-.121-12.075 2.644-16.167 14.642-5.15 32.042-7.146 43.082-19.787-21.66-18.296-43.338-36.576-65.194-54.637-10.765-9.239-21.71-18.286-32.61-27.354-5.284-4.711-10.832-9.095-16.196-13.702-5.53-3.525-11.506-10.9-16.668-12.807-18.141 21.68-37.458 42.325-55.722 63.89-4.185 4.226-8.124 10.127-12.321 13.66-6.058 3.093-12.995.29-19.573 1.45h-423.847c-15.831.55-30.03-7.818-44.588-13.078-42.54-16.15-84.552-34.47-127.281-49.922v361.2c-.82 7.233 1.462 16.794-2 22.3 3.498 4.709.986 12.627 1.587 17.873-1.995 96.058-3.65 192.526-17.96 287.727-12.177 89.009-33.568 178.701-73.627 259.4m14 692c1.926 8.584 5.998 18.463 7 26.5h197c-1.111 62.42-15.298 127.128-52.788 178.234-17.353 24.941-39.89 45.912-64.249 63.847-11.923 8.84-24.637 16.506-37.396 24.035-6.574 3.604-13.113 7.274-19.86 10.538-6.53 4.372-16.039 6.55-20.707 11.346.867 2.278 3.25 3.887 4.588 5.536 2.866.053 5.704-.364 8.478-1.085 52.5-11.268 104.649-26.392 153.117-49.723 46.33-22.683 89.858-53.235 120.09-95.628 30.615-42.306 46.313-95.116 47.727-147.1h224v296c42.629.237 86.832-2.862 126.34-20.658 8.685-3.213 20.24-8.75 18.66-20.754V2309h175.2c14.645-.452 38.55 4.273 46.8-14.656-39.299-35.438-80.57-69.215-122.5-101.344-14.423 18.272-28.474 36.893-42.546 55.433-7.093 9.284-14.293 18.492-21.378 27.772-3.916 6.6-10.267 6.286-16.627 5.795H1747v-94c13.929-3.32 33.951-6.794 36-28-60.103-4.078-120.641-9.628-180.5-15-1.426 45.545.26 91.399-.5 137h-223v-92c7.252-1.718 15.252-2.458 21.376-7.197 5.26-4.63 8.887-11.067 10.624-17.803-28.602-1.404-57.071-5.352-85.61-7.57-28.73-3.307-57.757-4.593-86.39-8.43v133h-204zm238-933.5h-12c1.626 22.733-7.318 44.397-21.55 61.778-10.527 15.344-24.693 27.227-40.493 36.609-12.965 8.961-24.637 20.778-30.744 35.633-11.73 27.015 1.994 60.908 28.673 72.922 19.757 9.514 44.724 9.874 63.417-2.542 25.572-20.503 36.128-54.423 37.842-86.082 3.646-33.075-8.763-70.97-17.96-99.167-2.126-6.477-5.46-12.538-7.185-19.151m144-341h155v-51.6c-.644-5.354 1.139-12.357-1.5-16.4-12.745 2.074-25.838.259-38.662 1H1417zm0 95h155v-52.8c-.653-5.29 1.14-12.23-1.5-16.2-12.745 2.074-25.837.259-38.661 1H1417zm0 91h183c3.626-.19 8.14.509 10.642-1.555 8.29-7.548 14.032-17.563 21.73-25.659 3.424-4.51 7.13-8.781 10.73-13.14 3.036-4.159 8.351-8.653 8.898-13.646-12.902 2.284-25.169 8.072-38.426 9.01-6.93 1.136-13.937 1.38-20.936 1.541-6.854.071-13.89 1.107-20.638-.551v-20h-155zm0 88h219.6c3.446-.115 7.576.269 10.687-.466 5.042-1.711 9.109-8.526 13.32-11.63 7.918-6.687 15.104-14.14 22.604-21.276 6.106-4.886 11.204-10.89 16.9-16.212 1.923-1.673 4.129-4.083 7.08-4.916 7.86 3.327 15.562 12.62 22.803 17.269 3.697 3.068 7.552 5.94 11.209 9.04 3.635 2.887 7.64 7.151 11.797 7.191-1.331-13.658-3.206-27.284-4-41h-332zm82-369.5v1.5h57c12.022.883 13.002-11.034 21.954-15.845 6.336-5.518 11.18-12.56 17.507-18.129 2.637-2.393 4.501-6.252 6.928-8.406 5.657-3.33 9.736-8.474 14.205-13.101 2.468-.174 4.987 2.46 7.383 3.953 35.175 25.463 69.869 51.574 105.023 77.028-6.213 5.892-13.474 10.928-21.545 13.833-3.114 1.383-9.107 1.513-9.125 5.218-.941 31.86.171 63.865-.33 95.737v47.944c-.13 6.597 1.948 15.426-6.691 19.596-5.872 2.97-12.42 7.572-18.309 9.172.417 3.887 5.391 5.943 7.829 8.445 10.68 8.764 22.063 16.583 32.805 25.265 5.495 4.159 11.088 8.218 16.438 12.56 4.986 3.191 10.801 10.05 15.928 10.73-1.204-27.494-3.6-54.919-4.525-82.43-.67-14.122-1.113-28.22-1.64-42.34l-.505-21.463c-1.015-6.528 1.116-15.433-2.33-20.267 2.665-2.814 1.555-7.791 1.713-11.39-.643-15.334-.902-30.705-.713-46.043.401-5.645-.408-11.186-1.498-16.689.021-4.58 2.283-8.998 1.498-13.821-.401-16.644.968-36.382-1.701-51.431 2.313-16.918 1.656-34.052 1.701-51.126-27.365 3.092-55.043 1.575-82.57 2H1572c-21.082 28.482-48.819 53.92-73 79.5m23 414.875c15.432 15.005 27.148 33.518 36.092 53.018 3.141 7.947 5.686 16.179 7.405 24.54 1.576 6.63-.238 15.903 7.516 19.727 11.205 7.217 25.17 10.684 38.239 7.612 18.345-3.97 32.73-20.105 35.382-38.582 2.669-19.417-9.475-37.781-25.69-47.388-13.973-10.215-30.75-15.565-47.576-18.727-8.842-1.687-17.71-3.294-26.694-3.965-7.736-.852-16.341-2.162-23.927 3.226-.293.114-.524.339-.747.539M1641 733.5c6.453 7.465 17.691 12.942 24.261 19.186a13441 13441 0 0 1 37.256 27.954c6.299 4.493 12.343 9.352 18.334 14.243 5.582 3.762 12.161 11.815 18.149 12.117-.912-6.928 1.579-16.322-2-21.5 3.783-7.382.881-18.545 2.007-26.422.11-9.033.702-18.054.993-27.078h-99z" style="fill:#fda;fill-rule:evenodd;stroke:none"/><path d="M244 2863.5c418.26 1.426 837.325-.26 1255.75.5 418.681-.76 837.643.926 1256.25-.5-137.483-816.352-271.828-1633.965-409-2450.5-141.513-45.746-282.358-94.352-423.703-140.74-105.839-35.248-211.646-70.575-317.47-105.817l-60-20a8496 8496 0 0 1-28.008-9.343c-4.68-1.543-9.347-3.083-13.982-4.729-5.086-2.015-9.193.742-14.014 2.193-139.528 46.49-279.049 93.006-418.557 139.507C931.703 319.858 792.72 367.853 653 413c-137.126 816.275-271.612 1634.71-409 2450.5m120-103v1.5h2272v-1.5c-68.931-409.09-136.257-818.54-204.874-1227.691-51.028-306.678-102.288-613.313-153.312-919.99-4.869-28.835-9.565-57.678-14.432-86.51-1.133-7.012-2.351-14.007-3.495-21.008-1.484-6.504-.056-15.285-8.94-17.157-109.703-36.573-219.416-73.135-329.12-109.701-96.009-31.978-191.992-64.023-288-96-41.971-14.027-84.002-27.963-125.969-41.994-9.552-4.304-21.398 2.4-30.56 4.946-155.047 51.948-310.255 103.285-465.433 154.805-58.187 19.4-116.394 38.801-174.566 58.195-25.476 8.525-51.019 16.959-76.48 25.505-5.454 2.642-13.186 3.29-17.14 6.618-2.1 1.795-1.737 5.77-2.555 8.884-62.19 372.917-124.31 745.877-186.485 1118.792C490.857 1998.664 428.048 2380.37 364 2760.5" style="fill:gray;fill-rule:evenodd;stroke:none"/><path d="M1280 2084.5v1.5h153v140h2v-142h-117c-12.208-.848-26.933 1.181-38-1zm283.5 116.5c2.461-3.388.991-9.433 1.5-14.095V2086h159v-2h-161c.76 38.912-.926 78.215.5 117" style="fill:#40372b;fill-rule:evenodd;stroke:none"/><path d="M1033 2281.75c.263.9.826 1.619 1.5 2.25 3.223-1.773 8.48-.506 12.65-1H1240v-102c.63-10.633-.963-23.376 1-33h-3v133h-205zm713 1.25h18c5.376-.278 12.47 1.052 16-2.5.008-.795-.03-1.679-.5-2.5-3.448 3.964-10.17 2.875-14.77 3H1748v-92c1.094-.28 2.413-.477 2.75-2H1746z" style="fill:#7f6e55;fill-rule:evenodd;stroke:none"/><path d="M1112.5 1030c.774-2.946.559-7.612 0-10-2.352 2.598-3.363 6.942 0 10m316-163c.744-4.153.59-10.624 0-14-2.961 3.824-3.13 10.252 0 14m9.5 1053c2.578-.167 5.731.334 8-.5-1.503-1.388-3.119-3.573-5.062-4.002-2.22.397-3.06 2.527-2.938 4.502m111-462.625c1.57 1.227 5.3.398 7 .125-2.051-2.971-5.085-2.827-7-.125M1569.5 906c3.095-1.31 6.58-5.532 7.5-8-3.43.372-8.352 4.895-7.5 8m10.5 552.375c1.313 1.294 4.548.31 6 .125-.576-.726-.932-1.572-1-2.5-1.737.376-3.948 1.02-5 2.375M1598.5 876c2.763-1.046 5.864-4.757 6.5-7-3.137.42-7.508 3.894-6.5 7m139 79c.682-4.21.651-10.404 0-15-2.792 2.06-3.282 3.587-2.392 6.494.67 2.829.305 6.19 2.392 8.506m0-65c.72-5.597.613-12.915 0-18-3.467 4.72-3.003 14.384 0 18m1-100c.774-2.946.559-7.612 0-10-2.352 2.598-3.363 6.942 0 10m0 236c.775-2.33.559-6.127 0-8-3.138 2.279-2.666 5.77 0 8" style="fill:#f1d3a5;fill-rule:evenodd;stroke:none"/><path d="M1016 2147.304c1.504 2.73 4.002 6.214 5.652 8.204 3.673.03 7.058-1.876 10.603-2.573 66.54-19.631 131.738-44.308 193.58-75.863 59.267-30.46 114.917-68.118 165.19-111.886 13.586-12.526 29.432-27.246 41.475-39.186 1.426 43.497-.26 87.415.5 131h-160c1.202 8.059 4.916 17.223 6.791 24.427 1.476 4.423 7.656 3.498 11.382 3.573H1434v141c38.962 1.099 78.518-2.298 115.057-17.075 4.064-1.989 8.653-3.193 12.202-6.105 3.424-2.73 2.674-8.317 2.741-12.167V2085c54.466.3 109.068-.366 163.494.198 6.255-.329 12.814-2.06 16.86-7.249 1.615-1.923 3-4.302 3.154-6.86-.08-4.333-7.245-7.845-9.11-11.191-25.471-22.48-52.072-44.192-78.898-64.898-17.193 20.558-33 42.307-50 63-2.768-1.591-7.234-.646-10.848-1H1565v-100c13.75-1.045 30.146-6.682 33-25-52.995-3.691-106.086-9.874-159-13.5 21.736-22.216 40.184-47.42 58.363-72.517 4.428-5.94 8.922-15.315 16.115-14.964 26.515-.054 53.015.01 79.522-.019 29.829 63.918 70.594 123.151 117.87 175.37 47.555 52.356 106.89 93.662 170.63 123.63 4.94-32.095 18.085-62.85 40.285-86.984 10.831-12.16 22.8-23.32 35.993-32.85 6.314-4.84 12.783-9.46 19.517-13.676 2.65-1.67 7.109-3.6 7.44-7.422.525-4.012.534-8.083 1.265-12.068-67.944-8.881-136.428-19.724-200.882-44.166-30.953-11.194-61.099-24.78-89.605-41.232-27.611-16.423-54.813-35.178-75.513-60.102 92.31-1.426 184.973.26 277.343-.5 11.58-.053 23.144.065 34.708-.036 8.772-.216 18.79-2.675 24.21-10.256 3.308-4.37.93-7.76-2.887-10.188-42.51-38.525-86.834-74.994-131.874-110.52-13.73 16.39-25.514 34.356-38.636 51.222-12.155 17.471-26.654 33.798-37.864 51.778-72.929-.76-146.151.926-219-.5 12.044-21.049 23.94-42.276 33.431-64.663 2.385-5.685 4.854-11.327 7.286-16.987 1.847-5.484 7.707-5.076 12.156-4.851 13.966 1.118 26.652-6.952 32.127-19.499-63.993-20.025-129.468-36.607-193.5-56.5-15.418 56.035-36.016 110.756-61.5 163h-298v1.5c2.375 8.803 5.721 17.46 7 26.5h275v1.5c-19.723 32.311-39.29 65.202-62.744 95.126-35.882 45.765-76.286 87.885-120.778 125.28-43.765 35.518-90.721 67.563-140.478 94.094zm3-555.679c3.01 2.361 6.473 4.06 9.5 6.375 56.464-44.78 105.741-99.566 138.971-163.955 53.787-100.897 75.623-215.994 81.745-329.239 7.024-123.77 4.139-247.885 4.784-371.806 125.607.76 251.478-.926 377 .5-18.742 23.312-37.072 47.312-56.542 70.01-2.106 1.87-6.13 1.3-9.203 1.49H1260c1.876 8.794 4.546 17.593 7.313 26.145.113 2.702 4.268 2.788 6.111 2.835 7.574.057 15.138-.01 22.697.02H1428c-.42 25.546.003 55.64-2 79-6.269-.163-12.818-4.162-18.144-5.868C1368.394 892.253 1329.52 875.655 1290 861v503c6.725.068 13.418-.072 20.126-.367 6.293-1.212 14.428.82 19.374-1.633 5.271 17.77 3.963 37.02 4.5 55.32.493 16.662-.463 33.259-3.163 49.7-1.355 7.09-2.684 14.186-4.392 21.186-.839 5.589-4.575 12.894-2.873 17.256 6.186 9.339 16.423 18.37 25.5 23.048 19.041 8.954 42.53 3.911 58.089-9.441 11.685-10.007 18.19-24.884 20.765-39.723 4.193-22.851-8.813-48.537-20.378-64.879-13.577-18.166-31.566-32.25-50.01-45.116-4.185-3.152-9.764-5.912-13.538-8.851 15.607-4.617 31.943-8.312 46.422-16.223 7.45-3.37 14.6-7.287 20.908-12.53 8.254-5.458 6.95-14.163 6.67-22.747h238c-.117 20.847-2.116 41.654-3.443 62.428-1.182 15.122-2.657 30.225-5.008 45.21-1.531 10.173-4.158 22.204-8.702 30.557-4.084 8.273-12.555 9.95-20.837 10.68-25.513-.386-55.697.247-79.01-1.875 4.66-13.583 7.77-28.394 2.542-42.601-6.863-19.84-21.892-35.847-38.701-47.854-17.03-11.8-36.368-19.77-55.986-26.098-4.792-1.494-9.554-3.152-14.459-4.247-3.955-.717-8.295 2.462-12.396 4.3 16.208 26.094 26.545 56.115 30.416 86.594.578 6.134.55 12.307 1.206 18.428.193 5.788-1.23 11.565-.53 17.375.25 5.009 6.454 8.652 9.334 11.05 15.247 12.913 37.3 14.255 54.758 5.333 6.107-2.196 12.26-10.724 17.941-9.297 23.493 5.513 46.17 17.178 61.158 36.546 7.012 10.275 9.74 22.807 10.82 34.97 1.482 13.098 1.748 26.329 1.897 39.501 43.492.182 92.214-7.992 124.102-40.602 15.603-15.341 24.042-36.485 29.12-57.331 5.913-21.509 7.976-43.767 10.52-65.825 1.262-8.423.524-18.701 2.758-26.242 15.626 62.54 38.975 127.59 87.806 172.597 12.379 10.587 26.708 18.936 42.42 23.426 22.674 6.459 54.544-.237 68.745-17.413 7.267-9.779 9.59-24.453 10.839-35.192 1.091-13.3.765-26.764-1.355-39.956-1.63-14.27-4.796-28.27-8.371-42.15-2.941-10.04-6.664-20.115-5.448-30.785 2.138-32.673 3.426-65.385 5.575-98.046 2.191-29.608 2.322-59.457 5.289-88.981-2.882-2.012-6.684-1.253-10-1.5-6.693 31.442-15.639 62.61-25.267 93.28a1120 1120 0 0 1-7.513 20.037c-1.834 4.36-6.353 14.732-13.575 10.321-9.115-8.262-12.483-23.428-16.7-33.297-7.702-24.566-12.253-49.999-15.756-75.468-13.13-89.792-14.396-180.652-16.151-271.18.758-46.583 1.318-93.2 3.933-139.707.78-22.771 3.002-45.457 4.54-68.167.704-4.674-.586-12.497 4.853-13.65 14.968-3.465 30.858-7.838 41.636-19.669-21.86-18.77-44.058-37.18-66.194-55.637-10.986-9.497-22.263-18.683-33.375-28.028-5.456-4.773-11.051-9.35-16.625-13.972-5.554-3.676-10.768-10.268-16.306-12.863-18.56 21.282-37.307 42.41-55.815 63.73-4.098 4.62-8.053 9.374-12.288 13.873-4.151 3.986-12.683 1.607-18.883 2.397H1285.07c-8.61 1.034-16.652-1.35-24.236-5.247C1211.14 679.431 1161.85 658.84 1112 640v253.2c-.498 123.174 1.186 246.714-10.125 369.512-11.279 112.482-32.01 227.027-82.875 328.913M1041 2310h197c-1.463 62.078-15.6 126.409-53.345 177.028-35.686 49.137-87.736 83.766-142.655 107.972.482 3.751 4.342 6.719 5 10 78.532-16.53 158.022-40.194 223.846-87.94 31.977-22.659 58.536-52.534 77.473-86.86 19.002-35.641 30.2-83.235 30.681-120.2h222v296c43.435.28 88.556-2.5 128.776-20.854 9.122-3.482 19.918-8.415 18.224-21.756V2310c67.06-.658 134.203.803 201.221-.433 7.374-1.34 14.766-4.257 18.91-10.52 4.595-6.372-4.964-11.403-8.49-14.948-32.915-29.477-67.346-57.181-102.099-84.44-3.602-3.006-7.347-5.802-11.042-8.659-14.857 18.075-28.528 37.175-42.927 55.622-7.033 9.33-14.344 18.454-21.368 27.788-1.68 2.389-3.307 4.848-5.543 6.747-9.445 1.986-19.988-.02-29.662.843v-94c8.596.135 18.42-3.284 25.087-7.256 7.458-4.907 11.268-13.347 12.913-21.744-61.408-3.677-122.695-10.135-184-15v137h-221v-90c7.39-1.784 15.682-2.48 21.803-7.556 5.25-4.86 9.886-12.772 10.197-19.444-28.602-1.404-57.071-5.352-85.61-7.57-28.538-3.34-57.469-4.494-85.89-8.43-2.729 4.049-.762 11.182-1.5 16.56V2282h-205c1.01 9.601 6.161 18.383 7 28m233-962h-14c1.626 22.733-7.318 44.397-21.55 61.778-10.565 15.564-25 27.39-40.916 36.911-12.843 8.673-25.734 22.693-30.67 36.321-11.431 27.553 2.13 62.067 29.447 74.13 20.008 9.202 44.997 9.663 64.126-2.146 26.386-20.297 36.96-54.966 38.751-86.954 3.189-33.605-6.83-66.827-17.105-98.25-2.21-7.436-6.077-14.304-8.083-21.79m144-341h153v-50.4c-.638-5.127 1.128-11.812-1.5-15.6-4.73 2.371-12.528-.038-18.546 1H1418zm0 95h153v-51.6c-.596-5.073 1.084-11.66-1.5-15.4-4.73 2.371-12.528-.038-18.546 1H1418zm0 91h166.8c7.949-.921 18.265 1.351 24.462-1.29 8.264-7.027 13.563-16.99 21.099-24.715 6.598-8.705 14.26-16.64 20.639-25.495-12.43 2.341-25.005 7.965-37.988 8.726-7.08 1.089-14.247 1.104-21.383 1.401-6.855.082-13.888 1.036-20.629-.627v-20h-153zm0 88h217.2c4.215-.388 9.05.7 12.633-.969 20.198-17.538 38.184-37.652 58.542-55.031 16.735 9.044 29.105 25.733 45.625 35-1.98-12.906-2.759-26.005-4-39h-330zm82-368.656c11.401 1.789 23.99-.258 35.634.656h18.537c6.654.929 10.569-2.315 14.304-6.975 8.552-7.76 16.037-16.504 23.895-24.895 8.254-8.144 16.538-16.272 24.005-25.13 5.804 2.212 9.976 7.337 15.293 10.387 33.044 24.446 66.548 48.35 99.332 73.113-6.04 6.122-14.611 11.904-21.996 14.636-2.837 1.706-9.3 1.365-9.568 4.908-1.243 32.01.226 64.194-.436 96.244v48.543c.09 6.69 1.703 15.334-7.136 19.248-5.758 3.492-11.85 6.463-17.864 9.421 23.581 18.026 47.313 35.983 70.5 54.5 1.137-6.671-1.22-13.904-.8-20.7-7.381-111.267-7.11-222.834-6.7-334.3-13.08 2.23-26.327 2.435-39.585 2H1573c-1.15 3.589-5.797 6.779-8.17 10.564-20.988 23.047-41.14 47.416-64.83 67.78m20 415.031c15.544 15.024 27.587 33.375 36.636 52.97 3.33 7.826 6.123 17.508 7.76 25.11 1.754 6.734-.232 16.263 7.617 20.205 10.497 6.814 25.854 10.813 37.209 8.178 18.98-2.409 34.143-18.329 37.963-36.601 1.89-9.831.596-20.437-3.885-29.405-4.307-7.813-11.747-15.607-18.32-20.479-13.99-10.51-30.413-16.85-47.514-20.17-9.114-1.743-18.222-3.586-27.477-4.406-8.035-.31-19.748-2.606-25.48 1.527-1.318 1.107-3.55 2.042-4.509 3.071m122-594c31.187 24.481 64.303 46.84 94.5 72.625h1.5c.047-24.346-.38-48.697 1-73-32.252.57-64.854-.694-97 .375" style="fill:#000;fill-rule:evenodd;stroke:none"/></svg>