<svg xmlns="http://www.w3.org/2000/svg" width="3000" height="3000"><path d="M157 2957.5c447.26 1.426 895.325-.26 1342.75.5 447.681-.76 895.643.926 1343.25-.5-89.24-527.6-175.768-1056.319-264.274-1584.188-32.881-197.178-65.724-394.337-98.6-591.504-14.975-86.916-28.91-174.043-43.658-260.994l-20.26-121.515c-4.237-19.837-5.613-40.387-10.571-60.035-2.23-3.666-9.156-3.713-13.331-6.001-153.686-51.195-307.327-102.464-461.007-153.658-134.313-44.829-268.697-89.519-403.002-134.345-7.496-2.464-14.948-4.998-22.428-7.466-7.106-3.118-15.85 1.66-22.572 3.602-115.69 38.56-231.359 77.11-347.031 115.675-101.317 33.788-202.65 67.568-303.967 101.324-44.313 14.829-88.697 29.519-133.002 44.345-20.83 6.934-41.652 13.855-62.47 20.817l-30.53 10.183c-4.798 1.638-11.417 2.822-12.665 7.456C487.841 971.739 383.296 1602.542 278.126 2233.19 237.363 2474.168 198.262 2717.071 157 2957.5m129-109c404.26 1.426 809.325-.26 1213.75.5 404.681-.76 809.643.926 1214.25-.5-136.001-808.723-269.532-1618.554-405-2427.5-121.158-39.902-242.091-80.773-363.181-120.9-105.831-35.292-211.691-70.548-317.522-105.84-23.178-7.695-46.325-15.437-69.478-23.16-11.32-3.747-22.638-7.56-33.954-11.3-11.001-3.155-23.527-10.094-32.865-5.96-87.061 29.024-174.142 58.01-261.181 87.06-152 50.638-304 101.362-456 152-14.35 4.71-28.615 9.586-42.954 14.3-6.987 2.367-14.011 4.677-21 7-3.503 1.223-7.08 2.327-10.57 3.55-2.671 1.224-8.358 2.025-9.01 4.902-72.98 428.144-142.541 857.209-214.816 1285.534C412.567 2087.831 350.362 2469.393 286 2848.5" style="fill:#757575;fill-rule:evenodd;stroke:none"/><path d="M1007 2628h943.8c13.549-.291 27.304.482 40.733-1.808 10.185-1.058 25.147-14.08 14.652-21.692-31.304-27.077-64.327-52.066-97.044-77.368-12.39-9.129-24.348-18.867-36.627-28.117-5.607-4.032-10.98-8.366-16.46-12.55-2.126-1.573-5-4.318-8.069-3.909-16.78 17.688-30.045 38.84-46.06 57.265-11.312 14.515-22.914 28.784-34.088 43.392-4.117 5.317-8.297 12.922-16.617 11.787H1584v-407h278.4c11.215-.029 22.434.036 33.644-.02 8.708-.078 19.841-3.475 24.704-10.284 7.225-9.206-1.922-14.421-8.71-19.472-24.072-19.975-48.73-39.222-73.368-58.467-18.104-14.973-37.442-28.369-55.996-42.73-3.484-2.39-7.264-6.677-11.15-6.453-21.9 24.084-40.45 51.43-61.593 76.243-4.962 6.605-10.236 12.924-15.356 19.387-3.5 5.016-6.907 10.772-14.923 9.796H1584v-359h342.6c10.12.316 23.226-1.173 30.146-8.288 2.74-2.647 7.034-9.007 3.75-12.05-27-23.02-55.355-44.622-83.161-66.662-21.359-15.948-42.212-32.527-63.304-48.793-3.497-2.332-9.09-9.06-12.715-5.505-24.12 28.547-45.981 59.116-69.77 87.964-2.943 3.82-5.891 7.628-8.958 11.341-2.629 3.131-4.713 6.798-8.068 9.222-16.196 2.134-33.118-.336-49.467.771H1041c1.378 9.57 5.635 18.648 7.69 28.079 1.04 5.302 9.605 3.63 13.3 3.921H1409v359h-330c1.256 10.93 6.73 21.054 8 32h323v408h-410c-.213 11.079 6.293 21.056 7 32m560.5-1698c.237-25.482 3.829-51.64 3.48-77.3-1.032-28.094-31.419-37.796-51.98-40.7v-58h45v-28h-45v-40h-38v40h-45v28h45v58c-14.953 2.476-30.892 6.554-42.058 17.631-12.815 13.146-10.313 29.471-9.396 46.112.563 17.997 3.06 36.367 2.954 54.257-29.823-31.33-73-48.804-115.88-49.59-42.35-2.904-86.597 13.984-111.206 49.727-21.792 31.901-29.66 72.234-26.728 110.326 2.598 38.285 16.56 75.31 35.978 108.105 20.678 36.728 47.95 69.294 75.983 100.512 2.46 2.712 6.298 5.322 5.996 9.945-4.448 66.155-8.99 132.33-13.77 198.454-.185 8.198-1.849 18.165.323 25.539 3.747 12.65 17.677 21.518 27.696 26.436 18.613 9.982 39.643 13.635 60.07 17.632 20.803 3.544 41.779 6.46 62.82 8.048 48.64 4.014 97.67 3.321 146.239-1.171 34.23-3.668 68.702-8.542 101.09-20.644 11.72-4.91 23.16-11.236 31.133-21.411 8.41-10.406 5.257-22.195 4.844-34.27-3.115-40.867-5.326-81.791-8.495-122.643-1.449-20.4-2.877-40.777-4.214-61.178-.112-5.096-.76-10.157-.978-15.232-.354-3.738 3.454-6.972 5.495-9.1 6.906-7.974 14.436-15.357 20.94-23.677 34.234-40.489 65.47-85.086 82.067-135.998 9.21-27.353 11.526-56.47 8.577-85.035-1.92-27.13-11.354-53.722-26.886-75.969-25.057-35.107-69.464-51.93-111.752-48.298-42.321 1.084-84.905 18.63-114.342 49.492m-91.5 286c-.603-21.098.994-42.34-1.17-63.364-5.974-65.975-29.939-132.476-74.96-182.029-21.796-23.768-52.108-42.883-85.353-42.607-16.817-.421-34.072 3.571-47.838 13.603-12.788 9.402-21.933 22.734-28.095 37.278-8.587 20.56-10.717 47.39-8.944 67.492 3.832 33.29 18.545 64.18 34.953 92.874 15.67 27.853 35.29 53.327 56.385 77.225 4.777 4.49 8.17 10.536 13.783 14.15 1.594 1.889 5.538-.122 8.08-.096 43.85-8.67 88.445-14.208 133.159-14.526m-25-28c1.364-60.988-13.27-123.545-46.704-175.072-15.46-24.154-37.767-47.083-67.46-51.89-15.446-2.815-32.24-.71-45.905 7.177-12.523 8.074-20.78 21.41-24.977 35.45-11.077 33.638-5.471 70.792 9.128 102.372 14.063 29.8 32.717 57.205 53.644 82.593 3.406 3.466 6.402 8.43 10.495 10.896 37.167-3.92 74.25-11.637 111.779-11.526m-116 232c53.46-15.149 109.616-18.072 164.89-18 55.387-.348 111.599 2.624 165.11 18-.578-8.34-1.115-16.694-2-25-106.27-27.995-219.715-28.005-326 0-.29 7.465-1.653 16.917-2 25m7-83.375c51.201-11.76 104.912-16.608 157.586-16.625 27.177.065 54.384 1.016 81.412 3.928 25.515 2.814 51.264 6.063 76.002 13.072-.089-5.47-.427-10.932-.596-16.392-.701-3.51.676-9.284-2.38-11.046-10.826-3.058-21.94-5.03-32.963-7.216-50.997-10.119-103.226-11.86-155.03-9.959-25.024 1.41-50 3.868-74.764 7.735-12.136 2.195-24.288 4.39-36.309 7.14-3.076.78-6.246 1.433-9.227 2.414-5.183 6.962.358 19.665-3.731 26.949M1499 1039h2c4.976-16.427 12.872-31.914 20.186-47.375 3.23-6.27 8.564-12.844 7.814-21.651-.028-32.004.034-63.99-.019-95.993.102-10.53-3.354-22.107-12.509-28.26-15.398-11.228-40.503-2.68-43.901 16.46-3.033 14.861-.632 30.313-1.571 45.372v61.712c-.809 6.422 1.53 12.22 5.222 17.328 7.932 15.445 15.2 31.284 21.316 47.54.502 1.608 1.154 3.216 1.462 4.867m-1-24h4c1.803-11.913 6.668-25.485 9.992-35.97 4.45-10.787 2.568-22.794 3.008-34.168-.849-20.72 1.082-41.557-.7-62.22-.66-6.242-2.31-13.954-11.062-15.149-5.641-1.26-13.912.812-16.09 8.128-2.954 10.938-2.058 22.363-2.148 33.58v52.944c-.89 8.82 2.897 16.757 5.713 24.822 2.068 7.652 4.796 15.136 6.489 22.88.402 1.699.706 3.425.798 5.153m26 201c37.129-.12 74.126 4.15 110.658 10.448 6.853 1.049 13.676 2.211 20.44 3.688 3.28-.253 7.409 2.594 9.901.776 32.596-32.415 60.055-70.37 81.161-111.24 11.306-21.38 19.487-44.311 23.605-68.133 2.968-24.482.674-50.055-8.394-73.096-6.735-17.204-18.698-32.444-34.87-41.622-30.225-15.747-67.929-10.127-95.56 7.916-41.071 27.53-68.205 71.535-85.399 116.94-9.123 23.836-14.974 48.832-18.538 74.055-3.844 26.59-3.166 53.45-3.004 80.268m25-28c28.865-.28 57.429 4.576 85.986 8.066 5.321.655 10.617 1.546 15.9 2.413 4.59.6 10.354 2.634 13.752-2.052 22.32-26.627 43.306-54.76 58.299-86.272 16.487-32.782 22.49-71.803 10.876-107.214-4.277-13.987-12.818-27.2-25.376-35.097-23.978-13.84-54.863-8.843-76.544 6.494-30.538 23.09-50.003 58.003-63.447 93.045-14.223 38.566-20.4 79.66-19.446 120.617" style="fill:#fff;fill-rule:evenodd;stroke:none"/><path d="M999 2599h2c1.277-3.4 7.52-1.148 11.194-2H1411v-410h-2v408H999z" style="fill:#bfbfbf;fill-rule:evenodd;stroke:none"/><path d="M1583 2157h94.2c3.736-.12 9.208.47 11.8-1.5-34.462-1.426-69.433.26-104-.5v-359h-2z" style="fill:#404040;fill-rule:evenodd;stroke:none"/><path d="M1498 1016h4c.01-1.026-.073-2.063-.5-3-1.166 1.04-2.37.614-3.5 0z" style="fill:#6b6b6b;fill-rule:evenodd;stroke:none"/><path d="M285 2848.5v1.5h2430v-1.5c-135.626-809.364-269.706-1619.074-405-2428.5-121.342-39.954-242.44-80.911-363.734-121.071-105.997-35.348-212.014-70.655-318-106-23.146-7.696-46.251-15.464-69.4-23.13-11.349-3.816-22.687-7.57-34.04-11.356-11.04-3.422-23.963-10.053-33.529-5.703a606540 606540 0 0 0-261 87C1078.145 290.453 925.97 341.187 773.819 391.9c-14.35 4.71-28.615 9.586-42.954 14.3-6.987 2.367-14.011 4.677-21 7-3.503 1.223-7.08 2.327-10.57 3.55-2.671 1.224-8.358 2.025-9.01 4.902-73.08 428.648-142.702 858.22-215.077 1287.05C411.568 2088.343 348.904 2469.203 285 2848.5m715-252c2.385 9.852 6.77 21.248 8 30.5h951c18.787.06 44.128 1.731 51-17.5-51.893-44.336-106.984-84.91-161-126.5-16.284 18.628-30.563 39.179-46.398 58.22-11.477 14.58-23.061 29.09-34.38 43.786-4.264 5.71-7.898 12.408-17.198 10.994H1583v-409h287.4c11.206-.461 24.667.971 34.749-1.53 4.518-1.074 9.526-3.505 12.656-6.435 2.698-2.843 6.161-8.036 3.401-10.929-47.405-41.632-99.088-78.283-148.706-117.106-23.873 28.785-46.797 58.482-70.086 87.747-6.552 6.885-11.05 18.147-21.11 17.253H1584v-360h310.2c13.023-.028 26.028.034 39.04-.018 9.966-.166 21.584-4.01 26.346-13.535 2.409-4.647-3.157-7.683-5.808-9.848-49.67-39.62-99.323-79.784-150.278-117.599-19.318 23.127-37.127 47.521-56.14 70.895-8.195 10.4-16.486 20.75-24.63 31.18-1.863 2.268-3.713 5.241-5.752 7.024-2.686 2.253-6.396 1.827-9.724 1.901H1042c3.337 9.086 5.346 20.886 9.09 28.883 5.51 2.153 10.907.453 16.694 1.117H1410v361h-330c2.481 10.01 6.194 19.831 8 30h322v409h-410zM1566 932c.732-26.009 3.894-51.936 3.986-77.969-.712-28.29-31.38-38.135-51.986-41.031v-60h45v-26h-45v-40h-36v40h-45v26h45v60c-14.953 2.476-30.892 6.554-42.058 17.631-12.852 13.066-10.298 29.33-9.285 45.887.033 18.756 3.616 37.817 2.843 56.482-29.856-32.04-73.416-50.576-116.922-51.533-42.784-2.917-87.412 14.994-111.49 51.59-20.94 32.212-28.697 72.365-25.094 110.32 2.88 38.082 18.16 74.112 37.083 106.737 20.88 36.358 47.999 68.558 76.03 99.487 7.24 6.027 3.577 15.834 3.72 23.407-4.872 63.515-8.54 127.092-13.25 190.607-.829 8.095-1.412 16.68 2.916 24.016 15.585 21.778 43.697 29.136 68.202 35.055 26.419 5.462 53.183 9.424 80.087 11.448 48.494 4.053 97.413 3.23 145.818-1.34 34.164-3.734 68.627-8.62 100.855-21.061 11.47-5.046 22.832-11.213 30.387-21.611 7.847-10.495 4.437-21.89 4.117-33.792-3.016-40.503-5.437-81.07-8.481-121.56-1.405-20.289-2.887-40.57-4.171-60.858-.243-5.174-.787-10.32-.997-15.487.13-6.019 7.62-11.375 11.672-16.9 4.62-4.955 9.846-10.97 13.926-15.652 33.698-39.934 65.006-83.556 81.847-133.61 9.672-26.931 12.471-55.84 9.92-84.173-1.682-27.012-10.434-53.628-25.487-76.106-24.226-35.849-68.454-53.406-110.78-50.508-22.026 1.009-48.133 6.066-66.244 15.452-9.373 4.683-18.795 9.438-27.164 15.796-4.045 3.23-8.367 6.142-12.388 9.402-3.862 2.695-7.695 8.796-11.612 9.874m-89 285c-.693-21.415 1.043-42.935-1.049-64.278-5.856-66.35-29.818-133.269-75.081-183.115-22.041-24.05-52.863-43.347-86.55-42.607-16.876-.45-34.317 3.257-48.219 13.295-13.014 9.385-22.281 22.91-28.517 37.586-8.739 20.784-10.605 47.922-9.07 68.244 3.636 33.566 18.277 64.853 34.863 93.738 15.705 28.008 35.4 53.594 56.6 77.609 4.721 4.55 8.232 10.437 13.714 14.205 4.373 2.866 13.277-1.938 17.95-1.7 41.383-7.4 83.255-12.925 125.359-12.977m-27-30c1.18-60.48-13.92-122.453-46.985-173.484-15.368-23.82-37.369-46.488-66.681-51.382-15.104-2.933-31.525-.542-44.797 7.316-12.282 8.122-20.417 21.328-24.583 35.214-11.032 33.15-5.227 69.76 9.323 100.82 14.088 29.616 32.61 56.889 53.449 82.147 3.033 3.908 6.476 7.425 9.931 10.888 36.599-4.369 73.335-11.396 110.343-11.519m-116 235c53.39-16.547 110.21-18.477 165.643-19 55.708.25 112.767 2.068 166.357 19-.186-9.374-1.082-18.695-2-28-106.927-27.997-221.064-28.003-328 0-.464 9.38-1.686 18.665-2 28m7-83c24.731-7.749 50.715-11.06 76.414-13.762 41.481-4.428 83.366-5.77 125.03-3.188 39.046 3.017 78.888 5.184 116.556 16.95-1.09-6.468-1.551-13.003-1.607-19.559-.256-4.807.797-11.037-5.798-11.828-13.901-3.472-27.997-5.94-42.078-8.538-49.978-7.859-100.806-10.256-151.335-7.31a735 735 0 0 0-72.38 8.097c-12.197 2.163-24.33 4.723-36.387 7.508-8.236.437-6.547 8.417-6.951 14.465.214 5.798-.793 11.476-1.464 17.165m158-296h2c4.873-16.7 12.954-32.572 20.176-48.362 3.411-7.245 9.149-14.058 8.822-22.497-.03-33.183.043-66.384-.022-99.554.177-11.01-3.935-22.98-13.903-28.802-15.187-8.07-41.112-4.537-44.946 19.289-1.628 7.613-1.001 15.465-1.127 23.208v84.636c-.745 7.704 2.715 12.715 6.208 18.548 8.323 16.245 15.798 32.944 21.993 50.114.494 1.083.743 2.235.799 3.42m0-28h2c1.37-12.297 6.733-26.19 9.992-36.97 4.45-10.787 2.568-22.793 3.008-34.167-.874-19.937 1.186-43.554-.936-61.77-.637-6.675-3.897-14.124-13.205-13.771-14.46-.257-13.842 19.672-13.859 28.78v60.966c-.007 5.183-.364 10.49 1.36 15.462 4.28 12.54 9.47 27.352 11.537 39.374.056.699.078 1.409.103 2.096m24 202c37.455-.138 74.792 4.224 111.633 10.62 6.804 1.016 13.574 2.213 20.295 3.67 3.28.918 6.596 1.302 9.969 1.23 33.569-31.637 60.595-71.154 82.263-111.848 11.373-21.521 19.62-44.646 23.689-68.648 2.831-24.968.783-51.079-8.478-74.581-6.801-17.34-18.898-32.742-35.303-41.861-30.748-15.506-69.056-9.897-97.127 8.155-41.42 27.71-68.473 72.166-85.783 117.875-8.943 24.075-14.964 49.239-18.335 74.673-3.691 26.752-2.896 53.744-2.823 80.715m27-30c28.464-.317 56.628 4.495 84.776 7.904 5.465.646 10.87 1.597 16.3 2.454 4.616.713 9.587 2.096 12.533-1.908 22.012-26.407 42.981-54.142 57.833-85.325 16.65-32.39 23.061-71.036 11.367-106.202-4.227-13.862-12.644-26.902-24.977-34.842-23.283-14.02-53.274-9.03-74.496 5.93-30.328 21.712-51.923 61.272-63.51 92.456-14.175 38.182-20.688 78.91-19.826 119.533" style="fill:#000;fill-rule:evenodd;stroke:none"/></svg>