<svg xmlns="http://www.w3.org/2000/svg" width="3000" height="3000"><path d="M407 2715h2186c-120.11-729.14-243.257-1457.94-364-2187-121.653-40.09-243.099-81.112-364.7-121.395-91.164-30.407-182.32-60.766-273.474-91.162a32206 32206 0 0 1-51.529-17.183c-8.003-2.659-16.01-5.346-24-8-7.038-2.654-14.998-6.446-23.453-2.372-120.19 40.07-240.392 80.12-360.578 120.183C1011.124 447.878 891.186 488.387 771 528c-120.737 729.033-243.897 1457.913-364 2187m624-1082.75c1.116 2.583 3.655 5.152 5.25 7.75 51.877-19.898 101.763-44.905 150.133-72.155 70.047-39.917 136.612-86.09 197.8-138.669C1445.178 1375.17 1505.018 1316.514 1547 1246h3c23.016 78.037 67 148.99 122.005 208.461 55.33 57.916 120.446 105.404 189.495 145.539 6.32-31.823 19.698-62.324 39.284-88.234 18.586-24.477 43.29-46.795 74.216-53.766.998-4.947 1.12-9.982 1-15-79.286-16.763-157.724-39.742-232.306-71.688-35.002-15.302-68.322-34.318-99.693-56.064-16.228-10.959-30.817-23.86-45.219-37.024-7.006-6.889-13.613-14.15-20.168-21.455-4.794-7.715-14.644-14.76-15.614-22.769 10.27-.148 20.363-2.45 30.295-4.834 9.635-2.142 17.824-8.18 22.705-16.666-34.765-10.46-70.583-18.07-105.577-27.886-35.335-7.864-69.93-19.71-105.423-26.614-12.067 50.27-36.97 96.253-63.12 140.342-40.006 64.615-86.57 125.518-138.59 180.905-52.349 55.977-108.956 109.331-172.29 152.753zm899 396.063c-20.286-18.827-42.275-35.717-63.875-52.992-21.7-17.235-42.89-35.557-65.625-51.321-13.268 16.283-25.898 33.152-38.96 49.606-9.725 12.237-19.053 24.8-28.9 36.942-1.978 2.121-3.84 6.03-6.673 6.051-50.586 1.143-101.351-.207-151.967.401v-375h171.6c16.467-.287 40.57 3.34 46.4-14.5-37.833-32.496-77.313-63-117.5-92.5-11.956 13.803-22.495 28.846-34.18 42.875-10.364 12.106-19.198 25.526-29.88 37.345-2.302 3.033-8.83 1.045-11.828 1.78H1222c1.472 7.344 4.111 15.912 6.255 22.427 1.34 3.866 8.74 1.935 11.523 2.573H1427v375h-314c1.26 7.533 4.74 16.047 6.448 22.806 1.796 3.63 9.048 1.393 11.946 2.194h759.156c14.537.247 34.49 1.712 39.45-13.687" style="fill:#fda;fill-rule:evenodd;stroke:none"/><path d="M1035 1642c52.032-20.113 102.312-44.878 150.893-72.264 70.334-40.235 137.474-86.264 198.911-139.227 61.798-53.834 120.471-113.332 163.696-183.509 24.421 78.091 67.151 149.768 123.243 209.228 55.788 57.93 121.077 105.963 190.757 145.772 5.554-31.978 19.529-62.325 38.636-88.42 18.752-24.773 43.531-47.564 74.864-54.58 1.123-5.614 1.094-11.31 1-17-78.697-16.573-156.473-39.48-230.599-70.891-69.452-30.85-136.113-73.133-182.401-134.609v-1.5c10.6-.221 21.038-2.566 31.28-5.107 7.954-2.707 19.565-7.665 21.72-18.893-70.3-18.626-141.01-36.119-211.24-55-3.672 4.103-3.813 12.29-6.356 18.075-14.942 47.67-39.24 91.754-65.202 134.142-39.621 62.405-85.32 120.987-135.986 174.772-51.8 53.628-106.157 106.315-168.216 148.011-.026 4.202 4.251 7.49 5 11m76 374.25c2.225 4.987 2.792 10.765 4.777 15.91 1.374 3.416 1.735 10.342 5.768 10.486 13.88 1.006 27.931-.18 41.83.354h729.774c9.683.033 20.01 1.033 28.951-3.59 3.581-1.682 6.924-4.533 8.048-8.495 1.16-3.631-2.282-6.75-4.714-8.73-20.028-17.665-41.099-34.133-61.95-50.81-20.49-17.071-41.391-33.732-62.984-49.375-13.765 15.805-25.63 33.257-39.042 49.366-9.722 12.27-19.063 24.87-28.952 37.003-1.722 2.321-3.43 4.679-5.605 6.569-5.209 2.03-13.03.447-18.556 1.062H1575v-373c66.045-.875 132.229 1.067 198.234-.576 7.228-.705 14.414-3.763 18.374-10.207 2.872-6.804-5.164-10.441-8.936-14.168-32.68-28.752-67.955-54.338-102.65-80.521-1.908-1.42-3.85-2.822-5.522-4.528-12.421 13.652-22.61 29.21-34.633 43.196-10.423 12.287-19.463 25.688-30.123 37.761-2.192 3.108-8.5 1.49-11.53 2.043H1220c3.247 8.484 4.497 19.695 8.456 26.184 9.983 1.93 20.565-.025 30.69.816H1426v373h-315z" style="fill:#000;fill-rule:evenodd;stroke:none"/></svg>