<svg xmlns="http://www.w3.org/2000/svg" width="3000" height="3000"><path d="M449 2666.5v1.5h2102v-1.5c-63.81-378.768-126.215-757.87-189.705-1136.696-47.349-283.998-94.654-568.016-142-852-4.398-26.67-8.911-53.338-13.325-80.003-1.118-6.656-2.232-13.342-3.35-19.985-.571-3.586-1.119-7.183-2.096-10.662-1.288-2.958-6.82-3.128-9.193-4.54-101.51-33.828-203.017-67.663-304.512-101.514a746151 746151 0 0 1-266.522-88.84c-39.072-12.89-78.06-26.135-117.144-38.98-4.713-1.335-9.273 1.032-13.839 2.453-144.507 48.104-288.95 96.378-433.449 144.467-54.18 18.08-108.385 36.116-162.566 54.195-23.808 7.923-47.625 15.882-71.434 23.805-5.676 1.96-11.407 3.738-17.06 5.726-6.564 1.113-6.72 8.744-7.34 13.268C740.08 921.349 682.77 1265.54 625.383 1609.692 566.339 1961.663 508.308 2314.864 449 2666.5m608-393.125c1.926 2.67 4.29 5.871 7.025 7.13 2.691-.958 6.66-1.434 9.806-2.961 53.254-19.187 104.385-44.367 151.535-75.688 47.764-30.73 91.487-67.893 130.655-108.886 3.06-3.911 6.96-7.085 10.001-11.003 4.965-7.993 13.065-4.483 21.06-5.511 6.053-1.063 15.042-3.696 17.918-11.456-24.535-12.666-49.172-26.05-73.54-39.19-24.78-13.019-49.29-26.663-73.96-39.81-22.39 54.35-48.994 107.727-83.491 155.673-33.564 47.916-71.311 94.486-117.009 131.327zM1289 840v68c-5.464-1.354-11.664-3.831-17.5-7-7.255 16.42-11.15 34.787-18.479 51.329-21.846 58.534-50.05 114.465-81.485 168.354-29.813 52.86-65.652 102.446-104.536 148.817 6.195 7.72 12.038 3.607 18.331-.173 20.247-10.28 40.106-21.426 59.496-33.217 9.86-6.068 19.737-12.112 29.2-18.79 4.827-3.346 9.841-6.39 14.493-9.966 4.52-2.785 9.34-8.034 14.48-8.354v387c37.042 1.137 75.328-.476 109.177-17.592 6.764-3.348 13.3-7.133 19.263-11.754 2.85-2.438 6.06-5.06 7.071-8.834.831-4.227.307-8.59.489-12.855.246-3.232-.873-10.161 3.046-10.53 130.74-1.24 261.661.226 392.441-.435h172.064c8.781.23 18.154.87 26.007-3.946 3.233-1.844 5.856-4.719 6.838-8.282-2.003-6.274-9.355-8.714-13.129-14.004-33.785-30.345-68.27-60.562-103.767-88.768-11.662 14.89-22.008 30.859-33.276 46.045-8.547 11.724-16.974 23.523-25.392 35.32-2.943 4.188-5.902 10.166-12.318 9.616-43.835.054-87.683-.01-131.514.019v-130h188.4c10.607-.086 21.241.107 31.847-.061 7.933-.13 18.605-3.533 21.753-13.486-36.605-33.448-74.21-65.915-112.5-97.453-15.745 22.352-32.272 44.396-48.043 66.773-4.371 5.52-7.996 11.575-12.39 17.063-3.453 4.51-10.975 2.808-15.891 3.164H1620v-127h188.4c18.966-.795 44.52 4.843 53.6-13.5-36.356-33.686-73.993-66.275-112.5-97.5-19.868 28.924-42.388 56.737-61.5 86h-68v-119h254.4c9.318-.065 22.95-2.052 26.6-13.547-37.21-34.213-75.772-66.96-114.5-99.453-13.865 17.572-26.397 36.209-39.841 54.103-4.987 6.94-10.076 13.835-15.06 20.767-4.424 5.462-8.744 14.26-15.553 14.09-58.678.114-117.368-.02-176.046.04v-2c25.456-16.033 53.257-29.355 79.028-45.141 13.14-7.437 26.259-14.911 39.448-22.254 7.106-4.361 16.381-1.323 23.91-4.644 7.283-2.029 12.96-7.03 16.614-13.461-8.737-4.978-19.804-5.331-29.023-9.343-30.48-8.098-60.383-18.61-90.977-26.157v-3c31.472.173 63.221-2.05 93.718-10.187 7.143-2.257 14.366-4.4 21.089-7.73 14.566-5.342 11.252-19.24 11.193-29.896V840c67.799-.098 135.602.12 203.4-.065 8.005-.305 16.405-.368 23.697-4.181 5.732-2.867 10.831-10.005 2.917-14.536C1901.769 791.18 1867.802 760.742 1832 734c-14.23 21.805-31.927 42.063-46.894 63.526-4.183 4.926-8.08 11.644-12.364 15.763-3.835 3.075-11.162.917-16.482 1.711H1705v-76c12.677-.072 28.997-6.626 32-23-54.98-4.053-110.12-8.09-165-13v112h-153v-76c12.141-.89 30-6.215 32-22-53.966-4.647-108.12-8.81-162-14v112h-229c.818 7.3 3.368 14.414 5.018 21.543.744 4.266 7.523 3.291 10.562 3.457H1289m-220 1125h834c9.05.135 18.903.857 26.985-4.203 3.188-1.895 6.378-5.5 6.53-9.023-19.593-18.83-42.538-34.264-63.59-51.423-21.18-16.82-43.068-32.793-64.425-49.351-12.984 17.336-27.585 33.712-40.825 50.906-10.326 12.217-19.585 25.376-30.233 37.312-1.894 2.685-7.426 1.237-10.018 1.782H1570v-129h216c12.012-.028 24.039.034 36.042-.018 9.244.029 22-2.332 26.958-13.482-42.537-35.123-87.957-66.71-131.5-100.5-19.617 22.72-37.624 46.836-56.825 69.906-4.78 5.738-9.138 11.848-14.214 17.334-3.712 4.309-12.184 2.126-18.148 2.76H1570v-103.8c-.072-4.6-.714-10.086 5.414-10.793 11.271-2.976 26.765-7.576 27.586-24.407-56.11-2.261-111.904-9.682-168-12v304h-96v-201c8.581-1.201 17.587-3.231 24.274-9.19 2.659-2.888 6.078-7.633 4.99-11.177-2.573-2.98-9.234-.804-13.27-2.218-6.802-.484-13.556-1.133-20.351-1.662-11.604-.987-23.167-2.162-34.796-2.83-28.947-2.158-57.851-5.62-86.847-6.923v235h-150c.98 8.196 5.024 15.803 6 24m53 545.459c.977 3.797 1.974 7.535 2 11.541 110.056-9.45 221.055-25.051 324.994-64.17 73.284-27.35 142.121-66.608 202.674-116.193 23.246-18.844 44.865-39.524 65.934-60.74 18.23-18.257 34.875-38.013 51.556-57.673 1.838-2.216 3.517-4.634 5.974-6.216 5.756-1.817 11.907.251 18.033-.177 5.355.29 12.925-2.208 15.468 2.64 3.961 9.416 19.06 11.996 26.849 13.93 19.577 4.408 41.852.083 56.732-14.096 12.982-10.98 20.454-27.556 22.089-44.5 2.887-30.957-13.457-60.661-34.173-82.175-31.007-33.225-74.532-51.141-117.203-63.535-22.74-5.403-45.656-10.398-68.998-12.483a490 490 0 0 0-35.676-3.15c-6.145-.304-12.304-.626-18.437-.972-2.963-.366-5.909-.22-8.859-.013-2.283 1.14-4.116 3.269-5.957 5.023 32.45 22.95 61.455 50.637 89.602 78.602 14.454 14.178 27.624 29.533 40.535 45.092 6.28 7.553 12.391 15.226 18.52 22.888 3.132 3.812 5.643 8.098 8.64 12.006 2.262 3.61 6.317 8.276 6.703 11.912-5.976-.185-11.542-5.173-16.33-7.17-35.514-18.624-70.085-39.502-105.67-57.83-25.797 50.159-58.373 97.291-95.495 139.801-56.123 64.884-125.865 117.577-202.338 156.126-78.216 40.097-162.165 69.31-247.167 91.073zM1295 2193c29.63 4.662 60.673 13.248 81.731 36.235 11.146 10.568 17.964 24.679 20.354 39.72 3.53 15.469 4.517 31.303 5.915 47.045 23.31-1.048 46.45-4.949 69.207-9.823 31.694-6.66 65.299-21.61 80.744-52.06 15.973-32.861 14.533-70.139 14.049-105.544V2005c12.295-.605 28.74-7.34 29-21-53.937-4.952-108.062-8.05-162-13v180.6c-.12 7.559.167 15.09-.142 22.63-.385 5.16-1.078 12.728-7.602 14.756-10.642 2.242-23.706.252-33.566.631-32.593-1.361-65.122-3.875-97.69-5.617zm43-1263.5v1.5c32.425 12.787 63.575 29.207 96 42-1.536 9.937-17.482 14.2-24.311 15.396-3.898.824-8.533-.068-12.101.101-3.184-.47-5.146 4.64-6.864 6.406-6.296 9.454-12.188 19.148-19.045 28.212-3.34 4.642-6.62 9.342-9.991 13.96-2.693 4.318-8.215 9.516-8.688 13.925h143c8.764-46.601 19.409-93.012 26-140 16.9 3.741 32.995 10.702 50 14v-85h-153v55.2c-.037 4.039.406 8.806-2.871 11.442-10.408 7.81-25.864 11.014-36.931 14.55-13.51 3.39-27.344 5.52-41.198 6.808zm1 264.5h144v-119h-144zm0 152h144v-127h-144zm0 154h144v-130h-144z" style="fill:#fedda9;fill-rule:evenodd;stroke:none"/><path d="M1055 2273.5c2.179 2.955 6.092 6.566 7 9.5 65.23-21.7 127.113-53.07 183.286-92.704 27.697-20.353 55.515-40.95 80.16-65.019 13.558-11.166 24.661-24.906 37.028-37.252 3.116-2.753 5.693-7.13 8.827-9.338 2.081-1.848 6.942-.163 10.294-.715 9.938.513 19.872-3.463 25.405-11.972-48.623-29.423-101.085-53.692-150.5-82-21.654 55.332-49.409 108.539-83.798 157.088-33.37 48.814-72.47 94.282-117.702 132.412m3-1459c1.1 4.402 2.474 8.713 3.416 13.189 1.047 3.478 1.744 7.69 2.967 10.781.57 2.704 5.27 2.219 7.237 2.528 8.97.006 17.948-.001 26.913.002H1288c-.751 21.935.918 44.145-.5 66-5.333-3.303-11.75-4.562-17-8-22.607 68.469-50.672 135.283-86.883 197.772-33.433 61.392-73.27 119.67-118.617 172.728 2.523 2.85 5.583 5.102 8.5 7.5 21.962-11.577 44.4-22.627 65.575-35.726 21.878-12.226 41.952-27.883 62.925-41.274v387c31.062.381 63.068.998 92.727-10.082 11.772-4.006 23.257-9.168 33.576-16.145 4.544-3.568 10.575-7.235 11.493-13.497.777-6.268-.448-13.744.643-19.446.091-3.183 5.786-2.579 7.757-2.829 100.525-.003 201.049.001 301.56-.001h264.39c9.973.812 23.33-2.058 27.854-14.5-38.597-35.83-78.461-70.452-119.5-103.5-24.316 28.945-42.586 63.096-67.4 91.542-44.617 1.305-89.453-.237-134.1.458v-128h213c8.14.24 17.079-.109 23.703-5.607 2.617-2.064 4.962-5.69 4.823-8.874-.733-3.396-4.878-4.378-6.652-7.16-34.381-31.962-70.509-62.062-106.374-92.359-16.199 22.05-32.134 44.33-48.139 66.515-4.125 5.509-7.947 11.23-12.055 16.75-3.539 5.645-9.175 4.97-14.742 4.735H1621v-125c71.194-.002 142.407.003 213.596-.002 7.577-.06 17.358-1.237 22.816-6.059 2.573-2.237 4.71-5.278 5.098-8.723-2.884-5.551-8.947-9.282-13.372-13.604-32.574-29.235-65.663-57.982-99.638-85.612-11.03 14.111-20.908 29.113-31.696 43.4-9.483 14.915-22.286 28.215-30.804 43.6h-66v-117h219c12.218-.008 24.434.01 36.637-.006 9.931.617 21.503-3.271 26.363-14.494-18.203-18.627-39.11-34.246-58.212-51.872-20.046-16.123-38.467-35.325-59.788-49.628-11.209 18.927-26.814 35.645-38.708 54.276-4.812 6.793-9.841 13.417-14.66 20.193-4.366 4.78-8.939 14.55-14.83 15.35-58.494-.242-117.42.832-175.802-.319 26.459-15.158 53.525-29.72 79.9-45.142 13.32-7.54 26.635-15.08 39.974-22.569 6.325-3.145 16.616-.624 24.237-4.476 8.192-2.771 12.288-8.011 15.889-14.813-39.815-13.397-80.983-23.103-121-36 31.378-1.253 63.265-1.787 93.718-10.687 7.143-2.257 14.366-4.4 21.089-7.73 14.566-5.342 11.252-19.24 11.193-29.896V841h184.8c10.326.089 20.693.173 30.976-.866 9.013-.373 17.666-5.73 20.224-14.665-35.36-32.426-71.754-63.835-109.5-93.469-15.737 21.208-31.805 42.23-47.546 63.433-4.214 5.212-7.827 10.913-12.213 15.98-3.843 3.842-10.98 2.155-15.821 2.587H1706v-74c13.274-.94 30.558-6.34 32-25-55.684-3.948-111.377-8.412-167-13v112h-151v-74c12.58-.68 31.83-6.968 32-24-54.673-4.532-109.362-9.14-164-14v112h-230zm3 1126c2.572 8.35 5.184 16.931 7 25.5h826.2c14.66-1.225 36.793 5.333 44.8-14.5-20.83-18.412-43.137-35.105-65.074-52.15-11.186-8.32-22.205-16.872-33.15-25.488-5.674-4.207-11.284-8.506-16.946-12.71-5.726-3.39-11.09-10.15-16.83-11.152-11.775 17.59-27.453 33.246-39.983 50.483-10.261 12.29-19.693 25.322-30.212 37.391-1.916 2.803-7.274 1.805-9.783 2.126H1571v-127h241.8c9.497.174 19.412.53 28.22-3.746 3.255-1.64 7.043-5.393 7.935-8.28 1.351-3.574-2.732-6.53-4.957-8.328-20.509-17.271-42.207-33.037-63.644-49.09-20.968-16.263-42.014-32.492-63.854-47.556-18.078 23.778-37.828 46.466-56.157 70.082-4.78 5.766-9.184 11.833-14.173 17.414-3.879 5.01-12.132 3.145-17.663 3.504H1571v-103.2c.12-2.289-.132-5.178.734-7.152 6.664-4.319 15.237-3.546 21.837-8.852 6.882-4.365 10.117-12.103 11.429-19.796-28.748-1.026-57.371-4.56-86.09-6.032-27.94-3.178-56.68-3.065-84.41-6.968-1.426 101.54.26 203.401-.5 305h-94v-199c12.522-1.886 28.308-5.55 31-23-52.518-5.82-106.13-7.909-158.5-14-1.426 78.54.26 157.4-.5 236h-151zm62 582.5c109.996-9.12 221.008-24.684 324.952-63.475 74.102-27.223 143.566-66.948 204.716-116.888 23.386-18.943 45.12-39.772 66.307-61.112 18.38-18.357 35.066-38.283 51.846-58.085 1.824-1.912 3.357-4.827 6.274-5.942 6.306-.542 12.657.639 18.976.452 2.615-.165 5.461-.35 8.515-.375 4.105 1.441 4.497 9.627 10.473 10.812 19.24 9.039 46.396 10.766 63.888 1.221 16.01-7.199 28.171-21.836 33.24-38.805 9.97-31.664-2.58-66.553-23.512-90.709-30.717-36.439-75.368-57.762-120.345-70.815-23.917-6.179-48.203-11.274-72.839-13.6-12.437-1.61-24.935-2.624-37.455-3.29-6.538-.378-13.05-.697-19.578-1.014-2.834.219-7.6-.95-9.519.822-2.294 1.385-4.024 3.485-5.939 5.303 32.168 23.557 61.778 50.343 89.733 78.733 27.025 28.28 53.519 58.067 75.017 90.767-40.444-21.046-80.26-44.053-120.25-66-27.875 49.008-57.767 97.492-95.853 139.465-56.258 65.086-125.642 118.426-202.512 156.969-78.475 40.394-162.822 69.614-248.135 91.566.344 4.697 2.054 9.243 2 14m171-329c29.801 4.663 61.024 13.357 82.096 36.607 23.123 23.02 22.348 57.589 26.404 87.393 33.034-4.936 68.22-6.266 99.647-19.647 22.514-8.306 43.466-23.697 53.28-46.251 16.03-37.912 12.538-79.842 12.573-119.88V2006c12.235-.12 28.118-6.962 30-23-54.985-4.531-110-8.599-165-13v180.6c-.12 7.559.167 15.09-.142 22.63-.385 5.16-1.077 12.727-7.602 14.756-10.597 2.303-23.614.217-33.43.55-32.648-1.102-65.193-4.228-97.826-5.536zm45-1264.625c31.549 15.816 65.64 27.838 97 44.125-3.64 9.335-15.61 14.562-23.926 15.733-4.213.818-8.46.607-12.698.335-5.63-.129-8.149 8.933-12.21 13.158-10.55 15.926-21.363 31.733-33.166 46.774 46.805 1.426 94.101-.26 141 .5 8.764-46.601 19.409-93.012 26-140 8.236.886 15.924 4.614 24.012 6.28 8.3 3.095 17.3 4.482 25.488 7.72 1.426-27.53-.26-55.402.5-83h-151v55.2c-.037 4.039.406 8.806-2.871 11.442-22.996 15.197-51.993 17.023-78.129 21.733m1 263.625h142v-117h-142zm0 152h142v-125h-142zm0 154h142v-128h-142z" style="fill:#000;fill-rule:evenodd;stroke:none"/></svg>