<svg xmlns="http://www.w3.org/2000/svg" width="3000" height="3000"><path d="M407 2715h2186c-120.11-729.14-243.257-1457.94-364-2187-121.653-40.09-243.099-81.112-364.7-121.395-91.164-30.407-182.32-60.766-273.474-91.162a32206 32206 0 0 1-51.529-17.183c-8.003-2.659-16.01-5.346-24-8-7.038-2.654-14.998-6.446-23.453-2.372-120.19 40.07-240.392 80.12-360.578 120.183C1011.124 447.878 891.186 488.387 771 528c-120.737 729.033-243.897 1457.913-364 2187m631-164.5c.9 3.894 5.56 7.319 7.5 11.5 65.791-21.127 131.034-45.929 191.611-79.634 44.269-24.624 86.868-53.211 123.689-88.202 55.941-51.393 98.784-116.54 124.909-187.762 28.017-75.18 42.112-154.681 49.291-234.402 4.369.225 3.874 5.58 4.247 8.762 11.447 115.485 33.719 232.052 85.183 337.085 24.071 49.6 55.561 95.656 92.836 136.243 36.978 40.533 82.288 72.88 129.734 99.91 2.917-2.464 2.057-8.245 3.362-12.234 5.403-30.892 18.15-61.241 39.74-84.368 21.75-22.372 51.35-36.4 81.898-41.398-.186-3.903 1.053-9.638-3.8-11.319-3.896-1.552-7.959-2.648-11.896-4.075-50.063-16.424-98.842-37.043-144.937-62.53-66.928-36.659-126.53-87.099-171.263-149.015-47.05-63.495-73.933-139.99-88.104-217.061h361.8c14.88-.306 35.092.353 40.2-14.687-44.001-39.56-92.214-74.31-137.5-112.313-25.662 33.324-51.922 67.028-76.5 101h-202c1.17-42.022 5.537-83.868 6.172-125.918 3.75-42.57 1.617-85.534 4.828-128.082 14.37-.263 33.832-8.752 36-28-63.025-4.475-125.981-10.385-189-15-1.525 98.986-1.483 198.184-8 297-109.264.76-218.81-.926-328 .5 2.615 7.735 5.843 18.83 7 25.5h319c-5.315 61.242-14.626 122.223-30.065 181.73-12.556 42.852-27.766 85.022-48.61 124.604-29.813 57.686-70.02 109.768-116.3 155.141-23.005 23.214-48.499 43.834-74.397 63.699-25.8 17.99-51.047 37.743-78.628 52.826zm16-1762.25c2.317 4.456 3.074 11.572 5.283 17.17.75 4.381 1.847 9.264 8.1 8.555 14.583.07 29.153-.013 43.725.025H1190v106.2c-.727 25.012-.55 51.408 12.374 73.846 8.783 14.775 23.658 24.733 39.81 29.855 55.133 15.722 113.516 10.829 170.007 12.099 102.972-.755 206.03 1.418 308.96-1.988 36.132-1.62 72.758-3.113 108.085-11.567 14.043-3.406 28.524-8.991 38.604-19.487 9.57-9.994 13.662-27.38 11.45-39.652-6.532-29.05-38.554-36.403-60.457-42.822-13.268-4.098-23.815.133-35.773 2.6-45.267 10.26-91.833 11.546-138.071 12.172-72.873 1.172-145.772.564-218.648.744h-55.163c-12.705-.305-26.222.64-38.238-4.446-9.491-5.628-6.552-18.055-6.94-26.232V814h585c8.659-.005 19.347-.012 26.573-3.836 3.687-1.637 6.42-3.85 8.074-6.873 2.678-6.165-8.157-11.031-11.145-14.889C1898.018 758.98 1860.798 729.467 1823 702c-1.364 4.772-7.347 9.087-10.27 14.076-13.04 17.03-26.562 33.675-39.815 50.531-5.192 6.147-9.59 12.981-15.1 18.855-5.29 4.417-15.491 1.505-23.014 2.538H1563v-80c7.835-1.665 16.108-2.801 23.139-7.013 8.116-4.312 10.113-11.216 12.861-18.487-57.17-4.54-114.758-8.027-172-12.5v118h-373zM1224 1590c15.898-.359 31.992.9 47.752-1.622 21.777-3.156 43.28-9.687 63.087-19.308 9.126-4.61 20.258-10.377 26.432-17.733 4.087-4.25 3.899-10.376 3.729-15.887V1518h291v67c41.924.983 84.093-5.666 122.609-22.885 9.01-4.058 21.4-8.285 20.391-18.833v-367.77c.223-5.161-.304-10.381.243-15.526-.044-3.533 3.961-4.453 6.955-5.072 8.161-3.028 18.201-7.15 24.802-15.414-40.018-31.746-81.436-61.833-121.5-93.5-14.728 14.47-28.013 30.271-42.732 44.733-6.325 6.5-11.719 14-18.97 19.591-3.225 2.562-9.139 1.29-13.643 1.676h-222.797c-17.686-.334-36.096 2.076-52.586-5.227-44.966-17.078-89.73-34.998-134.772-51.773zm141-354h291v-98h-291zm0 127h291v-101h-291zm0 129h291v-104h-291zm218 218.75c37.082 43.656 73.797 90.645 93.212 145.41 1.322 3.22 2.27 8.25 4.477 10.332 24.543 14.531 55.568 17.797 81.53 5.094 25.601-11.866 41.475-39.56 41.372-67.226-.883-21.225-11.607-40.639-27.324-54.593-21.603-20.872-56.478-32.356-82.68-37.928-33.094-6.514-67.22-6.646-100.783-5.111-3.697-.631-7.407 1.938-9.804 3.272z" style="fill:#fda;fill-rule:evenodd;stroke:none"/><path d="M1036 2550.5c1.132 4.806 7.251 7.973 8 12.5 66.588-18.996 131.087-46.102 192.168-78.602 44.584-24.498 87.31-53.246 124.4-88.213 56.455-51.33 99.534-116.874 125.97-188.302 13.542-37.267 25.123-75.435 32.391-114.446 8.212-39.723 12.488-80.338 17.571-120.437 7.787 59.867 15.193 121.354 29.157 180.511 20.656 82.554 49.93 164.43 98.174 235.216 46.796 69.688 110.074 129.025 185.169 167.273 4.914-33.212 15.076-66.657 37.467-92.6 22.07-25.26 53.73-41.07 86.533-46.4-.302-4.568 1.53-11.546-4.284-13.529-4.77-1.72-9.632-3.225-14.419-4.867-49.473-16.326-97.698-36.851-143.184-62.241-66.406-36.599-125.571-86.764-170.009-148.302-47.284-62.834-72.818-138.841-88.104-215.061h312c17.419-.007 34.833.008 52.237-.004 13.041-.1 33.814.336 38.763-16.996-45.639-38.02-93.3-75.362-139.5-113-14.203 16.01-25.345 34.566-39.316 50.792-12.234 17.278-26.627 33.624-38.184 51.208h-200c1.53-41.627 5.425-83.135 6.222-124.797 3.678-42.278 1.627-84.946 4.778-127.203 8.551-.37 18.509-3.53 24.68-8.407 3.212-2.77 6.3-5.853 8.303-9.628 2.229-3.255 2.477-8.71 4.017-11.465-63.839-5.394-128.05-10.76-192-15.5-1.525 98.986-1.483 198.184-8 297h-328c1.076 9.593 6.098 18.395 7 28h319c-6.033 61.053-14.61 122.058-30.54 181.37-12.6 42.862-27.861 84.995-48.902 124.506-29.97 57.594-70.287 109.474-116.66 154.726-45.75 45.046-98.392 82.832-152.898 116.398zM1189 815v106.2c-.727 25.012-.55 51.408 12.374 73.846 8.783 14.775 23.658 24.733 39.81 29.855 55.133 15.722 113.516 10.829 170.007 12.099 102.896-.794 205.845 1.445 308.692-1.953 36.248-1.246 72.891-3.256 108.402-11.122 14.007-3.566 28.619-8.355 39.178-18.644 10.264-9.805 14.343-25.365 13.362-39.315-3.384-30.003-35.915-39.984-57.968-45.57-12.058-4.65-24.846-2.007-36.811.889-45.253 10.2-91.617 12.633-137.91 12.908-72.849 1.205-145.742.678-218.597.807h-55.162c-12.998-.181-26.545.716-39.02-3.809-11.083-4.906-7.835-15.655-8.357-25.076V815h553.8c13.192-.119 26.41.148 39.597-.088 10.14-.273 24.37-2.425 28.603-15.443-39.73-35.644-83.69-66.424-125.5-99.469-13.829 18.251-28.426 35.958-42.494 54.03-5.31 6.774-10.587 13.562-15.886 20.339-4.717 5.615-8.216 13.727-18.127 12.631H1564v-78c8.087-1.888 16.871-2.777 23.988-7.57 7.18-4.394 11.258-12.234 12.012-20.43-58.06-2.916-115.962-8.686-174-12v118h-373c1.707 8.342 5.084 18.008 7.269 25.493 1.773 4.173 10.136 1.62 13.29 2.507H1189m34 776c16.214-.467 32.634.952 48.72-1.455 21.979-3.172 43.716-9.48 63.702-19.268 9.137-4.582 20.266-10.27 26.522-17.56 4.615-4.84 4.105-10.47 4.056-16.267V1519h289v67c42.584 1.2 85.486-5.361 124.609-22.885 9.369-4.008 21.703-8.568 20.391-19.402v-370.2c.196-4.956-.465-10.228.808-15.028 5.557-3.321 12.257-3.32 17.793-7.376 5.495-3.324 10.73-7.198 15.399-11.609-21.644-15.728-42.598-32.789-64.077-48.813-18.72-14.078-36.999-28.707-55.842-42.612-5.098-4.851-8.884-.121-12.183 3.527-13.903 14.88-28.332 29.27-41.806 44.524-6.024 6.61-13.295 15.686-21.552 14.874h-225.975c-17.97-.203-36.548 2.004-53.282-5.402-45.324-17.686-90.988-35.026-136.283-52.598zm143-356h289v-96h-289zm0 127h289v-99h-289zm0 129h289v-102h-289zm215 219.5c36.356 42.583 72.53 88.05 92.43 141.302 2.582 6.568 3.352 15.109 10.091 17.907 23.477 11.92 51.538 15.141 76.082 4.437 23.61-9.898 41.625-33.138 44.343-58.809 3.728-22.286-6.034-44.394-20.718-60.549-21.98-23.85-53.698-35.51-84.378-43.122-34.18-7.079-69.485-7.673-104.248-6.092-6-.673-8.935 1.41-13.602 4.426z" style="fill:#000;fill-rule:evenodd;stroke:none"/></svg>