<svg xmlns="http://www.w3.org/2000/svg" width="3000" height="3000"><path d="M364 2760.5v1.5h2272v-1.5c-68.931-409.09-136.257-818.54-204.874-1227.691-51.076-306.848-102.33-613.661-153.4-920.497-4.868-28.824-9.564-57.688-14.431-86.508-1.116-7.008-2.365-13.985-3.488-20.978-1.2-6.774-.246-15.245-9.425-16.859-109.868-36.632-219.702-73.24-329.563-109.867-95.996-32.013-192.02-63.992-288-96-41.993-13.978-83.98-28.011-125.966-41.994-5.663-2.605-10.407-1.693-15.513.621-156.173 52.06-312.354 104.114-468.521 156.173-58.68 19.531-117.334 39.097-175.992 58.657-25.668 8.506-51.298 17.139-76.962 25.643-6.176 2.075-12.369 4.11-18.537 6.195-3.02 1.124-6.483 1.813-8.8 4.255-62.934 375.423-125.132 751.075-187.889 1126.544C490.857 1998.664 428.048 2380.37 364 2760.5m658-1170c1.663 1.15 4.898 3.079 7.192 4 2.379-.008 4.69-2.922 7.069-4.186 58.82-42.164 108.717-96.764 142.616-160.865 42.478-77.373 64.457-164.48 73.669-251.86 9.4-93.536 8.44-187.697 8.454-281.589 56.667-.095 113.424.826 170-3v103c-12.769-.658-28.568 1.67-39.622-3.04-34.23-12.868-67.948-27.836-102.378-39.96v348c25.29.926 50.75-2.085 74.333-11.78 10.012-4.507 23.143-9.634 29.336-18.184 2.408-6.116.698-13.095 1.331-19.465V1232h37v167c-74.789 4.714-150.162 3.89-225 6.5 22.812 49.307 46.017 98.832 68 148.5 8.204-.562 15.283-5.911 20.869-11.408 4.25-5.02 7.564-12.142 15.767-13.616 107.075-31.495 213.1-67.11 318.364-103.976 4.89 18.844 9.353 37.915 11.668 57.283.986 7.733 1.794 15.485 2.115 23.268.791 6.631-1.221 15.271 3.04 19.682 15.634 14.756 36.601 26.69 58.944 24.493 21.176-1.734 40.869-14.96 51.426-33.263 20.442-34.686 11.573-78.983-9.765-110.801-15.576-24.036-37.56-43.384-60.883-59.631-23.57-16.103-49.84-27.819-76.193-38.482-4.873-1.783-9.7-3.677-14.568-5.436-3.766-1.234-11.238-.648-11.286 4.16 13.272 27.188 26.515 55.462 34.502 84.727-20.997.689-42.024 1.867-63 3v-162h39v43c31.61.973 63.357-4.626 92.34-17.66 5.972-2.797 16.148-5.228 15.65-14.24.03-25.397-.006-50.797.01-76.18V1033c4.942-.491 10.623-2.534 14.88-4.017 4.277-1.539 9.386-5.41 13.12-5.983 1.041 85.67 6.714 171.303 17.136 256.339 8.625 61.217 20.04 122.76 43.152 180.38 15.998 39.72 46.216 81.275 75.71 107.05 12.677 10.788 28.081 18.186 44.433 21.218 15.24 2.704 31.005-.146 44.88-6.694 11.348-4.9 21.915-12.797 25.221-25.406 7.637-21.922 3.976-49.835.884-70.21-2.849-17.534-8.122-34.464-12.94-51.493-1.174-13.675.84-27.512 1.388-41.172 2.155-41.272 4.382-82.505 7.01-123.735.358-5.295.524-10.614.79-15.909.807-4.559-.454-11.395 1.336-14.868-2.387-1.91-6.618-1.344-9-1.5-6.488 31.981-16.152 63.41-25.082 94.776-2.408 6.564-4.185 13.357-6.82 19.838-2.356 5.803-6.218 13.084-14.988 10.913-11.188-5.294-16.472-21.382-21.489-31.477-17.514-47.85-22.973-99.065-28.468-149.353-7.689-79.776-8.924-159.935-8.153-240.033.133-40.042 1.282-80.11 3.98-120.047.816-19.345 2.768-38.633 3.943-57.948.283-2.086.537-4.915 1.986-6.374 14.528-5.347 32.206-6.977 43.091-19.795-21.817-18.106-43.336-36.587-65.194-54.637-10.884-9.101-21.633-18.366-32.618-27.342-10.79-8.16-22.112-20.08-32.688-26.521-18.175 20.666-36.264 41.455-54.415 62.14-4.103 4.594-8.1 9.248-12.285 13.754-3.793 4.556-12.309 2.683-18.581 3.106H1289.91c-7.963.615-15.405-2.187-22.41-5.731-49.085-18.96-97.18-41.128-146.5-59.269v252c-.662 123.108 2.085 246.632-9.428 369.373-5.862 57.446-14.596 114.82-28.875 170.816-13.346 53.955-34.718 106.522-60.697 155.311m131 689.5c-.092 15.156.48 30.974-5.15 45.4-8.298 25.377-24.946 47.627-45.203 64.703-16.718 14.61-39.5 21.112-54.88 37.63-15.063 13.564-26.31 32.836-24.737 53.742.77 17.745 7.257 35.541 18.698 49.157 21.15 23.658 58.077 32.086 87.375 20.332 21.815-8.42 39.078-26.135 50.49-46.128 18.753-31.596 22.597-69.922 19.663-105.793-3.255-35.564-14.524-69.927-29.335-102.226-1.79-3.934-3.318-7.969-5.414-11.751-2.126-5.267-6.696-5.491-11.507-5.066m13 0c30.517.068 61.66-.253 91.026-9.587 12.995-4.425 25.906-9.446 37.415-17.046 5.507-3.96 13.037-8.352 14.941-14.161 1.392-7.624.05-15.525.618-23.206h480c-1.87 36.564-7.455 72.912-12.521 109.13-4.687 27-9.188 54.151-16.93 80.487-5.342 17.91-12.426 40.052-24.534 52.86-12.098 12.858-27.008 12.994-42.071 12.523-47.385-.069-94.852-3.429-141.944-8 .515-4.648 4.922-9.655 6.376-14.951 8.59-20.451 6.402-43.8-2.46-63.771-12.567-28.285-36.224-50.314-61.642-67.112-26.636-16.533-56.217-29.075-86.39-37.455-3.29-.439-7.261 2.235-8.884 4.289 23.543 44.752 38.596 94.487 45.093 144.612.861 7.007 1.043 14.078.907 21.125.205 5.725-1.216 12.46 3.17 16.865 14.237 12.675 32.696 22.672 52.249 22.397 19.674.973 37.607-10.355 49.581-24.999h2c.217 2.714-.408 7.494 2.174 8.604 3 .84 6.038 1.912 9.153 2.368 30.837 7.198 62.741 16.624 87.646 37.215 13.02 9.904 21.608 24.637 25.28 40.35 3.783 16.877 3.798 34.275 4.747 51.463 33.348-.728 67.22-1.7 99.63-10.448 22.551-6.122 43.819-17.052 61.825-31.9 25.79-23.262 41.002-55.99 51.616-88.386 11.062-34.726 18.149-70.616 23.897-106.555 6.128-41.74 11.951-83.621 15.032-125.711 14.57-1.205 30.569-6.093 40-18-39.259-33.87-79.852-66.54-119.5-100-16.816 14.32-32.037 30.37-48.53 45.021-6.187 5.554-11.853 11.657-18.325 16.883-5.704 6.939-14.928 4.918-22.265 5.096H1593v-123h237.6c9.224-.224 20.21-.04 28.538-1.82 3.73-.895 7.863-3.003 10.443-5.393 2.056-2.232 6.298-6.518 4.003-9.023-39.826-33.294-81.75-64.86-124.084-94.764-20.174 23.08-38.438 47.829-58.262 71.213-4.438 5.854-9.001 14.145-18.243 12.787H1593v-125h219c12.211-.026 24.44.031 36.641-.017 9.595.01 22.797-2.842 26.359-14.522-39.615-34.74-83.299-64.45-125-96.461-20.346 23.191-38.642 48.371-58.815 71.764-4.665 5.481-9.043 14.196-17.97 13.236H1593v-123h256.2c10.569.052 21.178.255 31.683-1.024 6.768-.885 16.989-3.895 20.026-11.553 1.391-3.373-3.11-5.86-5.168-8.096-20.259-16.74-40.998-32.882-61.948-48.744-10.46-7.9-20.77-16.033-31.366-23.742-10.678-6.817-21.57-17.789-32.083-22.841-15.782 19.266-31.344 38.729-47.113 57.994-6.923 8.536-13.9 17.04-20.727 25.65-3.659 5.527-8.865 5.909-14.587 5.356h-344.255c-7.919-.366-17.688.96-24.614-1.78-51.197-17.794-101.685-38.086-153.048-55.22zm98 5c5.472 39.098 7.952 78.956 4.042 118.36-1.142 14.857-3.132 29.661-5.893 44.294-1.799 12.702-6.12 25.17-8.663 37.59 8.938 18.143 31.246 32.761 48.978 36.568 16.752 3.242 34.386-1.555 48.275-11.122 19.257-14.055 31.58-36.332 34.401-59.89 3.115-24.893-2.955-50.249-14.82-72.137-20.97-40.408-56.424-71.48-95.128-94.385-3.669-1.53-7.401.352-11.192.722m-3-1406c11.363-.597 22.118-5.33 33.155-7.6 81.587-22.355 161.475-50.828 239.137-84.309 18.931-8.215 37.604-16.978 56.216-25.855 7.137-3.632 13.883-8.065 21.373-11.008 5.922-1.946 10.817 7.375 15.852 11.005l51 51 25.5 25.5 12.742 12.742c4.312 3.419 8.11 9.825 13.025 10.525.14-21.2.387-42.388.55-63.573.335-20.82-.075-41.67 1.45-62.427h-470zm49 1010h141v-123h-141zm0 151h141v-125h-141zm0 150h141v-123h-141zm84-985h37v-183h-37zm146 1064.5c21.269 18.686 40.019 39.995 55.191 63.981 15.497 23.969 28.682 50.194 33.809 78.519 12.28 5.108 24.33 12.105 38.185 12.395 19.049 2.235 41.082-9.206 51.015-23.15 12.042-15.267 16.572-36.641 11.195-55.372-9.794-34.144-41.978-54.83-73.4-66.004-18.629-6.627-38.1-10.685-57.762-12.563-10.19-1.06-20.355-2.222-30.615-2.28-9.49.18-21.769-1.99-27.618 4.474M1555 996c9.19-.208 18.414.257 27.59-.148 5.248-.581 9.417-6.955 13.885-10.827 12.626-12.748 24.4-26.278 37.025-39.025 15.488 12.716 32.218 23.927 48.076 36.161 8.013 5.988 15.992 12.017 23.997 17.998 3.94 3.09 8.035 5.954 12 9 3.664 2.739 8.001 6.738 12.427 6.841-1.67-22.816-.664-45.737-1-68.585V879c-14.869 2.324-29.908 1.363-44.18-3.622-5.154-1.364-10.106-4.538-15.628-3.993C1631.281 877.01 1593.2 882.056 1555 885zm0 209h39v-183h-39z" style="fill:#fedda9;fill-rule:evenodd;stroke:none"/><path d="M1021 1592c2.798.821 5.787 3.35 8.5 5 49.026-35.819 94.694-78.148 128.074-129.335 53.097-79.52 81.354-173.003 93.361-267.162C1263.89 1099.9 1261.504 998.167 1262 897c55.986-.19 112.119.97 168-3v101c-12.735-.155-28.279 1.372-39.15-3.651-34.374-13.193-68.323-27.634-102.85-40.349v351c25.812 1.001 51.76-1.74 75.882-11.588 10.136-4.557 23.51-9.719 29.787-18.376 2.408-6.116.698-13.095 1.331-19.465V1233h35v165c-75.11 4.709-150.833 3.9-226 6.5 23.252 49.918 46.597 100.207 69 150.5 8.163.106 15.616-4.573 21.355-9.904 5.392-4.638 8.07-12.516 15.256-14.467 106.537-32.808 213.521-65.412 317.889-104.629 7.627 23.127 10.966 47.684 13.72 71.811.328 4.98.718 9.965.768 14.948.084 4.019-.715 9.687 2.504 13.105 10.938 10.773 24.586 19 39.372 23.098 23.704 7.17 49.826-2.945 65.596-20.945 16.026-17.118 21.356-45.917 18.811-66.495-3.905-35.332-23.367-67.06-49.4-90.43-19.517-18.834-42.485-33.97-66.704-46.02-11.517-5.884-23.301-11.18-35.314-15.94-6.03-2.494-12.116-4.817-18.232-7.044-3.035-.31-7.104-3.435-9.58-2.113-3.06.633-5.585 2.502-8.041 4.275 14.455 27.389 26.026 56.434 36 85.75-10.283-.069-20.518 1.037-30.792 1.307-10.074.518-20.193.4-30.208 1.693v-160h37v43c32.418 1.092 65.062-4.19 94.749-17.844 6.625-2.586 16.36-5.8 15.25-15.255q.001-38.702.001-77.381V1034c8.773-.957 19.127-5.01 25.5-10 2.718 88.304 6.507 177.225 18.84 264.923 9.456 62.953 21.802 126.525 47.717 185.045 9.406 20.825 22.287 39.645 35.9 57.87 21.63 28.188 55.679 63.774 102.442 57.398 14.142-2.128 30.781-8.893 40.145-18.373 8.829-9.555 11.567-25.189 12.334-36.54 1.017-24.797-2.108-49.621-8.704-73.548-1.992-9.147-5.262-17.929-7.57-26.978-1.793-16.405 1.857-33.005 1.645-49.428 3.35-48.901 4.87-98.036 8.751-146.869-2.66-2.013-7.305-1.282-11-1.5-6.488 31.981-16.152 63.41-25.082 94.776-2.408 6.564-4.185 13.357-6.82 19.838-2.253 5.292-6.578 13.93-14.508 10.2-10.51-6.39-15.631-21.759-20.481-32.105-17.094-47.838-22.72-98.845-28.034-149.026-7.656-79.637-8.824-159.658-8.075-239.613.003-39.907 1.595-79.824 4.056-119.628 1.32-19.464 2.39-38.988 4.233-58.41.546-5.098 6.613-5.616 9.933-6.327 13.064-3.206 26.466-8.054 35.778-18.205-44.476-36.31-87.518-74.955-132.5-110.5-18.605 20.512-36.372 41.844-54.853 62.465-4.161 4.643-8.27 9.324-12.413 13.973-3.9 5.077-12.239 3.209-17.828 3.562H1289.18c-7.944.356-15.192-3.347-22.294-6.417-49.268-19.07-97.466-40.98-146.886-59.583v253.2c-.646 123.644 2.087 247.691-9.63 370.96-5.838 57.56-14.791 114.971-29.185 171.044-6.645 27.34-15.777 53.938-26.09 80.071-4.968 12.856-10.972 25.265-16.368 37.923-4.626 12.605-14.577 25.903-17.727 37.802m131 687c-.123 15.312.519 31.374-5.361 45.91-8.293 25.39-25.195 47.55-45.448 64.574-16.78 14.466-39.564 20.947-54.793 37.618-15.222 13.648-25.976 33.156-24.387 54.092-.023 17.484 7.774 37.49 18.066 49.627 20.797 24.402 58.388 32.614 88.138 21.888 22.165-7.954 39.801-25.41 51.537-45.39 19.363-31.23 22.816-69.264 20.856-104.99-2.801-35.63-13.331-70.406-28.03-102.855-2.252-4.769-4.242-9.653-6.544-14.382-2.42-6.694-8.15-6.705-14.034-6.092m13 2c30.624.036 61.89.056 91.432-9.118 13.465-4.2 26.58-9.77 38.55-17.217 5.652-4.028 13.433-8.528 15.4-14.46 1.392-7.623.05-15.524.618-23.205h478c-2.502 36.299-7.301 72.482-12.75 108.45-4.55 26.768-9.203 53.645-16.864 79.729-5.258 17.736-12.414 39.611-24.37 52.298-11.922 12.646-26.602 12.978-41.471 12.523-24.073.135-48.107-1.077-72.117-2.471-11.516-.553-22.997-1.862-34.504-2.56-5.817-.375-11.592-1.187-17.423-1.381-5.213-.798-12.058.203-16.501-2.088 11.256-17.08 14.344-38.902 9.87-58.663-3.75-19.691-13.907-37.49-27.04-52.401-17.966-19.089-38.817-35.657-62.66-46.855-12.27-6.178-24.905-11.657-37.825-16.302-6.493-2.314-12.909-4.858-19.52-6.839-3.181-1.019-6.484-2.213-9.878-1.96-3.216.202-6.133 2.976-8.947 3.52 23.187 45.85 39.707 95.89 46.03 147.033.88 7.004 1.102 14.06.97 21.105.023 5.8-1.04 13.48 3.17 17.464 14.498 13.06 33.461 22.987 53.439 22.398 19.422.736 38.539-9.434 49.891-25 .658 1.956.356 4.716 1.008 6.9 2.11 3.72 9.807 2.795 13.1 4.552 30.787 7.265 62.299 17.116 86.921 37.942 12.587 10.13 20.55 24.665 24.007 40.197 3.37 16.595 3.638 33.559 4.464 50.409 33.63-.694 67.795-1.541 100.52-10.143 22.933-6.16 44.641-17.064 62.935-32.205 26.116-23.483 41.225-56.643 51.941-89.346 10.94-35.148 18.227-71.382 23.868-107.725 6.002-41.027 11.737-82.203 14.736-123.581 14.918-1.298 32.163-6.453 41-19.5-40.373-33.967-81.095-67.584-121.5-101.5-16.396 14.812-32.497 29.919-48.485 45.17-6.385 5.2-11.707 11.58-18.197 16.653-6.025 7.332-13.428 6.846-21.642 6.177H1594v-121h220.8c12.231-.01 24.472.229 36.674-.656 10.933.336 21.562-5.342 25.526-15.844-41.099-34.17-84.125-66.422-127.5-97.5-20.387 22.82-38.319 47.802-58.269 70.994-5.26 6.088-9.387 14.79-17.436 14-26.603.017-53.2-.003-79.795.006v-123h220.8c12.21-.082 24.427.102 36.633-.058 12.263.383 20.86-5.394 25.567-15.442-40.262-35.63-84.868-65.922-127.5-98.5-19.695 23.64-38.543 47.983-58.316 71.556-4.971 5.72-9.95 14.815-17.161 14.434-26.669.03-53.357-.006-80.023.01v-121h241.8c13.269-.244 26.554.401 39.795-.471 10.192-.18 24.238-3.012 28.405-16.06-21.335-18.238-43.63-35.357-65.914-52.395-22.677-16.373-44.317-34.67-67.586-50.074-16.439 18.927-31.478 39.05-47.635 58.197-6.914 8.574-13.849 17.086-20.749 25.654-1.443 2.107-3.358 3.819-5.421 5.27-11.297 2.216-23.482-.165-34.968.879h-328.661c-12.86.475-28.344-8.303-42.652-12.44-41.854-14.984-83.503-30.816-125.414-45.56zm98 3c4.674 38.474 8.382 77.446 4.239 116.214-1.472 28.727-7.896 56.926-14.892 84.628-.002 4.333 4.704 8.198 7.568 12.052 11.953 14.479 29.446 25.321 48.447 26.832 15.134 1.274 30.45-3.35 42.97-11.743 17.224-12.183 28.808-31.129 33.262-51.565 5.085-22.079 1.881-45.333-5.78-66.345-18.733-48.17-58.542-84.232-101.76-110.451-5.03-2.626-9.338-.14-14.054.378m-1-1406c61.849-13.635 121.818-35.233 181.457-56.175 58.705-21.12 115.5-46.853 171.127-74.825 37.53 37.769 75.334 75.291 112.916 113 3.114-41.009-1.187-82.911 2.5-124h-468zm49 1010h139v-121h-139zm0 151h139v-123h-139zm0 150h139v-121h-139zm84-985h35v-181h-35zm143 1065.313c4.544 6.178 11.027 8.942 15.475 14.662 18.162 17.533 33.033 38.096 46.274 59.465 12.844 21.52 23.716 44.74 28.251 69.56 12.588 5.262 24.98 12.318 39.19 12.515 19.752 1.518 40.567-7.78 52.334-23.67 12.117-15.824 16.387-37.743 10.875-56.943-10.091-34.844-43.333-55.868-75.585-66.804-19.091-6.643-39.08-10.327-59.17-12.12-10.176-1.01-20.345-2.063-30.592-1.977-8.888.037-19.787-2.757-27.052 5.311M1556 995h15.6c4.338-.733 10.5 1.148 13.663-1.29 12.115-10.217 21.84-22.972 33.34-33.812 4.48-3.677 8.39-9.302 12.207-12.899 3.645-3.77 9.404 3.443 12.622 5.047 27.97 21.054 56.37 41.552 84.068 62.954h1.5c-2.054-22.289-.279-44.747-1-67.09V880c-14.801 2.86-29.954.856-44.18-3.622-4.668-1.223-9.984-4.344-14.577-3.831-37.605 5.468-75.352 10.615-113.243 13.453zm0 209h37v-181h-37z" style="fill:#000;fill-rule:evenodd;stroke:none"/></svg>