<svg xmlns="http://www.w3.org/2000/svg" width="3000" height="3000"><path d="M364 2760.5v1.5h2272v-1.5c-68.931-409.09-136.257-818.54-204.874-1227.691-51.076-306.848-102.33-613.661-153.4-920.497-4.868-28.824-9.564-57.688-14.431-86.508-1.116-7.008-2.365-13.985-3.488-20.978-1.2-6.774-.246-15.245-9.425-16.859-109.868-36.632-219.702-73.24-329.563-109.867-95.996-32.013-192.02-63.992-288-96-41.993-13.978-83.98-28.011-125.966-41.994-5.663-2.605-10.407-1.693-15.513.621-156.173 52.06-312.354 104.114-468.521 156.173-58.68 19.531-117.334 39.097-175.992 58.657-25.668 8.506-51.298 17.139-76.962 25.643-6.176 2.075-12.369 4.11-18.537 6.195-3.02 1.124-6.483 1.813-8.8 4.255-62.934 375.423-125.132 751.075-187.889 1126.544C490.857 1998.664 428.048 2380.37 364 2760.5M939 1259c34.779.56 69.634 2.47 104 8 1.15 20.582 5.48 40.778 9 61-18.943.91-37.718 4.827-56.251 8.513-17.647 4.811-36.446 8.431-52.749 16.987 5.47 10.119 7.801 24.507 13.5 33.5 24.145-8.972 49.038-16 74.621-19.508 9.652-.94 21.467-3.357 30.284-2.759 4.801 6.374 5.433 15.48 9.465 22.424 2.671 6.533 5.45 13.021 8.424 19.424 2.615 5.843 6.567 12.297 8.614 17.811 1.514 3.58-1.137 4.787-4.122 5.86-18.9 7.388-37.307 16.237-53.985 27.884-16.304 10.59-32.505 23.3-44.801 38.364 8.88 8.138 18.813 15.148 27.5 23.5 15.76-16.529 34.18-30.249 54.107-41.347 9.113-5.108 20.463-9.864 29.208-13.755 4.921-1.33 11.1-5.664 15.379-2.507 47.135 67.516 116.588 117.489 193.363 146.03 61.075 23.813 127.038 33.02 192.263 33.579 96.213.738 194.682-19.962 276.785-72.032 39.74-23.993 74.695-55.484 103.32-91.882 3.593-4.602 6.945-9.381 10.493-14.008 3.48-4.889 9.646-1.96 13.728-.418 32.262 12.582 62.548 30.891 86.354 56.34 8.719-8.334 18.612-15.37 27.5-23.5-14.483-18.842-38.512-35.121-57.11-46.128-7.71-4.622-15.524-9.125-23.9-12.443-6.906-3.746-16-6.53-22.105-10.277-1.452-2.821 2.516-6.974 3.045-9.49 6.196-12.332 11.82-24.953 16.912-37.775 2.054-4.49 3.185-10.324 5.5-14.24 2.197-3.763 9.628-.405 12.843-1.062 31.783 3.242 63.196 10.224 92.972 21.915 3.6-3.581 4.428-11.123 7.169-16.32 2.63-5.345 3.804-12.511 6.674-17.18-16.233-8.577-35.07-12.12-52.655-16.961-17.998-3.82-39.45-7.76-56.345-8.539 3.551-20.214 7.818-40.435 9-61 34.366-5.664 69.224-7.357 104-8v-37c-24.677-.28-49.36 1.017-73.873 3.686-5.635.43-11.254.955-16.837 1.782-4.743.586-12.316 3.36-12.234-4.202.081-22.773-1.683-45.568-5.674-68.009-2.662-21.173-9.417-41.514-14.883-61.961 4.832-19.778 12.684-38.77 16.862-58.753 20.245-79.536 28.893-163.334 15.45-244.831-6.545-33.33-15.778-68.136-37.857-94.994-10.15-12.057-23.41-21.568-38.993-24.962-32.213-7.094-63.333 9.64-89.304 26.433-47.65 32.025-87.196 74.156-122.66 118.857-3.87 4.95-7.725 9.893-11.47 14.931-3.425 4.95-6.893 11.844-15.12 8.884-50.28-13.846-102.67-19.669-154.729-19.861-44.988.32-90.29 4.722-134.178 14.794-4.803.939-9.532 2.184-14.212 3.561-4.332.344-10.176 4.137-13.534 1.248-44.397-55.198-90.986-111.6-152.226-149.208-23.254-14.34-51.464-26.234-79.354-19.422-22.94 5.834-41.117 24.085-51.57 44.809-20.25 38.442-27.455 82.246-29.985 125.11-3.557 66.551 5.081 133.147 21.73 197.507 3.981 15.422 8.423 30.714 13.538 45.783 2.139 5.256 3.708 11.29.715 17.517-6.493 20.281-11.197 41.057-14.222 62.127-1.517 10.62-2.877 21.25-3.623 31.945-1.217 11.036-.213 24.167-1.757 34.229-33.766-4.692-67.908-7.124-102-7zm234 1116c14.267 26.793 28.084 54.362 36.384 83.825 7.08 23.447 10.302 47.808 15.816 71.617 4.405 16.184 13.834 33.678 30.493 40.01 13.06 4.948 27.522 5.69 41.29 3.864 19.477-3.66 35.04-17.562 46.297-33.037 11.646-15.571 17.558-34.6 21.023-53.468 4.153-26.339 2.367-53.332-2.889-79.392a735 735 0 0 1-10.519-79.567c-4.303-45.095-7.62-90.26-8.674-135.552-.076-20.388-.06-40.87 1.27-61.21.695-4.654.612-9.538 2.27-13.996 7.96-14.084 17.914-27.167 27.507-40.168 38.261-49.848 84.866-93.034 135.578-129.867 38.403-26.56 80.513-51.59 127.539-58.497 19.12-1.722 39.436-.684 56.931 8.111 27.609 13.68 43.578 42.328 53.248 70.504 15.498 47.185 18.127 97.617 20.419 146.797.052 25.537 1.319 51.14-1.546 76.632-1.63 24.253-7.367 47.986-13.437 71.394-39.87-10.068-80.977-14.296-122.057-14.955-57.816-.728-120.185 20.195-155.558 68.491-36.228 47.224-28.723 121.376 16.493 159.821 31.015 27.971 73.58 40.142 114.627 40.638 42.11.05 85.317-6.044 123.679-24.262 20.677-9.258 38.963-22.919 56.005-37.57 6.547-5.826 12.317-12.415 17.84-19.186 1.054-1.1 2.428-2.779 3.972-3.482 3.396-.255 5.574 5.346 7.9 6.857 19.52 19.509 36.489 41.544 57.908 59.132 19.946 19.572 54.193 24.054 76.568 5.372 8.318-7.34 14.534-17.253 17.869-27.813 6.346-19.784 2.19-45.173-4.105-62.546-10.81-28.413-33.888-49.618-57.148-67.909-11.101-9.715-23.64-17.64-35.028-26.952-3.311-2.177.08-8.159.579-10.78 3.534-10.71 6.78-21.536 9.294-32.54 10.106-42.518 13.394-86.266 13.153-129.868-1.038-52.578-5.357-105.874-22.042-156.127-14.662-46.83-41.785-91.417-83.184-119.095-49.668-32.012-113.882-39.752-170.238-23.37-53.369 16.819-102.744 44.496-148.862 75.718-6.58 4.181-12.696 9.045-19.087 13.493-3.15 2.31-6.377 4.509-9.49 6.858-3.207 2.024-6.512 5.629-10.088 6.075.087-4.113 3.222-7.193 4.826-10.803 7.004-14.235 1.34-26.654-6.459-37.637-7.298-10.41-15.526-22.012-27.367-27.56 3.596-28.251 31.623-54.707 31.94-81.483 1.623-22.182-15.387-44.437-28.81-57.887-22.224-22.982-49.713-41.452-80.294-51.18-33.028-9.836-68.65-2.487-99.557 10.63-5.205 1.966-10.25 4.316-15.31 6.59-6.515 2.26-4.816 9.939-4.969 15.33 16.534 4.924 32.951 10.805 48.332 18.675 13.166 7.014 30.642 16.745 36.848 29.68 4.813 15.86 2.103 32.785 1.796 48.982-2.109 29.566-5.255 59.026-7.953 88.532-.474 6.324-9.168 7.932-13.841 10.237-22.401 9.064-44.934 17.774-67.889 25.291-20.245 6.814-40.699 13.346-61.811 16.9-9.707 1.146-21.476 1.14-30.146-1.238-16.793-5.172-29.21-18.085-41.069-30.292-4.748-7.007-15.473-3.818-15.358 4.952-.06 14.731-2.074 32.152.012 45.536 4.813 23.377 21.24 47.2 36.312 62.478 12.662 12.911 26.706 24.843 43.046 32.915 12.784 6.116 26.859 10.244 41.143 10.095 23.705-1.473 31.817-22.919 48.8-35.518 7.652-6.502 15.908-12.221 24.366-17.608 4.054-2.66 8.32-4.927 12.402-7.525 4.109-2.11 8.61-5.899 13.01-6.092-1.33 15.516-3.016 31.017-3.836 46.564.497 8.036-2.96 13.167-7.612 18.588-58.175 84.307-122.973 164.037-193.818 237.938-18.057 18.81-29.68 43.406-31.657 69.508-.862 19.758-.771 41.921 13.135 57.947 8.61 11.142 21.958 20.68 36.637 20.454 24.937 2.008 39.917-19.79 51.07-35.967a732 732 0 0 0 17.768-26.078c2.744-4.303 5.328-8.736 8.044-13.048 3.11-4.018 5.373-11.244 10.269-11.906m-94-1139c19.757 4.479 39.15 10.69 58 18-.704 6.148-5.028 12.299-7.186 17.375-2.904 5.241-4.729 12.337-8.314 16.625-11.921-5.888-27.7-10.047-39.5-13 .174 17.242 4.244 34.285 8 51 18.909.152 37.695 3.6 56 8-3.508 10.635-5.655 21.947-9.647 32.403-1.692 2.362-6.314.15-8.552.13-8.504-1.588-17.144-2.645-25.801-2.533 3.403 14.741 13.023 30.269 18.451 42.874 1.779 3.12 3.67 7.004 5.973 9.398 11.757-.637 23.964-4.743 36.042-4.236 3.71-.053 7.387-.447 11.034-1.036 2.579 3.71.895 10.283 1.5 15.259v11.874c.224 2.947-.123 5.833-.487 8.727-1.817 3.53-8.994 1.315-11.87 2.358-4.218.246-8.435.526-12.643.782.35 3.744 4.035 7.498 6.536 10.945 41.08 50.5 96.446 88.555 157.07 111.772 95.28 35.451 201.045 39.516 300.47 21.099 47.003-9.204 92.076-26.68 133.464-50.62 19.722-12.183 38.765-25.433 56.264-40.687 8.8-8.06 17.262-16.362 25.302-25.11 4-4.442 7.938-8.967 11.915-13.43 2.96-4.194 8.462-9.518 8.979-13.969-5.255-.299-10.483-.703-15.731-.927-2.946-.169-9.074.52-9.022-4.137-.577-5.848 0-11.769-.247-17.618.632-5.333-1.122-12.303 1.5-16.318 9.327 1.304 18.826.914 28.116 2.585 6.236.37 13.01 2.96 19.084 2.518 5.834-7.643 9.401-17.008 13.938-25.457 3.286-8.583 8.848-18.262 10.362-26.646-6.124-.235-12.187.311-18.2 1.376-4.185.29-8.229 1.395-12.352 1.993-4.047.837-4.839-2.92-5.523-5.648-2.605-9.233-5.323-18.5-7.925-27.721 18.284-4.47 37.118-7.802 56-8 3.71-15.88 7.842-34.955 8-50-6.998.033-13.536 3.15-20.21 4.786-6.42 2.302-13.183 4.22-19.29 7.214-3.836-4.668-5.083-10.88-8.034-16.057-2.645-5.867-6.519-11.454-7.466-17.943 18.83-7.407 38.18-13.687 58-18 .715-36.778-3.557-73.478-12.292-109.174-2.054-7.577-4.445-15.05-6.772-22.536-1.09-3.455-2.512-6.848-3.118-10.431 17.376-55.305 33.592-112.668 37.835-171.096 3.433-45.737 3.437-92.3-5.317-137.501-2.71-15.866-7.625-31.23-14.23-45.873-5.444-11.99-14.85-25.935-26.354-30.978-11.56-5.546-25.073-3.125-36.43 1.512-38.418 15.654-73.888 50.32-100.218 76.593-28.732 30.382-54.716 63.185-78.604 97.484-8.577-3.841-21.666-7.595-29.5-8-6.506 25.45-16.828 50.037-27.644 73.902-8.664 16.688-18.76 33.154-34.121 44.636-12.975 11.707-29.6 9.028-39.303-3.162-14.083-16.587-17.595-43.304-20.536-62.067-1.639-12.081-1.425-24.285-1.396-36.433.226-11.96-.56-23.994 1-35.876h-48c1.791 14.708.542 29.58 1 44.355.084 23.531-2.733 47.404-10.624 69.682-5.218 13.841-16.214 33.357-35.67 30.761-12.959-2.509-22.24-13.267-30.54-22.598-11.96-14.535-19.886-31.825-27.403-48.883-6.704-17.882-14.236-35.749-18.763-54.317-8.979.538-20.53 4.26-29.5 8-21.42-30.872-44.448-60.62-70.102-88.102-19.8-20.718-40.25-40.856-62.92-58.515-16.713-12.291-34.282-24.89-54.66-30.328-17.753-5.29-32.805.677-43.062 14.05-14.28 19.187-20.346 42.834-25.63 65.682-4.33 24.937-7.257 50.15-7.126 75.466-1.024 73.266 12.415 146.162 35.738 215.442 1.665 5.727 5.413 13.379 4.025 18.3-15.817 44.85-22.602 92.528-21.763 140.005m69-224c4.663-1.99 7.652-9.384 12.137-13.194 28.062-32.306 59.346-62.694 95.863-85.306-27.666-35.924-54.49-73.385-88.58-103.69-4.072-4.042-8.52-7.631-13.25-10.872-4.243-2.614-9.648-6.008-13.951-3.999-7.577 5.237-8.998 15.372-10.805 23.626-4.726 28.563-3.749 57.883-1.889 86.673 2.913 35.218 8.5 70.49 19.964 104.012.296.881.443 1.832.511 2.75m111 1225h-3c-13.373 23.085-28.833 45.524-42.654 68.465-5.774 8.959-11.046 18.21-16.988 27.058-2.174 4.15-5.23 7.812-7.169 12.083-2.808 3.138 4.917 6.797 6.423 8.462 12.99 8.267 26.437 20.51 38.19 28.238 4.957 2.437 12.132 4.097 16.802-2.018 5.277-10.167 3.896-22.142 4.54-33.114 1.328-34.84 2.507-69.693 3.836-104.537.02-1.534.02-3.11.02-4.637m-42.996-1026.114c-.357 20.046 6.763 39.625 19.949 54.441 12.562 15.172 33.48 22.533 52.688 17.197 30.46-9.03 47.535-42.924 46.356-72.793.609-29.983-17.941-63.365-48.76-70.916-19.485-4.194-39.822 3.977-51.847 19.709-11.918 14.577-18.9 33.186-18.386 52.362M1339 1409.458c17.22 18.144 45.225 30.352 67.414 34.286 25.822 4.75 54.382 1.143 76.037-14.726 3.348-2.473 6.68-5.005 9.765-7.794 2.876-2.427 5.788-6.714 9.397-5.497 20.852 21.137 50.811 33.843 80.965 29.453 28.901-2.784 57.675-14.989 78.422-35.68-7.905-8.753-16.915-16.347-25.344-24.5-4.91 1.87-9.596 7.82-15.385 10.351-32.538 19.181-99.2 24.178-104.271-33.351 16.042-5.02 33.157-16.145 43.17-27.986 9.994-11.999 23.546-31.708 7.26-48.887-19.109-16.714-46.223-18.249-70.21-18.127-14.71-.015-32.219 2.358-44.857 7.248-11.018 4.008-25.74 13.16-25.323 29.114.568 15.557 13.688 30.475 23.594 39.34 6.093 4.647 12.19 9.397 19.148 12.694 3.621 1.859 7.265 3.69 11.077 5.123 4.545 1.17 4.1 5.395 2.997 8.76-2.358 14.303-10.92 27.75-24.59 33.547-20.97 8.928-49.02 5.556-67.724-2.09-5.133-2.53-10.332-4.927-15.076-8.134-3.534-1.912-6.66-6.088-9.849-7.102-10.286 5.347-17.745 16.591-26.617 23.958m156.009 959.778c-1.332 29.693 27.405 44.932 49.734 48.535 28.884 4.371 64.004 1.654 89.715-5.621 27.387-7.03 51.05-24.071 68.41-46.019 3.278-4.72 13.537-13.678 3.641-18.133-48.05-28.642-107.841-44.65-163.216-28.594-11.677 3.816-23.358 8.453-32.918 16.342-9.916 7.44-15.59 22.165-15.366 33.49M1665 1210.853c-2.184 34.767 27.643 82.819 71.739 71.68 14.9-3.73 26.924-14.223 34.698-27.224 8.396-13.197 12.553-28.923 12.552-44.526.185-29.934-17.265-62.983-47.666-71.714-9.709-2.228-21.915-1.24-30.366 2.053-26.091 11.77-42.182 41.37-40.957 69.73m79-297.478c9.782 6.96 20.928 12.343 29.815 20.694 14.02 11.416 29.563 25.804 41.287 37.533 6.12 6.696 13.176 14.643 18.851 20.722 3.204 3.21 6.153 6.641 8.973 10.179 2.964 2.748 5.732 8.388 9.074 9.497 9.01-29.389 16.247-59.495 18.88-90.264 2.444-24.553 4.025-49.245 2.853-73.941-.419-8.864-1.138-17.703-2.656-26.448-1.272-7.057-2.506-14.382-5.954-20.775-1.747-2.64-4.502-6.145-7.433-6.15-6.104-.557-11.874 5.159-16.449 8.157-32.007 26.805-58.24 59.71-83.658 92.628-4.596 5.952-8.603 12.57-13.583 18.168" style="fill:#dcf;fill-rule:evenodd;stroke:none"/><path d="M938 1260c34.779.56 69.634 2.47 104 8 1.868 19.786 4.338 39.659 9 59-25.045.839-49.537 7.01-73.705 12.944-6.235 1.586-12.367 3.518-18.442 5.61-4.431 1.58-8.926 3.105-13.253 4.954-4.174 1.493-3.225 5.484-1.772 8.39 3.588 10.083 7.752 19.987 11.172 30.102 27.742-10.654 56.657-18.377 86.243-21.841 3.949-.523 7.96-.71 11.92-1.072 2.715-.066 6.839-1.202 8.38.662 8.084 20.114 15.263 41.013 26.457 59.751-38.153 16.949-77.973 36.868-105 70 4.784 4.546 10.247 8.328 15.035 12.862 3.774 3.168 7.552 6.344 11.392 9.412 3.222 3.143 6.354.357 8.547-2.248 7.656-7.79 16.117-14.69 24.902-21.153 18.083-13.65 38.519-23.857 59.685-31.712 2.342-.607 6.44-2.082 7.813.082 12.422 17.502 26.69 33.428 41.156 49.206 57.487 56.803 131.45 95.778 209.868 114.45 63.436 15.09 129.322 18.547 194.21 13.324 92.08-7.174 183.163-38.464 256.297-95.667 18.118-13.788 33.982-30.025 49.745-46.294 5.408-6.583 10.998-13.01 16.275-19.676 2.214-3.082 4.585-6.06 6.812-9.115 2.295-2.326 3.844-6.426 6.553-7.49 12.576 1.695 25.623 10.477 36.325 14.447 16.568 8.957 32.372 19.267 46.41 31.886 3.81 3.087 6.862 6.997 10.647 10.1 3.134 2.895 6.174-.19 8.542-2.286 4.275-3.39 8.325-7.033 12.479-10.552 3.413-3.781 9.467-6.593 11.307-10.576-27.69-32.61-66.678-52.371-105-69 7.049-12.503 13.055-25.905 18.475-39.222 2.163-5.085 4.142-10.212 5.776-15.484.768-2.233 1.63-4.543 3.345-6.24 36.146 1.494 71.687 10.901 105.404 23.446 2.195-7.064 5.343-13.906 7.76-20.914.934-5.553 5.469-11.198 4.205-15.939-14.25-8.21-31.446-10.582-46.956-15.54-19.5-4.175-42.67-8.892-61.009-9.607 4.688-19.312 7.112-39.244 9-59 34.366-5.664 69.224-7.357 104-8-.676-13.271.843-26.803-.5-40-3.329 1.781-8.728.505-12.99 1-29.361.69-59.014 2.303-88.01 7-2.641-3.835-.842-10.64-1.5-15.763-.12-40.218-8.983-79.744-19.992-118.123.542-9.04 5.35-16.972 7.25-26.066 22.382-72.317 33.541-148.111 30.343-223.83-1.147-32.624-6.2-65.191-15.812-96.382-8.839-27.015-22.124-55.608-47.352-71.196-25.057-15.807-57.275-10.467-82.09 2.194-45.97 22.292-82.808 58.95-117.485 95.368-15.058 16.503-29.165 33.825-42.86 51.463-3.187 3.726-6.056 9.026-9.621 11.846-1.497 1.708-4.863.28-7.263.02-84.995-22.768-175.347-24.825-261.908-10.414-15.986 2.774-31.748 6.468-47.4 10.68-7.115 2.415-11.612-6.676-15.253-11.443-33.913-43.964-71.836-85.345-115.765-119.462-16.324-12.206-33.598-23.268-52.297-31.478-17.814-7.242-37.776-11.539-56.872-6.305-32.228 7.965-50.6 39.028-61.508 67.61-18.634 48.58-20.613 101.26-20.103 152.552 1.614 50.545 9.841 100.705 22.457 149.612 4.011 15.25 8.314 30.396 13.428 45.303 2.39 5.988 2.889 10.758.396 16.41-6.284 20.228-11.057 40.876-14.008 61.844-1.47 10.61-2.871 21.244-3.566 31.931-1.166 10.846-.176 23.74-1.719 33.629-16.326-2.952-33.043-3.727-49.538-5.364-8.829-.882-17.703-1.08-26.56-1.47-8.542-1.384-18.985 1.33-25.902-1.166zm233.5 1116c18.398 32.115 33.758 66.498 41.922 102.806 3.419 14.858 6.13 29.841 9.035 44.798 2.616 12.039 6.325 24.304 14.288 34.02 12.495 18.353 41.023 20.253 60.484 17.81 31.554-6.61 53.695-35.988 62.832-65.129 10.761-32.713 9.318-68.056 2.644-101.355-9.583-51.673-13.093-104.244-16.78-156.57-2.326-42.465-5.017-85.432-.468-127.864 1.2-8.39 7.236-15.031 11.602-21.932 36.759-53.862 83.951-100.113 134.97-140.32 38.438-28.42 79.725-56.142 126.713-68.201 19.216-4.404 39.773-6.194 59.03-.687 31.618 7.426 52.708 35.866 63.704 64.808 18.186 47.928 21.942 99.995 24.319 150.717 1.696 51.346 1.021 103.666-15.295 153.099-26.635-7.975-55.006-10.98-82.701-13.158-41.354-3.995-84.623-3.083-123.498 13.437-34.971 14.026-67.81 39.059-83.228 74.53-19.035 41.66-12.618 94.146 17.299 128.852 30.269 34.35 76.285 51.502 121.432 52.253 37.642.707 75.867-3.326 111.449-16.22 32.63-12.234 63.136-31.74 86.659-57.582 3.25-3.65 6.367-7.457 9.588-11.112 13.77 15.89 28.648 30.794 42.976 46.177 10.275 11.612 22.36 21.82 35.157 30.517 20.875 11.712 49.894 9.255 67.46-7.318 8.174-8.286 13.53-19.036 16.577-30.153 2.531-12.09 2.255-24.725.386-36.88-2.463-20.147-11.964-38.716-24.494-54.376-12.301-15.628-28.204-27.839-43.428-40.35-10.329-8.537-21.53-15.96-32.134-24.117 20.6-56.732 25.806-117.734 24.89-177.63-1.047-44.601-4.804-89.44-16.59-132.653-8.175-30.573-20.163-60.533-38.267-86.669-26.088-40.219-68.668-67.703-115.406-77.104-25.011-5.087-51.095-7.082-76.42-3.255-24.105 3.066-47.055 11.372-69.243 20.88-52.274 22.855-101.477 52.935-146.464 87.931a3.6 3.6 0 0 1-.5-1.5c6.246-6.803 8.624-16.402 7.85-25.42-1.1-8.98-6.393-16.752-11.215-24.096-6.966-9.43-14.677-19.986-25.635-24.984.48-6.96 5.773-13.846 7.686-19.747 9.488-21.782 29.42-45.443 23.346-75.556-5.155-19-18.416-34.574-32.007-48.172-19.171-20.156-47.74-37.203-71.645-45.567-28.2-10.726-64.748-5.716-90.053 3.099-8.194 2.886-16.34 5.956-24.286 9.458-3.766 2.227-8.787 2.954-11.377 6.268-.926 4.642-.624 9.488-.664 14.217 19.14 5.394 37.689 12.764 55.213 22.148 12.533 7.602 30.708 17.27 32.176 36.72 1.954 31.927-3.717 63.843-5.531 95.629a615 615 0 0 1-1.85 17.403c-1.316 5.373.293 11.69-2.329 16.215-35.599 17.454-74.211 28.75-111.767 41.177-19.005 5.23-39.797 11.252-59.513 5.5-18.874-6.427-32.426-21.836-45.732-35.792-3.37 1.536-8.954 2.694-10.521 5.545-2.088 4.464-.95 9.788-1.582 14.506-.236 10.966-1.162 21.9-.404 32.814 3.949 29.753 23.61 54.71 44.21 75.005 21.331 20.777 50.34 37.47 81.121 35.659 17.863-1.67 25.63-14.722 36.111-25.631 10.337-10.684 22.669-19.118 34.986-27.281 7.835-4.312 15.31-9.938 23.412-13.617-2.15 14.845-2.76 32.54-3.922 46.229.163 7.983-4.407 12.581-8.391 18.262-58.206 84.551-123.612 163.95-194.268 238.248-18.201 19.024-29.58 44.908-30.355 71.317-1.146 19.455-.074 41.144 13.472 56.886 8.507 11.229 21.897 19.925 36.289 20.27 10.811.272 22.108-2.629 30.673-9.642 12.042-10.141 21.926-26.026 30.205-37.642 9.298-12.862 16.743-26.941 25.797-39.928M1080 1235c19.125 5.553 43.012 10.197 59 19.5-2.1 6.194-5.325 12.012-8.186 17.874-2.277 4.268-3.663 9-6.21 13.125-1.924 4.208-5.797 2.942-8.736 1.266-10.237-5.05-21.952-6.488-32.368-10.765-1.24 8.417 1.98 18.552 2.623 26.193 1.258 7.693 2.724 15.318 4.877 22.807 18.909.152 37.695 3.6 56 8-.555 6.203-3.31 12.022-4.592 18.075-2.05 6.065-3.428 13.578-5.908 18.925-4.605-2.156-10.908-2.138-15.352-3.357-5.777-.447-12.848-2.524-18.148-1.143 7.53 17.033 14.04 34.914 24.5 50.5 8.234-3.142 17.944-3.138 26.639-4.511 6.52-.441 14.26-.925 20.21-.957 3.155 3.495.693 11.32 1.651 15.386v12.527c.264 3.138-.144 6.214-.437 9.3-1.71 3.726-9.161 1.38-12.043 2.466-4.097.227-8.182.568-12.27.789 51.147 70.365 131.778 115.677 214.864 137.03 44.629 11.755 90.999 15.2 136.94 14.97 67.768 1.164 135.94-11.435 198.37-37.746 56.93-25.412 110.72-63.217 147.326-114.254-4.875-.29-9.747-.667-14.623-.9-3.424-.35-9.722.679-9.778-3.63-.863-7.397.049-14.951-.349-22.37.027-2.774-.042-5.54.046-8.298-.306-6.45 4.578-5.9 9.366-5.097 12.933 1.152 26.69 1.18 39.088 5.295 10.325-15.633 17.123-33.406 24.5-50.5-5.273-1.423-11.728.654-16.541.925-5.407 1.212-12.296 1.406-16.959 3.575-2.675-5.89-3.72-12.457-5.814-18.578-1.363-5.98-4.197-12.792-4.686-18.422 18.284-4.47 37.118-7.802 56-8 3.552-15.274 7.475-33.568 8-48-13.483.963-25.335 8.85-38.331 11.36-2.962.258-4.117-5.617-5.532-7.198-3.89-8.805-8.352-17.35-12.137-26.204 2.794-3.41 9.126-4.552 13.63-6.67 14.785-5.554 29.958-9.827 45.37-13.288.528-38.153-3.93-76.41-13.95-113.238-2.251-7.54-4.43-15.074-7.116-22.463-3.454-7.764 1.496-15.238 3.453-21.973 18.578-56.744 31.625-115.639 34.701-175.424 1.592-46.145.717-93.332-12.15-138.087-8.539-27.152-25.258-69.603-66.117-54.185-22.139 8.315-41.652 22.258-59.903 37.027-27.8 23.277-53.395 49.224-76.053 77.537-11.29 13.609-22.416 27.414-32.641 41.85-2.588 3.582-5.174 7.15-7.705 10.76-1.858 2.738-3.795 5.384-6.163 7.7-9.948-1.258-19.148-7.104-29.356-7.504-6.65 25.574-16.862 50.414-27.919 74.359-8.696 16.82-19.042 33.41-34.648 44.802-11.326 10.198-29.668 9.299-39.4-2.637-7.596-7.636-12.04-19.918-14.918-29.096-5.08-16.702-7.22-34.152-8.014-51.53-.229-9.318-.007-18.651-.101-27.96.413-8.684-.747-19.098 1-26.938h-46c2.422 14.72-.089 29.945 1 44.761-.04 23.755-2.802 47.928-11.044 70.345-5.148 13.888-16.686 32.307-35.628 29.93-13.48-1.545-23-12.71-31.498-22.021-12.152-14.62-20.37-31.99-27.881-49.261-6.778-18.02-14.362-36.032-18.949-54.754-8.586.622-16.553 4.409-24.712 6.717-4.405 1.698-7.529-1.078-9.216-4.698-18.445-25.35-36.69-51.176-58.397-73.913-18.006-21.25-38.2-40.561-59.65-58.274-18.396-14.705-37.697-29.286-60.097-37.337-9.847-3.547-21.21-5.012-30.893.023-18.145 8.117-26.596 31.552-32.58 46.857-11.228 34.84-14.792 71.644-15.455 108.053-.391 55.567 7.263 111.088 21.601 164.724 3.557 13.137 7.285 26.215 11.374 39.19 1.924 8.767 8.712 20.756 6.906 28.384-9.955 28.53-16.73 58.115-19.722 88.207A477 477 0 0 0 1080 1235m68.5-220c17.13-20.108 34.267-40.402 53.71-58.372 14.948-12.75 29.115-26.824 46.339-36.651 2.54-2.118 8.07-3.726 7.952-7.187-15.028-22.729-32.806-43.918-50.315-64.815-9.514-10.118-18.568-20.657-28.288-30.577-9.546-8.945-21.165-20.762-33.06-24.262-9.615-2.591-13.927 12.456-15.27 18.714-6.62 34.155-4.829 69.454-2.194 103.934 3.687 33.562 8.926 67.582 21.126 99.216m40.5 1331.375c13.03 9.938 26.844 19.117 39.434 29.677 5.484 4.268 15.389 10.597 21.4 1.758 3.795-7.42 3.894-17.55 4.168-24.965.173-20.606 1.781-41.14 2.136-61.74.406-17.216 1.484-34.401 1.862-51.605l-.5-1.5c-23.492 35.573-45.086 72.821-68.5 108.375m26.001-1135.398c-.574 20.308 6.554 40.28 19.952 55.35 12.98 15.66 34.138 22.378 53.672 17.453 31.3-8.511 48.738-43.351 47.375-73.663 1.082-30.534-17.653-64.995-49.252-72.407-19.77-4.138-40.475 3.241-53.013 19.384-12.407 14.94-19.487 34.22-18.734 53.883M1337 1409.458c17.467 18.864 46.23 31.497 69.047 35.396 26.644 4.763 56.085 1.124 78.271-15.46 6.315-3.24 10.292-9.822 16.182-13.394 19.194 21.902 48.434 32.694 77.245 30.686 28.72-1.281 56.421-12.482 78.522-30.717 2.37-2.017 4.534-4.279 6.733-6.469-8.772-9.31-18.143-17.99-27.656-26.5-9.611 6.619-18.618 14.895-30.306 18.115-17.437 6.695-40.354 8.04-56.784 2.78-8.585-2.46-16.991-9.2-21.94-15.558-5.702-7.325-7.391-16.553-9.314-25.337 16.2-5.066 33.486-16.322 43.493-28.375 9.918-12.254 22.943-31.539 7.976-49.433-18.93-17.775-46.888-19.304-71.26-19.192-15.165-.054-33.25 1.98-46.32 7.037-11.18 4-26.223 13.138-25.872 29.344-.512 15.165 11.677 29.931 20.872 38.941 10.465 10.365 23.936 16.42 37.111 22.178-2.621 11.337-5.457 23.864-15.21 31.587-14.915 12.35-35.751 13.88-54.136 11.049-8.957-1.356-19.134-4.755-26.5-8.563-4.16-2.047-8.375-4.064-12.02-6.963-3.525-2.345-6.98-6.453-10.798-7.61-9.077 8.795-18.782 17.128-27.336 26.458m374 943.042c-35.442-23.605-77.44-37.546-120.117-38.437-21.723-.58-43.285 3.686-63.023 12.62-19.402 7.065-34.787 26.528-31.494 48.035 2.174 17.843 17.093 32.272 33.482 38.005 27.893 8.4 57.94 7.463 86.376 2.502 27.316-4.424 53.217-16.9 73.146-36.095 8.143-8.048 15.326-17.118 21.63-26.63m-47-1141.564c-.725 20.045 5.983 40.433 19.619 55.164 6.578 6.986 14.117 13.54 23.492 16.431 9.4 3.163 21.253 3.3 29.872 1.23 31.403-8.147 48.658-42.966 48.014-73.167.537-30.582-17.504-64.506-48.786-72.785-9.589-1.904-21.284-1.04-29.834 1.752-27.435 11.299-43.895 42.329-42.377 71.375M1851.5 1015c16.753-45.025 22.002-93.894 23.496-141.612-.332-23.812.572-53.385-8.873-73.816-7.663-13.71-20.894-2.1-28.673 4.271-8.559 7.167-18.305 16.158-24.94 23.964-15.149 15.62-29.222 32.244-42.78 49.269-4.878 6.426-10.03 12.655-14.69 19.234-3.462 5.888-9.59 11.627-11.488 17.313 3.148 5.347 9.734 6.012 14.085 10.184 35.964 25.144 66.192 57.449 93.863 91.193" style="fill:#676667;fill-rule:evenodd;stroke:none"/></svg>