<svg xmlns="http://www.w3.org/2000/svg" width="3000" height="3000"><path d="M363 2763h2274c-116.777-706.336-235.544-1412.426-352.792-2118.701-7.351-44.171-14.733-88.332-22.082-132.49-.76-5.347-1.88-10.63-2.64-15.97-.062-6.502-4.856-8.386-10.16-9.572-81.497-27.15-162.975-54.317-244.46-81.467-142.336-47.478-284.708-94.881-427.04-142.357-13.532-4.49-27.037-9.017-40.56-13.514-6.477-2.17-12.972-4.309-19.44-6.486-6.235-1.594-13.427-5.493-19.495-5.034-100.387 32.434-200.209 66.92-300.466 99.791-150.35 50.002-300.828 99.614-451.039 150.05-5.982 1.452-6.275 6.662-6.798 11.742-24.43 146.388-48.84 292.799-73.214 439.189C565.92 1546.494 463.462 2154.662 363 2763m576-1504c34.793.333 69.628 2.575 104 8 1.046 10.243 2.24 20.522 3.665 30.72 1.085 9.902 4.315 21.231 5.335 30.28-19.102.5-37.852 4.944-56.54 8.42-16.973 4.993-38.095 9.339-52.46 17.08 5.47 10.119 7.801 24.507 13.5 33.5 33.988-13.32 70.109-20.76 106.5-23 3.89 15.765 11.47 30.603 17.762 45.502 2.48 5.588 6.59 11.948 7.708 17.449-3.827 4.344-9.84 4.416-14.645 7.315-32.814 15.218-64.718 34.312-88.825 61.734 8.588 8.54 18.913 15.427 27.5 24 15.362-16.479 33.388-30.116 53.184-40.828 9.443-5.078 19.172-9.654 29.044-13.869 2.62-1.025 5.212-2.103 7.873-3.017 2.337-.138 5.462-2.789 7.264-1.256 48.056 67.772 117.379 118.942 195.237 147.505 61.5 24.21 128.084 32.69 193.764 33.465 95.924.67 193-21.107 275.07-72.035 38.93-24.818 74.728-55.236 102.996-91.884 3.527-4.662 7.046-9.329 10.436-14.085 2.83-5.512 8.614-2.372 13.05-.636 32.03 11.51 65.767 33.924 87.082 56.64 8.588-8.596 18.93-15.437 27.5-24-21.002-24.015-47.97-42.517-76.741-56.089-7.266-3.285-14.24-7.248-21.888-9.656-7.942-2.048-3.313-8.824-.712-13.556 7.964-17.103 16.891-34.25 21.341-52.699 36.12 2.665 72.424 9.657 106.187 23 3.672-3.745 4.47-11.508 7.356-16.845 2.671-5.133 3.797-12.096 6.457-16.655-15.409-8.326-36.47-12.104-51.736-16.664-18.903-3.86-37.942-7.898-57.264-8.836 1.154-10.153 4.269-20.086 5.331-30.283 1.429-10.212 2.44-20.494 3.669-30.717 34.294-5.882 69.275-7.266 104-8v-37c-34.432-.053-68.887 2.507-103 7 .619-43.333-5.29-86.886-18.573-128.184-3.522-9.977.847-17.867 3.613-26.517 21.063-69.911 34.649-142.647 32.945-215.948-1.736-53.14-8.686-109.373-37.735-155.35-10.842-15.631-26.223-29.923-45.76-33.195-34.83-7.57-67.571 12.55-95.137 30.678-41.068 29.657-76.708 66.33-108.737 105.382-8.328 9.482-15.413 19.983-23.343 29.76-3.08 4.871-7.927 4.745-12.509 2.865-33.627-9.264-68.152-14.834-102.914-17.454-48.325-4.227-97.189-1.78-145.13 5.064-20.89 3.051-41.46 7.91-61.844 13.24-5.27 1.521-8.141-3.718-10.945-7.16-42.71-56.196-91.133-110.429-152.739-146.505-23.578-13.132-51.885-23.167-78.898-14.122-21.842 7.2-39.527 29.32-47.953 47.743-18.449 38.609-26.26 81.778-27.828 124.337-3.257 66.425 5.581 132.903 22.895 196.974 3.704 15.255 8.024 30.327 13.33 45.106 3.596 12.005-3.94 23.714-5.96 35.23-9.079 35.248-13.204 71.689-12.778 108.056-34.19-3.851-68.517-7.651-103-7zm813 1003c-10.99-.212-21.449-4.626-32.322-5.917-41.305-5.926-83.619-10.893-125.323-5.8-29.357 3.873-57.634 14.185-82.468 30.309-37.464 23.773-62.928 66.702-59.887 111.784-.445 43.683 28.16 83.654 66.111 103.19 36.94 20.55 80.295 24.623 121.592 19.853 39.655-2.65 78.615-13.952 112.355-35.156 20.171-12.387 37.7-28.456 52.934-46.375 3.543-3.86 7.392 2.775 9.51 4.93 23.688 23.458 44.074 50.86 71.978 69.782 15.19 8.405 33.653 9.046 49.635 2.849 15.402-5.41 26.09-19.955 30.991-34.965 6.255-21.252 2.54-48.45-5.564-66.7-12.37-29.598-38.492-50.078-62.364-69.858-6.349-4.485-12.271-9.54-18.55-14.1-3.734-3.47-12.02-6.536-10.911-11.755 5.354-17.228 10.458-34.546 14.039-52.267 9.4-46.685 11.451-94.519 9.417-141.997-2.415-55.237-10.854-110.894-33.264-161.863-11.362-23.542-24.632-46.811-43.642-65.177-18.302-18.851-41.434-32.502-65.853-41.728-28.115-8.665-57.773-14.857-87.422-12.342-43.918 3.21-84.635 21.993-123.372 41.494-36.393 20.094-71.743 42.321-104.825 67.516-1.213 1.25-2.71 2.28-4.795 2.293 1.345-7.154 8.834-13.055 8.62-22.201 1.653-11.758-6.976-23.914-12.737-32.189-6.804-8.328-13.515-18.353-23.883-22.61 4.108-27.97 30.488-54.205 31.855-80.564 1.966-22.431-12.668-41.617-26.961-57.037-21.922-22.753-48.485-41.533-78.582-51.793-31.697-10.667-66.45-4.788-96.81 6.995-6.365 2.226-12.468 5.095-18.626 7.816-9.249 2.635-8.474 9.404-7.876 16.583 16.885 4.712 33.432 10.923 49.123 18.777 12.756 7.476 29.994 16.385 35.942 29.544 5.607 15.332 1.558 35.092 1.966 49.525-2.528 29.473-5.076 58.945-8.148 88.367-.708 6.186-9.25 7.587-14.046 10.03-22.115 8.861-44.402 17.308-66.96 24.955-20.622 6.823-41.395 13.794-62.94 17.095-9.352.856-20.702 1.336-29.11-.932-16.513-5.195-28.913-17.901-40.802-29.836-2.481-2.451-5.525-6.21-9.675-4.539-8.178 1.735-6.455 14.486-6.828 20.367-.697 14.663-1.71 29.683 3.11 43.801 7.678 22.026 21.99 41.284 38.47 57.448 11.983 12.016 28.6 23.77 42.781 30.143 13.039 6.198 27.385 8.623 41.719 7.05 11.61-1.374 18.15-8.26 24.944-15.927 9.206-11.494 20.426-21.24 32.609-29.426 5.912-3.583 11.464-7.726 17.408-11.25 5.714-2.83 13.062-8.65 18.437-9.192-1.404 16.14-2.994 32.311-3.89 48.488.241 7.583-5.001 13.39-9.167 19.13-31.625 45.438-65.1 89.67-100.303 132.387-15.663 19.137-31.73 37.962-48.353 56.244-14.812 18.119-32.513 33.619-47.531 51.53-13.892 16.405-24.414 36.555-26.822 58.236-2.913 20.59-1.937 43.844 10.079 61.643 10.288 16.086 29.567 26.608 48.697 22.53 18.698-3.573 30.659-19.64 40.61-34.303 9.37-13.136 18.35-26.515 26.487-40.447 2.117-2.685 3.913-6.96 6.518-9.623 3.121-3.939 6.273 3.408 7.35 5.475 15.273 26.875 26.92 55.796 35.492 85.44 2.8 13.153 6.22 26.188 8.387 39.463 4.476 21.556 7.97 52.304 34.359 62.836 20.892 9.767 49.93 5.42 66.602-6.461 14.854-11.57 27.225-26.538 33.966-44.31 13.492-31.926 13.185-73.872 7.003-104.421-9.127-51.391-14.002-103.482-17.346-155.536-1.62-27.627-3.389-55.3-3.138-82.998.3-13.889.5-27.826 1.258-41.69.708-6.443.468-13.332 3.66-19.192 2.855-5.167 6.297-9.947 9.784-14.7 20.766-30.668 45.616-58.405 71.668-84.591 38.622-39.048 82.616-73.3 131.034-99.334 37.276-22.007 83.029-35.916 125.893-22.678 15.03 5.059 27.542 15.348 37.406 27.516 33.78 46.389 38.807 105.936 42.863 161.062 4.145 59.931 3.765 121.198-13.566 179.304m-615-1008c-2.534 11.681-10.901 21.474-14 33-13.93-2.015-26.564-11.03-41-11 .493 16.358 4.488 35.49 8 50 18.843.853 37.897 3.076 56 8.5-4.27 10.318-5.498 21.933-9.91 32.205-1.563 1.951-5.645-.034-7.578.115-8.723-1.834-17.593-3.004-26.512-2.82 3.17 14.842 12.859 30.334 18.451 42.874 1.694 3.137 3.374 6.309 5.641 9.063 5.676 1.578 11.228-2.384 17.158-2.057 6.182-.93 12.382-1.597 18.625-1.82 4.393-.033 8.792-.423 13.125-1.06v38c-8.356-.195-16.68.24-25 1 .396 4.417 4.12 7.544 6.47 10.976 38.094 47.003 88.922 82.348 143.934 106.694 96.247 39.522 204.423 45.104 306.181 27.464 48.217-8.722 94.898-25.57 137.51-49.746 20.333-12.365 39.873-25.987 57.905-41.58 8.99-7.72 19.01-17.485 26.294-25.507 4.322-4.433 8.353-9.096 12.428-13.747 3.054-4.345 8.737-9.969 9.278-14.554-8.334-.453-16.661-1.064-25-1v-38c8.332 1.11 16.79.908 25.11 2.088 8.288 1.075 16.497 3.117 24.89 2.912 7.202-16.704 19.776-35.274 23-52-6.086-.165-12.153.141-18.148 1.189-4.164.616-8.27 1.525-12.442 2.052-4.063.746-4.598-2.774-5.377-5.635-3.02-8.89-4.691-18.369-8.033-27.106 17.843-6.211 37.305-7.196 56-8.5 3.631-16.404 7.552-33.12 8-50-14.516-.53-26.979 9.488-41 11-3.1-11.13-11.914-22.55-14-33 18.929-7.082 38.074-14.09 58-18 .348-37.182-2.996-74.56-12.657-110.566-1.808-7.432-4.118-14.737-6.659-21.936-1.221-3.297-2.603-7.391-2.827-10.348 17.585-54.779 33.071-110.849 37.571-168.52 3.822-45.904 3.67-92.554-4.581-138.007-2.83-16.393-7.917-32.268-14.805-47.369-5.44-11.944-14.822-25.823-26.29-30.843-11.52-5.352-25.253-3.555-36.524 1.437-39.115 16.695-70.343 46.846-99.939 76.4-14.179 15.747-28.492 31.332-41.658 47.968-13.172 16.018-24.898 33.102-37.131 49.784-8.934-3.752-20.546-7.442-29.5-8-6.776 25.182-15.973 50.003-27.675 73.334-8.123 17.334-19.112 33.752-34.487 45.512-5.792 4.748-13.211 7.595-20.733 7.075-12.444-.55-22.79-15.173-26.303-23.372-8.04-18.382-11.362-38.619-13.174-58.472-.79-10.576-.673-21.18-.628-31.775.1-10.444-.432-20.938 1-31.302h-48c1.759 14.302.574 28.788 1 43.157-.015 23.916-2.774 48.265-10.708 70.948-4.965 14.156-16.625 33.603-36.294 30.603-12.308-2.724-22.657-14.402-29.908-22.596-11.534-13.906-20.488-33.351-27.14-48.359-6.99-17.96-14.364-35.998-18.95-54.753-8.62.257-20.108 4.157-29.5 8-11.077-15.464-22-31.115-33.865-46.015-21.706-25.864-43.294-52.213-68.737-74.587-18.091-17.604-38.307-33.205-60.085-45.932-16.202-9.124-38.874-17.066-53.953-8.393-12.544 6.12-20.577 21.423-25.913 32.191-17.474 41.389-20.777 87.295-20.947 131.636-.46 74.316 16.433 147.106 39.498 217.267 1.959 6.957-4.16 15.405-5.684 23.521-8.533 29.367-14.04 59.798-15.237 90.399-.411 8.217-.681 16.438-.576 24.655.203 2.605-.218 7.038 2.412 7.828 18.905 4.452 37.495 10.478 55.587 17.43m11-242c32.817-33.966 63.48-74.997 107-97-.46-4.052-4.244-7.53-6.068-10.612-18.738-24.917-37.55-50.044-59.392-72.37-10.51-11.684-21.653-22.967-34.25-32.426-5.517-3.957-13.906-8.916-19.273-.745-4.233 6.466-5.562 14.316-6.96 21.733-5.331 37.17-3.31 75.239 1.56 112.375 2.578 26.996 9.943 53.156 17.383 79.045m111 1225h-3c-13.468 23.247-29.146 45.785-43.017 68.917-5.88 8.836-11.18 18.007-16.889 26.946-1.969 3.827-5.697 8.515-7.036 11.818-2.365 3.599 5.456 6.611 7.045 8.66 13.438 8.635 25.17 19.795 38.538 28.416 5.124 2.977 11.985 2.36 15.935-2.281 5.751-10.316 3.88-22.72 4.682-33.892 1.18-34.67 2.512-69.326 3.732-103.985.012-1.538.01-3.075.01-4.599m-42.993-1026.673c.014 19.959 6.233 40.172 19.77 54.89 6.479 7.195 14.628 12.663 23.574 16.29 9.34 3.374 21.616 3.013 30.21.443 14.394-3.895 27.936-16.655 34.318-28.515 8.287-12.852 11.414-31.01 11.11-44.75.248-29.7-18.695-63.428-49.71-70.057-19.237-3.683-39.054 4.395-50.89 19.896-11.733 14.413-18.574 32.899-18.382 51.803M1339 1409.458c18.056 17.69 41.909 29.428 66.625 34.169 26.035 4.727 54.94 1.521 76.826-14.61 3.348-2.472 6.68-5.004 9.765-7.793 2.876-2.427 5.788-6.714 9.397-5.497 20.649 20.74 50.132 33.467 79.88 29.43 29.513-2.294 58.27-14.979 79.507-35.657-7.832-8.827-16.983-16.264-25.328-24.5-5.507 2.108-10.804 8.57-17.142 11.587-23.836 13.039-59.621 16.218-81.827 3.4-10.178-6.405-16.944-16.957-19.118-28.69-.387-2.894-1.64-6.026-.825-8.705 19.616-9.021 40.228-20.767 51.211-40.727 5.045-8.601 8.5-19.837 3.674-29.4-8.08-16.662-34.208-22.203-47.32-23.937-16.66-2.12-36.888-2.076-52.104.366-13.557 2.143-30.02 7.263-39.114 16.641-9.635 10.33-8.436 23.228-2.304 34.018 9.26 18.486 29.657 32.74 46.55 39.976 1.743.855 4.098 1.369 5.497 2.522 2.237 2.48-1.042 8.196-.865 10.908-2.472 14.035-12.61 25.978-25.976 30.806-21.07 8.013-48.869 4.517-67.16-3.846-4.962-2.324-9.82-4.815-14.22-8.093-3.202-1.352-6.5-6.196-9.47-6.328-9.72 6.223-17.665 16.143-26.159 23.96m156.009 959.778c-1.22 29.265 27.329 45.376 49.715 48.565 28.96 5.147 63.873.904 89.682-5.659 27.154-7.248 51.146-23.905 68.518-45.835 3.157-4.536 13.405-13.42 4.075-18.192-48.303-28.358-108.054-45.337-163.685-28.772-21.437 6.78-48.322 18.244-48.305 49.893M1665 1210.756c-1.929 34.684 27.21 82.88 71.592 71.781 30.627-8.688 47.596-41.66 47.385-71.67.39-29.906-17.037-63.548-47.866-71.608-43.894-10.362-72.642 37.03-71.111 71.497m79-297.256c20.927 12.022 39.415 27.539 56.972 43.994 9.254 8.46 17.46 17.869 26.003 26.981 4.377 4.604 8.488 9.437 12.738 14.154 4.49 3.912 7.596 11.305 12.287 13.371 9.09-29.682 16.055-60.136 18.883-91.153 2.65-24.183 3.95-48.585 2.771-72.915-.135-9.146-1.199-18.201-2.724-27.203-1.476-7.715-2.712-16.151-7.551-22.66-5.221-6.793-11.595-2.944-17.186.808-18.035 12.752-33.016 29.375-47.465 45.881-14.325 16.359-28.131 33.2-41.067 50.687-4.856 5.728-8.534 12.6-13.661 18.055" style="fill:#dcf;fill-rule:evenodd;stroke:none"/><path d="M244 2863.5c418.26 1.426 837.325-.26 1255.75.5 418.681-.76 837.643.926 1256.25-.5-137.483-816.352-271.828-1633.965-409-2450.5-141.513-45.746-282.358-94.352-423.703-140.74-105.839-35.248-211.646-70.575-317.47-105.817l-60-20a8496 8496 0 0 1-28.008-9.343c-4.68-1.543-9.347-3.083-13.982-4.729-5.086-2.015-9.193.742-14.014 2.193-139.528 46.49-279.049 93.006-418.557 139.507C931.703 319.858 792.72 367.853 653 413c-137.126 816.275-271.612 1634.71-409 2450.5m120-103v1.5h2272v-1.5c-68.931-409.09-136.257-818.54-204.874-1227.691-51.028-306.678-102.288-613.313-153.312-919.99-4.869-28.835-9.565-57.678-14.432-86.51-1.133-7.012-2.351-14.007-3.495-21.008-1.484-6.504-.056-15.285-8.94-17.157-109.703-36.573-219.416-73.135-329.12-109.701-96.009-31.978-191.992-64.023-288-96-41.971-14.027-84.002-27.963-125.969-41.994-9.552-4.304-21.398 2.4-30.56 4.946-155.047 51.948-310.255 103.285-465.433 154.805-58.187 19.4-116.394 38.801-174.566 58.195-25.476 8.525-51.019 16.959-76.48 25.505-5.454 2.642-13.186 3.29-17.14 6.618-2.1 1.795-1.737 5.77-2.555 8.884-62.19 372.917-124.31 745.877-186.485 1118.792C490.857 1998.664 428.048 2380.37 364 2760.5" style="fill:#76747b;fill-rule:evenodd;stroke:none"/><path d="M938 1260c34.793.333 69.628 2.575 104 8 1.648 19.836 4.617 39.592 9 59-36.636 1.801-79.095 12.539-110 25.5 6.164 11.499 8.416 24.924 14.5 36.5 33.652-14.336 70.257-20.746 106.5-24 5.662 21.482 16.001 41.808 26 61.5-38.222 16.97-77.961 36.84-105 70 4.993 4.484 10.306 8.588 15.365 12.991 4.167 3.077 7.767 6.901 11.984 9.891 2.649 2.978 6.75-2.179 8.626-3.857a192.5 192.5 0 0 1 25.78-21.708c9.66-6.358 19.424-12.633 29.688-17.996 10.852-6.012 22.88-9.721 34.057-14.821 40.075 57.041 95.24 102.92 158.285 132.705 100.562 47.859 215.723 58.297 325.106 42.803 103.606-14.986 204.36-62.386 273.599-142.315 9.692-10.252 17.214-22.256 26.01-33.193 35.45 13.8 69.935 32.535 96 61 9.27-9.107 19.88-16.782 29.5-25.5-27.183-32.76-66.67-53.373-105-70 10.1-19.598 20.48-39.98 26-61.5 36.476 3.044 72.991 10.222 107 24 4.809-12.01 8.53-24.773 14-36.5-33.687-14.233-76.6-23.197-110-25.5 4.388-19.402 7.36-39.167 9-59 34.294-5.882 69.275-7.266 104-8v-39c-34.362.406-68.992 1.637-103 7 .618-43.334-5.29-86.884-18.574-128.185-3.424-9.53 1.772-17.143 4.1-26.13 21.162-69.97 34.181-142.811 32.46-216.137-1.715-53.213-8.646-109.512-37.736-155.546-10.842-15.632-26.223-29.924-45.76-33.196-34.814-7.763-67.845 11.2-95.507 29.56-41.174 29.378-76.87 66.09-109.026 104.92-8.41 9.43-15.55 19.838-23.365 29.72a22.3 22.3 0 0 1-4.893 5.107c-3.901 1.375-9.153-1.99-13.031-2.19-31.67-8.557-64.18-13.226-96.818-15.886-48.319-4.273-97.111-1.85-145.062 4.784-20.94 2.937-41.582 7.706-62.012 13.06-5.415 1.884-8.704-3.991-11.164-7.101-20.707-28.903-45.058-55.916-69.927-80.88-22.364-21.27-45.251-42.51-71.741-58.638-23.188-15.459-50.864-27.353-79.39-23.658-24.521 3.24-43.715 20.708-55.525 41.531-21.278 37.946-29.046 81.413-32.175 124.25-4.117 68.27 3.712 136.773 21.08 202.818 4.34 15.367 8.22 30.837 13.28 45.965 5.769 12.75-.968 23.277-3.937 35.686-9.357 35.909-13.754 73.056-13.277 110.146-34.098-4.783-68.564-7.15-103-7zm233.5 1116c19.084 33.266 34.815 69.11 42.912 106.784 3.178 14.43 5.927 28.936 8.72 43.435 2.425 12.13 7.085 24.003 15.263 33.473 15.827 17.413 43.1 19.211 64.702 14.387 31.651-10.728 52.597-41.773 59.62-73.245 8.767-34.553 4.39-70.59-2.422-104.96-8.4-53.095-11.844-106.859-15.398-160.428-1.183-21.177-1.875-42.41-1.863-63.611.23-9.956.579-19.909.854-29.854.604-8.814.662-19.814 4.84-27.016 36.181-55.412 81.953-104.21 133.64-145.458 38.502-29.595 79.851-57.39 126.307-72.892 19.197-5.69 40.06-9.21 60.017-5.19 15.843 2.869 31.803 8.977 43.178 20.945 20.922 19.737 31.648 47.71 39.398 74.705 10.263 44.347 13.784 90.236 14.736 135.644 2.712 46.496-2.192 93.502-15.004 138.281-10.63-.65-20.756-5.12-31.388-6.084-40.824-6.03-82.55-10.344-123.793-5.97-28.88 3.465-56.715 13.025-81.42 28.412-37.26 22.372-64.962 63.457-63.399 108.106-.589 22.23 3.789 45.05 15.82 64.1 10.908 18.079 26.867 32.563 44.485 43.933 36.297 21.076 78.932 27.872 120.39 23.714 40.459-2.721 81.341-11.469 116.335-32.936 23.108-12.984 42.61-31.107 59.47-51.275 14.207 15.448 28.094 31.156 42.975 45.975 10.699 11.282 21.704 22.364 35.005 30.625 21.12 11.763 49.757 9.806 67.595-7.25 19.412-20.25 20.407-44.746 16.625-69.09-2.534-19.62-12.331-37.499-24.58-52.629-12.53-15.854-28.668-28.305-44.128-41.044-10.12-7.99-20.41-15.742-30.992-23.087 20.232-56.593 25.687-117.306 24.828-176.98-1.063-45.115-4.665-90.564-16.767-134.228-8.33-30.895-21.04-61.032-39.208-87.445-26.675-39.679-69.464-67.426-116.578-75.705-24.53-4.837-50.02-6.597-74.808-2.851-23.856 3.127-46.516 11.36-68.5 20.776-26.939 11.303-52.721 25.154-77.497 40.564-23.952 15.032-48.11 30.374-69.97 48.369 2.697-6.57 8.53-12.833 8.183-20.728 1.504-12.347-5.545-23.62-12.472-33.24-6.89-8.481-13.682-18.671-24.211-23.032 5.837-25.655 27.523-50.474 31.37-74.416 3.618-21.148-6.814-41.227-20.65-56.505-19.201-22.354-43.277-41.266-70.442-52.957-28.502-13.76-61.838-14.05-91.88-5.47-10.284 2.811-20.351 6.487-30.166 10.62-4.661 2.333-10.562 4.308-14.653 6.77-4.583 2.653-1.42 12.014-2.579 15.958 16.885 4.712 33.432 10.923 49.123 18.777 12.756 7.476 29.994 16.385 35.942 29.544 5.629 15.233 1.543 34.864 1.879 49.21-2.924 29.329-4.74 58.801-8.346 88.047-1.55 5.262-10.071 6.273-15.291 9.298-22.129 8.862-44.412 17.288-67.004 24.862-20.676 6.633-41.417 13.89-63.041 16.735-9.43.751-19.385 1.253-28.41-2.133-16.284-5.906-28.015-19.382-40.084-31.071-4.971-6.96-15.83-1.145-15.758 6.357-.35 15.535-1.93 31.22-.193 46.715 4.722 23.124 20.56 46.874 35.285 62.261 22.527 23.278 58.492 52.12 100.06 41.103 8.353-3.375 15.486-11.748 20.746-17.831 17.677-19.175 40.177-33.875 63.092-45.874-2.041 15.279-2.513 30.81-3.867 46.148.197 7.9-4.247 12.634-8.3 18.218-58.142 84.257-123.195 163.715-193.854 237.664-17.962 18.87-29.192 43.684-30.949 69.697-.58 19.897-.751 42.077 12.839 58.467 7.913 10.98 22.772 20.816 35.527 20.79 11.634.668 23.62-2.127 32.568-9.976 12.32-10.401 20.671-24.59 30.02-37.492 9.449-12.537 16.27-26.9 25.516-39.516M1139 1254.5c-5.468 10.997-10.697 24.83-16.5 34.5-12.659-4.032-27.264-10.57-39.5-12 .806 15.695 4.55 34.078 8 48 18.982.162 37.595 3.912 56 8-2.979 12.382-6.59 24.917-10.5 37-4.216-2.234-11.136-1.805-16.492-3.515-5.385-.497-12.067-2.227-17.008-.985 7.14 17.112 14.4 34.808 24.5 50.5 15.378-5.014 32.493-4.421 48.5-6v40c-8.252.33-16.95-.483-25 1.5 32.306 43.574 76.425 77.523 124.12 102.702 37.854 19.063 78.48 33.049 120.324 40.213 32.425 6.23 65.496 8.77 98.483 8.585 94.594 2.496 191.744-19.32 271.09-72.365 31.24-22.578 61.133-47.809 83.983-79.135-7.845-1.743-17.682-1-25-1.5v-40c8.623.908 17.319.98 25.923 1.944 7.826.769 16.846 3.086 24.077 3.056 7.87-16.265 17.021-32.356 23-49.5-5.386-1.378-12.034.466-16.951.817-5.237 1.371-12.055 1.386-16.549 3.683-3.91-11.702-7.812-25.995-10.5-37 18.245-4.887 37.12-7.387 56-8 3.611-15.758 7.213-31.788 8-48-13.621 1.432-26.18 8.17-39.157 12-3.9-3.64-5.18-11.235-8.555-16.393-3.015-5.828-5.754-11.798-8.288-17.836 7.82-6.315 20.505-7.682 28.59-11.585 9.908-3.545 20.198-5.81 30.41-8.186.677-38.262-3.87-76.501-13.864-113.437-1.858-7.591-4.666-14.885-7.197-22.257-2.887-7.224 1.122-14.523 3.261-21.44 18.583-56.309 31.44-114.733 34.813-174.049 1.948-45.913.96-92.672-11.15-137.324-8.555-26.175-23.787-70.788-64.57-57.812-22.073 7.434-44.61 23.636-61.105 36.798-28.247 23.007-53.15 49.612-76.476 77.477-11.187 14.018-22.807 27.785-33.029 42.539-2.628 3.63-5.164 7.314-7.759 10.953-1.856 2.753-3.792 5.408-6.178 7.701-3.897 1.259-10.515-3.1-14.408-3.53-4.852-1.501-10.67-3.267-15.338-3.619-6.783 25.371-16.121 50.348-27.928 73.836-8.16 17.282-19.187 33.69-34.64 45.324-11.62 10.114-30.13 9.097-39.789-3.038-14.76-16.43-18.114-43.731-21.092-62.665-1.73-11.872-1.54-23.877-1.551-35.818.713-11.804-1.046-25.936 1-36.639h-46c2.394 14.328-.06 29.149 1 43.573-.006 23.981-2.896 48.38-10.915 71.1-4.537 14.367-16.9 32.79-37.346 30.127-12.792-2.514-22-13.23-30.356-22.315-22.75-29.213-37.106-71.396-46.383-103.485-8.421.375-16.195 4.348-24.188 6.563-7.075 3.236-12.043-8.289-15.515-12.635-35.163-49.396-75.727-95.47-123.373-133.198-17.994-13.435-37.37-26.304-59.707-30.924-22.477-4.917-38.15 15.56-45.43 31.614-15.148 32.97-20.521 69.706-21.778 105.69-4.021 55.869 3.83 112.29 16.048 166.678 5.877 26.587 14.805 52.35 22.497 78.406 2.09 6.374-1.65 12.648-3.613 18.594-6.006 19.39-10.76 39.266-13.612 59.373-2.825 21.925-5.362 44.3-3.912 66.436.757 2.619 5.612 2.426 7.556 3.404 16.519 5.118 37.177 9.492 51.027 17.499m9.5-239.5c31.339-38.034 65.753-75.057 108.5-100.5-20.095-32.684-46.872-61.026-71.953-89.824-6.703-7.28-14.217-13.742-21.498-20.4-5.264-4.338-10.727-8.938-17.485-10.757-12.605-3.284-15.715 15.394-17.48 23.111-1.912 10.83-2.876 21.748-3.564 32.682-.65 35.984 1.343 72.051 8.122 107.464 3.535 19.678 8.349 39.508 15.358 58.224m40.5 1331.625c15.846 9.926 29.634 22.693 44.989 33.253 4.028 2.68 9.201 3.473 13.333.69 5.48-4.281 5.69-14.905 6.587-20.425.133-7.694.154-15.399.675-23.075 1.051-27.55 1.838-55.092 3.014-82.632.19-4.983.418-9.956.402-14.936l-.5-1.5c-11.05 17.66-22.62 35.128-33.517 52.917-11.931 18.213-23.091 37.69-34.983 55.708m26.002-1136.2c-.207 19.894 5.897 40.04 19.059 55.016 6.395 7.254 14.403 12.886 23.292 16.635 9.572 3.8 22.35 3.382 31.373 1.425 14.728-3.62 29.057-15.86 35.602-28.082 8.561-13.128 12.044-31.614 11.671-45.74.37-15.925-4.056-31.868-12.83-45.185-8.702-12.72-21.196-24.107-36.89-26.866-19.67-3.833-40.234 3.427-52.544 19.466-12.207 14.774-19.22 33.917-18.733 53.331M1337 1409.458c18.351 18.54 43.135 30.594 68.612 35.334 26.742 4.654 56.39 1.362 78.706-15.397 6.315-3.242 10.292-9.823 16.182-13.395 19.227 21.913 48.453 32.323 77.155 30.622 28.83-1.398 56.724-12.44 78.8-30.97 2.32-1.895 4.445-4.024 6.545-6.152-8.766-9.332-18.154-17.98-27.672-26.5-5.5 2.562-9.355 7.976-14.78 10.738-31.819 19.147-95.827 25.505-103.548-30.22 22.14-8.929 44.427-23.323 54.742-46.076 6.054-11.701 4.247-27.214-6.586-35.487-9.995-7.758-22.304-11.707-34.606-13.674-25.914-3.956-58.456-3.87-81.053 5.446-8.818 3.486-17.599 8.736-22.053 17.47-7.536 14.3 1.872 29.865 9.34 40.037 8.034 10.48 20.781 19.96 31.487 25.408 4.285 2.893 11.152 4.668 14.729 6.858-2.702 11.127-5.084 23.82-14.994 31.265-14.882 12.99-36.228 13.97-54.796 11.478-9.181-1.43-19.447-5.42-27.03-9.17-7.985-2.571-15.672-11.422-21.844-14.073-8.98 8.878-18.897 17.061-27.336 26.458m374 943.042c-35.187-23.248-76.808-37.181-119.088-38.452-21.396-.51-42.971 3.12-62.553 11.858-8.917 4.228-18.276 9.052-24.206 17.259-6.321 7.877-9.571 18.235-9.06 28.296.759 17.987 14.43 34.05 31.009 40.17 26.486 10.656 60.908 7.578 86.024 4.228 26.878-4.778 53.28-14.727 73.289-34.007 9.098-8.39 18.609-19.747 24.585-29.352m-47-1141.646c-.53 19.862 5.77 40.275 19.255 54.87 6.597 7.217 14.356 13.429 23.681 16.649 9.337 3.437 21.516 3.104 30.304 1.267 31.463-8.71 48.566-42.843 47.753-73.527.53-30.495-17.658-64.943-49.442-72.216-9.935-1.89-22.47-1.251-31.012 2.371-26.312 12.152-41.843 42.051-40.539 70.585m78-296.229c43.82 23.9 77.623 62.918 109.5 100.375 16.507-45.455 22.07-94.677 23.5-142.783-.315-23.744.536-53.297-9.404-73.495-8.44-12.731-21.386.05-29.052 5.626-8.477 7.591-16.762 15.408-24.32 23.87-26.246 26.158-48.377 56.888-70.224 86.407" style="fill:#666;fill-rule:evenodd;stroke:none"/></svg>