<svg xmlns="http://www.w3.org/2000/svg" width="3000" height="3000"><path d="M338 2761.5c387.06 1.426 774.925-.26 1162.15.5 387.224-.76 774.71.926 1161.85-.5-77.265-456.459-152.125-914.01-228.874-1370.691-28.417-170.851-56.988-341.657-85.4-512.497-12.491-74.824-24.942-149.684-37.431-224.508-5.828-35.176-11.741-70.32-17.569-105.492-3.54-17.097-4.968-34.714-9.072-51.664-1.3-3.941-8.915-3.966-11.797-5.85-133.175-44.44-266.372-88.79-399.558-133.193-116.482-38.867-233.005-77.647-349.48-116.505-6.56-1.974-12.94-4.527-19.527-6.382-6.558-1.31-12.878 2.396-19.017 4.029-100.339 33.452-200.674 66.889-301.01 100.324-87.802 29.33-175.659 58.504-263.446 87.829-38.52 12.817-77.015 25.657-115.52 38.495-18.005 5.974-35.995 12.026-54 18-8.822 2.95-17.652 5.903-26.471 8.83-4.346 1.012-8.371 2.451-8.57 8.208-90.761 544.76-181.624 1089.514-272.367 1634.27-35.423 208.458-69 418.87-104.891 626.797m112-95c349.66 1.426 700.125-.26 1049.95.5 349.946-.76 700.184.926 1050.05-.5-71.115-419.63-139.844-840.338-210.448-1260.2-26.214-157.169-52.393-314.328-78.582-471.499a856355 856355 0 0 0-34.418-206.502c-5.388-32.32-10.783-64.67-16.17-96.99-2.588-15.664-5.232-31.299-7.827-46.958-.793-4.36-1.427-8.742-2.21-13.102-.428-4.863-4.85-6.193-8.474-7.135-122.028-40.638-244.03-81.373-366.052-122.014-106.682-35.522-213.343-71.109-320.006-106.667-6.525-2.525-11.758-.06-17.468 1.947-92.703 30.905-185.37 61.816-278.08 92.691-81.01 26.99-161.996 54.033-243 81-35.467 11.86-70.965 23.65-106.438 35.486-16.678 5.533-33.31 11.15-49.99 16.655-3.243 1.458-10.117 2.375-10.586 5.954-85.805 510.194-170.013 1020.748-255.437 1531.015-32.076 188.3-62.276 378.547-94.814 566.319" style="fill:#747474;fill-rule:evenodd;stroke:none"/><path d="M1102 2211c-1.59 39.672-6.9 81.952-30.582 115.297-3.826 6.56-9.89 11.142-14.89 16.618-14.287 19.251-28.557 51.496-1.861 74.54 15.828 14.069 44.044 11.418 58.231-.397 26.093-21.257 30.116-57.559 30.007-88.667-1.18-32.62-8.439-64.75-19.104-95.52-1.573-4.549-3.019-9.166-4.61-13.708-.696-2.332-1.822-4.497-2.947-6.632-1.378-1.718-4.964-1.186-6.66-1.525-2.522-.014-5.07 0-7.584-.006m-6-19c23.782.172 48.456 1.852 71.202-6.913 10.697-3.414 20.267-9.579 29.176-16.232 5.799-4.083 6.117-9.879 5.622-15.898V2134h156c-.77 19.268-1.395 38.902-3.5 58-17.792-15.078-40.848-21.984-63.115-27.026-10.17-2.024-24.16-8.084-30.885 4.787 2.814 5.152 8.072 7.572 11.87 12.109 3.949 3.973 8.088 7.826 11.538 12.256 11.445 12.886 21.37 27.236 29.006 42.677 4.641 8.955 7.818 20.38 9.665 29.356.614 4.55 6.24 6.864 9.54 8.375 4.64 2.184 9.742 3.487 14.881 3.466-1.202 19.306-5.291 38.346-8.232 57.41-3.353 14.262-6.095 28.814-11.52 42.483-3.169 9.77-9.614 20.815-17.712 26.039-14.49 8.968-32.588 5.436-48.562 5.295-16.704-.424-33.302-2.438-49.974-3.227.312 5.31-1.939 13.857 5.265 15.62 5.412 1.818 10.889 3.449 16.171 5.62 16.733 6.813 32.881 18.645 40.047 35.752 7.181 19.451 6.243 40.685 6.517 61.008 44.252 1.093 92.271-11.038 123.022-45.032 14.405-16.355 23.528-36.612 30.191-57.139 7.325-21.64 11.673-44.138 15.424-66.613a1048 1048 0 0 0 6.234-43.273c.58-6.993 1.641-13.932 2.363-20.903.387-6.142-.825-15.108 8.393-14.038 108.69-.006 217.386.001 326.07-.002h142.67c9.958.188 34.944 1.965 33.069-17.428-13.519-14.847-27.163-29.928-42.347-43.158-7.304-6.87-14.025-14.353-21.788-20.708-3.522-3.676-7.335-7.011-11.251-10.23-3.204-2.877-6.398-7.727-12.05-7.476-8.477 16.443-22.082 30.38-30.5 47-1.426-121.035.26-242.394-.5-363.497v-33.598c.077-2.807-.284-8.341 3.004-8.45 26.307-1.297 52.796.235 79.142-.455 8.09-.347 19.076 1.804 26.82-5.569 2.63-2.55 4.881-6.037 4.648-9.86-.013-3.218-3.727-5.927-6.09-8.546-18.804-19.347-38.157-38.077-57.899-56.519-2.804-2.11-5.264-4.641-7.727-7.108-1.949-1.573-4.434-4.929-6.717-4.903-7.152 5.215-11.737 16.76-17.477 23.4-5.295 8.074-11.337 15.785-16.204 24.105-1.417-22.88.25-46.004-.5-68.934.434-5.514-.757-11.526.97-16.83 6.333-3.108 14.745-2.819 20.201-8.076 5.995-4.53 9.404-11.639 8.829-19.16-48.476-1.684-96.516-10.637-145-12v142h-99v-95.998c.153-2.178-.05-4.992.978-6.778 6.528-3.077 15.084-2.927 20.584-8.404 5.78-4.517 8.988-11.49 8.438-18.82-48.14-2.01-95.851-10.266-144-12v108c-.006 9.195.007 18.406-.004 27.597 1.25 9.201-7.899 7.557-14.118 7.403H1447c1.045 9.245 5.035 17.958 7 27 20.783.206 41.609-.251 62.376.136 5.245.021 4.63 5.937 4.624 9.855V2249h-61c.88-23.97 3.66-47.855 4.355-71.842.198-6.241.467-12.466.617-18.704.16-1.955.12-4.802.997-6.217 11.029-4.993 30.146-4.359 38.031-19.237-26.62-23.764-55.064-45.684-81.975-69.168-3.486-2.893-6.937-5.787-10.42-8.664-7.135-7.94-12.849 1.87-18.08 6.807-8.559 8.435-16.923 17.074-25.53 25.449-4.599 3.818-9.05 7.766-13.097 12.178-4.292 5.653-9.665 6.062-15.898 5.398v-101h59.4c14.82-.038 29.631.046 44.438-.025 8.451-.03 20.352-1.119 25.639-11.212 3.952-6.583-5.889-13.518-9.783-17.36-16.344-14.14-31.692-29.427-48.671-42.874-3.843-3.196-7.643-6.441-11.44-9.671-3.768-2.894-7.969-7.646-12.583-7.858-12.362 20.897-30.594 39.102-43 60h-4v-104h59.4c14.806-.004 29.63.005 44.434-.002 9.646.062 21.859-1.732 25.758-11.328 4.028-7.044-6.427-13.283-10.455-17.058-15.287-15.255-32.26-28.674-48.312-43.088-3.807-3.318-7.819-6.383-11.576-9.744-3.828-3.004-7.9-7.69-12.249-7.78-2.46 6.815-7.995 10.35-11.136 16.222-5.751 7.898-11.449 15.815-17.409 23.552-2.988 3.847-5.623 7.976-8.616 11.802-2.993 3.368-5.595 9.083-9.839 9.424v-102h124.8c11.878.28 28.249-.04 31.555-12.749 1.131-4.243-3.363-7.811-6.145-10.387-22.652-19.862-46.23-38.634-69.731-57.48-3.976-2.72-8.166-6.526-11.644-9.23-3.757-2.303-7.332-7.172-11.458-6.423-4.902 4.02-9.427 11.499-14.32 17.174-7.202 8.85-13.986 18.031-21.127 26.913-3.552 4.389-6.938 8.923-10.45 13.334-3.62 4.161-6.243 10.225-11.938 10.706-9.575.393-19.162-.062-28.737.142h-59.943c-13.942-.932-31.27 1.928-43.42-2.986-18.654-6.914-37.158-14.291-55.829-21.157-9.284-3.63-18.569-7.212-27.944-10.594-8.667-2.651-18.377-8.092-26.669-9.263zm48 12c7.02 30.765 13.465 61.94 13.923 93.71.713 24.642.316 49.334-3.756 73.69-2.943 8.407 4.847 15.43 11.523 19.563 12.825 8.796 31.448 5.967 42.26-4.488 16.778-15.832 19.79-40.19 19.047-61.823-.475-22.526-9.161-44.12-18.915-64.006-11.834-22.082-28.7-41.003-47.05-57.8-4.23-4.077-12.529 1.088-17.032 1.154m353-1020h2c3.285 15.482 1.511 31.996-6.442 45.876-11.815 23.423-32.163 41.086-49.79 59.857-13.323 13.662-28.56 30.082-40.481 42.895-9.086 11.266-19.78 21.659-26.445 34.694-21.38 40.9-30.397 87.828-29.842 133.678h473c-.646-63.078-2.975-126.16-10.875-188.792-10.53-89.096-28.748-179.99-76.888-257.325C1686.831 982.56 1620.297 917.302 1536 895c-1.277-7.394-.79-15.007-2.055-22.402-4.036-23.852-14.143-46.831-29.637-65.463-7.655-8.716-16.373-16.731-26.576-22.362-5.66-3.793-12.834-2.621-19.233-2.773H1439c3.752 29.965 1.968 66.179-5 93h-4c-7.703-38.61-44.09-69.828-84-66 .488 9.684 4.211 18.958 4.859 28.656 4.98 29.57 1.88 59.655-5.859 88.344-17.088 7.619-35.504 21.223-46.36 34.553-19.586 24.604-22.931 57.368-33.643 85.837-5.054 13.918-10.937 27.58-19.68 39.634-8.687 11.607-15.849 24.197-21.997 37.316-15.094 33.354-24.065 69.202-40.008 102.211-3.164 5.46 2.168 12.168 5.068 16.502 13.173 19.944 25.076 40.757 38.872 60.277 12.516 15.974 33.646 21.277 53.08 20.67 32.572 3.536 52.03-26.157 67.918-46.329 8.966-11.238 18.587-21.914 29.266-31.567 5.032-4.414 11.34-9.916 17.668-10.74 7.642-.78 15.305-1.424 22.906-2.483 16.207-2.133 32.943-4.126 47.52-12.188 7.45-3.69 13.913-9.138 19.322-15.389 4.563-6.189 10.993-12.211 12.068-20.304m-295 659h33v-102h-33zm0 132h33v-104h-33zm0 130h33v-101h-33zm44 233c3.186.75 5.611 4.95 9.133 6.555 11.799 8.775 31.099 6.604 40.379-2.763 10.207-10.48 14.09-25.457 13.474-39.709-.252-28.339-14.667-54.57-32.94-75.408-10.334-11.052-22.015-20.806-34.36-29.535-6.097-4.206-12.28-8.265-18.654-12.023-2.81-1.705-6.152-4.4-10.301-3.324-3.644.796-6.945 2.986-10.731 3.207 21.67 47.99 44.228 98.791 44 153m-22-1114.5c6.206 10.572 11.457 22.002 17.928 32.49 4.434 7.538 9.668 16.907 16.345 21.682 6.061 4.609 13.787 5.742 21.147 6.115 11.02 1.344 22.385-.786 31.337-7.702 8.442-6.299 13.325-16 19.715-24.062 9.358-12.334 19.99-23.665 30.76-34.756 4.184-4.267 8.328-8.556 13.136-12.115 4.053-3.117 10.306-3.38 14.761-4.33 18.845-3.494 37.576-7.831 55.996-13.131 16.082-3.946 33.056-19.058 35.875-34.691h27.6c4.392.033 8.81-.043 13.19.027 1.982.034 4.703.475 5.781 1.747 3.728 13.957 8.016 27.874 11.61 41.882 3.977 12.345-.25 27.765-3.029 38.769-5.08 21.563-22.372 36.176-36.283 51.968-22.003 23.55-43.601 47.549-63.562 72.877-9.19 12.437-19.062 24.755-25.128 39.147-7.362 14.556-10.033 33.858-10.179 48.583h358c-.264-56.849-1.882-113.853-9.812-170.218-6.019-40.655-14.647-81.062-28.089-119.966-18.035-55.439-45.365-108.421-84.983-151.676-19.232-21.573-41.715-40.38-66.424-55.394-24.444-14.655-50.761-28.224-78.692-34.746.31-17.79 4.995-36.013.055-53.715-3.541-15.737-11.17-30.755-22.555-42.285-1.49 12.212.678 24.93-1.566 37.163-2.68 16.7-5.765 33.715-13.513 48.963-4.199 11.128-12.888 9.279-22.184 8.874H1403c-.193-12.424-.276-25.032-3.303-37.14-2.899-10.98-10.146-20.11-18.197-27.86.78 18.548 3.04 37.881.537 56.65-2.122 15.483-4.587 31.559-12.221 45.444-3.461 5.53-9.588 8.548-14.441 12.65-9.227 7.478-19.569 17.062-26.058 25.87-12.098 17.757-17.212 39.256-24.712 59.086-4.933 15.135-9.683 30.98-20.127 43.453-30.322 37.777-37.658 88.885-60.478 130.347m51 16.5c3.241-13.215 9.756-25.54 17.518-36.633a107 107 0 0 1 14.101-15.363c2.592-2.373 5.549-4.295 8.077-6.72 3.121-2.617.62-5.69-.696-8.284-17.4.619-35.895 4.221-49.454 15.986-6.709 6.011-11.857 13.587-14.727 22.144-4 9.242 1.583 16.238 8.408 21.217 4.951 3.52 10.374 7.655 16.773 7.653m148-218c.008-3.984.578-9.724-3.142-11.257-3.79-1.754-8-2.412-11.93-3.763-13.617-4.207-27.68-8.04-42.122-6.777-12.057 1.517-27.94 5.212-29.535 22.204-.254 3.946-.487 9.5 2.295 11.954 6.369 4.718 14.71 4.226 22.115 5.092 11.524 1.59 23.043-2.431 31.776-9.76 9.338-8.4 19.445-9.886 30.543-7.693m257.5 1346c11.545 3.326 29.14.834 34.01-10.714.8-4.492-6.373-6.254-8.96-8.265-3.839-2.385-8.08-4.04-11.847-6.535-8.748-4.763-17.398-9.673-26.19-14.337-15.437-8.769-31.009-17.278-46.586-25.767-7.65-4.465-15.695-8.221-23.222-12.89-7.068-3.1-15.29-9.824-23.705-11.492-7.306 23.96-23.802 49.138-34.899 69.01-23.615 37.877-50.416 74.16-80.937 106.79-11.208 12.883-24.177 24.098-36.413 35.913-5.587 5.052-11.293 9.978-17.212 14.63-4.102 4.263-13.488 8.666-12.964 14.112 2.042 2.392 3.108 5.612 5.635 7.647 1.854 2.42 6.163.608 8.467.135 48.12-13.312 94.825-32.052 138.413-56.414 41.233-23.484 81.075-50.153 116.023-82.408 7.092-6.184 13.926-12.565 20.387-19.415m-7.5-929h31.8c10.05-.569 22.11.902 31.2-1 .116-89.439-6.537-179.974-30.158-266.612-11.23-39.803-27.964-78.569-53.22-111.578-12.096-16.875-25.889-32.473-40.492-47.18-6.96-7.076-16.038-14.365-23.208-19.943-4.218-3.058-8.359-6.261-12.85-8.905-4.454-3.73-9.876.829-13.072 2.218-.068 4.813 5.762 7.818 8.62 10.996 27.887 24.224 51.545 53.614 68.57 86.395 25.616 52.48 34.1 111.136 37.416 168.794 3.217 62.25 2 124.868-4.606 186.815m-38 499h99v-118h-99zm0 162h99v-134h-99zm0 149h99v-121h-99zm84.493 49.015c1.896 6.058 9.343 11.466 12.575 16.802 33.826 41.29 60.484 88.167 80.12 137.687 4.636 12.816 9.67 28.059 12.317 40.295 1.548 11.917 10.907 15.902 20.178 20.05 14.333 7.288 30.83 9.321 46.552 6.24 15.089-3.077 28.358-12.021 37.248-24.472 14.687-21.484 17.217-49.975 8.76-74.345-11.535-36.282-40.216-63.703-71.69-83.222-32.944-19.958-69.849-32.506-107.484-40.133-5.632-1.183-11.25-2.315-16.929-3.24-5.143-.786-12.44-3.031-16.534-1.128-2.013 1.394-5.295 3.343-5.113 5.466" style="fill:#fff;fill-rule:evenodd;stroke:none"/><path d="m1447 1792.5.5 1.5c3.346-1.785 8.782-.502 13.066-1h52.05c2.756-.362 7.36.565 8.763-1.867 1.771-23.881-.322-48.15.621-72.098v-53.824c.002-3.004-.003-5.98.002-8.974.15-2.453-.236-5.534 1.998-6.237v-2h-4v143h-73zm7 26v1.5h66v430h2v-406.8c-.267-7.44.43-16.296-.489-23.065-.969-2.533-5.673-1.717-7.661-2.133-10.116-.005-20.238 0-30.34-.002-9.641-1.055-20.107 1.388-29.51-1zm393.5 409.5c2.647-2.705 1.381-6.916 1.503-11.218-.008-132.259.002-264.529-.003-396.782h90v-2h-69.6c-6.925.645-16.905-.978-22.4 1 .76 136.237-.926 272.88.5 409" style="fill:gray;fill-rule:evenodd;stroke:none"/><path d="M449 2666.5v1.5h2102v-1.5c-63.81-378.768-126.215-757.87-189.705-1136.696-47.349-283.998-94.654-568.016-142-852-4.398-26.67-8.911-53.338-13.325-80.003-1.118-6.656-2.232-13.342-3.35-19.985-.571-3.586-1.119-7.183-2.096-10.662-1.288-2.958-6.82-3.128-9.193-4.54-101.51-33.828-203.017-67.663-304.512-101.514a746151 746151 0 0 1-266.522-88.84c-39.072-12.89-78.06-26.135-117.144-38.98-4.713-1.335-9.273 1.032-13.839 2.453-144.507 48.104-288.95 96.378-433.449 144.467-54.18 18.08-108.385 36.116-162.566 54.195-23.808 7.923-47.625 15.882-71.434 23.805-5.676 1.96-11.407 3.738-17.06 5.726-6.564 1.113-6.72 8.744-7.34 13.268C740.08 921.349 682.77 1265.54 625.383 1609.692 566.339 1961.663 508.308 2314.864 449 2666.5m654-454.5c-1.59 39.672-6.9 81.952-30.582 115.297-3.826 6.56-9.89 11.142-14.89 16.618-7.905 10.645-14.442 22.712-16.319 36.024-1.112 12.316 2.846 25.497 11.758 34.31 15.581 14.913 41.164 15.515 58.109 2.426 26.658-21.098 31.2-58.058 30.745-89.514-1.398-32.952-9.29-65.236-20.022-96.298-3.042-7.672-4.014-19.6-13.15-18.857-1.876-.013-3.784 0-5.649-.006m-6-21c23.538.341 47.889 1.542 70.313-7.278 10.413-3.534 19.817-9.606 28.483-16.22 5.677-4.272 5.593-10.155 5.204-16.144V2133h158c-.617 20.304-1.4 40.824-3.5 61-13.869-10.242-29.362-18.718-46.15-23.169-8.195-2.45-16.517-4.43-24.915-6.049-4.474-1.305-9.191-1.47-13.723-2.256-3.205 2.085-6.814 4.291-9.712 6.974 18.209 15.79 34.227 33.862 46.692 54.569 6.263 10.704 11.667 22.185 14.503 34.318.814 7.305 1.957 11.394 7.986 13.68 5.444 2.996 11.556 5.009 17.819 4.933-.694 19.619-5.252 38.934-8.038 58.293-3.02 13.922-6.597 30.405-11.329 42.63-3.573 9.85-8.4 20.13-17.23 26.399-14.209 9.514-32.517 6.245-48.465 6.039-17.003-.777-33.983-2.11-50.938-3.361.291 4.46-1.562 11.699 4.43 13.33 4.57 1.57 9.202 2.971 13.745 4.604 17.38 6.807 34.844 17.928 42.692 35.672 8.039 19.688 6.696 41.657 7.133 62.394 43.534.776 90.323-11.505 120.721-44.64 14.086-16.114 23.493-35.813 30.014-56.049 7.205-21.28 11.799-43.374 15.444-65.493 2.524-14.553 4.593-29.14 6.443-43.779.833-6.858 1.45-13.742 2.36-20.59.838-5.984-.496-16.113 6.236-16.353 108.485-.273 217 .05 325.482-.096 54.138-.445 108.342.543 162.46-.293 5.798-.93 12.57-4.622 15.115-9.552 3.516-5.906-2.324-9.464-5.645-13.025-12.6-13.328-24.932-26.872-38.865-38.865-6.24-6.713-12.993-12.847-19.863-18.88-3.103-3.375-6.662-6.202-10.12-9.161-2.929-2.561-5.985-6.808-9.782-7.224-3.616 8.537-10.808 15.453-15.337 23.536-5.476 7.408-10.656 17.03-16.163 23.464-1.426-135.512.26-271.402-.5-407h51c12.698-.293 25.421.435 38.089-.425 7.383-.292 17.068-1.499 21.91-9.926 4.342-6.384-3.347-11.333-7.231-15.382-6.174-7.008-12.267-14.071-19.717-19.797-6.727-6.23-12.784-13.177-19.619-19.285-9.647-8.489-20.166-19.313-28.932-27.185-12.752 15.85-22.35 34.091-35 50-1.422-22.873.255-46.17-.5-69.117.158-5.764-.207-11.544.147-17.293-.06-4.598 4.905-4.822 8.472-5.75 9.607-2.129 21.394-9.666 21.381-22.84-47.808-1.824-95.198-10.277-143-12v142h-101v-96c-.043-4.355-.765-9.607 5.057-10.304 10.874-2.405 24.71-7.933 24.943-23.696-47.674-3.627-95.451-8.231-143-13v143h-73c1.181 9.25 5.624 17.81 7 27h66v431h-62c.529-24.23 3.768-48.332 4.312-72.559.199-6.232.454-12.456.626-18.678a34 34 0 0 1 .57-6.664c1.671-3.106 8.143-2.301 10.746-3.93 10.51-1.968 20.582-6.513 27.746-14.669-32.693-26.905-64.764-54.637-97.5-81.5l-31.102 31.102c-5.162 5.38-11.032 9.99-16.268 15.268-2.572 2.518-5.03 5.374-8.173 7.164-3.95.523-7.97.563-11.957.466v-91.8c.27-4.05-.638-9.234 1.5-12.2 8.13 1.992 16.724.341 24.972 1h44.343c11-.036 21.97.045 32.966-.025 7.15-.176 14.986-.767 20.862-5.37 3.812-2.958 8.13-8.748 3.322-13.092-11.36-11.502-23.677-21.974-35.695-32.759-6.872-6.325-14.215-12.088-21.247-18.225-7.648-5.215-13.82-13.305-22.023-17.529-6.027 10.955-16.614 22.277-22.927 31.915a624 624 0 0 1-11.7 15.96c-4.004 4.81-7.3 11.65-12.873 13.125-2.276-3.142-1.115-8.675-1.5-12.962V1870h58.8c14.817-.001 29.62.002 44.432 0 9.418-.016 21.683-1.173 25.949-10.465 4.049-6.816-7.212-12.57-10.782-16.642-15.23-15.34-32.374-28.594-48.383-43.063-7.504-4.75-13.144-12.824-21.016-16.83-2.569 6.984-8.213 10.61-11.443 16.646-5.869 8.007-11.66 16.07-17.716 23.927-3.015 4.06-5.754 8.31-8.949 12.227-2.61 3.6-5.331 8.729-10.892 8.2v-104h124.2c11.727.133 28.272.401 31.866-12.141 1.765-3.81-5.461-7.566-7.051-10.03-22.615-19.804-46.176-38.554-69.681-57.284-6.673-5.091-12.948-10.736-19.834-15.545-17.492 20.502-33.083 42.645-50.15 63.512-3.375 5.73-8.717 6.003-14.366 5.488h-65.339c-16.406-.017-32.775.02-49.166-.011-10.775-.37-20.32-6.717-30.489-9.598-30.442-11.07-60.589-23.344-90.99-34.391zm48 14.27c8.88 32.36 13.529 66.159 14 99.725.02 13.381.204 26.737-.671 40.09-.534 11.11-2.646 22.2-3.816 33.205 5.116 6.867 13.79 14.177 21.67 16.09 18.336 3.605 32.269-6.38 40.01-20.917 12.345-21.977 11.621-48.826 6.187-72.578-5.801-22.864-16.582-44.179-30.7-62.958-9.987-12.659-20.97-24.876-33.175-35.422-4.653-.285-9.027 1.649-13.505 2.495zM1496 1183h4c2.958 15.274 2.2 31.918-5.438 45.873-10.934 23.311-33.756 43.996-49.664 60.73-13.871 13.987-26.906 28.714-40.62 42.842-9.046 11.31-19.712 21.592-26.713 34.437-21.273 40.707-31.1 87.348-30.565 133.118h471c-.852-62.943-3.066-125.883-11.056-188.384-10.638-88.893-28.886-179.63-77.302-256.627C1685.428 982.921 1618.824 918.273 1535 896c-1.277-7.394-.79-15.007-2.055-22.402-3.917-23.53-13.84-46.112-28.945-64.599-7.378-8.88-16.183-16.681-26.114-22.576-6.097-4.235-12.047-3.573-18.599-3.423H1440c4.2 29.898 1.522 66.221-5 93h-6c-7.628-37.356-42.726-69.449-82-66 8.668 38.387 10.332 78.897-1 117-17.088 7.619-35.504 21.223-46.36 34.553-19.586 24.604-22.931 57.368-33.643 85.837-5.054 13.918-10.937 27.58-19.68 39.634-8.687 11.607-15.849 24.197-21.997 37.316-15.01 33.078-23.888 68.644-39.66 101.412-3.105 5.445 2.437 11.632 5.302 16.162 13.015 19.84 24.872 40.499 38.63 59.838 12.561 15.658 33.484 20.816 52.726 20.248 7.683.402 15.64.372 22.573-3.49 22.532-11.371 35.472-34.17 51.452-52.396 7.957-9.04 17.828-19.33 26.41-26.312 9.952-8.507 24.124-6.968 36.346-9.047 16.075-2.083 32.62-4.229 47.01-12.325 7.43-3.701 13.808-9.24 19.158-15.52 4.428-6.07 10.739-11.975 11.733-19.91m-295 661h35v-104h-35zm0 132h17.4c4.922.631 12.335-.965 16.1 1 2.303-3.092 1.102-8.6 1.5-12.895V1870h-35zm0 130h35v-91.8c-.27-4.05.638-9.234-1.5-12.2-10.9 2.343-22.46-.01-33.5 1zm2 80.38c24.23 46.365 42.654 97.727 44 150.62 3.186.75 5.611 4.95 9.133 6.555 11.63 8.34 28.663 7.1 38.74-3.128 9.565-10.2 13.608-24.417 13.099-38.146-.496-27.277-14.066-52.759-31.554-73.023-10.087-11.542-22.124-21.126-34.4-30.19a387 387 0 0 0-18.561-12.09c-2.996-1.8-7.22-4.89-10.165-3.958-3.49.746-6.645 2.812-10.292 2.98zM1482 1154h27.6c4.387.142 8.793-.206 13.165.192 3.89.05 4.856 4.473 5.499 7.82 3.77 13.896 7.973 27.713 11.418 41.685.945 24.567-8.764 49.733-26.526 66.687-23.827 27.2-49.224 53.007-71.882 81.247-11.06 13.518-21.384 27.715-29.515 43.198-8.092 16.84-12.086 35.486-11.759 54.171h360c-.19-56.993-1.868-114.103-9.59-170.629-6.002-40.838-14.6-81.432-27.967-120.543-18.004-55.634-45.385-108.877-85.04-152.326-19.094-21.752-41.703-40.397-66.34-55.538-24.577-14.747-50.984-28.385-79.063-34.964.634-18.276 4.802-37.089-.307-55.221-3.806-16.153-12.194-31.28-24.193-42.779-1.562 12.18.665 24.87-1.31 37.088-2.27 16.973-5.721 34.044-13.074 49.63-1.711 3.657-3.674 7.422-7.015 9.824-13.965 1.232-28.103-.164-42.101.458.678-21.45-.258-51.764-25-66.75 6.125 31.887 3.464 71.911-7.932 99.564-2.917 7.32-7.882 10.914-13.84 14.729-10.219 7.826-21.503 18.16-28.607 27.646-7.415 10.02-11.607 21.908-15.986 33.436-8.912 21.801-13.137 45.896-26.303 65.792-26.937 32.15-36.917 73.77-52.823 111.57-2.98 6.906-6.11 13.697-9.174 20.556-2.467 5.403 4.336 12.815 6.635 18.589 6.443 11.494 12.46 23.333 20.351 33.93 8.127 10.817 20.397 11.666 32.722 11.929 10.674.641 21.549-2.39 29.758-9.493 12.358-12.82 20.482-29.3 33.674-41.473 9.215-9.247 18.768-21.482 28.684-28.446 3.593-2.818 10.226-2.61 15.242-3.989 18.611-3.545 37.073-7.77 55.261-13.057 15.844-4.056 32.515-19.121 35.338-34.533m-208 85c5.723-24.806 21.951-45.605 42-60.5-1.32-1.315-2.607-2.645-3-4.5-16.859 1.08-34.934 4.523-47.861 16.377-6.536 5.919-11.5 13.381-14.32 21.752-4.025 8.884 4.132 16.242 10.202 20.523 3.823 2.61 8.629 5.864 12.979 6.348m148-218c-.117-2.975.295-7.8-2.573-8.921-2.972-1.77-6.535-2.201-9.759-3.321-13.436-4.082-27.134-8.32-41.385-7.653-11.426.955-29.04 5.073-30.613 20.399-.775 3.694-.839 9.229 1.665 11.625 6.254 4.995 14.833 4.42 22.262 5.286 11.15 1.439 21.918-3.054 30.275-10.038 8.152-7.102 19.537-10.412 30.128-7.377m-30 1495.563c1.49 3.261 5.079 6.922 7.5 10.437 42.162-12.446 84.31-26.783 123.372-47.438 57.215-29.438 110.773-66.846 156.597-112.047 8.345.427 17.455 1.569 25.225-2.42 3.355-1.546 6.085-4.133 8.208-7.082 2.454-3.2-4.424-5.322-5.934-6.608-43.913-23.934-87.457-48.687-131.468-72.405-18.847 46.729-46.843 89.295-77.133 129.285-30.686 40.182-66.1 77.084-106.367 107.715zM1564 987.75c27.804 25.513 55.484 52.948 73.172 87.027 28.065 52.457 37.59 112.568 41.001 171.21 3.616 63.915 2.647 128.38-4.173 192.013h30.6c9.798-.517 21.524.85 30.4-1 .05-88.566-6.736-178.22-30.001-264.027-11.088-39.741-27.764-78.346-52.794-111.383-11.993-16.668-25.522-32.241-39.938-46.823-7.04-7.01-15.905-14.626-23.148-20.161a170 170 0 0 0-12.31-8.746c-1.799-.826-4.95-3.246-6.632-1.92-1.98.954-4.459 2.581-6.177 3.06zm70 951.25h101v-120h-101zm0 162h101v-136h-101zm0 149h101v-123h-101zm86 47.5c46.886 57.023 88.238 121.956 105.624 194.802 1.371 10.854 9.563 14.855 18.116 18.581 15.133 8.012 33.223 11.075 49.902 6.342 24.415-6.15 42.001-28.59 45.987-52.883 4.745-24.954-3.401-50.292-16.669-71.289-18.97-30.69-49.654-51.316-81.021-67.49-34.776-16.49-72.37-26.104-110.192-32.374-4.93-1.428-8.186 1.466-11.747 3.811z" style="fill:#000;fill-rule:evenodd;stroke:none"/></svg>