<svg xmlns="http://www.w3.org/2000/svg" width="3000" height="3000"><path d="M328 2803h2344c-118.785-721.214-240.618-1442.068-360.03-2163.199-7.528-45.17-15.046-90.339-22.588-135.492-1.756-10.718-3.574-21.44-5.367-32.15-1.463-5.102-.632-13.609-5.65-15.42-82.419-27.818-165.08-54.96-247.546-82.639-144.35-48.044-288.615-96.253-432.954-144.3-27.19-9.095-54.376-18.14-81.566-27.195-6.024-1.707-14.13-5.746-19.294-4.368-99.967 33.09-199.81 66.647-299.74 99.834a5130220 5130220 0 0 1-448.968 149.67c-9.274 3.513-19.03 5.778-28.13 9.725-3.665 1.962-2.298 9.57-3.876 12.727-22.54 135.51-45.194 271.003-67.739 406.508C542.266 1518.848 433.622 2160.802 328 2803m674-1856.75c3.161 8.933 5.266 18.61 8 27.75h465.6c20.806-.414 42.938 2.414 62.4-6v417.6c-.107 33.022-.203 66.033.928 99.026 2.352 24.974 4.953 53.908 23.942 72.744 15.834 17.053 40.01 22.31 62.012 25.685 42.788 5.341 86.103 3.227 129.1 3.945 62.478-.776 126.814.43 187.143-18.556 24.342-7.729 54.383-25.705 57.47-59.417 1.958-15.062-1.84-31.141-12.503-42.382-9.513-9.921-24.355-17.565-36.092-21.645-.095-24.388-4.034-48.612-4-73 6.478-1.269 13.368-2.8 18.102-7.887 6.588-6.627.979-11.777-4.494-15.244-8.193-7.347-16.71-14.335-25.295-21.205-12.48-9.944-25.09-19.744-37.682-29.544-12.634-8.878-26.108-21.744-38.131-29.12-10.573 13.15-20.989 26.465-31.353 39.774-7.8 10.063-15.757 20.009-23.53 30.093-1.338 1.975-2.873 3.758-4.807 5.15-9.8 2.349-20.644-.055-30.677.983H1677v-85h210.6c16.229-.996 37.022 4.173 46.537-9.609 3.636-5.057-3.729-10.6-7.064-13.655-15.194-13.12-30.174-26.45-46.074-38.734-7.83-6.207-15.638-12.448-23.605-18.462-7.601-5.018-15.397-13.168-23.082-16.54-19.072 22.423-35.674 47.265-55.07 69.32-33.913 1.94-68.241-.353-102.242.68v-80h211.8c11.829-.08 23.646.098 35.463-.055 10.746.522 21.01-4.675 25.737-14.445-13.645-13.987-29.154-25.926-44.036-38.522-7.675-6.097-15.297-12.29-23.037-18.293-3.939-2.835-7.456-6.183-11.403-8.999-3.087-3.08-9.294-6.072-10.524-9.686 2.342-2.578 7.667-2.077 11.334-3.532 14.495-2.765 28.678-6.832 42.787-11.073 5.32-1.701 11.842-3.47 16.005-6.6 4.118-3.298 2.508-10.264 2.874-14.89V914c14.481-1.647 31.555-9.458 40-20-40.7-32.597-84.673-61.488-125.5-94-10.107 11.496-20.397 22.827-30.766 34.09-7.44 8.825-15.604 17.024-23.122 25.772-5.904 7.344-18.156 4.645-26.38 5.138H1681v-80h252c10.067-.46 22.04.664 31.215-.61 7.588-1.34 16.849-6.283 18.113-13.426.35-3.053-5.67-5.313-6.697-7.833-38.201-34.988-78.448-67.87-118.131-101.131-20.059 28.814-41.22 56.983-61.488 85.674-2.833 3.11-4.888 8.437-8.39 9.859-35.442 1.332-71.14-.243-106.622.467V652c8.484-1.89 17.541-2.846 25.015-7.726 8.33-4.625 10.112-12.29 12.985-19.774-60.175-5.094-120.734-9.65-181-14.5v342h-2.5c-33.92-30.821-68.85-60.578-104-90-15.433 20.668-30.408 41.703-45.737 62.448-3.792 5.427-7.886 10.637-11.727 16.013-2.94 5.529-7.782 6.19-13.18 5.539H1311c.329-4.455 5.586-7.348 8.392-10.13 24.48-24.426 49.572-48.421 72.536-74.25 12.076-12.09 22.365-25.748 33.991-38.235 2.924-3.75 7.741-3.393 12.232-3.588 11.8-.742 24.5-7.793 27.849-19.797-42.007-7.44-83.002-20.562-125-28v-3h94.2c15.826-.097 31.66.119 47.48-.067 11.782-.854 31.172.598 34.32-16.933-5.118-1.573-8.92-8.965-13.975-12.475-31.358-29.427-64.412-57.123-97.525-84.525-12.852 16.1-23.962 33.539-36.591 49.804-6.026 8.478-11.995 16.999-18.25 25.3-2.906 3.749-6.378 10.26-10.624 10.693-5.67.465-11.357.009-17.035.203v-93c13.185-1.877 30.277-6.753 33-25-58.054-3.404-116-8.84-174-13v131h-168v1.5c1.787 5.323 3.138 10.794 4.77 16.16 1.405 4.063 1.714 9.922 6.3 10.11 13.858.654 27.8-.117 41.657.23H1095c9.225 23.044 17.5 46.63 21.717 71.225 5.188 25.97 5.03 52.46 3.283 78.775 3.37.811 5.987 5.165 9.132 7.546 8.516 7.436 20.478 14.734 30.868 16.454v3h-158zM1142 2305c.273 15.696.278 31.793-5.404 46.708-8.892 25.668-25.135 48.98-46.072 66.268-17.873 15.168-40.839 23.26-57.752 39.766-15.329 14.005-26.867 33.823-24.988 55.209.466 17.631 7.94 38.256 18.822 50.353 22.04 24.88 60.934 33.48 91.657 20.938 45.285-19.659 68.316-69.892 71.632-116.536 4.961-50.366-10.225-100.162-30.434-145.515-1.823-4.102-3.945-8.038-5.92-12.056-2.081-5.33-6.724-5.57-11.541-5.135m-81-710c39.01 1.52 78.91-4.55 113.034-24.73 7.412-4.625 15.5-9.422 20.23-17.092 3.087-7.264.963-15.68 1.736-23.296V1329h123c-.95 38.254 1.165 76.585-.644 114.796-.37 4.187-1.027 8.75-3.942 12.033-5.155 5.978-15.693 3.629-22.464 4.17-12.172-.37-24.357-.716-36.494-1.657-11.416-2.034-25.725.375-35.956-2.342-.866 3.033-.265 7.317-.5 11 14.343 2.803 28.447 7.126 41.015 14.726 17.215 12 29.068 30.95 33.24 51.408 4.959 21.988 5.218 44.507 6.745 66.866 25.451-3.053 51.183-5.63 75.751-13.426 17.292-5.19 34.43-12.495 48.296-24.284 10.102-8.898 19.004-19.49 23.573-32.366 15.865-42.805 10.688-89.411 11.38-133.967V1106c15.495-2.138 30.421-8.854 41-20.5-43.347-33.095-86.466-66.656-130-99.5-10.475 11.339-20.764 23.125-30.873 34.844-8.356 11.317-20.97 21.517-30.127 35.156h-69.6c-16.13-.34-35.796 1.83-49.568-4.472-43.081-16.32-85.574-34.925-128.832-50.528zm58-824.5v1.5c40.79 11.191 81.01 33.099 106.275 67.907 12.408 18.215 18.55 42.73 9.642 63.806-7.524 18.46-27.448 36.584-45.917 39.287v3h94c5.015-28.746 9.365-57.668 13.158-86.606 3.238-30.11 9.247-60.04 9.842-90.394h-187zm36 1534.5c31.412.143 63.485-.11 93.702-9.74 13.825-4.28 27.376-9.736 39.412-17.855 5.774-3.612 12.542-8.577 15.418-14.277.964-7.987.129-16.112.468-24.128h496c-3.894 36.995-7.33 74.125-13.463 110.847-4.262 27.952-9.686 55.817-17.234 83.072-5.527 18.486-12.367 41.295-24.561 54.805-11.883 13.62-26.984 14.867-42.586 14.276-49.447-.055-98.995-3.25-148.156-8 .316-5.143 5.28-10.624 6.922-16.438 8.348-22.185 5.456-47.219-4.813-68.293-14.053-30.373-41.005-52.631-68.634-70.074-13.86-7.726-30.708-16.044-44.276-21.346-7.977-3.07-15.9-6.228-24.005-8.94-7.062-2.578-16.223-7.238-23.194-.409 23.275 47.7 41.237 99.075 46.475 152.244.951 7.366.84 14.82 1.252 22.217.158 6.257-.708 13.147 4.61 16.267 15.072 13.034 34.262 23.059 54.807 21.63 9.77-.737 21.22-3.937 28.837-8.783 4.112-2.266 7.596-5.45 11.298-8.274 3.607-2.468 6.863-8.457 10.721-8.801v9c33.353 6.152 73.013 18.436 98.115 37.579 13.69 10.094 25.295 24.248 28.846 41.265 4.914 18.307 5.082 37.381 5.039 56.156 34.844-.078 70.107-1.825 104.01-10.435 23.204-5.888 44.565-17.235 62.986-32.36 27.176-24.56 43.547-58.829 54.183-93.27 11.82-35.61 17.927-72.807 24.44-109.625 6.45-42.595 12.007-85.368 15.381-128.31 15.445-1.532 31.071-6.99 42-18.5-41.634-34.186-82.549-69.874-124.5-103.5-16.292 15.971-33.856 30.532-49.945 46.723-6.598 5.669-12.583 12.022-19.307 17.557-5.238 6.464-15.76 4.543-23.066 4.72H1596v-127h245.4c10.027-.274 20.445.907 30.209-2.069 3.942-1.156 7.858-2.84 10.731-5.877 2.295-2.1 5.339-6.601 3.027-8.636-40.608-35.202-84.495-66.77-127.867-98.418-20.108 24.484-39.745 49.407-59.947 73.826-4.701 6.088-9.563 14.579-19.1 13.174H1596v-128h226.2c12.469-.108 24.953.287 37.4-.537 9.712-.595 23.549-3.079 27.4-15.002-41.118-35.52-85.46-67.87-129.5-99.461-20.42 24.168-39.783 49.3-59.988 73.65-4.63 5.615-9.235 14.35-18.807 13.35H1596v-127h264.6c11.13-.44 22.347.578 33.441-.412 7.78-1.485 17.843-5.69 19.967-12.608 1.519-3.315-4.564-6.083-6.098-8.244-41.828-34.14-85.206-66.426-128.41-98.736-23.793 31.608-51.31 61.121-74.5 93h-361.8c-8.74-.686-19.435 1.05-27.271-1.093-53.608-19.639-107.47-38.988-160.929-58.907zm41-1128h123v-82.2c-.544-3.397 1.16-10.031-2.429-11.356-30.458-1.266-61.104.23-91.595-.444H1196zm0 125h123v-98h-123zm60 1009.5c5.924 25.466 5.8 52.759 6 78.892.544 23.269-1.15 46.448-4.483 69.464-1.981 19.26-7.832 38.288-12.036 56.924 14.792 28.396 51.094 46.23 82.24 35.722 22.817-7.737 39.614-27.042 48.217-48.962 13.9-36.617 3.83-77.883-16.934-109.533-19.016-30.966-46.837-55.309-76.673-75.433-3.674-2.641-7.52-4.977-11.386-7.31-4.082-3.566-8.51-2.872-12.833-1.08-.773.315-1.427.864-2.112 1.316m48-410.5h146v-127h-146zm0 156h146v-128h-146zm0 155h146v-127h-146zm237 82.438c26.475 22.285 48.157 49.884 65.623 79.663 6.628 11.484 12.197 23.584 17.48 35.71 2.268 5.297 3.583 10.936 5.457 16.363 2.226 4.85 1.612 12.591 5.583 15.548 17.242 10.55 39.256 16.734 59.034 9.713 30.337-8.559 49.708-41.43 43.993-72.205-5.567-30.145-29.951-52.704-56.413-65.346-20.12-10.427-42.343-16.336-64.589-19.947-11.468-1.76-23.017-2.862-34.567-3.89-6.213-.38-12.415-.49-18.621-.775-5.739.504-13.276-1.555-17.702 1.075-1.816 1.15-4.015 2.558-5.278 4.09m1-1346.938v1.5c20.723 6.514 40.975 15.212 61.539 22.328 15.654 5.4 31.044 11.509 46.577 17.205 11.632 4.244 23.227 8.65 34.87 12.862 8.667 3.62 18.259 2.453 27.404 2.605H1800V893h-119v11.4c1.997 13.34-14.618 19.003-24.516 22.871-36.263 14.94-75.731 18.418-114.484 18.729zm135 178.5h108c5.784-10.193 16.371-20.423 22.212-29.549 4.177-4.846 7.91-10.052 11.871-15.059 3.147-4.665 9.283-10.571 9.917-15.392h-29v-35h-123zm257 246h-257v40.005c.255 9.758-.8 19.83 1.723 29.394 3.36 14.058 25.938 12.537 35.884 12.601h102.913c14.319.214 28.638 0 42.928-.931 10.343-.595 21.228-2.175 29.559-8.893 10.298-9.21 18.694-23.49 25.131-34.2 3.476-5.8 6.766-11.736 9.776-17.778 2.523-6.64 7.965-13.693 9.086-20.198" style="fill:#fedda9;fill-rule:evenodd;stroke:none"/><path d="M1009 975h498c9.754-.247 21.311.7 29.5-6 1.426 101.277-.26 203.06.5 304.432v114.575c-.106 33.15-.227 66.29 1 99.418 2.59 25.124 5.581 54.059 25.37 72.445 16.413 16.774 41.227 21.035 63.285 24.576 43.1 4.978 86.641 2.858 129.917 3.554 62.434-.846 126.849.34 187.03-19.071 24.363-7.902 54.12-26.697 56.16-60.631 1.6-15.166-1.777-31.326-12.67-42.653-9.513-9.921-24.355-17.565-36.092-21.645-.168-23.705-3.915-47.284-4-71 8.896-1.305 19.888-5.157 23-16.602-17.273-16.785-36.701-31.106-55.43-46.151-19.107-13.762-36.753-29.891-56.07-43.247-10.856 12.703-20.643 26.318-31.194 39.27-7.727 9.96-15.557 19.829-23.301 29.76-2.783 3.843-5.314 8.415-11.554 7.95-38.154.057-76.308-.01-114.451.02v-83h203.4c11.418-.05 22.831.06 34.245-.033 10.16.256 19.052-6.37 22.355-15.467-31.617-31.808-68.746-57.454-103.5-85.5-18.06 23.306-36.343 46.824-54.741 69.92-2.298 3.28-8.951 1.449-12.104 2.08H1678v-78h235.2c11.948-.503 29.476 2.571 36.76-13.634 2.024-4.457-6.136-8.733-7.965-11.79-25.728-22.814-52.876-43.984-79.995-65.076 13.867-4.746 31.896-6.629 44.684-11.277 5.878-1.75 11.771-3.467 17.56-5.484 14.505-3.293 10.543-17.556 10.756-27.83V915c14.793-1.796 33.176-9.892 41-21.5-22.197-17.494-45.613-33.418-67.961-50.728-16.999-12.559-33.993-25.109-50.954-37.7-3.02-1.385-6.895-6.672-9.92-5.123-10.549 10.61-19.978 22.4-30.431 33.141-7.29 8.726-15.4 16.69-22.74 25.371-5.756 7.59-17.85 5.331-26.163 5.539H1682v-78h253.8c9.984-.51 21.93.827 30.977-.953 7.504-1.876 16.776-6.78 16.75-15.185-17.903-20.681-41.88-37.346-62.1-56.027-21.265-17.996-42.654-35.87-63.927-53.835-20.529 28.467-41.037 56.986-61.576 85.448-2.554 3.473-4.894 7.122-7.846 10.27-7.55 2.763-18.468.228-26.37 1.282H1682V653c8.628-1.942 17.907-2.862 25.44-8.008 7.579-4.7 11.471-13.51 12.56-21.992-61.072-3.46-121.941-10.302-183-14-.76 113.903.926 228.209-.5 342-34.102-31.338-69.76-60.948-105-91-15.974 20.207-30.108 41.819-45.878 62.19-3.665 5.524-7.877 10.657-11.713 16.05-2.928 5.717-6.486 7.345-12.255 6.76-16.463-.71-33.317.878-49.654-.5 26.87-24.232 51.204-51.105 76.597-76.806 11.77-13.656 24.706-26.302 35.816-40.546 5.21-8.123 17.507-5.392 25.658-8.822 9.677-3.215 13.99-9.846 17.929-17.826-.458-.45-.911-.96-1.25-1.5-41.81-8.321-83.047-19.598-124.75-28.5 31.46-1.426 63.07.26 94.567-.5 15.987-.133 31.95.165 47.922-.096 12.269-.39 29.358.032 34.511-17.404-36.711-34.354-74.458-67.739-113.5-99.5-13.22 15.74-23.888 33.48-36.661 49.576-5.981 8.502-12.09 16.925-18.24 25.294-3.395 3.614-6.092 9.872-9.913 11.68-5.51.815-11.147.235-16.686.45v-91c13.502-1.806 32.099-7.493 33-27-58.728-3.262-117.305-9.212-176-13v131c-56.266.76-112.809-.926-169 .5 3.056 7.345 4.126 15.518 6.886 22.99.94 8.378 9.107 6.381 15.238 6.51H1094c9.225 23.044 17.5 46.63 21.717 71.225 5.316 25.96 4.902 52.454 3.283 78.775 3.37.811 5.987 5.165 9.132 7.546 8.785 8.024 19.514 13.612 30.868 16.954-52.596 1.426-105.375-.26-158 .5 1.7 10.2 5.941 19.875 8 30m142.5 1328c-3.427 2.195-8.322-.305-11.5 2.5 4.84 30.422-8.053 61.868-26.002 85.98-15.492 20.698-36.238 36.862-59.506 47.917-18.602 12.02-36.993 27.895-44.587 49.505-12.522 37.98 9.328 85.25 48.238 96.986 15.272 5.229 32.056 6.993 47.946 3.405 25.832-5.67 47.455-24.133 61.147-46.182 22.261-34.996 27.137-77.692 23.18-118.136-4.296-40.206-17.593-79.27-35.6-115.346-1.178-2.188-2.181-4.43-3.316-6.629m-91.5-707c20.614.44 41.298-.114 61.523-4.467 14.149-3.265 28.084-7.76 41.248-13.919 9.07-4.647 18.45-9.114 26.069-16.04 2.818-2.687 5.871-5.48 7.243-9.223 1.875-7.76.265-15.981.917-23.863V1330h121c-1.099 38.016 1.356 76.15-.772 114.127-.367 3.96-1.368 8.15-4.188 11.125-5.418 5.591-15.863 3.073-22.656 3.741-12.194-.397-24.37-.938-36.514-1.887-11.583-1.026-25.327-.329-35.87-2.106v13c14.343 2.803 28.447 7.126 41.015 14.726 17.215 12 29.068 30.95 33.24 51.408 4.959 21.988 5.218 44.507 6.745 66.866 23.614-2.37 47.314-5.265 70.304-11.328 16.281-4.34 32.541-10.135 46.757-19.368 10.063-6.984 20.239-17.435 26.294-26.863 21.056-36.306 17.27-80.132 17.645-120.1V1107c16.085-2.052 31.178-9.44 42-21.5-43.963-34.018-88.096-68.068-132.5-101.5-19.634 24.185-42.565 46.502-61.5 71h-69.6c-16.936-.02-34.452 1.845-50.123-5.475-42.8-16.662-85.334-34.35-128.277-50.525zm60-825.625c40.047 12.722 80.952 32.666 105.962 68.093 12.879 18.665 18.965 44.014 10.146 65.735-7.238 19.46-27.758 36.234-46.108 40.297 30.616 1.425 61.365-.259 92 .5a2059 2059 0 0 0 13.006-85.501c3.381-29.803 9.004-59.465 9.994-89.499-61.588.57-123.514-.694-185 .375M1154 2306c31.74.173 64.095.073 94.697-9.4 13.984-4.45 27.823-9.711 40.04-17.97 5.918-3.627 12.82-8.754 15.795-14.502.964-7.987.129-16.112.468-24.128h494c-9.156 73.395-14.31 148.881-39.652 219.112-5.826 15.753-15.05 32.672-31.845 38.843-13.959 4.881-29.234 2.226-43.719 3.04-42.95-1.447-86.072-3.498-128.784-7.995 9.887-17.243 15.023-37.761 10.549-57.67-4.592-28.548-21.493-53.4-43.064-71.948-20.325-18.655-44.383-32.61-69.79-43.064-9.58-4.475-19.77-7.488-29.568-11.404-4.948-1.65-9.862-3.42-14.863-4.86-5.816-2.245-9.598 1.105-14.264 2.946 23.113 48.186 42.076 99.597 47.285 153.264 1.026 7.29 1.067 14.642 1.377 21.974.473 5.857-.763 13.572 3.484 17.016 15.006 13.317 34.027 23.553 54.683 22.726 20.005-.057 39.73-9.838 51.671-25.98.832 2.43.282 5.999.5 9 33.353 6.152 73.013 18.436 98.115 37.579 13.69 10.094 25.295 24.248 28.846 41.265 4.914 18.307 5.082 37.381 5.039 56.156 35.42-.107 71.311-1.63 105.797-10.381 23.598-5.995 45.396-17.536 64.005-33.106 27.115-24.938 43.242-59.461 53.896-94.096 11.595-35.998 17.86-73.458 24.331-110.606 6.19-41.775 11.74-83.695 14.971-125.811 15.95-1.536 31.969-7.413 43-19.5-42.026-35.287-84.084-70.71-126.5-105.5-16.028 16.155-33.78 30.429-49.738 46.65-6.626 5.667-12.738 11.866-19.343 17.54-6.28 7.342-14.175 6.117-22.441 5.81H1597v-125h227.4c12.55-.26 25.136.335 37.663-.225 10.082-.162 22.351-4.266 26.937-16.275-41.794-36.385-87.078-68.525-131.5-101.5-20.241 24.29-39.66 49.277-59.908 73.554-5.387 6.066-9.864 15.042-18.37 14.446H1597v-126h228c12.473-.025 24.953.242 37.388-.65 11.306.204 21.97-5.497 26.612-15.85-41.317-36.802-87.196-68.63-131.5-101.5-20.822 23.803-39.697 49.362-60.125 73.516-4.977 6.173-10.433 15.19-17.903 14.484H1597v-125h249.6c13.807-.003 27.63.004 41.435-.002 10.35.14 24.557-3.74 28.965-16.53-44.297-37.428-91.529-71.21-137.5-106.468-12.827 15.674-25.541 31.48-38.31 47.203-11.844 15.841-26.253 30.462-37.19 46.797h-362.4c-8.582-.455-19.128 1.058-26.648-1.81-53.88-18.611-106.893-40.29-160.952-58.19zm43-1130h121v-81c-.297-3.651 1.018-10.478-3.574-10.677-29.493-.92-59.094.167-88.603-.323H1197zm0 125h121v-96h-121zm58 1009.5c7.227 41.692 7.53 91.966 3.726 130.539-1.697 15.805-3.827 31.595-7.528 47.074-1.61 6.73-2.969 13.524-5.018 20.129-.5 2.735-1.77 6.347-1.693 8.63.551 5.792 7.004 10.206 9.908 14.66 15.099 16.206 36.904 27.815 59.726 24.946 34.4-3 60.867-34.045 66.971-66.435 7.535-34.436-3.362-69.996-22.157-98.698-22.302-34.53-54.924-61.482-89.717-82.716-4.116-2.402-11.128-.005-14.218 1.871m50-410.5h144v-125h-144zm0 156h144v-126h-144zm0 155h144v-125h-144zm234 82.75c39.395 37.527 76.015 82.662 90.507 136.637.949 3.521 1.276 7.255 3.003 10.516 20.55 16.38 52.347 19.176 75.25 6.176 24.476-12.625 36.074-42.3 31.454-68.579-6.909-36.28-39.772-60.728-72.354-72.736-36.163-14.037-75.505-16.981-113.885-17.763-2.672.021-5.362.048-7.682 1.352-2.122 1.12-4.202 3.023-6.293 3.647zm4-1346.5c40.189 15.475 81.347 30.27 121.846 45.295 9.728 3.084 20.756 8.513 29.969 10.278 34.731.505 69.457-.092 104.185.177V894h-117v11.4c1.997 13.34-14.618 19.003-24.516 22.871-17.803 7.391-36.8 11.557-55.728 14.761-19.345 3.759-39.233 3.105-58.756 4.218M1678 1125h106c13.221-19.831 29.964-38.08 44-57.5-9.545-1.283-19.387.117-29-.5v-35h-121zm255 248.5c-84.874-1.426-170.064.26-255-.5v39.526c.203 9.262-.72 18.816 1.723 27.873 3.168 13.655 24.963 12.62 34.687 12.601h101.712c14.392.215 28.783.011 43.146-.923 10.05-.625 20.655-2.044 28.931-8.283 10.609-9.163 17.87-21.712 25.175-33.448 7.417-11.799 12.964-24.657 19.626-36.846" style="fill:#000;fill-rule:evenodd;stroke:none"/></svg>