<svg xmlns="http://www.w3.org/2000/svg" width="3000" height="3000"><path d="M1308 2339c16.008 20.528 27.01 44.79 38.851 67.81 4.255 9.296 7.777 18.92 11.258 28.516 2.013 4.346 6.751 5.109 10.4 7.577 15.372 7.853 33.373 11.82 50.521 7.793 25.023-5.63 43.278-27.256 47.753-52.063 4.135-25.53-.905-52.581-13.735-75.018-15.765-30.26-45.278-59.249-71.6-75.669-4.08-2.909-8.496-5.38-12.448-8.446 48.146-99.208 64.965-210.136 78-318.5 9.164-.553 20.317-3.23 27.505-7.716 3.183-2.374 8.113-6.87 7.998-10.505.259-2.2-3.265-3.82-4.31-5.282-1.69-1.452-3.308-3-5.053-4.381-9.395-7.936-18.617-16.073-28-24-15.966-13.921-32.326-27.378-48.22-41.369-4.144-3.506-8.088-7.254-12.319-10.652-5.248-4.773-12.536-14.282-19.703-5.493-5.438 6.073-10.685 12.29-16.742 17.782a21700 21700 0 0 0-29.887 31.851c-2.668 2.493-4.727 5.553-7.28 8.13-4.39 4.063-12.279 2.077-17.676 2.635H1275c10.442-60.389 26.15-120.128 34-181 14.338.205 36.473-1.918 38-23-25.655-5.7-51.5-10.679-77.13-16.5-12.903-2.587-25.697-5.631-38.605-8.144-12.768-1.929-27.396-6.798-39.265-7.356-2.258 38.935-10.359 77.357-16.438 115.776-6.79 40.205-15.158 80.144-22.562 120.224h-102c.592 9.764 6.168 18.513 8 28h88c-23.063 120.82-51.982 240.88-86 359 28.05 7.128 57.103 11.539 86.112 7.924 7.243-.99 14.434-2.472 21.408-4.654 4.876-1.436 9.572-3.395 13.903-6.06 6.531-4.657 6.102-14.137 8.925-20.913 2.227-7.338 3.452-15.144 6.152-22.297 12.526 10.228 23.986 21.632 35.233 33.233 2.626 2.624 5.245 5.247 7.871 7.87 1.984 2.197 5.917 5.629 4.266 8.336-19.002 47.953-47.14 92.096-79.206 132.248-32.903 40.457-73.056 75.01-116.664 103.313.218 3.52 2.737 6.223 4.877 8.788 2.077 3.159 5.447 3.294 8.37 1.506 13.547-5.651 27.288-10.871 40.553-17.141 38.664-17.414 76.053-37.983 110.467-62.846 36.058-24.697 65.438-57.47 94.733-89.307m-79-1321c22.47 74.991 49.328 148.854 72.395 223.7 3.612 13.812 11.362 29.438 12.58 42.6-1.08 61.402-1.565 122.838-2.71 184.237-1.182 10.655.843 22.148 9.372 29.527 14.057 12.236 35.85 18.437 52.05 22.174 70.396 14.712 143.392 14.994 214.699 7.886 17.293-1.877 34.427-5.262 51.251-9.576 20.818-6.91 52.062-15.386 50.3-48.159-1.584-27.957-.703-55.983-1.497-83.959.151-34.574-1.475-69.15-1.338-103.715 25.23-89.028 59.237-175.798 84.898-264.715 20.316 2.645 42.686.735 58.44-14.06 16.352-13.626 22.992-35.075 21.535-55.774-.564-17.081-8.893-34.379-22.844-44.547-13.548-10.96-31.369-15.196-48.53-13.297-16.738 1.678-33.343 9.361-43.781 22.988-11.26 13.942-15.439 32.89-12.632 50.386 1.992 16.288 12.624 35.709 25.812 43.304-.446 3.598-3.69 7.52-5.757 11.195-17.286 28.798-35.84 56.782-52.883 85.72-16.892 28.25-35.17 55.747-51.86 84.085 4.292-81.852 13.251-164.079 18.5-246 33.903 2.001 65.812-30.91 64-64.42 1.218-17.793-6.394-34.728-18.435-47.423-11.916-12.407-29.315-18.403-46.286-18.01-16.914.491-33.832 6.642-45.381 19.455-13.527 11.932-19.113 29.944-17.898 47.493-1.551 25.487 16.3 49.845 40 57.905-26.226 76.908-54.81 153.084-81 230h-2c-4.846-42.86-13.005-85.382-18.52-128.164-7.145-42.577-11.792-85.952-19.48-128.336 21.667-3.879 40.543-19.182 48.504-39.854 7.629-21.765 4.45-48.668-11.408-66.001-21.03-27.07-69.582-28.423-91.557-6.64-27.276 21.223-27.937 69.159-6.631 91.35 9.52 11.298 22.607 18.62 37.092 21.145-7.309 41.441-12.186 83.79-19.056 125.397-5.415 43.813-14.114 87.246-18.944 131.103h-2c-26.224-76.885-54.737-153.123-81-230 25.19-8.413 42.33-34.543 40-61.045 2.38-35.747-31.969-65.155-66.156-63.806-34.927-.06-64.965 32.878-61.844 67.683-1.961 33.486 34.254 65.198 64 62.168 5.464 81.955 13.96 164.07 18.5 246-18.154-30.402-37.265-60.267-55.693-90.51-9.213-15.048-18.563-30.012-27.848-45.014-4.764-7.563-9.188-15.306-14.114-22.759-2.638-3.87-4.716-8.077-7.352-11.936-1.886-3.42-4.997-7.162-5.493-10.781 15.613-6.946 24.545-31.149 25.97-43.797 2.421-17.3-1.6-35.89-12.621-49.714-10.419-13.492-26.89-21.428-43.545-23.111-17.561-2.027-35.903 2.737-49.602 14.12-12.836 10.536-22.128 25.729-22.188 42.787-.766 16.886 2.113 34.737 13.337 48.171 10.715 13.597 26.755 22.343 44.098 23.285 7.534.652 15.047-.278 22.551-.741m-48.997-64.028c-.782 18.545 16.464 35.289 34.804 33.998 17.509-.247 32.323-17.465 30.798-34.782-.505-18.047-16.882-32.743-34.933-31.166-16.326.038-31.439 15.382-30.669 31.95M1270 2197c28.884-96.368 42.206-196.76 48-297h-50c-10.95 58.657-25.696 116.719-37.81 175.172-6.441 28.747-13.341 57.413-20.023 86.094-.7 6.402-4.57 13.379-4.145 20.58 9.942 3.652 23.826 4.55 33.233 7.673 10.433 1.68 20.397 5.554 30.745 7.481m19-1076.562c.342.41.631.299 1 .062-.32-.203-.644-.43-1-.062m1 2.062c16.788 49.106 33.334 98.522 50.5 147.5 9.578-4.156 20.92-4.154 30.5-8.5-27.851-45.67-53.236-94.106-81-139.5zm20.457-245.992c.482 9.86 3.61 19.515 11.437 25.817 7.151 7.41 17.714 10.005 27.653 8.331 17.774-2.298 30.024-21.72 26.205-38.77-2.542-17.765-21.636-30.128-39.064-25.93-14.706 2.464-25.496 15.883-26.23 30.552m45.01 599.33c1.228 9.128 12.224 13.677 19.505 16.281 9.325 3.373 19.139 4.935 28.875 6.507 40.131 4.986 80.74 5.34 121.123 4.777 29.651-.89 59.674-1.373 88.725-8.09 9.547-2.422 21.728-5.877 28.076-12.893 7.042-9.492-2.34-16.371-10.173-19.91-31.354-11.709-65.385-12.88-98.39-14.268-35.792-.48-71.698-.864-107.386 2.095-12.378 1.168-24.698 3.283-36.788 6.162-10.987 3.002-23.559 5.63-31.461 14.668-.801 1.304-2.107 2.854-2.106 4.67M1357 1435c46.032-13.659 94.687-15.919 142.381-16 48.112.028 97.185 2.153 143.619 16v-27c-93.123-24.33-192.85-23.67-286 0zm1.5-54c21.471-8.184 48.864-12.052 69.672-14.633 36.847-3.787 74.165-4.301 111.162-2.672 33.29 2.421 73.314 6.196 102.166 17.305 1.283-9.545-.117-19.387.5-29-92.578-24.123-191.435-23.877-284 0 .609 9.612-.776 19.464.5 29m1-56c45.19-15.869 94.388-17.611 141.771-18 46.574.44 94.82 2.454 139.229 18 1.283-9.545-.117-19.387.5-29-45.594-12.318-93.285-17.906-140.511-18-47.558.04-95.6 5.604-141.489 18 .601 9.605-.768 19.48.5 29m18-273c.295-.643.485-1.298.5-2-.884.057-1.065.773-.833 1.481zm23.5 205c11.525-3.62 24.217-2.13 35.75-4.957 1.892-1.965-.303-6.127-.643-8.2-2.667-8.118-4.845-16.407-7.45-24.533-16.744-55.017-33.318-110.43-50.157-165.31 5.316 67.403 15.993 135.466 22.5 203m36 493h319v230h-100.2c-7.322-.286-16.293.808-22.737-1.572-23.738-8.583-47.329-17.627-71.12-26.058-12.191-4.394-24.312-8.994-36.482-13.424-11.182-3.623-23.927-9.595-34.461-11.946v379.8c.353 30.102-.43 60.213.233 90.303 1.174 22.226 6.658 50.617 22.004 65.631 14.897 14.787 35.642 21.277 55.927 24.137 38.696 6.223 78.14 3.411 117.128 4.129 58.347.097 117.025 1.393 174.917-7.38 25.845-4.596 53.393-10.046 74.44-26.98 20.754-16.924 25.306-54.04 11.039-73.999-8.857-11.952-22.632-19.513-36.688-23.641.094-24.692-1.007-49.382-1.269-74.067l-.544-37.54c-.585-11.438.483-24.99-1.187-35.393-4.264.194-10.68-1.263-12.494 4.165-1.623 4.288-2.866 8.712-4.407 13.02-8.856 25.73-17.986 51.34-27.279 76.9-4.173 11.067-8.526 22.129-13.741 32.729-4.56 9.503-10.14 19.667-20.077 24.5-21.8 7.175-45.475 3.726-67.927 4.686h-61.784c-17.802-.427-35.705.727-53.459-.9-6.397-.59-14.74-3.02-17.61-8.734-5.393-11.04-2.126-28.227-3.222-42.209V2008h131v94c39.352.958 79.264-4.318 115.7-20.069 4.359-1.697 8.692-3.437 12.78-5.701 2.066-.81 3.64-2.27 5.041-3.925 1.365-34.856-.248-69.896.479-104.788V1772c10.552-2.554 21.008-6.524 29.838-12.962 3.627-2.889 9.946-7.666 5.822-11.357-4.154-3.459-8.624-6.513-12.87-9.842-11.574-9.02-23.44-17.658-34.987-26.708-18.082-14.041-36.55-27.528-54.67-41.514-4.632-3.208-9.687-7.599-14.089-10.278-3.965-1.973-7.526 2.568-9.976 5.357-8.462 10.055-17.657 19.465-26.462 29.198-4.69 4.713-8.803 9.945-13.552 14.596-4.28 4.357-7.735 10.189-13.298 13.042-105.509 1.334-211.216-.242-316.756.468 1 9.39 6.519 19.504 8 28m30.458-904.493c.43 9.589 3.633 19.45 10.969 25.66 7.26 7.58 17.955 10.308 28.132 8.474 16.544-3.45 28.775-22.165 25.188-38.908-2.251-17.183-21.43-29.63-38.023-25.8-14.489 2.66-25.354 16.1-26.266 30.574M1470 1249.5c9.665 1.351 20.117-.185 29.946.5 9.968-.614 20.17.78 30.054-.5-6.1-40.82-9.381-82.799-14.94-123.856-3.818-41.64-10.914-82.967-14.06-124.644h-2c-3.217 41.553-10.117 82.796-14.034 124.289-5.234 40.947-9.214 83.824-14.966 124.211m129 7.5c6.523-67.656 17.155-135.331 22.5-203-11.967 38.684-23.459 77.528-35.397 116.217-5.54 19.507-11.904 38.75-17.508 58.229a326 326 0 0 0-4.724 15.38c-1.06 2.673-3.011 8.31 1.051 8.711 10.95 1.766 24.198 1.76 34.078 4.463m23.5-205c.295-.643.485-1.298.5-2-.884.057-1.065.773-.833 1.481zm.968-173.51c.713 24.087 22.916 37.94 43.383 31.01 7.703-2.872 14.688-8.474 18.58-15.772 3.853-7.908 4.889-18.662 2.452-26.342-5.585-17.455-25.496-26.164-42.328-20.22-15.111 4.697-21.314 17.463-22.087 31.324m5.532 383.135c9.586 4.055 20.878 4.339 30.5 8.375 9.423-24.294 16.632-49.54 25.515-74.052 4.608-12.477 8.35-25.263 12.794-37.795 3.148-10.652 9.446-24.325 11.691-36.153-13.587 23.359-26.992 46.9-40.423 70.36-13.64 22.74-26.384 46.777-40.077 69.265m81-141.187c.342.41.631.299 1 .062-.32-.203-.644-.43-1-.062m44.158-165.425c.055 18.2 16.122 34.829 34.642 32.896 17.683-.506 32.395-17.398 31.162-34.942.423-18.158-17.638-33.046-35.176-30.86-17.511.414-30.47 15.874-30.628 32.906" style="fill:#fff;fill-rule:evenodd;stroke:none"/><path d="M449 2668h2102c-110.242-665.144-221.837-1330.12-332.532-1995.186-3.476-20.835-6.96-41.682-10.42-62.51-1.682-10.253-3.434-20.498-5.126-30.74-1.284-4.301-.763-13.077-5.037-14.575-157.034-52.902-314.464-104.735-471.586-157.384-59.003-19.668-117.989-39.359-177-59-12.991-4.38-26.002-8.647-38.997-13.002-3.112-1.025-6.191-2.224-9.42-2.795-5.85.042-13.257 4.126-19.018 5.393-97.504 32.546-195.061 65-292.567 97.54-73.178 24.36-146.325 48.77-219.478 73.159-54.841 18.294-109.718 36.516-164.531 54.86-6.415 1.276-7.163 6.488-7.57 12-26.516 158.994-52.99 317.976-79.524 476.964A2145928 2145928 0 0 0 449 2668m601-168.75c2.1 3.47 4.96 6.561 7.5 9.75 24.04-10.181 48.665-19.503 71.84-31.681 67.742-34.138 131.436-80.642 177.66-141.319h2c18.67 30.418 37.928 61.482 49.116 95.781 1.253 5.254 5.131 7.204 9.408 9.045 14.536 8.11 31.732 12.36 48.331 9.336 16.11-3.122 30.985-12.448 39.501-26.725 12.18-18.632 14.36-42.166 9.706-63.569-3.797-20.907-14.225-39.664-26.36-56.761-18.827-25.993-43.948-46.793-71.702-62.607 48.919-99.742 65.968-211.37 79-320.5 12.352-1.036 29.251-3.991 36-17.5-18.624-15.587-36.79-31.749-55.37-47.377-9.233-8.134-18.778-15.874-28-24-4.713-4.139-9.532-8.143-14.216-12.306-4.418-3.297-9.718-9.243-14.082-10.817-13.67 14.928-28.18 29.13-41.463 44.393-3.378 3.86-7.207 7.268-10.713 10.99-2.668 2.65-4.6 6.09-7.76 8.226-5.824 2.878-12.216.368-18.483 1.391H1273c12.244-60.815 26.143-121.58 35-183 13.86.446 33.471-1.25 38-21-50.983-10.52-101.88-22.372-153-32-2.258 38.935-10.359 77.357-16.438 115.776-6.79 40.205-15.158 80.144-22.562 120.224h-102v1.5c2.477 8.215 5.715 16.237 8 24.5 29.607.76 59.478-.926 89 .5-25.847 119.97-50.405 241.077-87 358.5 28.077 6.993 57.252 11.803 86.255 7.604 6.968-1.167 13.96-2.302 20.621-4.748 4.798-1.569 9.539-3.536 13.706-6.418 5.579-5.006 5.351-15.277 8.212-21.665 1.431-7.097 4.455-15.172 5.206-21.773h1.5c16.814 15.395 37.006 33.425 50.5 49.5-21.321 47.316-46.527 93.464-79.994 133.497-33.158 41.171-73.764 76.35-118.006 105.003zM1771.5 1016c16.752 5.076 38.138.304 51.11-8.511 14.62-9.686 24.462-25.75 26.703-43.095 2.605-17.07-.622-35.353-11.486-49.13-9.754-13.087-25.227-21.323-41.202-23.528-16.72-2.312-34.901 1.367-48.4 11.811-13.431 9.403-22.386 24.992-24.178 41.28-3.737 23.798 7.953 48.64 26.953 62.673-17.896 31.193-38.135 61.16-56.439 92.145-19.608 30.955-38.054 62.68-58.061 93.355 5.555-83.825 13.593-168.075 19.5-252 33.898 2.006 65.797-30.901 64-64.399.831-17.457-7.324-33.889-19.142-46.177-12.014-11.614-28.983-18.082-45.733-17.134-34.218 1.085-64.487 31.961-61.125 66.8-.766 24.793 17.12 48.015 40 55.91-11.697 39.914-28.535 78.597-40.988 118.359-14.712 39.338-27.379 79.5-42.512 118.641-13.953-87.787-25.813-176.124-39.5-264 28.245-3.536 52.889-31.109 52-59.851 2.807-33.42-27.236-66.044-61.063-65.148-33.394-2.686-65.867 27.394-64.935 61.089-2.57 30.16 21.777 60.394 51.998 63.91-13.71 87.882-25.506 176.19-39.5 264-15.063-38.929-27.66-78.79-42.248-117.901-12.533-40.051-29.463-78.911-41.252-119.099 25.183-8.41 42.322-34.531 40-61.024 1.372-34.854-32.665-63.022-65.862-61.745-33.963.936-62.943 32.972-60.133 66.99-1.068 32.47 33.994 63.281 62.983 60.779H1344c7.177 83.818 12.396 168.012 20 251.75-6.575-5.993-9.334-15.949-15.048-22.818-32.961-54.3-67.32-107.792-99.952-162.26 17.117-11.24 26.53-31.294 27.56-51.367.893-20.534-8.341-42.154-25.96-53.501-13.418-9.847-30.985-13.431-47.354-11.052-16.834 2.417-32.255 12.005-42.276 25.644-20.767 27.29-11.698 70.682 15.685 89.557 8.586 6.096 18.675 9.675 29.145 10.625 5.506.644 11.078.456 16.553-.246 2.38-.05 5.873-1.114 7.185.413.582 2.007 2.043 4.462 2.523 6.95 5.686 17.492 11.063 35.076 17.145 52.436 20.522 65.56 43.13 130.464 63.683 196.003 4.083 13.493.963 28.119 1.748 41.956-1.351 53.625-.966 107.292-2.433 160.891.177 20.53 20.363 30.044 35.18 35.573 31.042 11.035 64.154 14.824 96.74 17.96 50.469 3.99 101.456 2.205 151.697-3.53 23.505-3.915 47.72-7.877 69.133-19 10.175-5.015 20.95-15.364 22.272-26.203 1.503-12.556-1.148-25.281-.227-37.9-.39-39.455-.728-78.917-1.449-118.354 0-14.784-1.077-29.606-.304-44.373 12.77-44.72 29.077-88.454 42.825-132.888 15.493-43.337 26.982-88.356 43.429-131.266M1179 953.76c-1.357 19.36 16.354 36.79 35.416 35.233 18.56.626 33.855-17.466 32.32-35.48-.02-18.892-16.789-34.346-35.707-32.51-17.148-.786-33.164 15.376-32.029 32.757M1269.5 2199c16.982-47.21 25.98-97.738 34.037-147.226 6.867-50.732 12.948-101.619 15.463-152.774h-52c-11.105 59.238-25.947 117.924-38.227 176.953-6.373 29.14-13.469 58.136-20.3 87.162-.926 3.639-1.858 7.295-2.744 10.941-.351 2.539-1.863 6.23-.997 8.293 1.47 2.09 5.626 1.754 8.305 2.742 18.793 4.293 38.344 7.341 56.463 13.909m14.5-1089.5c18.28 53.786 36.933 107.632 55 161.5 11.374-2.465 22.788-5.413 34-8.5-15.013-25.486-29.572-51.313-44.365-76.935-15.405-24.907-28.828-52.244-44.635-76.565zm25.416-232.445c.25 10.215 3.852 20.149 11.85 26.615 7.147 6.847 17.385 9.786 27.075 8.302 18.557-1.16 32.225-20.806 28.802-38.652-2.324-20.645-20.728-31.188-38.802-28.827-16.491 1.437-28.905 16.287-28.925 32.562m44.944 598.44c.563 10.391 11.348 14.322 18.511 17.247 23.613 8.144 48.851 8.995 73.47 10.867 38.87 1.608 77.853 2.042 116.703-.548 18.02-1.228 36.194-2.87 53.764-7.262 8.393-2.044 16.821-4.99 23.827-10.207 9.12-7.65 4.172-17.373-3.806-21.702-18.565-10.314-44.313-11.802-63.042-14.533-35.913-3.027-71.973-2.473-107.977-2.356-33.503 1.529-68.98 2.068-100.183 16.188-4.616 2.27-11.311 7.345-11.267 12.305M1356 1436c46.894-12.664 95.886-16.661 144.375-16 48.257-.662 96.967 3.386 143.625 16v-29c-93.773-24.327-194.205-23.673-288 0zm1-54h1.5c46.24-15.11 95.456-18.04 143.712-18 47.374-.429 95.356 4.139 140.788 18v-31c-93.235-24.113-192.767-23.887-286 0zm1-56h1.5c45.294-15.12 93.706-17.969 141.033-18 47.632-.573 95.81 3.914 141.467 18v-31c-45.98-12.47-94.09-17.955-141.708-18-47.815.02-96.152 5.497-142.292 18zm42-68c13.2-2.615 26.732-3.135 40-5-21.11-71.006-42.87-142.235-64.5-213 6.716 72.39 17.098 145.466 24.5 218m30 465.5c2.702 8.418 5.466 17.018 8 25.5h319v232h-99c-7.743-.413-17.094.727-24.08-.941-47.103-17.346-94.512-34.316-141.42-52.059-1.426 143.7.26 287.757-.5 431.52-.337 32.712-1.686 68.477 17.551 97.067 15.435 19.392 40.229 26.779 63.737 29.783 39.107 5.657 78.855 2.813 118.2 3.63 39.759.033 79.572.674 119.257-2.12 21.718-1.663 43.497-3.717 64.858-8.103 26.166-5.492 63.092-14.746 75.363-48.445 4.563-15.241 4.484-33.223-4.76-46.911-8.777-12.415-22.867-20.192-37.206-24.421.094-24.692-1.007-49.382-1.269-74.067l-.544-37.54c-.585-11.438.483-24.99-1.187-35.393-3.877.124-8.92-.608-10.072 3.269-1.558 3.528-2.458 7.303-3.823 10.9-8.754 26.086-18.229 51.914-27.498 77.81-4.357 11.206-8.466 22.574-13.778 33.369-4.728 9.702-10.036 20.164-19.964 25.548-21.723 7.86-45.697 3.993-68.19 5.104h-62.385c-18-.46-36.07.708-54.025-.745-6.739-.729-15.521-2.659-18.609-8.14-5.908-10.928-2.623-28.322-3.656-42.359V2007h133v94c38.675.806 77.883-4.755 113.7-20.069 8.131-3.64 19.979-5.69 18.3-17.83V1771c14.27-3.123 28.069-9.57 38-20.5-40.133-30.492-80.127-61.339-120.5-91.5-10.503 11.015-20.74 22.299-30.794 33.699-9.96 9.045-17.368 20.721-27.786 29.23-5.72 2.086-13.962.412-19.958 1.071H1430zm36.416-877.445c.212 9.756 3.705 19.767 11.011 26.111 7.265 7.304 17.806 10.413 27.932 8.821 17.912-2.1 30.28-21.447 27.806-38.721-1.294-18.38-20.35-31.81-38.074-28.746-16.149 1.77-28.45 16.572-28.675 32.535M1469 1249.5v1.5h62v-1.5c-10.233-85.728-20.833-171.642-30-257.5h-2c-9.154 85.61-19.831 172.312-30 257.5m131 8.5c7.717-72.591 17.457-145.452 24.5-218-13.206 41.725-25.405 83.816-38.237 125.662-6.297 21-12.654 41.976-19.018 62.942-1.822 5.378-3.41 10.823-5.033 16.246-.535 2.575-3.095 8.024.77 8.537 12.309 1.558 24.786 2.36 37.018 4.613m22.339-379.226c.385 9.547 3.894 18.754 11.063 25.097 6.938 6.765 17.119 9.276 26.514 8.217 18.872-.779 32.534-19.597 30.313-37.546-.241-18.796-19.89-33.372-37.943-29.93-8.638.953-17.263 4.563-22.651 11.632-5.128 6.3-7.276 14.372-7.296 22.53m4.661 383.851c11.158 2.791 22.66 6.05 34 8.375 17.133-54.129 38.002-107.825 54.5-162-15.035 25.48-29.433 51.467-44.398 77.006-14.641 25.388-29.456 51.45-44.102 76.619m126.088-307.861c-.52 19.456 16.5 36.477 35.905 34.185 18.671-.052 33.661-17.968 31.992-36.215.827-19.256-18.178-34.151-36.453-31.662-8.44.193-17.15 4.242-22.673 10.367-5.85 6.196-8.83 14.584-8.77 23.325" style="fill:#000;fill-rule:evenodd;stroke:none"/></svg>