<svg xmlns="http://www.w3.org/2000/svg" width="3000" height="3000"><path d="M327 2801h2346v-1.5c-71.101-422.268-140.694-844.862-211.448-1267.2-52.777-316.663-105.567-633.34-158.344-950.001-4.952-29.843-9.921-59.668-14.913-89.495a7255 7255 0 0 0-3.671-21.986c-.887-3.827-1.065-7.803-1.936-11.617-.222-3.807-6.962-4.194-9.374-5.592-113.336-37.818-226.699-75.518-340.017-113.35-99.175-33.046-198.33-66.083-297.478-99.159-43.338-14.382-86.62-28.923-129.95-43.306-8.915-3.232-20.826 4.03-31.003 6.406l-480 160-180 60c-26.347 8.81-52.697 17.548-79.04 26.357-5.875 2.354-12.452 3.527-17.912 6.733-4.04 11.98-4.08 25.553-7.1 37.896-62.505 374.83-124.953 749.675-187.432 1124.506C458.552 2013.527 391.186 2407.121 327 2801" style="fill:#fff;fill-rule:evenodd;stroke:none"/><path d="M327 2802.5c390.66 1.426 782.125-.26 1172.95.5 390.946-.76 782.184.926 1173.05-.5a4.5 4.5 0 0 1-1-2.5H328c.022.935-.325 1.723-1 2.5M2282.5 465c.63-.887.494-1.98.5-3h-2c-.126 1.378.583 2.218 1.5 3m1 6c.63-.887.494-1.98.5-3h-2c-.126 1.378.583 2.218 1.5 3m1 6c.63-.887.494-1.98.5-3h-2c-.126 1.378.583 2.218 1.5 3m1 6c.63-.887.494-1.98.5-3h-2c-.126 1.378.583 2.218 1.5 3m1 6c.63-.887.494-1.98.5-3h-2c-.126 1.378.583 2.218 1.5 3m1 6c.63-.887.494-1.98.5-3h-2c-.126 1.378.583 2.218 1.5 3m1 6c.63-.887.494-1.98.5-3h-2c-.126 1.378.583 2.218 1.5 3m1 6c.63-.887.494-1.98.5-3h-2c-.126 1.378.583 2.218 1.5 3m1 6c.63-.887.494-1.98.5-3h-2c-.126 1.378.583 2.218 1.5 3m1 6c.63-.887.494-1.98.5-3h-2c-.126 1.378.583 2.218 1.5 3m1 6c.63-.887.494-1.98.5-3h-2c-.126 1.378.583 2.218 1.5 3m1 6c.63-.887.494-1.98.5-3h-2c-.126 1.378.583 2.218 1.5 3m1 6c.63-.887.494-1.98.5-3h-2c-.126 1.378.583 2.218 1.5 3m1 6c.63-.887.494-1.98.5-3h-2c-.126 1.378.583 2.218 1.5 3m1 6c.63-.887.494-1.98.5-3h-2c-.126 1.378.583 2.218 1.5 3m1 6c.63-.887.494-1.98.5-3h-2c-.126 1.378.583 2.218 1.5 3m1 6c.63-.887.494-1.98.5-3h-2c-.126 1.378.583 2.218 1.5 3m1 6c.63-.887.494-1.98.5-3h-2c-.126 1.378.583 2.218 1.5 3m1 6c.63-.887.494-1.98.5-3h-2c-.126 1.378.583 2.218 1.5 3m1 6c.63-.887.494-1.98.5-3h-2c-.126 1.378.583 2.218 1.5 3m1 6c.63-.887.494-1.98.5-3h-2c-.126 1.378.583 2.218 1.5 3m1 6c.63-.887.494-1.98.5-3h-2c-.126 1.378.583 2.218 1.5 3m1 6c.63-.887.494-1.98.5-3h-2c-.126 1.378.583 2.218 1.5 3m1 6c.63-.887.494-1.98.5-3h-2c-.126 1.378.583 2.218 1.5 3m1 6c.63-.887.494-1.98.5-3h-2c-.126 1.378.583 2.218 1.5 3m1 6c.63-.887.494-1.98.5-3h-2c-.126 1.378.583 2.218 1.5 3m1 6c.63-.887.494-1.98.5-3h-2c-.126 1.378.583 2.218 1.5 3m1 6c.63-.887.494-1.98.5-3h-2c-.126 1.378.583 2.218 1.5 3m1 6c.63-.887.494-1.98.5-3h-2c-.126 1.378.583 2.218 1.5 3m1 6c.63-.887.494-1.98.5-3h-2c-.126 1.378.583 2.218 1.5 3m1 6c.63-.887.494-1.98.5-3h-2c-.126 1.378.583 2.218 1.5 3m1 6c.63-.887.494-1.98.5-3h-2c-.126 1.378.583 2.218 1.5 3m1 6c.63-.887.494-1.98.5-3h-2c-.126 1.378.583 2.218 1.5 3m1 6c.63-.887.494-1.98.5-3h-2c-.126 1.378.583 2.218 1.5 3m1 6c.63-.887.494-1.98.5-3h-2c-.126 1.378.583 2.218 1.5 3m1 6c.63-.887.494-1.98.5-3h-2c-.126 1.378.583 2.218 1.5 3m1 6c.63-.887.494-1.98.5-3h-2c-.126 1.378.583 2.218 1.5 3m1 6c.63-.887.494-1.98.5-3h-2c-.126 1.378.583 2.218 1.5 3m1 6c.63-.887.494-1.98.5-3h-2c-.126 1.378.583 2.218 1.5 3m1 6c.63-.887.494-1.98.5-3h-2c-.126 1.378.583 2.218 1.5 3m1 6c.63-.887.494-1.98.5-3h-2c-.126 1.378.583 2.218 1.5 3m1 6c.63-.887.494-1.98.5-3h-2c-.126 1.378.583 2.218 1.5 3m1 6c.63-.887.494-1.98.5-3h-2c-.126 1.378.583 2.218 1.5 3m1 6c.63-.887.494-1.98.5-3h-2c-.126 1.378.583 2.218 1.5 3m1 6c.63-.887.494-1.98.5-3h-2c-.126 1.378.583 2.218 1.5 3m1 6c.63-.887.494-1.98.5-3h-2c-.126 1.378.583 2.218 1.5 3m1 6c.63-.887.494-1.98.5-3h-2c-.126 1.378.583 2.218 1.5 3m1 6c.63-.887.494-1.98.5-3h-2c-.126 1.378.583 2.218 1.5 3m1 6c.63-.887.494-1.98.5-3h-2c-.126 1.378.583 2.218 1.5 3m1 6c.63-.887.494-1.98.5-3h-2c-.126 1.378.583 2.218 1.5 3m1 6c.63-.887.494-1.98.5-3h-2c-.126 1.378.583 2.218 1.5 3m1 6c.63-.887.494-1.98.5-3h-2c-.126 1.378.583 2.218 1.5 3m1 6c.63-.887.494-1.98.5-3h-2c-.126 1.378.583 2.218 1.5 3m1 6c.63-.887.494-1.98.5-3h-2c-.126 1.378.583 2.218 1.5 3m1 6c.63-.887.494-1.98.5-3h-2c-.126 1.378.583 2.218 1.5 3m1 6c.63-.887.494-1.98.5-3h-2c-.126 1.378.583 2.218 1.5 3m1 6c.63-.887.494-1.98.5-3h-2c-.126 1.378.583 2.218 1.5 3m1 6c.63-.887.494-1.98.5-3h-2c-.126 1.378.583 2.218 1.5 3m1 6c.63-.887.494-1.98.5-3h-2c-.126 1.378.583 2.218 1.5 3m1 6c.63-.887.494-1.98.5-3h-2c-.126 1.378.583 2.218 1.5 3m1 6c.63-.887.494-1.98.5-3h-2c-.126 1.378.583 2.218 1.5 3m1 6c.63-.887.494-1.98.5-3h-2c-.126 1.378.583 2.218 1.5 3m1 6c.63-.887.494-1.98.5-3h-2c-.126 1.378.583 2.218 1.5 3m1 6c.63-.887.494-1.98.5-3h-2c-.126 1.378.583 2.218 1.5 3m1 6c.63-.887.494-1.98.5-3h-2c-.126 1.378.583 2.218 1.5 3m1 6c.63-.887.494-1.98.5-3h-2c-.126 1.378.583 2.218 1.5 3m1 6c.63-.887.494-1.98.5-3h-2c-.126 1.378.583 2.218 1.5 3m1 6c.63-.887.494-1.98.5-3h-2c-.126 1.378.583 2.218 1.5 3m1 6c.63-.887.494-1.98.5-3h-2c-.126 1.378.583 2.218 1.5 3m1 6c.63-.887.494-1.98.5-3h-2c-.126 1.378.583 2.218 1.5 3m1 6c.63-.887.494-1.98.5-3h-2c-.126 1.378.583 2.218 1.5 3m1 6c.63-.887.494-1.98.5-3h-2c-.126 1.378.583 2.218 1.5 3m1 6c.63-.887.494-1.98.5-3h-2c-.126 1.378.583 2.218 1.5 3m1 6c.63-.887.494-1.98.5-3h-2c-.126 1.378.583 2.218 1.5 3m1 6c.63-.887.494-1.98.5-3h-2c-.126 1.378.583 2.218 1.5 3m1 6c.63-.887.494-1.98.5-3h-2c-.126 1.378.583 2.218 1.5 3m1 6c.63-.887.494-1.98.5-3h-2c-.126 1.378.583 2.218 1.5 3m1 6c.63-.887.494-1.98.5-3h-2c-.126 1.378.583 2.218 1.5 3m1 6c.63-.887.494-1.98.5-3h-2c-.126 1.378.583 2.218 1.5 3m1 6c.63-.887.494-1.98.5-3h-2c-.126 1.378.583 2.218 1.5 3m1 6c.63-.887.494-1.98.5-3h-2c-.126 1.378.583 2.218 1.5 3m1 6c.63-.887.494-1.98.5-3h-2c-.126 1.378.583 2.218 1.5 3m1 6c.63-.887.494-1.98.5-3h-2c-.126 1.378.583 2.218 1.5 3m1 6c.63-.887.494-1.98.5-3h-2c-.126 1.378.583 2.218 1.5 3m1 6c.63-.887.494-1.98.5-3h-2c-.126 1.378.583 2.218 1.5 3m1 6c.63-.887.494-1.98.5-3h-2c-.126 1.378.583 2.218 1.5 3m1 6c.63-.887.494-1.98.5-3h-2c-.126 1.378.583 2.218 1.5 3m1 6c.63-.887.494-1.98.5-3h-2c-.126 1.378.583 2.218 1.5 3m1 6c.63-.887.494-1.98.5-3h-2c-.126 1.378.583 2.218 1.5 3m1 6c.63-.887.494-1.98.5-3h-2c-.126 1.378.583 2.218 1.5 3m1 6c.63-.887.494-1.98.5-3h-2c-.126 1.378.583 2.218 1.5 3m1 6c.63-.887.494-1.98.5-3h-2c-.126 1.378.583 2.218 1.5 3m1 6c.63-.887.494-1.98.5-3h-2c-.126 1.378.583 2.218 1.5 3m1 6c.63-.887.494-1.98.5-3h-2c-.126 1.378.583 2.218 1.5 3m1 6c.63-.887.494-1.979.5-3h-2c-.126 1.378.583 2.218 1.5 3m1 6c.63-.887.494-1.979.5-3h-2c-.126 1.378.583 2.218 1.5 3m1 6c.63-.887.494-1.979.5-3h-2c-.126 1.378.583 2.218 1.5 3m1 6c.63-.887.494-1.979.5-3h-2c-.126 1.378.583 2.218 1.5 3m1 6c.63-.887.494-1.979.5-3h-2c-.126 1.378.583 2.218 1.5 3m1 6c.63-.887.494-1.979.5-3h-2c-.126 1.378.583 2.218 1.5 3m1 6c.63-.887.494-1.979.5-3h-2c-.126 1.378.583 2.218 1.5 3m1 6c.63-.887.494-1.979.5-3h-2c-.126 1.378.583 2.218 1.5 3m1 6c.63-.887.494-1.979.5-3h-2c-.126 1.378.583 2.218 1.5 3m1 6c.63-.887.494-1.979.5-3h-2c-.126 1.378.583 2.218 1.5 3m1 6c.63-.887.494-1.979.5-3h-2c-.126 1.378.583 2.218 1.5 3m1 6c.63-.887.494-1.979.5-3h-2c-.126 1.378.583 2.218 1.5 3m1 6c.63-.887.494-1.979.5-3h-2c-.126 1.378.583 2.218 1.5 3m1 6c.63-.887.494-1.979.5-3h-2c-.126 1.378.583 2.218 1.5 3m1 6c.63-.887.494-1.979.5-3h-2c-.126 1.378.583 2.218 1.5 3m1 6c.63-.887.494-1.979.5-3h-2c-.126 1.378.583 2.218 1.5 3m1 6c.63-.887.494-1.979.5-3h-2c-.126 1.378.583 2.218 1.5 3m1 6c.63-.887.494-1.979.5-3h-2c-.126 1.378.583 2.218 1.5 3m1 6c.63-.887.494-1.979.5-3h-2c-.126 1.378.583 2.218 1.5 3m1 6c.63-.887.494-1.979.5-3h-2c-.126 1.378.583 2.218 1.5 3m1 6c.63-.887.494-1.979.5-3h-2c-.126 1.378.583 2.218 1.5 3m1 6c.63-.887.494-1.979.5-3h-2c-.126 1.378.583 2.218 1.5 3m1 6c.63-.887.494-1.979.5-3h-2c-.126 1.378.583 2.218 1.5 3m1 6c.63-.887.494-1.979.5-3h-2c-.126 1.378.583 2.218 1.5 3m1 6c.63-.887.494-1.979.5-3h-2c-.126 1.378.583 2.218 1.5 3m1 6c.63-.887.494-1.979.5-3h-2c-.126 1.378.583 2.218 1.5 3m1 6c.63-.887.494-1.979.5-3h-2c-.126 1.378.583 2.218 1.5 3m1 6c.63-.887.494-1.979.5-3h-2c-.126 1.378.583 2.218 1.5 3m1 6c.63-.887.494-1.979.5-3h-2c-.126 1.378.583 2.218 1.5 3m1 6c.63-.887.494-1.979.5-3h-2c-.126 1.378.583 2.218 1.5 3m1 6c.63-.887.494-1.979.5-3h-2c-.126 1.378.583 2.218 1.5 3m1 6c.63-.887.494-1.979.5-3h-2c-.126 1.378.583 2.218 1.5 3m1 6c.63-.887.494-1.979.5-3h-2c-.126 1.378.583 2.218 1.5 3m1 6c.63-.887.494-1.979.5-3h-2c-.126 1.378.583 2.218 1.5 3m1 6c.63-.887.494-1.979.5-3h-2c-.126 1.378.583 2.218 1.5 3m1 6c.63-.887.494-1.979.5-3h-2c-.126 1.378.583 2.218 1.5 3m1 6c.63-.887.494-1.979.5-3h-2c-.126 1.378.583 2.218 1.5 3m1 6c.63-.887.494-1.979.5-3h-2c-.126 1.378.583 2.218 1.5 3m1 6c.63-.887.494-1.979.5-3h-2c-.126 1.378.583 2.218 1.5 3m1 6c.63-.887.494-1.979.5-3h-2c-.126 1.378.583 2.218 1.5 3m1 6c.63-.887.494-1.979.5-3h-2c-.126 1.378.583 2.218 1.5 3m1 6c.63-.887.494-1.979.5-3h-2c-.126 1.378.583 2.218 1.5 3m1 6c.63-.887.494-1.979.5-3h-2c-.126 1.378.583 2.218 1.5 3m1 6c.63-.887.494-1.979.5-3h-2c-.126 1.378.583 2.218 1.5 3m1 6c.63-.887.494-1.979.5-3h-2c-.126 1.378.583 2.218 1.5 3m1 6c.63-.887.494-1.979.5-3h-2c-.126 1.378.583 2.218 1.5 3m1 6c.63-.887.494-1.979.5-3h-2c-.126 1.378.583 2.218 1.5 3m1 6c.63-.887.494-1.979.5-3h-2c-.126 1.378.583 2.218 1.5 3m1 6c.63-.887.494-1.979.5-3h-2c-.126 1.378.583 2.218 1.5 3m1 6c.63-.887.494-1.979.5-3h-2c-.126 1.378.583 2.218 1.5 3m1 6c.63-.887.494-1.979.5-3h-2c-.126 1.378.583 2.218 1.5 3m1 6c.63-.887.494-1.979.5-3h-2c-.126 1.378.583 2.218 1.5 3m1 6c.63-.887.494-1.979.5-3h-2c-.126 1.378.583 2.218 1.5 3m1 6c.63-.887.494-1.979.5-3h-2c-.126 1.378.583 2.218 1.5 3m1 6c.63-.887.494-1.979.5-3h-2c-.126 1.378.583 2.218 1.5 3m1 6c.63-.887.494-1.979.5-3h-2c-.126 1.378.583 2.218 1.5 3m1 6c.63-.887.494-1.979.5-3h-2c-.126 1.378.583 2.218 1.5 3m1 6c.63-.887.494-1.979.5-3h-2c-.126 1.378.583 2.218 1.5 3m1 6c.63-.887.494-1.979.5-3h-2c-.126 1.378.583 2.218 1.5 3m1 6c.63-.887.494-1.979.5-3h-2c-.126 1.378.583 2.218 1.5 3m1 6c.63-.887.494-1.979.5-3h-2c-.126 1.378.583 2.218 1.5 3m1 6c.63-.887.494-1.979.5-3h-2c-.126 1.378.583 2.218 1.5 3m1 6c.63-.887.494-1.979.5-3h-2c-.126 1.378.583 2.218 1.5 3m1 6c.63-.887.494-1.979.5-3h-2c-.126 1.378.583 2.218 1.5 3m1 6c.63-.887.494-1.979.5-3h-2c-.126 1.378.583 2.218 1.5 3m1 6c.63-.887.494-1.979.5-3h-2c-.126 1.378.583 2.218 1.5 3m1 6c.63-.887.494-1.979.5-3h-2c-.126 1.378.583 2.218 1.5 3m1 6c.63-.887.494-1.979.5-3h-2c-.126 1.378.583 2.218 1.5 3m1 6c.63-.887.494-1.979.5-3h-2c-.126 1.378.583 2.218 1.5 3m1 6c.63-.887.494-1.979.5-3h-2c-.126 1.378.583 2.218 1.5 3m1 6c.63-.887.494-1.979.5-3h-2c-.126 1.378.583 2.218 1.5 3m1 6c.63-.887.494-1.979.5-3h-2c-.126 1.378.583 2.218 1.5 3m1 6c.63-.887.494-1.979.5-3h-2c-.126 1.378.583 2.218 1.5 3m1 6c.63-.887.494-1.979.5-3h-2c-.126 1.378.583 2.218 1.5 3m1 6c.63-.887.494-1.979.5-3h-2c-.126 1.378.583 2.218 1.5 3m1 6c.63-.887.494-1.979.5-3h-2c-.126 1.378.583 2.218 1.5 3m1 6c.63-.887.494-1.979.5-3h-2c-.126 1.378.583 2.218 1.5 3m1 6c.63-.887.494-1.979.5-3h-2c-.126 1.378.583 2.218 1.5 3m1 6c.63-.887.494-1.979.5-3h-2c-.126 1.378.583 2.218 1.5 3m1 6c.63-.887.494-1.979.5-3h-2c-.126 1.378.583 2.218 1.5 3m1 6c.63-.887.494-1.979.5-3h-2c-.126 1.378.583 2.218 1.5 3m1 6c.63-.887.494-1.979.5-3h-2c-.126 1.378.583 2.218 1.5 3m1 6c.63-.887.494-1.979.5-3h-2c-.126 1.378.583 2.218 1.5 3m1 6c.63-.887.494-1.979.5-3h-2c-.126 1.378.583 2.218 1.5 3m1 6c.63-.887.494-1.979.5-3h-2c-.126 1.378.583 2.218 1.5 3m1 6c.63-.887.494-1.979.5-3h-2c-.126 1.378.583 2.218 1.5 3m1 6c.63-.887.494-1.979.5-3h-2c-.126 1.378.583 2.218 1.5 3m1 6c.63-.887.494-1.979.5-3h-2c-.126 1.378.583 2.218 1.5 3m1 6c.63-.887.494-1.979.5-3h-2c-.126 1.378.583 2.218 1.5 3m1 6c.63-.887.494-1.979.5-3h-2c-.126 1.378.583 2.218 1.5 3m1 6c.63-.887.494-1.979.5-3h-2c-.126 1.378.583 2.218 1.5 3m1 6c.63-.887.494-1.979.5-3h-2c-.126 1.378.583 2.218 1.5 3m1 6c.63-.887.494-1.979.5-3h-2c-.126 1.378.583 2.218 1.5 3m1 6c.63-.887.494-1.979.5-3h-2c-.126 1.378.583 2.218 1.5 3m1 6c.63-.887.494-1.979.5-3h-2c-.126 1.378.583 2.218 1.5 3m1 6c.63-.887.494-1.979.5-3h-2c-.126 1.378.583 2.218 1.5 3m1 6c.63-.887.494-1.979.5-3h-2c-.126 1.378.583 2.218 1.5 3m1 6c.63-.887.494-1.979.5-3h-2c-.126 1.378.583 2.218 1.5 3m1 6c.63-.887.494-1.979.5-3h-2c-.126 1.378.583 2.218 1.5 3m1 6c.63-.887.494-1.979.5-3h-2c-.126 1.378.583 2.218 1.5 3m1 6c.63-.887.494-1.979.5-3h-2c-.126 1.378.583 2.218 1.5 3m1 6c.63-.887.494-1.979.5-3h-2c-.126 1.378.583 2.218 1.5 3m1 6c.63-.887.494-1.979.5-3h-2c-.126 1.378.583 2.218 1.5 3m1 6c.63-.887.494-1.979.5-3h-2c-.126 1.378.583 2.218 1.5 3m1 6c.63-.887.494-1.979.5-3h-2c-.126 1.378.583 2.218 1.5 3m1 6c.63-.887.494-1.979.5-3h-2c-.126 1.378.583 2.218 1.5 3m1 6c.63-.887.494-1.979.5-3h-2c-.126 1.378.583 2.218 1.5 3m1 6c.63-.887.494-1.979.5-3h-2c-.126 1.378.583 2.218 1.5 3m1 6c.63-.887.494-1.979.5-3h-2c-.126 1.378.583 2.218 1.5 3m1 6c.63-.887.494-1.979.5-3h-2c-.126 1.378.583 2.218 1.5 3m1 6c.63-.887.494-1.979.5-3h-2c-.126 1.378.583 2.218 1.5 3m1 6c.63-.887.494-1.979.5-3h-2c-.126 1.378.583 2.218 1.5 3m1 6c.63-.887.494-1.979.5-3h-2c-.126 1.378.583 2.218 1.5 3m1 6c.63-.887.494-1.979.5-3h-2c-.126 1.378.583 2.218 1.5 3m1 6c.63-.887.494-1.979.5-3h-2c-.126 1.378.583 2.218 1.5 3m1 6c.63-.887.494-1.979.5-3h-2c-.126 1.378.583 2.218 1.5 3m1 6c.63-.887.494-1.979.5-3h-2c-.126 1.378.583 2.218 1.5 3m1 6c.63-.887.494-1.979.5-3h-2c-.126 1.378.583 2.218 1.5 3m1 6c.63-.887.494-1.979.5-3h-2c-.126 1.378.583 2.218 1.5 3m1 6c.63-.887.494-1.979.5-3h-2c-.126 1.378.583 2.218 1.5 3m1 6c.63-.887.494-1.979.5-3h-2c-.126 1.378.583 2.218 1.5 3m1 6c.63-.887.494-1.979.5-3h-2c-.126 1.378.583 2.218 1.5 3m1 6c.63-.887.494-1.979.5-3h-2c-.126 1.378.583 2.218 1.5 3m1 6c.63-.887.494-1.979.5-3h-2c-.126 1.378.583 2.218 1.5 3m1 6c.63-.887.494-1.979.5-3h-2c-.126 1.378.583 2.218 1.5 3m1 6c.63-.887.494-1.979.5-3h-2c-.126 1.378.583 2.218 1.5 3m1 6c.63-.887.494-1.979.5-3h-2c-.126 1.378.583 2.218 1.5 3m1 6c.63-.887.494-1.979.5-3h-2c-.126 1.378.583 2.218 1.5 3m1 6c.63-.887.494-1.979.5-3h-2c-.126 1.378.583 2.218 1.5 3m1 6c.63-.887.494-1.979.5-3h-2c-.126 1.378.583 2.218 1.5 3m1 6c.63-.887.494-1.979.5-3h-2c-.126 1.378.583 2.218 1.5 3m1 6c.63-.887.494-1.979.5-3h-2c-.126 1.378.583 2.218 1.5 3m1 6c.63-.887.494-1.979.5-3h-2c-.126 1.378.583 2.218 1.5 3m1 6c.63-.887.494-1.979.5-3h-2c-.126 1.378.583 2.218 1.5 3m1 6c.63-.887.494-1.979.5-3h-2c-.126 1.378.583 2.218 1.5 3m1 6c.63-.887.494-1.979.5-3h-2c-.126 1.378.583 2.218 1.5 3m1 6c.63-.887.494-1.979.5-3h-2c-.126 1.378.583 2.218 1.5 3m1 6c.63-.887.494-1.979.5-3h-2c-.126 1.378.583 2.218 1.5 3m1 6c.63-.887.494-1.979.5-3h-2c-.126 1.378.583 2.218 1.5 3m1 6c.63-.887.494-1.979.5-3h-2c-.126 1.378.583 2.218 1.5 3m1 6c.63-.887.494-1.979.5-3h-2c-.126 1.378.583 2.218 1.5 3m1 6c.63-.887.494-1.979.5-3h-2c-.126 1.378.583 2.218 1.5 3m1 6c.63-.887.494-1.979.5-3h-2c-.126 1.378.583 2.218 1.5 3m1 6c.63-.887.494-1.979.5-3h-2c-.126 1.378.583 2.218 1.5 3m1 6c.63-.887.494-1.979.5-3h-2c-.126 1.378.583 2.218 1.5 3m1 6c.63-.887.494-1.979.5-3h-2c-.126 1.378.583 2.218 1.5 3m1 6c.63-.887.494-1.979.5-3h-2c-.126 1.378.583 2.218 1.5 3m1 6c.63-.887.494-1.979.5-3h-2c-.126 1.378.583 2.218 1.5 3m1 6c.63-.887.494-1.979.5-3h-2c-.126 1.378.583 2.218 1.5 3m1 6c.63-.887.494-1.979.5-3h-2c-.126 1.378.583 2.218 1.5 3m1 6c.63-.887.494-1.979.5-3h-2c-.126 1.378.583 2.218 1.5 3m1 6c.63-.887.494-1.979.5-3h-2c-.126 1.378.583 2.218 1.5 3m1 6c.63-.887.494-1.979.5-3h-2c-.126 1.378.583 2.218 1.5 3m1 6c.63-.887.494-1.979.5-3h-2c-.126 1.378.583 2.218 1.5 3m1 6c.63-.887.494-1.979.5-3h-2c-.126 1.378.583 2.218 1.5 3m1 6c.63-.887.494-1.979.5-3h-2c-.126 1.378.583 2.218 1.5 3m1 6c.63-.887.494-1.979.5-3h-2c-.126 1.378.583 2.218 1.5 3m1 6c.63-.887.494-1.979.5-3h-2c-.126 1.378.583 2.218 1.5 3m1 6c.63-.887.494-1.979.5-3h-2c-.126 1.378.583 2.218 1.5 3m1 6c.63-.887.494-1.979.5-3h-2c-.126 1.378.583 2.218 1.5 3m1 6c.63-.887.494-1.979.5-3h-2c-.126 1.378.583 2.218 1.5 3m1 6c.63-.887.494-1.979.5-3h-2c-.126 1.378.583 2.218 1.5 3m1 6c.63-.887.494-1.979.5-3h-2c-.126 1.378.583 2.218 1.5 3m1 6c.63-.887.494-1.979.5-3h-2c-.126 1.378.583 2.218 1.5 3m1 6c.63-.887.494-1.979.5-3h-2c-.126 1.378.583 2.218 1.5 3m1 6c.63-.887.494-1.979.5-3h-2c-.126 1.378.583 2.218 1.5 3m1 6c.63-.887.494-1.979.5-3h-2c-.126 1.378.583 2.218 1.5 3m1 6c.63-.887.494-1.979.5-3h-2c-.126 1.378.583 2.218 1.5 3m1 6c.63-.887.494-1.979.5-3h-2c-.126 1.378.583 2.218 1.5 3m1 6c.63-.887.494-1.979.5-3h-2c-.126 1.378.583 2.218 1.5 3m1 6c.63-.887.494-1.979.5-3h-2c-.126 1.378.583 2.218 1.5 3m1 6c.63-.887.494-1.979.5-3h-2c-.126 1.378.583 2.218 1.5 3m1 6c.63-.887.494-1.979.5-3h-2c-.126 1.378.583 2.218 1.5 3m1 6c.63-.887.494-1.979.5-3h-2c-.126 1.378.583 2.218 1.5 3m1 6c.63-.887.494-1.979.5-3h-2c-.126 1.378.583 2.218 1.5 3m1 6c.63-.887.494-1.979.5-3h-2c-.126 1.378.583 2.218 1.5 3m1 6c.63-.887.494-1.979.5-3h-2c-.126 1.378.583 2.218 1.5 3m1 6c.63-.887.494-1.979.5-3h-2c-.126 1.378.583 2.218 1.5 3m1 6c.63-.887.494-1.979.5-3h-2c-.126 1.378.583 2.218 1.5 3m1 6c.63-.887.494-1.979.5-3h-2c-.126 1.378.583 2.218 1.5 3m1 6c.63-.887.494-1.979.5-3h-2c-.126 1.378.583 2.218 1.5 3m1 6c.63-.887.494-1.979.5-3h-2c-.126 1.378.583 2.218 1.5 3m1 6c.63-.887.494-1.979.5-3h-2c-.126 1.378.583 2.218 1.5 3m1 6c.63-.887.494-1.979.5-3h-2c-.126 1.378.583 2.218 1.5 3m1 6c.63-.887.494-1.979.5-3h-2c-.126 1.378.583 2.218 1.5 3m1 6c.63-.887.494-1.979.5-3h-2c-.126 1.378.583 2.218 1.5 3m1 6c.63-.887.494-1.979.5-3h-2c-.126 1.378.583 2.218 1.5 3m1 6c.63-.887.494-1.979.5-3h-2c-.126 1.378.583 2.218 1.5 3m1 6c.63-.887.494-1.979.5-3h-2c-.126 1.378.583 2.218 1.5 3m1 6c.63-.887.494-1.979.5-3h-2c-.126 1.378.583 2.218 1.5 3m1 6c.63-.887.494-1.979.5-3h-2c-.126 1.378.583 2.218 1.5 3m1 6c.63-.887.494-1.979.5-3h-2c-.126 1.378.583 2.218 1.5 3m1 6c.63-.887.494-1.979.5-3h-2c-.126 1.378.583 2.218 1.5 3m1 6c.63-.887.494-1.979.5-3h-2c-.126 1.378.583 2.218 1.5 3m1 6c.63-.887.494-1.979.5-3h-2c-.126 1.378.583 2.218 1.5 3m1 6c.63-.887.494-1.979.5-3h-2c-.126 1.378.583 2.218 1.5 3m1 6c.63-.887.494-1.979.5-3h-2c-.126 1.378.583 2.218 1.5 3m1 6c.63-.887.494-1.979.5-3h-2c-.126 1.378.583 2.218 1.5 3m1 6c.63-.887.494-1.979.5-3h-2c-.126 1.378.583 2.218 1.5 3m1 6c.63-.887.494-1.979.5-3h-2c-.126 1.378.583 2.218 1.5 3m1 6c.63-.887.494-1.979.5-3h-2c-.126 1.378.583 2.218 1.5 3m1 6c.63-.887.494-1.979.5-3h-2c-.126 1.378.583 2.218 1.5 3m1 6c.63-.887.494-1.979.5-3h-2c-.126 1.378.583 2.218 1.5 3m1 6c.63-.887.494-1.979.5-3h-2c-.126 1.378.583 2.218 1.5 3m1 6c.63-.887.494-1.979.5-3h-2c-.126 1.378.583 2.218 1.5 3m1 6c.63-.887.494-1.979.5-3h-2c-.126 1.378.583 2.218 1.5 3m1 6c.63-.887.494-1.979.5-3h-2c-.126 1.378.583 2.218 1.5 3m1 6c.63-.887.494-1.979.5-3h-2c-.126 1.378.583 2.218 1.5 3m1 6c.63-.887.494-1.979.5-3h-2c-.126 1.378.583 2.218 1.5 3m1 6c.63-.887.494-1.979.5-3h-2c-.126 1.378.583 2.218 1.5 3m1 6c.63-.887.494-1.979.5-3h-2c-.126 1.378.583 2.218 1.5 3m1 6c.63-.887.494-1.979.5-3h-2c-.126 1.378.583 2.218 1.5 3m1 6c.63-.887.494-1.979.5-3h-2c-.126 1.378.583 2.218 1.5 3m1 6c.63-.887.494-1.979.5-3h-2c-.126 1.378.583 2.218 1.5 3m1 6c.63-.887.494-1.979.5-3h-2c-.126 1.378.583 2.218 1.5 3m1 6c.63-.887.494-1.979.5-3h-2c-.126 1.378.583 2.218 1.5 3m1 6c.63-.887.494-1.979.5-3h-2c-.126 1.378.583 2.218 1.5 3m1 6c.63-.887.494-1.979.5-3h-2c-.126 1.378.583 2.218 1.5 3m1 6c.63-.887.494-1.979.5-3h-2c-.126 1.378.583 2.218 1.5 3m1 6c.63-.887.494-1.979.5-3h-2c-.126 1.378.583 2.218 1.5 3m1 6c.63-.887.494-1.979.5-3h-2c-.126 1.378.583 2.218 1.5 3m1 6c.63-.887.494-1.979.5-3h-2c-.126 1.378.583 2.218 1.5 3m1 6c.63-.887.494-1.979.5-3h-2c-.126 1.378.583 2.218 1.5 3m1 6c.63-.887.494-1.979.5-3h-2c-.126 1.378.583 2.218 1.5 3m1 6c.63-.887.494-1.979.5-3h-2c-.126 1.378.583 2.218 1.5 3m1 6c.63-.887.494-1.979.5-3h-2c-.126 1.378.583 2.218 1.5 3m1 6c.63-.887.494-1.979.5-3h-2c-.126 1.378.583 2.218 1.5 3m1 6c.63-.887.494-1.979.5-3h-2c-.126 1.378.583 2.218 1.5 3m1 6c.63-.887.494-1.979.5-3h-2c-.126 1.378.583 2.218 1.5 3m1 6c.63-.887.494-1.979.5-3h-2c-.126 1.378.583 2.218 1.5 3m1 6c.63-.887.494-1.979.5-3h-2c-.126 1.378.583 2.218 1.5 3m1 6c.63-.887.494-1.979.5-3h-2c-.126 1.378.583 2.218 1.5 3m1 6c.63-.887.494-1.979.5-3h-2c-.126 1.378.583 2.218 1.5 3m1 6c.63-.887.494-1.979.5-3h-2c-.126 1.378.583 2.218 1.5 3m1 6c.63-.887.494-1.979.5-3h-2c-.126 1.378.583 2.218 1.5 3m1 6c.63-.887.494-1.979.5-3h-2c-.126 1.378.583 2.218 1.5 3m1 6c.63-.887.494-1.979.5-3h-2c-.126 1.378.583 2.218 1.5 3m1 6c.63-.887.494-1.979.5-3h-2c-.126 1.378.583 2.218 1.5 3m1 6c.63-.887.494-1.979.5-3h-2c-.126 1.378.583 2.218 1.5 3m1 6c.63-.887.494-1.979.5-3h-2c-.126 1.378.583 2.218 1.5 3m1 6c.63-.887.494-1.979.5-3h-2c-.126 1.378.583 2.218 1.5 3m1 6c.63-.887.494-1.979.5-3h-2c-.126 1.378.583 2.218 1.5 3m1 6c.63-.887.494-1.979.5-3h-2c-.126 1.378.583 2.218 1.5 3m1 6c.63-.887.494-1.979.5-3h-2c-.126 1.378.583 2.218 1.5 3m1 6c.63-.887.494-1.979.5-3h-2c-.126 1.378.583 2.218 1.5 3m1 6c.63-.887.494-1.979.5-3h-2c-.126 1.378.583 2.218 1.5 3m1 6c.63-.887.494-1.979.5-3h-2c-.126 1.378.583 2.218 1.5 3m1 6c.63-.887.494-1.979.5-3h-2c-.126 1.378.583 2.218 1.5 3m1 6c.63-.887.494-1.979.5-3h-2c-.126 1.378.583 2.218 1.5 3m1 6c.63-.887.494-1.979.5-3h-2c-.126 1.378.583 2.218 1.5 3m1 6c.63-.887.494-1.979.5-3h-2c-.126 1.378.583 2.218 1.5 3m1 6c.63-.887.494-1.979.5-3h-2c-.126 1.378.583 2.218 1.5 3m1 6c.63-.887.494-1.979.5-3h-2c-.126 1.378.583 2.218 1.5 3m1 6c.63-.887.494-1.979.5-3h-2c-.126 1.378.583 2.218 1.5 3m1 6c.63-.887.494-1.979.5-3h-2c-.126 1.378.583 2.218 1.5 3m1 6c.63-.887.494-1.979.5-3h-2c-.126 1.378.583 2.218 1.5 3m1 6c.63-.887.494-1.979.5-3h-2c-.126 1.378.583 2.218 1.5 3m1 6c.63-.887.494-1.979.5-3h-2c-.126 1.378.583 2.218 1.5 3m1 6c.63-.887.494-1.979.5-3h-2c-.126 1.378.583 2.218 1.5 3m1 6c.63-.887.494-1.979.5-3h-2c-.126 1.378.583 2.218 1.5 3m1 6c.63-.887.494-1.979.5-3h-2c-.126 1.378.583 2.218 1.5 3m1 6c.63-.887.494-1.979.5-3h-2c-.126 1.378.583 2.218 1.5 3m1 6c.63-.887.494-1.979.5-3h-2c-.126 1.378.583 2.218 1.5 3m1 6c.63-.887.494-1.979.5-3h-2c-.126 1.378.583 2.218 1.5 3m1 6c.63-.887.494-1.979.5-3h-2c-.126 1.378.583 2.218 1.5 3m1 6c.63-.887.494-1.979.5-3h-2c-.126 1.378.583 2.218 1.5 3m1 6c.63-.887.494-1.979.5-3h-2c-.126 1.378.583 2.218 1.5 3m1 6c.63-.887.494-1.979.5-3h-2c-.126 1.378.583 2.218 1.5 3m1 6c.63-.887.494-1.979.5-3h-2c-.126 1.378.583 2.218 1.5 3m1 6c.63-.887.494-1.979.5-3h-2c-.126 1.378.583 2.218 1.5 3m1 6c.63-.887.494-1.979.5-3h-2c-.126 1.378.583 2.218 1.5 3m1 6c.63-.887.494-1.979.5-3h-2c-.126 1.378.583 2.218 1.5 3m1 6c.63-.887.494-1.979.5-3h-2c-.126 1.378.583 2.218 1.5 3m1 6c.63-.887.494-1.979.5-3h-2c-.126 1.378.583 2.218 1.5 3m1 6c.63-.887.494-1.979.5-3h-2c-.126 1.378.583 2.218 1.5 3m1 6c.63-.887.494-1.979.5-3h-2c-.126 1.378.583 2.218 1.5 3m1 6c.63-.887.494-1.979.5-3h-2c-.126 1.378.583 2.218 1.5 3m1 6c.63-.887.494-1.979.5-3h-2c-.126 1.378.583 2.218 1.5 3m1 6c.63-.887.494-1.979.5-3h-2c-.126 1.378.583 2.218 1.5 3m1 6c.63-.887.494-1.979.5-3h-2c-.126 1.378.583 2.218 1.5 3m1 6c.63-.887.494-1.979.5-3h-2c-.126 1.378.583 2.218 1.5 3m1 6c.63-.887.494-1.979.5-3h-2c-.126 1.378.583 2.218 1.5 3m1 6c.63-.887.494-1.979.5-3h-2c-.126 1.378.583 2.218 1.5 3m1 6c.63-.887.494-1.979.5-3h-2c-.126 1.378.583 2.218 1.5 3m1 6c.63-.887.494-1.979.5-3h-2c-.126 1.378.583 2.218 1.5 3m1 6c.63-.887.494-1.979.5-3h-2c-.126 1.378.583 2.218 1.5 3m1 6c.63-.887.494-1.979.5-3h-2c-.126 1.378.583 2.218 1.5 3m1 6c.63-.887.494-1.979.5-3h-2c-.126 1.378.583 2.218 1.5 3m1 6c.63-.887.494-1.979.5-3h-2c-.126 1.378.583 2.218 1.5 3m1 6c.63-.887.494-1.979.5-3h-2c-.126 1.378.583 2.218 1.5 3m1 6c.63-.887.494-1.979.5-3h-2c-.126 1.378.583 2.218 1.5 3m1 6c.63-.887.494-1.979.5-3h-2c-.126 1.378.583 2.218 1.5 3m1 6c.63-.887.494-1.979.5-3h-2c-.126 1.378.583 2.218 1.5 3m1 6c.63-.887.494-1.979.5-3h-2c-.126 1.378.583 2.218 1.5 3m1 6c.63-.887.494-1.979.5-3h-2c-.126 1.378.583 2.218 1.5 3m1 6c.63-.887.494-1.979.5-3h-2c-.126 1.378.583 2.218 1.5 3" style="fill:#fff2ff;fill-rule:evenodd;stroke:none"/></svg>