<svg xmlns="http://www.w3.org/2000/svg" width="3000" height="3000"><path d="M449 2666.5v1.5h2102v-1.5c-63.81-378.768-126.215-757.87-189.705-1136.696-47.349-283.998-94.654-568.016-142-852-4.398-26.67-8.911-53.338-13.325-80.003-1.118-6.656-2.232-13.342-3.35-19.985-.571-3.586-1.119-7.183-2.096-10.662-1.288-2.958-6.82-3.128-9.193-4.54-101.51-33.828-203.017-67.663-304.512-101.514a746151 746151 0 0 1-266.522-88.84c-39.072-12.89-78.06-26.135-117.144-38.98-4.713-1.335-9.273 1.032-13.839 2.453-144.507 48.104-288.95 96.378-433.449 144.467-54.18 18.08-108.385 36.116-162.566 54.195-23.808 7.923-47.625 15.882-71.434 23.805-5.676 1.96-11.407 3.738-17.06 5.726-6.564 1.113-6.72 8.744-7.34 13.268C740.08 921.349 682.77 1265.54 625.383 1609.692 566.339 1961.663 508.308 2314.864 449 2666.5m616-706.5h640c-.108 4.494-5.113 8.577-8.17 12.564-13.966 13.967-26.765 29.02-40.813 42.892-6.007 5.779-18.28 2.49-27.262 3.544h-246.372c-7.62-.321-16.67.478-23.617-.47-46.156-17.168-92.464-34.475-138.266-52.53-1.426 141.538.26 283.402-.5 425 26.197.66 52.86-.689 77.7-10.066 11.879-3.839 23.412-8.745 34.444-14.573 5.129-2.938 10.927-6.882 14.713-10.771 4.607-4.488 2.712-12.867 3.143-18.59h38v2.5c-42.513 40.87-93.382 71.694-144.184 100.923-52.565 28.995-107.357 54.897-164.816 72.577.26 2.561.304 5.834 1.738 8.535 1.74 1.892 5.692.03 8.474.436 51.499-3.439 102.725-10.463 153.496-19.595 48.365-8.352 96.132-20.306 143-34.774 22.978-7.297 45.604-15.607 67.585-25.512 5.29-2.076 11.315-6.55 16.865-5.456 15.622 3.88 40.285 7.128 54.842-6.134-22.007-14.61-43.08-30.875-64.91-45.8-10.851-7.812-21.838-15.42-32.621-23.31-5.55-3.861-11.132-7.646-16.555-11.682-4.281-3.772-13.056-7.594-13.914-12.708h266v30c39.514 1.291 79.06-5.493 115.725-20.494 7.879-2.95 18.708-5.987 17.275-18.118V2061c10.965-1.087 25.378-8.951 31-16-17.457-14.796-36.862-27.558-54.666-41.999-9.287-6.865-18.501-13.879-27.741-20.805-4.61-3.364-9.08-6.918-13.561-10.43-4.062-3.4-10.927-6.7-11.032-11.766h173.4c17.492-.597 41.417 4.69 49.6-12.5-36.431-31.718-76.726-58.825-115.5-87.5-15.482 16.882-29.17 35.388-44.321 52.56-5.384 6.773-11.177 13.206-16.582 19.946-5.095 5.596-16.352 2.557-24.343 3.494H1562v-47.4c.154-5.986-.2-12.006.136-17.976.106-5.92 7.98-4.44 11.626-4.624H1681v42c18.744.328 37.713.793 55.973-4.244 13.267-3.085 26.196-7.423 38.755-12.64 8.673-3.707 17.57-7.411 25.273-12.942 6.053-4.822 3.276-15.31 3.999-21.955v-72.427c-.007-4.08-.899-10.06 4.487-11.12 11.556-3.644 25.83-7.925 31.513-18.672-19.63-12.533-37.616-28.654-56.903-41.94-18.394-14.952-38.296-28.01-56.597-43.06-10.47 10.607-20.142 21.934-30.432 32.696-7.295 8.122-16.22 17.37-23.049 24.675-3.51 3.264-8.561 2.627-13.039 2.629H1562v-57c7.243-1.564 14.91-2.473 21.42-6.364 7.787-3.847 9.603-10.419 12.58-17.136-6.513-2.174-13.829-1.264-20.566-2.364-47.17-3.35-94.23-8.3-141.434-11.136v94h-88.2c-6.427-.038-14.256.627-19.812-1.796-40.868-16.362-82.925-30.233-123.488-47.204-1.426 79.876.26 160.06-.5 240 13.31-.145 26.745.608 39.946-1.526 18.027-3.117 35.863-7.53 52.732-14.746 7.901-3.197 15.541-7.223 22.607-11.983 9.101-5.495 6.536-16.851 6.715-25.745h110v70h-375c.735 7.993 5.812 16.56 6 24m41-705.054v51.654c.504 14.304-.76 31.2.766 44.258 3.558 23.27 19.428 42.252 36.981 56.711 26.607 21.603 57.98 36.346 89.86 48.272 33.062 12.509 67.236 21.803 101.946 28.412 59.74 10.998 120.65 15.684 181.377 14.527 87.067-1.388 174.952-13.984 256.359-45.895 37.804-15.552 77.047-33.794 103.515-66.288 6.104-8.089 11.365-16.936 14.349-26.697 4.722-17.082 1.921-35.248 2.847-52.701v-101.217c.03-24.314 4.642-54.574-14.36-79.16-12.87-18.498-31.182-32.686-50.28-44.274-70.287-42.326-152.313-60.326-232.934-68.564-86.498-7.3-174.37-6.268-259.913 9.756-60.108 11.865-120.36 30.292-172.706 63.034-24.67 15.807-48.416 37.483-55.987 66.957-2.991 16.38-1.255 33.17-1.82 49.744zm18.224-85.478c.807 25.739 17.877 47.386 38.422 61.015 19.885 14.482 42.366 24.996 65.069 34.213 57.225 22.313 118.006 35 179.09 40.58 95.251 8.567 192.299 5.058 285.965-15.228 43.45-10.93 87.09-24.175 126.15-46.705 18.442-10.866 36.76-23.795 48.333-42.269 12.297-19.003 12.43-44.05.574-63.306-14.278-24.033-39.134-38.735-62.815-51.74-92.346-46.259-197.06-58.695-298.921-59.945-102.247.205-207.201 11.597-300.989 55.372-32.582 16.911-79.864 40.454-80.878 88.013M1877 1219c-3.89.322-6.72 4.673-9.475 6.975-21.762 22.39-50.073 37.045-78.166 49.664-54.054 22.876-111.719 36.168-169.776 43.775-89.343 11.43-180.424 9.922-269.325-4.538-41.229-7.315-82.483-16.56-121.486-32.105-37.743-14.215-74.68-33.5-102.105-63.771H1124c.012 38.748-.014 77.496.008 116.24-.437 13.44 2.58 26.875 9.993 38.217 11.73 18.848 30.76 31.346 49.378 42.455 60.435 32.395 128.33 48.829 195.818 58.049 111.713 12.6 226.646 10.31 336.13-17.544 26.116-7.096 51.827-15.873 76.554-26.892 17.368-8.532 34.919-17.161 50.125-29.303 11.683-9.378 23.022-20.273 29.065-34.283 5.312-10.654 6.09-22.702 5.927-34.39.005-37.513 0-75.04.002-112.549m-674.5 179c1.426-30.207-.26-60.729.5-91-11.052-2.944-25.771-10.398-33.339-16H1168v67.245c.25 5.543-.352 12.14.309 17.2.176 3.23 4.594 5.254 7.298 7.268 8.79 5.388 17.986 10.145 26.893 15.287m1.567-244.675c.414 17.703 12.58 31.99 25.624 42.013 13.052 10.25 28.24 17.43 43.472 23.726 92.313 35.96 193.686 43.087 291.618 36.372 48.273-3.504 96.256-12.28 141.919-28.502 21.46-7.574 42.584-17.235 61.17-30.479 16.254-12.421 36.418-32.079 24.353-58.745-8.964-19.941-31.621-34.411-48.677-42.978-36.022-18.61-75.67-29.228-115.38-36.369-62.882-10.369-127.138-12.761-190.663-7.905-59.88 4.679-120.092 16.256-175.03 41.336-12.664 6.317-27.51 14.344-37.12 23.226-11.55 8.677-21.192 24.58-21.286 38.305m18.35-.275c.19 15.957 10.593 28.702 23.257 36.938 12.136 8.777 25.912 14.955 39.703 20.568 89 32.293 185.73 37.649 279.357 30.883 46.424-3.586 92.49-12.473 136.881-26.478 20.61-7.161 41.382-15.69 58.607-29.361 8.39-6.343 16.852-17.11 17.648-27.115 1.602-11.54-2.125-22.769-10.23-31.134-14.29-14.626-33.312-23.628-51.932-31.243-72.418-27.802-150.814-34.037-227.692-33.108-75.522 1.06-153.475 9.467-222.443 42.732-17.334 9.425-41.73 22.36-43.157 47.318M1240 1414c11.937 3.39 23.769 7.678 36 10v-66.6c-.005-5.622.006-11.23-.003-16.84 1.138-9.155-9.738-9.44-16.106-11.75-6.338-2.469-14.171-4.367-19.891-6.81zm84 428h110v-89h-110zm8-404c9.538 2.963 20.088 1.965 29.5 5 1.409-20.355-.242-41.037.5-61.448v-15.51c-.13-3.787.252-8.292-.368-11.723.097-3.05-4.052-3.486-6.368-3.94-7.17-1.798-17.549-2.215-23.264-4.379zm331 677v-72h-313v62.821c.26 2.799-.474 7.867 2.45 8.746 23.205 1.234 46.61-.224 69.845.433zm0 98v-74h-313v64.506c.289 2.863-.572 8.11 2.424 9.047 23.793 1.275 47.813-.232 71.65.447zm0 100v-76h-313v66.264c.301 2.943-.649 8.325 2.438 9.297 24.596 1.253 49.41-.228 74.036.439zm-257.935-1164.23c.827 22.071 23.438 31.378 38.867 37.336 27.61 8.937 62.65 9.975 88.782 5.609 14.435-2.046 28.385-6.393 41.068-13.645 12.361-6.021 23.309-19.435 20.66-33.975-2.82-14.136-15.9-23.094-28.203-28.363-39.003-17.045-92.665-16.443-128.473-1.265-12.935 5.379-31.168 15.22-32.7 34.303m17.266.012c.432 8.141 5.817 12.405 11.715 15.903 5.197 3.598 10.875 6.402 16.859 8.41 24.418 8.19 55.281 7.561 78.26 4.228 12.351-2.307 27.042-5.928 37.372-11.176 9.85-4.73 18.278-19.393 6.08-29.99-8.078-7.738-19.437-10.391-29.735-13.637-34.65-8.478-72.541-6.254-105.216 8.159-6.604 2.9-15.014 8.436-15.335 18.103M1531 2383c62.74 17.495 122.888 44.71 175.286 83.704 9.849 6.746 19.072 14.314 28.358 21.792 16.47 16.48 37.898 29.012 61.632 30.55 21.135 2.447 43.09-1.921 62.101-11.235 15.478-7.271 31.719-22.398 35.89-37.976 3.221-15.874-5.973-31.688-18.632-40.716-20.892-16.867-46.889-25.724-72.275-33.025-84.687-21.833-172.913-21.876-259.667-22.073-4.06.15-10.127-.252-12.059 4.991-.62 1.182-.496 2.831-.634 3.988m31-541h119v-89h-119zm32-393c9.714-.465 19.264-2.703 29-3v-92c-8.488 1.178-19.977 1.621-29 4zm64-9c11.554-2.342 23.276-4.656 35-6v-92c-11.596 2.065-23.628 4.148-35 7zm64.5-14c6.924-3.536 14.987-4.666 22.238-7.416 6.928-1.863 14.75-5.52 21.262-6.584v-91c-14.546 4.486-29.45 8.692-44 13 .76 30.6-.926 61.486.5 92m81-30c7.993-6.164 17.63-10.102 25.463-16.59 3.03-2.08 6.393-3.637 9.351-5.825 4.656-4.634 1.612-14.611 2.686-21.65-.756-22.552.922-45.495-.5-67.935-11.185 7.996-25.54 16.881-37.5 21 .76 30.248-.926 60.872.5 91" style="fill:#cc2423;fill-rule:evenodd;stroke:none"/><path d="M1064 1961h640v1.5c-13.736 14.918-28.28 29.107-41.53 44.45-3.113 3.076-6.059 6.378-9.403 9.197-3.296 2.67-9.251 1.59-13.922 1.853h-224.79c-18.047-1.068-39.55 1.34-56.011-.817-46.685-16.6-92.536-36.109-139.344-52.183v427c26.497.663 53.514-.275 78.694-9.742 12.072-3.836 23.802-8.714 34.988-14.654 5.313-2.945 11.266-7.05 15.175-11.014 4.607-4.488 2.712-12.867 3.143-18.59 11.899.68 24.213-.846 36 .5-42.749 41.06-93.934 72.074-145.027 101.407-26.793 14.16-53.39 28.844-81.31 40.749-13.632 6.078-27.352 11.927-41.385 17.032-13.583 6.473-28.9 9.026-42.278 15.812 1.01 2.975 1.714 7.557 3.336 9.65 3.714 1.226 7.58-.582 11.493-.247 75.493-5.849 150.65-17.04 224.293-34.703 35.893-8.85 71.666-18.645 106.207-31.938 8.68-3.408 17.273-6.903 25.844-10.53 6.11-2.083 12.675-5.98 18.216-7.958 4.479-.722 10.232 2.238 14.749 2.376 15.355 2.336 33.94 1.899 45.862-9.65-42.783-30.916-86.47-60.755-129-92 87.842-1.426 176.083.26 264-.5v30c39.972 1.353 80.055-5.068 117.194-20.286 7.948-3.043 19.203-5.968 17.806-18.326V2062c11.323-1.16 26.995-9.506 32-17.5-17.72-14.406-36.552-27.407-54.457-41.568-9.254-6.915-18.425-13.921-27.713-20.78-4.57-3.406-9.1-6.87-13.55-10.429-3.452-3.558-10.848-6.606-12.28-10.723 67.015-.021 134.034.026 201.044-.014 7.325.147 16.276-3.406 19.966-9.237 4.806-5.957-4.767-10.975-8.258-14.17-34.267-28.039-70.707-53.276-106.252-79.579h-1.5c-12.87 18.314-29.436 34.898-43.158 52.776-5.529 6.685-11.061 13.362-16.66 19.98-4.905 6.545-16.188 3.357-23.128 4.244H1563v-46.2c.18-5.782-.233-11.574.161-17.339-.065-5.655 8.505-4.428 12.197-4.461H1680v42c19.063.264 38.373.931 56.982-4.007 13.397-3.12 26.499-7.387 39.19-12.65 8.868-3.793 17.969-7.487 25.829-13.17 6.147-4.973 3.184-15.76 3.999-22.553v-73.623c-.316-4.258-.32-8.926 5.44-9.595 11.801-2.989 23.889-8.506 31.56-18.402-18.832-15.562-39.413-29.317-58.63-44.476-14.475-11.445-29.548-22.085-44.148-33.358-5.58-3.563-11.707-11.496-16.838-6.006-17.065 17.814-33.217 36.5-50.365 54.211-4.51 3.975-13.054 2.156-19.608 2.629H1563v-55c7.754-1.754 16.157-2.577 22.89-7.32 6.402-3.996 10.219-11.336 11.11-18.68-54.623-4.18-109.29-9.851-164-13v94h-64.2c-15.145-.52-33.56 1.705-46.698-3.555-40.382-14.952-80.53-31.213-121.102-45.445v242c13.608-.066 27.323.49 40.852-1.313 18.183-3.179 36.245-7.398 53.27-14.734 8.095-3.277 15.945-7.296 23.163-12.208 9.101-5.495 6.536-16.851 6.715-25.745h108v68h-375c.072 8.738 5.768 18.014 6 26m41-706.254v51.854c.525 14.587-.776 31.832.752 45.16 3.59 23.444 19.61 42.641 37.388 57.127 26.66 21.518 57.962 36.217 89.859 48.11 33.285 12.56 67.69 21.888 102.63 28.45 59.831 11.022 120.823 15.398 181.628 14.352 87.47-1.399 175.77-13.92 257.528-46.112 37.747-15.606 76.992-33.897 103.324-66.485 6.103-8.116 11.267-17.073 14.22-26.856 4.516-17.142 1.716-35.26 2.671-52.747v-53.304c-1.036-31.725 1.264-63.606-.685-95.264-4.282-23.933-19.42-44.854-38.466-59.552-32.806-26.42-72.144-43.044-111.526-56.864-64.28-21.556-132.072-30.082-199.496-33.121-69.52-2.27-139.55-.123-208.033 13.016-60.442 11.695-120.893 30.322-173.576 62.981-24.803 15.882-48.776 37.583-56.398 67.24-2.991 16.38-1.255 33.171-1.82 49.746zm20.34-85.293c.97 25.391 18.239 46.542 38.306 60.03 19.73 14.36 42.014 24.84 64.525 33.991 57.371 22.514 118.366 35.15 179.634 40.802 94.79 8.574 191.343 4.929 284.524-15.353 43.399-10.999 87.056-24.198 126.037-46.85 18.468-10.833 36.635-23.9 48.148-42.397 12.617-19.529 11.387-45.096-1.604-64.074-15.275-23.138-40.187-37.172-63.764-50.026-92.42-45.316-196.583-57.353-298.15-58.548-101.677.997-206.347 12.048-299.303 56.636-18.575 8.759-36.469 19.152-51.773 32.982-15.549 13.3-26.025 32.002-26.58 52.807M1875.5 1220c-21.626 23.273-48.532 40.851-77.684 53.267-54.102 24.36-112.423 38.18-171.012 46.27-90.577 12.466-182.982 11.038-273.272-2.946-42.2-7.195-84.42-16.6-124.352-32.323-38.966-13.562-75.37-34.687-104.18-64.268.028 38.403-.034 76.829.018 115.227-.273 13.28 2.794 26.564 10.275 37.678 11.717 18.62 30.635 30.994 49.086 42.007 59.837 32.013 126.954 48.533 193.76 57.76 111.548 12.886 226.355 10.692 335.71-17.135 26-7.001 51.522-15.75 76.164-26.612 17.42-8.418 34.922-17.073 50.2-29.088 11.571-9.227 22.74-19.822 29.168-33.39 5.593-10.494 6.845-22.424 6.608-34.104-.729-37.356.921-75.11-.489-112.343m-672 180c1.426-31.207-.26-62.73.5-94-13.613-2.318-24.616-11.98-37-17v70.174c.34 5.686-.485 12.511.435 17.671-.01 3.322 5.661 5.18 7.505 7.047 9.343 5.67 19.07 10.74 28.56 16.108m-.474-246.564c.102 18.178 12.543 32.985 26.058 43.222 13.383 10.428 28.996 17.659 44.59 24.018 92.735 35.777 194.448 42.499 292.674 35.714 48.246-3.482 96.164-12.403 141.783-28.596 21.468-7.657 42.614-17.331 61.18-30.66 16.462-12.678 35.89-32.378 24.37-59.35-8.478-20.29-31.27-34.996-48.32-43.638-35.895-18.684-75.411-29.289-115-36.582-62.962-10.53-127.327-12.9-190.96-8.332-60.21 4.59-120.736 15.911-176.147 40.726-13.132 6.402-28.546 14.604-38.515 23.72-11.869 9.488-21.606 23.892-21.713 39.757m20.432-.929c.388 16.755 12.118 29.61 25.372 37.995 12.718 8.643 26.919 15.035 41.276 20.391 44.214 16.313 91.056 24.743 137.829 29.055 72.963 6.37 146.944 3.3 218.713-11.575 33.19-7.684 67.07-16.04 96.902-33.175 14.065-7.938 29.344-19.237 33.144-36.01 2.561-19.902-9.712-32.725-23.742-42.466-34.333-22.022-74.765-32.585-114.16-41.263-64.755-11.772-131.161-13.746-196.746-9.672-62.14 4.11-125.267 15.178-181.217 43.89-14.57 8.624-34.858 20.392-37.371 42.83M1239 1415c12.557 3.953 25.287 7.609 38 11v-69c-.005-5.822.006-11.629-.003-17.44 1.087-9.308-10.197-9.454-16.62-11.924-6.995-1.778-14.798-5.675-21.377-6.636zm86 426h108v-87h-108zm6-402c10.534 2.392 21.389 3.087 32 5v-79.2c-.177-3.793.318-8.322-.423-11.753.273-2.795-4.472-3.134-6.313-3.669-8.48-1.176-16.835-3.018-25.264-4.378zm331 675v-70h-311v60.864c.26 2.811-.487 7.82 2.438 8.697 22.599 1.253 45.416-.228 68.045.439zm0 98v-72h-311v62.821c.26 2.799-.474 7.867 2.45 8.746 23.204 1.234 46.61-.224 69.845.433zm0 100v-74h-311v64.506c.289 2.863-.572 8.11 2.424 9.047 23.792 1.275 47.813-.232 71.649.447zm-257.984-1163.114c.27 22.963 24.076 32.701 40.083 38.634 27.969 8.528 63.209 9.558 89.586 5.198 14.456-2.043 28.403-6.39 41.097-13.648 12.807-6.086 23.056-19.65 20.91-34.355-2.079-15.369-14.53-22.97-27.02-29.345-39.337-17.439-93.519-17.242-130.022-2.713-14.15 6.037-34.395 16.115-34.634 36.229m19.443-.374c.732 10.05 10.487 14.355 17.098 18.515 8.054 4.644 17.201 7.192 26.253 8.963 29.087 4.997 59.286 3.397 87.316-6.194 11.326-3.106 29.432-12.478 20.914-28.72-8.736-11.398-23.75-14.857-36.805-18.49-35.215-6.983-75.367-5.823-106.896 13.425-4.294 2.646-7.262 7.42-7.88 12.501M1529 2382.75c7.82 4.876 17.154 5.057 25.695 8.988 63.501 20.059 123.267 51.718 174.605 94.285 12.64 11.052 24.93 23.1 41.4 28.44 24.02 9.477 56.114 7.31 77.85-1.154 11.984-3.943 23.27-10.584 32.183-19.542 9.883-8.649 16.5-21.096 15.198-34.453-1.086-15.812-13.386-27.508-25.419-35.911-45.682-29.328-101.136-36.98-153.744-43.931-57.499-6.62-115.478-6.568-173.275-6.46-3.56-.139-7.054.362-10.44 1.355-2.576 1.654-2.823 6.18-4.053 8.383m34-541.75h117v-87h-117zm30-391c10.392-.242 20.618-2.587 31-3v-94c-9.096.988-21.355 1.428-31 4zm64-9c12.407-1.295 24.519-5.173 37-6-.76-31.607.926-63.478-.5-95-11.569 4.128-24.88 3.982-36.5 8zm64-14h1.5c14.99-4.06 29.48-10.201 44.5-14v-94c-14.983 5.473-30.836 9.203-46 14zm81.5-29c8.484-5.577 17.55-10.301 25.709-16.393 6.424-4.112 15.355-6.668 13.791-17.293-.76-27.377.926-55.015-.5-82.314-12.248 7.734-26.616 18.105-39.5 22 .76 31.274-.926 62.81.5 94" style="fill:#fff;fill-rule:evenodd;stroke:none"/></svg>