<svg xmlns="http://www.w3.org/2000/svg" width="3000" height="3000"><path d="M449 2666.5v1.5h2102v-1.5c-63.81-378.768-126.215-757.87-189.705-1136.696-47.349-283.998-94.654-568.016-142-852-4.398-26.67-8.911-53.338-13.325-80.003-1.118-6.656-2.232-13.342-3.35-19.985-.571-3.586-1.119-7.183-2.096-10.662-1.288-2.958-6.82-3.128-9.193-4.54-101.51-33.828-203.017-67.663-304.512-101.514a746151 746151 0 0 1-266.522-88.84c-39.072-12.89-78.06-26.135-117.144-38.98-4.713-1.335-9.273 1.032-13.839 2.453-144.507 48.104-288.95 96.378-433.449 144.467-54.18 18.08-108.385 36.116-162.566 54.195-23.808 7.923-47.625 15.882-71.434 23.805-5.676 1.96-11.407 3.738-17.06 5.726-6.564 1.113-6.72 8.744-7.34 13.268C740.08 921.349 682.77 1265.54 625.383 1609.692 566.339 1961.663 508.308 2314.864 449 2666.5M1027 1233h144c-9.904 32.33-16.037 67.72-6.914 101.263 8.245 31.296 35.679 55.159 66.914 61.737-2.925 72.417-1.5 146.573 22 216 8.476-.5 18.57.656 26.287-.466 4.002-.712 5.59-5.063 8.845-7.08 23.186-18.885 42.433-42.608 66.188-60.699 2.848-1.276 5.441 3.779 7.089 5.25 17.341 21.274 34.58 42.637 51.916 63.9 8.029 10.053 16.299 19.919 24.39 29.92 4.123 4.516 13.235 2.964 19.807 2.942 5.32-.947 10.275-6.993 15.097-10.763 18.868-16.033 37.091-32.833 55.873-48.963 4.032-3.08 9.606-10.283 14.36-6.503 18.014 12.957 35.44 26.783 53.496 39.687 8.4 6.337 16.834 12.592 25.225 18.934 4.071 3.197 8.32 6.148 12.404 9.313 3.58 2.562 7.308 6.701 12.756 5.88 4.813-1.15 12.504-.21 15.902-2.882 12.822-14.283 23.332-30.667 35.6-45.438a6642 6642 0 0 1 16.716-21.71c3.953-5.39 10.057-17.928 18.81-9.77 13.584 10.126 27.383 19.943 41.115 29.845 6.425 4.689 12.888 9.321 19.263 14.072 3.026 2.014 6.452 5.469 10.536 5.1 4.059-.225 7.992-1.328 11.98-1.998 3.337-.752 7.945-.654 9.858-3.89 13.32-26.156 23.114-54.542 37.19-80.21 26.717 4.214 52.544 13.658 79.005 19.22 4.788.842 11.558 4.377 15.744.29 3.687-4.036 8.826-7.879 12.323-11.418 3.466-3.93.964-10.562.62-15.218-12.745-84.358-29.83-168.602-58.796-249.068-27.283-76.118-63.586-150.261-116.082-212.438-40.112-47.15-87.87-89.343-142.517-118.839.496-4.095 6.147-6.586 9.191-9.829 26.817-22.753 52.6-49.865 63.359-84.31 8.824-27.06 8.433-56.983-.17-84.01-6.614-19.197-19.387-36.061-36.433-47.228-25.155-18.1-64.741-20.606-90.37-9.363-13.899 6.442-24.686 17.366-34.713 28.53-9.969 11.204-19.785 26.158-35.187 27.135-19.864 2.146-31.231-10.13-44.51-20.43-11.188-8.065-22.723-16.516-36.517-19.338-25.373-6.527-52.353-1.967-74.863 10.99-16.497 8.92-27.922 25.168-33.721 42.658-5.31 13.568-5.876 28.937-13.157 41.803-11.68 20.013-32.27 23.438-53.11 26.91-21.382 2.453-43.277 6.082-62.288 16.875-14.709 8.355-28.253 20.185-35.664 35.7-12.686 24.443-12.106 54.19-2.767 79.518 4.506 11.976 11.096 23.152 18.869 33.295 4.08 5.205 8.365 10.33 13.357 14.69 3.803 4.122 11.876 8.487 12.694 13.404-47.835 7.573-94.616 27.323-131.1 59.617-36.22 31.327-60.689 78.882-59.9 127.383m35-33h193c5.886-20.627 8.983-41.975 8-63.474.976-21.52-2.132-42.875-8-63.526-42.658-1.093-85.687 10.56-121.994 32.996-17.422 10.872-33.74 24.189-46.509 40.369-11.979 14.824-22.74 36.063-24.497 53.635m277.781 882c-10.03 14.92-17.678 31.657-27.854 46.585-17.819 27.736-34.08 56.464-52.27 83.956-4.296 5.785-7.736 12.116-11.82 18.027-4.198 5.247-8.138 12.877-13.902 15.817-7.27 4.048-13.804-1.263-16.665-7.822-6.345-12.908-8.008-27.521-8.261-41.725-1.637-53.205 12.944-105.467 33.841-153.979 13.75-34.36 32.36-66.491 51.69-97.934 6.585-11.483 14.968-24.706 19.918-35.819 10.46-24.438 8.098-53.333-3.386-76.94-15.73-33.265-41.061-60.79-70.315-82.26-14.933-10.496-31.264-18.865-48.236-25.501-9.135-3.523-18.576-6.1-28.089-8.305-4.542-.936-9.063-2.166-13.67-2.688-5.099-.919-7.176 4.084-9.762 7.088 15.76 19.59 27.8 42.35 36.887 65.696 8.476 25.226 9.76 52.09 7.305 78.464-2.81 47.807-16.636 93.905-28.127 140.05-10.616 41.051-17.769 82.87-24.607 124.67-5.964 37.445-6.809 75.192-5.241 112.9 1.981 62.402 13.854 126.337 47.819 179.79 21.038 33.144 63.699 77.088 112.032 54.286 16.996-8.692 24.092-23.954 26.524-40.75 2.784-15.236.643-33.714-2.788-47.356-3.034-13.02-9.598-24.937-12.495-37.993-6.06-23.355-2.844-51.938.24-73.399 3.34-17.742 5.316-35.819 10.676-53.136 7.06-25.78 17.097-50.605 26.168-75.702 4.638-12.699 9.67-25.259 13.809-38.136 1.74-6.141 5.438-12.994 6.099-18.866.732-2.912-5.482-3.82-6.864-5.199-2.937-1.165-5.795-2.505-8.656-3.819M1272 1575c4.777.094 8.24-5.134 11.466-7.928 12.175-11.252 23.946-22.957 36.136-34.174 5.418-6.043 12.718-12.084 18.13-17.13 5.73-5.432 11.885-12.516 17.768-16.768 28.189 32.991 56.732 65.733 84.996 98.648 3.511 3.704 7.618 9.528 11.157 11.935 3.695 3.51 8.738-4.223 11.378-5.605 26.218-21.726 50.7-46.076 77.469-66.978 31.743 25.84 64.697 50.258 96.712 75.76 2.017 1.637 4.097 3.197 6.159 4.774 1.867 1.131 3.922 2.993 5.952 2.977 22.868-27.388 43.227-56.993 65.48-84.918 2.734-3.347 5.417-9.29 10.296-5.225 13.516 10.023 27.39 19.515 40.883 29.565 6.96 4.816 13.805 9.795 20.585 14.843 6.856 3.675 14.773 12.57 21.433 13.224 11.554-28.387 24.282-56.458 36.15-84.746 1.597-4.867 6.306-3.843 9.833-2.5 27.395 6.452 54.569 14.112 82.017 20.246-2.328-37.889-10.928-75.26-18.19-112.4-13.588-62.16-33.394-123.018-60.083-180.798-39.42-84.724-93.666-165.211-169.51-221.64-37.794-27.909-80.876-49.046-126.953-59.017-24.997-5.142-50.477-7.017-75.953-6.027-24.781 1.554-50.215 4.15-73.311 13.882v3c35.74.314 69.206 19.697 90.804 47.403 32.83 41.824 34.723 107.775-1.146 148.483-16.347 19.81-38.252 34.436-60.997 45.794-23.845 11.224-48.643 20.588-74.661 25.32 8.379 56.926-.415 143.716-73.191 166.185-8.25 3.002-16.91 3.924-25.477 5.265-4.248.712-4.564 5.77-4.546 9.584-2.975 56.444-1.548 113.285 9.214 168.966m16-367c31.455-2.722 63.343-4.359 93.736-13.931 41.797-11.855 85.856-32.953 106.188-74.024 9.57-22.03 10.734-47.262 3.377-70.162-7.141-21.01-23.495-38.07-43.752-47.08-53.233-24.488-118.462-3.96-157.92 36.067-4.12 4.823-11.993 9.91-11.056 16.01 12.45 23.045 19.447 48.964 18.427 75.404.088 13.684.434 27.423-1.673 40.992-.61 6.413-1.619 12.756-3.387 18.948-1.255 5.935-3.985 11.623-3.94 17.776m60.27-117.077c.21 9.59 3.879 18.869 10.88 25.282 7.253 6.571 17.215 9.598 26.897 8.625 18.92-1.182 32.306-19.781 29.844-37.928-.714-18.935-19.912-32.328-37.883-29.755-18.894 2.345-28.951 17.025-29.738 33.776M1430 2157c-6.779 35.472-8.828 72.212-.966 107.759 5.317 25.343 14.268 49.866 27.817 72 19.976 32.788 51.601 57.021 85.98 73.103 36.24 16.269 75.893 22.557 115.218 25.159 38.257 2.368 76.639.094 114.8-2.282 31.855-2.726 64.223-6.58 93.656-20.027 11.146-5.437 24.272-13.192 31.056-22.609 8.192-10.302 11.26-23.547 11.393-36.471-.392-27.111-21.27-41.737-43.043-52.232-19.799-8.566-41.723-11.4-63.096-10.11-36.442 7.572-72.965 17.16-110.537 17.171-29.64 1.312-59.324.676-88.878-1.829-39.45-3.271-81.408-13.749-108.875-44.607-13.38-14.012-24.865-30.005-33.642-47.268-8.99-17.999-13.064-38.023-19.513-56.939-2.044-3.31-8.628-.715-11.37-.818m127-148.5c3.598 2.755 7.089 11.248 11.901 8.068 5.059-2.31 9.745-5.296 14.598-7.963 34.78-18.995 71.03-35.62 108.677-48.164 28.864-10.343 59.234-15.534 89.662-18.46 22.689-2.948 47.199-3.129 67.922-14.152 34.656-17.73 22.761-66.4.235-84.253-25.171-20.944-57.01-33.27-89.272-37.683-68.58-10.34-139.222-.574-203.279 25.527-39.722 16.377-77.366 39.182-106.383 71.198-2.557 2.492-.9 7.05.693 9.405 1.801 3.523 5.758 2.427 8.803 1.6 56.294-13.232 114.928-23.433 172.95-16.31 6.46 1.294 16.445 2.019 18.079 8.755.85 11.538-11.744 21.53-17.84 29.655-24.286 25.68-51.161 48.506-76.746 72.777m-105-740.28c10.093 27.027 16.517 55.772 23.5 83.78 10.054-3.665 21.408-3.816 31.5-7.5-6.853-28.795-14.273-57.812-25-85.5-10.121 2.556-19.877 6.446-30 9zm131-146.845c16.203 24.24 32.965 48.962 45 75.625 9.354-3.764 20.219-9.546 28-14.5-6.108-13.79-14.322-26.65-21.384-39.975-6.161-11.567-16.813-25.096-23.616-37.525-10.26 3.216-18.075 12.207-28 16zm11 203.917c10.57 26.197 23.227 52.044 30 79.708 10.74-1.345 20.389-7.235 31-9-9.6-28.408-18.69-57.749-33.5-84-9.55 3.359-18.349 8.828-27.5 13zm146-3.292c8.65-3.251 20.27-7.42 29-12.5-11.747-27.236-24.291-54.424-40.25-79.5-9.328 3.18-17.228 10.244-26.75 13 11.207 26.68 28.377 51.459 38 79" style="fill:#dcf;fill-rule:evenodd;stroke:none"/><path d="M1026 1234h144c-11.849 30.816-14.566 71.284-7.051 100.71 8.052 31.547 35.647 55.67 67.051 62.29-3.064 72.41-1.358 146.573 22 216h18.6c4.497-.063 10.179.948 14.121-3.26 23.868-21.612 46.406-44.702 70.779-65.74 26.697 32.455 52.951 65.307 79.575 97.821 4.75 7.109 16.533 5.078 23.883 4.867 7.08-1.694 12.08-9.763 17.507-13.042a2753 2753 0 0 0 32.164-28.36c9.714-7.977 18.547-16.997 28.569-24.606 2.42-2.314 4.89-.218 6.779 1.305 16.534 12.1 32.647 24.777 49.29 36.708 12.306 9.176 24.55 18.395 36.809 27.619 4.387 2.97 9.914 8.592 14.6 8.33 5.472-.619 12.002-1.02 16.936-2.086 4.228-1.727 6.07-6 8.963-9.311 19.018-23.75 36.659-48.602 55.8-72.245 8.039 3.565 14.313 10.388 21.822 14.87 12.237 8.824 24.426 17.739 36.673 26.531 4.675 3.31 9.143 6.942 13.996 9.992 3.802 2.429 9.972.868 14.865-.08 3.816-1.573 9.81-.474 12.984-3.499 13.716-26.617 24.013-55.243 37.785-81.814 15.42 4.397 31.276 7.505 46.67 12.032 11.626 2.959 23.281 5.79 34.894 8.754 3.682.86 9.05 3.113 12.49-.032 2.91-2.485 5.385-5.494 8.479-7.776 2.165-1.914 5.104-4.009 6.499-7.195.763-6.133-1.112-12.21-1.696-18.262-2.404-18-5.977-35.783-8.688-53.723-11.863-63.955-26.748-127.611-48.674-188.926-23.384-68.258-55.564-133.822-98.55-191.903-43.145-57.893-98.102-106.872-160.924-142.469 36.23-27.99 71.057-65.208 77.409-112.748 3.405-24.657 1.623-50.97-8.686-73.943-9.402-20.48-29.673-39.549-49.054-46.884-17.142-7.124-36.065-9.032-54.397-6.58-13.58 1.27-26.313 6.913-36.89 15.386-15.639 11.176-27.381 31.47-41.575 41.795-8.667 5.583-21.431 5.704-29.914 1.791-9.149-3.714-16.228-10.787-23.982-16.616-13.117-9.975-27.139-19.578-43.927-21.719-29.3-5.051-62.295 1.039-84.585 22.124-17.23 15.367-22.793 38.526-27.678 59.938-3.848 16.052-15.205 30.077-31.245 35.157-23.997 8.277-50.502 6.572-74.27 15.948-22.04 8.479-43.097 23.467-52.729 45.835-11.339 24.36-10.498 53.288-1.557 78.173 8.237 24.193 25.651 43.605 45.08 59.343-47.896 9.178-95.974 27.303-132.237 61.233-35.973 31.727-60.335 79.537-58.763 128.267m37-36.5v1.5h191c5.671-20.247 8.932-41.186 8-62.276.936-21.258-2.28-42.325-8-62.724-41.813-.923-83.902 11.039-119.546 32.73-33.344 20.12-63.031 51.788-71.454 90.77m295 890.5c-6.107-1.956-12.649-4.892-19.5-8-16.769 30.887-35.516 60.773-54.16 90.546-7.848 13.121-15.828 26.189-24.307 38.906-8.422 11.357-14.38 24.963-24.972 34.637-6.547 5.219-13.628 1.023-16.267-5.54-6.622-12.553-8.339-26.948-8.762-40.91-1.756-52.206 12.498-103.439 32.697-151.137 13.757-34.09 31.59-66.43 51.002-97.596 6.88-11.707 14.314-23.169 20.248-35.403 11.385-22.814 10.085-54.535 1.053-75.793-14.739-33.544-38.677-62.36-67.464-84.467-29.014-23.252-65.121-35.697-101.068-42.243-2.793 2.932-4.59 6.67-7.5 9.5 16.022 18.372 29.029 44.509 37.33 65.05 8.556 24.727 10.514 51.08 7.931 77.056-2.677 47.444-16.15 93.194-27.651 138.959-10.496 40.403-17.695 81.53-24.501 122.672-2.966 18.488-5.017 37.108-5.965 55.795-1.401 67.637.16 137.55 26.102 201.376 10.236 21.363 20.495 43.116 35.976 61.343 13.02 15.934 29.557 29.605 48.852 37.175 17.61 6.48 41.633 3.789 56.053-5.522 13.993-9.164 20.275-25.706 22.094-41.613 1.961-14.714-.22-32.417-3.417-45.541-2.888-12.244-8.844-23.516-11.9-35.698-6.46-22.02-3.61-49.115-1.021-69.52 4.936-33.253 11.564-66.32 24.44-97.565 11.362-32.22 24.435-63.867 34.677-96.467m-85-514h1.5c13.175-13.275 27.432-25.332 40.602-38.602 6.269-6.948 13.364-13.014 20.268-19.268 6.543-6.563 12.958-13.271 20.13-19.13 16.44 18.831 32.606 37.957 49.002 56.821 8.318 9.443 16.433 19.059 24.646 28.594 8.821 8.127 16.259 21.346 25.352 27.585 27.845-25.527 57.07-49.567 85-75 36.395 28.164 72.908 56.436 109 85 24.036-31.222 47.906-62.631 71.75-94 7.82 3.323 14.914 11.141 21.795 14.776 20.754 15.945 42.846 30.103 63.455 46.224h1.5c12.437-30.1 25.604-60.065 38.5-90 29.098 8.868 59.871 14.133 89 23 .919-10.678-2.907-23.606-3.4-33.401-11.866-81.393-33.043-161.515-65.303-237.219-30.895-73.424-73.285-142.782-129.53-199.613-39.67-41.281-88.886-73.636-142.93-92.504-29.224-9.186-59.704-15.481-90.5-15.263-15.984-.194-31.972.714-47.796 3.04-14.307 2.319-29.024 4.727-42.041 11.46 35.604 1.71 69.266 19.426 90.804 47.903 16.774 21.054 25.226 47.922 25.189 74.66.845 20.717-3.953 41.469-14.387 59.43-15.483 24.647-38.658 43.883-64.05 57.704-26.297 13.774-54.478 23.937-83.556 29.803 8.466 56.4-.319 141.697-71.099 165.52-8.087 2.601-16.401 4.52-24.836 5.408-9.502.428-6.907 12.19-7.593 18.853-2.579 52.912-.5 106.057 9.528 158.219m16-367c33.45-3.002 67.597-5.17 99.67-16.386 22.746-7.123 45.157-16.339 64.103-31.157 13.804-10.103 27.283-25.78 33.973-40.012 11.082-25.533 11.507-56.489-2.185-81.291-11.876-23.965-42.011-39.126-64.99-42.903-51.712-9.268-105.263 16.51-138.598 54.92-3.223 4.754 2.937 11.238 4.992 16.776 10.091 22.094 12.466 46.655 12.035 70.643.227 12.15.071 24.313-1.888 36.342-.35 11.44-5.352 21.965-7.112 33.068m58.172-115.983c.166 22.187 17.303 36.533 37.322 34.949 19.724.278 34.74-18.611 32.484-37.524.745-19.766-18.64-34.75-37.461-32.417-8.616.038-18.145 5.037-23.427 10.722-6.086 6.53-9.005 15.272-8.918 24.27M1429 2156c-6.73 35.968-8.89 73.218-1.066 109.266 5.379 25.664 14.366 50.592 28.197 72.96 20.105 32.917 52.183 56.94 86.655 73.056 36.452 16.466 76.497 22.084 115.983 24.854 38.354 2.259 76.805-.058 115.054-2.391 31.683-2.744 63.911-6.516 93.231-19.835 11.157-5.384 24.292-13.074 31.186-22.376 16.305-20.303 15.715-53.221-2.37-71.926-15.526-15.637-37.181-24.159-58.568-27.72-9.673-1.75-21.241-2.562-30.222-1.995-18.562 1.61-36.136 9.221-54.756 10.874-33.606 7.031-68.067 7.588-102.244 7.224-47.234-1.613-99.405-3.133-139.086-32.769-18.1-14.124-32.107-32.77-44.014-52.138-12.107-20.186-17.509-43.501-24.382-65.742-1.974-4.38-10.463-1.135-13.598-1.342m18-251.667c1.115 4.185 4.075 9.397 5.5 12.667 56.448-14.764 115.66-24.917 174.266-19.521 7.067 1.23 14.902 1.2 21.103 5.392 5.98 3.98.322 13.417-2.676 17.15-26.25 33.266-60.083 59.138-90.193 88.479 3.57 3.72 6.794 7.769 10.344 11.5 41.72-22.725 84.07-45.188 129.787-59.2 35.044-12.728 72.283-16.06 109.023-20.078 25.376-2.632 58.711-8.345 66.493-35.353 5.285-19.294-.78-44.816-14.382-57.604-20.797-21.399-49.773-32.62-77.987-39.92-31.413-6.884-63.808-7.445-95.785-6.664-58.74 4.68-117.15 20.162-168.457 49.783-25.684 13.276-46.505 33.419-67.036 53.036zM1474 1353c11.435-1.787 22.559-5.219 34-7-5.8-30.349-14.694-60.1-25.5-89-10.066 4.14-21.19 6.434-31.5 10 7.734 28.524 18.307 56.667 23 86m108-231.5c16.655 25.002 32.576 50.869 46.5 77.5 9.788-4.755 19.563-10.52 29.5-15-13.017-28.345-29.552-55.91-48-81-9.43 5.178-18.469 12.245-28 17v1.75zm10 202.917c10.91 27.138 24.655 53.753 31 82.583 11.212-2.447 21.81-7.558 33-10-6.845-30.273-21.029-58.623-33-87-10.956 3.012-20.28 10.465-31 14zm108-81.127c14.441 26.19 27.293 53.89 40.5 80.71 9.667-5.258 20.83-8.065 30.5-13.5-6.083-14.16-12.466-28.257-19.295-42.08-6.664-13.714-14.793-26.923-21.705-40.42-10.384 3.885-19.77 10.733-30 15z" style="fill:#666767;fill-rule:evenodd;stroke:none"/></svg>