<svg xmlns="http://www.w3.org/2000/svg" width="3000" height="3000"><path d="M284 2851h2432c-123.103-747.216-249.258-1494.07-373.03-2241.199-7.78-46.656-15.577-93.339-23.33-139.995-1.876-10.997-3.613-22.014-5.514-32.997-1.207-5.418-1.543-12.111-3.422-16.847-3.39-3.611-10.792-4.008-15.876-6.519-84.854-28.257-169.674-56.588-254.529-84.838-148.353-49.438-296.657-98.909-445.002-148.345-27.84-9.249-55.644-18.574-83.47-27.817-5.808-2.58-12.738-4.757-19.88-1.27-102.713 34.264-205.426 68.47-308.128 102.727-153.833 51.272-307.69 102.568-461.522 153.84-9.636 3.285-19.335 6.336-28.936 9.706-5.486 1.497-5.667 7.456-6.212 11.747-23.55 141.004-46.965 282.009-70.51 423.001C506.291 1518.507 393.672 2184.64 284 2851" style="fill:#dcf;fill-rule:evenodd;stroke:none"/></svg>