<svg xmlns="http://www.w3.org/2000/svg" width="3000" height="3000"><path d="M364 2760.5v1.5h2272v-1.5c-68.931-409.09-136.257-818.54-204.874-1227.691-51.076-306.848-102.33-613.661-153.4-920.497-4.868-28.824-9.564-57.688-14.431-86.508-1.116-7.008-2.365-13.985-3.488-20.978-1.2-6.774-.246-15.245-9.425-16.859-109.868-36.632-219.702-73.24-329.563-109.867-95.996-32.013-192.02-63.992-288-96-41.993-13.978-83.98-28.011-125.966-41.994-5.663-2.605-10.407-1.693-15.513.621-156.173 52.06-312.354 104.114-468.521 156.173-58.68 19.531-117.334 39.097-175.992 58.657-25.668 8.506-51.298 17.139-76.962 25.643-6.176 2.075-12.369 4.11-18.537 6.195-3.02 1.124-6.483 1.813-8.8 4.255-62.934 375.423-125.132 751.075-187.889 1126.544C490.857 1998.664 428.048 2380.37 364 2760.5m649-1151.25c.968 2.593 3.516 5.46 4 7.75 54.32-16.62 105.14-43.426 155.651-68.932 36.115-19.604 71.203-40.94 105.68-63.248 51.547-34.511 101.575-71.49 147.408-113.401 22.951-22.01 46.43-43.59 67.165-67.774 10.582-11.48 20.057-23.943 29.74-36.165 4.586-6.326 9.523-12.375 13.952-18.795 2.24-3.208 4.585-6.314 6.687-9.605 1.777-2.527 3.925-6.82 7.717-7.08 12.77 38.95 31.042 76.282 52.927 110.914 33.412 51.606 76.741 96.16 123.895 135.161 46.398 38.465 98.75 68.948 150.678 98.925 7.772-34.218 21.078-68.34 43.02-96.152 10.322-13.522 24.872-27.37 37.97-35.82 6.98-4.178 15.382-8.919 22.361-11.63 3.69-1.676 9.424-2.165 11.519-5.25.708-4.322.773-8.818 1.63-13.148-80.54-14.92-160.231-35.513-236.91-64.457-18.575-7.174-36.747-15.232-54.67-23.838-25.824-14.202-52.193-27.72-75.94-45.351-11.942-9.028-23.955-18.114-34.455-28.83-5.334-5.414-10.8-10.7-16.093-16.148-3.814-5.42-11.801-11.784-12.932-17.376 10.328-.523 22.427-2.73 31.526-5.348 8.206-2.52 20.428-6.847 22.474-18.652-36.271-7.377-71.686-18.902-107.766-27.194-35.446-9.54-71.168-18.063-106.544-27.806-3.659 4.463-3.567 13.037-6.724 19.016-16.466 47.226-41.169 91.174-68.798 132.708-41.989 62.257-90.23 120.26-143.431 173.203-51.662 53.927-109.57 102.684-171.737 144.073zm10 434.063c1.744 3.015 4.479 6.21 6.5 8.687 34.108-13.159 69.114-25.432 101.68-42.422 47.813-23.981 93.57-52.293 135.428-85.661 21.292-17.173 42.064-35.016 61.367-54.392 9.767-9.575 19.034-19.656 28.314-29.65 6.667-.737 14.454 1.233 21.253-1.066 6.517-1.497 13.156-6.23 16.458-11.309-27.13-13.911-53.526-29.377-80.606-43.407-25.932-15.022-52.955-28.13-78.894-43.093-23.36 57.15-52.554 112.17-87.987 162.81-35.247 51.027-75.203 99.983-123.513 139.19zM1419 1701v197.4c-.003 8.392.004 16.81-.002 25.194-.063 5.844-.856 14.056-7.654 17.16-9.433 3.967-23.762 1.412-35.537 1.832-35.88-2.669-71.992-2.203-107.807-5.586.218 3.179-.508 7.563 1.759 9.56 3.422.458 6.722 1.808 10.19 2.126 16.582 3.765 33.748 7.501 48.447 16.466 20.383 12.204 39.86 34.113 47.346 54.701 8.91 25.768 7.742 53.657 11.758 80.147 41.282-4.533 84.66-8.604 122.208-28.533 25.88-14.095 49.069-36.612 56.383-66.21 14.838-48.426 10.206-99.83 10.909-149.65V1701h322.2c12.209-.05 27.402.57 34.8-14.5-43.37-37.655-89.72-71.911-135.5-106.5-13.828 15.392-25.403 32.736-38.842 48.46-9.795 11.96-18.952 24.393-28.725 36.358-3.265 4.382-6.674 10.718-13.545 10.166-46.788.045-93.609-.008-140.388.016v-140h128.4c11.66.225 25.271.437 32.6-13.5-41.104-38.273-86.704-71.494-130.5-106.5-12.472 15.518-24.044 31.775-36.474 47.327-10.623 15.473-26.224 31.967-35.026 46.673h-281c1.68 8.518 6.077 18.067 7 26h157v140h-339c1.352 8.017 4.438 15.76 6.354 23.638 1.683 3.81 9.115 1.573 12.034 2.362zm203 68.625c14.745 18.093 32.795 34.05 46.578 53.133 25.114 31.083 48.029 63.955 67.79 98.685 15.415 26.224 28.79 53.646 39.348 82.2 2.107 5.739 3.646 11.714 6.016 17.34 2.318 4.625 7.502 6.777 11.718 9.218 18.392 10.26 40.068 16.893 61.182 11.648 30.205-6.357 52.681-33.169 57.423-63.13 6.319-31.588-4.56-63.87-22.403-89.745-26.59-40.644-69.7-66.843-112.764-86.645-45.867-19.794-95.266-30.21-144.575-36.877-4.426-.897-6.984 1.531-10.313 3.548z" style="fill:#fda;fill-rule:evenodd;stroke:none"/><path d="M1011 1609.5c2.492 2.908 3.963 6.602 6.5 9.5 26.412-9.438 52.441-19.924 78.066-31.318 44.56-20.667 88.318-43.246 130.416-68.569 61.9-36.73 120.894-78.518 175.878-124.997 56.204-46.728 106.086-101.056 147.64-161.116 14.021 38.693 31.045 76.77 53.69 111.343 33.855 51.649 77.182 96.698 124.81 135.655 46.586 38.694 99.236 69.014 151.5 99.002 7.308-34.89 21.186-69.339 43.343-97.55 10.886-13.849 23.68-26.328 38.436-35.944 7.264-4.024 15.718-9.203 23.026-11.563 3.438-1.477 10.057-2.45 10.346-6.386.733-4.469.645-9.076 1.349-13.557-80.27-14.747-159.512-35.496-235.999-64.06-72.86-28.803-144.513-67.884-195.001-129.44 19.916-3.3 46.299-4.263 55-24.562-1.852-2.27-6.034-2.402-9.146-3.47-43.726-10.884-87.179-22.858-130.89-33.743-21.547-6.02-43.288-11.21-64.907-16.947-4.042-.799-12.648-4.601-14.056.454-4.902 15.735-10.162 31.396-16.922 46.453-18.727 43.017-43.723 82.895-70.231 121.47-20.92 28.823-42.148 57.482-65.725 84.216-69.815 80.691-148.027 155.332-237.123 214.629zm10 433.969c3.101 2.445 5.082 9.011 8.992 9.032 4.51-1.569 9.119-2.98 13.624-4.58 66.088-23.005 128.735-55.764 186.54-95.073 28.422-20.366 56.33-41.783 81.635-65.984 13.79-11.348 25.127-25.262 37.684-37.84 3.382-1.972 6.41-8.71 9.83-8.263 12.126 1.173 28.055.4 36.695-13.261-26.978-15.076-54.36-29.743-81.606-44.407-26.664-15.231-54.188-28.97-80.894-44.093-22.584 58.185-53.187 113.294-88.559 164.62-34.916 51.781-76.33 99.495-123.941 139.849m57-368.969c1.253 4.837 3.134 9.515 4.252 14.425 1.157 3.696 2.127 7.458 3.291 11.13 1.238 2.525 6.148 1.503 8.25 1.945H1418v196.8c-.015 8.21.019 16.44-.01 24.64-.034 5.389-1.102 13.127-7.646 16.313-9.417 4.04-23.738 1.371-35.507 1.74-35.923-2.237-71.962-2.593-107.837-5.493.488 3.548-1.038 9.832 2.17 11.597 3.953.838 8 1.876 12.01 2.528 16.308 3.726 33.051 7.585 47.365 16.68 19.943 13.307 37.926 31.707 46.376 54.58 7.896 25.774 8.582 53.005 11.079 79.615 30.345-3.48 61.27-5.325 90.604-14.755 21.074-6.31 41.095-16.087 58.242-29.923 12.378-10.6 22.178-24.001 28.465-38.98 19.446-51.85 13.915-108.438 14.689-162.532V1702h321c9.27-.128 19.585.547 27.806-4.751 2.96-2.23 6.235-5.601 7.186-8.966 1.882-3.533-3.778-6.532-5.693-8.576-41.578-35.993-86.231-68.25-129.799-101.707h-1.5c-11.264 16.775-25.692 32.233-37.726 48.63-9.648 12.06-19.04 24.314-28.683 36.377-3.579 3.966-6.306 10.833-13.014 10.93-46.519.178-93.065-.032-139.577.063v-138h128.4c10.47.2 26.627.345 31.633-13.009 1.635-3.936-5.156-7.62-7.018-10.161-23.474-20.109-47.068-40.133-71.623-58.913-16.865-14.17-35.275-26.467-51.892-40.917-12.984 15.235-24.067 32.038-36.812 47.474-10.834 15.758-26.677 32.577-35.688 47.526h-281c.532 9.396 6.53 19.393 7 28h157v138h-340zm541 94.875c40.655 42.777 78.712 88.588 108.647 139.752 10.902 18.695 21.708 37.438 30.928 57.013 8.803 18.051 15.564 36.936 22.157 55.844 3.896 6.983 14.337 9.715 20.597 13.687 15.5 7.565 33.206 10.563 50.264 8.046 13.873-2.806 27.572-8.743 37.882-18.702 18.535-18.31 26.64-44.458 25.396-70.099-1.465-37.058-26.06-76.05-50.603-98.148-26.276-25.441-59.147-43.225-92.219-58.117-45.875-19.756-95.907-27.44-144.549-35.651-2.519 2.583-5.609 4.392-8.5 6.375" style="fill:#000;fill-rule:evenodd;stroke:none"/></svg>