<svg xmlns="http://www.w3.org/2000/svg" width="3000" height="3000"><path d="M1100 2212c-1.31 38.932-8.311 78.662-25.925 113.758-12.173 21.426-35.967 47.1-22.63 76.78 9.298 23.185 36.973 27.456 57.19 17.611 14.13-7.327 22.985-21.724 28.346-36.207 7.54-24.389 7.061-55.12 4.35-78.143-3.25-24.336-10.603-47.801-18.537-70.93-1.481-4.598-3.25-9.119-4.936-13.64-1.427-4.628-3.095-9.98-9.76-9.217-2.684-.026-5.419-.002-8.098-.012m4-20c25.917-.243 53.8 2.092 77.904-9.962 8.177-3.995 16.382-8.27 23.185-14.434 6.062-5.29 3.064-17.302 3.911-24.436.356-3.056-.702-8.707 2.475-9.75 59.107-1.19 118.39.215 177.525-.418.096 13.93-2.086 27.738-3.128 41.592-.715 6.83-1.338 13.663-2.125 20.483-1.84 6.02-.544 15.398-3.247 19.925-12.2-18.802-31.583-31.493-52.104-39.616-11.237-4.094-22.724-7.49-34.468-9.695-5.866-1.095-11.679-2.68-17.656-3.014-5.016-.066-11.243 6.599-11.272 10.325 21.417 14.584 39.057 41.39 51.116 61.433 3.303 5.838 6.017 11.976 8.344 18.252 2.386 4.903 3.195 11.325 5.125 15.882 3.25 5.633 13.082 8.112 20.099 9.299 7.875 1.339 15.256-.833 22.316-3.866-3.833 17.877-8.131 35.706-13.558 53.162-4.125 12.328-8.507 24.728-15.373 35.84-9.901 21.168-34.922 21.986-53.26 20.642-21.623-.965-43.224-2.304-64.809-3.644v14c20.542 4.913 41.354 14.119 54.46 31.383 11.837 15.635 13.677 36.164 14.518 55.029.194 4.445-.288 9.736.456 13.774.696 4.367 8.933 1.481 11.61 2.021 32.242-.615 65.693-7.288 92.763-25.692 40.404-25.181 57.816-72.55 69.332-116.094 11.984-46.748 18.319-94.721 23.165-142.648 1.75-20.237 3.843-40.48 4.696-60.773 9.738-.762 21.235-3.98 29.056-8.336 3.54-2.405 11.6-6.254 8.733-10.748-2.48-3.486-7.511-6.544-11.143-10.018-9.556-8.132-19.288-16.062-29-24-13.553-11.504-27.33-22.726-41.037-34.023-3.505-2.846-6.914-5.804-10.383-8.673-5.814-5.734-10.925 1.99-15.104 6.155-5.031 4.363-10.14 8.649-14.597 13.618-6.966 7.07-13.929 14.131-21.474 20.555-3.536 3-7.634 8.77-11.748 9.21-5.417.58-10.875.026-16.303.26v-102c41.568.76 83.55-.926 125 .5-7.532 6.466-18.77 11.196-25.133 17.789-1.555 4.062 4.86 10.689 8.253 10.244 5.225-.55 10.029-3.132 15.067-4.435 5.8-1.766 11.442-3.914 17.102-6.062 12.22-4.529 24.418-9.062 36.424-14.119 33.346-14.582 66.63-29.57 97.714-48.643 30.602-17.793 60.042-37.667 88.073-59.274 14.95 17.726 30.781 34.819 44.127 53.876 4.974 6.9 10.123 13.715 14.41 21.06 14.243 28.534 53.544 34.943 81.037 21.41 13.424-6.82 23.85-18.74 28.757-33.003 5.344-15.037 5.095-34.354 2.032-48.495-10.3-40.674-40.406-72.31-73.15-96.493-.799-.793-1.95-1.32-2.713-1.855 18.418-19.218 36.271-39 52.488-60.15 4.285-5.173 8.177-10.658 12.244-15.982 3.023-3.877 5.577-8.163 8.95-11.742 2.485-2.825 8.847-.88 11.933-1.68 9.977-.059 25.367-5.546 25.385-15.946-47.034-22-92.531-47.642-139.365-70.177-2.805-1.403-6.212-3.392-9.191-3.356-2.747.593-3.547 5.286-4.726 7.24-17.273 40.441-38.157 79.516-62.218 116.293-47.58-18.82-97.303-31.949-147.339-42.473-13.1-2.638-26.165-5.312-39.324-7.578-3.894-.842-7.672-4.839-11.272-7.773-12.326-10.376-24.829-20.559-37.389-30.627-6.266-5.101-12.723-9.93-19.003-14.995-6.364-4.023-12.55-11.826-19.173-12.554-3.218 7.328-9.353 11.182-13.001 17.668-8.553 11.09-17.347 21.992-25.852 33.106-3.77 4.883-7.746 9.563-11.398 14.527-3.764 5.12-12.047 3.44-17.47 3.699h-147.272c-9.848-.202-21.806-6.986-32.791-10.313-30.229-10.621-59.795-23.823-90.216-33.687zm49 12c.933 14.886 5.728 29.38 6.836 44.29 3.26 24.947 6.083 50.064 6.136 75.255-.584 9.596-.387 19.292-1.552 28.834-.895 7.902-3.252 17.241 3.047 22.55 9.58 10.063 24.418 15.4 37.907 10.048 19.889-8.441 27.684-32.223 28.576-51.958 1.042-21.543-4.347-42.707-13.38-62.17-10.984-25.158-32.488-50.357-50.9-67.118-4.753-3.309-11.716-.107-16.67.269m344-1020h2c8.15 33.406-11.672 58.4-32.597 81.306-7.293 8.838-16.045 16.345-23.878 24.67-13.684 14.427-27.626 28.622-40.77 43.543-9.424 10.915-19.312 21.844-26.292 34.545-21.193 40.681-29.946 87.38-29.463 132.936h191c-.556 8.398.886 18.61-.99 26.163-2.507 7.97-9.964 9.936-17.201 11.168-15.206 2.593-30.766 1.3-46.093 1.669h-81.998c-20.1.104-40.303-.792-60.26 2.063-13.778 1.612-27.338 5.117-40.218 10.243-9.278 3.482-18.331 7.72-26.394 13.546-8.399 4.936-7.37 13.02-6.846 21.065V1663h26c2.739-29.98 36.408-38.022 58.278-39.123 42.49-1.605 85.026-.441 127.526-.877 21.365-.011 42.716.014 64.067-.007 19.12.681 38.424-7.1 49.629-22.993 9.068 14.95 27.12 22.098 43.996 22.777 19.43.613 38.892-.093 58.318.223 37.78.013 75.528-.016 113.298.009 17.565.519 35.745.226 52.591 6.065 15.704 4.574 28.41 17.716 31.297 33.926h25v-93c-19.487-13.811-42.672-23.163-66.418-26.984-19.936-3.845-40.297-3.146-60.46-3.016h-94.174c-15.065-.245-30.484 1.052-45.262-2.695-18.273-3.977-13.037-25.783-13.686-36.305h192c-.86-39.924-1.221-79.844-4.174-119.674-5.389-64.96-12.889-130.053-28.833-193.38-23.11-91.88-72.26-179.57-146.97-239.42-17.67-14.298-36.982-26.663-57.378-36.682-8.2-3.51-16.365-7.21-24.712-10.356-6.755-3.241-16.479-4.127-21.27-8.275-1.061-27.432-8.405-54.967-24.83-77.494-7.517-11.21-17.615-20.477-28.666-28.09-6.644-5.625-13.648-4.935-21.236-4.629H1439c2.618 15.186 2.1 33.507 1.528 47.547-.857 14.949-2.054 30.084-6.528 44.453h-4c-4.381-18.572-13.757-36.314-29.216-48.11-7.194-5.874-15.048-10.87-23.671-14.359-9.72-4.212-20.877-1.694-31.113-2.531 3.299 19.104 7.985 38.158 7 57.753.826 19.785-2.976 39.277-8 58.247-17.364 7.82-36.226 21.63-47.05 35.438-18.533 24.553-22.431 56.221-32.704 84.288-4.9 13.905-11 27.67-19.408 39.84-8.9 11.503-15.98 24.25-22.256 37.33-15.336 33.42-24.136 69.539-40.255 102.617-3.467 5.806 2.489 11.72 5.009 16.471 13.591 19.71 24.667 41.078 38.908 60.338 12.376 15.86 33.274 21.175 52.525 20.675 32.93 3.807 52.318-25.858 68.364-46.193 8.749-11.455 18.784-21.763 29.25-31.649 4.842-4.522 11.163-9.901 17.392-10.869 7.746-.768 15.492-1.523 23.226-2.407 16.327-2.25 33.21-4.352 47.936-12.362 13.143-7.437 27.505-21.7 31.063-35.517m-239 659v-102h-49v93.998c.16 2.169-.05 4.957.956 6.752 6.77 2.602 16.695.315 23.82 1.25zm0 133v-105h-49v95.848c-.199 2.36.183 4.694.483 7.005 1.663 3.452 8.48 1.415 11.222 2.147zm-49 129h49v-102h-24.6c-7.515.83-18.432-1.164-24.4 1zm3 83c.008 5.81 3.637 10.782 5.933 15.858 16.75 37.484 32.468 76.505 36.425 117.755-1.93 24.253 31.773 31.04 45.942 20.118 18.133-14.073 18.603-35.866 14.975-56.473-10.123-44.203-47.014-75.724-83.847-97.937-2.694-1.663-5.567-3.35-8.788-2.74-3.74.496-6.933 2.856-10.64 3.419m12-964.5c6.04 10.492 11.249 21.764 17.684 32.102 4.447 7.542 9.758 16.818 15.97 22.082 5.75 4.377 14.402 5.58 20.774 6.129 11.23 1.107 23.207-.327 32.277-7.692 8.35-6.318 13.446-15.846 19.692-23.997 9.573-12.448 20.237-24.022 31.205-35.226 4.142-4.364 8.632-8.367 13.34-12.09 3.559-2.788 9.779-2.918 14.94-3.94 18.592-3.632 37.04-8.07 55.292-13.098 16.127-4.708 32.447-17.2 35.826-34.77h46c4.09 13.987 7.686 28.184 11.793 42.18 3.75 12.543 1.072 25.835-2.182 38.208-3.036 10.428-7.11 20.948-14.537 29.115-25.186 28.52-51.75 55.797-75.889 85.26-11.547 14.282-22.925 28.825-31.96 44.858-9.07 17.302-13.745 36.817-13.225 56.379h349.2c3.184-.078 8.526.296 8.444-3.525 1.914-104.56-8.11-211.049-45.198-309.613-24.58-65.704-64.657-127.18-121.122-169.85-28.16-20.952-59.407-37.85-93.066-48.097-4.231-1.058-9.155-2.372-8.002-8.414 1.722-16.1 3.156-35.602-.683-50.185-3.425-14.35-12.442-29.885-22.073-39.316-1.306 12.37.511 25.21-1.65 37.614-2.72 16.538-6.022 33.368-13.447 48.542-4.184 11.1-12.892 9.238-22.166 8.844H1403c.066-12.443-.034-25.039-3.303-37.139-2.696-11.168-9.92-20.256-18.197-27.861.79 18.567 3.062 37.908.443 56.67-2.216 15.085-4.39 30.705-11.582 44.408-3.572 5.714-9.723 9.178-14.727 13.464-9.035 7.193-20.278 17.848-25.992 25.285-12.159 18.312-17.987 39.904-25.521 60.285-4.52 15.259-9.69 30.575-19.811 43.143-30.145 37.794-37.957 88.665-60.31 130.245m51 16.5c3.266-13.396 9.923-25.82 17.777-37.045 4.142-5.65 9.167-10.56 14.228-15.379 2.438-2.44 5.547-4.114 7.95-6.583 3.265-2.77-.112-4.87-.955-7.993-17.682.584-36.338 4.29-49.947 16.523-6.237 5.908-11.054 13.304-14.136 21.29-4.078 9.402 1.613 16.846 8.851 21.726 4.697 3.594 10.02 7.468 16.232 7.461m9.5 376c21.924-20.374 54.309-20.539 82.18-21.834 47.58-.473 95.168.086 142.746-.166 21.438.37 49.909 2.524 57.266-19.822 3.56-10.497 4.635-21.641 5.5-32.598-.004-5.683 1.09-11.415.478-17.076-.341-5.391-10.628-2.689-13.67-3.504-.17 13.268-3.504 27.445-14.005 36.424-8.691 7.98-20.927 10.565-32.278 11.455-44.665.346-89.327-.063-133.989.121-21.356-.274-42.925.118-63.784 5.346-9.393 2.613-18.804 6.56-26.017 13.304-4.578 3.81-3.953 8.729-4.271 13.786-.475 4.118-1.222 10.097-.156 14.564m137.5-594v-11c-14.897-3.357-29.288-9.648-44.68-10.475-10.942-1.045-24.65 1.05-33.125 6.886-8.301 5.535-7.77 14.11-7.113 22.405-.242 6.95 10.248 8.366 15.132 8.8 9.872.595 22.364 1.408 30.647-2.938 7.889-3.901 14.241-10.765 22.775-13.38 4.727-1.642 9.812-1.428 14.653-.58.56.091 1.151.189 1.711.282m-59 821h18c6.009-11.245 15.708-20.754 22.483-31.647 7.424-8.802 13.303-18.926 20.861-27.575 1.977-2.83 4.213-.695 5.934.873 14.846 12.148 29.24 24.85 43.753 37.37 10.634 10.175 22.25 19.44 32.302 30.19 6.74 11.819-12.528 19.163-20.204 18.656-37.717.38-75.466-.069-113.185.133H1363v105c4.808-.222 10.542.342 14.91-.36 3.628-.018 6.1-5.819 8.226-7.862 8.892-11.838 17.499-23.893 26.336-35.755 3.449-4.467 6.697-9.096 10.062-13.613 3.491-5.381 7.918-.952 11.441 2.06 13.072 10.67 25.645 21.962 38.49 32.883 6.732 5.414 12.714 11.658 19.175 17.368 5.635 5.228 14.103 12.487 16.86 18.279 52.729-40.378 100.334-87.059 141.947-138.826 2.584-3.178 5.1-6.417 7.661-9.607 6.006-6.228-6.452-12.871-10.001-16.892-20.46-17.79-41.55-34.868-63.297-51.053-10.863-7.685-21.624-15.532-32.71-22.895-5.482-3.197-11.283-8.082-16.521-10.64-3.267-1.086-6.432.923-9.769 1.273-3.586.554-7.185.651-10.798.639-50.67.003-101.345 0-152.012.001zm323.5 539c19.76 29.459 44.349 55.437 70.394 79.325 13.346 11.536 26.57 23.188 40.772 33.674 7.206 5.21 14.353 10.519 21.65 15.597 3.642 2.475 7.11 5.199 10.855 7.508 3.272 2.065 7.54 5.578 10.829 5.896 9.535-27.346 22.682-54.67 43.733-75.233 20.722-21.452 49.013-34.896 78.267-39.767.172-4.987 2.336-11.392-2.79-13.619-4.642-1.865-9.525-3.115-14.104-5.132-37.927-13.618-74.926-29.736-110.978-47.69-13.197-6.618-25.737-14.396-38.467-21.817-5.064-3.64-10.49-6.689-15.678-10.107-4.26-3.64-11.038-6.817-13.487-10.78 4.791-9.675 13.954-18.007 19.494-27.526 23.211-31.8 41.806-66.666 58.715-102.114 16.304-36.757 32.261-74.184 42.295-113.215 13.435-2.341 34.401-1.908 37-22-56.329-12.992-111.565-31.674-168-44-13.82 80.57-35.964 160.57-72.5 234-26.53-32.487-49.968-68.044-66.7-106.633-8.781-19.978-16.494-40.44-22.398-61.455-3.504-10.647-6.118-21.534-8.782-32.405-1.48-5.56-2.222-11.44-4.305-16.803-3.37-4.12-10.786 2.422-14.315 2.296 6.57 55.945 14.798 111.954 28.907 166.572a715.5 715.5 0 0 0 39.004 115.72c1.345 3.272 3.677 7.136 1.282 10.792-33.579 46.859-74.02 89.206-120.654 123.226-45.816 33.173-95.927 60.948-148.539 81.69-.015 3.937 1.54 7.753 3.71 10.99 1.777 3.525 6.518 2.457 9.83 1.59 21.133-4.789 42.4-9.105 63.133-15.5 44.661-12.42 88.414-28.564 129.668-49.761 39.494-20.939 77.575-44.905 112.159-73.319m-13.5-944h63c.355-88.947-6.717-178.843-29.87-265.028-11.41-39.717-27.691-78.675-52.602-111.95-12.5-16.573-25.6-32.803-40.398-47.392-7.233-7.198-16.49-14.84-23.813-20.647-4.174-3.11-8.365-6.201-12.797-8.934-5.341-4.056-8.647.606-13.52 1.951.154 4.622 5.819 7.659 8.515 10.896 27.643 24.392 51.872 53.464 68.645 86.432 26.21 52.068 33.871 110.8 37.575 168.147 2.81 62.17 2.14 124.672-4.735 186.525m208 178.75c-1.063-7.134-.78-15.622-1.656-22.156-1.624-9.485-16.018-14.64-22.36-17.724-10.174-3.962-21.05-5.09-31.74-6.652-22.247-1.983-44.624-.859-66.917-1.218-33.946-.002-67.872.003-101.806-.001-14.986-.031-32.015-4.16-41.842-16.47-4.673-5.936-7.372-13.319-8.303-20.761-.897-3.137.537-9.166-2.802-10.326-3.83-.473-7.708-.556-11.574-.442 0 11.389-.305 22.873 1.536 34.16 2.13 13.413 3.713 30.204 21.647 35.731 16.07 5.193 33.544 2.062 50.076 3.109h115.609c18.459.212 37.043.271 55.33 3.007 16.364 2.207 33.196 7.6 44.802 19.743" style="fill:#fff;fill-rule:evenodd;stroke:none"/><path d="M449 2668h2102c-110.242-665.144-221.837-1330.12-332.532-1995.186-3.476-20.835-6.96-41.682-10.42-62.51-1.682-10.253-3.434-20.498-5.126-30.74-1.284-4.301-.763-13.077-5.037-14.575-157.034-52.902-314.464-104.735-471.586-157.384-59.003-19.668-117.989-39.359-177-59-12.991-4.38-26.002-8.647-38.997-13.002-3.112-1.025-6.191-2.224-9.42-2.795-5.85.042-13.257 4.126-19.018 5.393-97.504 32.546-195.061 65-292.567 97.54-73.178 24.36-146.325 48.77-219.478 73.159-54.841 18.294-109.718 36.516-164.531 54.86-6.415 1.276-7.163 6.488-7.57 12-26.516 158.994-52.99 317.976-79.524 476.964A2145928 2145928 0 0 0 449 2668m652-455c-1.31 38.932-8.311 78.662-25.925 113.758-12.14 21.393-36.618 47.685-21.593 77.109 9.647 20.604 38.19 26.05 56.456 14.042 13.666-8.085 21.77-22.801 26.852-37.31 6.87-24.543 6.044-55.09 2.94-78.027-3.789-23.929-11.051-47.03-18.995-69.849-1.871-5.015-3.71-10.034-5.688-14.995-1.916-6.11-9.078-4.615-14.047-4.728m4-22c25.922-.22 53.985 1.927 77.81-10.918 8.018-4 16.716-8.815 22.931-15.125 4.159-6.31 1.11-17.31 2.268-25.75-.736-10.082 10.67-6.62 17.176-7.207h146.85c6.157.88 14.263-1.38 18.965 1.5-4.002 28.604-4.179 58.062-9.5 86.5-9.864-19.52-31.951-34.644-50.071-41.872-10.768-4.522-22.06-7.94-33.455-10.431-6.105-1.161-12.129-2.566-18.264-3.508-5.181-1.524-10.002 2.721-13.71 6.311v1.5c21.558 14.686 39.301 41.687 51.378 61.9 3.396 5.968 6.04 12.315 8.465 18.717 2.391 4.887 2.8 11.52 5.261 15.876 4.316 5.937 15.449 7.631 20.75 8.436 4.084.16 8.232-.012 12.15-1.24 3.456-.673 7.171-4.243 9.996-4.189-8.942 33.905-14.306 71.424-35.517 100.708-5.074 7.143-16.754 10.535-23.528 11.65-14.661 2.205-29.514.396-44.212-.037-14.924-.917-29.862-1.494-44.743-2.821v12c20.542 4.913 41.354 14.119 54.46 31.383 11.837 15.635 13.677 36.164 14.518 55.029.191 4.443-.284 9.74.454 13.77.668 4.321 8.733 1.223 11.382 1.879 31.261-.365 63.3-7.565 89.75-24.697 40.658-24.758 58.7-71.826 70.194-115.428 12.08-46.704 18.44-94.677 23.384-142.562 1.884-20.755 3.948-41.546 4.858-62.374 14.153-.939 28.366-5.999 39-15.5-1.99-4.466-8.402-7.252-11.467-10.853-28.157-23.767-56.949-46.804-85.033-70.647-11.457 10.959-23.254 21.496-34.102 33.102-5.643 5.627-11.826 10.642-17.381 16.354-5.228 5.364-16 2.905-24.017 3.544v-104h128.5l1.5.5c-9.444 6.84-19.781 12.822-29 20 2.511 3.184 4.58 8.999 9.898 7.562 4.694-1.182 9.165-3.09 13.802-4.46 54.13-18.87 106.882-42.181 155.942-71.962 17.587-10.747 34.814-22.037 51.835-33.633 7.614-5.236 15.193-10.56 22.484-16.235 3.064-1.584 7.865-7.433 10.553-3.858 22.703 23.93 43.164 50.263 60.799 78.126 2.941 5.633 5.722 11.391 11.86 13.55 21.09 11.685 48.607 13.545 69.333-.41 15.476-9.569 24.538-26.752 26.988-44.376 3.469-27.41-6.972-53.997-22.193-76.295-15.017-21.856-35.514-38.994-56.301-55.009 18.646-19 36.162-39.072 52.625-60.016 4.088-5.06 7.989-10.238 11.847-15.461 3.062-3.74 6.05-8.583 8.87-11.993 4.521-5.345 15.435-1.315 22.487-4.29 6.241-2.072 15.331-6.407 16.171-12.74-49.679-23.17-97.653-50.381-147.167-74-16.031 32.868-30.61 67.393-50.44 98.492-3.544 6.12-7.317 12.083-10.86 18.191-1.964 2.196-3.57 6.639-6.43 6.824-47.898-16.79-96.707-32.32-146.793-41.744-12.948-2.557-25.855-5.306-38.866-7.49-7.941-1.454-14.7-11.028-22.428-16.056-21.445-16.377-41.574-35.384-64.016-50.217-3.218 7.328-9.353 11.182-13.001 17.668-8.553 11.09-17.347 21.992-25.852 33.106-3.77 4.883-7.746 9.563-11.398 14.527-3.764 5.12-12.047 3.44-17.471 3.699H1227.37c-11.526-.02-21.865-6.599-32.702-9.737-29.759-11.67-59.977-22.556-89.669-34.263zm49 14c4.517 28.576 10.035 57.152 11.736 86.134 1.655 22.671 1.945 45.59-1.01 68.176-.157 3.562-1.403 8.625 1.22 11.855 8.923 11.333 24.605 18.366 38.682 12.717 21.044-9.47 28.688-35.535 28.372-56.664.287-22.562-7.727-44.38-17.61-64.278-11.81-21.269-30.19-43.876-47.053-58.483-4.607-2.432-9.646.155-14.337.543m342-1022h4c3.681 15.804 1.727 32.64-5.657 47.103-12.33 23.097-31.578 41.36-49.713 59.767-13.77 14.357-27.51 28.728-40.864 43.45-9.417 11.038-19.405 21.866-26.663 34.507-21.1 40.423-30.497 86.786-30.103 132.173h191c-.428 8.584.617 18.823-.569 26.644-1.601 8.254-8.81 11.195-16.142 12.4-14.855 2.943-30.168 1.605-45.18 1.956h-81.997c-20.167.3-40.446-.904-60.492 1.81-13.912 1.293-27.49 4.78-40.511 9.747-9.23 3.523-18.408 7.39-26.534 13.104-2.89 2.005-6.639 4.53-8.12 7.494-1.3 29.542.237 59.265-.455 88.845h24c2.739-29.98 36.408-38.022 58.278-39.123 42.7-1.61 85.415-.436 128.125-.877 21.372-.02 42.707.024 64.072-.013 16.018-.448 38.977-5.063 48.525-23.987 2.724.795 4.455 4.536 6.676 6.836 19.446 21.79 50.134 16.663 73.56 17.164h125.883c19.188.325 42.135-.068 59.327 4.407 17.657 3.997 33.524 16.981 36.554 35.593h23v-91c-19.626-13.944-43.02-23.273-66.952-27.081-20.16-3.734-40.74-3.053-61.125-2.919h-94.774c-15.016-.27-30.495 1.114-45.13-3.196-16.335-4.873-11.324-25.727-12.019-37.804h192c-1.095-39.823-1.094-79.683-4.334-119.42-5.242-64.549-13.025-129.221-28.802-192.144-23.082-91.371-71.88-178.544-146.058-238.239-17.39-14.357-36.577-26.516-56.696-36.65-8.064-3.722-16.296-7.116-24.506-10.468-6.985-2.768-15.693-4.772-21.92-7.758-2.756-2.023-1.003-7.958-1.749-10.645-1.374-25.56-11.295-50.191-26.107-70.818-7.514-10.242-16.96-18.824-27.503-25.836-6.302-4.931-12.757-4.25-19.786-4.022-6.791.597-13.83-.764-20.539.5 1.748 2.926.92 7.8 1.508 11.67 1.018 25.824.262 56.9-6.508 79.83h-6c-7.618-37.808-42.883-68.765-82-65 9.08 38.008 9.92 78.261-1 116-17.364 7.82-36.226 21.63-47.05 35.438-18.533 24.553-22.431 56.221-32.704 84.288-4.9 13.905-11 27.67-19.408 39.84-8.9 11.503-15.98 24.25-22.256 37.33-15.276 33.278-24.048 69.246-40.073 102.19-2.864 5.522 3.224 11.502 5.671 16.244 13.49 19.536 24.458 40.8 38.729 59.804 12.607 15.406 33.369 20.344 52.427 19.865 7.489.27 15.249.223 22.115-3.27 22.67-11.11 35.576-33.848 51.373-52.164 8.002-8.99 17.924-19.262 26.316-26.452 10.017-8.88 24.515-7.461 37-9.365 16.138-2.33 32.803-4.443 47.31-12.507 12.871-7.52 27.07-21.551 30.55-35.241m-237 661v-104h-51v77.291c.015 6.563-.018 13.092.01 19.647.221 1.945.103 5.617 1.811 6.422 16.227 1.79 32.869-.297 49.179.64m0 133v-107h-51v98.6c.17 2.293-.114 5.26.96 7.154 7.13 2.605 17.499.303 24.973 1.246zm-51 129h51v-104h-25.8c-8.332.965-18.436-1.299-25.2 1zm5 83c18.39 43.678 40.404 88.478 42.676 136.982-.297 7.138 4.028 11.036 9.498 14.135 8.004 6.013 20.676 7.264 28.971 3.572 31.552-16.967 23.04-59.351 10.956-82.282-16.577-32.869-45.95-56.241-77.033-74.382-5.536-3.365-9.793 1.161-15.068 1.975m269-1035h44c4.088 13.98 7.676 28.148 11.78 42.138 3.841 12.49.244 27.938-3.026 39.078-5.55 21.557-22.865 36.183-36.884 52.177-22.43 23.485-43.613 48.1-63.937 73.425-9.203 12.594-18.807 25.322-24.829 39.811-7.002 15.426-9.298 32.583-9.104 49.371h350.4c2.937-.12 8.927.486 9.146-2.992 2.323-105.36-7.884-212.791-45.1-312.146-24.98-66.132-65.274-128.608-122.813-171.03-28.365-21.374-60.42-37.457-94.315-47.925-5.73-1.402-5.712-6.029-4.433-10.565 1.81-16.323 1.907-36.009-2.24-50.59-4.044-14.763-13.325-28.124-23.645-38.752.733 23.419-.014 48.918-7.926 71.697-1.514 5.495-3.493 10.904-5.97 16.037-1.7 3.646-3.675 7.42-7.003 9.808-13.965 1.232-28.103-.164-42.101.458.762-21.482-.346-51.745-25-66.75 6.069 31.973 3.348 72.173-8.123 99.883-2.846 6.697-8.94 10.98-14.597 15.144-10.12 7.983-21.205 18.138-28.253 27.394-13.463 21.015-20.841 49.842-28.77 71.026-3.03 10.42-7.533 20.362-14.12 29.015-26.444 32.08-36.217 73.447-52.022 110.896-2.907 7.073-6.391 13.919-9.154 21.048-1.842 2.582 2.077 7.324 2.721 9.682 6.507 12.137 13.17 24.288 20.487 35.948 3.278 4.948 6.738 10.035 11.996 13.08 10.585 5.229 25.223 5.188 35.686 4.093 22.29-3.918 29.437-23.65 42.543-38.988 10.143-10.966 20.026-22.145 30.495-32.794 4.124-3.613 8.806-8.331 13.785-9.276 20.2-3.062 39.963-8.143 59.713-13.252 17.939-4.1 36.954-16.486 40.613-36.149m-208 85c5.847-24.676 21.83-45.767 42-60.5-1.32-1.315-2.607-2.645-3-4.5-17.43 1.127-36.126 4.694-49.086 17.615-5.856 5.974-10.588 13.202-13.312 21.133-3.708 8.245 5.28 16.123 11.204 20.352 3.567 2.476 8.11 5.489 12.194 5.9m8 379.5c.05.544.222 1.035.5 1.5 21.071-22.317 54.357-23.66 82.81-24.753 48.761-.704 97.565.128 146.315-.247 19.489-1.056 48.951 4.829 56.977-22.585 2.942-10.888 4.277-22.133 4.788-33.376.254-5.63.894-11.322.117-16.91-.854-2.366-5.159-1.772-7.03-2.125-2.835-.01-5.65 0-8.477-.004-.17 13.268-3.504 27.445-14.005 36.424-8.691 7.98-20.927 10.565-32.278 11.455-45.263.346-90.523-.063-135.783.121-21.484-.21-43.24.286-64.128 5.95-9.378 2.934-18.908 7.082-25.632 14.538-3.153 3.59-2.34 10.2-2.817 15.568-.23 5.08-.146 9.757-1.357 14.444m138.5-597.5c.804-2.917.308-6.016.5-9-14.878-3.45-29.284-9.55-44.663-10.47-11.017-1-25.163 1.738-33.063 8.456-5.573 5.052-7.037 16.965-3.92 23.163 5.355 4.1 12.586 4.542 19.068 4.805 9.489.931 19.214.426 27.195-5.393 7.33-4.917 14.362-11.364 23.608-12.322 3.297-.09 7.426-.579 10.373.297.268.2.646.38.902.464m-58.5 823h20c13.245-20.172 31.315-43.094 44.5-61 14.921 13.486 30.86 25.807 45.712 39.372 5.721 4.9 12.2 10.927 17.263 15.603 4.93 4.692 10.484 8.76 14.894 14.004 5.045 5.026-.62 11.428-5.12 14.122-9.529 5.563-23.072 3.418-32.573 3.899H1362v107c6.503-.164 19.152 2.057 23.266-5.708 14.254-18.031 26.778-37.453 41.234-55.292 13.904 12.132 28.468 23.58 42.12 35.995 7.315 6.087 14.116 12.743 21.215 19.058 3.748 2.906 7.088 6.296 10.398 9.68 2.703 2.799 7.274 5.987 5.767 11.017 30.32-21.42 58.227-46.975 84.733-72.983 13.325-13.23 25.62-27.38 38.242-41.243 6.337-6.793 12.07-14.118 18.162-21.111 5.003-7.236 12.864-14.257 15.863-21.085-40.12-36.749-83.525-70.274-129.5-99.328-5.314 4.134-13.754 3.829-19.496 3.999-50.674.003-101.343 0-152.004.001zm12.5 677c57.175-12.27 114.112-27.677 167.526-51.935 51.887-22.838 100.771-52.99 144.474-89.065 40.216 58.054 94.635 104.12 153 143 10.791-26.858 22.457-54.92 44.233-75.233 20.722-21.452 49.013-34.896 78.267-39.767-.233-3.838 2.22-9.448-2.509-11.47-4.202-1.832-8.708-2.913-12.926-4.693-63.74-23.768-126.98-51.73-182.565-91.337 28.053-34.984 52.251-73.048 71.928-113.335 20.55-42.117 38.618-85.964 51.072-131.165 13.04-2.059 31.363-1.426 37-20-55.573-13.581-110.435-30.435-166-44-14.413 80.71-35.58 161.825-73.5 235-26.928-32.114-50.103-67.715-67.02-106.12-8.907-19.89-16.61-40.335-22.587-61.292-3.475-10.733-6.346-21.633-8.906-32.614-1.665-5.543-2.237-11.408-4.185-16.862-1.335-5.603-9.857.888-12.802.888 7.112 55.09 14.629 110.376 28.815 164.193 9.703 39.947 22.933 78.966 39.311 116.649 1.2 3.42 4.22 7.302 2.322 10.059-33.084 47.56-74.41 89.717-120.655 124.516-46.144 33.595-96.772 61.533-149.793 82.583.539 4.123 3.66 9.186 5.5 12M1564 987.75c27.77 25.414 55.346 52.696 73.095 86.624 28.028 52.099 37.447 111.83 41.094 170.078 2.853 32.38 1.372 64.957 1.811 97.398.154 31.814-2.292 63.59-6 95.15h61c.336-88.295-6.97-177.477-29.87-263.028-11.334-39.411-27.441-78.045-52-111.169-12.499-16.537-25.428-32.847-40.232-47.405a314 314 0 0 0-23.295-20.426 167 167 0 0 0-12.803-9.11c-5.183-4.295-8.2-.421-12.8 1.138zM1881.5 1620c.892-7.473-.87-15.533-.693-23.124-.088-7.268-6.818-13.177-12.35-16.077-27.805-15.145-60.865-12.213-91.164-12.799h-111.386c-16.818.615-35.723-1.212-48.255-14.062-5.624-6.244-9.198-14.282-10.212-22.63-.892-3.246.544-10.31-3.352-10.863-4.314-.79-8.747-.248-13.088-.445-.073 11.545-.276 23.16 1.289 34.63 2.286 13.754 3.334 31.438 21.894 37.261 16.652 5.307 34.758 1.948 51.873 3.109h115.609c18.473.216 37.092.336 55.346 3.32 16.586 2.513 33.664 8.003 44.489 21.68" style="fill:#000;fill-rule:evenodd;stroke:none"/></svg>