<svg xmlns="http://www.w3.org/2000/svg" width="3000" height="3000"><path d="M449 2666.5v1.5h2102v-1.5c-63.81-378.768-126.215-757.87-189.705-1136.696-47.349-283.998-94.654-568.016-142-852-4.398-26.67-8.911-53.338-13.325-80.003-1.118-6.656-2.232-13.342-3.35-19.985-.571-3.586-1.119-7.183-2.096-10.662-1.288-2.958-6.82-3.128-9.193-4.54-101.51-33.828-203.017-67.663-304.512-101.514a746151 746151 0 0 1-266.522-88.84c-39.072-12.89-78.06-26.135-117.144-38.98-4.713-1.335-9.273 1.032-13.839 2.453-144.507 48.104-288.95 96.378-433.449 144.467-54.18 18.08-108.385 36.116-162.566 54.195-23.808 7.923-47.625 15.882-71.434 23.805-5.676 1.96-11.407 3.738-17.06 5.726-6.564 1.113-6.72 8.744-7.34 13.268C740.08 921.349 682.77 1265.54 625.383 1609.692 566.339 1961.663 508.308 2314.864 449 2666.5M1303 1236c-2.777 23.397-9.28 46.51-9.019 70.274-2.16 19.774 5.4 39.296 16.69 55.214 4.408 6.966 9.906 13.12 15.213 19.372 2.188 3.142 5.9 5.942 7.777 8.914 2.597 2.628-1.14 8.202-1.391 10.898-9.118 29.037-17.961 58.17-26.962 87.237-6.717 21.568-12.969 43.311-16.252 65.71-2.006 17.403-1.843 38.436 3.1 53.816 7.099 25.021 30.059 41.93 55.168 45.133 26.242 4.584 53.633-.082 77.676-10.568v100c-114.929.76-230.151-.926-345 .5 3.007 7.53 4.34 15.841 7 23.5h585v2.5c-6.709 5.99-12.424 12.88-18.475 19.475-12.476 11.079-22.113 25.888-35.768 35.557-66.616 1.334-133.445-.242-200.104.468h-25.185c-6.919-.234-15.272.627-21.453-1.18-44.418-15.999-88.44-33.327-133.015-48.82v223c24.977.346 50.38-1.099 74.263-9.215 11.09-3.202 23.84-8.03 33.39-12.62 8.793-4.804 23.766-9.634 22.347-23.165h259v32c19.315.243 38.79.344 57.795-3.697 13.9-2.796 27.8-5.774 41.394-9.87 9.237-2.859 20.301-5.835 28.126-10.133 7.71-2.779 5.46-15.202 5.685-21.189V1864c10.379-1.427 19.855-6.987 27-14.5-36.144-27.732-74.247-53.336-110-81.5v-2h219.6c8.144.148 17.315-.253 23.8-6.037 7.67-6.276 1.406-12.004-4.432-15.985-18.033-16.297-37.482-30.906-56.129-46.46-18.913-14.478-36.224-31.508-56.183-44.518-21.627 29.652-44.9 58.862-65.656 89h-175v-71c7.188-1.654 14.54-3.481 20.996-7.207 7.265-4.223 9.429-10.52 12.004-17.293-6.523-2.177-13.83-1.282-20.586-2.25-46.484-2.725-92.904-7.167-139.414-9.25.895-5.157 8.015-9.214 10.522-14.855 13.045-19.466 18.851-42.766 24.379-65.166 8.404-33.829 17.769-67.584 29.836-100.296 6.071-16.103 12.43-32.141 20.193-47.508 1.953-3.83 4.176-7.5 6.206-11.28.96-1.231 1.884-3.583 3.458-3.422 11.796.845 23.585 1.978 35.406 2.527v98.4c.322 23.075-6.408 45.684-5.996 68.765-.374 7.187.871 16.949 7.33 22.911 11.924 10.301 28.795 9.127 43.296 8.851 10.797-.49 21.945-2.078 31.464-7.577 14.722-8.416 16.274-30.321 15.906-44.94-.235-17.239 1.146-34.423 3.023-51.535 2.912-29.405 12.027-57.643 19.977-85.875 4.226-.192 6.026 3.833 7.432 6.86 11.775 24.335 22.288 49.468 30.185 75.345 6.59 22.951 10.54 46.779 19.632 68.976 7.006 18.476 16.266 38.635 35.077 47.878 17.241 8.072 37.354 3.327 53.856-3.779 26.49-13.809 52.05-34.828 62.525-63.928 7.692-22.795-.78-51.256-8.033-70.896-13.008-33.682-31.43-66.24-34.878-102.992-3.508-35.858 6.796-77.702 16.756-108.604 1.087-4.422 3.225-8.51 4.448-12.86h3c3.512 8.353 12.657 15.393 17.975 21.475 5.56 6.068 12.374 10.786 18.497 16.187 1.94 7.403 2.187 15.36 6.017 22.24 11.207 22.677 32.562 38.457 54.103 50.292 11.614 5.653 24.002 9.61 36.684 11.98 6.966 1.169 14.089.774 21.11.768 6.28.328 12.576-1.36 16.614-6.442-4.757-11.283-15.467-18.563-22.382-28.369-14.209-17.32-20.745-41.011-38.985-55.218-8.461-6.944-19.495-10.196-30.147-11.604-5.425-.916-12.006-.515-16.918-1.73-8.148-4.457-14.727-15.451-21.37-21.774-6.424-7.707-12.482-15.711-18.576-23.67-4.902-7.19-11.855-14.807-12.142-25.357-3.344-75.093-31.989-150.587-86.082-203.88-18.865-19.193-44.195-38.665-65.728-50.804-5.083-3.03-10.26-5.913-15.552-8.539-4.472-2.988-14.243-5.37-14.876-10.554-.13-23.815-7.308-46.88-16.322-68.725-14.844-37.134-35.37-72.366-62.79-101.646-10.75-10.383-22.38-20.294-35.623-27.397-26.034-13.986-56.215-10.05-84.408-9.275-40.175 1.454-83.503 3.704-118.459 26.191-8.257 5.23-15.73 11.699-22.742 18.453-4.664 4.892-9.882 11.93-18.724 11.368-24.745-.21-49.458-.007-74.174 1.03-4.341-16.803-14.292-32.636-28.648-42.712-15.264-10.64-34.224-14.006-52.493-13.254-17.692.279-35.28 2.128-52.715 5.015-12.303 1.755-24.888 3.797-35.905 9.872-15.39 8.755-31.357 22.637-41.75 35.04-12.279 13.523-23.685 30.3-22.489 49.516-.219 22.472 2.328 44.849 4.048 67.21 1.419 17.306 2.996 34.578 3.763 51.912.094 50.524-24.664 98.549-21.811 149.401-15.675-.218-34.25-7.88-48.926 8.464-11.94 12.262-13.126 31.214-6.923 46.35 9.956 26.483 32.88 45.382 54.866 61.549 12.631 9.063 25.696 17.507 38.989 25.543 7.575 3.153 3.048 15.387 2.613 21.386-5.57 29.507-15.216 58.127-20.889 87.627-4.522 26.73-5.93 54.617 1.514 81.022 11.02 42.314 42.907 80.41 86.067 92.282 32.28 8.926 69.359 4.56 96.576-15.91 40.71-30.345 53.197-92.36 27.915-136.427-5.701-9.959-15.202-20.532-24.986-24.898-8.941-4.137-19.392-3.747-28.295.192-5.79 2.236-16.529 6.701-17.964-.998.042-9.97 7.73-21.764 11.623-28.513 5.805-8.279 11.737-16.495 18.016-24.425 6.243-7.774 12.53-15.527 18.491-23.505 4.357-5.94 8.988-11.648 13.02-17.809 3.667-6.867 8.267-3.714 12.85-.125 7.037 4.444 16.632 7.419 24.158 8.448 8.57 1.783 18.494-.841 26.285-1.253m-242-50c-.177-21.668-.084-43.41-2-65-19.964-5.963-43.5-16.664-63.13-15.9-13.109.112-10.321 18.942-6.39 25.518 5.229 9.023 12.523 16.776 20.649 23.289 11.62 9.869 24.523 18.113 37.555 25.921 4.174 2.148 8.859 5.78 13.316 6.172m153 846h410v2.5c-9.726 12.175-19.74 24.143-29.447 36.326a814 814 0 0 1-13 16c-2.065 2.498-3.894 5.317-6.654 7.113-6.049 2.131-14.766.344-21.096 1.061H1233c.565 8.269 5.066 15.802 6 24h114v2c-7.671 6.91-19.506 11.681-27.434 16.73-65.41 35.36-135.431 62.318-207.566 80.27.418 3.085 2.447 6.242 3 9 100.1-7.247 199.482-25.91 296-53-.417 3.887-5.391 5.943-7.829 8.445-48.17 35.761-100.875 65.433-155.067 91.009-57.15 26.692-116.303 49.705-177.104 66.546.083 4.191 2.15 7.983 3 12 68.316-8.059 135.79-23.548 202.095-41.594 32.64-8.952 64.774-19.447 96.715-30.552 15.658-5.98 31.671-11.049 46.964-17.949 15.5-5.126 29.7-14.098 45.226-18.905.745 2.472 1.287 4.944 1.38 7.517-3.607 7.688-15.224 13.359-21.06 19.437-56.342 43.856-117.925 80.706-181.654 112.72-32.858 16.674-66.52 31.683-100.812 45.194-34.214 12.95-68.38 26.982-103.854 36.132.21 4.182 3.466 8.261 4 12 46.936-7.235 93.599-16.105 139.833-26.962 22.926-5.699 45.889-11.285 68.561-17.874 11.435-3.243 22.985-6.172 34.268-9.901 10.792-2.693 23.127-8.228 33.338-9.263-.427 5.585 4.197 7.035 8.617 7.902 11.233 3.017 21.786 7.927 32.253 12.86 7.404 3.973 14.89 7.906 21.396 13.27 20.221 19.67 23.175 49.573 24.734 75.968 23.965-.24 48.16-1.308 71.784-5.616 16.33-2.66 32.989-6.375 47.149-15.41 21.07-13.094 32.088-36.925 38.076-60.04 6.782-26.322 7.546-54.01 4.499-80.914-4.929-41.254-18.607-81.57-40.508-116.912-10.168-17.429-22.846-33.237-36.137-48.31-6.48-7.848-14.317-14.404-21.944-21.051-3.816-3.134-7.368-6.566-11.436-9.385-3.478-2.894-9.87-6.32-10.483-10.362 15.739-4.832 30.447-12.774 45.333-19.675 7.729-3.708 15.356-7.639 22.763-11.948 7.704-4.833 17.265-3.043 25.904-3.377 13.85 78.057 35.784 156.49 78.914 223.872 42.34 65.366 106.59 113.145 174.586 149.128 7.98-26.025 18.77-51.834 36.863-72.668 12.878-15.872 29.815-28.821 48.838-36.407 6.687-3.264 17.817-3.665 17.196-11.992.583-3.575-6.713-3.229-8.509-4.259-50.93-11.872-100.926-27.85-148.697-49.213-14.241-6.708-28.294-13.885-41.832-21.913-6.675-4.249-13.463-8.3-19.878-12.946-3.133-2.369-6.442-4.52-9.554-6.912-2.757-2.154-6.62-4.512-6.927-7.69 59.672-11.277 119.214-24.387 176.929-43.516 7.069-.546 14.938 3.418 23.274.452 5.296-1.019 14.854-7.044 6.368-11.993-35.97-26.747-71.906-53.52-107.687-80.523-3.486-2.168-7.603-6.409-10.884-7.42-6.375 11.461-16.621 21.067-24.598 31.498-15.111 17.984-31.5 34.694-48.377 50.977-12.173 12.961-25.307 24.83-38.7 36.455-5.09 4.855-11.836-5.757-15.17-8.314-15.117-16.875-29.72-34.354-40.5-54.45-5.517-10.16-11.165-20.312-15.762-30.937-3.521-9.953-10.575-21.279-10.893-31.229h128.4c11.556.051 29.854.221 32.12-13.21-25.53-23.959-54.983-43.543-82.297-65.338-2.567-1.754-5.755-4.7-8.223-5.452v-3h124v1.5c-4.733 14.991-8.434 30.315-13.362 45.238-2.292 7.693-4.847 15.29-7.054 23-1.103 3.742-2.655 7.347-3.5 11.148-1.244 3.664 2.906 5.899 5.416 8.114 31.189-11.74 62.774-23.647 93.2-37.489 14.496-6.745 31.506-14.666 44.634-21.186 4.026-1.813 7.844-4.355 12.182-5.373 11.938-1.391 25.346-1.057 34.484-10.452-36.388-32.536-70.116-67.967-106.5-100.5-17.95 16.764-35.3 34.153-52.602 51.602-3.723 3.628-7.858 9.091-12.978 9.31-187.305.25-374.614-.045-561.92.088-1.898-10.136-7.193-21.247-10.236-30.132-1.87-5.165-4.34-10.052-6.627-15.028-1.26-2.17-2.047-5.536-4.223-6.33-2.635.15-5.288.062-7.914.49 1.59 20.642-5.654 40.975-20.251 55.72-11.986 12.488-25.375 24.346-41.944 30.354-27.623 10.25-54.082 35.91-51.744 67.503.593 23.372 14.863 46.482 36.989 55.223 16.786 7.088 36.144 8.74 53.386 1.803 23.982-8.424 43.707-33.148 51.306-54.47 9.594-25.484 10.972-53.378 7.258-80.133m132-849c9.426-1.715 16.368-12.927 21.972-19.474 5.673-7.922 9.89-16.739 13.322-25.82 11.614-28.139 12.132-59.01 11.706-88.874V953h33c-.112 29.99 1.172 59.972 4.252 89.799 2.233 20.493 5.744 40.868 10.906 60.82 3.636 14.118 9.765 30.64 17.87 41.403 6.142 9.625 18.673 13.862 29.022 8.12 7.606-4.395 11.326-12.925 15.618-20.088 6.276-10.681 12.109-22.137 22.135-29.875 8.54-6.577 23.007-10.043 33.907-16.59 12.341-6.708 22.625-16.984 29.19-29.418 10.409-18.266 10.199-42.567 26.702-57.273 14.971-14.006 31.201-27.844 39.963-47.01 7.61-14.55 9.972-34.462 9-49.285-3.07-24.224-12.454-47.25-23.24-68.935-10.212-21.255-22.722-41.428-38.386-59.108-9.958-10.618-20.358-21.46-33.878-27.53-10.803-5.856-23.145-6.566-35.118-6.03-36.144.816-73.399-1.325-108.58 8.76-12.55 3.96-24.495 10.224-34.475 18.829-7.703 6.65-15.04 13.722-21.924 21.221-2.18 2.543-4.795 6.57-8.687 6.962-29.618 1.568-59.405-.12-89.012 1.698-41.8 3.085-84.932 14.557-117.007 43.112-15.166 13.872-28.805 30.606-35.793 50.24-4.14 9.716-6.77 21.85-8.187 31.38-1.163 5.574-1.446 11.247-1.288 16.923.402 5.931-3.078 9.226-6.229 13.336-8.417 11.129-13.93 24.5-13.914 38.595.45 52.423 2.91 104.97 6.162 157.338.23 26.732 2.63 53.727-.654 80.366-3.877 24.955-10.866 49.291-16.745 73.806-5.905 19.715-8.065 40.118-9.117 60.512-.71 18.616 2.304 37.778 9.996 54.837 7.012 15.002 17.478 28.571 31.236 37.926 13.56 8.997 29.924 13.545 46.186 13.159 15.675.746 31.797-2.4 44.718-11.82 24.642-16.472 31.065-49.017 26.207-76.338-2.725-11.099-6.524-26.94-18.901-27.75-13.297-1.445-18.763 12.2-24.645 20.19-3.109 3.997-6.447 8.153-11.05 10.502-9.97 4.963-22.085 1.504-28.786-6.917-13.117-14.43-8.028-40.388-2.721-56.495 11.172-31.004 33.316-56.12 53.54-81.446 7.92-9.536 15.545-19.297 22.773-29.358 2.508-4.253 8.365-9.603 8.521-13.96-1.736-10.133-4.859-20.215-2.326-30.62 2.429-17.015 14.306-34.701 24.992-45.72 16.8-16.975 45.715-35.006 72.516-13.677 10.09 8.452 16.632 22.995 20.32 34.134 4.538 12.817 6.26 28.918 4.931 41.275m-92.91-7.24c-.641 18.27 15.18 34.427 33.51 32.159 17.433-.29 30.266-17.053 29.23-33.637-.156-8.51-1.393-16.97-3.931-25.107-2.307-7.032-4.585-17.273-13.607-21.123-11.36-4.072-24.861 8.499-30.664 15.16-7.894 8.989-14.428 19.945-14.538 32.548m15.355-149.225c.18 16.868 15.976 32.511 33.276 28.753 14.034-3.075 25.793-18.493 22.066-33.053-2.572-14.154-18.55-25.483-32.71-22.139-12.371 2.598-20.941 14.519-22.632 26.44M1508 1354c20.844 2.11 41.474 6.704 62.542 6.603 21.26.822 42.567.234 63.822.007 10.056-.223 20.118-.36 30.16-.612 9.097.05 19.918-1.752 28.22-.527 6.674 3.787 11.49 12.74 15.271 18.421 16.377 27.347 29.688 56.667 40.051 86.81 8.663 27.547 12.755 56.412 22.567 83.63 3.583 9.7 9.1 24.342 22.918 24.48 11.495.099 23.701-7.179 32.176-12.643 15.01-10.939 36.438-27.548 32.256-51.033-1.028-19.369-9.467-37.04-17.26-54.333-12.955-30.875-26.43-62.75-28.695-96.594-.908-51.036 11.941-101.944 32.525-148.387 3.435-5.642 3.74-11.996 2.625-18.358.065-45.007-12.138-89.6-33.574-128.962-18.853-33.46-45.504-61.587-76.714-83.785-11.073-7.852-22.788-14.757-34.754-21.142-2.522-1.027-6.681-3.913-8.967-2.558-5.57 10.408-9.663 21.894-17.483 31.054-12.842 17.106-31.469 29.783-42.01 48.734-3.76 7.349-5.762 15.477-8.282 23.294-9.242 26.722-29.827 47.854-54.972 60.192-12.113 6.456-25.773 11.046-34.968 21.841-8.493 10.434-14.533 22.64-23.21 32.923-12.814 19.501-36.152 20.019-55.713 12.537-18.132-7.422-32.941-27.63-37.531-44.592h-4c-3.923 16.544-15.476 33.836-24.52 46.152-10.675 12.735-27.3 26.335-42.48 29.848-.007 4.12 2.657 7.445 4.454 10.919 13.79 27.322 29.906 53.7 42.954 81.322.435 6.711-3.678 14.082-4.965 19.92-16.373 52.132-32.224 104.424-48.534 156.564-6.321 19.551-12.499 39.244-16.644 59.389-3.294 17.286-5.584 36.185.514 53.21 6.69 16.754 22.759 21.279 38.069 20.676 13.93-.182 28.787 1.163 41.878-4.89 11.082-4.719 17.002-15.843 20.83-26.494 12.678-39.732 18.421-81.61 34.22-120.442 13.062-37.986 29.38-74.865 46.603-111.099.327-.66.51-1.352.621-2.075m-155 1055.5v1.5c27.956.145 55.733 4.288 83.697 4 7.18-.337 15.743.554 22.255-.65 10.086-2.1 13.367-15.392 15.34-23.633 2.201-9.743 3.805-19.705 3.708-29.717-41.446 15.721-82.363 34.29-125 47zm15-481.5h259v-79h-259z" style="fill:#feffed;fill-rule:evenodd;stroke:none"/><path d="M1244.5 1225c7.93 6.254 17.022 10.928 27.085 12.597 10.147 2.883 20.333.74 30.415-.597-4.058 23.331-8.758 46.834-9.134 70.61-2.3 19.465 5.82 38.69 16.482 54.417 4.45 6.976 9.846 13.241 15.25 19.47 2.146 3.168 5.773 5.939 7.732 8.826 2.399 2.377-.848 6.928-1.395 10.373-9.06 29.293-18.283 58.51-27.08 87.88-6.96 21.663-12.895 43.737-16.069 66.285-1.52 16.94-1.749 37.344 3.04 52.448 6.691 25.297 29.669 42.825 54.961 46.155 13.292 2.368 29.27 1.542 41.52.557 11.833-2.044 27.045-4.178 36.193-11.021 1.426 32.462-.26 65.433.5 98h-345c1.463 8.853 4.98 17.296 7 26 194.903.76 390.209-.926 585 .5-6.709 5.99-12.424 12.88-18.475 19.475-12.476 11.079-22.113 25.888-35.768 35.557-66.616 1.334-133.444-.242-200.103.468h-25.185c-7.213-.113-14.753.738-21.634-1.933-44.14-16.697-88.583-32.762-132.835-49.067v226c25.27.416 50.966-.735 75.165-8.881 11.579-3.46 23.076-7.459 33.982-12.694 8.845-4.948 24.254-9.66 22.853-23.425h257v32c19.4.324 38.925.417 58.052-3.332 14.143-2.846 28.273-5.81 42.122-9.897 9.602-3.22 19.656-5.445 28.669-10.216 8.593-3.494 5.655-14.366 6.157-21.444V1865c4.997-.6 11.382-3.505 15.12-5.189 4.54-1.964 9.01-7.592 12.88-8.811v-1.5c-36.45-27.982-74.368-54.234-111-82 42.88-1.426 86.264.26 129.24-.5h64.77c10.798-.1 21.621.124 32.418-.071 8.426-.096 19.295-4.065 22.572-14.472-19.042-19.023-40.82-34.991-61.516-52.083-20.635-16.326-40.316-34.54-61.984-49.374-11.752 14.494-22.248 30.018-33.608 44.8-10.336 15.377-23.063 29.635-32.892 45.2h-173v-69c7.335-1.728 14.886-3.529 21.424-7.47 6.572-4.439 10.803-11.654 11.576-19.53-53.148-4.739-106.876-7.197-160-11.5 15.72-15.006 23.482-36.173 29.492-56.493 16.84-62.446 30.513-127.64 64.008-184.007 11.231 2.435 23.112 1.507 34.5 3-.003 32.819.003 65.633-.002 98.437-.177 23.352-6.842 46.282-5.987 69.704.049 7.464.779 16.177 7.67 22.226 12.137 10.164 29.023 8.778 43.612 8.595 10.73-.358 21.867-1.666 31.46-6.884 15.33-7.354 17.672-29.399 17.247-43.878-.221-17.276.96-34.504 2.852-51.646 2.796-29.97 12.028-58.802 20.148-87.554 2.903.714 4.044 4.6 5.426 6.844 10.822 21.718 19.875 44.321 27.765 67.245 6.34 20.906 10.602 42.373 17.168 63.213 5.58 17.333 12.384 34.88 23.887 49.226 23.726 28.652 63.868 15.07 87.317.128 19.404-12.908 36.837-30.393 46.038-52.14 7.09-17.903 4.627-37.675-.396-55.705-7.15-26.494-20.47-50.717-29.6-76.502-4.657-13.35-9.165-26.858-11.033-40.944-2.385-14.379-1.297-28.985.202-43.385 3.142-27.14 10.946-58.877 20.726-81.98 7.467 11.14 18.941 22.547 28.315 30.478 4.581 3.702 10.135 6.319 10.156 13.938 3.268 23.466 21.545 41.276 39.756 54.414 13.949 9.91 29.573 17.348 46.234 21.378 13.045 2.96 26.573 3.942 39.774 1.971 4.02-.698 9.744-3.834 8.234-9.274-2.45-6.657-9.847-13.345-15.201-19.638-16.764-17.495-24.33-41.985-41.403-59.26-13.057-12.604-31.49-15.13-48.705-15.965-7.532-1.104-12.48-11.324-18.728-16.666-5.562-6.192-10.652-12.794-15.71-19.382-3.728-4.527-7.203-9.237-10.567-14.022-2.813-4.753-7.969-10.645-8.598-15.27-2.94-50.986-13.733-102.319-39.563-146.995-17.342-32.647-42.151-60.558-70.259-84.245-21.42-17.497-44.904-32.048-69.858-43.919-5.102-2.924-2.667-11.114-3.562-15.865-1.713-20.044-8.99-39.192-16.05-57.81-10.978-27.122-24.802-53.15-42.162-76.744-16.506-22.655-41.217-46.65-65.631-56.134-12.628-5.1-26.448-6.23-39.9-5.798-47.078 1.48-96.579-.59-140.806 18.704-9.477 4.544-19.926 11.297-27.241 17.575-6.637 5.248-12.358 11.464-18.435 17.316-4.864 4.474-13.443 2.843-19.34 3.213-21.1-.287-42.185.058-63.25 1-4.341-16.803-14.292-32.636-28.648-42.712-15.12-10.558-33.887-13.94-51.989-13.281-18.001.111-35.958 1.846-53.686 4.836-12.473 1.805-25.289 3.68-36.566 9.618-15.604 8.635-31.77 22.66-42.274 35.108-12.227 13.449-23.868 30.177-22.837 49.329-.2 22.848 1.848 45.622 3.965 68.345 1.245 16.975 3.045 33.928 3.755 50.93.455 50.675-24.696 98.83-21.72 149.827-14.958-1.373-34.557-6.555-47.858 7.388-12.151 11.66-14.309 30.52-9.192 45.848 8.73 27.09 31.579 46.302 53.139 63.056 12.577 9.085 25.443 17.797 38.784 25.703 2.94 1.761 7.977 4.178 7.463 7.372-2.82 30.72-13.81 60.019-20.109 90.048-6.161 26.97-8.663 55.429-3.667 82.837 7.452 44.13 37.277 84.144 79.182 100.828 31.796 12.9 74.772 8.813 101.237-8.001 43.88-27.072 59.988-88.704 38.946-135.098-9.009-19.862-28.266-44.714-57.97-33.359-3.118 1.237-6.264 2.427-9.521 3.235-1.932.392-5.45 1.276-7.057-.729-1.866-4.287 1.035-9.776 2.503-13.838 4.947-12.971 14.237-23.587 22.166-34.722 13.758-16.723 26.712-34.1 39.454-51.568m-185-40c1.255-20.88-.422-42.14-1.5-63-19.618-5.637-42.652-16.541-61.896-15.84-12.84.884-9.12 19.114-4.571 25.16 4.782 8.333 13.178 16.215 19.862 21.804 11.044 9.335 23.25 17.195 35.547 24.713 4.043 2.629 8.486 4.613 12.558 7.163m3.5 1279.314c.932 4.319 4.562 8.55 5 12.686 93.879-12.187 185.603-36.808 276-64-.427 5.585 4.197 7.035 8.617 7.902 11.233 3.017 21.786 7.927 32.253 12.86 7.404 3.973 14.89 7.906 21.396 13.27 20.221 19.67 23.175 49.573 24.734 75.968 24.23-.134 48.657-1.08 72.559-5.387 16.552-2.736 33.568-6.232 47.964-15.401 21.516-13.093 32.591-37.377 38.616-60.791 6.7-26.717 7.38-54.793 4.41-82.08-9.55-80.823-54.199-156.67-120.549-203.841 14.95-5.966 30.007-12.286 44.366-19.677 7.603-3.707 15.15-7.55 22.479-11.756 7.454-5.077 16.522-4.367 25.155-4.067 13.888 78.368 35.991 157.12 79.428 224.672 21.475 33.203 48.734 62.206 79.548 86.806 30.16 23.826 62.601 45.478 97.024 62.522 7.46-33.104 28.392-70.175 52.584-90.135 9.944-8.624 21.345-15.586 33.625-20.35 2.801-1.112 5.572-2.284 8.449-3.145 6.122-.691 10.405-6.614 7.346-12.169-41.781-11.248-84.922-21.842-125.178-38.676-39.235-14.675-76.877-33.983-109.826-60.025 8.138-3.18 18.95-3.613 26.685-5.619 32.155-6.074 63.978-13.557 95.593-21.963 15.56-4.41 31.165-8.727 46.457-13.989 12.673-6.224 34.248 7.49 43.265-11.617-41.194-31.481-83.181-62.017-124.5-93.312-16.92 22.375-35.126 43.933-54.87 63.87-19.477 20.127-39.79 40.14-61.13 58.13-35.053-34.444-63.41-77.675-77.5-125h129c11.472-.017 27.117 1.012 33-14.5-29.731-25.095-60.7-48.968-92-72l1.625-.5c40.066.76 80.385-.926 120.375.5-6.878 20.826-12.249 42.577-19.257 63.453-1.397 5.473-3.835 10.672-5.057 16.182-.567 3.596 2.474 7.56 6.817 8.37 11.59-2.527 24.323-8.826 34.644-12.153 20.898-8.25 41.621-16.877 62.135-26.023 14.833-6.702 29.493-13.745 44.052-21.004 12.669-7.777 32.652-2.22 45.666-15.825-37.053-33.22-71.451-69.284-108.5-102.5-17.765 16.873-35.357 33.916-52.475 51.475-3.817 3.008-8.103 9.636-12.401 10.218-187.162.875-374.44-.159-561.624.307-1.967-10.477-7.462-21.971-10.644-31.134-1.9-5.14-4.5-10.001-6.626-15.041-2.216-7.135-8.593-5.551-13.73-4.825 1.59 20.642-5.654 40.975-20.251 55.72-11.986 12.488-25.375 24.346-41.944 30.354-28.75 10.268-54.546 36.98-51.749 69.239.484 23.464 14.791 46.716 36.994 55.487 16.74 6.85 35.956 8.72 53.318 2.558 24.55-8.938 43.69-30.147 53.002-54.292 9.37-25.662 11.992-54.056 7.63-81.066 135.903.76 272.209-.926 408 .5-9.726 12.175-19.74 24.143-29.447 36.326a814 814 0 0 1-13 16c-2.065 2.498-3.894 5.317-6.654 7.113-6.049 2.131-14.766.344-21.096 1.061H1231c1.794 8.789 5.38 17.184 7 26 37.903.76 76.209-.926 114 .5-35.69 22.877-74.798 40.325-113.69 56.96-39.803 15.704-80.573 30.005-122.31 39.54.965 4.003 3.605 9.22 5.5 12 99.093-9.914 198.97-25.22 294.5-53.5-49.08 37.814-103.399 68.717-159.306 95.184-28.767 14.288-58.623 26.327-88.573 37.866-15.305 6.344-31.143 11.134-46.692 16.778-14.566 6.037-33.431 8.91-46.429 15.172 1.385 4.296 3.253 10.468 5.5 13.5 67.568-10.551 135.123-22.958 200.901-42.107 64.058-18.369 127.892-39.077 188.099-67.893 1.312 2.008 1.289 4.504 2.5 6.5-13.837 13.521-29.969 24.496-45.276 36.208-54.191 39.727-112.906 72.821-173.09 102.469-61.405 29.934-125.6 54.324-190.634 74.823zM1347.5 1182c15.453-10.084 25.168-26.535 31.954-43.21 12.217-28.282 12.824-59.585 12.546-89.76V952h35c-.112 29.99 1.172 59.972 4.252 89.799 2.233 20.493 5.744 40.868 10.906 60.82 3.636 14.118 9.765 30.64 17.87 41.403 6.068 8.33 18.287 15.581 29.703 6.374 11.968-11.238 16.192-28.47 27.099-40.582 11.166-13.176 28.763-16.933 43.295-24.999 11.887-6.924 21.95-17.052 28.154-29.402 9.99-18.331 10.03-42.39 26.696-56.888 15.056-13.911 31.047-27.954 39.81-47.07 7.169-14.302 10.017-33.87 8.582-48.395-3.334-24.25-13.042-47.185-23.805-68.932-10.085-20.892-22.663-40.55-37.994-57.976-9.878-10.451-20.132-21.152-33.507-27.122-10.81-5.855-23.125-6.565-35.112-6.03-35.648.782-72.402-1.227-107.054 8.906-12.382 3.968-24.155 10.183-34.007 18.683-7.703 6.65-15.04 13.722-21.924 21.221-2.18 2.543-4.795 6.57-8.687 6.962-29.29 1.41-58.71.06-87.985 1.584-41.727 3.151-85.021 14.069-117.186 42.559-15.41 13.406-28.634 30.146-36.07 49.346-3.914 10.098-7.08 20.516-8.497 31.299-2.435 10.278.626 22.378-6.885 30.64-8.322 10.95-14.672 24.042-14.681 38.1.148 52.722 2.997 105.602 6.084 158.265.154 27.005 2.596 54.284-.707 81.19-3.863 24.967-10.865 49.277-16.74 73.81-9.125 37.772-15.416 80.48 2.614 116.893 7.181 14.77 18.493 27.61 32.426 36.254 26.991 16.947 69.781 14.779 91.628-4.911 20.98-19.511 26.633-51.607 18.527-78.498-2.58-10.085-10.989-24.503-24.812-17.427-9.113 6.372-12.22 18.544-20.887 25.456-7.301 7.02-21.753 7.104-29.222 2.18-18.108-11.197-15.84-38.889-11.67-56.118 9.1-32.748 31.805-59.098 52.507-85.022 8.096-9.842 16.197-19.663 23.545-30.08 3.23-4.475 6.73-8.76 9.743-13.375 2.798-4.43-.33-9.361-.85-14.226-3.83-20.092 3.842-39.981 15.734-55.824 15.615-20.534 46.572-45.181 76.705-29.036 13.161 7.005 20.96 20.829 25.938 34.306 5.423 14.544 8.047 30.404 6.964 45.863m-93.338-5.994c-.129 17.34 15.323 33.114 32.96 30.81 16.49-1.117 28.54-17.146 27.631-32.994a95 95 0 0 0-4.236-24.969c-2.16-7.485-5.26-16.374-13.032-19.747-11.107-3.543-23.923 9.61-29.507 15.925-7.473 8.558-13.597 19.156-13.816 30.975m13.27-148.965c-.093 17.321 15.608 32.481 33.114 29.615 15.31-1.85 27.325-17.924 24.756-33.034-1.96-15.115-17.393-27.527-32.727-25.003-13.807 1.793-24.366 14.91-25.144 28.422M1508.5 1352c32.31 7.602 66.51 8.403 99.692 8 15.593-.05 31.173-.604 46.756-.825 7.194-.093 14.401-.415 21.582-.795 6.211.065 15.591-1.638 19.914 1.764 15.757 16.889 26.871 42.47 35.819 61.305 8.803 19.313 16.628 39.15 21.79 59.765 4.75 18.72 8.65 37.656 14.232 56.157 4.958 14.273 10.408 35.184 27.249 34.336 13.836-1.588 27.779-11.248 37.627-18.638 8.747-7.707 19.368-17.484 22.773-28.095 3.349-10.648-.32-23.857-2.289-33.406-4.682-18.66-14.553-35.448-21.346-53.305-10.01-27.087-21.537-54.957-21.299-84.425-.511-29.773 4.257-59.428 12.204-88.06 3.638-13.804 8.423-27.26 13.345-40.642 4.24-10.49 11.342-21.458 9.48-35.097-.191-44.824-12.601-89.513-34.632-128.385-21.216-35.984-51.402-67.174-86.885-89.324-9.469-6.644-20.106-11.498-30.012-17.33-6.922 15.353-14.615 30.824-26.888 42.862-9.934 10.933-23.055 22.768-30.643 34.086-7.32 11.409-8.892 25.36-14.903 37.343-9.665 21.365-27.595 37.347-47.734 48.52-14.979 7.662-32.453 13.59-41.982 28.646-13.21 19.016-24.865 48.392-58.238 44.3-30.121-1.538-48.185-24.122-56.112-48.757h-2c-3.923 16.544-15.476 33.836-24.52 46.152-10.675 12.735-27.3 26.335-42.48 29.848 13.508 28.078 29.888 54.91 43.925 82.769 1.802 2.55 3.042 5.724 4.577 8.953-15.637 54.01-33.896 107.63-49.786 161.646-6.306 20.152-12.869 40.256-18.23 60.673-4.565 17.338-7.882 38.576-5.498 54.981 1.123 7.644 4.693 16.535 10.025 21.404 12.657 11.906 28.187 9.307 43.901 9.566 12.827-.206 27.442-2.16 36.671-12.105 7.708-7.933 11.621-20.807 14.496-30.19 9.948-39.094 18.45-78.61 32.974-116.367 14.018-36.257 28.013-73.076 46.445-107.33M1354 2409.37c20.116 2.029 44.836 2.749 63.476 4.256 10.97.579 21.957.294 32.925.372 12.136 1.199 18.98-6.978 20.954-17.321 2.579-10.857 6.27-24.361 5.145-34.677-39.56 18.554-81.501 32.549-122.5 47.37m15-482.37h257v-77h-257z" style="fill:#676767;fill-rule:evenodd;stroke:none"/></svg>