<svg xmlns="http://www.w3.org/2000/svg" width="3000" height="3000"><path d="M326 2802.5v1.5h2348v-1.5c-71.174-422.777-140.85-845.86-211.705-1268.696-52.82-317.004-105.676-633.986-158.481-950.985-5-29.834-9.96-59.693-14.923-89.522-1.275-7.33-2.41-14.678-3.702-21.998-.77-3.883-1.06-7.884-2.155-11.689-.906-3.78-5.95-4.668-9.136-5.802-113.335-37.833-226.738-75.562-340.072-113.365-99.18-33.038-198.36-66.117-297.529-99.183-43.49-14.438-86.954-29.023-130.428-43.466-8.915-3.232-20.826 4.03-31.003 6.406L994.299 364.395l-180 60c-26.322 8.807-52.689 17.54-79.002 26.345-5.556 2.457-13.28 3.515-17.776 6.928-65.942 387.727-129.132 776.15-194.473 1164.027C457.106 2014.995 392.233 2409.552 326 2802.5" style="fill:#ffe;fill-rule:evenodd;stroke:none"/></svg>