<svg xmlns="http://www.w3.org/2000/svg" width="3000" height="3000"><path d="M449 2666.5v1.5h2102v-1.5c-63.81-378.768-126.215-757.87-189.705-1136.696-47.349-283.998-94.654-568.016-142-852-4.398-26.67-8.911-53.338-13.325-80.003-1.118-6.656-2.232-13.342-3.35-19.985-.571-3.586-1.119-7.183-2.096-10.662-1.288-2.958-6.82-3.128-9.193-4.54-101.51-33.828-203.017-67.663-304.512-101.514a746151 746151 0 0 1-266.522-88.84c-39.072-12.89-78.06-26.135-117.144-38.98-4.713-1.335-9.273 1.032-13.839 2.453-144.507 48.104-288.95 96.378-433.449 144.467-54.18 18.08-108.385 36.116-162.566 54.195-23.808 7.923-47.625 15.882-71.434 23.805-5.676 1.96-11.407 3.738-17.06 5.726-6.564 1.113-6.72 8.744-7.34 13.268C740.08 921.349 682.77 1265.54 625.383 1609.692 566.339 1961.663 508.308 2314.864 449 2666.5m608-717.875c1.637 4.657 5.74 5.148 9.386 3.997 19.925-7.965 40.02-15.573 59.367-24.885 9.647-4.395 19.092-9.242 28.782-13.519 9.335-3.63 19.048-12.185 28.465-13.218v164c26.181.102 53.055 1.34 78.39-6.839 11.811-3.483 23.371-8.376 33.93-14.729 5.235-3.102 10.098-6.77 14.053-11.415 4.031-4.54 2.092-12.51 2.627-18.017h67v2.5c-39.203 37.591-84.916 67.607-131.16 95.602-49.03 27.386-100.049 52.314-153.84 68.898.08 3.496 2.33 6.973 3 10 111.703-16.96 221.902-46.242 326-90-.416 4.198-5.29 7.21-7.74 10.224-48.013 43.882-102.161 80.546-157.507 114.376-27.898 15.65-55.512 31.902-84.575 45.325-14.941 7.745-30.456 14.304-45.9 20.953-14.047 7.281-32.763 11.328-45.278 18.622 2.293 2.735 2.234 6.725 4.5 9.5 66.062-12.576 131.726-27.873 195.677-48.88 32.082-10.056 63.803-21.546 94.962-34.174 15.012-5.927 29.869-12.229 44.58-18.823 7.184-3.309 14.419-6.477 21.587-9.807 7.483-2.82 15.431-8.897 22.694-10.316-.384 4.915-5.692 8.718-8.602 12.102-53.186 54.832-114.665 101.122-180.529 139.649-67.489 40.012-139.788 72.372-214.869 95.249.133 3.767 2.723 7.606 3 11 74.358-8.816 147.643-26.417 219.168-48.211 34.655-10.765 68.873-22.993 102.547-36.486 16.423-6.642 32.762-13.53 48.796-21.061 8.372-3.756 16.71-7.632 24.823-11.917 8.411-3.114 17.36-10.25 25.666-11.325-.12 17.15-3.245 34.18-7.208 50.79-1.661 5.905-3.961 12.919-6.85 17.772-6.867 9.294-22.048 7.221-31.776 7.438-34.794.223-69.439-3.862-104.166-5v7c13.475 2.686 26.123 8.698 38.365 14.695 17.774 8.056 31.98 22.709 38.714 41.043 8.297 19.316 10.337 40.491 9.921 61.262 27.532-.256 55.28-1.372 82.48-5.937 19.299-2.664 38.615-7.775 54.972-18.738 24.154-16.746 35.22-45.77 42.908-72.783 7.909-29.541 8.91-60.097 7.434-90.39-5.845-79.056-37.983-155.681-90.49-215.024-10.207-10.922-20.973-21.358-32.054-31.347-2.569-2.229-5.264-4.345-7.806-6.596-2.161-1.704-6.418-5.192-3.956-7.476 22.433-14.072 45.515-27.631 66.062-44.552 4.786-3.484 9.143-7.488 13.653-11.291 1.928-1.543 5.123-4.22 7.238-3.09 16.467 88.406 32.556 181.3 79.064 260.516 42.04 77.13 109.82 137.335 185.828 179.708 3.888-5.211 4.746-14.61 8.602-21.313 17.306-46.569 57.179-85.689 107.065-94.687.328-3.013.825-5.98 1-9-49.285-14.098-97.96-31.697-144.332-53.675-44.98-20.901-86.132-50.38-122.668-83.325.174-4.958 8.397-4.682 11.65-5.93 34.464-8.27 68.66-17.526 102.683-27.436 17.04-4.744 33.776-10.406 50.514-16.095 8.055-3.774 16.4-6.394 25.333-4.632 7.978.168 19.285.582 23.82-9.907-21.632-12.832-41.775-29.122-62.939-42.896-10.514-7.15-20.839-14.563-31.368-21.685-5.25-3.827-10.696-7.362-15.98-11.123-4.379-3.79-12.514-6.621-12.713-12.296 16.138-3.013 31.552-9.908 46.544-16.343 3.318-1.797 7.37-3.988 9.465-6.832 1.95-6.44.362-13.854.991-20.521V1893c11.427-2.042 26.07-8.23 32-17.5-19.147-14.715-39.138-28.404-58.379-43.005-9.987-6.845-19.482-14.342-29.333-21.356-9.781-5.774-19.46-15.846-28.976-20.139-13.616 15.205-27.536 30.15-41.682 44.87-5.677 4.91-10.432 14.106-17.521 14.09-60.712.114-121.407-.02-182.109.04v-3c30.905-8.482 59.629-23.76 88.896-36.454 15.138-7.798 30.56-15.013 45.615-22.954 12.112-8.897 32.003-3.624 45.489-16.092-16.925-16.296-35.926-30.322-53.309-46.093-8.897-7.426-17.51-15.21-26.462-22.558-9.047-6.427-17.864-16.878-26.729-21.849-10.221 9.727-19.843 20.004-29.37 30.37l-15.363 15.363c-4.032 5.438-11.724 9.818-13.767 15.267h-114v-2.5c14.131-14.3 28.844-28.106 41.784-43.489 3.439-4.823 7.272-7.44 12.814-7.103 13.89-1.137 33.081-4.932 38.402-17.244-3.263-2.628-9.52-2.193-14.11-3.785-38.336-7.251-76.61-14.837-114.889-22.38-9.826-1.785-19.643-3.585-29.409-5.661-3.832-.783-7.664-1.53-11.488-2.334-2.897-.228-6.7-1.85-8.984-.45-10.5 17.532-18.431 36.9-29.845 54.021-29.558 48.864-63.788 94.751-101.09 137.95-38.61 43.374-80.281 84.503-127.185 118.975zM1066 805h122v141c-9.395-1.218-17.627-7.138-26.59-9.885-26.19-10.878-52.167-22.45-78.41-33.115v678c14.868.267 29.876.659 44.441-2.876 11.365-3.038 22.631-6.835 33.038-12.41 8.214-5.249 20.398-12.12 21.4-21.352.333-10.29-.05-20.579.121-30.86.131-4.532-.178-9.12.139-13.642-.037-4.898 4.492-5.308 8.052-4.86H1379v70c16.154.307 32.6.833 48.293-3.84 10.928-2.506 21.523-6.213 31.887-10.427 7.14-3.108 14.452-6.02 20.807-10.6 6.558-4.487 4.942-11.715 5.013-18.62V1292h3c.474 7.217 4.317 13.812 5 21h136v274c33.993 1.11 68.758-2.752 99.607-18.305 5.82-3.569 15.35-6.793 15.354-15.592.11-27.156-.02-54.327.039-81.472V1313h185.4c6.825.188 15.28-2.104 19.712-6.808 5.565-5.77.147-10.783-4.087-14.667-29.749-28.974-60.139-57.247-90.525-85.525-14.401 19.77-27.149 40.781-41.334 60.726-3.478 5.06-7.116 10.008-10.44 15.174-2.786 5.595-5.884 7.655-11.252 7.1H1744v-132c11.437-1.16 26.089-4.499 29-20.375-4.233-2.887-12.084-.979-17.766-2.512-42.05-3.939-84.151-7.559-126.234-11.113v166h-144v-69c.488-20.137-.595-40.386.321-60.495-.053-3.736 6.119-5.23 8.392-6.926 52.578-27.597 100.414-65.666 133.562-115.48 17.252-24.08 30.27-51.115 39.284-79.276 9.2-27.948 18.455-61.763 20.441-88.823h43v114.6c.368 27.988-1.453 56.257 3.256 83.978 1.664 9.455 5.178 19.119 12.014 26.123 12.406 11.774 30.496 14.57 46.895 15.452 27.202.72 54.533 1.372 81.617-1.74 23.09-2.15 52.566-11.076 64.934-30.064 7.458-11.536 9.255-28.33 6.233-40.541-2.907-13.113-14.028-22.793-25.949-27.808.088-25.027-2.814-49.992-3-75h-8c-6.039 19.466-14.752 38.006-22.903 56.632-3.094 6.063-6.304 13.774-10.82 18.25-5.905 5.387-12.447 5.395-19.418 5.118-5.582-.552-14.023 1.447-17.453-2.927-4.299-10.153-1.313-22.03-2.406-32.65V877c10.69-1.844 21.728-4.748 29-13.5-28.54-22.966-56.666-46.471-85-69.693-1.682-1.576-4-2.936-5.623-4.24-3.867-.518-7.03 5.785-9.851 7.408-10.358 10.844-20.357 21.932-30.662 32.815-4.63 5.022-10.825 13.625-16.929 14.122-8.313.244-16.62-.038-24.935.088 2.101-33.67 6.212-67.223 7-101 11.671-.63 28.71-6.794 30-22-49.313-3.98-98.662-8.35-148-12 .047 45.015-.325 90.034-2 135h-96c2.506 7.383 5.394 17.793 7.921 23.716 3.685 2.365 9.748.625 13.799 1.284H1576c-2.167 47.747-9.955 95.552-24.21 141.159-7.516 21.508-16.02 42.923-27.22 62.801-9.59 19.885-24.47 36.983-36.57 55.04h-3V986c12.387-1.454 24.06-6.735 33-15.5-33.211-24.662-65.05-52.265-98.5-76.5-7.365 7.926-15.888 17.353-22.69 24.58-3.786 4.175-8.109 7.82-11.646 12.22-3.231 3.636-7.93 9.58-12.164 10.2V805h123.6c10.668-.049 24.768.544 30.4-13.5-30.767-27.848-62.835-54.725-95.483-80.483-3.055-1.568-6.365-6.401-9.354-6.52-5.573 3.646-9.784 12.164-14.322 17.076-8.487 11.278-17.232 22.348-25.71 33.624-3.773 4.922-7.327 10.026-11.316 14.778-3.695 4.474-6.597 10.926-12.602 10.979-99.407.131-198.807-.024-298.213.046.735 7.993 5.812 16.56 6 24m116 407h3c14.233-40.862 21.042-84.014 22.345-127.26.796-23.388.81-46.781 1.16-70.17l.415-35.295c-.294-2.504.413-6.499-1.75-7.642-4.154-.79-8.46-.684-12.685-.633-4.211.085-8.516-.348-12.485 1zm0 102h197v-102c-13.805-.006-27.631.008-41.435-.004-11.423.071-25.994-2.081-34.016-9.594-7.355-7.943-9.03-19.402-10.166-29.693-1.093-45.47.199-91.02-.383-136.505V984.61c.085-3.719.05-7.45-.414-11.117-.813-3.188-6.595-2.079-8.834-2.494-6.15.489-16.321-2.145-16.67 5.233-.24 49.76-.189 100.355-12.978 148.884-6.387 22.448-13.856 44.869-25.61 65.16-10.775 19.666-26.012 36.252-41.994 51.723-1.265-.94-3.075-1.045-4.5-1zm0 157h197v-133h-173.4c-7.776.913-17.317-1.247-23.6 1zm85-524h26V805h-26zm20 890c11.022 2.203 21.037 8.002 31.797 11.097 10.144 3.27 21.157 1.17 31.603 1.903h100.476c4.776-.685 12.088 1.401 15.04-2.267 9.856-12.146 17.43-26.025 25.451-39.376 3.96-6.734 7.782-13.497 11.278-20.481 3.332-6.79 9.048-14.691 9.355-21.876-44.808.022-89.628-.027-134.435.015-6.008-.234-9.437 3.337-13.185 6.98-13.037 11.057-25.759 22.475-39.435 32.761-6.665 5.205-13.324 10.429-20.167 15.38-3.435 2.582-6.882 5.164-10.31 7.75-3.1 2.273-7.458 4.532-7.468 8.114m25 152h125v-114h-125zm67-849V971c-9.13 1.071-19.105-1.405-28 1v97.223c.003 16.323-.004 32.64.002 48.962.463 7.113-.459 16.886 4.591 21.25 7.722 1.112 15.636.207 23.407.565m183 849h133v-114h-133zm198 55c-21.251 5.539-43.21 5.794-65 5v-35h-117c.403 10.535 5.572 20.263 8.264 30.273 11.218 32.387 26.068 63.503 45.513 91.771 4.965 6.942 9.658 14.112 15.072 20.726 3.95 4.741 8.23 10.792 12.566 14.437 1.919 1.15 4.525-2.211 5.977-3.105 11.482-12.022 21.655-25.223 32.287-37.977 11.48-13.687 22.273-27.865 33.189-41.984 5.563-7.137 10.823-14.5 16.12-21.815 3.833-6.978 12.16-15.594 13.012-22.326" style="fill:#feddaa;fill-rule:evenodd;stroke:none"/><path d="M1055 1948.563c.732 2.647 4.5 4.398 5 7.437 42.57-13.404 81.863-35.202 122-54v164c26.455.089 53.634 1.531 79.298-6.523a151.7 151.7 0 0 0 34.607-14.772c5.232-3.072 10.12-6.725 14.126-11.3 4.4-4.515 2.513-12.746 2.969-18.405 21.575.752 43.543-.92 65 .5-39.483 37.813-85.527 67.988-132.1 96.123-24.726 13.668-49.69 27.096-75.533 38.577-25.213 12.564-52.625 20.294-78.367 31.3.79 3.565 3.52 7.154 4 10.5 56.521-8.195 112.599-20.096 167.737-34.922 53.8-14.273 107.182-31.845 157.763-55.078-9.578 12.546-26.257 24.158-36.986 33.984-47.782 38.86-99.635 72.355-152.87 103.082-41.35 22.618-83.639 43.875-127.699 60.808-4.072 1.411-7.984 3.282-12.058 4.665-3.1 1.746-10.44 2.7-10.314 6.674 1.279 2.763 2.193 9.693 5.676 9.219 66.205-10.87 131.437-28.076 195.408-48.147 61.822-20.905 123.902-42.914 181.843-73.285-3.983 8.095-14.608 15.163-20.233 22.233-51.656 52.837-113.48 94.553-176.504 132.343-65.844 36.988-134.95 69.589-207.763 90.424.54 4.405 3.68 8.942 4 13 19.159-1.205 38.102-5.218 57.044-8.109 64.267-10.763 127.214-27.935 189.093-48.092 60.426-18.877 118.105-45.24 174.863-72.799-.298 16.972-3.593 33.8-7.554 50.231-1.809 5.861-4.062 12.995-7.437 17.558-7.773 8.047-22.18 5.916-32.01 6.211-34.42.125-68.642-3.965-102.999-5v9c13.475 2.686 26.123 8.698 38.365 14.695 17.774 8.056 31.98 22.709 38.714 41.043 8.297 19.316 10.337 40.491 9.921 61.262 27.872-.215 55.917-1.129 83.465-5.77 19.612-2.73 39.354-7.713 55.987-18.905 24.3-16.871 35.372-46.137 43.051-73.333 7.927-30.167 8.845-61.358 7.253-92.264-7.496-99.582-57.253-195.263-135.756-257.228 30.382-17.511 59.544-37.429 86-60.5 2.224 1.84 1.976 5.498 2.5 7.888 14.274 88.688 34.131 179.017 79.43 257.746 42.874 75.34 109.988 135.896 186.07 176.366 8.134-27.426 21-54.191 40.735-75.235 19.648-21.12 45.604-36.705 74.265-41.765.446-3.659.98-7.317 1-11-49.285-14.098-97.96-31.697-144.332-53.675-44.815-21.433-86.548-49.85-122.668-83.825.458-.45.911-.96 1.25-1.5 37.342-6.959 73.707-18.66 110.307-28.594 17.991-4.898 35.649-10.86 53.29-16.867 4.297-1.484 8.46-3.417 12.879-4.506 12.073-1.747 27.319 5.075 37.274-10.033-20.058-15.31-41.868-28.78-62.286-43.704-10.423-7.296-20.92-14.506-31.383-21.722a443 443 0 0 0-15.85-10.972c-4.133-4.456-12.416-6.677-14.481-11.602 16.138-3.013 31.552-9.908 46.544-16.343 3.318-1.797 7.37-3.988 9.465-6.832 1.95-6.44.362-13.854.991-20.521V1894c12.004-1.965 26.866-8.833 33-18.5-39.174-29.053-78.548-58.651-118.5-86.5-14.004 14.611-27.291 29.841-41.37 44.37-2.711 2.758-5.538 5.403-8.062 8.326-2.393 2.376-4.795 6.832-8.079 6.907-60.436 1.131-121.026-.205-181.489.397l-1.5-.5c30.893-10.025 60.458-23.72 89.822-37.425 15.366-8.084 31.305-15.114 46.458-23.571 13.935-9.17 37.097-2.113 44.72-17.504-37.216-28.307-71.148-62.687-108.5-91a653 653 0 0 0-29.895 30.895l-15.338 15.338-7.87 7.87c-2.156 2.333-5.747 5.26-6.397 7.897-37.246-.76-74.876.926-112-.5 14.351-14.582 29.4-28.564 42.49-44.306 3.275-5.006 7.463-6.744 13.192-6.353 14.976-1.882 34.182-4.941 38.318-19.841-51.139-10.402-102.52-19.75-153.693-30.036-9.308-.78-20.37-5.734-28.145-3.938-16.41 29.348-31.36 59.98-51.136 87.434-57.013 85.018-126.427 162.556-208.026 224.54zm3-1168.313c2.458 7.773 5.901 19.043 7 25.75h122v139c-17.885-6.281-34.96-14.946-52.641-21.787-8.645-3.854-17.436-7.293-26.101-11.054-8.65-2.65-17.946-9.052-26.258-10.159v680c14.793.16 29.678.637 44.239-2.397a144.2 144.2 0 0 0 34.241-12.372c8.347-5.113 20.338-11.783 22.27-20.686.66-10.267-.076-20.577.25-30.857.045-4.546-.059-9.102.04-13.645.25-1.66.27-4.556 1.604-5.318 64.237-2.068 129.013.376 193.356-.725v70c16.432.205 33.156.928 49.182-3.548 11.133-2.632 21.988-6.226 32.56-10.544 7.291-3.143 14.74-6.135 21.245-10.776 6.558-4.486 4.942-11.714 5.013-18.62v-64.8c.76-54.868-.926-109.89.5-164.712 1.45 7.096 4.484 13.806 5.5 21h136v274c18.084.088 36.367.576 54.195-3.125 12.257-2.404 24.265-6.01 36.024-10.179 8.157-3.554 16.742-6.805 23.57-12.735 4.866-4.806 2.625-14.814 3.211-21.034V1314c62.82-.081 125.631.1 188.438-.054 6.753-.182 15.067-3.623 18.388-9.067 3.83-5.484-1.636-10.28-5.428-13.981-14.858-15.012-30.598-29.086-45.768-43.768-14.815-14.86-30.548-28.737-46.17-42.715-.507-.116-.993-.214-1.46-.415-11.836 20.838-27.236 40.066-39.974 60.46-3.383 5.07-7.114 9.915-10.363 15.076-5.939 11.428-15.568 8.277-25.943 8.464H1745v-130c6.698-.495 14.69-2.581 19.853-6.013 6.565-4.214 7.404-10.542 10.147-16.487-5.82-2.42-12.661-1.127-18.766-2.393-42.743-3.588-85.448-8.158-128.234-11.107v166h-142v-69c1.102-20.008-1.345-40.454.73-60.342 25.497-15.971 53.595-29.542 76.362-49.925 35.468-28.673 64.665-64.997 86.115-105.197 19.86-41.924 33.767-87.334 38.793-133.536h41v115.2c.34 27.958-1.453 56.181 3.341 83.87 1.46 9.273 6.003 19.947 12.298 25.995 12.6 11.527 30.668 14.287 47.094 15.12 27.19.545 54.53 1.513 81.612-1.615 23.469-2.824 50.365-9.016 65.569-28.99 8.264-12.118 9.802-27.174 7.553-41.392-2.201-14.2-13.65-24.963-26.467-30.188.088-25.027-2.814-49.992-3-75h-10c-5.996 19.131-14.433 37.423-22.504 55.729-2.907 5.979-6.16 13.318-10.106 18.042-4.512 5.31-11.59 6.694-18.166 6.229-5.697-.56-13.946 1.397-17.7-2.666-4.39-9.817-1.493-21.413-2.524-31.745V878c11.287-1.722 22.551-5.226 30-14.5-15.89-12.86-31.509-26.058-47.456-38.848-7.942-6.618-15.863-13.26-23.91-19.732-7.885-5.173-15.355-14.347-23.306-17.92-11.722 11.977-22.614 24.73-34.43 36.602-6.074 5.74-10.68 13.05-17.53 18.004-3.24 2.425-9.2.799-13.599 1.394H1692c2.554-32.973 5.857-65.92 7-99 12.832.015 28.668-7.628 31-24-50.355-3.468-100.61-8.96-151-12 .047 45.015-.325 90.034-2 135h-96c.807 6.728 4.69 15.289 6.627 23.092 1.316 4.45 7.09 4.043 10.919 3.908H1575c-2.597 47.25-10.03 94.574-24.397 139.694-13.853 42.666-35.905 82.546-64.103 117.306l-.5-1.687V987c6.54-.894 14.095-3.332 19.555-5.886 4.492-3.084 12.679-7.171 13.445-12.114-33.873-24.05-65.691-52.702-99.5-77-15.563 15.48-29.153 32.779-45 48-1.426-44.495.26-89.415-.5-134h125.4c10.615-.129 26.786-.58 28.6-16-34.349-30.264-70.376-60.436-106.5-89-18.141 23.928-36.29 48.209-54.735 71.968-1.749 2.056-3.43 5.05-5.58 6.38-100.897 1.858-202.21-.337-303.185.652zM1183.5 1211c15.501-40.095 20.717-83.389 22.805-126.067.787-23.13.817-46.28 1.176-69.408l.426-34.465c-.327-2.379.499-6.445-1.035-7.982-3.401-1.912-8.622-.578-12.284-1.078-3.933.044-7.885-.266-11.588 1 .76 79.28-.926 158.8.5 238m-.5 102h195v-100c-13.805-.006-27.631.008-41.435-.004-11.423.071-25.994-2.081-34.016-9.594-7.355-7.943-9.03-19.402-10.166-29.693-1.093-45.47.199-91.02-.383-136.505V985.61c.085-3.719.05-7.45-.414-11.118-.816-3.186-6.586-2.077-8.82-2.493-5.434.396-14.955-2.284-14.743 6.371-.077 49.77-.351 100.344-13.228 148.822-6.365 22.342-13.89 44.659-25.715 64.786-10.885 19.851-26.533 36.347-42.58 52.021a26 26 0 0 1-1.833-2H1183zm0 157h195v-131h-171.6c-7.727.901-17.145-1.235-23.4 1zm85-524h24V806h-24zm20 889.5c16.559 5.312 32.958 14.396 50.842 13.5h107.665c5.154-.11 11.271.261 15.945-.456 6.139-3.698 8.494-11.706 12.827-16.45 3.784-5.552 7.181-11.33 10.628-17.083 4.298-7.587 8.951-14.983 12.967-22.727 3.468-8.288 10.657-16.996 12.126-25.284-44.008.012-88.028-.014-132.035.008-8.837-.189-16.146 10.503-23.996 16.014-21.333 18.643-44.508 35.389-66.969 52.478m25 152.5h123v-112h-123zm65-849V972c-8.598.935-19.024-1.269-26 1v142.648c.729 7.07-.718 16.803 3.517 21.716 2.318 2.448 7.348 1.216 10.913 1.636zm185 849h131v-112h-131zm97.5 183c18.9-19.138 34.842-40.978 52.117-61.521 8-10.683 16.385-21.082 24.342-31.79 4.048-5.28 7.823-10.755 11.69-16.15 1.83-2.85 3.758-5.627 5.63-8.445 1.427-2.556 4.314-5.653 4.221-8.094-20.617 6.763-43.142 4.792-64.5 5v-35h-115c14.027 57.38 42.775 111.5 81.5 156" style="fill:#000;fill-rule:evenodd;stroke:none"/></svg>