<svg xmlns="http://www.w3.org/2000/svg" width="3000" height="3000"><path d="M407 2715h2186c-120.11-729.14-243.257-1457.94-364-2187-121.653-40.09-243.099-81.112-364.7-121.395-91.164-30.407-182.32-60.766-273.474-91.162a32206 32206 0 0 1-51.529-17.183c-8.003-2.659-16.01-5.346-24-8-7.038-2.654-14.998-6.446-23.453-2.372-120.19 40.07-240.392 80.12-360.578 120.183C1011.124 447.878 891.186 488.387 771 528c-120.737 729.033-243.897 1457.913-364 2187m622-1687.5c.86 2.594 4.502 4.139 6.5 6.5 16.071-10.084 32.482-19.874 47.761-31.21 7.938-5.67 15.75-11.45 23.364-17.535 4.014-3.12 7.705-6.637 11.83-9.603 3.608-2.865 7.346-7.392 11.545-7.652.056 3.762 1.926 7.242 2 11h61v120c-47.607.76-95.478-.926-143 .5 2.221 3.671 2.582 9.8 4.57 14.482 1.43 3.539 1.774 10.484 5.96 10.695 34.827.922 69.744-.168 104.59.323H1193v295c-50.277 8.224-100.544 17.597-151 24.5 26.498 46.938 52.444 94.295 78.5 141.5 7.428-3.999 14.618-8.9 19.469-16.066 2.258-2.561 3.56-6.998 6.038-9.644 53.79-29.156 108.903-55.979 161.853-86.725 52.611-29.263 104.467-60.053 154.14-94.065-.87-2.799-1.286-5.667-2-8.5-25.075 4.647-50.093 9.547-75.178 14.118-12.776 2.731-25.724 4.561-38.525 7.108-11.747 1.698-25.361 5.604-36.297 5.774v-273h123c11.242-.004 26.432.142 31.784-11.157 1.635-4.002-3.078-7.579-5.28-10.644-21.13-21.693-43.757-41.843-65.106-63.301-9.544-9.768-20.375-18.123-29.898-27.898-16.684 25.61-34.785 50.892-50.5 77h-4V979h100.8c9.36.285 21.656-2.496 25.63-10.326 1.98-3.442-.28-6.566-3.032-8.776-17.323-17.785-36.976-32.958-55.047-49.915-7.085-5.69-13.477-12.128-20.477-17.891-6.924-4.99-13.186-13.993-20.54-17.092-10.538 14.111-20.348 28.777-30.697 43.017-7.625 10.74-15.151 21.547-22.88 32.212-3.686 5.138-10.522 3.492-15.503 3.771H1146c.49-4.449 6.098-7.925 9.233-11.733 26.104-25.943 52.066-52.155 74.46-81.537 21.432-28.405 44.234-56.856 60.307-88.73 4.675.4 7.57 6.19 10.168 9.367 21.481 29.492 40.49 61.065 55.719 94.231 2.24 5.798 4.578 12.832 11.587 16.358 22.688 15.08 53.85 14.968 75.668-2.133 16.252-12.172 26.568-31.985 23.48-52.609-5.135-29.93-30.29-51.085-55.893-63.856-26.675-14.484-56.333-21.644-85.873-27.33-2.934-.553-5.866-1-8.856-1.028v-3c13.21-.686 26.167-7.324 32-19.5-54.305-17.63-108.389-36.885-163-53.5-13.256 65.24-35.528 128.433-61.241 189.705-12.518 30.591-27.076 60.254-43.012 89.183-15.376 27.65-32.032 54.847-51.747 79.612M1835.5 2423c-22.084 28.846-45.482 57.524-66.5 87h-196v-2c36.696-27.648 72.71-56.75 105.21-89.372 17.795-15.324 32.593-33.705 48.984-50.382 3.855-4.273 7.4-8.798 11.19-13.114 5.968-9.188 15.347-6.663 23.964-9.155 7.52-2.536 14.774-7.635 17.652-15.352-4.431-3.242-12.59-3.015-18.524-5.52-42.161-10.338-84.184-21.41-126.476-31.105v-3h204.6c11.408-.018 22.828.022 34.235-.012 8.353.013 20.403-3.08 24.165-13.675-37.091-32.977-78.458-60.83-117.5-91.313-12.383 14.591-23.909 29.972-36.221 44.627-9.584 10.994-17.94 23.185-27.821 33.882-1.97 1.74-5.698 1.341-8.598 1.491H1567c.082-18.798-.1-37.592.054-56.382-.204-5.87 5.103-5.952 9.065-6.904 5.987-1.826 11.927-4.165 17.008-7.905 4.716-3.98 7.548-9.912 8.873-15.809-56.399-2.688-112.606-9.015-169-12v99h-314c1.472 7.344 4.111 15.911 6.255 22.427 1.333 3.865 8.727 1.934 11.515 2.573h111.857c7.378.11 14.756-.136 22.122.08 6.373.088 8.037 8.59 10.3 13.17 17.54 45.015 33.12 91.529 38.334 139.853 1.355 9.634 1.13 19.383 1.717 29.058.91 7.188 11.212 11.817 17.1 16.974 25.847 19.046 65.07 19.292 88.4-4.24 17.187-16.146 26.333-40.956 23.195-64.311-4.775-35.619-30.454-63.95-58.328-84.194-27.91-20.4-60.58-33.488-93.467-43.39v-3h309c-7.07 57.48-20.49 114.158-34.794 170.207-2.627 10.436-5.762 20.738-9.09 30.963-1.545 4.755-2.544 9.749-4.665 14.304-1.814 4.951-10.18 3.125-14.039 3.526H1044c1.26 7.533 4.74 16.047 6.448 22.806 1.796 3.63 9.049 1.393 11.947 2.194h850.356c9.533-.204 20.942.721 29.476-1.552 3.725-.826 7.277-2.471 9.974-5.214 2.095-2.066 5.887-5.806 3.393-8.467-18.8-17.692-39.91-32.784-59.755-49.25-19.995-15.814-39.398-33.096-60.339-47.517M1072 1168c5.707 33.51 11.63 67.228 12.405 101.337 1.265 27.246.343 54.562-3.095 81.61-2.32 8.943 6.743 16.333 13.25 21.46 12.173 11.185 30.338 15.888 46.098 10.197 24.11-7.215 38.636-31.877 42.167-55.31 4.267-25.119-2.712-50.49-14.044-72.732-18.924-36.458-50.44-64.569-84.018-87.276-3.948-2.908-8.318-.143-12.763.714m24 1053c29.05.302 59.109 1.2 86.646-9.863 11.842-4.906 25.193-12.672 34.072-20.405 5.74-4.78 4.141-14.344 4.282-20.783V2148h295v2c-1.053 1.459-2.63 2.38-4 3.5.864 2.569 2.728 5.354 4.618 6.952 1.727 2.432 6.285-.462 8.467-.653 40.403-13.912 79.826-30.68 116.978-51.85 19.573-11.095 38.51-23.315 56.37-36.995 8.344-8.403 13.293 2.805 18.462 8.441 39.195 44.542 86.391 81.402 136.605 112.605 3.704-5.436 4.447-14.805 8.384-21.593 9.996-24.009 24.108-47.097 44.229-63.992 9.47-8.82 20.732-15.379 32.226-21.095 6.06-2.985 12.456-5.242 18.919-7.131 3.115-.7 6.196-1.499 9.074-2.877 2.51-1.706 1.857-6.892 2.668-9.312-38.861-10.177-76.328-25.696-113.183-41.442-14.058-5.866-27.548-12.976-41.183-19.735-6-3.011-11.814-6.347-17.75-9.461-2.469-1.563-5.579-3.054-7.683-4.71-4.057-2.02-.73-5.908 1.07-7.726 28.96-35.488 52.245-75.04 71.9-116.318 9.497-22.02 19.69-43.912 26.152-67.092 1.976-5.673 3.808-11.379 5.432-17.159 1.448-4.135 1.947-8.917 4.601-12.52 10.603-3.065 26.997-3.117 34.644-16.337-19.146-15.963-38.176-32.07-57.368-47.993-9.753-8.089-19.503-16.164-29.192-24.328-4.878-3.904-9.524-8.095-14.424-11.962-4.718-3.292-10.128-9.57-14.684-11.217-15.883 16.61-32.708 32.319-48.596 48.927-2.75 3.405-5.616 6.704-8.838 9.675-2.812 2.702-5.887 6.66-9.633 7.142-67.656 1.489-135.673-1.058-203.265.756 2.159 3.31 2.631 8.829 4.377 13.123 1.178 3.99 3.182 8.563 3.623 12.377h33c6.116 46.678 16.484 92.908 29.325 138.183 9.393 33.447 22.486 65.673 37.384 96.97 2.467 5.499 6.891 11.341 8.341 16.755 1.14 2.907-2.158 6.214-3.202 8.248-25.75 38.22-56.237 73.496-92.043 102.646-2.202 1.958-4.516 3.777-6.813 5.61-2.053 1.347-4.743 4.075-6.882 4.09-8.662-4.712-16.392-14.582-23.913-19.684-22.72-19.564-46.532-37.82-69.697-56.818-10.522 14.071-21.15 28.128-31.636 42.222a3699 3699 0 0 0-16.13 21.486c-2.744 3.516-5.282 7.17-8.087 10.625-2.875 3.467-8.61 2.558-12.647 2.667v-119h15v26c33.38.9 66.85-4.972 97.778-17.714 6.246-2.98 16.86-5.57 16.222-14.815V1885c13.078-1.763 25.767-7.447 35-17-35.193-26.822-71.623-53.167-107.5-79-9.346 9.411-18.15 19.284-27.568 28.624-4.306 5.107-8.726 10.085-13.665 14.609-4.806 4.424-8.517 11.358-15.267 10.767v-91h122.4c11.155-.268 27.22-.458 30.663-12.133 1.875-3.85-5.753-6.97-7.159-9.477-22.012-19.595-44.727-38.393-67.81-56.715-10.096-8.032-20.523-15.633-30.594-23.675h-1.5c-16.79 24.047-36.549 46.9-54.001 70.668-3.876 6.364-10.22 5.632-16.322 5.332h-73.031c-18.364-.003-36.722.004-55.08-.002-10.827-.015-23.91-7.479-35.953-11.14-35.91-13.121-71.614-27.075-107.613-39.858zm125-378h53v-91h-53zm0 135h186v-96.6c-.334-4.033 1.36-12.654-3.577-13.078-35.569-.919-71.246.168-106.835-.322H1221zm0 145h53v-119h-53zm101-766.375c3.72 2.303 8.662 4.064 12.55 4.781 4.463-1.482 6.477-6.737 10.046-9.717 22.393-26.205 42.301-54.366 60.76-83.435 8.983-14.467 18.325-28.694 26.57-43.619 2.109-3.25 3.735-7.881 8.575-8.718 11.209-1.522 27.477-5.206 32.499-19.917-44.1-10.436-86.867-26.782-131-37-1.378 33.41-5.973 66.662-8.618 99.976-3.996 32.107-6.452 66.15-11.382 97.649m59 94.625c13.37 23.52 24.937 48.218 37.695 72.117 13.414 23.401 24.402 48.28 37.805 71.633 7.468-3.275 12.907-6.667 17.638-12.792 4.297-4.643 5.838-11.845 11.861-14.787 42.112-24.786 84.175-49.651 125.625-75.508 19.553-12.876 39.565-25.064 58.917-38.256 10.078-6.931 20.502-13.377 30.398-20.553 4.864-3.433 9.97-6.53 14.734-10.095 4.695-2.958 9.983-7.99 15.327-8.009 28.175 65.175 72.887 123.536 124.5 172 9.222-28.78 25.2-55.094 46.07-76.874 11.171-9.66 22.753-19.332 36.437-25.315 7.55-3.465 15.235-6.512 23.245-8.75 3.543-1.206 7.25-1.76 10.827-2.766 3.82-.832 4.1-5.564 4.921-8.795-39.319-20.533-78.808-41.31-115-67.252-18.388-12.547-35.809-26.337-52.38-41.176-8.03-8.173-16.365-16.04-24.217-24.378-3.596-4.271-7.416-8.327-10.988-12.605-3.237-4.247-8.826-8.908-9.415-14.089 33.553-9.144 66.139-21.464 98.527-34.05 15.7-6.327 31.245-12.999 46.654-19.963 7.08-3.147 17.1 2.809 25.923 1.997 7.37.313 18.09-.791 22.896-9.484-20.11-15.643-40.772-30.652-61.14-45.97-10.56-7.587-20.781-15.652-31.267-23.334-5.102-3.82-10.213-7.635-15.302-11.462-4.146-4.283-12.46-7.238-13.291-12.734 17.598-1.26 33.851-9.066 49.124-17.185 3.56-2.175 7.73-4.909 10.19-7.884 4.014-4.745 2.156-13.715 2.686-20.387v-305.4c.012-5.35-.175-10.707.49-16.009 1.472-3.03 7.741-1.797 10.181-3.298 9.5-2.496 21.786-6.795 26.329-14.337-40.636-30.375-81.672-60.4-122.5-90.5-9.739 10.807-17.47 23.312-26.81 34.46-7.904 11.86-18.486 22.348-25.69 34.54-50.305-.728-100.764.887-151.018-.48-44.27-16.11-88.502-32.75-132.482-49.52-1.426 247.208.26 494.721-.5 742-32.22 5.449-64.688 10.2-97 15zM1597 914h174V769h-174zm0 174h174V939h-174zm0 327c11.074-.003 21.783-3.519 32.717-4.774 30.179-4.9 60.05-11.79 90.283-16.226-.158-5.981-3.479-11.339-5.114-16.964-31.194-84.724-43.983-174.801-53.886-264.036h-64zm110 511c24.019-56.214 42.763-115.432 52-176h-157c3.89 17.117 10.874 33.617 17.4 49.858 10.426 23.67 21.658 47.357 37.048 68.294 7.12 10.838 15.13 21.051 23.382 31.037 4.326 4.911 8.478 9.947 13.272 14.413 4.792 3.752 8.28 11.679 13.898 12.398m38-644c3.54-.12 5.722-4.105 7.67-6.549 13.902-19.437 27.668-39.004 40.232-59.324 6.67-10.065 12.595-20.619 18.73-31.004 5.26-11.035 14.922-22.639 16.368-33.123-18.925 2.06-37.973 2.426-57 2v-41h-97c13.241 59.974 37.06 117.875 71 169" style="fill:#fedca9;fill-rule:evenodd;stroke:none"/><path d="M1027 1027.625c1.9 4.804 8.91 7.961 12.568 5.307 14.73-8.733 29.134-18.018 43.044-28 16.03-11.032 31.015-23.428 45.888-35.932 1.271 3.275 2.005 8.17 2.5 11h61v118h-143v1.5c1.787 5.323 3.138 10.794 4.77 16.16 1.398 4.071 1.724 9.928 6.306 10.11 13.9.653 27.879-.117 41.777.23H1192v293c-50.364 7.473-100.35 18.496-151 24 22.874 49.272 54.485 94.978 78 144 8.828-1.082 16.248-9.525 21.244-15.092 1.865-3.13 4.675-6.491 6.106-10.551 27.912-14.941 56.5-29.367 84.515-44.266 41.198-22.035 82.308-44.281 122.655-67.883 20.302-12.07 40.713-23.975 60.657-36.623 9.669-5.61 18.828-12.024 28.158-18.159a1535 1535 0 0 0 14.57-9.71c1.856-1.563 5.914-3.56 5.428-5.85.343-3.025-.768-5.953-1.333-8.866-50.186 7.638-99.74 19.9-150 27v-271h84c14.217-.005 28.435.006 42.636-.003 11.06-.131 25.493-.802 30.364-15.528-32.034-35.971-69.516-66.506-103.5-100.469-9.463 12.478-17.46 26.126-26.413 38.964-7.345 13.545-18.208 25.329-25.087 39.036h-2V980h70.2c11.813-.109 23.626.134 35.427-.076 9.314.015 19.695-4.713 23.373-15.424-32.758-32.382-68.52-61.466-102.5-92.5-10.225 14.565-20.71 29.223-30.98 43.803a14773 14773 0 0 1-23.205 32.638c-3.152 5.607-9.875 4.615-14.861 4.559-40.395-.76-81.18.926-121.454-.5 55.148-53.617 106.79-111.912 144.5-179.5 19.766 22.964 34.723 49.76 49.749 75.888 5.727 10.319 10.66 21.093 15.435 31.861 3.219 10.572 13.843 14.698 22.227 18.576 33.83 15.42 78.792-5.442 87.864-41.542 4.378-18.37-1.334-37.62-12.84-52.205-10.434-14.168-25.455-24.27-40.714-32.481-28.949-15.502-61.037-23.6-93.205-29.04-1.021-.074-2.024-.323-3.016-.557 11.77-2.63 29.257-6.597 32-22.5-55.224-16.975-109.752-37.014-165-54-12.698 65.862-35.84 129.42-61.455 191.212-12.569 30.536-27.061 60.21-43.05 89.081-15.984 27.319-31.678 55.763-52.495 79.707zm15 1481.625c2.225 4.988 2.792 10.765 4.777 15.91 1.374 3.416 1.735 10.342 5.768 10.486 13.881 1.006 27.933-.18 41.832.354h820.374c14.842-.948 36.439 4.276 44.249-15.5-19.87-17.5-40.633-33.908-61.39-50.327-20.492-16.528-40.745-33.885-62.11-49.173-12.56 13.704-22.229 29.795-34.368 43.86-10.162 15.219-23.551 28.68-33.132 44.14-64.568-.76-129.55.926-194-.5 37.804-26.787 72.715-57.453 106.03-89.521 17.614-15.782 32.695-34.087 49.234-50.906 3.892-4.453 7.665-8.992 11.468-13.519 5.482-7.776 16.624-4.452 24.339-8.227 8.864-3.217 13.692-8.956 16.929-16.827-48.106-14.029-97.689-23.572-146-37 52.374-1.426 104.99.26 157.4-.5h59.356c15.786-.533 35.836 3.702 44.606-10.264 4.088-6.54-5.886-11.296-9.318-15.024-18.803-15.402-37.975-30.312-57.386-44.929-14.515-10.987-29.083-21.92-43.914-32.473-2.524-1.923-6.256-5.05-8.435-2.571-17.004 18.955-31.68 40.013-48.331 59.297-3.996 5.015-8 9.978-12.001 14.974-3.299 4.904-9.391 4.025-14.113 3.99H1568c.635-18.906-.775-37.95.418-56.806.148-4.19 8.323-3.36 10.682-5.1 5.824-1.982 12.867-4.95 16.909-9.039 3.806-4.474 6.795-10.038 6.991-16.055-57.095-2.358-113.908-9.493-171-12v99h-315c3.247 8.484 4.497 19.695 8.456 26.184 9.978 1.93 20.552-.025 30.671.816h108.938c3.137.253 7.575-.477 9.527 1.797 10.993 21.384 17.618 44.857 25.616 67.449 6.537 21.29 11.944 42.865 15.66 64.829 1.338 9.868 2.833 19.732 3.476 29.663 1.138 8.855-1.314 21.172 5.509 26.143 12.323 10.386 26.553 19.2 42.634 22.11 15.333 2.609 31.656 1.215 45.386-6.443 22.107-11.593 36.909-35.972 38.53-60.713 1.618-19.405-5.26-38.738-14.97-55.155-30.703-48.028-85.27-72.941-137.433-89.18 102.218-1.426 204.724.26 307-.5-7.912 57.588-20.8 114.484-35.427 170.703-2.502 10.546-6.122 20.76-9.244 31.119-1.44 4.71-2.593 9.669-5.221 13.871-4.237 2.545-11.076.503-15.693 1.307H1042zM1071 1167c4.703 32.753 11.624 65.384 12.237 98.649 1.104 25.867 1.184 51.894-2.182 77.619-.566 4.953-1.183 9.9-1.485 14.863 7.442 14.072 25.476 24.584 39.195 27.423 25.785 3.919 51.021-13.566 59.487-37.74 10.152-24.556 8.15-53.048-1.114-77.459-16.482-44.402-52.434-78.132-90.94-103.82-4.822-4.117-10.48-.28-15.198.465m24 1055c29.367.235 59.717 1.373 87.656-9.466 12.021-4.935 25.62-12.664 34.699-20.447 6.309-5.29 4.38-13.976 4.645-20.547V2149c97.568.76 195.55-.926 293 .5-1.667 1.34-3.49 2.466-5 4 1.023 3.845 5.497 6.774 6 10.5 34.139-10.585 67.28-24.489 99.363-40.178 32.129-15.056 61.396-35.478 90.137-55.822 41.516 50.557 93.322 92.063 149 126 9.55-28.772 22.541-56.915 44.1-78.883 10.881-10.344 22.505-20.25 36.292-26.571 6.99-3.598 14.254-6.676 21.8-8.89 3.571-1.077 7.284-1.656 10.638-3.341 2.958-2.102 1.865-8.373 2.67-11.315-32.094-7.99-62.854-20.973-93.612-32.887-15.035-6.51-30.147-12.858-44.751-20.29-7.742-3.98-15.61-7.682-23.288-11.755-6.108-4.972-16.514-6.881-20.349-12.568 30.372-35.43 54.024-75.963 74.186-117.875 9.93-22.44 20.265-44.951 26.982-68.633 2.023-5.84 3.917-11.69 5.587-17.634 1.588-4.256 2.106-10.062 4.98-12.902 11.449-2.115 27.3-3.805 35.265-16.956-39.33-32.103-77.541-66.364-117.5-97.5-16.191 16.282-32.543 32.432-48.694 48.754-5.803 5.542-11.615 14.597-18.407 17.765-68.06 1.372-136.307-.25-204.399.481 1.247 9.664 6.45 18.43 8 28h33c12.253 87.12 34.207 174.58 76 252.5-15.483 21.522-30.26 43.783-48.797 62.913-17.742 20.682-39.175 37.858-59.703 55.587-15.759-13.16-30.696-27.367-47.05-39.844-7.93-6.386-15.66-13.006-23.75-19.18-8.151-5.449-15.03-13.47-23.7-17.976-11.251 13.197-20.868 28.067-31.732 41.632-5.209 7.093-10.621 14.043-15.813 21.142-2.664 3.388-5.102 6.908-7.774 10.284-2.82 4.393-7.282 4.1-11.681 3.942v-117h13v26c34.053 1.045 68.246-4.508 99.778-17.714 6.594-2.9 17.17-5.813 16.222-15.384V1886c13.305-2.232 27.281-7.568 36-18.5-36.057-27.3-73.095-53.781-109.5-80.5-9.498 9.176-18.197 19.103-27.468 28.477-4.412 5.005-8.639 10.168-13.634 14.625-4.549 3.607-9.27 11.595-14.398 11.898v-89h83.4c14.007-.013 28.03.016 42.035-.008 11.024-.125 24.733-1.226 29.565-15.492-34.915-31.441-71.527-61.17-109-89.5-19.3 22.836-36.454 47.695-55.394 70.881-3.64 6.48-9.386 6.847-15.732 6.119h-73.028c-18.344-.01-36.693.012-55.033-.006-10.997-.438-24.442-8.001-36.757-11.763-35.987-13.363-72.154-26.805-108.056-40.231zm127-380h51v-89h-51zm0 135h184v-94.8c-.335-3.946 1.324-12.486-3.544-12.842-34.932-1.02-70.044.185-105-.358H1222zm0 145h51v-117h-51zm113.531-758c25.294-27.584 46.853-58.318 67.457-89.462 9.974-15.276 19.605-30.8 28.647-46.648 2.878-3.254 4.055-9.795 8.255-10.517 13.861-2.604 32.816-6.85 34.11-22.373-44.688-11.225-88.382-26.44-133-38-1.503 36.647-6.287 73.135-9.575 109.646-1.688 18.196-4.1 36.32-5.94 54.49-.804 8.767-2.198 17.47-3.104 26.213.144 3.761-2.285 10.096 1.48 11.532 3.34 1.75 7.81 3.745 11.67 5.119M1730 1416c13.217 33.017 33.038 63.78 53.732 92.632 21.341 29.032 45.649 55.675 71.768 80.368 6.316-13.786 11.025-28.754 19.43-41.633 13.078-23.065 32.026-42.791 54.6-56.566 9.166-5.14 18.795-9.576 28.874-12.635 4.38-1.354 8.765-2.6 13.265-3.45 4.942-.695 6.266-5.558 5.693-9.442.768-3.873-6.79-5.041-8.695-6.949-51.412-25.784-101.15-55.872-145.642-92.493-20.555-18.137-40.367-37.501-57.025-59.332 33.459-10.471 66.922-21.533 99.427-34.886 16.186-6.269 31.97-13.654 47.956-20.324 13.777-.824 35.238 11.378 47.617-7.79-39.844-31.68-81.981-60.536-122-92 18.46-3.147 36.747-9.476 52.556-19.843 2.812-1.977 5.79-3.981 7.64-6.974 3.036-6.56 1.165-14.548 1.804-21.54v-262.8c.152-17.771-.185-35.568.1-53.334-.195-5.155 5.055-5.157 9.073-5.828 10.504-2.535 22.222-6.395 28.827-15.681-40.797-31.697-83.489-61.062-124.5-92.5h-1.5c-15.335 24.27-36.643 45.725-52 70h-132.6c-6.617-.075-14.682.669-20.412-1.795-43.338-16.717-87.467-31.798-130.488-49.205-1.426 247.537.26 495.403-.5 743-32.22 5.449-64.688 10.2-97 15 16.787 35.882 36.47 71.096 54.663 106.406 4.427 9.055 9.032 17.986 13.93 26.781 1.853 3.403 3.275 7.057 5.431 10.273 1.376 3.069 5.964 1.397 8.14.365 5.29-2.491 9.49-6.694 13.313-11.004 2.806-3.007 4.373-6.84 6.51-10.279 3.13-4.059 10.181-6.41 14.958-9.986 5.17-3.083 10.445-5.98 15.546-9.163 37.355-21.942 74.494-44.268 111.061-67.447 17.645-11.435 35.477-22.553 52.783-34.52 9.04-5.98 18.076-11.933 26.899-18.214 4.442-3.14 9.104-5.925 13.44-9.203 4.198-2.41 9.296-7.33 13.326-8.009m-132-503h172V770h-172zm0 174h172V940h-172zm0 327c40.572-4.882 80.512-15.45 121-21-33.803-89.294-49.499-184.343-59-279h-62zm5 337.25c10.444 32.255 23.045 64.575 40.426 93.917 16.142 30.001 38.985 55.223 62.074 79.833 25.51-55.082 41.618-114.433 52.5-174h-155zm72-637c15.152 58.508 36.072 116.97 71.5 166.75 15.67-19.914 29.517-41.3 43.302-62.53 12.885-21.415 27.015-42.62 37.198-65.47-18.853 2.778-38.024 1.787-57 2v-41h-95z" style="fill:#000;fill-rule:evenodd;stroke:none"/></svg>