<svg xmlns="http://www.w3.org/2000/svg" width="3000" height="3000"><path d="M449 2666.5v1.5h2102v-1.5c-63.81-378.768-126.215-757.87-189.705-1136.696-47.349-283.998-94.654-568.016-142-852-4.398-26.67-8.911-53.338-13.325-80.003-1.118-6.656-2.232-13.342-3.35-19.985-.571-3.586-1.119-7.183-2.096-10.662-1.288-2.958-6.82-3.128-9.193-4.54-101.51-33.828-203.017-67.663-304.512-101.514a746151 746151 0 0 1-266.522-88.84c-39.072-12.89-78.06-26.135-117.144-38.98-4.713-1.335-9.273 1.032-13.839 2.453-144.507 48.104-288.95 96.378-433.449 144.467-54.18 18.08-108.385 36.116-162.566 54.195-23.808 7.923-47.625 15.882-71.434 23.805-5.676 1.96-11.407 3.738-17.06 5.726-6.564 1.113-6.72 8.744-7.34 13.268C740.08 921.349 682.77 1265.54 625.383 1609.692 566.339 1961.663 508.308 2314.864 449 2666.5m604-576.5c10.73-1.824 20.316-8.265 30.71-11.288 33.793-13.61 66.015-30.623 98.528-46.882 15.444-8.543 30.958-16.94 46.218-25.818 7.558-4.553 15.122-9.127 22.52-13.913 3.888-2.377 7.742-4.794 11.614-7.173 3.582-2.037 7.592-5.368 11.41-5.926 1.565 7.485 5.538 15.91 6 23h137v135c-97.929.76-196.151-.926-294 .5 3.344 6.995 3.444 15.301 6.953 22.245 6.701 2.525 13.365.403 20.416 1.255H1417v301h-341c.422 8.356 5.769 17.308 6 25h804.6c16.096-.453 37.177 1.745 44.4-13.5-41.593-39.276-89.779-70.812-133.5-107.5-13.9 17.237-26.946 35.169-40.583 52.608-10.15 13.346-20.478 26.568-30.766 39.792-4.175 5.505-13.595 2.89-19.534 3.6H1556v-301h292.2c9.036-.075 18.512.935 27.048-2.764 3.399-1.381 6.16-3.872 8.273-6.798 2.057-3.816-1.006-6.194-3.608-8.078-18.903-16.601-38.63-32.207-58.203-47.997-19.6-14.702-37.79-31.898-58.21-45.363-21.627 28.948-44.62 57.68-65.5 87h-142v-135h85.8c14.408-.059 28.83.072 43.23-.04 11.378-.778 27.016 1.4 33.97-13.46-35.838-31.39-73.921-60.273-111.5-89.5-16.57 21.982-34.371 43.056-51.14 64.895-3.246 3.736-6.356 8.927-10.002 11.708-5.234 2.882-11.086.377-16.756 1.397H1278v-3c26.153-15.379 50.568-34.603 74.86-52.868 37.507-28.264 72.003-60.234 105.497-93.01 15.584-17.755 32.854-33.997 47.089-52.949 7.651-8.863 14.35-18.395 21.286-27.805 3.51-4.663 6.755-9.494 10.001-14.325 3.85-4.032 5.934-12.262 11.267-13.043 23.267 73.96 64.884 141.038 118.394 196.894 52.867 54.934 116.551 97.985 182.106 136.106 5.904-30.03 18.276-58.967 36.505-83.665 18.039-24.716 42.85-45.574 72.995-53.335-.088-4.202.06-8.399 1-12.5-3.322-2.159-9.024-2.248-13.44-3.691-72.883-15.69-144.89-36.23-213.746-64.955-33.133-14.272-64.97-31.569-94.834-51.803-15.235-10.104-28.805-22.286-42.545-34.22-6.69-5.888-13.258-13.963-18.895-19.814-3.019-3.364-5.879-6.87-8.775-10.34-2.529-3.186-6.421-6.741-6.765-10.677 9.839-.589 19.694-2.57 29.232-4.948 8.418-2.36 17.487-6.636 20.768-15.427-8.47-5.044-17.398-4.043-25.737-7.686-58.129-15.155-116.183-30.647-174.263-45.939-12.018 47.62-35.435 91.395-60.726 133.075-38.416 62.217-85.199 119.016-134.892 172.44-49.754 53.213-104.588 101.821-164.382 143.485.335 2.633 2.35 4.523 3 7m-2-737.417c.786 2.233 2.998 3.525 4.344 5.417 36.049-18.622 71.612-39.097 104.46-63.091 17.034-11.974 33.596-24.59 49.826-37.635 7.983-6.556 15.545-13.594 23.56-20.104a137 137 0 0 1 11.658-10.602c3.697-3.331 7.481-8.636 12.152-8.568v369c33.328.037 68.14.327 99.273-13.488 6.945-2.925 13.367-6.966 19.779-10.884 4.696-3.126 9.985-6.074 12.996-11.057 3.581-7.551.974-19.372 1.952-28.916V1494h328v88c40.23 1.226 80.74-5.451 117.778-21.852 8.244-3.614 19.887-6.44 18.222-18.768v-337.583c.034-6.799-.042-13.6.023-20.396.193-2.265.057-5.43 2.43-6 13.977-4.416 28.258-9.873 38.547-20.901-41.404-33.017-84.175-64.392-125.5-97.5-11.444 12.132-23.963 27.183-34.404 38.355-4.739 5.527-10.572 11.793-15.004 16.772-4.62 4.25-9.726 12.882-15.233 13.69-59.976.52-119.963-.094-179.946.183h-90c-14.091-.191-31.216 1.499-43.309-3.922-12.646-4.021-24.878-9.353-37.604-13.078.256-5.816 6.982-11.026 10.36-16.548 28.85-38.15 55.23-78.325 78.098-120.334C1467.016 930.15 1489.06 884.71 1504 837h393c16.376-.579 39.141 2.675 46-13.668-27.238-23.777-56.59-45.032-85.261-67.018-12.597-9.572-25.077-19.248-37.81-28.628-3.012-2.334-5.943-4.75-9.003-7.003-2.782-2.13-6.228-5.8-9.383-2.332-17.87 22.182-35.347 44.718-53.18 66.939-3.86 5.023-7.681 10.084-11.76 14.93-3.85 4.692-7.716 11.783-13.412 11.725-217.409.157-434.789-.028-652.191.055 1.472 7.344 4.111 15.912 6.255 22.427 1.34 3.866 8.743 1.935 11.528 2.573H1337c-18.51 99.669-57.897 194.949-107.488 282.96-48.115 85.2-107.219 164.852-178.512 232.04zm157 848.626c14.168 38.274 22.192 79.033 27.156 119.543 1.746 16.203 2.633 32.625 2.5 48.905-.008 6.907-.974 15.108-.19 21.4 14.223 18.69 41.809 32.801 63.436 31.902 37.137-.762 68.877-34.153 70.566-70.763 1.406-18.703-4.583-37.228-13.155-53.514-8.677-15.828-21.222-29.147-33.937-41.75-14.986-13.705-32.092-24.593-49.926-34.131-18.75-9.872-38.945-16.79-58.526-24.53l-.424-.271c-2.123 1.57-5.177 2.381-7.5 3zM1391 1470h328v-317h-328zm205 952c2.797.821 5.787 3.35 8.5 5 38.167-26.558 74.705-55.816 109.093-87.132 17.268-16.618 34.712-32.938 51.277-50.238 4.2-4.29 8.542-8.424 12.676-12.762 2.816-3.424 5.258-7.367 11.035-6.859 12.723-.289 29.557-4.65 32.419-18.009-57.344-18.674-113.614-41.33-171-60-15.556 77.148-34.034 153.905-54 230" style="fill:#fedda9;fill-rule:evenodd;stroke:none"/><path d="M1048 2082.5c.88 3.355 3.942 7.188 5.5 9.5 38.805-14.996 77.057-31.67 113.926-50.968 35.785-18.913 71.396-38.587 105.074-61.032 2.466 6.476 5.43 15.437 6.5 23h137v133h-294c1.626 7.701 3.976 15.393 6.189 22.935 1.02 4.533 9.204 2.42 12.192 3.065H1416v299h-342c1.626 8.86 6.127 18.764 7 27h808.8c14.138-.306 35.597 1.945 43.2-15.5-43.134-38.478-90.898-71.784-135.5-108.5-14.176 16.92-26.946 35.058-40.597 52.402-10.25 13.284-20.538 26.521-30.78 39.796-4.064 6.468-12.053 4.654-18.108 4.802H1557v-299h297.6c11.336.002 26.637.746 32.4-14.5-39.918-34.987-82.496-66.857-123.5-100.5-21.127 30.166-45.633 58.758-66.5 89h-140v-133h73.8c18.614-.082 37.21.1 55.823-.054 10.763-1.271 27.327 1.587 32.543-12.94 1.299-4.336-5.577-7.428-7.78-10.103-23.697-20.426-48.911-38.989-72.997-58.928-10.137-8.193-20.774-15.776-30.889-23.975-16.97 21.397-33.784 42.927-50.885 64.218-3.158 4.083-6.157 8.337-9.68 12.118-3.714 3.786-10.59 2.359-15.338 2.664H1280.5l-1.5-.5c51.882-32.713 99.564-72.134 145.231-112.886 45.935-42.38 88.342-88.897 122.269-141.614 14.29 36.205 27.294 73.705 49.129 106.422 30.612 49.604 69.445 94.411 114.092 131.833 43.112 36.704 90.92 67.454 139.779 95.745 5.37-30.28 18.21-59.355 36.21-84.283 18.073-24.88 42.992-45.903 73.29-53.717-.774-5.073 2.871-14.783-2.854-15.978-5.617-1.492-11.342-2.514-16.975-3.885-70.901-15.81-141.217-35.468-208.094-64.103-64.908-27.609-126.561-67.101-170.077-123.534 18.824-3.553 45.088-4.05 51-23.5-67.782-16.95-135.116-36.556-203-53-12.018 47.62-35.435 91.395-60.726 133.075-38.416 62.217-85.199 119.016-134.892 172.44-50.35 52.667-104.543 103.16-165.382 143.485zm1-730.167c1.542 2.998 4.235 5.212 6.5 7.667 35.358-19.735 71.522-38.767 104.075-63.16 16.776-12.021 33.436-24.194 49.432-37.252 8.176-6.345 15.548-13.65 23.641-20.084 3.953-3.445 7.453-7.38 11.643-10.554 3.94-2.673 7.74-8.893 11.709-9.95v369c33.772-.031 69.154.7 100.768-13.272 6.997-2.85 13.433-6.866 19.85-10.814 4.709-3.195 10.005-6.083 13.212-10.962 3.842-7.412 1.221-19.236 2.17-28.702V1495h326v88c40.75 1.335 81.776-5.004 119.337-21.656 8.287-3.75 20.312-6.42 18.663-18.964v-338.782c.108-6.792-.136-13.585.082-20.369-.296-5.108 5.143-5.8 9.046-7.118 12.274-3.862 23.958-10.167 32.872-19.611-36.568-29.287-74.229-57.295-111.055-86.256-3.559-2.732-7.062-5.509-10.61-8.243-1.743-1.202-3.447-2.583-5.328-3.505-4.06-.216-6.84 6.378-9.497 8.31-11 12.4-22.199 24.61-33.096 37.104-4.949 5.508-10.068 10.866-14.907 16.464-4.628 7.605-11.769 7.32-19.188 6.626h-260.864c-13.781.026-28.04 1.407-40.916-4.298-12.29-3.885-24.175-9.114-36.539-12.702v-1.5c32.252-39.186 59.246-82.324 84.681-126.105 24.966-46.3 48.62-94.043 64.319-144.395h394.8c16.662.083 40.095 1.852 45.2-16-23.737-17.403-46.188-37.944-70.526-54.894-23.599-18.121-47.658-35.628-70.974-54.106-17.235 22.908-35.713 45.218-53.383 67.85-8.3 9.46-15.026 20.573-23.875 29.47-218.91 1.94-438.243-.353-657.242.68 3.247 8.484 4.497 19.695 8.456 26.183 9.986 1.93 20.574-.024 30.703.817H1336c-9.56 50.214-24.747 99.193-43.15 146.8-13.822 35.028-29.692 69.147-47.027 102.566-25.726 48.781-54.927 95.665-87.306 140.281-32.615 44.632-69.118 86.682-109.517 124.353zM1235 2391.5c16.443 17.053 38.224 32.74 63.102 32.5 24.42.802 47.833-12.554 61.154-32.693 23.502-34.55 13.482-82.015-12.453-112.063-28.376-36.619-69.67-59.927-112.55-75.327-4.517-1.66-8.985-3.442-13.566-4.896-5.312-2.717-9.146-.36-13.687.979 3.755 15.167 10.414 29.7 13.27 45.168 10.8 47.518 19.914 97.643 14.73 146.332m157-922.5h326v-315h-326zm202 952.625c3.718 2.3 8.492 6.895 12.474 5.232 4.677-2.409 9.496-6.634 13.614-9.155 35.497-25.864 69.75-53.631 101.722-83.738 8.74-7.235 16.15-15.96 24.423-23.697 11.512-12.227 24.234-23.317 35.364-35.966 3.093-3.953 7.535-3.182 12.03-3.447 12.21-.604 24.676-6.137 29.373-17.932-4.84-4.604-14.739-5.075-21.534-8.744-50.532-18.328-101.434-35.98-151.966-54.178-17.53 77.1-32.89 156.063-55.5 231.625" style="fill:#000;fill-rule:evenodd;stroke:none"/></svg>