<svg xmlns="http://www.w3.org/2000/svg" width="3000" height="3000"><path d="M407 2715h2186c-120.11-729.14-243.257-1457.94-364-2187-121.653-40.09-243.099-81.112-364.7-121.395-91.164-30.407-182.32-60.766-273.474-91.162a32206 32206 0 0 1-51.529-17.183c-8.003-2.659-16.01-5.346-24-8-7.038-2.654-14.998-6.446-23.453-2.372-120.19 40.07-240.392 80.12-360.578 120.183C1011.124 447.878 891.186 488.387 771 528c-120.737 729.033-243.897 1457.913-364 2187m625.344-1388c32.14-16.028 62.405-36.048 91.7-56.776 14.529-10.658 28.807-21.704 42.525-33.389 6.675-6.045 14.817-12.721 20.678-18.546 3.385-3.026 7.051-5.783 10.123-9.159 3.326-2.938 6.624-7.71 10.63-8.13-.226 63.3-2.38 127.214-15.1 189.41-3.657 14.358-8.496 28.685-16.297 41.373-5.736 9.55-16.694 15.402-27.76 15.194-35.752.909-71.234-4.156-106.843-5.977v10c14.063 2.481 29.367 10.141 40.639 16.454 9.352 6.13 18.7 12.693 26.166 21.121 10.623 13.392 15.022 33.572 17.297 48.65 3.189 18.109 2.772 36.512 3.898 54.775 27.993.247 56.33-2.374 83.212-10.631 18.02-5.717 35.954-14.041 49.52-27.602 20.174-19.526 34.525-50.048 44.255-73.343 11.059-28.262 16.55-58.222 22.093-87.906 9.545-62.034 11.844-125.031 10.09-187.72-3.844-89.6-13.107-181.149-48.822-264.466-8.442-19.813-18.444-39-29.706-57.343-2.299-3.497-4.325-7.152-6.7-10.6-6.37-7.427 2.322-13.03 6.705-18.469 18.714-18.797 35.71-39.164 52.748-59.447a546 546 0 0 0 12.472-15.332c3.079-3.873 5.873-8.007 9.298-11.577 2.523-2.928 7.528-1.859 10.531-1.663 10.38.542 24.588-2.754 27.304-13.901-50.361-26.02-98.759-56.798-149-83-5.595 23.123-15.659 44.992-24.064 67.17-3.346 8.4-7.202 16.602-10.62 24.971-3.181 7.096-6.17 14.318-9.977 21.11-2.01 3.428-6.553-.75-8.333-2.041-19.099-15.763-39.231-30.376-60.275-43.437-10.534-6.57-21.293-12.743-32.158-18.74-5.53-3.01-11.17-5.764-16.562-9.006-2.573-1.52-5.266-2.635-8.106-3.458-2.632-.42-4.97 3.83-6.905 4.931 23.2 23.248 45.455 47.76 64.066 74.923 6.863 9.572 13.229 19.464 19.347 29.504 5.109 9.629 11.16 18.801 15.341 28.908 1.866 4.372-2.036 9.049-3.954 12.717-17.099 30.37-34.368 60.759-53.952 89.604-10.011 14.294-19.802 28.765-30.823 42.319-5.576 6.773-10.747 13.887-16.537 20.485-2.54 3.217-5.96 6.707-8.103 9.782-3.002 2.886 3.559 7.727 4.115 10.258 25.174-14.29 50.406-28.573 74.019-45.398 11.874-8.145 23.662-16.391 34.888-25.406 5.81-4.268 11.387-8.845 17.007-13.338 5.34-3.727 11.922-11.378 17.586-11.858 2.02 9.078 6.26 19.617 5.918 28.313-4.422 34.88-13.675 69.074-23.507 102.743-14.273 48.91-34.313 95.939-57.58 141.182-11.894 21.498-23.758 43.03-37.805 63.222-6.818 10.216-13.857 20.26-21.185 30.113-3.727 4.986-7.458 9.962-11.478 14.717-1.63 2.286-4.055 4.7-5.13 7.053-1.465 2.223 1.45 4.543 3.11 6.657m2.656 787c41.649-13.323 80.87-34.34 120.238-53.17 18.48-10.102 37.39-19.417 55.335-30.498 18.74-9.427 35.743-23.235 54.427-32.332 1.195 8.154 5.147 15.768 6 24h142v141h-305v1.5c1.546 4.798 2.904 9.649 4.28 14.488.879 2.873 1.726 8.739 5.838 8.792 12.317.622 24.693-.109 37.012.22H1413v313c-118.264.76-236.81-.926-355 .5 2.615 7.735 5.843 18.83 7 25.5h826.2c11.373.088 22.774.17 34.113-.79 8.595-.468 18.078-3.894 22.196-11.98.327-3.25-3.646-5.762-6.152-8.245-42.263-37.076-88.038-69.886-131.857-104.985-14.644 17.816-28.06 36.673-42.35 54.77-10.757 13.615-21.132 27.564-31.729 41.298-4.274 5.892-14.124 3.278-20.37 3.932H1558v-313h308.4c11.873-.101 27.217 1.52 34.6-13.5-19.971-18.844-42.118-35.26-63.282-52.697-10.632-8.545-21.312-17.034-31.939-25.57-5.321-4.321-10.784-8.51-16.069-12.87-5.26-3.316-11.44-10.44-16.71-11.363-10.409 16.705-24.483 31.704-35.58 48.116-9.175 12.087-18.56 24.04-27.466 36.317-1.752 2.22-3.391 4.877-6.074 6.097-48.545 1.34-97.302-.244-145.88.47v-141h135c11.831.25 28.518.491 35-13.5-18.173-17.405-38.836-32.005-58.082-48.157-19.876-14.59-38.422-31.821-58.918-45.343-7.045 12.295-18.261 22.492-26.098 34.402-7.928 9.742-15.372 19.871-23.31 29.603-3.576 4.171-6.74 8.642-10.137 12.939-3.66 5.682-9.03 5.502-14.835 5.056H1269v-2c52.05-37.4 105.452-74.162 151.602-119.102 23.988-22.83 47.848-45.766 69.306-71.024 10.866-12.217 20.937-25.14 30.94-38.044 4.923-6.507 9.9-12.977 14.44-19.745 2.175-3.27 4.327-6.572 6.546-9.811 2.251-3.18 4.554-7.885 8.166-8.274 23.699 77.155 68.002 146.767 123.394 204.894 55.347 56.314 120.638 103.14 189.606 141.106 5.338-31.979 19.545-62.34 38.91-88.175 18.637-24.405 43.334-46.6 74.09-53.825.928-4.623 1.123-9.301 1-14-86.586-18.956-173.184-41.686-253.937-78.98-39.36-19.076-77.985-40.387-111.257-69.157-16.772-14.004-31.665-30.005-45.29-47.03-1.547-1.771-3.878-5.373-2.177-6.965 15.696-4.571 42.311-1.85 50.661-22.868-70.01-16.323-138.965-38.03-209-54-12.757 49.917-37 96.192-63.89 139.828-40.213 63.674-87.462 122.779-139.376 177.262-51.829 54.977-108.249 106.238-170.734 148.91 0 2.966 2.302 5.552 3 8m162 115c.752 8.125 5.188 15.467 6.839 23.388 8.735 30.267 15.082 61.198 19.33 92.41a357 357 0 0 1 3.22 73.766c-1.585 10.35 5.463 15.667 12.815 20.86 11.353 9.127 24.305 17.149 38.9 19.666 23.315 4.509 47.013-3.565 63.977-19.735 15.522-14.864 25.606-40.236 24.007-59.87-.291-39.765-26.824-73.024-55.228-97.372-29.682-25.302-65.968-40.752-102.2-53.852-3.972-2.541-8.095-.674-11.66.739m132-1401.75c2.334 4.436 3.038 11.563 5.301 17.127.992 4.322 1.907 9.271 8.12 8.603 14.539.057 29.07-.01 43.596.02H1459c.121 45.61-.148 91.217.08 136.815-.08 6.69 7.829 5.039 12.49 4.99 37.136-.727 75.278-4.46 109.764-19.484 11.591-3.722 8.589-17.082 8.666-26.464V853h95v138c39.434.703 79.552-2.986 116.556-17.629 4.284-1.755 8.573-3.687 12.329-6.405 3.809-2.51 3.117-8.276 3.115-12.233V853h84c14.014-.081 28.05.1 42.048-.057 10.908-.797 26.518.643 31.952-14.486-30.58-34.025-60.865-68.343-93.5-100.457-9.957 15.827-19.579 32.039-29.52 47.91-5.063 8.313-10.097 16.613-15.169 24.906-2.375 3.979-4.911 7.854-7.277 11.832-2.69 4.9-7.538 4.516-12.534 4.352V717c13.101-1.67 33.416-7.247 35-25-55.689-4.233-111.312-9.758-167-14v149h-95v-81.6c.006-6.995-.007-14.006.004-20.997.034-2.298.276-5.67 1.77-6.974 12.989-3.783 30.394-6.833 34.226-25.429-55.704-4.04-111.302-9.965-167-14v149h-130zM1513 1512h267v69c39.757 1.018 79.9-5.794 116.324-22.329 8.104-4.132 19.985-7.697 19.66-17.289.045-32.196-.008-64.364.016-96.554v-302.241c.623-16.652-.763-33.493.418-50.1.976-3.072 6.935-3.037 9.17-4.523 10.655-3.49 20.627-9.373 28.412-17.464-41.036-31.05-81.61-63.18-122.5-94.5-12.04 14.788-26.327 27.595-38.404 42.355-5.604 6.259-11.281 12.43-17.132 18.455-4.84 8.346-15.124 6.04-23.172 6.19h-200.809c-16.023.38-32.4 1.501-47.12-5.644C1463.22 1022.37 1422.87 1003.153 1381 989v396.138c.083 66.08-.101 132.142.054 198.22-.21 5.63 3.477 6.226 7.745 5.617 28.627-.096 57.75-3.337 83.946-15.818 12.084-5.136 24.172-11.154 33.943-20.061 6.605-5.147 6.765-12.062 6.312-19.19zm0-259h69v-184h-69zm0 233h69v-199.2c-.392-2.645.554-7.616-2.35-8.367-22.145-1.235-44.473.225-66.65-.433zm321 797.5c-58.684-22.293-118.78-42.43-178-63.5-16.23 75.87-32.639 151.995-53.12 226.882-.354 3.58-3.68 9.828-1.455 12.367 7.19 8.5 14.071.559 20.575-4.001 48.958-35.578 95.325-74.812 137.983-117.708 12.015-10.303 21.571-23.04 33.002-33.916 5.714-4.845 17.032-1.016 24.684-5.305 6.887-2.641 14.064-7.376 16.331-14.819M1707 1253h73v-184h-73zm0 233h73v-208h-73z" style="fill:#fedda9;fill-rule:evenodd;stroke:none"/><path d="M1026 1321.5c.941 2.706 4.43 4.921 6.5 7.5 63.444-34 122.954-76.032 174-127 1.465 32.234-1.145 64.922-2.603 97.164-1.733 23.275-3.777 46.576-8.021 69.558-2.437 16.803-6.591 33.372-13.362 48.963-4.365 10.75-10.915 21.903-22.507 26.082-9.842 3.378-20.535 1.842-30.725 2.203-29.526-.543-58.802-4.98-88.282-5.97v12c14.063 2.481 29.367 10.141 40.639 16.454 9.352 6.13 18.7 12.693 26.166 21.121 10.623 13.392 15.022 33.572 17.297 48.65 3.189 18.109 2.772 36.512 3.898 54.775 27.696.18 55.749-1.936 82.452-9.848 18.618-5.32 36.95-13.781 51.149-27.258 20.725-19.712 35.556-50.694 45.386-74.47 11.172-28.94 16.918-59.62 22.448-90.012 9.358-61.825 11.535-124.56 9.757-187.013-3.825-89.608-12.99-181.187-48.623-264.552-8.45-19.843-18.394-39.049-29.642-57.432-2.36-3.46-4.353-7.15-6.701-10.612-1.032-1.402-1.883-3.225-2.73-4.533-.168-3.095 3.94-5.566 5.77-8.36 18.341-20.35 37.481-39.975 54.55-61.466 8.925-9.415 17.1-22.7 25.63-30.935 12.436 1.185 28.993 2.005 36.554-13.841-49.383-29.655-100.969-56.19-150.5-85.668-14.95 38.448-27.33 79.732-47.5 116-38.166-31.317-79.758-59.067-124.58-80-2.412 2.6-4.963 4.958-7.42 7.5 40.63 39.52 75.62 85.273 101 136-17.046 30.66-34.572 61.285-53.771 90.693a771 771 0 0 1-30.54 42.883c-5.228 7.27-11.044 14.054-16.576 21.066-4.772 7.318-13.262 13.678-16.113 20.526 2.263 2.251 5.125 5.886 6 8.332 6.168-.93 12.801-7.03 19.542-9.758 22.17-12.582 43.647-26.372 64.53-40.945 10.569-7.026 20.384-15.094 30.637-22.563 10.318-6.638 18.722-16.697 29.291-22.734 1.866 8.889 6.207 19.13 5.843 27.629-10.588 66.744-30.681 132.138-57.744 193.998-12.975 30.033-28.154 59.066-45.154 86.994-16.367 27.756-35.951 53.784-55.945 78.879m3 784.875c2.322 3.06 4.06 6.616 6.5 9.625 40.726-15.198 80.15-33.547 118.88-53.191 36.727-20.47 74.805-39.385 109.12-63.809 2.414 7.54 5.245 16.8 6.5 24h142v139c-101.929.76-204.151-.926-306 .5 3.658 7.797 4.362 18.716 8.296 25.594 7.42 1.79 15.476.323 23.064.906H1412v311h-355c1.076 9.593 6.098 18.395 7 28h842.4c16.239.132 39.236.906 43.6-16.75-23.036-19.31-45.951-38.86-69.859-57.117-23.453-18.482-47.955-35.69-70.641-55.133-15.002 17.44-27.866 36.698-42.395 54.525a4179 4179 0 0 0-31.741 41.351c-4.336 7.004-13.013 4.904-19.517 5.124H1559v-311h310.8c12.328.452 26.767-.025 33.2-15.5-21.3-17.562-42.3-35.878-64.282-52.697-10.758-8.66-21.573-17.232-32.328-25.889-10.837-7.63-21.976-19.076-32.703-24.914-12.26 15.798-24.143 31.99-36.314 47.876-9.214 12.089-18.545 24.077-27.509 36.346-1.708 2.19-3.546 4.993-5.672 6.452-5.704 2.682-11.79.412-17.902 1.326H1559v-139h136.8c12.421.218 27.538.18 34.2-15.5-38.773-32.226-78.352-63.94-118.5-94.5-17.382 22.949-35.669 45.22-53.268 67.995-3.62 4.183-6.562 8.917-10.428 12.88-1.563 2.298-5.81 1.967-7.995 2.124-89.837-.756-180.086.925-269.809-.499 52.618-36.37 104.818-74.002 151.235-118.235 48.084-43.747 91.558-92.893 127.265-147.265 13.293 38.197 29.288 75.869 50.75 110.325 32.013 51.549 72.058 98.144 118.562 137.154 45.338 37.617 94.26 71.741 146.188 99.521 4.605-31.939 19.123-62.021 37.947-87.906 18.773-24.928 43.717-47.78 75.053-55.094 1.063-5.28 1.11-10.645 1-16-77.457-16.343-154.141-37.288-227.493-67.26-70.896-29.223-139.095-70.709-186.507-132.24a19 19 0 0 0 1.375-1.5c19.292-1.339 43.92-4.26 51.625-23.5-70.13-18.394-140.465-36.653-210.5-55.5-3.279 4.53-4.003 12.377-6.351 18.445-15.624 47.626-39.486 92.205-66.576 134.224-39.669 61.577-86.816 118.182-137.049 171.306-51.598 52.392-105.756 103.79-167.524 144.025zm166 122.917c12.082 35.608 21.56 72.38 26.21 109.796 2.192 14.542 3.785 29.175 4.499 43.853.782 13.25-.026 26.511-.493 39.752-.688 10.43 13.07 16.668 19.473 22.705 14.646 11.282 33.231 17.53 51.786 15.675 27.606-1.364 52.467-20.613 63.568-45.328 11.945-24.429 7.636-57.878-3.228-79.472-14.327-28.03-37.275-50.853-62.716-68.548-26.34-18.525-56.543-30.211-86.507-41.262-4.938-2.08-8.548.583-12.592 2.537zM1458 854c.474 46.118-.578 92.356.312 138.449.354 5.534 10.832 2.689 13.925 3.36 36.943-.568 74.688-4.485 109.117-18.99 12.721-4.493 9.707-16.44 9.646-25.762V854h93v138c39.902.727 80.535-2.627 118.044-17.421 4.3-1.807 8.704-3.596 12.487-6.372 4.009-2.235 3.586-7.956 3.469-11.876V854h70.8c17.814-.032 35.636.039 53.443-.021 10.443-.554 26.398.852 32.487-11.779 2.028-4.64-1.596-7.816-4.44-11.247-20.57-22.587-40.318-45.931-62.16-67.323-8.853-9.225-17.256-18.887-26.63-27.63-10.89 15.221-19.265 32.282-29.853 47.735-4.764 8.408-10.09 16.456-15.005 24.757-3.872 5.866-9.027 19.118-18.642 17.508V718c14.63-2.023 32.892-6.942 36-27-56.735-3.713-113.266-10.359-170-14v149h-93v-82.2c.153-7.014-.194-14.002.122-21-.016-5.349 5.947-5.324 9.936-6.695 10.897-3.538 25.243-8.917 25.942-25.105-56.41-3.661-112.58-10.524-169-14v149h-130c1.652 8.619 4.88 16.995 7.368 25.39 1.444 4.406 10.173 1.62 13.182 2.61H1458m56 659h265v69c40.412 1.1 81.293-5.365 118.324-22.329 8.405-4.11 20.37-7.981 19.67-17.889.017-32.794-.003-65.563.006-98.352V1116.6c.034-6.412-.042-12.79.023-19.2-.505-5.986 3.253-7.02 7.746-7.83 11.829-3.593 22.789-10.03 31.231-19.071-41.331-32.346-83.357-63.919-124.5-96.5-12.226 14.778-26.373 27.856-38.67 42.565-5.654 6.219-11.315 12.404-17.172 18.442-5.563 8.674-14.088 7.492-22.667 6.993h-201.407c-8.384-.002-16.77.003-25.144-.002-7.019.452-13.349-2.575-19.606-5.245-42.593-15.685-84.086-34.623-126.834-49.753v399.534c.567 66.666-.691 133.442.373 200.071-.148 4.279 7.352 3.147 9.78 3.367 28.364-.128 57.198-3.323 83.178-15.628 12.03-5.184 24.19-11.03 33.98-19.905 6.696-4.99 7.22-11.78 6.689-18.942zm0-261h67v-182h-67zm0 233h67v-136.2c-1.052-22.6 1.283-45.6-.693-68.085-1.3-2.34-5.876-1.248-8.001-1.715H1514zm84 973.625c3.273 2.925 7.124 6.086 11.535 6.787 3.78-2.802 8.022-5.097 11.78-8.008 38.02-26.705 73.53-56.787 107.81-88.044 17.285-16.236 34.147-32.828 50.745-49.73 4.462-4.064 8.073-8.903 12.232-13.229 6.747-7.21 18.31-2.659 26.567-7.082 7.955-2.765 15.377-8.818 17.331-17.319-60.191-21.062-120.443-42.632-180.5-64-8.712 40.678-17.624 81.394-27.159 121.907-9.434 39.461-18.469 80.21-30.341 118.718M1708 1252h71v-182h-71zm0 233h71v-206h-71z" style="fill:#000;fill-rule:evenodd;stroke:none"/></svg>