<svg xmlns="http://www.w3.org/2000/svg" width="3000" height="3000"><path d="M407 2715h2186c-120.11-729.14-243.257-1457.94-364-2187-121.653-40.09-243.099-81.112-364.7-121.395-91.164-30.407-182.32-60.766-273.474-91.162a32206 32206 0 0 1-51.529-17.183c-8.003-2.659-16.01-5.346-24-8-7.038-2.654-14.998-6.446-23.453-2.372-120.19 40.07-240.392 80.12-360.578 120.183C1011.124 447.878 891.186 488.387 771 528c-120.737 729.033-243.897 1457.913-364 2187m628-601c41.649-13.323 80.87-34.34 120.238-53.17 18.48-10.102 37.39-19.417 55.335-30.498 18.74-9.427 35.743-23.235 54.427-32.332 1.195 8.154 5.147 15.768 6 24h142v141h-305v1.5c1.546 4.798 2.904 9.649 4.28 14.488.879 2.873 1.726 8.739 5.838 8.792 12.317.622 24.693-.109 37.012.22H1413v313c-118.264.76-236.81-.926-355 .5 2.615 7.735 5.843 18.83 7 25.5h826.2c11.373.088 22.774.17 34.113-.79 8.595-.468 18.078-3.894 22.196-11.98.327-3.25-3.646-5.762-6.152-8.245-42.263-37.076-88.038-69.886-131.857-104.985-14.644 17.816-28.06 36.673-42.35 54.77-10.757 13.615-21.132 27.564-31.729 41.298-4.274 5.892-14.124 3.278-20.37 3.932H1558v-313h308.4c11.873-.101 27.217 1.52 34.6-13.5-19.971-18.844-42.118-35.26-63.282-52.697-10.632-8.545-21.312-17.034-31.939-25.57-5.321-4.321-10.784-8.51-16.069-12.87-5.26-3.316-11.44-10.44-16.71-11.363-10.409 16.705-24.483 31.704-35.58 48.116-9.175 12.087-18.56 24.04-27.466 36.317-1.752 2.22-3.391 4.877-6.074 6.097-48.545 1.34-97.302-.244-145.88.47v-141h135c11.831.25 28.518.491 35-13.5-18.173-17.405-38.836-32.005-58.082-48.157-19.876-14.59-38.422-31.821-58.918-45.343-7.045 12.295-18.261 22.492-26.098 34.402-7.928 9.742-15.372 19.871-23.31 29.603-3.576 4.171-6.74 8.642-10.137 12.939-3.66 5.682-9.03 5.502-14.835 5.056H1269v-2c52.05-37.4 105.452-74.162 151.602-119.102 23.988-22.83 47.848-45.766 69.306-71.024 10.866-12.217 20.937-25.14 30.94-38.044 4.923-6.507 9.9-12.977 14.44-19.745 2.175-3.27 4.327-6.572 6.546-9.811 2.251-3.18 4.554-7.885 8.166-8.274 23.699 77.155 68.002 146.767 123.394 204.894 55.347 56.314 120.638 103.14 189.606 141.106 5.338-31.979 19.545-62.34 38.91-88.175 18.637-24.405 43.334-46.6 74.09-53.825.928-4.623 1.123-9.301 1-14-86.586-18.956-173.184-41.686-253.937-78.98-39.36-19.076-77.985-40.387-111.257-69.157-16.772-14.004-31.665-30.005-45.29-47.03-1.547-1.771-3.878-5.373-2.177-6.965 15.696-4.571 42.311-1.85 50.661-22.868-70.01-16.323-138.965-38.03-209-54-12.757 49.917-37 96.192-63.89 139.828-40.213 63.674-87.462 122.779-139.376 177.262-51.829 54.977-108.249 106.238-170.734 148.91 0 2.966 2.302 5.552 3 8m35-691c31.538 1.228 64.206-2.613 91.63-19.726 6.317-3.437 13.075-8.804 17.221-13.95 3.435-5.622 1.566-12.936 2.149-19.141V1270h44v95c32.697 1.51 65.11-5.411 94.68-19.493 6.174-3.42 16.457-7.483 18.003-13.52.905-26.687-.165-53.48.317-80.178V856c6.4-.356 13.49-3.441 18.697-5.903 4.97-3.244 12.787-6.785 14.303-12.097-35.498-24.342-67.955-54.865-103.672-79-13.082 14.049-26.503 27.77-39.35 42.03-4.611 4.625-10.687 12.804-16.265 13.807-13.305 1.129-26.954 1.053-38.952-5.309-34.296-13.977-68.467-28.686-102.761-42.528zm111-179h44V840h-44zm16 985c.752 8.125 5.188 15.467 6.839 23.388 8.735 30.267 15.082 61.198 19.33 92.41a357 357 0 0 1 3.22 73.766c-1.585 10.35 5.463 15.667 12.815 20.86 11.353 9.127 24.305 17.149 38.9 19.666 23.315 4.509 47.013-3.565 63.977-19.735 15.522-14.864 25.606-40.236 24.007-59.87-.291-39.765-26.824-73.024-55.228-97.372-29.682-25.302-65.968-40.752-102.2-53.852-3.972-2.541-8.095-.674-11.66.739m64-646.361c.878 2.697 3.624 4.864 4 8.361 73.967-4.52 147.545-16.674 218.78-37.21 34.159-10.098 67.908-21.747 100.361-36.472 16.173-7.489 31.853-15.892 47.322-24.703 3.395-1.984 7.435-4.514 10.598-6.15 12.01-.668 26.246 5.63 36.939-7.965-22.28-16.106-45.562-30.96-68.174-46.609-11.336-8.005-22.985-15.578-34.362-23.509-5.604-3.843-11.276-7.602-16.924-11.356-4.452-3.847-13.601-7.789-14.54-13.026h377.4c14.127-1.244 35.53 5.24 43.6-13.687-15.515-13.5-31.562-26.397-47.977-38.785-8.288-6.222-16.297-12.773-24.731-18.794-4.085-3.169-8.331-6.156-12.408-9.314-3.603-3.049-9.544-5.898-9.884-10.42 8.74-2.43 18.813-6.789 25.798-11.342 4.36-2.896 2.968-9.761 3.202-14.235v-249.107c.132-3.798-.821-10.316 3.237-11.348 10.741-3.498 22.601-7.516 29.763-16.968-17.303-14.365-36.335-26.94-53.974-40.975-9.113-6.901-18.077-13.957-27.287-20.71-4.563-3.41-9.117-6.806-13.654-10.242-4.189-3.479-11.119-6.846-11.085-12.073 17.404-.176 34.854-1.487 52.09-3.833 12.754-1.746 25.57-3.843 37.797-7.993 8.518-3.004 17.22-6.874 23.152-13.988 9.225-10.642 12.887-26.59 6.702-39.615-5.835-12.492-19.148-18.51-31.033-23.476-4.022-1.49-8.728-3.728-12.708-4.095-.217-12.38-2.997-24.6-3-37h-9c-6.545 13.41-19.973 26.237-30.364 34.881-10.895 9.746-25.673 11.345-39.558 11.413-54.11 2.953-108.343 1.028-162.49 1.706h-81.437c-6.65-.002-13.315.18-19.924-.587-8.504-.246-18.974-3.522-18.18-15.714-.132-9.896.022-19.815-.047-29.699 61.428.018 122.872-2.4 184.107-6.941 28.858-2.512 57.662-5.485 86.387-9.227 14.108-1.634 28.563-6.335 42.241-1.177 12.322 3.432 29.475 6.822 42.265-4.155-24.029-21.67-49.058-42.247-73.284-63.7-4.616-3.812-9.045-7.872-13.526-11.836-4.407-3.268-9.177-9.8-14.344-7.775C1710.968 706.427 1625.379 730.677 1539 749v-21c.293-5.133-.437-11.293.435-15.953-.013-3.463 6.493-3.177 8.528-4.288 11.273-2.519 17.459-9.617 21.037-19.259-46.872-3.858-94.039-7.884-141-11.5v112.2c.161 26.608-2.459 54.555 8.075 79.804 7.027 17.598 24.22 27.48 41.658 32.032 29.024 7.295 59.228 7.847 88.957 7.964h93.907c54.831.738 109.617-.782 164.403-2-.755 6.205-8.237 10.504-11.476 15.177-7.584 9.4-16.795 17.346-24.235 26.873-3.717 3.82-7.495 7.546-10.787 11.747-3.778 4.883-8.953 4.39-14.177 4.203h-62.92c-15.777-.052-31.564.063-47.338-.034-10.651-1.131-20.028-7.712-30.199-10.61C1594.377 943.58 1565.6 930.28 1536 920v410c23.115.894 46.214-1.575 68.102-9.351 10.306-3.674 20.35-8.102 29.652-13.846 4.153-2.832 9.428-6.185 11.8-10.266 2.357-5.486 1.012-11.78 1.446-17.537h136v29c14.064.467 28.014-1.138 42-2-1.047 5.591-8.083 10.559-11.392 16.216-7.964 9.915-16.096 19.706-24.059 29.608-1.762 2.03-3.224 4.413-5.48 5.951-5.732 2.434-11.707.424-17.808 1.225H1489v-359c10.583-.772 25.042-6.158 28-20-45.945-4.895-92.79-7.62-138.5-13-2.82 4.15-.68 11.522-1.5 17.098v412.761c.117 11.594-.142 23.193.077 34.781-.26 5.388 4.715 5.912 8.57 5.36 27.888 1.283 55.5-4.36 81.043-15.485 6.704-3.257 13.933-5.967 19.719-10.778 4-4.138 2.041-12.469 2.592-18.647.146-2.204-.07-5.043.97-6.857 7.348-2.606 17.91-.27 25.603-1.233H1541c-1.02 6.227-8.681 11.769-12.495 17.801-35.695 41.283-79.492 74.573-124.367 105.105-45.212 29.391-93.127 54.952-143.138 75.094zm573 700.861c-58.684-22.293-118.78-42.43-178-63.5-16.23 75.87-32.639 151.995-53.12 226.882-.354 3.58-3.68 9.828-1.455 12.367 7.19 8.5 14.071.559 20.575-4.001 48.958-35.578 95.325-74.812 137.983-117.708 12.015-10.303 21.571-23.04 33.002-33.916 5.714-4.845 17.032-1.016 24.684-5.305 6.887-2.641 14.064-7.376 16.331-14.819M1647 1055h136v-64h-136zm0 98h136v-73h-136zm0 101h136v-76h-136zm56 158.336c32.887 25.524 64.633 53.777 92.647 84.744 21.91 22.133 42.296 45.95 59.658 71.846 3.185 4.475 5.376 9.736 9.273 13.697 20.236 10.65 46.472 9.66 65.92-2.018 14.269-8.833 24.245-23.871 27.654-40.223 9.037-55.924-43.126-93.451-83.399-110.43-25.533-10.595-52.7-16.959-80.1-20.237-27.58-2.81-60.54-5.019-85.906-2.266-1.956 1.476-4.053 3.05-5.747 4.887" style="fill:#fedda9;fill-rule:evenodd;stroke:none"/><path d="M1029 2106.375c2.322 3.06 4.06 6.616 6.5 9.625 40.726-15.198 80.15-33.547 118.88-53.191 36.727-20.47 74.805-39.385 109.12-63.809 2.414 7.54 5.245 16.8 6.5 24h142v139c-101.929.76-204.151-.926-306 .5 3.658 7.797 4.362 18.716 8.296 25.594 7.42 1.79 15.476.323 23.064.906H1412v311h-355c1.076 9.593 6.098 18.395 7 28h842.4c16.239.132 39.236.906 43.6-16.75-23.036-19.31-45.951-38.86-69.859-57.117-23.453-18.482-47.955-35.69-70.641-55.133-15.002 17.44-27.866 36.698-42.395 54.525a4179 4179 0 0 0-31.741 41.351c-4.336 7.004-13.013 4.904-19.517 5.124H1559v-311h310.8c12.328.452 26.767-.025 33.2-15.5-21.3-17.562-42.3-35.878-64.282-52.697-10.758-8.66-21.573-17.232-32.328-25.889-10.837-7.63-21.976-19.076-32.703-24.914-12.26 15.798-24.143 31.99-36.314 47.876-9.214 12.089-18.545 24.077-27.509 36.346-1.708 2.19-3.546 4.993-5.672 6.452-5.704 2.682-11.79.412-17.902 1.326H1559v-139h136.8c12.421.218 27.538.18 34.2-15.5-38.773-32.226-78.352-63.94-118.5-94.5-17.382 22.949-35.669 45.22-53.268 67.995-3.62 4.183-6.562 8.917-10.428 12.88-1.563 2.298-5.81 1.967-7.995 2.124-89.837-.756-180.086.925-269.809-.499 52.618-36.37 104.818-74.002 151.235-118.235 48.084-43.747 91.558-92.893 127.265-147.265 13.293 38.197 29.288 75.869 50.75 110.325 32.013 51.549 72.058 98.144 118.562 137.154 45.338 37.617 94.26 71.741 146.188 99.521 4.605-31.939 19.123-62.021 37.947-87.906 18.773-24.928 43.717-47.78 75.053-55.094 1.063-5.28 1.11-10.645 1-16-77.457-16.343-154.141-37.288-227.493-67.26-70.896-29.223-139.095-70.709-186.507-132.24a19 19 0 0 0 1.375-1.5c19.292-1.339 43.92-4.26 51.625-23.5-70.13-18.394-140.465-36.653-210.5-55.5-3.279 4.53-4.003 12.377-6.351 18.445-15.624 47.626-39.486 92.205-66.576 134.224-39.669 61.577-86.816 118.182-137.049 171.306-51.598 52.392-105.756 103.79-167.524 144.025zM1069 1424c32.182 1.296 65.61-2.184 93.63-19.726 6.425-3.538 13.45-8.99 17.523-14.386 3.12-6.004 1.188-13.434 1.847-19.901V1271h42v95c33.71 1.609 67.235-5.08 97.66-19.949 6.641-3.729 16.875-7.375 17.236-14.725.297-26.959-.054-53.955.104-80.917V857c12.562-1.254 26.88-8.93 34-18-16.954-14.374-35.24-27.521-52.606-41.46-17.899-13.024-34.673-28.142-52.894-40.54-13.47 13.61-26.145 27.917-39.432 41.696-4.548 5.024-9.984 11.628-15.309 14.836-7.026.92-14.197.181-21.255.441-9.835-.44-21.402-7.972-32.297-11.474-15.37-6.116-30.532-12.732-45.841-18.968-7.522-3.158-15.048-6.234-22.557-9.418-7.14-2.176-14.93-7.364-21.809-8.113zm113-181h42V841h-42zm13 986.292c12.082 35.608 21.56 72.38 26.21 109.796 2.192 14.542 3.785 29.175 4.499 43.853.782 13.25-.026 26.511-.493 39.752-.688 10.43 13.07 16.668 19.473 22.705 14.646 11.282 33.231 17.53 51.786 15.675 27.606-1.364 52.467-20.613 63.568-45.328 11.945-24.429 7.636-57.878-3.228-79.472-14.327-28.03-37.275-50.853-62.716-68.548-26.34-18.525-56.543-30.211-86.507-41.262-4.938-2.08-8.548.583-12.592 2.537zm64-647.792c.732 3.495 4.508 6.192 5 10.5 102.822-6.05 205.506-26.596 301.247-65.048 22.874-9.733 45.26-20.647 66.78-33.1 3.954-1.5 7.052-5.122 11.633-6.402 7.989-.012 17.053 3.274 26.31-.678 3.494-1.293 6.77-3.451 8.782-6.641 2.726-2.83-3.457-5.889-4.923-7.235-42.388-29.43-85.97-57.262-127.829-87.396 95.078-1.426 190.58.26 285.735-.5h98.926c7.371-.181 16.285.653 22.84-1.472 5.49-2.05 12.12-6.223 12.825-11.68 1.023-4.817-7.607-8.223-9.637-11.444-27.336-23.092-56.787-43.57-84.689-65.904 5.354-2.489 11.361-3.895 16.578-6.794 3.913-2.586 11.618-4.436 12.068-9.222 1.01-40.832-.183-81.791.354-122.638v-96.409c.616-16.053-.753-32.282.41-48.292-.128-3.523 6.04-3.797 8.141-4.904 9.083-3.216 20.78-8.736 25.449-16.741-35.285-27.452-71.887-53.333-107-81V907c17.404-.176 34.854-1.487 52.09-3.833 12.754-1.746 25.57-3.843 37.797-7.993 8.518-3.004 17.22-6.874 23.152-13.988 9.37-10.948 12.896-27.276 7.08-40.743-5.398-12.596-18.537-18.947-30.33-23.897-4.36-1.642-9.471-4.115-13.789-4.546-.217-12.38-2.997-24.6-3-37h-11c-6.448 13.242-19.692 25.978-29.94 34.535-10.764 9.81-25.525 11.742-39.404 11.723-53.48 3.002-107.142 1.063-160.67 1.742h-80.837c-11.773-.756-28.044 1.637-35.983-6.117-4.138-5.183-2.968-12.298-3.166-18.448V779c61.634.077 123.236-2.487 184.67-6.97 29.007-2.577 57.983-5.533 86.848-9.331 7.43-.93 14.828-2.172 22.222-3.295 9.277-2.019 20.866 4.841 31.955 5.371 10.47.962 22.517-.195 30.305-8.275-32.35-29.68-66.634-57.278-99.375-86.5-82.12 35.28-169.396 57.761-256.125 78-1.262-6.984.095-14.257-.5-21.3.44-5.047-.765-10.638.975-15.472 6.122-2.556 13.537-2.987 18.927-7.547 5.583-3.474 9.379-10.861 10.098-16.681-47.76-2.151-95.252-8.709-143-11v113.4c.191 26.873-2.542 55.094 8.075 80.604 7.106 17.781 24.602 27.68 42.223 32.198 29.25 7.254 59.654 7.733 89.589 7.798h94.506c27.291-.072 54.574.16 81.849-.265l40.998-.612c13.168.532 26.72-2.135 39.76-.623-8.149 9.808-17.4 18.641-25.586 28.41-7.459 7.899-15.682 17.608-22.689 24.69-3.86 3.526-10.662 2.027-15.396 2.4h-62.32c-15.524-.58-31.154.714-46.635-.399-39.22-13.966-77.232-31.437-116.374-45.601v413c23.608.911 47.291-1.17 69.667-9.217 10.475-3.645 20.642-8.208 30.087-13.98 4.153-2.832 9.428-6.185 11.8-10.266 2.357-5.486 1.012-11.78 1.446-17.537h134v29c13.964.881 28.206-1.49 42-1.5-8.812 9.906-16.55 20.742-25.197 30.782-3.684 4.617-7.478 9.163-11.219 13.725-3.588 6.156-8.94 6.774-15.128 5.993H1490v-357c11.296-.97 27.339-7.167 28-22-46.757-4.803-93.782-7.98-140.5-13-2.85 4.366-.648 12.021-1.5 17.788v438.261c.527 4.843-.858 10.933 1 14.75 31.777 4.875 65.587-3.18 94.684-16.144 5.955-3.085 13.989-6.007 17.662-11.302 1.22-6.078.29-12.457.702-18.622-.386-5.849 5.144-6.316 9.28-5.731 13.458.68 27.34-.846 40.672.5-36.16 45.259-81.473 82.801-129.323 115.098-47.426 31.9-98.426 59.704-151.677 80.402zm339 877.125c3.273 2.925 7.124 6.086 11.535 6.787 3.78-2.802 8.022-5.097 11.78-8.008 38.02-26.705 73.53-56.787 107.81-88.044 17.285-16.236 34.147-32.828 50.745-49.73 4.462-4.064 8.073-8.903 12.232-13.229 6.747-7.21 18.31-2.659 26.567-7.082 7.955-2.765 15.377-8.818 17.331-17.319-60.191-21.062-120.443-42.632-180.5-64-8.712 40.678-17.624 81.394-27.159 121.907-9.434 39.461-18.469 80.21-30.341 118.718M1648 1054h134v-62h-134zm0 98h134v-71h-134zm0 101h134v-74h-134zm53 159.457c35.78 27.498 68.897 58.611 99.6 91.645 22.492 24.244 44.635 49.033 61.414 77.762 3.226 4.368 10.951 5.37 16.751 6.996 12.56 2.714 25.893 3.138 38.333-.466 19.967-6.472 36.58-22.777 41.229-43.667 8.103-31.428-7.586-63.462-31.066-83.951-22.866-20.931-51.964-33.712-81.433-42.262-22.072-6.028-44.674-10.008-67.5-11.573-12.108-1.092-24.244-1.513-36.4-1.745-6.088-.218-12.161-.29-18.24.034-5.618 1.262-12.6-.847-17.196 2.17-1.738 1.563-4.33 3.55-5.492 5.057" style="fill:#000;fill-rule:evenodd;stroke:none"/></svg>