<svg xmlns="http://www.w3.org/2000/svg" width="3000" height="3000"><path d="M407 2715h2186c-120.11-729.14-243.257-1457.94-364-2187-121.653-40.09-243.099-81.112-364.7-121.395-91.164-30.407-182.32-60.766-273.474-91.162a32206 32206 0 0 1-51.529-17.183c-8.003-2.659-16.01-5.346-24-8-7.038-2.654-14.998-6.446-23.453-2.372-120.19 40.07-240.392 80.12-360.578 120.183C1011.124 447.878 891.186 488.387 771 528c-120.737 729.033-243.897 1457.913-364 2187m633-1590.5c2.565 8.135 5.616 16.289 8 24.5h143c-.362 81.742-6.692 164.19-29.455 243.07-21.287 73.968-62.516 142.536-120.545 193.43 2.128 1.938 3.757 4.254 5.5 6.5 41.703-17.343 82.977-37.735 118.466-66.237 54.254-42.533 95.783-100.195 120.322-164.484 26.293-67.377 34.507-140.507 36.712-212.279h81v442c19.989.399 40.124.858 59.72-3.834 13.737-3.217 27.036-8.214 39.946-13.815 9.075-3.924 19.21-9.827 26.6-15.044 8.734-5.297 8.33-13.979 7.734-22.277V1149h65c5.88 65.458 15.152 131.13 34.064 194.255 13.583 44.523 34.087 87.006 61.254 124.822 19.935 27.38 49.164 55.348 75.223 72.266 21.367 14.394 44.218 26.442 67.641 37.1 32.405 12.503 82.144 28.33 112.814-6.062 6.489-7.345 11.453-16.239 12.957-26.008 2.678-15.058-3.858-30.082-10.955-42.855-3.626-5.91-7.314-11.772-11.39-17.38-2.07-2.917-4.575-5.56-6.374-8.656-1.831-2.933-.965-7.812-1.223-11.69 1.068-35.956 4.102-71.822 4.989-107.792-2.238-.047-4.533.077-6.5-1-3.843 5.019-4.84 13.982-7.898 20.698-4.821 13.897-9.841 27.744-15.271 41.404-5.369 10.2-9.087 24.552-17.21 31.87-9.445 5.647-23.316-.573-31.977-4.406-34.742-14.21-61.836-42.135-81.385-73.461-18.713-31.31-35.069-72.046-40.759-105.105 4.305.252 7.21 3.863 10.133 6.546 23.607 20.296 44.386 43.91 62.354 69.264 6.39 9.232 11.984 18.962 16.937 29.031 3.09 10.442 16.084 13.813 25.876 14.798 18.224 2.237 38.382-4.091 49.351-19.66 17.08-22.36 12.165-54.79-6.494-74.529-16.432-21.174-42.334-31.318-67.157-38.45v-3c17.517-8.56 34.208-19.478 51.07-29.341 8.096-4.285 16.126-12.578 27.38-10.778 9.307.34 23.601-.63 25.55-10.881-42.073-20.038-82.475-44.062-124.143-65-2.134 1.953-1.951 6.102-2.792 9.211-4.994 24.637-10.88 49.112-17 73.484-1.399 6.319-3.235 12.504-4.945 18.734-1.194 4.38-1.626 10.34-6.443 10.248-14.894-.779-29.792-1.029-44.677.323-3.353-20.383-6.214-40.885-8.006-61.476-.4-5.797-.78-11.587-.962-17.384-.348-3.82-.204-8.087 5.026-8.444 10.845-1.995 23.775-6.788 30.942-14.196-18.795-15.11-39.024-28.363-58.116-43.08-9.713-6.97-19.24-14.209-28.929-21.196-4.815-3.561-9.526-7.238-14.471-10.616-4.626-2.94-9.329-7.898-14.14-9.608-14.652 16.263-29.44 32.381-44.159 48.568-3.53 4.347-7.472 8.325-11.367 12.326-2.452 3.416-9.458 1.422-12.78 2.106H1537V839c6.805-1.539 14.012-2.579 20.02-6.46 7.289-3.712 9.21-9.7 11.98-16.04-54.493-7.72-110.926-9.297-165.5-16.5-1.42 22.21.254 44.73-.5 67-6.184-.303-12.016-5.38-16.914-7.648C1351.87 839.338 1317.113 820.115 1283 800c-33.822 41.574-72.589 79.486-113.764 113.815C1128.78 946.083 1086.79 977.763 1041 1002c.445 3.103 1.953 6.614 3.5 9 24.366-6.209 49.722-10.352 74.002-17.372 12.119-2.982 24.184-6.239 36.175-9.678 11.894-2.462 25.188-8.87 36.323-9.95v150h-151zm20 688.5c87.027-1.873 174.032-4.264 261.043-6.43 44.192-1.267 88.358-1.835 132.54-3.289a6777 6777 0 0 0 33.206-.828c4.206-.108 8.378-.22 12.573-.328 3.421.17 8.105-.783 10.226 1.619 6.421 8.367 11.508 18.005 18.3 26.188 3.159 4.444 6.363 8.878 9.761 13.142 2.971 4.12 8.019 8.331 8.351 12.926-59.381-8.129-118.606-18.014-178-26-2.637 33.695-4.14 67.498-9 101-8.372-.33-16.8.43-25.14-.304-46.709-16.988-92.98-35.865-139.36-53.696-1.426 90.758.26 181.875-.5 272.696v102.485c-.246 29.931.3 59.889-.162 89.804-.696 23.723-14.99 44.907-34.245 57.819-15.156 12.907-33.45 20.342-52.051 26.445-15.9 6.187-30.006 16.661-40.652 29.967-20.726 25.087-12.943 65.689 12.008 84.69 19.084 14.61 45.172 17.982 67.812 11.621 32.865-10.493 56.548-39.946 67.177-71.723 5.163-17.145 8.143-35.026 8.108-52.947.757-17.977-4.601-35.301-6.995-52.857 12.044-.765 24.095-1.541 35.889-4.266 10.118-1.29 21.099-6.693 30.197-8.255 5.158-.63 3.981 9.226 4.885 12.097 4.485 40.144 1.43 81.098-8.184 120.265-3.031 7.911 1.32 13.299 6.707 18.13 17.065 19.598 46.55 29.922 71.304 19.036 18.257-7.538 33.38-22.797 38.753-42.15 8.93-29.99-6.132-61.068-26.534-82.332-19.944-20.617-44.075-37.446-70.017-49.525.34-4.064 5.824-5.589 8.592-7.676 10.036-5.48 23.18-11.445 21.408-27.324h448c-2.012 27.002-7.356 53.804-13.593 80.099-3.46 12.777-7.497 25.57-14.72 36.795-6.89 11.539-21.187 14.724-33.687 14.106.446-6.122 4.792-12.015 4.854-19.365 1.978-23.52-13.158-44.48-31.792-56.936-18.566-12.534-39.815-20.273-61.677-24.725-8.292-1.751-16.708-2.808-25.083-4.044-8.55-1.035-18.936-3.995-24.302 3.07 26.029 32.435 41.899 74.216 41 116 9.92 6.018 19.591 14.156 31.83 15.693 9.76 2.985 19.676-.299 29.453-.394 27.185 14.486 27.513 50.677 27.717 74.701 28.24-.728 56.818-1.702 84.68-6.699 18.825-4.364 37.789-11.527 52.297-24.778 22.74-17.828 34.914-50.8 41.776-75.156 7.972-29.037 12.35-58.933 16.421-88.702.656-5.883 1.72-11.743 1.826-17.665 13.003-2.715 27.242-5.419 37-15.5-34.659-30.758-72.69-57.727-107.312-88.5-5.02 1.581-8.033 6.46-11.926 9.65-14.91 12.161-27.759 26.6-42.5 38.931-3.269 2.435-5.794 6.218-9.506 7.951-146.83 1.334-293.892-.242-440.756.468v-63h407.4c67.924-.443 135.888.54 203.796-.292 7.418-.872 15.649-2.874 20.362-9.238 4.673-5.316-5.177-10.832-8.642-14.128-34.37-28.193-70.928-53.633-106.416-80.342-13.899 15.438-26.429 32.072-39.98 47.812-5.866 6.85-11.445 13.927-17.341 20.748-3.147 2.617-5.482 8.354-9.149 8.97-149.922 1.34-300.07-.244-450.03.47v-65h273v48c20.848.437 41.88.698 62.358-3.99 14.498-2.752 28.66-6.911 42.824-10.948 9.692-3.569 22.072-6.779 29.512-12.956 2.832-7.708.215-18.934 1.306-27.023V1996c8.745 1.115 16.303 6.845 24.676 9.269 30.381 12.122 61.875 21.87 94.433 26.11 24.393 3.329 50.61 2.61 73.368-7.668 15.417-8.433 27.792-24.166 30.147-41.918 2.112-15.302-6.793-26.268-16.726-36.395-7.005-7.3-14.248-14.347-22.278-20.522-5.802-5.031-1.955-15.372-2.1-22.048 1.543-23.704 4.32-47.311 5.99-70.992.582-3.82-.051-9.46 1.49-12.336-1.71-1.523-4.207-1.352-6.5-2.5-12.774 26.375-24.25 53.955-40.7 78.506-5.039 8.902-12.217 18.85-25.97 17.17-20.121-2.35-39.4-9.518-58.348-16.291-27.046-10.722-53.743-23.07-77.674-39.765-11.982-8.34-23.672-17.161-34.56-26.899-5.51-4.89-11.185-9.593-16.118-15.091-4.38-5.317-12.237-10.396-13.13-16.63 78.262-.695 156.463-4.46 234.717-5.495 9.86-.157 19.704-.437 29.56-.51 7.721-.241 17.228-.506 23.758-3.623 5.46-2.387 13.718-9.203 6.237-15.32-34.999-29.119-73.058-54.26-109.772-81.052-18.575 26.652-41.384 51.129-59.5 78-46.208 2.11-92.513 2.019-138.74 3.767-6.692 1.314-10.074-2.3-12.58-7.727-18.706-29.3-37.619-59.947-48.68-93.04 12.406-2.919 27.006-10.244 28-24-55.858-4.328-112.074-5.293-168-9 5.62 24.545 16.39 47.65 25.064 71.17 4.543 11.234 9.95 22.099 14.989 33.104a184 184 0 0 0 7.879 16.376c2.629 5.04 6.78 10.952 7.068 16.35-146.105 5.514-292.825 6.49-439 12 .713 7.997 5.826 16.565 6 24m39-1060.5c2.353 8.238 6.46 17.769 8 25.5h491c8.153 96.176 34.51 195.746 98.197 270.754 31.087 36.27 71.66 63.597 115.552 81.93 22.642 10.118 46.416 18.485 71.319 20.652 24.563 3.329 51.825-3.297 67.252-23.804 10.628-13.275 14.421-32.312 7.774-48.295-4.276-11.552-11.371-21.767-19.096-31.24-2.81-3.732-6.74-6.615-8.934-10.802-2.535-7.694.196-18.637-.245-26.621.549-26.878 3.3-53.68 3.181-80.574l-8-1c-7.312 28.22-18.783 55.68-32.568 81.32-5.65 11.264-19.475 9.676-28.456 6.175-35.845-9.947-66.969-32.594-88.9-62.41-10.869-15-20.631-31.032-27.552-48.27-6.72-16.807-14.628-37.175-16.524-53.815 6.443 1.098 12.463 8.718 18.461 13.005 21.662 19.01 41.294 40.56 57.704 64.275 5.932 8.42 10.528 17.663 15.018 26.885 2.411 4.901 7.304 5.318 11.98 6.75 17.02 5.19 36.608 1.822 50.193-9.885 9.849-7.964 17.783-21.468 19.033-33.147 5.31-46.105-43.55-71.587-77.389-77.883v-3c17.372-5.746 34.532-12.39 51.72-18.697 7.958-3.18 16.36-9.059 26.044-6.066 8.224 1.356 22.186 1.178 24.236-8.237-18.888-11.137-35.91-26.172-54.447-38.076-17.762-13.302-36.692-25.127-54.053-38.924-10.95 32.838-23.585 65.408-37.947 96.957-1.97 3.889-2.937 9.418-7.625 9.896-8.316.93-16.749.676-25.083 1.379-5.921.003-12.85 1.413-18.263 1.29-4.522.55-3.864-8.018-4.902-10.518-2.344-13.572-4.38-27.23-4.68-41.004 6.833-.343 13.46-2.427 19.898-4.56 5.191-2.499 13.69-4.893 15.102-10.44-19.909-11.768-38.034-27.344-57.447-40.076-18.839-13.893-38.492-26.68-57.053-40.924-14.981 15.096-28.525 31.53-43.432 46.696-5.57 7.006-12.308 15.684-22.93 14.304H1099zM1260 952c32.111 1.071 63.908 6.814 96 8-1.398 7.545-5.535 14.605-12.294 18.486-6.557 4.187-14.309 5.089-21.706 6.514v139h81V897c-6.655.974-13.222.896-19.85-.315-5.751-.484-11.976-1.352-17.1 1.98-33.964 19.051-69.42 36.057-106.05 49.335zm68 1071h273v-66h-273zm0 95h273v-70h-273zm91 233.293c12.476 27.473 21.883 56.749 28.016 86.34 2.429 11.55 3.63 23.288 4.162 35.05 1.43 10.327-3.182 22.233 5.441 28.313 12.924 11.189 29.371 19.725 46.98 18.725 25.7-1.07 48.11-20.465 55.239-44.76 6.963-25.189-5.422-51.482-22.088-69.68-29.065-29.935-68.94-46.982-108.63-57.387-2.79-1.548-6.553 3.004-9.12 3.106zm27-421.793v1.5h132.6c4.88-.189 11.19.859 14.856-2.139 5.2-5 15.767-12.773 6.788-20.057-10.792-9.787-23.639-21.29-32.413-31.369-1.859-2.324-4.185-4.098-6.52-5.868-4.568-.57-8.618 5.329-13.5 6.872-7.935 4.183-20.209 5.498-26.83 8.62-23.157 13.573-46.662 26.497-70.332 39.11-1.711.978-3.88 1.668-4.649 3.331m195-282.5c.487 3.807 4.982 6.935 7.341 10.462 21.32 25.08 34.075 56.82 39.97 88.643 12.596 9.363 31.858 15.566 46.257 12.79 16.48-1.761 31.574-10.943 40.598-24.852 8.683-12.665 11.734-29.297 4.985-43.528-8.318-20.735-29.262-31.72-49.113-38.632-22.265-8.464-46.331-8.366-69.645-9.27-6.493.362-14.14-.717-20.393 4.387" style="fill:#fedda9;fill-rule:evenodd;stroke:none"/><path d="M1038 1123.25c3.308 8.282 6.415 18.92 9 26.75h143c-.621 81.924-6.975 164.626-30.157 243.603-21.535 73.572-63.069 141.307-120.843 191.897 3.171 3.332 6.403 8.691 11.711 5.79 4.957-1.935 9.916-3.887 14.79-6.021 56.143-24.112 108.976-58.233 149.296-104.683 40.947-46.22 70.036-102.374 86.163-161.933 14.832-54.887 20.288-112.002 22.04-168.653h79v442c20.296.224 40.784.984 60.705-3.631 14.13-3.1 27.706-8.364 40.96-14.018 9.21-4.008 19.543-9.962 27.001-15.352 9.102-5.612 7.36-14.873 7.334-22.568V1150h63c5.88 65.458 15.152 131.13 34.064 194.255 13.583 44.523 34.087 87.006 61.254 124.822 19.935 27.38 49.164 55.348 75.223 72.266 21.367 14.394 44.218 26.442 67.641 37.1 18.067 7.383 40.494 14.818 58.651 14.557 15.076.146 31.24-1.369 44.184-10.06 8.809-6.173 16.456-14.326 21.06-24.127 7.835-15.763 4.52-34.441-2.99-49.58-3.337-7.015-7.545-13.564-11.918-19.96-4.22-6.823-11.638-12.727-11.168-21.366.779-37.339 4.403-74.553 4.999-111.907-3.45.221-8.305-1.85-10.372 2.34-1.787 3.793-2.69 7.934-4.186 11.835-4.567 14.06-9.934 27.809-14.99 41.689-4.932 10.695-9.732 23.908-15.493 33.086-7.358 11.094-22.243 4.356-31.382.796-35.066-14.02-63.047-41.24-82.718-72.947-19.328-32.064-34.116-68.143-41.359-104.799 24.182 20.09 45.839 43.358 64.739 68.461 6.736 9.29 13.273 18.775 18.508 29.02 2.612 4.612 4.551 9.802 7.238 14.307 3.154 3.66 8.475 4.19 12.745 5.868 18.432 5.613 40.035 2.576 54.595-10.609 21.334-19.437 21.37-54.066 5.26-76.611-15.13-22.69-39.65-35.989-65.312-43.191-2.477-.782-4.934-1.635-7.273-2.745 17.099-9.754 34.406-19.316 51.07-29.841 8.107-4.616 16.042-12.208 27.266-10.678 8.88.197 22.397-.102 26.664-11.325-20.055-11.8-44.998-23.727-63.709-34.076-10.574-5.799-21.424-11.136-31.967-16.982-10.563-5.04-22.402-12.588-32.324-16.598-4.861 26.27-10.985 52.304-17.555 78.199-1.672 6.519-3.17 13.108-5.11 19.546-1.354 4.663-2.053 9.618-4.243 13.96-7.512 2.304-15.396-.879-23.373.297-7.582.016-15.15.63-22.719.998-3.353-20.383-6.214-40.885-8.006-61.476-.348-5.79-.843-11.594-.927-17.387.174-1.666.272-4.245 1.27-5.268 12.212-3.694 26.703-5.874 35.663-16.369-18.728-15.66-39.507-28.719-58.708-43.766-19.806-13.827-38.827-29.288-58.792-42.734-15.265 15.688-29.073 32.695-44.297 48.414-3.534 4.357-7.343 8.439-11.314 12.388-2.584 3.695-8.01 3.357-12.055 3.198H1538V840c12.933-2.643 29.756-6.23 32-25-55.858-6.12-112.122-9.96-168-16v67c-10.911-4.233-20.509-11.74-31.006-16.898-29.459-17.078-59.278-33.667-88.494-51.102-16.437 21.518-34.863 41.357-54.233 60.233-55.919 56.6-121.095 103.765-189.267 144.267 2.014 2.886 2.203 6.746 4.5 9.5 49.487-9.588 98.183-22.895 146.5-37v148h-152zm14 665c2.018 8.284 6.108 17.907 7 25.75 87.043-1.592 174.097-4.424 261.13-6.36 43.668-1.333 87.337-1.949 131.004-3.274 11.082-.218 22.169-.491 33.243-.821 7.643.813 18.027-2.024 23.833.85 6.666 7.948 11.186 17.811 18.082 25.691 2.947 4.388 6.213 8.552 9.373 12.77 2.514 4.445 7.926 8.041 8.835 12.144-28.861-5.249-58.978-8.636-88.133-13.289-29.807-3.89-59.47-9.725-89.367-12.711-2.637 33.695-4.14 67.498-9 101-8.08-.52-17.795.779-25.096-.775-46.455-17.978-93.328-35.417-139.404-54.225-1.426 91.158.26 182.675-.5 273.895v103.085c-.334 29.938.408 59.892-.22 89.821-.883 23.638-15.49 44.449-34.58 57.307-7.74 5.764-15.758 11.267-24.44 15.52-8.333 4.97-17.728 7.24-26.741 10.427-16.073 6.23-30.392 16.672-41.13 30.161-20.322 25.062-13.583 66.032 10.806 85.716 18.928 15.11 45.461 18.858 68.45 13.267 33.699-9.096 57.962-39.116 69.186-70.75 12.161-34.716 10.387-72.29 1.669-107.449 12.044-.765 24.095-1.541 35.889-4.266 10.034-1.435 21.028-6.497 30.057-8.204 2.135.986 1.835 4.84 2.427 6.434 5.095 41.155 2.432 83.201-7.477 123.44-.816 3.24-2.093 7.277-1.071 10.34 13.871 24.284 43.736 37.955 71.069 32.406 20.377-4.369 38.028-19.195 46.11-38.311 6.422-14.774 6.244-34.617 1.897-48.573-14.984-44.42-56.503-72.318-95.901-92.766 11.062-7.709 32.041-13.72 30-32.5h446c-2.61 26.286-7.208 52.479-13.593 78.099-3.283 12.497-7.41 24.813-14.133 35.916-6.376 11.362-19.893 15.581-32.274 14.985 9.306-20.15 5.466-44.624-9.713-61.053-14.252-15.839-33.515-25.957-53.28-33.077-12.71-4.047-25.76-7.392-38.98-9.23-7.013-.915-13.975-2.169-21.013-2.877-6.268-.942-12.7-1.46-18.014 4.737 26.33 32.96 43.024 74.987 42 117.5 10.042 6.181 19.958 14.31 32.393 15.823 9.593 2.66 19.352.021 28.944-.427 27.475 14.583 27.464 51.418 27.663 75.604 29.737-3.79 60.553-.85 89.897-8.481 20.414-4.213 39.055-14.358 54.222-28.434 21.87-22.236 32.823-52.518 39.617-82.298 6.698-31.262 12.664-62.881 15.264-94.787 13.218-3.755 31.013-5.471 38-18-37.534-28.158-73.247-60.205-110.5-89-15.35 12.268-28.264 27.325-43.58 39.647-6.375 5.751-12.192 12.203-19.081 17.356-8.578 2.269-18.255.057-27.09.997H1329v-61h565.8c13.411-.02 26.839.024 40.241-.013 10.38.337 24.003-2.918 28.959-15.487-38.056-32.745-79.75-60.947-119.5-91.5-14.173 15.077-26.302 31.956-39.895 47.527-5.933 6.867-11.587 13.953-17.437 20.868-2.614 3.385-5.504 6.565-8.423 9.667-9.009 2.054-18.742.135-27.913.938H1329v-63h271v48c21.185.378 42.556.805 63.393-3.805 14.828-2.797 29.312-7 43.789-11.133 9.826-3.61 22.48-6.847 29.882-13.321 2.018-8.782.166-18.309.936-27.256V1997c28.647 11.457 57.113 24.402 87.758 29.944 24.26 5.655 49.388 9.453 74.324 6.123 17.36-1.728 34.86-7.49 46.502-21.179 8.846-9.05 14.453-23.803 14.38-35.279.194-10.17-5.29-19.126-11.656-26.474-4.914-5.532-10.395-10.553-15.555-15.846-3.977-3.566-8.14-6.883-12.133-10.413-5.558-4.872-1.604-15.63-1.778-23.47.558-8.58 1.573-17.08 2.12-25.658 2.192-18.684 2.436-37.634 5.038-56.248-3.628-2.62-9.634-2.917-11.04 2.165-7.385 17.85-16.103 35.056-25.3 52.007-5.847 10.292-11.53 20.816-18.653 30.292-7.286 10.42-18.936 9.48-29.66 7.018-71.702-17.264-139.628-54.542-188.347-110.482 79.157-2.162 158.874-4.298 238.16-6.061 10.015-.28 20.037-.32 30.047-.534 7.96-.453 16.68-.66 23.35-5.698 5.501-3.543 10.02-10.714 2.442-15.4-17.864-14.857-36.621-28.615-55.468-42.175-9.356-6.754-18.833-13.353-28.178-20.115-4.704-3.348-9.48-6.627-14.163-10.004-4.462-2.55-9.866-7.873-14.19-8.513-17.488 27.053-41.48 50.932-59 78-45.416 2.22-90.928 1.847-136.355 3.714-2.24-.314-6.23.698-7.649-.809-22.381-29.654-39.433-63.817-53.996-97.905 12.132-2.367 26.655-9.873 29-26-57.225-3.88-114.71-5.92-172-9 13.165 47.67 34.156 92.917 56 137-146.452 5.483-293.48 6.523-440 12zM1106 779h491c8.153 96.176 34.51 195.746 98.197 270.754 31.087 36.27 71.66 63.597 115.552 81.93 22.823 10.19 46.801 18.621 71.913 20.704 24.477 3.12 51.68-2.605 67.708-22.599 11.182-13.213 15.175-32.095 9.8-48.623-4.087-11.815-10.857-22.475-18.608-32.199-2.734-3.842-6.876-7.579-9.47-11.006-4.124-6.702-.752-17.812-1.235-26.616.55-27.465 3.437-54.856 3.143-82.345-3.334-.383-6.644-.91-10-1-7.076 27.976-18.688 54.926-31.998 80.447-5.692 11.817-17.825 11.074-28.232 6.638-35.525-10.01-66.284-32.876-87.987-62.427-10.791-14.839-20.374-30.792-27.259-47.842-6.3-16.66-13.908-34.093-16.024-51.816 23.439 17.88 44.207 39.246 62.633 62.197 6.461 8.292 13.772 18.403 18.403 26.867 4.735 8.421 7.352 19.593 16.824 21.028 15.966 5.389 34.25 4.12 48.76-4.66 22.407-12.746 32.236-42.42 21.786-66.046-9.737-23.654-32.605-39.024-56.089-46.607-5.816-2.203-11.89-3.488-17.817-5.279 16.978-7.017 34.72-12.219 51.72-19.197 7.85-3.778 16.436-8.68 26.777-5.629 8.946 1.229 20.495.004 24.503-8.924-18.237-13.511-37.035-26.5-55.447-39.826-9.4-6.662-18.82-13.259-28.163-19.99-4.691-3.303-9.309-6.698-14-10-4.589-2.591-9.943-8.246-14.39-8.934-9.412 32.565-23.41 63.908-36.564 95.11-2.185 3.648-3.227 9.554-6.544 11.446-8.216 1.209-16.63.853-24.89 1.577-5.926.167-11.817.875-17.71 1.278-4.697.968-4.857-6.496-5.478-9.642-2.324-13.157-4.2-26.425-4.814-39.769 12.347-1.243 28.505-5.837 36-15-33.88-25.588-69.638-49.189-103.877-74.395-4.26-2.158-9.418-8.156-13.59-8.037-14.736 12.51-25.796 28.86-39.765 42.165-7.093 6.033-13.015 17.942-21.84 18.23-10.983.104-21.976-.018-32.956.037H1098c.705 9.749 6.892 18.327 8 28m155 170.5c.03.55.186 1.058.5 1.5 31.926 1.187 63.586 6.75 95.5 8-2.006 20.45-18.233 24.365-34 27v137h79V898c-12.114 2.13-27.919-3.884-37.834 3.359-32.88 18.959-68.027 34.139-103.166 48.142m68 1072.5h271v-64h-271zm0 95h271v-68h-271zm89 233c17.858 46.36 35.625 95.522 32.465 146.27 15.406 19.457 42.926 28.939 66.827 22.37 23.085-6.487 42.184-28.36 44.373-52.474 1.39-16.048-3.287-32.465-11.691-46.098-26.183-39.374-72.16-58.501-115.369-71.912-2.694-.735-5.378-1.701-8.211-1.663-2.939.343-6.216 2.667-8.394 3.507m29-420.75c11.934 2.054 25.335-.304 37.58.75h85.638c8.95-.393 19.33 2.05 25.256-4.975 2.814-3.244 7.005-6.792 8.526-10.525-7.463-6.529-15.783-14.694-22.465-20.853-8.277-5.658-14.409-16.762-22.035-21.647-7.644 7.755-20.142 11.467-29.65 13.12-7.707 1.88-14.183 6.861-21.098 10.474-20.588 11.134-40.585 23.678-61.752 33.656m191-281.875c14.836 16.715 27.77 35.178 36.488 55.898 3.425 7.977 6.536 16.109 8.482 24.59.973 4.025 2.161 8.025 2.631 12.145-.323 7.857 6.754 11.053 12.593 13.585 22.429 11.397 53.046 8.931 70.908-10.195 8.97-8.352 15.049-22.133 15.782-33.285.472-12.36-3.948-24.75-11.814-34.27-14.424-16.653-39.846-25.69-58.863-29.904-11.692-2.01-23.514-3.847-35.388-3.938-6.028.54-13.085-.6-18.572-.478-5.64.839-12.801-.424-17.332 2.629-1.436 1.262-3.673 2.387-4.915 3.223" style="fill:#000;fill-rule:evenodd;stroke:none"/></svg>