<svg xmlns="http://www.w3.org/2000/svg" width="3000" height="3000"><path d="M407 2715h2186c-120.11-729.14-243.257-1457.94-364-2187-121.653-40.09-243.099-81.112-364.7-121.395-91.164-30.407-182.32-60.766-273.474-91.162a32206 32206 0 0 1-51.529-17.183c-8.003-2.659-16.01-5.346-24-8-7.038-2.654-14.998-6.446-23.453-2.372-120.19 40.07-240.392 80.12-360.578 120.183C1011.124 447.878 891.186 488.387 771 528c-120.737 729.033-243.897 1457.913-364 2187m628-1397.847c11.43 22.375 22.555 45.208 33.928 67.682 10.815 23.274 23.798 45.696 34.072 69.165 11.728-.997 20.047-14.132 23.719-22.745 1.627-4.616 7.358-8.048 10.624-10.474 29.286-22.746 58.716-45.306 87.025-69.275 14.027-11.879 28.13-23.646 41.844-35.878 7.29-6.164 14.311-12.67 21.54-18.908 3.233-3.441 7.016-6.283 10.476-9.463 3.141-2.988 6.848-7.023 10.772-7.257 5.808 20.25 12.728 40.279 20.877 59.708 10.369 28.584 29.481 54.623 57.432 68.448 14.112 7.5 29.88 12.499 46.004 11.818 7.766-.278 16.668-3.213 23.068-6.171 3.367-1.612 6.613-3.45 9.765-5.416 2.942-1.658 5.634-5.09 8.854-5.387-2.49 10.565-13.119 19.525-18.363 27.45-14.466 12.617-30.29 26.528-33.635 46.87-2.92 14.427 1.664 30.566 12.473 40.655 15.497 15.925 42.38 18.626 61.656 8.568 19.884-8.951 29.258-34.993 33.364-52.682 4.585-20.935 5.533-42.653 3.579-63.972-1.336-16.092-4.515-31.874-8.295-47.525-2.517-14.177-8.549-27.436-11.779-41.364-4.362.118-8.719-.157-13-1 .475 11.34.092 22.745-3.187 33.703-2.421 10.512-7.197 20.25-10.813 30.297h-3c.509-18.655-3.256-37.078-8.69-54.869-1.704-6.725-3.86-13.288-5.972-19.877-2.737-11.603 1.549-23.613 1.664-35.284 3.017-36.052 8.584-71.885 10.998-107.97-3.374-.003-7.036-1.411-10-2-7.552 27.241-18.878 53.56-30.206 79.413-4.312 8.843-9.094 24.396-20.61 20.7-8.329-3.888-11.017-15.69-14.074-23.257-22.031-65.482-27.039-135.363-30.11-203.856h63.6c20.115-1.013 44.22 1.68 62.4-2v274c25.867-.475 52.216-.128 77.52-6.428 11.431-3.54 24.943-8.237 34.406-13.906 6.611-3.809 4.908-12.146 5.074-17.897V1251h206c-.925 23.377-3.329 46.674-5 70h-3c-6.045-12.27-20.975-21.258-31.184-27.532-13.013-7.161-27.377-11.448-41.887-14.33-9.048-1.352-18.118-2.811-27.237-3.472-4.626-.222-9.267-.697-13.892-.612-4.318-.72-7.863 3.872-10.8 4.946v2c18.258 10.535 32.798 27.265 46.924 42.693 12.796 16.076 25.355 33.896 30.076 54.307 7.245 2.01 14.22 6.123 22.021 5.816 3.92-.133 7.828-.869 11.468-2.298 3.51-1.446 6.581-4.248 10.511-4.518-2.43 20.55-6.543 41.037-11.994 60.994-4.085 12.73-9.624 29.756-20.642 36.695-10.361 6.117-22.617 5.56-34.124 5.311-17.984.041-35.908-1.387-53.833-2.378-8.8-.58-17.581-1.242-26.358-1.948-4.359-.053-8.777-.867-13.12-.233-4.12.367-2.406 8.136-2.929 10.559 24.53 3.45 53.198 14.237 70.865 28.692 9.693 8.004 16.823 21.579 19.201 32.69 3.833 13.562 2.947 27.837 4.434 41.618 38.125-2.888 80.195-3.155 113.465-25.91 24.565-14.558 38.849-41.197 48.22-67.046 14.954-42.53 20.35-87.791 25.126-132.374 2.404-22.73 3.836-45.546 5.547-68.325.406-6.085.673-12.185.988-18.268-.245-4.007.092-8.171 5.502-8.453 11.883-2.076 24.101-6.202 32.652-15.124-23.84-21.316-49.356-40.762-73.584-61.638-4.614-3.959-9.333-7.763-14.047-11.589-2.382-1.753-4.451-3.876-6.836-5.626-2.035-1.598-4.688-4.277-6.917-4.158-15.67 14.204-30.926 28.98-46.218 43.613-5.091 5.793-11.623 12.118-21.201 10.898H1620v-74h313.8c12.018-.14 27.67 1.742 35.2-13.5-15.19-14.774-32.369-27.388-48.974-40.475-8.563-6.492-16.96-13.183-25.672-19.468-4.297-3.138-8.437-6.482-12.648-9.728-3.48-3.125-10.07-6.638-10.706-10.829 6.098-1.893 13.565-7.181 17.695-10.325 4.991-4.731 2.72-14.626 3.305-21.962V830c11.813-1.193 26.093-7.275 33-16-34.215-28.79-72.062-53.422-106.5-82-9.044 9.422-18.174 18.742-26.994 28.375-5.799 6.31-13.528 14.128-19.608 21.227-5.764 7.55-13.194 7.096-21.34 6.398H1677v-3c19.56-13.113 37.74-29.453 56.628-43.721 4.727-3.688 9.37-7.495 14.052-11.233 7.303-6.416 18.035-4.806 26.652-9.263 9.566-3.936 14.143-10.809 17.668-19.283-56.506-12.328-115.038-19.245-171.5-31.5-2.388 3.222-1.04 8.994-1.516 13.456-1.648 32.491-1.606 65.1-3.984 97.544-37.773-12.081-74.268-28.654-112-41v269h-2.5c-24.009-25.065-50.357-47.635-75-72-7.646 12.081-15.972 23.893-23.779 35.906-4.118 6.133-8.177 12.296-12.295 18.43-4.054 4.672-7.844 14.668-13.426 15.664-.119-72.716 2.465-145.606 9-218 9.76-1.63 19.422-3.994 29.165-5.748 7.214-1.054 15.516-3.6 22.204-3.987 18.386 2.24 41.92 13.827 62.631-.765-40.788-34.205-79.746-71.141-120.5-105.5-42.834 32.689-88.966 60.957-135.97 87.215-6.012 3.305-11.98 6.665-18.136 9.692-4.833 3.207-9.96 6.659-16.549 2.66C1169.942 756.08 1132.959 737.226 1095 721v569.4c-.295 6.12 1.826 14.941-5.033 15.891-18.308 3.691-36.531 7.756-54.967 10.709zm25 707.43c1.166 2.83 4.885 5.365 7.27 8.015 2.697 2.834 7.199.789 9.955-.493 35.018-14.146 69.521-30.913 99.965-53.483 12.631-9.054 24.067-19.691 35.18-30.492 3.03-4.03 5.67-5.202 10.275-4.097 11.906 2.788 24.422-1.041 32.355-10.533-9.205-6.394-19.737-10.795-29.305-16.626-5.27-2.832-10.467-5.819-15.811-8.512-4.399-2.784-11.835-5.163-11.884-10.362 10.747-2.4 20.805-7.71 30.685-12.399 4.709-2.24 9.279-7.156 14.237-7.498 6.027-.259 12.053.019 18.078-.103-.108 23.835.132 47.64-.071 71.464-.222 4.778-1.39 11.461-5.38 13.414-7.711 3.264-16.386 1.522-24.395 1.27-8.395-.401-16.767-.873-25.154-1.148v11c13.389 2.304 27.412 5.816 36.424 17.005 9.412 10.76 10.173 28.757 10.576 40.995-13.285-1.923-24.887-10.31-38-13v352h-12c-2.148 20.504-19.215 35.514-35.892 45.015-14.638 9.628-30.975 16.004-47.84 20.401-25.748 8.746-57.968 32.31-52.735 66.759 1.222 11.755 6.358 22.863 14.056 31.735 14.207 14.325 39.074 21.367 57.173 19.497 29.897-3.772 55.346-25.06 69.978-50.503 15.681-27.347 20.695-59.9 17.26-90.904 10.913-.061 21.845-.681 32.674-1.937 10.41-.437 21.902-5.282 31.326-6.063.846 21.452 1.907 46.765-.26 66.39-1.018 7.85-2.279 15.646-3.978 23.368-1.67 5.839-4.548 13.008 1.275 18.053 14.074 18.41 37.523 29.059 60.616 26.954 21.278-2.605 42.771-16.5 50.464-37.181 8.422-22.141-2.39-46.138-18.459-61.592-13.673-16.632-36.353-29.035-53.487-37.918-3.935-1.968-7.833-4.12-12.171-5.074v-3c7.853-2.646 16.417-7.98 22.761-12.055 6.574-4.725 18.076-2.147 27.137-2.945H1789c-1.441 11.46-4.145 22.847-7.484 33.89-3.084 8.772-6.957 19.638-13.558 25.47-6.728 6.074-16.276 6.062-24.731 6.497-8.207.047-16.397-.525-24.587-.66-3.446-.432-7.823.34-10.465-1.214-12.885-21.174-35.324-33.861-58.39-41.217-11.868-4.01-24.218-6.293-36.523-8.423-11.947-2.131-24.708-5.073-36.262-.343v1.5c11.507 14.125 20.426 34.02 27.06 49.182 5.888 14.563 10.085 29.955 11.766 45.582-1.382 11.341 11 17.967 20.01 21.602 15.575 6.83 34.327 6.257 49.345-1.998 7.355-3.678 13.63-9.26 18.37-15.95a63.7 63.7 0 0 0 5.979-11.088c1.595-3.313 2.094-8.77 4.47-10.83 13.39 7.897 20.592 24.499 23.504 39.074 2.808 16.81 3.34 33.92 3.496 50.926 23.284.119 46.724-2.716 69.093-9.294 15.631-4.668 31.208-10.375 44.433-20.151 19.681-14.193 32.246-35.876 39.826-58.469 7.672-24.4 13.1-49.613 15.648-75.086 12.56-1.248 27.84-5.807 36-14.5-15.154-11.81-29.753-24.323-44.875-36.18-7.364-6.107-15.062-11.82-22.348-18.013-3.736-3.197-7.664-6.143-11.457-9.26-3.215-2.799-8.97-6.197-9.32-10.047h45.6c11.253.129 22.51.126 33.73-.845 7.2-.74 15.299-3.663 19.156-10.25 3.416-4.356-6.148-8.691-8.173-11.241-12.708-10.194-25.426-20.398-38.52-30.08-17.352-13.36-35.326-25.891-52.688-39.225-4.68-2.862-10.512-8.594-15.105-9.359-10.998 16.033-25.718 30.303-37.475 45.978-5.615 6.641-11.032 13.445-16.718 20.023-2.95 2.54-5.296 7.947-8.777 8.529-144.257 1.34-288.73-.244-433.03.47v-43h313v14.4c.11 3.463-.194 7.548.251 10.696.103 5.57 9.918 3.39 13.157 3.904 5.293-.054 10.584.087 15.865-.1 17.605-1.305 34.946-5.177 51.843-10.112 15.71-5.564 35.665-10.58 48.12-19.961 3.783-3.572 2.487-10.397 2.764-14.95V2115c11.686-2.163 25.887-8.47 33-17-37.99-29.91-78.247-57.356-116.5-87-15.184 14.924-28.92 31.179-44.102 46.102-6.013 5.343-11.541 14.452-18.928 13.898H1455v-3c16.924-4.943 33.12-12.717 49.642-18.904 7.711-3.326 17.672-1.242 26.654-5.875 7.6-3.022 14.652-8.962 16.704-17.221-4.313.061-9.133-1.542-13-2v-3c63.337-26.93 124.818-71.662 156-135h3c.012 21.873-.219 43.75.62 65.595.622 14.668 1.83 32.573 7.686 45.01 10.264 22.242 37.075 25.44 56.487 26.749 24.48 1.065 49.01.455 73.492.61 32.103-2.17 67.528-1.665 95.708-19.83 13.182-9.348 19.947-25.527 17.664-41.713-1.454-18.155-14.242-27.552-28.657-33.421-.558-22.692-2.354-45.32-3-68-10.316-1.488-11.508 6.857-14.466 14.639-6.947 15.85-13.3 32.107-22.258 46.986-8.255 15.44-22.966 10.67-37.05 11.375-11.178-.01-22.36.012-33.537-.006-3.849.232-7.916-.44-10.325-3.696-2.476-6.782-.707-14.403-1.364-21.432V1844c10.477-2.29 24.976-7.138 27-21-34.5-4.023-69.41-5.534-104-9 .505-7.524 3.046-16.165 4-23h177.6c18.127-.177 41.332 2.885 49.4-14.5-15.699-12.245-30.887-25.44-47.116-37.08-5.436-4.246-14.28-7.777-10.022-16.579 9.56-29.824-21.234-50.121-42.547-57.565-13.199-4.508-27.022-6.75-40.823-8.325-7.363-.49-14.713-.897-22.084-.95-6.746-.15-14.155-1.519-19.408 3.499 7.79 13.797 18.16 26.558 22.41 42.242 2.799 8.046 5.319 16.257 6.04 24.792 1.332 7.291-2.312 18.03 7.55 21.466.063 3.549-2.542 6.073-4.814 8.566-3.74 5.746-8.038 9.185-14.591 8.434H1726c1.948-29.687 6.647-59.196 7-89 12.177-1.543 28.417-5.88 31-23-50.374-3.217-100.676-8.113-151-12-.247 41.342-1.157 82.68-2 124h-99c2.726 7.722 4.982 19.29 8.394 25.142 9.362 1.924 19.343.078 28.858.858H1609c-4.293 48.113-14.15 96.351-35.934 139.83a263.9 263.9 0 0 1-38.09 57.205c-7.836 8.83-15.583 17.97-24.782 25.445-4.48 4.965-10.922 2.877-16.123 1.62-5.55-.868-11.91-2.902-17.071-3.1v-4c21.984-2.127 40.514-23.432 41.873-44.945.641-13.084-4.653-26.312-13.447-35.928-9.012-8.57-20.159-14.413-32.085-17.848-16.13-5.022-33.24-6.006-50.001-4.8-8.63.467-17.21 1.549-25.76 2.779-4.121.576-8.205 1.357-12.276 2.176-3.588.97-8.7.732-10.893 3.414-1.489 1.538-2.9 3.14-4.411 4.652 7.9 5.486 16.359 10.265 23.366 16.992 20.687 18.971 43.446 40.798 49.634 69.508-16.107-2.556-31.995-6.858-48-10-4.755 25.931-11.663 51.45-18 77-10.114-.128-22.421 1.018-31.178-2.67-26.986-9.956-53.66-20.932-80.822-30.33v-3c13.406-.612 28.997-3.776 41.056-5.91 18.605-3.367 39.434-11.033 47.873-29.693 8.74-19.645 7.872-41.763 8.071-62.685V1878h27v14c28.381 1.114 56.687-3.64 83.007-14.408 6.275-2.435 12.673-4.849 18.18-8.797 5.367-3.455 5.119-8.833 4.813-14.182V1804c5.957-1.399 14.479-4.65 17-9.5-11.852-9.22-24.422-17.584-36.447-26.576-6.141-4.5-12.26-9.022-18.422-13.468-3.138-2.247-6.264-4.493-9.32-6.834-2.43-1.784-6.553-3.953-6.811-7.622h112.8c9.216.209 22.834-1.868 27.2-13.656-30.92-25.947-64.355-49.502-97.5-72.344-14.755 16.452-28.963 33.411-43.33 50.19-4.2 3.975-7.143 10.273-13.003 10.705-19.054.299-38.125-.054-57.167.105v-41c5.916-.756 12.947-2.424 17.677-5.27 6.584-3.475 7.74-9.578 10.323-15.23-47.518-4.074-95.432-7.203-143-11.5v73c-62.929.76-126.151-.926-189 .5 2.738 7.67 5.155 17.267 7 24.5h61v167h6c-.333 5.266-4.45 11.468-7.246 16.879-20.393 35.612-42.381 71.96-72.754 100.121zm12-525.083c2.287 8.135 4.71 16.368 7 24.5h304.8c11.799-.004 26.907 1.434 34.2-13.5-34.669-32.195-70.332-63.586-107-93.5-13.63 16.366-24.964 34.824-38.011 51.695-4.638 6.636-9.612 13.03-14.185 19.705-2.138 2.782-3.904 5.9-6.427 8.356-4.918 4.092-14.564 1.144-21.49 2.244H1072zm90 242v1.5c20.195 6.435 39.794 15.356 59.788 22.502 7.434 2.536 15.907 6.604 22.936 8.2 32.086.851 64.265-.156 96.36.298h24.578c5.903-.1 11.904.284 17.747-.554 6.221-4.947 11.375-11.145 17.193-16.548 4.416-5.997 14.283-10.13 15.398-16.898h-254zm47-729.5h65c-2.61-67.924.841-137.532-.5-205-21.182 4.197-43.416 3.899-64.5 8zm0 268c15.97-1.276 31.263-7.285 46.997-9.891 15.688-3.62 31.366-7.303 47.003-11.109-17.465-72.714-25.292-147.382-28-222h-33.6c-10.322 1.013-23.166-1.347-32.4 1zm31 573h149v-54h-149zm106 290h313v-46h-313zm0 73h313v-47h-313zm0 138h414.6c7.634-.727 17.318 1.085 23.353-1.074 8.058-6.51 15.616-13.686 23.294-20.637 4.015-3.391 8-6.798 11.68-10.552 3.413-3.162 8.72-6.381 9.073-10.737h-482zm77 39c.449 5.115 4.382 9.053 6.2 13.646 8.005 17.711 14.268 36.232 17.704 55.396 3.45 15.15 3.041 30.713 3.236 46.091.272 4.966 6.11 7.924 9.502 10.842 15.246 11.3 35.477 16.679 54.072 11.347 17.954-4.56 32.999-17.994 39.12-35.496 5.289-13.92 1.987-29.566-4.367-42.532-10.885-18.672-29.721-31.407-48.562-40.85-20.034-9.674-41.744-15.57-63.387-20.275-5.226-1.706-9.288-.747-13.518 1.831m139-1069c2.315 27.193 6.132 54.38 5 81.799.346 20.62-1.436 41.171-4.629 61.512-1.463 8.082 5.463 13.464 10.527 17.595 9.648 8.416 23.49 11.87 35.671 6.997 17.935-6.63 28.885-24.798 31.712-42.872 3.663-18.851-.838-38.312-8.462-55.608-12.046-27.895-33.678-50.702-56.95-69.562-3.586-2.492-9.162-1.134-12.869.139m58-422h155v-88h-155zm0 115h155v-89h-155zm0 110h175.8c4.185-.077 8.728.314 12.763-.713 9.516-9.056 16.478-20.576 25.25-30.31a533 533 0 0 0 12.384-15.259c3.302-5.356 9.88-10.277 10.803-15.718-13.286 2.396-25.767 8.755-39.373 10.078-14.06 2.62-28.415 1.858-42.627 1.922v-35h-155zm7 179.414c24.43 35.335 44.002 76.755 44.406 120.713.787 4.74 8.813 7.814 12.082 10.225 18.909 10.719 38.698 3.35 49.423-12.775 11.368-16.658 9.848-38.579.33-55.661-19.698-35.075-57.462-54.843-94.626-65.759-3.958-1.457-8.382 2.21-11.615 2.843z" style="fill:#fedca9;fill-rule:evenodd;stroke:none"/><path d="M1103.5 1456c10.921-3.082 19.308-11.918 23.525-22.181 3.153-7.898 13.983-13.216 21.432-19.887 55.434-41.373 107.427-87.056 159.043-132.932 7.047 19.419 12.244 39.85 20.975 58.726 5.516 14.375 11.545 28.957 22.19 40.383 25.474 32.023 83.413 60.253 122.835 23.891-4.403 10.18-14.029 21.044-20.928 28.517-16.938 12.822-31.71 32.21-31.539 54.501-.231 16.289 8.743 31.744 23.045 39.597 20.765 11.366 50.12 9.118 67.06-8.407 15.704-18.474 21.784-42.94 24.065-66.516 1.686-18.63.992-37.325-1.724-55.803-2.622-18.614-7.167-36.93-12.236-54.999-1.459-6.901-5.301-14.481-6.243-20.89-5.025.072-10.013-.473-15-1 1.248 22.32-4.403 44.164-14.5 64l-.5-1.458c.481-18.736-3.862-37.113-9.119-54.978-1.65-6.68-4.003-13.147-5.902-19.742-1.869-11.646 2.411-23.52 2.338-35.187 1.947-17.844 3.747-35.694 5.677-53.537 1.28-17.722 4.695-35.32 5.006-53.098-4.08-.108-7.927-1.889-12-2-7.382 26.968-18.694 52.924-29.786 78.545-2.646 4.92-4.55 10.181-7.422 14.962-2.25 3.602-6.876 9.58-12.428 6.193-7.686-4.226-10.204-15.523-13.254-22.844-21.983-64.83-26.743-134.035-30.11-201.856h93.6c9.816-.888 22.156 1.554 29.9-2 1.426 91.197-.26 182.734.5 274 26.557-.409 53.605-.045 79.585-6.44 11.704-3.765 23.683-7.645 34.34-13.894 6.612-3.809 4.91-12.146 5.075-17.897V1252h204c-1.486 22.186-2.806 44.401-5 66.531l-.5 1.469c-11.221-17.835-34.036-30.427-51.825-36.23-11.053-3.482-22.33-6.17-33.854-7.433-5.806-.794-11.616-1.543-17.467-1.815-5.124-1.188-12.921.452-16.854-1.522-2.357 2.865-6.473 5.767-8.5 8 7.934 7.22 17.961 12.333 25.102 20.602 22.22 22.108 45.093 46.996 52.898 78.398 7.322 2.108 14.41 6.112 22.292 5.908 7.676.28 15.112-2.386 21.208-6.908-1.766 20.297-6.802 40.851-11.952 60.617-4.049 12.748-9.924 29.558-21.49 35.773-10.66 5.629-23 4.763-34.59 4.61-17.895-.265-35.799-1.361-53.632-2.684-8.884-.572-17.74-1.411-26.62-1.856-4.17-.09-8.551-.839-12.603.28-2.868 2.49-.842 9.137-1.613 12.26 24.53 3.45 53.198 14.237 70.865 28.692 21.282 18.391 23.189 48.348 23.135 74.308 16.786-2.159 33.99-.329 50.702-3.773 27.031-3.973 54.445-11.87 75.948-29.588 31.017-28.095 43.112-70.516 51.14-110.008 8.222-41.86 12.052-84.428 15.37-126.889 2.04-15.79 1.454-31.849 3.34-47.624 1.465-3.162 7.684-2.216 10.259-3.582 10.391-3.032 23.486-6.639 28.241-16.536-35.792-25.625-67.58-58.676-103.664-84-14.142 14.867-32.65 30.309-45.706 43.87-5.284 4.88-10.952 12.692-20.25 12.13H1621v-72h316.2c7.357.043 15.049.28 21.954-2.72 4.422-2.288 12.31-8.362 9.627-13.39-29.44-28.902-65.035-51.173-96.781-77.39 9.54-4.918 22.467-10.125 21-21.388V831c12.094-1.408 27.71-7.72 34-17.5-18.648-15.087-38.435-28.729-57.078-43.815-14.192-10.868-28.48-21.626-42.778-32.35-2.542-2.167-5.185-4.238-8.102-5.837-2.805-.11-5.111 3.642-7.517 5.477-8.248 8.706-16.148 17.707-24.429 26.38-6.567 6.135-12.322 13.006-18.469 19.512-4.791 5.718-14.307 3.905-20.866 4.133H1679.5l-1.5-.5c19.562-14.536 38.746-30.005 57.875-45.179 4.81-3.831 9.563-7.74 14.407-11.517 4.027-4.092 8.497-3.864 13.499-4.543 11.733-2.117 27.01-9.462 29.219-25.261-46.299-8.673-92.818-16.161-139.099-24.881-11.43-1.02-23.16-5.345-34.523-5.265-2.558 3.022-.628 9.578-1.4 13.047-.494 16.302-.944 32.628-1.743 48.912-1.322 15.5-.014 34.136-2.735 48.187-36.561-14.92-74.333-27.415-111-42-2.185 89.76 1.185 180.302-1 270-11.834-12.456-26.678-26.04-37.975-36.975-6.705-5.967-13.411-11.865-19.53-18.449-3.338-2.836-6.774-5.56-9.728-8.809-3.055-2.742-6.278-7.27-10.267-7.767-6.435 12.321-15.862 23.429-22.974 35.46-8.156 11.267-14.91 23.623-23.526 34.54-1.552-71.89 2.774-144.35 8.5-216 9.76-1.63 19.422-3.994 29.165-5.748 7.318-.908 15.718-3.866 22.515-3.809 18.24 3.374 43.178 13.34 63.32-1.943-41.303-35.25-81.29-72.14-122.5-107.5-42.887 33.407-89.629 61.644-136.97 88.215-6.012 3.305-11.98 6.665-18.136 9.692-2.694 1.428-5.206 3.397-8.25 4.067-2.136 1.204-5.264-1.589-7.88-2.06-18.926-8.452-37.57-17.467-56.446-26.009-18.884-8.697-37.719-17.776-56.818-25.905v571.8c-.02 6.067 1.948 14.331-6.78 14.86-17.707 3.576-35.398 7.382-53.22 10.34.74 5.527 5.574 11.769 7.928 17.835 20.955 40.454 40.102 82.022 61.572 122.165m-45.5 568.583c1.28 3.11 5.473 5.781 7.981 8.787 3.415 3.584 8.054 1.596 11.64-.016 36.6-14.603 72.348-32.408 103.94-56.14 13.293-9.947 25.279-21.452 36.939-33.214 12.41 4.935 28.72 1.44 37.065-9.441.407-.744.937-1.389 1.435-2.059-9.778-5.386-19.653-10.671-29.375-16.151-5.167-2.614-10.153-5.509-15.265-8.205-3.784-3.01-11.803-5.158-13.36-9.144 10.153-2.124 21.227-7.925 29.76-11.921 4.7-1.89 9.798-7.249 14.032-7.841 5.71-.537 11.485-.019 17.208-.238-.115 23.21.14 46.429-.076 69.627-.333 4.815-1.427 12.026-5.975 13.558-7.77 2.814-16.128 1.165-24.091.756-8.29-.31-16.58-.717-24.858-.941v13c13.005 2.363 26.726 5.545 35.71 16.247 9.678 10.125 10.795 27.825 11.29 39.753-12.884-3.93-25.113-10.076-38-14v353h-12c-2.158 20.693-19.45 35.711-36.269 45.227-14.775 9.927-31.482 15.85-48.486 20.538-25.83 8.077-56.871 32.821-51.673 68.713 1.303 11.816 6.515 23.003 14.389 31.837 14.633 14.439 39.827 21.045 58.205 19.165 29.938-3.557 55.596-24.725 70.3-50.151 15.577-27.356 21.308-60.237 17.534-91.329 20.966.532 41.83-2.593 62-8 .819 21.518 2.044 46.96-.589 66.607-1.149 7.905-2.289 15.823-4.236 23.573-.704 3.333-1.865 6.574-2.139 9.985-.677 2.62 1.949 5.044 3.786 7.395 13.831 18.294 37.263 29.068 60.026 27.442 21.993-1.504 43.914-15.336 52.7-35.905 4.395-10.483 4.332-24.338 1.388-34.202-5.036-15.497-17.589-30.934-28.886-40.417-11.91-10.978-26.154-19.258-40.44-26.668-5.023-2.84-10.37-5.006-15.61-7.31 7.653-3.971 15.779-7.374 22.761-12.555 6.574-4.725 18.077-2.147 27.137-2.945H1788c-2.424 10.993-3.993 22.232-7.826 32.888-3.47 9.03-6.504 19.197-14.432 25.48-7.24 5.22-16.752 5.1-25.273 5.504-8.158-.133-16.28-.659-24.438-.824-7.721 1.215-11.015-7.093-14.175-11.425-15.322-17.177-37.202-27.032-58.929-33.211-11.036-3.337-22.56-4.716-33.81-7.046-11.292-1.718-25.936-4.87-34.117 2.134 11.079 15.316 20.42 32.085 27.464 49.66 6.033 14.695 10.426 30.155 12.259 45.953.218 5.294-.488 11.226 5.86 14.624 16.013 12.357 37.47 16.549 56.724 9.976 9.38-3.078 17.926-8.767 24.417-16.164 3.31-3.62 5.548-7.977 7.859-12.249 2.052-3.982 2.886-10.247 4.917-13.3 11.648 10.285 20.127 24.004 22.102 39.61 2.726 16.642 3.228 33.574 3.398 50.39 22.711.345 49.503-2.734 69.474-8.856 15.867-4.554 31.74-10.29 45.23-20.025 19.915-14.054 32.845-35.806 40.446-58.532 7.873-24.528 13.241-49.94 15.85-75.587 13.301-1.597 27.534-5.43 37-15.5-29.548-24.128-59.3-48.074-89-72 18.268-1.402 36.955.235 55.296-.5 14.53-.404 37.727 2.948 45.704-15.5-18.475-15.898-38.09-30.461-57.517-45.14-9.891-7.579-19.98-14.87-30.009-22.254-9.854-6.453-20.064-16.364-29.849-21.106-12.576 15.363-25.503 30.462-38.104 45.812-5.683 6.557-11.03 13.383-16.68 19.964-2.491 3.275-5.303 6.298-8.096 9.286-8.805 2.026-18.344.162-27.312.938H1347v-41h311v14.4c.11 3.463-.194 7.548.251 10.696.11 5.587 9.933 3.376 13.17 3.904 5.326-.03 10.639.042 15.953-.037 18.286-.93 36.256-5.195 53.78-10.186 15.684-5.555 35.641-10.58 48.082-19.95 3.783-3.572 2.487-10.397 2.764-14.95V2116c11.957-2.379 27.51-8.909 34-18.5-26.204-20.36-53.566-39.26-79.915-59.427-9.963-7.404-20.098-14.562-29.886-22.181-4.066-3.066-8.65-7.97-13.165-2.402-14.929 14.6-28.356 30.628-43.267 45.243-2.87 2.785-5.642 5.624-8.19 8.703-2.805 3.063-7.158 2.568-11.075 2.564-61.465-.76-123.08.926-184.502-.5 16.782-6.264 33.533-12.663 50.063-19.58 7.958-3.167 18.2-1.047 27.297-6.155 7.44-3.356 15.125-9.899 15.64-18.765-4.447-.139-8.8-1.148-13-2.5 63.742-27.985 124.312-71.829 156.5-135.5l.5 1.432c-.012 21.634-.203 43.242.643 64.86.645 14.611 1.891 32.53 7.932 44.83 10.409 21.878 37.02 24.845 56.218 26.232 24.106 1.102 48.219.407 72.335.642 17.506-.59 35.134-1.229 52.46-3.945 20.29-3.634 48.873-8.532 60.597-33.242 5.428-11.308 4.49-26.975.698-37.476-4.331-11.129-15.644-17.73-25.883-22.333-.558-22.692-2.354-45.32-3-68-4.31-.054-10.494-.89-12.358 4.558-1.98 4.438-3.517 9.054-5.584 13.445-6.611 15.302-12.973 30.866-21.671 45.142-8.006 13.368-25.15 9.457-36.759 9.855-10.79-.043-21.574.052-32.352-.028-10.623.68-10.966-8.272-10.276-16.114V1845c6.263-1.154 12.597-3.027 17.765-6.916 6.306-3.924 7.695-9.766 10.235-15.584-34.557-5.237-70.221-5.335-105-9.5.842-6.846 3.157-14.735 4-21h178.8c13.208-.79 43.736 4.306 48.2-17-19.757-14.45-38.645-31.524-59-45.5 5.728-13.605 5.445-30.665-5.171-42.065-9.943-10.732-22.667-18.966-36.622-23.518-13.625-4.31-27.867-6.8-42.071-8.137-7.556-.479-15.124-.865-22.685-.781-6.694-.428-13.63-2.273-19.451 4.501 8.356 13.512 18.498 26.6 23.07 42.222 2.894 8.182 5.507 16.526 6.318 25.208.673 8.324-1.447 19.626 7.612 22.07v1.5c-4.46 4.101-7.711 9.463-12.724 12.949-20.67 1.57-41.561-.283-62.276.551 2.484-28.966 6.29-57.895 7-87 12.498-1.455 30.255-6.61 31-25-51.054-2.986-101.969-8.569-153-12-.247 41.342-1.157 82.68-2 124h-99c1.202 8.059 4.916 17.222 6.791 24.427 1.483 4.412 7.628 3.506 11.361 3.573h13.729c21.634.747 43.565-.914 65.119.5-5.13 47.14-14.227 95.134-36.179 137.85-10.016 20.096-22.375 38.976-37.193 55.864-7.345 8.49-16.19 18.491-24.093 25.14-4.684 5.265-9.73 4.763-15.317 2.765-5.601-.834-12.008-2.93-17.218-3.119v-2c21.996-2.127 40.512-23.439 41.875-44.957 1.037-13.494-3.93-27.042-12.748-37.21-9.009-9.088-20.637-14.9-32.786-18.554-16.542-5.135-34.115-6.008-51.304-4.844-8.655.433-17.248 1.466-25.812 2.726-4.137.571-8.239 1.335-12.325 2.16-3.722 1.115-9.18.707-11.462 3.52-1.84 1.869-3.551 3.836-5.438 5.659 7.274 5.935 16.079 9.882 22.772 16.653 21.888 18.503 42.6 40.855 51.228 68.847-15.974-3.254-31.914-7.307-48-10-4.755 25.931-11.663 51.45-18 77-10.077-.098-20.65 1.112-30.12-3.044-26.526-10.409-53.4-19.95-79.88-30.456 18.165-2.198 36.615-4.198 54.178-9.728 12.127-3.538 23.965-9.672 31.368-20.327 11.037-18.124 11.005-40.528 11.454-60.96V1879h25v14c28.711 1.206 57.392-3.159 84.069-14.032 6.363-2.596 13.039-4.83 18.678-8.882 5.548-3.19 5.684-8.498 5.253-13.875V1805c6.559-1.366 15.251-5.278 18-10.5-23.373-18.417-48.57-34.655-72-53 23.89-1.424 48.203.257 72.169-.5h27.53c14.284-.001 34.385 2.253 39.553-12.77 1.449-4.875-6.743-8.516-9.1-11.329-27.7-22.268-57.03-42.361-85.82-63.143a7.1 7.1 0 0 0-2.832-1.758c-15.004 16.16-28.719 33.5-43.314 50.025-4.3 3.292-7.539 10.728-12.32 11.61-18.899 1.04-37.945-.189-56.866.365v-39c6.26-.77 13.717-2.588 18.58-5.855 5.71-3.797 8.546-10.617 9.42-17.145-48.411-2.42-96.628-7.922-145-11v73h-189c1.181 9.25 5.624 17.81 7 27h61v167h6c-9.026 21.841-22.778 41.604-35.574 61.335-13.462 19.364-27.926 38.779-45.426 54.665zm12-526.333c3.42 8.47 4.96 18.073 8 26.75h258.6c21.484-.865 43.1 1.064 64.534-.597 6.767-1.137 14.044-4.7 16.677-11.523 2.61-5.728-7.89-10.485-10.376-14.05-31.424-28.758-63.912-57.062-96.935-83.83-13.268 16.993-25.307 34.996-38.202 52.28-4.708 6.591-9.517 13.103-14.217 19.688-2.035 2.86-3.958 5.851-6.34 8.445-4.936 4.364-14.71 1.672-21.855 2.587H1070zm93 243c17.815 7.295 36.515 14.114 54.556 21.17 6.908 2.807 13.92 5.33 20.825 8.138 11.82 4.324 29.155 1.374 43.758 2.442h67.138c10.684-.565 23.446.759 33.175-.58 7.716-6.15 13.941-14.062 21.302-20.614 3.875-3.288 7.829-6.514 11.246-10.306-83.787-1.046-168.177-.204-252-.25m47-730.25h63c-2.643-67.211.863-136.288-.5-203-20.05 4.754-42.315 3.562-62.5 8zm0 268c30.71-6.43 61.715-13.394 92-21.5-18.6-71.418-24.53-145.968-28-219.5h-32.4c-10.447 1.074-23.083-1.408-31.6 1zm31 573h147v-52h-147zm106 290h311v-44h-311zm0 73h311v-45h-311zm0 138h410.4c7.691-.457 16.89.612 23.887-.465 4.768-1.826 8.27-6.902 12.188-9.517 10.762-10.625 22.87-19.774 33.525-30.518-159.834-1.426-320.08.26-480-.5zm73 40.375c11.08 16.512 17.234 35.887 22.707 54.849 4.325 20.023 8.739 44.688 5.293 63.526 8.292 6.487 16.552 13.482 26.632 17.099 15.553 6.398 33.656 6.372 49.007-.758 15.019-6.374 26.377-19.745 31.206-35.188 4.683-15.218-.472-34.505-8.232-46.336-8.491-12.07-20.294-21.546-32.76-29.161-12.916-8.05-27.182-13.506-41.589-18.157-7.495-2.305-15.11-4.29-22.67-6.344-7.175-1.544-17.67-4.973-23.692-2.686-1.846 1.063-4.525 2.124-5.902 3.156m140-1070.11c5.298 30.795 6.279 62.406 5.965 93.635-.224 11.687-1.253 23.3-2.55 34.895-.58 9.304-5.467 21.312 1.232 27.289 5.42 5.902 11.892 10.975 19.402 13.912 14.391 5.552 31.39.48 41.32-10.866 16.464-15.136 19.485-43.546 15.931-62.317-3.594-21.111-13.634-40.92-26.53-57.772-12.146-15.16-25.533-30.14-41.802-41.005-3.059-1.633-9.56 2.328-12.968 1.964zM1621 901h153v-86h-153zm0 115h153v-87h-153zm0 110h172.8c4.36-.044 8.745.204 13.054-.478 5.195-3.37 9.236-10.449 13.148-14.525 12.145-14.705 23.82-29.826 35.998-44.497-12.744 2.448-25.562 8.76-38.88 9.828-14.236 2.417-28.771 1.485-43.12 1.672v-35h-153zm4 180.531c5.971 9.37 13.392 18.149 18.324 28.277 9.4 18.17 18.007 36.993 22.629 57.013 1.697 7.409 2.999 14.96 3.658 22.534.938 6.187-1.567 14.896 5.157 19.182 8.762 6.995 22.223 11.688 32.51 9.718 17.277-2.837 30.201-17.856 33.73-34.506 3.447-17.873-2.485-36.452-13.11-50.777-21.385-29.309-54.99-46.28-89.095-56.101-5.032-1.284-9.503 2.236-13.803 4.129z" style="fill:#000;fill-rule:evenodd;stroke:none"/></svg>