<svg xmlns="http://www.w3.org/2000/svg" width="3000" height="3000"><path d="M364 2760.5v1.5h2272v-1.5c-68.931-409.09-136.257-818.54-204.874-1227.691-51.076-306.848-102.33-613.661-153.4-920.497-4.868-28.824-9.564-57.688-14.431-86.508-1.116-7.008-2.365-13.985-3.488-20.978-1.2-6.774-.246-15.245-9.425-16.859-109.868-36.632-219.702-73.24-329.563-109.867-95.996-32.013-192.02-63.992-288-96-41.993-13.978-83.98-28.011-125.966-41.994-5.663-2.605-10.407-1.693-15.513.621-156.173 52.06-312.354 104.114-468.521 156.173-58.68 19.531-117.334 39.097-175.992 58.657-25.668 8.506-51.298 17.139-76.962 25.643-6.176 2.075-12.369 4.11-18.537 6.195-3.02 1.124-6.483 1.813-8.8 4.255-62.934 375.423-125.132 751.075-187.889 1126.544C490.857 1998.664 428.048 2380.37 364 2760.5m658-1179.208c2.513 3.456 3.783 9.262 7.035 11.252 4.684-.606 9.213-1.93 13.655-3.58 62.373-18.337 123.524-41.277 182.157-69.394 57.46-27.89 112.208-62.077 159.886-104.806 20.057-19.352 39.905-39.007 56.543-61.484 51.036-67.17 83.307-148.179 96.724-231.28h4c18.559 97.231 50.243 193.97 103.886 277.936 26.022 41.044 57.259 79.037 93.103 111.848 34.938 32.483 74.726 59.387 116.511 82.216 4.952-32.923 13.657-67.504 36.995-92.801 22.33-24.548 54.13-39.578 86.505-45.199v-11c-47.96-13.348-95.171-30.545-140.456-51.266-65.164-32.03-128.803-70.439-179.52-123.21-52.553-51.252-91.748-117.34-110.024-188.524h347.4c13.191.208 31.659 1.87 39.6-13.5-22.668-20.066-46.257-39.15-70.213-57.663-11.725-9.492-23.717-18.627-35.701-27.763-6.075-4.548-12.165-9.064-18.202-13.654-6.18-3.776-12.54-10.207-18.884-12.42-12.2 18.465-28.335 35.009-41.163 53.213-10.662 13.233-20.918 26.798-31.598 40-4.465 7.051-11.289 6.197-18.327 5.787H1548c4.78-44.623 8.232-89.4 9.018-134.297 1.843-46.551 3.035-93.119 3.982-139.703h360.6c13.181.205 32.083 2.113 41.4-13.5-45.473-40.553-94.028-78.106-143.5-113.5-19.55 23.353-37.563 48.058-56.697 71.756-4.137 5.333-8.243 10.684-12.382 16.003-3.984 4.346-8.48 12.47-13.784 13.076-232.214.47-464.43-.085-696.637.165 1.637 8.438 5.165 18.134 6 26h352c-1.2 91.329.726 182.847-6 274h-310c.976 8.838 4.407 17.279 6 26h301c-9.326 109.282-43.297 219.522-113.75 305.47-33.658 42.561-73.814 79.73-117.711 111.494-42.544 31.292-88.59 58.053-135.539 82.036zM1153 2280c-.092 15.156.48 30.974-5.15 45.4-8.298 25.377-24.946 47.627-45.203 64.703-16.718 14.61-39.5 21.112-54.88 37.63-15.063 13.564-26.31 32.836-24.737 53.742.77 17.745 7.257 35.541 18.698 49.157 21.15 23.658 58.077 32.086 87.375 20.332 21.815-8.42 39.078-26.135 50.49-46.128 18.753-31.596 22.597-69.922 19.663-105.793-3.255-35.564-14.524-69.927-29.335-102.226-1.79-3.934-3.318-7.969-5.414-11.751-2.126-5.267-6.696-5.491-11.507-5.066m13 0c30.517.068 61.66-.253 91.026-9.587 12.995-4.425 25.906-9.446 37.415-17.046 5.507-3.96 13.037-8.352 14.941-14.161 1.392-7.624.05-15.525.618-23.206h480c-1.87 36.564-7.455 72.912-12.521 109.13-4.687 27-9.188 54.151-16.93 80.487-5.342 17.91-12.426 40.052-24.534 52.86-12.098 12.858-27.008 12.994-42.071 12.523-47.385-.069-94.852-3.429-141.944-8 .515-4.648 4.922-9.655 6.376-14.951 8.59-20.451 6.402-43.8-2.46-63.771-12.567-28.285-36.224-50.314-61.642-67.112-26.636-16.533-56.217-29.075-86.39-37.455-3.29-.439-7.261 2.235-8.884 4.289 23.543 44.752 38.596 94.487 45.093 144.612.861 7.007 1.043 14.078.907 21.125.205 5.725-1.216 12.46 3.17 16.865 14.237 12.675 32.696 22.672 52.249 22.397 19.674.973 37.607-10.355 49.581-24.999h2c.217 2.714-.408 7.494 2.174 8.604 3 .84 6.038 1.912 9.153 2.368 30.837 7.198 62.741 16.624 87.646 37.215 13.02 9.904 21.608 24.637 25.28 40.35 3.783 16.877 3.798 34.275 4.747 51.463 33.348-.728 67.22-1.7 99.63-10.448 22.551-6.122 43.819-17.052 61.825-31.9 25.79-23.262 41.002-55.99 51.616-88.386 11.062-34.726 18.149-70.616 23.897-106.555 6.128-41.74 11.951-83.621 15.032-125.711 14.57-1.205 30.569-6.093 40-18-39.259-33.87-79.852-66.54-119.5-100-16.816 14.32-32.037 30.37-48.53 45.021-6.187 5.554-11.853 11.657-18.325 16.883-5.704 6.939-14.928 4.918-22.265 5.096H1593v-123h237.6c9.224-.224 20.21-.04 28.538-1.82 3.73-.895 7.863-3.003 10.443-5.393 2.056-2.232 6.298-6.518 4.003-9.023-39.826-33.294-81.75-64.86-124.084-94.764-20.174 23.08-38.438 47.829-58.262 71.213-4.438 5.854-9.001 14.145-18.243 12.787H1593v-125h219c12.211-.026 24.44.031 36.641-.017 9.595.01 22.797-2.842 26.359-14.522-39.615-34.74-83.299-64.45-125-96.461-20.346 23.191-38.642 48.371-58.815 71.764-4.665 5.481-9.043 14.196-17.97 13.236H1593v-123h256.2c10.569.052 21.178.255 31.683-1.024 6.768-.885 16.989-3.895 20.026-11.553 1.391-3.373-3.11-5.86-5.168-8.096-20.259-16.74-40.998-32.882-61.948-48.744-10.46-7.9-20.77-16.033-31.366-23.742-10.678-6.817-21.57-17.789-32.083-22.841-15.782 19.266-31.344 38.729-47.113 57.994-6.923 8.536-13.9 17.04-20.727 25.65-3.659 5.527-8.865 5.909-14.587 5.356h-344.255c-7.919-.366-17.688.96-24.614-1.78-51.197-17.794-101.685-38.086-153.048-55.22zm98 5c5.472 39.098 7.952 78.956 4.042 118.36-1.142 14.857-3.132 29.661-5.893 44.294-1.799 12.702-6.12 25.17-8.663 37.59 8.938 18.143 31.246 32.761 48.978 36.568 16.752 3.242 34.386-1.555 48.275-11.122 19.257-14.055 31.58-36.332 34.401-59.89 3.115-24.893-2.955-50.249-14.82-72.137-20.97-40.408-56.424-71.48-95.128-94.385-3.669-1.53-7.401.352-11.192.722m46-396h141v-123h-141zm0 151h141v-125h-141zm0 150h141v-123h-141zm230 79.5c21.269 18.686 40.019 39.995 55.191 63.981 15.497 23.969 28.682 50.194 33.809 78.519 12.28 5.108 24.33 12.105 38.185 12.395 19.049 2.235 41.082-9.206 51.015-23.15 12.042-15.267 16.572-36.641 11.195-55.372-9.794-34.144-41.978-54.83-73.4-66.004-18.629-6.627-38.1-10.685-57.762-12.563-10.19-1.06-20.355-2.222-30.615-2.28-9.49.18-21.769-1.99-27.618 4.474" style="fill:#fedda9;fill-rule:evenodd;stroke:none"/><path d="M1027 1595c60.26-17.48 119.671-38.107 176.909-63.972 83.31-38.155 163.088-88.138 223.193-158.382 60.172-70.08 97.228-158.857 111.898-249.646h2c18.622 97.695 50.6 194.83 104.574 279.139 26.591 40.909 57.593 79.415 93.99 112.03 35.084 32.42 75.247 59.719 117.436 81.831 3.136-33.55 13.887-68.091 36.495-93.801 22.33-24.548 54.13-39.578 86.505-45.199v-13c-47.648-13.295-94.595-30.308-139.607-50.892-64.963-31.843-128.62-69.992-179.263-122.478-53.48-50.569-90.68-116.927-111.13-187.13 101.516-1.426 203.388.26 304.966-.5h38.345c10.575-.235 21.618 1.07 31.797-2.585 6.865-2.157 16.121-11.554 6.613-17.614-22.144-19.207-45.076-37.494-68.15-55.555-22.92-17.72-45.695-35.862-69.571-52.246-14.6 17.096-27.99 35.517-42.237 52.966-10.534 13.335-20.951 26.731-31.531 40.03-2.27 1.937-4.06 6.397-6.914 6.538-54.686 1.328-109.589-.24-164.318.466 5.212-44.185 7.875-88.668 9.029-133.143 1.914-46.277 2.968-92.555 3.971-138.857h354c10.742-.366 23.788 1.042 33.354-2.027 3.442-1.612 7.9-2.964 10.735-6.307 8.472-7.301-3.454-13.568-8.097-18.008-21.415-18.455-43.328-36.337-65.66-53.658-22.443-15.478-46.396-37.93-68.332-50-17.019 24.842-37.99 47.723-55.76 72.212-4.156 5.325-8.227 10.707-12.403 16-4.139 3.884-8.337 12.78-13.47 13.522-232.426.76-464.936-.139-697.367.266.628 9.563 5.356 18.444 6 28h352c-1.218 90.669.708 181.5-6 272h-311c2.32 9.312 4.69 18.684 7 28h301c-10.122 109.1-43.74 219.05-114.713 304.632-33.54 42.457-73.802 79.316-117.588 110.941-42.295 31.048-88.06 57.607-134.699 81.427.374 5.514 5.072 9.65 6 15m125 684c-.123 15.312.519 31.374-5.361 45.91-8.293 25.39-25.195 47.55-45.448 64.574-16.78 14.466-39.564 20.947-54.793 37.618-15.222 13.648-25.976 33.156-24.387 54.092-.023 17.484 7.774 37.49 18.066 49.627 20.797 24.402 58.388 32.614 88.138 21.888 22.165-7.954 39.801-25.41 51.537-45.39 19.363-31.23 22.816-69.264 20.856-104.99-2.801-35.63-13.331-70.406-28.03-102.855-2.252-4.769-4.242-9.653-6.544-14.382-2.42-6.694-8.15-6.705-14.034-6.092m13 2c30.624.036 61.89.056 91.432-9.118 13.465-4.2 26.58-9.77 38.55-17.217 5.652-4.028 13.433-8.528 15.4-14.46 1.392-7.623.05-15.524.618-23.205h478c-2.502 36.299-7.301 72.482-12.75 108.45-4.55 26.768-9.203 53.645-16.864 79.729-5.258 17.736-12.414 39.611-24.37 52.298-11.922 12.646-26.602 12.978-41.471 12.523-24.073.135-48.107-1.077-72.117-2.471-11.516-.553-22.997-1.862-34.504-2.56-5.817-.375-11.592-1.187-17.423-1.381-5.213-.798-12.058.203-16.501-2.088 11.256-17.08 14.344-38.902 9.87-58.663-3.75-19.691-13.907-37.49-27.04-52.401-17.966-19.089-38.817-35.657-62.66-46.855-12.27-6.178-24.905-11.657-37.825-16.302-6.493-2.314-12.909-4.858-19.52-6.839-3.181-1.019-6.484-2.213-9.878-1.96-3.216.202-6.133 2.976-8.947 3.52 23.187 45.85 39.707 95.89 46.03 147.033.88 7.004 1.102 14.06.97 21.105.023 5.8-1.04 13.48 3.17 17.464 14.498 13.06 33.461 22.987 53.439 22.398 19.422.736 38.539-9.434 49.891-25 .658 1.956.356 4.716 1.008 6.9 2.11 3.72 9.807 2.795 13.1 4.552 30.787 7.265 62.299 17.116 86.921 37.942 12.587 10.13 20.55 24.665 24.007 40.197 3.37 16.595 3.638 33.559 4.464 50.409 33.63-.694 67.795-1.541 100.52-10.143 22.933-6.16 44.641-17.064 62.935-32.205 26.116-23.483 41.225-56.643 51.941-89.346 10.94-35.148 18.227-71.382 23.868-107.725 6.002-41.027 11.737-82.203 14.736-123.581 14.918-1.298 32.163-6.453 41-19.5-40.373-33.967-81.095-67.584-121.5-101.5-16.396 14.812-32.497 29.919-48.485 45.17-6.385 5.2-11.707 11.58-18.197 16.653-6.025 7.332-13.428 6.846-21.642 6.177H1594v-121h220.8c12.231-.01 24.472.229 36.674-.656 10.933.336 21.562-5.342 25.526-15.844-41.099-34.17-84.125-66.422-127.5-97.5-20.387 22.82-38.319 47.802-58.269 70.994-5.26 6.088-9.387 14.79-17.436 14-26.603.017-53.2-.003-79.795.006v-123h220.8c12.21-.082 24.427.102 36.633-.058 12.263.383 20.86-5.394 25.567-15.442-40.262-35.63-84.868-65.922-127.5-98.5-19.695 23.64-38.543 47.983-58.316 71.556-4.971 5.72-9.95 14.815-17.161 14.434-26.669.03-53.357-.006-80.023.01v-121h241.8c13.269-.244 26.554.401 39.795-.471 10.192-.18 24.238-3.012 28.405-16.06-21.335-18.238-43.63-35.357-65.914-52.395-22.677-16.373-44.317-34.67-67.586-50.074-16.439 18.927-31.478 39.05-47.635 58.197-6.914 8.574-13.849 17.086-20.749 25.654-1.443 2.107-3.358 3.819-5.421 5.27-11.297 2.216-23.482-.165-34.968.879h-328.661c-12.86.475-28.344-8.303-42.652-12.44-41.854-14.984-83.503-30.816-125.414-45.56zm98 3c4.674 38.474 8.382 77.446 4.239 116.214-1.472 28.727-7.896 56.926-14.892 84.628-.002 4.333 4.704 8.198 7.568 12.052 11.953 14.479 29.446 25.321 48.447 26.832 15.134 1.274 30.45-3.35 42.97-11.743 17.224-12.183 28.808-31.129 33.262-51.565 5.085-22.079 1.881-45.333-5.78-66.345-18.733-48.17-58.542-84.232-101.76-110.451-5.03-2.626-9.338-.14-14.054.378m48-396h139v-121h-139zm0 151h139v-123h-139zm0 150h139v-121h-139zm227 80.313c4.544 6.178 11.027 8.942 15.475 14.662 18.162 17.533 33.033 38.096 46.274 59.465 12.844 21.52 23.716 44.74 28.251 69.56 12.588 5.262 24.98 12.318 39.19 12.515 19.752 1.518 40.567-7.78 52.334-23.67 12.117-15.824 16.387-37.743 10.875-56.943-10.091-34.844-43.333-55.868-75.585-66.804-19.091-6.643-39.08-10.327-59.17-12.12-10.176-1.01-20.345-2.063-30.592-1.977-8.888.037-19.787-2.757-27.052 5.311" style="fill:#000;fill-rule:evenodd;stroke:none"/></svg>