<svg xmlns="http://www.w3.org/2000/svg" width="3000" height="3000"><path d="M364 2760.5v1.5h2272v-1.5c-68.931-409.09-136.257-818.54-204.874-1227.691-51.076-306.848-102.33-613.661-153.4-920.497-4.868-28.824-9.564-57.688-14.431-86.508-1.116-7.008-2.365-13.985-3.488-20.978-1.2-6.774-.246-15.245-9.425-16.859-109.868-36.632-219.702-73.24-329.563-109.867-95.996-32.013-192.02-63.992-288-96-41.993-13.978-83.98-28.011-125.966-41.994-5.663-2.605-10.407-1.693-15.513.621-156.173 52.06-312.354 104.114-468.521 156.173-58.68 19.531-117.334 39.097-175.992 58.657-25.668 8.506-51.298 17.139-76.962 25.643-6.176 2.075-12.369 4.11-18.537 6.195-3.02 1.124-6.483 1.813-8.8 4.255-62.934 375.423-125.132 751.075-187.889 1126.544C490.857 1998.664 428.048 2380.37 364 2760.5m657-1953c13.78 43.585 29.842 86.733 43 130.5 10.482-1.849 19.267-8.238 26-16h2v435c19.01-.119 38.222-.476 56.79-4.96 12.968-3.212 25.723-7.366 37.966-12.725 8.623-3.727 18.332-9.236 25.266-14.345 2.865-2.268 6.338-5.303 7.335-8.635 1.834-29.175-.334-58.656.643-87.896V1159h110v42c-.243 9.837 1.47 22.583-3.712 29.644-6.029 4.553-14.182 3.124-21.237 3.356-11.487.269-22.932-.192-34.365-1.226-10.466-2.28-21.967-.011-32.186-2.774-2.253 2.638-2.197 10.289 2.554 11.052 8.964 1.955 17.957 3.867 26.581 7.044 16.326 6.326 32.568 21.626 37.898 37.035 6.153 18.578 6.128 38.57 7.467 57.869 21.812-.654 43.459-4.56 64.799-8.72 28.532-6.259 60.205-18.434 74.26-46.431 13.409-30.437 12.01-64.423 11.941-96.835V989c13.774-3.046 29.65-8.1 38-20.5-40.636-31.83-82.813-61.74-123.5-93.5h-1.5c-5.296 9.292-14.932 16.245-21.192 25.007-6.27 7.409-12.874 14.514-19.198 21.884-2.857 3.129-5.413 6.537-8.455 9.493-2.719 2.665-4.771 6.578-8.365 8.152-16.638 1.308-33.474-.225-50.151.464h-37.753c-8.856.733-16.97-2.778-24.839-6.382-23.276-8.177-45.714-18.665-69.047-26.618v-3c42.051-11.961 84.313-23.368 126.129-36.177 21.242-6.113 42.426-12.5 63.474-19.194 20.492-4.838 43.337-15.369 62.397-18.629 4.452 11.033 10.767 21.479 14.373 32.94 3.86 8.55 5.276 17.997 8.805 26.624 19.994 18.915 54.459 21.891 77.347 6.6 29.695-19.08 36.404-62.06 18.76-91.17-14.317-26.267-39.688-43.963-66.178-56.408-23.933-10.629-49.32-18.003-75.152-22.265-8.092-1.382-16.2-2.755-24.365-3.617-7.786-1.56-16.862-3.198-24.59 2.796 9.566 11.656 19.203 23.279 27.772 35.705 4.33 6.183 8.826 12.277 13.059 18.522 3.396 5.994 9.68 12.627 10.169 19.273-58.628 2.805-117.37 3.211-176 6 .33-4.288 5.797-6.578 8.612-9.068 26.156-18.908 52.197-37.997 77.23-58.389 12.932-10.04 24.989-21.14 37.512-31.646 5.17-5.424 15.735-2.567 23.675-5.478 7.998-2.034 13.938-8.074 17.971-14.919-59.529-18.798-121.372-32.359-181.25-50.5-2.28 2.296-1.88 6.976-2.803 10.496-9.793 54.046-22.564 107.51-36.947 160.504-39.001.796-78 1.234-117 1zm185 535.5c-2.333 28.89-16.423 56.224-37.475 75.975-17.088 17.972-38.967 30.658-61.705 40.037-10.541 3.686-21.336 6.783-30.965 12.627-17.19 10.322-33.185 25.146-39.767 44.612-5.92 17.17-.978 38.965 7.097 52.875 17.044 27.76 54.359 38.098 84.759 30.126 45.24-11.362 80.515-48.781 95.764-91.871 17.325-47.594 13.45-99.991-1.988-147.395-.965-3.254-2.062-6.486-3.134-9.699-1.042-2.82-1.805-6.789-5.563-7.035-2.318-.372-4.696-.21-7.023-.252m-155 1211c19.438.192 39.175 1.044 58.213-3.836 13.124-2.99 25.79-7.839 37.881-13.726 8.726-4.524 16.964-9.984 24.343-16.498 6.724-5.492 9.196-12.135 8.563-20.022V2416h80v77c22.18.133 44.798-.484 66.2-7.043 10.095-2.435 19.754-6.292 29.525-9.724 9.174-2.52 20.288-10.764 28.275-11.233 7.483 18.555 18.334 35.738 26.908 53.798 13.71 27.546 27.404 55.09 41.827 82.239 1.796 3.69 6.528 1.684 9.482.19 5.554-2.902 10.856-8.475 14.246-13.017 2.946-3.863 3.966-9.105 7.96-12.085 11.507-7.513 23.658-14.065 35.042-21.78 35.706-21.748 70.374-45.15 105.261-68.179 17.471-11.737 34.512-24.139 51.614-36.383 8.497-6.462 17.378-12.444 25.736-19.095 4.33-3.14 8.579-6.41 12.743-9.757 3.834-2.966 8.458-7.124 13.181-6.931 29.693 75.22 83.032 141.022 149.5 187 2.223-3.006 2.358-8.332 3.909-12.453 7.917-29.215 20.576-57.493 39.674-81.155 13.557-17.466 30.815-32.011 50.728-41.771 3.992-1.855 8.153-3.335 12.208-5.032 3.614-1.036 7.607-2.204 7.589-7.396.649-5.053-4.04-5.577-7.363-6.608-52.27-16.632-102.038-41.919-145.022-76.133-19.53-14.557-36.771-31.77-53.549-49.336-1.804-1.633-2.605-3.333-3.17-5.621 1.236-3.969 9.312-3.727 11.998-6.097 32.325-10.825 64.303-22.567 96.225-34.478 15.19-5.977 30.551-11.547 45.167-18.876 13.063-9.848 32.629 5.935 47.106-9.544-22.039-15.3-43.657-31.54-65.647-46.983-10.82-8.084-21.959-15.719-32.8-23.755-5.445-3.979-11.028-7.728-16.357-11.853-4.31-3.899-13.304-7.71-14.196-12.909 17.295-3.906 37.34-10.965 51.938-18.09 10.65-4.274 8.077-17.561 8.062-25.493V1787c15.208-3.256 32.11-8.518 42-21.5-42.708-33.713-87.046-65.5-129.5-99.5-9.981 12.422-21.745 23.332-31.794 35.699-9.906 10.051-18.735 21.056-28.339 31.355-4.77 4.529-13.465 2.34-19.374 2.946H1610.01c-13.82-.034-26.078-8.235-39.206-11.58-37.973-13.562-75.674-28.47-113.803-41.42v746c-20.66 2.593-41.37 5.169-62 8v-655c13.849-3.583 30.423-7.833 39-20.5-39.861-32.926-81.881-63.288-121.5-96.5-16.247 18.544-33.327 36.334-49.733 54.733-6.306 6.479-10.7 15.96-22.818 14.267-18.544-.374-37.115.456-55.631-.246-45.02-16.498-88.4-38.007-133.318-54.754zm129-612h80v-181h-80zm0 222h80v-195h-80zm0 225h80v-198h-80zm40-1354h110v-68h-110zm0 97h110v-70h-110zm100 228c6.368 34.606 14.274 69.375 15.371 104.775 1.2 27.288 1.423 54.829-3.007 81.875-.253 4.66-2.197 10.22-.317 14.253 10.742 13.316 25.089 24.378 41.608 29.427 25.82 7.888 54.108-5.82 68.647-27.267 15.978-22.238 18.712-51.237 11.445-77.09-7.441-29.33-26.527-54.171-47.014-75.643-22-20.13-46.665-37.026-73.008-50.966-4.94-3.114-8.892-.511-13.725.636m173-4.625c25.401 38.427 44.474 81.203 57.735 125.305 5.32 17.476 9.495 35.304 12.062 53.39.953 8.133 2.215 16.262 2.196 24.477-.917 8.632 4.893 12.58 11.374 16.621 21.233 17.108 52.078 22.109 76.084 7.547 17.703-10.152 29.386-28.112 33.77-47.755 7.146-30.686-3.908-62.418-21.384-87.526-16.667-23.506-43.885-44.515-66.283-58.007-30.563-17.091-64.026-30.254-98.162-37.928-2.743.157-5.548 2.509-7.392 3.501zM1911 848c-1.072-22.009-2.941-43.984-4-66-9.96-1.63-12.56 9.383-16.177 16.366-5.261 10.897-11.44 21.313-17.88 31.53-5.769 8.095-12.822 18.5-21.548 22.237-19.856 6.692-41.111 4.663-61.689 4.867h-95.202c-7.9-.11-15.822-.397-23.671-1.233-4.472-.4-10.552-1.848-12.7-7.398-2.244-8.515-.4-17.629-1.133-26.303V796c40.486-5.912 80.95-12.23 121.173-19.744 20.448-3.649 40.67-8.672 61.165-11.996 8.721.003 19.733 5.883 30.3 5.577 10.36 1.588 20.447-.983 29.362-5.837v-1.5c-17.909-16.295-37.356-30.91-55.527-46.895-18.592-15.472-37.166-31.58-55.973-46.605-19.643 20.047-41.978 37.116-63.721 54.767-10.979 8.571-22.072 16.993-33.122 25.452-5.521 4.35-11.274 8.32-16.927 12.468-5.218 3.09-11.588 9.51-16.73 10.313v-93c11.593-1.748 28.66-7.341 30-23-50.853-4.712-102.066-7.961-153-12v157.307c1.216 37.682-3.108 76.319 5.676 113.382 2.67 12.758 9.8 24.036 19.9 32.116 17.639 13.972 45.048 15.843 64.496 18.203 38.621 1.499 77.29.816 115.927.992 37.337.191 74.701-.746 111.869-4.488 17.511-1.527 34.864-4.865 51.759-9.68 21.274-5.277 46.767-20.675 49.233-49.184 1.264-12.924-.812-26.894-10.38-36.55-8.582-8.096-21.345-14.66-31.48-18.098m5 282c-10.083-1.75-12.331 9.275-16.013 16.154-5.428 11.018-11.108 21.915-17.71 32.278-5.645 8.701-12.192 19.918-20.789 24.73-19.733 8.84-42.362 4.783-63.245 5.838h-100.58c-8.202-.115-16.528.451-24.623-1.125-13.549-2.164-9.7-20.657-10.04-29.446V1142c43.69-3.68 86.623-13.9 129.685-21.653 21.729-3.851 42.943-10.01 64.484-14.66 10.633.48 20.85 6.283 31.804 5.384 10.314 1.442 20.486-1.631 29.027-7.571-39.488-32.552-80.254-63.662-119.5-96.5-20.566 21.2-42.875 40.517-65.46 59.51-10.909 9.629-22.674 18.27-33.858 27.557-5.901 4.518-11.676 9.217-17.715 13.544-5.776 3.367-12.679 10.69-18.467 11.389v-88c11.838-.766 28.522-7.932 30-23-51.653-3.884-103.367-7.969-155-12v156.71c1.234 37.863-3.06 76.688 5.475 113.983 6.515 29.3 29.354 43.732 55.487 47.78 20.89 4.132 42.173 4.901 63.403 4.527 64.993-.961 130.249 2.234 195.064-3.819 22.17-1.91 48.225-6.91 67.18-14.636 15.187-6.05 28.13-17.877 33.503-33.526 4.258-11.917 3.702-28.004-.819-38.64-3.65-8.77-11.1-15.326-19.272-19.82-2.902-1.569-5.892-2.968-8.823-4.477-2.7-1.527-6.875-2.956-8.727-4.791-2.467-22.995-2.632-46.231-4.471-69.291m-326 782h185v-149h-185zm0 179h175.2c4.072.083 9.486.389 9.586-4.118.61-30.054-.111-60.135.214-90.196v-45.459c.244-3.742-.093-7.395-.49-11.091-.762-2.206-4.712-1.8-6.49-2.126-8.406-.029-16.779.006-25.169-.01H1590zm0 318c37.26-4.488 74.18-11.916 111.356-17.063 4.636-.904 9.438-1.411 13.967-2.634 2.937-2.179-1.597-7.911-1.544-10.492-8.954-25.381-16.139-51.293-22.204-77.49-14.698-60.605-23.026-122.53-30.575-184.321h-71zm168-120c5.537-.638 7.707-10.121 10.932-13.407 3.089-5.029 5.984-10.164 8.908-15.28 9.624-17.11 19.33-34.169 28.863-51.31 4.975-8.705 9.613-17.568 14.438-26.345 3.601-8.267 11.68-18.831 11.859-26.658-19.166 3.016-38.588 4.334-58 4v-43h-102c15.985 62.456 47.659 120.146 85 172m-71-938.625c39.513 35.863 74.229 77.136 104.392 121.139 22.735 32.405 42.12 67.452 54.743 105.105 2.488 5.817 11.375 8.117 17.865 11.379 14.092 5.677 29.733 9.21 44.914 5.942 25.326-4.646 45.404-24.854 52.27-49.131 10.912-37.651-5.453-77.027-30.708-104.76-23.597-28.11-57.254-45.445-89.962-60.309-23.384-9.849-47.933-16.917-72.69-22.273-12.56-2.456-25.06-5.352-37.77-6.958-12.065-.896-26.3-5.164-37.464-3.956-1.45 1.672-4.391 2.13-5.59 3.822" style="fill:#fedca9;fill-rule:evenodd;stroke:none"/><path d="M1063 939c10.708-.767 21.914-8.275 27.5-16 1.426 144.804-.26 290.101.5 435 19.324-.142 38.857-.385 57.764-4.714 13.116-3.223 26.087-7.289 38.454-12.745 8.816-3.742 18.747-9.34 25.804-14.571 2.865-2.268 6.338-5.303 7.335-8.635 1.834-29.773-.334-59.852.643-89.69V1160h108v41.4c-.094 9.031 1.308 21.147-3.712 28.244-6.029 4.551-14.182 3.126-21.237 3.356-11.368.104-22.737-.243-34.048-1.394-10.76-1.604-21.82-.51-32.503-2.606-3.217 4.373-1.586 12.713 3.24 13.219 22.504 3.461 46.01 12.516 58.238 33.237 6.763 9.583 9.021 21.477 10.31 32.883 1.623 11.825 2.365 23.75 2.712 35.661 21.91-.284 43.62-4.476 65.083-8.316 29.061-6.267 61.605-18.243 75.976-46.835 13.542-30.815 11.965-65.242 11.941-98.033V990c15.387-2.461 29.666-9.709 40-21.5-42.403-31.557-84.76-63.676-127-95.5-14.91 16.095-29.104 33.064-43.794 49.406-2.677 3.305-5.467 6.512-8.47 9.52-2.304 2.409-4.318 6.412-8.605 6.843-16.346.66-32.745-.12-49.09.231h-37.121c-8.794.349-16.653-4.084-24.655-7.052-22.433-8.738-44.973-17.421-67.265-26.448 41.275-13.111 83.793-23.017 125.058-36.355 41.977-11.62 83.155-25.961 124.942-38.145 4.452 11.033 10.767 21.479 14.373 32.94 3.86 8.55 5.276 17.997 8.805 26.624 20.206 18.785 54.843 21.89 78.203 7.278 30.345-18.575 37.594-62.167 20.968-91.966-14.345-27.317-40.257-45.85-67.693-58.506-24.48-10.806-50.529-18.168-76.927-22.412-13.434-3.277-27.929-2.92-41.229-5.958-2.484 2.618-5.747 4.243-8.5 6.5 9.958 11.273 18.963 23.352 27.89 35.435 7.762 12.415 18.303 23.498 24.11 37.065-57.862 2.324-116.251 3.846-174 5.5 24.522-18.54 50.108-35.794 73.851-55.384 18.153-13.364 37.573-31.328 53.577-44.34 8.723-.829 18.65-.14 26.441-5.416 3.158-1.996 6.096-4.457 8.205-7.577 6.841-7.723-5.425-9.632-10.739-10.701-48.125-13.391-96.397-26.246-144.532-39.584-5.844-1.535-11.656-3.139-17.496-4.69-2.36-.596-4.78-1.535-7.254-1.276-2.226 1.02-1.96 4.994-2.585 6.64-6.908 38.1-14.816 76.022-24.403 113.537-3.822 15.64-7.765 31.232-12.162 46.704-.307 1.19-.607 2.407-.903 3.587-39.001.796-77.999 1.234-117 1 11.844 44.916 30.726 88.182 43 133m142 403c-2.333 29.108-16.628 56.538-37.87 76.37-17.108 17.908-39.043 30.41-61.716 39.817-10.619 3.609-21.424 6.805-31.068 12.734-17.243 10.523-33.347 25.505-39.559 45.322-5.285 17.139-1.045 38.85 6.834 52.864 16.425 27.935 53.393 38.967 83.9 31.883 45.987-10.14 82.073-47.379 98.4-90.383 17.508-47.686 14.802-100.538-.298-148.384-1.018-3.661-2.074-7.312-3.358-10.878-1.267-3.131-2.11-8.917-5.734-8.981-3.136-.609-6.364-.24-9.531-.364m-155 1213c19.73.157 39.74 1.022 59.117-3.564 13.353-2.928 26.205-7.782 38.484-13.74 8.924-4.565 17.322-10.115 24.836-16.756 7-5.629 9.25-12.533 8.563-20.619V2417h78v77c22.022.192 44.376-.332 65.723-6.362 9.863-2.719 19.71-5.602 29.22-9.408 10.01-2.347 20.013-10.025 29.057-12.23 21.43 47.451 48.584 92.547 70 140 7.195-1.597 13.94-5.095 18.975-10.475 5.537-4.33 8.006-10.964 11.46-16.697 40.684-26.637 83.063-50.946 123.025-78.802 20.488-13.514 40.634-27.526 60.585-41.802 9.926-7.308 19.923-14.53 29.83-21.851 4.95-3.78 10-7.391 14.895-11.222 4.797-2.979 10.382-9.435 15.23-10.151 29.692 75.903 83.874 141.444 150.5 188h1.5c7.81-32.99 20.127-65.82 41.476-92.63 10.209-13.422 22.242-25.373 36.423-34.599 6.99-4.325 13.985-8.774 21.74-11.624 3.795-1.597 7.702-2.978 11.453-4.645 3.322-2.34 2.53-8.171 3.908-11.502-81.093-22.765-155.037-69.84-211-132.5 33.304-13.403 68.428-23.84 101.96-37 16.723-6.051 33.152-12.868 49.348-20.185 3.825-2.396 8.285-3.707 12.165-5.806 11.131 2.208 28.153 6.206 38.527-6.009-43.195-31.482-87.012-62.268-130-94 10.38-3.085 21.094-5.874 31.274-9.768 8.701-3.1 17.517-6.406 25.13-11.718 3.908-2.573 3.724-7.281 3.596-11.808V1788c15.578-3.446 33.103-8.818 43-22.5-35.448-28.228-72.118-55.014-107.9-82.819-6.715-5.307-13.71-10.211-20.447-15.47-3.933-3.66-6.94 1.086-9.584 4.172-10.921 11.393-20.738 23.793-31.792 35.062-4.692 5.255-9.43 10.452-14.02 15.784-4.787 4.173-8.598 12.078-14.551 12.598-27.485.493-55.018-.09-82.5.173h-61.611c-14.249.68-27.343-5.63-40.493-10.462-39.813-14.178-79.24-29.545-119.102-43.538v747c-19.683 2.947-40.03 4.412-59.5 8-1.426-217.537.26-435.402-.5-653 14.418-3.514 31.236-8.33 40-21.5-28.91-23.82-58.885-46.336-88.073-69.815-11.242-8.49-21.873-17.809-33.253-26.11-2.461-2.527-5.225.563-6.817 2.64-16.8 17.678-32.389 36.453-49.403 53.917-3.05 3.25-5.477 7.254-9.356 9.656-3.855 2.326-10.14.498-14.339 1.212h-27.536c-7.643-.45-16.804.659-23.733-.627-44.753-17.718-88.813-37.598-133.49-55.373zm131-614h78v-179h-78zm0 222h78v-193h-78zm0 225h78v-196h-78zm40-1354h108v-66h-108zm0 97h108v-68h-108zm97 229.34c11.15 43.598 16.877 89.313 17 134.399-.014 17.19-.994 34.448-3.724 51.432-1.389 7.16-3.159 14.834 2.959 19.564 8.81 9.337 18.705 17.885 30.763 22.762 21.217 9.748 47.612 5.041 65.095-10.128 13.16-10.634 21.507-26.093 25.844-42.195 6.468-26.102.38-53.923-11.15-77.604-11.908-22.504-28.723-41.844-47.622-58.623-10.723-8.785-21.753-17.239-33.54-24.54-5.487-3.719-11.183-7.079-16.958-10.314-5.518-2.937-11.831-7.54-17.563-8.594-3.977.12-7.58 1.993-11.104 3.501zm173-5.59c22.141 33.662 39.604 70.628 52.796 108.72 10.763 30.495 18.452 62.504 20.18 94.872-.199 3.333.14 6.58 1.234 9.712 15.737 14.383 38.135 26.418 60.492 23.987 17.04-1.2 33.767-9.279 44.801-22.428 17.167-19.8 22.16-47.813 17.282-73-4.709-25.095-17.958-47.564-34.956-66.18-40.213-41.72-94.281-66.563-149.98-80.006-4.31-1.176-8.851 2.64-11.849 3.573zM1912 847c-1.072-22.009-2.941-43.984-4-66-5.106-.324-10.685-.68-12.923 5.823-2.399 4.852-4.86 9.69-7.255 14.543-5.256 10.354-11.099 20.467-17.627 30.059-5.854 8.102-12.096 17.513-22.243 20.543-19.635 5.663-40.272 3.745-60.442 4.032-31.146-.004-62.273.005-93.405-.003-7.458-.16-14.947-.452-22.363-1.24-4.376-.379-10.073-1.754-12.436-6.949-2.487-8.2-.56-17.137-1.306-25.543V797c41.447-6.045 82.855-12.588 124.03-20.29 10.38-2.105 20.78-4.15 31.148-6.245 7.866-1.474 15.68-3.242 23.534-4.719 5.806-1.405 11.316 1.15 16.794 2.597 14.22 2.854 34.058 6.81 48.494-5.843-38.54-31.142-76.014-64.214-114.5-95.5-19.52 19.86-41.424 37.144-63.15 54.488-21.257 17.385-43.734 33.289-65.85 49.512-1.426-30.14.26-60.76-.5-91 13.008-2.138 28.297-7.246 31-25-51.918-4.372-104.016-8.429-156-12v157.787c1.273 38.324-3.2 77.635 5.785 115.324 2.802 12.929 10.1 24.385 20.607 32.35 17.93 13.555 45.361 15.398 64.867 17.612 38.83 1.406 77.7.757 116.539.927 37.41.19 74.832-.735 112.073-4.488 17.683-1.51 35.207-4.967 52.256-9.822 21.388-5.395 47.118-21.279 48.798-50.192 1.113-13.05-.5-27.137-10.108-37.041-8.571-8.35-21.587-14.933-31.817-18.457m5 282c-5.417-.493-11.04-.546-13.177 6.356-2.144 4.749-4.447 9.401-6.979 13.953-5.472 10.757-11.223 21.406-17.755 31.568-5.84 8.396-11.297 18.31-21.183 22.53-19.71 7.169-41.373 3.548-61.86 4.593h-96.985c-11.066-.144-37.031 3.992-35.061-16.864V1143c44.262-3.737 87.753-14.156 131.382-21.986 11.184-2.066 22.19-4.922 33.307-7.25 7.91-1.805 15.704-3.928 23.576-5.85 5.94-2.088 11.453-.495 16.99 1.373 16.669 4.15 36.413 5.653 50.745-5.787-40.141-32.432-80.348-65.114-120.878-97.006-2.806-.123-5.122 3.505-7.492 5.376-34.843 34.518-73.226 65.354-111.999 95.3-5.035 3.64-10.014 7.346-15.131 10.83-1.426-28.543.26-57.388-.5-86 14.598-.04 28.71-10.242 31-25-52.688-3.477-105.332-8.448-158-12v157.787c1.173 37.851-2.904 76.566 5.193 113.91 6.266 29.56 28.852 44.52 55.265 48.678 21.053 4.218 42.499 5.01 63.907 4.625 65.668-.985 131.58 2.257 197.062-3.819 22.338-1.938 48.583-6.939 67.642-14.837 15.349-6.258 28.405-18.432 33.464-34.484 3.965-11.884 3.314-27.73-.797-38.467-3.365-8.994-10.738-15.682-18.87-20.364-2.99-1.687-6.123-3.101-9.162-4.691-2.872-1.68-6.212-2.654-8.854-4.674-3.462-22.72-2.485-46.68-4.85-69.664m-326 782h183v-147h-183zm0 179h172.8c3.06-.171 9.468.669 9.746-3.006 1.295-29.744-.236-59.673.454-89.457v-44.833c.032-3.707.105-7.442-.424-11.092-.278-2.605-4.779-2.348-6.588-2.604-8.352-.024-16.696.005-25.034-.008H1591zm0 318h1.5a8263 8263 0 0 1 62.163-9.782 3641 3641 0 0 0 29.467-4.728c5.669-.772 11.3-1.707 16.938-2.669 4.59-1.34 11.596-1.041 14.932-3.321-16.696-41.52-26.047-86.061-34.963-129.835-9.61-46.12-14.913-93.031-21.037-139.665h-69zm83-289.75c10.322 30.606 20.31 61.976 35.928 90.584 13.37 28.233 31.192 54.09 49.572 79.166 13.606-20.414 24.539-42.596 37.183-63.601 5.947-11.302 12.576-22.22 18.4-33.571 3.191-5.6 6.288-11.216 9.067-17.029 2.5-5.366 7.203-11.22 7.85-16.799-19.018 3.892-38.686 3.678-58 4v-43h-100zm11-767.75c43.125 38.573 80.057 83.797 112.123 131.842 11.75 18.066 22.996 36.423 32.054 56.024a328 328 0 0 1 11.227 26.132c1.872 4.274 3.09 8.773 4.731 13.121 2.952 6.571 13.494 8.846 20.79 12.484 16.587 6.315 35.298 8.425 52.389 2.611 28.794-9.246 46.647-37.995 47.268-67.546 1.792-44.43-26.097-84.79-60.302-110.444-34.08-25.528-74.066-42.23-114.978-53.142-16.511-4.346-33.32-7.519-50.07-10.709-8.685-1.188-17.344-2.572-25.998-3.865-7.94-.683-19.967-3.898-25.7.603-1.182.898-2.684 1.848-3.534 2.889" style="fill:#000;fill-rule:evenodd;stroke:none"/></svg>