<svg xmlns="http://www.w3.org/2000/svg" width="3000" height="3000"><path d="M406 2713.5c.03.55.186 1.058.5 1.5H2594c-61.58-366.47-122.11-733.186-183.448-1099.7-45.694-274.344-91.47-548.656-137.17-822.991-8.524-51.512-17.22-102.993-25.743-154.503-4.057-24.157-8.03-48.35-12.087-72.507-2.645-11.755-3.258-24.454-6.393-35.953-3.436-3.617-10.52-4.457-15.854-6.74-91.335-30.454-182.679-60.875-274.008-91.346l-239.47-79.817a295416 295416 0 0 1-105-35c-16.523-5.49-33.033-11.048-49.561-16.514-7.989-2.698-16.012-5.302-24-8-7.398-1.725-17.465-7.19-23.92-6.074-122.928 40.588-245.658 81.93-368.52 122.702-92.173 30.757-184.37 61.432-276.529 92.183-17.345 5.756-34.702 11.568-52.031 17.331-8.135 2.758-16.328 5.379-24.44 8.18-1.926.514-3.59 1.462-4.849 2.951-42.914 248.838-83.05 499.717-125.338 748.992C565.363 1756.17 486.74 2236.06 406 2713.5" style="fill:#000;fill-rule:evenodd;stroke:none"/></svg>