<svg xmlns="http://www.w3.org/2000/svg" width="3000" height="3000"><path d="M1007 2627h944.4c13.074-.591 28.646.944 40.534-1.06 10.09-1.165 24.718-13.835 14.243-21.429-31.578-26.878-64.463-52.128-97.347-77.358-12.422-9.267-24.528-18.935-36.798-28.387-5.57-3.98-10.876-8.305-16.302-12.46-2.401-1.617-5.577-4.654-8.174-3.525-15.882 18.452-30.22 38.536-45.826 57.295-11.22 14.562-22.7 28.936-34.07 43.383-4.305 5.312-7.379 12.684-16.544 11.541H1584v-407h278.4c11.168-.164 22.352.21 33.505-.14 9.068-.426 20.095-3.335 24.974-10.404 6.972-9.265-2.758-14.354-9.273-19.58-24.08-19.797-48.673-38.967-73.154-58.236-18.53-14.555-37.384-28.625-56.18-42.814-3.667-1.597-7.489-7.815-11.226-5.763-11.207 11.827-20.415 25.643-30.933 38.084-15.444 19.026-30.577 38.314-45.834 57.48-3.487 5.225-7.104 10.6-15.226 9.373H1584v-359h343.2c9.825.075 22.761-1.456 29.471-8.28 2.68-3.022 7.142-8.523 3.8-11.992-27.324-22.575-55.037-44.807-83.097-66.472-21.405-16.082-42.507-32.56-63.521-49.143-3.418-2.392-8.991-8.936-12.543-5.411-24.04 28.668-46.128 59.093-69.756 88.125-3.066 3.749-5.846 7.684-8.948 11.391-2.43 3.1-5.201 6.823-8.085 9.011-8.012 1.664-16.707.135-24.87.771H1041c1.958 9.802 5.295 19.384 8.188 28.93 1.398 5.094 11.219 2.03 14.593 3.07H1409v359h-330c1.471 10.9 6.898 21.024 8 32h322v407H999c1.231 10.94 6.76 21.042 8 32m560.5-1697c.46-25.603 4.282-51.944 3.231-77.742-2.187-27.568-31.397-36.678-51.731-40.258v-58h45v-28h-45v-40h-38v40h-45v28h45v58c-16.1 3.032-33.236 7.43-44.139 20.792-11.619 12.707-7.004 34.794-6.908 49.934.385 15.679 2.719 31.699 2.547 47.274-29.785-30.833-72.255-48.868-115.05-49.365-21.042-1.614-46.31 2.931-64.008 10.543-19.491 7.83-35.509 22.423-47.965 38.993-20.49 31.508-29.885 70.502-26.645 107.986.497 38.396 18.902 80.54 35.943 110.409 20.942 35.963 46.73 69.202 75.246 99.464 2.309 2.976 6.482 6.336 6.643 9.589-4.082 66.396-9.198 132.75-13.506 199.137-.384 7.89-1.685 17.293-.233 24.486 2.82 12.791 15.98 22.4 26.186 27.323 19.051 9.874 40.302 14.523 61.249 18.218 21.109 3.744 42.414 6.776 63.798 8.374 48.699 3.954 97.693 3.351 146.374-.608 34.844-3.558 70.313-8.074 103.012-21.418 11.186-5.108 22.476-11.491 29.52-21.96 7.375-10.596 4.21-21.581 3.862-33.334-2.687-41.006-5.71-82.008-8.442-123.006-1.377-20.475-2.933-40.93-4.19-61.412-.068-5.16-.969-10.303-.906-15.452.159-3.692 3.38-5.974 5.523-8.853 6.837-7.966 14.607-15.12 21.04-23.44 34.775-40.277 66.53-85.08 81.927-136.703 16.274-52.172 13.275-113.973-18.375-160.112-11.69-16.158-30.524-31.35-47.642-37.969-59.957-23.926-133.923-7.233-178.361 39.11m-91.5 286c-.555-21.09.931-42.278-1.129-63.29-5.728-65.357-29.217-131.13-73.452-180.449-21.814-24.228-52.351-44.556-86.213-44.26-16.885-.88-33.889 3.294-47.77 13.183-12.896 9.408-23.055 22.642-28.725 37.543-8.605 20.687-10.92 47.773-8.998 68.033 4.4 32.616 17.24 63.63 34.352 91.593 15.857 27.993 35.299 53.895 56.67 77.882 4.93 4.383 8.312 10.421 13.768 14.23 1.78 1.793 5.39.3 8.163.112 43.925-8.646 88.545-14.03 133.334-14.577m-145.506 256.384c2.408 9.719 11.86 14.512 20.464 17.6 9.524 3.773 19.702 5.456 29.696 7.432 46.386 6.889 93.518 7.308 140.251 6.584 35.197-.655 70.818-1.422 105.498-7.992 12.067-2.365 24.494-5.205 34.92-12.094 3.573-2.59 8.078-6.818 7.734-12.334-1.029-10.054-13.971-14.976-21.788-17.65-34.946-11.427-72.275-11.892-108.545-13.973-38.636-1.481-77.294-.738-115.89 1.406-15.528 1.32-31.074 3.062-46.293 6.42-14.41 3.077-32.17 7.638-42.374 17.175-2.257 1.637-2.674 4.644-3.673 7.426M1337.5 1425c52.25-16.984 108.147-17.663 162.46-18.987 54.682.908 110.34 2.67 163.04 18.987-.506-19.02-2.32-37.993-3-57-104.171-28.565-215.75-28.583-320 0-.543 9.858-1.74 19.655-1.588 29.554.595 8.87-2.093 19.432-.912 27.446m4.5-94.375c51.2-14.468 105.623-14.88 158.407-17.507 52.7 2.07 106.315 4.297 157.593 17.382-1.392-2.339-.789-6.121-1.302-9.236-1.045-12.238-2.316-24.442-3.229-36.677-.43-5.348.372-12.857-4.809-14.32-76.928-19.026-157.649-21.865-236.023-11.71-20.462 2.822-40.82 6.463-60.858 11.483-6.199.747-4.325 9.942-5.175 13.785-2.165 13.922-1.498 30.857-4.604 46.8M1499.5 1040c5.004-9.301 7.007-20.314 12.15-29.666 3.472-8.23 7.776-16.092 12.152-23.858 5.992-7.707 5.902-15.185 5.198-23.902-.458-31.257.559-62.548-.302-93.788-.396-14.074-10.721-27.065-25.46-27.466-14.428-2.318-28.668 7.315-30.92 21.878-1.8 7.5-1.276 15.262-1.318 22.91v85.87c-.465 6.491 3.464 11.81 6.557 17.23 8.544 16.36 15.442 33.584 21.943 50.792m24.5 176c36.954.665 73.669 5.762 110.217 10.818 6.846.917 13.637 2.174 20.42 3.42 2.983.673 6.015.98 9.032 1.16 5.223-2.45 7.885-8.479 12.563-12.13 28.73-32.228 54.475-67.703 73.449-106.608 10.301-20.25 17.563-41.96 20.448-64.544 2.733-23.308-.709-47.308-8.807-69.227-6.15-15.471-15.977-29.813-30.071-39.063-12.575-8.787-28.38-11.83-43.41-11.825-26.995-1.127-52.751 11.207-73.034 28.134-14.363 12.606-27.591 26.692-38.057 42.769-31.295 48.38-48.53 105.225-52.737 162.45-.037 18.214.007 36.447-.013 54.646" style="fill:#fff;fill-rule:evenodd;stroke:none"/><path d="M285 2848.5v1.5h2430v-1.5c-73.642-437.603-145.813-875.53-219.109-1313.203-54.671-328.176-109.408-656.315-164.077-984.478-5.21-30.83-10.248-61.686-15.432-92.51-1.251-7.505-2.488-15.003-3.754-22.495-.919-4.17-1.145-8.46-2.247-12.58-1.025-4.117-5.42-5.18-9.156-6.315-117.305-39.137-234.617-78.213-351.926-117.314-102.68-34.233-205.353-68.476-308.033-102.676-44.992-15.018-89.985-29.992-134.966-44.995-6.062-2.742-11.046-.84-16.431 1.266-83.52 27.892-167.058 55.657-250.572 83.54-146.168 48.728-292.31 97.432-438.478 146.16-27.522 9.152-55.005 18.352-82.52 27.495-6.482 2.208-13.017 4.306-19.485 6.517-2.679 1.235-7.197 1.778-8.4 4.228-68.611 401.467-133.703 803.887-201.523 1205.563C420.651 2033.674 353.5 2441.873 285 2848.5m715-252c2.893 9.684 5.964 19.579 8 29.5h951c16.686-1.388 41.609 5.75 51-16.5-52.261-43.905-106.918-84.928-161-126.5-15.828 18.896-30.581 39.007-46.27 58.076-11.337 14.707-22.933 29.217-34.41 43.799-2.251 2.732-4.382 5.57-6.568 8.353-4.547 4.553-14.081 1.914-21.012 2.772H1583v-409h287.4c11.353-.335 25.01.927 35.213-1.776 4.138-1.33 9.082-2.86 12.464-6.557 2.766-2.96 5.864-7.947 2.903-10.772-47.42-41.494-98.923-78.11-148.48-116.895-23.977 28.874-46.548 58.963-70.298 88.032-6.224 6.586-11.785 18.408-20.535 17.963-32.896.014-65.778-.002-98.667.005v-361h311.4c13.03-.188 26.059.234 39.07-.138 8.769-.68 20.133-2.888 25.71-12.765 3.082-4.528-1.553-7.127-4.542-9.593-49.623-40.331-100.392-79.763-151.138-118.504-19.182 23.229-37.282 47.365-56.035 70.945-8.348 10.308-16.315 20.908-24.598 31.251-2.005 2.312-3.754 4.915-5.998 7-2.467 2.207-7.08 1.736-9.617 1.804-221.696.76-443.639-.926-665.252.5 2.375 4.693 2.547 10.247 4.684 15.048 1.358 4.4 2.424 8.971 4.24 13.17 7.173 2.735 17.714.256 25.264 1.282H1410v361c-109.929.76-220.151-.926-330 .5 3.014 9.277 6.496 20.662 8 29.5h322v409h-410zM1566.5 933c-.821-25.99 4.64-52.583 3.318-78.74-1.375-28.152-31.312-37.705-51.818-41.26v-60h45v-26h-45v-40h-36v40h-45v26h45v60c-16.1 3.032-33.236 7.43-44.139 20.792-11.69 12.606-6.946 34.53-6.852 49.571.199 16.462 3.103 33.271 2.491 49.637-29.612-31.374-72.35-50.451-115.475-51.202-21.496-2.116-47.23 3.241-65.202 11.072-19.658 8.1-35.408 23.191-47.685 40.141-20.05 32.057-28.665 71.067-25.132 108.672 2.449 38.703 17.978 75.237 37.142 108.347 20.785 35.976 47.41 68.222 75.348 98.77 7.577 6.222 5.089 14.23 4.455 22.923-4.257 63.839-9.206 127.606-13.086 191.47-.855 7.718-1.55 15.872 2.124 23.075 5.505 11.312 16.996 17.806 27.855 23.166 18.669 8.923 39.154 13.013 59.338 16.68 20.323 3.517 40.812 6.45 61.385 8.002 48.455 3.978 97.148 3.4 145.579-.632 34.487-3.46 69.491-8.11 101.887-21.127 11.009-5.017 22.273-11.156 29.407-21.31 7.826-10 4.953-20.795 4.467-32.217-2.61-41.036-5.746-82.016-8.427-123.036a16010 16010 0 0 1-4.198-61.136c-.287-5.194-.756-10.367-1.01-15.553-.2-6.288 7.084-12.098 11.598-17.475 4.506-5.045 9.777-11 13.914-15.618 34.523-39.753 66.085-83.883 82.124-134.664 17.141-51.668 14.594-112.839-15.774-159.374-12.425-16.656-28.323-31.58-47.872-39.48-60.412-25.042-135.7-7.232-179.762 40.506m-89.5 284c-.646-21.387.987-42.9-1.023-64.226-5.516-65.938-29.3-132.213-73.885-181.9-22.139-24.851-53.28-44.3-87.55-44.128-16.693-.464-33.773 3.261-47.622 13.09-13.123 9.426-23.467 22.805-29.21 37.891-8.81 20.89-10.736 48.217-9.16 68.685 4.255 32.932 16.949 64.34 34.286 92.527 15.891 28.144 35.408 54.207 56.9 78.296 4.882 4.437 8.373 10.362 13.751 14.282 2.091 1.955 6.091.707 9.115.286 44.278-8.744 89.235-14.28 134.398-14.803m-147.533 255.837c1.894 10.298 12.205 15.106 20.974 18.329 9.903 3.91 20.545 5.489 30.92 7.575 46.452 6.478 93.572 7.14 140.347 6.259 34.859-.66 70.1-1.366 104.461-7.756 12.173-2.245 24.57-5.135 35.255-11.704 4.227-2.86 8.058-6.643 8.81-11.652 1.312-11.36-12.312-17.834-19.375-20.09-34.769-12.08-72.184-12.32-108.412-14.779-38.455-1.6-76.887-.985-115.302 1.04-15.742 1.162-34.334 2.921-48.508 6.024-15.242 3.708-31.937 6.6-44.42 16.921-2.714 2.41-4.955 5.985-4.75 9.833M1336 1426c53.075-15.377 108.563-18.67 163.507-18.985 55.327.067 111.083 3.818 164.493 18.985-.413-19.684-2.284-39.323-3-59-104.806-28.762-217.112-28.787-322 0-.408 19.712-2.823 39.322-3 59m5-94c51.744-14.45 105.98-15.304 159.2-17.87 27.03.986 54.093 1.504 80.994 4.78 25.017 3.452 55.456 5.86 77.306 14.09-.34-15.076-2.85-30.596-3.757-45.751-.998-5.741 1.387-17.532-7.349-18.654-7.19-1.533-14.306-3.417-21.513-4.778-61.378-11.966-124.593-15.093-186.833-9.423-25.607 2.504-51.154 6.223-76.299 11.669-5.66 1.99-15.027 1.872-16.4 7.723-2.26 19.282-2.564 39.05-5.349 58.214m158-289h2c3.976-16.775 13.406-35.095 20.177-49.241 3.54-6.792 9.3-13.12 8.823-21.208-.022-33.124.027-66.248-.014-99.366.225-11.054-3.61-23.07-13.453-29.103-15.375-8.609-42.02-4.788-45.524 19.547-1.631 7.629-.723 15.531-1.009 23.271v84.66c-.705 6.52 2.264 12.21 5.902 17.46 8.653 16.083 15.432 33.046 21.91 50.082.46 1.279.897 2.581 1.188 3.898m24 174c37.139.664 74.026 5.818 110.748 10.894 6.795.935 13.548 2.158 20.285 3.417 6.124 1.692 12.75 2.96 16.99-4.347 30.702-33.007 57.772-70.044 78.154-110.324 10.917-20.941 18.578-43.574 21.877-66.968 2.922-24.144-.28-49.059-8.733-71.783-6.185-15.654-16.206-30.08-30.494-39.361-25.44-17.206-64.194-13.738-88.217-2.331-40.269 18.41-67.234 56.484-86.534 94.63-20.025 40.353-30.735 84.777-34.063 129.528-.037 18.89.007 37.76-.013 56.645" style="fill:#000;fill-rule:evenodd;stroke:none"/></svg>