<svg xmlns="http://www.w3.org/2000/svg" width="3000" height="3000"><path d="M1251 1321c7.049 30.549 34.668 53.473 38.262 85.374 3.45 25.557-4.117 50.763-11.091 74.984-4.431 17.8-11.653 35.196-12.982 53.66-1.745 15.576 8.671 25.833 20.03 34.394 16.924 11.724 37.726 16.021 57.942 17.409 11.431.225 22.888.252 34.31 0 10.649-.63 21.087-2.889 31.529-4.821 9.544 41.693 55.24 55.258 88.092 61.682 23.758 4.983 48.081 4.553 72.2 4.318 33.17.652 72.361-9.155 98.168-25.28 13.35-8.504 25.088-21.804 26.69-38.216 2.13-17.459-1.112-35.144-1.174-52.62-.528-9.592-1.537-19.154-2.218-28.725-.315-4.048-1.249-9.07.961-12.273 17.35-23.406 29.206-50.59 36.939-78.593 8.41-30.267 11.275-62.055 7.342-93.293 17.806-2.138 35.589-4.473 53-9 3.924 22.976 4.739 46.745 3.569 69.996-3.936 14.826-15.868 29.073-22.874 40.93-6.352 9.836-13.219 20.013-15.245 31.822-3.78 23.22 16.793 33.084 32.233 37.973 18.555 5.554 37.933 8.514 57.317 8.279 1.763 23.23 13.688 46.049 35.05 57.005 20.994 11.277 44.9 16.47 68.629 17.095 39.46 2.99 80.857-3.177 116.002-21.839 16.606-8.456 31.77-21.326 40.27-38.145 9.346-17.43 10.013-41.495 6.383-58.826-4.576-26.617-13.324-52.722-14.313-79.9 2.874-82.344 8.912-164.548 12.44-246.865 2.005-32.782 3.16-65.584 5.42-98.34.714-106.768-45.077-212.559-120.751-287.555-36.618-36.467-83.693-68.08-136.69-72.255-27.717-2.64-55.416 4.623-79.37 18.277-21.95 11.593-41.527 27.113-63.09 39.336-8.732 5.087-18.238 8.843-28.428 9.367-18.405.858-34.645-9.639-50.417-17.29-23.546-10.614-46.847-23.782-73.28-25.418-27.086-2.532-53.845 7.212-78.355 17.353-8.87-16.992-15.161-40.473-41.695-44.174-23.229-4.684-45.264 10.048-56.387 29.5-10.114 15.906-15.734 34.355-19.418 52.674-20.188-4.3-41.136-9.058-62-5-3.276-31.669-17.934-61.626-39.137-85.2-9.403-12.026-27.23-22.614-41.624-18.833-15.536 4.423-21.846 28.233-22.85 40.347-2.403 29.155 4.226 59.038 19.773 83.938 1.933 3.235 4.393 6.942 5.838 10.076-13.192 9.932-26.738 20.005-37.124 33.067-7.835 9.036-14.224 19.25-19.542 29.909-17.236 31.88-42.542 59.28-60.334 90.696-3.324-1.003-5.268-5.805-7.578-8.808-8.448-12.245-15.601-25.264-22.875-38.203-5.6-9.089-11.862-23.636-22.234-24.728-9.313-.726-11.512 14.664-13.146 20.658-4.335 28.063-5.73 56.775-3.115 85.112 1.208 8.884 3.07 17.645 5.882 26.15 1.802 6.238 4.293 12.252 6.086 18.474 1.344 4.088-4.329 8.314-6.15 12.546-3.764 5.907-7.901 11.524-11.854 17.283-4.35 4.801-7.38 13.662-13.016 15.516-19.17-25.658-38.911-52.61-49.416-83.544-9.452-23.667-18.23-47.615-25.344-72.084-5.91-18.125-9.146-37.212-17.342-54.569-2.564-5.321-7.037-12.555-15.03-12.242-5.544.327-8.826 8.334-10.505 12.07-14.674 43.26-15.46 89.659-17.287 134.644.978 37.067 3.367 74.238 12.324 110.37 3.481 14.609 7.498 29.056 12.697 43.14 3.296 10.522 8.316 20.348 13.346 30.091 4.587 8.187-2.198 15.054-4.519 22.845-9.536 23.757-14.332 49.412-13.924 74.994-1.292 40.616 14.289 98.13 65.94 114.94 6.206 1.824 12.603 2.973 19.02 3.72 5.31.883 11.916.088 16.571 1.96 32.759 18.307 73.14 23.646 108.92 10.643 23.505-8.905 44.786-22.717 65.506-36.711 21.138-13.703 44.185-25.943 69.043-31.267m233-310c13.731.043 27.335 2.106 41 3-1.586 44.102-10.455 88.23-26.882 129.19-16.737 37.423-38.955 73.163-68.118 102.31 3.451 2.356 9.553 1.505 14.17 3.037 18.63 3.167 37.642 6.925 54.5 15.851 16.076 7.834 26.559 24.457 26.26 42.377.2 34.554-2.93 69.611-14.49 102.413-4.968 13.331-9.15 26.946-14.037 40.3-1.53 6.711-5.291 12.17-9.858 17.189-14.926 20.54-28.632 42.542-35.86 67.057-2.21 10.893-5.251 24.908-1.738 34.91 8.552 19.773 34.253 29.605 51.997 32.632 37.671 7.236 83.968 6.175 117.969-2.741 10.734-4.008 26.916-7.871 32.132-22.459 1.843-6.648.343-13.668.246-20.408-1.074-24.921-3.561-49.734-4.231-74.672-.255-7.628 9.245-13.984 13.622-21.25 17.87-23.853 28.162-52.698 31.448-82.24 4.665-32.423.695-65.091-1.13-97.496 34.373-2.04 69.029-6.924 101.726-18.081 29.323-9.928 55.48-28.39 75.068-52.325 4.83-5.412 8.962-11.392 13.151-17.284 3.902-6.493 4.21-14.466 6.669-21.492 8.109-27.354 19.47-53.65 34.828-77.769 6.935-11.23 14.09-22.325 22.101-32.822 4.07-4.498 7.794-10.805 11.856-14.61 2.777-2.807 6.232.398 8.385 1.981 4.89 4.102 10.16 7.71 15.115 11.721 4.51 3.366 12.64 7.858 7.89 13.24-31.453 36.393-55.638 80.518-62.625 128.674-7.213 46.996 4.583 94.642-.383 141.701-5.1 38.314-20.982 74.118-33.024 110.509-4.817 16.386-8.795 34.939-1.25 51.268 6.348 15.13 22.914 22.06 38.15 23.735 30.36 4.603 62.215 3.643 91.581-5.703 21.808-8.19 49.935-22.736 49.74-48.207-.459-11.354-4.266-22.31-6.436-33.38-4.635-21.021-9.484-42.354-9.542-63.978-.161-39.425 4.048-78.703 5.253-118.07 3.07-59.1 6.417-118.198 9.554-177.283 1.079-29.293 4.39-58.612 1.181-87.842-3.098-27.65-9.285-54.95-19.01-81.04-13.598-37.398-32.966-72.55-56.494-104.574-17.833-24.152-38.54-46.173-62.854-63.903-17.712-13.156-37.483-24.067-58.909-29.76-17.318-4.395-35.815-5.024-52.93.792-22.472 7.608-45.125 24.432-63.332 35.845-20.685 14.28-44.45 27.275-70.4 26.657-20.618 1.011-40.877-4.696-58.71-14.933-25.894-14.19-52.902-33.027-84.076-29.708-14.912 2.135-28.842 8.374-42.141 15.077-6.795 3.259-13.466 6.717-19.98 10.498-5.964 2.736-13.542 8.674-19.152 9.066-1.585-16.272-4.56-32.79-13.179-47.01-3.745-5.902-10.536-13.722-19.395-11.321-7.707 2.642-12.103 10.344-15.312 17.224-6.094 14.602-8.853 30.243-11.02 45.802-.819 7.434-1.016 14.906-2.094 22.305-14.51 3.98-30.133 4.248-44.55-.86-24.58-10.154-53.045-11.522-77.573-.092-17.3 6.71-32.87 17.36-46.378 29.957-9.902 9.516-18.287 20.649-24.052 33.148-4.282 9.639-11.219 17.829-16.934 26.657-16.189 25.853-35.825 49.806-51.513 75.878 5.571 3.707 7.817 12.762 8.512 20.467 3.779 28.506-16.61 56.345-43.63 64.366-5.058 1.636-10.354 2.541-15.621 3.163-4.808.33-10.732-.584-13.84 4.478-5.037 7.29-10.036 14.598-15.094 21.858-2.088 3.41-4.387 6.732-7.782 8.957-1.559.985-2.818 2.295-4.033 3.643 1.28 7.242 4.391 14.395 4.903 21.87 1.637 12.94.49 26.376-4.1 38.618-13.04 34.42-52.654 59.642-89.815 50.892-9.256 20.981-12.11 49.28-10.775 70.048.538 22.89 9.07 48.322 30.664 59.615 6.305 3.433 13.255 5.58 20.296 6.888 6.034 1.276 13.83.106 18.834 3.134 18.675 12.123 41.415 17.875 63.512 16.33 21.78-.287 40.872-11.943 58.588-23.1 13.97-9.134 27.395-19.035 41.32-28.215 25.738-16.064 55.606-25.284 85.815-27.267 22.075-1.816 48.274-5.042 67.31-12.453 29.933-12.069 56.564-39.952 76.78-60.364 21.48-24.153 38.865-51.932 50.427-82.131 14.388-34.768 19.123-72.334 21.729-109.485m-206 902h483v37c18.918.559 38.29-.059 57-1.5-14.69 17.66-29.116 35.588-43.715 53.325-4.16 4.8-12.681 2.595-18.195 3.175H1697c1.648 10.541 6.357 20.448 8 31h196.8c12.977-.45 32.233 2.228 40.415-12.846 3.15-5.72-1.65-9.607-6.087-12.85-27.992-24.218-57.53-46.638-87.128-68.804 11.904-3.9 24.43-6.69 36.079-11.535 5.059-1.96 10.093-3.923 14.889-6.453 4.115-2.308 10.05-3.632 10.802-10.103.655-43.07-.119-86.175.23-129.255-.353-4.85-.52-10.266 6.115-10.94 8.4-2.352 16.553-5.885 23.597-11.077 4.293-2.648 12.52-9.005 8.027-13.364-14.076-11.33-29.04-21.518-43.371-32.505-15.543-11.76-31.186-23.376-46.885-34.908-11.541-8.925-23.473-17.334-35.114-26.103-2.103-1.749-4.338-3.335-7.095-3.76-2.36-.187-4.511 2.556-6.51 4.238-14.013 13.949-26.202 29.568-40.364 43.367-3.391 3.53-6.279 7.535-9.875 10.873-2.724 2.435-5 5.313-7.48 7.955-3.815 3.593-11.734 1.234-17.332 2.07h-411.255c-9.344-.467-20.74 1.034-29.024-1.699-28.734-9.536-57.42-19.147-86.135-28.696-14.309-4.835-28.69-9.507-42.995-14.348-13.822-3.54-29.157-11.897-42.304-13.257-1.052 162.05 2.085 324.21-3.098 486.184-5.184 111.958-14.436 225.047-47.436 332.898-12.667 38.613-26.552 77.195-46.417 112.809-3.941 7.93-7.947 15.851-12.559 23.409a244 244 0 0 1-6.195 10.781c-.914 1.626-1.84 3.659-1.801 5.01 2.16 3.133 6.144 6.079 9.686 6.423 54.48-34.488 103.806-78.865 141.68-131.226 28.536-38.77 50.408-82.075 68.59-126.486 26.581-71.672 40.898-147.55 46.546-223.62 6.765-81.543 6.411-163.426 6.004-245.182m-219.924-664.691c.578 8.404 1.3 18.607 5.443 25.14 4.599 7.462 18.452 6.486 23.784 2.28 5.542-3.874 7.01-9.104 9.1-14.634 2.29-5.18 5.257-10.053 8.754-14.498 5.39-6.206 11.462-11.815 18.154-16.557 8.283-6.456 23.437-12.808 21.51-27.128-1.379-11.86-16.516-18.43-26.358-20.134-17.04-3.416-36.043 2.898-46.091 17.51-11.02 13.399-13.207 31.215-14.296 48.02M1228 2464h305v178c22.874.035 45.92.905 68.557-3.069 15.606-2.919 31.045-6.769 46.037-12 10.484-4.815 24.68-8.475 31.162-16.24 1.958-4.49.923-9.647 1.244-14.378V2464h258.6c10.81-.042 21.627.051 32.433-.029 8.456.076 17.497-1.503 23.829-7.627 2.594-2.5 4.647-5.83 4.55-9.497-1.814-6.47-9.83-9.862-13.51-14.462-17.314-16.099-35.553-31.211-53.369-46.738-8.925-7.744-18.109-15.152-27.102-22.812-4.375-3.841-8.882-7.492-13.252-11.337-4.157-3.082-8.854-9.335-13.179-10.498-24.339 28.916-43.513 63.238-68.377 91.533-43.443 1.332-87.14-.242-130.623.467v-110h238.8c9.672-.328 19.56.752 29.088-1.274 6.293-1.552 14.588-6.526 14.864-15.257-.21-5.981-8.519-9.734-12.485-14.702-16.311-16.556-34.825-30.712-52.223-46.055-8.733-7.321-17.27-14.909-26.004-22.221-4.307-3.55-9.133-7.932-13-11.268-4.314-3.514-8.838-9.235-14.04-9.223-17.644 27.301-39.113 52.834-57.732 79.632-2.755 2.657-4.723 8.354-8.234 8.898-32.917 1.34-66.079-.244-99.034.47v-66c14.099-.991 34.612-6.972 34-28-60.43-3.704-120.568-11.442-181-15v109h-96v-1.5c6.51-7.167 12.156-15.118 18.093-22.743 5.03-7.96 12.168-15.08 15.907-23.757 8.956.231 18.23.312 26.569-3.513 7.474-3.08 15.635-12.56 15.431-19.487-55.91-18.035-110.988-39.396-167-57-9.23 43.98-19.94 87.691-33.849 130.455-6.162 20.722-14.276 40.778-21.571 61.101-4.08 10.116-8.293 20.193-12.8 30.115-3 10.136-12.067 20.443-12.78 30.329 5.599.929 9.568 9.4 17.065 5.325 38.373-21.981 74.104-48.893 106.349-79.122 4.477-3.665 8.748-7.56 12.688-11.805 3.19-3.615 7.055-7.97 13.175-7.395 39.588-.009 79.144.001 118.723-.003v110h-313c1.188 10.618 6.081 20.528 8 31m29-1382.055c-.335 12.451 3.168 25.23 11.271 34.735 9.288 11.356 21.672 13.337 34.472 10.734 20.537-4.765 34.788-28.36 37.437-46.119 3.648-21.996-4.432-51.041-27.817-56.15-15.349-3.872-31.133 3.863-40.531 15.842-9.475 11.336-15.559 25.823-14.832 40.958M1278 1882h460.2c6.17-.268 13.454.364 19.082-.287 5.63-.19 2.94-10.745 3.718-13.861V1751h-483zm2 123c2.277 9.21 5.344 20.272 8.32 28.44.569 2.502 4.736 2.332 6.673 2.547 7.979.038 15.976-.007 23.944.013h142.488c11.958-.107 23.909.135 35.849-.082 7.86-.335 16.311-1.101 22.822-6.088 4.544-3.453 8.317-10.76 4.41-14.67-12.43-12.154-26.708-22.293-39.964-33.5-16.048-12.664-32.212-25.154-48.571-37.397-6.326-3.963-12.974-11.1-18.976-12.763-3.18-.37-5.341 4.873-7.314 6.399-16.18 19.683-32.327 39.372-48.373 59.158-2.143 2.516-4.127 5.23-6.815 7.185-12.184 1.958-25.097-.19-37.42.758zm8 146h219c9.077.595 18.924-.941 25.5-8 1.293 7.16-.127 14.757.5 22 44.14.907 89.205-1.946 130.836-18.326 4.7-1.753 9.701-3.281 13.45-6.822 3.687-3.269 2.51-9.644 2.714-14V1970c7.161-.806 14.46-2.189 20.442-6.516 5.56-4.336 8.61-11.56 8.558-18.484-29.142-2.557-58.367-4.843-87.523-7.249-29.51-1.841-58.919-5.875-88.477-6.751-.76 65.903.926 132.209-.5 198-19.35-16.505-39.025-32.7-59.414-47.925-7.706-5.827-15.28-11.839-23.063-17.547-6.885-4.847-13.295-10.358-20.337-14.96-6.512-3.765-11.895 7.75-15.569 11.283-16.107 19.348-31.01 39.817-47.66 58.659-2.373 2.1-6.974 1.196-10.386 1.49H1280c1.51 10.569 6.49 20.43 8 31m172.5-714c9.103-30.852 20.743-61.678 22.943-94.079.497-8.905.844-17.867.406-26.786-.656-12.279-15.806-18.883-25.545-21.764-11.549-2.805-25.368-5.906-36.304-6.371 1.493 13.102 2.482 26.303 5.34 39.221 7.97 37.437 24.297 72.72 33.16 109.779m244.5 714h199.8c14.063-.071 33.166 2.454 43.617-7.242 3.74-4.138 6.676-10.842.502-15.008-17.033-14.94-34.546-29.322-52.72-42.858-13.63-10.03-26.716-20.767-40.475-30.6-4.741-2.973-11.22-10.97-16.073-5.928-14.068 16.86-27.588 34.181-41.372 51.263-3.37 4.34-6.841 8.569-10.262 12.856-5.03 8.83-15.856 6.34-24.358 6.517H1697c1.078 10.633 6.588 20.425 8 31" style="fill:#fff;fill-rule:evenodd;stroke:none"/><path d="M327 2802.5c390.66 1.426 782.125-.26 1172.95.5 390.946-.76 782.184.926 1173.05-.5-79.284-468.283-156.02-937.69-234.792-1406.201-29.222-176.024-58.731-352.018-88.16-527.994-12.796-76.829-25.59-153.676-38.409-230.5-5.977-36.02-12.025-71.992-18-108-2.928-17.508-5.855-34.99-8.745-52.497-.795-4.678-1.595-9.35-2.358-14.018-.403-5.813-4.632-7.44-9.23-8.351-136.155-45.374-272.297-90.765-408.44-136.14-118.995-39.696-238.006-79.344-356.998-119.005-7.36-3.594-13.268-1.406-20.008 1.408-103.34 34.51-206.696 68.878-310.033 103.355a1093431 1093431 0 0 1-271.561 90.514c-39.662 13.232-79.311 26.454-118.969 39.67-18.676 6.196-37.335 12.443-55.998 18.654-3.991 1.804-9.7 2.485-12.774 5.267-95.938 570.136-190.308 1140.76-285.634 1711.041-35.77 210.46-69.684 422.872-105.891 632.797M1252 1319c5.979 30.834 34.335 53.508 38.094 85.269 4.13 25.862-3.31 51.427-10.31 75.967-4.452 18.011-11.85 35.543-13.48 54.179-1.945 15.673 9.155 25.716 20.344 34.304 17.05 11.57 37.857 15.813 58.11 17.138 11.362.035 22.77.428 34.11-.244 10.233-.44 21.848-3.645 31.132-4.613 9.544 41.693 55.24 55.258 88.092 61.682 23.56 4.937 47.682 4.556 71.595 4.318 32.744.436 71.314-9.328 96.773-25.28 13.35-8.505 25.087-21.803 26.69-38.216 2.146-17.462-1.365-35.124-1.257-52.61-.58-9.652-1.553-19.252-2.321-28.885-.272-3.987-1.097-8.957 1.128-12.102 17.369-23.418 29.22-50.602 36.958-78.614 8.797-30.292 10.878-62.013 7.342-93.293 18.402-2.709 37.206-4.013 55-10 4.007 23.423 4.503 47.322 3.851 71.029-2.663 15.136-15.209 29.336-21.956 41.142-6.636 9.757-13.277 19.924-16.072 31.564-5.312 22.649 16.328 32.665 31.86 37.986 18.555 5.554 37.933 8.514 57.317 8.279 1.763 23.23 13.688 46.049 35.05 57.005 21.013 11.263 44.931 16.503 68.678 17.083 38.675 3.014 79.097-3.58 113.566-21.598 16.45-8.451 31.558-20.977 40.243-37.554 9.459-17.97 10.756-39.408 6.523-58.984-4.61-26.157-13.024-51.862-14.039-78.572.044-20.597 1.476-41.142 2.571-61.692 3.246-61.007 6.396-122.007 9.589-183.008 2.275-32.47 3.322-64.97 5.384-97.45 2.298-107.281-43.888-213.808-119.298-289.463-18.242-18.15-38.41-34.728-60.623-47.833-34.394-21.346-76.383-31.34-116.338-22.518-37.694 8.727-67.652 34.852-100.112 53.91-8.823 5.148-18.353 9.303-28.682 9.97-18.612 1.995-35.431-8.66-51.356-16.232-23.956-11.073-47.82-24.406-74.753-26.371-26.576-2.765-57.178 8.767-78.903 18.307-6.568-15.624-14.494-38.333-36.707-44.048-20.984-6.352-43.344 4.855-55.17 22.281C1378.279 708.19 1369.85 732.099 1367 751c-20.677-6.29-42.42-9.181-64-6-3.278-31.482-17.738-61.342-38.834-84.796-9.67-11.957-27.451-23.452-40.995-18.902-15.157 5.36-21 28.85-21.872 41.137-1.81 28.547 5.241 57.834 20.66 82.036 1.65 3.284 4.825 7.28 6.041 10.025-13.208 10.337-27.287 20.116-37.783 33.49-8.117 9.286-14.682 19.823-20.14 30.822-8.758 16.386-20.879 30.788-30.78 46.474-5.21 7.589-10.253 15.284-15.642 22.742-5.394 6.181-8.87 15.611-16.155 21.972-17.458-19.534-27.642-49.523-42.925-67.838-5.546-7.05-13.235-5.838-16.033 1.217-7.488 19.792-8.026 45.14-8.542 64.217-.656 19.916.236 40.037 6.768 59.057 2.765 7.2 4.255 15.194 8.232 21.847-5.439 7.62-10.652 15.471-15.991 23.173-5.799 7.197-9.644 16.488-17.009 22.327-13.294-14.383-24.174-31.004-34.172-47.796-16.336-31.315-28.788-64.64-39.426-98.293-4.309-12.597-7.772-27.86-11.412-39.505-3.579-10.985-6.215-22.92-13.29-32.351-2.855-3.862-8.33-6.988-12.433-4.15-6.908 6.047-8.906 17.414-11.237 24.941-8.602 34.652-11.67 70.365-12.323 105.947-2.151 35.011 2.573 70.494 7.957 104.993 3.941 18.92 8.143 37.9 14.688 56.111 3.223 8.965 6.378 17.996 10.818 26.45 2.046 4.46 4.635 8.708 6.418 13.282 1.64 3.657-1.841 8.17-3.524 12.392-10.747 24.717-17.243 51.483-17.063 78.539-1.074 37.907 9.975 80.46 41.505 104.706 15.841 11.954 35.77 16.827 55.363 16.882 9.426 1.96 17.203 8.86 26.59 11.147 9.314 3.465 18.974 5.795 28.862 6.845 18.499 2.09 37.395-.01 55.043-5.782 24.113-8.906 45.867-23.067 67.018-37.4 21.44-14.681 45.502-25.412 70.618-31.958m233-307c13.045.182 26.004 2.259 39 3-2.037 44.124-10.757 88.258-27.672 129.114-16.13 38.056-40.591 72.06-68.328 102.386 19.093 4.917 39.702 5.442 58.109 13.538 16.29 5.744 31.753 17.575 36.054 35.103 2.588 8.814 1.697 18.148 1.48 27.162-.261 33.78-6.528 67.244-18.658 98.749-5.651 12.355-7.912 29.118-15.323 39.392-15.301 19.59-31.024 44.984-38.218 66.725-3.94 11.528-5.75 23.94-5.12 36.114 2.946 21.356 29.676 33.571 47.562 37.795 19.943 4.24 40.335 5.607 60.691 5.913 17.464-.127 35.101-.767 52.251-4.266 13.506-3.091 30.465-7.391 39.766-16.84 9.954-9.224 5.228-26.776 5.397-38.309-.693-12.126-1.649-24.246-2.256-36.372-.522-10.617-1.71-21.274-1.556-31.909.41-4.308 4.22-6.89 6.733-10.184 21.317-23.664 32.616-54.225 37.582-85.244 4.755-34.152 2.093-68.69-.494-102.867 33.166-1.834 66.486-6.575 98.147-16.894 22.942-7.058 43.8-19.735 61.659-35.596 6.853-6.05 12.812-12.95 18.697-19.897 4.417-6.128 10.715-12.795 13.453-19.251 6.824-27.335 15.854-54.26 30.013-78.788 6.444-11.73 13.26-23.284 20.862-34.301a453 453 0 0 1 11.973-16.68c4.512-4.486 7.876-12.01 12.696-14.593 8.373 9.023 22.884 15.33 29.5 24.5-30.65 33.137-52.223 74.411-62.638 118.223-8.064 36.302-2.956 73.467-1.837 110.066 1.716 27.543-.068 55.397-8.671 81.788-5.925 18.547-12.1 37.069-18.938 55.29-7.779 24.117-23.359 61.073 2.737 84.147 11.654 9.065 29.62 11.068 42.538 12.233 15.806.95 31.69 1.203 47.462-.432 17.683-2.004 35.02-6.98 50.667-15.506 12.595-6.536 25.181-16.237 29.682-30.369 3.302-13.3-1.598-26.56-4.215-39.524-5.474-23.69-11.024-47.761-10.787-72.205 2.023-75.692 8.306-151.233 11.244-226.89 1.774-25.762 2.51-51.557 4.192-77.312.727-13.584 1.381-27.162 2.367-40.722-.71-13.719-.628-27.518-2.562-41.141-8.745-69.79-40.233-135.863-83.376-190.73-17.679-22.037-37.916-42.096-61.326-58.065-17.315-11.627-36.36-21.706-57.034-25.733-17.213-3.552-35.26-3.03-52.025 2.56-21.514 8.397-40.516 21.963-59.788 34.376-19.479 13.263-41.089 25.709-65.163 27.334-21.172 1.575-42.345-2.932-60.812-13.56-26.286-13.927-53.492-33.58-84.843-31.296-30.565 2.943-55.99 22.596-82.874 34.968-1.618-16.44-4.625-33.168-13.452-47.473-3.692-6.064-10.537-12.87-19.807-11.194-7.912 1.845-12.687 9.49-15.993 16.212-6.657 14.896-9.285 31.16-11.655 47.15-.818 7.434-1.015 14.906-2.093 22.305-14.8 4.056-31.002 4.301-45.458-1.945-24.637-9.82-52.923-10.146-77.22 1.217-17.223 6.812-32.832 17.403-46.216 30.123-9.93 9.512-18.172 20.757-23.903 33.267-4.242 9.65-11.435 17.672-16.991 26.572-16.687 25.842-35.627 50.459-52.212 76.266 8.886 6.618 10.411 22.141 9.686 30.699-2.477 32.66-36.578 60.985-69.436 55.801-10.762 13.615-18.655 29.601-32.25 40.5 12.388 26.369 8.554 59.938-11.005 81.921-8.734 10.962-20.501 19.292-33.453 24.517-7.264 2.822-14.864 4.69-22.67 5-6.426.39-15.016 1.657-20.372-1.938-10.033 25.325-12.751 53.27-10.221 80.189 1.791 13.002 4.898 26.44 12.785 37.243 7.327 10.56 18.96 17.507 31.26 20.647 7.237 2.409 16.279 1.948 23.029 3.358 22.782 14.82 50.982 21.342 77.927 16.438 25.23-5.472 46.878-20.812 67.748-35.22 29.188-22.21 63.272-38.405 100.268-41.577 27.76-2.727 56.605-4.432 82.28-16.369 70.73-40.15 120.777-113.14 134.938-192.861 4.033-18.414 4.791-37.178 6.486-55.848m-479 1620.625c2.676 2.363 5.715 4.194 8.5 6.375 53.63-35.918 103.931-78.587 141.36-131.712 28.536-38.77 50.408-82.075 68.59-126.486 26.581-71.672 40.898-147.55 46.546-223.62 6.765-81.543 6.411-163.426 6.004-245.182h485v37c19.63.461 39.676.361 59-2.5-14.398 18.758-30.157 36.535-44.752 55.154-4.032 5.945-11.747 4.083-17.362 4.346-20.232.742-40.745-.909-60.886.5 3.35 8.794 5.744 20.146 8 28.5h187.2c18.603.263 43.293 2.802 49.8-16.5-30.172-27.83-63.767-51.708-96-77v-1.5c17.044-3.268 36.55-10.584 51.05-17.022 3.652-2.277 9.755-3.835 10.989-7.793 2.013-7.45.23-15.497.961-23.085v-96.973c.284-6.136-.38-12.319.288-18.433-.108-4.227 6.888-4.233 9.52-5.66 11.284-4.055 22.74-9.742 30.192-19.534-22.1-17.428-45.153-33.653-67.573-50.66-22.832-15.473-43.72-34.293-67.083-48.84-19.921 20.056-37.791 42.013-57.804 61.983-2.186 2.144-3.931 4.797-6.442 6.56-110.37 1.304-220.92-.237-331.321.457h-113.905c-8.405.427-16.246-2.922-24.047-5.558-52.851-16.64-104.956-36.034-157.825-52.442v261.6c-.54 126.246.033 253.003-14.526 378.615-7.57 58.445-17.991 116.694-34.36 173.357-8.463 27.84-18.457 55.2-30.276 81.791-11.447 25.295-24.653 50.604-38.838 74.262m53.135-1384.4c.576 8.267 1.382 18.326 5.654 24.607 5.132 6.486 15.812 6.533 21.942 1.565 5.069-3.739 6.492-8.526 8.421-13.717 2.08-4.984 4.946-9.563 8.088-13.928 9.007-12.806 25.626-21.128 35.893-30.545 6.72-6.647 6.009-15.955-.257-21.797-5.34-5.699-12.786-8.974-20.346-10.438-16.515-3.603-35.003 2.987-44.848 16.928-11.224 13.11-13.202 30.693-14.547 47.324M1221 2434.5c2.631 9.467 5.55 18.965 8 28.5h305v178c22.39.079 44.933.815 67.082-3.155 15.247-2.898 30.355-6.649 45.024-11.743 10.266-4.277 23.32-8.482 31.07-15.476 2.577-4.127 1.6-9.5 1.824-14.114V2463h257.4c10.82-.017 21.632.021 32.438-.011 8.394.165 17.279-1.114 23.94-6.67 2.61-2.09 4.908-5.524 5.352-8.57-1.33-6.57-9.759-9.641-13.359-14.491-33.89-31.762-70.666-60.317-105.271-91.258-11.546 15.448-22.569 31.32-34.067 46.803-8.557 11.636-16.845 23.467-25.524 35.001-2.941 3.683-5.427 9.975-11.708 10.14-43.076.158-86.137-.028-129.201.056v-112h236.4c9.815-.365 19.735.646 29.477-.841 7.214-1.146 15.018-5.757 16.623-13.488.518-5.983-8.075-9.714-11.87-14.54-16.215-16.382-34.43-30.565-51.765-45.694-8.67-7.2-17.033-14.736-25.686-21.938-8.084-5.747-16.632-16.403-26.179-21.499-17.769 27.4-39.245 53.068-57.975 79.974-2.683 3.353-5.154 8.43-9.094 8.781-33.284.699-66.64-.127-99.931.245v-68c13.465-1.191 33.044-6.156 34-26-59.74-3.987-119.271-10.87-179-15v109c-33.246-.76-66.876.926-100-.5 12.142-16.187 26.392-31.645 36-49.5 14.594.122 36.107-.092 42-21-54.699-19.124-110.031-37.267-164.5-57-19.115 85.432-42.937 171.063-81.5 250 5.534.85 9.1 9.052 16.031 4.823 36.867-21.155 70.998-47.057 102.339-75.693 4.296-4.113 9.083-7.706 13.105-12.105 3.63-3.212 7.992-9.229 12.258-9.77 41.388-.729 82.87.134 124.267-.255v112h-313zm37-1352.64c-.192 12.183 3.443 24.56 11.271 33.82 8.999 10.806 21.068 13.632 33.504 10.482 19.592-5.16 33.277-27.607 36.225-44.721 3.112-18.955-2.191-48.633-26.623-55.03-14.779-4.13-30.022 3.88-39.19 15.157-9.294 11.144-15.718 25.292-15.187 40.292m19 801.14h463.2c6.546-.219 13.16.379 19.648-.48 2.416-.877 1.793-5.235 2.15-7.132.006-41.807-.001-83.594.002-125.388h-485zm4 123.25c2.94 5.949 3.352 13.174 5.903 19.358.92 4.846 2.419 10.172 9.12 9.384 16.35.023 32.69-.005 49.04.008H1489.3c12.73-.295 30.385.684 36.7-16.5-16.634-16.356-35.703-30.012-53.756-44.697-18.457-13.954-36.57-28.978-55.744-41.803-17.195 20.458-33.792 41.483-50.916 62.007-4.215 4.627-7.928 12.456-15.73 11.985-22.956.023-45.912-.005-68.854.008zm0 115c2.949 8.991 6.068 20.23 8 28.75h189.6c10.62-.003 21.23.004 31.838-.002 8.954.368 17.923-3.598 23.062-10.998 1.317 8.13-.15 16.774.5 25 43.32.899 87.46-2.258 128.337-18.12 4.714-1.787 9.7-3.272 13.57-6.677 3.965-3.046 3.024-9.388 3.093-13.75V1969c12.139-1.396 27.95-5.348 29-23-58.053-3.763-115.925-10.774-174-14-.76 66.568.926 133.55-.5 200-17.257-15.16-34.914-29.94-53.356-43.665-9.087-7.06-18.357-13.924-27.405-21.02-9.178-5.654-18.296-15.36-27.427-19.315-17.49 21.764-34.693 43.78-52.392 65.367-2.379 2.27-4.482 6.915-7.65 7.175-28.016 1.306-56.222-.238-84.27.458zM1459.5 1443c6.015-16.096 10.012-32.968 15.434-49.27 8.008-24.94 10.982-51.1 10.005-77.228.216-13.19-15.805-20.503-26.166-23.288-12.319-3.784-25.233-4.67-37.773-7.214.922 27.289 7.083 53.842 15.756 79.605 7.686 25.69 19.504 50.568 22.744 77.395m238.5 678.5c2.683 9.403 5.827 18.953 8 28.5h210c8.004-.237 16.623.998 24.111-2.588 3.803-1.597 14.2-8.225 10.512-14.632-16.556-16.007-35.256-30.116-53.4-44.328-18.603-12.892-35.385-28.977-54.88-40.452-17.403 21.81-35.111 43.366-52.366 65.3-2.297 2.37-4.473 6.687-7.483 7.225-28.067 1.355-56.382-.246-84.494.475z" style="fill:#000;fill-rule:evenodd;stroke:none"/></svg>