<svg xmlns="http://www.w3.org/2000/svg" width="3000" height="3000"><path d="M449 2666.5v1.5h2102v-1.5c-63.81-378.768-126.215-757.87-189.705-1136.696-47.349-283.998-94.654-568.016-142-852-4.398-26.67-8.911-53.338-13.325-80.003-1.118-6.656-2.232-13.342-3.35-19.985-.571-3.586-1.119-7.183-2.096-10.662-1.288-2.958-6.82-3.128-9.193-4.54-101.51-33.828-203.017-67.663-304.512-101.514a746151 746151 0 0 1-266.522-88.84c-39.072-12.89-78.06-26.135-117.144-38.98-4.713-1.335-9.273 1.032-13.839 2.453-144.507 48.104-288.95 96.378-433.449 144.467-54.18 18.08-108.385 36.116-162.566 54.195-23.808 7.923-47.625 15.882-71.434 23.805-5.676 1.96-11.407 3.738-17.06 5.726-6.564 1.113-6.72 8.744-7.34 13.268C740.08 921.349 682.77 1265.54 625.383 1609.692 566.339 1961.663 508.308 2314.864 449 2666.5m616-417.5h361v273c41.228.657 83.731-2.073 122.056-19.09 4.155-2.161 9.334-4.321 12.873-6.78 6.418-5.491 3.08-18.233 4.071-26.911V2249h341.4c11.127-.835 32.897 3.794 38.6-14-27.215-20.047-53.155-43.263-80.903-62.94-10.198-7.958-20.861-15.329-31.058-23.288-2.324-1.784-4.73-3.468-7.02-5.274-6.648-3.971-.326-8.85 2.684-12.133 13.57-16.354 18.197-39.601 11.952-60.037-8.278-29.585-31.599-52.594-57.295-67.78-26.586-16.36-56.795-26.128-87.36-31.548.106-4.576 5.128-8.795 7.847-13.17 10.171-13.782 20.34-27.676 29.194-42.348 2.077-3.716 4.998-7.447 7.295-11.864 6.234-2.35 13.872-1.088 20.211-3.709 6.495-1.877 11.112-6.81 14.453-12.409-51.803-19.686-103.008-41.404-155-60.5-9.178 54.035-25.837 106.805-45.88 157.71-19.41 48.787-44.88 95.375-77.12 136.79l6.5 6.5c14.3-8.032 29.332-15.024 43.124-24.059 21.709-12.947 42.26-28.08 61.606-44.326 10.161-7.973 19.48-16.875 28.697-25.878 4.938-4.167 9.846-8.441 13.77-13.611 3.825-4.079 9.288-10.935 14.303-11.126 9.062 13.807 20.542 26.838 29.345 41.028 13.985 20.732 26.255 42.617 36.413 65.473 3.012 6.206 4.815 12.907 7.54 19.221 3.318 9.393 18 11.698 24.441 14.881 9.78 3.224 20.113 3.864 30.261 2.397-.326 3.455-3.877 6.771-6.187 9.973-15.54 21.054-34.031 40.593-48.813 62.027h-173v-59c7.12-1.248 15.59-3.285 21.49-6.392 7.253-4.115 9.256-10.68 12.51-17.108-6.331-2.418-13.684-1.258-20.307-2.473-46.865-4.306-93.85-7.558-140.693-12.027v-3c20.346-10.525 33.532-34.344 33.78-57.047-1.367-19.07-10.308-36.56-22.95-50.517-12.865-13.038-31.297-24.892-46.66-31.561-18.42-7.546-40.947-15.546-59.17-17.875.214-5.653 5.758-11.582 8.37-17.447 8.415-15.567 19.59-33.476 25.63-48.553 12.033.917 26.812-1.512 35-14.5-50.567-20.256-101.848-39.341-152.494-59.5-7.961 32.814-13.75 66.948-24.736 99.181-15.8 47.122-33.24 94.042-57.224 137.728-21.612 43.93-51.58 82.926-84.546 118.778 1.924 5.698 6.81 8.13 11.31 5.158 17.728-9.277 35.917-17.981 52.594-29.122 31.906-20.081 61.689-43.778 88.329-70.456 13.089-13.444 28.324-29.342 39.27-42.632 6.167-7.265 12.253-14.574 17.823-22.31 5.044-7.392 11.978-14.159 15.674-22.325h4c12.997 30.08 24.7 61.512 27.819 94.455.435 4.427-.08 8.896.377 13.305.374 3.43 3.74 5.8 6.262 7.546 8.963 6.985 21.18 13.126 31.294 15.645 12.67 4.367 25.667 1.284 38.248-.951v93h-367c.735 7.993 5.812 16.56 6 24m29-430h780.6c15.41-.221 35.842 1.518 42.4-13.5-20.307-18.809-43.569-34.106-65.03-51.495-22.416-15.799-42.85-34.817-66.345-49.005-22.746 30.08-48.493 58.661-70.625 89h-150v-104.4c.274-4.966-.414-10.907.42-15.405-.179-3.507 6.319-3.133 8.328-4.307 10.083-2.4 19.557-9.342 20.252-19.888-56.095-2.256-111.912-9.68-168-12v156h-338c.922 8.548 5.421 16.392 6 25m-4-674.249c-.72 107.966 43.576 215.447 120.706 290.805 75.444 76.314 182.355 120.328 289.634 119.444 107.455.642 214.544-43.531 289.853-120.313 76.53-75.477 120.699-182.572 119.807-290.027.642-107.455-43.531-214.544-120.313-289.853-75.477-76.53-182.572-120.699-290.027-119.807-107.455-.642-214.544 43.531-289.853 120.313-76.659 75.206-120.18 182.105-119.807 289.438m35.058-.007c1.301 27.02 2.168 54.012 8.431 80.198 18.506 86.152 68.683 164.898 138.805 218.229 71.804 55.528 164.567 82.637 254.987 75.647 97.444-6.204 190.955-52.842 254.913-126.572 66.17-74.399 99.703-175.895 91.583-275.085-6.373-97.36-53.038-190.735-126.782-254.585-74.606-65.95-176.318-99.942-275.652-91.106-47.132 2.96-93.417 15.28-135.736 36.242-61.193 30.136-114.396 76.857-151.18 134.415-39.642 59.72-58.634 131.192-59.37 202.617" style="fill:#ffdd76;fill-rule:evenodd;stroke:none"/><path d="M1057 2224.25c2.458 7.773 5.901 19.043 7 25.75h361v273c41.877.75 85.116-1.68 124.056-19.09 4.273-2.292 9.7-4.396 13.261-7.105 4.136-3.292 3.616-8.124 3.683-12.815V2250h343.8c10.454.34 34.791 1.897 36.2-16-20.706-14.675-40.005-32.66-60.759-47.579-20.456-16.01-41.631-31.134-62.241-46.921 14.48-12.845 22.126-31.976 20.996-51.206.24-19.824-9.25-38.298-21.16-53.501-14.91-17.848-34.256-31.404-55.164-41.469-22.488-10.27-46.158-18.467-70.672-22.324v-1.5c13.023-14.873 23.366-31.96 34.696-48.09 2.498-4.208 5.15-8.3 7.65-12.49 3.808-7.135 15.24-3.68 21.69-6.844 6.619-2.036 14.299-8.226 14.964-15.076-52.724-18.89-104.331-41.829-157-61-3.273 27.755-11.779 54.629-19.003 81.498-22.864 76.534-55.469 151.777-104.997 215.002 3.312 2.974 6.585 8.17 11.1 6.21 4.164-1.935 7.96-4.605 12.221-6.381 27.337-13.45 52.829-30.486 76.71-49.324 12.047-9.62 24.137-19.271 35.339-29.875 5.377-5.825 11.601-10.697 17.215-16.243 5.693-4.815 10.136-13.781 16.415-15.887 9.062 13.807 20.542 26.838 29.345 41.028 13.985 20.732 26.255 42.617 36.413 65.473 3.012 6.206 4.815 12.907 7.54 19.221 3.318 9.393 18 11.698 24.441 14.881 9.379 2.867 21.124 4.266 30.011 2.397-16.708 24.07-38.32 45.791-54.75 70h-171v-57c7.294-1.305 16.034-3.344 21.986-6.711 6.414-4.018 11.051-12.577 12.014-19.289-53.39-6.34-107.7-7.578-161-14.5 13.848-7.804 25.888-23.397 30.082-37.288 6.733-16.881 3.46-35.568-4.368-51.425-9.733-20.295-28.198-34.703-47.263-45.597-20.25-12.207-43.41-18.28-66.037-24.116-2.44-.58-4.904-1.012-7.414-1.074 10.432-21.604 25.417-41.4 34-64 13.012.277 28.819-1.02 36-17-52.17-18.614-103.747-40.21-155.5-60-7.552 33.78-14.071 68.177-25.065 101.178-15.744 47.367-33.678 94.271-57.611 138.188-10.966 21.563-23.715 42.308-37.917 61.878-13.556 20.692-31.385 38.366-46.907 57.256 2.442 2.824 4.77 5.77 7.313 8.5 44.348-20.338 85.769-47.335 122.643-79.288 18.92-16.387 36.617-34.295 53.153-53.063 8.135-9.272 16.276-18.597 23.89-28.315 6.5-9.982 15.861-18.566 21.001-29.334h2c12.997 30.08 24.7 61.512 27.819 94.455.435 4.427-.08 8.896.377 13.305.374 3.43 3.74 5.8 6.262 7.546 8.963 6.985 21.18 13.126 31.294 15.645 12.555 3.571 25.822 2.19 38.248-.951v91h-368zm29-431c2.638 8.29 5.522 18.842 7 26.75h784.834c13.497-.075 34.355 1.652 41.166-15.5-21.723-17.684-44.074-34.923-66.474-51.812-22.484-16.23-43.55-34.976-67.026-49.688-12.124 14.826-23.951 29.927-35.957 44.841-11.294 15.3-25.209 29.342-35.543 45.159h-148v-104.4c.125-4.948-.368-10.12.727-14.942 5.998-3.883 13.34-2.476 18.72-7.146 5.6-3.983 9.632-10.518 9.553-17.512-56.401-3.603-113.337-8.11-169.5-13-1.426 52.2.26 104.732-.5 157h-339zm3-648.4c-.964 108.243 43.361 216.11 120.706 291.706 75.583 76.437 182.763 120.516 290.243 119.444 107.92 1.036 215.595-43.252 291.244-120.313 76.782-75.775 121.044-183.353 119.807-291.22.886-107.725-43.385-215.152-120.313-290.66-75.775-76.782-183.353-121.044-291.22-119.807-107.725-.886-215.152 43.385-290.66 120.313-76.924 75.486-120.46 182.877-119.807 290.537m37.068.073c1.664 27.031 2.01 54.274 8.811 80.527 18.881 86.357 69.458 165.327 140.39 218.243 72.538 55.342 165.764 81.997 256.594 73.625 96.885-7.548 189.206-55.11 252.049-129.206 65.025-74.95 97.854-176.674 88.352-275.529-7.694-96.782-55.312-189.067-129.466-251.72-75.009-65.161-177.03-97.693-275.901-87.905-91.955 6.95-179.227 51.042-241.694 118.456-63.387 68.298-99.137 160.266-99.135 253.509" style="fill:#bc1201;fill-rule:evenodd;stroke:none"/></svg>