<svg xmlns="http://www.w3.org/2000/svg" width="3000" height="3000"><path d="M407 2715h2186c-120.11-729.14-243.257-1457.94-364-2187-121.653-40.09-243.099-81.112-364.7-121.395-91.164-30.407-182.32-60.766-273.474-91.162a32206 32206 0 0 1-51.529-17.183c-8.003-2.659-16.01-5.346-24-8-7.038-2.654-14.998-6.446-23.453-2.372-120.19 40.07-240.392 80.12-360.578 120.183C1011.124 447.878 891.186 488.387 771 528c-120.737 729.033-243.897 1457.913-364 2187m840-1941h664.8c8.602-.16 17.48.715 25.85-1.787 3.733-1.01 7.362-2.54 10.337-5.051 8.524-6.722-1.565-12.77-6.8-16.641-21.644-18.27-43.965-35.704-66.339-53.04-9.765-7.532-19.496-15.076-29.305-22.549a465 465 0 0 1-13.813-10.626c-2.47-1.333-4.777-4.418-7.153-4.806-5.296 2.288-7.201 8.462-11.409 12.284-13.101 16.8-26.299 33.555-39.483 50.29-5.89 7.454-11.817 14.93-17.681 22.402-3.137 4.75-7.601 4.905-12.595 4.524-157.25-.069-314.468.084-471.704-.045-8.967-.936-16.871-6.33-25.418-8.834-19.992-8.522-40.41-16.028-60.401-24.538-23.989-10.087-48.729-18.868-72.386-29.583-2.288 144.95 1.677 290.304-2.168 435.29-2.118 103.062-7.963 206.532-27.67 307.951-6.513 36.984-17.278 73.045-28.263 108.857-4.74 15.224-11.286 29.828-16.25 44.967-1.628 2.903 3.426 6.57 5.79 6.437 44.564-35.392 81.067-81.519 109.486-130.683 21.68-38.082 37.982-78.989 51.641-120.519 41.63-135.015 41.085-277.869 40.934-417.495zm-207 1322.5c2.565 8.135 5.616 16.289 8 24.5h143c-.362 81.742-6.692 164.19-29.455 243.07-21.287 73.968-62.516 142.536-120.545 193.43 2.128 1.938 3.757 4.254 5.5 6.5 41.703-17.343 82.977-37.736 118.466-66.237 54.254-42.532 95.783-100.195 120.322-164.484 26.293-67.377 34.507-140.508 36.712-212.279h81v442c19.989.399 40.124.858 59.72-3.834 13.737-3.217 27.036-8.214 39.946-13.815 9.075-3.924 19.21-9.827 26.6-15.044 8.734-5.297 8.33-13.979 7.734-22.277V2121h65c5.88 65.458 15.152 131.13 34.064 194.255 13.583 44.523 34.087 87.006 61.254 124.822 19.935 27.38 49.164 55.348 75.223 72.266 21.367 14.394 44.218 26.442 67.641 37.1 32.405 12.503 82.144 28.33 112.814-6.062 6.489-7.345 11.453-16.239 12.957-26.008 2.678-15.058-3.858-30.082-10.955-42.855-3.626-5.91-7.314-11.772-11.39-17.38-2.07-2.917-4.575-5.56-6.374-8.656-1.831-2.933-.965-7.812-1.223-11.69 1.068-35.956 4.102-71.822 4.989-107.792-2.238-.047-4.533.077-6.5-1-3.843 5.019-4.84 13.982-7.898 20.698-4.821 13.898-9.841 27.744-15.271 41.405-5.369 10.2-9.087 24.55-17.21 31.869-9.445 5.647-23.316-.573-31.977-4.406-34.742-14.21-61.836-42.135-81.385-73.461-18.713-31.31-35.069-72.046-40.759-105.105 4.305.252 7.21 3.863 10.133 6.546 23.607 20.297 44.386 43.91 62.354 69.264 6.39 9.232 11.984 18.962 16.937 29.031 3.09 10.442 16.084 13.813 25.876 14.798 18.224 2.237 38.382-4.091 49.351-19.66 17.08-22.36 12.165-54.789-6.494-74.529-16.432-21.174-42.334-31.317-67.157-38.45v-3c17.517-8.56 34.208-19.478 51.07-29.341 8.096-4.285 16.126-12.578 27.38-10.778 9.307.34 23.601-.63 25.55-10.881-42.073-20.038-82.475-44.062-124.143-65-2.134 1.953-1.951 6.102-2.792 9.211-4.994 24.637-10.88 49.112-17 73.484-1.399 6.319-3.235 12.504-4.945 18.733-1.194 4.38-1.626 10.34-6.443 10.249-14.894-.779-29.792-1.029-44.677.323-3.353-20.383-6.214-40.885-8.006-61.476-.4-5.797-.78-11.587-.962-17.384-.348-3.82-.204-8.087 5.026-8.444 10.845-1.995 23.775-6.788 30.942-14.196-18.795-15.11-39.024-28.363-58.116-43.08-9.713-6.97-19.24-14.208-28.929-21.196-4.815-3.561-9.526-7.238-14.471-10.617-4.626-2.938-9.329-7.897-14.14-9.607-14.652 16.263-29.44 32.382-44.159 48.568-3.53 4.347-7.472 8.325-11.367 12.326-2.452 3.417-9.458 1.422-12.78 2.106H1537v-285c6.805-1.539 14.012-2.579 20.02-6.46 7.289-3.712 9.21-9.7 11.98-16.04-54.493-7.72-110.926-9.297-165.5-16.5-1.42 22.21.254 44.73-.5 67-6.184-.303-12.016-5.38-16.914-7.648-34.216-20.014-68.973-39.237-103.086-59.352-33.822 41.574-72.589 79.486-113.764 113.815-40.457 32.267-82.447 63.948-128.236 88.185.445 3.103 1.953 6.614 3.5 9 24.366-6.209 49.722-10.352 74.002-17.372 12.119-2.982 24.184-6.239 36.175-9.678 11.894-2.462 25.188-8.87 36.323-9.95v150h-151zm59-372c2.353 8.238 6.46 17.769 8 25.5h491c8.153 96.176 34.51 195.747 98.197 270.754 31.087 36.27 71.66 63.597 115.552 81.93 22.642 10.118 46.416 18.485 71.319 20.652 24.563 3.329 51.825-3.297 67.252-23.804 10.628-13.275 14.421-32.312 7.774-48.294-4.276-11.553-11.371-21.767-19.096-31.24-2.81-3.733-6.74-6.616-8.934-10.803-2.535-7.694.196-18.637-.245-26.621.549-26.878 3.3-53.68 3.181-80.574l-8-1c-7.312 28.22-18.783 55.68-32.568 81.32-5.65 11.264-19.475 9.676-28.456 6.175-35.845-9.947-66.969-32.594-88.9-62.41-10.869-15-20.631-31.033-27.552-48.27-6.72-16.807-14.628-37.175-16.524-53.815 6.443 1.098 12.463 8.718 18.461 13.005 21.662 19.01 41.294 40.56 57.704 64.275 5.932 8.42 10.528 17.663 15.018 26.885 2.411 4.901 7.304 5.318 11.98 6.75 17.02 5.189 36.608 1.822 50.193-9.885 9.849-7.964 17.783-21.468 19.033-33.148 5.31-46.104-43.55-71.586-77.389-77.882v-3c17.372-5.746 34.532-12.39 51.72-18.697 7.958-3.18 16.36-9.059 26.044-6.066 8.224 1.356 22.186 1.178 24.236-8.237-18.888-11.137-35.91-26.172-54.447-38.076-17.762-13.302-36.692-25.127-54.053-38.924-10.95 32.838-23.585 65.408-37.947 96.957-1.97 3.89-2.937 9.417-7.625 9.896-8.316.93-16.749.676-25.083 1.379-5.921.003-12.85 1.413-18.263 1.29-4.522.55-3.864-8.018-4.902-10.518-2.344-13.572-4.38-27.23-4.68-41.004 6.833-.343 13.46-2.427 19.898-4.56 5.191-2.499 13.69-4.893 15.102-10.44-19.909-11.768-38.034-27.344-57.447-40.076-18.839-13.893-38.492-26.68-57.053-40.924-14.981 15.096-28.525 31.53-43.432 46.696-5.57 7.006-12.308 15.684-22.93 14.304H1099zm215-359.5c11.237.066 22.487-.11 33.674-1.225 10.3-.408 21.936-4.405 31.326-4.775 4.21 28.892 5.967 58.1 4.184 87.284-.07 21.378-6.015 42.018-9.694 62.82 7.308 12.243 21.273 23.43 33.502 28.018 21.795 8.846 47.744 2.414 63.37-15.157 16.003-16.846 22.193-41.242 16.126-63.7-5.832-23.107-20.806-42.634-37.59-58.867-16.974-16.59-37.434-28.934-57.55-41.153-1.68-1.013-2.46-2.523-2.348-4.245 12.13-2.569 23.12-9.146 34.067-14.6 5.038-3.114 10.774-7.282 14.717-11.017 4.77-5.26 4.276-11.246 4.216-17.383h355c-3.485 45.636-5.951 92.138-19.576 136.175-3.39 9.973-8.077 21.372-18.794 25.336-17.149 5.565-35.718 2.287-53.35 2.072-17.753-.925-35.503-2.242-53.28-2.583v9c23.415 5.106 51.777 16.209 65.197 34.754 16.78 21.133 16.812 49.752 16.803 75.246 25.852-.11 52.088-1.454 77.216-8.061 17.065-4.886 33.772-12.032 47.752-23.177 21.14-16.836 33.404-42.048 40.774-67.458 8.303-27.029 12.376-55.084 15.724-83.067 3.272-25.987 4.485-52.148 6.534-78.237 13.24-2.289 26.968-5.804 37-15.5-36.573-28.521-71.787-59.302-108.5-87.5-11.66 11.224-23.557 22.155-35.53 33.021-5.303 4.924-10.486 9.982-16.068 14.594-4.581 5.041-8.975 10.547-17.762 9.384-113.043.003-226.107 0-339.14.001v-69h464.4c10.941-.23 21.893.3 32.827-.205 8.23-.818 21.033-3.73 22.773-14.795-19.638-14.15-37.855-31.626-57.977-45.472-19.593-15.168-39.86-29.49-59.523-44.528-21.515 25.368-41.764 51.832-63.361 77.128-4.3 4.386-13.194 2.312-19.752 2.872H1442v-67h239v43c19.96-.09 40.168-.341 59.73-4.709 14.065-3.537 28.276-6.817 41.764-12.25 9.902-3.394 19.603-7.454 28.413-13.145 4.205-2.621 4.292-6.82 4.093-11.033V942c10.02-2.48 19.838-6.12 28.513-11.822 4.42-2.475 10.493-7.005 5.769-10.84-4.087-3.261-8.34-6.333-12.504-9.474-11.014-8.294-22.094-16.522-33.088-24.823-24.345-18.408-48.94-36.54-73.19-55.041-12.151 12.842-23.42 26.51-35.974 38.975-4.474 5.021-8.758 10.22-13.72 14.779-3.577 3.52-6.584 9.964-13.26 10.184-45.847.177-91.71-.032-137.546.062v-3c22.618-11.917 43.355-27.728 65.174-41.109 11.072-7.276 23.477-17.295 35.644-19.336 6.977-1.658 13.981-4.093 19.595-8.715 5.497-4.065 7.8-10.496 10.587-16.34-65.297-10.891-131.508-18.392-197-28.5.448 38.971 2.218 78.062 0 117-7.325-.05-16.237.712-22.57-1.989-44.056-16.316-87.227-35.196-131.43-51.011v510h-3c-.698-2.32-3.513-1.824-5.559-1.991-1.47-.02-2.974-.002-4.441-.009.533 12.3-1.721 24.665-7.482 35.624-10.045 17.828-28.19 34.919-44.582 43.913-8.324 4.21-16.755 8.173-24.958 12.588-14.237 8.6-28.626 23.41-34.092 37.836-10.683 28.874 2.646 65.202 30.613 78.804 10.88 5.31 22.936 8.32 35.05 8.147 19.906-1.388 38.668-11.109 51.875-25.917 20.177-22.81 28.866-53.346 29.435-83.312 1.127-31.325-7.624-61.876-18.739-90.741zm-54 559c32.111 1.071 63.908 6.814 96 8-1.398 7.545-5.535 14.605-12.294 18.486-6.557 4.187-14.309 5.089-21.706 6.514v139h81v-227c-6.655.975-13.222.896-19.85-.315-5.751-.484-11.976-1.352-17.1 1.98-33.964 19.051-69.42 36.057-106.05 49.335zm182-929h239v-75h-239zm0 103h239v-77h-239zm45 250c.613 4.913 4.779 10.49 6.937 15.844 9.508 19.276 16.222 39.735 21.86 60.408 4.245 16.5 7.065 33.41 8.098 50.41-.053 6.194-1.102 12.65 5.671 17.153 15.96 13.83 39.017 21.24 59.553 13.272 19.497-7.158 34.415-25.311 37.581-45.896 3.625-31.88-17.498-59.804-42.478-76.74-24.847-18.251-54.644-28.448-84.211-35.969-2.2-.54-4.486-1.09-6.767-.926-2.185.324-4.559 2.053-6.244 2.444m133-5.5c11.406 14.45 22.405 30.34 27.812 48.357 6.141 14.122 7.43 29.554 8.645 44.622 14.421 15.836 39.734 21.68 59.967 15.651 20.34-5.405 37.769-22.92 41.905-43.698 5.405-29.768-22.57-48.538-43.721-56.964-26.322-9.535-54.636-12.52-82.484-12.468-5.09-.835-8.771 1.525-12.124 4z" style="fill:#fedda9;fill-rule:evenodd;stroke:none"/><path d="M1045.688 1592c51.377-44.348 95.104-98.259 124.24-159.835 47.388-95.886 66.81-202.864 74.003-308.763 3.592-57.34 4.549-114.785 4.069-172.222V775h455.4c75.94-.458 151.898.559 227.815-.302 7.945-.868 18.156-4.14 21.165-10.939 2.996-6.57-8.513-11.396-11.883-15.685-19.306-15.845-38.58-31.77-58.526-46.81-9.974-7.62-19.828-15.343-29.827-22.93-4.722-3.968-9.827-7.443-14.619-11.31-4.49-2.995-9.963-8.452-14.197-10.024-18.394 22.336-35.744 45.583-53.847 68.152-4.074 4.946-7.838 10.1-11.875 15.066-1.673 2.41-4.072 4.895-5.877 6.86-6.646 1.68-13.893.471-20.707.922h-437.527c-8.533-.668-18.983 1.041-26.63-1.118-51.95-19.605-102.782-42.843-154.865-61.882-.716 159.298 1.618 318.677-2.707 477.916-1.302 74.841-8.821 149.405-19.263 223.453-5.59 37.274-13.354 74.202-23.431 110.512-5.136 17.07-9.803 34.335-16.062 51.028a989 989 0 0 1-9.193 25.24c-.958 3.74-3.82 8.494-3.845 11.66-.38 3.572 5.895 6.015 8.188 7.191M1038 2095.25c3.308 8.282 6.415 18.92 9 26.75h143c-.621 81.924-6.975 164.626-30.157 243.603-21.535 73.572-63.069 141.307-120.843 191.897 3.171 3.332 6.403 8.691 11.711 5.79 4.957-1.935 9.916-3.887 14.79-6.021 56.143-24.112 108.976-58.233 149.296-104.683 40.947-46.22 70.036-102.374 86.163-161.933 14.832-54.887 20.288-112.001 22.04-168.653h79v442c20.296.224 40.784.984 60.705-3.63 14.13-3.1 27.706-8.365 40.96-14.02 9.21-4.007 19.543-9.961 27.001-15.351 9.102-5.612 7.36-14.873 7.334-22.568V2122h63c5.88 65.458 15.152 131.13 34.064 194.255 13.583 44.523 34.087 87.006 61.254 124.822 19.935 27.38 49.164 55.348 75.223 72.266 21.367 14.394 44.218 26.442 67.641 37.1 18.067 7.382 40.494 14.818 58.651 14.557 15.076.146 31.24-1.369 44.184-10.06 8.809-6.173 16.456-14.326 21.06-24.127 7.835-15.763 4.52-34.441-2.99-49.58-3.337-7.015-7.545-13.564-11.918-19.96-4.22-6.823-11.638-12.727-11.168-21.366.779-37.339 4.403-74.553 4.999-111.907-3.45.221-8.305-1.85-10.372 2.339-1.787 3.794-2.69 7.935-4.186 11.836-4.567 14.06-9.934 27.808-14.99 41.689-4.932 10.695-9.732 23.907-15.493 33.086-7.358 11.094-22.243 4.356-31.382.796-35.066-14.02-63.047-41.24-82.718-72.947-19.328-32.064-34.116-68.143-41.359-104.799 24.182 20.09 45.839 43.358 64.739 68.461 6.736 9.29 13.273 18.775 18.508 29.02 2.612 4.612 4.551 9.802 7.238 14.307 3.154 3.66 8.475 4.19 12.745 5.868 18.432 5.613 40.035 2.575 54.595-10.609 21.334-19.436 21.37-54.066 5.26-76.611-15.13-22.69-39.65-35.989-65.312-43.191-2.477-.782-4.934-1.635-7.273-2.745 17.099-9.754 34.406-19.316 51.07-29.841 8.107-4.616 16.042-12.207 27.266-10.678 8.88.196 22.397-.102 26.664-11.325-20.055-11.8-44.998-23.727-63.709-34.076-10.574-5.799-21.424-11.136-31.967-16.982-10.563-5.04-22.402-12.588-32.324-16.598-4.861 26.27-10.985 52.304-17.555 78.199-1.672 6.519-3.17 13.108-5.11 19.546-1.354 4.663-2.053 9.618-4.243 13.96-7.512 2.305-15.396-.879-23.373.297-7.582.016-15.15.63-22.719.998-3.353-20.383-6.214-40.885-8.006-61.476-.348-5.79-.843-11.595-.927-17.387.174-1.666.272-4.245 1.27-5.268 12.212-3.694 26.703-5.874 35.663-16.369-18.728-15.66-39.507-28.719-58.708-43.766-19.806-13.827-38.827-29.288-58.792-42.734-15.265 15.688-29.073 32.695-44.297 48.414-3.534 4.356-7.343 8.439-11.314 12.388-2.584 3.694-8.01 3.357-12.055 3.198H1538v-283c12.933-2.643 29.756-6.23 32-25-55.858-6.12-112.122-9.96-168-16v67c-10.911-4.233-20.509-11.74-31.006-16.898-29.459-17.078-59.278-33.667-88.494-51.102-16.437 21.518-34.863 41.357-54.233 60.233-55.919 56.6-121.095 103.764-189.267 144.267 2.014 2.886 2.203 6.745 4.5 9.5 49.487-9.588 98.183-22.895 146.5-37v148h-152zm68-344.25h491c8.153 96.176 34.51 195.747 98.197 270.754 31.087 36.27 71.66 63.597 115.552 81.93 22.823 10.19 46.801 18.621 71.913 20.704 24.477 3.119 51.68-2.605 67.708-22.599 11.182-13.213 15.175-32.095 9.8-48.624-4.087-11.814-10.857-22.474-18.608-32.198-2.734-3.842-6.876-7.579-9.47-11.006-4.124-6.702-.752-17.812-1.235-26.616.55-27.465 3.437-54.856 3.143-82.345-3.334-.383-6.644-.91-10-1-7.076 27.976-18.688 54.926-31.998 80.447-5.692 11.817-17.825 11.074-28.232 6.638-35.525-10.01-66.284-32.876-87.987-62.427-10.791-14.839-20.374-30.792-27.259-47.842-6.3-16.66-13.908-34.093-16.024-51.816 23.439 17.88 44.207 39.246 62.633 62.197 6.461 8.292 13.772 18.403 18.403 26.867 4.735 8.421 7.352 19.593 16.824 21.027 15.966 5.39 34.25 4.12 48.76-4.659 22.407-12.746 32.236-42.42 21.786-66.046-9.737-23.654-32.605-39.024-56.089-46.607-5.816-2.203-11.89-3.488-17.817-5.279 16.978-7.017 34.72-12.219 51.72-19.197 7.85-3.778 16.436-8.68 26.777-5.629 8.946 1.229 20.495.004 24.503-8.924-18.237-13.512-37.035-26.5-55.447-39.826-9.4-6.662-18.82-13.259-28.163-19.99-4.691-3.303-9.309-6.698-14-10-4.589-2.591-9.943-8.246-14.39-8.934-9.412 32.565-23.41 63.908-36.564 95.11-2.185 3.648-3.227 9.554-6.544 11.446-8.216 1.209-16.63.853-24.89 1.577-5.926.167-11.817.875-17.71 1.277-4.697.97-4.857-6.495-5.478-9.64-2.324-13.158-4.2-26.426-4.814-39.77 12.347-1.243 28.505-5.837 36-15-33.88-25.588-69.638-49.189-103.877-74.395-4.26-2.158-9.418-8.156-13.59-8.036-14.736 12.51-25.796 28.86-39.765 42.164-7.093 6.033-13.015 17.942-21.84 18.23-10.983.105-21.976-.018-32.956.037H1098c.705 9.749 6.892 18.327 8 28m209-384.5c10.806-1.202 21.94.016 32.765-1.625 9.984-.298 21.201-3.976 30.235-4.875 4.13 28.458 5.958 57.224 4.146 85.977.103 21.378-6.45 41.953-9.655 62.773 12.964 27.382 50.615 41.559 78.515 28.605 13.42-5.925 24.552-16.39 31.078-29.563 7.803-13.928 8.887-30.498 6.372-45.933-4.874-23.484-19.055-44.279-35.931-60.834-16.652-16.993-36.996-29.843-57.293-41.91-1.9-.973-3.727-2.095-5.232-3.615 11.757-3.833 23.297-8.957 34.067-15.1 5.038-3.114 10.774-7.282 14.717-11.017 4.77-5.26 4.276-11.246 4.216-17.383h353c-3.876 45.253-5.914 91.526-19.915 135.139-3.355 9.903-8.29 20.965-19.026 24.598-16.94 5.144-35.107 1.952-52.47 1.738-17.846-.944-35.704-2.383-53.589-2.475v11c23.415 5.106 51.777 16.209 65.197 34.754 16.78 21.133 16.812 49.752 16.803 75.246 26.186-.084 52.769-1.13 78.249-7.812 17.235-4.81 34.097-12.022 48.288-23.092 21.697-16.998 34.072-42.84 41.49-68.733 8.426-27.376 12.253-55.858 15.707-84.178 3.1-25.315 4.278-50.792 6.266-76.185 10.672-1.86 21.274-4.434 30.464-10.45 2.22-1.488 4.45-3.135 6.044-5.302.145-3.631-6.26-5.83-7.9-8.372-3.026-2.605-6.118-5.12-9.24-7.602-11.37-8.92-22.338-18.336-33.668-27.297-19.674-15.189-38.32-32.208-58.2-46.977-11.488 11.341-23.652 21.89-35.31 33.036-5.524 4.676-10.49 9.95-16.14 14.488-4.389 4.237-9.013 11.008-17.115 10.46-112.969.045-225.967-.008-338.935.016v-67h465.6c10.91-.316 21.845.42 32.727-.314 9.213-.94 18.754-4.045 22.673-15.186-34.93-28.841-70.676-56.764-107.52-83.147-3.436-2.251-6.993-5.66-10.431-7.247-3.139-2.422-6.655 4.731-8.531 6.054-10.127 12.764-20.692 25.186-30.934 37.847-9.123 10.85-17.81 22.135-27.145 32.789-4.7 3.795-13.63 1.348-20.251 2.204H1443v-65h237v43c20.634-.121 41.55-.2 61.792-4.716 14.24-3.55 28.597-6.975 42.255-12.443 9.946-3.423 19.731-7.552 28.512-13.402 5.716-5.157 2.313-16.87 3.441-24.95V943c7.44-1.784 14.799-4.236 21.585-7.824 6.071-3.56 14.461-7.669 16.415-13.832-40.567-31.858-82.979-61.436-123.5-93.344-12.287 12.566-23.306 26.299-35.733 38.733-4.62 4.803-8.707 10.117-13.634 14.64-4.234 3.56-7.553 10.992-12.857 11.37-45.669-.027-91.68.793-137.276-.243 22.434-13.34 44.211-27.839 66.026-42.18 11.54-7.82 22.584-16.597 36.394-19.19 13.744-2.498 26.792-12.399 28.58-27.13-66.34-9.103-132.61-19.335-199-28 .363 38.972 2.303 78.054 0 117-7.497.27-15.136.537-22.127-2.547C1396.813 873.6 1353.17 855.485 1309 839c-.76 170.312.926 340.747-.5 511-1.592-2.935-6.661-1.533-10.178-2H1296c.533 12.3-1.721 24.665-7.482 35.624-10.127 17.937-28.435 35.204-45.017 44.144-8.508 4.34-17.216 8.243-25.516 12.951-14.152 8.81-28.493 23.707-33.52 38.405-10.07 29.365 2.755 66.171 31.418 79.82 11.142 5.443 23.502 8.252 35.888 8.006 19.782-1.144 38.659-10.654 51.94-25.197 20.562-22.667 29.443-53.403 30.12-83.486 1.124-30.982-6.195-61.802-17.866-90.32-.294-.504-.653-.965-.965-1.447m-54 555c.03.55.186 1.058.5 1.5 31.926 1.187 63.586 6.75 95.5 8-2.006 20.45-18.233 24.365-34 27v137h79v-225c-12.114 2.13-27.919-3.884-37.834 3.359-32.88 18.959-68.027 34.139-103.166 48.142M1443 994h237v-73h-237zm0 103h237v-75h-237zm42 251.25c10.38 22.686 21.992 45.392 27.795 69.935 5.513 19.085 9.078 38.812 10.145 58.654.627 3.336-.804 7.778 1.11 11.072 16.947 20.399 49.181 27.966 72.74 15.148 24.287-11.654 36.129-41.269 29.785-66.561-6.877-26.884-27.56-47.286-50.539-61.416-23.729-14.464-50.222-23.676-77.151-30.124-5.617-1.974-9.644.288-13.885 3.042zm133-5.625c12.25 14.618 23.387 31.16 29.002 49.768 2.685 7.115 4.802 14.476 6.072 21.987 1.828 6.913 1.748 14.001 2.248 21.03.264 4.945 8.941 7.055 11.678 9.883 17.28 11.085 39.379 12.699 58.134 4.25 17.554-6.859 33.355-26.416 34.486-43.898 4.332-29.742-23.27-47.96-44.538-56.392-26.363-9.444-54.72-12.331-82.56-12.253-2.68.42-6.537-.527-8.449 1.03-2.19.95-4.184 2.972-6.073 3.97z" style="fill:#000;fill-rule:evenodd;stroke:none"/></svg>