<svg xmlns="http://www.w3.org/2000/svg" width="3000" height="3000"><path d="M338 2761.5c387.06 1.426 774.925-.26 1162.15.5 387.224-.76 774.71.926 1161.85-.5-77.265-456.459-152.125-914.01-228.874-1370.691-28.417-170.851-56.988-341.657-85.4-512.497-12.491-74.824-24.942-149.684-37.431-224.508-5.828-35.176-11.741-70.32-17.569-105.492-3.54-17.097-4.968-34.714-9.072-51.664-1.3-3.941-8.915-3.966-11.797-5.85-133.175-44.44-266.372-88.79-399.558-133.193-116.482-38.867-233.005-77.647-349.48-116.505-6.56-1.974-12.94-4.527-19.527-6.382-6.558-1.31-12.878 2.396-19.017 4.029-100.339 33.452-200.674 66.889-301.01 100.324-87.802 29.33-175.659 58.504-263.446 87.829-38.52 12.817-77.015 25.657-115.52 38.495-18.005 5.974-35.995 12.026-54 18-8.822 2.95-17.652 5.903-26.471 8.83-4.346 1.012-8.371 2.451-8.57 8.208-90.761 544.76-181.624 1089.514-272.367 1634.27-35.423 208.458-69 418.87-104.891 626.797m112-95c349.66 1.426 700.125-.26 1049.95.5 349.946-.76 700.184.926 1050.05-.5-71.115-419.63-139.844-840.338-210.448-1260.2-26.214-157.169-52.393-314.328-78.582-471.499a856355 856355 0 0 0-34.418-206.502c-5.388-32.32-10.783-64.67-16.17-96.99-2.588-15.664-5.232-31.299-7.827-46.958-.793-4.36-1.427-8.742-2.21-13.102-.428-4.863-4.85-6.193-8.474-7.135-122.028-40.638-244.03-81.373-366.052-122.014-106.682-35.522-213.343-71.109-320.006-106.667-6.525-2.525-11.758-.06-17.468 1.947-92.703 30.905-185.37 61.816-278.08 92.691-81.01 26.99-161.996 54.033-243 81-35.467 11.86-70.965 23.65-106.438 35.486-16.678 5.533-33.31 11.15-49.99 16.655-3.243 1.458-10.117 2.375-10.586 5.954-85.805 510.194-170.013 1020.748-255.437 1531.015-32.076 188.3-62.276 378.547-94.814 566.319" style="fill:#747474;fill-rule:evenodd;stroke:none"/><path d="M1037 2126c3.58.4 6.556 4.822 10.07 4.512 5.707-.188 11.212-6.796 16.787-9.9 16.312-11.956 31.735-25.037 47.102-38.129 15.834-13.085 30.03-27.977 44.541-42.483 1.426 161.159-.26 322.756.5 484 20.938.382 41.971.748 62.61-3.44 13.901-2.673 29.761-7.95 41.662-13.047 9.404-4.02 20.246-9.58 27.712-15.297 8.107-5.771 5.825-16.274 6.016-24.071V1941c11.848-2.726 28.111-7.517 28-21-18.767-6.12-37.12-14.303-56-20v-1.5c36.74-56.315 65.667-117.757 90.105-180.307 1.485-3.885 2.826-9.137 8.041-9.626 8.015-.833 16.814-.817 23.377-6.468 2.785-1.958 5.3-4.299 7.15-7.175 1.356-2.254 3.883-6.205 1.895-8.15-48.358-15.912-98.324-28.802-146.986-44.174-9.014-2.43-17.843-5.59-26.887-7.878-1.768-.177-4.696-.557-5.803.594-6.718 29.966-11.544 61.076-19.702 90.88-7.13 30.353-16.074 60.207-25.392 89.933-9.88 30.49-19.874 60.966-31.568 90.818-14.45 37.82-29.935 75.266-47.332 111.824-8.569 18.877-18.693 36.972-28.053 55.441-4.981 8.852-9.939 17.72-15.001 26.527-3.564 8.191-12.453 17.787-12.844 25.261m138-579h25c2.226-12.3 9.262-23.501 20.135-29.903 21.216-11.942 46.248-10.312 69.562-10.097h111.986c18.355.228 36.713.035 55.042-.877 17.194-.142 32.931-8.916 43.275-22.123 4.656 4.172 7.925 9.937 13.622 13.036 10.255 6.493 22.503 9.066 34.482 9.271 46.818 1.642 93.686-.025 140.505.693 22.249.833 48.796-1.571 68.984 2.215 10.266 2.125 20.567 5.61 28.592 12.614 7.482 6.442 11.739 15.707 13.815 25.171h25v-81.6c.318-5.861.973-12.044-5.828-15.75-34.531-24.211-78.106-27.487-118.723-26.65h-85.107c-14.108-.29-28.26.378-42.346-.265-11.459-.616-27.516-2.31-27.996-18.735 31.21-4.063 65.671-3.84 93.188-21.886 6.161-4.262 12.348-11.457 13.308-18.535 2.143-12.757-4.238-24.598-8.7-36.127-4.225-10.899-8.461-21.808-12.692-32.699a1608 1608 0 0 0-10.865-27.767c-2.37-4.962 2.601-7.61 6.154-10.104 29.006-21.663 47.673-54.529 56.449-89.21 15.391-54.465 1.715-114.338-32.417-158.79-31.026-43.794-74.871-76.307-120.425-103.382 24.322-14.027 31.956-49.846 16.705-73.405-14.302-24.599-49.932-33.626-74.022-17.528-11.283 7.067-19.864 18.373-23.38 31.21-3.39 14.314-1.504 30.084 5.619 42.878 4.138 6.496 10.932 13.363 17.078 16.845-44.39 26.235-87.146 57.691-117.897 99.848-24.488 31.63-40.134 70.816-40.937 111.053-1.184 30.651 6.577 61.114 19.82 88.55 10.047 19.592 23.631 37.434 41.226 50.811 2.04 2.554 8.731 4.933 8.125 8.212-8.984 29.944-24.107 58.092-33.066 88.057-2.622 18.413 9.473 30.31 24.4 36.19 15.131 6.429 31.39 9.626 47.524 12.299 11.544 1.824 23.23 2.06 34.805 3.48-.714 18.727-23.307 19.225-36.586 18.998-29.755.005-59.478 0-89.226.002-41.789.06-85.618-3.083-125.035 14.004-8.72 3.658-17.398 7.708-24.781 13.741-6.564 4.395-3.637 15.08-4.372 21.883zm26-47.375c21.672-18.42 51.898-22.098 79.42-22.137 45.839-1.162 91.726.023 137.56-.488 20.895-1.234 46.947 4.982 61.915-11.52 6.519-7.692 7.14-20.152 8.803-28.69 1.931-10.2.756-22.44 2.302-31.79h-14c-.212 13.56-4.142 27.725-15.179 36.477-8.686 7.13-20.055 10.322-31.126 10.747-44.487 1.686-89.056.125-133.547.776-21.446-.064-43.371-1.096-64.292 4.79-9.2 2.415-19.594 7.389-26.173 13.168-7.444 5.583-2.01 20.312-5.683 28.667m155.074-380.74c.594 19.156 3.137 38.058 10.4 55.732 10.378 24.64 28.989 45.304 52.353 58.28 24.765 13.368 53.042 19.829 81.152 19.103 38.529 1.075 79.503-10.592 107.123-38.602 27.97-26.743 39.775-68.217 35.92-106.128-2.114-36.296-18.729-70.25-40.234-98.818-21.887-28.47-48.983-52.92-79.794-71.357-9.95-5.169-20.783-15.306-30.496-8.785-35.066 19.222-66.93 44.725-91.709 76.232-27.267 31.92-43.428 72.247-44.715 114.342M1356 2157c14.533-.347 31.808.214 45-2v367c27.69.8 55.904-.128 82.165-10.212 12.43-3.993 24.555-8.96 35.854-15.519 5.02-3.34 10.772-6.096 14.42-11.142 4.056-5.297 1.905-14.109 2.561-20.127h198v51c20.781.23 41.734 1.244 62.223-3.325a372 372 0 0 0 42.953-11.574c9.623-3.87 22.297-6.834 29.809-13.008 2.936-3.122 1.66-8.789 2.015-12.641V2210c10.088-1.894 20.266-4.85 28.03-12.023 3.185-2.465 9.92-8.075 6.254-11.606-3.513-3.588-8.091-5.932-11.759-9.346-11.122-8.642-22.548-16.889-33.732-25.442-8.097-6.56-16.708-12.524-24.793-19.083 24.123-4.613 48.366-11.068 70.959-21.023 12.144-4.52 8.896-16.216 9.041-25.173v-229.755c.655-3.642-1.16-9.788 1.837-11.924 6.829-1.64 13.796-3.46 19.625-7.644 4.265-2.81 13.337-9.501 5.49-14.479-19.703-15.005-39.213-30.293-59.068-45.082-14.928-11.198-29.578-22.711-44.514-33.896-2.624-1.776-5.21-4.898-8.821-6.036-5.727-.122-10.378 7.846-15.042 11.887-8.03 8.656-16.468 16.962-24.24 25.858-6.054 6.362-11.627 13.198-18.137 19.137-4.932 6.135-12.93 4.571-19.347 4.63-21.84-.753-44.064.92-65.783-.5 31.019-19.933 63.002-38.618 93.46-59.474 15.962-10.266 31.488-21.115 46.956-32.085 3.822-2.777 8.164-6.792 12.584-7.622 14.336-.066 33.903-5.186 34-21.319-30.023-7.88-60.127-15.7-90.177-23.494-14.927-4.123-30.032-7.565-44.956-11.683-14.575-3.093-31.287-9.152-44.867-10.823-10.382 56.383-27.143 111.458-41 167-37.653-.76-75.384.926-113-.5 17.818-1.481 34.69-10.03 46.36-23.537 12.335-14.113 15.703-33.442 13.176-51.483-2.57-17.697-15.367-35.693-27.857-45.707-14.043-11.293-33.341-21.016-48.858-26.543-16.958-5.21-34.274-9.434-51.967-11.376-8.937-1.354-17.889-2.309-26.924-2.52-7.908-.858-16.822-2.356-24.93 2.666.358 5.976 7.24 11.47 10.573 17.301 12.891 17.827 25.661 40.393 33.96 58.756 10.518 21.023 17.668 43.793 21.467 66.943 6.724 2.306 12.12 7.75 19.11 9.636 6.975 2.984 14.357 4.988 21.89 5.864-8.214.792-16.523.399-24.76.428-6.798-.637-12.985-4.163-19.425-6.187-20.755-7.948-41.55-15.813-62.318-23.696-10.698-3.791-21.141-8.235-31.828-12.029-10.348-2.985-21.794-9.718-31.669-11.016zm32.467-800.512c1.333 5.343 5.911 7.365 10.382 9.439 38.811 15.954 82.025 12.445 122.898 13.023 20.416-.77 41.085-1.372 60.887-6.87 8.994-2.373 18.563-4.827 26.076-10.631 8.362-9.113-9.636-14.773-14.922-16.64-32.445-10.012-66.518-10.488-100.146-9.809-17.43.08-34.88.431-52.21 2.315-15.412 2.717-34.228 5.622-46.995 12.62-3.28 1.317-4.105 4.21-5.97 6.553M1400 1316.5l.5 1.5c32.136-11.583 67.09-11.05 100.65-12.482 16.89.955 33.937-.343 50.706 2.703 16.37 1.168 32.138 5.787 48.144 8.779-5.864-13.843-10.87-28.524-17.5-42-12.685 3.508-29.14 4.834-41.197 6.251-21.3.977-42.542.783-63.797.74-19.938-.937-40.694-1.84-60.006-6.991-6.621 13.22-11.424 28.074-17.5 41.5m8-254.5h75v166h34v-166h75v-32h-75v-75h-34v75h-75zm63 1070.469c.035.578.191 1.072.531 1.531 12.757 3.939 25.017 9.88 37.669 14.216 11.292 3.064 23.569 10.664 34.361 11.727 47.581.163 95.143-.03 142.711.057 11.947-.34 23.974.418 35.897-.231 4.209-.458 6.368-4.458 9.002-7.336 9.43-9.935 18.452-20.23 27.476-30.513 4.65-5.073 9.195-10.258 13.95-15.226 5.62-5.628 4.506-12.383 4.403-19.694h-286c-.697 9.497.929 20.954-.695 29.559-3.265 7.753-13.225 12.436-19.305 15.91m3.16-1272.49c.11 14.102 12.77 26.667 26.815 25.932 13.662-.468 25.464-13.19 24.807-26.919-1.087-13.449-14.503-24.971-28.077-23.655-12.09 1.257-23.296 12.124-23.545 24.642M1491 1927h75v-100h-75zm0 131h75v-103h-75zm307.5-558c-.309-4.667-.813-9.698-.854-14.509-.077-3.599-.413-7.196-1.092-10.703-5.516-7.884-16.736-12.749-24.714-15.668-31.835-9.068-65.481-5.212-98.084-6.12-34.006-.48-68.039.707-102.013-.685-12.812-.237-26.495-3.545-35.842-12.932-9.794-8.643-12.494-21.95-12.901-34.383h-14c.987 10.96.876 21.99 2.481 32.905 1.321 8.337 2.314 17.09 6.447 24.625 6.45 10.272 19.125 14.183 30.64 14.42 12.784.142 25.538-.025 38.321.05h112.575c18.421.43 36.981.453 55.22 3.254 15.951 2.597 32.64 7.14 43.816 19.746M1536 2297h197c2.153-15.587.18-31.511 1-47.167v-35.371c-.915-8.348 1.338-18.939-1.268-25.525-6-1.677-12.73-.509-18.908-.937H1536zm0 140h197v-112h-197zm163-510h78v-100h-78zm0 131h78v-103h-78z" style="fill:#fff;fill-rule:evenodd;stroke:none"/><path d="M1535 2187.5c.03.55.186 1.058.5 1.5H1733c.76 35.568-.926 71.55.5 107 2.69-3.846.806-10.68 1.5-15.894v-57.576c-.029-9.586.035-19.203-.019-28.782-.157-1.927-.208-5.364-1.86-6.135-6.972-1.18-14.233-.25-21.272-.613h-141.868c-11.522.699-23.637-.866-34.981.5m225 329c-2.938-2.22-8.167-1.154-12.28-1.5H1735v-51h-2v39.8c.111 3.232-.245 7.079.413 9.997.337 4.835 9.616 2.471 12.347 3.203 4.717-.612 10.402.777 14.24-.5" style="fill:gray;fill-rule:evenodd;stroke:none"/><path d="M449 2666.5v1.5h2102v-1.5c-63.81-378.768-126.215-757.87-189.705-1136.696-47.349-283.998-94.654-568.016-142-852-4.398-26.67-8.911-53.338-13.325-80.003-1.118-6.656-2.232-13.342-3.35-19.985-.571-3.586-1.119-7.183-2.096-10.662-1.288-2.958-6.82-3.128-9.193-4.54-101.51-33.828-203.017-67.663-304.512-101.514a746151 746151 0 0 1-266.522-88.84c-39.072-12.89-78.06-26.135-117.144-38.98-4.713-1.335-9.273 1.032-13.839 2.453-144.507 48.104-288.95 96.378-433.449 144.467-54.18 18.08-108.385 36.116-162.566 54.195-23.808 7.923-47.625 15.882-71.434 23.805-5.676 1.96-11.407 3.738-17.06 5.726-6.564 1.113-6.72 8.744-7.34 13.268C740.08 921.349 682.77 1265.54 625.383 1609.692 566.339 1961.663 508.308 2314.864 449 2666.5m589-541.5c2.956.98 6.438 3.638 8.926 4.508 5.948-1.405 10.293-6.586 15.493-9.569 14.558-11.264 29.357-22.321 43.027-34.662 18.19-14.812 34.642-31.54 51.054-48.277 1.426 161.823-.26 324.097.5 486 20.643.45 41.375.7 61.686-3.646 14.104-2.918 27.884-7.419 41.1-13.059 9.223-3.97 19.874-9.467 27.198-15.079 7.981-5.603 5.923-15.83 6.016-23.471V1940c9.777-2.615 25.372-5.51 28-19-18.675-7.668-38.747-12.9-57-21.5 23.177-36.066 43.966-73.87 61.732-112.926 9.252-19.699 17.633-39.798 25.826-59.952 1.937-5.131 3.72-10.36 6.059-15.322 1.66-4.157 7.662-4.005 11.357-4.313 12.27.069 22.81-7.868 28.026-18.487-9.193-4.862-22.2-6.526-31.06-10.085-38.194-11.434-76.42-22.673-114.627-34.05-9.75-2.512-19.232-6.084-29.009-8.453-5.342-1.47-5.694 3.53-6.15 7.242-4.25 25.21-10.067 50.098-15.728 75.005-18.088 72.15-40.37 143.322-68.046 212.385-12.883 33.755-27.874 66.676-43.312 99.293-8.33 16.572-16.313 33.351-25.557 49.42-4.417 7.953-8.78 15.927-13.409 23.75-2.941 7.342-10.851 15.575-12.102 21.993m138-579h23c2.265-12.45 9.444-23.811 20.555-30.152 21.56-11.788 46.76-10.064 70.34-9.848h112.585c18.528.17 37.053.08 55.545-1.014 15.71-1.67 33.811-8.729 40.975-23.986h2c6.908 15.08 24.634 22.02 40.013 23.787 47.867 2.427 95.895.403 143.795 1.213 23.094.877 50.517-1.47 71.545 1.78 10.736 1.934 21.476 5.393 30.048 12.375 7.928 6.456 12.503 16.031 14.599 25.845h23v-80.4c.492-5.869.599-11.666-6.129-15.179-33.823-23.431-76.272-27.249-116.025-26.421h-86.905c-14.49-.324-29.027.426-43.499-.305-6.589-.505-13.485-1.112-19.427-4.316-5.808-3.115-8.136-10.186-8.015-16.379 31.325-4.153 66.067-3.773 93.582-22.18 6.217-4.282 12.19-11.688 12.999-18.797 1.48-12.18-5.339-23.412-9.2-34.566-4.148-11.118-8.716-22.064-12.854-33.18-4.012-11.136-8.999-21.991-12.527-33.277 40.102-24.022 62.707-70.992 69.136-115.961 7.872-51.795-10.689-104.478-43.537-144.261-15.107-19.487-36.443-39.232-53.741-53.665-18.666-16.186-40.554-27.922-60.858-41.613 13.719-8.483 24.398-22.78 24.76-39.486 2.144-16.825-4.032-33.854-17.144-44.858-20.483-19.727-56.446-16.938-74.162 4.976-18.654 20.663-16.25 56.548 5.474 74.13 2.167 1.996 4.817 3.381 7.072 5.238-30.144 19.784-62.116 38.177-86.975 64.975-40.536 37.747-71.945 89.564-72.84 146.434-.947 28.875 6.29 57.535 18.134 83.657 12.08 23.647 28.941 47.373 52.681 60.434-5.757 17.685-13.852 34.64-19.896 52.247-4.337 13.008-11.716 27.594-14.833 39.783-3.966 24.236 23.407 35.05 41.18 40.066 21.313 6.66 43.528 7.875 65.549 9.904.536 7.72-3.718 15.6-11.339 17.882-14.9 4.664-30.9 2.565-46.21 3.118h-83.832c-20.446.146-41.018-.711-61.37 1.7-13.48 1.344-29.124 5.065-40.738 9.487-9.59 3.447-19.022 7.438-27.487 13.17-3.354 1.753-5.82 4.661-8.593 7.02-1.23 30.135.224 60.457-.431 90.623m24.5-43c20.332-21.357 52.342-23.628 79.802-24.48 46.209-1.192 92.465-.021 138.678-.52 21.045-1.168 47.424 5.036 62.275-11.937 6.349-8.022 6.936-20.625 8.597-29.337 1.501-10.857.84-21.866 2.148-32.726h-16c-.17 13.758-4.276 28.069-15.574 36.812-8.965 7.173-20.643 10.17-31.929 10.463-45.29 1.672-90.652.02-135.944.725-21.658-.197-43.771-.634-64.71 5.928-9.042 2.942-19.745 8.375-25.145 15.445-1.385 5.016-1.156 10.547-1.581 15.735.754 4.344-1.526 10.451-.617 13.892m154.55-384.034c.43 18.797 2.855 37.39 9.747 54.84 9.825 25.068 28.581 45.915 51.744 59.393 24.932 13.613 53.395 20.58 81.838 19.801 38.645 1.189 79.941-9.316 108.223-37.102 29.032-26.666 40.95-68.454 37.644-106.932-1.717-36.743-17.84-71.238-39.492-100.298-21.84-28.767-48.928-53.323-79.824-72.009-4.965-2.926-9.873-5.908-14.938-8.639-4.674-2.74-10.036-6.054-15.36-2.325-36.114 19.06-68.765 45.018-94.202 77.055-12.547 15.868-23.95 32.922-31.679 51.707-9.233 20.205-12.75 42.41-13.701 64.509M1357 2156c15.036.136 30.074-.402 45-2v367c27.382.799 55.228-.532 81.143-10.552 12.234-3.967 24.248-8.855 35.305-15.46 4.896-3.221 10.446-5.98 13.99-10.861 4.057-5.297 1.906-14.109 2.562-20.127h199c1.058 16.669-1.3 33.8.724 50.337 2.323 2.912 8.872.901 11.867 1.649 12.398-.227 24.795-.7 37.062-2.442 18.439-2.428 36.451-7.53 54.08-13.294 8.586-2.943 17.274-5.768 25.414-9.841 5.731-2.18 7.224-5.868 6.853-11.19V2209c13.553-2.563 28.236-8.233 36-20.5-24.613-18.663-49.126-37.729-74-56 2.661-1.935 7.343-1.681 11.039-2.79 14.168-2.745 28.02-6.777 41.655-11.452 6.103-1.886 12.044-4.306 17.95-6.725 5.248-2.102 12.068-5.291 11.346-12.434.03-49.593-.006-99.189.01-148.769v-92.981c.398-4.323-.708-9.739.982-13.128 10.843-3.575 23.26-6.708 30.018-17.221-18.971-15.565-39.248-29.953-58.575-45.16-14.909-11.149-29.475-22.71-44.399-33.815-5.354-3.572-12.151-12.098-17.267-7.207-17.923 17.279-33.41 36.794-51.234 54.157-4.924 6.057-11.298 5.372-17.951 5.025h-62.801c-3.477-.214-7.66.338-10.773-.5 32.118-19.46 64.093-39.213 95.335-60.074 16.081-10.34 31.75-21.304 47.377-32.29 4.014-2.451 8.013-6.595 12.073-8.21 6.844-1.76 15.303.31 22.84-4.333 5.884-2.959 12.64-9.198 13.375-15.593-59.435-14.812-118.488-31.537-178-46-10.382 56.383-27.143 111.458-41 167h-143.4c-14.174 1.02-27.105-4.954-40.014-10.151-38.008-13.784-75.507-29.344-113.586-42.849zm30.484-798.986c1.206 7.24 11.162 10.033 16.622 12.516 23.928 8.562 49.494 9.866 74.608 10.37 37.686.011 76.312 1.726 112.899-8.958 7.372-2.967 19.181-5.926 20.893-13.616-.22-6.517-8.185-9.92-13.116-11.946-19.083-6.46-39.299-9.836-59.392-10.693-25.5-.85-51.04-.951-76.533-.093-12.157.217-24.201 1.697-36.148 3.863-11.21 2.294-24.675 5.249-33.88 10.477-2.704 1.636-6.255 5.201-5.953 8.08M1398 1317.5c.03.55.186 1.057.5 1.5 16.5-3.872 33.053-8.116 50.018-9.72 51.195-6.233 103.548-2.843 153.482 9.72-5.595-15.115-11.875-30.34-18.5-45-35.881 8.16-72.847 7.39-109.335 6.91-17.902-.651-35.747-2.567-53.346-5.99-5.06-1.426-6.624 2.817-8.053 7.176-5.165 11.435-9.459 24.34-14.766 35.404m11-256.5h75v166h32v-166h75v-30h-75v-75h-32v75h-75zm11 580.75c30.485 41.55 57.846 88.426 66 140.25 6.724 2.306 12.12 7.75 19.11 9.636 23.344 10.42 52.3 7.244 72.05-9.567 19.412-15.905 27.778-44.565 18.534-68.303-5.84-16.367-17.527-30.148-31.593-40.053-14.06-9.953-32.811-18.392-47.81-23.113-15.083-4.966-33.646-7.987-48.035-9.944-8.218-1.26-16.48-2.141-24.8-2.28-7.97-.52-15.346-2.416-23.456 2.624zm47 491.68c23.197 8.408 46.36 18.155 69.633 26.583 10.379 2.128 21.232.175 31.72.987h140.903c6.654-.247 15.501 1.385 19.485-3.486 12.034-13.903 24.861-27.112 36.877-41.03 3.38-4.46 8.01-7.954 10.914-12.784 2.712-4.413.713-11.932 1.468-17.7h-288v16.2c.25 7.194 1.4 14.845-6.24 20.452-4.442 4.9-12.03 7.452-16.76 10.778m6.08-1273.681c-.38 14.954 12.742 28.167 27.535 27.216 14.635.305 27.002-13.197 26.283-27.636-.348-14.558-14.723-26.539-29.058-25.132-12.751.857-24.822 12.191-24.76 25.552M1490 1928h77v-102h-77zm0 131h77v-105h-77zm310-556.332c-.979-8.091-1.219-16.213-1.731-24.329-.187-11.115-17.71-16.661-25.429-20.219-11.153-3.413-24.834-5.19-35.459-5.925-41.618-.556-83.249.101-124.872-.195-19.643-.624-43.518 1.247-60.949-4.408-8.468-3.304-16.196-8.893-20.97-16.782-4.877-8.03-5.895-17.664-6.59-26.81h-16c.694 10.818 1.22 23.508 2.267 33.402 1.934 14.332 3.457 33.165 23.432 38.234 16.595 4.152 34.098 1.364 50.993 2.364 38.343.003 76.646-.003 114.975.002 18.68.558 37.603.328 56.053 3.67 8.254 1.542 16.616 3.159 24.238 6.842 3.857 1.759 7.634 3.765 10.94 6.428 3.676 1.849 5.608 6.435 9.102 7.726M1535 2298h199v-110h-199zm0 140h199v-114h-199zm163-510h80v-102h-80zm0 131h80v-105h-80z" style="fill:#000;fill-rule:evenodd;stroke:none"/></svg>