<svg xmlns="http://www.w3.org/2000/svg" width="3000" height="3000"><path d="M204 2906.5c431.66 1.426 864.125-.26 1295.95.5 431.946-.76 864.184.926 1296.05-.5-71.347-421.454-140.17-844.031-211.186-1265.681C2515.49 1219.807 2443.894 799.05 2375 378c-18.825-4.147-36.622-12.377-55.173-17.557-141.343-47.107-282.688-94.208-424.008-141.343-105.996-35.346-212.02-70.658-318-106l-60-20c-4.743-1.483-9.392-3.202-14.133-4.67-4.689-1.596-9.296.594-13.846 2.121-144.162 48.092-288.385 96.1-432.543 144.19-72.152 24.045-144.327 48.113-216.478 72.159-35.996 12.013-72.02 23.992-108 36-18 6.028-36 11.971-54 18-9.01 3.004-18.013 5.972-27 9-8.742 2.234-18.56 7.118-26.819 8.1-68.995 421.677-140.705 843.07-210.109 1264.703C344.003 2063.481 275.132 2486.22 204 2906.5M329 2802h2342c-123.036-740.941-247.019-1481.777-370.274-2222.688-3.869-23.172-7.715-46.335-11.6-69.503-1.87-11.315-3.782-22.648-5.658-33.952-.522-3.125-1.046-6.23-1.573-9.342-.7-2.603-.642-7.073-3.071-8.13-87.426-29.928-175.45-58.357-262.998-87.942-153.344-51.126-306.685-102.189-460.007-153.343-14.539-4.787-28.996-9.687-43.52-14.495-6.115-2.813-13.363-4.96-20.864-1.257a4101622 4101622 0 0 0-329.17 109.723c-82.137 27.354-164.262 54.776-246.4 82.13C854.18 413.77 792.493 434.326 730.82 454.9c-5.645 1.806-12.378 2.56-12.51 10.243-29.845 179.014-59.658 358.033-89.495 537.038C529.059 1602.139 428.546 2202.041 329 2802" style="fill:#747474;fill-rule:evenodd;stroke:none"/><path d="M1056 2299c-1.14 44.45-7.767 91.559-33.777 129.044-4.766 6.748-11.202 12.028-16.695 18.135-15.91 21.325-32.115 58.184-1.952 83.626 18.006 15.566 50.122 12.148 65.626-1.652 28.253-24.496 32.935-64.275 31.798-99.137-.293-36.298-10.351-71.838-21.2-106.147-1.832-5.27-3.425-10.618-5.562-15.774-1.078-2.46-1.944-6.668-4.273-7.069-2.757-1.07-5.796-.917-8.688-1.02-1.743-.01-3.538-.003-5.277-.006m-6-27c14.475-.424 29.032.575 43.48-.451 22.364-1.566 44.324-8.46 62.44-21.833 3.447-2.223 6.952-4.579 9.376-7.962 2.572-3.187 2.473-7.28 1.855-11.147.27-7.76-.949-17.505.83-24.383 6.115-2.451 15.112-.405 21.565-1.224H1342c-1.121 24.273-2.57 48.84-4.5 73-14.857-11.892-32.805-19.553-50.995-24.704-9.806-2.971-19.837-5.04-29.863-7.055-4.428-.032-9.827-2.606-14.483-1.287-3.25 2.505-8.927 5.701-10.159 9.046 20.372 17.363 38.252 37.682 52.36 60.563 7.57 11.73 12.58 24.847 16.332 38.19 1.226 6.101 1.085 13.18 9.098 16.113 5.833 3.8 12.577 4.663 19.21 5.634-4.066 20.533-5.606 42.158-10.728 62.658-3.17 15.278-7.166 30.451-13.107 44.903-4.091 10.461-10.224 20.944-20.411 26.451-16.938 8.206-36.43 4.833-54.484 4.754-18.142-.315-36.151-2.623-54.27-3.266-.598 5.316-1.108 10.644-1 16 24.168 5.097 49.111 16.85 63.492 37.828 6.998 10.651 9.382 23.563 11.105 35.921 1.567 13.696 2.501 27.453 2.403 41.251 26.125.332 52.518-3.11 77.207-11.916 34.836-10.983 63.794-36.454 79.773-69.091 16.612-33.942 25.663-70.987 31.878-108.099 11.9-75.01 17.835-151.014 20.142-226.894 12.201-.477 23.588-5.296 34.577-10 16.003 17.368 31.81 34.893 48.49 51.624 2.247 1.851 3.655 5.202 6.12 5.886 5.132.628 7.28-8.465 7.74-11.689.247-7.148-4.459-14.726.526-21.71 3.299-6.99 6.142-14.177 9.23-21.247 9.132-19.862 16.028-40.962 24.817-60.864 9.345 50.443 20.584 101.034 37.24 149.703 5.893 18.069 12.677 35.845 20.202 53.3 4.617 7.787-.148 14.073-4.81 20.789-31.33 51.007-68.488 98.412-111.502 140.078-42.95 41.257-91.584 77.291-143.63 106.13-.422 5.437 6.207 9.987 7 14 15.066-1.897 28.806-9.89 43.284-13.962 49.656-18.54 97.837-41.454 142.58-69.944 22.038-13.405 42.357-29.368 62.982-44.77 9.925-8.572 20.51-16.367 29.908-25.518 10.257-7.756 18.151-19.286 29.246-25.806 22.3 36.668 53.107 67.874 83.466 97.928 16.506 14.288 32.44 29.285 50.2 42.07 8.412 6.42 16.914 12.662 25.604 18.689 4.24 3.142 8.742 5.881 13.065 8.887 4.319 2.422 8.911 6.962 13.665 7.426 8.59-29.385 22.911-57.584 44.022-80.031 20.72-22.539 48.772-38.465 78.978-43.969.253-4.723 1.75-9.291 2-14-44.453-12.476-86.546-32.336-128.307-51.664-39.8-19.88-78.734-42.16-113.693-69.836 30.762-41.2 56.392-86.4 78.2-132.905 11.013-24.04 22.364-48.081 31.188-73.055 2.315-6.227 4.493-12.519 6.89-18.714 1.716-4.52 2.597-10.216 9.289-9.979 12.545-.89 31.716-2.99 34.433-21.847-32.818-9.766-65.559-20.043-98.336-29.98-12.318-3.867-24.685-7.55-37.031-11.306-10.69-3.265-21.323-6.715-32.07-9.769-6.247-1.772-6.297 5.892-7.349 10.415-13.92 72.23-37.147 142.452-66.124 209.939-.695 1.91-1.668 3.715-2.09 5.701-4.664-1.838-7.682-9.108-10.683-11.615-24.19-31.868-43.39-67.176-58.423-104.203-3.725-9.663-7.395-19.322-10.827-29.084-1.694-7.209-5.719-15.233-6.484-22.02-.286-4.88 5.431-9.653 7.76-14.619 4.658-6.842 9.152-13.777 13.766-20.633 3.514-6.523 11.211-14.522 11.891-20.826-16.96-2.253-36.321-8.828-52-10-.431 18.006-3.953 35.801-5.032 53.752-.622 6.313-7.199 12.352-11.958 17.708-20.08 18.253-39.966 36.667-61.48 53.29-4.116 2.845-7.72 7.025-11.957 8.754-4.15-.007-7.711-5.71-11.74-7.994-27.177-22.36-53.92-45.216-81.027-67.647-3.126-2.778-7.224-7.206-11.003-3.893-11.76 10.364-21.726 22.64-33.603 32.866-5.967 4.927-11.05 10.84-16.675 16.139-2.721 2.517-5.546 5.954-8.426 7.814-2.873 2.224-8.88.57-12.099 1.211v-112h65.4c16.415-.007 32.835.009 49.244-.005 9.6.203 23.256-1.024 29.05-12.69 3.985-7.382-7.129-14.664-11.064-19.175-17.44-16.333-35.678-31.704-53.71-47.383-4.329-3.558-8.375-7.447-12.917-10.742-4.135-3.127-9.39-8.9-14.003-9.005-14.127 23.16-33.83 43.832-48 67h-4v-116h65.4c16.415-.007 32.835.009 49.244-.005 9.6.203 23.256-1.024 29.05-12.69 3.985-7.382-7.129-14.664-11.064-19.175-17.44-16.333-35.678-31.704-53.71-47.383-4.329-3.558-8.375-7.447-12.917-10.742-4.135-3.127-9.39-8.9-14.003-9.005-14.127 23.16-33.83 43.832-48 67h-4v-113h139.8c11.178.078 28.97.362 34.034-14.284 2.051-4.86-3.194-8.562-6.635-11.211-24.721-22.77-51.46-43.195-77.72-64.122-4.472-3.182-8.553-6.842-12.883-10.187-3.929-2.093-8.393-7.643-12.235-7.705-5.884 3.333-10.687 12.768-16.359 18.543-7.78 10.095-15.592 20.155-23.521 30.118-3.91 5.067-7.755 10.173-11.872 15.07-3.629 4.33-7.945 12.026-12.95 12.623-10.577.435-21.153-.073-31.724.155h-91.107c-6.824-.07-15.133.696-21.028-1.894-20.937-8.263-42.149-15.753-63.09-23.997-21.47-6.804-41.948-17.435-63.71-23.109zm53 20c7.68 33.65 15.107 67.834 15.417 102.624 1.353 27.516.565 55.17-3.92 82.385-.808 4.734-1.923 9.724 1.651 13.378 5.314 6.18 13.35 11.982 20.38 14.55 15.611 4.542 32.895-1.764 42.37-14.839 14.913-18.295 18.428-47.334 16.367-68.03-1.862-23.82-10.556-46.453-21.456-67.448-12.983-24.546-32.103-45.01-51.911-64.111-4.68-4.761-13.614 1.124-18.898 1.491m396-1144c4.045 16.986 1.37 35.198-6.827 50.59-13.862 25.85-35.944 45.787-55.406 67.143-15.646 15.718-31.743 31.01-46.013 47.997-10.511 12.311-21.807 24.409-29.522 38.77-24.202 45.423-33.064 97.583-33.232 148.5h214c-.338 9.304.89 20.62-1.677 28.915-2.954 9.577-10.79 12.114-19.124 12.904-16.798 3.062-33.958 2.004-50.918 2.181h-91.005c-22.214.648-44.657-1.225-66.748 1.728-15.7 1.881-31.028 5.94-45.879 11.264-10.024 4.01-21.619 9.574-29.805 15.158-2.97 2.192-7.241 4.494-7.685 9.232-.454 33.197.083 66.428-.159 99.618 8.264-.437 18.089.56 25.631-.369 3.939.094 3.562-7.394 5.378-9.517 11.055-29.372 45.887-33.685 70.155-34.112 46.332-.005 92.634 0 138.96-.002 22.971-.03 45.948.274 68.9-.732 20.386.138 42.872-7.63 53.476-26.268 17.108 28.776 53.372 26.684 79.27 27h143.94c22.964.669 46.483-1.83 69.05 3.481 20.288 3.972 39.679 18.758 42.24 40.519h28v-90c.148-6.346 1.434-13.445-5.975-17.708-17.967-12.759-39.152-20.075-60.49-24.827-23.257-5.472-47.144-4.909-70.842-4.465h-107.332c-17.2.19-34.532.618-51.473-2.907-8.023-.836-14.99-6.769-15.62-15.134-.629-8.636.003-17.324-.268-25.959h213c.758-86.66-4.68-173.42-18.17-259.06-9.043-61.282-23.063-122.252-48.1-179.132-35.803-81.316-92.606-154.875-168.339-202.518-19.311-11.292-39.43-21.372-60.428-29.137-7.683-3.234-20.595-3.911-20.807-12.368-.15-30.097-11.153-59.75-28.576-83.994-8.716-11.817-19.503-22.3-31.867-30.3-7.255-5.29-14.251-4.99-22.234-4.491H1432c2.37 17.517 2.38 35.35 1.722 52.994-1.35 16.734-1.801 34.069-7.722 50.006-6.065.266-6.245-9.848-8.11-13.635-6.699-17.573-18.169-33.524-33.856-44.282-7.557-5.272-15.67-9.874-24.213-13.324-8.573-3.195-21.221-.91-31.821-1.759 3.944 21.275 8.851 42.66 8 64.51.319 20.346-2.487 44.455-8.71 62.15-1.517 4.034-6.96 5.84-10.186 7.986-14.603 8.486-31.322 20.107-40.865 32.568-10.618 12.485-16.667 27.921-21.642 43.324-9.723 30.172-16.468 61.813-32.892 89.366-7.496 10.858-15.693 21.274-21.684 33.103-12.341 22.735-21.118 47.047-29.582 71.402-4.09 11.34-8.26 22.623-12.554 33.873-3.182 9.868-8.632 19.197-12.435 28.656-.588 5.236 3.197 8.32 5.354 12.595 9.465 15.148 19.081 30.176 28.668 45.236 8.505 13.544 16.493 28.468 30.302 37.365 12.774 7.64 30.569 9.815 43.817 10.533 13.234 1.587 26.74-1.067 37.473-9.364 18.146-12.716 30.454-31.54 44.408-48.28 10.67-12.944 22.293-25.182 35.315-35.79 4.735-4.458 10.606-6.489 17.217-6.241 22.152-2.827 45.184-3.964 66.2-12.27 9.833-4.104 18.983-9.862 26.27-17.697 3.797-3.892 7.148-8.232 10.304-12.636 3.242-3.247 4.53-10.96 8.222-12.389m-295 735v-114h-37v75.136c.809 11.936-1.039 26.322.69 37.147 1.5 2.418 6.412 1.24 8.614 1.717zm0 148v-117h-37v76.138c.599 12.487-.76 27.306.481 38.712 1.048 2.745 6.124 1.735 8.23 2.15zm-36 143h36v-112h-36zm0 97c20.944 46.947 43.67 95.749 47.514 148.224.237 3.631.466 7.255.476 10.884-2.144 12.453 14.21 21.633 23.44 23.917 20.968 4.58 37.082-8.699 43.43-26.315 5.72-18.123 5.372-38.29-.582-56.347-6.74-23.027-21.76-42.202-37.283-59.824-16.712-16.257-35.554-30.269-55.702-41.951-7.047-5.135-14.23-2.11-21.293 1.412m78.5-1063c7.734-25.999 22.821-50.609 45.5-66.25-.404-1.772-1.32-3.389-2.5-4.75-10.58 1.928-21.642 1.99-31.503 7.198-13.871 6.185-26.087 16.901-32.515 30.82-10.748 15.106 10.49 28.357 21.018 32.982M1411 964v-7c-15.703-3.729-33.886-11.094-48.793-11.98-12.627-.486-27.004.224-36.55 9.894-3.192 3.088-5.264 7.223-5.554 11.597.823 3.07-1.639 10.4 2.402 12.42 6.395 4.157 14.408 4.241 21.69 4.866 10.82 1.375 21.68-1.406 30.341-8.198 7.79-6.923 17.028-12.25 27.765-12.2 2.566-.27 5.158-.024 7.673.492zm302 973c-25.104-11.973-49.462-26.132-74.345-38.678-12.733-6.343-25.02-13.524-37.742-19.865-6.554-3-12.822-6.551-19.1-10.05-6.149-2.602-14.118-8.06-19.813-8.407-12.96 48.698-33.992 95.292-57.382 139.78-17.447 31.791-36.311 63.006-58.593 91.695-4.294 5.568-8.432 11.26-13.048 16.56-2.073 2.624-4.466 4.943-6.475 7.612-2.048 2.295-4.807 5.139-3.703 7.96 1.926 5.38 7.29 12.396 12.158 9.837 83.463-36.675 157.827-91.394 220.518-157.42 4.391-4.283 8.21-9.099 12.421-13.54 2.72-2.89 5.538-8.221 10.31-7.686 13.28.22 33.242-3.197 34.794-17.798m-260-90h520.2c8.064.242 16.324.014 23.842-3.292 6.173-2.737 12.356-9.985 9.945-16.532-37.563-34.196-78.467-64.592-117.731-96.788-6.03-3.313-10.69 6.285-13.775 9.764-13.487 17.713-27.058 35.381-40.44 53.158-3.405 4.58-6.85 9.114-10.424 13.557-3.038 2.636-4.537 8.098-8.294 8.667-14.024 1.304-28.263-.216-42.323.466v-113c8.794-1.013 19.45-3.517 26.19-8.203 7.123-5.306 11.342-14.005 10.81-22.797-60.02-3.56-119.913-10.563-180-13v157h-186c1.188 10.618 6.081 20.528 8 31m141-917.625c32.436 26.433 60.574 59.496 80.879 96.182 31.545 58.67 41.859 125.918 46.01 191.503 1.625 35.839 2.937 71.714 1.881 107.6-.667 34.857-1.952 69.778-6.77 104.34h66c.416-50.487-2.55-100.883-7.898-151.069-8.315-69.766-21.056-140.386-49.622-205.05-13.548-31.016-33.608-58.77-54.747-84.973-10.872-13.505-22.634-26.335-35.543-37.944-6.432-5.622-12.609-11.55-19.738-16.324-5.871-4.488-13.293-12.072-20.452-4.265M1746 1881c.523 4.004 4.448 6.39 6.496 9.646 39.285 42.822 74.404 90.093 100.432 142.19 7.138 13.62 13.257 27.689 18.465 42.135 1.484 1.74 1.358 6.675 3.771 7.767 18.806 11.354 42.465 17.495 64.256 11.392 20.57-4.946 37.26-21.774 43.881-41.613 9.002-25.846 2.975-54.966-11.34-77.463-20.46-32.439-53.748-54.397-88.418-69.303-35.977-15.556-74.727-23.516-113.386-28.745-4.465-.35-8.858-1.437-13.334-1.558-4.352-.183-7.034 4.116-10.823 5.552" style="fill:#fff;fill-rule:evenodd;stroke:none"/><path d="M1205 1884v-2h-37v-114h-2v97.091c.18 4.937-.251 9.892.21 14.81.201 4.319 4.39 4.046 7.323 4.094 10.498.015 20.98-.003 31.467.005m0 148v-2h-37v-117h-2v98.6c.08 5.015-.104 10.012.075 15.014-.068 7.72 12.675 4.825 17.495 5.386zm-37.5 204c1.334-9.8-.168-20.107.5-30h175v-2h-156c-6.516.518-15.828-.851-21 1v15.78c.578 5.008-1.065 11.524 1.5 15.22" style="fill:gray;fill-rule:evenodd;stroke:none"/><path d="M328 2803h2344c-118.785-721.214-240.618-1442.068-360.03-2163.199-7.528-45.17-15.046-90.339-22.588-135.492-1.756-10.718-3.574-21.44-5.367-32.15-1.463-5.102-.632-13.609-5.65-15.42-82.419-27.818-165.08-54.96-247.546-82.639-144.35-48.044-288.615-96.253-432.954-144.3-27.19-9.095-54.376-18.14-81.566-27.195-6.024-1.707-14.13-5.746-19.294-4.368-99.967 33.09-199.81 66.647-299.74 99.834a5130220 5130220 0 0 1-448.968 149.67c-9.274 3.513-19.03 5.778-28.13 9.725-3.665 1.962-2.298 9.57-3.876 12.727-22.54 135.51-45.194 271.003-67.739 406.508C542.266 1518.848 433.622 2160.802 328 2803m729-503c-1.118 44.306-7.731 91.191-33.484 128.646-4.735 6.77-11.077 12.112-16.651 18.145-16.245 20.918-32.385 57.489-1.867 82.36 18.046 15.773 50.062 11.483 64.726-3.409 12.783-11.633 21.225-27.312 25.326-43.988 13.049-53.889.134-109.81-17.261-160.919-1.515-4.878-3.312-9.686-5.15-14.446-1.363-6.487-7.576-6.772-12.636-6.387-1.014-.004-2.003 0-3.003-.002m-6-29c26.967.615 54.782 1.37 80.353-8.993 10.864-4.783 21.394-11 30.574-18.55 5.67-5.037 5.312-11.465 5.073-17.868V2205h176c-.234 25.053-3.625 49.956-4 75h-1.5c-14.061-12.073-31.665-19.389-49.152-24.908-9.898-2.798-19.868-5.408-29.968-7.3-4.785-1.459-9.924-1.207-14.72-2.308-3.426 2.72-7.409 4.982-10.66 8.016 21.028 16.538 37.893 37.697 52.36 60.063 7.57 11.73 12.58 24.847 16.332 38.19 1.226 6.101 1.085 13.18 9.098 16.113 5.909 3.22 12.423 5.386 19.21 5.134-3.181 20.887-5.603 41.963-10.221 62.613-3.016 15.655-7.314 31.077-13.009 45.957-4.06 10.725-10.055 21.485-20.198 27.492-16.963 8.694-36.745 5.383-54.985 5.274-18.22-.545-36.393-2.318-54.587-3.336-.46 4.657-1.027 9.323-1 14 24.168 5.097 49.111 16.85 63.492 37.828 6.998 10.651 9.382 23.563 11.105 35.921 1.567 13.696 2.501 27.453 2.403 41.251 25.658.326 51.503-3.554 75.724-12.08 34.32-11 62.868-36.018 78.833-68.128 16.627-33.33 25.474-69.863 31.87-106.359 12.161-75.837 18.2-152.697 20.573-229.433 12.411-.934 24.706-5.069 35.5-11 9.581 9.441 17.9 20.04 27.475 29.475 8.883 9.57 19.41 20.723 27.525 29.525 5.993-3.045 7.138-12.271 5.963-17.396-1.644-4.977-3.794-7.564-1.187-12.144 14.081-29.401 25.463-60.11 37.224-90.46 14.286 73.32 30.726 147.42 62.5 215.5-32.54 53.043-68.993 104.536-113.975 147.975-43.929 44.655-95.682 81.852-150.025 112.525v1.5c2.247 3.197 5.892 7.48 7 10.5 57.933-17.29 113.672-42.627 165.937-72.888 25.158-15.08 49.457-31.705 72.73-49.567 24.034-17.624 45.5-38.465 67.333-58.545 48.891 70.612 112.821 130.265 185.5 176 9.902-28.746 22.454-57.552 44.213-79.629 20.618-22.885 49.012-38.73 79.287-44.371.476-4.022.974-8.077 2-12-47.722-14.244-93.656-34.862-138.34-56.681-31.617-16.736-63.063-34.046-91.735-55.631-5.212-3.926-14.241-8.343-9.278-14.247 29.262-41.35 55.338-85.1 76.287-131.272 10.467-23.719 22.018-47.058 30.454-71.629 2.26-6.062 4.368-12.181 6.713-18.201 1.666-4.06 2.6-10.258 8.304-10.369 13.03-.931 30.23-2.153 35.595-19.97-56.398-17.4-113.317-34.11-169.5-52-2.658 3.652-2.429 10.135-4.035 15.14-15.304 73.381-38.008 145.563-68.965 213.86-42.73-49.17-69.32-110.067-88.5-171.5 11.907-17.134 22.764-35.104 35-52v-1.5c-16.8-2.54-33.176-7.681-50-10-.468 13.635-2.713 27.17-3.856 40.76-.841 5.62-.5 12.528-2.239 17.508-4.817 9.195-13.923 15.15-21.007 22.334-12.731 12.87-27.325 23.676-40.898 35.59-5.384 4.182-10.558 8.63-15.848 12.907-2.229 1.668-4.597 3.987-6.994 4.8-2.206 1.676-5.378-2.148-6.946-3.064-31.83-25.95-62.78-53.048-94.712-78.835-11.71 11.24-22.675 23.253-34.59 34.267-6.44 5.198-11.882 11.544-17.885 17.208-2.876 2.817-5.58 5.962-9.05 8.053-4.286.578-8.646.524-12.975.472v-114h65.4c16.415-.007 32.835.009 49.244-.005 9.51.198 22.789-.949 28.82-12.215 2.538-4.451-.34-7.69-3.566-10.382-19.507-19.861-41.202-37.36-62.182-55.598-7.532-5.166-14.361-13.596-23.716-18.8-14.127 23.16-33.83 43.832-48 67h-6v-118h65.4c16.415-.007 32.835.009 49.244-.005 9.51.198 22.789-.949 28.82-12.214 2.538-4.452-.34-7.69-3.566-10.383-19.507-19.861-41.202-37.36-62.182-55.598-7.532-5.166-14.361-13.596-23.716-18.8-14.127 23.16-33.83 43.832-48 67h-6v-115h140.4c12.358.125 28.866.135 34.6-16.5-35.195-31.18-72.055-61.17-109.5-89.5-18.989 22.692-36.494 46.718-55.075 69.755-1.753 2.295-3.598 4.486-5.742 6.391-12.002 2.2-25.132-.207-37.37.854h-89.967c-6.803-.171-15.147.74-21.061-1.706-41.699-15.839-83.453-31.916-125.285-47.294zm53 22.365c9.104 30.415 12.856 62.21 15.189 93.767 1.564 32.695 1.453 66.302-5.189 98.368 7.05 9.362 19.099 19.303 30.466 19.472 12.882 1.035 25.349-5.314 33.144-15.496 16.318-20.666 19.032-49.013 15.78-74.164-6.476-46.922-34.29-87.724-67.992-119.414-2.882-2.515-5.79-6.863-9.139-5.973-4.154.228-8.583 2.393-12.259 3.075zM1500 1147c4.02 17.121 1.71 35.446-6.093 51.18-13.273 26.291-35.793 45.856-55.01 67.422-15.544 15.82-31.843 30.937-46.066 47.963-10.774 12.169-21.744 24.52-29.915 38.643-24.323 45.152-33.484 97.04-33.916 147.792h214c.243 15.87 4.699 41.76-20.37 43.742-16.727 3.11-33.859 2.124-50.75 2.258h-91.005c-22.248.647-44.697-1.196-66.817 1.647-15.51 1.852-30.694 5.7-45.371 10.98-10.116 3.901-21.72 9.463-30.013 14.968-2.933 2.38-8.105 4.964-8.316 8.643-1.02 32.86.185 65.882-.358 98.762 8.127-.485 18.003.723 25.337-.712 3.933-6.452 3.752-13.785 9.06-19.164 7.705-10.757 20.268-17.2 32.842-20.182 24.655-6.235 50.543-2.963 75.653-3.942h117.992c31.812-1.204 78.13 7.348 100.616-28 7.91 11.694 19.087 20.843 33.175 24.022 13.067 3.97 26.944 3.29 40.418 3.927 49.203.146 98.43-.027 147.618.051 22.961.424 50.354-1.492 71.072 3.201 9.837 2.792 21.625 6.997 28.571 13.704 7.768 7.016 13.24 16.647 14.646 27.095h26v-88.8c.246-6.158 1.203-12.862-5.975-16.908-37.565-26.93-85.187-30.388-129.533-29.292H1708.36c-17.391.195-34.91.628-52.03-3.022-21.596-4.04-14.01-28.377-15.331-42.978h213c.756-86.34-4.9-172.76-18.344-258.07-8.98-60.936-23.123-121.557-47.925-178.122-35.733-80.999-92.203-154.471-167.626-202.05a390.6 390.6 0 0 0-59.535-29.042c-4.132-1.402-8.263-2.802-12.422-4.113-3.609-1.034-8.845-1.748-9.573-6.107-.662-30.354-10.047-60.257-27.738-85.062-8.544-11.98-18.959-22.782-31.38-30.791-2.897-1.773-6.292-4.02-9.248-5.028-12.28-1.622-24.872.187-37.209-.615 3.116 16.809 1.64 37.281 1.732 52.852-1.353 16.782-1.795 34.168-7.732 50.148-7.654.951-7.902-6.693-9.518-11.806-6.081-17.972-17.659-34.092-33.173-45.2-7.488-5.377-15.505-10.024-23.984-13.649-9.878-3.901-20.988-1.57-31.325-2.345 5.514 21.543 8.297 43.82 8 66.054.073 20.083-2.531 44.193-9.177 61.516-5.547 6.607-15.22 8.747-21.7 14.34-14.36 9.37-27.64 20.924-36.475 35.826-17.053 28.735-20.977 62.886-33.23 93.462-5.222 13.402-11.716 26.408-20.128 38.085-33.151 43.725-42.666 99.636-65.579 148.29-2.054 4.018-5.391 9.043-3.177 12.984 9.787 15.306 19.172 30.844 29.145 46.015 8.637 13.102 17.26 30.373 28.66 39.635 11.424 9.111 28.979 13.256 42.064 14.126 7.034.101 15.396 1.242 21.794.046 24.25-5.081 40.688-26.314 54.966-44.592 11.1-14.248 22.855-27.923 35.949-40.371 4.985-4.565 10.242-8.921 16.009-12.45 11.632-3.208 24.796-2.42 36.738-4.915 17.9-2.297 35.977-5.908 51.775-15.008 7.468-4.692 14.358-10.482 19.733-17.534 2.828-3.514 5.634-7.067 7.822-11.018 1.928-3.127 2.946-8.592 7.811-8.491m-333 736h38v-115h-38zm0 148h38v-118h-38zm0 144h38v-114h-38zm2 97.31c14.394 26.607 26.02 54.875 34.886 83.869 6.545 22.272 12.051 45.068 12.993 68.365.54 4.581-.567 9.906 1.046 14.22 9.964 12.112 27.828 19.51 42.815 12.12 24.827-11.805 26.944-42.784 23.885-64.08-3.02-22.57-17.525-45.932-30.017-62.019-19.541-22.939-43.788-41.768-70.172-56.313-4.382-1.596-10.406 1.933-15.436 3.528zM1248 1209c5.836-27.73 24.654-50.458 46-67.75-.547-1.64-2.32-3.165-3.588-4.684-2.117-.105-4.247.047-6.372.243-21.76.566-42.887 11.92-55.303 29.693-5.071 8.081-11.59 18.47-5.132 25.816 5.525 7.51 16.776 15.418 24.395 16.682m164-244v-9c-16.06-3.842-34.691-11.431-49.986-11.994-12.725-.453-27.136-.01-36.958 9.523-6.73 5.946-7.539 17.93-4.892 25.329 5.38 4.723 14.263 5.09 20.65 5.777 5.639.27 12.36.73 17.5-.121 15.352-2.812 25.598-18.339 41.344-19.652 3.79-.848 7.566-.34 11.343.096zm19.5 1169c52.137-23.865 102.504-52.456 146.716-89.392 23.115-18.07 44.812-37.828 65.386-58.71 5.16-5.326 10.613-10.394 15.661-15.825 3.565-4.282 7.393-8.34 10.983-12.594 1.272-1.582 2.867-2.84 4.466-4.022 13.61 1.038 32.271-1.178 37.288-15.457-50.301-24.023-98.413-53.517-149-77-12.986 48.849-34.124 95.567-57.593 140.181-23.469 42.202-49.173 84.511-82.407 119.819 1.132 4.208 5.622 8.792 8.5 13m14.5-316.5c2.631 9.466 5.55 18.965 8 28.5h502.8c9.86-.33 21.51.576 30.5-.74 6.846-1.065 15.736-4.22 18.683-12.854 1.581-4.187-1.914-5.79-4.333-8.303-18.633-17.008-38.345-32.778-58.108-48.443-9.663-7.873-19.523-15.5-29.17-23.381-5.013-3.913-9.918-7.953-14.888-11.904-4.789-2.98-9.216-8.59-14.148-10.375-15.437 19.511-30.145 39.637-45.474 59.225-3.906 5.046-7.586 10.267-11.615 15.204-2.955 3.346-5.56 8.028-8.573 10.827-2.5 2.522-7.685 1.402-11.488 1.744H1773v-115c14.755-1.533 36.628-6.531 37-29-59.362-3.682-118.587-10.277-178-13v157h-186zm146-888.75c31.471 27.802 61.35 59.298 81.315 96.761 31.877 58.74 42.335 126.17 46.54 191.97 3.774 70.764 2.938 142.073-4.855 212.519h68c.43-50.946-2.33-101.835-7.843-152.462-8.388-70.711-21.3-142.296-50.588-207.7-14.193-30.987-34.435-58.982-55.807-85.364-11.371-13.078-22.738-26.44-36.113-37.583a231 231 0 0 0-20.185-16.506c-3.38-1.98-6.924-5.318-10.438-6.343-3.107-1.833-7.139 4.185-10.026 3.958zm155 953.625c30.334 33.418 59.588 68.269 83.123 106.967 8.937 14.24 17.175 28.882 24.552 43.991 7.317 13.744 13.191 28.15 18.501 42.747 1.365 6.613 9.978 9.602 14.666 11.786 23.817 10.563 54.053 10.782 74.722-7.04 29.848-25.517 29.552-72.712 9.06-103.613-18.851-31.477-50.398-52.59-82.976-67.85-42.014-18.508-87.602-28.082-133.072-32.878-2.534 2.157-6.473 3.595-8.576 5.89" style="fill:#000;fill-rule:evenodd;stroke:none"/></svg>