<svg xmlns="http://www.w3.org/2000/svg" width="3000" height="3000"><path d="M448 2669h2104c-108.019-653.996-218.137-1307.761-326.618-1961.691-6.813-40.83-13.621-81.671-20.41-122.502-.9-5.185-1.732-10.375-2.627-15.558-.693-5.948-7.25-6.546-11.566-8.162a2264805 2264805 0 0 1-451.953-150.644c-56.522-18.824-113.032-37.715-169.56-56.514-12.477-4.17-24.972-8.31-37.44-12.486-6.015-1.98-11.998-4.026-18-6-5.943-1.873-12.256-5.247-18.565-3.023-92.812 30.91-185.585 61.892-278.396 92.78-138.737 46.826-278.12 92.047-416.698 139.266-3.665 1.962-2.298 9.57-3.876 12.727-22.4 134.514-44.811 269.006-67.243 403.502C635.746 1543.503 540.855 2106.166 448 2669m608-470.5c1.131 4.083 2.657 8.054 3.656 12.204.845 3.074 1.403 6.226 2.79 9.105.852 2.408 5.279 1.812 7.179 2.189 7.973.006 15.962-.001 23.93.002H1425v300c40.787.743 82.782-2.583 120.32-20.16 7.74-3.901 19.736-8.546 18.678-20.087.005-32.924 0-65.861.002-98.78V2222h328.2c10.628-.369 21.35.551 31.94-.547 4.276-.538 8.261-2.4 11.874-4.668 2.47-1.701 7.495-6.265 4.565-9.05-42.798-35.891-86.818-71.12-132.079-103.735-14.307 17.026-27.425 35.059-41.38 52.368-10.778 12.727-20.252 26.522-31.021 39.23-2.268 2.873-7.368 2.345-10.074 2.402H1564v-110.4c.851-5.017-1.327-12.112 1.427-15.766 7.004-2.266 14.764-3.037 21.018-7.318 6.956-4.333 9.026-10.355 11.555-17.016-57.578-4.107-115.325-10.879-173-14.5v165h-369zm6.25-66.5c88.853-21.195 178.736-47.825 255.77-98.678 38.245-23.926 69.863-57.19 94.779-94.49 12.536-19.105 22.074-39.785 29.521-61.362 7.109-22.063 15.34-44.227 17.68-67.47h138v129.6c.463 30.788-1.755 62.358 6.568 92.394 5.294 21.923 24.815 36.746 46.373 40.213 34.706 7.23 70.513 3.953 105.68 4.793 34.222.39 68.596-.1 102.385-6.005 25.43-5.297 59.664-13.464 73.949-44.605 6.649-14.476 6.458-31.683.934-46.428-5.55-12.938-20.056-23.082-31.889-26.962-2.004-28.283-2.26-56.693-4-85h-7c-9.237 25.71-21.513 50.469-35.558 73.867-12.175 22.02-40.359 17.293-59.348 18.133-17.689-.17-35.355.208-53.025-.115-5.822-.454-13.851-.356-17.034-4.965-2.678-4.56-1.761-11.497-2.035-16.119V1818c10.31-.57 23.428-5.426 29-13.5-35.665-27.012-69.51-57.076-105.5-83.5-11.337 11.169-23.331 25.48-33.694 35.754-8.244 8.638-17.428 19.276-25.205 26.966-3.843 3.308-10.382 1.96-15.016 2.28H1465c3.428-36.993 10.368-73.744 11-111 12.421-2.17 29.172-6.179 34-22.5-57.847-6.035-116.051-12.122-174-17.5-.072 50.451-4.39 100.825-9 151-71.607.76-143.478-.926-215 .5 3.215 6.879 4.298 16.137 7.917 22.213 6.462 2.596 13.007.407 19.833 1.287H1323c-10.189 71.152-39.562 140.794-90.733 192.233C1183.38 2053.86 1120.998 2090.562 1057 2120c.043 4.426 3.027 8.849 5.25 12M1837 964c-28.724-15.61-55.931-34.7-84.407-50.932-48.923-30.072-98.06-59.77-146.996-89.797-18.532-11.062-36.825-22.48-55.242-33.71-16.504-9.351-32.087-20.427-48.792-29.356-3.148-1.559-7.25 2.72-10.57 4.095-54.621 33.424-109.357 66.66-163.919 100.156-27.464 16.569-54.695 33.514-82.149 50.084-27.532 15.927-54.212 34.055-81.925 49.46v370.062c.337 7.34-.428 14.74.274 22.046.126 2.948 3.44 5.113 6.188 6.852 41.253 24.878 82.106 50.362 123.354 75.229 30.809 19.055 61.968 37.515 92.738 56.632 22.97 14.159 46.037 28.13 69.05 42.21 9.097 5.233 17.922 10.9 26.888 16.327 3.615 2.366 7.496 4.323 11.092 6.716 8.363 7.553 16.795-1.562 22.97-4.895 49.418-30.285 98.96-60.343 148.372-90.635 38.652-23.397 77.01-47.27 115.688-70.6 14.731-8.785 29.256-17.914 43.94-26.765 6.074-3.377 14.733-7.024 13.446-15.971zm-45 26c-48.78-28.478-96.889-59.135-145.45-88.181-36.615-21.769-72.59-44.562-109.232-66.287-6.76-4.495-13.863-8.457-20.778-12.69-6.874-3.55-13.879-11.152-21.101-7.35-47.955 28.92-95.662 58.279-143.556 87.271C1303.924 931.606 1256.172 961.78 1208 990v320.239c.162 6.376-.208 12.759.137 19.117.373 5.111 6.749 7.65 10.49 10.087 35.35 21.518 70.709 42.954 105.978 64.589 53.088 32.115 105.965 64.53 158.949 96.789 6.278 3.065 14.22 10.79 20.46 7.426 46.315-27.913 92.336-56.326 138.6-84.303 33.695-20.202 67.02-41.005 100.712-61.195 12.64-8.005 25.67-15.443 38.305-23.454 2.563-1.5 5.612-3.27 7.687-5.046 2.924-2.262 2.705-6.167 2.682-9.639z" style="fill:#fff;fill-rule:evenodd;stroke:none"/><path d="M338 2761.5c387.06 1.426 774.925-.26 1162.15.5 387.224-.76 774.71.926 1161.85-.5-77.265-456.459-152.125-914.01-228.874-1370.691-28.417-170.851-56.988-341.657-85.4-512.497-12.491-74.824-24.942-149.684-37.431-224.508-5.828-35.176-11.741-70.32-17.569-105.492-3.54-17.097-4.968-34.714-9.072-51.664-1.3-3.941-8.915-3.966-11.797-5.85-133.175-44.44-266.372-88.79-399.558-133.193-116.482-38.867-233.005-77.647-349.48-116.505-6.56-1.974-12.94-4.527-19.527-6.382-6.558-1.31-12.878 2.396-19.017 4.029-100.339 33.452-200.674 66.889-301.01 100.324-87.802 29.33-175.659 58.504-263.446 87.829-38.52 12.817-77.015 25.657-115.52 38.495-18.005 5.974-35.995 12.026-54 18-8.822 2.95-17.652 5.903-26.471 8.83-4.346 1.012-8.371 2.451-8.57 8.208-90.761 544.76-181.624 1089.514-272.367 1634.27-35.423 208.458-69 418.87-104.891 626.797m111-95v1.5h2102v-1.5c-63.81-378.768-126.215-757.87-189.705-1136.696-47.349-283.998-94.654-568.016-142-852-4.398-26.67-8.911-53.338-13.325-80.003-1.118-6.656-2.232-13.342-3.35-19.985-.571-3.586-1.119-7.183-2.096-10.662-1.288-2.958-6.82-3.128-9.193-4.54-101.51-33.828-203.017-67.663-304.512-101.514a746151 746151 0 0 1-266.522-88.84c-39.072-12.89-78.06-26.135-117.144-38.98-4.713-1.335-9.273 1.032-13.839 2.453-144.507 48.104-288.95 96.378-433.449 144.467-54.18 18.08-108.385 36.116-162.566 54.195-23.808 7.923-47.625 15.882-71.434 23.805-5.676 1.96-11.407 3.738-17.06 5.726-6.564 1.113-6.72 8.744-7.34 13.268C740.08 921.349 682.77 1265.54 625.383 1609.692 566.339 1961.663 508.308 2314.864 449 2666.5" style="fill:gray;fill-rule:evenodd;stroke:none"/><path d="M1055 2120.292c.787 3.292 2.67 7.48 4.862 10.465 2.731 3.328 8.05.716 11.57.141 51.707-12.25 102.999-27.043 152.287-46.976 29.033-11.848 57.47-25.448 83.926-42.361 20.66-11.997 39.263-27.023 57.078-42.815 24.926-24.522 47.795-51.932 63.203-83.575 8.121-16.36 14.15-33.698 20.145-50.906 5.385-16.85 11.22-37.071 12.929-53.265h136v129c.467 30.791-1.77 62.336 6.398 92.413 5.112 21.953 24.431 37.077 46.011 40.672 34.47 7.348 70.07 4.12 105.012 4.915 34.851.53 69.749-.123 104.197-5.698 25.888-5.38 61.23-13.361 75.554-45.415 6.732-14.439 5.838-34.078.893-47.486-5.426-13.17-20.118-23.48-32.065-27.401-2.004-28.283-2.26-56.693-4-85h-9c-9.056 25.452-21.352 49.835-35.037 73.073-11.643 22.108-39.05 18.58-58.076 18.927-17.53-.15-35.05.185-52.568-.103-5.64-.518-13.13-.315-16.672-4.192-3.575-3.848-2.052-11.088-2.647-15.707V1819c11.275-.636 23.03-5.382 30-14.5-35.49-29.204-72.252-57.01-107.5-86.5-9.927 12.34-23.667 25.505-33.367 36.373-8.663 8.778-16.42 18.357-25.116 27.083-3.82 4.31-8.795 3.572-14.06 3.544H1466c4.227-36.234 9.894-72.467 11-109 12.824-3.182 31.503-5.677 34-25-58.365-5.856-117.396-11.06-175.5-18-1.464 50.656-4.082 101.55-9.5 152h-215c1.42 7.848 4.326 15.472 7.027 22.937 1.294 4.264 8.631 2.619 11.747 3.063H1322c-6.268 36.19-16.233 71.882-31.682 105.3-22.212 48.44-58.757 88.929-99.588 122.401-41.112 33.467-88.414 58.096-135.73 81.299zM1424 2223v300c41.592.792 84.527-2.211 122.774-20.39 7.994-3.777 19.576-8.784 18.225-20.425.003-33.54 0-67.082.001-100.608V2223h340.2c12.461-.581 31.697 3.304 38.8-14.5-44.055-36.837-89.103-72.675-135.5-106.5-14.648 16.793-27.507 35.149-41.598 52.402-10.634 12.883-20.455 26.408-31.005 39.344-4.154 4.957-13.612 2.633-20.449 3.254H1565v-110.4c.466-4.564-1.576-13.408 3.604-14.481 7.02-1.981 14.864-2.868 20.567-7.959 5.632-4.442 9.107-11.056 9.829-18.16-58.476-2.443-116.531-11.565-175-14v165h-369c.9 6.829 4.078 15.296 5.872 22.575 1.363 4.156 7.214 3.327 10.716 3.425H1424m414-1260c-28.724-15.61-55.931-34.7-84.407-50.932-49.072-30.156-98.377-59.957-147.466-90.063-18.53-11.055-36.823-22.488-55.22-33.736-16.67-9.27-32.209-20.732-49.163-29.426-4.222-1.297-8.675 3.04-12.076 4.69-54.553 33.292-109.11 66.539-163.594 99.923-27.464 16.569-54.695 33.514-82.149 50.084-27.532 15.927-54.212 34.055-81.925 49.46v372.436c.447 7.259-.598 15.948.45 22.548-.03 2.895 4.85 4.606 6.452 6.263 41.58 24.909 82.59 50.69 124.113 75.673 31.146 18.984 62.24 38.055 93.391 57.012 23.009 14.438 46.555 28.018 69.52 42.524 8.938 5.357 17.821 10.822 26.703 16.25 7.788 3.721 15.508 12.705 22.843 7.272 53.12-32.533 106.314-64.948 159.454-97.434 38.781-23.51 77.345-47.415 116.144-70.885 14.724-8.808 29.257-17.916 43.96-26.758 6.16-3.614 14.274-6.49 12.97-16.292zm-47 28c-48.61-28.405-96.587-58.903-144.972-87.903-36.67-21.77-72.683-44.595-109.354-66.348-6.705-4.5-13.764-8.404-20.644-12.623-6.746-3.158-13.767-11.348-20.579-7.072-47.758 28.89-95.35 58.03-143.036 87.02C1304.58 932.774 1257.053 962.92 1209 991v319.063c.282 6.148-.373 13.428.274 19.046.111 5.006 8.391 7.23 11.27 9.914 35.15 21.466 70.492 42.62 105.5 64.296 52.811 31.873 105.34 64.173 158.03 96.22 6.363 2.905 13.763 10.645 19.694 7.243 46.09-27.72 91.807-56.06 137.846-83.838 33.58-20.098 66.753-40.855 100.32-60.964 12.702-7.936 25.605-15.487 38.289-23.426 5.555-2.974 11.942-5.96 10.777-14.345z" style="fill:#048a04;fill-rule:evenodd;stroke:none"/></svg>