<svg xmlns="http://www.w3.org/2000/svg" width="3000" height="3000"><path d="M407 2715h2186c-120.11-729.14-243.257-1457.94-364-2187-121.653-40.09-243.099-81.112-364.7-121.395-91.164-30.407-182.32-60.766-273.474-91.162a32206 32206 0 0 1-51.529-17.183c-8.003-2.659-16.01-5.346-24-8-7.038-2.654-14.998-6.446-23.453-2.372-120.19 40.07-240.392 80.12-360.578 120.183C1011.124 447.878 891.186 488.387 771 528c-120.737 729.033-243.897 1457.913-364 2187m644-437c1.26 7.533 4.74 16.047 6.448 22.806 1.796 3.63 9.048 1.393 11.945 2.194h625.962c15.335-.338 34.504 2.785 44.785-10.139 3.885-5.227-4.247-9.409-7.27-12.417-29.471-24.608-60.233-47.59-90.42-71.286-9.703-7.105-18.814-15.11-28.882-21.697-2.545-2.442-5.078 1.014-6.627 2.972-13.735 17.561-27.305 35.24-41.05 52.775-5.991 7.824-12.123 15.515-18.103 23.34-2.944 3.341-5.681 7.993-8.978 10.469-9.624 2.331-20.282-.037-30.14.983zm87-579.75c2.807 8.047 5.264 16.603 8 24.75h487c-5.641 99.714-13.524 199.396-24.461 298.687-1.436 12.253-2.892 24.534-4.438 36.766-1.425 11.036-2.533 22.209-4.53 33.143-.449 2.288-4.303 2.097-6 2.384-79.182.057-158.395-.01-237.571.02 9.79-52.619 19.076-105.361 27.714-158.19 4.22-26.472 8.526-52.932 12.453-79.45.93-6.706 1.914-13.386 2.923-20.066.812-4.85-.102-11.905 5.433-12.127 14.398.711 29.434-7.52 33.477-22.167-58.809-10.148-117.21-22.845-176-33-4.045 59.62-13.849 118.689-22.476 177.762-4.888 31.008-10.537 61.87-16.512 92.68-2.942 14.76-6.364 29.444-9.465 44.17-1.324 7.77-8.412 10.163-13.752 14.812-4.818 4.657-12.946 8.843-14.795 14.576 22.482 9.593 43.151 23.364 65.318 33.688 18.584 10.761 38.198 19.609 56.836 30.268 5.073 3.43 8.025-.81 10.21-4.504 10.867-14.543 22.151-28.774 33.015-43.317 2.406-2.919 4.877-6.695 7.577-8.923 7.37-2.711 18.528-.117 26.34-1.212H1782c-.52 42.588-4.952 85.008-8.117 127.431-3.015 30.681-6.358 61.32-10.82 91.82-3.27 22.54-8.329 44.821-17.188 65.865-6.296 16.635-23.69 25.975-41.077 24.88-27.591.149-55.135-.863-82.66-2.486-13.465-1.013-26.936-1.571-40.4-2.432-7.044-.25-14.04-.838-21.074-1.25-3.468-.2-6.922-.404-10.376-.595-2.55-.63-6.514.278-6.288-1.733-1.272-.575-2.635-.447-4-.5v11c7.76-1.805 18.183 2.39 27.142 4.038 30.789 8.444 63.087 18.254 87.459 40.068 5.881 5.793 12.03 11.462 16.436 18.524 13.56 22.008 12.764 48.736 11.963 73.37 6.917-.61 14.195.777 21-.5-.376-.427-.665-.865-.5-1.5 28.57-.057 57.645-1.804 85.197-9.926 38.3-10.681 72.043-36.795 88.472-73.411 17.66-38.645 25.49-80.783 32.024-122.453 10.327-71.361 14.365-143.347 18.807-215.21 13.794-.776 30.862-6.664 39-17-40-34.247-80.06-69.376-120.5-103-14.875 14.898-30.72 28.723-45.602 43.602-7.274 7.763-15.386 14.627-23 21.997-4.257 5.095-9.673 4.7-15.37 4.401H1746c7.63-64.076 15.098-128.201 21.027-192.461 3.301-32.642 5.797-65.352 8.9-98.006 1.603-16.773 2.42-33.614 3.752-50.411.203-1.943.88-4.605 2.085-5.689 12.197-3.148 28.698-8.372 35.236-18.933-22.591-17.19-45.899-33.533-68.664-50.502-23.679-15.936-45.59-34.811-69.711-49.998-13.34 16.485-25.948 33.594-39.282 50.082-2.913 3.583-5.574 7.354-8.53 10.89-2.603 3.266-5.954 8.373-9.594 8.795-161.067.665-322.154-.121-483.219.233zm11-550.516V1333.4c.236 5.591-.342 12.222.32 17.314.493 4.387 7.71 6.377 11.13 9.467 31.922 19.272 63.724 38.749 95.476 58.275 47.94 29.289 96.009 58.352 143.89 87.733 23.664 14.679 47.616 28.87 71.278 43.542 6.098 3.524 12.045 7.265 18 11 4.393 2.678 9.636 6.901 13.883 4.579 13.463-7.491 26.275-16.166 39.563-23.954 38.392-23.21 76.52-46.814 114.863-70.085 28.905-17.36 57.471-35.28 86.376-52.628 21.297-13.363 43.026-26.016 64.315-39.374 8.166-5.033 16.391-9.93 24.535-14.974 3.608-2.058 7.134-4.271 10.66-6.458 3.168-2.158 7.417-3.478 7.598-8.568.322-67.32-.058-134.662.113-201.98V961.46c-.33-7.38 2.47-18.203-6.502-22.245-50.416-31.044-101.15-61.536-151.568-92.556-50.468-30.874-101.06-61.547-151.484-92.48-11.222-7.11-22.759-13.69-33.967-20.823-2.51-1.02-6.248-4.513-8.587-3.295-42.012 24.48-83.218 50.693-124.864 75.842-31.273 18.964-62.486 37.98-93.632 57.128-23.737 14.14-47.161 28.756-70.772 43.096-17.605 10.686-35.176 21.403-52.694 32.214-2.933 1.83-7.586 3.732-7.775 7.805-.443 67.11.08 134.219-.155 201.588m47 .207V1308.2c-.033 8.304-2.61 18.573 8.265 23.024 55.334 33.437 110.463 67.184 165.665 100.805 27.924 16.829 55.58 34.043 83.476 50.903 13.978 8.158 27.448 17.11 41.445 25.226 6.638 4.498 16.268-3.729 21.54-6.773 6.785-4.24 13.683-8.3 20.543-12.405 33.126-20.388 66.388-40.568 99.611-60.785 49.6-30.721 99.728-60.61 149.462-91.103 5.525-4.235 14.782-7.25 17.529-12.577 1.324-58.789-.24-117.797.464-176.626V986.663c-.421-6.44 2.164-15.86-5.34-19.774-43.67-26.414-87.158-53.164-130.777-79.651-43.766-26.664-87.417-53.512-131.314-79.96-9.804-6.156-19.773-12.03-29.577-18.18-5.168-4.025-10.03-3.272-14.623.343-35.689 21.99-71.593 43.612-107.359 65.468-53.26 32.596-106.726 64.88-159.936 97.548-6.79 4.057-13.582 8.087-20.269 12.303-3.072 1.489-5.709 3.618-8.39 5.633-1.182 59.063.214 118.292-.415 177.55" style="fill:#fff;fill-rule:evenodd;stroke:none"/><path d="M1049 2277.25c2.225 4.988 2.792 10.765 4.777 15.91 1.374 3.416 1.736 10.342 5.768 10.486 13.878 1.006 27.928-.18 41.825.354h572.001c13.601-.01 27.197.013 40.786-.007 10.299.131 24.873-2.699 29.843-15.493-20.828-19.388-43.91-36.183-66.294-53.671-11.21-8.874-22.538-17.625-33.858-26.348-11.142-7.33-22.503-19.01-33.504-24.481-14.026 17.784-27.872 35.745-41.804 53.606-6.15 7.692-12.13 15.53-18.18 23.29-2.85 3.707-5.752 7.371-8.597 11.07-2.843 4.984-7.367 5.542-12.312 5.034H1049zm96-553.25h487c-6.013 99.023-13.41 198.063-24.461 296.687-1.421 12.039-2.82 24.102-4.369 36.126-1.469 11.086-2.465 22.31-4.564 33.285-.104 2.98-3.441 2.595-5.41 2.847-78.663-.602-157.613.898-236.196-.445 11.12-52.455 18.974-106.193 28.272-159.115 3.89-26.236 8.63-52.341 12.262-78.606.858-6.775 2.034-13.538 2.907-20.3.114-2.416.643-5.186 1.048-7.347 1.875-3.676 9.328-1.1 12.25-2.489 12.79-1.549 21.977-11.84 26.261-23.143-59.187-12.195-119.474-21.806-178.5-34.5-5.245 59.898-13.672 119.764-23.05 179.22-4.875 31.027-10.593 61.913-16.536 92.748-2.956 14.78-6.41 29.42-9.485 44.171-1.049 6.871-9.408 10.583-14.055 14.605-5.41 4.338-11.243 8.603-15.374 14.256 4.36 4.624 11.526 5.613 16.511 9.408 37.617 19.921 75.211 40.249 113.096 59.592 11.462-14.444 22.1-29.547 33.578-43.975 4.947-5.193 9.935-16.005 16.35-16.891 139.475-.382 278.985.07 418.465-.134-.813 42.246-4.866 84.34-8.21 126.431-2.934 30.71-6.435 61.338-10.869 91.87-3.449 22.3-8.258 44.464-17.25 65.263-6.393 16.392-23.692 25.463-40.867 24.432-54.383.884-108.527-5.335-162.804-6.996.218 3.171-.509 7.558 1.756 9.558 3.423.697 6.72 2.054 10.256 2.336 33.116 7.955 67.436 17.459 95.06 38.426 13.378 10.626 25.62 24.322 29.69 41.364 4.942 17.282 5.686 35.487 6.238 53.316 32.458.147 65.4.463 97.137-7.532 22.054-5.26 42.898-14.875 60.615-29.06 27.408-20.694 41.389-53.434 50.933-85.273 10.144-35.108 15.88-71.286 20.614-107.46 8.338-63.62 11.779-127.709 15.701-191.675 14.087-.917 32.551-7.028 40-18.5-41.133-34.345-81.286-70.428-122.5-104.5-14.885 14.533-30.132 28.67-45.102 43.102-7.17 7.876-15.282 14.729-23 22a34 34 0 0 1-5.88 5.149c-8.285 1.626-17.102.121-25.518.749 8.371-64.348 15.087-129.023 21.336-193.613 3.155-32.529 5.977-65.082 8.784-97.637 2.267-16.678 1.627-33.655 4.064-50.29.191-3.988 6.648-3.946 9.335-4.922 11.467-2.9 21.57-9.452 29.481-18.038-47.595-33.297-93.555-69.783-141.5-102.5-13.487 16.331-25.913 33.558-39.268 49.995-2.993 3.575-5.681 7.413-8.64 11.01-3.532 2.773-5.291 8.983-9.446 9.55-161.303 1.27-322.802-.232-484.146.445 1.28 9.326 5.92 17.884 8 27m355.5-155c39.255-24.863 79.65-48.425 119.114-73.056 34.862-20.84 69.15-42.577 104.025-63.387a12635 12635 0 0 1 91.584-56.003c6.678-3.974 13.131-8.338 19.917-12.125 3.285-1.847 6.446-3.909 9.631-5.906 9.628-4.53 7.145-13.7 7.229-21.408V957.662c-.192-4.211.3-9.24-.324-13.068.1-3.664-5.6-5.54-7.798-7.343-48.153-29.797-96.769-58.779-144.923-88.57-48.627-29.004-96.555-59.168-145.016-88.419-11.81-7.315-23.772-14.401-35.579-21.705-5.55-3.03-12.534-8.603-17.683-9.95-5.95-.037-11.41 6.32-16.567 8.406-41.863 25.166-83.217 51.111-125.054 76.309-31.404 19.108-62.67 38.392-94.131 57.404-23.759 14.29-47.218 29.052-70.955 43.373-8.744 5.395-17.61 10.635-26.346 16.028-3.91 2.381-7.733 4.915-11.694 7.214-3.516 2.098-8.135 4-7.872 8.93-.165 73.509.03 146.994-.058 220.502v167.154c.102 5.387-.133 10.793.094 16.164.025 4.934 3.983 6.555 7.729 8.79a23627 23627 0 0 0 86.73 52.94c42.981 26.324 86.185 52.231 128.987 78.823 43.324 25.503 85.571 53.085 128.96 78.356M1197 1147.842V1307.6c.202 4.828-.299 10.544.29 14.94.222 3.693 5.097 5.889 8.338 7.903 55.195 33.388 110.243 67.007 165.302 100.586 27.785 16.701 55.26 33.894 83.02 50.618 13.746 8.16 27.17 16.872 40.953 24.963 6.463 4.927 16-4.077 21.374-6.763 6.691-4.3 13.673-8.099 20.405-12.315 32.947-20.399 66.165-40.384 99.248-60.56 49.453-30.693 99.472-60.456 149.077-90.88 5.525-4.235 14.782-7.25 17.529-12.577 1.324-58.588-.24-117.397.464-176.025V986.862c-.163-6.41 1.974-15.594-5.713-19.185-43.68-26.499-87.257-53.152-130.872-79.75-43.628-26.526-87.107-53.322-130.846-79.65-9.804-6.156-19.773-12.03-29.577-18.18-2.331-1.217-5.365-3.32-7.598-2.385-35.957 21.357-71.59 43.572-107.401 65.196-54.098 32.9-108.068 66-162.184 98.849-6.67 4.305-13.725 8.026-20.394 12.316-2.848 2.069-6.566 3.946-9.14 5.888-2.857 1.987-2.113 6.828-2.275 9.521z" style="fill:#028902;fill-rule:evenodd;stroke:none"/></svg>