<svg xmlns="http://www.w3.org/2000/svg" width="3000" height="3000"><path d="M407 2715h2186c-120.11-729.14-243.257-1457.94-364-2187-121.653-40.09-243.099-81.112-364.7-121.395-91.164-30.407-182.32-60.766-273.474-91.162a32206 32206 0 0 1-51.529-17.183c-8.003-2.659-16.01-5.346-24-8-7.038-2.654-14.998-6.446-23.453-2.372-120.19 40.07-240.392 80.12-360.578 120.183C1011.124 447.878 891.186 488.387 771 528c-120.737 729.033-243.897 1457.913-364 2187m632-748.375c1.28 4.137 6.084 5.727 9.556 4.12 20.866-7.396 41.043-16.473 61.341-25.226 10.033-4.704 20.183-9.173 29.938-14.447 5.325-2.693 10.7-5.317 16.01-8.008 4.742-2.281 10.075-6.226 15.155-6.064v171c27.32.331 55.084.387 81.564-7.435 12.015-3.86 23.975-8.51 34.756-15.133 5.547-3.261 10.635-7.25 14.801-12.18 4.314-4.88 2.36-13.454 2.879-19.252h70v4c-22.055 17.39-43.158 37.715-66.871 53.4-34.593 24.416-70.713 46.944-108.423 66.254-39.477 20.294-80.443 37.742-122.706 51.346.904 3.279 3.197 7.546 4.5 10 58.866-9.916 117.57-21.486 175.2-37.173 27.986-7.437 55.587-16.284 82.996-25.57 14.167-4.817 28.05-10.39 42.018-15.73 6.892-2.694 13.705-5.562 20.513-8.429 5.977-1.892 13.513-6.724 18.773-7.098-.6 3.88-5.92 6.564-8.602 10.102-49.672 46.21-106.473 83.887-163.913 119.51-58.582 34.387-119.665 64.445-183.485 87.888 1.862 3.125 2.94 7.374 4 10.5 68.736-12.108 136.672-28.977 203.168-50.211 33.413-10.49 66.397-22.431 98.904-35.441 15.93-6.598 32.045-12.754 47.68-20.031 15.036-5.476 31.152-16.251 45.248-20.317-.662 4.406-5.809 8.529-8.975 12.475-55.454 57.345-119.946 105.3-188.65 145.584-69.965 41.031-144.574 74.81-222.375 97.941.991 3.856 2.821 9.185 4.5 12a1422 1422 0 0 0 228.105-50.755c36.138-11.541 72.017-23.876 107.114-38.323 17.634-6.803 34.731-14.827 52.01-22.426 8.188-3.96 16.403-7.825 24.634-11.674 8.89-3.206 17.762-10.496 25.637-11.822-.966 18.061-3.928 36.067-8.16 53.63-1.903 6.042-3.951 13.348-7.046 18.322-6.964 9.57-22.802 7.69-32.756 8.047-36.374-1.443-72.723-3.603-109.038-5.999v7c25.487 6.612 55.563 20.352 70.658 40.049 16.241 23.934 21 53.602 20.342 81.951 28.601.55 57.15-1.436 85.408-5.744 19.928-2.943 40.188-7.856 57.086-19.407 25.127-17.023 36.682-47.02 44.755-74.878 8.391-31.098 10.093-63.668 7.879-95.661-3.719-52.943-19.71-104.698-44.298-151.548-24.253-43.702-55.96-85.433-96.83-114.762v-4c16.568-8.385 32.482-18.934 47.809-29.487 7.735-5.286 15.244-10.884 22.414-16.904 7.417-4.226 15.27-15.29 22.777-15.609 13.667 93.93 35.279 188.65 81.684 272.402 44.612 79.549 114.696 143.17 194.316 186.598 7.295-28.8 22.101-55.82 41.784-77.988 20.122-22.149 47.97-37.294 77.216-43.012.169-3.014.68-6.005 1-9-51.198-15.39-102.012-33.167-150.363-56.178-23.731-11.544-46.609-24.724-68.363-39.656-11.005-7.25-21.401-15.369-31.73-23.514-5.097-4.116-10.84-9.19-15.345-13.148-4.025-3.962-10.968-9.427-11.199-14.504 38.155-7.234 75.404-18.96 112.846-29.102a1538 1538 0 0 0 54.913-17.4c9.012-4.385 18.618-7.417 28.683-5.86 8.156.803 19.39.303 25.558-8.638-20.93-16.032-43.72-30.148-65.07-45.707-10.987-7.79-22.2-15.274-33.164-23.081-5.393-3.757-10.71-7.608-16.21-11.188-4.46-3.634-13.213-7.698-13.556-13.024 16.982-3.304 36.051-11.09 50.18-18.132 11.626-4.75 8.847-15.886 8.82-24.612V1909c12.916-1.772 25.155-7.89 34-17.5-26.045-20.907-54.045-39.382-80.575-59.66-10.065-7.539-20.338-14.774-30.402-22.312-3.741-2.675-8.72-8.29-13.228-3.738-14.675 15.168-29.337 30.371-43.325 46.16-5.808 5.617-11.078 13.564-19.322 13.048-62.383.005-124.77 0-187.148.002v-2c2.527-2.943 8.27-3.362 12.253-5.256 30.022-11.05 59.504-23.588 88.109-37.92 14.875-7.393 29.772-14.769 44.356-22.693 13.438-8.216 33.487-2.068 43.282-15.131-36.658-31.27-73.193-63.607-110.5-94-11.252 11.656-22.06 23.724-33.87 34.87-8.986 8.179-16.808 17.478-25.225 26.16-3.36 3.694-9.523 3.001-14.025 2.97H1397c.534-4.583 6.397-8.15 9.602-12.102 13.36-12.995 25.542-27.101 38.395-40.578 2.704-3.338 9.176-2.211 13.63-3.18 13.378-2.511 30.989-5 35.373-18.14-61.896-13.145-124.783-23.434-186.5-37-29.65 63.78-71.152 121.537-115.09 176.111-45.5 54.831-95.54 106.87-153.41 148.889zm110-818.89V1333.4c.236 5.591-.342 12.222.32 17.314.493 4.387 7.71 6.377 11.13 9.467 31.922 19.272 63.724 38.749 95.476 58.275 47.94 29.289 96.009 58.352 143.89 87.733 23.664 14.679 47.616 28.87 71.278 43.542 6.098 3.524 12.045 7.265 18 11 4.393 2.678 9.636 6.901 13.883 4.579 13.463-7.491 26.275-16.166 39.563-23.954 38.392-23.21 76.52-46.814 114.863-70.085 28.905-17.36 57.471-35.28 86.376-52.628 21.297-13.363 43.026-26.016 64.315-39.374 8.166-5.033 16.391-9.93 24.535-14.974 3.608-2.058 7.134-4.271 10.66-6.458 3.168-2.158 7.417-3.478 7.598-8.568.322-67.32-.058-134.662.113-201.98V961.46c-.33-7.38 2.47-18.203-6.502-22.245-50.416-31.044-101.15-61.536-151.568-92.556-50.468-30.874-101.06-61.547-151.484-92.48-11.222-7.11-22.759-13.69-33.967-20.823-2.51-1.02-6.248-4.513-8.587-3.295-42.012 24.48-83.218 50.693-124.864 75.842-31.273 18.964-62.486 37.98-93.632 57.128-23.737 14.14-47.161 28.756-70.772 43.096-17.605 10.686-35.176 21.403-52.694 32.214-2.933 1.83-7.586 3.732-7.775 7.805-.443 67.11.08 134.219-.155 201.588m47 .207V1308.2c-.033 8.304-2.61 18.573 8.265 23.024 55.334 33.437 110.463 67.184 165.665 100.805 27.924 16.829 55.58 34.043 83.476 50.903 13.978 8.158 27.448 17.11 41.445 25.226 6.638 4.498 16.268-3.729 21.54-6.773 6.785-4.24 13.683-8.3 20.543-12.405 33.126-20.388 66.388-40.568 99.611-60.785 49.6-30.721 99.728-60.61 149.462-91.103 5.525-4.235 14.782-7.25 17.529-12.577 1.324-58.789-.24-117.797.464-176.626V986.663c-.421-6.44 2.164-15.86-5.34-19.774-43.67-26.414-87.158-53.164-130.777-79.651-43.766-26.664-87.417-53.512-131.314-79.96-9.804-6.156-19.773-12.03-29.577-18.18-5.168-4.025-10.03-3.272-14.623.343-35.689 21.99-71.593 43.612-107.359 65.468-53.26 32.596-106.726 64.88-159.936 97.548-6.79 4.057-13.582 8.087-20.269 12.303-3.072 1.489-5.709 3.618-8.39 5.633-1.182 59.063.214 118.292-.415 177.55m82 700.558v1.5c11.073 3.32 21.708 8.113 32.683 11.746 10.253 4.494 21.683 3.097 32.6 3.254h104.805c5.053-.816 12.918 1.5 15.897-2.35 10.146-13.064 18.576-27.356 26.903-41.59 4.134-7.004 8.234-14.023 11.784-21.343 3.165-7.288 9.684-15.192 10.328-22.717h-138.6c-9.183-.883-17.335 9.278-25.377 15.471-23.085 18.543-45.998 38.88-71.023 54.529v1.75zm27 160.5h130v-119h-130zm259 0h139v-119h-139zm207 57c-11.072 1.564-21.92 5.03-33.233 4.923-11.594.2-23.18-.021-34.767.077v-37h-122c.432 10.678 5.676 20.535 8.397 30.698 11.594 34.292 27.35 67.323 47.876 97.202 5.232 7.324 10.477 14.695 15.924 21.856 4.496 4.646 7.71 11.182 13.139 14.767 4.302.059 7.815-5.84 11.058-9.056 9.836-11.294 19.599-22.66 28.931-34.373 11.568-14.43 23.218-28.825 34.318-43.614 5.6-7.337 11.051-14.746 16.298-22.326 4.383-7.812 12.457-15.598 14.059-23.154" style="fill:#fff;fill-rule:evenodd;stroke:none"/><path d="M1037 1966.563c2.516 6.024 7.401 7.479 12.42 5.276 20.72-7.448 40.849-16.385 61.04-25.106 9.574-4.455 20.89-9.536 29.413-14.171 5.181-2.56 10.324-5.185 15.493-7.74 4.683-1.866 10.45-6.212 14.634-6.822v171c27.815.296 56.086.626 83.075-7.284 12.195-3.88 24.296-8.59 35.245-15.284 5.547-3.261 10.635-7.25 14.801-12.18 4.314-4.88 2.36-13.454 2.879-19.252h68v2c-22.055 17.39-43.158 37.715-66.871 53.4-34.593 24.416-70.713 46.944-108.423 66.254-39.477 20.294-80.443 37.742-122.706 51.346.129 3.302 1.766 6.95 3.287 9.523 1.162 3.552 7.167 1.36 9.685 1.336 37.81-6.357 75.445-13.639 112.844-22.054a1380 1380 0 0 0 110.892-30.202c18.486-5.747 36.637-12.41 54.809-19.005 17.703-5.923 35.041-15.283 52.483-21.098-50.918 47.257-107.837 87.652-167.046 123.819-60.37 35.067-122.872 67.708-188.954 90.681.379 4.583 3.165 8.54 4 13 69.141-10.811 137.021-29.157 203.82-49.78 33.383-10.535 66.412-22.138 98.857-35.288 31.077-12.196 62.362-26.464 92.323-40.432-55.513 60.677-122.154 110.459-192.557 152.524-35.809 21.374-72.754 40.85-110.932 57.675-19.362 8.182-38.63 16.69-58.394 23.85-19.16 8.242-40.107 12.639-59.117 20.951 2.11 2.963 2.632 7.06 4.681 10.82 1.629 2.656 6.778.389 9.087.618 9.953-1.33 19.874-2.672 29.77-4.354 70.361-11.491 139.907-28.215 207.634-50.473 65.891-21.109 130.374-47.452 191.828-79.111-1.469 17.667-3.947 35.375-8.42 52.548-1.989 6.043-3.931 13.492-7.435 18.286-7.58 8.608-22.679 6.842-32.669 7.153-36.185-1.438-72.323-3.914-108.476-5.987v9c25.487 6.612 55.563 20.352 70.658 40.049 16.241 23.934 21 53.602 20.342 81.951 29.264.561 58.49-1.306 87.404-5.743 19.926-2.938 40.195-7.854 57.09-19.408 25.27-17.155 36.844-47.397 44.904-75.445 8.41-31.545 9.911-64.533 7.739-96.952-3.713-52.82-19.585-104.47-44.073-151.238-24.205-43.911-56.114-85.76-97.064-115.214v-2c16.266-8.184 31.902-18.547 46.939-28.896 7.729-5.31 15.345-10.794 22.493-16.861 3.757-2.813 7.478-5.606 10.877-8.837 3.26-2.42 7.213-6.965 10.691-7.406 13.687 94.109 35.374 188.982 81.936 272.848 44.337 80.44 115.58 142.219 194.564 187.152 3.637-5.455 4.572-14.82 8.262-21.72 9.875-24.159 23.3-47.34 42.754-65.176 19.486-17.626 43.398-30.626 69.484-35.104.308-3.672.817-7.321 1-11-50.824-15.27-101.266-32.923-149.307-55.664-23.609-11.494-46.47-24.49-68.153-39.31-10.753-7.286-21.266-14.944-31.36-23.1-5.418-3.925-10.1-8.673-15.211-12.948-4.126-4.607-11.084-8.957-12.969-13.978 38.455-7.365 76.023-19.104 113.761-29.371 18.526-5.597 37.053-11.178 55.294-17.646 4.644-1.604 10.059-3.672 14.307-5.136 12.433-2.302 29.553 5.86 39.638-10.347-21.139-15.758-43.54-29.879-64.861-45.406-10.869-7.614-21.915-14.956-32.675-22.712-5.436-3.7-10.767-7.507-16.191-11.213-2.938-1.85-5.665-3.988-8.508-5.959-2.334-1.72-6.066-3.764-6.765-6.21 16.982-3.304 36.051-11.09 50.18-18.132 11.626-4.75 8.847-15.886 8.82-24.612V1910c13.267-2.735 28.658-8.241 35-20-42.163-27.641-81.329-61.574-123.687-89-14.657 15.557-29.525 30.923-44.026 46.628-2.475 3.274-5.532 6.07-8.39 8.974-2.626 2.295-5.925 6.798-9.073 7.035-31.825 1.036-63.79-.189-95.639.363-31.313-.76-62.998.926-94.185-.5 15.81-7.119 33.394-11.417 49.107-19.173 23.78-10.198 47.068-21.503 70.227-33.002 6.097-3.093 12.288-6.035 18.317-9.257 4.145-2.387 8.296-4.752 12.688-6.66 12.883-4.356 31.136-.89 38.661-13.908-37.764-31.363-74.439-64.657-112.5-95.5-11.336 11.581-22.145 23.65-33.87 34.87-8.995 8.201-16.908 17.414-25.236 26.225-3.695 4.316-8.313 4.16-13.239 3.905-35.286-.76-70.995.926-106.155-.5 15.024-14.828 30.1-29.633 43.742-45.731 1.875-1.979 3.742-3.971 5.635-5.9 17.82-3.872 42.127-2.702 48.623-21.369-62.998-13.629-126.839-24.471-190-37.5-6.543 16.305-15.754 31.636-24.077 47.114-30.803 53.875-68.68 103.222-108.505 150.628-41.27 46.868-85.572 91.602-136.418 128.258zM1500.5 1569c39.255-24.863 79.65-48.425 119.114-73.056 34.862-20.84 69.15-42.577 104.025-63.387a12635 12635 0 0 1 91.584-56.003c6.678-3.974 13.131-8.338 19.917-12.125 3.285-1.847 6.446-3.909 9.631-5.906 9.628-4.53 7.145-13.7 7.229-21.408V957.662c-.192-4.211.3-9.24-.324-13.068.1-3.664-5.6-5.54-7.798-7.343-48.153-29.797-96.769-58.779-144.923-88.57-48.627-29.004-96.555-59.168-145.016-88.419-11.81-7.315-23.772-14.401-35.579-21.705-5.55-3.03-12.534-8.603-17.683-9.95-5.95-.037-11.41 6.32-16.567 8.406-41.863 25.166-83.217 51.111-125.054 76.309-31.404 19.108-62.67 38.392-94.131 57.404-23.759 14.29-47.218 29.052-70.955 43.373-8.744 5.395-17.61 10.635-26.346 16.028-3.91 2.381-7.733 4.915-11.694 7.214-3.516 2.098-8.135 4-7.872 8.93-.165 73.509.03 146.994-.058 220.502v167.154c.102 5.387-.133 10.793.094 16.164.025 4.934 3.983 6.555 7.729 8.79a23627 23627 0 0 0 86.73 52.94c42.981 26.324 86.185 52.231 128.987 78.823 43.324 25.503 85.571 53.085 128.96 78.356M1197 1147.842V1307.6c.202 4.828-.299 10.544.29 14.94.222 3.693 5.097 5.889 8.338 7.903 55.195 33.388 110.243 67.007 165.302 100.586 27.785 16.701 55.26 33.894 83.02 50.618 13.746 8.16 27.17 16.872 40.953 24.963 6.463 4.927 16-4.077 21.374-6.763 6.691-4.3 13.673-8.099 20.405-12.315 32.947-20.399 66.165-40.384 99.248-60.56 49.453-30.693 99.472-60.456 149.077-90.88 5.525-4.235 14.782-7.25 17.529-12.577 1.324-58.588-.24-117.397.464-176.025V986.862c-.163-6.41 1.974-15.594-5.713-19.185-43.68-26.499-87.257-53.152-130.872-79.75-43.628-26.526-87.107-53.322-130.846-79.65-9.804-6.156-19.773-12.03-29.577-18.18-2.331-1.217-5.365-3.32-7.598-2.385-35.957 21.357-71.59 43.572-107.401 65.196-54.098 32.9-108.068 66-162.184 98.849-6.67 4.305-13.725 8.026-20.394 12.316-2.848 2.069-6.566 3.946-9.14 5.888-2.857 1.987-2.113 6.828-2.275 9.521zm82 700.533c6.426 3.361 15.19 5.592 21.338 8.24 6.406 1.87 12.371 5.018 18.811 6.762 26.25 1.773 52.739-.32 79.031.623h39.526c6.6-.125 13.192.168 19.774-.128 5.807-.26 8.326-6.21 11.577-10.49 15.615-24.232 31.227-49.001 42.943-75.382h-138c-6.264-.772-9.646 2.73-13.516 6.618-26.503 21.92-52.808 44.783-81.484 63.757M1306 2008h128v-117h-128zm259 0h137v-117h-137zm102 190c20.4-19.043 36.072-42.881 54.325-63.906 16.949-21.649 33.8-43.448 48.675-66.594-10.682 1.38-21.774 4.823-32.818 4.468-11.737.089-23.454-.014-35.182.032v-37h-120c14.777 59.829 44.348 116.69 85 163" style="fill:#028902;fill-rule:evenodd;stroke:none"/></svg>